<svg id="ffd3f1f4-ef77-4781-b8bf-19465a9c23f1" data-name="Layer 1" xmlns="http://www.w3.org/2000/svg" viewBox="0 0 63.53 60.98"><title>check</title><path d="M20.67,42.91c0-.07,0,0,0,0Z" style="fill:#5b9674"/><path d="M29.16,23.93l0,0-.29-.26Z" style="fill:#5b9674"/><path d="M33.09,19.54h0C33.06,19.49,33,19.43,33.09,19.54Z" style="fill:#5b9674"/><path d="M24,36.3s0,.08,0,.12A.17.17,0,0,1,24,36.3Z" style="fill:#5b9674"/><path d="M19.29,41.54h0l0-.11Z" style="fill:#5b9674"/><path d="M19.44,41.32a.34.34,0,0,1-.14.22c-.07.24,0,.3,0,.24C19.44,41.54,19.37,41.51,19.44,41.32Z" style="fill:#5b9674"/><path d="M5.3,30.68l.1-.05Z" style="fill:#5b9674"/><path d="M34.48,40.8s0,.06,0,.09S34.51,40.83,34.48,40.8Z" style="fill:#5b9674"/><path d="M7.75,32.56,8,32.28A1.58,1.58,0,0,0,7.75,32.56Z" style="fill:#5b9674"/><path d="M28.89,23.64l-.1-.11Z" style="fill:#5b9674"/><path d="M36.37,15.29a1.79,1.79,0,0,0,.24.15v0Z" style="fill:#5b9674"/><path d="M58.84.34l-.1-.1.08.27A.25.25,0,0,0,58.84.34Z" style="fill:#5b9674"/><path d="M42.13,10.51a.35.35,0,0,0-.08-.1c-.18,0-.4.26-.65.59l.33.31Z" style="fill:#5b9674"/><path d="M55,12.05l-1.13-.14C55.12,10,56.56,10,57.45,8.12l.06.22c.33,0-.89-1.73,3.07-1.75l.06.07c.07-.08,0-.22.27-.17l-.76-.1c.1-.37,0-.89.33-1.21a.77.77,0,0,1,.37.26,8.7,8.7,0,0,1,.72-.76l.61.28c.06-.44-.8-1.34.3-1.29-.77-.5,0-.66-.31-1l.42.21c.35-.38,1-1.15.93-1.65l-1.45-.2A12.39,12.39,0,0,1,59.84.59c.75-.26.1-.21-.19-.35l.08.2c-.49.1-.81-.33-1.09-.31l.1.11,0-.08a.33.33,0,0,1,.12.18c.07.09.11.18,0,.23V.51a1.26,1.26,0,0,1-.56.35L58,.51c.26.87-2.59.42-3,.71-.72-.14-.71.77-1.34.93-.8.5-.79-.19-1.4-.16-.62.19.44.31.29.49H51.6c.27-.32-.08-.37-.25-.44-.5.35-1.79.41-1.31,1.2-.91.25-1.16,0-1.45.21.2,0,.48,0,.6.11-.52-.06,0,.18.12.15-.11.59-3,.71-2.4,1.48l-.13-.13c.45.6,1.09,1,1.14,1.51l-.4-.06,0,.47A.49.49,0,0,1,47,6.71c-.15.65-1,.93-1.55,1.4l2,.82c-.73.1-2.12.26-1.72.78L45,9.52c-1.74,0-.12,1-.72,1.08l-1,0,.4-.43A6.55,6.55,0,0,1,42,10.4h0a.19.19,0,0,1,.13,0l0,.07a.75.75,0,0,1,0,1c-.46.4-.32,1.1-1.52,1.34l.44.66-.79.27-.48-.37c.47-.52,1.11-1.69,1.66-2.41l-.2-.18c-.34.41-.51,1-.78,1.29-.2.06-1,0-1.08-.49l.25.62a7.27,7.27,0,0,1-2.71,2.55l.34.05c-.08.4-.16.8-.61.6a5.16,5.16,0,0,1-2.78,1.72l.49.54c-.16.17-1.24-.14-.49.52l0,.6c-.23.23,0,.62-.55.7h-.11l0,0c-.67.44.53.35-.28.82-.57-.06.59.74.22,1l-1.07-.21c-.88.31-.1,1-.66,1.88a1.66,1.66,0,0,1-1.91-.7c.54.89.4.5.45,1.27-.38-.12-.42-.22-.63-.52-.68.24.11.47-.13.82.55.48,1.45,1.19,1.42,1.33l.28,0a1.09,1.09,0,0,1-.56,1.32l-.3-.2-.11.56-.42-.21-.26.75.16,0c0,.19-.19.78-.57,1l-.22-.14c-1.18.44-.67,1.64-1.11,2.67l-.39-.38c-.64.09.66.48.22.76L26.74,31c.56.76-.4.38-.82.47l.81.29-.4.37c-.52.38-1.12-.18-1.47-.46l.41.66-.7-.28c.64.66-.26.19-.08.85-.27-.09-.36-.28-.54-.18l.55,1.22-.19-.66.94.55c.51.84-.41.58-.3,1l-.18-.38c0,.67-.46.49-.83.69.23,0,.57,0,.59.27s-.38-.09-.57,0c.64.35.79.91.31,1.11a1,1,0,0,1-.22-.15c.06.14.21.27,0,.35l-.68-.44.54.64c-.29.1.09.65-.39.39l-.09-.19c-.31.49-.61,1-.9,1.46l-.6-.25c.74.53-.68.71.35,1.12a.37.37,0,0,0-.33.22s0,.07,0,.11-.07.07-.6-.26c-.08,0,.14.24.27.47s.19.46-.08.32c-.78-.86-.56-.5-.66-.53,0,.17.09.34.13.52a9.24,9.24,0,0,1,.16,1.92c-.3-1.21-.27-1-.26-.4s0,1.33-.1.51l.09,1.4c-.11-1-.13-.79-.16-.54v.09h0V43.2l-.05-1,0,.73,0,1.19c0-.67,0-.12-.09-1.71v-.15c0-.68,0-.67,0-.56s0,.51,0-.27l0,1.64,0-.4v-.27c-.06,1.44-.22.67-.29.15s-.09-1-.52-.27c.32-1-.22.43.08-.73.15-.77.12-.72,0-.49a4.1,4.1,0,0,1-.5.74,1.47,1.47,0,0,1-.09.17l-.12-.36c.74-1-.67.76,0-.06a2.9,2.9,0,0,0,0-.45,1,1,0,0,0-.15-.36,2.48,2.48,0,0,0-.28-.36c-.24-.25-.49-.49-.74-.73a37.46,37.46,0,0,1-3-2.9l-.12.3c-.46-.5-1.34-.74-1.41-1.45s-1.36-.1-1.54-.17c-.76.08-.5-1.07-.35-.88-.56-.25-1.65.3-2-.55.38-1-2.36-.47-1.72-1.42l-.06.08c-.41-1.26-2-.65-2.53-1.85l.14-.11c-1.27.58-2.5,1.2-3.72,1.85C1.14,33.75.66,35,.18,36.16c0,1.19-.09,2.37-.18,3.55q2.1.93,4.16,2c.74,1.06,1.43,2.13,2.06,3.2,1.13.87,2.21,1.78,3.21,2.72L9.8,48a4,4,0,0,1,.48.5c.46.54.91,1,1.38,1.59s1,1.28,1.4,2l1.17,2.6c.16.24.3.5.46.71L15.3,55c1.18,1.41,2.52,4.55,3.53,4.72A5.37,5.37,0,0,1,20,60a3.28,3.28,0,0,1,.44.25,2.62,2.62,0,0,1,.31.34v-.51c.23.12.17.39.22.49l.14.08c.13.06.13.11.21.18s0,.05,0,.08V61s0,0,.07,0a10.66,10.66,0,0,0,1.38-.33c.25-.07.4-.15.72-.22l1.29-.14c.85-.09,1.69-3.18,2.54-3.2.88-2.34,1.8-4.48,2.82-6.57.67-.49,1.49-3.24,2.21-3.59a21.23,21.23,0,0,1,.46-2.3,5.74,5.74,0,0,1,.24-1.18,10.4,10.4,0,0,1,1-2.11l0,.09.18-.7a.22.22,0,0,1,.19.08c-.23-1,.89-1.89,1.61-2.62l0,.09c2.75-5,4.34-10.35,8.47-14.41a7.87,7.87,0,0,0,2.78-3.17,10.19,10.19,0,0,1,3-3.33c.46,0,1.58-1.16,2.59-2.44A16.28,16.28,0,0,0,55,12.05Z" style="fill:#5b9674"/><path d="M60.85,5.44h0C61,5.7,61,5.59,60.85,5.44Z" style="fill:#5b9674"/><polygon points="45.45 8.13 45.49 8.11 45.05 7.93 45.45 8.13" style="fill:#5b9674"/><path d="M51.54,1.72c-.36.2-.32.27-.19.33A.42.42,0,0,0,51.54,1.72Z" style="fill:#5b9674"/><path d="M62.81,3.22c.16-.09,0-.2-.22-.3l-.23.24C62.49,3.15,62.68,3.23,62.81,3.22Z" style="fill:#5b9674"/><path d="M59.65.24,59.55,0C59.49.12,59.55.19,59.65.24Z" style="fill:#5b9674"/></svg>