<svg xmlns="http://www.w3.org/2000/svg" viewBox="0 0 347.25 280.38">
    <defs>
        <style>
            .cls-1 {
                fill: #fff;
            }
        </style>
    </defs>
    <title>Congress</title>
    <g id="Layer_2" data-name="Layer 2">
        <g id="Congress">
            <path class="cls-1"
                d="M334.39,202.4H321.62A8.19,8.19,0,0,0,314,191.13H284a8.19,8.19,0,0,0-7.59,11.27h-5.31v-1.59a7.68,7.68,0,0,0-7.67-7.68H238.54V167.57a7.94,7.94,0,0,0,3.58-6.66v-1.59a8,8,0,0,0-8-8h-5.58V136.09A8,8,0,0,0,227,121.18a53.23,53.23,0,0,0-31.66-47.51V71.38a10.06,10.06,0,0,0-5.83-9.11V40.41a16,16,0,0,0-7.94-13.79V8.09a8.09,8.09,0,1,0-16.17,0V26.64a16,16,0,0,0-7.89,13.77V62.19a10.06,10.06,0,0,0-6,9.19v2.37a53.27,53.27,0,0,0-31.48,47.42,8,8,0,0,0-1.52,14.92v15.23h-5.42a8,8,0,0,0-8,8v1.59a8,8,0,0,0,3.42,6.54v25.68h-25a7.68,7.68,0,0,0-7.67,7.68v1.59H70.25a8.37,8.37,0,0,0,.59-3.09,8.19,8.19,0,0,0-8.18-8.18H32.58A8.19,8.19,0,0,0,25,202.4H12.86A12.88,12.88,0,0,0,0,215.26v52.25a12.88,12.88,0,0,0,12.86,12.87H334.39a12.88,12.88,0,0,0,12.86-12.87V215.26A12.88,12.88,0,0,0,334.39,202.4ZM171.43,8.09a2.09,2.09,0,1,1,4.17,0V24.86h-4.17V8.09Zm-7.89,32.32a10,10,0,0,1,20,0V61.33h-20Zm-7.87,38.1,1.87-.76V71.38h0a4.05,4.05,0,0,1,4-4h23.74a4.06,4.06,0,0,1,4.05,4v6.3l1.88.76A47.26,47.26,0,0,1,221,120.91h-95A47.32,47.32,0,0,1,155.67,78.51ZM120.38,127.8a2,2,0,0,1,1.66-.89H225a2,2,0,0,1,1.65.89,2,2,0,0,1,.35,1.11,2,2,0,0,1-1.81,2l-2.69.27v20.17H201.2V137.58a3,3,0,1,0-6,0v13.74h-19V137.58a3,3,0,1,0-6,0v13.74h-17V138.58a3,3,0,1,0-6,0v12.74H124.54V131.15l-2.7-.27a2,2,0,0,1-1.8-2A1.94,1.94,0,0,1,120.38,127.8Zm-9.26,31.52a2,2,0,0,1,2-2h121a2,2,0,0,1,2,2v1.59a2,2,0,0,1-1.44,1.9l-2.14.64v29.68H219.2V168.58a3,3,0,1,0-6,0v24.55h-12V168.58a3,3,0,1,0-6,0v24.55h-19V168.58a3,3,0,1,0-6,0v24.55h-17V168.58a3,3,0,1,0-6,0v24.55H134.87V168.58a3,3,0,0,0-6,0v24.55H114.54V163.48l-2.05-.69a2,2,0,0,1-1.37-1.88ZM341.25,267.51a6.87,6.87,0,0,1-6.86,6.87H12.86A6.87,6.87,0,0,1,6,267.51V215.26a6.87,6.87,0,0,1,6.86-6.86H33.69v-6.31l-1.9-.75a2.18,2.18,0,0,1,.79-4.21H62.66a2.18,2.18,0,0,1,.79,4.21l-1.91.74v6.32h20.3v-7.59a1.68,1.68,0,0,1,1.67-1.68H263.39a1.68,1.68,0,0,1,1.67,1.68v7.59h20v-6.31l-1.9-.75a2.18,2.18,0,0,1,.8-4.21H314a2.18,2.18,0,0,1,.8,4.21l-1.91.74v6.32h21.47a6.86,6.86,0,0,1,6.86,6.86Z" />
            <path class="cls-1" d="M173.2,115.16a3,3,0,0,1-3-3v-2.58a3,3,0,1,1,6,0v2.58A3,3,0,0,1,173.2,115.16Z" />
            <path class="cls-1" d="M150.2,115.33a3,3,0,0,1-3-3v-2.58a3,3,0,0,1,6,0v2.58A3,3,0,0,1,150.2,115.33Z" />
            <path class="cls-1" d="M198.2,115.16a3,3,0,0,1-3-3v-2.58a3,3,0,1,1,6,0v2.58A3,3,0,0,1,198.2,115.16Z" />
            <path class="cls-1" d="M300.2,228.16a3,3,0,0,1-3-3v-2.58a3,3,0,1,1,6,0v2.58A3,3,0,0,1,300.2,228.16Z" />
            <path class="cls-1" d="M277.2,228.33a3,3,0,0,1-3-3v-2.58a3,3,0,0,1,6,0v2.58A3,3,0,0,1,277.2,228.33Z" />
            <path class="cls-1" d="M325.2,228.16a3,3,0,0,1-3-3v-2.58a3,3,0,1,1,6,0v2.58A3,3,0,0,1,325.2,228.16Z" />
            <path class="cls-1" d="M300.2,260.48a3,3,0,0,1-3-3v-21.9a3,3,0,1,1,6,0v21.9A3,3,0,0,1,300.2,260.48Z" />
            <path class="cls-1" d="M277.2,260.48a3,3,0,0,1-3-3V237a3,3,0,0,1,6,0v20.47A3,3,0,0,1,277.2,260.48Z" />
            <path class="cls-1" d="M325.2,260.48a3,3,0,0,1-3-3v-21.9a3,3,0,1,1,6,0v21.9A3,3,0,0,1,325.2,260.48Z" />
            <path class="cls-1" d="M45.2,228.16a3,3,0,0,1-3-3v-2.58a3,3,0,0,1,6,0v2.58A3,3,0,0,1,45.2,228.16Z" />
            <path class="cls-1" d="M22.2,228.33a3,3,0,0,1-3-3v-2.58a3,3,0,0,1,6,0v2.58A3,3,0,0,1,22.2,228.33Z" />
            <path class="cls-1" d="M70.2,228.16a3,3,0,0,1-3-3v-2.58a3,3,0,0,1,6,0v2.58A3,3,0,0,1,70.2,228.16Z" />
            <path class="cls-1" d="M45.2,260.48a3,3,0,0,1-3-3v-21.9a3,3,0,0,1,6,0v21.9A3,3,0,0,1,45.2,260.48Z" />
            <path class="cls-1" d="M22.2,260.48a3,3,0,0,1-3-3V237a3,3,0,0,1,6,0v20.47A3,3,0,0,1,22.2,260.48Z" />
            <path class="cls-1" d="M70.2,260.48a3,3,0,0,1-3-3v-21.9a3,3,0,0,1,6,0v21.9A3,3,0,0,1,70.2,260.48Z" />
            <path class="cls-1" d="M173.2,264.66a3,3,0,0,1-3-3V218.58a3,3,0,1,1,6,0v43.08A3,3,0,0,1,173.2,264.66Z" />
            <path class="cls-1" d="M150.2,264.66a3,3,0,0,1-3-3V218.58a3,3,0,1,1,6,0v43.08A3,3,0,0,1,150.2,264.66Z" />
            <path class="cls-1" d="M198.2,264.66a3,3,0,0,1-3-3V218.58a3,3,0,1,1,6,0v43.08A3,3,0,0,1,198.2,264.66Z" />
            <path class="cls-1" d="M216.2,264.66a3,3,0,0,1-3-3V218.58a3,3,0,1,1,6,0v43.08A3,3,0,0,1,216.2,264.66Z" />
            <path class="cls-1" d="M232.2,264.66a3,3,0,0,1-3-3V218.58a3,3,0,1,1,6,0v43.08A3,3,0,0,1,232.2,264.66Z" />
            <path class="cls-1" d="M131.87,264.66a3,3,0,0,1-3-3V218.58a3,3,0,0,1,6,0v43.08A3,3,0,0,1,131.87,264.66Z" />
            <path class="cls-1" d="M115.87,264.66a3,3,0,0,1-3-3V218.58a3,3,0,0,1,6,0v43.08A3,3,0,0,1,115.87,264.66Z" />
        </g>
    </g>
</svg>