<svg xmlns="http://www.w3.org/2000/svg" viewBox="0 0 338.15 264.06">
    <defs>
        <style>
            .cls-1 {
                fill: #1665CF;
            }
        </style>
    </defs>
    <title>Democrat</title>
    <g id="Layer_2" data-name="Layer 2">
        <g id="Democrat">
            <path class="cls-1"
                d="M127.56,139.7c42.84-4.21,75.29-32.11,72.33-62.19-.12-1.23-.32-2.44-.55-3.64H126.49a109.33,109.33,0,0,0-74.15,28.88,41.12,41.12,0,0,0-3.76,3.94C59.78,129,91.7,143.22,127.56,139.7Zm-32.45-40a4,4,0,0,1,3.72-2.63h13.61l5.32-13.8a3.92,3.92,0,0,1,3.68-2.53,4,4,0,0,1,3.68,2.51l5.39,13.82h13.42a3.95,3.95,0,0,1,2.39,7.09l-10.91,8.31L139.88,126a4,4,0,0,1-5.9,4.55l-12.54-8.14-12.68,8.23a3.94,3.94,0,0,1-5.94-4.4l3.94-13.73-10.4-8.38A4,4,0,0,1,95.11,99.74ZM39.3,122.85q.42-.85.84-1.68L41.7,118c.08-.16.16-.29.24-.43l.17-.34a42.92,42.92,0,0,1,2.62-5.15c12.07,20.52,39.88,34.11,72.05,34.11,3.73,0,7.53-.19,11.36-.56,46.14-4.53,81-35.37,77.72-68.74-.1-1-.24-2.05-.41-3.06H215A46.73,46.73,0,0,1,216.82,83c1.68,17.18-6.22,34.32-22.27,48.29-16.33,14.21-39.05,23.38-64,25.83C90.59,161.06,54.7,146.54,39.3,122.85Zm298.25-20.49a4.25,4.25,0,0,1-.79,5.31,29.74,29.74,0,0,1-33.65,4.26l-17.78-9.34-1.82,2-23.73,36.6a76.61,76.61,0,0,1-22.32,22.47l-1.08.71-.22,1.27c-4.81,27.08-.43,75.42,1.68,94.95a3.16,3.16,0,0,1-3.13,3.48H220.43a3.13,3.13,0,0,1-3.06-2.43C214,246.76,206,209,206,178.94v-3.32l-3.31.33a77.4,77.4,0,0,1-8.68.38l-66.63-.89a18.61,18.61,0,0,0-6.24,1l-25.73,8.66a124.58,124.58,0,0,1-21.76,5.19l-2.53.37,0,2.56c-.32,24.89,2.25,52.9,3.82,67.38a3.13,3.13,0,0,1-.79,2.43,3.09,3.09,0,0,1-2.34,1.05H57.55a3.14,3.14,0,0,1-3.07-2.44c-3-13.14-10.17-46.83-11.2-75.75L39.09,139.2l-4.72,7.05a79.11,79.11,0,0,1-4.94,6.59A187.23,187.23,0,0,1,6.21,175.65,3.79,3.79,0,0,1,0,173a3.73,3.73,0,0,1,1.33-3.14C8.15,164.1,17.26,156,22,150.26a128,128,0,0,0,14.23-21.42c15.59,21.21,46.31,34.93,81.48,34.93,4.42,0,8.92-.22,13.46-.67,26.15-2.57,50.06-12.25,67.33-27.28,17.55-15.27,26.18-34.23,24.3-53.39a52.42,52.42,0,0,0-1.88-9.63l18-13.18a80.62,80.62,0,0,1,31.46-14l2-.41,6-34.4A13.31,13.31,0,0,1,288.76,0a1.05,1.05,0,0,1,.94.26,1.29,1.29,0,0,1,.45,1.05l-2.66,42.55,3.05.14c1.33.06,2.56.14,3.74.25l2.54.23,7-26.8c1.27-4.88,4.78-8.57,8.76-9.21a1.45,1.45,0,0,1,.24,1.18l-6.62,40.12Zm-226,6.33-6.93-5.58h9.2a4,4,0,0,0,3.68-2.53l3.93-10.18,4,10.2a3.94,3.94,0,0,0,3.68,2.51h8.74l-7.24,5.51a4,4,0,0,0-1.35,4.38l3.08,9.33-8.75-5.68a3.94,3.94,0,0,0-4.3,0l-9.19,6,2.8-9.77A3.93,3.93,0,0,0,111.58,108.69Z" />
        </g>
    </g>
</svg>