<svg xmlns="http://www.w3.org/2000/svg" viewBox="0 0 342.01 275.63">
    <defs>
        <style>
            .cls-1 {
                fill: white;
            }
        </style>
    </defs>
    <title>Podium</title>
    <g id="Layer_2" data-name="Layer 2">
        <g id="Podium">
            <path class="cls-1"
                d="M145.68,74.9A9.35,9.35,0,0,0,155,65.56v-.64a9.34,9.34,0,0,0-9.33-9.33H104.32q0-5.64-.06-11.56c0-7.56-.06-15.38-.16-23.35a8.51,8.51,0,0,0-7.53-8.06c-5.42-.48-11.92-.88-18.77-1.16V7a7,7,0,0,0-7-7H57.86a13.32,13.32,0,0,0-13.3,13.3v1a13.32,13.32,0,0,0,13.3,13.3H70.77a7,7,0,0,0,7-7V17.47c6.66.27,13,.66,18.24,1.12a2.6,2.6,0,0,1,2.06,2.16c.1,7.94.13,15.76.16,23.31q0,5.91.06,11.53H62.15a3.31,3.31,0,0,0-1,.19,3.81,3.81,0,0,0-.75.07L7.7,66.33a9.57,9.57,0,0,0,1.85,19,10.08,10.08,0,0,0,1.89-.18l3.15-.63a19.46,19.46,0,0,0-.67,5l-.19,146.69A15.16,15.16,0,0,0,.91,251.14v12.33A3.89,3.89,0,0,0,4.1,267.3l45.14,8.33L151,274.89a4.69,4.69,0,0,0,.54-.06,3.48,3.48,0,0,0,2.9-3.41V258.8a16.87,16.87,0,0,0-2.6-8.86,15.19,15.19,0,0,0-2.22-2.52,14.5,14.5,0,0,0-5.6-3.15V74.9ZM71.5,21.35a1.07,1.07,0,0,1-.74.3H57.86a7.31,7.31,0,0,1-7.3-7.3v-1A7.32,7.32,0,0,1,57.86,6h12.9a1,1,0,0,1,1,1V20.61A1.07,1.07,0,0,1,71.5,21.35Zm-6.57,221.7V74.9H138V243.66H64.93ZM10.27,79.21A3.57,3.57,0,0,1,6,75.71a3.59,3.59,0,0,1,2.87-3.5l50.06-10h0v7.24h0l-40.26,8ZM58.93,75.6V243l-.23,0h0l-38.93-5.22v-1.13L19.92,89.5A12.46,12.46,0,0,1,21.73,83ZM51.55,248a14.54,14.54,0,0,0-4.19,10.2v11L6.91,261.72V251.14A9.19,9.19,0,0,1,15.82,242l35.89,5.85C51.66,247.9,51.61,248,51.55,248Zm96.86,10.2v10.67h-95V258.21a8.57,8.57,0,0,1,8.56-8.55h77.94A8.57,8.57,0,0,1,148.41,258.21ZM142,68.9H64.93V61.59h80.75A3.34,3.34,0,0,1,149,64.92v.64a3.34,3.34,0,0,1-3.33,3.34Z" />
            <path class="cls-1"
                d="M82.77,156.44H120a10.1,10.1,0,0,0,10.09-10.09V97.25A10.11,10.11,0,0,0,120,87.16H82.77a10.11,10.11,0,0,0-10.1,10.09v49.1A10.1,10.1,0,0,0,82.77,156.44Zm-4.1-59.19a4.1,4.1,0,0,1,4.1-4.09H120a4.1,4.1,0,0,1,4.09,4.09v49.1a4.09,4.09,0,0,1-4.09,4.09H82.77a4.1,4.1,0,0,1-4.1-4.09Z" />
            <path class="cls-1"
                d="M328.28,236.19l-.2-146.69a19.46,19.46,0,0,0-.67-5l3.15.63a10.08,10.08,0,0,0,1.89.18,9.57,9.57,0,0,0,1.86-19L281.66,55.85h0a3.81,3.81,0,0,0-.75-.07,3.42,3.42,0,0,0-1.06-.19H243.68c0-3.76,0-7.63.06-11.58,0-7.54.07-15.33.17-23.26A2.58,2.58,0,0,1,246,18.59c5.26-.46,11.58-.85,18.24-1.12v3.14a7,7,0,0,0,7,7h12.9a13.3,13.3,0,0,0,13.3-13.3v-1A13.3,13.3,0,0,0,284.15,0H271.24a7,7,0,0,0-7,7v4.43c-6.85.28-13.36.68-18.77,1.16a8.49,8.49,0,0,0-7.53,8.06c-.1,8-.13,15.75-.17,23.3q0,6-.06,11.61H196.33A9.34,9.34,0,0,0,187,64.92v.64a9.35,9.35,0,0,0,9.33,9.34H198V244.27a14.5,14.5,0,0,0-5.6,3.15,10,10,0,0,0-2.23,2.52,14.47,14.47,0,0,0-2.59,8.27v13.23a3.43,3.43,0,0,0,3,3.39,3.86,3.86,0,0,0,.49.06l101.73.74,45.14-8.33a3.89,3.89,0,0,0,3.19-3.83V251.14A15.16,15.16,0,0,0,328.28,236.19ZM270.21,17.26V7a1,1,0,0,1,1-1h12.91a7.29,7.29,0,0,1,7.29,7.3v1a7.29,7.29,0,0,1-7.3,7.3h-12.9a1,1,0,0,1-1-1Zm12.85,48.79V62.24h0l50.06,10a3.59,3.59,0,0,1,2.87,3.5,3.57,3.57,0,0,1-4.27,3.5l-8.4-1.68-40.26-8h0Zm-6,177v.61H204V74.9h73.06Zm6.27-.14h0l-.23,0V75.6L320.28,83a12.42,12.42,0,0,1,1.8,6.47l.2,147.05v1.13Zm-87-174A3.34,3.34,0,0,1,193,65.56v-.64a3.33,3.33,0,0,1,3.33-3.33h80.75V68.9H196.33Zm92.31,200h-95V258.21a8.56,8.56,0,0,1,8.55-8.55h77.94a8.56,8.56,0,0,1,8.55,8.55Zm46.46-7.16-40.46,7.46v-11a14.47,14.47,0,0,0-4.2-10.21l-.16-.16,35.9-5.84a9.19,9.19,0,0,1,8.92,9.14Z" />
            <path class="cls-1"
                d="M259.24,87.16H222a10.11,10.11,0,0,0-10.09,10.09v49.1A10.1,10.1,0,0,0,222,156.44h37.24a10.09,10.09,0,0,0,10.09-10.09V97.25A10.1,10.1,0,0,0,259.24,87.16Zm4.09,59.19a4.09,4.09,0,0,1-4.09,4.09H222a4.09,4.09,0,0,1-4.09-4.09V97.25A4.09,4.09,0,0,1,222,93.16h37.24a4.09,4.09,0,0,1,4.09,4.09Z" />
        </g>
    </g>
</svg>