<svg xmlns="http://www.w3.org/2000/svg" viewBox="0 0 330.01 263.18">
    <defs>
        <style>
            .cls-1 {
                stroke: transparent;
                fill: white;
                stroke-width: 3;
            }
        </style>
    </defs>
    <title>Podium</title>
    <g id="Layer_2" data-name="Layer 2">
        <g id="Podium">
            <path class="cls-1"
                d="M264.21,14.61V1a1,1,0,0,1,1-1h12.91a7.29,7.29,0,0,1,7.29,7.3v1a7.29,7.29,0,0,1-7.3,7.3h-12.9A1,1,0,0,1,264.21,14.61Zm52.07,217.08v-1.13l-.2-147a12.42,12.42,0,0,0-1.8-6.47l-37.2-7.44V237l.23,0h0Zm-32,10.15.16.16a14.47,14.47,0,0,1,4.2,10.21v11l40.46-7.46V245.14a9.19,9.19,0,0,0-8.92-9.14ZM328.7,72.47A3.55,3.55,0,0,0,330,69.71a3.59,3.59,0,0,0-2.87-3.5l-50.06-10h0v7.24h0l40.26,8.05,8.4,1.68A3.56,3.56,0,0,0,328.7,72.47ZM274.09,243.66H196.15a8.56,8.56,0,0,0-8.55,8.55v10.67h95V252.21A8.56,8.56,0,0,0,274.09,243.66ZM247.71,68.9h23.37V237.66H198V68.9h49.69Zm5.53,12.26H216a10.11,10.11,0,0,0-10.09,10.09v49.1A10.1,10.1,0,0,0,216,150.44h37.24a10.09,10.09,0,0,0,10.09-10.09V91.25A10.1,10.1,0,0,0,253.24,81.16Zm-11.53,6H216a4.09,4.09,0,0,0-4.09,4.09v49.1a4.09,4.09,0,0,0,4.09,4.09h37.24a4.09,4.09,0,0,0,4.09-4.09V91.25a4.09,4.09,0,0,0-4.09-4.09H241.71ZM314.28,77l-37.2-7.44V237l.23,0h0l38.93-5.22v-1.13l-.2-147A12.42,12.42,0,0,0,314.28,77Zm3.06-5.51,8.4,1.68a3.57,3.57,0,0,0,4.27-3.5,3.59,3.59,0,0,0-2.87-3.5l-50.06-10h0v7.24h0Zm-52.1-55.88h12.9a7.29,7.29,0,0,0,7.3-7.3v-1A7.29,7.29,0,0,0,278.15,0H265.24a1,1,0,0,0-1,1V14.61A1,1,0,0,0,265.24,15.65Zm8.85,228H196.15a8.56,8.56,0,0,0-8.55,8.55v10.67h95V252.21A8.56,8.56,0,0,0,274.09,243.66Zm48.2-7.35a9.19,9.19,0,0,0-2.11-.31l-35.9,5.84.16.16a14.47,14.47,0,0,1,4.2,10.21v11l40.46-7.46V245.14A9.14,9.14,0,0,0,322.29,236.31ZM278.15,0H265.24a1,1,0,0,0-1,1V14.61a1,1,0,0,0,1,1h12.9a7.29,7.29,0,0,0,7.3-7.3v-1A7.29,7.29,0,0,0,278.15,0ZM239.44,6.62a8.49,8.49,0,0,0-7.53,8.06c-.08,6.41-.12,12.72-.15,18.88,0,1.48,0,3,0,4.42,0,4,0,7.81-.06,11.57h6q0-5.62.06-11.54c0-1.47,0-3,0-4.45,0-6.14.07-12.43.15-18.81A2.58,2.58,0,0,1,240,12.59c5.24-.46,11.54-.84,18.17-1.12v-6C251.32,5.75,244.84,6.14,239.44,6.62Zm31.63,49H190.33A3.33,3.33,0,0,0,187,58.92v.64a3.34,3.34,0,0,0,3.33,3.34h80.75V55.59ZM65.8,14.61V1a1,1,0,0,0-1-1H51.86a7.31,7.31,0,0,0-7.3,7.3v1a7.31,7.31,0,0,0,7.3,7.3H64.77A1,1,0,0,0,65.8,14.61ZM52.66,236.91h0l.23,0V69.6L15.73,77a12.47,12.47,0,0,0-1.81,6.47l-.19,147.05v1.13ZM9.82,236a9.19,9.19,0,0,0-8.91,9.14v10.58l40.45,7.46v-11A14.47,14.47,0,0,1,45.57,242a1.21,1.21,0,0,1,.16-.16ZM4.27,73.21l8.4-1.68,40.26-8.05h0V56.24h0l-50.06,10A3.59,3.59,0,0,0,0,69.71a3.57,3.57,0,0,0,4.27,3.5Zm43.09,179v10.67h95.05V252.21a8.57,8.57,0,0,0-8.55-8.55H55.92A8.57,8.57,0,0,0,47.36,252.21ZM88.29,68.9H132V237.66H58.93V68.9H88.29ZM66.67,91.25v49.1a10.1,10.1,0,0,0,10.1,10.09H114a10.1,10.1,0,0,0,10.09-10.09V91.25A10.11,10.11,0,0,0,114,81.16H76.77A10.11,10.11,0,0,0,66.67,91.25Zm15.62-4.09H76.77a4.1,4.1,0,0,0-4.1,4.09v49.1a4.1,4.1,0,0,0,4.1,4.09H114a4.09,4.09,0,0,0,4.09-4.09V91.25A4.1,4.1,0,0,0,114,87.16H82.29ZM13.92,83.51l-.19,147.05v1.13l38.93,5.22h0l.23,0V69.6L15.73,77A12.47,12.47,0,0,0,13.92,83.51Zm39-20h0V56.24h0l-50.06,10A3.59,3.59,0,0,0,0,69.71a3.57,3.57,0,0,0,4.27,3.5l8.4-1.68ZM65.8,14.61V1a1,1,0,0,0-1-1H51.86a7.31,7.31,0,0,0-7.3,7.3v1a7.31,7.31,0,0,0,7.3,7.3H64.77A1,1,0,0,0,65.8,14.61ZM47.36,252.21v10.67h95.05V252.21a8.57,8.57,0,0,0-8.55-8.55H55.92A8.57,8.57,0,0,0,47.36,252.21ZM.91,245.14v10.58l40.45,7.46v-11A14.47,14.47,0,0,1,45.57,242a1.21,1.21,0,0,1,.16-.16L9.82,236a9.19,9.19,0,0,0-8.91,9.14ZM46.7,2.14A7.25,7.25,0,0,0,44.56,7.3v1a7.31,7.31,0,0,0,7.3,7.3H64.77a1,1,0,0,0,1-1V1a1,1,0,0,0-1-1H51.86A7.25,7.25,0,0,0,46.7,2.14ZM71.87,5.47v6c6.63.28,12.92.66,18.17,1.12a2.59,2.59,0,0,1,2.06,2.16c.08,6.38.11,12.67.14,18.81,0,1.49,0,3,0,4.45q0,5.91.06,11.54h6c0-3.76,0-7.61-.06-11.57,0-1.46,0-2.94,0-4.42,0-6.16-.06-12.47-.14-18.88a8.51,8.51,0,0,0-7.53-8.06C85.17,6.14,78.69,5.75,71.87,5.47ZM58.93,55.59V62.9h80.75A3.34,3.34,0,0,0,143,59.56v-.64a3.34,3.34,0,0,0-3.33-3.33H58.93Z" />
        </g>
    </g>
</svg>