<svg xmlns="http://www.w3.org/2000/svg" viewBox="0 0 369.48 264.23">
    <defs>
        <style>
            .cls-1 {
                fill: #CD2D37;
            }
        </style>
    </defs>
    <title>Republican</title>
    <g id="Layer_2" data-name="Layer 2">
        <g id="Republican">
            <path class="cls-1"
                d="M213.71,58.89a132.61,132.61,0,0,1,3.06,24.61,162,162,0,0,0,50.62,13.06c27,2.65,52.94-.86,73-9.88,12.1-5.44,21.13-12.46,26.59-20.5A92,92,0,0,0,359.06,43C348.7,22.66,331.11,10.26,306.79,6.12,292.09,3.62,221.13,2,192.68,1.44l-1.33,0h0l.39.65A197.62,197.62,0,0,1,213.71,58.89Zm44-15.87a4,4,0,0,1,3.73-2.63H275l5.32-13.81A3.92,3.92,0,0,1,284,24.06a3.87,3.87,0,0,1,3.69,2.51l5.38,13.82H306.5a3.95,3.95,0,0,1,2.39,7.09L298,55.79l4.47,13.48a4,4,0,0,1-5.9,4.56L284,65.68l-12.67,8.24a4,4,0,0,1-2.16.64,4,4,0,0,1-3.79-5l3.94-13.73-10.4-8.38A4,4,0,0,1,257.68,43Zm110.69,31.2A130.71,130.71,0,0,1,369.48,89,92.53,92.53,0,0,1,350,100.86c-23.85,11-54.6,15.27-86.61,12.13A195.21,195.21,0,0,1,215,102.09,64.09,64.09,0,0,0,216.7,90a169.45,169.45,0,0,0,50.1,12.52c6.06.6,12.07.89,18,.89,21.44,0,41.6-3.86,58.08-11.27C353.67,87.3,362.26,81.21,368.37,74.22ZM369.48,89A92.53,92.53,0,0,1,350,100.86c-23.85,11-54.6,15.27-86.61,12.13A195.21,195.21,0,0,1,215,102.09,64.09,64.09,0,0,0,216.7,90a169.45,169.45,0,0,0,50.1,12.52c6.06.6,12.07.89,18,.89,21.44,0,41.6-3.86,58.08-11.27,10.8-4.85,19.39-10.94,25.5-17.93A130.71,130.71,0,0,1,369.48,89Zm-.27,91.6c-1.29,29.09-6.56,60.18-9.58,76.13a9.24,9.24,0,0,1-9.08,7.5H321.18A9.22,9.22,0,0,1,312,253.68c2.45-16.9,5.61-42.07,6.66-66a9.6,9.6,0,0,0-9.6-10H221.39A11.49,11.49,0,0,0,210,188.39c-1.79,27-6.5,54.39-9.15,68.34a9.23,9.23,0,0,1-9.07,7.5H162.37a9.22,9.22,0,0,1-9.14-10.56c2.54-17.41,6.82-50.84,7-79,0-7.06-2.71-11.36-7.19-16-8.33-8.64-13.57-13.74-21.56-21-3.56-3.24-7.22-4.48-10.86-3.69a11.18,11.18,0,0,0-8,6.7c-1.41,3.46-5.13,10.53-14.27,19C86.81,170.32,59.22,179.46,41,175.25c-43-9.94-42.41-68.9-40.14-93.8a8.32,8.32,0,0,1,8.33-7.57h.28a8.31,8.31,0,0,1,6.05,2.58,8.2,8.2,0,0,1,2.3,6.12c-2,45,7.91,60,16.58,64.58a28.28,28.28,0,0,0,29.46-2l.1-.07c.57-.42,1.11-.86,1.61-1.3,5.91-5.13,8.92-11.95,8.95-20.27,0-5.67-.15-12-.32-18.73-.6-22.84-1.27-48.73,4.43-65.39a49.42,49.42,0,0,1,5.85-11.54A64.16,64.16,0,0,1,134.63,0l46.1,1.22h.11l3.37.06c.86,1.35,1.72,2.73,2.56,4.16.07.12.14.23.2.35a191.17,191.17,0,0,1,20.87,54.35,129.67,129.67,0,0,1,2.81,20.38q.19,3.51.12,6.78a63.37,63.37,0,0,1-1.43,12.58,41.13,41.13,0,0,1-1.77,5.77,25.39,25.39,0,0,1-4.29,7.33c-8.72,10.13-24.95,9.5-48.25-1.87l-2.63,5.39q19.75,9.65,33.75,9.64c9.12,0,16.37-3.08,21.68-9.24a31.75,31.75,0,0,0,5.32-9.09A201.24,201.24,0,0,0,262.78,119c7,.69,14,1,20.81,1,25.43,0,49.35-4.7,68.88-13.68a102.58,102.58,0,0,0,17-9.77C369.42,115.19,369.21,178.44,369.21,180.6ZM276.42,46.39a4,4,0,0,0,3.68-2.53L284,33.68l4,10.19a3.93,3.93,0,0,0,3.68,2.52h8.74l-7.24,5.51a3.94,3.94,0,0,0-1.35,4.38l3.09,9.33-8.76-5.68a3.94,3.94,0,0,0-4.3,0l-9.19,6,2.8-9.77A3.93,3.93,0,0,0,274.15,52l-6.93-5.58Z" />
        </g>
    </g>
</svg>