<svg id="bc1dfeff-d7ee-4cbb-b0b8-4b1d229cb74a" data-name="Layer 1" xmlns="http://www.w3.org/2000/svg" viewBox="0 0 58.55 59.89"><title>x</title><path d="M58.36,52.77a2.55,2.55,0,0,0-.15-.32l-.14-.21h0V52c0-.07,0-.11,0-.16h0v0h0a1.82,1.82,0,0,0,0-.31l.06,0-.06,0h0l.08-.07-.08.07h0l.07-.06,0,0-.09.08h0l0,0,0,0h0c.14-.11.46-.38.08-.07l.22-.18c-.42.34.06-.07-.3.23h0c.1-.08.08-.07,0,0v0s0,0,0,0h0l0,0,0,0h0l-.06.05,0-.06a2.38,2.38,0,0,0-.12-.35l-.21-.55L57,49.86c-.11-.1-.06-.07-.09-.11s0,0,0-.07,0,0,0,0,0,0,0-.06l-.12-.2a4.71,4.71,0,0,0-.53-.68L56,48.45h0l0,0,0,0v0h0l-.07-.14c-.19-.32-.32-.52-.41-.64L53.1,44.87c-.39-.45-.78-.88-1.18-1.3l.17-.11c-1.72-2.43-3.52-4.77-5.34-7.08l0,0-3.72-4.72-.72-.93.11-1.62-.19,1.53c-.14-.19-.29-.37-.44-.56l.07-.06.56-.91-.56.91-.1,0-.33-.41h0l.17,0,.59-.61c.15,0,.32.18.49.06a.31.31,0,0,0,0,.26c.2.15.06-.19.26-.4.12.08.32,0,.55-.05s.48-.17.5,0a7.38,7.38,0,0,1,.46-.72l.14.14h0s0,0,0,0l-.13-.13h0a.41.41,0,0,1,.07-.11c.06-.08.16-.2.26-.36-.25.07-.34,0-.35,0a.16.16,0,0,0,0,.07l-.17-.07-.08.11a.08.08,0,0,0,0,.05,1.28,1.28,0,0,1,0-.19h0l0,0V27.5l.06,0c.08,0,.11,0,.06,0h0l.12.05c0-.14.19-.41.07-.5-.11.1-.21.22-.31.32l-.24-.1,0,.06.24.1-.05.06-.24-.1,0,0h0l0,0h0l0-.06h0l0-.05h0a.61.61,0,0,0,0-.06h0l.07-.07.34-.31a3.63,3.63,0,0,0,.27-.28l.07,0,0-.11h0a6.62,6.62,0,0,0,.43-.56c-.52.5-.08-.33-.47-.22.72-.56.28,0,.69.08.39-.31.7-.2.86-.76.75-.38.12.36.57.27-.05.45-2.06,1-1.25,1.73-.31.25-.51.9-.86,1.17a2.79,2.79,0,0,0,1.56-.9L46,26.84c.39-.31.24-.69.56-.87-.06.25.37.25.67,0-.14,0-.26.11-.29,0,.58-.49.42-.87,1.08-1.51a7.44,7.44,0,0,1-1.63.49c-.1-.45.35-.34.65-.63,0,.09-.07.15.07.14l.23-.42c.85-.43.27.55,1,.23a.87.87,0,0,0,.55-.3c.13-.16.21-.31.32-.45l-.15-.33h.07l0,0,.12,0,0,0h0l0,0h-.14l.08-.05L49.06,23l.15.11A.23.23,0,0,0,49.3,23c.09.06.38-.07.56-.24l-.17-.52.73-.76-.77.64-.12-.36.52-.31.14.05h0s0,0,0-.06,0,0,0,0l.19-.11,0,0h0l0,0h0a.79.79,0,0,1,.37-.13s0,0,0,0c.47-.51.82-.72.89-.53l.32-.28L50,20l0-.06,2.16-.27a6,6,0,0,1,.58.4.08.08,0,0,1,0,0,.38.38,0,0,1,0-.16,1.26,1.26,0,0,1,0-.56,2.38,2.38,0,0,0,.8-.5l0,0,0,0a7.61,7.61,0,0,0,.64-.62,1,1,0,0,0,.32-.19l-.41.06c.61-.35.45-.49.93-.82-.13,0-.16,0,.15-.1l-.15.1.22-.1h-.06l.28-.17s-.1.12-.22.18l.18,0a1,1,0,0,0,.76-.57l.26-.1.13-.05s0-.07,0-.11a.94.94,0,0,1,.29-.43,1.15,1.15,0,0,1-.12.25,2.39,2.39,0,0,1,.33-.2h0c.45,0,1,0,.75-.12.1,0,.11-.07.11-.13h0c0-.21-.22-.38-.13-.38a4.62,4.62,0,0,0-.19-.91c0-.18-.2-.45-.36-.64l.1-.18c-.23-.37-.13-.39-.06-.35a3.21,3.21,0,0,0-.9-1.75,3,3,0,0,1-.85-1.36c-.37,0-.16.47-.26.59A6.16,6.16,0,0,1,54.2,10a3.93,3.93,0,0,0-.55-1.42c-.29-.55-.61-1-.33-1.16-1.19-.79.22.54-.45.35l-.12-.1a1.52,1.52,0,0,1,.59,1c-.12.28-.89-.25-1.14-.43L52.54,8a.81.81,0,0,0-.88.1l0-.06v0h0l.07.08-.07-.08,0,0h0l0-.19h.12l.17-.42a.83.83,0,0,0-.26-.06,2.44,2.44,0,0,0-.07-.68c-.05.55-.07-.22-.11.16,0,.62,0,.12,0,.25a3.38,3.38,0,0,0,0-.55c0,.16,0,.21,0,.27,0-.21-.12-.7-.1-.28a1.38,1.38,0,0,1,0-.33c0-.32,0,.25,0,0V6s-.08-.13-.14-.2c.09.61,0,.24,0,.45A1.8,1.8,0,0,0,51.05,6l.06.45c.06.38-.08-.26-.06-.05l0,.1c0,.19-.1-.16-.2-.47,0,.27,0,.38,0,.4l0-.24,0,0v.15l0,0V6l0,.12,0-.64-.05.41v.31l0,0c0-.08,0-.16,0-.28l0-.39-.09-.25,0,.6v.26l0,0V6c-.12-.2-.23-.37-.26-.23l.22.54c0,.07,0,0,0,.06s0,0,0,.09v0h0l-.07-.12a2,2,0,0,1,.07.22h0c0,.06-.12-.19-.14-.22l0-.07,0-.11a1.58,1.58,0,0,1,.13.31c-.05-.16,0-.11,0-.16s-.17-.45-.15-.37l0,.16-.07-.18c-.11-.18.11.29,0,.16l0,.08,0,.1c-.1-.24,0-.08-.15-.41l-.13-.26.13.29-.06-.07,0-.06c.05.12.1.24.05.14l-.07-.14.07.17c-.14-.31-.06-.09-.22-.44-.13-.15.17.5-.1,0a2.57,2.57,0,0,1,.22.5,2.76,2.76,0,0,1-.15-.3l.07.19c-.29-.53-.13-.18-.25-.35l-.08-.15c.09.19.15.33.11.28l-.16-.3c-.13-.2.33.64.21.46l.44.78c-.18-.32-.23-.36-.1-.13s0,0,0-.08l.1.2S50,6.2,49.94,6c.18.35,0,.12,0,.07l-.08-.15,0,0c.13.26.13.28,0,.16l-.23-.42c-.14-.21.07.15.11.22s-.06-.07-.2-.3c.23.44-.44-.66-.1,0l-.14-.24c.28.53-.19-.19.24.54-.55-.83.44.77,0,0l.07.12c-.09-.06-.24-.22-.3-.26l-.06-.1.06.1h0l-.17-.29.17.28s0,0,0,0l0,0,0,0v0l-.15-.24.13.21,0,0a.31.31,0,0,0,0,.09h0l0,0-.1-.17,0,0h0v0l-.06-.11.06.11,0,.1,0-.05,0,.05v0l-.09-.14,0,.08,0,.08h0l-.09-.15.09.15h0l.24.93c-.11,0-.2.09-.22.18l-.16-.06.15.14v0s0,0,0,0l.16.16-.29-.19.34.26v0h0l0,0,0,0-.38-.21c.47.38.32.31,0,.23s-.65-.18-.54,0l.54.22H49l-.35-.14.14.08-.17-.07.17.13h-.07l-.2-.14.17.14-.59,0,.48,1a.46.46,0,0,1-.48.26c.19.27-.45.39-.7.54.31-.13.84-.21.82.14a1.8,1.8,0,0,1-.8.73l.42-.1h0l-.61.42a1.12,1.12,0,0,0-.78.3,4.87,4.87,0,0,0,.36-.77,15.45,15.45,0,0,1-.91,1.29l-.76,0c.08.23-.55.38-.36.64-.73.27.25-.67.17-.9-.88.38-.29.87-1.3,1l.06-.42c-.26.16-.63.67-.75.58.06.08.15-.05.31-.16.16.43-.29.84-.41,1.21l-.29-.2-.25.08L41.93,13,42,13l.35.2h0l-.15-.09a.44.44,0,0,0-.08.14v0h0l.1-.18-.43.13a2,2,0,0,0-.15.28,1.61,1.61,0,0,1,.09-.39c.1-.22.12-.23.13-.24l.11.06-.25-.15h0s-.08,0-.22.4a1.72,1.72,0,0,0,0,1l0,.12a.81.81,0,0,0-.31-.19l-.21.65a.23.23,0,0,1,.15.2v0L41,15l0-.18h0L41,15h0l0,.07a13.52,13.52,0,0,1-1.32,1.18l.2-.3-.39.46c-.76.63-1.53,1.23-1.57,1.23l.11.2-.1,0c-.11.18-.09.21,0,.18H38c-.5.34-.38-.23-.86.26,0,.29-.17.46-.41.6a.31.31,0,0,1-.25-.27v.21a1.5,1.5,0,0,0-.35,0l-.12.05h-.15a.1.1,0,0,1-.07,0,1.33,1.33,0,0,1,0,.13.78.78,0,0,0-.46,0,.9.9,0,0,0,0,.18.74.74,0,0,1-.11-.16c0-.05-.27,0-.57.34l-.06.07-.2-.25-.24.13-.21-.25a2.23,2.23,0,0,0-.3.5l-.93.47c-.47-.29-.94-.62-1.35-.89l-.17-.57c.41.64.4-.28.89.52-.27-.75-.91-1.21-1.18-1.86a.27.27,0,0,1-.48.1.67.67,0,0,1,0-.18l-.59-.62c0-.15.19-.3.07-.48a.31.31,0,0,0,.26,0c.16-.2-.19-.07-.39-.27.09-.12,0-.33,0-.56s-.15-.48,0-.5a6.27,6.27,0,0,1-.73-.5l.12-.11-.1.09,0,0-.09-.06h0a3.17,3.17,0,0,0-.34-.28c.06.28,0,.36-.06.36h.08l-.07.15.1.08s.07.05.08,0h0s0,0,0,0l-.22,0h0l-.08,0,0-.08c0-.06,0-.09,0-.05l.05-.11c-.14,0-.39-.21-.48-.09l.31.32h0l-.11.23.06.06.11-.24.06.05-.11.24,0,0h0l0,0h0l-.05,0h0l-.05-.05v0a.09.09,0,0,0-.05,0l0,0-.07-.07-.3-.35L27.53,14l0-.07-.11,0h0a6,6,0,0,0-.55-.46c.48.54-.34.06-.24.46-.54-.75,0-.28.1-.69-.3-.41-.18-.72-.73-.9-.35-.77.36-.1.29-.56.45.07,1,2.12,1.69,1.33.24.32.89.55,1.15.91a2.93,2.93,0,0,0-.85-1.6l-.51.31c-.29-.41-.69-.27-.85-.6.25.07.26-.36,0-.68,0,.15.1.27,0,.29-.46-.6-.85-.46-1.48-1.15a7.85,7.85,0,0,1,.44,1.66c-.45.08-.33-.37-.61-.68.09,0,.14.08.14-.06L25,11.28c-.4-.88.56-.25.27-1a.62.62,0,0,0-.09-.3A1.18,1.18,0,0,0,25,9.7c-.16-.14-.32-.22-.46-.34l-.33.13h0v0l0,0h0c0-.1.08-.22,0-.19h0v0l0,.12h0l-.06-.09-.1.09-.12.14h0L24,9.46h0l.08-.1L24,9.27c.07-.08-.06-.4-.24-.6l-.52.15-.71-.73.61.76-.4.12-.27-.53a.78.78,0,0,1,.05-.14v0l-.06,0h0l-.11-.21.06,0h0l-.06,0v0a.78.78,0,0,1-.1-.35l0,0c-.5-.5-.7-.87-.51-.93a3.05,3.05,0,0,1-.29-.36l-.38,1.9L21,8.33l-.17-2.19a5.61,5.61,0,0,1,.41-.55.09.09,0,0,1,0,0l-.17,0a1.51,1.51,0,0,1-.56,0A2.34,2.34,0,0,0,20,4.81l-.05,0,0,0a7.79,7.79,0,0,0-.58-.66,1.38,1.38,0,0,0-.19-.33l.05.42c-.34-.64-.47-.45-.78-1,0,.12,0,.15-.1-.16l.1.16c0-.06-.05-.14-.09-.23l0,.06-.16-.29c.05,0,.12.11.18.23l0-.18A1,1,0,0,0,17.8,2c-.1-.11-.07-.41-.23-.45a1.09,1.09,0,0,1-.43-.31,1.15,1.15,0,0,1,.25.12A2.43,2.43,0,0,1,17.18,1h0c0-.45,0-.92-.1-.73,0-.1-.06-.11-.12-.11h0c-.18,0-.39.19-.38.1a5.6,5.6,0,0,0-.93.15c-.17,0-.45.18-.66.34L14.81.62c-.38.22-.39.12-.35.05a3.21,3.21,0,0,0-1.8.83,3,3,0,0,1-1.4.8c0,.37.46.18.58.28a7.26,7.26,0,0,1-.7,1.18,3.76,3.76,0,0,0-1.45.5c-.57.27-1,.58-1.18.29-.85,1.16.55-.21.33.46l-.11.12a1.52,1.52,0,0,1,1-.55c.27.12-.3.87-.48,1.12L9,5.35a.82.82,0,0,0,.06.89L9,6.29H8.93L9,6.21l-.09.06v0l-.19,0s0-.06,0-.11l-.42-.19a1.47,1.47,0,0,0-.07.26,2.26,2.26,0,0,0-.68,0c.54.07-.22.06.15.12.62,0,.13,0,.25,0a5.06,5.06,0,0,0-.55,0l.27,0c-.21,0-.71.09-.29.08a.89.89,0,0,1-.32,0c-.32,0,.25,0,0,0H7s-.14.07-.21.13c.61-.07.23,0,.45,0a1.31,1.31,0,0,0-.33.08l.45,0c.38,0-.26.07,0,.06l.1,0c.18,0-.17.09-.48.18.24,0,.36,0,.39,0L7.12,7l0,0H7.3s0,0,0,0H7.14L6.93,7l.12,0H6.41l.4.06h.33l0,0H6.8l-.4,0c-.14,0-.48,0-.24.07h.59l.29,0H7c-.22.12-.41.23-.26.27l.54-.2c.07,0,0,0,.06,0l.08,0v0h0l-.14.08c.51-.18,0,0,0,0H7.18l.25-.09c-.17.05-.12,0-.16,0l-.38.14.16,0-.17.06c-.2.1.29-.1.16,0l.13-.06h.1c-.33.13-.11,0-.47.15l-.27.13.3-.12-.07,0-.06,0c.12,0,.23-.09.13,0l-.14.06.17-.06c-.31.12-.08,0-.44.2-.16.13.5-.15,0,.11a2.18,2.18,0,0,1,.5-.2l-.3.14.19-.07c-.54.27-.18.12-.35.24l-.16.07c.19-.08.34-.14.29-.1l-.31.15c-.2.12.65-.3.46-.19l.8-.41c-.33.17-.37.21-.14.09s0,0-.08,0l.2-.09s-.42.22-.61.31c.36-.17.11,0,.07,0L6.87,8l0,0c.25-.12.28-.11.15,0l-.43.21c-.21.13.15-.07.23-.11s-.08.06-.31.2c.45-.22-.67.42,0,.09l-.24.14c.54-.27-.21.18.54-.22-.85.51.79-.42,0,0l.12-.07c0,.07-.19.19-.25.26l-.13.07.13-.07h0L6.3,8.7l.32-.18,0,0,0,0,0,0h0l-.22.12.22-.12h0s.05,0,.12,0h0l0,0-.12.07.13-.08h0l-.17.1h0l-.09.05.09-.05h0l.09,0h0l-.11.07.08,0,0,0h0l-.11.06.12-.06,1-.22a.4.4,0,0,0,.16.23.59.59,0,0,0-.06.14L8,8.61H8l0,0,.16-.16L8,8.72l.28-.33h0v0l0,0h0c0,.1-.14.24-.22.38.4-.46.32-.31.24,0s-.2.65-.05.54l.24-.53,0,0v.09l-.15.35.09-.15-.08.18.09-.14,0-.06v.1l-.14.19.14-.17v.59l1-.43a.48.48,0,0,1,.28.5c.27-.17.37.47.52.74-.13-.32-.19-.86.16-.82a1.83,1.83,0,0,1,.71.84l-.09-.43h0l.4.63a1.17,1.17,0,0,0,.28.8,4.35,4.35,0,0,0-.77-.4,14,14,0,0,1,1.27,1l-.07.76c.24-.06.36.58.63.4.25.74-.66-.28-.9-.22.36.91.87.33,1,1.36l-.42-.08c.16.27.66.66.56.78.09-.06,0-.16-.15-.32.3-.1.58.09.85.26l.14.48.07.25-.06.09-.11.19.06-.09,0,0L14,16l0,0,0,.05L13.83,16l.12.45a1.49,1.49,0,0,0,.27.15,1.77,1.77,0,0,1-.39-.11c-.21-.1-.22-.13-.23-.14h0l.07-.11-.16.26h0s0,.08.37.23a1.61,1.61,0,0,0,1,0l.17,0a.89.89,0,0,0-.22.31l.65.24a.23.23,0,0,1,.2-.14h0a2,2,0,0,1-.07.19l-.17-.06h0l.17.06h0l.07,0a12.38,12.38,0,0,1,1.15,1.37l-.3-.22.45.42c.6.79,1.18,1.59,1.18,1.63l.2-.1a.41.41,0,0,1,0,.1c.18.12.2.1.18,0s0,0,0-.07,0,0,0,0c.35.53-.24.39.24.9.29,0,.45.19.59.44a.3.3,0,0,1-.28.23h.21a1.59,1.59,0,0,0,0,.36l.05.12v.15s0,.07,0,.07l.14,0a.86.86,0,0,0,0,.48h.17l-.17.1s0,.27.33.57l.08.08-.26.18.11.25-.25.2a1.87,1.87,0,0,0,.49.32L20.61,26c.74.43.89,1.07,1.22,1.68l-.93,1.05h-.09l0,.07-.25.28-.05,0,0,0-.15-.13,0,0,.16.15-.06.13-.43.49a2.79,2.79,0,0,1,.11-.35l.05-.11,0-.05.05-.1.09-.16-.15-.14a2.86,2.86,0,0,0-.36.9l0,.1,0,.18-.35.39L19,30a.81.81,0,0,0-.36.29l-1.22,1.83-.46.39a15,15,0,0,0-1.78,1.88,2.48,2.48,0,0,0-.86.64l-.46.07.19.26-.59.38v-.07c0,.15,0,.3-.18.33-.05,0-.16,0-.11-.1l-.27.45c0-.44-.4.2-.59-.14-1.32.85-1.27,1.66-2.56,2.13l-.61-1L6.71,40.17l-.17.2a3.25,3.25,0,0,0-.35.27,2.8,2.8,0,0,0-.56.73l.16.57,0,.16v0h.06a3.06,3.06,0,0,1-.44.49,1.19,1.19,0,0,0,.49-.38l.07.26a1.56,1.56,0,0,1-.37.43A.8.8,0,0,0,6,43H6a.87.87,0,0,0,0,.23c0,.09.06.1.13,0s0,.07,0,.08H6.2l-.47-.06-.62-.07c.4,0,.77.08,1.09.13l.43,1.47a1.56,1.56,0,0,0-.2.16l0-.06a2,2,0,0,0-.5-.54,2.36,2.36,0,0,0-.32-.2A2.13,2.13,0,0,0,5.23,44L5,44l-.32,0A1.71,1.71,0,0,1,5,44l.18,0,.3.09c.18.07.27.11.25.08a1.57,1.57,0,0,0-.51-.27,2.5,2.5,0,0,0-.54-.1v.92L3.9,43.9l0,.1-.15-.15.07-.08.13.13A1.49,1.49,0,0,0,4,43.66l.64-.43-.09.28c.17-.11.35-.2.52-.29a3.76,3.76,0,0,0,.47-.3l-.07,0s-.06-.07-.18-.08-.4,0-.4-.06,0,0,0,0h.34s0,0,0,0v0c0-.07,0-.22,0-.33a2.93,2.93,0,0,1,.16-.62,2.88,2.88,0,0,1,.17-.35L5.51,41,3.45,43.47l.19.18-.12.12a.37.37,0,0,0,.06.15L3.45,44h0l-.14-.18c0-.06,0-.13.12-.34v0l-.11-.11c-.29.19-.24.15-.25.18l.55.7-.13.13.82,1-1.09-.87c0,.11-.08.28-.13.49a2.09,2.09,0,0,0-.07.7.31.31,0,0,1,0,.08l-.79-.12h0v0l0-.12a1.55,1.55,0,0,1,.06-.23,1.43,1.43,0,0,1,.08-.22c.05-.09,0,0,0-.05s0,0,0,0-.05,0-.09,0A1.35,1.35,0,0,1,2,44.9C2,45,2,45,2,45s0,0-.21.09A4.06,4.06,0,0,0,0,46.81l2.22,1.72L.29,49.65l-.16.1h0v0l0,.15a1.66,1.66,0,0,0,.13.27,1.23,1.23,0,0,0,.47.43l-.19.24c1.15.92,1.1,2.71,2.35,3.28-.1,2,1.28.53,1.24,2.35l.1-.11.18.33.1.2c.08.13.17.26.26.39l.45-3.1c.11.13.34.4.19.23l.11.12.17.2h0l-.37-.42.37.43h0l-.11-.12-.23-.26.33.38h0l-.1-.11.09.11,0,0-.28-.29.3.32v0l-.19-.2a2.1,2.1,0,0,0,.18.2h0l-.07.08-.24-.22.23.22h0l-.06,0,.06.06,0,0-.06-.05.06.05-.26.27.46.84.06.1-.61.53,0,0,.59-.53s.05.09.08.14L6.15,56l-.07-.09.18-.16.06,0L6.15,56a.71.71,0,0,1,.07.09l.17-.26h0v0h0l0-.08,0,0,0-.06h0l0,0a.14.14,0,0,1,0,.06l0,0,0,0,0,.07s0,.05,0,.07l-.51,1-.25.2h0l.09.11-.6,1.12a2.66,2.66,0,0,0,1.44.33v.08h0v-.08h.27a2.7,2.7,0,0,0,.63-.16,2.53,2.53,0,0,0,.46-.2H8l-.2.12-.31.14a2.8,2.8,0,0,1-.86.19v.09a2.79,2.79,0,0,0,1-.23l.31-.16.2-.14h0l.24,0,.17,0h0l.32-.07.05,0-.05,0h0l.07.08c.06.06,0,0-.07-.09h0l.06.07s0,0,0,0l-.08-.1h0l0,0,0,0h0c.12.13.39.43.08.07l.18.21c-.35-.4.07.06-.24-.29h0c.08.09.07.07,0,0H9s0,0,0,0H9l0,0,0,0H9l0-.06H9L9.37,58l.44-.18.61-.64c.11-.11.1-.1.17-.11h0l.06,0,.19-.13a5.21,5.21,0,0,0,.65-.55l.24-.26h0l0,0,0,0h.05l.13-.07a6.86,6.86,0,0,0,.65-.46L15.21,53c.42-.39.83-.79,1.23-1.19l.11.16c2.34-1.79,4.59-3.66,6.8-5.54l0,0,4.53-3.85c.84-.71,1.67-1.41,2.51-2.15l1.63,1.17.41.51a14.34,14.34,0,0,0,1.83,1.88,2.45,2.45,0,0,0,.61.89l.05.46.28-.17.36.61h-.08c.15,0,.31,0,.33.2,0,.05-.05.15-.11.1l.45.29c-.44,0,.19.41-.16.59.81,1.38,1.63,1.34,2.07,2.7L37,50.28l2.77,2.58.2.19a4.07,4.07,0,0,0,.26.35,2.58,2.58,0,0,0,.79.64l.65-.16h0l.08,0a2.9,2.9,0,0,1,.44.43,1.2,1.2,0,0,0-.33-.46l.28-.07a1.84,1.84,0,0,1,.35.33.9.9,0,0,0,.07-.37v0l.23,0c.08,0,.11-.06,0-.13H43v0h0l0,.2,0-.2,1.54-.38.14.19-.15.09a2,2,0,0,0-.51.47,2.2,2.2,0,0,0-.19.3,1.51,1.51,0,0,0-.14.35l0,.16c0,.1,0,.2-.05.3l.73,0h0l-.72,0h0l.72,0-.8.78.09,0-.15.15L43.33,56l.14-.13a.92.92,0,0,0-.25-.15L42.81,55l.28.1a6.1,6.1,0,0,1-.29-.57v0a4.48,4.48,0,0,0-.28-.47l0,.08s-.08,0-.09.17-.07.4-.08.41,0,0,0,0l0-.37s0,0,0,0h-.08a2,2,0,0,1-.32,0,3.21,3.21,0,0,1-.61-.18,2,2,0,0,1-.26-.14l-.41.1L43,56.28l.19-.18.11.13a.45.45,0,0,0,.15-.06.84.84,0,0,1,.08.14l.24-.18h0L44,56l0,0-.26.19a1.42,1.42,0,0,1,.12.13l1-.75-.9,1,.5.16a2.06,2.06,0,0,0,.74.09h0l-.14.79h0l-.11,0-.22-.07c-.12,0-.36-.16-.29-.12s0,0,0,0a.17.17,0,0,1,0,.1,1.31,1.31,0,0,1-.14.3c.06,0,.11-.05.13,0s0,0,.09.22a4.11,4.11,0,0,0,1.62,1.89l1.81-2.15,1,2,.09.17h0l.14,0a2,2,0,0,0,.28-.11,1.24,1.24,0,0,0,.45-.46l.23.21c1-1.12,2.78-1,3.42-2.23,2,.18.6-1.26,2.42-1.16l-.11-.1.35-.16.2-.1.4-.23-3.07-.58c.14-.1.42-.33.24-.18l.12-.1.21-.17h0l-.44.36.45-.36h0l-.13.1-.26.22.39-.31h0l-.1.08.09-.07h0l-.3.27.33-.29h0l-.21.18a1.29,1.29,0,0,0,.2-.17h0l.07.07-.22.22.22-.22h0l0,.06.06,0,0,0s-.06.06,0,.06l0-.06.26.26.85-.43.1,0,.51.62,0,0-.51-.61.15-.07-.26-.23-.09.06L55.53,54a.16.16,0,0,0,0-.07l.2.19.1-.07-.26-.18,0,0h-.05l-.08,0,0,0-.06,0h0l0,0h0l0,0,0,0,0,0,.06,0h.08l.93.54.18.25h0s0,0,0,0l.12-.08,1.1.65a2.65,2.65,0,0,0,.39-1.43h0a2.43,2.43,0,0,1,0-.27,3.75,3.75,0,0,0-.13-.63,5,5,0,0,0-.19-.47v0l.12.21c0,.08.07.17.12.32a2.58,2.58,0,0,1,.16.86h.09A3,3,0,0,0,58.36,52.77ZM44.5,28.09h0Zm-.28-.27.1.1C44.26,27.93,44.23,27.89,44.22,27.82Zm.11.1h0l-.11-.1h0Zm-.11-.12,0,0h0l0,0Zm-.12-.11,0,0,0,0ZM57.35,13.53v.12C57.11,13.38,56.92,13.24,57.35,13.53Zm-5,5.54a2.68,2.68,0,0,0,.34-.13.45.45,0,0,0-.34.13c0-.26.44-.48.85-.67l.08,0,.09,0c.17,0,.35-.09.19-.11.54-.54.47-.23.58-.14a3.41,3.41,0,0,0-.7.35l-.07.05,0,.05a3.15,3.15,0,0,1-.63.39.7.7,0,0,1,.3.15.61.61,0,0,1-.66.06S52.35,19.1,52.35,19.07ZM51.67,7.33c.06.07.15.16,0,.19l0,0C51.66,7.44,51.67,7.38,51.67,7.33Zm0,.4h0v0Zm0,.35h0Zm0-.09,0,.06h0l0-.06Zm0,0,0,0h0l0,0Zm0,0,0,0h0l0,0Zm-.7.13c0-.07,0-.06,0-.05l0,0Zm.17.25c-.12-.18,0,0,0,0h0v0h0l0,0,0,0h0c0-.09-.1-.16-.12-.21h0l.13.2Zm0,0h0L51,8.24v0h0Zm-.05-.91L51,7.37h0l.07.12Zm0-.07L51,7.33h0L51,7.4Zm0,0L51,7.3h0l.06.08Zm0,0s0,0,0,0h0L51,7.29h0l0,0s0,0,0,0h0l0,.07Zm0,0,0-.07h0l0,.06Zm0,0,0-.06v0l0,.06Zm0,0,0-.06h0l0,.06Zm0,0h0l0-.06h0l0,0Zm0,0,0,0h0l0,0Zm-.15-.55.14.52h0v0l0,0-.11-.48Zm-.11-.49h0v0Zm0,.46v0l0-.06s0,0,0,.08h0l0,0c0-.07,0,0,0-.09V6.48s0,0,0,0Zm-.12-.34,0,0v0S50.59,6.31,50.6,6.33Zm0,0,0,.09v0Zm-.9,2.17h0l-.18-.23Zm-.1-1.29h0l0,0,0,0ZM49.38,7v0L49.33,7l.18-.11.06.24h-.06ZM49.25,9.1c0,.05,0,.09,0,.14h0l-.07.05,0,0,.08-.22Zm-.06-1.51h0l0,0Zm-.07,0h0Zm-.24,15.71h0S48.87,23.28,48.88,23.29ZM48.84,9l.18.36-.3.21a.7.7,0,0,0-.3,0Zm-3.15,2.54.06.1c-.4.28-.81.57-1.2.87a.45.45,0,0,0,0-.23C45.08,12.43,45.2,11.6,45.69,11.57ZM43.87,27.48h0l-.06.08Zm-.26-.24.16.15h0l-.16-.15Zm0,0,.15.13h0l-.16-.14Zm0,0,.16.14-1.57-.64,0,0,.51.17Zm-.82-13.67,0-.09.16.15-.16.16A.3.3,0,0,1,42.78,13.57Zm.24.1h0l0,0v0l0,0Zm0,0Zm0,0Zm0,0h0v0Zm.06,0Zm-.39-.47.22.14a.49.49,0,0,0,0,.15h0l.18,0,0,0v0h0v0h0v0h0v0h0l0,.08,0-.08h0l0,.09,0,0h0l.06,0,0,0h0l0,0h0v0h0l0,0s0,0,0,0l0,0-.12-.08h0l-.08-.06v0l.19.15h0l-.17-.15h0l0,0-.18-.09Zm-.31,13.51-.13,0h0Zm-.3-12.91a.86.86,0,0,0,.1.32.73.73,0,0,0,.09.13l-.35.3a1.3,1.3,0,0,1-.19-.33A2.06,2.06,0,0,1,42.07,13.82ZM7.18,7.09h0Zm.19.12h0c-.06,0-.14,0-.12,0Zm.13,0h0l-.17,0,.12,0H7.5Zm.16-.07-.06,0H7.45l.2-.06h0l-.08,0S7.77,7.1,7.66,7.15ZM8,8.48l0,0-.06.06a1.31,1.31,0,0,1-.09-.17l.23,0v0s0,0,0,0h0Zm.13-.18h0Zm0,0h0l0,0h0ZM7.64,7h0l.56-.13h0l0,0Zm.53-.09h0l.05,0h0l0,0Zm0,0,.05,0h0l-.05,0Zm0,0,.06,0h0l-.06,0Zm0,0,.07,0h0l-.06,0Zm0,0h0l.06,0h0Zm0,0h0l0,0,0,0h0l.07,0h0Zm0,0h0l.08-.05h0Zm0,0,.09-.06h0l-.09,0Zm.05,0h0l.11-.06h0Zm.14,1.87,0-.07h0Zm0,0,0,0h0Zm0-2.55-.17,0c.07,0,.16-.14.19,0Zm.22,0Zm.26,0,.06,0h0L9,6.29Zm0,0,0,0h0l0,0Zm0,0Zm0,0,0,0H9l0,0Zm0,.74.05,0h0C9.07,7.05,9.08,7,9.09,7Zm.1-.09.18-.11h0l-.17.09ZM9.2,7V7l.21-.12h0c-.23.13.09,0,0,0l0,0h0ZM10,8.71l.17,0h0l0,0,0,0L10,8.73Zm.5.86-.57-.46.38-.17.21.33A.53.53,0,0,0,10.49,9.57Zm2.59,4c.15-.55-.68-.71-.7-1.19,0,0,.07,0,.11-.05.27.41.54.82.82,1.23A.6.6,0,0,0,13.08,13.6ZM14.82.74l.13,0C14.66,1,14.51,1.16,14.82.74Zm-.4,14.38h0Zm-.23.27,0,.06-.08.13,0,0-.12-.13.16-.2a.35.35,0,0,0,.14,0h0l0-.18,0,0,.1,0h0l0-.05,0,0h0l0,0h0l0,0h0l0,0,0,0,0,0-.09.11h0l-.06.08h0l.15-.17h0l-.15.16Zm.19-.18h0l0,0h0Zm0,0v0h0Zm-.12.23-.08,0,.15-.16.15.17A.28.28,0,0,1,14.28,15.41Zm.87,1.24h0l0,0Zm-.23-.15a2.4,2.4,0,0,1-.41-.36,1,1,0,0,0,.29-.08L15,16l.3.36A1.36,1.36,0,0,1,14.92,16.5Zm.42,0,.05,0h0S15.36,16.51,15.34,16.53Zm5,7h0v0h0ZM20.29,6s-.05,0-.07,0-.08-.24-.12-.34a.43.43,0,0,0,.11.34c-.26,0-.47-.48-.65-.9l0-.08s0-.06,0-.09-.07-.34-.1-.18c-.53-.57-.22-.48-.12-.59a3.29,3.29,0,0,0,.32.71l0,.06.05.06a3.45,3.45,0,0,1,.39.67.7.7,0,0,1,.15-.3A.59.59,0,0,1,20.29,6Zm-14,37h0l-.12,0h0A.09.09,0,0,1,6,43H6a.54.54,0,0,1,0-.37l.1.37h.24ZM4.42,45.3h0l0,.05h0ZM6.35,55.64l-.12-.1,0,0h0l.13.11A0,0,0,0,0,6.35,55.64Zm-.11-.07v0C6.31,55.62,6.36,55.66,6.24,55.57Zm0-.08h0C6.29,55.57,6.25,55.53,6.2,55.49Zm0,0h0Zm.13.11-.14-.12v0l.15.13Zm0-.09v0l0,0-.09-.08.09.09h0l-.15-.13,0,0,.1.09-.11-.1v0l.15.14Zm0,0v0l-.16-.14h0l.06,0-.07-.06v0h0Zm-.12-.17,0,0h0l0,0Zm0,0h0Zm0,0h0Zm0,0Zm0-.09h0Zm0,0v0h0l0,0Zm0,0,0,0h0l0-.05Zm0,0,.07.07h0L6,55.12Zm0,0H6l0,0H6ZM6,55l.06.06H6l0,0Zm0,.09H6l0,0Zm0-.07h0Zm0,0,.11.13,0,0,0,0,0,0,0,0h0l-.15-.14Zm0,0,0,.06,0,0,0,0,.09.08H6s0,0,0,0h0L6,55.14l0,0Zm.13.15h0l0,0Zm-.15-.11.14.13H6l-.15-.14Zm0,0h0l.15.14H6l-.15-.13ZM5.28,54c.07.08.12.13.11.13L5.28,54Zm0,0h0Zm0,0h0l.28.34c-.16-.18-.35-.39-.07-.08L5.28,54Zm0,.08,0,0h0Zm0,0,.32.36,0,0-.06-.07-.09-.11L5.28,54Zm0,0,.29.33-.1-.11L5.28,54Zm0,0h0l.1.11-.07-.08,0,0h0l0,0,0,0,0,0h0l.1.11.37.42,0,.06h0l0,0,0,0,0,.05h0l-.09-.11,0,0h0l-.15-.17v0l-.25-.29.26.3h0l-.07-.09.08.1h0l0,0-.17-.19.19.22h0l0,.05-.06-.06h0l-.07-.07-.13-.15c-.17-.19.42.48.42.49l0-.05-.4-.46.2.23-.07-.07-.06-.07c-.17-.19,0,.07.07.1l0,0,0,0h0l-.17-.19Zm.46.51s.11.13,0,.07Zm0,0,0,0-.07-.08Zm-.09-.05.14.15h0l-.13-.14h0l-.14-.15a2,2,0,0,0-.2-.23C5.39,54.25,5.54,54.42,5.65,54.55Zm-.11-.15,0,0v0Zm-.28-.27.06.06.14.16c.06.07.14.16,0,0l-.16-.19,0,0Zm0,0,.07.08-.07-.08Zm0,0,0,0,0,0Zm0,0c.13.14.21.23.14.16l-.14-.16Zm0,0h0l0,0Zm.27.29-.27-.3h0c.28.32,0,0,.13.16l.32.35s0,0,0,0h0Zm.14.21.06.06h0Zm.42,1.21s0,0,0,0l-.38-.41.2-.31h0v0L6,55.2h0l.1.08H6l-.11-.11.11.11H6l-.14-.13.14.13H6l-.13-.12s.06.06.13.12H6l-.06-.06L6,55.3v0H6l0,0H6l0,0,.29.4h0Zm.24-.22-.05-.1.09.07Zm-.06-.11v0l.11.09h0Zm.19.07v0Zm0,0h0l0,0Zm0,0,0,0h0l0,0Zm0,0,0,0h0l0,0Zm0,0,0,0h0l0,0Zm0,0h0l0,0h0Zm0,.73v-.08h0v.07Zm0-.76h0v0h0Zm0,0h0Zm0,0Zm1-.46s0,0,0-.06h0a.06.06,0,0,0,0,0h0Zm4.62-.71L12,54.19h0l.13.33Zm.08-.23a3.46,3.46,0,0,1-.29-.53l-.4-1.06a1.4,1.4,0,0,1,.35.29l.44,1.45Zm2-16.84a.1.1,0,0,1-.07,0l.07-.12,0,.1ZM14.89,35l0,0a.32.32,0,0,1,0,.09,2,2,0,0,0-.25.26l-.07,0s0,0,0,0l-.08.1a2.23,2.23,0,0,0-.27.65l-.3.1a2.49,2.49,0,0,1,.09-.37c.18-.24.51-.47.51-.81h0l.05-.07a2.32,2.32,0,0,1,.69-.5l-.09.1c0,.17,0,.2.11.2A1.61,1.61,0,0,0,14.89,35Zm7.47-6.52a2.53,2.53,0,0,0-.52.28l-.06,0-.54,0,1.09-.4.11.11Zm2-18.76Zm3.19,6.81.14-.32-.13.34Zm0,.07,0,0,.25-.67.31-.68.16-.16Zm.7-1.54-.16.16h0l.17-.17Zm.1-.1h0Zm0,0h0l.1.08Zm.24-.24h0l0,0Zm.23-.22h0l0,0Zm-.14.13.09-.08-.08.08Zm0,0,.13-.13C28.86,14.56,28.8,14.59,28.7,14.59ZM29,14.3h0Zm0,0Zm6,5.53h0l0,0h0ZM34.27,43.2l.16.06v.07Zm1.39,2.16c-.22-.2-.44-.52-.78-.53v0l0,0a2.53,2.53,0,0,1-.51-.74h0l.1.09c.17,0,.2,0,.2-.11a2.19,2.19,0,0,0,.21.34l0,0,.09,0a2.27,2.27,0,0,0,.25.27s0,0,0,.07l0,0,.1.09a2.59,2.59,0,0,0,.63.29c0,.13.07.23.1.3A2.85,2.85,0,0,1,35.66,45.36Zm1.63-.06-.13-.08.11,0,0,0A.31.31,0,0,1,37.29,45.3Zm5.34,8.35,0,0h0a.4.4,0,0,1-.2,0l.2-.05c0-.11,0-.22,0-.33s0,0,0,0a.25.25,0,0,1,0,.09c0,.09,0,.16,0,.19Zm1.8,2,.07,0h0Zm.42-.27h0l0,0h0Zm9.62-7.34-.34.11h0l.34-.11Zm-.35,6.6.32-.26h0l-.13.12h0l0,0-.13.11-.26.2.2-.16,0,0Zm-.06,0-.08.06.15-.11Zm-1.43-6.08a1.69,1.69,0,0,1,.3-.34l1.48-.39-.15.1a2.86,2.86,0,0,1-.55.27Zm1.07,6.28.13-.11-.13.11Zm0,0h0Zm0,0h0l.35-.26c-.19.15-.4.33-.08.06l-.26.21Zm.06,0,0,0h0Zm0,0,.37-.3,0,0-.06,0-.12.09-.22.18Zm0,0,.35-.28-.12.1-.22.18Zm0,0h0l.11-.09c-.05,0,.14-.13-.09.06.06,0,0,0,0,0h0l0,0,0,0,0,0h0l.12-.1.43-.36.05,0h0l0,0,0,0,0,0h0l-.11.1h0l-.17.14h0l-.29.24.31-.25h0l-.08.07.1-.08h0l0,0-.21.17.23-.19h0l.08-.07-.1.09,0,0L54,54.7h0l-.13.11.49-.4-.06.05-.45.37.09-.07c-.19.15.07,0,.1-.07l-.26.22Zm.55-.45,0,0Zm0,0-.05.05-.08.06Zm-.5.47.07,0,.13-.12c.08-.05.22-.17.05,0l-.19.16,0,.05Zm0,0,.09-.07-.09.07Zm0,0,0,0,0,0Zm0,0c.15-.12.24-.2.17-.13l-.16.13Zm0,0h0l.05,0Zm.3-.26-.31.26h0c.33-.27,0,0,.17-.13l.36-.3,0,0h0Zm.22-.14.06-.05h0Zm.08-3.12-.06-.1s0,0,0,0h0l.09.12Zm.92,2.34Zm0,0h0Zm0,0Zm0,0h0l0,0h0Zm0,.11h0l-.06.08h0Zm-.09.09h0C55.38,53.92,55.42,53.88,55.34,54Zm.07-.09-.1.1,0,0,.1-.11Zm-.15.13h0C55.31,54,55.29,54,55.26,54Zm.09-.11-.11.12h0l.12-.12Zm-.09,0h.05l-.08.08.09-.08h0l-.12.13-.05,0,.08-.08-.09.09h0l.13-.14Zm0,0h0l-.13.14h0l0,0,0,0h0Zm-.17.11,0,0h0Zm0,.06ZM55,52.76h0s0,0,0,0h0Zm0,1.4,0,0,0,0Zm0,0,0,0h0Zm0,0h0Zm0,0h0Zm0,0,.05,0h0l-.07.06Zm-.07,0,0,0h0Zm-.08,0,.06,0,0,0,0,0Zm0,0,0,0,0,0s0,0,0,0h0l.09-.07h0v0l-.15.11Zm0,0,.13-.11,0,0,0,0h0l0,0,0,0,0,0h0l-.15.14Zm0,0,.06,0,0,0,0,0,.09-.09h0s0,0,0,0h0l-.1.1,0,0Zm0,0,.15-.15h0l-.14.14Zm0,0h0l.14-.14h0l-.14.14Zm0,0,.07-.06h0l.09-.09h0l-.11.11s0,0,.11-.11h0l-.14.15Zm.64-.33h0l.15.18-.05,0-.42.36-.29-.21h0L55,54.2h0l-.12.13.12-.13h0l-.06.07.06-.07,0,0,0,0,0,0h0v0h0l0,0Zm-.06-.09-.08,0,.06-.07Zm0,0Zm0-.08h0l0,0Zm0,0h0l0,0Zm0,.05,0,0h0l0,0Zm0,0,0,0h0l0,0Zm0,0,0,0h0l0,0Zm0,0,0,0h0l0,0h0S55.51,53.79,55.5,53.81Zm.62,0Z" style="fill:#9d2e2a"/></svg>