<?xml version="1.0" encoding="UTF-8" standalone="no"?>
<svg width="18px" height="16px" viewBox="0 0 18 16" version="1.1" xmlns="http://www.w3.org/2000/svg" xmlns:xlink="http://www.w3.org/1999/xlink">
    <!-- Generator: sketchtool 39.1 (31720) - http://www.bohemiancoding.com/sketch -->
    <title>87E1D3CF-E55D-43A2-B3C1-D0A4A7658E03</title>
    <desc>Created with sketchtool.</desc>
    <defs></defs>
    <g id="Symbols" stroke="none" stroke-width="1" fill="none" fill-rule="evenodd">
        <g id="component-panel-container" transform="translate(-27.000000, -24.000000)" fill="#000000">
            <g id="aspect">
                <path d="M43.3531915,38.0900598 L43.3531915,26.6006981 L28.6468085,26.6006981 L28.6468085,38.0900598 L43.3531915,38.0900598 Z M43.3531915,24.9921875 C43.7872357,24.9921875 44.1702119,25.1581441 44.5021277,25.4900598 C44.8340434,25.8219756 45,26.2049518 45,26.638996 L45,38.051762 C45,38.4858066 44.8340434,38.8687817 44.5021277,39.2006981 C44.1702119,39.5326147 43.7872357,39.6985705 43.3531915,39.6985705 L28.6468085,39.6985705 C28.2127638,39.6985705 27.8297888,39.5326147 27.4978723,39.2006981 C27.1659558,38.8687817 27,38.4858066 27,38.051762 L27,26.638996 C27,26.2049518 27.1659558,25.8219756 27.4978723,25.4900598 C27.8297888,25.1581441 28.2127638,24.9921875 28.6468085,24.9921875 L43.3531915,24.9921875 Z M31.9021277,29.8943152 L31.9021277,32.345379 L30.293617,32.345379 L30.293617,28.2475066 L34.3531915,28.2475066 L34.3531915,29.8943152 L31.9021277,29.8943152 Z M41.706383,32.345379 L41.706383,36.4432513 L37.6468085,36.4432513 L37.6468085,34.7964428 L40.0978723,34.7964428 L40.0978723,32.345379 L41.706383,32.345379 Z"></path>
            </g>
        </g>
    </g>
</svg>