<?xml version="1.0" encoding="UTF-8" standalone="no"?>
<svg width="18px" height="19px" viewBox="0 0 18 19" version="1.1" xmlns="http://www.w3.org/2000/svg" xmlns:xlink="http://www.w3.org/1999/xlink">
    <!-- Generator: sketchtool 39.1 (31720) - http://www.bohemiancoding.com/sketch -->
    <title>B8462EBA-4FC8-4602-B446-30D47F7E0E6F</title>
    <desc>Created with sketchtool.</desc>
    <defs></defs>
    <g id="[flow]-breakfast-layout" stroke="none" stroke-width="1" fill="none" fill-rule="evenodd">
        <g id="Layout-101" transform="translate(-27.000000, -205.000000)" fill="#000000">
            <g id="screen">
                <g id="component-panel" transform="translate(0.000000, 56.000000)">
                    <g id="component-panel-container-Copy" transform="translate(0.000000, 128.000000)">
                        <path d="M37.96875,31.2734375 L41.484375,36.0078125 L30.515625,36.0078125 L33.234375,32.4453125 L35.203125,34.8359375 L37.96875,31.2734375 Z M42.984375,37.9765625 L42.984375,24.0078125 L29.015625,24.0078125 L29.015625,37.9765625 L42.984375,37.9765625 Z M42.984375,21.9921875 C43.515627,21.9921875 43.984374,22.1953115 44.390625,22.6015625 C44.796876,23.0078135 45,23.4765605 45,24.0078125 L45,37.9765625 C45,38.5078151 44.796876,38.9765606 44.390625,39.3828125 C43.984374,39.7890645 43.515627,39.9921875 42.984375,39.9921875 L29.015625,39.9921875 C28.4843724,39.9921875 28.0156269,39.7890645 27.609375,39.3828125 C27.203123,38.9765606 27,38.5078151 27,37.9765625 L27,24.0078125 C27,23.4765605 27.203123,23.0078135 27.609375,22.6015625 C28.0156269,22.1953115 28.4843724,21.9921875 29.015625,21.9921875 L42.984375,21.9921875 Z" id="Page-1"></path>
                    </g>
                </g>
            </g>
        </g>
    </g>
</svg>