<?xml version="1.0" encoding="UTF-8"?>
<svg width="24px" height="24px" viewBox="0 0 24 24" version="1.1" xmlns="http://www.w3.org/2000/svg" xmlns:xlink="http://www.w3.org/1999/xlink">
    <!-- Generator: Sketch 51.2 (57519) - http://www.bohemiancoding.com/sketch -->
    <title>icon/candidates@1x</title>
    <desc>Created with Sketch.</desc>
    <defs>
        <path d="M12,10 C10.3,10 9,8.7 9,7 C9,5.3 10.3,4 12,4 C13.7,4 15,5.3 15,7 C15,8.7 13.7,10 12,10 Z M14,20 L10,20 L10,16 L8,14 L8,11 L16,11 L16,14 L14,16 L14,20 Z M6,9 C4.9,9 4,8.1 4,7 C4,5.9 4.9,5 6,5 C7.1,5 8,5.9 8,7 C8,8.1 7.1,9 6,9 Z M7,14.4 L8,15.4 L8,18 L5,18 L5,14 L4,13 L4,10 L7,10 L7,14.4 Z M18,9 C16.9,9 16,8.1 16,7 C16,5.9 16.9,5 18,5 C19.1,5 20,5.9 20,7 C20,8.1 19.1,9 18,9 Z M17,14.4 L17,10 L20,10 L20,13 L19,14 L19,18 L16,18 L16,15.4 L17,14.4 Z" id="path-1"></path>
    </defs>
    <g id="icon/candidates" stroke="none" stroke-width="1" fill="none" fill-rule="evenodd">
        <mask id="mask-2" fill="white">
            <use xlink:href="#path-1"></use>
        </mask>
        <use id="shape" fill="#111111" fill-rule="nonzero" xlink:href="#path-1"></use>
        <g id="icon/_color/ui-blue" mask="url(#mask-2)" fill="#000000">
            <g transform="translate(1.000000, 1.000000)" id="ui-color">
                <rect x="0" y="0" width="22" height="22"></rect>
            </g>
        </g>
    </g>
</svg>
