<?xml version="1.0" encoding="utf-8"?>
<!-- Generator: Adobe Illustrator 16.0.4, SVG Export Plug-In . SVG Version: 6.00 Build 0)  -->
<!DOCTYPE svg PUBLIC "-//W3C//DTD SVG 1.1//EN" "http://www.w3.org/Graphics/SVG/1.1/DTD/svg11.dtd">
<svg version="1.1" id="Layer_1" xmlns="http://www.w3.org/2000/svg" xmlns:xlink="http://www.w3.org/1999/xlink" x="0px" y="0px"
	 width="288px" height="61px" viewBox="0 42.5 288 61" enable-background="new 0 42.5 288 61" xml:space="preserve">
<g>
	<g>
		<g>
			<path fill="#FFFFFF" d="M159.902,97.616l-0.725-1.71h-2.941l-0.723,1.71h-1.305l3.428-7.535h0.186l3.418,7.535H159.902z
				 M157.707,92.419l-1.053,2.486h2.109L157.707,92.419z"/>
		</g>
		<path fill="#FFFFFF" d="M230.08,97.739c-2.357,0-4.012-1.624-4.012-3.842c0-2.196,1.684-3.839,4.012-3.839
			c0.926,0,1.764,0.289,2.393,0.672l-0.438,1.083c-0.586-0.338-1.314-0.573-1.975-0.573c-1.633,0-2.629,1.095-2.629,2.657
			c0,1.566,1.031,2.65,2.66,2.65c0.66,0,1.428-0.238,2.029-0.59l0.381,1.074C231.879,97.434,231.006,97.739,230.08,97.739z"/>
		<path fill="#FFFFFF" d="M237.621,97.739c-2.146,0-3.719-1.639-3.719-3.842c0-2.205,1.643-3.839,3.799-3.839
			c2.143,0,3.715,1.634,3.715,3.839C241.416,96.101,239.775,97.739,237.621,97.739z M237.668,91.193
			c-1.42,0-2.404,1.156-2.404,2.704c0,1.549,0.984,2.707,2.404,2.707c1.406,0,2.389-1.158,2.389-2.707
			C240.057,92.352,239.074,91.193,237.668,91.193z"/>
		<path fill="#FFFFFF" d="M249.375,97.616l-0.105-4.451l-2.336,3.546h-0.156l-2.357-3.559l-0.082,4.466h-1.248l0.311-7.527
			l0.195-0.021l3.291,4.925l3.221-4.925l0.199,0.021l0.318,7.527h-1.25V97.616z"/>
		<path fill="#FFFFFF" d="M255.1,95.215c-0.25,0-0.5-0.015-0.742-0.022v2.424h-1.266v-7.363c0.656-0.082,1.279-0.127,1.881-0.127
			c2.041,0,3.092,1.116,3.092,2.505C258.064,94.144,256.99,95.215,255.1,95.215z M255.189,91.302c-0.283,0-0.576,0.019-0.832,0.06
			v2.711c0.256,0.022,0.482,0.038,0.705,0.038c1.152,0,1.678-0.596,1.678-1.435C256.74,91.944,256.229,91.302,255.189,91.302z"/>
		<path fill="#FFFFFF" d="M279.24,94.487v3.129h-1.275v-3.137l-2.617-4.302h1.459l1.822,3.145l1.807-3.145h1.422L279.24,94.487z"/>
		<path fill="#FFFFFF" d="M264.252,97.616l-0.723-1.71h-2.939l-0.725,1.71h-1.311l3.432-7.535h0.186l3.418,7.535H264.252z
			 M262.057,92.419l-1.053,2.486h2.109L262.057,92.419z"/>
		<path fill="#FFFFFF" d="M273.436,97.758l-4.66-4.914v4.772h-1.264v-7.535l0.199-0.043l4.592,4.836V90.18h1.27v7.545
			L273.436,97.758z"/>
		<g>
			<path fill="#FFFFFF" d="M172.822,93.669v3.253c-0.787,0.517-1.646,0.811-2.768,0.811c-2.111,0-3.939-1.539-3.939-3.835
				c0-2.308,1.854-3.839,3.939-3.839c1.098,0,1.885,0.305,2.633,0.771l-0.566,1.012c-0.6-0.389-1.312-0.62-2.004-0.62
				c-1.693,0-2.646,1.195-2.646,2.672c0,1.587,1.17,2.707,2.639,2.707c0.633,0,1.066-0.104,1.5-0.351v-1.457h-1.732v-1.127h2.945
				V93.669z"/>
			<path fill="#FFFFFF" d="M179.957,97.616l-0.709-1.71h-2.949l-0.715,1.71h-1.312l3.432-7.535h0.178l3.422,7.535H179.957z
				 M177.77,92.419l-1.053,2.486h2.105L177.77,92.419z"/>
			<path fill="#FFFFFF" d="M189.146,97.758l-4.656-4.914v4.772h-1.266v-7.535l0.199-0.043l4.594,4.836V90.18h1.27v7.545
				L189.146,97.758z"/>
			<path fill="#FFFFFF" d="M197.74,97.758l-4.654-4.914v4.772h-1.27v-7.535l0.207-0.043l4.588,4.836V90.18h1.266v7.545
				L197.74,97.758z"/>
			<g>
				<path fill="#FFFFFF" d="M200.416,97.616v-7.438h4.533v1.158h-3.271v1.949h2.955v1.116h-2.955v2.062h3.271v1.153H200.416z"/>
				<path fill="#FFFFFF" d="M210.523,91.336v6.28h-1.27v-6.28h-2.365V90.18h5.986v1.156H210.523z"/>
				<path fill="#FFFFFF" d="M218.029,91.336v6.28h-1.27v-6.28H214.4V90.18h5.98v1.156H218.029z"/>
			</g>
		</g>
	</g>
	<g>
		<path fill="#FFFFFF" d="M113.108,74.01l-5.335,5.258l-6.474-4.201l0.863-0.979V61.613h-3.021l1.219-2.827h1.803v-4l6.354-3.454
			l0.272,0.392c-0.626,0.549-0.859,0.904-0.859,2.276v4.784h4.627l-1.331,2.827h-3.296v11.688l3.1,1.962l1.684-1.645L113.108,74.01
			L113.108,74.01z M111.186,60.475h-3.256v0.591h2.982L111.186,60.475L111.186,60.475z M103.338,58.786v-4l-0.666,0.393v3.607
			H103.338L103.338,58.786z M108.164,78.088l-5.139-3.372l0.313-0.356V60.473h-3.138l-0.277,0.591h2.749v13.182l-0.629,0.665
			l5.647,3.647L108.164,78.088L108.164,78.088z"/>
		<path fill="#FFFFFF" d="M189.285,64.947l-8.236,4.59v3.846l3.961,2.431l2.627-2.394l0.395,0.434l-6.043,5.414l-7.451-4.316
			l0.705-0.784V63.26l10.158-5.179L189.285,64.947L189.285,64.947z M184.186,67.143l-3.1-6.314l-0.074,0.038v8.081L184.186,67.143
			L184.186,67.143z M185.455,66.554l-3.1-6.236l-0.717,0.313l3.096,6.236L185.455,66.554L185.455,66.554z M182.422,78.166
			l-6.318-3.686l0.443-0.354V63.258l-0.795,0.355v10.632l-0.473,0.549l6.629,3.843L182.422,78.166L182.422,78.166z"/>
		<path fill="#FFFFFF" d="M174.301,64.947l-8.238,4.59v3.846l3.963,2.431l2.627-2.394l0.393,0.434l-6.043,5.414l-7.451-4.316
			l0.707-0.784V63.26l10.158-5.179L174.301,64.947L174.301,64.947z M169.201,67.143l-3.1-6.314l-0.076,0.038v8.081L169.201,67.143
			L169.201,67.143z M170.467,66.554l-3.1-6.236l-0.717,0.313l3.1,6.236L170.467,66.554L170.467,66.554z M167.438,78.166
			l-6.318-3.686l0.447-0.354V63.258l-0.801,0.355v10.632l-0.469,0.549l6.629,3.843L167.438,78.166L167.438,78.166z"/>
		<path fill="#FFFFFF" d="M160.766,59.22c0,1.804-1.527,4.004-3.723,4.004c-1.65,0-2.314-0.393-3.178-1.062h-0.078v11.691
			l2.352,1.568l1.568-1.531l0.391,0.392l-5.178,4.983l-5.688-3.77l0.785-0.86V63.493l-1.453-1.333l-1.102,1.062l-0.389-0.435
			l4.982-4.63l3.566,3.611l2.709-3.611c0.744,0.825,2,1.296,2.627,1.296c0.746,0,1.254-0.112,1.729-0.313L160.766,59.22
			L160.766,59.22z M159.16,61.849l-0.041-0.039c-0.488,0.101-1.08,0.298-1.686,0.298c-0.664,0-2.041-0.283-2.668-0.847l-0.471,0.511
			c0.783,0.628,1.453,0.905,2.945,0.905C157.904,62.673,158.648,62.359,159.16,61.849L159.16,61.849z M153.395,78.088l-4.514-2.864
			l0.445-0.393V62.946l-1.857-1.609l-0.512,0.47l1.57,1.415v11.607l-0.547,0.55l4.9,3.22L153.395,78.088L153.395,78.088z"/>
		<path fill="#FFFFFF" d="M149.115,49.686c-0.785,2.746-3.006,4.51-5.803,4.51c-0.197,0-0.395,0-0.395,0v6.198h2.038l-2.038,4.196
			v14.676h-0.47V64.59h-2.861v6.042c0,5.178-2.355,8.708-8.908,8.708c-3.764,0-4.939-2.076-7.177-2.076
			c-2.98,0-3.98,0.939-3.98,1.951c0,0.71,0.646,1.304,1.549,1.304c0.455,0,0.604,0.004,0.983-0.118l-0.355,1.02
			c-0.159,0.019-0.315,0.015-0.471,0.015c-1.348,0-2.47-0.955-2.47-2.601c0-2.998,2.278-4.643,5.295-4.643
			c0.182,0,0.361,0,0.55,0.013c0.706-0.313,1.566-1.216,1.566-2.396v-7.217h-0.902c-0.901,0-1.567,0.591-1.45,2.081l-0.077,0.04
			c-0.828-0.317-1.647-1.453-1.647-2.984c0-2.039,1.33-3.335,3.294-3.335h0.783v-4.234c5.298-1.375,11.73-3.494,15.182-7.886
			c1.195,0.922,3.296,1.919,5.296,1.919c0.871,0,1.703-0.149,2.395-0.587L149.115,49.686L149.115,49.686z M142.448,60.396v-6.236
			c-0.745-0.156-2.038-0.626-2.901-1.296v7.53h2.901V60.396z M133.583,71.852V54.354c-0.471,0.198-0.98,0.392-1.53,0.591v12.239
			c0,3.059-1.547,4.971-3.884,6.078l-2.392,1.142v0.078c1.688,0.43,3.333,3.567,5.059,3.567
			C132.68,78.05,133.583,76.911,133.583,71.852L133.583,71.852z M146.215,52.865v-0.078c-0.549,0.235-1.412,0.392-2.236,0.392
			c-1.302,0-3.14-0.549-4.55-2.194l-0.589,0.471c1.173,1.296,2.9,2.236,4.472,2.236C144.764,53.689,145.389,53.414,146.215,52.865
			L146.215,52.865z M143.166,63.38h-3.451l-0.128,0.666h3.139L143.166,63.38L143.166,63.38z M134.89,73.106v-19.26l-0.797,0.272
			v18.476c0,2.158-0.275,3.335-0.667,4.316h0.078C134.602,75.656,134.762,74.439,134.89,73.106L134.89,73.106z M127.475,60.396
			v-3.999l-0.798,0.157v3.842H127.475L127.475,60.396z M127.475,70.398v-7.021h-2.05c-0.93,0-1.562,0.361-1.646,1.292l0.077,0.041
			c0.313-0.55,0.826-0.669,1.372-0.669h1.451v7.295c0,0.356-0.038,0.748-0.114,1.019l0.076,0.04
			C127.072,72.087,127.348,71.263,127.475,70.398L127.475,70.398z M129.505,78.872v-0.079c-0.664-0.258-1.557-0.81-2.461-1.448
			c-0.94-0.669-2.012-1.181-3.306-1.181c-1.218,0-2.001,0.393-2.472,0.825v0.118c0.233-0.118,1.235-0.353,2.234-0.353
			c1.218,0,2.118,0.47,3.335,1.139C127.834,78.438,128.797,78.756,129.505,78.872L129.505,78.872z"/>
		<path fill="#FFFFFF" d="M282.021,57.297c0,0.471-0.219,0.934-0.551,1.411l-4.787,6.867l4.51,2.667v6.433l-7.297,4.667
			c-1.291-0.899-2.273-1.135-3.918-1.135c-0.941,0-2.123,0.313-3.021,1.098l-0.393-0.235c1.568-2.236,5.137-7.416,5.137-7.416
			l-4.469-2.746V63.18l9.178-5.022c0.627,0.747,1.566,1.179,2.469,1.179c1.453,0,2.277-0.746,2.277-1.688
			c0-0.392-0.041-0.549-0.158-0.784l0.863-0.391C281.941,56.71,282.021,56.983,282.021,57.297L282.021,57.297z M278.607,61.849
			l-0.039-0.039c-0.471,0.276-1.176,0.395-1.844,0.395c-1.416,0-2.904-0.435-3.77-1.218v6.198l1.336,0.822
			C275.549,66.24,277.393,63.573,278.607,61.849L278.607,61.849z M275.35,75.578v-5.06l-1.527-0.944
			c-1.531,2.159-4.471,6.475-4.471,6.475c1.057-0.627,2.232-1.061,3.449-1.061C273.666,74.988,274.527,75.187,275.35,75.578
			L275.35,75.578z M278.371,61.337l-0.037-0.038c-1.139,0.078-3.219,0.194-4.354-1.177l-0.674,0.393
			c0.906,0.904,2.199,1.175,3.377,1.175C277.352,61.691,277.938,61.536,278.371,61.337L278.371,61.337z M272.371,70.714
			l-3.963-2.509v-5.021l-0.668,0.355v5.059l4.24,2.667L272.371,70.714L272.371,70.714z M276.527,76.44v-6.589l-2-1.254l-0.391,0.509
			l1.725,1.101v5.688L276.527,76.44L276.527,76.44z M274.527,78.322c-0.668-0.586-1.689-1.098-2.982-1.098
			c-1.332,0-1.963,0.235-2.51,0.471v0.078c0.352-0.037,0.744-0.07,1.098-0.078c1.49-0.029,2.783,0.235,3.764,1.02L274.527,78.322
			L274.527,78.322z"/>
		<path fill="#FFFFFF" d="M266.914,57.259c0,0.47-0.213,0.933-0.545,1.411l-4.783,6.863l4.508,2.669v6.434l-7.297,4.665
			c-1.293-0.903-2.273-1.139-3.922-1.139c-0.943,0-2.115,0.313-3.021,1.102l-0.391-0.239c1.568-2.236,5.139-7.412,5.139-7.412
			l-4.473-2.75V63.14l9.182-5.022c0.627,0.748,1.564,1.175,2.469,1.175c1.453,0,2.277-0.746,2.277-1.688
			c0-0.392-0.041-0.549-0.158-0.784l0.859-0.392C266.84,56.669,266.914,56.944,266.914,57.259L266.914,57.259z M263.502,61.807
			l-0.037-0.038c-0.469,0.273-1.178,0.392-1.846,0.392c-1.408,0-2.904-0.43-3.764-1.217v6.197l1.334,0.826
			C260.443,66.202,262.287,63.537,263.502,61.807L263.502,61.807z M260.246,75.537v-5.059l-1.531-0.94
			c-1.527,2.158-4.469,6.472-4.469,6.472c1.057-0.628,2.236-1.057,3.453-1.057C258.562,74.951,259.424,75.146,260.246,75.537
			L260.246,75.537z M263.268,61.301l-0.039-0.04c-1.143,0.078-3.217,0.198-4.354-1.177l-0.668,0.393
			c0.904,0.904,2.324,1.176,3.5,1.176C262.379,61.65,262.838,61.493,263.268,61.301L263.268,61.301z M257.266,70.676l-3.83-2.513
			v-5.019l-0.799,0.353v5.059l4.242,2.669L257.266,70.676L257.266,70.676z M261.426,76.399v-6.59l-2.002-1.254l-0.391,0.513
			l1.725,1.097v5.688L261.426,76.399L261.426,76.399z M259.424,78.285c-0.664-0.592-1.688-1.098-2.979-1.098
			c-1.336,0-1.965,0.235-2.514,0.471v0.078c0.357-0.041,0.746-0.07,1.102-0.078c1.49-0.035,2.783,0.235,3.764,1.02L259.424,78.285
			L259.424,78.285z"/>
		<path fill="#FFFFFF" d="M251.031,64.947l-8.238,4.59v3.846l3.959,2.431l2.629-2.394l0.391,0.434l-6.037,5.414l-7.449-4.316
			l0.697-0.784V63.26l10.162-5.179L251.031,64.947L251.031,64.947z M245.932,67.143l-3.102-6.314l-0.078,0.038v8.081L245.932,67.143
			L245.932,67.143z M247.199,66.554l-3.1-6.236l-0.721,0.313l3.1,6.236L247.199,66.554L247.199,66.554z M244.164,78.166
			l-6.314-3.686l0.439-0.354V63.258l-0.793,0.355v10.632l-0.471,0.549l6.631,3.843L244.164,78.166L244.164,78.166z"/>
		<path fill="#FFFFFF" d="M237.574,59.22c0,1.804-1.527,4.004-3.727,4.004c-1.645,0-2.314-0.393-3.176-1.062h-0.078v11.691
			l2.352,1.568l1.57-1.531l0.395,0.392l-5.178,4.983l-5.729-3.77l0.822-0.86V63.493l-1.453-1.333l-1.096,1.062l-0.393-0.435
			l4.979-4.63l3.57,3.611l2.707-3.611c0.748,0.825,2.002,1.296,2.629,1.296c0.746,0,1.256-0.117,1.727-0.313L237.574,59.22
			L237.574,59.22z M235.965,61.849l-0.039-0.039c-0.469,0.077-1.098,0.312-1.686,0.312c-0.678,0-2.041-0.312-2.668-0.861
			l-0.471,0.511c0.785,0.628,1.453,0.905,2.943,0.905C234.713,62.673,235.459,62.359,235.965,61.849L235.965,61.849z
			 M230.203,78.088l-4.512-2.864l0.441-0.393V62.946l-1.854-1.609l-0.514,0.47l1.572,1.415v11.607l-0.549,0.55l4.902,3.22
			L230.203,78.088L230.203,78.088z"/>
		<path fill="#FFFFFF" d="M220.393,73.577l-8.627,5.924c-0.629-0.628-1.572-1.412-2.275-1.843v7.414h-0.471v-7.688
			c-0.475-0.194-1.02-0.391-1.609-0.547v8.199h-0.082l-1.76-1.532l-4.004,2.115h-0.117v-9.021c-2.232,0.119-3.727,1.02-5.924,2.67
			l-0.117-0.12c0.078-3.726,1.803-6.746,6.037-7.493v-6.198h-0.9c-1.41,0-1.49,1.332-1.453,2.12l-0.119,0.038
			c-0.857-0.548-1.646-1.41-1.646-3.137c0-2.116,1.766-3.219,3.453-3.219h0.666v-4.627l-3.373-3.298l-1.453,1.374l-0.354-0.355
			l5.807-5.646l5.336,5.41l1.609-1.452v-3.844h0.471v3.491l4.156-3.568c3.533,0.705,6.744,3.215,6.744,7.808v17.025H220.393z
			 M214.434,74.831V57.888c0-2.591-1.453-4.196-4.709-5.059l-0.234,0.156v18.946c1.84,0.508,3.764,1.802,4.902,2.901h0.041V74.831z
			 M209.02,71.812V53.414l-1.609,1.374v16.788C207.918,71.616,208.586,71.695,209.02,71.812L209.02,71.812z M215.607,75.971V57.73
			c0-3.376-1.617-4.626-4.9-5.77l-0.551,0.471c3.061,0.982,4.785,2.512,4.785,5.336v17.534L215.607,75.971L215.607,75.971z
			 M202.967,61.301l0.129-5.258l-3.609-3.611l-0.641,0.512l3.453,3.412v4.945H202.967L202.967,61.301z M203.098,71.538v-7.259
			h-2.408c-0.938,0-1.256,0.391-1.293,1.254l0.078,0.04c0.24-0.313,0.197-0.628,1.057-0.628h1.77v6.629L203.098,71.538
			L203.098,71.538z M212.619,78.599c-1.293-1.579-2.764-2.464-4.865-2.902v0.666c1.531,0.272,3.174,1.218,4.391,2.551
			L212.619,78.599L212.619,78.599z M203.098,84.521v-9.062h-1.15c-1.803,0-3.256,0.471-4.67,2.121l0.039,0.078
			c1.533-1.023,2.869-1.531,4.984-1.531v8.708L203.098,84.521L203.098,84.521z"/>
		<path fill="#FFFFFF" d="M97.534,53.219l-3.569,3.529l-3.649-3.059l3.569-3.533L97.534,53.219L97.534,53.219z M94.393,55.609
			l-2.786-2.391l-0.469,0.431l2.826,2.434L94.393,55.609L94.393,55.609z"/>
		<path fill="#FFFFFF" d="M100.593,74.361l-5.178,4.906l-4.434-3.611l0.707-0.862V63.3l-1.45-1.14l-1.14,1.062l-0.393-0.393
			l5.021-4.748l4.435,3.61l-0.708,0.784v11.612l1.45,1.099l1.299-1.218L100.593,74.361L100.593,74.361z M95.848,78.088l-3.337-2.708
			l0.354-0.429v-12.24l-1.768-1.41l-0.471,0.469l1.57,1.219v11.965l-0.511,0.586l3.688,3.021L95.848,78.088L95.848,78.088z"/>
		<path fill="#FFFFFF" d="M88.275,62.319l-0.627,0.705v10.512l-9.768,5.731l-6.512-4.552l0.824-0.784V63.73l10.043-5.649
			L88.275,62.319L88.275,62.319z M81.884,76.321V63.615l-3.848-2.669h-0.078v12.631l3.805,2.785L81.884,76.321L81.884,76.321z
			 M83.057,75.615V63.024l-3.766-2.667l-0.627,0.353l3.727,2.59v12.706L83.057,75.615L83.057,75.615z M78.507,78.285l-5.491-3.848
			l0.354-0.312V63.692l-0.668,0.391v10.004l-0.588,0.549l5.766,4.038L78.507,78.285L78.507,78.285z"/>
		<path fill="#FFFFFF" d="M73.289,59.22c0,1.804-1.529,4.004-3.724,4.004c-1.647,0-2.317-0.393-3.178-1.062h-0.079v11.691
			l2.354,1.568l1.567-1.531l0.393,0.392l-5.178,4.983l-5.689-3.77l0.784-0.86V63.493l-1.451-1.333l-1.096,1.063l-0.394-0.435
			l4.982-4.63l3.567,3.61l2.709-3.61c0.746,0.825,2.001,1.296,2.629,1.296c0.744,0,1.254-0.116,1.724-0.313L73.289,59.22
			L73.289,59.22z M71.682,61.849l-0.038-0.039c-0.47,0.077-1.1,0.312-1.688,0.312c-1.021,0-2.039-0.312-2.667-0.861l-0.473,0.511
			c0.783,0.628,1.451,0.905,2.942,0.905C70.426,62.673,71.174,62.359,71.682,61.849L71.682,61.849z M65.917,78.088l-4.51-2.864
			l0.313-0.393V62.946l-1.725-1.609l-0.514,0.47l1.569,1.415v11.607l-0.549,0.55l4.903,3.22L65.917,78.088L65.917,78.088z"/>
		<path fill="#FFFFFF" d="M59.128,74.01l-5.333,5.258l-6.476-4.201l0.865-0.979V61.613h-3.023l1.219-2.827h1.805v-4l6.354-3.454
			l0.273,0.392c-0.626,0.549-0.859,0.904-0.859,2.276v4.784h4.628l-1.334,2.829h-3.294v11.688l3.097,1.964l1.688-1.646L59.128,74.01
			L59.128,74.01z M57.208,60.475h-3.255v0.591h2.98L57.208,60.475L57.208,60.475z M49.362,58.786v-4l-0.667,0.393v3.607H49.362
			L49.362,58.786z M54.186,78.088l-5.139-3.372l0.312-0.356V60.473h-3.139l-0.275,0.591h2.748v13.182l-0.628,0.665l5.647,3.647
			L54.186,78.088L54.186,78.088z"/>
		<path fill="#FFFFFF" d="M46.302,64.947l-8.238,4.59v3.846l3.961,2.431l2.628-2.394l0.393,0.434l-6.042,5.414l-7.452-4.316
			l0.706-0.784V63.26l10.159-5.179L46.302,64.947L46.302,64.947z M41.203,67.143l-3.099-6.314l-0.08,0.038v8.081L41.203,67.143
			L41.203,67.143z M42.34,66.554l-3.1-6.236l-0.588,0.313l3.097,6.236L42.34,66.554L42.34,66.554z M39.436,78.166l-6.314-3.686
			l0.313-0.354V63.258l-0.669,0.355v10.632l-0.471,0.549l6.63,3.843L39.436,78.166L39.436,78.166z"/>
		<path fill="#FFFFFF" d="M17.748,55.295c-0.67,0.356-0.945,0.788-0.945,2.002v9.141c0,1.489-0.833,2.695-2.825,3.726l-4.392,2.274
			l-0.313-0.429c1.097-0.784,1.567-1.49,1.567-2.435v-4.078c-0.471,0-0.861,0-0.861,0c-1.06,0-1.49,0.549-1.49,2.116l-0.157,0.079
			c-0.706-0.549-1.49-1.374-1.49-3.138c0-2.08,1.41-3.255,3.139-3.255h0.862v-1.333c0-1.453,0.994-3.08,3.294-3.883l3.377-1.18
			L17.748,55.295L17.748,55.295z M13.036,57.297l-0.038-0.079c-1.218,0.748-1.647,1.729-1.647,2.942v1.141h0.669v-1.572
			C12.019,58.594,12.41,58.002,13.036,57.297L13.036,57.297z M12.019,69.417v-5.138H9.781c-0.784,0-1.255,0.548-1.293,1.296
			l0.038,0.038c0.313-0.431,0.551-0.666,1.219-0.666h1.607v4.627c0,0.434-0.119,0.982-0.354,1.297l0.079,0.04
			C11.625,70.676,12.019,70.045,12.019,69.417L12.019,69.417z"/>
		<path fill="#FFFFFF" d="M30.139,73.457l-9.024,6.042c-2.037-2.274-4.195-3.372-6.313-3.372c-4.745,0-7.062,1.688-7.062,3.804
			c0,2.628,1.924,4.51,5.453,4.51c2.669,0,4.474-0.983,5.297-1.882l0.199,1.255c-1.217,0.627-2.984,1.296-5.533,1.296
			c-3.846,0-6.433-2.197-6.433-5.414c0-5.336,4.552-8.042,9.337-8.042c1.06,0,1.452,0.077,2.273,0.233V54.081
			c-0.902,0.116-2.745,0.43-4.158,0.43c-4.157,0-6.081-2.352-6.081-4.783c0-1.452,0.707-2.512,1.178-3.021l0.392,0.195
			c-0.04,0.235-0.078,0.471-0.078,0.669c0,1.449,1.019,1.881,4.314,1.881c3.062,0,5.962-0.861,8.827-0.861
			c4.55,0,7.412,2.707,7.412,7.572V73.457L30.139,73.457z M24.178,74.753V57.61c0-3.178-0.435-3.727-3.766-3.727
			c-0.433,0-1.217,0.078-1.61,0.119v17.963c2.236,0.513,3.963,1.65,5.297,2.828L24.178,74.753L24.178,74.753z M25.354,75.851
			c0-19.062,0-19.103,0-19.103c0-3.059-1.176-4.039-4.785-4.039c-2.747,0-4.08,0.591-6.474,0.591c-2.747,0-5.217-1.219-5.296-4.358
			l-0.08-0.037c-0.076,0.276-0.076,0.627-0.076,0.825c0,1.333,0.703,4.234,5.53,4.234c1.803,0,3.883-0.586,6.239-0.586
			c3.528,0,4.272,0.706,4.272,3.999v17.77L25.354,75.851L25.354,75.851z M21.745,78.401c-2.078-2.08-4.274-3.335-6.708-3.335
			c-1.217,0-2.392,0.198-3.335,0.784l-0.078,0.079c0.864-0.232,2.236-0.352,3.336-0.352c2.235,0,4.43,1.255,6.236,3.256
			L21.745,78.401L21.745,78.401z"/>
	</g>
</g>
</svg>
