<?xml version="1.0" encoding="UTF-8" standalone="no"?>
<svg width="8px" height="17px" viewBox="0 0 8 17" version="1.1" xmlns="http://www.w3.org/2000/svg" xmlns:xlink="http://www.w3.org/1999/xlink">
    <!-- Generator: sketchtool 39.1 (31720) - http://www.bohemiancoding.com/sketch -->
    <title>849033C4-A60A-4548-86A5-E7C7EC58B79E</title>
    <desc>Created with sketchtool.</desc>
    <defs></defs>
    <g id="[flow]-breakfast-layout" stroke="none" stroke-width="1" fill="none" fill-rule="evenodd">
        <g id="Layout-102" transform="translate(-338.000000, -127.000000)" fill="#FFFFFF">
            <g id="screen">
                <g id="expanded-panel" transform="translate(256.000000, 56.000000)">
                    <g id="aspect-grid" transform="translate(42.000000, 28.000000)">
                        <g id="twitter-facebook" transform="translate(2.000000, 36.000000)">
                            <path d="M38,15.5 L39.7619793,15.5 L39.7619793,24 L43.2682297,24 L43.2682297,15.5 L45.6234369,15.5 L45.9333333,12.5692703 L43.2859369,12.5692703 L43.2859369,11.1083333 C43.2859369,10.8840263 43.2962661,10.711372 43.3169268,10.5903637 C43.3375875,10.4693577 43.3848089,10.3513029 43.4585935,10.2361971 C43.532378,10.1210935 43.6489572,10.0414065 43.8083333,9.99713627 C43.9677095,9.95286373 44.1802072,9.93072973 44.4458333,9.93072973 L45.9156261,9.93072973 L45.9156261,7 L43.5692703,7 C42.2116253,7 41.2376772,7.32169893 40.6473964,7.9651036 C40.0571151,8.60851053 39.7619793,9.5558956 39.7619793,10.8072928 L39.7619793,12.5692703 L38,12.5692703 L38,15.5 Z" id="facebook-icon"></path>
                        </g>
                    </g>
                </g>
            </g>
        </g>
    </g>
</svg>