<?xml version="1.0" encoding="UTF-8" standalone="no"?>
<svg width="18px" height="17px" viewBox="0 0 18 17" version="1.1" xmlns="http://www.w3.org/2000/svg" xmlns:xlink="http://www.w3.org/1999/xlink">
    <!-- Generator: sketchtool 39.1 (31720) - http://www.bohemiancoding.com/sketch -->
    <title>71AAF670-119D-4CD3-981F-ADD2F80B4F71</title>
    <desc>Created with sketchtool.</desc>
    <defs></defs>
    <g id="[flow]-breakfast-layout" stroke="none" stroke-width="1" fill="none" fill-rule="evenodd">
        <g id="Layout-102" transform="translate(-387.000000, -128.000000)" fill="#FFFFFF">
            <g id="screen">
                <g id="expanded-panel" transform="translate(256.000000, 56.000000)">
                    <g id="aspect-grid" transform="translate(42.000000, 28.000000)">
                        <g id="instagram" transform="translate(82.859813, 36.000000)">
                            <path d="M22.0742181,22.3658855 L22.0742181,15.194011 L20.5800789,15.194011 C20.7276488,15.6588572 20.8014313,16.142141 20.8014313,16.6438797 C20.8014313,17.5735721 20.5653229,18.4313117 20.0930987,19.2171232 C19.6208745,20.0029347 18.9789538,20.6245635 18.1673168,21.0820317 C17.3556822,21.5394999 16.4702727,21.7682303 15.5110682,21.7682303 C14.0575006,21.7682303 12.8142407,21.2683435 11.7812488,20.2685551 C10.7482594,19.2687667 10.2317697,18.0605548 10.2317697,16.6438797 C10.2317697,16.142141 10.3055547,15.6588572 10.4531246,15.194011 L8.89257819,15.194011 L8.89257819,22.3658855 C8.89257819,22.5577266 8.95713916,22.7182068 9.08626308,22.8473307 C9.21538701,22.9764546 9.37586693,23.0410156 9.56770757,23.0410156 L21.399089,23.0410156 C21.5835513,23.0410156 21.7421858,22.9764546 21.8749997,22.8473307 C22.0078136,22.7182068 22.0742181,22.5577266 22.0742181,22.3658855 L22.0742181,22.3658855 Z M18.9309893,16.4667978 C18.9309893,15.5518613 18.5971175,14.7715957 17.9293614,14.1259761 C17.2616078,13.4803565 16.4555167,13.1575516 15.5110682,13.1575516 C14.5739978,13.1575516 13.7715957,13.4803565 13.1038421,14.1259761 C12.436086,14.7715957 12.1022141,15.5518613 12.1022141,16.4667978 C12.1022141,17.3817317 12.436086,18.1619974 13.1038421,18.807617 C13.7715957,19.4532366 14.5739978,19.7760414 15.5110682,19.7760414 C16.4555167,19.7760414 17.2616078,19.4532366 17.9293614,18.807617 C18.5971175,18.1619974 18.9309893,17.3817317 18.9309893,16.4667978 L18.9309893,16.4667978 Z M22.0742181,12.4824225 L22.0742181,10.656251 C22.0742181,10.4496521 22.0004356,10.2707257 21.8528632,10.1194668 C21.7052933,9.9682079 21.5245224,9.89257844 21.3105455,9.89257844 L19.3847661,9.89257844 C19.1707892,9.89257844 18.9900183,9.9682079 18.8424484,10.1194668 C18.6948785,10.2707257 18.6210935,10.4496521 18.6210935,10.656251 L18.6210935,12.4824225 C18.6210935,12.6963994 18.6948785,12.8771703 18.8424484,13.0247402 C18.9900183,13.1723101 19.1707892,13.2460951 19.3847661,13.2460951 L21.3105455,13.2460951 C21.5245224,13.2460951 21.7052933,13.1723101 21.8528632,13.0247402 C22.0004356,12.8771703 22.0742181,12.6963994 22.0742181,12.4824225 L22.0742181,12.4824225 Z M24,10.1803378 L24,22.8196615 C24,23.4173206 23.7860256,23.9301194 23.3580719,24.3580729 C22.9301181,24.7860265 22.4173199,25 21.8196622,25 L9.18033853,25 C8.58267939,25 8.06988063,24.7860265 7.64192714,24.3580729 C7.21397355,23.9301194 7,23.4173206 7,22.8196615 L7,10.1803378 C7,9.58268013 7.21397355,9.06988187 7.64192714,8.64192813 C8.06988063,8.21397439 8.58267939,8 9.18033853,8 L21.8196622,8 C22.4173199,8 22.9301181,8.21397439 23.3580719,8.64192813 C23.7860256,9.06988187 24,9.58268013 24,10.1803378 L24,10.1803378 Z" id="instagram-icon"></path>
                        </g>
                    </g>
                </g>
            </g>
        </g>
    </g>
</svg>