<?xml version="1.0" encoding="UTF-8" standalone="no"?>
<svg width="20px" height="18px" viewBox="0 0 20 18" version="1.1" xmlns="http://www.w3.org/2000/svg" xmlns:xlink="http://www.w3.org/1999/xlink">
    <!-- Generator: sketchtool 39.1 (31720) - http://www.bohemiancoding.com/sketch -->
    <title>442A8D76-6A00-4ABE-854A-B58983FB38F3</title>
    <desc>Created with sketchtool.</desc>
    <defs></defs>
    <g id="[flow]-breakfast-layout" stroke="none" stroke-width="1" fill="none" fill-rule="evenodd">
        <g id="Layout-101" transform="translate(-26.000000, -335.000000)" fill="#000000">
            <g id="screen">
                <g id="component-panel" transform="translate(0.000000, 56.000000)">
                    <g id="component-panel-container-Copy-3" transform="translate(0.000000, 256.000000)">
                        <path d="M41.984375,35 L41.984375,37.015625 L39.96875,37.015625 L39.96875,35 L41.984375,35 Z M41.984375,31.015625 L41.984375,32.984375 L39.96875,32.984375 L39.96875,31.015625 L41.984375,31.015625 Z M44,38.984375 L44,29 L35.984375,29 L35.984375,31.015625 L38,31.015625 L38,32.984375 L35.984375,32.984375 L35.984375,35 L38,35 L38,37.015625 L35.984375,37.015625 L35.984375,38.984375 L44,38.984375 Z M33.96875,26.984375 L33.96875,25.015625 L32,25.015625 L32,26.984375 L33.96875,26.984375 Z M33.96875,31.015625 L33.96875,29 L32,29 L32,31.015625 L33.96875,31.015625 Z M33.96875,35 L33.96875,32.984375 L32,32.984375 L32,35 L33.96875,35 Z M33.96875,38.984375 L33.96875,37.015625 L32,37.015625 L32,38.984375 L33.96875,38.984375 Z M29.984375,26.984375 L29.984375,25.015625 L27.96875,25.015625 L27.96875,26.984375 L29.984375,26.984375 Z M29.984375,31.015625 L29.984375,29 L27.96875,29 L27.96875,31.015625 L29.984375,31.015625 Z M29.984375,35 L29.984375,32.984375 L27.96875,32.984375 L27.96875,35 L29.984375,35 Z M29.984375,38.984375 L29.984375,37.015625 L27.96875,37.015625 L27.96875,38.984375 L29.984375,38.984375 Z M35.984375,26.984375 L45.96875,26.984375 L45.96875,41 L26,41 L26,23 L35.984375,23 L35.984375,26.984375 Z" id="news-logo"></path>
                    </g>
                </g>
            </g>
        </g>
    </g>
</svg>