<?xml version="1.0" encoding="UTF-8" standalone="no"?>
<svg width="18px" height="18px" viewBox="0 0 18 18" version="1.1" xmlns="http://www.w3.org/2000/svg" xmlns:xlink="http://www.w3.org/1999/xlink">
    <!-- Generator: sketchtool 39.1 (31720) - http://www.bohemiancoding.com/sketch -->
    <title>B4F7BC37-FB8C-43D0-96A0-6DAD06440F74</title>
    <desc>Created with sketchtool.</desc>
    <defs></defs>
    <g id="[Assets]-canvas-elements" stroke="none" stroke-width="1" fill="none" fill-rule="evenodd">
        <g id="Canvas-Elements" transform="translate(-1059.000000, -436.000000)" fill="#000000">
            <path d="M1071.502,442.491 L1070.708,442.491 L1070.432,442.765 C1071.407,443.902 1072,445.376 1072,446.991 C1072,450.581 1069.09,453.491 1065.5,453.491 C1061.91,453.491 1059,450.581 1059,446.991 C1059,443.401 1061.91,440.491 1065.5,440.491 C1067.115,440.491 1068.588,441.083 1069.725,442.057 L1070.001,441.783 L1070.001,440.991 L1074.999,436 L1076.49,437.491 L1071.502,442.491 L1071.502,442.491 Z M1065.5,442.491 C1063.014,442.491 1061,444.505 1061,446.991 C1061,449.476 1063.014,451.491 1065.5,451.491 C1067.985,451.491 1070,449.476 1070,446.991 C1070,444.505 1067.985,442.491 1065.5,442.491 L1065.5,442.491 Z" id="Shape" transform="translate(1067.745000, 444.745500) scale(1, -1) translate(-1067.745000, -444.745500) "></path>
        </g>
    </g>
</svg>