<?xml version="1.0" encoding="UTF-8" standalone="no"?>
<svg width="16px" height="12px" viewBox="0 0 16 12" version="1.1" xmlns="http://www.w3.org/2000/svg" xmlns:xlink="http://www.w3.org/1999/xlink">
    <!-- Generator: sketchtool 39.1 (31720) - http://www.bohemiancoding.com/sketch -->
    <title>4A0CA0F8-BBBA-40C8-AE8E-FB3C70408929</title>
    <desc>Created with sketchtool.</desc>
    <defs></defs>
    <g id="[Assets]-medium-editor" stroke="none" stroke-width="1" fill="none" fill-rule="evenodd">
        <g id="medium-editor-lists" transform="translate(-376.000000, -237.000000)" fill="#FFFFFF">
            <g id="list-states" transform="translate(363.000000, 229.000000)">
                <g id="ordered-list" transform="translate(13.000000, 8.000000)">
                    <rect id="Rectangle-17" x="4" y="0" width="12" height="2"></rect>
                    <rect id="Rectangle-17-Copy-6" x="4" y="5" width="12" height="2"></rect>
                    <rect id="Rectangle-17-Copy-7" x="4" y="10" width="12" height="2"></rect>
                    <polygon id="Path" points="0 9.75438596 0 8.98245614 2.24561404 8.98245614 2.24561404 12 0 12 0 11.2280702 1.47368421 11.2280702 1.47368421 10.877193 0.736842105 10.877193 0.736842105 10.1052632 1.47368421 10.1052632 1.47368421 9.75438596"></polygon>
                    <polygon id="Path" points="0.736842105 3.01754386 0.736842105 0.771929825 0 0.771929825 0 0 1.47368421 0 1.47368421 3.01754386"></polygon>
                    <polygon id="Path" points="0 5.26315789 0 4.49122807 2.24561404 4.49122807 2.24561404 5.19298246 0.877192982 6.73684211 2.24561404 6.73684211 2.24561404 7.50877193 0 7.50877193 0 6.80701754 1.33333333 5.26315789"></polygon>
                </g>
            </g>
        </g>
    </g>
</svg>