<?xml version="1.0" encoding="UTF-8" standalone="no"?>
<svg width="24px" height="25px" viewBox="0 0 24 25" version="1.1" xmlns="http://www.w3.org/2000/svg" xmlns:xlink="http://www.w3.org/1999/xlink">
    <!-- Generator: sketchtool 39.1 (31720) - http://www.bohemiancoding.com/sketch -->
    <title>69933DDF-892D-4A04-903E-E04CB5C013AA</title>
    <desc>Created with sketchtool.</desc>
    <defs></defs>
    <g id="Symbols" stroke="none" stroke-width="1" fill="none" fill-rule="evenodd">
        <g id="Nav" transform="translate(-1238.000000, -15.000000)" fill="#FFFFFF">
            <g id="status" transform="translate(1043.000000, 15.000000)">
                <path d="M207,21.6478873 C210.042268,21.6478873 212.446,20.3521271 214.211268,17.7605634 C214.173708,16.7089154 213.328648,15.8262959 211.676056,15.1126761 C210.023465,14.3990562 208.464796,14.0422535 207,14.0422535 C205.535204,14.0422535 203.976535,14.3896672 202.323944,15.0845052 C200.671352,15.7793469 199.826292,16.6713555 199.788732,17.7605634 C201.554,20.3521271 203.957732,21.6478873 207,21.6478873 L207,21.6478873 Z M207,4.57746479 C206.023468,4.57746479 205.178409,4.93426749 204.464789,5.64788732 C203.751169,6.36150715 203.394366,7.20656676 203.394366,8.18309859 C203.394366,9.15963042 203.751169,10.00469 204.464789,10.7183099 C205.178409,11.4319297 206.023468,11.7887324 207,11.7887324 C207.976532,11.7887324 208.821591,11.4319297 209.535211,10.7183099 C210.248831,10.00469 210.605634,9.15963042 210.605634,8.18309859 C210.605634,7.20656676 210.248831,6.36150715 209.535211,5.64788732 C208.821591,4.93426749 207.976532,4.57746479 207,4.57746479 L207,4.57746479 Z M207,0.971830986 C210.30518,0.971830986 213.131445,2.14552969 215.478875,4.49295594 C217.826301,6.8403858 219,9.66665104 219,12.971831 C219,16.2770109 217.826301,19.1032762 215.478875,21.4507042 C213.131445,23.7981337 210.30518,24.971831 207,24.971831 C203.69482,24.971831 200.868555,23.7981337 198.521127,21.4507042 C196.173697,19.1032762 195,16.2770109 195,12.971831 C195,9.66665104 196.173697,6.8403858 198.521127,4.49295594 C200.868555,2.14552969 203.69482,0.971830986 207,0.971830986 L207,0.971830986 Z" id="Page-1"></path>
            </g>
        </g>
    </g>
</svg>