<?xml version="1.0" encoding="UTF-8" standalone="no"?>
<svg width="30px" height="25px" viewBox="0 0 30 25" version="1.1" xmlns="http://www.w3.org/2000/svg" xmlns:xlink="http://www.w3.org/1999/xlink">
    <!-- Generator: sketchtool 39.1 (31720) - http://www.bohemiancoding.com/sketch -->
    <title>F782882B-BDD8-4C8B-B12E-41B200D88DD1</title>
    <desc>Created with sketchtool.</desc>
    <defs></defs>
    <g id="[flow]-breakfast-layout" stroke="none" stroke-width="1" fill="none" fill-rule="evenodd">
        <g id="Layout-101" transform="translate(-644.000000, -606.000000)" fill="#FFFFFF">
            <g id="screen">
                <g id="canvas" transform="translate(643.000000, 253.000000)">
                    <g id="resposition" transform="translate(1.000000, 355.000000)">
                        <path d="M2.6875,19.96875 L16,19.96875 L11.75,14.28125 L8.4375,18.59375 L6,15.71875 L2.6875,19.96875 Z M0,9.34375 L18.6875,9.34375 L18.6875,22.65625 L2.6875,22.65625 C1.9791632,22.65625 1.3541692,22.3854194 0.8125,21.84375 C0.27083064,21.3020808 0,20.6770868 0,19.96875 L0,9.34375 Z M5.375,-1.34375 L8,-1.34375 L8,1.34375 L5.375,1.34375 L5.375,-1.34375 Z M10.6875,-1.34375 L13.375,-1.34375 L13.375,1.34375 L10.6875,1.34375 L10.6875,-1.34375 Z M2.6875,-1.34375 L2.6875,1.34375 L0,1.34375 C0,0.677082 0.2812472,0.062502 0.84375,-0.499998 C1.4062528,-1.062502 2.02083,-1.34375 2.6875,-1.34375 L2.6875,-1.34375 Z M21.375,19.96875 L24,19.96875 L24,22.65625 L21.375,22.65625 L21.375,19.96875 Z M21.375,-1.34375 L24,-1.34375 L24,1.34375 L21.375,1.34375 L21.375,-1.34375 Z M0,3.96875 L2.6875,3.96875 L2.6875,6.65625 L0,6.65625 L0,3.96875 Z M26.6875,-1.34375 C27.354168,-1.34375 27.968748,-1.062502 28.531248,-0.499998 C29.093752,0.062502 29.375,0.677082 29.375,1.34375 L26.6875,1.34375 L26.6875,-1.34375 Z M26.6875,3.96875 L29.375,3.96875 L29.375,6.65625 L26.6875,6.65625 L26.6875,3.96875 Z M16,-1.34375 L18.6875,-1.34375 L18.6875,1.34375 L16,1.34375 L16,-1.34375 Z M29.375,19.96875 C29.375,20.63542 29.093752,21.2499972 28.531248,21.8125 C27.968748,22.3750028 27.354168,22.65625 26.6875,22.65625 L26.6875,19.96875 L29.375,19.96875 Z M26.6875,9.34375 L29.375,9.34375 L29.375,11.96875 L26.6875,11.96875 L26.6875,9.34375 Z M26.6875,14.65625 L29.375,14.65625 L29.375,17.34375 L26.6875,17.34375 L26.6875,14.65625 Z" id="reposition"></path>
                    </g>
                </g>
            </g>
        </g>
    </g>
</svg>