<?xml version="1.0" encoding="UTF-8" standalone="no"?>
<svg width="20px" height="25px" viewBox="0 0 20 25" version="1.1" xmlns="http://www.w3.org/2000/svg" xmlns:xlink="http://www.w3.org/1999/xlink">
    <!-- Generator: sketchtool 39.1 (31720) - http://www.bohemiancoding.com/sketch -->
    <title>22BF4CC3-E09E-4181-AB81-7FDAC09970D1</title>
    <desc>Created with sketchtool.</desc>
    <defs></defs>
    <g id="[flow]-breakfast-layout" stroke="none" stroke-width="1" fill="none" fill-rule="evenodd">
        <g id="Layout-101" transform="translate(-1092.000000, -606.000000)" fill="#FFFFFF">
            <g id="screen">
                <g id="canvas" transform="translate(643.000000, 253.000000)">
                    <g id="reset" transform="translate(449.000000, 355.000000)">
                        <path d="M9.61124122,3.62529274 C12.271676,3.62529274 14.5386321,4.5620513 16.412178,6.43559719 C18.2857239,8.30914308 19.2224824,10.5573651 19.2224824,13.1803279 C19.2224824,15.8407626 18.2763568,18.1077187 16.3840767,19.9812646 C14.4917931,21.8548102 12.234204,22.7915691 9.61124122,22.7915691 C6.98827841,22.7915691 4.73068935,21.8548102 2.83840749,19.9812646 C0.946126359,18.1077187 0,15.8407626 0,13.1803279 L2.41686183,13.1803279 C2.41686183,15.1662859 3.11943074,16.8618213 4.52458837,18.2669807 C5.92974778,19.6721383 7.62528315,20.3747073 9.61124122,20.3747073 C11.5971993,20.3747073 13.2927347,19.6721383 14.6978941,18.2669807 C16.1030499,16.8618213 16.8056206,15.1662859 16.8056206,13.1803279 C16.8056206,11.1943698 16.1030499,9.49883444 14.6978941,8.09367502 C13.2927347,6.68851919 11.5971993,5.98594848 9.61124122,5.98594848 L9.61124122,10.8196721 L3.5971897,4.80562061 L9.61124122,-1.20843091 L9.61124122,3.62529274 Z"></path>
                    </g>
                </g>
            </g>
        </g>
    </g>
</svg>