<?xml version="1.0" encoding="UTF-8"?>
<svg width="12px" height="12px" viewBox="0 0 12 12" version="1.1" xmlns="http://www.w3.org/2000/svg" xmlns:xlink="http://www.w3.org/1999/xlink">
    <!-- Generator: Sketch 48.2 (47327) - http://www.bohemiancoding.com/sketch -->
    <title>icon/snapchat_16</title>
    <desc>Created with Sketch.</desc>
    <defs>
        <path d="M6.11537999,0.666666667 L6.11485132,0.666666667 C6.10449548,0.666666667 6.09476162,0.666666667 6.08549424,0.666791618 C6.01160398,0.667541328 5.89013287,0.668728369 5.87921726,0.668853321 C5.6128267,0.668853321 5.07982788,0.706651195 4.50730274,0.960490472 C4.17995893,1.1055281 3.88551743,1.30163971 3.63218827,1.54338992 C3.33015872,1.83143471 3.08410663,2.18657854 2.90099811,2.59910641 C2.63283492,3.20312269 2.69649374,4.22051026 2.74761983,5.03810015 L2.74780643,5.0393809 C2.75327978,5.12694077 2.75903302,5.21837414 2.76428868,5.30746467 C2.72494896,5.32561389 2.66116574,5.34476273 2.56715469,5.34476273 C2.41589112,5.34476273 2.23601685,5.29618778 2.03266313,5.20047482 C1.97282944,5.17248565 1.90453692,5.15833487 1.82918503,5.15833487 C1.70811819,5.15833487 1.58048956,5.19413352 1.46977856,5.25951447 C1.33048795,5.34167018 1.24048862,5.4577815 1.21604512,5.58651294 C1.19993605,5.67166749 1.20071352,5.83997736 1.38683861,6.01066132 C1.48921518,6.10462496 1.63960799,6.19127893 1.83372542,6.26834286 C1.88466492,6.28849131 1.94512059,6.30773386 2.00915259,6.32813222 C2.23135206,6.39907352 2.56765226,6.5062508 2.6553503,6.71357682 C2.69979019,6.8186924 2.68066456,6.95701388 2.59865756,7.12419918 C2.59651176,7.12875992 2.59436596,7.13322694 2.59240675,7.13791263 C2.57191277,7.18598777 2.38071861,7.62100694 1.98853423,8.07979817 C1.76568169,8.34069721 1.52022048,8.55873784 1.25936547,8.72804733 C0.94097805,8.93474859 0.596467814,9.0698838 0.235506421,9.12961069 C0.093759024,9.15297665 -0.007466903,9.27983381 0.000432140152,9.42399678 C0.00285783057,9.4655432 0.0125605922,9.50696468 0.0293849322,9.54704292 C0.0295093266,9.54729282 0.0296648195,9.54754272 0.0297892139,9.54776139 C0.0871039247,9.68242803 0.219988222,9.79682127 0.436030162,9.89771972 C0.700026136,10.0208908 1.0948539,10.124507 1.60944235,10.2055694 C1.63544078,10.2552376 1.66243436,10.3800643 1.68112461,10.4655313 C1.70068563,10.5563711 1.72108631,10.6497725 1.75016349,10.7489841 C1.78154198,10.8564737 1.862927,10.984924 2.07200286,10.984924 C2.15124208,10.984924 2.24236096,10.9669935 2.34787849,10.9464389 C2.50240741,10.915982 2.71372237,10.8744355 2.97746955,10.8744355 C3.12369514,10.8744355 3.2752386,10.887368 3.42777721,10.9128269 C3.72181442,10.9619954 3.97529907,11.1418633 4.26858992,11.3501577 C4.69787493,11.6549773 5.18379048,12 5.92620724,12 C5.94645242,12 5.96675981,11.999344 5.9868184,11.9979383 C6.01135519,11.9990941 6.04176962,12 6.07386337,12 C6.81649782,12 7.30228897,11.6548523 7.7311075,11.3502827 L7.73179167,11.3496579 C8.02514472,11.1416134 8.27834948,10.9619954 8.5722934,10.9128269 C8.72476981,10.8873993 8.87628217,10.8744355 9.02256996,10.8744355 C9.27453078,10.8744355 9.47402826,10.9067043 9.65216102,10.941597 C9.76840757,10.9645882 9.85874898,10.9756464 9.92806775,10.9756464 L9.93484725,10.9757713 L9.94187553,10.9757713 C10.0947873,10.9757713 10.2071465,10.8914602 10.2500315,10.7439235 C10.2785178,10.6468049 10.2988563,10.5555902 10.3189149,10.4632197 C10.3363923,10.3831256 10.3643188,10.2547378 10.3903173,10.2045385 C10.9052478,10.1233199 11.2999201,10.0199224 11.5639472,9.89678259 C11.7794915,9.7963527 11.9122203,9.68208441 11.9698771,9.54798006 C11.9871679,9.50777686 11.997275,9.46610549 11.9995452,9.4236844 C12.0076619,9.27977134 11.9062805,9.15266427 11.7644398,9.12929831 C10.1602188,8.86371358 9.43751851,7.20797927 9.40763276,7.13763149 C9.40570465,7.13300828 9.40352775,7.1284163 9.40125755,7.12394928 C9.31925056,6.9567015 9.30031151,6.81853621 9.3447825,6.71323321 C9.43229395,6.50609461 9.76837647,6.39891733 9.99073142,6.32800727 C10.0551055,6.30764015 10.1157789,6.28827264 10.1663141,6.2682179 C10.3852171,6.18137651 10.5416741,6.08716296 10.6448904,5.98017311 C10.7681652,5.85262872 10.7921733,5.730426 10.7906806,5.65045695 C10.7869177,5.45696932 10.6396658,5.28503585 10.4054312,5.20084967 C10.3263164,5.16798739 10.2360993,5.15065035 10.1442341,5.15065035 C10.0816948,5.15065035 9.9890832,5.15927201 9.90141626,5.2003811 C9.71373624,5.28859697 9.54561723,5.3368283 9.40128865,5.34370065 C9.32453732,5.33979591 9.27070565,5.32308362 9.23584412,5.30712105 C9.24022903,5.23165025 9.24508041,5.15411775 9.25008728,5.07327404 L9.25217089,5.03866243 C9.30357686,4.2205415 9.36745338,3.20237298 9.0991658,2.59791937 C8.91527981,2.18392332 8.66835696,1.82787359 8.36511456,1.53920404 C8.11079025,1.29729764 7.8153536,1.10121727 7.48682804,0.956273354 C6.91511146,0.704308351 6.38214374,0.666666667 6.11537999,0.666666667" id="path-1"></path>
    </defs>
    <g id="BreakfastTemplate_Chooser" stroke="none" stroke-width="1" fill="none" fill-rule="evenodd" transform="translate(-306.000000, -140.000000)">
        <g id="templatePanel" transform="translate(260.000000, 56.000000)">
            <g id="layoutPicker" transform="translate(24.000000, 24.000000)">
                <g id="1:2-ratio" transform="translate(14.000000, 43.000000)">
                    <g id="icon/snapchat_16" transform="translate(8.000000, 17.000000)">
                        <g id="icon-snapchat_16">
                            <mask id="mask-2" fill="white">
                                <use xlink:href="#path-1"></use>
                            </mask>
                            <use id="Mask" fill="#FFFFFF" xlink:href="#path-1"></use>
                            <g id="icon/_color/black-100%" mask="url(#mask-2)" fill="#CED7DF">
                                <g transform="translate(-1.333333, -1.333333)" id="ui-color">
                                    <rect x="0" y="0" width="14.6666667" height="14.6666667"></rect>
                                </g>
                            </g>
                        </g>
                    </g>
                </g>
            </g>
        </g>
    </g>
</svg>