<svg xmlns="http://www.w3.org/2000/svg" xmlns:xlink="http://www.w3.org/1999/xlink" width="24" height="23" viewBox="0 0 24 23">
  <defs>
    <polygon id="a" points="12 .043 0 .043 0 22.6 12 22.6 24 22.6 24 .043"/>
  </defs>
  <g fill="none" fill-rule="evenodd">
    <mask id="b" fill="white">
      <use xlink:href="#a"/>
    </mask>
    <path fill="#FFFFFE" d="M12.1484667,22.3512 C12.0878667,22.3512 12.0284,22.3494667 11.9688667,22.3466 L11.9687333,22.3466 C11.9308,22.3495333 11.8911333,22.3512 11.8514667,22.3512 C10.4591333,22.3512 9.56546667,21.7194667 8.70133333,21.1084667 C8.1046,20.6868667 7.54153333,20.2888 6.87806667,20.1783333 C6.55433333,20.1247333 6.23213333,20.0975333 5.92073333,20.0975333 C5.35973333,20.0975333 4.91713333,20.1841333 4.594,20.2473333 C4.39766667,20.2857333 4.22826667,20.3187333 4.09953333,20.3187333 C3.96506667,20.3187333 3.81933333,20.2896667 3.756,20.0732667 C3.70093333,19.8858 3.66113333,19.7042 3.62286667,19.5285333 C3.52413333,19.0764667 3.45406667,18.7984 3.2646,18.7693333 C1.05633333,18.4282667 0.424266667,17.9631333 0.283333333,17.6331333 C0.2634,17.5859333 0.252066667,17.5386667 0.249333333,17.4918667 C0.2422,17.3650667 0.332,17.2531333 0.457266667,17.2326667 C3.85193333,16.6736667 5.37426667,13.2040667 5.43746667,13.0567333 C5.4392,13.0526667 5.441,13.0487333 5.44286667,13.0446667 C5.65066667,12.6236 5.69133333,12.2581333 5.5642,11.9585333 C5.33126667,11.4095333 4.57146667,11.1682 4.06853333,11.0086667 C3.94546667,10.9697333 3.8288,10.9329333 3.7368,10.8966 C2.7332,10.4998 2.64966667,10.0926 2.68913333,9.885 C2.7564,9.53133333 3.229,9.28486667 3.61126667,9.28486667 C3.71606667,9.28486667 3.80833333,9.30346667 3.88593333,9.33966667 C4.3374,9.5512 4.74433333,9.65833333 5.0954,9.65833333 C5.58046667,9.65833333 5.7922,9.45446667 5.81806667,9.42773333 C5.80573333,9.198 5.79046667,8.95806667 5.77486667,8.71046667 C5.67373333,7.10553333 5.54846667,5.11126667 6.0562,3.97293333 C7.578,0.560733333 10.8052,0.295666667 11.758,0.295666667 C11.7824,0.295666667 12.1757333,0.291466667 12.1757333,0.291466667 L12.2321333,0.291266667 C13.1871333,0.291266667 16.4213333,0.5568 17.944,3.97086667 C18.4518667,5.1098 18.3262667,7.10573333 18.225,8.70946667 L18.2208,8.7792 C18.2068,9.00253333 18.1932,9.2196 18.1818667,9.4274 C18.2061333,9.45213333 18.4008667,9.63966667 18.8406667,9.65646667 L18.8411333,9.65646667 C19.1753333,9.64366667 19.5594667,9.53713333 19.981,9.33966667 C20.1045333,9.282 20.2417333,9.26986667 20.3351333,9.26986667 C20.4778,9.26986667 20.6224,9.29746667 20.7424667,9.34753333 L20.7497333,9.35053333 C21.0907333,9.47133333 21.3140667,9.71033333 21.3188667,9.96006667 C21.3232667,10.1952 21.1438,10.5487333 20.2632,10.8966 C20.1719333,10.9324667 20.0552667,10.9695333 19.9317333,11.0086667 C19.4282667,11.1684667 18.6686667,11.4095333 18.4358667,11.9584667 C18.3086667,12.2578667 18.3494,12.6231333 18.5570667,13.0444 C18.5589333,13.0484667 18.5610667,13.0524 18.5626667,13.0567333 C18.6258,13.2039333 20.1468,16.6725333 23.5429333,17.2322 C23.6683333,17.2528667 23.7578667,17.3646667 23.751,17.4916 C23.7481333,17.5391333 23.7366,17.5870667 23.7162667,17.6336 C23.5762,17.9612667 22.9446667,18.4258 20.7356,18.7671333 C20.5551333,18.7948667 20.4852,19.03 20.3774667,19.5231333 C20.3383333,19.7026 20.2986667,19.8788667 20.2440667,20.0642667 C20.1970667,20.2251333 20.0968,20.3004 19.9281333,20.3004 L19.9006667,20.3004 C19.7836,20.3004 19.6172,20.2794667 19.4063333,20.2380667 C19.0323333,20.1649333 18.613,20.0975333 18.0795333,20.0975333 C17.768,20.0975333 17.4456,20.1247333 17.1216667,20.1783333 C16.4589333,20.2888 15.8962,20.6860667 15.3006,21.1071333 C14.4347333,21.7194667 13.5412,22.3512 12.1484667,22.3512" mask="url(#b)"/>
    <path fill="#FFFFFF" d="M12.2321333,0.0425333333 L12.2311333,0.0425333333 C12.2104667,0.0425333333 12.191,0.0425333333 12.1725333,0.0429333333 C12.1725333,0.0429333333 11.7878,0.0467333333 11.7572667,0.0467333333 C10.7672,0.0467333333 7.41186667,0.322533333 5.8288,3.87173333 C5.2964,5.06573333 5.424,7.09366667 5.5264,8.72326667 C5.53846667,8.9154 5.55126667,9.11486667 5.56226667,9.30766667 C5.48033333,9.353 5.3308,9.4094 5.0954,9.4094 C4.78113333,9.4094 4.40973333,9.31026667 3.99166667,9.11426667 C3.88066667,9.06226667 3.75266667,9.03626667 3.61126667,9.03626667 C3.1216,9.03626667 2.53586667,9.3584 2.44473333,9.8386 C2.37893333,10.1843333 2.53366667,10.6888 3.64526667,11.1278 C3.74553333,11.1674667 3.86613333,11.2056667 3.99353333,11.2459333 C4.45273333,11.3918 5.14686667,11.6120667 5.3352,12.0557333 C5.4328,12.2856 5.39386667,12.5814667 5.2198,12.9348 C5.216,12.9428 5.21213333,12.9506667 5.20866667,12.9589333 C5.1476,13.1010667 3.67853333,16.4500667 0.416866667,16.987 C0.166066667,17.0284 -0.0131333333,17.2521333 0.000733333333,17.5058667 C0.00506666667,17.5814 0.0229333333,17.6565333 0.0538666667,17.7294667 C0.2986,18.3017333 1.3314,18.7210667 3.21153333,19.0128667 C3.27433333,19.0978667 3.33966667,19.3980667 3.37966667,19.581 C3.419,19.7614667 3.45953333,19.9476 3.51726667,20.1439333 C3.57393333,20.337 3.72113333,20.5677333 4.09953333,20.5677333 C4.2524,20.5677333 4.4328,20.5324667 4.64153333,20.4914667 C4.9548,20.4302667 5.38373333,20.3464667 5.92073333,20.3464667 C6.21846667,20.3464667 6.52713333,20.3723333 6.83793333,20.4238667 C7.4446,20.525 7.96013333,20.8893333 8.55693333,21.3112667 C9.41186667,21.9157333 10.3799333,22.6 11.8514667,22.6 C11.8918667,22.6 11.9325333,22.5988 11.9727333,22.5958 C12.0204667,22.5978667 12.0824667,22.6 12.1484667,22.6 C13.6204,22.6 14.5884,21.9156 15.4426667,21.3114667 C16.0408,20.889 16.556,20.5247333 17.1626667,20.4238667 C17.4729333,20.3723333 17.7816667,20.3464667 18.0795333,20.3464667 C18.5918,20.3464667 18.9971333,20.4116667 19.3586667,20.4822667 C19.5852,20.5266 19.7674667,20.5491333 19.9006667,20.5491333 L19.9146,20.5493333 L19.9281333,20.5493333 C20.2076,20.5493333 20.4048667,20.4016667 20.4830667,20.1336 C20.5397333,19.9413333 20.5804,19.76 20.6205333,19.5764667 C20.6603333,19.394 20.7254667,19.0952 20.7880667,19.0106667 C22.6687333,18.7187333 23.7012667,18.3000667 23.9455333,17.7302 C23.9769333,17.6572667 23.9949333,17.5815333 23.9992,17.5054 C24.0134,17.2515333 23.834,17.0280667 23.5833333,16.9868 C20.3202,16.4489333 18.8523333,13.1007333 18.7914,12.9586667 C18.7879333,12.9505333 18.7842667,12.9424 18.7802,12.9345333 C18.606,12.5812667 18.5674667,12.2856 18.6648667,12.0557333 C18.8531333,11.6120667 19.547,11.3918 20.0062,11.2462 C20.1346667,11.2054 20.2554,11.167 20.3547333,11.1278 C21.1682,10.8065333 21.5763333,10.412 21.5677333,9.95506667 C21.5606667,9.59626667 21.2811333,9.27613333 20.837,9.11746667 L20.8356,9.11693333 C20.6862,9.055 20.5088,9.02113333 20.3351333,9.02113333 C20.2164,9.02113333 20.0402,9.03726667 19.8756667,9.11426667 C19.4887333,9.2956 19.141,9.39413333 18.8411333,9.40753333 C18.6423333,9.39833333 18.5122667,9.3482 18.4380667,9.30726667 C18.4474667,9.142 18.4580667,8.97173333 18.4692667,8.79386667 L18.4734667,8.72473333 C18.5763333,7.09406667 18.7040667,5.06433333 18.1711333,3.86946667 C16.5875333,0.318733333 13.225,0.0425333333 12.2321333,0.0425333333 Z M12.2321333,0.540066667 C13.1361333,0.5402 16.2496,0.782733333 17.7168667,4.0722 C18.1998667,5.15513333 18.0763333,7.11733333 17.9769333,8.6938 C17.9611333,8.94373333 17.9458667,9.18606667 17.9334,9.4178 L17.928,9.5172 L17.9946,9.5912 C18.0212667,9.62113333 18.2725333,9.88353333 18.8309333,9.9052 L18.8402667,9.90546667 L18.8494,9.9052 C19.2186,9.89126667 19.6347333,9.77686667 20.0866667,9.565 C20.1529333,9.5338 20.2415333,9.51866667 20.3351333,9.51866667 C20.4420667,9.51866667 20.5554,9.53873333 20.649,9.57813333 L20.663,9.58386667 C20.8998,9.66673333 21.0673333,9.8234 21.0701333,9.96486667 C21.0715333,10.0452667 21.0114,10.3334 20.1718,10.665 C20.0897333,10.6975333 19.9816,10.7318 19.8564667,10.7713333 C19.3101333,10.945 18.4846667,11.2066667 18.2068,11.861 C18.0502,12.2302667 18.0928,12.6654 18.3338667,13.1545333 C18.4332,13.386 19.9924,16.8994667 23.5024,17.4778 C23.5014,17.4940667 23.4974667,17.5125333 23.488,17.5339333 C23.4284,17.6741333 23.0502,18.1578667 20.6976667,18.521 C20.3293333,18.5778 20.2390667,18.9902667 20.1343333,19.4701333 C20.097,19.6417333 20.0582,19.8148 20.0054,19.9942 C19.9894667,20.0484 19.9864,20.0516 19.9281333,20.0516 C19.9201333,20.0516 19.9111333,20.0516 19.9006667,20.0516 C19.7963333,20.0516 19.6376667,20.0298667 19.454,19.9939333 C19.1205333,19.9287333 18.6632667,19.8488 18.0795333,19.8488 C17.7536667,19.8488 17.4178,19.8771333 17.0811333,19.9329333 C16.3612,20.0528 15.7754667,20.4670667 15.1551333,20.9052667 C14.3225333,21.4940667 13.4618667,22.1024667 12.1484667,22.1024667 C12.0914667,22.1024667 12.0352667,22.1006 11.9791333,22.0979333 L11.9643333,22.0971333 L11.9494,22.0985333 C11.9171333,22.1012 11.8847333,22.1024667 11.8514667,22.1024667 C10.5383333,22.1024667 9.67733333,21.4940667 8.8448,20.9054667 C8.22473333,20.4670667 7.63886667,20.0528 6.91906667,19.9329333 C6.58233333,19.8771333 6.24653333,19.8488 5.92073333,19.8488 C5.33706667,19.8488 4.8798,19.9377333 4.54606667,20.0030667 C4.36253333,20.0391333 4.20366667,20.0699333 4.09953333,20.0699333 C4.01446667,20.0699333 4.01273333,20.065 3.99473333,20.0035333 C3.942,19.8240667 3.90333333,19.6463333 3.86586667,19.4749333 C3.76106667,18.995 3.6704,18.5801333 3.30253333,18.5234 C0.949733333,18.1600667 0.571866667,17.6751333 0.512066667,17.5353333 C0.5026,17.5136 0.498666667,17.4946667 0.4978,17.4781333 C4.00753333,16.8999333 5.5668,13.3868667 5.66606667,13.1548 C5.90713333,12.6654 5.95,12.2305333 5.79333333,11.8614667 C5.51566667,11.2069333 4.69013333,10.945 4.14366667,10.7713333 C4.01853333,10.7318667 3.91033333,10.6975333 3.82833333,10.665 C3.11886667,10.3848667 2.901,10.1026667 2.9336,9.9316 C2.9712,9.73433333 3.313,9.5338 3.61126667,9.5338 C3.6784,9.5338 3.737,9.54453333 3.78053333,9.565 C4.26513333,9.7918 4.70773333,9.9072 5.0954,9.9072 C5.70546667,9.9072 5.97713333,9.62326667 6.00593333,9.59106667 L6.07206667,9.5172 L6.06666667,9.41813333 C6.05426667,9.1868 6.03906667,8.9446 6.0232,8.6948 C5.92393333,7.11833333 5.80046667,5.15746667 6.28346667,4.07433333 C7.74506667,0.796933333 10.8432667,0.5444 11.758,0.5444 C11.7805333,0.5444 12.1780667,0.540466667 12.1780667,0.540466667 C12.1952,0.5402 12.213,0.540066667 12.2321333,0.540066667 L12.2321333,0.540066667 Z" mask="url(#b)"/>
  </g>
</svg>
