<?xml version="1.0" encoding="UTF-8"?>
<svg width="18px" height="19px" viewBox="0 0 18 19" version="1.1" xmlns="http://www.w3.org/2000/svg" xmlns:xlink="http://www.w3.org/1999/xlink">
    <!-- Generator: sketchtool 40.3 (33839) - http://www.bohemiancoding.com/sketch -->
    <title>B6787B21-B9DE-446A-895C-1C58996DF7B6</title>
    <desc>Created with sketchtool.</desc>
    <defs></defs>
    <g id="[flow]-breakfast-layout" stroke="none" stroke-width="1" fill="none" fill-rule="evenodd">
        <g id="Layout-105-empty" transform="translate(-26.000000, -335.000000)" fill="#000000">
            <g id="screen">
                <g id="component-panel" transform="translate(0.000000, 56.000000)">
                    <g id="sports-scores" transform="translate(0.000000, 256.000000)">
                        <path d="M36.18,36.556 C36.18,35.105 37.28,34.302 39.074,33.114 C41.268,31.658 44,29.849 44,25.554 C44,25.167 43.683,24.855 43.291,24.855 L39.861,24.855 C39.377,23.959 37.932,23 35,23 C32.066,23 30.623,23.959 30.138,24.855 L26.707,24.855 C26.316,24.855 26,25.168 26,25.554 C26,29.849 28.73,31.658 30.926,33.113 C32.72,34.301 33.82,35.104 33.82,36.555 L33.82,37.866 C31.936,38.075 30.551,38.772 30.551,39.602 C30.551,40.596 32.543,41.401 35,41.401 C37.457,41.401 39.449,40.596 39.449,39.602 C39.449,38.772 38.064,38.075 36.18,37.866 L36.18,36.556 L36.18,36.556 Z M38.957,31.5 C39.523,30.301 39.973,28.674 40.045,26.254 L42.555,26.254 C42.315,28.955 40.693,30.318 38.957,31.5 L38.957,31.5 Z M35,24.226 C37.732,24.224 38.799,25.341 38.798,25.755 C38.798,26.173 37.732,27.288 35,27.29 C32.268,27.289 31.201,26.174 31.201,25.756 C31.2,25.342 32.268,24.224 35,24.226 L35,24.226 Z M27.445,26.254 L29.954,26.254 C30.027,28.674 30.475,30.301 31.043,31.5 C29.307,30.318 27.684,28.955 27.445,26.254 L27.445,26.254 Z" id="sports-logo"></path>
                    </g>
                </g>
            </g>
        </g>
    </g>
</svg>