<?xml version="1.0" encoding="UTF-8" standalone="no"?>
<svg width="17px" height="14px" viewBox="0 0 17 14" version="1.1" xmlns="http://www.w3.org/2000/svg" xmlns:xlink="http://www.w3.org/1999/xlink">
    <!-- Generator: sketchtool 39.1 (31720) - http://www.bohemiancoding.com/sketch -->
    <title>AF60F65F-44B6-43BA-BDF4-954B9E0E1520</title>
    <desc>Created with sketchtool.</desc>
    <defs></defs>
    <g id="[flow]-breakfast-layout" stroke="none" stroke-width="1" fill="none" fill-rule="evenodd">
        <g id="Layout-102" transform="translate(-310.000000, -129.000000)" fill="#FFFFFF">
            <g id="screen">
                <g id="expanded-panel" transform="translate(256.000000, 56.000000)">
                    <g id="aspect-grid" transform="translate(42.000000, 28.000000)">
                        <g id="twitter-facebook" transform="translate(2.000000, 36.000000)">
                            <path d="M10.1328125,21.2630203 C10.2803826,21.3633681 10.5430537,21.510936 10.9208333,21.7057286 C12.3611187,22.4494822 13.8722147,22.8213536 15.4541667,22.8213536 C17.4257043,22.8213536 19.2171801,22.3137198 20.8286464,21.2984369 C21.5960105,20.8144068 22.277774,20.2315124 22.8739595,19.5497399 C23.4701427,18.8679651 23.9438352,18.1566873 24.2950529,17.415884 C24.6462684,16.6750829 24.9089411,15.9328153 25.0830732,15.1890608 C25.2572053,14.4453085 25.3383679,13.722226 25.3265631,13.0197905 L25.3265631,12.7098941 C26.0171915,12.2140585 26.5572905,11.6473987 26.9468739,11.0098941 C26.9822928,10.9390608 27,10.8859369 27,10.8505203 C27,10.7737845 26.9704857,10.7059024 26.9114595,10.6468739 C26.8524309,10.5878453 26.7845488,10.5583333 26.7078131,10.5583333 C26.6664917,10.5583333 26.5956607,10.5819429 26.4953131,10.6291667 C26.4244797,10.6527763 26.3374148,10.6822905 26.2341137,10.7177072 C26.1308149,10.7531239 26.0422744,10.7841137 25.9684899,10.8106768 C25.8947053,10.8372399 25.846006,10.8534715 25.8223964,10.8593739 C25.9758679,10.6881929 26.1352417,10.4565124 26.3005203,10.1643232 C26.4657988,9.872134 26.5484369,9.65816067 26.5484369,9.52239413 C26.5484369,9.4456584 26.5189249,9.37925413 26.4598964,9.3231768 C26.4008679,9.26709947 26.3300345,9.2390608 26.2473964,9.2390608 C26.2001727,9.2390608 26.1529512,9.25381907 26.1057297,9.28333333 C25.4328085,9.64340467 24.8041689,9.88836787 24.2197928,10.0182275 C23.5055525,9.33940613 22.6526081,9 21.6609369,9 C20.6456539,9 19.7809069,9.35416213 19.0666667,10.0625 C18.3524264,10.7708356 17.9953131,11.6267312 17.9953131,12.6302072 C17.9953131,12.8072928 18.0071179,12.9519084 18.0307297,13.0640608 C17.0331539,12.9814227 16.0710105,12.7423619 15.1442703,12.3468739 C14.21753,11.9513859 13.3852463,11.4201427 12.6473964,10.7531239 C12.4762155,10.5878453 12.1456623,10.2425368 11.6557293,9.71718693 C11.5848955,9.6463536 11.5022574,9.61093693 11.4078126,9.61093693 C11.3369788,9.61093693 11.2631947,9.6581584 11.1864583,9.7526036 C11.0329853,9.98281307 10.9119795,10.2646685 10.8234374,10.5981768 C10.7348955,10.9316851 10.690625,11.2578108 10.690625,11.5765608 C10.690625,12.4560796 10.9651013,13.2234347 11.5140626,13.8786464 L11.2572917,13.7546869 C11.1097215,13.689756 11.0005212,13.6572905 10.9296874,13.6572905 C10.8293398,13.6572905 10.7452261,13.6868048 10.6773437,13.7458333 C10.6094616,13.8048619 10.5755207,13.8815953 10.5755207,13.9760405 C10.5755207,14.5958356 10.7348941,15.1831561 11.0536459,15.7380203 C11.3723975,16.2928844 11.8032959,16.7355871 12.3463536,17.0661464 L12.2401041,17.0484369 C12.1707463,17.0336809 12.154514,17.0292519 12.1427083,17.0263007 C12.0394093,17.0218739 11.9730037,17.0513881 11.916927,17.1104167 C11.8608504,17.1694452 11.8328126,17.2343739 11.8328126,17.3052072 C11.8328126,17.3111096 11.8387152,17.3435751 11.8505207,17.4026036 C12.0512164,18.0164963 12.3847192,18.5374103 12.8510405,18.9653637 C13.3173641,19.3933172 13.8633656,19.6810751 14.4890631,19.8286464 C13.4619729,20.4602463 12.3286509,20.776041 11.0890626,20.776041 C11.0064231,20.776041 10.8736121,20.7671869 10.690625,20.7494786 C10.4427072,20.7376729 10.3069445,20.7317703 10.2833333,20.7317703 C10.2065968,20.7317703 10.1401912,20.7612839 10.0841146,20.8203119 C10.0280379,20.87934 10,20.9472212 10,21.0239577 C10,21.1124998 10.0442704,21.1921865 10.1328125,21.2630203 Z" id="twitter-icon"></path>
                        </g>
                    </g>
                </g>
            </g>
        </g>
    </g>
</svg>