<?xml version="1.0" encoding="UTF-8"?>
<svg width="12px" height="11px" viewBox="0 0 12 11" version="1.1" xmlns="http://www.w3.org/2000/svg" xmlns:xlink="http://www.w3.org/1999/xlink">
    <!-- Generator: Sketch 48.2 (47327) - http://www.bohemiancoding.com/sketch -->
    <title>icon/twitter_16</title>
    <desc>Created with Sketch.</desc>
    <defs>
        <path d="M12,1.51715421 C11.5590773,1.71794872 11.0843458,1.85373781 10.5863708,1.91440953 C11.0949111,1.60238353 11.4851206,1.10762008 11.6689558,0.518237631 C11.1928156,0.807150596 10.6666667,1.01733478 10.1045959,1.13001083 C9.65662969,0.639581076 9.01637612,0.333333333 8.30780067,0.333333333 C6.94911076,0.333333333 5.84680401,1.46370531 5.84680401,2.85771036 C5.84680401,3.05561575 5.8679345,3.24774287 5.91019546,3.43264717 C3.86406057,3.32719393 2.05036098,2.32322138 0.835358338,0.794149512 C0.623349181,1.1682918 0.502201092,1.60238353 0.502201092,2.06464428 C0.502201092,2.94005056 0.936784645,3.71289274 1.59746434,4.16576381 C1.19457651,4.15348501 0.814227857,4.03864211 0.48177496,3.85084868 L0.48177496,3.88190683 C0.48177496,5.10545323 1.33051594,6.12603828 2.45747491,6.35716865 C2.25110055,6.41639581 2.03345659,6.44600939 1.80876915,6.44600939 C1.65029054,6.44600939 1.49533369,6.43084146 1.34530727,6.40122788 C1.65874274,7.40375587 2.56735341,8.13398339 3.64500792,8.15348501 C2.80260609,8.83098592 1.74044726,9.23474178 0.587427364,9.23474178 C0.388800845,9.23474178 0.192287375,9.22318527 0,9.20007223 C1.08962846,9.91513182 2.38422257,10.3333333 3.77390386,10.3333333 C8.30287022,10.3333333 10.7786582,6.48717949 10.7786582,3.15095702 C10.7786582,3.0411701 10.7765452,2.93138317 10.7723191,2.82376309 C11.2533897,2.46767786 11.6710689,2.02347418 12,1.51715421" id="path-1"></path>
    </defs>
    <g id="BreakfastTemplate_Chooser" stroke="none" stroke-width="1" fill="none" fill-rule="evenodd" transform="translate(-413.000000, -141.000000)">
        <g id="templatePanel" transform="translate(260.000000, 56.000000)">
            <g id="layoutPicker" transform="translate(24.000000, 24.000000)">
                <g id="16:9-ratio" transform="translate(111.000000, 43.000000)">
                    <g id="icon/twitter_16" transform="translate(18.000000, 18.000000)">
                        <g id="icon-twitter_16">
                            <mask id="mask-2" fill="white">
                                <use xlink:href="#path-1"></use>
                            </mask>
                            <use id="icon" fill="#00AAEC" xlink:href="#path-1"></use>
                            <g id="icon/_color/black-100%" mask="url(#mask-2)" fill="#FFFFFF">
                                <g transform="translate(-1.333333, -2.333333)" id="ui-color">
                                    <rect x="0" y="0" width="14.6666667" height="14.6666667"></rect>
                                </g>
                            </g>
                        </g>
                    </g>
                </g>
            </g>
        </g>
    </g>
</svg>