<?xml version="1.0" encoding="UTF-8" standalone="no"?>
<svg width="81px" height="81px" viewBox="0 0 81 81" version="1.1" xmlns="http://www.w3.org/2000/svg" xmlns:xlink="http://www.w3.org/1999/xlink" xmlns:sketch="http://www.bohemiancoding.com/sketch/ns">
    <!-- Generator: sketchtool 3.4.4 (395) - http://www.bohemiancoding.com/sketch -->
    <title>Upload</title>
    <desc>Created with sketchtool.</desc>
    <defs></defs>
    <g id="Breakfast" stroke="none" stroke-width="1" fill="none" fill-rule="evenodd" sketch:type="MSPage">
        <g id="Editing-Interface" sketch:type="MSArtboardGroup" transform="translate(-472.000000, -634.000000)" fill="#000000">
            <g id="Upload-Controls" sketch:type="MSLayerGroup" transform="translate(332.000000, 586.000000)">
                <path d="M210.875,129 L203.347062,129 L203.319219,121.40625 L208.34375,121.40625 C211.140781,121.40625 213.40625,119.140781 213.40625,116.34375 L213.40625,111.255937 L221,111.238219 L221,118.875 C221,124.466531 216.466531,129 210.875,129 L210.875,129 Z M213.40625,91.0337813 L221,91.0337813 L221,106.21875 L213.40625,106.21875 L213.40625,91.0337813 L213.40625,91.0337813 Z M213.40625,70.78125 L221,70.78125 L221,85.96875 L213.40625,85.96875 L213.40625,70.78125 L213.40625,70.78125 Z M213.40625,60.6537188 C213.40625,57.8592188 211.140781,55.5912188 208.34375,55.5912188 L203.319219,55.5912188 L203.347062,48 L210.875,48 C216.466531,48 221,52.5309375 221,58.125 L221,65.7643125 L213.40625,65.7440625 L213.40625,60.6537188 L213.40625,60.6537188 Z M183.03125,121.40625 L198.21875,121.40625 L198.21875,129 L183.03125,129 L183.03125,121.40625 L183.03125,121.40625 Z M183.03125,48 L198.21875,48 L198.21875,55.5912188 L183.03125,55.5912188 L183.03125,48 L183.03125,48 Z M162.78125,121.40625 L177.96875,121.40625 L177.96875,129 L162.78125,129 L162.78125,121.40625 L162.78125,121.40625 Z M175.4375,70.78125 L185.5625,70.78125 C186.962281,70.78125 188.09375,71.91525 188.09375,73.3125 L188.09375,88.5 L195.133156,88.5 C197.879562,88.5 199.005969,90.3300938 197.6315,92.560125 L182.995812,107.02875 C181.621344,109.261313 179.376125,109.261313 178.001656,107.02875 L163.365969,92.560125 C161.996562,90.3300938 163.117906,88.5 165.866844,88.5 L172.90625,88.5 L172.90625,73.3125 C172.90625,71.91525 174.037719,70.78125 175.4375,70.78125 L175.4375,70.78125 Z M162.78125,48 L177.96875,48 L177.96875,55.5912188 L162.78125,55.5912188 L162.78125,48 L162.78125,48 Z M150.125,129 C144.533469,129 140,124.466531 140,118.875 L140,111.238219 L147.59375,111.255937 L147.59375,116.34375 C147.59375,119.140781 149.86175,121.40625 152.65625,121.40625 L157.680781,121.40625 L157.652938,129 L150.125,129 L150.125,129 Z M147.59375,106.21875 L140,106.21875 L140,91.0337813 L147.59375,91.0337813 L147.59375,106.21875 L147.59375,106.21875 Z M140,70.78125 L147.59375,70.78125 L147.59375,85.96875 L140,85.96875 L140,70.78125 L140,70.78125 Z M147.59375,60.6537188 L147.59375,65.7440625 L140,65.7643125 L140,58.125 C140,52.5309375 144.533469,48 150.125,48 L157.652938,48 L157.680781,55.5912188 L152.65625,55.5912188 C149.86175,55.5912188 147.59375,57.8592188 147.59375,60.6537188 L147.59375,60.6537188 Z" id="Upload" sketch:type="MSShapeGroup" transform="translate(180.500000, 88.500000) scale(1, -1) translate(-180.500000, -88.500000) "></path>
            </g>
        </g>
    </g>
</svg>
