<svg id="Layer_1" data-name="Layer 1" xmlns="http://www.w3.org/2000/svg" viewBox="0 0 435.6 68.98">
    <defs>
        <style>
            .cls-1 {
                fill: #231f20;
            }
            .cls-2 {
                fill: #414042;
            }
        </style>
    </defs>
    <title>Abilene</title><path
        class="cls-1"
        d="M22.85,15.19,18.51,25.32h8ZM36.72,43.11c-2.94-.28-4.3-1.68-6.07-6.63l-2.33-6.26H16.45L14.21,35.5A14.58,14.58,0,0,1,21,37l.8-.84.84.7c-1.59,1.73-3.69,4.3-5.14,6.21a9.81,9.81,0,0,0-7-2.71A7.61,7.61,0,0,0,5.2,42.27L4.73,42c1.82-3.22,5.28-6,8.08-6.26l6.12-14.48A3,3,0,0,0,16,19.39a4.05,4.05,0,0,0-3.45,1.77L12.16,21c.14-2.1,1.77-6.49,6.16-6.49a5.13,5.13,0,0,1,3,1.07l.79-1.82c-.66-1.63-2.2-2.15-4.44-2.15a5.74,5.74,0,0,0-4.25,1.73l-.37-.19c1.82-4.2,4.86-6.44,8.64-6.44,3,0,4.11,1.4,5,3.74L34.8,32c1.31,3.5,2.1,4.57,4,4.57a4.26,4.26,0,0,0,1.73-.37l.37.37a45.05,45.05,0,0,0-4.16,6.54"/><path
        class="cls-1"
        d="M54.74,38.72V24A7,7,0,0,1,51.85,22l-3.46,2.2V36.85A9.58,9.58,0,0,1,53,39.09Zm-6.35,4.39c-2.1-2.05-3.64-3-6-3a4.34,4.34,0,0,0-1.49.24l-.37-.14a8,8,0,0,1,2.71-2.33V16.54c0-3.13-.23-4.53-1.17-5.51,2.43-.09,3.92-.75,7.33-3.41a28,28,0,0,0-1,7.94v7.05l7.38-4.72c1.35,1.82,2.75,2.61,4.3,2.61a5.2,5.2,0,0,0,1.59-.23l.14.19a10.89,10.89,0,0,1-1.91,2.43V36.71c0,2.1.23,2.75.84,3.6a21.72,21.72,0,0,0-3.27-.24,13.72,13.72,0,0,0-9.06,3"/><path
        class="cls-1"
        d="M68.38,16a4.86,4.86,0,0,1-3.32-1.59l-.84.47-.51-.79c1.49-.94,3.55-2.29,4.76-3.23a3.75,3.75,0,0,0,2.8,1.87,2.92,2.92,0,0,0,1.63-.56l.28.19C72.25,14.06,70.76,16,68.38,16M70,43.11c-4.06-1-4.48-2.76-4.48-6.4V23.92A9.39,9.39,0,0,1,64,22.75l-1,.61-.56-.89a29.35,29.35,0,0,0,5.65-4.58c.89,1.31,2.2,2.61,3.69,2.61A3,3,0,0,0,73.38,20l.33.23a7.86,7.86,0,0,1-3.08,3.41V34.75c0,2.15.28,3.68,2.19,3.68a6.67,6.67,0,0,0,1.26-.14l.23.37A48.6,48.6,0,0,0,70,43.11"/><path
        class="cls-1"
        d="M77,16.54C77,13.41,76.74,12,75.8,11c2.43-.09,3.92-.75,7.33-3.41a27.93,27.93,0,0,0-1,7.94V37a15.16,15.16,0,0,1,2.52,1.73l.89-.61.65.84c-1.36,1.08-3.6,2.85-5,4.16C79.12,41.43,76.83,40,75.48,40a3.6,3.6,0,0,0-1,.14l-.19-.23A11.88,11.88,0,0,1,77,37.65Z"/><path
        class="cls-1"
        d="M97.89,27.47c-1.12-1.82-2.38-4.11-3.31-5.93l-.93.42v8.22c1.17-.84,2.89-1.92,4.25-2.71m-.23,15.64a19.85,19.85,0,0,0-9.29-2.94,9.15,9.15,0,0,0-2.34.28l-.14-.24a9.51,9.51,0,0,1,2.62-2.43V25.41c0-2.52-.38-3.36-1.17-4.29a13.23,13.23,0,0,0,2,.14c2.29,0,6.12-1.59,9.2-3.36A49.51,49.51,0,0,0,103,26.21c-3,1.68-6.35,3.69-9.39,5.74v4.48a18.76,18.76,0,0,1,6.4,1.78l1.4-1.45.84.75a71.84,71.84,0,0,0-4.62,5.6"/><path
        class="cls-1"
        d="M121.24,43.11c-3.46-.66-3.92-2.52-3.92-6.73V24.76a4.43,4.43,0,0,1-3.18-1.91c-1,.7-2.06,1.35-3,1.91V37a11.7,11.7,0,0,1,3.92,2.33,25.6,25.6,0,0,0-4.67,3.74c-1.63-1.73-3.5-2.8-5.14-2.8a4.89,4.89,0,0,0-2,.46l-.23-.19a8.18,8.18,0,0,1,3-3.08V26.25c0-2.19-.75-3.13-2.94-3.32l-.19-.28a19.61,19.61,0,0,0,4.9-4.76c2.62.84,3.27,2.71,3.36,5.37a58,58,0,0,0,7.42-5.37c.89,1.73,2,2.75,3.5,2.75a2.7,2.7,0,0,0,2.1-.84l.23.14a6.67,6.67,0,0,1-2,3.69V35.22c0,1.82.37,2.75,1.73,2.75a3.26,3.26,0,0,0,.93-.14l.19.23a46.61,46.61,0,0,0-4.06,5"/><path
        class="cls-1"
        d="M137.07,27.47c-1.12-1.82-2.38-4.11-3.32-5.93l-.93.42v8.22c1.17-.84,2.9-1.92,4.25-2.71m-.23,15.64a19.86,19.86,0,0,0-9.29-2.94,9.15,9.15,0,0,0-2.34.28l-.14-.24a9.47,9.47,0,0,1,2.62-2.43V25.41c0-2.52-.37-3.36-1.17-4.29a13.24,13.24,0,0,0,2,.14c2.29,0,6.12-1.59,9.2-3.36a49.6,49.6,0,0,0,4.53,8.31c-3,1.68-6.35,3.69-9.39,5.74v4.48a18.78,18.78,0,0,1,6.4,1.78l1.4-1.45.84.75a72.46,72.46,0,0,0-4.62,5.6"/><path
        class="cls-1"
        d="M180.82,16.59a8.07,8.07,0,0,0-3.5-6.72c-1.36.65-2,1.4-2,3.36V24.15a8.11,8.11,0,0,0,5.46-7.56m4.81,26.52c-3.22-.47-4.39-2.05-5.65-5.42a38.79,38.79,0,0,0-4.86,5.42A14.9,14.9,0,0,0,167,40.5a10.3,10.3,0,0,0-7.19,2.61l-.61-.38a14.35,14.35,0,0,1,12-7.14,17.42,17.42,0,0,1,7.56,1.82l.93-.75c-.75-2.57-1-6.26-2.15-9.29-.56-1.49-.93-1.87-2.1-1.91v1.63c0,3.78-2.62,5.74-6.3,7.24l-.37-.37c.75-.79,1.17-1.4,1.17-4.39V15.88c0-4.57,2.38-4.29,11-9.48A7.08,7.08,0,0,1,185,13.32a11.72,11.72,0,0,1-6.07,10c3.27,1.4,4.34,3.17,5.46,8.78.65,3.74,1.82,5.14,3.36,5.14a3.23,3.23,0,0,0,1-.19l.37.37ZM161.82,37l-.47-.33c.65-.61.75-1.87.75-4.34V27.23c-1,0-1.87.23-2.05,1.63a3.89,3.89,0,0,1-2-3.5c0-3.18,2.33-3.73,4-3.73v-.89c0-2.8,1.12-5.23,6-7.14l.37.37c-.65.89-.84,1.54-.84,3.6V28.31c0,4.2-.37,6-5.79,8.73m5.18-25c-1.78,0-4.76-.7-6.16-.7a3.26,3.26,0,0,0-3.13,1.31l-.42-.19c1-2.71,2.52-5.79,6.45-5.79,2.62,0,5.09,1.17,6.77,1.17a3.33,3.33,0,0,0,1.87-.75l.37.28c-1.91,2.85-3.46,4.67-5.74,4.67"/><path
        class="cls-1"
        d="M201.09,27.47c-1.12-1.82-2.38-4.11-3.32-5.93l-.93.42v8.22c1.17-.84,2.89-1.92,4.25-2.71m-.23,15.64a19.86,19.86,0,0,0-9.29-2.94,9.13,9.13,0,0,0-2.33.28l-.14-.24a9.5,9.5,0,0,1,2.62-2.43V25.41c0-2.52-.37-3.36-1.17-4.29a13.29,13.29,0,0,0,2,.14c2.29,0,6.12-1.59,9.2-3.36a49.69,49.69,0,0,0,4.53,8.31c-3,1.68-6.35,3.69-9.38,5.74v4.48a18.78,18.78,0,0,1,6.4,1.78l1.4-1.45.84.75a72.11,72.11,0,0,0-4.62,5.6"/><path
        class="cls-1"
        d="M221.17,39.51V24.29a8.38,8.38,0,0,1-2-1.21c-1.26,1-2.94,2.15-4.43,3.08v9.62a8.59,8.59,0,0,1,5.56,4.11ZM208.56,51.61a21,21,0,0,0,1-7.47V39.66a4.6,4.6,0,0,0-3.5,1.59l-.33-.19a8.49,8.49,0,0,1,3.83-4.67V26.72c0-2.19-.74-3.13-2.94-3.31l-.18-.28a35.5,35.5,0,0,0,4.9-5.23c2.61.84,3.36,2.8,3.36,5.37v1.4a93.45,93.45,0,0,0,8.92-6.77c1,1.73,1.91,3.36,3.78,3.36a3,3,0,0,0,1.54-.47l.19.19a6,6,0,0,1-2.85,3.08V35.78a6.11,6.11,0,0,0,.93,3.88A18.89,18.89,0,0,0,217,43.11a11.69,11.69,0,0,0-2.29-2.43v3.88c0,2.1.23,3.41,1.17,4.67a12.29,12.29,0,0,0-7.33,2.38"/><path
        class="cls-1"
        d="M243.49,38.25v-14A7.44,7.44,0,0,1,239.75,22a20.84,20.84,0,0,1-2.57.56V36.62a9.26,9.26,0,0,1,4.2,2.15,19.32,19.32,0,0,1,2.1-.51m-6.91,4.86a7.65,7.65,0,0,0-5.46-3,2.84,2.84,0,0,0-1.92.61l-.19-.19a7.29,7.29,0,0,1,3-2.89V25.37c0-2.48-.28-3.13-.84-4.11a20.66,20.66,0,0,0,2.57.19,21,21,0,0,0,11.35-3.55c1.17,1.73,2.52,3.13,4.29,3.13a2.11,2.11,0,0,0,1.5-.51l.14.14a7.76,7.76,0,0,1-2.43,3.18V34.28c0,2.52,0,3.92,1.12,5-.47,0-1-.09-1.4-.09-4,0-8.55,1.08-11.77,3.92"/><path
        class="cls-1"
        d="M260.2,43.11c-1.77-1.54-3.92-2.94-5.51-2.94a5.3,5.3,0,0,0-2.52.61l-.28-.28a7.14,7.14,0,0,1,3.22-3.22v-11c0-2.19-.74-3.13-2.94-3.32l-.18-.28a19.64,19.64,0,0,0,4.9-4.76c2.29,1,3.22,3.27,3.36,5.84A33.32,33.32,0,0,0,265,17.89c.51,1.59,1.31,2.94,2.71,2.94a3.78,3.78,0,0,0,1.91-.65c-.09,3-1.54,5.13-4.2,5.13a4.56,4.56,0,0,1-3.32-1.59c-.51.56-1.26,1.21-1.87,1.77V36.43a15.62,15.62,0,0,1,3.22,1.5l1.22-1,.84.94a70.14,70.14,0,0,0-5.33,5.28"/><path
        class="cls-1"
        d="M278.46,43.11c-2.15-1.73-3.13-2.94-6.49-2.94a5.14,5.14,0,0,0-1.21.14l-.19-.24a12,12,0,0,1,3-2.52v-15a15.14,15.14,0,0,0-3.41.28,13.09,13.09,0,0,0,0-3.83,15.29,15.29,0,0,0,3.41.28c0-2.61-.14-4-.61-4.72,2.29-.09,3.41-.75,6.59-3.22a37.54,37.54,0,0,0-.84,7.94,14.45,14.45,0,0,0,4.11-.47,15.69,15.69,0,0,0,0,4.2,14.46,14.46,0,0,0-4.11-.47V36.62a12.78,12.78,0,0,1,3.08,1.59l.74-.75.8.75c-1.22,1.17-3.6,3.45-4.86,4.9"/><path
        class="cls-1"
        d="M295.32,27.47c-1.12-1.82-2.38-4.11-3.31-5.93l-.93.42v8.22c1.16-.84,2.89-1.92,4.25-2.71m-.23,15.64a19.85,19.85,0,0,0-9.29-2.94,9.19,9.19,0,0,0-2.34.28l-.14-.24a9.47,9.47,0,0,1,2.62-2.43V25.41c0-2.52-.37-3.36-1.17-4.29a13.24,13.24,0,0,0,2,.14c2.28,0,6.11-1.59,9.2-3.36a49.5,49.5,0,0,0,4.53,8.31c-3,1.68-6.35,3.69-9.38,5.74v4.48a18.83,18.83,0,0,1,6.4,1.78l1.4-1.45.84.75a72.2,72.2,0,0,0-4.62,5.6"/><path
        class="cls-1"
        d="M308.49,43.11c-1.77-1.54-3.92-2.94-5.51-2.94a5.28,5.28,0,0,0-2.52.61l-.28-.28a7.14,7.14,0,0,1,3.22-3.22v-11c0-2.19-.75-3.13-2.94-3.32l-.19-.28a19.64,19.64,0,0,0,4.9-4.76c2.29,1,3.22,3.27,3.36,5.84a33.41,33.41,0,0,0,4.76-5.84c.51,1.59,1.3,2.94,2.71,2.94a3.76,3.76,0,0,0,1.91-.65c-.09,3-1.54,5.13-4.2,5.13a4.56,4.56,0,0,1-3.32-1.59c-.51.56-1.26,1.21-1.87,1.77V36.43a15.63,15.63,0,0,1,3.22,1.5l1.22-1,.84.94a71,71,0,0,0-5.32,5.28"/><path class="cls-1" d="M319,32.14a25.25,25.25,0,0,0,1.63-4.9,41.28,41.28,0,0,0,5,.23,17.55,17.55,0,0,0,4.2-.47,25.31,25.31,0,0,0-1.63,4.9,39.78,39.78,0,0,0-5-.23,17.4,17.4,0,0,0-4.2.47"/><path
        class="cls-1"
        d="M358.27,20.74a12.61,12.61,0,0,1-3.08.38,12.5,12.5,0,0,1-3-.38c2.75,6.4,4.81,10.51,6.12,12.33Zm-12,.56c-3.27-6.63-4.72-8.26-6.35-9V27.89a14.51,14.51,0,0,1,4.86-.93,13.3,13.3,0,0,1,4.48.8Zm13.26,21.81c-2.53-.94-4.49-2.94-9.39-13.68a13.11,13.11,0,0,0-5.46-1.17,12.35,12.35,0,0,0-4.77.93v5.93a13.16,13.16,0,0,1,7.52,2.34l.89-.89.79.56-4.43,6c-2.67-2-4-2.61-7-2.61a9.63,9.63,0,0,0-6.12,1.82h-.42a12.2,12.2,0,0,1,7.42-7V27H338c-1.12,0-1.49.51-1.58,2.1a3.9,3.9,0,0,1-2.62-4c0-2.34,1.77-3.74,4.25-3.74h.66V11.82c-2.76.14-4.62,1.12-5.42,4h-.47a8.44,8.44,0,0,1-.28-2,7.22,7.22,0,0,1,7-7.15c5.14,0,7.28,3.27,11.81,12.42a9.92,9.92,0,0,0,3.55.7,14.42,14.42,0,0,0,3.36-.37V12.9a11.6,11.6,0,0,1-5-1.07l-1.22.84-.6-.7a49.33,49.33,0,0,0,6-5.56,8.37,8.37,0,0,0,4.72,1.82,5.55,5.55,0,0,0,2.62-.75l.47.37c-1.68,2.85-3.92,4.44-5.6,4.81Z"/><path
        class="cls-1"
        d="M374.14,27.47c-1.12-1.82-2.38-4.11-3.31-5.93l-.94.42v8.22c1.17-.84,2.9-1.92,4.25-2.71m-.23,15.64a19.84,19.84,0,0,0-9.29-2.94,9.15,9.15,0,0,0-2.34.28l-.14-.24a9.55,9.55,0,0,1,2.62-2.43V25.41c0-2.52-.38-3.36-1.17-4.29a13.21,13.21,0,0,0,2,.14c2.29,0,6.11-1.59,9.2-3.36a49.85,49.85,0,0,0,4.53,8.31c-3,1.68-6.35,3.69-9.39,5.74v4.48a18.78,18.78,0,0,1,6.4,1.78l1.4-1.45.84.75a72.47,72.47,0,0,0-4.62,5.6"/><path
        class="cls-1"
        d="M398.42,43.11a6.28,6.28,0,0,1-5-4.44,41.3,41.3,0,0,0-6,4.44c-1.82-2-3.92-3.32-5.79-3.32a4.71,4.71,0,0,0-1.73.33l-.09-.23a9.72,9.72,0,0,1,2.81-2.57V26.25c0-2.19-.75-3.13-2.95-3.32l-.19-.28a19.67,19.67,0,0,0,4.9-4.76c2.62.84,3.36,2.71,3.36,5.37V36.62a10.5,10.5,0,0,1,3.64,1.73c.56-.37,1.21-.75,1.77-1.07V26c0-2.29-.61-3.13-2.38-3.31l-.19-.28a41.86,41.86,0,0,0,5.14-4.48c1.87,1.12,2.57,2.1,2.57,5.28v11c0,2.75.75,5,4.11,5a12.34,12.34,0,0,0,1.31-.09V24a7.72,7.72,0,0,1-1.58-1.45l-.89.51-.56-.89a31.45,31.45,0,0,0,5.65-4.3c.93,1.73,2,2.94,3.69,2.94a3.56,3.56,0,0,0,1.35-.28l.14.18a6.3,6.3,0,0,1-2.66,2.66V35.92c0,2.8.24,3.45,1,4.16l-.14.28a5,5,0,0,0-1.59-.28c-2.2,0-6.12,1.35-9.71,3"/><path
        class="cls-1"
        d="M427.61,21.91a6,6,0,0,1-3.46,1.31,5.09,5.09,0,0,1-3.41-1.68l-1.54.37V30h1.26a46,46,0,0,0,7.14-8.08m-2.76,16.76v-8h-3.31a49.06,49.06,0,0,0-6.45,7.1,7.89,7.89,0,0,1,3.83-1.22c2.05,0,3.46,1.36,4.62,2.43Zm-5,4.44a5,5,0,0,0-4.25-2.8,3.57,3.57,0,0,0-3.55,2.52l-1-.28c.7-2.85,3.13-6.21,6.3-9.53h-4.11a7.07,7.07,0,0,0,.84-3.74v-5c0-2.52-.38-3.17-.84-3.87a13.44,13.44,0,0,0,3.59.47,8.88,8.88,0,0,0,7.19-3,4.87,4.87,0,0,0,3.41,1.59,3,3,0,0,0,2.85-1.59l1,.28a32.64,32.64,0,0,1-6.63,9.48h6.16c-.7,1-.84,1.91-.84,3.69v5.09a7.57,7.57,0,0,0,.84,4.16,6,6,0,0,0-3-.65c-3.36,0-5.79.65-8,3.18"/><path class="cls-2" d="M251.89,52.65h2.19a2.36,2.36,0,1,1,0,4.69H253v2.93h-1.08ZM254,56.45a1.45,1.45,0,1,0,0-2.89h-1v2.89Z"/><path class="cls-2" d="M259.73,52.65h1l3.13,7.63h-1.15l-.78-2h-3.38l-.78,2h-1.13S259.35,53.59,259.73,52.65Zm1.79,4.73-.73-1.88c-.11-.28-.58-1.46-.59-1.56h0c0,.1-.47,1.24-.59,1.56l-.74,1.88Z"/><path class="cls-2" d="M264.91,52.65h2.21a2.24,2.24,0,0,1,2.53,2.26,2.12,2.12,0,0,1-1.93,2.15l2.34,3.22h-1.26l-2.21-3.11H266v3.11h-1.08ZM267,56.3c1,0,1.56-.53,1.56-1.37S268,53.56,267,53.56h-1V56.3Z"/><path class="cls-2" d="M272.63,53.58h-2.17v-.92h5.42v.92h-2.17v6.71h-1.08Z"/><path class="cls-2" d="M278.67,56.47a4,4,0,1,1,4,4A3.87,3.87,0,0,1,278.67,56.47Zm6.91,0a2.91,2.91,0,1,0-2.91,3A2.84,2.84,0,0,0,285.58,56.47Z"/><path class="cls-2" d="M288.24,52.65h3.85v.92h-2.77V56H292V57h-2.68v3.33h-1.08Z"/><path class="cls-2" d="M297,53.58h-2.17v-.92h5.42v.92H298v6.71H297Z"/><path class="cls-2" d="M301.33,52.65h1.08v3.13h4V52.65h1.08v7.63h-1.08V56.71h-4v3.58h-1.08Z"/><path class="cls-2" d="M309.46,52.65h4.15v.91h-3.08v2.22h3v.91h-3v2.67h3.14v.91h-4.22Z"/><path class="cls-2" d="M317.29,57.65v-5h1.09v4.67c0,1.33.57,2.14,1.84,2.14s1.85-.81,1.85-2.14V52.65h1.09v5a2.93,2.93,0,0,1-5.86,0Z"/><path
        class="cls-2"
        d="M324.27,58.9l.73-.62a2.21,2.21,0,0,0,1.91,1.21,1.32,1.32,0,0,0,1.49-1.29c0-.9-.75-1.21-1.69-1.57s-1.92-.86-1.92-2.08a2.08,2.08,0,0,1,2.3-2,2.56,2.56,0,0,1,2.24,1.15l-.73.62a1.73,1.73,0,0,0-1.51-.83c-.74,0-1.23.38-1.23,1,0,.79.76,1.06,1.42,1.31,1.08.42,2.18.94,2.18,2.34a2.31,2.31,0,0,1-2.54,2.32A3,3,0,0,1,324.27,58.9Z"/><path class="cls-2" d="M333.19,52.65h1l3.13,7.63h-1.15l-.78-2H332l-.78,2H330S332.81,53.59,333.19,52.65ZM335,57.38l-.73-1.88c-.11-.28-.58-1.46-.59-1.56h0c0,.1-.47,1.24-.59,1.56l-.74,1.88Z"/><path class="cls-2" d="M341.82,53.58h-2.17v-.92h5.42v.92h-2.17v6.71h-1.08Z"/><path class="cls-2" d="M345.47,56.47a4,4,0,1,1,4,4A3.87,3.87,0,0,1,345.47,56.47Zm6.91,0a2.91,2.91,0,1,0-2.91,3A2.84,2.84,0,0,0,352.38,56.47Z"/><path class="cls-2" d="M355,52.65h2.16c2.43,0,4,1.39,4,3.82s-1.62,3.81-4,3.81H355Zm1.08,6.71h1a2.89,2.89,0,1,0,0-5.78h-1Z"/><path class="cls-2" d="M364.74,52.65h1l3.13,7.63h-1.15l-.78-2h-3.38l-.78,2H361.6S364.36,53.59,364.74,52.65Zm1.79,4.73-.73-1.88c-.11-.28-.58-1.46-.59-1.56h0c0,.1-.47,1.24-.59,1.56l-.74,1.88Z"/><path class="cls-2" d="M371,57.18l-2.6-4.52h1.21L371,55.2a11.26,11.26,0,0,1,.54,1.09h0a11.56,11.56,0,0,1,.54-1.09l1.42-2.54h1.17l-2.6,4.52v3.11H371Z"/><path class="cls-2" d="M377.85,52.65h.83L383,57.6c.13.14.7.85.75,1h0c0-.11,0-1,0-1.18V52.65h1v7.63H384l-4.33-4.95c-.13-.14-.7-.85-.75-1h0c0,.11,0,1,0,1.19v4.7h-1Z"/><path class="cls-2" d="M386.78,52.65h4.15v.91h-3.08v2.22h3v.91h-3v2.67H391v.91h-4.22Z"/><path class="cls-2" d="M394.29,53.58h-2.17v-.92h5.42v.92h-2.17v6.71h-1.08Z"/><path
        class="cls-2"
        d="M398.44,52.65h1.14l1.56,4.53c.05.17.42,1.3.43,1.48h0a15.22,15.22,0,0,1,.46-1.48l1.63-4.53h.86l1.63,4.53c.07.17.45,1.3.46,1.48h0c0-.17.39-1.3.45-1.48l1.55-4.53h1.1l-2.68,7.63h-.83l-1.76-4.76a12.73,12.73,0,0,1-.37-1.24h0a12.79,12.79,0,0,1-.38,1.24L402,60.28h-.83Z"/><path class="cls-2" d="M410.23,56.47a4,4,0,1,1,4,4A3.87,3.87,0,0,1,410.23,56.47Zm6.91,0a2.91,2.91,0,1,0-2.91,3A2.84,2.84,0,0,0,417.14,56.47Z"/><path class="cls-2" d="M419.8,52.65H422a2.23,2.23,0,0,1,2.53,2.26,2.12,2.12,0,0,1-1.93,2.15l2.34,3.22h-1.26l-2.21-3.11h-.6v3.11H419.8Zm2.09,3.64c1,0,1.56-.53,1.56-1.37s-.57-1.37-1.56-1.37h-1V56.3Z"/><path class="cls-2" d="M426.16,52.65h1.08V56.2l3.15-3.54h1.3l-3.27,3.64,3.42,4H430.5l-3.26-3.86v3.86h-1.08Z"/></svg>
