<svg xmlns="http://www.w3.org/2000/svg" width="510" height="48" viewBox="0 0 510 48">
  <g fill="none" fill-rule="evenodd">
    <path fill="#404040" d="M12.687 22.415L19.932 22.415 16.332 11.705 12.687 22.415zM23.982 34.34L22.047 28.625 10.572 28.625 8.637 34.34.357 34.34 11.562 3.74 21.282 3.74 32.487 34.34 23.982 34.34zM48.102 28.715C49.451 28.715 50.539 28.182 51.364 27.117 52.189 26.053 52.602 24.636 52.602 22.865 52.602 21.095 52.189 19.678 51.364 18.612 50.539 17.548 49.451 17.015 48.102 17.015 46.721 17.015 45.619 17.548 44.794 18.612 43.969 19.678 43.556 21.095 43.556 22.865 43.556 24.636 43.969 26.053 44.794 27.117 45.619 28.182 46.721 28.715 48.102 28.715zM60.567 22.865C60.567 25.265 60.116 27.373 59.217 29.187 58.317 31.003 57.086 32.413 55.527 33.417 53.967 34.422 52.197 34.925 50.217 34.925 48.596 34.925 47.224 34.588 46.099 33.912 44.974 33.237 44.081 32.375 43.422 31.325L43.016 34.34 35.862 34.34 35.862 1.49 43.692 1.49 43.692 14.045C44.441 13.055 45.402 12.275 46.572 11.705 47.741 11.136 49.136 10.849 50.757 10.849 52.556 10.849 54.199 11.36 55.684 12.38 57.169 13.4 58.354 14.809 59.239 16.61 60.124 18.41 60.567 20.495 60.567 22.865zM64.662 34.34L64.662 11.434C65.922 11.705 67.196 11.84 68.487 11.84 69.806 11.84 71.142 11.705 72.491 11.434L72.491 34.34 64.662 34.34"/>
    <polygon fill="#404040" points="77.981 34.34 85.811 34.34 85.811 1.49 77.981 1.49"/>
    <path fill="#404040" d="M102.146 16.519C99.595 16.519 98.066 17.87 97.556 20.57L106.286 20.57C106.075 19.1 105.573 18.057 104.778 17.442 103.983 16.828 103.106 16.519 102.146 16.519zM112.856 32C111.715 32.809 110.268 33.5 108.513 34.07 106.758 34.639 104.891 34.925 102.911 34.925 100.18 34.925 97.848 34.422 95.913 33.417 93.978 32.413 92.493 31.01 91.458 29.21 90.423 27.41 89.906 25.34 89.906 23 89.906 20.631 90.416 18.53 91.436 16.7 92.455 14.87 93.866 13.437 95.666 12.402 97.466 11.367 99.565 10.849 101.966 10.849 104.306 10.849 106.368 11.352 108.153 12.357 109.938 13.363 111.333 14.758 112.338 16.542 113.343 18.328 113.846 20.42 113.846 22.82 113.846 23.15 113.823 23.495 113.778 23.854 113.733 24.215 113.68 24.591 113.621 24.979L97.646 24.979C98.366 27.62 100.33 28.94 103.541 28.94 104.981 28.94 106.256 28.715 107.366 28.264 108.475 27.815 109.405 27.365 110.156 26.915L112.856 32zM125.68 21.695L125.68 34.34 117.851 34.34 117.851 11.434 125.006 11.434 125.41 14.45C126.16 13.37 127.135 12.5 128.336 11.84 129.535 11.181 130.856 10.849 132.296 10.849 134.785 10.849 136.78 11.66 138.28 13.28 139.78 14.9 140.53 17.225 140.53 20.255L140.53 34.34 132.7 34.34 132.7 21.155C132.7 19.805 132.4 18.807 131.8 18.162 131.2 17.518 130.361 17.195 129.28 17.195 128.2 17.195 127.33 17.54 126.671 18.229 126.01 18.921 125.68 20.075 125.68 21.695M156.46 16.519C153.91 16.519 152.38 17.87 151.87 20.57L160.6 20.57C160.39 19.1 159.887 18.057 159.092 17.442 158.297 16.828 157.42 16.519 156.46 16.519zM167.17 32C166.029 32.809 164.582 33.5 162.827 34.07 161.072 34.639 159.205 34.925 157.225 34.925 154.495 34.925 152.162 34.422 150.227 33.417 148.293 32.413 146.807 31.01 145.773 29.21 144.737 27.41 144.22 25.34 144.22 23 144.22 20.631 144.73 18.53 145.75 16.7 146.769 14.87 148.18 13.437 149.98 12.402 151.78 11.367 153.88 10.849 156.28 10.849 158.62 10.849 160.682 11.352 162.467 12.357 164.252 13.363 165.647 14.758 166.653 16.542 167.657 18.328 168.16 20.42 168.16 22.82 168.16 23.15 168.137 23.495 168.092 23.854 168.048 24.215 167.995 24.591 167.935 24.979L151.96 24.979C152.68 27.62 154.644 28.94 157.855 28.94 159.295 28.94 160.57 28.715 161.68 28.264 162.789 27.815 163.72 27.365 164.47 26.915L167.17 32z"/>
    <path fill="#009BFF" class='no-color-change' d="M191.695 17.825L196.195 17.825C197.484 17.825 198.504 17.487 199.255 16.812 200.004 16.138 200.38 15.215 200.38 14.045 200.38 12.935 200.004 12.042 199.255 11.367 198.504 10.692 197.484 10.354 196.195 10.354L191.695 10.354 191.695 17.825zM191.695 24.17L191.695 34.34 183.594 34.34 183.594 3.74 197.094 3.74C200.695 3.74 203.544 4.662 205.645 6.508 207.744 8.352 208.795 10.865 208.795 14.045 208.795 16.115 208.329 17.9 207.4 19.4 206.469 20.9 205.164 22.07 203.485 22.91L209.739 34.34 200.83 34.34 195.744 24.17 191.695 24.17zM224.005 16.519C221.454 16.519 219.924 17.87 219.415 20.57L228.145 20.57C227.934 19.1 227.432 18.057 226.637 17.442 225.842 16.828 224.965 16.519 224.005 16.519zM234.715 32C233.574 32.809 232.127 33.5 230.372 34.07 228.617 34.639 226.75 34.925 224.77 34.925 222.039 34.925 219.707 34.422 217.772 33.417 215.837 32.413 214.352 31.01 213.317 29.21 212.282 27.41 211.765 25.34 211.765 23 211.765 20.631 212.275 18.53 213.295 16.7 214.314 14.87 215.725 13.437 217.525 12.402 219.324 11.367 221.424 10.849 223.824 10.849 226.165 10.849 228.227 11.352 230.012 12.357 231.797 13.363 233.192 14.758 234.197 16.542 235.202 18.328 235.705 20.42 235.705 22.82 235.705 23.15 235.682 23.495 235.637 23.854 235.592 24.215 235.539 24.591 235.48 24.979L219.505 24.979C220.225 27.62 222.189 28.94 225.4 28.94 226.84 28.94 228.114 28.715 229.225 28.264 230.334 27.815 231.264 27.365 232.015 26.915L234.715 32zM251.904 28.715C253.284 28.715 254.386 28.182 255.212 27.117 256.036 26.053 256.449 24.636 256.449 22.865 256.449 21.095 256.036 19.678 255.212 18.612 254.386 17.548 253.284 17.015 251.904 17.015 250.554 17.015 249.466 17.548 248.642 18.612 247.817 19.678 247.404 21.095 247.404 22.865 247.404 24.636 247.817 26.053 248.642 27.117 249.466 28.182 250.554 28.715 251.904 28.715zM254.019 34.925C252.67 34.925 251.439 34.639 250.329 34.07 249.219 33.5 248.289 32.72 247.539 31.729L247.539 42.665 239.71 42.665 239.71 11.434 246.864 11.434 247.269 14.45C247.989 13.37 248.957 12.5 250.172 11.84 251.387 11.181 252.789 10.849 254.38 10.849 256.329 10.849 258.054 11.36 259.554 12.38 261.054 13.4 262.239 14.809 263.109 16.61 263.979 18.41 264.415 20.495 264.415 22.865 264.415 25.235 263.971 27.328 263.087 29.142 262.202 30.958 260.972 32.375 259.397 33.394 257.821 34.414 256.029 34.925 254.019 34.925zM279.625 28.715C281.004 28.715 282.106 28.182 282.932 27.117 283.757 26.053 284.17 24.636 284.17 22.865 284.17 21.095 283.757 19.685 282.932 18.635 282.106 17.585 281.004 17.059 279.625 17.059 278.244 17.059 277.141 17.585 276.317 18.635 275.492 19.685 275.08 21.095 275.08 22.865 275.08 24.636 275.492 26.053 276.317 27.117 277.141 28.182 278.244 28.715 279.625 28.715zM279.625 34.925C277.164 34.925 274.997 34.407 273.122 33.372 271.247 32.338 269.776 30.92 268.712 29.12 267.647 27.32 267.115 25.235 267.115 22.865 267.115 20.495 267.647 18.41 268.712 16.61 269.776 14.809 271.247 13.4 273.122 12.38 274.997 11.36 277.164 10.849 279.625 10.849 282.084 10.849 284.252 11.36 286.127 12.38 288.002 13.4 289.471 14.809 290.537 16.61 291.601 18.41 292.134 20.495 292.134 22.865 292.134 25.235 291.601 27.32 290.537 29.12 289.471 30.92 288.002 32.338 286.127 33.372 284.252 34.407 282.084 34.925 279.625 34.925zM304.059 25.474L304.059 34.34 296.229 34.34 296.229 11.434 303.384 11.434 303.88 15.26C304.359 14.03 305.146 13.032 306.242 12.268 307.337 11.503 308.604 11.12 310.045 11.12 310.854 11.12 311.469 11.225 311.889 11.434L311.889 18.59C311.559 18.471 311.192 18.381 310.787 18.32 310.382 18.26 309.924 18.229 309.415 18.229 307.854 18.229 306.572 18.807 305.567 19.963 304.561 21.118 304.059 22.955 304.059 25.474M332.994 32.854C332.063 33.485 330.998 33.987 329.799 34.362 328.598 34.737 327.339 34.925 326.018 34.925 323.558 34.925 321.601 34.213 320.146 32.787 318.691 31.363 317.964 29.45 317.964 27.05L317.964 17.285 314.228 17.285 314.228 11.434 318.324 11.434 319.313 5.045 325.794 5.045 325.794 11.434 331.779 11.434 331.779 17.285 325.794 17.285 325.794 26.059C325.794 26.841 326.026 27.448 326.491 27.883 326.956 28.317 327.578 28.535 328.359 28.535 328.748 28.535 329.146 28.46 329.551 28.309 329.956 28.16 330.339 27.98 330.699 27.769L332.994 32.854M346.898 16.519C344.348 16.519 342.818 17.87 342.308 20.57L351.039 20.57C350.828 19.1 350.326 18.057 349.531 17.442 348.736 16.828 347.858 16.519 346.898 16.519zM357.608 32C356.467 32.809 355.021 33.5 353.266 34.07 351.51 34.639 349.643 34.925 347.664 34.925 344.933 34.925 342.601 34.422 340.666 33.417 338.731 32.413 337.246 31.01 336.211 29.21 335.175 27.41 334.659 25.34 334.659 23 334.659 20.631 335.169 18.53 336.188 16.7 337.208 14.87 338.619 13.437 340.419 12.402 342.218 11.367 344.318 10.849 346.718 10.849 349.058 10.849 351.121 11.352 352.906 12.357 354.69 13.363 356.086 14.758 357.091 16.542 358.095 18.328 358.598 20.42 358.598 22.82 358.598 23.15 358.576 23.495 358.531 23.854 358.486 24.215 358.433 24.591 358.374 24.979L342.398 24.979C343.119 27.62 345.083 28.94 348.294 28.94 349.733 28.94 351.008 28.715 352.119 28.264 353.228 27.815 354.158 27.365 354.909 26.915L357.608 32zM370.433 25.474L370.433 34.34 362.603 34.34 362.603 11.434 369.758 11.434 370.254 15.26C370.733 14.03 371.52 13.032 372.616 12.268 373.711 11.503 374.978 11.12 376.419 11.12 377.228 11.12 377.842 11.225 378.263 11.434L378.263 18.59C377.932 18.471 377.566 18.381 377.161 18.32 376.756 18.26 376.298 18.229 375.788 18.229 374.228 18.229 372.945 18.807 371.941 19.963 370.935 21.118 370.433 22.955 370.433 25.474"/>
    <polyline fill="#009BFF" class='no-color-change' points="413.182 34.34 401.168 16.7 401.168 34.34 393.472 34.34 393.472 3.74 401.123 3.74 413.092 21.695 413.092 3.74 420.833 3.74 420.833 34.34 413.182 34.34"/>
    <path fill="#009BFF" class='no-color-change' d="M437.798,16.519 C435.247,16.519 433.716,17.87 433.207,20.57 L441.937,20.57 C441.727,19.1 441.224,18.057 440.429,17.442 C439.634,16.828 438.757,16.519 437.798,16.519 Z M448.507,32 C447.367,32.809 445.92,33.5 444.165,34.07 C442.41,34.639 440.542,34.925 438.562,34.925 C435.832,34.925 433.5,34.422 431.564,33.417 C429.63,32.413 428.144,31.01 427.11,29.21 C426.075,27.41 425.557,25.34 425.557,23 C425.557,20.631 426.067,18.53 427.087,16.7 C428.106,14.87 429.517,13.437 431.317,12.402 C433.117,11.367 435.216,10.849 437.617,10.849 C439.957,10.849 442.019,11.352 443.804,12.357 C445.589,13.363 446.984,14.758 447.99,16.542 C448.994,18.328 449.497,20.42 449.497,22.82 C449.497,23.15 449.474,23.495 449.429,23.854 C449.384,24.215 449.332,24.591 449.272,24.979 L433.298,24.979 C434.017,27.62 435.981,28.94 439.192,28.94 C440.633,28.94 441.907,28.715 443.017,28.264 C444.127,27.815 445.056,27.365 445.807,26.915 L448.507,32 Z"/>
    <polyline fill="#009BFF" class='no-color-change' points="472.806 34.34 469.117 20.434 465.471 34.34 457.372 34.34 451.431 11.434 459.442 11.434 461.827 26.195 465.697 11.434 472.582 11.434 476.587 26.24 479.016 11.434 486.846 11.434 480.907 34.34 472.806 34.34"/>
    <path fill="#009BFF" class='no-color-change' d="M498.771,34.925 C496.792,34.925 494.939,34.61 493.214,33.979 C491.488,33.35 489.936,32.45 488.556,31.28 L491.886,26.87 C492.936,27.71 494.069,28.392 495.284,28.917 C496.499,29.442 497.691,29.705 498.861,29.705 C499.641,29.705 500.263,29.57 500.729,29.3 C501.194,29.03 501.426,28.625 501.426,28.085 C501.426,27.516 501.164,27.057 500.639,26.713 C500.114,26.368 499.176,26.03 497.827,25.7 L495.667,25.16 C491.376,24.02 489.231,21.725 489.231,18.275 C489.231,16.745 489.651,15.425 490.492,14.315 C491.331,13.205 492.486,12.35 493.957,11.75 C495.425,11.15 497.136,10.849 499.087,10.849 C501.006,10.849 502.814,11.15 504.508,11.75 C506.204,12.35 507.756,13.22 509.167,14.36 L505.747,18.86 C504.696,18.02 503.587,17.346 502.417,16.835 C501.247,16.325 500.151,16.07 499.132,16.07 C497.481,16.07 496.656,16.61 496.656,17.69 C496.656,18.17 496.904,18.56 497.399,18.86 C497.894,19.16 498.591,19.431 499.492,19.67 L502.417,20.479 C504.606,21.08 506.226,21.98 507.276,23.18 C508.326,24.38 508.851,25.806 508.851,27.455 C508.851,28.955 508.431,30.268 507.591,31.393 C506.752,32.518 505.574,33.388 504.059,34.003 C502.544,34.617 500.781,34.925 498.771,34.925"/>
    <path fill="#404040" d="M1.292 44.31L2.551 44.31C2.965 44.31 3.292 44.208 3.533 44.004 3.774 43.8 3.894 43.522 3.894 43.171 3.894 42.818 3.774 42.541 3.533 42.337 3.292 42.133 2.965 42.031 2.551 42.031L1.292 42.031 1.292 44.31zM.357 47.541L.357 41.244 2.551 41.244C3.255 41.244 3.814 41.418 4.227 41.764 4.641 42.109 4.847 42.578 4.847 43.171 4.847 43.757 4.641 44.222 4.227 44.563 3.814 44.906 3.255 45.078 2.551 45.078L1.292 45.078 1.292 47.541.357 47.541zM6.736 45.171L9.033 45.171 7.885 42.217 6.736 45.171zM9.949 47.541L9.338 45.957 6.431 45.957 5.82 47.541 4.876 47.541 7.394 41.244 8.403 41.244 10.912 47.541 9.949 47.541zM12.894 44.217L14.18 44.217C14.582 44.217 14.901 44.118 15.139 43.921 15.377 43.723 15.495 43.457 15.495 43.124 15.495 42.791 15.377 42.525 15.139 42.328 14.901 42.131 14.582 42.031 14.18 42.031L12.894 42.031 12.894 44.217zM12.894 44.985L12.894 47.541 11.959 47.541 11.959 41.244 14.18 41.244C14.878 41.244 15.43 41.413 15.838 41.749 16.245 42.086 16.449 42.544 16.449 43.124 16.449 43.562 16.325 43.933 16.079 44.235 15.832 44.538 15.492 44.751 15.06 44.874L16.588 47.541 15.523 47.541 14.088 44.985 12.894 44.985z"/>
    <polyline fill="#404040" points="19.134 47.541 19.134 42.031 17.014 42.031 17.014 41.244 22.19 41.244 22.19 42.031 20.07 42.031 20.07 47.541 19.134 47.541"/>
    <path fill="#404040" d="M28.198,46.828 C28.606,46.828 28.968,46.725 29.286,46.518 C29.604,46.311 29.853,46.025 30.031,45.661 C30.211,45.297 30.3,44.874 30.3,44.393 C30.3,43.911 30.211,43.488 30.031,43.124 C29.853,42.761 29.604,42.475 29.286,42.268 C28.968,42.06 28.606,41.958 28.198,41.958 C27.791,41.958 27.43,42.06 27.115,42.268 C26.801,42.475 26.553,42.761 26.374,43.124 C26.196,43.488 26.106,43.911 26.106,44.393 C26.106,44.874 26.196,45.297 26.374,45.661 C26.553,46.025 26.801,46.311 27.115,46.518 C27.43,46.725 27.791,46.828 28.198,46.828 Z M28.198,47.643 C27.606,47.643 27.081,47.504 26.625,47.226 C26.168,46.948 25.808,46.565 25.546,46.078 C25.283,45.59 25.152,45.028 25.152,44.393 C25.152,43.757 25.283,43.195 25.546,42.708 C25.808,42.22 26.168,41.838 26.625,41.56 C27.081,41.281 27.606,41.143 28.198,41.143 C28.791,41.143 29.317,41.281 29.777,41.56 C30.237,41.838 30.598,42.22 30.861,42.708 C31.123,43.195 31.254,43.757 31.254,44.393 C31.254,45.028 31.123,45.59 30.861,46.078 C30.598,46.565 30.237,46.948 29.777,47.226 C29.317,47.504 28.791,47.643 28.198,47.643 Z"/>
    <polyline fill="#404040" points="33.504 47.541 32.569 47.541 32.569 41.244 36.486 41.244 36.486 42.031 33.504 42.031 33.504 44.161 36.032 44.161 36.032 44.948 33.504 44.948 33.504 47.541"/>
    <polyline fill="#404040" points="41.365 47.541 41.365 42.031 39.245 42.031 39.245 41.244 44.42 41.244 44.42 42.031 42.3 42.031 42.3 47.541 41.365 47.541"/>
    <polyline fill="#404040" points="45.494 47.541 45.494 41.244 46.429 41.244 46.429 43.939 49.679 43.939 49.679 41.244 50.614 41.244 50.614 47.541 49.679 47.541 49.679 44.744 46.429 44.744 46.429 47.541 45.494 47.541"/>
    <polyline fill="#404040" points="52.262 47.541 52.262 41.244 56.3 41.244 56.3 42.031 53.197 42.031 53.197 43.977 55.929 43.977 55.929 44.763 53.197 44.763 53.197 46.754 56.374 46.754 56.374 47.541 52.262 47.541"/>
    <path fill="#404040" d="M62.281 46.828C62.793 46.828 63.196 46.674 63.489 46.365 63.782 46.056 63.929 45.639 63.929 45.115L63.929 41.244 64.864 41.244 64.864 45.124C64.864 45.908 64.634 46.524 64.174 46.971 63.714 47.419 63.083 47.643 62.281 47.643 61.478 47.643 60.849 47.419 60.392 46.971 59.935 46.524 59.707 45.908 59.707 45.124L59.707 41.244 60.642 41.244 60.642 45.115C60.642 45.639 60.788 46.056 61.082 46.365 61.375 46.674 61.775 46.828 62.281 46.828M68.355 47.643C67.879 47.643 67.425 47.56 66.994 47.393 66.562 47.226 66.213 47.004 65.948 46.727L66.475 46.105C66.722 46.334 67.014 46.513 67.35 46.643 67.686 46.772 68.021 46.837 68.355 46.837 68.762 46.837 69.091 46.759 69.341 46.602 69.591 46.443 69.716 46.226 69.716 45.948 69.716 45.695 69.626 45.482 69.447 45.31 69.268 45.137 68.963 44.991 68.53 44.874L67.66 44.643C67.098 44.494 66.69 44.285 66.434 44.013 66.177 43.741 66.049 43.387 66.049 42.948 66.049 42.591 66.145 42.275 66.336 42.004 66.528 41.732 66.791 41.52 67.128 41.37 67.464 41.219 67.845 41.143 68.272 41.143 68.722 41.143 69.145 41.227 69.54 41.397 69.935 41.567 70.284 41.804 70.586 42.105L70.021 42.717C69.756 42.471 69.48 42.28 69.193 42.147 68.906 42.014 68.601 41.948 68.281 41.948 67.892 41.948 67.574 42.03 67.327 42.193 67.08 42.357 66.957 42.584 66.957 42.874 66.957 43.139 67.045 43.347 67.22 43.494 67.396 43.643 67.667 43.767 68.03 43.865L69.003 44.134C69.565 44.288 69.975 44.504 70.234 44.781 70.493 45.06 70.623 45.405 70.623 45.818 70.623 46.184 70.528 46.502 70.336 46.777 70.145 47.052 69.879 47.264 69.54 47.416 69.2 47.566 68.805 47.643 68.355 47.643M72.975 45.171L75.271 45.171 74.123 42.217 72.975 45.171zM76.188 47.541L75.576 45.957 72.669 45.957 72.058 47.541 71.114 47.541 73.633 41.244 74.641 41.244 77.151 47.541 76.188 47.541z"/>
    <polyline fill="#404040" points="81.502 47.541 81.502 42.031 79.382 42.031 79.382 41.244 84.558 41.244 84.558 42.031 82.438 42.031 82.438 47.541 81.502 47.541"/>
    <path fill="#404040" d="M87.928 46.828C88.336 46.828 88.698 46.725 89.016 46.518 89.334 46.311 89.583 46.025 89.761 45.661 89.941 45.297 90.03 44.874 90.03 44.393 90.03 43.911 89.941 43.488 89.761 43.124 89.583 42.761 89.334 42.475 89.016 42.268 88.698 42.06 88.336 41.958 87.928 41.958 87.521 41.958 87.16 42.06 86.845 42.268 86.53 42.475 86.283 42.761 86.104 43.124 85.925 43.488 85.836 43.911 85.836 44.393 85.836 44.874 85.925 45.297 86.104 45.661 86.283 46.025 86.53 46.311 86.845 46.518 87.16 46.725 87.521 46.828 87.928 46.828zM87.928 47.643C87.336 47.643 86.811 47.504 86.354 47.226 85.897 46.948 85.538 46.565 85.276 46.078 85.013 45.59 84.882 45.028 84.882 44.393 84.882 43.757 85.013 43.195 85.276 42.708 85.538 42.22 85.897 41.838 86.354 41.56 86.811 41.281 87.336 41.143 87.928 41.143 88.521 41.143 89.047 41.281 89.507 41.56 89.966 41.838 90.328 42.22 90.59 42.708 90.852 43.195 90.984 43.757 90.984 44.393 90.984 45.028 90.852 45.59 90.59 46.078 90.328 46.565 89.966 46.948 89.507 47.226 89.047 47.504 88.521 47.643 87.928 47.643zM93.234 46.754L94.511 46.754C94.956 46.754 95.337 46.656 95.654 46.462 95.972 46.268 96.216 45.994 96.386 45.643 96.556 45.291 96.641 44.874 96.641 44.393 96.641 43.911 96.556 43.494 96.386 43.143 96.216 42.791 95.972 42.518 95.654 42.323 95.337 42.129 94.956 42.031 94.511 42.031L93.234 42.031 93.234 46.754zM92.299 47.541L92.299 41.244 94.511 41.244C95.128 41.244 95.669 41.376 96.132 41.639 96.594 41.9 96.954 42.268 97.21 42.74 97.466 43.213 97.594 43.763 97.594 44.393 97.594 45.022 97.466 45.573 97.21 46.045 96.954 46.518 96.594 46.885 96.132 47.147 95.669 47.41 95.128 47.541 94.511 47.541L92.299 47.541zM99.984 45.171L102.279 45.171 101.132 42.217 99.984 45.171zM103.196 47.541L102.585 45.957 99.678 45.957 99.067 47.541 98.122 47.541 100.641 41.244 101.65 41.244 104.159 47.541 103.196 47.541z"/>
    <polyline fill="#404040" points="107.029 45.041 107.029 47.541 106.094 47.541 106.094 45.041 103.882 41.244 104.983 41.244 106.566 44.152 108.15 41.244 109.233 41.244 107.029 45.041"/>
    <polyline fill="#404040" points="116.715 47.541 113.353 42.717 113.353 47.541 112.474 47.541 112.474 41.244 113.344 41.244 116.715 46.068 116.715 41.244 117.585 41.244 117.585 47.541 116.715 47.541"/>
    <polyline fill="#404040" points="119.233 47.541 119.233 41.244 123.27 41.244 123.27 42.031 120.168 42.031 120.168 43.977 122.9 43.977 122.9 44.763 120.168 44.763 120.168 46.754 123.344 46.754 123.344 47.541 119.233 47.541"/>
    <polyline fill="#404040" points="126.121 47.541 126.121 42.031 124.001 42.031 124.001 41.244 129.177 41.244 129.177 42.031 127.057 42.031 127.057 47.541 126.121 47.541"/>
    <polyline fill="#404040" points="135.288 47.541 133.816 42.522 132.343 47.541 131.371 47.541 129.695 41.244 130.621 41.244 131.899 46.226 133.371 41.244 134.26 41.244 135.741 46.244 137.029 41.244 137.936 41.244 136.26 47.541 135.288 47.541"/>
    <path fill="#404040" d="M141.649 46.828C142.056 46.828 142.419 46.725 142.737 46.518 143.055 46.311 143.303 46.025 143.482 45.661 143.661 45.297 143.751 44.874 143.751 44.393 143.751 43.911 143.661 43.488 143.482 43.124 143.303 42.761 143.055 42.475 142.737 42.268 142.419 42.06 142.056 41.958 141.649 41.958 141.241 41.958 140.881 42.06 140.566 42.268 140.251 42.475 140.004 42.761 139.825 43.124 139.646 43.488 139.556 43.911 139.556 44.393 139.556 44.874 139.646 45.297 139.825 45.661 140.004 46.025 140.251 46.311 140.566 46.518 140.881 46.725 141.241 46.828 141.649 46.828zM141.649 47.643C141.056 47.643 140.531 47.504 140.075 47.226 139.618 46.948 139.258 46.565 138.996 46.078 138.734 45.59 138.603 45.028 138.603 44.393 138.603 43.757 138.734 43.195 138.996 42.708 139.258 42.22 139.618 41.838 140.075 41.56 140.531 41.281 141.056 41.143 141.649 41.143 142.241 41.143 142.768 41.281 143.228 41.56 143.687 41.838 144.048 42.22 144.311 42.708 144.573 43.195 144.704 43.757 144.704 44.393 144.704 45.028 144.573 45.59 144.311 46.078 144.048 46.565 143.687 46.948 143.228 47.226 142.768 47.504 142.241 47.643 141.649 47.643zM146.954 44.217L148.241 44.217C148.642 44.217 148.962 44.118 149.199 43.921 149.437 43.723 149.556 43.457 149.556 43.124 149.556 42.791 149.437 42.525 149.199 42.328 148.962 42.131 148.642 42.031 148.241 42.031L146.954 42.031 146.954 44.217zM146.954 44.985L146.954 47.541 146.019 47.541 146.019 41.244 148.241 41.244C148.939 41.244 149.491 41.413 149.899 41.749 150.306 42.086 150.509 42.544 150.509 43.124 150.509 43.562 150.386 43.933 150.139 44.235 149.892 44.538 149.553 44.751 149.121 44.874L150.649 47.541 149.584 47.541 148.149 44.985 146.954 44.985z"/>
    <polyline fill="#404040" points="155.593 47.541 152.769 44.365 152.769 47.541 151.834 47.541 151.834 41.244 152.769 41.244 152.769 44.004 155.407 41.244 156.565 41.244 153.759 44.134 156.769 47.541 155.593 47.541"/>
    <path fill="#009BFF" class='no-color-change' d="M68.487,9.635 C67.196,9.635 66.094,9.178 65.179,8.263 C64.263,7.348 63.806,6.245 63.806,4.955 C63.806,3.665 64.263,2.562 65.179,1.647 C66.094,0.732 67.196,0.275 68.487,0.275 C69.776,0.275 70.879,0.732 71.794,1.647 C72.709,2.562 73.167,3.665 73.167,4.955 C73.167,6.245 72.709,7.348 71.794,8.263 C70.879,9.178 69.776,9.635 68.487,9.635"/>
  </g>
</svg>
