<svg xmlns="http://www.w3.org/2000/svg" xmlns:xlink="http://www.w3.org/1999/xlink" width="720" height="174" viewBox="0 0 720 174">
  <defs>
    <style>
      .cls-1 {
        filter: url(#filter);
      }

      .cls-2 {
        fill: #999;
      }

      .cls-2, .cls-3 {
        fill-rule: evenodd;
      }

      .cls-3 {
        fill: #fff;
      }
    </style>
    <filter id="filter" filterUnits="userSpaceOnUse">
      <feFlood result="flood" flood-color="#333"/>
      <feComposite result="composite" operator="in" in2="SourceGraphic"/>
      <feBlend result="blend" in2="SourceGraphic"/>
    </filter>
  </defs>
  <g class="cls-1">
    <g id="alamogordonews">
      <path id="USAT_Network" data-name="USAT Network" class="cls-2" d="M123.843,153.762h5.771c4.058,0,6.773,2.4,6.773,6.1s-2.771,6.095-6.773,6.095h-2.943v7.623h-2.828V153.762Zm5.486,9.856c2.715,0,4.171-1.5,4.171-3.756,0-2.233-1.456-3.755-4.171-3.755h-2.658v7.511h2.658Zm15.13-9.856h2.515L155.2,173.58h-3.031l-2.054-5.192h-8.886l-2.057,5.192H136.2S143.457,156.193,144.459,153.762Zm4.713,12.281-1.914-4.881c-0.284-.736-1.515-3.787-1.543-4.041h-0.057c-0.028.254-1.227,3.218-1.543,4.041l-1.941,4.881h7Zm8.9-12.281h5.8c3.741,0,6.657,1.924,6.657,5.872,0,3.081-2.058,5.11-5.085,5.593l6.144,8.353h-3.317l-5.8-8.075H160.9v8.075h-2.829V153.762Zm5.487,9.46c2.627,0,4.114-1.386,4.114-3.557s-1.487-3.558-4.114-3.558H160.9v7.115h2.658Zm14.814-7.06h-5.715v-2.4h14.257v2.4H181.2V173.58h-2.827V156.162Zm15.875,7.512a10.545,10.545,0,1,1,10.543,10.3A10.112,10.112,0,0,1,194.249,163.674Zm18.171,0a7.645,7.645,0,1,0-7.656,7.79A7.425,7.425,0,0,0,212.42,163.674Zm6.985-9.912H229.52v2.4h-7.287v6.38h7.058v2.4h-7.058v8.638h-2.828V153.762Zm22.905,2.4H236.6v-2.4h14.256v2.4h-5.714V173.58H242.31V156.162Zm11.511-2.4h2.827v8.13h10.515v-8.13h2.831V173.58h-2.831v-9.288H256.648v9.288h-2.827V153.762Zm21.383,0h10.915v2.376h-8.087v5.754h7.856v2.376h-7.856v6.942h8.257v2.37H275.2V153.762Zm20.566,12.987V153.762h2.856V165.9c0,3.447,1.487,5.563,4.829,5.563,3.371,0,4.859-2.116,4.859-5.563V153.762h2.856v12.987c0,4.35-2.828,7.227-7.715,7.227C298.541,173.976,295.77,171.1,295.77,166.749ZM314.122,170l1.917-1.609a5.812,5.812,0,0,0,5.028,3.131c2.2,0,3.914-1.182,3.914-3.359,0-2.34-1.972-3.131-4.43-4.09-2.514-.99-5.057-2.234-5.057-5.4,0-3.13,2.458-5.3,6.059-5.3a6.745,6.745,0,0,1,5.887,2.989l-1.917,1.608a4.567,4.567,0,0,0-3.97-2.147c-1.945,0-3.229.99-3.229,2.655,0,2.06,2,2.741,3.742,3.415,2.828,1.1,5.743,2.431,5.743,6.069,0,3.447-2.571,6.015-6.685,6.015A7.8,7.8,0,0,1,314.122,170Zm23.454-16.235h2.513l8.229,19.818h-3.03l-2.054-5.192h-8.887l-2.058,5.192h-2.971S336.573,156.193,337.576,153.762Zm4.712,12.281-1.913-4.881c-0.286-.736-1.516-3.787-1.544-4.041h-0.056c-0.028.254-1.228,3.218-1.544,4.041l-1.942,4.881h7Zm17.97-9.881h-5.714v-2.4H368.8v2.4h-5.714V173.58h-2.828V156.162Zm9.6,7.512a10.546,10.546,0,1,1,10.544,10.3A10.112,10.112,0,0,1,369.861,163.674Zm18.171,0a7.645,7.645,0,1,0-7.656,7.79A7.424,7.424,0,0,0,388.032,163.674Zm6.986-9.912H400.7c6.4,0,10.628,3.613,10.628,9.912,0,6.267-4.259,9.906-10.628,9.906h-5.686V153.762Zm2.827,17.417h2.63c4.685,0,7.941-2.45,7.941-7.5s-3.256-7.512-7.941-7.512h-2.63v15.017Zm22.677-17.417h2.514l8.229,19.818h-3.031l-2.054-5.192h-8.887l-2.057,5.192h-2.971S419.52,156.193,420.522,153.762Zm4.713,12.281-1.914-4.881c-0.285-.736-1.515-3.787-1.544-4.041h-0.056c-0.028.254-1.227,3.218-1.544,4.041l-1.941,4.881h7Zm11.679-.538-6.83-11.743h3.173l3.714,6.608a29.268,29.268,0,0,1,1.427,2.821h0.028a29.787,29.787,0,0,1,1.432-2.821l3.741-6.608h3.084l-6.825,11.743v8.075h-2.944v-8.075Zm18.08-11.743h2.17l11.372,12.845c0.342,0.371,1.829,2.2,1.973,2.487l0.056-.031c-0.056-.279-0.056-2.568-0.056-3.075V153.762h2.743V173.58h-2.2l-11.373-12.845c-0.341-.365-1.829-2.2-1.969-2.481l-0.028.024c0.028,0.285.055,2.575,0.055,3.081V173.58h-2.742V153.762Zm23.468,0h10.912v2.376H481.29v5.754h7.859v2.376H481.29v6.942h8.257v2.37H478.462V153.762Zm19.761,2.4h-5.714v-2.4h14.257v2.4h-5.715V173.58h-2.828V156.162Zm10.9-2.4h3l4.115,11.774c0.144,0.452,1.114,3.385,1.142,3.836h0.06a39.282,39.282,0,0,1,1.2-3.836l4.287-11.774h2.257l4.284,11.774c0.172,0.452,1.171,3.385,1.2,3.836h0.056c0.057-.451,1.027-3.384,1.171-3.836l4.086-11.774h2.884l-7.058,19.818h-2.17l-4.627-12.362a32.406,32.406,0,0,1-.974-3.218h-0.057a33.1,33.1,0,0,1-1,3.218l-4.6,12.362h-2.174Zm31.009,9.912a10.546,10.546,0,1,1,10.543,10.3A10.112,10.112,0,0,1,540.132,163.674Zm18.171,0a7.645,7.645,0,1,0-7.656,7.79A7.424,7.424,0,0,0,558.3,163.674Zm6.985-9.912h5.8c3.746,0,6.657,1.924,6.657,5.872,0,3.081-2.057,5.11-5.085,5.593l6.144,8.353h-3.316l-5.8-8.075h-1.572v8.075h-2.828V153.762Zm5.487,9.46c2.627,0,4.114-1.386,4.114-3.557s-1.487-3.558-4.114-3.558h-2.659v7.115h2.659Zm11.231-9.46h2.828v9.206l8.285-9.206h3.429l-8.6,9.46,9,10.358h-3.541l-8.573-10.018V173.58h-2.828V153.762Z"/>
      <path class="cls-3" d="M41.468,140.721c11.179,0,18.679-10.063,20.587-22.194,0.736-4.436,1.913-11.39,1.913-27.814,0-15.234-.883-23.669-1.766-28.105C59.994,51.36,52.5,40.562,41.615,40.562H32.5c-2.208,0-2.5,1.629-2.5,2.956V137.76c0,1.332.294,2.961,2.5,2.961h8.966M42.645,39.377C67.788,39.229,84.7,61.571,84.7,90.713s-17.06,51.341-42.056,51.193l-21.911-.148c-6.17,0-14.258.148-20.434,0.148v-1.037l8.377-.148c2.208,0,2.5-1.629,2.5-2.961V43.518c0-1.327-.294-2.956-2.5-2.956L0.3,40.414V39.377c6.175,0,14.264.148,20.434,0.148Zm68.229,22.046-14.411,44.53h27.2l-12.787-44.53M153.366,138.2c0.441,1.629,2.5,2.517,4.409,2.517l6.029,0.148v1.037c-5.44,0-13.676-.148-19.115-0.148-6.323,0-16.172.148-22.494,0.148v-1.037l9.849-.148c1.618,0,2.06-1.184,1.618-2.517l-9.56-31.067H96.022l-8.383,26.779c-1.325,3.992.147,6.805,3.232,6.805l9.413,0.148v1.037c-4.41,0-9.413-.148-13.823-0.148-3.673,0-7.206.148-10.879,0.148v-1.037l3.673-.148c2.943,0,5.587-2.221,6.764-6.657L116.9,38.933h6.028Zm38.377-.444c0,1.332.294,2.961,2.5,2.961l8.671,0.148v1.037c-5.881,0-14.558-.148-20.439-0.148-6.176,0-14.264.148-20.44,0.148v-1.037l8.383-.148c2.208,0,2.5-1.629,2.5-2.961V43.518c0-1.327-.294-2.956-2.5-2.956l-8.383-.148V39.377c6.176,0,14.264.148,20.44,0.148,5.881,0,14.558-.148,20.439-0.148v1.037l-8.671.148c-2.208,0-2.5,1.629-2.5,2.956V137.76m57.927,2.961c7.941,0,13.969-8.434,17.649-14.351a94.612,94.612,0,0,0,8.235-17.9h1.025l-2.055,33.436-49.114-.148c-6.176,0-14.258.148-20.434,0.148v-1.037l8.378-.148c2.207,0,2.5-1.629,2.5-2.961V43.518c0-1.327-.294-2.956-2.5-2.956l-8.378-.148V39.377c6.176,0,14.258.148,20.434,0.148,5.887,0,14.264-.148,20.145-0.148v1.037l-8.377.148c-2.208,0-2.5,1.629-2.5,2.956V137.76c0,1.332.294,2.961,2.5,2.961H249.67M298.2,95.89L272.611,43.227c-0.736-1.481-1.325-2.665-3.232-2.665l-6.028-.148V39.377c5.439,0,14.111.148,19.55,0.148,6.329,0,14.559-.148,20.881-0.148v1.037l-9.407.148a1.641,1.641,0,0,0-1.619,2.517L316.28,91.453l21.47-44.086c2.207-3.85,1.619-6.806-1.766-6.806l-7.206-.148V39.377c4.415,0,8.824.148,13.234,0.148,3.679,0,4.709-.148,8.383-0.148v1.037l-2.644.148c-3.973.148-6.033,2.369-8.088,6.213L317.016,92.342V137.76c0,1.332.294,2.961,2.5,2.961l9.119,0.148V141.9c-5.887,0-15-.142-20.881-0.142-6.176,0-14.706.142-20.881,0.142v-1.031l8.819-.148c2.207,0,2.5-1.629,2.5-2.961V95.89m152.052,47.821h-5.666l-54.9-94.572v85.414c0,4.05,1.783,6.607,5.519,6.755l5.071,0.154v1.047c-3.135,0-7.907-.148-11.637-0.148-4.03,0-8.355.148-11.343,0.148v-1.047l5.524-.154c3.724-.148,5.519-2.552,5.519-6.755V42.681c0-1.35-.3-3-2.536-3l-8.507-.148V38.478c6.271,0,8.807.154,15.073,0.154,5.072,0,9.249-.154,12.979-0.154l43.567,73.256v-65.3c0-4.049-1.794-6.606-5.519-6.754l-5.971-.148V38.478c3.136,0,8.8.154,12.532,0.154,4.03,0,8.36-.154,11.337-0.154v1.054l-5.519.148c-3.73.148-5.518,2.551-5.518,6.754v97.278m61.47-2.4c7.608,0,14.026-7.056,17.751-13.059s8.355-16.362,9.1-19.665h1.047l-2.089,33.925-53.563-.148c-6.266,0-14.473.148-20.739,0.148v-1.047l8.507-.154c2.236,0,2.536-1.652,2.536-3V42.681c0-1.35-.3-3-2.536-3l-8.507-.148V38.478c6.266,0,14.473.154,20.739,0.154l51.175-.154L536.188,67.6h-1.047c-0.895-3.155-4.025-9.756-7.008-15.166-3.289-6-9.4-12.757-13.879-12.757H495.9c-2.241,0-2.535,1.652-2.535,3V87.415c17.756,0,22.228-4.8,24.616-21.163h1.047v43.682h-1.194C515,91.02,507.988,88.617,493.368,88.617v49.69c0,1.349.294,3,2.535,3h15.815M607.055,39.679c-1.636,0-2.084,1.2-1.636,2.551l8.054,28.823,8.8-25.668c1.341-4.055.147-5.706-3.577-5.706H607.055m-37.6,0c-1.642,0-2.089,1.2-1.642,2.551l23.87,78.062,9.849-26.419L585.121,42.532c-0.594-1.652-1.336-2.853-3.277-2.853H569.459Zm52.663,102.83h-5.813L602.13,95.673l-17.456,46.836h-5.961L547.825,42.532c-0.6-1.652-1.341-2.853-3.283-2.853l-5.966-.148V38.478c5.519,0,21.334.154,49.234,0.154,11.19,0,42.52-.154,46.25-0.154v1.054l-3.878.148c-2.383.154-5.518,2.853-6.713,6.3L613.92,73.007,627.947,119.7l22.375-73.711c1.2-3.753-.6-6.3-4.472-6.3l-5.224-.148V38.478c4.477,0,6.418.154,10.9,0.154,3.724,0,6.86-.154,10.59-0.154v1.054l-3.583.148c-2.383,0-5.666,2.853-6.713,6.3Zm62.071,1.954c-12.985,0-23.122-5.109-26.558-5.109-1.642,0-2.236,1.652-2.836,3.155h-0.894V107.53h1.041c3.289,15.462,12.085,35.879,30.141,35.879,15.221,0,19.992-11.857,19.992-21.464,0-5.559-1.788-13.811-10.743-18.316-6.413-3-14.767-4.8-23.275-8.708-10.143-4.8-16.409-12.609-16.409-27.017,0-16.818,11.785-31.528,32.077-31.528,12.084,0,22.528,5.256,24.916,5.256,1.489,0,2.389-1.652,2.836-3.155h1.042V71.053h-1.189c-3.283-13.509-10.3-33.624-27.6-33.624-12.979,0-18.051,10.508-18.051,20.263,0,6.3,2.236,13.662,11.338,18.162,6.265,3.007,14.767,4.807,23.122,8.713,10.443,4.949,16.562,13.059,16.562,26.265,0,19.369-12.679,33.63-35.507,33.63"/>
      <path id="Alamogordo" class="cls-3" d="M-0.706,27.268H3.28l2.76-7.03h11.92l2.76,7.03h4.063L13.743,0.448H10.371C9.029,3.733-.706,27.268-0.706,27.268Zm8.01-10.2,2.606-6.61c0.422-1.108,2.031-5.12,2.07-5.463h0.077c0.038,0.344,1.686,4.47,2.07,5.463l2.568,6.61H7.3Zm19.733,10.2H39.532V24.02h-8.7V0.448H27.037v26.82Zm13.321,0h3.986l2.76-7.03h11.92l2.759,7.03h4.063L54.808,0.448H51.435C50.094,3.733,40.359,27.268,40.359,27.268Zm8.01-10.2,2.606-6.61c0.422-1.108,2.031-5.12,2.07-5.463h0.077c0.038,0.344,1.686,4.47,2.07,5.463l2.568,6.61h-9.39Zm19.569,10.2h3.718L73.61,12.024c0.077-.573.5-3.744,0.537-4.394h0.038c0.077,0.42,1.265,3.324,1.533,4.012l6.554,15.626h2.645l6.592-15.626C91.777,10.992,92.927,8.05,93,7.63h0.038c0.038,0.649.46,3.821,0.537,4.394l1.955,15.244h3.718L95.533,0.448h-3.3L84.955,17.793a33.412,33.412,0,0,0-1.3,3.782H83.614a33.412,33.412,0,0,0-1.3-3.782L75.028,0.448H71.656ZM116.263,27.8c8.661,0,14.142-6.419,14.142-13.945S124.924-.087,116.263-0.087,102.12,6.331,102.12,13.858,107.6,27.8,116.263,27.8Zm-0.039-3.4c-5.864,0-10.233-4.317-10.233-10.545S110.36,3.313,116.224,3.313c5.941,0,10.272,4.317,10.272,10.545S122.165,24.4,116.224,24.4Zm31.522,3.4c8.623,0,13.606-6.342,13.606-14.021V13.208H148.4v3.133h8.969c-0.537,4.355-4.025,8.1-9.62,8.1-5.979,0-10.31-4.241-10.31-10.583s4.331-10.583,10.31-10.583a9.848,9.848,0,0,1,8.968,4.967L159.7,6.026c-2.184-3.362-6.055-6.113-11.957-6.113-8.2,0-14.143,5.922-14.143,13.945C133.6,21.919,139.505,27.8,147.746,27.8Zm30.114,0C186.521,27.8,192,21.384,192,13.858S186.521-.087,177.86-0.087s-14.143,6.419-14.143,13.945S169.2,27.8,177.86,27.8Zm-0.039-3.4c-5.864,0-10.233-4.317-10.233-10.545s4.369-10.545,10.233-10.545c5.941,0,10.272,4.317,10.272,10.545S183.762,24.4,177.821,24.4Zm18.95,2.865h3.8V16.341h2.108l7.78,10.927H214.9l-8.24-11.309c4.062-.649,6.822-3.4,6.822-7.565,0-5.349-3.91-7.947-8.93-7.947h-7.781v26.82Zm3.8-14.021V3.619h3.564c3.526,0,5.519,1.872,5.519,4.814s-1.993,4.814-5.519,4.814h-3.564Zm18.106,14.021H226.3c8.547,0,14.258-4.928,14.258-13.41,0-8.52-5.672-13.41-14.258-13.41h-7.627v26.82Zm3.8-23.573h3.526c6.285,0,10.655,3.324,10.655,10.163s-4.37,10.163-10.655,10.163h-3.526V3.7ZM257.251,27.8c8.662,0,14.143-6.419,14.143-13.945S265.913-.087,257.251-0.087s-14.142,6.419-14.142,13.945S248.589,27.8,257.251,27.8Zm-0.038-3.4c-5.864,0-10.233-4.317-10.233-10.545s4.369-10.545,10.233-10.545c5.941,0,10.271,4.317,10.271,10.545S263.154,24.4,257.213,24.4Z"/>
    </g>
  </g>
</svg>
