<svg xmlns="http://www.w3.org/2000/svg" width="525" height="47" viewBox="0 0 525 47">
  <g fill="none" fill-rule="evenodd">
    <path fill="#009BFF" class='no-color-change' class='no-color-change' d="M12.687,22.83 L19.932,22.83 L16.332,12.12 L12.687,22.83 Z M23.982,34.755 L22.047,29.04 L10.572,29.04 L8.637,34.755 L0.357,34.755 L11.562,4.155 L21.282,4.155 L32.487,34.755 L23.982,34.755 Z"/>
    <polygon fill="#009BFF" class='no-color-change' class='no-color-change' points="35.862 34.755 43.692 34.755 43.692 1.905 35.862 1.905"/>
    <path fill="#009BFF" class='no-color-change' class='no-color-change' d="M55.346 27.33C55.346 28.02 55.601 28.583 56.111 29.018 56.621 29.453 57.281 29.67 58.091 29.67 59.171 29.67 60.078 29.303 60.813 28.567 61.548 27.833 61.916 26.91 61.916 25.8L61.916 25.035C61.106 24.885 60.251 24.81 59.351 24.81 58.21 24.81 57.259 25.006 56.494 25.395 55.729 25.785 55.346 26.43 55.346 27.33zM62.231 34.755L61.826 31.74C60.326 34.141 58.046 35.34 54.986 35.34 53.636 35.34 52.413 35.048 51.319 34.463 50.223 33.878 49.353 33.075 48.709 32.055 48.063 31.036 47.741 29.85 47.741 28.5 47.741 25.951 48.738 23.971 50.734 22.56 52.728 21.15 55.361 20.445 58.631 20.445 59.651 20.445 60.73 20.535 61.871 20.715 61.751 19.575 61.263 18.713 60.408 18.128 59.553 17.543 58.511 17.25 57.281 17.25 56.201 17.25 55.113 17.453 54.019 17.857 52.923 18.263 51.881 18.75 50.891 19.32L48.236 14.28C49.736 13.32 51.356 12.578 53.096 12.053 54.835 11.528 56.576 11.265 58.316 11.265 60.416 11.265 62.306 11.625 63.986 12.345 65.666 13.065 66.986 14.16 67.946 15.63 68.906 17.101 69.386 18.96 69.386 21.21L69.386 34.755 62.231 34.755zM82.211 21.57L82.211 34.755 74.381 34.755 74.381 11.85 81.581 11.85 81.986 14.775C82.676 13.665 83.576 12.825 84.686 12.255 85.795 11.686 86.981 11.4 88.241 11.4 89.591 11.4 90.821 11.7 91.931 12.3 93.041 12.9 93.94 13.74 94.631 14.82 95.441 13.711 96.499 12.862 97.804 12.277 99.108 11.692 100.481 11.4 101.921 11.4 103.511 11.4 104.914 11.768 106.128 12.503 107.344 13.238 108.295 14.258 108.986 15.562 109.676 16.868 110.021 18.375 110.021 20.085L110.021 34.755 102.191 34.755 102.191 20.895C102.191 19.936 101.928 19.17 101.404 18.6 100.878 18.03 100.211 17.745 99.401 17.745 98.411 17.745 97.616 18.06 97.016 18.69 96.416 19.32 96.116 20.28 96.116 21.57L96.116 34.755 88.286 34.755 88.286 20.895C88.286 19.936 88.031 19.17 87.521 18.6 87.011 18.03 86.321 17.745 85.451 17.745 84.491 17.745 83.711 18.06 83.111 18.69 82.511 19.32 82.211 20.28 82.211 21.57M126.221 29.13C127.6 29.13 128.703 28.598 129.528 27.533 130.353 26.468 130.766 25.051 130.766 23.28 130.766 21.51 130.353 20.101 129.528 19.05 128.703 18 127.6 17.475 126.221 17.475 124.841 17.475 123.738 18 122.913 19.05 122.088 20.101 121.676 21.51 121.676 23.28 121.676 25.051 122.088 26.468 122.913 27.533 123.738 28.598 124.841 29.13 126.221 29.13zM126.221 35.34C123.761 35.34 121.593 34.822 119.718 33.787 117.843 32.753 116.373 31.335 115.308 29.535 114.243 27.735 113.711 25.65 113.711 23.28 113.711 20.91 114.243 18.825 115.308 17.025 116.373 15.225 117.843 13.815 119.718 12.795 121.593 11.775 123.761 11.265 126.221 11.265 128.68 11.265 130.848 11.775 132.723 12.795 134.598 13.815 136.068 15.225 137.133 17.025 138.198 18.825 138.731 20.91 138.731 23.28 138.731 25.65 138.198 27.735 137.133 29.535 136.068 31.335 134.598 32.753 132.723 33.787 130.848 34.822 128.68 35.34 126.221 35.34zM153.851 27.87C155.171 27.87 156.236 27.397 157.046 26.453 157.856 25.508 158.261 24.24 158.261 22.65 158.261 21.061 157.856 19.793 157.046 18.848 156.236 17.902 155.171 17.43 153.851 17.43 152.501 17.43 151.421 17.902 150.611 18.848 149.801 19.793 149.396 21.061 149.396 22.65 149.396 24.21 149.801 25.471 150.611 26.43 151.421 27.391 152.501 27.87 153.851 27.87zM166.001 32.325C166.001 34.665 165.461 36.668 164.381 38.332 163.301 39.997 161.808 41.272 159.903 42.158 157.998 43.042 155.786 43.485 153.266 43.485 151.225 43.485 149.29 43.215 147.461 42.675 145.631 42.135 143.996 41.415 142.556 40.515L145.481 35.475C146.5 36.075 147.573 36.562 148.698 36.937 149.823 37.312 150.986 37.5 152.186 37.5 154.195 37.5 155.696 37.05 156.686 36.15 157.676 35.25 158.171 33.976 158.171 32.325L158.171 31.515C157.39 32.296 156.453 32.918 155.358 33.383 154.263 33.848 153.115 34.08 151.916 34.08 149.846 34.08 148.023 33.593 146.448 32.618 144.873 31.643 143.643 30.293 142.758 28.567 141.873 26.843 141.431 24.871 141.431 22.65 141.431 20.4 141.865 18.42 142.736 16.71 143.606 15 144.821 13.665 146.381 12.705 147.94 11.745 149.74 11.265 151.781 11.265 153.16 11.265 154.443 11.596 155.628 12.255 156.813 12.915 157.75 13.785 158.441 14.865L158.846 11.85 166.001 11.85 166.001 32.325zM182.606 29.13C183.985 29.13 185.088 28.598 185.913 27.533 186.738 26.468 187.151 25.051 187.151 23.28 187.151 21.51 186.738 20.101 185.913 19.05 185.088 18 183.985 17.475 182.606 17.475 181.225 17.475 180.123 18 179.298 19.05 178.473 20.101 178.061 21.51 178.061 23.28 178.061 25.051 178.473 26.468 179.298 27.533 180.123 28.598 181.225 29.13 182.606 29.13zM182.606 35.34C180.145 35.34 177.978 34.822 176.103 33.787 174.228 32.753 172.758 31.335 171.693 29.535 170.628 27.735 170.096 25.65 170.096 23.28 170.096 20.91 170.628 18.825 171.693 17.025 172.758 15.225 174.228 13.815 176.103 12.795 177.978 11.775 180.145 11.265 182.606 11.265 185.065 11.265 187.233 11.775 189.108 12.795 190.983 13.815 192.453 15.225 193.518 17.025 194.583 18.825 195.116 20.91 195.116 23.28 195.116 25.65 194.583 27.735 193.518 29.535 192.453 31.335 190.983 32.753 189.108 33.787 187.233 34.822 185.065 35.34 182.606 35.34zM207.04 25.89L207.04 34.755 199.211 34.755 199.211 11.85 206.365 11.85 206.86 15.675C207.34 14.445 208.128 13.447 209.223 12.683 210.318 11.918 211.586 11.535 213.025 11.535 213.836 11.535 214.45 11.641 214.87 11.85L214.87 19.005C214.54 18.886 214.173 18.796 213.768 18.735 213.363 18.675 212.905 18.645 212.395 18.645 210.835 18.645 209.553 19.223 208.548 20.378 207.543 21.533 207.04 23.37 207.04 25.89M229.765 29.13C231.115 29.13 232.202 28.598 233.028 27.533 233.852 26.468 234.265 25.051 234.265 23.28 234.265 21.51 233.852 20.093 233.028 19.027 232.202 17.963 231.115 17.43 229.765 17.43 228.385 17.43 227.282 17.963 226.458 19.027 225.632 20.093 225.22 21.51 225.22 23.28 225.22 25.051 225.632 26.468 226.458 27.533 227.282 28.598 228.385 29.13 229.765 29.13zM234.805 34.755L234.4 31.74C233.68 32.851 232.75 33.727 231.61 34.372 230.47 35.018 229.15 35.34 227.65 35.34 225.58 35.34 223.765 34.83 222.205 33.81 220.645 32.79 219.43 31.373 218.56 29.557 217.69 27.743 217.255 25.65 217.255 23.28 217.255 20.91 217.69 18.825 218.56 17.025 219.43 15.225 220.622 13.815 222.138 12.795 223.652 11.775 225.4 11.265 227.38 11.265 228.76 11.265 230.035 11.558 231.205 12.143 232.375 12.727 233.35 13.515 234.13 14.505L234.13 1.905 241.96 1.905 241.96 34.755 234.805 34.755zM258.565 29.13C259.945 29.13 261.047 28.598 261.873 27.533 262.697 26.468 263.11 25.051 263.11 23.28 263.11 21.51 262.697 20.101 261.873 19.05 261.047 18 259.945 17.475 258.565 17.475 257.185 17.475 256.082 18 255.258 19.05 254.432 20.101 254.02 21.51 254.02 23.28 254.02 25.051 254.432 26.468 255.258 27.533 256.082 28.598 257.185 29.13 258.565 29.13zM258.565 35.34C256.105 35.34 253.937 34.822 252.063 33.787 250.187 32.753 248.717 31.335 247.653 29.535 246.587 27.735 246.055 25.65 246.055 23.28 246.055 20.91 246.587 18.825 247.653 17.025 248.717 15.225 250.187 13.815 252.063 12.795 253.937 11.775 256.105 11.265 258.565 11.265 261.025 11.265 263.192 11.775 265.068 12.795 266.942 13.815 268.412 15.225 269.477 17.025 270.542 18.825 271.075 20.91 271.075 23.28 271.075 25.65 270.542 27.735 269.477 29.535 268.412 31.335 266.942 32.753 265.068 33.787 263.192 34.822 261.025 35.34 258.565 35.34z"/>
    <path fill="#404040" d="M294.834 28.14L298.659 28.14C300.849 28.14 302.581 27.346 303.857 25.755 305.132 24.165 305.769 22.065 305.769 19.455 305.769 16.845 305.132 14.745 303.857 13.155 302.581 11.565 300.849 10.77 298.659 10.77L294.834 10.77 294.834 28.14zM286.599 34.755L286.599 4.155 298.659 4.155C301.689 4.155 304.367 4.808 306.692 6.112 309.016 7.418 310.839 9.218 312.159 11.513 313.479 13.808 314.139 16.456 314.139 19.455 314.139 22.455 313.479 25.102 312.159 27.397 310.839 29.692 309.016 31.493 306.692 32.798 304.367 34.102 301.689 34.755 298.659 34.755L286.599 34.755zM324.669 27.33C324.669 28.02 324.924 28.583 325.434 29.018 325.944 29.453 326.604 29.67 327.414 29.67 328.494 29.67 329.401 29.303 330.137 28.567 330.871 27.833 331.239 26.91 331.239 25.8L331.239 25.035C330.429 24.885 329.574 24.81 328.674 24.81 327.534 24.81 326.581 25.006 325.817 25.395 325.052 25.785 324.669 26.43 324.669 27.33zM331.554 34.755L331.149 31.74C329.649 34.141 327.369 35.34 324.309 35.34 322.959 35.34 321.736 35.048 320.641 34.463 319.546 33.878 318.676 33.075 318.032 32.055 317.386 31.036 317.064 29.85 317.064 28.5 317.064 25.951 318.061 23.971 320.056 22.56 322.051 21.15 324.684 20.445 327.954 20.445 328.973 20.445 330.054 20.535 331.194 20.715 331.074 19.575 330.586 18.713 329.731 18.128 328.876 17.543 327.834 17.25 326.604 17.25 325.524 17.25 324.436 17.453 323.342 17.857 322.246 18.263 321.204 18.75 320.214 19.32L317.559 14.28C319.059 13.32 320.679 12.578 322.419 12.053 324.159 11.528 325.899 11.265 327.639 11.265 329.739 11.265 331.629 11.625 333.309 12.345 334.989 13.065 336.308 14.16 337.269 15.63 338.229 17.101 338.709 18.96 338.709 21.21L338.709 34.755 331.554 34.755zM343.704 34.755L343.704 11.85C344.964 12.12 346.239 12.255 347.529 12.255 348.848 12.255 350.184 12.12 351.534 11.85L351.534 34.755 343.704 34.755"/>
    <polygon fill="#404040" points="357.024 34.755 364.853 34.755 364.853 1.905 357.024 1.905"/>
    <path fill="#404040" d="M386.228,32.955 C384.848,36.494 383.273,39.135 381.503,40.875 C379.733,42.615 377.483,43.485 374.753,43.485 C373.523,43.485 372.413,43.35 371.423,43.08 C370.433,42.81 369.593,42.479 368.903,42.09 L371.108,36.69 C371.528,36.899 371.992,37.08 372.503,37.23 C373.013,37.38 373.553,37.455 374.123,37.455 C374.933,37.455 375.66,37.26 376.305,36.87 C376.951,36.48 377.513,35.774 377.993,34.755 L378.353,33.945 L368.003,11.85 L376.643,11.85 L381.728,25.575 L385.913,11.85 L394.418,11.85 L386.228,32.955"/>
    <polyline fill="#404040" points="428.752 34.755 416.737 17.115 416.737 34.755 409.042 34.755 409.042 4.155 416.692 4.155 428.662 22.11 428.662 4.155 436.402 4.155 436.402 34.755 428.752 34.755"/>
    <path fill="#404040" d="M453.367,16.935 C450.817,16.935 449.286,18.285 448.777,20.985 L457.507,20.985 C457.296,19.515 456.794,18.473 455.999,17.857 C455.204,17.243 454.326,16.935 453.367,16.935 Z M464.076,32.415 C462.936,33.225 461.489,33.915 459.734,34.485 C457.979,35.055 456.112,35.34 454.132,35.34 C451.402,35.34 449.069,34.837 447.134,33.832 C445.2,32.828 443.714,31.425 442.68,29.625 C441.644,27.825 441.127,25.755 441.127,23.415 C441.127,21.046 441.637,18.945 442.657,17.115 C443.676,15.285 445.087,13.852 446.887,12.817 C448.687,11.783 450.786,11.265 453.187,11.265 C455.527,11.265 457.589,11.768 459.374,12.772 C461.159,13.778 462.554,15.173 463.559,16.957 C464.564,18.743 465.067,20.835 465.067,23.235 C465.067,23.565 465.044,23.91 464.999,24.27 C464.954,24.63 464.902,25.006 464.842,25.395 L448.867,25.395 C449.587,28.035 451.551,29.355 454.762,29.355 C456.201,29.355 457.476,29.13 458.587,28.68 C459.696,28.23 460.626,27.78 461.377,27.33 L464.076,32.415 Z"/>
    <polyline fill="#404040" points="488.376 34.755 484.686 20.85 481.041 34.755 472.942 34.755 467.001 11.85 475.012 11.85 477.396 26.61 481.266 11.85 488.152 11.85 492.157 26.655 494.586 11.85 502.416 11.85 496.476 34.755 488.376 34.755"/>
    <path fill="#404040" d="M514.341 35.34C512.361 35.34 510.509 35.025 508.784 34.395 507.058 33.765 505.506 32.865 504.126 31.695L507.456 27.285C508.506 28.125 509.638 28.808 510.854 29.332 512.069 29.858 513.261 30.12 514.431 30.12 515.211 30.12 515.833 29.985 516.299 29.715 516.763 29.445 516.996 29.04 516.996 28.5 516.996 27.931 516.733 27.473 516.209 27.128 515.683 26.783 514.746 26.445 513.396 26.115L511.236 25.575C506.946 24.436 504.801 22.14 504.801 18.69 504.801 17.16 505.221 15.84 506.061 14.73 506.901 13.62 508.056 12.766 509.526 12.165 510.995 11.565 512.706 11.265 514.656 11.265 516.576 11.265 518.384 11.565 520.078 12.165 521.773 12.766 523.326 13.635 524.736 14.775L521.316 19.275C520.265 18.436 519.156 17.761 517.986 17.25 516.816 16.74 515.721 16.485 514.701 16.485 513.051 16.485 512.226 17.025 512.226 18.105 512.226 18.585 512.473 18.976 512.969 19.275 513.464 19.575 514.161 19.846 515.061 20.085L517.986 20.895C520.176 21.496 521.796 22.395 522.846 23.595 523.896 24.795 524.421 26.221 524.421 27.87 524.421 29.37 524.001 30.683 523.161 31.808 522.321 32.933 521.143 33.803 519.629 34.418 518.114 35.032 516.351 35.34 514.341 35.34M1.17 43.744L2.265 43.744C2.625 43.744 2.909 43.656 3.118 43.479 3.328 43.301 3.432 43.06 3.432 42.754 3.432 42.448 3.328 42.206 3.118 42.03 2.909 41.852 2.625 41.764 2.265 41.764L1.17 41.764 1.17 43.744zM.357 46.554L.357 41.079 2.265 41.079C2.877 41.079 3.363 41.23 3.722 41.531 4.082 41.831 4.261 42.239 4.261 42.754 4.261 43.264 4.082 43.668 3.722 43.966 3.363 44.264 2.877 44.413 2.265 44.413L1.17 44.413 1.17 46.554.357 46.554zM5.904 44.493L7.9 44.493 6.902 41.925 5.904 44.493zM8.697 46.554L8.166 45.178 5.638 45.178 5.107 46.554 4.285 46.554 6.475 41.079 7.353 41.079 9.534 46.554 8.697 46.554zM11.258 43.664L12.377 43.664C12.726 43.664 13.003 43.578 13.21 43.406 13.417 43.234 13.52 43.004 13.52 42.714 13.52 42.424 13.417 42.193 13.21 42.022 13.003 41.85 12.726 41.764 12.377 41.764L11.258 41.764 11.258 43.664zM11.258 44.332L11.258 46.554 10.445 46.554 10.445 41.079 12.377 41.079C12.983 41.079 13.464 41.226 13.818 41.518 14.172 41.811 14.349 42.209 14.349 42.714 14.349 43.095 14.242 43.417 14.027 43.68 13.812 43.943 13.518 44.128 13.141 44.235L14.47 46.554 13.544 46.554 12.296 44.332 11.258 44.332z"/>
    <polyline fill="#404040" points="16.684 46.554 16.684 41.764 14.84 41.764 14.84 41.079 19.341 41.079 19.341 41.764 17.497 41.764 17.497 46.554 16.684 46.554"/>
    <path fill="#404040" d="M24.565,45.934 C24.92,45.934 25.234,45.844 25.511,45.664 C25.787,45.484 26.004,45.237 26.159,44.92 C26.315,44.603 26.393,44.235 26.393,43.817 C26.393,43.398 26.315,43.031 26.159,42.714 C26.004,42.397 25.787,42.149 25.511,41.969 C25.234,41.789 24.92,41.699 24.565,41.699 C24.211,41.699 23.897,41.789 23.623,41.969 C23.349,42.149 23.135,42.397 22.979,42.714 C22.824,43.031 22.745,43.398 22.745,43.817 C22.745,44.235 22.824,44.603 22.979,44.92 C23.135,45.237 23.349,45.484 23.623,45.664 C23.897,45.844 24.211,45.934 24.565,45.934 Z M24.565,46.643 C24.05,46.643 23.594,46.522 23.197,46.28 C22.799,46.039 22.487,45.706 22.259,45.282 C22.03,44.858 21.916,44.369 21.916,43.817 C21.916,43.264 22.03,42.776 22.259,42.352 C22.487,41.927 22.799,41.595 23.197,41.353 C23.594,41.112 24.05,40.991 24.565,40.991 C25.08,40.991 25.538,41.112 25.938,41.353 C26.338,41.595 26.651,41.927 26.88,42.352 C27.108,42.776 27.222,43.264 27.222,43.817 C27.222,44.369 27.108,44.858 26.88,45.282 C26.651,45.706 26.338,46.039 25.938,46.28 C25.538,46.522 25.08,46.643 24.565,46.643 Z"/>
    <polyline fill="#404040" points="29.179 46.554 28.365 46.554 28.365 41.079 31.771 41.079 31.771 41.764 29.179 41.764 29.179 43.615 31.376 43.615 31.376 44.3 29.179 44.3 29.179 46.554"/>
    <polyline fill="#404040" points="36.013 46.554 36.013 41.764 34.17 41.764 34.17 41.079 38.67 41.079 38.67 41.764 36.826 41.764 36.826 46.554 36.013 46.554"/>
    <polyline fill="#404040" points="39.604 46.554 39.604 41.079 40.417 41.079 40.417 43.422 43.243 43.422 43.243 41.079 44.056 41.079 44.056 46.554 43.243 46.554 43.243 44.123 40.417 44.123 40.417 46.554 39.604 46.554"/>
    <polyline fill="#404040" points="45.489 46.554 45.489 41.079 48.999 41.079 48.999 41.764 46.302 41.764 46.302 43.455 48.677 43.455 48.677 44.139 46.302 44.139 46.302 45.87 49.064 45.87 49.064 46.554 45.489 46.554"/>
    <path fill="#404040" d="M54.2 45.934C54.645 45.934 54.995 45.8 55.25 45.532 55.505 45.263 55.633 44.901 55.633 44.445L55.633 41.079 56.446 41.079 56.446 44.453C56.446 45.135 56.246 45.67 55.846 46.059 55.446 46.448 54.897 46.643 54.2 46.643 53.502 46.643 52.955 46.448 52.557 46.059 52.16 45.67 51.962 45.135 51.962 44.453L51.962 41.079 52.775 41.079 52.775 44.445C52.775 44.901 52.902 45.263 53.157 45.532 53.412 45.8 53.76 45.934 54.2 45.934M59.481 46.643C59.068 46.643 58.673 46.57 58.298 46.425 57.922 46.28 57.619 46.087 57.388 45.846L57.847 45.306C58.061 45.505 58.315 45.66 58.607 45.773 58.9 45.886 59.191 45.942 59.481 45.942 59.835 45.942 60.121 45.874 60.338 45.737 60.556 45.6 60.664 45.411 60.664 45.169 60.664 44.949 60.587 44.764 60.431 44.614 60.275 44.464 60.009 44.337 59.634 44.235L58.877 44.034C58.389 43.905 58.033 43.723 57.81 43.487 57.588 43.25 57.476 42.942 57.476 42.561 57.476 42.25 57.559 41.976 57.726 41.74 57.892 41.503 58.122 41.32 58.414 41.188 58.707 41.057 59.038 40.991 59.409 40.991 59.8 40.991 60.168 41.065 60.512 41.213 60.855 41.36 61.158 41.565 61.421 41.828L60.93 42.36C60.699 42.145 60.459 41.98 60.21 41.864 59.96 41.749 59.696 41.691 59.417 41.691 59.079 41.691 58.802 41.763 58.587 41.905 58.373 42.047 58.265 42.245 58.265 42.496 58.265 42.727 58.342 42.907 58.495 43.036 58.648 43.165 58.882 43.272 59.199 43.358L60.044 43.591C60.533 43.726 60.89 43.913 61.116 44.155 61.341 44.396 61.453 44.697 61.453 45.056 61.453 45.373 61.37 45.651 61.204 45.89 61.037 46.129 60.807 46.314 60.512 46.445 60.216 46.577 59.873 46.643 59.481 46.643M63.498 44.493L65.495 44.493 64.497 41.925 63.498 44.493zM66.292 46.554L65.761 45.178 63.232 45.178 62.701 46.554 61.88 46.554 64.07 41.079 64.947 41.079 67.129 46.554 66.292 46.554z"/>
    <polyline fill="#404040" points="70.913 46.554 70.913 41.764 69.069 41.764 69.069 41.079 73.57 41.079 73.57 41.764 71.726 41.764 71.726 46.554 70.913 46.554"/>
    <path fill="#404040" d="M76.5 45.934C76.855 45.934 77.17 45.844 77.446 45.664 77.722 45.484 77.939 45.237 78.094 44.92 78.25 44.603 78.328 44.235 78.328 43.817 78.328 43.398 78.25 43.031 78.094 42.714 77.939 42.397 77.722 42.149 77.446 41.969 77.17 41.789 76.855 41.699 76.5 41.699 76.146 41.699 75.832 41.789 75.558 41.969 75.285 42.149 75.07 42.397 74.914 42.714 74.759 43.031 74.681 43.398 74.681 43.817 74.681 44.235 74.759 44.603 74.914 44.92 75.07 45.237 75.285 45.484 75.558 45.664 75.832 45.844 76.146 45.934 76.5 45.934zM76.5 46.643C75.985 46.643 75.529 46.522 75.132 46.28 74.734 46.039 74.422 45.706 74.194 45.282 73.966 44.858 73.851 44.369 73.851 43.817 73.851 43.264 73.966 42.776 74.194 42.352 74.422 41.927 74.734 41.595 75.132 41.353 75.529 41.112 75.985 40.991 76.5 40.991 77.015 40.991 77.473 41.112 77.873 41.353 78.273 41.595 78.587 41.927 78.815 42.352 79.043 42.776 79.157 43.264 79.157 43.817 79.157 44.369 79.043 44.858 78.815 45.282 78.587 45.706 78.273 46.039 77.873 46.28 77.473 46.522 77.015 46.643 76.5 46.643zM81.113 45.87L82.224 45.87C82.611 45.87 82.942 45.785 83.219 45.616 83.495 45.447 83.707 45.21 83.855 44.904 84.002 44.598 84.076 44.235 84.076 43.817 84.076 43.398 84.002 43.036 83.855 42.73 83.707 42.424 83.495 42.186 83.219 42.018 82.942 41.848 82.611 41.764 82.224 41.764L81.113 41.764 81.113 45.87zM80.3 46.554L80.3 41.079 82.224 41.079C82.761 41.079 83.231 41.194 83.633 41.422 84.036 41.65 84.348 41.969 84.571 42.38 84.794 42.79 84.905 43.269 84.905 43.817 84.905 44.365 84.794 44.843 84.571 45.254 84.348 45.664 84.036 45.984 83.633 46.212 83.231 46.44 82.761 46.554 82.224 46.554L80.3 46.554zM86.982 44.493L88.979 44.493 87.981 41.925 86.982 44.493zM89.776 46.554L89.245 45.178 86.717 45.178 86.185 46.554 85.364 46.554 87.554 41.079 88.432 41.079 90.613 46.554 89.776 46.554z"/>
    <polyline fill="#404040" points="93.109 44.381 93.109 46.554 92.295 46.554 92.295 44.381 90.372 41.079 91.33 41.079 92.707 43.607 94.083 41.079 95.025 41.079 93.109 44.381"/>
    <polyline fill="#404040" points="101.53 46.554 98.608 42.36 98.608 46.554 97.843 46.554 97.843 41.079 98.599 41.079 101.53 45.274 101.53 41.079 102.287 41.079 102.287 46.554 101.53 46.554"/>
    <polyline fill="#404040" points="103.72 46.554 103.72 41.079 107.229 41.079 107.229 41.764 104.533 41.764 104.533 43.455 106.908 43.455 106.908 44.139 104.533 44.139 104.533 45.87 107.294 45.87 107.294 46.554 103.72 46.554"/>
    <polyline fill="#404040" points="109.709 46.554 109.709 41.764 107.865 41.764 107.865 41.079 112.366 41.079 112.366 41.764 110.522 41.764 110.522 46.554 109.709 46.554"/>
    <polyline fill="#404040" points="117.68 46.554 116.399 42.19 115.12 46.554 114.274 46.554 112.817 41.079 113.622 41.079 114.733 45.411 116.013 41.079 116.786 41.079 118.074 45.427 119.193 41.079 119.982 41.079 118.525 46.554 117.68 46.554"/>
    <path fill="#404040" d="M123.21 45.934C123.565 45.934 123.88 45.844 124.156 45.664 124.433 45.484 124.649 45.237 124.805 44.92 124.96 44.603 125.038 44.235 125.038 43.817 125.038 43.398 124.96 43.031 124.805 42.714 124.649 42.397 124.433 42.149 124.156 41.969 123.88 41.789 123.565 41.699 123.21 41.699 122.856 41.699 122.543 41.789 122.269 41.969 121.995 42.149 121.78 42.397 121.625 42.714 121.469 43.031 121.391 43.398 121.391 43.817 121.391 44.235 121.469 44.603 121.625 44.92 121.78 45.237 121.995 45.484 122.269 45.664 122.543 45.844 122.856 45.934 123.21 45.934zM123.21 46.643C122.695 46.643 122.239 46.522 121.842 46.28 121.445 46.039 121.132 45.706 120.904 45.282 120.676 44.858 120.562 44.369 120.562 43.817 120.562 43.264 120.676 42.776 120.904 42.352 121.132 41.927 121.445 41.595 121.842 41.353 122.239 41.112 122.695 40.991 123.21 40.991 123.726 40.991 124.183 41.112 124.583 41.353 124.983 41.595 125.297 41.927 125.525 42.352 125.753 42.776 125.867 43.264 125.867 43.817 125.867 44.369 125.753 44.858 125.525 45.282 125.297 45.706 124.983 46.039 124.583 46.28 124.183 46.522 123.726 46.643 123.21 46.643zM127.823 43.664L128.943 43.664C129.292 43.664 129.569 43.578 129.776 43.406 129.983 43.234 130.086 43.004 130.086 42.714 130.086 42.424 129.983 42.193 129.776 42.022 129.569 41.85 129.292 41.764 128.943 41.764L127.823 41.764 127.823 43.664zM127.823 44.332L127.823 46.554 127.01 46.554 127.01 41.079 128.943 41.079C129.549 41.079 130.03 41.226 130.384 41.518 130.738 41.811 130.915 42.209 130.915 42.714 130.915 43.095 130.808 43.417 130.593 43.68 130.378 43.943 130.083 44.128 129.707 44.235L131.036 46.554 130.11 46.554 128.862 44.332 127.823 44.332z"/>
    <polyline fill="#404040" points="135.335 46.554 132.879 43.793 132.879 46.554 132.066 46.554 132.066 41.079 132.879 41.079 132.879 43.479 135.173 41.079 136.18 41.079 133.74 43.591 136.357 46.554 135.335 46.554"/>
    <path fill="#009BFF" class='no-color-change' class='no-color-change' d="M347.529,10.05 C346.239,10.05 345.136,9.593 344.221,8.678 C343.306,7.763 342.849,6.66 342.849,5.37 C342.849,4.081 343.306,2.978 344.221,2.062 C345.136,1.148 346.239,0.69 347.529,0.69 C348.819,0.69 349.921,1.148 350.836,2.062 C351.751,2.978 352.209,4.081 352.209,5.37 C352.209,6.66 351.751,7.763 350.836,8.678 C349.921,9.593 348.819,10.05 347.529,10.05"/>
  </g>
</svg>
