<svg height="46" viewBox="0 0 228 46" width="228" xmlns="http://www.w3.org/2000/svg">
  <g fill="none" fill-rule="evenodd"><path d="m9.448 33.129v-23.849h-9.09v-6.75h26.55v6.75h-9.09v23.849z" fill="#009bff" class='no-color-change'/><path
    d="m37.753 27.504c1.379 0 2.482-.532 3.307-1.597s1.238-2.482 1.238-4.252-.413-3.18-1.238-4.231c-.825-1.05-1.928-1.575-3.307-1.575-1.381 0-2.483.525-3.308 1.575-.825 1.051-1.238 2.461-1.238 4.231s.413 3.187 1.238 4.252 1.927 1.597 3.308 1.597zm0 6.21c-2.461 0-4.629-.517-6.503-1.552-1.875-1.035-3.346-2.453-4.41-4.253-1.065-1.799-1.597-3.884-1.597-6.254s.532-4.455 1.597-6.255c1.064-1.801 2.535-3.21 4.41-4.231 1.874-1.019 4.042-1.53 6.503-1.53 2.459 0 4.627.511 6.502 1.53 1.875 1.021 3.345 2.43 4.41 4.231 1.064 1.8 1.598 3.885 1.598 6.255s-.534 4.455-1.598 6.254c-1.065 1.8-2.535 3.218-4.41 4.253s-4.043 1.552-6.502 1.552z"
    fill="#009bff" class='no-color-change'/><path d="m73.033 33.129-3.69-13.905-3.645 13.905h-8.1l-5.94-22.905h8.01l2.385 14.761 3.87-14.761h6.885l4.005 14.806 2.43-14.806h7.83l-5.94 22.905z" fill="#009bff" class='no-color-change'/><path
    d="m98.322 20.485v12.644h-7.83v-22.905h7.155l.405 3.016c.75-1.081 1.725-1.951 2.925-2.611 1.2-.659 2.52-.99 3.96-.99 2.49 0 4.485.811 5.985 2.431s2.25 3.945 2.25 6.974v14.085h-7.83v-13.184c0-1.35-.3-2.348-.9-2.993s-1.44-.967-2.52-.967-1.95.344-2.61 1.034c-.66.691-.99 1.846-.99 3.466"
    fill="#009bff" class='no-color-change'/><path d="m132.736 33.129v-23.849h-9.09v-6.75h26.55v6.75h-9.09v23.849z" fill="#404040"/><path
    d="m157.891 25.704c0 .691.254 1.253.765 1.688.509.435 1.17.652 1.98.652 1.08 0 1.986-.367 2.722-1.102.735-.735 1.102-1.658 1.102-2.768v-.765c-.81-.149-1.665-.225-2.565-.225-1.14 0-2.092.196-2.857.585-.765.39-1.147 1.035-1.147 1.935zm6.884 7.425-.404-3.014c-1.501 2.4-3.78 3.599-6.84 3.599-1.35 0-2.573-.292-3.668-.877s-1.965-1.387-2.61-2.408c-.646-1.019-.967-2.205-.967-3.555 0-2.549.997-4.529 2.992-5.94 1.995-1.409 4.627-2.114 7.898-2.114 1.019 0 2.099.089 3.239.269-.12-1.139-.607-2.002-1.462-2.587s-1.898-.878-3.127-.878c-1.08 0-2.168.203-3.263.608s-2.137.893-3.128 1.463l-2.654-5.04c1.499-.96 3.119-1.703 4.86-2.228 1.739-.524 3.479-.788 5.219-.788 2.1 0 3.99.36 5.671 1.081 1.679.72 2.999 1.815 3.96 3.284.959 1.471 1.44 3.33 1.44 5.58v13.545z"
    fill="#404040"/><path d="m176.926 33.13h7.829v-32.85h-7.829z" fill="#404040"/><path d="m205.14 33.129-7.065-11.429v11.429h-7.83v-32.849h7.83v19.17l7.29-9.226h9.315l-8.64 10.08 8.505 12.825z" fill="#404040"/><path
    d="m221.924 33.624c-.96 0-1.838-.232-2.632-.697-.795-.465-1.425-1.095-1.89-1.89-.466-.794-.697-1.672-.697-2.632s.231-1.838.697-2.633c.465-.795 1.095-1.425 1.89-1.89.794-.465 1.672-.698 2.632-.698s1.838.233 2.633.698 1.424 1.095 1.89 1.89c.465.795.697 1.673.697 2.633s-.232 1.838-.697 2.632c-.466.795-1.095 1.425-1.89 1.89s-1.673.697-2.633.697"
    fill="#009bff" class='no-color-change'/>
    <g fill="#404040"><path
      d="m10.309 42.574h1.159c.381 0 .682-.093.904-.281.222-.187.332-.443.332-.767s-.11-.58-.332-.767-.523-.282-.904-.282h-1.159zm-.861 2.976v-5.797h2.02c.648 0 1.162.159 1.543.477.381.319.571.751.571 1.296 0 .54-.19.968-.571 1.283s-.895.473-1.543.473h-1.159v2.268zm5.873-2.183h2.114l-1.057-2.719zm2.958 2.183-.562-1.458h-2.677l-.563 1.458h-.869l2.318-5.797h.93l2.31 5.797zm2.711-3.06h1.185c.369 0 .663-.091.882-.273s.328-.426.328-.733c0-.308-.109-.552-.328-.734-.219-.181-.513-.273-.882-.273h-1.185zm0 .707v2.353h-.861v-5.797h2.046c.642 0 1.151.155 1.526.464.375.311.562.732.562 1.267 0 .403-.114.744-.341 1.023-.227.278-.54.474-.937.587l1.406 2.456h-.98l-1.321-2.353z"/><path d="m26.735 45.55v-5.073h-1.952v-.724h4.766v.724h-1.953v5.073z"/><path
      d="m35.081 44.893c.375 0 .709-.095 1.001-.285.293-.191.522-.453.687-.789.164-.335.247-.725.247-1.168s-.083-.832-.247-1.167c-.165-.336-.394-.599-.687-.789-.292-.19-.626-.286-1.001-.286-.376 0-.708.096-.998.286-.289.19-.517.453-.682.789-.164.335-.247.724-.247 1.167s.083.833.247 1.168c.165.336.393.598.682.789.29.19.622.285.998.285zm0 .75c-.546 0-1.029-.128-1.449-.383-.421-.256-.752-.608-.994-1.057-.241-.449-.362-.966-.362-1.552 0-.585.121-1.102.362-1.551.242-.449.573-.801.994-1.057.42-.256.903-.384 1.449-.384.545 0 1.03.128 1.453.384s.756.608.997 1.057c.242.449.363.966.363 1.551 0 .586-.121 1.103-.363 1.552-.241.449-.574.801-.997 1.057-.423.255-.908.383-1.453.383z"/><path d="m39.965 45.55h-.861v-5.797h3.606v.724h-2.745v1.961h2.327v.725h-2.327z"/><path d="m47.202 45.55v-5.073h-1.952v-.724h4.765v.724h-1.952v5.073z"/><path d="m51.004 45.55v-5.797h.861v2.481h2.992v-2.481h.861v5.797h-.861v-2.575h-2.992v2.575z"/><path d="m57.235 45.55v-5.797h3.717v.724h-2.856v1.791h2.515v.724h-2.515v1.833h2.924v.725z"/><path
      d="m66.458 44.893c.472 0 .843-.142 1.113-.426.269-.284.405-.668.405-1.151v-3.563h.861v3.571c0 .723-.212 1.289-.636 1.701-.423.412-1.004.618-1.743.618s-1.318-.206-1.739-.618-.631-.978-.631-1.701v-3.571h.861v3.563c0 .483.135.867.405 1.151s.638.426 1.104.426m5.592.75c-.438 0-.855-.076-1.253-.23-.398-.153-.719-.358-.963-.614l.486-.571c.227.211.496.375.805.495.31.119.618.179.925.179.375 0 .678-.073.908-.218s.345-.345.345-.601c0-.233-.082-.429-.247-.588s-.446-.292-.844-.401l-.801-.212c-.517-.137-.894-.33-1.13-.58-.235-.25-.353-.577-.353-.98 0-.33.088-.62.264-.87s.419-.444.729-.584c.309-.139.66-.209 1.052-.209.415 0 .805.079 1.168.235.364.156.685.374.964.652l-.52.562c-.245-.227-.499-.402-.763-.524-.265-.122-.545-.183-.84-.183-.358 0-.651.075-.878.226-.227.15-.341.359-.341.626 0 .244.081.435.243.571.162.137.411.25.746.341l.895.247c.517.143.895.342 1.134.597.238.256.358.574.358.955 0 .335-.089.63-.265.882-.176.253-.42.449-.733.588-.312.14-.676.209-1.091.209m4.254-2.276h2.114l-1.057-2.719zm2.957 2.183-.562-1.458h-2.677l-.562 1.458h-.87l2.319-5.797h.929l2.31 5.797z"/><path d="m84.154 45.55v-5.073h-1.952v-.724h4.766v.724h-1.953v5.073z"/><path
      d="m90.07 44.893c.375 0 .709-.095 1.002-.285.293-.191.521-.453.686-.789.165-.335.247-.725.247-1.168s-.082-.832-.247-1.167c-.165-.336-.393-.599-.686-.789s-.627-.286-1.002-.286-.707.096-.997.286-.517.453-.682.789c-.165.335-.247.724-.247 1.167s.082.833.247 1.168c.165.336.392.598.682.789.29.19.622.285.997.285zm0 .75c-.545 0-1.028-.128-1.449-.383-.42-.256-.751-.608-.993-1.057-.241-.449-.362-.966-.362-1.552 0-.585.121-1.102.362-1.551.242-.449.573-.801.993-1.057.421-.256.904-.384 1.449-.384.546 0 1.03.128 1.454.384.423.256.756.608.997 1.057s.362.966.362 1.551c0 .586-.121 1.103-.362 1.552s-.574.801-.997 1.057c-.424.255-.908.383-1.454.383zm4.885-.818h1.176c.409 0 .76-.09 1.053-.269.292-.178.517-.43.673-.754s.234-.708.234-1.151-.078-.827-.234-1.15c-.156-.325-.381-.576-.673-.755-.293-.179-.644-.269-1.053-.269h-1.176zm-.861.725v-5.797h2.037c.568 0 1.066.121 1.492.362.426.242.757.58.993 1.015.235.435.354.942.354 1.521 0 .58-.119 1.087-.354 1.522-.236.435-.567.773-.993 1.014-.426.242-.924.363-1.492.363zm7.075-2.183h2.114l-1.057-2.719zm2.958 2.183-.563-1.458h-2.676l-.563 1.458h-.869l2.318-5.797h.929l2.311 5.797z"/><path d="m107.656 43.248v2.302h-.861v-2.302l-2.037-3.495h1.014l1.458 2.677 1.457-2.677h.997z"/><path d="m116.572 45.55-3.094-4.442v4.442h-.81v-5.797h.801l3.103 4.441v-4.441h.801v5.797z"/><path d="m118.891 45.55v-5.797h3.716v.724h-2.855v1.791h2.514v.724h-2.514v1.833h2.923v.725z"/><path d="m125.233 45.55v-5.073h-1.952v-.724h4.765v.724h-1.952v5.073z"/><path d="m133.672 45.55-1.355-4.621-1.356 4.621h-.895l-1.543-5.797h.852l1.177 4.586 1.355-4.586h.819l1.363 4.603 1.185-4.603h.836l-1.543 5.797z"/><path
      d="m139.528 44.893c.375 0 .709-.095 1.002-.285.292-.191.521-.453.686-.789.165-.335.248-.725.248-1.168s-.083-.832-.248-1.167c-.165-.336-.394-.599-.686-.789-.293-.19-.627-.286-1.002-.286s-.707.096-.997.286-.517.453-.682.789c-.165.335-.247.724-.247 1.167s.082.833.247 1.168c.165.336.392.598.682.789.29.19.622.285.997.285zm0 .75c-.545 0-1.028-.128-1.449-.383-.42-.256-.751-.608-.993-1.057s-.362-.966-.362-1.552c0-.585.12-1.102.362-1.551s.573-.801.993-1.057c.421-.256.904-.384 1.449-.384.546 0 1.03.128 1.454.384.423.256.756.608.997 1.057s.362.966.362 1.551c0 .586-.121 1.103-.362 1.552s-.574.801-.997 1.057c-.424.255-.908.383-1.454.383zm4.884-3.153h1.185c.369 0 .664-.091.882-.273.219-.182.329-.426.329-.733 0-.308-.11-.552-.329-.734-.218-.181-.513-.273-.882-.273h-1.185zm0 .707v2.353h-.861v-5.797h2.046c.642 0 1.151.155 1.526.464.375.311.562.732.562 1.267 0 .403-.113.744-.34 1.023-.228.278-.541.474-.938.587l1.407 2.456h-.981l-1.321-2.353z"/><path d="m152.366 45.55-2.6-2.925v2.925h-.862v-5.797h.862v2.54l2.429-2.54h1.066l-2.583 2.659 2.77 3.138z"/></g>
  </g>
</svg>