<svg xmlns="http://www.w3.org/2000/svg" xmlns:xlink="http://www.w3.org/1999/xlink" width="719.563" height="119.938" viewBox="0 0 719.563 119.938">
  <defs>
    <style>
      .cls-1 {
        filter: url(#filter);
      }

      .cls-2 {
        fill: #fff;
      }

      .cls-2, .cls-3 {
        fill-rule: evenodd;
      }

      .cls-3 {
        fill: #999;
      }
    </style>
    <filter id="filter" filterUnits="userSpaceOnUse">
      <feFlood result="flood" flood-color="#333"/>
      <feComposite result="composite" operator="in" in2="SourceGraphic"/>
      <feBlend result="blend" in2="SourceGraphic"/>
    </filter>
  </defs>
  <g id="Alexandria" class="cls-1">
    <path class="cls-2" d="M26.847,6.282H0.36V0.028H60.079V6.282H33.594V87.823H26.847V6.282ZM66.7,0.028h6.5V34.3h0.249c3.5-5.254,9.5-9.755,19.366-9.755,14.118,0,23.863,8.5,23.863,24.511V87.823h-6.5V50.679c0-14.131-6.872-20.511-17.617-20.511-11.243,0-19.364,7-19.364,21.012V87.823H66.7V0.028Zm59.6,56.778c0-15.131,9.369-32.265,30.235-32.265,20.238,0,29.484,16.133,29.484,32.391v0.25H132.671c0.124,13.881,8.5,26.514,23.987,26.514,10.37,0,17.991-5.629,22.238-14.133l5.5,3c-5.623,11-16.492,16.757-28.236,16.757C136.544,89.323,126.3,72.69,126.3,56.806Zm53.223-5.126c-1.75-12.882-10.746-21.637-23.114-21.637-12.993,0-21.489,9.38-23.363,21.637h46.477Zm37.857-35.894H194.141V0.028h65.467V15.786H236.369V87.823h-18.99V15.786ZM249.99,56.932c0-15.383,11.37-32.391,34.358-32.391s34.357,17.008,34.357,32.391-11.369,32.391-34.357,32.391S249.99,72.316,249.99,56.932Zm50.724,0c0-10.506-7.247-17.258-16.366-17.258s-16.367,6.752-16.367,17.258,7.246,17.258,16.367,17.258S300.714,67.438,300.714,56.932Zm17-30.891h18.615l9,30.765a139.471,139.471,0,0,1,3,13.759h0.375a136.519,136.519,0,0,1,3-13.632l8.87-30.891H378.8l8.87,30.891a137.647,137.647,0,0,1,3,13.632h0.374a140.052,140.052,0,0,1,3-13.759l8.871-30.765h18.241l-20.74,61.782H382.05l-9.494-31.017c-1-3.375-2.749-10.754-2.874-13.507h-0.5c-0.125,2.752-1.874,10.132-2.873,13.507l-9.5,31.017H338.448Zm107.322,0h16.992V34.42h0.25c3.874-5.5,9.62-9.879,19.865-9.879,16.366,0,23.988,10.5,23.988,26.889V87.823H468.133V54.18c0-8.629-2.5-15.133-11.741-15.133s-13.245,6.38-13.245,15.259V87.823H425.031V26.042Zm91.58-10.255H493.374V0.028H558.84V15.786H535.6V87.823H516.611V15.786Zm32.612,40.646c0-17.883,12.616-31.89,31.109-31.89,10.119,0,16.614,4.627,20.738,10.38h0.248V26.042h16.993V87.823H601.318v-8.88H601.07c-4.124,5.753-10.619,10.38-20.738,10.38C557.593,89.323,549.223,71.314,549.223,56.432Zm51.221,0.5c0-9.254-5.869-17.509-16.488-17.509s-16.368,8.129-16.368,17.509c0,9.63,6.371,17.508,16.368,17.508C594.075,74.441,600.444,66.563,600.444,56.932Zm28.116-56.9h18.115v87.8H628.56V0.028Zm28.359,0h18.115v51.4l21.491-25.388h21.364L692.9,54.431l26.737,33.393H698.025L675.034,57.307V87.823H656.919V0.028Z" transform="translate(-0.375 -0.031)"/>
    <path id="USAT_Network" data-name="USAT Network" class="cls-3" d="M246.843,99.762h5.771c4.058,0,6.773,2.4,6.773,6.1s-2.771,6.095-6.773,6.095h-2.943v7.623h-2.828V99.762Zm5.486,9.856c2.715,0,4.171-1.5,4.171-3.756,0-2.233-1.456-3.756-4.171-3.756h-2.658v7.512h2.658Zm15.13-9.856h2.515L278.2,119.58h-3.031l-2.054-5.192h-8.886l-2.057,5.192H259.2S266.457,102.193,267.459,99.762Zm4.713,12.282-1.914-4.882c-0.284-.736-1.515-3.787-1.543-4.041h-0.057c-0.028.254-1.227,3.218-1.543,4.041l-1.941,4.882h7Zm8.9-12.282h5.8c3.741,0,6.657,1.924,6.657,5.872,0,3.081-2.058,5.11-5.085,5.593l6.144,8.353h-3.317l-5.8-8.075H283.9v8.075h-2.829V99.762Zm5.487,9.46c2.627,0,4.114-1.386,4.114-3.557s-1.487-3.559-4.114-3.559H283.9v7.116h2.658Zm14.814-7.06h-5.715v-2.4h14.257v2.4H304.2V119.58h-2.827V102.162Zm15.875,7.512a10.545,10.545,0,1,1,10.543,10.3A10.112,10.112,0,0,1,317.249,109.674Zm18.171,0a7.645,7.645,0,1,0-7.656,7.79A7.425,7.425,0,0,0,335.42,109.674Zm6.985-9.912H352.52v2.4h-7.287v6.38h7.058v2.4h-7.058v8.638h-2.828V99.762Zm22.905,2.4H359.6v-2.4h14.256v2.4h-5.714V119.58H365.31V102.162Zm11.511-2.4h2.827v8.13h10.515v-8.13h2.831V119.58h-2.831v-9.288H379.648v9.288h-2.827V99.762Zm21.383,0h10.915v2.376h-8.087v5.754h7.856v2.376h-7.856v6.942h8.257v2.37H398.2V99.762Zm20.566,12.987V99.762h2.856V111.9c0,3.447,1.487,5.563,4.828,5.563,3.372,0,4.86-2.116,4.86-5.563V99.762h2.856v12.987c0,4.35-2.828,7.227-7.716,7.227C421.541,119.976,418.77,117.1,418.77,112.749ZM437.122,116l1.917-1.609a5.813,5.813,0,0,0,5.028,3.132c2.2,0,3.914-1.183,3.914-3.36,0-2.34-1.972-3.131-4.43-4.09-2.514-.99-5.057-2.234-5.057-5.4,0-3.13,2.458-5.3,6.059-5.3a6.745,6.745,0,0,1,5.887,2.989l-1.917,1.608a4.567,4.567,0,0,0-3.97-2.147c-1.945,0-3.229.99-3.229,2.655,0,2.06,2,2.741,3.742,3.415,2.828,1.1,5.743,2.431,5.743,6.069,0,3.447-2.571,6.015-6.685,6.015A7.8,7.8,0,0,1,437.122,116Zm23.454-16.235h2.513l8.229,19.818h-3.03l-2.054-5.192h-8.887l-2.058,5.192h-2.971S459.573,102.193,460.576,99.762Zm4.712,12.282-1.913-4.882c-0.286-.736-1.516-3.787-1.544-4.041h-0.056c-0.028.254-1.228,3.218-1.544,4.041l-1.942,4.882h7Zm17.97-9.882h-5.714v-2.4H491.8v2.4h-5.714V119.58h-2.828V102.162Zm9.6,7.512a10.546,10.546,0,1,1,10.544,10.3A10.112,10.112,0,0,1,492.861,109.674Zm18.171,0a7.645,7.645,0,1,0-7.656,7.79A7.424,7.424,0,0,0,511.032,109.674Zm6.986-9.912H523.7c6.4,0,10.628,3.613,10.628,9.912,0,6.267-4.258,9.906-10.628,9.906h-5.686V99.762Zm2.827,17.417h2.63c4.685,0,7.941-2.45,7.941-7.5s-3.256-7.512-7.941-7.512h-2.63v15.017Zm22.677-17.417h2.514l8.229,19.818h-3.031l-2.054-5.192h-8.887l-2.057,5.192h-2.971S542.52,102.193,543.522,99.762Zm4.713,12.282-1.914-4.882c-0.285-.736-1.515-3.787-1.544-4.041h-0.056c-0.028.254-1.227,3.218-1.544,4.041l-1.941,4.882h7Zm11.679-.539-6.83-11.743h3.173l3.714,6.608a29.268,29.268,0,0,1,1.427,2.821h0.028a29.787,29.787,0,0,1,1.432-2.821l3.741-6.608h3.084l-6.825,11.743v8.075h-2.944v-8.075Zm18.08-11.743h2.17l11.372,12.845c0.342,0.371,1.829,2.2,1.973,2.487l0.056-.031c-0.056-.279-0.056-2.568-0.056-3.075V99.762h2.743V119.58h-2.2l-11.373-12.845c-0.341-.365-1.829-2.2-1.969-2.481l-0.028.024c0.028,0.285.055,2.575,0.055,3.081V119.58h-2.742V99.762Zm23.468,0h10.912v2.376H604.29v5.754h7.859v2.376H604.29v6.942h8.257v2.37H601.462V99.762Zm19.761,2.4h-5.714v-2.4h14.257v2.4h-5.715V119.58h-2.828V102.162Zm10.9-2.4h3l4.115,11.774c0.144,0.452,1.114,3.385,1.142,3.836h0.06a39.282,39.282,0,0,1,1.2-3.836l4.287-11.774h2.257l4.284,11.774c0.172,0.452,1.171,3.385,1.2,3.836h0.056c0.057-.451,1.027-3.384,1.171-3.836l4.086-11.774h2.884l-7.058,19.818h-2.17l-4.627-12.362a32.406,32.406,0,0,1-.974-3.218h-0.057a33.1,33.1,0,0,1-1,3.218l-4.6,12.362h-2.174Zm31.009,9.912a10.546,10.546,0,1,1,10.543,10.3A10.112,10.112,0,0,1,663.132,109.674Zm18.171,0a7.645,7.645,0,1,0-7.656,7.79A7.424,7.424,0,0,0,681.3,109.674Zm6.985-9.912h5.8c3.746,0,6.657,1.924,6.657,5.872,0,3.081-2.057,5.11-5.085,5.593l6.144,8.353h-3.316l-5.8-8.075h-1.572v8.075h-2.828V99.762Zm5.487,9.46c2.627,0,4.114-1.386,4.114-3.557s-1.487-3.559-4.114-3.559h-2.659v7.116h2.659Zm11.231-9.46h2.828v9.206l8.285-9.206h3.429l-8.6,9.46,9,10.358h-3.541l-8.573-10.018V119.58h-2.828V99.762Z" transform="translate(-0.375 -0.031)"/>
  </g>
</svg>
