<svg height="48" viewBox="0 0 384 48" width="384" xmlns="http://www.w3.org/2000/svg">
  <g fill="none" fill-rule="evenodd">
    <g fill="#404040"><path
      d="m229.438 44.342h1.247c.409 0 .733-.101.971-.303.238-.201.357-.476.357-.824s-.119-.623-.357-.825c-.238-.201-.562-.302-.971-.302h-1.247zm-.925 3.198v-6.231h2.172c.696 0 1.249.171 1.658.513s.614.806.614 1.393c0 .58-.205 1.04-.614 1.379s-.962.509-1.658.509h-1.247v2.437zm6.314-2.346h2.272l-1.136-2.923zm3.179 2.346-.605-1.567h-2.877l-.605 1.567h-.935l2.493-6.231h.999l2.483 6.231zm2.914-3.29h1.274c.397 0 .713-.098.949-.293.234-.195.352-.458.352-.788s-.118-.592-.352-.788c-.236-.195-.552-.293-.949-.293h-1.274zm0 .761v2.529h-.925v-6.231h2.199c.69 0 1.237.167 1.64.5.403.332.605.786.605 1.36 0 .434-.123.8-.366 1.099-.245.3-.581.511-1.009.633l1.513 2.639h-1.054l-1.421-2.529z"/><path d="m247.096 47.54v-5.452h-2.098v-.779h5.122v.779h-2.098v5.452z"/><path
      d="m256.068 46.835c.403 0 .762-.103 1.076-.308.315-.204.56-.486.738-.847.177-.36.266-.779.266-1.255 0-.477-.089-.895-.266-1.256-.178-.36-.423-.643-.738-.848-.314-.204-.673-.306-1.076-.306-.404 0-.761.102-1.073.306-.311.205-.555.488-.733.848-.177.361-.265.779-.265 1.256 0 .476.088.895.265 1.255.178.361.422.643.733.847.312.205.669.308 1.073.308zm0 .806c-.587 0-1.106-.138-1.558-.413-.453-.275-.808-.653-1.068-1.136s-.389-1.038-.389-1.667c0-.63.129-1.186.389-1.668.26-.483.615-.862 1.068-1.137.452-.275.971-.412 1.558-.412.586 0 1.107.137 1.562.412s.812.654 1.072 1.137c.26.482.389 1.038.389 1.668 0 .629-.129 1.184-.389 1.667s-.617.861-1.072 1.136-.976.413-1.562.413z"/><path d="m261.318 47.54h-.925v-6.231h3.876v.779h-2.951v2.108h2.502v.779h-2.502z"/><path d="m269.098 47.54v-5.452h-2.098v-.779h5.122v.779h-2.098v5.452z"/><path d="m273.185 47.54v-6.231h.926v2.667h3.216v-2.667h.926v6.231h-.926v-2.768h-3.216v2.768z"/><path d="m279.884 47.54v-6.231h3.995v.779h-3.07v1.924h2.704v.779h-2.704v1.97h3.143v.779z"/><path
      d="m289.799 46.835c.507 0 .905-.153 1.195-.459.29-.305.436-.718.436-1.237v-3.83h.925v3.839c0 .776-.227 1.386-.683 1.828-.455.444-1.079.665-1.873.665-.795 0-1.418-.221-1.87-.665-.452-.442-.678-1.052-.678-1.828v-3.839h.925v3.83c0 .519.146.932.436 1.237.29.306.685.459 1.187.459m6.011.806c-.471 0-.92-.083-1.348-.247-.427-.166-.772-.386-1.035-.661l.522-.613c.245.226.533.403.866.531s.665.193.995.193c.403 0 .728-.078.976-.234.247-.156.37-.371.37-.646 0-.251-.088-.461-.265-.632-.178-.171-.48-.315-.907-.431l-.861-.229c-.557-.147-.961-.354-1.215-.623-.253-.269-.38-.62-.38-1.054 0-.354.094-.666.284-.935.189-.269.451-.478.784-.628.333-.149.71-.224 1.131-.224.446 0 .865.084 1.256.252s.736.402 1.035.701l-.559.605c-.263-.244-.536-.432-.82-.564-.284-.131-.585-.197-.903-.197-.384 0-.7.081-.944.243s-.366.387-.366.674c0 .263.087.467.261.613.174.147.441.27.802.367l.962.266c.556.153.962.366 1.219.641.256.275.384.617.384 1.027 0 .36-.094.676-.283.948-.19.272-.453.483-.788.633-.337.149-.728.224-1.173.224m4.573-2.447h2.272l-1.136-2.923zm3.179 2.346-.604-1.567h-2.878l-.605 1.567h-.934l2.492-6.231h.999l2.484 6.231z"/><path d="m308.822 47.54v-5.452h-2.098v-.779h5.122v.779h-2.098v5.452z"/><path
      d="m315.182 46.835c.403 0 .762-.103 1.077-.308.314-.204.56-.486.737-.847.178-.36.266-.779.266-1.255 0-.477-.088-.895-.266-1.256-.177-.36-.423-.643-.737-.848-.315-.204-.674-.306-1.077-.306s-.76.102-1.072.306c-.312.205-.556.488-.733.848-.177.361-.266.779-.266 1.256 0 .476.089.895.266 1.255.177.361.421.643.733.847.312.205.669.308 1.072.308zm0 .806c-.586 0-1.106-.138-1.558-.413s-.807-.653-1.067-1.136-.39-1.038-.39-1.667c0-.63.13-1.186.39-1.668.26-.483.615-.862 1.067-1.137s.972-.412 1.558-.412c.587 0 1.107.137 1.562.412.456.275.813.654 1.073 1.137.259.482.389 1.038.389 1.668 0 .629-.13 1.184-.389 1.667-.26.483-.617.861-1.073 1.136-.455.275-.975.413-1.562.413zm5.251-.88h1.265c.439 0 .816-.096 1.131-.289.315-.192.556-.462.724-.81.168-.349.252-.761.252-1.237 0-.477-.084-.89-.252-1.237-.168-.349-.409-.619-.724-.812-.315-.192-.692-.288-1.131-.288h-1.265zm-.926.779v-6.231h2.191c.61 0 1.145.13 1.603.389.458.26.814.623 1.068 1.09.253.468.38 1.013.38 1.637 0 .622-.127 1.168-.38 1.635-.254.467-.61.831-1.068 1.091-.458.259-.993.389-1.603.389zm7.606-2.346h2.273l-1.137-2.923zm3.18 2.346-.605-1.567h-2.877l-.605 1.567h-.935l2.493-6.231h.999l2.483 6.231z"/><path d="m334.087 45.066v2.474h-.926v-2.474l-2.19-3.757h1.091l1.567 2.877 1.567-2.877h1.072z"/><path d="m343.672 47.54-3.326-4.774v4.774h-.871v-6.231h.862l3.335 4.774v-4.774h.862v6.231z"/><path d="m346.165 47.54v-6.231h3.995v.779h-3.07v1.924h2.703v.779h-2.703v1.97h3.143v.779z"/><path d="m352.982 47.54v-5.452h-2.099v-.779h5.123v.779h-2.098v5.452z"/><path d="m362.054 47.54-1.457-4.967-1.457 4.967h-.962l-1.659-6.231h.916l1.265 4.93 1.457-4.93h.879l1.467 4.948 1.274-4.948h.897l-1.658 6.231z"/><path
      d="m368.349 46.835c.403 0 .762-.103 1.076-.308.315-.204.561-.486.738-.847.178-.36.266-.779.266-1.255 0-.477-.088-.895-.266-1.256-.177-.36-.423-.643-.738-.848-.314-.204-.673-.306-1.076-.306-.404 0-.761.102-1.072.306-.312.205-.556.488-.733.848-.178.361-.266.779-.266 1.256 0 .476.088.895.266 1.255.177.361.421.643.733.847.311.205.668.308 1.072.308zm0 .806c-.587 0-1.106-.138-1.558-.413s-.808-.653-1.068-1.136c-.259-.483-.389-1.038-.389-1.667 0-.63.13-1.186.389-1.668.26-.483.616-.862 1.068-1.137s.971-.412 1.558-.412c.586 0 1.107.137 1.562.412s.812.654 1.072 1.137c.26.482.39 1.038.39 1.668 0 .629-.13 1.184-.39 1.667s-.617.861-1.072 1.136-.976.413-1.562.413zm5.251-3.391h1.273c.397 0 .713-.098.949-.293.235-.195.352-.458.352-.788s-.117-.592-.352-.788c-.236-.195-.552-.293-.949-.293h-1.273zm0 .761v2.529h-.926v-6.231h2.199c.69 0 1.238.167 1.641.5.403.332.604.786.604 1.36 0 .434-.122.8-.366 1.099-.245.3-.581.511-1.008.633l1.512 2.639h-1.054l-1.42-2.529z"/><path d="m382.149 47.54-2.795-3.143v3.143h-.925v-6.231h.925v2.73l2.611-2.73h1.146l-2.776 2.859 2.978 3.372z"/></g><path d="m.257 34.18h8.37v-30.6h-8.37z" fill="#009bff" class='no-color-change'/><path
      d="m22.577 21.535v12.644h-7.83v-22.905h7.155l.405 3.016c.749-1.08 1.725-1.951 2.925-2.611 1.199-.659 2.52-.989 3.96-.989 2.49 0 4.484.81 5.985 2.43 1.5 1.62 2.25 3.945 2.25 6.974v14.085h-7.83v-13.184c0-1.35-.301-2.347-.9-2.993-.601-.645-1.44-.967-2.52-.967s-1.951.344-2.61 1.034c-.66.691-.99 1.846-.99 3.466m31.049 7.019c1.35 0 2.438-.532 3.263-1.597s1.237-2.482 1.237-4.252-.412-3.188-1.237-4.253-1.913-1.597-3.263-1.597c-1.38 0-2.482.532-3.307 1.597-.826 1.065-1.238 2.483-1.238 4.253s.412 3.187 1.238 4.252c.825 1.065 1.927 1.597 3.307 1.597zm5.04 5.625-.404-3.014c-.721 1.11-1.651 1.987-2.791 2.632s-2.46.967-3.959.967c-2.071 0-3.886-.51-5.446-1.53-1.56-1.019-2.775-2.437-3.645-4.252-.87-1.814-1.304-3.907-1.304-6.277s.434-4.455 1.304-6.255c.87-1.801 2.063-3.21 3.578-4.231 1.514-1.019 3.263-1.529 5.243-1.529 1.379 0 2.654.292 3.824.877s2.145 1.373 2.926 2.362v-12.599h7.829v32.849zm23.49-17.82c-2.55 0-4.08 1.351-4.59 4.051h8.73c-.21-1.47-.713-2.513-1.507-3.128-.796-.614-1.673-.923-2.633-.923zm10.71 15.481c-1.14.809-2.587 1.5-4.342 2.07-1.755.569-3.623.854-5.603.854-2.73 0-5.062-.502-6.997-1.507-1.935-1.004-3.42-2.408-4.455-4.208-1.035-1.799-1.553-3.87-1.553-6.21 0-2.369.51-4.469 1.53-6.299s2.43-3.263 4.23-4.298 3.9-1.552 6.3-1.552c2.34 0 4.402.502 6.188 1.507 1.784 1.006 3.179 2.4 4.185 4.185 1.005 1.786 1.507 3.878 1.507 6.278 0 .33-.022.675-.067 1.034-.045.36-.098.736-.158 1.125h-15.975c.72 2.641 2.685 3.961 5.895 3.961 1.44 0 2.715-.226 3.825-.675 1.11-.45 2.04-.9 2.79-1.351zm17.19-3.286c1.38 0 2.482-.532 3.308-1.597.825-1.065 1.237-2.482 1.237-4.252s-.412-3.188-1.237-4.253c-.826-1.065-1.928-1.597-3.308-1.597-1.35 0-2.438.532-3.262 1.597-.826 1.065-1.238 2.483-1.238 4.253s.412 3.187 1.238 4.252c.824 1.065 1.912 1.597 3.262 1.597zm2.115 6.21c-1.35 0-2.58-.285-3.69-.854-1.11-.57-2.04-1.351-2.79-2.341v10.935h-7.83v-31.23h7.155l.405 3.016c.72-1.08 1.688-1.951 2.903-2.611 1.215-.659 2.617-.989 4.207-.989 1.95 0 3.675.51 5.175 1.529 1.5 1.021 2.685 2.43 3.555 4.231.87 1.8 1.305 3.885 1.305 6.255s-.443 4.463-1.327 6.277c-.885 1.815-2.115 3.233-3.69 4.252-1.575 1.02-3.368 1.53-5.378 1.53zm25.335-18.405c-2.55 0-4.08 1.351-4.59 4.051h8.73c-.21-1.47-.713-2.513-1.507-3.128-.796-.614-1.673-.923-2.633-.923zm10.71 15.481c-1.14.809-2.588 1.5-4.342 2.07-1.756.569-3.623.854-5.603.854-2.73 0-5.062-.502-6.997-1.507-1.935-1.004-3.42-2.408-4.455-4.208-1.035-1.799-1.553-3.87-1.553-6.21 0-2.369.51-4.469 1.53-6.299s2.43-3.263 4.23-4.298 3.9-1.552 6.3-1.552c2.34 0 4.402.502 6.188 1.507 1.784 1.006 3.179 2.4 4.185 4.185 1.004 1.786 1.507 3.878 1.507 6.278 0 .33-.022.675-.067 1.034-.045.36-.098.736-.158 1.125h-15.975c.72 2.641 2.685 3.961 5.895 3.961 1.44 0 2.715-.226 3.825-.675 1.11-.45 2.04-.9 2.79-1.351zm12.825-10.305v12.644h-7.83v-22.905h7.155l.405 3.016c.749-1.08 1.725-1.951 2.925-2.611 1.199-.659 2.52-.989 3.96-.989 2.49 0 4.484.81 5.985 2.43 1.5 1.62 2.25 3.945 2.25 6.974v14.085h-7.83v-13.184c0-1.35-.3-2.347-.9-2.993-.601-.645-1.44-.967-2.52-.967s-1.95.344-2.61 1.034c-.66.691-.99 1.846-.99 3.466m31.05 7.019c1.349 0 2.437-.532 3.262-1.597s1.238-2.482 1.238-4.252-.413-3.188-1.238-4.253-1.913-1.597-3.262-1.597c-1.381 0-2.483.532-3.308 1.597s-1.238 2.483-1.238 4.253.413 3.187 1.238 4.252 1.927 1.597 3.308 1.597zm5.039 5.625-.405-3.014c-.72 1.11-1.65 1.987-2.79 2.632s-2.46.967-3.959.967c-2.07 0-3.886-.51-5.445-1.53-1.561-1.019-2.776-2.437-3.645-4.252-.871-1.814-1.305-3.907-1.305-6.277s.434-4.455 1.305-6.255c.869-1.801 2.062-3.21 3.577-4.231 1.515-1.019 3.263-1.529 5.243-1.529 1.379 0 2.654.292 3.825.877 1.17.585 2.144 1.373 2.924 2.362v-12.599h7.83v32.849zm23.49-17.82c-2.55 0-4.08 1.351-4.59 4.051h8.73c-.21-1.47-.713-2.513-1.507-3.128-.796-.614-1.673-.923-2.633-.923zm10.71 15.481c-1.14.809-2.587 1.5-4.342 2.07-1.755.569-3.623.854-5.603.854-2.73 0-5.062-.502-6.997-1.507-1.935-1.004-3.42-2.408-4.455-4.208-1.035-1.799-1.553-3.87-1.553-6.21 0-2.369.51-4.469 1.53-6.299s2.43-3.263 4.23-4.298 3.9-1.552 6.3-1.552c2.34 0 4.403.502 6.188 1.507 1.784 1.006 3.179 2.4 4.185 4.185 1.005 1.786 1.507 3.878 1.507 6.278 0 .33-.022.675-.067 1.034-.045.36-.098.736-.158 1.125h-15.975c.72 2.641 2.685 3.961 5.895 3.961 1.44 0 2.715-.226 3.825-.675 1.11-.45 2.04-.9 2.79-1.351zm12.825-10.305v12.644h-7.829v-22.905h7.154l.405 3.016c.75-1.08 1.725-1.951 2.925-2.611 1.2-.659 2.52-.989 3.96-.989 2.49 0 4.485.81 5.985 2.43s2.25 3.945 2.25 6.974v14.085h-7.83v-13.184c0-1.35-.3-2.347-.9-2.993-.6-.645-1.44-.967-2.52-.967s-1.95.344-2.61 1.034c-.66.691-.99 1.846-.99 3.466m36.81 11.159c-.93.631-1.996 1.133-3.195 1.508-1.2.375-2.461.562-3.78.562-2.46 0-4.418-.712-5.873-2.137-1.455-1.424-2.182-3.337-2.182-5.738v-9.764h-3.735v-5.851h4.095l.99-6.39h6.479v6.39h5.986v5.851h-5.986v8.774c0 .781.233 1.389.698 1.823.465.435 1.087.653 1.868.653.389 0 .787-.075 1.192-.226.405-.149.788-.329 1.148-.54z"
      fill="#009bff" class='no-color-change'/><path d="m310.169 31.344-6.975-16.154v18.989h-7.065v-30.599h9.36l8.01 19.125 7.785-19.125h9.36v30.599h-6.975v-19.215l-7.065 16.38z" fill="#404040"/><path
      d="m342.929 26.754c0 .691.254 1.253.765 1.688.509.436 1.17.652 1.98.652 1.08 0 1.986-.367 2.722-1.102.735-.735 1.102-1.657 1.102-2.768v-.764c-.81-.15-1.665-.226-2.565-.226-1.14 0-2.092.196-2.857.585-.765.391-1.147 1.036-1.147 1.935zm6.884 7.425-.404-3.014c-1.501 2.4-3.78 3.599-6.84 3.599-1.35 0-2.573-.292-3.668-.877s-1.965-1.387-2.61-2.407c-.646-1.02-.967-2.206-.967-3.556 0-2.549.997-4.529 2.992-5.94 1.995-1.409 4.627-2.114 7.898-2.114 1.019 0 2.099.09 3.239.269-.12-1.139-.607-2.002-1.462-2.587s-1.898-.878-3.127-.878c-1.08 0-2.168.203-3.263.608s-2.137.893-3.128 1.463l-2.654-5.04c1.499-.96 3.119-1.702 4.86-2.228 1.739-.524 3.479-.787 5.219-.787 2.1 0 3.99.359 5.671 1.08 1.679.72 2.999 1.815 3.96 3.284.959 1.471 1.44 3.33 1.44 5.58v13.545zm12.151 0v-22.905c1.259.27 2.534.405 3.824.405 1.32 0 2.656-.135 4.005-.405v22.905z"
      fill="#404040"/><path d="m375.283 34.18h7.83v-32.85h-7.83z" fill="#404040"/><path
      d="m365.788 9.474c-1.29 0-2.392-.457-3.307-1.372-.916-.915-1.373-2.017-1.373-3.308 0-1.289.457-2.392 1.373-3.307.915-.915 2.017-1.372 3.307-1.372s2.393.457 3.308 1.372 1.373 2.018 1.373 3.307c0 1.291-.458 2.393-1.373 3.308s-2.018 1.372-3.308 1.372"
      fill="#009bff" class='no-color-change'/></g>
</svg>