<svg id="Layer_1" data-name="Layer 1" xmlns="http://www.w3.org/2000/svg" viewBox="0 0 596.97 131.65" height="131.65" width="596.97">
    <defs>
        <style>
            .cls-1 {
                fill: #231f20;
            }
            .cls-2 {
                fill: #cb6f28;
            }
            .cls-3 {
                fill: #414042;
            }
        </style>
    </defs>
    <title>Anderson</title><polygon class="cls-1" points="16.17 44.11 8.99 42.16 8.99 41.61 33.18 41.61 33.18 42.16 26 44.11 26 94.52 33.18 96.47 33.18 97.02 8.99 97.02 8.99 96.47 16.17 94.52 16.17 44.11"/><path
        class="cls-1"
        d="M49.57,62.45l.16.08c4.06-4.06,8.43-5.77,13.19-5.77,6.4,0,12,3.28,12,13.19V94.52l5.93,2V97H60.5v-.55l5.62-2V68.22c0-5.85-2.65-8.12-6.63-8.12a17.71,17.71,0,0,0-9.91,3.43v31l5.62,2V97H34.9v-.55l5.85-2V61.75L34.9,60v-.47l14.2-2.81.47.39Z"/><path
        class="cls-1"
        d="M106.85,38.65l-5.93-1.72v-.47l14.28-2.81.47.39V93l5.85,1.72v.47L107.32,98l-.47-.39V92.26l-.16-.08C103,95.93,98.74,98,93.82,98c-8,0-15.37-6.94-15.37-20.29,0-14,9.52-20.91,18.81-20.91a20.67,20.67,0,0,1,9.6,2.19Zm0,21.38a19.88,19.88,0,0,0-7.57-1.33C93.12,58.7,88,64.09,88,77.2,88,89.76,92,94.44,97.64,94.44a16.11,16.11,0,0,0,9.21-3.36Z"/><path
        class="cls-1"
        d="M152.35,92.73A24,24,0,0,1,137.84,98C127.69,98,119,91.56,119,78.13c0-14.36,9.67-21.38,19-21.38,10.85,0,17.4,7.73,15.06,20.06H128.47v.47c0,12.72,4.61,17.09,12.41,17.09a35.76,35.76,0,0,0,11.31-2.11ZM128.47,75.87l16-.62c.78-11.31-2.11-17.48-6.55-17.48-4.76,0-9.13,5.46-9.44,18.1"/><path
        class="cls-1"
        d="M167,111.69l7.49,2v.55H152.35v-.55l5.85-2V61.75L152.35,60v-.47l14.21-2.81.47.39v5.31l.16.08c3.75-3.75,7.88-5.77,12.88-5.77,8,0,15.38,6.94,15.38,20.29,0,14-9.52,20.91-18.81,20.91a20.45,20.45,0,0,1-9.6-2.19Zm0-17A19.89,19.89,0,0,0,174.59,96c6.17,0,11.32-5.38,11.32-18.57,0-12.49-4.14-17.17-9.68-17.17A16.12,16.12,0,0,0,167,63.62Z"/><path
        class="cls-1"
        d="M231.33,92.73A24,24,0,0,1,216.81,98c-10.14,0-18.88-6.4-18.88-19.82,0-14.36,9.67-21.38,19-21.38,10.84,0,17.4,7.73,15.06,20.06H207.45v.47c0,12.72,4.61,17.09,12.41,17.09a35.78,35.78,0,0,0,11.32-2.11ZM207.45,75.87l16-.62c.78-11.31-2.11-17.48-6.55-17.48-4.76,0-9.13,5.46-9.44,18.1"/><path
        class="cls-1"
        d="M247.41,62.45l.16.08c4.06-4.06,8.43-5.77,13.19-5.77,6.4,0,12,3.28,12,13.19V94.52l5.93,2V97H258.33v-.55l5.62-2V68.22c0-5.85-2.65-8.12-6.63-8.12a17.71,17.71,0,0,0-9.91,3.43v31l5.62,2V97H232.74v-.55l5.85-2V61.75L232.74,60v-.47l14.2-2.81.47.39Z"/><path
        class="cls-1"
        d="M304.84,38.65l-5.93-1.72v-.47l14.28-2.81.47.39V93l5.85,1.72v.47L305.31,98l-.47-.39V92.26l-.16-.08c-3.75,3.75-8,5.77-12.88,5.77-8,0-15.37-6.94-15.37-20.29,0-14,9.52-20.91,18.81-20.91a20.67,20.67,0,0,1,9.6,2.19Zm0,21.38a19.88,19.88,0,0,0-7.57-1.33c-6.17,0-11.32,5.38-11.32,18.5,0,12.56,4.06,17.25,9.68,17.25a16.11,16.11,0,0,0,9.21-3.36Z"/><path
        class="cls-1"
        d="M350.34,92.73A24,24,0,0,1,335.83,98c-10.14,0-18.89-6.4-18.89-19.82,0-14.36,9.67-21.38,19-21.38,10.85,0,17.4,7.73,15.06,20.06H326.46v.47c0,12.72,4.61,17.09,12.41,17.09a35.76,35.76,0,0,0,11.31-2.11ZM326.46,75.87l16-.62c.78-11.31-2.11-17.48-6.55-17.48-4.76,0-9.13,5.46-9.44,18.1"/><path
        class="cls-1"
        d="M366.42,62.45l.16.08c4.06-4.06,8.43-5.77,13.19-5.77,6.4,0,12,3.28,12,13.19V94.52l5.93,2V97H377.35v-.55l5.62-2V68.22c0-5.85-2.65-8.12-6.63-8.12a17.7,17.7,0,0,0-9.91,3.43v31l5.62,2V97H351.75v-.55l5.85-2V61.75L351.75,60v-.47L366,56.75l.47.39Z"/><path class="cls-1" d="M421.13,94a19.19,19.19,0,0,1-11.32,4c-6.48,0-10.93-4.06-10.93-12.33v-26h-6.4V58.47h6.4l8.27-11.39h.54V58.47h12.17v1.17H407.7V88.36c0,6.95,7.1,7.34,13.19,5.07Z"/><polygon
        class="cls-1"
        points="485.9 57.38 484.96 48.95 484.81 48.95 482.23 57.06 468.96 97.02 463.66 97.02 449.77 56.36 447.19 48.32 447.04 48.32 446.1 56.59 441.81 93.35 451.25 96.55 451.25 97.02 433.22 97.02 433.22 96.55 440.32 93.35 446.25 44.89 438.76 42.16 438.76 41.61 454.92 41.61 467.87 79.62 470.52 87.73 470.68 87.73 473.26 79.62 485.66 41.61 501.66 41.61 501.66 42.16 494.01 44.11 500.26 94.52 507.13 96.47 507.13 97.02 482.78 97.02 482.78 96.47 490.5 94.52 485.9 57.38"/><path
        class="cls-1"
        d="M543.42,95.15A10.75,10.75,0,0,1,536.16,98a7.64,7.64,0,0,1-7.73-6.24l-.16-.08c-3.67,4.29-8.35,6.32-12.48,6.32-5.78,0-10.46-3.51-10.46-9.68,0-7.73,7.26-12.88,22.87-13.81,0-10.69-3.28-14.67-8.82-14.67a28.49,28.49,0,0,0-11.31,2.65l-.16-.55c4.37-3,9.67-5.15,15-5.15C530.54,56.75,537,61,537,72.51V90.85c0,3.12,1.48,4.21,6.4,3.75ZM514.78,87c0,4.84,2.42,6.71,5.38,6.71a12.42,12.42,0,0,0,8-3V75.4c-8.19.39-13.42,5-13.42,11.55"/><path class="cls-1" d="M559.26,94.52l5.93,2V97h-20.6v-.55l5.85-2V61.75L544.59,60v-.47l14.2-2.81.47.39Zm-4.37-55.64a5.42,5.42,0,1,1-5.46,5.46,5.29,5.29,0,0,1,5.46-5.46"/><polygon class="cls-1" points="581.66 94.52 587.59 96.47 587.59 97.02 566.99 97.02 566.99 96.47 572.84 94.52 572.84 38.65 566.99 36.93 566.99 36.46 581.19 33.65 581.66 34.04 581.66 94.52"/><path
        class="cls-2 no-color-change"
        d="M262.2,57.11c1.79.29,2.48.85,3.32,1,.3,0,.51-.44-.17-1.06a5.57,5.57,0,0,0-2-1.06c-2-.74-3.47-.1-3.69-.5s0-.74-1-.45-1.27-.28-2.31-.65c-1.33-.45-1.73-1.3-.45-1A20.18,20.18,0,0,0,261,54,21.15,21.15,0,0,0,270,52.38a35.37,35.37,0,0,0,6.13-2.76A38.39,38.39,0,0,0,279.26,47a19.75,19.75,0,0,0,4.44-5.83c1.5-3.14,1.51-3.65,4.09-6.13a24.12,24.12,0,0,0,3.31-3.84c1.5-2.21,2.75-1.72,5-2a32.87,32.87,0,0,0,4.44-.89c.48-.25.24-.65-.43-.72-1-.12-2.05-.14-3.08-.21-.39,0-.45-.15-.07-.25s.81,0,1.08-.08a48.53,48.53,0,0,1,5-.54c.37,0,1.57,0,1.41-.62s-3.25-.91-3.7-1a37.38,37.38,0,0,0-4.84-.38c-2.2.08-1.75-.24-3.21-1.24-4.26-2.91-8.24-4-13.43-2.49-3.88,1.15-7.83,4-10.33,4.71-2,.56-4,.34-6,.54a40.33,40.33,0,0,0-6.41,1.18,31.92,31.92,0,0,0-8.85,4c-1.26.73-1,1-2.6.34a47.44,47.44,0,0,1-5.61-2.66c-.36-.25-1.68-1.56-2.14-2-1.86-1.66-2.66-2.32-4.66-3.84-1.38-1-2.06-1.87-3.31-2.72a65.14,65.14,0,0,0-6.13-4.18c-1.06-.58-6.46-4.63-6.73-2.7a2.45,2.45,0,0,0,.92,2c.57.49,1.1.81,1.88,1.51,1.26,1.12,2.64,2.1,3.89,3.24.94.87,1.88,1.74,2.84,2.55.8.64,1.6,1.29,2.39,1.95,1.71,1.38,1,1.94,1.93,3.21.51.73,1,.16,1.31,2s.53,1.6,1.61,2.92a6.58,6.58,0,0,1,.95,2.57,7.53,7.53,0,0,0,2.87,4.28c.75.57-.16.63-.4,1.37s.91.86-.51,2.16-.22.76-1.41,2c-.45.46-1.27,1.42-.86,2.13s1.35.08,1.09,1.39c-.1.45-.6,1.92.77,1.79.9-.09,2-1,2.84-.42a2.42,2.42,0,0,0,1.9.36c2.3-.26,4.47-1.12,6.74-1.54.22,0,.49-.46,1.25.31,1,1,.75,1.9,2.57,2.6.68.25.13.64.49,1.73s2,1.44,3,2c.57.33,1.79,1,.87,1.56-.67.38-2,.56-1.93,1.47,0,.65.61.48,1,.18A5.54,5.54,0,0,1,257,57.44c1.41-.27,1.49.37,2.06,0,.42-.29.65,0,1.06.11a5.62,5.62,0,0,1,2.41,1.67c.73,1,1.4-.52-.34-1.69L262,57.3c-.21-.19-.15-.26.23-.19"/><path class="cls-3" d="M307.59,110.52H311c2.4,0,4,1.44,4,3.65s-1.64,3.65-4,3.65h-1.74v4.56h-1.67Zm3.24,5.9a2.26,2.26,0,1,0,0-4.5h-1.57v4.5Z"/><path class="cls-3" d="M319.78,110.52h1.49l4.87,11.86h-1.79l-1.21-3.11h-5.26l-1.22,3.11h-1.76S319.19,112,319.78,110.52Zm2.79,7.35L321.43,115c-.17-.44-.9-2.27-.91-2.42h0c0,.15-.73,1.93-.91,2.42l-1.15,2.92Z"/><path class="cls-3" d="M327.83,110.52h3.43c2.21,0,3.94,1.15,3.94,3.51a3.29,3.29,0,0,1-3,3.35l3.63,5h-2l-3.43-4.83h-.93v4.83h-1.67Zm3.24,5.66c1.55,0,2.43-.83,2.43-2.13s-.88-2.13-2.43-2.13H329.5v4.26Z"/><path class="cls-3" d="M339.84,112h-3.38v-1.44h8.43V112h-3.38v10.43h-1.67Z"/><path class="cls-3" d="M349.22,116.46a6.24,6.24,0,1,1,6.24,6.17A6,6,0,0,1,349.22,116.46Zm10.75,0a4.52,4.52,0,1,0-4.53,4.66A4.42,4.42,0,0,0,360,116.46Z"/><path class="cls-3" d="M364.1,110.52h6V112h-4.31v3.82h4.17v1.44h-4.17v5.17H364.1Z"/><path class="cls-3" d="M377.65,112h-3.38v-1.44h8.43V112h-3.38v10.43h-1.67Z"/><path class="cls-3" d="M384.46,110.52h1.67v4.87h6.22v-4.87H394v11.86h-1.67v-5.56h-6.22v5.56h-1.67Z"/><path class="cls-3" d="M397.1,110.52h6.46v1.42h-4.78v3.44h4.65v1.42h-4.65V121h4.88v1.42H397.1Z"/><path class="cls-3" d="M409.26,118.3v-7.77H411v7.27c0,2.06.88,3.33,2.86,3.33s2.87-1.27,2.87-3.33v-7.27h1.69v7.77c0,2.6-1.67,4.33-4.56,4.33S409.26,120.9,409.26,118.3Z"/><path
        class="cls-3"
        d="M420.12,120.24l1.13-1a3.44,3.44,0,0,0,3,1.87,2,2,0,0,0,2.31-2c0-1.4-1.17-1.87-2.62-2.45s-3-1.34-3-3.23,1.45-3.17,3.58-3.17a4,4,0,0,1,3.48,1.79l-1.13,1a2.69,2.69,0,0,0-2.35-1.29c-1.15,0-1.91.59-1.91,1.59,0,1.23,1.18,1.64,2.21,2,1.67.66,3.4,1.46,3.4,3.63s-1.52,3.6-4,3.6A4.6,4.6,0,0,1,420.12,120.24Z"/><path class="cls-3" d="M434,110.52h1.49l4.87,11.86h-1.79l-1.21-3.11h-5.26l-1.22,3.11H429.1S433.4,112,434,110.52Zm2.79,7.35L435.64,115c-.17-.44-.9-2.27-.91-2.42h0c0,.15-.73,1.93-.91,2.42l-1.15,2.92Z"/><path class="cls-3" d="M447.4,112H444v-1.44h8.43V112h-3.38v10.43H447.4Z"/><path class="cls-3" d="M453.08,116.46a6.24,6.24,0,1,1,6.24,6.17A6,6,0,0,1,453.08,116.46Zm10.75,0a4.52,4.52,0,1,0-4.53,4.66A4.42,4.42,0,0,0,463.83,116.46Z"/><path class="cls-3" d="M468,110.52h3.36c3.79,0,6.29,2.16,6.29,5.93s-2.52,5.93-6.29,5.93H468Zm1.67,10.43h1.56c2.77,0,4.7-1.47,4.7-4.49s-1.93-4.5-4.7-4.5h-1.56Z"/><path class="cls-3" d="M483,110.52h1.49l4.87,11.86H487.6l-1.21-3.11h-5.26l-1.22,3.11h-1.76S482.45,112,483,110.52Zm2.79,7.35L484.7,115c-.17-.44-.9-2.27-.91-2.42h0c0,.15-.73,1.93-.91,2.42l-1.15,2.92Z"/><path class="cls-3" d="M492.74,117.55l-4-7h1.88l2.2,4a17.51,17.51,0,0,1,.84,1.69h0a18,18,0,0,1,.85-1.69l2.21-4h1.82l-4,7v4.83h-1.74Z"/><path class="cls-3" d="M503.43,110.52h1.28l6.73,7.69c.2.22,1.08,1.32,1.17,1.49l0,0c0-.17,0-1.54,0-1.84v-7.32h1.62v11.86h-1.3l-6.73-7.69c-.2-.22-1.08-1.32-1.16-1.49h0c0,.17,0,1.54,0,1.84v7.31h-1.62Z"/><path class="cls-3" d="M517.31,110.52h6.45v1.42H519v3.44h4.65v1.42H519V121h4.88v1.42h-6.56Z"/><path class="cls-3" d="M529,112h-3.38v-1.44H534V112h-3.38v10.43H529Z"/><path
        class="cls-3"
        d="M535.44,110.52h1.77l2.43,7c.09.27.66,2,.68,2.3h0a23.67,23.67,0,0,1,.71-2.3l2.54-7h1.34l2.53,7c.1.27.69,2,.71,2.3h0c0-.27.61-2,.69-2.3l2.42-7H553l-4.17,11.86h-1.28l-2.74-7.4a19.79,19.79,0,0,1-.58-1.93h0a19.88,19.88,0,0,1-.59,1.93l-2.72,7.4h-1.29Z"/><path class="cls-3" d="M553.78,116.46a6.24,6.24,0,1,1,6.24,6.17A6,6,0,0,1,553.78,116.46Zm10.75,0a4.52,4.52,0,1,0-4.53,4.66A4.42,4.42,0,0,0,564.53,116.46Z"/><path class="cls-3" d="M568.66,110.52h3.43c2.21,0,3.94,1.15,3.94,3.51a3.29,3.29,0,0,1-3,3.35l3.63,5h-2l-3.43-4.83h-.93v4.83h-1.67Zm3.24,5.66c1.55,0,2.43-.83,2.43-2.13s-.88-2.13-2.43-2.13h-1.57v4.26Z"/><path class="cls-3" d="M578.55,110.52h1.67V116l4.9-5.51h2l-5.09,5.66,5.32,6.2h-2.09l-5.07-6v6h-1.67Z"/></svg>
