<svg xmlns="http://www.w3.org/2000/svg" width="318" height="45" viewBox="0 0 318 45">
  <g fill="none" fill-rule="evenodd">
    <path fill="#009BFF" class='no-color-change' d="M8.457 15.285L12.507 15.285C13.796 15.285 14.817 14.947 15.567 14.273 16.317 13.598 16.692 12.705 16.692 11.595 16.692 10.485 16.317 9.592 15.567 8.918 14.817 8.242 13.796 7.905 12.507 7.905L8.457 7.905 8.457 15.285zM.357 31.89L.357 1.29 13.317 1.29C16.917 1.29 19.767 2.212 21.867 4.058 23.967 5.902 25.017 8.415 25.017 11.595 25.017 13.665 24.545 15.458 23.599 16.973 22.655 18.487 21.327 19.658 19.617 20.482 17.907 21.308 15.867 21.72 13.497 21.72L8.457 21.72 8.457 31.89.357 31.89zM39.462 26.265C40.841 26.265 41.943 25.732 42.769 24.668 43.594 23.603 44.006 22.186 44.006 20.415 44.006 18.645 43.594 17.235 42.769 16.185 41.943 15.135 40.841 14.61 39.462 14.61 38.081 14.61 36.979 15.135 36.154 16.185 35.328 17.235 34.916 18.645 34.916 20.415 34.916 22.186 35.328 23.603 36.154 24.668 36.979 25.732 38.081 26.265 39.462 26.265zM39.462 32.475C37.001 32.475 34.833 31.957 32.959 30.923 31.084 29.888 29.613 28.47 28.549 26.67 27.484 24.87 26.952 22.785 26.952 20.415 26.952 18.045 27.484 15.96 28.549 14.16 29.613 12.36 31.084 10.95 32.959 9.93 34.833 8.91 37.001 8.4 39.462 8.4 41.921 8.4 44.089 8.91 45.964 9.93 47.838 10.95 49.309 12.36 50.374 14.16 51.438 15.96 51.972 18.045 51.972 20.415 51.972 22.785 51.438 24.87 50.374 26.67 49.309 28.47 47.838 29.888 45.964 30.923 44.089 31.957 41.921 32.475 39.462 32.475zM64.571 32.475C62.591 32.475 60.739 32.16 59.014 31.53 57.288 30.9 55.736 30 54.356 28.83L57.686 24.42C58.736 25.26 59.869 25.943 61.084 26.467 62.299 26.993 63.491 27.255 64.661 27.255 65.441 27.255 66.063 27.12 66.529 26.85 66.994 26.58 67.226 26.175 67.226 25.635 67.226 25.065 66.963 24.607 66.439 24.263 65.914 23.918 64.976 23.58 63.626 23.25L61.466 22.71C57.176 21.57 55.031 19.275 55.031 15.825 55.031 14.295 55.451 12.975 56.291 11.865 57.131 10.756 58.286 9.9 59.756 9.3 61.226 8.7 62.936 8.4 64.886 8.4 66.806 8.4 68.614 8.7 70.309 9.3 72.003 9.9 73.556 10.77 74.966 11.91L71.546 16.41C70.496 15.57 69.386 14.896 68.216 14.385 67.046 13.875 65.951 13.62 64.932 13.62 63.281 13.62 62.456 14.16 62.456 15.24 62.456 15.72 62.704 16.11 63.199 16.41 63.694 16.71 64.391 16.981 65.291 17.22L68.216 18.03C70.406 18.63 72.026 19.53 73.076 20.73 74.126 21.93 74.651 23.356 74.651 25.005 74.651 26.506 74.231 27.818 73.391 28.943 72.551 30.068 71.373 30.938 69.859 31.553 68.344 32.167 66.581 32.475 64.571 32.475M95.801 30.405C94.871 31.035 93.805 31.538 92.606 31.912 91.406 32.287 90.146 32.475 88.826 32.475 86.366 32.475 84.408 31.763 82.953 30.337 81.498 28.913 80.771 27 80.771 24.6L80.771 14.835 77.036 14.835 77.036 8.985 81.131 8.985 82.121 2.595 88.601 2.595 88.601 8.985 94.586 8.985 94.586 14.835 88.601 14.835 88.601 23.61C88.601 24.391 88.833 24.998 89.298 25.433 89.763 25.868 90.386 26.085 91.166 26.085 91.555 26.085 91.953 26.01 92.358 25.86 92.763 25.71 93.146 25.53 93.506 25.32L95.801 30.405"/>
    <path fill="#404040" d="M124.961 32.475C121.84 32.475 119.103 31.8 116.748 30.45 114.392 29.1 112.547 27.232 111.213 24.848 109.878 22.462 109.211 19.695 109.211 16.545 109.211 13.395 109.878 10.635 111.213 8.265 112.547 5.896 114.392 4.043 116.748 2.707 119.103 1.373 121.84.705 124.961.705 127.6.705 129.978 1.238 132.093 2.303 134.208 3.368 136.015 4.905 137.515 6.915L130.9 10.83C130.12 9.84 129.242 9.06 128.268 8.49 127.293 7.92 126.16 7.635 124.87 7.635 122.74 7.635 121.015 8.438 119.695 10.043 118.375 11.648 117.715 13.815 117.715 16.545 117.715 19.275 118.375 21.458 119.695 23.092 121.015 24.728 122.74 25.545 124.87 25.545 126.19 25.545 127.36 25.223 128.38 24.577 129.4 23.933 130.255 23.175 130.945 22.305L137.515 26.22C136.045 28.26 134.237 29.813 132.093 30.878 129.948 31.942 127.57 32.475 124.961 32.475M148.99 23.025L148.99 31.89 141.16 31.89 141.16 8.985 148.315 8.985 148.81 12.81C149.29 11.58 150.077 10.582 151.173 9.817 152.267 9.053 153.535 8.67 154.975 8.67 155.785 8.67 156.4 8.775 156.82 8.985L156.82 16.14C156.49 16.021 156.123 15.931 155.718 15.87 155.313 15.81 154.855 15.78 154.345 15.78 152.785 15.78 151.502 16.358 150.498 17.513 149.492 18.668 148.99 20.505 148.99 23.025M171.445 14.07C168.894 14.07 167.365 15.42 166.855 18.12L175.585 18.12C175.374 16.65 174.872 15.607 174.077 14.992 173.282 14.378 172.405 14.07 171.445 14.07zM182.155 29.55C181.014 30.36 179.567 31.05 177.812 31.62 176.057 32.19 174.19 32.475 172.21 32.475 169.479 32.475 167.147 31.972 165.212 30.967 163.277 29.963 161.792 28.56 160.757 26.76 159.722 24.96 159.205 22.89 159.205 20.55 159.205 18.181 159.715 16.08 160.735 14.25 161.754 12.42 163.165 10.987 164.965 9.952 166.764 8.918 168.864 8.4 171.264 8.4 173.605 8.4 175.667 8.902 177.452 9.907 179.237 10.913 180.632 12.308 181.637 14.092 182.642 15.878 183.145 17.97 183.145 20.37 183.145 20.7 183.122 21.045 183.077 21.405 183.032 21.765 182.979 22.141 182.92 22.53L166.945 22.53C167.665 25.17 169.629 26.49 172.84 26.49 174.28 26.49 175.555 26.265 176.665 25.815 177.774 25.365 178.704 24.915 179.455 24.465L182.155 29.55zM195.655 32.475C193.675 32.475 191.822 32.16 190.097 31.53 188.371 30.9 186.819 30 185.439 28.83L188.769 24.42C189.819 25.26 190.952 25.943 192.167 26.467 193.382 26.993 194.575 27.255 195.744 27.255 196.524 27.255 197.146 27.12 197.612 26.85 198.077 26.58 198.309 26.175 198.309 25.635 198.309 25.065 198.047 24.607 197.522 24.263 196.997 23.918 196.059 23.58 194.709 23.25L192.55 22.71C188.259 21.57 186.115 19.275 186.115 15.825 186.115 14.295 186.534 12.975 187.374 11.865 188.214 10.756 189.369 9.9 190.84 9.3 192.309 8.7 194.019 8.4 195.97 8.4 197.889 8.4 199.697 8.7 201.392 9.3 203.087 9.9 204.639 10.77 206.05 11.91L202.63 16.41C201.579 15.57 200.47 14.896 199.3 14.385 198.13 13.875 197.034 13.62 196.014 13.62 194.364 13.62 193.539 14.16 193.539 15.24 193.539 15.72 193.787 16.11 194.282 16.41 194.777 16.71 195.474 16.981 196.374 17.22L199.3 18.03C201.489 18.63 203.109 19.53 204.159 20.73 205.209 21.93 205.735 23.356 205.735 25.005 205.735 26.506 205.314 27.818 204.474 28.943 203.634 30.068 202.456 30.938 200.942 31.553 199.427 32.167 197.664 32.475 195.655 32.475M220.72 32.475C218.379 32.475 216.302 31.972 214.487 30.967 212.671 29.963 211.239 28.56 210.189 26.76 209.139 24.96 208.615 22.861 208.615 20.46 208.615 18.06 209.139 15.96 210.189 14.16 211.239 12.36 212.671 10.958 214.487 9.952 216.302 8.947 218.379 8.445 220.72 8.445 222.789 8.445 224.604 8.827 226.164 9.592 227.724 10.357 229.104 11.58 230.305 13.26L225.129 17.04C224.709 16.41 224.162 15.893 223.487 15.487 222.812 15.082 222.084 14.88 221.305 14.88 219.954 14.88 218.829 15.383 217.93 16.388 217.029 17.393 216.579 18.75 216.579 20.46 216.579 22.17 217.029 23.527 217.93 24.532 218.829 25.538 219.954 26.04 221.305 26.04 222.084 26.04 222.812 25.837 223.487 25.433 224.162 25.027 224.709 24.51 225.129 23.88L230.305 27.66C229.104 29.34 227.724 30.563 226.164 31.327 224.604 32.092 222.789 32.475 220.72 32.475M244.659 14.07C242.109 14.07 240.579 15.42 240.069 18.12L248.799 18.12C248.589 16.65 248.086 15.607 247.291 14.992 246.496 14.378 245.619 14.07 244.659 14.07zM255.369 29.55C254.228 30.36 252.782 31.05 251.027 31.62 249.271 32.19 247.404 32.475 245.424 32.475 242.694 32.475 240.362 31.972 238.427 30.967 236.492 29.963 235.007 28.56 233.971 26.76 232.936 24.96 232.419 22.89 232.419 20.55 232.419 18.181 232.929 16.08 233.949 14.25 234.969 12.42 236.379 10.987 238.179 9.952 239.979 8.918 242.078 8.4 244.479 8.4 246.819 8.4 248.881 8.902 250.666 9.907 252.451 10.913 253.846 12.308 254.851 14.092 255.856 15.878 256.359 17.97 256.359 20.37 256.359 20.7 256.337 21.045 256.291 21.405 256.246 21.765 256.194 22.141 256.134 22.53L240.159 22.53C240.879 25.17 242.844 26.49 246.054 26.49 247.494 26.49 248.769 26.265 249.879 25.815 250.989 25.365 251.919 24.915 252.669 24.465L255.369 29.55zM268.194 19.245L268.194 31.89 260.364 31.89 260.364 8.985 267.519 8.985 267.924 12C268.673 10.92 269.649 10.05 270.849 9.39 272.048 8.731 273.369 8.4 274.809 8.4 277.299 8.4 279.293 9.21 280.794 10.83 282.294 12.45 283.044 14.775 283.044 17.805L283.044 31.89 275.214 31.89 275.214 18.705C275.214 17.355 274.913 16.358 274.314 15.712 273.713 15.067 272.874 14.745 271.794 14.745 270.714 14.745 269.844 15.09 269.184 15.78 268.524 16.471 268.194 17.625 268.194 19.245M305.003 30.405C304.073 31.035 303.008 31.538 301.808 31.912 300.608 32.287 299.348 32.475 298.028 32.475 295.568 32.475 293.611 31.763 292.156 30.337 290.701 28.913 289.973 27 289.973 24.6L289.973 14.835 286.238 14.835 286.238 8.985 290.333 8.985 291.323 2.595 297.803 2.595 297.803 8.985 303.788 8.985 303.788 14.835 297.803 14.835 297.803 23.61C297.803 24.391 298.035 24.998 298.501 25.433 298.966 25.868 299.588 26.085 300.368 26.085 300.758 26.085 301.156 26.01 301.561 25.86 301.966 25.71 302.348 25.53 302.708 25.32L305.003 30.405"/>
    <path fill="#009BFF" class='no-color-change' d="M312.743,32.385 C311.783,32.385 310.905,32.152 310.111,31.688 C309.315,31.223 308.685,30.593 308.221,29.798 C307.755,29.003 307.523,28.125 307.523,27.165 C307.523,26.205 307.755,25.328 308.221,24.532 C308.685,23.738 309.315,23.108 310.111,22.643 C310.905,22.178 311.783,21.945 312.743,21.945 C313.703,21.945 314.58,22.178 315.376,22.643 C316.17,23.108 316.8,23.738 317.265,24.532 C317.73,25.328 317.963,26.205 317.963,27.165 C317.963,28.125 317.73,29.003 317.265,29.798 C316.8,30.593 316.17,31.223 315.376,31.688 C314.58,32.152 313.703,32.385 312.743,32.385"/>
    <path fill="#404040" d="M1.245 41.475L2.442 41.475C2.835 41.475 3.146 41.378 3.375 41.185 3.603 40.992 3.718 40.727 3.718 40.393 3.718 40.058 3.603 39.795 3.375 39.601 3.146 39.407 2.835 39.311 2.442 39.311L1.245 39.311 1.245 41.475zM.357 44.546L.357 38.563 2.442 38.563C3.111 38.563 3.642 38.727 4.035 39.055 4.428 39.384 4.624 39.83 4.624 40.393 4.624 40.95 4.428 41.392 4.035 41.717 3.642 42.043 3.111 42.206 2.442 42.206L1.245 42.206 1.245 44.546.357 44.546zM6.419 42.293L8.601 42.293 7.51 39.487 6.419 42.293zM9.472 44.546L8.891 43.041 6.129 43.041 5.548 44.546 4.65 44.546 7.044 38.563 8.003 38.563 10.387 44.546 9.472 44.546zM12.27 41.387L13.493 41.387C13.874 41.387 14.178 41.294 14.404 41.106 14.63 40.918 14.742 40.666 14.742 40.349 14.742 40.032 14.63 39.78 14.404 39.592 14.178 39.405 13.874 39.311 13.493 39.311L12.27 39.311 12.27 41.387zM12.27 42.117L12.27 44.546 11.381 44.546 11.381 38.563 13.493 38.563C14.156 38.563 14.681 38.723 15.068 39.042 15.455 39.362 15.649 39.798 15.649 40.349 15.649 40.766 15.531 41.118 15.297 41.405 15.062 41.692 14.739 41.895 14.329 42.012L15.781 44.546 14.769 44.546 13.405 42.117 12.27 42.117z"/>
    <polyline fill="#404040" points="18.2 44.546 18.2 39.311 16.185 39.311 16.185 38.563 21.104 38.563 21.104 39.311 19.089 39.311 19.089 44.546 18.2 44.546"/>
    <path fill="#404040" d="M26.814,43.868 C27.201,43.868 27.546,43.77 27.848,43.574 C28.15,43.377 28.386,43.106 28.556,42.76 C28.726,42.414 28.811,42.012 28.811,41.554 C28.811,41.097 28.726,40.695 28.556,40.349 C28.386,40.003 28.15,39.732 27.848,39.535 C27.546,39.339 27.201,39.24 26.814,39.24 C26.427,39.24 26.084,39.339 25.785,39.535 C25.485,39.732 25.251,40.003 25.08,40.349 C24.91,40.695 24.825,41.097 24.825,41.554 C24.825,42.012 24.91,42.414 25.08,42.76 C25.251,43.106 25.485,43.377 25.785,43.574 C26.084,43.77 26.427,43.868 26.814,43.868 Z M26.814,44.643 C26.251,44.643 25.752,44.51 25.318,44.247 C24.884,43.983 24.542,43.619 24.293,43.156 C24.044,42.692 23.919,42.158 23.919,41.554 C23.919,40.95 24.044,40.416 24.293,39.953 C24.542,39.49 24.884,39.126 25.318,38.862 C25.752,38.598 26.251,38.466 26.814,38.466 C27.377,38.466 27.877,38.598 28.314,38.862 C28.751,39.126 29.094,39.49 29.344,39.953 C29.593,40.416 29.717,40.95 29.717,41.554 C29.717,42.158 29.593,42.692 29.344,43.156 C29.094,43.619 28.751,43.983 28.314,44.247 C27.877,44.51 27.377,44.643 26.814,44.643 Z"/>
    <polyline fill="#404040" points="31.856 44.546 30.967 44.546 30.967 38.563 34.689 38.563 34.689 39.311 31.856 39.311 31.856 41.335 34.258 41.335 34.258 42.082 31.856 42.082 31.856 44.546"/>
    <polyline fill="#404040" points="39.325 44.546 39.325 39.311 37.31 39.311 37.31 38.563 42.229 38.563 42.229 39.311 40.214 39.311 40.214 44.546 39.325 44.546"/>
    <polyline fill="#404040" points="43.249 44.546 43.249 38.563 44.138 38.563 44.138 41.123 47.226 41.123 47.226 38.563 48.115 38.563 48.115 44.546 47.226 44.546 47.226 41.889 44.138 41.889 44.138 44.546 43.249 44.546"/>
    <polyline fill="#404040" points="49.681 44.546 49.681 38.563 53.517 38.563 53.517 39.311 50.57 39.311 50.57 41.158 53.165 41.158 53.165 41.906 50.57 41.906 50.57 43.798 53.588 43.798 53.588 44.546 49.681 44.546"/>
    <path fill="#404040" d="M59.201 43.868C59.688 43.868 60.07 43.722 60.349 43.429 60.628 43.135 60.767 42.739 60.767 42.241L60.767 38.563 61.656 38.563 61.656 42.249C61.656 42.995 61.437 43.579 61 44.005 60.563 44.43 59.963 44.643 59.201 44.643 58.438 44.643 57.84 44.43 57.406 44.005 56.972 43.579 56.755 42.995 56.755 42.249L56.755 38.563 57.644 38.563 57.644 42.241C57.644 42.739 57.783 43.135 58.061 43.429 58.34 43.722 58.72 43.868 59.201 43.868M64.973 44.643C64.521 44.643 64.09 44.563 63.679 44.405 63.269 44.247 62.937 44.035 62.685 43.772L63.187 43.182C63.421 43.399 63.698 43.569 64.018 43.692 64.338 43.815 64.656 43.877 64.973 43.877 65.36 43.877 65.672 43.803 65.91 43.653 66.147 43.503 66.266 43.296 66.266 43.033 66.266 42.792 66.181 42.59 66.011 42.425 65.841 42.261 65.55 42.124 65.14 42.012L64.313 41.792C63.779 41.651 63.39 41.452 63.147 41.194 62.903 40.936 62.782 40.598 62.782 40.182 62.782 39.842 62.873 39.542 63.054 39.284 63.236 39.026 63.487 38.826 63.807 38.681 64.126 38.538 64.489 38.466 64.893 38.466 65.322 38.466 65.723 38.547 66.099 38.708 66.474 38.869 66.806 39.094 67.093 39.381L66.556 39.962C66.304 39.728 66.041 39.547 65.769 39.421 65.496 39.295 65.207 39.231 64.902 39.231 64.533 39.231 64.23 39.309 63.996 39.465 63.761 39.62 63.644 39.836 63.644 40.111 63.644 40.364 63.727 40.56 63.895 40.701 64.062 40.842 64.318 40.959 64.665 41.053L65.589 41.308C66.122 41.455 66.512 41.66 66.759 41.924 67.005 42.188 67.128 42.516 67.128 42.909 67.128 43.256 67.037 43.559 66.856 43.82 66.673 44.081 66.421 44.283 66.099 44.427 65.776 44.571 65.401 44.643 64.973 44.643M69.363 42.293L71.545 42.293 70.454 39.487 69.363 42.293zM72.416 44.546L71.836 43.041 69.073 43.041 68.492 44.546 67.595 44.546 69.988 38.563 70.947 38.563 73.331 44.546 72.416 44.546z"/>
    <polyline fill="#404040" points="77.466 44.546 77.466 39.311 75.451 39.311 75.451 38.563 80.37 38.563 80.37 39.311 78.355 39.311 78.355 44.546 77.466 44.546"/>
    <path fill="#404040" d="M83.573 43.868C83.96 43.868 84.304 43.77 84.607 43.574 84.908 43.377 85.145 43.106 85.315 42.76 85.485 42.414 85.57 42.012 85.57 41.554 85.57 41.097 85.485 40.695 85.315 40.349 85.145 40.003 84.908 39.732 84.607 39.535 84.304 39.339 83.96 39.24 83.573 39.24 83.186 39.24 82.842 39.339 82.543 39.535 82.244 39.732 82.009 40.003 81.839 40.349 81.669 40.695 81.584 41.097 81.584 41.554 81.584 42.012 81.669 42.414 81.839 42.76 82.009 43.106 82.244 43.377 82.543 43.574 82.842 43.77 83.186 43.868 83.573 43.868zM83.573 44.643C83.01 44.643 82.511 44.51 82.077 44.247 81.643 43.983 81.301 43.619 81.052 43.156 80.803 42.692 80.678 42.158 80.678 41.554 80.678 40.95 80.803 40.416 81.052 39.953 81.301 39.49 81.643 39.126 82.077 38.862 82.511 38.598 83.01 38.466 83.573 38.466 84.136 38.466 84.636 38.598 85.073 38.862 85.51 39.126 85.853 39.49 86.102 39.953 86.351 40.416 86.476 40.95 86.476 41.554 86.476 42.158 86.351 42.692 86.102 43.156 85.853 43.619 85.51 43.983 85.073 44.247 84.636 44.51 84.136 44.643 83.573 44.643zM88.614 43.798L89.828 43.798C90.251 43.798 90.613 43.706 90.915 43.521 91.217 43.336 91.449 43.077 91.61 42.742 91.771 42.408 91.852 42.012 91.852 41.554 91.852 41.097 91.771 40.701 91.61 40.367 91.449 40.032 91.217 39.773 90.915 39.588 90.613 39.403 90.251 39.311 89.828 39.311L88.614 39.311 88.614 43.798zM87.725 44.546L87.725 38.563 89.828 38.563C90.415 38.563 90.928 38.688 91.368 38.937 91.808 39.186 92.15 39.535 92.393 39.984 92.636 40.432 92.758 40.956 92.758 41.554 92.758 42.153 92.636 42.676 92.393 43.125 92.15 43.574 91.808 43.923 91.368 44.172 90.928 44.421 90.415 44.546 89.828 44.546L87.725 44.546zM95.028 42.293L97.21 42.293 96.119 39.487 95.028 42.293zM98.081 44.546L97.501 43.041 94.738 43.041 94.157 44.546 93.26 44.546 95.653 38.563 96.612 38.563 98.997 44.546 98.081 44.546z"/>
    <polyline fill="#404040" points="101.724 42.17 101.724 44.546 100.835 44.546 100.835 42.17 98.732 38.563 99.78 38.563 101.284 41.325 102.789 38.563 103.818 38.563 101.724 42.17"/>
    <polyline fill="#404040" points="110.927 44.546 107.733 39.962 107.733 44.546 106.897 44.546 106.897 38.563 107.725 38.563 110.927 43.147 110.927 38.563 111.754 38.563 111.754 44.546 110.927 44.546"/>
    <polyline fill="#404040" points="113.32 44.546 113.32 38.563 117.157 38.563 117.157 39.311 114.209 39.311 114.209 41.158 116.804 41.158 116.804 41.906 114.209 41.906 114.209 43.798 117.227 43.798 117.227 44.546 113.32 44.546"/>
    <polyline fill="#404040" points="119.866 44.546 119.866 39.311 117.851 39.311 117.851 38.563 122.77 38.563 122.77 39.311 120.755 39.311 120.755 44.546 119.866 44.546"/>
    <polyline fill="#404040" points="128.577 44.546 127.178 39.777 125.779 44.546 124.855 44.546 123.263 38.563 124.142 38.563 125.357 43.296 126.756 38.563 127.6 38.563 129.008 43.314 130.231 38.563 131.093 38.563 129.501 44.546 128.577 44.546"/>
    <path fill="#404040" d="M134.622 43.868C135.009 43.868 135.353 43.77 135.656 43.574 135.957 43.377 136.194 43.106 136.364 42.76 136.534 42.414 136.619 42.012 136.619 41.554 136.619 41.097 136.534 40.695 136.364 40.349 136.194 40.003 135.957 39.732 135.656 39.535 135.353 39.339 135.009 39.24 134.622 39.24 134.235 39.24 133.891 39.339 133.592 39.535 133.293 39.732 133.058 40.003 132.888 40.349 132.718 40.695 132.633 41.097 132.633 41.554 132.633 42.012 132.718 42.414 132.888 42.76 133.058 43.106 133.293 43.377 133.592 43.574 133.891 43.77 134.235 43.868 134.622 43.868zM134.622 44.643C134.059 44.643 133.56 44.51 133.126 44.247 132.692 43.983 132.35 43.619 132.101 43.156 131.852 42.692 131.727 42.158 131.727 41.554 131.727 40.95 131.852 40.416 132.101 39.953 132.35 39.49 132.692 39.126 133.126 38.862 133.56 38.598 134.059 38.466 134.622 38.466 135.185 38.466 135.685 38.598 136.122 38.862 136.559 39.126 136.902 39.49 137.151 39.953 137.4 40.416 137.525 40.95 137.525 41.554 137.525 42.158 137.4 42.692 137.151 43.156 136.902 43.619 136.559 43.983 136.122 44.247 135.685 44.51 135.185 44.643 134.622 44.643zM139.663 41.387L140.886 41.387C141.267 41.387 141.571 41.294 141.797 41.106 142.023 40.918 142.135 40.666 142.135 40.349 142.135 40.032 142.023 39.78 141.797 39.592 141.571 39.405 141.267 39.311 140.886 39.311L139.663 39.311 139.663 41.387zM139.663 42.117L139.663 44.546 138.774 44.546 138.774 38.563 140.886 38.563C141.549 38.563 142.074 38.723 142.461 39.042 142.848 39.362 143.042 39.798 143.042 40.349 143.042 40.766 142.924 41.118 142.69 41.405 142.455 41.692 142.132 41.895 141.722 42.012L143.174 44.546 142.162 44.546 140.798 42.117 139.663 42.117z"/>
    <polyline fill="#404040" points="147.872 44.546 145.189 41.528 145.189 44.546 144.3 44.546 144.3 38.563 145.189 38.563 145.189 41.185 147.696 38.563 148.796 38.563 146.13 41.308 148.99 44.546 147.872 44.546"/>
  </g>
</svg>
