<svg xmlns="http://www.w3.org/2000/svg" xmlns:xlink="http://www.w3.org/1999/xlink" width="719" height="139.094" viewBox="0 0 719 139.094">
  <defs>
    <style>
      .cls-1 {
        filter: url(#filter);
      }

      .cls-2, .cls-5 {
        fill: #fff;
      }

      .cls-2, .cls-3, .cls-5 {
        fill-rule: evenodd;
      }

      .cls-3, .cls-4 {
        fill: #999;
      }

      .cls-5 {
        filter: url(#filter-2);
      }
    </style>
    <filter id="filter" filterUnits="userSpaceOnUse">
      <feFlood result="flood" flood-color="#333"/>
      <feComposite result="composite" operator="in" in2="SourceGraphic"/>
      <feBlend result="blend" in2="SourceGraphic"/>
    </filter>
    <filter id="filter-2" x="0" y="123.969" width="367.969" height="16" filterUnits="userSpaceOnUse">
      <feFlood result="flood" flood-color="#999"/>
      <feComposite result="composite" operator="in" in2="SourceGraphic"/>
      <feBlend result="blend" in2="SourceGraphic"/>
    </filter>
  </defs>
  <g id="postcrescent" class="cls-1">
    <path class="cls-2" d="M479.586,106.651a2.762,2.762,0,0,1,2.765,2.787,2.7,2.7,0,0,1-.809,1.967,2.743,2.743,0,0,1-3.912,0,2.807,2.807,0,0,1,0-3.945A2.665,2.665,0,0,1,479.586,106.651Zm31.963-14.428-2.5,1.551a10.449,10.449,0,0,0-8.825-4.293,10.21,10.21,0,0,0-7.42,2.874,9.373,9.373,0,0,0-2.953,6.981,9.91,9.91,0,0,0,1.359,5.029,9.52,9.52,0,0,0,3.727,3.659,11.273,11.273,0,0,0,14.112-2.991l2.5,1.64a11.782,11.782,0,0,1-4.71,4.1,15.057,15.057,0,0,1-6.732,1.455,13.3,13.3,0,0,1-9.621-3.686,11.989,11.989,0,0,1-3.822-8.968,12.81,12.81,0,0,1,1.788-6.6,12.582,12.582,0,0,1,4.911-4.754,14.335,14.335,0,0,1,6.992-1.708,14.951,14.951,0,0,1,4.686.741,13.037,13.037,0,0,1,3.833,1.934A10.494,10.494,0,0,1,511.549,92.223Zm16.566-5.709a12.118,12.118,0,0,1,9.368,4.09,13.128,13.128,0,0,1-.192,17.789,12.93,12.93,0,0,1-18.375,0,13.1,13.1,0,0,1-.192-17.766A12.106,12.106,0,0,1,528.115,86.514ZM528.1,89.593a9.081,9.081,0,0,0-6.746,2.9,9.689,9.689,0,0,0-2.82,7.012,9.949,9.949,0,0,0,1.286,4.945,9.112,9.112,0,0,0,3.474,3.54,9.881,9.881,0,0,0,9.61,0,9.112,9.112,0,0,0,3.474-3.54,9.95,9.95,0,0,0,1.287-4.945,9.671,9.671,0,0,0-2.831-7.012A9.1,9.1,0,0,0,528.1,89.593Zm17.5-2.449h3.147v4.225a12.185,12.185,0,0,1,3.375-3.416,9.571,9.571,0,0,1,5.019-1.438,8.335,8.335,0,0,1,3.375.7,7.264,7.264,0,0,1,2.612,1.854,9.934,9.934,0,0,1,1.754,3.314,11.621,11.621,0,0,1,3.925-4.371,9.29,9.29,0,0,1,5.069-1.494,7.943,7.943,0,0,1,4.474,1.281,7.639,7.639,0,0,1,2.881,3.574,19.063,19.063,0,0,1,.942,6.877V111.6h-3.214V98.246a17.45,17.45,0,0,0-.56-5.4,4.876,4.876,0,0,0-1.915-2.371,5.729,5.729,0,0,0-3.238-.9,7.047,7.047,0,0,0-4.18,1.349,7.761,7.761,0,0,0-2.766,3.6,22.77,22.77,0,0,0-.874,7.506V111.6h-3.147V99.078a21.473,21.473,0,0,0-.551-6.012,5.039,5.039,0,0,0-1.921-2.54,5.565,5.565,0,0,0-3.26-.955,7.039,7.039,0,0,0-4.081,1.315,7.789,7.789,0,0,0-2.809,3.54,19.079,19.079,0,0,0-.91,6.81V111.6H545.6V87.143ZM0.332,20.861H7.007V30.4a26.8,26.8,0,0,1,9.1-8.152,24.2,24.2,0,0,1,11.48-2.717A25.618,25.618,0,0,1,46.5,27.488a26.3,26.3,0,0,1,7.86,19.164,26.784,26.784,0,0,1-7.788,19.426,25.291,25.291,0,0,1-18.791,7.985,25.272,25.272,0,0,1-11.385-2.574,28.657,28.657,0,0,1-9.383-7.675V91.7H0.332V20.861Zm26.7,5.1A19.61,19.61,0,0,0,12.453,32.01,20.65,20.65,0,0,0,6.531,47.057a21.353,21.353,0,0,0,2.64,10.619,19.257,19.257,0,0,0,7.564,7.474,20.927,20.927,0,0,0,10.394,2.763,19.594,19.594,0,0,0,10.108-2.786,20.443,20.443,0,0,0,7.541-7.785A21.028,21.028,0,0,0,44.8,36.391,20.1,20.1,0,0,0,27.033,25.962Zm62.125-6.436a25.7,25.7,0,0,1,19.87,8.676,26.985,26.985,0,0,1,7.165,18.735,26.987,26.987,0,0,1-7.571,19q-7.57,8.128-19.464,8.128-11.942,0-19.512-8.128a26.986,26.986,0,0,1-7.571-19A26.926,26.926,0,0,1,69.239,28.25,25.685,25.685,0,0,1,89.158,19.527Zm-0.024,6.531a19.263,19.263,0,0,0-14.308,6.15,20.553,20.553,0,0,0-5.981,14.874,21.086,21.086,0,0,0,2.728,10.487,19.319,19.319,0,0,0,7.369,7.509,20.953,20.953,0,0,0,20.384,0,19.326,19.326,0,0,0,7.369-7.509,21.088,21.088,0,0,0,2.727-10.487,20.508,20.508,0,0,0-6-14.874A19.287,19.287,0,0,0,89.134,26.057Zm63.244,0.477-4.291,4.433q-5.355-5.2-10.469-5.2a7.911,7.911,0,0,0-5.57,2.145,6.622,6.622,0,0,0-2.318,5.005,7.416,7.416,0,0,0,1.911,4.815q1.91,2.336,8.027,5.482,7.455,3.862,10.131,7.437a13.55,13.55,0,0,1,2.627,8.151,14.633,14.633,0,0,1-4.489,10.822,15.327,15.327,0,0,1-11.222,4.433,19.615,19.615,0,0,1-8.572-1.954,18.621,18.621,0,0,1-6.758-5.387l4.2-4.768q5.115,5.769,10.849,5.768a9.775,9.775,0,0,0,6.835-2.575,7.953,7.953,0,0,0,2.819-6.054,7.758,7.758,0,0,0-1.863-5.1q-1.864-2.192-8.41-5.53-7.025-3.622-9.557-7.151a13.465,13.465,0,0,1-2.532-8.056,13.1,13.1,0,0,1,4.036-9.82,14.061,14.061,0,0,1,10.2-3.909Q145.117,19.527,152.378,26.534ZM167.775,1.6h6.675V20.861h10.586V26.63H174.45v46.1h-6.675V26.63h-9.107V20.861h9.107V1.6Zm75.379,30.033-5.293,3.289q-6.856-9.1-18.717-9.105a21.659,21.659,0,0,0-15.74,6.1,19.891,19.891,0,0,0-6.262,14.809,21.024,21.024,0,0,0,2.88,10.666,20.193,20.193,0,0,0,7.907,7.761,23.908,23.908,0,0,0,29.932-6.343l5.293,3.48a24.985,24.985,0,0,1-9.989,8.687,31.908,31.908,0,0,1-14.281,3.087q-12.3,0-20.407-7.818a25.427,25.427,0,0,1-8.106-19.02,27.156,27.156,0,0,1,3.791-13.991A26.7,26.7,0,0,1,204.58,23.15a30.405,30.405,0,0,1,14.829-3.623,31.672,31.672,0,0,1,9.942,1.573,27.654,27.654,0,0,1,8.129,4.1A22.322,22.322,0,0,1,243.154,31.635Zm8.053-10.774h6.819v7.58a23.918,23.918,0,0,1,6.437-6.7,12.7,12.7,0,0,1,7.057-2.216,12.186,12.186,0,0,1,5.912,1.763l-3.48,5.626a9.294,9.294,0,0,0-3.529-.906,9.654,9.654,0,0,0-6.437,2.741q-3.1,2.742-4.721,8.509-1.239,4.434-1.239,17.924V72.728h-6.819V20.861Zm72.948,34.657,5.627,2.955a30.7,30.7,0,0,1-6.395,8.772,25.406,25.406,0,0,1-8.162,5.076,28.478,28.478,0,0,1-10.261,1.74q-12.695,0-19.853-8.318a28.058,28.058,0,0,1-7.159-18.806,27.724,27.724,0,0,1,6.061-17.591q7.683-9.819,20.569-9.82,13.268,0,21.189,10.059,5.632,7.1,5.728,17.733H284.818q0.191,9.037,5.776,14.815a18.427,18.427,0,0,0,13.8,5.779,22.194,22.194,0,0,0,7.71-1.377,20.289,20.289,0,0,0,6.373-3.657A31.1,31.1,0,0,0,324.155,55.519Zm0-13.968a22.12,22.12,0,0,0-3.891-8.533,18.421,18.421,0,0,0-6.755-5.148,20.693,20.693,0,0,0-8.831-1.955,19.024,19.024,0,0,0-13.129,4.91q-4.011,3.576-6.064,10.726h38.67ZM367.78,26.534l-4.293,4.433q-5.353-5.2-10.468-5.2a7.912,7.912,0,0,0-5.57,2.145,6.625,6.625,0,0,0-2.318,5.005,7.419,7.419,0,0,0,1.91,4.815q1.911,2.336,8.028,5.482,7.455,3.862,10.13,7.437a13.551,13.551,0,0,1,2.628,8.151,14.633,14.633,0,0,1-4.489,10.822,15.329,15.329,0,0,1-11.222,4.433,19.615,19.615,0,0,1-8.572-1.954,18.621,18.621,0,0,1-6.758-5.387l4.2-4.768q5.113,5.769,10.849,5.768a9.769,9.769,0,0,0,6.834-2.575,7.951,7.951,0,0,0,2.82-6.054,7.758,7.758,0,0,0-1.863-5.1q-1.864-2.192-8.409-5.53-7.026-3.622-9.558-7.151a13.465,13.465,0,0,1-2.532-8.056,13.1,13.1,0,0,1,4.035-9.82,14.064,14.064,0,0,1,10.2-3.909Q360.518,19.527,367.78,26.534Zm59.93,5.1-5.293,3.289q-6.858-9.1-18.717-9.105a21.661,21.661,0,0,0-15.741,6.1A19.9,19.9,0,0,0,381.7,46.723a21.015,21.015,0,0,0,2.881,10.666,20.184,20.184,0,0,0,7.906,7.761,23.909,23.909,0,0,0,29.933-6.343l5.293,3.48a24.988,24.988,0,0,1-9.99,8.687,31.9,31.9,0,0,1-14.28,3.087q-12.3,0-20.408-7.818a25.43,25.43,0,0,1-8.106-19.02,27.166,27.166,0,0,1,3.791-13.991A26.7,26.7,0,0,1,389.135,23.15a30.409,30.409,0,0,1,14.83-3.623,31.661,31.661,0,0,1,9.941,1.573,27.642,27.642,0,0,1,8.129,4.1A22.34,22.34,0,0,1,427.71,31.635Zm54.257,23.884,5.627,2.955a30.7,30.7,0,0,1-6.4,8.772,25.4,25.4,0,0,1-8.161,5.076,28.482,28.482,0,0,1-10.261,1.74q-12.7,0-19.854-8.318a28.062,28.062,0,0,1-7.158-18.806,27.723,27.723,0,0,1,6.06-17.591q7.685-9.819,20.569-9.82,13.268,0,21.19,10.059,5.631,7.1,5.727,17.733H442.629q0.19,9.037,5.777,14.815a18.427,18.427,0,0,0,13.8,5.779,22.194,22.194,0,0,0,7.71-1.377,20.3,20.3,0,0,0,6.372-3.657A31.127,31.127,0,0,0,481.967,55.519Zm0-13.968a22.135,22.135,0,0,0-3.892-8.533,18.4,18.4,0,0,0-6.755-5.148,20.69,20.69,0,0,0-8.831-1.955,19.026,19.026,0,0,0-13.129,4.91Q445.349,34.4,443.3,41.551h38.67Zm17.542-20.689h6.676v9.3a27.9,27.9,0,0,1,8.867-7.985,21.807,21.807,0,0,1,10.586-2.645,18.4,18.4,0,0,1,10.324,2.956,17.6,17.6,0,0,1,6.651,7.961q2.145,5.005,2.145,15.588v26.7h-6.674V47.986q0-8.961-.744-11.965a13.139,13.139,0,0,0-4.451-7.746,13.441,13.441,0,0,0-8.583-2.6,16.466,16.466,0,0,0-10.85,4,18.76,18.76,0,0,0-6.318,9.915q-0.955,3.862-.953,14.111V72.728h-6.676V20.861ZM562.634,1.6h6.675V20.861h10.585V26.63H569.309v46.1h-6.675V26.63h-9.108V20.861h9.108V1.6Zm30.7,3.843V69.885" transform="translate(0 -0.875)"/>
    <path class="cls-3" d="M624.6,1.289l7.507,16.2h-1.737l-2.532-5.329H620.9L618.4,17.486H616.6l7.605-16.2H624.6ZM624.4,4.73l-2.759,5.863h5.505Zm9.975,0.776H635.9v2.2a6.156,6.156,0,0,1,2.089-1.883,5.519,5.519,0,0,1,2.634-.628,5.86,5.86,0,0,1,4.34,1.839,6.1,6.1,0,0,1,1.8,4.426,6.21,6.21,0,0,1-1.787,4.487,5.992,5.992,0,0,1-6.926,1.25,6.587,6.587,0,0,1-2.154-1.773v6.441h-1.532V5.506ZM640.5,6.684a4.49,4.49,0,0,0-3.347,1.4,4.786,4.786,0,0,0-1.359,3.475,4.948,4.948,0,0,0,.606,2.453,4.432,4.432,0,0,0,1.736,1.726,4.777,4.777,0,0,0,2.385.638,4.477,4.477,0,0,0,2.32-.643,4.71,4.71,0,0,0,1.731-1.8,4.876,4.876,0,0,0,0-4.839A4.605,4.605,0,0,0,640.5,6.684Zm9.16-1.178h1.532v2.2a6.162,6.162,0,0,1,2.088-1.883,5.523,5.523,0,0,1,2.635-.628,5.86,5.86,0,0,1,4.34,1.839,6.1,6.1,0,0,1,1.8,4.426,6.209,6.209,0,0,1-1.786,4.487,5.992,5.992,0,0,1-6.926,1.25,6.587,6.587,0,0,1-2.154-1.773v6.441H649.66V5.506Zm6.128,1.178a4.488,4.488,0,0,0-3.346,1.4,4.782,4.782,0,0,0-1.359,3.475,4.958,4.958,0,0,0,.605,2.453,4.441,4.441,0,0,0,1.737,1.726,4.777,4.777,0,0,0,2.385.638,4.477,4.477,0,0,0,2.32-.643,4.7,4.7,0,0,0,1.73-1.8,4.88,4.88,0,0,0,.006-4.839A4.609,4.609,0,0,0,655.788,6.684Zm8.908-5.8h1.532v16.6H664.7V0.882Zm14.741,12.629,1.291,0.683a7.086,7.086,0,0,1-1.467,2.026,5.828,5.828,0,0,1-1.874,1.172,6.489,6.489,0,0,1-2.355.4,5.671,5.671,0,0,1-4.556-1.922,6.5,6.5,0,0,1-1.644-4.343,6.432,6.432,0,0,1,1.391-4.063A5.678,5.678,0,0,1,674.944,5.2a5.863,5.863,0,0,1,4.864,2.323,6.52,6.52,0,0,1,1.314,4.1H670.408a4.9,4.9,0,0,0,1.326,3.422,4.217,4.217,0,0,0,3.166,1.335,5.068,5.068,0,0,0,1.77-.318,4.665,4.665,0,0,0,1.463-.844A7.2,7.2,0,0,0,679.437,13.511Zm0-3.226a5.15,5.15,0,0,0-.893-1.971,4.247,4.247,0,0,0-1.551-1.189,4.727,4.727,0,0,0-2.027-.451,4.357,4.357,0,0,0-3.014,1.134,5.136,5.136,0,0,0-1.39,2.477h8.875Zm5.877-9.227h1.532V5.506h2.43V6.838h-2.43V17.486h-1.532V6.838h-2.091V5.506h2.091V1.058ZM697.209,5.2a5.881,5.881,0,0,1,4.561,2,6.258,6.258,0,0,1,1.645,4.327,6.259,6.259,0,0,1-1.737,4.387,6.268,6.268,0,0,1-8.947,0,6.255,6.255,0,0,1-1.738-4.387,6.244,6.244,0,0,1,1.645-4.316A5.879,5.879,0,0,1,697.209,5.2Zm0,1.508a4.409,4.409,0,0,0-3.284,1.42,4.767,4.767,0,0,0-1.372,3.435,4.9,4.9,0,0,0,.626,2.422,4.444,4.444,0,0,0,1.691,1.734,4.78,4.78,0,0,0,4.678,0,4.446,4.446,0,0,0,1.692-1.734,4.9,4.9,0,0,0,.626-2.422,4.753,4.753,0,0,0-1.379-3.435A4.412,4.412,0,0,0,697.2,6.706Zm9.046-1.2h1.532V7.653a6.433,6.433,0,0,1,2.035-1.845,4.983,4.983,0,0,1,2.43-.611,4.2,4.2,0,0,1,2.369.683,4.07,4.07,0,0,1,1.527,1.839,9.782,9.782,0,0,1,.493,3.6v6.166H715.1V11.771a14.206,14.206,0,0,0-.171-2.764,3.047,3.047,0,0,0-1.022-1.789,3.072,3.072,0,0,0-1.97-.6,3.764,3.764,0,0,0-2.49.925A4.337,4.337,0,0,0,708,9.833a15.941,15.941,0,0,0-.219,3.259v4.393H706.25V5.506ZM618.021,31.157h8.066v1.586h-6.456v5.076h6.456V39.4h-6.456v7.95h-1.61v-16.2Zm16.252,3.909a5.88,5.88,0,0,1,4.561,2,6.46,6.46,0,0,1-.092,8.714,6.267,6.267,0,0,1-8.946,0,6.444,6.444,0,0,1-.094-8.7A5.878,5.878,0,0,1,634.273,35.065Zm0,1.508a4.411,4.411,0,0,0-3.285,1.42,4.766,4.766,0,0,0-1.372,3.435,4.9,4.9,0,0,0,.626,2.422,4.442,4.442,0,0,0,1.691,1.734,4.779,4.779,0,0,0,4.678,0,4.444,4.444,0,0,0,1.692-1.734,4.9,4.9,0,0,0,.626-2.422,4.752,4.752,0,0,0-1.379-3.435A4.41,4.41,0,0,0,634.269,36.574Zm7.687-1.2h1.838l3.167,4.382,3.133-4.382h1.842l-4.052,5.659,4.566,6.321h-1.865l-3.624-5.031-3.6,5.031h-1.828l4.512-6.309Zm33.564-1.211-1.269.98a6.974,6.974,0,0,0-2.523-2.087,7.357,7.357,0,0,0-3.235-.71,7.111,7.111,0,0,0-3.566.93,6.647,6.647,0,0,0-2.545,2.5,6.944,6.944,0,0,0-.9,3.529,6.645,6.645,0,0,0,2.019,4.944,6.974,6.974,0,0,0,5.094,1.982,7.148,7.148,0,0,0,5.659-2.665l1.269,0.969a8.136,8.136,0,0,1-3,2.384,9.388,9.388,0,0,1-4.023.842,8.341,8.341,0,0,1-6.664-2.83,8.571,8.571,0,0,1-2.047-5.77,8.047,8.047,0,0,1,2.479-5.984,8.517,8.517,0,0,1,6.211-2.428,9.068,9.068,0,0,1,4.071.9A7.925,7.925,0,0,1,675.52,34.162Zm3.508-3.721a1.209,1.209,0,0,1,.892.374,1.235,1.235,0,0,1,.372.9,1.22,1.22,0,0,1-.372.892,1.239,1.239,0,0,1-1.775,0,1.223,1.223,0,0,1-.371-0.892,1.238,1.238,0,0,1,.371-0.9A1.2,1.2,0,0,1,679.028,30.441Zm-0.762,4.933H679.8v11.98h-1.532V35.374Zm6.052-4.448h1.532v4.448h2.429v1.332H685.85V47.353h-1.532V36.706h-2.091V35.374h2.091V30.925Zm6.792-.484a1.211,1.211,0,0,1,.892.374,1.234,1.234,0,0,1,.371.9,1.273,1.273,0,0,1-1.263,1.266,1.2,1.2,0,0,1-.883-0.374,1.219,1.219,0,0,1-.371-0.892,1.234,1.234,0,0,1,.371-0.9A1.2,1.2,0,0,1,691.11,30.441Zm-0.762,4.933h1.532v11.98h-1.532V35.374Zm14.74,8,1.292,0.683a7.071,7.071,0,0,1-1.468,2.026,5.813,5.813,0,0,1-1.873,1.172,6.493,6.493,0,0,1-2.356.4,5.674,5.674,0,0,1-4.556-1.922,6.506,6.506,0,0,1-1.644-4.343,6.433,6.433,0,0,1,1.392-4.063,5.677,5.677,0,0,1,4.721-2.268,5.86,5.86,0,0,1,4.863,2.323,6.515,6.515,0,0,1,1.315,4.1H696.059a4.9,4.9,0,0,0,1.326,3.422,4.219,4.219,0,0,0,3.167,1.335,5.068,5.068,0,0,0,1.77-.318,4.655,4.655,0,0,0,1.462-.844A7.17,7.17,0,0,0,705.088,43.378Zm0-3.226a5.149,5.149,0,0,0-.892-1.971,4.247,4.247,0,0,0-1.551-1.189,4.73,4.73,0,0,0-2.027-.451,4.357,4.357,0,0,0-3.014,1.134,5.127,5.127,0,0,0-1.39,2.477h8.874Zm10.528-3.468-0.984,1.024a3.534,3.534,0,0,0-2.4-1.2,1.811,1.811,0,0,0-1.279.5,1.534,1.534,0,0,0-.533,1.156,1.721,1.721,0,0,0,.439,1.112,6.178,6.178,0,0,0,1.842,1.266,6.872,6.872,0,0,1,2.325,1.718,3.144,3.144,0,0,1,.6,1.883,3.392,3.392,0,0,1-1.03,2.5,3.509,3.509,0,0,1-2.576,1.024,4.473,4.473,0,0,1-1.967-.452,4.261,4.261,0,0,1-1.551-1.244l0.963-1.1a3.341,3.341,0,0,0,2.489,1.332,2.238,2.238,0,0,0,1.569-.595,1.842,1.842,0,0,0,.647-1.4,1.8,1.8,0,0,0-.428-1.178,6.868,6.868,0,0,0-1.929-1.277,6.186,6.186,0,0,1-2.194-1.652,3.119,3.119,0,0,1-.581-1.861,3.035,3.035,0,0,1,.926-2.268,3.216,3.216,0,0,1,2.34-.9A4.836,4.836,0,0,1,715.616,36.684Zm-98.5,24.341h1.652L622.054,72.7l4.615-11.671H627L631.565,72.7l3.344-11.671h1.641l-4.626,16.2h-0.3l-4.777-12.255-4.87,12.255h-0.3Zm22.834-.716a1.209,1.209,0,0,1,.892.374,1.271,1.271,0,0,1,0,1.8,1.242,1.242,0,0,1-1.775,0,1.271,1.271,0,0,1,0-1.8A1.2,1.2,0,0,1,639.948,60.308Zm-0.762,4.933h1.532V77.221h-1.532V65.241Zm10.7,1.31-0.984,1.025a3.537,3.537,0,0,0-2.4-1.2,1.809,1.809,0,0,0-1.278.5,1.535,1.535,0,0,0-.533,1.157,1.719,1.719,0,0,0,.439,1.111,6.161,6.161,0,0,0,1.842,1.267,6.841,6.841,0,0,1,2.325,1.718,3.14,3.14,0,0,1,.6,1.882,3.389,3.389,0,0,1-1.03,2.5,3.5,3.5,0,0,1-2.576,1.025,4.474,4.474,0,0,1-1.968-.452,4.261,4.261,0,0,1-1.55-1.243l0.963-1.1a3.337,3.337,0,0,0,2.489,1.332,2.237,2.237,0,0,0,1.569-.593,1.843,1.843,0,0,0,.647-1.4,1.8,1.8,0,0,0-.428-1.179,6.9,6.9,0,0,0-1.929-1.277,6.175,6.175,0,0,1-2.194-1.651,3.122,3.122,0,0,1-.581-1.861,3.034,3.034,0,0,1,.926-2.268,3.216,3.216,0,0,1,2.341-.9A4.84,4.84,0,0,1,649.889,66.551Zm14.27,1.179-1.214.759a5.078,5.078,0,0,0-4.3-2.1,4.955,4.955,0,0,0-3.613,1.407,4.611,4.611,0,0,0-1.438,3.421,4.883,4.883,0,0,0,.663,2.464,4.64,4.64,0,0,0,1.814,1.792,5.465,5.465,0,0,0,6.87-1.465l1.214,0.8a5.75,5.75,0,0,1-2.292,2,7.275,7.275,0,0,1-3.278.714,6.45,6.45,0,0,1-4.684-1.806,5.89,5.89,0,0,1-1.859-4.393,6.308,6.308,0,0,1,.869-3.232,6.152,6.152,0,0,1,2.391-2.328,6.947,6.947,0,0,1,3.4-.837,7.2,7.2,0,0,1,2.282.364,6.354,6.354,0,0,1,1.866.946A5.152,5.152,0,0,1,664.159,67.73Zm8.58-2.8a5.878,5.878,0,0,1,4.561,2,6.461,6.461,0,0,1-.092,8.715,6.267,6.267,0,0,1-8.946,0,6.444,6.444,0,0,1-.094-8.7A5.882,5.882,0,0,1,672.739,64.933Zm0,1.509a4.411,4.411,0,0,0-3.285,1.42,4.767,4.767,0,0,0-1.372,3.435,4.9,4.9,0,0,0,.626,2.422,4.443,4.443,0,0,0,1.691,1.734,4.784,4.784,0,0,0,4.678,0,4.446,4.446,0,0,0,1.692-1.734,4.9,4.9,0,0,0,.626-2.422,4.753,4.753,0,0,0-1.379-3.435A4.409,4.409,0,0,0,672.735,66.442Zm9.045-1.2h1.532v2.146a6.443,6.443,0,0,1,2.035-1.844,4.988,4.988,0,0,1,2.43-.611,4.2,4.2,0,0,1,2.369.683,4.06,4.06,0,0,1,1.527,1.839,9.775,9.775,0,0,1,.493,3.6v6.166h-1.532V71.507a14.207,14.207,0,0,0-.171-2.764,3.04,3.04,0,0,0-1.022-1.79,3.07,3.07,0,0,0-1.969-.6,3.765,3.765,0,0,0-2.491.925,4.332,4.332,0,0,0-1.45,2.29,15.93,15.93,0,0,0-.219,3.259v4.393H681.78V65.241Zm19.653,1.31-0.983,1.025a3.538,3.538,0,0,0-2.4-1.2,1.812,1.812,0,0,0-1.279.5,1.534,1.534,0,0,0-.532,1.157,1.714,1.714,0,0,0,.439,1.111,6.134,6.134,0,0,0,1.842,1.267,6.845,6.845,0,0,1,2.324,1.718,3.14,3.14,0,0,1,.6,1.882,3.386,3.386,0,0,1-1.03,2.5,3.5,3.5,0,0,1-2.576,1.025,4.47,4.47,0,0,1-1.967-.452,4.257,4.257,0,0,1-1.551-1.243l0.963-1.1a3.338,3.338,0,0,0,2.49,1.332,2.239,2.239,0,0,0,1.569-.593,1.845,1.845,0,0,0,.646-1.4,1.8,1.8,0,0,0-.428-1.179,6.9,6.9,0,0,0-1.929-1.277,6.17,6.17,0,0,1-2.193-1.651,3.116,3.116,0,0,1-.582-1.861,3.038,3.038,0,0,1,.926-2.268,3.216,3.216,0,0,1,2.341-.9A4.84,4.84,0,0,1,701.433,66.551Zm3.247-6.242a1.211,1.211,0,0,1,.892.374,1.271,1.271,0,0,1,0,1.8,1.242,1.242,0,0,1-1.775,0,1.271,1.271,0,0,1,0-1.8A1.2,1.2,0,0,1,704.68,60.308Zm-0.762,4.933h1.532V77.221h-1.532V65.241Zm4.716,0h1.532v2.146a6.446,6.446,0,0,1,2.036-1.844,4.984,4.984,0,0,1,2.429-.611,4.2,4.2,0,0,1,2.37.683,4.058,4.058,0,0,1,1.526,1.839,9.775,9.775,0,0,1,.493,3.6v6.166h-1.532V71.507a14.234,14.234,0,0,0-.17-2.764,2.789,2.789,0,0,0-2.992-2.389,3.762,3.762,0,0,0-2.49.925,4.334,4.334,0,0,0-1.451,2.29,16.005,16.005,0,0,0-.219,3.259v4.393h-1.532V65.241Z" transform="translate(0 -0.875)"/>
    <rect class="cls-4" x="597.125" y="4.563" width="2.156" height="71.906"/>
    <path id="USAT_Network" data-name="USAT Network" class="cls-5" d="M-0.011,124.273H4.478c3.156,0,5.268,1.865,5.268,4.74s-2.155,4.736-5.268,4.736H2.188v5.925h-2.2v-15.4Zm4.266,7.659c2.112,0,3.244-1.163,3.244-2.919,0-1.735-1.132-2.918-3.244-2.918H2.188v5.837H4.256Zm11.768-7.659H17.98l6.4,15.4H22.022l-1.6-4.035H13.513l-1.6,4.035H9.6S15.244,126.162,16.024,124.273Zm3.665,9.544L18.2,130.023c-0.221-.572-1.178-2.943-1.2-3.139H16.957c-0.022.2-.955,2.5-1.2,3.139l-1.51,3.794h5.443Zm6.924-9.544h4.51c2.91,0,5.178,1.5,5.178,4.563a4.293,4.293,0,0,1-3.955,4.346l4.778,6.492H34.545l-4.51-6.276H28.812v6.276h-2.2v-15.4Zm4.267,7.351c2.043,0,3.2-1.077,3.2-2.764s-1.157-2.765-3.2-2.765H28.812v5.529H30.88ZM42.4,126.138H37.957v-1.865H49.046v1.865H44.6v13.536H42.4V126.138Zm12.348,5.838a7.862,7.862,0,0,1,8.2-8.006,8.008,8.008,0,1,1,0,16.011A7.861,7.861,0,0,1,54.75,131.976Zm14.133,0a5.946,5.946,0,1,0-5.955,6.053A5.772,5.772,0,0,0,68.882,131.976Zm5.433-7.7h7.867v1.865H76.514V131.1H82v1.865h-5.49v6.713h-2.2v-15.4Zm17.815,1.865H87.686v-1.865H98.774v1.865H94.33v13.536h-2.2V126.138Zm8.953-1.865h2.2v6.318h8.178v-6.318h2.2v15.4h-2.2v-7.218h-8.178v7.218h-2.2v-15.4Zm16.631,0h8.49v1.846h-6.291v4.472h6.111v1.846h-6.111v5.395h6.423v1.842h-8.622v-15.4Zm16,10.092V124.273h2.221v9.433c0,2.679,1.157,4.323,3.756,4.323,2.622,0,3.78-1.644,3.78-4.323v-9.433h2.221v10.092c0,3.38-2.2,5.616-6,5.616C135.865,139.981,133.71,137.745,133.71,134.365Zm14.274,2.524,1.491-1.25a4.52,4.52,0,0,0,3.911,2.433c1.709,0,3.044-.918,3.044-2.611,0-1.817-1.534-2.433-3.446-3.178-1.956-.769-3.933-1.736-3.933-4.193,0-2.432,1.912-4.12,4.712-4.12a5.249,5.249,0,0,1,4.579,2.322l-1.491,1.25a3.552,3.552,0,0,0-3.088-1.668c-1.512,0-2.511.769-2.511,2.063,0,1.6,1.554,2.13,2.911,2.654,2.2,0.856,4.466,1.889,4.466,4.716,0,2.679-2,4.674-5.2,4.674A6.064,6.064,0,0,1,147.984,136.889Zm18.241-12.616h1.956l6.4,15.4h-2.357l-1.6-4.035h-6.912l-1.6,4.035H159.8S165.446,126.162,166.225,124.273Zm3.665,9.544-1.487-3.794c-0.222-.572-1.179-2.943-1.2-3.139h-0.044c-0.022.2-.955,2.5-1.2,3.139l-1.51,3.794h5.443Zm13.978-7.679h-4.445v-1.865h11.088v1.865h-4.444v13.536h-2.2V126.138Zm7.469,5.838a8.2,8.2,0,1,1,8.2,8A7.861,7.861,0,0,1,191.337,131.976Zm14.132,0a5.945,5.945,0,1,0-5.954,6.053A5.772,5.772,0,0,0,205.469,131.976Zm5.434-7.7h4.423c4.977,0,8.265,2.807,8.265,7.7,0,4.87-3.312,7.7-8.265,7.7H210.9v-15.4Zm2.2,13.534h2.046c3.643,0,6.176-1.9,6.176-5.831s-2.533-5.838-6.176-5.838H213.1v11.669Zm17.637-13.534H232.7l6.4,15.4h-2.357l-1.6-4.035h-6.912l-1.6,4.035h-2.311S229.96,126.162,230.739,124.273Zm3.666,9.544-1.489-3.794c-0.221-.572-1.178-2.943-1.2-3.139h-0.044c-0.022.2-.955,2.5-1.2,3.139l-1.51,3.794h5.444Zm9.084-.419-5.312-9.125h2.467l2.889,5.135a22.887,22.887,0,0,1,1.11,2.192h0.022a23.153,23.153,0,0,1,1.113-2.192l2.91-5.135h2.4l-5.309,9.125v6.276h-2.289V133.4Zm14.062-9.125h1.687l8.846,9.982c0.266,0.288,1.422,1.711,1.534,1.932l0.044-.023c-0.044-.217-0.044-2-0.044-2.39v-9.5h2.134v15.4h-1.713l-8.845-9.983c-0.265-.283-1.422-1.711-1.532-1.928l-0.021.02c0.021,0.221.043,2,.043,2.394v9.5h-2.133v-15.4Zm18.253,0h8.487v1.846H278v4.472h6.113v1.846H278v5.395h6.422v1.842H275.8v-15.4Zm15.37,1.865h-4.445v-1.865h11.089v1.865h-4.445v13.536h-2.2V126.138Zm8.478-1.865h2.333l3.2,9.15c0.112,0.351.867,2.63,0.889,2.981h0.046a30.445,30.445,0,0,1,.933-2.981l3.334-9.15h1.756l3.332,9.15c0.133,0.351.91,2.63,0.935,2.981h0.044c0.043-.351.8-2.63,0.91-2.981l3.179-9.15h2.243l-5.49,15.4h-1.688l-3.6-9.607a25.578,25.578,0,0,1-.758-2.5h-0.044a25.421,25.421,0,0,1-.776,2.5l-3.578,9.607h-1.69Zm24.117,7.7a8.2,8.2,0,1,1,8.2,8A7.862,7.862,0,0,1,323.769,131.976Zm14.133,0a5.946,5.946,0,1,0-5.955,6.053A5.772,5.772,0,0,0,337.9,131.976Zm5.433-7.7h4.511c2.913,0,5.178,1.5,5.178,4.563a4.294,4.294,0,0,1-3.956,4.346l4.779,6.492h-2.579l-4.511-6.276h-1.223v6.276h-2.2v-15.4Zm4.267,7.351c2.044,0,3.2-1.077,3.2-2.764s-1.156-2.765-3.2-2.765h-2.068v5.529H347.6Zm8.736-7.351h2.2v7.154l6.444-7.154h2.666l-6.687,7.351,7,8.05h-2.754l-6.668-7.785v7.785h-2.2v-15.4Z" transform="translate(0 -0.875)"/>
  </g>
</svg>
