<svg xmlns="http://www.w3.org/2000/svg" width="94" height="39" viewBox="0 0 94 39">
  <g fill="none" fill-rule="evenodd">
    <path fill="#414140" d="M7.962 16.515C7.962 17.206 8.217 17.768 8.727 18.203 9.237 18.638 9.897 18.855 10.707 18.855 11.787 18.855 12.694 18.488 13.429 17.752 14.164 17.018 14.532 16.095 14.532 14.985L14.532 14.22C13.722 14.07 12.867 13.995 11.967 13.995 10.826 13.995 9.875 14.191 9.11 14.58 8.344 14.97 7.962 15.615 7.962 16.515zM14.847 23.94L14.442 20.925C12.942 23.326 10.662 24.525 7.602 24.525 6.252 24.525 5.029 24.233 3.934 23.648 2.839 23.063 1.97 22.26 1.324 21.24.679 20.221.357 19.035.357 17.685.357 15.136 1.354 13.156 3.349 11.745 5.344 10.335 7.977 9.63 11.247 9.63 12.266 9.63 13.346 9.72 14.487 9.9 14.367 8.76 13.88 7.898 13.024 7.313 12.17 6.728 11.127 6.435 9.897 6.435 8.817 6.435 7.729 6.638 6.634 7.043 5.539 7.448 4.497 7.936 3.507 8.505L.852 3.465C2.352 2.505 3.971 1.763 5.712 1.238 7.451.713 9.192.45 10.932.45 13.031.45 14.922.81 16.602 1.53 18.282 2.251 19.601 3.346 20.562 4.815 21.522 6.286 22.002 8.145 22.002 10.395L22.002 23.94 14.847 23.94 14.847 23.94zM39.057 18.315C40.436 18.315 41.539 17.783 42.365 16.718 43.189 15.653 43.602 14.236 43.602 12.465 43.602 10.695 43.189 9.278 42.365 8.212 41.539 7.148 40.436 6.615 39.057 6.615 37.707 6.615 36.619 7.148 35.795 8.212 34.969 9.278 34.557 10.695 34.557 12.465 34.557 14.236 34.969 15.653 35.795 16.718 36.619 17.783 37.707 18.315 39.057 18.315zM41.172 24.525C39.822 24.525 38.592 24.24 37.482 23.67 36.372 23.101 35.441 22.32 34.692 21.33L34.692 32.265 26.862 32.265 26.862 1.035 34.017 1.035 34.422 4.05C35.142 2.97 36.109 2.1 37.325 1.44 38.54.781 39.941.45 41.532.45 43.482.45 45.207.96 46.707 1.98 48.207 3.001 49.391 4.41 50.262 6.21 51.132 8.01 51.567 10.096 51.567 12.465 51.567 14.835 51.124 16.928 50.24 18.743 49.354 20.558 48.125 21.976 46.55 22.995 44.974 24.015 43.181 24.525 41.172 24.525L41.172 24.525zM67.699 18.315C69.079 18.315 70.181 17.783 71.007 16.718 71.832 15.653 72.244 14.236 72.244 12.465 72.244 10.695 71.832 9.278 71.007 8.212 70.181 7.148 69.079 6.615 67.699 6.615 66.349 6.615 65.261 7.148 64.437 8.212 63.611 9.278 63.199 10.695 63.199 12.465 63.199 14.236 63.611 15.653 64.437 16.718 65.261 17.783 66.349 18.315 67.699 18.315zM69.814 24.525C68.465 24.525 67.234 24.24 66.124 23.67 65.014 23.101 64.084 22.32 63.334 21.33L63.334 32.265 55.505 32.265 55.505 1.035 62.659 1.035 63.064 4.05C63.784 2.97 64.752 2.1 65.967 1.44 67.182.781 68.584.45 70.175.45 72.124.45 73.849.96 75.349 1.98 76.849 3.001 78.034 4.41 78.904 6.21 79.774 8.01 80.209 10.096 80.209 12.465 80.209 14.835 79.766 16.928 78.882 18.743 77.997 20.558 76.767 21.976 75.192 22.995 73.617 24.015 71.824 24.525 69.814 24.525L69.814 24.525z"/>
    <path class='no-color-change' fill="#009BFF" d="M88.178,24.435 C87.219,24.435 86.341,24.203 85.546,23.738 C84.751,23.273 84.121,22.643 83.656,21.848 C83.191,21.053 82.959,20.175 82.959,19.215 C82.959,18.255 83.191,17.378 83.656,16.583 C84.121,15.788 84.751,15.158 85.546,14.693 C86.341,14.228 87.219,13.995 88.178,13.995 C89.138,13.995 90.016,14.228 90.811,14.693 C91.606,15.158 92.236,15.788 92.701,16.583 C93.166,17.378 93.399,18.255 93.399,19.215 C93.399,20.175 93.166,21.053 92.701,21.848 C92.236,22.643 91.606,23.273 90.811,23.738 C90.016,24.203 89.138,24.435 88.178,24.435"/>
    <path fill="#414140" d="M2.414 37.034L3.022 37.034C3.222 37.034 3.379 36.985 3.496 36.886 3.612 36.788 3.67 36.654 3.67 36.484 3.67 36.314 3.612 36.18 3.496 36.082 3.379 35.984 3.222 35.934 3.022 35.934L2.414 35.934 2.414 37.034zM1.963 38.594L1.963 35.554 3.022 35.554C3.362 35.554 3.631 35.638 3.831 35.805 4.03 35.972 4.13 36.198 4.13 36.484 4.13 36.767 4.03 36.991 3.831 37.157 3.631 37.322 3.362 37.405 3.022 37.405L2.414 37.405 2.414 38.594 1.963 38.594 1.963 38.594zM5.042 37.449L6.15 37.449 5.596 36.024 5.042 37.449zM6.593 38.594L6.298 37.829 4.895 37.829 4.599 38.594 4.144 38.594 5.359 35.554 5.847 35.554 7.058 38.594 6.593 38.594 6.593 38.594zM8.014 36.989L8.635 36.989C8.829 36.989 8.983 36.942 9.098 36.846 9.213 36.751 9.27 36.623 9.27 36.462 9.27 36.301 9.213 36.173 9.098 36.077 8.983 35.982 8.829 35.934 8.635 35.934L8.014 35.934 8.014 36.989zM8.014 37.36L8.014 38.594 7.563 38.594 7.563 35.554 8.635 35.554C8.972 35.554 9.239 35.636 9.435 35.798 9.632 35.96 9.73 36.182 9.73 36.462 9.73 36.673 9.671 36.852 9.551 36.998 9.432 37.144 9.268 37.247 9.06 37.307L9.797 38.594 9.283 38.594 8.591 37.36 8.014 37.36 8.014 37.36z"/>
    <polyline fill="#414140" points="11.026 38.594 11.026 35.934 10.003 35.934 10.003 35.554 12.501 35.554 12.501 35.934 11.478 35.934 11.478 38.594 11.026 38.594"/>
    <path fill="#414140" d="M15.402,38.249 C15.599,38.249 15.774,38.2 15.927,38.1 C16.081,38 16.201,37.862 16.287,37.686 C16.373,37.511 16.416,37.307 16.416,37.074 C16.416,36.842 16.373,36.637 16.287,36.462 C16.201,36.286 16.081,36.148 15.927,36.048 C15.774,35.948 15.599,35.899 15.402,35.899 C15.205,35.899 15.031,35.948 14.879,36.048 C14.727,36.148 14.608,36.286 14.521,36.462 C14.435,36.637 14.392,36.842 14.392,37.074 C14.392,37.307 14.435,37.511 14.521,37.686 C14.608,37.862 14.727,38 14.879,38.1 C15.031,38.2 15.205,38.249 15.402,38.249 Z M15.402,38.643 C15.116,38.643 14.863,38.576 14.642,38.442 C14.422,38.308 14.248,38.123 14.121,37.887 C13.995,37.652 13.932,37.381 13.932,37.074 C13.932,36.767 13.995,36.496 14.121,36.261 C14.248,36.025 14.422,35.84 14.642,35.707 C14.863,35.572 15.116,35.505 15.402,35.505 C15.688,35.505 15.942,35.572 16.164,35.707 C16.386,35.84 16.56,36.025 16.687,36.261 C16.814,36.496 16.877,36.767 16.877,37.074 C16.877,37.381 16.814,37.652 16.687,37.887 C16.56,38.123 16.386,38.308 16.164,38.442 C15.942,38.576 15.688,38.643 15.402,38.643 L15.402,38.643 Z"/>
    <polyline fill="#414140" points="17.963 38.594 17.511 38.594 17.511 35.554 19.402 35.554 19.402 35.934 17.963 35.934 17.963 36.962 19.183 36.962 19.183 37.342 17.963 37.342 17.963 38.594"/>
    <polyline fill="#414140" points="21.757 38.594 21.757 35.934 20.734 35.934 20.734 35.554 23.232 35.554 23.232 35.934 22.209 35.934 22.209 38.594 21.757 38.594"/>
    <polyline fill="#414140" points="23.75 38.594 23.75 35.554 24.202 35.554 24.202 36.855 25.771 36.855 25.771 35.554 26.222 35.554 26.222 38.594 25.771 38.594 25.771 37.244 24.202 37.244 24.202 38.594 23.75 38.594"/>
    <polyline fill="#414140" points="27.017 38.594 27.017 35.554 28.966 35.554 28.966 35.934 27.469 35.934 27.469 36.873 28.787 36.873 28.787 37.253 27.469 37.253 27.469 38.214 29.002 38.214 29.002 38.594 27.017 38.594"/>
    <path fill="#414140" d="M31.853 38.249C32.101 38.249 32.295 38.175 32.437 38.026 32.578 37.877 32.649 37.676 32.649 37.423L32.649 35.554 33.1 35.554 33.1 37.427C33.1 37.806 32.989 38.103 32.767 38.319 32.545 38.535 32.241 38.643 31.853 38.643 31.466 38.643 31.162 38.535 30.941 38.319 30.721 38.103 30.611 37.806 30.611 37.427L30.611 35.554 31.062 35.554 31.062 37.423C31.062 37.676 31.133 37.877 31.274 38.026 31.416 38.175 31.609 38.249 31.853 38.249M34.785 38.643C34.556 38.643 34.337 38.603 34.128 38.522 33.92 38.442 33.751 38.334 33.623 38.2L33.878 37.901C33.997 38.011 34.138 38.097 34.3 38.16 34.462 38.223 34.624 38.254 34.785 38.254 34.982 38.254 35.14 38.216 35.261 38.14 35.382 38.064 35.442 37.959 35.442 37.825 35.442 37.703 35.399 37.6 35.313 37.517 35.226 37.433 35.079 37.363 34.87 37.307L34.45 37.195C34.179 37.123 33.981 37.022 33.858 36.891 33.734 36.76 33.672 36.588 33.672 36.377 33.672 36.204 33.718 36.052 33.811 35.921 33.903 35.79 34.031 35.688 34.193 35.615 34.355 35.542 34.539 35.505 34.745 35.505 34.962 35.505 35.167 35.546 35.357 35.628 35.548 35.71 35.716 35.824 35.862 35.97L35.59 36.265C35.462 36.146 35.328 36.054 35.19 35.99 35.051 35.926 34.904 35.894 34.749 35.894 34.562 35.894 34.408 35.934 34.289 36.013 34.17 36.092 34.11 36.201 34.11 36.341 34.11 36.469 34.153 36.569 34.237 36.641 34.323 36.712 34.453 36.772 34.629 36.819L35.098 36.949C35.369 37.023 35.567 37.128 35.692 37.262 35.818 37.396 35.88 37.563 35.88 37.762 35.88 37.938 35.834 38.092 35.742 38.225 35.649 38.357 35.521 38.46 35.357 38.533 35.193 38.606 35.002 38.643 34.785 38.643M37.016 37.449L38.124 37.449 37.57 36.024 37.016 37.449zM38.566 38.594L38.271 37.829 36.868 37.829 36.573 38.594 36.117 38.594 37.333 35.554 37.82 35.554 39.031 38.594 38.566 38.594 38.566 38.594z"/>
    <polyline fill="#414140" points="41.132 38.594 41.132 35.934 40.108 35.934 40.108 35.554 42.606 35.554 42.606 35.934 41.583 35.934 41.583 38.594 41.132 38.594"/>
    <path fill="#414140" d="M44.233 38.249C44.43 38.249 44.605 38.2 44.758 38.1 44.912 38 45.032 37.862 45.118 37.686 45.205 37.511 45.248 37.307 45.248 37.074 45.248 36.842 45.205 36.637 45.118 36.462 45.032 36.286 44.912 36.148 44.758 36.048 44.605 35.948 44.43 35.899 44.233 35.899 44.036 35.899 43.862 35.948 43.71 36.048 43.558 36.148 43.439 36.286 43.353 36.462 43.267 36.637 43.223 36.842 43.223 37.074 43.223 37.307 43.267 37.511 43.353 37.686 43.439 37.862 43.558 38 43.71 38.1 43.862 38.2 44.036 38.249 44.233 38.249zM44.233 38.643C43.947 38.643 43.694 38.576 43.473 38.442 43.253 38.308 43.079 38.123 42.953 37.887 42.826 37.652 42.763 37.381 42.763 37.074 42.763 36.767 42.826 36.496 42.953 36.261 43.079 36.025 43.253 35.84 43.473 35.707 43.694 35.572 43.947 35.505 44.233 35.505 44.519 35.505 44.773 35.572 44.995 35.707 45.217 35.84 45.392 36.025 45.518 36.261 45.645 36.496 45.708 36.767 45.708 37.074 45.708 37.381 45.645 37.652 45.518 37.887 45.392 38.123 45.217 38.308 44.995 38.442 44.773 38.576 44.519 38.643 44.233 38.643L44.233 38.643zM46.794 38.214L47.411 38.214C47.626 38.214 47.81 38.167 47.963 38.073 48.116 37.979 48.234 37.847 48.316 37.677 48.398 37.507 48.439 37.307 48.439 37.074 48.439 36.842 48.398 36.641 48.316 36.471 48.234 36.301 48.116 36.169 47.963 36.075 47.81 35.981 47.626 35.934 47.411 35.934L46.794 35.934 46.794 38.214zM46.343 38.594L46.343 35.554 47.411 35.554C47.709 35.554 47.97 35.618 48.193 35.744 48.416 35.871 48.59 36.048 48.714 36.276 48.837 36.504 48.899 36.77 48.899 37.074 48.899 37.378 48.837 37.644 48.714 37.872 48.59 38.1 48.416 38.277 48.193 38.404 47.97 38.53 47.709 38.594 47.411 38.594L46.343 38.594 46.343 38.594zM50.052 37.449L51.161 37.449 50.606 36.024 50.052 37.449zM51.603 38.594L51.308 37.829 49.905 37.829 49.61 38.594 49.154 38.594 50.37 35.554 50.857 35.554 52.068 38.594 51.603 38.594 51.603 38.594z"/>
    <polyline fill="#414140" points="53.453 37.387 53.453 38.594 53.002 38.594 53.002 37.387 51.934 35.554 52.466 35.554 53.23 36.958 53.994 35.554 54.517 35.554 53.453 37.387"/>
    <polyline fill="#414140" points="58.128 38.594 56.506 36.265 56.506 38.594 56.081 38.594 56.081 35.554 56.501 35.554 58.128 37.883 58.128 35.554 58.549 35.554 58.549 38.594 58.128 38.594"/>
    <polyline fill="#414140" points="59.344 38.594 59.344 35.554 61.293 35.554 61.293 35.934 59.795 35.934 59.795 36.873 61.114 36.873 61.114 37.253 59.795 37.253 59.795 38.214 61.328 38.214 61.328 38.594 59.344 38.594"/>
    <polyline fill="#414140" points="62.669 38.594 62.669 35.934 61.646 35.934 61.646 35.554 64.144 35.554 64.144 35.934 63.121 35.934 63.121 38.594 62.669 38.594"/>
    <polyline fill="#414140" points="67.094 38.594 66.383 36.171 65.673 38.594 65.203 38.594 64.394 35.554 64.841 35.554 65.458 37.959 66.169 35.554 66.598 35.554 67.313 37.968 67.934 35.554 68.372 35.554 67.563 38.594 67.094 38.594"/>
    <path fill="#414140" d="M70.164 38.249C70.361 38.249 70.536 38.2 70.689 38.1 70.843 38 70.963 37.862 71.049 37.686 71.136 37.511 71.179 37.307 71.179 37.074 71.179 36.842 71.136 36.637 71.049 36.462 70.963 36.286 70.843 36.148 70.689 36.048 70.536 35.948 70.361 35.899 70.164 35.899 69.968 35.899 69.793 35.948 69.641 36.048 69.489 36.148 69.37 36.286 69.284 36.462 69.197 36.637 69.154 36.842 69.154 37.074 69.154 37.307 69.197 37.511 69.284 37.686 69.37 37.862 69.489 38 69.641 38.1 69.793 38.2 69.968 38.249 70.164 38.249zM70.164 38.643C69.878 38.643 69.625 38.576 69.404 38.442 69.184 38.308 69.01 38.123 68.884 37.887 68.757 37.652 68.694 37.381 68.694 37.074 68.694 36.767 68.757 36.496 68.884 36.261 69.01 36.025 69.184 35.84 69.404 35.707 69.625 35.572 69.878 35.505 70.164 35.505 70.45 35.505 70.704 35.572 70.926 35.707 71.148 35.84 71.322 36.025 71.449 36.261 71.576 36.496 71.639 36.767 71.639 37.074 71.639 37.381 71.576 37.652 71.449 37.887 71.322 38.123 71.148 38.308 70.926 38.442 70.704 38.576 70.45 38.643 70.164 38.643L70.164 38.643zM72.725 36.989L73.346 36.989C73.54 36.989 73.694 36.942 73.809 36.846 73.924 36.751 73.981 36.623 73.981 36.462 73.981 36.301 73.924 36.173 73.809 36.077 73.694 35.982 73.54 35.934 73.346 35.934L72.725 35.934 72.725 36.989zM72.725 37.36L72.725 38.594 72.274 38.594 72.274 35.554 73.346 35.554C73.683 35.554 73.95 35.636 74.147 35.798 74.343 35.96 74.441 36.182 74.441 36.462 74.441 36.673 74.382 36.852 74.263 36.998 74.143 37.144 73.98 37.247 73.771 37.307L74.508 38.594 73.994 38.594 73.302 37.36 72.725 37.36 72.725 37.36z"/>
    <polyline fill="#414140" points="76.895 38.594 75.532 37.061 75.532 38.594 75.081 38.594 75.081 35.554 75.532 35.554 75.532 36.886 76.806 35.554 77.364 35.554 76.01 36.949 77.463 38.594 76.895 38.594"/>
  </g>
</svg>
