<svg xmlns="http://www.w3.org/2000/svg" width="349" height="55" viewBox="0 0 349 55">
  <g fill="none" fill-rule="evenodd">
    <path class='no-color-change'  fill="#009bff" d="M54.176,27.824 C54.176,42.737 42.089,54.824 27.176,54.824 C12.263,54.824 0.176,42.737 0.176,27.824 C0.176,12.911 12.263,0.824 27.176,0.824 C42.089,0.824 54.176,12.911 54.176,27.824"/>
    <path fill="#414140" d="M69.537 21.551C70.516 21.551 71.272 21.262 71.805 20.686 72.339 20.109 72.605 19.287 72.605 18.22L72.605 7.44 77.484 7.44 77.484 18.194C77.484 20.554 76.793 22.382 75.412 23.675 74.03 24.97 72.072 25.617 69.537 25.617 67.002 25.617 65.043 24.97 63.662 23.675 62.28 22.382 61.59 20.554 61.59 18.194L61.59 7.44 66.468 7.44 66.468 18.22C66.468 19.287 66.734 20.109 67.268 20.686 67.801 21.262 68.557 21.551 69.537 21.551M87.241 25.617C85.79 25.617 84.399 25.368 83.071 24.869 81.742 24.37 80.588 23.659 79.608 22.732L81.969 19.768C82.669 20.397 83.455 20.891 84.33 21.249 85.204 21.608 86.166 21.787 87.215 21.787 87.914 21.787 88.465 21.665 88.867 21.42 89.269 21.175 89.47 20.808 89.47 20.319 89.47 19.846 89.234 19.466 88.762 19.177 88.29 18.889 87.46 18.587 86.27 18.273L85.169 17.984C83.56 17.564 82.337 16.921 81.497 16.056 80.658 15.191 80.238 14.093 80.238 12.764 80.238 11.628 80.535 10.631 81.13 9.775 81.724 8.918 82.546 8.257 83.595 7.794 84.644 7.331 85.859 7.099 87.241 7.099 88.605 7.099 89.907 7.348 91.149 7.847 92.39 8.345 93.492 9.023 94.454 9.879L92.014 12.948C91.386 12.407 90.646 11.934 89.799 11.532 88.95 11.129 88.106 10.928 87.267 10.928 86.568 10.928 86.03 11.046 85.654 11.283 85.278 11.519 85.091 11.864 85.091 12.319 85.091 12.739 85.287 13.101 85.68 13.407 86.074 13.713 86.752 13.997 87.713 14.259L89.051 14.626C90.974 15.152 92.334 15.869 93.13 16.778 93.925 17.687 94.323 18.745 94.323 19.952 94.323 21.088 94.03 22.08 93.444 22.928 92.858 23.777 92.032 24.436 90.966 24.909 89.899 25.38 88.657 25.617 87.241 25.617M102.479 18.325L106.703 18.325 104.604 12.082 102.479 18.325zM109.063 25.276L107.935 21.945 101.247 21.945 100.119 25.276 95.293 25.276 101.824 7.44 107.489 7.44 114.02 25.276 109.063 25.276 109.063 25.276z"/>
    <polyline fill="#414140" points="125.219 25.276 125.219 11.374 119.921 11.374 119.921 7.44 135.396 7.44 135.396 11.374 130.097 11.374 130.097 25.276 125.219 25.276"/>
    <path fill="#414140" d="M145.598 21.578C146.455 21.578 147.203 21.359 147.841 20.921 148.479 20.485 148.982 19.877 149.349 19.099 149.717 18.321 149.9 17.416 149.9 16.384 149.9 15.353 149.717 14.443 149.349 13.657 148.982 12.87 148.479 12.253 147.841 11.807 147.203 11.362 146.455 11.138 145.598 11.138 144.742 11.138 143.994 11.362 143.356 11.807 142.718 12.253 142.215 12.87 141.847 13.657 141.48 14.443 141.297 15.353 141.297 16.384 141.297 17.416 141.48 18.321 141.847 19.099 142.215 19.877 142.718 20.485 143.356 20.921 143.994 21.359 144.742 21.578 145.598 21.578zM145.598 25.617C143.815 25.617 142.228 25.223 140.838 24.436 139.448 23.65 138.35 22.561 137.547 21.17 136.742 19.781 136.34 18.185 136.34 16.384 136.34 15.02 136.567 13.774 137.021 12.647 137.476 11.519 138.123 10.539 138.963 9.708 139.802 8.878 140.781 8.236 141.9 7.781 143.019 7.327 144.252 7.099 145.598 7.099 146.945 7.099 148.178 7.327 149.297 7.781 150.416 8.236 151.395 8.878 152.234 9.708 153.074 10.539 153.72 11.519 154.176 12.647 154.63 13.774 154.857 15.02 154.857 16.384 154.857 18.185 154.455 19.781 153.65 21.17 152.846 22.561 151.749 23.65 150.359 24.436 148.969 25.223 147.382 25.617 145.598 25.617L145.598 25.617zM162.464 21.42L164.693 21.42C165.969 21.42 166.978 20.956 167.722 20.03 168.466 19.103 168.837 17.879 168.837 16.358 168.837 14.836 168.466 13.613 167.722 12.686 166.978 11.759 165.969 11.295 164.693 11.295L162.464 11.295 162.464 21.42zM157.664 25.276L157.664 7.44 164.693 7.44C166.459 7.44 168.019 7.821 169.375 8.581 170.729 9.341 171.792 10.391 172.561 11.729 173.331 13.066 173.716 14.61 173.716 16.358 173.716 18.107 173.331 19.65 172.561 20.987 171.792 22.325 170.729 23.374 169.375 24.134 168.019 24.895 166.459 25.276 164.693 25.276L157.664 25.276 157.664 25.276zM181.531 18.325L185.754 18.325 183.656 12.082 181.531 18.325zM188.115 25.276L186.987 21.945 180.298 21.945 179.17 25.276 174.344 25.276 180.875 7.44 186.54 7.44 193.072 25.276 188.115 25.276 188.115 25.276z"/>
    <polyline fill="#414140" points="202.514 18.85 202.514 25.276 197.557 25.276 197.557 18.85 191.236 7.44 196.743 7.44 200.048 14.522 203.326 7.44 208.835 7.44 202.514 18.85"/>
    <polyline fill="#414140" points="227.797 25.276 220.795 14.993 220.795 25.276 216.309 25.276 216.309 7.44 220.768 7.44 227.744 17.906 227.744 7.44 232.256 7.44 232.256 25.276 227.797 25.276"/>
    <polyline fill="#414140" points="236.191 25.276 236.191 7.44 248.492 7.44 248.492 11.348 240.965 11.348 240.965 14.365 247.653 14.365 247.653 18.273 240.965 18.273 240.965 21.368 248.912 21.368 248.912 25.276 236.191 25.276"/>
    <polyline fill="#414140" points="255.914 25.276 255.914 11.374 250.616 11.374 250.616 7.44 266.091 7.44 266.091 11.374 260.793 11.374 260.793 25.276 255.914 25.276"/>
    <polyline fill="#414140" points="282.562 25.276 279.677 13.682 276.791 25.276 271.624 25.276 267.192 7.44 271.913 7.44 274.615 19.61 277.605 7.44 281.775 7.44 284.739 19.532 287.519 7.44 292.161 7.44 287.729 25.276 282.562 25.276"/>
    <path fill="#414140" d="M302.548 21.578C303.405 21.578 304.152 21.359 304.79 20.921 305.429 20.485 305.931 19.877 306.298 19.099 306.665 18.321 306.85 17.416 306.85 16.384 306.85 15.353 306.665 14.443 306.298 13.657 305.931 12.87 305.429 12.253 304.79 11.807 304.152 11.362 303.405 11.138 302.548 11.138 301.691 11.138 300.944 11.362 300.305 11.807 299.667 12.253 299.164 12.87 298.797 13.657 298.43 14.443 298.246 15.353 298.246 16.384 298.246 17.416 298.43 18.321 298.797 19.099 299.164 19.877 299.667 20.485 300.305 20.921 300.944 21.359 301.691 21.578 302.548 21.578zM302.548 25.617C300.764 25.617 299.178 25.223 297.787 24.436 296.398 23.65 295.3 22.561 294.495 21.17 293.692 19.781 293.289 18.185 293.289 16.384 293.289 15.02 293.516 13.774 293.971 12.647 294.426 11.519 295.073 10.539 295.912 9.708 296.751 8.878 297.731 8.236 298.85 7.781 299.968 7.327 301.201 7.099 302.548 7.099 303.894 7.099 305.127 7.327 306.246 7.781 307.365 8.236 308.344 8.878 309.184 9.708 310.023 10.539 310.67 11.519 311.124 12.647 311.579 13.774 311.807 15.02 311.807 16.384 311.807 18.185 311.405 19.781 310.6 21.17 309.795 22.561 308.698 23.65 307.309 24.436 305.918 25.223 304.331 25.617 302.548 25.617L302.548 25.617zM319.387 15.65L322.01 15.65C322.761 15.65 323.356 15.453 323.793 15.06 324.23 14.666 324.448 14.128 324.448 13.447 324.448 12.8 324.23 12.28 323.793 11.886 323.356 11.493 322.761 11.295 322.01 11.295L319.387 11.295 319.387 15.65zM319.387 19.348L319.387 25.276 314.665 25.276 314.665 7.44 322.534 7.44C324.632 7.44 326.293 7.978 327.518 9.053 328.741 10.128 329.354 11.593 329.354 13.447 329.354 14.653 329.082 15.694 328.54 16.568 327.998 17.442 327.238 18.124 326.259 18.614L329.905 25.276 324.711 25.276 321.747 19.348 319.387 19.348 319.387 19.348z"/>
    <polyline fill="#414140" points="343.044 25.276 337.379 16.556 337.379 25.276 332.527 25.276 332.527 7.44 337.379 7.44 337.379 15.27 343.254 7.44 348.867 7.44 342.258 15.636 348.737 25.276 343.044 25.276"/>
    <polyline class='no-color-change' fill="#009bff" points="73.078 48.129 66.076 37.847 66.076 48.129 61.59 48.129 61.59 30.293 66.049 30.293 73.026 40.759 73.026 30.293 77.537 30.293 77.537 48.129 73.078 48.129"/>
    <path class='no-color-change' fill="#009bff" d="M89.707 44.431C90.564 44.431 91.312 44.212 91.949 43.775 92.588 43.338 93.091 42.731 93.458 41.953 93.825 41.174 94.009 40.27 94.009 39.238 94.009 38.206 93.825 37.296 93.458 36.51 93.091 35.723 92.588 35.107 91.949 34.661 91.312 34.215 90.564 33.992 89.707 33.992 88.851 33.992 88.103 34.215 87.465 34.661 86.826 35.107 86.324 35.723 85.956 36.51 85.589 37.296 85.406 38.206 85.406 39.238 85.406 40.27 85.589 41.174 85.956 41.953 86.324 42.731 86.826 43.338 87.465 43.775 88.103 44.212 88.851 44.431 89.707 44.431zM89.707 48.47C87.924 48.47 86.337 48.077 84.947 47.289 83.557 46.503 82.459 45.414 81.655 44.024 80.851 42.634 80.449 41.038 80.449 39.238 80.449 37.873 80.676 36.627 81.13 35.5 81.585 34.372 82.232 33.393 83.072 32.562 83.91 31.732 84.89 31.089 86.009 30.634 87.128 30.18 88.361 29.953 89.707 29.953 91.054 29.953 92.286 30.18 93.406 30.634 94.525 31.089 95.504 31.732 96.343 32.562 97.183 33.393 97.829 34.372 98.284 35.5 98.739 36.627 98.966 37.873 98.966 39.238 98.966 41.038 98.564 42.634 97.759 44.024 96.955 45.414 95.858 46.503 94.468 47.289 93.077 48.077 91.49 48.47 89.707 48.47L89.707 48.47zM106.599 38.503L109.221 38.503C109.973 38.503 110.568 38.306 111.005 37.913 111.442 37.52 111.66 36.982 111.66 36.3 111.66 35.654 111.442 35.133 111.005 34.74 110.568 34.346 109.973 34.149 109.221 34.149L106.599 34.149 106.599 38.503zM106.599 42.202L106.599 48.129 101.877 48.129 101.877 30.293 109.746 30.293C111.844 30.293 113.505 30.831 114.73 31.907 115.953 32.982 116.566 34.447 116.566 36.3 116.566 37.506 116.294 38.547 115.752 39.421 115.21 40.295 114.449 40.978 113.47 41.467L117.116 48.129 111.923 48.129 108.959 42.202 106.599 42.202 106.599 42.202z"/>
    <polyline class='no-color-change' fill="#009bff" points="123.411 48.129 123.411 34.228 118.113 34.228 118.113 30.293 133.588 30.293 133.588 34.228 128.289 34.228 128.289 48.129 123.411 48.129"/>
    <polyline class='no-color-change' fill="#009bff" points="136.157 48.129 136.157 30.293 141.036 30.293 141.036 37.165 147.095 37.165 147.095 30.293 151.974 30.293 151.974 48.129 147.095 48.129 147.095 41.153 141.036 41.153 141.036 48.129 136.157 48.129"/>
    <path class='no-color-change' fill="#009bff" d="M170.359 48.47C168.54 48.47 166.945 48.077 165.573 47.289 164.199 46.503 163.124 45.414 162.346 44.024 161.568 42.634 161.179 41.021 161.179 39.185 161.179 37.349 161.568 35.741 162.346 34.359 163.124 32.978 164.199 31.898 165.573 31.12 166.945 30.342 168.54 29.953 170.359 29.953 171.898 29.953 173.283 30.263 174.516 30.884 175.749 31.504 176.802 32.401 177.677 33.573L173.822 35.854C173.366 35.277 172.855 34.823 172.287 34.491 171.718 34.159 171.058 33.992 170.307 33.992 169.065 33.992 168.06 34.46 167.29 35.395 166.521 36.33 166.136 37.594 166.136 39.185 166.136 40.777 166.521 42.048 167.29 43.001 168.06 43.954 169.065 44.431 170.307 44.431 171.075 44.431 171.758 44.244 172.353 43.867 172.947 43.491 173.445 43.05 173.848 42.542L177.677 44.825C176.82 46.013 175.766 46.918 174.516 47.538 173.266 48.16 171.88 48.47 170.359 48.47M185.755 41.178L189.979 41.178 187.88 34.936 185.755 41.178zM192.339 48.129L191.211 44.798 184.523 44.798 183.395 48.129 178.569 48.129 185.1 30.293 190.765 30.293 197.296 48.129 192.339 48.129 192.339 48.129zM204.351 38.503L206.974 38.503C207.726 38.503 208.32 38.306 208.757 37.913 209.195 37.52 209.413 36.982 209.413 36.3 209.413 35.654 209.195 35.133 208.757 34.74 208.32 34.346 207.726 34.149 206.974 34.149L204.351 34.149 204.351 38.503zM204.351 42.202L204.351 48.129 199.63 48.129 199.63 30.293 207.498 30.293C209.597 30.293 211.258 30.831 212.482 31.907 213.705 32.982 214.318 34.447 214.318 36.3 214.318 37.506 214.046 38.547 213.505 39.421 212.962 40.295 212.201 40.978 211.223 41.467L214.869 48.129 209.675 48.129 206.711 42.202 204.351 42.202 204.351 42.202zM225.728 44.431C226.584 44.431 227.331 44.212 227.97 43.775 228.609 43.338 229.111 42.731 229.478 41.953 229.845 41.174 230.03 40.27 230.03 39.238 230.03 38.206 229.845 37.296 229.478 36.51 229.111 35.723 228.609 35.107 227.97 34.661 227.331 34.215 226.584 33.992 225.728 33.992 224.87 33.992 224.123 34.215 223.485 34.661 222.847 35.107 222.344 35.723 221.977 36.51 221.61 37.296 221.426 38.206 221.426 39.238 221.426 40.27 221.61 41.174 221.977 41.953 222.344 42.731 222.847 43.338 223.485 43.775 224.123 44.212 224.87 44.431 225.728 44.431zM225.728 48.47C223.944 48.47 222.358 48.077 220.967 47.289 219.577 46.503 218.48 45.414 217.675 44.024 216.871 42.634 216.469 41.038 216.469 39.238 216.469 37.873 216.696 36.627 217.151 35.5 217.606 34.372 218.252 33.393 219.092 32.562 219.931 31.732 220.91 31.089 222.03 30.634 223.148 30.18 224.381 29.953 225.728 29.953 227.074 29.953 228.307 30.18 229.426 30.634 230.544 31.089 231.524 31.732 232.364 32.562 233.202 33.393 233.85 34.372 234.304 35.5 234.759 36.627 234.987 37.873 234.987 39.238 234.987 41.038 234.584 42.634 233.78 44.024 232.975 45.414 231.878 46.503 230.489 47.289 229.098 48.077 227.511 48.47 225.728 48.47L225.728 48.47z"/>
    <polyline class='no-color-change' fill="#009bff" points="242.777 44.195 250.199 44.195 250.199 48.129 237.898 48.129 237.898 30.293 242.777 30.293 242.777 44.195"/>
    <polygon class='no-color-change' fill="#009bff" points="252.769 48.129 257.648 48.129 257.648 30.293 252.769 30.293"/>
    <polyline class='no-color-change' fill="#009bff" points="273.07 48.129 266.067 37.847 266.067 48.129 261.581 48.129 261.581 30.293 266.04 30.293 273.017 40.759 273.017 30.293 277.529 30.293 277.529 48.129 273.07 48.129"/>
    <path class='no-color-change' fill="#009bff" d="M287.049,41.178 L291.272,41.178 L289.174,34.936 L287.049,41.178 Z M293.632,48.129 L292.505,44.798 L285.817,44.798 L284.689,48.129 L279.863,48.129 L286.394,30.293 L292.059,30.293 L298.59,48.129 L293.632,48.129 L293.632,48.129 Z"/>
  </g>
</svg>
