<svg xmlns="http://www.w3.org/2000/svg" width="296" height="46" viewBox="0 0 296 46">
  <g fill="none" fill-rule="evenodd">
    <path fill="#404040" d="M4.66 43.069L5.632 43.069C5.952 43.069 6.204 42.99 6.39 42.833 6.576 42.676 6.669 42.462 6.669 42.19 6.669 41.918 6.576 41.704 6.39 41.547 6.204 41.389 5.952 41.311 5.632 41.311L4.66 41.311 4.66 43.069zM3.938 45.563L3.938 40.703 5.632 40.703C6.175 40.703 6.607 40.837 6.926 41.104 7.245 41.371 7.405 41.733 7.405 42.19 7.405 42.643 7.245 43.001 6.926 43.266 6.607 43.53 6.175 43.662 5.632 43.662L4.66 43.662 4.66 45.563 3.938 45.563 3.938 45.563zM8.863 43.734L10.635 43.734 9.749 41.454 8.863 43.734zM11.343 45.563L10.871 44.341 8.627 44.341 8.155 45.563 7.426 45.563 9.37 40.703 10.149 40.703 12.086 45.563 11.343 45.563 11.343 45.563zM13.616 42.997L14.609 42.997C14.919 42.997 15.165 42.922 15.349 42.769 15.532 42.617 15.624 42.411 15.624 42.154 15.624 41.897 15.532 41.692 15.349 41.539 15.165 41.387 14.919 41.311 14.609 41.311L13.616 41.311 13.616 42.997zM13.616 43.591L13.616 45.563 12.894 45.563 12.894 40.703 14.609 40.703C15.148 40.703 15.574 40.833 15.889 41.093 16.203 41.353 16.36 41.706 16.36 42.154 16.36 42.493 16.265 42.779 16.074 43.012 15.884 43.245 15.622 43.41 15.288 43.505L16.467 45.563 15.646 45.563 14.538 43.591 13.616 43.591 13.616 43.591z"/>
    <polyline fill="#404040" points="18.433 45.563 18.433 41.311 16.796 41.311 16.796 40.703 20.791 40.703 20.791 41.311 19.155 41.311 19.155 45.563 18.433 45.563"/>
    <path fill="#404040" d="M25.43,45.013 C25.744,45.013 26.024,44.933 26.27,44.774 C26.515,44.614 26.707,44.394 26.845,44.112 C26.983,43.832 27.052,43.505 27.052,43.133 C27.052,42.761 26.983,42.435 26.845,42.154 C26.707,41.873 26.515,41.653 26.27,41.493 C26.024,41.333 25.744,41.253 25.43,41.253 C25.115,41.253 24.837,41.333 24.594,41.493 C24.35,41.653 24.16,41.873 24.022,42.154 C23.884,42.435 23.814,42.761 23.814,43.133 C23.814,43.505 23.884,43.832 24.022,44.112 C24.16,44.394 24.35,44.614 24.594,44.774 C24.837,44.933 25.115,45.013 25.43,45.013 Z M25.43,45.642 C24.972,45.642 24.567,45.535 24.215,45.32 C23.862,45.106 23.585,44.81 23.382,44.434 C23.18,44.058 23.078,43.624 23.078,43.133 C23.078,42.643 23.18,42.209 23.382,41.833 C23.585,41.456 23.862,41.161 24.215,40.946 C24.567,40.732 24.972,40.625 25.43,40.625 C25.887,40.625 26.293,40.732 26.648,40.946 C27.003,41.161 27.282,41.456 27.485,41.833 C27.687,42.209 27.788,42.643 27.788,43.133 C27.788,43.624 27.687,44.058 27.485,44.434 C27.282,44.81 27.003,45.106 26.648,45.32 C26.293,45.535 25.887,45.642 25.43,45.642 L25.43,45.642 Z"/>
    <polyline fill="#404040" points="29.525 45.563 28.803 45.563 28.803 40.703 31.827 40.703 31.827 41.311 29.525 41.311 29.525 42.955 31.477 42.955 31.477 43.562 29.525 43.562 29.525 45.563"/>
    <polyline fill="#404040" points="35.593 45.563 35.593 41.311 33.956 41.311 33.956 40.703 37.952 40.703 37.952 41.311 36.315 41.311 36.315 45.563 35.593 45.563"/>
    <polyline fill="#404040" points="38.781 45.563 38.781 40.703 39.502 40.703 39.502 42.783 42.011 42.783 42.011 40.703 42.733 40.703 42.733 45.563 42.011 45.563 42.011 43.405 39.502 43.405 39.502 45.563 38.781 45.563"/>
    <polyline fill="#404040" points="44.005 45.563 44.005 40.703 47.121 40.703 47.121 41.311 44.727 41.311 44.727 42.812 46.835 42.812 46.835 43.419 44.727 43.419 44.727 44.956 47.178 44.956 47.178 45.563 44.005 45.563"/>
    <path fill="#404040" d="M51.738 45.013C52.134 45.013 52.445 44.894 52.671 44.656 52.897 44.417 53.011 44.096 53.011 43.691L53.011 40.703 53.732 40.703 53.732 43.698C53.732 44.303 53.555 44.778 53.2 45.124 52.845 45.469 52.358 45.642 51.738 45.642 51.119 45.642 50.633 45.469 50.28 45.124 49.928 44.778 49.751 44.303 49.751 43.698L49.751 40.703 50.473 40.703 50.473 43.691C50.473 44.096 50.587 44.417 50.813 44.656 51.039 44.894 51.348 45.013 51.738 45.013M56.427 45.642C56.06 45.642 55.71 45.578 55.376 45.449 55.043 45.32 54.773 45.149 54.568 44.935L54.976 44.455C55.166 44.632 55.392 44.77 55.651 44.87 55.911 44.97 56.17 45.02 56.427 45.02 56.741 45.02 56.995 44.96 57.188 44.838 57.381 44.716 57.477 44.548 57.477 44.334 57.477 44.139 57.408 43.974 57.27 43.841 57.132 43.707 56.896 43.596 56.563 43.505L55.891 43.326C55.457 43.212 55.141 43.05 54.944 42.84 54.746 42.631 54.647 42.357 54.647 42.019 54.647 41.742 54.721 41.499 54.869 41.289 55.016 41.08 55.22 40.917 55.48 40.8 55.739 40.683 56.034 40.625 56.362 40.625 56.71 40.625 57.037 40.69 57.342 40.821 57.647 40.952 57.916 41.135 58.149 41.368L57.713 41.84C57.508 41.649 57.295 41.503 57.074 41.4 56.852 41.298 56.617 41.246 56.37 41.246 56.069 41.246 55.824 41.31 55.633 41.436 55.443 41.562 55.348 41.737 55.348 41.961 55.348 42.166 55.415 42.326 55.551 42.44 55.687 42.554 55.895 42.65 56.177 42.726L56.927 42.933C57.361 43.052 57.678 43.219 57.878 43.434 58.078 43.648 58.178 43.915 58.178 44.234 58.178 44.515 58.104 44.762 57.956 44.974 57.808 45.186 57.604 45.35 57.342 45.467 57.079 45.584 56.775 45.642 56.427 45.642M59.993 43.734L61.766 43.734 60.88 41.454 59.993 43.734zM62.473 45.563L62.002 44.341 59.757 44.341 59.286 45.563 58.557 45.563 60.501 40.703 61.28 40.703 63.217 45.563 62.473 45.563 62.473 45.563z"/>
    <polyline fill="#404040" points="66.576 45.563 66.576 41.311 64.939 41.311 64.939 40.703 68.934 40.703 68.934 41.311 67.298 41.311 67.298 45.563 66.576 45.563"/>
    <path fill="#404040" d="M71.536 45.013C71.851 45.013 72.13 44.933 72.376 44.774 72.621 44.614 72.813 44.394 72.951 44.112 73.089 43.832 73.158 43.505 73.158 43.133 73.158 42.761 73.089 42.435 72.951 42.154 72.813 41.873 72.621 41.653 72.376 41.493 72.13 41.333 71.851 41.253 71.536 41.253 71.222 41.253 70.943 41.333 70.7 41.493 70.457 41.653 70.266 41.873 70.128 42.154 69.99 42.435 69.921 42.761 69.921 43.133 69.921 43.505 69.99 43.832 70.128 44.112 70.266 44.394 70.457 44.614 70.7 44.774 70.943 44.933 71.222 45.013 71.536 45.013zM71.536 45.642C71.079 45.642 70.674 45.535 70.321 45.32 69.968 45.106 69.691 44.81 69.488 44.434 69.286 44.058 69.185 43.624 69.185 43.133 69.185 42.643 69.286 42.209 69.488 41.833 69.691 41.456 69.968 41.161 70.321 40.946 70.674 40.732 71.079 40.625 71.536 40.625 71.994 40.625 72.4 40.732 72.755 40.946 73.109 41.161 73.388 41.456 73.591 41.833 73.793 42.209 73.894 42.643 73.894 43.133 73.894 43.624 73.793 44.058 73.591 44.434 73.388 44.81 73.109 45.106 72.755 45.32 72.4 45.535 71.994 45.642 71.536 45.642L71.536 45.642zM75.631 44.956L76.618 44.956C76.961 44.956 77.255 44.881 77.5 44.731 77.746 44.581 77.934 44.37 78.065 44.098 78.196 43.827 78.261 43.505 78.261 43.133 78.261 42.761 78.196 42.44 78.065 42.169 77.934 41.897 77.746 41.686 77.5 41.536 77.255 41.386 76.961 41.311 76.618 41.311L75.631 41.311 75.631 44.956zM74.909 45.563L74.909 40.703 76.618 40.703C77.094 40.703 77.511 40.805 77.868 41.007 78.226 41.21 78.503 41.493 78.701 41.858 78.899 42.222 78.998 42.647 78.998 43.133 78.998 43.619 78.899 44.045 78.701 44.409 78.503 44.774 78.226 45.057 77.868 45.26 77.511 45.462 77.094 45.563 76.618 45.563L74.909 45.563 74.909 45.563zM80.841 43.734L82.614 43.734 81.728 41.454 80.841 43.734zM83.322 45.563L82.85 44.341 80.606 44.341 80.134 45.563 79.405 45.563 81.349 40.703 82.128 40.703 84.065 45.563 83.322 45.563 83.322 45.563z"/>
    <polyline fill="#404040" points="86.281 43.634 86.281 45.563 85.559 45.563 85.559 43.634 83.85 40.703 84.701 40.703 85.923 42.947 87.145 40.703 87.982 40.703 86.281 43.634"/>
    <polyline fill="#404040" points="93.756 45.563 91.162 41.84 91.162 45.563 90.483 45.563 90.483 40.703 91.155 40.703 93.756 44.427 93.756 40.703 94.428 40.703 94.428 45.563 93.756 45.563"/>
    <polyline fill="#404040" points="95.701 45.563 95.701 40.703 98.817 40.703 98.817 41.311 96.422 41.311 96.422 42.812 98.531 42.812 98.531 43.419 96.422 43.419 96.422 44.956 98.874 44.956 98.874 45.563 95.701 45.563"/>
    <polyline fill="#404040" points="101.018 45.563 101.018 41.311 99.381 41.311 99.381 40.703 103.376 40.703 103.376 41.311 101.74 41.311 101.74 45.563 101.018 45.563"/>
    <polyline fill="#404040" points="108.094 45.563 106.957 41.69 105.821 45.563 105.07 45.563 103.777 40.703 104.491 40.703 105.478 44.548 106.614 40.703 107.3 40.703 108.444 44.563 109.437 40.703 110.138 40.703 108.844 45.563 108.094 45.563"/>
    <path fill="#404040" d="M113.004 45.013C113.318 45.013 113.598 44.933 113.844 44.774 114.089 44.614 114.281 44.394 114.419 44.112 114.557 43.832 114.626 43.505 114.626 43.133 114.626 42.761 114.557 42.435 114.419 42.154 114.281 41.873 114.089 41.653 113.844 41.493 113.598 41.333 113.318 41.253 113.004 41.253 112.689 41.253 112.411 41.333 112.168 41.493 111.925 41.653 111.734 41.873 111.596 42.154 111.458 42.435 111.389 42.761 111.389 43.133 111.389 43.505 111.458 43.832 111.596 44.112 111.734 44.394 111.925 44.614 112.168 44.774 112.411 44.933 112.689 45.013 113.004 45.013zM113.004 45.642C112.547 45.642 112.142 45.535 111.789 45.32 111.436 45.106 111.159 44.81 110.956 44.434 110.754 44.058 110.652 43.624 110.652 43.133 110.652 42.643 110.754 42.209 110.956 41.833 111.159 41.456 111.436 41.161 111.789 40.946 112.142 40.732 112.547 40.625 113.004 40.625 113.461 40.625 113.867 40.732 114.223 40.946 114.577 41.161 114.856 41.456 115.059 41.833 115.261 42.209 115.362 42.643 115.362 43.133 115.362 43.624 115.261 44.058 115.059 44.434 114.856 44.81 114.577 45.106 114.223 45.32 113.867 45.535 113.461 45.642 113.004 45.642L113.004 45.642zM117.099 42.997L118.093 42.997C118.402 42.997 118.649 42.922 118.832 42.769 119.016 42.617 119.107 42.411 119.107 42.154 119.107 41.897 119.016 41.692 118.832 41.539 118.649 41.387 118.402 41.311 118.093 41.311L117.099 41.311 117.099 42.997zM117.099 43.591L117.099 45.563 116.377 45.563 116.377 40.703 118.093 40.703C118.631 40.703 119.057 40.833 119.372 41.093 119.686 41.353 119.844 41.706 119.844 42.154 119.844 42.493 119.748 42.779 119.558 43.012 119.367 43.245 119.105 43.41 118.772 43.505L119.951 45.563 119.129 45.563 118.021 43.591 117.099 43.591 117.099 43.591z"/>
    <polyline fill="#404040" points="123.767 45.563 121.588 43.112 121.588 45.563 120.866 45.563 120.866 40.703 121.588 40.703 121.588 42.833 123.624 40.703 124.518 40.703 122.352 42.933 124.675 45.563 123.767 45.563"/>
    <path class="no-color-change" fill="#009BFF" d="M16.107 35.607C12.986 35.607 10.249 34.932 7.895 33.583 5.539 32.232 3.694 30.365 2.36 27.98 1.024 25.595.357 22.827.357 19.678.357 16.527 1.024 13.767 2.36 11.397 3.694 9.028 5.539 7.176 7.895 5.84 10.249 4.506 12.986 3.838 16.107 3.838 18.747 3.838 21.125 4.37 23.239 5.435 25.354 6.5 27.162 8.038 28.662 10.048L22.047 13.963C21.267 12.972 20.389 12.193 19.415 11.623 18.439 11.053 17.307 10.767 16.017 10.767 13.886 10.767 12.162 11.57 10.842 13.175 9.521 14.78 8.862 16.948 8.862 19.678 8.862 22.408 9.521 24.59 10.842 26.225 12.162 27.86 13.886 28.678 16.017 28.678 17.337 28.678 18.507 28.355 19.527 27.71 20.547 27.065 21.402 26.308 22.092 25.437L28.662 29.352C27.192 31.393 25.384 32.945 23.239 34.01 21.094 35.075 18.717 35.607 16.107 35.607M32.307 35.022L32.307 12.118C33.567 12.387 34.842 12.522 36.132 12.522 37.452 12.522 38.787 12.387 40.137 12.118L40.137 35.022 32.307 35.022zM36.132 10.317C34.842 10.317 33.739 9.86 32.824 8.945 31.909 8.03 31.452 6.928 31.452 5.637 31.452 4.348 31.909 3.245 32.824 2.33 33.739 1.415 34.842.958 36.132.958 37.422.958 38.524 1.415 39.439 2.33 40.354 3.245 40.812 4.348 40.812 5.637 40.812 6.928 40.354 8.03 39.439 8.945 38.524 9.86 37.422 10.317 36.132 10.317L36.132 10.317zM62.502 33.537C61.571 34.168 60.506 34.67 59.307 35.045 58.106 35.42 56.846 35.607 55.527 35.607 53.066 35.607 51.109 34.895 49.654 33.47 48.199 32.046 47.472 30.133 47.472 27.732L47.472 17.968 43.737 17.968 43.737 12.118 47.831 12.118 48.821 5.727 55.301 5.727 55.301 12.118 61.287 12.118 61.287 17.968 55.301 17.968 55.301 26.743C55.301 27.523 55.534 28.131 55.999 28.565 56.464 29 57.086 29.218 57.867 29.218 58.256 29.218 58.654 29.143 59.059 28.993 59.464 28.843 59.847 28.663 60.206 28.452L62.502 33.537M66.236 35.022L66.236 12.118C67.496 12.387 68.771 12.522 70.061 12.522 71.381 12.522 72.716 12.387 74.066 12.118L74.066 35.022 66.236 35.022zM70.061 10.317C68.771 10.317 67.668 9.86 66.754 8.945 65.838 8.03 65.381 6.928 65.381 5.637 65.381 4.348 65.838 3.245 66.754 2.33 67.668 1.415 68.771.958 70.061.958 71.351.958 72.453 1.415 73.369 2.33 74.283 3.245 74.741 4.348 74.741 5.637 74.741 6.928 74.283 8.03 73.369 8.945 72.453 9.86 71.351 10.317 70.061 10.317L70.061 10.317z"/>
    <polyline class="no-color-change" fill="#009BFF" points="98.501 29.173 98.501 35.022 78.206 35.022 78.206 30.118 88.646 17.968 78.881 17.968 78.881 12.118 98.141 12.118 98.141 17.022 87.791 29.173 98.501 29.173"/>
    <path class="no-color-change" fill="#009BFF" d="M113.62 17.202C111.07 17.202 109.54 18.553 109.03 21.253L117.76 21.253C117.55 19.783 117.047 18.74 116.253 18.125 115.457 17.511 114.58 17.202 113.62 17.202zM124.33 32.682C123.19 33.493 121.743 34.183 119.988 34.753 118.233 35.322 116.365 35.607 114.385 35.607 111.655 35.607 109.323 35.105 107.388 34.1 105.453 33.095 103.968 31.692 102.933 29.892 101.898 28.093 101.38 26.022 101.38 23.682 101.38 21.313 101.89 19.213 102.91 17.383 103.93 15.553 105.34 14.12 107.14 13.085 108.94 12.05 111.04 11.532 113.44 11.532 115.78 11.532 117.842 12.035 119.628 13.04 121.412 14.046 122.807 15.44 123.813 17.225 124.818 19.011 125.32 21.103 125.32 23.503 125.32 23.833 125.298 24.178 125.253 24.537 125.208 24.897 125.155 25.273 125.095 25.662L109.12 25.662C109.84 28.303 111.805 29.623 115.015 29.623 116.455 29.623 117.73 29.397 118.84 28.948 119.95 28.498 120.88 28.048 121.63 27.597L124.33 32.682 124.33 32.682zM137.155 22.378L137.155 35.022 129.325 35.022 129.325 12.118 136.48 12.118 136.885 15.133C137.634 14.053 138.61 13.182 139.81 12.522 141.009 11.863 142.33 11.532 143.77 11.532 146.26 11.532 148.254 12.343 149.755 13.963 151.255 15.583 152.005 17.908 152.005 20.937L152.005 35.022 144.175 35.022 144.175 21.838C144.175 20.488 143.875 19.49 143.275 18.845 142.674 18.2 141.835 17.878 140.755 17.878 139.675 17.878 138.805 18.222 138.145 18.912 137.485 19.603 137.155 20.758 137.155 22.378"/>
    <polyline fill="#404040" points="175.269 35.022 175.269 11.173 166.179 11.173 166.179 4.423 192.729 4.423 192.729 11.173 183.639 11.173 183.639 35.022 175.269 35.022"/>
    <path fill="#404040" d="M196.509 35.022L196.509 12.118C197.768 12.387 199.043 12.522 200.333 12.522 201.653 12.522 202.989 12.387 204.338 12.118L204.338 35.022 196.509 35.022M217.658 21.838L217.658 35.022 209.828 35.022 209.828 12.118 217.028 12.118 217.433 15.043C218.123 13.933 219.023 13.093 220.133 12.522 221.243 11.953 222.428 11.668 223.688 11.668 225.038 11.668 226.268 11.968 227.378 12.567 228.488 13.168 229.388 14.008 230.078 15.088 230.888 13.978 231.946 13.13 233.25 12.545 234.556 11.96 235.928 11.668 237.368 11.668 238.958 11.668 240.361 12.035 241.576 12.77 242.79 13.506 243.743 14.525 244.433 15.83 245.123 17.135 245.468 18.642 245.468 20.352L245.468 35.022 237.638 35.022 237.638 21.162C237.638 20.203 237.375 19.438 236.851 18.868 236.325 18.298 235.658 18.012 234.848 18.012 233.858 18.012 233.063 18.327 232.463 18.958 231.863 19.588 231.563 20.548 231.563 21.838L231.563 35.022 223.733 35.022 223.733 21.162C223.733 20.203 223.478 19.438 222.968 18.868 222.457 18.298 221.768 18.012 220.898 18.012 219.937 18.012 219.158 18.327 218.558 18.958 217.957 19.588 217.658 20.548 217.658 21.838M261.398 17.202C258.848 17.202 257.318 18.553 256.808 21.253L265.538 21.253C265.328 19.783 264.825 18.74 264.03 18.125 263.235 17.511 262.358 17.202 261.398 17.202zM272.108 32.682C270.967 33.493 269.52 34.183 267.766 34.753 266.01 35.322 264.143 35.607 262.163 35.607 259.433 35.607 257.101 35.105 255.165 34.1 253.23 33.095 251.746 31.692 250.71 29.892 249.675 28.093 249.158 26.022 249.158 23.682 249.158 21.313 249.668 19.213 250.688 17.383 251.707 15.553 253.118 14.12 254.918 13.085 256.718 12.05 258.817 11.532 261.218 11.532 263.558 11.532 265.62 12.035 267.405 13.04 269.19 14.046 270.585 15.44 271.59 17.225 272.595 19.011 273.098 21.103 273.098 23.503 273.098 23.833 273.076 24.178 273.03 24.537 272.985 24.897 272.933 25.273 272.873 25.662L256.898 25.662C257.618 28.303 259.582 29.623 262.793 29.623 264.233 29.623 265.508 29.397 266.618 28.948 267.727 28.498 268.658 28.048 269.408 27.597L272.108 32.682 272.108 32.682zM285.608 35.607C283.628 35.607 281.775 35.293 280.05 34.662 278.325 34.033 276.772 33.133 275.393 31.963L278.723 27.553C279.772 28.392 280.905 29.075 282.12 29.6 283.335 30.125 284.528 30.387 285.698 30.387 286.477 30.387 287.1 30.253 287.565 29.982 288.03 29.713 288.263 29.307 288.263 28.767 288.263 28.198 288 27.74 287.475 27.395 286.95 27.051 286.013 26.713 284.663 26.383L282.503 25.843C278.212 24.703 276.068 22.408 276.068 18.958 276.068 17.428 276.488 16.108 277.328 14.998 278.167 13.888 279.323 13.033 280.793 12.432 282.262 11.833 283.972 11.532 285.923 11.532 287.842 11.532 289.65 11.833 291.345 12.432 293.04 13.033 294.592 13.903 296.003 15.043L292.583 19.543C291.532 18.703 290.423 18.028 289.253 17.517 288.083 17.008 286.987 16.753 285.968 16.753 284.317 16.753 283.493 17.293 283.493 18.373 283.493 18.853 283.74 19.243 284.235 19.543 284.73 19.843 285.428 20.113 286.328 20.352L289.253 21.162C291.442 21.763 293.062 22.663 294.113 23.863 295.163 25.063 295.688 26.488 295.688 28.137 295.688 29.638 295.267 30.95 294.428 32.075 293.587 33.2 292.41 34.07 290.895 34.685 289.38 35.3 287.617 35.607 285.608 35.607"/>
    <path class="no-color-change" fill="#009BFF" d="M200.333,10.317 C199.043,10.317 197.941,9.86 197.026,8.945 C196.11,8.03 195.653,6.928 195.653,5.637 C195.653,4.348 196.11,3.245 197.026,2.33 C197.941,1.415 199.043,0.958 200.333,0.958 C201.623,0.958 202.726,1.415 203.641,2.33 C204.556,3.245 205.014,4.348 205.014,5.637 C205.014,6.928 204.556,8.03 203.641,8.945 C202.726,9.86 201.623,10.317 200.333,10.317"/>
  </g>
</svg>
