<svg xmlns="http://www.w3.org/2000/svg" xmlns:xlink="http://www.w3.org/1999/xlink" width="720" height="83" viewBox="0 0 720 83">
  <defs>
    <style>
      .cls-1 {
        filter: url(#filter);
      }

      .cls-2, .cls-3 {
        fill: #fff;
      }

      .cls-2, .cls-3, .cls-4 {
        fill-rule: evenodd;
      }

      .cls-2 {
        filter: url(#filter-2);
      }

      .cls-4 {
        fill: #0461c2;
      }
    </style>
    <filter id="filter" filterUnits="userSpaceOnUse">
      <feFlood result="flood" flood-color="#333"/>
      <feComposite result="composite" operator="in" in2="SourceGraphic"/>
      <feBlend result="blend" in2="SourceGraphic"/>
    </filter>
    <filter id="filter-2" x="111.719" y="68.531" width="331.593" height="14.438" filterUnits="userSpaceOnUse">
      <feFlood result="flood" flood-color="#999"/>
      <feComposite result="composite" operator="in" in2="SourceGraphic"/>
      <feBlend result="blend" in2="SourceGraphic"/>
    </filter>
  </defs>
  <g id="Battle_Creek" data-name="Battle Creek" class="cls-1">
    <path id="USAT_Network" data-name="USAT Network" class="cls-2" d="M111.73,68.811h4.045c2.844,0,4.746,1.683,4.746,4.277s-1.942,4.273-4.746,4.273h-2.063v5.344H111.73V68.811Zm3.845,6.91c1.9,0,2.923-1.05,2.923-2.633,0-1.566-1.02-2.633-2.923-2.633h-1.863v5.266h1.863Zm10.6-6.91h1.762l5.768,13.894h-2.125l-1.439-3.64h-6.228l-1.442,3.64h-2.083S125.477,70.516,126.179,68.811Zm3.3,8.611L128.141,74c-0.2-.516-1.062-2.655-1.082-2.833H127.02c-0.02.178-.861,2.256-1.082,2.833l-1.361,3.422h4.905Zm6.239-8.611h4.065c2.622,0,4.665,1.349,4.665,4.117a3.871,3.871,0,0,1-3.563,3.921l4.305,5.856h-2.324l-4.064-5.661h-1.1v5.661h-1.982V68.811Zm3.845,6.633c1.842,0,2.884-.972,2.884-2.494s-1.042-2.495-2.884-2.495H137.7v4.989h1.863Zm10.383-4.95h-4.005V68.811h9.992v1.683h-4V82.706h-1.982V70.494Zm11.127,5.266a7.391,7.391,0,1,1,7.389,7.223A7.088,7.088,0,0,1,161.076,75.761Zm12.735,0a5.358,5.358,0,1,0-5.366,5.461A5.2,5.2,0,0,0,173.811,75.761Zm4.9-6.949H185.8v1.683h-5.107v4.473h4.946V76.65h-4.946v6.056h-1.982V68.811Zm16.054,1.683h-4V68.811h9.992v1.683h-4V82.706h-1.982V70.494Zm8.067-1.683h1.982v5.7h7.37v-5.7h1.983V82.706H212.18V76.194h-7.37v6.511h-1.982V68.811Zm14.987,0h7.65v1.666H219.8v4.034H225.3v1.666H219.8v4.867h5.787v1.662h-7.769V68.811Zm14.414,9.105V68.811h2v8.511c0,2.416,1.042,3.9,3.384,3.9,2.363,0,3.406-1.484,3.406-3.9V68.811h2v9.105c0,3.05-1.982,5.067-5.408,5.067C234.171,82.983,232.229,80.966,232.229,77.916Zm12.863,2.277,1.343-1.128a4.074,4.074,0,0,0,3.524,2.2c1.541,0,2.744-.829,2.744-2.356,0-1.64-1.383-2.2-3.1-2.867-1.763-.694-3.545-1.566-3.545-3.783,0-2.195,1.723-3.717,4.247-3.717a4.728,4.728,0,0,1,4.126,2.1l-1.343,1.128a3.2,3.2,0,0,0-2.783-1.505c-1.363,0-2.263.694-2.263,1.861,0,1.445,1.4,1.922,2.623,2.394,1.981,0.773,4.025,1.7,4.025,4.255,0,2.416-1.8,4.217-4.686,4.217A5.463,5.463,0,0,1,245.092,80.194ZM261.53,68.811h1.762l5.767,13.894h-2.124l-1.44-3.64h-6.228l-1.442,3.64h-2.082S260.827,70.516,261.53,68.811Zm3.3,8.611L263.492,74c-0.2-.516-1.063-2.655-1.082-2.833h-0.04c-0.019.178-.86,2.256-1.082,2.833l-1.361,3.422h4.9Zm12.6-6.928h-4.006V68.811h9.992v1.683h-4V82.706h-1.981V70.494Zm6.73,5.266a7.391,7.391,0,1,1,7.39,7.223A7.089,7.089,0,0,1,284.158,75.761Zm12.735,0a5.358,5.358,0,1,0-5.365,5.461A5.2,5.2,0,0,0,296.893,75.761Zm4.9-6.949h3.985c4.486,0,7.449,2.533,7.449,6.949,0,4.394-2.985,6.945-7.449,6.945H301.79V68.811Zm1.982,12.211h1.843c3.283,0,5.565-1.718,5.565-5.262s-2.282-5.266-5.565-5.266h-1.843V81.022Zm15.893-12.211h1.762l5.767,13.894H325.07l-1.44-3.64H317.4l-1.442,3.64h-2.082S318.963,70.516,319.665,68.811Zm3.3,8.611L321.627,74c-0.2-.516-1.062-2.655-1.082-2.833h-0.04c-0.02.178-.86,2.256-1.082,2.833l-1.36,3.422h4.905Zm8.186-.378-4.787-8.233h2.224l2.6,4.633a20.458,20.458,0,0,1,1,1.978h0.02a20.709,20.709,0,0,1,1-1.978l2.622-4.633H338l-4.784,8.233v5.661h-2.063V77.044Zm12.671-8.233h1.521l7.971,9.005c0.24,0.26,1.282,1.544,1.382,1.743l0.04-.021c-0.04-.2-0.04-1.8-0.04-2.156V68.811h1.923V82.706h-1.543l-7.97-9.006c-0.239-.256-1.282-1.544-1.381-1.739l-0.019.017c0.019,0.2.039,1.8,0.039,2.16v8.568h-1.923V68.811Zm16.449,0h7.648v1.666h-5.666v4.034h5.508v1.666h-5.508v4.867h5.787v1.662h-7.769V68.811Zm13.85,1.683h-4V68.811h9.992v1.683h-4V82.706h-1.982V70.494Zm7.64-1.683h2.1l2.884,8.255c0.1,0.317.781,2.373,0.8,2.69h0.041a27.751,27.751,0,0,1,.841-2.69l3-8.255h1.582l3,8.255a28.049,28.049,0,0,1,.843,2.69H396.9c0.04-.317.72-2.373,0.821-2.69l2.864-8.255h2.021l-4.947,13.894h-1.52L392.9,74.038a22.972,22.972,0,0,1-.682-2.256h-0.04a23.089,23.089,0,0,1-.7,2.256l-3.224,8.667H386.73ZM403.5,75.761a7.391,7.391,0,1,1,7.389,7.223A7.088,7.088,0,0,1,403.5,75.761Zm12.735,0a5.358,5.358,0,1,0-5.366,5.461A5.2,5.2,0,0,0,416.232,75.761Zm4.9-6.949h4.065c2.625,0,4.665,1.349,4.665,4.117a3.871,3.871,0,0,1-3.564,3.921l4.307,5.856h-2.325l-4.064-5.661h-1.1v5.661h-1.982V68.811Zm3.845,6.633c1.842,0,2.884-.972,2.884-2.494s-1.042-2.495-2.884-2.495H423.11v4.989h1.863Zm7.873-6.633h1.981v6.454l5.807-6.454h2.4l-6.026,6.633,6.307,7.262h-2.482l-6.009-7.023v7.023h-1.981V68.811Z"/>
    <path class="cls-3" d="M112.317,1.862h12c8.072,0,14.144,4.025,14.144,12.5,0,5.678-2.715,8.841-6.929,10.35,6.5,1.365,10.858,5.461,10.858,13.078,0,9.7-7.072,14.517-16.216,14.517H112.317V1.862Zm3.857,21.488h8.144c6.644,0,10.358-3.233,10.358-8.983s-3.714-8.982-10.358-8.982h-8.144V23.35Zm0,25.44h9.573c8.286,0,12.858-4.1,12.858-11,0-6.97-4.858-10.924-12.858-10.924h-9.573V48.79ZM145.32,34.56c0-9.341,6.215-18.613,17.786-18.613a15.4,15.4,0,0,1,13.932,7.9h0.142V16.811h3.644v35.5H177.18V45.268h-0.142a15.4,15.4,0,0,1-13.932,7.906C151.535,53.174,145.32,43.9,145.32,34.56Zm31.86,0c0-8.838-5.93-15.378-14.074-15.378s-14.071,6.54-14.071,15.378,5.929,15.38,14.071,15.38S177.18,43.4,177.18,34.56Zm13.859,8.984V20.188h-5.216V16.811h5.216V7.181h3.714v9.63h9.215v3.377h-9.215v23c0,4.168,1.214,6.325,4.43,6.325a8.936,8.936,0,0,0,4.213-.791v3.521a16.485,16.485,0,0,1-4.572.575C193.681,52.815,191.039,49.652,191.039,43.544Zm18.929,0V20.188h-5.214V16.811h5.214V7.181h3.716v9.63H222.9v3.377h-9.213v23c0,4.168,1.214,6.325,4.427,6.325a8.947,8.947,0,0,0,4.216-.791v3.521a16.5,16.5,0,0,1-4.571.575C212.612,52.815,209.968,49.652,209.968,43.544Zm18.5-41.682h3.714v50.45h-3.714V1.862Zm10.286,32.627c0-8.7,5.357-18.541,17.287-18.541,11.573,0,16.859,9.271,16.859,18.613v0.145H242.4c0.073,7.976,4.858,15.234,13.716,15.234,5.929,0,10.285-3.233,12.715-8.12l3.142,1.724a17.656,17.656,0,0,1-16.143,9.63C244.614,53.174,238.757,43.616,238.757,34.489Zm30.43-2.947c-1-7.4-6.142-12.432-13.216-12.432-7.427,0-12.285,5.389-13.357,12.432h26.573Zm7.074-4.455c0-14.948,10.787-26.231,25.788-26.231a25.286,25.286,0,0,1,15.358,4.6V10.27c-3.786-3.736-8.572-5.82-15.358-5.82-12.859,0-21.931,9.7-21.931,22.638s9.072,22.638,21.931,22.638c6.786,0,12.216-2.3,16-6.325v4.743a25.739,25.739,0,0,1-16,5.175C287.048,53.318,276.261,42.035,276.261,27.087Zm49.505-10.276h3.644v4.957h0.142a9.59,9.59,0,0,1,9.43-5.821,14.785,14.785,0,0,1,4.143.575v3.809a12.655,12.655,0,0,0-4.571-.863c-6.144,0-9.074,5.031-9.074,13.152V52.312h-3.714v-35.5Zm19.287,17.678c0-8.7,5.358-18.541,17.287-18.541,11.574,0,16.86,9.271,16.86,18.613v0.145H348.7c0.072,7.976,4.858,15.234,13.716,15.234,5.929,0,10.285-3.233,12.715-8.12l3.141,1.724a17.655,17.655,0,0,1-16.143,9.63C350.911,53.174,345.053,43.616,345.053,34.489Zm30.431-2.947c-1-7.4-6.142-12.432-13.216-12.432-7.427,0-12.285,5.389-13.357,12.432h26.573Zm7.074,2.947c0-8.7,5.357-18.541,17.287-18.541,11.573,0,16.859,9.271,16.859,18.613v0.145H386.2c0.073,7.976,4.858,15.234,13.716,15.234,5.929,0,10.285-3.233,12.715-8.12l3.142,1.724a17.656,17.656,0,0,1-16.143,9.63C388.415,53.174,382.558,43.616,382.558,34.489Zm30.43-2.947c-1-7.4-6.142-12.432-13.215-12.432-7.428,0-12.286,5.389-13.358,12.432h26.573Zm10.29-29.68h3.713V31.973l17.5-15.162h4.857L430.491,32.98l20.217,19.332h-5L426.991,34.2V52.312h-3.713V1.862Zm37.288,0H489.5V10.7H471.423v11h17.645v8.84H471.423V43.471h18.645v8.841h-29.5V1.862ZM494.14,16.811h9.716v4.814H504c2.217-3.163,5.5-5.678,11.36-5.678,9.358,0,13.715,6.037,13.715,15.451V52.312H518.785V32.98c0-4.958-1.428-8.7-6.716-8.7s-7.572,3.665-7.572,8.767V52.312H494.14v-35.5Zm67,30.9h-0.069c-1.858,2.73-5.358,5.461-11.288,5.461C536.644,53.174,532,42.825,532,34.2c0-10.2,7.288-18.253,17.787-18.253a13.826,13.826,0,0,1,11.86,5.966h0.142v-5.1H571.5V65.678h-10.36V47.713Zm0.145-13.152c0-5.317-3.358-10.061-9.43-10.061S542.5,29.243,542.5,34.56c0,5.605,3.643,10.062,9.357,10.062C557.645,44.622,561.289,40.094,561.289,34.56Zm15.145,3.163V16.811h10.357V36.069c0,5.462,1.358,8.768,6.43,8.768,5.286,0,7.286-3.737,7.286-8.84V16.811h10.287v35.5h-9.715V47.5h-0.144c-2.142,3.019-4.928,5.678-11,5.678C580.648,53.174,576.434,47.065,576.434,37.723Zm38.86-30.614A6.185,6.185,0,1,1,621.438,13,5.922,5.922,0,0,1,615.294,7.109Zm1,9.7h10.357v35.5H616.294v-35.5Zm15.859,0h9.716v5.46h0.142c1.93-3.736,4.929-6.324,9.715-6.324a10.437,10.437,0,0,1,3.43.5v9.342a13.5,13.5,0,0,0-4.358-.719c-5.357,0-8.287,3.307-8.287,9.415V52.312H632.153v-35.5ZM655.3,34.56c0-8.264,5-18.613,18.931-18.613S692.8,26.3,692.8,34.273a13.889,13.889,0,0,1-.216,2.587h-27c0.5,5.605,5.213,8.265,10.357,8.265,4.714,0,7.785-2.012,9.571-4.528l5.716,5.893c-2.93,3.953-8.288,6.684-15.787,6.684C661.584,53.174,655.3,43.759,655.3,34.56Zm27.5-3.809c-1-4.887-4.43-7.258-8.572-7.258s-7.644,2.371-8.643,7.258H682.8Zm13.431-13.941h9.713v5.46h0.145c1.927-3.736,4.927-6.324,9.715-6.324a10.417,10.417,0,0,1,3.428.5v9.342a13.493,13.493,0,0,0-4.358-.719c-5.358,0-8.286,3.307-8.286,9.415V52.312H696.232v-35.5Z"/>
    <path class="cls-4" d="M39.038,42.986l-0.379-1.03-0.427-2.391-0.676-3.072-0.489-2.56L36.516,31.7l-0.772-3.824-0.643-2-0.733-1.757-1.42-3.139-0.939-2.556-1.25-3.413,0.008,0L27.4,6.221h0A49.45,49.45,0,0,0,14.348,16.982q-0.8.931-1.567,1.9L16.266,23.6l0.227-.223,0.738,1,1.6,2.008L20.6,28.614l1.973,2.823,1.246,1.684L25.253,34.9l2.815,2.709,1.768,1.607,1.626,1.729,3.053,2.244L36.2,44.992l0.222,0.272a23.1,23.1,0,0,1,3.374,3.8,20.526,20.526,0,0,1,2.222,3.781h1.216A19.559,19.559,0,0,1,40.1,47.014,25.314,25.314,0,0,1,39.038,42.986ZM95.252,40.9l-1.843.988-3.793,1.944-2.044,1.121-2.083,1.254-3.407,2.348-2.117,1.386L77.719,51.66l-1.539,1.18H97.118A68.738,68.738,0,0,0,95.252,40.9ZM16.227,49.216l-2.25-1.57L11.86,46.26,8.45,43.91,6.367,42.658,4.321,41.534l-2.081-.96A69.684,69.684,0,0,0,.33,52.841H21.071l-2.033-1.587ZM56.319,32.3l1.172-1.973,1.82-3.255,0.822-2L60.816,23.2l1.047-3.1L63.8,15.3l0.45-1.226,0.191,0.1,3.486-9.1A42.728,42.728,0,0,0,48.729.482l-0.081,0,0.047,1.4,0.285,2.762L49.1,7.956V9.981l-0.12,2.207,0.484,3.771,0.364,2.3,0.226,2.3,0.986,3.587,0.244,2.391L51.3,26.876a23.348,23.348,0,0,1,.486,4.815c0,5.283-1.552,9.566-3.463,9.566S44.9,36.975,44.9,31.692c0-1.449.37-2.807,0.37-4.038V26.538l0.38-2.391,0.4-3.128,0.408-2.578,0.247-2.3,0.581-3.863,0.082-2.118L47.037,8.231,46.544,4.737V0.523a47.626,47.626,0,0,0-14.2,3.14A40.678,40.678,0,0,0,28.6,5.553l-0.037.019h0L31.944,14.4l0.253-.13L32.6,15.379l0.92,2.27,1.016,2.525,1.047,3.1,0.689,1.877L37.1,27.169l1.825,3.253,1.167,1.961,1.015,2.029,2.148,2.913L44.3,39.439l0.129,0.309a23.523,23.523,0,0,1,2.085,4.405,16.193,16.193,0,0,1,1.137,8.687h1.112A16.475,16.475,0,0,1,49.9,44.078a22.837,22.837,0,0,1,2.093-4.356l0.122-.327,1.046-2.139,2.155-2.939ZM79.841,48.1l4.375-2.145,2.328-1.293,2.063-1.191,3.3-1.956L94.8,39.911,95,39.795A59.415,59.415,0,0,0,84.8,19.448l-5.014,6.644v0L78.4,28.375,76.793,30.8l-2.348,2.873L73.192,35.3l-1.243,1.923-1.92,3.848L68.8,43.29l-1.26,2.585-1.608,3.072-1.146,2.427L64.09,52.5a2.026,2.026,0,0,1-.107.346h6.174l4.387-2.026,2.573-1.386ZM31.087,49.6l-1.125-2.341-1.578-2.935-1.237-2.463L25.94,39.751l-1.892-3.656-1.234-1.826-1.261-1.547-2.364-2.727-1.7-2.3L15.22,24.629l0.107-.106L11.952,19.96A58.136,58.136,0,0,0,3.37,36.571c-0.316.962-.589,1.946-0.86,2.931l2.819,1.669,2.065,1.185,2.328,1.283L14.1,45.767l2.728,1.289L19.4,48.37l4.569,1.96L26.636,51.7l0.359,0.342a4.607,4.607,0,0,0,1.368.8h4.623A11.16,11.16,0,0,0,31.773,50.6Zm34.977-9.081,1.8-1.694,2.871-2.854L72.2,34.092l1.272-1.774,2.01-2.971,1.806-2.357,1.632-2.115,0.019-.026-0.019-.016,4.935-6.89A49.624,49.624,0,0,0,69.3,5.79l-3.484,9.093,0.066,0.034-2.22,6.068-1.421,3.143-0.732,1.756-0.637,1.988-0.765,3.81-0.551,2.241-0.485,2.553L58.4,39.55l-0.425,2.387L57.59,42.988a25.224,25.224,0,0,1-1.062,4.026,19.486,19.486,0,0,1-3.091,5.827h1.3a4.124,4.124,0,0,1,1.17-1.965,23.331,23.331,0,0,1,3.441-3.917l0.225-.32,1.718-1.921L64.4,42.343Z"/>
  </g>
</svg>
