<svg height="48" viewBox="0 0 475 48" width="475" xmlns="http://www.w3.org/2000/svg">
  <g fill="none" fill-rule="evenodd">
    <g fill="#404040"><path
      d="m1.277 44.343h1.241c.407 0 .73-.1.967-.302.237-.2.356-.474.356-.82 0-.347-.119-.621-.356-.821-.237-.201-.56-.301-.967-.301h-1.241zm-.921 3.183v-6.202h2.162c.693 0 1.243.17 1.651.51.407.341.611.803.611 1.387 0 .578-.204 1.035-.611 1.372-.408.338-.958.507-1.651.507h-1.241v2.426zm6.284-2.335h2.262l-1.131-2.91zm3.165 2.335-.602-1.56h-2.864l-.602 1.56h-.93l2.481-6.202h.994l2.472 6.202zm2.901-3.275h1.268c.395 0 .71-.097.944-.292.234-.194.351-.455.351-.784 0-.328-.117-.59-.351-.784-.234-.195-.549-.292-.944-.292h-1.268zm0 .757v2.518h-.921v-6.202h2.189c.687 0 1.231.165 1.632.496.402.332.602.783.602 1.355 0 .432-.121.797-.365 1.095-.243.298-.577.507-1.003.629l1.505 2.627h-1.049l-1.413-2.518z"/><path d="m18.854 47.526v-5.427h-2.089v-.775h5.099v.775h-2.089v5.427z"/><path
      d="m27.783 46.824c.401 0 .758-.102 1.071-.306.314-.204.558-.485.735-.844.176-.358.264-.775.264-1.249 0-.475-.088-.891-.264-1.25-.177-.358-.421-.64-.735-.844-.313-.203-.67-.305-1.071-.305s-.757.102-1.067.305c-.311.204-.554.486-.73.844-.176.359-.265.775-.265 1.25 0 .474.089.891.265 1.249.176.359.419.64.73.844.31.204.666.306 1.067.306zm0 .802c-.584 0-1.101-.136-1.551-.41s-.804-.651-1.062-1.131c-.259-.481-.388-1.034-.388-1.66s.129-1.18.388-1.66c.258-.481.612-.858 1.062-1.131.45-.274.967-.411 1.551-.411.583 0 1.102.137 1.555.411.453.273.809.65 1.067 1.131.258.48.388 1.034.388 1.66s-.13 1.179-.388 1.66c-.258.48-.614.857-1.067 1.131s-.972.41-1.555.41z"/><path d="m33.009 47.526h-.921v-6.202h3.858v.775h-2.937v2.098h2.49v.775h-2.49z"/><path d="m40.753 47.526v-5.427h-2.089v-.775h5.099v.775h-2.089v5.427z"/><path d="m44.821 47.526v-6.202h.921v2.654h3.201v-2.654h.922v6.202h-.922v-2.755h-3.201v2.755z"/><path d="m51.488 47.526v-6.202h3.977v.775h-3.056v1.915h2.691v.775h-2.691v1.962h3.129v.775z"/><path
      d="m61.357 46.824c.504 0 .901-.152 1.19-.457.289-.303.433-.714.433-1.231v-3.812h.921v3.822c0 .772-.226 1.378-.679 1.819s-1.075.661-1.865.661c-.791 0-1.411-.22-1.861-.661s-.675-1.047-.675-1.819v-3.822h.921v3.812c0 .517.145.928.433 1.231.289.305.683.457 1.182.457m5.983.802c-.468 0-.915-.082-1.341-.246-.425-.164-.769-.383-1.03-.657l.519-.611c.244.225.531.401.862.529.332.128.662.192.99.192.401 0 .725-.078.972-.233.246-.155.369-.369.369-.643 0-.249-.088-.459-.265-.629-.176-.17-.477-.313-.903-.429l-.857-.228c-.553-.146-.956-.353-1.209-.621-.252-.267-.378-.617-.378-1.048 0-.353.094-.663.283-.93.188-.268.448-.476.78-.625.331-.149.707-.224 1.126-.224.444 0 .86.084 1.25.251.389.167.732.4 1.03.698l-.556.602c-.262-.244-.534-.43-.817-.561-.282-.131-.582-.196-.898-.196-.383 0-.696.081-.939.242-.244.161-.365.384-.365.67 0 .261.087.465.26.611s.439.268.798.365l.958.264c.553.152.957.365 1.213.639.255.274.383.614.383 1.021 0 .359-.094.674-.283.945-.188.27-.45.48-.784.629-.335.149-.724.223-1.168.223m4.551-2.435h2.262l-1.131-2.91zm3.165 2.335-.602-1.56h-2.864l-.602 1.56h-.93l2.481-6.202h.994l2.472 6.202z"/><path d="m80.292 47.526v-5.427h-2.089v-.775h5.099v.775h-2.089v5.427z"/><path
      d="m86.622 46.824c.401 0 .758-.102 1.072-.306.313-.204.557-.485.734-.844.176-.358.264-.775.264-1.249 0-.475-.088-.891-.264-1.25-.177-.358-.421-.64-.734-.844-.314-.203-.671-.305-1.072-.305s-.757.102-1.067.305c-.311.204-.554.486-.73.844-.176.359-.265.775-.265 1.25 0 .474.089.891.265 1.249.176.359.419.64.73.844.31.204.666.306 1.067.306zm0 .802c-.584 0-1.101-.136-1.551-.41s-.804-.651-1.062-1.131c-.259-.481-.388-1.034-.388-1.66s.129-1.18.388-1.66c.258-.481.612-.858 1.062-1.131.45-.274.967-.411 1.551-.411.583 0 1.102.137 1.555.411.453.273.809.65 1.067 1.131.258.48.388 1.034.388 1.66s-.13 1.179-.388 1.66c-.258.48-.614.857-1.067 1.131s-.972.41-1.555.41zm5.226-.875h1.259c.437 0 .813-.096 1.126-.288.313-.191.553-.46.721-.807.167-.346.25-.757.25-1.231 0-.475-.083-.885-.25-1.232-.168-.346-.408-.616-.721-.807s-.689-.287-1.126-.287h-1.259zm-.921.775v-6.202h2.18c.608 0 1.14.129 1.596.387.456.259.81.62 1.062 1.086.253.465.379 1.008.379 1.628s-.126 1.162-.379 1.628c-.252.465-.606.827-1.062 1.085-.456.259-.988.388-1.596.388zm7.57-2.335h2.262l-1.131-2.91zm3.165 2.335-.602-1.56h-2.864l-.602 1.56h-.93l2.481-6.202h.994l2.472 6.202z"/><path d="m105.438 45.063v2.463h-.921v-2.463l-2.18-3.739h1.086l1.559 2.863 1.56-2.863h1.067z"/><path d="m114.979 47.526-3.311-4.752v4.752h-.867v-6.202h.858l3.32 4.752v-4.752h.857v6.202z"/><path d="m117.459 47.526v-6.202h3.977v.775h-3.055v1.915h2.69v.775h-2.69v1.962h3.128v.775z"/><path d="m124.246 47.526v-5.427h-2.089v-.775h5.099v.775h-2.089v5.427z"/><path d="m133.275 47.526-1.45-4.944-1.45 4.944h-.958l-1.651-6.202h.912l1.259 4.907 1.45-4.907h.876l1.459 4.925 1.268-4.925h.894l-1.651 6.202z"/><path
      d="m139.541 46.824c.402 0 .759-.102 1.072-.306s.558-.485.734-.844c.177-.358.265-.775.265-1.249 0-.475-.088-.891-.265-1.25-.176-.358-.421-.64-.734-.844-.313-.203-.67-.305-1.072-.305-.401 0-.757.102-1.067.305-.31.204-.553.486-.73.844-.176.359-.264.775-.264 1.25 0 .474.088.891.264 1.249.177.359.42.64.73.844s.666.306 1.067.306zm0 .802c-.583 0-1.1-.136-1.55-.41s-.804-.651-1.063-1.131c-.258-.481-.387-1.034-.387-1.66s.129-1.18.387-1.66c.259-.481.613-.858 1.063-1.131.45-.274.967-.411 1.55-.411.584 0 1.103.137 1.555.411.453.273.809.65 1.068 1.131.258.48.387 1.034.387 1.66s-.129 1.179-.387 1.66c-.259.48-.615.857-1.068 1.131-.452.274-.971.41-1.555.41zm5.227-3.375h1.268c.395 0 .71-.097.943-.292.235-.194.352-.455.352-.784 0-.328-.117-.59-.352-.784-.233-.195-.548-.292-.943-.292h-1.268zm0 .757v2.518h-.922v-6.202h2.19c.687 0 1.231.165 1.632.496.401.332.602.783.602 1.355 0 .432-.121.797-.365 1.095-.243.298-.577.507-1.003.629l1.505 2.627h-1.049l-1.414-2.518z"/><path d="m153.278 47.526-2.782-3.128v3.128h-.922v-6.202h.922v2.717l2.599-2.717h1.14l-2.763 2.845 2.964 3.357z"/></g><path
      d="m8.141 27.805h5.67c1.02 0 1.845-.285 2.475-.856.63-.569.945-1.274.945-2.115 0-.899-.315-1.634-.945-2.204s-1.455-.856-2.475-.856h-5.67zm0-12.06h4.905c.99 0 1.77-.263 2.34-.788.57-.524.855-1.237.855-2.138 0-.869-.3-1.559-.9-2.069s-1.395-.766-2.385-.766h-4.815zm17.37 10.034c0 1.651-.465 3.114-1.395 4.388-.93 1.275-2.243 2.266-3.937 2.97-1.696.705-3.683 1.057-5.963 1.057h-13.86v-30.599h13.275c3.3 0 5.902.713 7.808 2.137 1.904 1.425 2.857 3.368 2.857 5.828 0 1.704-.427 3.162-1.282 4.373-.855 1.212-1.928 2.101-3.218 2.669 1.74.543 3.127 1.445 4.163 2.71 1.035 1.263 1.552 2.752 1.552 4.467zm10.44.991c0 .69.255 1.252.765 1.687.51.436 1.17.652 1.98.652 1.08 0 1.987-.367 2.723-1.102.735-.735 1.102-1.657 1.102-2.768v-.764c-.81-.15-1.665-.225-2.565-.225-1.14 0-2.092.195-2.857.584-.765.391-1.148 1.036-1.148 1.936zm6.885 7.424-.405-3.014c-1.5 2.4-3.78 3.599-6.84 3.599-1.35 0-2.573-.292-3.667-.877-1.096-.585-1.966-1.387-2.61-2.407-.646-1.02-.968-2.205-.968-3.556 0-2.549.997-4.529 2.993-5.939 1.994-1.41 4.627-2.115 7.897-2.115 1.02 0 2.1.09 3.24.269-.12-1.139-.607-2.002-1.462-2.587s-1.898-.878-3.128-.878c-1.08 0-2.168.203-3.262.608-1.096.405-2.138.893-3.128 1.463l-2.655-5.04c1.5-.96 3.12-1.702 4.86-2.228 1.74-.524 3.48-.787 5.22-.787 2.1 0 3.99.359 5.67 1.08 1.68.72 3 1.815 3.96 3.284.96 1.471 1.44 3.33 1.44 5.58v13.545zm29.025-1.485c-.93.631-1.996 1.133-3.195 1.508-1.2.375-2.46.562-3.78.562-2.46 0-4.418-.712-5.873-2.137-1.455-1.424-2.182-3.337-2.182-5.738v-9.764h-3.735v-5.85h4.095l.99-6.391h6.48v6.391h5.985v5.85h-5.985v8.775c0 .78.232 1.388.697 1.822.465.435 1.087.653 1.868.653.389 0 .787-.075 1.192-.225s.788-.33 1.148-.54zm20.61 0c-.931.631-1.996 1.133-3.195 1.508-1.2.375-2.46.562-3.78.562-2.46 0-4.418-.712-5.873-2.137-1.455-1.424-2.182-3.337-2.182-5.738v-9.764h-3.735v-5.85h4.095l.99-6.391h6.48v6.391h5.985v5.85h-5.985v8.775c0 .78.232 1.388.697 1.822.465.435 1.087.653 1.868.653.389 0 .787-.075 1.192-.225s.788-.33 1.148-.54z"
      fill="#009bff"
      class='no-color-change'/><path d="m96.205 34.195h7.83v-32.85h-7.83z" fill="#009bff" class='no-color-change'/><path
      d="m120.37 16.375c-2.55 0-4.08 1.35-4.59 4.05h8.73c-.21-1.47-.713-2.513-1.508-3.128-.795-.614-1.672-.922-2.632-.922zm10.71 15.479c-1.141.811-2.588 1.501-4.343 2.071-1.755.569-3.622.854-5.602.854-2.73 0-5.063-.502-6.998-1.507-1.934-1.004-3.42-2.408-4.454-4.208-1.036-1.799-1.553-3.87-1.553-6.21 0-2.369.51-4.469 1.53-6.299 1.019-1.83 2.43-3.263 4.23-4.298s3.899-1.552 6.3-1.552c2.34 0 4.402.502 6.187 1.507 1.785 1.006 3.18 2.4 4.185 4.185 1.005 1.786 1.508 3.878 1.508 6.278 0 .33-.022.675-.068 1.034-.045.36-.097.736-.157 1.125h-15.975c.72 2.641 2.684 3.961 5.895 3.961 1.44 0 2.715-.226 3.825-.675 1.109-.45 2.04-.9 2.79-1.35zm30.419 2.925c-3.12 0-5.857-.675-8.212-2.024-2.356-1.351-4.201-3.218-5.535-5.603-1.335-2.385-2.003-5.152-2.003-8.302 0-3.151.668-5.911 2.003-8.281 1.334-2.369 3.179-4.221 5.535-5.557 2.355-1.334 5.092-2.002 8.212-2.002 2.64 0 5.018.532 7.133 1.597s3.922 2.603 5.422 4.613l-6.615 3.915c-.78-.99-1.658-1.77-2.632-2.34-.976-.57-2.108-.856-3.398-.856-2.13 0-3.855.803-5.175 2.408s-1.98 3.773-1.98 6.503.66 4.912 1.98 6.547 3.045 2.453 5.175 2.453c1.32 0 2.49-.323 3.51-.968s1.875-1.402 2.565-2.273l6.57 3.915c-1.47 2.041-3.278 3.593-5.422 4.658-2.146 1.065-4.523 1.597-7.133 1.597m24.03-9.449v8.864h-7.83v-22.904h7.155l.495 3.824c.48-1.229 1.267-2.227 2.363-2.992 1.094-.765 2.362-1.147 3.802-1.147.81 0 1.425.105 1.845.315v7.154c-.331-.119-.697-.209-1.102-.269-.406-.06-.863-.091-1.373-.091-1.56 0-2.843.579-3.847 1.733-1.006 1.156-1.508 2.993-1.508 5.513m22.455-8.955c-2.55 0-4.081 1.35-4.59 4.05h8.73c-.211-1.47-.713-2.513-1.508-3.128-.795-.614-1.672-.922-2.632-.922zm10.71 15.479c-1.141.811-2.588 1.501-4.343 2.071-1.755.569-3.622.854-5.602.854-2.731 0-5.063-.502-6.998-1.507-1.935-1.004-3.42-2.408-4.455-4.208-1.035-1.799-1.552-3.87-1.552-6.21 0-2.369.51-4.469 1.53-6.299 1.019-1.83 2.43-3.263 4.23-4.298s3.899-1.552 6.3-1.552c2.34 0 4.402.502 6.187 1.507 1.785 1.006 3.18 2.4 4.185 4.185 1.005 1.786 1.508 3.878 1.508 6.278 0 .33-.023.675-.068 1.034-.045.36-.098.736-.157 1.125h-15.975c.72 2.641 2.684 3.961 5.895 3.961 1.44 0 2.714-.226 3.825-.675 1.109-.45 2.04-.9 2.79-1.35zm15.84-15.479c-2.551 0-4.081 1.35-4.59 4.05h8.73c-.211-1.47-.713-2.513-1.508-3.128-.795-.614-1.673-.922-2.632-.922zm10.709 15.479c-1.14.811-2.587 1.501-4.342 2.071-1.755.569-3.622.854-5.602.854-2.731 0-5.063-.502-6.998-1.507-1.935-1.004-3.42-2.408-4.455-4.208-1.035-1.799-1.552-3.87-1.552-6.21 0-2.369.509-4.469 1.529-6.299s2.431-3.263 4.231-4.298c1.799-1.035 3.899-1.552 6.299-1.552 2.341 0 4.403.502 6.188 1.507 1.784 1.006 3.179 2.4 4.185 4.185 1.005 1.786 1.508 3.878 1.508 6.278 0 .33-.023.675-.068 1.034-.045.36-.098.736-.158 1.125h-15.974c.72 2.641 2.684 3.961 5.894 3.961 1.44 0 2.715-.226 3.826-.675 1.109-.45 2.039-.9 2.79-1.35z"
      fill="#009bff"
      class='no-color-change'/><path d="m265.133 34.194-7.065-11.429v11.429h-7.83v-32.849h7.83v19.17l7.29-9.225h9.315l-8.64 10.08 8.505 12.824z" fill="#009bff" class='no-color-change'/><path d="m288.443 34.194v-30.599h21.105v6.705h-12.915v5.175h11.475v6.705h-11.475v5.309h13.634v6.705z" fill="#404040"/><path
      d="m322.732 21.55v12.644h-7.83v-22.904h7.155l.405 3.015c.75-1.08 1.725-1.951 2.925-2.611 1.2-.659 2.52-.989 3.96-.989 2.49 0 4.485.81 5.985 2.43s2.25 3.945 2.25 6.974v14.085h-7.83v-13.184c0-1.35-.3-2.347-.9-2.993-.6-.645-1.44-.967-2.52-.967s-1.95.345-2.61 1.034c-.66.691-.99 1.846-.99 3.466m31.049 7.019c1.351 0 2.437-.532 3.263-1.597.825-1.065 1.237-2.482 1.237-4.252s-.412-3.188-1.237-4.253c-.826-1.065-1.912-1.597-3.263-1.597-1.38 0-2.482.532-3.307 1.597s-1.237 2.483-1.237 4.253.412 3.187 1.237 4.252 1.927 1.597 3.307 1.597zm12.195-17.279v31.23h-7.829v-10.936c-.721.99-1.636 1.771-2.745 2.341-1.111.569-2.401.854-3.871.854-2.01 0-3.787-.517-5.332-1.552s-2.753-2.453-3.623-4.252c-.87-1.8-1.304-3.885-1.304-6.255 0-2.43.449-4.545 1.349-6.345.901-1.801 2.116-3.195 3.645-4.186 1.531-.99 3.241-1.484 5.131-1.484 1.469 0 2.812.322 4.027.967s2.212 1.523 2.993 2.633l.404-3.015zm20.611 22.904-.406-3.014c-.75 1.11-1.732 1.987-2.947 2.632s-2.528.967-3.937.967c-2.671 0-4.711-.787-6.121-2.362s-2.114-3.848-2.114-6.817v-14.31h7.829v13.409c0 2.491 1.14 3.736 3.421 3.736 2.399 0 3.599-1.5 3.599-4.5v-12.645h7.83v22.904zm12.644 0v-22.904c1.26.27 2.535.404 3.825.404 1.32 0 2.655-.134 4.005-.404v22.904zm21.15-8.864v8.864h-7.831v-22.904h7.155l.495 3.824c.48-1.229 1.267-2.227 2.363-2.992 1.095-.765 2.362-1.147 3.802-1.147.81 0 1.425.105 1.845.315v7.154c-.33-.119-.697-.209-1.102-.269s-.863-.091-1.372-.091c-1.561 0-2.843.579-3.848 1.733-1.005 1.156-1.507 2.993-1.507 5.513m22.454-8.955c-2.55 0-4.08 1.35-4.59 4.05h8.73c-.21-1.47-.713-2.513-1.507-3.128-.795-.614-1.673-.922-2.633-.922zm10.71 15.479c-1.14.811-2.587 1.501-4.342 2.071-1.755.569-3.623.854-5.603.854-2.73 0-5.062-.502-6.997-1.507-1.935-1.004-3.42-2.408-4.455-4.208-1.035-1.799-1.553-3.87-1.553-6.21 0-2.369.51-4.469 1.53-6.299s2.43-3.263 4.23-4.298 3.9-1.552 6.3-1.552c2.34 0 4.403.502 6.188 1.507 1.784 1.006 3.179 2.4 4.185 4.185 1.004 1.786 1.507 3.878 1.507 6.278 0 .33-.022.675-.067 1.034-.045.36-.098.736-.158 1.125h-15.975c.72 2.641 2.685 3.961 5.895 3.961 1.44 0 2.715-.226 3.825-.675 1.11-.45 2.04-.9 2.79-1.35zm12.825-6.524v8.864h-7.83v-22.904h7.155l.495 3.824c.48-1.229 1.267-2.227 2.362-2.992s2.363-1.147 3.803-1.147c.81 0 1.424.105 1.845.315v7.154c-.33-.119-.697-.209-1.102-.269s-.863-.091-1.373-.091c-1.56 0-2.842.579-3.847 1.733-1.006 1.156-1.508 2.993-1.508 5.513"
      fill="#404040"/><path
      d="m403.056 9.489c-1.29 0-2.393-.457-3.307-1.372-.916-.915-1.373-2.017-1.373-3.307s.457-2.393 1.373-3.308c.914-.915 2.017-1.372 3.307-1.372s2.392.457 3.307 1.372c.916.915 1.373 2.018 1.373 3.308s-.457 2.392-1.373 3.307c-.915.915-2.017 1.372-3.307 1.372"
      fill="#009bff"
      class='no-color-change'/></g>
</svg>