<svg xmlns="http://www.w3.org/2000/svg" width="418" height="61" viewBox="0 0 418 61">
  <g fill="none" fill-rule="evenodd">
    <path stroke="#404040" stroke-width=".5" d="M259.142,37.936 L259.142,1.856"/>
    <polyline fill="#DBDCDD" points="286.324 31.493 411.892 31.493 402.975 35.212 411.892 39.144 286.324 39.144 295.528 35.212 286.324 31.493"/>
    <polyline fill="#231F20" points="286.324 30.496 411.892 30.496 402.975 34.214 411.892 38.147 286.324 38.147 295.528 34.214 286.324 30.496"/>
    <path fill="#FFFFFF" d="M300.309 32.864L300.309 35.714 300.834 35.714 300.834 33.717 300.841 33.717 301.545 35.714 302.2 35.714 302.2 32.864 301.673 32.864 301.673 34.817 301.665 34.817 300.97 32.864 300.309 32.864zM304.072 34.29C304.072 35.154 304.18 35.769 305.042 35.769 305.905 35.769 306.013 35.154 306.013 34.29 306.013 33.423 305.905 32.808 305.042 32.808 304.18 32.808 304.072 33.423 304.072 34.29zM304.648 34.29C304.648 33.527 304.701 33.232 305.042 33.232 305.383 33.232 305.437 33.527 305.437 34.29 305.437 35.056 305.383 35.347 305.042 35.347 304.701 35.347 304.648 35.056 304.648 34.29zM308.458 33.286L308.731 33.286C308.99 33.286 309.131 33.418 309.131 33.682 309.131 33.99 308.976 34.11 308.698 34.11L308.458 34.11 308.458 33.286zM307.885 35.714L308.458 35.714 308.458 34.509 308.766 34.509C308.997 34.509 309.099 34.645 309.106 34.867L309.122 35.415C309.125 35.528 309.138 35.634 309.194 35.714L309.816 35.714 309.816 35.69C309.708 35.634 309.693 35.479 309.688 35.179 309.68 34.577 309.62 34.36 309.229 34.309L309.229 34.3C309.552 34.233 309.704 33.978 309.704 33.599 309.704 33.111 309.417 32.864 308.945 32.864L307.885 32.864 307.885 35.714zM311.486 32.864L311.486 33.334 312.108 33.334 312.108 35.714 312.682 35.714 312.682 33.334 313.306 33.334 313.306 32.864 311.486 32.864zM315.085 35.714L315.66 35.714 315.66 34.449 316.331 34.449 316.331 35.714 316.906 35.714 316.906 32.864 316.331 32.864 316.331 33.954 315.66 33.954 315.66 32.864 315.085 32.864 315.085 35.714 315.085 35.714zM322.32 32.864L322.32 34.899C322.32 35.203 322.272 35.347 322.066 35.347 321.856 35.347 321.809 35.203 321.809 34.899L321.809 34.812 321.282 34.812 321.282 34.936C321.282 35.383 321.43 35.769 322.035 35.769 322.619 35.769 322.895 35.522 322.895 34.914L322.895 32.864 322.32 32.864zM324.803 32.864L324.803 35.714 326.436 35.714 326.436 35.243 325.376 35.243 325.376 34.477 326.337 34.477 326.337 34.006 325.376 34.006 325.376 33.334 326.396 33.334 326.396 32.864 324.803 32.864zM328.831 33.286L329.103 33.286C329.362 33.286 329.501 33.418 329.501 33.682 329.501 33.99 329.346 34.11 329.071 34.11L328.831 34.11 328.831 33.286zM328.255 35.714L328.831 35.714 328.831 34.509 329.139 34.509C329.369 34.509 329.47 34.645 329.477 34.867L329.492 35.415C329.497 35.528 329.508 35.634 329.566 35.714L330.188 35.714 330.188 35.69C330.08 35.634 330.063 35.479 330.061 35.179 330.052 34.577 329.992 34.36 329.601 34.309L329.601 34.3C329.924 34.233 330.076 33.978 330.076 33.599 330.076 33.111 329.789 32.864 329.318 32.864L328.255 32.864 328.255 35.714zM331.897 34.824L331.897 34.939C331.897 35.467 332.152 35.769 332.802 35.769 333.425 35.769 333.793 35.499 333.793 34.897 333.793 34.548 333.682 34.329 333.249 34.141L332.807 33.948C332.563 33.846 332.512 33.738 332.512 33.563 332.512 33.394 332.578 33.232 332.839 33.232 333.058 33.232 333.15 33.386 333.15 33.654L333.7 33.654 333.7 33.574C333.7 33.028 333.33 32.808 332.819 32.808 332.276 32.808 331.936 33.092 331.936 33.647 331.936 34.121 332.171 34.332 332.683 34.509 333.063 34.64 333.195 34.736 333.195 34.995 333.195 35.235 333.026 35.347 332.85 35.347 332.546 35.347 332.471 35.175 332.471 34.907L332.471 34.824 331.897 34.824zM335.613 32.864L335.613 35.714 337.246 35.714 337.246 35.243 336.187 35.243 336.187 34.477 337.146 34.477 337.146 34.006 336.187 34.006 336.187 33.334 337.206 33.334 337.206 32.864 335.613 32.864zM338.877 32.864L339.616 34.592 339.616 35.714 340.191 35.714 340.191 34.592 340.932 32.864 340.307 32.864 339.906 33.964 339.9 33.964 339.526 32.864 338.877 32.864zM343.257 32.864L342.731 32.864 342.731 33.488 342.938 33.488 342.938 33.551C342.938 33.697 342.868 33.842 342.731 33.865L342.731 34.145C343.157 34.107 343.257 33.806 343.257 33.383L343.257 32.864zM345.132 34.824L345.132 34.939C345.132 35.467 345.388 35.769 346.039 35.769 346.662 35.769 347.03 35.499 347.03 34.897 347.03 34.548 346.917 34.329 346.488 34.141L346.044 33.948C345.8 33.846 345.747 33.738 345.747 33.563 345.747 33.394 345.815 33.232 346.076 33.232 346.295 33.232 346.387 33.386 346.387 33.654L346.937 33.654 346.937 33.574C346.937 33.028 346.568 32.808 346.055 32.808 345.512 32.808 345.175 33.092 345.175 33.647 345.175 34.121 345.408 34.332 345.92 34.509 346.3 34.64 346.429 34.736 346.429 34.995 346.429 35.235 346.263 35.347 346.088 35.347 345.783 35.347 345.708 35.175 345.708 34.907L345.708 34.824 345.132 34.824 345.132 34.824zM351.186 32.864L351.186 33.334 351.81 33.334 351.81 35.714 352.382 35.714 352.382 33.334 353.005 33.334 353.005 32.864 351.186 32.864zM355.362 33.286L355.633 33.286C355.892 33.286 356.032 33.418 356.032 33.682 356.032 33.99 355.876 34.11 355.601 34.11L355.362 34.11 355.362 33.286zM354.785 35.714L355.362 35.714 355.362 34.509 355.669 34.509C355.899 34.509 356.001 34.645 356.008 34.867L356.023 35.415C356.028 35.528 356.039 35.634 356.097 35.714L356.718 35.714 356.718 35.69C356.61 35.634 356.594 35.479 356.591 35.179 356.582 34.577 356.524 34.36 356.131 34.309L356.131 34.3C356.454 34.233 356.607 33.978 356.607 33.599 356.607 33.111 356.32 32.864 355.848 32.864L354.785 32.864 354.785 35.714zM358.504 32.864L358.504 34.853C358.504 35.613 358.947 35.769 359.412 35.769 359.88 35.769 360.323 35.578 360.323 34.853L360.323 32.864 359.748 32.864 359.748 34.853C359.748 35.135 359.681 35.347 359.412 35.347 359.145 35.347 359.077 35.135 359.077 34.853L359.077 32.864 358.504 32.864zM362.108 34.824L362.108 34.939C362.108 35.467 362.365 35.769 363.014 35.769 363.635 35.769 364.002 35.499 364.002 34.897 364.002 34.548 363.891 34.329 363.46 34.141L363.017 33.948C362.774 33.846 362.722 33.738 362.722 33.563 362.722 33.394 362.79 33.232 363.049 33.232 363.269 33.232 363.362 33.386 363.362 33.654L363.911 33.654 363.911 33.574C363.911 33.028 363.54 32.808 363.03 32.808 362.487 32.808 362.147 33.092 362.147 33.647 362.147 34.121 362.383 34.332 362.893 34.509 363.273 34.64 363.406 34.736 363.406 34.995 363.406 35.235 363.237 35.347 363.063 35.347 362.757 35.347 362.683 35.175 362.683 34.907L362.683 34.824 362.108 34.824zM365.673 32.864L365.673 33.334 366.295 33.334 366.295 35.714 366.869 35.714 366.869 33.334 367.492 33.334 367.492 32.864 365.673 32.864zM369.272 32.864L369.272 35.714 370.906 35.714 370.906 35.243 369.848 35.243 369.848 34.477 370.806 34.477 370.806 34.006 369.848 34.006 369.848 33.334 370.865 33.334 370.865 32.864 369.272 32.864zM372.753 35.714L373.66 35.714C374.422 35.714 374.637 35.259 374.637 34.249 374.637 33.41 374.493 32.864 373.695 32.864L372.753 32.864 372.753 35.714zM373.327 33.286L373.573 33.286C374.01 33.286 374.063 33.617 374.063 34.265 374.063 35.04 373.984 35.291 373.583 35.291L373.327 35.291 373.327 33.286 373.327 33.286zM379.021 34.824L379.021 34.939C379.021 35.467 379.276 35.769 379.927 35.769 380.551 35.769 380.918 35.499 380.918 34.897 380.918 34.548 380.806 34.329 380.373 34.141L379.931 33.948C379.688 33.846 379.637 33.738 379.637 33.563 379.637 33.394 379.703 33.232 379.962 33.232 380.184 33.232 380.275 33.386 380.275 33.654L380.825 33.654 380.825 33.574C380.825 33.028 380.455 32.808 379.944 32.808 379.4 32.808 379.062 33.092 379.062 33.647 379.062 34.121 379.295 34.332 379.808 34.509 380.187 34.64 380.319 34.736 380.319 34.995 380.319 35.235 380.15 35.347 379.976 35.347 379.67 35.347 379.595 35.175 379.595 34.907L379.595 34.824 379.021 34.824zM382.677 34.29C382.677 35.154 382.786 35.769 383.648 35.769 384.511 35.769 384.617 35.154 384.617 34.29 384.617 33.423 384.511 32.808 383.648 32.808 382.786 32.808 382.677 33.423 382.677 34.29zM383.251 34.29C383.251 33.527 383.309 33.232 383.648 33.232 383.987 33.232 384.042 33.527 384.042 34.29 384.042 35.056 383.987 35.347 383.648 35.347 383.309 35.347 383.251 35.056 383.251 34.29zM386.453 32.864L386.453 34.853C386.453 35.613 386.897 35.769 387.365 35.769 387.831 35.769 388.275 35.578 388.275 34.853L388.275 32.864 387.698 32.864 387.698 34.853C387.698 35.135 387.631 35.347 387.365 35.347 387.096 35.347 387.029 35.135 387.029 34.853L387.029 32.864 386.453 32.864zM390.745 33.286L391.018 33.286C391.275 33.286 391.415 33.418 391.415 33.682 391.415 33.99 391.258 34.11 390.986 34.11L390.745 34.11 390.745 33.286zM390.17 35.714L390.745 35.714 390.745 34.509 391.053 34.509C391.284 34.509 391.384 34.645 391.393 34.867L391.407 35.415C391.413 35.528 391.423 35.634 391.48 35.714L392.102 35.714 392.102 35.69C391.994 35.634 391.979 35.479 391.976 35.179 391.967 34.577 391.907 34.36 391.515 34.309L391.515 34.3C391.84 34.233 391.99 33.978 391.99 33.599 391.99 33.111 391.702 32.864 391.233 32.864L390.17 32.864 390.17 35.714zM395.716 33.826C395.716 33.41 395.656 32.808 394.833 32.808 393.971 32.808 393.863 33.423 393.863 34.29 393.863 35.154 393.971 35.769 394.833 35.769 395.587 35.769 395.74 35.239 395.74 34.624L395.164 34.624C395.164 35.239 395.013 35.347 394.804 35.347 394.558 35.347 394.437 35.191 394.437 34.329 394.437 33.523 394.505 33.232 394.797 33.232 395.056 33.232 395.14 33.41 395.14 33.826L395.716 33.826zM397.6 32.864L397.6 35.714 399.233 35.714 399.233 35.243 398.174 35.243 398.174 34.477 399.132 34.477 399.132 34.006 398.174 34.006 398.174 33.334 399.192 33.334 399.192 32.864 397.6 32.864 397.6 32.864z"/>
    <path fill="#231F20" d="M405.878 10.161C405.448 11.855 404.382 13.396 402.137 13.396 400.778 13.396 400.153 12.642 399.507 11.779L399.125 12.064 399.125 21.892C399.125 23.509 399.632 24.018 400.521 24.429L402.201 22.907 402.581 23.319 398.175 27.315C396.432 26.426 395.322 25.158 395.322 22.557L395.322 12.888 394.244 11.588 393.164 12.508 392.785 12.097 396.621 8.894 398.967 11.588 402.107 8.861C402.581 9.719 403.409 10.353 404.04 10.353 404.72 10.353 405.193 10.27 405.656 9.972L405.878 10.161M379.722 10.827C379.026 12.371 378.127 13.651 376.583 13.651 374.991 13.651 374.146 13.055 373.351 11.779L373.224 11.811 373.224 22.336 376.044 24.462 378.455 22.369 378.865 22.813 373.54 27.315 369.45 24.177 369.45 15.044C369.45 14.148 369.166 13.712 368.627 13.554L368.627 13.396C371.315 12.466 373.58 10.967 375.537 8.894 375.798 9.46 376.942 10.892 378.167 10.892 379.007 10.892 379.103 10.919 379.5 10.637L379.722 10.827M316.825 23.89L312.641 27.315C311.446 26.901 310.261 25.856 310.261 23.414L310.261 13.524 308.106 11.715 306.807 12.793 306.807 23.445 308.2 24.491 308.2 24.589 304.872 27.377 302.146 24.841 302.146 24.715C302.71 24.548 302.939 23.825 302.939 23.002L302.939 5.945C302.939 4.906 302.805 4.164 302.43 3.789L302.621 3.568C303.16 3.731 303.654 4.173 304.018 5.121L304.112 5.121C304.65 3.343 306.101 2.448 307.726 2.3L307.821 2.49C307.156 3.187 306.742 4.205 306.742 6.073L306.742 12.032 310.388 8.861 314.7 12.127 314.7 12.254C314.335 12.388 314.068 12.762 314.068 13.49L314.068 22.209C314.068 23.647 314.733 24.271 315.272 24.429L316.444 23.445 316.825 23.89"/>
    <path fill="#231F20" d="M417.515 22.685C415.473 23.615 412.518 25.786 410.823 27.315L405.753 23.953 405.753 15.552C405.753 14.569 405.626 14.19 405.151 14.029L405.151 13.872C406.627 12.958 409.198 10.772 410.475 9.56L408.192 6.358C407.954 6.024 407.559 5.836 407.147 5.819 406.973 5.813 406.782 5.85 406.609 5.882L406.514 5.755C406.83 5.411 407.337 5.089 407.907 5.089 408.116 5.089 408.351 5.139 408.574 5.185L408.606 5.121C408.339 4.789 408.098 4.106 408.098 3.409 408.098 2.181 409.018 1.221 409.683.873L409.81.968C409.778 1.381 409.825 1.961 410.602 3.061L416.341 11.176C416.626 11.581 417.038 11.97 417.45 12.097L417.45 12.285C417.071 12.413 416.69 12.587 416.69 13.651L416.69 20.972C416.69 21.968 417.033 22.345 417.515 22.463L417.515 22.685zM412.917 24.111L412.917 13.079 410.729 10.034 409.588 11.145 409.588 22.209 412.79 24.207 412.917 24.111 412.917 24.111zM391.993 22.685C390.216 23.649 387.825 25.388 385.619 27.315L380.484 23.89 380.484 15.108C380.484 14.046 380.191 13.48 379.691 13.396L379.691 13.207C381.98 12.342 385.24 10.585 387.014 8.894L391.358 12.032 391.358 21.194C391.358 22.06 391.495 22.345 391.993 22.463L391.993 22.685zM387.586 24.207L387.586 13.808 384.573 11.398 384.321 11.588 384.321 22.051 387.49 24.271 387.586 24.207 387.586 24.207zM368.184 15.044L361.177 20.402 361.177 22.336 364.093 24.429 366.47 22.369 366.851 22.813 361.492 27.315 357.371 24.177 357.371 15.36C357.371 14.16 357.181 13.618 356.705 13.524L356.705 13.332C359.279 12.337 361.736 10.852 363.776 8.894L368.184 15.044zM364.948 16.853L361.366 11.492 361.177 11.588 361.177 19.736 364.948 16.853 364.948 16.853zM356.325 23.193L351.444 27.315C349.687 26.45 348.624 24.991 348.624 23.034L348.624 16.314C348.624 15.184 348.184 14.099 346.69 14.094 346.349 14.091 345.468 14.344 344.787 14.569L344.787 23.858 345.263 24.177 345.263 24.333 341.585 27.347 336.926 24.049 336.926 23.953C337.656 23.654 338.415 22.756 338.415 21.259L338.415 15.996 338.002 15.996C337.424 15.996 336.988 16.32 336.988 16.853 336.988 17.084 337.072 17.287 337.337 17.486L337.149 17.707C336.055 17.716 334.769 16.632 334.769 15.139 334.769 13.661 335.885 12.572 337.559 12.572L338.353 12.572 338.353 7.372C338.353 5.846 337.662 5.157 336.767 5.027L335.404 6.136 334.99 5.66 339.43 1.856C341.42 2.055 342.599 4.022 342.599 5.85 343.161 5.357 343.722 4.866 344.28 4.423L344.28 1.95 344.787 1.95 344.787 4.044C346.531 2.724 348.243 1.791 349.861 1.791 352.314 1.791 354.169 3.36 354.169 5.85 354.169 9.971 351.922 12.052 349.004 13.047L349.004 13.111C351.74 12.975 353.187 14.506 353.187 16.853L353.187 21.797C353.187 23.232 353.947 23.595 354.677 23.825L355.976 22.718 356.325 23.193zM349.512 7.402C349.512 4.947 348.611 4.17 347.514 4.17 346.485 4.17 345.686 4.469 344.787 5.027L344.787 13.999C348.281 12.595 349.512 9.964 349.512 7.402zM344.28 23.54L344.28 14.759C344.048 14.839 343.708 14.949 343.708 14.949L343.614 14.411C343.777 14.361 344.124 14.24 344.28 14.19L344.28 5.344C343.798 5.677 343.274 6.087 342.663 6.548L342.663 22.495 344.28 23.54 344.28 23.54zM328.968 15.044L322.024 20.402 322.024 22.336 324.782 24.462 327.225 22.369 327.637 22.813 322.245 27.315 318.156 24.177 318.156 15.36C318.156 14.16 318.061 13.618 317.523 13.524L317.523 13.332C320.093 12.501 322.487 10.852 324.529 8.894L328.968 15.044zM325.733 16.853L322.151 11.492 321.959 11.588 321.959 19.767 325.733 16.853 325.733 16.853zM300.593 19.671C299.795 23.325 297.309 27.504 290.637 27.504 284.729 27.504 280.428 23.002 280.428 17.391 280.428 13.137 283.512 9.081 287.403 7.341L287.656 7.72C285.09 9.749 284.171 12.76 284.171 14.949 284.171 18.151 285.351 20.53 287.245 22.02L288.829 21.29C289.332 21.059 289.59 20.578 289.59 19.484L289.59 10.287 288.068 10.922 287.815 10.32 292.572 8.259 292.572 8.163C289.617 7.002 286.292 5.281 284.519 5.281 282.743 5.281 281.538 6.167 281.538 7.594 281.538 8.507 281.76 9.052 282.013 9.433L281.728 9.656C281.065 9.223 280.08 8.259 280.08 6.738 280.08 3.98 282.406 1.856 285.692 1.856 291.125 1.856 294.758 5.121 297.674 5.121 298.845 5.121 299.737 4.566 299.737 3.504 299.737 3.176 299.646 2.754 299.545 2.522L299.957 2.49C300.191 2.788 300.497 3.462 300.497 4.393 300.497 6.683 298.653 8.6 296.154 8.767L296.154 23.636C297.796 22.958 299.415 21.208 300.18 19.484L300.593 19.671zM295.648 23.796L295.648 8.799C295.197 8.798 294.074 8.65 293.396 8.45L293.396 18.024C293.396 19.641 292.131 20.619 290.637 21.259L287.75 22.495C289.082 23.464 291.346 24.177 293.268 24.177 294.114 24.177 294.847 24.052 295.648 23.796L295.648 23.796z"/>
    <path fill="#404040" d="M5.975 23.736L5.975 32.13.777 32.13.777 16.924 5.527 16.924 5.796 18.926C6.293 18.208 6.941 17.631 7.738 17.193 8.534 16.755 9.41 16.535 10.367 16.535 12.019 16.535 13.344 17.073 14.34 18.149 15.335 19.225 15.834 20.768 15.834 22.779L15.834 32.13 10.636 32.13 10.636 23.377C10.636 22.481 10.436 21.819 10.038 21.39 9.639 20.962 9.082 20.748 8.365 20.748 7.648 20.748 7.07 20.977 6.632 21.435 6.194 21.894 5.975 22.659 5.975 23.736M26.588 28.396C27.504 28.396 28.236 28.042 28.783 27.335 29.331 26.628 29.605 25.688 29.605 24.512 29.605 23.337 29.331 22.402 28.783 21.703 28.236 21.007 27.504 20.658 26.588 20.658 25.672 20.658 24.94 21.007 24.392 21.703 23.844 22.402 23.571 23.337 23.571 24.512 23.571 25.688 23.844 26.628 24.392 27.335 24.94 28.042 25.672 28.396 26.588 28.396zM26.588 32.518C24.954 32.518 23.515 32.174 22.271 31.487 21.026 30.801 20.05 29.86 19.344 28.664 18.636 27.47 18.283 26.085 18.283 24.512 18.283 22.939 18.636 21.555 19.344 20.36 20.05 19.164 21.026 18.229 22.271 17.551 23.515 16.874 24.954 16.535 26.588 16.535 28.221 16.535 29.66 16.874 30.905 17.551 32.149 18.229 33.125 19.164 33.832 20.36 34.539 21.555 34.893 22.939 34.893 24.512 34.893 26.085 34.539 27.47 33.832 28.664 33.125 29.86 32.149 30.801 30.905 31.487 29.66 32.174 28.221 32.518 26.588 32.518L26.588 32.518zM42.81 26.244L42.81 32.13 37.612 32.13 37.612 16.924 42.362 16.924 42.69 19.463C43.009 18.647 43.532 17.985 44.259 17.477 44.985 16.969 45.827 16.715 46.783 16.715 47.321 16.715 47.729 16.784 48.008 16.924L48.008 21.674C47.788 21.595 47.545 21.535 47.276 21.494 47.007 21.455 46.703 21.435 46.365 21.435 45.329 21.435 44.477 21.819 43.81 22.585 43.143 23.352 42.81 24.571 42.81 26.244M62.616 31.144C61.998 31.563 61.291 31.896 60.495 32.145 59.698 32.394 58.862 32.518 57.986 32.518 56.352 32.518 55.053 32.045 54.087 31.099 53.121 30.153 52.638 28.884 52.638 27.29L52.638 20.808 50.159 20.808 50.159 16.924 52.877 16.924 53.534 12.682 57.836 12.682 57.836 16.924 61.809 16.924 61.809 20.808 57.836 20.808 57.836 26.633C57.836 27.152 57.99 27.555 58.299 27.843 58.608 28.132 59.021 28.277 59.539 28.277 59.798 28.277 60.062 28.227 60.331 28.127 60.599 28.028 60.853 27.908 61.092 27.768L62.616 31.144M70.294 23.765L70.294 32.13 65.096 32.13 65.096 10.322 70.294 10.322 70.294 18.687C70.791 18.03 71.424 17.506 72.191 17.118 72.957 16.73 73.789 16.535 74.685 16.535 76.338 16.535 77.662 17.073 78.658 18.149 79.654 19.225 80.152 20.768 80.152 22.779L80.152 32.13 74.954 32.13 74.954 23.377C74.954 22.481 74.755 21.819 74.357 21.39 73.958 20.962 73.401 20.748 72.684 20.748 71.967 20.748 71.389 20.977 70.951 21.435 70.513 21.894 70.294 22.67 70.294 23.765M81.615 37.656L80.63 33.414C81.507 33.334 82.213 33.046 82.751 32.548 83.289 32.051 83.557 31.353 83.557 30.457L83.557 16.924C84.394 17.103 85.24 17.193 86.097 17.193 86.973 17.193 87.859 17.103 88.756 16.924L88.756 30.188C88.756 32.399 88.183 34.142 87.038 35.416 85.892 36.691 84.085 37.438 81.615 37.656M99.6 20.3C97.907 20.3 96.891 21.195 96.553 22.988L102.348 22.988C102.209 22.013 101.875 21.32 101.347 20.912 100.82 20.504 100.237 20.3 99.6 20.3zM106.71 30.576C105.953 31.114 104.992 31.572 103.827 31.95 102.662 32.328 101.422 32.518 100.108 32.518 98.295 32.518 96.747 32.185 95.462 31.518 94.178 30.851 93.192 29.919 92.505 28.724 91.818 27.529 91.474 26.154 91.474 24.602 91.474 23.028 91.813 21.634 92.49 20.419 93.167 19.204 94.103 18.253 95.298 17.566 96.493 16.879 97.887 16.535 99.48 16.535 101.034 16.535 102.403 16.869 103.588 17.536 104.773 18.204 105.699 19.13 106.366 20.315 107.033 21.5 107.367 22.889 107.367 24.483 107.367 24.701 107.352 24.93 107.323 25.169 107.293 25.408 107.258 25.657 107.218 25.916L96.613 25.916C97.091 27.669 98.395 28.545 100.526 28.545 101.482 28.545 102.328 28.396 103.066 28.097 103.802 27.798 104.42 27.499 104.918 27.2L106.71 30.576 106.71 30.576zM115.224 26.244L115.224 32.13 110.026 32.13 110.026 16.924 114.776 16.924 115.105 19.463C115.423 18.647 115.946 17.985 116.673 17.477 117.4 16.969 118.241 16.715 119.198 16.715 119.735 16.715 120.143 16.784 120.422 16.924L120.422 21.674C120.203 21.595 119.959 21.535 119.69 21.494 119.422 21.455 119.117 21.435 118.779 21.435 117.743 21.435 116.892 21.819 116.225 22.585 115.557 23.352 115.224 24.571 115.224 26.244M128.577 32.518C127.263 32.518 126.033 32.31 124.888 31.891 123.742 31.473 122.712 30.875 121.796 30.099L124.007 27.171C124.704 27.729 125.456 28.182 126.262 28.53 127.069 28.879 127.861 29.053 128.637 29.053 129.155 29.053 129.568 28.963 129.877 28.783 130.186 28.605 130.34 28.336 130.34 27.978 130.34 27.6 130.166 27.295 129.817 27.067 129.469 26.837 128.846 26.613 127.95 26.394L126.516 26.035C123.668 25.279 122.244 23.755 122.244 21.465 122.244 20.449 122.523 19.573 123.081 18.836 123.638 18.099 124.405 17.531 125.381 17.133 126.357 16.735 127.492 16.535 128.787 16.535 130.061 16.535 131.261 16.735 132.386 17.133 133.511 17.531 134.542 18.109 135.479 18.865L133.208 21.854C132.511 21.296 131.774 20.848 130.997 20.509 130.221 20.17 129.493 20.001 128.817 20.001 127.721 20.001 127.174 20.36 127.174 21.076 127.174 21.396 127.338 21.655 127.666 21.854 127.995 22.052 128.458 22.232 129.055 22.391L130.997 22.929C132.451 23.327 133.527 23.925 134.224 24.721 134.921 25.518 135.269 26.464 135.269 27.559 135.269 28.555 134.99 29.426 134.433 30.173 133.875 30.92 133.094 31.497 132.088 31.906 131.082 32.314 129.912 32.518 128.577 32.518M145.307 20.3C143.614 20.3 142.598 21.195 142.26 22.988L148.055 22.988C147.916 22.013 147.582 21.32 147.055 20.912 146.527 20.504 145.945 20.3 145.307 20.3zM152.417 30.576C151.66 31.114 150.699 31.572 149.534 31.95 148.369 32.328 147.13 32.518 145.815 32.518 144.003 32.518 142.454 32.185 141.17 31.518 139.885 30.851 138.899 29.919 138.212 28.724 137.525 27.529 137.181 26.154 137.181 24.602 137.181 23.028 137.52 21.634 138.197 20.419 138.874 19.204 139.81 18.253 141.005 17.566 142.2 16.879 143.594 16.535 145.188 16.535 146.741 16.535 148.11 16.869 149.295 17.536 150.48 18.204 151.406 19.13 152.073 20.315 152.741 21.5 153.074 22.889 153.074 24.483 153.074 24.701 153.06 24.93 153.03 25.169 153 25.408 152.965 25.657 152.925 25.916L142.32 25.916C142.798 27.669 144.102 28.545 146.233 28.545 147.189 28.545 148.035 28.396 148.773 28.097 149.509 27.798 150.127 27.499 150.625 27.2L152.417 30.576 152.417 30.576zM165.682 30.935C164.765 33.284 163.72 35.037 162.545 36.193 161.369 37.348 159.876 37.926 158.064 37.926 157.247 37.926 156.51 37.836 155.853 37.656 155.196 37.478 154.638 37.258 154.18 36.999L155.644 33.414C155.923 33.554 156.231 33.673 156.57 33.774 156.908 33.872 157.267 33.922 157.645 33.922 158.183 33.922 158.666 33.793 159.094 33.534 159.523 33.275 159.896 32.807 160.215 32.13L160.454 31.592 153.583 16.924 159.319 16.924 162.694 26.035 165.472 16.924 171.119 16.924 165.682 30.935M172.612 32.458C171.974 32.458 171.392 32.304 170.865 31.995 170.337 31.687 169.918 31.269 169.61 30.74 169.301 30.213 169.147 29.63 169.147 28.993 169.147 28.356 169.301 27.774 169.61 27.245 169.918 26.718 170.337 26.3 170.865 25.99 171.392 25.682 171.974 25.528 172.612 25.528 173.249 25.528 173.832 25.682 174.36 25.99 174.887 26.3 175.305 26.718 175.615 27.245 175.923 27.774 176.077 28.356 176.077 28.993 176.077 29.63 175.923 30.213 175.615 30.74 175.305 31.269 174.887 31.687 174.36 31.995 173.832 32.304 173.249 32.458 172.612 32.458M185.577 32.518C184.024 32.518 182.644 32.185 181.44 31.518 180.235 30.851 179.283 29.919 178.587 28.724 177.889 27.529 177.541 26.135 177.541 24.542 177.541 22.948 177.889 21.555 178.587 20.36 179.283 19.164 180.235 18.234 181.44 17.566 182.644 16.899 184.024 16.566 185.577 16.566 186.951 16.566 188.156 16.819 189.192 17.327 190.227 17.835 191.144 18.647 191.94 19.762L188.505 22.272C188.226 21.854 187.863 21.51 187.414 21.24 186.967 20.972 186.483 20.837 185.966 20.837 185.069 20.837 184.323 21.171 183.725 21.838 183.128 22.505 182.829 23.406 182.829 24.542 182.829 25.677 183.128 26.578 183.725 27.245 184.323 27.913 185.069 28.246 185.966 28.246 186.483 28.246 186.967 28.111 187.414 27.843 187.863 27.574 188.226 27.231 188.505 26.813L191.94 29.322C191.144 30.438 190.227 31.248 189.192 31.756 188.156 32.264 186.951 32.518 185.577 32.518M201.65 28.396C202.565 28.396 203.297 28.042 203.845 27.335 204.392 26.628 204.667 25.688 204.667 24.512 204.667 23.337 204.392 22.402 203.845 21.703 203.297 21.007 202.565 20.658 201.65 20.658 200.733 20.658 200.001 21.007 199.454 21.703 198.906 22.402 198.632 23.337 198.632 24.512 198.632 25.688 198.906 26.628 199.454 27.335 200.001 28.042 200.733 28.396 201.65 28.396zM201.65 32.518C200.016 32.518 198.577 32.174 197.332 31.487 196.088 30.801 195.112 29.86 194.405 28.664 193.698 27.47 193.344 26.085 193.344 24.512 193.344 22.939 193.698 21.555 194.405 20.36 195.112 19.164 196.088 18.229 197.332 17.551 198.577 16.874 200.016 16.535 201.65 16.535 203.282 16.535 204.721 16.874 205.967 17.551 207.211 18.229 208.187 19.164 208.894 20.36 209.6 21.555 209.954 22.939 209.954 24.512 209.954 26.085 209.6 27.47 208.894 28.664 208.187 29.86 207.211 30.801 205.967 31.487 204.721 32.174 203.282 32.518 201.65 32.518L201.65 32.518zM217.871 23.377L217.871 32.13 212.673 32.13 212.673 16.924 217.452 16.924 217.722 18.865C218.18 18.129 218.777 17.571 219.514 17.193 220.25 16.815 221.037 16.625 221.874 16.625 222.771 16.625 223.587 16.824 224.324 17.223 225.061 17.621 225.657 18.179 226.116 18.896 226.655 18.159 227.356 17.596 228.223 17.207 229.089 16.819 230 16.625 230.956 16.625 232.011 16.625 232.943 16.869 233.749 17.358 234.556 17.846 235.188 18.523 235.647 19.389 236.104 20.255 236.333 21.256 236.333 22.391L236.333 32.13 231.135 32.13 231.135 22.929C231.135 22.291 230.961 21.783 230.613 21.405 230.264 21.027 229.821 20.837 229.283 20.837 228.626 20.837 228.098 21.046 227.699 21.465 227.301 21.883 227.103 22.521 227.103 23.377L227.103 32.13 221.905 32.13 221.905 22.929C221.905 22.291 221.735 21.783 221.396 21.405 221.058 21.027 220.6 20.837 220.022 20.837 219.384 20.837 218.866 21.046 218.469 21.465 218.07 21.883 217.871 22.521 217.871 23.377"/>
    <path fill="#009BFF" d="M86.097,15.729 C85.24,15.729 84.508,15.425 83.901,14.818 C83.293,14.21 82.99,13.479 82.99,12.622 C82.99,11.766 83.293,11.034 83.901,10.426 C84.508,9.819 85.24,9.515 86.097,9.515 C86.953,9.515 87.685,9.819 88.293,10.426 C88.9,11.034 89.204,11.766 89.204,12.622 C89.204,13.479 88.9,14.21 88.293,14.818 C87.685,15.425 86.953,15.729 86.097,15.729"/>
    <path fill="#404040" d="M1.947 57.034L3.436 57.034C3.925 57.034 4.312 56.914 4.597 56.673 4.882 56.433 5.024 56.104 5.024 55.688 5.024 55.271 4.882 54.943 4.597 54.702 4.312 54.461 3.925 54.341 3.436 54.341L1.947 54.341 1.947 57.034zM.841 60.857L.841 53.409 3.436 53.409C4.268 53.409 4.929 53.615 5.418 54.023 5.908 54.432 6.152 54.986 6.152 55.688 6.152 56.381 5.908 56.931 5.418 57.336 4.929 57.74 4.268 57.944 3.436 57.944L1.947 57.944 1.947 60.857.841 60.857.841 60.857zM8.386 58.053L11.102 58.053 9.744 54.56 8.386 58.053zM12.186 60.857L11.464 58.984 8.025 58.984 7.302 60.857 6.185 60.857 9.164 53.409 10.358 53.409 13.325 60.857 12.186 60.857 12.186 60.857zM15.669 56.925L17.191 56.925C17.666 56.925 18.044 56.809 18.324 56.574 18.606 56.341 18.746 56.027 18.746 55.632 18.746 55.238 18.606 54.925 18.324 54.691 18.044 54.457 17.666 54.341 17.191 54.341L15.669 54.341 15.669 56.925zM15.669 57.834L15.669 60.857 14.563 60.857 14.563 53.409 17.191 53.409C18.016 53.409 18.67 53.609 19.151 54.006 19.633 54.404 19.874 54.946 19.874 55.632 19.874 56.152 19.728 56.589 19.436 56.947 19.144 57.305 18.742 57.557 18.232 57.702L20.038 60.857 18.779 60.857 17.082 57.834 15.669 57.834 15.669 57.834z"/>
    <polyline fill="#404040" points="23.05 60.857 23.05 54.341 20.542 54.341 20.542 53.409 26.664 53.409 26.664 54.341 24.156 54.341 24.156 60.857 23.05 60.857"/>
    <path fill="#404040" d="M33.771,60.013 C34.253,60.013 34.682,59.891 35.058,59.647 C35.434,59.402 35.728,59.065 35.94,58.633 C36.151,58.203 36.257,57.702 36.257,57.133 C36.257,56.564 36.151,56.064 35.94,55.632 C35.728,55.202 35.434,54.864 35.058,54.619 C34.682,54.375 34.253,54.252 33.771,54.252 C33.289,54.252 32.862,54.375 32.49,54.619 C32.117,54.864 31.825,55.202 31.614,55.632 C31.402,56.064 31.296,56.564 31.296,57.133 C31.296,57.702 31.402,58.203 31.614,58.633 C31.825,59.065 32.117,59.402 32.49,59.647 C32.862,59.891 33.289,60.013 33.771,60.013 Z M33.771,60.977 C33.071,60.977 32.45,60.813 31.909,60.485 C31.369,60.155 30.944,59.702 30.634,59.126 C30.324,58.55 30.168,57.885 30.168,57.133 C30.168,56.381 30.324,55.717 30.634,55.14 C30.944,54.563 31.369,54.111 31.909,53.782 C32.45,53.453 33.071,53.289 33.771,53.289 C34.472,53.289 35.094,53.453 35.638,53.782 C36.182,54.111 36.609,54.563 36.92,55.14 C37.23,55.717 37.385,56.381 37.385,57.133 C37.385,57.885 37.23,58.55 36.92,59.126 C36.609,59.702 36.182,60.155 35.638,60.485 C35.094,60.813 34.472,60.977 33.771,60.977 L33.771,60.977 Z"/>
    <polyline fill="#404040" points="40.047 60.857 38.94 60.857 38.94 53.409 43.573 53.409 43.573 54.341 40.047 54.341 40.047 56.86 43.036 56.86 43.036 57.79 40.047 57.79 40.047 60.857"/>
    <polyline fill="#404040" points="49.344 60.857 49.344 54.341 46.836 54.341 46.836 53.409 52.958 53.409 52.958 54.341 50.45 54.341 50.45 60.857 49.344 60.857"/>
    <polyline fill="#404040" points="54.228 60.857 54.228 53.409 55.334 53.409 55.334 56.597 59.178 56.597 59.178 53.409 60.284 53.409 60.284 60.857 59.178 60.857 59.178 57.549 55.334 57.549 55.334 60.857 54.228 60.857"/>
    <polyline fill="#404040" points="62.234 60.857 62.234 53.409 67.009 53.409 67.009 54.341 63.34 54.341 63.34 56.64 66.57 56.64 66.57 57.57 63.34 57.57 63.34 59.926 67.096 59.926 67.096 60.857 62.234 60.857"/>
    <path fill="#404040" d="M74.083 60.013C74.689 60.013 75.165 59.831 75.512 59.466 75.859 59.101 76.032 58.608 76.032 57.987L76.032 53.409 77.138 53.409 77.138 57.998C77.138 58.926 76.866 59.653 76.322 60.183 75.778 60.712 75.032 60.977 74.083 60.977 73.134 60.977 72.389 60.712 71.849 60.183 71.308 59.653 71.038 58.926 71.038 57.998L71.038 53.409 72.144 53.409 72.144 57.987C72.144 58.608 72.318 59.101 72.664 59.466 73.011 59.831 73.484 60.013 74.083 60.013M81.267 60.977C80.704 60.977 80.168 60.878 79.657 60.682 79.146 60.485 78.733 60.221 78.419 59.893L79.044 59.158C79.335 59.43 79.68 59.641 80.078 59.794 80.476 59.948 80.872 60.024 81.267 60.024 81.748 60.024 82.137 59.931 82.433 59.745 82.729 59.559 82.876 59.301 82.876 58.973 82.876 58.673 82.77 58.422 82.559 58.217 82.347 58.013 81.986 57.842 81.474 57.702L80.446 57.428C79.781 57.253 79.297 57.005 78.994 56.684 78.691 56.362 78.54 55.944 78.54 55.425 78.54 55.001 78.653 54.629 78.879 54.308 79.106 53.986 79.417 53.736 79.816 53.557 80.213 53.378 80.664 53.289 81.168 53.289 81.701 53.289 82.201 53.389 82.668 53.59 83.136 53.791 83.548 54.07 83.906 54.428L83.238 55.151C82.924 54.86 82.597 54.634 82.258 54.478 81.918 54.32 81.558 54.241 81.179 54.241 80.719 54.241 80.343 54.339 80.051 54.532 79.759 54.726 79.613 54.994 79.613 55.337 79.613 55.651 79.717 55.896 79.925 56.07 80.133 56.246 80.452 56.392 80.884 56.509L82.033 56.826C82.698 57.009 83.183 57.264 83.49 57.593 83.797 57.921 83.949 58.33 83.949 58.819 83.949 59.25 83.836 59.628 83.61 59.953 83.384 60.278 83.07 60.529 82.668 60.708 82.267 60.888 81.8 60.977 81.267 60.977M86.731 58.053L89.448 58.053 88.089 54.56 86.731 58.053zM90.532 60.857L89.809 58.984 86.37 58.984 85.647 60.857 84.53 60.857 87.509 53.409 88.702 53.409 91.671 60.857 90.532 60.857 90.532 60.857z"/>
    <polyline fill="#404040" points="96.818 60.857 96.818 54.341 94.309 54.341 94.309 53.409 100.431 53.409 100.431 54.341 97.924 54.341 97.924 60.857 96.818 60.857"/>
    <path fill="#404040" d="M104.418 60.013C104.9 60.013 105.328 59.891 105.705 59.647 106.08 59.402 106.374 59.065 106.586 58.633 106.798 58.203 106.904 57.702 106.904 57.133 106.904 56.564 106.798 56.064 106.586 55.632 106.374 55.202 106.08 54.864 105.705 54.619 105.328 54.375 104.9 54.252 104.418 54.252 103.936 54.252 103.509 54.375 103.136 54.619 102.764 54.864 102.472 55.202 102.261 55.632 102.049 56.064 101.943 56.564 101.943 57.133 101.943 57.702 102.049 58.203 102.261 58.633 102.472 59.065 102.764 59.402 103.136 59.647 103.509 59.891 103.936 60.013 104.418 60.013zM104.418 60.977C103.717 60.977 103.096 60.813 102.556 60.485 102.016 60.155 101.591 59.702 101.28 59.126 100.97 58.55 100.815 57.885 100.815 57.133 100.815 56.381 100.97 55.717 101.28 55.14 101.591 54.563 102.016 54.111 102.556 53.782 103.096 53.453 103.717 53.289 104.418 53.289 105.119 53.289 105.741 53.453 106.285 53.782 106.829 54.111 107.256 54.563 107.567 55.14 107.876 55.717 108.031 56.381 108.031 57.133 108.031 57.885 107.876 58.55 107.567 59.126 107.256 59.702 106.829 60.155 106.285 60.485 105.741 60.813 105.119 60.977 104.418 60.977L104.418 60.977zM110.693 59.926L112.204 59.926C112.73 59.926 113.18 59.811 113.556 59.58 113.932 59.351 114.221 59.027 114.422 58.611 114.622 58.195 114.723 57.702 114.723 57.133 114.723 56.564 114.622 56.07 114.422 55.654 114.221 55.238 113.932 54.915 113.556 54.686 113.18 54.455 112.73 54.341 112.204 54.341L110.693 54.341 110.693 59.926zM109.587 60.857L109.587 53.409 112.204 53.409C112.934 53.409 113.573 53.565 114.12 53.875 114.668 54.186 115.094 54.619 115.396 55.178 115.699 55.736 115.851 56.388 115.851 57.133 115.851 57.878 115.699 58.529 115.396 59.088 115.094 59.647 114.668 60.08 114.12 60.391 113.573 60.701 112.934 60.857 112.204 60.857L109.587 60.857 109.587 60.857zM118.676 58.053L121.392 58.053 120.034 54.56 118.676 58.053zM122.476 60.857L121.754 58.984 118.315 58.984 117.592 60.857 116.475 60.857 119.454 53.409 120.648 53.409 123.615 60.857 122.476 60.857 122.476 60.857z"/>
    <polyline fill="#404040" points="127.01 57.9 127.01 60.857 125.904 60.857 125.904 57.9 123.287 53.409 124.59 53.409 126.463 56.848 128.336 53.409 129.616 53.409 127.01 57.9"/>
    <polyline fill="#404040" points="138.465 60.857 134.49 55.151 134.49 60.857 133.449 60.857 133.449 53.409 134.479 53.409 138.465 59.115 138.465 53.409 139.495 53.409 139.495 60.857 138.465 60.857"/>
    <polyline fill="#404040" points="141.444 60.857 141.444 53.409 146.219 53.409 146.219 54.341 142.55 54.341 142.55 56.64 145.781 56.64 145.781 57.57 142.55 57.57 142.55 59.926 146.306 59.926 146.306 60.857 141.444 60.857"/>
    <polyline fill="#404040" points="149.592 60.857 149.592 54.341 147.084 54.341 147.084 53.409 153.206 53.409 153.206 54.341 150.698 54.341 150.698 60.857 149.592 60.857"/>
    <polyline fill="#404040" points="160.433 60.857 158.692 54.921 156.951 60.857 155.801 60.857 153.819 53.409 154.914 53.409 156.425 59.301 158.167 53.409 159.218 53.409 160.97 59.323 162.492 53.409 163.566 53.409 161.583 60.857 160.433 60.857"/>
    <path fill="#404040" d="M167.957 60.013C168.439 60.013 168.868 59.891 169.244 59.647 169.62 59.402 169.914 59.065 170.126 58.633 170.337 58.203 170.443 57.702 170.443 57.133 170.443 56.564 170.337 56.064 170.126 55.632 169.914 55.202 169.62 54.864 169.244 54.619 168.868 54.375 168.439 54.252 167.957 54.252 167.475 54.252 167.049 54.375 166.676 54.619 166.303 54.864 166.011 55.202 165.8 55.632 165.588 56.064 165.482 56.564 165.482 57.133 165.482 57.702 165.588 58.203 165.8 58.633 166.011 59.065 166.303 59.402 166.676 59.647 167.049 59.891 167.475 60.013 167.957 60.013zM167.957 60.977C167.257 60.977 166.636 60.813 166.095 60.485 165.555 60.155 165.13 59.702 164.82 59.126 164.51 58.55 164.354 57.885 164.354 57.133 164.354 56.381 164.51 55.717 164.82 55.14 165.13 54.563 165.555 54.111 166.095 53.782 166.636 53.453 167.257 53.289 167.957 53.289 168.658 53.289 169.281 53.453 169.824 53.782 170.368 54.111 170.795 54.563 171.106 55.14 171.416 55.717 171.571 56.381 171.571 57.133 171.571 57.885 171.416 58.55 171.106 59.126 170.795 59.702 170.368 60.155 169.824 60.485 169.281 60.813 168.658 60.977 167.957 60.977L167.957 60.977zM174.232 56.925L175.755 56.925C176.229 56.925 176.607 56.809 176.888 56.574 177.169 56.341 177.31 56.027 177.31 55.632 177.31 55.238 177.169 54.925 176.888 54.691 176.607 54.457 176.229 54.341 175.755 54.341L174.232 54.341 174.232 56.925zM174.232 57.834L174.232 60.857 173.126 60.857 173.126 53.409 175.755 53.409C176.579 53.409 177.233 53.609 177.715 54.006 178.197 54.404 178.437 54.946 178.437 55.632 178.437 56.152 178.292 56.589 177.999 56.947 177.707 57.305 177.306 57.557 176.795 57.702L178.602 60.857 177.343 60.857 175.645 57.834 174.232 57.834 174.232 57.834z"/>
    <polyline fill="#404040" points="184.45 60.857 181.11 57.1 181.11 60.857 180.004 60.857 180.004 53.409 181.11 53.409 181.11 56.673 184.231 53.409 185.6 53.409 182.281 56.826 185.841 60.857 184.45 60.857"/>
  </g>
</svg>
