<svg xmlns="http://www.w3.org/2000/svg" width="779" height="154" viewBox="0 0 779 154">
  <g fill="none" fill-rule="evenodd">
    <path fill="#262420" d="M34.866 50.519C31.59 54.991 29.952 61.543 29.952 70.175 29.952 79.016 31.563 85.697 34.788 90.221 38.011 94.744 41.859 97.007 46.332 97.007 49.242 97.007 51.816 96.047 54.054 94.121 56.289 92.197 58.032 89.729 59.28 86.711 60.942 82.24 61.776 76.987 61.776 70.955 61.776 68.045 61.516 64.768 60.996 61.127 60.475 57.487 59.643 54.473 58.5 52.078 57.252 49.582 55.614 47.582 53.586 46.072 51.559 44.567 49.242 43.811 46.645 43.811 42.066 43.811 38.143 46.049 34.866 50.519L34.866 50.519zM30.576.754L30.576 38.975C31.512 37.727 32.526 36.532 33.618 35.387 34.71 34.244 36.114 33.1 37.83 31.955 39.546 30.812 41.625 29.849 44.07 29.068 46.513 28.289 49.296 27.899 52.416 27.899 58.032 27.899 63.282 29.512 68.172 32.735 73.06 35.959 76.804 40.951 79.404 47.711 81.9 53.951 83.148 61.336 83.148 69.863 83.148 80.057 81.64 88.271 78.624 94.511 75.606 100.75 71.968 105.328 67.704 108.238 65.311 109.799 62.58 111.02 59.514 111.904 56.445 112.787 53.508 113.23 50.7 113.23 47.476 113.23 44.667 112.787 42.276 111.904 39.883 111.02 37.854 109.93 36.192 108.629 34.527 107.33 33.201 106.055 32.214 104.807 31.225 103.559 30.264 102.154 29.328 100.595L29.328 110.891 0 110.891 0 94.822 9.672 94.822 9.672 16.822 0 16.822 0 .754 30.576.754 30.576.754zM138.838 60.191C138.838 58.735 138.629 57.07 138.214 55.199 137.797 53.326 137.044 51.455 135.952 49.582 134.86 47.711 133.324 46.151 131.351 44.902 129.373 43.654 126.877 43.031 123.862 43.031 119.284 43.031 115.541 44.746 112.63 48.179 111.07 50.051 110.003 51.923 109.433 53.795 108.859 55.666 108.47 57.799 108.262 60.191L138.838 60.191 138.838 60.191zM159.898 84.683C159.377 87.907 158.701 90.742 157.87 93.185 157.036 95.629 155.581 98.152 153.502 100.75 151.213 103.559 148.612 105.848 145.702 107.615 142.789 109.385 139.954 110.656 137.2 111.437 134.443 112.217 131.998 112.709 129.868 112.918 127.735 113.126 125.629 113.23 123.55 113.23 98.902 113.23 86.578 98.984 86.578 70.486 86.578 62.48 87.565 55.954 89.542 50.908 91.517 45.865 94.013 41.732 97.03 38.507 100.774 34.556 104.854 31.852 109.276 30.395 113.695 28.939 118.349 28.211 123.238 28.211 128.854 28.211 134.054 29.122 138.838 30.941 143.62 32.762 147.625 35.543 150.851 39.287 153.034 41.783 154.774 44.645 156.076 47.867 157.375 51.092 158.338 54.263 158.962 57.383 159.586 60.502 159.949 63.286 160.054 65.729 160.156 68.174 160.21 70.748 160.21 73.451L107.482 73.451C107.482 76.469 107.662 79.484 108.028 82.498 108.392 85.516 109.198 88.219 110.446 90.611 111.901 93.418 113.773 95.447 116.063 96.695 118.349 97.943 120.793 98.567 123.394 98.567 126.514 98.567 129.088 98.047 131.116 97.007 133.145 95.969 134.678 94.693 135.718 93.185 136.757 91.678 137.485 90.196 137.902 88.738 138.316 87.283 138.629 85.931 138.838 84.683L159.898 84.683 159.898 84.683zM191.253 46.151L191.409 45.839C192.136 43.967 192.915 42.173 193.749 40.457 194.581 38.74 195.88 36.947 197.649 35.074 199.417 33.203 201.706 31.643 204.513 30.395 207.321 29.147 210.7 28.523 214.653 28.523 216.003 28.523 217.825 28.627 220.112 28.834L220.112 48.334C216.888 47.609 214.184 47.242 212.001 47.242 209.089 47.242 206.671 47.66 204.747 48.49 202.821 49.324 201.237 50.26 199.989 51.299 197.181 53.588 195.36 56.344 194.528 59.567 193.696 62.791 193.227 66.379 193.126 70.33L193.126 94.822 203.577 94.822 203.577 110.891 161.925 110.891 161.925 94.822 172.221 94.822 172.221 46.151 161.925 46.151 161.925 30.082 190.474 30.082 191.253 46.151M248.271 46.307C246.243 47.867 244.656 49.895 243.514 52.391 242.367 54.887 241.536 57.67 241.018 60.736 240.496 63.806 240.237 66.899 240.237 70.019 240.237 78.34 241.642 84.683 244.449 89.051 247.257 93.418 250.896 95.603 255.369 95.603 257.968 95.603 260.542 94.744 263.091 93.029 265.639 91.313 267.64 88.793 269.098 85.463 270.136 83.383 270.892 80.939 271.359 78.131 271.827 75.322 272.061 72.515 272.061 69.707 272.061 66.797 271.773 63.857 271.203 60.893 270.631 57.929 269.722 55.174 268.474 52.625 267.226 50.078 265.533 47.998 263.403 46.385 261.271 44.774 258.696 43.967 255.682 43.967 252.768 43.967 250.299 44.746 248.271 46.307L248.271 46.307zM242.266 119.627C242.577 120.977 242.94 122.147 243.357 123.137 243.771 124.124 244.474 125.164 245.463 126.257 246.45 127.349 247.854 128.23 249.675 128.908 251.493 129.584 253.756 129.923 256.461 129.923 259.477 129.923 261.945 129.455 263.871 128.519 265.795 127.582 267.25 126.438 268.239 125.086 269.227 123.734 269.929 122.381 270.346 121.031 270.76 119.678 271.071 118.223 271.281 116.662 271.488 114.893 271.617 113.022 271.671 111.047 271.723 109.072 271.749 106.211 271.749 102.467 268.941 105.172 265.899 107.407 262.623 109.175 259.348 110.941 255.213 111.826 250.222 111.826 241.068 111.826 233.529 108.059 227.601 100.517 221.673 92.978 218.709 82.654 218.709 69.551 218.709 63.623 219.489 58.111 221.049 53.015 222.609 47.92 224.817 43.498 227.68 39.754 230.538 36.011 233.997 33.125 238.054 31.097 242.109 29.068 246.58 28.055 251.47 28.055 254.589 28.055 257.397 28.445 259.893 29.225 262.39 30.004 264.52 30.994 266.289 32.189 268.057 33.385 269.461 34.556 270.501 35.699 271.54 36.844 272.529 38.039 273.465 39.287L273.465 30.082 301.701 30.082 301.701 46.151 292.029 46.151 292.029 110.891C292.029 115.361 291.741 119.236 291.171 122.513 290.599 125.789 289.222 129.037 287.037 132.263 283.708 136.942 279.315 140.426 273.855 142.715 268.396 145.001 262.491 146.147 256.149 146.147 254.38 146.147 252.534 146.068 250.611 145.912 248.685 145.757 246.528 145.445 244.138 144.977 241.743 144.509 239.274 143.701 236.727 142.559 234.178 141.413 231.864 139.906 229.785 138.035 226.665 135.227 224.428 132.236 223.077 129.065 221.725 125.891 220.788 122.746 220.27 119.627L242.266 119.627 242.266 119.627zM352.868 60.191C352.868 58.735 352.658 57.07 352.244 55.199 351.827 53.326 351.074 51.455 349.982 49.582 348.891 47.711 347.354 46.151 345.38 44.902 343.403 43.654 340.907 43.031 337.893 43.031 333.314 43.031 329.57 44.746 326.66 48.179 325.101 50.051 324.032 51.923 323.462 53.795 322.89 55.666 322.499 57.799 322.292 60.191L352.868 60.191 352.868 60.191zM373.928 84.683C373.406 87.907 372.731 90.742 371.9 93.185 371.066 95.629 369.611 98.152 367.532 100.75 365.243 103.559 362.643 105.848 359.732 107.615 356.819 109.385 353.984 110.656 351.23 111.437 348.474 112.217 346.028 112.709 343.898 112.918 341.766 113.126 339.659 113.23 337.58 113.23 312.933 113.23 300.608 98.984 300.608 70.486 300.608 62.48 301.596 55.954 303.572 50.908 305.547 45.865 308.043 41.732 311.06 38.507 314.804 34.556 318.885 31.852 323.307 30.395 327.726 28.939 332.379 28.211 337.268 28.211 342.884 28.211 348.083 29.122 352.868 30.941 357.65 32.762 361.655 35.543 364.88 39.287 367.064 41.783 368.805 44.645 370.106 47.867 371.405 51.092 372.368 54.263 372.992 57.383 373.616 60.502 373.979 63.286 374.084 65.729 374.186 68.174 374.24 70.748 374.24 73.451L321.512 73.451C321.512 76.469 321.692 79.484 322.059 82.498 322.421 85.516 323.228 88.219 324.477 90.611 325.932 93.418 327.804 95.447 330.092 96.695 332.379 97.943 334.823 98.567 337.424 98.567 340.544 98.567 343.118 98.047 345.146 97.007 347.174 95.969 348.707 94.693 349.748 93.185 350.786 91.678 351.516 90.196 351.933 88.738 352.347 87.283 352.658 85.931 352.868 84.683L373.928 84.683 373.928 84.683zM453.487 94.822L463.627 94.822 463.627 110.891 425.096 110.891 425.096 94.822 432.583 94.822 432.583 57.851C432.583 55.772 432.452 54.082 432.193 52.781 431.933 51.482 431.335 50.207 430.399 48.959 429.565 47.816 428.474 46.879 427.123 46.151 425.77 45.424 424.055 45.059 421.976 45.059 420.206 45.059 418.412 45.346 416.594 45.916 414.772 46.489 413.03 47.66 411.367 49.427 409.91 50.885 408.949 52.418 408.481 54.029 408.014 55.643 407.779 57.644 407.779 60.035L407.779 94.822 416.048 94.822 416.048 110.891 376.579 110.891 376.579 94.822 387.188 94.822 387.188 46.151 376.579 46.151 376.579 30.082 405.439 30.082 406.688 40.223C408.247 37.52 410.065 35.309 412.147 33.593 414.227 31.877 416.333 30.629 418.466 29.849 420.596 29.068 422.521 28.576 424.237 28.367 425.953 28.16 427.643 28.055 429.308 28.055 433.259 28.055 436.951 28.679 440.384 29.927 443.815 31.175 446.726 33.515 449.119 36.947 450.887 39.547 452.03 42.173 452.552 44.824 453.07 47.477 453.383 50.623 453.487 54.263L453.487 94.822"/>
    <path class="no-color-change" fill="#662D75" d="M484.219,112.607 C473.922,112.607 466.278,104.963 466.278,94.666 C466.278,84.369 473.922,77.037 484.219,77.037 C494.515,77.037 502.159,84.369 502.159,94.666 C502.159,104.963 494.515,112.607 484.219,112.607"/>
    <path fill="#262420" d="M571.109 82.343C570.692 86.297 569.964 90.04 568.925 93.574 567.885 97.111 565.806 100.492 562.685 103.715 559.565 106.834 555.846 109.175 551.531 110.734 547.215 112.295 542.612 113.074 537.726 113.074 532.733 113.074 527.976 112.19 523.451 110.423 518.927 108.655 515.052 106.055 511.829 102.623 509.645 100.232 507.876 97.528 506.525 94.511 505.173 91.496 504.185 88.504 503.561 85.541 502.938 82.576 502.547 79.979 502.392 77.74 502.235 75.506 502.157 73.295 502.157 71.111L502.157 70.019C502.364 56.603 505.145 46.307 510.503 39.131 515.858 31.955 523.632 28.367 533.825 28.367 537.048 28.367 539.883 28.705 542.327 29.381 544.769 30.059 546.798 30.916 548.411 31.955 550.022 32.996 551.297 34.01 552.233 34.996 553.169 35.986 554.105 37.156 555.041 38.507L555.509 30.551 570.173 30.551 570.173 59.41 552.545 59.41C552.336 56.813 551.921 54.496 551.297 52.469 550.673 50.441 549.527 48.596 547.865 46.931 545.369 44.746 542.352 43.654 538.817 43.654 536.841 43.654 535.073 44.045 533.514 44.824 531.953 45.605 530.651 46.516 529.613 47.555 527.844 49.219 526.389 51.793 525.245 55.277 524.1 58.762 523.529 63.779 523.529 70.33 523.529 74.18 523.685 77.377 523.997 79.925 524.31 82.475 524.828 84.736 525.558 86.711 526.806 89.83 528.443 92.326 530.472 94.199 532.499 96.07 535.124 97.007 538.35 97.007 542.508 97.007 545.783 95.084 548.177 91.235 549.113 89.885 549.762 88.582 550.127 87.334 550.49 86.086 550.829 84.631 551.142 82.967 551.243 82.654 551.297 82.447 551.297 82.343L571.109 82.343M606.287 44.591C604.154 45.319 602.204 46.724 600.436 48.803 598.564 50.986 597.161 53.951 596.225 57.695 595.289 61.439 594.82 65.704 594.82 70.486 594.82 74.024 595.079 77.377 595.601 80.549 596.12 83.723 596.951 86.504 598.097 88.895 600.8 94.721 605.479 97.631 612.137 97.631 615.776 97.631 618.455 97.033 620.171 95.836 621.887 94.643 623.315 93.263 624.461 91.703L624.461 91.547C626.54 88.427 627.866 85.049 628.438 81.406 629.009 77.768 629.297 74.18 629.297 70.643 629.297 65.963 628.932 62.038 628.205 58.865 627.476 55.693 626.644 53.17 625.709 51.299 624.668 49.219 623.159 47.399 621.185 45.839 619.208 44.279 616.295 43.498 612.449 43.498 610.472 43.498 608.417 43.864 606.287 44.591L606.287 44.591zM576.022 53.483C577.529 47.867 580.157 42.98 583.9 38.818 586.709 35.699 590.297 33.125 594.665 31.097 599.033 29.068 604.751 28.055 611.825 28.055 617.231 28.055 622.379 28.861 627.268 30.473 632.156 32.086 636.368 34.607 639.904 38.039 642.815 41.057 645.311 45.215 647.393 50.519 649.472 55.822 650.513 62.48 650.513 70.486 650.513 76.936 649.654 82.967 647.938 88.582 646.223 94.199 643.388 99.035 639.436 103.091 635.588 106.94 631.325 109.592 626.644 111.047 621.965 112.502 617.129 113.23 612.137 113.23 599.657 113.23 590.141 109.696 583.589 102.623 577.037 95.551 573.761 85.307 573.761 71.891 573.761 65.236 574.514 59.099 576.022 53.483L576.022 53.483z"/>
    <path fill="#262420" d="M680.62,40.535 C681.451,39.184 682.204,38.092 682.882,37.259 C683.557,36.428 684.466,35.491 685.611,34.451 C690.292,30.293 696.478,28.211 704.176,28.211 C708.544,28.211 712.521,29.147 716.109,31.019 C719.698,32.891 722.428,36.115 724.3,40.691 C725.026,39.235 725.833,37.883 726.718,36.635 C727.601,35.387 728.849,34.088 730.462,32.735 C732.073,31.385 734.179,30.266 736.779,29.381 C739.378,28.498 742.498,28.055 746.14,28.055 C749.986,28.055 753.523,28.627 756.748,29.771 C759.97,30.916 762.622,32.735 764.704,35.231 C766.366,37.313 767.407,39.392 767.824,41.471 C768.238,43.553 768.499,46.828 768.603,51.299 L768.603,94.822 L778.588,94.822 L778.588,110.891 L739.744,110.891 L739.744,94.822 L748.324,94.822 L748.324,59.723 C748.219,57.436 748.09,55.589 747.934,54.185 C747.777,52.781 747.361,51.377 746.685,49.973 C746.008,48.568 744.916,47.452 743.41,46.619 C741.901,45.787 739.899,45.371 737.403,45.371 C735.427,45.371 733.737,45.683 732.334,46.307 C730.93,46.931 729.706,47.711 728.668,48.647 C727.107,50.105 726.067,51.767 725.548,53.639 C725.026,55.511 724.714,57.695 724.611,60.191 L724.611,94.822 L732.88,94.822 L732.88,110.891 L696.22,110.891 L696.22,94.822 L704.643,94.822 L704.643,60.502 C704.539,57.383 704.41,55.199 704.254,53.951 C704.098,52.703 703.759,51.56 703.24,50.519 C702.511,48.857 701.314,47.582 699.651,46.697 C697.987,45.815 696.166,45.371 694.191,45.371 C690.967,45.371 688.107,46.36 685.611,48.334 C683.635,50 682.36,51.899 681.79,54.029 C681.217,56.162 680.932,58.528 680.932,61.127 L680.932,94.822 L689.2,94.822 L689.2,110.891 L650.355,110.891 L650.355,94.822 L660.651,94.822 L660.651,46.151 L650.512,46.151 L650.512,30.082 L679.684,30.082 L680.62,40.535"/>
    <path fill="#343433" d="M325.615 143.845C328.244 143.845 329.655 142.377 329.655 140.163 329.655 137.973 328.244 136.481 325.615 136.481L323.04 136.481 323.04 143.845 325.615 143.845 325.615 143.845zM320.301 134.182L325.891 134.182C329.822 134.182 332.451 136.535 332.451 140.163 332.451 143.791 329.767 146.138 325.891 146.138L323.04 146.138 323.04 153.612 320.301 153.612 320.301 134.182 320.301 134.182zM344.836 146.223L342.983 141.437C342.707 140.715 341.515 137.724 341.487 137.476L341.433 137.476C341.405 137.724 340.244 140.63 339.937 141.437L338.057 146.223 344.836 146.223 344.836 146.223zM340.271 134.182L342.707 134.182 350.678 153.612 347.742 153.612 345.752 148.522 337.144 148.522 335.151 153.612 332.272 153.612C332.272 153.612 339.3 136.566 340.271 134.182L340.271 134.182zM358.773 143.457C361.318 143.457 362.759 142.098 362.759 139.969 362.759 137.84 361.318 136.481 358.773 136.481L356.198 136.481 356.198 143.457 358.773 143.457 358.773 143.457zM353.459 134.182L359.077 134.182C362.701 134.182 365.525 136.068 365.525 139.938 365.525 142.96 363.532 144.949 360.599 145.422L366.55 153.612 363.338 153.612 357.721 145.695 356.198 145.695 356.198 153.612 353.459 153.612 353.459 134.182 353.459 134.182z"/>
    <polyline fill="#343433" points="373.123 136.535 367.588 136.535 367.588 134.182 381.398 134.182 381.398 136.535 375.862 136.535 375.862 153.612 373.123 153.612 373.123 136.535"/>
    <path fill="#343433" d="M406.103,143.9 C406.103,139.386 402.976,136.262 398.687,136.262 C394.452,136.262 391.295,139.386 391.295,143.9 C391.295,148.413 394.452,151.537 398.687,151.537 C402.976,151.537 406.103,148.413 406.103,143.9 L406.103,143.9 Z M388.501,143.9 C388.501,138.446 392.457,133.799 398.714,133.799 C404.968,133.799 408.927,138.446 408.927,143.9 C408.927,149.353 404.968,154 398.714,154 C392.457,154 388.501,149.353 388.501,143.9 L388.501,143.9 Z"/>
    <polyline fill="#343433" points="412.87 134.182 422.667 134.182 422.667 136.535 415.609 136.535 415.609 142.79 422.445 142.79 422.445 145.143 415.609 145.143 415.609 153.612 412.87 153.612 412.87 134.182"/>
    <polyline fill="#343433" points="435.057 136.535 429.522 136.535 429.522 134.182 443.332 134.182 443.332 136.535 437.796 136.535 437.796 153.612 435.057 153.612 435.057 136.535"/>
    <polyline fill="#343433" points="446.207 134.182 448.946 134.182 448.946 142.153 459.132 142.153 459.132 134.182 461.874 134.182 461.874 153.612 459.132 153.612 459.132 144.506 448.946 144.506 448.946 153.612 446.207 153.612 446.207 134.182"/>
    <polyline fill="#343433" points="466.921 134.182 477.494 134.182 477.494 136.511 469.66 136.511 469.66 142.153 477.27 142.153 477.27 144.482 469.66 144.482 469.66 151.289 477.658 151.289 477.658 153.612 466.921 153.612 466.921 134.182"/>
    <path fill="#343433" d="M486.843 146.915L486.843 134.182 489.609 134.182 489.609 146.084C489.609 149.463 491.05 151.537 494.286 151.537 497.553 151.537 498.994 149.463 498.994 146.084L498.994 134.182 501.76 134.182 501.76 146.915C501.76 151.179 499.021 154 494.286 154 489.527 154 486.843 151.179 486.843 146.915M504.62 150.1L506.476 148.522C507.417 150.069 508.912 151.592 511.348 151.592 513.477 151.592 515.139 150.433 515.139 148.298 515.139 146.005 513.228 145.228 510.847 144.288 508.412 143.317 505.949 142.098 505.949 138.998 505.949 135.929 508.33 133.799 511.818 133.799 514.584 133.799 516.41 135.067 517.52 136.729L515.664 138.307C514.918 137.148 513.671 136.202 511.818 136.202 509.934 136.202 508.691 137.172 508.691 138.804 508.691 140.824 510.626 141.491 512.315 142.153 515.054 143.232 517.878 144.537 517.878 148.104 517.878 151.483 515.388 154 511.402 154 508.081 154 505.867 152.259 504.62 150.1M531.903 146.223L530.05 141.437C529.774 140.715 528.582 137.724 528.555 137.476L528.5 137.476C528.473 137.724 527.311 140.63 527.005 141.437L525.124 146.223 531.903 146.223 531.903 146.223zM527.339 134.182L529.774 134.182 537.745 153.612 534.809 153.612 532.819 148.522 524.211 148.522 522.219 153.612 519.34 153.612C519.34 153.612 526.368 136.566 527.339 134.182L527.339 134.182z"/>
    <polyline fill="#343433" points="549.311 136.535 543.775 136.535 543.775 134.182 557.585 134.182 557.585 136.535 552.05 136.535 552.05 153.612 549.311 153.612 549.311 136.535"/>
    <path fill="#343433" d="M576.215 143.9C576.215 139.386 573.088 136.262 568.799 136.262 564.565 136.262 561.407 139.386 561.407 143.9 561.407 148.413 564.565 151.537 568.799 151.537 573.088 151.537 576.215 148.413 576.215 143.9L576.215 143.9zM558.613 143.9C558.613 138.446 562.569 133.799 568.826 133.799 575.081 133.799 579.039 138.446 579.039 143.9 579.039 149.353 575.081 154 568.826 154 562.569 154 558.613 149.353 558.613 143.9L558.613 143.9zM585.721 151.258L588.269 151.258C592.806 151.258 595.961 148.856 595.961 143.9 595.961 138.944 592.806 136.535 588.269 136.535L585.721 136.535 585.721 151.258 585.721 151.258zM582.982 134.182L588.49 134.182C594.69 134.182 598.785 137.724 598.785 143.9 598.785 150.045 594.66 153.612 588.49 153.612L582.982 153.612 582.982 134.182 582.982 134.182zM612.252 146.223L610.399 141.437C610.123 140.715 608.931 137.724 608.903 137.476L608.849 137.476C608.821 137.724 607.66 140.63 607.353 141.437L605.473 146.223 612.252 146.223 612.252 146.223zM607.687 134.182L610.123 134.182 618.094 153.612 615.158 153.612 613.168 148.522 604.56 148.522 602.567 153.612 599.689 153.612C599.689 153.612 606.716 136.566 607.687 134.182L607.687 134.182zM623.566 145.695L616.95 134.182 620.023 134.182 623.62 140.66C623.787 140.964 624.949 143.099 625.003 143.427L625.031 143.427C625.088 143.099 626.25 140.964 626.417 140.66L630.042 134.182 633.029 134.182 626.417 145.695 626.417 153.612 623.566 153.612 623.566 145.695M641.079 134.182L643.181 134.182 654.198 146.775C654.528 147.139 655.969 148.935 656.109 149.214L656.163 149.184C656.109 148.911 656.109 146.666 656.109 146.169L656.109 134.182 658.766 134.182 658.766 153.612 656.633 153.612 645.617 141.018C645.286 140.66 643.845 138.859 643.709 138.586L643.682 138.61C643.709 138.889 643.736 141.134 643.736 141.631L643.736 153.612 641.079 153.612 641.079 134.182"/>
    <polyline fill="#343433" points="663.813 134.182 674.383 134.182 674.383 136.511 666.552 136.511 666.552 142.153 674.165 142.153 674.165 144.482 666.552 144.482 666.552 151.289 674.55 151.289 674.55 153.612 663.813 153.612 663.813 134.182"/>
    <polyline fill="#343433" points="682.955 136.535 677.42 136.535 677.42 134.182 691.23 134.182 691.23 136.535 685.694 136.535 685.694 153.612 682.955 153.612 682.955 136.535"/>
    <path fill="#343433" d="M693.514 134.182L696.419 134.182 700.405 145.726C700.544 146.169 701.485 149.044 701.512 149.487L701.57 149.487C701.597 149.044 702.565 146.169 702.731 145.726L706.884 134.182 709.071 134.182 713.22 145.726C713.387 146.169 714.354 149.044 714.385 149.487L714.439 149.487C714.494 149.044 715.434 146.169 715.574 145.726L719.532 134.182 722.326 134.182 715.489 153.612 713.387 153.612 708.904 141.491C708.764 141.073 707.991 138.78 707.961 138.337L707.906 138.337C707.879 138.78 707.075 141.073 706.938 141.491L702.483 153.612 700.378 153.612 693.514 134.182M741.153 143.9C741.153 139.386 738.025 136.262 733.736 136.262 729.502 136.262 726.345 139.386 726.345 143.9 726.345 148.413 729.502 151.537 733.736 151.537 738.025 151.537 741.153 148.413 741.153 143.9L741.153 143.9zM723.551 143.9C723.551 138.446 727.506 133.799 733.764 133.799 740.018 133.799 743.976 138.446 743.976 143.9 743.976 149.353 740.018 154 733.764 154 727.506 154 723.551 149.353 723.551 143.9L723.551 143.9zM753.234 143.457C755.778 143.457 757.219 142.098 757.219 139.969 757.219 137.84 755.778 136.481 753.234 136.481L750.658 136.481 750.658 143.457 753.234 143.457 753.234 143.457zM747.919 134.182L753.537 134.182C757.165 134.182 759.985 136.068 759.985 139.938 759.985 142.96 757.993 144.949 755.06 145.422L761.011 153.612 757.799 153.612 752.181 145.695 750.658 145.695 750.658 153.612 747.919 153.612 747.919 134.182 747.919 134.182z"/>
    <polyline fill="#343433" points="764.114 134.182 766.853 134.182 766.853 143.208 774.878 134.182 778.2 134.182 769.871 143.457 778.588 153.612 775.157 153.612 766.853 143.791 766.853 153.612 764.114 153.612 764.114 134.182"/>
  </g>
</svg>
