<svg xmlns="http://www.w3.org/2000/svg" width="331" height="43" viewBox="0 0 331 43">
  <g fill="none" fill-rule="evenodd">
    <path fill="#FFFFFF" d="M173.126 39.719L174.293 39.719C174.676 39.719 174.979 39.624 175.203 39.436 175.426 39.247 175.538 38.989 175.538 38.663 175.538 38.337 175.426 38.079 175.203 37.891 174.979 37.701 174.676 37.608 174.293 37.608L173.126 37.608 173.126 39.719zM172.258 42.716L172.258 36.877 174.293 36.877C174.945 36.877 175.464 37.037 175.846 37.358 176.23 37.679 176.422 38.113 176.422 38.663 176.422 39.207 176.23 39.638 175.846 39.955 175.464 40.273 174.945 40.432 174.293 40.432L173.126 40.432 173.126 42.716 172.258 42.716zM178.173 40.518L180.303 40.518 179.238 37.779 178.173 40.518zM181.153 42.716L180.587 41.247 177.89 41.247 177.324 42.716 176.448 42.716 178.783 36.877 179.719 36.877 182.046 42.716 181.153 42.716zM183.883 39.633L185.077 39.633C185.449 39.633 185.745 39.542 185.965 39.359 186.185 39.176 186.296 38.929 186.296 38.62 186.296 38.311 186.185 38.066 185.965 37.882 185.745 37.699 185.449 37.608 185.077 37.608L183.883 37.608 183.883 39.633zM183.883 40.346L183.883 42.716 183.016 42.716 183.016 36.877 185.077 36.877C185.723 36.877 186.236 37.033 186.613 37.345 186.991 37.657 187.18 38.082 187.18 38.62 187.18 39.027 187.066 39.37 186.837 39.651 186.608 39.931 186.293 40.129 185.892 40.242L187.309 42.716 186.322 42.716 184.991 40.346 183.883 40.346z"/>
    <polyline fill="#FFFFFF" points="189.67 42.716 189.67 37.608 187.704 37.608 187.704 36.877 192.503 36.877 192.503 37.608 190.537 37.608 190.537 42.716 189.67 42.716"/>
    <path fill="#FFFFFF" d="M198.075,42.055 C198.453,42.055 198.789,41.959 199.084,41.767 C199.379,41.575 199.609,41.311 199.775,40.973 C199.941,40.635 200.024,40.242 200.024,39.796 C200.024,39.35 199.941,38.958 199.775,38.62 C199.609,38.282 199.379,38.018 199.084,37.826 C198.789,37.634 198.453,37.538 198.075,37.538 C197.698,37.538 197.363,37.634 197.071,37.826 C196.779,38.018 196.549,38.282 196.383,38.62 C196.217,38.958 196.134,39.35 196.134,39.796 C196.134,40.242 196.217,40.635 196.383,40.973 C196.549,41.311 196.779,41.575 197.071,41.767 C197.363,41.959 197.698,42.055 198.075,42.055 Z M198.075,42.811 C197.526,42.811 197.04,42.681 196.616,42.424 C196.192,42.166 195.859,41.811 195.615,41.36 C195.372,40.907 195.251,40.386 195.251,39.796 C195.251,39.207 195.372,38.686 195.615,38.234 C195.859,37.781 196.192,37.427 196.616,37.169 C197.04,36.911 197.526,36.783 198.075,36.783 C198.625,36.783 199.113,36.911 199.539,37.169 C199.965,37.427 200.3,37.781 200.544,38.234 C200.787,38.686 200.909,39.207 200.909,39.796 C200.909,40.386 200.787,40.907 200.544,41.36 C200.3,41.811 199.965,42.166 199.539,42.424 C199.113,42.681 198.625,42.811 198.075,42.811 Z"/>
    <polyline fill="#FFFFFF" points="202.995 42.716 202.128 42.716 202.128 36.877 205.759 36.877 205.759 37.608 202.995 37.608 202.995 39.582 205.339 39.582 205.339 40.312 202.995 40.312 202.995 42.716"/>
    <polyline fill="#FFFFFF" points="210.284 42.716 210.284 37.608 208.318 37.608 208.318 36.877 213.117 36.877 213.117 37.608 211.151 37.608 211.151 42.716 210.284 42.716"/>
    <polyline fill="#FFFFFF" points="214.113 42.716 214.113 36.877 214.98 36.877 214.98 39.376 217.994 39.376 217.994 36.877 218.861 36.877 218.861 42.716 217.994 42.716 217.994 40.122 214.98 40.122 214.98 42.716 214.113 42.716"/>
    <polyline fill="#FFFFFF" points="220.389 42.716 220.389 36.877 224.132 36.877 224.132 37.608 221.256 37.608 221.256 39.41 223.789 39.41 223.789 40.14 221.256 40.14 221.256 41.986 224.202 41.986 224.202 42.716 220.389 42.716"/>
    <path fill="#FFFFFF" d="M229.679 42.055C230.154 42.055 230.528 41.911 230.799 41.625 231.071 41.339 231.208 40.952 231.208 40.466L231.208 36.877 232.075 36.877 232.075 40.475C232.075 41.202 231.861 41.773 231.435 42.188 231.008 42.603 230.423 42.811 229.679 42.811 228.935 42.811 228.351 42.603 227.927 42.188 227.504 41.773 227.293 41.202 227.293 40.475L227.293 36.877 228.16 36.877 228.16 40.466C228.16 40.952 228.296 41.339 228.567 41.625 228.839 41.911 229.21 42.055 229.679 42.055M235.311 42.811C234.871 42.811 234.45 42.733 234.049 42.578 233.648 42.424 233.325 42.218 233.079 41.96L233.568 41.385C233.797 41.597 234.068 41.763 234.38 41.883 234.692 42.003 235.003 42.063 235.311 42.063 235.689 42.063 235.994 41.99 236.225 41.844 236.458 41.698 236.573 41.496 236.573 41.239 236.573 41.004 236.49 40.807 236.324 40.647 236.158 40.487 235.875 40.352 235.474 40.242L234.668 40.028C234.146 39.891 233.767 39.696 233.53 39.445 233.292 39.193 233.173 38.863 233.173 38.457 233.173 38.125 233.262 37.833 233.439 37.581 233.617 37.329 233.861 37.134 234.173 36.993 234.485 36.853 234.839 36.783 235.234 36.783 235.652 36.783 236.044 36.862 236.41 37.019 236.776 37.176 237.1 37.396 237.38 37.676L236.856 38.242C236.611 38.014 236.354 37.838 236.089 37.714 235.822 37.591 235.54 37.529 235.243 37.529 234.881 37.529 234.587 37.606 234.358 37.758 234.13 37.909 234.015 38.119 234.015 38.388 234.015 38.635 234.096 38.826 234.259 38.964 234.422 39.101 234.672 39.216 235.01 39.307L235.912 39.556C236.433 39.699 236.814 39.9 237.054 40.157 237.295 40.414 237.415 40.736 237.415 41.119 237.415 41.456 237.326 41.752 237.149 42.007 236.971 42.262 236.725 42.459 236.41 42.6 236.095 42.74 235.729 42.811 235.311 42.811M239.595 40.518L241.725 40.518 240.66 37.779 239.595 40.518zM242.575 42.716L242.008 41.247 239.312 41.247 238.746 42.716 237.87 42.716 240.205 36.877 241.141 36.877 243.467 42.716 242.575 42.716z"/>
    <polyline fill="#FFFFFF" points="247.503 42.716 247.503 37.608 245.537 37.608 245.537 36.877 250.337 36.877 250.337 37.608 248.37 37.608 248.37 42.716 247.503 42.716"/>
    <path fill="#FFFFFF" d="M253.462 42.055C253.839 42.055 254.175 41.959 254.47 41.767 254.765 41.575 254.996 41.311 255.162 40.973 255.328 40.635 255.411 40.242 255.411 39.796 255.411 39.35 255.328 38.958 255.162 38.62 254.996 38.282 254.765 38.018 254.47 37.826 254.175 37.634 253.839 37.538 253.462 37.538 253.084 37.538 252.749 37.634 252.457 37.826 252.165 38.018 251.936 38.282 251.77 38.62 251.604 38.958 251.521 39.35 251.521 39.796 251.521 40.242 251.604 40.635 251.77 40.973 251.936 41.311 252.165 41.575 252.457 41.767 252.749 41.959 253.084 42.055 253.462 42.055zM253.462 42.811C252.912 42.811 252.425 42.681 252.002 42.424 251.579 42.166 251.245 41.811 251.002 41.36 250.758 40.907 250.636 40.386 250.636 39.796 250.636 39.207 250.758 38.686 251.002 38.234 251.245 37.781 251.579 37.427 252.002 37.169 252.425 36.911 252.912 36.783 253.462 36.783 254.011 36.783 254.499 36.911 254.925 37.169 255.351 37.427 255.686 37.781 255.93 38.234 256.173 38.686 256.295 39.207 256.295 39.796 256.295 40.386 256.173 40.907 255.93 41.36 255.686 41.811 255.351 42.166 254.925 42.424 254.499 42.681 254.011 42.811 253.462 42.811zM258.381 41.986L259.566 41.986C259.978 41.986 260.332 41.896 260.627 41.716 260.921 41.535 261.147 41.282 261.304 40.955 261.462 40.629 261.541 40.242 261.541 39.796 261.541 39.35 261.462 38.964 261.304 38.638 261.147 38.311 260.921 38.058 260.627 37.878 260.332 37.697 259.978 37.608 259.566 37.608L258.381 37.608 258.381 41.986zM257.514 42.716L257.514 36.877 259.566 36.877C260.138 36.877 260.639 36.999 261.068 37.242 261.498 37.486 261.831 37.826 262.069 38.264 262.306 38.701 262.425 39.213 262.425 39.796 262.425 40.38 262.306 40.891 262.069 41.329 261.831 41.767 261.498 42.108 261.068 42.351 260.639 42.594 260.138 42.716 259.566 42.716L257.514 42.716zM264.64 40.518L266.769 40.518 265.705 37.779 264.64 40.518zM267.62 42.716L267.052 41.247 264.357 41.247 263.79 42.716 262.915 42.716 265.25 36.877 266.185 36.877 268.512 42.716 267.62 42.716z"/>
    <polyline fill="#FFFFFF" points="271.173 40.398 271.173 42.716 270.306 42.716 270.306 40.398 268.255 36.877 269.277 36.877 270.745 39.573 272.213 36.877 273.217 36.877 271.173 40.398"/>
    <polyline fill="#FFFFFF" points="280.154 42.716 277.038 38.242 277.038 42.716 276.222 42.716 276.222 36.877 277.029 36.877 280.154 41.351 280.154 36.877 280.962 36.877 280.962 42.716 280.154 42.716"/>
    <polyline fill="#FFFFFF" points="282.49 42.716 282.49 36.877 286.233 36.877 286.233 37.608 283.357 37.608 283.357 39.41 285.889 39.41 285.889 40.14 283.357 40.14 283.357 41.986 286.302 41.986 286.302 42.716 282.49 42.716"/>
    <polyline fill="#FFFFFF" points="288.878 42.716 288.878 37.608 286.912 37.608 286.912 36.877 291.711 36.877 291.711 37.608 289.745 37.608 289.745 42.716 288.878 42.716"/>
    <polyline fill="#FFFFFF" points="297.378 42.716 296.012 38.063 294.647 42.716 293.746 42.716 292.192 36.877 293.05 36.877 294.235 41.496 295.6 36.877 296.424 36.877 297.798 41.514 298.992 36.877 299.833 36.877 298.279 42.716 297.378 42.716"/>
    <path fill="#FFFFFF" d="M303.276 42.055C303.654 42.055 303.99 41.959 304.285 41.767 304.58 41.575 304.81 41.311 304.976 40.973 305.142 40.635 305.225 40.242 305.225 39.796 305.225 39.35 305.142 38.958 304.976 38.62 304.81 38.282 304.58 38.018 304.285 37.826 303.99 37.634 303.654 37.538 303.276 37.538 302.898 37.538 302.563 37.634 302.271 37.826 301.979 38.018 301.751 38.282 301.585 38.62 301.419 38.958 301.336 39.35 301.336 39.796 301.336 40.242 301.419 40.635 301.585 40.973 301.751 41.311 301.979 41.575 302.271 41.767 302.563 41.959 302.898 42.055 303.276 42.055zM303.276 42.811C302.726 42.811 302.24 42.681 301.816 42.424 301.393 42.166 301.059 41.811 300.816 41.36 300.573 40.907 300.451 40.386 300.451 39.796 300.451 39.207 300.573 38.686 300.816 38.234 301.059 37.781 301.393 37.427 301.816 37.169 302.24 36.911 302.726 36.783 303.276 36.783 303.826 36.783 304.313 36.911 304.74 37.169 305.166 37.427 305.501 37.781 305.745 38.234 305.988 38.686 306.109 39.207 306.109 39.796 306.109 40.386 305.988 40.907 305.745 41.36 305.501 41.811 305.166 42.166 304.74 42.424 304.313 42.681 303.826 42.811 303.276 42.811zM308.196 39.633L309.389 39.633C309.761 39.633 310.057 39.542 310.277 39.359 310.498 39.176 310.608 38.929 310.608 38.62 310.608 38.311 310.498 38.066 310.277 37.882 310.057 37.699 309.761 37.608 309.389 37.608L308.196 37.608 308.196 39.633zM308.196 40.346L308.196 42.716 307.329 42.716 307.329 36.877 309.389 36.877C310.036 36.877 310.548 37.033 310.925 37.345 311.303 37.657 311.493 38.082 311.493 38.62 311.493 39.027 311.378 39.37 311.149 39.651 310.92 39.931 310.605 40.129 310.205 40.242L311.622 42.716 310.633 42.716 309.303 40.346 308.196 40.346z"/>
    <polyline fill="#FFFFFF" points="316.206 42.716 313.588 39.771 313.588 42.716 312.72 42.716 312.72 36.877 313.588 36.877 313.588 39.436 316.034 36.877 317.107 36.877 314.506 39.556 317.297 42.716 316.206 42.716"/>
    <path class="no-color-change" fill="#009BFF" d="M12.384 24.545C13.764 24.545 14.866 24.013 15.692 22.948 16.517 21.883 16.929 20.466 16.929 18.695 16.929 16.926 16.517 15.508 15.692 14.443 14.866 13.378 13.764 12.846 12.384 12.846 11.034 12.846 9.946 13.378 9.122 14.443 8.297 15.508 7.884 16.926 7.884 18.695 7.884 20.466 8.297 21.883 9.122 22.948 9.946 24.013 11.034 24.545 12.384 24.545zM14.499 30.755C13.15 30.755 11.919 30.47 10.809 29.901 9.699 29.331 8.769 28.55 8.019 27.561L8.019 38.495.19 38.495.19 7.266 7.344 7.266 7.749 10.281C8.469 9.2 9.437 8.33 10.652 7.67 11.867 7.011 13.269 6.681 14.86 6.681 16.809 6.681 18.534 7.191 20.034 8.21 21.534 9.231 22.719 10.641 23.59 12.441 24.459 14.24 24.894 16.326 24.894 18.695 24.894 21.066 24.451 23.158 23.567 24.973 22.682 26.788 21.452 28.206 19.877 29.226 18.302 30.245 16.509 30.755 14.499 30.755zM36.82 21.306L36.82 30.17 28.989 30.17 28.989 7.266 36.144 7.266 36.639 11.09C37.119 9.861 37.906 8.862 39.002 8.098 40.097 7.333 41.364 6.95 42.804 6.95 43.614 6.95 44.229 7.056 44.65 7.266L44.65 14.42C44.319 14.301 43.952 14.211 43.547 14.151 43.142 14.091 42.684 14.061 42.174 14.061 40.614 14.061 39.332 14.639 38.327 15.793 37.321 16.948 36.82 18.785 36.82 21.306M59.274 12.351C56.724 12.351 55.194 13.7 54.684 16.401L63.414 16.401C63.204 14.931 62.701 13.888 61.906 13.273 61.111 12.658 60.234 12.351 59.274 12.351zM69.984 27.83C68.843 28.641 67.396 29.331 65.641 29.901 63.886 30.47 62.019 30.755 60.039 30.755 57.309 30.755 54.976 30.253 53.041 29.248 51.107 28.243 49.621 26.84 48.587 25.04 47.551 23.24 47.034 21.17 47.034 18.83 47.034 16.461 47.544 14.361 48.564 12.531 49.583 10.701 50.994 9.268 52.794 8.233 54.594 7.199 56.694 6.681 59.094 6.681 61.434 6.681 63.496 7.183 65.281 8.188 67.066 9.194 68.461 10.588 69.466 12.373 70.471 14.158 70.974 16.251 70.974 18.651 70.974 18.981 70.951 19.325 70.906 19.686 70.861 20.045 70.809 20.421 70.749 20.811L54.774 20.811C55.494 23.45 57.458 24.771 60.669 24.771 62.109 24.771 63.383 24.545 64.494 24.096 65.603 23.646 66.534 23.195 67.284 22.745L69.984 27.83zM83.484 30.755C81.504 30.755 79.651 30.441 77.926 29.811 76.201 29.181 74.649 28.28 73.269 27.111L76.599 22.7C77.649 23.54 78.781 24.224 79.996 24.748 81.212 25.274 82.404 25.535 83.574 25.535 84.354 25.535 84.976 25.401 85.442 25.13 85.906 24.861 86.139 24.455 86.139 23.915 86.139 23.346 85.876 22.888 85.351 22.543 84.826 22.198 83.889 21.861 82.539 21.53L80.379 20.99C76.089 19.851 73.944 17.556 73.944 14.106 73.944 12.575 74.364 11.256 75.204 10.146 76.044 9.036 77.199 8.181 78.669 7.58 80.138 6.981 81.848 6.681 83.799 6.681 85.718 6.681 87.526 6.981 89.221 7.58 90.916 8.181 92.468 9.051 93.879 10.191L90.459 14.691C89.408 13.851 88.299 13.176 87.129 12.665 85.959 12.156 84.863 11.901 83.844 11.901 82.193 11.901 81.369 12.441 81.369 13.521 81.369 14.001 81.616 14.391 82.111 14.691 82.607 14.99 83.304 15.261 84.204 15.5L87.129 16.311C89.318 16.911 90.939 17.811 91.989 19.011 93.039 20.211 93.564 21.636 93.564 23.285 93.564 24.786 93.143 26.098 92.304 27.223 91.464 28.348 90.286 29.218 88.772 29.833 87.256 30.447 85.493 30.755 83.484 30.755M106.343 30.755C104.363 30.755 102.511 30.441 100.786 29.811 99.061 29.181 97.508 28.28 96.129 27.111L99.459 22.7C100.508 23.54 101.641 24.224 102.856 24.748 104.071 25.274 105.263 25.535 106.434 25.535 107.214 25.535 107.836 25.401 108.301 25.13 108.766 24.861 108.999 24.455 108.999 23.915 108.999 23.346 108.735 22.888 108.211 22.543 107.686 22.198 106.749 21.861 105.399 21.53L103.238 20.99C98.948 19.851 96.803 17.556 96.803 14.106 96.803 12.575 97.223 11.256 98.064 10.146 98.903 9.036 100.058 8.181 101.528 7.58 102.998 6.981 104.708 6.681 106.658 6.681 108.578 6.681 110.386 6.981 112.081 7.58 113.776 8.181 115.328 9.051 116.738 10.191L113.318 14.691C112.268 13.851 111.158 13.176 109.988 12.665 108.818 12.156 107.723 11.901 106.704 11.901 105.053 11.901 104.229 12.441 104.229 13.521 104.229 14.001 104.476 14.391 104.971 14.691 105.466 14.99 106.164 15.261 107.064 15.5L109.988 16.311C112.178 16.911 113.798 17.811 114.848 19.011 115.898 20.211 116.423 21.636 116.423 23.285 116.423 24.786 116.003 26.098 115.164 27.223 114.323 28.348 113.146 29.218 111.631 29.833 110.116 30.447 108.353 30.755 106.343 30.755"/>
    <path fill="#FFFFFF" d="M131.408 30.755C129.068 30.755 126.991 30.253 125.176 29.248 123.36 28.243 121.928 26.84 120.879 25.04 119.828 23.24 119.303 21.141 119.303 18.74 119.303 16.341 119.828 14.24 120.879 12.441 121.928 10.641 123.36 9.238 125.176 8.233 126.991 7.228 129.068 6.726 131.408 6.726 133.478 6.726 135.293 7.108 136.853 7.873 138.413 8.638 139.793 9.861 140.993 11.54L135.818 15.32C135.398 14.691 134.851 14.173 134.176 13.768 133.501 13.362 132.773 13.16 131.993 13.16 130.643 13.16 129.518 13.663 128.618 14.668 127.718 15.673 127.268 17.03 127.268 18.74 127.268 20.45 127.718 21.808 128.618 22.813 129.518 23.819 130.643 24.32 131.993 24.32 132.773 24.32 133.501 24.118 134.176 23.713 134.851 23.308 135.398 22.79 135.818 22.16L140.993 25.941C139.793 27.621 138.413 28.843 136.853 29.608 135.293 30.373 133.478 30.755 131.408 30.755M155.618 24.545C156.998 24.545 158.1 24.013 158.925 22.948 159.75 21.883 160.163 20.466 160.163 18.695 160.163 16.926 159.75 15.516 158.925 14.465 158.1 13.415 156.998 12.891 155.618 12.891 154.238 12.891 153.135 13.415 152.311 14.465 151.485 15.516 151.073 16.926 151.073 18.695 151.073 20.466 151.485 21.883 152.311 22.948 153.135 24.013 154.238 24.545 155.618 24.545zM155.618 30.755C153.158 30.755 150.99 30.237 149.115 29.203 147.24 28.168 145.77 26.75 144.706 24.95 143.64 23.151 143.108 21.066 143.108 18.695 143.108 16.326 143.64 14.24 144.706 12.441 145.77 10.641 147.24 9.231 149.115 8.21 150.99 7.191 153.158 6.681 155.618 6.681 158.078 6.681 160.245 7.191 162.121 8.21 163.995 9.231 165.465 10.641 166.53 12.441 167.595 14.24 168.128 16.326 168.128 18.695 168.128 21.066 167.595 23.151 166.53 24.95 165.465 26.75 163.995 28.168 162.121 29.203 160.245 30.237 158.078 30.755 155.618 30.755zM180.052 17.526L180.052 30.17 172.223 30.17 172.223 7.266 179.378 7.266 179.783 10.281C180.532 9.2 181.507 8.33 182.708 7.67 183.907 7.011 185.228 6.681 186.668 6.681 189.158 6.681 191.152 7.491 192.653 9.111 194.153 10.731 194.903 13.056 194.903 16.085L194.903 30.17 187.073 30.17 187.073 16.986C187.073 15.636 186.772 14.639 186.172 13.993 185.572 13.348 184.733 13.026 183.653 13.026 182.573 13.026 181.703 13.37 181.043 14.061 180.382 14.751 180.052 15.905 180.052 17.526M207.817 17.526L207.817 30.17 199.988 30.17 199.988 7.266 207.142 7.266 207.547 10.281C208.297 9.2 209.272 8.33 210.472 7.67 211.672 7.011 212.993 6.681 214.432 6.681 216.922 6.681 218.917 7.491 220.418 9.111 221.918 10.731 222.668 13.056 222.668 16.085L222.668 30.17 214.838 30.17 214.838 16.986C214.838 15.636 214.537 14.639 213.937 13.993 213.337 13.348 212.498 13.026 211.418 13.026 210.338 13.026 209.467 13.37 208.807 14.061 208.147 14.751 207.817 15.905 207.817 17.526M238.596 12.351C236.047 12.351 234.516 13.7 234.006 16.401L242.737 16.401C242.526 14.931 242.024 13.888 241.229 13.273 240.434 12.658 239.556 12.351 238.596 12.351zM249.306 27.83C248.166 28.641 246.719 29.331 244.964 29.901 243.209 30.47 241.341 30.755 239.362 30.755 236.631 30.755 234.299 30.253 232.364 29.248 230.429 28.243 228.944 26.84 227.91 25.04 226.875 23.24 226.357 21.17 226.357 18.83 226.357 16.461 226.867 14.361 227.886 12.531 228.906 10.701 230.317 9.268 232.117 8.233 233.917 7.199 236.016 6.681 238.417 6.681 240.756 6.681 242.819 7.183 244.604 8.188 246.388 9.194 247.784 10.588 248.789 12.373 249.794 14.158 250.297 16.251 250.297 18.651 250.297 18.981 250.274 19.325 250.229 19.686 250.184 20.045 250.131 20.421 250.072 20.811L234.096 20.811C234.817 23.45 236.781 24.771 239.992 24.771 241.431 24.771 242.707 24.545 243.817 24.096 244.926 23.646 245.856 23.195 246.607 22.745L249.306 27.83zM265.011 30.755C262.672 30.755 260.593 30.253 258.779 29.248 256.964 28.243 255.531 26.84 254.481 25.04 253.431 23.24 252.907 21.141 252.907 18.74 252.907 16.341 253.431 14.24 254.481 12.441 255.531 10.641 256.964 9.238 258.779 8.233 260.593 7.228 262.672 6.726 265.011 6.726 267.082 6.726 268.896 7.108 270.457 7.873 272.016 8.638 273.396 9.861 274.596 11.54L269.422 15.32C269.001 14.691 268.454 14.173 267.779 13.768 267.104 13.362 266.377 13.16 265.596 13.16 264.247 13.16 263.122 13.663 262.221 14.668 261.321 15.673 260.872 17.03 260.872 18.74 260.872 20.45 261.321 21.808 262.221 22.813 263.122 23.819 264.247 24.32 265.596 24.32 266.377 24.32 267.104 24.118 267.779 23.713 268.454 23.308 269.001 22.79 269.422 22.16L274.596 25.941C273.396 27.621 272.016 28.843 270.457 29.608 268.896 30.373 267.082 30.755 265.011 30.755M294.981 28.686C294.05 29.316 292.986 29.819 291.786 30.193 290.586 30.568 289.326 30.755 288.006 30.755 285.546 30.755 283.589 30.043 282.133 28.618 280.678 27.194 279.951 25.281 279.951 22.88L279.951 13.115 276.216 13.115 276.216 7.266 280.311 7.266 281.301.875 287.781.875 287.781 7.266 293.766 7.266 293.766 13.115 287.781 13.115 287.781 21.891C287.781 22.671 288.013 23.278 288.478 23.713 288.943 24.149 289.566 24.365 290.346 24.365 290.736 24.365 291.133 24.291 291.539 24.141 291.944 23.99 292.326 23.811 292.686 23.601L294.981 28.686M307.22 30.755C305.241 30.755 303.388 30.441 301.663 29.811 299.938 29.181 298.385 28.28 297.005 27.111L300.336 22.7C301.385 23.54 302.518 24.224 303.733 24.748 304.948 25.274 306.14 25.535 307.311 25.535 308.09 25.535 308.713 25.401 309.178 25.13 309.643 24.861 309.876 24.455 309.876 23.915 309.876 23.346 309.613 22.888 309.089 22.543 308.563 22.198 307.626 21.861 306.276 21.53L304.116 20.99C299.825 19.851 297.68 17.556 297.68 14.106 297.68 12.575 298.1 11.256 298.941 10.146 299.78 9.036 300.935 8.181 302.406 7.58 303.876 6.981 305.586 6.681 307.536 6.681 309.456 6.681 311.263 6.981 312.959 7.58 314.653 8.181 316.206 9.051 317.616 10.191L314.196 14.691C313.145 13.851 312.036 13.176 310.866 12.665 309.696 12.156 308.6 11.901 307.581 11.901 305.93 11.901 305.106 12.441 305.106 13.521 305.106 14.001 305.353 14.391 305.848 14.691 306.343 14.99 307.041 15.261 307.941 15.5L310.866 16.311C313.055 16.911 314.675 17.811 315.725 19.011 316.775 20.211 317.3 21.636 317.3 23.285 317.3 24.786 316.88 26.098 316.041 27.223 315.201 28.348 314.023 29.218 312.508 29.833 310.993 30.447 309.23 30.755 307.22 30.755"/>
    <path class="no-color-change" fill="#009BFF" d="M325.581,30.665 C324.62,30.665 323.743,30.433 322.948,29.968 C322.153,29.503 321.523,28.873 321.058,28.078 C320.592,27.283 320.361,26.406 320.361,25.445 C320.361,24.486 320.592,23.609 321.058,22.813 C321.523,22.019 322.153,21.389 322.948,20.923 C323.743,20.458 324.62,20.226 325.581,20.226 C326.541,20.226 327.418,20.458 328.214,20.923 C329.007,21.389 329.637,22.019 330.103,22.813 C330.568,23.609 330.8,24.486 330.8,25.445 C330.8,26.406 330.568,27.283 330.103,28.078 C329.637,28.873 329.007,29.503 328.214,29.968 C327.418,30.433 326.541,30.665 325.581,30.665"/>
  </g>
</svg>
