<svg xmlns="http://www.w3.org/2000/svg" xmlns:xlink="http://www.w3.org/1999/xlink" width="720" height="80" viewBox="0 0 720 80">
  <defs>
    <style>
      @font-face {
        font-family: 'Futura Today';
        src: url('../../fonts/FuturaToday/FuturaTodayNormal.otf');
        font-weight: normal;
      }

      .cls-1 {
        filter: url(#filter);
      }

      .cls-2, .cls-4 {
        fill: #ccc;
      }

      .cls-2, .cls-3 {
        fill-rule: evenodd;
      }

      .cls-3 {
        fill: #fff;
        filter: url(#filter-2);
      }

      .cls-4 {
        font-size: 12px;
        font-family: 'Futura Today';
      }

      .cls-5 {
        font-weight: 300;
      }
    </style>
    <filter id="filter" filterUnits="userSpaceOnUse">
      <feFlood result="flood" flood-color="#333"/>
      <feComposite result="composite" operator="in" in2="SourceGraphic"/>
      <feBlend result="blend" in2="SourceGraphic"/>
    </filter>
    <filter id="filter-2" x="43" y="63.969" width="367.969" height="16" filterUnits="userSpaceOnUse">
      <feFlood result="flood" flood-color="#999"/>
      <feComposite result="composite" operator="in" in2="SourceGraphic"/>
      <feBlend result="blend" in2="SourceGraphic"/>
    </filter>
  </defs>
  <g class="cls-1">
    <path class="cls-2" d="M7.117,20.222H7.274a15.171,15.171,0,0,1,12.879-7.239c10.668,0,17.383,9.208,17.383,19.28,0,10.546-6.322,19.91-17.7,19.91a15.267,15.267,0,0,1-12.562-7H7.117V72H0V14.084H7.117v6.138ZM30.425,32.5c0-7.162-4.343-13.221-12.01-13.221C11.066,19.278,6.72,25.654,6.72,32.5c0,6.925,4.191,13.378,11.695,13.378C26.161,45.877,30.425,39.74,30.425,32.5Zm19.9-12.433h0.239a10.622,10.622,0,0,1,10.109-7.084,11.112,11.112,0,0,1,5.849,1.809l-3.24,6.455a6.231,6.231,0,0,0-4.349-1.5c-7.658,0-8.609,7.083-8.609,13.064v18.1h-7.11V14.084h7.11v5.982ZM74.745,33.679c0.075,6.3,4.343,12.2,11.136,12.2,5.452,0,8.377-2.755,11.064-7.161l6,3.384A19.252,19.252,0,0,1,85.806,52.172c-11.3,0-18.178-8.5-18.178-19.358,0-11.333,6.085-19.832,18.02-19.832,11.774,0,17.3,8.656,17.3,19.6v1.1h-28.2Zm21.1-5.351c-0.87-5.51-4.507-9.205-10.192-9.205a10.56,10.56,0,0,0-10.51,9.205h20.7ZM123.887,22.5a5.47,5.47,0,0,0-4.743-3.226,3.829,3.829,0,0,0-3.873,3.618c0,3.226,4.266,4.643,8.616,6.611s8.534,4.644,8.534,10.467c0,7-5.849,12.2-12.723,12.2-5.373,0-10.825-3.068-12.8-8.263l6.083-2.754c1.5,2.754,3.315,4.722,6.715,4.722,3,0,5.613-2.046,5.613-5.2,0-1.965-.952-2.911-2.61-4.013l-6.955-3.7c-4.109-2.2-7.113-4.249-7.113-9.284a10.772,10.772,0,0,1,10.9-10.7,11,11,0,0,1,10.116,6.452Zm29.474,0a5.471,5.471,0,0,0-4.742-3.226,3.826,3.826,0,0,0-3.87,3.618c0,3.226,4.266,4.643,8.612,6.611s8.534,4.644,8.534,10.467c0,7-5.845,12.2-12.722,12.2-5.373,0-10.825-3.068-12.8-8.263l6.086-2.754c1.5,2.754,3.318,4.722,6.715,4.722,3,0,5.609-2.046,5.609-5.2,0-1.965-.945-2.911-2.606-4.013l-6.951-3.7c-4.113-2.2-7.113-4.249-7.113-9.284a10.77,10.77,0,0,1,10.9-10.7,11,11,0,0,1,10.113,6.452Zm42.667,2.046a13.6,13.6,0,0,0-10.589-4.957c-6.955,0-12.328,6.137-12.328,12.906,0,7.555,5.294,13.062,12.8,13.062a13.316,13.316,0,0,0,10.116-4.88v9.05a20.743,20.743,0,0,1-10.195,2.44C174.926,52.172,166,43.831,166,32.814c0-11.41,8.849-19.832,20.226-19.832a20.114,20.114,0,0,1,9.8,2.44v9.129Zm57.432-5.508h0.161a12.631,12.631,0,0,1,11.144-6.06c10.423,0,13.116,7,13.116,15.975V50.913h-7.11V29.821c0-6.294-.876-10.543-8.143-10.543-9.168,0-9.168,8.026-9.168,14.716V50.913h-7.105V14.084h7.105v4.959Zm38.3,0h0.161a12.63,12.63,0,0,1,11.14-6.06c10.432,0,13.12,7,13.12,15.975V50.913h-7.11V29.821c0-6.294-.872-10.543-8.144-10.543-9.167,0-9.167,8.026-9.167,14.716V50.913h-7.106V14.084h7.106v4.959Zm36.752,14.636c0.079,6.3,4.349,12.2,11.143,12.2,5.449,0,8.376-2.755,11.062-7.161l6.007,3.384a19.254,19.254,0,0,1-17.147,10.072c-11.3,0-18.177-8.5-18.177-19.358,0-11.333,6.085-19.832,18.019-19.832,11.774,0,17.305,8.656,17.305,19.6v1.1H328.512Zm21.1-5.351c-0.871-5.51-4.507-9.205-10.192-9.205a10.561,10.561,0,0,0-10.509,9.205h20.7Zm40.372-3.777A13.586,13.586,0,0,0,379.4,19.594c-6.953,0-12.325,6.137-12.325,12.906,0,7.555,5.3,13.062,12.8,13.062a13.31,13.31,0,0,0,10.114-4.88v9.05a20.716,20.716,0,0,1-10.188,2.44c-10.908,0-19.836-8.341-19.836-19.358,0-11.41,8.849-19.832,20.226-19.832a20.1,20.1,0,0,1,9.8,2.44v9.129Zm15.8,26.362H398.67V20.693H394.8v-6.61h3.869V0h7.113V14.084h6.955v6.61h-6.955v30.22ZM431.461,22.5a5.462,5.462,0,0,0-4.744-3.226,3.827,3.827,0,0,0-3.87,3.618c0,3.226,4.269,4.643,8.614,6.611S440,34.152,440,39.975c0,7-5.849,12.2-12.726,12.2-5.373,0-10.825-3.068-12.794-8.263l6.078-2.754c1.5,2.754,3.323,4.722,6.716,4.722,3,0,5.616-2.046,5.616-5.2,0-1.965-.955-2.911-2.613-4.013l-6.951-3.7c-4.107-2.2-7.114-4.249-7.114-9.284a10.773,10.773,0,0,1,10.906-10.7,11,11,0,0,1,10.115,6.452ZM225.061,11.86V8.952l-9.147,6.766,9.147,6.761V19.4a13.991,13.991,0,0,1,.342,26.921V53.9a21,21,0,0,0,17.753-20.984A21.026,21.026,0,0,0,225.061,11.86Zm-8.6,34.019a13.992,13.992,0,0,1-.343-26.921V11.379A21.008,21.008,0,0,0,198.37,32.365a21.026,21.026,0,0,0,18.1,21.055v2.909l9.15-6.766-9.15-6.758v3.075Z"/>
    <path id="USAT_Network" data-name="USAT Network" class="cls-3" d="M42.989,64.273h4.489c3.156,0,5.267,1.865,5.267,4.741S50.59,73.75,47.478,73.75H45.188v5.924h-2.2v-15.4Zm4.267,7.66c2.112,0,3.244-1.163,3.244-2.919,0-1.735-1.132-2.919-3.244-2.919H45.188v5.837h2.068Zm11.768-7.66H60.98l6.4,15.4H65.022l-1.6-4.034H56.513l-1.6,4.034H52.6S58.244,66.162,59.024,64.273Zm3.665,9.544L61.2,70.023c-0.221-.572-1.178-2.943-1.2-3.14H59.957c-0.022.2-.955,2.5-1.2,3.14l-1.51,3.794h5.443Zm6.924-9.544h4.51c2.91,0,5.178,1.5,5.178,4.563a4.293,4.293,0,0,1-3.955,4.346l4.778,6.491H77.545L73.035,73.4H71.812v6.275h-2.2v-15.4Zm4.267,7.352c2.043,0,3.2-1.077,3.2-2.765s-1.157-2.765-3.2-2.765H71.812v5.53H73.88ZM85.4,66.138H80.957V64.273H92.046v1.865H87.6V79.674H85.4V66.138ZM97.75,71.976a8.2,8.2,0,1,1,8.2,8.006A7.861,7.861,0,0,1,97.75,71.976Zm14.133,0a5.946,5.946,0,1,0-5.955,6.054A5.772,5.772,0,0,0,111.882,71.976Zm5.433-7.7h7.867v1.865h-5.668V71.1H125v1.866h-5.49v6.712h-2.2v-15.4Zm17.815,1.865h-4.444V64.273h11.088v1.865H137.33V79.674h-2.2V66.138Zm8.953-1.865h2.2v6.318h8.178V64.273h2.2v15.4h-2.2V72.456h-8.178v7.217h-2.2v-15.4Zm16.631,0h8.49v1.846h-6.29v4.472h6.11v1.846h-6.11v5.395h6.422v1.842h-8.622v-15.4Zm16,10.092V64.273h2.221v9.434c0,2.678,1.157,4.323,3.756,4.323,2.622,0,3.78-1.644,3.78-4.323V64.273h2.221V74.365c0,3.38-2.2,5.616-6,5.616C178.865,79.981,176.71,77.745,176.71,74.365Zm14.274,2.524,1.491-1.25a4.521,4.521,0,0,0,3.911,2.433c1.709,0,3.044-.919,3.044-2.611,0-1.818-1.534-2.433-3.446-3.178-1.956-.769-3.933-1.736-3.933-4.193,0-2.433,1.912-4.12,4.712-4.12a5.248,5.248,0,0,1,4.579,2.322l-1.491,1.25a3.552,3.552,0,0,0-3.088-1.669c-1.512,0-2.511.77-2.511,2.063,0,1.6,1.554,2.13,2.911,2.654,2.2,0.856,4.466,1.89,4.466,4.717,0,2.678-2,4.674-5.2,4.674A6.064,6.064,0,0,1,190.984,76.889Zm18.241-12.617h1.956l6.4,15.4h-2.357l-1.6-4.034h-6.912l-1.6,4.034H202.8S208.446,66.162,209.225,64.273Zm3.665,9.544L211.4,70.023c-0.222-.572-1.179-2.943-1.2-3.14h-0.044c-0.022.2-.955,2.5-1.2,3.14l-1.51,3.794h5.443Zm13.978-7.679h-4.445V64.273h11.088v1.865h-4.444V79.674h-2.2V66.138Zm7.469,5.837a8.2,8.2,0,1,1,8.2,8.006A7.861,7.861,0,0,1,234.337,71.976Zm14.132,0a5.945,5.945,0,1,0-5.954,6.054A5.772,5.772,0,0,0,248.469,71.976Zm5.434-7.7h4.422c4.978,0,8.266,2.808,8.266,7.7,0,4.87-3.312,7.7-8.266,7.7H253.9v-15.4Zm2.2,13.535h2.046c3.643,0,6.176-1.9,6.176-5.832s-2.533-5.837-6.176-5.837H256.1V77.808Zm17.637-13.535H275.7l6.4,15.4h-2.357l-1.6-4.034h-6.912l-1.6,4.034h-2.311S272.96,66.162,273.739,64.273Zm3.666,9.544-1.489-3.794c-0.221-.572-1.178-2.943-1.2-3.14h-0.044c-0.022.2-.955,2.5-1.2,3.14l-1.51,3.794H277.4Zm9.084-.419-5.312-9.126h2.467l2.889,5.135a22.881,22.881,0,0,1,1.11,2.192h0.022a23.147,23.147,0,0,1,1.113-2.192l2.91-5.135h2.4L288.778,73.4v6.275h-2.289V73.4Zm14.062-9.126h1.687l8.846,9.982c0.266,0.289,1.422,1.712,1.534,1.933l0.044-.024c-0.044-.217-0.044-2-0.044-2.39v-9.5h2.134v15.4h-1.713l-8.845-9.982c-0.265-.284-1.422-1.711-1.532-1.928l-0.021.019c0.021,0.221.043,2,.043,2.394v9.5h-2.133v-15.4Zm18.253,0h8.487v1.846H321v4.472h6.113v1.846H321v5.395h6.422v1.842H318.8v-15.4Zm15.37,1.865h-4.445V64.273h11.089v1.865h-4.445V79.674h-2.2V66.138Zm8.477-1.865h2.334l3.2,9.15c0.112,0.351.867,2.63,0.889,2.981h0.046a30.44,30.44,0,0,1,.933-2.981l3.334-9.15h1.756l3.332,9.15c0.133,0.351.91,2.63,0.935,2.981h0.044c0.044-.351.8-2.63,0.91-2.981l3.179-9.15h2.243l-5.49,15.4h-1.688l-3.6-9.607a25.638,25.638,0,0,1-.758-2.5h-0.044a25.756,25.756,0,0,1-.776,2.5l-3.578,9.607h-1.69Zm24.119,7.7a8.2,8.2,0,1,1,8.2,8.006A7.861,7.861,0,0,1,366.77,71.976Zm14.132,0a5.945,5.945,0,1,0-5.955,6.054A5.772,5.772,0,0,0,380.9,71.976Zm5.433-7.7h4.511c2.913,0,5.177,1.5,5.177,4.563a4.294,4.294,0,0,1-3.955,4.346l4.779,6.491h-2.579L389.757,73.4h-1.223v6.275h-2.2v-15.4Zm4.267,7.352c2.044,0,3.2-1.077,3.2-2.765s-1.156-2.765-3.2-2.765h-2.068v5.53H390.6Zm8.736-7.352h2.2v7.154l6.444-7.154h2.666l-6.687,7.352,7,8.049h-2.754l-6.668-7.785v7.785h-2.2v-15.4Z"/>
    <text id="PRESS_SUN-BULLETIN" data-name="PRESS &amp; SUN-BULLETIN" class="cls-4" transform="translate(468.427 52.431) scale(2.069 2.047)">PRESS <tspan class="cls-5">&amp;</tspan> SUN-BULLETIN</text>
  </g>
</svg>
