<svg xmlns="http://www.w3.org/2000/svg" width="331" height="38" viewBox="0 0 331 38">
  <g fill="none" fill-rule="evenodd">
    <path fill="#009BFF" class="no-color-change" d="M12.384 23.861C13.764 23.861 14.866 23.328 15.692 22.263 16.517 21.199 16.929 19.781 16.929 18.011 16.929 16.241 16.517 14.824 15.692 13.757 14.866 12.693 13.764 12.161 12.384 12.161 11.034 12.161 9.946 12.693 9.122 13.757 8.297 14.824 7.884 16.241 7.884 18.011 7.884 19.781 8.297 21.199 9.122 22.263 9.946 23.328 11.034 23.861 12.384 23.861zM14.499 30.07C13.15 30.07 11.919 29.785 10.809 29.216 9.699 28.646 8.769 27.865 8.019 26.876L8.019 37.81.19 37.81.19 6.581 7.344 6.581 7.749 9.595C8.469 8.515 9.437 7.646 10.652 6.986 11.867 6.326 13.269 5.996 14.86 5.996 16.809 5.996 18.534 6.505 20.034 7.525 21.534 8.546 22.719 9.956 23.59 11.755 24.459 13.556 24.894 15.641 24.894 18.011 24.894 20.38 24.451 22.474 23.567 24.289 22.682 26.103 21.452 27.521 19.877 28.541 18.302 29.56 16.509 30.07 14.499 30.07L14.499 30.07zM36.82 20.621L36.82 29.486 28.989 29.486 28.989 6.581 36.144 6.581 36.639 10.406C37.119 9.175 37.906 8.177 39.002 7.414 40.097 6.648 41.364 6.265 42.804 6.265 43.614 6.265 44.229 6.371 44.65 6.581L44.65 13.736C44.319 13.617 43.952 13.527 43.547 13.466 43.142 13.406 42.684 13.376 42.174 13.376 40.614 13.376 39.332 13.954 38.327 15.109 37.321 16.263 36.82 18.101 36.82 20.621M59.274 11.666C56.724 11.666 55.194 13.015 54.684 15.716L63.414 15.716C63.204 14.246 62.701 13.203 61.906 12.587 61.111 11.974 60.234 11.666 59.274 11.666zM69.984 27.146C68.843 27.956 67.396 28.646 65.641 29.216 63.886 29.785 62.019 30.07 60.039 30.07 57.309 30.07 54.976 29.568 53.041 28.563 51.107 27.558 49.621 26.156 48.587 24.355 47.551 22.556 47.034 20.486 47.034 18.146 47.034 15.777 47.544 13.675 48.564 11.845 49.583 10.016 50.994 8.584 52.794 7.548 54.594 6.513 56.694 5.996 59.094 5.996 61.434 5.996 63.496 6.498 65.281 7.503 67.066 8.509 68.461 9.904 69.466 11.688 70.471 13.474 70.974 15.566 70.974 17.966 70.974 18.296 70.951 18.64 70.906 19.001 70.861 19.361 70.809 19.736 70.749 20.126L54.774 20.126C55.494 22.765 57.458 24.086 60.669 24.086 62.109 24.086 63.383 23.861 64.494 23.411 65.603 22.961 66.534 22.511 67.284 22.06L69.984 27.146 69.984 27.146zM83.484 30.07C81.504 30.07 79.651 29.755 77.926 29.126 76.201 28.496 74.649 27.595 73.269 26.425L76.599 22.015C77.649 22.855 78.781 23.539 79.996 24.063 81.212 24.588 82.404 24.851 83.574 24.851 84.354 24.851 84.976 24.716 85.442 24.445 85.906 24.175 86.139 23.771 86.139 23.23 86.139 22.662 85.876 22.203 85.351 21.859 84.826 21.513 83.889 21.175 82.539 20.845L80.379 20.306C76.089 19.166 73.944 16.871 73.944 13.421 73.944 11.89 74.364 10.571 75.204 9.461 76.044 8.351 77.199 7.496 78.669 6.896 80.138 6.296 81.848 5.996 83.799 5.996 85.718 5.996 87.526 6.296 89.221 6.896 90.916 7.496 92.468 8.366 93.879 9.505L90.459 14.005C89.408 13.166 88.299 12.492 87.129 11.98 85.959 11.47 84.863 11.216 83.844 11.216 82.193 11.216 81.369 11.755 81.369 12.836 81.369 13.316 81.616 13.707 82.111 14.005 82.607 14.306 83.304 14.576 84.204 14.816L87.129 15.626C89.318 16.226 90.939 17.127 91.989 18.326 93.039 19.526 93.564 20.951 93.564 22.601 93.564 24.101 93.143 25.414 92.304 26.539 91.464 27.664 90.286 28.533 88.772 29.148 87.256 29.763 85.493 30.07 83.484 30.07M106.343 30.07C104.363 30.07 102.511 29.755 100.786 29.126 99.061 28.496 97.508 27.595 96.129 26.425L99.459 22.015C100.508 22.855 101.641 23.539 102.856 24.063 104.071 24.588 105.263 24.851 106.434 24.851 107.214 24.851 107.836 24.716 108.301 24.445 108.766 24.175 108.999 23.771 108.999 23.23 108.999 22.662 108.735 22.203 108.211 21.859 107.686 21.513 106.749 21.175 105.399 20.845L103.238 20.306C98.948 19.166 96.803 16.871 96.803 13.421 96.803 11.89 97.223 10.571 98.064 9.461 98.903 8.351 100.058 7.496 101.528 6.896 102.998 6.296 104.708 5.996 106.658 5.996 108.578 5.996 110.386 6.296 112.081 6.896 113.776 7.496 115.328 8.366 116.738 9.505L113.318 14.005C112.268 13.166 111.158 12.492 109.988 11.98 108.818 11.47 107.723 11.216 106.704 11.216 105.053 11.216 104.229 11.755 104.229 12.836 104.229 13.316 104.476 13.707 104.971 14.005 105.466 14.306 106.164 14.576 107.064 14.816L109.988 15.626C112.178 16.226 113.798 17.127 114.848 18.326 115.898 19.526 116.423 20.951 116.423 22.601 116.423 24.101 116.003 25.414 115.164 26.539 114.323 27.664 113.146 28.533 111.631 29.148 110.116 29.763 108.353 30.07 106.343 30.07"/>
    <path fill="#FFFFFE" d="M131.408 30.07C129.068 30.07 126.991 29.568 125.176 28.563 123.36 27.558 121.928 26.156 120.879 24.355 119.828 22.556 119.303 20.457 119.303 18.056 119.303 15.656 119.828 13.556 120.879 11.755 121.928 9.956 123.36 8.554 125.176 7.548 126.991 6.543 129.068 6.041 131.408 6.041 133.478 6.041 135.293 6.423 136.853 7.188 138.413 7.953 139.793 9.175 140.993 10.855L135.818 14.636C135.398 14.005 134.851 13.488 134.176 13.084 133.501 12.677 132.773 12.476 131.993 12.476 130.643 12.476 129.518 12.978 128.618 13.984 127.718 14.988 127.268 16.345 127.268 18.056 127.268 19.765 127.718 21.123 128.618 22.128 129.518 23.134 130.643 23.636 131.993 23.636 132.773 23.636 133.501 23.433 134.176 23.029 134.851 22.623 135.398 22.105 135.818 21.476L140.993 25.255C139.793 26.936 138.413 28.158 136.853 28.923 135.293 29.688 133.478 30.07 131.408 30.07M155.618 23.861C156.998 23.861 158.1 23.328 158.925 22.263 159.75 21.199 160.163 19.781 160.163 18.011 160.163 16.241 159.75 14.832 158.925 13.781 158.1 12.73 156.998 12.206 155.618 12.206 154.238 12.206 153.135 12.73 152.311 13.781 151.485 14.832 151.073 16.241 151.073 18.011 151.073 19.781 151.485 21.199 152.311 22.263 153.135 23.328 154.238 23.861 155.618 23.861zM155.618 30.07C153.158 30.07 150.99 29.552 149.115 28.518 147.24 27.484 145.77 26.066 144.706 24.265 143.64 22.466 143.108 20.38 143.108 18.011 143.108 15.641 143.64 13.556 144.706 11.755 145.77 9.956 147.24 8.546 149.115 7.525 150.99 6.505 153.158 5.996 155.618 5.996 158.078 5.996 160.245 6.505 162.121 7.525 163.995 8.546 165.465 9.956 166.53 11.755 167.595 13.556 168.128 15.641 168.128 18.011 168.128 20.38 167.595 22.466 166.53 24.265 165.465 26.066 163.995 27.484 162.121 28.518 160.245 29.552 158.078 30.07 155.618 30.07L155.618 30.07zM180.052 16.841L180.052 29.486 172.223 29.486 172.223 6.581 179.378 6.581 179.783 9.595C180.532 8.515 181.507 7.646 182.708 6.986 183.907 6.326 185.228 5.996 186.668 5.996 189.158 5.996 191.152 6.806 192.653 8.425 194.153 10.046 194.903 12.371 194.903 15.4L194.903 29.486 187.073 29.486 187.073 16.3C187.073 14.951 186.772 13.954 186.172 13.308 185.572 12.664 184.733 12.341 183.653 12.341 182.573 12.341 181.703 12.685 181.043 13.376 180.382 14.066 180.052 15.22 180.052 16.841M207.817 16.841L207.817 29.486 199.988 29.486 199.988 6.581 207.142 6.581 207.547 9.595C208.297 8.515 209.272 7.646 210.472 6.986 211.672 6.326 212.993 5.996 214.432 5.996 216.922 5.996 218.917 6.806 220.418 8.425 221.918 10.046 222.668 12.371 222.668 15.4L222.668 29.486 214.838 29.486 214.838 16.3C214.838 14.951 214.537 13.954 213.937 13.308 213.337 12.664 212.498 12.341 211.418 12.341 210.338 12.341 209.467 12.685 208.807 13.376 208.147 14.066 207.817 15.22 207.817 16.841M238.596 11.666C236.047 11.666 234.516 13.015 234.006 15.716L242.737 15.716C242.526 14.246 242.024 13.203 241.229 12.587 240.434 11.974 239.556 11.666 238.596 11.666zM249.306 27.146C248.166 27.956 246.719 28.646 244.964 29.216 243.209 29.785 241.341 30.07 239.362 30.07 236.631 30.07 234.299 29.568 232.364 28.563 230.429 27.558 228.944 26.156 227.91 24.355 226.875 22.556 226.357 20.486 226.357 18.146 226.357 15.777 226.867 13.675 227.886 11.845 228.906 10.016 230.317 8.584 232.117 7.548 233.917 6.513 236.016 5.996 238.417 5.996 240.756 5.996 242.819 6.498 244.604 7.503 246.388 8.509 247.784 9.904 248.789 11.688 249.794 13.474 250.297 15.566 250.297 17.966 250.297 18.296 250.274 18.64 250.229 19.001 250.184 19.361 250.131 19.736 250.072 20.126L234.096 20.126C234.817 22.765 236.781 24.086 239.992 24.086 241.431 24.086 242.707 23.861 243.817 23.411 244.926 22.961 245.856 22.511 246.607 22.06L249.306 27.146 249.306 27.146zM265.011 30.07C262.672 30.07 260.593 29.568 258.779 28.563 256.964 27.558 255.531 26.156 254.481 24.355 253.431 22.556 252.907 20.457 252.907 18.056 252.907 15.656 253.431 13.556 254.481 11.755 255.531 9.956 256.964 8.554 258.779 7.548 260.593 6.543 262.672 6.041 265.011 6.041 267.082 6.041 268.896 6.423 270.457 7.188 272.016 7.953 273.396 9.175 274.596 10.855L269.422 14.636C269.001 14.005 268.454 13.488 267.779 13.084 267.104 12.677 266.377 12.476 265.596 12.476 264.247 12.476 263.122 12.978 262.221 13.984 261.321 14.988 260.872 16.345 260.872 18.056 260.872 19.765 261.321 21.123 262.221 22.128 263.122 23.134 264.247 23.636 265.596 23.636 266.377 23.636 267.104 23.433 267.779 23.029 268.454 22.623 269.001 22.105 269.422 21.476L274.596 25.255C273.396 26.936 272.016 28.158 270.457 28.923 268.896 29.688 267.082 30.07 265.011 30.07M294.981 28.001C294.05 28.63 292.986 29.133 291.786 29.507 290.586 29.882 289.326 30.07 288.006 30.07 285.546 30.07 283.589 29.359 282.133 27.933 280.678 26.509 279.951 24.595 279.951 22.195L279.951 12.431 276.216 12.431 276.216 6.581 280.311 6.581 281.301.191 287.781.191 287.781 6.581 293.766 6.581 293.766 12.431 287.781 12.431 287.781 21.206C287.781 21.986 288.013 22.593 288.478 23.029 288.943 23.463 289.566 23.681 290.346 23.681 290.736 23.681 291.133 23.606 291.539 23.456 291.944 23.306 292.326 23.127 292.686 22.916L294.981 28.001M307.22 30.07C305.241 30.07 303.388 29.755 301.663 29.126 299.938 28.496 298.385 27.595 297.005 26.425L300.336 22.015C301.385 22.855 302.518 23.539 303.733 24.063 304.948 24.588 306.14 24.851 307.311 24.851 308.09 24.851 308.713 24.716 309.178 24.445 309.643 24.175 309.876 23.771 309.876 23.23 309.876 22.662 309.613 22.203 309.089 21.859 308.563 21.513 307.626 21.175 306.276 20.845L304.116 20.306C299.825 19.166 297.68 16.871 297.68 13.421 297.68 11.89 298.1 10.571 298.941 9.461 299.78 8.351 300.935 7.496 302.406 6.896 303.876 6.296 305.586 5.996 307.536 5.996 309.456 5.996 311.263 6.296 312.959 6.896 314.653 7.496 316.206 8.366 317.616 9.505L314.196 14.005C313.145 13.166 312.036 12.492 310.866 11.98 309.696 11.47 308.6 11.216 307.581 11.216 305.93 11.216 305.106 11.755 305.106 12.836 305.106 13.316 305.353 13.707 305.848 14.005 306.343 14.306 307.041 14.576 307.941 14.816L310.866 15.626C313.055 16.226 314.675 17.127 315.725 18.326 316.775 19.526 317.3 20.951 317.3 22.601 317.3 24.101 316.88 25.414 316.041 26.539 315.201 27.664 314.023 28.533 312.508 29.148 310.993 29.763 309.23 30.07 307.22 30.07"/>
    <path fill="#009BFF" class="no-color-change" d="M325.581,29.98 C324.62,29.98 323.743,29.748 322.948,29.283 C322.153,28.818 321.523,28.189 321.058,27.393 C320.592,26.599 320.361,25.72 320.361,24.761 C320.361,23.8 320.592,22.923 321.058,22.128 C321.523,21.334 322.153,20.704 322.948,20.238 C323.743,19.773 324.62,19.541 325.581,19.541 C326.541,19.541 327.418,19.773 328.214,20.238 C329.007,20.704 329.637,21.334 330.103,22.128 C330.568,22.923 330.8,23.8 330.8,24.761 C330.8,25.72 330.568,26.599 330.103,27.393 C329.637,28.189 329.007,28.818 328.214,29.283 C327.418,29.748 326.541,29.98 325.581,29.98"/>
  </g>
</svg>
