<svg xmlns="http://www.w3.org/2000/svg" xmlns:xlink="http://www.w3.org/1999/xlink" width="720" height="155" viewBox="0 0 720 155">
  <defs>
    <style>
      .cls-1 {
        filter: url(#filter);
      }

      .cls-2, .cls-3 {
        fill: #fff;
        fill-rule: evenodd;
      }

      .cls-3 {
        filter: url(#filter-2);
      }
    </style>
    <filter id="filter" filterUnits="userSpaceOnUse">
      <feFlood result="flood" flood-color="#333"/>
      <feComposite result="composite" operator="in" in2="SourceGraphic"/>
      <feBlend result="blend" in2="SourceGraphic"/>
    </filter>
    <filter id="filter-2" x="249.312" y="134.625" width="468.094" height="20.344" filterUnits="userSpaceOnUse">
      <feFlood result="flood" flood-color="#999"/>
      <feComposite result="composite" operator="in" in2="SourceGraphic"/>
      <feBlend result="blend" in2="SourceGraphic"/>
    </filter>
  </defs>
  <g class="cls-1">
    <path class="cls-2" d="M18.924,54.72q5.334,0,7.871-2.672a17.545,17.545,0,0,0,3.887-7.5A46.825,46.825,0,0,0,32.035,32.2,47.1,47.1,0,0,0,30.7,19.9a16.44,16.44,0,0,0-3.812-7.289q-2.48-2.5-7.965-2.416V54.72h0Zm0,6.5V97.485l-0.037,4.172a17.222,17.222,0,0,0,1.033,6.793,3.3,3.3,0,0,0,3.062,2.29,7.278,7.278,0,0,0,5.542-2.951A20.459,20.459,0,0,0,32.411,99.2a53.807,53.807,0,0,0,1.353-12.555A56.029,56.029,0,0,0,32.11,72.439q-1.653-6.3-4.546-8.8t-8.64-2.417h0ZM32.6,56.971c4.832,2.493,8.226,5.532,10.181,9.082q4.206,7.594,4.206,19.679,0,12.764-4.619,21.09-5.674,10.095-16.492,10.1H-0.009v-3.091c2.354,0,3.951-.483,4.79-1.462a8.434,8.434,0,0,0,1.765-3.791c0.338-1.553.507-5.394,0.507-11.5V23.707q0-9.179-.507-11.55A8.008,8.008,0,0,0,4.762,8.366C3.91,7.412,2.32,6.941-.009,6.941V3.863H24.41q8.752,0,12.4,3.46t5.748,10.328a49.846,49.846,0,0,1,2.1,14.642,37.488,37.488,0,0,1-2.667,14.552A20.658,20.658,0,0,1,32.6,56.971h0ZM66.034,3.863v96.878q0,8.264.863,10.546a3.918,3.918,0,0,0,3.382,2.633v3H51.307v-3c1.552-.115,2.7-1.12,3.457-3,0.5-1.285.751-4.668,0.751-10.177V20.031q0-8.167-.865-10.456a3.9,3.9,0,0,0-3.344-2.633V3.863H66.034ZM93.058,99.33v-26.1A42.391,42.391,0,0,0,86.3,85.9a29.211,29.211,0,0,0-1.467,9.1,17.156,17.156,0,0,0,1.241,6.754Q87.008,104,88.7,104c1.252,0,2.7-1.565,4.358-4.668m0,6.08Q86.632,118,81.523,118q-3.006,0-5-4.376a26.535,26.535,0,0,1-1.991-10.965,36.31,36.31,0,0,1,3.456-16.053q3.457-7.135,15.065-18.966V59.807a82.681,82.681,0,0,0-.434-11.129A10.176,10.176,0,0,0,90.99,44.67a3.369,3.369,0,0,0-2.7-1.7,4.666,4.666,0,0,0-4.02,2.416,6.235,6.235,0,0,0-.977,3.5,11.941,11.941,0,0,0,1.053,4.337,18.668,18.668,0,0,1,1.427,6.92A16.076,16.076,0,0,1,84.4,67.1c-0.915,1.921-2.11,2.876-3.588,2.876q-2.367,0-3.964-3.167a16.279,16.279,0,0,1-1.6-7.417,31.057,31.057,0,0,1,2.142-11.461,18.9,18.9,0,0,1,5.973-8.383,12.975,12.975,0,0,1,7.963-2.913q5,0,7.907,4.707a27.28,27.28,0,0,1,3.776,10.215q0.525,3.491.526,16.091V97.9q0,5.344.187,6.716a6,6,0,0,0,.564,2.036,1.064,1.064,0,0,0,.865.674q0.974,0,1.99-3.092l1.127,2.011a31.936,31.936,0,0,1-3.888,8.954c-1.341,1.871-2.861,2.8-4.563,2.8a5.178,5.178,0,0,1-4.7-3.129q-1.691-3.129-2.065-9.464h0ZM140.8,96.824l1.165,2q-2.481,10.342-6.181,15.38-3.7,5.055-7.869,5.049-7.025,0-11.233-11.754t-4.208-28.265q0-15.931,3.834-28.01,4.621-14.6,12.734-14.591,5.446,0,8.659,6.08A28.648,28.648,0,0,1,140.915,56.3a18.57,18.57,0,0,1-1.294,7.594c-0.866,1.883-2,2.837-3.4,2.837-1.478,0-2.7-1.081-3.663-3.257S131,57.442,130.773,51.883a24.2,24.2,0,0,0-1.089-7.34c-0.576-1.387-1.253-2.086-2.03-2.086-1.2,0-2.228,1.425-3.08,4.261q-1.954,6.411-1.953,19.665A135.817,135.817,0,0,0,124.2,87.45q1.578,10.035,4.32,14.959,2.065,3.587,4.883,3.588a4.653,4.653,0,0,0,3.494-1.921,29.73,29.73,0,0,0,3.907-7.251M160.574,3.863V78.226l8.153-17.757a52.982,52.982,0,0,0,3.136-7.836,18.757,18.757,0,0,0,.62-4.668,7.739,7.739,0,0,0-.826-3.753,4.945,4.945,0,0,0-3.23-2.163V38.959h15.738V42.05a5.811,5.811,0,0,0-3.944,2.366q-1.691,2.137-6.61,12.809l-3.834,8.333,8.265,26.852q5,16.334,5.937,18.33c0.851,1.9,1.928,2.951,3.23,3.18v3H169.064v-3a1.856,1.856,0,0,0,1.746-1,4.484,4.484,0,0,0,.546-2.175,29.912,29.912,0,0,0-1.579-7.085l-6.948-22.592-2.255,4.923V99.991c0,5.954.249,9.655,0.751,11.131a4.112,4.112,0,0,0,3.081,2.8v3H146.263v-3a4.424,4.424,0,0,0,3.154-3.18c0.425-1.221.639-4.8,0.639-10.749V20.781q0-8.835-.733-11a4.247,4.247,0,0,0-3.06-2.837V3.863h14.311Zm81.807,74.529L256.206,3.863h20.737V6.941H275.29A4.324,4.324,0,0,0,271.684,8.7a9.475,9.475,0,0,0-1.5,3.918,73.811,73.811,0,0,0-.414,10.418V97.574a81.131,81.131,0,0,0,.414,10.838,8.637,8.637,0,0,0,1.69,3.791,4.133,4.133,0,0,0,3.419,1.628h1.653v3.091h-26.6v-3.091H252a4.326,4.326,0,0,0,3.608-1.755,9.6,9.6,0,0,0,1.5-3.995,75.007,75.007,0,0,0,.413-10.507V13.785L237.987,116.922h-0.9L217.25,14.535V94.153q0,8.337.188,10.252a16.417,16.417,0,0,0,2.124,6.806,5.612,5.612,0,0,0,5.127,2.62v3.091H207.258v-3.091h0.527a4.348,4.348,0,0,0,3.154-1.209,7.982,7.982,0,0,0,2.218-3.46,28.718,28.718,0,0,0,1.164-6.092c0.05-.611.075-3.435,0.075-8.5V23.033a78.861,78.861,0,0,0-.414-10.711,8.685,8.685,0,0,0-1.69-3.752,4.132,4.132,0,0,0-3.419-1.628h-1.615V3.863H228.07l14.311,74.529h0Zm55.273-35.846q-1.914,0-3.286,3.205-1.373,3.225-1.8,12.682t-0.433,26.294q0,8.93.527,16.677a28.2,28.2,0,0,0,1.766,9.006q1.351,3.09,3.079,3.09c1.128,0,2.067-.7,2.817-2.086a22.244,22.244,0,0,0,1.954-7.925q0.751-7.918.752-32.017c0-9.438-.238-15.939-0.713-19.462a22.167,22.167,0,0,0-2.1-7.708,2.9,2.9,0,0,0-2.555-1.755M297.5,36.631c3.056,0,5.9,1.743,8.529,5.253s4.625,8.472,5.991,14.922a102.368,102.368,0,0,1,2.048,21.18q0,16.581-3.8,27.756-4.584,13.509-12.66,13.509-7.926,0-12.208-12.339t-4.283-28.6q0-16.753,4.377-29.232,4.374-12.459,12-12.453h0Zm55.824,2.328V99.991c0,5.954.25,9.655,0.751,11.131a4.1,4.1,0,0,0,3.042,2.8v3H342.808V106.491c-1.678,4.453-3.356,7.684-5.034,9.718a7.268,7.268,0,0,1-5.634,3.041q-2.968,0-5.278-4.046a26.63,26.63,0,0,1-3.1-9.463q-0.789-5.419-.79-18.928V55.889q0-8.835-.731-11.016a4.261,4.261,0,0,0-3.063-2.824V38.959h14.314V92.232a97.128,97.128,0,0,0,.356,10.761,9.807,9.807,0,0,0,1.126,3.664,2.162,2.162,0,0,0,1.786,1.259,3.043,3.043,0,0,0,2.441-1.59c1-1.438,2.2-4.364,3.606-8.752V55.889q0-8.835-.733-11.016a4.255,4.255,0,0,0-3.06-2.824V38.959h14.312Zm23.2,0V49.046a37.936,37.936,0,0,1,5.187-9.463q2.476-2.958,5.331-2.952,3.418,0,5.674,4.21A29.536,29.536,0,0,1,395.728,51.3a177.34,177.34,0,0,1,.6,18.267V99.9q0,9.007.733,11.22a4.068,4.068,0,0,0,3.06,2.8v3H382.353v-3c1.327-.394,2.28-1.615,2.855-3.676q0.6-2.081.6-10.342V65.226q0-9.6-.338-12.1a10.542,10.542,0,0,0-1.146-3.868,2.225,2.225,0,0,0-1.784-1.386q-3.231,0-6.012,10.265V99.9q0,8.758.734,11.092a4.026,4.026,0,0,0,2.722,2.926v3H362.218v-3a4.428,4.428,0,0,0,3.157-3.18q0.638-1.831.637-10.838V55.889q0-8.835-.731-11.016a4.259,4.259,0,0,0-3.063-2.824V38.959H376.53ZM418.9,10.439v28.52h8.338v8.255H418.9V95.323a80.637,80.637,0,0,0,.281,8.713,8.6,8.6,0,0,0,1,3.167,1.959,1.959,0,0,0,1.317,1.209q2.438,0,4.618-8.256l1.127,1.832Q424.193,118,417.353,118q-3.342,0-5.652-4.134a25,25,0,0,1-2.951-9.21q-0.374-2.841-.373-15.34V47.214h-4.583V44.3a97.192,97.192,0,0,0,8.057-15.595,132.271,132.271,0,0,0,5.8-18.267H418.9ZM449.961,99.33v-26.1A42.33,42.33,0,0,0,443.2,85.9a29.177,29.177,0,0,0-1.465,9.1,17.2,17.2,0,0,0,1.238,6.754Q443.913,104,445.6,104c1.25,0,2.705-1.565,4.357-4.668m0,6.08Q443.535,118,438.428,118q-3.006,0-5-4.376a26.494,26.494,0,0,1-1.992-10.965A36.332,36.332,0,0,1,434.9,86.609q3.456-7.135,15.065-18.966V59.807a82.758,82.758,0,0,0-.433-11.129A10.178,10.178,0,0,0,447.9,44.67a3.374,3.374,0,0,0-2.7-1.7,4.665,4.665,0,0,0-4.02,2.416,6.235,6.235,0,0,0-.976,3.5,11.94,11.94,0,0,0,1.051,4.337,18.653,18.653,0,0,1,1.427,6.92A16.1,16.1,0,0,1,441.3,67.1c-0.916,1.921-2.113,2.876-3.589,2.876q-2.367,0-3.963-3.167a16.249,16.249,0,0,1-1.6-7.417,31.113,31.113,0,0,1,2.14-11.461,18.915,18.915,0,0,1,5.974-8.383,12.976,12.976,0,0,1,7.964-2.913q5,0,7.908,4.707a27.248,27.248,0,0,1,3.775,10.215q0.526,3.491.526,16.091V97.9q0,5.344.189,6.716a5.917,5.917,0,0,0,.562,2.036,1.065,1.065,0,0,0,.864.674q0.977,0,1.99-3.092l1.128,2.011a31.939,31.939,0,0,1-3.887,8.954c-1.34,1.871-2.862,2.8-4.565,2.8a5.18,5.18,0,0,1-4.7-3.129q-1.69-3.129-2.065-9.464h0ZM477.5,1.192c1.628,0,3,1.259,4.131,3.791a22.342,22.342,0,0,1,1.691,9.133A21.774,21.774,0,0,1,481.61,23.2Q479.9,26.956,477.5,26.95T473.4,23.2a21.961,21.961,0,0,1-1.69-9.083,22.327,22.327,0,0,1,1.69-9.133c1.126-2.532,2.491-3.791,4.1-3.791m5.258,37.767v61.782q0,8.264.865,10.546A3.914,3.914,0,0,0,487,113.92v3H468.03v-3c1.552-.115,2.705-1.12,3.456-3,0.5-1.285.752-4.668,0.752-10.177V55.215c0-5.495-.289-9.018-0.866-10.545a3.864,3.864,0,0,0-3.342-2.62V38.959h14.725Zm22.012,0V49.046a37.972,37.972,0,0,1,5.186-9.463q2.481-2.958,5.334-2.952,3.418,0,5.672,4.21A29.473,29.473,0,0,1,523.966,51.3a177.845,177.845,0,0,1,.6,18.267V99.9q0,9.007.731,11.22a4.067,4.067,0,0,0,3.062,2.8v3H510.593v-3c1.326-.394,2.277-1.615,2.853-3.676q0.6-2.081.6-10.342V65.226q0-9.6-.337-12.1a10.561,10.561,0,0,0-1.146-3.868,2.226,2.226,0,0,0-1.785-1.386q-3.232,0-6.012,10.265V99.9q0,8.758.734,11.092a4.028,4.028,0,0,0,2.724,2.926v3H490.456v-3a4.425,4.425,0,0,0,3.156-3.18q0.639-1.831.638-10.838V55.889q0-8.835-.732-11.016a4.258,4.258,0,0,0-3.062-2.824V38.959h14.311Zm64.243-35.1,25.13,70.115V25.373q0-10.17-1.313-13.764c-1.2-3.218-3.219-4.782-6.049-4.668V3.863h16.83V6.941a8.187,8.187,0,0,0-4.339,2.378,11.61,11.61,0,0,0-1.728,4.758,69.906,69.906,0,0,0-.619,11.3v94.132h-1.279L561.2,25.373v71.87q0,9.751,2.007,13.167c1.341,2.276,2.875,3.421,4.6,3.421h1.2v3.091H550.941v-3.091A6.049,6.049,0,0,0,556.8,110q1.652-3.759,1.652-12.759V17.449l-1.089-3a20.509,20.509,0,0,0-2.856-5.914,4.969,4.969,0,0,0-3.568-1.59V3.863H569.01Zm59.492,65.7a169.137,169.137,0,0,0-.657-18.432,22.751,22.751,0,0,0-2.048-7.581,2.356,2.356,0,0,0-2.1-1.5q-1.955,0-3.193,4.248-2.217,7.422-2.218,20.341v2.926H628.5Zm9.243,5.584H618.472q0.338,15.494,3.719,24.513c1.728,4.6,3.806,6.919,6.236,6.919,1.5,0,2.868-.928,4.094-2.8s2.542-5.2,3.944-10.049l1.28,1.844q-2.859,12.917-6.312,18.292t-8,5.381q-7.813,0-11.832-13.343-3.232-10.743-3.232-26.676,0-19.519,4.752-31.063t11.139-11.538q5.334,0,9.26,9.706t4.228,28.811h0Zm36.921,44.1-9.617-57.192-9.428,57.192h-1.954l-9.354-56.529q-2.1-12.918-3.568-16.842a6.966,6.966,0,0,0-2.856-3.829V38.959h17.732V42.05a2.617,2.617,0,0,0-2.48,1.157,5.241,5.241,0,0,0-.676,2.671,82.37,82.37,0,0,0,1.2,8.51l5.146,30.428,4.96-30.428L663.4,52.379q-1.13-6.24-1.973-7.963a4.663,4.663,0,0,0-2.611-2.366V38.959h18V42.05c-1.4.166-2.293,0.6-2.668,1.284a6.332,6.332,0,0,0-.565,2.964,63.016,63.016,0,0,0,1.09,8.09l4.958,30.428,4.509-28.011a62.417,62.417,0,0,0,.977-8.179,11.679,11.679,0,0,0-.715-4.745,3.4,3.4,0,0,0-2.778-1.832V38.959h10.405V42.05a4.493,4.493,0,0,0-2.742,2.709q-1.017,2.2-2.631,12.543l-9.84,61.948h-2.143ZM717.6,36.8l0.565,26.6h-1.277q-2.3-11.85-4.752-16.181t-4.9-4.337q-1.541,0-2.629,2.289a12.243,12.243,0,0,0-1.089,5.3,12.587,12.587,0,0,0,.751,4.325q1.2,3.436,6.724,11.716,5.523,8.3,7.268,14.093a44.848,44.848,0,0,1,1.748,12.963,55.8,55.8,0,0,1-1.464,12.759,24.184,24.184,0,0,1-4.134,9.592q-2.667,3.339-5.9,3.332-2.516,0-6.724-3.5a3.514,3.514,0,0,0-1.539-.916q-1.24,0-2.068,4.159h-1.239l-0.6-28.01h1.278q1.69,11.01,4.64,16.511t5.579,5.5c1.2,0,2.183-.815,2.948-2.455a14.07,14.07,0,0,0,1.146-5.967,19.233,19.233,0,0,0-1.128-6.919,54.074,54.074,0,0,0-5.033-8.828q-5.75-8.835-7.439-13.509a43.971,43.971,0,0,1-2.478-15.1,45.194,45.194,0,0,1,2.8-16.295q2.8-7.289,8.1-7.289c1.9,0,3.744,1.017,5.522,3.078a2.688,2.688,0,0,0,1.654,1.246,1.249,1.249,0,0,0,1.089-.623,19.034,19.034,0,0,0,1.315-3.536H717.6Z"/>
    <path id="USAT_Network" data-name="USAT Network" class="cls-3" d="M249.315,135.018h5.71c4.015,0,6.7,2.371,6.7,6.024s-2.741,6.017-6.7,6.017h-2.913v7.526h-2.8V135.018Zm5.427,9.732c2.687,0,4.127-1.478,4.127-3.708,0-2.205-1.44-3.708-4.127-3.708h-2.63v7.416h2.63Zm14.97-9.732H272.2l8.142,19.567h-3l-2.033-5.125h-8.792l-2.035,5.125h-2.94S268.72,137.419,269.712,135.018Zm4.663,12.126-1.893-4.819c-0.282-.727-1.5-3.739-1.528-3.989H270.9c-0.028.25-1.215,3.176-1.527,3.989l-1.921,4.819h6.924Zm8.807-12.126h5.738c3.7,0,6.586,1.9,6.586,5.8,0,3.042-2.035,5.045-5.03,5.522l6.078,8.247h-3.281l-5.738-7.972H285.98v7.972h-2.8V135.018Zm5.428,9.341c2.6,0,4.071-1.369,4.071-3.512s-1.471-3.513-4.071-3.513h-2.63v7.025h2.63Zm14.657-6.97h-5.653v-2.371h14.105v2.371h-5.654v17.2h-2.8v-17.2Zm15.708,7.416a10.434,10.434,0,1,1,10.43,10.171A9.994,9.994,0,0,1,318.975,144.805Zm17.978,0a7.564,7.564,0,1,0-7.576,7.691A7.339,7.339,0,0,0,336.953,144.805Zm6.911-9.787h10.007v2.371h-7.21v6.3h6.983v2.37h-6.983v8.528h-2.8V135.018Zm22.662,2.371h-5.654v-2.371h14.106v2.371h-5.654v17.2h-2.8v-17.2Zm11.389-2.371h2.8v8.027h10.4v-8.027h2.8v19.567h-2.8v-9.17h-10.4v9.17h-2.8V135.018Zm21.156,0h10.8v2.346h-8v5.681h7.773v2.346h-7.773v6.854h8.169v2.34H399.071V135.018Zm20.348,12.823V135.018h2.825V147c0,3.4,1.472,5.492,4.778,5.492,3.336,0,4.808-2.089,4.808-5.492V135.018h2.826v12.823c0,4.295-2.8,7.135-7.634,7.135C422.161,154.976,419.419,152.136,419.419,147.841Zm18.158,3.207,1.9-1.588a5.753,5.753,0,0,0,4.975,3.091c2.175,0,3.873-1.167,3.873-3.317,0-2.31-1.952-3.092-4.384-4.038-2.487-.978-5-2.206-5-5.327,0-3.091,2.432-5.235,5.994-5.235a6.676,6.676,0,0,1,5.825,2.95l-1.9,1.589a4.521,4.521,0,0,0-3.929-2.12c-1.923,0-3.194.977-3.194,2.621,0,2.034,1.977,2.706,3.7,3.371,2.8,1.088,5.681,2.4,5.681,5.993,0,3.4-2.543,5.938-6.614,5.938A7.715,7.715,0,0,1,437.577,151.048Zm23.2-16.03h2.488l8.141,19.567h-3l-2.032-5.125h-8.793l-2.036,5.125h-2.939S459.79,137.419,460.781,135.018Zm4.663,12.126-1.893-4.819c-0.282-.727-1.5-3.739-1.527-3.989h-0.056c-0.028.25-1.214,3.176-1.528,3.989l-1.92,4.819h6.924Zm17.78-9.755H477.57v-2.371h14.105v2.371h-5.654v17.2h-2.8v-17.2Zm9.5,7.416a10.434,10.434,0,1,1,10.432,10.171A9.995,9.995,0,0,1,492.725,144.805Zm17.978,0a7.564,7.564,0,1,0-7.574,7.691A7.338,7.338,0,0,0,510.7,144.805Zm6.912-9.787h5.626c6.332,0,10.515,3.568,10.515,9.787,0,6.188-4.213,9.78-10.515,9.78h-5.626V135.018Zm2.8,17.2h2.6c4.634,0,7.856-2.418,7.856-7.409s-3.222-7.416-7.856-7.416h-2.6v14.825Zm22.436-17.2h2.488l8.142,19.567h-3l-2.033-5.125h-8.792l-2.035,5.125h-2.94S541.857,137.419,542.848,135.018Zm4.663,12.126-1.893-4.819c-0.282-.727-1.5-3.739-1.527-3.989h-0.056c-0.028.25-1.214,3.176-1.527,3.989l-1.921,4.819h6.924Zm11.556-.531-6.757-11.595h3.138l3.675,6.525a28.9,28.9,0,0,1,1.412,2.785h0.028a29.647,29.647,0,0,1,1.416-2.785l3.7-6.525h3.052l-6.754,11.6v7.972h-2.912v-7.972Zm17.888-11.595H579.1L590.354,147.7c0.338,0.366,1.809,2.174,1.951,2.455l0.056-.03c-0.056-.275-0.056-2.536-0.056-3.037V135.018h2.715v19.567h-2.178L581.59,141.9c-0.338-.36-1.81-2.174-1.949-2.449l-0.028.024c0.028,0.281.056,2.541,0.056,3.042v12.065h-2.714V135.018Zm23.22,0h10.8v2.346h-8v5.681h7.776v2.346h-7.776v6.854h8.17v2.34H600.175V135.018Zm19.551,2.371h-5.653v-2.371h14.105v2.371h-5.654v17.2h-2.8v-17.2Zm10.785-2.371h2.968l4.071,11.625c0.142,0.446,1.1,3.342,1.13,3.788h0.059a38.787,38.787,0,0,1,1.187-3.788l4.241-11.625H646.4l4.238,11.625c0.17,0.446,1.158,3.342,1.19,3.788h0.055c0.056-.446,1.016-3.342,1.159-3.788l4.043-11.625h2.853l-6.983,19.567h-2.147l-4.578-12.205a32.211,32.211,0,0,1-.964-3.177h-0.056a32.64,32.64,0,0,1-.988,3.177l-4.551,12.205h-2.15Zm30.68,9.787a10.434,10.434,0,1,1,10.431,10.171A9.994,9.994,0,0,1,661.191,144.805Zm17.978,0a7.564,7.564,0,1,0-7.575,7.691A7.338,7.338,0,0,0,679.169,144.805Zm6.911-9.787h5.738c3.705,0,6.586,1.9,6.586,5.8,0,3.042-2.035,5.045-5.031,5.522l6.079,8.247h-3.281l-5.738-7.972h-1.555v7.972h-2.8V135.018Zm5.428,9.341c2.6,0,4.071-1.369,4.071-3.512s-1.471-3.513-4.071-3.513h-2.63v7.025h2.63Zm11.113-9.341h2.8v9.09l8.2-9.09h3.392l-8.507,9.341,8.9,10.226h-3.5l-8.482-9.89v9.89h-2.8V135.018Z"/>
  </g>
</svg>
