<svg id="Layer_1" data-name="Layer 1" xmlns="http://www.w3.org/2000/svg" viewBox="0 0 385.92 125.09" height="125.09" width="385.92">
    <defs>
        <style>
            .cls-1 {
                fill: #f68b1f;
            }
            .cls-2 {
                fill: #fff45f;
            }
            .cls-3 {
                fill: #231f20;
            }
            .cls-4 {
                fill: #414042;
            }
        </style>
    </defs>
    <title>Kitsap</title><polygon
        class="cls-1 no-color-change"
        points="157.74 87.61 120.42 98.44 145.03 98.44 159.47 98.13 159 98.44 226.92 98.44 226.46 98.13 240.89 98.44 265.5 98.44 228.18 87.61 267.5 76.21 226.46 77.1 260.2 54.52 221.45 67.62 246.32 36.07 213.66 60.09 227.22 22.67 203.84 55.26 204.77 15.62 192.96 53.6 181.16 15.62 182.08 55.26 158.7 22.67 172.26 60.09 139.6 36.07 164.47 67.62 125.72 54.52 159.47 77.1 118.42 76.21 157.74 87.61"/><polygon
        class="cls-2 no-color-change"
        points="151.78 89.66 121.01 93.03 151.95 91.73 121.41 96.64 152.23 93.78 130.4 98.44 134.45 98.44 152.62 95.83 142.83 98.44 150.09 98.44 153.13 97.84 151.28 98.44 234.64 98.44 232.79 97.84 235.83 98.44 243.09 98.44 233.3 95.83 251.47 98.44 255.53 98.44 233.69 93.78 264.51 96.64 233.98 91.73 264.91 93.03 234.15 89.66 265.11 89.4 234.2 87.58 265.11 85.76 234.15 85.51 264.91 82.14 233.98 83.44 264.51 78.52 233.69 81.38 263.92 74.94 233.3 79.33 263.14 71.38 232.79 77.32 262.16 67.87 232.18 75.33 260.99 64.42 231.46 73.37 259.64 61.02 230.64 71.45 258.1 57.71 229.71 69.58 256.39 54.47 228.68 67.75 254.5 51.32 227.55 65.98 252.44 48.27 226.32 64.27 250.22 45.34 225.01 62.63 247.84 42.51 223.61 61.05 245.31 39.81 222.12 59.54 242.64 37.24 220.55 58.11 239.83 34.81 218.92 56.76 236.9 32.52 217.2 55.5 233.84 30.39 215.42 54.33 230.67 28.41 213.58 53.24 227.4 26.6 211.68 52.25 224.03 24.94 209.74 51.35 220.58 23.47 207.74 50.56 217.05 22.17 205.71 49.87 213.46 21.04 203.63 49.28 209.81 20.1 201.53 48.79 206.11 19.35 199.41 48.41 202.38 18.78 197.27 48.14 198.62 18.4 195.12 47.98 194.85 18.21 192.96 47.93 191.07 18.21 190.8 47.98 187.3 18.4 188.65 48.14 183.54 18.78 186.51 48.41 179.81 19.35 184.39 48.79 176.11 20.1 182.29 49.28 172.46 21.04 180.22 49.87 168.87 22.17 178.18 50.56 165.34 23.47 176.19 51.35 161.89 24.94 174.24 52.25 158.52 26.6 172.34 53.24 155.25 28.41 170.5 54.33 152.08 30.39 168.72 55.5 149.03 32.52 167.01 56.76 146.09 34.81 165.37 58.11 143.28 37.24 163.8 59.54 140.61 39.81 162.31 61.05 138.08 42.51 160.91 62.63 135.7 45.34 159.6 64.27 133.48 48.27 158.37 65.98 131.43 51.32 157.25 67.75 129.54 54.47 156.22 69.58 127.82 57.7 155.28 71.45 126.28 61.02 154.46 73.37 124.93 64.42 153.74 75.33 123.76 67.87 153.13 77.32 122.78 71.38 152.62 79.33 122 74.94 152.23 81.38 121.41 78.52 151.95 83.44 121.01 82.14 151.78 85.51 120.81 85.76 151.72 87.58 120.81 89.4 151.78 89.66"/><path
        class="cls-3"
        d="M219.35,77.46c0,7.35-3.63,15.54-12.19,15.54-6.33,0-12.09-3.44-12.09-8.47V66c-.09-.19.65-7.35,10.14-7.35,9.86,0,14.14,10.33,14.14,18.79m5.12-4.28c0-10.24-5.68-18.89-16.66-18.89-2.51,0-7.07.84-12.74,6.14V55c0-.93-.56-1.49-1.12-1.49-2.14,0-4,3-11.16,4.65a1,1,0,0,0-.84,1c0,2,6.33-.46,6.33,5.12v41.5c0,5.67-4.84,4.19-4.84,6.61,0,.84.56,1,1.4,1,1,0,3.72-.37,7.35-.37,6.23,0,8.47.38,9.68.38s1.77-.09,1.77-1.21c0-2.23-8.56.09-8.56-6V92.72a21.59,21.59,0,0,0,9.58,2.51c14.42,0,19.82-13.49,19.82-22"/><path
        class="cls-3"
        d="M24,59.68a1.27,1.27,0,0,1-1.51.08A2.08,2.08,0,0,1,22,58.32V37.38c0-6.61,5.4-5.68,5.4-7.72,0-.56-.28-.84-.74-.84-2.79,0-5.67.37-9.58.37-3.07,0-6-.37-9-.37-.84,0-1.21.19-1.21,1,0,2.42,7.81.19,7.81,7.91V85.39c0,7.91-6.61,6.32-6.61,7.81s1.3,1.49,2.33,1.49c1.49,0,4.1-.73,8.84-.73,7.16,0,9.11.73,9.39.73.56,0,2.51,0,2.51-.93,0-3.35-9.12,1-9.12-9.3V65c0-.65.37-.93.84-.93a2.38,2.38,0,0,1,1.68.93L50.76,92.37c.84.84,1.58,2.33,2.79,2.33,2,0,4.24-.51,6.2-.51s4.21.51,6.07.51a1.1,1.1,0,0,0,1.12-1.21c0-2.88-4.82.65-11.06-5.86L30,60.55c-.65-.74-1-1.21-1-1.77s.56-1,1.4-1.77L52.16,37.66C62.76,29,64.9,32.55,64.9,29.57c0-.65-1.12-.75-1.68-.75-3,0-3.72.37-8.56.37s-6.42-.37-9.86-.37a1.06,1.06,0,0,0-1.21,1.12c0,1.68,5.63,1.49,5.6,4.47,0,3.5-4.71,6.87-6.42,8.42L24,59.68"/><path
        class="cls-3"
        d="M74.7,86.3c0,8.46-4.09,4.93-4.09,7.25.09.93.65,1,1.39,1,1,0,3.44-.37,6.42-.37,3.81,0,6.7.37,8.65.37,1.21,0,1.77-.28,1.77-1,0-2.42-7.35-.37-7.35-5.12V55c0-.93-.56-1.49-1.12-1.49-2.14,0-4,3-10,4.65a1,1,0,0,0-.84,1c0,2,5.12-.46,5.12,5.12v22"/><path class="cls-3" d="M78.05,35.13c-1.12,0-3.91,3.91-3.91,4.93s2.79,4.84,3.91,4.84S82,41.17,82,40.06s-2.7-4.93-3.91-4.93"/><path
        class="cls-3"
        d="M130.25,77c3.72,1.77,8.47,3.26,8.47,8.19s-3.72,7.63-8.28,7.63c-10,0-9-12.28-11.07-12.28-1.4,0-1.12,3-1.12,4.56,0,7.35.25,9.27,2,7.44,1.39-1.41,3.91,2.7,10.42,2.7a12.73,12.73,0,0,0,12.56-12.75c0-6-2.42-8.84-7.72-11.07-9.77-3.91-12.19-5.86-12.19-8.93,0-3.81,2.88-6,6.51-6,8.47,0,9.3,8.09,10.24,8.09,1.39,0,1-1.12,1-3.63,0-.65.09-3.82-.47-4.56-1.12-1.39-7.54-2.14-9.12-2.14C124.76,54.29,119,58,119,65.46c0,6.61,6.24,9,11.26,11.54"/><path
        class="cls-3"
        d="M169.35,85c0,4.93-6.32,7.54-9.67,7.54-4.93,0-7.63-2-7.63-7.35,0-8.19,11.35-9.67,17.3-11V85m13.59,7.26c0-.65-.75-.65-1.21-.65s-1.21.19-1.58.19c-4.84,0-4-5.49-4-8.65V63.87c0-7.91-7.93-9.58-13.7-9.58-10.33-.28-15.54,6.23-15.63,10.51,0,1.67,2.79,3.07,4.37,3.07,1.77,0,2-.75,2-1.77s-.56-2.42-.56-3.82c0-5.12,3.63-5.58,8.09-5.58,5.77,0,8.58,3.26,8.58,8.09V72C147.58,75.6,146,81.46,146,86.39c0,6.61,4,8.84,10,8.84a22.16,22.16,0,0,0,14.23-5.4c1.21,3.07,3.63,4.75,7.26,4.75,1.3,0,5.4-.37,5.4-2.32"/><path
        class="cls-3"
        d="M113.42,54.68H100.78c-.5,0-.67-.26-.67-.69V40.86h-.79c-2.12,11.46-5.25,13.85-12.63,17.05v.73H92.3c.56,0,.77.2.77.7v25c0,7.31,2.79,10.94,9.42,10.94,8.33,0,12.6-5,12.6-6a.61.61,0,0,0-.59-.68c-1.19,0-3,3-7.76,3-4.08,0-6.63-1.7-6.63-7.31V59.22c0-.38.08-.58.65-.58h11.16a.41.41,0,0,0,.44-.27c.07-.14,1.24-3.23,1.28-3.32s.05-.37-.22-.37"/><path
        class="cls-3"
        d="M314.89,85.09c-.19,2.7-4.84,6.61-10.14,6.61-1.21,0-9.12-.65-9-10.51V57.65A2,2,0,0,0,294,55.41a15.2,15.2,0,0,0-3.35.46,17.48,17.48,0,0,1-5,.56c-.46,0-1.68.09-1.68.84,0,2.23,4.93,0,4.93,3.54V82.49c0,7.91,6.14,12.47,13.58,12.47a14.42,14.42,0,0,0,12.37-6.51h.18v5.12c0,.37.09,1.4.84,1.4a10.13,10.13,0,0,0,3.16-.56,25.07,25.07,0,0,1,5-.47c1.49,0,3.44-.09,3.44-.84,0-2-5.86-.83-5.86-3.25V57.65A2,2,0,0,0,320,55.41a15.15,15.15,0,0,0-3.35.46,17.52,17.52,0,0,1-5,.56c-.47,0-1.68.09-1.68.84,0,2.23,4.93,0,4.93,3.54V85.09"/><path
        class="cls-3"
        d="M343.16,65.37c-.09-1.49,3.16-7.26,11-7.26,7.54,0,10.88,7,10.88,11.63v17.4c0,6-4,4.19-4,6,0,.93.46,1.12,1.68,1.12s3.16-.37,6.7-.37c4.56,0,6.88.37,8.09.37.93,0,1.58-.19,1.58-1.3,0-2.51-7.26.19-7.26-6.23V71.42c0-7.07-2.7-17.4-15.17-17.4-9,0-13.68,8-13.49,6.88V54.76c0-.93-.56-1.49-1.12-1.49-2.14,0-4,3-11.72,4.65a1,1,0,0,0-.84,1c0,2,6.88-.46,6.88,5.12V87.14c0,6-5.49,4.19-5.49,6,0,.93.46,1.12,1.67,1.12s3-.37,7.91-.37c5.4,0,7.25.37,8.84.37,1.39,0,2-.19,2-1.3,0-2.51-8.19.19-8.19-6.23V65.37"/><path
        class="cls-3"
        d="M239.66,92.51c0,1.33.67,2.09,1.33,2.09,2.28,0,1.62-3.42,4.28-3.42,2,0,7.33,4,16.16,4,8.64,0,21.27-5,21.21-19.48-.09-22-34.9-16.23-34.9-35.17a10.8,10.8,0,0,1,10.83-11.08c9.12,0,14.91,5.79,18.81,18.33,1.23,4,1.33,4.65,2.37,4.65s1.14-.85,1.14-1.61,0-1.9-1.71-21c-.09-1-.48-1.71-1.33-1.71-2.09,0-.76,3.23-3.61,3.23-1.81,0-7.13-3.61-15.87-3.61-9.5,0-17.83,6.75-17.83,16.34,0,21.93,35.31,12.6,35.31,35.53,0,8.36-6.46,13.3-15,13.3-7,0-14.07-4.18-17.4-19.95-1.14-5.42-1-7.22-2.57-7.22-1.24,0-1.24,1-1.24,2.47V92.51"/><path class="cls-4" d="M214.72,105.56h2a2.16,2.16,0,1,1,0,4.31h-1v2.69h-1Zm1.92,3.48a1.33,1.33,0,1,0,0-2.65h-.93V109Z"/><path class="cls-4" d="M221.92,105.56h.88l2.87,7h-1.06l-.72-1.83h-3.1l-.72,1.83h-1Zm1.65,4.34-.67-1.73c-.1-.26-.53-1.34-.54-1.43h0c0,.09-.43,1.14-.54,1.43l-.68,1.73Z"/><path class="cls-4" d="M226.68,105.56h2a2.05,2.05,0,0,1,2.32,2.07,1.94,1.94,0,0,1-1.78,2l2.14,3h-1.16l-2-2.85h-.55v2.85h-1Zm1.92,3.34c.92,0,1.44-.49,1.44-1.26s-.52-1.26-1.44-1.26h-.93v2.51Z"/><path class="cls-4" d="M233.76,106.41h-2v-.85h5v.85h-2v6.15h-1Z"/><path class="cls-4" d="M239.3,109.06A3.68,3.68,0,1,1,243,112.7,3.55,3.55,0,0,1,239.3,109.06Zm6.34,0a2.67,2.67,0,1,0-2.67,2.75A2.61,2.61,0,0,0,245.65,109.06Z"/><path class="cls-4" d="M248.09,105.56h3.53v.85h-2.54v2.25h2.46v.85h-2.46v3.05h-1Z"/><path class="cls-4" d="M256.08,106.41h-2v-.85h5v.85h-2v6.15h-1Z"/><path class="cls-4" d="M260.1,105.56h1v2.87h3.67v-2.87h1v7h-1v-3.28h-3.67v3.28h-1Z"/><path class="cls-4" d="M267.57,105.56h3.81v.84h-2.82v2h2.74v.84h-2.74v2.45h2.88v.84h-3.87Z"/><path class="cls-4" d="M274.75,110.15v-4.59h1v4.29c0,1.22.52,2,1.69,2s1.7-.75,1.7-2v-4.29h1v4.59a2.69,2.69,0,0,1-5.38,0Z"/><path
        class="cls-4"
        d="M281.15,111.3l.67-.57a2,2,0,0,0,1.76,1.11,1.21,1.21,0,0,0,1.37-1.19c0-.83-.69-1.11-1.55-1.45s-1.77-.79-1.77-1.91a1.91,1.91,0,0,1,2.12-1.87,2.35,2.35,0,0,1,2.06,1.06l-.67.57a1.59,1.59,0,0,0-1.39-.76c-.68,0-1.13.35-1.13.94s.7,1,1.31,1.21c1,.39,2,.86,2,2.14a2.12,2.12,0,0,1-2.33,2.13A2.72,2.72,0,0,1,281.15,111.3Z"/><path class="cls-4" d="M289.34,105.56h.88l2.87,7H292l-.72-1.83h-3.1l-.72,1.83h-1ZM291,109.9l-.67-1.73c-.1-.26-.53-1.34-.54-1.43h0c0,.09-.43,1.14-.54,1.43l-.68,1.73Z"/><path class="cls-4" d="M297.26,106.41h-2v-.85h5v.85h-2v6.15h-1Z"/><path class="cls-4" d="M300.61,109.06a3.68,3.68,0,1,1,3.68,3.64A3.55,3.55,0,0,1,300.61,109.06Zm6.34,0a2.67,2.67,0,1,0-2.67,2.75A2.61,2.61,0,0,0,307,109.06Z"/><path class="cls-4" d="M309.4,105.56h2c2.23,0,3.71,1.28,3.71,3.5s-1.49,3.5-3.71,3.5h-2Zm1,6.15h.92a2.66,2.66,0,1,0,0-5.31h-.92Z"/><path class="cls-4" d="M318.3,105.56h.88l2.87,7H321l-.72-1.83h-3.1l-.72,1.83h-1Zm1.65,4.34-.67-1.73c-.1-.26-.53-1.34-.54-1.43h0c0,.09-.43,1.14-.54,1.43l-.68,1.73Z"/><path class="cls-4" d="M324,109.71l-2.38-4.15h1.11l1.3,2.33a10.34,10.34,0,0,1,.5,1h0a10.61,10.61,0,0,1,.5-1l1.31-2.33h1.08L325,109.71v2.85h-1Z"/><path class="cls-4" d="M330.33,105.56h.76l4,4.54c.12.13.64.78.69.88h0c0-.1,0-.91,0-1.09v-4.32h1v7h-.77L332,108c-.12-.13-.64-.78-.69-.88h0c0,.1,0,.91,0,1.09v4.32h-1Z"/><path class="cls-4" d="M338.53,105.56h3.81v.84h-2.82v2h2.74v.84h-2.74v2.45h2.88v.84h-3.87Z"/><path class="cls-4" d="M345.43,106.41h-2v-.85h5v.85h-2v6.15h-1Z"/><path
        class="cls-4"
        d="M349.23,105.56h1l1.44,4.16c.05.16.39,1.2.4,1.36h0a14,14,0,0,1,.42-1.36l1.5-4.16h.79l1.5,4.16c.06.16.41,1.2.42,1.36h0c0-.16.36-1.2.41-1.36l1.43-4.16h1l-2.46,7h-.76l-1.62-4.37a11.68,11.68,0,0,1-.34-1.14h0a11.74,11.74,0,0,1-.35,1.14l-1.61,4.37h-.76Z"/><path class="cls-4" d="M360.06,109.06a3.68,3.68,0,1,1,3.68,3.64A3.55,3.55,0,0,1,360.06,109.06Zm6.34,0a2.67,2.67,0,1,0-2.67,2.75A2.61,2.61,0,0,0,366.4,109.06Z"/><path class="cls-4" d="M368.84,105.56h2a2.05,2.05,0,0,1,2.32,2.07,1.94,1.94,0,0,1-1.78,2l2.14,3H372.4l-2-2.85h-.55v2.85h-1Zm1.92,3.34c.92,0,1.44-.49,1.44-1.26s-.52-1.26-1.44-1.26h-.93v2.51Z"/><path class="cls-4" d="M374.68,105.56h1v3.25l2.89-3.25h1.2l-3,3.34,3.14,3.66h-1.24l-3-3.54v3.54h-1Z"/></svg>
