<svg xmlns="http://www.w3.org/2000/svg" width="286" height="46" viewBox="0 0 286 46">
  <g fill="none" fill-rule="evenodd">
    <path fill="#FFFFFF" d="M4.85 42.939L5.871 42.939C6.207 42.939 6.472 42.856 6.667 42.691 6.863 42.526 6.96 42.3 6.96 42.015 6.96 41.729 6.863 41.504 6.667 41.339 6.472 41.173 6.207 41.091 5.871 41.091L4.85 41.091 4.85 42.939zM4.091 45.56L4.091 40.452 5.871 40.452C6.442 40.452 6.895 40.593 7.231 40.873 7.566 41.154 7.734 41.534 7.734 42.015 7.734 42.491 7.566 42.867 7.231 43.146 6.895 43.423 6.442 43.562 5.871 43.562L4.85 43.562 4.85 45.56 4.091 45.56zM9.266 43.637L11.129 43.637 10.198 41.241 9.266 43.637zM11.873 45.56L11.377 44.276 9.019 44.276 8.523 45.56 7.757 45.56 9.8 40.452 10.618 40.452 12.654 45.56 11.873 45.56zM14.262 42.863L15.306 42.863C15.631 42.863 15.891 42.784 16.083 42.623 16.276 42.463 16.373 42.248 16.373 41.977 16.373 41.707 16.276 41.492 16.083 41.331 15.891 41.171 15.631 41.091 15.306 41.091L14.262 41.091 14.262 42.863zM14.262 43.487L14.262 45.56 13.503 45.56 13.503 40.452 15.306 40.452C15.872 40.452 16.32 40.589 16.651 40.861 16.981 41.135 17.146 41.507 17.146 41.977 17.146 42.333 17.046 42.633 16.846 42.879 16.646 43.124 16.37 43.297 16.02 43.397L17.259 45.56 16.395 45.56 15.231 43.487 14.262 43.487z"/>
    <polyline fill="#FFFFFF" points="19.325 45.56 19.325 41.091 17.604 41.091 17.604 40.452 21.804 40.452 21.804 41.091 20.084 41.091 20.084 45.56 19.325 45.56"/>
    <path fill="#FFFFFF" d="M26.679,44.982 C27.009,44.982 27.304,44.898 27.562,44.731 C27.819,44.563 28.021,44.331 28.166,44.035 C28.311,43.74 28.384,43.397 28.384,43.006 C28.384,42.616 28.311,42.273 28.166,41.977 C28.021,41.682 27.819,41.45 27.562,41.282 C27.304,41.115 27.009,41.031 26.679,41.031 C26.348,41.031 26.055,41.115 25.8,41.282 C25.545,41.45 25.344,41.682 25.199,41.977 C25.054,42.273 24.981,42.616 24.981,43.006 C24.981,43.397 25.054,43.74 25.199,44.035 C25.344,44.331 25.545,44.563 25.8,44.731 C26.055,44.898 26.348,44.982 26.679,44.982 Z M26.679,45.643 C26.198,45.643 25.772,45.53 25.402,45.305 C25.031,45.08 24.74,44.769 24.527,44.373 C24.314,43.978 24.207,43.522 24.207,43.006 C24.207,42.491 24.314,42.035 24.527,41.639 C24.74,41.243 25.031,40.933 25.402,40.708 C25.772,40.482 26.198,40.37 26.679,40.37 C27.16,40.37 27.586,40.482 27.96,40.708 C28.333,40.933 28.626,41.243 28.839,41.639 C29.051,42.035 29.158,42.491 29.158,43.006 C29.158,43.522 29.051,43.978 28.839,44.373 C28.626,44.769 28.333,45.08 27.96,45.305 C27.586,45.53 27.16,45.643 26.679,45.643 Z"/>
    <polyline fill="#FFFFFF" points="30.983 45.56 30.225 45.56 30.225 40.452 33.402 40.452 33.402 41.091 30.983 41.091 30.983 42.819 33.034 42.819 33.034 43.457 30.983 43.457 30.983 45.56"/>
    <polyline fill="#FFFFFF" points="37.361 45.56 37.361 41.091 35.64 41.091 35.64 40.452 39.84 40.452 39.84 41.091 38.119 41.091 38.119 45.56 37.361 45.56"/>
    <polyline fill="#FFFFFF" points="40.711 45.56 40.711 40.452 41.47 40.452 41.47 42.638 44.106 42.638 44.106 40.452 44.865 40.452 44.865 45.56 44.106 45.56 44.106 43.292 41.47 43.292 41.47 45.56 40.711 45.56"/>
    <polyline fill="#FFFFFF" points="46.202 45.56 46.202 40.452 49.477 40.452 49.477 41.091 46.961 41.091 46.961 42.668 49.177 42.668 49.177 43.307 46.961 43.307 46.961 44.922 49.537 44.922 49.537 45.56 46.202 45.56"/>
    <path fill="#FFFFFF" d="M54.33 44.982C54.745 44.982 55.072 44.857 55.31 44.607 55.548 44.356 55.667 44.018 55.667 43.592L55.667 40.452 56.425 40.452 56.425 43.6C56.425 44.236 56.239 44.735 55.866 45.098 55.493 45.461 54.981 45.643 54.33 45.643 53.679 45.643 53.168 45.461 52.797 45.098 52.427 44.735 52.241 44.236 52.241 43.6L52.241 40.452 53 40.452 53 43.592C53 44.018 53.119 44.356 53.357 44.607 53.595 44.857 53.919 44.982 54.33 44.982M59.258 45.643C58.872 45.643 58.504 45.575 58.153 45.44 57.803 45.305 57.52 45.125 57.304 44.9L57.733 44.396C57.933 44.582 58.169 44.727 58.443 44.832 58.715 44.937 58.987 44.989 59.258 44.989 59.588 44.989 59.855 44.926 60.058 44.798 60.26 44.67 60.362 44.493 60.362 44.268 60.362 44.063 60.289 43.89 60.144 43.75 59.999 43.61 59.751 43.492 59.4 43.397L58.694 43.209C58.238 43.089 57.906 42.919 57.699 42.698 57.491 42.478 57.387 42.19 57.387 41.835 57.387 41.544 57.465 41.288 57.62 41.068 57.775 40.848 57.989 40.677 58.262 40.554 58.535 40.431 58.844 40.37 59.19 40.37 59.555 40.37 59.899 40.438 60.219 40.576 60.539 40.714 60.822 40.906 61.068 41.151L60.61 41.647C60.394 41.447 60.17 41.292 59.937 41.185 59.705 41.077 59.458 41.023 59.197 41.023 58.882 41.023 58.624 41.09 58.424 41.222 58.223 41.355 58.123 41.539 58.123 41.774 58.123 41.99 58.194 42.157 58.337 42.278 58.48 42.398 58.699 42.498 58.995 42.578L59.783 42.796C60.239 42.921 60.572 43.096 60.782 43.322 60.993 43.547 61.098 43.828 61.098 44.163 61.098 44.459 61.02 44.718 60.865 44.941 60.71 45.164 60.494 45.336 60.219 45.459 59.943 45.582 59.623 45.643 59.258 45.643M63.006 43.637L64.869 43.637 63.937 41.241 63.006 43.637zM65.613 45.56L65.117 44.276 62.758 44.276 62.262 45.56 61.496 45.56 63.539 40.452 64.358 40.452 66.394 45.56 65.613 45.56z"/>
    <polyline fill="#FFFFFF" points="69.924 45.56 69.924 41.091 68.204 41.091 68.204 40.452 72.403 40.452 72.403 41.091 70.683 41.091 70.683 45.56 69.924 45.56"/>
    <path fill="#FFFFFF" d="M75.138 44.982C75.468 44.982 75.762 44.898 76.02 44.731 76.278 44.563 76.48 44.331 76.625 44.035 76.77 43.74 76.843 43.397 76.843 43.006 76.843 42.616 76.77 42.273 76.625 41.977 76.48 41.682 76.278 41.45 76.02 41.282 75.762 41.115 75.468 41.031 75.138 41.031 74.807 41.031 74.514 41.115 74.259 41.282 74.003 41.45 73.803 41.682 73.658 41.977 73.512 42.273 73.44 42.616 73.44 43.006 73.44 43.397 73.512 43.74 73.658 44.035 73.803 44.331 74.003 44.563 74.259 44.731 74.514 44.898 74.807 44.982 75.138 44.982zM75.138 45.643C74.657 45.643 74.231 45.53 73.86 45.305 73.49 45.08 73.198 44.769 72.985 44.373 72.773 43.978 72.666 43.522 72.666 43.006 72.666 42.491 72.773 42.035 72.985 41.639 73.198 41.243 73.49 40.933 73.86 40.708 74.231 40.482 74.657 40.37 75.138 40.37 75.618 40.37 76.045 40.482 76.418 40.708 76.791 40.933 77.084 41.243 77.297 41.639 77.51 42.035 77.616 42.491 77.616 43.006 77.616 43.522 77.51 43.978 77.297 44.373 77.084 44.769 76.791 45.08 76.418 45.305 76.045 45.53 75.618 45.643 75.138 45.643zM79.442 44.922L80.478 44.922C80.839 44.922 81.148 44.843 81.406 44.685 81.664 44.528 81.862 44.306 82 44.021 82.137 43.735 82.206 43.397 82.206 43.006 82.206 42.616 82.137 42.278 82 41.992 81.862 41.707 81.664 41.485 81.406 41.327 81.148 41.17 80.839 41.091 80.478 41.091L79.442 41.091 79.442 44.922zM78.683 45.56L78.683 40.452 80.478 40.452C80.979 40.452 81.417 40.559 81.793 40.772 82.169 40.985 82.46 41.282 82.668 41.666 82.876 42.048 82.98 42.496 82.98 43.006 82.98 43.517 82.876 43.964 82.668 44.347 82.46 44.731 82.169 45.028 81.793 45.241 81.417 45.454 80.979 45.56 80.478 45.56L78.683 45.56zM84.918 43.637L86.781 43.637 85.849 41.241 84.918 43.637zM87.525 45.56L87.029 44.276 84.67 44.276 84.174 45.56 83.408 45.56 85.451 40.452 86.27 40.452 88.306 45.56 87.525 45.56z"/>
    <polyline fill="#FFFFFF" points="90.635 43.532 90.635 45.56 89.876 45.56 89.876 43.532 88.08 40.452 88.974 40.452 90.259 42.811 91.544 40.452 92.422 40.452 90.635 43.532"/>
    <polyline fill="#FFFFFF" points="98.492 45.56 95.765 41.647 95.765 45.56 95.051 45.56 95.051 40.452 95.758 40.452 98.492 44.366 98.492 40.452 99.198 40.452 99.198 45.56 98.492 45.56"/>
    <polyline fill="#FFFFFF" points="100.535 45.56 100.535 40.452 103.81 40.452 103.81 41.091 101.294 41.091 101.294 42.668 103.51 42.668 103.51 43.307 101.294 43.307 101.294 44.922 103.87 44.922 103.87 45.56 100.535 45.56"/>
    <polyline fill="#FFFFFF" points="106.124 45.56 106.124 41.091 104.404 41.091 104.404 40.452 108.603 40.452 108.603 41.091 106.883 41.091 106.883 45.56 106.124 45.56"/>
    <polyline fill="#FFFFFF" points="113.56 45.56 112.366 41.489 111.172 45.56 110.383 45.56 109.023 40.452 109.775 40.452 110.811 44.493 112.006 40.452 112.727 40.452 113.929 44.509 114.973 40.452 115.709 40.452 114.349 45.56 113.56 45.56"/>
    <path fill="#FFFFFF" d="M118.721 44.982C119.052 44.982 119.346 44.898 119.604 44.731 119.862 44.563 120.064 44.331 120.209 44.035 120.354 43.74 120.427 43.397 120.427 43.006 120.427 42.616 120.354 42.273 120.209 41.977 120.064 41.682 119.862 41.45 119.604 41.282 119.346 41.115 119.052 41.031 118.721 41.031 118.391 41.031 118.098 41.115 117.843 41.282 117.587 41.45 117.387 41.682 117.242 41.977 117.096 42.273 117.024 42.616 117.024 43.006 117.024 43.397 117.096 43.74 117.242 44.035 117.387 44.331 117.587 44.563 117.843 44.731 118.098 44.898 118.391 44.982 118.721 44.982zM118.721 45.643C118.241 45.643 117.815 45.53 117.444 45.305 117.074 45.08 116.782 44.769 116.569 44.373 116.356 43.978 116.25 43.522 116.25 43.006 116.25 42.491 116.356 42.035 116.569 41.639 116.782 41.243 117.074 40.933 117.444 40.708 117.815 40.482 118.241 40.37 118.721 40.37 119.202 40.37 119.629 40.482 120.002 40.708 120.375 40.933 120.668 41.243 120.881 41.639 121.094 42.035 121.2 42.491 121.2 43.006 121.2 43.522 121.094 43.978 120.881 44.373 120.668 44.769 120.375 45.08 120.002 45.305 119.629 45.53 119.202 45.643 118.721 45.643zM123.026 42.863L124.07 42.863C124.395 42.863 124.654 42.784 124.847 42.623 125.04 42.463 125.136 42.248 125.136 41.977 125.136 41.707 125.04 41.492 124.847 41.331 124.654 41.171 124.395 41.091 124.07 41.091L123.026 41.091 123.026 42.863zM123.026 43.487L123.026 45.56 122.267 45.56 122.267 40.452 124.07 40.452C124.636 40.452 125.084 40.589 125.414 40.861 125.745 41.135 125.91 41.507 125.91 41.977 125.91 42.333 125.81 42.633 125.61 42.879 125.409 43.124 125.134 43.297 124.783 43.397L126.023 45.56 125.159 45.56 123.995 43.487 123.026 43.487z"/>
    <polyline fill="#FFFFFF" points="130.034 45.56 127.743 42.984 127.743 45.56 126.984 45.56 126.984 40.452 127.743 40.452 127.743 42.691 129.884 40.452 130.823 40.452 128.547 42.796 130.988 45.56 130.034 45.56"/>
    <path fill="#FFFFFF" d="M17.906,17.398 L11.92,17.398 L11.92,34.452 L4.09,34.452 L4.09,17.398 L0.355,17.398 L0.355,11.548 L4.09,11.548 L4.09,9.883 C4.09,7.243 4.87,5.113 6.43,3.493 C7.99,1.872 10.195,1.063 13.045,1.063 C14.125,1.063 15.22,1.198 16.331,1.468 C17.44,1.738 18.61,2.263 19.84,3.043 L17.186,7.858 C16.825,7.648 16.42,7.468 15.97,7.318 C15.521,7.168 15.025,7.093 14.486,7.093 C13.765,7.093 13.158,7.318 12.663,7.768 C12.168,8.218 11.92,8.923 11.92,9.883 L11.92,11.548 L17.906,11.548 L17.906,17.398"/>
    <polygon fill="#FFFFFF" points="22.225 34.453 30.055 34.453 30.055 1.603 22.225 1.603"/>
    <path fill="#FFFFFF" d="M46.659 28.827C48.039 28.827 49.141 28.295 49.967 27.23 50.791 26.165 51.204 24.748 51.204 22.978 51.204 21.208 50.791 19.798 49.967 18.747 49.141 17.698 48.039 17.173 46.659 17.173 45.279 17.173 44.177 17.698 43.352 18.747 42.526 19.798 42.114 21.208 42.114 22.978 42.114 24.748 42.526 26.165 43.352 27.23 44.177 28.295 45.279 28.827 46.659 28.827zM46.659 35.037C44.199 35.037 42.031 34.52 40.157 33.485 38.281 32.451 36.811 31.033 35.747 29.233 34.682 27.433 34.149 25.348 34.149 22.978 34.149 20.608 34.682 18.523 35.747 16.723 36.811 14.923 38.281 13.513 40.157 12.493 42.031 11.473 44.199 10.963 46.659 10.963 49.119 10.963 51.287 11.473 53.162 12.493 55.036 13.513 56.507 14.923 57.572 16.723 58.636 18.523 59.169 20.608 59.169 22.978 59.169 25.348 58.636 27.433 57.572 29.233 56.507 31.033 55.036 32.451 53.162 33.485 51.287 34.52 49.119 35.037 46.659 35.037zM71.094 25.588L71.094 34.452 63.264 34.452 63.264 11.548 70.419 11.548 70.914 15.372C71.394 14.143 72.181 13.145 73.277 12.38 74.372 11.616 75.639 11.233 77.079 11.233 77.889 11.233 78.504 11.338 78.924 11.548L78.924 18.702C78.594 18.583 78.227 18.493 77.822 18.433 77.417 18.373 76.959 18.343 76.449 18.343 74.889 18.343 73.606 18.921 72.602 20.075 71.596 21.231 71.094 23.068 71.094 25.588M82.704 34.452L82.704 11.548C83.964 11.818 85.239 11.952 86.529 11.952 87.849 11.952 89.184 11.818 90.534 11.548L90.534 34.452 82.704 34.452M107.138 28.827C108.488 28.827 109.575 28.295 110.401 27.23 111.226 26.165 111.638 24.748 111.638 22.978 111.638 21.208 111.226 19.79 110.401 18.725 109.575 17.66 108.488 17.128 107.138 17.128 105.758 17.128 104.655 17.66 103.831 18.725 103.005 19.79 102.593 21.208 102.593 22.978 102.593 24.748 103.005 26.165 103.831 27.23 104.655 28.295 105.758 28.827 107.138 28.827zM112.178 34.452L111.773 31.438C111.053 32.548 110.123 33.425 108.983 34.07 107.843 34.715 106.523 35.037 105.023 35.037 102.953 35.037 101.138 34.527 99.578 33.508 98.018 32.488 96.803 31.071 95.933 29.255 95.063 27.441 94.628 25.348 94.628 22.978 94.628 20.608 95.063 18.523 95.933 16.723 96.803 14.923 97.996 13.513 99.511 12.493 101.025 11.473 102.773 10.963 104.753 10.963 106.133 10.963 107.408 11.255 108.578 11.84 109.748 12.425 110.723 13.213 111.503 14.202L111.503 1.603 119.333 1.603 119.333 34.452 112.178 34.452zM130.988 27.028C130.988 27.718 131.243 28.281 131.753 28.715 132.263 29.151 132.923 29.368 133.733 29.368 134.813 29.368 135.72 29 136.456 28.265 137.191 27.531 137.558 26.608 137.558 25.497L137.558 24.733C136.748 24.583 135.893 24.508 134.993 24.508 133.853 24.508 132.901 24.703 132.136 25.093 131.371 25.483 130.988 26.128 130.988 27.028zM137.873 34.452L137.468 31.438C135.968 33.838 133.688 35.037 130.628 35.037 129.278 35.037 128.056 34.745 126.961 34.161 125.865 33.576 124.996 32.773 124.351 31.753 123.705 30.733 123.383 29.548 123.383 28.198 123.383 25.648 124.38 23.668 126.376 22.258 128.371 20.848 131.003 20.143 134.273 20.143 135.293 20.143 136.373 20.233 137.513 20.412 137.393 19.273 136.906 18.41 136.051 17.826 135.196 17.241 134.153 16.948 132.923 16.948 131.843 16.948 130.756 17.15 129.661 17.555 128.565 17.96 127.523 18.448 126.533 19.018L123.878 13.978C125.378 13.018 126.998 12.276 128.738 11.75 130.478 11.226 132.218 10.963 133.958 10.963 136.058 10.963 137.948 11.323 139.628 12.043 141.308 12.763 142.628 13.858 143.588 15.327 144.548 16.798 145.028 18.657 145.028 20.907L145.028 34.452 137.873 34.452z"/>
    <path class="no-color-change" fill="#009BFF" d="M177.698 32.968C176.768 33.598 175.702 34.1 174.503 34.475 173.303 34.85 172.043 35.037 170.723 35.037 168.263 35.037 166.305 34.326 164.85 32.9 163.395 31.476 162.668 29.563 162.668 27.162L162.668 17.398 158.933 17.398 158.933 11.548 163.028 11.548 164.018 5.158 170.498 5.158 170.498 11.548 176.483 11.548 176.483 17.398 170.498 17.398 170.498 26.173C170.498 26.953 170.73 27.561 171.195 27.995 171.66 28.431 172.282 28.648 173.063 28.648 173.452 28.648 173.85 28.573 174.255 28.423 174.66 28.273 175.043 28.093 175.403 27.883L177.698 32.968M191.872 28.827C193.252 28.827 194.354 28.295 195.18 27.23 196.005 26.165 196.417 24.748 196.417 22.978 196.417 21.208 196.005 19.798 195.18 18.747 194.354 17.698 193.252 17.173 191.872 17.173 190.492 17.173 189.39 17.698 188.565 18.747 187.739 19.798 187.327 21.208 187.327 22.978 187.327 24.748 187.739 26.165 188.565 27.23 189.39 28.295 190.492 28.827 191.872 28.827zM191.872 35.037C189.412 35.037 187.244 34.52 185.37 33.485 183.495 32.451 182.024 31.033 180.96 29.233 179.895 27.433 179.362 25.348 179.362 22.978 179.362 20.608 179.895 18.523 180.96 16.723 182.024 14.923 183.495 13.513 185.37 12.493 187.244 11.473 189.412 10.963 191.872 10.963 194.332 10.963 196.5 11.473 198.375 12.493 200.249 13.513 201.72 14.923 202.785 16.723 203.849 18.523 204.383 20.608 204.383 22.978 204.383 25.348 203.849 27.433 202.785 29.233 201.72 31.033 200.249 32.451 198.375 33.485 196.5 34.52 194.332 35.037 191.872 35.037zM219.592 28.827C220.942 28.827 222.029 28.295 222.855 27.23 223.68 26.165 224.092 24.748 224.092 22.978 224.092 21.208 223.68 19.79 222.855 18.725 222.029 17.66 220.942 17.128 219.592 17.128 218.212 17.128 217.109 17.66 216.285 18.725 215.459 19.79 215.047 21.208 215.047 22.978 215.047 24.748 215.459 26.165 216.285 27.23 217.109 28.295 218.212 28.827 219.592 28.827zM224.632 34.452L224.227 31.438C223.507 32.548 222.577 33.425 221.437 34.07 220.297 34.715 218.977 35.037 217.477 35.037 215.407 35.037 213.592 34.527 212.032 33.508 210.472 32.488 209.257 31.071 208.387 29.255 207.517 27.441 207.082 25.348 207.082 22.978 207.082 20.608 207.517 18.523 208.387 16.723 209.257 14.923 210.45 13.513 211.965 12.493 213.479 11.473 215.227 10.963 217.207 10.963 218.587 10.963 219.862 11.255 221.032 11.84 222.202 12.425 223.177 13.213 223.957 14.202L223.957 1.603 231.787 1.603 231.787 34.452 224.632 34.452zM243.442 27.028C243.442 27.718 243.697 28.281 244.207 28.715 244.717 29.151 245.377 29.368 246.187 29.368 247.268 29.368 248.174 29 248.91 28.265 249.644 27.531 250.012 26.608 250.012 25.497L250.012 24.733C249.202 24.583 248.347 24.508 247.447 24.508 246.307 24.508 245.355 24.703 244.59 25.093 243.825 25.483 243.442 26.128 243.442 27.028zM250.327 34.452L249.922 31.438C248.422 33.838 246.143 35.037 243.082 35.037 241.732 35.037 240.51 34.745 239.415 34.161 238.319 33.576 237.45 32.773 236.805 31.753 236.159 30.733 235.837 29.548 235.837 28.198 235.837 25.648 236.834 23.668 238.83 22.258 240.825 20.848 243.457 20.143 246.727 20.143 247.747 20.143 248.827 20.233 249.967 20.412 249.847 19.273 249.36 18.41 248.505 17.826 247.65 17.241 246.607 16.948 245.377 16.948 244.297 16.948 243.209 17.15 242.115 17.555 241.019 17.96 239.977 18.448 238.987 19.018L236.332 13.978C237.832 13.018 239.452 12.276 241.192 11.75 242.932 11.226 244.672 10.963 246.412 10.963 248.512 10.963 250.402 11.323 252.082 12.043 253.762 12.763 255.082 13.858 256.042 15.327 257.002 16.798 257.482 18.657 257.482 20.907L257.482 34.452 250.327 34.452zM277.687 32.653C276.307 36.192 274.732 38.832 272.962 40.573 271.192 42.312 268.942 43.183 266.212 43.183 264.982 43.183 263.872 43.048 262.882 42.778 261.892 42.508 261.052 42.177 260.362 41.787L262.567 36.388C262.987 36.597 263.452 36.777 263.962 36.928 264.472 37.077 265.012 37.153 265.582 37.153 266.392 37.153 267.119 36.957 267.765 36.568 268.41 36.177 268.972 35.472 269.452 34.452L269.812 33.643 259.462 11.548 268.102 11.548 273.187 25.273 277.372 11.548 285.877 11.548 277.687 32.653M86.529 9.747C85.239 9.747 84.136 9.29 83.221 8.375 82.306 7.46 81.849 6.357 81.849 5.067 81.849 3.778 82.306 2.675 83.221 1.76 84.136.845 85.239.388 86.529.388 87.818.388 88.921.845 89.836 1.76 90.751 2.675 91.209 3.778 91.209 5.067 91.209 6.357 90.751 7.46 89.836 8.375 88.921 9.29 87.818 9.747 86.529 9.747"/>
  </g>
</svg>
