<?xml version="1.0" encoding="UTF-8"?>
<svg width="286px" height="44px" viewBox="0 0 286 44" version="1.1" xmlns="http://www.w3.org/2000/svg" xmlns:xlink="http://www.w3.org/1999/xlink">
    <!-- Generator: Sketch 47.1 (45422) - http://www.bohemiancoding.com/sketch -->
    <title>FL_Brevard_Logo_Prm-nEds_KOR_CMYK</title>
    <desc>Created with Sketch.</desc>
    <defs></defs>
    <g id="Page-1" stroke="none" stroke-width="1" fill="none" fill-rule="evenodd">
        <g id="FL_Brevard_Logo_Prm-nEds_KOR_CMYK" transform="translate(0.000000, -68.000000)">
            <path d="M17.906,85.86 L11.92,85.86 L11.92,102.914 L4.09,102.914 L4.09,85.86 L0.355,85.86 L0.355,80.01 L4.09,80.01 L4.09,78.344 C4.09,75.705 4.87,73.575 6.43,71.954 C7.99,70.334 10.195,69.525 13.045,69.525 C14.125,69.525 15.22,69.66 16.331,69.93 C17.44,70.2 18.61,70.725 19.84,71.505 L17.186,76.32 C16.825,76.11 16.42,75.93 15.97,75.78 C15.521,75.63 15.025,75.555 14.486,75.555 C13.765,75.555 13.158,75.78 12.663,76.23 C12.168,76.68 11.92,77.385 11.92,78.344 L11.92,80.01 L17.906,80.01 L17.906,85.86" id="Fill-1" fill="#FFFFFE"></path>
            <polygon id="Fill-2" fill="#FFFFFE" points="22.225 102.915 30.055 102.915 30.055 70.065 22.225 70.065"></polygon>
            <path d="M46.659,97.289 C48.039,97.289 49.141,96.757 49.967,95.692 C50.791,94.627 51.204,93.21 51.204,91.44 C51.204,89.67 50.791,88.26 49.967,87.209 C49.141,86.16 48.039,85.635 46.659,85.635 C45.279,85.635 44.177,86.16 43.352,87.209 C42.526,88.26 42.114,89.67 42.114,91.44 C42.114,93.21 42.526,94.627 43.352,95.692 C44.177,96.757 45.279,97.289 46.659,97.289 Z M46.659,103.499 C44.199,103.499 42.031,102.982 40.157,101.947 C38.281,100.912 36.811,99.495 35.747,97.695 C34.682,95.895 34.149,93.81 34.149,91.44 C34.149,89.07 34.682,86.985 35.747,85.185 C36.811,83.385 38.281,81.975 40.157,80.954 C42.031,79.935 44.199,79.425 46.659,79.425 C49.119,79.425 51.287,79.935 53.162,80.954 C55.036,81.975 56.507,83.385 57.572,85.185 C58.636,86.985 59.169,89.07 59.169,91.44 C59.169,93.81 58.636,95.895 57.572,97.695 C56.507,99.495 55.036,100.912 53.162,101.947 C51.287,102.982 49.119,103.499 46.659,103.499 L46.659,103.499 Z" id="Fill-3" fill="#FFFFFE"></path>
            <path d="M71.094,94.05 L71.094,102.914 L63.264,102.914 L63.264,80.01 L70.419,80.01 L70.914,83.834 C71.394,82.605 72.181,81.607 73.277,80.842 C74.372,80.077 75.639,79.695 77.079,79.695 C77.889,79.695 78.504,79.8 78.924,80.01 L78.924,87.164 C78.594,87.045 78.227,86.955 77.822,86.895 C77.417,86.835 76.959,86.805 76.449,86.805 C74.889,86.805 73.606,87.383 72.602,88.537 C71.596,89.693 71.094,91.53 71.094,94.05" id="Fill-4" fill="#FFFFFE"></path>
            <path d="M82.704,102.914 L82.704,80.01 C83.964,80.28 85.239,80.414 86.529,80.414 C87.849,80.414 89.184,80.28 90.534,80.01 L90.534,102.914 L82.704,102.914" id="Fill-5" fill="#FFFFFE"></path>
            <path d="M107.138,97.289 C108.488,97.289 109.575,96.757 110.401,95.692 C111.226,94.627 111.638,93.21 111.638,91.44 C111.638,89.67 111.226,88.252 110.401,87.187 C109.575,86.122 108.488,85.59 107.138,85.59 C105.758,85.59 104.655,86.122 103.831,87.187 C103.005,88.252 102.593,89.67 102.593,91.44 C102.593,93.21 103.005,94.627 103.831,95.692 C104.655,96.757 105.758,97.289 107.138,97.289 Z M112.178,102.914 L111.773,99.9 C111.053,101.01 110.123,101.887 108.983,102.532 C107.843,103.177 106.523,103.499 105.023,103.499 C102.953,103.499 101.138,102.989 99.578,101.97 C98.018,100.95 96.803,99.533 95.933,97.717 C95.063,95.903 94.628,93.81 94.628,91.44 C94.628,89.07 95.063,86.985 95.933,85.185 C96.803,83.385 97.996,81.975 99.511,80.954 C101.025,79.935 102.773,79.425 104.753,79.425 C106.133,79.425 107.408,79.717 108.578,80.302 C109.748,80.887 110.723,81.675 111.503,82.664 L111.503,70.065 L119.333,70.065 L119.333,102.914 L112.178,102.914 L112.178,102.914 Z" id="Fill-6" fill="#FFFFFE"></path>
            <path d="M130.988,95.49 C130.988,96.18 131.243,96.743 131.753,97.177 C132.263,97.613 132.923,97.829 133.733,97.829 C134.813,97.829 135.72,97.462 136.456,96.727 C137.191,95.993 137.558,95.07 137.558,93.959 L137.558,93.195 C136.748,93.045 135.893,92.97 134.993,92.97 C133.853,92.97 132.901,93.165 132.136,93.555 C131.371,93.945 130.988,94.59 130.988,95.49 Z M137.873,102.914 L137.468,99.9 C135.968,102.3 133.688,103.499 130.628,103.499 C129.278,103.499 128.056,103.207 126.961,102.622 C125.865,102.037 124.996,101.235 124.351,100.215 C123.705,99.195 123.383,98.01 123.383,96.66 C123.383,94.11 124.38,92.13 126.376,90.72 C128.371,89.31 131.003,88.605 134.273,88.605 C135.293,88.605 136.373,88.695 137.513,88.874 C137.393,87.735 136.906,86.872 136.051,86.287 C135.196,85.703 134.153,85.41 132.923,85.41 C131.843,85.41 130.756,85.612 129.661,86.017 C128.565,86.422 127.523,86.91 126.533,87.48 L123.878,82.44 C125.378,81.48 126.998,80.738 128.738,80.212 C130.478,79.688 132.218,79.425 133.958,79.425 C136.058,79.425 137.948,79.785 139.628,80.505 C141.308,81.225 142.628,82.32 143.588,83.789 C144.548,85.26 145.028,87.12 145.028,89.37 L145.028,102.914 L137.873,102.914 L137.873,102.914 Z" id="Fill-7" fill="#FFFFFE"></path>
            <path d="M177.698,101.43 C176.768,102.06 175.702,102.562 174.503,102.937 C173.303,103.312 172.043,103.499 170.723,103.499 C168.263,103.499 166.305,102.787 164.85,101.362 C163.395,99.938 162.668,98.025 162.668,95.624 L162.668,85.86 L158.933,85.86 L158.933,80.01 L163.028,80.01 L164.018,73.619 L170.498,73.619 L170.498,80.01 L176.483,80.01 L176.483,85.86 L170.498,85.86 L170.498,94.635 C170.498,95.415 170.73,96.023 171.195,96.457 C171.66,96.892 172.282,97.11 173.063,97.11 C173.452,97.11 173.85,97.035 174.255,96.885 C174.66,96.735 175.043,96.555 175.403,96.344 L177.698,101.43" id="Fill-8" fill="#009BFF" class='no-color-change'></path>
            <path d="M191.872,97.289 C193.252,97.289 194.354,96.757 195.18,95.692 C196.005,94.627 196.417,93.21 196.417,91.44 C196.417,89.67 196.005,88.26 195.18,87.209 C194.354,86.16 193.252,85.635 191.872,85.635 C190.492,85.635 189.39,86.16 188.565,87.209 C187.739,88.26 187.327,89.67 187.327,91.44 C187.327,93.21 187.739,94.627 188.565,95.692 C189.39,96.757 190.492,97.289 191.872,97.289 Z M191.872,103.499 C189.412,103.499 187.244,102.982 185.37,101.947 C183.495,100.912 182.024,99.495 180.96,97.695 C179.895,95.895 179.362,93.81 179.362,91.44 C179.362,89.07 179.895,86.985 180.96,85.185 C182.024,83.385 183.495,81.975 185.37,80.954 C187.244,79.935 189.412,79.425 191.872,79.425 C194.332,79.425 196.5,79.935 198.375,80.954 C200.249,81.975 201.72,83.385 202.785,85.185 C203.849,86.985 204.383,89.07 204.383,91.44 C204.383,93.81 203.849,95.895 202.785,97.695 C201.72,99.495 200.249,100.912 198.375,101.947 C196.5,102.982 194.332,103.499 191.872,103.499 L191.872,103.499 Z" id="Fill-9" fill="#009BFF" class='no-color-change'></path>
            <path d="M219.592,97.289 C220.942,97.289 222.029,96.757 222.855,95.692 C223.68,94.627 224.092,93.21 224.092,91.44 C224.092,89.67 223.68,88.252 222.855,87.187 C222.029,86.122 220.942,85.59 219.592,85.59 C218.212,85.59 217.109,86.122 216.285,87.187 C215.459,88.252 215.047,89.67 215.047,91.44 C215.047,93.21 215.459,94.627 216.285,95.692 C217.109,96.757 218.212,97.289 219.592,97.289 Z M224.632,102.914 L224.227,99.9 C223.507,101.01 222.577,101.887 221.437,102.532 C220.297,103.177 218.977,103.499 217.477,103.499 C215.407,103.499 213.592,102.989 212.032,101.97 C210.472,100.95 209.257,99.533 208.387,97.717 C207.517,95.903 207.082,93.81 207.082,91.44 C207.082,89.07 207.517,86.985 208.387,85.185 C209.257,83.385 210.45,81.975 211.965,80.954 C213.479,79.935 215.227,79.425 217.207,79.425 C218.587,79.425 219.862,79.717 221.032,80.302 C222.202,80.887 223.177,81.675 223.957,82.664 L223.957,70.065 L231.787,70.065 L231.787,102.914 L224.632,102.914 L224.632,102.914 Z" id="Fill-10" fill="#009BFF" class='no-color-change'></path>
            <path d="M243.442,95.49 C243.442,96.18 243.697,96.743 244.207,97.177 C244.717,97.613 245.377,97.829 246.187,97.829 C247.268,97.829 248.174,97.462 248.91,96.727 C249.644,95.993 250.012,95.07 250.012,93.959 L250.012,93.195 C249.202,93.045 248.347,92.97 247.447,92.97 C246.307,92.97 245.355,93.165 244.59,93.555 C243.825,93.945 243.442,94.59 243.442,95.49 Z M250.327,102.914 L249.922,99.9 C248.422,102.3 246.143,103.499 243.082,103.499 C241.732,103.499 240.51,103.207 239.415,102.622 C238.319,102.037 237.45,101.235 236.805,100.215 C236.159,99.195 235.837,98.01 235.837,96.66 C235.837,94.11 236.834,92.13 238.83,90.72 C240.825,89.31 243.457,88.605 246.727,88.605 C247.747,88.605 248.827,88.695 249.967,88.874 C249.847,87.735 249.36,86.872 248.505,86.287 C247.65,85.703 246.607,85.41 245.377,85.41 C244.297,85.41 243.209,85.612 242.115,86.017 C241.019,86.422 239.977,86.91 238.987,87.48 L236.332,82.44 C237.832,81.48 239.452,80.738 241.192,80.212 C242.932,79.688 244.672,79.425 246.412,79.425 C248.512,79.425 250.402,79.785 252.082,80.505 C253.762,81.225 255.082,82.32 256.042,83.789 C257.002,85.26 257.482,87.12 257.482,89.37 L257.482,102.914 L250.327,102.914 L250.327,102.914 Z" id="Fill-11" fill="#009BFF" class='no-color-change'></path>
            <path d="M277.687,101.115 C276.307,104.654 274.732,107.294 272.962,109.035 C271.192,110.774 268.942,111.645 266.212,111.645 C264.982,111.645 263.872,111.51 262.882,111.24 C261.892,110.97 261.052,110.639 260.362,110.249 L262.567,104.85 C262.987,105.059 263.452,105.239 263.962,105.39 C264.472,105.539 265.012,105.615 265.582,105.615 C266.392,105.615 267.119,105.419 267.765,105.03 C268.41,104.64 268.972,103.934 269.452,102.914 L269.812,102.105 L259.462,80.01 L268.102,80.01 L273.187,93.735 L277.372,80.01 L285.877,80.01 L277.687,101.115" id="Fill-12" fill="#009BFF" class='no-color-change'></path>
            <path d="M86.529,78.209 C85.239,78.209 84.136,77.752 83.221,76.837 C82.306,75.922 81.849,74.819 81.849,73.529 C81.849,72.24 82.306,71.137 83.221,70.222 C84.136,69.307 85.239,68.85 86.529,68.85 C87.818,68.85 88.921,69.307 89.836,70.222 C90.751,71.137 91.209,72.24 91.209,73.529 C91.209,74.819 90.751,75.922 89.836,76.837 C88.921,77.752 87.818,78.209 86.529,78.209" id="Fill-13" fill="#009BFF" class='no-color-change'></path>
        </g>
    </g>
</svg>
