<?xml version="1.0" encoding="UTF-8" standalone="no"?>
<svg width="423px" height="55px" viewBox="0 0 423 55" version="1.1" xmlns="http://www.w3.org/2000/svg" xmlns:xlink="http://www.w3.org/1999/xlink" xmlns:sketch="http://www.bohemiancoding.com/sketch/ns">
    <!-- Generator: Sketch 3.4.2 (15857) - http://www.bohemiancoding.com/sketch -->
    <title>BucyrusV2</title>
    <desc>Created with Sketch.</desc>
    <defs></defs>
    <g id="Page-1" stroke="none" stroke-width="1" fill="none" fill-rule="evenodd" sketch:type="MSPage">
        <g id="Bucyrus" sketch:type="MSLayerGroup" fill="#1A1918">
            <g id="Page-1" sketch:type="MSShapeGroup">
                <g id="BucyrusV2">
                    <path d="M13.14,3.766 L0.42,3.766 L0.42,0.766 L29.099,0.766 L29.099,3.766 L16.379,3.766 L16.379,42.884 L13.14,42.884 L13.14,3.766" id="Fill-1"></path>
                    <path d="M51.239,25.545 C50.399,19.365 46.079,15.165 40.14,15.165 C33.9,15.165 29.82,19.665 28.92,25.545 L51.239,25.545 L51.239,25.545 L51.239,25.545 Z M25.68,28.005 C25.68,20.745 30.18,12.525 40.2,12.525 C49.919,12.525 54.359,20.265 54.359,28.065 L54.359,28.185 L28.74,28.185 C28.8,34.845 32.82,40.904 40.259,40.904 C45.239,40.904 48.899,38.204 50.939,34.124 L53.579,35.564 C50.879,40.844 45.659,43.604 40.02,43.604 C30.6,43.604 25.68,35.624 25.68,28.005 L25.68,28.005 L25.68,28.005 Z" id="Fill-2"></path>
                    <path d="M59.58,0.766 L62.7,0.766 L62.7,42.884 L59.58,42.884 L59.58,0.766 L59.58,0.766 Z" id="Fill-3"></path>
                    <path d="M93.479,25.545 C92.639,19.365 88.319,15.165 82.379,15.165 C76.14,15.165 72.06,19.665 71.16,25.545 L93.479,25.545 L93.479,25.545 L93.479,25.545 Z M67.92,28.005 C67.92,20.745 72.419,12.525 82.439,12.525 C92.159,12.525 96.599,20.265 96.599,28.065 L96.599,28.185 L70.98,28.185 C71.04,34.845 75.06,40.904 82.499,40.904 C87.479,40.904 91.139,38.204 93.179,34.124 L95.819,35.564 C93.119,40.844 87.899,43.604 82.259,43.604 C72.84,43.604 67.92,35.624 67.92,28.005 L67.92,28.005 L67.92,28.005 Z" id="Fill-4"></path>
                    <path d="M125.879,28.065 C125.879,20.685 120.899,15.225 114.06,15.225 C107.22,15.225 102.24,20.685 102.24,28.065 C102.24,35.445 107.22,40.904 114.06,40.904 C120.899,40.904 125.879,35.445 125.879,28.065 L125.879,28.065 L125.879,28.065 Z M101.16,48.824 L103.68,47.084 C105.84,50.384 109.919,52.064 114.419,52.064 C120.479,52.064 125.819,49.064 125.819,40.964 L125.819,37.184 L125.699,37.184 C123.599,40.664 119.879,43.604 114.06,43.604 C104.34,43.604 99.12,35.865 99.12,28.065 C99.12,20.265 104.34,12.525 114.06,12.525 C119.639,12.525 123.539,15.285 125.759,19.125 L125.879,19.125 L125.879,13.245 L128.939,13.245 L128.939,40.664 C128.939,49.484 123.719,54.764 114.419,54.764 C108.78,54.764 103.74,52.844 101.16,48.824 L101.16,48.824 L101.16,48.824 Z" id="Fill-5"></path>
                    <path d="M134.459,13.245 L137.52,13.245 L137.52,17.385 L137.64,17.385 C139.319,14.025 141.839,12.525 145.559,12.525 C146.819,12.525 148.019,12.706 149.039,13.005 L149.039,16.185 C148.019,15.765 146.579,15.465 145.199,15.465 C140.04,15.465 137.58,19.665 137.58,26.445 L137.58,42.884 L134.459,42.884 L134.459,13.245" id="Fill-6"></path>
                    <path d="M176.218,28.065 C176.218,20.685 171.238,15.225 164.398,15.225 C157.559,15.225 152.579,20.685 152.579,28.065 C152.579,35.445 157.559,40.904 164.398,40.904 C171.238,40.904 176.218,35.445 176.218,28.065 L176.218,28.065 L176.218,28.065 Z M149.459,28.065 C149.459,20.265 154.679,12.525 164.398,12.525 C169.978,12.525 173.878,15.285 176.098,19.125 L176.218,19.125 L176.218,13.245 L179.278,13.245 L179.278,42.884 L176.218,42.884 L176.218,37.004 L176.098,37.004 C173.878,40.844 169.978,43.604 164.398,43.604 C154.679,43.604 149.459,35.865 149.459,28.065 L149.459,28.065 L149.459,28.065 Z" id="Fill-7"></path>
                    <path d="M211.498,28.065 C211.498,20.685 206.518,15.225 199.678,15.225 C192.838,15.225 187.858,20.685 187.858,28.065 C187.858,35.445 192.838,40.904 199.678,40.904 C206.518,40.904 211.498,35.445 211.498,28.065 L211.498,28.065 L211.498,28.065 Z M184.798,13.245 L187.858,13.245 L187.858,19.125 L187.979,19.125 C190.198,15.285 194.098,12.525 199.678,12.525 C209.397,12.525 214.617,20.265 214.617,28.065 C214.617,35.865 209.397,43.604 199.678,43.604 C193.858,43.604 190.138,40.664 188.039,37.184 L187.918,37.184 L187.918,54.044 L184.798,54.044 L184.798,13.245 L184.798,13.245 L184.798,13.245 Z" id="Fill-8"></path>
                    <path d="M219.838,0.766 L222.958,0.766 L222.958,17.206 L223.078,17.206 C224.758,14.685 227.638,12.525 232.377,12.525 C239.157,12.525 243.837,16.605 243.837,24.285 L243.837,42.884 L240.717,42.884 L240.717,25.065 C240.717,18.285 237.417,15.225 232.257,15.225 C226.858,15.225 222.958,18.585 222.958,25.305 L222.958,42.884 L219.838,42.884 L219.838,0.766" id="Fill-9"></path>
                    <path d="M256.198,0.766 L279.777,0.766 L279.777,8.326 L265.317,8.326 L265.317,18.825 L279.417,18.825 L279.417,26.385 L265.317,26.385 L265.317,42.884 L256.198,42.884 L256.198,0.766" id="Fill-10"></path>
                    <path d="M306.237,28.065 C306.237,23.025 302.756,19.785 298.376,19.785 C293.997,19.785 290.517,23.025 290.517,28.065 C290.517,33.104 293.997,36.345 298.376,36.345 C302.756,36.345 306.237,33.104 306.237,28.065 L306.237,28.065 L306.237,28.065 Z M281.877,28.065 C281.877,20.685 287.337,12.525 298.376,12.525 C309.417,12.525 314.876,20.685 314.876,28.065 C314.876,35.445 309.417,43.604 298.376,43.604 C287.337,43.604 281.877,35.445 281.877,28.065 L281.877,28.065 L281.877,28.065 Z" id="Fill-11"></path>
                    <path d="M318.058,13.245 L326.218,13.245 L326.218,17.805 L326.337,17.805 C327.958,14.685 330.478,12.525 334.497,12.525 C335.517,12.525 336.536,12.645 337.378,12.945 L337.378,20.745 C336.417,20.385 334.978,20.145 333.718,20.145 C329.218,20.145 326.757,22.905 326.757,28.005 L326.757,42.884 L318.058,42.884 L318.058,13.245" id="Fill-12"></path>
                    <path d="M340.257,30.704 L340.257,13.245 L348.958,13.245 L348.958,29.325 C348.958,33.885 350.097,36.644 354.356,36.644 C358.796,36.644 360.478,33.525 360.478,29.264 L360.478,13.245 L369.116,13.245 L369.116,42.884 L360.956,42.884 L360.956,38.864 L360.837,38.864 C359.036,41.384 356.696,43.604 351.597,43.604 C343.798,43.604 340.257,38.504 340.257,30.704" id="Fill-13"></path>
                    <path d="M374.036,13.245 L382.196,13.245 L382.196,17.265 L382.315,17.265 C384.177,14.625 386.755,12.525 391.556,12.525 C396.235,12.525 399.476,14.565 401.216,17.925 C403.075,15.105 406.136,12.525 411.595,12.525 C419.095,12.525 422.874,17.565 422.874,25.425 L422.874,42.884 L414.175,42.884 L414.175,26.745 C414.175,22.605 413.034,19.485 408.835,19.485 C404.636,19.485 402.774,22.545 402.774,26.805 L402.774,42.884 L394.136,42.884 L394.136,26.745 C394.136,22.605 392.937,19.485 388.735,19.485 C384.536,19.485 382.677,22.545 382.677,26.805 L382.677,42.884 L374.036,42.884 L374.036,13.245" id="Fill-14"></path>
                </g>
            </g>
        </g>
    </g>
</svg>