<svg xmlns="http://www.w3.org/2000/svg" width="385" height="48" viewBox="0 0 385 48">
  <g fill="none" fill-rule="evenodd">
    <path fill="#404040" d="M210.999 44.243L212.283 44.243C212.705 44.243 213.038 44.14 213.284 43.933 213.529 43.725 213.652 43.441 213.652 43.082 213.652 42.724 213.529 42.441 213.284 42.233 213.038 42.025 212.705 41.921 212.283 41.921L210.999 41.921 210.999 44.243zM210.045 47.538L210.045 41.119 212.283 41.119C213.001 41.119 213.57 41.295 213.992 41.647 214.413 42 214.624 42.479 214.624 43.082 214.624 43.681 214.413 44.153 213.992 44.503 213.57 44.853 213.001 45.027 212.283 45.027L210.999 45.027 210.999 47.538 210.045 47.538zM216.55 45.122L218.891 45.122 217.72 42.11 216.55 45.122zM219.826 47.538L219.203 45.924 216.238 45.924 215.615 47.538 214.652 47.538 217.22 41.119 218.25 41.119 220.808 47.538 219.826 47.538zM222.828 44.149L224.14 44.149C224.549 44.149 224.875 44.049 225.118 43.847 225.36 43.646 225.481 43.375 225.481 43.035 225.481 42.695 225.36 42.425 225.118 42.224 224.875 42.022 224.549 41.921 224.14 41.921L222.828 41.921 222.828 44.149zM222.828 44.933L222.828 47.538 221.875 47.538 221.875 41.119 224.14 41.119C224.851 41.119 225.415 41.29 225.83 41.634 226.246 41.977 226.453 42.443 226.453 43.035 226.453 43.482 226.328 43.859 226.076 44.168 225.824 44.477 225.478 44.694 225.037 44.819L226.594 47.538 225.509 47.538 224.045 44.933 222.828 44.933z"/>
    <polyline fill="#404040" points="229.191 47.538 229.191 41.921 227.029 41.921 227.029 41.119 232.306 41.119 232.306 41.921 230.144 41.921 230.144 47.538 229.191 47.538"/>
    <path fill="#404040" d="M238.433,46.812 C238.848,46.812 239.218,46.706 239.543,46.495 C239.867,46.284 240.12,45.993 240.302,45.622 C240.485,45.251 240.576,44.819 240.576,44.329 C240.576,43.838 240.485,43.406 240.302,43.035 C240.12,42.664 239.867,42.373 239.543,42.162 C239.218,41.951 238.848,41.846 238.433,41.846 C238.018,41.846 237.65,41.951 237.329,42.162 C237.007,42.373 236.755,42.664 236.573,43.035 C236.39,43.406 236.299,43.838 236.299,44.329 C236.299,44.819 236.39,45.251 236.573,45.622 C236.755,45.993 237.007,46.284 237.329,46.495 C237.65,46.706 238.018,46.812 238.433,46.812 Z M238.433,47.643 C237.829,47.643 237.294,47.501 236.828,47.218 C236.362,46.935 235.996,46.544 235.728,46.047 C235.461,45.55 235.327,44.978 235.327,44.329 C235.327,43.681 235.461,43.108 235.728,42.61 C235.996,42.113 236.362,41.723 236.828,41.439 C237.294,41.156 237.829,41.016 238.433,41.016 C239.038,41.016 239.574,41.156 240.043,41.439 C240.511,41.723 240.879,42.113 241.147,42.61 C241.415,43.108 241.548,43.681 241.548,44.329 C241.548,44.978 241.415,45.55 241.147,46.047 C240.879,46.544 240.511,46.935 240.043,47.218 C239.574,47.501 239.038,47.643 238.433,47.643 Z"/>
    <polyline fill="#404040" points="243.842 47.538 242.889 47.538 242.889 41.119 246.882 41.119 246.882 41.921 243.842 41.921 243.842 44.093 246.419 44.093 246.419 44.896 243.842 44.896 243.842 47.538"/>
    <polyline fill="#404040" points="251.858 47.538 251.858 41.921 249.696 41.921 249.696 41.119 254.973 41.119 254.973 41.921 252.811 41.921 252.811 47.538 251.858 47.538"/>
    <polyline fill="#404040" points="256.068 47.538 256.068 41.119 257.022 41.119 257.022 43.866 260.336 43.866 260.336 41.119 261.289 41.119 261.289 47.538 260.336 47.538 260.336 44.688 257.022 44.688 257.022 47.538 256.068 47.538"/>
    <polyline fill="#404040" points="262.969 47.538 262.969 41.119 267.086 41.119 267.086 41.921 263.922 41.921 263.922 43.903 266.708 43.903 266.708 44.706 263.922 44.706 263.922 46.735 267.161 46.735 267.161 47.538 262.969 47.538"/>
    <path fill="#404040" d="M273.184 46.812C273.707 46.812 274.117 46.654 274.416 46.339 274.714 46.024 274.864 45.601 274.864 45.066L274.864 41.119 275.818 41.119 275.818 45.074C275.818 45.874 275.584 46.502 275.115 46.958 274.645 47.414 274.002 47.643 273.184 47.643 272.366 47.643 271.723 47.414 271.257 46.958 270.792 46.502 270.559 45.874 270.559 45.074L270.559 41.119 271.512 41.119 271.512 45.066C271.512 45.601 271.663 46.024 271.961 46.339 272.26 46.654 272.668 46.812 273.184 46.812M279.377 47.643C278.892 47.643 278.429 47.558 277.989 47.388 277.548 47.218 277.193 46.991 276.922 46.708L277.461 46.075C277.712 46.308 278.009 46.49 278.353 46.622 278.696 46.755 279.038 46.821 279.377 46.821 279.793 46.821 280.128 46.741 280.382 46.58 280.637 46.42 280.764 46.198 280.764 45.915 280.764 45.657 280.673 45.439 280.491 45.263 280.308 45.087 279.997 44.94 279.556 44.819L278.669 44.583C278.096 44.433 277.679 44.219 277.419 43.941 277.157 43.665 277.026 43.303 277.026 42.855 277.026 42.491 277.124 42.17 277.319 41.893 277.514 41.616 277.783 41.4 278.127 41.246 278.469 41.093 278.858 41.016 279.292 41.016 279.752 41.016 280.182 41.102 280.586 41.274 280.988 41.447 281.343 41.689 281.652 41.997L281.076 42.62C280.805 42.368 280.524 42.175 280.231 42.039 279.939 41.904 279.628 41.836 279.301 41.836 278.905 41.836 278.581 41.92 278.329 42.087 278.077 42.253 277.952 42.484 277.952 42.78 277.952 43.052 278.042 43.262 278.22 43.413 278.4 43.564 278.675 43.689 279.046 43.79L280.038 44.064C280.611 44.222 281.029 44.442 281.294 44.726 281.557 45.009 281.69 45.361 281.69 45.782 281.69 46.154 281.592 46.48 281.397 46.76 281.202 47.04 280.931 47.257 280.586 47.411 280.239 47.565 279.836 47.643 279.377 47.643M284.087 45.122L286.429 45.122 285.258 42.11 284.087 45.122zM287.364 47.538L286.741 45.924 283.776 45.924 283.153 47.538 282.19 47.538 284.758 41.119 285.787 41.119 288.345 47.538 287.364 47.538z"/>
    <polyline fill="#404040" points="292.783 47.538 292.783 41.921 290.621 41.921 290.621 41.119 295.898 41.119 295.898 41.921 293.736 41.921 293.736 47.538 292.783 47.538"/>
    <path fill="#404040" d="M299.335 46.812C299.75 46.812 300.12 46.706 300.444 46.495 300.768 46.284 301.021 45.993 301.204 45.622 301.386 45.251 301.477 44.819 301.477 44.329 301.477 43.838 301.386 43.406 301.204 43.035 301.021 42.664 300.768 42.373 300.444 42.162 300.12 41.951 299.75 41.846 299.335 41.846 298.919 41.846 298.55 41.951 298.23 42.162 297.909 42.373 297.657 42.664 297.474 43.035 297.292 43.406 297.201 43.838 297.201 44.329 297.201 44.819 297.292 45.251 297.474 45.622 297.657 45.993 297.909 46.284 298.23 46.495 298.55 46.706 298.919 46.812 299.335 46.812zM299.335 47.643C298.73 47.643 298.195 47.501 297.729 47.218 297.263 46.935 296.897 46.544 296.629 46.047 296.362 45.55 296.228 44.978 296.228 44.329 296.228 43.681 296.362 43.108 296.629 42.61 296.897 42.113 297.263 41.723 297.729 41.439 298.195 41.156 298.73 41.016 299.335 41.016 299.938 41.016 300.475 41.156 300.944 41.439 301.413 41.723 301.781 42.113 302.048 42.61 302.316 43.108 302.45 43.681 302.45 44.329 302.45 44.978 302.316 45.55 302.048 46.047 301.781 46.544 301.413 46.935 300.944 47.218 300.475 47.501 299.938 47.643 299.335 47.643zM304.744 46.735L306.046 46.735C306.5 46.735 306.888 46.637 307.212 46.439 307.537 46.24 307.785 45.962 307.959 45.603 308.131 45.244 308.218 44.819 308.218 44.329 308.218 43.838 308.131 43.413 307.959 43.054 307.785 42.695 307.537 42.417 307.212 42.219 306.888 42.021 306.5 41.921 306.046 41.921L304.744 41.921 304.744 46.735zM303.791 47.538L303.791 41.119 306.046 41.119C306.676 41.119 307.227 41.253 307.699 41.521 308.17 41.787 308.538 42.162 308.798 42.644 309.06 43.125 309.191 43.687 309.191 44.329 309.191 44.971 309.06 45.532 308.798 46.014 308.538 46.495 308.17 46.87 307.699 47.138 307.227 47.404 306.676 47.538 306.046 47.538L303.791 47.538zM311.627 45.122L313.967 45.122 312.796 42.11 311.627 45.122zM314.902 47.538L314.279 45.924 311.314 45.924 310.691 47.538 309.728 47.538 312.296 41.119 313.326 41.119 315.884 47.538 314.902 47.538z"/>
    <polyline fill="#404040" points="318.81 44.989 318.81 47.538 317.857 47.538 317.857 44.989 315.601 41.119 316.724 41.119 318.338 44.083 319.953 41.119 321.057 41.119 318.81 44.989"/>
    <polyline fill="#404040" points="328.685 47.538 325.258 42.62 325.258 47.538 324.361 47.538 324.361 41.119 325.249 41.119 328.685 46.037 328.685 41.119 329.573 41.119 329.573 47.538 328.685 47.538"/>
    <polyline fill="#404040" points="331.253 47.538 331.253 41.119 335.37 41.119 335.37 41.921 332.207 41.921 332.207 43.903 334.992 43.903 334.992 44.706 332.207 44.706 332.207 46.735 335.445 46.735 335.445 47.538 331.253 47.538"/>
    <polyline fill="#404040" points="338.277 47.538 338.277 41.921 336.115 41.921 336.115 41.119 341.392 41.119 341.392 41.921 339.23 41.921 339.23 47.538 338.277 47.538"/>
    <polyline fill="#404040" points="347.623 47.538 346.122 42.422 344.621 47.538 343.629 47.538 341.92 41.119 342.865 41.119 344.168 46.198 345.669 41.119 346.575 41.119 348.086 46.217 349.398 41.119 350.323 41.119 348.615 47.538 347.623 47.538"/>
    <path fill="#404040" d="M354.109 46.812C354.524 46.812 354.894 46.706 355.218 46.495 355.543 46.284 355.795 45.993 355.978 45.622 356.161 45.251 356.252 44.819 356.252 44.329 356.252 43.838 356.161 43.406 355.978 43.035 355.795 42.664 355.543 42.373 355.218 42.162 354.894 41.951 354.524 41.846 354.109 41.846 353.694 41.846 353.326 41.951 353.004 42.162 352.683 42.373 352.431 42.664 352.249 43.035 352.066 43.406 351.975 43.838 351.975 44.329 351.975 44.819 352.066 45.251 352.249 45.622 352.431 45.993 352.683 46.284 353.004 46.495 353.326 46.706 353.694 46.812 354.109 46.812zM354.109 47.643C353.504 47.643 352.969 47.501 352.503 47.218 352.038 46.935 351.671 46.544 351.404 46.047 351.136 45.55 351.003 44.978 351.003 44.329 351.003 43.681 351.136 43.108 351.404 42.61 351.671 42.113 352.038 41.723 352.503 41.439 352.969 41.156 353.504 41.016 354.109 41.016 354.713 41.016 355.25 41.156 355.718 41.439 356.187 41.723 356.555 42.113 356.823 42.61 357.09 43.108 357.224 43.681 357.224 44.329 357.224 44.978 357.09 45.55 356.823 46.047 356.555 46.544 356.187 46.935 355.718 47.218 355.25 47.501 354.713 47.643 354.109 47.643zM359.518 44.149L360.831 44.149C361.24 44.149 361.565 44.049 361.808 43.847 362.049 43.646 362.171 43.375 362.171 43.035 362.171 42.695 362.049 42.425 361.808 42.224 361.565 42.022 361.24 41.921 360.831 41.921L359.518 41.921 359.518 44.149zM359.518 44.933L359.518 47.538 358.565 47.538 358.565 41.119 360.831 41.119C361.542 41.119 362.105 41.29 362.52 41.634 362.936 41.977 363.143 42.443 363.143 43.035 363.143 43.482 363.017 43.859 362.766 44.168 362.514 44.477 362.168 44.694 361.727 44.819L363.285 47.538 362.2 47.538 360.736 44.933 359.518 44.933z"/>
    <polyline fill="#404040" points="368.327 47.538 365.447 44.3 365.447 47.538 364.494 47.538 364.494 41.119 365.447 41.119 365.447 43.933 368.137 41.119 369.318 41.119 366.458 44.064 369.525 47.538 368.327 47.538"/>
    <polyline fill="#009BFF" class='no-color-change' points="9.447 33.803 9.447 9.953 .357 9.953 .357 3.203 26.907 3.203 26.907 9.953 17.817 9.953 17.817 33.803 9.447 33.803"/>
    <path fill="#009BFF" class='no-color-change' d="M37.382,15.983 C34.832,15.983 33.302,17.333 32.792,20.033 L41.522,20.033 C41.312,18.564 40.809,17.521 40.014,16.905 C39.219,16.291 38.342,15.983 37.382,15.983 Z M48.092,31.463 C46.951,32.272 45.505,32.963 43.75,33.533 C41.994,34.103 40.127,34.388 38.147,34.388 C35.417,34.388 33.085,33.885 31.15,32.88 C29.214,31.876 27.73,30.473 26.694,28.673 C25.659,26.873 25.142,24.803 25.142,22.463 C25.142,20.094 25.652,17.993 26.672,16.163 C27.692,14.333 29.102,12.901 30.902,11.865 C32.702,10.83 34.801,10.313 37.202,10.313 C39.542,10.313 41.604,10.816 43.389,11.82 C45.174,12.826 46.569,14.221 47.574,16.005 C48.579,17.791 49.082,19.883 49.082,22.283 C49.082,22.613 49.06,22.958 49.014,23.318 C48.969,23.678 48.917,24.054 48.857,24.443 L32.882,24.443 C33.602,27.083 35.566,28.403 38.777,28.403 C40.217,28.403 41.492,28.178 42.602,27.728 C43.712,27.278 44.642,26.828 45.392,26.378 L48.092,31.463 Z"/>
    <polygon fill="#009BFF" class='no-color-change' points="53.087 33.803 60.917 33.803 60.917 .953 53.087 .953"/>
    <path fill="#009BFF" class='no-color-change' d="M77.252 15.983C74.701 15.983 73.171 17.333 72.661 20.033L81.391 20.033C81.181 18.564 80.678 17.521 79.884 16.905 79.088 16.291 78.211 15.983 77.252 15.983zM87.961 31.463C86.821 32.272 85.374 32.963 83.619 33.533 81.864 34.103 79.996 34.388 78.016 34.388 75.286 34.388 72.954 33.885 71.019 32.88 69.084 31.876 67.599 30.473 66.564 28.673 65.529 26.873 65.011 24.803 65.011 22.463 65.011 20.094 65.521 17.993 66.541 16.163 67.561 14.333 68.971 12.901 70.772 11.865 72.571 10.83 74.671 10.313 77.071 10.313 79.411 10.313 81.474 10.816 83.259 11.82 85.044 12.826 86.439 14.221 87.444 16.005 88.449 17.791 88.951 19.883 88.951 22.283 88.951 22.613 88.929 22.958 88.884 23.318 88.839 23.678 88.786 24.054 88.726 24.443L72.752 24.443C73.471 27.083 75.436 28.403 78.647 28.403 80.086 28.403 81.361 28.178 82.471 27.728 83.581 27.278 84.511 26.828 85.261 26.378L87.961 31.463zM103.981 26.918C105.301 26.918 106.366 26.445 107.176 25.5 107.986 24.556 108.391 23.288 108.391 21.698 108.391 20.109 107.986 18.841 107.176 17.896 106.366 16.95 105.301 16.478 103.981 16.478 102.631 16.478 101.551 16.95 100.741 17.896 99.931 18.841 99.526 20.109 99.526 21.698 99.526 23.258 99.931 24.519 100.741 25.478 101.551 26.439 102.631 26.918 103.981 26.918zM116.131 31.373C116.131 33.713 115.591 35.716 114.511 37.38 113.431 39.045 111.939 40.32 110.034 41.205 108.128 42.09 105.916 42.533 103.396 42.533 101.356 42.533 99.42 42.263 97.591 41.723 95.761 41.183 94.126 40.463 92.686 39.563L95.611 34.522C96.63 35.123 97.704 35.61 98.829 35.985 99.954 36.36 101.116 36.548 102.316 36.548 104.326 36.548 105.826 36.098 106.816 35.198 107.806 34.298 108.301 33.023 108.301 31.373L108.301 30.563C107.521 31.344 106.584 31.966 105.489 32.431 104.393 32.896 103.246 33.128 102.046 33.128 99.976 33.128 98.153 32.641 96.579 31.665 95.003 30.69 93.773 29.341 92.889 27.615 92.003 25.891 91.561 23.918 91.561 21.698 91.561 19.448 91.996 17.468 92.866 15.758 93.736 14.048 94.951 12.713 96.511 11.753 98.071 10.793 99.871 10.313 101.911 10.313 103.291 10.313 104.573 10.644 105.759 11.303 106.943 11.963 107.88 12.833 108.571 13.913L108.976 10.897 116.131 10.897 116.131 31.373zM129.451 24.938L129.451 33.803 121.621 33.803 121.621 10.897 128.776 10.897 129.271 14.723C129.751 13.493 130.538 12.495 131.633 11.73 132.728 10.966 133.996 10.583 135.436 10.583 136.246 10.583 136.86 10.689 137.281 10.897L137.281 18.053C136.95 17.934 136.584 17.844 136.178 17.783 135.773 17.723 135.315 17.693 134.806 17.693 133.246 17.693 131.963 18.271 130.959 19.426 129.953 20.581 129.451 22.418 129.451 24.938M147.225 26.378C147.225 27.068 147.48 27.631 147.99 28.066 148.5 28.501 149.16 28.718 149.97 28.718 151.05 28.718 151.958 28.351 152.693 27.615 153.428 26.881 153.795 25.958 153.795 24.848L153.795 24.083C152.985 23.933 152.13 23.858 151.231 23.858 150.09 23.858 149.138 24.054 148.373 24.443 147.608 24.833 147.225 25.478 147.225 26.378zM154.11 33.803L153.705 30.788C152.205 33.189 149.925 34.388 146.865 34.388 145.515 34.388 144.293 34.096 143.198 33.511 142.103 32.926 141.232 32.123 140.588 31.103 139.942 30.083 139.62 28.897 139.62 27.548 139.62 24.998 140.617 23.019 142.613 21.608 144.607 20.198 147.24 19.493 150.51 19.493 151.53 19.493 152.61 19.583 153.751 19.763 153.63 18.623 153.143 17.761 152.288 17.176 151.433 16.591 150.39 16.298 149.16 16.298 148.08 16.298 146.993 16.5 145.898 16.905 144.802 17.311 143.76 17.798 142.771 18.368L140.115 13.328C141.615 12.368 143.235 11.626 144.975 11.101 146.715 10.576 148.455 10.313 150.195 10.313 152.295 10.313 154.185 10.673 155.865 11.393 157.545 12.113 158.865 13.208 159.825 14.678 160.785 16.149 161.265 18.008 161.265 20.258L161.265 33.803 154.11 33.803zM178.455 28.178C179.835 28.178 180.938 27.646 181.763 26.58 182.587 25.516 183.001 24.099 183.001 22.328 183.001 20.558 182.587 19.141 181.763 18.075 180.938 17.011 179.835 16.478 178.455 16.478 177.106 16.478 176.018 17.011 175.193 18.075 174.367 19.141 173.955 20.558 173.955 22.328 173.955 24.099 174.367 25.516 175.193 26.58 176.018 27.646 177.106 28.178 178.455 28.178zM180.57 34.388C179.22 34.388 177.99 34.103 176.88 33.533 175.77 32.963 174.84 32.183 174.09 31.193L174.09 42.128 166.26 42.128 166.26 10.897 173.415 10.897 173.82 13.913C174.54 12.833 175.508 11.963 176.723 11.303 177.938 10.644 179.34 10.313 180.93 10.313 182.88 10.313 184.605 10.823 186.106 11.843 187.605 12.863 188.79 14.272 189.66 16.073 190.53 17.873 190.965 19.958 190.965 22.328 190.965 24.698 190.523 26.791 189.638 28.605 188.753 30.421 187.523 31.838 185.948 32.858 184.373 33.877 182.58 34.388 180.57 34.388zM202.89 21.203L202.89 33.803 195.06 33.803 195.06.953 202.89.953 202.89 13.553C203.64 12.563 204.592 11.776 205.748 11.191 206.902 10.605 208.156 10.313 209.505 10.313 211.995 10.313 213.99 11.123 215.491 12.743 216.99 14.363 217.741 16.689 217.741 19.718L217.741 33.803 209.911 33.803 209.911 20.618C209.911 19.268 209.61 18.271 209.01 17.625 208.41 16.98 207.57 16.658 206.491 16.658 205.411 16.658 204.54 17.003 203.88 17.693 203.22 18.384 202.89 19.554 202.89 21.203"/>
    <polyline fill="#404040" points="242.625 33.803 234.254 33.803 234.254 3.203 255.764 3.203 255.764 9.908 242.625 9.908 242.625 16.028 253.514 16.028 253.514 22.733 242.625 22.733 242.625 33.803"/>
    <path fill="#404040" d="M270.434 28.178C271.814 28.178 272.917 27.646 273.742 26.58 274.567 25.516 274.979 24.099 274.979 22.328 274.979 20.558 274.567 19.149 273.742 18.098 272.917 17.048 271.814 16.522 270.434 16.522 269.054 16.522 267.952 17.048 267.127 18.098 266.301 19.149 265.889 20.558 265.889 22.328 265.889 24.099 266.301 25.516 267.127 26.58 267.952 27.646 269.054 28.178 270.434 28.178zM270.434 34.388C267.974 34.388 265.806 33.87 263.932 32.835 262.056 31.801 260.586 30.383 259.522 28.583 258.457 26.783 257.924 24.698 257.924 22.328 257.924 19.958 258.457 17.873 259.522 16.073 260.586 14.272 262.056 12.863 263.932 11.843 265.806 10.823 267.974 10.313 270.434 10.313 272.894 10.313 275.062 10.823 276.937 11.843 278.811 12.863 280.282 14.272 281.347 16.073 282.412 17.873 282.945 19.958 282.945 22.328 282.945 24.698 282.412 26.783 281.347 28.583 280.282 30.383 278.811 31.801 276.937 32.835 275.062 33.87 272.894 34.388 270.434 34.388zM294.87 24.938L294.87 33.803 287.04 33.803 287.04 10.897 294.194 10.897 294.689 14.723C295.169 13.493 295.957 12.495 297.052 11.73 298.147 10.966 299.415 10.583 300.854 10.583 301.665 10.583 302.279 10.689 302.7 10.897L302.7 18.053C302.369 17.934 302.002 17.844 301.597 17.783 301.192 17.723 300.734 17.693 300.224 17.693 298.665 17.693 297.381 18.271 296.377 19.426 295.372 20.581 294.87 22.418 294.87 24.938M321.599 33.803L321.194 30.788C320.444 31.898 319.461 32.775 318.247 33.42 317.032 34.065 315.718 34.388 314.309 34.388 311.638 34.388 309.598 33.601 308.189 32.025 306.778 30.45 306.074 28.178 306.074 25.208L306.074 10.897 313.904 10.897 313.904 24.308C313.904 26.798 315.044 28.043 317.324 28.043 319.723 28.043 320.923 26.543 320.923 23.543L320.923 10.897 328.753 10.897 328.753 33.803 321.599 33.803M342.074 20.618L342.074 33.803 334.244 33.803 334.244 10.897 341.444 10.897 341.848 13.823C342.539 12.713 343.438 11.873 344.548 11.303 345.658 10.734 346.843 10.448 348.103 10.448 349.454 10.448 350.683 10.748 351.794 11.348 352.903 11.948 353.803 12.788 354.494 13.868 355.303 12.759 356.361 11.91 357.666 11.325 358.971 10.74 360.343 10.448 361.784 10.448 363.374 10.448 364.776 10.816 365.991 11.551 367.206 12.286 368.158 13.306 368.848 14.61 369.539 15.915 369.883 17.423 369.883 19.133L369.883 33.803 362.053 33.803 362.053 19.943C362.053 18.984 361.791 18.218 361.266 17.647 360.741 17.078 360.074 16.793 359.263 16.793 358.273 16.793 357.478 17.108 356.878 17.738 356.278 18.368 355.978 19.328 355.978 20.618L355.978 33.803 348.148 33.803 348.148 19.943C348.148 18.984 347.893 18.218 347.383 17.647 346.873 17.078 346.183 16.793 345.313 16.793 344.353 16.793 343.573 17.108 342.973 17.738 342.373 18.368 342.074 19.328 342.074 20.618"/>
    <path fill="#009BFF" class='no-color-change' d="M378.973,34.298 C378.013,34.298 377.135,34.065 376.34,33.601 C375.545,33.136 374.916,32.506 374.451,31.71 C373.985,30.916 373.753,30.038 373.753,29.078 C373.753,28.118 373.985,27.24 374.451,26.445 C374.916,25.651 375.545,25.021 376.34,24.556 C377.135,24.091 378.013,23.858 378.973,23.858 C379.933,23.858 380.811,24.091 381.606,24.556 C382.401,25.021 383.031,25.651 383.496,26.445 C383.961,27.24 384.194,28.118 384.194,29.078 C384.194,30.038 383.961,30.916 383.496,31.71 C383.031,32.506 382.401,33.136 381.606,33.601 C380.811,34.065 379.933,34.298 378.973,34.298"/>
  </g>
</svg>
