<?xml version="1.0" encoding="utf-8"?>
<!-- Generator: Adobe Illustrator 19.2.0, SVG Export Plug-In . SVG Version: 6.00 Build 0)  -->
<svg version="1.1" id="Layer_1" xmlns="http://www.w3.org/2000/svg" xmlns:xlink="http://www.w3.org/1999/xlink" x="0px" y="0px"
	 viewBox="0 0 720 111" height="111" width="720" style="enable-background:new 0 0 720 111;" xml:space="preserve">
<style type="text/css">
	.st0{enable-background:new    ;}
	.st1{fill:#656565;}
	.st2{fill:#FFFFFF;}
</style>
<g>
	<g class="st0">
		<path class="st1" d="M3.2,15.4H16c2.1,0,4.1,0.3,6,0.8s3.4,1.3,4.8,2.4c1.3,1.1,2.4,2.5,3.1,4.2c0.8,1.7,1.1,3.6,1.1,5.9
			c0,3-0.7,5.4-2,7.1c-1.3,1.7-3.1,3-5.4,3.8c3.5,0.7,6.3,2.2,8.4,4.4c2.1,2.2,3.1,5.4,3.1,9.4c0,2.6-0.4,4.8-1.3,6.7
			c-0.9,1.9-2.1,3.5-3.6,4.8c-1.5,1.3-3.4,2.3-5.5,2.9c-2.1,0.6-4.4,0.9-6.8,0.9H3.2V15.4z M7.3,38.2H16c3.6,0,6.3-0.8,8.2-2.5
			c1.9-1.6,2.8-4,2.8-7c0-3-0.9-5.4-2.8-7c-1.9-1.6-4.6-2.5-8.2-2.5H7.3V38.2z M7.3,65.1h10.2c4.4,0,7.8-1,10.2-3.1
			c2.3-2.1,3.5-4.9,3.5-8.6c0-3.7-1.2-6.5-3.6-8.5s-5.8-3-10.1-3H7.3V65.1z"/>
		<path class="st1" d="M57.8,69.7c-4.3,0-7.8-1.3-10.3-3.8c-2.6-2.5-3.9-6.2-3.9-11.2V31.2h3.9v22.6c0,4.3,0.9,7.5,2.7,9.4
			c1.8,2,4.4,3,7.7,3c3.4,0,6.2-1.1,8.3-3.2c2.1-2.1,3.1-5.3,3.1-9.6V31.2h3.9v37.6h-3.9v-5h-0.1c-1.1,1.6-2.5,3-4.3,4.2
			C63.1,69.1,60.8,69.7,57.8,69.7z"/>
		<path class="st1" d="M86.4,31.2h3.9v5.3h0.1c1.1-2.1,2.4-3.7,4-4.7c1.6-1,3.6-1.5,6-1.5c1.6,0,3,0.2,4.4,0.6v4
			c-0.7-0.3-1.4-0.5-2.3-0.7c-0.9-0.2-1.7-0.3-2.6-0.3c-3.3,0-5.7,1.2-7.3,3.7c-1.6,2.5-2.4,5.9-2.4,10.2v20.8h-4V31.2z"/>
		<path class="st1" d="M113,15.4h4v53.4h-4V15.4z"/>
		<path class="st1" d="M131.9,24.7c-0.8,0-1.5-0.3-2.1-0.8c-0.5-0.5-0.8-1.2-0.8-2.1c0-0.8,0.3-1.5,0.8-2.1c0.5-0.5,1.2-0.8,2.1-0.8
			c0.9,0,1.6,0.3,2.1,0.8c0.5,0.5,0.8,1.2,0.8,2.1c0,0.9-0.3,1.6-0.8,2.1C133.5,24.4,132.8,24.7,131.9,24.7z M130,31.2h4v37.6h-4
			V31.2z"/>
		<path class="st1" d="M147,31.2h3.9v5h0.1c1.1-1.6,2.5-3,4.4-4.2c1.9-1.2,4.4-1.7,7.4-1.7c2.1,0,4.1,0.3,5.9,0.9
			c1.8,0.6,3.3,1.6,4.6,2.8c1.3,1.3,2.2,2.8,2.9,4.7s1.1,4,1.1,6.4v23.6h-3.9V46.2c0-4.3-1-7.5-2.9-9.5c-1.9-2-4.5-3-7.8-3
			c-3.4,0-6.2,1.1-8.4,3.2c-2.2,2.1-3.3,5.3-3.3,9.6v22.3h-4V31.2z"/>
		<path class="st1" d="M205.5,83.8c-3.6,0-6.9-0.6-9.9-1.9c-3-1.2-5.3-3.1-6.9-5.7l3.2-2.2c1.4,2.1,3.2,3.7,5.6,4.8
			c2.4,1,5,1.6,7.9,1.6c1.9,0,3.8-0.3,5.5-0.8c1.7-0.5,3.3-1.3,4.6-2.4c1.3-1.1,2.4-2.6,3.1-4.3c0.8-1.8,1.2-4,1.2-6.6v-4.8h-0.1
			c-0.6,1.1-1.4,2.2-2.4,3.2c-0.9,1-2,1.9-3.2,2.6s-2.6,1.3-4.1,1.8c-1.5,0.4-3.2,0.6-5,0.6c-3.1,0-5.8-0.6-8.2-1.7
			c-2.4-1.1-4.3-2.6-5.9-4.5c-1.6-1.8-2.8-3.9-3.6-6.3c-0.8-2.4-1.2-4.8-1.2-7.3c0-2.5,0.4-4.9,1.2-7.3c0.8-2.4,2-4.5,3.6-6.3
			c1.6-1.8,3.6-3.3,5.9-4.4c2.4-1.1,5.1-1.7,8.2-1.7c3.5,0,6.5,0.8,9,2.4c2.5,1.6,4.4,3.6,5.8,6h0.1v-7.5h3.9V66
			c0,5.6-1.6,10-4.7,13.2C216,82.3,211.5,83.8,205.5,83.8z M205.1,66.3c2.2,0,4.2-0.4,6-1.2c1.8-0.8,3.4-1.9,4.7-3.4
			c1.3-1.4,2.4-3.2,3.1-5.2c0.8-2,1.1-4.2,1.1-6.5c0-2.3-0.4-4.5-1.1-6.5c-0.8-2-1.8-3.7-3.1-5.2c-1.3-1.4-2.9-2.6-4.7-3.4
			s-3.8-1.2-6-1.2c-2.2,0-4.2,0.4-6,1.2c-1.8,0.8-3.4,1.9-4.7,3.4c-1.3,1.4-2.4,3.2-3.1,5.2c-0.7,2-1.1,4.2-1.1,6.5
			c0,2.3,0.4,4.5,1.1,6.5c0.7,2,1.8,3.7,3.1,5.2c1.3,1.4,2.9,2.6,4.7,3.4C200.9,65.9,202.9,66.3,205.1,66.3z"/>
		<path class="st1" d="M245.7,69.3c-5.5,0-8.3-3.3-8.3-9.8V34.8h-5.5v-3.6h5.5V21h4v10.2h9.8v3.6h-9.8v24.3c0,2.2,0.4,3.9,1.1,5
			c0.7,1.1,1.9,1.7,3.6,1.7c1.1,0,1.9-0.1,2.6-0.2c0.7-0.1,1.3-0.3,1.9-0.6v3.7c-0.6,0.1-1.2,0.3-2,0.4
			C247.8,69.2,246.9,69.3,245.7,69.3z"/>
		<path class="st1" d="M275.6,69.7c-3.1,0-5.9-0.6-8.3-1.7c-2.4-1.2-4.4-2.7-6-4.5c-1.6-1.9-2.9-4-3.7-6.3c-0.8-2.3-1.3-4.7-1.3-7.1
			c0-2.4,0.4-4.8,1.3-7.1c0.8-2.3,2.1-4.4,3.7-6.3c1.6-1.9,3.6-3.4,6-4.5c2.4-1.1,5.1-1.7,8.3-1.7c3.1,0,5.8,0.6,8.2,1.7
			c2.4,1.1,4.4,2.6,6.1,4.5c1.6,1.9,2.9,4,3.7,6.3c0.8,2.3,1.2,4.7,1.2,7.1c0,2.4-0.4,4.8-1.2,7.1c-0.8,2.3-2.1,4.4-3.7,6.3
			c-1.6,1.9-3.7,3.4-6.1,4.5C281.4,69.1,278.7,69.7,275.6,69.7z M275.6,66.3c2.2,0,4.2-0.4,6.1-1.2c1.9-0.8,3.5-1.9,4.9-3.4
			c1.4-1.4,2.4-3.2,3.2-5.2c0.8-2,1.2-4.2,1.2-6.5c0-2.3-0.4-4.5-1.2-6.5c-0.8-2-1.9-3.7-3.2-5.2c-1.4-1.4-3-2.6-4.9-3.4
			c-1.9-0.8-3.9-1.2-6.1-1.2c-2.2,0-4.3,0.4-6.2,1.2c-1.9,0.8-3.5,1.9-4.9,3.4c-1.4,1.4-2.4,3.2-3.2,5.2s-1.1,4.2-1.1,6.5
			c0,2.3,0.4,4.5,1.1,6.5s1.8,3.7,3.2,5.2c1.4,1.4,3,2.6,4.9,3.4C271.3,65.9,273.3,66.3,275.6,66.3z"/>
		<path class="st1" d="M304.5,31.2h3.9v5h0.1c1.1-1.6,2.5-3,4.4-4.2c1.9-1.2,4.4-1.7,7.4-1.7c2.1,0,4.1,0.3,5.9,0.9
			c1.8,0.6,3.3,1.6,4.6,2.8c1.3,1.3,2.2,2.8,2.9,4.7c0.7,1.9,1.1,4,1.1,6.4v23.6h-3.9V46.2c0-4.3-1-7.5-2.9-9.5c-1.9-2-4.5-3-7.8-3
			c-3.4,0-6.2,1.1-8.4,3.2c-2.2,2.1-3.3,5.3-3.3,9.6v22.3h-4V31.2z"/>
	</g>
	<g class="st0">
		<path class="st1" d="M362.6,15.4h29.8V25h-18.3v13.3H392v9.6h-17.9v20.9h-11.5V15.4z"/>
		<path class="st1" d="M398.8,31.2h10.3V37h0.1c1-2,2.3-3.6,4-4.8c1.6-1.2,3.8-1.9,6.4-1.9c1.4,0,2.6,0.2,3.6,0.5v9.9
			c-0.6-0.2-1.3-0.4-2.1-0.6c-0.8-0.1-1.7-0.2-2.5-0.2c-2.9,0-5.1,0.8-6.6,2.5c-1.5,1.7-2.2,4.2-2.2,7.4v18.9h-11V31.2z"/>
		<path class="st1" d="M447.8,69.7c-3.7,0-6.9-0.6-9.6-1.7c-2.7-1.2-4.9-2.6-6.6-4.5c-1.7-1.8-3-3.9-3.9-6.3
			c-0.9-2.4-1.3-4.8-1.3-7.2c0-2.2,0.4-4.4,1.1-6.8c0.7-2.3,1.9-4.4,3.5-6.3c1.6-1.9,3.7-3.5,6.2-4.7c2.6-1.2,5.7-1.9,9.4-1.9
			c3.7,0,6.8,0.6,9.3,1.8c2.5,1.2,4.6,2.8,6.1,4.7c1.5,1.9,2.6,4,3.3,6.3c0.7,2.3,1,4.5,1,6.6c0,1.1-0.1,2-0.2,2.7h-28.7
			c0.1,1.5,0.5,2.7,1.2,3.9c0.6,1.1,1.5,2,2.5,2.7c1,0.7,2.1,1.2,3.4,1.6c1.3,0.3,2.6,0.5,3.9,0.5c2.5,0,4.6-0.5,6.3-1.4
			c1.6-0.9,2.9-2.1,3.9-3.4l6,6.2c-1.6,2.1-3.7,3.8-6.5,5.1C455.2,69.1,451.8,69.7,447.8,69.7z M455.6,46c-0.6-2.6-1.7-4.5-3.3-5.8
			c-1.6-1.3-3.6-1.9-5.8-1.9c-2.2,0-4.2,0.6-5.8,1.9c-1.7,1.3-2.8,3.2-3.4,5.8H455.6z"/>
		<path class="st1" d="M492.5,69.7c-3.7,0-6.9-0.6-9.6-1.7c-2.7-1.2-4.9-2.6-6.6-4.5c-1.7-1.8-3-3.9-3.9-6.3
			c-0.9-2.4-1.3-4.8-1.3-7.2c0-2.2,0.4-4.4,1.1-6.8c0.7-2.3,1.9-4.4,3.5-6.3c1.6-1.9,3.7-3.5,6.2-4.7c2.6-1.2,5.7-1.9,9.4-1.9
			c3.7,0,6.8,0.6,9.3,1.8c2.5,1.2,4.6,2.8,6.1,4.7c1.5,1.9,2.6,4,3.3,6.3c0.7,2.3,1,4.5,1,6.6c0,1.1-0.1,2-0.2,2.7H482
			c0.1,1.5,0.5,2.7,1.2,3.9c0.6,1.1,1.5,2,2.5,2.7c1,0.7,2.1,1.2,3.4,1.6c1.3,0.3,2.6,0.5,3.9,0.5c2.5,0,4.6-0.5,6.3-1.4
			c1.6-0.9,2.9-2.1,3.9-3.4l6,6.2c-1.6,2.1-3.7,3.8-6.5,5.1C499.9,69.1,496.5,69.7,492.5,69.7z M500.3,46c-0.6-2.6-1.7-4.5-3.3-5.8
			c-1.6-1.3-3.6-1.9-5.8-1.9c-2.2,0-4.2,0.6-5.8,1.9c-1.7,1.3-2.8,3.2-3.4,5.8H500.3z"/>
		<path class="st1" d="M535.3,15.4h17.9c3.1,0,5.9,0.4,8.3,1.3c2.5,0.9,4.5,2.1,6.3,3.7c1.7,1.6,3,3.4,3.9,5.5
			c0.9,2.1,1.4,4.5,1.4,7.1c0,2.6-0.5,5-1.4,7.1c-0.9,2.2-2.3,4-4,5.6c-1.7,1.6-3.8,2.8-6.3,3.7s-5.2,1.3-8.2,1.3h-6.4v18.2h-11.5
			V15.4z M551.5,41.3c3.2,0,5.7-0.7,7.3-2.1c1.6-1.4,2.4-3.5,2.4-6.1c0-2.6-0.8-4.7-2.4-6.1c-1.6-1.4-4.1-2.2-7.3-2.2h-4.7v16.5
			H551.5z"/>
		<path class="st1" d="M579.2,31.2h10.3V37h0.1c1-2,2.3-3.6,4-4.8c1.6-1.2,3.8-1.9,6.4-1.9c1.4,0,2.6,0.2,3.6,0.5v9.9
			c-0.6-0.2-1.3-0.4-2.1-0.6c-0.8-0.1-1.7-0.2-2.5-0.2c-2.9,0-5.1,0.8-6.6,2.5c-1.5,1.7-2.2,4.2-2.2,7.4v18.9h-11V31.2z"/>
		<path class="st1" d="M628.1,69.7c-3.7,0-6.9-0.6-9.6-1.7c-2.7-1.2-4.9-2.6-6.6-4.5c-1.7-1.8-3-3.9-3.9-6.3
			c-0.9-2.4-1.3-4.8-1.3-7.2c0-2.2,0.4-4.4,1.1-6.8c0.7-2.3,1.9-4.4,3.5-6.3c1.6-1.9,3.7-3.5,6.2-4.7c2.6-1.2,5.7-1.9,9.4-1.9
			c3.7,0,6.8,0.6,9.3,1.8c2.5,1.2,4.6,2.8,6.1,4.7c1.5,1.9,2.6,4,3.3,6.3c0.7,2.3,1,4.5,1,6.6c0,1.1-0.1,2-0.2,2.7h-28.7
			c0.1,1.5,0.5,2.7,1.2,3.9c0.6,1.1,1.5,2,2.5,2.7c1,0.7,2.1,1.2,3.4,1.6c1.3,0.3,2.6,0.5,3.9,0.5c2.5,0,4.6-0.5,6.3-1.4
			c1.6-0.9,2.9-2.1,3.9-3.4l6,6.2c-1.6,2.1-3.7,3.8-6.5,5.1C635.5,69.1,632.1,69.7,628.1,69.7z M636,46c-0.6-2.6-1.7-4.5-3.3-5.8
			c-1.6-1.3-3.6-1.9-5.8-1.9c-2.2,0-4.2,0.6-5.8,1.9c-1.7,1.3-2.8,3.2-3.4,5.8H636z"/>
		<path class="st1" d="M665.9,69.7c-3.7,0-6.8-0.6-9.4-1.9c-2.6-1.3-4.6-2.8-5.9-4.6l5.2-6.3c1.2,1.4,2.6,2.5,4.3,3.5
			c1.7,0.9,3.6,1.4,5.7,1.4c1.8,0,3.2-0.3,4.2-1s1.5-1.6,1.5-2.8c0-0.8-0.2-1.4-0.6-1.9c-0.4-0.5-1-0.9-1.6-1.2
			c-0.7-0.3-1.5-0.6-2.4-0.9c-0.9-0.2-1.9-0.5-2.9-0.8c-1.5-0.4-2.9-0.9-4.2-1.5c-1.4-0.6-2.6-1.4-3.6-2.2c-1.1-0.9-1.9-1.9-2.6-3.2
			c-0.7-1.2-1-2.7-1-4.3c0-1.8,0.4-3.5,1.2-4.9c0.8-1.4,1.9-2.6,3.3-3.6c1.4-1,3-1.8,4.9-2.3s4-0.8,6.2-0.8c1.7,0,3.3,0.1,4.7,0.4
			c1.4,0.3,2.7,0.7,3.8,1.1c1.1,0.5,2.1,1,2.9,1.6c0.8,0.6,1.5,1.2,2.1,1.7l-5.2,6.5c-0.9-1-2-1.8-3.4-2.4c-1.4-0.6-2.9-0.9-4.7-0.9
			c-1.7,0-2.9,0.3-3.8,0.9c-0.8,0.6-1.2,1.3-1.2,2.2c0,0.6,0.2,1.1,0.6,1.5c0.4,0.4,0.9,0.8,1.6,1.1c0.7,0.3,1.4,0.6,2.2,0.8
			c0.8,0.2,1.6,0.4,2.5,0.7c1.6,0.5,3.1,1,4.5,1.6c1.5,0.6,2.8,1.4,3.9,2.3c1.1,0.9,2.1,2,2.7,3.3c0.7,1.3,1,2.8,1,4.6
			c0,1.9-0.4,3.6-1.2,5.2c-0.8,1.5-1.9,2.9-3.4,4c-1.4,1.1-3.1,1.9-5.1,2.5S668.3,69.7,665.9,69.7z"/>
		<path class="st1" d="M701.1,69.7c-3.7,0-6.8-0.6-9.4-1.9c-2.6-1.3-4.6-2.8-5.9-4.6l5.2-6.3c1.2,1.4,2.6,2.5,4.3,3.5
			c1.7,0.9,3.6,1.4,5.7,1.4c1.8,0,3.2-0.3,4.2-1s1.5-1.6,1.5-2.8c0-0.8-0.2-1.4-0.6-1.9c-0.4-0.5-1-0.9-1.6-1.2
			c-0.7-0.3-1.5-0.6-2.4-0.9c-0.9-0.2-1.9-0.5-2.9-0.8c-1.5-0.4-2.9-0.9-4.2-1.5c-1.4-0.6-2.6-1.4-3.6-2.2c-1.1-0.9-1.9-1.9-2.6-3.2
			c-0.7-1.2-1-2.7-1-4.3c0-1.8,0.4-3.5,1.2-4.9c0.8-1.4,1.9-2.6,3.3-3.6c1.4-1,3-1.8,4.9-2.3s4-0.8,6.2-0.8c1.7,0,3.3,0.1,4.7,0.4
			c1.4,0.3,2.7,0.7,3.8,1.1c1.1,0.5,2.1,1,2.9,1.6c0.8,0.6,1.5,1.2,2.1,1.7l-5.2,6.5c-0.9-1-2-1.8-3.4-2.4c-1.4-0.6-2.9-0.9-4.7-0.9
			c-1.7,0-2.9,0.3-3.8,0.9c-0.8,0.6-1.2,1.3-1.2,2.2c0,0.6,0.2,1.1,0.6,1.5c0.4,0.4,0.9,0.8,1.6,1.1c0.7,0.3,1.4,0.6,2.2,0.8
			c0.8,0.2,1.6,0.4,2.5,0.7c1.6,0.5,3.1,1,4.5,1.6c1.5,0.6,2.8,1.4,3.9,2.3c1.1,0.9,2.1,2,2.7,3.3c0.7,1.3,1,2.8,1,4.6
			c0,1.9-0.4,3.6-1.2,5.2c-0.8,1.5-1.9,2.9-3.4,4c-1.4,1.1-3.1,1.9-5.1,2.5S703.5,69.7,701.1,69.7z"/>
	</g>
	<path id="USAT_Network" class="st2" d="M318.8,85.9h4.9c3.4,0,5.7,2,5.7,5.2s-2.3,5.1-5.7,5.1h-2.5v6.4h-2.4V85.9z M323.4,94.2
		c2.3,0,3.5-1.3,3.5-3.2c0-1.9-1.2-3.2-3.5-3.2h-2.2v6.3C321.2,94.2,323.4,94.2,323.4,94.2z M336.2,85.9h2.1l6.9,16.7h-2.6l-1.7-4.4
		h-7.5l-1.7,4.4h-2.5C329.2,102.6,335.3,88,336.2,85.9L336.2,85.9z M340.1,96.3l-1.6-4.1c-0.2-0.6-1.3-3.2-1.3-3.4h0
		c0,0.2-1,2.7-1.3,3.4l-1.6,4.1H340.1L340.1,96.3z M347.7,85.9h4.9c3.2,0,5.6,1.6,5.6,5c0,2.5-1.8,4.5-4.3,4.7l5.2,7.1h-2.8
		l-4.9-6.8H350v6.8h-2.4L347.7,85.9L347.7,85.9z M352.3,93.9c2.2,0,3.5-1.2,3.5-3s-1.3-3-3.5-3H350v6L352.3,93.9L352.3,93.9z
		 M364.8,87.9H360v-2h12v2h-4.8v14.7h-2.4V87.9L364.8,87.9z M378.2,94.3c-0.1-4.9,3.8-9,8.7-9.1c4.9-0.1,9,3.8,9.1,8.7
		c0.1,4.9-3.8,9-8.7,9.1c-0.1,0-0.1,0-0.2,0c-4.7,0.2-8.7-3.5-8.9-8.2C378.2,94.6,378.2,94.5,378.2,94.3L378.2,94.3z M393.5,94.3
		c-0.1-3.6-3-6.4-6.6-6.3s-6.4,3-6.3,6.6c0.1,3.5,2.9,6.3,6.4,6.3c3.5,0.1,6.4-2.6,6.5-6.1C393.5,94.6,393.5,94.5,393.5,94.3
		L393.5,94.3z M399.4,85.9h8.5v2h-6.1v5.4h6v2h-6v7.3h-2.4V85.9L399.4,85.9z M418.7,87.9h-4.8v-2h12v2h-4.8v14.7h-2.4V87.9z
		 M428.4,85.9h2.4v6.9h8.9v-6.9h2.4v16.7h-2.4v-7.8h-8.9v7.8h-2.4L428.4,85.9L428.4,85.9z M446.4,85.9h9.2v2h-6.8v4.9h6.6v2h-6.6
		v5.9h7v2h-9.3L446.4,85.9L446.4,85.9z M463.8,96.9v-11h2.4v10.2c0,2.9,1.3,4.7,4.1,4.7c2.8,0,4.1-1.8,4.1-4.7V85.9h2.4v11
		c0,3.7-2.4,6.1-6.5,6.1C466.1,103,463.8,100.6,463.8,96.9L463.8,96.9z M479.3,99.6l1.6-1.4c0.8,1.6,2.5,2.6,4.2,2.6
		c1.9,0,3.3-1,3.3-2.8c0-2-1.7-2.6-3.7-3.5c-2.1-0.8-4.3-1.9-4.3-4.6c0-2.6,2.1-4.5,5.1-4.5c2-0.1,3.9,0.9,5,2.5l-1.6,1.4
		c-0.7-1.2-2-1.8-3.3-1.8c-1.6,0-2.7,0.8-2.7,2.2c0,1.7,1.7,2.3,3.2,2.9c2.4,0.9,4.8,2.1,4.8,5.1c0,2.9-2.2,5.1-5.6,5.1
		C482.7,103,480.5,101.7,479.3,99.6z M499,85.9h2.1l6.9,16.7h-2.6l-1.7-4.4h-7.5l-1.7,4.4h-2.5C492.1,102.6,498.2,88,499,85.9
		L499,85.9z M503,96.3l-1.6-4.1c-0.2-0.6-1.3-3.2-1.3-3.4h0c0,0.2-1,2.7-1.3,3.4l-1.6,4.1H503L503,96.3z M518.2,87.9h-4.8v-2h12v2
		h-4.8v14.7h-2.4V87.9z M526.3,94.3c-0.1-4.9,3.8-9,8.7-9.1c4.9-0.1,9,3.8,9.1,8.7c0.1,4.9-3.8,9-8.7,9.1c-0.1,0-0.1,0-0.2,0
		c-4.7,0.2-8.7-3.5-8.9-8.2C526.3,94.6,526.3,94.5,526.3,94.3L526.3,94.3z M541.6,94.3c-0.1-3.6-3-6.4-6.6-6.3
		c-3.6,0.1-6.4,3-6.3,6.6c0.1,3.5,2.9,6.3,6.4,6.3c3.5,0.1,6.4-2.6,6.5-6.1C541.6,94.6,541.6,94.5,541.6,94.3L541.6,94.3z
		 M547.5,85.9h4.8c5.4,0,9,3.1,9,8.4c0,5.3-3.6,8.4-9,8.4h-4.8V85.9L547.5,85.9z M549.9,100.6h2.2c4,0,6.7-2.1,6.7-6.3
		s-2.7-6.3-6.7-6.3h-2.2L549.9,100.6L549.9,100.6z M569,85.9h2.1l6.9,16.7h-2.6l-1.7-4.4h-7.5l-1.7,4.4H562
		C562,102.6,568.1,88,569,85.9L569,85.9z M573,96.3l-1.6-4.1c-0.2-0.6-1.3-3.2-1.3-3.4h0c0,0.2-1,2.7-1.3,3.4l-1.6,4.1H573L573,96.3
		z M582.8,95.8l-5.8-9.9h2.7l3.1,5.6c0.4,0.8,0.8,1.6,1.2,2.4h0c0.4-0.8,0.8-1.6,1.2-2.4l3.2-5.6h2.6l-5.8,9.9v6.8h-2.5L582.8,95.8
		L582.8,95.8z M598.1,85.9h1.8l9.6,10.8c0.3,0.3,1.5,1.9,1.7,2.1l0,0c0-0.2,0-2.2,0-2.6V85.9h2.3v16.7h-1.9L602,91.8
		c-0.3-0.3-1.5-1.9-1.7-2.1l0,0c0,0.2,0,2.2,0,2.6v10.3h-2.3L598.1,85.9L598.1,85.9z M617.9,85.9h9.2v2h-6.8v4.9h6.6v2h-6.6v5.9h7v2
		h-9.3L617.9,85.9L617.9,85.9z M634.5,87.9h-4.8v-2h12v2h-4.8v14.7h-2.4L634.5,87.9L634.5,87.9z M643.7,85.9h2.5l3.5,9.9
		c0.1,0.4,0.9,2.9,1,3.2h0c0.3-1.1,0.6-2.2,1-3.2l3.6-9.9h1.9l3.6,9.9c0.1,0.4,1,2.9,1,3.2h0c0-0.4,0.9-2.9,1-3.2l3.4-9.9h2.4
		l-6,16.7H661l-3.9-10.4c-0.3-0.9-0.6-1.8-0.8-2.7h0c-0.2,0.9-0.5,1.8-0.8,2.7l-3.9,10.4h-1.8L643.7,85.9z M669.9,94.3
		c-0.1-4.9,3.8-9,8.7-9.1c4.9-0.1,9,3.8,9.1,8.7c0.1,4.9-3.8,9-8.7,9.1c-0.1,0-0.1,0-0.2,0c-4.7,0.2-8.7-3.5-8.9-8.2
		C669.9,94.6,669.9,94.5,669.9,94.3L669.9,94.3z M685.2,94.3c-0.1-3.6-3-6.4-6.6-6.3c-3.6,0.1-6.4,3-6.3,6.6
		c0.1,3.5,2.9,6.3,6.4,6.3c3.5,0.1,6.4-2.6,6.5-6.1C685.2,94.6,685.2,94.5,685.2,94.3L685.2,94.3z M691.1,85.9h4.9
		c3.2,0,5.6,1.6,5.6,5c0,2.5-1.8,4.5-4.3,4.7l5.2,7.1h-2.8l-4.9-6.8h-1.3v6.8h-2.4L691.1,85.9L691.1,85.9z M695.7,93.9
		c2.2,0,3.5-1.2,3.5-3s-1.3-3-3.5-3h-2.2v6H695.7z M705.2,85.9h2.4v7.8l7-7.8h2.9l-7.3,8l7.6,8.7h-3l-7.2-8.5v8.5h-2.4L705.2,85.9
		L705.2,85.9z"/>
</g>
</svg>
