<svg xmlns="http://www.w3.org/2000/svg" width="349" height="55" viewBox="0 0 349 55">
  <g fill="none" fill-rule="evenodd">
    <path class='no-color-change' fill="#009BFF" d="M54.176,27.824 C54.176,42.737 42.089,54.824 27.176,54.824 C12.263,54.824 0.176,42.737 0.176,27.824 C0.176,12.911 12.263,0.824 27.176,0.824 C42.089,0.824 54.176,12.911 54.176,27.824"/>
    <path fill="#404040" d="M69.536 21.551C70.515 21.551 71.27 21.263 71.805 20.686 72.338 20.108 72.606 19.287 72.606 18.221L72.606 7.441 77.484 7.441 77.484 18.195C77.484 20.555 76.792 22.384 75.412 23.676 74.029 24.971 72.071 25.617 69.536 25.617 67.001 25.617 65.042 24.971 63.661 23.676 62.279 22.384 61.588 20.555 61.588 18.195L61.588 7.441 66.467 7.441 66.467 18.221C66.467 19.287 66.733 20.108 67.268 20.686 67.801 21.263 68.556 21.551 69.536 21.551M87.241 25.617C85.789 25.617 84.399 25.369 83.072 24.87 81.742 24.372 80.587 23.659 79.608 22.732L81.97 19.767C82.669 20.398 83.456 20.892 84.33 21.25 85.203 21.609 86.166 21.788 87.215 21.788 87.914 21.788 88.466 21.666 88.866 21.421 89.27 21.176 89.471 20.809 89.471 20.319 89.471 19.847 89.234 19.466 88.763 19.178 88.29 18.89 87.46 18.589 86.271 18.274L85.17 17.984C83.559 17.566 82.337 16.922 81.497 16.058 80.657 15.191 80.237 14.095 80.237 12.765 80.237 11.629 80.534 10.631 81.13 9.774 81.723 8.919 82.546 8.258 83.595 7.795 84.644 7.331 85.859 7.1 87.241 7.1 88.605 7.1 89.908 7.349 91.149 7.848 92.39 8.347 93.492 9.023 94.455 9.88L92.014 12.95C91.385 12.407 90.646 11.934 89.799 11.534 88.949 11.13 88.106 10.929 87.268 10.929 86.567 10.929 86.031 11.048 85.654 11.283 85.279 11.52 85.091 11.865 85.091 12.319 85.091 12.739 85.286 13.102 85.68 13.408 86.073 13.714 86.752 13.999 87.712 14.261L89.051 14.628C90.974 15.151 92.334 15.869 93.129 16.779 93.926 17.688 94.323 18.745 94.323 19.952 94.323 21.09 94.029 22.08 93.443 22.93 92.858 23.777 92.032 24.436 90.965 24.909 89.899 25.382 88.657 25.617 87.241 25.617M102.48 18.327L106.702 18.327 104.604 12.083 102.48 18.327zM109.062 25.276L107.934 21.945 101.246 21.945 100.118 25.276 95.293 25.276 101.824 7.441 107.49 7.441 114.019 25.276 109.062 25.276 109.062 25.276z"/>
    <polyline fill="#404040" points="125.218 25.276 125.218 11.375 119.92 11.375 119.92 7.441 135.395 7.441 135.395 11.375 130.097 11.375 130.097 25.276 125.218 25.276"/>
    <path fill="#404040" d="M145.597 21.578C146.454 21.578 147.202 21.359 147.841 20.922 148.479 20.485 148.982 19.879 149.349 19.099 149.717 18.321 149.899 17.417 149.899 16.385 149.899 15.353 149.717 14.443 149.349 13.658 148.982 12.87 148.479 12.255 147.841 11.808 147.202 11.362 146.454 11.14 145.597 11.14 144.74 11.14 143.993 11.362 143.356 11.808 142.718 12.255 142.215 12.87 141.848 13.658 141.481 14.443 141.296 15.353 141.296 16.385 141.296 17.417 141.481 18.321 141.848 19.099 142.215 19.879 142.718 20.485 143.356 20.922 143.993 21.359 144.74 21.578 145.597 21.578zM145.597 25.617C143.814 25.617 142.228 25.224 140.838 24.436 139.449 23.651 138.35 22.562 137.546 21.173 136.742 19.781 136.339 18.185 136.339 16.385 136.339 15.021 136.567 13.775 137.021 12.646 137.476 11.52 138.122 10.541 138.963 9.71 139.803 8.88 140.78 8.238 141.901 7.782 143.019 7.328 144.251 7.1 145.597 7.1 146.944 7.1 148.178 7.328 149.297 7.782 150.415 8.238 151.395 8.88 152.235 9.71 153.073 10.541 153.72 11.52 154.175 12.646 154.63 13.775 154.856 15.021 154.856 16.385 154.856 18.185 154.455 19.781 153.651 21.173 152.846 22.562 151.749 23.651 150.359 24.436 148.969 25.224 147.381 25.617 145.597 25.617L145.597 25.617zM162.463 21.421L164.693 21.421C165.968 21.421 166.979 20.958 167.721 20.031 168.466 19.104 168.837 17.88 168.837 16.359 168.837 14.837 168.466 13.615 167.721 12.686 166.979 11.76 165.968 11.296 164.693 11.296L162.463 11.296 162.463 21.421zM157.662 25.276L157.662 7.441 164.693 7.441C166.458 7.441 168.019 7.821 169.375 8.582 170.729 9.343 171.791 10.392 172.562 11.729 173.33 13.066 173.715 14.611 173.715 16.359 173.715 18.108 173.33 19.651 172.562 20.988 171.791 22.325 170.729 23.374 169.375 24.135 168.019 24.896 166.458 25.276 164.693 25.276L157.662 25.276 157.662 25.276zM181.531 18.327L185.753 18.327 183.655 12.083 181.531 18.327zM188.113 25.276L186.985 21.945 180.297 21.945 179.168 25.276 174.344 25.276 180.875 7.441 186.54 7.441 193.07 25.276 188.113 25.276 188.113 25.276z"/>
    <polyline fill="#404040" points="202.513 18.85 202.513 25.276 197.556 25.276 197.556 18.85 191.234 7.441 196.742 7.441 200.048 14.522 203.324 7.441 208.833 7.441 202.513 18.85"/>
    <polyline fill="#404040" points="227.797 25.276 220.795 14.995 220.795 25.276 216.309 25.276 216.309 7.441 220.769 7.441 227.744 17.907 227.744 7.441 232.257 7.441 232.257 25.276 227.797 25.276"/>
    <polyline fill="#404040" points="236.19 25.276 236.19 7.441 248.491 7.441 248.491 11.349 240.964 11.349 240.964 14.366 247.652 14.366 247.652 18.274 240.964 18.274 240.964 21.368 248.911 21.368 248.911 25.276 236.19 25.276"/>
    <polyline fill="#404040" points="255.912 25.276 255.912 11.375 250.615 11.375 250.615 7.441 266.09 7.441 266.09 11.375 260.792 11.375 260.792 25.276 255.912 25.276"/>
    <polyline fill="#404040" points="282.56 25.276 279.677 13.684 276.791 25.276 271.623 25.276 267.192 7.441 271.911 7.441 274.615 19.611 277.603 7.441 281.775 7.441 284.738 19.532 287.519 7.441 292.161 7.441 287.728 25.276 282.56 25.276"/>
    <path fill="#404040" d="M302.546 21.578C303.404 21.578 304.151 21.359 304.789 20.922 305.428 20.485 305.931 19.879 306.298 19.099 306.665 18.321 306.848 17.417 306.848 16.385 306.848 15.353 306.665 14.443 306.298 13.658 305.931 12.87 305.428 12.255 304.789 11.808 304.151 11.362 303.404 11.14 302.546 11.14 301.69 11.14 300.942 11.362 300.305 11.808 299.666 12.255 299.163 12.87 298.796 13.658 298.429 14.443 298.244 15.353 298.244 16.385 298.244 17.417 298.429 18.321 298.796 19.099 299.163 19.879 299.666 20.485 300.305 20.922 300.942 21.359 301.69 21.578 302.546 21.578zM302.546 25.617C300.763 25.617 299.177 25.224 297.787 24.436 296.397 23.651 295.299 22.562 294.495 21.173 293.691 19.781 293.287 18.185 293.287 16.385 293.287 15.021 293.516 13.775 293.969 12.646 294.425 11.52 295.072 10.541 295.911 9.71 296.751 8.88 297.729 8.238 298.849 7.782 299.968 7.328 301.199 7.1 302.546 7.1 303.893 7.1 305.126 7.328 306.245 7.782 307.364 8.238 308.343 8.88 309.183 9.71 310.022 10.541 310.669 11.52 311.123 12.646 311.579 13.775 311.805 15.021 311.805 16.385 311.805 18.185 311.404 19.781 310.6 21.173 309.795 22.562 308.698 23.651 307.308 24.436 305.917 25.224 304.33 25.617 302.546 25.617L302.546 25.617zM319.386 15.65L322.009 15.65C322.761 15.65 323.356 15.454 323.792 15.061 324.23 14.667 324.448 14.129 324.448 13.447 324.448 12.801 324.23 12.279 323.792 11.888 323.356 11.494 322.761 11.296 322.009 11.296L319.386 11.296 319.386 15.65zM319.386 19.35L319.386 25.276 314.664 25.276 314.664 7.441 322.532 7.441C324.633 7.441 326.292 7.979 327.516 9.055 328.74 10.13 329.353 11.594 329.353 13.447 329.353 14.654 329.081 15.694 328.54 16.568 327.998 17.443 327.238 18.125 326.258 18.615L329.905 25.276 324.71 25.276 321.747 19.35 319.386 19.35 319.386 19.35z"/>
    <polyline fill="#404040" points="343.044 25.276 337.379 16.557 337.379 25.276 332.526 25.276 332.526 7.441 337.379 7.441 337.379 15.27 343.253 7.441 348.867 7.441 342.257 15.637 348.736 25.276 343.044 25.276"/>
    <polyline class='no-color-change' fill="#009BFF" points="78.559 30.293 72.107 48.129 66.783 48.129 60.33 30.293 65.445 30.293 69.483 42.726 73.654 30.293 78.559 30.293"/>
    <polyline class='no-color-change' fill="#009BFF" points="80.892 48.129 80.892 30.293 93.195 30.293 93.195 34.202 85.667 34.202 85.667 37.219 92.355 37.219 92.355 41.127 85.667 41.127 85.667 44.221 93.615 44.221 93.615 48.129 80.892 48.129"/>
    <path class='no-color-change' fill="#009BFF" d="M101.403,38.503 L104.026,38.503 C104.778,38.503 105.372,38.307 105.809,37.913 C106.246,37.52 106.465,36.982 106.465,36.3 C106.465,35.654 106.246,35.132 105.809,34.741 C105.372,34.347 104.778,34.149 104.026,34.149 L101.403,34.149 L101.403,38.503 Z M101.403,42.203 L101.403,48.129 L96.681,48.129 L96.681,30.293 L104.55,30.293 C106.65,30.293 108.309,30.832 109.533,31.908 C110.757,32.983 111.369,34.447 111.369,36.3 C111.369,37.507 111.098,38.546 110.557,39.42 C110.015,40.296 109.254,40.978 108.275,41.468 L111.921,48.129 L106.727,48.129 L103.764,42.203 L101.403,42.203 L101.403,42.203 Z"/>
    <polyline class='no-color-change' fill="#009BFF" points="122.728 46.478 118.661 37.061 118.661 48.129 114.543 48.129 114.543 30.293 119.999 30.293 124.668 41.442 129.205 30.293 134.661 30.293 134.661 48.129 130.594 48.129 130.594 36.929 126.478 46.478 122.728 46.478"/>
    <path class='no-color-change' fill="#009BFF" d="M146.829,44.43 C147.686,44.43 148.434,44.212 149.073,43.775 C149.711,43.338 150.214,42.732 150.581,41.951 C150.948,41.174 151.131,40.27 151.131,39.238 C151.131,38.205 150.948,37.296 150.581,36.511 C150.214,35.723 149.711,35.108 149.073,34.662 C148.434,34.215 147.686,33.993 146.829,33.993 C145.972,33.993 145.225,34.215 144.588,34.662 C143.949,35.108 143.447,35.723 143.079,36.511 C142.712,37.296 142.528,38.205 142.528,39.238 C142.528,40.27 142.712,41.174 143.079,41.951 C143.447,42.732 143.949,43.338 144.588,43.775 C145.225,44.212 145.972,44.43 146.829,44.43 Z M146.829,48.47 C145.046,48.47 143.46,48.077 142.07,47.289 C140.68,46.504 139.582,45.415 138.778,44.026 C137.974,42.633 137.571,41.038 137.571,39.238 C137.571,37.874 137.799,36.627 138.252,35.499 C138.708,34.373 139.354,33.394 140.194,32.563 C141.034,31.733 142.011,31.09 143.132,30.634 C144.251,30.181 145.483,29.953 146.829,29.953 C148.176,29.953 149.409,30.181 150.528,30.634 C151.647,31.09 152.626,31.733 153.466,32.563 C154.304,33.394 154.952,34.373 155.406,35.499 C155.862,36.627 156.088,37.874 156.088,39.238 C156.088,41.038 155.687,42.633 154.883,44.026 C154.078,45.415 152.98,46.504 151.591,47.289 C150.2,48.077 148.613,48.47 146.829,48.47 L146.829,48.47 Z"/>
    <polyline class='no-color-change' fill="#009BFF" points="170.488 48.129 163.486 37.848 163.486 48.129 159 48.129 159 30.293 163.459 30.293 170.435 40.759 170.435 30.293 174.948 30.293 174.948 48.129 170.488 48.129"/>
    <polyline class='no-color-change' fill="#009BFF" points="182.815 48.129 182.815 34.228 177.517 34.228 177.517 30.293 192.992 30.293 192.992 34.228 187.695 34.228 187.695 48.129 182.815 48.129"/>
  </g>
</svg>
