<svg xmlns="http://www.w3.org/2000/svg" width="473" height="46" viewBox="0 0 473 46">
  <g fill="none" fill-rule="evenodd">
    <path fill="#404040" d="M8.142 28.25L13.812 28.25C14.832 28.25 15.657 27.965 16.287 27.394 16.917 26.825 17.232 26.12 17.232 25.28 17.232 24.38 16.917 23.645 16.287 23.075 15.657 22.505 14.832 22.22 13.812 22.22L8.142 22.22 8.142 28.25zM8.142 16.19L13.047 16.19C14.037 16.19 14.817 15.928 15.387 15.402 15.957 14.878 16.242 14.165 16.242 13.265 16.242 12.395 15.942 11.705 15.342 11.195 14.742 10.685 13.947 10.429 12.957 10.429L8.142 10.429 8.142 16.19zM25.512 26.224C25.512 27.875 25.047 29.338 24.117 30.612 23.187 31.888 21.874 32.878 20.18 33.582 18.484 34.287 16.497 34.639 14.217 34.639L.357 34.639.357 4.04 13.632 4.04C16.932 4.04 19.534 4.753 21.44 6.178 23.344 7.602 24.297 9.545 24.297 12.005 24.297 13.709 23.87 15.167 23.015 16.378 22.16 17.59 21.087 18.479 19.797 19.047 21.536 19.59 22.924 20.492 23.96 21.757 24.995 23.02 25.512 24.51 25.512 26.224zM44.907 34.639L44.502 31.625C43.752 32.735 42.77 33.612 41.555 34.257 40.34 34.902 39.027 35.224 37.617 35.224 34.947 35.224 32.907 34.437 31.497 32.862 30.087 31.287 29.382 29.014 29.382 26.045L29.382 11.735 37.212 11.735 37.212 25.144C37.212 27.635 38.352 28.88 40.632 28.88 43.032 28.88 44.232 27.38 44.232 24.38L44.232 11.735 52.062 11.735 52.062 34.639 44.907 34.639M65.381 25.775L65.381 34.639 57.552 34.639 57.552 11.735 64.706 11.735 65.202 15.559C65.681 14.33 66.469 13.332 67.564 12.567 68.659 11.803 69.927 11.42 71.367 11.42 72.177 11.42 72.791 11.525 73.211 11.735L73.211 18.89C72.881 18.77 72.514 18.681 72.109 18.62 71.704 18.56 71.246 18.53 70.736 18.53 69.176 18.53 67.894 19.108 66.889 20.262 65.884 21.418 65.381 23.255 65.381 25.775"/>
    <polygon fill="#404040" points="76.991 34.64 84.821 34.64 84.821 1.79 76.991 1.79"/>
    <path fill="#404040" d="M90.311 34.639L90.311 11.735C91.571 12.005 92.846 12.14 94.136 12.14 95.455 12.14 96.791 12.005 98.141 11.735L98.141 34.639 90.311 34.639M111.46 21.995L111.46 34.639 103.63 34.639 103.63 11.735 110.785 11.735 111.19 14.75C111.94 13.67 112.915 12.8 114.115 12.14 115.315 11.48 116.635 11.15 118.075 11.15 120.565 11.15 122.56 11.96 124.06 13.58 125.56 15.2 126.31 17.525 126.31 20.555L126.31 34.639 118.48 34.639 118.48 21.455C118.48 20.105 118.18 19.108 117.58 18.462 116.98 17.817 116.14 17.495 115.06 17.495 113.98 17.495 113.11 17.84 112.45 18.53 111.79 19.221 111.46 20.375 111.46 21.995M142.42 27.755C143.74 27.755 144.805 27.282 145.615 26.337 146.425 25.392 146.83 24.125 146.83 22.535 146.83 20.945 146.425 19.678 145.615 18.732 144.805 17.787 143.74 17.315 142.42 17.315 141.07 17.315 139.99 17.787 139.18 18.732 138.37 19.678 137.965 20.945 137.965 22.535 137.965 24.095 138.37 25.355 139.18 26.315 139.99 27.275 141.07 27.755 142.42 27.755zM154.57 32.21C154.57 34.55 154.03 36.553 152.95 38.217 151.87 39.882 150.377 41.157 148.472 42.042 146.567 42.927 144.355 43.37 141.835 43.37 139.794 43.37 137.859 43.099 136.03 42.559 134.2 42.019 132.565 41.3 131.125 40.4L134.05 35.36C135.069 35.96 136.142 36.447 137.267 36.822 138.392 37.197 139.555 37.385 140.755 37.385 142.764 37.385 144.265 36.934 145.255 36.035 146.245 35.135 146.74 33.86 146.74 32.21L146.74 31.4C145.959 32.181 145.022 32.803 143.927 33.267 142.832 33.733 141.684 33.965 140.485 33.965 138.415 33.965 136.592 33.477 135.017 32.502 133.442 31.528 132.212 30.177 131.327 28.452 130.442 26.727 130 24.755 130 22.535 130 20.285 130.434 18.305 131.305 16.595 132.174 14.885 133.389 13.55 134.95 12.59 136.509 11.63 138.309 11.15 140.35 11.15 141.729 11.15 143.012 11.48 144.197 12.14 145.382 12.8 146.319 13.67 147.01 14.75L147.415 11.735 154.57 11.735 154.57 32.21zM176.935 33.155C176.004 33.785 174.939 34.287 173.74 34.662 172.539 35.037 171.279 35.224 169.96 35.224 167.499 35.224 165.542 34.513 164.087 33.087 162.632 31.663 161.905 29.75 161.905 27.349L161.905 17.585 158.169 17.585 158.169 11.735 162.264 11.735 163.254 5.344 169.734 5.344 169.734 11.735 175.72 11.735 175.72 17.585 169.734 17.585 169.734 26.36C169.734 27.14 169.967 27.748 170.432 28.182 170.897 28.618 171.519 28.835 172.3 28.835 172.689 28.835 173.087 28.76 173.492 28.61 173.897 28.46 174.28 28.28 174.639 28.07L176.935 33.155M191.109 29.014C192.489 29.014 193.591 28.482 194.417 27.417 195.241 26.352 195.654 24.935 195.654 23.165 195.654 21.395 195.241 19.985 194.417 18.934 193.591 17.885 192.489 17.36 191.109 17.36 189.729 17.36 188.626 17.885 187.802 18.934 186.976 19.985 186.564 21.395 186.564 23.165 186.564 24.935 186.976 26.352 187.802 27.417 188.626 28.482 189.729 29.014 191.109 29.014zM191.109 35.224C188.649 35.224 186.481 34.707 184.607 33.672 182.731 32.638 181.261 31.22 180.197 29.42 179.131 27.62 178.599 25.535 178.599 23.165 178.599 20.795 179.131 18.71 180.197 16.91 181.261 15.11 182.731 13.7 184.607 12.68 186.481 11.66 188.649 11.15 191.109 11.15 193.569 11.15 195.736 11.66 197.612 12.68 199.486 13.7 200.956 15.11 202.022 16.91 203.086 18.71 203.619 20.795 203.619 23.165 203.619 25.535 203.086 27.62 202.022 29.42 200.956 31.22 199.486 32.638 197.612 33.672 195.736 34.707 193.569 35.224 191.109 35.224zM215.544 21.995L215.544 34.639 207.714 34.639 207.714 11.735 214.869 11.735 215.274 14.75C216.023 13.67 216.999 12.8 218.199 12.14 219.398 11.48 220.719 11.15 222.159 11.15 224.649 11.15 226.644 11.96 228.144 13.58 229.644 15.2 230.394 17.525 230.394 20.555L230.394 34.639 222.564 34.639 222.564 21.455C222.564 20.105 222.264 19.108 221.664 18.462 221.064 17.817 220.224 17.495 219.144 17.495 218.064 17.495 217.194 17.84 216.534 18.53 215.874 19.221 215.544 20.375 215.544 21.995"/>
    <polyline fill="#009BFF" class='no-color-change' points="255.278 34.639 246.908 34.639 246.908 4.04 268.418 4.04 268.418 10.745 255.278 10.745 255.278 16.865 266.168 16.865 266.168 23.57 255.278 23.57 255.278 34.639"/>
    <path fill="#009BFF" class='no-color-change' d="M280.253 25.775L280.253 34.639 272.423 34.639 272.423 11.735 279.577 11.735 280.073 15.559C280.552 14.33 281.34 13.332 282.435 12.567 283.53 11.803 284.798 11.42 286.238 11.42 287.048 11.42 287.662 11.525 288.083 11.735L288.083 18.89C287.752 18.77 287.385 18.681 286.98 18.62 286.575 18.56 286.117 18.53 285.608 18.53 284.048 18.53 282.765 19.108 281.76 20.262 280.755 21.418 280.253 23.255 280.253 25.775M302.707 16.82C300.157 16.82 298.627 18.17 298.117 20.87L306.847 20.87C306.637 19.4 306.134 18.357 305.34 17.742 304.544 17.128 303.667 16.82 302.707 16.82zM313.417 32.3C312.277 33.11 310.829 33.8 309.075 34.37 307.32 34.939 305.452 35.224 303.472 35.224 300.742 35.224 298.409 34.722 296.474 33.717 294.54 32.713 293.055 31.309 292.02 29.51 290.985 27.71 290.467 25.64 290.467 23.3 290.467 20.931 290.977 18.83 291.997 17 293.016 15.17 294.427 13.737 296.227 12.702 298.027 11.667 300.127 11.15 302.527 11.15 304.867 11.15 306.93 11.652 308.715 12.657 310.499 13.663 311.894 15.057 312.9 16.842 313.905 18.628 314.407 20.72 314.407 23.12 314.407 23.45 314.385 23.795 314.34 24.155 314.295 24.515 314.242 24.89 314.182 25.28L298.207 25.28C298.927 27.92 300.891 29.24 304.102 29.24 305.542 29.24 306.817 29.014 307.927 28.565 309.036 28.115 309.967 27.665 310.717 27.215L313.417 32.3zM329.257 16.82C326.707 16.82 325.177 18.17 324.667 20.87L333.397 20.87C333.187 19.4 332.684 18.357 331.889 17.742 331.095 17.128 330.217 16.82 329.257 16.82zM339.967 32.3C338.826 33.11 337.38 33.8 335.625 34.37 333.869 34.939 332.002 35.224 330.022 35.224 327.292 35.224 324.96 34.722 323.025 33.717 321.09 32.713 319.605 31.309 318.57 29.51 317.534 27.71 317.017 25.64 317.017 23.3 317.017 20.931 317.527 18.83 318.547 17 319.567 15.17 320.977 13.737 322.777 12.702 324.577 11.667 326.677 11.15 329.077 11.15 331.417 11.15 333.479 11.652 335.264 12.657 337.049 13.663 338.444 15.057 339.45 16.842 340.454 18.628 340.957 20.72 340.957 23.12 340.957 23.45 340.935 23.795 340.889 24.155 340.845 24.515 340.792 24.89 340.732 25.28L324.757 25.28C325.477 27.92 327.442 29.24 330.652 29.24 332.092 29.24 333.367 29.014 334.477 28.565 335.587 28.115 336.517 27.665 337.267 27.215L339.967 32.3zM364.492 18.035L368.541 18.035C369.831 18.035 370.851 17.697 371.601 17.022 372.351 16.348 372.726 15.455 372.726 14.344 372.726 13.235 372.351 12.342 371.601 11.667 370.851 10.992 369.831 10.655 368.541 10.655L364.492 10.655 364.492 18.035zM356.391 34.639L356.391 4.04 369.351 4.04C372.951 4.04 375.801 4.962 377.902 6.807 380.001 8.652 381.052 11.165 381.052 14.344 381.052 16.415 380.579 18.208 379.634 19.723 378.689 21.237 377.362 22.408 375.652 23.232 373.942 24.057 371.901 24.47 369.532 24.47L364.492 24.47 364.492 34.639 356.391 34.639zM392.886 25.775L392.886 34.639 385.056 34.639 385.056 11.735 392.211 11.735 392.706 15.559C393.185 14.33 393.973 13.332 395.069 12.567 396.163 11.803 397.431 11.42 398.871 11.42 399.681 11.42 400.296 11.525 400.716 11.735L400.716 18.89C400.386 18.77 400.018 18.681 399.614 18.62 399.208 18.56 398.751 18.53 398.241 18.53 396.681 18.53 395.398 19.108 394.393 20.262 393.388 21.418 392.886 23.255 392.886 25.775M415.341 16.82C412.79 16.82 411.26 18.17 410.75 20.87L419.48 20.87C419.27 19.4 418.767 18.357 417.973 17.742 417.178 17.128 416.3 16.82 415.341 16.82zM426.05 32.3C424.91 33.11 423.463 33.8 421.708 34.37 419.953 34.939 418.085 35.224 416.105 35.224 413.375 35.224 411.043 34.722 409.108 33.717 407.173 32.713 405.688 31.309 404.653 29.51 403.618 27.71 403.1 25.64 403.1 23.3 403.1 20.931 403.61 18.83 404.63 17 405.65 15.17 407.06 13.737 408.861 12.702 410.66 11.667 412.76 11.15 415.16 11.15 417.5 11.15 419.563 11.652 421.348 12.657 423.133 13.663 424.527 15.057 425.533 16.842 426.537 18.628 427.04 20.72 427.04 23.12 427.04 23.45 427.018 23.795 426.973 24.155 426.928 24.515 426.875 24.89 426.815 25.28L410.841 25.28C411.56 27.92 413.525 29.24 416.736 29.24 418.176 29.24 419.45 29.014 420.56 28.565 421.67 28.115 422.6 27.665 423.35 27.215L426.05 32.3zM439.55 35.224C437.57 35.224 435.718 34.91 433.992 34.28 432.267 33.65 430.715 32.75 429.335 31.58L432.665 27.17C433.715 28.01 434.847 28.693 436.063 29.217 437.278 29.743 438.47 30.005 439.64 30.005 440.42 30.005 441.042 29.87 441.508 29.599 441.972 29.33 442.205 28.925 442.205 28.385 442.205 27.815 441.942 27.357 441.418 27.012 440.892 26.668 439.955 26.33 438.605 26L436.445 25.46C432.155 24.32 430.01 22.025 430.01 18.575 430.01 17.045 430.43 15.725 431.27 14.615 432.11 13.505 433.265 12.65 434.735 12.05 436.204 11.45 437.915 11.15 439.865 11.15 441.784 11.15 443.593 11.45 445.287 12.05 446.982 12.65 448.534 13.52 449.945 14.66L446.525 19.16C445.474 18.32 444.365 17.645 443.195 17.135 442.025 16.625 440.93 16.37 439.91 16.37 438.26 16.37 437.435 16.91 437.435 17.99 437.435 18.47 437.682 18.86 438.178 19.16 438.673 19.46 439.37 19.73 440.27 19.97L443.195 20.78C445.385 21.38 447.005 22.28 448.055 23.48 449.105 24.68 449.63 26.105 449.63 27.755 449.63 29.255 449.21 30.567 448.37 31.692 447.53 32.817 446.352 33.687 444.838 34.303 443.323 34.917 441.56 35.224 439.55 35.224M462.41 35.224C460.43 35.224 458.577 34.91 456.852 34.28 455.127 33.65 453.575 32.75 452.195 31.58L455.525 27.17C456.575 28.01 457.707 28.693 458.923 29.217 460.138 29.743 461.33 30.005 462.5 30.005 463.28 30.005 463.902 29.87 464.367 29.599 464.832 29.33 465.065 28.925 465.065 28.385 465.065 27.815 464.802 27.357 464.278 27.012 463.752 26.668 462.815 26.33 461.465 26L459.305 25.46C455.014 24.32 452.87 22.025 452.87 18.575 452.87 17.045 453.29 15.725 454.13 14.615 454.97 13.505 456.125 12.65 457.595 12.05 459.064 11.45 460.775 11.15 462.725 11.15 464.644 11.15 466.452 11.45 468.147 12.05 469.842 12.65 471.394 13.52 472.805 14.66L469.385 19.16C468.334 18.32 467.225 17.645 466.055 17.135 464.885 16.625 463.789 16.37 462.77 16.37 461.12 16.37 460.295 16.91 460.295 17.99 460.295 18.47 460.542 18.86 461.037 19.16 461.533 19.46 462.23 19.73 463.13 19.97L466.055 20.78C468.244 21.38 469.865 22.28 470.915 23.48 471.965 24.68 472.49 26.105 472.49 27.755 472.49 29.255 472.07 30.567 471.23 31.692 470.39 32.817 469.212 33.687 467.698 34.303 466.182 34.917 464.42 35.224 462.41 35.224"/>
    <path fill="#404040" d="M1.126 42.959L2.14 42.959C2.473 42.959 2.737 42.877 2.931 42.713 3.125 42.549 3.222 42.325 3.222 42.042 3.222 41.758 3.125 41.535 2.931 41.371 2.737 41.206 2.473 41.125 2.14 41.125L1.126 41.125 1.126 42.959zM.373 45.561L.373 40.491 2.14 40.491C2.707 40.491 3.157 40.63 3.49 40.908 3.823 41.187 3.99 41.564 3.99 42.042 3.99 42.514 3.823 42.888 3.49 43.164 3.157 43.439 2.707 43.577 2.14 43.577L1.126 43.577 1.126 45.561.373 45.561zM5.511 43.652L7.36 43.652 6.435 41.274 5.511 43.652zM8.098 45.561L7.606 44.286 5.264 44.286 4.772 45.561 4.012 45.561 6.04 40.491 6.853 40.491 8.873 45.561 8.098 45.561zM10.469 42.884L11.505 42.884C11.828 42.884 12.085 42.805 12.277 42.646 12.468 42.487 12.564 42.273 12.564 42.004 12.564 41.736 12.468 41.522 12.277 41.363 12.085 41.204 11.828 41.125 11.505 41.125L10.469 41.125 10.469 42.884zM10.469 43.503L10.469 45.561 9.716 45.561 9.716 40.491 11.505 40.491C12.067 40.491 12.512 40.626 12.84 40.897 13.168 41.168 13.332 41.537 13.332 42.004 13.332 42.358 13.232 42.656 13.034 42.899 12.835 43.143 12.561 43.314 12.213 43.414L13.444 45.561 12.586 45.561 11.431 43.503 10.469 43.503z"/>
    <polyline fill="#404040" points="15.494 45.561 15.494 41.125 13.786 41.125 13.786 40.491 17.954 40.491 17.954 41.125 16.247 41.125 16.247 45.561 15.494 45.561"/>
    <path fill="#404040" d="M22.793,44.987 C23.121,44.987 23.413,44.903 23.669,44.737 C23.925,44.571 24.125,44.34 24.27,44.047 C24.414,43.754 24.486,43.414 24.486,43.026 C24.486,42.638 24.414,42.298 24.27,42.004 C24.125,41.711 23.925,41.481 23.669,41.315 C23.413,41.148 23.121,41.065 22.793,41.065 C22.465,41.065 22.174,41.148 21.921,41.315 C21.667,41.481 21.468,41.711 21.324,42.004 C21.18,42.298 21.108,42.638 21.108,43.026 C21.108,43.414 21.18,43.754 21.324,44.047 C21.468,44.34 21.667,44.571 21.921,44.737 C22.174,44.903 22.465,44.987 22.793,44.987 Z M22.793,45.643 C22.316,45.643 21.894,45.531 21.526,45.307 C21.158,45.084 20.868,44.775 20.657,44.383 C20.446,43.99 20.34,43.538 20.34,43.026 C20.34,42.514 20.446,42.062 20.657,41.669 C20.868,41.276 21.158,40.968 21.526,40.744 C21.894,40.521 22.316,40.409 22.793,40.409 C23.27,40.409 23.694,40.521 24.064,40.744 C24.435,40.968 24.725,41.276 24.937,41.669 C25.148,42.062 25.254,42.514 25.254,43.026 C25.254,43.538 25.148,43.99 24.937,44.383 C24.725,44.775 24.435,45.084 24.064,45.307 C23.694,45.531 23.27,45.643 22.793,45.643 Z"/>
    <polyline fill="#404040" points="27.066 45.561 26.313 45.561 26.313 40.491 29.466 40.491 29.466 41.125 27.066 41.125 27.066 42.839 29.101 42.839 29.101 43.473 27.066 43.473 27.066 45.561"/>
    <polyline fill="#404040" points="33.396 45.561 33.396 41.125 31.688 41.125 31.688 40.491 35.856 40.491 35.856 41.125 34.149 41.125 34.149 45.561 33.396 45.561"/>
    <polyline fill="#404040" points="36.721 45.561 36.721 40.491 37.474 40.491 37.474 42.66 40.091 42.66 40.091 40.491 40.844 40.491 40.844 45.561 40.091 45.561 40.091 43.309 37.474 43.309 37.474 45.561 36.721 45.561"/>
    <polyline fill="#404040" points="42.171 45.561 42.171 40.491 45.422 40.491 45.422 41.125 42.924 41.125 42.924 42.69 45.124 42.69 45.124 43.324 42.924 43.324 42.924 44.927 45.482 44.927 45.482 45.561 42.171 45.561"/>
    <path fill="#404040" d="M50.239 44.987C50.651 44.987 50.975 44.862 51.212 44.614 51.447 44.365 51.566 44.03 51.566 43.608L51.566 40.491 52.319 40.491 52.319 43.615C52.319 44.246 52.134 44.742 51.763 45.103 51.393 45.463 50.885 45.643 50.239 45.643 49.592 45.643 49.085 45.463 48.718 45.103 48.35 44.742 48.166 44.246 48.166 43.615L48.166 40.491 48.919 40.491 48.919 43.608C48.919 44.03 49.037 44.365 49.273 44.614 49.509 44.862 49.831 44.987 50.239 44.987M55.13 45.643C54.747 45.643 54.382 45.576 54.034 45.442 53.686 45.307 53.405 45.128 53.191 44.905L53.616 44.405C53.815 44.589 54.05 44.733 54.321 44.838 54.592 44.942 54.861 44.994 55.13 44.994 55.458 44.994 55.722 44.931 55.924 44.804 56.125 44.678 56.226 44.502 56.226 44.278 56.226 44.075 56.154 43.903 56.009 43.764 55.865 43.625 55.619 43.508 55.271 43.414L54.57 43.227C54.118 43.108 53.789 42.939 53.582 42.72 53.376 42.501 53.273 42.216 53.273 41.863 53.273 41.575 53.35 41.321 53.504 41.102 53.658 40.884 53.871 40.713 54.142 40.591 54.413 40.47 54.719 40.409 55.063 40.409 55.425 40.409 55.766 40.477 56.084 40.614 56.402 40.75 56.683 40.941 56.926 41.184L56.472 41.676C56.258 41.478 56.035 41.325 55.804 41.218 55.573 41.111 55.328 41.057 55.07 41.057 54.757 41.057 54.501 41.123 54.302 41.255 54.103 41.387 54.004 41.569 54.004 41.803 54.004 42.017 54.075 42.183 54.216 42.303 54.358 42.422 54.575 42.521 54.869 42.601L55.651 42.817C56.104 42.942 56.434 43.115 56.643 43.339 56.852 43.563 56.956 43.841 56.956 44.174 56.956 44.467 56.879 44.725 56.725 44.946 56.571 45.167 56.357 45.338 56.084 45.46 55.811 45.582 55.492 45.643 55.13 45.643M58.85 43.652L60.699 43.652 59.775 41.274 58.85 43.652zM61.437 45.561L60.945 44.286 58.604 44.286 58.112 45.561 57.352 45.561 59.379 40.491 60.192 40.491 62.213 45.561 61.437 45.561z"/>
    <polyline fill="#404040" points="65.717 45.561 65.717 41.125 64.009 41.125 64.009 40.491 68.177 40.491 68.177 41.125 66.47 41.125 66.47 45.561 65.717 45.561"/>
    <path fill="#404040" d="M70.891 44.987C71.22 44.987 71.511 44.903 71.768 44.737 72.023 44.571 72.224 44.34 72.368 44.047 72.512 43.754 72.584 43.414 72.584 43.026 72.584 42.638 72.512 42.298 72.368 42.004 72.224 41.711 72.023 41.481 71.768 41.315 71.511 41.148 71.22 41.065 70.891 41.065 70.563 41.065 70.273 41.148 70.019 41.315 69.765 41.481 69.567 41.711 69.423 42.004 69.278 42.298 69.206 42.638 69.206 43.026 69.206 43.414 69.278 43.754 69.423 44.047 69.567 44.34 69.765 44.571 70.019 44.737 70.273 44.903 70.563 44.987 70.891 44.987zM70.891 45.643C70.414 45.643 69.992 45.531 69.624 45.307 69.256 45.084 68.966 44.775 68.755 44.383 68.544 43.99 68.438 43.538 68.438 43.026 68.438 42.514 68.544 42.062 68.755 41.669 68.966 41.276 69.256 40.968 69.624 40.744 69.992 40.521 70.414 40.409 70.891 40.409 71.369 40.409 71.792 40.521 72.163 40.744 72.533 40.968 72.824 41.276 73.035 41.669 73.246 42.062 73.352 42.514 73.352 43.026 73.352 43.538 73.246 43.99 73.035 44.383 72.824 44.775 72.533 45.084 72.163 45.307 71.792 45.531 71.369 45.643 70.891 45.643zM75.164 44.927L76.193 44.927C76.551 44.927 76.857 44.849 77.113 44.692 77.369 44.536 77.566 44.316 77.702 44.033 77.839 43.749 77.908 43.414 77.908 43.026 77.908 42.638 77.839 42.303 77.702 42.02 77.566 41.736 77.369 41.516 77.113 41.36 76.857 41.203 76.551 41.125 76.193 41.125L75.164 41.125 75.164 44.927zM74.411 45.561L74.411 40.491 76.193 40.491C76.69 40.491 77.125 40.597 77.497 40.808 77.87 41.019 78.16 41.315 78.366 41.695 78.572 42.075 78.676 42.519 78.676 43.026 78.676 43.533 78.572 43.977 78.366 44.357 78.16 44.737 77.87 45.033 77.497 45.244 77.125 45.455 76.69 45.561 76.193 45.561L74.411 45.561zM80.599 43.652L82.448 43.652 81.524 41.274 80.599 43.652zM83.186 45.561L82.694 44.286 80.353 44.286 79.861 45.561 79.1 45.561 81.128 40.491 81.941 40.491 83.962 45.561 83.186 45.561z"/>
    <polyline fill="#404040" points="86.273 43.548 86.273 45.561 85.52 45.561 85.52 43.548 83.738 40.491 84.625 40.491 85.9 42.832 87.175 40.491 88.048 40.491 86.273 43.548"/>
    <polyline fill="#404040" points="94.072 45.561 91.365 41.676 91.365 45.561 90.657 45.561 90.657 40.491 91.358 40.491 94.072 44.375 94.072 40.491 94.773 40.491 94.773 45.561 94.072 45.561"/>
    <polyline fill="#404040" points="96.1 45.561 96.1 40.491 99.351 40.491 99.351 41.125 96.853 41.125 96.853 42.69 99.052 42.69 99.052 43.324 96.853 43.324 96.853 44.927 99.41 44.927 99.41 45.561 96.1 45.561"/>
    <polyline fill="#404040" points="101.647 45.561 101.647 41.125 99.94 41.125 99.94 40.491 104.108 40.491 104.108 41.125 102.4 41.125 102.4 45.561 101.647 45.561"/>
    <polyline fill="#404040" points="109.028 45.561 107.843 41.52 106.658 45.561 105.875 45.561 104.525 40.491 105.271 40.491 106.3 44.502 107.485 40.491 108.201 40.491 109.394 44.517 110.43 40.491 111.161 40.491 109.811 45.561 109.028 45.561"/>
    <path fill="#404040" d="M114.151 44.987C114.479 44.987 114.771 44.903 115.027 44.737 115.283 44.571 115.483 44.34 115.627 44.047 115.771 43.754 115.843 43.414 115.843 43.026 115.843 42.638 115.771 42.298 115.627 42.004 115.483 41.711 115.283 41.481 115.027 41.315 114.771 41.148 114.479 41.065 114.151 41.065 113.823 41.065 113.532 41.148 113.278 41.315 113.025 41.481 112.826 41.711 112.682 42.004 112.538 42.298 112.466 42.638 112.466 43.026 112.466 43.414 112.538 43.754 112.682 44.047 112.826 44.34 113.025 44.571 113.278 44.737 113.532 44.903 113.823 44.987 114.151 44.987zM114.151 45.643C113.674 45.643 113.251 45.531 112.883 45.307 112.515 45.084 112.226 44.775 112.015 44.383 111.803 43.99 111.698 43.538 111.698 43.026 111.698 42.514 111.803 42.062 112.015 41.669 112.226 41.276 112.515 40.968 112.883 40.744 113.251 40.521 113.674 40.409 114.151 40.409 114.628 40.409 115.052 40.521 115.422 40.744 115.792 40.968 116.083 41.276 116.294 41.669 116.506 42.062 116.611 42.514 116.611 43.026 116.611 43.538 116.506 43.99 116.294 44.383 116.083 44.775 115.792 45.084 115.422 45.307 115.052 45.531 114.628 45.643 114.151 45.643zM118.423 42.884L119.459 42.884C119.782 42.884 120.04 42.805 120.231 42.646 120.422 42.487 120.518 42.273 120.518 42.004 120.518 41.736 120.422 41.522 120.231 41.363 120.04 41.204 119.782 41.125 119.459 41.125L118.423 41.125 118.423 42.884zM118.423 43.503L118.423 45.561 117.67 45.561 117.67 40.491 119.459 40.491C120.021 40.491 120.466 40.626 120.794 40.897 121.122 41.168 121.286 41.537 121.286 42.004 121.286 42.358 121.187 42.656 120.988 42.899 120.789 43.143 120.516 43.314 120.168 43.414L121.398 45.561 120.541 45.561 119.385 43.503 118.423 43.503z"/>
    <polyline fill="#404040" points="125.38 45.561 123.105 43.004 123.105 45.561 122.352 45.561 122.352 40.491 123.105 40.491 123.105 42.713 125.23 40.491 126.162 40.491 123.903 42.817 126.326 45.561 125.38 45.561"/>
    <path fill="#009BFF" class='no-color-change' d="M94.136,9.934 C92.846,9.934 91.743,9.477 90.828,8.562 C89.913,7.647 89.456,6.545 89.456,5.255 C89.456,3.965 89.913,2.863 90.828,1.947 C91.743,1.033 92.846,0.575 94.136,0.575 C95.425,0.575 96.528,1.033 97.443,1.947 C98.358,2.863 98.816,3.965 98.816,5.255 C98.816,6.545 98.358,7.647 97.443,8.562 C96.528,9.477 95.425,9.934 94.136,9.934"/>
  </g>
</svg>
