<svg xmlns="http://www.w3.org/2000/svg" width="532" height="46" viewBox="0 0 532 46">
  <g fill="none" fill-rule="evenodd">
    <path fill="#009BFF" class='no-color-change' d="M16.107 34.001C12.986 34.001 10.249 33.326 7.894 31.977 5.539 30.626 3.694 28.759 2.359 26.374 1.024 23.989.357 21.221.357 18.072.357 14.921 1.024 12.161 2.359 9.791 3.694 7.422 5.539 5.57 7.894 4.234 10.249 2.9 12.986 2.232 16.107 2.232 18.746 2.232 21.124 2.764 23.239 3.829 25.354 4.894 27.161 6.432 28.662 8.442L22.047 12.357C21.266 11.367 20.389 10.587 19.414 10.017 18.439 9.447 17.306 9.161 16.017 9.161 13.886 9.161 12.162 9.964 10.842 11.569 9.521 13.174 8.862 15.342 8.862 18.072 8.862 20.802 9.521 22.984 10.842 24.619 12.162 26.254 13.886 27.072 16.017 27.072 17.337 27.072 18.507 26.749 19.527 26.104 20.546 25.459 21.401 24.702 22.092 23.831L28.662 27.746C27.192 29.787 25.384 31.339 23.239 32.404 21.094 33.468 18.717 34.001 16.107 34.001M38.472 25.992C38.472 26.682 38.726 27.244 39.237 27.679 39.747 28.115 40.407 28.331 41.217 28.331 42.297 28.331 43.204 27.964 43.939 27.229 44.674 26.494 45.042 25.572 45.042 24.461L45.042 23.697C44.232 23.547 43.377 23.471 42.477 23.471 41.336 23.471 40.384 23.667 39.619 24.056 38.854 24.447 38.472 25.092 38.472 25.992zM45.357 33.416L44.952 30.402C43.451 32.802 41.172 34.001 38.112 34.001 36.762 34.001 35.539 33.709 34.444 33.124 33.349 32.539 32.479 31.737 31.834 30.717 31.189 29.697 30.867 28.511 30.867 27.161 30.867 24.612 31.864 22.632 33.859 21.221 35.854 19.812 38.487 19.107 41.757 19.107 42.776 19.107 43.856 19.197 44.997 19.376 44.876 18.237 44.389 17.374 43.534 16.789 42.679 16.204 41.636 15.911 40.407 15.911 39.327 15.911 38.239 16.114 37.144 16.519 36.049 16.924 35.007 17.412 34.017 17.982L31.362 12.942C32.862 11.982 34.481 11.24 36.222 10.714 37.961 10.19 39.701 9.926 41.442 9.926 43.541 9.926 45.431 10.286 47.112 11.007 48.792 11.727 50.111 12.822 51.072 14.291 52.032 15.762 52.512 17.621 52.512 19.871L52.512 33.416 45.357 33.416zM65.337 24.552L65.337 33.416 57.507 33.416 57.507 10.512 64.662 10.512 65.157 14.336C65.636 13.107 66.424 12.109 67.519 11.344 68.614 10.579 69.882 10.197 71.322 10.197 72.132 10.197 72.746 10.302 73.167 10.512L73.167 17.666C72.836 17.547 72.469 17.457 72.064 17.397 71.659 17.337 71.201 17.306 70.692 17.306 69.132 17.306 67.849 17.884 66.844 19.039 65.839 20.195 65.337 22.032 65.337 24.552"/>
    <polygon fill="#009BFF" class='no-color-change' points="76.946 33.417 84.776 33.417 84.776 .567 76.946 .567"/>
    <path fill="#009BFF" class='no-color-change' d="M98.771 34.001C96.791 34.001 94.938 33.687 93.213 33.056 91.488 32.426 89.935 31.527 88.556 30.357L91.886 25.947C92.936 26.786 94.068 27.47 95.283 27.994 96.498 28.519 97.691 28.782 98.861 28.782 99.641 28.782 100.263 28.647 100.728 28.376 101.193 28.107 101.426 27.701 101.426 27.161 101.426 26.592 101.163 26.134 100.638 25.789 100.113 25.445 99.176 25.107 97.826 24.777L95.666 24.237C91.375 23.097 89.231 20.802 89.231 17.352 89.231 15.822 89.651 14.502 90.491 13.392 91.33 12.282 92.486 11.427 93.956 10.826 95.425 10.227 97.135 9.926 99.086 9.926 101.005 9.926 102.813 10.227 104.508 10.826 106.203 11.427 107.755 12.297 109.166 13.437L105.746 17.937C104.695 17.097 103.586 16.422 102.416 15.911 101.246 15.402 100.15 15.147 99.131 15.147 97.481 15.147 96.656 15.687 96.656 16.767 96.656 17.247 96.903 17.637 97.398 17.937 97.893 18.237 98.591 18.507 99.491 18.746L102.416 19.556C104.605 20.157 106.225 21.057 107.276 22.257 108.326 23.457 108.851 24.882 108.851 26.532 108.851 28.032 108.43 29.344 107.591 30.469 106.751 31.594 105.573 32.464 104.058 33.079 102.543 33.694 100.78 34.001 98.771 34.001M125.366 27.791C126.716 27.791 127.803 27.259 128.628 26.194 129.453 25.129 129.866 23.712 129.866 21.942 129.866 20.172 129.453 18.754 128.628 17.689 127.803 16.624 126.716 16.092 125.366 16.092 123.985 16.092 122.883 16.624 122.058 17.689 121.233 18.754 120.821 20.172 120.821 21.942 120.821 23.712 121.233 25.129 122.058 26.194 122.883 27.259 123.985 27.791 125.366 27.791zM137.831 21.942C137.831 24.342 137.381 26.45 136.481 28.264 135.581 30.079 134.35 31.49 132.791 32.494 131.231 33.499 129.461 34.001 127.481 34.001 125.861 34.001 124.488 33.664 123.363 32.989 122.238 32.314 121.345 31.452 120.686 30.402L120.281 33.416 113.126 33.416 113.126.567 120.956.567 120.956 13.121C121.705 12.132 122.666 11.352 123.836 10.782 125.006 10.212 126.401 9.926 128.021 9.926 129.821 9.926 131.463 10.437 132.948 11.456 134.433 12.477 135.618 13.887 136.503 15.687 137.388 17.487 137.831 19.572 137.831 21.942zM148.091 25.992C148.091 26.682 148.345 27.244 148.856 27.679 149.366 28.115 150.026 28.331 150.836 28.331 151.916 28.331 152.823 27.964 153.558 27.229 154.293 26.494 154.661 25.572 154.661 24.461L154.661 23.697C153.851 23.547 152.996 23.471 152.096 23.471 150.955 23.471 150.003 23.667 149.238 24.056 148.473 24.447 148.091 25.092 148.091 25.992zM154.976 33.416L154.571 30.402C153.07 32.802 150.791 34.001 147.731 34.001 146.381 34.001 145.158 33.709 144.063 33.124 142.968 32.539 142.098 31.737 141.453 30.717 140.808 29.697 140.486 28.511 140.486 27.161 140.486 24.612 141.483 22.632 143.478 21.221 145.473 19.812 148.106 19.107 151.376 19.107 152.395 19.107 153.475 19.197 154.616 19.376 154.495 18.237 154.008 17.374 153.153 16.789 152.298 16.204 151.255 15.911 150.026 15.911 148.946 15.911 147.858 16.114 146.763 16.519 145.668 16.924 144.626 17.412 143.636 17.982L140.981 12.942C142.481 11.982 144.1 11.24 145.841 10.714 147.58 10.19 149.32 9.926 151.061 9.926 153.16 9.926 155.05 10.286 156.731 11.007 158.41 11.727 159.73 12.822 160.691 14.291 161.65 15.762 162.131 17.621 162.131 19.871L162.131 33.416 154.976 33.416zM178.241 27.791C179.59 27.791 180.678 27.259 181.503 26.194 182.328 25.129 182.741 23.712 182.741 21.942 182.741 20.172 182.328 18.754 181.503 17.689 180.678 16.624 179.59 16.092 178.241 16.092 176.86 16.092 175.758 16.624 174.933 17.689 174.107 18.754 173.695 20.172 173.695 21.942 173.695 23.712 174.107 25.129 174.933 26.194 175.758 27.259 176.86 27.791 178.241 27.791zM183.28 33.416L182.876 30.402C182.155 31.512 181.225 32.389 180.086 33.034 178.945 33.679 177.625 34.001 176.126 34.001 174.055 34.001 172.24 33.491 170.68 32.471 169.12 31.452 167.905 30.034 167.035 28.219 166.165 26.405 165.731 24.312 165.731 21.942 165.731 19.572 166.165 17.487 167.035 15.687 167.905 13.887 169.098 12.477 170.613 11.456 172.128 10.437 173.876 9.926 175.856 9.926 177.235 9.926 178.51 10.219 179.68 10.804 180.85 11.389 181.825 12.176 182.606 13.166L182.606.567 190.435.567 190.435 33.416 183.28 33.416z"/>
    <path fill="#404040" d="M221.35 34.001C218.23 34.001 215.492 33.326 213.138 31.977 210.782 30.626 208.937 28.759 207.603 26.374 206.267 23.989 205.6 21.221 205.6 18.072 205.6 14.921 206.267 12.161 207.603 9.791 208.937 7.422 210.782 5.57 213.138 4.234 215.492 2.9 218.23 2.232 221.35 2.232 223.99 2.232 226.367 2.764 228.482 3.829 230.597 4.894 232.405 6.432 233.905 8.442L227.29 12.357C226.51 11.367 225.632 10.587 224.658 10.017 223.682 9.447 222.55 9.161 221.26 9.161 219.129 9.161 217.405 9.964 216.085 11.569 214.764 13.174 214.105 15.342 214.105 18.072 214.105 20.802 214.764 22.984 216.085 24.619 217.405 26.254 219.129 27.072 221.26 27.072 222.58 27.072 223.75 26.749 224.77 26.104 225.79 25.459 226.645 24.702 227.335 23.831L233.905 27.746C232.435 29.787 230.627 31.339 228.482 32.404 226.337 33.468 223.96 34.001 221.35 34.001M252.67 33.416L252.265 30.402C251.515 31.512 250.533 32.389 249.317 33.034 248.103 33.679 246.79 34.001 245.38 34.001 242.71 34.001 240.67 33.214 239.26 31.639 237.849 30.064 237.145 27.791 237.145 24.822L237.145 10.512 244.975 10.512 244.975 23.921C244.975 26.412 246.115 27.657 248.395 27.657 250.795 27.657 251.995 26.157 251.995 23.157L251.995 10.512 259.825 10.512 259.825 33.416 252.67 33.416M273.144 24.552L273.144 33.416 265.314 33.416 265.314 10.512 272.469 10.512 272.964 14.336C273.444 13.107 274.231 12.109 275.327 11.344 276.422 10.579 277.689 10.197 279.129 10.197 279.939 10.197 280.554 10.302 280.974 10.512L280.974 17.666C280.644 17.547 280.277 17.457 279.872 17.397 279.467 17.337 279.009 17.306 278.499 17.306 276.939 17.306 275.657 17.884 274.652 19.039 273.646 20.195 273.144 22.032 273.144 24.552M292.584 24.552L292.584 33.416 284.754 33.416 284.754 10.512 291.909 10.512 292.404 14.336C292.884 13.107 293.671 12.109 294.766 11.344 295.861 10.579 297.129 10.197 298.569 10.197 299.379 10.197 299.993 10.302 300.414 10.512L300.414 17.666C300.083 17.547 299.717 17.457 299.311 17.397 298.907 17.337 298.449 17.306 297.939 17.306 296.379 17.306 295.096 17.884 294.092 19.039 293.086 20.195 292.584 22.032 292.584 24.552M315.039 15.596C312.489 15.596 310.958 16.947 310.449 19.647L319.179 19.647C318.969 18.177 318.466 17.134 317.671 16.519 316.876 15.905 315.998 15.596 315.039 15.596zM325.749 31.076C324.608 31.886 323.161 32.577 321.406 33.147 319.651 33.716 317.784 34.001 315.804 34.001 313.074 34.001 310.741 33.499 308.806 32.494 306.871 31.49 305.386 30.086 304.351 28.286 303.316 26.487 302.799 24.416 302.799 22.076 302.799 19.707 303.308 17.607 304.328 15.777 305.348 13.947 306.759 12.514 308.559 11.479 310.359 10.444 312.458 9.926 314.859 9.926 317.199 9.926 319.261 10.429 321.046 11.434 322.831 12.44 324.226 13.834 325.231 15.619 326.236 17.405 326.739 19.497 326.739 21.897 326.739 22.227 326.716 22.572 326.671 22.931 326.626 23.291 326.574 23.667 326.513 24.056L310.539 24.056C311.259 26.697 313.223 28.017 316.434 28.017 317.874 28.017 319.148 27.791 320.259 27.342 321.368 26.892 322.299 26.442 323.049 25.992L325.749 31.076zM338.574 20.772L338.574 33.416 330.743 33.416 330.743 10.512 337.898 10.512 338.304 13.527C339.053 12.447 340.028 11.576 341.228 10.916 342.428 10.257 343.748 9.926 345.188 9.926 347.678 9.926 349.673 10.737 351.174 12.357 352.673 13.977 353.424 16.302 353.424 19.331L353.424 33.416 345.594 33.416 345.594 20.232C345.594 18.882 345.293 17.884 344.694 17.239 344.093 16.594 343.253 16.272 342.174 16.272 341.094 16.272 340.223 16.616 339.563 17.306 338.903 17.997 338.574 19.152 338.574 20.772M375.383 31.931C374.452 32.562 373.388 33.064 372.188 33.439 370.988 33.814 369.728 34.001 368.408 34.001 365.948 34.001 363.99 33.289 362.535 31.864 361.08 30.44 360.353 28.527 360.353 26.126L360.353 16.362 356.618 16.362 356.618 10.512 360.713 10.512 361.703 4.121 368.183 4.121 368.183 10.512 374.168 10.512 374.168 16.362 368.183 16.362 368.183 25.136C368.183 25.917 368.415 26.525 368.88 26.959 369.345 27.394 369.968 27.612 370.748 27.612 371.138 27.612 371.535 27.537 371.94 27.387 372.346 27.237 372.728 27.057 373.088 26.846L375.383 31.931M400.132 21.492L407.377 21.492 403.777 10.782 400.132 21.492zM411.427 33.416L409.492 27.701 398.017 27.701 396.082 33.416 387.802 33.416 399.007 2.817 408.727 2.817 419.932 33.416 411.427 33.416zM431.137 24.552L431.137 33.416 423.307 33.416 423.307 10.512 430.462 10.512 430.957 14.336C431.436 13.107 432.224 12.109 433.319 11.344 434.414 10.579 435.682 10.197 437.122 10.197 437.932 10.197 438.546 10.302 438.967 10.512L438.967 17.666C438.636 17.547 438.269 17.457 437.864 17.397 437.459 17.337 437.001 17.306 436.492 17.306 434.931 17.306 433.649 17.884 432.644 19.039 431.639 20.195 431.137 22.032 431.137 24.552M453.771 26.532C455.091 26.532 456.156 26.059 456.966 25.114 457.776 24.169 458.181 22.902 458.181 21.312 458.181 19.722 457.776 18.454 456.966 17.509 456.156 16.564 455.091 16.092 453.771 16.092 452.421 16.092 451.342 16.564 450.532 17.509 449.721 18.454 449.316 19.722 449.316 21.312 449.316 22.872 449.721 24.132 450.532 25.092 451.342 26.052 452.421 26.532 453.771 26.532zM465.921 30.987C465.921 33.326 465.381 35.329 464.301 36.994 463.221 38.659 461.728 39.934 459.824 40.819 457.918 41.703 455.706 42.147 453.186 42.147 451.146 42.147 449.211 41.876 447.381 41.336 445.551 40.796 443.916 40.076 442.476 39.176L445.401 34.136C446.421 34.737 447.494 35.224 448.619 35.599 449.744 35.974 450.906 36.161 452.106 36.161 454.116 36.161 455.617 35.711 456.606 34.812 457.596 33.911 458.091 32.637 458.091 30.987L458.091 30.176C457.311 30.957 456.373 31.579 455.279 32.044 454.183 32.51 453.036 32.742 451.836 32.742 449.766 32.742 447.944 32.254 446.369 31.279 444.794 30.305 443.563 28.954 442.679 27.229 441.794 25.504 441.351 23.532 441.351 21.312 441.351 19.062 441.786 17.081 442.657 15.371 443.526 13.661 444.741 12.327 446.302 11.367 447.861 10.407 449.661 9.926 451.701 9.926 453.081 9.926 454.363 10.257 455.549 10.916 456.734 11.576 457.671 12.447 458.361 13.527L458.766 10.512 465.921 10.512 465.921 30.987zM486.531 33.416L486.126 30.402C485.376 31.512 484.393 32.389 483.179 33.034 481.963 33.679 480.651 34.001 479.241 34.001 476.57 34.001 474.531 33.214 473.121 31.639 471.71 30.064 471.006 27.791 471.006 24.822L471.006 10.512 478.836 10.512 478.836 23.921C478.836 26.412 479.975 27.657 482.256 27.657 484.656 27.657 485.856 26.157 485.856 23.157L485.856 10.512 493.686 10.512 493.686 33.416 486.531 33.416M507.68 34.001C505.701 34.001 503.848 33.687 502.123 33.056 500.397 32.426 498.845 31.527 497.466 30.357L500.796 25.947C501.845 26.786 502.978 27.47 504.193 27.994 505.408 28.519 506.6 28.782 507.77 28.782 508.55 28.782 509.173 28.647 509.638 28.376 510.103 28.107 510.335 27.701 510.335 27.161 510.335 26.592 510.073 26.134 509.548 25.789 509.023 25.445 508.085 25.107 506.736 24.777L504.576 24.237C500.285 23.097 498.14 20.802 498.14 17.352 498.14 15.822 498.56 14.502 499.401 13.392 500.24 12.282 501.395 11.427 502.866 10.826 504.335 10.227 506.045 9.926 507.995 9.926 509.915 9.926 511.723 10.227 513.418 10.826 515.113 11.427 516.665 12.297 518.076 13.437L514.656 17.937C513.605 17.097 512.495 16.422 511.326 15.911 510.156 15.402 509.06 15.147 508.04 15.147 506.39 15.147 505.565 15.687 505.565 16.767 505.565 17.247 505.813 17.637 506.308 17.937 506.803 18.237 507.5 18.507 508.401 18.746L511.326 19.556C513.515 20.157 515.135 21.057 516.185 22.257 517.235 23.457 517.761 24.882 517.761 26.532 517.761 28.032 517.34 29.344 516.5 30.469 515.66 31.594 514.483 32.464 512.968 33.079 511.453 33.694 509.69 34.001 507.68 34.001"/>
    <path fill="#009BFF" class='no-color-change' d="M526.04,33.911 C525.08,33.911 524.202,33.679 523.408,33.214 C522.613,32.749 521.983,32.119 521.518,31.324 C521.053,30.53 520.82,29.652 520.82,28.692 C520.82,27.732 521.053,26.854 521.518,26.059 C521.983,25.264 522.613,24.635 523.408,24.169 C524.202,23.704 525.08,23.471 526.04,23.471 C527,23.471 527.878,23.704 528.673,24.169 C529.468,24.635 530.097,25.264 530.563,26.059 C531.028,26.854 531.261,27.732 531.261,28.692 C531.261,29.652 531.028,30.53 530.563,31.324 C530.097,32.119 529.468,32.749 528.673,33.214 C527.878,33.679 527,33.911 526.04,33.911"/>
    <path fill="#404040" d="M4.757 42.284L5.827 42.284C6.179 42.284 6.457 42.197 6.662 42.024 6.867 41.851 6.969 41.614 6.969 41.315 6.969 41.016 6.867 40.78 6.662 40.607 6.457 40.434 6.179 40.347 5.827 40.347L4.757 40.347 4.757 42.284zM3.962 45.031L3.962 39.678 5.827 39.678C6.426 39.678 6.901 39.825 7.253 40.118 7.604 40.413 7.78 40.811 7.78 41.315 7.78 41.814 7.604 42.209 7.253 42.501 6.901 42.792 6.426 42.937 5.827 42.937L4.757 42.937 4.757 45.031 3.962 45.031zM9.386 43.016L11.339 43.016 10.363 40.504 9.386 43.016zM12.118 45.031L11.599 43.685 9.126 43.685 8.607 45.031 7.804 45.031 9.945 39.678 10.803 39.678 12.937 45.031 12.118 45.031zM14.622 42.205L15.716 42.205C16.057 42.205 16.329 42.121 16.531 41.953 16.733 41.785 16.834 41.56 16.834 41.276 16.834 40.993 16.733 40.767 16.531 40.599 16.329 40.431 16.057 40.347 15.716 40.347L14.622 40.347 14.622 42.205zM14.622 42.858L14.622 45.031 13.827 45.031 13.827 39.678 15.716 39.678C16.309 39.678 16.779 39.821 17.126 40.107 17.472 40.393 17.645 40.783 17.645 41.276 17.645 41.649 17.54 41.964 17.33 42.221 17.12 42.478 16.831 42.659 16.464 42.764L17.763 45.031 16.858 45.031 15.637 42.858 14.622 42.858z"/>
    <polyline fill="#404040" points="19.928 45.031 19.928 40.347 18.125 40.347 18.125 39.678 22.526 39.678 22.526 40.347 20.723 40.347 20.723 45.031 19.928 45.031"/>
    <path fill="#404040" d="M27.636,44.425 C27.982,44.425 28.29,44.338 28.561,44.162 C28.831,43.986 29.042,43.743 29.195,43.433 C29.347,43.124 29.423,42.764 29.423,42.354 C29.423,41.945 29.347,41.586 29.195,41.276 C29.042,40.966 28.831,40.724 28.561,40.548 C28.29,40.372 27.982,40.284 27.636,40.284 C27.289,40.284 26.982,40.372 26.715,40.548 C26.447,40.724 26.237,40.966 26.085,41.276 C25.932,41.586 25.857,41.945 25.857,42.354 C25.857,42.764 25.932,43.124 26.085,43.433 C26.237,43.743 26.447,43.986 26.715,44.162 C26.982,44.338 27.289,44.425 27.636,44.425 Z M27.636,45.118 C27.132,45.118 26.686,45 26.297,44.764 C25.909,44.527 25.603,44.202 25.38,43.787 C25.157,43.373 25.046,42.896 25.046,42.354 C25.046,41.814 25.157,41.337 25.38,40.922 C25.603,40.507 25.909,40.181 26.297,39.946 C26.686,39.709 27.132,39.591 27.636,39.591 C28.14,39.591 28.587,39.709 28.978,39.946 C29.369,40.181 29.676,40.507 29.899,40.922 C30.122,41.337 30.234,41.814 30.234,42.354 C30.234,42.896 30.122,43.373 29.899,43.787 C29.676,44.202 29.369,44.527 28.978,44.764 C28.587,45 28.14,45.118 27.636,45.118 Z"/>
    <polyline fill="#404040" points="32.147 45.031 31.352 45.031 31.352 39.678 34.682 39.678 34.682 40.347 32.147 40.347 32.147 42.158 34.297 42.158 34.297 42.827 32.147 42.827 32.147 45.031"/>
    <polyline fill="#404040" points="38.832 45.031 38.832 40.347 37.029 40.347 37.029 39.678 41.43 39.678 41.43 40.347 39.627 40.347 39.627 45.031 38.832 45.031"/>
    <polyline fill="#404040" points="42.343 45.031 42.343 39.678 43.138 39.678 43.138 41.969 45.902 41.969 45.902 39.678 46.697 39.678 46.697 45.031 45.902 45.031 45.902 42.654 43.138 42.654 43.138 45.031 42.343 45.031"/>
    <polyline fill="#404040" points="48.098 45.031 48.098 39.678 51.531 39.678 51.531 40.347 48.893 40.347 48.893 42 51.215 42 51.215 42.67 48.893 42.67 48.893 44.362 51.594 44.362 51.594 45.031 48.098 45.031"/>
    <path fill="#404040" d="M56.617 44.425C57.053 44.425 57.395 44.294 57.644 44.032 57.893 43.769 58.018 43.415 58.018 42.968L58.018 39.678 58.813 39.678 58.813 42.977C58.813 43.643 58.618 44.167 58.227 44.547 57.836 44.928 57.299 45.118 56.617 45.118 55.934 45.118 55.399 44.928 55.011 44.547 54.622 44.167 54.428 43.643 54.428 42.977L54.428 39.678 55.223 39.678 55.223 42.968C55.223 43.415 55.348 43.769 55.597 44.032 55.846 44.294 56.186 44.425 56.617 44.425M61.781 45.118C61.377 45.118 60.991 45.047 60.624 44.906 60.257 44.764 59.96 44.575 59.734 44.339L60.183 43.811C60.393 44.006 60.641 44.157 60.927 44.268 61.213 44.378 61.498 44.433 61.781 44.433 62.128 44.433 62.407 44.366 62.62 44.232 62.832 44.098 62.939 43.913 62.939 43.677 62.939 43.462 62.863 43.281 62.71 43.134 62.558 42.987 62.299 42.864 61.931 42.764L61.191 42.567C60.713 42.441 60.365 42.263 60.148 42.032 59.93 41.801 59.821 41.499 59.821 41.127 59.821 40.822 59.902 40.554 60.065 40.323 60.228 40.092 60.452 39.913 60.738 39.784 61.024 39.656 61.349 39.591 61.71 39.591 62.094 39.591 62.453 39.663 62.789 39.808 63.125 39.952 63.422 40.153 63.679 40.41L63.199 40.93C62.973 40.72 62.738 40.558 62.494 40.445 62.25 40.333 61.992 40.276 61.719 40.276 61.388 40.276 61.117 40.346 60.907 40.485 60.697 40.624 60.593 40.817 60.593 41.063 60.593 41.289 60.667 41.465 60.817 41.591 60.967 41.717 61.196 41.822 61.506 41.906L62.333 42.134C62.81 42.265 63.159 42.449 63.38 42.686 63.6 42.921 63.71 43.215 63.71 43.567 63.71 43.877 63.629 44.148 63.466 44.382 63.303 44.615 63.078 44.797 62.789 44.925 62.5 45.054 62.164 45.118 61.781 45.118M65.71 43.016L67.663 43.016 66.686 40.504 65.71 43.016zM68.442 45.031L67.923 43.685 65.45 43.685 64.931 45.031 64.127 45.031 66.269 39.678 67.128 39.678 69.261 45.031 68.442 45.031z"/>
    <polyline fill="#404040" points="72.961 45.031 72.961 40.347 71.158 40.347 71.158 39.678 75.56 39.678 75.56 40.347 73.757 40.347 73.757 45.031 72.961 45.031"/>
    <path fill="#404040" d="M78.425 44.425C78.771 44.425 79.08 44.338 79.35 44.162 79.621 43.986 79.832 43.743 79.984 43.433 80.136 43.124 80.213 42.764 80.213 42.354 80.213 41.945 80.136 41.586 79.984 41.276 79.832 40.966 79.621 40.724 79.35 40.548 79.08 40.372 78.771 40.284 78.425 40.284 78.079 40.284 77.772 40.372 77.504 40.548 77.236 40.724 77.026 40.966 76.874 41.276 76.722 41.586 76.646 41.945 76.646 42.354 76.646 42.764 76.722 43.124 76.874 43.433 77.026 43.743 77.236 43.986 77.504 44.162 77.772 44.338 78.079 44.425 78.425 44.425zM78.425 45.118C77.921 45.118 77.475 45 77.087 44.764 76.698 44.527 76.393 44.202 76.169 43.787 75.946 43.373 75.835 42.896 75.835 42.354 75.835 41.814 75.946 41.337 76.169 40.922 76.393 40.507 76.698 40.181 77.087 39.946 77.475 39.709 77.921 39.591 78.425 39.591 78.929 39.591 79.376 39.709 79.768 39.946 80.158 40.181 80.465 40.507 80.689 40.922 80.912 41.337 81.023 41.814 81.023 42.354 81.023 42.896 80.912 43.373 80.689 43.787 80.465 44.202 80.158 44.527 79.768 44.764 79.376 45 78.929 45.118 78.425 45.118zM82.936 44.362L84.023 44.362C84.401 44.362 84.725 44.279 84.995 44.114 85.265 43.949 85.473 43.717 85.617 43.417 85.761 43.118 85.834 42.764 85.834 42.354 85.834 41.945 85.761 41.591 85.617 41.292 85.473 40.993 85.265 40.76 84.995 40.595 84.725 40.43 84.401 40.347 84.023 40.347L82.936 40.347 82.936 44.362zM82.141 45.031L82.141 39.678 84.023 39.678C84.547 39.678 85.007 39.789 85.4 40.012 85.794 40.236 86.1 40.548 86.318 40.949 86.535 41.351 86.645 41.819 86.645 42.354 86.645 42.89 86.535 43.358 86.318 43.76 86.1 44.162 85.794 44.474 85.4 44.697 85.007 44.92 84.547 45.031 84.023 45.031L82.141 45.031zM88.676 43.016L90.628 43.016 89.652 40.504 88.676 43.016zM91.408 45.031L90.888 43.685 88.416 43.685 87.896 45.031 87.093 45.031 89.235 39.678 90.093 39.678 92.226 45.031 91.408 45.031z"/>
    <polyline fill="#404040" points="94.667 42.906 94.667 45.031 93.872 45.031 93.872 42.906 91.991 39.678 92.928 39.678 94.274 42.15 95.62 39.678 96.541 39.678 94.667 42.906"/>
    <polyline fill="#404040" points="102.903 45.031 100.044 40.93 100.044 45.031 99.297 45.031 99.297 39.678 100.037 39.678 102.903 43.78 102.903 39.678 103.643 39.678 103.643 45.031 102.903 45.031"/>
    <polyline fill="#404040" points="105.044 45.031 105.044 39.678 108.477 39.678 108.477 40.347 105.839 40.347 105.839 42 108.162 42 108.162 42.67 105.839 42.67 105.839 44.362 108.54 44.362 108.54 45.031 105.044 45.031"/>
    <polyline fill="#404040" points="110.902 45.031 110.902 40.347 109.099 40.347 109.099 39.678 113.5 39.678 113.5 40.347 111.697 40.347 111.697 45.031 110.902 45.031"/>
    <polyline fill="#404040" points="118.696 45.031 117.444 40.764 116.192 45.031 115.365 45.031 113.941 39.678 114.728 39.678 115.814 43.913 117.066 39.678 117.822 39.678 119.082 43.929 120.176 39.678 120.948 39.678 119.522 45.031 118.696 45.031"/>
    <path fill="#404040" d="M124.105 44.425C124.451 44.425 124.759 44.338 125.03 44.162 125.3 43.986 125.511 43.743 125.664 43.433 125.816 43.124 125.892 42.764 125.892 42.354 125.892 41.945 125.816 41.586 125.664 41.276 125.511 40.966 125.3 40.724 125.03 40.548 124.759 40.372 124.451 40.284 124.105 40.284 123.758 40.284 123.451 40.372 123.184 40.548 122.916 40.724 122.706 40.966 122.554 41.276 122.401 41.586 122.325 41.945 122.325 42.354 122.325 42.764 122.401 43.124 122.554 43.433 122.706 43.743 122.916 43.986 123.184 44.162 123.451 44.338 123.758 44.425 124.105 44.425zM124.105 45.118C123.601 45.118 123.155 45 122.767 44.764 122.378 44.527 122.072 44.202 121.849 43.787 121.626 43.373 121.515 42.896 121.515 42.354 121.515 41.814 121.626 41.337 121.849 40.922 122.072 40.507 122.378 40.181 122.767 39.946 123.155 39.709 123.601 39.591 124.105 39.591 124.609 39.591 125.056 39.709 125.447 39.946 125.838 40.181 126.145 40.507 126.368 40.922 126.591 41.337 126.703 41.814 126.703 42.354 126.703 42.896 126.591 43.373 126.368 43.787 126.145 44.202 125.838 44.527 125.447 44.764 125.056 45 124.609 45.118 124.105 45.118zM128.616 42.205L129.71 42.205C130.051 42.205 130.323 42.121 130.525 41.953 130.727 41.785 130.829 41.56 130.829 41.276 130.829 40.993 130.727 40.767 130.525 40.599 130.323 40.431 130.051 40.347 129.71 40.347L128.616 40.347 128.616 42.205zM128.616 42.858L128.616 45.031 127.821 45.031 127.821 39.678 129.71 39.678C130.303 39.678 130.773 39.821 131.12 40.107 131.466 40.393 131.639 40.783 131.639 41.276 131.639 41.649 131.534 41.964 131.324 42.221 131.114 42.478 130.826 42.659 130.458 42.764L131.757 45.031 130.852 45.031 129.632 42.858 128.616 42.858z"/>
    <polyline fill="#404040" points="135.962 45.031 133.56 42.331 133.56 45.031 132.765 45.031 132.765 39.678 133.56 39.678 133.56 42.024 135.804 39.678 136.788 39.678 134.403 42.134 136.962 45.031 135.962 45.031"/>
  </g>
</svg>
