<svg xmlns="http://www.w3.org/2000/svg" xmlns:xlink="http://www.w3.org/1999/xlink" width="719.5" height="113.125" viewBox="0 0 719.5 113.125">
  <defs>
    <style>
      .cls-1 {
        filter: url(#filter);
      }

      .cls-2, .cls-3 {
        fill: #fff;
        fill-rule: evenodd;
      }

      .cls-2 {
        filter: url(#filter-2);
      }
    </style>
    <filter id="filter" filterUnits="userSpaceOnUse">
      <feFlood result="flood" flood-color="#333"/>
      <feComposite result="composite" operator="in" in2="SourceGraphic"/>
      <feBlend result="blend" in2="SourceGraphic"/>
    </filter>
    <filter id="filter-2" x="370.875" y="98.906" width="348.156" height="15.063" filterUnits="userSpaceOnUse">
      <feFlood result="flood" flood-color="#999"/>
      <feComposite result="composite" operator="in" in2="SourceGraphic"/>
      <feBlend result="blend" in2="SourceGraphic"/>
    </filter>
  </defs>
  <g id="currentargus" class="cls-1">
    <path id="USAT_Network" data-name="USAT Network" class="cls-2" d="M370.87,99.183h4.247c2.986,0,4.984,1.757,4.984,4.466s-2.04,4.462-4.984,4.462h-2.166v5.581H370.87V99.183Zm4.037,7.216c2,0,3.069-1.1,3.069-2.75,0-1.635-1.071-2.75-3.069-2.75h-1.956v5.5h1.956Zm11.134-7.216h1.85l6.056,14.509h-2.231l-1.511-3.8h-6.54l-1.514,3.8h-2.186S385.3,100.963,386.041,99.183Zm3.468,8.992L388.1,104.6c-0.21-.539-1.115-2.772-1.136-2.958h-0.042c-0.02.186-.9,2.356-1.135,2.958l-1.429,3.575h5.15Zm6.55-8.992h4.268c2.753,0,4.9,1.408,4.9,4.3a4.052,4.052,0,0,1-3.741,4.095l4.521,6.115h-2.441L399.3,107.78H398.14v5.912h-2.081V99.183Zm4.037,6.926c1.934,0,3.028-1.015,3.028-2.6S402.03,100.9,400.1,100.9H398.14v5.21H400.1ZM411,100.94h-4.2V99.183h10.491v1.757h-4.206v12.752H411V100.94Zm11.682,5.5a7.761,7.761,0,1,1,7.758,7.542A7.423,7.423,0,0,1,422.68,106.44Zm13.371,0a5.625,5.625,0,1,0-5.634,5.7A5.45,5.45,0,0,0,436.051,106.44Zm5.141-7.257h7.443v1.757h-5.363v4.671h5.194v1.757h-5.194v6.324h-2.08V99.183Zm16.855,1.757h-4.205V99.183h10.491v1.757h-4.205v12.752h-2.081V100.94Zm8.47-1.757H468.6v5.953h7.738V99.183h2.083v14.509h-2.083v-6.8H468.6v6.8h-2.081V99.183Zm15.736,0h8.032v1.739h-5.952v4.213h5.782v1.739h-5.782v5.083h6.077v1.735h-8.157V99.183Zm15.134,9.508V99.183h2.1v8.887c0,2.524,1.1,4.073,3.553,4.073,2.482,0,3.577-1.549,3.577-4.073V99.183h2.1v9.508c0,3.185-2.081,5.291-5.678,5.291C499.426,113.982,497.387,111.876,497.387,108.691Zm13.5,2.378,1.411-1.178a4.28,4.28,0,0,0,3.7,2.293c1.618,0,2.881-.866,2.881-2.46,0-1.713-1.452-2.292-3.261-2.994-1.85-.725-3.721-1.636-3.721-3.951,0-2.292,1.809-3.882,4.458-3.882a4.969,4.969,0,0,1,4.332,2.188l-1.41,1.178a3.365,3.365,0,0,0-2.922-1.572c-1.43,0-2.375.725-2.375,1.944,0,1.508,1.47,2.006,2.753,2.5,2.081,0.807,4.226,1.78,4.226,4.444,0,2.523-1.892,4.4-4.919,4.4A5.742,5.742,0,0,1,510.891,111.069ZM528.15,99.183H530l6.056,14.509h-2.231l-1.511-3.8h-6.54l-1.514,3.8h-2.186S527.413,100.963,528.15,99.183Zm3.468,8.992L530.21,104.6c-0.21-.539-1.115-2.772-1.136-2.958h-0.041c-0.021.186-.9,2.356-1.137,2.958l-1.428,3.575h5.15Zm13.224-7.235h-4.205V99.183h10.49v1.757h-4.2v12.752h-2.08V100.94Zm7.066,5.5a7.762,7.762,0,1,1,7.759,7.542A7.423,7.423,0,0,1,551.908,106.44Zm13.372,0a5.625,5.625,0,1,0-5.634,5.7A5.45,5.45,0,0,0,565.28,106.44Zm5.141-7.257h4.184c4.71,0,7.82,2.645,7.82,7.257,0,4.588-3.133,7.252-7.82,7.252h-4.184V99.183Zm2.08,12.751h1.936c3.447,0,5.843-1.793,5.843-5.494s-2.4-5.5-5.843-5.5H572.5v10.994Zm16.687-12.751h1.85l6.056,14.509h-2.23l-1.512-3.8h-6.539l-1.514,3.8h-2.187S588.451,100.963,589.188,99.183Zm3.468,8.992-1.408-3.575c-0.21-.539-1.115-2.772-1.136-2.958h-0.041c-0.021.186-.9,2.356-1.136,2.958l-1.429,3.575h5.15Zm8.6-.395-5.026-8.6h2.335l2.732,4.838a21.34,21.34,0,0,1,1.051,2.065h0.021a21.59,21.59,0,0,1,1.053-2.065l2.753-4.838h2.27l-5.023,8.6v5.912h-2.166V107.78Zm13.3-8.6h1.6l8.369,9.4c0.251,0.272,1.345,1.612,1.451,1.821l0.042-.023c-0.042-.2-0.042-1.88-0.042-2.251V99.183h2.019v14.509h-1.62l-8.369-9.4c-0.251-.267-1.345-1.613-1.449-1.817l-0.021.018c0.021,0.209.042,1.885,0.042,2.256v8.947h-2.019V99.183Zm17.27,0h8.03v1.739h-5.949v4.213h5.783v1.739h-5.783v5.083h6.076v1.735h-8.157V99.183Zm14.542,1.757h-4.2V99.183h10.491v1.757h-4.206v12.752h-2.08V100.94Zm8.021-1.757H656.6l3.028,8.62c0.106,0.331.82,2.478,0.841,2.809h0.044a28.86,28.86,0,0,1,.882-2.809l3.155-8.62h1.661l3.152,8.62a29.164,29.164,0,0,1,.885,2.809h0.042c0.041-.331.755-2.478,0.861-2.809l3.007-8.62h2.122l-5.193,14.509h-1.6l-3.4-9.051a23.534,23.534,0,0,1-.717-2.355h-0.042a23.914,23.914,0,0,1-.735,2.355l-3.385,9.051h-1.6Zm22.818,7.257a7.762,7.762,0,1,1,7.759,7.542A7.423,7.423,0,0,1,677.206,106.44Zm13.372,0a5.625,5.625,0,1,0-5.634,5.7A5.45,5.45,0,0,0,690.578,106.44Zm5.14-7.257h4.267c2.756,0,4.9,1.408,4.9,4.3a4.053,4.053,0,0,1-3.742,4.095l4.521,6.115h-2.44l-4.267-5.912H697.8v5.912h-2.081V99.183Zm4.037,6.926c1.934,0,3.028-1.015,3.028-2.6s-1.094-2.605-3.028-2.605H697.8v5.21h1.956Zm8.266-6.926h2.08v6.74l6.1-6.74h2.523l-6.327,6.926,6.622,7.583H716.41l-6.309-7.334v7.334h-2.08V99.183Z" transform="translate(0 -0.844)"/>
    <path class="cls-3" d="M61.108,3.923q0.7,1.849,2.872,10.519a36.789,36.789,0,0,1,1.028,8.37H60.077q-5.2-8.373-10.73-12.031A21.875,21.875,0,0,0,36.993,7.121q-8.405,0-13.549,7.447-6.988,10.092-6.99,28.114,0,10.471,1.191,14.895a41.084,41.084,0,0,0,4.931,11.752A16.732,16.732,0,0,0,28.535,74.8a19.961,19.961,0,0,0,10.187,2.769,18.87,18.87,0,0,0,11.517-4.2q5.554-4.2,10.648-12.54a28.524,28.524,0,0,1,5.254-.489q-0.214,2.334-.7,4.842-0.165.979-1.246,7.786L63.7,74.817l-0.756,2.877a21.731,21.731,0,0,1-9.293,4.342A63.872,63.872,0,0,1,38.94,83.477a53.84,53.84,0,0,1-12.6-1.416,28.226,28.226,0,0,1-10.161-4.488,39.144,39.144,0,0,1-9.7-9.594A38.143,38.143,0,0,1,1.25,56.718a50.734,50.734,0,0,1-1.7-13.662q0-18.338,10.647-30.276T37.375,0.844a98.353,98.353,0,0,1,12.651.772A70.414,70.414,0,0,1,61.108,3.923Zm10,26.339L71,26.86c0.455-.024.925-0.044,1.406-0.044q1.9,0,3.988.133,5.013,0.3,5.889.3c2.024,0,4.008-.051,5.944-0.139s3.659-.144,5.166-0.17,2.527-.058,3.059-0.082l-0.04.511,0.077,2.51v0.341a27.663,27.663,0,0,1-4.4.341c-1.419,0-2.353.317-2.808,0.95-0.3.405-.457,2.111-0.457,5.126,0,0.918.013,1.662,0.04,2.238L88.9,40.425l-0.077,4.052,0.228,3.446L88.9,55.368l0.492,10.813a18.266,18.266,0,0,0,1.824,7.8,8.894,8.894,0,0,0,3.413,3.57,12.606,12.606,0,0,0,6.258,1.808,21,21,0,0,0,6.792-1.073,10.926,10.926,0,0,0,3.51-1.961,9.847,9.847,0,0,0,2.294-2.479,17.931,17.931,0,0,0,1.9-4.437,39.046,39.046,0,0,0,.723-8.822q0-10.424-.989-23.475l-0.149-2.282a6.085,6.085,0,0,0-.835-3.408,3.646,3.646,0,0,0-2.731-1.335l-3.567.089-0.492-.133,0.074-3.313h3l7.242,0.385a59.424,59.424,0,0,0,6.942-.385l0.644,0.082a14.6,14.6,0,0,1,.229,1.985,5.633,5.633,0,0,1-.154,1.164,12.247,12.247,0,0,1-2.956.518,9.014,9.014,0,0,0-2.808.646,2.115,2.115,0,0,0-.532,1.593c0,0.518.037,1.264,0.114,2.244,0.079,0.715.117,1.968,0.117,3.749q0,1.51.017,2.37t0.057,1.764q0.113,3.111.187,6.3l0.38,8.751a82.281,82.281,0,0,1-.529,11.761,16.5,16.5,0,0,1-1.442,4.7,16.667,16.667,0,0,1-3.981,4.761,19.269,19.269,0,0,1-6.45,3.453,28.954,28.954,0,0,1-9.025,1.27,25.761,25.761,0,0,1-10.091-1.79,14.839,14.839,0,0,1-6.353-4.7,17.571,17.571,0,0,1-2.94-7.556,55.31,55.31,0,0,1-.569-9.132V40.124q0-7.284-.6-8.231-0.837-1.328-5.2-1.5A7.665,7.665,0,0,1,71.108,30.262Zm60.844,49.487a7.92,7.92,0,0,1,2.923-.876,14.738,14.738,0,0,0,3.489-.93,12.423,12.423,0,0,0,.227-1.246q0.075-.608.077-4.134l-0.04-9.605,0.154-5.166-0.079-4.01,0.079-2.326q0.112-4.694.112-8.782,0-8.963-.191-11.462l-2.239-.511a36.305,36.305,0,0,1-4.1-.436l-0.077-2.581,0.151-.474a19.232,19.232,0,0,1,3.49-.347c0.58,0,1.758-.013,3.527-0.044,1.821,0.177,2.808.259,2.96,0.259l2.008-.126,4.742-.259a80.431,80.431,0,0,1,9.368-.518q7.779,0,12.365,4.5a14.067,14.067,0,0,1,4.588,10.318,13.49,13.49,0,0,1-2.477,7.9,14.985,14.985,0,0,1-7.616,5.363q0.454,0.906,1.211,2.111,1.585,2.586,2.571,4.393l6.047,11.154A34.1,34.1,0,0,0,178.2,77.1a8.815,8.815,0,0,0,2.9,1.662,11.252,11.252,0,0,1,2.617,1.461,4.538,4.538,0,0,1,.227,1.295c0,0.259-.011.589-0.038,0.987h-1.021l-0.761.044-1.971-.3H178.6a17.288,17.288,0,0,0-3-.217l-3.795-.044q-0.418,0-2.654.3c-0.681.088-1.228,0.157-1.633,0.217l-1.285-2.84q-1.6-3.233-2.242-4.825-1.663-4.183-5.724-13.306-1.9-4.219-2.654-4.785a6.442,6.442,0,0,0-3.907-.9c-0.506,0-1.365.031-2.58,0.089-0.075.834-.114,1.819-0.114,2.972l0.189,9.557-0.227,8.1a7.754,7.754,0,0,0,2.769,1.12,28.479,28.479,0,0,1,5.08,1.635,25.156,25.156,0,0,1-.149,3.187c-0.481-.027-0.784-0.04-0.912-0.04l-1.554.082q-8.157-.813-9.673-0.814c-0.659,0-1.127.013-1.406,0.044l-5.232.387a35.071,35.071,0,0,1-4.362.3h-1.632c-0.051-.719-0.077-1.175-0.077-1.379A12.685,12.685,0,0,1,131.952,79.748Zm17.07-27.857c1.213,0.055,2.1.082,2.654,0.082q6.449,0,9.14-2.625a9.375,9.375,0,0,0,2.694-7.025,19.008,19.008,0,0,0-.662-5.1A9.35,9.35,0,0,0,161.2,33.67a8.637,8.637,0,0,0-3.669-2.541,16,16,0,0,0-5.336-.646,17.863,17.863,0,0,0-2.988.215l-0.075.817,0.075,5.816L149.1,40.858l0.037,4.7q-0.076,1.982-.114,5.128v1.208h0Zm37.134,27.857a7.914,7.914,0,0,1,2.923-.876,14.712,14.712,0,0,0,3.489-.93A12.423,12.423,0,0,0,192.8,76.7q0.075-.608.077-4.134l-0.038-9.605,0.154-5.166-0.079-4.01,0.079-2.326q0.112-4.694.112-8.782,0-8.963-.191-11.462L190.67,30.7a36.305,36.305,0,0,1-4.1-.436L186.5,27.683l0.149-.474a19.232,19.232,0,0,1,3.49-.347c0.58,0,1.758-.013,3.527-0.044,1.819,0.177,2.808.259,2.96,0.259l2.008-.126,4.742-.259a80.441,80.441,0,0,1,9.37-.518q7.776,0,12.365,4.5A14.067,14.067,0,0,1,229.7,40.993a13.5,13.5,0,0,1-2.476,7.9,14.984,14.984,0,0,1-7.617,5.363c0.306,0.6.706,1.308,1.211,2.111q1.585,2.586,2.571,4.393l6.047,11.154A34.377,34.377,0,0,0,232.41,77.1a8.812,8.812,0,0,0,2.9,1.662,11.294,11.294,0,0,1,2.617,1.461,4.568,4.568,0,0,1,.226,1.295c0,0.259-.011.589-0.037,0.987H237.1l-0.76.044-1.971-.3H232.81a17.283,17.283,0,0,0-3-.217l-3.795-.044q-0.418,0-2.655.3c-0.681.088-1.228,0.157-1.632,0.217l-1.286-2.84q-1.6-3.233-2.241-4.825-1.665-4.183-5.725-13.306-1.9-4.219-2.654-4.785a6.438,6.438,0,0,0-3.907-.9c-0.506,0-1.365.031-2.58,0.089-0.075.834-.112,1.819-0.112,2.972l0.187,9.557-0.227,8.1a7.754,7.754,0,0,0,2.769,1.12,28.519,28.519,0,0,1,5.081,1.635,25.116,25.116,0,0,1-.15,3.187q-0.721-.04-0.909-0.04l-1.554.082q-8.161-.813-9.673-0.814c-0.659,0-1.127.013-1.407,0.044l-5.232.387a35.058,35.058,0,0,1-4.362.3h-1.632c-0.051-.719-0.077-1.175-0.077-1.379A10.793,10.793,0,0,1,186.156,79.748Zm17.07-27.857q1.817,0.083,2.654.082,6.447,0,9.139-2.625a9.371,9.371,0,0,0,2.694-7.025,19.009,19.009,0,0,0-.661-5.1,9.35,9.35,0,0,0-1.646-3.552,8.648,8.648,0,0,0-3.667-2.541,16.006,16.006,0,0,0-5.336-.646,17.863,17.863,0,0,0-2.988.215l-0.075.817,0.075,5.816L203.3,40.858l0.037,4.7q-0.075,1.982-.112,5.128v1.208h0Zm35.466-25.246q2.16,0.133,3.753.385a44.032,44.032,0,0,0,6.942.474q1.368,0,7.014-.252,8.461-.389,15.288-0.392l6.865-.082a52.4,52.4,0,0,1,6.829.646,3.639,3.639,0,0,1,.681,2.326v8.87l0.075,1.764c0,0.177-.013.436-0.037,0.777l-1.554.089c-0.2,0-.635-0.031-1.29-0.089-0.228-.575-0.529-1.423-0.91-2.541L280.83,35.56A19.935,19.935,0,0,0,278.4,31.6a9.111,9.111,0,0,0-2.426-.348c-0.255-.024-1.026-0.1-2.316-0.215q-3.523-.342-7.585-0.341-4.629,0-8.267.171c-0.079.715-.117,3.548-0.117,8.483l0.038,7.239v5.425a12.02,12.02,0,0,0,1.635.128q6.806,0,9.695-.3a8.489,8.489,0,0,0,3.57-.841,4.439,4.439,0,0,0,1.218-1.872q0.339-.946,1.329-6.334l0.492-.044,2.2,0.044q0.151,3.831.15,5.814,0,4.525-.055,5.812c-0.038.865-.058,1.54-0.058,2.029,0,0.77.038,2.016,0.113,3.725s0.114,2.977.114,3.811V64.94H275.44c-0.1-.46-0.293-1.41-0.569-2.844a19.053,19.053,0,0,0-1.369-5,2.787,2.787,0,0,0-1.523-1.162,26.2,26.2,0,0,0-5.623-.305,78.447,78.447,0,0,0-8.632.347v1.461q0,5.129.154,8.53l-0.075,9.3a2.372,2.372,0,0,0,1.022,2.24q1.553,0.91,9.519.9a37.917,37.917,0,0,0,8.955-.9,8.708,8.708,0,0,0,4.476-2.884,22.683,22.683,0,0,0,4.285-8.094A17.853,17.853,0,0,1,288,66.4c0.277,0,.694.018,1.25,0.044-0.072.719-.136,1.321-0.184,1.806l-0.225,1.293-1.384,8.138-0.672,4.913q-2.466.133-3.91,0.133-2.128,0-11.349-.436-6.49-.3-15.639-0.3-4.556,0-11.2.429h-1.6l-4.595.17V79.622a20.278,20.278,0,0,1,2.883-.476,16.41,16.41,0,0,0,5.461-1.377,10.154,10.154,0,0,0,.418-3.143c0-.487-0.014-1.321-0.038-2.5l0.038-1.339-0.112-16.231,0.037-4.867L246.99,42.8l0.037-4.869-0.338-5.343c0-.137-0.029-0.429-0.079-0.859a1.741,1.741,0,0,0-1.136-.6c-0.28-.058-0.66-0.146-1.141-0.259a22.159,22.159,0,0,0-4.171-.606c-0.479-.027-1.039-0.084-1.67-0.171Zm53.9,3.4-0.15-3.017h3.224l1.1-.038q2.277-.133,3.148-0.133,0.459,0,2.655.088c0.33,0.024.609,0.044,0.835,0.044s1.026-.031,2.391-0.088,2.133-.088,2.314-0.088c0.274,0,.668.02,1.177,0.044q5.838,6.032,9.52,10.38t26.857,30.453V66.622l-0.154-5q-0.113-4.389-.306-6.954c-0.125-1.706-.2-3.749-0.226-6.115s-0.112-4.519-.266-6.443q-0.451-5.644-.455-6.5c-0.026-1.866-.2-3-0.532-3.4q-0.793-.95-3.641-1.423a10.152,10.152,0,0,1-3.111-.985l0.037-2.541,0.987-.133,7.473-.259,8.346-.259c0.554-.024,1.086-0.038,1.591-0.038l0.042,2.8a7.51,7.51,0,0,1-1.785.779,14.871,14.871,0,0,0-2.808.9,11.264,11.264,0,0,0-2.083,1.512,2.922,2.922,0,0,0-.343,1.593c0,0.17.024,0.77,0.075,1.808,0.026,0.518.037,1.72,0.037,3.616q0.04,6.248.306,9.864c0.05,0.779.088,1.649,0.112,2.629l0.417,15.116c0.027,1.06.04,1.8,0.04,2.235v5.3l0.112,2.244-0.112,2.328c0.1,1.175.149,1.879,0.149,2.1v2.282l-4.362.177-4.513-5.3-9.214-10.375-6.452-7.321-4.742-5.513q-4.627-5.169-8.42-9.09l-6.181-6.33,0.342,16.021c0.024,0.972.038,1.979,0.038,3.014l-0.038,3.061,0.229,5.639q0.112,3.532.417,7.666a10.369,10.369,0,0,0,.189,1.567,11.711,11.711,0,0,0,.455,1.317,25,25,0,0,0,6.45.9c0.226,0.055.556,0.157,0.986,0.3l0.15,3.49-1.479.044q-1.214,0-7.66-.651-6.033.093-8.045,0.259c-1.341.122-2.072,0.177-2.2,0.177a5.876,5.876,0,0,1-1.252-.177c-0.053-.657-0.075-1.233-0.075-1.72,0-.316.009-0.834,0.038-1.547a9.19,9.19,0,0,1,1.744-.224c0.152,0,.644.033,1.479,0.088,2.125,0,3.38-.177,3.773-0.536s0.615-1.33.666-2.908q0.264-6.845.263-8.353V64.993l0.08-14-0.117-8.742a31.119,31.119,0,0,0-.569-6.93,3.833,3.833,0,0,0-.872-1.726,9.009,9.009,0,0,0-2.96-2.326A26.4,26.4,0,0,0,292.591,30.047Zm69.183-5.81h2.352c0.178,0.316.3,0.551,0.38,0.695a15.7,15.7,0,0,0,1.632,2.751,50.307,50.307,0,0,0,5.2.126q2.917,0,5.195-.033l0.76-.093,4.589-.044,8.574,0.044h11.719l2.239-.348a5.017,5.017,0,0,0,1.064-2.1c0.1-.259.239-0.62,0.417-1.089l1.668-.044c0.255,0,.635.02,1.138,0.044,0.026,1.979.04,4.971,0.04,8.959l0.037,3.831-0.037,2.2a10.737,10.737,0,0,1-.152,1.934,11.729,11.729,0,0,1-2.733.691,30.523,30.523,0,0,1-2.147-4.862,21.374,21.374,0,0,0-1.464-3.534,2.136,2.136,0,0,0-1.066-.735,72.542,72.542,0,0,0-8.06-.215,26.07,26.07,0,0,0-2.661.17,26.021,26.021,0,0,0-.191,2.758l0.037,5.772V53.781l0.117,13.658-0.04,5.6a16.434,16.434,0,0,0,.457,4.475,8.794,8.794,0,0,0,2.25.562c0.205,0.027,1.143.259,2.82,0.691a13.455,13.455,0,0,1,2.019.691c0.13,1.031.191,1.662,0.191,1.894a8.032,8.032,0,0,1-.112,1.12c-0.558.026-1.013,0.04-1.369,0.04A57.859,57.859,0,0,1,390,82.185q-2.736-.322-9.9-0.323c-0.756,0-2.982.177-6.676,0.518q-2.163.173-2.806,0.17c-0.027-.429-0.051-0.759-0.075-0.985l-0.037-.992V80.226a5.2,5.2,0,0,1,3.149-1.852,26.121,26.121,0,0,0,5.46-1.937,5.881,5.881,0,0,0,.455-2.156q0.264-5.169.268-16.448l-0.191-16.285a80.062,80.062,0,0,0-.226-8.136,1.089,1.089,0,0,0-.269-0.582,0.866,0.866,0,0,0-.529-0.241q-1.178-.169-7.66-0.17-3.57,0-4.78.779-1.628,1.072-4.893,5.854c-0.631.923-1.1,1.379-1.4,1.379a8.519,8.519,0,0,1-2.239-1.675,93,93,0,0,0,3.261-11.2C361.306,25.913,361.6,24.813,361.774,24.237Zm78.059,58.016,0.11-4.187a32.012,32.012,0,0,1,3.628-.923c2.784-.62,4.472-1.169,5.07-1.662a11.184,11.184,0,0,0,2.193-3.565l10.939-32.525L474.605,1.156H480.5l0.49,1.107,9.418,25.352q3.194,8.06,5.738,15.66t4.383,12.4q1.082,2.891,2.978,8.673,0.969,3.141,2.975,7.874a9.765,9.765,0,0,0,1.626,3.017,5.787,5.787,0,0,0,3.169,1.233,18.366,18.366,0,0,1,4.742,1.416,25.242,25.242,0,0,1,.27,3.017c0,0.283-.019.733-0.052,1.352q-4.012,0-8.836-.436t-8.669-.429q-4.278,0-6.177.126l-9.212.551-2.654.126q0-2.151.163-4.121l6.012-1.478a10.508,10.508,0,0,0,3.142-1.228,2.077,2.077,0,0,0,.543-1.416,5.594,5.594,0,0,0-.268-1.662l-2.154-6.029L483.876,54.2l-20.688-.062q-1.15,2.951-4.771,14.459a18.355,18.355,0,0,0-1.028,4.429,2.905,2.905,0,0,0,.76,2.275c0.828,0.779,2.422,1.334,4.768,1.662,0.326,0.082,1.6.305,3.848,0.677,0.035,1.474.053,2.505,0.053,3.074a10.392,10.392,0,0,1-.108,1.416q-3.361,0-16.041-1.045l-2.222.429a41.924,41.924,0,0,1-7.64.741h-0.974v0Zm25.488-34.579q12.664,0.179,14.941.181l1.351-.062q-1.629-5.471-4.228-12.763t-4.228-11.108Zm51.972,32.073a7.9,7.9,0,0,1,2.92-.876,14.8,14.8,0,0,0,3.492-.93,12.345,12.345,0,0,0,.226-1.246q0.072-.608.075-4.134l-0.04-9.605,0.154-5.166-0.077-4.01,0.077-2.326q0.113-4.694.114-8.782,0-8.963-.191-11.462L521.8,30.7a36.246,36.246,0,0,1-4.1-.436l-0.075-2.581,0.15-.474a19.217,19.217,0,0,1,3.491-.347c0.58,0,1.758-.013,3.525-0.044,1.822,0.177,2.808.259,2.962,0.259l2.009-.126,4.742-.259a80.413,80.413,0,0,1,9.367-.518q7.779,0,12.367,4.5a14.067,14.067,0,0,1,4.588,10.318,13.5,13.5,0,0,1-2.476,7.9,14.968,14.968,0,0,1-7.616,5.363q0.455,0.906,1.211,2.111,1.586,2.586,2.571,4.393l6.047,11.154a34.319,34.319,0,0,0,2.975,5.185,8.812,8.812,0,0,0,2.9,1.662,11.294,11.294,0,0,1,2.617,1.461,4.538,4.538,0,0,1,.227,1.295c0,0.259-.013.589-0.04,0.987h-1.024l-0.758.044-1.971-.3h-1.556a17.283,17.283,0,0,0-3-.217l-3.795-.044q-0.418,0-2.655.3c-0.683.088-1.228,0.157-1.632,0.217l-1.286-2.84q-1.595-3.233-2.243-4.825-1.665-4.183-5.722-13.306-1.9-4.219-2.657-4.785a6.438,6.438,0,0,0-3.907-.9c-0.5,0-1.365.031-2.58,0.089-0.075.834-.114,1.819-0.114,2.972l0.189,9.557-0.227,8.1a7.724,7.724,0,0,0,2.769,1.12,28.572,28.572,0,0,1,5.081,1.635,25.116,25.116,0,0,1-.15,3.187c-0.481-.027-0.784-0.04-0.912-0.04l-1.553.082q-8.158-.813-9.671-0.814c-0.659,0-1.127.013-1.407,0.044l-5.232.387a35.094,35.094,0,0,1-4.361.3h-1.633c-0.048-.719-0.075-1.175-0.075-1.379A11.33,11.33,0,0,1,517.293,79.748Zm17.069-27.857c1.213,0.055,2.1.082,2.657,0.082q6.444,0,9.139-2.625a9.382,9.382,0,0,0,2.694-7.025,19.008,19.008,0,0,0-.664-5.1,9.4,9.4,0,0,0-1.643-3.552,8.658,8.658,0,0,0-3.67-2.541,16,16,0,0,0-5.335-.646,17.876,17.876,0,0,0-2.989.215l-0.075.817,0.075,5.816-0.112,3.528,0.037,4.7q-0.072,1.982-.114,5.128v1.208Zm81.514-21.629q0.263,1.252.606,4.938c0.226,2.452.341,4.243,0.341,5.36a6.167,6.167,0,0,1-.266,1.593,12.34,12.34,0,0,1-2.769-.347,45.072,45.072,0,0,0-4.059-6.327,18.486,18.486,0,0,0-5.654-4.09,13.043,13.043,0,0,0-5.838-1.25q-6.339,0-11.152,6.456t-4.817,19.195a36.513,36.513,0,0,0,1.877,11.619,19.359,19.359,0,0,0,5.632,8.842,13.182,13.182,0,0,0,8.838,3.2,20.463,20.463,0,0,0,5.232-.735,4.2,4.2,0,0,0,2.279-1.37,3.85,3.85,0,0,0,.793-2.056,62.082,62.082,0,0,0,.3-7.078q0-4.455-.112-6.133a2.266,2.266,0,0,0-.512-0.834,7.284,7.284,0,0,0-1.536-.62L601.689,59.6a2.288,2.288,0,0,1-1.367-.733,6.6,6.6,0,0,1-.077-0.815,7.6,7.6,0,0,1,.266-1.682,3.366,3.366,0,0,1,.95-0.259q4.132,0,7.168.31c0.709,0.049,1.483.082,2.313,0.082l6-.088,2.54-.089a25.045,25.045,0,0,1,2.541.089c0.024,0.746.041,1.379,0.041,1.9a2.732,2.732,0,0,1-.268,1.073,13.859,13.859,0,0,1-2.2,1.093,7.607,7.607,0,0,0-1.745.879,2.081,2.081,0,0,0-.418,1.073q-0.111.727-.112,5.119c0,3.38-.013,5.4-0.039,6.06-0.1,2.118-.154,3.326-0.154,3.61a3.248,3.248,0,0,1-.376,1.981q-1.065,1.2-6.581,2.729a48.408,48.408,0,0,1-12.842,1.523,37.512,37.512,0,0,1-8.893-.923A19.634,19.634,0,0,1,582,79.79a24.709,24.709,0,0,1-6.1-5.856,25.157,25.157,0,0,1-3.8-7.447,38.406,38.406,0,0,1-1.745-11.331,34.633,34.633,0,0,1,2.58-12.834,28.178,28.178,0,0,1,5.329-8.465,24.749,24.749,0,0,1,8.589-6,27.92,27.92,0,0,1,11.229-2.238,21.7,21.7,0,0,1,2.466.215,27.626,27.626,0,0,1,8.649,1.315A26.542,26.542,0,0,1,615.876,30.262Zm8.987,0-0.114-3.4c0.455-.024.925-0.044,1.406-0.044q1.9,0,3.989.133,5.013,0.3,5.889.3c2.023,0,4.008-.051,5.944-0.139s3.658-.144,5.166-0.17,2.527-.058,3.059-0.082l-0.04.511,0.075,2.51v0.341a27.624,27.624,0,0,1-4.4.341c-1.42,0-2.354.317-2.809,0.95q-0.451.608-.454,5.126c0,0.918.013,1.662,0.039,2.238l0.037,1.549-0.074,4.052,0.228,3.446-0.154,7.445,0.5,10.813a18.272,18.272,0,0,0,1.824,7.8,8.9,8.9,0,0,0,3.412,3.57,12.6,12.6,0,0,0,6.259,1.808,21,21,0,0,0,6.792-1.073,10.9,10.9,0,0,0,3.509-1.961,9.809,9.809,0,0,0,2.294-2.479,18.09,18.09,0,0,0,1.9-4.437,39.2,39.2,0,0,0,.72-8.822q0-10.424-.989-23.475l-0.149-2.282a6.068,6.068,0,0,0-.835-3.408,3.637,3.637,0,0,0-2.729-1.335l-3.567.089-0.492-.133,0.075-3.313h3l7.245,0.385a59.519,59.519,0,0,0,6.946-.385l0.639,0.082a14.373,14.373,0,0,1,.231,1.985,5.654,5.654,0,0,1-.156,1.164,12.238,12.238,0,0,1-2.958.518,8.93,8.93,0,0,0-2.8.646,2.1,2.1,0,0,0-.535,1.593c0,0.518.038,1.264,0.112,2.244,0.082,0.715.121,1.968,0.121,3.749q0,1.51.02,2.37c0.011,0.575.031,1.164,0.055,1.764q0.112,3.111.189,6.3l0.378,8.751a82.231,82.231,0,0,1-.53,11.761,16.594,16.594,0,0,1-1.441,4.7,16.622,16.622,0,0,1-3.982,4.761,19.245,19.245,0,0,1-6.449,3.453,28.973,28.973,0,0,1-9.027,1.27,25.777,25.777,0,0,1-10.091-1.79,14.851,14.851,0,0,1-6.353-4.7,17.6,17.6,0,0,1-2.94-7.556,55.337,55.337,0,0,1-.569-9.132V40.124q0-7.284-.6-8.231-0.841-1.328-5.2-1.5A7.662,7.662,0,0,1,624.863,30.262ZM714.538,27.9a33.4,33.4,0,0,1,.685,4.431q0.452,4.435.453,6.9a10.188,10.188,0,0,1-.152,1.675l-0.375.133-2.738-.215-0.451-.088q-1.668-5.69-3.34-7.713a8.63,8.63,0,0,0-6.786-3.446,7.914,7.914,0,0,0-5.9,2.224,7.514,7.514,0,0,0-2.184,5.493,8.134,8.134,0,0,0,2.158,5.3q2.129,2.543,9.033,4.862a38.411,38.411,0,0,1,5.6,2.492,16.118,16.118,0,0,1,8.117,8.888,19.347,19.347,0,0,1,.848,6.184,24.64,24.64,0,0,1-1.325,7.963,12.081,12.081,0,0,1-2.318,3.926,22.6,22.6,0,0,1-3.527,3.034,16.533,16.533,0,0,1-4.947,2.523,23.43,23.43,0,0,1-6.583.772,28.36,28.36,0,0,1-6.335-.861L689.92,80.87a7.246,7.246,0,0,1-2.393-1.08,1.755,1.755,0,0,1-.338-0.817V78.5q0-.475-0.187-5.9-0.076-2.808-.077-3.962V67l3.527-.088c1.213,3.194,1.991,5.128,2.347,5.787a13.724,13.724,0,0,0,2.593,3.563,10.575,10.575,0,0,0,3.39,2.164,11.207,11.207,0,0,0,4.281.8,12.2,12.2,0,0,0,4.5-.992,8.416,8.416,0,0,0,3.962-3.256,8.649,8.649,0,0,0,1.494-4.856,8.363,8.363,0,0,0-2.617-5.9q-1.589-1.68-8.565-4.488t-9.673-5a14.818,14.818,0,0,1-4.25-5.878,18.208,18.208,0,0,1-1.558-7.089,16.744,16.744,0,0,1,4.327-11.639q4.32-4.78,12.742-4.78a28.742,28.742,0,0,1,5.384.733A36.841,36.841,0,0,1,714.538,27.9ZM415.1,57.53h14.846l7.541-.122a15.751,15.751,0,0,1,2.874.246q0.143,2.9.284,4.3L440.686,63,440.5,66.2c-0.03.494-.046,1.111-0.046,1.844v1.111l-25.545.055c-0.031-1.184-.046-2.089-0.046-2.7q0-1.537.094-3.448c0.031-.657.046-1.124,0.046-1.416l-0.046-3.074Z" transform="translate(0 -0.844)"/>
  </g>
</svg>
