<svg xmlns="http://www.w3.org/2000/svg" width="349" height="55" viewBox="0 0 349 55">
  <g fill="none" fill-rule="evenodd">
    <path class='no-color-change' fill="#009BFF" d="M54.177,27.824 C54.177,42.737 42.09,54.824 27.177,54.824 C12.264,54.824 0.177,42.737 0.177,27.824 C0.177,12.911 12.264,0.824 27.177,0.824 C42.09,0.824 54.177,12.911 54.177,27.824"/>
    <path fill="#404040" d="M69.537 21.551C70.516 21.551 71.272 21.263 71.805 20.686 72.338 20.109 72.606 19.287 72.606 18.22L72.606 7.441 77.485 7.441 77.485 18.194C77.485 20.555 76.793 22.382 75.412 23.676 74.031 24.97 72.072 25.617 69.537 25.617 67.002 25.617 65.043 24.97 63.662 23.676 62.28 22.382 61.59 20.555 61.59 18.194L61.59 7.441 66.469 7.441 66.469 18.22C66.469 19.287 66.735 20.109 67.268 20.686 67.801 21.263 68.557 21.551 69.537 21.551M87.24 25.617C85.789 25.617 84.399 25.368 83.071 24.87 81.742 24.37 80.588 23.659 79.61 22.732L81.969 19.768C82.668 20.397 83.455 20.892 84.33 21.249 85.203 21.608 86.166 21.787 87.215 21.787 87.914 21.787 88.465 21.665 88.867 21.42 89.27 21.175 89.471 20.808 89.471 20.319 89.471 19.846 89.235 19.466 88.762 19.178 88.291 18.889 87.459 18.587 86.272 18.273L85.17 17.984C83.561 17.565 82.336 16.922 81.496 16.056 80.658 15.191 80.239 14.094 80.239 12.765 80.239 11.628 80.535 10.631 81.129 9.775 81.725 8.918 82.547 8.258 83.596 7.794 84.645 7.331 85.86 7.099 87.24 7.099 88.606 7.099 89.908 7.349 91.149 7.847 92.391 8.345 93.492 9.023 94.453 9.879L92.014 12.949C91.385 12.407 90.647 11.934 89.799 11.532 88.949 11.13 88.108 10.929 87.268 10.929 86.569 10.929 86.03 11.047 85.655 11.283 85.278 11.519 85.09 11.865 85.09 12.319 85.09 12.739 85.287 13.102 85.68 13.408 86.074 13.713 86.752 13.997 87.713 14.26L89.051 14.627C90.975 15.152 92.334 15.869 93.129 16.778 93.924 17.687 94.323 18.745 94.323 19.952 94.323 21.088 94.03 22.08 93.444 22.928 92.858 23.777 92.032 24.437 90.965 24.909 89.899 25.38 88.658 25.617 87.24 25.617M102.481 18.326L106.703 18.326 104.606 12.082 102.481 18.326zM109.063 25.276L107.936 21.945 101.248 21.945 100.119 25.276 95.293 25.276 101.824 7.441 107.49 7.441 114.022 25.276 109.063 25.276 109.063 25.276z"/>
    <polyline fill="#404040" points="125.219 25.276 125.219 11.374 119.922 11.374 119.922 7.441 135.397 7.441 135.397 11.374 130.098 11.374 130.098 25.276 125.219 25.276"/>
    <path fill="#404040" d="M145.6 21.578C146.455 21.578 147.203 21.359 147.842 20.922 148.481 20.485 148.983 19.877 149.35 19.099 149.717 18.321 149.901 17.416 149.901 16.384 149.901 15.353 149.717 14.444 149.35 13.657 148.983 12.87 148.481 12.253 147.842 11.807 147.203 11.362 146.455 11.139 145.6 11.139 144.742 11.139 143.994 11.362 143.356 11.807 142.719 12.253 142.215 12.87 141.848 13.657 141.481 14.444 141.297 15.353 141.297 16.384 141.297 17.416 141.481 18.321 141.848 19.099 142.215 19.877 142.719 20.485 143.356 20.922 143.994 21.359 144.742 21.578 145.6 21.578zM145.6 25.617C143.815 25.617 142.229 25.223 140.838 24.437 139.449 23.65 138.352 22.561 137.547 21.171 136.742 19.781 136.34 18.186 136.34 16.384 136.34 15.02 136.567 13.775 137.022 12.647 137.477 11.519 138.123 10.539 138.963 9.709 139.803 8.879 140.782 8.236 141.901 7.782 143.02 7.327 144.252 7.099 145.6 7.099 146.946 7.099 148.178 7.327 149.297 7.782 150.416 8.236 151.395 8.879 152.235 9.709 153.074 10.539 153.721 11.519 154.176 12.647 154.631 13.775 154.858 15.02 154.858 16.384 154.858 18.186 154.455 19.781 153.651 21.171 152.846 22.561 151.75 23.65 150.36 24.437 148.969 25.223 147.383 25.617 145.6 25.617L145.6 25.617zM162.463 21.42L164.694 21.42C165.969 21.42 166.979 20.957 167.723 20.03 168.465 19.104 168.838 17.879 168.838 16.358 168.838 14.836 168.465 13.613 167.723 12.686 166.979 11.759 165.969 11.296 164.694 11.296L162.463 11.296 162.463 21.42zM157.664 25.276L157.664 7.441 164.694 7.441C166.459 7.441 168.02 7.821 169.375 8.581 170.731 9.342 171.793 10.391 172.563 11.729 173.33 13.067 173.715 14.61 173.715 16.358 173.715 18.107 173.33 19.65 172.563 20.988 171.793 22.325 170.731 23.374 169.375 24.135 168.02 24.896 166.459 25.276 164.694 25.276L157.664 25.276 157.664 25.276zM181.532 18.326L185.754 18.326 183.657 12.082 181.532 18.326zM188.115 25.276L186.989 21.945 180.299 21.945 179.172 25.276 174.346 25.276 180.877 7.441 186.541 7.441 193.073 25.276 188.115 25.276 188.115 25.276z"/>
    <polyline fill="#404040" points="202.514 18.85 202.514 25.276 197.557 25.276 197.557 18.85 191.237 7.441 196.744 7.441 200.049 14.522 203.326 7.441 208.834 7.441 202.514 18.85"/>
    <polyline fill="#404040" points="227.797 25.276 220.795 14.995 220.795 25.276 216.309 25.276 216.309 7.441 220.768 7.441 227.744 17.906 227.744 7.441 232.256 7.441 232.256 25.276 227.797 25.276"/>
    <polyline fill="#404040" points="236.192 25.276 236.192 7.441 248.492 7.441 248.492 11.348 240.965 11.348 240.965 14.365 247.653 14.365 247.653 18.273 240.965 18.273 240.965 21.368 248.912 21.368 248.912 25.276 236.192 25.276"/>
    <polyline fill="#404040" points="255.914 25.276 255.914 11.374 250.617 11.374 250.617 7.441 266.092 7.441 266.092 11.374 260.793 11.374 260.793 25.276 255.914 25.276"/>
    <polyline fill="#404040" points="282.563 25.276 279.678 13.683 276.791 25.276 271.625 25.276 267.192 7.441 271.914 7.441 274.615 19.611 277.606 7.441 281.776 7.441 284.739 19.532 287.52 7.441 292.162 7.441 287.729 25.276 282.563 25.276"/>
    <path fill="#404040" d="M302.549 21.578C303.405 21.578 304.153 21.359 304.791 20.922 305.43 20.485 305.932 19.877 306.299 19.099 306.666 18.321 306.85 17.416 306.85 16.384 306.85 15.353 306.666 14.444 306.299 13.657 305.932 12.87 305.43 12.253 304.791 11.807 304.153 11.362 303.405 11.139 302.549 11.139 301.692 11.139 300.944 11.362 300.305 11.807 299.668 12.253 299.164 12.87 298.797 13.657 298.43 14.444 298.246 15.353 298.246 16.384 298.246 17.416 298.43 18.321 298.797 19.099 299.164 19.877 299.668 20.485 300.305 20.922 300.944 21.359 301.692 21.578 302.549 21.578zM302.549 25.617C300.764 25.617 299.178 25.223 297.787 24.437 296.399 23.65 295.301 22.561 294.496 21.171 293.692 19.781 293.289 18.186 293.289 16.384 293.289 15.02 293.516 13.775 293.971 12.647 294.426 11.519 295.073 10.539 295.912 9.709 296.752 8.879 297.731 8.236 298.85 7.782 299.969 7.327 301.201 7.099 302.549 7.099 303.895 7.099 305.127 7.327 306.246 7.782 307.365 8.236 308.344 8.879 309.184 9.709 310.024 10.539 310.67 11.519 311.125 12.647 311.58 13.775 311.807 15.02 311.807 16.384 311.807 18.186 311.405 19.781 310.6 21.171 309.795 22.561 308.699 23.65 307.309 24.437 305.918 25.223 304.332 25.617 302.549 25.617L302.549 25.617zM319.387 15.65L322.01 15.65C322.762 15.65 323.356 15.454 323.793 15.06 324.231 14.666 324.449 14.128 324.449 13.447 324.449 12.8 324.231 12.28 323.793 11.886 323.356 11.493 322.762 11.296 322.01 11.296L319.387 11.296 319.387 15.65zM319.387 19.348L319.387 25.276 314.666 25.276 314.666 7.441 322.535 7.441C324.633 7.441 326.293 7.978 327.518 9.053 328.742 10.128 329.354 11.593 329.354 13.447 329.354 14.653 329.082 15.694 328.541 16.568 327.998 17.443 327.239 18.124 326.26 18.614L329.905 25.276 324.711 25.276 321.748 19.348 319.387 19.348 319.387 19.348z"/>
    <polyline fill="#404040" points="343.045 25.276 337.379 16.556 337.379 25.276 332.528 25.276 332.528 7.441 337.379 7.441 337.379 15.27 343.254 7.441 348.867 7.441 342.258 15.637 348.737 25.276 343.045 25.276"/>
    <path class='no-color-change' fill="#009BFF" d="M70.77 48.47C68.951 48.47 67.356 48.077 65.983 47.29 64.61 46.503 63.535 45.414 62.756 44.025 61.979 42.634 61.59 41.021 61.59 39.185 61.59 37.349 61.979 35.741 62.756 34.36 63.535 32.978 64.61 31.898 65.983 31.12 67.356 30.342 68.951 29.953 70.77 29.953 72.309 29.953 73.694 30.263 74.926 30.884 76.16 31.505 77.213 32.401 78.088 33.573L74.231 35.854C73.778 35.278 73.266 34.823 72.698 34.491 72.129 34.159 71.469 33.993 70.717 33.993 69.475 33.993 68.471 34.46 67.701 35.395 66.932 36.33 66.547 37.594 66.547 39.185 66.547 40.777 66.932 42.049 67.701 43.001 68.471 43.954 69.475 44.431 70.717 44.431 71.487 44.431 72.168 44.244 72.762 43.868 73.358 43.492 73.856 43.05 74.258 42.542L78.088 44.825C77.231 46.014 76.176 46.918 74.926 47.539 73.676 48.16 72.291 48.47 70.77 48.47M86.166 41.179L90.389 41.179 88.291 34.936 86.166 41.179zM92.748 48.129L91.621 44.798 84.934 44.798 83.805 48.129 78.979 48.129 85.51 30.294 91.176 30.294 97.707 48.129 92.748 48.129 92.748 48.129zM104.762 38.503L107.385 38.503C108.135 38.503 108.731 38.307 109.168 37.913 109.604 37.52 109.823 36.982 109.823 36.3 109.823 35.654 109.604 35.133 109.168 34.74 108.731 34.346 108.135 34.15 107.385 34.15L104.762 34.15 104.762 38.503zM104.762 42.202L104.762 48.129 100.039 48.129 100.039 30.294 107.908 30.294C110.006 30.294 111.668 30.831 112.893 31.907 114.115 32.982 114.729 34.447 114.729 36.3 114.729 37.506 114.457 38.547 113.914 39.421 113.373 40.296 112.612 40.978 111.633 41.467L115.28 48.129 110.086 48.129 107.121 42.202 104.762 42.202 104.762 42.202z"/>
    <polyline class='no-color-change' fill="#009BFF" points="122.78 44.195 130.203 44.195 130.203 48.129 117.901 48.129 117.901 30.294 122.78 30.294 122.78 44.195"/>
    <path class='no-color-change' fill="#009BFF" d="M139.069 48.47C137.617 48.47 136.227 48.221 134.899 47.723 133.569 47.224 132.414 46.512 131.436 45.585L133.797 42.621C134.496 43.25 135.282 43.745 136.157 44.103 137.032 44.461 137.992 44.641 139.041 44.641 139.74 44.641 140.291 44.519 140.694 44.274 141.096 44.029 141.297 43.662 141.297 43.172 141.297 42.7 141.063 42.32 140.59 42.032 140.117 41.743 139.287 41.441 138.098 41.126L136.996 40.837C135.387 40.418 134.164 39.776 133.324 38.91 132.485 38.044 132.065 36.948 132.065 35.618 132.065 34.482 132.362 33.485 132.957 32.628 133.551 31.772 134.373 31.112 135.422 30.648 136.471 30.185 137.688 29.953 139.069 29.953 140.432 29.953 141.735 30.203 142.977 30.701 144.217 31.199 145.319 31.876 146.282 32.733L143.842 35.802C143.213 35.26 142.473 34.787 141.625 34.385 140.778 33.984 139.934 33.783 139.094 33.783 138.395 33.783 137.858 33.901 137.481 34.136 137.106 34.372 136.918 34.718 136.918 35.172 136.918 35.592 137.114 35.955 137.508 36.261 137.901 36.567 138.578 36.851 139.541 37.114L140.877 37.481C142.801 38.005 144.16 38.722 144.957 39.631 145.752 40.54 146.151 41.598 146.151 42.805 146.151 43.942 145.858 44.934 145.272 45.782 144.686 46.63 143.86 47.29 142.793 47.762 141.727 48.234 140.485 48.47 139.069 48.47M153.625 44.405L156.93 44.405C157.524 44.405 158.004 44.239 158.371 43.907 158.739 43.575 158.922 43.163 158.922 42.674 158.922 42.149 158.739 41.721 158.371 41.388 158.004 41.057 157.524 40.89 156.93 40.89L153.625 40.89 153.625 44.405zM153.625 37.375L156.483 37.375C157.061 37.375 157.516 37.223 157.848 36.916 158.18 36.611 158.346 36.196 158.346 35.67 158.346 35.163 158.17 34.762 157.821 34.464 157.471 34.167 157.008 34.018 156.432 34.018L153.625 34.018 153.625 37.375zM163.748 43.225C163.748 44.186 163.477 45.038 162.936 45.782 162.393 46.525 161.629 47.102 160.641 47.513 159.653 47.924 158.494 48.129 157.166 48.129L149.086 48.129 149.086 30.294 156.824 30.294C158.748 30.294 160.264 30.709 161.375 31.539 162.485 32.37 163.041 33.502 163.041 34.936 163.041 35.93 162.791 36.78 162.293 37.486 161.795 38.192 161.17 38.71 160.418 39.041 161.432 39.357 162.24 39.883 162.844 40.62 163.448 41.357 163.748 42.225 163.748 43.225L163.748 43.225zM171.932 41.179L176.155 41.179 174.057 34.936 171.932 41.179zM178.516 48.129L177.389 44.798 170.699 44.798 169.573 48.129 164.746 48.129 171.278 30.294 176.942 30.294 183.473 48.129 178.516 48.129 178.516 48.129zM190.606 44.274L192.836 44.274C194.112 44.274 195.121 43.811 195.865 42.883 196.608 41.957 196.981 40.733 196.981 39.211 196.981 37.69 196.608 36.466 195.865 35.539 195.121 34.613 194.112 34.15 192.836 34.15L190.606 34.15 190.606 44.274zM185.807 48.129L185.807 30.294 192.836 30.294C194.602 30.294 196.162 30.674 197.518 31.435 198.873 32.196 199.936 33.245 200.705 34.582 201.473 35.92 201.858 37.463 201.858 39.211 201.858 40.96 201.473 42.503 200.705 43.841 199.936 45.178 198.873 46.228 197.518 46.989 196.162 47.749 194.602 48.129 192.836 48.129L185.807 48.129 185.807 48.129z"/>
  </g>
</svg>
