<?xml version="1.0" encoding="utf-8"?>
<!-- Generator: Adobe Illustrator 19.2.0, SVG Export Plug-In . SVG Version: 6.00 Build 0)  -->
<svg version="1.1" id="Layer_1" xmlns="http://www.w3.org/2000/svg" xmlns:xlink="http://www.w3.org/1999/xlink" x="0px" y="0px" viewBox="0 0 375 146.7" width="375" height="146.7" style="enable-background:new 0 0 375 146.7;" xml:space="preserve">
<style type="text/css">
	.st0{enable-background:new    ;}
	.st1{fill:#231F20;}
	.st2{fill:#6D6E71;}
</style>
<title>CentralFloridaFuturecom</title>
<g class="st0">
	<path class="st1" d="M328.7,84.2c0,8.6,3.8,12.5,11.4,12.5c5,0,9.3-1.8,12.2-6.3l18.4,6.5c-5.6,11.4-14.9,18.5-30.6,18.5
		c-23.6,0-35.4-12.9-35.4-37.6c0-24.8,12.7-37.5,33.9-37.5c22.8,0,33.9,14.1,33.9,40.5v3.4H328.7z M339.6,58.6
		c-5.1,0-9.4,2.9-10.7,10.6h20.6C348.8,61.8,344.4,58.6,339.6,58.6z"/>
</g>
<g class="st0">
	<path class="st1" d="M297.8,61.6c-4.5,0-9.2,0.7-12.6,2.6v49h-24.9V42.3H281l2.2,6.5c3.9-6.2,10.1-8.6,16.6-8.6
		c1.9,0,3.8,0.1,5.7,0.5v21.7C303.2,61.9,300.6,61.6,297.8,61.6z"/>
</g>
<g class="st0">
	<path class="st1" d="M236.5,113.3l-2.2-6.3c-5.3,6.6-10.3,8.5-15.4,8.5c-18.2,0-25.8-11.9-25.8-29.4V42.3h24.7v43.6
		c0,7.8,1.6,10.6,5.7,10.6c2.9,0,5.8-1.6,8.9-4V42.3h24.8v70.9H236.5z"/>
</g>
<g class="st0">
	<path class="st1" d="M167.9,115.4c-12.9,0-24.9-5.4-24.9-24.3V66.4c0-2.4,1.2-3.6,2-4.5h-11.6V42.3h9.6V20.2l24.6-7.7v29.8h23.1
		l-5.8,19.5h-17.3v29.2c0,2.9,1.6,3.8,3.6,3.8c2.5,0,5.8-1.6,7.4-3.3l13.3,14.4C185.8,111.9,176.7,115.4,167.9,115.4z"/>
</g>
<g class="st0">
	<path class="st1" d="M109.1,113.3l-2.2-6.3c-5.3,6.6-10.3,8.5-15.4,8.5c-18.2,0-25.8-11.9-25.8-29.4V42.3h24.7v43.6
		c0,7.8,1.6,10.6,5.7,10.6c2.9,0,5.8-1.6,8.9-4V42.3h24.8v70.9H109.1z"/>
</g>
<g class="st0">
	<path class="st1" d="M62.2,40.8h-33v13.1h30.1v21.9H29c0.2,0.7,0.2,1.3,0.2,2.1v35.4H4.6V18.1h64.2L62.2,40.8z"/>
</g>
<g class="st0">
	<path class="st2" d="M185.6,33.2c-4.9,0-5.9-3.5-5.9-6.8c0-3.9,1.4-6.8,5.9-6.8c3.5,0,5.2,1.9,5.4,5.1h-3.3
		c-0.2-1.5-0.9-1.9-2.1-1.9c-1.7,0-2.2,0.9-2.2,3.6c0,2.6,0.4,3.6,2.2,3.6c1.3,0,2-0.5,2.7-2.1l2.8,1.7
		C190.2,31.7,188.8,33.2,185.6,33.2z"/>
</g>
<g class="st0">
	<path class="st2" d="M192.5,32.9V19.9h9.5V23h-5.8v1.6h5.4l-1,3.1h-4.4c0.1,0.1,0.1,0.2,0.1,0.3v1.7h5.8v3.1H192.5z"/>
</g>
<g class="st0">
	<path class="st2" d="M212.2,32.9l-5-6.7c0.1,0.3,0.1,0.5,0.1,0.8v5.9h-3.5V19.9h3.1l5.1,6.8c-0.1-0.4-0.2-0.6-0.2-0.9v-5.8h3.5
		v12.9H212.2z"/>
	<path class="st2" d="M223.7,23v9.9H220V23h-3.5v-3.1h10.7V23H223.7z"/>
</g>
<g class="st0">
	<path class="st2" d="M235.7,32.9l-2.4-3.9c-0.1-0.2-0.2-0.4-0.2-0.7h-0.6v4.6h-3.7V19.9h4.9c3.6,0,5.2,1.5,5.2,4.2
		c0,1.8-0.7,3-2.2,3.6l3.2,5.1H235.7z M233.8,22.8h-1.3v2.6h1.3c1.3,0,1.5-0.7,1.5-1.3C235.2,23.4,235,22.8,233.8,22.8z"/>
</g>
<g class="st0">
	<path class="st2" d="M250,32.9l-0.9-2.2h-3.9l-0.9,2.2h-3.6l5-12.9h3l5,12.9H250z M247.4,25.9c0-0.1-0.2-0.5-0.2-1
		c0,0.4-0.2,0.8-0.2,1l-0.7,1.8h1.6L247.4,25.9z"/>
</g>
<g class="st0">
	<path class="st2" d="M255,32.9V19.9h3.7v9.7h4.8v3.2H255z"/>
</g>
<g class="st0">
	<path class="st2" d="M277.6,23h-4.9v1.8h4.4v3h-4.5c0,0.1,0,0.2,0,0.3v4.8h-3.6V19.9h9.5L277.6,23z"/>
</g>
<g class="st0">
	<path class="st2" d="M279.8,32.9V19.9h3.7v9.7h4.8v3.2H279.8z"/>
</g>
<g class="st0">
	<path class="st2" d="M295.3,33.2c-4.9,0-5.9-3.4-5.9-6.9c0-3.2,1.1-6.6,5.9-6.6s5.9,3.4,5.9,6.6C301.3,29.8,300.2,33.2,295.3,33.2z
		 M295.3,22.8c-1.6,0-2.2,0.8-2.2,3.5c0,3,0.6,3.8,2.2,3.8s2.2-0.8,2.2-3.8C297.5,23.6,296.9,22.8,295.3,22.8z"/>
</g>
<g class="st0">
	<path class="st2" d="M309.8,32.9l-2.4-3.9c-0.1-0.2-0.2-0.4-0.2-0.7h-0.6v4.6h-3.7V19.9h4.9c3.6,0,5.2,1.5,5.2,4.2
		c0,1.8-0.7,3-2.2,3.6l3.2,5.1H309.8z M307.9,22.8h-1.3v2.6h1.3c1.3,0,1.5-0.7,1.5-1.3C309.4,23.4,309.1,22.8,307.9,22.8z"/>
</g>
<g class="st0">
	<path class="st2" d="M315.2,32.9V19.9h3.7v12.9H315.2z"/>
</g>
<g class="st0">
	<path class="st2" d="M325.4,32.9h-4.5V19.9h4.5c4.8,0,6.6,2.8,6.6,6.3C332,29.7,330.3,32.9,325.4,32.9z M325.4,23h-0.8v6.9h0.8
		c2,0,2.9-1.1,2.9-3.6C328.3,24,327.5,23,325.4,23z"/>
</g>
<g class="st0">
	<path class="st2" d="M341.4,32.9l-0.9-2.2h-3.9l-0.9,2.2h-3.6l5-12.9h3l5,12.9H341.4z M338.8,25.9c0-0.1-0.2-0.5-0.2-1
		c0,0.4-0.2,0.8-0.2,1l-0.7,1.8h1.6L338.8,25.9z"/>
</g>
<g class="st0">
	<path class="st1" d="M131.7,123h3c0.5,0,1,0.1,1.5,0.2s0.8,0.4,1.1,0.7c0.3,0.3,0.6,0.6,0.7,1s0.3,0.8,0.3,1.3
		c0,0.5-0.1,0.9-0.3,1.3c-0.2,0.4-0.4,0.7-0.7,1c-0.3,0.3-0.7,0.5-1.1,0.7c-0.4,0.2-0.9,0.2-1.4,0.2h-1.5v4.1h-1.5V123z
		 M134.6,128.2c0.7,0,1.3-0.2,1.6-0.5c0.4-0.4,0.6-0.8,0.6-1.4c0-0.6-0.2-1.1-0.6-1.5c-0.4-0.4-0.9-0.5-1.6-0.5h-1.4v4H134.6z"/>
</g>
<g class="st0">
	<path class="st1" d="M137.6,133.5c0.7-1.7,1.4-3.3,2-4.8c0.2-0.6,0.5-1.2,0.8-1.9c0.3-0.6,0.5-1.2,0.7-1.7c0.2-0.5,0.4-1,0.6-1.4
		c0.2-0.4,0.3-0.7,0.3-0.8h1.3l4.3,10.5H146l-1.1-2.8h-4.7l-1.1,2.8H137.6z M144.4,129.5l-1-2.6c0-0.1-0.1-0.3-0.2-0.5
		c-0.1-0.2-0.2-0.4-0.3-0.7c-0.1-0.2-0.2-0.4-0.2-0.6s-0.1-0.3-0.1-0.3h0c0,0,0,0.1-0.1,0.3c-0.1,0.2-0.2,0.4-0.2,0.6
		c-0.1,0.2-0.2,0.5-0.3,0.7s-0.2,0.4-0.2,0.5l-1,2.6H144.4z"/>
</g>
<g class="st0">
	<path class="st1" d="M148.7,123h3c0.5,0,1,0.1,1.4,0.2c0.4,0.1,0.8,0.3,1.1,0.6c0.3,0.3,0.6,0.6,0.7,1c0.2,0.4,0.3,0.9,0.3,1.4
		c0,0.8-0.2,1.5-0.7,2c-0.5,0.5-1.1,0.8-1.9,1l3.2,4.4H154l-3-4.3h-0.8v4.3h-1.5V123z M151.6,128c0.7,0,1.2-0.2,1.6-0.5
		c0.4-0.3,0.6-0.8,0.6-1.4c0-0.6-0.2-1-0.6-1.4s-0.9-0.5-1.6-0.5h-1.4v3.8H151.6z"/>
</g>
<g class="st0">
	<path class="st1" d="M158.8,124.2h-3V123h7.5v1.3h-3v9.3h-1.5V124.2z"/>
</g>
<g class="st0">
	<path class="st1" d="M172.4,133.7c-0.8,0-1.6-0.1-2.3-0.4c-0.7-0.3-1.3-0.7-1.7-1.2c-0.5-0.5-0.9-1.1-1.1-1.7s-0.4-1.4-0.4-2.1
		c0-0.7,0.1-1.4,0.4-2.1c0.3-0.7,0.6-1.2,1.1-1.7c0.5-0.5,1.1-0.9,1.7-1.2s1.4-0.4,2.3-0.4s1.6,0.1,2.3,0.4c0.7,0.3,1.3,0.7,1.7,1.2
		c0.5,0.5,0.9,1.1,1.1,1.7c0.3,0.7,0.4,1.4,0.4,2.1c0,0.7-0.1,1.4-0.4,2.1s-0.6,1.2-1.1,1.7c-0.5,0.5-1.1,0.9-1.7,1.2
		C174.1,133.6,173.3,133.7,172.4,133.7z M172.4,132.4c0.6,0,1.1-0.1,1.6-0.3c0.5-0.2,0.9-0.5,1.3-0.8c0.4-0.4,0.6-0.8,0.8-1.3
		c0.2-0.5,0.3-1.1,0.3-1.7s-0.1-1.2-0.3-1.7c-0.2-0.5-0.5-0.9-0.8-1.3c-0.4-0.4-0.8-0.6-1.3-0.8c-0.5-0.2-1-0.3-1.6-0.3
		c-0.6,0-1.1,0.1-1.6,0.3c-0.5,0.2-0.9,0.5-1.3,0.8c-0.4,0.4-0.6,0.8-0.8,1.3c-0.2,0.5-0.3,1.1-0.3,1.7s0.1,1.2,0.3,1.7
		c0.2,0.5,0.5,0.9,0.8,1.3c0.4,0.4,0.8,0.6,1.3,0.8C171.3,132.3,171.9,132.4,172.4,132.4z"/>
	<path class="st1" d="M179.7,123h5.3v1.3h-3.8v3.4h3.7v1.3h-3.7v4.6h-1.5V123z"/>
</g>
<g class="st0">
	<path class="st1" d="M191.5,124.2h-3V123h7.5v1.3h-3v9.3h-1.5V124.2z"/>
	<path class="st1" d="M197.2,123h1.5v4.3h5.5V123h1.5v10.5h-1.5v-4.9h-5.5v4.9h-1.5V123z"/>
	<path class="st1" d="M208,123h5.7v1.3h-4.2v3.1h4.1v1.3h-4.1v3.7h4.3v1.3H208V123z"/>
	<path class="st1" d="M222.9,133.7c-0.6,0-1.2-0.1-1.7-0.3c-0.5-0.2-0.9-0.4-1.3-0.8c-0.3-0.3-0.6-0.7-0.8-1.2
		c-0.2-0.5-0.3-1-0.3-1.6V123h1.5v6.5c0,0.9,0.2,1.6,0.6,2.2c0.4,0.5,1,0.8,1.9,0.8c0.9,0,1.5-0.3,1.9-0.8c0.4-0.5,0.6-1.2,0.6-2.2
		V123h1.5v6.9c0,0.6-0.1,1.1-0.3,1.6c-0.2,0.5-0.4,0.9-0.8,1.2c-0.3,0.3-0.8,0.6-1.3,0.8C224.1,133.6,223.5,133.7,222.9,133.7z"/>
	<path class="st1" d="M231.8,133.7c-0.4,0-0.9-0.1-1.2-0.2c-0.4-0.1-0.7-0.3-1-0.5c-0.3-0.2-0.6-0.4-0.8-0.7
		c-0.2-0.3-0.4-0.5-0.6-0.8l1-0.9c0.1,0.2,0.3,0.4,0.4,0.6c0.2,0.2,0.4,0.4,0.6,0.5s0.5,0.3,0.7,0.4c0.3,0.1,0.6,0.1,0.9,0.1
		c0.6,0,1.1-0.2,1.5-0.5s0.6-0.7,0.6-1.3c0-0.3-0.1-0.6-0.2-0.8c-0.1-0.2-0.3-0.4-0.5-0.6c-0.2-0.2-0.5-0.3-0.7-0.4
		c-0.3-0.1-0.6-0.3-0.9-0.4c-0.3-0.1-0.7-0.3-1-0.4c-0.3-0.2-0.6-0.3-0.8-0.6c-0.2-0.2-0.4-0.5-0.6-0.8c-0.2-0.3-0.2-0.7-0.2-1.1
		c0-0.4,0.1-0.8,0.2-1.1c0.2-0.3,0.4-0.6,0.7-0.9c0.3-0.2,0.6-0.4,1-0.6c0.4-0.1,0.8-0.2,1.3-0.2c0.8,0,1.4,0.2,1.9,0.5
		c0.5,0.3,0.9,0.7,1.2,1.1l-1,0.8c-0.2-0.3-0.5-0.6-0.8-0.8c-0.3-0.2-0.8-0.3-1.3-0.3c-0.5,0-0.9,0.1-1.2,0.4
		c-0.3,0.2-0.5,0.6-0.5,1c0,0.3,0.1,0.5,0.2,0.7c0.1,0.2,0.3,0.4,0.5,0.5c0.2,0.1,0.4,0.3,0.6,0.4c0.2,0.1,0.5,0.2,0.7,0.3
		c0.4,0.2,0.7,0.3,1.1,0.5c0.4,0.2,0.7,0.4,1,0.6c0.3,0.2,0.5,0.5,0.7,0.9c0.2,0.3,0.3,0.8,0.3,1.2c0,0.5-0.1,0.9-0.2,1.3
		c-0.2,0.4-0.4,0.7-0.7,1c-0.3,0.3-0.7,0.5-1.1,0.7S232.3,133.7,231.8,133.7z"/>
	<path class="st1" d="M235.8,133.5c0.7-1.7,1.4-3.3,2-4.8c0.2-0.6,0.5-1.2,0.8-1.9c0.3-0.6,0.5-1.2,0.7-1.7c0.2-0.5,0.4-1,0.6-1.4
		c0.2-0.4,0.3-0.7,0.3-0.8h1.3l4.3,10.5h-1.6l-1.1-2.8h-4.7l-1.1,2.8H235.8z M242.7,129.5l-1-2.6c0-0.1-0.1-0.3-0.2-0.5
		c-0.1-0.2-0.2-0.4-0.3-0.7c-0.1-0.2-0.2-0.4-0.2-0.6s-0.1-0.3-0.1-0.3h0c0,0,0,0.1-0.1,0.3c-0.1,0.2-0.2,0.4-0.2,0.6
		c-0.1,0.2-0.2,0.5-0.3,0.7c-0.1,0.2-0.2,0.4-0.2,0.5l-1,2.6H242.7z"/>
</g>
<g class="st0">
	<path class="st1" d="M251.8,124.2h-3V123h7.5v1.3h-3v9.3h-1.5V124.2z"/>
</g>
<g class="st0">
	<path class="st1" d="M261.9,133.7c-0.8,0-1.6-0.1-2.3-0.4c-0.7-0.3-1.3-0.7-1.7-1.2c-0.5-0.5-0.9-1.1-1.1-1.7s-0.4-1.4-0.4-2.1
		c0-0.7,0.1-1.4,0.4-2.1c0.3-0.7,0.6-1.2,1.1-1.7c0.5-0.5,1.1-0.9,1.7-1.2s1.4-0.4,2.3-0.4s1.6,0.1,2.3,0.4c0.7,0.3,1.3,0.7,1.7,1.2
		c0.5,0.5,0.9,1.1,1.1,1.7c0.3,0.7,0.4,1.4,0.4,2.1c0,0.7-0.1,1.4-0.4,2.1s-0.6,1.2-1.1,1.7c-0.5,0.5-1.1,0.9-1.7,1.2
		C263.5,133.6,262.8,133.7,261.9,133.7z M261.9,132.4c0.6,0,1.1-0.1,1.6-0.3c0.5-0.2,0.9-0.5,1.3-0.8c0.4-0.4,0.6-0.8,0.8-1.3
		c0.2-0.5,0.3-1.1,0.3-1.7s-0.1-1.2-0.3-1.7c-0.2-0.5-0.5-0.9-0.8-1.3c-0.4-0.4-0.8-0.6-1.3-0.8c-0.5-0.2-1-0.3-1.6-0.3
		c-0.6,0-1.1,0.1-1.6,0.3c-0.5,0.2-0.9,0.5-1.3,0.8c-0.4,0.4-0.6,0.8-0.8,1.3c-0.2,0.5-0.3,1.1-0.3,1.7s0.1,1.2,0.3,1.7
		c0.2,0.5,0.5,0.9,0.8,1.3c0.4,0.4,0.8,0.6,1.3,0.8C260.8,132.3,261.3,132.4,261.9,132.4z"/>
</g>
<g class="st0">
	<path class="st1" d="M269.2,123h3c0.8,0,1.6,0.1,2.3,0.4c0.7,0.2,1.3,0.6,1.8,1c0.5,0.5,0.9,1,1.1,1.6s0.4,1.4,0.4,2.2
		c0,0.8-0.1,1.6-0.4,2.2s-0.6,1.2-1.1,1.7c-0.5,0.5-1.1,0.8-1.8,1c-0.7,0.2-1.4,0.4-2.3,0.4h-3V123z M270.7,132.2h1.4
		c0.6,0,1.2-0.1,1.7-0.2c0.5-0.2,1-0.4,1.3-0.7c0.4-0.3,0.6-0.7,0.9-1.2c0.2-0.5,0.3-1.1,0.3-1.8s-0.1-1.3-0.3-1.8
		c-0.2-0.5-0.5-0.9-0.9-1.2c-0.4-0.3-0.8-0.6-1.3-0.7c-0.5-0.2-1.1-0.2-1.7-0.2h-1.4V132.2z"/>
</g>
<g class="st0">
	<path class="st1" d="M278.1,133.5c0.7-1.7,1.4-3.3,2-4.8c0.2-0.6,0.5-1.2,0.8-1.9c0.3-0.6,0.5-1.2,0.7-1.7c0.2-0.5,0.4-1,0.6-1.4
		c0.2-0.4,0.3-0.7,0.3-0.8h1.3l4.3,10.5h-1.6l-1.1-2.8h-4.7l-1.1,2.8H278.1z M284.9,129.5l-1-2.6c0-0.1-0.1-0.3-0.2-0.5
		c-0.1-0.2-0.2-0.4-0.3-0.7c-0.1-0.2-0.2-0.4-0.2-0.6s-0.1-0.3-0.1-0.3h0c0,0,0,0.1-0.1,0.3c-0.1,0.2-0.2,0.4-0.2,0.6
		c-0.1,0.2-0.2,0.5-0.3,0.7c-0.1,0.2-0.2,0.4-0.2,0.5l-1,2.6H284.9z"/>
</g>
<g class="st0">
	<path class="st1" d="M290.3,129.2l-3.6-6.2h1.7l1.9,3.5c0,0,0.1,0.1,0.1,0.3c0.1,0.1,0.2,0.3,0.2,0.5c0.1,0.2,0.2,0.3,0.2,0.5
		c0.1,0.1,0.1,0.2,0.1,0.3h0c0,0,0-0.1,0.1-0.3c0.1-0.1,0.1-0.3,0.2-0.5c0.1-0.2,0.2-0.3,0.2-0.5c0.1-0.1,0.1-0.2,0.2-0.3l2-3.5h1.6
		l-3.6,6.2v4.3h-1.5V129.2z"/>
</g>
<g class="st0">
	<path class="st1" d="M299.5,123h1.1l6,6.8c0,0,0.1,0.1,0.2,0.3c0.1,0.1,0.2,0.3,0.3,0.4c0.1,0.1,0.2,0.3,0.3,0.4
		c0.1,0.1,0.2,0.2,0.2,0.2l0,0c0,0,0-0.1,0-0.3c0-0.1,0-0.3,0-0.5s0-0.3,0-0.5s0-0.3,0-0.4V123h1.4v10.5H308l-6-6.8
		c-0.1,0-0.1-0.1-0.2-0.3c-0.1-0.1-0.2-0.3-0.3-0.4c-0.1-0.1-0.2-0.3-0.3-0.4c-0.1-0.1-0.2-0.2-0.2-0.2l0,0c0,0,0,0.1,0,0.3
		s0,0.3,0,0.5c0,0.2,0,0.3,0,0.5s0,0.3,0,0.4v6.5h-1.4V123z"/>
	<path class="st1" d="M311.4,123h5.7v1.3h-4.2v3.1h4.1v1.3h-4.1v3.7h4.3v1.3h-5.8V123z"/>
</g>
<g class="st0">
	<path class="st1" d="M321,124.2h-3V123h7.5v1.3h-3v9.3H321V124.2z"/>
</g>
<g class="st0">
	<path class="st1" d="M325.8,123h1.6l2.2,6.3c0,0.1,0.1,0.2,0.1,0.4c0.1,0.2,0.1,0.4,0.2,0.6s0.1,0.4,0.2,0.6
		c0.1,0.2,0.1,0.3,0.1,0.4h0c0-0.1,0-0.2,0.1-0.4c0.1-0.2,0.1-0.4,0.2-0.6s0.1-0.4,0.2-0.6c0.1-0.2,0.1-0.3,0.1-0.4l2.2-6.3h1.2
		l2.2,6.3c0,0.1,0.1,0.2,0.1,0.4c0.1,0.2,0.1,0.4,0.2,0.6c0.1,0.2,0.1,0.4,0.2,0.6c0.1,0.2,0.1,0.3,0.1,0.4h0c0-0.1,0-0.2,0.1-0.4
		c0.1-0.2,0.1-0.4,0.2-0.6c0.1-0.2,0.1-0.4,0.2-0.6s0.1-0.3,0.1-0.4l2.1-6.3h1.5l-3.7,10.5h-1.1l-2.4-6.6c0-0.1-0.1-0.2-0.1-0.3
		c-0.1-0.2-0.1-0.3-0.2-0.5c-0.1-0.2-0.1-0.4-0.2-0.5c-0.1-0.2-0.1-0.3-0.1-0.3h0c0,0.1,0,0.2-0.1,0.3c-0.1,0.2-0.1,0.3-0.2,0.5
		c-0.1,0.2-0.1,0.4-0.2,0.5c-0.1,0.2-0.1,0.3-0.1,0.3l-2.4,6.6h-1.1L325.8,123z"/>
</g>
<g class="st0">
	<path class="st1" d="M347.4,133.7c-0.8,0-1.6-0.1-2.3-0.4c-0.7-0.3-1.3-0.7-1.7-1.2c-0.5-0.5-0.9-1.1-1.1-1.7s-0.4-1.4-0.4-2.1
		c0-0.7,0.1-1.4,0.4-2.1c0.3-0.7,0.6-1.2,1.1-1.7c0.5-0.5,1.1-0.9,1.7-1.2s1.4-0.4,2.3-0.4s1.6,0.1,2.3,0.4c0.7,0.3,1.3,0.7,1.7,1.2
		c0.5,0.5,0.9,1.1,1.1,1.7c0.3,0.7,0.4,1.4,0.4,2.1c0,0.7-0.1,1.4-0.4,2.1s-0.6,1.2-1.1,1.7c-0.5,0.5-1.1,0.9-1.7,1.2
		C349,133.6,348.2,133.7,347.4,133.7z M347.4,132.4c0.6,0,1.1-0.1,1.6-0.3c0.5-0.2,0.9-0.5,1.3-0.8c0.4-0.4,0.6-0.8,0.8-1.3
		c0.2-0.5,0.3-1.1,0.3-1.7s-0.1-1.2-0.3-1.7c-0.2-0.5-0.5-0.9-0.8-1.3c-0.4-0.4-0.8-0.6-1.3-0.8c-0.5-0.2-1-0.3-1.6-0.3
		c-0.6,0-1.1,0.1-1.6,0.3c-0.5,0.2-0.9,0.5-1.3,0.8c-0.4,0.4-0.6,0.8-0.8,1.3c-0.2,0.5-0.3,1.1-0.3,1.7s0.1,1.2,0.3,1.7
		c0.2,0.5,0.5,0.9,0.8,1.3c0.4,0.4,0.8,0.6,1.3,0.8C346.3,132.3,346.8,132.4,347.4,132.4z"/>
	<path class="st1" d="M354.7,123h3c0.5,0,1,0.1,1.4,0.2c0.4,0.1,0.8,0.3,1.1,0.6c0.3,0.3,0.6,0.6,0.7,1c0.2,0.4,0.3,0.9,0.3,1.4
		c0,0.8-0.2,1.5-0.7,2c-0.5,0.5-1.1,0.8-1.9,1l3.2,4.4H360l-3-4.3h-0.8v4.3h-1.5V123z M357.5,128c0.7,0,1.2-0.2,1.6-0.5
		c0.4-0.3,0.6-0.8,0.6-1.4c0-0.6-0.2-1-0.6-1.4s-0.9-0.5-1.6-0.5h-1.4v3.8H357.5z"/>
	<path class="st1" d="M363.1,123h1.5v4.9l4.4-4.9h1.8l-4.5,5l4.7,5.5h-1.9l-4.5-5.3v5.3h-1.5V123z"/>
</g>
</svg>
