<svg height="56" viewBox="0 0 374 56" width="374" xmlns="http://www.w3.org/2000/svg">
  <g fill="none" fill-rule="evenodd">
    <g fill="#404040"><path
      d="m1.231 52.529h1.176c.387 0 .693-.095.917-.286.226-.19.338-.45.338-.778 0-.33-.112-.589-.338-.779-.224-.191-.53-.286-.917-.286h-1.176zm-.874 3.019v-5.883h2.05c.658 0 1.18.161 1.567.484.386.323.579.762.579 1.316 0 .548-.193.981-.579 1.301-.387.32-.909.481-1.567.481h-1.176v2.301zm5.961-2.215h2.146l-1.073-2.76zm3.002 2.215-.571-1.48h-2.716l-.572 1.48h-.882l2.353-5.883h.943l2.345 5.883zm2.752-3.106h1.203c.374 0 .673-.092.895-.277.222-.184.333-.432.333-.744 0-.311-.111-.559-.333-.744s-.521-.277-.895-.277h-1.203zm0 .718v2.388h-.874v-5.883h2.077c.651 0 1.168.157 1.548.471.381.315.571.743.571 1.285 0 .41-.115.756-.346 1.038-.231.283-.548.482-.952.598l1.428 2.491h-.995l-1.341-2.388z"/><path d="m17.904 55.548v-5.148h-1.982v-.735h4.837v.735h-1.982v5.148z"/><path
      d="m26.374 54.882c.38 0 .719-.097 1.016-.29s.529-.46.697-.8c.167-.34.251-.735.251-1.186 0-.45-.084-.845-.251-1.185-.168-.34-.4-.607-.697-.8s-.636-.29-1.016-.29c-.381 0-.718.097-1.013.29-.294.193-.525.46-.692.8s-.251.735-.251 1.185c0 .451.084.846.251 1.186s.398.607.692.8c.295.193.632.29 1.013.29zm0 .761c-.554 0-1.044-.129-1.471-.389s-.763-.617-1.008-1.073c-.245-.455-.368-.981-.368-1.575 0-.593.123-1.119.368-1.574.245-.456.581-.813 1.008-1.073s.917-.389 1.471-.389c.553 0 1.045.129 1.475.389s.767.617 1.012 1.073c.245.455.368.981.368 1.574 0 .594-.123 1.12-.368 1.575-.245.456-.582.813-1.012 1.073s-.922.389-1.475.389z"/><path d="m31.331 55.548h-.874v-5.883h3.66v.735h-2.786v1.99h2.362v.735h-2.362z"/><path d="m38.677 55.548v-5.148h-1.981v-.735h4.836v.735h-1.981v5.148z"/><path d="m42.536 55.548v-5.883h.874v2.518h3.037v-2.518h.874v5.883h-.874v-2.613h-3.037v2.613z"/><path d="m48.86 55.548v-5.883h3.773v.735h-2.899v1.817h2.553v.735h-2.553v1.861h2.968v.735z"/><path
      d="m58.222 54.882c.478 0 .855-.144 1.129-.433.274-.288.411-.677.411-1.168v-3.616h.874v3.625c0 .733-.215 1.308-.645 1.726s-1.02.627-1.769.627c-.75 0-1.339-.209-1.765-.627-.427-.418-.641-.993-.641-1.726v-3.625h.874v3.616c0 .491.137.88.411 1.168.274.289.648.433 1.121.433m5.676.761c-.445 0-.869-.078-1.272-.233-.404-.156-.73-.363-.978-.623l.493-.58c.231.214.504.381.818.502s.627.182.939.182c.38 0 .688-.074.921-.221.234-.147.351-.35.351-.61 0-.237-.084-.435-.251-.597-.168-.161-.453-.297-.857-.406l-.813-.217c-.525-.138-.907-.334-1.147-.589-.239-.253-.359-.585-.359-.994 0-.335.09-.629.268-.883.179-.253.426-.451.74-.592.315-.142.671-.212 1.069-.212.421 0 .816.079 1.185.237.369.159.695.38.978.662l-.528.571c-.248-.231-.506-.407-.774-.532-.268-.124-.553-.186-.852-.186-.364 0-.661.077-.892.23s-.346.365-.346.636c0 .247.082.441.247.579.164.139.416.254.757.346l.908.251c.525.145.909.346 1.151.606.242.259.363.582.363.969 0 .34-.089.638-.268.896-.179.256-.427.455-.744.596-.317.142-.686.212-1.107.212m4.317-2.31h2.146l-1.073-2.76zm3.002 2.215-.571-1.48h-2.717l-.571 1.48h-.882l2.353-5.883h.943l2.345 5.883z"/><path d="m76.184 55.548v-5.148h-1.982v-.735h4.837v.735h-1.982v5.148z"/><path
      d="m82.188 54.882c.381 0 .72-.097 1.017-.29s.529-.46.696-.8c.168-.34.251-.735.251-1.186 0-.45-.083-.845-.251-1.185-.167-.34-.399-.607-.696-.8s-.636-.29-1.017-.29c-.38 0-.718.097-1.012.29s-.525.46-.692.8c-.168.34-.251.735-.251 1.185 0 .451.083.846.251 1.186.167.34.398.607.692.8s.632.29 1.012.29zm0 .761c-.554 0-1.044-.129-1.471-.389s-.762-.617-1.008-1.073c-.245-.455-.367-.981-.367-1.575 0-.593.122-1.119.367-1.574.246-.456.581-.813 1.008-1.073s.917-.389 1.471-.389 1.046.129 1.475.389c.43.26.768.617 1.013 1.073.245.455.367.981.367 1.574 0 .594-.122 1.12-.367 1.575-.245.456-.583.813-1.013 1.073-.429.26-.921.389-1.475.389zm4.958-.83h1.194c.415 0 .771-.091 1.068-.273.297-.181.525-.437.684-.765.158-.329.238-.718.238-1.169 0-.45-.08-.839-.238-1.168-.159-.328-.387-.584-.684-.765-.297-.182-.653-.273-1.068-.273h-1.194zm-.874.735v-5.883h2.068c.576 0 1.081.122 1.514.367.432.245.768.589 1.008 1.03.239.442.359.956.359 1.544 0 .589-.12 1.103-.359 1.545-.24.441-.576.784-1.008 1.029-.433.246-.938.368-1.514.368zm7.181-2.215h2.146l-1.073-2.76zm3.003 2.215-.572-1.48h-2.716l-.571 1.48h-.883l2.354-5.883h.943l2.344 5.883z"/><path d="m100.038 53.212v2.336h-.874v-2.336l-2.068-3.547h1.029l1.48 2.716 1.479-2.716h1.013z"/><path d="m109.087 55.548-3.14-4.508v4.508h-.822v-5.883h.813l3.149 4.508v-4.508h.814v5.883z"/><path d="m111.441 55.548v-5.883h3.772v.735h-2.898v1.817h2.552v.735h-2.552v1.861h2.967v.735z"/><path d="m117.878 55.548v-5.148h-1.981v-.735h4.836v.735h-1.981v5.148z"/><path d="m126.443 55.548-1.375-4.689-1.376 4.689h-.908l-1.567-5.883h.866l1.194 4.655 1.376-4.655h.83l1.385 4.672 1.202-4.672h.848l-1.566 5.883z"/><path
      d="m132.388 54.882c.38 0 .719-.097 1.016-.29s.529-.46.697-.8c.167-.34.251-.735.251-1.186 0-.45-.084-.845-.251-1.185-.168-.34-.4-.607-.697-.8s-.636-.29-1.016-.29c-.381 0-.719.097-1.013.29s-.525.46-.692.8-.251.735-.251 1.185c0 .451.084.846.251 1.186s.398.607.692.8.632.29 1.013.29zm0 .761c-.554 0-1.044-.129-1.471-.389s-.763-.617-1.008-1.073c-.246-.455-.368-.981-.368-1.575 0-.593.122-1.119.368-1.574.245-.456.581-.813 1.008-1.073s.917-.389 1.471-.389c.553 0 1.045.129 1.475.389.429.26.767.617 1.012 1.073.245.455.368.981.368 1.574 0 .594-.123 1.12-.368 1.575-.245.456-.583.813-1.012 1.073-.43.26-.922.389-1.475.389zm4.957-3.201h1.203c.375 0 .674-.092.895-.277.223-.184.334-.432.334-.744 0-.311-.111-.559-.334-.744-.221-.185-.52-.277-.895-.277h-1.203zm0 .718v2.388h-.874v-5.883h2.077c.652 0 1.168.157 1.549.471.38.315.571.743.571 1.285 0 .41-.116.756-.346 1.038-.231.283-.548.482-.952.598l1.427 2.491h-.995l-1.34-2.388z"/><path d="m145.418 55.548-2.639-2.967v2.967h-.874v-5.883h.874v2.578l2.466-2.578h1.081l-2.621 2.699 2.812 3.184z"/></g><path
      d="m8.187 21.476v13.185h-7.83v-22.905h7.2l.405 2.925c.689-1.11 1.589-1.95 2.7-2.52 1.109-.57 2.295-.855 3.555-.855 1.35 0 2.58.3 3.69.9 1.109.6 2.009 1.44 2.7 2.52.81-1.109 1.867-1.958 3.172-2.543s2.678-.877 4.118-.877c1.589 0 2.992.367 4.207 1.103 1.215.735 2.167 1.755 2.858 3.059.69 1.305 1.035 2.813 1.035 4.523v14.67h-7.83v-13.86c0-.96-.263-1.725-.788-2.295s-1.192-.855-2.002-.855c-.99 0-1.786.315-2.385.945-.601.63-.9 1.59-.9 2.88v13.185h-7.83v-13.86c0-.96-.256-1.725-.765-2.295-.511-.57-1.2-.855-2.07-.855-.961 0-1.741.315-2.34.945-.601.63-.9 1.59-.9 2.88m48.105 11.385c-1.38 3.539-2.955 6.179-4.725 7.92-1.771 1.739-4.021 2.61-6.75 2.61-1.231 0-2.34-.135-3.33-.405s-1.83-.601-2.52-.99l2.205-5.4c.419.209.884.389 1.395.54.51.15 1.05.225 1.62.225.81 0 1.537-.196 2.182-.585.645-.39 1.208-1.096 1.688-2.115l.36-.81-10.35-22.095h8.64l5.085 13.725 4.185-13.725h8.505zm29.094 2.385c-2.341 0-4.418-.503-6.233-1.508-1.816-1.004-3.248-2.407-4.297-4.207-1.051-1.8-1.575-3.9-1.575-6.3s.524-4.5 1.575-6.3c1.049-1.8 2.481-3.202 4.297-4.208 1.815-1.005 3.892-1.507 6.233-1.507 2.069 0 3.884.382 5.444 1.147s2.94 1.988 4.141 3.668l-5.176 3.78c-.42-.63-.967-1.147-1.642-1.553-.675-.405-1.403-.607-2.182-.607-1.351 0-2.476.503-3.375 1.508-.901 1.005-1.351 2.362-1.351 4.072s.45 3.067 1.351 4.072c.899 1.006 2.024 1.508 3.375 1.508.779 0 1.507-.203 2.182-.607.675-.406 1.222-.923 1.642-1.553l5.176 3.78c-1.201 1.68-2.581 2.902-4.141 3.667s-3.375 1.148-5.444 1.148m23.939-18.405c-2.55 0-4.08 1.35-4.59 4.05h8.73c-.21-1.47-.713-2.513-1.507-3.128-.796-.614-1.673-.922-2.633-.922zm10.71 15.48c-1.14.81-2.587 1.5-4.342 2.07-1.755.569-3.623.855-5.603.855-2.73 0-5.062-.503-6.997-1.508-1.935-1.004-3.42-2.407-4.455-4.207s-1.553-3.87-1.553-6.21c0-2.369.51-4.47 1.53-6.3s2.43-3.263 4.23-4.298 3.9-1.552 6.3-1.552c2.34 0 4.402.502 6.188 1.507 1.784 1.006 3.179 2.401 4.185 4.185 1.005 1.786 1.507 3.878 1.507 6.278 0 .33-.022.675-.067 1.035s-.098.736-.158 1.125h-15.975c.72 2.64 2.685 3.96 5.895 3.96 1.44 0 2.715-.225 3.825-.675s2.04-.9 2.79-1.35zm12.825-10.305v12.645h-7.83v-22.905h7.155l.405 3.015c.749-1.08 1.725-1.95 2.925-2.61 1.199-.66 2.52-.99 3.96-.99 2.49 0 4.485.81 5.985 2.43s2.25 3.945 2.25 6.975v14.085h-7.83v-13.185c0-1.35-.3-2.347-.9-2.993-.601-.645-1.44-.967-2.52-.967s-1.95.345-2.61 1.035c-.66.691-.99 1.845-.99 3.465m36.81 11.16c-.931.63-1.996 1.133-3.195 1.507-1.201.375-2.461.563-3.78.563-2.461 0-4.418-.712-5.873-2.138-1.455-1.424-2.182-3.337-2.182-5.737v-9.765h-3.735v-5.85h4.095l.99-6.39h6.48v6.39h5.985v5.85h-5.985v8.775c0 .781.232 1.388.697 1.823s1.087.652 1.868.652c.389 0 .787-.075 1.192-.225s.788-.33 1.148-.54zm11.564-7.38v8.865h-7.83v-22.905h7.155l.495 3.825c.48-1.23 1.267-2.228 2.363-2.993 1.094-.764 2.362-1.147 3.802-1.147.81 0 1.425.105 1.845.315v7.155c-.331-.12-.697-.209-1.102-.27-.405-.06-.863-.09-1.373-.09-1.56 0-2.843.578-3.847 1.733-1.006 1.155-1.508 2.992-1.508 5.512m17.775 1.44c0 .69.254 1.253.765 1.687.51.436 1.17.653 1.98.653 1.08 0 1.987-.368 2.722-1.103.735-.734 1.103-1.657 1.103-2.767v-.765c-.81-.15-1.665-.225-2.565-.225-1.141 0-2.093.196-2.858.585-.765.39-1.147 1.035-1.147 1.935zm6.885 7.425-.405-3.015c-1.501 2.4-3.78 3.6-6.84 3.6-1.35 0-2.573-.292-3.667-.877-1.096-.585-1.966-1.388-2.611-2.408s-.967-2.205-.967-3.555c0-2.55.997-4.53 2.993-5.94 1.994-1.41 4.627-2.115 7.897-2.115 1.02 0 2.099.09 3.24.27-.12-1.14-.608-2.002-1.463-2.587s-1.898-.878-3.127-.878c-1.08 0-2.168.202-3.263.607s-2.137.893-3.127 1.463l-2.655-5.04c1.5-.96 3.12-1.702 4.86-2.228 1.739-.524 3.479-.787 5.22-.787 2.099 0 3.989.36 5.67 1.08 1.68.72 3 1.815 3.96 3.285.959 1.47 1.44 3.33 1.44 5.58v13.545z"
      fill="#009bff" class='no-color-change'/><path d="m218.044 34.661h7.83v-32.85h-7.83z" fill="#009bff" class='no-color-change'/><path
      d="m238.383 42.986-1.485-6.39c1.32-.12 2.385-.556 3.195-1.306.81-.749 1.215-1.799 1.215-3.149v-20.385c1.26.27 2.534.405 3.825.405 1.32 0 2.655-.135 4.005-.405v19.98c0 3.33-.863 5.955-2.588 7.875s-4.448 3.045-8.167 3.375m27.09-26.145c-2.551 0-4.081 1.35-4.591 4.05h8.73c-.21-1.47-.712-2.513-1.507-3.128-.795-.614-1.673-.922-2.632-.922zm10.71 15.48c-1.141.81-2.588 1.5-4.343 2.07-1.755.569-3.623.855-5.603.855-2.73 0-5.062-.503-6.997-1.508-1.935-1.004-3.42-2.407-4.455-4.207s-1.552-3.87-1.552-6.21c0-2.369.509-4.47 1.529-6.3s2.43-3.263 4.231-4.298c1.8-1.035 3.899-1.552 6.3-1.552 2.339 0 4.402.502 6.187 1.507 1.785 1.006 3.18 2.401 4.185 4.185 1.005 1.786 1.507 3.878 1.507 6.278 0 .33-.022.675-.067 1.035s-.098.736-.158 1.125h-15.974c.719 2.64 2.684 3.96 5.895 3.96 1.44 0 2.714-.225 3.824-.675s2.041-.9 2.791-1.35zm12.824-6.525v8.865h-7.83v-22.905h7.155l.495 3.825c.48-1.23 1.267-2.228 2.363-2.993 1.095-.764 2.362-1.147 3.802-1.147.81 0 1.425.105 1.845.315v7.155c-.33-.12-.697-.209-1.102-.27-.405-.06-.863-.09-1.373-.09-1.56 0-2.842.578-3.847 1.733-1.006 1.155-1.508 2.992-1.508 5.512m20.115 9.45c-1.98 0-3.833-.315-5.557-.945-1.726-.63-3.278-1.53-4.658-2.7l3.33-4.41c1.05.84 2.183 1.523 3.397 2.047 1.216.526 2.408.788 3.578.788.78 0 1.402-.135 1.868-.405.465-.27.697-.675.697-1.215 0-.57-.263-1.028-.788-1.372-.525-.345-1.462-.683-2.812-1.013l-2.16-.54c-4.29-1.14-6.435-3.435-6.435-6.885 0-1.53.42-2.85 1.26-3.96s1.995-1.965 3.465-2.565c1.469-.6 3.179-.9 5.13-.9 1.92 0 3.727.3 5.422.9s3.248 1.47 4.658 2.61l-3.42 4.5c-1.051-.84-2.16-1.515-3.33-2.025s-2.265-.765-3.285-.765c-1.65 0-2.475.54-2.475 1.62 0 .48.247.87.743 1.17.495.3 1.192.57 2.092.81l2.925.81c2.19.6 3.81 1.5 4.86 2.7s1.575 2.625 1.575 4.275c0 1.5-.421 2.812-1.26 3.937-.84 1.125-2.018 1.995-3.532 2.611-1.516.614-3.279.922-5.288.922m25.2-18.405c-2.55 0-4.08 1.35-4.59 4.05h8.73c-.21-1.47-.713-2.513-1.508-3.128-.795-.614-1.672-.922-2.632-.922zm10.71 15.48c-1.141.81-2.588 1.5-4.342 2.07-1.756.569-3.623.855-5.603.855-2.73 0-5.062-.503-6.998-1.508-1.935-1.004-3.419-2.407-4.455-4.207-1.035-1.8-1.552-3.87-1.552-6.21 0-2.369.51-4.47 1.53-6.3 1.019-1.83 2.43-3.263 4.23-4.298s3.899-1.552 6.3-1.552c2.34 0 4.402.502 6.187 1.507 1.785 1.006 3.18 2.401 4.185 4.185 1.005 1.786 1.508 3.878 1.508 6.278 0 .33-.022.675-.068 1.035-.045.36-.097.736-.157 1.125h-15.975c.72 2.64 2.684 3.96 5.895 3.96 1.44 0 2.715-.225 3.825-.675 1.109-.45 2.04-.9 2.79-1.35zm19.98.54c-1.38 3.539-2.955 6.179-4.725 7.92-1.77 1.739-4.02 2.61-6.75 2.61-1.23 0-2.34-.135-3.33-.405s-1.83-.601-2.52-.99l2.205-5.4c.42.209.885.389 1.395.54.51.15 1.05.225 1.62.225.81 0 1.537-.196 2.183-.585.644-.39 1.207-1.096 1.687-2.115l.36-.81-10.35-22.095h8.64l5.085 13.725 4.185-13.725h8.505z"
      fill="#404040"/><path
      d="m245.133 9.956c-1.291 0-2.393-.458-3.308-1.373s-1.372-2.017-1.372-3.307.457-2.392 1.372-3.308c.915-.914 2.017-1.372 3.308-1.372 1.289 0 2.392.458 3.308 1.372.914.916 1.372 2.018 1.372 3.308s-.458 2.392-1.372 3.307c-.916.915-2.019 1.373-3.308 1.373"
      fill="#009bff" class='no-color-change'/></g>
</svg>