<svg xmlns="http://www.w3.org/2000/svg" xmlns:xlink="http://www.w3.org/1999/xlink" width="720" height="83" viewBox="0 0 720 83">
  <defs>
    <style>
      .cls-1 {
        filter: url(#filter);
      }

      .cls-2, .cls-3 {
        fill: #fff;
        fill-rule: evenodd;
      }

      .cls-3 {
        filter: url(#filter-2);
      }
    </style>
    <filter id="filter" filterUnits="userSpaceOnUse">
      <feFlood result="flood" flood-color="#333"/>
      <feComposite result="composite" operator="in" in2="SourceGraphic"/>
      <feBlend result="blend" in2="SourceGraphic"/>
    </filter>
    <filter id="filter-2" x="389.688" y="68.531" width="331.187" height="14.438" filterUnits="userSpaceOnUse">
      <feFlood result="flood" flood-color="#999"/>
      <feComposite result="composite" operator="in" in2="SourceGraphic"/>
      <feBlend result="blend" in2="SourceGraphic"/>
    </filter>
  </defs>
  <g class="cls-1">
    <path class="cls-2" d="M70.5,32.623l-1.2-.327c-2.275,6.785-4.417,10.568-6.626,10.568a1.577,1.577,0,0,1-1.74-1.827,13,13,0,0,1,.4-2.609l2.543-9.068a31.218,31.218,0,0,0,1.272-6.719c0-2.935-.334-5.349-2.543-7.437A10.681,10.681,0,0,0,55.7,12.6c-6.626,0-9.705,5.088-13.186,13.242,0-.652.067-1.7,0.067-2.348,0-7.176-3.413-10.829-8.768-10.829-5.89,0-9.571,4.827-13.587,13.177,0.067-.718.134-1.892,0.134-2.414,0-2.609,0-4.827-1.673-7.241a8.573,8.573,0,0,0-7.362-3.523c-5.22,0-9.036,4.371-11.11,12.916l1.2,0.261c1.941-6.849,4.417-10.372,6.224-10.372,1.339,0,1.808.848,1.808,2.349A88.531,88.531,0,0,1,6.979,29.361L2.7,44.822H15.546c2.744-9.655,4.886-18.07,9.571-25.115,1.674-2.479,3.279-3.849,4.551-3.849,1.673,0,1.941,1.109,1.941,3,0,1.37-1.137,7.046-3.614,16.374l-2.543,9.589H38.37C40.98,34.58,43.055,26.034,46.8,19.837,48.61,16.9,50.484,15.4,51.622,15.4a1.82,1.82,0,0,1,2.008,2.087,12.616,12.616,0,0,1-.736,3.588L49.949,32.231a22.429,22.429,0,0,0-.87,4.958,7.722,7.722,0,0,0,1.338,5.088c1.673,2.284,4.484,3.392,8.366,3.392,6.292,0,8.969-4.566,11.713-13.047h0Zm47.327-19.57H105.307c-2.343,7.763-4.15,15.656-8.1,23.093-2.275,4.24-4.484,6.458-6.358,6.458-1.807,0-1.874-1.174-1.874-2.479a20.745,20.745,0,0,1,.8-4.37l2.343-8.611a27.779,27.779,0,0,0,1.071-6.393c0-5.545-3.882-8.089-9.169-8.089-6.559,0-9.839,4.827-12.583,12.982l1.2,0.326c2.611-6.784,4.953-10.5,7.095-10.5a1.624,1.624,0,0,1,1.607,1.892,13.762,13.762,0,0,1-.6,3.131L78.6,28.448a36,36,0,0,0-1.472,7.959c0,6.719,5.087,9.263,9.237,9.263,7.831,0,10.91-6.2,14.859-15.264-1.339,6.2-2.276,12.72-4.484,20.288-1.138,3.979-5.288,7.176-9.1,7.176-2.477,0-3.547-.979-3.547-1.762,0-.978.87-1.565,1.74-2.479A4.193,4.193,0,0,0,86.9,50.954c0-2.413-2.008-4.11-5.488-4.11-4.15,0-7.028,2.544-7.028,5.936,0,4.045,4.15,6.458,12.65,6.458A33.05,33.05,0,0,0,101.96,55.65c6.292-3.522,8.768-8.676,10.307-16.634l1.138-5.806c1.405-7.306,2.945-14.091,4.418-20.157h0ZM162.953,28.9h-1.472c-0.469,10.373-6.359,15.33-13.52,15.33-8.3,0-11.579-6.2-11.579-20.222,0-14.352,3.882-22.115,11.11-22.115,5.556,0,10.308,5.676,13.654,16.765h1.138L161.949,0.919h-1c-0.736,1.631-1.539,2.935-2.744,2.935-1.874,0-4.819-3.392-11.244-3.392-12.382,0-22.087,11.285-22.087,23.028,0,12.264,9.905,22.179,21.351,22.179,4.886,0,8.634-1.109,11.713-3.979,3.814-3.523,4.752-7.7,5.019-12.786h0Zm36.082-.522v-1.3c0-7.828-6.559-14.026-15.461-14.026-10.641,0-17.2,8.415-17.2,16.113,0,9.72,8.1,16.439,18.138,16.439,8.032,0,13.52-4.045,14.324-11.22H197.5c-1.071,6.524-5.488,9.785-11.713,9.785-7.429,0-8.567-5.545-8.567-14.678,0-.2.067-0.913,0.067-1.109h21.752Zm-10.173-5.741c0,4.436-.6,4.305-4.886,4.305H177.35c0.268-8.219,1.539-12.46,6.158-12.46,3.614,0,5.354,2.739,5.354,8.154h0Zm53.718,22.18V43.712c-5.957-.522-5.823-1.826-5.823-5.284V25.838c0-5.218.066-8.545-3.012-10.829a10.749,10.749,0,0,0-6.493-1.957c-6.626,0-11.11,3.2-13.319,9.589V13.248c-2.878.261-8.3,0.522-15.929,0.587v1.109c3.815,0.261,5.823.717,5.823,3.784v19.7c0,3.523.067,4.762-5.823,5.284v1.109h21.417V43.712c-5.822-.457-5.488-2.218-5.488-5.545V33.993c0-4.5.268-8.546,1.674-12,1.606-3.849,4.283-6,7.295-6,3.681,0,3.748,2.805,3.748,7.7V38.168c0,3.131.268,5.088-4.953,5.545v1.109H242.58ZM265.348,34.58V33.406H264.01c-0.2,5.545-1.138,9.981-5.89,9.981-4.015,0-4.015-2.805-4.015-7.306V15.27h9.571V13.835h-9.571V0.919h-4.418c-0.6,8.676-3.815,12.916-11.512,13.047v1.3H244V33.406c0,5.545.067,8.742,3.48,10.7a14.753,14.753,0,0,0,7.095,1.565c7.228,0,10.775-3.653,10.775-11.09h0ZM299.5,18.793c0-3.588-3.079-5.741-6.359-5.741-4.417,0-7.63,2.414-9.5,7.111V13.248c-3.347.261-9.036,0.587-15.93,0.587v1.109c3.949,0.261,6.024.783,6.024,3.784v19.7c0,3.523.067,4.762-5.823,5.284v1.109h21.954V43.712c-6.091-.522-6.024-1.826-6.024-5.284v-7.5c0-6.98.8-11.481,3.614-13.373a3.887,3.887,0,0,1,1.674-.783,0.846,0.846,0,0,1,.8.327,17.185,17.185,0,0,0-.6,2.088c0,2.544,1.673,4.631,4.953,4.631a5.237,5.237,0,0,0,5.221-5.023h0Zm38.231,17.744H336.4c-0.2,4.371-1.339,6.524-3.213,6.524-1.606,0-1.807-.979-1.807-3.915V23.881a10.962,10.962,0,0,0-.535-4.436c-1.54-4.24-6.493-6.458-14.457-6.458-9.1,0-13.588,4.044-13.588,8.023,0,2.675,1.875,4.5,5.021,4.5,2.543,0,4.885-1.827,4.885-4.045,0-3.066-2.677-3.066-2.677-4.305,0-1.3,2.209-2.74,5.488-2.74,5.288,0,5.757,2.74,5.757,8.35v3.588c-9.571,2.479-20.214,3.588-20.214,12,0,3.98,3.213,7.306,8.634,7.306A12.3,12.3,0,0,0,321.2,38.69c0.134,4.371,2.209,6.98,8.166,6.98,6.425,0,8.367-3.261,8.367-9.133h0ZM321.27,29.426a21.89,21.89,0,0,1-1,8.024c-1.205,3.066-3.615,4.827-5.489,4.827-2.142,0-3.078-1.826-3.078-5.284,0-5.937,3.145-7.958,9.571-9.263v1.7h0Zm37.449,15.4V43.712c-5.892-.522-5.827-1.826-5.827-5.284V0.462a152.749,152.749,0,0,1-15.928.848V2.419c3.882,0.261,5.823.783,5.823,3.784V38.429c0,3.523.067,4.762-5.823,5.284v1.109h21.755Zm42.218-42.4V1.31H375.166V2.419c7.831,0.522,7.7,1.631,7.7,5.48V29.818c0,4.893-.129,8.285-0.533,9.785-0.8,3-3.549,4.631-6.759,4.631-4.082,0-7.093-2.087-7.093-4.5a1.451,1.451,0,0,1,.937-1.566c1.8-.261,5.418-0.522,5.418-4.762,0-2.935-2.208-5.415-5.822-5.415-3.415,0-6.489,2.609-6.489,7.111,0,5.741,5.019,10.568,14.724,10.568,8.165,0,14.321-3.849,15.258-7.763a38.093,38.093,0,0,0,1.072-8.676V7.9c0-3.849-.334-4.958,7.362-5.48h0Zm29.649,25.963v-1.3c0-7.828-6.56-14.026-15.463-14.026-10.642,0-17.2,8.415-17.2,16.113,0,9.72,8.1,16.439,18.139,16.439,8.036,0,13.524-4.045,14.326-11.22h-1.341c-1.072,6.524-5.488,9.785-11.714,9.785-7.427,0-8.563-5.545-8.563-14.678,0-.2.064-0.913,0.064-1.109h21.754Zm-10.174-5.741c0,4.436-.6,4.305-4.885,4.305H408.9c0.263-8.219,1.534-12.46,6.156-12.46,3.613,0,5.353,2.739,5.353,8.154h0Zm40.906-3.849c0-3.588-3.075-5.741-6.355-5.741-4.422,0-7.632,2.414-9.506,7.111V13.248c-3.344.261-9.038,0.587-15.931,0.587v1.109c3.953,0.261,6.027.783,6.027,3.784v19.7c0,3.523.064,4.762-5.822,5.284v1.109h21.952V43.712c-6.091-.522-6.027-1.826-6.027-5.284v-7.5c0-6.98.8-11.481,3.614-13.373a3.9,3.9,0,0,1,1.675-.783,0.845,0.845,0,0,1,.8.327,17.185,17.185,0,0,0-.6,2.088c0,2.544,1.675,4.631,4.955,4.631a5.235,5.235,0,0,0,5.219-5.023h0Zm29.906,15.4c0-12.329-20.617-9.394-20.617-15.787,0-1.892,2.208-4.045,6.162-4.045,4.949,0,9.166,3.393,10.906,9.851h1.142V13.444h-1.142a3.188,3.188,0,0,1-1.605,1.827c-2.009,0-3.28-1.827-10.707-1.827-5.424,0-10.578,3.458-10.578,8.612,0,6.458,4.217,9.133,10.244,10.894,4.686,1.37,9.237,2.479,9.237,6.132,0,2.544-3.081,5.153-7.1,5.153-6.156,0-10.373-4.175-13.05-12.525h-1.136V45.344h1.136c0.6-1.5,1.541-2.935,2.408-2.935,1.405,0,4.82,3.261,10.712,3.261,8.434,0,13.987-5.349,13.987-11.481h0Zm36.2-5.806v-1.3c0-7.828-6.56-14.026-15.463-14.026-10.642,0-17.2,8.415-17.2,16.113,0,9.72,8.094,16.439,18.133,16.439,8.036,0,13.524-4.045,14.327-11.22h-1.342c-1.072,6.524-5.488,9.785-11.714,9.785-7.427,0-8.563-5.545-8.563-14.678,0-.2.065-0.913,0.065-1.109h21.753Zm-10.174-5.741c0,4.436-.6,4.305-4.885,4.305h-6.624c0.263-8.219,1.534-12.46,6.156-12.46,3.613,0,5.353,2.739,5.353,8.154h0Zm47.554-7.632V13.9H550.615v1.109c2.144,0.326,4.621.652,4.621,4.24,0,1.957-.937,4.827-2.343,8.35l-3.748,9.263-6.49-16.113a17.337,17.337,0,0,1-1.206-3.523c0-1.5,1.8-2.022,5.019-2.218V13.9h-21.15v1.109c4.955,0.587,5.084,1.827,6.759,5.937l10.174,25.376H545.2l-1.675,4.24c-2.009,5.088-2.741,5.415-5.02,6.589a2.151,2.151,0,0,1-1.4.326,0.741,0.741,0,0,1-.6-0.457c0-.522.673-1.239,0.673-2.218,0-2.805-2.144-4.436-4.82-4.436a5.274,5.274,0,0,0-5.354,5.284c0,3,2.677,5.806,6.824,5.806,5.892,0,8.768-4.436,11.778-11.808l8.64-21.136c3.209-7.828,5.488-12.46,10.572-13.5h0Zm7.022,25.05a4.627,4.627,0,0,0-4.621-4.958c-4.949,0-6.958,3.653-6.958,5.61a4.729,4.729,0,0,0,4.615,4.957c5.02,0,6.964-3.522,6.964-5.61h0ZM609.022,35.1l-1.277-.457c-3.075,6.132-7.761,9.459-13.05,9.459-4.082,0-6.56-2.349-6.56-7.306,0-5.349,2.279-13.438,4.551-17.222,1.945-3.262,4.551-5.088,7.1-5.088,2.138,0,3.28,1.043,3.28,1.826,0,0.718-.738,1.3-2.477,2.023a4.181,4.181,0,0,0-2.009,3.588c0,2.284,1.6,4.24,4.615,4.24a5.929,5.929,0,0,0,5.828-6.067c0-3.588-4.018-6.915-10.11-6.915-10.911,0-20.95,9.2-20.95,19.244,0,7.893,6.63,13.242,15.263,13.242a16.89,16.89,0,0,0,15.8-10.568h0Zm39.594-8.089c0-7.567-7.093-13.83-16.067-13.83-10.237,0-20.212,8.22-20.212,18.527,0,7.633,6.361,13.96,16.335,13.96,9.1,0,19.944-7.632,19.944-18.657h0ZM638.442,21.4c0,5.806-2.612,15-4.885,18.853-1.605,2.675-3.684,4.11-5.892,4.11-3.145,0-5.154-2.609-5.154-6.915a47.97,47.97,0,0,1,4.082-17.678c1.74-3.458,4.082-5.284,6.56-5.284,3.35,0,5.289,2.349,5.289,6.915h0Zm80.892,11.416-1.207-.326c-2.676,7.176-5.218,10.764-7.5,10.764a1.817,1.817,0,0,1-2-2.087,13.934,13.934,0,0,1,.533-2.479l2.542-8.48a32.21,32.21,0,0,0,1.675-7.7c0-6.719-4.416-9.394-8.434-9.394-5.623,0-9.166,5.023-13.588,15.591,0.2-2.022.4-4.11,0.4-5.806,0-6.132-3.415-9.72-7.966-9.72-5.488,0-9.037,4.893-13.588,15.2a48.1,48.1,0,0,0,.4-5.349c0-6.132-3.145-9.851-8.1-9.851-4.751,0-8.634,4.567-10.777,12.786l1.206,0.261c2.208-7.045,5.154-10.764,7.163-10.764,1.336,0,2.009.979,2.009,2.544,0,2.218-.872,7.632-2.881,14.938l-3.28,11.873h10.109c3.081-9.785,5.687-18.266,10.039-24.919,1.74-2.675,3.549-4.175,5.02-4.175,1.739,0,2.278,1.37,2.278,3.653,0,1.24-.937,7.176-3.62,16.961l-2.337,8.481h10.3c1.007-3.588,2.079-7.372,3.35-11.155,4.147-12.2,8.5-18.265,11.375-18.265,1.61,0,2.079.913,2.079,2.544a16.088,16.088,0,0,1-.873,3.849l-2.542,8.938a25.429,25.429,0,0,0-1.341,7.111c0,5.088,3.28,7.7,8.235,7.7,5.552,0,8.5-4.566,11.31-12.721h0Z"/>
    <path id="USAT_Network" data-name="USAT Network" class="cls-3" d="M389.69,68.811h4.04c2.841,0,4.741,1.683,4.741,4.277s-1.94,4.273-4.741,4.273h-2.061v5.344H389.69V68.811Zm3.84,6.91c1.9,0,2.92-1.05,2.92-2.633,0-1.566-1.019-2.633-2.92-2.633h-1.861v5.266h1.861Zm10.591-6.91h1.761l5.76,13.894H409.52l-1.438-3.64h-6.22l-1.44,3.64h-2.081S403.42,70.516,404.121,68.811Zm3.3,8.611L406.081,74c-0.2-.516-1.061-2.655-1.081-2.833h-0.039c-0.02.178-.859,2.256-1.081,2.833l-1.358,3.422h4.9Zm6.231-8.611h4.06c2.619,0,4.66,1.349,4.66,4.117a3.87,3.87,0,0,1-3.56,3.921l4.3,5.856h-2.321l-4.06-5.661h-1.1v5.661h-1.98V68.811Zm3.841,6.633c1.839,0,2.88-.972,2.88-2.494s-1.041-2.495-2.88-2.495h-1.861v4.989h1.861Zm10.37-4.95h-4V68.811h9.979v1.683h-4V82.706h-1.979V70.494Zm11.113,5.266a7.381,7.381,0,1,1,7.379,7.223A7.083,7.083,0,0,1,438.975,75.761Zm12.719,0a5.352,5.352,0,1,0-5.359,5.461A5.2,5.2,0,0,0,451.694,75.761Zm4.89-6.949h7.08v1.683h-5.1v4.473h4.94V76.65h-4.94v6.056h-1.979V68.811Zm16.033,1.683h-4V68.811h9.98v1.683h-4V82.706h-1.98V70.494Zm8.058-1.683h1.979v5.7h7.36v-5.7H492V82.706h-1.982V76.194h-7.36v6.511h-1.979V68.811Zm14.968,0h7.641v1.666h-5.662v4.034h5.5v1.666h-5.5v4.867h5.78v1.662h-7.759V68.811Zm14.4,9.105V68.811h2v8.511c0,2.416,1.041,3.9,3.38,3.9,2.36,0,3.4-1.484,3.4-3.9V68.811h2v9.105c0,3.05-1.979,5.067-5.4,5.067C511.979,82.983,510.039,80.966,510.039,77.916Zm12.846,2.277,1.342-1.128a4.069,4.069,0,0,0,3.52,2.2c1.539,0,2.74-.829,2.74-2.356,0-1.64-1.381-2.2-3.1-2.867-1.76-.694-3.54-1.566-3.54-3.783,0-2.195,1.72-3.717,4.241-3.717a4.72,4.72,0,0,1,4.121,2.1l-1.342,1.128a3.2,3.2,0,0,0-2.779-1.505c-1.361,0-2.26.694-2.26,1.861,0,1.445,1.4,1.922,2.619,2.394,1.98,0.773,4.02,1.7,4.02,4.255,0,2.416-1.8,4.217-4.679,4.217A5.457,5.457,0,0,1,522.885,80.194ZM539.3,68.811h1.76l5.76,13.894H544.7l-1.437-3.64h-6.221l-1.44,3.64h-2.08S538.6,70.516,539.3,68.811Zm3.3,8.611L541.262,74c-0.2-.516-1.061-2.655-1.08-2.833h-0.04c-0.019.178-.859,2.256-1.081,2.833L537.7,77.422h4.9Zm12.58-6.928h-4V68.811h9.979v1.683h-4V82.706h-1.979V70.494Zm6.722,5.266a7.382,7.382,0,1,1,7.38,7.223A7.084,7.084,0,0,1,561.9,75.761Zm12.719,0a5.351,5.351,0,1,0-5.359,5.461A5.2,5.2,0,0,0,574.622,75.761Zm4.891-6.949h3.98c4.48,0,7.439,2.533,7.439,6.949,0,4.394-2.981,6.945-7.439,6.945h-3.98V68.811Zm1.979,12.211h1.841c3.279,0,5.558-1.718,5.558-5.262s-2.279-5.266-5.558-5.266h-1.841V81.022Zm15.873-12.211h1.76l5.761,13.894h-2.122l-1.438-3.64h-6.221l-1.44,3.64h-2.08S596.664,70.516,597.365,68.811Zm3.3,8.611L599.325,74c-0.2-.516-1.061-2.655-1.081-2.833h-0.039c-0.02.178-.86,2.256-1.081,2.833l-1.359,3.422h4.9Zm8.176-.378-4.781-8.233h2.221l2.6,4.633a20.448,20.448,0,0,1,1,1.978H609.9a21.175,21.175,0,0,1,1-1.978l2.62-4.633h2.158L610.9,77.044v5.661h-2.06V77.044ZM621.5,68.811h1.519l7.96,9.005c0.24,0.26,1.281,1.544,1.381,1.743l0.04-.021c-0.04-.2-0.04-1.8-0.04-2.156V68.811h1.92V82.706h-1.541l-7.96-9.006c-0.239-.256-1.28-1.544-1.379-1.739l-0.02.017c0.02,0.2.04,1.8,0.04,2.16v8.568H621.5V68.811Zm16.428,0h7.638v1.666H639.9v4.034h5.5v1.666h-5.5v4.867h5.78v1.662h-7.759V68.811Zm13.832,1.683h-4V68.811h9.98v1.683h-4V82.706h-1.98V70.494Zm7.63-1.683h2.1l2.88,8.255c0.1,0.317.781,2.373,0.8,2.69h0.042a27.733,27.733,0,0,1,.839-2.69l3-8.255h1.58l3,8.255c0.12,0.317.82,2.373,0.842,2.69h0.039c0.04-.317.719-2.373,0.82-2.69l2.86-8.255h2.019l-4.941,13.894h-1.519l-3.239-8.667a22.972,22.972,0,0,1-.682-2.256h-0.039a23.359,23.359,0,0,1-.7,2.256l-3.22,8.667h-1.521Zm21.707,6.949a7.382,7.382,0,1,1,7.379,7.223A7.083,7.083,0,0,1,681.093,75.761Zm12.719,0a5.352,5.352,0,1,0-5.359,5.461A5.2,5.2,0,0,0,693.812,75.761Zm4.89-6.949h4.059c2.622,0,4.66,1.349,4.66,4.117a3.87,3.87,0,0,1-3.56,3.921l4.3,5.856h-2.321l-4.059-5.661h-1.1v5.661H698.7V68.811Zm3.84,6.633c1.839,0,2.88-.972,2.88-2.494s-1.041-2.495-2.88-2.495h-1.861v4.989h1.861Zm7.863-6.633h1.979v6.454l5.8-6.454h2.4l-6.018,6.633,6.3,7.262h-2.479l-6-7.023v7.023h-1.979V68.811Z"/>
  </g>
</svg>
