<svg xmlns="http://www.w3.org/2000/svg" xmlns:xlink="http://www.w3.org/1999/xlink" width="720" height="109.969" viewBox="0 0 720 109.969">
  <defs>
    <style>
      .cls-1 {
        filter: url(#filter);
      }

      .cls-2, .cls-3 {
        fill: #fff;
        fill-rule: evenodd;
      }

      .cls-3 {
        filter: url(#filter-2);
      }
    </style>
    <filter id="filter" filterUnits="userSpaceOnUse">
      <feFlood result="flood" flood-color="#333"/>
      <feComposite result="composite" operator="in" in2="SourceGraphic"/>
      <feBlend result="blend" in2="SourceGraphic"/>
    </filter>
    <filter id="filter-2" x="378.5" y="95.188" width="340.531" height="14.781" filterUnits="userSpaceOnUse">
      <feFlood result="flood" flood-color="#999"/>
      <feComposite result="composite" operator="in" in2="SourceGraphic"/>
      <feBlend result="blend" in2="SourceGraphic"/>
    </filter>
  </defs>
  <g id="publicopiniononline" class="cls-1">
    <path class="cls-2" d="M27.415,50.462c0,5.177.116,20.166,0.233,21.486,0.234,2.427,1.4,3.529,3.27,3.529h5.955c0.817,0,.934.329,0.934,0.768v2.867c0,0.552-.117.881-1.05,0.881-1.635,0-5.254-.329-18.916-0.329-10.276,0-14.828.329-16.113,0.329-0.817,0-.934-0.329-0.934-0.771V76.247c0-.55.117-0.768,0.7-0.768H4.529c3.97,0,4.788-.552,5.137-3.306,0.116-1.1.468-18.3,0.468-31.078V28.42c0-7.273-.116-18.846-0.233-20.167-0.235-2.2-1.4-2.425-3.737-2.425H0.676c-0.585,0-.7-0.221-0.7-0.881V2.081c0-.551.116-0.772,0.7-0.772,1.284,0,5.488.332,17.749,0.332,2.1,0,8.99-.332,12.842-0.332,14.363,0,21.253,1.1,28.025,6.061A21.05,21.05,0,0,1,67.7,24.454c0,13.224-11.21,22.261-30.827,22.261-3.619,0-6.3-.111-9.457-0.331v4.079Zm0-8.378a35.127,35.127,0,0,0,7.122.663c3.62,0,9.459-3.527,12.027-7.383,2.335-3.418,2.8-7.6,2.8-11.683,0-15.209-11.677-18.4-16.464-18.4a23.834,23.834,0,0,0-5.488.551V42.084Zm47.9-10.167c0-2.7-.525-3.935-2.1-3.935H69.692c-0.45,0-.525-0.153-0.525-0.694V25.437c0-.463.075-0.616,0.675-0.616,0.75,0,4.423.231,12.3,0.231,6.6,0,10.2-.231,11.02-0.231,0.6,0,.675.153,0.675,0.616v2.007c0,0.385-.075.539-0.6,0.539H90.684c-2.548,0-3.823,1.466-3.973,3.008-0.074.849-.149,6.1-0.149,10.029v5.092c0,4.088.3,13.883,0.374,16.353,0.075,3.547.749,7.02,2.4,9.179a11.752,11.752,0,0,0,9.371,4.32,14.862,14.862,0,0,0,8.846-3.394c3-2.779,4.722-7.02,4.722-12.575V48.116a151.118,151.118,0,0,0-1.049-16.739c-0.3-2.006-1.5-3.4-2.774-3.4h-2.4c-0.449,0-.524-0.232-0.524-0.617v-2c0-.387.075-0.54,0.524-0.54,0.75,0,4.2.231,9.3,0.231,4.049,0,6.448-.231,7.123-0.231s0.75,0.308.75,0.7v1.7c0,0.463-.075.771-0.451,0.771h-2.324a2.979,2.979,0,0,0-3.223,2.931c-0.15,1.081-.15,11.726-0.15,12.805S116.924,58.3,116.7,61.3c-0.449,6.326-2.474,11.187-6.372,14.735a20.334,20.334,0,0,1-13.269,4.782c-3.525,0-8.323-.541-11.471-1.929-3.6-1.618-6.9-5.244-8.7-10.182-1.275-3.315-1.575-8.485-1.575-18.591v-18.2Zm57.739,14.194c0-2.856-.165-12.266-0.248-13.5-0.246-4.476-1.563-4.63-4.277-4.63H125.9c-0.576,0-.576-0.075-0.576-0.694V25.515c0-.464.082-0.7,0.659-0.7,1.069,0,5.018.231,12.832,0.231,2.633,0,7.568-.231,13.161-0.231,5.923,0,11.187.54,14.066,2.081,4.689,2.392,6.335,5.942,6.335,10.492,0,5.092-3.29,10.029-12.011,12.727v0.155c10.2,2.468,15.547,7.095,15.547,15.273,0,4.165-2.467,9.873-6.415,11.726-3.373,1.618-9.132,2.851-19.331,2.851-0.74,0-2.879-.153-5.182-0.23-2.386-.153-4.936-0.23-6.5-0.23-4.113,0-6.827.077-8.636,0.077-1.728.077-2.632,0.153-3.208,0.153-0.823,0-.905-0.23-0.905-0.847v-1.7c0-.462.082-0.615,0.822-0.615h2.881c2.467,0,2.878-.926,3.207-3.241,0.247-1.774.412-11.956,0.412-18.28v-9.1Zm12.009,3.162c3.372,0.309,8.636-.153,11.022-2.162a11.667,11.667,0,0,0,3.949-9.1c0-2.931-.987-6.016-3.373-7.79a16.422,16.422,0,0,0-7.733-2.776c-1.727,0-3.536.077-3.619,1.311-0.164,1.542-.246,8.252-0.246,14.656v5.862Zm0,17.9c0,7.327,1.81,10.335,6.17,10.335,5.839,0,11.351-2.7,11.351-12.341,0-6.249-2.962-10.338-7.4-11.956A28.6,28.6,0,0,0,145.062,51.9V67.169ZM196.909,55.52c0,1.312,0,17.973.225,21.061h4.272a108.981,108.981,0,0,0,10.946-.385c4.049-.388,9.146-9.643,10.271-12.5,0.225-.464.449-0.7,0.9-0.464l1.5,0.618c0.225,0.153.225,0.232,0.15,0.694-0.225.541-3.224,13.268-3.674,15.35-1.949-.153-23.54-0.23-30.437-0.23-7.422,0-10.12.23-11.1,0.23-0.524,0-.6-0.153-0.6-0.692V77.275c0-.388.076-0.541,0.525-0.541h2.324c2.774,0,3.225-1.082,3.225-1.929,0-1.465.224-20.673,0.224-25.376v-4.32c0-4.938-.151-13.114-0.224-14.349-0.151-2-.525-2.777-2.25-2.777h-2.774c-0.45,0-.525-0.385-0.525-0.771V25.36c0-.387.075-0.54,0.525-0.54,0.825,0,3.525.231,10.345,0.231,8.773,0,11.922-.231,12.6-0.231,0.6,0,.674.231,0.674,0.772v1.773c0,0.385-.15.617-0.749,0.617h-3.523c-2.324,0-2.624.773-2.624,2.854,0,1-.225,12.651-0.225,18.051V55.52Zm42.717-8.176c0-1.85-.224-15.735-0.3-16.738-0.15-1.85-.9-2.623-2.474-2.623h-3.6a0.489,0.489,0,0,1-.6-0.462V25.283a0.459,0.459,0,0,1,.525-0.463c0.9,0,4.723.231,12.069,0.231,7.647,0,10.046-.231,11.1-0.231,0.375,0,.524.231,0.524,0.7v1.928a0.5,0.5,0,0,1-.6.539H254.1c-1.875,0-3,.618-3,2.006,0,0.771-.226,17.82-0.226,18.744v5.941c0,0.771.226,18.588,0.226,19.285,0,2.391,1.124,2.776,2.549,2.776h3.074a0.5,0.5,0,0,1,.6.541v2.159c0,0.309-.224.462-0.674,0.462-0.9,0-3.9-.23-11.021-0.23-7.872,0-11.1.23-11.92,0.23a0.527,0.527,0,0,1-.6-0.617V77.2a0.489,0.489,0,0,1,.6-0.462h2.174c1.5,0,3.074-.232,3.373-2.083,0.151-1.158.375-17.82,0.375-21.908v-5.4Zm32.4,26.382c-6.084-5.091-8.964-13.962-8.964-20.6a28.746,28.746,0,0,1,8.471-20.9c4.688-4.7,11.513-8.332,21.709-8.332,7.484,0,13.652,1.776,16.529,3.241,1.153,0.541,1.564.463,1.728-.077l0.659-1.929c0.163-.461.327-0.461,1.562-0.461s1.4,0.153,1.4,1.233c0,1.465,1.479,14.579,1.89,16.893,0.082,0.542,0,.926-0.411,1l-1.808.463c-0.411.155-.74-0.153-0.987-0.847a24.877,24.877,0,0,0-6.579-10.338,20.023,20.023,0,0,0-14.144-5.785c-12.006,0-17.105,10.261-17.024,21.676,0,4.861,1.482,14.349,7.319,20.134,5.346,5.168,10.033,5.785,12.829,5.785,9.375,0,16.364-4.012,19.408-8.255,0.411-.618.821-0.926,1.233-0.618l1.4,1.159c0.247,0.153.331,0.462,0,.926-4.768,6.477-12.745,12.727-24.341,12.727C282.958,80.822,277.2,78.045,272.021,73.725Zm91.107,0.428c-7.6-4.737-15.744-16.639-15.744-32.729a43.584,43.584,0,0,1,9.962-27.441C366.77,2.192,378.873-.011,388.513-0.011c8.889,0,17.137,1.43,26.134,8.706,8.14,6.611,14.673,17.742,14.673,32.95a40.947,40.947,0,0,1-8.034,24.134c-6.962,8.927-16.065,15.539-32.988,15.539A47.27,47.27,0,0,1,363.128,74.153Zm49.377-31.627c0-24.135-15.423-37.359-24.42-37.359-2.142,0-7.5-.551-14.033,5.951-6.319,6.172-9.531,17.743-9.531,26.78,0,28.213,15.744,38.241,24.633,38.241C408.97,76.139,412.505,51.564,412.505,42.526Zm42.36,16.7c0,3.624.075,14.115,0.15,15.041,0.149,1.7.9,2.468,2.1,2.468h3.824c0.525,0,.6.232,0.6,0.541v2c0,0.388-.074.617-0.673,0.617-1.051,0-3.374-.23-12.145-0.23-6.6,0-9.521.23-10.347,0.23-0.523,0-.6-0.23-0.6-0.539V77.275c0-.388.076-0.541,0.449-0.541h1.951c2.548,0,3.073-.385,3.3-2.314,0.077-.771.3-12.806,0.3-21.753V43.795c0-5.091-.076-13.19-0.15-14.115-0.151-1.544-.9-1.7-2.4-1.7H437.7c-0.372,0-.449-0.153-0.449-0.617v-2c0-.387.077-0.54,0.449-0.54,0.825,0,3.526.231,11.395,0.231,1.35,0,5.774-.231,8.247-0.231,9.222,0,13.645.772,17.992,4.241a15.215,15.215,0,0,1,5.4,11.957c0,9.257-7.2,15.583-19.792,15.583-2.324,0-4.048-.079-6.072-0.232v2.855Zm0-5.864a20.781,20.781,0,0,0,4.573.464c2.324,0,6.073-2.47,7.721-5.17,1.5-2.391,1.8-5.321,1.8-8.177,0-10.644-7.5-12.882-10.57-12.882a14.118,14.118,0,0,0-3.524.385V53.361Zm36.481-6.017c0-1.85-.225-15.735-0.3-16.738-0.147-1.85-.9-2.623-2.471-2.623h-3.6a0.49,0.49,0,0,1-.6-0.462V25.283a0.459,0.459,0,0,1,.523-0.463c0.9,0,4.726.231,12.071,0.231,7.648,0,10.047-.231,11.094-0.231,0.376,0,.526.231,0.526,0.7v1.928a0.5,0.5,0,0,1-.6.539h-2.176c-1.874,0-3,.618-3,2.006,0,0.771-.223,17.82-0.223,18.744v5.941c0,0.771.223,18.588,0.223,19.285,0,2.391,1.124,2.776,2.549,2.776h3.073a0.5,0.5,0,0,1,.6.541v2.159c0,0.309-.225.462-0.676,0.462-0.9,0-3.9-.23-11.019-0.23-7.874,0-11.095.23-11.921,0.23a0.528,0.528,0,0,1-.6-0.617V77.2a0.49,0.49,0,0,1,.6-0.462H487.6c1.5,0,3.075-.232,3.373-2.083,0.151-1.158.376-17.82,0.376-21.908v-5.4Zm68.175,9.874c0-6.865-.078-10.644-0.226-14.5-0.075-3.008-.45-10.568-0.676-11.727a4.018,4.018,0,0,0-3.972-3.008h-2.4c-0.375,0-.45-0.232-0.45-0.694V25.36c0-.387.075-0.54,0.675-0.54,0.824,0,3.224.231,8.771,0.231,4.5,0,6.3-.231,7.122-0.231,0.674,0,.751.153,0.751,0.616v1.851c0,0.386-.077.694-0.378,0.694h-2.1c-1.275,0-2.024,1.312-2.249,4.088-0.524,5.169-1.723,22.6-1.723,32.784V78.045c0,1.158-.075,2.544-1.125,2.544a3.906,3.906,0,0,1-2.925-1.233c-1.274-1.235-4.948-5.323-9.444-10.8-5.4-6.554-11.4-13.961-12.822-15.658-1.274-1.542-11.619-14.81-13.343-17.354h-0.6V51.123c0,6.4.674,15.891,0.752,18.823,0.15,4.474,1.5,6.788,4.645,6.788h1.876c0.526,0,.6.232,0.6,0.694v1.85c0,0.464-.072.617-0.6,0.617-0.749,0-5.249-.23-8.77-0.23-2.327,0-7.5.23-8.247,0.23-0.3,0-.376-0.153-0.376-0.692V77.2a0.4,0.4,0,0,1,.449-0.462h2.624c1.651,0,2.85-2.468,3.223-7.635,0.075-1.467.676-13.808,0.676-25.226V36.93c0-4.55-2.7-8.87-6.446-8.948l-1.876-.075a0.458,0.458,0,0,1-.448-0.542V25.283a0.376,0.376,0,0,1,.448-0.463c0.376,0,.975.078,2.4,0.078,1.5,0.075,3.9.153,7.8,0.153,2.547,0,4.8-.153,5.7-0.153a2.575,2.575,0,0,1,2.174,1c0.373,0.463,15.144,19.053,17.393,21.908,1.047,1.312,11.993,15.427,12.819,16.429h0.3v-7.02Zm19.985-9.874c0-1.85-.226-15.735-0.3-16.738-0.151-1.85-.9-2.623-2.475-2.623h-3.6a0.49,0.49,0,0,1-.6-0.462V25.283a0.46,0.46,0,0,1,.526-0.463c0.9,0,4.723.231,12.07,0.231,7.646,0,10.045-.231,11.094-0.231,0.376,0,.526.231,0.526,0.7v1.928a0.5,0.5,0,0,1-.6.539h-2.173c-1.874,0-3,.618-3,2.006,0,0.771-.225,17.82-0.225,18.744v5.941c0,0.771.225,18.588,0.225,19.285,0,2.391,1.124,2.776,2.547,2.776H596.6a0.5,0.5,0,0,1,.6.541v2.159c0,0.309-.223.462-0.674,0.462-0.9,0-3.9-.23-11.021-0.23-7.872,0-11.1.23-11.921,0.23a0.527,0.527,0,0,1-.6-0.617V77.2a0.49,0.49,0,0,1,.6-0.462h2.176c1.5,0,3.073-.232,3.373-2.083,0.148-1.158.374-17.82,0.374-21.908v-5.4Zm35.065,28.464c-5.322-3.315-11.019-11.647-11.019-22.911a30.5,30.5,0,0,1,6.972-19.2c6.6-8.255,15.068-9.8,21.815-9.8,6.223,0,12,1.005,18.294,6.095,5.7,4.629,10.27,12.419,10.27,23.064a28.686,28.686,0,0,1-5.622,16.894c-4.876,6.249-11.247,10.876-23.092,10.876A33.078,33.078,0,0,1,614.571,75.807Zm34.562-22.138c0-16.895-10.8-26.149-17.1-26.149-1.5,0-5.246-.386-9.819,4.165C617.8,36,615.547,44.1,615.547,50.431c0,19.747,11.019,26.765,17.24,26.765C646.658,77.2,649.133,59.993,649.133,53.669Zm61.3,3.547c0-6.865-.075-10.644-0.223-14.5-0.078-3.008-.451-10.568-0.679-11.727a4.017,4.017,0,0,0-3.972-3.008h-2.4c-0.375,0-.448-0.232-0.448-0.694V25.36c0-.387.073-0.54,0.674-0.54,0.826,0,3.223.231,8.77,0.231,4.5,0,6.3-.231,7.124-0.231,0.674,0,.749.153,0.749,0.616v1.851c0,0.386-.075.694-0.375,0.694h-2.1c-1.273,0-2.024,1.312-2.247,4.088-0.526,5.169-1.723,22.6-1.723,32.784V78.045c0,1.158-.077,2.544-1.127,2.544a3.915,3.915,0,0,1-2.925-1.233c-1.272-1.235-4.946-5.323-9.444-10.8C694.684,62,688.689,54.593,687.264,52.9c-1.275-1.542-11.62-14.81-13.346-17.354h-0.6V51.123c0,6.4.673,15.891,0.748,18.823,0.151,4.474,1.5,6.788,4.648,6.788h1.876c0.523,0,.6.232,0.6,0.694v1.85c0,0.464-.076.617-0.6,0.617-0.751,0-5.249-.23-8.772-0.23-2.322,0-7.5.23-8.247,0.23-0.3,0-.376-0.153-0.376-0.692V77.2a0.4,0.4,0,0,1,.451-0.462h2.624c1.651,0,2.848-2.468,3.226-7.635,0.07-1.467.671-13.808,0.671-25.226V36.93c0-4.55-2.7-8.87-6.446-8.948l-1.876-.075a0.459,0.459,0,0,1-.448-0.542V25.283a0.377,0.377,0,0,1,.448-0.463c0.378,0,.975.078,2.4,0.078,1.5,0.075,3.9.153,7.8,0.153,2.549,0,4.8-.153,5.7-0.153a2.57,2.57,0,0,1,2.174,1c0.376,0.463,15.144,19.053,17.393,21.908,1.049,1.312,12,15.427,12.819,16.429h0.3v-7.02Z"/>
    <path id="USAT_Network" data-name="USAT Network" class="cls-3" d="M378.5,95.462h4.154c2.921,0,4.875,1.724,4.875,4.382s-2,4.378-4.875,4.378h-2.119V109.7H378.5V95.462Zm3.949,7.08c1.954,0,3-1.075,3-2.7,0-1.6-1.048-2.7-3-2.7h-1.914v5.4h1.914Zm10.89-7.08h1.81l5.923,14.236h-2.182l-1.478-3.729h-6.4l-1.481,3.729H387.4S392.617,97.209,393.338,95.462Zm3.392,8.823-1.377-3.507c-0.2-.529-1.091-2.72-1.111-2.9H394.2c-0.02.182-.883,2.311-1.111,2.9l-1.4,3.507h5.037Zm6.408-8.823h4.174c2.693,0,4.792,1.382,4.792,4.218a3.971,3.971,0,0,1-3.66,4.018l4.422,6h-2.387l-4.174-5.8h-1.132v5.8h-2.035V95.462Zm3.949,6.8c1.891,0,2.961-1,2.961-2.556s-1.07-2.556-2.961-2.556h-1.914v5.111h1.914Zm10.663-5.071h-4.113V95.462H423.9v1.724h-4.113V109.7H417.75V97.187Zm11.427,5.4a7.591,7.591,0,1,1,7.588,7.4A7.271,7.271,0,0,1,429.177,102.582Zm13.079,0a5.5,5.5,0,1,0-5.511,5.6A5.339,5.339,0,0,0,442.256,102.582Zm5.028-7.12h7.28v1.724h-5.245v4.583h5.08v1.725h-5.08v6.2h-2.035V95.462Zm16.487,1.724h-4.113V95.462h10.261v1.724h-4.113V109.7h-2.035V97.187Zm8.285-1.724h2.035v5.84h7.569v-5.84H483.7V109.7H481.66v-6.671h-7.569V109.7h-2.035V95.462Zm15.392,0H495.3v1.707h-5.821V101.3h5.655v1.707h-5.655V108h5.943v1.7h-7.978V95.462Zm14.8,9.329V95.462h2.055v8.72c0,2.476,1.071,4,3.476,4,2.427,0,3.5-1.52,3.5-4v-8.72h2.056v9.329c0,3.125-2.036,5.192-5.554,5.192C504.245,109.983,502.251,107.916,502.251,104.791Zm13.21,2.334,1.379-1.156a4.187,4.187,0,0,0,3.62,2.249c1.582,0,2.817-.849,2.817-2.413,0-1.681-1.42-2.25-3.189-2.938-1.81-.711-3.64-1.605-3.64-3.876,0-2.249,1.769-3.809,4.361-3.809a4.855,4.855,0,0,1,4.237,2.147l-1.379,1.156a3.29,3.29,0,0,0-2.858-1.542c-1.4,0-2.324.711-2.324,1.907,0,1.48,1.438,1.969,2.694,2.453,2.035,0.792,4.133,1.747,4.133,4.36,0,2.476-1.85,4.321-4.812,4.321A5.613,5.613,0,0,1,515.461,107.125Zm16.881-11.663h1.81l5.923,14.236h-2.182l-1.478-3.729h-6.4l-1.481,3.729H526.4S531.621,97.209,532.342,95.462Zm3.392,8.823-1.377-3.507c-0.2-.529-1.091-2.72-1.111-2.9h-0.04c-0.021.182-.884,2.311-1.112,2.9l-1.4,3.507h5.037Zm12.935-7.1h-4.113V95.462h10.262v1.724H550.7V109.7h-2.035V97.187Zm6.912,5.4a7.591,7.591,0,1,1,7.589,7.4A7.271,7.271,0,0,1,555.581,102.582Zm13.079,0a5.5,5.5,0,1,0-5.51,5.6A5.338,5.338,0,0,0,568.66,102.582Zm5.029-7.12h4.093c4.607,0,7.649,2.6,7.649,7.12,0,4.5-3.064,7.116-7.649,7.116h-4.093V95.462Zm2.035,12.511h1.893c3.372,0,5.716-1.76,5.716-5.391s-2.344-5.4-5.716-5.4h-1.893v10.787Zm16.322-12.511h1.81l5.923,14.236H597.6l-1.479-3.729h-6.4l-1.481,3.729H586.1S591.325,97.209,592.046,95.462Zm3.393,8.823-1.378-3.507c-0.205-.529-1.09-2.72-1.111-2.9h-0.04c-0.021.182-.884,2.311-1.111,2.9l-1.4,3.507h5.038Zm8.407-.387-4.916-8.436h2.283l2.673,4.747a20.97,20.97,0,0,1,1.028,2.027h0.02a21.456,21.456,0,0,1,1.03-2.027l2.694-4.747h2.219l-4.913,8.436v5.8h-2.118v-5.8Zm13.013-8.436h1.562l8.186,9.227c0.246,0.267,1.316,1.582,1.42,1.787l0.041-.022c-0.041-.2-0.041-1.845-0.041-2.209V95.462H630V109.7h-1.584l-8.186-9.227c-0.245-.262-1.316-1.582-1.417-1.782l-0.021.018c0.021,0.2.04,1.849,0.04,2.213V109.7h-1.974V95.462Zm16.893,0h7.854v1.707h-5.819V101.3h5.657v1.707h-5.657V108h5.943v1.7h-7.978V95.462Zm14.224,1.724h-4.113V95.462h10.262v1.724h-4.114V109.7h-2.035V97.187Zm7.845-1.724h2.16l2.961,8.458c0.1,0.325.8,2.431,0.823,2.756h0.043a28.028,28.028,0,0,1,.863-2.756l3.086-8.458h1.624l3.084,8.458a28.6,28.6,0,0,1,.865,2.756h0.041c0.041-.325.739-2.431,0.843-2.756l2.941-8.458h2.076l-5.08,14.236h-1.562l-3.331-8.88a23.287,23.287,0,0,1-.7-2.311h-0.041a23.674,23.674,0,0,1-.719,2.311l-3.311,8.88h-1.564Zm22.32,7.12a7.591,7.591,0,1,1,7.589,7.4A7.271,7.271,0,0,1,678.141,102.582Zm13.08,0a5.5,5.5,0,1,0-5.511,5.6A5.339,5.339,0,0,0,691.221,102.582Zm5.028-7.12h4.174c2.7,0,4.792,1.382,4.792,4.218a3.971,3.971,0,0,1-3.661,4.018l4.423,6H703.59l-4.174-5.8h-1.132v5.8h-2.035V95.462Zm3.949,6.8c1.891,0,2.961-1,2.961-2.556s-1.07-2.556-2.961-2.556h-1.914v5.111H700.2Zm8.084-6.8h2.036v6.613l5.963-6.613h2.468l-6.189,6.8,6.477,7.44h-2.549l-6.17-7.2v7.2h-2.036V95.462Z"/>
  </g>
</svg>
