<svg height="49" viewBox="0 0 316 49" width="316" xmlns="http://www.w3.org/2000/svg">
  <g fill="none" fill-rule="evenodd">
    <g fill="#404040"><path
      d="m1.285 45.219h1.293c.424 0 .76-.104 1.007-.313s.371-.495.371-.856-.124-.646-.371-.855-.583-.314-1.007-.314h-1.293zm-.96 3.317v-6.463h2.253c.722 0 1.295.178 1.72.532.425.355.637.837.637 1.445 0 .602-.212 1.079-.637 1.43-.425.352-.998.528-1.72.528h-1.293v2.528zm6.549-2.433h2.357l-1.179-3.032zm3.298 2.433-.628-1.625h-2.984l-.627 1.625h-.97l2.586-6.463h1.036l2.575 6.463zm3.022-3.412h1.321c.412 0 .74-.102.984-.304.244-.203.366-.475.366-.818 0-.342-.122-.614-.366-.817s-.572-.304-.984-.304h-1.321zm0 .789v2.623h-.96v-6.463h2.281c.716 0 1.283.172 1.702.518.418.345.627.816.627 1.411 0 .45-.127.831-.38 1.141-.254.311-.602.529-1.046.656l1.568 2.737h-1.092l-1.474-2.623z"/><path d="m19.601 48.536v-5.655h-2.177v-.808h5.313v.808h-2.176v5.655z"/><path
      d="m28.905 47.804c.418 0 .79-.105 1.117-.318.326-.212.581-.506.765-.879.184-.374.276-.808.276-1.302 0-.495-.092-.928-.276-1.303-.184-.373-.439-.666-.765-.878-.327-.213-.699-.319-1.117-.319s-.789.106-1.112.319c-.323.212-.577.505-.76.878-.184.375-.276.808-.276 1.303 0 .494.092.928.276 1.302.183.373.437.667.76.879.323.213.694.318 1.112.318zm0 .837c-.608 0-1.147-.143-1.616-.428s-.838-.678-1.107-1.179c-.269-.5-.404-1.076-.404-1.729s.135-1.23.404-1.73c.269-.501.638-.893 1.107-1.179.469-.285 1.008-.427 1.616-.427.609 0 1.148.142 1.621.427.472.286.842.678 1.112 1.179.269.5.404 1.077.404 1.73s-.135 1.229-.404 1.729c-.27.501-.64.894-1.112 1.179-.473.285-1.012.428-1.621.428z"/><path d="m34.351 48.536h-.96v-6.463h4.021v.808h-3.061v2.186h2.595v.808h-2.595z"/><path d="m42.421 48.536v-5.655h-2.177v-.808h5.313v.808h-2.176v5.655z"/><path d="m46.66 48.536v-6.463h.96v2.766h3.336v-2.766h.96v6.463h-.96v-2.87h-3.336v2.87z"/><path d="m53.607 48.536v-6.463h4.144v.808h-3.184v1.996h2.804v.808h-2.804v2.043h3.26v.808z"/><path
      d="m63.891 47.804c.526 0 .939-.158 1.24-.475s.452-.744.452-1.283v-3.973h.96v3.982c0 .805-.236 1.437-.708 1.896-.472.46-1.12.69-1.944.69s-1.47-.23-1.939-.69c-.469-.459-.703-1.091-.703-1.896v-3.982h.96v3.973c0 .539.15.966.451 1.283s.712.475 1.231.475m6.235.837c-.488 0-.953-.085-1.397-.257-.444-.171-.802-.399-1.074-.684l.542-.637c.253.235.552.418.898.551.345.133.689.2 1.031.2.418 0 .756-.081 1.012-.243.257-.161.385-.384.385-.669 0-.26-.091-.479-.275-.656s-.498-.327-.941-.447l-.894-.238c-.576-.152-.996-.367-1.259-.646s-.395-.643-.395-1.093c0-.367.099-.69.295-.969.197-.279.467-.496.813-.651.345-.156.737-.233 1.174-.233.462 0 .896.087 1.302.261.405.174.763.416 1.074.727l-.58.627c-.272-.253-.556-.448-.851-.584-.294-.137-.606-.204-.936-.204-.399 0-.725.083-.979.251-.253.168-.38.401-.38.699 0 .272.09.485.271.637.18.152.458.278.831.38l.999.275c.576.159.998.381 1.264.666s.399.64.399 1.064c0 .374-.099.702-.295.984s-.469.501-.817.656c-.349.155-.754.233-1.217.233m4.743-2.538h2.357l-1.178-3.032zm3.298 2.433-.627-1.625h-2.984l-.628 1.625h-.969l2.585-6.463h1.036l2.576 6.463z"/><path d="m83.623 48.536v-5.655h-2.177v-.808h5.313v.808h-2.176v5.655z"/><path
      d="m90.219 47.804c.418 0 .79-.105 1.117-.318.326-.212.581-.506.765-.879.184-.374.276-.808.276-1.302 0-.495-.092-.928-.276-1.303-.184-.373-.439-.666-.765-.878-.327-.213-.699-.319-1.117-.319s-.789.106-1.112.319c-.323.212-.577.505-.761.878-.183.375-.275.808-.275 1.303 0 .494.092.928.275 1.302.184.373.438.667.761.879.323.213.694.318 1.112.318zm0 .837c-.608 0-1.147-.143-1.616-.428s-.838-.678-1.107-1.179c-.27-.5-.404-1.076-.404-1.729s.134-1.23.404-1.73c.269-.501.638-.893 1.107-1.179.469-.285 1.008-.427 1.616-.427s1.148.142 1.621.427c.472.286.842.678 1.112 1.179.269.5.404 1.077.404 1.73s-.135 1.229-.404 1.729c-.27.501-.64.894-1.112 1.179-.473.285-1.013.428-1.621.428zm5.446-.913h1.312c.456 0 .847-.1 1.174-.299.326-.2.576-.48.751-.841.174-.362.261-.789.261-1.283 0-.495-.087-.922-.261-1.283-.175-.362-.425-.642-.751-.841-.327-.2-.718-.3-1.174-.3h-1.312zm-.96.808v-6.463h2.272c.633 0 1.188.135 1.663.404.475.27.844.647 1.107 1.131.263.485.395 1.05.395 1.697 0 .646-.132 1.211-.395 1.696s-.632.862-1.107 1.131c-.475.27-1.03.404-1.663.404zm7.889-2.433h2.357l-1.178-3.032zm3.298 2.433-.627-1.625h-2.985l-.627 1.625h-.97l2.586-6.463h1.036l2.575 6.463z"/><path d="m109.827 45.97v2.566h-.96v-2.566l-2.272-3.897h1.131l1.626 2.985 1.625-2.985h1.112z"/><path d="m119.769 48.536-3.45-4.952v4.952h-.903v-6.463h.893l3.46 4.952v-4.952h.893v6.463z"/><path d="m122.354 48.536v-6.463h4.144v.808h-3.184v1.996h2.804v.808h-2.804v2.043h3.26v.808z"/><path d="m129.425 48.536v-5.655h-2.177v-.808h5.314v.808h-2.177v5.655z"/><path d="m138.835 48.536-1.511-5.152-1.512 5.152h-.998l-1.72-6.463h.951l1.311 5.114 1.511-5.114h.913l1.521 5.133 1.321-5.133h.931l-1.72 6.463z"/><path
      d="m145.365 47.804c.418 0 .79-.105 1.116-.318.327-.212.581-.506.765-.879.184-.374.276-.808.276-1.302 0-.495-.092-.928-.276-1.303-.184-.373-.438-.666-.765-.878-.326-.213-.698-.319-1.116-.319-.419 0-.789.106-1.112.319-.324.212-.577.505-.761.878-.184.375-.275.808-.275 1.303 0 .494.091.928.275 1.302.184.373.437.667.761.879.323.213.693.318 1.112.318zm0 .837c-.609 0-1.147-.143-1.616-.428s-.838-.678-1.108-1.179c-.269-.5-.403-1.076-.403-1.729s.134-1.23.403-1.73c.27-.501.639-.893 1.108-1.179.469-.285 1.007-.427 1.616-.427.608 0 1.148.142 1.62.427.472.286.843.678 1.112 1.179.269.5.404 1.077.404 1.73s-.135 1.229-.404 1.729c-.269.501-.64.894-1.112 1.179s-1.012.428-1.62.428zm5.446-3.517h1.321c.411 0 .739-.102.983-.304.244-.203.366-.475.366-.818 0-.342-.122-.614-.366-.817s-.572-.304-.983-.304h-1.321zm0 .789v2.623h-.961v-6.463h2.282c.715 0 1.283.172 1.701.518.418.345.627.816.627 1.411 0 .45-.127.831-.38 1.141-.254.311-.602.529-1.045.656l1.568 2.737h-1.093l-1.474-2.623z"/><path d="m159.678 48.536-2.899-3.26v3.26h-.96v-6.463h.96v2.833l2.709-2.833h1.188l-2.88 2.965 3.089 3.498z"/><path
      d="m8.486 18.107h4.049c1.29 0 2.31-.338 3.06-1.013s1.125-1.567 1.125-2.678c0-1.109-.375-2.002-1.125-2.677s-1.77-1.013-3.06-1.013h-4.049zm-8.101 16.604v-30.599h12.96c3.6 0 6.45.922 8.55 2.767s3.15 4.358 3.15 7.537c0 2.071-.472 3.864-1.417 5.378-.945 1.515-2.273 2.685-3.983 3.51-1.709.825-3.75 1.237-6.12 1.237h-5.039v10.17zm43.785 0-.405-3.014c-.75 1.11-1.733 1.987-2.948 2.632s-2.527.967-3.937.967c-2.671 0-4.71-.787-6.12-2.362-1.411-1.575-2.115-3.848-2.115-6.817v-14.31h7.83v13.409c0 2.491 1.14 3.736 3.42 3.736 2.4 0 3.6-1.5 3.6-4.5v-12.645h7.83v22.904zm24.884-5.625c1.35 0 2.437-.532 3.263-1.597.825-1.065 1.237-2.482 1.237-4.252s-.412-3.188-1.237-4.253c-.826-1.065-1.913-1.597-3.263-1.597-1.38 0-2.483.532-3.307 1.597-.826 1.065-1.238 2.483-1.238 4.253s.412 3.187 1.238 4.252c.824 1.065 1.927 1.597 3.307 1.597zm12.465-5.849c0 2.4-.45 4.508-1.35 6.322-.9 1.815-2.13 3.226-3.69 4.23-1.56 1.005-3.33 1.507-5.31 1.507-1.62 0-2.992-.337-4.117-1.012s-2.018-1.537-2.678-2.587l-.405 3.014h-7.155v-32.849h7.83v12.554c.75-.989 1.71-1.769 2.88-2.339s2.565-.855 4.185-.855c1.8 0 3.443.51 4.928 1.529 1.485 1.021 2.67 2.431 3.555 4.231.884 1.8 1.327 3.885 1.327 6.255z"/><path d="m85.614 34.712h7.83v-32.85h-7.83z"/><path
      d="m98.934 34.711v-22.904c1.26.27 2.535.404 3.825.404 1.32 0 2.655-.134 4.005-.404v22.904zm24.03.585c-2.341 0-4.418-.502-6.233-1.507-1.816-1.004-3.248-2.408-4.297-4.208-1.051-1.799-1.575-3.899-1.575-6.299s.524-4.5 1.575-6.3c1.049-1.8 2.481-3.202 4.297-4.208 1.815-1.005 3.892-1.507 6.233-1.507 2.069 0 3.884.382 5.444 1.147s2.94 1.988 4.141 3.667l-5.176 3.781c-.42-.63-.967-1.148-1.642-1.553s-1.403-.607-2.182-.607c-1.351 0-2.476.502-3.375 1.507-.901 1.005-1.351 2.363-1.351 4.073s.45 3.067 1.351 4.072c.899 1.006 2.024 1.508 3.375 1.508.779 0 1.507-.203 2.182-.608s1.222-.923 1.642-1.552l5.176 3.78c-1.201 1.68-2.581 2.902-4.141 3.667s-3.375 1.147-5.444 1.147"/></g><path
      d="m161.617 28.367c1.47 0 2.752-.375 3.848-1.125 1.095-.75 1.958-1.792 2.587-3.128.63-1.334.945-2.887.945-4.658 0-1.769-.315-3.33-.945-4.679-.629-1.35-1.492-2.408-2.587-3.173-1.096-.765-2.378-1.148-3.848-1.148s-2.753.383-3.847 1.148c-1.096.765-1.958 1.823-2.587 3.173-.631 1.349-.946 2.91-.946 4.679 0 1.771.315 3.324.946 4.658.629 1.336 1.491 2.378 2.587 3.128 1.094.75 2.377 1.125 3.847 1.125zm0 6.929c-3.06 0-5.782-.674-8.167-2.024-2.385-1.351-4.268-3.218-5.648-5.603s-2.069-5.122-2.069-8.213c0-2.339.389-4.477 1.17-6.412.779-1.935 1.889-3.615 3.33-5.04 1.44-1.425 3.119-2.527 5.039-3.307s4.035-1.17 6.345-1.17 4.425.39 6.346 1.17c1.919.78 3.599 1.882 5.039 3.307 1.441 1.425 2.55 3.105 3.33 5.04s1.17 4.073 1.17 6.412c0 3.091-.69 5.828-2.07 8.213s-3.262 4.252-5.647 5.603c-2.385 1.35-5.108 2.024-8.168 2.024zm32.445-6.21c1.38 0 2.483-.532 3.308-1.597s1.238-2.482 1.238-4.252-.413-3.188-1.238-4.253-1.928-1.597-3.308-1.597c-1.349 0-2.437.532-3.262 1.597-.826 1.065-1.238 2.483-1.238 4.253s.412 3.187 1.238 4.252c.825 1.065 1.913 1.597 3.262 1.597zm2.115 6.21c-1.35 0-2.58-.285-3.69-.854-1.11-.57-2.04-1.351-2.79-2.341v10.936h-7.83v-31.23h7.155l.405 3.015c.72-1.08 1.688-1.951 2.903-2.611 1.215-.659 2.617-.989 4.207-.989 1.95 0 3.675.51 5.176 1.529 1.499 1.021 2.684 2.431 3.554 4.231s1.305 3.885 1.305 6.255-.442 4.463-1.327 6.277c-.885 1.815-2.115 3.233-3.69 4.252-1.575 1.02-3.368 1.53-5.378 1.53zm14.491-.585v-22.904c1.259.27 2.534.404 3.824.404 1.32 0 2.656-.134 4.005-.404v22.904zm3.824-24.705c-1.29 0-2.392-.457-3.307-1.372-.916-.915-1.373-2.017-1.373-3.307s.457-2.393 1.373-3.308c.915-.915 2.017-1.372 3.307-1.372s2.392.457 3.308 1.372c.915.915 1.373 2.018 1.373 3.308s-.458 2.392-1.373 3.307c-.916.915-2.018 1.372-3.308 1.372zm17.325 12.061v12.644h-7.83v-22.904h7.155l.405 3.015c.75-1.08 1.725-1.951 2.925-2.611 1.2-.659 2.52-.989 3.96-.989 2.49 0 4.485.81 5.985 2.43s2.25 3.945 2.25 6.974v14.085h-7.83v-13.184c0-1.35-.3-2.347-.9-2.993-.6-.645-1.44-.967-2.52-.967s-1.951.345-2.61 1.035c-.66.69-.99 1.845-.99 3.465m19.935 12.644v-22.904c1.259.27 2.534.404 3.824.404 1.32 0 2.656-.134 4.005-.404v22.904zm3.824-24.705c-1.29 0-2.392-.457-3.307-1.372-.916-.915-1.373-2.017-1.373-3.307s.457-2.393 1.373-3.308c.915-.915 2.017-1.372 3.307-1.372s2.392.457 3.308 1.372c.915.915 1.373 2.018 1.373 3.308s-.458 2.392-1.373 3.307c-.916.915-2.018 1.372-3.308 1.372zm20.61 19.08c1.38 0 2.482-.532 3.307-1.597s1.238-2.482 1.238-4.252-.413-3.18-1.238-4.231c-.825-1.05-1.927-1.574-3.307-1.574s-2.483.524-3.307 1.574c-.826 1.051-1.238 2.461-1.238 4.231s.412 3.187 1.238 4.252c.824 1.065 1.927 1.597 3.307 1.597zm0 6.21c-2.46 0-4.628-.517-6.503-1.552s-3.345-2.453-4.409-4.252c-1.066-1.8-1.598-3.885-1.598-6.255s.532-4.455 1.598-6.255c1.064-1.8 2.534-3.21 4.409-4.231 1.875-1.019 4.043-1.529 6.503-1.529s4.627.51 6.503 1.529c1.874 1.021 3.344 2.431 4.409 4.231s1.598 3.885 1.598 6.255-.533 4.455-1.598 6.255c-1.065 1.799-2.535 3.217-4.409 4.252-1.876 1.035-4.043 1.552-6.503 1.552zm24.435-13.229v12.644h-7.83v-22.904h7.155l.405 3.015c.749-1.08 1.725-1.951 2.925-2.611 1.199-.659 2.52-.989 3.96-.989 2.49 0 4.484.81 5.985 2.43 1.5 1.62 2.25 3.945 2.25 6.974v14.085h-7.83v-13.184c0-1.35-.3-2.347-.9-2.993-.601-.645-1.44-.967-2.52-.967s-1.95.345-2.61 1.035-.99 1.845-.99 3.465m-197.862-12.061c-1.29 0-2.393-.457-3.308-1.372s-1.372-2.017-1.372-3.307.457-2.393 1.372-3.308 2.018-1.372 3.308-1.372 2.392.457 3.307 1.372 1.373 2.018 1.373 3.308-.458 2.392-1.373 3.307-2.017 1.372-3.307 1.372"
      fill="#009bff" class='no-color-change'/></g>
</svg>