<svg xmlns="http://www.w3.org/2000/svg" width="274" height="47" viewBox="0 0 274 47">
  <g fill="none" fill-rule="evenodd">
    <path fill="#FFFFFF" d="M4.759 43.789L5.837 43.789C6.192 43.789 6.472 43.702 6.678 43.527 6.885 43.353 6.988 43.115 6.988 42.814 6.988 42.513 6.885 42.274 6.678 42.1 6.472 41.926 6.192 41.839 5.837 41.839L4.759 41.839 4.759 43.789zM3.957 46.558L3.957 41.164 5.837 41.164C6.44 41.164 6.919 41.312 7.273 41.608 7.627 41.904 7.805 42.306 7.805 42.814 7.805 43.316 7.627 43.714 7.273 44.008 6.919 44.302 6.44 44.448 5.837 44.448L4.759 44.448 4.759 46.558 3.957 46.558zM9.423 44.527L11.39 44.527 10.407 41.997 9.423 44.527zM12.175 46.558L11.652 45.201 9.161 45.201 8.638 46.558 7.829 46.558 9.986 41.164 10.851 41.164 13 46.558 12.175 46.558zM14.698 43.71L15.801 43.71C16.144 43.71 16.418 43.626 16.621 43.456 16.825 43.287 16.927 43.06 16.927 42.774 16.927 42.488 16.825 42.262 16.621 42.092 16.418 41.923 16.144 41.839 15.801 41.839L14.698 41.839 14.698 43.71zM14.698 44.368L14.698 46.558 13.896 46.558 13.896 41.164 15.801 41.164C16.398 41.164 16.871 41.309 17.22 41.597 17.569 41.885 17.744 42.277 17.744 42.774 17.744 43.15 17.638 43.467 17.427 43.727 17.215 43.985 16.924 44.168 16.554 44.273L17.863 46.558 16.951 46.558 15.721 44.368 14.698 44.368z"/>
    <polyline fill="#FFFFFF" points="20.044 46.558 20.044 41.839 18.228 41.839 18.228 41.164 22.662 41.164 22.662 41.839 20.845 41.839 20.845 46.558 20.044 46.558"/>
    <path fill="#FFFFFF" d="M27.809,45.947 C28.159,45.947 28.469,45.858 28.742,45.682 C29.014,45.505 29.227,45.26 29.38,44.947 C29.534,44.636 29.61,44.273 29.61,43.86 C29.61,43.448 29.534,43.086 29.38,42.774 C29.227,42.462 29.014,42.218 28.742,42.04 C28.469,41.863 28.159,41.774 27.809,41.774 C27.461,41.774 27.151,41.863 26.882,42.04 C26.612,42.218 26.4,42.462 26.247,42.774 C26.094,43.086 26.017,43.448 26.017,43.86 C26.017,44.273 26.094,44.636 26.247,44.947 C26.4,45.26 26.612,45.505 26.882,45.682 C27.151,45.858 27.461,45.947 27.809,45.947 Z M27.809,46.645 C27.302,46.645 26.852,46.526 26.461,46.288 C26.07,46.05 25.762,45.723 25.537,45.305 C25.312,44.887 25.2,44.406 25.2,43.86 C25.2,43.316 25.312,42.835 25.537,42.417 C25.762,42 26.07,41.672 26.461,41.434 C26.852,41.195 27.302,41.077 27.809,41.077 C28.317,41.077 28.768,41.195 29.162,41.434 C29.556,41.672 29.865,42 30.09,42.417 C30.315,42.835 30.427,43.316 30.427,43.86 C30.427,44.406 30.315,44.887 30.09,45.305 C29.865,45.723 29.556,46.05 29.162,46.288 C28.768,46.526 28.317,46.645 27.809,46.645 Z"/>
    <polyline fill="#FFFFFF" points="32.355 46.558 31.554 46.558 31.554 41.164 34.909 41.164 34.909 41.839 32.355 41.839 32.355 43.663 34.52 43.663 34.52 44.337 32.355 44.337 32.355 46.558"/>
    <polyline fill="#FFFFFF" points="39.09 46.558 39.09 41.839 37.273 41.839 37.273 41.164 41.707 41.164 41.707 41.839 39.891 41.839 39.891 46.558 39.09 46.558"/>
    <polyline fill="#FFFFFF" points="42.627 46.558 42.627 41.164 43.429 41.164 43.429 43.473 46.213 43.473 46.213 41.164 47.014 41.164 47.014 46.558 46.213 46.558 46.213 44.162 43.429 44.162 43.429 46.558 42.627 46.558"/>
    <polyline fill="#FFFFFF" points="48.425 46.558 48.425 41.164 51.884 41.164 51.884 41.839 49.226 41.839 49.226 43.504 51.567 43.504 51.567 44.179 49.226 44.179 49.226 45.884 51.948 45.884 51.948 46.558 48.425 46.558"/>
    <path fill="#FFFFFF" d="M57.008 45.947C57.448 45.947 57.792 45.815 58.043 45.551 58.295 45.286 58.421 44.93 58.421 44.479L58.421 41.164 59.222 41.164 59.222 44.487C59.222 45.159 59.024 45.686 58.631 46.07 58.237 46.453 57.696 46.645 57.008 46.645 56.321 46.645 55.782 46.453 55.391 46.07 54.999 45.686 54.803 45.159 54.803 44.487L54.803 41.164 55.604 41.164 55.604 44.479C55.604 44.93 55.73 45.286 55.981 45.551 56.232 45.815 56.575 45.947 57.008 45.947M62.212 46.645C61.805 46.645 61.416 46.574 61.046 46.431 60.676 46.288 60.377 46.098 60.15 45.859L60.602 45.328C60.813 45.524 61.063 45.678 61.351 45.789 61.64 45.899 61.927 45.955 62.212 45.955 62.561 45.955 62.843 45.888 63.057 45.753 63.271 45.618 63.378 45.432 63.378 45.193 63.378 44.977 63.302 44.794 63.148 44.646 62.995 44.498 62.733 44.374 62.363 44.273L61.617 44.075C61.136 43.948 60.785 43.769 60.566 43.536 60.347 43.303 60.237 42.999 60.237 42.624 60.237 42.316 60.319 42.047 60.483 41.814 60.647 41.582 60.872 41.4 61.161 41.271 61.449 41.142 61.776 41.077 62.141 41.077 62.527 41.077 62.889 41.149 63.227 41.295 63.566 41.44 63.865 41.643 64.123 41.901L63.64 42.425C63.413 42.214 63.176 42.051 62.93 41.937 62.684 41.824 62.424 41.767 62.149 41.767 61.815 41.767 61.543 41.837 61.331 41.977 61.12 42.117 61.014 42.311 61.014 42.56 61.014 42.787 61.089 42.965 61.241 43.092 61.391 43.218 61.622 43.324 61.934 43.409L62.767 43.639C63.248 43.771 63.6 43.956 63.822 44.194 64.045 44.432 64.156 44.728 64.156 45.083 64.156 45.395 64.073 45.668 63.91 45.903 63.746 46.139 63.519 46.321 63.227 46.451 62.936 46.58 62.598 46.645 62.212 46.645M66.17 44.527L68.138 44.527 67.154 41.997 66.17 44.527zM68.923 46.558L68.399 45.201 65.909 45.201 65.385 46.558 64.576 46.558 66.734 41.164 67.598 41.164 69.748 46.558 68.923 46.558z"/>
    <polyline fill="#FFFFFF" points="73.476 46.558 73.476 41.839 71.659 41.839 71.659 41.164 76.094 41.164 76.094 41.839 74.277 41.839 74.277 46.558 73.476 46.558"/>
    <path fill="#FFFFFF" d="M78.981 45.947C79.33 45.947 79.641 45.858 79.913 45.682 80.186 45.505 80.398 45.26 80.551 44.947 80.705 44.636 80.782 44.273 80.782 43.86 80.782 43.448 80.705 43.086 80.551 42.774 80.398 42.462 80.186 42.218 79.913 42.04 79.641 41.863 79.33 41.774 78.981 41.774 78.632 41.774 78.323 41.863 78.053 42.04 77.783 42.218 77.571 42.462 77.418 42.774 77.265 43.086 77.188 43.448 77.188 43.86 77.188 44.273 77.265 44.636 77.418 44.947 77.571 45.26 77.783 45.505 78.053 45.682 78.323 45.858 78.632 45.947 78.981 45.947zM78.981 46.645C78.473 46.645 78.023 46.526 77.632 46.288 77.241 46.05 76.933 45.723 76.708 45.305 76.483 44.887 76.371 44.406 76.371 43.86 76.371 43.316 76.483 42.835 76.708 42.417 76.933 42 77.241 41.672 77.632 41.434 78.023 41.195 78.473 41.077 78.981 41.077 79.489 41.077 79.939 41.195 80.333 41.434 80.727 41.672 81.037 42 81.262 42.417 81.486 42.835 81.599 43.316 81.599 43.86 81.599 44.406 81.486 44.887 81.262 45.305 81.037 45.723 80.727 46.05 80.333 46.288 79.939 46.526 79.489 46.645 78.981 46.645zM83.526 45.884L84.621 45.884C85.001 45.884 85.328 45.8 85.601 45.634 85.873 45.467 86.081 45.233 86.227 44.932 86.372 44.631 86.445 44.273 86.445 43.86 86.445 43.448 86.372 43.092 86.227 42.79 86.081 42.488 85.873 42.255 85.601 42.088 85.328 41.922 85.001 41.839 84.621 41.839L83.526 41.839 83.526 45.884zM82.725 46.558L82.725 41.164 84.621 41.164C85.149 41.164 85.612 41.276 86.009 41.501 86.406 41.727 86.713 42.04 86.933 42.445 87.152 42.85 87.262 43.321 87.262 43.86 87.262 44.4 87.152 44.872 86.933 45.277 86.713 45.682 86.406 45.996 86.009 46.221 85.612 46.445 85.149 46.558 84.621 46.558L82.725 46.558zM89.309 44.527L91.276 44.527 90.292 41.997 89.309 44.527zM92.061 46.558L91.538 45.201 89.047 45.201 88.523 46.558 87.714 46.558 89.872 41.164 90.736 41.164 92.886 46.558 92.061 46.558z"/>
    <polyline fill="#FFFFFF" points="95.345 44.416 95.345 46.558 94.544 46.558 94.544 44.416 92.648 41.164 93.592 41.164 94.949 43.654 96.305 41.164 97.233 41.164 95.345 44.416"/>
    <polyline fill="#FFFFFF" points="103.643 46.558 100.763 42.425 100.763 46.558 100.009 46.558 100.009 41.164 100.755 41.164 103.643 45.297 103.643 41.164 104.388 41.164 104.388 46.558 103.643 46.558"/>
    <polyline fill="#FFFFFF" points="105.8 46.558 105.8 41.164 109.258 41.164 109.258 41.839 106.601 41.839 106.601 43.504 108.941 43.504 108.941 44.179 106.601 44.179 106.601 45.884 109.322 45.884 109.322 46.558 105.8 46.558"/>
    <polyline fill="#FFFFFF" points="111.702 46.558 111.702 41.839 109.885 41.839 109.885 41.164 114.319 41.164 114.319 41.839 112.503 41.839 112.503 46.558 111.702 46.558"/>
    <polyline fill="#FFFFFF" points="119.555 46.558 118.293 42.259 117.032 46.558 116.199 46.558 114.763 41.164 115.556 41.164 116.651 45.432 117.912 41.164 118.674 41.164 119.943 45.447 121.046 41.164 121.823 41.164 120.387 46.558 119.555 46.558"/>
    <path fill="#FFFFFF" d="M125.004 45.947C125.353 45.947 125.664 45.858 125.936 45.682 126.208 45.505 126.421 45.26 126.575 44.947 126.728 44.636 126.805 44.273 126.805 43.86 126.805 43.448 126.728 43.086 126.575 42.774 126.421 42.462 126.208 42.218 125.936 42.04 125.664 41.863 125.353 41.774 125.004 41.774 124.655 41.774 124.346 41.863 124.076 42.04 123.806 42.218 123.595 42.462 123.441 42.774 123.288 43.086 123.211 43.448 123.211 43.86 123.211 44.273 123.288 44.636 123.441 44.947 123.595 45.26 123.806 45.505 124.076 45.682 124.346 45.858 124.655 45.947 125.004 45.947zM125.004 46.645C124.496 46.645 124.047 46.526 123.656 46.288 123.264 46.05 122.956 45.723 122.731 45.305 122.507 44.887 122.394 44.406 122.394 43.86 122.394 43.316 122.507 42.835 122.731 42.417 122.956 42 123.264 41.672 123.656 41.434 124.047 41.195 124.496 41.077 125.004 41.077 125.512 41.077 125.963 41.195 126.356 41.434 126.75 41.672 127.06 42 127.285 42.417 127.509 42.835 127.622 43.316 127.622 43.86 127.622 44.406 127.509 44.887 127.285 45.305 127.06 45.723 126.75 46.05 126.356 46.288 125.963 46.526 125.512 46.645 125.004 46.645zM129.549 43.71L130.652 43.71C130.996 43.71 131.269 43.626 131.473 43.456 131.676 43.287 131.778 43.06 131.778 42.774 131.778 42.488 131.676 42.262 131.473 42.092 131.269 41.923 130.996 41.839 130.652 41.839L129.549 41.839 129.549 43.71zM129.549 44.368L129.549 46.558 128.748 46.558 128.748 41.164 130.652 41.164C131.249 41.164 131.723 41.309 132.072 41.597 132.421 41.885 132.595 42.277 132.595 42.774 132.595 43.15 132.49 43.467 132.278 43.727 132.066 43.985 131.775 44.168 131.405 44.273L132.714 46.558 131.802 46.558 130.572 44.368 129.549 44.368z"/>
    <polyline fill="#FFFFFF" points="136.95 46.558 134.531 43.837 134.531 46.558 133.729 46.558 133.729 41.164 134.531 41.164 134.531 43.527 136.791 41.164 137.783 41.164 135.379 43.639 137.957 46.558 136.95 46.558"/>
    <path fill="#FFFFFF" d="M16.103 35.486C12.982 35.486 10.245 34.811 7.89 33.462 5.535 32.111 3.69 30.244 2.355 27.859 1.02 25.475.353 22.707.353 19.557.353 16.406 1.02 13.646 2.355 11.276 3.69 8.907 5.535 7.055 7.89 5.719 10.245 4.385 12.982 3.717 16.103 3.717 18.742 3.717 21.12 4.25 23.235 5.314 25.35 6.38 27.157 7.917 28.658 9.927L22.043 13.842C21.262 12.852 20.385 12.072 19.41 11.502 18.435 10.933 17.302 10.646 16.013 10.646 13.882 10.646 12.158 11.449 10.838 13.055 9.517 14.659 8.858 16.827 8.858 19.557 8.858 22.287 9.517 24.47 10.838 26.104 12.158 27.739 13.882 28.557 16.013 28.557 17.332 28.557 18.502 28.234 19.523 27.589 20.542 26.944 21.397 26.187 22.088 25.316L28.658 29.231C27.187 31.272 25.38 32.824 23.235 33.89 21.09 34.954 18.713 35.486 16.103 35.486M43.418 29.276C44.797 29.276 45.9 28.744 46.725 27.68 47.55 26.614 47.963 25.197 47.963 23.427 47.963 21.657 47.55 20.247 46.725 19.196 45.9 18.146 44.797 17.622 43.418 17.622 42.038 17.622 40.935 18.146 40.11 19.196 39.285 20.247 38.872 21.657 38.872 23.427 38.872 25.197 39.285 26.614 40.11 27.68 40.935 28.744 42.038 29.276 43.418 29.276zM43.418 35.486C40.957 35.486 38.789 34.969 36.915 33.935 35.04 32.899 33.57 31.481 32.505 29.682 31.44 27.882 30.908 25.797 30.908 23.427 30.908 21.058 31.44 18.972 32.505 17.172 33.57 15.372 35.04 13.962 36.915 12.941 38.789 11.922 40.957 11.412 43.418 11.412 45.877 11.412 48.045 11.922 49.92 12.941 51.795 13.962 53.265 15.372 54.33 17.172 55.394 18.972 55.928 21.058 55.928 23.427 55.928 25.797 55.394 27.882 54.33 29.682 53.265 31.481 51.795 32.899 49.92 33.935 48.045 34.969 45.877 35.486 43.418 35.486zM75.143 34.901L74.737 31.887C73.987 32.997 73.005 33.874 71.79 34.52 70.575 35.164 69.262 35.486 67.852 35.486 65.182 35.486 63.142 34.699 61.732 33.124 60.322 31.549 59.618 29.276 59.618 26.307L59.618 11.997 67.447 11.997 67.447 25.406C67.447 27.897 68.587 29.142 70.868 29.142 73.267 29.142 74.467 27.642 74.467 24.642L74.467 11.997 82.297 11.997 82.297 34.901 75.143 34.901M95.617 26.037L95.617 34.901 87.787 34.901 87.787 11.997 94.942 11.997 95.437 15.821C95.916 14.592 96.704 13.594 97.8 12.829 98.894 12.064 100.162 11.682 101.602 11.682 102.412 11.682 103.027 11.787 103.447 11.997L103.447 19.151C103.117 19.032 102.749 18.942 102.345 18.882 101.939 18.822 101.482 18.792 100.972 18.792 99.412 18.792 98.129 19.37 97.124 20.524 96.119 21.68 95.617 23.517 95.617 26.037M107.227 34.901L107.227 11.997C108.487 12.267 109.762 12.401 111.052 12.401 112.372 12.401 113.707 12.267 115.057 11.997L115.057 34.901 107.227 34.901M131.391 17.082C128.841 17.082 127.311 18.432 126.801 21.132L135.531 21.132C135.321 19.662 134.818 18.619 134.023 18.004 133.228 17.39 132.351 17.082 131.391 17.082zM142.101 32.561C140.96 33.372 139.513 34.062 137.758 34.632 136.003 35.201 134.136 35.486 132.156 35.486 129.426 35.486 127.094 34.984 125.159 33.979 123.224 32.975 121.739 31.571 120.704 29.771 119.668 27.972 119.151 25.901 119.151 23.561 119.151 21.192 119.661 19.092 120.681 17.262 121.701 15.433 123.111 13.999 124.911 12.964 126.711 11.93 128.811 11.412 131.211 11.412 133.551 11.412 135.613 11.914 137.398 12.919 139.183 13.925 140.578 15.319 141.583 17.104 142.589 18.89 143.091 20.982 143.091 23.382 143.091 23.712 143.068 24.057 143.023 24.417 142.978 24.776 142.926 25.152 142.866 25.542L126.891 25.542C127.611 28.182 129.576 29.502 132.786 29.502 134.226 29.502 135.501 29.276 136.611 28.827 137.72 28.377 138.651 27.927 139.401 27.477L142.101 32.561zM154.926 26.037L154.926 34.901 147.096 34.901 147.096 11.997 154.251 11.997 154.746 15.821C155.226 14.592 156.013 13.594 157.108 12.829 158.203 12.064 159.471 11.682 160.911 11.682 161.721 11.682 162.336 11.787 162.756 11.997L162.756 19.151C162.426 19.032 162.059 18.942 161.653 18.882 161.248 18.822 160.791 18.792 160.281 18.792 158.721 18.792 157.438 19.37 156.434 20.524 155.428 21.68 154.926 23.517 154.926 26.037"/>
    <path class="no-color-change" fill="#009BFF" d="M186.065 18.297L190.115 18.297C191.404 18.297 192.425 17.959 193.175 17.284 193.925 16.609 194.3 15.717 194.3 14.606 194.3 13.497 193.925 12.604 193.175 11.93 192.425 11.254 191.404 10.917 190.115 10.917L186.065 10.917 186.065 18.297zM177.965 34.901L177.965 4.302 190.925 4.302C194.525 4.302 197.375 5.225 199.476 7.069 201.575 8.914 202.625 11.427 202.625 14.606 202.625 16.677 202.152 18.47 201.208 19.984 200.263 21.499 198.936 22.67 197.226 23.494 195.516 24.319 193.475 24.731 191.105 24.731L186.065 24.731 186.065 34.901 177.965 34.901zM217.069 29.276C218.449 29.276 219.552 28.744 220.377 27.68 221.202 26.614 221.614 25.197 221.614 23.427 221.614 21.657 221.202 20.247 220.377 19.196 219.552 18.146 218.449 17.622 217.069 17.622 215.689 17.622 214.587 18.146 213.762 19.196 212.936 20.247 212.524 21.657 212.524 23.427 212.524 25.197 212.936 26.614 213.762 27.68 214.587 28.744 215.689 29.276 217.069 29.276zM217.069 35.486C214.609 35.486 212.441 34.969 210.567 33.935 208.691 32.899 207.222 31.481 206.157 29.682 205.092 27.882 204.56 25.797 204.56 23.427 204.56 21.058 205.092 18.972 206.157 17.172 207.222 15.372 208.691 13.962 210.567 12.941 212.441 11.922 214.609 11.412 217.069 11.412 219.529 11.412 221.697 11.922 223.572 12.941 225.446 13.962 226.917 15.372 227.982 17.172 229.047 18.972 229.58 21.058 229.58 23.427 229.58 25.797 229.047 27.882 227.982 29.682 226.917 31.481 225.446 32.899 223.572 33.935 221.697 34.969 219.529 35.486 217.069 35.486zM242.18 35.486C240.199 35.486 238.347 35.172 236.622 34.542 234.896 33.912 233.344 33.012 231.965 31.842L235.295 27.432C236.345 28.271 237.478 28.955 238.692 29.479 239.907 30.005 241.1 30.267 242.27 30.267 243.05 30.267 243.672 30.132 244.137 29.861 244.602 29.592 244.835 29.186 244.835 28.646 244.835 28.077 244.571 27.619 244.047 27.274 243.521 26.93 242.585 26.592 241.234 26.262L239.074 25.722C234.784 24.582 232.64 22.287 232.64 18.837 232.64 17.307 233.06 15.987 233.899 14.877 234.739 13.768 235.895 12.912 237.364 12.311 238.834 11.712 240.544 11.412 242.494 11.412 244.414 11.412 246.222 11.712 247.917 12.311 249.611 12.912 251.164 13.782 252.574 14.922L249.154 19.422C248.104 18.582 246.994 17.907 245.824 17.396 244.654 16.887 243.56 16.632 242.54 16.632 240.89 16.632 240.064 17.172 240.064 18.252 240.064 18.732 240.312 19.122 240.807 19.422 241.302 19.722 242 19.992 242.899 20.231L245.824 21.042C248.014 21.643 249.634 22.542 250.685 23.742 251.734 24.942 252.26 26.367 252.26 28.017 252.26 29.518 251.839 30.829 251 31.954 250.159 33.079 248.981 33.949 247.467 34.564 245.952 35.179 244.189 35.486 242.18 35.486M273.409 33.417C272.479 34.047 271.414 34.55 270.215 34.924 269.015 35.299 267.754 35.486 266.435 35.486 263.975 35.486 262.017 34.774 260.561 33.35 259.106 31.925 258.38 30.012 258.38 27.611L258.38 17.847 254.645 17.847 254.645 11.997 258.739 11.997 259.729 5.606 266.209 5.606 266.209 11.997 272.194 11.997 272.194 17.847 266.209 17.847 266.209 26.622C266.209 27.402 266.441 28.01 266.907 28.444 267.372 28.88 267.994 29.097 268.774 29.097 269.164 29.097 269.561 29.022 269.967 28.872 270.372 28.722 270.755 28.542 271.114 28.332L273.409 33.417M111.052 10.196C109.762 10.196 108.659 9.739 107.744 8.824 106.829 7.909 106.372 6.807 106.372 5.517 106.372 4.228 106.829 3.125 107.744 2.209 108.659 1.295 109.762.837 111.052.837 112.341.837 113.444 1.295 114.359 2.209 115.274 3.125 115.732 4.228 115.732 5.517 115.732 6.807 115.274 7.909 114.359 8.824 113.444 9.739 112.341 10.196 111.052 10.196"/>
  </g>
</svg>
