<svg xmlns="http://www.w3.org/2000/svg" width="274" height="35" viewBox="0 0 274 35">
  <g fill="none" fill-rule="evenodd" transform="translate(0 -1)">
    <path fill="#FFFFFE" d="M16.061 35.648C12.941 35.648 10.203 34.973 7.848 33.624 5.493 32.273 3.648 30.406 2.314 28.021.978 25.636.311 22.868.311 19.718.311 16.568.978 13.808 2.314 11.438 3.648 9.069 5.493 7.216 7.848 5.88 10.203 4.546 12.941 3.878 16.061 3.878 18.701 3.878 21.078 4.411 23.193 5.476 25.308 6.541 27.116 8.079 28.616 10.088L22.001 14.003C21.221 13.013 20.343 12.233 19.368 11.664 18.393 11.094 17.261 10.808 15.971 10.808 13.84 10.808 12.116 11.611 10.796 13.216 9.475 14.821 8.816 16.989 8.816 19.718 8.816 22.449 9.475 24.631 10.796 26.266 12.116 27.901 13.84 28.718 15.971 28.718 17.291 28.718 18.461 28.396 19.481 27.751 20.501 27.106 21.356 26.349 22.046 25.478L28.616 29.393C27.146 31.434 25.338 32.986 23.193 34.051 21.048 35.115 18.671 35.648 16.061 35.648M43.376 29.438C44.755 29.438 45.858 28.906 46.683 27.841 47.508 26.776 47.921 25.359 47.921 23.588 47.921 21.818 47.508 20.409 46.683 19.358 45.858 18.308 44.755 17.783 43.376 17.783 41.996 17.783 40.893 18.308 40.068 19.358 39.243 20.409 38.831 21.818 38.831 23.588 38.831 25.359 39.243 26.776 40.068 27.841 40.893 28.906 41.996 29.438 43.376 29.438zM43.376 35.648C40.916 35.648 38.748 35.13 36.873 34.096 34.998 33.061 33.528 31.643 32.463 29.843 31.398 28.044 30.866 25.958 30.866 23.588 30.866 21.219 31.398 19.133 32.463 17.333 33.528 15.533 34.998 14.124 36.873 13.103 38.748 12.083 40.916 11.573 43.376 11.573 45.836 11.573 48.003 12.083 49.878 13.103 51.753 14.124 53.223 15.533 54.288 17.333 55.353 19.133 55.886 21.219 55.886 23.588 55.886 25.958 55.353 28.044 54.288 29.843 53.223 31.643 51.753 33.061 49.878 34.096 48.003 35.13 45.836 35.648 43.376 35.648L43.376 35.648zM75.101 35.063L74.696 32.048C73.945 33.159 72.963 34.036 71.748 34.681 70.533 35.326 69.221 35.648 67.811 35.648 65.14 35.648 63.1 34.861 61.691 33.286 60.28 31.71 59.576 29.438 59.576 26.468L59.576 12.158 67.406 12.158 67.406 25.568C67.406 28.059 68.546 29.303 70.826 29.303 73.225 29.303 74.426 27.803 74.426 24.803L74.426 12.158 82.256 12.158 82.256 35.063 75.101 35.063M95.575 26.198L95.575 35.063 87.745 35.063 87.745 12.158 94.9 12.158 95.395 15.983C95.875 14.753 96.662 13.755 97.758 12.991 98.853 12.226 100.12 11.843 101.56 11.843 102.37 11.843 102.985 11.949 103.405 12.158L103.405 19.313C103.075 19.194 102.708 19.104 102.303 19.043 101.898 18.983 101.44 18.953 100.93 18.953 99.37 18.953 98.088 19.531 97.083 20.686 96.078 21.841 95.575 23.678 95.575 26.198M107.185 35.063L107.185 12.158C108.445 12.428 109.72 12.563 111.01 12.563 112.33 12.563 113.665 12.428 115.015 12.158L115.015 35.063 107.185 35.063M131.35 17.243C128.799 17.243 127.269 18.593 126.759 21.293L135.489 21.293C135.279 19.824 134.777 18.781 133.982 18.166 133.187 17.551 132.309 17.243 131.35 17.243zM142.059 32.723C140.919 33.533 139.472 34.224 137.717 34.793 135.962 35.363 134.094 35.648 132.114 35.648 129.384 35.648 127.052 35.146 125.117 34.141 123.182 33.136 121.697 31.733 120.662 29.933 119.627 28.133 119.11 26.063 119.11 23.723 119.11 21.354 119.619 19.253 120.639 17.423 121.659 15.594 123.069 14.161 124.87 13.126 126.669 12.091 128.769 11.573 131.169 11.573 133.509 11.573 135.572 12.076 137.357 13.081 139.141 14.086 140.537 15.481 141.542 17.266 142.547 19.051 143.049 21.144 143.049 23.543 143.049 23.874 143.027 24.218 142.982 24.578 142.937 24.938 142.884 25.314 142.824 25.703L126.85 25.703C127.569 28.343 129.534 29.664 132.745 29.664 134.184 29.664 135.459 29.438 136.569 28.988 137.679 28.539 138.609 28.088 139.359 27.638L142.059 32.723 142.059 32.723zM154.884 26.198L154.884 35.063 147.054 35.063 147.054 12.158 154.209 12.158 154.704 15.983C155.183 14.753 155.971 13.755 157.067 12.991 158.162 12.226 159.429 11.843 160.869 11.843 161.679 11.843 162.294 11.949 162.714 12.158L162.714 19.313C162.384 19.194 162.016 19.104 161.612 19.043 161.206 18.983 160.749 18.953 160.239 18.953 158.679 18.953 157.396 19.531 156.391 20.686 155.386 21.841 154.884 23.678 154.884 26.198"/>
    <path fill="#009BD3" d="M186.023 18.458L190.073 18.458C191.363 18.458 192.383 18.121 193.133 17.446 193.883 16.771 194.258 15.878 194.258 14.768 194.258 13.659 193.883 12.766 193.133 12.091 192.383 11.416 191.363 11.078 190.073 11.078L186.023 11.078 186.023 18.458zM177.923 35.063L177.923 4.463 190.883 4.463C194.483 4.463 197.333 5.386 199.433 7.231 201.533 9.076 202.583 11.588 202.583 14.768 202.583 16.838 202.111 18.631 201.166 20.146 200.221 21.661 198.893 22.831 197.183 23.656 195.474 24.481 193.433 24.893 191.063 24.893L186.023 24.893 186.023 35.063 177.923 35.063 177.923 35.063zM217.028 29.438C218.407 29.438 219.51 28.906 220.335 27.841 221.16 26.776 221.573 25.359 221.573 23.588 221.573 21.818 221.16 20.409 220.335 19.358 219.51 18.308 218.407 17.783 217.028 17.783 215.647 17.783 214.545 18.308 213.72 19.358 212.895 20.409 212.483 21.818 212.483 23.588 212.483 25.359 212.895 26.776 213.72 27.841 214.545 28.906 215.647 29.438 217.028 29.438zM217.028 35.648C214.567 35.648 212.4 35.13 210.525 34.096 208.65 33.061 207.18 31.643 206.115 29.843 205.05 28.044 204.518 25.958 204.518 23.588 204.518 21.219 205.05 19.133 206.115 17.333 207.18 15.533 208.65 14.124 210.525 13.103 212.4 12.083 214.567 11.573 217.028 11.573 219.487 11.573 221.655 12.083 223.53 13.103 225.405 14.124 226.875 15.533 227.94 17.333 229.005 19.133 229.538 21.219 229.538 23.588 229.538 25.958 229.005 28.044 227.94 29.843 226.875 31.643 225.405 33.061 223.53 34.096 221.655 35.13 219.487 35.648 217.028 35.648L217.028 35.648zM242.138 35.648C240.158 35.648 238.305 35.334 236.58 34.703 234.855 34.073 233.302 33.173 231.923 32.003L235.253 27.593C236.303 28.433 237.435 29.116 238.65 29.641 239.865 30.166 241.057 30.428 242.228 30.428 243.008 30.428 243.63 30.293 244.095 30.023 244.56 29.753 244.793 29.348 244.793 28.808 244.793 28.239 244.53 27.781 244.005 27.436 243.48 27.091 242.543 26.753 241.193 26.423L239.033 25.883C234.742 24.744 232.598 22.449 232.598 18.999 232.598 17.468 233.017 16.148 233.858 15.039 234.697 13.929 235.852 13.074 237.323 12.473 238.792 11.874 240.502 11.573 242.453 11.573 244.372 11.573 246.18 11.874 247.875 12.473 249.57 13.074 251.122 13.943 252.533 15.083L249.113 19.583C248.062 18.744 246.953 18.069 245.783 17.558 244.613 17.048 243.517 16.793 242.498 16.793 240.848 16.793 240.023 17.333 240.023 18.414 240.023 18.894 240.27 19.284 240.765 19.583 241.26 19.883 241.958 20.154 242.858 20.393L245.783 21.203C247.972 21.804 249.592 22.704 250.642 23.903 251.692 25.104 252.218 26.529 252.218 28.178 252.218 29.679 251.797 30.991 250.958 32.116 250.118 33.241 248.94 34.111 247.425 34.726 245.91 35.34 244.147 35.648 242.138 35.648M273.368 33.578C272.437 34.209 271.372 34.711 270.173 35.085 268.973 35.46 267.712 35.648 266.392 35.648 263.932 35.648 261.975 34.936 260.52 33.511 259.065 32.087 258.338 30.173 258.338 27.773L258.338 18.008 254.602 18.008 254.602 12.158 258.698 12.158 259.687 5.768 266.167 5.768 266.167 12.158 272.153 12.158 272.153 18.008 266.167 18.008 266.167 26.783C266.167 27.564 266.4 28.171 266.865 28.606 267.33 29.041 267.952 29.258 268.733 29.258 269.122 29.258 269.52 29.184 269.925 29.033 270.33 28.883 270.713 28.704 271.073 28.493L273.368 33.578M111.01 10.358C109.72 10.358 108.617 9.901 107.703 8.986 106.787 8.071 106.33 6.968 106.33 5.678 106.33 4.389 106.787 3.286 107.703 2.371 108.617 1.456 109.72.999 111.01.999 112.3.999 113.402 1.456 114.318 2.371 115.232 3.286 115.69 4.389 115.69 5.678 115.69 6.968 115.232 8.071 114.318 8.986 113.402 9.901 112.3 10.358 111.01 10.358"/>
  </g>
</svg>
