<svg xmlns="http://www.w3.org/2000/svg" width="422" height="47" viewBox="0 0 422 47">
  <g fill="none" fill-rule="evenodd">
    <path fill="#404040" d="M16.107 35.515C12.986 35.515 10.249 34.84 7.894 33.49 5.539 32.14 3.694 30.272 2.359 27.888 1.024 25.502.357 22.735.357 19.585.357 16.435 1.024 13.675 2.359 11.305 3.694 8.936 5.539 7.083 7.894 5.747 10.249 4.413 12.986 3.745 16.107 3.745 18.746 3.745 21.124 4.278 23.239 5.343 25.354 6.408 27.161 7.945 28.662 9.955L22.047 13.87C21.266 12.88 20.389 12.1 19.414 11.53 18.439 10.96 17.307 10.675 16.017 10.675 13.886 10.675 12.162 11.478 10.842 13.083 9.521 14.687 8.862 16.855 8.862 19.585 8.862 22.315 9.521 24.498 10.842 26.132 12.162 27.768 13.886 28.585 16.017 28.585 17.337 28.585 18.507 28.263 19.527 27.617 20.546 26.973 21.401 26.215 22.092 25.345L28.662 29.26C27.192 31.3 25.384 32.853 23.239 33.917 21.094 34.982 18.717 35.515 16.107 35.515M40.137 22.33L40.137 34.93 32.307 34.93 32.307 2.08 40.137 2.08 40.137 14.68C40.886 13.69 41.839 12.902 42.995 12.317 44.149 11.732 45.402 11.44 46.752 11.44 49.242 11.44 51.236 12.25 52.737 13.87 54.237 15.49 54.987 17.815 54.987 20.845L54.987 34.93 47.157 34.93 47.157 21.745C47.157 20.395 46.857 19.398 46.257 18.752 45.656 18.107 44.817 17.785 43.737 17.785 42.657 17.785 41.786 18.13 41.127 18.82 40.467 19.511 40.137 20.681 40.137 22.33M60.071 34.93L60.071 12.025C61.331 12.295 62.606 12.43 63.896 12.43 65.216 12.43 66.551 12.295 67.901 12.025L67.901 34.93 60.071 34.93"/>
    <polygon fill="#404040" points="73.391 34.93 81.221 34.93 81.221 2.08 73.391 2.08"/>
    <polygon fill="#404040" points="86.711 34.93 94.54 34.93 94.54 2.08 86.711 2.08"/>
    <path fill="#404040" d="M100.03 34.93L100.03 12.025C101.29 12.295 102.565 12.43 103.855 12.43 105.175 12.43 106.51 12.295 107.86 12.025L107.86 34.93 100.03 34.93zM103.855 10.225C102.565 10.225 101.462 9.768 100.547 8.853 99.632 7.937 99.175 6.835 99.175 5.545 99.175 4.255 99.632 3.153 100.547 2.237 101.462 1.323 102.565.865 103.855.865 105.145.865 106.247 1.323 107.162 2.237 108.077 3.153 108.535 4.255 108.535 5.545 108.535 6.835 108.077 7.937 107.162 8.853 106.247 9.768 105.145 10.225 103.855 10.225zM124.06 35.515C121.72 35.515 119.642 35.012 117.827 34.007 116.012 33.003 114.579 31.6 113.53 29.8 112.479 28 111.955 25.9 111.955 23.5 111.955 21.1 112.479 19 113.53 17.2 114.579 15.4 116.012 13.998 117.827 12.992 119.642 11.987 121.72 11.485 124.06 11.485 126.129 11.485 127.944 11.867 129.504 12.632 131.064 13.397 132.444 14.62 133.645 16.3L128.47 20.08C128.049 19.45 127.502 18.933 126.827 18.527 126.152 18.122 125.424 17.92 124.645 17.92 123.294 17.92 122.169 18.423 121.27 19.428 120.369 20.433 119.919 21.79 119.919 23.5 119.919 25.21 120.369 26.567 121.27 27.572 122.169 28.578 123.294 29.08 124.645 29.08 125.424 29.08 126.152 28.877 126.827 28.473 127.502 28.067 128.049 27.55 128.47 26.92L133.645 30.7C132.444 32.38 131.064 33.603 129.504 34.367 127.944 35.132 126.129 35.515 124.06 35.515M148.269 29.305C149.648 29.305 150.751 28.772 151.576 27.708 152.401 26.643 152.814 25.226 152.814 23.455 152.814 21.685 152.401 20.275 151.576 19.225 150.751 18.175 149.648 17.65 148.269 17.65 146.889 17.65 145.786 18.175 144.961 19.225 144.136 20.275 143.724 21.685 143.724 23.455 143.724 25.226 144.136 26.643 144.961 27.708 145.786 28.772 146.889 29.305 148.269 29.305zM148.269 35.515C145.809 35.515 143.641 34.997 141.766 33.962 139.891 32.928 138.421 31.51 137.357 29.71 136.291 27.91 135.759 25.825 135.759 23.455 135.759 21.085 136.291 19 137.357 17.2 138.421 15.4 139.891 13.99 141.766 12.97 143.641 11.95 145.809 11.44 148.269 11.44 150.729 11.44 152.896 11.95 154.772 12.97 156.646 13.99 158.116 15.4 159.181 17.2 160.246 19 160.779 21.085 160.779 23.455 160.779 25.825 160.246 27.91 159.181 29.71 158.116 31.51 156.646 32.928 154.772 33.962 152.896 34.997 150.729 35.515 148.269 35.515zM181.749 33.445C180.819 34.075 179.753 34.578 178.554 34.952 177.354 35.327 176.094 35.515 174.774 35.515 172.314 35.515 170.356 34.803 168.901 33.377 167.446 31.953 166.719 30.04 166.719 27.64L166.719 17.875 162.984 17.875 162.984 12.025 167.079 12.025 168.069 5.635 174.549 5.635 174.549 12.025 180.534 12.025 180.534 17.875 174.549 17.875 174.549 26.65C174.549 27.431 174.781 28.038 175.246 28.473 175.711 28.908 176.334 29.125 177.114 29.125 177.503 29.125 177.901 29.05 178.306 28.9 178.711 28.75 179.094 28.57 179.454 28.36L181.749 33.445M193.314 22.33L193.314 34.93 185.484 34.93 185.484 2.08 193.314 2.08 193.314 14.68C194.063 13.69 195.016 12.902 196.171 12.317 197.326 11.732 198.579 11.44 199.929 11.44 202.418 11.44 204.413 12.25 205.914 13.87 207.413 15.49 208.164 17.815 208.164 20.845L208.164 34.93 200.334 34.93 200.334 21.745C200.334 20.395 200.033 19.398 199.434 18.752 198.833 18.107 197.993 17.785 196.914 17.785 195.834 17.785 194.963 18.13 194.304 18.82 193.643 19.511 193.314 20.681 193.314 22.33M224.093 17.11C221.543 17.11 220.013 18.46 219.503 21.16L228.233 21.16C228.023 19.69 227.52 18.647 226.725 18.032 225.93 17.418 225.053 17.11 224.093 17.11zM234.803 32.59C233.662 33.4 232.216 34.09 230.461 34.66 228.705 35.229 226.838 35.515 224.858 35.515 222.128 35.515 219.796 35.012 217.861 34.007 215.926 33.003 214.441 31.6 213.406 29.8 212.37 28 211.853 25.93 211.853 23.59 211.853 21.221 212.363 19.12 213.383 17.29 214.403 15.46 215.813 14.027 217.613 12.992 219.413 11.958 221.513 11.44 223.913 11.44 226.253 11.44 228.315 11.942 230.1 12.947 231.885 13.953 233.28 15.348 234.285 17.132 235.29 18.918 235.793 21.01 235.793 23.41 235.793 23.74 235.771 24.085 235.725 24.445 235.68 24.805 235.628 25.181 235.568 25.57L219.593 25.57C220.313 28.21 222.278 29.53 225.488 29.53 226.928 29.53 228.203 29.305 229.313 28.855 230.423 28.405 231.353 27.955 232.103 27.505L234.803 32.59z"/>
    <path fill="#009BFF" class='no-color-change' d="M278.588 31.33C277.297 32.65 275.512 33.678 273.232 34.412 270.952 35.147 268.432 35.515 265.673 35.515 262.372 35.515 259.514 34.848 257.1 33.513 254.685 32.178 252.809 30.311 251.475 27.91 250.14 25.51 249.472 22.735 249.472 19.585 249.472 16.435 250.147 13.675 251.497 11.305 252.847 8.936 254.738 7.083 257.167 5.747 259.597 4.413 262.432 3.745 265.673 3.745 271.192 3.745 275.467 5.815 278.497 9.955L271.792 13.87C271.162 12.851 270.3 12.063 269.205 11.507 268.11 10.953 266.902 10.675 265.582 10.675 263.182 10.675 261.314 11.485 259.98 13.105 258.645 14.725 257.977 16.885 257.977 19.585 257.977 22.615 258.735 24.872 260.25 26.357 261.764 27.843 263.963 28.585 266.843 28.585 268.193 28.585 269.527 28.36 270.847 27.91L270.847 23.41 265.403 23.41 265.403 17.335 278.588 17.335 278.588 31.33M289.792 27.505C289.792 28.195 290.047 28.758 290.557 29.192 291.067 29.628 291.727 29.845 292.537 29.845 293.617 29.845 294.524 29.478 295.26 28.742 295.994 28.008 296.362 27.085 296.362 25.975L296.362 25.21C295.552 25.06 294.697 24.985 293.797 24.985 292.657 24.985 291.705 25.181 290.94 25.57 290.175 25.96 289.792 26.605 289.792 27.505zM296.677 34.93L296.272 31.915C294.772 34.315 292.492 35.515 289.432 35.515 288.082 35.515 286.86 35.223 285.765 34.638 284.669 34.053 283.8 33.25 283.155 32.23 282.509 31.21 282.187 30.025 282.187 28.675 282.187 26.125 283.184 24.146 285.18 22.735 287.175 21.325 289.807 20.62 293.077 20.62 294.097 20.62 295.177 20.71 296.317 20.89 296.197 19.75 295.71 18.888 294.855 18.303 294 17.718 292.957 17.425 291.727 17.425 290.647 17.425 289.559 17.627 288.465 18.032 287.369 18.437 286.327 18.925 285.337 19.495L282.682 14.455C284.182 13.495 285.802 12.753 287.542 12.228 289.282 11.703 291.022 11.44 292.762 11.44 294.862 11.44 296.752 11.8 298.432 12.52 300.112 13.24 301.432 14.335 302.392 15.805 303.352 17.275 303.832 19.135 303.832 21.385L303.832 34.93 296.677 34.93z"/>
    <polyline fill="#009BFF" class='no-color-change' points="327.772 29.08 327.772 34.93 307.477 34.93 307.477 30.025 317.917 17.875 308.152 17.875 308.152 12.025 327.412 12.025 327.412 16.93 317.062 29.08 327.772 29.08"/>
    <path fill="#009BFF" class='no-color-change' d="M342.892 17.11C340.342 17.11 338.811 18.46 338.302 21.16L347.032 21.16C346.822 19.69 346.319 18.647 345.524 18.032 344.729 17.418 343.851 17.11 342.892 17.11zM353.602 32.59C352.461 33.4 351.014 34.09 349.259 34.66 347.504 35.229 345.637 35.515 343.657 35.515 340.927 35.515 338.594 35.012 336.659 34.007 334.724 33.003 333.239 31.6 332.204 29.8 331.169 28 330.652 25.93 330.652 23.59 330.652 21.221 331.161 19.12 332.181 17.29 333.201 15.46 334.612 14.027 336.412 12.992 338.212 11.958 340.311 11.44 342.712 11.44 345.052 11.44 347.114 11.942 348.899 12.947 350.684 13.953 352.079 15.348 353.084 17.132 354.089 18.918 354.592 21.01 354.592 23.41 354.592 23.74 354.569 24.085 354.524 24.445 354.479 24.805 354.427 25.181 354.367 25.57L338.392 25.57C339.112 28.21 341.076 29.53 344.287 29.53 345.727 29.53 347.001 29.305 348.112 28.855 349.221 28.405 350.152 27.955 350.902 27.505L353.602 32.59zM375.471 33.445C374.541 34.075 373.476 34.578 372.277 34.952 371.076 35.327 369.816 35.515 368.496 35.515 366.036 35.515 364.079 34.803 362.624 33.377 361.169 31.953 360.442 30.04 360.442 27.64L360.442 17.875 356.706 17.875 356.706 12.025 360.802 12.025 361.791 5.635 368.271 5.635 368.271 12.025 374.257 12.025 374.257 17.875 368.271 17.875 368.271 26.65C368.271 27.431 368.504 28.038 368.969 28.473 369.434 28.908 370.056 29.125 370.837 29.125 371.226 29.125 371.624 29.05 372.029 28.9 372.434 28.75 372.817 28.57 373.177 28.36L375.471 33.445M396.081 33.445C395.151 34.075 394.086 34.578 392.886 34.952 391.686 35.327 390.426 35.515 389.106 35.515 386.646 35.515 384.688 34.803 383.234 33.377 381.778 31.953 381.051 30.04 381.051 27.64L381.051 17.875 377.316 17.875 377.316 12.025 381.411 12.025 382.401 5.635 388.881 5.635 388.881 12.025 394.866 12.025 394.866 17.875 388.881 17.875 388.881 26.65C388.881 27.431 389.113 28.038 389.578 28.473 390.043 28.908 390.666 29.125 391.446 29.125 391.836 29.125 392.234 29.05 392.638 28.9 393.044 28.75 393.426 28.57 393.786 28.36L396.081 33.445M409.986 17.11C407.435 17.11 405.906 18.46 405.396 21.16L414.126 21.16C413.915 19.69 413.413 18.647 412.618 18.032 411.823 17.418 410.946 17.11 409.986 17.11zM420.696 32.59C419.555 33.4 418.108 34.09 416.353 34.66 414.598 35.229 412.731 35.515 410.751 35.515 408.021 35.515 405.688 35.012 403.753 34.007 401.818 33.003 400.333 31.6 399.299 29.8 398.263 28 397.746 25.93 397.746 23.59 397.746 21.221 398.256 19.12 399.276 17.29 400.295 15.46 401.706 14.027 403.506 12.992 405.306 11.958 407.406 11.44 409.806 11.44 412.146 11.44 414.208 11.942 415.993 12.947 417.778 13.953 419.173 15.348 420.179 17.132 421.183 18.918 421.686 21.01 421.686 23.41 421.686 23.74 421.663 24.085 421.618 24.445 421.574 24.805 421.521 25.181 421.461 25.57L405.486 25.57C406.206 28.21 408.17 29.53 411.381 29.53 412.821 29.53 414.096 29.305 415.206 28.855 416.315 28.405 417.245 27.955 417.996 27.505L420.696 32.59zM63.896 10.225C62.606 10.225 61.504 9.768 60.589 8.853 59.673 7.937 59.216 6.835 59.216 5.545 59.216 4.255 59.673 3.153 60.589 2.237 61.504 1.323 62.606.865 63.896.865 65.186.865 66.288 1.323 67.204 2.237 68.118 3.153 68.576 4.255 68.576 5.545 68.576 6.835 68.118 7.937 67.204 8.853 66.288 9.768 65.186 10.225 63.896 10.225"/>
    <path fill="#404040" d="M4.823 43.809L5.982 43.809C6.363 43.809 6.664 43.722 6.886 43.549 7.107 43.376 7.218 43.139 7.218 42.84 7.218 42.541 7.107 42.305 6.886 42.132 6.664 41.959 6.363 41.872 5.982 41.872L4.823 41.872 4.823 43.809zM3.962 46.556L3.962 41.203 5.982 41.203C6.63 41.203 7.144 41.35 7.525 41.643 7.906 41.938 8.096 42.336 8.096 42.84 8.096 43.339 7.906 43.734 7.525 44.025 7.144 44.317 6.63 44.462 5.982 44.462L4.823 44.462 4.823 46.556 3.962 46.556zM9.835 44.541L11.949 44.541 10.892 42.029 9.835 44.541zM12.793 46.556L12.23 45.21 9.554 45.21 8.991 46.556 8.121 46.556 10.44 41.203 11.369 41.203 13.679 46.556 12.793 46.556zM15.503 43.73L16.688 43.73C17.058 43.73 17.352 43.646 17.571 43.478 17.789 43.31 17.899 43.085 17.899 42.801 17.899 42.518 17.789 42.292 17.571 42.124 17.352 41.956 17.058 41.872 16.688 41.872L15.503 41.872 15.503 43.73zM15.503 44.383L15.503 46.556 14.642 46.556 14.642 41.203 16.688 41.203C17.33 41.203 17.839 41.346 18.214 41.632 18.589 41.918 18.777 42.308 18.777 42.801 18.777 43.174 18.663 43.489 18.436 43.746 18.208 44.003 17.896 44.184 17.498 44.289L18.905 46.556 17.924 46.556 16.603 44.383 15.503 44.383z"/>
    <polyline fill="#404040" points="21.249 46.556 21.249 41.872 19.297 41.872 19.297 41.203 24.062 41.203 24.062 41.872 22.11 41.872 22.11 46.556 21.249 46.556"/>
    <path fill="#404040" d="M29.594,45.95 C29.969,45.95 30.303,45.863 30.596,45.687 C30.888,45.511 31.117,45.268 31.282,44.958 C31.446,44.649 31.529,44.289 31.529,43.879 C31.529,43.47 31.446,43.11 31.282,42.801 C31.117,42.491 30.888,42.248 30.596,42.073 C30.303,41.897 29.969,41.809 29.594,41.809 C29.219,41.809 28.887,41.897 28.597,42.073 C28.307,42.248 28.079,42.491 27.915,42.801 C27.75,43.11 27.667,43.47 27.667,43.879 C27.667,44.289 27.75,44.649 27.915,44.958 C28.079,45.268 28.307,45.511 28.597,45.687 C28.887,45.863 29.219,45.95 29.594,45.95 Z M29.594,46.643 C29.048,46.643 28.565,46.525 28.145,46.289 C27.724,46.052 27.393,45.727 27.152,45.312 C26.91,44.898 26.789,44.42 26.789,43.879 C26.789,43.339 26.91,42.862 27.152,42.447 C27.393,42.032 27.724,41.706 28.145,41.47 C28.565,41.234 29.048,41.116 29.594,41.116 C30.14,41.116 30.624,41.234 31.047,41.47 C31.47,41.706 31.803,42.032 32.045,42.447 C32.286,42.862 32.407,43.339 32.407,43.879 C32.407,44.42 32.286,44.898 32.045,45.312 C31.803,45.727 31.47,46.052 31.047,46.289 C30.624,46.525 30.14,46.643 29.594,46.643 Z"/>
    <polyline fill="#404040" points="34.478 46.556 33.617 46.556 33.617 41.203 37.223 41.203 37.223 41.872 34.478 41.872 34.478 43.683 36.806 43.683 36.806 44.352 34.478 44.352 34.478 46.556"/>
    <polyline fill="#404040" points="41.715 46.556 41.715 41.872 39.763 41.872 39.763 41.203 44.529 41.203 44.529 41.872 42.576 41.872 42.576 46.556 41.715 46.556"/>
    <polyline fill="#404040" points="45.517 46.556 45.517 41.203 46.378 41.203 46.378 43.494 49.37 43.494 49.37 41.203 50.232 41.203 50.232 46.556 49.37 46.556 49.37 44.179 46.378 44.179 46.378 46.556 45.517 46.556"/>
    <polyline fill="#404040" points="51.748 46.556 51.748 41.203 55.465 41.203 55.465 41.872 52.609 41.872 52.609 43.525 55.124 43.525 55.124 44.195 52.609 44.195 52.609 45.887 55.533 45.887 55.533 46.556 51.748 46.556"/>
    <path fill="#404040" d="M60.972 45.95C61.444 45.95 61.814 45.819 62.084 45.556 62.354 45.294 62.489 44.94 62.489 44.493L62.489 41.203 63.35 41.203 63.35 44.502C63.35 45.168 63.138 45.692 62.715 46.072 62.292 46.453 61.71 46.643 60.972 46.643 60.233 46.643 59.653 46.453 59.233 46.072 58.812 45.692 58.602 45.168 58.602 44.502L58.602 41.203 59.463 41.203 59.463 44.493C59.463 44.94 59.598 45.294 59.868 45.556 60.138 45.819 60.506 45.95 60.972 45.95M66.564 46.643C66.126 46.643 65.708 46.572 65.31 46.431 64.913 46.289 64.591 46.1 64.347 45.863L64.833 45.336C65.061 45.53 65.329 45.682 65.639 45.793 65.948 45.903 66.257 45.958 66.564 45.958 66.939 45.958 67.241 45.891 67.472 45.757 67.701 45.623 67.816 45.438 67.816 45.202 67.816 44.987 67.734 44.806 67.569 44.659 67.404 44.512 67.123 44.389 66.725 44.289L65.924 44.092C65.407 43.966 65.03 43.788 64.795 43.557 64.559 43.326 64.441 43.024 64.441 42.652 64.441 42.347 64.529 42.079 64.705 41.848 64.882 41.617 65.124 41.438 65.434 41.309 65.744 41.181 66.095 41.116 66.487 41.116 66.902 41.116 67.291 41.188 67.655 41.333 68.018 41.477 68.339 41.678 68.618 41.935L68.098 42.455C67.853 42.245 67.599 42.083 67.335 41.97 67.071 41.858 66.791 41.801 66.495 41.801 66.138 41.801 65.845 41.871 65.617 42.01 65.39 42.149 65.277 42.342 65.277 42.588 65.277 42.814 65.357 42.99 65.519 43.116 65.681 43.242 65.93 43.347 66.265 43.431L67.16 43.659C67.678 43.79 68.055 43.974 68.294 44.21 68.533 44.446 68.652 44.74 68.652 45.092 68.652 45.402 68.564 45.673 68.388 45.907 68.211 46.14 67.967 46.321 67.655 46.45 67.342 46.579 66.978 46.643 66.564 46.643M70.817 44.541L72.931 44.541 71.874 42.029 70.817 44.541zM73.775 46.556L73.213 45.21 70.536 45.21 69.974 46.556 69.104 46.556 71.423 41.203 72.352 41.203 74.662 46.556 73.775 46.556z"/>
    <polyline fill="#404040" points="78.668 46.556 78.668 41.872 76.716 41.872 76.716 41.203 81.481 41.203 81.481 41.872 79.529 41.872 79.529 46.556 78.668 46.556"/>
    <path fill="#404040" d="M84.584 45.95C84.959 45.95 85.293 45.863 85.586 45.687 85.878 45.511 86.107 45.268 86.271 44.958 86.436 44.649 86.519 44.289 86.519 43.879 86.519 43.47 86.436 43.11 86.271 42.801 86.107 42.491 85.878 42.248 85.586 42.073 85.293 41.897 84.959 41.809 84.584 41.809 84.209 41.809 83.877 41.897 83.587 42.073 83.296 42.248 83.069 42.491 82.905 42.801 82.74 43.11 82.658 43.47 82.658 43.879 82.658 44.289 82.74 44.649 82.905 44.958 83.069 45.268 83.296 45.511 83.587 45.687 83.877 45.863 84.209 45.95 84.584 45.95zM84.584 46.643C84.038 46.643 83.555 46.525 83.135 46.289 82.714 46.052 82.383 45.727 82.141 45.312 81.9 44.898 81.779 44.42 81.779 43.879 81.779 43.339 81.9 42.862 82.141 42.447 82.383 42.032 82.714 41.706 83.135 41.47 83.555 41.234 84.038 41.116 84.584 41.116 85.129 41.116 85.614 41.234 86.037 41.47 86.46 41.706 86.793 42.032 87.035 42.447 87.276 42.862 87.397 43.339 87.397 43.879 87.397 44.42 87.276 44.898 87.035 45.312 86.793 45.727 86.46 46.052 86.037 46.289 85.614 46.525 85.129 46.643 84.584 46.643zM89.468 45.887L90.644 45.887C91.054 45.887 91.404 45.804 91.697 45.639 91.99 45.474 92.214 45.242 92.371 44.942 92.527 44.643 92.605 44.289 92.605 43.879 92.605 43.47 92.527 43.116 92.371 42.817 92.214 42.518 91.99 42.285 91.697 42.12 91.404 41.955 91.054 41.872 90.644 41.872L89.468 41.872 89.468 45.887zM88.607 46.556L88.607 41.203 90.644 41.203C91.212 41.203 91.71 41.314 92.136 41.537 92.563 41.761 92.894 42.073 93.129 42.474 93.365 42.876 93.483 43.344 93.483 43.879 93.483 44.415 93.365 44.883 93.129 45.285 92.894 45.687 92.563 45.999 92.136 46.222 91.71 46.445 91.212 46.556 90.644 46.556L88.607 46.556zM95.682 44.541L97.796 44.541 96.739 42.029 95.682 44.541zM98.64 46.556L98.078 45.21 95.401 45.21 94.838 46.556 93.969 46.556 96.287 41.203 97.217 41.203 99.527 46.556 98.64 46.556z"/>
    <polyline fill="#404040" points="102.169 44.431 102.169 46.556 101.309 46.556 101.309 44.431 99.271 41.203 100.286 41.203 101.743 43.675 103.201 41.203 104.198 41.203 102.169 44.431"/>
    <polyline fill="#404040" points="111.086 46.556 107.991 42.455 107.991 46.556 107.181 46.556 107.181 41.203 107.983 41.203 111.086 45.305 111.086 41.203 111.887 41.203 111.887 46.556 111.086 46.556"/>
    <polyline fill="#404040" points="113.404 46.556 113.404 41.203 117.121 41.203 117.121 41.872 114.265 41.872 114.265 43.525 116.78 43.525 116.78 44.195 114.265 44.195 114.265 45.887 117.189 45.887 117.189 46.556 113.404 46.556"/>
    <polyline fill="#404040" points="119.746 46.556 119.746 41.872 117.794 41.872 117.794 41.203 122.559 41.203 122.559 41.872 120.607 41.872 120.607 46.556 119.746 46.556"/>
    <polyline fill="#404040" points="128.185 46.556 126.83 42.289 125.475 46.556 124.579 46.556 123.037 41.203 123.889 41.203 125.065 45.438 126.42 41.203 127.239 41.203 128.603 45.454 129.788 41.203 130.623 41.203 129.08 46.556 128.185 46.556"/>
    <path fill="#404040" d="M134.041 45.95C134.417 45.95 134.75 45.863 135.043 45.687 135.335 45.511 135.564 45.268 135.729 44.958 135.894 44.649 135.976 44.289 135.976 43.879 135.976 43.47 135.894 43.11 135.729 42.801 135.564 42.491 135.335 42.248 135.043 42.073 134.75 41.897 134.417 41.809 134.041 41.809 133.666 41.809 133.334 41.897 133.044 42.073 132.754 42.248 132.527 42.491 132.362 42.801 132.197 43.11 132.115 43.47 132.115 43.879 132.115 44.289 132.197 44.649 132.362 44.958 132.527 45.268 132.754 45.511 133.044 45.687 133.334 45.863 133.666 45.95 134.041 45.95zM134.041 46.643C133.496 46.643 133.013 46.525 132.593 46.289 132.172 46.052 131.841 45.727 131.599 45.312 131.358 44.898 131.237 44.42 131.237 43.879 131.237 43.339 131.358 42.862 131.599 42.447 131.841 42.032 132.172 41.706 132.593 41.47 133.013 41.234 133.496 41.116 134.041 41.116 134.587 41.116 135.072 41.234 135.495 41.47 135.918 41.706 136.251 42.032 136.492 42.447 136.733 42.862 136.855 43.339 136.855 43.879 136.855 44.42 136.733 44.898 136.492 45.312 136.251 45.727 135.918 46.052 135.495 46.289 135.072 46.525 134.587 46.643 134.041 46.643zM138.926 43.73L140.111 43.73C140.48 43.73 140.774 43.646 140.993 43.478 141.211 43.31 141.321 43.085 141.321 42.801 141.321 42.518 141.211 42.292 140.993 42.124 140.774 41.956 140.48 41.872 140.111 41.872L138.926 41.872 138.926 43.73zM138.926 44.383L138.926 46.556 138.065 46.556 138.065 41.203 140.111 41.203C140.753 41.203 141.261 41.346 141.637 41.632 142.012 41.918 142.199 42.308 142.199 42.801 142.199 43.174 142.086 43.489 141.858 43.746 141.631 44.003 141.318 44.184 140.921 44.289L142.327 46.556 141.347 46.556 140.025 44.383 138.926 44.383z"/>
    <polyline fill="#404040" points="146.879 46.556 144.279 43.856 144.279 46.556 143.418 46.556 143.418 41.203 144.279 41.203 144.279 43.549 146.708 41.203 147.774 41.203 145.191 43.659 147.962 46.556 146.879 46.556"/>
  </g>
</svg>
