<svg xmlns="http://www.w3.org/2000/svg" xmlns:xlink="http://www.w3.org/1999/xlink" width="720" height="94" viewBox="0 0 720 94">
  <defs>
    <style>
      .cls-1 {
        filter: url(#filter);
      }

      .cls-2 {
        fill: #f9f9f9;
      }

      .cls-2, .cls-3 {
        fill-rule: evenodd;
      }

      .cls-3 {
        fill: #fff;
        filter: url(#filter-2);
      }
    </style>
    <filter id="filter" filterUnits="userSpaceOnUse">
      <feFlood result="flood" flood-color="#333"/>
      <feComposite result="composite" operator="in" in2="SourceGraphic"/>
      <feBlend result="blend" in2="SourceGraphic"/>
    </filter>
    <filter id="filter-2" x="387" y="79.5" width="331.156" height="14.469" filterUnits="userSpaceOnUse">
      <feFlood result="flood" flood-color="#999"/>
      <feComposite result="composite" operator="in" in2="SourceGraphic"/>
      <feBlend result="blend" in2="SourceGraphic"/>
    </filter>
  </defs>
  <g id="Chillicothe_copy" data-name="Chillicothe copy" class="cls-1">
    <path class="cls-2" d="M-0.009,34.345C-0.009,15,13.978.392,33.43,0.392c7.78,0,14.45,1.953,19.915,5.953v6.232C48.436,7.742,42.229,5.043,33.43,5.043c-16.673,0-28.437,12.558-28.437,29.3s11.764,29.3,28.437,29.3c8.8,0,15.839-2.977,20.749-8.185V61.6A33.41,33.41,0,0,1,33.43,68.3C13.978,68.3-.009,53.7-0.009,34.345ZM63.258,1.694h4.817V27.183H68.26c2.593-3.906,7.04-7.256,14.357-7.256,10.467,0,17.692,6.326,17.692,18.233V67H95.493V39.369c0-10.511-5.095-15.256-13.061-15.256-8.336,0-14.357,5.212-14.357,15.629V67H63.258V1.694ZM110.037,9.51a3.52,3.52,0,1,1,7.039,0A3.52,3.52,0,1,1,110.037,9.51Zm1.111,11.535h4.817V67h-4.817V21.045Zm16.581-19.35h4.817V67h-4.817V1.694Zm16.581,0h4.817V67H144.31V1.694ZM159.78,9.51a3.52,3.52,0,1,1,7.039,0A3.52,3.52,0,1,1,159.78,9.51Zm1.111,11.535h4.817V67h-4.817V21.045ZM173.3,44.114c0-11.722,8.058-24.187,23.712-24.187a23.072,23.072,0,0,1,11.393,2.7v5.024a18.966,18.966,0,0,0-11.485-3.537c-10.93,0-18.8,8.561-18.8,19.908,0,11.162,7.6,19.908,18.989,19.908a18.3,18.3,0,0,0,11.671-3.812v5.021a24.092,24.092,0,0,1-11.856,2.977C181.455,68.113,173.3,55.833,173.3,44.114Zm39.09-.094c0-11.813,8.337-24.093,23.527-24.093s23.528,12.279,23.528,24.093-8.336,24.093-23.528,24.093S212.394,55.833,212.394,44.02Zm42.239,0c0-11.441-7.966-19.908-18.712-19.908S217.21,32.579,217.21,44.02s7.967,19.908,18.711,19.908S254.633,55.464,254.633,44.02ZM267.6,55.648V25.414H260.84v-4.37H267.6V8.577h4.816V21.045h11.949v4.37H272.418V55.182c0,5.4,1.575,8.188,5.744,8.188a11.613,11.613,0,0,0,5.464-1.023V66.9a21.406,21.406,0,0,1-5.928.745C271.029,67.649,267.6,63.555,267.6,55.648ZM290.666,1.694h4.816V27.183h0.185c2.6-3.906,7.04-7.256,14.358-7.256,10.466,0,17.691,6.326,17.691,18.233V67H322.9V39.369c0-10.511-5.1-15.256-13.061-15.256-8.336,0-14.358,5.212-14.358,15.629V67h-4.816V1.694Zm43.723,42.232c0-11.253,6.946-24,22.416-24,15,0,21.858,12,21.858,24.093v0.188h-39.55c0.092,10.323,6.3,19.72,17.784,19.72,7.688,0,13.339-4.185,16.487-10.511l4.076,2.232c-4.168,8.185-12.227,12.464-20.934,12.464C341.985,68.113,334.389,55.742,334.389,43.926Zm39.459-3.813c-1.3-9.581-7.967-16.092-17.136-16.092-9.634,0-15.933,6.977-17.322,16.092h34.458ZM390.8,34.345c0-19.72,14.729-33.953,35.014-33.953,14.542,0,23.713,6.141,28.993,13.582l-10.93,8.652c-3.335-5.86-9.356-10.138-18.063-10.138-11.949,0-20.842,7.813-20.842,21.858s8.893,21.861,20.842,21.861c10.93,0,17.785-6.7,19.082-14.233h-17.97V30.9h32.79v2.977c0,20.465-13.153,34.419-33.9,34.419C405.343,68.3,390.8,54.346,390.8,34.345Zm70.956,9.3c0-13.3,9.355-23.72,23.065-23.72A17.932,17.932,0,0,1,500.2,27.649h0.184v-6.6h12.6V67h-12.6v-6.6H500.2a17.93,17.93,0,0,1-15.376,7.719C467.962,68.113,461.756,54.719,461.756,43.647Zm37.977,0.373c0-6.883-4.353-13.021-12.226-13.021s-12.135,6.045-12.135,13.022c0,7.165,4.725,13.025,12.135,13.025C495.009,57.044,499.733,51.185,499.733,44.02Zm16.4,22.512,23.528-35.442H518.075V21.045H560.5V21.7L537.156,56.95h23.065V67H516.13V66.532ZM562.261,44.02c0-10.7,6.484-24.093,24.546-24.093s24.084,13.4,24.084,23.72A18.1,18.1,0,0,1,610.612,47H575.6c0.648,7.256,6.762,10.7,13.431,10.7,6.113,0,10.1-2.6,12.412-5.86l7.41,7.628c-3.8,5.115-10.745,8.649-20.471,8.649C570.411,68.113,562.261,55.927,562.261,44.02Zm35.661-4.93c-1.3-6.326-5.743-9.393-11.115-9.393S576.9,32.764,575.6,39.09h22.323Zm19.637,14.048V31.089h-6.2V21.045h6.2V8.577h13.432V21.045h9.541V31.089h-9.541V51.554c0,4.373,1.852,5.769,4.909,5.769a16,16,0,0,0,4.353-.557V67.089a32.905,32.905,0,0,1-7.78.839C621.728,67.928,617.559,62.9,617.559,53.138Zm29.365,0V31.089h-6.2V21.045h6.2V8.577h13.432V21.045H669.9V31.089h-9.541V51.554c0,4.373,1.852,5.769,4.909,5.769a16,16,0,0,0,4.353-.557V67.089a32.892,32.892,0,0,1-7.78.839C651.093,67.928,646.924,62.9,646.924,53.138Zm24.455-9.118c0-10.7,6.484-24.093,24.546-24.093s24.084,13.4,24.084,23.72A18.1,18.1,0,0,1,719.73,47H684.717c0.649,7.256,6.762,10.7,13.431,10.7,6.113,0,10.1-2.6,12.412-5.86l7.41,7.628c-3.8,5.115-10.745,8.649-20.471,8.649C679.531,68.113,671.379,55.927,671.379,44.02Zm35.661-4.93c-1.3-6.326-5.743-9.393-11.115-9.393s-9.911,3.067-11.208,9.394H707.04Z"/>
    <path id="USAT_Network" data-name="USAT Network" class="cls-3" d="M386.99,79.785h4.04c2.841,0,4.741,1.686,4.741,4.285s-1.94,4.281-4.741,4.281h-2.061V93.7H386.99V79.785Zm3.84,6.923c1.9,0,2.92-1.051,2.92-2.638,0-1.569-1.019-2.638-2.92-2.638h-1.861v5.276h1.861Zm10.591-6.923h1.761l5.76,13.92H406.82l-1.438-3.646h-6.22l-1.44,3.646h-2.081S400.72,81.493,401.421,79.785Zm3.3,8.627-1.339-3.429c-0.2-.517-1.061-2.66-1.081-2.838h-0.039c-0.02.178-.859,2.26-1.081,2.838l-1.358,3.429h4.9Zm6.231-8.627h4.06c2.619,0,4.66,1.352,4.66,4.124a3.874,3.874,0,0,1-3.56,3.928l4.3,5.867h-2.321l-4.06-5.672h-1.1V93.7h-1.98V79.785Zm3.841,6.645c1.839,0,2.88-.974,2.88-2.5s-1.041-2.5-2.88-2.5h-1.861v5h1.861Zm10.37-4.959h-4V79.785h9.979v1.686h-4V93.7h-1.979V81.471Zm11.113,5.276a7.381,7.381,0,1,1,7.379,7.236A7.09,7.09,0,0,1,436.275,86.747Zm12.719,0a5.352,5.352,0,1,0-5.359,5.471A5.206,5.206,0,0,0,448.994,86.747Zm4.89-6.962h7.08v1.686h-5.1v4.481h4.94v1.686h-4.94V93.7h-1.979V79.785Zm16.033,1.686h-4V79.785h9.98v1.686h-4V93.7h-1.98V81.471Zm8.058-1.686h1.979V85.5h7.36v-5.71H489.3V93.7h-1.982V87.181h-7.36V93.7h-1.979V79.785Zm14.968,0h7.641v1.669h-5.662V85.5h5.5v1.669h-5.5V92.04h5.78V93.7h-7.759V79.785Zm14.4,9.122V79.785h2v8.526c0,2.421,1.041,3.907,3.38,3.907,2.36,0,3.4-1.486,3.4-3.907V79.785h2v9.122c0,3.055-1.979,5.076-5.4,5.076C509.279,93.983,507.339,91.962,507.339,88.907Zm12.846,2.282,1.342-1.13a4.068,4.068,0,0,0,3.52,2.2c1.539,0,2.74-.83,2.74-2.36,0-1.643-1.381-2.2-3.1-2.873-1.76-.7-3.54-1.569-3.54-3.79,0-2.2,1.72-3.724,4.241-3.724a4.718,4.718,0,0,1,4.121,2.1l-1.342,1.13a3.194,3.194,0,0,0-2.779-1.508c-1.361,0-2.26.7-2.26,1.865,0,1.447,1.4,1.925,2.619,2.4,1.98,0.774,4.02,1.708,4.02,4.263,0,2.421-1.8,4.225-4.679,4.225A5.456,5.456,0,0,1,520.185,91.188Zm16.418-11.4h1.76l5.76,13.92H542l-1.437-3.646h-6.221L532.9,93.7h-2.08S535.9,81.493,536.6,79.785Zm3.3,8.627-1.339-3.429c-0.2-.517-1.061-2.66-1.08-2.838h-0.04c-0.019.178-.859,2.26-1.081,2.838L535,88.412h4.9Zm12.58-6.94h-4V79.785h9.979v1.686h-4V93.7h-1.979V81.471Zm6.722,5.276a7.381,7.381,0,1,1,7.38,7.236A7.09,7.09,0,0,1,559.2,86.747Zm12.719,0a5.351,5.351,0,1,0-5.359,5.471A5.206,5.206,0,0,0,571.922,86.747Zm4.891-6.962h3.98c4.48,0,7.439,2.538,7.439,6.962,0,4.4-2.981,6.958-7.439,6.958h-3.98V79.785Zm1.979,12.233h1.841c3.279,0,5.558-1.721,5.558-5.271s-2.279-5.276-5.558-5.276h-1.841V92.018Zm15.873-12.233h1.76l5.76,13.92h-2.121l-1.438-3.646h-6.221l-1.44,3.646h-2.08S593.964,81.493,594.665,79.785Zm3.3,8.627-1.339-3.429c-0.2-.517-1.061-2.66-1.081-2.838h-0.039c-0.02.178-.859,2.26-1.081,2.838l-1.359,3.429h4.9Zm8.176-.378-4.781-8.248h2.221l2.6,4.642a20.5,20.5,0,0,1,1,1.982H607.2a21.232,21.232,0,0,1,1-1.982l2.62-4.642h2.158L608.2,88.033V93.7h-2.06V88.033ZM618.8,79.785h1.519l7.96,9.022c0.24,0.261,1.28,1.547,1.381,1.747l0.04-.021c-0.04-.2-0.04-1.8-0.04-2.16V79.785h1.92V93.7h-1.541l-7.96-9.022c-0.239-.256-1.28-1.547-1.379-1.743l-0.02.017c0.02,0.2.04,1.808,0.04,2.164V93.7H618.8V79.785Zm16.428,0h7.638v1.669H637.2V85.5h5.5v1.669h-5.5V92.04h5.78V93.7h-7.759V79.785Zm13.832,1.686h-4V79.785h9.98v1.686h-4V93.7h-1.98V81.471Zm7.63-1.686h2.1l2.88,8.27c0.1,0.317.781,2.377,0.8,2.695h0.042a27.823,27.823,0,0,1,.839-2.695l3-8.27h1.58l3,8.27c0.12,0.317.82,2.377,0.842,2.695h0.039c0.04-.317.719-2.377,0.82-2.695l2.86-8.27h2.019L672.566,93.7h-1.519l-3.239-8.683a23.042,23.042,0,0,1-.682-2.26h-0.039a23.429,23.429,0,0,1-.7,2.26l-3.22,8.683h-1.521Zm21.707,6.962a7.381,7.381,0,1,1,7.379,7.236A7.09,7.09,0,0,1,678.393,86.747Zm12.719,0a5.352,5.352,0,1,0-5.359,5.471A5.206,5.206,0,0,0,691.112,86.747ZM696,79.785h4.059c2.622,0,4.66,1.352,4.66,4.124a3.874,3.874,0,0,1-3.56,3.928l4.3,5.867h-2.321l-4.059-5.672h-1.1V93.7H696V79.785Zm3.84,6.645c1.839,0,2.88-.974,2.88-2.5s-1.041-2.5-2.88-2.5h-1.861v5h1.861Zm7.862-6.645h1.98v6.467l5.8-6.467h2.4l-6.019,6.645,6.3,7.275h-2.479l-6-7.036V93.7H707.7V79.785Z"/>
  </g>
</svg>
