<svg xmlns="http://www.w3.org/2000/svg" width="326" height="47" viewBox="0 0 326 47">
  <g fill="none" fill-rule="evenodd">
    <path fill="#404040" d="M3.485 43.58L4.642 43.58C5.022 43.58 5.323 43.486 5.544 43.299 5.765 43.112 5.876 42.857 5.876 42.534 5.876 42.21 5.765 41.955 5.544 41.768 5.323 41.581 5.022 41.488 4.642 41.488L3.485 41.488 3.485 43.58zM2.626 46.549L2.626 40.764 4.642 40.764C5.289 40.764 5.802 40.923 6.182 41.241 6.562 41.559 6.752 41.99 6.752 42.534 6.752 43.073 6.562 43.499 6.182 43.814 5.802 44.129 5.289 44.286 4.642 44.286L3.485 44.286 3.485 46.549 2.626 46.549zM8.487 44.371L10.597 44.371 9.542 41.658 8.487 44.371zM11.439 46.549L10.878 45.094 8.207 45.094 7.645 46.549 6.777 46.549 9.091 40.764 10.019 40.764 12.324 46.549 11.439 46.549zM14.145 43.495L15.327 43.495C15.696 43.495 15.989 43.405 16.208 43.223 16.426 43.042 16.535 42.797 16.535 42.491 16.535 42.185 16.426 41.941 16.208 41.759 15.989 41.578 15.696 41.488 15.327 41.488L14.145 41.488 14.145 43.495zM14.145 44.201L14.145 46.549 13.285 46.549 13.285 40.764 15.327 40.764C15.968 40.764 16.476 40.919 16.85 41.228 17.224 41.537 17.411 41.958 17.411 42.491 17.411 42.894 17.298 43.235 17.071 43.512 16.844 43.79 16.532 43.986 16.135 44.099L17.539 46.549 16.561 46.549 15.242 44.201 14.145 44.201z"/>
    <polyline fill="#404040" points="19.878 46.549 19.878 41.488 17.93 41.488 17.93 40.764 22.686 40.764 22.686 41.488 20.738 41.488 20.738 46.549 19.878 46.549"/>
    <path fill="#404040" d="M28.207,45.894 C28.581,45.894 28.914,45.799 29.206,45.609 C29.498,45.419 29.727,45.157 29.891,44.822 C30.055,44.488 30.138,44.099 30.138,43.657 C30.138,43.214 30.055,42.826 29.891,42.491 C29.727,42.157 29.498,41.894 29.206,41.704 C28.914,41.514 28.581,41.419 28.207,41.419 C27.832,41.419 27.501,41.514 27.212,41.704 C26.922,41.894 26.695,42.157 26.531,42.491 C26.366,42.826 26.284,43.214 26.284,43.657 C26.284,44.099 26.366,44.488 26.531,44.822 C26.695,45.157 26.922,45.419 27.212,45.609 C27.501,45.799 27.832,45.894 28.207,45.894 Z M28.207,46.643 C27.662,46.643 27.18,46.515 26.76,46.26 C26.341,46.005 26.011,45.653 25.769,45.205 C25.528,44.757 25.408,44.241 25.408,43.657 C25.408,43.073 25.528,42.556 25.769,42.109 C26.011,41.66 26.341,41.308 26.76,41.054 C27.18,40.798 27.662,40.671 28.207,40.671 C28.751,40.671 29.235,40.798 29.657,41.054 C30.08,41.308 30.411,41.66 30.653,42.109 C30.894,42.556 31.014,43.073 31.014,43.657 C31.014,44.241 30.894,44.757 30.653,45.205 C30.411,45.653 30.08,46.005 29.657,46.26 C29.235,46.515 28.751,46.643 28.207,46.643 Z"/>
    <polyline fill="#404040" points="33.081 46.549 32.222 46.549 32.222 40.764 35.821 40.764 35.821 41.488 33.081 41.488 33.081 43.444 35.404 43.444 35.404 44.167 33.081 44.167 33.081 46.549"/>
    <polyline fill="#404040" points="40.304 46.549 40.304 41.488 38.356 41.488 38.356 40.764 43.111 40.764 43.111 41.488 41.163 41.488 41.163 46.549 40.304 46.549"/>
    <polyline fill="#404040" points="44.098 46.549 44.098 40.764 44.957 40.764 44.957 43.24 47.943 43.24 47.943 40.764 48.802 40.764 48.802 46.549 47.943 46.549 47.943 43.98 44.957 43.98 44.957 46.549 44.098 46.549"/>
    <polyline fill="#404040" points="50.316 46.549 50.316 40.764 54.026 40.764 54.026 41.488 51.176 41.488 51.176 43.274 53.685 43.274 53.685 43.997 51.176 43.997 51.176 45.826 54.094 45.826 54.094 46.549 50.316 46.549"/>
    <path fill="#404040" d="M59.521 45.894C59.992 45.894 60.362 45.753 60.631 45.469 60.901 45.185 61.035 44.802 61.035 44.32L61.035 40.764 61.895 40.764 61.895 44.329C61.895 45.049 61.683 45.615 61.261 46.026 60.838 46.437 60.258 46.643 59.521 46.643 58.784 46.643 58.205 46.437 57.786 46.026 57.366 45.615 57.156 45.049 57.156 44.329L57.156 40.764 58.015 40.764 58.015 44.32C58.015 44.802 58.15 45.185 58.419 45.469 58.689 45.753 59.056 45.894 59.521 45.894M65.102 46.643C64.665 46.643 64.248 46.566 63.851 46.413 63.454 46.26 63.134 46.056 62.89 45.801L63.375 45.23C63.602 45.441 63.869 45.605 64.179 45.724 64.488 45.843 64.796 45.902 65.102 45.902 65.476 45.902 65.778 45.83 66.008 45.686 66.237 45.541 66.352 45.341 66.352 45.086 66.352 44.853 66.27 44.658 66.105 44.499 65.941 44.34 65.66 44.207 65.263 44.099L64.464 43.886C63.947 43.75 63.572 43.557 63.336 43.308 63.101 43.058 62.984 42.732 62.984 42.33 62.984 42.001 63.071 41.711 63.247 41.462 63.423 41.212 63.665 41.018 63.974 40.879 64.283 40.74 64.634 40.671 65.025 40.671 65.439 40.671 65.828 40.749 66.19 40.905 66.554 41.061 66.874 41.278 67.152 41.556L66.633 42.117C66.389 41.89 66.135 41.716 65.872 41.594 65.608 41.472 65.329 41.411 65.034 41.411 64.676 41.411 64.384 41.486 64.158 41.636 63.931 41.787 63.817 41.995 63.817 42.261 63.817 42.505 63.898 42.695 64.06 42.832 64.221 42.968 64.469 43.081 64.804 43.172L65.697 43.419C66.213 43.56 66.591 43.759 66.829 44.014 67.067 44.269 67.186 44.587 67.186 44.967 67.186 45.302 67.098 45.595 66.922 45.847 66.746 46.1 66.502 46.295 66.19 46.434 65.879 46.573 65.516 46.643 65.102 46.643M69.347 44.371L71.457 44.371 70.402 41.658 69.347 44.371zM72.299 46.549L71.737 45.094 69.066 45.094 68.505 46.549 67.637 46.549 69.951 40.764 70.878 40.764 73.184 46.549 72.299 46.549z"/>
    <polyline fill="#404040" points="77.182 46.549 77.182 41.488 75.234 41.488 75.234 40.764 79.989 40.764 79.989 41.488 78.041 41.488 78.041 46.549 77.182 46.549"/>
    <path fill="#404040" d="M83.086 45.894C83.46 45.894 83.793 45.799 84.085 45.609 84.377 45.419 84.606 45.157 84.77 44.822 84.935 44.488 85.017 44.099 85.017 43.657 85.017 43.214 84.935 42.826 84.77 42.491 84.606 42.157 84.377 41.894 84.085 41.704 83.793 41.514 83.46 41.419 83.086 41.419 82.712 41.419 82.38 41.514 82.091 41.704 81.801 41.894 81.574 42.157 81.41 42.491 81.245 42.826 81.163 43.214 81.163 43.657 81.163 44.099 81.245 44.488 81.41 44.822 81.574 45.157 81.801 45.419 82.091 45.609 82.38 45.799 82.712 45.894 83.086 45.894zM83.086 46.643C82.541 46.643 82.059 46.515 81.639 46.26 81.22 46.005 80.89 45.653 80.648 45.205 80.407 44.757 80.287 44.241 80.287 43.657 80.287 43.073 80.407 42.556 80.648 42.109 80.89 41.66 81.22 41.308 81.639 41.054 82.059 40.798 82.541 40.671 83.086 40.671 83.63 40.671 84.114 40.798 84.536 41.054 84.959 41.308 85.29 41.66 85.532 42.109 85.772 42.556 85.893 43.073 85.893 43.657 85.893 44.241 85.772 44.757 85.532 45.205 85.29 45.653 84.959 46.005 84.536 46.26 84.114 46.515 83.63 46.643 83.086 46.643zM87.96 45.826L89.134 45.826C89.542 45.826 89.893 45.737 90.185 45.558 90.477 45.38 90.701 45.129 90.857 44.805 91.013 44.482 91.091 44.099 91.091 43.657 91.091 43.214 91.013 42.832 90.857 42.508 90.701 42.185 90.477 41.934 90.185 41.755 89.893 41.577 89.542 41.488 89.134 41.488L87.96 41.488 87.96 45.826zM87.101 46.549L87.101 40.764 89.134 40.764C89.701 40.764 90.198 40.885 90.623 41.126 91.048 41.367 91.379 41.704 91.614 42.138 91.849 42.572 91.967 43.078 91.967 43.657 91.967 44.235 91.849 44.741 91.614 45.175 91.379 45.609 91.048 45.947 90.623 46.188 90.198 46.429 89.701 46.549 89.134 46.549L87.101 46.549zM94.162 44.371L96.272 44.371 95.217 41.658 94.162 44.371zM97.114 46.549L96.552 45.094 93.881 45.094 93.32 46.549 92.452 46.549 94.766 40.764 95.693 40.764 97.999 46.549 97.114 46.549z"/>
    <polyline fill="#404040" points="100.636 44.252 100.636 46.549 99.777 46.549 99.777 44.252 97.743 40.764 98.756 40.764 100.211 43.435 101.665 40.764 102.661 40.764 100.636 44.252"/>
    <polyline fill="#404040" points="109.534 46.549 106.446 42.117 106.446 46.549 105.638 46.549 105.638 40.764 106.438 40.764 109.534 45.197 109.534 40.764 110.334 40.764 110.334 46.549 109.534 46.549"/>
    <polyline fill="#404040" points="111.848 46.549 111.848 40.764 115.557 40.764 115.557 41.488 112.707 41.488 112.707 43.274 115.217 43.274 115.217 43.997 112.707 43.997 112.707 45.826 115.625 45.826 115.625 46.549 111.848 46.549"/>
    <polyline fill="#404040" points="118.177 46.549 118.177 41.488 116.229 41.488 116.229 40.764 120.985 40.764 120.985 41.488 119.037 41.488 119.037 46.549 118.177 46.549"/>
    <polyline fill="#404040" points="126.599 46.549 125.247 41.938 123.894 46.549 123.001 46.549 121.461 40.764 122.312 40.764 123.486 45.341 124.839 40.764 125.655 40.764 127.016 45.358 128.199 40.764 129.032 40.764 127.493 46.549 126.599 46.549"/>
    <path fill="#404040" d="M132.444 45.894C132.818 45.894 133.151 45.799 133.444 45.609 133.736 45.419 133.964 45.157 134.128 44.822 134.293 44.488 134.375 44.099 134.375 43.657 134.375 43.214 134.293 42.826 134.128 42.491 133.964 42.157 133.736 41.894 133.444 41.704 133.151 41.514 132.818 41.419 132.444 41.419 132.07 41.419 131.738 41.514 131.449 41.704 131.159 41.894 130.932 42.157 130.768 42.491 130.604 42.826 130.521 43.214 130.521 43.657 130.521 44.099 130.604 44.488 130.768 44.822 130.932 45.157 131.159 45.419 131.449 45.609 131.738 45.799 132.07 45.894 132.444 45.894zM132.444 46.643C131.9 46.643 131.418 46.515 130.998 46.26 130.578 46.005 130.248 45.653 130.007 45.205 129.766 44.757 129.645 44.241 129.645 43.657 129.645 43.073 129.766 42.556 130.007 42.109 130.248 41.66 130.578 41.308 130.998 41.054 131.418 40.798 131.9 40.671 132.444 40.671 132.989 40.671 133.472 40.798 133.894 41.054 134.317 41.308 134.649 41.66 134.89 42.109 135.131 42.556 135.251 43.073 135.251 43.657 135.251 44.241 135.131 44.757 134.89 45.205 134.649 45.653 134.317 46.005 133.894 46.26 133.472 46.515 132.989 46.643 132.444 46.643zM137.319 43.495L138.501 43.495C138.869 43.495 139.163 43.405 139.381 43.223 139.6 43.042 139.709 42.797 139.709 42.491 139.709 42.185 139.6 41.941 139.381 41.759 139.163 41.578 138.869 41.488 138.501 41.488L137.319 41.488 137.319 43.495zM137.319 44.201L137.319 46.549 136.459 46.549 136.459 40.764 138.501 40.764C139.142 40.764 139.649 40.919 140.024 41.228 140.398 41.537 140.585 41.958 140.585 42.491 140.585 42.894 140.472 43.235 140.245 43.512 140.018 43.79 139.706 43.986 139.309 44.099L140.713 46.549 139.734 46.549 138.416 44.201 137.319 44.201z"/>
    <polyline fill="#404040" points="145.256 46.549 142.661 43.631 142.661 46.549 141.802 46.549 141.802 40.764 142.661 40.764 142.661 43.299 145.085 40.764 146.149 40.764 143.571 43.419 146.336 46.549 145.256 46.549"/>
    <path fill="#404040" d="M16.146 34.879C13.026 34.879 10.288 34.204 7.934 32.854 5.578 31.503 3.733 29.636 2.399 27.252 1.064 24.866.396 22.099.396 18.949.396 15.799 1.064 13.039 2.399 10.669 3.733 8.299 5.578 6.447 7.934 5.111 10.288 3.777 13.026 3.109 16.146 3.109 18.786 3.109 21.164 3.642 23.279 4.707 25.394 5.772 27.201 7.309 28.701 9.319L22.086 13.234C21.306 12.244 20.428 11.464 19.454 10.894 18.478 10.324 17.346 10.039 16.056 10.039 13.926 10.039 12.201 10.841 10.881 12.446 9.561 14.051 8.901 16.219 8.901 18.949 8.901 21.679 9.561 23.861 10.881 25.496 12.201 27.131 13.926 27.949 16.056 27.949 17.376 27.949 18.546 27.627 19.566 26.981 20.586 26.337 21.441 25.579 22.131 24.709L28.701 28.624C27.231 30.664 25.423 32.216 23.279 33.281 21.133 34.346 18.756 34.879 16.146 34.879M53.496 21.649L53.496 34.294 45.666 34.294 45.666 11.389 52.821 11.389 53.226 14.404C53.975 13.324 54.951 12.454 56.151 11.794 57.35 11.134 58.671 10.804 60.111 10.804 62.6 10.804 64.595 11.614 66.096 13.234 67.596 14.854 68.346 17.179 68.346 20.209L68.346 34.294 60.516 34.294 60.516 21.109C60.516 19.759 60.215 18.762 59.616 18.116 59.015 17.471 58.176 17.149 57.096 17.149 56.016 17.149 55.145 17.494 54.486 18.184 53.826 18.875 53.496 20.029 53.496 21.649M84.14 34.879C81.8 34.879 79.723 34.376 77.908 33.371 76.092 32.367 74.66 30.964 73.61 29.164 72.56 27.364 72.035 25.264 72.035 22.864 72.035 20.464 72.56 18.364 73.61 16.564 74.66 14.764 76.092 13.362 77.908 12.356 79.723 11.351 81.8 10.849 84.14 10.849 86.21 10.849 88.025 11.231 89.585 11.996 91.145 12.761 92.525 13.984 93.725 15.664L88.55 19.444C88.13 18.814 87.583 18.297 86.908 17.891 86.233 17.486 85.505 17.284 84.725 17.284 83.375 17.284 82.25 17.787 81.35 18.792 80.45 19.797 80 21.154 80 22.864 80 24.574 80.45 25.931 81.35 26.936 82.25 27.942 83.375 28.444 84.725 28.444 85.505 28.444 86.233 28.241 86.908 27.837 87.583 27.431 88.13 26.914 88.55 26.284L93.725 30.064C92.525 31.744 91.145 32.966 89.585 33.731 88.025 34.496 86.21 34.879 84.14 34.879M97.235 34.294L97.235 11.389C98.495 11.659 99.77 11.794 101.06 11.794 102.38 11.794 103.715 11.659 105.065 11.389L105.065 34.294 97.235 34.294zM101.06 9.589C99.77 9.589 98.667 9.132 97.752 8.216 96.837 7.301 96.38 6.199 96.38 4.909 96.38 3.619 96.837 2.517 97.752 1.601 98.667.687 99.77.229 101.06.229 102.349.229 103.452.687 104.367 1.601 105.282 2.517 105.74 3.619 105.74 4.909 105.74 6.199 105.282 7.301 104.367 8.216 103.452 9.132 102.349 9.589 101.06 9.589zM118.384 21.649L118.384 34.294 110.555 34.294 110.555 11.389 117.709 11.389 118.114 14.404C118.864 13.324 119.839 12.454 121.039 11.794 122.239 11.134 123.559 10.804 124.999 10.804 127.489 10.804 129.484 11.614 130.984 13.234 132.484 14.854 133.234 17.179 133.234 20.209L133.234 34.294 125.404 34.294 125.404 21.109C125.404 19.759 125.104 18.762 124.505 18.116 123.904 17.471 123.064 17.149 121.984 17.149 120.904 17.149 120.034 17.494 119.374 18.184 118.714 18.875 118.384 20.029 118.384 21.649M146.149 21.649L146.149 34.294 138.319 34.294 138.319 11.389 145.474 11.389 145.879 14.404C146.628 13.324 147.604 12.454 148.804 11.794 150.003 11.134 151.324 10.804 152.764 10.804 155.254 10.804 157.248 11.614 158.749 13.234 160.249 14.854 160.999 17.179 160.999 20.209L160.999 34.294 153.169 34.294 153.169 21.109C153.169 19.759 152.869 18.762 152.269 18.116 151.668 17.471 150.829 17.149 149.749 17.149 148.669 17.149 147.798 17.494 147.139 18.184 146.479 18.875 146.149 20.029 146.149 21.649M172.248 26.869C172.248 27.559 172.503 28.122 173.014 28.556 173.523 28.992 174.183 29.209 174.994 29.209 176.074 29.209 176.981 28.841 177.716 28.106 178.451 27.372 178.818 26.449 178.818 25.339L178.818 24.574C178.008 24.424 177.153 24.349 176.254 24.349 175.113 24.349 174.161 24.545 173.396 24.934 172.631 25.324 172.248 25.969 172.248 26.869zM179.133 34.294L178.728 31.279C177.228 33.679 174.949 34.879 171.889 34.879 170.538 34.879 169.316 34.587 168.221 34.002 167.126 33.417 166.256 32.614 165.611 31.594 164.965 30.574 164.643 29.389 164.643 28.039 164.643 25.489 165.64 23.509 167.636 22.099 169.631 20.689 172.263 19.984 175.534 19.984 176.553 19.984 177.633 20.074 178.774 20.253 178.653 19.114 178.166 18.252 177.311 17.667 176.456 17.082 175.413 16.789 174.183 16.789 173.103 16.789 172.016 16.991 170.921 17.396 169.826 17.801 168.784 18.289 167.794 18.859L165.139 13.819C166.638 12.859 168.258 12.117 169.998 11.591 171.738 11.067 173.478 10.804 175.218 10.804 177.318 10.804 179.208 11.164 180.889 11.884 182.568 12.604 183.888 13.699 184.848 15.169 185.808 16.639 186.288 18.499 186.288 20.749L186.288 34.294 179.133 34.294zM208.158 32.809C207.228 33.439 206.163 33.942 204.963 34.316 203.763 34.691 202.503 34.879 201.183 34.879 198.723 34.879 196.765 34.167 195.311 32.741 193.855 31.317 193.128 29.404 193.128 27.003L193.128 17.239 189.393 17.239 189.393 11.389 193.488 11.389 194.478 4.999 200.958 4.999 200.958 11.389 206.943 11.389 206.943 17.239 200.958 17.239 200.958 26.014C200.958 26.795 201.19 27.402 201.656 27.837 202.12 28.272 202.743 28.489 203.523 28.489 203.913 28.489 204.311 28.414 204.716 28.264 205.121 28.114 205.503 27.934 205.863 27.724L208.158 32.809M211.893 34.294L211.893 11.389C213.153 11.659 214.428 11.794 215.718 11.794 217.038 11.794 218.373 11.659 219.723 11.389L219.723 34.294 211.893 34.294zM215.718 9.589C214.428 9.589 213.325 9.132 212.411 8.216 211.495 7.301 211.038 6.199 211.038 4.909 211.038 3.619 211.495 2.517 212.411 1.601 213.325.687 214.428.229 215.718.229 217.008.229 218.11.687 219.025 1.601 219.94 2.517 220.398 3.619 220.398 4.909 220.398 6.199 219.94 7.301 219.025 8.216 218.11 9.132 217.008 9.589 215.718 9.589zM229.217 34.789C228.257 34.789 227.379 34.556 226.585 34.091 225.79 33.627 225.16 32.997 224.695 32.201 224.229 31.407 223.997 30.529 223.997 29.569 223.997 28.609 224.229 27.732 224.695 26.936 225.16 26.142 225.79 25.512 226.585 25.047 227.379 24.582 228.257 24.349 229.217 24.349 230.177 24.349 231.055 24.582 231.85 25.047 232.644 25.512 233.275 26.142 233.74 26.936 234.205 27.732 234.437 28.609 234.437 29.569 234.437 30.529 234.205 31.407 233.74 32.201 233.275 32.997 232.644 33.627 231.85 34.091 231.055 34.556 230.177 34.789 229.217 34.789M248.747 34.879C246.407 34.879 244.329 34.376 242.514 33.371 240.699 32.367 239.267 30.964 238.217 29.164 237.166 27.364 236.642 25.264 236.642 22.864 236.642 20.464 237.166 18.364 238.217 16.564 239.267 14.764 240.699 13.362 242.514 12.356 244.329 11.351 246.407 10.849 248.747 10.849 250.817 10.849 252.632 11.231 254.192 11.996 255.751 12.761 257.132 13.984 258.332 15.664L253.157 19.444C252.736 18.814 252.189 18.297 251.514 17.891 250.839 17.486 250.112 17.284 249.332 17.284 247.982 17.284 246.857 17.787 245.957 18.792 245.057 19.797 244.607 21.154 244.607 22.864 244.607 24.574 245.057 25.931 245.957 26.936 246.857 27.942 247.982 28.444 249.332 28.444 250.112 28.444 250.839 28.241 251.514 27.837 252.189 27.431 252.736 26.914 253.157 26.284L258.332 30.064C257.132 31.744 255.751 32.966 254.192 33.731 252.632 34.496 250.817 34.879 248.747 34.879M272.957 28.669C274.336 28.669 275.439 28.136 276.264 27.071 277.088 26.006 277.502 24.59 277.502 22.819 277.502 21.049 277.088 19.639 276.264 18.589 275.439 17.539 274.336 17.014 272.957 17.014 271.576 17.014 270.474 17.539 269.649 18.589 268.823 19.639 268.411 21.049 268.411 22.819 268.411 24.59 268.823 26.006 269.649 27.071 270.474 28.136 271.576 28.669 272.957 28.669zM272.957 34.879C270.496 34.879 268.328 34.361 266.454 33.326 264.579 32.292 263.108 30.874 262.044 29.074 260.979 27.274 260.446 25.189 260.446 22.819 260.446 20.449 260.979 18.364 262.044 16.564 263.108 14.764 264.579 13.354 266.454 12.334 268.328 11.314 270.496 10.804 272.957 10.804 275.416 10.804 277.584 11.314 279.459 12.334 281.334 13.354 282.804 14.764 283.869 16.564 284.933 18.364 285.466 20.449 285.466 22.819 285.466 25.189 284.933 27.274 283.869 29.074 282.804 30.874 281.334 32.292 279.459 33.326 277.584 34.361 275.416 34.879 272.957 34.879zM297.391 21.109L297.391 34.294 289.562 34.294 289.562 11.389 296.761 11.389 297.167 14.314C297.856 13.204 298.756 12.364 299.866 11.794 300.976 11.224 302.161 10.939 303.421 10.939 304.772 10.939 306.001 11.239 307.111 11.839 308.221 12.439 309.121 13.279 309.812 14.359 310.621 13.25 311.679 12.401 312.984 11.816 314.289 11.231 315.661 10.939 317.101 10.939 318.691 10.939 320.094 11.306 321.309 12.042 322.524 12.777 323.476 13.797 324.167 15.101 324.856 16.406 325.201 17.914 325.201 19.624L325.201 34.294 317.371 34.294 317.371 20.434C317.371 19.474 317.108 18.709 316.584 18.139 316.059 17.569 315.391 17.284 314.581 17.284 313.591 17.284 312.796 17.599 312.196 18.229 311.596 18.859 311.296 19.819 311.296 21.109L311.296 34.294 303.466 34.294 303.466 20.434C303.466 19.474 303.211 18.709 302.701 18.139 302.191 17.569 301.501 17.284 300.631 17.284 299.671 17.284 298.891 17.599 298.292 18.229 297.691 18.859 297.391 19.819 297.391 21.109"/>
    <path fill="#009BFF" class='no-color-change' d="M36.171,9.589 C34.881,9.589 33.778,9.132 32.864,8.216 C31.948,7.301 31.491,6.199 31.491,4.909 C31.491,3.619 31.948,2.517 32.864,1.601 C33.778,0.687 34.881,0.229 36.171,0.229 C37.461,0.229 38.563,0.687 39.479,1.601 C40.393,2.517 40.851,3.619 40.851,4.909 C40.851,6.199 40.393,7.301 39.479,8.216 C38.563,9.132 37.461,9.589 36.171,9.589"/>
    <path fill="#404040" d="M32.346,34.294 L32.346,11.389 C33.606,11.659 34.881,11.794 36.171,11.794 C37.491,11.794 38.826,11.659 40.176,11.389 L40.176,34.294 L32.346,34.294"/>
  </g>
</svg>
