<svg height="48" viewBox="0 0 314 48" width="314" xmlns="http://www.w3.org/2000/svg">
  <g fill="none" fill-rule="evenodd">
    <g fill="#404040"><path
      d="m1.193 44.546h1.171c.384 0 .688-.094.912-.283.223-.19.335-.448.335-.775s-.112-.585-.335-.774c-.224-.19-.528-.284-.912-.284h-1.171zm-.869 3.004v-5.852h2.04c.653 0 1.173.161 1.557.482.384.322.577.757.577 1.308 0 .545-.193.977-.577 1.295s-.904.478-1.557.478h-1.171v2.289zm5.929-2.203h2.134l-1.067-2.745zm2.986 2.203-.568-1.472h-2.702l-.568 1.472h-.878l2.341-5.852h.938l2.332 5.852zm2.737-3.09h1.196c.373 0 .67-.091.891-.275.22-.184.331-.43.331-.74s-.111-.556-.331-.74c-.221-.184-.518-.275-.891-.275h-1.196zm0 .714v2.376h-.869v-5.852h2.065c.648 0 1.161.156 1.54.469s.568.739.568 1.278c0 .407-.115.752-.344 1.032-.23.282-.545.48-.947.594l1.42 2.479h-.989l-1.334-2.376z"/><path d="m17.776 47.55v-5.12h-1.971v-.732h4.81v.732h-1.97v5.12z"/><path
      d="m26.2 46.887c.378 0 .715-.096 1.011-.288.295-.192.526-.458.693-.796.166-.338.249-.732.249-1.179 0-.448-.083-.84-.249-1.179-.167-.339-.398-.604-.693-.796-.296-.192-.633-.289-1.011-.289-.379 0-.715.097-1.007.289s-.522.457-.688.796c-.167.339-.25.731-.25 1.179 0 .447.083.841.25 1.179.166.338.396.604.688.796s.628.288 1.007.288zm0 .757c-.551 0-1.039-.129-1.463-.387-.425-.258-.759-.613-1.003-1.067-.243-.453-.365-.975-.365-1.566s.122-1.113.365-1.566c.244-.453.578-.809 1.003-1.067.424-.259.912-.388 1.463-.388.55 0 1.04.129 1.467.388.427.258.763.614 1.007 1.067.243.453.365.975.365 1.566s-.122 1.113-.365 1.566c-.244.454-.58.809-1.007 1.067s-.917.387-1.467.387z"/><path d="m31.131 47.55h-.87v-5.852h3.64v.732h-2.77v1.979h2.349v.731h-2.349z"/><path d="m38.437 47.55v-5.12h-1.971v-.732h4.81v.732h-1.97v5.12z"/><path d="m42.274 47.55v-5.852h.869v2.504h3.021v-2.504h.869v5.852h-.869v-2.599h-3.021v2.599z"/><path d="m48.565 47.55v-5.852h3.752v.732h-2.883v1.806h2.539v.732h-2.539v1.85h2.951v.732z"/><path
      d="m57.876 46.887c.476 0 .85-.143 1.123-.43.272-.287.408-.674.408-1.162v-3.597h.87v3.606c0 .729-.214 1.3-.641 1.716-.428.416-1.014.624-1.76.624s-1.331-.208-1.756-.624c-.424-.416-.637-.987-.637-1.716v-3.606h.87v3.597c0 .488.136.875.408 1.162.273.287.644.43 1.115.43m5.645.757c-.442 0-.864-.077-1.266-.232-.401-.155-.725-.362-.972-.619l.491-.577c.229.212.5.378.813.499s.624.181.934.181c.378 0 .684-.073.916-.22.232-.146.349-.348.349-.607 0-.235-.084-.433-.25-.593-.167-.161-.45-.295-.852-.405l-.809-.215c-.522-.137-.902-.333-1.14-.585s-.357-.582-.357-.99c0-.332.089-.625.267-.877.177-.253.423-.449.735-.59.313-.14.667-.211 1.063-.211.419 0 .812.08 1.179.237.367.158.691.377.972.658l-.525.569c-.246-.23-.503-.407-.77-.53-.266-.123-.549-.185-.847-.185-.362 0-.657.076-.887.228-.229.152-.344.363-.344.633 0 .246.082.439.245.576.164.138.415.253.754.344l.903.25c.522.143.903.344 1.145.602.24.259.361.579.361.964 0 .339-.089.636-.267.891s-.424.453-.74.594c-.315.14-.683.21-1.101.21m4.294-2.297h2.134l-1.067-2.745zm2.986 2.203-.568-1.472h-2.702l-.568 1.472h-.878l2.341-5.852h.938l2.332 5.852z"/><path d="m75.74 47.55v-5.12h-1.971v-.732h4.811v.732h-1.971v5.12z"/><path
      d="m81.712 46.887c.378 0 .716-.096 1.011-.288s.526-.458.693-.796c.166-.338.249-.732.249-1.179 0-.448-.083-.84-.249-1.179-.167-.339-.398-.604-.693-.796s-.633-.289-1.011-.289c-.379 0-.714.097-1.007.289-.292.192-.522.457-.688.796-.167.339-.25.731-.25 1.179 0 .447.083.841.25 1.179.166.338.396.604.688.796.293.192.628.288 1.007.288zm0 .757c-.551 0-1.038-.129-1.463-.387s-.759-.613-1.003-1.067c-.243-.453-.365-.975-.365-1.566s.122-1.113.365-1.566c.244-.453.578-.809 1.003-1.067.425-.259.912-.388 1.463-.388s1.04.129 1.467.388c.427.258.763.614 1.007 1.067s.366.975.366 1.566-.122 1.113-.366 1.566c-.244.454-.58.809-1.007 1.067s-.916.387-1.467.387zm4.931-.826h1.187c.413 0 .767-.09 1.063-.271s.522-.435.68-.762.237-.714.237-1.161c0-.448-.079-.835-.237-1.162s-.384-.581-.68-.761c-.296-.181-.65-.271-1.063-.271h-1.187zm-.869.732v-5.852h2.056c.574 0 1.076.122 1.506.366s.765.585 1.003 1.024.357.951.357 1.536-.119 1.097-.357 1.536-.573.78-1.003 1.024-.932.366-1.506.366zm7.142-2.203h2.134l-1.067-2.745zm2.986 2.203-.568-1.472h-2.702l-.568 1.472h-.878l2.341-5.852h.938l2.332 5.852z"/><path d="m99.465 45.227v2.323h-.869v-2.323l-2.057-3.529h1.024l1.472 2.702 1.471-2.702h1.007z"/><path d="m108.466 47.55-3.124-4.483v4.483h-.818v-5.852h.809l3.133 4.484v-4.484h.808v5.852z"/><path d="m110.806 47.55v-5.852h3.752v.732h-2.883v1.806h2.539v.732h-2.539v1.85h2.952v.732z"/><path d="m117.209 47.55v-5.12h-1.971v-.732h4.81v.732h-1.97v5.12z"/><path d="m125.728 47.55-1.369-4.665-1.368 4.665h-.903l-1.558-5.852h.861l1.187 4.63 1.368-4.63h.827l1.376 4.647 1.197-4.647h.843l-1.558 5.852z"/><path
      d="m131.64 46.887c.378 0 .715-.096 1.011-.288.295-.192.526-.458.693-.796.166-.338.249-.732.249-1.179 0-.448-.083-.84-.249-1.179-.167-.339-.398-.604-.693-.796-.296-.192-.633-.289-1.011-.289-.379 0-.715.097-1.007.289-.293.192-.522.457-.689.796-.166.339-.249.731-.249 1.179 0 .447.083.841.249 1.179.167.338.396.604.689.796.292.192.628.288 1.007.288zm0 .757c-.551 0-1.039-.129-1.463-.387-.425-.258-.759-.613-1.003-1.067-.244-.453-.365-.975-.365-1.566s.121-1.113.365-1.566.578-.809 1.003-1.067c.424-.259.912-.388 1.463-.388.55 0 1.04.129 1.467.388.427.258.763.614 1.007 1.067.243.453.365.975.365 1.566s-.122 1.113-.365 1.566c-.244.454-.58.809-1.007 1.067s-.917.387-1.467.387zm4.93-3.184h1.197c.373 0 .67-.091.89-.275.221-.184.332-.43.332-.74s-.111-.556-.332-.74c-.22-.184-.517-.275-.89-.275h-1.197zm0 .714v2.376h-.869v-5.852h2.066c.648 0 1.161.156 1.54.469s.568.739.568 1.278c0 .407-.115.752-.344 1.032-.23.282-.545.48-.947.594l1.42 2.479h-.99l-1.333-2.376z"/><path d="m144.599 47.55-2.625-2.952v2.952h-.869v-5.852h.869v2.565l2.453-2.565h1.076l-2.608 2.685 2.797 3.167z"/></g><path d="m8.694 28.212h12.735v6.75h-21.105v-30.6h8.37z" fill="#009bff" class='no-color-change'/><path
      d="m36.053 17.142c-2.55 0-4.08 1.35-4.59 4.05h8.73c-.21-1.47-.713-2.513-1.507-3.128-.795-.614-1.673-.922-2.633-.922zm10.711 15.48c-1.141.81-2.588 1.5-4.343 2.07-1.755.569-3.623.855-5.603.855-2.73 0-5.062-.503-6.997-1.508-1.935-1.004-3.42-2.407-4.455-4.207s-1.552-3.87-1.552-6.21c0-2.369.509-4.47 1.529-6.3s2.43-3.263 4.231-4.298c1.799-1.035 3.899-1.552 6.299-1.552 2.34 0 4.403.502 6.188 1.507 1.785 1.006 3.18 2.401 4.185 4.185 1.005 1.786 1.507 3.878 1.507 6.278 0 .33-.022.675-.067 1.035s-.098.736-.158 1.125h-15.975c.72 2.64 2.685 3.96 5.896 3.96 1.439 0 2.714-.225 3.824-.675s2.04-.9 2.79-1.35zm11.159-5.085c0 .69.255 1.253.765 1.687.51.436 1.17.653 1.98.653 1.08 0 1.987-.368 2.723-1.103.735-.734 1.102-1.657 1.102-2.767v-.765c-.81-.15-1.665-.225-2.565-.225-1.14 0-2.092.196-2.857.585-.765.39-1.148 1.035-1.148 1.935zm6.885 7.425-.405-3.015c-1.5 2.4-3.78 3.6-6.84 3.6-1.35 0-2.572-.292-3.667-.877-1.096-.585-1.965-1.388-2.61-2.408-.646-1.02-.968-2.205-.968-3.555 0-2.55.997-4.53 2.993-5.94 1.995-1.41 4.627-2.115 7.897-2.115 1.02 0 2.1.09 3.24.27-.12-1.14-.607-2.002-1.462-2.587s-1.898-.878-3.128-.878c-1.08 0-2.167.202-3.262.607-1.096.405-2.138.893-3.128 1.463l-2.655-5.04c1.5-.96 3.12-1.702 4.86-2.228 1.74-.524 3.48-.787 5.22-.787 2.1 0 3.99.36 5.67 1.08s3 1.815 3.96 3.285 1.44 3.33 1.44 5.58v13.545zm27.81-17.055h-5.985v17.055h-7.83v-17.055h-3.735v-5.85h3.735v-1.665c0-2.639.78-4.77 2.34-6.39s3.765-2.43 6.615-2.43c1.08 0 2.175.135 3.285.405s2.28.795 3.51 1.575l-2.655 4.815c-.36-.21-.765-.39-1.215-.54s-.945-.225-1.485-.225c-.72 0-1.327.225-1.822.675s-.743 1.155-.743 2.115v1.665h5.985z"
      fill="#009bff" class='no-color-change'/><path
      d="m121.687 35.547c-3.121 0-5.858-.675-8.213-2.025s-4.2-3.218-5.535-5.602c-1.335-2.386-2.002-5.153-2.002-8.303 0-3.151.667-5.91 2.002-8.28s3.18-4.222 5.535-5.558c2.355-1.334 5.092-2.002 8.213-2.002 2.639 0 5.017.533 7.132 1.598s3.922 2.602 5.423 4.612l-6.615 3.915c-.781-.99-1.658-1.77-2.633-2.34s-2.107-.855-3.397-.855c-2.131 0-3.855.802-5.175 2.407-1.321 1.605-1.98 3.773-1.98 6.503s.659 4.912 1.98 6.547c1.32 1.635 3.044 2.453 5.175 2.453 1.32 0 2.49-.322 3.51-.968 1.019-.644 1.874-1.402 2.565-2.272l6.57 3.915c-1.47 2.04-3.278 3.592-5.423 4.657s-4.522 1.598-7.132 1.598m24.03-13.185v12.6h-7.83v-32.85h7.83v12.6c.749-.99 1.702-1.778 2.857-2.363s2.408-.877 3.758-.877c2.49 0 4.484.81 5.985 2.43 1.499 1.62 2.25 3.945 2.25 6.975v14.085h-7.83v-13.185c0-1.35-.3-2.347-.9-2.993-.601-.645-1.44-.967-2.52-.967s-1.951.345-2.61 1.035c-.66.691-.99 1.861-.99 3.51m27.764 3.735v8.865h-7.83v-22.905h7.155l.495 3.825c.48-1.23 1.267-2.228 2.363-2.993 1.095-.764 2.362-1.147 3.802-1.147.81 0 1.425.105 1.846.315v7.155c-.331-.12-.698-.209-1.103-.27-.405-.06-.863-.09-1.373-.09-1.56 0-2.842.578-3.847 1.733-1.006 1.155-1.508 2.992-1.508 5.512m22.725 3.24c1.379 0 2.482-.533 3.307-1.598s1.238-2.482 1.238-4.252-.413-3.18-1.238-4.23-1.928-1.575-3.307-1.575c-1.38 0-2.483.525-3.308 1.575s-1.237 2.46-1.237 4.23.412 3.187 1.237 4.252 1.928 1.598 3.308 1.598zm0 6.21c-2.46 0-4.628-.518-6.503-1.553-1.875-1.034-3.345-2.452-4.41-4.252s-1.597-3.885-1.597-6.255.532-4.455 1.597-6.255 2.535-3.21 4.41-4.23 4.043-1.53 6.503-1.53 4.627.51 6.503 1.53c1.874 1.02 3.344 2.43 4.409 4.23s1.598 3.885 1.598 6.255-.533 4.455-1.598 6.255-2.535 3.218-4.409 4.252c-1.876 1.035-4.043 1.553-6.503 1.553zm24.435-13.23v12.645h-7.83v-22.905h7.155l.405 3.015c.749-1.08 1.725-1.95 2.925-2.61 1.199-.66 2.52-.99 3.96-.99 2.49 0 4.484.81 5.985 2.43 1.5 1.62 2.25 3.945 2.25 6.975v14.085h-7.83v-13.185c0-1.35-.301-2.347-.9-2.993-.601-.645-1.44-.967-2.52-.967s-1.95.345-2.61 1.035c-.66.691-.99 1.845-.99 3.465m19.934 12.645v-22.905c1.26.27 2.535.405 3.825.405 1.32 0 2.655-.135 4.005-.405v22.905zm24.03.585c-2.34 0-4.418-.503-6.233-1.508-1.815-1.004-3.247-2.407-4.297-4.207-1.051-1.8-1.575-3.9-1.575-6.3s.524-4.5 1.575-6.3c1.05-1.8 2.482-3.202 4.297-4.208 1.815-1.005 3.893-1.507 6.233-1.507 2.07 0 3.885.382 5.445 1.147 1.559.765 2.94 1.988 4.14 3.668l-5.175 3.78c-.421-.63-.968-1.147-1.643-1.553-.675-.405-1.402-.607-2.182-.607-1.35 0-2.475.503-3.375 1.508s-1.35 2.362-1.35 4.072.45 3.067 1.35 4.072c.9 1.006 2.025 1.508 3.375 1.508.78 0 1.507-.203 2.182-.607.675-.406 1.222-.923 1.643-1.553l5.175 3.78c-1.2 1.68-2.581 2.902-4.14 3.667-1.56.765-3.375 1.148-5.445 1.148"
      fill="#404040"/><path d="m277.7 34.962h7.829v-32.85h-7.829z" fill="#404040"/><path
      d="m301.864 17.142c-2.55 0-4.08 1.35-4.59 4.05h8.73c-.21-1.47-.713-2.513-1.507-3.128-.796-.614-1.673-.922-2.633-.922zm10.71 15.48c-1.14.81-2.588 1.5-4.343 2.07-1.754.569-3.622.855-5.602.855-2.73 0-5.063-.503-6.998-1.508-1.934-1.004-3.42-2.407-4.454-4.207-1.035-1.8-1.553-3.87-1.553-6.21 0-2.369.51-4.47 1.53-6.3 1.019-1.83 2.43-3.263 4.23-4.298s3.9-1.552 6.3-1.552c2.34 0 4.402.502 6.188 1.507 1.784 1.006 3.179 2.401 4.185 4.185 1.005 1.786 1.507 3.878 1.507 6.278 0 .33-.022.675-.067 1.035s-.098.736-.158 1.125h-15.975c.72 2.64 2.684 3.96 5.895 3.96 1.44 0 2.715-.225 3.825-.675 1.109-.45 2.04-.9 2.79-1.35z"
      fill="#404040"/><path
      d="m244.4 10.257c-1.29 0-2.393-.458-3.307-1.373-.916-.915-1.373-2.017-1.373-3.307s.457-2.392 1.373-3.308c.914-.914 2.017-1.372 3.307-1.372s2.392.458 3.308 1.372c.915.916 1.372 2.018 1.372 3.308s-.457 2.392-1.372 3.307c-.916.915-2.018 1.373-3.308 1.373"
      fill="#009bff" class='no-color-change'/></g>
</svg>