<svg xmlns="http://www.w3.org/2000/svg" width="664" height="107" viewBox="0 0 664 107">
  <g fill="none" fill-rule="evenodd" transform="translate(0 -40)">
    <path fill="#424F52" d="M610.135,65.042 L610.135,123.475 L624.159,123.475 L624.159,91.308 C624.159,80.847 625.827,75.059 638.072,75.059 C647.085,75.059 648.977,77.953 648.977,86.413 L648.977,123.475 L663,123.475 L663,84.965 C663,70.718 658.327,64.375 642.969,64.375 C634.732,64.375 627.721,65.265 624.604,73.835 L624.159,73.835 L624.159,65.042 L610.135,65.042 L610.135,65.042 Z M562.944,87.969 C562.944,77.62 563.724,75.059 575.856,75.059 C587.321,75.059 589.1,75.949 589.1,87.969 L562.944,87.969 L562.944,87.969 Z M589.1,104.887 C589.1,113.569 583.646,113.457 575.856,113.457 C563.281,113.457 562.944,109.452 562.944,96.874 L603.123,96.874 C603.123,71.386 599.896,64.375 575.856,64.375 C552.26,64.375 548.921,73.5 548.921,94.425 C548.921,117.019 553.485,124.141 575.856,124.141 C592.551,124.141 603.123,123.252 603.123,104.887 L589.1,104.887 L589.1,104.887 Z M542.799,76.729 L542.799,65.042 L497.502,65.042 L497.502,75.727 L526.217,75.727 L495.053,111.453 L495.053,123.475 L542.799,123.475 L542.799,112.789 L511.303,112.789 L542.799,76.729 L542.799,76.729 Z M473.239,51.909 L487.263,51.909 L487.263,39.999 L473.239,39.999 L473.239,51.909 Z M473.239,123.475 L487.263,123.475 L487.263,65.042 L473.239,65.042 L473.239,123.475 Z M420.487,75.727 L427.831,75.727 L427.831,105.777 C427.831,120.579 432.507,124.141 447.864,124.141 C463.002,124.141 467.455,118.8 467.232,101.102 L454.878,101.102 C454.878,107.225 455.768,113.457 447.864,113.457 C441.967,113.457 441.967,111.008 441.855,105.667 L441.855,75.727 L464.226,75.727 L464.226,65.042 L441.855,65.042 L441.855,51.797 L427.831,51.797 L427.831,65.042 L420.487,65.042 L420.487,75.727 L420.487,75.727 Z M398.784,51.909 L412.807,51.909 L412.807,39.999 L398.784,39.999 L398.784,51.909 Z M398.784,123.475 L412.807,123.475 L412.807,65.042 L398.784,65.042 L398.784,123.475 Z M376.97,101.214 C376.97,111.453 375.857,113.457 364.393,113.457 C352.04,113.457 352.262,108.894 352.262,94.313 C352.262,79.289 352.373,75.059 364.393,75.059 C374.186,75.059 376.97,76.617 376.97,85.52 L390.994,85.52 C390.994,67.046 381.756,64.375 364.393,64.375 C341.464,64.375 338.239,73.835 338.239,94.313 C338.239,117.909 342.912,124.141 364.393,124.141 C384.092,124.141 390.994,120.358 390.994,101.214 L376.97,101.214 L376.97,101.214 Z M265.406,65.042 L265.406,123.475 L279.43,123.475 L279.43,87.413 C279.207,79.844 281.656,75.059 290.004,75.059 C296.57,75.059 297.126,78.508 297.126,84.409 L297.126,87.413 L310.259,87.413 L310.259,82.738 C310.259,71.721 307.254,64.375 294.9,64.375 C288.11,64.375 282.102,66.266 279.32,72.724 L278.762,72.724 L279.095,65.042 L265.406,65.042 L265.406,65.042 Z M215.879,87.969 C215.879,77.62 216.657,75.059 228.789,75.059 C240.254,75.059 242.035,75.949 242.035,87.969 L215.879,87.969 L215.879,87.969 Z M242.035,104.887 C242.035,113.569 236.579,113.457 228.789,113.457 C216.212,113.457 215.879,109.452 215.879,96.874 L256.058,96.874 C256.058,71.386 252.829,64.375 228.789,64.375 C205.195,64.375 201.855,73.5 201.855,94.425 C201.855,117.019 206.418,124.141 228.789,124.141 C245.484,124.141 256.058,123.252 256.058,104.887 L242.035,104.887 L242.035,104.887 Z M178.151,51.909 L192.174,51.909 L192.174,39.999 L178.151,39.999 L178.151,51.909 Z M178.151,123.475 L192.174,123.475 L192.174,65.042 L178.151,65.042 L178.151,123.475 Z M152.105,123.475 L166.129,123.475 L166.129,40 L152.105,40 L152.105,123.475 Z M125.171,123.475 L139.195,123.475 L139.195,40 L125.171,40 L125.171,123.475 Z M88.001,75.059 C100.466,75.059 101.467,78.621 101.467,94.425 C101.467,110.007 100.466,113.457 88.001,113.457 C75.535,113.457 74.533,110.007 74.533,94.425 C74.533,78.621 75.535,75.059 88.001,75.059 L88.001,75.059 Z M88.001,64.375 C63.626,64.375 60.509,71.609 60.509,94.313 C60.509,116.907 63.626,124.141 88.001,124.141 C112.375,124.141 115.492,116.907 115.492,94.313 C115.492,71.609 112.375,64.375 88.001,64.375 L88.001,64.375 Z M39.251,101.214 C39.251,111.453 38.138,113.457 26.674,113.457 C14.321,113.457 14.544,108.894 14.544,94.313 C14.544,79.289 14.654,75.059 26.674,75.059 C36.469,75.059 39.251,76.617 39.251,85.52 L53.275,85.52 C53.275,67.046 44.037,64.375 26.674,64.375 C3.747,64.375 0.52,73.835 0.52,94.313 C0.52,117.909 5.193,124.141 26.674,124.141 C46.375,124.141 53.275,120.358 53.275,101.214 L39.251,101.214 L39.251,101.214 Z"/>
    <path fill="#3A3B39" d="M415.714 141.423C417.153 141.423 417.925 140.619 417.925 139.408 417.925 138.21 417.153 137.394 415.714 137.394L414.305 137.394 414.305 141.423 415.714 141.423 415.714 141.423zM412.807 136.136L415.865 136.136C418.016 136.136 419.455 137.423 419.455 139.408 419.455 141.393 417.986 142.677 415.865 142.677L414.305 142.677 414.305 146.766 412.807 146.766 412.807 136.136 412.807 136.136zM426.23 142.724L425.216 140.105C425.065 139.71 424.413 138.074 424.398 137.938L424.368 137.938C424.353 138.074 423.718 139.664 423.55 140.105L422.521 142.724 426.23 142.724 426.23 142.724zM423.732 136.136L425.065 136.136 429.426 146.766 427.82 146.766 426.731 143.981 422.022 143.981 420.931 146.766 419.357 146.766C419.357 146.766 423.201 137.44 423.732 136.136L423.732 136.136zM433.855 141.21C435.247 141.21 436.035 140.467 436.035 139.302 436.035 138.137 435.247 137.394 433.855 137.394L432.446 137.394 432.446 141.21 433.855 141.21 433.855 141.21zM430.948 136.136L434.021 136.136C436.004 136.136 437.549 137.168 437.549 139.285 437.549 140.938 436.458 142.027 434.854 142.285L438.11 146.766 436.352 146.766 433.279 142.435 432.446 142.435 432.446 146.766 430.948 146.766 430.948 136.136 430.948 136.136z"/>
    <polyline fill="#3A3B39" points="441.705 137.423 438.677 137.423 438.677 136.136 446.232 136.136 446.232 137.423 443.204 137.423 443.204 146.766 441.705 146.766 441.705 137.423"/>
    <path fill="#3A3B39" d="M459.748,141.452 C459.748,138.983 458.037,137.274 455.691,137.274 C453.374,137.274 451.647,138.983 451.647,141.452 C451.647,143.922 453.374,145.631 455.691,145.631 C458.037,145.631 459.748,143.922 459.748,141.452 L459.748,141.452 Z M450.119,141.452 C450.119,138.469 452.282,135.927 455.706,135.927 C459.127,135.927 461.293,138.469 461.293,141.452 C461.293,144.436 459.127,146.978 455.706,146.978 C452.282,146.978 450.119,144.436 450.119,141.452 L450.119,141.452 Z"/>
    <polyline fill="#3A3B39" points="463.45 136.136 468.81 136.136 468.81 137.423 464.949 137.423 464.949 140.845 468.689 140.845 468.689 142.133 464.949 142.133 464.949 146.766 463.45 146.766 463.45 136.136"/>
    <polyline fill="#3A3B39" points="475.589 137.423 472.56 137.423 472.56 136.136 480.115 136.136 480.115 137.423 477.087 137.423 477.087 146.766 475.589 146.766 475.589 137.423"/>
    <polyline fill="#3A3B39" points="481.689 136.136 483.187 136.136 483.187 140.497 488.759 140.497 488.759 136.136 490.259 136.136 490.259 146.766 488.759 146.766 488.759 141.784 483.187 141.784 483.187 146.766 481.689 146.766 481.689 136.136"/>
    <polyline fill="#3A3B39" points="493.021 136.136 498.805 136.136 498.805 137.41 494.519 137.41 494.519 140.497 498.683 140.497 498.683 141.771 494.519 141.771 494.519 145.495 498.895 145.495 498.895 146.766 493.021 146.766 493.021 136.136"/>
    <path fill="#3A3B39" d="M503.92 143.102L503.92 136.136 505.433 136.136 505.433 142.647C505.433 144.496 506.221 145.631 507.992 145.631 509.779 145.631 510.567 144.496 510.567 142.647L510.567 136.136 512.08 136.136 512.08 143.102C512.08 145.435 510.582 146.978 507.992 146.978 505.388 146.978 503.92 145.435 503.92 143.102M513.645 144.844L514.661 143.981C515.175 144.828 515.993 145.661 517.326 145.661 518.491 145.661 519.4 145.027 519.4 143.859 519.4 142.604 518.355 142.179 517.052 141.665 515.719 141.134 514.372 140.467 514.372 138.771 514.372 137.092 515.675 135.927 517.583 135.927 519.096 135.927 520.095 136.62 520.703 137.53L519.687 138.393C519.279 137.759 518.597 137.241 517.583 137.241 516.552 137.241 515.872 137.772 515.872 138.665 515.872 139.77 516.931 140.135 517.855 140.497 519.354 141.087 520.898 141.801 520.898 143.752 520.898 145.601 519.536 146.978 517.356 146.978 515.539 146.978 514.327 146.026 513.645 144.844M528.571 142.724L527.558 140.105C527.407 139.71 526.754 138.074 526.74 137.938L526.71 137.938C526.695 138.074 526.059 139.664 525.892 140.105L524.863 142.724 528.571 142.724 528.571 142.724zM526.074 136.136L527.407 136.136 531.768 146.766 530.161 146.766 529.073 143.981 524.363 143.981 523.273 146.766 521.698 146.766C521.698 146.766 525.543 137.44 526.074 136.136L526.074 136.136z"/>
    <polyline fill="#3A3B39" points="538.095 137.423 535.066 137.423 535.066 136.136 542.622 136.136 542.622 137.423 539.593 137.423 539.593 146.766 538.095 146.766 538.095 137.423"/>
    <path fill="#3A3B39" d="M552.814 141.452C552.814 138.983 551.103 137.274 548.756 137.274 546.44 137.274 544.712 138.983 544.712 141.452 544.712 143.922 546.44 145.631 548.756 145.631 551.103 145.631 552.814 143.922 552.814 141.452L552.814 141.452zM543.184 141.452C543.184 138.469 545.348 135.927 548.771 135.927 552.193 135.927 554.359 138.469 554.359 141.452 554.359 144.436 552.193 146.978 548.771 146.978 545.348 146.978 543.184 144.436 543.184 141.452L543.184 141.452zM558.014 145.478L559.408 145.478C561.891 145.478 563.616 144.164 563.616 141.452 563.616 138.741 561.891 137.423 559.408 137.423L558.014 137.423 558.014 145.478 558.014 145.478zM556.516 136.136L559.529 136.136C562.921 136.136 565.161 138.074 565.161 141.452 565.161 144.814 562.904 146.766 559.529 146.766L556.516 146.766 556.516 136.136 556.516 136.136zM572.529 142.724L571.515 140.105C571.364 139.71 570.712 138.074 570.697 137.938L570.667 137.938C570.652 138.074 570.017 139.664 569.849 140.105L568.82 142.724 572.529 142.724 572.529 142.724zM570.032 136.136L571.364 136.136 575.725 146.766 574.119 146.766 573.03 143.981 568.321 143.981 567.23 146.766 565.656 146.766C565.656 146.766 569.501 137.44 570.032 136.136L570.032 136.136zM578.719 142.435L575.099 136.136 576.78 136.136 578.748 139.68C578.84 139.846 579.475 141.014 579.505 141.194L579.52 141.194C579.551 141.014 580.187 139.846 580.278 139.68L582.261 136.136 583.896 136.136 580.278 142.435 580.278 146.766 578.719 146.766 578.719 142.435M588.3 136.136L589.45 136.136 595.477 143.026C595.658 143.225 596.446 144.207 596.522 144.36L596.552 144.343C596.522 144.194 596.522 142.966 596.522 142.694L596.522 136.136 597.976 136.136 597.976 146.766 596.809 146.766 590.782 139.876C590.601 139.68 589.813 138.695 589.739 138.545L589.724 138.558C589.739 138.711 589.754 139.939 589.754 140.211L589.754 146.766 588.3 146.766 588.3 136.136"/>
    <polyline fill="#3A3B39" points="600.737 136.136 606.52 136.136 606.52 137.41 602.236 137.41 602.236 140.497 606.401 140.497 606.401 141.771 602.236 141.771 602.236 145.495 606.611 145.495 606.611 146.766 600.737 146.766 600.737 136.136"/>
    <polyline fill="#3A3B39" points="611.21 137.423 608.181 137.423 608.181 136.136 615.736 136.136 615.736 137.423 612.708 137.423 612.708 146.766 611.21 146.766 611.21 137.423"/>
    <path fill="#3A3B39" d="M616.986 136.136L618.576 136.136 620.756 142.451C620.832 142.694 621.347 144.267 621.362 144.509L621.393 144.509C621.408 144.267 621.938 142.694 622.029 142.451L624.3 136.136 625.497 136.136 627.767 142.451C627.858 142.694 628.388 144.267 628.404 144.509L628.434 144.509C628.464 144.267 628.978 142.694 629.055 142.451L631.22 136.136 632.749 136.136 629.008 146.766 627.858 146.766 625.406 140.135C625.329 139.906 624.906 138.651 624.89 138.409L624.86 138.409C624.845 138.651 624.405 139.906 624.33 140.135L621.893 146.766 620.741 146.766 616.986 136.136M643.048 141.452C643.048 138.983 641.338 137.274 638.991 137.274 636.675 137.274 634.947 138.983 634.947 141.452 634.947 143.922 636.675 145.631 638.991 145.631 641.338 145.631 643.048 143.922 643.048 141.452L643.048 141.452zM633.419 141.452C633.419 138.469 635.583 135.927 639.006 135.927 642.428 135.927 644.593 138.469 644.593 141.452 644.593 144.436 642.428 146.978 639.006 146.978 635.583 146.978 633.419 144.436 633.419 141.452L633.419 141.452zM649.658 141.21C651.05 141.21 651.838 140.467 651.838 139.302 651.838 138.137 651.05 137.394 649.658 137.394L648.249 137.394 648.249 141.21 649.658 141.21 649.658 141.21zM646.75 136.136L649.824 136.136C651.808 136.136 653.352 137.168 653.352 139.285 653.352 140.938 652.261 142.027 650.657 142.285L653.912 146.766 652.155 146.766 649.082 142.435 648.249 142.435 648.249 146.766 646.75 146.766 646.75 136.136 646.75 136.136z"/>
    <polyline fill="#3A3B39" points="655.61 136.136 657.109 136.136 657.109 141.074 661.499 136.136 663.316 136.136 658.76 141.21 663.529 146.766 661.652 146.766 657.109 141.393 657.109 146.766 655.61 146.766 655.61 136.136"/>
  </g>
</svg>
