<svg id="Layer_1" data-name="Layer 1" xmlns="http://www.w3.org/2000/svg" viewBox="0 0 432.28 124.99" height="124.99" width="432.28">
    <defs>
        <style>
            .cls-1 {
                fill: #ed1c24;
            }
            .cls-2 {
                fill: #ffec82;
            }
            .cls-3,
            .cls-6 {
                fill: #231f20;
            }
            .cls-4,
            .cls-5 {
                fill: #fff;
            }
            .cls-4 {
                stroke: #fff;
                stroke-width: 1.71px;
            }
            .cls-7 {
                fill: #999;
            }
            .cls-8 {
                fill: #a7a9ac;
            }
            .cls-9 {
                fill: #a6a6a6;
            }
            .cls-10 {
                fill: #414042;
            }
        </style>
    </defs>
    <title>Corpus</title><path
        class="cls-1"
        d="M103,18.6a6.33,6.33,0,0,1-2.24-1.16,5.62,5.62,0,0,1-1.55-2,6.77,6.77,0,0,1-.58-2.92,6.75,6.75,0,0,1,.58-2.92,5.84,5.84,0,0,1,1.55-2A6.22,6.22,0,0,1,103,6.41,9.12,9.12,0,0,1,105.56,6a11.51,11.51,0,0,1,1.36.08,12.19,12.19,0,0,1,1.23.2c.37.08.69.16,1,.25a3.35,3.35,0,0,1,.57.21l-.92,3a7.84,7.84,0,0,0-3-.65,5.13,5.13,0,0,0-1.71.26,3.24,3.24,0,0,0-1.2.72,2.9,2.9,0,0,0-.71,1.12,4.22,4.22,0,0,0-.23,1.42,3.38,3.38,0,0,0,1,2.51,3.78,3.78,0,0,0,2.78,1,5.25,5.25,0,0,0,1-.09,8.91,8.91,0,0,0,.87-.2c.26-.08.5-.16.71-.24l.49-.19,1,2.73a9.44,9.44,0,0,1-4.07.9A9.41,9.41,0,0,1,103,18.6Z"/><path
        class="cls-1"
        d="M121.12,18.63a6.41,6.41,0,0,1-2.18-1.16,6.08,6.08,0,0,1-1.59-2,6.36,6.36,0,0,1-.62-2.91,6.48,6.48,0,0,1,.62-2.93,6,6,0,0,1,1.59-2,6.6,6.6,0,0,1,2.18-1.17A8.06,8.06,0,0,1,123.53,6a7.69,7.69,0,0,1,2.4.4,6.58,6.58,0,0,1,2.18,1.2,6.2,6.2,0,0,1,1.59,2,6.35,6.35,0,0,1,.62,2.88,6.3,6.3,0,0,1-.62,2.88,6.17,6.17,0,0,1-1.59,2,6.56,6.56,0,0,1-2.18,1.18,7.86,7.86,0,0,1-2.4.39A8.14,8.14,0,0,1,121.12,18.63ZM125,15.81a3.29,3.29,0,0,0,1.1-.71,3.08,3.08,0,0,0,.71-1.11,4,4,0,0,0,.25-1.43,3.91,3.91,0,0,0-.25-1.42,3,3,0,0,0-.71-1.09,3.25,3.25,0,0,0-1.1-.7,4.3,4.3,0,0,0-2.87,0,3.2,3.2,0,0,0-1.11.7,3.12,3.12,0,0,0-.72,1.09,4,4,0,0,0,0,2.83,3.29,3.29,0,0,0,.72,1.11,3.17,3.17,0,0,0,1.11.72,4.15,4.15,0,0,0,2.87,0Z"/><path
        class="cls-1"
        d="M149.37,18.73h-3.71l-2.55-3.61c-.46,0-.94.06-1.44.06h-.33v3.55h-3.2V6.3h2.62a22,22,0,0,1,3.53.25,7.64,7.64,0,0,1,2.46.78,3.56,3.56,0,0,1,1.43,1.38,4.19,4.19,0,0,1,.47,2,3.82,3.82,0,0,1-.6,2.17,4.16,4.16,0,0,1-1.76,1.45Zm-7.59-6.25a11.41,11.41,0,0,0,1.7-.11,4.06,4.06,0,0,0,1.11-.31,1.32,1.32,0,0,0,.6-.51,1.51,1.51,0,0,0,0-1.42,1.31,1.31,0,0,0-.6-.51,4,4,0,0,0-1.11-.31,11.68,11.68,0,0,0-1.7-.1h-.44v3.26Z"/><path
        class="cls-1"
        d="M156.92,6.3h2.87a12.81,12.81,0,0,1,6.05,1.1,3.76,3.76,0,0,1,2,3.55q0,4.58-7.11,4.58h-.58v3.2h-3.2Zm3.91,6.36a12.18,12.18,0,0,0,1.74-.1,3.83,3.83,0,0,0,1.15-.33,1.41,1.41,0,0,0,.62-.54,1.58,1.58,0,0,0,0-1.49,1.41,1.41,0,0,0-.62-.54,3.78,3.78,0,0,0-1.15-.32,12.09,12.09,0,0,0-1.74-.11h-.71v3.43Z"/><path
        class="cls-1"
        d="M178.85,18.61a5.29,5.29,0,0,1-1.87-1,4.67,4.67,0,0,1-1.21-1.7,5.89,5.89,0,0,1-.43-2.33V6.3h3.28V13a3.42,3.42,0,0,0,.64,2.25,2.53,2.53,0,0,0,2,.76,2.59,2.59,0,0,0,2-.76A3.33,3.33,0,0,0,184,13V6.3h3.17v7.22a5.85,5.85,0,0,1-.43,2.32,4.73,4.73,0,0,1-1.22,1.71,5.32,5.32,0,0,1-1.87,1.06,7.56,7.56,0,0,1-2.39.36A7.71,7.71,0,0,1,178.85,18.61Z"/><path
        class="cls-1"
        d="M198.16,18.78a13.17,13.17,0,0,1-1.48-.26,9.05,9.05,0,0,1-1.17-.35,8.55,8.55,0,0,1-.84-.37l1-2.69.82.32a11,11,0,0,0,1.09.33A12.3,12.3,0,0,0,199,16a12.54,12.54,0,0,0,1.61.1,4.82,4.82,0,0,0,1.56-.2.76.76,0,0,0,.57-.77.57.57,0,0,0-.19-.44,1.69,1.69,0,0,0-.53-.31,5.52,5.52,0,0,0-.78-.24l-1-.21q-.83-.16-1.73-.39a6.56,6.56,0,0,1-1.64-.65,3.75,3.75,0,0,1-1.23-1.11,3,3,0,0,1-.49-1.79,3.66,3.66,0,0,1,.43-1.86,3.26,3.26,0,0,1,1.2-1.2,5.47,5.47,0,0,1,1.82-.63,13.13,13.13,0,0,1,2.27-.19,13.63,13.63,0,0,1,2.88.26,8.52,8.52,0,0,1,1.57.45l-.88,2.85a15.71,15.71,0,0,0-1.83-.48A11.17,11.17,0,0,0,200.41,9a7.06,7.06,0,0,0-.72,0,2.55,2.55,0,0,0-.61.13,1.07,1.07,0,0,0-.41.26.59.59,0,0,0-.15.42.57.57,0,0,0,.19.44,1.69,1.69,0,0,0,.54.31,5.28,5.28,0,0,0,.8.23l1,.2q.81.16,1.7.39a6.52,6.52,0,0,1,1.62.65,3.75,3.75,0,0,1,1.2,1.1,3,3,0,0,1,.47,1.75,4.25,4.25,0,0,1-.29,1.59,2.91,2.91,0,0,1-1,1.26,5.29,5.29,0,0,1-1.88.83,12.25,12.25,0,0,1-2.94.3A14.62,14.62,0,0,1,198.16,18.78Z"/><path
        class="cls-1"
        d="M228.69,18.6a6.33,6.33,0,0,1-2.24-1.16,5.63,5.63,0,0,1-1.55-2,6.77,6.77,0,0,1-.58-2.92,6.75,6.75,0,0,1,.58-2.92,5.85,5.85,0,0,1,1.55-2,6.22,6.22,0,0,1,2.21-1.17A9.12,9.12,0,0,1,231.27,6a11.51,11.51,0,0,1,1.36.08,12.15,12.15,0,0,1,1.23.2c.37.08.69.16,1,.25a3.34,3.34,0,0,1,.56.21l-.92,3a7.67,7.67,0,0,0-1.65-.51,7.8,7.8,0,0,0-1.35-.14,5.13,5.13,0,0,0-1.71.26,3.22,3.22,0,0,0-1.2.72,2.92,2.92,0,0,0-.71,1.12,4.22,4.22,0,0,0-.23,1.42,3.38,3.38,0,0,0,1,2.51,3.78,3.78,0,0,0,2.78,1,5.25,5.25,0,0,0,1-.09,8.91,8.91,0,0,0,.87-.2,7.37,7.37,0,0,0,.7-.24l.49-.19,1,2.73a9.43,9.43,0,0,1-4.07.9A9.42,9.42,0,0,1,228.69,18.6Z"/><path class="cls-1" d="M243.17,6.3h3.28v4.59h5.39V6.3h3.29V18.73h-3.29V13.91h-5.39v4.83h-3.28Z"/><path
        class="cls-1"
        d="M274.72,18.73H271l-2.55-3.61c-.46,0-.94.06-1.44.06h-.33v3.55h-3.2V6.3h2.62a22,22,0,0,1,3.53.25,7.63,7.63,0,0,1,2.46.78,3.56,3.56,0,0,1,1.43,1.38,4.18,4.18,0,0,1,.47,2,3.83,3.83,0,0,1-.6,2.17,4.16,4.16,0,0,1-1.76,1.45Zm-7.59-6.25a11.41,11.41,0,0,0,1.69-.11,4.06,4.06,0,0,0,1.11-.31,1.32,1.32,0,0,0,.6-.51,1.52,1.52,0,0,0,0-1.42,1.31,1.31,0,0,0-.6-.51,4,4,0,0,0-1.11-.31,11.68,11.68,0,0,0-1.69-.1h-.44v3.26Z"/><path class="cls-1" d="M282.37,6.3h3.29V18.73h-3.29Z"/><path
        class="cls-1"
        d="M296.78,18.78a13.19,13.19,0,0,1-1.48-.26,9.07,9.07,0,0,1-1.17-.35,8.78,8.78,0,0,1-.84-.37l1-2.69.82.32a10.76,10.76,0,0,0,1.09.33,12.24,12.24,0,0,0,1.36.25,12.53,12.53,0,0,0,1.61.1,4.84,4.84,0,0,0,1.56-.2.76.76,0,0,0,.57-.77.57.57,0,0,0-.19-.44,1.68,1.68,0,0,0-.53-.31,5.52,5.52,0,0,0-.78-.24l-1-.21q-.83-.16-1.73-.39a6.6,6.6,0,0,1-1.64-.65,3.77,3.77,0,0,1-1.23-1.11A3,3,0,0,1,293.8,10a3.65,3.65,0,0,1,.43-1.86,3.25,3.25,0,0,1,1.2-1.2,5.46,5.46,0,0,1,1.82-.63,13.14,13.14,0,0,1,2.27-.19,13.63,13.63,0,0,1,2.87.26,8.51,8.51,0,0,1,1.57.45l-.88,2.85a15.72,15.72,0,0,0-1.84-.48A11.15,11.15,0,0,0,299,9a7,7,0,0,0-.71,0,2.55,2.55,0,0,0-.61.13,1.06,1.06,0,0,0-.41.26.59.59,0,0,0-.15.42.57.57,0,0,0,.19.44,1.68,1.68,0,0,0,.54.31,5.28,5.28,0,0,0,.8.23l1,.2q.81.16,1.7.39a6.55,6.55,0,0,1,1.62.65,3.75,3.75,0,0,1,1.2,1.1,3,3,0,0,1,.47,1.75,4.27,4.27,0,0,1-.29,1.59,2.9,2.9,0,0,1-1,1.26,5.27,5.27,0,0,1-1.88.83,12.25,12.25,0,0,1-2.94.3A14.64,14.64,0,0,1,296.78,18.78Z"/><path class="cls-1" d="M311.06,9.32v-3h11.81v3h-4.23v9.41H315.3V9.32Z"/><path class="cls-1" d="M330.37,6.3h3.29V18.73h-3.29Z"/><ellipse class="cls-2 no-color-change" cx="211.62" cy="50.9" rx="18.28" ry="18.48"/><path
        class="cls-3"
        d="M283.56,72.83a29.66,29.66,0,0,1-9.36,16.65,24.8,24.8,0,0,1-35.12-1.28q-7.66-7.61-7.82-20.11a35.86,35.86,0,0,1,6.53-21,38.46,38.46,0,0,1,9-8.7,24.29,24.29,0,0,0-3.7-.29q-11.25.1-15.56,12.39l-1.31-.66q4.07-19.6,21.11-20.07a70.23,70.23,0,0,1,15.54,2.15,46.67,46.67,0,0,0,10.72,1.43,9.22,9.22,0,0,0,8.69-5.18l1.29.47q-.49,6.46-4.29,9.85A13.89,13.89,0,0,1,269.7,42a15.49,15.49,0,0,1-3.13-.33V87.13Q277,83.45,282.28,72.45ZM250.09,38.42a14.38,14.38,0,0,0-3.47,2.31,24.33,24.33,0,0,0-2.77,3.59,34.19,34.19,0,0,0-5.25,18.27q.08,11.71,7.85,19.41a7.47,7.47,0,0,0,2.81-3.54,17.81,17.81,0,0,0,.83-5.34V38.42Zm14.6,3q-3-.66-6.15-1.23V66.72a17.39,17.39,0,0,1-.16,2.32,15.54,15.54,0,0,1-1.11,4.55,9.79,9.79,0,0,1-1.4,2.32,19.08,19.08,0,0,1-2.31,2.56Q251,81,249.1,82.82l-.87.76a19.87,19.87,0,0,0,12.37,4.26,11.34,11.34,0,0,0,2.08-.19,10,10,0,0,0,2-.19Z"/><path class="cls-3" d="M297,96.62a55.65,55.65,0,0,0-8-7.94v-.9a4,4,0,0,0,2.54-3q.16-1.93.17-4.25V56.84L288.81,54l7-6.33,7,6.61-2.91,3V87l2.44,2.41L304.82,87l1,1.65Zm1.53-57.13-2-.19,2-11,7,.19Z"/><path
        class="cls-3"
        d="M352.65,96.61q-3.59-3.21-4.49-6a25,25,0,0,1-.86-7.94V58.55l-3.06-3.78-6.07,5.91V86.54L341.22,90l-6.95,6.62L327.17,90l2.71-3.45V63a12.16,12.16,0,0,0-.67-4.63,12.88,12.88,0,0,0-2.75-3.4l-5.87,5.72V86.54L323.67,90l-6.83,6.62-7.33-6.8,2.95-3.54v-25q0-1.37-.08-3.26c-.17-1.35-.79-2.08-1.86-2.17a1.48,1.48,0,0,0-1.08.52,7,7,0,0,1-1.2.75l-1-1.65,8.75-7.84A13.62,13.62,0,0,1,320,52.12a21.28,21.28,0,0,1,.58,6.45L332,47.65a17.87,17.87,0,0,1,4.27,4.56,14.42,14.42,0,0,1,1.7,6.35l11.19-10.92,5.92,7.3,3.25-3.68,1.11,1.47A14.25,14.25,0,0,0,356.41,57a15.38,15.38,0,0,0-.83,5.63V82.28a22.55,22.55,0,0,0,.16,3.74q.17,2.55,1.86,2.65a2.75,2.75,0,0,0,2.11-1.28l1,1.46Z"/><path
        class="cls-3"
        d="M375.45,77.37v8.81q3.72,2,7.35,4.31l6-4.77.83,1.37-12.35,9.53a35.55,35.55,0,0,0-12.93-6.18v-1a5.64,5.64,0,0,0,2.54-3.87,26.72,26.72,0,0,0,.25-4.82V63.61a27.13,27.13,0,0,0-.08-3.87q-.42-1.51-2.7-1.51L364,57.14a165.18,165.18,0,0,0,16.4-9.49l10.33,15.08Zm0-24V74.19L384,66Z"/><path
        class="cls-3"
        d="M424.47,44.49A10.92,10.92,0,0,1,423.28,49a40.54,40.54,0,0,1-2.42,4.25l-7,11.32,8.53,5.8V89.19a25.94,25.94,0,0,0-11.68,7.45,23.7,23.7,0,0,0-4.38-2.72,12.71,12.71,0,0,0-5.08-1,11.83,11.83,0,0,0-8.38,3.75l-1.12-1.08,10.76-17.4-7.88-4.9V56.19A24,24,0,0,0,400.88,53a18.64,18.64,0,0,0,4.79-5.23,20.13,20.13,0,0,0,10.82,3.4,7.29,7.29,0,0,0,2.89-.66,2.72,2.72,0,0,0,1.44-2.5,4.47,4.47,0,0,0-.87-2.36,3.63,3.63,0,0,1-1-2.41q.08-2.78,2.52-2.78a2.82,2.82,0,0,1,2.4,1A6.87,6.87,0,0,1,424.47,44.49Zm-10.57,31-5-3.16-9,14.5a17.48,17.48,0,0,1,5.7-1.18,11.53,11.53,0,0,1,4.37.8,21.69,21.69,0,0,1,3.91,2.11Zm1.26-17.37a25.79,25.79,0,0,1-3.16.19,14.62,14.62,0,0,1-9.12-3.12v13L407.05,71Z"/><path
        class="cls-3"
        d="M58.85,79.17A38.94,38.94,0,0,1,48.37,91.4,23.74,23.74,0,0,1,33.85,96.3a23.07,23.07,0,0,1-18.66-9.16Q7.9,78.36,7.81,65.47a33.72,33.72,0,0,1,5.12-18.36,36.3,36.3,0,0,1,13-12.37l.8,1.09A43.06,43.06,0,0,0,18,46.17a25.54,25.54,0,0,0-3.44,13.69,28.6,28.6,0,0,0,4.89,16.24,7.46,7.46,0,0,0,3-4.44,31.62,31.62,0,0,0,.26-5.48V45.65l16.66-16a32.92,32.92,0,0,0,18.08,5.15l-7.72,8.32a45.58,45.58,0,0,1-12.42-4.82V86.74h1.2a22.55,22.55,0,0,0,10.4-2.65,34.78,34.78,0,0,0,9-6.2ZM35.62,37.1,31,41.36v15q0,3.07.09,6a14.41,14.41,0,0,1-1.63,5.82,23,23,0,0,1-4,5.21Q23.1,75.77,20.68,78q5.93,7.76,14.94,8.66Z"/><path
        class="cls-3"
        d="M84.71,96.61A22.56,22.56,0,0,1,81.28,92a16.83,16.83,0,0,1-1.51-5.64l-11.2,10.3A22.39,22.39,0,0,1,64,91.09a13.36,13.36,0,0,1-2-7.18,19.53,19.53,0,0,1,2.57-9.54A43.64,43.64,0,0,1,70,66.44L62.74,51.61c.71.06,1.42.1,2.1.1a14.06,14.06,0,0,0,9.89-4.06,57.67,57.67,0,0,0,5.64,2.67,12.29,12.29,0,0,0,5.81,1.56,3.12,3.12,0,0,0,2.1-.71A7.77,7.77,0,0,0,90,49.61l1.11.9a19.35,19.35,0,0,0-2.54,6.29,32.71,32.71,0,0,0-.49,7.14V81.39a28.55,28.55,0,0,0,.16,4.16q.33,2.93,2.1,3a2.16,2.16,0,0,0,1.36-.52,11,11,0,0,1,1.11-.76l.82,1.28Zm-4.93-38L65.35,53.3l6.38,12.93,8,4Zm0,13.5-8.92-4.31A29.35,29.35,0,0,0,69.07,78a11,11,0,0,0,1.53,6,23.45,23.45,0,0,0,3.73,4.88l5.43-5Z"/><path
        class="cls-3"
        d="M107.07,96.61a19.24,19.24,0,0,0-10.24-7V88.3a5.38,5.38,0,0,0,2.56-2.93,20.78,20.78,0,0,0,.33-4.16V43.28a27.93,27.93,0,0,0-.5-6.28A6.71,6.71,0,0,0,98,34.5a7.4,7.4,0,0,0-2.35-1.93L96,31.19a16.48,16.48,0,0,1,6.58,4.58A19.85,19.85,0,0,1,112,29.6l.41,1.65a9.47,9.47,0,0,0-3.74,5A23.11,23.11,0,0,0,108,43V85.75l4.15,3.31,1.78-1.56,1.12,1.56Z"/><path
        class="cls-3"
        d="M128.68,96.61a19.24,19.24,0,0,0-10.24-7V88.3A5.38,5.38,0,0,0,121,85.37a20.79,20.79,0,0,0,.33-4.16V43.28a28,28,0,0,0-.5-6.28,6.73,6.73,0,0,0-1.2-2.5,7.43,7.43,0,0,0-2.35-1.93l.33-1.37a16.48,16.48,0,0,1,6.58,4.58,19.85,19.85,0,0,1,9.42-6.17l.41,1.65a9.47,9.47,0,0,0-3.74,5,23.13,23.13,0,0,0-.66,6.73V85.75l4.15,3.31,1.78-1.56,1.12,1.56Z"/><path
        class="cls-3"
        d="M150.61,77.37v8.81q3.71,2,7.35,4.31l6-4.77.83,1.37-12.35,9.53a35.55,35.55,0,0,0-12.93-6.18v-1a5.64,5.64,0,0,0,2.54-3.87,26.6,26.6,0,0,0,.25-4.82V63.61a27,27,0,0,0-.08-3.87q-.42-1.51-2.7-1.51l-.33-1.09a165.34,165.34,0,0,0,16.4-9.49l10.33,15.08Zm0-24V74.19L159.16,66Z"/><path
        class="cls-3"
        d="M188.9,62l-5-7.09-3.39,3.41V85.6l4.13,3.6,3.93-3.59,1.16,1.56-10.2,9.44A28.18,28.18,0,0,0,174.86,92a18.63,18.63,0,0,0-5.66-2.51v-.94a7.2,7.2,0,0,0,2.54-3.4,25.43,25.43,0,0,0,.33-4.44V61.26a32,32,0,0,0-.17-3.69A5,5,0,0,0,170,54.79l-2.44,2.31-1-1.37,8.38-8.13a13.14,13.14,0,0,1,5.91,7.61l7.72-7.89L194.63,56Z"/><path
        class="cls-4"
        d="M265.37,95.06c-.85,0-7-2.61-11.66-6.44-6-5.34-17.28-19.35-18.75-20.92a49.31,49.31,0,0,0-4.12-4c-.82-.78-5.15-3.46-7.67-3.75-1.68-.11-13.21.19-14.82,0-1-.09-3.61-.65-3.61-.65l-.07-.93A58.44,58.44,0,0,0,203,50.59c-1.5-6.19-6.39-10.4-12.05-12.84-8.48-3.6-16.46-2.76-18.65-4.34-.1,2.4,4.07,4,4.48,4.59a9.56,9.56,0,0,1-2.19-.2c-.11,1.37,1.77,2.12,2.61,2.37,0,2.42,1.34,3.74,4.43,5.06-.21,1.1.3,2.12,2.25,2.24-.65.23-.88,2.06,1.23,2.17-.06,3.09,5.72,3.7,6.81,3.85,0,1.15,3.29.93,3.29.93a1.36,1.36,0,0,1,1.5,1.3c-.54,1.22-.19,1.73-.19,1.73a2.72,2.72,0,0,0-.86,1.94,4.52,4.52,0,0,1-.06.48,5,5,0,0,0-1.27,1c-.3.42-.38,1.21-.08,1.2a15.09,15.09,0,0,1,1.81-.56,2.09,2.09,0,0,1,.88.12,2.9,2.9,0,0,1,.7.61c1.36,2,1.19,3,2.26,4.29a13.85,13.85,0,0,0,2.19,2.64c.86,1,3.88,3.77,3.88,3.77s.67,1.1,1,1.63a4.06,4.06,0,0,1-.37,2.69c-.64.81-1.76,2.07-1.89,2.39s-.74,1.76-1,2.65a5.73,5.73,0,0,0-.12,1.87c.91-1.57,1.49-1.63,2.15-1.22a17.14,17.14,0,0,0,.19-1.72c0-.92-.35-1.77.26-2.5S207.58,77.61,208,77a2.17,2.17,0,0,0,.32-.72.62.62,0,0,1,.63.07c.05.12,1.63.76,1.69.9-.27.61-1.08,2.1-1.08,2.1s-.24.07-.3.7-.78,4.76-.78,4.76.76-1,1.37-.57.15-4.47.15-4.47.51-.84.94-1.48a20.7,20.7,0,0,1,1.22,3.27c.1,1,1.94.8,2.29.89,0,.18.71,2.11,2.21,1.35,1.19.65,2.69,1.29,3.32-.69,1.3.27,1.84-.83,1.63-2,.94.12,1.7-.83.76-1.84,1.41-2-1.34-4.2-3.25-5.07a17.58,17.58,0,0,1,5,1.29c1,1.66,1.93,1.08,2.67,1.29A2,2,0,0,0,229,78.42a2.06,2.06,0,0,0,2.42,1.29,2,2,0,0,0,2.34,1.07c.26.62,1.23,1.31,1.88,1,.28.82,2,2.21,2.35,1.16,4.51,5.89,12.37,8.21,12.83,8.25a6.35,6.35,0,0,1,1,.84c.27.21,1.84,1.5,2,.63,2.06,2,7.66,4.1,7.66,4.1s-1.3-1.44-1.24-1.92a8.75,8.75,0,0,0,3.87,1.42A5.61,5.61,0,0,1,262,94.82,6.35,6.35,0,0,0,265.37,95.06Z"/><path
        class="cls-5 no-color-change"
        d="M265.58,95.07c-.85,0-7-2.61-11.66-6.44-6-5.34-17.28-19.35-18.75-20.92a49.49,49.49,0,0,0-4.12-4c-.82-.78-5.15-3.46-7.67-3.75-1.68-.11-13.21.19-14.82,0-1-.09-3.61-.65-3.61-.65l-.07-.93a58.44,58.44,0,0,0-1.67-7.86c-1.5-6.19-6.39-10.4-12.05-12.84-8.48-3.6-16.46-2.76-18.65-4.34-.1,2.4,4.07,4,4.48,4.59a9.55,9.55,0,0,1-2.19-.2c-.11,1.37,1.77,2.12,2.61,2.38,0,2.42,1.34,3.74,4.43,5.06-.21,1.1.3,2.12,2.25,2.24-.66.23-.88,2.06,1.23,2.18-.06,3.09,5.72,3.7,6.81,3.85,0,1.15,3.29.93,3.29.93a1.36,1.36,0,0,1,1.5,1.3c-.54,1.22-.19,1.73-.19,1.73a2.71,2.71,0,0,0-.86,1.94,4.56,4.56,0,0,1-.06.48,5,5,0,0,0-1.27,1c-.3.42-.38,1.21-.08,1.2a15.22,15.22,0,0,1,1.81-.56,2.11,2.11,0,0,1,.88.12,2.94,2.94,0,0,1,.7.61c1.36,2,1.19,3,2.26,4.29a13.84,13.84,0,0,0,2.19,2.64c.86,1,3.88,3.77,3.88,3.77s.67,1.1,1,1.63a4.06,4.06,0,0,1-.38,2.69c-.64.81-1.76,2.07-1.89,2.39s-.74,1.76-1,2.65a5.72,5.72,0,0,0-.12,1.87c.91-1.57,1.49-1.63,2.15-1.22a17.29,17.29,0,0,0,.19-1.72c0-.92-.35-1.77.26-2.49s1.34-1.12,1.79-1.77a2.17,2.17,0,0,0,.32-.72.62.62,0,0,1,.63.07c.05.12,1.63.76,1.69.9-.27.61-1.08,2.1-1.08,2.1s-.24.07-.3.7-.78,4.76-.78,4.76.76-1,1.37-.57.15-4.47.15-4.47.51-.84.94-1.48a20.69,20.69,0,0,1,1.22,3.27c.1,1,1.94.8,2.29.89,0,.19.71,2.11,2.21,1.35,1.19.65,2.69,1.29,3.32-.69,1.3.27,1.84-.83,1.63-2,.94.12,1.7-.83.76-1.84,1.41-2-1.34-4.2-3.25-5.07a17.59,17.59,0,0,1,5,1.29c1,1.66,1.93,1.08,2.67,1.29a2,2,0,0,0,2.14,1.65,2.06,2.06,0,0,0,2.42,1.29A2,2,0,0,0,234,80.79c.26.62,1.23,1.31,1.88,1,.28.82,2,2.21,2.35,1.16,4.51,5.89,12.37,8.21,12.83,8.25a6.32,6.32,0,0,1,1,.84c.27.21,1.84,1.5,2,.62,2.06,2,7.66,4.1,7.66,4.1s-1.3-1.44-1.24-1.92a8.75,8.75,0,0,0,3.87,1.42,5.6,5.6,0,0,1-2.15-1.41A6.35,6.35,0,0,0,265.58,95.07Z"/><path class="cls-6 no-color-change" d="M199,59.58c.58.28,1.61.34,1.49-.6A1.47,1.47,0,0,0,199,59.58Z"/><path class="cls-6 no-color-change" d="M196.34,59a1.42,1.42,0,0,0-.14.79s.62-.27.25-.76Z"/><path
        class="cls-6 no-color-change"
        d="M265.52,94.85c-.85,0-7-2.62-11.66-6.44-6-5.34-17.28-19.35-18.75-20.92a49.58,49.58,0,0,0-4.12-4c-.82-.78-5.15-3.46-7.67-3.75-1.68-.11-13.21.19-14.82,0a17.59,17.59,0,0,1-3.61-.65c3.64,1.8,12.67,1.2,18.64,1.41,3,.44,6.74,3.34,7.33,3.82.94.5,14,15.07,13.08,15.16-2.76-3.21-10.37-11.64-11.48-12.64s-2-1.93-2-1.93-3.74-3.06-7.22-3.69a51.76,51.76,0,0,0-6.71-.29A39.46,39.46,0,0,1,223,62.05c7.68,3.08,11.81,9.64,27.16,25.55A9.85,9.85,0,0,1,246.64,85a5.47,5.47,0,0,0,.66,2.34,8.71,8.71,0,0,1-4.24-4.66c-.43.46,0,1.31.58,2.57a13.72,13.72,0,0,1-3.24-4.89,4.56,4.56,0,0,0,.18,2.26,20.72,20.72,0,0,1-2.89-3.88c-.37.55.07,2.24.07,2.24s-1.28-.52-2.39-3.1a5.84,5.84,0,0,0,.1,2.21,8.89,8.89,0,0,1-4.21-4.46c-.42.29-.45.9-.26,2-1.07-.79-3.54-1.77-4.12-4.38-.24-.14-.14,1.63-.39,1.5-2.86-1.5-6.54-3-9.62-2.18,0-2.07-.52-4.16-2.54-5.36a12.83,12.83,0,0,1,1.54,6.4c2.42-.13,4.24,1.62,5.22,2.58-.42.6-1.59.33-1.59.33L222,78.66a3,3,0,0,1-2.54-.37c-.23,0,1.76,2.23,1.76,2.23a4.81,4.81,0,0,1-3-1,19.54,19.54,0,0,0,1.55,3s-2.84-1.34-3.23-3.13c-.2-.1.16,2.32.3,2.86-2.26-3.45-3.55-6.59-2.57-7.08a7.14,7.14,0,0,0-1.34.54c-.29.1-.73,1-1.46-.12.76-1.7-.31-1.73-.92-2.2s-.67-1-.74-2.68c-.55,1.81-1.78,1.32-3.31.4A25.38,25.38,0,0,1,202,67.23,10.23,10.23,0,0,1,199,63,7.13,7.13,0,0,0,197,60.89c-.08-.14.81-.27,2.25-.46-1-.39-2.69,0-3-.18s-.16-.36-.19-.55c.21-1.37.11-1.21.41-1.66a3.67,3.67,0,0,1,2.37-1.27c1.22-.13,4.24,1.52,4.24,1.52-.46-.48-.77-.78-.77-.78s-.11-1.23-.12-1.49a20.35,20.35,0,0,0-1.66-7.87,22.13,22.13,0,0,0-16-11.23c6.87,1.79,11.4,3.67,13.59,10.57.44,2.93-2.61,3.12-3.21,3.74-.06,0-1.39,1-1-.21-1.47.83-4.37,0-4.37,0a4.86,4.86,0,0,0,2.1-1.82c-1,.69-4.46-.15-4.46-.15s5-1.84,3-1.49a11.24,11.24,0,0,1-4.88-.75s6.47-2.1,2.64-1.26a11.41,11.41,0,0,1-4.14-.79c2.68-1.1,7.17-2.09,2.66-1.37-4.23-.13-4.5-1.5-5.24-2.31,2.38.63,9.3-.1,3.27-.29-4.29-.18-4.81-2.07-4.81-2.46,3.9.5,9.53,1.55,4-.16-1.49-.63-1.63-1.28-1.63-1.28l5.31.7-5.25-1.91c1.3.19,2,0,8.17,2.26,7.6,3,10.75,7.35,12.43,12.79,1.13,3.83,2.09,7.51,2.09,7.51a58.51,58.51,0,0,0-1.67-7.86c-1.5-6.19-6.39-10.4-12.05-12.84-8.48-3.6-16.46-2.76-18.64-4.34-.1,2.4,4.07,4,4.48,4.59a9.47,9.47,0,0,1-2.19-.21c-.11,1.38,1.77,2.12,2.61,2.38,0,2.42,1.34,3.73,4.43,5.06-.21,1.1.3,2.12,2.25,2.24-.66.23-.88,2.06,1.23,2.17-.06,3.09,5.72,3.7,6.81,3.85,0,1.15,3.29.93,3.29.93a1.36,1.36,0,0,1,1.5,1.3c-.54,1.22-.19,1.73-.19,1.73a2.72,2.72,0,0,0-.86,1.94,4.39,4.39,0,0,1-.06.48,5,5,0,0,0-1.27,1c-.3.42-.38,1.21-.08,1.2a15.05,15.05,0,0,1,1.81-.56,2.12,2.12,0,0,1,.88.12,2.88,2.88,0,0,1,.7.61c1.36,2,1.19,3,2.26,4.29a13.87,13.87,0,0,0,2.2,2.64c.85,1,3.88,3.77,3.88,3.77s.67,1.1,1,1.63a4.06,4.06,0,0,1-.38,2.69c-.64.81-1.76,2.07-1.89,2.39s-.74,1.76-1,2.65a5.72,5.72,0,0,0-.12,1.87c.91-1.57,1.49-1.63,2.15-1.22a16.92,16.92,0,0,0,.19-1.73c0-.91-.35-1.77.26-2.49s1.34-1.12,1.79-1.77a2.17,2.17,0,0,0,.32-.72.62.62,0,0,1,.63.07c.05.12,1.63.75,1.69.9-.27.61-1.08,2.1-1.08,2.1s-.24.07-.3.7-.78,4.76-.78,4.76.76-1,1.37-.57.15-4.46.15-4.46.51-.84.94-1.48a20.36,20.36,0,0,1,1.22,3.27c.1,1,1.94.8,2.29.89,0,.18.71,2.1,2.21,1.35,1.19.65,2.69,1.29,3.32-.69,1.3.27,1.83-.83,1.63-2,.94.12,1.7-.83.76-1.84,1.41-2-1.34-4.2-3.25-5.06a17.56,17.56,0,0,1,5,1.29c1,1.66,1.93,1.08,2.66,1.29a2,2,0,0,0,2.14,1.65,2.06,2.06,0,0,0,2.42,1.29,2,2,0,0,0,2.34,1.07c.26.62,1.23,1.31,1.88,1,.28.82,2,2.2,2.35,1.16C242.65,88.6,250.52,90.92,251,91a6.33,6.33,0,0,1,1,.84c.27.21,1.84,1.5,2,.63,2.06,2,7.66,4.1,7.66,4.1s-1.3-1.44-1.24-1.92A8.77,8.77,0,0,0,264.29,96a5.59,5.59,0,0,1-2.15-1.41A6.35,6.35,0,0,0,265.52,94.85Z"/><path
        class="cls-7 no-color-change"
        d="M216,73.81a6.58,6.58,0,0,1,5.22,2.58,12.82,12.82,0,0,1-3.6-1.59,4.65,4.65,0,0,0,2,1.93s-.45.31-2-.43a7.06,7.06,0,0,0,1.92,2.18,6,6,0,0,1-2-1,3.48,3.48,0,0,0,.79,2.29A7.54,7.54,0,0,1,216.6,78a2.65,2.65,0,0,0,.05,1.59,3.78,3.78,0,0,1-.86-1.39c-.32,1.17.65,3.26,1,4.06-1.25-1.37-3.35-5-2.59-6.83C215.86,74.48,216,73.81,216,73.81Z"/><path
        class="cls-8 no-color-change"
        d="M212.57,73.82c-.15-.23-.62-.81-.85-1.13-.91-.25-1.51-1.56-1.35-3.46-1,1.89-1,1.38-2.85.82-3.48-.84-6.21-4.64-6.35-5.15s-1-2.43.22-3.69c-1.85,1.62-4,0-4.22-.12a6.74,6.74,0,0,1,2.35,3.05c2.24,4,4.61,5.53,7.27,7.44s2.84.07,3.15-.71c-.3,2.88,1.23,3,1.23,3l.66,1.15-.24.75s-.11-.06.38.43A4.69,4.69,0,0,0,212.57,73.82Z"/><path
        class="cls-7 no-color-change"
        d="M188.25,38.38a2.09,2.09,0,0,0-2.12.89s2.61.4,3,1a3.4,3.4,0,0,0-2.13.95,7.39,7.39,0,0,1,3.18.73c-1.72.79-1.71,1.4-1.71,1.4a7.7,7.7,0,0,1,3.39.51c-2.88,1.33-2.66,1.69-2.66,1.69s2.78-.72,3.49-.19c-2.13,1.47-1.94,2.34-1.94,2.34a4.12,4.12,0,0,1,3.12-.37c-2,1.51-2.11,2.06-2.11,2.06a6.69,6.69,0,0,1,2.94-.22c-.85,1.4-.67,2.06-.67,2.06l-.08.06s-1.33.86-4.3-.08a22.21,22.21,0,0,1,2-1.62,9.93,9.93,0,0,1-4.36-.35c2.06-.8,3.31-1.36,3.31-1.36s-3.85.08-5.22-.87c1.94-.77,3.71-1.35,3.71-1.35a8.9,8.9,0,0,1-5.21-.7,29.3,29.3,0,0,1,4.49-1.53s-5.78,1.08-7.06-2.15c3.95.54,5.37,0,5.37,0s-6.88,0-6.9-2.73l6.21.76s-3.84-1.22-3.83-2.26A11.18,11.18,0,0,1,188.25,38.38Z"/><path class="cls-9 no-color-change" d="M197.7,42.45c3.9,4.09,5.85,11,5.55,16,.66.32,1.44.71,1.78.91C204.71,56.46,202.45,45.85,197.7,42.45Z"/><path class="cls-8 no-color-change" d="M199,59.58a1.55,1.55,0,0,1,1.54-.57,4.47,4.47,0,0,0,.69-.26C200.32,58.61,199.08,58.62,199,59.58Z"/><path class="cls-8 no-color-change" d="M200.58,59c.48.4.07.75-.31,1,.23,0,1.37-.56,1-1.29C201,58.87,200.29,58.79,200.58,59Z"/><path class="cls-8 no-color-change" d="M196.57,59.42s.06-.34-.22-.41a2.2,2.2,0,0,1,.12-.53C196.82,58.66,196.57,59.42,196.57,59.42Z"/><path class="cls-5 no-color-change" d="M195.89,60.22c0-.18-.52.25-.78.5a1.85,1.85,0,0,0-.61.87A5.37,5.37,0,0,1,196,60.36Z"/><path class="cls-5 no-color-change" d="M211.11,77.25a.48.48,0,0,1,0,.45c-.48.88-.93,1.75-1,1.78a.28.28,0,0,0-.07.39s-.22,3.7-.22,3.7a.65.65,0,0,0-.41.19c0-.14.28-2.89.5-4-.11-.12,0-.32.07-.42C210.5,78.46,210.86,77.77,211.11,77.25Z"/><path
        class="cls-7 no-color-change"
        d="M250.34,87.79s-6.92-7.32-6.22-6.51-9.83-10.82-14.58-14.6a13.59,13.59,0,0,0-7.6-3.62c-2.1-.23-4.2-.69-5.15-.49-8.24-1.91-4.9.66-5.44.76s5.38,4.21,5.3,9.76c-.55.18,3.37-1.37,10.08,2a13.67,13.67,0,0,0,.2-1.53c.25,2.17,4.2,4.24,4.2,4.24a4.89,4.89,0,0,1,.26-2c.77,2.71,4.21,4.46,4.21,4.46a13.88,13.88,0,0,1-.1-2.21,5.25,5.25,0,0,0,2.39,3.1,7.84,7.84,0,0,1,0-1.8,17.68,17.68,0,0,0,2.75,3.36s-.15-1.12-.24-1.89a14.06,14.06,0,0,0,3.38,4.6s-.94-1.81-.58-2.57a8.39,8.39,0,0,0,4.21,4.62,12.38,12.38,0,0,1-.62-2.3A8.8,8.8,0,0,0,250.34,87.79Z"/><path class="cls-7 no-color-change" d="M230.05,66.07c-2.71-1.74-5.5-4-10.1-4.56-4-.5-9.48-.44-13.28-.88,3,1.22,7.61,5.92,7.61,5.92s-3.12-3.55-3-4.12c.5-.36,2.87,0,5.48.14,8.44.41,10.74,1.1,22.81,13.84C234,70.14,234.66,70.07,230.05,66.07Z"/><path class="cls-6 no-color-change" d="M193.56,40.6a6.77,6.77,0,0,1,1.87,2.81c.8,2,.94,2.81.27,4s-2.14,1.47-3.21,1.74-2.94.8-2.94.8h-1.2l1.87,1.74,1.6.4,2,.13,2.67-.27s1.87.13,2.27-1.07a5.81,5.81,0,0,0,.53-3.21,10,10,0,0,0-1.74-3.34c-.67-.67-2-2.14-2-2.14Z"/><path class="cls-10" d="M104.29,107.26H107a2.93,2.93,0,1,1,0,5.84h-1.39v3.65h-1.34Zm2.59,4.72a1.81,1.81,0,1,0,0-3.59h-1.26V112Z"/><path class="cls-10" d="M114,107.26h1.19l3.89,9.48h-1.43l-1-2.48h-4.2l-1,2.48h-1.41S113.56,108.42,114,107.26Zm2.23,5.88-.9-2.34c-.13-.35-.72-1.81-.73-1.93h0c0,.12-.58,1.54-.73,1.93l-.92,2.34Z"/><path class="cls-10" d="M120.47,107.26h2.74c1.77,0,3.15.92,3.15,2.81a2.63,2.63,0,0,1-2.4,2.68l2.9,4H125.3l-2.74-3.86h-.74v3.86h-1.34Zm2.59,4.53c1.24,0,1.95-.66,1.95-1.7s-.7-1.7-1.95-1.7h-1.26v3.41Z"/><path class="cls-10" d="M130.07,108.41h-2.7v-1.15h6.74v1.15h-2.7v8.34h-1.34Z"/><path class="cls-10" d="M137.58,112a5,5,0,1,1,5,4.93A4.81,4.81,0,0,1,137.58,112Zm8.59,0a3.62,3.62,0,1,0-3.62,3.73A3.53,3.53,0,0,0,146.17,112Z"/><path class="cls-10" d="M149.47,107.26h4.78v1.15h-3.45v3.05h3.34v1.15h-3.34v4.13h-1.34Z"/><path class="cls-10" d="M160.3,108.41h-2.7v-1.15h6.74v1.15h-2.7v8.34H160.3Z"/><path class="cls-10" d="M165.75,107.26h1.34v3.89h5v-3.89h1.34v9.48h-1.34V112.3h-5v4.44h-1.34Z"/><path class="cls-10" d="M175.86,107.26H181v1.14h-3.82v2.75h3.71v1.14h-3.71v3.32h3.9v1.13h-5.24Z"/><path class="cls-10" d="M185.58,113.47v-6.22h1.35v5.81c0,1.65.7,2.66,2.28,2.66s2.3-1,2.3-2.66v-5.81h1.35v6.22a3.65,3.65,0,0,1-7.28,0Z"/><path
        class="cls-10"
        d="M194.26,115l.91-.77a2.75,2.75,0,0,0,2.38,1.5,1.64,1.64,0,0,0,1.85-1.61c0-1.12-.93-1.5-2.1-2s-2.39-1.07-2.39-2.58a2.59,2.59,0,0,1,2.86-2.54,3.18,3.18,0,0,1,2.78,1.43l-.91.77a2.15,2.15,0,0,0-1.88-1c-.92,0-1.53.47-1.53,1.27,0,1,.94,1.31,1.77,1.63,1.34.53,2.72,1.16,2.72,2.9a2.88,2.88,0,0,1-3.16,2.88A3.68,3.68,0,0,1,194.26,115Z"/><path class="cls-10" d="M205.35,107.26h1.19l3.89,9.48H209l-1-2.48h-4.2l-1,2.48h-1.41S204.88,108.42,205.35,107.26Zm2.23,5.88-.9-2.34c-.13-.35-.72-1.81-.73-1.93h0c0,.12-.58,1.54-.73,1.93l-.92,2.34Z"/><path class="cls-10" d="M216.08,108.41h-2.7v-1.15h6.74v1.15h-2.7v8.34h-1.34Z"/><path class="cls-10" d="M220.62,112a5,5,0,1,1,5,4.93A4.81,4.81,0,0,1,220.62,112Zm8.59,0a3.62,3.62,0,1,0-3.62,3.73A3.53,3.53,0,0,0,229.21,112Z"/><path class="cls-10" d="M232.51,107.26h2.69c3,0,5,1.73,5,4.74s-2,4.74-5,4.74h-2.69Zm1.34,8.34h1.24c2.21,0,3.75-1.17,3.75-3.59s-1.54-3.59-3.75-3.59h-1.24Z"/><path class="cls-10" d="M244.57,107.26h1.19l3.89,9.48h-1.43l-1-2.48H243l-1,2.48h-1.41S244.1,108.42,244.57,107.26Zm2.23,5.88-.9-2.34c-.13-.35-.72-1.81-.73-1.93h0c0,.12-.58,1.54-.73,1.93l-.92,2.34Z"/><path class="cls-10" d="M252.32,112.88l-3.23-5.62h1.5l1.76,3.16a14,14,0,0,1,.68,1.35h0a14.37,14.37,0,0,1,.68-1.35l1.77-3.16h1.46l-3.23,5.62v3.86h-1.39Z"/><path class="cls-10" d="M260.87,107.26h1l5.38,6.15c.16.18.86,1.05.93,1.19h0c0-.13,0-1.23,0-1.47v-5.85h1.3v9.48h-1l-5.38-6.15c-.16-.17-.86-1.05-.93-1.19h0c0,.14,0,1.23,0,1.47v5.85h-1.3Z"/><path class="cls-10" d="M272,107.26h5.16v1.14h-3.82v2.75H277v1.14h-3.72v3.32h3.9v1.13H272Z"/><path class="cls-10" d="M281.31,108.41h-2.7v-1.15h6.74v1.15h-2.7v8.34h-1.34Z"/><path
        class="cls-10"
        d="M286.47,107.26h1.42l1.95,5.64c.07.22.53,1.62.54,1.84h0a18.92,18.92,0,0,1,.57-1.84l2-5.64h1.07l2,5.64c.08.22.55,1.62.57,1.84h0c0-.22.49-1.62.55-1.84l1.93-5.64h1.36l-3.34,9.48h-1L294,110.83a15.82,15.82,0,0,1-.46-1.54h0a15.9,15.9,0,0,1-.47,1.54l-2.17,5.92h-1Z"/><path class="cls-10" d="M301.13,112a5,5,0,1,1,5,4.93A4.81,4.81,0,0,1,301.13,112Zm8.59,0a3.62,3.62,0,1,0-3.62,3.73A3.53,3.53,0,0,0,309.72,112Z"/><path class="cls-10" d="M313,107.26h2.74c1.77,0,3.15.92,3.15,2.81a2.63,2.63,0,0,1-2.4,2.68l2.9,4h-1.57l-2.74-3.86h-.74v3.86H313Zm2.59,4.53c1.24,0,1.95-.66,1.95-1.7s-.7-1.7-1.95-1.7h-1.26v3.41Z"/><path class="cls-10" d="M320.93,107.26h1.34v4.41l3.92-4.41h1.62l-4.07,4.53,4.26,5h-1.67l-4.05-4.79v4.79h-1.34Z"/></svg>
