<svg xmlns="http://www.w3.org/2000/svg" width="349" height="55" viewBox="0 0 349 55">
  <g fill="none" fill-rule="evenodd">
    <path class='no-color-change' fill="#009BFF" d="M54.177,27.824 C54.177,42.737 42.09,54.824 27.177,54.824 C12.264,54.824 0.177,42.737 0.177,27.824 C0.177,12.911 12.264,0.824 27.177,0.824 C42.09,0.824 54.177,12.911 54.177,27.824"/>
    <path fill="#404040" d="M69.536 21.551C70.516 21.551 71.272 21.263 71.805 20.686 72.338 20.109 72.606 19.287 72.606 18.22L72.606 7.441 77.484 7.441 77.484 18.194C77.484 20.555 76.793 22.382 75.411 23.676 74.031 24.97 72.072 25.617 69.536 25.617 67.001 25.617 65.042 24.97 63.661 23.676 62.28 22.382 61.589 20.555 61.589 18.194L61.589 7.441 66.468 7.441 66.468 18.22C66.468 19.287 66.735 20.109 67.268 20.686 67.801 21.263 68.557 21.551 69.536 21.551M87.24 25.617C85.789 25.617 84.399 25.368 83.071 24.87 81.742 24.37 80.587 23.659 79.609 22.732L81.969 19.768C82.668 20.397 83.454 20.892 84.329 21.249 85.203 21.608 86.165 21.787 87.214 21.787 87.913 21.787 88.464 21.665 88.866 21.42 89.269 21.175 89.47 20.808 89.47 20.319 89.47 19.846 89.235 19.466 88.762 19.178 88.29 18.889 87.459 18.587 86.271 18.273L85.169 17.984C83.56 17.565 82.336 16.922 81.496 16.056 80.658 15.191 80.238 14.094 80.238 12.765 80.238 11.628 80.534 10.631 81.129 9.775 81.724 8.918 82.546 8.258 83.595 7.794 84.644 7.331 85.86 7.099 87.24 7.099 88.605 7.099 89.907 7.349 91.149 7.847 92.39 8.345 93.491 9.023 94.453 9.879L92.014 12.949C91.385 12.407 90.646 11.934 89.798 11.532 88.949 11.13 88.107 10.929 87.267 10.929 86.568 10.929 86.03 11.047 85.654 11.283 85.278 11.519 85.09 11.865 85.09 12.319 85.09 12.739 85.286 13.102 85.68 13.408 86.074 13.713 86.751 13.997 87.713 14.26L89.05 14.627C90.974 15.152 92.333 15.869 93.129 16.778 93.924 17.687 94.323 18.745 94.323 19.952 94.323 21.088 94.03 22.08 93.444 22.928 92.858 23.777 92.032 24.437 90.965 24.909 89.899 25.38 88.657 25.617 87.24 25.617M102.48 18.326L106.702 18.326 104.605 12.082 102.48 18.326zM109.063 25.276L107.936 21.945 101.247 21.945 100.119 25.276 95.293 25.276 101.824 7.441 107.49 7.441 114.021 25.276 109.063 25.276 109.063 25.276z"/>
    <polyline fill="#404040" points="125.219 25.276 125.219 11.374 119.921 11.374 119.921 7.441 135.396 7.441 135.396 11.374 130.098 11.374 130.098 25.276 125.219 25.276"/>
    <path fill="#404040" d="M145.599 21.578C146.455 21.578 147.202 21.359 147.841 20.922 148.48 20.485 148.982 19.877 149.349 19.099 149.716 18.321 149.901 17.416 149.901 16.384 149.901 15.353 149.716 14.444 149.349 13.657 148.982 12.87 148.48 12.253 147.841 11.807 147.202 11.362 146.455 11.139 145.599 11.139 144.741 11.139 143.994 11.362 143.356 11.807 142.718 12.253 142.215 12.87 141.848 13.657 141.481 14.444 141.297 15.353 141.297 16.384 141.297 17.416 141.481 18.321 141.848 19.099 142.215 19.877 142.718 20.485 143.356 20.922 143.994 21.359 144.741 21.578 145.599 21.578zM145.599 25.617C143.815 25.617 142.229 25.223 140.838 24.437 139.449 23.65 138.351 22.561 137.546 21.171 136.742 19.781 136.34 18.186 136.34 16.384 136.34 15.02 136.567 13.775 137.022 12.647 137.477 11.519 138.123 10.539 138.963 9.709 139.802 8.879 140.782 8.236 141.901 7.782 143.019 7.327 144.252 7.099 145.599 7.099 146.945 7.099 148.178 7.327 149.297 7.782 150.415 8.236 151.395 8.879 152.235 9.709 153.074 10.539 153.721 11.519 154.175 12.647 154.63 13.775 154.858 15.02 154.858 16.384 154.858 18.186 154.455 19.781 153.651 21.171 152.846 22.561 151.749 23.65 150.36 24.437 148.969 25.223 147.382 25.617 145.599 25.617L145.599 25.617zM162.463 21.42L164.693 21.42C165.969 21.42 166.979 20.957 167.722 20.03 168.465 19.104 168.837 17.879 168.837 16.358 168.837 14.836 168.465 13.613 167.722 12.686 166.979 11.759 165.969 11.296 164.693 11.296L162.463 11.296 162.463 21.42zM157.663 25.276L157.663 7.441 164.693 7.441C166.459 7.441 168.02 7.821 169.374 8.581 170.73 9.342 171.792 10.391 172.562 11.729 173.33 13.067 173.715 14.61 173.715 16.358 173.715 18.107 173.33 19.65 172.562 20.988 171.792 22.325 170.73 23.374 169.374 24.135 168.02 24.896 166.459 25.276 164.693 25.276L157.663 25.276 157.663 25.276zM181.532 18.326L185.754 18.326 183.657 12.082 181.532 18.326zM188.115 25.276L186.988 21.945 180.299 21.945 179.171 25.276 174.345 25.276 180.876 7.441 186.541 7.441 193.073 25.276 188.115 25.276 188.115 25.276z"/>
    <polyline fill="#404040" points="202.514 18.85 202.514 25.276 197.556 25.276 197.556 18.85 191.236 7.441 196.743 7.441 200.048 14.522 203.326 7.441 208.834 7.441 202.514 18.85"/>
    <polyline fill="#404040" points="227.797 25.276 220.794 14.995 220.794 25.276 216.309 25.276 216.309 7.441 220.768 7.441 227.744 17.906 227.744 7.441 232.256 7.441 232.256 25.276 227.797 25.276"/>
    <polyline fill="#404040" points="236.191 25.276 236.191 7.441 248.492 7.441 248.492 11.348 240.965 11.348 240.965 14.365 247.653 14.365 247.653 18.273 240.965 18.273 240.965 21.368 248.912 21.368 248.912 25.276 236.191 25.276"/>
    <polyline fill="#404040" points="255.914 25.276 255.914 11.374 250.616 11.374 250.616 7.441 266.091 7.441 266.091 11.374 260.793 11.374 260.793 25.276 255.914 25.276"/>
    <polyline fill="#404040" points="282.562 25.276 279.677 13.683 276.791 25.276 271.624 25.276 267.192 7.441 271.913 7.441 274.615 19.611 277.605 7.441 281.775 7.441 284.739 19.532 287.519 7.441 292.161 7.441 287.729 25.276 282.562 25.276"/>
    <path fill="#404040" d="M302.548 21.578C303.405 21.578 304.152 21.359 304.79 20.922 305.429 20.485 305.931 19.877 306.298 19.099 306.665 18.321 306.85 17.416 306.85 16.384 306.85 15.353 306.665 14.444 306.298 13.657 305.931 12.87 305.429 12.253 304.79 11.807 304.152 11.362 303.405 11.139 302.548 11.139 301.691 11.139 300.944 11.362 300.305 11.807 299.667 12.253 299.164 12.87 298.797 13.657 298.43 14.444 298.246 15.353 298.246 16.384 298.246 17.416 298.43 18.321 298.797 19.099 299.164 19.877 299.667 20.485 300.305 20.922 300.944 21.359 301.691 21.578 302.548 21.578zM302.548 25.617C300.764 25.617 299.178 25.223 297.787 24.437 296.398 23.65 295.3 22.561 294.495 21.171 293.692 19.781 293.289 18.186 293.289 16.384 293.289 15.02 293.516 13.775 293.971 12.647 294.426 11.519 295.073 10.539 295.912 9.709 296.751 8.879 297.731 8.236 298.85 7.782 299.968 7.327 301.201 7.099 302.548 7.099 303.894 7.099 305.127 7.327 306.246 7.782 307.365 8.236 308.344 8.879 309.184 9.709 310.023 10.539 310.67 11.519 311.124 12.647 311.579 13.775 311.807 15.02 311.807 16.384 311.807 18.186 311.405 19.781 310.6 21.171 309.795 22.561 308.698 23.65 307.309 24.437 305.918 25.223 304.331 25.617 302.548 25.617L302.548 25.617zM319.387 15.65L322.01 15.65C322.761 15.65 323.356 15.454 323.793 15.06 324.23 14.666 324.448 14.128 324.448 13.447 324.448 12.8 324.23 12.28 323.793 11.886 323.356 11.493 322.761 11.296 322.01 11.296L319.387 11.296 319.387 15.65zM319.387 19.348L319.387 25.276 314.665 25.276 314.665 7.441 322.534 7.441C324.632 7.441 326.293 7.978 327.518 9.053 328.741 10.128 329.354 11.593 329.354 13.447 329.354 14.653 329.082 15.694 328.54 16.568 327.998 17.443 327.238 18.124 326.259 18.614L329.905 25.276 324.711 25.276 321.747 19.348 319.387 19.348 319.387 19.348z"/>
    <polyline fill="#404040" points="343.044 25.276 337.379 16.556 337.379 25.276 332.527 25.276 332.527 7.441 337.379 7.441 337.379 15.27 343.254 7.441 348.867 7.441 342.258 15.637 348.737 25.276 343.044 25.276"/>
    <path class='no-color-change' fill="#009BFF" d="M70.769 48.47C68.95 48.47 67.355 48.077 65.983 47.29 64.61 46.503 63.534 45.414 62.756 44.025 61.978 42.634 61.589 41.021 61.589 39.185 61.589 37.349 61.978 35.741 62.756 34.36 63.534 32.978 64.61 31.898 65.983 31.12 67.355 30.342 68.95 29.953 70.769 29.953 72.308 29.953 73.694 30.263 74.926 30.884 76.159 31.505 77.212 32.401 78.087 33.573L74.231 35.854C73.777 35.278 73.265 34.823 72.696 34.491 72.128 34.159 71.468 33.993 70.716 33.993 69.475 33.993 68.47 34.46 67.701 35.395 66.931 36.33 66.546 37.594 66.546 39.185 66.546 40.777 66.931 42.049 67.701 43.001 68.47 43.954 69.475 44.431 70.716 44.431 71.486 44.431 72.168 44.244 72.762 43.868 73.357 43.492 73.855 43.05 74.257 42.542L78.087 44.825C77.23 46.014 76.176 46.918 74.926 47.539 73.676 48.16 72.29 48.47 70.769 48.47M88.552 44.431C89.408 44.431 90.156 44.212 90.794 43.776 91.433 43.338 91.935 42.731 92.302 41.953 92.669 41.174 92.854 40.27 92.854 39.238 92.854 38.206 92.669 37.297 92.302 36.51 91.935 35.723 91.433 35.107 90.794 34.661 90.156 34.215 89.408 33.993 88.552 33.993 87.695 33.993 86.948 34.215 86.309 34.661 85.671 35.107 85.168 35.723 84.801 36.51 84.434 37.297 84.25 38.206 84.25 39.238 84.25 40.27 84.434 41.174 84.801 41.953 85.168 42.731 85.671 43.338 86.309 43.776 86.948 44.212 87.695 44.431 88.552 44.431zM88.552 48.47C86.768 48.47 85.182 48.077 83.791 47.29 82.402 46.503 81.304 45.414 80.499 44.025 79.696 42.634 79.293 41.039 79.293 39.238 79.293 37.873 79.52 36.628 79.975 35.5 80.43 34.372 81.076 33.393 81.916 32.563 82.755 31.733 83.735 31.089 84.854 30.635 85.972 30.18 87.205 29.953 88.552 29.953 89.898 29.953 91.131 30.18 92.25 30.635 93.368 31.089 94.348 31.733 95.188 32.563 96.027 33.393 96.674 34.372 97.128 35.5 97.583 36.628 97.811 37.873 97.811 39.238 97.811 41.039 97.408 42.634 96.604 44.025 95.799 45.414 94.702 46.503 93.313 47.29 91.922 48.077 90.335 48.47 88.552 48.47L88.552 48.47zM105.444 38.503L108.067 38.503C108.818 38.503 109.412 38.307 109.85 37.913 110.286 37.52 110.505 36.982 110.505 36.3 110.505 35.654 110.286 35.133 109.85 34.74 109.412 34.346 108.818 34.15 108.067 34.15L105.444 34.15 105.444 38.503zM105.444 42.202L105.444 48.129 100.722 48.129 100.722 30.294 108.591 30.294C110.689 30.294 112.35 30.831 113.574 31.907 114.798 32.982 115.41 34.447 115.41 36.3 115.41 37.506 115.139 38.547 114.597 39.421 114.055 40.296 113.294 40.978 112.316 41.467L115.961 48.129 110.768 48.129 107.804 42.202 105.444 42.202 105.444 42.202zM123.305 38.451L125.665 38.451C126.417 38.451 127.012 38.254 127.449 37.861 127.886 37.467 128.105 36.948 128.105 36.3 128.105 35.654 127.886 35.133 127.449 34.74 127.012 34.346 126.417 34.15 125.665 34.15L123.305 34.15 123.305 38.451zM118.583 48.129L118.583 30.294 126.137 30.294C128.236 30.294 129.897 30.831 131.121 31.907 132.345 32.982 132.957 34.447 132.957 36.3 132.957 37.506 132.682 38.552 132.131 39.435 131.58 40.318 130.806 40.999 129.81 41.48 128.813 41.961 127.623 42.202 126.242 42.202L123.305 42.202 123.305 48.129 118.583 48.129 118.583 48.129zM143.264 44.405C144.243 44.405 144.999 44.117 145.532 43.539 146.066 42.962 146.333 42.141 146.333 41.074L146.333 30.294 151.211 30.294 151.211 41.047C151.211 43.409 150.521 45.236 149.139 46.53 147.758 47.824 145.799 48.47 143.264 48.47 140.729 48.47 138.77 47.824 137.389 46.53 136.007 45.236 135.317 43.409 135.317 41.047L135.317 30.294 140.196 30.294 140.196 41.074C140.196 42.141 140.462 42.962 140.995 43.539 141.529 44.117 142.284 44.405 143.264 44.405M161.1 48.47C159.649 48.47 158.258 48.221 156.93 47.723 155.601 47.224 154.447 46.512 153.468 45.585L155.828 42.621C156.528 43.25 157.314 43.745 158.189 44.103 159.063 44.461 160.025 44.641 161.074 44.641 161.773 44.641 162.324 44.519 162.726 44.274 163.128 44.029 163.329 43.662 163.329 43.172 163.329 42.7 163.094 42.32 162.621 42.032 162.15 41.743 161.319 41.441 160.13 41.126L159.029 40.837C157.419 40.418 156.196 39.776 155.356 38.91 154.517 38.044 154.097 36.948 154.097 35.618 154.097 34.482 154.394 33.485 154.989 32.628 155.583 31.772 156.406 31.112 157.454 30.648 158.503 30.185 159.719 29.953 161.1 29.953 162.464 29.953 163.767 30.203 165.008 30.701 166.249 31.199 167.351 31.876 168.313 32.733L165.873 35.802C165.244 35.26 164.505 34.787 163.657 34.385 162.809 33.984 161.966 33.783 161.126 33.783 160.427 33.783 159.889 33.901 159.513 34.136 159.137 34.372 158.949 34.718 158.949 35.172 158.949 35.592 159.146 35.955 159.539 36.261 159.933 36.567 160.611 36.851 161.573 37.114L162.909 37.481C164.833 38.005 166.193 38.722 166.989 39.631 167.783 40.54 168.182 41.598 168.182 42.805 168.182 43.942 167.889 44.934 167.303 45.782 166.717 46.63 165.891 47.29 164.824 47.762 163.758 48.234 162.517 48.47 161.1 48.47M185.571 48.47C183.752 48.47 182.157 48.077 180.784 47.29 179.411 46.503 178.336 45.414 177.558 44.025 176.78 42.634 176.391 41.021 176.391 39.185 176.391 37.349 176.78 35.741 177.558 34.36 178.336 32.978 179.411 31.898 180.784 31.12 182.157 30.342 183.752 29.953 185.571 29.953 187.11 29.953 188.495 30.263 189.728 30.884 190.961 31.505 192.014 32.401 192.889 33.573L189.032 35.854C188.578 35.278 188.067 34.823 187.498 34.491 186.93 34.159 186.27 33.993 185.518 33.993 184.277 33.993 183.272 34.46 182.502 35.395 181.733 36.33 181.348 37.594 181.348 39.185 181.348 40.777 181.733 42.049 182.502 43.001 183.272 43.954 184.277 44.431 185.518 44.431 186.287 44.431 186.97 44.244 187.564 43.868 188.158 43.492 188.657 43.05 189.059 42.542L192.889 44.825C192.032 46.014 190.978 46.918 189.728 47.539 188.478 48.16 187.092 48.47 185.571 48.47"/>
    <polyline class='no-color-change' fill="#009BFF" points="195.38 48.129 195.38 30.294 200.259 30.294 200.259 37.165 206.318 37.165 206.318 30.294 211.197 30.294 211.197 48.129 206.318 48.129 206.318 41.153 200.259 41.153 200.259 48.129 195.38 48.129"/>
    <path class='no-color-change' fill="#009BFF" d="M219.851,38.503 L222.474,38.503 C223.225,38.503 223.82,38.307 224.257,37.913 C224.694,37.52 224.912,36.982 224.912,36.3 C224.912,35.654 224.694,35.133 224.257,34.74 C223.82,34.346 223.225,34.15 222.474,34.15 L219.851,34.15 L219.851,38.503 Z M219.851,42.202 L219.851,48.129 L215.129,48.129 L215.129,30.294 L222.998,30.294 C225.096,30.294 226.757,30.831 227.982,31.907 C229.205,32.982 229.818,34.447 229.818,36.3 C229.818,37.506 229.546,38.547 229.004,39.421 C228.462,40.296 227.701,40.978 226.723,41.467 L230.368,48.129 L225.175,48.129 L222.211,42.202 L219.851,42.202 L219.851,42.202 Z"/>
    <polygon class='no-color-change' fill="#009BFF" points="232.991 48.129 237.87 48.129 237.87 30.294 232.991 30.294"/>
    <path class='no-color-change' fill="#009BFF" d="M248.099,48.47 C246.648,48.47 245.257,48.221 243.929,47.723 C242.6,47.224 241.446,46.512 240.467,45.585 L242.827,42.621 C243.527,43.25 244.313,43.745 245.188,44.103 C246.062,44.461 247.024,44.641 248.073,44.641 C248.772,44.641 249.323,44.519 249.725,44.274 C250.127,44.029 250.328,43.662 250.328,43.172 C250.328,42.7 250.093,42.32 249.62,42.032 C249.149,41.743 248.318,41.441 247.129,41.126 L246.028,40.837 C244.418,40.418 243.195,39.776 242.355,38.91 C241.516,38.044 241.096,36.948 241.096,35.618 C241.096,34.482 241.393,33.485 241.988,32.628 C242.582,31.772 243.405,31.112 244.453,30.648 C245.502,30.185 246.718,29.953 248.099,29.953 C249.463,29.953 250.766,30.203 252.007,30.701 C253.248,31.199 254.35,31.876 255.312,32.733 L252.872,35.802 C252.243,35.26 251.504,34.787 250.656,34.385 C249.808,33.984 248.965,33.783 248.125,33.783 C247.426,33.783 246.888,33.901 246.512,34.136 C246.136,34.372 245.948,34.718 245.948,35.172 C245.948,35.592 246.145,35.955 246.538,36.261 C246.932,36.567 247.61,36.851 248.572,37.114 L249.908,37.481 C251.832,38.005 253.192,38.722 253.988,39.631 C254.782,40.54 255.181,41.598 255.181,42.805 C255.181,43.942 254.888,44.934 254.302,45.782 C253.716,46.63 252.89,47.29 251.823,47.762 C250.757,48.234 249.516,48.47 248.099,48.47"/>
    <polyline class='no-color-change' fill="#009BFF" points="262.053 48.129 262.053 34.228 256.755 34.228 256.755 30.294 272.23 30.294 272.23 34.228 266.932 34.228 266.932 48.129 262.053 48.129"/>
    <polygon class='no-color-change' fill="#009BFF" points="274.799 48.129 279.678 48.129 279.678 30.294 274.799 30.294"/>
  </g>
</svg>
