<svg xmlns="http://www.w3.org/2000/svg" width="269" height="47" viewBox="0 0 269 47">
  <g fill="none" fill-rule="evenodd">
    <path fill="#404040" d="M4.746 43.766L5.832 43.766C6.189 43.766 6.472 43.678 6.68 43.502 6.887 43.326 6.991 43.087 6.991 42.783 6.991 42.479 6.887 42.239 6.68 42.064 6.472 41.888 6.189 41.8 5.832 41.8L4.746 41.8 4.746 43.766zM3.939 46.555L3.939 41.121 5.832 41.121C6.44 41.121 6.922 41.27 7.279 41.568 7.636 41.867 7.814 42.272 7.814 42.783 7.814 43.289 7.636 43.69 7.279 43.986 6.922 44.281 6.44 44.429 5.832 44.429L4.746 44.429 4.746 46.555 3.939 46.555 3.939 46.555zM9.444 44.509L11.427 44.509 10.436 41.96 9.444 44.509zM12.218 46.555L11.69 45.188 9.181 45.188 8.653 46.555 7.838 46.555 10.012 41.121 10.883 41.121 13.049 46.555 12.218 46.555 12.218 46.555zM14.759 43.686L15.87 43.686C16.216 43.686 16.492 43.601 16.697 43.43 16.902 43.26 17.005 43.031 17.005 42.743 17.005 42.455 16.902 42.226 16.697 42.055 16.492 41.885 16.216 41.8 15.87 41.8L14.759 41.8 14.759 43.686zM14.759 44.349L14.759 46.555 13.952 46.555 13.952 41.121 15.87 41.121C16.472 41.121 16.949 41.266 17.3 41.556 17.652 41.847 17.828 42.242 17.828 42.743 17.828 43.121 17.721 43.441 17.508 43.702 17.295 43.963 17.002 44.147 16.629 44.253L17.948 46.555 17.029 46.555 15.79 44.349 14.759 44.349 14.759 44.349z"/>
    <polyline fill="#404040" points="20.145 46.555 20.145 41.8 18.315 41.8 18.315 41.121 22.782 41.121 22.782 41.8 20.952 41.8 20.952 46.555 20.145 46.555"/>
    <path fill="#404040" d="M27.969,45.939 C28.32,45.939 28.633,45.85 28.908,45.672 C29.182,45.493 29.397,45.247 29.551,44.933 C29.705,44.619 29.783,44.253 29.783,43.838 C29.783,43.422 29.705,43.057 29.551,42.743 C29.397,42.429 29.182,42.182 28.908,42.004 C28.633,41.825 28.32,41.736 27.969,41.736 C27.617,41.736 27.305,41.825 27.034,42.004 C26.762,42.182 26.549,42.429 26.394,42.743 C26.24,43.057 26.163,43.422 26.163,43.838 C26.163,44.253 26.24,44.619 26.394,44.933 C26.549,45.247 26.762,45.493 27.034,45.672 C27.305,45.85 27.617,45.939 27.969,45.939 Z M27.969,46.643 C27.457,46.643 27.005,46.523 26.61,46.283 C26.216,46.043 25.906,45.713 25.679,45.292 C25.453,44.871 25.34,44.386 25.34,43.838 C25.34,43.289 25.453,42.804 25.679,42.383 C25.906,41.962 26.216,41.632 26.61,41.392 C27.005,41.153 27.457,41.033 27.969,41.033 C28.48,41.033 28.934,41.153 29.331,41.392 C29.728,41.632 30.04,41.962 30.266,42.383 C30.493,42.804 30.606,43.289 30.606,43.838 C30.606,44.386 30.493,44.871 30.266,45.292 C30.04,45.713 29.728,46.043 29.331,46.283 C28.934,46.523 28.48,46.643 27.969,46.643 L27.969,46.643 Z"/>
    <polyline fill="#404040" points="32.548 46.555 31.741 46.555 31.741 41.121 35.121 41.121 35.121 41.8 32.548 41.8 32.548 43.638 34.73 43.638 34.73 44.317 32.548 44.317 32.548 46.555"/>
    <polyline fill="#404040" points="39.333 46.555 39.333 41.8 37.503 41.8 37.503 41.121 41.97 41.121 41.97 41.8 40.14 41.8 40.14 46.555 39.333 46.555"/>
    <polyline fill="#404040" points="42.897 46.555 42.897 41.121 43.704 41.121 43.704 43.446 46.509 43.446 46.509 41.121 47.316 41.121 47.316 46.555 46.509 46.555 46.509 44.141 43.704 44.141 43.704 46.555 42.897 46.555"/>
    <polyline fill="#404040" points="48.739 46.555 48.739 41.121 52.223 41.121 52.223 41.8 49.546 41.8 49.546 43.478 51.903 43.478 51.903 44.157 49.546 44.157 49.546 45.875 52.287 45.875 52.287 46.555 48.739 46.555"/>
    <path fill="#404040" d="M57.385 45.939C57.827 45.939 58.175 45.807 58.428 45.54 58.681 45.274 58.808 44.914 58.808 44.461L58.808 41.121 59.615 41.121 59.615 44.469C59.615 45.146 59.416 45.677 59.02 46.063 58.623 46.45 58.078 46.643 57.385 46.643 56.692 46.643 56.149 46.45 55.755 46.063 55.361 45.677 55.164 45.146 55.164 44.469L55.164 41.121 55.971 41.121 55.971 44.461C55.971 44.914 56.097 45.274 56.35 45.54 56.603 45.807 56.948 45.939 57.385 45.939M62.628 46.643C62.217 46.643 61.826 46.571 61.453 46.427 61.08 46.283 60.779 46.091 60.55 45.852L61.005 45.316C61.218 45.514 61.47 45.668 61.761 45.78 62.051 45.891 62.34 45.947 62.628 45.947 62.979 45.947 63.263 45.88 63.479 45.744 63.694 45.608 63.802 45.42 63.802 45.18 63.802 44.962 63.725 44.778 63.571 44.629 63.416 44.48 63.152 44.355 62.779 44.253L62.028 44.053C61.543 43.926 61.19 43.744 60.969 43.51 60.748 43.276 60.638 42.97 60.638 42.591 60.638 42.282 60.72 42.01 60.885 41.776 61.05 41.542 61.278 41.359 61.569 41.228 61.859 41.098 62.188 41.033 62.556 41.033 62.945 41.033 63.31 41.106 63.65 41.253 63.992 41.399 64.292 41.603 64.554 41.864L64.066 42.391C63.837 42.178 63.598 42.014 63.351 41.9 63.103 41.785 62.841 41.728 62.564 41.728 62.228 41.728 61.953 41.799 61.741 41.94 61.527 42.081 61.421 42.277 61.421 42.527 61.421 42.756 61.497 42.935 61.649 43.063 61.8 43.19 62.033 43.297 62.348 43.382L63.187 43.614C63.672 43.747 64.026 43.934 64.25 44.174 64.474 44.413 64.586 44.712 64.586 45.068 64.586 45.383 64.503 45.658 64.338 45.896 64.172 46.133 63.943 46.316 63.65 46.447 63.357 46.578 63.017 46.643 62.628 46.643M66.615 44.509L68.597 44.509 67.606 41.96 66.615 44.509zM69.389 46.555L68.861 45.188 66.352 45.188 65.824 46.555 65.009 46.555 67.183 41.121 68.054 41.121 70.22 46.555 69.389 46.555 69.389 46.555z"/>
    <polyline fill="#404040" points="73.976 46.555 73.976 41.8 72.145 41.8 72.145 41.121 76.613 41.121 76.613 41.8 74.783 41.8 74.783 46.555 73.976 46.555"/>
    <path fill="#404040" d="M79.522 45.939C79.873 45.939 80.186 45.85 80.461 45.672 80.735 45.493 80.949 45.247 81.104 44.933 81.258 44.619 81.336 44.253 81.336 43.838 81.336 43.422 81.258 43.057 81.104 42.743 80.949 42.429 80.735 42.182 80.461 42.004 80.186 41.825 79.873 41.736 79.522 41.736 79.17 41.736 78.858 41.825 78.587 42.004 78.315 42.182 78.102 42.429 77.947 42.743 77.793 43.057 77.715 43.422 77.715 43.838 77.715 44.253 77.793 44.619 77.947 44.933 78.102 45.247 78.315 45.493 78.587 45.672 78.858 45.85 79.17 45.939 79.522 45.939zM79.522 46.643C79.01 46.643 78.557 46.523 78.163 46.283 77.769 46.043 77.459 45.713 77.232 45.292 77.006 44.871 76.892 44.386 76.892 43.838 76.892 43.289 77.006 42.804 77.232 42.383 77.459 41.962 77.769 41.632 78.163 41.392 78.557 41.153 79.01 41.033 79.522 41.033 80.033 41.033 80.487 41.153 80.884 41.392 81.281 41.632 81.593 41.962 81.819 42.383 82.046 42.804 82.159 43.289 82.159 43.838 82.159 44.386 82.046 44.871 81.819 45.292 81.593 45.713 81.281 46.043 80.884 46.283 80.487 46.523 80.033 46.643 79.522 46.643L79.522 46.643zM84.101 45.875L85.204 45.875C85.587 45.875 85.916 45.792 86.19 45.624 86.465 45.456 86.675 45.22 86.822 44.917 86.968 44.613 87.042 44.253 87.042 43.838 87.042 43.422 86.968 43.063 86.822 42.759 86.675 42.455 86.465 42.219 86.19 42.052 85.916 41.884 85.587 41.8 85.204 41.8L84.101 41.8 84.101 45.875zM83.294 46.555L83.294 41.121 85.204 41.121C85.736 41.121 86.203 41.234 86.602 41.46 87.002 41.687 87.312 42.004 87.533 42.411 87.754 42.819 87.865 43.294 87.865 43.838 87.865 44.381 87.754 44.857 87.533 45.264 87.312 45.672 87.002 45.989 86.602 46.215 86.203 46.442 85.736 46.555 85.204 46.555L83.294 46.555 83.294 46.555zM89.926 44.509L91.908 44.509 90.917 41.96 89.926 44.509zM92.7 46.555L92.172 45.188 89.663 45.188 89.135 46.555 88.32 46.555 90.494 41.121 91.365 41.121 93.531 46.555 92.7 46.555 92.7 46.555z"/>
    <polyline fill="#404040" points="96.008 44.397 96.008 46.555 95.201 46.555 95.201 44.397 93.291 41.121 94.242 41.121 95.609 43.63 96.975 41.121 97.91 41.121 96.008 44.397"/>
    <polyline fill="#404040" points="104.367 46.555 101.466 42.391 101.466 46.555 100.707 46.555 100.707 41.121 101.458 41.121 104.367 45.284 104.367 41.121 105.118 41.121 105.118 46.555 104.367 46.555"/>
    <polyline fill="#404040" points="106.541 46.555 106.541 41.121 110.025 41.121 110.025 41.8 107.348 41.8 107.348 43.478 109.705 43.478 109.705 44.157 107.348 44.157 107.348 45.875 110.089 45.875 110.089 46.555 106.541 46.555"/>
    <polyline fill="#404040" points="112.487 46.555 112.487 41.8 110.656 41.8 110.656 41.121 115.124 41.121 115.124 41.8 113.294 41.8 113.294 46.555 112.487 46.555"/>
    <polyline fill="#404040" points="120.398 46.555 119.127 42.224 117.857 46.555 117.018 46.555 115.571 41.121 116.37 41.121 117.473 45.42 118.744 41.121 119.511 41.121 120.79 45.436 121.901 41.121 122.684 41.121 121.237 46.555 120.398 46.555"/>
    <path fill="#404040" d="M125.888 45.939C126.24 45.939 126.553 45.85 126.827 45.672 127.102 45.493 127.316 45.247 127.471 44.933 127.625 44.619 127.702 44.253 127.702 43.838 127.702 43.422 127.625 43.057 127.471 42.743 127.316 42.429 127.102 42.182 126.827 42.004 126.553 41.825 126.24 41.736 125.888 41.736 125.537 41.736 125.225 41.825 124.953 42.004 124.682 42.182 124.468 42.429 124.314 42.743 124.16 43.057 124.082 43.422 124.082 43.838 124.082 44.253 124.16 44.619 124.314 44.933 124.468 45.247 124.682 45.493 124.953 45.672 125.225 45.85 125.537 45.939 125.888 45.939zM125.888 46.643C125.377 46.643 124.924 46.523 124.53 46.283 124.136 46.043 123.825 45.713 123.599 45.292 123.372 44.871 123.259 44.386 123.259 43.838 123.259 43.289 123.372 42.804 123.599 42.383 123.825 41.962 124.136 41.632 124.53 41.392 124.924 41.153 125.377 41.033 125.888 41.033 126.4 41.033 126.854 41.153 127.251 41.392 127.648 41.632 127.959 41.962 128.186 42.383 128.412 42.804 128.525 43.289 128.525 43.838 128.525 44.386 128.412 44.871 128.186 45.292 127.959 45.713 127.648 46.043 127.251 46.283 126.854 46.523 126.4 46.643 125.888 46.643L125.888 46.643zM130.467 43.686L131.578 43.686C131.924 43.686 132.2 43.601 132.405 43.43 132.61 43.26 132.713 43.031 132.713 42.743 132.713 42.455 132.61 42.226 132.405 42.055 132.2 41.885 131.924 41.8 131.578 41.8L130.467 41.8 130.467 43.686zM130.467 44.349L130.467 46.555 129.66 46.555 129.66 41.121 131.578 41.121C132.18 41.121 132.657 41.266 133.009 41.556 133.36 41.847 133.536 42.242 133.536 42.743 133.536 43.121 133.429 43.441 133.216 43.702 133.003 43.963 132.71 44.147 132.337 44.253L133.656 46.555 132.737 46.555 131.498 44.349 130.467 44.349 130.467 44.349z"/>
    <polyline fill="#404040" points="137.923 46.555 135.486 43.814 135.486 46.555 134.679 46.555 134.679 41.121 135.486 41.121 135.486 43.502 137.763 41.121 138.762 41.121 136.341 43.614 138.938 46.555 137.923 46.555"/>
    <path class="no-color-change" fill="#009BFF" d="M16.107 35.423C12.986 35.423 10.249 34.748 7.894 33.398 5.539 32.048 3.694 30.18 2.359 27.796 1.024 25.41.357 22.643.357 19.493.357 16.342 1.024 13.583 2.359 11.213 3.694 8.843 5.539 6.991 7.894 5.655 10.249 4.321 12.986 3.653 16.107 3.653 18.746 3.653 21.124 4.186 23.239 5.251 25.354 6.316 27.161 7.853 28.662 9.863L22.047 13.778C21.266 12.788 20.389 12.008 19.414 11.438 18.439 10.868 17.306 10.583 16.017 10.583 13.886 10.583 12.162 11.385 10.842 12.99 9.521 14.595 8.862 16.763 8.862 19.493 8.862 22.223 9.521 24.405 10.842 26.04 12.162 27.675 13.886 28.493 16.017 28.493 17.337 28.493 18.507 28.171 19.527 27.525 20.546 26.881 21.401 26.123 22.092 25.253L28.662 29.168C27.192 31.208 25.384 32.76 23.239 33.825 21.094 34.89 18.717 35.423 16.107 35.423M38.472 27.413C38.472 28.103 38.726 28.666 39.237 29.1 39.747 29.536 40.407 29.753 41.217 29.753 42.297 29.753 43.204 29.385 43.939 28.65 44.674 27.916 45.042 26.993 45.042 25.882L45.042 25.118C44.232 24.968 43.377 24.893 42.477 24.893 41.336 24.893 40.384 25.089 39.619 25.478 38.854 25.868 38.472 26.513 38.472 27.413zM45.357 34.838L44.952 31.823C43.451 34.223 41.172 35.423 38.112 35.423 36.762 35.423 35.539 35.13 34.444 34.546 33.349 33.961 32.479 33.158 31.834 32.138 31.189 31.118 30.867 29.933 30.867 28.583 30.867 26.033 31.864 24.053 33.859 22.643 35.854 21.233 38.487 20.528 41.757 20.528 42.776 20.528 43.856 20.618 44.997 20.798 44.876 19.658 44.389 18.796 43.534 18.211 42.679 17.626 41.636 17.333 40.407 17.333 39.327 17.333 38.239 17.535 37.144 17.94 36.049 18.345 35.007 18.833 34.017 19.403L31.362 14.363C32.862 13.403 34.481 12.661 36.222 12.135 37.961 11.611 39.701 11.348 41.442 11.348 43.541 11.348 45.431 11.708 47.112 12.428 48.791 13.148 50.111 14.243 51.072 15.713 52.031 17.183 52.512 19.043 52.512 21.293L52.512 34.838 45.357 34.838 45.357 34.838z"/>
    <polygon class="no-color-change" fill="#009BFF" points="57.507 34.838 65.337 34.838 65.337 1.988 57.507 1.988"/>
    <polygon class="no-color-change" fill="#009BFF" points="70.826 34.838 78.656 34.838 78.656 1.988 70.826 1.988"/>
    <path class="no-color-change" fill="#009BFF" d="M94.991 17.018C92.44 17.018 90.91 18.368 90.401 21.068L99.131 21.068C98.92 19.598 98.418 18.555 97.623 17.94 96.828 17.326 95.95 17.018 94.991 17.018zM105.701 32.498C104.56 33.308 103.113 33.998 101.358 34.568 99.603 35.137 97.736 35.423 95.756 35.423 93.025 35.423 90.693 34.92 88.758 33.915 86.823 32.911 85.338 31.507 84.303 29.708 83.268 27.908 82.751 25.838 82.751 23.498 82.751 21.129 83.26 19.028 84.281 17.198 85.3 15.368 86.711 13.935 88.511 12.9 90.311 11.865 92.41 11.348 94.811 11.348 97.151 11.348 99.213 11.85 100.998 12.855 102.783 13.861 104.178 15.256 105.183 17.04 106.188 18.826 106.691 20.918 106.691 23.318 106.691 23.648 106.668 23.993 106.623 24.353 106.578 24.713 106.525 25.089 106.466 25.478L90.491 25.478C91.211 28.118 93.175 29.438 96.386 29.438 97.826 29.438 99.1 29.213 100.211 28.763 101.32 28.313 102.25 27.863 103.001 27.413L105.701 32.498 105.701 32.498zM118.525 25.973L118.525 34.838 110.696 34.838 110.696 11.933 117.85 11.933 118.345 15.757C118.825 14.528 119.613 13.53 120.708 12.765 121.803 12.001 123.071 11.618 124.51 11.618 125.321 11.618 125.935 11.723 126.355 11.933L126.355 19.088C126.025 18.968 125.658 18.879 125.253 18.818 124.848 18.758 124.39 18.728 123.88 18.728 122.32 18.728 121.038 19.306 120.033 20.461 119.028 21.616 118.525 23.453 118.525 25.973"/>
    <polyline fill="#404040" points="148.315 34.838 148.315 10.988 139.224 10.988 139.224 4.238 165.775 4.238 165.775 10.988 156.685 10.988 156.685 34.838 148.315 34.838"/>
    <path fill="#404040" d="M169.554 34.838L169.554 11.933C170.814 12.203 172.089 12.338 173.379 12.338 174.698 12.338 176.034 12.203 177.384 11.933L177.384 34.838 169.554 34.838M190.703 21.653L190.703 34.838 182.874 34.838 182.874 11.933 190.073 11.933 190.479 14.858C191.168 13.748 192.068 12.908 193.178 12.338 194.288 11.768 195.473 11.483 196.734 11.483 198.084 11.483 199.313 11.783 200.424 12.382 201.533 12.983 202.433 13.823 203.124 14.903 203.933 13.794 204.991 12.945 206.296 12.36 207.601 11.775 208.973 11.483 210.413 11.483 212.003 11.483 213.406 11.85 214.621 12.586 215.836 13.321 216.788 14.34 217.479 15.645 218.168 16.95 218.513 18.458 218.513 20.168L218.513 34.838 210.683 34.838 210.683 20.978C210.683 20.018 210.421 19.253 209.896 18.683 209.371 18.113 208.703 17.828 207.893 17.828 206.904 17.828 206.108 18.143 205.509 18.773 204.908 19.403 204.609 20.363 204.609 21.653L204.609 34.838 196.779 34.838 196.779 20.978C196.779 20.018 196.523 19.253 196.013 18.683 195.503 18.113 194.813 17.828 193.944 17.828 192.983 17.828 192.203 18.143 191.604 18.773 191.003 19.403 190.703 20.363 190.703 21.653M234.444 17.018C231.893 17.018 230.363 18.368 229.853 21.068L238.583 21.068C238.373 19.598 237.87 18.555 237.076 17.94 236.281 17.326 235.403 17.018 234.444 17.018zM245.154 32.498C244.013 33.308 242.566 33.998 240.811 34.568 239.056 35.137 237.188 35.423 235.208 35.423 232.478 35.423 230.146 34.92 228.211 33.915 226.276 32.911 224.791 31.507 223.756 29.708 222.721 27.908 222.203 25.838 222.203 23.498 222.203 21.129 222.713 19.028 223.733 17.198 224.753 15.368 226.163 13.935 227.964 12.9 229.763 11.865 231.863 11.348 234.263 11.348 236.603 11.348 238.666 11.85 240.451 12.855 242.236 13.861 243.631 15.256 244.636 17.04 245.641 18.826 246.143 20.918 246.143 23.318 246.143 23.648 246.121 23.993 246.076 24.353 246.031 24.713 245.978 25.089 245.918 25.478L229.944 25.478C230.663 28.118 232.628 29.438 235.839 29.438 237.279 29.438 238.553 29.213 239.663 28.763 240.773 28.313 241.703 27.863 242.453 27.413L245.154 32.498 245.154 32.498zM258.653 35.423C256.673 35.423 254.821 35.108 253.095 34.478 251.37 33.848 249.818 32.948 248.438 31.778L251.768 27.368C252.818 28.208 253.951 28.891 255.166 29.415 256.381 29.941 257.573 30.203 258.743 30.203 259.523 30.203 260.145 30.068 260.611 29.798 261.075 29.528 261.308 29.123 261.308 28.583 261.308 28.013 261.045 27.555 260.521 27.211 259.995 26.866 259.058 26.528 257.708 26.198L255.548 25.658C251.258 24.518 249.113 22.223 249.113 18.773 249.113 17.243 249.533 15.923 250.373 14.813 251.213 13.703 252.368 12.848 253.838 12.248 255.308 11.648 257.018 11.348 258.968 11.348 260.888 11.348 262.696 11.648 264.391 12.248 266.085 12.848 267.638 13.718 269.048 14.858L265.628 19.358C264.578 18.518 263.468 17.843 262.298 17.333 261.128 16.823 260.033 16.568 259.013 16.568 257.363 16.568 256.538 17.108 256.538 18.188 256.538 18.668 256.786 19.058 257.281 19.358 257.776 19.658 258.473 19.928 259.373 20.168L262.298 20.978C264.488 21.578 266.108 22.478 267.158 23.678 268.208 24.878 268.733 26.303 268.733 27.953 268.733 29.453 268.313 30.765 267.473 31.89 266.633 33.015 265.455 33.885 263.941 34.501 262.426 35.115 260.663 35.423 258.653 35.423"/>
    <path class="no-color-change" fill="#009BFF" d="M173.379,10.132 C172.089,10.132 170.986,9.675 170.072,8.76 C169.156,7.845 168.699,6.743 168.699,5.453 C168.699,4.163 169.156,3.061 170.072,2.145 C170.986,1.231 172.089,0.773 173.379,0.773 C174.669,0.773 175.771,1.231 176.686,2.145 C177.601,3.061 178.059,4.163 178.059,5.453 C178.059,6.743 177.601,7.845 176.686,8.76 C175.771,9.675 174.669,10.132 173.379,10.132"/>
  </g>
</svg>
