<svg xmlns="http://www.w3.org/2000/svg" width="414" height="47" viewBox="0 0 414 47">
  <g fill="none" fill-rule="evenodd">
    <path fill="#009BFF" class='no-color-change' d="M16.107 35.515C12.986 35.515 10.249 34.84 7.894 33.49 5.539 32.14 3.694 30.272 2.359 27.888 1.024 25.502.357 22.735.357 19.585.357 16.435 1.024 13.675 2.359 11.305 3.694 8.936 5.539 7.083 7.894 5.747 10.249 4.413 12.986 3.745 16.107 3.745 18.746 3.745 21.124 4.278 23.239 5.343 25.354 6.408 27.161 7.945 28.662 9.955L22.047 13.87C21.266 12.88 20.389 12.1 19.414 11.53 18.439 10.96 17.307 10.675 16.017 10.675 13.886 10.675 12.162 11.478 10.842 13.083 9.521 14.687 8.862 16.855 8.862 19.585 8.862 22.315 9.521 24.498 10.842 26.132 12.162 27.768 13.886 28.585 16.017 28.585 17.337 28.585 18.507 28.263 19.527 27.617 20.547 26.973 21.401 26.215 22.092 25.345L28.662 29.26C27.192 31.3 25.384 32.853 23.239 33.917 21.094 34.982 18.717 35.515 16.107 35.515M43.422 29.305C44.801 29.305 45.904 28.772 46.729 27.708 47.554 26.643 47.967 25.226 47.967 23.455 47.967 21.685 47.554 20.275 46.729 19.225 45.904 18.175 44.801 17.65 43.422 17.65 42.042 17.65 40.939 18.175 40.114 19.225 39.289 20.275 38.877 21.685 38.877 23.455 38.877 25.226 39.289 26.643 40.114 27.708 40.939 28.772 42.042 29.305 43.422 29.305zM43.422 35.515C40.962 35.515 38.794 34.997 36.919 33.962 35.044 32.928 33.574 31.51 32.509 29.71 31.444 27.91 30.912 25.825 30.912 23.455 30.912 21.085 31.444 19 32.509 17.2 33.574 15.4 35.044 13.99 36.919 12.97 38.794 11.95 40.962 11.44 43.422 11.44 45.881 11.44 48.049 11.95 49.924 12.97 51.799 13.99 53.269 15.4 54.334 17.2 55.399 19 55.932 21.085 55.932 23.455 55.932 25.825 55.399 27.91 54.334 29.71 53.269 31.51 51.799 32.928 49.924 33.962 48.049 34.997 45.881 35.515 43.422 35.515zM68.532 35.515C66.552 35.515 64.699 35.2 62.974 34.57 61.249 33.94 59.696 33.04 58.317 31.87L61.647 27.46C62.696 28.3 63.829 28.983 65.044 29.507 66.259 30.033 67.451 30.295 68.622 30.295 69.401 30.295 70.024 30.16 70.489 29.89 70.954 29.62 71.187 29.215 71.187 28.675 71.187 28.105 70.924 27.647 70.399 27.303 69.874 26.958 68.937 26.62 67.586 26.29L65.427 25.75C61.136 24.61 58.992 22.315 58.992 18.865 58.992 17.335 59.411 16.015 60.252 14.905 61.091 13.795 62.246 12.94 63.717 12.34 65.186 11.74 66.896 11.44 68.847 11.44 70.766 11.44 72.574 11.74 74.269 12.34 75.964 12.94 77.516 13.81 78.927 14.95L75.507 19.45C74.456 18.61 73.347 17.936 72.177 17.425 71.007 16.915 69.911 16.66 68.892 16.66 67.241 16.66 66.417 17.2 66.417 18.28 66.417 18.76 66.664 19.15 67.159 19.45 67.654 19.75 68.352 20.021 69.252 20.26L72.177 21.07C74.366 21.67 75.986 22.57 77.036 23.77 78.086 24.97 78.612 26.396 78.612 28.045 78.612 29.545 78.191 30.857 77.352 31.982 76.511 33.107 75.334 33.978 73.819 34.593 72.304 35.207 70.541 35.515 68.532 35.515M90.716 22.33L90.716 34.93 82.887 34.93 82.887 2.08 90.716 2.08 90.716 14.68C91.466 13.69 92.419 12.902 93.574 12.317 94.728 11.732 95.982 11.44 97.331 11.44 99.821 11.44 101.816 12.25 103.316 13.87 104.816 15.49 105.566 17.815 105.566 20.845L105.566 34.93 97.736 34.93 97.736 21.745C97.736 20.395 97.436 19.398 96.836 18.752 96.236 18.107 95.396 17.785 94.316 17.785 93.236 17.785 92.366 18.13 91.706 18.82 91.046 19.511 90.716 20.681 90.716 22.33M121.766 29.305C123.146 29.305 124.248 28.772 125.074 27.708 125.898 26.643 126.311 25.226 126.311 23.455 126.311 21.685 125.898 20.275 125.074 19.225 124.248 18.175 123.146 17.65 121.766 17.65 120.386 17.65 119.283 18.175 118.459 19.225 117.633 20.275 117.221 21.685 117.221 23.455 117.221 25.226 117.633 26.643 118.459 27.708 119.283 28.772 120.386 29.305 121.766 29.305zM121.766 35.515C119.306 35.515 117.138 34.997 115.263 33.962 113.388 32.928 111.918 31.51 110.854 29.71 109.788 27.91 109.256 25.825 109.256 23.455 109.256 21.085 109.788 19 110.854 17.2 111.918 15.4 113.388 13.99 115.263 12.97 117.138 11.95 119.306 11.44 121.766 11.44 124.226 11.44 126.393 11.95 128.269 12.97 130.143 13.99 131.613 15.4 132.679 17.2 133.743 19 134.276 21.085 134.276 23.455 134.276 25.825 133.743 27.91 132.679 29.71 131.613 31.51 130.143 32.928 128.269 33.962 126.393 34.997 124.226 35.515 121.766 35.515zM149.081 35.515C146.741 35.515 144.663 35.012 142.848 34.007 141.033 33.003 139.601 31.6 138.551 29.8 137.5 28 136.976 25.9 136.976 23.5 136.976 21.1 137.5 19 138.551 17.2 139.601 15.4 141.033 13.998 142.848 12.992 144.663 11.987 146.741 11.485 149.081 11.485 151.151 11.485 152.966 11.867 154.526 12.632 156.085 13.397 157.466 14.62 158.666 16.3L153.491 20.08C153.07 19.45 152.523 18.933 151.848 18.527 151.173 18.122 150.446 17.92 149.666 17.92 148.316 17.92 147.191 18.423 146.291 19.428 145.391 20.433 144.941 21.79 144.941 23.5 144.941 25.21 145.391 26.567 146.291 27.572 147.191 28.578 148.316 29.08 149.666 29.08 150.446 29.08 151.173 28.877 151.848 28.473 152.523 28.067 153.07 27.55 153.491 26.92L158.666 30.7C157.466 32.38 156.085 33.603 154.526 34.367 152.966 35.132 151.151 35.515 149.081 35.515M179.051 33.445C178.12 34.075 177.055 34.578 175.856 34.952 174.655 35.327 173.395 35.515 172.076 35.515 169.615 35.515 167.658 34.803 166.203 33.377 164.748 31.953 164.021 30.04 164.021 27.64L164.021 17.875 160.285 17.875 160.285 12.025 164.38 12.025 165.37 5.635 171.85 5.635 171.85 12.025 177.836 12.025 177.836 17.875 171.85 17.875 171.85 26.65C171.85 27.431 172.083 28.038 172.548 28.473 173.013 28.908 173.635 29.125 174.416 29.125 174.805 29.125 175.203 29.05 175.608 28.9 176.013 28.75 176.396 28.57 176.755 28.36L179.051 33.445M193.225 29.305C194.605 29.305 195.707 28.772 196.533 27.708 197.357 26.643 197.77 25.226 197.77 23.455 197.77 21.685 197.357 20.275 196.533 19.225 195.707 18.175 194.605 17.65 193.225 17.65 191.845 17.65 190.742 18.175 189.918 19.225 189.092 20.275 188.68 21.685 188.68 23.455 188.68 25.226 189.092 26.643 189.918 27.708 190.742 28.772 191.845 29.305 193.225 29.305zM193.225 35.515C190.765 35.515 188.597 34.997 186.722 33.962 184.847 32.928 183.377 31.51 182.313 29.71 181.247 27.91 180.715 25.825 180.715 23.455 180.715 21.085 181.247 19 182.313 17.2 183.377 15.4 184.847 13.99 186.722 12.97 188.597 11.95 190.765 11.44 193.225 11.44 195.685 11.44 197.852 11.95 199.728 12.97 201.602 13.99 203.072 15.4 204.138 17.2 205.202 19 205.735 21.085 205.735 23.455 205.735 25.825 205.202 27.91 204.138 29.71 203.072 31.51 201.602 32.928 199.728 33.962 197.852 34.997 195.685 35.515 193.225 35.515zM217.66 22.285L217.66 34.93 209.83 34.93 209.83 12.025 216.985 12.025 217.39 15.04C218.139 13.96 219.115 13.09 220.315 12.43 221.514 11.771 222.835 11.44 224.275 11.44 226.764 11.44 228.76 12.25 230.26 13.87 231.76 15.49 232.51 17.815 232.51 20.845L232.51 34.93 224.68 34.93 224.68 21.745C224.68 20.395 224.38 19.398 223.78 18.752 223.18 18.107 222.34 17.785 221.26 17.785 220.18 17.785 219.309 18.13 218.65 18.82 217.99 19.511 217.66 20.665 217.66 22.285"/>
    <polyline fill="#404040" points="253.974 34.93 253.974 11.08 244.884 11.08 244.884 4.33 271.434 4.33 271.434 11.08 262.344 11.08 262.344 34.93 253.974 34.93"/>
    <path fill="#404040" d="M281.919 26.065L281.919 34.93 274.089 34.93 274.089 12.025 281.243 12.025 281.739 15.85C282.218 14.62 283.006 13.622 284.101 12.857 285.196 12.093 286.464 11.71 287.904 11.71 288.714 11.71 289.328 11.815 289.749 12.025L289.749 19.18C289.418 19.061 289.051 18.971 288.646 18.91 288.241 18.85 287.784 18.82 287.274 18.82 285.714 18.82 284.431 19.398 283.426 20.553 282.421 21.708 281.919 23.545 281.919 26.065M293.529 34.93L293.529 12.025C294.788 12.295 296.063 12.43 297.353 12.43 298.673 12.43 300.009 12.295 301.358 12.025L301.358 34.93 293.529 34.93M319.088 29.305C320.438 29.305 321.525 28.772 322.35 27.708 323.175 26.643 323.588 25.226 323.588 23.455 323.588 21.685 323.175 20.268 322.35 19.202 321.525 18.138 320.438 17.605 319.088 17.605 317.708 17.605 316.605 18.138 315.781 19.202 314.955 20.268 314.543 21.685 314.543 23.455 314.543 25.226 314.955 26.643 315.781 27.708 316.605 28.772 317.708 29.305 319.088 29.305zM331.553 23.455C331.553 25.855 331.103 27.963 330.203 29.777 329.303 31.593 328.073 33.003 326.513 34.007 324.953 35.012 323.183 35.515 321.203 35.515 319.583 35.515 318.21 35.178 317.085 34.502 315.96 33.827 315.068 32.965 314.408 31.915L314.003 34.93 306.848 34.93 306.848 2.08 314.678 2.08 314.678 14.635C315.428 13.645 316.388 12.865 317.558 12.295 318.728 11.726 320.123 11.44 321.743 11.44 323.543 11.44 325.185 11.95 326.67 12.97 328.156 13.99 329.34 15.4 330.225 17.2 331.11 19 331.553 21.085 331.553 23.455zM350.768 34.93L350.363 31.915C349.613 33.025 348.63 33.902 347.415 34.547 346.201 35.192 344.888 35.515 343.478 35.515 340.807 35.515 338.767 34.728 337.358 33.152 335.947 31.577 335.243 29.305 335.243 26.335L335.243 12.025 343.073 12.025 343.073 25.435C343.073 27.925 344.213 29.17 346.493 29.17 348.892 29.17 350.093 27.67 350.093 24.67L350.093 12.025 357.923 12.025 357.923 34.93 350.768 34.93M371.242 22.285L371.242 34.93 363.412 34.93 363.412 12.025 370.567 12.025 370.972 15.04C371.722 13.96 372.697 13.09 373.897 12.43 375.097 11.771 376.417 11.44 377.857 11.44 380.347 11.44 382.342 12.25 383.843 13.87 385.342 15.49 386.093 17.815 386.093 20.845L386.093 34.93 378.263 34.93 378.263 21.745C378.263 20.395 377.962 19.398 377.363 18.752 376.762 18.107 375.922 17.785 374.843 17.785 373.763 17.785 372.892 18.13 372.232 18.82 371.572 19.511 371.242 20.665 371.242 22.285M402.022 17.11C399.471 17.11 397.942 18.46 397.432 21.16L406.161 21.16C405.951 19.69 405.449 18.647 404.655 18.032 403.859 17.418 402.982 17.11 402.022 17.11zM412.732 32.59C411.591 33.4 410.144 34.09 408.389 34.66 406.634 35.229 404.767 35.515 402.786 35.515 400.057 35.515 397.724 35.012 395.789 34.007 393.854 33.003 392.369 31.6 391.334 29.8 390.299 28 389.782 25.93 389.782 23.59 389.782 21.221 390.292 19.12 391.312 17.29 392.331 15.46 393.742 14.027 395.541 12.992 397.342 11.958 399.442 11.44 401.842 11.44 404.182 11.44 406.244 11.942 408.03 12.947 409.814 13.953 411.208 15.348 412.214 17.132 413.219 18.918 413.722 21.01 413.722 23.41 413.722 23.74 413.7 24.085 413.655 24.445 413.61 24.805 413.557 25.181 413.496 25.57L397.522 25.57C398.242 28.21 400.206 29.53 403.416 29.53 404.857 29.53 406.131 29.305 407.242 28.855 408.351 28.405 409.282 27.955 410.032 27.505L412.732 32.59z"/>
    <path fill="#009BFF" class='no-color-change' d="M297.353,10.225 C296.063,10.225 294.961,9.768 294.046,8.853 C293.13,7.937 292.673,6.835 292.673,5.545 C292.673,4.255 293.13,3.153 294.046,2.237 C294.961,1.323 296.063,0.865 297.353,0.865 C298.643,0.865 299.745,1.323 300.661,2.237 C301.576,3.153 302.034,4.255 302.034,5.545 C302.034,6.835 301.576,7.937 300.661,8.853 C299.745,9.768 298.643,10.225 297.353,10.225"/>
    <path fill="#404040" d="M4.823 43.809L5.982 43.809C6.363 43.809 6.664 43.722 6.886 43.549 7.107 43.376 7.218 43.139 7.218 42.84 7.218 42.541 7.107 42.305 6.886 42.132 6.664 41.959 6.363 41.872 5.982 41.872L4.823 41.872 4.823 43.809zM3.962 46.556L3.962 41.203 5.982 41.203C6.63 41.203 7.144 41.35 7.525 41.643 7.906 41.938 8.096 42.336 8.096 42.84 8.096 43.339 7.906 43.734 7.525 44.025 7.144 44.317 6.63 44.462 5.982 44.462L4.823 44.462 4.823 46.556 3.962 46.556zM9.835 44.541L11.949 44.541 10.892 42.029 9.835 44.541zM12.793 46.556L12.23 45.21 9.554 45.21 8.991 46.556 8.122 46.556 10.44 41.203 11.369 41.203 13.679 46.556 12.793 46.556zM15.504 43.73L16.689 43.73C17.058 43.73 17.352 43.646 17.571 43.478 17.789 43.31 17.899 43.085 17.899 42.801 17.899 42.518 17.789 42.292 17.571 42.124 17.352 41.956 17.058 41.872 16.689 41.872L15.504 41.872 15.504 43.73zM15.504 44.383L15.504 46.556 14.643 46.556 14.643 41.203 16.689 41.203C17.331 41.203 17.839 41.346 18.214 41.632 18.589 41.918 18.777 42.308 18.777 42.801 18.777 43.174 18.663 43.489 18.436 43.746 18.209 44.003 17.896 44.184 17.498 44.289L18.905 46.556 17.924 46.556 16.603 44.383 15.504 44.383z"/>
    <polyline fill="#404040" points="21.249 46.556 21.249 41.872 19.297 41.872 19.297 41.203 24.062 41.203 24.062 41.872 22.11 41.872 22.11 46.556 21.249 46.556"/>
    <path fill="#404040" d="M29.594,45.95 C29.969,45.95 30.303,45.863 30.596,45.687 C30.888,45.511 31.117,45.268 31.282,44.958 C31.447,44.649 31.529,44.289 31.529,43.879 C31.529,43.47 31.447,43.11 31.282,42.801 C31.117,42.491 30.888,42.248 30.596,42.073 C30.303,41.897 29.969,41.809 29.594,41.809 C29.219,41.809 28.887,41.897 28.597,42.073 C28.307,42.248 28.079,42.491 27.915,42.801 C27.75,43.11 27.667,43.47 27.667,43.879 C27.667,44.289 27.75,44.649 27.915,44.958 C28.079,45.268 28.307,45.511 28.597,45.687 C28.887,45.863 29.219,45.95 29.594,45.95 Z M29.594,46.643 C29.048,46.643 28.565,46.525 28.145,46.289 C27.724,46.052 27.393,45.727 27.152,45.312 C26.91,44.898 26.79,44.42 26.79,43.879 C26.79,43.339 26.91,42.862 27.152,42.447 C27.393,42.032 27.724,41.706 28.145,41.47 C28.565,41.234 29.048,41.116 29.594,41.116 C30.14,41.116 30.624,41.234 31.047,41.47 C31.47,41.706 31.803,42.032 32.045,42.447 C32.286,42.862 32.407,43.339 32.407,43.879 C32.407,44.42 32.286,44.898 32.045,45.312 C31.803,45.727 31.47,46.052 31.047,46.289 C30.624,46.525 30.14,46.643 29.594,46.643 Z"/>
    <polyline fill="#404040" points="34.478 46.556 33.617 46.556 33.617 41.203 37.223 41.203 37.223 41.872 34.478 41.872 34.478 43.683 36.806 43.683 36.806 44.352 34.478 44.352 34.478 46.556"/>
    <polyline fill="#404040" points="41.715 46.556 41.715 41.872 39.764 41.872 39.764 41.203 44.529 41.203 44.529 41.872 42.576 41.872 42.576 46.556 41.715 46.556"/>
    <polyline fill="#404040" points="45.517 46.556 45.517 41.203 46.378 41.203 46.378 43.494 49.37 43.494 49.37 41.203 50.232 41.203 50.232 46.556 49.37 46.556 49.37 44.179 46.378 44.179 46.378 46.556 45.517 46.556"/>
    <polyline fill="#404040" points="51.748 46.556 51.748 41.203 55.465 41.203 55.465 41.872 52.609 41.872 52.609 43.525 55.124 43.525 55.124 44.195 52.609 44.195 52.609 45.887 55.533 45.887 55.533 46.556 51.748 46.556"/>
    <path fill="#404040" d="M60.972 45.95C61.444 45.95 61.814 45.819 62.084 45.556 62.354 45.294 62.489 44.94 62.489 44.493L62.489 41.203 63.35 41.203 63.35 44.502C63.35 45.168 63.138 45.692 62.715 46.072 62.292 46.453 61.71 46.643 60.972 46.643 60.233 46.643 59.653 46.453 59.233 46.072 58.812 45.692 58.602 45.168 58.602 44.502L58.602 41.203 59.463 41.203 59.463 44.493C59.463 44.94 59.598 45.294 59.868 45.556 60.138 45.819 60.506 45.95 60.972 45.95M66.564 46.643C66.126 46.643 65.708 46.572 65.31 46.431 64.913 46.289 64.591 46.1 64.347 45.863L64.833 45.336C65.061 45.53 65.329 45.682 65.639 45.793 65.948 45.903 66.257 45.958 66.564 45.958 66.939 45.958 67.241 45.891 67.472 45.757 67.701 45.623 67.816 45.438 67.816 45.202 67.816 44.987 67.734 44.806 67.569 44.659 67.404 44.512 67.123 44.389 66.725 44.289L65.924 44.092C65.407 43.966 65.03 43.788 64.795 43.557 64.559 43.326 64.441 43.024 64.441 42.652 64.441 42.347 64.529 42.079 64.705 41.848 64.882 41.617 65.124 41.438 65.434 41.309 65.744 41.181 66.095 41.116 66.487 41.116 66.902 41.116 67.291 41.188 67.655 41.333 68.018 41.477 68.339 41.678 68.618 41.935L68.098 42.455C67.853 42.245 67.599 42.083 67.335 41.97 67.071 41.858 66.791 41.801 66.495 41.801 66.138 41.801 65.845 41.871 65.617 42.01 65.39 42.149 65.277 42.342 65.277 42.588 65.277 42.814 65.357 42.99 65.519 43.116 65.681 43.242 65.93 43.347 66.265 43.431L67.16 43.659C67.678 43.79 68.055 43.974 68.294 44.21 68.533 44.446 68.652 44.74 68.652 45.092 68.652 45.402 68.564 45.673 68.388 45.907 68.211 46.14 67.967 46.321 67.655 46.45 67.342 46.579 66.978 46.643 66.564 46.643M70.817 44.541L72.931 44.541 71.874 42.029 70.817 44.541zM73.775 46.556L73.213 45.21 70.536 45.21 69.974 46.556 69.104 46.556 71.423 41.203 72.352 41.203 74.662 46.556 73.775 46.556z"/>
    <polyline fill="#404040" points="78.668 46.556 78.668 41.872 76.716 41.872 76.716 41.203 81.481 41.203 81.481 41.872 79.529 41.872 79.529 46.556 78.668 46.556"/>
    <path fill="#404040" d="M84.584 45.95C84.959 45.95 85.293 45.863 85.586 45.687 85.878 45.511 86.107 45.268 86.271 44.958 86.436 44.649 86.519 44.289 86.519 43.879 86.519 43.47 86.436 43.11 86.271 42.801 86.107 42.491 85.878 42.248 85.586 42.073 85.293 41.897 84.959 41.809 84.584 41.809 84.209 41.809 83.877 41.897 83.587 42.073 83.296 42.248 83.069 42.491 82.905 42.801 82.74 43.11 82.658 43.47 82.658 43.879 82.658 44.289 82.74 44.649 82.905 44.958 83.069 45.268 83.296 45.511 83.587 45.687 83.877 45.863 84.209 45.95 84.584 45.95zM84.584 46.643C84.038 46.643 83.555 46.525 83.135 46.289 82.714 46.052 82.383 45.727 82.141 45.312 81.9 44.898 81.779 44.42 81.779 43.879 81.779 43.339 81.9 42.862 82.141 42.447 82.383 42.032 82.714 41.706 83.135 41.47 83.555 41.234 84.038 41.116 84.584 41.116 85.129 41.116 85.614 41.234 86.037 41.47 86.46 41.706 86.793 42.032 87.035 42.447 87.276 42.862 87.397 43.339 87.397 43.879 87.397 44.42 87.276 44.898 87.035 45.312 86.793 45.727 86.46 46.052 86.037 46.289 85.614 46.525 85.129 46.643 84.584 46.643zM89.468 45.887L90.644 45.887C91.054 45.887 91.404 45.804 91.697 45.639 91.99 45.474 92.214 45.242 92.371 44.942 92.527 44.643 92.605 44.289 92.605 43.879 92.605 43.47 92.527 43.116 92.371 42.817 92.214 42.518 91.99 42.285 91.697 42.12 91.404 41.955 91.054 41.872 90.644 41.872L89.468 41.872 89.468 45.887zM88.607 46.556L88.607 41.203 90.644 41.203C91.212 41.203 91.71 41.314 92.136 41.537 92.563 41.761 92.894 42.073 93.129 42.474 93.365 42.876 93.483 43.344 93.483 43.879 93.483 44.415 93.365 44.883 93.129 45.285 92.894 45.687 92.563 45.999 92.136 46.222 91.71 46.445 91.212 46.556 90.644 46.556L88.607 46.556zM95.682 44.541L97.796 44.541 96.739 42.029 95.682 44.541zM98.64 46.556L98.078 45.21 95.401 45.21 94.838 46.556 93.969 46.556 96.287 41.203 97.217 41.203 99.527 46.556 98.64 46.556z"/>
    <polyline fill="#404040" points="102.169 44.431 102.169 46.556 101.309 46.556 101.309 44.431 99.271 41.203 100.286 41.203 101.743 43.675 103.201 41.203 104.198 41.203 102.169 44.431"/>
    <polyline fill="#404040" points="111.086 46.556 107.991 42.455 107.991 46.556 107.181 46.556 107.181 41.203 107.983 41.203 111.086 45.305 111.086 41.203 111.887 41.203 111.887 46.556 111.086 46.556"/>
    <polyline fill="#404040" points="113.404 46.556 113.404 41.203 117.121 41.203 117.121 41.872 114.265 41.872 114.265 43.525 116.78 43.525 116.78 44.195 114.265 44.195 114.265 45.887 117.189 45.887 117.189 46.556 113.404 46.556"/>
    <polyline fill="#404040" points="119.746 46.556 119.746 41.872 117.794 41.872 117.794 41.203 122.559 41.203 122.559 41.872 120.607 41.872 120.607 46.556 119.746 46.556"/>
    <polyline fill="#404040" points="128.185 46.556 126.83 42.289 125.475 46.556 124.579 46.556 123.037 41.203 123.889 41.203 125.065 45.438 126.42 41.203 127.239 41.203 128.603 45.454 129.788 41.203 130.623 41.203 129.08 46.556 128.185 46.556"/>
    <path fill="#404040" d="M134.041 45.95C134.417 45.95 134.75 45.863 135.043 45.687 135.335 45.511 135.564 45.268 135.729 44.958 135.894 44.649 135.976 44.289 135.976 43.879 135.976 43.47 135.894 43.11 135.729 42.801 135.564 42.491 135.335 42.248 135.043 42.073 134.75 41.897 134.417 41.809 134.041 41.809 133.666 41.809 133.334 41.897 133.044 42.073 132.754 42.248 132.527 42.491 132.362 42.801 132.197 43.11 132.115 43.47 132.115 43.879 132.115 44.289 132.197 44.649 132.362 44.958 132.527 45.268 132.754 45.511 133.044 45.687 133.334 45.863 133.666 45.95 134.041 45.95zM134.041 46.643C133.496 46.643 133.013 46.525 132.593 46.289 132.172 46.052 131.841 45.727 131.599 45.312 131.358 44.898 131.237 44.42 131.237 43.879 131.237 43.339 131.358 42.862 131.599 42.447 131.841 42.032 132.172 41.706 132.593 41.47 133.013 41.234 133.496 41.116 134.041 41.116 134.587 41.116 135.072 41.234 135.495 41.47 135.918 41.706 136.251 42.032 136.492 42.447 136.733 42.862 136.855 43.339 136.855 43.879 136.855 44.42 136.733 44.898 136.492 45.312 136.251 45.727 135.918 46.052 135.495 46.289 135.072 46.525 134.587 46.643 134.041 46.643zM138.926 43.73L140.111 43.73C140.48 43.73 140.774 43.646 140.993 43.478 141.211 43.31 141.321 43.085 141.321 42.801 141.321 42.518 141.211 42.292 140.993 42.124 140.774 41.956 140.48 41.872 140.111 41.872L138.926 41.872 138.926 43.73zM138.926 44.383L138.926 46.556 138.065 46.556 138.065 41.203 140.111 41.203C140.753 41.203 141.261 41.346 141.637 41.632 142.012 41.918 142.199 42.308 142.199 42.801 142.199 43.174 142.086 43.489 141.858 43.746 141.631 44.003 141.318 44.184 140.921 44.289L142.327 46.556 141.347 46.556 140.025 44.383 138.926 44.383z"/>
    <polyline fill="#404040" points="146.879 46.556 144.279 43.856 144.279 46.556 143.418 46.556 143.418 41.203 144.279 41.203 144.279 43.549 146.708 41.203 147.774 41.203 145.191 43.659 147.962 46.556 146.879 46.556"/>
  </g>
</svg>
