<svg xmlns="http://www.w3.org/2000/svg" xmlns:xlink="http://www.w3.org/1999/xlink" width="720" height="94" viewBox="0 0 720 94">
  <defs>
    <style>
      .cls-1 {
        filter: url(#filter);
      }

      .cls-2 {
        fill: #f9f9f9;
      }

      .cls-2, .cls-3 {
        fill-rule: evenodd;
      }

      .cls-3 {
        fill: #fff;
        filter: url(#filter-2);
      }
    </style>
    <filter id="filter" filterUnits="userSpaceOnUse">
      <feFlood result="flood" flood-color="#333"/>
      <feComposite result="composite" operator="in" in2="SourceGraphic"/>
      <feBlend result="blend" in2="SourceGraphic"/>
    </filter>
    <filter id="filter-2" x="386.219" y="79.5" width="332.843" height="14.469" filterUnits="userSpaceOnUse">
      <feFlood result="flood" flood-color="#999"/>
      <feComposite result="composite" operator="in" in2="SourceGraphic"/>
      <feBlend result="blend" in2="SourceGraphic"/>
    </filter>
  </defs>
  <g id="Coshocton" class="cls-1">
    <path class="cls-2" d="M0,34.03C0,15.033,14.215.695,33.979,0.695c7.905,0,14.682,1.918,20.235,5.845v6.119c-4.988-4.75-11.294-7.4-20.235-7.4-16.941,0-28.894,12.33-28.894,28.768S17.038,62.8,33.979,62.8c8.941,0,16.093-2.923,21.082-8.037v6.027a34.741,34.741,0,0,1-21.082,6.577C14.215,67.368,0,53.028,0,34.03Zm60.047,9.5c0-11.6,8.471-23.654,23.905-23.654s23.906,12.056,23.906,23.654-8.47,23.655-23.906,23.655S60.051,55.127,60.051,43.529Zm42.917,0c0-11.233-8.094-19.546-19.012-19.546S64.945,32.3,64.945,43.529s8.094,19.546,19.011,19.546S102.968,54.765,102.968,43.529Zm6.966,14.521,3.482-2.557a15.576,15.576,0,0,0,13.553,7.582c6.494,0,11.67-3.47,11.67-8.949,0-6.03-6.023-8.221-12.517-10.5-6.683-2.376-12.894-5.388-12.894-12.238,0-6.761,5.929-11.508,14.305-11.508,6.682,0,11.577,3.014,14.306,6.849l-3.482,2.831a12.647,12.647,0,0,0-10.73-5.572c-5.552,0-9.5,3.015-9.5,7.308,0,5.114,5.459,6.942,10.258,8.584,6.871,2.376,15.153,5.483,15.153,14.066,0,7.674-6.776,13.243-16.376,13.243C118.592,67.184,112.757,62.894,109.934,58.05ZM151.251,1.973h4.895V27h0.188c2.635-3.835,7.153-7.123,14.588-7.123,10.635,0,17.976,6.21,17.976,17.9V66.09H184V38.962c0-10.32-5.176-14.979-13.271-14.979-8.47,0-14.587,5.117-14.587,15.345V66.09h-4.895V1.973Zm44.425,41.556c0-11.6,8.471-23.654,23.905-23.654s23.905,12.056,23.905,23.654-8.469,23.655-23.9,23.655S195.676,55.127,195.676,43.529Zm42.917,0c0-11.233-8.094-19.546-19.012-19.546S200.57,32.3,200.57,43.529s8.094,19.546,19.011,19.546S238.593,54.765,238.593,43.529Zm8.378,0.092c0-11.509,8.188-23.746,24.093-23.746a24.117,24.117,0,0,1,11.575,2.648v4.933a19.731,19.731,0,0,0-11.67-3.473c-11.1,0-19.1,8.405-19.1,19.546,0,10.959,7.717,19.546,19.295,19.546a19.017,19.017,0,0,0,11.857-3.743v4.93a25.144,25.144,0,0,1-12.047,2.922C255.252,67.184,246.971,55.127,246.971,43.621Zm44.516,11.325V25.262h-6.869V20.971h6.869V8.731h4.9V20.971h12.141v4.291H296.383V54.488c0,5.3,1.6,8.039,5.834,8.039a12.159,12.159,0,0,0,5.554-1V66a22.48,22.48,0,0,1-6.023.731C294.971,66.729,291.487,62.709,291.487,54.946Zm19.2-11.417c0-11.6,8.471-23.654,23.905-23.654s23.9,12.056,23.9,23.654-8.47,23.655-23.9,23.655S310.688,55.127,310.688,43.529Zm42.917,0c0-11.233-8.094-19.546-19.012-19.546S315.581,32.3,315.581,43.529s8.094,19.546,19.012,19.546S353.605,54.765,353.605,43.529Zm12.613-22.559h4.8V27h0.19c2.635-3.835,7.246-7.123,14.682-7.123,10.634,0,17.975,6.21,17.975,17.9V66.09h-4.893V38.962c0-10.32-5.178-14.979-13.273-14.979-8.468,0-14.586,5.117-14.586,15.345V66.09h-4.894V20.971Zm58.446-7.49h-17.5V1.973h49.315V13.481h-17.5V66.09H424.664V13.481Zm33.6,7.49h12.8v6.94h0.187c2.543-4.748,6.5-8.036,12.8-8.036a14.179,14.179,0,0,1,4.519.639V32.388a18.334,18.334,0,0,0-5.742-.916c-7.059,0-10.919,4.2-10.919,11.964V66.09H458.264V20.971ZM490.17,8.641c0-4.293,3.576-7.489,8.095-7.489,4.611,0,8.186,3.2,8.186,7.489s-3.575,7.489-8.186,7.489C493.746,16.13,490.17,12.932,490.17,8.641Zm1.318,12.33h13.646V66.09H491.488V20.971ZM525.37,59.605h-0.187V66.09h-12.8V1.973h13.646V26.817h0.1c2.448-3.473,7.059-6.942,14.871-6.942,13.928,0,23.435,10.23,23.435,23.288,0,10.87-6.213,24.021-23.435,24.021C533.464,67.184,528.477,63.806,525.37,59.605Zm25.319-16.076c0-6.85-4.424-12.785-12.332-12.785-8.091,0-12.515,6.027-12.515,12.785,0,7.035,4.8,12.788,12.515,12.788C545.888,56.317,550.689,50.564,550.689,43.529Zm17.506,4.02V20.971h13.646V45.447c0,6.943,1.79,11.144,8.472,11.144,6.964,0,9.6-4.748,9.6-11.233V20.971h13.554V66.09h-12.8V59.971h-0.19c-2.821,3.836-6.492,7.213-14.491,7.213C573.747,67.184,568.2,59.421,568.2,47.549Zm52.517-26.578h12.8V27.09H633.7c2.92-4.02,7.249-7.215,14.967-7.215,12.328,0,18.07,7.67,18.07,19.637V66.09H653.182V41.519c0-6.3-1.882-11.051-8.849-11.051s-9.975,4.659-9.975,11.144V66.09H620.712V20.971ZM670.6,43.529c0-10.5,6.587-23.654,24.939-23.654s24.47,13.153,24.47,23.288a17.279,17.279,0,0,1-.281,3.288H684.147c0.659,7.124,6.872,10.5,13.646,10.5,6.213,0,10.261-2.557,12.614-5.753l7.527,7.489c-3.857,5.022-10.916,8.491-20.8,8.491C678.878,67.184,670.6,55.22,670.6,43.529Zm36.232-4.84c-1.317-6.211-5.833-9.223-11.293-9.223s-10.07,3.012-11.388,9.223h22.681Z"/>
    <path id="USAT_Network" data-name="USAT Network" class="cls-3" d="M386.221,79.785h4.06c2.855,0,4.765,1.686,4.765,4.285s-1.95,4.281-4.765,4.281h-2.07V93.7h-1.99V79.785Zm3.86,6.923c1.91,0,2.934-1.051,2.934-2.638,0-1.569-1.024-2.638-2.934-2.638h-1.87v5.276h1.87Zm10.644-6.923h1.769l5.789,13.92h-2.132l-1.445-3.646h-6.252L397.007,93.7h-2.091S400.02,81.493,400.725,79.785Zm3.315,8.627-1.346-3.429c-0.2-.517-1.066-2.66-1.086-2.838h-0.039c-0.02.178-.864,2.26-1.086,2.838l-1.366,3.429h4.923Zm6.263-8.627h4.08c2.632,0,4.683,1.352,4.683,4.124a3.881,3.881,0,0,1-3.577,3.928l4.322,5.867h-2.333l-4.08-5.672h-1.105V93.7H410.3V79.785Zm3.86,6.645c1.848,0,2.894-.974,2.894-2.5s-1.046-2.5-2.894-2.5h-1.87v5h1.87Zm10.422-4.959h-4.021V79.785h10.03v1.686h-4.02V93.7h-1.989V81.471Zm11.168,5.276a7.419,7.419,0,1,1,7.417,7.236A7.109,7.109,0,0,1,435.753,86.747Zm12.784,0a5.378,5.378,0,1,0-5.387,5.471A5.22,5.22,0,0,0,448.537,86.747Zm4.914-6.962h7.116v1.686H455.44v4.481h4.965v1.686H455.44V93.7h-1.989V79.785Zm16.114,1.686h-4.02V79.785h10.029v1.686h-4.02V93.7h-1.989V81.471Zm8.1-1.686h1.989V85.5h7.4v-5.71h1.991V93.7H487.05V87.181h-7.4V93.7h-1.989V79.785Zm15.044,0h7.679v1.669H494.7V85.5h5.527v1.669H494.7V92.04h5.809V93.7h-7.8V79.785Zm14.468,9.122V79.785h2.009v8.526c0,2.421,1.047,3.907,3.4,3.907,2.372,0,3.419-1.486,3.419-3.907V79.785h2.009v9.122c0,3.055-1.989,5.076-5.428,5.076C509.124,93.983,507.175,91.962,507.175,88.907Zm12.911,2.282,1.348-1.13a4.092,4.092,0,0,0,3.538,2.2c1.546,0,2.754-.83,2.754-2.36,0-1.643-1.388-2.2-3.117-2.873-1.769-.7-3.558-1.569-3.558-3.79,0-2.2,1.729-3.724,4.262-3.724a4.747,4.747,0,0,1,4.142,2.1l-1.348,1.13a3.214,3.214,0,0,0-2.794-1.508c-1.368,0-2.271.7-2.271,1.865,0,1.447,1.406,1.925,2.633,2.4,1.989,0.774,4.04,1.708,4.04,4.263,0,2.421-1.809,4.225-4.7,4.225A5.486,5.486,0,0,1,520.086,91.188Zm16.5-11.4h1.768l5.79,13.92h-2.133l-1.445-3.646h-6.252L532.867,93.7h-2.09S535.881,81.493,536.586,79.785Zm3.315,8.627-1.346-3.429c-0.2-.517-1.066-2.66-1.086-2.838h-0.04c-0.019.178-.863,2.26-1.086,2.838l-1.366,3.429H539.9Zm12.643-6.94h-4.021V79.785h10.03v1.686h-4.02V93.7h-1.989V81.471Zm6.755,5.276a7.42,7.42,0,1,1,7.418,7.236A7.109,7.109,0,0,1,559.3,86.747Zm12.784,0a5.378,5.378,0,1,0-5.386,5.471A5.219,5.219,0,0,0,572.083,86.747ZM577,79.785h4c4.5,0,7.476,2.538,7.476,6.962,0,4.4-3,6.958-7.476,6.958h-4V79.785Zm1.989,12.233h1.85c3.3,0,5.587-1.721,5.587-5.271s-2.291-5.276-5.587-5.276h-1.85V92.018ZM594.94,79.785h1.769L602.5,93.7h-2.132l-1.446-3.646h-6.251L591.222,93.7h-2.091S594.235,81.493,594.94,79.785Zm3.315,8.627-1.346-3.429c-0.2-.517-1.066-2.66-1.086-2.838h-0.039c-0.02.178-.864,2.26-1.086,2.838l-1.366,3.429h4.923Zm8.217-.378-4.8-8.248H603.9l2.613,4.642a20.545,20.545,0,0,1,1,1.982h0.02a21.044,21.044,0,0,1,1.007-1.982l2.632-4.642h2.17l-4.8,8.248V93.7h-2.071V88.033Zm12.72-8.248h1.526l8,9.022c0.24,0.261,1.287,1.547,1.388,1.747l0.039-.021c-0.039-.2-0.039-1.8-0.039-2.16V79.785h1.93V93.7h-1.549l-8-9.022c-0.24-.256-1.286-1.547-1.385-1.743l-0.02.017c0.02,0.2.039,1.808,0.039,2.164V93.7h-1.929V79.785Zm16.51,0h7.677v1.669h-5.688V85.5h5.53v1.669h-5.53V92.04H643.5V93.7h-7.8V79.785Zm13.9,1.686h-4.02V79.785h10.03v1.686h-4.02V93.7H649.6V81.471Zm7.669-1.686h2.11l2.895,8.27c0.1,0.317.784,2.377,0.8,2.695h0.042a27.312,27.312,0,0,1,.843-2.695l3.016-8.27h1.588l3.014,8.27a28.166,28.166,0,0,1,.846,2.695h0.04c0.039-.317.722-2.377,0.823-2.695l2.875-8.27H678.2L673.233,93.7h-1.527l-3.256-8.683a23.061,23.061,0,0,1-.685-2.26h-0.04a23.171,23.171,0,0,1-.7,2.26L663.787,93.7h-1.529Zm21.815,6.962a7.419,7.419,0,1,1,7.417,7.236A7.109,7.109,0,0,1,679.088,86.747Zm12.783,0a5.378,5.378,0,1,0-5.386,5.471A5.219,5.219,0,0,0,691.871,86.747Zm4.915-6.962h4.08c2.634,0,4.683,1.352,4.683,4.124a3.882,3.882,0,0,1-3.578,3.928l4.323,5.867h-2.333l-4.08-5.672h-1.106V93.7h-1.989V79.785Zm3.859,6.645c1.849,0,2.895-.974,2.895-2.5s-1.046-2.5-2.895-2.5h-1.87v5h1.87Zm7.9-6.645h1.989v6.467l5.829-6.467h2.412l-6.049,6.645,6.331,7.275h-2.491l-6.032-7.036V93.7h-1.989V79.785Z"/>
  </g>
</svg>
