<svg xmlns="http://www.w3.org/2000/svg" xmlns:xlink="http://www.w3.org/1999/xlink" preserveAspectRatio="xMidYMid" width="296" height="60" viewBox="0 0 296 60">
  <path d="M293.623,35.192 L279.194,35.192 C279.462,38.170 281.981,39.582 284.729,39.582 C287.248,39.582 288.890,38.514 289.844,37.178 L292.897,40.308 C291.333,42.407 288.470,43.857 284.462,43.857 C277.057,43.857 273.699,38.857 273.699,33.971 C273.699,29.582 276.370,24.086 283.813,24.086 C291.256,24.086 293.737,29.582 293.737,33.818 C293.737,34.315 293.699,34.811 293.623,35.192 ZM283.813,28.094 C281.600,28.094 279.729,29.353 279.194,31.948 L288.393,31.948 C287.859,29.353 286.027,28.094 283.813,28.094 ZM266.636,33.131 C266.636,30.498 265.873,28.512 263.048,28.512 C260.223,28.512 259.002,30.460 259.002,33.170 L259.002,43.399 L253.468,43.399 L253.468,24.544 L258.659,24.544 L258.659,27.101 L258.735,27.101 C259.919,25.421 261.675,24.086 264.805,24.086 C269.804,24.086 272.133,27.291 272.133,32.292 L272.133,43.399 L266.636,43.399 L266.636,33.131 ZM245.338,40.842 L245.261,40.842 C244.116,42.445 242.628,43.857 239.383,43.857 C234.421,43.857 232.169,40.612 232.169,35.651 L232.169,24.544 L237.703,24.544 L237.703,34.773 C237.703,37.674 238.429,39.430 241.139,39.430 C243.963,39.430 245.032,37.445 245.032,34.735 L245.032,24.544 L250.529,24.544 L250.529,43.399 L245.338,43.399 L245.338,40.842 ZM221.138,43.857 C218.084,43.857 216.061,42.445 214.801,40.689 L214.725,40.689 L214.725,43.399 L209.534,43.399 L209.534,16.604 L215.068,16.604 L215.068,26.987 L215.107,26.987 C216.099,25.535 217.969,24.086 221.138,24.086 C226.786,24.086 230.642,28.361 230.642,33.818 C230.642,38.361 228.122,43.857 221.138,43.857 ZM220.068,28.628 C216.787,28.628 214.992,31.147 214.992,33.971 C214.992,36.911 216.939,39.315 220.068,39.315 C223.122,39.315 225.069,36.911 225.069,33.971 C225.069,31.108 223.275,28.628 220.068,28.628 ZM203.808,22.521 C201.976,22.521 200.525,21.184 200.525,19.391 C200.525,17.597 201.976,16.261 203.808,16.261 C205.678,16.261 207.128,17.597 207.128,19.391 C207.128,21.184 205.678,22.521 203.808,22.521 ZM197.548,28.932 C194.685,28.932 193.120,30.688 193.120,33.932 L193.120,43.399 L187.586,43.399 L187.586,24.544 L192.777,24.544 L192.777,27.444 L192.853,27.444 C193.884,25.460 195.487,24.086 198.044,24.086 C198.693,24.086 199.341,24.162 199.877,24.353 L199.877,29.315 C199.266,29.085 198.350,28.932 197.548,28.932 ZM179.761,43.399 L173.959,43.399 L173.959,21.414 L166.860,21.414 L166.860,16.604 L186.860,16.604 L186.860,21.414 L179.761,21.414 L179.761,43.399 ZM163.539,32.063 C163.539,27.750 161.439,25.802 158.156,25.802 C154.722,25.802 152.240,27.941 152.240,32.215 L152.240,43.399 L150.255,43.399 L150.255,24.544 L152.202,24.544 L152.202,27.062 L152.279,27.062 C153.347,25.460 155.217,24.086 158.233,24.086 C162.546,24.086 165.523,26.681 165.523,31.567 L165.523,43.399 L163.539,43.399 L163.539,32.063 ZM137.430,43.857 C131.171,43.857 127.735,38.818 127.735,33.971 C127.735,29.124 131.171,24.086 137.430,24.086 C143.690,24.086 147.125,29.124 147.125,33.971 C147.125,38.818 143.690,43.857 137.430,43.857 ZM137.430,25.802 C133.002,25.802 129.719,29.277 129.719,33.971 C129.719,38.667 133.002,42.140 137.430,42.140 C141.858,42.140 145.140,38.667 145.140,33.971 C145.140,29.277 141.858,25.802 137.430,25.802 ZM121.933,38.551 C121.933,40.765 122.582,41.911 124.299,41.911 C125.368,41.911 126.018,41.758 126.552,41.491 L126.552,43.361 C125.979,43.514 125.254,43.667 124.109,43.667 C121.361,43.667 119.948,41.987 119.948,38.742 L119.948,26.337 L117.162,26.337 L117.162,24.544 L119.948,24.544 L119.948,19.429 L121.933,19.429 L121.933,24.544 L126.857,24.544 L126.857,26.337 L121.933,26.337 L121.933,38.551 ZM111.626,43.857 C105.252,43.857 101.894,38.818 101.894,34.010 C101.894,29.200 105.214,24.086 111.665,24.086 C113.649,24.086 115.329,24.581 116.359,25.192 L116.359,27.254 C115.291,26.452 113.688,25.802 111.626,25.802 C107.123,25.802 103.878,29.315 103.878,33.971 C103.878,38.551 107.008,42.140 111.704,42.140 C113.764,42.140 115.253,41.529 116.512,40.575 L116.512,42.635 C115.368,43.285 113.688,43.857 111.626,43.857 ZM90.786,43.857 C84.526,43.857 81.091,38.818 81.091,33.971 C81.091,29.124 84.526,24.086 90.786,24.086 C97.046,24.086 100.481,29.124 100.481,33.971 C100.481,38.818 97.046,43.857 90.786,43.857 ZM90.786,25.802 C86.358,25.802 83.075,29.277 83.075,33.971 C83.075,38.667 86.358,42.140 90.786,42.140 C95.214,42.140 98.496,38.667 98.496,33.971 C98.496,29.277 95.214,25.802 90.786,25.802 ZM76.357,32.063 C76.357,27.750 74.258,25.802 70.975,25.802 C67.540,25.802 65.059,27.941 65.059,32.215 L65.059,43.399 L63.074,43.399 L63.074,16.604 L65.059,16.604 L65.059,27.062 L65.135,27.062 C66.204,25.460 68.036,24.086 71.051,24.086 C75.365,24.086 78.342,26.681 78.342,31.567 L78.342,43.399 L76.357,43.399 L76.357,32.063 ZM59.944,38.322 C59.944,41.529 57.196,43.857 53.302,43.857 C49.829,43.857 47.462,42.064 46.317,40.040 L47.730,38.971 C48.722,40.537 50.401,42.140 53.226,42.140 C55.860,42.140 57.959,40.689 57.959,38.399 C57.959,35.880 55.516,34.964 52.882,34.010 C50.172,33.017 47.653,31.758 47.653,28.895 C47.653,26.070 50.058,24.086 53.455,24.086 C56.165,24.086 58.150,25.345 59.257,26.948 L57.844,28.131 C57.043,26.910 55.592,25.802 53.493,25.802 C51.241,25.802 49.638,27.062 49.638,28.857 C49.638,30.994 51.852,31.758 53.798,32.444 C56.585,33.437 59.944,34.735 59.944,38.322 ZM35.782,43.857 C29.522,43.857 26.087,38.818 26.087,33.971 C26.087,29.124 29.522,24.086 35.782,24.086 C42.042,24.086 45.477,29.124 45.477,33.971 C45.477,38.818 42.042,43.857 35.782,43.857 ZM35.782,25.802 C31.354,25.802 28.072,29.277 28.072,33.971 C28.072,38.667 31.354,42.140 35.782,42.140 C40.210,42.140 43.492,38.667 43.492,33.971 C43.492,29.277 40.210,25.802 35.782,25.802 ZM15.513,43.934 C7.498,43.934 1.734,37.941 1.734,30.001 C1.734,22.062 7.498,16.070 15.513,16.070 C18.719,16.070 21.467,16.871 23.720,18.513 L23.720,21.070 C21.697,19.085 19.139,17.979 15.513,17.979 C8.643,17.979 3.795,23.131 3.795,30.001 C3.795,36.872 8.643,42.025 15.513,42.025 C19.139,42.025 22.040,40.804 24.063,38.667 L24.063,41.185 C21.773,42.941 18.872,43.934 15.513,43.934 ZM206.594,43.399 L201.060,43.399 L201.060,24.544 L206.594,24.544 L206.594,43.399 Z"/>
</svg>
