<svg xmlns="http://www.w3.org/2000/svg" width="349" height="55" viewBox="0 0 349 55">
  <g fill="none" fill-rule="evenodd">
    <path class='no-color-change' fill="#009BFF" d="M54.174,27.826 C54.174,42.738 42.087,54.825 27.174,54.825 C12.262,54.825 0.174,42.738 0.174,27.826 C0.174,12.913 12.262,0.825 27.174,0.825 C42.087,0.825 54.174,12.913 54.174,27.826"/>
    <path fill="#404040" d="M69.534 21.554C70.513 21.554 71.268 21.264 71.803 20.688 72.336 20.111 72.604 19.29 72.604 18.224L72.604 7.444 77.482 7.444 77.482 18.198C77.482 20.556 76.79 22.386 75.41 23.678 74.028 24.974 72.069 25.618 69.534 25.618 66.999 25.618 65.04 24.974 63.66 23.678 62.277 22.386 61.586 20.556 61.586 18.198L61.586 7.444 66.466 7.444 66.466 18.224C66.466 19.29 66.731 20.111 67.266 20.688 67.799 21.264 68.554 21.554 69.534 21.554M87.239 25.618C85.787 25.618 84.397 25.37 83.07 24.872 81.74 24.375 80.586 23.659 79.606 22.733L81.968 19.768C82.667 20.401 83.454 20.895 84.328 21.253 85.202 21.61 86.164 21.791 87.213 21.791 87.912 21.791 88.464 21.667 88.865 21.422 89.268 21.177 89.469 20.812 89.469 20.322 89.469 19.848 89.232 19.467 88.761 19.181 88.288 18.891 87.458 18.589 86.269 18.277L85.168 17.987C83.557 17.569 82.335 16.925 81.495 16.058 80.655 15.192 80.235 14.096 80.235 12.766 80.235 11.632 80.533 10.634 81.128 9.775 81.721 8.92 82.544 8.261 83.593 7.798 84.642 7.334 85.857 7.101 87.239 7.101 88.603 7.101 89.906 7.349 91.147 7.85 92.389 8.348 93.49 9.026 94.453 9.881L92.012 12.951C91.383 12.408 90.645 11.937 89.797 11.534 88.948 11.131 88.104 10.932 87.266 10.932 86.565 10.932 86.028 11.048 85.652 11.286 85.277 11.523 85.089 11.866 85.089 12.322 85.089 12.74 85.284 13.105 85.678 13.41 86.072 13.715 86.75 14.002 87.71 14.261L89.049 14.631C90.972 15.154 92.332 15.87 93.127 16.781 93.924 17.689 94.321 18.748 94.321 19.953 94.321 21.091 94.027 22.081 93.441 22.932 92.856 23.78 92.031 24.439 90.963 24.91 89.897 25.385 88.656 25.618 87.239 25.618M102.478 18.33L106.7 18.33 104.602 12.084 102.478 18.33zM109.06 25.279L107.932 21.946 101.244 21.946 100.116 25.279 95.291 25.279 101.822 7.444 107.488 7.444 114.017 25.279 109.06 25.279 109.06 25.279z"/>
    <polyline fill="#404040" points="125.216 25.279 125.216 11.376 119.918 11.376 119.918 7.444 135.393 7.444 135.393 11.376 130.096 11.376 130.096 25.279 125.216 25.279"/>
    <path fill="#404040" d="M145.596 21.58C146.453 21.58 147.2 21.362 147.839 20.925 148.477 20.488 148.98 19.881 149.347 19.102 149.715 18.322 149.897 17.418 149.897 16.386 149.897 15.354 149.715 14.446 149.347 13.659 148.98 12.872 148.477 12.258 147.839 11.809 147.2 11.365 146.453 11.143 145.596 11.143 144.739 11.143 143.991 11.365 143.354 11.809 142.716 12.258 142.213 12.872 141.846 13.659 141.479 14.446 141.294 15.354 141.294 16.386 141.294 17.418 141.479 18.322 141.846 19.102 142.213 19.881 142.716 20.488 143.354 20.925 143.991 21.362 144.739 21.58 145.596 21.58zM145.596 25.618C143.812 25.618 142.226 25.226 140.836 24.439 139.446 23.652 138.348 22.563 137.544 21.173 136.74 19.783 136.337 18.186 136.337 16.386 136.337 15.022 136.565 13.776 137.019 12.649 137.475 11.523 138.121 10.544 138.961 9.711 139.801 8.882 140.778 8.238 141.899 7.783 143.017 7.331 144.249 7.101 145.596 7.101 146.942 7.101 148.176 7.331 149.295 7.783 150.413 8.238 151.393 8.882 152.233 9.711 153.071 10.544 153.719 11.523 154.173 12.649 154.628 13.776 154.854 15.022 154.854 16.386 154.854 18.186 154.453 19.783 153.649 21.173 152.845 22.563 151.747 23.652 150.357 24.439 148.967 25.226 147.379 25.618 145.596 25.618L145.596 25.618zM162.461 21.422L164.691 21.422C165.966 21.422 166.978 20.959 167.72 20.032 168.464 19.105 168.835 17.881 168.835 16.36 168.835 14.838 168.464 13.617 167.72 12.687 166.978 11.76 165.966 11.297 164.691 11.297L162.461 11.297 162.461 21.422zM157.661 25.279L157.661 7.444 164.691 7.444C166.456 7.444 168.017 7.824 169.373 8.585 170.727 9.346 171.79 10.393 172.56 11.73 173.328 13.067 173.713 14.612 173.713 16.36 173.713 18.111 173.328 19.652 172.56 20.989 171.79 22.326 170.727 23.377 169.373 24.138 168.017 24.899 166.456 25.279 164.691 25.279L157.661 25.279 157.661 25.279zM181.528 18.33L185.751 18.33 183.653 12.084 181.528 18.33zM188.111 25.279L186.983 21.946 180.295 21.946 179.167 25.279 174.342 25.279 180.873 7.444 186.538 7.444 193.068 25.279 188.111 25.279 188.111 25.279z"/>
    <polyline fill="#404040" points="202.511 18.853 202.511 25.279 197.554 25.279 197.554 18.853 191.232 7.444 196.74 7.444 200.046 14.525 203.323 7.444 208.832 7.444 202.511 18.853"/>
    <polyline fill="#404040" points="227.795 25.279 220.793 14.996 220.793 25.279 216.307 25.279 216.307 7.444 220.767 7.444 227.743 17.908 227.743 7.444 232.255 7.444 232.255 25.279 227.795 25.279"/>
    <polyline fill="#404040" points="236.188 25.279 236.188 7.444 248.49 7.444 248.49 11.35 240.962 11.35 240.962 14.367 247.65 14.367 247.65 18.277 240.962 18.277 240.962 21.369 248.91 21.369 248.91 25.279 236.188 25.279"/>
    <polyline fill="#404040" points="255.91 25.279 255.91 11.376 250.612 11.376 250.612 7.444 266.088 7.444 266.088 11.376 260.79 11.376 260.79 25.279 255.91 25.279"/>
    <polyline fill="#404040" points="282.558 25.279 279.675 13.685 276.789 25.279 271.621 25.279 267.19 7.444 271.91 7.444 274.612 19.614 277.601 7.444 281.773 7.444 284.735 19.535 287.517 7.444 292.16 7.444 287.726 25.279 282.558 25.279"/>
    <path fill="#404040" d="M302.544 21.58C303.401 21.58 304.149 21.362 304.788 20.925 305.426 20.488 305.929 19.881 306.296 19.102 306.663 18.322 306.846 17.418 306.846 16.386 306.846 15.354 306.663 14.446 306.296 13.659 305.929 12.872 305.426 12.258 304.788 11.809 304.149 11.365 303.401 11.143 302.544 11.143 301.688 11.143 300.94 11.365 300.303 11.809 299.665 12.258 299.162 12.872 298.795 13.659 298.427 14.446 298.243 15.354 298.243 16.386 298.243 17.418 298.427 18.322 298.795 19.102 299.162 19.881 299.665 20.488 300.303 20.925 300.94 21.362 301.688 21.58 302.544 21.58zM302.544 25.618C300.761 25.618 299.175 25.226 297.785 24.439 296.395 23.652 295.297 22.563 294.493 21.173 293.689 19.783 293.286 18.186 293.286 16.386 293.286 15.022 293.514 13.776 293.968 12.649 294.423 11.523 295.069 10.544 295.909 9.711 296.749 8.882 297.727 8.238 298.847 7.783 299.966 7.331 301.198 7.101 302.544 7.101 303.891 7.101 305.125 7.331 306.243 7.783 307.362 8.238 308.341 8.882 309.181 9.711 310.02 10.544 310.667 11.523 311.121 12.649 311.577 13.776 311.803 15.022 311.803 16.386 311.803 18.186 311.402 19.783 310.598 21.173 309.794 22.563 308.696 23.652 307.306 24.439 305.916 25.226 304.328 25.618 302.544 25.618L302.544 25.618zM319.384 15.651L322.007 15.651C322.759 15.651 323.354 15.455 323.791 15.064 324.228 14.668 324.446 14.13 324.446 13.448 324.446 12.804 324.228 12.28 323.791 11.888 323.354 11.497 322.759 11.297 322.007 11.297L319.384 11.297 319.384 15.651zM319.384 19.35L319.384 25.279 314.662 25.279 314.662 7.444 322.531 7.444C324.631 7.444 326.29 7.982 327.514 9.056 328.738 10.133 329.35 11.595 329.35 13.448 329.35 14.657 329.079 15.697 328.539 16.57 327.996 17.444 327.235 18.126 326.256 18.616L329.902 25.279 324.708 25.279 321.745 19.35 319.384 19.35 319.384 19.35z"/>
    <polyline fill="#404040" points="343.043 25.279 337.377 16.559 337.377 25.279 332.524 25.279 332.524 7.444 337.377 7.444 337.377 15.271 343.252 7.444 348.866 7.444 342.255 15.64 348.734 25.279 343.043 25.279"/>
    <path class='no-color-change' fill="#009BFF" d="M66.386,44.275 L68.616,44.275 C69.891,44.275 70.903,43.812 71.645,42.885 C72.389,41.958 72.76,40.734 72.76,39.212 C72.76,37.691 72.389,36.47 71.645,35.54 C70.903,34.613 69.891,34.15 68.616,34.15 L66.386,34.15 L66.386,44.275 Z M61.586,48.132 L61.586,30.296 L68.616,30.296 C70.381,30.296 71.942,30.677 73.298,31.438 C74.652,32.199 75.715,33.246 76.485,34.583 C77.254,35.92 77.638,37.465 77.638,39.212 C77.638,40.964 77.254,42.504 76.485,43.842 C75.715,45.179 74.652,46.23 73.298,46.991 C71.942,47.752 70.381,48.132 68.616,48.132 L61.586,48.132 L61.586,48.132 Z"/>
    <polyline class='no-color-change' fill="#009BFF" points="80.549 48.132 80.549 30.296 92.852 30.296 92.852 34.203 85.324 34.203 85.324 37.22 92.012 37.22 92.012 41.13 85.324 41.13 85.324 44.222 93.272 44.222 93.272 48.132 80.549 48.132"/>
    <polyline class='no-color-change' fill="#009BFF" points="101.217 44.196 108.64 44.196 108.64 48.132 96.338 48.132 96.338 30.296 101.217 30.296 101.217 44.196"/>
    <path class='no-color-change' fill="#009BFF" d="M117.059,41.182 L121.281,41.182 L119.183,34.937 L117.059,41.182 Z M123.641,48.132 L122.513,44.798 L115.825,44.798 L114.697,48.132 L109.872,48.132 L116.403,30.296 L122.068,30.296 L128.598,48.132 L123.641,48.132 L123.641,48.132 Z"/>
    <polyline class='no-color-change' fill="#009BFF" points="143.942 48.132 141.058 36.538 138.173 48.132 133.005 48.132 128.573 30.296 133.293 30.296 135.996 42.467 138.985 30.296 143.156 30.296 146.119 42.388 148.901 30.296 153.543 30.296 149.11 48.132 143.942 48.132"/>
    <path class='no-color-change' fill="#009BFF" d="M160.704 41.182L164.926 41.182 162.828 34.937 160.704 41.182zM167.286 48.132L166.158 44.798 159.47 44.798 158.342 48.132 153.517 48.132 160.048 30.296 165.714 30.296 172.243 48.132 167.286 48.132 167.286 48.132zM179.298 38.504L181.922 38.504C182.673 38.504 183.268 38.308 183.705 37.917 184.142 37.521 184.361 36.982 184.361 36.301 184.361 35.657 184.142 35.133 183.705 34.741 183.268 34.349 182.673 34.15 181.922 34.15L179.298 34.15 179.298 38.504zM179.298 42.203L179.298 48.132 174.577 48.132 174.577 30.296 182.445 30.296C184.545 30.296 186.205 30.835 187.429 31.909 188.653 32.986 189.265 34.447 189.265 36.301 189.265 37.51 188.994 38.549 188.453 39.423 187.911 40.297 187.15 40.979 186.171 41.469L189.817 48.132 184.623 48.132 181.66 42.203 179.298 42.203 179.298 42.203z"/>
    <polyline class='no-color-change' fill="#009BFF" points="192.439 48.132 192.439 30.296 204.741 30.296 204.741 34.203 197.213 34.203 197.213 37.22 203.901 37.22 203.901 41.13 197.213 41.13 197.213 44.222 205.161 44.222 205.161 48.132 192.439 48.132"/>
  </g>
</svg>
