<svg xmlns="http://www.w3.org/2000/svg" width="349" height="55" viewBox="0 0 349 55">
  <g fill="none" fill-rule="evenodd">
    <path class='no-color-change' fill="#009BFF" d="M54.176,27.824 C54.176,42.737 42.09,54.824 27.176,54.824 C12.264,54.824 0.176,42.737 0.176,27.824 C0.176,12.911 12.264,0.824 27.176,0.824 C42.09,0.824 54.176,12.911 54.176,27.824"/>
    <path fill="#404040" d="M69.537 21.551C70.516 21.551 71.272 21.262 71.806 20.686 72.339 20.109 72.606 19.287 72.606 18.22L72.606 7.44 77.484 7.44 77.484 18.194C77.484 20.554 76.793 22.382 75.412 23.675 74.031 24.97 72.072 25.617 69.537 25.617 67.002 25.617 65.043 24.97 63.662 23.675 62.28 22.382 61.59 20.554 61.59 18.194L61.59 7.44 66.468 7.44 66.468 18.22C66.468 19.287 66.735 20.109 67.268 20.686 67.801 21.262 68.557 21.551 69.537 21.551M87.241 25.617C85.79 25.617 84.4 25.368 83.071 24.869 81.742 24.37 80.588 23.659 79.609 22.732L81.969 19.768C82.669 20.397 83.455 20.891 84.33 21.249 85.204 21.608 86.166 21.787 87.215 21.787 87.914 21.787 88.465 21.665 88.867 21.42 89.269 21.175 89.47 20.808 89.47 20.319 89.47 19.846 89.235 19.466 88.762 19.177 88.29 18.889 87.46 18.587 86.271 18.273L85.169 17.984C83.56 17.564 82.337 16.921 81.497 16.056 80.658 15.191 80.238 14.093 80.238 12.764 80.238 11.628 80.535 10.631 81.13 9.775 81.724 8.918 82.546 8.257 83.595 7.794 84.645 7.331 85.86 7.099 87.241 7.099 88.605 7.099 89.907 7.348 91.149 7.847 92.391 8.345 93.492 9.023 94.454 9.879L92.015 12.948C91.386 12.407 90.646 11.934 89.799 11.532 88.95 11.129 88.107 10.928 87.267 10.928 86.568 10.928 86.03 11.046 85.655 11.283 85.278 11.519 85.091 11.864 85.091 12.319 85.091 12.739 85.287 13.101 85.68 13.407 86.074 13.713 86.752 13.997 87.713 14.259L89.051 14.626C90.974 15.152 92.334 15.869 93.13 16.778 93.925 17.687 94.323 18.745 94.323 19.952 94.323 21.088 94.03 22.08 93.444 22.928 92.858 23.777 92.032 24.436 90.966 24.909 89.899 25.38 88.657 25.617 87.241 25.617M102.48 18.325L106.703 18.325 104.604 12.082 102.48 18.325zM109.063 25.276L107.935 21.945 101.247 21.945 100.119 25.276 95.293 25.276 101.824 7.44 107.49 7.44 114.02 25.276 109.063 25.276 109.063 25.276z"/>
    <polyline fill="#404040" points="125.219 25.276 125.219 11.374 119.921 11.374 119.921 7.44 135.396 7.44 135.396 11.374 130.098 11.374 130.098 25.276 125.219 25.276"/>
    <path fill="#404040" d="M145.599 21.578C146.455 21.578 147.203 21.359 147.841 20.921 148.479 20.485 148.982 19.877 149.349 19.099 149.717 18.321 149.9 17.416 149.9 16.384 149.9 15.353 149.717 14.443 149.349 13.657 148.982 12.87 148.479 12.253 147.841 11.807 147.203 11.362 146.455 11.138 145.599 11.138 144.742 11.138 143.994 11.362 143.356 11.807 142.718 12.253 142.215 12.87 141.848 13.657 141.481 14.443 141.297 15.353 141.297 16.384 141.297 17.416 141.481 18.321 141.848 19.099 142.215 19.877 142.718 20.485 143.356 20.921 143.994 21.359 144.742 21.578 145.599 21.578zM145.599 25.617C143.815 25.617 142.228 25.223 140.838 24.436 139.448 23.65 138.35 22.561 137.547 21.17 136.742 19.781 136.34 18.185 136.34 16.384 136.34 15.02 136.567 13.774 137.022 12.647 137.476 11.519 138.123 10.539 138.963 9.708 139.802 8.878 140.781 8.236 141.901 7.781 143.019 7.327 144.252 7.099 145.599 7.099 146.945 7.099 148.178 7.327 149.297 7.781 150.416 8.236 151.395 8.878 152.235 9.708 153.074 10.539 153.72 11.519 154.176 12.647 154.63 13.774 154.857 15.02 154.857 16.384 154.857 18.185 154.455 19.781 153.651 21.17 152.846 22.561 151.749 23.65 150.359 24.436 148.969 25.223 147.382 25.617 145.599 25.617L145.599 25.617zM162.464 21.42L164.693 21.42C165.969 21.42 166.979 20.956 167.722 20.03 168.466 19.103 168.837 17.879 168.837 16.358 168.837 14.836 168.466 13.613 167.722 12.686 166.979 11.759 165.969 11.295 164.693 11.295L162.464 11.295 162.464 21.42zM157.664 25.276L157.664 7.44 164.693 7.44C166.459 7.44 168.019 7.821 169.375 8.581 170.73 9.341 171.792 10.391 172.561 11.729 173.331 13.066 173.716 14.61 173.716 16.358 173.716 18.107 173.331 19.65 172.561 20.987 171.792 22.325 170.73 23.374 169.375 24.134 168.019 24.895 166.459 25.276 164.693 25.276L157.664 25.276 157.664 25.276zM181.532 18.325L185.755 18.325 183.657 12.082 181.532 18.325zM188.115 25.276L186.988 21.945 180.299 21.945 179.171 25.276 174.345 25.276 180.876 7.44 186.541 7.44 193.073 25.276 188.115 25.276 188.115 25.276z"/>
    <polyline fill="#404040" points="202.515 18.85 202.515 25.276 197.558 25.276 197.558 18.85 191.237 7.44 196.744 7.44 200.049 14.522 203.327 7.44 208.836 7.44 202.515 18.85"/>
    <polyline fill="#404040" points="227.798 25.276 220.796 14.993 220.796 25.276 216.31 25.276 216.31 7.44 220.769 7.44 227.745 17.906 227.745 7.44 232.257 7.44 232.257 25.276 227.798 25.276"/>
    <polyline fill="#404040" points="236.192 25.276 236.192 7.44 248.493 7.44 248.493 11.348 240.966 11.348 240.966 14.365 247.654 14.365 247.654 18.273 240.966 18.273 240.966 21.368 248.913 21.368 248.913 25.276 236.192 25.276"/>
    <polyline fill="#404040" points="255.915 25.276 255.915 11.374 250.617 11.374 250.617 7.44 266.091 7.44 266.091 11.374 260.794 11.374 260.794 25.276 255.915 25.276"/>
    <polyline fill="#404040" points="282.562 25.276 279.677 13.682 276.791 25.276 271.624 25.276 267.192 7.44 271.913 7.44 274.615 19.61 277.605 7.44 281.775 7.44 284.739 19.532 287.519 7.44 292.161 7.44 287.729 25.276 282.562 25.276"/>
    <path fill="#404040" d="M302.548 21.578C303.405 21.578 304.152 21.359 304.79 20.921 305.429 20.485 305.931 19.877 306.298 19.099 306.665 18.321 306.85 17.416 306.85 16.384 306.85 15.353 306.665 14.443 306.298 13.657 305.931 12.87 305.429 12.253 304.79 11.807 304.152 11.362 303.405 11.138 302.548 11.138 301.691 11.138 300.944 11.362 300.305 11.807 299.667 12.253 299.164 12.87 298.797 13.657 298.43 14.443 298.246 15.353 298.246 16.384 298.246 17.416 298.43 18.321 298.797 19.099 299.164 19.877 299.667 20.485 300.305 20.921 300.944 21.359 301.691 21.578 302.548 21.578zM302.548 25.617C300.764 25.617 299.178 25.223 297.787 24.436 296.398 23.65 295.3 22.561 294.495 21.17 293.692 19.781 293.289 18.185 293.289 16.384 293.289 15.02 293.516 13.774 293.971 12.647 294.426 11.519 295.073 10.539 295.912 9.708 296.751 8.878 297.731 8.236 298.85 7.781 299.968 7.327 301.201 7.099 302.548 7.099 303.894 7.099 305.127 7.327 306.246 7.781 307.365 8.236 308.344 8.878 309.184 9.708 310.023 10.539 310.67 11.519 311.124 12.647 311.579 13.774 311.807 15.02 311.807 16.384 311.807 18.185 311.405 19.781 310.6 21.17 309.795 22.561 308.698 23.65 307.309 24.436 305.918 25.223 304.331 25.617 302.548 25.617L302.548 25.617zM319.387 15.65L322.01 15.65C322.761 15.65 323.356 15.453 323.793 15.06 324.23 14.666 324.448 14.128 324.448 13.447 324.448 12.8 324.23 12.28 323.793 11.886 323.356 11.493 322.761 11.295 322.01 11.295L319.387 11.295 319.387 15.65zM319.387 19.348L319.387 25.276 314.665 25.276 314.665 7.44 322.534 7.44C324.632 7.44 326.293 7.978 327.518 9.053 328.741 10.128 329.354 11.593 329.354 13.447 329.354 14.653 329.082 15.694 328.54 16.568 327.998 17.442 327.238 18.124 326.259 18.614L329.905 25.276 324.711 25.276 321.747 19.348 319.387 19.348 319.387 19.348z"/>
    <polyline fill="#404040" points="343.044 25.276 337.379 16.556 337.379 25.276 332.527 25.276 332.527 7.44 337.379 7.44 337.379 15.27 343.254 7.44 348.867 7.44 342.258 15.636 348.737 25.276 343.044 25.276"/>
    <path class='no-color-change' fill="#009BFF" d="M66.39,44.274 L68.619,44.274 C69.895,44.274 70.905,43.81 71.649,42.883 C72.392,41.956 72.763,40.733 72.763,39.211 C72.763,37.69 72.392,36.466 71.649,35.539 C70.905,34.613 69.895,34.149 68.619,34.149 L66.39,34.149 L66.39,44.274 Z M61.59,48.129 L61.59,30.293 L68.619,30.293 C70.385,30.293 71.946,30.674 73.301,31.435 C74.656,32.195 75.718,33.245 76.488,34.582 C77.257,35.919 77.642,37.463 77.642,39.211 C77.642,40.96 77.257,42.503 76.488,43.84 C75.718,45.178 74.656,46.228 73.301,46.988 C71.946,47.748 70.385,48.129 68.619,48.129 L61.59,48.129 L61.59,48.129 Z"/>
    <polyline class='no-color-change' fill="#009BFF" points="80.553 48.129 80.553 30.293 92.854 30.293 92.854 34.202 85.326 34.202 85.326 37.218 92.015 37.218 92.015 41.126 85.326 41.126 85.326 44.221 93.274 44.221 93.274 48.129 80.553 48.129"/>
    <polyline class='no-color-change' fill="#009BFF" points="101.221 44.195 108.644 44.195 108.644 48.129 96.343 48.129 96.343 30.293 101.221 30.293 101.221 44.195"/>
    <polyline class='no-color-change' fill="#009BFF" points="119.397 46.477 115.331 37.061 115.331 48.129 111.214 48.129 111.214 30.293 116.669 30.293 121.338 41.441 125.875 30.293 131.331 30.293 131.331 48.129 127.265 48.129 127.265 36.929 123.148 46.477 119.397 46.477"/>
    <path class='no-color-change' fill="#009BFF" d="M140.851 41.178L145.074 41.178 142.976 34.936 140.851 41.178zM147.435 48.129L146.307 44.798 139.619 44.798 138.491 48.129 133.665 48.129 140.196 30.293 145.861 30.293 152.392 48.129 147.435 48.129 147.435 48.129zM159.448 38.503L162.07 38.503C162.822 38.503 163.416 38.306 163.854 37.913 164.291 37.52 164.51 36.982 164.51 36.3 164.51 35.654 164.291 35.133 163.854 34.74 163.416 34.346 162.822 34.149 162.07 34.149L159.448 34.149 159.448 38.503zM159.448 42.202L159.448 48.129 154.726 48.129 154.726 30.293 162.595 30.293C164.693 30.293 166.354 30.831 167.578 31.907 168.802 32.982 169.414 34.447 169.414 36.3 169.414 37.506 169.143 38.547 168.601 39.421 168.059 40.295 167.298 40.978 166.319 41.467L169.965 48.129 164.772 48.129 161.808 42.202 159.448 42.202 159.448 42.202z"/>
    <polyline class='no-color-change' fill="#009BFF" points="188.955 30.293 182.503 48.129 177.178 48.129 170.726 30.293 175.841 30.293 179.88 42.726 184.05 30.293 188.955 30.293"/>
    <path class='no-color-change' fill="#009BFF" d="M195.433,41.178 L199.657,41.178 L197.558,34.936 L195.433,41.178 Z M202.017,48.129 L200.889,44.798 L194.2,44.798 L193.073,48.129 L188.246,48.129 L194.778,30.293 L200.443,30.293 L206.974,48.129 L202.017,48.129 L202.017,48.129 Z"/>
  </g>
</svg>
