<svg xmlns="http://www.w3.org/2000/svg" width="319" height="35" viewBox="0 0 319 35">
  <g fill="none" fill-rule="evenodd">
    <path class="no-color-change" fill="#009BFF" d="M13.117 28.183C14.467 28.183 15.554 27.651 16.38 26.585 17.204 25.521 17.617 24.104 17.617 22.333 17.617 20.563 17.204 19.146 16.38 18.08 15.554 17.016 14.467 16.483 13.117 16.483 11.737 16.483 10.634 17.016 9.81 18.08 8.984 19.146 8.572 20.563 8.572 22.333 8.572 24.104 8.984 25.521 9.81 26.585 10.634 27.651 11.737 28.183 13.117 28.183zM18.157 33.808L17.752 30.793C17.032 31.903 16.102 32.78 14.962 33.425 13.821 34.07 12.501 34.393 11.002 34.393 8.932 34.393 7.116 33.882 5.557 32.862 3.997 31.843 2.782 30.426 1.912 28.611 1.042 26.795.607 24.703.607 22.333.607 19.963 1.042 17.878 1.912 16.077 2.782 14.277 3.974 12.868 5.489 11.848 7.004 10.828 8.752 10.318 10.732 10.318 12.111 10.318 13.387 10.611 14.557 11.195 15.727 11.78 16.701 12.568 17.482 13.558L17.482.958 25.312.958 25.312 33.808 18.157 33.808 18.157 33.808zM41.646 15.987C39.096 15.987 37.566 17.338 37.057 20.038L45.787 20.038C45.576 18.569 45.074 17.526 44.279 16.91 43.484 16.296 42.606 15.987 41.646 15.987zM52.356 31.468C51.216 32.277 49.769 32.968 48.014 33.538 46.259 34.108 44.392 34.393 42.412 34.393 39.682 34.393 37.349 33.89 35.414 32.885 33.479 31.88 31.994 30.478 30.959 28.678 29.924 26.878 29.407 24.808 29.407 22.468 29.407 20.098 29.917 17.998 30.937 16.168 31.956 14.338 33.367 12.905 35.167 11.87 36.967 10.835 39.066 10.318 41.467 10.318 43.807 10.318 45.869 10.82 47.654 11.825 49.438 12.831 50.834 14.226 51.839 16.01 52.844 17.795 53.347 19.888 53.347 22.288 53.347 22.618 53.324 22.963 53.279 23.322 53.234 23.683 53.182 24.058 53.122 24.447L37.146 24.447C37.867 27.088 39.831 28.407 43.042 28.407 44.481 28.407 45.756 28.183 46.867 27.733 47.976 27.282 48.906 26.833 49.657 26.383L52.356 31.468 52.356 31.468z"/>
    <polygon class="no-color-change" fill="#009BFF" points="57.352 33.808 65.182 33.808 65.182 .958 57.352 .958"/>
    <path class="no-color-change" fill="#009BFF" d="M78.502 20.623L78.502 33.808 70.671 33.808 70.671 10.902 77.871 10.902 78.276 13.827C78.966 12.718 79.866 11.878 80.976 11.308 82.086 10.738 83.272 10.452 84.531 10.452 85.881 10.452 87.111 10.753 88.221 11.353 89.331 11.953 90.231 12.793 90.921 13.873 91.732 12.763 92.789 11.915 94.094 11.33 95.399 10.745 96.772 10.452 98.211 10.452 99.801 10.452 101.204 10.82 102.419 11.555 103.634 12.291 104.586 13.311 105.276 14.615 105.966 15.92 106.311 17.428 106.311 19.138L106.311 33.808 98.482 33.808 98.482 19.947C98.482 18.988 98.218 18.223 97.694 17.652 97.169 17.083 96.502 16.798 95.691 16.798 94.701 16.798 93.906 17.112 93.306 17.742 92.706 18.373 92.406 19.333 92.406 20.623L92.406 33.808 84.576 33.808 84.576 19.947C84.576 18.988 84.321 18.223 83.811 17.652 83.301 17.083 82.611 16.798 81.741 16.798 80.781 16.798 80.001 17.112 79.401 17.742 78.801 18.373 78.502 19.333 78.502 20.623M117.562 26.383C117.562 27.073 117.816 27.636 118.326 28.07 118.836 28.505 119.497 28.723 120.306 28.723 121.386 28.723 122.294 28.356 123.029 27.62 123.764 26.886 124.131 25.963 124.131 24.853L124.131 24.088C123.321 23.938 122.466 23.862 121.566 23.862 120.426 23.862 119.474 24.058 118.709 24.447 117.944 24.838 117.562 25.483 117.562 26.383zM124.446 33.808L124.042 30.793C122.541 33.194 120.261 34.393 117.201 34.393 115.852 34.393 114.628 34.101 113.534 33.515 112.439 32.93 111.569 32.128 110.924 31.108 110.278 30.088 109.957 28.902 109.957 27.553 109.957 25.003 110.954 23.024 112.949 21.612 114.944 20.203 117.576 19.498 120.846 19.498 121.866 19.498 122.946 19.588 124.086 19.768 123.966 18.628 123.479 17.765 122.624 17.18 121.769 16.595 120.726 16.303 119.497 16.303 118.417 16.303 117.329 16.505 116.234 16.91 115.138 17.316 114.096 17.803 113.107 18.373L110.451 13.333C111.951 12.373 113.571 11.63 115.312 11.106 117.051 10.581 118.791 10.318 120.531 10.318 122.631 10.318 124.521 10.678 126.201 11.398 127.881 12.117 129.201 13.213 130.161 14.683 131.121 16.153 131.602 18.013 131.602 20.263L131.602 33.808 124.446 33.808 124.446 33.808zM144.426 24.943L144.426 33.808 136.596 33.808 136.596 10.902 143.751 10.902 144.245 14.728C144.726 13.498 145.513 12.5 146.608 11.736 147.703 10.97 148.971 10.588 150.41 10.588 151.221 10.588 151.835 10.694 152.256 10.902L152.256 18.058C151.925 17.939 151.558 17.848 151.153 17.788 150.748 17.728 150.29 17.697 149.78 17.697 148.221 17.697 146.938 18.276 145.933 19.43 144.928 20.585 144.426 22.423 144.426 24.943"/>
    <polyline class="no-color-change" fill="#009BFF" points="180.471 10.902 171.606 33.808 163.056 33.808 154.19 10.902 162.785 10.902 167.465 25.708 172.056 10.902 180.471 10.902"/>
    <path class="no-color-change" fill="#009BFF" d="M189.38,26.383 C189.38,27.073 189.634,27.636 190.145,28.07 C190.654,28.505 191.315,28.723 192.125,28.723 C193.205,28.723 194.111,28.356 194.848,27.62 C195.582,26.886 195.95,25.963 195.95,24.853 L195.95,24.088 C195.14,23.938 194.285,23.862 193.385,23.862 C192.244,23.862 191.292,24.058 190.527,24.447 C189.763,24.838 189.38,25.483 189.38,26.383 Z M196.265,33.808 L195.859,30.793 C194.359,33.194 192.08,34.393 189.02,34.393 C187.67,34.393 186.447,34.101 185.353,33.515 C184.257,32.93 183.387,32.128 182.742,31.108 C182.097,30.088 181.774,28.902 181.774,27.553 C181.774,25.003 182.772,23.024 184.768,21.612 C186.762,20.203 189.395,19.498 192.665,19.498 C193.685,19.498 194.765,19.588 195.904,19.768 C195.784,18.628 195.297,17.765 194.442,17.18 C193.587,16.595 192.545,16.303 191.315,16.303 C190.234,16.303 189.148,16.505 188.052,16.91 C186.957,17.316 185.915,17.803 184.925,18.373 L182.27,13.333 C183.77,12.373 185.39,11.63 187.13,11.106 C188.869,10.581 190.609,10.318 192.35,10.318 C194.449,10.318 196.339,10.678 198.02,11.398 C199.699,12.117 201.02,13.213 201.98,14.683 C202.94,16.153 203.42,18.013 203.42,20.263 L203.42,33.808 L196.265,33.808 L196.265,33.808 Z"/>
    <path fill="#FFFFFF" d="M227.045 21.163L227.045 33.808 219.215 33.808 219.215 10.902 226.37 10.902 226.774 13.918C227.524 12.838 228.499 11.968 229.7 11.308 230.899 10.649 232.22 10.318 233.66 10.318 236.149 10.318 238.145 11.128 239.645 12.748 241.145 14.367 241.895 16.693 241.895 19.723L241.895 33.808 234.065 33.808 234.065 20.623C234.065 19.273 233.765 18.276 233.165 17.63 232.565 16.986 231.725 16.663 230.645 16.663 229.565 16.663 228.694 17.008 228.035 17.697 227.374 18.388 227.045 19.543 227.045 21.163M258.095 28.183C259.474 28.183 260.576 27.651 261.402 26.585 262.227 25.521 262.64 24.104 262.64 22.333 262.64 20.563 262.227 19.153 261.402 18.103 260.576 17.053 259.474 16.527 258.095 16.527 256.714 16.527 255.611 17.053 254.787 18.103 253.961 19.153 253.55 20.563 253.55 22.333 253.55 24.104 253.961 25.521 254.787 26.585 255.611 27.651 256.714 28.183 258.095 28.183zM258.095 34.393C255.634 34.393 253.467 33.875 251.592 32.84 249.717 31.805 248.246 30.388 247.182 28.588 246.116 26.788 245.584 24.703 245.584 22.333 245.584 19.963 246.116 17.878 247.182 16.077 248.246 14.277 249.717 12.868 251.592 11.848 253.467 10.828 255.634 10.318 258.095 10.318 260.554 10.318 262.722 10.828 264.597 11.848 266.472 12.868 267.941 14.277 269.007 16.077 270.071 17.878 270.605 19.963 270.605 22.333 270.605 24.703 270.071 26.788 269.007 28.588 267.941 30.388 266.472 31.805 264.597 32.84 262.722 33.875 260.554 34.393 258.095 34.393L258.095 34.393z"/>
    <polyline fill="#FFFFFF" points="293.374 33.808 289.685 19.902 286.039 33.808 277.94 33.808 271.999 10.902 280.009 10.902 282.395 25.663 286.265 10.902 293.149 10.902 297.154 25.708 299.584 10.902 307.414 10.902 301.475 33.808 293.374 33.808"/>
    <path class="no-color-change" fill="#009BFF" d="M313.94,34.258 C312.68,34.258 311.614,33.815 310.744,32.93 C309.874,32.046 309.44,30.988 309.44,29.758 C309.44,28.558 309.874,27.516 310.744,26.63 C311.614,25.745 312.68,25.303 313.94,25.303 C315.169,25.303 316.227,25.745 317.112,26.63 C317.996,27.516 318.44,28.558 318.44,29.758 C318.44,30.988 317.996,32.046 317.112,32.93 C316.227,33.815 315.169,34.258 313.94,34.258"/>
  </g>
</svg>
