<svg xmlns="http://www.w3.org/2000/svg" width="395" height="47" viewBox="0 0 395 47">
  <g fill="none" fill-rule="evenodd">
    <path fill="#009BFF" class='no-color-change' d="M8.631 28.389L12.456 28.389C14.646 28.389 16.378 27.595 17.654 26.004 18.928 24.414 19.566 22.314 19.566 19.704 19.566 17.094 18.928 14.994 17.654 13.404 16.378 11.814 14.646 11.019 12.456 11.019L8.631 11.019 8.631 28.389zM.396 35.004L.396 4.404 12.456 4.404C15.486 4.404 18.163 5.056 20.489 6.361 22.813 7.667 24.636 9.467 25.956 11.761 27.276 14.056 27.936 16.704 27.936 19.704 27.936 22.704 27.276 25.351 25.956 27.646 24.636 29.941 22.813 31.741 20.489 33.047 18.163 34.351 15.486 35.004 12.456 35.004L.396 35.004zM43.146 17.184C40.596 17.184 39.066 18.534 38.556 21.234L47.286 21.234C47.076 19.764 46.573 18.721 45.778 18.106 44.983 17.492 44.106 17.184 43.146 17.184zM53.856 32.664C52.715 33.474 51.268 34.164 49.513 34.734 47.758 35.303 45.891 35.589 43.911 35.589 41.181 35.589 38.848 35.086 36.913 34.081 34.978 33.077 33.493 31.674 32.458 29.874 31.423 28.074 30.906 26.004 30.906 23.664 30.906 21.295 31.416 19.194 32.436 17.364 33.455 15.534 34.866 14.101 36.666 13.066 38.466 12.032 40.565 11.514 42.966 11.514 45.306 11.514 47.368 12.016 49.153 13.021 50.938 14.027 52.333 15.422 53.338 17.206 54.343 18.992 54.846 21.084 54.846 23.484 54.846 23.814 54.823 24.159 54.778 24.519 54.733 24.879 54.681 25.255 54.621 25.644L38.646 25.644C39.366 28.284 41.33 29.604 44.541 29.604 45.981 29.604 47.256 29.379 48.366 28.929 49.475 28.479 50.406 28.029 51.156 27.579L53.856 32.664zM66.681 21.819L66.681 35.004 58.851 35.004 58.851 12.099 66.051 12.099 66.456 15.024C67.145 13.914 68.045 13.074 69.156 12.504 70.265 11.934 71.451 11.649 72.711 11.649 74.061 11.649 75.29 11.949 76.401 12.549 77.51 13.149 78.41 13.989 79.101 15.069 79.911 13.96 80.968 13.111 82.273 12.526 83.578 11.941 84.951 11.649 86.391 11.649 87.98 11.649 89.383 12.016 90.598 12.752 91.813 13.487 92.765 14.507 93.456 15.811 94.145 17.116 94.491 18.624 94.491 20.334L94.491 35.004 86.661 35.004 86.661 21.144C86.661 20.184 86.398 19.419 85.873 18.849 85.348 18.279 84.681 17.994 83.871 17.994 82.881 17.994 82.085 18.309 81.486 18.939 80.885 19.569 80.586 20.529 80.586 21.819L80.586 35.004 72.756 35.004 72.756 21.144C72.756 20.184 72.5 19.419 71.991 18.849 71.48 18.279 70.79 17.994 69.921 17.994 68.96 17.994 68.18 18.309 67.581 18.939 66.98 19.569 66.681 20.529 66.681 21.819M99.576 35.004L99.576 12.099C100.835 12.369 102.11 12.504 103.401 12.504 104.72 12.504 106.056 12.369 107.405 12.099L107.405 35.004 99.576 35.004zM103.401 10.299C102.11 10.299 101.008 9.842 100.093 8.927 99.177 8.011 98.72 6.909 98.72 5.619 98.72 4.329 99.177 3.227 100.093 2.311 101.008 1.397 102.11.939 103.401.939 104.69.939 105.792 1.397 106.708 2.311 107.623 3.227 108.08 4.329 108.08 5.619 108.08 6.909 107.623 8.011 106.708 8.927 105.792 9.842 104.69 10.299 103.401 10.299zM120.725 22.359L120.725 35.004 112.895 35.004 112.895 12.099 120.05 12.099 120.455 15.114C121.205 14.034 122.18 13.164 123.38 12.504 124.58 11.845 125.9 11.514 127.34 11.514 129.83 11.514 131.825 12.324 133.325 13.944 134.825 15.564 135.575 17.889 135.575 20.919L135.575 35.004 127.745 35.004 127.745 21.819C127.745 20.469 127.445 19.472 126.845 18.826 126.245 18.181 125.405 17.859 124.325 17.859 123.245 17.859 122.375 18.204 121.715 18.894 121.055 19.585 120.725 20.739 120.725 22.359M151.685 28.119C153.005 28.119 154.07 27.646 154.88 26.701 155.69 25.757 156.095 24.489 156.095 22.899 156.095 21.309 155.69 20.042 154.88 19.096 154.07 18.151 153.005 17.679 151.685 17.679 150.335 17.679 149.255 18.151 148.445 19.096 147.635 20.042 147.23 21.309 147.23 22.899 147.23 24.459 147.635 25.72 148.445 26.679 149.255 27.639 150.335 28.119 151.685 28.119zM163.835 32.574C163.835 34.914 163.295 36.917 162.215 38.581 161.135 40.246 159.642 41.521 157.737 42.407 155.832 43.291 153.62 43.734 151.1 43.734 149.059 43.734 147.124 43.464 145.295 42.924 143.465 42.384 141.83 41.664 140.39 40.764L143.315 35.724C144.334 36.324 145.407 36.811 146.532 37.186 147.657 37.561 148.82 37.749 150.02 37.749 152.029 37.749 153.53 37.299 154.52 36.399 155.51 35.499 156.005 34.224 156.005 32.574L156.005 31.764C155.224 32.545 154.287 33.167 153.192 33.632 152.097 34.097 150.949 34.329 149.75 34.329 147.68 34.329 145.857 33.841 144.282 32.866 142.707 31.892 141.477 30.542 140.592 28.816 139.707 27.091 139.265 25.119 139.265 22.899 139.265 20.649 139.699 18.669 140.57 16.959 141.439 15.249 142.654 13.914 144.215 12.954 145.774 11.994 147.574 11.514 149.615 11.514 150.994 11.514 152.277 11.845 153.462 12.504 154.647 13.164 155.584 14.034 156.275 15.114L156.68 12.099 163.835 12.099 163.835 32.574z"/>
    <polyline fill="#404040" points="180.754 35.004 180.754 4.404 189.124 4.404 189.124 16.194 199.519 16.194 199.519 4.404 207.889 4.404 207.889 35.004 199.519 35.004 199.519 23.034 189.124 23.034 189.124 35.004 180.754 35.004"/>
    <path fill="#404040" d="M224.854 17.184C222.303 17.184 220.773 18.534 220.263 21.234L228.993 21.234C228.783 19.764 228.28 18.721 227.486 18.106 226.691 17.492 225.813 17.184 224.854 17.184zM235.564 32.664C234.423 33.474 232.976 34.164 231.221 34.734 229.466 35.303 227.598 35.589 225.618 35.589 222.888 35.589 220.556 35.086 218.621 34.081 216.686 33.077 215.201 31.674 214.166 29.874 213.131 28.074 212.613 26.004 212.613 23.664 212.613 21.295 213.123 19.194 214.143 17.364 215.163 15.534 216.573 14.101 218.374 13.066 220.174 12.032 222.273 11.514 224.674 11.514 227.013 11.514 229.076 12.016 230.861 13.021 232.646 14.027 234.041 15.422 235.046 17.206 236.051 18.992 236.553 21.084 236.553 23.484 236.553 23.814 236.531 24.159 236.486 24.519 236.441 24.879 236.388 25.255 236.328 25.644L220.354 25.644C221.073 28.284 223.038 29.604 226.249 29.604 227.689 29.604 228.963 29.379 230.073 28.929 231.183 28.479 232.113 28.029 232.863 27.579L235.564 32.664zM246.723 27.579C246.723 28.269 246.978 28.832 247.488 29.266 247.998 29.702 248.658 29.919 249.468 29.919 250.549 29.919 251.455 29.552 252.191 28.816 252.925 28.082 253.293 27.159 253.293 26.049L253.293 25.284C252.483 25.134 251.628 25.059 250.728 25.059 249.588 25.059 248.636 25.255 247.871 25.644 247.106 26.034 246.723 26.679 246.723 27.579zM253.608 35.004L253.203 31.989C251.703 34.389 249.424 35.589 246.363 35.589 245.013 35.589 243.791 35.297 242.696 34.712 241.6 34.127 240.731 33.324 240.086 32.304 239.44 31.284 239.118 30.099 239.118 28.749 239.118 26.199 240.115 24.22 242.111 22.809 244.106 21.399 246.738 20.694 250.008 20.694 251.028 20.694 252.108 20.784 253.248 20.964 253.128 19.824 252.641 18.962 251.786 18.377 250.931 17.792 249.888 17.499 248.658 17.499 247.578 17.499 246.49 17.701 245.396 18.106 244.3 18.511 243.258 18.999 242.268 19.569L239.613 14.529C241.113 13.569 242.733 12.827 244.473 12.302 246.213 11.777 247.953 11.514 249.693 11.514 251.793 11.514 253.683 11.874 255.363 12.594 257.043 13.314 258.363 14.409 259.323 15.879 260.283 17.349 260.763 19.209 260.763 21.459L260.763 35.004 253.608 35.004zM276.873 29.379C278.223 29.379 279.31 28.846 280.135 27.782 280.96 26.716 281.373 25.3 281.373 23.529 281.373 21.759 280.96 20.342 280.135 19.276 279.31 18.212 278.223 17.679 276.873 17.679 275.493 17.679 274.39 18.212 273.566 19.276 272.74 20.342 272.328 21.759 272.328 23.529 272.328 25.3 272.74 26.716 273.566 27.782 274.39 28.846 275.493 29.379 276.873 29.379zM281.913 35.004L281.508 31.989C280.788 33.099 279.858 33.976 278.718 34.621 277.577 35.266 276.258 35.589 274.758 35.589 272.688 35.589 270.873 35.078 269.313 34.059 267.753 33.039 266.538 31.622 265.668 29.806 264.798 27.992 264.363 25.899 264.363 23.529 264.363 21.159 264.798 19.074 265.668 17.274 266.538 15.474 267.73 14.064 269.245 13.044 270.76 12.024 272.508 11.514 274.488 11.514 275.867 11.514 277.143 11.806 278.313 12.391 279.483 12.976 280.458 13.764 281.238 14.754L281.238 2.154 289.068 2.154 289.068 35.004 281.913 35.004z"/>
    <polygon fill="#404040" points="294.558 35.004 302.388 35.004 302.388 2.154 294.558 2.154"/>
    <path fill="#404040" d="M307.878 35.004L307.878 12.099C309.137 12.369 310.412 12.504 311.703 12.504 313.022 12.504 314.358 12.369 315.708 12.099L315.708 35.004 307.878 35.004M332.222 28.119C333.542 28.119 334.607 27.646 335.417 26.701 336.227 25.757 336.632 24.489 336.632 22.899 336.632 21.309 336.227 20.042 335.417 19.096 334.607 18.151 333.542 17.679 332.222 17.679 330.872 17.679 329.792 18.151 328.982 19.096 328.172 20.042 327.767 21.309 327.767 22.899 327.767 24.459 328.172 25.72 328.982 26.679 329.792 27.639 330.872 28.119 332.222 28.119zM344.372 32.574C344.372 34.914 343.832 36.917 342.752 38.581 341.672 40.246 340.179 41.521 338.275 42.407 336.369 43.291 334.157 43.734 331.637 43.734 329.597 43.734 327.662 43.464 325.832 42.924 324.002 42.384 322.367 41.664 320.927 40.764L323.852 35.724C324.872 36.324 325.945 36.811 327.07 37.186 328.195 37.561 329.357 37.749 330.557 37.749 332.567 37.749 334.067 37.299 335.057 36.399 336.047 35.499 336.542 34.224 336.542 32.574L336.542 31.764C335.762 32.545 334.824 33.167 333.73 33.632 332.634 34.097 331.487 34.329 330.287 34.329 328.217 34.329 326.395 33.841 324.82 32.866 323.245 31.892 322.014 30.542 321.13 28.816 320.244 27.091 319.802 25.119 319.802 22.899 319.802 20.649 320.237 18.669 321.107 16.959 321.977 15.249 323.192 13.914 324.752 12.954 326.312 11.994 328.112 11.514 330.152 11.514 331.532 11.514 332.814 11.845 334 12.504 335.184 13.164 336.122 14.034 336.812 15.114L337.217 12.099 344.372 12.099 344.372 32.574zM357.692 22.404L357.692 35.004 349.862 35.004 349.862 2.154 357.692 2.154 357.692 14.754C358.442 13.764 359.394 12.976 360.549 12.391 361.704 11.806 362.957 11.514 364.307 11.514 366.797 11.514 368.792 12.324 370.292 13.944 371.792 15.564 372.542 17.889 372.542 20.919L372.542 35.004 364.712 35.004 364.712 21.819C364.712 20.469 364.412 19.472 363.812 18.826 363.212 18.181 362.372 17.859 361.292 17.859 360.212 17.859 359.341 18.204 358.682 18.894 358.022 19.585 357.692 20.755 357.692 22.404M394.502 33.519C393.571 34.149 392.506 34.652 391.306 35.026 390.106 35.401 388.846 35.589 387.526 35.589 385.066 35.589 383.109 34.877 381.654 33.451 380.198 32.027 379.471 30.114 379.471 27.714L379.471 17.949 375.737 17.949 375.737 12.099 379.831 12.099 380.821 5.709 387.301 5.709 387.301 12.099 393.286 12.099 393.286 17.949 387.301 17.949 387.301 26.724C387.301 27.505 387.533 28.112 387.999 28.547 388.464 28.982 389.086 29.199 389.866 29.199 390.256 29.199 390.654 29.124 391.059 28.974 391.464 28.824 391.846 28.644 392.207 28.434L394.502 33.519M1.101 43.851L2.156 43.851C2.502 43.851 2.776 43.765 2.978 43.595 3.179 43.424 3.28 43.192 3.28 42.897 3.28 42.602 3.179 42.37 2.978 42.199 2.776 42.028 2.502 41.943 2.156 41.943L1.101 41.943 1.101 43.851zM.318 46.557L.318 41.284 2.156 41.284C2.745 41.284 3.213 41.429 3.559 41.718 3.906 42.008 4.079 42.4 4.079 42.897 4.079 43.388 3.906 43.777 3.559 44.064 3.213 44.351 2.745 44.495 2.156 44.495L1.101 44.495 1.101 46.557.318 46.557zM5.661 44.572L7.584 44.572 6.622 42.098 5.661 44.572zM8.352 46.557L7.84 45.231 5.405 45.231 4.893 46.557 4.102 46.557 6.211 41.284 7.057 41.284 9.158 46.557 8.352 46.557zM10.818 43.773L11.895 43.773C12.231 43.773 12.499 43.69 12.698 43.525 12.897 43.36 12.997 43.137 12.997 42.858 12.997 42.579 12.897 42.357 12.698 42.191 12.499 42.026 12.231 41.943 11.895 41.943L10.818 41.943 10.818 43.773zM10.818 44.417L10.818 46.557 10.034 46.557 10.034 41.284 11.895 41.284C12.48 41.284 12.942 41.425 13.284 41.707 13.625 41.988 13.795 42.372 13.795 42.858 13.795 43.225 13.692 43.535 13.485 43.789 13.278 44.042 12.994 44.22 12.632 44.324L13.912 46.557 13.02 46.557 11.818 44.417 10.818 44.417z"/>
    <polyline fill="#404040" points="16.044 46.557 16.044 41.943 14.269 41.943 14.269 41.284 18.604 41.284 18.604 41.943 16.827 41.943 16.827 46.557 16.044 46.557"/>
    <path fill="#404040" d="M23.636,45.96 C23.977,45.96 24.281,45.874 24.547,45.7 C24.814,45.527 25.022,45.288 25.172,44.983 C25.322,44.678 25.397,44.324 25.397,43.92 C25.397,43.517 25.322,43.163 25.172,42.858 C25.022,42.553 24.814,42.314 24.547,42.141 C24.281,41.968 23.977,41.881 23.636,41.881 C23.295,41.881 22.992,41.968 22.729,42.141 C22.465,42.314 22.258,42.553 22.109,42.858 C21.958,43.163 21.884,43.517 21.884,43.92 C21.884,44.324 21.958,44.678 22.109,44.983 C22.258,45.288 22.465,45.527 22.729,45.7 C22.992,45.874 23.295,45.96 23.636,45.96 Z M23.636,46.643 C23.14,46.643 22.7,46.526 22.318,46.294 C21.935,46.061 21.634,45.741 21.415,45.332 C21.195,44.924 21.085,44.453 21.085,43.92 C21.085,43.388 21.195,42.917 21.415,42.509 C21.634,42.101 21.935,41.78 22.318,41.548 C22.7,41.315 23.14,41.199 23.636,41.199 C24.132,41.199 24.573,41.315 24.958,41.548 C25.343,41.78 25.646,42.101 25.866,42.509 C26.085,42.917 26.195,43.388 26.195,43.92 C26.195,44.453 26.085,44.924 25.866,45.332 C25.646,45.741 25.343,46.061 24.958,46.294 C24.573,46.526 24.132,46.643 23.636,46.643 Z"/>
    <polyline fill="#404040" points="28.08 46.557 27.296 46.557 27.296 41.284 30.576 41.284 30.576 41.943 28.08 41.943 28.08 43.727 30.197 43.727 30.197 44.386 28.08 44.386 28.08 46.557"/>
    <polyline fill="#404040" points="34.663 46.557 34.663 41.943 32.887 41.943 32.887 41.284 37.222 41.284 37.222 41.943 35.447 41.943 35.447 46.557 34.663 46.557"/>
    <polyline fill="#404040" points="38.122 46.557 38.122 41.284 38.905 41.284 38.905 43.54 41.627 43.54 41.627 41.284 42.41 41.284 42.41 46.557 41.627 46.557 41.627 44.215 38.905 44.215 38.905 46.557 38.122 46.557"/>
    <polyline fill="#404040" points="43.79 46.557 43.79 41.284 47.172 41.284 47.172 41.943 44.574 41.943 44.574 43.572 46.861 43.572 46.861 44.231 44.574 44.231 44.574 45.898 47.234 45.898 47.234 46.557 43.79 46.557"/>
    <path fill="#404040" d="M52.181 45.96C52.61 45.96 52.947 45.831 53.193 45.572 53.438 45.314 53.561 44.965 53.561 44.525L53.561 41.284 54.345 41.284 54.345 44.533C54.345 45.19 54.152 45.705 53.767 46.08 53.382 46.455 52.853 46.643 52.181 46.643 51.509 46.643 50.982 46.455 50.599 46.08 50.216 45.705 50.025 45.19 50.025 44.533L50.025 41.284 50.809 41.284 50.809 44.525C50.809 44.965 50.931 45.314 51.177 45.572 51.422 45.831 51.757 45.96 52.181 45.96M57.268 46.643C56.87 46.643 56.49 46.573 56.128 46.433 55.766 46.294 55.474 46.107 55.252 45.875L55.694 45.355C55.901 45.547 56.145 45.696 56.427 45.805 56.708 45.914 56.989 45.968 57.268 45.968 57.609 45.968 57.884 45.902 58.094 45.77 58.303 45.638 58.408 45.456 58.408 45.223 58.408 45.012 58.333 44.833 58.183 44.688 58.033 44.544 57.777 44.422 57.415 44.324L56.687 44.13C56.216 44.006 55.873 43.83 55.659 43.603 55.444 43.375 55.337 43.078 55.337 42.711 55.337 42.411 55.417 42.147 55.577 41.92 55.738 41.693 55.959 41.515 56.241 41.388 56.522 41.262 56.842 41.199 57.198 41.199 57.576 41.199 57.93 41.27 58.261 41.412 58.592 41.554 58.884 41.752 59.137 42.005L58.664 42.517C58.442 42.31 58.21 42.151 57.97 42.04 57.73 41.929 57.475 41.873 57.206 41.873 56.88 41.873 56.614 41.942 56.407 42.079 56.2 42.216 56.097 42.406 56.097 42.649 56.097 42.871 56.171 43.044 56.318 43.168 56.465 43.292 56.691 43.396 56.997 43.479L57.811 43.704C58.281 43.833 58.625 44.014 58.842 44.246 59.059 44.479 59.168 44.769 59.168 45.115 59.168 45.42 59.088 45.687 58.927 45.917 58.767 46.148 58.545 46.326 58.261 46.452 57.976 46.579 57.645 46.643 57.268 46.643M61.138 44.572L63.061 44.572 62.099 42.098 61.138 44.572zM63.829 46.557L63.317 45.231 60.882 45.231 60.37 46.557 59.579 46.557 61.688 41.284 62.533 41.284 64.635 46.557 63.829 46.557z"/>
    <polyline fill="#404040" points="68.28 46.557 68.28 41.943 66.504 41.943 66.504 41.284 70.839 41.284 70.839 41.943 69.063 41.943 69.063 46.557 68.28 46.557"/>
    <path fill="#404040" d="M73.662 45.96C74.003 45.96 74.306 45.874 74.573 45.7 74.839 45.527 75.047 45.288 75.197 44.983 75.347 44.678 75.422 44.324 75.422 43.92 75.422 43.517 75.347 43.163 75.197 42.858 75.047 42.553 74.839 42.314 74.573 42.141 74.306 41.968 74.003 41.881 73.662 41.881 73.32 41.881 73.018 41.968 72.754 42.141 72.49 42.314 72.284 42.553 72.134 42.858 71.984 43.163 71.909 43.517 71.909 43.92 71.909 44.324 71.984 44.678 72.134 44.983 72.284 45.288 72.49 45.527 72.754 45.7 73.018 45.874 73.32 45.96 73.662 45.96zM73.662 46.643C73.165 46.643 72.726 46.526 72.343 46.294 71.961 46.061 71.659 45.741 71.44 45.332 71.22 44.924 71.11 44.453 71.11 43.92 71.11 43.388 71.22 42.917 71.44 42.509 71.659 42.101 71.961 41.78 72.343 41.548 72.726 41.315 73.165 41.199 73.662 41.199 74.158 41.199 74.598 41.315 74.984 41.548 75.369 41.78 75.671 42.101 75.891 42.509 76.111 42.917 76.221 43.388 76.221 43.92 76.221 44.453 76.111 44.924 75.891 45.332 75.671 45.741 75.369 46.061 74.984 46.294 74.598 46.526 74.158 46.643 73.662 46.643zM78.105 45.898L79.175 45.898C79.547 45.898 79.866 45.817 80.133 45.654 80.399 45.491 80.603 45.262 80.745 44.967 80.887 44.673 80.959 44.324 80.959 43.92 80.959 43.517 80.887 43.168 80.745 42.874 80.603 42.579 80.399 42.35 80.133 42.188 79.866 42.024 79.547 41.943 79.175 41.943L78.105 41.943 78.105 45.898zM77.322 46.557L77.322 41.284 79.175 41.284C79.692 41.284 80.144 41.394 80.532 41.613 80.92 41.833 81.221 42.141 81.436 42.536 81.65 42.932 81.757 43.393 81.757 43.92 81.757 44.448 81.65 44.909 81.436 45.305 81.221 45.7 80.92 46.008 80.532 46.227 80.144 46.447 79.692 46.557 79.175 46.557L77.322 46.557zM83.758 44.572L85.681 44.572 84.72 42.098 83.758 44.572zM86.449 46.557L85.937 45.231 83.502 45.231 82.99 46.557 82.2 46.557 84.309 41.284 85.154 41.284 87.256 46.557 86.449 46.557z"/>
    <polyline fill="#404040" points="89.66 44.464 89.66 46.557 88.876 46.557 88.876 44.464 87.023 41.284 87.946 41.284 89.272 43.719 90.598 41.284 91.505 41.284 89.66 44.464"/>
    <polyline fill="#404040" points="97.771 46.557 94.956 42.517 94.956 46.557 94.219 46.557 94.219 41.284 94.948 41.284 97.771 45.324 97.771 41.284 98.5 41.284 98.5 46.557 97.771 46.557"/>
    <polyline fill="#404040" points="99.88 46.557 99.88 41.284 103.261 41.284 103.261 41.943 100.663 41.943 100.663 43.572 102.951 43.572 102.951 44.231 100.663 44.231 100.663 45.898 103.323 45.898 103.323 46.557 99.88 46.557"/>
    <polyline fill="#404040" points="105.65 46.557 105.65 41.943 103.874 41.943 103.874 41.284 108.209 41.284 108.209 41.943 106.433 41.943 106.433 46.557 105.65 46.557"/>
    <polyline fill="#404040" points="113.327 46.557 112.094 42.354 110.861 46.557 110.046 46.557 108.643 41.284 109.418 41.284 110.489 45.456 111.721 41.284 112.466 41.284 113.707 45.471 114.785 41.284 115.545 41.284 114.141 46.557 113.327 46.557"/>
    <path fill="#404040" d="M118.654 45.96C118.995 45.96 119.299 45.874 119.565 45.7 119.832 45.527 120.04 45.288 120.19 44.983 120.34 44.678 120.415 44.324 120.415 43.92 120.415 43.517 120.34 43.163 120.19 42.858 120.04 42.553 119.832 42.314 119.565 42.141 119.299 41.968 118.995 41.881 118.654 41.881 118.313 41.881 118.011 41.968 117.747 42.141 117.483 42.314 117.277 42.553 117.127 42.858 116.977 43.163 116.902 43.517 116.902 43.92 116.902 44.324 116.977 44.678 117.127 44.983 117.277 45.288 117.483 45.527 117.747 45.7 118.011 45.874 118.313 45.96 118.654 45.96zM118.654 46.643C118.158 46.643 117.718 46.526 117.336 46.294 116.953 46.061 116.652 45.741 116.433 45.332 116.213 44.924 116.103 44.453 116.103 43.92 116.103 43.388 116.213 42.917 116.433 42.509 116.652 42.101 116.953 41.78 117.336 41.548 117.718 41.315 118.158 41.199 118.654 41.199 119.151 41.199 119.591 41.315 119.977 41.548 120.362 41.78 120.664 42.101 120.884 42.509 121.104 42.917 121.213 43.388 121.213 43.92 121.213 44.453 121.104 44.924 120.884 45.332 120.664 45.741 120.362 46.061 119.977 46.294 119.591 46.526 119.151 46.643 118.654 46.643zM123.098 43.773L124.176 43.773C124.512 43.773 124.779 43.69 124.978 43.525 125.177 43.36 125.277 43.137 125.277 42.858 125.277 42.579 125.177 42.357 124.978 42.191 124.779 42.026 124.512 41.943 124.176 41.943L123.098 41.943 123.098 43.773zM123.098 44.417L123.098 46.557 122.315 46.557 122.315 41.284 124.176 41.284C124.76 41.284 125.222 41.425 125.564 41.707 125.905 41.988 126.076 42.372 126.076 42.858 126.076 43.225 125.972 43.535 125.765 43.789 125.558 44.042 125.274 44.22 124.912 44.324L126.192 46.557 125.3 46.557 124.098 44.417 123.098 44.417z"/>
    <polyline fill="#404040" points="130.333 46.557 127.968 43.897 127.968 46.557 127.185 46.557 127.185 41.284 127.968 41.284 127.968 43.595 130.178 41.284 131.147 41.284 128.798 43.704 131.318 46.557 130.333 46.557"/>
    <path fill="#009BFF" class='no-color-change' d="M311.703,10.299 C310.412,10.299 309.31,9.842 308.395,8.927 C307.48,8.011 307.023,6.909 307.023,5.619 C307.023,4.329 307.48,3.227 308.395,2.311 C309.31,1.397 310.412,0.939 311.703,0.939 C312.992,0.939 314.094,1.397 315.01,2.311 C315.925,3.227 316.383,4.329 316.383,5.619 C316.383,6.909 315.925,8.011 315.01,8.927 C314.094,9.842 312.992,10.299 311.703,10.299"/>
  </g>
</svg>
