<?xml version="1.0" encoding="UTF-8" standalone="no"?>
<svg width="721px" height="142px" viewBox="0 0 721 142" version="1.1" xmlns="http://www.w3.org/2000/svg" xmlns:xlink="http://www.w3.org/1999/xlink">
    <!-- Generator: Sketch 39.1 (31720) - http://www.bohemiancoding.com/sketch -->
    <title>demingheadlight</title>
    <desc>Created with Sketch.</desc>
    <defs></defs>
    <g id="Page-1" stroke="none" stroke-width="1" fill="none" fill-rule="evenodd">
        <g id="Artboard" transform="translate(-219.000000, -910.000000)" fill="#000000">
            <g id="demingheadlight" transform="translate(219.000000, 903.000000)">
                <g>
                    <path d="M349.989,133.273 L354.478,133.273 C357.634,133.273 359.745,135.138 359.745,138.014 C359.745,140.89 357.59,142.749 354.478,142.749 L352.188,142.749 L352.188,148.674 L349.988,148.674 L349.988,133.274 L349.989,133.273 Z M354.256,140.932 C356.368,140.932 357.5,139.769 357.5,138.014 C357.5,136.278 356.368,135.095 354.256,135.095 L352.188,135.095 L352.188,140.932 L354.256,140.932 L354.256,140.932 Z M366.024,133.273 L367.979,133.273 L374.379,148.673 L372.021,148.673 L370.421,144.638 L363.509,144.638 L361.909,148.673 L359.6,148.673 C359.6,148.673 365.244,135.162 366.024,133.273 L366.024,133.273 Z M369.689,142.817 L368.201,139.023 C367.979,138.451 367.022,136.081 367.001,135.884 L366.958,135.884 C366.936,136.084 366.003,138.384 365.758,139.023 L364.248,142.817 L369.691,142.817 L369.689,142.817 Z M376.613,133.273 L381.123,133.273 C384.033,133.273 386.301,134.773 386.301,137.836 C386.335982,140.101324 384.604582,142.003894 382.346,142.182 L387.124,148.674 L384.545,148.674 L380.035,142.398 L378.812,142.398 L378.812,148.674 L376.612,148.674 L376.612,133.274 L376.613,133.273 Z M380.88,140.624 C382.923,140.624 384.08,139.547 384.08,137.86 C384.08,136.173 382.923,135.095 380.88,135.095 L378.812,135.095 L378.812,140.624 L380.88,140.624 L380.88,140.624 Z M392.402,135.138 L387.957,135.138 L387.957,133.273 L399.046,133.273 L399.046,135.138 L394.6,135.138 L394.6,148.674 L392.4,148.674 L392.4,135.138 L392.402,135.138 Z M404.749,140.976 C404.667669,137.642413 406.613144,134.591564 409.669935,133.259104 C412.726725,131.926645 416.285985,132.577973 418.672816,134.906588 C421.059647,137.235204 421.798646,140.777299 420.542057,143.866053 C419.285469,146.954807 416.283579,148.975008 412.949,148.976 C410.781765,149.06963 408.672149,148.263648 407.119435,146.748805 C405.56672,145.233961 404.708902,143.144886 404.749,140.976 L404.749,140.976 Z M418.882,140.976 C418.823175,137.707861 416.137397,135.100005 412.868943,135.137397 C409.600489,135.17479 406.975076,137.843409 406.991034,141.112038 C407.006992,144.380667 409.658337,147.023523 412.927,147.029 C414.5393,147.082101 416.100251,146.458061 417.23159,145.308104 C418.362929,144.158147 418.961409,142.587218 418.882,140.976 L418.882,140.976 Z M424.315,133.276 L432.182,133.276 L432.182,135.141 L426.514,135.141 L426.514,140.1 L432,140.1 L432,141.965 L426.51,141.965 L426.51,148.678 L424.31,148.678 L424.31,133.278 L424.315,133.276 Z M442.13,135.141 L437.686,135.141 L437.686,133.276 L448.774,133.276 L448.774,135.141 L444.329,135.141 L444.329,148.677 L442.129,148.677 L442.129,135.138 L442.13,135.141 Z M451.083,133.276 L453.283,133.276 L453.283,139.594 L461.461,139.594 L461.461,133.276 L463.661,133.276 L463.661,148.676 L461.461,148.676 L461.461,141.458 L453.283,141.458 L453.283,148.676 L451.083,148.676 L451.083,133.276 L451.083,133.276 Z M467.714,133.276 L476.204,133.276 L476.204,135.122 L469.913,135.122 L469.913,139.594 L476.024,139.594 L476.024,141.44 L469.913,141.44 L469.913,146.835 L476.336,146.835 L476.336,148.677 L467.714,148.677 L467.714,133.277 L467.714,133.276 Z M483.714,143.368 L483.714,133.273 L485.935,133.273 L485.935,142.706 C485.935,145.385 487.092,147.029 489.691,147.029 C492.313,147.029 493.471,145.385 493.471,142.706 L493.471,133.273 L495.692,133.273 L495.692,143.365 C495.692,146.745 493.492,148.981 489.692,148.981 C485.865,148.981 483.71,146.745 483.71,143.365 L483.714,143.368 Z M497.988,145.892 L499.479,144.642 C500.24068,146.106231 501.739902,147.038884 503.39,147.075 C505.099,147.075 506.434,146.157 506.434,144.464 C506.434,142.647 504.9,142.031 502.988,141.286 C501.032,140.517 499.055,139.55 499.055,137.093 C499.055,134.661 500.967,132.973 503.767,132.973 C505.593588,132.896599 507.3283,133.776268 508.346,135.295 L506.855,136.545 C506.19143,135.483778 505.018317,134.850114 503.767,134.877 C502.255,134.877 501.256,135.646 501.256,136.94 C501.256,138.54 502.81,139.07 504.167,139.594 C506.367,140.45 508.633,141.483 508.633,144.31 C508.633,146.989 506.633,148.984 503.433,148.984 C501.18304,149.04352 499.085203,147.851961 497.984,145.889 L497.988,145.892 Z M516.229,133.276 L518.185,133.276 L524.585,148.676 L522.228,148.676 L520.628,144.641 L513.716,144.641 L512.116,148.676 L509.8,148.676 C509.8,148.676 515.446,135.162 516.225,133.273 L516.229,133.276 Z M519.894,142.82 L518.407,139.026 C518.185,138.454 517.228,136.084 517.207,135.887 L517.163,135.887 C517.141,136.087 516.208,138.387 515.963,139.026 L514.453,142.82 L519.896,142.82 L519.894,142.82 Z M533.872,135.141 L529.427,135.141 L529.427,133.276 L540.515,133.276 L540.515,135.141 L536.071,135.141 L536.071,148.677 L533.871,148.677 L533.871,135.138 L533.872,135.141 Z M541.341,140.979 C541.259669,137.645413 543.205144,134.594564 546.261935,133.262104 C549.318725,131.929645 552.877985,132.580973 555.264816,134.909588 C557.651647,137.238204 558.390646,140.780299 557.134057,143.869053 C555.877469,146.957807 552.875579,148.978008 549.541,148.979 C547.372475,149.074103 545.261139,148.268321 543.707371,146.75262 C542.153602,145.23692 541.295706,143.146216 541.337,140.976 L541.341,140.979 Z M555.473,140.979 C555.413627,137.711556 552.728065,135.104651 549.4603,135.142405 C546.192535,135.180159 543.56792,137.848415 543.584054,141.116359 C543.600188,144.384302 546.251021,147.026513 549.519,147.032 C551.130993,147.083732 552.691107,146.45866 553.821433,145.308198 C554.951758,144.157736 555.549186,142.586829 555.469,140.976 L555.473,140.979 Z M560.907,133.279 L565.329,133.279 C570.307,133.279 573.595,136.087 573.595,140.979 C573.595,145.849 570.283,148.679 565.329,148.679 L560.9,148.679 L560.9,133.279 L560.907,133.279 Z M563.107,146.813 L565.153,146.813 C568.796,146.813 571.329,144.913 571.329,140.982 C571.329,137.051 568.796,135.144 565.153,135.144 L563.1,135.144 L563.1,146.813 L563.107,146.813 Z M580.744,133.279 L582.7,133.279 L589.1,148.679 L586.743,148.679 L585.143,144.644 L578.231,144.644 L576.631,148.679 L574.32,148.679 C574.32,148.679 579.96,135.162 580.739,133.273 L580.744,133.279 Z M584.41,142.823 L582.921,139.029 C582.7,138.457 581.743,136.087 581.721,135.89 L581.677,135.89 C581.655,136.09 580.722,138.39 580.477,139.029 L578.967,142.823 L584.411,142.823 L584.41,142.823 Z M593.494,142.404 L588.182,133.279 L590.649,133.279 L593.538,138.414 C593.946982,139.124265 594.317515,139.855985 594.648,140.606 L594.67,140.606 C595.00192,139.856139 595.373443,139.124441 595.783,138.414 L598.693,133.279 L601.093,133.279 L595.784,142.404 L595.784,148.68 L593.495,148.68 L593.495,142.4 L593.494,142.404 Z M607.556,133.279 L609.243,133.279 L618.089,143.261 C618.355,143.549 619.511,144.972 619.623,145.193 L619.667,145.17 C619.623,144.953 619.623,143.17 619.623,142.78 L619.623,133.28 L621.757,133.28 L621.757,148.68 L620.044,148.68 L611.199,138.697 C610.934,138.414 609.777,136.986 609.667,136.769 L609.646,136.789 C609.667,137.01 609.689,138.789 609.689,139.183 L609.689,148.683 L607.556,148.683 L607.556,133.283 L607.556,133.279 Z M625.809,133.279 L634.296,133.279 L634.296,135.125 L628,135.125 L628,139.597 L634.113,139.597 L634.113,141.443 L628,141.443 L628,146.838 L634.422,146.838 L634.422,148.68 L625.8,148.68 L625.8,133.28 L625.809,133.279 Z M641.179,135.144 L636.734,135.144 L636.734,133.279 L647.823,133.279 L647.823,135.144 L643.378,135.144 L643.378,148.68 L641.178,148.68 L641.178,135.138 L641.179,135.144 Z M649.656,133.279 L651.99,133.279 L655.19,142.429 C655.302,142.78 656.057,145.059 656.079,145.41 L656.125,145.41 C656.384787,144.401023 656.696197,143.406048 657.058,142.429 L660.392,133.279 L662.148,133.279 L665.48,142.429 C665.613,142.78 666.39,145.059 666.415,145.41 L666.459,145.41 C666.503,145.059 667.259,142.78 667.369,142.429 L670.548,133.279 L672.791,133.279 L667.301,148.679 L665.613,148.679 L662.013,139.072 C661.717915,138.252122 661.464918,137.417701 661.255,136.572 L661.211,136.572 C660.99498,137.417977 660.735977,138.252393 660.435,139.072 L656.857,148.679 L655.167,148.679 L649.656,133.279 Z M673.775,140.979 C673.693669,137.645413 675.639144,134.594564 678.695935,133.262104 C681.752725,131.929645 685.311985,132.580973 687.698816,134.909588 C690.085647,137.238204 690.824646,140.780299 689.568057,143.869053 C688.311469,146.957807 685.309579,148.978008 681.975,148.979 C679.806306,149.074388 677.694704,148.268731 676.140713,146.752999 C674.586722,145.237266 673.72869,143.146398 673.77,140.976 L673.775,140.979 Z M687.907,140.979 C687.847629,137.711686 685.16227,135.104833 681.894632,135.142403 C678.626995,135.179973 676.002283,137.84788 676.01805,141.115695 C676.033818,144.38351 678.684153,147.025964 681.952,147.032 C683.563652,147.083161 685.123229,146.457838 686.253109,145.307442 C687.382989,144.157047 687.98015,142.58647 687.9,140.976 L687.907,140.979 Z M693.34,133.279 L697.851,133.279 C700.764,133.279 703.028,134.779 703.028,137.842 C703.062982,140.107324 701.331582,142.009894 699.073,142.188 L703.852,148.68 L701.273,148.68 L696.762,142.404 L695.54,142.404 L695.54,148.68 L693.34,148.68 L693.34,133.28 L693.34,133.279 Z M697.607,140.63 C699.651,140.63 700.807,139.553 700.807,137.866 C700.807,136.179 699.651,135.101 697.607,135.101 L695.54,135.101 L695.54,140.63 L697.6,140.63 L697.607,140.63 Z M706.343,133.279 L708.543,133.279 L708.543,140.433 L714.987,133.279 L717.653,133.279 L710.966,140.63 L717.966,148.68 L715.212,148.68 L708.544,140.895 L708.544,148.68 L706.344,148.68 L706.344,133.28 L706.343,133.279 Z" id="USAT_Network"></path>
                    <path d="M121.1,119.741 L67.676,119.741 L67.676,113.709 C68.837,113.609 70.528,113.451 72.761,113.251 C74.3349178,113.190283 75.8885051,112.874162 77.361,112.315 C78.8619767,111.737957 80.1169999,110.659245 80.913,109.262 C81.6127002,107.751673 81.9457429,106.097424 81.885,104.434 L81.885,66.654 L39.685,66.654 L39.685,103.583 C39.6569183,105.213018 40.0009764,106.827971 40.691,108.305 C41.4306534,109.753686 42.6499742,110.900908 44.141,111.551 C45.6018714,112.135772 47.1173501,112.573599 48.665,112.858 C50.3858814,113.260567 52.1322945,113.544898 53.892,113.709 L53.892,119.741 L0.471,119.741 L0.471,113.709 C1.629,113.656 3.335,113.494 5.587,113.209 C7.25949436,113.052521 8.90818486,112.702514 10.5,112.166 C12.0137187,111.641336 13.2620491,110.545189 13.978,109.112 C14.6613305,107.595533 14.9948925,105.944811 14.954,104.282 L14.954,26.707 C15.0038978,25.1427291 14.7067856,23.5868173 14.084,22.151 C13.2801133,20.7037417 12.01996,19.5631342 10.5,18.907 C8.80291422,18.1144881 7.02621986,17.5050484 5.2,17.089 C3.64425026,16.6731194 2.06512418,16.350215 0.471,16.122 L0.471,10.094 L53.89,10.094 L53.89,16.123 C52.1574599,16.2692641 50.4361981,16.5274701 48.737,16.896 C47.1827549,17.1944246 45.6469007,17.581727 44.137,18.056 C42.5277562,18.5442394 41.215699,19.717261 40.551,21.262 C39.9662432,22.7507998 39.6709622,24.3375112 39.681,25.937 L39.681,58.7 L81.887,58.7 L81.887,26.707 C81.9349816,25.1391271 81.6247843,23.5809583 80.98,22.151 C80.1558563,20.7080266 78.8870175,19.5703865 77.363,18.908 C75.8129561,18.1626223 74.1899923,17.5795215 72.52,17.168 C70.9318989,16.7164219 69.316172,16.3683575 67.683,16.126 L67.683,10.094 L121.1,10.094 L121.1,16.123 C119.418252,16.25244 117.744563,16.4710811 116.086,16.778 C114.384913,17.0749066 112.709025,17.501484 111.073,18.054 C109.491201,18.5553622 108.198812,19.708397 107.521,21.223 C106.904961,22.7167182 106.596479,24.3193297 106.614,25.935 L106.614,103.585 C106.565402,105.206548 106.875093,106.818853 107.521,108.307 C108.299918,109.762613 109.553292,110.908011 111.073,111.553 C112.628064,112.197559 114.252051,112.661268 115.913,112.935 C117.625386,113.294608 119.357345,113.553717 121.1,113.711 L121.1,119.743 L121.1,119.743 L121.1,119.741 Z M187.986,60.479 L184.193,60.479 C183.063846,57.1668624 181.376519,54.0722472 179.204,51.329 C176.838,48.2416667 174.492667,46.4213333 172.168,45.868 C170.79965,45.5608351 169.402367,45.4009254 168,45.391 C166.219333,45.3316667 164.747333,45.3026667 163.584,45.304 L153.3,45.304 L153.3,75.932 L160.584,75.932 C162.274235,75.9531811 163.95734,75.7092186 165.572,75.209 C167.161648,74.6585502 168.574449,73.6915877 169.663,72.409 C170.699674,71.045655 171.4862,69.5091701 171.986,67.871 C172.677366,66.0409044 173.186498,64.1470662 173.506,62.217 L177.3,62.217 L177.3,95.363 L173.51,95.363 C173.19752,93.3490726 172.68842,91.3706167 171.99,89.456 C171.483163,87.7087687 170.698829,86.0543422 169.667,84.556 C168.664491,83.2760819 167.312679,82.3139751 165.775,81.786 C164.098878,81.2522778 162.346759,80.9962327 160.588,81.028 L153.3,81.028 L153.3,103.928 C153.257041,105.83461 153.414911,107.740445 153.771,109.614 C153.994681,110.85107 154.616594,111.981119 155.542,112.832 C156.528501,113.606941 157.711387,114.09173 158.958,114.232 C160.9189,114.487253 162.89583,114.598883 164.873,114.566 C166.039667,114.566 167.437,114.546333 169.065,114.507 C170.50051,114.48405 171.933235,114.372505 173.355,114.173 C174.682223,114.004161 175.992635,113.722475 177.272,113.331 C178.320406,113.067666 179.268757,112.503105 180,111.707 C182.095298,109.122505 183.902013,106.316866 185.388,103.34 C186.903558,100.631243 188.220033,97.8158112 189.327,94.916 L192.972,94.916 L191.622,119.663 L125.211,119.663 L125.211,115.294 C126.144333,115.218667 127.408667,115.071 129.004,114.851 C130.162966,114.728997 131.302719,114.466055 132.398,114.068 C133.484475,113.631489 134.383834,112.828364 134.94,111.798 C135.410128,110.692914 135.632342,109.498219 135.591,108.298 L135.591,52.252 C135.628175,51.1162358 135.440934,49.9842942 135.04,48.921 C134.463743,47.8432114 133.529323,47.0003943 132.398,46.538 C131.235275,45.9882837 130.013271,45.5739028 128.756,45.303 C127.192,44.9316667 126.010333,44.6893333 125.211,44.576 L125.211,40.211 L187.981,40.211 L187.981,60.479 L187.986,60.479 Z M271.515,119.663 L232.94,119.663 L232.94,115.294 C235.072326,115.08943 237.186058,114.72338 239.263,114.199 C241.691,113.622 242.899,112.908 242.899,112.05 C242.901709,111.186066 242.731712,110.330303 242.399,109.533 L236.358,93.07 L211.919,93.07 C211.355,94.6033333 210.733667,96.3943333 210.055,98.443 C209.377,100.501667 208.790667,102.331333 208.296,103.932 C207.809908,105.413426 207.436182,106.929388 207.178,108.467 C207.086511,109.117241 207.028767,109.771785 207.005,110.428 C207.005,111.628 207.813,112.64 209.423,113.482 C211.033,114.324 213.718,114.935 217.475,115.3 L217.475,119.669 L188.436,119.669 L188.436,115.3 C189.689387,115.201995 190.933183,115.006064 192.156,114.714 C193.318231,114.485232 194.42671,114.038719 195.423,113.398 C196.773046,112.518305 197.949647,111.397636 198.894,110.092 C199.905222,108.667393 200.703286,107.102931 201.263,105.448 C205.125,94.9566667 208.991667,84.4466667 212.863,73.918 C216.734333,63.3893333 221.018333,51.7833333 225.715,39.1 L235.687,39.1 C242.202333,57.0893333 247.306667,71.3086667 251,81.758 C254.693333,92.2073333 257.836667,100.869 260.43,107.743 C260.843609,108.827818 261.396222,109.854387 262.074,110.797 C262.864879,111.820911 263.826686,112.700509 264.917,113.397 C265.914924,114.025197 267.012142,114.479638 268.162,114.741 C269.258984,115.015898 270.376222,115.202494 271.503,115.299 L271.503,119.659 L271.503,119.659 L271.515,119.663 Z M234.315,87.522 L224.055,58.8 L213.955,87.517 L234.303,87.517 L234.315,87.522 Z M337.34,48.385 C341.794386,51.7161875 345.386506,56.0654088 347.816,61.069 C350.476,66.349 351.806667,72.8156667 351.808,80.469 C351.949524,86.5127498 350.731538,92.5110913 348.244,98.021 C346.053093,102.759638 342.819945,106.942082 338.786,110.256 C334.741886,113.456587 330.126814,115.860157 325.186,117.339 C320.017403,118.903541 314.644155,119.687518 309.244,119.665 L273.572,119.665 L273.572,115.3 C274.637,115.266 275.972,115.15 277.564,114.969 C278.657357,114.8961 279.7348,114.668153 280.764,114.292 C281.832606,113.851508 282.713958,113.051854 283.256,112.031 C283.749118,110.951822 283.988571,109.774056 283.956,108.588 L283.956,52.252 C283.974681,51.0721616 283.753545,49.9008201 283.306,48.809 C282.791389,47.6965086 281.887086,46.8110603 280.764,46.32 C279.500803,45.682731 278.145243,45.2480878 276.747,45.032 C275.329,44.807 274.247,44.658 273.474,44.58 L273.474,40.214 L311.146,40.214 C315.508539,40.2571215 319.848931,40.8405653 324.068,41.951 C328.870897,43.2051737 333.380396,45.3912887 337.34,48.385 L337.34,48.385 Z M327.158,105.329 C328.90943,101.989293 330.115013,98.3907757 330.729,94.67 C331.524178,89.9595739 331.899319,85.187818 331.85,80.411 C331.893559,75.5731484 331.390367,70.7458642 330.35,66.021 C329.518527,62.1061558 328.034131,58.3591609 325.959,54.937 C324.1723,52.0143402 321.696818,49.5738795 318.749,47.829 C315.76923,46.120611 312.383292,45.248905 308.949,45.306 C307.788,45.306 306.459,45.334 304.982,45.393 C303.505,45.452 302.393,45.499 301.666,45.53 L301.666,105.837 C301.646503,107.037913 301.805918,108.235038 302.139,109.389 C302.454043,110.41241 303.01071,111.344991 303.762,112.108 C304.560426,112.910337 305.522687,113.53081 306.583,113.927 C307.987205,114.400329 309.464968,114.617777 310.946,114.569 C314.32491,114.662642 317.667383,113.850933 320.627,112.218 C323.398575,110.569058 325.65917,108.184547 327.158,105.329 L327.158,105.329 Z M426.817,94.193 L425.417,119.663 L360.2,119.663 L360.2,115.294 C361.368,115.185 362.73,115.001 364.294,114.76 C365.346549,114.637307 366.383469,114.40539 367.388,114.068 C368.451956,113.658058 369.335554,112.883271 369.881,111.882 C370.386141,110.756838 370.625652,109.530544 370.581,108.298 L370.581,52.252 C370.618675,51.116203 370.431418,49.9841641 370.03,48.921 C369.454194,47.8432278 368.520086,47.0003732 367.389,46.538 C366.206389,45.9660742 364.957088,45.5438178 363.67,45.281 C362.226,44.966 361.065,44.735 360.201,44.581 L360.201,40.214 L399.072,40.214 L399.072,44.58 C398.003,44.692 396.749,44.854 395.303,45.057 C394.02201,45.2257949 392.759988,45.5161033 391.534,45.924 C390.384511,46.277493 389.439332,47.1027066 388.934,48.194 C388.488098,49.3060527 388.269137,50.4960625 388.29,51.694 L388.29,103.932 C388.24577,105.882104 388.396181,107.831756 388.739,109.752 C388.92589,110.974933 389.545439,112.090192 390.485,112.895 C391.539179,113.681733 392.793876,114.155191 394.105,114.261 C396.23325,114.50049 398.374552,114.604699 400.516,114.573 C403.110978,114.577805 405.703068,114.399697 408.273,114.04 C410.784,113.681 412.587,112.914 413.686,111.713 C415.746306,109.259152 417.498657,106.562452 418.904,103.683 C420.513326,100.609594 421.937207,97.4425946 423.168,94.199 L426.81,94.199 L426.81,94.193 L426.817,94.193 Z M464.774,119.663 L425.5,119.663 L425.5,115.294 L429.467,114.963 C430.699239,114.915009 431.91782,114.686925 433.084,114.286 C434.157087,113.867816 435.048584,113.085012 435.602,112.075 C436.091316,110.977656 436.322244,109.782645 436.277,108.582 L436.277,52.252 C436.301593,51.0997274 436.079635,49.9555055 435.626,48.896 C435.094368,47.8264608 434.190398,46.9879234 433.084,46.538 C431.938814,46.049781 430.752032,45.6655661 429.538,45.39 C428.20627,45.0477144 426.857391,44.7760026 425.497,44.576 L425.497,40.211 L464.767,40.211 L464.767,44.577 C463.767,44.689 462.518,44.852 461.023,45.054 C459.7322,45.2135665 458.460986,45.5040626 457.229,45.921 C456.081956,46.2754467 455.13962,47.1007173 454.637,48.191 C454.18684,49.3019881 453.965752,50.4924647 453.987,51.691 L453.987,107.965 C453.954162,109.1485 454.184719,110.324509 454.662,111.408 C455.216257,112.459974 456.125931,113.281055 457.229,113.725 C458.343336,114.188747 459.508845,114.518392 460.701,114.707 C462.043119,114.985262 463.40098,115.181294 464.767,115.294 L464.767,119.663 L464.767,119.663 L464.774,119.663 Z M549.327,87.353 C548.296,87.466 547.382,87.593 546.58,87.746 C545.559878,87.9632838 544.558705,88.2615623 543.586,88.638 C542.371594,88.9929705 541.381916,89.8764801 540.892,91.043 C540.461714,92.1710229 540.24306,93.3687029 540.247,94.576 L540.247,103.817 C540.247,105.688 540.263,107.185 540.297,108.33 C540.331,109.475 540.381,110.871 540.446,112.549 C537.12,114.795 532.205333,116.905333 525.702,118.88 C519.90134,120.743736 513.857846,121.743123 507.766,121.846 C502.836024,121.879132 497.943749,120.985279 493.344,119.211 C488.876563,117.468221 484.84287,114.772267 481.524,111.311 C477.98408,107.60054 475.256708,103.192741 473.516,98.369 C471.482517,92.6905383 470.494565,86.6906603 470.6,80.66 C470.541547,74.8135221 471.467826,68.9989245 473.34,63.46 C475.031692,58.430133 477.731364,53.7980898 481.274,49.847 C484.707459,46.0490001 488.943201,43.0628016 493.674,41.105 C498.80851,38.9995246 504.315038,37.9516177 509.864,38.024 C513.654864,37.9887082 517.427249,38.5561186 521.04,39.705 C523.978968,40.6199352 526.820949,41.8213712 529.525,43.292 L532.619,40.211 L536.958,40.211 L537.41,69.211 L533.018,69.211 C530.495333,60.497 527.469,54.0256667 523.939,49.797 C520.716865,45.712023 515.772061,43.3659319 510.57,43.454 C504.182,43.454 499.251,46.5923333 495.777,52.869 C492.303,59.1456667 490.564667,67.7926667 490.562,78.81 C490.562,90.508 492.266333,99.6603333 495.675,106.267 C499.083667,112.873667 503.914667,116.182667 510.168,116.194 C512.845896,116.239607 515.504478,115.73308 517.978,114.706 C519.955633,113.911668 521.761082,112.742557 523.295,111.263 L523.295,95.138 C523.329414,93.9735945 523.107158,92.8158823 522.644,91.747 C522.059084,90.6916565 521.146401,89.855498 520.044,89.365 C518.857168,88.7797717 517.60028,88.3489344 516.304,88.083 C514.804,87.746 513.56,87.5 512.563,87.353 L512.563,82.984 L549.336,82.984 L549.336,87.353 L549.324,87.353 L549.327,87.353 Z M643.291,119.663 L605.022,119.663 L605.022,115.294 C605.855,115.219 607.066,115.11 608.664,114.963 C609.7905,114.91502 610.901985,114.686444 611.956,114.286 C613.032512,113.862213 613.930914,113.081715 614.501,112.075 C615.0051,110.981695 615.244894,109.785123 615.201,108.582 L615.201,81.2 L584.964,81.2 L584.964,107.968 C584.945508,109.14511 585.192277,110.311278 585.686,111.38 C586.210112,112.427985 587.084242,113.259665 588.157,113.731 C589.202853,114.158823 590.288946,114.480765 591.399,114.692 C592.632245,114.97174 593.881639,115.174795 595.14,115.3 L595.14,119.669 L556.871,119.669 L556.871,115.3 C557.704,115.266 558.924,115.141 560.54,114.941 C561.739814,114.830427 562.921972,114.575932 564.061,114.183 C565.148351,113.798995 566.042841,113.005686 566.554,111.972 C567.044131,110.871722 567.283245,109.676153 567.254,108.472 L567.254,52.252 C567.289209,51.1194541 567.075519,49.9929739 566.628,48.952 C566.059062,47.9035207 565.155322,47.0758258 564.061,46.601 C562.847138,46.0285143 561.575589,45.5873444 560.268,45.285 C559.152096,44.9822688 558.018621,44.7484936 556.874,44.585 L556.874,40.214 L595.143,40.214 L595.143,44.58 C593.900538,44.6860099 592.666489,44.8744246 591.449,45.144 C590.337468,45.3602879 589.239316,45.6404185 588.16,45.983 C587.002734,46.3417729 586.061784,47.191297 585.587,48.306 C585.169033,49.3849714 584.957694,50.5329191 584.964,51.69 L584.964,75.43 L615.2,75.43 L615.2,52.255 C615.235318,51.1206406 615.015228,49.9928479 614.556,48.955 C613.966462,47.9104812 613.054194,47.0852296 611.956,46.603 C610.846569,46.0629006 609.683984,45.6396247 608.487,45.34 C607.349133,45.0152921 606.191808,44.7631187 605.022,44.585 L605.022,40.217 L643.291,40.217 L643.291,44.583 C642.083165,44.6758993 640.881351,44.8351396 639.691,45.06 C638.470406,45.2746943 637.268425,45.5843006 636.096,45.986 C634.959342,46.3553116 634.034235,47.1920184 633.553,48.286 C633.110507,49.3684707 632.889486,50.5286581 632.903,51.698 L632.903,107.972 C632.868021,109.143144 633.089882,110.307745 633.553,111.384 C634.10642,112.435764 635.004112,113.26568 636.096,113.735 C637.209294,114.207108 638.374319,114.546446 639.567,114.746 C640.795333,115.000975 642.036926,115.187264 643.286,115.304 L643.286,119.667 L643.286,119.667 L643.291,119.663 Z M720.223,62.943 L716.331,62.943 C715.11211,59.1238195 713.450123,55.4605331 711.379,52.028 C709.105667,48.1453333 707.005667,46.0546667 705.079,45.756 C704.014,45.609 702.707,45.475 701.147,45.363 C699.587,45.251 698.247,45.198 697.112,45.198 L694.77,45.198 L694.77,107.513 C694.7461,108.729691 694.967503,109.938731 695.421,111.068 C695.928106,112.172518 696.837143,113.042219 697.963,113.5 C699.11634,113.959009 700.311182,114.305942 701.531,114.536 C703.144,114.895 704.519,115.144 705.646,115.294 L705.646,119.663 L666.179,119.663 L666.179,115.294 C667.145,115.185 668.505,115.026 670.245,114.82 C671.46298,114.734608 672.663497,114.482594 673.813,114.071 C674.951047,113.62134 675.878892,112.760943 676.413,111.66 C676.867261,110.521364 677.086326,109.302555 677.057,108.077 L677.057,45.195 L674.719,45.195 C673.592333,45.195 672.247333,45.25 670.684,45.36 C669.126,45.472 667.813,45.606 666.754,45.753 C664.828,46.0523333 662.728,48.143 660.454,52.025 C658.382021,55.4573541 656.719352,59.1206636 655.5,62.94 L651.607,62.94 L651.607,40.211 L720.207,40.211 L720.207,62.943 L720.219,62.943 L720.223,62.943 Z" id="Shape"></path>
                    <path d="M145.308625,23.7467969 C146.163447,23.7467969 146.865914,23.6579306 147.416047,23.4801953 C148.397823,23.1501155 149.201851,22.5153563 149.828156,21.5758984 C150.327508,20.8226395 150.687205,19.8578054 150.907258,18.6813672 C151.034212,17.9788897 151.097688,17.3272035 151.097688,16.7262891 C151.097688,14.4157306 150.638545,12.6214777 149.720246,11.3434766 C148.801947,10.0654754 147.322958,9.42648437 145.283234,9.42648437 L140.801789,9.42648437 L140.801789,23.7467969 L145.308625,23.7467969 Z M138.262727,7.25558594 L145.816438,7.25558594 C148.380903,7.25558594 150.369816,8.16540757 151.783234,9.98507812 C153.044308,11.6270134 153.674836,13.7301825 153.674836,16.2946484 C153.674836,18.2751271 153.302444,20.0651483 152.557648,21.6647656 C151.245793,24.4916027 148.990282,25.905 145.791047,25.905 L138.262727,25.905 L138.262727,7.25558594 Z M165.087922,12.682832 C165.993525,13.1356338 166.683297,13.7217282 167.157258,14.4411328 C167.614291,15.1266831 167.918976,15.9264798 168.07132,16.8405469 C168.206738,17.4668521 168.274445,18.46554 168.274445,19.8366406 L158.308625,19.8366406 C158.350943,21.2162048 158.676786,22.3228018 159.286164,23.1564648 C159.895542,23.9901279 160.839218,24.4069531 162.117219,24.4069531 C163.310584,24.4069531 164.262723,24.0134024 164.973664,23.2262891 C165.379916,22.7692555 165.667674,22.2402895 165.836945,21.639375 L168.084016,21.639375 C168.024771,22.1387265 167.827995,22.6951988 167.493684,23.3088086 C167.159372,23.9224184 166.784864,24.4238783 166.370148,24.8132031 C165.676135,25.4902898 164.817094,25.9473165 163.793,26.1842969 C163.242867,26.3197142 162.620803,26.3874219 161.926789,26.3874219 C160.234072,26.3874219 158.799516,25.7717054 157.623078,24.5402539 C156.44664,23.3088024 155.85843,21.5843731 155.85843,19.3669141 C155.85843,17.1833094 156.450872,15.4102151 157.635773,14.0475781 C158.820675,12.6849411 160.369488,12.0036328 162.282258,12.0036328 C163.247106,12.0036328 164.182318,12.2300303 165.087922,12.682832 L165.087922,12.682832 Z M165.925813,18.0212109 C165.832713,17.0309716 165.616895,16.2396384 165.278352,15.6471875 C164.652046,14.5469216 163.606809,13.9967969 162.142609,13.9967969 C161.093125,13.9967969 160.212925,14.3755366 159.501984,15.1330273 C158.791043,15.8905181 158.414419,16.8532363 158.372102,18.0212109 L165.925813,18.0212109 Z M171.080109,12.3083203 L173.339875,12.3083203 L173.339875,14.2380078 C173.881544,13.5693847 174.372425,13.0827359 174.812531,12.7780469 C175.56579,12.2617683 176.420599,12.0036328 177.376984,12.0036328 C178.460323,12.0036328 179.332059,12.2702317 179.992219,12.8034375 C180.364616,13.1081265 180.703155,13.5566897 181.007844,14.1491406 C181.515659,13.4212724 182.112333,12.881727 182.797883,12.5304883 C183.483433,12.1792495 184.253608,12.0036328 185.10843,12.0036328 C186.936564,12.0036328 188.180692,12.6637825 188.840852,13.9841016 C189.196322,14.6950426 189.374055,15.6514133 189.374055,16.8532422 L189.374055,25.905 L187.000031,25.905 L187.000031,16.4596875 C187.000031,15.554084 186.773634,14.9320199 186.320832,14.5934766 C185.86803,14.2549332 185.31579,14.0856641 184.664094,14.0856641 C183.766954,14.0856641 182.994663,14.3861168 182.347199,14.9870312 C181.699735,15.5879457 181.376008,16.5908654 181.376008,17.9958203 L181.376008,25.905 L179.052766,25.905 L179.052766,17.0309766 C179.052766,16.1084459 178.942741,15.4356011 178.722688,15.0124219 C178.375681,14.3776531 177.728226,14.0602734 176.780305,14.0602734 C175.917019,14.0602734 175.132033,14.39458 174.425324,15.0632031 C173.718615,15.7318263 173.365266,16.9421006 173.365266,18.6940625 L173.365266,25.905 L171.080109,25.905 L171.080109,12.3083203 Z M192.738313,12.3717969 L195.061555,12.3717969 L195.061555,25.905 L192.738313,25.905 L192.738313,12.3717969 Z M192.738313,7.25558594 L195.061555,7.25558594 L195.061555,9.84542969 L192.738313,9.84542969 L192.738313,7.25558594 Z M198.51468,12.3083203 L200.685578,12.3083203 L200.685578,14.2380078 C201.328811,13.4424309 202.010119,12.8711476 202.729523,12.5241406 C203.448928,12.1771337 204.248725,12.0036328 205.128938,12.0036328 C207.058635,12.0036328 208.362007,12.6764776 209.039094,14.0221875 C209.411491,14.7585193 209.597688,15.8122197 209.597688,17.1833203 L209.597688,25.905 L207.274445,25.905 L207.274445,17.3356641 C207.274445,16.5062328 207.151725,15.8376197 206.906281,15.3298047 C206.500029,14.4834463 205.763708,14.0602734 204.697297,14.0602734 C204.155628,14.0602734 203.711296,14.1152859 203.364289,14.2253125 C202.737984,14.4115113 202.187859,14.7839035 201.713898,15.3425 C201.333037,15.79107 201.085481,16.2544442 200.971223,16.7326367 C200.856964,17.2108292 200.799836,17.8942534 200.799836,18.7829297 L200.799836,25.905 L198.51468,25.905 L198.51468,12.3083203 Z M220.566438,12.8542187 C220.99808,13.1504442 221.43818,13.5820805 221.88675,14.1491406 L221.88675,12.4352734 L223.994172,12.4352734 L223.994172,24.8005078 C223.994172,26.5270789 223.740268,27.8896955 223.232453,28.8883984 C222.284532,30.7334597 220.494511,31.6559766 217.862336,31.6559766 C216.398136,31.6559766 215.166703,31.3280176 214.168,30.6720898 C213.169297,30.0161621 212.610709,28.9899679 212.492219,27.5934766 L214.815461,27.5934766 C214.925488,28.2028546 215.145537,28.6725765 215.475617,29.0026562 C215.991896,29.5104713 216.804388,29.764375 217.913117,29.764375 C219.665079,29.764375 220.811878,29.1465426 221.353547,27.9108594 C221.675163,27.1829912 221.823274,25.8838505 221.797883,24.0133984 C221.340849,24.7074123 220.790725,25.2236832 220.147492,25.5622266 C219.50426,25.9007699 218.653682,26.0700391 217.595734,26.0700391 C216.123071,26.0700391 214.834509,25.5474206 213.730012,24.502168 C212.625514,23.4569153 212.073273,21.7282542 212.073273,19.3161328 C212.073273,17.0394287 212.629746,15.2621027 213.742707,13.9841016 C214.855668,12.7061004 216.199242,12.0671094 217.773469,12.0671094 C218.83988,12.0671094 219.770861,12.3294765 220.566438,12.8542187 L220.566438,12.8542187 Z M220.845734,15.3044141 C220.15172,14.49191 219.267289,14.0856641 218.192414,14.0856641 C216.584333,14.0856641 215.484084,14.8389117 214.891633,16.3454297 C214.57848,17.1494702 214.421906,18.2031706 214.421906,19.5065625 C214.421906,21.0384712 214.732938,22.2043124 215.355012,23.0041211 C215.977085,23.8039298 216.812852,24.2038281 217.862336,24.2038281 C219.504271,24.2038281 220.659533,23.4632756 221.328156,21.9821484 C221.700554,21.1442536 221.88675,20.1667243 221.88675,19.0495312 C221.88675,17.365278 221.539748,16.1169181 220.845734,15.3044141 L220.845734,15.3044141 Z" id="Deming"></path>
                </g>
            </g>
        </g>
    </g>
</svg>