<svg xmlns="http://www.w3.org/2000/svg" xmlns:xlink="http://www.w3.org/1999/xlink" width="719.219" height="139.969" viewBox="0 0 719.219 139.969">
  <defs>
    <style>
      @font-face {
        font-family: 'Futura Today';
        src: url('../../fonts/FuturaToday/FuturaTodayNormal.otf');
        font-weight: normal;
      }

      .cls-1 {
        filter: url(#filter);
      }

      .cls-2, .cls-3, .cls-4 {
        fill: #fff;
      }

      .cls-2, .cls-3 {
        fill-rule: evenodd;
      }

      .cls-2 {
        filter: url(#filter-2);
      }

      .cls-4 {
        font-size: 26px;
        text-anchor: middle;
        font-family: 'Futura Today';
        text-transform: uppercase;
      }
    </style>
    <filter id="filter" filterUnits="userSpaceOnUse">
      <feFlood result="flood" flood-color="#333"/>
      <feComposite result="composite" operator="in" in2="SourceGraphic"/>
      <feBlend result="blend" in2="SourceGraphic"/>
    </filter>
    <filter id="filter-2" x="349" y="157.969" width="367.969" height="16" filterUnits="userSpaceOnUse">
      <feFlood result="flood" flood-color="#999"/>
      <feComposite result="composite" operator="in" in2="SourceGraphic"/>
      <feBlend result="blend" in2="SourceGraphic"/>
    </filter>
  </defs>
  <g id="demingheadlight" class="cls-1">
    <path id="USAT_Network" data-name="USAT Network" class="cls-2" d="M348.989,158.273h4.489c3.156,0,5.267,1.865,5.267,4.741s-2.155,4.735-5.267,4.735h-2.29v5.925h-2.2v-15.4Zm4.267,7.659c2.112,0,3.244-1.163,3.244-2.918,0-1.736-1.132-2.919-3.244-2.919h-2.068v5.837h2.068Zm11.768-7.659h1.955l6.4,15.4h-2.358l-1.6-4.035h-6.912l-1.6,4.035H358.6S364.244,160.162,365.024,158.273Zm3.665,9.544-1.488-3.794c-0.222-.572-1.179-2.942-1.2-3.139h-0.043c-0.022.2-.955,2.5-1.2,3.139l-1.51,3.794h5.443Zm6.924-9.544h4.51c2.91,0,5.178,1.5,5.178,4.563a4.293,4.293,0,0,1-3.955,4.346l4.778,6.492h-2.579l-4.51-6.276h-1.223v6.276h-2.2v-15.4Zm4.267,7.351c2.043,0,3.2-1.077,3.2-2.764s-1.157-2.765-3.2-2.765h-2.068v5.529h2.068Zm11.522-5.486h-4.445v-1.865h11.089v1.865H393.6v13.536h-2.2V160.138Zm12.347,5.838a8.2,8.2,0,1,1,8.2,8A7.862,7.862,0,0,1,403.749,165.976Zm14.133,0a5.946,5.946,0,1,0-5.955,6.053A5.772,5.772,0,0,0,417.882,165.976Zm5.433-7.7h7.867v1.865h-5.668V165.1H431v1.865h-5.49v6.713h-2.2v-15.4Zm17.815,1.865h-4.444v-1.865h11.088v1.865h-4.445v13.536h-2.2V160.138Zm8.953-1.865h2.2v6.318h8.178v-6.318h2.2v15.4h-2.2v-7.218h-8.178v7.218h-2.2v-15.4Zm16.631,0h8.49v1.846h-6.291v4.472h6.111v1.846h-6.111v5.395h6.423v1.842h-8.622v-15.4Zm16,10.092V158.273h2.221v9.433c0,2.679,1.157,4.323,3.756,4.323,2.622,0,3.78-1.644,3.78-4.323v-9.433h2.221v10.092c0,3.38-2.2,5.616-6,5.616C484.865,173.981,482.71,171.745,482.71,168.365Zm14.274,2.524,1.491-1.25a4.52,4.52,0,0,0,3.911,2.433c1.709,0,3.044-.918,3.044-2.611,0-1.817-1.534-2.433-3.446-3.178-1.956-.769-3.933-1.736-3.933-4.193,0-2.432,1.912-4.12,4.712-4.12a5.248,5.248,0,0,1,4.579,2.322l-1.491,1.25a3.552,3.552,0,0,0-3.088-1.668c-1.512,0-2.511.769-2.511,2.063,0,1.6,1.554,2.13,2.911,2.654,2.2,0.856,4.466,1.889,4.466,4.716,0,2.679-2,4.674-5.2,4.674A6.064,6.064,0,0,1,496.984,170.889Zm18.241-12.616h1.956l6.4,15.4h-2.357l-1.6-4.035h-6.912l-1.6,4.035H508.8S514.446,160.162,515.225,158.273Zm3.665,9.544-1.487-3.794c-0.222-.572-1.179-2.942-1.2-3.139h-0.044c-0.022.2-.955,2.5-1.2,3.139l-1.51,3.794h5.443Zm13.978-7.679h-4.445v-1.865h11.088v1.865h-4.444v13.536h-2.2V160.138Zm7.469,5.838a8.2,8.2,0,1,1,8.2,8A7.861,7.861,0,0,1,540.337,165.976Zm14.132,0a5.945,5.945,0,1,0-5.954,6.053A5.772,5.772,0,0,0,554.469,165.976Zm5.434-7.7h4.422c4.978,0,8.266,2.808,8.266,7.7,0,4.87-3.312,7.7-8.266,7.7H559.9v-15.4Zm2.2,13.534h2.046c3.643,0,6.176-1.9,6.176-5.831s-2.533-5.838-6.176-5.838H562.1v11.669Zm17.637-13.534H581.7l6.4,15.4h-2.357l-1.6-4.035h-6.912l-1.6,4.035h-2.311S578.96,160.162,579.739,158.273Zm3.666,9.544-1.489-3.794c-0.221-.572-1.178-2.942-1.2-3.139h-0.044c-0.022.2-.955,2.5-1.2,3.139l-1.51,3.794h5.444Zm9.084-.419-5.312-9.125h2.467l2.889,5.135a22.887,22.887,0,0,1,1.11,2.192h0.022a23.153,23.153,0,0,1,1.113-2.192l2.91-5.135h2.4l-5.309,9.125v6.276h-2.289V167.4Zm14.062-9.125h1.687l8.846,9.982c0.266,0.288,1.422,1.711,1.534,1.932l0.044-.023c-0.044-.217-0.044-2-0.044-2.39v-9.5h2.134v15.4h-1.713l-8.845-9.983c-0.265-.283-1.422-1.711-1.532-1.928l-0.021.02c0.021,0.221.043,2,.043,2.394v9.5h-2.133v-15.4Zm18.253,0h8.487v1.846H627v4.472h6.113v1.846H627v5.395h6.422v1.842H624.8v-15.4Zm15.37,1.865h-4.445v-1.865h11.089v1.865h-4.445v13.536h-2.2V160.138Zm8.477-1.865h2.334l3.2,9.15c0.112,0.351.867,2.63,0.889,2.981h0.046a30.445,30.445,0,0,1,.933-2.981l3.334-9.15h1.756l3.332,9.15c0.133,0.351.91,2.63,0.935,2.981h0.044c0.044-.351.8-2.63,0.91-2.981l3.179-9.15h2.243l-5.49,15.4h-1.688l-3.6-9.607a25.578,25.578,0,0,1-.758-2.5h-0.044a25.693,25.693,0,0,1-.776,2.5l-3.578,9.607h-1.69Zm24.119,7.7a8.2,8.2,0,1,1,8.2,8A7.861,7.861,0,0,1,672.77,165.976Zm14.132,0a5.945,5.945,0,1,0-5.955,6.053A5.772,5.772,0,0,0,686.9,165.976Zm5.433-7.7h4.511c2.913,0,5.177,1.5,5.177,4.563a4.293,4.293,0,0,1-3.955,4.346l4.779,6.492h-2.579l-4.511-6.276h-1.222v6.276h-2.2v-15.4Zm4.267,7.351c2.044,0,3.2-1.077,3.2-2.764s-1.156-2.765-3.2-2.765h-2.067v5.529H696.6Zm8.736-7.351h2.2v7.154l6.444-7.154h2.666l-6.687,7.351,7,8.05h-2.754l-6.668-7.785v7.785h-2.2v-15.4Z" transform="translate(0 -34)"/>
    <path class="cls-3" d="M120.1,144.741H66.676v-6.032c1.161-.1,2.852-0.258,5.085-0.458a14.536,14.536,0,0,0,4.6-.936,6.964,6.964,0,0,0,3.552-3.053,10.568,10.568,0,0,0,.972-4.828V91.654h-42.2v36.929a10.72,10.72,0,0,0,1.006,4.722,7.027,7.027,0,0,0,3.45,3.246,23.7,23.7,0,0,0,4.524,1.307,38.739,38.739,0,0,0,5.227.851v6.032H-0.529v-6.032c1.158-.053,2.864-0.215,5.116-0.5A21.716,21.716,0,0,0,9.5,137.166a6.133,6.133,0,0,0,3.478-3.054,11.093,11.093,0,0,0,.976-4.83V51.707a10.6,10.6,0,0,0-.87-4.556A7.5,7.5,0,0,0,9.5,43.907a26.369,26.369,0,0,0-5.3-1.818,40.58,40.58,0,0,0-4.729-.967V35.094H52.89v6.029a40.31,40.31,0,0,0-5.153.773,41.4,41.4,0,0,0-4.6,1.16,5.708,5.708,0,0,0-3.586,3.206,12.572,12.572,0,0,0-.87,4.675V83.7H80.887V51.707a10.316,10.316,0,0,0-.907-4.556,7.7,7.7,0,0,0-3.617-3.243,24.95,24.95,0,0,0-4.843-1.74,38.171,38.171,0,0,0-4.837-1.042V35.094H120.1v6.029a47.652,47.652,0,0,0-5.014.655,33.866,33.866,0,0,0-5.013,1.276,5.817,5.817,0,0,0-3.552,3.169,12.017,12.017,0,0,0-.907,4.712v77.65a11.03,11.03,0,0,0,.907,4.722,7.234,7.234,0,0,0,3.552,3.246,21.971,21.971,0,0,0,4.84,1.382,44.858,44.858,0,0,0,5.187.776v6.032H120.1Zm66.886-59.262h-3.793a30.688,30.688,0,0,0-4.989-9.15q-3.549-4.631-7.036-5.461A19.665,19.665,0,0,0,167,70.391q-2.671-.089-4.416-0.087H152.3v30.628h7.284a16.171,16.171,0,0,0,4.988-.723,9.4,9.4,0,0,0,4.091-2.8,14.477,14.477,0,0,0,2.323-4.538,29.745,29.745,0,0,0,1.52-5.654H176.3v33.146H172.51a31.193,31.193,0,0,0-1.52-5.907,16.98,16.98,0,0,0-2.323-4.9,8.415,8.415,0,0,0-3.892-2.77,16.135,16.135,0,0,0-5.187-.758H152.3v22.9a27.174,27.174,0,0,0,.471,5.686,5.765,5.765,0,0,0,1.771,3.218,6.752,6.752,0,0,0,3.416,1.4,40.594,40.594,0,0,0,5.915.334q1.75,0,4.192-.059a34.885,34.885,0,0,0,4.29-.334,23.539,23.539,0,0,0,3.917-.842A5.535,5.535,0,0,0,179,136.707a45.688,45.688,0,0,0,5.388-8.367,63.994,63.994,0,0,0,3.939-8.424h3.645l-1.35,24.747H124.211v-4.369q1.4-.113,3.793-0.443a14.328,14.328,0,0,0,3.394-.783,5.012,5.012,0,0,0,2.542-2.27,8.218,8.218,0,0,0,.651-3.5V77.252a8.64,8.64,0,0,0-.551-3.331,5.247,5.247,0,0,0-2.642-2.383,16.8,16.8,0,0,0-3.642-1.235q-2.346-.557-3.545-0.727V65.211h62.77V85.479Zm83.529,59.184H231.94v-4.369a42.352,42.352,0,0,0,6.323-1.095c2.428-.577,3.636-1.291,3.636-2.149a6.483,6.483,0,0,0-.5-2.517l-6.041-16.463H210.919q-0.846,2.3-1.864,5.373-1.017,3.088-1.759,5.489a31.024,31.024,0,0,0-1.118,4.535,19.014,19.014,0,0,0-.173,1.961c0,1.2.808,2.212,2.418,3.054s4.295,1.453,8.052,1.818v4.369H187.436V140.3a24.1,24.1,0,0,0,3.72-.586,9.394,9.394,0,0,0,3.267-1.316,13.131,13.131,0,0,0,3.471-3.306,17.969,17.969,0,0,0,2.369-4.644q5.793-15.737,11.6-31.53T224.715,64.1h9.972Q244.46,91.084,250,106.758t9.43,25.985a13.422,13.422,0,0,0,1.644,3.054,11.234,11.234,0,0,0,2.843,2.6,10.431,10.431,0,0,0,3.245,1.344,21.18,21.18,0,0,0,3.341.558v4.36h0Zm-37.2-32.141L223.055,83.8l-10.1,28.717h20.348ZM336.34,73.385a34.842,34.842,0,0,1,10.476,12.684q3.99,7.92,3.992,19.4a40.36,40.36,0,0,1-3.564,17.552,34.657,34.657,0,0,1-9.458,12.235,40.738,40.738,0,0,1-13.6,7.083,54.245,54.245,0,0,1-15.942,2.326H272.572V140.3c1.065-.034,2.4-0.15,3.992-0.331a11.563,11.563,0,0,0,3.2-.677,4.963,4.963,0,0,0,2.492-2.261,7.771,7.771,0,0,0,.7-3.443V77.252a8.714,8.714,0,0,0-.65-3.443,5.014,5.014,0,0,0-2.542-2.489,13.494,13.494,0,0,0-4.017-1.288c-1.418-.225-2.5-0.374-3.273-0.452V65.214h37.672a52.82,52.82,0,0,1,12.922,1.737A37.873,37.873,0,0,1,336.34,73.385Zm-10.182,56.944a35.339,35.339,0,0,0,3.571-10.659,80.659,80.659,0,0,0,1.121-14.259,64.229,64.229,0,0,0-1.5-14.39,35.669,35.669,0,0,0-4.391-11.084,20.97,20.97,0,0,0-7.21-7.108,19.066,19.066,0,0,0-9.8-2.523c-1.161,0-2.49.028-3.967,0.087s-2.589.106-3.316,0.137v60.307a12.1,12.1,0,0,0,.473,3.552,6.674,6.674,0,0,0,1.623,2.719,7.862,7.862,0,0,0,2.821,1.819,12.383,12.383,0,0,0,4.363.642,18.953,18.953,0,0,0,9.681-2.351A17.456,17.456,0,0,0,326.158,130.329Zm99.659-11.136-1.4,25.47H359.2v-4.369c1.168-.109,2.53-0.293,4.094-0.534a15.271,15.271,0,0,0,3.094-.692,4.807,4.807,0,0,0,2.493-2.186,8.04,8.04,0,0,0,.7-3.584V77.252a8.621,8.621,0,0,0-.551-3.331,5.244,5.244,0,0,0-2.641-2.383,15.805,15.805,0,0,0-3.719-1.257c-1.444-.315-2.605-0.546-3.469-0.7V65.214h38.871V69.58c-1.069.112-2.323,0.274-3.769,0.477a20.367,20.367,0,0,0-3.769.867,4.238,4.238,0,0,0-2.6,2.27,8.984,8.984,0,0,0-.644,3.5v52.238a29.331,29.331,0,0,0,.449,5.82,5.166,5.166,0,0,0,1.746,3.143,6.993,6.993,0,0,0,3.62,1.366,50.63,50.63,0,0,0,6.411.312,55.224,55.224,0,0,0,7.757-.533c2.511-.359,4.314-1.126,5.413-2.327a39.283,39.283,0,0,0,5.218-8.03,86.921,86.921,0,0,0,4.264-9.484h3.642v-0.006Zm37.957,25.47H424.5v-4.369l3.967-.331a12.638,12.638,0,0,0,3.617-.677,4.9,4.9,0,0,0,2.518-2.211,7.851,7.851,0,0,0,.675-3.493V77.252a8.088,8.088,0,0,0-.651-3.356,4.9,4.9,0,0,0-2.542-2.358,20.759,20.759,0,0,0-3.546-1.148,39.052,39.052,0,0,0-4.041-.814V65.211h39.27v4.366c-1,.112-2.249.275-3.744,0.477a19.173,19.173,0,0,0-3.794.867,4.229,4.229,0,0,0-2.592,2.27,8.9,8.9,0,0,0-.65,3.5v56.274a7.991,7.991,0,0,0,.675,3.443,5.02,5.02,0,0,0,2.567,2.317,15.231,15.231,0,0,0,3.472.982,33.663,33.663,0,0,0,4.066.587v4.369h0Zm84.553-32.31c-1.031.113-1.945,0.24-2.747,0.393a19.621,19.621,0,0,0-2.994.892,4.2,4.2,0,0,0-2.694,2.405,9.823,9.823,0,0,0-.645,3.533v9.241c0,1.871.016,3.368,0.05,4.513s0.084,2.541.149,4.219q-4.989,3.369-14.744,6.331a62.06,62.06,0,0,1-17.936,2.966,39.339,39.339,0,0,1-14.422-2.635,32.983,32.983,0,0,1-11.82-7.9,36.888,36.888,0,0,1-8.008-12.942A49.938,49.938,0,0,1,469.6,105.66a52.089,52.089,0,0,1,2.74-17.2,39.029,39.029,0,0,1,7.934-13.613,34.5,34.5,0,0,1,12.4-8.742,41.254,41.254,0,0,1,16.19-3.081,35.779,35.779,0,0,1,11.176,1.681,47,47,0,0,1,8.485,3.587l3.094-3.081h4.339l0.452,29h-4.392q-3.784-13.071-9.079-19.414a16.668,16.668,0,0,0-13.369-6.343q-9.582,0-14.793,9.415t-5.215,25.941q0,17.547,5.113,27.457t14.493,9.927a19.5,19.5,0,0,0,7.81-1.488,16.537,16.537,0,0,0,5.317-3.443V120.138a7.939,7.939,0,0,0-.651-3.391,5.554,5.554,0,0,0-2.6-2.382,15.5,15.5,0,0,0-3.74-1.282c-1.5-.337-2.744-0.583-3.741-0.73v-4.369h36.773v4.369h-0.012Zm93.964,32.31H604.022v-4.369c0.833-.075,2.044-0.184,3.642-0.331a10.531,10.531,0,0,0,3.292-.677,5.051,5.051,0,0,0,2.545-2.211,7.674,7.674,0,0,0,.7-3.493V106.2H583.964v26.768a7.842,7.842,0,0,0,.722,3.412,5.021,5.021,0,0,0,2.471,2.351,16.914,16.914,0,0,0,3.242.961,30.613,30.613,0,0,0,3.741.608v4.369H555.871V140.3c0.833-.034,2.053-0.159,3.669-0.359a15.025,15.025,0,0,0,3.521-.758,4.425,4.425,0,0,0,2.493-2.211,8.117,8.117,0,0,0,.7-3.5V77.252a7.746,7.746,0,0,0-.626-3.3,5.338,5.338,0,0,0-2.567-2.351,18.844,18.844,0,0,0-3.793-1.316,28.184,28.184,0,0,0-3.394-.7V65.214h38.269V69.58a28.162,28.162,0,0,0-3.694.564,29.49,29.49,0,0,0-3.289.839,4.124,4.124,0,0,0-2.573,2.323,9.229,9.229,0,0,0-.623,3.384V100.43H614.2V77.255a7.573,7.573,0,0,0-.644-3.3,5.546,5.546,0,0,0-2.6-2.352,17.8,17.8,0,0,0-3.469-1.263,27.97,27.97,0,0,0-3.465-.755V65.217h38.269v4.366a33.048,33.048,0,0,0-3.6.477,23.825,23.825,0,0,0-3.595.926,4.194,4.194,0,0,0-2.543,2.3,8.75,8.75,0,0,0-.65,3.412v56.274a8.026,8.026,0,0,0,.65,3.412,5.189,5.189,0,0,0,2.543,2.351,15.4,15.4,0,0,0,3.471,1.011,33.75,33.75,0,0,0,3.719.558v4.363h0Zm76.932-56.72h-3.892a51.345,51.345,0,0,0-4.952-10.915q-3.41-5.824-6.3-6.272c-1.065-.147-2.372-0.281-3.932-0.393s-2.9-.165-4.035-0.165h-2.342v62.315a9.062,9.062,0,0,0,.651,3.555,4.777,4.777,0,0,0,2.542,2.432,19.345,19.345,0,0,0,3.568,1.036c1.613,0.359,2.988.608,4.115,0.758v4.369H665.179v-4.369c0.966-.109,2.326-0.268,4.066-0.474a13.355,13.355,0,0,0,3.568-.749,4.885,4.885,0,0,0,2.6-2.411,9.083,9.083,0,0,0,.644-3.583V70.195h-2.338q-1.69,0-4.035.165c-1.558.112-2.871,0.246-3.93,0.393q-2.889.449-6.3,6.272A51.325,51.325,0,0,0,654.5,87.94h-3.893V65.211h68.6V87.943h0.012Z" transform="translate(0 -34)"/>
    <text id="Deming" class="cls-4" transform="translate(193.353 24.255) scale(1.293 1.294)">Deming</text>
  </g>
</svg>
