<svg xmlns="http://www.w3.org/2000/svg" width="447" height="43" viewBox="0 0 447 43">
  <g fill="none" fill-rule="evenodd" transform="translate(0 -1)">
    <path fill="#FFFFFE" d="M8.599 28.443L12.424 28.443C14.614 28.443 16.346 27.649 17.622 26.058 18.897 24.468 19.534 22.368 19.534 19.758 19.534 17.148 18.897 15.048 17.622 13.458 16.346 11.868 14.614 11.073 12.424 11.073L8.599 11.073 8.599 28.443zM.364 35.058L.364 4.458 12.424 4.458C15.454 4.458 18.131 5.11 20.457 6.415 22.781 7.721 24.604 9.521 25.924 11.815 27.244 14.11 27.904 16.758 27.904 19.758 27.904 22.758 27.244 25.405 25.924 27.7 24.604 29.995 22.781 31.795 20.457 33.101 18.131 34.405 15.454 35.058 12.424 35.058L.364 35.058.364 35.058zM43.114 17.238C40.564 17.238 39.034 18.588 38.524 21.288L47.254 21.288C47.044 19.818 46.541 18.775 45.746 18.16 44.951 17.546 44.074 17.238 43.114 17.238zM53.824 32.718C52.683 33.528 51.236 34.218 49.482 34.788 47.726 35.357 45.859 35.643 43.879 35.643 41.149 35.643 38.817 35.14 36.881 34.135 34.946 33.131 33.462 31.728 32.426 29.928 31.391 28.128 30.874 26.058 30.874 23.718 30.874 21.349 31.384 19.248 32.404 17.418 33.423 15.588 34.834 14.155 36.634 13.12 38.434 12.085 40.533 11.568 42.934 11.568 45.274 11.568 47.336 12.07 49.121 13.075 50.906 14.081 52.301 15.476 53.306 17.26 54.311 19.046 54.814 21.138 54.814 23.538 54.814 23.868 54.792 24.213 54.746 24.573 54.701 24.933 54.649 25.309 54.589 25.698L38.614 25.698C39.334 28.338 41.298 29.658 44.509 29.658 45.949 29.658 47.224 29.433 48.334 28.983 49.443 28.533 50.374 28.083 51.124 27.633L53.824 32.718 53.824 32.718zM67.324 35.643C65.344 35.643 63.491 35.328 61.766 34.698 60.041 34.068 58.488 33.168 57.109 31.998L60.439 27.588C61.488 28.428 62.621 29.111 63.836 29.635 65.051 30.161 66.244 30.423 67.414 30.423 68.193 30.423 68.815 30.288 69.281 30.018 69.746 29.748 69.979 29.343 69.979 28.803 69.979 28.233 69.716 27.775 69.191 27.431 68.666 27.086 67.729 26.748 66.378 26.418L64.219 25.878C59.928 24.738 57.784 22.443 57.784 18.993 57.784 17.463 58.204 16.143 59.044 15.033 59.883 13.923 61.039 13.068 62.509 12.468 63.978 11.868 65.688 11.568 67.639 11.568 69.558 11.568 71.366 11.868 73.061 12.468 74.756 13.068 76.308 13.938 77.719 15.078L74.299 19.578C73.248 18.738 72.139 18.064 70.969 17.553 69.799 17.043 68.703 16.788 67.684 16.788 66.033 16.788 65.209 17.328 65.209 18.408 65.209 18.888 65.456 19.278 65.951 19.578 66.446 19.878 67.144 20.149 68.044 20.388L70.969 21.198C73.158 21.798 74.778 22.698 75.829 23.898 76.878 25.098 77.404 26.524 77.404 28.173 77.404 29.673 76.983 30.985 76.144 32.11 75.303 33.235 74.126 34.105 72.611 34.721 71.096 35.335 69.333 35.643 67.324 35.643"/>
    <polyline fill="#FFFFFE" points="107.148 32.223 100.173 16.068 100.173 35.058 93.108 35.058 93.108 4.458 102.468 4.458 110.478 23.583 118.263 4.458 127.623 4.458 127.623 35.058 120.648 35.058 120.648 15.843 113.583 32.223 107.148 32.223"/>
    <path fill="#FFFFFE" d="M144.858 29.433C146.237 29.433 147.34 28.9 148.165 27.836 148.99 26.77 149.403 25.353 149.403 23.583 149.403 21.813 148.99 20.403 148.165 19.353 147.34 18.303 146.237 17.778 144.858 17.778 143.478 17.778 142.375 18.303 141.55 19.353 140.725 20.403 140.313 21.813 140.313 23.583 140.313 25.353 140.725 26.77 141.55 27.836 142.375 28.9 143.478 29.433 144.858 29.433zM144.858 35.643C142.398 35.643 140.23 35.125 138.355 34.09 136.48 33.056 135.01 31.638 133.945 29.838 132.88 28.038 132.348 25.953 132.348 23.583 132.348 21.213 132.88 19.128 133.945 17.328 135.01 15.528 136.48 14.118 138.355 13.098 140.23 12.078 142.398 11.568 144.858 11.568 147.317 11.568 149.485 12.078 151.36 13.098 153.235 14.118 154.705 15.528 155.77 17.328 156.835 19.128 157.368 21.213 157.368 23.583 157.368 25.953 156.835 28.038 155.77 29.838 154.705 31.638 153.235 33.056 151.36 34.09 149.485 35.125 147.317 35.643 144.858 35.643L144.858 35.643zM161.462 35.058L161.462 12.153C162.722 12.423 163.997 12.558 165.288 12.558 166.607 12.558 167.942 12.423 169.293 12.153L169.293 35.058 161.462 35.058M182.612 22.413L182.612 35.058 174.782 35.058 174.782 12.153 181.937 12.153 182.342 15.168C183.091 14.088 184.067 13.218 185.267 12.558 186.466 11.899 187.787 11.568 189.227 11.568 191.717 11.568 193.711 12.378 195.212 13.998 196.712 15.618 197.462 17.943 197.462 20.973L197.462 35.058 189.632 35.058 189.632 21.873C189.632 20.523 189.332 19.526 188.732 18.88 188.131 18.235 187.292 17.913 186.212 17.913 185.132 17.913 184.262 18.258 183.602 18.948 182.942 19.639 182.612 20.793 182.612 22.413M213.392 17.238C210.841 17.238 209.312 18.588 208.802 21.288L217.532 21.288C217.321 19.818 216.819 18.775 216.024 18.16 215.229 17.546 214.352 17.238 213.392 17.238zM224.102 32.718C222.961 33.528 221.514 34.218 219.759 34.788 218.004 35.357 216.137 35.643 214.157 35.643 211.426 35.643 209.094 35.14 207.159 34.135 205.224 33.131 203.739 31.728 202.704 29.928 201.669 28.128 201.152 26.058 201.152 23.718 201.152 21.349 201.662 19.248 202.682 17.418 203.701 15.588 205.112 14.155 206.912 13.12 208.711 12.085 210.811 11.568 213.211 11.568 215.552 11.568 217.614 12.07 219.399 13.075 221.184 14.081 222.579 15.476 223.584 17.26 224.589 19.046 225.092 21.138 225.092 23.538 225.092 23.868 225.069 24.213 225.024 24.573 224.979 24.933 224.926 25.309 224.867 25.698L208.892 25.698C209.612 28.338 211.576 29.658 214.787 29.658 216.227 29.658 217.502 29.433 218.612 28.983 219.721 28.533 220.651 28.083 221.402 27.633L224.102 32.718 224.102 32.718zM237.602 35.643C235.622 35.643 233.769 35.328 232.044 34.698 230.318 34.068 228.766 33.168 227.386 31.998L230.716 27.588C231.766 28.428 232.899 29.111 234.114 29.635 235.329 30.161 236.522 30.423 237.691 30.423 238.471 30.423 239.093 30.288 239.559 30.018 240.024 29.748 240.256 29.343 240.256 28.803 240.256 28.233 239.994 27.775 239.469 27.431 238.944 27.086 238.006 26.748 236.656 26.418L234.497 25.878C230.206 24.738 228.062 22.443 228.062 18.993 228.062 17.463 228.482 16.143 229.321 15.033 230.161 13.923 231.316 13.068 232.787 12.468 234.256 11.868 235.966 11.568 237.917 11.568 239.836 11.568 241.644 11.868 243.339 12.468 245.034 13.068 246.586 13.938 247.997 15.078L244.577 19.578C243.526 18.738 242.417 18.064 241.247 17.553 240.077 17.043 238.981 16.788 237.961 16.788 236.311 16.788 235.486 17.328 235.486 18.408 235.486 18.888 235.734 19.278 236.229 19.578 236.724 19.878 237.421 20.149 238.321 20.388L241.247 21.198C243.436 21.798 245.056 22.698 246.107 23.898 247.156 25.098 247.682 26.524 247.682 28.173 247.682 29.673 247.261 30.985 246.421 32.11 245.581 33.235 244.403 34.105 242.889 34.721 241.374 35.335 239.611 35.643 237.602 35.643"/>
    <path fill="#009BFF" class="no-color-change" d="M271.486 18.543L275.986 18.543C277.275 18.543 278.295 18.205 279.046 17.53 279.795 16.855 280.171 15.933 280.171 14.763 280.171 13.653 279.795 12.76 279.046 12.085 278.295 11.41 277.275 11.073 275.986 11.073L271.486 11.073 271.486 18.543zM271.486 24.888L271.486 35.058 263.386 35.058 263.386 4.458 276.886 4.458C280.486 4.458 283.336 5.38 285.436 7.226 287.535 9.07 288.586 11.583 288.586 14.763 288.586 16.833 288.121 18.618 287.191 20.118 286.261 21.618 284.956 22.788 283.276 23.628L289.531 35.058 280.621 35.058 275.536 24.888 271.486 24.888 271.486 24.888zM303.796 17.238C301.246 17.238 299.716 18.588 299.206 21.288L307.936 21.288C307.726 19.818 307.223 18.775 306.428 18.16 305.633 17.546 304.756 17.238 303.796 17.238zM314.506 32.718C313.365 33.528 311.919 34.218 310.164 34.788 308.408 35.357 306.541 35.643 304.561 35.643 301.831 35.643 299.499 35.14 297.564 34.135 295.628 33.131 294.144 31.728 293.108 29.928 292.073 28.128 291.556 26.058 291.556 23.718 291.556 21.349 292.066 19.248 293.086 17.418 294.106 15.588 295.516 14.155 297.316 13.12 299.116 12.085 301.215 11.568 303.616 11.568 305.956 11.568 308.018 12.07 309.803 13.075 311.588 14.081 312.983 15.476 313.988 17.26 314.993 19.046 315.496 21.138 315.496 23.538 315.496 23.868 315.474 24.213 315.428 24.573 315.383 24.933 315.331 25.309 315.271 25.698L299.296 25.698C300.016 28.338 301.981 29.658 305.191 29.658 306.631 29.658 307.906 29.433 309.016 28.983 310.126 28.533 311.056 28.083 311.806 27.633L314.506 32.718 314.506 32.718zM330.526 28.173C331.846 28.173 332.911 27.7 333.721 26.755 334.531 25.811 334.936 24.543 334.936 22.953 334.936 21.363 334.531 20.096 333.721 19.15 332.911 18.205 331.846 17.733 330.526 17.733 329.176 17.733 328.096 18.205 327.286 19.15 326.476 20.096 326.071 21.363 326.071 22.953 326.071 24.513 326.476 25.774 327.286 26.733 328.096 27.693 329.176 28.173 330.526 28.173zM342.676 32.628C342.676 34.968 342.136 36.971 341.056 38.635 339.976 40.3 338.483 41.575 336.578 42.46 334.673 43.345 332.461 43.788 329.941 43.788 327.9 43.788 325.965 43.518 324.136 42.978 322.306 42.438 320.671 41.718 319.231 40.818L322.156 35.778C323.175 36.378 324.248 36.865 325.373 37.24 326.498 37.615 327.661 37.803 328.861 37.803 330.87 37.803 332.371 37.353 333.361 36.453 334.351 35.553 334.846 34.278 334.846 32.628L334.846 31.818C334.065 32.599 333.128 33.221 332.033 33.686 330.938 34.151 329.79 34.383 328.591 34.383 326.521 34.383 324.698 33.895 323.123 32.92 321.548 31.946 320.318 30.596 319.433 28.87 318.548 27.145 318.106 25.173 318.106 22.953 318.106 20.703 318.54 18.723 319.411 17.013 320.28 15.303 321.496 13.968 323.056 13.008 324.615 12.048 326.415 11.568 328.456 11.568 329.836 11.568 331.118 11.899 332.303 12.558 333.488 13.218 334.425 14.088 335.116 15.168L335.521 12.153 342.676 12.153 342.676 32.628 342.676 32.628zM348.166 35.058L348.166 12.153C349.425 12.423 350.7 12.558 351.991 12.558 353.31 12.558 354.646 12.423 355.996 12.153L355.996 35.058 348.166 35.058zM351.991 10.353C350.7 10.353 349.598 9.896 348.683 8.98 347.768 8.065 347.311 6.963 347.311 5.673 347.311 4.383 347.768 3.281 348.683 2.365 349.598 1.451 350.7.993 351.991.993 353.28.993 354.382 1.451 355.298 2.365 356.213 3.281 356.67 4.383 356.67 5.673 356.67 6.963 356.213 8.065 355.298 8.98 354.382 9.896 353.28 10.353 351.991 10.353L351.991 10.353zM369.99 35.643C368.01 35.643 366.157 35.328 364.433 34.698 362.707 34.068 361.155 33.168 359.775 31.998L363.105 27.588C364.155 28.428 365.288 29.111 366.503 29.635 367.718 30.161 368.91 30.423 370.08 30.423 370.86 30.423 371.482 30.288 371.948 30.018 372.413 29.748 372.645 29.343 372.645 28.803 372.645 28.233 372.382 27.775 371.857 27.431 371.333 27.086 370.395 26.748 369.045 26.418L366.885 25.878C362.595 24.738 360.45 22.443 360.45 18.993 360.45 17.463 360.87 16.143 361.71 15.033 362.55 13.923 363.705 13.068 365.175 12.468 366.645 11.868 368.355 11.568 370.305 11.568 372.225 11.568 374.032 11.868 375.728 12.468 377.422 13.068 378.975 13.938 380.385 15.078L376.965 19.578C375.915 18.738 374.805 18.064 373.635 17.553 372.465 17.043 371.37 16.788 370.35 16.788 368.7 16.788 367.875 17.328 367.875 18.408 367.875 18.888 368.123 19.278 368.618 19.578 369.113 19.878 369.81 20.149 370.71 20.388L373.635 21.198C375.825 21.798 377.445 22.698 378.495 23.898 379.545 25.098 380.07 26.524 380.07 28.173 380.07 29.673 379.649 30.985 378.81 32.11 377.97 33.235 376.792 34.105 375.278 34.721 373.762 35.335 372 35.643 369.99 35.643M401.22 33.573C400.29 34.203 399.224 34.706 398.025 35.08 396.825 35.455 395.565 35.643 394.245 35.643 391.785 35.643 389.827 34.931 388.372 33.505 386.917 32.081 386.19 30.168 386.19 27.768L386.19 18.003 382.455 18.003 382.455 12.153 386.55 12.153 387.54 5.763 394.02 5.763 394.02 12.153 400.005 12.153 400.005 18.003 394.02 18.003 394.02 26.778C394.02 27.559 394.252 28.166 394.717 28.601 395.182 29.036 395.804 29.253 396.585 29.253 396.974 29.253 397.372 29.178 397.777 29.028 398.182 28.878 398.565 28.698 398.925 28.488L401.22 33.573M415.124 17.238C412.574 17.238 411.044 18.588 410.535 21.288L419.265 21.288C419.054 19.818 418.552 18.775 417.757 18.16 416.962 17.546 416.084 17.238 415.124 17.238zM425.834 32.718C424.694 33.528 423.247 34.218 421.492 34.788 419.737 35.357 417.869 35.643 415.89 35.643 413.159 35.643 410.827 35.14 408.892 34.135 406.957 33.131 405.472 31.728 404.437 29.928 403.402 28.128 402.885 26.058 402.885 23.718 402.885 21.349 403.395 19.248 404.415 17.418 405.434 15.588 406.845 14.155 408.645 13.12 410.444 12.085 412.544 11.568 414.944 11.568 417.284 11.568 419.347 12.07 421.132 13.075 422.916 14.081 424.312 15.476 425.317 17.26 426.321 19.046 426.824 21.138 426.824 23.538 426.824 23.868 426.802 24.213 426.757 24.573 426.712 24.933 426.659 25.309 426.6 25.698L410.625 25.698C411.345 28.338 413.309 29.658 416.52 29.658 417.959 29.658 419.234 29.433 420.345 28.983 421.454 28.533 422.384 28.083 423.135 27.633L425.834 32.718 425.834 32.718zM438.66 26.193L438.66 35.058 430.83 35.058 430.83 12.153 437.984 12.153 438.48 15.978C438.959 14.748 439.747 13.75 440.842 12.985 441.937 12.221 443.205 11.838 444.645 11.838 445.455 11.838 446.069 11.943 446.489 12.153L446.489 19.308C446.159 19.189 445.792 19.099 445.387 19.038 444.982 18.978 444.524 18.948 444.015 18.948 442.454 18.948 441.172 19.526 440.167 20.681 439.162 21.836 438.66 23.673 438.66 26.193M165.288 10.353C163.997 10.353 162.895 9.896 161.98 8.98 161.065 8.065 160.607 6.963 160.607 5.673 160.607 4.383 161.065 3.281 161.98 2.365 162.895 1.451 163.997.993 165.288.993 166.577.993 167.679 1.451 168.595 2.365 169.51 3.281 169.967 4.383 169.967 5.673 169.967 6.963 169.51 8.065 168.595 8.98 167.679 9.896 166.577 10.353 165.288 10.353"/>
  </g>
</svg>
