<svg xmlns="http://www.w3.org/2000/svg" width="447" height="48" viewBox="0 0 447 48">
  <g fill="none" fill-rule="evenodd">
    <path fill="#404040" d="M8.599 28.415L12.424 28.415C14.614 28.415 16.346 27.621 17.622 26.03 18.897 24.44 19.534 22.34 19.534 19.73 19.534 17.12 18.897 15.02 17.622 13.43 16.346 11.84 14.614 11.045 12.424 11.045L8.599 11.045 8.599 28.415zM.364 35.03L.364 4.43 12.424 4.43C15.454 4.43 18.131 5.082 20.457 6.387 22.781 7.693 24.604 9.493 25.924 11.787 27.244 14.082 27.904 16.73 27.904 19.73 27.904 22.73 27.244 25.377 25.924 27.672 24.604 29.967 22.781 31.767 20.457 33.073 18.131 34.377 15.454 35.03 12.424 35.03L.364 35.03zM43.114 17.21C40.564 17.21 39.034 18.56 38.524 21.26L47.254 21.26C47.044 19.79 46.541 18.747 45.746 18.132 44.951 17.518 44.074 17.21 43.114 17.21zM53.824 32.69C52.683 33.5 51.236 34.19 49.482 34.76 47.726 35.329 45.859 35.615 43.879 35.615 41.149 35.615 38.817 35.112 36.881 34.107 34.946 33.103 33.462 31.7 32.426 29.9 31.391 28.1 30.874 26.03 30.874 23.69 30.874 21.321 31.384 19.22 32.404 17.39 33.423 15.56 34.834 14.127 36.634 13.092 38.434 12.057 40.533 11.54 42.934 11.54 45.274 11.54 47.336 12.042 49.121 13.047 50.906 14.053 52.301 15.448 53.306 17.232 54.311 19.018 54.814 21.11 54.814 23.51 54.814 23.84 54.792 24.185 54.746 24.545 54.701 24.905 54.649 25.281 54.589 25.67L38.614 25.67C39.334 28.31 41.298 29.63 44.509 29.63 45.949 29.63 47.224 29.405 48.334 28.955 49.443 28.505 50.374 28.055 51.124 27.605L53.824 32.69zM67.324 35.615C65.344 35.615 63.491 35.3 61.766 34.67 60.041 34.04 58.488 33.14 57.109 31.97L60.439 27.56C61.488 28.4 62.621 29.083 63.836 29.607 65.051 30.133 66.244 30.395 67.414 30.395 68.193 30.395 68.815 30.26 69.281 29.99 69.746 29.72 69.979 29.315 69.979 28.775 69.979 28.205 69.716 27.747 69.191 27.403 68.666 27.058 67.729 26.72 66.378 26.39L64.219 25.85C59.928 24.71 57.784 22.415 57.784 18.965 57.784 17.435 58.204 16.115 59.044 15.005 59.883 13.895 61.039 13.04 62.509 12.44 63.978 11.84 65.688 11.54 67.639 11.54 69.558 11.54 71.366 11.84 73.061 12.44 74.756 13.04 76.308 13.91 77.719 15.05L74.299 19.55C73.248 18.71 72.139 18.035 70.969 17.525 69.799 17.015 68.703 16.76 67.684 16.76 66.033 16.76 65.209 17.3 65.209 18.38 65.209 18.86 65.456 19.25 65.951 19.55 66.446 19.85 67.144 20.121 68.044 20.36L70.969 21.17C73.158 21.77 74.778 22.67 75.829 23.87 76.878 25.07 77.404 26.496 77.404 28.145 77.404 29.645 76.983 30.957 76.144 32.082 75.303 33.207 74.126 34.077 72.611 34.693 71.096 35.307 69.333 35.615 67.324 35.615"/>
    <polyline fill="#404040" points="107.148 32.195 100.173 16.04 100.173 35.03 93.108 35.03 93.108 4.43 102.468 4.43 110.478 23.555 118.263 4.43 127.623 4.43 127.623 35.03 120.648 35.03 120.648 15.815 113.583 32.195 107.148 32.195"/>
    <path fill="#404040" d="M144.858 29.405C146.237 29.405 147.34 28.872 148.165 27.807 148.99 26.742 149.403 25.325 149.403 23.555 149.403 21.785 148.99 20.375 148.165 19.325 147.34 18.275 146.237 17.75 144.858 17.75 143.478 17.75 142.375 18.275 141.55 19.325 140.725 20.375 140.313 21.785 140.313 23.555 140.313 25.325 140.725 26.742 141.55 27.807 142.375 28.872 143.478 29.405 144.858 29.405zM144.858 35.615C142.398 35.615 140.23 35.097 138.355 34.062 136.48 33.028 135.01 31.61 133.945 29.81 132.88 28.01 132.348 25.925 132.348 23.555 132.348 21.185 132.88 19.1 133.945 17.3 135.01 15.5 136.48 14.09 138.355 13.07 140.23 12.05 142.398 11.54 144.858 11.54 147.317 11.54 149.485 12.05 151.36 13.07 153.235 14.09 154.705 15.5 155.77 17.3 156.835 19.1 157.368 21.185 157.368 23.555 157.368 25.925 156.835 28.01 155.77 29.81 154.705 31.61 153.235 33.028 151.36 34.062 149.485 35.097 147.317 35.615 144.858 35.615zM161.462 35.03L161.462 12.125C162.722 12.395 163.997 12.53 165.288 12.53 166.607 12.53 167.942 12.395 169.293 12.125L169.293 35.03 161.462 35.03M182.612 22.385L182.612 35.03 174.782 35.03 174.782 12.125 181.937 12.125 182.342 15.14C183.091 14.06 184.067 13.19 185.267 12.53 186.466 11.87 187.787 11.54 189.227 11.54 191.717 11.54 193.711 12.35 195.212 13.97 196.712 15.59 197.462 17.915 197.462 20.945L197.462 35.03 189.632 35.03 189.632 21.845C189.632 20.495 189.332 19.498 188.732 18.852 188.131 18.207 187.292 17.885 186.212 17.885 185.132 17.885 184.262 18.23 183.602 18.92 182.942 19.611 182.612 20.765 182.612 22.385M213.392 17.21C210.841 17.21 209.312 18.56 208.802 21.26L217.532 21.26C217.321 19.79 216.819 18.747 216.024 18.132 215.229 17.518 214.352 17.21 213.392 17.21zM224.102 32.69C222.961 33.5 221.514 34.19 219.759 34.76 218.004 35.329 216.137 35.615 214.157 35.615 211.426 35.615 209.094 35.112 207.159 34.107 205.224 33.103 203.739 31.7 202.704 29.9 201.669 28.1 201.152 26.03 201.152 23.69 201.152 21.321 201.662 19.22 202.682 17.39 203.701 15.56 205.112 14.127 206.912 13.092 208.711 12.057 210.811 11.54 213.211 11.54 215.552 11.54 217.614 12.042 219.399 13.047 221.184 14.053 222.579 15.448 223.584 17.232 224.589 19.018 225.092 21.11 225.092 23.51 225.092 23.84 225.069 24.185 225.024 24.545 224.979 24.905 224.926 25.281 224.867 25.67L208.892 25.67C209.612 28.31 211.576 29.63 214.787 29.63 216.227 29.63 217.502 29.405 218.612 28.955 219.721 28.505 220.651 28.055 221.402 27.605L224.102 32.69zM237.602 35.615C235.622 35.615 233.769 35.3 232.044 34.67 230.318 34.04 228.766 33.14 227.386 31.97L230.716 27.56C231.766 28.4 232.899 29.083 234.114 29.607 235.329 30.133 236.522 30.395 237.691 30.395 238.471 30.395 239.093 30.26 239.559 29.99 240.024 29.72 240.256 29.315 240.256 28.775 240.256 28.205 239.994 27.747 239.469 27.403 238.944 27.058 238.006 26.72 236.656 26.39L234.497 25.85C230.206 24.71 228.062 22.415 228.062 18.965 228.062 17.435 228.482 16.115 229.321 15.005 230.161 13.895 231.316 13.04 232.787 12.44 234.256 11.84 235.966 11.54 237.917 11.54 239.836 11.54 241.644 11.84 243.339 12.44 245.034 13.04 246.586 13.91 247.997 15.05L244.577 19.55C243.526 18.71 242.417 18.035 241.247 17.525 240.077 17.015 238.981 16.76 237.961 16.76 236.311 16.76 235.486 17.3 235.486 18.38 235.486 18.86 235.734 19.25 236.229 19.55 236.724 19.85 237.421 20.121 238.321 20.36L241.247 21.17C243.436 21.77 245.056 22.67 246.107 23.87 247.156 25.07 247.682 26.496 247.682 28.145 247.682 29.645 247.261 30.957 246.421 32.082 245.581 33.207 244.403 34.077 242.889 34.693 241.374 35.307 239.611 35.615 237.602 35.615"/>
    <path class="no-color-change" fill="#009BFF" d="M271.486 18.515L275.986 18.515C277.275 18.515 278.295 18.177 279.046 17.502 279.795 16.827 280.171 15.905 280.171 14.735 280.171 13.625 279.795 12.732 279.046 12.057 278.295 11.382 277.275 11.045 275.986 11.045L271.486 11.045 271.486 18.515zM271.486 24.86L271.486 35.03 263.386 35.03 263.386 4.43 276.886 4.43C280.486 4.43 283.336 5.352 285.436 7.198 287.535 9.042 288.586 11.555 288.586 14.735 288.586 16.805 288.121 18.59 287.191 20.09 286.261 21.59 284.956 22.76 283.276 23.6L289.531 35.03 280.621 35.03 275.536 24.86 271.486 24.86zM303.796 17.21C301.246 17.21 299.716 18.56 299.206 21.26L307.936 21.26C307.726 19.79 307.223 18.747 306.428 18.132 305.633 17.518 304.756 17.21 303.796 17.21zM314.506 32.69C313.365 33.5 311.919 34.19 310.164 34.76 308.408 35.329 306.541 35.615 304.561 35.615 301.831 35.615 299.499 35.112 297.564 34.107 295.628 33.103 294.144 31.7 293.108 29.9 292.073 28.1 291.556 26.03 291.556 23.69 291.556 21.321 292.066 19.22 293.086 17.39 294.106 15.56 295.516 14.127 297.316 13.092 299.116 12.057 301.215 11.54 303.616 11.54 305.956 11.54 308.018 12.042 309.803 13.047 311.588 14.053 312.983 15.448 313.988 17.232 314.993 19.018 315.496 21.11 315.496 23.51 315.496 23.84 315.474 24.185 315.428 24.545 315.383 24.905 315.331 25.281 315.271 25.67L299.296 25.67C300.016 28.31 301.981 29.63 305.191 29.63 306.631 29.63 307.906 29.405 309.016 28.955 310.126 28.505 311.056 28.055 311.806 27.605L314.506 32.69zM330.526 28.145C331.846 28.145 332.911 27.672 333.721 26.727 334.531 25.783 334.936 24.515 334.936 22.925 334.936 21.335 334.531 20.068 333.721 19.122 332.911 18.177 331.846 17.705 330.526 17.705 329.176 17.705 328.096 18.177 327.286 19.122 326.476 20.068 326.071 21.335 326.071 22.925 326.071 24.485 326.476 25.746 327.286 26.705 328.096 27.665 329.176 28.145 330.526 28.145zM342.676 32.6C342.676 34.94 342.136 36.943 341.056 38.607 339.976 40.272 338.483 41.547 336.578 42.432 334.673 43.317 332.461 43.76 329.941 43.76 327.9 43.76 325.965 43.49 324.136 42.95 322.306 42.41 320.671 41.69 319.231 40.79L322.156 35.75C323.175 36.35 324.248 36.837 325.373 37.212 326.498 37.587 327.661 37.775 328.861 37.775 330.87 37.775 332.371 37.325 333.361 36.425 334.351 35.525 334.846 34.25 334.846 32.6L334.846 31.79C334.065 32.571 333.128 33.193 332.033 33.658 330.938 34.123 329.79 34.355 328.591 34.355 326.521 34.355 324.698 33.867 323.123 32.892 321.548 31.918 320.318 30.568 319.433 28.842 318.548 27.117 318.106 25.145 318.106 22.925 318.106 20.675 318.54 18.695 319.411 16.985 320.28 15.275 321.496 13.94 323.056 12.98 324.615 12.02 326.415 11.54 328.456 11.54 329.836 11.54 331.118 11.87 332.303 12.53 333.488 13.19 334.425 14.06 335.116 15.14L335.521 12.125 342.676 12.125 342.676 32.6zM348.166 35.03L348.166 12.125C349.425 12.395 350.7 12.53 351.991 12.53 353.31 12.53 354.646 12.395 355.996 12.125L355.996 35.03 348.166 35.03zM351.991 10.325C350.7 10.325 349.598 9.868 348.683 8.952 347.768 8.037 347.311 6.935 347.311 5.645 347.311 4.355 347.768 3.253 348.683 2.337 349.598 1.423 350.7.965 351.991.965 353.28.965 354.382 1.423 355.298 2.337 356.213 3.253 356.67 4.355 356.67 5.645 356.67 6.935 356.213 8.037 355.298 8.952 354.382 9.868 353.28 10.325 351.991 10.325zM369.99 35.615C368.01 35.615 366.157 35.3 364.433 34.67 362.707 34.04 361.155 33.14 359.775 31.97L363.105 27.56C364.155 28.4 365.288 29.083 366.503 29.607 367.718 30.133 368.91 30.395 370.08 30.395 370.86 30.395 371.482 30.26 371.948 29.99 372.413 29.72 372.645 29.315 372.645 28.775 372.645 28.205 372.382 27.747 371.857 27.403 371.333 27.058 370.395 26.72 369.045 26.39L366.885 25.85C362.595 24.71 360.45 22.415 360.45 18.965 360.45 17.435 360.87 16.115 361.71 15.005 362.55 13.895 363.705 13.04 365.175 12.44 366.645 11.84 368.355 11.54 370.305 11.54 372.225 11.54 374.032 11.84 375.728 12.44 377.422 13.04 378.975 13.91 380.385 15.05L376.965 19.55C375.915 18.71 374.805 18.035 373.635 17.525 372.465 17.015 371.37 16.76 370.35 16.76 368.7 16.76 367.875 17.3 367.875 18.38 367.875 18.86 368.123 19.25 368.618 19.55 369.113 19.85 369.81 20.121 370.71 20.36L373.635 21.17C375.825 21.77 377.445 22.67 378.495 23.87 379.545 25.07 380.07 26.496 380.07 28.145 380.07 29.645 379.649 30.957 378.81 32.082 377.97 33.207 376.792 34.077 375.278 34.693 373.762 35.307 372 35.615 369.99 35.615M401.22 33.545C400.29 34.175 399.224 34.678 398.025 35.052 396.825 35.427 395.565 35.615 394.245 35.615 391.785 35.615 389.827 34.903 388.372 33.477 386.917 32.053 386.19 30.14 386.19 27.74L386.19 17.975 382.455 17.975 382.455 12.125 386.55 12.125 387.54 5.735 394.02 5.735 394.02 12.125 400.005 12.125 400.005 17.975 394.02 17.975 394.02 26.75C394.02 27.531 394.252 28.138 394.717 28.573 395.182 29.008 395.804 29.225 396.585 29.225 396.974 29.225 397.372 29.15 397.777 29 398.182 28.85 398.565 28.67 398.925 28.46L401.22 33.545M415.124 17.21C412.574 17.21 411.044 18.56 410.535 21.26L419.265 21.26C419.054 19.79 418.552 18.747 417.757 18.132 416.962 17.518 416.084 17.21 415.124 17.21zM425.834 32.69C424.694 33.5 423.247 34.19 421.492 34.76 419.737 35.329 417.869 35.615 415.89 35.615 413.159 35.615 410.827 35.112 408.892 34.107 406.957 33.103 405.472 31.7 404.437 29.9 403.402 28.1 402.885 26.03 402.885 23.69 402.885 21.321 403.395 19.22 404.415 17.39 405.434 15.56 406.845 14.127 408.645 13.092 410.444 12.057 412.544 11.54 414.944 11.54 417.284 11.54 419.347 12.042 421.132 13.047 422.916 14.053 424.312 15.448 425.317 17.232 426.321 19.018 426.824 21.11 426.824 23.51 426.824 23.84 426.802 24.185 426.757 24.545 426.712 24.905 426.659 25.281 426.6 25.67L410.625 25.67C411.345 28.31 413.309 29.63 416.52 29.63 417.959 29.63 419.234 29.405 420.345 28.955 421.454 28.505 422.384 28.055 423.135 27.605L425.834 32.69zM438.66 26.165L438.66 35.03 430.83 35.03 430.83 12.125 437.984 12.125 438.48 15.95C438.959 14.72 439.747 13.722 440.842 12.957 441.937 12.193 443.205 11.81 444.645 11.81 445.455 11.81 446.069 11.915 446.489 12.125L446.489 19.28C446.159 19.16 445.792 19.071 445.387 19.01 444.982 18.95 444.524 18.92 444.015 18.92 442.454 18.92 441.172 19.498 440.167 20.653 439.162 21.808 438.66 23.645 438.66 26.165M165.288 10.325C163.997 10.325 162.895 9.868 161.98 8.952 161.065 8.037 160.607 6.935 160.607 5.645 160.607 4.355 161.065 3.253 161.98 2.337 162.895 1.423 163.997.965 165.288.965 166.577.965 167.679 1.423 168.595 2.337 169.51 3.253 169.967 4.355 169.967 5.645 169.967 6.935 169.51 8.037 168.595 8.952 167.679 9.868 166.577 10.325 165.288 10.325"/>
    <path fill="#404040" d="M1.222 44.559L2.387 44.559C2.77 44.559 3.073 44.464 3.295 44.276 3.518 44.088 3.63 43.83 3.63 43.505 3.63 43.179 3.518 42.922 3.295 42.734 3.073 42.545 2.77 42.451 2.387 42.451L1.222 42.451 1.222 44.559zM.357 47.549L.357 41.723 2.387 41.723C3.038 41.723 3.555 41.883 3.938 42.203 4.321 42.523 4.512 42.957 4.512 43.505 4.512 44.048 4.321 44.477 3.938 44.794 3.555 45.111 3.038 45.27 2.387 45.27L1.222 45.27 1.222 47.549.357 47.549zM6.26 45.355L8.384 45.355 7.322 42.623 6.26 45.355zM9.232 47.549L8.667 46.084 5.977 46.084 5.411 47.549 4.538 47.549 6.868 41.723 7.802 41.723 10.123 47.549 9.232 47.549zM11.957 44.473L13.148 44.473C13.519 44.473 13.814 44.382 14.034 44.199 14.254 44.016 14.364 43.771 14.364 43.462 14.364 43.154 14.254 42.908 14.034 42.725 13.814 42.543 13.519 42.451 13.148 42.451L11.957 42.451 11.957 44.473zM11.957 45.184L11.957 47.549 11.091 47.549 11.091 41.723 13.148 41.723C13.793 41.723 14.304 41.879 14.681 42.19 15.058 42.501 15.246 42.925 15.246 43.462 15.246 43.868 15.132 44.211 14.904 44.49 14.675 44.77 14.361 44.967 13.961 45.081L15.375 47.549 14.39 47.549 13.062 45.184 11.957 45.184z"/>
    <polyline fill="#404040" points="17.731 47.549 17.731 42.451 15.769 42.451 15.769 41.723 20.558 41.723 20.558 42.451 18.596 42.451 18.596 47.549 17.731 47.549"/>
    <path fill="#404040" d="M26.118,46.889 C26.495,46.889 26.83,46.793 27.124,46.602 C27.418,46.411 27.648,46.146 27.814,45.809 C27.979,45.473 28.062,45.081 28.062,44.635 C28.062,44.19 27.979,43.799 27.814,43.462 C27.648,43.125 27.418,42.861 27.124,42.67 C26.83,42.478 26.495,42.382 26.118,42.382 C25.741,42.382 25.407,42.478 25.115,42.67 C24.824,42.861 24.595,43.125 24.43,43.462 C24.264,43.799 24.181,44.19 24.181,44.635 C24.181,45.081 24.264,45.473 24.43,45.809 C24.595,46.146 24.824,46.411 25.115,46.602 C25.407,46.793 25.741,46.889 26.118,46.889 Z M26.118,47.643 C25.569,47.643 25.084,47.514 24.661,47.257 C24.239,47 23.906,46.646 23.663,46.195 C23.42,45.744 23.299,45.224 23.299,44.635 C23.299,44.048 23.42,43.528 23.663,43.077 C23.906,42.625 24.239,42.271 24.661,42.014 C25.084,41.757 25.569,41.629 26.118,41.629 C26.666,41.629 27.153,41.757 27.578,42.014 C28.004,42.271 28.338,42.625 28.581,43.077 C28.823,43.528 28.945,44.048 28.945,44.635 C28.945,45.224 28.823,45.744 28.581,46.195 C28.338,46.646 28.004,47 27.578,47.257 C27.153,47.514 26.666,47.643 26.118,47.643 Z"/>
    <polyline fill="#404040" points="31.027 47.549 30.161 47.549 30.161 41.723 33.785 41.723 33.785 42.451 31.027 42.451 31.027 44.422 33.365 44.422 33.365 45.149 31.027 45.149 31.027 47.549"/>
    <polyline fill="#404040" points="38.3 47.549 38.3 42.451 36.338 42.451 36.338 41.723 41.127 41.723 41.127 42.451 39.165 42.451 39.165 47.549 38.3 47.549"/>
    <polyline fill="#404040" points="42.12 47.549 42.12 41.723 42.986 41.723 42.986 44.216 45.992 44.216 45.992 41.723 46.858 41.723 46.858 47.549 45.992 47.549 45.992 44.961 42.986 44.961 42.986 47.549 42.12 47.549"/>
    <polyline fill="#404040" points="48.383 47.549 48.383 41.723 52.118 41.723 52.118 42.451 49.248 42.451 49.248 44.25 51.775 44.25 51.775 44.978 49.248 44.978 49.248 46.82 52.186 46.82 52.186 47.549 48.383 47.549"/>
    <path fill="#404040" d="M57.652 46.889C58.126 46.889 58.499 46.746 58.77 46.461 59.041 46.175 59.177 45.789 59.177 45.304L59.177 41.723 60.042 41.723 60.042 45.312C60.042 46.038 59.829 46.607 59.404 47.021 58.978 47.436 58.394 47.643 57.652 47.643 56.909 47.643 56.327 47.436 55.904 47.021 55.482 46.607 55.27 46.038 55.27 45.312L55.27 41.723 56.136 41.723 56.136 45.304C56.136 45.789 56.271 46.175 56.542 46.461 56.814 46.746 57.184 46.889 57.652 46.889M63.272 47.643C62.832 47.643 62.412 47.565 62.013 47.412 61.613 47.257 61.29 47.051 61.044 46.795L61.533 46.22C61.761 46.432 62.031 46.598 62.342 46.717 62.654 46.837 62.964 46.897 63.272 46.897 63.649 46.897 63.953 46.825 64.184 46.679 64.415 46.533 64.531 46.332 64.531 46.075 64.531 45.841 64.448 45.644 64.283 45.484 64.117 45.324 63.834 45.19 63.435 45.081L62.629 44.867C62.109 44.73 61.731 44.536 61.494 44.284 61.257 44.033 61.139 43.705 61.139 43.299 61.139 42.968 61.227 42.677 61.404 42.425 61.581 42.174 61.825 41.979 62.137 41.838 62.448 41.699 62.801 41.629 63.195 41.629 63.612 41.629 64.003 41.707 64.368 41.864 64.734 42.021 65.057 42.24 65.336 42.52L64.814 43.085C64.568 42.857 64.313 42.681 64.047 42.558 63.782 42.435 63.5 42.374 63.203 42.374 62.843 42.374 62.549 42.45 62.321 42.601 62.092 42.752 61.978 42.962 61.978 43.23 61.978 43.476 62.059 43.668 62.222 43.805 62.385 43.942 62.635 44.056 62.972 44.148L63.871 44.396C64.391 44.539 64.771 44.738 65.011 44.996 65.251 45.252 65.371 45.572 65.371 45.955 65.371 46.292 65.282 46.587 65.105 46.842 64.928 47.096 64.682 47.293 64.368 47.433 64.054 47.573 63.689 47.643 63.272 47.643M67.547 45.355L69.671 45.355 68.609 42.623 67.547 45.355zM70.519 47.549L69.954 46.084 67.264 46.084 66.699 47.549 65.825 47.549 68.155 41.723 69.089 41.723 71.411 47.549 70.519 47.549z"/>
    <polyline fill="#404040" points="75.437 47.549 75.437 42.451 73.475 42.451 73.475 41.723 78.264 41.723 78.264 42.451 76.302 42.451 76.302 47.549 75.437 47.549"/>
    <path fill="#404040" d="M81.382 46.889C81.759 46.889 82.095 46.793 82.389 46.602 82.683 46.411 82.913 46.146 83.078 45.809 83.244 45.473 83.327 45.081 83.327 44.635 83.327 44.19 83.244 43.799 83.078 43.462 82.913 43.125 82.683 42.861 82.389 42.67 82.095 42.478 81.759 42.382 81.382 42.382 81.005 42.382 80.671 42.478 80.38 42.67 80.089 42.861 79.86 43.125 79.694 43.462 79.529 43.799 79.446 44.19 79.446 44.635 79.446 45.081 79.529 45.473 79.694 45.809 79.86 46.146 80.089 46.411 80.38 46.602 80.671 46.793 81.005 46.889 81.382 46.889zM81.382 47.643C80.834 47.643 80.349 47.514 79.926 47.257 79.503 47 79.171 46.646 78.928 46.195 78.685 45.744 78.564 45.224 78.564 44.635 78.564 44.048 78.685 43.528 78.928 43.077 79.171 42.625 79.503 42.271 79.926 42.014 80.349 41.757 80.834 41.629 81.382 41.629 81.931 41.629 82.417 41.757 82.843 42.014 83.268 42.271 83.602 42.625 83.845 43.077 84.088 43.528 84.209 44.048 84.209 44.635 84.209 45.224 84.088 45.744 83.845 46.195 83.602 46.646 83.268 47 82.843 47.257 82.417 47.514 81.931 47.643 81.382 47.643zM86.291 46.82L87.473 46.82C87.884 46.82 88.237 46.73 88.531 46.55 88.825 46.371 89.051 46.118 89.208 45.792 89.365 45.467 89.444 45.081 89.444 44.635 89.444 44.19 89.365 43.805 89.208 43.479 89.051 43.154 88.825 42.901 88.531 42.721 88.237 42.541 87.884 42.451 87.473 42.451L86.291 42.451 86.291 46.82zM85.426 47.549L85.426 41.723 87.473 41.723C88.044 41.723 88.544 41.845 88.972 42.087 89.401 42.33 89.733 42.67 89.97 43.107 90.207 43.543 90.326 44.053 90.326 44.635 90.326 45.218 90.207 45.728 89.97 46.165 89.733 46.602 89.401 46.942 88.972 47.184 88.544 47.427 88.044 47.549 87.473 47.549L85.426 47.549zM92.536 45.355L94.661 45.355 93.599 42.623 92.536 45.355zM95.509 47.549L94.944 46.084 92.253 46.084 91.688 47.549 90.814 47.549 93.144 41.723 94.078 41.723 96.4 47.549 95.509 47.549z"/>
    <polyline fill="#404040" points="99.056 45.235 99.056 47.549 98.19 47.549 98.19 45.235 96.143 41.723 97.162 41.723 98.627 44.413 100.092 41.723 101.095 41.723 99.056 45.235"/>
    <polyline fill="#404040" points="108.016 47.549 104.907 43.085 104.907 47.549 104.093 47.549 104.093 41.723 104.898 41.723 108.016 46.186 108.016 41.723 108.822 41.723 108.822 47.549 108.016 47.549"/>
    <polyline fill="#404040" points="110.347 47.549 110.347 41.723 114.082 41.723 114.082 42.451 111.212 42.451 111.212 44.25 113.739 44.25 113.739 44.978 111.212 44.978 111.212 46.82 114.15 46.82 114.15 47.549 110.347 47.549"/>
    <polyline fill="#404040" points="116.721 47.549 116.721 42.451 114.759 42.451 114.759 41.723 119.548 41.723 119.548 42.451 117.586 42.451 117.586 47.549 116.721 47.549"/>
    <polyline fill="#404040" points="125.202 47.549 123.839 42.905 122.477 47.549 121.578 47.549 120.027 41.723 120.884 41.723 122.066 46.332 123.428 41.723 124.251 41.723 125.621 46.349 126.812 41.723 127.652 41.723 126.101 47.549 125.202 47.549"/>
    <path fill="#404040" d="M131.087 46.889C131.464 46.889 131.8 46.793 132.094 46.602 132.388 46.411 132.618 46.146 132.784 45.809 132.949 45.473 133.032 45.081 133.032 44.635 133.032 44.19 132.949 43.799 132.784 43.462 132.618 43.125 132.388 42.861 132.094 42.67 131.8 42.478 131.464 42.382 131.087 42.382 130.71 42.382 130.376 42.478 130.085 42.67 129.794 42.861 129.565 43.125 129.4 43.462 129.234 43.799 129.151 44.19 129.151 44.635 129.151 45.081 129.234 45.473 129.4 45.809 129.565 46.146 129.794 46.411 130.085 46.602 130.376 46.793 130.71 46.889 131.087 46.889zM131.087 47.643C130.539 47.643 130.054 47.514 129.631 47.257 129.208 47 128.876 46.646 128.633 46.195 128.39 45.744 128.269 45.224 128.269 44.635 128.269 44.048 128.39 43.528 128.633 43.077 128.876 42.625 129.208 42.271 129.631 42.014 130.054 41.757 130.539 41.629 131.087 41.629 131.636 41.629 132.122 41.757 132.548 42.014 132.973 42.271 133.307 42.625 133.55 43.077 133.793 43.528 133.914 44.048 133.914 44.635 133.914 45.224 133.793 45.744 133.55 46.195 133.307 46.646 132.973 47 132.548 47.257 132.122 47.514 131.636 47.643 131.087 47.643zM135.996 44.473L137.187 44.473C137.558 44.473 137.854 44.382 138.073 44.199 138.293 44.016 138.403 43.771 138.403 43.462 138.403 43.154 138.293 42.908 138.073 42.725 137.854 42.543 137.558 42.451 137.187 42.451L135.996 42.451 135.996 44.473zM135.996 45.184L135.996 47.549 135.131 47.549 135.131 41.723 137.187 41.723C137.832 41.723 138.343 41.879 138.72 42.19 139.097 42.501 139.286 42.925 139.286 43.462 139.286 43.868 139.172 44.211 138.943 44.49 138.714 44.77 138.4 44.967 138.001 45.081L139.414 47.549 138.429 47.549 137.101 45.184 135.996 45.184z"/>
    <polyline fill="#404040" points="143.989 47.549 141.376 44.61 141.376 47.549 140.511 47.549 140.511 41.723 141.376 41.723 141.376 44.276 143.818 41.723 144.888 41.723 142.293 44.396 145.077 47.549 143.989 47.549"/>
  </g>
</svg>
