<svg xmlns="http://www.w3.org/2000/svg" xmlns:xlink="http://www.w3.org/1999/xlink" width="720" height="114" viewBox="0 0 720 114">
  <defs>
    <style>
      .cls-1 {
        filter: url(#filter);
      }

      .cls-2, .cls-3 {
        fill: #fff;
        fill-rule: evenodd;
      }

      .cls-3 {
        filter: url(#filter-2);
      }
    </style>
    <filter id="filter" filterUnits="userSpaceOnUse">
      <feFlood result="flood" flood-color="#333"/>
      <feComposite result="composite" operator="in" in2="SourceGraphic"/>
      <feBlend result="blend" in2="SourceGraphic"/>
    </filter>
    <filter id="filter-2" x="1.281" y="93" width="480.844" height="20.969" filterUnits="userSpaceOnUse">
      <feFlood result="flood" flood-color="#999"/>
      <feComposite result="composite" operator="in" in2="SourceGraphic"/>
      <feBlend result="blend" in2="SourceGraphic"/>
    </filter>
  </defs>
  <g class="cls-1">
    <path id="logo_dk_large" data-name="logo_dk large" class="cls-2" d="M60.347,4.9c0.593,8.819.2,18.031,0.3,27.145a0.992,0.992,0,0,0,1.087.5l8-7.331h1.285c2.173,2.477,4.346,5.548,6.718,7.331,1.285-.5,1.877-2.179,3.359-1.783-0.3,1.387-2.075,2.279-2.668,3.369-0.494,10.4,1.284,21.4-.888,31.6-1.483,3.367-4.249,7.034-8,8.518a20.3,20.3,0,0,1-8.2,1.09,14.1,14.1,0,0,0,7.9-11.988c0.1-9.311-.1-17.237-0.593-26.351l-4.05-4.656a5.776,5.776,0,0,0-3.753,2.873c0.1,2.772-.1,4.755.2,7.629V56.214L63.31,58.2c1.086-.4,1.878-2.081,3.261-1.388l-0.2.893c-2.963,2.872-6.618,5.547-9.977,8.223l-1.384-.2c-2.667-1.19-4.94-7.926-8.793-4.163V60.575l4.842-3.468-0.4-39.726a2.9,2.9,0,0,0-1.58-2.675,0.741,0.741,0,0,1-.691-0.4C52.641,10.643,56,7.572,60.347,4.9Zm206.281,2.18c-4.149,2.875-8.3,9.512-14.62,6.935-2.273-.99-4.348-3.369-7.312-2.179l-2.964,1.585c3.656-3.963,8.793-9.61,15.413-7.827C260.01,6.878,263.565,10.049,266.628,7.077Zm93.658,9.214c0.2,2.081-2.174,2.279-3.162,3.765a12.406,12.406,0,0,1-3.754,3.368c-2.372-1.981-3.26-3.962-5.335-6.241V16.291c2.174-1.586,4.742-4.656,7.508-5.648ZM598.38,11.139a24.288,24.288,0,0,1,5.336,6.242,25.133,25.133,0,0,1-7.609,6.439l-4.94-6.242c1.382-2.772,4.249-4.16,6.522-6.439h0.691Zm58.189,16.446c1.384,1.485,5.335-.99,5.137,2.081,0,1.089.2,2.377-.691,2.873-1.581.3-3.754-.694-4.643,0.892V57.3c0.986,0.6,1.778,2.873,2.864,1.586A2.867,2.867,0,0,1,661.41,57.7a0.929,0.929,0,0,1,.1.888l-10.077,8.226c-2.472-1.488-4.447-4.26-6.818-6.143-1.384.5-2.075,1.883-3.556,1.685V61.564l5.532-3.862c0.2-8.226.692-16.644,0-24.768a4.1,4.1,0,0,0-2.668-.594,6.319,6.319,0,0,1,0-4.26,3.951,3.951,0,0,0,2.668-.5c0.889-2.279.1-4.657-.692-6.638l-1.284-.891c3.852-2.775,7.508-6.142,11.954-8.025V27.585ZM398.321,33.43c1.878,0.1,2.865-2.377,4.841-2.179-0.692,1.683-2.371,2.179-3.557,3.467-0.692,6.737-.2,13.871-0.4,20.8l2.865,2.873a11.519,11.519,0,0,0,2.865-1.983c0.792,0.4.1,1.387-.2,1.584l-9.976,8.423-1.188-.5-5.925-6.244c-0.3-1.285,1.184-1.781,1.778-2.672,0.3-6.837,0-12.782,0-18.724-1.68-1.784-2.668-4.262-4.744-5.548l-2.469,1.783-0.592,22.49,2.865,3.168a56.9,56.9,0,0,1-7.114,6.737c-3.458-.4-5.139-8.716-9.286-4.754-0.5.1-.5-0.2-0.692-0.6l5.039-4.26V36.8c-1.185-1.388-1.779-2.776-3.46-4.062-1.086.4-1.383,1.387-2.666,1.387l-0.1-.5c2.765-2.873,6.126-5.152,9.187-7.727l1.086,0.4,4.941,6.637c4.051-1.683,6.126-5.846,10.178-7.529Zm-37.838.2c1.284-.4,2.47-2.18,3.755-2.477,0.2,2.477-4.546,3.269-3.26,6.539,0.493,6.044-.692,11.492-0.3,17.536,0.989,1.387,1.975,3.664,3.854,4.062,1.282-.794,1.481-1.785,2.864-2.181a2.1,2.1,0,0,1,.2,1.091l-9.286,8.025h-0.988c-2.074-2.282-3.655-4.953-6.125-6.935-1.185.394-2.568,2.079-3.853,1.783,0.4-1.783,2.866-1.883,3.557-3.568L351.1,37c-1.382-.791-2.173-4.458-4.444-3.171-0.693.3-1.286,1.29-1.977,0.892l-0.395-.4,9.582-7.827C356.728,28.08,357.717,31.745,360.483,33.628ZM44.441,3.808c2.173,2.577,2.075,6.537.79,9.51a11.989,11.989,0,0,1-8.4,5.35l-0.494,1.387,0.1,10.5,4.447,3.566C40.292,36,38.118,37,36.636,38.582l-0.2,14.464c0.99,1.287,2.273-.693,2.866-1.092,2.074-2.477,4.545-4.952,6.027-7.428,0.395,7.924-4.348,15.356-10.966,19.022-6.323,3.962-16.4,3.565-22.624-.3A24.96,24.96,0,0,1,.774,39.474a26.3,26.3,0,0,1,17.387-21.7c-2.47,2.476-5.729,5.151-6.915,9.412h1.382c4.94-2.18,9.682-4.952,14.82-6.637l0.494,2.873v20.31c-4.349,2.871-9.288,4.458-13.338,7.529C17.865,56.116,23.2,57.3,29.03,57.107c2.173-.3,4.544-0.792,5.828-2.674V38.582c-1.185-1.685-4.248-2.376-4.051-4.458,5.829-1.783,3.458-8.421,4.051-12.781l-0.494-2.575c-7.9-1.288-15.314-4.063-23.118-5.45a4.82,4.82,0,0,0-3.953.992c-0.987.791-1.185,2.179-1.58,3.467L6.6,20.947c-1.877-.594-3.261-2.575-3.952-4.458a10.858,10.858,0,0,1,2.667-10.5c10.374-8.52,21.339,3.171,32.6,1.585A3.391,3.391,0,0,0,40,4.9c0.1-1.881-1.086-2.675-2.47-3.764l-2.668-.694A11.958,11.958,0,0,1,44.441,3.808ZM16.779,26.991c-2.273.892-4.743,1.686-6.619,3.269-1.482,6.54-.791,14.069,2.865,19.418,1.777,0,2.667-1.189,4.05-1.982V27.684Zm586.836,6.933c1.186,0.1,2.174-1.584,3.16-1.882l0.5,0.5-2.965,3.369-0.4,20.012c1.187,1.385,1.584,2.672,3.262,3.762,1.285,0,2.571-2.377,3.359-1.285l-0.394,1.09c-3.064,2.178-6.126,5.151-9.091,7.131-3.753-.595-5.136-11.195-9.879-5.151-1.087-1.585,1.484-1.785,2.073-2.876l0.692-1.287,0.594-19.219c-1.778-1.387-3.458-7.231-6.026-3.268-0.3,0-.79.2-0.89-0.1,2.571-2.973,5.83-4.754,8.992-7.727h0.887Zm96.521-6.933c1.879,2.179,2.865,4.556,5.138,6.044,2.273-.694,3.953-3.865,6.224-5.648,1.876,0.2,3.756,2.379,6.027,1.09a5.718,5.718,0,0,1,1.778-1.09,9.362,9.362,0,0,1-4.248,8.917c-1.481.5-3.163,1.288-4.94,0.694-1.481-.5-2.766-1.783-3.952-2.477l-0.492.5-0.2,22.091c1.384,1.387,4.051,4.856,5.832,1.484,0.393-.294.79-0.988,1.481-0.691l-0.395,1.187-9.782,7.827c-2.963-1.187-4.941-4.656-7.8-6.537-1.384,0-1.677,1.586-3.161,1.385,0.889-1.979,2.371-2.474,3.852-4.06l0.595-19.617a20.957,20.957,0,0,0-3.065-3.566l-2.469,1.09c0.1-.3-0.3-0.4-0.4-0.594,2.967-3.171,6.226-5.052,8.892-8.025h1.086ZM574.57,24.909a116.6,116.6,0,0,0,8.692,8.52c1.681,0.3,3.162-2.575,4.843-2.279-0.691,1.684-2.173,2.477-3.359,3.567-1.087,7.927-.889,16.842-0.889,24.768,0.3,2.872,3.259,6.439.2,9.114-5.237,4.455-11.956,7.727-17.489,12.282a8.2,8.2,0,0,0-7.31-3.961c-1.976-.1-3.654.89-5.433,1.289a10.773,10.773,0,0,1,17.387-5.946c1.284,0.6,1.975,2.973,3.557,2.179a5.643,5.643,0,0,0,1.777-5.547c-1.283-2.476-1.878-5.249-2.864-7.826-2.57,1.09-4.052,3.367-6.224,4.855l-1.184-.2L557.676,58c-1.382-.394-2.469,2.776-3.754,1.29,0.79-.991,2.075-1.585,2.865-2.874,0.3-7.329.889-14.167,0.889-21.4,5.334-3.369,11.262-6.339,15.807-10.106h1.087Zm-6.916,5.846c-0.889,7.429-.394,14.761-1.087,22.291,1.187,2.873,3.26,4.161,5.533,6.44,0.3,0.4,1.482.891,1.779,0l0.2-21.994C571.9,35.115,569.927,32.538,567.654,30.755Zm-458.6,7.33c-4.94,4.46-10.67,7.332-15.313,12.087-0.2,3.863,4.643,6.041,6.718,8.418,3.557-1.385,5.631-4.555,8.793-6.438,0.592,0.2.791-.99,1.383-0.394l-0.2,1.09L94.826,65.727l-1.581-.4L85.737,58.4c-1.384-.5-2.964,2.574-3.557.195l1.976-1.978,0.2-17.833c-2.47-6.439,6.52-5.648,9.386-8.916l6.718-4.656h0.889ZM94.43,31.151H93.937V46.409L94.43,47l6.224-5.053Zm106.4,7.431-0.394.892-14.424,10c-0.593.9-.2,2.182-0.3,3.172l6.52,6.242,8.89-6.242h1.088l-0.4,1.089L186.013,65.925l-1.187-.2L176.232,57.7c-1.481.1-2.372,2.674-3.754,1.187,0.395-1.388,2.47-1.88,3.26-3.169,0.79-6.637-.1-13.969.691-20.705,5.534-3.071,11.56-5.052,16.7-9.114l1.087,0.4Zm-14.225-6.935a75.236,75.236,0,0,0-.593,15.652h0.593c1.778-1.782,5.037-2.872,6.026-5.15C190.656,38.78,188.779,34.718,186.606,31.646Zm366.426,6.935-0.494,1.486-14.027,10.3c-1.286,4.358,4.444,6.338,6.519,9.114l1.086-.2a55.382,55.382,0,0,1,8.892-6.738v0.99l-16.2,12.88c-2.967-1.983-6.521-5.747-9.189-7.628-1.286.5-2.173,1.783-3.556,1.882,0.1-1.586,2.074-1.981,2.864-3.566V36.3l0.692-.892a121.324,121.324,0,0,0,16.006-8.916l0.691,0.2Zm-14.325-6.439V47.7c2.274-1.19,5.039-2.774,6.522-4.854A118.273,118.273,0,0,0,538.707,32.143Zm-106.4,7.331a126.516,126.516,0,0,1-14.226,10.9c-1.285,4.952,3.356,5.645,5.926,9.309,3.36-1.385,5.732-4.852,9.187-6.239v0.89L418.475,66.618h-1.087l-7.6-7.53c-1.583-.1-3.459,3.171-4.151.894a10.635,10.635,0,0,0,3.064-2.874l0.295-21c5.434-2.873,11.065-6.044,16.2-9.412A76.826,76.826,0,0,1,432.307,39.474Zm-13.832-7.133a102.638,102.638,0,0,0-.2,15.551,16.049,16.049,0,0,0,6.225-4.854C422.526,39.474,421.043,35.411,418.475,32.341Zm271.487,6.932v0.9c-5.039,3.862-10.474,7.331-15.215,11.095l0.1,2.675,6.423,6.044c3.556-1.883,6.226-4.361,9.782-6.539,0.692,0.295.3,0.99,0,1.387l-16,12.085c-3.362-1.684-5.535-5.746-8.5-7.626-1.482.1-2.373,1.881-3.755,1.585-0.2-1.387,1.581-1.883,2.468-3.171,0.3-7.036.1-14.664,0.891-21.6,5.73-2.675,11.459-5.946,16.893-8.917Zm-14.523-6.338-0.595,15.158,0.4,0.3a26.9,26.9,0,0,0,6.62-4.456c-1.384-3.865-3.952-7.629-5.929-11h-0.493ZM131.084,4.008c11.656,0.692,22.03-1.389,33.293.89a10.317,10.317,0,0,1,7.113,8.223c0.4,13.375,0,27.048-.4,40.122-7.013,3.767-13.04,9.315-19.758,13.375-4.148-4.457-10.274-8.321-17.19-6.44-2.569.793-4.347,2.477-6.619,4.063,4.84-6.936,12.25-12.384,21.833-11.195l0.592-1.092c0.1-12.48.5-24.963,0.3-37.644-0.594-.892-1.285.3-1.78,0.4-1.481,1.09-2.073,3.271-2.272,5.152l-0.493,24.272c-1.975,5.548-6.423,9.015-12.151,10.2,3.259-4.457,1.185-11.094,1.777-16.643-0.79-1.189-2.568-.6-3.754-0.5a2.018,2.018,0,0,0-.889,2.974l0.79,0.791c-1.581.99-2.766-.99-3.754-1.686-1.086-1.187-1.285-3.366-.889-5.149a6.935,6.935,0,0,1,2.964-3.566c1.778-1.09,4.347,0,5.928-1.585-0.2-8.025,7.112-10.3,11.757-14.662v-0.5c-7.41-1.883-19.76,3.467-22.131-7.529-0.692-1.683-.1-3.765.2-5.447A7.438,7.438,0,0,0,131.084,4.008Zm21.536,9.41-0.592.792-0.3,14.068,0.493,1.388c0.988,1.287,2.371,1.387,3.951,1.287,1.582-.4,3.557-1.287,4.249-2.675-0.2-4.558,1.383-9.708-.692-13.77C158.054,12.527,154.992,13.814,152.62,13.418Zm7.311,17.833a11.3,11.3,0,0,1-8,.892,10.806,10.806,0,0,0,0,4.358c2.668-1.09,5.83-.4,8.3.694C160.425,35.312,160.82,32.737,159.931,31.251ZM154.6,37.492a4.476,4.476,0,0,0-2.668,1.684l-0.394,14.067c1.975,1.685,4.544,2.281,6.224,4.46,0.79,0.295,1.778,2.081,2.272.888-0.3-6.637.888-13.174-.3-19.416A5.979,5.979,0,0,0,154.6,37.492ZM504.131,3.808c0.2,1.883-.3,3.962.394,5.55,2.668-1.191,5.138-3.867,7.608-5.55,3.951,3.368,10.076,7.926,9.087,14.464-1.579,5.054-5.828,7.629-9.384,10.9a31.079,31.079,0,0,0,7.41,7.431c1.679-.1,2.076-1.981,3.557-2.279,1.282,1.683-.989,1.784-1.583,3.17-0.591,5.944-.2,12.284-0.3,18.427A5.7,5.7,0,0,0,523,58.2l3.064-1.784a1.061,1.061,0,0,1,.3,1.089l-10.275,8.721-1.284-.3-5.434-6.439V42.149a25.636,25.636,0,0,0-5.235-5.648c-0.89,6.341-.495,12.781-0.3,19.418,0.79,1.385,2.37,1.188,3.159-.2a0.638,0.638,0,0,1,.594-0.2,1.5,1.5,0,0,1-.2,1.584l-8.4,8.818c-1.877.5-2.965-1.784-4.644-2.377-2.667-1.388-6.421-1.29-8.692.594a4.78,4.78,0,0,0-1.781,4.26,6.066,6.066,0,0,0,1.582,3.171,6.712,6.712,0,0,1-5.434-4.26,9.67,9.67,0,0,1,.888-9.115c1.778-1.883,4.051-4.161,6.719-4.755l0.692-.893V36.8c-0.989-1.09-2.371-.1-3.36.4-0.889,1.191-1.283,2.575-.394,3.864,0.1,0.1.2,0.3,0.394,0.2v0.4a4.755,4.755,0,0,1-4.446-2.674,9.6,9.6,0,0,1-.493-6.836c1.186-3.569,4.644-5.252,8.1-5.45,0.395-4.952.987-9.51,0.2-14.464-0.692-.99-0.989-2.081-2.272-2.377-2.274-.694-3.261,1.089-4.248,2.377-0.692.6-.1,2.179-1.286,2.081a10.007,10.007,0,0,1,4.446-8.521c2.965-1.883,8.1-2.477,11.065-.2,2.867,1.486,2.47,4.954,3.359,7.529,1.482,0.3,2.569-1.09,3.36-2.377l0.2-8.025C503.834,2.423,503.933,3.312,504.131,3.808Zm0.592,8.025c-1.285,6.637-.592,14.266-0.592,21.2,3.456-1.586,7.11-4.855,7.705-8.719C512.033,18.768,508.476,15,504.723,11.833Zm-2.174,2.675-0.494-.694-2.469,2.279c0,6.935-.791,13.969,0,20.706,1.087-.1,1.974-1.09,2.666-1.784Zm-3.162,25.164-0.2,13.771a3.535,3.535,0,0,0,2.667.694c0.692-5.253.2-10.8,0.395-16.248A4.716,4.716,0,0,0,499.387,39.672ZM288.264,8.464a0.972,0.972,0,0,0,.4.894c2.372-.992,3.853-3.17,6.224-4.658,3.457,2.179,6.223,5.252,9.385,7.827,1.878,0,3.063-2.079,5.038-2.775,0.594,0.2.3,0.992,0,1.189l-3.754,2.873c-0.988,13.077.3,27.938-.395,41.51l3.952,3.566c1.679-.2,3.458-0.692,4.445-2.477l0.3-22.092a154.943,154.943,0,0,0,16-8.421h0.79l9.78,8.421c1.482-.792,2.076-2.279,3.657-2.279v0.694c-0.791,1.287-3.063,1.683-2.965,3.764l-0.2,20.509c-5.236,2.872-11.361,6.141-16.4,9.213h-1.581c-3.062-2.875-6.125-4.953-8.891-8.025-4.842,1.684-8.892,5.25-13.535,7.825-3.359-.991-5.928-4.656-8.693-6.536-4.15,2.178-7.213,4.854-11.362,7.331-3.952-.7-6.323-4.458-9.978-6.44-1.384,0-2.173,2.08-3.557,1.586V61.27c9.484-2.182,3.458-13.771,5.138-20.706-0.692-1.488-2.174-1.684-3.558-1.982-1.284.4-3.062,0.494-3.555,2.18-1.385,8.916,3.161,22.091-7.114,25.461-3.26.691-8.1-.992-9.386,2.871a3.775,3.775,0,0,0,2.273,3.568l2.864,0.494c-2.074.2-4.741,0-6.421-1.189a8.976,8.976,0,0,1-3.161-9.114,8.5,8.5,0,0,1,4.939-6.439c4.742-1.684,10.769.891,14.227-3.565,0.394-12.681.789-26.056,0.394-38.539a5.206,5.206,0,0,0-2.667,2.575l-0.691,29.028c-1.679,6.041-7.607,7.53-13.041,8.52,5.335-3.27,1.778-11.294,3.062-16.743,0.692-6.737-1.382-15.555,5.138-18.922L272.853,5.393l0.889,0.2,9.385,8.223c1.679-.1,2.371-1.783,3.556-2.477l0.4-7.133C288.759,4.3,288.166,6.878,288.264,8.464Zm0.4,3.765c-0.692,6.143-.3,12.681-0.4,19.022a2.414,2.414,0,0,0,1.285,1.486A6.525,6.525,0,0,0,294,31.646l0.2-14.266A20.7,20.7,0,0,0,288.66,12.229Zm-22.822.3c-0.888,5.943-.3,12.483-0.494,18.725a3.33,3.33,0,0,0,2.175,1.683c1.579,0.5,2.963-.5,4.247-1.486,0.889-3.666.493-8.618,0.3-12.78A24.444,24.444,0,0,0,265.838,12.527Zm20.649,1.683a4.472,4.472,0,0,0-2.866,1.783l-0.3,41.907a17.286,17.286,0,0,0,2.865,2.477l0.3-.4V14.21Zm37.047,16.941c-0.1,7.629-.691,15.258-0.2,22.985l7.113,6.537h0.889V38.285C328.869,36,326.4,32.737,323.534,31.151ZM293.8,33.826c-1.482.892-3.556,0.3-5.335,0.5V36.8a14.793,14.793,0,0,1,5.533.4C294.192,36.105,294.785,34.62,293.8,33.826Zm-21.834.1a18.671,18.671,0,0,1-6.619.794c-0.1.693-.593,2.081,0.4,2.477,1.976-.892,4.247,0,6.223.3l0.3-2.081Zm18.771,4.658c-0.889.1-1.975,0.4-2.272,1.287-0.3,6.836-.3,13.177,0,19.617a35.865,35.865,0,0,0,5.335-3.567l0.395-15.356C293.9,38.88,292.118,38.679,290.734,38.582ZM226.716,34.52c-0.889,1.485-3.162,2.477-2.47,4.26l5.138,4.459V56.81c-5.237,3.072-10.177,5.944-15.413,9.115-1.777-1.585-3.457-3.667-6.422-3.073-1.283.1-2.073,1.388-2.469,2.28a5.482,5.482,0,0,0,1.087,3.068c-2.272-.4-3.359-1.881-4.445-3.565-2.57-6.538,2.271-11,6.717-15.355-1.285-2.28-4.051-3.569-5.335-5.548v-9.81c1.185-1.782,3.359-1.684,4.939-2.773,4.051-1.585,7.41-5.15,11.461-6.241,1.679,1.486,3.655,3.864,6.717,2.675,1.383-.4,1.878-1.388,2.668-2.576l0.2-1.387C230.964,27.485,228.1,31.251,226.716,34.52Zm-13.832-3.962c0.5,3.962-2.074,9.708,2.174,12.185,1.877,1.09,3.062-1.883,4.742-2.379,1.778-2.179,4.446-4.06,5.138-6.537-2.47,1.19-6.225,1.486-8.5-.2C214.96,33.035,214.169,30.953,212.884,30.557Zm3.359,13.572c-4.049,3.467-6.914,6.44-11.163,10.5v0.594a12.1,12.1,0,0,1,6.52-1.686c4.051,0.1,6.52,3.666,8.6,6.243C218.911,54.333,223.455,46.011,216.243,44.129Zm417.7-5.844c1.58,2.774,5.434,3.664,6.224,6.737V57.3a150.248,150.248,0,0,0-15.411,9.116c-2.075-1.389-3.459-3.17-6.026-3.17a3.493,3.493,0,0,0-2.67,1.782c-0.887,1.192-.1,2.675.691,3.666-3.259-.594-4.74-4.161-5.335-6.935,0.1-5.249,4.941-8.025,7.411-11.789-1.087-2.179-4.149-3.565-5.135-5.845l0.2-9.807c5.04-2.873,10.275-5.252,15.118-8.719,2.073,1.388,4.147,3.865,7.508,2.675,1.779-.4,2.666-2.377,2.963-3.962C641.453,29.864,637.007,34.42,633.945,38.285Zm-10.67-7.134c0.889,4.062-3.062,11.591,3.457,12.583a33.285,33.285,0,0,0,8-8.916l-3.46.892C628.018,35.709,625.25,33.33,623.275,31.151Zm3.754,13.472a103.118,103.118,0,0,0-11.557,11.3c2.27-.893,4.544-1.783,7.308-1.486,3.854,0.3,5.534,3.368,7.608,5.944C630.093,55.027,633.256,47.2,627.029,44.623ZM461.847,25.6c1.384,5.846-3.362,9.513-5.534,13.871,1.086,2.475,3.951,3.565,5.335,5.548a75.6,75.6,0,0,1-.2,13.374c-5.238,2.377-10.276,5.844-15.415,8.717-1.877-1.288-3.358-3.368-5.926-2.971-1.286-.3-2.372.89-2.767,1.881a3.8,3.8,0,0,0,.989,3.468,4.854,4.854,0,0,1-3.656-2.577c-1.581-2.674-1.779-7.529.3-10.1,1.875-2.576,4.446-3.666,5.531-6.438l-4.84-4.955V35.411c4.642-3.466,10.57-5.845,15.706-9.114,2.275,1.683,4.151,3.667,7.313,2.873C460.561,28.972,460.955,26.6,461.847,25.6Zm-16.5,6.242c0.691,4.558-2.864,10.8,2.965,12.681,2.962-2.873,6.717-4.557,8.395-8.817a12.709,12.709,0,0,1-4.838.594C449,35.807,447.323,33.726,445.347,31.845Zm6.916,16.744L450.782,46.8c-1.68-3.664-4.248.893-5.435,1.389-2.569,2.574-6.619,5.545-8.2,8.618,2.37-2.279,6.521-2.477,9.386-1.287a18.916,18.916,0,0,1,5.53,5.747Z"/>
    <path id="USAT_Network" data-name="USAT Network" class="cls-3" d="M1.293,93.392H7.158c4.124,0,6.883,2.445,6.883,6.212s-2.816,6.206-6.883,6.206H4.166v7.762H1.293V93.392Zm5.575,10.036c2.76,0,4.239-1.524,4.239-3.824,0-2.274-1.479-3.825-4.239-3.825h-2.7v7.649h2.7ZM22.245,93.392H24.8l8.363,20.18H30.083L28,108.286H18.964l-2.091,5.286h-3.02S21.227,95.868,22.245,93.392Zm4.79,12.506-1.945-4.971c-0.289-.75-1.54-3.856-1.569-4.114H23.464c-0.029.258-1.248,3.276-1.569,4.114L19.922,105.9h7.113Zm9.047-12.506h5.894c3.8,0,6.766,1.959,6.766,5.979,0,3.137-2.091,5.2-5.168,5.7l6.244,8.506h-3.37l-5.894-8.222h-1.6v8.222H36.082V93.392Zm5.576,9.633c2.67,0,4.182-1.411,4.182-3.622s-1.511-3.623-4.181-3.623h-2.7v7.246h2.7Zm15.056-7.189H50.906V93.392H65.4v2.445H59.587v17.736H56.714V95.836Zm16.135,7.649a10.287,10.287,0,0,1,10.715-10.49,10.492,10.492,0,1,1,0,20.98A10.287,10.287,0,0,1,72.849,103.485Zm18.467,0a7.77,7.77,0,1,0-7.781,7.932A7.554,7.554,0,0,0,91.316,103.485Zm7.1-10.093H108.7v2.445h-7.406v6.5h7.173v2.445h-7.173v8.8H98.416V93.392ZM121.7,95.836h-5.808V93.392h14.489v2.445h-5.807v17.736H121.7V95.836Zm11.7-2.445h2.874v8.278h10.687V93.392h2.876v20.18h-2.876v-9.457H136.267v9.457h-2.874V93.392Zm21.733,0h11.093v2.419H158v5.859h7.984v2.42H158v7.069h8.392v2.413H155.126V93.392Zm20.9,13.224V93.392h2.9v12.361c0,3.51,1.512,5.664,4.908,5.664,3.426,0,4.939-2.154,4.939-5.664V93.392h2.9v13.224c0,4.43-2.874,7.359-7.841,7.359C178.844,113.975,176.028,111.046,176.028,106.616Zm18.651,3.308,1.949-1.638a5.907,5.907,0,0,0,5.11,3.188c2.234,0,3.978-1.2,3.978-3.421,0-2.382-2-3.188-4.5-4.165-2.555-1.008-5.139-2.274-5.139-5.494,0-3.188,2.5-5.4,6.157-5.4a6.849,6.849,0,0,1,5.983,3.043l-1.947,1.638a4.64,4.64,0,0,0-4.036-2.186c-1.976,0-3.281,1.008-3.281,2.7,0,2.1,2.031,2.791,3.8,3.477,2.874,1.122,5.837,2.476,5.837,6.181,0,3.51-2.613,6.124-6.8,6.124A7.921,7.921,0,0,1,194.679,109.924Zm23.837-16.532h2.555l8.363,20.18h-3.08l-2.088-5.286h-9.032l-2.09,5.286h-3.02S217.5,95.868,218.516,93.392Zm4.789,12.506-1.944-4.971c-0.29-.75-1.541-3.856-1.569-4.114h-0.057c-0.029.258-1.248,3.276-1.57,4.114l-1.973,4.971h7.113Zm18.264-10.062h-5.808V93.392H250.25v2.445h-5.807v17.736h-2.874V95.836Zm9.76,7.649a10.717,10.717,0,1,1,10.716,10.49A10.287,10.287,0,0,1,251.329,103.485Zm18.467,0a7.77,7.77,0,1,0-7.78,7.932A7.552,7.552,0,0,0,269.8,103.485Zm7.1-10.093h5.779c6.5,0,10.8,3.679,10.8,10.093,0,6.382-4.328,10.087-10.8,10.087H276.9V93.392Zm2.873,17.735h2.673c4.761,0,8.071-2.495,8.071-7.642s-3.31-7.649-8.071-7.649H279.77v15.291Zm23.047-17.735h2.555l8.364,20.18h-3.08l-2.089-5.286h-9.031l-2.091,5.286h-3.02S301.8,95.868,302.817,93.392Zm4.79,12.506-1.945-4.971c-0.29-.75-1.54-3.856-1.569-4.114h-0.057c-0.029.258-1.248,3.276-1.569,4.114l-1.973,4.971h7.113Zm11.87-.548-6.941-11.958h3.224l3.774,6.729a29.636,29.636,0,0,1,1.451,2.873h0.029a30.375,30.375,0,0,1,1.455-2.873l3.8-6.729h3.134l-6.937,11.958v8.222h-2.992V105.35Zm18.375-11.958h2.205l11.559,13.08c0.347,0.378,1.858,2.242,2,2.532l0.058-.031c-0.058-.284-0.058-2.615-0.058-3.132V93.392h2.789v20.18h-2.238l-11.558-13.08c-0.347-.371-1.859-2.242-2-2.526l-0.028.025c0.028,0.29.057,2.621,0.057,3.137v12.444h-2.788V93.392Zm23.852,0h11.09v2.419h-8.216v5.859h7.988v2.42h-7.988v7.069h8.392v2.413H361.7V93.392Zm20.084,2.445H375.98V93.392h14.49v2.445h-5.808v17.736h-2.874V95.836Zm11.078-2.445h3.049l4.181,11.989c0.147,0.46,1.133,3.447,1.162,3.907h0.06a40.361,40.361,0,0,1,1.219-3.907l4.357-11.989h2.294l4.354,11.989c0.175,0.46,1.19,3.447,1.222,3.907h0.057c0.058-.46,1.044-3.447,1.19-3.907l4.153-11.989H423.1l-7.173,20.18h-2.205l-4.7-12.588a33.3,33.3,0,0,1-.99-3.276h-0.058a33.741,33.741,0,0,1-1.015,3.276l-4.675,12.588h-2.208Zm31.515,10.093a10.718,10.718,0,1,1,10.715,10.49A10.287,10.287,0,0,1,424.381,103.485Zm18.468,0a7.77,7.77,0,1,0-7.782,7.932A7.554,7.554,0,0,0,442.849,103.485Zm7.1-10.093h5.894c3.806,0,6.766,1.959,6.766,5.979,0,3.137-2.091,5.2-5.168,5.7l6.244,8.506h-3.37l-5.894-8.222h-1.6v8.222h-2.874V93.392Zm5.576,9.633c2.67,0,4.182-1.411,4.182-3.622s-1.512-3.623-4.182-3.623h-2.7v7.246h2.7Zm11.415-9.633h2.874v9.374l8.421-9.374h3.484l-8.739,9.633,9.146,10.547h-3.6l-8.713-10.2v10.2h-2.874V93.392Z"/>
  </g>
</svg>
