<svg xmlns="http://www.w3.org/2000/svg" width="394" height="47" viewBox="0 0 394 47">
  <g fill="none" fill-rule="evenodd">
    <path fill="#FFFFFF" d="M8.592 27.689L12.417 27.689C14.607 27.689 16.339 26.895 17.615 25.304 18.889 23.714 19.527 21.614 19.527 19.004 19.527 16.394 18.889 14.294 17.615 12.704 16.339 11.114 14.607 10.319 12.417 10.319L8.592 10.319 8.592 27.689zM.357 34.304L.357 3.704 12.417 3.704C15.447 3.704 18.125 4.356 20.45 5.661 22.774 6.967 24.597 8.767 25.917 11.061 27.237 13.356 27.897 16.004 27.897 19.004 27.897 22.004 27.237 24.651 25.917 26.946 24.597 29.241 22.774 31.041 20.45 32.347 18.125 33.651 15.447 34.304 12.417 34.304L.357 34.304.357 34.304zM42.972 16.484C40.422 16.484 38.892 17.834 38.382 20.534L47.112 20.534C46.902 19.064 46.399 18.021 45.604 17.406 44.809 16.792 43.932 16.484 42.972 16.484zM53.682 31.964C52.541 32.774 51.094 33.464 49.339 34.034 47.584 34.603 45.717 34.889 43.737 34.889 41.007 34.889 38.674 34.386 36.739 33.381 34.804 32.377 33.319 30.974 32.284 29.174 31.249 27.374 30.732 25.304 30.732 22.964 30.732 20.595 31.242 18.494 32.262 16.664 33.281 14.834 34.692 13.401 36.492 12.366 38.292 11.332 40.391 10.814 42.792 10.814 45.132 10.814 47.194 11.316 48.979 12.321 50.764 13.327 52.159 14.722 53.164 16.506 54.169 18.292 54.672 20.384 54.672 22.784 54.672 23.114 54.649 23.459 54.604 23.819 54.559 24.179 54.507 24.555 54.447 24.944L38.472 24.944C39.192 27.584 41.156 28.904 44.367 28.904 45.807 28.904 47.082 28.679 48.192 28.229 49.301 27.779 50.232 27.329 50.982 26.879L53.682 31.964 53.682 31.964zM75.192 32.819C74.261 33.449 73.196 33.952 71.997 34.326 70.796 34.701 69.536 34.889 68.217 34.889 65.756 34.889 63.799 34.177 62.344 32.751 60.889 31.327 60.162 29.414 60.162 27.014L60.162 17.249 56.427 17.249 56.427 11.399 60.522 11.399 61.512 5.009 67.991 5.009 67.991 11.399 73.977 11.399 73.977 17.249 67.991 17.249 67.991 26.024C67.991 26.805 68.224 27.412 68.689 27.847 69.154 28.282 69.776 28.499 70.557 28.499 70.946 28.499 71.344 28.424 71.749 28.274 72.154 28.124 72.537 27.944 72.896 27.734L75.192 32.819M86.284 25.439L86.284 34.304 78.454 34.304 78.454 11.399 85.609 11.399 86.104 15.224C86.583 13.994 87.371 12.996 88.466 12.231 89.561 11.467 90.829 11.084 92.269 11.084 93.079 11.084 93.693 11.189 94.114 11.399L94.114 18.554C93.783 18.435 93.416 18.345 93.011 18.284 92.606 18.224 92.148 18.194 91.639 18.194 90.079 18.194 88.796 18.772 87.791 19.927 86.786 21.082 86.284 22.919 86.284 25.439M108.703 28.679C110.082 28.679 111.185 28.146 112.01 27.082 112.835 26.017 113.248 24.6 113.248 22.829 113.248 21.059 112.835 19.649 112.01 18.599 111.185 17.549 110.082 17.024 108.703 17.024 107.322 17.024 106.22 17.549 105.395 18.599 104.57 19.649 104.157 21.059 104.157 22.829 104.157 24.6 104.57 26.017 105.395 27.082 106.22 28.146 107.322 28.679 108.703 28.679zM108.703 34.889C106.242 34.889 104.074 34.371 102.2 33.336 100.325 32.302 98.854 30.884 97.79 29.084 96.725 27.284 96.193 25.199 96.193 22.829 96.193 20.459 96.725 18.374 97.79 16.574 98.854 14.774 100.325 13.364 102.2 12.344 104.074 11.324 106.242 10.814 108.703 10.814 111.162 10.814 113.33 11.324 115.205 12.344 117.08 13.364 118.55 14.774 119.615 16.574 120.679 18.374 121.213 20.459 121.213 22.829 121.213 25.199 120.679 27.284 119.615 29.084 118.55 30.884 117.08 32.302 115.205 33.336 113.33 34.371 111.162 34.889 108.703 34.889L108.703 34.889zM124.979 34.304L124.979 11.399C126.239 11.669 127.514 11.804 128.804 11.804 130.124 11.804 131.459 11.669 132.809 11.399L132.809 34.304 124.979 34.304M154.782 32.819C153.852 33.449 152.786 33.952 151.587 34.326 150.387 34.701 149.127 34.889 147.807 34.889 145.347 34.889 143.389 34.177 141.934 32.751 140.479 31.327 139.752 29.414 139.752 27.014L139.752 17.249 136.017 17.249 136.017 11.399 140.112 11.399 141.102 5.009 147.582 5.009 147.582 11.399 153.567 11.399 153.567 17.249 147.582 17.249 147.582 26.024C147.582 26.805 147.814 27.412 148.279 27.847 148.744 28.282 149.366 28.499 150.147 28.499 150.536 28.499 150.934 28.424 151.339 28.274 151.744 28.124 152.127 27.944 152.487 27.734L154.782 32.819"/>
    <polyline class='no-color-change' fill="#009BFF" points="179.216 34.304 170.846 34.304 170.846 3.704 192.356 3.704 192.356 10.409 179.216 10.409 179.216 16.529 190.106 16.529 190.106 23.234 179.216 23.234 179.216 34.304"/>
    <path class='no-color-change' fill="#009BFF" d="M202.904 25.439L202.904 34.304 195.074 34.304 195.074 11.399 202.229 11.399 202.724 15.224C203.203 13.994 203.991 12.996 205.086 12.231 206.181 11.467 207.449 11.084 208.889 11.084 209.699 11.084 210.313 11.189 210.734 11.399L210.734 18.554C210.403 18.435 210.036 18.345 209.631 18.284 209.226 18.224 208.769 18.194 208.259 18.194 206.699 18.194 205.416 18.772 204.411 19.927 203.406 21.082 202.904 22.919 202.904 25.439M225.052 16.484C222.502 16.484 220.972 17.834 220.462 20.534L229.192 20.534C228.982 19.064 228.479 18.021 227.685 17.406 226.89 16.792 226.012 16.484 225.052 16.484zM235.762 31.964C234.622 32.774 233.175 33.464 231.42 34.034 229.665 34.603 227.797 34.889 225.817 34.889 223.087 34.889 220.755 34.386 218.82 33.381 216.885 32.377 215.4 30.974 214.365 29.174 213.33 27.374 212.813 25.304 212.813 22.964 212.813 20.595 213.322 18.494 214.342 16.664 215.362 14.834 216.772 13.401 218.572 12.366 220.372 11.332 222.472 10.814 224.872 10.814 227.212 10.814 229.274 11.316 231.06 12.321 232.844 13.327 234.239 14.722 235.245 16.506 236.25 18.292 236.752 20.384 236.752 22.784 236.752 23.114 236.73 23.459 236.685 23.819 236.64 24.179 236.587 24.555 236.527 24.944L220.552 24.944C221.272 27.584 223.237 28.904 226.447 28.904 227.887 28.904 229.162 28.679 230.272 28.229 231.382 27.779 232.312 27.329 233.063 26.879L235.762 31.964 235.762 31.964zM251.418 16.484C248.868 16.484 247.337 17.834 246.828 20.534L255.558 20.534C255.348 19.064 254.845 18.021 254.05 17.406 253.255 16.792 252.377 16.484 251.418 16.484zM262.128 31.964C260.987 32.774 259.54 33.464 257.785 34.034 256.03 34.603 254.163 34.889 252.183 34.889 249.453 34.889 247.12 34.386 245.185 33.381 243.25 32.377 241.765 30.974 240.73 29.174 239.695 27.374 239.178 25.304 239.178 22.964 239.178 20.595 239.688 18.494 240.708 16.664 241.727 14.834 243.138 13.401 244.938 12.366 246.738 11.332 248.837 10.814 251.238 10.814 253.578 10.814 255.64 11.316 257.425 12.321 259.21 13.327 260.605 14.722 261.61 16.506 262.615 18.292 263.118 20.384 263.118 22.784 263.118 23.114 263.095 23.459 263.05 23.819 263.005 24.179 262.953 24.555 262.893 24.944L246.918 24.944C247.638 27.584 249.602 28.904 252.813 28.904 254.253 28.904 255.527 28.679 256.638 28.229 257.747 27.779 258.678 27.329 259.428 26.879L262.128 31.964 262.128 31.964zM287.552 17.699L291.602 17.699C292.892 17.699 293.912 17.361 294.662 16.686 295.412 16.012 295.787 15.119 295.787 14.009 295.787 12.899 295.412 12.006 294.662 11.332 293.912 10.656 292.892 10.319 291.602 10.319L287.552 10.319 287.552 17.699zM279.452 34.304L279.452 3.704 292.412 3.704C296.012 3.704 298.862 4.626 300.962 6.472 303.062 8.316 304.112 10.829 304.112 14.009 304.112 16.079 303.64 17.872 302.694 19.387 301.75 20.901 300.422 22.072 298.712 22.896 297.002 23.722 294.961 24.134 292.592 24.134L287.552 24.134 287.552 34.304 279.452 34.304 279.452 34.304zM315.083 25.439L315.083 34.304 307.252 34.304 307.252 11.399 314.407 11.399 314.902 15.224C315.382 13.994 316.169 12.996 317.265 12.231 318.36 11.467 319.627 11.084 321.067 11.084 321.877 11.084 322.492 11.189 322.913 11.399L322.913 18.554C322.582 18.435 322.215 18.345 321.81 18.284 321.405 18.224 320.947 18.194 320.438 18.194 318.877 18.194 317.595 18.772 316.59 19.927 315.584 21.082 315.083 22.919 315.083 25.439M337.231 16.484C334.681 16.484 333.151 17.834 332.641 20.534L341.371 20.534C341.161 19.064 340.658 18.021 339.863 17.406 339.068 16.792 338.191 16.484 337.231 16.484zM347.941 31.964C346.8 32.774 345.354 33.464 343.599 34.034 341.843 34.603 339.976 34.889 337.996 34.889 335.266 34.889 332.934 34.386 330.999 33.381 329.063 32.377 327.579 30.974 326.543 29.174 325.508 27.374 324.991 25.304 324.991 22.964 324.991 20.595 325.501 18.494 326.521 16.664 327.541 14.834 328.951 13.401 330.751 12.366 332.551 11.332 334.65 10.814 337.051 10.814 339.391 10.814 341.453 11.316 343.238 12.321 345.023 13.327 346.418 14.722 347.423 16.506 348.428 18.292 348.931 20.384 348.931 22.784 348.931 23.114 348.909 23.459 348.863 23.819 348.818 24.179 348.766 24.555 348.706 24.944L332.731 24.944C333.451 27.584 335.416 28.904 338.626 28.904 340.066 28.904 341.341 28.679 342.451 28.229 343.561 27.779 344.491 27.329 345.241 26.879L347.941 31.964 347.941 31.964zM361.175 34.889C359.195 34.889 357.343 34.574 355.618 33.944 353.893 33.314 352.34 32.414 350.96 31.244L354.291 26.834C355.34 27.674 356.473 28.357 357.688 28.881 358.903 29.407 360.095 29.669 361.266 29.669 362.045 29.669 362.667 29.534 363.133 29.264 363.598 28.994 363.831 28.589 363.831 28.049 363.831 27.479 363.567 27.021 363.043 26.677 362.518 26.332 361.581 25.994 360.23 25.664L358.07 25.124C353.78 23.984 351.635 21.689 351.635 18.239 351.635 16.709 352.055 15.389 352.896 14.279 353.735 13.169 354.89 12.314 356.36 11.714 357.83 11.114 359.54 10.814 361.49 10.814 363.41 10.814 365.218 11.114 366.913 11.714 368.607 12.314 370.16 13.184 371.57 14.324L368.15 18.824C367.1 17.984 365.99 17.31 364.82 16.799 363.65 16.289 362.555 16.034 361.536 16.034 359.885 16.034 359.061 16.574 359.061 17.654 359.061 18.134 359.308 18.524 359.803 18.824 360.298 19.124 360.996 19.395 361.896 19.634L364.82 20.444C367.01 21.044 368.63 21.944 369.68 23.144 370.73 24.344 371.255 25.77 371.255 27.419 371.255 28.919 370.835 30.231 369.996 31.356 369.155 32.481 367.978 33.352 366.463 33.967 364.948 34.581 363.185 34.889 361.175 34.889M383.666 34.889C381.686 34.889 379.833 34.574 378.108 33.944 376.383 33.314 374.831 32.414 373.451 31.244L376.781 26.834C377.831 27.674 378.964 28.357 380.179 28.881 381.394 29.407 382.586 29.669 383.756 29.669 384.536 29.669 385.158 29.534 385.624 29.264 386.088 28.994 386.321 28.589 386.321 28.049 386.321 27.479 386.058 27.021 385.534 26.677 385.008 26.332 384.071 25.994 382.721 25.664L380.561 25.124C376.271 23.984 374.126 21.689 374.126 18.239 374.126 16.709 374.546 15.389 375.386 14.279 376.226 13.169 377.381 12.314 378.851 11.714 380.321 11.114 382.031 10.814 383.981 10.814 385.9 10.814 387.708 11.114 389.403 11.714 391.098 12.314 392.65 13.184 394.061 14.324L390.641 18.824C389.59 17.984 388.481 17.31 387.311 16.799 386.141 16.289 385.045 16.034 384.026 16.034 382.376 16.034 381.551 16.574 381.551 17.654 381.551 18.134 381.799 18.524 382.293 18.824 382.789 19.124 383.486 19.395 384.386 19.634L387.311 20.444C389.5 21.044 391.121 21.944 392.171 23.144 393.221 24.344 393.746 25.77 393.746 27.419 393.746 28.919 393.326 30.231 392.486 31.356 391.646 32.481 390.468 33.352 388.954 33.967 387.438 34.581 385.676 34.889 383.666 34.889M128.804 9.599C127.514 9.599 126.411 9.142 125.496 8.227 124.581 7.311 124.124 6.209 124.124 4.919 124.124 3.629 124.581 2.527 125.496 1.611 126.411.697 127.514.239 128.804.239 130.094.239 131.196.697 132.111 1.611 133.026 2.527 133.484 3.629 133.484 4.919 133.484 6.209 133.026 7.311 132.111 8.227 131.196 9.142 130.094 9.599 128.804 9.599"/>
    <path fill="#FFFFFF" d="M1.205 43.619L2.348 43.619C2.723 43.619 3.02 43.526 3.238 43.341 3.457 43.157 3.566 42.905 3.566 42.585 3.566 42.266 3.457 42.014 3.238 41.83 3.02 41.644 2.723 41.552 2.348 41.552L1.205 41.552 1.205 43.619zM.357 46.55L.357 40.838 2.348 40.838C2.986 40.838 3.493 40.995 3.868 41.308 4.243 41.622 4.431 42.048 4.431 42.585 4.431 43.118 4.243 43.539 3.868 43.85 3.493 44.16 2.986 44.316 2.348 44.316L1.205 44.316 1.205 46.55.357 46.55.357 46.55zM6.144 44.4L8.228 44.4 7.186 41.72 6.144 44.4zM9.059 46.55L8.505 45.114 5.867 45.114 5.313 46.55 4.456 46.55 6.741 40.838 7.657 40.838 9.933 46.55 9.059 46.55 9.059 46.55zM11.731 43.534L12.898 43.534C13.262 43.534 13.552 43.445 13.767 43.266 13.983 43.087 14.091 42.846 14.091 42.543 14.091 42.241 13.983 42 13.767 41.821 13.552 41.642 13.262 41.552 12.898 41.552L11.731 41.552 11.731 43.534zM11.731 44.232L11.731 46.55 10.882 46.55 10.882 40.838 12.898 40.838C13.531 40.838 14.032 40.991 14.402 41.296 14.771 41.601 14.956 42.017 14.956 42.543 14.956 42.941 14.844 43.277 14.62 43.551 14.396 43.826 14.088 44.019 13.696 44.131L15.082 46.55 14.116 46.55 12.814 44.232 11.731 44.232 11.731 44.232z"/>
    <polyline fill="#FFFFFF" points="17.392 46.55 17.392 41.552 15.468 41.552 15.468 40.838 20.164 40.838 20.164 41.552 18.24 41.552 18.24 46.55 17.392 46.55"/>
    <path fill="#FFFFFF" d="M25.615,45.903 C25.985,45.903 26.314,45.81 26.602,45.622 C26.89,45.434 27.116,45.175 27.278,44.845 C27.441,44.515 27.522,44.131 27.522,43.694 C27.522,43.257 27.441,42.874 27.278,42.543 C27.116,42.213 26.89,41.954 26.602,41.766 C26.314,41.579 25.985,41.485 25.615,41.485 C25.246,41.485 24.918,41.579 24.632,41.766 C24.346,41.954 24.123,42.213 23.96,42.543 C23.798,42.874 23.717,43.257 23.717,43.694 C23.717,44.131 23.798,44.515 23.96,44.845 C24.123,45.175 24.346,45.434 24.632,45.622 C24.918,45.81 25.246,45.903 25.615,45.903 Z M25.615,46.643 C25.078,46.643 24.602,46.516 24.187,46.265 C23.773,46.012 23.446,45.665 23.208,45.223 C22.97,44.781 22.851,44.271 22.851,43.694 C22.851,43.118 22.97,42.608 23.208,42.166 C23.446,41.723 23.773,41.376 24.187,41.124 C24.602,40.872 25.078,40.746 25.615,40.746 C26.153,40.746 26.63,40.872 27.047,41.124 C27.464,41.376 27.792,41.723 28.03,42.166 C28.268,42.608 28.387,43.118 28.387,43.694 C28.387,44.271 28.268,44.781 28.03,45.223 C27.792,45.665 27.464,46.012 27.047,46.265 C26.63,46.516 26.153,46.643 25.615,46.643 L25.615,46.643 Z"/>
    <polyline fill="#FFFFFF" points="30.428 46.55 29.58 46.55 29.58 40.838 33.133 40.838 33.133 41.552 30.428 41.552 30.428 43.484 32.721 43.484 32.721 44.198 30.428 44.198 30.428 46.55"/>
    <polyline fill="#FFFFFF" points="37.559 46.55 37.559 41.552 35.636 41.552 35.636 40.838 40.331 40.838 40.331 41.552 38.408 41.552 38.408 46.55 37.559 46.55"/>
    <polyline fill="#FFFFFF" points="41.306 46.55 41.306 40.838 42.154 40.838 42.154 43.283 45.102 43.283 45.102 40.838 45.951 40.838 45.951 46.55 45.102 46.55 45.102 44.013 42.154 44.013 42.154 46.55 41.306 46.55"/>
    <polyline fill="#FFFFFF" points="47.446 46.55 47.446 40.838 51.108 40.838 51.108 41.552 48.294 41.552 48.294 43.316 50.772 43.316 50.772 44.03 48.294 44.03 48.294 45.836 51.175 45.836 51.175 46.55 47.446 46.55"/>
    <path fill="#FFFFFF" d="M56.534 45.903C56.999 45.903 57.364 45.764 57.63 45.483 57.896 45.203 58.029 44.825 58.029 44.349L58.029 40.838 58.878 40.838 58.878 44.358C58.878 45.069 58.669 45.627 58.252 46.033 57.835 46.439 57.262 46.643 56.534 46.643 55.806 46.643 55.235 46.439 54.821 46.033 54.406 45.627 54.199 45.069 54.199 44.358L54.199 40.838 55.048 40.838 55.048 44.349C55.048 44.825 55.181 45.203 55.447 45.483 55.712 45.764 56.075 45.903 56.534 45.903M62.045 46.643C61.613 46.643 61.201 46.567 60.81 46.416 60.418 46.265 60.101 46.063 59.861 45.811L60.34 45.248C60.563 45.455 60.828 45.618 61.133 45.735 61.438 45.853 61.742 45.911 62.045 45.911 62.414 45.911 62.712 45.84 62.939 45.697 63.166 45.554 63.279 45.357 63.279 45.105 63.279 44.876 63.198 44.683 63.035 44.526 62.873 44.369 62.596 44.238 62.204 44.131L61.414 43.921C60.905 43.787 60.534 43.596 60.301 43.35 60.069 43.103 59.953 42.782 59.953 42.384 59.953 42.059 60.04 41.773 60.213 41.527 60.387 41.281 60.626 41.089 60.932 40.951 61.237 40.814 61.582 40.746 61.969 40.746 62.378 40.746 62.761 40.823 63.12 40.977 63.478 41.131 63.794 41.345 64.069 41.619L63.557 42.174C63.315 41.95 63.065 41.778 62.805 41.657 62.544 41.537 62.269 41.476 61.977 41.476 61.625 41.476 61.336 41.551 61.112 41.699 60.888 41.848 60.776 42.053 60.776 42.316 60.776 42.557 60.856 42.745 61.015 42.88 61.175 43.014 61.42 43.126 61.75 43.215L62.632 43.459C63.142 43.599 63.514 43.795 63.749 44.047 63.985 44.299 64.102 44.613 64.102 44.988 64.102 45.318 64.015 45.608 63.842 45.857 63.668 46.106 63.428 46.299 63.12 46.436 62.812 46.574 62.453 46.643 62.045 46.643M66.236 44.4L68.319 44.4 67.277 41.72 66.236 44.4zM69.151 46.55L68.596 45.114 65.959 45.114 65.404 46.55 64.548 46.55 66.832 40.838 67.748 40.838 70.024 46.55 69.151 46.55 69.151 46.55z"/>
    <polyline fill="#FFFFFF" points="73.972 46.55 73.972 41.552 72.048 41.552 72.048 40.838 76.744 40.838 76.744 41.552 74.821 41.552 74.821 46.55 73.972 46.55"/>
    <path fill="#FFFFFF" d="M79.802 45.903C80.171 45.903 80.5 45.81 80.789 45.622 81.077 45.434 81.302 45.175 81.465 44.845 81.627 44.515 81.708 44.131 81.708 43.694 81.708 43.257 81.627 42.874 81.465 42.543 81.302 42.213 81.077 41.954 80.789 41.766 80.5 41.579 80.171 41.485 79.802 41.485 79.432 41.485 79.104 41.579 78.819 41.766 78.533 41.954 78.309 42.213 78.147 42.543 77.984 42.874 77.903 43.257 77.903 43.694 77.903 44.131 77.984 44.515 78.147 44.845 78.309 45.175 78.533 45.434 78.819 45.622 79.104 45.81 79.432 45.903 79.802 45.903zM79.802 46.643C79.264 46.643 78.788 46.516 78.374 46.265 77.959 46.012 77.633 45.665 77.395 45.223 77.157 44.781 77.038 44.271 77.038 43.694 77.038 43.118 77.157 42.608 77.395 42.166 77.633 41.723 77.959 41.376 78.374 41.124 78.788 40.872 79.264 40.746 79.802 40.746 80.339 40.746 80.816 40.872 81.234 41.124 81.651 41.376 81.979 41.723 82.217 42.166 82.455 42.608 82.574 43.118 82.574 43.694 82.574 44.271 82.455 44.781 82.217 45.223 81.979 45.665 81.651 46.012 81.234 46.265 80.816 46.516 80.339 46.643 79.802 46.643L79.802 46.643zM84.615 45.836L85.774 45.836C86.177 45.836 86.523 45.748 86.811 45.572 87.1 45.395 87.32 45.147 87.475 44.828 87.629 44.509 87.706 44.131 87.706 43.694 87.706 43.257 87.629 42.88 87.475 42.56 87.32 42.241 87.1 41.993 86.811 41.817 86.523 41.641 86.177 41.552 85.774 41.552L84.615 41.552 84.615 45.836zM83.766 46.55L83.766 40.838 85.774 40.838C86.334 40.838 86.824 40.957 87.244 41.195 87.664 41.433 87.99 41.766 88.222 42.195 88.455 42.623 88.571 43.123 88.571 43.694 88.571 44.265 88.455 44.765 88.222 45.193 87.99 45.622 87.664 45.955 87.244 46.193 86.824 46.431 86.334 46.55 85.774 46.55L83.766 46.55 83.766 46.55zM90.738 44.4L92.821 44.4 91.779 41.72 90.738 44.4zM93.653 46.55L93.098 45.114 90.461 45.114 89.906 46.55 89.05 46.55 91.334 40.838 92.25 40.838 94.526 46.55 93.653 46.55 93.653 46.55z"/>
    <polyline fill="#FFFFFF" points="97.13 44.282 97.13 46.55 96.282 46.55 96.282 44.282 94.274 40.838 95.274 40.838 96.711 43.476 98.147 40.838 99.129 40.838 97.13 44.282"/>
    <polyline fill="#FFFFFF" points="105.916 46.55 102.867 42.174 102.867 46.55 102.069 46.55 102.069 40.838 102.859 40.838 105.916 45.215 105.916 40.838 106.706 40.838 106.706 46.55 105.916 46.55"/>
    <polyline fill="#FFFFFF" points="108.201 46.55 108.201 40.838 111.864 40.838 111.864 41.552 109.05 41.552 109.05 43.316 111.527 43.316 111.527 44.03 109.05 44.03 109.05 45.836 111.931 45.836 111.931 46.55 108.201 46.55"/>
    <polyline fill="#FFFFFF" points="114.45 46.55 114.45 41.552 112.527 41.552 112.527 40.838 117.222 40.838 117.222 41.552 115.299 41.552 115.299 46.55 114.45 46.55"/>
    <polyline fill="#FFFFFF" points="122.766 46.55 121.43 41.998 120.095 46.55 119.213 46.55 117.693 40.838 118.533 40.838 119.692 45.357 121.027 40.838 121.834 40.838 123.178 45.374 124.345 40.838 125.169 40.838 123.648 46.55 122.766 46.55"/>
    <path fill="#FFFFFF" d="M128.537 45.903C128.907 45.903 129.236 45.81 129.524 45.622 129.812 45.434 130.038 45.175 130.2 44.845 130.363 44.515 130.444 44.131 130.444 43.694 130.444 43.257 130.363 42.874 130.2 42.543 130.038 42.213 129.812 41.954 129.524 41.766 129.236 41.579 128.907 41.485 128.537 41.485 128.168 41.485 127.84 41.579 127.555 41.766 127.269 41.954 127.045 42.213 126.882 42.543 126.72 42.874 126.639 43.257 126.639 43.694 126.639 44.131 126.72 44.515 126.882 44.845 127.045 45.175 127.269 45.434 127.555 45.622 127.84 45.81 128.168 45.903 128.537 45.903zM128.537 46.643C128 46.643 127.524 46.516 127.109 46.265 126.695 46.012 126.368 45.665 126.13 45.223 125.892 44.781 125.773 44.271 125.773 43.694 125.773 43.118 125.892 42.608 126.13 42.166 126.368 41.723 126.695 41.376 127.109 41.124 127.524 40.872 128 40.746 128.537 40.746 129.075 40.746 129.552 40.872 129.969 41.124 130.386 41.376 130.714 41.723 130.952 42.166 131.19 42.608 131.309 43.118 131.309 43.694 131.309 44.271 131.19 44.781 130.952 45.223 130.714 45.665 130.386 46.012 129.969 46.265 129.552 46.516 129.075 46.643 128.537 46.643L128.537 46.643zM133.35 43.534L134.517 43.534C134.881 43.534 135.171 43.445 135.387 43.266 135.603 43.087 135.71 42.846 135.71 42.543 135.71 42.241 135.603 42 135.387 41.821 135.171 41.642 134.881 41.552 134.517 41.552L133.35 41.552 133.35 43.534zM133.35 44.232L133.35 46.55 132.502 46.55 132.502 40.838 134.517 40.838C135.15 40.838 135.652 40.991 136.021 41.296 136.391 41.601 136.575 42.017 136.575 42.543 136.575 42.941 136.464 43.277 136.239 43.551 136.016 43.826 135.707 44.019 135.316 44.131L136.702 46.55 135.735 46.55 134.434 44.232 133.35 44.232 133.35 44.232z"/>
    <polyline fill="#FFFFFF" points="141.187 46.55 138.625 43.669 138.625 46.55 137.777 46.55 137.777 40.838 138.625 40.838 138.625 43.341 141.019 40.838 142.069 40.838 139.524 43.459 142.254 46.55 141.187 46.55"/>
  </g>
</svg>
