<svg xmlns="http://www.w3.org/2000/svg" width="789.188" height="74.999" viewBox="0 0 789.188 74.999">
  <defs>
    <style>
      .cls-1 {
        fill: #000;
        fill-rule: evenodd;
      }
    </style>
  </defs>
  <path id="The_Detroit_News_logo" data-name="The Detroit News logo" class="cls-1" d="M120.523,111.85v3.539H96.041V87.369c0-7.364-2.486-10.711-7.173-10.711-7.077,0-9.085,5.259-9.085,13.005v18.744a3.24,3.24,0,0,0,3.539,3.443h3.347v3.539H57.214V111.85h2.008c2.2,0,3.538-1.339,3.538-3.251V48.35H42.391v56.232c0,5.069,2.008,7.268,5.738,7.268h4.59v3.539H12.266V111.85h6.121c4.112,0,5.068-2.3,5.068-6.694V48.35H10.067c-3.921,0-5.643,1.913-5.643,5.26V62.6l-4.781-.574v-19.7h80.14v32.8c2.391-6.119,7.651-10.806,17.5-10.806,9.277,0,15.78,5.069,15.78,19.8V108.6a3.062,3.062,0,0,0,3.252,3.251h4.207Zm48.1-7.364v8.033c-4.591,3.06-13.006,4.782-19.892,4.782-17.214,0-29.072-10.328-29.072-26.585,0-17.215,12.528-27.161,28.4-27.161,19.8,0,24.482,13.772,24.482,29.265H137.928c0.383,10.9,4.974,17.118,14.919,17.118,9.564,0,14.919-4.5,15.78-5.452h0ZM146.822,69.58c-7.554,0-9.085,10.52-9.085,16.067h17.5c0.383-7.078-1.434-16.067-8.416-16.067h0Zm51.833-19.6c0-2.294-1.146-3.729-3.729-3.729h-4.4V42.325h36.818c20.944,0,35.863,12.432,35.863,37.106,0,25.056-16.258,35.959-32.42,35.959H190.527V111.85h3.634c3.06,0,4.494-1.147,4.494-4.4V49.975h0ZM243.8,79.144c0-21.709-5.834-30.794-18.745-30.794h-7.459v61.015h9.372c12.241,0,16.832-9.659,16.832-30.22h0ZM316,104.486v8.033c-4.59,3.06-13.007,4.782-19.892,4.782-17.214,0-29.073-10.328-29.073-26.585,0-17.215,12.528-27.161,28.4-27.161,19.8,0,25.438,13.772,25.438,29.265H285.3c0.383,10.9,4.973,17.118,14.919,17.118,9.563,0,14.919-4.5,15.78-5.452h0Zm-21.805-35c-7.555,0-9.085,10.615-9.085,16.162h17.5c0.382-7.078-1.434-16.162-8.416-16.162h0Zm32.229-19.51h17.022V65.182h12.242v6.5H343.444v33.09c0,2.964,1.434,4.3,3.634,4.3,3.73,0,4.782-4.209,4.782-8.7h3.826c0,10.137-3.826,16.066-14.633,16.066-12.91,0-14.631-6.311-14.631-11.476V71.684h-5.738v-6.5h5.738V49.975h0Zm60.249,61.875v3.539h-30.89V111.85h2.582c2.582,0,3.06-1.147,3.06-3.633V65.182h16.832V76.466c2.486-8.319,8.224-12.527,15.015-12.527a8.548,8.548,0,0,1,1.72.191V78.761a11.184,11.184,0,0,0-5.641-1.435c-6.5,0-10.9,3.443-10.9,10.9v20.082c0,2.392,1.052,3.539,3.442,3.539h4.783ZM394.8,90.142c0-13.006,9.558-26.587,28.4-26.587,19.509,0,28.4,14.25,28.4,26.587,0,12.241-8.895,27.16-28.4,27.16-19.128,0-28.4-12.433-28.4-27.16h0Zm28.4,21.231c5.641,0,10.233-5.259,10.233-21.231,0-13.772-3.155-20.656-10.233-20.656-6.79,0-10.233,7.077-10.233,20.656,0,16.066,4.112,21.231,10.233,21.231h0Zm33.854-42.653h-4.4V65.182h24.577v43.225c0,2.3,1.149,3.443,3.062,3.443h4.589v3.539H452.651V111.85h4.018c2.772,0,3.537-.574,3.537-3.443V71.493c0-1.913-.573-2.774-3.155-2.774h0ZM467.856,42.9a9.512,9.512,0,0,1,9.66,9.372,9.613,9.613,0,0,1-9.66,9.564,9.513,9.513,0,0,1-9.657-9.372,9.612,9.612,0,0,1,9.657-9.564h0Zm22.187,7.076h17.023V65.182h12.242v6.5H507.066v33.09c0,2.964,1.436,4.3,3.635,4.3,3.73,0,4.78-4.209,4.78-8.7h3.827c0,10.137-3.827,16.066-14.632,16.066-12.911,0-14.633-6.311-14.633-11.476V71.684h-5.737v-6.5h5.737V49.975h0ZM563.4,111.85v3.539H537.863V111.85h5.545c1.722,0,2.487-1.339,2.487-3.347v-59.2c0-1.913-.765-3.06-2.679-3.06h-5.353V42.325h28.116L596.2,94.445V49.785c0-2.582-.573-3.539-2.868-3.539h-5.164V42.325H612.36v3.921h-3.92c-2.966,0-3.443,1.435-3.443,3.347v65.8H588.835L554.694,56.765v51.642c0,2.1.956,3.443,2.486,3.443H563.4Zm96.971-7.364v8.033c-4.591,3.06-13.006,4.782-19.892,4.782-17.215,0-29.073-10.328-29.073-26.585,0-17.215,12.53-27.161,28.4-27.161,19.8,0,24.481,13.772,24.481,29.265H629.67c0.381,10.9,4.973,17.118,14.918,17.118,9.564,0,14.92-4.5,15.78-5.452h0Zm-21.805-35c-7.555,0-9.085,10.615-9.085,16.162h17.5c0.382-7.078-1.436-16.162-8.417-16.162h0Zm54.129-4.3v3.537h-3.347c-3.251,0-2.774,2.392-2.39,4.113l5.929,26.395,9.657-34.045h13.1l9.849,32.8,6.217-26.2c0.384-1.433-.192-3.061-2.582-3.061H725.3V65.182h21.611v3.537H742.9c-1.625.1-2.774-.19-3.919,4.113l-10.617,42.557h-15.3l-8.511-32.037-8.8,32.037H680.261L669.072,73.5c-0.957-3.539-2.393-4.782-5.165-4.782H660.56V65.182h32.132Zm66.942,31.271c6.122,1.243,11.669,2.486,11.669,7.555,0,4.209-4.018,6.5-8.13,6.5-4.972,0-10.329-1.339-11.57-2.678-0.861-.86-1.626-3.634-1.914-6.311h-4.111V113c3.92,2.3,13.2,3.826,21.134,3.826,15.589,0,22.475-8.32,22.475-18.553,0-8.8-6.5-13.676-16.258-15.588-6.886-1.339-11.381-2.774-11.381-7.174,0-4.208,3.634-5.833,9.468-5.833,4.591,0,7.267,1.243,8.8,2.582,1.242,1.147,1.721,3.635,2.006,5.833h3.635V66.807A46.175,46.175,0,0,0,769.1,64.033c-14.248,0-23.812,6.313-23.812,16.736,0,10.9,6.886,14.154,14.344,15.684h0Z" transform="translate(0 -42.313)"/>
</svg>
