<svg xmlns="http://www.w3.org/2000/svg" viewBox="0 0 333.48 62.12"><defs><style>.cls-1{fill:#fff;}</style></defs><title>freep</title><g id="Layer_2" data-name="Layer 2"><g id="Layer_1-2" data-name="Layer 1"><path d="M162.56,54.77h2.06a2.23,2.23,0,1,1,0,4.43h-1.05V62h-1Zm2,3.58a1.37,1.37,0,1,0,0-2.73h-1v2.73Z"/><path d="M170,54.77h.91L173.81,62h-1.08L172,60.08H168.8L168.06,62H167s2.61-6.31,3-7.19m1.69,4.46L171,57.46c-.1-.27-.55-1.38-.55-1.47h0c0,.09-.44,1.17-.56,1.47l-.69,1.77Z"/><path d="M174.84,54.77h2.09a2.1,2.1,0,0,1,2.38,2.13,2,2,0,0,1-1.82,2l2.2,3H178.5L176.42,59h-.56V62h-1Zm2,3.43c.94,0,1.48-.5,1.48-1.29s-.54-1.29-1.48-1.29h-.95V58.2Z"/><polygon points="182.13 55.64 180.08 55.64 180.08 54.77 185.19 54.77 185.19 55.64 183.14 55.64 183.14 61.96 182.13 61.96 182.13 55.64"/><path d="M187.83,58.37a3.78,3.78,0,1,1,3.78,3.74,3.65,3.65,0,0,1-3.78-3.74m6.51,0a2.74,2.74,0,1,0-2.74,2.83,2.67,2.67,0,0,0,2.74-2.83"/><polygon points="196.85 54.77 200.48 54.77 200.48 55.64 197.87 55.64 197.87 57.95 200.4 57.95 200.4 58.83 197.87 58.83 197.87 61.96 196.85 61.96 196.85 54.77"/><polygon points="205.07 55.64 203.02 55.64 203.02 54.77 208.14 54.77 208.14 55.64 206.09 55.64 206.09 61.96 205.07 61.96 205.07 55.64"/><polygon points="209.2 54.77 210.22 54.77 210.22 57.72 213.99 57.72 213.99 54.77 215.01 54.77 215.01 61.96 213.99 61.96 213.99 58.59 210.22 58.59 210.22 61.96 209.2 61.96 209.2 54.77"/><polygon points="216.88 54.77 220.79 54.77 220.79 55.63 217.89 55.63 217.89 57.72 220.71 57.72 220.71 58.58 217.89 58.58 217.89 61.11 220.86 61.11 220.86 61.96 216.88 61.96 216.88 54.77"/><path d="M224.26,59.48V54.77h1v4.4c0,1.26.54,2,1.74,2s1.74-.77,1.74-2v-4.4h1v4.71a2.76,2.76,0,0,1-5.52,0"/><path d="M230.84,60.66l.69-.58a2.08,2.08,0,0,0,1.81,1.14,1.24,1.24,0,0,0,1.4-1.22c0-.85-.71-1.14-1.59-1.49s-1.81-.81-1.81-2a2,2,0,0,1,2.17-1.92,2.41,2.41,0,0,1,2.11,1.08l-.69.59a1.61,1.61,0,0,0-1.42-.78c-.7,0-1.16.35-1.16,1s.72,1,1.35,1.24c1,.4,2.06.88,2.06,2.21a2.18,2.18,0,0,1-2.4,2.18,2.81,2.81,0,0,1-2.52-1.45"/><path d="M239.26,54.77h.91l3,7.19H242l-.74-1.88h-3.18L237.36,62H236.3l3-7.19M241,59.23l-.68-1.77c-.1-.27-.55-1.38-.56-1.47h0c0,.09-.44,1.17-.55,1.47l-.7,1.77Z"/><polygon points="247.4 55.64 245.35 55.64 245.35 54.77 250.47 54.77 250.47 55.64 248.41 55.64 248.41 61.96 247.4 61.96 247.4 55.64"/><path d="M250.85,58.37a3.79,3.79,0,1,1,3.78,3.74,3.65,3.65,0,0,1-3.78-3.74m6.52,0a2.75,2.75,0,1,0-2.75,2.83,2.68,2.68,0,0,0,2.75-2.83"/><path d="M259.87,54.77h2.05c2.29,0,3.81,1.31,3.81,3.6S264.2,62,261.92,62h-2.05Zm1,6.32h.94a2.73,2.73,0,1,0,0-5.45h-.94Z"/><path d="M269,54.77h.9L272.88,62H271.8l-.74-1.88h-3.19L267.13,62h-1.06l3-7.19m1.69,4.46L270,57.46c-.1-.27-.54-1.38-.55-1.47h0c0,.09-.44,1.17-.55,1.47l-.7,1.77Z"/><path d="M274.91,59l-2.45-4.27h1.14l1.33,2.41a8.82,8.82,0,0,1,.51,1h0a10.78,10.78,0,0,1,.51-1l1.34-2.41h1.11L276,59V62h-1.06Z"/><path d="M281.4,54.77h.78l4.08,4.66c.12.14.66.8.71.9h0c0-.1,0-.93,0-1.11V54.77h1V62h-.79l-4.08-4.66c-.12-.13-.65-.8-.71-.9h0c0,.1,0,.93,0,1.12V62h-1Z"/><polygon points="289.82 54.77 293.74 54.77 293.74 55.63 290.84 55.63 290.84 57.72 293.66 57.72 293.66 58.58 290.84 58.58 290.84 61.11 293.8 61.11 293.8 61.96 289.82 61.96 289.82 54.77"/><polygon points="296.92 55.64 294.87 55.64 294.87 54.77 299.98 54.77 299.98 55.64 297.93 55.64 297.93 61.96 296.92 61.96 296.92 55.64"/><path d="M300.83,54.77h1.07L303.38,59c.05.17.4,1.23.41,1.4h0a12.4,12.4,0,0,1,.42-1.4l1.54-4.27h.81L308.13,59c.06.17.42,1.23.43,1.4h0c0-.17.37-1.23.42-1.4l1.47-4.27h1L309,62h-.78l-1.66-4.48c0-.16-.34-1-.35-1.17h0c0,.16-.31,1-.36,1.17L304.15,62h-.78Z"/><path d="M312,58.37a3.78,3.78,0,1,1,3.78,3.74A3.65,3.65,0,0,1,312,58.37m6.51,0a2.74,2.74,0,1,0-2.74,2.83,2.67,2.67,0,0,0,2.74-2.83"/><path d="M321,54.77h2.09a2.1,2.1,0,0,1,2.38,2.13,2,2,0,0,1-1.82,2l2.2,3h-1.19L322.56,59H322V62h-1Zm2,3.43c.94,0,1.48-.5,1.48-1.29s-.54-1.29-1.48-1.29H322V58.2Z"/><polygon points="326.98 54.77 328 54.77 328 58.11 330.97 54.77 332.2 54.77 329.12 58.2 332.34 61.96 331.07 61.96 328 58.33 328 61.96 326.98 61.96 326.98 54.77"/><path d="M128.87,33.07l-6.46,6.37-7.84-5.09,1-1.18V18.06H112l1.48-3.43h2.18V9.79l7.7-4.18.33.47c-.76.67-1,1.09-1,2.76v5.79h5.6l-1.61,3.43h-4V32.22l3.75,2.37,2-2,.48.47Z"/><polygon points="110 7.89 105.68 12.16 101.26 8.46 105.59 4.18 110 7.89 110 7.89"/><polygon points="113.71 33.5 107.44 39.44 102.07 35.07 102.92 34.02 102.92 20.1 101.17 18.72 99.79 20.01 99.31 19.53 105.39 13.78 110.77 18.15 109.91 19.1 109.91 33.17 111.67 34.5 113.24 33.02 113.71 33.5 113.71 33.5"/><path d="M80.64,15.16c0,2.18-1.85,4.85-4.52,4.85a5.24,5.24,0,0,1-3.84-1.29h-.1V32.88L75,34.78l1.9-1.85.48.47-6.27,6-6.9-4.56,1-1.05V20.34l-1.76-1.62L62.11,20l-.48-.53,6-5.61L72,18.25l3.28-4.38a4.53,4.53,0,0,0,5.27,1.19l.1.1Z"/><path d="M63.48,33.07,57,39.44l-7.84-5.09,1-1.18V18.06H46.57L48,14.63h2.19V9.79l7.69-4.18.34.47c-.76.67-1,1.09-1,2.76v5.79h5.61L61.2,18.06h-4V32.22L61,34.59l2-2,.47.47Z"/><path d="M13.36,10.41c-.82.42-1.15.95-1.15,2.42V23.9c0,1.8-1,3.26-3.42,4.52L3.47,31.17l-.38-.52C4.42,29.7,5,28.84,5,27.7V22.76H3.94c-1.28,0-1.8.66-1.8,2.57L2,25.42a4.35,4.35,0,0,1-1.81-3.8,3.67,3.67,0,0,1,3.8-3.94H5V16.06c0-1.76,1.2-3.73,4-4.7l4.09-1.43.29.48Z"/><path d="M98.79,18.91l-.76.86V32.5L86.2,39.44l-7.89-5.51,1-1V20.62l12.16-6.84,7.32,5.13Zm-7.74,17V20.48l-4.66-3.23h-.1v15.3l4.61,3.37.15-.05Z"/><path d="M48,22.09,38,27.66v4.65l4.8,2.95L46,32.36l.48.52-7.32,6.56-9-5.23.85-1V20.05l12.31-6.27L48,22.09Zm-6.18,2.66L38,17.11l-.1,0v9.79l3.85-2.19Z"/><path d="M28.37,32.41,17.44,39.72C15,37,12.35,35.64,9.79,35.64c-5.75,0-8.56,2-8.56,4.61,0,3.18,2.33,5.46,6.61,5.46,3.23,0,5.42-1.19,6.41-2.28L14.5,45a14.19,14.19,0,0,1-6.71,1.57C3.13,46.52,0,43.86,0,40c0-6.46,5.51-9.74,11.31-9.74a11.64,11.64,0,0,1,2.75.28V8.93a41.69,41.69,0,0,1-5,.52c-5,0-7.37-2.85-7.37-5.79A5.48,5.48,0,0,1,3.09,0l.47.23A5.13,5.13,0,0,0,3.47,1C3.47,2.8,4.7,3.32,8.7,3.32c3.7,0,7.22-1,10.69-1,5.51,0,9,3.28,9,9.17v21ZM21.14,34V13.21c0-3.85-.52-4.52-4.56-4.52-.52,0-1.47.1-1.95.15V30.6A14.54,14.54,0,0,1,21.05,34l.09-.05Z"/><path d="M186.6,15.16c0,2.18-1.85,4.85-4.51,4.85a5.27,5.27,0,0,1-3.85-1.29h-.09V32.88l2.85,1.9,1.9-1.85.47.47-6.27,6-6.89-4.56.95-1.05V20.34l-1.76-1.62L168.07,20l-.47-.53,6-5.61L178,18.25l3.28-4.38a5.16,5.16,0,0,0,3.19,1.57,4.94,4.94,0,0,0,2.09-.38l.09.1Z"/><path d="M221.15,22.09l-10,5.57v4.65l4.8,2.95,3.18-2.9.48.52-7.32,6.56-9-5.23.86-1V20.05l12.3-6.27,4.71,8.31ZM215,24.75l-3.75-7.64-.09,0v9.79L215,24.75Z"/><path d="M203,22.09l-10,5.57v4.65l4.8,2.95,3.18-2.9.48.52-7.32,6.56-9-5.23.86-1V20.05l12.3-6.27L203,22.09Zm-6.18,2.66-3.76-7.64-.09,0v9.79l3.85-2.19Z"/><path d="M172.49,3.61a7.17,7.17,0,0,1-7,5.46H165v7.51h2.47L165,21.67V39.44h-.57V21.67H161V29c0,6.28-2.86,10.55-10.79,10.55-4.56,0-6-2.51-8.7-2.51-3.61,0-4.82,1.14-4.82,2.36A1.72,1.72,0,0,0,138.51,41a3.17,3.17,0,0,0,1.19-.14l-.42,1.23a5.72,5.72,0,0,1-.58,0,2.94,2.94,0,0,1-3-3.15c0-3.63,2.76-5.63,6.42-5.63.22,0,.44,0,.66,0a3.32,3.32,0,0,0,1.9-2.9V21.67H143.6c-1.09,0-1.9.71-1.76,2.51l-.09.06a3.84,3.84,0,0,1-2-3.62,3.78,3.78,0,0,1,4-4h.95V11.45c6.42-1.66,14.21-4.23,18.39-9.55a11.5,11.5,0,0,0,6.42,2.32,5.37,5.37,0,0,0,2.9-.71l.09.1Zm-8.08,13V9a9.73,9.73,0,0,1-3.51-1.57v9.12ZM153.68,30.46V9.26c-.58.24-1.19.48-1.86.72V24.81a7.64,7.64,0,0,1-4.7,7.36l-2.9,1.38v.09c2,.52,4,4.33,6.13,4.33s3.33-1.38,3.33-7.51Z"/><path d="M279.65,15.16c0,2.18-1.86,4.85-4.52,4.85a5.27,5.27,0,0,1-3.85-1.29h-.09V32.88l2.84,1.9,1.91-1.85.48.47-6.28,6-6.93-4.56,1-1.05V20.34l-1.76-1.62L261.11,20l-.47-.53,6-5.61L271,18.25l3.28-4.38a5.16,5.16,0,0,0,3.19,1.57,5.1,5.1,0,0,0,2.09-.38l.1.1Z"/><path d="M333.48,12.83a3.09,3.09,0,0,1-.66,1.71L327,22.85l5.46,3.23v7.8l-8.84,5.65a7.17,7.17,0,0,0-4.74-1.37,5.71,5.71,0,0,0-3.66,1.33l-.48-.29c1.9-2.71,6.23-9,6.23-9l-5.42-3.32V20l11.12-6.09a4,4,0,0,0,3,1.43c1.76,0,2.76-.9,2.76-2a1.78,1.78,0,0,0-.19-.95l1-.48a3,3,0,0,1,.19,1Zm-4.13,5.51-.05-.05a4.62,4.62,0,0,1-2.23.48,7.11,7.11,0,0,1-4.57-1.47v7.51l1.62,1c1.52-2.14,3.75-5.37,5.23-7.46ZM325.4,35V28.84l-1.85-1.14c-1.85,2.61-5.41,7.84-5.41,7.84a8.26,8.26,0,0,1,4.18-1.28,7.18,7.18,0,0,1,3.08.71Z"/><path d="M315.18,12.78a3.15,3.15,0,0,1-.65,1.71l-5.8,8.32L314.19,26v7.79l-8.84,5.66a7.15,7.15,0,0,0-4.75-1.38,5.71,5.71,0,0,0-3.66,1.33l-.47-.29c1.9-2.71,6.22-9,6.22-9l-5.42-3.33V19.91l11.13-6.08a4,4,0,0,0,3,1.42c1.75,0,2.75-.9,2.75-2a1.69,1.69,0,0,0-.19-1l1-.48a3,3,0,0,1,.19,1Zm-4.13,5.51,0,0a4.75,4.75,0,0,1-2.24.47,7.08,7.08,0,0,1-4.56-1.47v7.5l1.62,1c1.52-2.14,3.75-5.38,5.22-7.47Zm-3.94,16.64V28.8l-1.86-1.14c-1.85,2.61-5.41,7.84-5.41,7.84A8.2,8.2,0,0,1,304,34.21a7.1,7.1,0,0,1,3.09.72Z"/><path d="M295.94,22.09l-10,5.57v4.65l4.8,2.95,3.19-2.9.47.52-7.31,6.56-9-5.23.85-1V20.05l12.31-6.27,4.7,8.31Zm-6.17,2.66L286,17.11l-.09,0v9.79l3.85-2.19Z"/><path d="M258.83,32.55l-10.45,7.17a16.86,16.86,0,0,0-2.76-2.23v9h-.57V37.16a15.09,15.09,0,0,0-1.94-.67v9.94H243l-2.13-1.86L236,47.13h-.14V36.21c-2.71.14-4.51,1.23-7.18,3.23l-.14-.14c.1-4.52,2.19-8.17,7.32-9.08V22.71h-1.09c-1.71,0-1.81,1.62-1.76,2.57l-.14,0a4.11,4.11,0,0,1-2-3.81,3.94,3.94,0,0,1,4.18-3.89h.81V12l-4.09-4L230,9.69l-.42-.43,7-6.84L243.11,9l1.94-1.76V2.56h.57V6.79l5-4.32c4.27.85,8.17,3.9,8.17,9.46V32.55Zm-7.22,1.52V13.54c0-3.13-1.76-5.08-5.7-6.13l-.29.19v23a15.39,15.39,0,0,1,5.94,3.52Zm-6.56-3.66V8.12l-1.94,1.67V30.12a12.54,12.54,0,0,1,1.94.29Z"/><polygon class="cls-1" points="126.54 16.68 122.6 16.68 122.6 17.39 126.21 17.39 126.54 16.68 126.54 16.68"/><polygon class="cls-1" points="117.04 14.63 117.04 9.79 116.23 10.26 116.23 14.63 117.04 14.63 117.04 14.63"/><polygon class="cls-1" points="122.88 38.01 116.66 33.93 117.04 33.5 117.04 16.68 113.24 16.68 112.9 17.39 116.23 17.39 116.23 33.36 115.47 34.16 122.31 38.58 122.88 38.01 122.88 38.01"/><polygon class="cls-1" points="216.51 24.04 212.76 16.49 211.88 16.87 215.64 24.42 216.51 24.04 216.51 24.04"/><polygon class="cls-1" points="212.84 38.11 205.18 33.64 205.72 33.22 205.72 20.05 204.76 20.48 204.76 33.36 204.18 34.02 212.21 38.68 212.84 38.11 212.84 38.11"/><polygon class="cls-1" points="198.35 24.04 194.6 16.49 193.73 16.87 197.49 24.42 198.35 24.04 198.35 24.04"/><path class="cls-1" d="M184.66,18.34l0-.05a10,10,0,0,1-2,.36,5.91,5.91,0,0,1-3.24-1l-.57.62a4.87,4.87,0,0,0,3.57,1.09,3.48,3.48,0,0,0,2.33-1Z"/><polygon class="cls-1" points="194.68 38.11 187.03 33.64 187.57 33.22 187.57 20.05 186.6 20.48 186.6 33.36 186.03 34.02 194.06 38.68 194.68 38.11 194.68 38.11"/><path class="cls-1" d="M169,7.46v-.1a7.33,7.33,0,0,1-2.7.48,7.44,7.44,0,0,1-5.52-2.66l-.71.57a7.88,7.88,0,0,0,5.42,2.71,5.34,5.34,0,0,0,3.51-1Z"/><polygon class="cls-1" points="177.67 38.01 172.2 34.54 172.74 34.07 172.74 19.67 170.49 17.72 169.88 18.29 171.78 20.01 171.78 34.07 171.12 34.73 177.05 38.63 177.67 38.01 177.67 38.01"/><polygon class="cls-1" points="165.28 20.2 161.1 20.2 160.95 21 164.75 21 165.28 20.2 165.28 20.2"/><path class="cls-1" d="M155.26,32V8.65l-1,.33V31.36a13.38,13.38,0,0,1-.8,5.23h.09A7.3,7.3,0,0,0,155.26,32Z"/><polygon class="cls-1" points="146.27 16.58 146.27 11.74 145.31 11.93 145.31 16.58 146.27 16.58 146.27 16.58"/><path class="cls-1" d="M146.27,28.7V20.2h-2.48c-1.12,0-1.89.43-2,1.56l.09,0a1.7,1.7,0,0,1,1.66-.81h1.76v8.84a5.08,5.08,0,0,1-.14,1.23l.09.06a3.87,3.87,0,0,0,1-2.43Z"/><path class="cls-1" d="M148.73,39v-.09a16.26,16.26,0,0,1-3-1.76,6.82,6.82,0,0,0-4-1.43,4.3,4.3,0,0,0-3,1v.15a8.14,8.14,0,0,1,2.71-.43,8,8,0,0,1,4,1.38A10.74,10.74,0,0,0,148.73,39Z"/><path class="cls-1" d="M329.06,17.72l0,0c-1.38.09-3.9.23-5.28-1.43l-.81.48A5.69,5.69,0,0,0,327,18.15a4.94,4.94,0,0,0,2-.43Z"/><polygon class="cls-1" points="321.79 29.08 317 26.04 317 19.96 316.18 20.38 316.18 26.51 321.32 29.75 321.79 29.08 321.79 29.08"/><polygon class="cls-1" points="326.83 36.02 326.83 28.03 324.41 26.51 323.93 27.13 326.02 28.46 326.02 35.35 326.83 36.02 326.83 36.02"/><path class="cls-1" d="M310.77,17.68l0-.05c-1.38.09-3.9.24-5.27-1.43l-.81.48a6.05,6.05,0,0,0,4.24,1.42,4.4,4.4,0,0,0,1.89-.42Z"/><path class="cls-1" d="M324.41,38.3A5.47,5.47,0,0,0,320.79,37a6.66,6.66,0,0,0-3,.57v.09c.42,0,.9-.08,1.33-.09a6.82,6.82,0,0,1,4.55,1.23l.77-.47Z"/><polygon class="cls-1" points="303.5 29.03 298.86 25.99 298.86 19.91 297.89 20.34 297.89 26.47 303.02 29.7 303.5 29.03 303.5 29.03"/><polygon class="cls-1" points="308.54 35.97 308.54 27.99 306.11 26.47 305.63 27.09 307.73 28.41 307.73 35.3 308.54 35.97 308.54 35.97"/><polygon class="cls-1" points="291.3 24.04 287.55 16.49 286.68 16.87 290.43 24.42 291.3 24.04 291.3 24.04"/><path class="cls-1" d="M306.11,38.25a5.42,5.42,0,0,0-3.61-1.33,6.85,6.85,0,0,0-3,.57v.1c.43-.05.9-.09,1.33-.1a6.85,6.85,0,0,1,4.56,1.24l.76-.48Z"/><path class="cls-1" d="M277.69,18.34l0-.05a11.58,11.58,0,0,1-2,.38,6.11,6.11,0,0,1-3.24-1l-.57.62a4.87,4.87,0,0,0,3.57,1.09,3.4,3.4,0,0,0,2.32-1Z"/><polygon class="cls-1" points="287.63 38.11 279.98 33.64 280.51 33.22 280.51 20.05 279.55 20.48 279.55 33.36 278.98 34.02 287.01 38.68 287.63 38.11 287.63 38.11"/><polygon class="cls-1" points="270.71 38.01 265.25 34.54 265.78 34.07 265.78 19.67 263.54 17.72 262.92 18.29 264.82 20.01 264.82 34.07 264.16 34.73 270.09 38.63 270.71 38.01 270.71 38.01"/><path class="cls-1" d="M253,35.45V13.35c0-4.09-2-5.6-5.94-7l-.67.57c3.71,1.18,5.8,3,5.8,6.46V34.64l.81.81Z"/><polygon class="cls-1" points="237.31 17.68 237.46 11.31 233.09 6.94 232.31 7.55 236.5 11.69 236.5 17.68 237.31 17.68 237.31 17.68"/><path class="cls-1" d="M237.46,30.08V21.29h-2.91c-1.14,0-1.52.47-1.57,1.52l.1,0c.29-.38.23-.76,1.28-.76h2.14v8l1,0Z"/><path class="cls-1" d="M249,38.63a9.69,9.69,0,0,0-5.89-3.52v.81A10,10,0,0,1,248.42,39l.58-.38Z"/><path class="cls-1" d="M237.46,45.8v-11h-1.39a6.74,6.74,0,0,0-5.65,2.57l0,.09a9.84,9.84,0,0,1,6-1.85V46.19l1-.39Z"/><polygon class="cls-1" points="106.2 10.78 102.83 7.89 102.26 8.41 105.68 11.36 106.2 10.78 106.2 10.78"/><polygon class="cls-1" points="107.96 38.01 103.92 34.73 104.35 34.21 104.35 19.39 102.21 17.68 101.64 18.25 103.54 19.72 103.54 34.21 102.92 34.92 107.39 38.58 107.96 38.01 107.96 38.01"/><polygon class="cls-1" points="92.47 35.02 92.47 19.77 87.91 16.54 87.15 16.96 91.66 20.1 91.66 35.5 92.47 35.02 92.47 35.02"/><path class="cls-1" d="M78.69,18.34l0-.05a11.41,11.41,0,0,1-2,.38,5.08,5.08,0,0,1-3.23-1l-.57.62a4.84,4.84,0,0,0,3.56,1.09,3.42,3.42,0,0,0,2.33-1Z"/><polygon class="cls-1" points="86.96 38.25 80.31 33.59 80.73 33.22 80.73 20.57 79.92 21.05 79.92 33.17 79.21 33.84 86.2 38.73 86.96 38.25 86.96 38.25"/><polygon class="cls-1" points="61.16 16.68 57.21 16.68 57.21 17.39 60.82 17.39 61.16 16.68 61.16 16.68"/><polygon class="cls-1" points="71.71 38.01 66.24 34.54 66.62 34.07 66.62 19.67 64.53 17.72 63.91 18.29 65.81 20.01 65.81 34.07 65.15 34.73 71.09 38.63 71.71 38.01 71.71 38.01"/><polygon class="cls-1" points="51.65 14.63 51.65 9.79 50.84 10.26 50.84 14.63 51.65 14.63 51.65 14.63"/><polygon class="cls-1" points="57.5 38.01 51.27 33.93 51.65 33.5 51.65 16.68 47.85 16.68 47.52 17.39 50.84 17.39 50.84 33.36 50.08 34.16 56.93 38.58 57.5 38.01 57.5 38.01"/><polygon class="cls-1" points="43.15 24.04 39.39 16.49 38.68 16.87 42.43 24.42 43.15 24.04 43.15 24.04"/><polygon class="cls-1" points="39.63 38.11 31.98 33.64 32.36 33.22 32.36 20.05 31.55 20.48 31.55 33.36 30.98 34.02 39.01 38.68 39.63 38.11 39.63 38.11"/><path class="cls-1" d="M22.57,35.3V12.16c0-3.7-1.43-4.89-5.8-4.89-3.32,0-4.94.71-7.84.71C5.6,8,2.61,6.51,2.52,2.71l-.1,0a4.15,4.15,0,0,0-.09,1c0,1.61.85,5.13,6.7,5.13,2.18,0,4.7-.71,7.55-.71,4.28,0,5.18.85,5.18,4.84V34.45l.81.85Z"/><path class="cls-1" d="M7.65,12.83l-.05-.1a3.87,3.87,0,0,0-2,3.57v1.38h.82V15.77a3.92,3.92,0,0,1,1.23-2.94Z"/><path class="cls-1" d="M6.42,27.51V21.29H3.7a1.51,1.51,0,0,0-1.56,1.56l0,0a1.53,1.53,0,0,1,1.47-.81H5.6V27.7a2.93,2.93,0,0,1-.42,1.57l.09.05a2,2,0,0,0,1.15-1.81Z"/><path class="cls-1" d="M18.2,38.39c-2.52-2.52-5.18-4-8.13-4a7.65,7.65,0,0,0-4,.95l-.09.1A17.33,17.33,0,0,1,10,35c2.71,0,5.37,1.52,7.55,4l.67-.53Z"/></g></g></svg>