<svg xmlns="http://www.w3.org/2000/svg" xmlns:xlink="http://www.w3.org/1999/xlink" width="717.75" height="117.375" viewBox="0 0 717.75 117.375">
  <defs>
    <style>
      .cls-1 {
        filter: url(#filter);
      }

      .cls-2, .cls-3 {
        fill: #fff;
        fill-rule: evenodd;
      }

      .cls-2 {
        filter: url(#filter-2);
      }

      .cls-3 {
        filter: url(#filter-3);
      }
    </style>
    <filter id="filter" filterUnits="userSpaceOnUse">
      <feFlood result="flood" flood-color="#333"/>
      <feComposite result="composite" operator="in" in2="SourceGraphic"/>
      <feBlend result="blend" in2="SourceGraphic"/>
    </filter>
    <filter id="filter-2" x="1.125" y="0.594" width="717.75" height="101.718" filterUnits="userSpaceOnUse">
      <feFlood result="flood" flood-color="#fff"/>
      <feComposite result="composite" operator="in" in2="SourceGraphic"/>
      <feBlend result="blend" in2="SourceGraphic"/>
    </filter>
    <filter id="filter-3" x="43" y="101.969" width="367.969" height="16" filterUnits="userSpaceOnUse">
      <feFlood result="flood" flood-color="#999"/>
      <feComposite result="composite" operator="in" in2="SourceGraphic"/>
      <feBlend result="blend" in2="SourceGraphic"/>
    </filter>
  </defs>
  <g class="cls-1">
    <path id="Detroit_Freep_logo" data-name="Detroit Freep logo" class="cls-2" d="M273.066,75.234l-8.079-5.127V39.551h8.59l3.478-7.384H264.987V19.656c0-3.589.613-4.512,2.249-5.947l-0.715-1.026-16.569,9.024V32.167h-4.7l-3.17,7.384h7.875V72.158l-2.25,2.564,16.875,10.973,13.91-13.741-1.023-1.026Zm-8.079-38.657h8.488l-0.715,1.538h-7.773V36.577ZM251.282,22.733l1.738-1.025V32.167h-1.738V22.733Zm13.09,61.115L249.645,74.31l1.637-1.742V38.115h-7.16l0.716-1.538h8.182v36.3L252.2,73.8l13.4,8.819ZM237.883,17.606l-9.512-8-9.307,9.229,9.512,8Zm-15.444,0,7.262,6.255-1.125,1.231-7.364-6.358ZM241.463,75.03l-3.784-2.872V41.806l1.841-2.051-11.558-9.434L214.871,42.729l1.023,1.025,2.966-2.77,3.784,2.974V74L220.8,76.259l11.558,9.435,13.5-12.819-1.023-1.024Zm-9.2,8.818-9.614-7.9,1.33-1.538V43.14l-4.092-3.179,1.228-1.231,4.6,3.691V74.415l-0.921,1.128,8.694,7.076Zm-69.65-8.2-6.136-4.1V40.985h0.2c2.251,1.745,3.989,2.77,8.285,2.77,5.728,0,9.716-5.743,9.716-10.459l-0.2-.205a9.76,9.76,0,0,1-11.353-2.564l-7.057,9.434-9.308-9.434-12.989,12.1,1.023,1.127,2.864-2.77,3.784,3.487V73.594l-2.046,2.255,14.831,9.846,13.5-13.024L166.7,71.645Zm-3.579-37.017a10.881,10.881,0,0,0,6.955,2.255,25.958,25.958,0,0,0,4.4-.819l0.1,0.1a7.413,7.413,0,0,1-5.012,2.153c-3.886,0-5.625-.717-7.671-2.358Zm-4.91,45.324-12.784-8.409,1.432-1.436V43.755l-4.091-3.691,1.329-1.231,4.5,4.2v31.07l-0.818,1.025,11.761,7.486Zm-21.784-8.717-8.08-5.127V39.551h8.592l3.476-7.384H124.255V19.656c0-3.589.614-4.512,2.25-5.947l-0.716-1.026-16.568,9.024V32.167h-4.7l-3.17,7.384h7.875V72.158l-2.25,2.564,16.875,10.973,13.909-13.741-1.023-1.026Zm-8.08-38.657h8.489l-0.716,1.538h-7.773V36.577Zm-13.7-13.844,1.738-1.025V32.167h-1.738V22.733Zm13.09,61.115L108.914,74.31l1.637-1.742V38.115h-7.159l0.716-1.538h8.181v36.3l-0.818.923,13.4,8.819Zm48.173-38.762V71.747L169.666,73.8l16.978,11.9,25.465-14.973V43.242l1.637-1.847L198,30.321Zm14.83,39.07L171.609,73.594l1.534-1.436V46.01l1.739-1.025V72.26l-0.921.821,14.319,10.05ZM197.076,78l-0.307.1-9.921-7.281V37.806h0.2l10.023,6.974V78Zm3.067-1.846L198.4,77.183V43.959l-9.715-6.767,1.637-.923,9.817,6.974V76.157ZM104.312,48.265L94.187,30.321,67.7,43.857V72.364l-1.841,2.051L85.289,85.694l15.75-14.152-1.022-1.127L93.164,76.67,82.834,70.311V60.263ZM85.9,36.166l8.08,16.3-1.534.82-8.08-16.3Zm0.511,46.656-1.33,1.231L67.8,74l1.227-1.436V44.78l1.739-.923v28.4l-0.818.923Zm-3.682-24.1V37.6l0.2-.1,8.08,16.509ZM5.309,55.442l0.408-.2c0-4.1,1.126-5.538,3.887-5.538h2.25V60.365c0,2.462-1.227,4.307-4.091,6.358l0.818,1.128L20.037,61.9c5.187-2.694,7.364-5.845,7.364-9.742V28.27c0-3.179.716-4.307,2.455-5.23l-0.614-1.025-8.8,3.076c-6,2.1-8.591,6.358-8.591,10.152V38.73H9.605c-4.5,0-8.182,3.076-8.182,8.51A9.407,9.407,0,0,0,5.309,55.442Zm7.875-19.687a8.3,8.3,0,0,1,4.3-7.691l0.1,0.205a8.489,8.489,0,0,0-2.659,6.358v4.1H13.185V35.756ZM9.094,46.522h5.83V59.955a4.351,4.351,0,0,1-2.455,3.9l-0.2-.1a6.22,6.22,0,0,0,.92-3.385v-12.1H8.991a3.308,3.308,0,0,0-3.171,1.744l-0.1-.1A3.284,3.284,0,0,1,9.094,46.522ZM42.844,5.505c-7.467,0-15.034,2.256-23.012,2.256-8.591,0-11.251-1.128-11.251-4.923a11.539,11.539,0,0,1,.2-1.742L7.764,0.583A11.837,11.837,0,0,0,4.7,8.479c0,6.358,5.012,12.511,15.854,12.511A88.67,88.67,0,0,0,31.39,19.861V66.416a25.1,25.1,0,0,0-5.933-.615C12.98,65.8,1.116,72.876,1.116,86.822c0,8.41,6.751,14.151,16.773,14.151a30.321,30.321,0,0,0,14.42-3.385L31.8,94.307c-2.148,2.358-6.852,4.923-13.807,4.923-9.206,0-14.217-4.923-14.217-11.793,0-5.538,6.034-9.946,18.41-9.946,5.523,0,11.147,2.87,16.466,8.818L62.173,70.517V25.3C62.173,12.581,54.708,5.505,42.844,5.505Zm-3.989,79.06c-4.7-5.23-10.431-8.511-16.26-8.511a37.72,37.72,0,0,0-8.694.922l0.2-.205A16.308,16.308,0,0,1,22.8,74.721c6.341,0,12.067,3.281,17.488,8.716ZM46.628,73.9l-0.2.1A31.273,31.273,0,0,0,32.616,66.62V19.656c1.023-.1,3.068-0.308,4.193-0.308,8.694,0,9.819,1.436,9.819,9.742V73.9Zm3.069,2.87-1.739-1.846V28.476c0-8.614-1.944-10.459-11.148-10.459-6.136,0-11.556,1.537-16.261,1.537-12.58,0-14.421-7.588-14.421-11.075a8.447,8.447,0,0,1,.2-2.154l0.2,0.1c0.2,8.2,6.648,11.382,13.807,11.382,6.239,0,9.716-1.538,16.875-1.538,9.41,0,12.479,2.564,12.479,10.562V76.772ZM384.751,40.985c2.25,1.745,3.988,2.77,8.286,2.77,5.726,0,9.716-5.743,9.716-10.459l-0.206-.205a10.771,10.771,0,0,1-4.5.82,11.034,11.034,0,0,1-6.853-3.384l-7.058,9.434-9.306-9.434-12.99,12.1,1.023,1.127,2.864-2.77,3.784,3.487V73.594l-2.046,2.255L382.3,85.694,395.8,72.67l-1.023-1.026-4.092,4-6.135-4.1V40.985h0.2Zm2.353-2.357c1.627,1.468,5.228,2.207,6.954,2.207a21.988,21.988,0,0,0,4.4-.771l0.1,0.1a7.412,7.412,0,0,1-5.011,2.153c-3.887,0-5.627-.717-7.672-2.358ZM382.2,83.951L369.41,75.542l1.432-1.436V43.755l-4.091-3.691,1.331-1.231,4.837,4.2v31.07l-1.156,1.025,11.76,7.486Zm94.911-35.686L466.981,30.321,440.49,43.857V72.364l-1.839,2.051,19.431,11.279,15.751-14.152-1.022-1.127-6.853,6.255-10.331-6.359V60.263Zm-18.074-12.1,8.081,16.3-1.872.82-8.081-16.3Zm0.174,46.656-1.329,1.231L440.594,74l1.226-1.436V44.78l2.077-.923v28.4l-1.156.923Zm-3.682-24.1V37.6l0.206-.1,8.079,16.509ZM438.037,48.265L427.911,30.321,401.422,43.857V72.364l-1.842,2.051,19.432,11.279,15.753-14.152-1.024-1.127-6.852,6.255L416.56,70.311V60.263Zm-18.073-12.1,8.08,16.3-1.871.82-8.081-16.3Zm0.174,46.656-1.329,1.231L401.524,74l1.229-1.436V44.78l2.075-.923v28.4l-1.157.923Zm-3.681-24.1V37.6l0.2-.1,8.08,16.509ZM356.216,20.169h1.023c7.3,0,13.092-4.614,15.136-11.792l-0.2-.205A11.521,11.521,0,0,1,365.931,9.7c-5.214,0-10.694-2.607-13.806-5.018-9,11.485-25.774,17.023-39.58,20.612V36.372H310.5c-5.114,0-8.591,3.384-8.591,8.715,0,4,2.147,6.974,4.295,7.794l0.206-.1c-0.308-3.9,1.431-5.434,3.784-5.434h2.352V66.21a7.187,7.187,0,0,1-4.092,6.256c-0.484-.029-0.961-0.033-1.432-0.033-7.865,0-13.807,4.3-13.807,12.133,0,4.307,2.926,6.808,6.444,6.808a12.22,12.22,0,0,0,1.227-.04l0.92-2.667a6.461,6.461,0,0,1-2.557.309c-2.352,0-4.032-1.541-4.032-3.4,0-2.651,2.6-5.112,10.374-5.112,5.829,0,8.9,5.434,18.716,5.434,17.08,0,23.217-9.229,23.217-22.765V47.343h7.467V85.694h1.226V47.343l5.318-10.971h-5.318v-16.2Zm-42.342,6.153,2.076-.411v10.46h-2.076V26.322ZM310.09,45.908a3.679,3.679,0,0,0-3.58,1.742l-0.2-.1c0.226-2.43,1.87-3.383,4.3-3.383h5.348V62.518c-0.337,2.257-1.053,4.41-2.178,5.23l-0.2-.1a10.578,10.578,0,0,0,.307-2.666V45.908H310.09Zm11.149,38.761a23.092,23.092,0,0,1-6.955-2.563c-3.171-1.745-5.523-2.974-8.694-2.974a17.858,17.858,0,0,0-5.83.923V79.746a9.216,9.216,0,0,1,6.443-2.153,14.675,14.675,0,0,1,8.623,3.076,33.829,33.829,0,0,0,6.413,3.793v0.206Zm3.476-2.155c-4.5,0-8.8-8.2-13.193-9.331v-0.2L317.761,70c6.089-2.9,10.124-7.9,10.124-15.895V22.117q2.149-.768,3.99-1.538V66.314C331.875,79.542,329.523,82.514,324.715,82.514Zm10.566-12.92c-0.338,3.487-.747,6.665-3.611,9.948h-0.205c1.023-2.565,1.74-5.64,1.74-11.28v-48.3l2.076-.718V69.594Zm10.3-56.6,1.534-1.231A15.934,15.934,0,0,0,358.979,17.5a16.036,16.036,0,0,0,5.828-1.026v0.205c-2.148,1.435-3.785,2.153-7.568,2.153C353.148,18.836,348.647,16.375,345.579,12.991Zm1.842,23.38V16.683a21.068,21.068,0,0,0,7.569,3.384v16.3h-7.569Zm9.439,7.794-1.155,1.742h-8.182l0.338-1.742h9Zm228.146-3.181c2.248,1.745,3.988,2.77,8.284,2.77,5.728,0,9.717-5.743,9.717-10.459l-0.2-.205a9.761,9.761,0,0,1-11.354-2.564l-7.057,9.434-9.308-9.434L562.1,42.627l1.024,1.127,2.863-2.77,3.783,3.487V73.594l-2.147,2.255,14.931,9.846,13.5-13.024-1.023-1.026-4.091,4-6.137-4.1V40.985h0.2Zm2.352-2.357c1.636,1.436,5.2,2.255,6.956,2.255a25.933,25.933,0,0,0,4.4-.819l0.1,0.1a7.406,7.406,0,0,1-5.011,2.153c-3.886,0-5.624-.717-7.669-2.358Zm-4.909,45.324-12.785-8.409,1.431-1.436V43.755l-4.09-3.691,1.331-1.231,4.837,4.2v31.07l-1.158,1.025,11.764,7.486ZM718.886,28.27a6.676,6.676,0,0,0-.411-2.153l-2.249,1.025a3.841,3.841,0,0,1,.408,2.051c0,2.46-2.147,4.409-5.931,4.409a8.605,8.605,0,0,1-6.443-3.076L680.326,43.652V58.623L691.987,65.8s-9.309,13.535-13.4,19.381L679.61,85.8a12.279,12.279,0,0,1,7.877-2.872c4.294,0,6.852.616,10.227,2.974l19.023-12.2V56.879l-11.762-6.973,12.477-17.944A6.643,6.643,0,0,0,718.886,28.27Zm-20.968,7.383c2.967,3.589,8.387,3.282,11.352,3.076l0.1,0.1a10.761,10.761,0,0,1-4.4.922c-3.068,0-6.443-.718-8.8-3.076ZM681.656,57.8V44.575l1.74-.922V56.776l10.33,6.563L692.7,64.775Zm16.058,26.456c-2.557-2.051-5.929-2.749-9.819-2.666-0.921.019-1.944,0.1-2.863,0.2v-0.2a14.549,14.549,0,0,1,6.545-1.232,11.68,11.68,0,0,1,7.773,2.872Zm3.783-8.2a15.371,15.371,0,0,0-6.648-1.538,17.814,17.814,0,0,0-9,2.768s7.669-11.279,11.658-16.919l3.988,2.462V76.055Zm3.069,2.256-1.739-1.437V62.006l-4.5-2.871L699.35,57.8l5.216,3.281V78.311Zm-5.829-22.047-3.478-2.154V37.91c2.25,2.051,6.136,3.178,9.818,3.178a10.093,10.093,0,0,0,4.808-1.024l0.1,0.1C706.817,44.676,702.011,51.649,698.737,56.264Zm-19.229-28.1a6.77,6.77,0,0,0-.408-2.155l-2.25,1.026a3.85,3.85,0,0,1,.408,2.051c0,2.461-2.148,4.41-5.932,4.41a8.609,8.609,0,0,1-6.444-3.077L640.951,43.549V58.52L652.61,65.7s-9.307,13.536-13.4,19.381l1.023,0.616a12.271,12.271,0,0,1,7.876-2.872c4.294,0,6.852.615,10.226,2.974l19.024-12.2V56.776L665.6,49.8l12.477-17.945A6.63,6.63,0,0,0,679.508,28.168Zm-20.966,7.383c2.966,3.589,8.386,3.281,11.352,3.076l0.1,0.1a9.137,9.137,0,0,1-4.06.923c-3.068,0-6.781-.718-9.134-3.076ZM642.28,57.7V44.472l2.077-.922V56.674l9.991,6.563-1.024,1.435Zm16.057,26.456c-2.556-2.051-5.929-2.751-9.818-2.666-0.921.019-1.943,0.1-2.863,0.2v-0.2a14.534,14.534,0,0,1,6.544-1.232,11.669,11.669,0,0,1,7.772,2.872Zm3.785-8.2a15.37,15.37,0,0,0-6.648-1.538,17.824,17.824,0,0,0-9,2.768s7.67-11.279,11.659-16.919l3.989,2.461V75.953Zm3.067,2.255-1.739-1.436V61.9l-4.5-2.871,1.02-1.333,5.217,3.28V78.208Zm-5.83-22.046-3.477-2.153v-16.2c2.251,2.051,6.137,3.178,9.819,3.178a10.074,10.074,0,0,0,4.806-1.024l0.1,0.1C667.44,44.575,662.633,51.547,659.359,56.162Zm-21.271-7.9L627.962,30.321l-26.49,13.536V72.364l-1.841,2.051,19.434,11.279,15.75-14.152-1.024-1.127-6.852,6.255-10.33-6.359V60.263Zm-18.073-12.1,8.08,16.3-1.872.82-8.08-16.3Zm0.173,46.656-1.329,1.231L601.575,74l1.228-1.436V44.78l2.075-.923v28.4l-1.156.923Zm-3.682-24.1V37.6l0.205-.1,8.081,16.509ZM540.619,5.915l-10.842,9.331V6.121h-1.226V16.17l-4.2,3.794L510.447,5.813,495.31,20.58l0.92,0.923,3.784-3.59,8.8,8.614v12.1h-1.74c-4.4,0-9,2.871-9,8.408,0,4.512,2.046,6.767,4.3,8.2l0.307-.1c-0.1-2.051.1-5.538,3.784-5.538h2.353V65.8c-11.046,1.948-15.547,9.844-15.752,19.585l0.307,0.308c5.729-4.307,9.614-6.665,15.445-6.974v23.586h0.307l10.432-5.538,4.6,4h0.2V79.335a33.373,33.373,0,0,1,4.2,1.436v20.1h1.226V81.491a37.018,37.018,0,0,1,5.932,4.819l22.5-15.484v-44.5C558.21,14.325,549.824,7.761,540.619,5.915Zm-28.4,93.519-2.077.822V77.491a21.045,21.045,0,0,0-12.988,4l-0.1-.206a14.5,14.5,0,0,1,12.169-5.537h3V99.434Zm0-33.942-2.077.1V48.265h-4.6c-2.25,0-2.148.821-2.761,1.641l-0.206-.1c0.1-2.256.921-3.282,3.376-3.282h6.27v18.97ZM511.88,38.73h-1.74V25.809l-9-8.921,1.668-1.334,9.409,9.433Zm12.476-17.022,4.2-3.589V66.21a25.87,25.87,0,0,0-4.2-.616V21.707Zm11.456,63.063a21.366,21.366,0,0,0-11.456-6.665V76.362a20.648,20.648,0,0,1,12.682,7.589Zm6.852-10.664h-0.1a32.955,32.955,0,0,0-12.785-7.589V16.99l0.615-.41c8.488,2.255,12.272,6.46,12.272,13.228v44.3Zm3.069,2.974-1.739-1.745V29.5c0-7.383-4.5-11.382-12.479-13.946l1.432-1.23c8.573,2.978,12.786,6.25,12.786,15.074V77.08Z" transform="translate(-1.125 -0.594)"/>
    <path id="USAT_Network" data-name="USAT Network" class="cls-3" d="M42.989,102.273h4.489c3.156,0,5.268,1.865,5.268,4.741s-2.155,4.735-5.268,4.735H45.188v5.925h-2.2v-15.4Zm4.267,7.659c2.112,0,3.244-1.163,3.244-2.918,0-1.736-1.132-2.919-3.244-2.919H45.188v5.837h2.067Zm11.768-7.659H60.98l6.4,15.4H65.022l-1.6-4.035H56.513l-1.6,4.035H52.6S58.244,104.162,59.024,102.273Zm3.665,9.544L61.2,108.023c-0.221-.572-1.178-2.942-1.2-3.139H59.957c-0.022.2-.955,2.5-1.2,3.139l-1.51,3.794h5.443Zm6.924-9.544h4.51c2.91,0,5.178,1.5,5.178,4.563a4.293,4.293,0,0,1-3.955,4.346l4.778,6.492H77.545l-4.51-6.276H71.812v6.276h-2.2v-15.4Zm4.267,7.351c2.043,0,3.2-1.077,3.2-2.764s-1.157-2.765-3.2-2.765H71.812v5.529H73.88ZM85.4,104.138H80.957v-1.865H92.046v1.865H87.6v13.536H85.4V104.138Zm12.348,5.838a8.2,8.2,0,1,1,8.2,8A7.861,7.861,0,0,1,97.75,109.976Zm14.133,0a5.946,5.946,0,1,0-5.955,6.053A5.772,5.772,0,0,0,111.882,109.976Zm5.433-7.7h7.867v1.865h-5.668V109.1H125v1.865h-5.49v6.713h-2.2v-15.4Zm17.815,1.865h-4.444v-1.865h11.088v1.865H137.33v13.536h-2.2V104.138Zm8.953-1.865h2.2v6.318h8.178v-6.318h2.2v15.4h-2.2v-7.218h-8.178v7.218h-2.2v-15.4Zm16.631,0h8.49v1.846h-6.29v4.472h6.11v1.846h-6.11v5.395h6.422v1.842h-8.622v-15.4Zm16,10.092V102.273h2.221v9.433c0,2.679,1.157,4.323,3.756,4.323,2.622,0,3.78-1.644,3.78-4.323v-9.433h2.221v10.092c0,3.38-2.2,5.616-6,5.616C178.865,117.981,176.71,115.745,176.71,112.365Zm14.274,2.524,1.491-1.25a4.52,4.52,0,0,0,3.911,2.433c1.709,0,3.044-.918,3.044-2.611,0-1.817-1.534-2.433-3.446-3.178-1.956-.769-3.933-1.736-3.933-4.193,0-2.432,1.912-4.12,4.712-4.12a5.249,5.249,0,0,1,4.579,2.322l-1.491,1.25a3.552,3.552,0,0,0-3.088-1.668c-1.512,0-2.511.769-2.511,2.063,0,1.6,1.554,2.13,2.911,2.654,2.2,0.856,4.466,1.889,4.466,4.716,0,2.679-2,4.674-5.2,4.674A6.064,6.064,0,0,1,190.984,114.889Zm18.241-12.616h1.956l6.4,15.4h-2.357l-1.6-4.035h-6.912l-1.6,4.035H202.8S208.446,104.162,209.225,102.273Zm3.665,9.544-1.487-3.794c-0.222-.572-1.179-2.942-1.2-3.139h-0.044c-0.022.2-.955,2.5-1.2,3.139l-1.51,3.794h5.443Zm13.978-7.679h-4.445v-1.865h11.088v1.865h-4.444v13.536h-2.2V104.138Zm7.469,5.838a8.2,8.2,0,1,1,8.2,8A7.861,7.861,0,0,1,234.337,109.976Zm14.132,0a5.945,5.945,0,1,0-5.954,6.053A5.772,5.772,0,0,0,248.469,109.976Zm5.434-7.7h4.422c4.978,0,8.266,2.808,8.266,7.7,0,4.87-3.312,7.7-8.266,7.7H253.9v-15.4Zm2.2,13.534h2.046c3.643,0,6.176-1.9,6.176-5.831s-2.533-5.838-6.176-5.838H256.1v11.669Zm17.637-13.534H275.7l6.4,15.4h-2.357l-1.6-4.035h-6.912l-1.6,4.035h-2.311S272.96,104.162,273.739,102.273Zm3.666,9.544-1.489-3.794c-0.221-.572-1.178-2.942-1.2-3.139h-0.044c-0.022.2-.955,2.5-1.2,3.139l-1.51,3.794H277.4Zm9.084-.419-5.312-9.125h2.467l2.889,5.135a22.887,22.887,0,0,1,1.11,2.192h0.022a23.153,23.153,0,0,1,1.113-2.192l2.91-5.135h2.4l-5.309,9.125v6.276h-2.289V111.4Zm14.062-9.125h1.687l8.846,9.982c0.266,0.288,1.422,1.711,1.534,1.932l0.044-.023c-0.044-.217-0.044-2-0.044-2.39v-9.5h2.134v15.4h-1.713l-8.845-9.983c-0.265-.283-1.422-1.711-1.532-1.928l-0.021.02c0.021,0.221.043,2,.043,2.394v9.5h-2.133v-15.4Zm18.253,0h8.487v1.846H321v4.472h6.113v1.846H321v5.395h6.422v1.842H318.8v-15.4Zm15.37,1.865h-4.445v-1.865h11.089v1.865h-4.445v13.536h-2.2V104.138Zm8.477-1.865h2.334l3.2,9.15c0.112,0.351.867,2.63,0.889,2.981h0.046a30.445,30.445,0,0,1,.933-2.981l3.334-9.15h1.756l3.332,9.15c0.133,0.351.91,2.63,0.935,2.981h0.044c0.044-.351.8-2.63,0.91-2.981l3.179-9.15h2.243l-5.49,15.4h-1.688l-3.6-9.607a25.578,25.578,0,0,1-.758-2.5h-0.044a25.421,25.421,0,0,1-.776,2.5l-3.578,9.607h-1.69Zm24.118,7.7a8.2,8.2,0,1,1,8.2,8A7.862,7.862,0,0,1,366.769,109.976Zm14.133,0a5.945,5.945,0,1,0-5.955,6.053A5.772,5.772,0,0,0,380.9,109.976Zm5.433-7.7h4.511c2.913,0,5.177,1.5,5.177,4.563a4.293,4.293,0,0,1-3.955,4.346l4.779,6.492h-2.579l-4.511-6.276h-1.222v6.276h-2.2v-15.4Zm4.267,7.351c2.044,0,3.2-1.077,3.2-2.764s-1.156-2.765-3.2-2.765h-2.067v5.529H390.6Zm8.736-7.351h2.2v7.154l6.444-7.154h2.666l-6.687,7.351,7,8.05h-2.754l-6.668-7.785v7.785h-2.2v-15.4Z" transform="translate(-1.125 -0.594)"/>
  </g>
</svg>
