<svg xmlns="http://www.w3.org/2000/svg" width="281" height="42" viewBox="0 0 281 42">
  <g fill="none" fill-rule="evenodd">
    <path fill="#009BFF" class='no-color-change' d="M10.822 30.064C8.842 30.064 6.989 29.75 5.264 29.119 3.539 28.489 1.987 27.59.607 26.42L3.937 22.009C4.987 22.849 6.12 23.532 7.335 24.057 8.55 24.582 9.742 24.844 10.912 24.844 11.692 24.844 12.314 24.71 12.78 24.439 13.244 24.17 13.477 23.764 13.477 23.224 13.477 22.655 13.214 22.197 12.689 21.852 12.164 21.508 11.227 21.17 9.877 20.84L7.717 20.299C3.427 19.16 1.282 16.865 1.282 13.415 1.282 11.884 1.702 10.565 2.542 9.455 3.382 8.345 4.537 7.49 6.007 6.889 7.477 6.29 9.187 5.989 11.137 5.989 13.057 5.989 14.864 6.29 16.56 6.889 18.254 7.49 19.807 8.36 21.217 9.5L17.797 14C16.747 13.16 15.637 12.485 14.467 11.974 13.297 11.465 12.202 11.21 11.182 11.21 9.532 11.21 8.707 11.75 8.707 12.83 8.707 13.31 8.955 13.7 9.449 14 9.945 14.299 10.642 14.57 11.542 14.809L14.467 15.619C16.657 16.22 18.277 17.12 19.327 18.32 20.377 19.52 20.902 20.945 20.902 22.594 20.902 24.095 20.481 25.407 19.642 26.532 18.802 27.657 17.624 28.527 16.11 29.142 14.594 29.757 12.832 30.064 10.822 30.064M42.052 27.994C41.122 28.625 40.057 29.127 38.857 29.502 37.657 29.877 36.397 30.064 35.077 30.064 32.617 30.064 30.659 29.352 29.204 27.927 27.749 26.503 27.022 24.59 27.022 22.189L27.022 12.424 23.287 12.424 23.287 6.574 27.382 6.574 28.372.184 34.852.184 34.852 6.574 40.837 6.574 40.837 12.424 34.852 12.424 34.852 21.199C34.852 21.98 35.084 22.588 35.549 23.022 36.014 23.457 36.636 23.674 37.417 23.674 37.807 23.674 38.204 23.6 38.609 23.449 39.015 23.299 39.397 23.12 39.757 22.909L42.052 27.994M51.951 22.054C51.951 22.745 52.206 23.307 52.717 23.742 53.226 24.177 53.887 24.394 54.697 24.394 55.777 24.394 56.684 24.027 57.419 23.292 58.154 22.557 58.521 21.634 58.521 20.524L58.521 19.759C57.712 19.61 56.856 19.534 55.957 19.534 54.816 19.534 53.864 19.73 53.099 20.119 52.334 20.509 51.951 21.154 51.951 22.054zM58.837 29.479L58.432 26.465C56.931 28.865 54.652 30.064 51.592 30.064 50.242 30.064 49.019 29.772 47.924 29.187 46.829 28.602 45.959 27.799 45.314 26.779 44.669 25.76 44.347 24.574 44.347 23.224 44.347 20.675 45.344 18.695 47.339 17.284 49.334 15.875 51.966 15.17 55.237 15.17 56.256 15.17 57.336 15.259 58.477 15.439 58.356 14.299 57.869 13.437 57.014 12.852 56.159 12.267 55.116 11.974 53.887 11.974 52.807 11.974 51.719 12.177 50.624 12.582 49.529 12.987 48.487 13.475 47.497 14.045L44.842 9.005C46.341 8.045 47.961 7.302 49.701 6.777 51.441 6.253 53.181 5.989 54.921 5.989 57.021 5.989 58.911 6.349 60.592 7.07 62.271 7.79 63.591 8.885 64.552 10.354 65.511 11.825 65.992 13.684 65.992 15.934L65.992 29.479 58.837 29.479zM78.816 20.614L78.816 29.479 70.987 29.479 70.987 6.574 78.141 6.574 78.637 10.399C79.116 9.17 79.904 8.172 80.999 7.407 82.094 6.642 83.362 6.259 84.802 6.259 85.612 6.259 86.226 6.365 86.647 6.574L86.647 13.729C86.316 13.61 85.949 13.52 85.544 13.46 85.139 13.4 84.681 13.369 84.171 13.369 82.611 13.369 81.329 13.947 80.324 15.102 79.319 16.258 78.816 18.094 78.816 20.614"/>
    <path fill="#404040" d="M112.251 22.594C113.57 22.594 114.636 22.122 115.446 21.177 116.255 20.232 116.66 18.965 116.66 17.375 116.66 15.785 116.255 14.517 115.446 13.572 114.636 12.627 113.57 12.154 112.251 12.154 110.9 12.154 109.821 12.627 109.011 13.572 108.201 14.517 107.795 15.785 107.795 17.375 107.795 18.935 108.201 20.195 109.011 21.154 109.821 22.115 110.9 22.594 112.251 22.594zM124.4 27.049C124.4 29.389 123.86 31.392 122.781 33.057 121.701 34.722 120.208 35.997 118.303 36.882 116.398 37.766 114.186 38.21 111.666 38.21 109.625 38.21 107.69 37.939 105.86 37.399 104.03 36.859 102.396 36.139 100.956 35.239L103.88 30.199C104.9 30.799 105.973 31.287 107.098 31.662 108.223 32.037 109.385 32.224 110.586 32.224 112.595 32.224 114.096 31.774 115.086 30.875 116.076 29.974 116.571 28.7 116.571 27.049L116.571 26.239C115.79 27.02 114.853 27.642 113.758 28.107 112.663 28.572 111.515 28.804 110.315 28.804 108.245 28.804 106.423 28.317 104.848 27.342 103.273 26.367 102.043 25.017 101.158 23.292 100.273 21.567 99.831 19.595 99.831 17.375 99.831 15.125 100.265 13.144 101.136 11.434 102.005 9.724 103.22 8.39 104.781 7.429 106.34 6.469 108.14 5.989 110.18 5.989 111.56 5.989 112.843 6.32 114.028 6.979 115.213 7.639 116.15 8.509 116.841 9.59L117.245 6.574 124.4 6.574 124.4 27.049zM136.055 22.054C136.055 22.745 136.31 23.307 136.82 23.742 137.33 24.177 137.99 24.394 138.8 24.394 139.88 24.394 140.787 24.027 141.523 23.292 142.258 22.557 142.625 21.634 142.625 20.524L142.625 19.759C141.815 19.61 140.96 19.534 140.06 19.534 138.92 19.534 137.968 19.73 137.203 20.119 136.438 20.509 136.055 21.154 136.055 22.054zM142.94 29.479L142.535 26.465C141.035 28.865 138.755 30.064 135.695 30.064 134.345 30.064 133.123 29.772 132.028 29.187 130.932 28.602 130.063 27.799 129.418 26.779 128.772 25.76 128.45 24.574 128.45 23.224 128.45 20.675 129.447 18.695 131.443 17.284 133.438 15.875 136.07 15.17 139.34 15.17 140.36 15.17 141.44 15.259 142.58 15.439 142.46 14.299 141.972 13.437 141.117 12.852 140.263 12.267 139.22 11.974 137.99 11.974 136.91 11.974 135.823 12.177 134.728 12.582 133.632 12.987 132.59 13.475 131.6 14.045L128.945 9.005C130.445 8.045 132.065 7.302 133.805 6.777 135.545 6.253 137.285 5.989 139.025 5.989 141.125 5.989 143.015 6.349 144.695 7.07 146.375 7.79 147.695 8.885 148.655 10.354 149.615 11.825 150.095 13.684 150.095 15.934L150.095 29.479 142.94 29.479z"/>
    <polyline fill="#404040" points="174.035 23.63 174.035 29.479 153.74 29.479 153.74 24.574 164.18 12.424 154.415 12.424 154.415 6.574 173.675 6.574 173.675 11.479 163.325 23.63 174.035 23.63"/>
    <path fill="#404040" d="M189.155 11.659C186.604 11.659 185.075 13.009 184.565 15.71L193.295 15.71C193.084 14.24 192.582 13.197 191.787 12.582 190.992 11.967 190.115 11.659 189.155 11.659zM199.865 27.139C198.724 27.949 197.277 28.64 195.522 29.21 193.767 29.779 191.9 30.064 189.92 30.064 187.189 30.064 184.857 29.562 182.922 28.557 180.987 27.552 179.502 26.149 178.467 24.349 177.432 22.549 176.915 20.479 176.915 18.139 176.915 15.77 177.425 13.67 178.445 11.84 179.464 10.01 180.875 8.577 182.675 7.542 184.474 6.507 186.574 5.989 188.974 5.989 191.315 5.989 193.377 6.492 195.162 7.497 196.947 8.503 198.342 9.897 199.347 11.682 200.352 13.467 200.855 15.56 200.855 17.96 200.855 18.29 200.832 18.634 200.787 18.994 200.742 19.354 200.689 19.73 200.63 20.119L184.655 20.119C185.375 22.759 187.339 24.08 190.55 24.08 191.99 24.08 193.264 23.854 194.375 23.404 195.484 22.955 196.414 22.505 197.165 22.054L199.865 27.139zM221.735 27.994C220.804 28.625 219.739 29.127 218.539 29.502 217.339 29.877 216.079 30.064 214.76 30.064 212.299 30.064 210.342 29.352 208.887 27.927 207.431 26.503 206.704 24.59 206.704 22.189L206.704 12.424 202.97 12.424 202.97 6.574 207.064 6.574 208.055.184 214.534.184 214.534 6.574 220.519 6.574 220.519 12.424 214.534 12.424 214.534 21.199C214.534 21.98 214.766 22.588 215.232 23.022 215.697 23.457 216.319 23.674 217.099 23.674 217.489 23.674 217.887 23.6 218.292 23.449 218.697 23.299 219.079 23.12 219.439 22.909L221.735 27.994M242.345 27.994C241.414 28.625 240.349 29.127 239.149 29.502 237.949 29.877 236.689 30.064 235.369 30.064 232.909 30.064 230.951 29.352 229.497 27.927 228.041 26.503 227.314 24.59 227.314 22.189L227.314 12.424 223.579 12.424 223.579 6.574 227.674 6.574 228.664.184 235.144.184 235.144 6.574 241.129 6.574 241.129 12.424 235.144 12.424 235.144 21.199C235.144 21.98 235.376 22.588 235.842 23.022 236.306 23.457 236.929 23.674 237.709 23.674 238.099 23.674 238.497 23.6 238.902 23.449 239.307 23.299 239.689 23.12 240.049 22.909L242.345 27.994M256.249 11.659C253.699 11.659 252.169 13.009 251.659 15.71L260.389 15.71C260.179 14.24 259.676 13.197 258.881 12.582 258.086 11.967 257.209 11.659 256.249 11.659zM266.959 27.139C265.818 27.949 264.371 28.64 262.617 29.21 260.861 29.779 258.994 30.064 257.014 30.064 254.284 30.064 251.951 29.562 250.016 28.557 248.081 27.552 246.596 26.149 245.561 24.349 244.526 22.549 244.009 20.479 244.009 18.139 244.009 15.77 244.519 13.67 245.539 11.84 246.558 10.01 247.969 8.577 249.769 7.542 251.569 6.507 253.668 5.989 256.069 5.989 258.409 5.989 260.471 6.492 262.256 7.497 264.041 8.503 265.436 9.897 266.441 11.682 267.446 13.467 267.949 15.56 267.949 17.96 267.949 18.29 267.927 18.634 267.881 18.994 267.836 19.354 267.784 19.73 267.724 20.119L251.749 20.119C252.469 22.759 254.433 24.08 257.644 24.08 259.084 24.08 260.359 23.854 261.469 23.404 262.578 22.955 263.509 22.505 264.259 22.054L266.959 27.139z"/>
    <path fill="#009BFF" class='no-color-change' d="M275.059,29.974 C274.099,29.974 273.221,29.742 272.427,29.277 C271.632,28.812 271.002,28.182 270.537,27.387 C270.071,26.592 269.839,25.715 269.839,24.755 C269.839,23.795 270.071,22.917 270.537,22.122 C271.002,21.327 271.632,20.697 272.427,20.232 C273.221,19.767 274.099,19.534 275.059,19.534 C276.019,19.534 276.896,19.767 277.692,20.232 C278.486,20.697 279.117,21.327 279.582,22.122 C280.047,22.917 280.279,23.795 280.279,24.755 C280.279,25.715 280.047,26.592 279.582,27.387 C279.117,28.182 278.486,28.812 277.692,29.277 C276.896,29.742 276.019,29.974 275.059,29.974"/>
    <path fill="#404040" d="M131.768 38.516L132.855 38.516C133.212 38.516 133.494 38.428 133.702 38.252 133.91 38.077 134.014 37.837 134.014 37.533 134.014 37.229 133.91 36.99 133.702 36.814 133.494 36.638 133.212 36.55 132.855 36.55L131.768 36.55 131.768 38.516zM130.961 41.305L130.961 35.871 132.855 35.871C133.462 35.871 133.944 36.02 134.301 36.318 134.658 36.617 134.837 37.022 134.837 37.533 134.837 38.039 134.658 38.44 134.301 38.736 133.944 39.031 133.462 39.179 132.855 39.179L131.768 39.179 131.768 41.305 130.961 41.305zM136.467 39.259L138.449 39.259 137.458 36.71 136.467 39.259zM139.24 41.305L138.713 39.938 136.203 39.938 135.676 41.305 134.861 41.305 137.034 35.871 137.905 35.871 140.071 41.305 139.24 41.305zM141.781 38.436L142.892 38.436C143.238 38.436 143.514 38.351 143.719 38.181 143.924 38.01 144.027 37.781 144.027 37.493 144.027 37.205 143.924 36.977 143.719 36.806 143.514 36.636 143.238 36.55 142.892 36.55L141.781 36.55 141.781 38.436zM141.781 39.099L141.781 41.305 140.974 41.305 140.974 35.871 142.892 35.871C143.494 35.871 143.971 36.016 144.323 36.306 144.674 36.597 144.85 36.992 144.85 37.493 144.85 37.872 144.744 38.191 144.53 38.452 144.317 38.713 144.024 38.897 143.651 39.003L144.97 41.305 144.051 41.305 142.812 39.099 141.781 39.099z"/>
    <polyline fill="#404040" points="147.168 41.305 147.168 36.55 145.338 36.55 145.338 35.871 149.805 35.871 149.805 36.55 147.975 36.55 147.975 41.305 147.168 41.305"/>
    <path fill="#404040" d="M154.991,40.69 C155.343,40.69 155.656,40.601 155.93,40.422 C156.204,40.244 156.419,39.997 156.573,39.683 C156.728,39.369 156.805,39.003 156.805,38.588 C156.805,38.172 156.728,37.807 156.573,37.493 C156.419,37.179 156.204,36.932 155.93,36.754 C155.656,36.575 155.343,36.486 154.991,36.486 C154.64,36.486 154.328,36.575 154.056,36.754 C153.784,36.932 153.571,37.179 153.417,37.493 C153.263,37.807 153.185,38.172 153.185,38.588 C153.185,39.003 153.263,39.369 153.417,39.683 C153.571,39.997 153.784,40.244 154.056,40.422 C154.328,40.601 154.64,40.69 154.991,40.69 Z M154.991,41.393 C154.48,41.393 154.027,41.273 153.632,41.033 C153.238,40.793 152.928,40.463 152.702,40.042 C152.475,39.622 152.362,39.137 152.362,38.588 C152.362,38.039 152.475,37.554 152.702,37.134 C152.928,36.712 153.238,36.382 153.632,36.143 C154.027,35.903 154.48,35.783 154.991,35.783 C155.503,35.783 155.957,35.903 156.354,36.143 C156.75,36.382 157.062,36.712 157.289,37.134 C157.515,37.554 157.628,38.039 157.628,38.588 C157.628,39.137 157.515,39.622 157.289,40.042 C157.062,40.463 156.75,40.793 156.354,41.033 C155.957,41.273 155.503,41.393 154.991,41.393 Z"/>
    <polyline fill="#404040" points="159.571 41.305 158.763 41.305 158.763 35.871 162.144 35.871 162.144 36.55 159.571 36.55 159.571 38.388 161.752 38.388 161.752 39.067 159.571 39.067 159.571 41.305"/>
    <polyline fill="#404040" points="166.355 41.305 166.355 36.55 164.525 36.55 164.525 35.871 168.992 35.871 168.992 36.55 167.162 36.55 167.162 41.305 166.355 41.305"/>
    <polyline fill="#404040" points="169.919 41.305 169.919 35.871 170.726 35.871 170.726 38.196 173.531 38.196 173.531 35.871 174.339 35.871 174.339 41.305 173.531 41.305 173.531 38.892 170.726 38.892 170.726 41.305 169.919 41.305"/>
    <polyline fill="#404040" points="175.761 41.305 175.761 35.871 179.245 35.871 179.245 36.55 176.568 36.55 176.568 38.228 178.926 38.228 178.926 38.907 176.568 38.907 176.568 40.626 179.309 40.626 179.309 41.305 175.761 41.305"/>
    <path fill="#404040" d="M184.408 40.69C184.85 40.69 185.197 40.557 185.45 40.29 185.703 40.024 185.83 39.664 185.83 39.211L185.83 35.871 186.637 35.871 186.637 39.219C186.637 39.896 186.439 40.427 186.042 40.813 185.645 41.2 185.1 41.393 184.408 41.393 183.715 41.393 183.172 41.2 182.777 40.813 182.383 40.427 182.186 39.896 182.186 39.219L182.186 35.871 182.993 35.871 182.993 39.211C182.993 39.664 183.12 40.024 183.373 40.29 183.626 40.557 183.971 40.69 184.408 40.69M189.65 41.393C189.24 41.393 188.848 41.321 188.475 41.177 188.103 41.033 187.801 40.841 187.572 40.602L188.028 40.066C188.241 40.264 188.492 40.418 188.783 40.53 189.074 40.642 189.362 40.697 189.65 40.697 190.002 40.697 190.285 40.63 190.501 40.494 190.717 40.358 190.825 40.17 190.825 39.931 190.825 39.712 190.748 39.528 190.593 39.379 190.439 39.23 190.175 39.105 189.802 39.003L189.051 38.803C188.566 38.676 188.213 38.495 187.992 38.26 187.771 38.026 187.66 37.72 187.66 37.341 187.66 37.033 187.743 36.76 187.908 36.526 188.073 36.292 188.301 36.11 188.591 35.979 188.882 35.848 189.21 35.783 189.578 35.783 189.967 35.783 190.332 35.856 190.673 36.003 191.014 36.149 191.315 36.353 191.576 36.614L191.089 37.142C190.859 36.929 190.621 36.765 190.373 36.65 190.126 36.535 189.863 36.478 189.586 36.478 189.251 36.478 188.976 36.549 188.763 36.69 188.55 36.831 188.444 37.027 188.444 37.277 188.444 37.506 188.519 37.685 188.671 37.813 188.823 37.941 189.056 38.047 189.37 38.132L190.209 38.364C190.694 38.497 191.049 38.684 191.272 38.924 191.496 39.163 191.608 39.462 191.608 39.819 191.608 40.133 191.525 40.409 191.36 40.646 191.195 40.883 190.966 41.066 190.673 41.197 190.38 41.328 190.039 41.393 189.65 41.393M193.638 39.259L195.62 39.259 194.629 36.71 193.638 39.259zM196.411 41.305L195.883 39.938 193.374 39.938 192.847 41.305 192.032 41.305 194.205 35.871 195.076 35.871 197.242 41.305 196.411 41.305z"/>
    <polyline fill="#404040" points="200.998 41.305 200.998 36.55 199.168 36.55 199.168 35.871 203.635 35.871 203.635 36.55 201.805 36.55 201.805 41.305 200.998 41.305"/>
    <path fill="#404040" d="M206.544 40.69C206.896 40.69 207.209 40.601 207.483 40.422 207.758 40.244 207.972 39.997 208.127 39.683 208.281 39.369 208.358 39.003 208.358 38.588 208.358 38.172 208.281 37.807 208.127 37.493 207.972 37.179 207.758 36.932 207.483 36.754 207.209 36.575 206.896 36.486 206.544 36.486 206.193 36.486 205.881 36.575 205.609 36.754 205.338 36.932 205.124 37.179 204.97 37.493 204.815 37.807 204.738 38.172 204.738 38.588 204.738 39.003 204.815 39.369 204.97 39.683 205.124 39.997 205.338 40.244 205.609 40.422 205.881 40.601 206.193 40.69 206.544 40.69zM206.544 41.393C206.033 41.393 205.58 41.273 205.186 41.033 204.791 40.793 204.481 40.463 204.255 40.042 204.028 39.622 203.915 39.137 203.915 38.588 203.915 38.039 204.028 37.554 204.255 37.134 204.481 36.712 204.791 36.382 205.186 36.143 205.58 35.903 206.033 35.783 206.544 35.783 207.056 35.783 207.51 35.903 207.907 36.143 208.304 36.382 208.615 36.712 208.842 37.134 209.068 37.554 209.181 38.039 209.181 38.588 209.181 39.137 209.068 39.622 208.842 40.042 208.615 40.463 208.304 40.793 207.907 41.033 207.51 41.273 207.056 41.393 206.544 41.393zM211.123 40.626L212.226 40.626C212.61 40.626 212.939 40.542 213.213 40.374 213.487 40.206 213.698 39.971 213.844 39.667 213.991 39.363 214.064 39.003 214.064 38.588 214.064 38.172 213.991 37.813 213.844 37.509 213.698 37.205 213.487 36.97 213.213 36.802 212.939 36.634 212.61 36.55 212.226 36.55L211.123 36.55 211.123 40.626zM210.316 41.305L210.316 35.871 212.226 35.871C212.759 35.871 213.225 35.984 213.624 36.211 214.024 36.437 214.335 36.754 214.555 37.162 214.777 37.569 214.887 38.044 214.887 38.588 214.887 39.131 214.777 39.607 214.555 40.014 214.335 40.422 214.024 40.739 213.624 40.965 213.225 41.192 212.759 41.305 212.226 41.305L210.316 41.305zM216.949 39.259L218.931 39.259 217.94 36.71 216.949 39.259zM219.722 41.305L219.195 39.938 216.685 39.938 216.158 41.305 215.343 41.305 217.516 35.871 218.388 35.871 220.553 41.305 219.722 41.305z"/>
    <polyline fill="#404040" points="223.031 39.147 223.031 41.305 222.224 41.305 222.224 39.147 220.313 35.871 221.265 35.871 222.631 38.38 223.998 35.871 224.932 35.871 223.031 39.147"/>
    <polyline fill="#404040" points="231.39 41.305 228.489 37.142 228.489 41.305 227.729 41.305 227.729 35.871 228.481 35.871 231.39 40.034 231.39 35.871 232.141 35.871 232.141 41.305 231.39 41.305"/>
    <polyline fill="#404040" points="233.563 41.305 233.563 35.871 237.048 35.871 237.048 36.55 234.371 36.55 234.371 38.228 236.728 38.228 236.728 38.907 234.371 38.907 234.371 40.626 237.112 40.626 237.112 41.305 233.563 41.305"/>
    <polyline fill="#404040" points="239.509 41.305 239.509 36.55 237.679 36.55 237.679 35.871 242.146 35.871 242.146 36.55 240.316 36.55 240.316 41.305 239.509 41.305"/>
    <polyline fill="#404040" points="247.42 41.305 246.15 36.974 244.879 41.305 244.04 41.305 242.594 35.871 243.393 35.871 244.496 40.17 245.766 35.871 246.534 35.871 247.812 40.186 248.923 35.871 249.706 35.871 248.259 41.305 247.42 41.305"/>
    <path fill="#404040" d="M252.911 40.69C253.263 40.69 253.576 40.601 253.85 40.422 254.124 40.244 254.339 39.997 254.493 39.683 254.648 39.369 254.725 39.003 254.725 38.588 254.725 38.172 254.648 37.807 254.493 37.493 254.339 37.179 254.124 36.932 253.85 36.754 253.576 36.575 253.263 36.486 252.911 36.486 252.559 36.486 252.248 36.575 251.976 36.754 251.704 36.932 251.491 37.179 251.336 37.493 251.182 37.807 251.105 38.172 251.105 38.588 251.105 39.003 251.182 39.369 251.336 39.683 251.491 39.997 251.704 40.244 251.976 40.422 252.248 40.601 252.559 40.69 252.911 40.69zM252.911 41.393C252.4 41.393 251.947 41.273 251.552 41.033 251.158 40.793 250.848 40.463 250.621 40.042 250.395 39.622 250.282 39.137 250.282 38.588 250.282 38.039 250.395 37.554 250.621 37.134 250.848 36.712 251.158 36.382 251.552 36.143 251.947 35.903 252.4 35.783 252.911 35.783 253.422 35.783 253.877 35.903 254.274 36.143 254.67 36.382 254.982 36.712 255.209 37.134 255.435 37.554 255.548 38.039 255.548 38.588 255.548 39.137 255.435 39.622 255.209 40.042 254.982 40.463 254.67 40.793 254.274 41.033 253.877 41.273 253.422 41.393 252.911 41.393zM257.49 38.436L258.601 38.436C258.947 38.436 259.223 38.351 259.428 38.181 259.633 38.01 259.736 37.781 259.736 37.493 259.736 37.205 259.633 36.977 259.428 36.806 259.223 36.636 258.947 36.55 258.601 36.55L257.49 36.55 257.49 38.436zM257.49 39.099L257.49 41.305 256.683 41.305 256.683 35.871 258.601 35.871C259.203 35.871 259.68 36.016 260.031 36.306 260.383 36.597 260.558 36.992 260.558 37.493 260.558 37.872 260.452 38.191 260.239 38.452 260.026 38.713 259.733 38.897 259.36 39.003L260.679 41.305 259.759 41.305 258.521 39.099 257.49 39.099z"/>
    <polyline fill="#404040" points="264.946 41.305 262.509 38.564 262.509 41.305 261.701 41.305 261.701 35.871 262.509 35.871 262.509 38.252 264.786 35.871 265.785 35.871 263.364 38.364 265.961 41.305 264.946 41.305"/>
  </g>
</svg>
