<svg xmlns="http://www.w3.org/2000/svg" width="349" height="55" viewBox="0 0 349 55">
  <g fill="none" fill-rule="evenodd">
    <path class='no-color-change' fill="#009BFF" d="M54.177,27.824 C54.177,42.736 42.09,54.824 27.177,54.824 C12.264,54.824 0.177,42.736 0.177,27.824 C0.177,12.911 12.264,0.824 27.177,0.824 C42.09,0.824 54.177,12.911 54.177,27.824"/>
    <path fill="#404040" d="M69.536 21.552C70.516 21.552 71.272 21.264 71.805 20.686 72.338 20.109 72.606 19.288 72.606 18.221L72.606 7.441 77.484 7.441 77.484 18.194C77.484 20.555 76.793 22.383 75.411 23.677 74.031 24.971 72.072 25.617 69.536 25.617 67.001 25.617 65.042 24.971 63.661 23.677 62.28 22.383 61.589 20.555 61.589 18.194L61.589 7.441 66.468 7.441 66.468 18.221C66.468 19.288 66.735 20.109 67.268 20.686 67.801 21.264 68.557 21.552 69.536 21.552M87.24 25.617C85.789 25.617 84.399 25.368 83.071 24.87 81.741 24.371 80.587 23.659 79.609 22.732L81.969 19.768C82.668 20.397 83.454 20.892 84.329 21.25 85.203 21.608 86.165 21.788 87.214 21.788 87.913 21.788 88.464 21.666 88.866 21.421 89.269 21.176 89.47 20.808 89.47 20.319 89.47 19.847 89.235 19.467 88.762 19.179 88.29 18.889 87.459 18.588 86.271 18.273L85.169 17.984C83.56 17.565 82.336 16.923 81.496 16.056 80.657 15.191 80.237 14.095 80.237 12.765 80.237 11.629 80.534 10.632 81.129 9.775 81.724 8.919 82.546 8.259 83.595 7.795 84.644 7.332 85.86 7.099 87.24 7.099 88.605 7.099 89.907 7.349 91.149 7.847 92.39 8.346 93.491 9.023 94.453 9.88L92.014 12.949C91.385 12.407 90.646 11.934 89.798 11.532 88.949 11.131 88.107 10.93 87.267 10.93 86.568 10.93 86.03 11.048 85.654 11.283 85.278 11.519 85.09 11.865 85.09 12.319 85.09 12.739 85.286 13.102 85.68 13.408 86.073 13.714 86.751 13.998 87.713 14.261L89.05 14.628C90.974 15.152 92.333 15.869 93.129 16.778 93.924 17.687 94.322 18.745 94.322 19.952 94.322 21.089 94.03 22.081 93.444 22.929 92.858 23.777 92.031 24.437 90.965 24.909 89.899 25.381 88.657 25.617 87.24 25.617M102.48 18.326L106.702 18.326 104.605 12.083 102.48 18.326zM109.063 25.276L107.936 21.945 101.247 21.945 100.119 25.276 95.293 25.276 101.824 7.441 107.489 7.441 114.021 25.276 109.063 25.276 109.063 25.276z"/>
    <polyline fill="#404040" points="125.219 25.276 125.219 11.375 119.921 11.375 119.921 7.441 135.396 7.441 135.396 11.375 130.098 11.375 130.098 25.276 125.219 25.276"/>
    <path fill="#404040" d="M145.599 21.578C146.455 21.578 147.202 21.359 147.841 20.923 148.48 20.485 148.982 19.878 149.349 19.099 149.716 18.321 149.901 17.417 149.901 16.385 149.901 15.353 149.716 14.444 149.349 13.657 148.982 12.87 148.48 12.254 147.841 11.807 147.202 11.362 146.455 11.139 145.599 11.139 144.741 11.139 143.994 11.362 143.356 11.807 142.718 12.254 142.215 12.87 141.848 13.657 141.481 14.444 141.297 15.353 141.297 16.385 141.297 17.417 141.481 18.321 141.848 19.099 142.215 19.878 142.718 20.485 143.356 20.923 143.994 21.359 144.741 21.578 145.599 21.578zM145.599 25.617C143.815 25.617 142.229 25.223 140.838 24.437 139.448 23.65 138.351 22.561 137.546 21.172 136.742 19.781 136.34 18.186 136.34 16.385 136.34 15.02 136.567 13.775 137.022 12.647 137.477 11.519 138.123 10.54 138.963 9.71 139.802 8.88 140.781 8.236 141.901 7.782 143.019 7.327 144.252 7.099 145.599 7.099 146.945 7.099 148.178 7.327 149.297 7.782 150.415 8.236 151.395 8.88 152.235 9.71 153.073 10.54 153.721 11.519 154.175 12.647 154.63 13.775 154.858 15.02 154.858 16.385 154.858 18.186 154.455 19.781 153.651 21.172 152.846 22.561 151.749 23.65 150.36 24.437 148.969 25.223 147.382 25.617 145.599 25.617L145.599 25.617zM162.463 21.421L164.693 21.421C165.969 21.421 166.979 20.958 167.722 20.03 168.465 19.104 168.837 17.88 168.837 16.358 168.837 14.837 168.465 13.613 167.722 12.686 166.979 11.76 165.969 11.297 164.693 11.297L162.463 11.297 162.463 21.421zM157.663 25.276L157.663 7.441 164.693 7.441C166.459 7.441 168.02 7.821 169.374 8.582 170.73 9.343 171.792 10.391 172.562 11.729 173.33 13.067 173.715 14.61 173.715 16.358 173.715 18.107 173.33 19.65 172.562 20.988 171.792 22.325 170.73 23.375 169.374 24.136 168.02 24.896 166.459 25.276 164.693 25.276L157.663 25.276 157.663 25.276zM181.531 18.326L185.754 18.326 183.656 12.083 181.531 18.326zM188.114 25.276L186.988 21.945 180.299 21.945 179.171 25.276 174.345 25.276 180.876 7.441 186.541 7.441 193.072 25.276 188.114 25.276 188.114 25.276z"/>
    <polyline fill="#404040" points="202.514 18.85 202.514 25.276 197.556 25.276 197.556 18.85 191.236 7.441 196.743 7.441 200.048 14.522 203.326 7.441 208.834 7.441 202.514 18.85"/>
    <polyline fill="#404040" points="227.797 25.276 220.794 14.995 220.794 25.276 216.309 25.276 216.309 7.441 220.768 7.441 227.744 17.906 227.744 7.441 232.256 7.441 232.256 25.276 227.797 25.276"/>
    <polyline fill="#404040" points="236.191 25.276 236.191 7.441 248.492 7.441 248.492 11.348 240.965 11.348 240.965 14.365 247.653 14.365 247.653 18.273 240.965 18.273 240.965 21.368 248.912 21.368 248.912 25.276 236.191 25.276"/>
    <polyline fill="#404040" points="255.914 25.276 255.914 11.375 250.616 11.375 250.616 7.441 266.091 7.441 266.091 11.375 260.793 11.375 260.793 25.276 255.914 25.276"/>
    <polyline fill="#404040" points="282.562 25.276 279.677 13.683 276.791 25.276 271.624 25.276 267.192 7.441 271.913 7.441 274.614 19.611 277.605 7.441 281.775 7.441 284.738 19.532 287.519 7.441 292.161 7.441 287.729 25.276 282.562 25.276"/>
    <path fill="#404040" d="M302.548 21.578C303.405 21.578 304.152 21.359 304.79 20.923 305.429 20.485 305.931 19.878 306.298 19.099 306.665 18.321 306.85 17.417 306.85 16.385 306.85 15.353 306.665 14.444 306.298 13.657 305.931 12.87 305.429 12.254 304.79 11.807 304.152 11.362 303.405 11.139 302.548 11.139 301.691 11.139 300.944 11.362 300.305 11.807 299.667 12.254 299.164 12.87 298.797 13.657 298.43 14.444 298.246 15.353 298.246 16.385 298.246 17.417 298.43 18.321 298.797 19.099 299.164 19.878 299.667 20.485 300.305 20.923 300.944 21.359 301.691 21.578 302.548 21.578zM302.548 25.617C300.764 25.617 299.178 25.223 297.787 24.437 296.398 23.65 295.3 22.561 294.495 21.172 293.692 19.781 293.289 18.186 293.289 16.385 293.289 15.02 293.516 13.775 293.971 12.647 294.426 11.519 295.072 10.54 295.912 9.71 296.751 8.88 297.731 8.236 298.85 7.782 299.968 7.327 301.201 7.099 302.548 7.099 303.894 7.099 305.127 7.327 306.246 7.782 307.364 8.236 308.344 8.88 309.184 9.71 310.023 10.54 310.67 11.519 311.124 12.647 311.579 13.775 311.807 15.02 311.807 16.385 311.807 18.186 311.405 19.781 310.6 21.172 309.795 22.561 308.698 23.65 307.309 24.437 305.918 25.223 304.331 25.617 302.548 25.617L302.548 25.617zM319.387 15.65L322.01 15.65C322.761 15.65 323.356 15.454 323.793 15.06 324.23 14.667 324.448 14.129 324.448 13.447 324.448 12.801 324.23 12.28 323.793 11.887 323.356 11.493 322.761 11.297 322.01 11.297L319.387 11.297 319.387 15.65zM319.387 19.348L319.387 25.276 314.665 25.276 314.665 7.441 322.534 7.441C324.632 7.441 326.293 7.978 327.518 9.054 328.741 10.129 329.354 11.594 329.354 13.447 329.354 14.653 329.082 15.694 328.54 16.568 327.998 17.443 327.238 18.125 326.259 18.614L329.905 25.276 324.711 25.276 321.747 19.348 319.387 19.348 319.387 19.348z"/>
    <polyline fill="#404040" points="343.044 25.276 337.379 16.556 337.379 25.276 332.527 25.276 332.527 7.441 337.379 7.441 337.379 15.27 343.254 7.441 348.867 7.441 342.258 15.638 348.737 25.276 343.044 25.276"/>
    <polyline class='no-color-change' fill="#009BFF" points="61.589 48.13 61.589 30.295 73.891 30.295 73.891 34.202 66.364 34.202 66.364 37.219 73.051 37.219 73.051 41.127 66.364 41.127 66.364 44.222 74.311 44.222 74.311 48.13 61.589 48.13"/>
    <polyline class='no-color-change' fill="#009BFF" points="82.257 44.195 89.68 44.195 89.68 48.13 77.378 48.13 77.378 30.295 82.257 30.295 82.257 44.195"/>
    <path class='no-color-change' fill="#009BFF" d="M103.266 38.451L105.626 38.451C106.378 38.451 106.973 38.255 107.409 37.861 107.847 37.468 108.066 36.948 108.066 36.301 108.066 35.654 107.847 35.134 107.409 34.74 106.973 34.347 106.378 34.15 105.626 34.15L103.266 34.15 103.266 38.451zM98.544 48.13L98.544 30.295 106.098 30.295C108.197 30.295 109.858 30.832 111.082 31.907 112.306 32.982 112.918 34.447 112.918 36.301 112.918 37.507 112.643 38.553 112.092 39.435 111.541 40.318 110.767 41 109.771 41.48 108.774 41.962 107.584 42.202 106.203 42.202L103.266 42.202 103.266 48.13 98.544 48.13 98.544 48.13zM120.026 41.18L124.248 41.18 122.151 34.936 120.026 41.18zM126.609 48.13L125.482 44.799 118.793 44.799 117.665 48.13 112.839 48.13 119.37 30.295 125.035 30.295 131.567 48.13 126.609 48.13 126.609 48.13zM140.195 48.471C138.743 48.471 137.353 48.222 136.025 47.723 134.696 47.224 133.541 46.513 132.563 45.586L134.923 42.622C135.622 43.251 136.408 43.746 137.283 44.103 138.157 44.462 139.119 44.641 140.168 44.641 140.867 44.641 141.418 44.519 141.821 44.274 142.223 44.029 142.424 43.662 142.424 43.173 142.424 42.7 142.189 42.32 141.716 42.032 141.244 41.743 140.413 41.441 139.225 41.127L138.123 40.838C136.514 40.419 135.29 39.776 134.45 38.91 133.612 38.045 133.192 36.948 133.192 35.619 133.192 34.482 133.489 33.485 134.083 32.629 134.678 31.772 135.5 31.112 136.549 30.648 137.598 30.185 138.814 29.953 140.195 29.953 141.559 29.953 142.862 30.203 144.103 30.701 145.344 31.199 146.446 31.877 147.407 32.733L144.968 35.803C144.339 35.261 143.6 34.788 142.752 34.386 141.904 33.984 141.061 33.783 140.221 33.783 139.522 33.783 138.984 33.901 138.608 34.137 138.232 34.373 138.044 34.719 138.044 35.173 138.044 35.593 138.24 35.956 138.634 36.262 139.028 36.567 139.705 36.851 140.667 37.114L142.004 37.481C143.928 38.006 145.287 38.722 146.083 39.632 146.878 40.541 147.277 41.598 147.277 42.805 147.277 43.942 146.984 44.934 146.398 45.782 145.812 46.631 144.986 47.291 143.919 47.763 142.853 48.234 141.612 48.471 140.195 48.471M158.45 44.431C159.307 44.431 160.054 44.213 160.693 43.776 161.331 43.339 161.833 42.731 162.2 41.953 162.568 41.175 162.752 40.27 162.752 39.238 162.752 38.207 162.568 37.298 162.2 36.511 161.833 35.723 161.331 35.107 160.693 34.661 160.054 34.216 159.307 33.993 158.45 33.993 157.593 33.993 156.846 34.216 156.207 34.661 155.57 35.107 155.067 35.723 154.699 36.511 154.332 37.298 154.149 38.207 154.149 39.238 154.149 40.27 154.332 41.175 154.699 41.953 155.067 42.731 155.57 43.339 156.207 43.776 156.846 44.213 157.593 44.431 158.45 44.431zM158.45 48.471C156.666 48.471 155.08 48.077 153.69 47.291 152.3 46.504 151.202 45.415 150.398 44.025 149.594 42.635 149.192 41.04 149.192 39.238 149.192 37.874 149.418 36.629 149.873 35.501 150.328 34.373 150.975 33.393 151.815 32.563 152.654 31.733 153.633 31.09 154.752 30.636 155.87 30.18 157.104 29.953 158.45 29.953 159.796 29.953 161.03 30.18 162.149 30.636 163.267 31.09 164.246 31.733 165.086 32.563 165.925 33.393 166.573 34.373 167.027 35.501 167.482 36.629 167.709 37.874 167.709 39.238 167.709 41.04 167.307 42.635 166.502 44.025 165.698 45.415 164.601 46.504 163.211 47.291 161.821 48.077 160.234 48.471 158.45 48.471L158.45 48.471z"/>
  </g>
</svg>
