<svg xmlns="http://www.w3.org/2000/svg" width="295" height="47" viewBox="0 0 295 47">
  <g fill="none" fill-rule="evenodd">
    <polyline class="no-color-change" fill="#009BFF" points=".357 34.986 .357 4.386 21.463 4.386 21.463 11.092 8.547 11.092 8.547 16.266 20.023 16.266 20.023 22.971 8.547 22.971 8.547 28.281 22.183 28.281 22.183 34.986 .357 34.986"/>
    <polygon class="no-color-change" fill="#009BFF" points="26.817 34.986 34.647 34.986 34.647 2.136 26.817 2.136"/>
    <path class="no-color-change" fill="#009BFF" d="M59.666 18.381L63.716 18.381C65.005 18.381 66.026 18.044 66.776 17.369 67.525 16.693 67.901 15.802 67.901 14.691 67.901 13.582 67.525 12.688 66.776 12.013 66.026 11.339 65.005 11.001 63.716 11.001L59.666 11.001 59.666 18.381zM51.566 34.986L51.566 4.386 64.526 4.386C68.126 4.386 70.976 5.308 73.076 7.154 75.175 8.999 76.226 11.511 76.226 14.691 76.226 16.761 75.753 18.554 74.809 20.068 73.863 21.584 72.536 22.754 70.826 23.579 69.116 24.404 67.076 24.816 64.706 24.816L59.666 24.816 59.666 34.986 51.566 34.986 51.566 34.986zM86.396 27.561C86.396 28.252 86.65 28.814 87.16 29.249 87.67 29.683 88.331 29.901 89.14 29.901 90.22 29.901 91.128 29.534 91.863 28.799 92.598 28.064 92.965 27.141 92.965 26.031L92.965 25.266C92.155 25.116 91.3 25.041 90.4 25.041 89.26 25.041 88.308 25.236 87.543 25.626 86.778 26.016 86.396 26.661 86.396 27.561zM93.28 34.986L92.876 31.971C91.375 34.372 89.095 35.571 86.035 35.571 84.686 35.571 83.462 35.279 82.368 34.693 81.273 34.108 80.403 33.306 79.758 32.286 79.112 31.266 78.791 30.081 78.791 28.731 78.791 26.181 79.788 24.202 81.783 22.791 83.778 21.382 86.41 20.677 89.68 20.677 90.7 20.677 91.78 20.766 92.92 20.946 92.8 19.806 92.313 18.943 91.458 18.358 90.603 17.773 89.56 17.481 88.331 17.481 87.251 17.481 86.163 17.683 85.068 18.089 83.972 18.494 82.93 18.981 81.94 19.552L79.285 14.511C80.785 13.552 82.405 12.808 84.146 12.284 85.885 11.76 87.625 11.496 89.365 11.496 91.465 11.496 93.355 11.856 95.035 12.576 96.715 13.296 98.035 14.391 98.995 15.861 99.955 17.332 100.436 19.191 100.436 21.441L100.436 34.986 93.28 34.986 93.28 34.986zM113.936 35.571C111.956 35.571 110.103 35.256 108.378 34.626 106.652 33.996 105.1 33.096 103.721 31.926L107.051 27.516C108.1 28.356 109.233 29.039 110.448 29.563 111.663 30.089 112.856 30.351 114.025 30.351 114.805 30.351 115.428 30.217 115.893 29.946 116.358 29.677 116.59 29.271 116.59 28.731 116.59 28.162 116.328 27.704 115.803 27.358 115.278 27.014 114.34 26.677 112.991 26.346L110.831 25.806C106.54 24.667 104.396 22.371 104.396 18.921 104.396 17.391 104.815 16.071 105.656 14.961 106.495 13.851 107.65 12.997 109.121 12.396 110.59 11.797 112.3 11.496 114.251 11.496 116.17 11.496 117.978 11.797 119.673 12.396 121.368 12.997 122.92 13.866 124.331 15.006L120.911 19.506C119.86 18.667 118.751 17.992 117.581 17.481 116.411 16.971 115.315 16.717 114.295 16.717 112.646 16.717 111.82 17.256 111.82 18.336 111.82 18.816 112.068 19.207 112.563 19.506 113.058 19.806 113.755 20.076 114.656 20.316L117.581 21.126C119.77 21.726 121.39 22.627 122.44 23.826 123.49 25.026 124.016 26.452 124.016 28.101 124.016 29.601 123.595 30.914 122.755 32.039 121.916 33.164 120.738 34.034 119.223 34.648 117.708 35.263 115.945 35.571 113.936 35.571M139.405 29.361C140.785 29.361 141.887 28.829 142.712 27.763 143.537 26.699 143.95 25.282 143.95 23.511 143.95 21.741 143.537 20.332 142.712 19.281 141.887 18.231 140.785 17.706 139.405 17.706 138.025 17.706 136.922 18.231 136.098 19.281 135.272 20.332 134.86 21.741 134.86 23.511 134.86 25.282 135.272 26.699 136.098 27.763 136.922 28.829 138.025 29.361 139.405 29.361zM139.405 35.571C136.945 35.571 134.777 35.053 132.902 34.018 131.027 32.983 129.557 31.566 128.492 29.766 127.427 27.967 126.895 25.882 126.895 23.511 126.895 21.141 127.427 19.056 128.492 17.256 129.557 15.456 131.027 14.047 132.902 13.026 134.777 12.007 136.945 11.496 139.405 11.496 141.864 11.496 144.032 12.007 145.907 13.026 147.782 14.047 149.252 15.456 150.317 17.256 151.382 19.056 151.915 21.141 151.915 23.511 151.915 25.882 151.382 27.967 150.317 29.766 149.252 31.566 147.782 32.983 145.907 34.018 144.032 35.053 141.864 35.571 139.405 35.571L139.405 35.571z"/>
    <polyline fill="#404040" points="174.189 34.986 174.189 11.136 165.099 11.136 165.099 4.386 191.65 4.386 191.65 11.136 182.56 11.136 182.56 34.986 174.189 34.986"/>
    <path fill="#404040" d="M195.429 34.986L195.429 12.081C196.689 12.351 197.964 12.486 199.253 12.486 200.574 12.486 201.91 12.351 203.259 12.081L203.259 34.986 195.429 34.986M216.579 21.802L216.579 34.986 208.749 34.986 208.749 12.081 215.949 12.081 216.353 15.006C217.043 13.896 217.943 13.056 219.053 12.486 220.164 11.917 221.349 11.631 222.609 11.631 223.959 11.631 225.188 11.931 226.298 12.531 227.408 13.132 228.308 13.971 228.999 15.052 229.808 13.941 230.866 13.093 232.171 12.509 233.476 11.924 234.849 11.631 236.289 11.631 237.878 11.631 239.281 11.999 240.496 12.733 241.711 13.469 242.664 14.489 243.353 15.794 244.043 17.098 244.388 18.606 244.388 20.316L244.388 34.986 236.558 34.986 236.558 21.126C236.558 20.167 236.295 19.401 235.771 18.831 235.246 18.261 234.579 17.976 233.769 17.976 232.779 17.976 231.984 18.291 231.383 18.921 230.783 19.552 230.484 20.511 230.484 21.802L230.484 34.986 222.654 34.986 222.654 21.126C222.654 20.167 222.398 19.401 221.888 18.831 221.378 18.261 220.688 17.976 219.818 17.976 218.858 17.976 218.078 18.291 217.478 18.921 216.878 19.552 216.579 20.511 216.579 21.802M260.318 17.166C257.768 17.166 256.238 18.516 255.728 21.217L264.459 21.217C264.248 19.747 263.746 18.704 262.951 18.089 262.156 17.474 261.279 17.166 260.318 17.166zM271.029 32.646C269.888 33.456 268.441 34.146 266.686 34.717 264.931 35.286 263.064 35.571 261.084 35.571 258.353 35.571 256.021 35.068 254.086 34.063 252.151 33.058 250.666 31.656 249.63 29.856 248.596 28.056 248.079 25.986 248.079 23.646 248.079 21.276 248.588 19.177 249.609 17.347 250.628 15.516 252.039 14.084 253.838 13.049 255.638 12.013 257.738 11.496 260.138 11.496 262.478 11.496 264.541 11.999 266.326 13.004 268.111 14.01 269.505 15.404 270.511 17.188 271.515 18.973 272.019 21.066 272.019 23.467 272.019 23.797 271.996 24.141 271.951 24.501 271.906 24.861 271.853 25.236 271.794 25.626L255.818 25.626C256.539 28.266 258.503 29.586 261.713 29.586 263.154 29.586 264.428 29.361 265.539 28.911 266.648 28.461 267.578 28.011 268.329 27.561L271.029 32.646 271.029 32.646zM284.529 35.571C282.548 35.571 280.696 35.256 278.97 34.626 277.246 33.996 275.693 33.096 274.314 31.926L277.644 27.516C278.693 28.356 279.826 29.039 281.041 29.563 282.255 30.089 283.449 30.351 284.619 30.351 285.398 30.351 286.021 30.217 286.486 29.946 286.951 29.677 287.183 29.271 287.183 28.731 287.183 28.162 286.919 27.704 286.396 27.358 285.871 27.014 284.933 26.677 283.584 26.346L281.423 25.806C277.132 24.667 274.988 22.371 274.988 18.921 274.988 17.391 275.408 16.071 276.249 14.961 277.087 13.851 278.244 12.997 279.713 12.396 281.183 11.797 282.893 11.496 284.843 11.496 286.763 11.496 288.57 11.797 290.265 12.396 291.961 12.997 293.513 13.866 294.923 15.006L291.503 19.506C290.453 18.667 289.343 17.992 288.173 17.481 287.003 16.971 285.908 16.717 284.888 16.717 283.238 16.717 282.414 17.256 282.414 18.336 282.414 18.816 282.661 19.207 283.156 19.506 283.651 19.806 284.348 20.076 285.249 20.316L288.173 21.126C290.363 21.726 291.982 22.627 293.033 23.826 294.084 25.026 294.609 26.452 294.609 28.101 294.609 29.601 294.187 30.914 293.349 32.039 292.507 33.164 291.33 34.034 289.816 34.648 288.3 35.263 286.539 35.571 284.529 35.571M1.188 43.68L2.307 43.68C2.675 43.68 2.966 43.59 3.18 43.409 3.394 43.227 3.501 42.98 3.501 42.667 3.501 42.355 3.394 42.108 3.18 41.927 2.966 41.746 2.675 41.655 2.307 41.655L1.188 41.655 1.188 43.68zM.357 46.553L.357 40.955 2.307 40.955C2.933 40.955 3.429 41.109 3.797 41.417 4.165 41.724 4.348 42.141 4.348 42.667 4.348 43.189 4.165 43.602 3.797 43.907 3.429 44.211 2.933 44.363 2.307 44.363L1.188 44.363 1.188 46.553.357 46.553.357 46.553zM6.028 44.446L8.069 44.446 7.048 41.82 6.028 44.446zM8.884 46.553L8.341 45.146 5.756 45.146 5.213 46.553 4.373 46.553 6.612 40.955 7.51 40.955 9.74 46.553 8.884 46.553 8.884 46.553zM11.501 43.598L12.645 43.598C13.002 43.598 13.286 43.51 13.497 43.335 13.708 43.159 13.814 42.923 13.814 42.626 13.814 42.331 13.708 42.094 13.497 41.919 13.286 41.743 13.002 41.655 12.645 41.655L11.501 41.655 11.501 43.598zM11.501 44.281L11.501 46.553 10.67 46.553 10.67 40.955 12.645 40.955C13.265 40.955 13.757 41.105 14.119 41.404 14.481 41.703 14.662 42.111 14.662 42.626 14.662 43.016 14.552 43.345 14.333 43.614 14.113 43.884 13.812 44.073 13.427 44.182L14.786 46.553 13.839 46.553 12.563 44.281 11.501 44.281 11.501 44.281z"/>
    <polyline fill="#404040" points="17.049 46.553 17.049 41.655 15.164 41.655 15.164 40.955 19.766 40.955 19.766 41.655 17.881 41.655 17.881 46.553 17.049 46.553"/>
    <path fill="#404040" d="M25.107,45.919 C25.47,45.919 25.792,45.827 26.074,45.643 C26.357,45.46 26.578,45.205 26.737,44.882 C26.896,44.558 26.976,44.182 26.976,43.754 C26.976,43.326 26.896,42.951 26.737,42.626 C26.578,42.303 26.357,42.049 26.074,41.865 C25.792,41.681 25.47,41.59 25.107,41.59 C24.745,41.59 24.424,41.681 24.144,41.865 C23.864,42.049 23.645,42.303 23.486,42.626 C23.326,42.951 23.247,43.326 23.247,43.754 C23.247,44.182 23.326,44.558 23.486,44.882 C23.645,45.205 23.864,45.46 24.144,45.643 C24.424,45.827 24.745,45.919 25.107,45.919 Z M25.107,46.643 C24.58,46.643 24.114,46.52 23.708,46.273 C23.302,46.026 22.982,45.686 22.749,45.252 C22.516,44.818 22.399,44.319 22.399,43.754 C22.399,43.189 22.516,42.69 22.749,42.256 C22.982,41.823 23.302,41.482 23.708,41.235 C24.114,40.989 24.58,40.865 25.107,40.865 C25.634,40.865 26.102,40.989 26.511,41.235 C26.919,41.482 27.241,41.823 27.474,42.256 C27.707,42.69 27.824,43.189 27.824,43.754 C27.824,44.319 27.707,44.818 27.474,45.252 C27.241,45.686 26.919,46.026 26.511,46.273 C26.102,46.52 25.634,46.643 25.107,46.643 L25.107,46.643 Z"/>
    <polyline fill="#404040" points="29.824 46.553 28.993 46.553 28.993 40.955 32.474 40.955 32.474 41.655 29.824 41.655 29.824 43.549 32.071 43.549 32.071 44.248 29.824 44.248 29.824 46.553"/>
    <polyline fill="#404040" points="36.812 46.553 36.812 41.655 34.927 41.655 34.927 40.955 39.528 40.955 39.528 41.655 37.643 41.655 37.643 46.553 36.812 46.553"/>
    <polyline fill="#404040" points="40.483 46.553 40.483 40.955 41.314 40.955 41.314 43.351 44.203 43.351 44.203 40.955 45.035 40.955 45.035 46.553 44.203 46.553 44.203 44.067 41.314 44.067 41.314 46.553 40.483 46.553"/>
    <polyline fill="#404040" points="46.5 46.553 46.5 40.955 50.089 40.955 50.089 41.655 47.331 41.655 47.331 43.383 49.76 43.383 49.76 44.083 47.331 44.083 47.331 45.853 50.155 45.853 50.155 46.553 46.5 46.553"/>
    <path fill="#404040" d="M55.406 45.919C55.862 45.919 56.22 45.782 56.48 45.508 56.741 45.233 56.871 44.863 56.871 44.396L56.871 40.955 57.702 40.955 57.702 44.405C57.702 45.102 57.498 45.649 57.089 46.047 56.68 46.444 56.119 46.643 55.406 46.643 54.693 46.643 54.133 46.444 53.727 46.047 53.321 45.649 53.118 45.102 53.118 44.405L53.118 40.955 53.949 40.955 53.949 44.396C53.949 44.863 54.079 45.233 54.34 45.508 54.601 45.782 54.956 45.919 55.406 45.919M60.806 46.643C60.383 46.643 59.98 46.569 59.596 46.421 59.212 46.273 58.902 46.076 58.666 45.828L59.135 45.277C59.354 45.48 59.613 45.639 59.913 45.754 60.212 45.869 60.509 45.927 60.806 45.927 61.168 45.927 61.46 45.857 61.682 45.718 61.905 45.578 62.016 45.384 62.016 45.137 62.016 44.912 61.936 44.722 61.777 44.569 61.618 44.415 61.346 44.287 60.962 44.182L60.188 43.977C59.689 43.844 59.326 43.658 59.098 43.417 58.87 43.175 58.756 42.859 58.756 42.47 58.756 42.152 58.841 41.872 59.012 41.631 59.182 41.389 59.416 41.201 59.715 41.067 60.014 40.932 60.353 40.865 60.732 40.865 61.132 40.865 61.508 40.941 61.859 41.092 62.211 41.242 62.521 41.452 62.789 41.721L62.287 42.264C62.051 42.045 61.806 41.876 61.551 41.758 61.296 41.64 61.025 41.581 60.74 41.581 60.394 41.581 60.112 41.654 59.892 41.799 59.673 41.945 59.563 42.146 59.563 42.404 59.563 42.641 59.641 42.824 59.798 42.955 59.954 43.088 60.194 43.197 60.518 43.285L61.382 43.524C61.881 43.661 62.246 43.853 62.477 44.099 62.707 44.347 62.823 44.654 62.823 45.022 62.823 45.345 62.738 45.629 62.567 45.873 62.397 46.118 62.161 46.307 61.859 46.441 61.558 46.576 61.206 46.643 60.806 46.643M64.913 44.446L66.954 44.446 65.934 41.82 64.913 44.446zM67.769 46.553L67.226 45.146 64.641 45.146 64.098 46.553 63.259 46.553 65.497 40.955 66.395 40.955 68.625 46.553 67.769 46.553 67.769 46.553z"/>
    <polyline fill="#404040" points="72.494 46.553 72.494 41.655 70.609 41.655 70.609 40.955 75.21 40.955 75.21 41.655 73.325 41.655 73.325 46.553 72.494 46.553"/>
    <path fill="#404040" d="M78.206 45.919C78.568 45.919 78.89 45.827 79.173 45.643 79.456 45.46 79.677 45.205 79.836 44.882 79.995 44.558 80.075 44.182 80.075 43.754 80.075 43.326 79.995 42.951 79.836 42.626 79.677 42.303 79.456 42.049 79.173 41.865 78.89 41.681 78.568 41.59 78.206 41.59 77.844 41.59 77.523 41.681 77.243 41.865 76.963 42.049 76.744 42.303 76.585 42.626 76.425 42.951 76.346 43.326 76.346 43.754 76.346 44.182 76.425 44.558 76.585 44.882 76.744 45.205 76.963 45.46 77.243 45.643 77.523 45.827 77.844 45.919 78.206 45.919zM78.206 46.643C77.679 46.643 77.213 46.52 76.807 46.273 76.401 46.026 76.081 45.686 75.848 45.252 75.615 44.818 75.498 44.319 75.498 43.754 75.498 43.189 75.615 42.69 75.848 42.256 76.081 41.823 76.401 41.482 76.807 41.235 77.213 40.989 77.679 40.865 78.206 40.865 78.733 40.865 79.201 40.989 79.609 41.235 80.018 41.482 80.339 41.823 80.572 42.256 80.806 42.69 80.922 43.189 80.922 43.754 80.922 44.319 80.806 44.818 80.572 45.252 80.339 45.686 80.018 46.026 79.609 46.273 79.201 46.52 78.733 46.643 78.206 46.643L78.206 46.643zM82.923 45.853L84.059 45.853C84.454 45.853 84.793 45.767 85.075 45.594 85.358 45.421 85.575 45.178 85.726 44.865 85.877 44.553 85.952 44.182 85.952 43.754 85.952 43.326 85.877 42.955 85.726 42.643 85.575 42.331 85.358 42.088 85.075 41.914 84.793 41.741 84.454 41.655 84.059 41.655L82.923 41.655 82.923 45.853zM82.092 46.553L82.092 40.955 84.059 40.955C84.607 40.955 85.088 41.072 85.499 41.306 85.911 41.539 86.23 41.865 86.458 42.285 86.686 42.705 86.8 43.194 86.8 43.754 86.8 44.314 86.686 44.804 86.458 45.223 86.23 45.643 85.911 45.97 85.499 46.203 85.088 46.437 84.607 46.553 84.059 46.553L82.092 46.553 82.092 46.553zM88.923 44.446L90.965 44.446 89.944 41.82 88.923 44.446zM91.78 46.553L91.236 45.146 88.652 45.146 88.108 46.553 87.269 46.553 89.508 40.955 90.405 40.955 92.636 46.553 91.78 46.553 91.78 46.553z"/>
    <polyline fill="#404040" points="95.187 44.33 95.187 46.553 94.356 46.553 94.356 44.33 92.389 40.955 93.368 40.955 94.776 43.54 96.183 40.955 97.146 40.955 95.187 44.33"/>
    <polyline fill="#404040" points="103.797 46.553 100.809 42.264 100.809 46.553 100.027 46.553 100.027 40.955 100.801 40.955 103.797 45.244 103.797 40.955 104.57 40.955 104.57 46.553 103.797 46.553"/>
    <polyline fill="#404040" points="106.036 46.553 106.036 40.955 109.625 40.955 109.625 41.655 106.867 41.655 106.867 43.383 109.295 43.383 109.295 44.083 106.867 44.083 106.867 45.853 109.69 45.853 109.69 46.553 106.036 46.553"/>
    <polyline fill="#404040" points="112.16 46.553 112.16 41.655 110.275 41.655 110.275 40.955 114.876 40.955 114.876 41.655 112.991 41.655 112.991 46.553 112.16 46.553"/>
    <polyline fill="#404040" points="120.309 46.553 119 42.092 117.691 46.553 116.827 46.553 115.337 40.955 116.16 40.955 117.296 45.384 118.605 40.955 119.395 40.955 120.712 45.4 121.856 40.955 122.663 40.955 121.173 46.553 120.309 46.553"/>
    <path fill="#404040" d="M125.964 45.919C126.326 45.919 126.648 45.827 126.931 45.643 127.213 45.46 127.434 45.205 127.593 44.882 127.753 44.558 127.832 44.182 127.832 43.754 127.832 43.326 127.753 42.951 127.593 42.626 127.434 42.303 127.213 42.049 126.931 41.865 126.648 41.681 126.326 41.59 125.964 41.59 125.601 41.59 125.28 41.681 125 41.865 124.721 42.049 124.501 42.303 124.342 42.626 124.183 42.951 124.104 43.326 124.104 43.754 124.104 44.182 124.183 44.558 124.342 44.882 124.501 45.205 124.721 45.46 125 45.643 125.28 45.827 125.601 45.919 125.964 45.919zM125.964 46.643C125.437 46.643 124.97 46.52 124.564 46.273 124.158 46.026 123.839 45.686 123.605 45.252 123.372 44.818 123.256 44.319 123.256 43.754 123.256 43.189 123.372 42.69 123.605 42.256 123.839 41.823 124.158 41.482 124.564 41.235 124.97 40.989 125.437 40.865 125.964 40.865 126.491 40.865 126.958 40.989 127.367 41.235 127.776 41.482 128.097 41.823 128.33 42.256 128.563 42.69 128.68 43.189 128.68 43.754 128.68 44.319 128.563 44.818 128.33 45.252 128.097 45.686 127.776 46.026 127.367 46.273 126.958 46.52 126.491 46.643 125.964 46.643L125.964 46.643zM130.68 43.598L131.824 43.598C132.181 43.598 132.465 43.51 132.676 43.335 132.887 43.159 132.993 42.923 132.993 42.626 132.993 42.331 132.887 42.094 132.676 41.919 132.465 41.743 132.181 41.655 131.824 41.655L130.68 41.655 130.68 43.598zM130.68 44.281L130.68 46.553 129.849 46.553 129.849 40.955 131.824 40.955C132.444 40.955 132.936 41.105 133.297 41.404 133.66 41.703 133.841 42.111 133.841 42.626 133.841 43.016 133.731 43.345 133.511 43.614 133.292 43.884 132.99 44.073 132.606 44.182L133.964 46.553 133.018 46.553 131.742 44.281 130.68 44.281 130.68 44.281z"/>
    <polyline fill="#404040" points="138.359 46.553 135.849 43.729 135.849 46.553 135.018 46.553 135.018 40.955 135.849 40.955 135.849 43.409 138.195 40.955 139.224 40.955 136.73 43.524 139.405 46.553 138.359 46.553"/>
    <path class="no-color-change" fill="#009BFF" d="M199.123,10.291 C197.834,10.291 196.731,9.834 195.817,8.919 C194.901,8.004 194.444,6.902 194.444,5.612 C194.444,4.322 194.901,3.219 195.817,2.304 C196.731,1.389 197.834,0.931 199.123,0.931 C200.413,0.931 201.516,1.389 202.432,2.304 C203.346,3.219 203.804,4.322 203.804,5.612 C203.804,6.902 203.346,8.004 202.432,8.919 C201.516,9.834 200.413,10.291 199.123,10.291"/>
  </g>
</svg>
