<svg xmlns="http://www.w3.org/2000/svg" xmlns:xlink="http://www.w3.org/1999/xlink" width="719" height="192" viewBox="0 0 719 192">
  <defs>
    <style>
      .cls-1 {
        filter: url(#filter);
      }

      .cls-2 {
        fill: #fff;
      }

      .cls-2, .cls-3 {
        fill-rule: evenodd;
      }

      .cls-3 {
        fill: #999;
      }
    </style>
    <filter id="filter" filterUnits="userSpaceOnUse">
      <feFlood result="flood" flood-color="#333"/>
      <feComposite result="composite" operator="in" in2="SourceGraphic"/>
      <feBlend result="blend" in2="SourceGraphic"/>
    </filter>
  </defs>
  <g id="elpasotimes" class="cls-1">
    <path class="cls-2" d="M348.54,21.73a21.871,21.871,0,0,0-31-19.744l13.566,41.054A21.777,21.777,0,0,0,348.54,21.73ZM319.394,45.161h8.2L312.265,1.128H175.849L161.538,46.916H169.2s5.12-12.211,9.195-19.33S192.187,13.7,200.373,13.7H227.44V32.95a29.413,29.413,0,0,1,3.331,1.268,11.149,11.149,0,0,0,2.832.988c0.888-.216,3.309-2.665,4.994-5.045l1.118-1.578,9.156,3.044-3.2,7.188a14.281,14.281,0,0,1-6.943,6.791,80.466,80.466,0,0,1-2.516,18.929,28.148,28.148,0,0,1-8.776,13.13v63.355c0,11.194-16.853,12.207-16.853,12.207v5.6h69.492v-6.1c-13.8,0-19.829-8.137-19.829-15.26V13.619H287c12.665,0,16.187,6.3,23.935,14.721S319.394,45.161,319.394,45.161Zm26.6,98.907v-94.1H305.621v4.579h7.67c2.036,2.031,5.107,1.013,5.107,10.168v81.4c0,3.553-5.107,7.11-12.267,7.11v5.6h51.1v-5.6S345.993,153.222,345.993,144.068Zm177.815,2.039V71.326c0-10.681-12.787-24.923-29.64-24.923-15.835,0-29.631,19.839-29.631,19.839-6.652-12.2-16.355-19.839-29.124-19.839-15.341,0-28.612,18.826-28.612,18.826V49.456H363.877v5.6c5.613,0,11.747,7.119,11.747,11.189v78.843c0,8.65-11.24,7.119-11.24,7.119v6.61h54.674v-4.579c-5.106,0-11.746-3.048-11.746-6.1V80.484c0-9.159,10.222-16.786,14.817-16.786S434.9,66.746,434.9,78.958v80.369h42.408v-6.11c-7.662,0-12.271-3.557-12.271-8.641V77.436c0-5.593,9.2-12.207,15.342-12.207s12.258,6.1,12.258,11.694v81.892h42.417v-5.6C529.434,153.222,523.808,149.156,523.808,146.107ZM689.36,90.151c-14.809-6.11-31.168-12.707-31.168-22.888s9.187-12.72,17.884-12.72,17.373,4.071,21.968,12.72a72.889,72.889,0,0,1,6.138,14.742h9.195V46.4h-7.16v5.084h-6.644S684.764,46.4,676.6,45.9s-25.044,1.518-34.24,11.189-11.24,32.559-1.533,42.222,28.1,15.255,36.782,21.361c8.7,6.106,17.88,10.176,14.83,19.839-3.071,9.663-17.381,13.734-28.613,9.663S644.9,140,643.378,133.387a63.176,63.176,0,0,1-1.537-12.716h-9.2V160.85H639.3s-0.017-4.062,2.543-6.106,7.151-.953,12.777,1.022c8.689,3.053,25.651,6.33,36.795,3.561,12.266-3.057,27.075-18.317,27.075-34.081C718.48,113.039,704.182,96.257,689.36,90.151ZM573.367,126.272c-7.151-10.176-6.134-28.493-6.134-28.493h56.213s3.062-7.628-1.027-23.91-17.88-29.5-39.346-29.5c-20.933,0-33.49,11.3-41.39,27.976-8.178,17.3-3.95,53.908,4.08,68.672,6.662,12.207,20.964,19.33,32.71,19.33,11.253,0,21.466-3.052,29.133-8.14s19.409-21.362,19.409-21.362l-7.143-4.07C597.384,152.713,580.531,136.436,573.367,126.272Zm-4.08-58.5c2.035-7.636,6.124-14.751,13.782-14.751s13.284,7.119,13.284,13.733,0.52,22.383.52,22.383H567.74S567.233,75.4,569.287,67.768Zm-542.9,4.838c-4.6,3.049-9.581,15.264-8.819,20.982,0.78,5.722,7.662,5.338,10.352,4.95,2.672-.375,7.276-4.95,7.276-4.95l1.533,4.2a77.08,77.08,0,0,0-10.347,9.159c-4.985,5.342-9.581,16.4-11.881,22.12S8.754,143.179,16.8,148.9s19.153-.754,24.147-5.334,5.739-13.737,5.739-13.737l5.752-.38s-0.758-13.354,0-27.85,6.137-25.941,9.2-35.858,8.429-15.26,10.729-14.5,3.751,6.244,1.533,21.366c-2.3,15.635-11.114,38.911-15.324,44.254-2.374,3-.771,9.15-0.771,9.15,2.291,8.4,7.666.767,7.666,0.767s2.291,6.1-1.533,8.395c-3.842,2.286-9.962-2.19-9.962-2.19H48.62s1.533,18.972-17.641,25.074C11.83,164.165-.428,153.48.33,140.51s16.1-33.568,16.1-33.568C8.763,106.174,5.346,97.18,5.7,90.151c0.377-7.636,7.662-22.12,21.453-26.7S48.625,68.79,48.625,75.655s-6.133,6.106-8.433,2.29,3.062-5.338,3.062-5.338C40.187,65.733,30.974,69.549,26.388,72.606ZM66.27,80.747c-2.711-.517-4.08,4.575-6.644,15.51s0,12.716,0,12.716,4.344-7.632,5.614-14.247C66.465,88.431,68.977,81.252,66.27,80.747Zm17.594-7.766c4.219-6.489,11.755-15.9,18.408-21.495,6.632-5.6,23-14.747,28.1-7.628s-2.044,24.927-9.715,36.621-23.493,21.361-23.493,21.361,0.507-13.733,2.542-21.866,6.653-23.4,6.653-23.4h-4.348S95.364,71.321,91.531,82.511a66.557,66.557,0,0,0-3.058,22.9H82.859v3.562h3.058v10.68c0,4.579-2.053,11.194-.515,17.3s1.538,7.632,5.631,7.632c4.076,0,5.613-4.58,6.631-7.119s-2.556-8.65-2.556-8.65c-0.507-5.084,1.538-21.365,1.538-21.365,28.617-13.221,45.982-43.24,46.488-56.969s-13.561-15.751-21.96-14.751C112.611,36.744,96.135,47.42,88.98,55.052A54.62,54.62,0,0,0,78.5,72.218Zm75.5-9.917,5.756,0.129s-0.519,4.579-1.026,7.119c-0.4,2.009-2.642,3.773-3.73,7.279-1.3,4.131-3.937,7.986-4.448,12.056s3.591,3.044,5.627-.509S170.738,74.9,173.8,70.317s9.2-15.26,9.2-15.26l5.613-13.733h4.089a114.049,114.049,0,0,0-1.525,17.295c0,8.65,1.525,6.615,3.062,9.663s1.018,7.632,1.018,7.632c2.551-2.039,9.2-7.119,9.2-7.119a50.584,50.584,0,0,1,3.062-15.268c3.063-8.637,8.789-16.536,15.45-18.308,3.95-1.048,8.438,3.053,11.119,2.544s6.64-6.106,6.64-6.106l4.6,1.526-2.045,4.579c-2.044,4.575-7.151,6.106-7.151,6.106s0.152,10.763-2.421,19.964c-2.694,9.529-13.8,17.933-20.574,17.675-4.6-.168-10.213-7.624-10.213-7.624a98.911,98.911,0,0,1-7.541,6.735c-3.153,2.436-4.6,8.011-10.352,11.064-5.826,3.1-14.809,1.009-14.809,1.009l1.529-7.636a28.874,28.874,0,0,0,11.249-2.54c5.106-2.535,4.457-8.9,2.036-13.212-2.235-4-4.081-4.579-4.081-4.579S165.636,89.138,163.071,93.2c-2.542,4.066-6.124,8.645-8.675,10.689s-8.7,1.013-8.7,1.013c-1.525,2.54-8.169,5.593-10.733,6.1s-11.747-1.527-7.139-17.3C132.414,77.94,141.61,69.8,146.21,67.259s12.266,0.5,12.266.5Zm-8.052,8.779c-3.314-.987-8.048,4.191-11.119,10.3-3.053,6.106-5.353,19.46-3.053,20.223s7.281-.768,10.343-11.448S155.154,72.981,151.312,71.843Zm77.925-24.677-3.582-.513s-2.551-2.54-4.08-2.54-5.882,9.158-7.931,15.518-0.766,12.712,2.045,13.984,9.455-7.632,11.5-13.483S229.744,50.219,229.237,47.166Z"/>
    <path id="USAT_Network" data-name="USAT Network" class="cls-3" d="M123.843,171.762h5.771c4.058,0,6.773,2.4,6.773,6.1s-2.771,6.095-6.773,6.095h-2.943v7.623h-2.828V171.762Zm5.486,9.856c2.715,0,4.171-1.5,4.171-3.756,0-2.233-1.456-3.756-4.171-3.756h-2.658v7.512h2.658Zm15.13-9.856h2.515L155.2,191.58h-3.031l-2.054-5.192h-8.886l-2.057,5.192H136.2S143.457,174.193,144.459,171.762Zm4.713,12.282-1.914-4.882c-0.284-.736-1.515-3.787-1.543-4.041h-0.057c-0.028.254-1.227,3.218-1.543,4.041l-1.941,4.882h7Zm8.9-12.282h5.8c3.741,0,6.657,1.924,6.657,5.872,0,3.081-2.058,5.11-5.085,5.593l6.144,8.353h-3.317l-5.8-8.075H160.9v8.075h-2.829V171.762Zm5.487,9.46c2.627,0,4.114-1.386,4.114-3.557s-1.487-3.559-4.114-3.559H160.9v7.116h2.658Zm14.814-7.06h-5.715v-2.4h14.257v2.4H181.2V191.58h-2.827V174.162Zm15.875,7.512a10.545,10.545,0,1,1,10.543,10.3A10.112,10.112,0,0,1,194.249,181.674Zm18.171,0a7.645,7.645,0,1,0-7.656,7.79A7.425,7.425,0,0,0,212.42,181.674Zm6.985-9.912H229.52v2.4h-7.287v6.38h7.058v2.4h-7.058v8.638h-2.828V171.762Zm22.905,2.4H236.6v-2.4h14.256v2.4h-5.714V191.58H242.31V174.162Zm11.511-2.4h2.827v8.13h10.515v-8.13h2.831V191.58h-2.831v-9.288H256.648v9.288h-2.827V171.762Zm21.383,0h10.915v2.376h-8.087v5.754h7.856v2.376h-7.856v6.942h8.257v2.37H275.2V171.762Zm20.566,12.987V171.762h2.856V183.9c0,3.447,1.487,5.563,4.829,5.563,3.371,0,4.859-2.116,4.859-5.563V171.762h2.856v12.987c0,4.35-2.828,7.227-7.715,7.227C298.541,191.976,295.77,189.1,295.77,184.749ZM314.122,188l1.917-1.609a5.812,5.812,0,0,0,5.028,3.131c2.2,0,3.914-1.182,3.914-3.359,0-2.34-1.972-3.131-4.43-4.09-2.514-.99-5.057-2.234-5.057-5.4,0-3.13,2.458-5.3,6.059-5.3a6.745,6.745,0,0,1,5.887,2.989l-1.917,1.608a4.567,4.567,0,0,0-3.97-2.147c-1.945,0-3.229.99-3.229,2.655,0,2.06,2,2.741,3.742,3.415,2.828,1.1,5.743,2.431,5.743,6.069,0,3.447-2.571,6.015-6.685,6.015A7.8,7.8,0,0,1,314.122,188Zm23.454-16.235h2.513l8.229,19.818h-3.03l-2.054-5.192h-8.887l-2.058,5.192h-2.971S336.573,174.193,337.576,171.762Zm4.712,12.282-1.913-4.882c-0.286-.736-1.516-3.787-1.544-4.041h-0.056c-0.028.254-1.228,3.218-1.545,4.041l-1.941,4.882h7Zm17.97-9.882h-5.714v-2.4H368.8v2.4h-5.714V191.58h-2.828V174.162Zm9.6,7.512a10.546,10.546,0,1,1,10.544,10.3A10.112,10.112,0,0,1,369.861,181.674Zm18.171,0a7.645,7.645,0,1,0-7.656,7.79A7.424,7.424,0,0,0,388.032,181.674Zm6.986-9.912H400.7c6.4,0,10.628,3.613,10.628,9.912,0,6.267-4.258,9.906-10.628,9.906h-5.686V171.762Zm2.827,17.417h2.63c4.685,0,7.941-2.45,7.941-7.5s-3.256-7.512-7.941-7.512h-2.63v15.017Zm22.677-17.417h2.514l8.229,19.818h-3.031l-2.054-5.192h-8.887l-2.057,5.192h-2.971S419.52,174.193,420.522,171.762Zm4.713,12.282-1.914-4.882c-0.285-.736-1.515-3.787-1.544-4.041h-0.056c-0.028.254-1.227,3.218-1.544,4.041l-1.941,4.882h7Zm11.679-.539-6.83-11.743h3.173l3.714,6.608a29.268,29.268,0,0,1,1.427,2.821h0.028a29.787,29.787,0,0,1,1.432-2.821l3.741-6.608h3.084l-6.825,11.743v8.075h-2.944v-8.075Zm18.08-11.743h2.17l11.372,12.845c0.342,0.371,1.829,2.2,1.973,2.487l0.056-.031c-0.056-.279-0.056-2.568-0.056-3.075V171.762h2.743V191.58h-2.2l-11.373-12.845c-0.341-.365-1.829-2.2-1.969-2.481l-0.028.024c0.028,0.285.055,2.575,0.055,3.081V191.58h-2.742V171.762Zm23.469,0h10.911v2.376H481.29v5.754h7.859v2.376H481.29v6.942h8.257v2.37H478.463V171.762Zm19.76,2.4h-5.714v-2.4h14.257v2.4h-5.715V191.58h-2.828V174.162Zm10.9-2.4h3l4.115,11.774c0.144,0.452,1.114,3.385,1.142,3.836h0.06a39.282,39.282,0,0,1,1.2-3.836l4.287-11.774h2.257l4.284,11.774c0.172,0.452,1.171,3.385,1.2,3.836h0.056c0.057-.451,1.027-3.384,1.171-3.836l4.086-11.774h2.884l-7.058,19.818h-2.17l-4.627-12.362a32.406,32.406,0,0,1-.974-3.218h-0.057a33.1,33.1,0,0,1-1,3.218l-4.6,12.362h-2.174Zm31.009,9.912a10.546,10.546,0,1,1,10.543,10.3A10.112,10.112,0,0,1,540.132,181.674Zm18.171,0a7.645,7.645,0,1,0-7.656,7.79A7.424,7.424,0,0,0,558.3,181.674Zm6.985-9.912h5.8c3.746,0,6.657,1.924,6.657,5.872,0,3.081-2.057,5.11-5.085,5.593l6.144,8.353h-3.316l-5.8-8.075h-1.572v8.075h-2.828V171.762Zm5.487,9.46c2.627,0,4.114-1.386,4.114-3.557s-1.487-3.559-4.114-3.559h-2.659v7.116h2.659Zm11.231-9.46h2.828v9.206l8.285-9.206h3.429l-8.6,9.46,9,10.358h-3.541l-8.573-10.018V191.58h-2.828V171.762Z"/>
  </g>
</svg>
