<svg xmlns="http://www.w3.org/2000/svg" width="333" height="36" viewBox="0 0 333 36">
  <g fill="none" fill-rule="evenodd">
    <path fill="#FFFFFE" d="M16.357 35.393C13.236 35.393 10.499 34.718 8.144 33.368 5.789 32.018 3.944 30.15 2.609 27.766 1.274 25.38.607 22.613.607 19.463.607 16.313 1.274 13.553 2.609 11.183 3.944 8.814 5.789 6.961 8.144 5.625 10.499 4.291 13.236 3.623 16.357 3.623 18.996 3.623 21.374 4.156 23.489 5.221 25.604 6.286 27.411 7.823 28.912 9.833L22.297 13.748C21.516 12.758 20.639 11.978 19.664 11.408 18.689 10.838 17.557 10.553 16.267 10.553 14.136 10.553 12.412 11.356 11.092 12.961 9.771 14.566 9.112 16.733 9.112 19.463 9.112 22.193 9.771 24.376 11.092 26.01 12.412 27.646 14.136 28.463 16.267 28.463 17.587 28.463 18.757 28.141 19.777 27.495 20.796 26.851 21.651 26.093 22.342 25.223L28.912 29.138C27.442 31.178 25.634 32.73 23.489 33.796 21.344 34.86 18.967 35.393 16.357 35.393M43.672 29.183C45.051 29.183 46.154 28.65 46.979 27.586 47.804 26.521 48.217 25.104 48.217 23.333 48.217 21.563 47.804 20.153 46.979 19.103 46.154 18.053 45.051 17.528 43.672 17.528 42.292 17.528 41.189 18.053 40.364 19.103 39.539 20.153 39.127 21.563 39.127 23.333 39.127 25.104 39.539 26.521 40.364 27.586 41.189 28.65 42.292 29.183 43.672 29.183zM43.672 35.393C41.212 35.393 39.044 34.875 37.169 33.84 35.294 32.806 33.824 31.388 32.759 29.588 31.694 27.788 31.162 25.703 31.162 23.333 31.162 20.963 31.694 18.878 32.759 17.078 33.824 15.278 35.294 13.868 37.169 12.848 39.044 11.828 41.212 11.318 43.672 11.318 46.131 11.318 48.299 11.828 50.174 12.848 52.049 13.868 53.519 15.278 54.584 17.078 55.649 18.878 56.182 20.963 56.182 23.333 56.182 25.703 55.649 27.788 54.584 29.588 53.519 31.388 52.049 32.806 50.174 33.84 48.299 34.875 46.131 35.393 43.672 35.393L43.672 35.393zM75.397 34.808L74.992 31.793C74.241 32.903 73.259 33.78 72.044 34.425 70.829 35.07 69.516 35.393 68.107 35.393 65.436 35.393 63.396 34.605 61.987 33.03 60.576 31.455 59.872 29.183 59.872 26.213L59.872 11.903 67.701 11.903 67.701 25.313C67.701 27.803 68.841 29.048 71.122 29.048 73.521 29.048 74.721 27.548 74.721 24.548L74.721 11.903 82.552 11.903 82.552 34.808 75.397 34.808M95.871 25.943L95.871 34.808 88.041 34.808 88.041 11.903 95.196 11.903 95.691 15.728C96.171 14.498 96.958 13.5 98.054 12.735 99.148 11.971 100.416 11.588 101.856 11.588 102.666 11.588 103.281 11.693 103.701 11.903L103.701 19.058C103.371 18.939 103.004 18.849 102.599 18.788 102.194 18.728 101.736 18.698 101.226 18.698 99.666 18.698 98.383 19.276 97.379 20.431 96.373 21.586 95.871 23.423 95.871 25.943M107.481 34.808L107.481 11.903C108.741 12.173 110.016 12.308 111.306 12.308 112.626 12.308 113.961 12.173 115.311 11.903L115.311 34.808 107.481 34.808M131.645 16.988C129.095 16.988 127.565 18.338 127.055 21.038L135.785 21.038C135.575 19.568 135.072 18.525 134.278 17.91 133.482 17.296 132.605 16.988 131.645 16.988zM142.355 32.468C141.215 33.278 139.768 33.968 138.013 34.538 136.258 35.108 134.39 35.393 132.41 35.393 129.68 35.393 127.348 34.89 125.413 33.885 123.478 32.881 121.993 31.478 120.958 29.678 119.923 27.878 119.405 25.808 119.405 23.468 119.405 21.099 119.915 18.998 120.935 17.168 121.955 15.338 123.365 13.905 125.165 12.87 126.965 11.836 129.065 11.318 131.465 11.318 133.805 11.318 135.867 11.82 137.653 12.825 139.437 13.831 140.832 15.226 141.838 17.01 142.843 18.796 143.345 20.888 143.345 23.288 143.345 23.618 143.323 23.963 143.278 24.323 143.233 24.683 143.18 25.059 143.12 25.448L127.145 25.448C127.865 28.088 129.83 29.408 133.04 29.408 134.48 29.408 135.755 29.183 136.865 28.733 137.975 28.283 138.905 27.833 139.655 27.383L142.355 32.468 142.355 32.468zM155.18 25.943L155.18 34.808 147.35 34.808 147.35 11.903 154.505 11.903 155 15.728C155.48 14.498 156.267 13.5 157.363 12.735 158.457 11.971 159.725 11.588 161.165 11.588 161.975 11.588 162.59 11.693 163.01 11.903L163.01 19.058C162.68 18.939 162.313 18.849 161.908 18.788 161.503 18.728 161.045 18.698 160.535 18.698 158.975 18.698 157.692 19.276 156.688 20.431 155.682 21.586 155.18 23.423 155.18 25.943M183.784 11.633C183.784 12.144 183.942 12.676 184.257 13.231 184.572 13.786 185.134 14.528 185.944 15.458L186.799 15.188C187.699 14.889 188.411 14.423 188.937 13.793 189.461 13.163 189.724 12.443 189.724 11.633 189.724 10.793 189.447 10.11 188.892 9.586 188.336 9.061 187.624 8.798 186.754 8.798 185.914 8.798 185.209 9.068 184.639 9.608 184.069 10.148 183.784 10.823 183.784 11.633zM181.039 25.763C181.039 26.963 181.541 27.931 182.547 28.665 183.552 29.401 184.894 29.768 186.574 29.768 187.864 29.768 189.049 29.528 190.129 29.048L183.334 21.938C181.804 22.748 181.039 24.024 181.039 25.763zM195.664 34.808L194.134 33.233C191.824 34.583 189.109 35.258 185.989 35.258 183.619 35.258 181.541 34.882 179.757 34.133 177.971 33.383 176.584 32.326 175.594 30.961 174.604 29.596 174.109 27.998 174.109 26.168 174.109 24.368 174.582 22.741 175.527 21.285 176.471 19.831 177.784 18.668 179.464 17.798 178.564 16.689 177.904 15.646 177.484 14.671 177.064 13.696 176.854 12.684 176.854 11.633 176.854 10.043 177.282 8.626 178.137 7.38 178.992 6.136 180.161 5.153 181.647 4.433 183.132 3.713 184.834 3.353 186.754 3.353 188.674 3.353 190.377 3.713 191.862 4.433 193.346 5.153 194.517 6.136 195.372 7.38 196.227 8.626 196.654 10.043 196.654 11.633 196.654 13.463 196.061 15.053 194.877 16.403 193.691 17.753 192.004 18.818 189.814 19.598L194.494 24.593C195.214 23.153 195.679 21.473 195.889 19.553L201.559 20.318C201.138 23.738 200.164 26.618 198.634 28.958L204.079 34.808 195.664 34.808 195.664 34.808zM224.354 18.203L228.404 18.203C229.693 18.203 230.714 17.865 231.464 17.191 232.213 16.516 232.589 15.623 232.589 14.513 232.589 13.403 232.213 12.51 231.464 11.836 230.714 11.16 229.693 10.823 228.404 10.823L224.354 10.823 224.354 18.203zM216.254 34.808L216.254 4.208 229.214 4.208C232.814 4.208 235.663 5.13 237.764 6.976 239.864 8.82 240.914 11.333 240.914 14.513 240.914 16.583 240.441 18.376 239.496 19.891 238.552 21.405 237.224 22.576 235.514 23.4 233.804 24.226 231.763 24.638 229.394 24.638L224.354 24.638 224.354 34.808 216.254 34.808 216.254 34.808zM252.748 25.943L252.748 34.808 244.918 34.808 244.918 11.903 252.073 11.903 252.568 15.728C253.048 14.498 253.835 13.5 254.93 12.735 256.025 11.971 257.293 11.588 258.733 11.588 259.543 11.588 260.158 11.693 260.578 11.903L260.578 19.058C260.247 18.939 259.881 18.849 259.475 18.788 259.071 18.728 258.613 18.698 258.103 18.698 256.543 18.698 255.26 19.276 254.256 20.431 253.25 21.586 252.748 23.423 252.748 25.943M275.203 16.988C272.653 16.988 271.122 18.338 270.613 21.038L279.343 21.038C279.133 19.568 278.63 18.525 277.835 17.91 277.04 17.296 276.162 16.988 275.203 16.988zM285.913 32.468C284.772 33.278 283.325 33.968 281.57 34.538 279.815 35.108 277.948 35.393 275.968 35.393 273.238 35.393 270.905 34.89 268.97 33.885 267.035 32.881 265.55 31.478 264.515 29.678 263.48 27.878 262.963 25.808 262.963 23.468 262.963 21.099 263.472 18.998 264.492 17.168 265.512 15.338 266.923 13.905 268.723 12.87 270.523 11.836 272.622 11.318 275.023 11.318 277.363 11.318 279.425 11.82 281.21 12.825 282.995 13.831 284.39 15.226 285.395 17.01 286.4 18.796 286.903 20.888 286.903 23.288 286.903 23.618 286.88 23.963 286.835 24.323 286.79 24.683 286.738 25.059 286.678 25.448L270.703 25.448C271.423 28.088 273.387 29.408 276.598 29.408 278.038 29.408 279.312 29.183 280.423 28.733 281.532 28.283 282.463 27.833 283.213 27.383L285.913 32.468 285.913 32.468zM299.412 35.393C297.432 35.393 295.58 35.078 293.855 34.448 292.13 33.818 290.577 32.918 289.198 31.748L292.528 27.338C293.577 28.178 294.71 28.861 295.925 29.385 297.14 29.911 298.332 30.173 299.503 30.173 300.283 30.173 300.905 30.038 301.37 29.768 301.835 29.498 302.068 29.093 302.068 28.553 302.068 27.983 301.805 27.525 301.28 27.181 300.755 26.836 299.818 26.498 298.468 26.168L296.307 25.628C292.017 24.488 289.872 22.193 289.872 18.743 289.872 17.213 290.292 15.893 291.133 14.783 291.972 13.673 293.127 12.818 294.597 12.218 296.067 11.618 297.777 11.318 299.727 11.318 301.647 11.318 303.455 11.618 305.15 12.218 306.845 12.818 308.397 13.688 309.807 14.828L306.388 19.328C305.337 18.488 304.227 17.814 303.057 17.303 301.888 16.793 300.792 16.538 299.773 16.538 298.122 16.538 297.298 17.078 297.298 18.158 297.298 18.638 297.545 19.028 298.04 19.328 298.535 19.628 299.233 19.899 300.133 20.138L303.057 20.948C305.247 21.548 306.867 22.448 307.917 23.648 308.967 24.848 309.492 26.274 309.492 27.923 309.492 29.423 309.072 30.735 308.233 31.86 307.392 32.985 306.215 33.855 304.7 34.471 303.185 35.085 301.422 35.393 299.412 35.393M322.272 35.393C320.292 35.393 318.44 35.078 316.715 34.448 314.99 33.818 313.437 32.918 312.057 31.748L315.388 27.338C316.437 28.178 317.57 28.861 318.785 29.385 320 29.911 321.192 30.173 322.363 30.173 323.142 30.173 323.764 30.038 324.23 29.768 324.695 29.498 324.928 29.093 324.928 28.553 324.928 27.983 324.664 27.525 324.14 27.181 323.615 26.836 322.678 26.498 321.327 26.168L319.167 25.628C314.877 24.488 312.732 22.193 312.732 18.743 312.732 17.213 313.152 15.893 313.992 14.783 314.832 13.673 315.987 12.818 317.457 12.218 318.927 11.618 320.637 11.318 322.587 11.318 324.507 11.318 326.315 11.618 328.01 12.218 329.704 12.818 331.257 13.688 332.667 14.828L329.247 19.328C328.197 18.488 327.087 17.814 325.917 17.303 324.747 16.793 323.652 16.538 322.633 16.538 320.982 16.538 320.158 17.078 320.158 18.158 320.158 18.638 320.405 19.028 320.9 19.328 321.395 19.628 322.093 19.899 322.992 20.138L325.917 20.948C328.107 21.548 329.727 22.448 330.777 23.648 331.827 24.848 332.352 26.274 332.352 27.923 332.352 29.423 331.932 30.735 331.093 31.86 330.252 32.985 329.075 33.855 327.56 34.471 326.045 35.085 324.282 35.393 322.272 35.393"/>
    <path fill="#009BFF" class="no-color-change" d="M111.306,10.103 C110.016,10.103 108.913,9.646 107.998,8.731 C107.083,7.816 106.626,6.713 106.626,5.423 C106.626,4.133 107.083,3.031 107.998,2.115 C108.913,1.201 110.016,0.743 111.306,0.743 C112.596,0.743 113.698,1.201 114.613,2.115 C115.528,3.031 115.986,4.133 115.986,5.423 C115.986,6.713 115.528,7.816 114.613,8.731 C113.698,9.646 112.596,10.103 111.306,10.103"/>
  </g>
</svg>
