<svg xmlns="http://www.w3.org/2000/svg" width="333" height="47" viewBox="0 0 333 47">
  <g fill="none" fill-rule="evenodd">
    <path fill="#FFFFFF" d="M5.347 43.38L6.497 43.38C6.875 43.38 7.174 43.287 7.394 43.101 7.614 42.915 7.724 42.661 7.724 42.34 7.724 42.019 7.614 41.765 7.394 41.579 7.174 41.393 6.875 41.3 6.497 41.3L5.347 41.3 5.347 43.38zM4.493 46.331L4.493 40.581 6.497 40.581C7.14 40.581 7.651 40.739 8.028 41.055 8.406 41.37 8.595 41.799 8.595 42.34 8.595 42.876 8.406 43.3 8.028 43.613 7.651 43.925 7.14 44.082 6.497 44.082L5.347 44.082 5.347 46.331 4.493 46.331zM10.32 44.166L12.417 44.166 11.369 41.469 10.32 44.166zM13.255 46.331L12.697 44.886 10.041 44.886 9.483 46.331 8.62 46.331 10.921 40.581 11.842 40.581 14.134 46.331 13.255 46.331zM15.944 43.295L17.119 43.295C17.486 43.295 17.778 43.205 17.994 43.026 18.212 42.845 18.32 42.602 18.32 42.297 18.32 41.993 18.212 41.751 17.994 41.571 17.778 41.39 17.486 41.3 17.119 41.3L15.944 41.3 15.944 43.295zM15.944 43.997L15.944 46.331 15.09 46.331 15.09 40.581 17.119 40.581C17.757 40.581 18.261 40.735 18.633 41.041 19.005 41.349 19.191 41.768 19.191 42.297 19.191 42.699 19.078 43.036 18.853 43.313 18.628 43.589 18.317 43.783 17.923 43.896L19.318 46.331 18.345 46.331 17.035 43.997 15.944 43.997z"/>
    <polyline fill="#FFFFFF" points="21.644 46.331 21.644 41.3 19.707 41.3 19.707 40.581 24.434 40.581 24.434 41.3 22.498 41.3 22.498 46.331 21.644 46.331"/>
    <path fill="#FFFFFF" d="M29.923,45.68 C30.295,45.68 30.626,45.586 30.917,45.398 C31.207,45.208 31.434,44.948 31.597,44.615 C31.76,44.283 31.843,43.896 31.843,43.456 C31.843,43.016 31.76,42.63 31.597,42.297 C31.434,41.965 31.207,41.704 30.917,41.516 C30.626,41.326 30.295,41.232 29.923,41.232 C29.551,41.232 29.221,41.326 28.933,41.516 C28.646,41.704 28.42,41.965 28.257,42.297 C28.093,42.63 28.011,43.016 28.011,43.456 C28.011,43.896 28.093,44.283 28.257,44.615 C28.42,44.948 28.646,45.208 28.933,45.398 C29.221,45.586 29.551,45.68 29.923,45.68 Z M29.923,46.425 C29.382,46.425 28.903,46.298 28.485,46.044 C28.068,45.79 27.739,45.441 27.5,44.995 C27.26,44.55 27.14,44.037 27.14,43.456 C27.14,42.876 27.26,42.363 27.5,41.917 C27.739,41.472 28.068,41.122 28.485,40.868 C28.903,40.615 29.382,40.488 29.923,40.488 C30.464,40.488 30.945,40.615 31.365,40.868 C31.784,41.122 32.114,41.472 32.354,41.917 C32.593,42.363 32.714,42.876 32.714,43.456 C32.714,44.037 32.593,44.55 32.354,44.995 C32.114,45.441 31.784,45.79 31.365,46.044 C30.945,46.298 30.464,46.425 29.923,46.425 Z"/>
    <polyline fill="#FFFFFF" points="34.769 46.331 33.915 46.331 33.915 40.581 37.492 40.581 37.492 41.3 34.769 41.3 34.769 43.245 37.077 43.245 37.077 43.963 34.769 43.963 34.769 46.331"/>
    <polyline fill="#FFFFFF" points="41.948 46.331 41.948 41.3 40.012 41.3 40.012 40.581 44.739 40.581 44.739 41.3 42.802 41.3 42.802 46.331 41.948 46.331"/>
    <polyline fill="#FFFFFF" points="45.72 46.331 45.72 40.581 46.574 40.581 46.574 43.042 49.543 43.042 49.543 40.581 50.397 40.581 50.397 46.331 49.543 46.331 49.543 43.778 46.574 43.778 46.574 46.331 45.72 46.331"/>
    <polyline fill="#FFFFFF" points="51.902 46.331 51.902 40.581 55.59 40.581 55.59 41.3 52.756 41.3 52.756 43.075 55.251 43.075 55.251 43.794 52.756 43.794 52.756 45.613 55.657 45.613 55.657 46.331 51.902 46.331"/>
    <path fill="#FFFFFF" d="M61.052 45.68C61.52 45.68 61.888 45.539 62.156 45.258 62.424 44.976 62.558 44.595 62.558 44.116L62.558 40.581 63.412 40.581 63.412 44.124C63.412 44.841 63.202 45.403 62.782 45.812 62.362 46.22 61.785 46.425 61.052 46.425 60.319 46.425 59.744 46.22 59.327 45.812 58.91 45.403 58.701 44.841 58.701 44.124L58.701 40.581 59.555 40.581 59.555 44.116C59.555 44.595 59.689 44.976 59.957 45.258 60.225 45.539 60.59 45.68 61.052 45.68M66.6 46.425C66.166 46.425 65.751 46.349 65.357 46.197 64.962 46.044 64.643 45.841 64.401 45.587L64.883 45.021C65.109 45.23 65.375 45.393 65.682 45.511 65.989 45.629 66.296 45.689 66.6 45.689 66.972 45.689 67.272 45.617 67.501 45.473 67.729 45.329 67.843 45.13 67.843 44.877 67.843 44.646 67.761 44.451 67.598 44.293 67.434 44.136 67.155 44.003 66.76 43.896L65.966 43.685C65.452 43.549 65.079 43.358 64.845 43.11 64.611 42.862 64.494 42.537 64.494 42.137 64.494 41.811 64.581 41.523 64.756 41.275 64.931 41.027 65.172 40.833 65.479 40.695 65.786 40.557 66.135 40.488 66.524 40.488 66.935 40.488 67.321 40.566 67.682 40.721 68.043 40.875 68.362 41.091 68.638 41.367L68.122 41.926C67.88 41.7 67.627 41.527 67.365 41.406 67.103 41.284 66.825 41.224 66.532 41.224 66.177 41.224 65.886 41.298 65.661 41.448 65.436 41.597 65.323 41.804 65.323 42.07 65.323 42.312 65.403 42.5 65.564 42.636 65.725 42.772 65.971 42.884 66.304 42.975L67.192 43.219C67.705 43.361 68.08 43.558 68.317 43.812 68.553 44.065 68.672 44.381 68.672 44.759 68.672 45.092 68.584 45.383 68.41 45.634 68.235 45.885 67.992 46.079 67.682 46.217 67.372 46.356 67.011 46.425 66.6 46.425M70.82 44.166L72.917 44.166 71.868 41.469 70.82 44.166zM73.755 46.331L73.196 44.886 70.541 44.886 69.983 46.331 69.12 46.331 71.421 40.581 72.342 40.581 74.634 46.331 73.755 46.331z"/>
    <polyline fill="#FFFFFF" points="78.609 46.331 78.609 41.3 76.672 41.3 76.672 40.581 81.399 40.581 81.399 41.3 79.463 41.3 79.463 46.331 78.609 46.331"/>
    <path fill="#FFFFFF" d="M84.478 45.68C84.85 45.68 85.181 45.586 85.471 45.398 85.761 45.208 85.988 44.948 86.152 44.615 86.316 44.283 86.398 43.896 86.398 43.456 86.398 43.016 86.316 42.63 86.152 42.297 85.988 41.965 85.761 41.704 85.471 41.516 85.181 41.326 84.85 41.232 84.478 41.232 84.106 41.232 83.776 41.326 83.488 41.516 83.201 41.704 82.975 41.965 82.812 42.297 82.648 42.63 82.567 43.016 82.567 43.456 82.567 43.896 82.648 44.283 82.812 44.615 82.975 44.948 83.201 45.208 83.488 45.398 83.776 45.586 84.106 45.68 84.478 45.68zM84.478 46.425C83.937 46.425 83.457 46.298 83.04 46.044 82.623 45.79 82.295 45.441 82.055 44.995 81.815 44.55 81.695 44.037 81.695 43.456 81.695 42.876 81.815 42.363 82.055 41.917 82.295 41.472 82.623 41.122 83.04 40.868 83.457 40.615 83.937 40.488 84.478 40.488 85.019 40.488 85.5 40.615 85.92 40.868 86.34 41.122 86.669 41.472 86.909 41.917 87.149 42.363 87.268 42.876 87.268 43.456 87.268 44.037 87.149 44.55 86.909 44.995 86.669 45.441 86.34 45.79 85.92 46.044 85.5 46.298 85.019 46.425 84.478 46.425zM89.323 45.613L90.49 45.613C90.896 45.613 91.244 45.524 91.535 45.347 91.825 45.169 92.048 44.919 92.203 44.598 92.358 44.277 92.436 43.896 92.436 43.456 92.436 43.016 92.358 42.636 92.203 42.315 92.048 41.993 91.825 41.743 91.535 41.567 91.244 41.389 90.896 41.3 90.49 41.3L89.323 41.3 89.323 45.613zM88.469 46.331L88.469 40.581 90.49 40.581C91.054 40.581 91.548 40.701 91.97 40.941 92.393 41.18 92.722 41.516 92.956 41.947 93.19 42.378 93.307 42.881 93.307 43.456 93.307 44.032 93.19 44.534 92.956 44.966 92.722 45.398 92.393 45.733 91.97 45.972 91.548 46.212 91.054 46.331 90.49 46.331L88.469 46.331zM95.488 44.166L97.586 44.166 96.537 41.469 95.488 44.166zM98.423 46.331L97.865 44.886 95.209 44.886 94.651 46.331 93.789 46.331 96.089 40.581 97.011 40.581 99.303 46.331 98.423 46.331z"/>
    <polyline fill="#FFFFFF" points="101.924 44.048 101.924 46.331 101.07 46.331 101.07 44.048 99.049 40.581 100.055 40.581 101.502 43.237 102.947 40.581 103.937 40.581 101.924 44.048"/>
    <polyline fill="#FFFFFF" points="110.77 46.331 107.7 41.926 107.7 46.331 106.897 46.331 106.897 40.581 107.692 40.581 110.77 44.988 110.77 40.581 111.565 40.581 111.565 46.331 110.77 46.331"/>
    <polyline fill="#FFFFFF" points="113.07 46.331 113.07 40.581 116.758 40.581 116.758 41.3 113.924 41.3 113.924 43.075 116.419 43.075 116.419 43.794 113.924 43.794 113.924 45.613 116.825 45.613 116.825 46.331 113.07 46.331"/>
    <polyline fill="#FFFFFF" points="119.362 46.331 119.362 41.3 117.425 41.3 117.425 40.581 122.153 40.581 122.153 41.3 120.216 41.3 120.216 46.331 119.362 46.331"/>
    <polyline fill="#FFFFFF" points="127.734 46.331 126.39 41.748 125.045 46.331 124.157 46.331 122.627 40.581 123.472 40.581 124.639 45.13 125.984 40.581 126.796 40.581 128.149 45.148 129.324 40.581 130.153 40.581 128.622 46.331 127.734 46.331"/>
    <path fill="#FFFFFF" d="M133.545 45.68C133.917 45.68 134.248 45.586 134.538 45.398 134.828 45.208 135.055 44.948 135.219 44.615 135.383 44.283 135.464 43.896 135.464 43.456 135.464 43.016 135.383 42.63 135.219 42.297 135.055 41.965 134.828 41.704 134.538 41.516 134.248 41.326 133.917 41.232 133.545 41.232 133.173 41.232 132.842 41.326 132.555 41.516 132.267 41.704 132.042 41.965 131.879 42.297 131.715 42.63 131.633 43.016 131.633 43.456 131.633 43.896 131.715 44.283 131.879 44.615 132.042 44.948 132.267 45.208 132.555 45.398 132.842 45.586 133.173 45.68 133.545 45.68zM133.545 46.425C133.003 46.425 132.524 46.298 132.107 46.044 131.69 45.79 131.361 45.441 131.122 44.995 130.882 44.55 130.762 44.037 130.762 43.456 130.762 42.876 130.882 42.363 131.122 41.917 131.361 41.472 131.69 41.122 132.107 40.868 132.524 40.615 133.003 40.488 133.545 40.488 134.086 40.488 134.566 40.615 134.987 40.868 135.406 41.122 135.736 41.472 135.976 41.917 136.216 42.363 136.335 42.876 136.335 43.456 136.335 44.037 136.216 44.55 135.976 44.995 135.736 45.441 135.406 45.79 134.987 46.044 134.566 46.298 134.086 46.425 133.545 46.425zM138.39 43.295L139.566 43.295C139.932 43.295 140.224 43.205 140.441 43.026 140.658 42.845 140.766 42.602 140.766 42.297 140.766 41.993 140.658 41.751 140.441 41.571 140.224 41.39 139.932 41.3 139.566 41.3L138.39 41.3 138.39 43.295zM138.39 43.997L138.39 46.331 137.536 46.331 137.536 40.581 139.566 40.581C140.203 40.581 140.707 40.735 141.079 41.041 141.451 41.349 141.637 41.768 141.637 42.297 141.637 42.699 141.525 43.036 141.299 43.313 141.073 43.589 140.763 43.783 140.369 43.896L141.764 46.331 140.792 46.331 139.481 43.997 138.39 43.997z"/>
    <polyline fill="#FFFFFF" points="146.28 46.331 143.701 43.431 143.701 46.331 142.847 46.331 142.847 40.581 143.701 40.581 143.701 43.101 146.111 40.581 147.168 40.581 144.606 43.219 147.355 46.331 146.28 46.331"/>
    <path fill="#FFFFFF" d="M16.357 34.707C13.236 34.707 10.499 34.033 8.144 32.683 5.789 31.332 3.944 29.465 2.61 27.08 1.274 24.696.607 21.928.607 18.778.607 15.627 1.274 12.867 2.61 10.497 3.944 8.128 5.789 6.276 8.144 4.94 10.499 3.606 13.236 2.938 16.357 2.938 18.996 2.938 21.374 3.471 23.489 4.535 25.604 5.601 27.411 7.138 28.912 9.148L22.297 13.063C21.516 12.073 20.639 11.293 19.664 10.723 18.689 10.154 17.556 9.867 16.267 9.867 14.136 9.867 12.412 10.67 11.092 12.276 9.771 13.88 9.112 16.048 9.112 18.778 9.112 21.508 9.771 23.691 11.092 25.325 12.412 26.96 14.136 27.778 16.267 27.778 17.587 27.778 18.757 27.455 19.777 26.81 20.797 26.165 21.652 25.408 22.342 24.537L28.912 28.452C27.442 30.493 25.634 32.045 23.489 33.111 21.344 34.175 18.967 34.707 16.357 34.707M43.672 28.497C45.052 28.497 46.154 27.965 46.979 26.901 47.804 25.835 48.217 24.418 48.217 22.648 48.217 20.878 47.804 19.468 46.979 18.417 46.154 17.367 45.052 16.843 43.672 16.843 42.292 16.843 41.189 17.367 40.364 18.417 39.539 19.468 39.127 20.878 39.127 22.648 39.127 24.418 39.539 25.835 40.364 26.901 41.189 27.965 42.292 28.497 43.672 28.497zM43.672 34.707C41.212 34.707 39.044 34.19 37.169 33.156 35.294 32.12 33.824 30.702 32.76 28.903 31.694 27.103 31.162 25.018 31.162 22.648 31.162 20.279 31.694 18.193 32.76 16.393 33.824 14.593 35.294 13.183 37.169 12.162 39.044 11.143 41.212 10.633 43.672 10.633 46.132 10.633 48.299 11.143 50.175 12.162 52.049 13.183 53.519 14.593 54.584 16.393 55.649 18.193 56.182 20.279 56.182 22.648 56.182 25.018 55.649 27.103 54.584 28.903 53.519 30.702 52.049 32.12 50.175 33.156 48.299 34.19 46.132 34.707 43.672 34.707zM75.397 34.122L74.991 31.108C74.241 32.218 73.259 33.095 72.044 33.741 70.829 34.385 69.516 34.707 68.107 34.707 65.436 34.707 63.396 33.92 61.987 32.345 60.576 30.77 59.872 28.497 59.872 25.528L59.872 11.218 67.701 11.218 67.701 24.627C67.701 27.118 68.841 28.363 71.122 28.363 73.521 28.363 74.721 26.863 74.721 23.863L74.721 11.218 82.551 11.218 82.551 34.122 75.397 34.122M95.871 25.258L95.871 34.122 88.041 34.122 88.041 11.218 95.196 11.218 95.691 15.042C96.171 13.813 96.958 12.815 98.054 12.05 99.149 11.285 100.416 10.903 101.856 10.903 102.666 10.903 103.281 11.008 103.701 11.218L103.701 18.372C103.371 18.253 103.004 18.163 102.599 18.103 102.194 18.043 101.736 18.013 101.226 18.013 99.666 18.013 98.383 18.591 97.379 19.745 96.373 20.901 95.871 22.738 95.871 25.258M107.481 34.122L107.481 11.218C108.741 11.488 110.016 11.622 111.306 11.622 112.626 11.622 113.961 11.488 115.311 11.218L115.311 34.122 107.481 34.122M131.645 16.303C129.095 16.303 127.565 17.653 127.055 20.353L135.785 20.353C135.575 18.883 135.072 17.84 134.278 17.225 133.483 16.611 132.605 16.303 131.645 16.303zM142.355 31.783C141.215 32.593 139.768 33.283 138.013 33.853 136.258 34.422 134.39 34.707 132.41 34.707 129.68 34.707 127.348 34.205 125.413 33.2 123.478 32.196 121.993 30.792 120.958 28.992 119.923 27.193 119.405 25.122 119.405 22.783 119.405 20.413 119.915 18.313 120.935 16.483 121.955 14.654 123.365 13.22 125.165 12.185 126.965 11.151 129.065 10.633 131.465 10.633 133.805 10.633 135.867 11.135 137.653 12.14 139.437 13.146 140.832 14.54 141.838 16.325 142.842 18.111 143.345 20.203 143.345 22.603 143.345 22.933 143.323 23.278 143.278 23.638 143.233 23.997 143.18 24.373 143.12 24.763L127.145 24.763C127.865 27.403 129.83 28.723 133.04 28.723 134.48 28.723 135.755 28.497 136.865 28.048 137.975 27.598 138.905 27.148 139.655 26.698L142.355 31.783zM155.18 25.258L155.18 34.122 147.35 34.122 147.35 11.218 154.505 11.218 155 15.042C155.48 13.813 156.267 12.815 157.362 12.05 158.457 11.285 159.725 10.903 161.165 10.903 161.975 10.903 162.59 11.008 163.01 11.218L163.01 18.372C162.679 18.253 162.313 18.163 161.907 18.103 161.503 18.043 161.045 18.013 160.535 18.013 158.975 18.013 157.692 18.591 156.688 19.745 155.682 20.901 155.18 22.738 155.18 25.258M183.784 10.948C183.784 11.458 183.942 11.991 184.257 12.545 184.571 13.101 185.134 13.843 185.945 14.773L186.799 14.502C187.699 14.203 188.411 13.738 188.937 13.108 189.461 12.478 189.724 11.758 189.724 10.948 189.724 10.108 189.446 9.425 188.892 8.901 188.336 8.375 187.624 8.113 186.754 8.113 185.914 8.113 185.209 8.383 184.639 8.923 184.07 9.463 183.784 10.138 183.784 10.948zM181.039 25.077C181.039 26.278 181.541 27.245 182.547 27.98 183.552 28.716 184.894 29.082 186.574 29.082 187.863 29.082 189.049 28.843 190.129 28.363L183.334 21.252C181.804 22.063 181.039 23.338 181.039 25.077zM195.664 34.122L194.134 32.548C191.823 33.898 189.109 34.573 185.989 34.573 183.619 34.573 181.541 34.198 179.757 33.448 177.972 32.699 176.584 31.641 175.594 30.276 174.605 28.91 174.11 27.313 174.11 25.483 174.11 23.683 174.582 22.056 175.527 20.6 176.472 19.146 177.783 17.983 179.464 17.113 178.565 16.003 177.904 14.96 177.485 13.986 177.064 13.011 176.855 11.998 176.855 10.948 176.855 9.358 177.281 7.941 178.137 6.696 178.991 5.45 180.161 4.468 181.647 3.747 183.132 3.028 184.834 2.667 186.754 2.667 188.674 2.667 190.377 3.028 191.862 3.747 193.347 4.468 194.517 5.45 195.372 6.696 196.227 7.941 196.654 9.358 196.654 10.948 196.654 12.778 196.062 14.367 194.877 15.718 193.692 17.068 192.004 18.133 189.815 18.912L194.494 23.908C195.214 22.468 195.679 20.788 195.889 18.867L201.56 19.633C201.139 23.053 200.164 25.933 198.634 28.273L204.079 34.122 195.664 34.122zM224.354 17.518L228.404 17.518C229.694 17.518 230.714 17.18 231.464 16.505 232.213 15.83 232.589 14.938 232.589 13.827 232.589 12.718 232.213 11.825 231.464 11.151 230.714 10.475 229.694 10.138 228.404 10.138L224.354 10.138 224.354 17.518zM216.254 34.122L216.254 3.523 229.214 3.523C232.814 3.523 235.663 4.446 237.764 6.29 239.863 8.135 240.914 10.648 240.914 13.827 240.914 15.898 240.442 17.691 239.496 19.205 238.552 20.72 237.224 21.891 235.514 22.715 233.804 23.54 231.764 23.952 229.394 23.952L224.354 23.952 224.354 34.122 216.254 34.122zM252.748 25.258L252.748 34.122 244.918 34.122 244.918 11.218 252.073 11.218 252.569 15.042C253.048 13.813 253.835 12.815 254.931 12.05 256.026 11.285 257.293 10.903 258.734 10.903 259.543 10.903 260.157 11.008 260.578 11.218L260.578 18.372C260.247 18.253 259.881 18.163 259.476 18.103 259.07 18.043 258.612 18.013 258.103 18.013 256.543 18.013 255.26 18.591 254.256 19.745 253.25 20.901 252.748 22.738 252.748 25.258M275.203 16.303C272.653 16.303 271.122 17.653 270.612 20.353L279.343 20.353C279.133 18.883 278.63 17.84 277.835 17.225 277.04 16.611 276.162 16.303 275.203 16.303zM285.913 31.783C284.773 32.593 283.325 33.283 281.57 33.853 279.816 34.422 277.947 34.707 275.968 34.707 273.237 34.707 270.905 34.205 268.97 33.2 267.035 32.196 265.55 30.792 264.516 28.992 263.481 27.193 262.963 25.122 262.963 22.783 262.963 20.413 263.473 18.313 264.492 16.483 265.512 14.654 266.923 13.22 268.723 12.185 270.523 11.151 272.622 10.633 275.023 10.633 277.362 10.633 279.425 11.135 281.21 12.14 282.995 13.146 284.39 14.54 285.396 16.325 286.401 18.111 286.903 20.203 286.903 22.603 286.903 22.933 286.88 23.278 286.835 23.638 286.79 23.997 286.737 24.373 286.678 24.763L270.703 24.763C271.423 27.403 273.387 28.723 276.598 28.723 278.038 28.723 279.313 28.497 280.423 28.048 281.532 27.598 282.463 27.148 283.213 26.698L285.913 31.783zM299.412 34.707C297.433 34.707 295.58 34.393 293.855 33.763 292.13 33.133 290.577 32.233 289.197 31.063L292.528 26.653C293.577 27.492 294.71 28.176 295.925 28.7 297.14 29.226 298.332 29.488 299.503 29.488 300.282 29.488 300.904 29.353 301.37 29.082 301.835 28.813 302.068 28.408 302.068 27.867 302.068 27.298 301.805 26.84 301.28 26.495 300.755 26.151 299.818 25.813 298.468 25.483L296.308 24.943C292.017 23.803 289.872 21.508 289.872 18.058 289.872 16.528 290.292 15.208 291.133 14.098 291.972 12.989 293.127 12.133 294.598 11.533 296.068 10.933 297.778 10.633 299.728 10.633 301.648 10.633 303.455 10.933 305.151 11.533 306.845 12.133 308.398 13.003 309.808 14.143L306.388 18.643C305.337 17.803 304.228 17.128 303.058 16.617 301.888 16.108 300.792 15.853 299.773 15.853 298.122 15.853 297.298 16.393 297.298 17.473 297.298 17.953 297.545 18.343 298.04 18.643 298.535 18.943 299.233 19.213 300.133 19.452L303.058 20.263C305.247 20.864 306.867 21.763 307.917 22.963 308.967 24.163 309.492 25.588 309.492 27.238 309.492 28.739 309.072 30.05 308.233 31.175 307.393 32.3 306.215 33.17 304.7 33.785 303.185 34.4 301.422 34.707 299.412 34.707M322.273 34.707C320.292 34.707 318.44 34.393 316.715 33.763 314.989 33.133 313.437 32.233 312.058 31.063L315.388 26.653C316.438 27.492 317.57 28.176 318.785 28.7 320 29.226 321.193 29.488 322.362 29.488 323.143 29.488 323.765 29.353 324.23 29.082 324.695 28.813 324.928 28.408 324.928 27.867 324.928 27.298 324.664 26.84 324.14 26.495 323.614 26.151 322.678 25.813 321.327 25.483L319.167 24.943C314.877 23.803 312.733 21.508 312.733 18.058 312.733 16.528 313.153 15.208 313.992 14.098 314.832 12.989 315.987 12.133 317.457 11.533 318.927 10.933 320.637 10.633 322.587 10.633 324.507 10.633 326.315 10.933 328.01 11.533 329.704 12.133 331.257 13.003 332.667 14.143L329.247 18.643C328.197 17.803 327.087 17.128 325.917 16.617 324.747 16.108 323.653 15.853 322.633 15.853 320.983 15.853 320.157 16.393 320.157 17.473 320.157 17.953 320.405 18.343 320.9 18.643 321.395 18.943 322.093 19.213 322.992 19.452L325.917 20.263C328.107 20.864 329.727 21.763 330.778 22.963 331.827 24.163 332.353 25.588 332.353 27.238 332.353 28.739 331.932 30.05 331.093 31.175 330.252 32.3 329.074 33.17 327.56 33.785 326.045 34.4 324.282 34.707 322.273 34.707"/>
    <path class="no-color-change" fill="#009BFF" d="M111.306,9.417 C110.016,9.417 108.913,8.96 107.998,8.045 C107.083,7.13 106.626,6.028 106.626,4.738 C106.626,3.449 107.083,2.346 107.998,1.43 C108.913,0.516 110.016,0.058 111.306,0.058 C112.595,0.058 113.698,0.516 114.613,1.43 C115.528,2.346 115.986,3.449 115.986,4.738 C115.986,6.028 115.528,7.13 114.613,8.045 C113.698,8.96 112.595,9.417 111.306,9.417"/>
  </g>
</svg>
