<svg id="Layer_1" data-name="Layer 1" xmlns="http://www.w3.org/2000/svg" viewBox="0 0 425.85 98.54"><defs><style>.cls-1{fill:#231f20;}.cls-2{fill:#414042;}</style></defs><title>Evansville</title><path class="cls-1" d="M49.39,23.4c0-1.23-1.52-.64-1.52-1.1,0-.22.11-.26.4-.26.64,0,1.12,0,2.21,0,4,0,5.4,0,6.71,0l.88,3.42a2,2,0,0,1,.11.48c0,.13,0,.18-.15.18s-.16-.46-1.06-1.74c-1.12-1.59-2.67-1.9-4.85-1.9h-.55v5.38H52c1.57,0,2.76-.62,2.76-2.47,0-.27.09-.35.22-.35s.22.07.22.35v5.47c0,.27-.07.33-.22.33s-.22-.05-.22-.33c0-1.92-1.19-2.56-2.76-2.56h-.4v4.76c0,.69.44,1,1.54,1a5.28,5.28,0,0,0,5.36-4c.09-.27.15-.37.27-.37s.16.09.16.18a2.3,2.3,0,0,1-.05.53l-.77,4.13c-1.52,0-3.07,0-7.61,0-1.1,0-1.57,0-2.21,0-.29,0-.4,0-.4-.26,0-.46,1.52.13,1.52-1.1Z"/><path class="cls-1" d="M64.47,32.24c1.43-2.87,1.74-3.79,1.74-4.63,0-1.32-1-.9-1-1.28,0-.13.09-.18.31-.18.44,0,.86,0,1.55,0,.53,0,.73,0,1,0s.35,0,.35.18-.71.07-1.55,1.83l-3,6.22c-.07.16-.13.33-.29.33s-.22-.16-.29-.33L60.1,27.32c-.46-1-1-.57-1-1,0-.11.07-.18.31-.18.51,0,1.1,0,1.85,0s1.28,0,1.72,0,.46,0,.46.18c0,.35-1,0-1,.82a1.24,1.24,0,0,0,.13.49Z"/><path class="cls-1" d="M72.75,27.14c0-.44-.24-.66-.69-.66a1.77,1.77,0,0,0-1.76,1.67c-.2,1.06-.51,1.45-1.39,1.45a.86.86,0,0,1-.91-.9C68,27.46,70.23,26,72.53,26c1.57,0,2.23.79,2.23,2.16v5.23c0,.22.09.46.35.46.64,0,.81-.64,1-.64s.18,0,.18.15a2.2,2.2,0,0,1-2,1.24c-1.15,0-1.39-.57-1.55-1.32a5.61,5.61,0,0,1-3.15,1.32c-1.13,0-1.94-.59-1.94-1.63,0-1.65,1.83-2.52,5-3.51Zm0,2.73c-1.74.62-3,1.26-3,2.56,0,.62.22,1.48,1,1.48a3.22,3.22,0,0,0,2-1.06Z"/><path class="cls-1" d="M80,33.26c0,1.19,1.35.62,1.35,1.08,0,.15-.13.18-.37.18-.77,0-1.39,0-2,0s-1.23,0-2,0c-.24,0-.37,0-.37-.18,0-.46,1.35.11,1.35-1.08V28.84c0-1.52-1.46-1.12-1.46-1.52S77.8,27.1,80,26V27.5A5.38,5.38,0,0,1,83.38,26a1.85,1.85,0,0,1,2.09,2v5.18c0,1.19,1.35.62,1.35,1.08,0,.15-.13.18-.37.18-.77,0-1.39,0-2,0s-1.23,0-2,0c-.24,0-.37,0-.37-.18,0-.46,1.35.11,1.35-1.08v-5.2a1.13,1.13,0,0,0-1.15-1.19A4.19,4.19,0,0,0,80,28Z"/><path class="cls-1" d="M92.9,28.76c0,.15,0,.18-.15.18s-.15-.24-.51-1a2.26,2.26,0,0,0-2.16-1.46c-.86,0-1.34.46-1.34.93,0,1.92,4.72,1.45,4.72,4.48,0,1.61-1.24,2.74-3.4,2.74a8,8,0,0,1-2.87-.57V31.38c0-.11,0-.16.13-.16s.09.29.55,1.17a2.81,2.81,0,0,0,2.54,1.81c.93,0,1.55-.51,1.55-1.3,0-2.14-4.72-1.59-4.72-4.54,0-1,.79-2.32,2.91-2.32a7.14,7.14,0,0,1,2.74.59Z"/><path class="cls-1" d="M98.68,32.24c1.43-2.87,1.74-3.79,1.74-4.63,0-1.32-1-.9-1-1.28,0-.13.09-.18.31-.18.44,0,.86,0,1.55,0,.53,0,.73,0,1,0s.35,0,.35.18-.71.07-1.55,1.83l-3,6.22c-.07.16-.13.33-.29.33s-.22-.16-.29-.33L94.3,27.32c-.46-1-1-.57-1-1,0-.11.07-.18.31-.18.51,0,1.1,0,1.85,0s1.28,0,1.72,0,.46,0,.46.18c0,.35-1,0-1,.82a1.24,1.24,0,0,0,.13.49Z"/><path class="cls-1" d="M106,33.26c0,1.19,1.35.62,1.35,1.08,0,.15-.13.18-.37.18-.77,0-1.39,0-2,0s-1.23,0-2,0c-.24,0-.37,0-.37-.18,0-.46,1.35.11,1.35-1.08V28.73c0-1.34-1.46-1.06-1.46-1.41s.88-.22,3.48-1.28Zm-1.06-11a1.24,1.24,0,1,1-1.24,1.24A1.23,1.23,0,0,1,104.91,22.23Z"/><path class="cls-1" d="M111.05,33.26c0,1.19,1.35.62,1.35,1.08,0,.15-.13.18-.37.18-.77,0-1.39,0-2,0s-1.23,0-2,0c-.24,0-.37,0-.37-.18,0-.46,1.35.11,1.35-1.08V23.93c0-1.52-1.46-1.12-1.46-1.52s1.24-.22,3.48-1.28Z"/><path class="cls-1" d="M116.13,33.26c0,1.19,1.35.62,1.35,1.08,0,.15-.13.18-.37.18-.77,0-1.39,0-2,0s-1.23,0-2,0c-.24,0-.37,0-.37-.18,0-.46,1.35.11,1.35-1.08V23.93c0-1.52-1.46-1.12-1.46-1.52s1.24-.22,3.48-1.28Z"/><path class="cls-1" d="M119.51,29.81V30a3.17,3.17,0,0,0,3,3.27,2.73,2.73,0,0,0,2.2-.77c.57-.59.49-1,.73-1a.15.15,0,0,1,.13.16,3.75,3.75,0,0,1-3.86,2.95,4.08,4.08,0,0,1-4.19-4.34A4.3,4.3,0,0,1,121.78,26a3.55,3.55,0,0,1,3.73,3.77Zm4-.44V29c0-1.61-.59-2.49-1.79-2.49-1.52,0-2.18,1.77-2.2,2.89Z"/><path class="cls-1" d="M43.52,45.2c0,1-.19,1.46-.71,1.46-1,0-.45-2.27-2.5-7.83-2.37-6.37-6.6-12.22-12.7-12.22-7.57,0-12.57,7-12.57,24.23s5,24.22,13,24.22c6.41,0,11.67-7.54,13.53-13.61,1.28-4.32.64-5.71,1.67-5.71.38,0,.58.37.58,1.17V76.16c0,1-.32,1.24-.77,1.24-1.22,0-.06-4.1-3.14-4.1-2.57,0-5.71,3.52-13,3.52-13.27,0-22.32-11.27-22.32-26s10.13-26,22.32-26c7.31,0,10.39,4.1,13.34,4.1,2.57,0,1.22-3.22,2.57-3.22.45,0,.77.22.77,1Z"/><path class="cls-1" d="M64.35,37.62c10.78,0,18,9.31,18,19.67S75.13,77,64.35,77s-18-9.31-18-19.67S53.57,37.62,64.35,37.62Zm0,38c6.12,0,10-6.65,10-18.34S70.46,39,64.35,39s-10,6.65-10,18.34S58.23,75.63,64.35,75.63Z"/><path class="cls-1" d="M110.52,64.61c0,8.26-5,12.36-11.75,12.36-7.57,0-12.43-4-12.43-9.75V42.94c0-4.43-4.18-2.27-4.18-3.82,0-.44.19-.72,1-.72,2.48,0,4.81.11,6.75.11s4.27-.11,6.75-.11c.78,0,1,.28,1,.72,0,1.55-4.18-.61-4.18,3.82V67.21c0,4.54,3.3,8.09,7.33,8.09,5.1,0,8.59-3.77,8.59-10.36V48.15c0-4.77-1.55-7.48-3.79-8.31-.73-.28-1.46-.33-1.46-.83,0-.33.1-.61.68-.61,1.26,0,3.16.11,5.15.11s3.88-.11,5.15-.11c.58,0,.68.28.68.61,0,.5-.73.55-1.46.83-2.23.83-3.79,3.55-3.79,8.31Z"/><path class="cls-1" d="M134.69,62.06c-1.17-2.77-3.45-3.71-6.26-3.71v13.3c0,4.43,4.17,2.27,4.17,3.82,0,.44-.19.72-1,.72-2.48,0-4.81-.11-6.75-.11s-4.27.11-6.75.11c-.78,0-1-.28-1-.72,0-1.55,4.18.61,4.18-3.82V42.94c0-4.43-4.18-2.27-4.18-3.82,0-.44.19-.72,1-.72,2.48,0,4.81.11,6.75.11,2.43,0,4.52-.11,7.72-.11,8.3,0,12.72,4.21,12.72,9.86,0,4.65-2.52,8.53-12.53,9.75v.11c5.19,0,8,1.44,9.9,5.6l3.64,8c2,4.38,5.19,2.27,5.19,3.82,0,.33,0,.61-.49.61-1.75,0-3.5-.11-5.24-.11h-5.24Zm-6.26-4.71h1.89c5.49,0,7.91-3.1,7.91-9,0-6.1-2.62-8.64-6.75-8.64h-3.06Z"/><path class="cls-1" d="M156.95,42.94c0-4.43-4.18-2.27-4.18-3.82,0-.44.19-.72,1-.72,2.48,0,4.81.11,6.75.11s4.27-.11,6.75-.11c.78,0,1,.28,1,.72,0,1.55-4.18-.61-4.18,3.82v28.7c0,4.43,4.18,2.27,4.18,3.82,0,.44-.19.72-1,.72-2.48,0-4.81-.11-6.75-.11s-4.27.11-6.75.11c-.78,0-1-.28-1-.72,0-1.55,4.18.61,4.18-3.82Z"/><path class="cls-1" d="M173.56,42.94c0-4.43-4.18-2.27-4.18-3.82,0-.44.19-.72,1-.72,2.48,0,4.81.11,6.75.11,6,0,11.75-.06,17.48-.11L197,49a10.81,10.81,0,0,1,.29,1.44c0,.28-.15.44-.49.44s-.39-.94-2.28-4.55c-2.28-4.32-5.44-6.59-11.26-6.59h-2.62v16h1.21c3.4,0,5.87-2.88,6.07-6.87,0-1.11.19-1.39.68-1.39.29,0,.49.28.49.78v17c0,.5-.19.78-.49.78-.49,0-.63-.28-.68-1.38-.19-4.93-2.67-7.54-6.07-7.54h-1.21V71c0,2.55.87,3.88,4,3.88,7.57,0,11.65-6.15,13.16-11.63.29-1.05.34-1.55.78-1.55s.49.28.49.61a13.56,13.56,0,0,1-.19,1.61l-2.14,12.3c-6.41-.06-12.87-.11-19.61-.11-1.94,0-4.27.11-6.75.11-.78,0-1-.28-1-.72,0-1.55,4.18.61,4.18-3.82Z"/><path class="cls-1" d="M216.18,62.06c-1.17-2.77-3.45-3.71-6.26-3.71v13.3c0,4.43,4.18,2.27,4.18,3.82,0,.44-.19.72-1,.72-2.48,0-4.81-.11-6.75-.11s-4.27.11-6.75.11c-.78,0-1-.28-1-.72,0-1.55,4.18.61,4.18-3.82V42.94c0-4.43-4.18-2.27-4.18-3.82,0-.44.19-.72,1-.72,2.48,0,4.81.11,6.75.11,2.43,0,4.52-.11,7.72-.11,8.3,0,12.72,4.21,12.72,9.86,0,4.65-2.52,8.53-12.53,9.75v.11c5.19,0,8,1.44,9.9,5.6l3.64,8c2,4.38,5.19,2.27,5.19,3.82,0,.33,0,.61-.49.61-1.75,0-3.5-.11-5.24-.11h-5.24Zm-6.26-4.71h1.89c5.49,0,7.91-3.1,7.91-9,0-6.1-2.62-8.64-6.75-8.64h-3.06Z"/><path class="cls-1" d="M235.74,48.34A11.5,11.5,0,0,1,232.58,40c0-4.59,3-10.48,9.08-10.48,5,0,8.2,4.59,8.2,9.07,0,4.83-2.82,7.36-5.92,9.07a32.06,32.06,0,0,1,9.18,10.89c1.7-3.65,1.89-5.42,1.89-7.24,0-6.12-4.13-4.3-4.13-5.59,0-.71.44-.77,1.21-.77,1.7,0,3.4.12,5.1.12s3.35-.12,5-.12c.73,0,1.21.06,1.21.71,0,1.35-2,.12-4,2.83s-3.74,7-5.73,11.42c2.43,5.24,4.47,8.36,7.33,8.36a3.86,3.86,0,0,0,3.64-3.42c.15-.94.24-1.35.58-1.35s.53.24.53.71a7.09,7.09,0,0,1-7.38,7.12c-3,0-5.49-1.18-8.5-5.65-3.64,4.42-7.43,5.65-11.51,5.65-6,0-10.49-5.06-10.49-11.66A12.49,12.49,0,0,1,235.74,48.34Zm6.12,20.49c2.86,0,5.58-1.88,7.38-4.36-4.71-8.6-6.89-9.83-12.91-15.43-2.23,1.3-3.06,4.24-3.06,7.66C233.26,64.12,237.68,68.83,241.86,68.83Zm.1-37.92c-3,0-4.81,2.53-4.81,6.65,0,3.47,2.48,6.48,5.87,9.18,2.82-1,4.22-4.89,4.22-8.07C247.24,34.68,245.69,30.91,242,30.91Z"/><path class="cls-1" d="M278.78,69.79c0,5.86,5.52,3,5.52,5.05,0,.59-.26,1-1.28,1-3.27,0-6.35-.15-8.91-.15s-5.64.15-8.91.15c-1,0-1.28-.37-1.28-1,0-2,5.51.81,5.51-5.05V31.88c0-5.86-5.51-3-5.51-5,0-.59.26-1,1.28-1,3.27,0,6.35.15,8.91.15,3.53,0,6.54-.15,9.36-.15,12,0,17.89,6.3,17.89,13.76,0,8.34-5.51,13.91-17.76,13.91h-4.81Zm0-18h3.33c6.67,0,9.88-3.51,9.88-12.22,0-7.69-3.21-11.93-9.88-11.93h-3.33Z"/><path class="cls-1" d="M320.81,62.06c-1.16-2.77-3.45-3.71-6.26-3.71v13.3c0,4.43,4.18,2.27,4.18,3.82,0,.44-.19.72-1,.72-2.48,0-4.81-.11-6.75-.11s-4.27.11-6.75.11c-.78,0-1-.28-1-.72,0-1.55,4.18.61,4.18-3.82V42.94c0-4.43-4.18-2.27-4.18-3.82,0-.44.19-.72,1-.72,2.48,0,4.81.11,6.75.11,2.43,0,4.52-.11,7.72-.11,8.3,0,12.72,4.21,12.72,9.86,0,4.65-2.52,8.53-12.53,9.75v.11c5.2,0,8,1.44,9.9,5.6l3.64,8c2,4.38,5.19,2.27,5.19,3.82,0,.33,0,.61-.48.61-1.75,0-3.49-.11-5.24-.11h-5.24Zm-6.26-4.71h1.89c5.49,0,7.91-3.1,7.91-9,0-6.1-2.62-8.64-6.75-8.64h-3.06Z"/><path class="cls-1" d="M343.15,42.94c0-4.43-4.18-2.27-4.18-3.82,0-.44.19-.72,1-.72,2.48,0,4.81.11,6.75.11,6,0,11.75-.06,17.48-.11L366.6,49a10.77,10.77,0,0,1,.29,1.44c0,.28-.15.44-.48.44s-.39-.94-2.28-4.55c-2.28-4.32-5.44-6.59-11.26-6.59h-2.62v16h1.22c3.4,0,5.87-2.88,6.07-6.87,0-1.11.19-1.39.68-1.39.29,0,.49.28.49.78v17c0,.5-.19.78-.49.78-.49,0-.63-.28-.68-1.38-.19-4.93-2.67-7.54-6.07-7.54h-1.22V71c0,2.55.87,3.88,4,3.88,7.57,0,11.65-6.15,13.16-11.63.29-1.05.34-1.55.78-1.55s.48.28.48.61a13.64,13.64,0,0,1-.19,1.61l-2.14,12.3c-6.41-.06-12.87-.11-19.61-.11-1.94,0-4.27.11-6.75.11-.78,0-1-.28-1-.72,0-1.55,4.18.61,4.18-3.82Z"/><path class="cls-1" d="M370.29,60.39c0-.66.19-.83.49-.83.49,0,.49.83.68,2,1.17,7,3.59,14.07,10.68,14.07,5,0,7.77-2.88,7.77-7.15,0-11.19-19.42-5.71-19.42-19.45,0-6.54,4.86-11.42,10.87-11.42,4.57,0,7,2.22,8.35,2.22,1.7,0,1-1.55,1.85-1.55.34,0,.53.17.58,1L393,49.76c.1,1.05.15,1.55.15,1.83s-.15.55-.39.55c-.49,0-.53-1.16-1.31-3.38C389.32,42.61,386.7,39,381.31,39c-3.45,0-6.17,1.72-6.17,5.93,0,9.09,19.71,4,19.71,19.06,0,7.37-5.44,13-12.77,13-4.81,0-7.09-2.55-9-2.55s-1.6,1.89-2.43,1.89c-.24,0-.39-.11-.39-.5Z"/><path class="cls-1" d="M396.75,60.39c0-.66.19-.83.49-.83.49,0,.49.83.68,2,1.16,7,3.59,14.07,10.68,14.07,5,0,7.77-2.88,7.77-7.15,0-11.19-19.42-5.71-19.42-19.45,0-6.54,4.85-11.42,10.88-11.42,4.56,0,7,2.22,8.35,2.22,1.7,0,1-1.55,1.85-1.55.34,0,.53.17.58,1l.87,10.47c.1,1.05.14,1.55.14,1.83s-.14.55-.39.55c-.49,0-.53-1.16-1.31-3.38-2.14-6.15-4.76-9.81-10.15-9.81-3.45,0-6.17,1.72-6.17,5.93,0,9.09,19.71,4,19.71,19.06a12.62,12.62,0,0,1-12.77,13c-4.81,0-7.09-2.55-9-2.55s-1.6,1.89-2.43,1.89c-.24,0-.39-.11-.39-.5Z"/><path class="cls-2" d="M229.2,85.8h2.35a2.52,2.52,0,1,1,0,5h-1.2V94H229.2Zm2.23,4.06a1.55,1.55,0,1,0,0-3.1h-1.08v3.1Z"/><path class="cls-2" d="M237.6,85.8h1L242,94h-1.23l-.84-2.14h-3.62L235.44,94h-1.21S237.19,86.8,237.6,85.8Zm1.92,5.06-.78-2c-.12-.3-.62-1.56-.63-1.67h0c0,.1-.5,1.33-.63,1.67l-.79,2Z"/><path class="cls-2" d="M243.14,85.8h2.36c1.52,0,2.71.79,2.71,2.42a2.27,2.27,0,0,1-2.07,2.31l2.5,3.44h-1.35l-2.36-3.33h-.64V94h-1.15Zm2.23,3.9c1.07,0,1.68-.57,1.68-1.47s-.61-1.47-1.68-1.47h-1.08V89.7Z"/><path class="cls-2" d="M251.41,86.79h-2.33v-1h5.81v1h-2.33V94h-1.15Z"/><path class="cls-2" d="M257.87,89.88a4.29,4.29,0,1,1,4.29,4.25A4.14,4.14,0,0,1,257.87,89.88Zm7.4,0a3.11,3.11,0,1,0-3.12,3.21A3,3,0,0,0,265.27,89.88Z"/><path class="cls-2" d="M268.11,85.8h4.12v1h-3v2.63h2.87v1h-2.87V94h-1.15Z"/><path class="cls-2" d="M277.44,86.79h-2.33v-1h5.81v1h-2.33V94h-1.15Z"/><path class="cls-2" d="M282.13,85.8h1.15v3.35h4.28V85.8h1.15V94h-1.15V90.14h-4.28V94h-1.15Z"/><path class="cls-2" d="M290.84,85.8h4.44v1H292v2.37h3.2v1H292V93h3.36v1h-4.51Z"/><path class="cls-2" d="M299.21,91.15V85.8h1.16v5c0,1.42.61,2.29,2,2.29s2-.87,2-2.29v-5h1.16v5.35a3.14,3.14,0,0,1-6.27,0Z"/><path class="cls-2" d="M306.68,92.49l.78-.66a2.37,2.37,0,0,0,2,1.29,1.41,1.41,0,0,0,1.59-1.38c0-1-.8-1.29-1.8-1.69s-2.06-.92-2.06-2.22a2.23,2.23,0,0,1,2.47-2.19,2.74,2.74,0,0,1,2.4,1.23l-.78.66a1.85,1.85,0,0,0-1.62-.88c-.79,0-1.31.41-1.31,1.09,0,.85.81,1.13,1.52,1.41,1.15.45,2.34,1,2.34,2.5a2.48,2.48,0,0,1-2.72,2.48A3.17,3.17,0,0,1,306.68,92.49Z"/><path class="cls-2" d="M316.23,85.8h1L320.61,94h-1.23l-.84-2.14h-3.62L314.08,94h-1.21S315.82,86.8,316.23,85.8Zm1.92,5.06-.78-2c-.12-.3-.62-1.56-.63-1.67h0c0,.1-.5,1.33-.63,1.67l-.79,2Z"/><path class="cls-2" d="M325.47,86.79h-2.33v-1h5.81v1h-2.33V94h-1.15Z"/><path class="cls-2" d="M329.38,89.88a4.29,4.29,0,1,1,4.29,4.25A4.14,4.14,0,0,1,329.38,89.88Zm7.4,0a3.11,3.11,0,1,0-3.12,3.21A3,3,0,0,0,336.78,89.88Z"/><path class="cls-2" d="M339.62,85.8h2.32c2.61,0,4.33,1.49,4.33,4.09S344.53,94,341.94,94h-2.32ZM340.77,93h1.07c1.91,0,3.23-1,3.23-3.09a2.89,2.89,0,0,0-3.23-3.1h-1.07Z"/><path class="cls-2" d="M350,85.8h1L354.38,94h-1.23l-.84-2.14h-3.62L347.86,94h-1.21S349.6,86.8,350,85.8Zm1.92,5.06-.78-2c-.12-.3-.62-1.56-.63-1.67h0c0,.1-.5,1.33-.63,1.67l-.79,2Z"/><path class="cls-2" d="M356.68,90.64,353.9,85.8h1.29l1.51,2.72a12.06,12.06,0,0,1,.58,1.16h0a12.37,12.37,0,0,1,.58-1.16l1.52-2.72h1.26l-2.78,4.84V94h-1.2Z"/><path class="cls-2" d="M364,85.8h.88l4.63,5.29c.14.15.74.91.8,1h0c0-.11,0-1.06,0-1.27v-5h1.12V94h-.9L366,88.67c-.14-.15-.74-.91-.8-1h0c0,.12,0,1.06,0,1.27v5H364Z"/><path class="cls-2" d="M373.6,85.8H378v1h-3.29v2.37H378v1h-3.2V93h3.36v1H373.6Z"/><path class="cls-2" d="M381.65,86.79h-2.33v-1h5.81v1H382.8V94h-1.15Z"/><path class="cls-2" d="M386.09,85.8h1.22L389,90.65c.06.19.45,1.39.47,1.58h0a16.3,16.3,0,0,1,.49-1.58l1.75-4.85h.92l1.74,4.85c.07.19.48,1.39.49,1.58h0c0-.19.42-1.39.48-1.58L397,85.8h1.17L395.32,94h-.88l-1.88-5.1a13.62,13.62,0,0,1-.4-1.33h0a13.69,13.69,0,0,1-.41,1.33L389.86,94H389Z"/><path class="cls-2" d="M398.71,89.88A4.29,4.29,0,1,1,403,94.13,4.14,4.14,0,0,1,398.71,89.88Zm7.4,0A3.11,3.11,0,1,0,403,93.09,3,3,0,0,0,406.11,89.88Z"/><path class="cls-2" d="M409,85.8h2.36c1.52,0,2.71.79,2.71,2.42A2.27,2.27,0,0,1,412,90.52l2.5,3.44h-1.35l-2.36-3.33h-.64V94H409Zm2.23,3.9c1.07,0,1.68-.57,1.68-1.47s-.61-1.47-1.68-1.47h-1.08V89.7Z"/><path class="cls-2" d="M415.76,85.8h1.15v3.79l3.37-3.79h1.4l-3.5,3.9L421.85,94h-1.44l-3.49-4.13V94h-1.15Z"/></svg>