<svg xmlns="http://www.w3.org/2000/svg" xmlns:xlink="http://www.w3.org/1999/xlink" width="720" height="167" viewBox="0 0 720 167">
  <defs>
    <style>
      .cls-1 {
        filter: url(#filter);
      }

      .cls-2 {
        fill: #fff;
      }

      .cls-2, .cls-3 {
        fill-rule: evenodd;
      }

      .cls-3 {
        fill: #999;
      }
    </style>
    <filter id="filter" filterUnits="userSpaceOnUse">
      <feFlood result="flood" flood-color="#333"/>
      <feComposite result="composite" operator="in" in2="SourceGraphic"/>
      <feBlend result="blend" in2="SourceGraphic"/>
    </filter>
  </defs>
  <g id="daily-times" class="cls-1">
    <path class="cls-2" d="M81.206,15.891q8.186,7.867,13.226,20.985t5.037,32.111q0,16.683-4.5,29.054T83.036,118.288a48.709,48.709,0,0,1-17.165,11.723,53.625,53.625,0,0,1-20.125,3.846H0.713v-7.234a47.994,47.994,0,0,0,5.04-.55,11.543,11.543,0,0,0,4.029-1.116,7.317,7.317,0,0,0,3.153-3.751,16.362,16.362,0,0,0,.884-5.7V22.275A18.505,18.505,0,0,0,13,16.581a7.626,7.626,0,0,0-3.214-4.122,14.568,14.568,0,0,0-5.069-2.133Q2.039,9.77.59,9.585V2.358H48.142a52.147,52.147,0,0,1,16.309,2.87A44.476,44.476,0,0,1,81.206,15.891ZM68.357,110.134a71.668,71.668,0,0,0,4.5-17.654A173.7,173.7,0,0,0,74.274,68.9a137.961,137.961,0,0,0-1.888-23.82,70.519,70.519,0,0,0-5.544-18.349,31.8,31.8,0,0,0-9.1-11.77A19.839,19.839,0,0,0,45.366,10.79q-2.2,0-5.008.137c-1.866.1-3.265,0.173-4.185,0.234v99.8a25.542,25.542,0,0,0,.6,5.885,12.043,12.043,0,0,0,2.044,4.492,10.022,10.022,0,0,0,3.558,3.015,12.308,12.308,0,0,0,5.515,1.068,19.528,19.528,0,0,0,12.215-3.9A27.15,27.15,0,0,0,68.357,110.134Zm106.517,23.719H140.795v-5.061a29.586,29.586,0,0,0,5.587-1.266q3.213-1,3.214-2.493a10.316,10.316,0,0,0-.068-1.173,10.953,10.953,0,0,0-.377-1.751l-5.338-19.072h-21.6q-0.75,2.67-1.645,6.23t-1.555,6.36a45.425,45.425,0,0,0-.985,5.255c-0.1,1.079-.152,1.838-0.152,2.266a4.222,4.222,0,0,0,2.134,3.54q2.136,1.461,7.113,2.1v5.061H101.469v-5.061a16.459,16.459,0,0,0,3.283-.68,7.328,7.328,0,0,0,2.888-1.522,13.957,13.957,0,0,0,3.065-3.827,23.906,23.906,0,0,0,2.1-5.385q5.115-18.22,10.247-36.521T134.4,40.516h8.819q8.637,31.262,13.534,49.427t8.335,30.1a16.968,16.968,0,0,0,1.452,3.54,11.37,11.37,0,0,0,2.512,3.014,8.42,8.42,0,0,0,2.862,1.558,14.693,14.693,0,0,0,2.953.647v5.054h0ZM142.005,96.62L132.95,63.347,124.025,96.62h17.98Zm67.876,37.233h-34.7v-5.061c0.8-.083,1.964-0.216,3.507-0.389a8.731,8.731,0,0,0,3.193-.777,5.006,5.006,0,0,0,2.228-2.564,11.736,11.736,0,0,0,.6-4.054V55.757a12.041,12.041,0,0,0-.576-3.9,5.066,5.066,0,0,0-2.25-2.723,15.415,15.415,0,0,0-3.127-1.334,26.566,26.566,0,0,0-3.573-.939V41.8h34.7v5.061q-1.326.194-3.309,0.547a13.439,13.439,0,0,0-3.348,1.007,4.283,4.283,0,0,0-2.293,2.63,13.162,13.162,0,0,0-.576,4.054v65.19a11.921,11.921,0,0,0,.594,3.989,5.205,5.205,0,0,0,2.272,2.691,11.382,11.382,0,0,0,3.065,1.133,22.4,22.4,0,0,0,3.591.68v5.068h0Zm64.672-29.51-1.236,29.51H215.7v-5.061c1.032-.126,2.235-0.335,3.616-0.619a10.186,10.186,0,0,0,2.732-.809,4.832,4.832,0,0,0,2.207-2.529,12,12,0,0,0,.612-4.151V55.757a12.856,12.856,0,0,0-.486-3.863,5.406,5.406,0,0,0-2.337-2.755,11.636,11.636,0,0,0-3.286-1.46q-1.914-.55-3.066-0.809V41.808h34.347v5.061c-0.945.13-2.05,0.313-3.326,0.547a14.252,14.252,0,0,0-3.333,1.007,4.293,4.293,0,0,0-2.294,2.63,13.415,13.415,0,0,0-.569,4.054v60.521a44.162,44.162,0,0,0,.4,6.744,6.573,6.573,0,0,0,1.54,3.633,5.486,5.486,0,0,0,3.2,1.59,34.95,34.95,0,0,0,5.664.356,38.1,38.1,0,0,0,6.859-.611,7.086,7.086,0,0,0,4.779-2.7,48.319,48.319,0,0,0,4.609-9.306q2.36-6,3.772-10.992h3.218Zm69.039-57.478a11.968,11.968,0,0,0-2.906.842,10.016,10.016,0,0,0-2.508,1.619,15.565,15.565,0,0,0-3.366,3.989,59.412,59.412,0,0,0-2.88,5.417q-2.865,6.173-6.008,13.4t-6.845,15.924a42.745,42.745,0,0,0-2.975,8.468,64.228,64.228,0,0,0-.551,10.219v13.032a12.741,12.741,0,0,0,.594,4.086,5.46,5.46,0,0,0,2.272,2.856,16.635,16.635,0,0,0,3.175,1.2,21.46,21.46,0,0,0,3.569.874v5.061H290.29v-5.061q1.234-.124,3.548-0.518a11.011,11.011,0,0,0,3.242-.91,5.248,5.248,0,0,0,2.225-2.756,12.834,12.834,0,0,0,.595-4.187V104.206c0-1.428-.015-2.68-0.044-3.763a13.34,13.34,0,0,0-.311-2.723,27.262,27.262,0,0,0-1.059-3.151c-0.5-1.273-1.145-2.921-1.942-4.964q-3.4-8.752-6.566-16.6t-6.04-14.723a30.988,30.988,0,0,0-3.022-5.741A18.85,18.85,0,0,0,277.807,49a8.4,8.4,0,0,0-2.884-1.489,15.424,15.424,0,0,0-3.066-.647V41.8H307.7v5.061q-4.918.194-6.638,1a2.494,2.494,0,0,0-1.718,2.237,12.928,12.928,0,0,0,.645,2.856q0.63,2.142,2.269,6.608,1.494,4.214,4.38,11.608t6.939,17.3q8.372-19.511,11.487-27.251t3.127-9.5a3.77,3.77,0,0,0-1.837-3.374,13.547,13.547,0,0,0-5.957-1.489V41.8h23.187v5.065h0.007Zm118.347-6.888h-4.982a98.766,98.766,0,0,0-6.341-18.068q-4.365-9.631-8.062-10.381-2.044-.361-5.037-0.647c-2-.18-3.718-0.277-5.163-0.277h-2.993V113.742a18.992,18.992,0,0,0,.829,5.885,7.258,7.258,0,0,0,3.258,4.032,22.426,22.426,0,0,0,4.569,1.716,49.9,49.9,0,0,0,5.272,1.248v7.234H392.76v-7.234c1.231-.18,2.967-0.446,5.2-0.784a13.589,13.589,0,0,0,4.565-1.256,7.169,7.169,0,0,0,3.323-3.978,18.964,18.964,0,0,0,.83-5.928V10.6h-2.993c-1.45,0-3.167.094-5.167,0.277s-3.675.406-5.03,0.647q-3.707.745-8.066,10.381a99.067,99.067,0,0,0-6.341,18.068H374.1V2.358h87.834V39.977h0Zm38.834,93.876H465.581v-5.061c0.805-.083,1.99-0.216,3.558-0.389a9.051,9.051,0,0,0,3.244-.777,4.977,4.977,0,0,0,2.253-2.564,11.556,11.556,0,0,0,.6-4.054V55.757a11.957,11.957,0,0,0-.579-3.9,5.1,5.1,0,0,0-2.279-2.723,15.943,15.943,0,0,0-3.175-1.334,27.305,27.305,0,0,0-3.623-.939V41.8h35.191v5.061q-1.343.194-3.351,0.547a13.682,13.682,0,0,0-3.4,1.007,4.3,4.3,0,0,0-2.323,2.63,13.065,13.065,0,0,0-.583,4.054v65.19a11.559,11.559,0,0,0,.605,3.989,5.214,5.214,0,0,0,2.3,2.691,11.713,11.713,0,0,0,3.109,1.133,22.948,22.948,0,0,0,3.645.68v5.068h-0.007Zm93.1,0H559.488v-5.061c1.011-.126,2.258-0.342,3.729-0.648a9.9,9.9,0,0,0,3.022-.974,5.573,5.573,0,0,0,2.369-2.659,11.065,11.065,0,0,0,.714-4.277V51.469L547.5,132.364h-5.635q-0.4-2.142-1.989-8.5t-2.57-10.176L521.256,50.433v55.989a75,75,0,0,0,.74,12.223,12.973,12.973,0,0,0,2.391,6.129,10.506,10.506,0,0,0,4,2.593,20.965,20.965,0,0,0,4.048,1.425v5.061H505.157v-5.061q1.125-.189,3.645-0.874a8.731,8.731,0,0,0,4.138-2.367c1.189-1.212,2-3.248,2.414-6.126a91.7,91.7,0,0,0,.626-12.3v-45.6a28.177,28.177,0,0,0-.713-6.906,10.47,10.47,0,0,0-2.149-4.374,8.4,8.4,0,0,0-3.667-2.6,19.069,19.069,0,0,0-3.8-.777V41.808h29.235l15.643,60.651,13.186-49.226q0.668-2.725,1.293-6.493c0.417-2.5.638-4.151,0.674-4.932h28.1v5.061a19.772,19.772,0,0,0-2.993.521,17.112,17.112,0,0,0-3,1.036,4.2,4.2,0,0,0-2.3,2.658,13.6,13.6,0,0,0-.562,4.029V120.3a11.917,11.917,0,0,0,.562,3.928,5.552,5.552,0,0,0,2.3,2.755,10.286,10.286,0,0,0,2.931,1.1c1.355,0.349,2.41.587,3.152,0.713v5.05h-0.01Zm62.781-68.567h-3.4a39.71,39.71,0,0,0-4.468-10.6q-3.18-5.363-6.309-6.331a13.879,13.879,0,0,0-3.732-.55c-1.594-.061-2.917-0.093-3.96-0.093h-9.211V83.2H632.1a11.472,11.472,0,0,0,4.471-.849,8.621,8.621,0,0,0,3.667-3.241,19.219,19.219,0,0,0,2.084-5.255,43.2,43.2,0,0,0,1.358-6.55h3.4v38.4h-3.4a44.653,44.653,0,0,0-1.358-6.845,22.757,22.757,0,0,0-2.084-5.673,7.983,7.983,0,0,0-3.486-3.216A11.53,11.53,0,0,0,632.1,89.1h-6.526v26.532a40.108,40.108,0,0,0,.424,6.582,7.373,7.373,0,0,0,1.587,3.727,5.445,5.445,0,0,0,3.065,1.629,28.71,28.71,0,0,0,5.3.382q1.56,0,3.758-.061a25.285,25.285,0,0,0,3.844-.389,18.1,18.1,0,0,0,3.511-.975,5.035,5.035,0,0,0,2.435-1.885,57,57,0,0,0,4.83-9.694,87.154,87.154,0,0,0,3.537-9.766h3.261l-1.207,28.676H600.4V128.8c0.834-.083,1.971-0.255,3.4-0.518a10.124,10.124,0,0,0,3.04-.91,5.164,5.164,0,0,0,2.283-2.626,12.146,12.146,0,0,0,.58-4.054V55.757a12.694,12.694,0,0,0-.5-3.863,5.4,5.4,0,0,0-2.369-2.755,12.665,12.665,0,0,0-3.265-1.428,27.908,27.908,0,0,0-3.174-.842V41.808h56.255V65.286h0Zm36.394,71.1a27.9,27.9,0,0,1-10.845-2.1,34.684,34.684,0,0,1-8.519-4.968l-3.087,4.544h-3.8l-0.579-33.277h3.848q1.293,4.748,3.308,10.011a51.959,51.959,0,0,0,4.649,9.424,28.208,28.208,0,0,0,6.106,7.086,12.164,12.164,0,0,0,7.895,2.734q6.077,0,9.323-4.313a17.622,17.622,0,0,0,3.244-10.877,14.691,14.691,0,0,0-2.754-9.061,21.865,21.865,0,0,0-8.516-6.338q-3.755-1.754-6.91-3.255t-5.924-3.061a22.765,22.765,0,0,1-9.5-10.586,37.014,37.014,0,0,1-3.109-15.4,33.588,33.588,0,0,1,1.6-10.359,28.947,28.947,0,0,1,4.7-8.932,22.6,22.6,0,0,1,7.559-6.036,21.772,21.772,0,0,1,10.019-2.342,23.1,23.1,0,0,1,9.881,2.144,35.235,35.235,0,0,1,7.247,4.284l2.725-3.9h3.9l0.355,31.4h-3.845q-1.342-5.077-3.152-10.374a51.224,51.224,0,0,0-3.823-8.806,20.749,20.749,0,0,0-5.055-6.018,10.556,10.556,0,0,0-6.707-2.245,9.533,9.533,0,0,0-7.892,3.968,15.549,15.549,0,0,0-3.065,9.809,14.563,14.563,0,0,0,2.659,9.036,21.9,21.9,0,0,0,8.3,6.173q3.311,1.629,6.754,3.245t6.124,3.122a24.391,24.391,0,0,1,9.86,10.036q3.375,6.4,3.377,15.878a35.291,35.291,0,0,1-1.924,11.564,27.356,27.356,0,0,1-5.189,9.288,25.019,25.019,0,0,1-8.273,6.3A25.591,25.591,0,0,1,693.047,136.385Z"/>
    <path id="farmington" class="cls-2" d="M116.381,26.731h3.594V15.649h8.967V12.571h-8.967V4.387h9.258V1.309H116.381V26.731Zm12.185,0h3.776l2.614-6.663h11.291l2.614,6.663h3.848L142.253,1.309h-3.195C137.788,4.423,128.566,26.731,128.566,26.731Zm7.588-9.669,2.469-6.265c0.4-1.05,1.924-4.853,1.96-5.179h0.073c0.036,0.326,1.6,4.237,1.96,5.179l2.433,6.265h-8.9Zm19.554,9.669H159.3V16.374h2l7.37,10.357h4.212l-7.806-10.719c3.849-.616,6.463-3.223,6.463-7.17,0-5.07-3.7-7.532-8.46-7.532h-7.37V26.731ZM159.3,13.44V4.314h3.376c3.34,0,5.228,1.774,5.228,4.563s-1.888,4.563-5.228,4.563H159.3Zm16.13,13.29h3.521l1.852-14.449c0.072-.543.472-3.549,0.508-4.165h0.036c0.073,0.4,1.2,3.151,1.453,3.8l6.208,14.811h2.5l6.245-14.811c0.254-.616,1.343-3.4,1.415-3.8h0.037c0.036,0.616.435,3.621,0.508,4.165l1.852,14.449h3.521L201.573,1.309H198.45l-6.9,16.441a31.6,31.6,0,0,0-1.234,3.585h-0.036a31.788,31.788,0,0,0-1.235-3.585l-6.9-16.441h-3.195Zm33.217,0h3.594V1.309H208.65V26.731Zm9.075,0h3.486V11.05c0-.652-0.037-3.585-0.073-3.947l0.036-.036c0.182,0.362,2.07,2.716,2.5,3.187l14.45,16.477h2.8V1.309h-3.485v15.68c0,0.652,0,3.585.073,3.947l-0.073.036c-0.181-.362-2.069-2.716-2.5-3.187L220.484,1.309h-2.759V26.731Zm40.648,0.507c8.169,0,12.888-6.012,12.888-13.29V13.4H258.99v2.97h8.5a8.728,8.728,0,0,1-9.113,7.677c-5.664,0-9.766-4.02-9.766-10.031s4.1-10.031,9.766-10.031a9.326,9.326,0,0,1,8.5,4.708L269.7,6.6C267.631,3.409,263.964.8,258.373,0.8c-7.77,0-13.4,5.613-13.4,13.218C244.976,21.661,250.567,27.238,258.373,27.238Zm19.929-.507H281.9V4.387h7.261V1.309H271.041V4.387H278.3V26.731Zm23.936,0.507a12.915,12.915,0,0,0,13.4-13.218,13.4,13.4,0,0,0-26.793,0A12.914,12.914,0,0,0,302.238,27.238ZM302.2,24.015c-5.555,0-9.693-4.092-9.693-10s4.138-9.995,9.693-9.995c5.628,0,9.73,4.092,9.73,9.995S307.83,24.015,302.2,24.015Zm16.868,2.716h3.485V11.05c0-.652-0.036-3.585-0.073-3.947l0.037-.036c0.181,0.362,2.069,2.716,2.5,3.187l14.449,16.477h2.8V1.309h-3.485v15.68c0,0.652,0,3.585.072,3.947l-0.072.036c-0.182-.362-2.07-2.716-2.5-3.187L321.829,1.309H319.07V26.731Z"/>
    <path id="USAT_Network" data-name="USAT Network" class="cls-3" d="M246.843,146.762h5.771c4.058,0,6.773,2.4,6.773,6.1s-2.771,6.095-6.773,6.095h-2.943v7.623h-2.828V146.762Zm5.486,9.856c2.715,0,4.171-1.5,4.171-3.756,0-2.233-1.456-3.756-4.171-3.756h-2.658v7.512h2.658Zm15.13-9.856h2.515L278.2,166.58h-3.031l-2.054-5.192h-8.886l-2.057,5.192H259.2S266.457,149.193,267.459,146.762Zm4.713,12.281-1.914-4.881c-0.284-.736-1.515-3.787-1.543-4.041h-0.057c-0.028.254-1.227,3.218-1.543,4.041l-1.941,4.881h7Zm8.9-12.281h5.8c3.741,0,6.657,1.924,6.657,5.872,0,3.081-2.058,5.11-5.085,5.593l6.144,8.353h-3.317l-5.8-8.075H283.9v8.075h-2.829V146.762Zm5.487,9.46c2.627,0,4.114-1.386,4.114-3.557s-1.487-3.559-4.114-3.559H283.9v7.116h2.658Zm14.814-7.06h-5.715v-2.4h14.257v2.4H304.2V166.58h-2.827V149.162Zm15.875,7.512a10.545,10.545,0,1,1,10.543,10.3A10.112,10.112,0,0,1,317.249,156.674Zm18.171,0a7.645,7.645,0,1,0-7.656,7.79A7.425,7.425,0,0,0,335.42,156.674Zm6.985-9.912H352.52v2.4h-7.287v6.38h7.058v2.4h-7.058v8.638h-2.828V146.762Zm22.905,2.4H359.6v-2.4h14.256v2.4h-5.714V166.58H365.31V149.162Zm11.511-2.4h2.827v8.13h10.515v-8.13h2.831V166.58h-2.831v-9.288H379.648v9.288h-2.827V146.762Zm21.383,0h10.915v2.376h-8.087v5.754h7.856v2.376h-7.856v6.942h8.257v2.37H398.2V146.762Zm20.566,12.987V146.762h2.856V158.9c0,3.447,1.487,5.563,4.828,5.563,3.372,0,4.86-2.116,4.86-5.563V146.762h2.856v12.987c0,4.35-2.828,7.227-7.716,7.227C421.541,166.976,418.77,164.1,418.77,159.749ZM437.122,163l1.917-1.609a5.812,5.812,0,0,0,5.028,3.131c2.2,0,3.914-1.182,3.914-3.359,0-2.34-1.972-3.131-4.43-4.09-2.514-.99-5.057-2.234-5.057-5.4,0-3.13,2.458-5.3,6.059-5.3a6.745,6.745,0,0,1,5.887,2.989l-1.917,1.608a4.567,4.567,0,0,0-3.97-2.147c-1.945,0-3.229.99-3.229,2.655,0,2.06,2,2.741,3.742,3.415,2.828,1.1,5.743,2.431,5.743,6.069,0,3.447-2.571,6.015-6.685,6.015A7.8,7.8,0,0,1,437.122,163Zm23.454-16.235h2.513l8.229,19.818h-3.03l-2.054-5.192h-8.887l-2.058,5.192h-2.971S459.573,149.193,460.576,146.762Zm4.712,12.281-1.913-4.881c-0.286-.736-1.516-3.787-1.544-4.041h-0.056c-0.028.254-1.228,3.218-1.544,4.041l-1.942,4.881h7Zm17.97-9.881h-5.714v-2.4H491.8v2.4h-5.714V166.58h-2.828V149.162Zm9.6,7.512a10.546,10.546,0,1,1,10.544,10.3A10.112,10.112,0,0,1,492.861,156.674Zm18.171,0a7.645,7.645,0,1,0-7.656,7.79A7.424,7.424,0,0,0,511.032,156.674Zm6.986-9.912H523.7c6.4,0,10.628,3.613,10.628,9.912,0,6.267-4.258,9.906-10.628,9.906h-5.686V146.762Zm2.827,17.417h2.63c4.685,0,7.941-2.45,7.941-7.5s-3.256-7.512-7.941-7.512h-2.63v15.017Zm22.677-17.417h2.514l8.229,19.818h-3.031l-2.054-5.192h-8.887l-2.057,5.192h-2.971S542.52,149.193,543.522,146.762Zm4.713,12.281-1.914-4.881c-0.285-.736-1.515-3.787-1.544-4.041h-0.056c-0.028.254-1.227,3.218-1.544,4.041l-1.941,4.881h7Zm11.679-.538-6.83-11.743h3.173l3.714,6.608a29.268,29.268,0,0,1,1.427,2.821h0.028a29.787,29.787,0,0,1,1.432-2.821l3.741-6.608h3.084l-6.825,11.743v8.075h-2.944v-8.075Zm18.08-11.743h2.17l11.372,12.845c0.342,0.371,1.829,2.2,1.973,2.487l0.056-.031c-0.056-.279-0.056-2.568-0.056-3.075V146.762h2.743V166.58h-2.2l-11.373-12.845c-0.341-.365-1.829-2.2-1.969-2.481l-0.028.024c0.028,0.285.055,2.575,0.055,3.081V166.58h-2.742V146.762Zm23.468,0h10.912v2.376H604.29v5.754h7.859v2.376H604.29v6.942h8.257v2.37H601.462V146.762Zm19.761,2.4h-5.714v-2.4h14.257v2.4h-5.715V166.58h-2.828V149.162Zm10.9-2.4h3l4.115,11.774c0.144,0.452,1.114,3.385,1.142,3.836h0.06a39.282,39.282,0,0,1,1.2-3.836l4.287-11.774h2.257l4.284,11.774c0.172,0.452,1.171,3.385,1.2,3.836h0.056c0.057-.451,1.027-3.384,1.171-3.836l4.086-11.774h2.884l-7.058,19.818h-2.17l-4.627-12.362a32.406,32.406,0,0,1-.974-3.218h-0.057a33.1,33.1,0,0,1-1,3.218l-4.6,12.362h-2.174Zm31.009,9.912a10.546,10.546,0,1,1,10.543,10.3A10.112,10.112,0,0,1,663.132,156.674Zm18.171,0a7.645,7.645,0,1,0-7.656,7.79A7.424,7.424,0,0,0,681.3,156.674Zm6.985-9.912h5.8c3.746,0,6.657,1.924,6.657,5.872,0,3.081-2.057,5.11-5.085,5.593l6.144,8.353h-3.316l-5.8-8.075h-1.572v8.075h-2.828V146.762Zm5.487,9.46c2.627,0,4.114-1.386,4.114-3.557s-1.487-3.559-4.114-3.559h-2.659v7.116h2.659Zm11.231-9.46h2.828v9.206l8.285-9.206h3.429l-8.6,9.46,9,10.358h-3.541l-8.573-10.018V166.58h-2.828V146.762Z"/>
  </g>
</svg>
