<svg xmlns="http://www.w3.org/2000/svg" width="515" height="47" viewBox="0 0 515 47">
  <g fill="none" fill-rule="evenodd">
    <polyline fill="#404040" points="8.726 34.373 .356 34.373 .356 3.773 21.866 3.773 21.866 10.478 8.726 10.478 8.726 16.598 19.616 16.598 19.616 23.302 8.726 23.302 8.726 34.373"/>
    <path fill="#404040" d="M31.36 26.948C31.36 27.638 31.615 28.201 32.126 28.635 32.635 29.071 33.296 29.287 34.106 29.287 35.186 29.287 36.093 28.92 36.828 28.185 37.563 27.451 37.931 26.528 37.931 25.417L37.931 24.653C37.121 24.502 36.266 24.427 35.366 24.427 34.225 24.427 33.273 24.624 32.508 25.012 31.743 25.403 31.36 26.047 31.36 26.948zM38.246 34.373L37.84 31.358C36.34 33.758 34.061 34.957 31.001 34.957 29.651 34.957 28.428 34.666 27.333 34.081 26.238 33.496 25.368 32.693 24.723 31.672 24.078 30.653 23.755 29.467 23.755 28.118 23.755 25.568 24.753 23.588 26.748 22.177 28.743 20.768 31.376 20.063 34.646 20.063 35.665 20.063 36.745 20.153 37.886 20.332 37.765 19.193 37.278 18.331 36.423 17.746 35.568 17.161 34.525 16.868 33.296 16.868 32.215 16.868 31.128 17.07 30.033 17.475 28.938 17.88 27.896 18.368 26.906 18.938L24.251 13.898C25.751 12.938 27.37 12.196 29.111 11.67 30.85 11.146 32.59 10.882 34.331 10.882 36.43 10.882 38.32 11.243 40.001 11.962 41.68 12.683 43 13.778 43.961 15.248 44.921 16.718 45.4 18.578 45.4 20.828L45.4 34.373 38.246 34.373zM58.226 25.507L58.226 34.373 50.396 34.373 50.396 11.467 57.55 11.467 58.046 15.292C58.525 14.063 59.313 13.065 60.408 12.3 61.503 11.536 62.771 11.153 64.211 11.153 65.021 11.153 65.635 11.258 66.056 11.467L66.056 18.623C65.725 18.503 65.358 18.414 64.953 18.353 64.548 18.292 64.09 18.262 63.581 18.262 62.021 18.262 60.738 18.84 59.733 19.996 58.728 21.151 58.226 22.988 58.226 25.507M77.665 21.188L77.665 34.373 69.835 34.373 69.835 11.467 77.035 11.467 77.44 14.393C78.13 13.283 79.03 12.443 80.14 11.873 81.25 11.303 82.435 11.018 83.695 11.018 85.045 11.018 86.275 11.318 87.385 11.917 88.495 12.518 89.395 13.358 90.085 14.438 90.895 13.328 91.953 12.48 93.257 11.895 94.563 11.31 95.935 11.018 97.375 11.018 98.965 11.018 100.368 11.385 101.583 12.121 102.797 12.856 103.75 13.875 104.44 15.18 105.13 16.485 105.475 17.993 105.475 19.703L105.475 34.373 97.645 34.373 97.645 20.512C97.645 19.553 97.382 18.788 96.858 18.217 96.332 17.648 95.665 17.363 94.855 17.363 93.865 17.363 93.07 17.677 92.47 18.308 91.87 18.938 91.57 19.898 91.57 21.188L91.57 34.373 83.74 34.373 83.74 20.512C83.74 19.553 83.485 18.788 82.975 18.217 82.464 17.648 81.775 17.363 80.905 17.363 79.944 17.363 79.165 17.677 78.565 18.308 77.964 18.938 77.665 19.898 77.665 21.188M110.56 34.373L110.56 11.467C111.82 11.738 113.095 11.873 114.385 11.873 115.705 11.873 117.04 11.738 118.39 11.467L118.39 34.373 110.56 34.373M131.71 21.728L131.71 34.373 123.88 34.373 123.88 11.467 131.035 11.467 131.44 14.483C132.189 13.403 133.165 12.533 134.365 11.873 135.564 11.213 136.885 10.882 138.325 10.882 140.815 10.882 142.809 11.693 144.31 13.313 145.81 14.933 146.56 17.258 146.56 20.288L146.56 34.373 138.73 34.373 138.73 21.188C138.73 19.837 138.429 18.84 137.83 18.195 137.229 17.55 136.39 17.228 135.31 17.228 134.23 17.228 133.359 17.573 132.7 18.262 132.04 18.954 131.71 20.108 131.71 21.728M162.669 27.488C163.989 27.488 165.054 27.015 165.864 26.07 166.674 25.125 167.079 23.858 167.079 22.268 167.079 20.678 166.674 19.411 165.864 18.465 165.054 17.52 163.989 17.047 162.669 17.047 161.319 17.047 160.239 17.52 159.429 18.465 158.619 19.411 158.214 20.678 158.214 22.268 158.214 23.828 158.619 25.088 159.429 26.047 160.239 27.008 161.319 27.488 162.669 27.488zM174.819 31.943C174.819 34.283 174.279 36.286 173.199 37.95 172.119 39.615 170.627 40.89 168.722 41.775 166.816 42.66 164.604 43.103 162.084 43.103 160.044 43.103 158.109 42.832 156.279 42.292 154.449 41.752 152.814 41.033 151.374 40.132L154.299 35.092C155.318 35.693 156.392 36.18 157.517 36.555 158.642 36.93 159.804 37.118 161.004 37.118 163.014 37.118 164.514 36.667 165.504 35.768 166.494 34.868 166.989 33.593 166.989 31.943L166.989 31.132C166.209 31.914 165.272 32.536 164.177 33 163.081 33.465 161.934 33.698 160.734 33.698 158.664 33.698 156.841 33.21 155.267 32.235 153.692 31.26 152.461 29.911 151.577 28.185 150.692 26.46 150.249 24.488 150.249 22.268 150.249 20.018 150.684 18.038 151.554 16.328 152.424 14.618 153.639 13.283 155.199 12.323 156.759 11.363 158.559 10.882 160.599 10.882 161.979 10.882 163.261 11.213 164.447 11.873 165.631 12.533 166.568 13.403 167.259 14.483L167.664 11.467 174.819 11.467 174.819 31.943zM197.184 32.887C196.254 33.518 195.189 34.02 193.989 34.395 192.789 34.77 191.529 34.957 190.209 34.957 187.749 34.957 185.791 34.246 184.337 32.82 182.881 31.396 182.154 29.483 182.154 27.082L182.154 17.318 178.419 17.318 178.419 11.467 182.514 11.467 183.504 5.078 189.984 5.078 189.984 11.467 195.969 11.467 195.969 17.318 189.984 17.318 189.984 26.092C189.984 26.874 190.216 27.481 190.681 27.916 191.146 28.35 191.768 28.568 192.549 28.568 192.939 28.568 193.337 28.493 193.741 28.342 194.147 28.193 194.529 28.013 194.889 27.802L197.184 32.887M211.359 28.748C212.738 28.748 213.84 28.215 214.666 27.15 215.491 26.085 215.903 24.668 215.903 22.898 215.903 21.127 215.491 19.718 214.666 18.667 213.84 17.618 212.738 17.092 211.359 17.092 209.978 17.092 208.876 17.618 208.051 18.667 207.226 19.718 206.814 21.127 206.814 22.898 206.814 24.668 207.226 26.085 208.051 27.15 208.876 28.215 209.978 28.748 211.359 28.748zM211.359 34.957C208.898 34.957 206.731 34.44 204.856 33.405 202.981 32.371 201.51 30.953 200.446 29.153 199.381 27.353 198.849 25.268 198.849 22.898 198.849 20.528 199.381 18.443 200.446 16.643 201.51 14.842 202.981 13.433 204.856 12.412 206.731 11.393 208.898 10.882 211.359 10.882 213.818 10.882 215.986 11.393 217.861 12.412 219.735 13.433 221.206 14.842 222.271 16.643 223.336 18.443 223.869 20.528 223.869 22.898 223.869 25.268 223.336 27.353 222.271 29.153 221.206 30.953 219.735 32.371 217.861 33.405 215.986 34.44 213.818 34.957 211.359 34.957zM235.794 21.728L235.794 34.373 227.964 34.373 227.964 11.467 235.118 11.467 235.524 14.483C236.273 13.403 237.248 12.533 238.448 11.873 239.648 11.213 240.968 10.882 242.408 10.882 244.898 10.882 246.893 11.693 248.393 13.313 249.893 14.933 250.643 17.258 250.643 20.288L250.643 34.373 242.814 34.373 242.814 21.188C242.814 19.837 242.513 18.84 241.914 18.195 241.313 17.55 240.473 17.228 239.393 17.228 238.314 17.228 237.443 17.573 236.783 18.262 236.123 18.954 235.794 20.108 235.794 21.728"/>
    <path fill="#009BFF" class='no-color-change' d="M274.392 27.757L278.217 27.757C280.407 27.757 282.139 26.963 283.415 25.373 284.689 23.783 285.327 21.683 285.327 19.073 285.327 16.462 284.689 14.363 283.415 12.773 282.139 11.183 280.407 10.387 278.217 10.387L274.392 10.387 274.392 27.757zM266.157 34.373L266.157 3.773 278.217 3.773C281.247 3.773 283.924 4.425 286.25 5.73 288.574 7.036 290.397 8.835 291.717 11.13 293.037 13.425 293.697 16.073 293.697 19.073 293.697 22.073 293.037 24.72 291.717 27.015 290.397 29.31 288.574 31.11 286.25 32.416 283.924 33.72 281.247 34.373 278.217 34.373L266.157 34.373zM304.227 26.948C304.227 27.638 304.481 28.201 304.992 28.635 305.502 29.071 306.162 29.287 306.972 29.287 308.052 29.287 308.959 28.92 309.694 28.185 310.429 27.451 310.797 26.528 310.797 25.417L310.797 24.653C309.987 24.502 309.131 24.427 308.232 24.427 307.091 24.427 306.139 24.624 305.375 25.012 304.609 25.403 304.227 26.047 304.227 26.948zM311.112 34.373L310.707 31.358C309.207 33.758 306.927 34.957 303.867 34.957 302.517 34.957 301.295 34.666 300.2 34.081 299.104 33.496 298.234 32.693 297.589 31.672 296.944 30.653 296.622 29.467 296.622 28.118 296.622 25.568 297.619 23.588 299.615 22.177 301.609 20.768 304.242 20.063 307.512 20.063 308.532 20.063 309.611 20.153 310.752 20.332 310.631 19.193 310.144 18.331 309.29 17.746 308.434 17.161 307.391 16.868 306.162 16.868 305.082 16.868 303.994 17.07 302.899 17.475 301.804 17.88 300.762 18.368 299.772 18.938L297.117 13.898C298.617 12.938 300.237 12.196 301.977 11.67 303.716 11.146 305.457 10.882 307.197 10.882 309.297 10.882 311.186 11.243 312.867 11.962 314.547 12.683 315.867 13.778 316.827 15.248 317.787 16.718 318.267 18.578 318.267 20.828L318.267 34.373 311.112 34.373zM323.262 34.373L323.262 11.467C324.522 11.738 325.797 11.873 327.087 11.873 328.407 11.873 329.742 11.738 331.091 11.467L331.091 34.373 323.262 34.373zM327.087 9.667C325.797 9.667 324.694 9.21 323.779 8.295 322.864 7.38 322.407 6.278 322.407 4.988 322.407 3.698 322.864 2.595 323.779 1.68 324.694.765 325.797.308 327.087.308 328.377.308 329.479.765 330.394 1.68 331.309 2.595 331.767 3.698 331.767 4.988 331.767 6.278 331.309 7.38 330.394 8.295 329.479 9.21 328.377 9.667 327.087 9.667z"/>
    <polygon fill="#009BFF" class='no-color-change' points="336.582 34.373 344.412 34.373 344.412 1.523 336.582 1.523"/>
    <path fill="#009BFF" class='no-color-change' d="M365.786,32.573 C364.406,36.112 362.831,38.752 361.061,40.493 C359.291,42.232 357.041,43.103 354.311,43.103 C353.081,43.103 351.971,42.967 350.981,42.698 C349.991,42.427 349.151,42.097 348.461,41.707 L350.666,36.308 C351.086,36.517 351.55,36.697 352.061,36.848 C352.571,36.998 353.111,37.073 353.681,37.073 C354.491,37.073 355.218,36.877 355.864,36.488 C356.508,36.097 357.071,35.392 357.551,34.373 L357.911,33.563 L347.561,11.467 L356.201,11.467 L361.286,25.193 L365.471,11.467 L373.976,11.467 L365.786,32.573"/>
    <polyline fill="#009BFF" class='no-color-change' points="393.35 34.373 393.35 10.523 384.259 10.523 384.259 3.773 410.81 3.773 410.81 10.523 401.72 10.523 401.72 34.373 393.35 34.373"/>
    <path fill="#009BFF" class='no-color-change' d="M414.589 34.373L414.589 11.467C415.849 11.738 417.124 11.873 418.415 11.873 419.734 11.873 421.069 11.738 422.42 11.467L422.42 34.373 414.589 34.373zM418.415 9.667C417.124 9.667 416.021 9.21 415.107 8.295 414.191 7.38 413.734 6.278 413.734 4.988 413.734 3.698 414.191 2.595 415.107 1.68 416.021.765 417.124.308 418.415.308 419.704.308 420.806.765 421.721 1.68 422.636 2.595 423.094 3.698 423.094 4.988 423.094 6.278 422.636 7.38 421.721 8.295 420.806 9.21 419.704 9.667 418.415 9.667zM435.739 21.188L435.739 34.373 427.909 34.373 427.909 11.467 435.109 11.467 435.514 14.393C436.204 13.283 437.103 12.443 438.214 11.873 439.323 11.303 440.508 11.018 441.769 11.018 443.119 11.018 444.348 11.318 445.459 11.917 446.568 12.518 447.468 13.358 448.159 14.438 448.969 13.328 450.026 12.48 451.332 11.895 452.636 11.31 454.009 11.018 455.449 11.018 457.039 11.018 458.441 11.385 459.657 12.121 460.872 12.856 461.824 13.875 462.514 15.18 463.204 16.485 463.548 17.993 463.548 19.703L463.548 34.373 455.719 34.373 455.719 20.512C455.719 19.553 455.456 18.788 454.931 18.217 454.406 17.648 453.739 17.363 452.929 17.363 451.939 17.363 451.144 17.677 450.544 18.308 449.943 18.938 449.644 19.898 449.644 21.188L449.644 34.373 441.814 34.373 441.814 20.512C441.814 19.553 441.558 18.788 441.048 18.217 440.539 17.648 439.848 17.363 438.979 17.363 438.018 17.363 437.239 17.677 436.639 18.308 436.039 18.938 435.739 19.898 435.739 21.188M479.478 16.552C476.928 16.552 475.398 17.903 474.888 20.603L483.619 20.603C483.408 19.133 482.906 18.09 482.111 17.475 481.316 16.861 480.438 16.552 479.478 16.552zM490.188 32.033C489.048 32.842 487.601 33.533 485.846 34.103 484.091 34.672 482.223 34.957 480.244 34.957 477.513 34.957 475.181 34.455 473.246 33.45 471.311 32.446 469.826 31.042 468.791 29.243 467.756 27.443 467.239 25.373 467.239 23.033 467.239 20.664 467.749 18.563 468.768 16.733 469.788 14.903 471.199 13.47 472.999 12.435 474.798 11.4 476.898 10.882 479.298 10.882 481.638 10.882 483.701 11.385 485.486 12.39 487.27 13.396 488.666 14.791 489.672 16.575 490.675 18.361 491.178 20.453 491.178 22.853 491.178 23.183 491.156 23.528 491.111 23.887 491.066 24.248 491.013 24.624 490.954 25.012L474.978 25.012C475.699 27.653 477.663 28.973 480.874 28.973 482.313 28.973 483.589 28.748 484.699 28.297 485.808 27.848 486.738 27.398 487.489 26.948L490.188 32.033zM503.688 34.957C501.709 34.957 499.856 34.643 498.13 34.012 496.405 33.382 494.853 32.483 493.473 31.313L496.803 26.903C497.853 27.743 498.986 28.425 500.201 28.95 501.416 29.475 502.608 29.738 503.778 29.738 504.558 29.738 505.18 29.603 505.646 29.332 506.111 29.063 506.343 28.658 506.343 28.118 506.343 27.548 506.081 27.09 505.556 26.745 505.031 26.401 504.093 26.063 502.744 25.733L500.584 25.193C496.293 24.053 494.148 21.758 494.148 18.308 494.148 16.778 494.568 15.457 495.409 14.348 496.248 13.238 497.403 12.383 498.874 11.783 500.342 11.183 502.053 10.882 504.004 10.882 505.922 10.882 507.731 11.183 509.425 11.783 511.121 12.383 512.672 13.252 514.084 14.393L510.664 18.893C509.613 18.053 508.504 17.378 507.334 16.868 506.164 16.358 505.068 16.103 504.048 16.103 502.398 16.103 501.573 16.643 501.573 17.723 501.573 18.203 501.821 18.593 502.316 18.893 502.811 19.193 503.508 19.463 504.409 19.703L507.334 20.512C509.523 21.113 511.143 22.013 512.193 23.212 513.243 24.413 513.768 25.838 513.768 27.488 513.768 28.988 513.348 30.3 512.508 31.425 511.669 32.55 510.491 33.42 508.976 34.036 507.461 34.65 505.698 34.957 503.688 34.957"/>
    <path fill="#404040" d="M1.205 43.616L2.348 43.616C2.723 43.616 3.021 43.523 3.239 43.338 3.458 43.154 3.567 42.901 3.567 42.582 3.567 42.262 3.458 42.01 3.239 41.825 3.021 41.64 2.723 41.547 2.348 41.547L1.205 41.547 1.205 43.616zM.356 46.549L.356 40.833 2.348 40.833C2.987 40.833 3.494 40.99 3.869 41.304 4.245 41.618 4.433 42.043 4.433 42.582 4.433 43.114 4.245 43.536 3.869 43.847 3.494 44.158 2.987 44.313 2.348 44.313L1.205 44.313 1.205 46.549.356 46.549zM6.148 44.398L8.232 44.398 7.19 41.715 6.148 44.398zM9.064 46.549L8.509 45.112 5.87 45.112 5.315 46.549 4.458 46.549 6.744 40.833 7.661 40.833 9.939 46.549 9.064 46.549zM11.737 43.532L12.905 43.532C13.27 43.532 13.56 43.442 13.775 43.262 13.991 43.083 14.099 42.842 14.099 42.54 14.099 42.237 13.991 41.997 13.775 41.817 13.56 41.637 13.27 41.547 12.905 41.547L11.737 41.547 11.737 43.532zM11.737 44.229L11.737 46.549 10.888 46.549 10.888 40.833 12.905 40.833C13.539 40.833 14.041 40.986 14.41 41.291 14.78 41.597 14.965 42.013 14.965 42.54 14.965 42.938 14.853 43.274 14.629 43.548 14.405 43.823 14.096 44.016 13.704 44.128L15.091 46.549 14.125 46.549 12.821 44.229 11.737 44.229z"/>
    <polyline fill="#404040" points="17.403 46.549 17.403 41.547 15.478 41.547 15.478 40.833 20.177 40.833 20.177 41.547 18.252 41.547 18.252 46.549 17.403 46.549"/>
    <path fill="#404040" d="M25.632,45.902 C26.002,45.902 26.331,45.808 26.62,45.621 C26.908,45.432 27.134,45.173 27.297,44.842 C27.459,44.512 27.54,44.128 27.54,43.691 C27.54,43.254 27.459,42.871 27.297,42.54 C27.134,42.208 26.908,41.95 26.62,41.762 C26.331,41.575 26.002,41.48 25.632,41.48 C25.262,41.48 24.934,41.575 24.649,41.762 C24.363,41.95 24.139,42.208 23.976,42.54 C23.814,42.871 23.732,43.254 23.732,43.691 C23.732,44.128 23.814,44.512 23.976,44.842 C24.139,45.173 24.363,45.432 24.649,45.621 C24.934,45.808 25.262,45.902 25.632,45.902 Z M25.632,46.642 C25.094,46.642 24.618,46.516 24.203,46.263 C23.788,46.011 23.462,45.664 23.224,45.221 C22.986,44.778 22.866,44.268 22.866,43.691 C22.866,43.114 22.986,42.604 23.224,42.162 C23.462,41.718 23.788,41.372 24.203,41.119 C24.618,40.867 25.094,40.741 25.632,40.741 C26.17,40.741 26.648,40.867 27.065,41.119 C27.482,41.372 27.81,41.718 28.049,42.162 C28.287,42.604 28.406,43.114 28.406,43.691 C28.406,44.268 28.287,44.778 28.049,45.221 C27.81,45.664 27.482,46.011 27.065,46.263 C26.648,46.516 26.17,46.642 25.632,46.642 Z"/>
    <polyline fill="#404040" points="30.449 46.549 29.6 46.549 29.6 40.833 33.155 40.833 33.155 41.547 30.449 41.547 30.449 43.481 32.744 43.481 32.744 44.196 30.449 44.196 30.449 46.549"/>
    <polyline fill="#404040" points="37.585 46.549 37.585 41.547 35.66 41.547 35.66 40.833 40.359 40.833 40.359 41.547 38.434 41.547 38.434 46.549 37.585 46.549"/>
    <polyline fill="#404040" points="41.334 46.549 41.334 40.833 42.183 40.833 42.183 43.28 45.134 43.28 45.134 40.833 45.982 40.833 45.982 46.549 45.134 46.549 45.134 44.011 42.183 44.011 42.183 46.549 41.334 46.549"/>
    <polyline fill="#404040" points="47.479 46.549 47.479 40.833 51.144 40.833 51.144 41.547 48.328 41.547 48.328 43.313 50.808 43.313 50.808 44.027 48.328 44.027 48.328 45.834 51.211 45.834 51.211 46.549 47.479 46.549"/>
    <path fill="#404040" d="M56.574 45.902C57.039 45.902 57.404 45.762 57.671 45.482 57.937 45.202 58.07 44.824 58.07 44.347L58.07 40.833 58.919 40.833 58.919 44.355C58.919 45.067 58.71 45.626 58.293 46.033 57.875 46.439 57.302 46.642 56.574 46.642 55.845 46.642 55.274 46.439 54.859 46.033 54.445 45.626 54.237 45.067 54.237 44.355L54.237 40.833 55.086 40.833 55.086 44.347C55.086 44.824 55.219 45.202 55.485 45.482 55.751 45.762 56.114 45.902 56.574 45.902M62.088 46.642C61.657 46.642 61.245 46.566 60.853 46.415 60.46 46.263 60.144 46.061 59.903 45.809L60.382 45.247C60.606 45.454 60.871 45.616 61.176 45.734 61.482 45.851 61.786 45.911 62.088 45.911 62.458 45.911 62.757 45.838 62.984 45.696 63.211 45.553 63.324 45.356 63.324 45.103 63.324 44.874 63.243 44.68 63.08 44.524 62.918 44.367 62.64 44.235 62.248 44.128L61.458 43.918C60.948 43.784 60.577 43.593 60.344 43.346 60.111 43.1 59.995 42.778 59.995 42.38 59.995 42.055 60.082 41.769 60.255 41.523 60.429 41.276 60.669 41.084 60.975 40.947 61.28 40.81 61.626 40.741 62.013 40.741 62.421 40.741 62.806 40.818 63.164 40.971 63.523 41.126 63.839 41.34 64.114 41.615L63.601 42.169C63.36 41.946 63.11 41.773 62.849 41.653 62.588 41.533 62.312 41.472 62.021 41.472 61.668 41.472 61.38 41.546 61.155 41.695 60.931 41.843 60.819 42.049 60.819 42.312 60.819 42.553 60.899 42.741 61.059 42.875 61.218 43.01 61.464 43.123 61.794 43.211L62.677 43.456C63.187 43.596 63.559 43.792 63.794 44.044 64.03 44.296 64.148 44.61 64.148 44.986 64.148 45.317 64.061 45.606 63.887 45.856 63.713 46.105 63.472 46.298 63.164 46.436 62.856 46.573 62.497 46.642 62.088 46.642M66.283 44.398L68.367 44.398 67.325 41.715 66.283 44.398zM69.199 46.549L68.645 45.112 66.005 45.112 65.45 46.549 64.593 46.549 66.88 40.833 67.796 40.833 70.074 46.549 69.199 46.549z"/>
    <polyline fill="#404040" points="74.025 46.549 74.025 41.547 72.099 41.547 72.099 40.833 76.798 40.833 76.798 41.547 74.873 41.547 74.873 46.549 74.025 46.549"/>
    <path fill="#404040" d="M79.858 45.902C80.228 45.902 80.557 45.808 80.846 45.621 81.134 45.432 81.36 45.173 81.523 44.842 81.685 44.512 81.766 44.128 81.766 43.691 81.766 43.254 81.685 42.871 81.523 42.54 81.36 42.208 81.134 41.95 80.846 41.762 80.557 41.575 80.228 41.48 79.858 41.48 79.488 41.48 79.16 41.575 78.875 41.762 78.589 41.95 78.365 42.208 78.202 42.54 78.04 42.871 77.958 43.254 77.958 43.691 77.958 44.128 78.04 44.512 78.202 44.842 78.365 45.173 78.589 45.432 78.875 45.621 79.16 45.808 79.488 45.902 79.858 45.902zM79.858 46.642C79.32 46.642 78.844 46.516 78.429 46.263 78.014 46.011 77.688 45.664 77.45 45.221 77.212 44.778 77.092 44.268 77.092 43.691 77.092 43.114 77.212 42.604 77.45 42.162 77.688 41.718 78.014 41.372 78.429 41.119 78.844 40.867 79.32 40.741 79.858 40.741 80.396 40.741 80.874 40.867 81.291 41.119 81.709 41.372 82.036 41.718 82.275 42.162 82.513 42.604 82.632 43.114 82.632 43.691 82.632 44.268 82.513 44.778 82.275 45.221 82.036 45.664 81.709 46.011 81.291 46.263 80.874 46.516 80.396 46.642 79.858 46.642zM84.674 45.834L85.835 45.834C86.238 45.834 86.584 45.747 86.873 45.57 87.161 45.394 87.382 45.145 87.537 44.826 87.691 44.506 87.768 44.128 87.768 43.691 87.768 43.254 87.691 42.875 87.537 42.556 87.382 42.237 87.161 41.989 86.873 41.813 86.584 41.636 86.238 41.547 85.835 41.547L84.674 41.547 84.674 45.834zM83.826 46.549L83.826 40.833 85.835 40.833C86.395 40.833 86.885 40.953 87.306 41.19 87.726 41.429 88.052 41.762 88.285 42.191 88.518 42.62 88.634 43.12 88.634 43.691 88.634 44.263 88.518 44.763 88.285 45.192 88.052 45.621 87.726 45.954 87.306 46.192 86.885 46.43 86.395 46.549 85.835 46.549L83.826 46.549zM90.802 44.398L92.887 44.398 91.845 41.715 90.802 44.398zM93.719 46.549L93.165 45.112 90.525 45.112 89.97 46.549 89.113 46.549 91.4 40.833 92.316 40.833 94.593 46.549 93.719 46.549z"/>
    <polyline fill="#404040" points="97.2 44.28 97.2 46.549 96.351 46.549 96.351 44.28 94.341 40.833 95.342 40.833 96.779 43.472 98.217 40.833 99.2 40.833 97.2 44.28"/>
    <polyline fill="#404040" points="105.992 46.549 102.941 42.169 102.941 46.549 102.142 46.549 102.142 40.833 102.932 40.833 105.992 45.212 105.992 40.833 106.782 40.833 106.782 46.549 105.992 46.549"/>
    <polyline fill="#404040" points="108.278 46.549 108.278 40.833 111.943 40.833 111.943 41.547 109.128 41.547 109.128 43.313 111.607 43.313 111.607 44.027 109.128 44.027 109.128 45.834 112.011 45.834 112.011 46.549 108.278 46.549"/>
    <polyline fill="#404040" points="114.532 46.549 114.532 41.547 112.607 41.547 112.607 40.833 117.306 40.833 117.306 41.547 115.381 41.547 115.381 46.549 114.532 46.549"/>
    <polyline fill="#404040" points="122.854 46.549 121.518 41.994 120.181 46.549 119.298 46.549 117.777 40.833 118.617 40.833 119.777 45.356 121.114 40.833 121.921 40.833 123.266 45.373 124.434 40.833 125.258 40.833 123.737 46.549 122.854 46.549"/>
    <path fill="#404040" d="M128.629 45.902C128.999 45.902 129.328 45.808 129.617 45.621 129.905 45.432 130.13 45.173 130.293 44.842 130.456 44.512 130.537 44.128 130.537 43.691 130.537 43.254 130.456 42.871 130.293 42.54 130.13 42.208 129.905 41.95 129.617 41.762 129.328 41.575 128.999 41.48 128.629 41.48 128.259 41.48 127.931 41.575 127.645 41.762 127.359 41.95 127.135 42.208 126.973 42.54 126.811 42.871 126.729 43.254 126.729 43.691 126.729 44.128 126.811 44.512 126.973 44.842 127.135 45.173 127.359 45.432 127.645 45.621 127.931 45.808 128.259 45.902 128.629 45.902zM128.629 46.642C128.091 46.642 127.614 46.516 127.2 46.263 126.785 46.011 126.459 45.664 126.221 45.221 125.983 44.778 125.863 44.268 125.863 43.691 125.863 43.114 125.983 42.604 126.221 42.162 126.459 41.718 126.785 41.372 127.2 41.119 127.614 40.867 128.091 40.741 128.629 40.741 129.167 40.741 129.645 40.867 130.062 41.119 130.48 41.372 130.807 41.718 131.046 42.162 131.284 42.604 131.403 43.114 131.403 43.691 131.403 44.268 131.284 44.778 131.046 45.221 130.807 45.664 130.48 46.011 130.062 46.263 129.645 46.516 129.167 46.642 128.629 46.642zM133.445 43.532L134.614 43.532C134.978 43.532 135.268 43.442 135.484 43.262 135.7 43.083 135.808 42.842 135.808 42.54 135.808 42.237 135.7 41.997 135.484 41.817 135.268 41.637 134.978 41.547 134.614 41.547L133.445 41.547 133.445 43.532zM133.445 44.229L133.445 46.549 132.597 46.549 132.597 40.833 134.614 40.833C135.247 40.833 135.749 40.986 136.119 41.291 136.488 41.597 136.673 42.013 136.673 42.54 136.673 42.938 136.561 43.274 136.337 43.548 136.113 43.823 135.805 44.016 135.413 44.128L136.799 46.549 135.833 46.549 134.53 44.229 133.445 44.229z"/>
    <polyline fill="#404040" points="141.288 46.549 138.724 43.666 138.724 46.549 137.876 46.549 137.876 40.833 138.724 40.833 138.724 43.338 141.12 40.833 142.171 40.833 139.624 43.456 142.356 46.549 141.288 46.549"/>
    <path fill="#009BFF" class='no-color-change' d="M114.385,9.667 C113.095,9.667 111.992,9.21 111.078,8.295 C110.162,7.38 109.705,6.278 109.705,4.988 C109.705,3.698 110.162,2.595 111.078,1.68 C111.992,0.765 113.095,0.308 114.385,0.308 C115.675,0.308 116.777,0.765 117.693,1.68 C118.608,2.595 119.065,3.698 119.065,4.988 C119.065,6.278 118.608,7.38 117.693,8.295 C116.777,9.21 115.675,9.667 114.385,9.667"/>
  </g>
</svg>
