<svg xmlns="http://www.w3.org/2000/svg" width="301" height="43" viewBox="0 0 301 43">
  <g fill="none" fill-rule="evenodd" transform="translate(0 -1)">
    <polyline fill="#009BFF" class='no-color-change' points="8.726 31.599 .356 31.599 .356 .999 21.866 .999 21.866 7.704 8.726 7.704 8.726 13.825 19.616 13.825 19.616 20.529 8.726 20.529 8.726 31.599"/>
    <path fill="#009BFF" class='no-color-change' d="M34.736,24.984 L38.561,24.984 C40.751,24.984 42.483,24.19 43.759,22.599 C45.033,21.009 45.671,18.91 45.671,16.299 C45.671,13.689 45.033,11.59 43.759,9.999 C42.483,8.41 40.751,7.614 38.561,7.614 L34.736,7.614 L34.736,24.984 Z M26.501,31.599 L26.501,0.999 L38.561,0.999 C41.591,0.999 44.268,1.652 46.594,2.956 C48.918,4.262 50.741,6.062 52.061,8.357 C53.381,10.652 54.041,13.3 54.041,16.299 C54.041,19.299 53.381,21.947 52.061,24.242 C50.741,26.536 48.918,28.337 46.594,29.642 C44.268,30.947 41.591,31.599 38.561,31.599 L26.501,31.599 Z"/>
    <polyline fill="#009BFF" class='no-color-change' points="67.406 24.849 80.141 24.849 80.141 31.599 59.036 31.599 59.036 .999 67.406 .999 67.406 24.849"/>
    <path fill="#404040" d="M103.45 15.084L107.95 15.084C109.239 15.084 110.259 14.747 111.01 14.072 111.759 13.397 112.135 12.474 112.135 11.304 112.135 10.195 111.759 9.302 111.01 8.627 110.259 7.951 109.239 7.614 107.95 7.614L103.45 7.614 103.45 15.084zM103.45 21.429L103.45 31.599 95.35 31.599 95.35.999 108.85.999C112.45.999 115.299 1.922 117.4 3.767 119.499 5.612 120.55 8.124 120.55 11.304 120.55 13.374 120.084 15.16 119.155 16.66 118.224 18.16 116.919 19.33 115.24 20.169L121.495 31.599 112.585 31.599 107.5 21.429 103.45 21.429zM135.76 13.779C133.209 13.779 131.679 15.129 131.17 17.83L139.9 17.83C139.689 16.36 139.187 15.317 138.392 14.701 137.597 14.087 136.719 13.779 135.76 13.779zM146.47 29.259C145.329 30.069 143.882 30.76 142.127 31.329 140.372 31.899 138.505 32.184 136.525 32.184 133.794 32.184 131.462 31.682 129.527 30.677 127.592 29.672 126.107 28.269 125.072 26.469 124.037 24.669 123.52 22.599 123.52 20.259 123.52 17.89 124.03 15.789 125.05 13.959 126.069 12.13 127.48 10.697 129.28 9.661 131.08 8.627 133.179 8.109 135.58 8.109 137.92 8.109 139.982 8.612 141.767 9.617 143.552 10.622 144.947 12.017 145.952 13.802 146.957 15.587 147.46 17.68 147.46 20.08 147.46 20.41 147.437 20.754 147.392 21.114 147.347 21.474 147.294 21.85 147.235 22.239L131.26 22.239C131.98 24.879 133.944 26.2 137.155 26.2 138.595 26.2 139.869 25.974 140.98 25.524 142.089 25.075 143.02 24.624 143.77 24.174L146.47 29.259zM163.659 25.974C165.039 25.974 166.141 25.442 166.967 24.377 167.792 23.312 168.204 21.895 168.204 20.124 168.204 18.354 167.792 16.937 166.967 15.872 166.141 14.807 165.039 14.274 163.659 14.274 162.309 14.274 161.221 14.807 160.397 15.872 159.572 16.937 159.159 18.354 159.159 20.124 159.159 21.895 159.572 23.312 160.397 24.377 161.221 25.442 162.309 25.974 163.659 25.974zM165.774 32.184C164.425 32.184 163.194 31.899 162.084 31.329 160.974 30.76 160.044 29.979 159.294 28.989L159.294 39.924 151.465 39.924 151.465 8.694 158.619 8.694 159.024 11.709C159.744 10.629 160.712 9.759 161.927 9.099 163.142 8.44 164.544 8.109 166.135 8.109 168.084 8.109 169.809 8.619 171.309 9.639 172.809 10.66 173.994 12.069 174.865 13.869 175.734 15.669 176.169 17.755 176.169 20.124 176.169 22.495 175.726 24.587 174.842 26.402 173.957 28.217 172.727 29.635 171.152 30.654 169.577 31.674 167.784 32.184 165.774 32.184zM191.38 25.974C192.759 25.974 193.862 25.442 194.687 24.377 195.511 23.312 195.925 21.895 195.925 20.124 195.925 18.354 195.511 16.945 194.687 15.894 193.862 14.844 192.759 14.319 191.38 14.319 189.999 14.319 188.897 14.844 188.072 15.894 187.246 16.945 186.834 18.354 186.834 20.124 186.834 21.895 187.246 23.312 188.072 24.377 188.897 25.442 189.999 25.974 191.38 25.974zM191.38 32.184C188.919 32.184 186.751 31.666 184.877 30.632 183.002 29.597 181.531 28.179 180.467 26.379 179.402 24.579 178.869 22.495 178.869 20.124 178.869 17.755 179.402 15.669 180.467 13.869 181.531 12.069 183.002 10.66 184.877 9.639 186.751 8.619 188.919 8.109 191.38 8.109 193.839 8.109 196.007 8.619 197.882 9.639 199.757 10.66 201.227 12.069 202.292 13.869 203.356 15.669 203.889 17.755 203.889 20.124 203.889 22.495 203.356 24.579 202.292 26.379 201.227 28.179 199.757 29.597 197.882 30.632 196.007 31.666 193.839 32.184 191.38 32.184zM215.814 22.734L215.814 31.599 207.985 31.599 207.985 8.694 215.139 8.694 215.635 12.519C216.114 11.289 216.902 10.291 217.997 9.527 219.092 8.762 220.36 8.379 221.8 8.379 222.61 8.379 223.224 8.485 223.644 8.694L223.644 15.849C223.314 15.73 222.947 15.64 222.542 15.58 222.137 15.519 221.679 15.489 221.169 15.489 219.609 15.489 218.326 16.067 217.322 17.222 216.317 18.377 215.814 20.214 215.814 22.734M244.749 30.114C243.819 30.744 242.753 31.247 241.554 31.622 240.354 31.997 239.094 32.184 237.774 32.184 235.314 32.184 233.356 31.472 231.901 30.047 230.446 28.622 229.719 26.709 229.719 24.309L229.719 14.544 225.984 14.544 225.984 8.694 230.079 8.694 231.069 2.304 237.549 2.304 237.549 8.694 243.534 8.694 243.534 14.544 237.549 14.544 237.549 23.319C237.549 24.1 237.781 24.707 238.246 25.142 238.711 25.577 239.333 25.794 240.114 25.794 240.503 25.794 240.901 25.72 241.306 25.569 241.711 25.419 242.094 25.24 242.454 25.029L244.749 30.114M258.654 13.779C256.103 13.779 254.573 15.129 254.063 17.83L262.793 17.83C262.583 16.36 262.08 15.317 261.286 14.701 260.49 14.087 259.613 13.779 258.654 13.779zM269.364 29.259C268.223 30.069 266.776 30.76 265.021 31.329 263.266 31.899 261.398 32.184 259.418 32.184 256.688 32.184 254.356 31.682 252.421 30.677 250.486 29.672 249.001 28.269 247.966 26.469 246.931 24.669 246.413 22.599 246.413 20.259 246.413 17.89 246.923 15.789 247.943 13.959 248.963 12.13 250.373 10.697 252.174 9.661 253.973 8.627 256.073 8.109 258.473 8.109 260.813 8.109 262.876 8.612 264.661 9.617 266.446 10.622 267.841 12.017 268.846 13.802 269.851 15.587 270.353 17.68 270.353 20.08 270.353 20.41 270.331 20.754 270.286 21.114 270.241 21.474 270.188 21.85 270.128 22.239L254.154 22.239C254.873 24.879 256.838 26.2 260.049 26.2 261.489 26.2 262.763 25.974 263.873 25.524 264.983 25.075 265.913 24.624 266.663 24.174L269.364 29.259zM282.188 22.734L282.188 31.599 274.358 31.599 274.358 8.694 281.513 8.694 282.008 12.519C282.488 11.289 283.275 10.291 284.371 9.527 285.466 8.762 286.733 8.379 288.173 8.379 288.983 8.379 289.598 8.485 290.018 8.694L290.018 15.849C289.688 15.73 289.321 15.64 288.916 15.58 288.51 15.519 288.053 15.489 287.543 15.489 285.983 15.489 284.7 16.067 283.696 17.222 282.69 18.377 282.188 20.214 282.188 22.734"/>
    <path fill="#009BFF" class='no-color-change' d="M295.778,32.094 C294.818,32.094 293.94,31.862 293.145,31.397 C292.35,30.932 291.72,30.302 291.256,29.507 C290.79,28.712 290.558,27.834 290.558,26.874 C290.558,25.914 290.79,25.037 291.256,24.242 C291.72,23.447 292.35,22.817 293.145,22.352 C293.94,21.887 294.818,21.654 295.778,21.654 C296.738,21.654 297.615,21.887 298.41,22.352 C299.205,22.817 299.835,23.447 300.301,24.242 C300.765,25.037 300.998,25.914 300.998,26.874 C300.998,27.834 300.765,28.712 300.301,29.507 C299.835,30.302 299.205,30.932 298.41,31.397 C297.615,31.862 296.738,32.094 295.778,32.094"/>
    <path fill="#404040" d="M1.175 40.735L2.274 40.735C2.634 40.735 2.92 40.646 3.13 40.468 3.34 40.29 3.445 40.048 3.445 39.741 3.445 39.433 3.34 39.191 3.13 39.014 2.92 38.835 2.634 38.747 2.274 38.747L1.175 38.747 1.175 40.735zM.359 43.555L.359 38.06 2.274 38.06C2.888 38.06 3.375 38.211 3.736 38.512 4.097 38.814 4.277 39.224 4.277 39.741 4.277 40.253 4.097 40.658 3.736 40.957 3.375 41.256 2.888 41.405 2.274 41.405L1.175 41.405 1.175 43.555.359 43.555zM5.926 41.486L7.93 41.486 6.928 38.909 5.926 41.486zM8.73 43.555L8.197 42.173 5.659 42.173 5.126 43.555 4.302 43.555 6.5 38.06 7.38 38.06 9.57 43.555 8.73 43.555zM11.299 40.654L12.423 40.654C12.772 40.654 13.051 40.568 13.259 40.395 13.466 40.223 13.57 39.991 13.57 39.7 13.57 39.409 13.466 39.178 13.259 39.005 13.051 38.833 12.772 38.747 12.423 38.747L11.299 38.747 11.299 40.654zM11.299 41.324L11.299 43.555 10.483 43.555 10.483 38.06 12.423 38.06C13.031 38.06 13.513 38.207 13.869 38.5 14.225 38.794 14.402 39.194 14.402 39.7 14.402 40.083 14.294 40.406 14.079 40.67 13.863 40.934 13.567 41.12 13.19 41.227L14.523 43.555 13.594 43.555 12.342 41.324 11.299 41.324z"/>
    <polyline fill="#404040" points="16.745 43.555 16.745 38.747 14.895 38.747 14.895 38.06 19.412 38.06 19.412 38.747 17.562 38.747 17.562 43.555 16.745 43.555"/>
    <path fill="#404040" d="M24.656,42.932 C25.011,42.932 25.328,42.842 25.605,42.662 C25.883,42.481 26.099,42.232 26.256,41.914 C26.412,41.597 26.49,41.227 26.49,40.807 C26.49,40.387 26.412,40.018 26.256,39.7 C26.099,39.382 25.883,39.133 25.605,38.953 C25.328,38.772 25.011,38.682 24.656,38.682 C24.3,38.682 23.985,38.772 23.711,38.953 C23.436,39.133 23.22,39.382 23.064,39.7 C22.908,40.018 22.83,40.387 22.83,40.807 C22.83,41.227 22.908,41.597 23.064,41.914 C23.22,42.232 23.436,42.481 23.711,42.662 C23.985,42.842 24.3,42.932 24.656,42.932 Z M24.656,43.644 C24.139,43.644 23.681,43.522 23.282,43.28 C22.884,43.037 22.57,42.703 22.341,42.278 C22.112,41.853 21.997,41.362 21.997,40.807 C21.997,40.253 22.112,39.762 22.341,39.337 C22.57,38.911 22.884,38.577 23.282,38.335 C23.681,38.092 24.139,37.971 24.656,37.971 C25.173,37.971 25.632,38.092 26.034,38.335 C26.435,38.577 26.75,38.911 26.979,39.337 C27.208,39.762 27.322,40.253 27.322,40.807 C27.322,41.362 27.208,41.853 26.979,42.278 C26.75,42.703 26.435,43.037 26.034,43.28 C25.632,43.522 25.173,43.644 24.656,43.644 Z"/>
    <polyline fill="#404040" points="29.286 43.555 28.47 43.555 28.47 38.06 31.888 38.06 31.888 38.747 29.286 38.747 29.286 40.605 31.492 40.605 31.492 41.292 29.286 41.292 29.286 43.555"/>
    <polyline fill="#404040" points="36.146 43.555 36.146 38.747 34.296 38.747 34.296 38.06 38.812 38.06 38.812 38.747 36.962 38.747 36.962 43.555 36.146 43.555"/>
    <polyline fill="#404040" points="39.75 43.555 39.75 38.06 40.566 38.06 40.566 40.411 43.402 40.411 43.402 38.06 44.218 38.06 44.218 43.555 43.402 43.555 43.402 41.114 40.566 41.114 40.566 43.555 39.75 43.555"/>
    <polyline fill="#404040" points="45.656 43.555 45.656 38.06 49.18 38.06 49.18 38.747 46.473 38.747 46.473 40.443 48.856 40.443 48.856 41.13 46.473 41.13 46.473 42.868 49.244 42.868 49.244 43.555 45.656 43.555"/>
    <path fill="#404040" d="M54.399 42.932C54.846 42.932 55.198 42.798 55.454 42.529 55.709 42.259 55.838 41.895 55.838 41.437L55.838 38.06 56.654 38.06 56.654 41.445C56.654 42.13 56.453 42.667 56.052 43.058 55.65 43.448 55.099 43.644 54.399 43.644 53.699 43.644 53.149 43.448 52.751 43.058 52.352 42.667 52.153 42.13 52.153 41.445L52.153 38.06 52.969 38.06 52.969 41.437C52.969 41.895 53.097 42.259 53.353 42.529 53.609 42.798 53.957 42.932 54.399 42.932M59.7 43.644C59.285 43.644 58.889 43.571 58.512 43.425 58.135 43.28 57.83 43.086 57.599 42.844L58.06 42.302C58.275 42.502 58.529 42.658 58.823 42.771 59.117 42.884 59.409 42.94 59.7 42.94 60.055 42.94 60.342 42.872 60.56 42.734 60.779 42.597 60.888 42.407 60.888 42.165 60.888 41.944 60.809 41.758 60.653 41.607 60.497 41.456 60.23 41.33 59.853 41.227L59.094 41.025C58.603 40.896 58.246 40.713 58.023 40.476 57.799 40.239 57.688 39.929 57.688 39.547 57.688 39.235 57.771 38.959 57.938 38.722 58.105 38.485 58.335 38.301 58.629 38.169 58.923 38.037 59.255 37.971 59.627 37.971 60.02 37.971 60.389 38.045 60.734 38.193 61.079 38.341 61.383 38.548 61.647 38.812L61.154 39.345C60.923 39.13 60.681 38.964 60.431 38.848 60.181 38.732 59.915 38.674 59.635 38.674 59.296 38.674 59.018 38.746 58.803 38.888 58.587 39.031 58.48 39.229 58.48 39.482 58.48 39.714 58.556 39.894 58.71 40.024 58.863 40.153 59.099 40.261 59.417 40.347L60.265 40.581C60.756 40.716 61.114 40.904 61.34 41.147 61.566 41.389 61.679 41.691 61.679 42.052 61.679 42.37 61.596 42.648 61.429 42.888 61.262 43.128 61.03 43.313 60.734 43.445 60.438 43.578 60.093 43.644 59.7 43.644M63.732 41.486L65.736 41.486 64.734 38.909 63.732 41.486zM66.536 43.555L66.003 42.173 63.465 42.173 62.932 43.555 62.108 43.555 64.306 38.06 65.186 38.06 67.376 43.555 66.536 43.555z"/>
    <polyline fill="#404040" points="71.174 43.555 71.174 38.747 69.323 38.747 69.323 38.06 73.84 38.06 73.84 38.747 71.99 38.747 71.99 43.555 71.174 43.555"/>
    <path fill="#404040" d="M76.782 42.932C77.137 42.932 77.454 42.842 77.731 42.662 78.008 42.481 78.225 42.232 78.381 41.914 78.538 41.597 78.616 41.227 78.616 40.807 78.616 40.387 78.538 40.018 78.381 39.7 78.225 39.382 78.008 39.133 77.731 38.953 77.454 38.772 77.137 38.682 76.782 38.682 76.426 38.682 76.111 38.772 75.836 38.953 75.561 39.133 75.346 39.382 75.19 39.7 75.034 40.018 74.955 40.387 74.955 40.807 74.955 41.227 75.034 41.597 75.19 41.914 75.346 42.232 75.561 42.481 75.836 42.662 76.111 42.842 76.426 42.932 76.782 42.932zM76.782 43.644C76.265 43.644 75.807 43.522 75.408 43.28 75.009 43.037 74.696 42.703 74.467 42.278 74.238 41.853 74.123 41.362 74.123 40.807 74.123 40.253 74.238 39.762 74.467 39.337 74.696 38.911 75.009 38.577 75.408 38.335 75.807 38.092 76.265 37.971 76.782 37.971 77.299 37.971 77.758 38.092 78.159 38.335 78.56 38.577 78.876 38.911 79.105 39.337 79.334 39.762 79.448 40.253 79.448 40.807 79.448 41.362 79.334 41.853 79.105 42.278 78.876 42.703 78.56 43.037 78.159 43.28 77.758 43.522 77.299 43.644 76.782 43.644zM81.412 42.868L82.527 42.868C82.914 42.868 83.247 42.783 83.524 42.613 83.802 42.444 84.015 42.205 84.163 41.898 84.311 41.591 84.385 41.227 84.385 40.807 84.385 40.387 84.311 40.024 84.163 39.716 84.015 39.409 83.802 39.171 83.524 39.001 83.247 38.832 82.914 38.747 82.527 38.747L81.412 38.747 81.412 42.868zM80.595 43.555L80.595 38.06 82.527 38.06C83.065 38.06 83.537 38.175 83.941 38.404 84.345 38.632 84.658 38.953 84.882 39.365 85.105 39.777 85.217 40.258 85.217 40.807 85.217 41.357 85.105 41.837 84.882 42.25 84.658 42.662 84.345 42.982 83.941 43.211 83.537 43.44 83.065 43.555 82.527 43.555L80.595 43.555zM87.302 41.486L89.306 41.486 88.304 38.909 87.302 41.486zM90.106 43.555L89.573 42.173 87.035 42.173 86.502 43.555 85.678 43.555 87.876 38.06 88.756 38.06 90.946 43.555 90.106 43.555z"/>
    <polyline fill="#404040" points="93.451 41.373 93.451 43.555 92.635 43.555 92.635 41.373 90.704 38.06 91.666 38.06 93.047 40.597 94.429 38.06 95.374 38.06 93.451 41.373"/>
    <polyline fill="#404040" points="101.903 43.555 98.97 39.345 98.97 43.555 98.202 43.555 98.202 38.06 98.962 38.06 101.903 42.27 101.903 38.06 102.663 38.06 102.663 43.555 101.903 43.555"/>
    <polyline fill="#404040" points="104.101 43.555 104.101 38.06 107.624 38.06 107.624 38.747 104.917 38.747 104.917 40.443 107.301 40.443 107.301 41.13 104.917 41.13 104.917 42.868 107.689 42.868 107.689 43.555 104.101 43.555"/>
    <polyline fill="#404040" points="110.113 43.555 110.113 38.747 108.262 38.747 108.262 38.06 112.779 38.06 112.779 38.747 110.929 38.747 110.929 43.555 110.113 43.555"/>
    <polyline fill="#404040" points="118.112 43.555 116.827 39.175 115.543 43.555 114.694 43.555 113.232 38.06 114.04 38.06 115.155 42.407 116.44 38.06 117.215 38.06 118.508 42.424 119.631 38.06 120.423 38.06 118.96 43.555 118.112 43.555"/>
    <path fill="#404040" d="M123.663 42.932C124.019 42.932 124.335 42.842 124.613 42.662 124.89 42.481 125.107 42.232 125.263 41.914 125.419 41.597 125.498 41.227 125.498 40.807 125.498 40.387 125.419 40.018 125.263 39.7 125.107 39.382 124.89 39.133 124.613 38.953 124.335 38.772 124.019 38.682 123.663 38.682 123.308 38.682 122.993 38.772 122.718 38.953 122.443 39.133 122.228 39.382 122.072 39.7 121.915 40.018 121.837 40.387 121.837 40.807 121.837 41.227 121.915 41.597 122.072 41.914 122.228 42.232 122.443 42.481 122.718 42.662 122.993 42.842 123.308 42.932 123.663 42.932zM123.663 43.644C123.146 43.644 122.689 43.522 122.29 43.28 121.891 43.037 121.577 42.703 121.348 42.278 121.12 41.853 121.005 41.362 121.005 40.807 121.005 40.253 121.12 39.762 121.348 39.337 121.577 38.911 121.891 38.577 122.29 38.335 122.689 38.092 123.146 37.971 123.663 37.971 124.181 37.971 124.64 38.092 125.041 38.335 125.442 38.577 125.757 38.911 125.987 39.337 126.215 39.762 126.33 40.253 126.33 40.807 126.33 41.362 126.215 41.853 125.987 42.278 125.757 42.703 125.442 43.037 125.041 43.28 124.64 43.522 124.181 43.644 123.663 43.644zM128.293 40.654L129.417 40.654C129.767 40.654 130.045 40.568 130.253 40.395 130.46 40.223 130.564 39.991 130.564 39.7 130.564 39.409 130.46 39.178 130.253 39.005 130.045 38.833 129.767 38.747 129.417 38.747L128.293 38.747 128.293 40.654zM128.293 41.324L128.293 43.555 127.477 43.555 127.477 38.06 129.417 38.06C130.025 38.06 130.507 38.207 130.863 38.5 131.219 38.794 131.396 39.194 131.396 39.7 131.396 40.083 131.288 40.406 131.073 40.67 130.857 40.934 130.561 41.12 130.184 41.227L131.517 43.555 130.588 43.555 129.336 41.324 128.293 41.324z"/>
    <polyline fill="#404040" points="135.832 43.555 133.368 40.783 133.368 43.555 132.552 43.555 132.552 38.06 133.368 38.06 133.368 40.468 135.671 38.06 136.681 38.06 134.232 40.581 136.859 43.555 135.832 43.555"/>
  </g>
</svg>
