<svg xmlns="http://www.w3.org/2000/svg" xmlns:xlink="http://www.w3.org/1999/xlink" width="720" height="157" viewBox="0 0 720 157">
  <defs>
    <style>
      .cls-1 {
        filter: url(#filter);
      }

      .cls-2, .cls-5 {
        fill: #fff;
      }

      .cls-2, .cls-4, .cls-5 {
        fill-rule: evenodd;
      }

      .cls-3, .cls-4 {
        fill: #999;
      }

      .cls-5 {
        filter: url(#filter-2);
      }
    </style>
    <filter id="filter" filterUnits="userSpaceOnUse">
      <feFlood result="flood" flood-color="#333"/>
      <feComposite result="composite" operator="in" in2="SourceGraphic"/>
      <feBlend result="blend" in2="SourceGraphic"/>
    </filter>
    <filter id="filter-2" x="7.063" y="126.969" width="423.906" height="18.469" filterUnits="userSpaceOnUse">
      <feFlood result="flood" flood-color="#999"/>
      <feComposite result="composite" operator="in" in2="SourceGraphic"/>
      <feBlend result="blend" in2="SourceGraphic"/>
    </filter>
  </defs>
  <g id="fdlreporter" class="cls-1">
    <path class="cls-2" d="M452.357,96.542a2.581,2.581,0,0,1,1.9.793,2.768,2.768,0,0,1,0,3.867,2.653,2.653,0,0,1-3.805,0,2.768,2.768,0,0,1,0-3.867A2.583,2.583,0,0,1,452.357,96.542ZM483.442,82.4l-2.426,1.521a10.136,10.136,0,0,0-8.583-4.208,9.885,9.885,0,0,0-7.216,2.817,9.223,9.223,0,0,0-2.872,6.843,9.771,9.771,0,0,0,1.322,4.93,9.293,9.293,0,0,0,3.624,3.587,10.9,10.9,0,0,0,13.725-2.931l2.426,1.608a11.48,11.48,0,0,1-4.581,4.015,14.53,14.53,0,0,1-6.546,1.427,12.881,12.881,0,0,1-9.358-3.613,11.8,11.8,0,0,1-3.716-8.791,12.635,12.635,0,0,1,1.738-6.465,12.28,12.28,0,0,1,4.777-4.66,13.855,13.855,0,0,1,6.8-1.674,14.428,14.428,0,0,1,4.557.727,12.647,12.647,0,0,1,3.729,1.9A10.25,10.25,0,0,1,483.442,82.4Zm16.111-5.6a11.743,11.743,0,0,1,9.111,4.01,12.945,12.945,0,0,1-.187,17.438,12.506,12.506,0,0,1-17.87,0,12.913,12.913,0,0,1-.187-17.415A11.732,11.732,0,0,1,499.553,76.8Zm-0.011,3.018a8.8,8.8,0,0,0-6.561,2.843,9.542,9.542,0,0,0-2.742,6.874,9.8,9.8,0,0,0,1.251,4.847,8.9,8.9,0,0,0,3.378,3.47,9.541,9.541,0,0,0,9.347,0,8.9,8.9,0,0,0,3.378-3.47,9.8,9.8,0,0,0,1.252-4.847,9.52,9.52,0,0,0-2.754-6.874A8.811,8.811,0,0,0,499.542,79.821Zm17.018-2.4h3.06v4.142a11.9,11.9,0,0,1,3.282-3.349,9.257,9.257,0,0,1,4.882-1.41,8.053,8.053,0,0,1,3.282.683,7.059,7.059,0,0,1,2.54,1.817,9.764,9.764,0,0,1,1.706,3.249,11.374,11.374,0,0,1,3.817-4.285,8.985,8.985,0,0,1,4.93-1.465,7.677,7.677,0,0,1,4.351,1.255,7.481,7.481,0,0,1,2.8,3.5,18.814,18.814,0,0,1,.917,6.741v13.086H549V88.3a17.256,17.256,0,0,0-.545-5.3A4.777,4.777,0,0,0,546.6,80.68a5.536,5.536,0,0,0-3.149-.881,6.813,6.813,0,0,0-4.064,1.322,7.6,7.6,0,0,0-2.691,3.525,22.514,22.514,0,0,0-.85,7.358v9.385H532.78V89.119a21.256,21.256,0,0,0-.535-5.894,4.937,4.937,0,0,0-1.869-2.49,5.381,5.381,0,0,0-3.17-.936,6.805,6.805,0,0,0-3.968,1.289,7.619,7.619,0,0,0-2.733,3.47,18.849,18.849,0,0,0-.885,6.676v10.155h-3.06V77.42ZM24.345,31.3v6.4a15.966,15.966,0,0,0-6.121-1.542,5.917,5.917,0,0,0-3.153.771,3.4,3.4,0,0,0-1.576,1.776,24.736,24.736,0,0,0-.325,5.35l-0.006,6.869H23.7v5.654H13.158l-0.036,45.187H6.631V56.586H0V50.931H6.631V42.987q0-5.467,1-7.8a7.993,7.993,0,0,1,3.385-3.762A11.072,11.072,0,0,1,16.786,30,27.275,27.275,0,0,1,24.345,31.3Zm57.218,0v70.468h-6.4V93.035A27.86,27.86,0,0,1,66,100.558,24.608,24.608,0,0,1,54.9,103.081,24.54,24.54,0,0,1,36.6,95.254a26.349,26.349,0,0,1-7.582-19.042,25.869,25.869,0,0,1,7.651-18.785,24.857,24.857,0,0,1,18.41-7.8A23.662,23.662,0,0,1,66.33,52.286a25.671,25.671,0,0,1,8.834,7.991V31.3h6.4ZM55.618,55.932a19.552,19.552,0,0,0-17.3,10.223,20.739,20.739,0,0,0,.023,20.537,19.976,19.976,0,0,0,7.341,7.631,19.066,19.066,0,0,0,9.889,2.731,20.152,20.152,0,0,0,10.1-2.707,18.865,18.865,0,0,0,7.341-7.328,21.042,21.042,0,0,0,2.571-10.409,20.319,20.319,0,0,0-5.767-14.75A19.031,19.031,0,0,0,55.618,55.932ZM93.1,31.3H99.6v70.468H93.1V31.3Zm15.344,19.627h6.631v7.43a23.362,23.362,0,0,1,6.26-6.566,12.28,12.28,0,0,1,6.863-2.173,11.781,11.781,0,0,1,5.75,1.729l-3.385,5.515a8.979,8.979,0,0,0-3.431-.888,9.352,9.352,0,0,0-6.261,2.687q-3.013,2.688-4.59,8.341-1.206,4.346-1.206,17.57v17.2h-6.631V50.931ZM179.393,84.9l5.472,2.9a30.066,30.066,0,0,1-6.22,8.6,24.661,24.661,0,0,1-7.937,4.976,27.5,27.5,0,0,1-9.979,1.7q-12.347,0-19.308-8.154a27.626,27.626,0,0,1-6.962-18.434,27.313,27.313,0,0,1,5.894-17.244q7.471-9.625,20-9.626,12.9,0,20.607,9.86,5.477,6.963,5.57,17.383h-45.4q0.186,8.859,5.618,14.523a17.853,17.853,0,0,0,13.418,5.664,21.431,21.431,0,0,0,7.5-1.35,19.718,19.718,0,0,0,6.2-3.584A30.482,30.482,0,0,0,179.393,84.9Zm0-13.692a21.772,21.772,0,0,0-3.784-8.365,17.933,17.933,0,0,0-6.57-5.046,19.992,19.992,0,0,0-8.589-1.916A18.418,18.418,0,0,0,147.682,60.7q-3.9,3.505-5.9,10.515h37.608Zm17.153-20.281h6.492v9.346a26.118,26.118,0,0,1,8.848-7.991,23.377,23.377,0,0,1,11.164-2.663,24.819,24.819,0,0,1,18.391,7.8,25.881,25.881,0,0,1,7.644,18.785,26.365,26.365,0,0,1-7.574,19.042,25.357,25.357,0,0,1-29.348,5.3,27.912,27.912,0,0,1-9.125-7.524v27.338h-6.492V50.931Zm25.968,5a19,19,0,0,0-14.18,5.928,20.327,20.327,0,0,0-5.76,14.75,21.063,21.063,0,0,0,2.568,10.409,18.8,18.8,0,0,0,7.356,7.328,20.235,20.235,0,0,0,10.109,2.707,18.942,18.942,0,0,0,9.83-2.731,19.966,19.966,0,0,0,7.334-7.631,20.756,20.756,0,0,0,.022-20.537A19.522,19.522,0,0,0,222.514,55.932Zm60.418-6.309a24.9,24.9,0,0,1,19.325,8.5,27.452,27.452,0,0,1-.395,36.986q-7.364,7.968-18.93,7.967-11.615,0-18.976-7.967a27.393,27.393,0,0,1-.4-36.94A24.891,24.891,0,0,1,282.932,49.623Zm-0.023,6.4a18.665,18.665,0,0,0-13.915,6.028,20.231,20.231,0,0,0-5.817,14.58,20.792,20.792,0,0,0,2.653,10.28A18.852,18.852,0,0,0,273,94.273a20.238,20.238,0,0,0,19.825,0,18.866,18.866,0,0,0,7.166-7.36,20.8,20.8,0,0,0,2.652-10.28,20.189,20.189,0,0,0-5.839-14.58A18.691,18.691,0,0,0,282.909,56.025Zm33.683-5.093h6.633v7.43a23.346,23.346,0,0,1,6.259-6.566,12.281,12.281,0,0,1,6.864-2.173,11.784,11.784,0,0,1,5.75,1.729l-3.385,5.515a8.983,8.983,0,0,0-3.432-.888,9.348,9.348,0,0,0-6.26,2.687Q326,61.353,324.43,67.006q-1.208,4.346-1.2,17.57v17.2h-6.633V50.931Zm34.5-18.878h6.491V50.931h10.295v5.654H357.581v45.187H351.09V56.586h-8.858V50.931h8.858V32.053ZM417.906,84.9l5.473,2.9a30.085,30.085,0,0,1-6.22,8.6,24.672,24.672,0,0,1-7.937,4.976,27.5,27.5,0,0,1-9.979,1.7q-12.348,0-19.309-8.154a27.631,27.631,0,0,1-6.962-18.434,27.313,27.313,0,0,1,5.894-17.244q7.473-9.625,20-9.626,12.9,0,20.607,9.86,5.477,6.963,5.57,17.383h-45.4q0.186,8.859,5.618,14.523a17.855,17.855,0,0,0,13.418,5.664,21.427,21.427,0,0,0,7.5-1.35,19.7,19.7,0,0,0,6.2-3.584A30.455,30.455,0,0,0,417.906,84.9Zm0-13.692a21.787,21.787,0,0,0-3.784-8.365,17.925,17.925,0,0,0-6.57-5.046,19.991,19.991,0,0,0-8.588-1.916A18.419,18.419,0,0,0,386.2,60.7q-3.9,3.505-5.9,10.515h37.608Zm14.6-20.281h6.631v7.43A23.375,23.375,0,0,1,445.4,51.8a12.281,12.281,0,0,1,6.864-2.173,11.783,11.783,0,0,1,5.749,1.729l-3.384,5.515a8.987,8.987,0,0,0-3.432-.888,9.352,9.352,0,0,0-6.261,2.687q-3.015,2.688-4.591,8.341-1.206,4.346-1.205,17.57v17.2h-6.631V50.931Z"/>
    <rect id="Rectangle_1_copy" data-name="Rectangle 1 copy" class="cls-3" x="569" y="38" width="1.969" height="66"/>
    <path class="cls-4" d="M584.863,79.425h1.668l3.32,11.73,4.66-11.73h0.338l4.606,11.73,3.377-11.73h1.656L599.818,95.7h-0.3l-4.824-12.316L589.775,95.7h-0.3Zm23.056-.719a1.278,1.278,0,0,1,0,2.556,1.211,1.211,0,0,1-.891-0.376,1.224,1.224,0,0,1-.374-0.9,1.238,1.238,0,0,1,.374-0.907A1.214,1.214,0,0,1,607.919,78.706Zm-0.769,4.958H608.7V95.7H607.15V83.663Zm10.808,1.317-0.994,1.029a3.576,3.576,0,0,0-2.426-1.206,1.832,1.832,0,0,0-1.291.5,1.537,1.537,0,0,0-.538,1.162,1.72,1.72,0,0,0,.444,1.118,6.22,6.22,0,0,0,1.86,1.273,6.912,6.912,0,0,1,2.347,1.726,3.144,3.144,0,0,1,.609,1.892,3.393,3.393,0,0,1-1.04,2.511,3.545,3.545,0,0,1-2.6,1.03,4.53,4.53,0,0,1-1.987-.454,4.294,4.294,0,0,1-1.566-1.25l0.973-1.107a3.373,3.373,0,0,0,2.513,1.339,2.264,2.264,0,0,0,1.584-.6,1.849,1.849,0,0,0,.653-1.406,1.8,1.8,0,0,0-.431-1.185,7,7,0,0,0-1.949-1.284A6.23,6.23,0,0,1,611.9,88.41a3.123,3.123,0,0,1-.587-1.87,3.047,3.047,0,0,1,.935-2.28,3.259,3.259,0,0,1,2.364-.907A4.9,4.9,0,0,1,617.958,84.98Zm14.409,1.184-1.226.764a5.135,5.135,0,0,0-4.338-2.114,5.016,5.016,0,0,0-3.648,1.415,4.621,4.621,0,0,0-1.452,3.438,4.892,4.892,0,0,0,.669,2.476,4.671,4.671,0,0,0,1.832,1.8,5.537,5.537,0,0,0,6.937-1.472l1.226,0.809a5.794,5.794,0,0,1-2.314,2.015,7.377,7.377,0,0,1-3.311.718,6.531,6.531,0,0,1-4.729-1.815,5.907,5.907,0,0,1-1.878-4.415,6.313,6.313,0,0,1,.878-3.249,6.189,6.189,0,0,1,2.414-2.34,7.044,7.044,0,0,1,3.437-.841,7.334,7.334,0,0,1,2.3.365,6.44,6.44,0,0,1,1.884.952A5.177,5.177,0,0,1,632.367,86.164Zm8.664-2.811a5.949,5.949,0,0,1,4.605,2.014,6.47,6.47,0,0,1-.093,8.758,6.35,6.35,0,0,1-9.034,0,6.455,6.455,0,0,1-.094-8.747A5.95,5.95,0,0,1,641.031,83.353Zm0,1.516A4.463,4.463,0,0,0,637.71,86.3a4.774,4.774,0,0,0-1.385,3.453,4.906,4.906,0,0,0,.631,2.435,4.474,4.474,0,0,0,1.708,1.743,4.848,4.848,0,0,0,4.723,0,4.477,4.477,0,0,0,1.709-1.743,4.907,4.907,0,0,0,.632-2.434,4.761,4.761,0,0,0-1.393-3.453A4.462,4.462,0,0,0,641.026,84.869Zm9.134-1.206h1.547v2.158a6.476,6.476,0,0,1,2.055-1.854,5.05,5.05,0,0,1,2.453-.614,4.263,4.263,0,0,1,2.393.686,4.1,4.1,0,0,1,1.541,1.848,9.793,9.793,0,0,1,.5,3.619v6.2H659.1V89.96a14.241,14.241,0,0,0-.172-2.778,3.065,3.065,0,0,0-1.032-1.8,3.111,3.111,0,0,0-1.989-.6,3.812,3.812,0,0,0-2.515.93,4.354,4.354,0,0,0-1.464,2.3,15.983,15.983,0,0,0-.221,3.276V95.7H650.16V83.663Zm19.845,1.317-0.994,1.029a3.576,3.576,0,0,0-2.426-1.206,1.832,1.832,0,0,0-1.291.5,1.54,1.54,0,0,0-.538,1.162,1.72,1.72,0,0,0,.444,1.118,6.22,6.22,0,0,0,1.86,1.273,6.912,6.912,0,0,1,2.347,1.726,3.144,3.144,0,0,1,.609,1.892,3.4,3.4,0,0,1-1.039,2.511,3.549,3.549,0,0,1-2.6,1.03,4.53,4.53,0,0,1-1.987-.454,4.294,4.294,0,0,1-1.566-1.25L663.8,93.2a3.375,3.375,0,0,0,2.513,1.339,2.268,2.268,0,0,0,1.585-.6,1.851,1.851,0,0,0,.652-1.406,1.8,1.8,0,0,0-.431-1.185,7,7,0,0,0-1.949-1.284,6.23,6.23,0,0,1-2.215-1.659,3.123,3.123,0,0,1-.587-1.87,3.047,3.047,0,0,1,.935-2.28,3.259,3.259,0,0,1,2.364-.907A4.9,4.9,0,0,1,670.005,84.98Zm3.278-6.274a1.226,1.226,0,0,1,.9.376,1.239,1.239,0,0,1,.375.907,1.283,1.283,0,0,1-1.276,1.273,1.209,1.209,0,0,1-.891-0.376,1.225,1.225,0,0,1-.375-0.9,1.239,1.239,0,0,1,.375-0.907A1.212,1.212,0,0,1,673.283,78.706Zm-0.769,4.958h1.547V95.7h-1.547V83.663Zm4.762,0h1.547v2.158a6.487,6.487,0,0,1,2.055-1.854,5.053,5.053,0,0,1,2.453-.614,4.261,4.261,0,0,1,2.393.686,4.085,4.085,0,0,1,1.541,1.848,9.772,9.772,0,0,1,.5,3.619v6.2h-1.547V89.96a14.241,14.241,0,0,0-.172-2.778,3.06,3.06,0,0,0-1.032-1.8,3.111,3.111,0,0,0-1.989-.6,3.812,3.812,0,0,0-2.515.93,4.36,4.36,0,0,0-1.464,2.3,15.983,15.983,0,0,0-.221,3.276V95.7h-1.547V83.663Zm-91.5-34.058h8.145V51.2H587.4v5.1h6.52v1.594H587.4v7.99h-1.625V49.605Zm16.41,3.928a5.95,5.95,0,0,1,4.606,2.014,6.469,6.469,0,0,1-.094,8.758,6.348,6.348,0,0,1-9.033,0,6.455,6.455,0,0,1-.094-8.747A5.949,5.949,0,0,1,602.189,53.534Zm0,1.516a4.46,4.46,0,0,0-3.316,1.428,4.775,4.775,0,0,0-1.386,3.453,4.906,4.906,0,0,0,.632,2.435,4.479,4.479,0,0,0,1.707,1.743,4.847,4.847,0,0,0,4.724,0,4.477,4.477,0,0,0,1.709-1.743,4.906,4.906,0,0,0,.632-2.434,4.765,4.765,0,0,0-1.393-3.453A4.463,4.463,0,0,0,602.185,55.05Zm9.132-1.206h1.547V56a6.489,6.489,0,0,1,2.055-1.854,5.058,5.058,0,0,1,2.454-.614,4.257,4.257,0,0,1,2.392.686,4.085,4.085,0,0,1,1.541,1.848,9.772,9.772,0,0,1,.5,3.619v6.2h-1.547V60.14a14.24,14.24,0,0,0-.172-2.778,3.055,3.055,0,0,0-1.032-1.8,3.111,3.111,0,0,0-1.989-.6,3.808,3.808,0,0,0-2.514.93,4.356,4.356,0,0,0-1.465,2.3,15.984,15.984,0,0,0-.221,3.276v4.415h-1.547V53.844Zm25.8-4.648V65.883h-1.525V63.814a6.631,6.631,0,0,1-2.182,1.782,6.091,6.091,0,0,1-7.006-1.256,6.218,6.218,0,0,1-1.806-4.51,6.108,6.108,0,0,1,1.822-4.448,5.943,5.943,0,0,1,4.387-1.848,5.667,5.667,0,0,1,2.68.631,6.1,6.1,0,0,1,2.105,1.892V49.2h1.525Zm-6.182,5.832a4.661,4.661,0,0,0-4.123,2.421,4.883,4.883,0,0,0,0,4.863,4.753,4.753,0,0,0,1.749,1.807,4.571,4.571,0,0,0,2.357.647,4.827,4.827,0,0,0,2.407-.641,4.484,4.484,0,0,0,1.749-1.735,4.965,4.965,0,0,0,.613-2.465,4.792,4.792,0,0,0-1.375-3.493A4.548,4.548,0,0,0,630.937,55.028ZM658.889,49.2V65.883h-1.525V63.814a6.631,6.631,0,0,1-2.182,1.782,6.091,6.091,0,0,1-7.006-1.256,6.218,6.218,0,0,1-1.806-4.51,6.1,6.1,0,0,1,1.823-4.448,5.939,5.939,0,0,1,4.386-1.848,5.664,5.664,0,0,1,2.68.631,6.093,6.093,0,0,1,2.105,1.892V49.2h1.525Zm-6.182,5.832a4.661,4.661,0,0,0-4.123,2.421,4.883,4.883,0,0,0,.005,4.863,4.748,4.748,0,0,0,1.75,1.807,4.57,4.57,0,0,0,2.356.647,4.827,4.827,0,0,0,2.407-.641,4.484,4.484,0,0,0,1.749-1.735,4.955,4.955,0,0,0,.613-2.465,4.792,4.792,0,0,0-1.375-3.493A4.548,4.548,0,0,0,652.707,55.028Zm9.486-1.184h1.547v5.621a11.991,11.991,0,0,0,.221,2.833,3.158,3.158,0,0,0,1.268,1.749,3.841,3.841,0,0,0,2.23.642,3.76,3.76,0,0,0,2.2-.626A3.2,3.2,0,0,0,670.9,62.42a11.624,11.624,0,0,0,.232-2.955V53.844h1.581v5.909a9.351,9.351,0,0,1-.581,3.751,4.428,4.428,0,0,1-1.746,1.975,5.5,5.5,0,0,1-2.923.714,5.565,5.565,0,0,1-2.933-.714,4.392,4.392,0,0,1-1.757-1.992,9.734,9.734,0,0,1-.58-3.845v-5.8Zm20.475-4.238h1.625V64.312h6.255v1.571h-7.88V49.605Zm22.179,4.238v12.04h-1.525V63.814A6.631,6.631,0,0,1,701.14,65.6a6.091,6.091,0,0,1-7.006-1.256,6.22,6.22,0,0,1-1.808-4.51,6.11,6.11,0,0,1,1.824-4.448,5.943,5.943,0,0,1,4.388-1.848,5.666,5.666,0,0,1,2.679.631,6.1,6.1,0,0,1,2.105,1.892V53.844h1.525Zm-6.182,1.184a4.661,4.661,0,0,0-4.123,2.421,4.89,4.89,0,0,0,0,4.863,4.753,4.753,0,0,0,1.749,1.807,4.571,4.571,0,0,0,2.357.647,4.827,4.827,0,0,0,2.407-.641,4.484,4.484,0,0,0,1.749-1.735,4.965,4.965,0,0,0,.612-2.465,4.791,4.791,0,0,0-1.374-3.493A4.548,4.548,0,0,0,698.665,55.028ZM720,56.344l-1.226.764a5.138,5.138,0,0,0-4.339-2.114,5.016,5.016,0,0,0-3.648,1.415,4.621,4.621,0,0,0-1.452,3.438A4.888,4.888,0,0,0,710,62.323a4.679,4.679,0,0,0,1.832,1.8,5.536,5.536,0,0,0,6.938-1.472L720,63.46a5.8,5.8,0,0,1-2.315,2.016,7.386,7.386,0,0,1-3.311.717,6.532,6.532,0,0,1-4.729-1.815,5.909,5.909,0,0,1-1.878-4.415,6.3,6.3,0,0,1,.879-3.248,6.193,6.193,0,0,1,2.413-2.34,7.048,7.048,0,0,1,3.438-.841,7.336,7.336,0,0,1,2.3.365,6.418,6.418,0,0,1,1.884.952A5.179,5.179,0,0,1,720,56.344Z"/>
    <path id="USAT_Network" data-name="USAT Network" class="cls-5" d="M7.052,127.315h5.171c3.636,0,6.068,2.153,6.068,5.473s-2.483,5.467-6.068,5.467H9.585v6.839H7.052V127.315Zm4.915,8.842c2.433,0,3.737-1.343,3.737-3.369,0-2-1.3-3.37-3.737-3.37H9.585v6.739h2.382Zm13.557-8.842h2.253l7.373,17.779H32.433l-1.84-4.658H22.631l-1.843,4.658H18.125S24.625,129.5,25.523,127.315Zm4.223,11.018-1.715-4.38c-0.255-.66-1.358-3.4-1.383-3.624H26.6c-0.025.227-1.1,2.886-1.383,3.624l-1.739,4.38h6.27Zm7.976-11.018h5.2c3.353,0,5.965,1.726,5.965,5.267,0,2.765-1.843,4.585-4.556,5.018l5.5,7.494H46.86l-5.2-7.244H40.256v7.244H37.722V127.315Zm4.916,8.487c2.354,0,3.686-1.244,3.686-3.192s-1.332-3.192-3.686-3.192H40.256V135.8h2.382Zm13.273-6.334h-5.12v-2.153H63.564v2.153h-5.12v15.626H55.911V129.468Zm14.225,6.739a9.448,9.448,0,1,1,9.446,9.242A9.066,9.066,0,0,1,70.135,136.207Zm16.281,0a6.85,6.85,0,1,0-6.86,6.988A6.657,6.657,0,0,0,86.416,136.207Zm6.259-8.892h9.063v2.153H95.209v5.723h6.323v2.154H95.209v7.749H92.675V127.315Zm20.523,2.153h-5.12v-2.153h12.774v2.153h-5.12v15.626H113.2V129.468Zm10.313-2.153h2.534v7.293h9.421v-7.293H138v17.779h-2.536v-8.332h-9.421v8.332h-2.534V127.315Zm19.16,0h9.78v2.131H145.2v5.162h7.04v2.132H145.2v6.227h7.4v2.127h-9.932V127.315Zm18.427,11.65v-11.65h2.559v10.89c0,3.092,1.333,4.99,4.326,4.99,3.021,0,4.354-1.9,4.354-4.99v-10.89H174.9v11.65c0,3.9-2.533,6.484-6.913,6.484C163.581,145.449,161.1,142.868,161.1,138.965Zm16.443,2.915,1.718-1.444a5.206,5.206,0,0,0,4.505,2.809c1.97,0,3.507-1.06,3.507-3.014,0-2.1-1.767-2.809-3.969-3.669-2.253-.888-4.532-2-4.532-4.84,0-2.808,2.2-4.757,5.429-4.757a6.041,6.041,0,0,1,5.275,2.681l-1.717,1.443a4.092,4.092,0,0,0-3.558-1.926c-1.742,0-2.892.888-2.892,2.382,0,1.848,1.79,2.458,3.352,3.063,2.534,0.989,5.146,2.182,5.146,5.445,0,3.092-2.3,5.4-5.99,5.4A6.986,6.986,0,0,1,177.541,141.88Zm21.015-14.565h2.252l7.373,17.779h-2.715l-1.841-4.658h-7.962l-1.844,4.658h-2.662S197.658,129.5,198.556,127.315Zm4.222,11.018-1.714-4.38c-0.256-.66-1.359-3.4-1.383-3.624H199.63c-0.025.227-1.1,2.886-1.383,3.624l-1.74,4.38h6.271Zm16.1-8.865h-5.12v-2.153h12.774v2.153h-5.12v15.626h-2.534V129.468Zm8.605,6.739a9.449,9.449,0,1,1,9.447,9.242A9.066,9.066,0,0,1,227.484,136.207Zm16.281,0a6.85,6.85,0,1,0-6.86,6.988A6.657,6.657,0,0,0,243.765,136.207Zm6.259-8.892h5.095c5.734,0,9.522,3.241,9.522,8.892,0,5.622-3.815,8.887-9.522,8.887h-5.095V127.315Zm2.534,15.625h2.356c4.2,0,7.115-2.2,7.115-6.733s-2.918-6.739-7.115-6.739h-2.356V142.94Zm20.317-15.625h2.253l7.373,17.779h-2.715l-1.841-4.658h-7.962l-1.843,4.658h-2.663S271.978,129.5,272.875,127.315Zm4.223,11.018-1.714-4.38c-0.256-.66-1.358-3.4-1.383-3.624H273.95c-0.025.227-1.1,2.886-1.383,3.624l-1.739,4.38h6.27Zm10.465-.483-6.119-10.535h2.842l3.328,5.928a26.221,26.221,0,0,1,1.279,2.531h0.025a26.717,26.717,0,0,1,1.282-2.531l3.353-5.928h2.763L290.2,137.85v7.244h-2.637V137.85Zm16.2-10.535h1.945L315.9,138.838c0.307,0.333,1.639,1.976,1.768,2.231l0.05-.027c-0.05-.25-0.05-2.3-0.05-2.759V127.315h2.458v17.779h-1.973L307.96,133.57c-0.306-.327-1.639-1.975-1.765-2.225l-0.025.022c0.025,0.255.05,2.309,0.05,2.764v10.963h-2.458V127.315Zm21.028,0h9.778v2.131h-7.244v5.162h7.042v2.132h-7.042v6.227h7.4v2.127H324.79V127.315Zm17.706,2.153h-5.12v-2.153H350.15v2.153h-5.12v15.626H342.5V129.468Zm9.766-2.153h2.688l3.687,10.563c0.129,0.405,1,3.036,1.024,3.441h0.053a35.478,35.478,0,0,1,1.075-3.441l3.841-10.563h2.022l3.839,10.563c0.154,0.405,1.049,3.036,1.077,3.441h0.051c0.05-.405.919-3.036,1.049-3.441l3.661-10.563h2.584l-6.324,17.779h-1.944L366.5,134a29.421,29.421,0,0,1-.872-2.886h-0.051A29.571,29.571,0,0,1,364.68,134l-4.121,11.091h-1.947Zm27.784,8.892a9.449,9.449,0,1,1,9.447,9.242A9.067,9.067,0,0,1,380.046,136.207Zm16.281,0a6.85,6.85,0,1,0-6.86,6.988A6.656,6.656,0,0,0,396.327,136.207Zm6.259-8.892h5.2c3.356,0,5.965,1.726,5.965,5.267,0,2.765-1.843,4.585-4.556,5.018l5.505,7.494h-2.971l-5.2-7.244H405.12v7.244h-2.534V127.315ZM407.5,135.8c2.354,0,3.686-1.244,3.686-3.192s-1.332-3.192-3.686-3.192H405.12V135.8H407.5Zm10.064-8.487H420.1v8.259l7.424-8.259H430.6l-7.7,8.487,8.063,9.292h-3.173l-7.682-8.987v8.987h-2.533V127.315Z"/>
  </g>
</svg>
