<svg xmlns="http://www.w3.org/2000/svg" width="349" height="55" viewBox="0 0 349 55">
  <g fill="none" fill-rule="evenodd">
    <path class='no-color-change' fill="#009BFF" d="M54.176,27.824 C54.176,42.737 42.089,54.824 27.176,54.824 C12.263,54.824 0.176,42.737 0.176,27.824 C0.176,12.911 12.263,0.824 27.176,0.824 C42.089,0.824 54.176,12.911 54.176,27.824"/>
    <path fill="#404040" d="M69.537 21.551C70.516 21.551 71.272 21.262 71.805 20.686 72.339 20.109 72.605 19.287 72.605 18.22L72.605 7.44 77.484 7.44 77.484 18.194C77.484 20.554 76.793 22.382 75.412 23.675 74.03 24.97 72.072 25.617 69.537 25.617 67.002 25.617 65.043 24.97 63.662 23.675 62.28 22.382 61.59 20.554 61.59 18.194L61.59 7.44 66.468 7.44 66.468 18.22C66.468 19.287 66.734 20.109 67.268 20.686 67.801 21.262 68.557 21.551 69.537 21.551M87.241 25.617C85.79 25.617 84.399 25.368 83.071 24.869 81.742 24.37 80.588 23.659 79.608 22.732L81.969 19.768C82.669 20.397 83.455 20.891 84.33 21.249 85.204 21.608 86.166 21.787 87.215 21.787 87.914 21.787 88.465 21.665 88.867 21.42 89.269 21.175 89.47 20.808 89.47 20.319 89.47 19.846 89.234 19.466 88.762 19.177 88.29 18.889 87.46 18.587 86.27 18.273L85.169 17.984C83.56 17.564 82.337 16.921 81.497 16.056 80.658 15.191 80.238 14.093 80.238 12.764 80.238 11.628 80.535 10.631 81.13 9.775 81.724 8.918 82.546 8.257 83.595 7.794 84.644 7.331 85.859 7.099 87.241 7.099 88.605 7.099 89.907 7.348 91.149 7.847 92.39 8.345 93.492 9.023 94.454 9.879L92.014 12.948C91.386 12.407 90.646 11.934 89.799 11.532 88.95 11.129 88.106 10.928 87.267 10.928 86.568 10.928 86.03 11.046 85.654 11.283 85.278 11.519 85.091 11.864 85.091 12.319 85.091 12.739 85.287 13.101 85.68 13.407 86.074 13.713 86.752 13.997 87.713 14.259L89.051 14.626C90.974 15.152 92.334 15.869 93.13 16.778 93.925 17.687 94.323 18.745 94.323 19.952 94.323 21.088 94.03 22.08 93.444 22.928 92.858 23.777 92.032 24.436 90.966 24.909 89.899 25.38 88.657 25.617 87.241 25.617M102.479 18.325L106.703 18.325 104.604 12.082 102.479 18.325zM109.063 25.276L107.935 21.945 101.247 21.945 100.119 25.276 95.293 25.276 101.824 7.44 107.489 7.44 114.02 25.276 109.063 25.276 109.063 25.276z"/>
    <polyline fill="#404040" points="125.219 25.276 125.219 11.374 119.921 11.374 119.921 7.44 135.396 7.44 135.396 11.374 130.097 11.374 130.097 25.276 125.219 25.276"/>
    <path fill="#404040" d="M145.598 21.578C146.455 21.578 147.203 21.359 147.841 20.921 148.479 20.485 148.982 19.877 149.349 19.099 149.717 18.321 149.9 17.416 149.9 16.384 149.9 15.353 149.717 14.443 149.349 13.657 148.982 12.87 148.479 12.253 147.841 11.807 147.203 11.362 146.455 11.138 145.598 11.138 144.742 11.138 143.994 11.362 143.356 11.807 142.718 12.253 142.215 12.87 141.847 13.657 141.48 14.443 141.297 15.353 141.297 16.384 141.297 17.416 141.48 18.321 141.847 19.099 142.215 19.877 142.718 20.485 143.356 20.921 143.994 21.359 144.742 21.578 145.598 21.578zM145.598 25.617C143.815 25.617 142.228 25.223 140.838 24.436 139.448 23.65 138.35 22.561 137.547 21.17 136.742 19.781 136.34 18.185 136.34 16.384 136.34 15.02 136.567 13.774 137.021 12.647 137.476 11.519 138.123 10.539 138.963 9.708 139.802 8.878 140.781 8.236 141.9 7.781 143.019 7.327 144.252 7.099 145.598 7.099 146.945 7.099 148.178 7.327 149.297 7.781 150.416 8.236 151.395 8.878 152.234 9.708 153.074 10.539 153.72 11.519 154.176 12.647 154.63 13.774 154.857 15.02 154.857 16.384 154.857 18.185 154.455 19.781 153.65 21.17 152.846 22.561 151.749 23.65 150.359 24.436 148.969 25.223 147.382 25.617 145.598 25.617L145.598 25.617zM162.464 21.42L164.693 21.42C165.969 21.42 166.978 20.956 167.722 20.03 168.466 19.103 168.837 17.879 168.837 16.358 168.837 14.836 168.466 13.613 167.722 12.686 166.978 11.759 165.969 11.295 164.693 11.295L162.464 11.295 162.464 21.42zM157.664 25.276L157.664 7.44 164.693 7.44C166.459 7.44 168.019 7.821 169.375 8.581 170.729 9.341 171.792 10.391 172.561 11.729 173.331 13.066 173.716 14.61 173.716 16.358 173.716 18.107 173.331 19.65 172.561 20.987 171.792 22.325 170.729 23.374 169.375 24.134 168.019 24.895 166.459 25.276 164.693 25.276L157.664 25.276 157.664 25.276zM181.531 18.325L185.754 18.325 183.656 12.082 181.531 18.325zM188.115 25.276L186.987 21.945 180.298 21.945 179.17 25.276 174.344 25.276 180.875 7.44 186.54 7.44 193.072 25.276 188.115 25.276 188.115 25.276z"/>
    <polyline fill="#404040" points="202.514 18.85 202.514 25.276 197.557 25.276 197.557 18.85 191.236 7.44 196.743 7.44 200.048 14.522 203.326 7.44 208.835 7.44 202.514 18.85"/>
    <polyline fill="#404040" points="227.797 25.276 220.795 14.993 220.795 25.276 216.309 25.276 216.309 7.44 220.768 7.44 227.744 17.906 227.744 7.44 232.256 7.44 232.256 25.276 227.797 25.276"/>
    <polyline fill="#404040" points="236.191 25.276 236.191 7.44 248.492 7.44 248.492 11.348 240.965 11.348 240.965 14.365 247.653 14.365 247.653 18.273 240.965 18.273 240.965 21.368 248.912 21.368 248.912 25.276 236.191 25.276"/>
    <polyline fill="#404040" points="255.914 25.276 255.914 11.374 250.616 11.374 250.616 7.44 266.091 7.44 266.091 11.374 260.793 11.374 260.793 25.276 255.914 25.276"/>
    <polyline fill="#404040" points="282.562 25.276 279.677 13.682 276.791 25.276 271.624 25.276 267.192 7.44 271.913 7.44 274.615 19.61 277.605 7.44 281.775 7.44 284.739 19.532 287.519 7.44 292.161 7.44 287.729 25.276 282.562 25.276"/>
    <path fill="#404040" d="M302.548 21.578C303.405 21.578 304.152 21.359 304.79 20.921 305.429 20.485 305.931 19.877 306.298 19.099 306.665 18.321 306.85 17.416 306.85 16.384 306.85 15.353 306.665 14.443 306.298 13.657 305.931 12.87 305.429 12.253 304.79 11.807 304.152 11.362 303.405 11.138 302.548 11.138 301.691 11.138 300.944 11.362 300.305 11.807 299.667 12.253 299.164 12.87 298.797 13.657 298.43 14.443 298.246 15.353 298.246 16.384 298.246 17.416 298.43 18.321 298.797 19.099 299.164 19.877 299.667 20.485 300.305 20.921 300.944 21.359 301.691 21.578 302.548 21.578zM302.548 25.617C300.764 25.617 299.178 25.223 297.787 24.436 296.398 23.65 295.3 22.561 294.495 21.17 293.692 19.781 293.289 18.185 293.289 16.384 293.289 15.02 293.516 13.774 293.971 12.647 294.426 11.519 295.073 10.539 295.912 9.708 296.751 8.878 297.731 8.236 298.85 7.781 299.968 7.327 301.201 7.099 302.548 7.099 303.894 7.099 305.127 7.327 306.246 7.781 307.365 8.236 308.344 8.878 309.184 9.708 310.023 10.539 310.67 11.519 311.124 12.647 311.579 13.774 311.807 15.02 311.807 16.384 311.807 18.185 311.405 19.781 310.6 21.17 309.795 22.561 308.698 23.65 307.309 24.436 305.918 25.223 304.331 25.617 302.548 25.617L302.548 25.617zM319.387 15.65L322.01 15.65C322.761 15.65 323.356 15.453 323.793 15.06 324.23 14.666 324.448 14.128 324.448 13.447 324.448 12.8 324.23 12.28 323.793 11.886 323.356 11.493 322.761 11.295 322.01 11.295L319.387 11.295 319.387 15.65zM319.387 19.348L319.387 25.276 314.665 25.276 314.665 7.44 322.534 7.44C324.632 7.44 326.293 7.978 327.518 9.053 328.741 10.128 329.354 11.593 329.354 13.447 329.354 14.653 329.082 15.694 328.54 16.568 327.998 17.442 327.238 18.124 326.259 18.614L329.905 25.276 324.711 25.276 321.747 19.348 319.387 19.348 319.387 19.348z"/>
    <polyline fill="#404040" points="343.044 25.276 337.379 16.556 337.379 25.276 332.527 25.276 332.527 7.44 337.379 7.44 337.379 15.27 343.254 7.44 348.867 7.44 342.258 15.636 348.737 25.276 343.044 25.276"/>
    <polyline class='no-color-change' fill="#009BFF" points="66.469 48.129 61.59 48.129 61.59 30.293 74.127 30.293 74.127 34.202 66.469 34.202 66.469 37.769 72.816 37.769 72.816 41.677 66.469 41.677 66.469 48.129"/>
    <path class='no-color-change' fill="#009BFF" d="M84.671 44.431C85.528 44.431 86.276 44.212 86.913 43.775 87.552 43.338 88.055 42.731 88.422 41.953 88.789 41.174 88.973 40.27 88.973 39.238 88.973 38.206 88.789 37.296 88.422 36.51 88.055 35.723 87.552 35.107 86.913 34.661 86.276 34.215 85.528 33.992 84.671 33.992 83.815 33.992 83.067 34.215 82.429 34.661 81.79 35.107 81.287 35.723 80.92 36.51 80.553 37.296 80.369 38.206 80.369 39.238 80.369 40.27 80.553 41.174 80.92 41.953 81.287 42.731 81.79 43.338 82.429 43.775 83.067 44.212 83.815 44.431 84.671 44.431zM84.671 48.47C82.888 48.47 81.301 48.077 79.91 47.289 78.521 46.503 77.423 45.414 76.619 44.024 75.815 42.634 75.412 41.038 75.412 39.238 75.412 37.873 75.64 36.627 76.094 35.5 76.549 34.372 77.196 33.393 78.035 32.562 78.874 31.732 79.854 31.089 80.973 30.634 82.092 30.18 83.324 29.953 84.671 29.953 86.018 29.953 87.25 30.18 88.369 30.634 89.489 31.089 90.468 31.732 91.307 32.562 92.147 33.393 92.793 34.372 93.248 35.5 93.702 36.627 93.93 37.873 93.93 39.238 93.93 41.038 93.528 42.634 92.723 44.024 91.919 45.414 90.822 46.503 89.432 47.289 88.041 48.077 86.454 48.47 84.671 48.47L84.671 48.47zM101.563 38.503L104.185 38.503C104.937 38.503 105.532 38.306 105.969 37.913 106.406 37.52 106.624 36.982 106.624 36.3 106.624 35.654 106.406 35.133 105.969 34.74 105.532 34.346 104.937 34.149 104.185 34.149L101.563 34.149 101.563 38.503zM101.563 42.202L101.563 48.129 96.841 48.129 96.841 30.293 104.71 30.293C106.808 30.293 108.469 30.831 109.694 31.907 110.917 32.982 111.53 34.447 111.53 36.3 111.53 37.506 111.258 38.547 110.716 39.421 110.174 40.295 109.413 40.978 108.434 41.467L112.08 48.129 106.887 48.129 103.923 42.202 101.563 42.202 101.563 42.202z"/>
    <polyline class='no-color-change' fill="#009BFF" points="118.375 48.129 118.375 34.228 113.076 34.228 113.076 30.293 128.552 30.293 128.552 34.228 123.253 34.228 123.253 48.129 118.375 48.129"/>
    <polyline class='no-color-change' fill="#009BFF" points="145.6 46.477 141.534 37.061 141.534 48.129 137.416 48.129 137.416 30.293 142.872 30.293 147.54 41.441 152.078 30.293 157.533 30.293 157.533 48.129 153.468 48.129 153.468 36.929 149.351 46.477 145.6 46.477"/>
    <polyline class='no-color-change' fill="#009BFF" points="171.041 41.704 171.041 48.129 166.084 48.129 166.084 41.704 159.763 30.293 165.271 30.293 168.575 37.375 171.854 30.293 177.363 30.293 171.041 41.704"/>
    <polyline class='no-color-change' fill="#009BFF" points="179.592 48.129 179.592 30.293 191.893 30.293 191.893 34.202 184.365 34.202 184.365 37.218 191.054 37.218 191.054 41.126 184.365 41.126 184.365 44.221 192.313 44.221 192.313 48.129 179.592 48.129"/>
    <path class='no-color-change' fill="#009BFF" d="M200.102 38.503L202.725 38.503C203.477 38.503 204.071 38.306 204.508 37.913 204.946 37.52 205.164 36.982 205.164 36.3 205.164 35.654 204.946 35.133 204.508 34.74 204.071 34.346 203.477 34.149 202.725 34.149L200.102 34.149 200.102 38.503zM200.102 42.202L200.102 48.129 195.381 48.129 195.381 30.293 203.249 30.293C205.348 30.293 207.009 30.831 208.233 31.907 209.456 32.982 210.069 34.447 210.069 36.3 210.069 37.506 209.797 38.547 209.256 39.421 208.713 40.295 207.952 40.978 206.974 41.467L210.619 48.129 205.426 48.129 202.462 42.202 200.102 42.202 200.102 42.202zM219.537 48.47C218.086 48.47 216.696 48.221 215.367 47.722 214.038 47.224 212.884 46.512 211.905 45.585L214.266 42.621C214.965 43.25 215.751 43.745 216.626 44.103 217.5 44.461 218.462 44.641 219.511 44.641 220.21 44.641 220.761 44.519 221.163 44.274 221.566 44.029 221.767 43.662 221.767 43.172 221.767 42.7 221.532 42.32 221.059 42.031 220.587 41.743 219.756 41.441 218.568 41.126L217.466 40.837C215.857 40.417 214.633 39.775 213.793 38.91 212.954 38.044 212.534 36.947 212.534 35.618 212.534 34.482 212.831 33.485 213.426 32.628 214.021 31.772 214.842 31.111 215.892 30.648 216.941 30.185 218.157 29.953 219.537 29.953 220.902 29.953 222.204 30.201 223.446 30.701 224.687 31.199 225.788 31.876 226.75 32.733L224.311 35.801C223.682 35.26 222.943 34.787 222.095 34.385 221.246 33.983 220.404 33.782 219.564 33.782 218.865 33.782 218.326 33.9 217.95 34.136 217.574 34.372 217.387 34.717 217.387 35.172 217.387 35.592 217.583 35.954 217.977 36.26 218.37 36.567 219.048 36.851 220.01 37.113L221.347 37.48C223.271 38.005 224.63 38.722 225.426 39.631 226.221 40.54 226.619 41.598 226.619 42.805 226.619 43.942 226.326 44.934 225.74 45.782 225.155 46.63 224.328 47.289 223.262 47.762 222.196 48.234 220.954 48.47 219.537 48.47"/>
  </g>
</svg>
