<svg xmlns="http://www.w3.org/2000/svg" width="349" height="55" viewBox="0 0 349 55">
  <g fill="none" fill-rule="evenodd">
    <path class='no-color-change' fill="#009BFF" d="M54.007,27.824 C54.007,42.736 41.919,54.823 27.007,54.823 C12.094,54.823 0.007,42.736 0.007,27.824 C0.007,12.911 12.094,0.823 27.007,0.823 C41.919,0.823 54.007,12.911 54.007,27.824"/>
    <path fill="#404040" d="M69.366 21.551C70.346 21.551 71.101 21.263 71.635 20.685 72.168 20.108 72.435 19.287 72.435 18.22L72.435 7.44 77.313 7.44 77.313 18.193C77.313 20.555 76.623 22.382 75.241 23.676 73.86 24.97 71.901 25.616 69.366 25.616 66.831 25.616 64.872 24.97 63.491 23.676 62.109 22.382 61.419 20.555 61.419 18.193L61.419 7.44 66.298 7.44 66.298 18.22C66.298 19.287 66.564 20.108 67.097 20.685 67.631 21.263 68.387 21.551 69.366 21.551M87.07 25.616C85.619 25.616 84.228 25.367 82.9 24.869 81.571 24.37 80.417 23.658 79.438 22.731L81.799 19.768C82.498 20.396 83.284 20.892 84.159 21.249 85.033 21.607 85.995 21.787 87.044 21.787 87.743 21.787 88.294 21.665 88.696 21.42 89.099 21.175 89.3 20.808 89.3 20.318 89.3 19.846 89.064 19.466 88.592 19.178 88.12 18.889 87.289 18.587 86.1 18.272L84.999 17.983C83.39 17.564 82.166 16.922 81.326 16.056 80.487 15.19 80.067 14.094 80.067 12.765 80.067 11.628 80.364 10.631 80.959 9.774 81.554 8.918 82.376 8.258 83.425 7.794 84.474 7.331 85.689 7.099 87.07 7.099 88.434 7.099 89.737 7.349 90.978 7.847 92.22 8.345 93.321 9.022 94.283 9.879L91.844 12.948C91.215 12.406 90.475 11.934 89.628 11.531 88.779 11.13 87.936 10.929 87.097 10.929 86.397 10.929 85.859 11.047 85.483 11.282 85.107 11.519 84.92 11.864 84.92 12.318 84.92 12.738 85.116 13.102 85.51 13.407 85.903 13.713 86.581 13.997 87.543 14.26L88.88 14.627C90.804 15.151 92.163 15.868 92.959 16.777 93.754 17.686 94.152 18.744 94.152 19.951 94.152 21.088 93.859 22.08 93.273 22.928 92.687 23.776 91.861 24.436 90.795 24.908 89.728 25.38 88.487 25.616 87.07 25.616M102.309 18.325L106.532 18.325 104.434 12.082 102.309 18.325zM108.892 25.275L107.765 21.944 101.077 21.944 99.949 25.275 95.123 25.275 101.654 7.44 107.319 7.44 113.85 25.275 108.892 25.275 108.892 25.275z"/>
    <polyline fill="#404040" points="125.049 25.275 125.049 11.374 119.751 11.374 119.751 7.44 135.225 7.44 135.225 11.374 129.928 11.374 129.928 25.275 125.049 25.275"/>
    <path fill="#404040" d="M145.429 21.577C146.285 21.577 147.032 21.358 147.671 20.922 148.309 20.484 148.811 19.877 149.179 19.099 149.546 18.32 149.73 17.416 149.73 16.384 149.73 15.352 149.546 14.443 149.179 13.656 148.811 12.869 148.309 12.253 147.671 11.807 147.032 11.361 146.285 11.139 145.429 11.139 144.571 11.139 143.824 11.361 143.185 11.807 142.548 12.253 142.045 12.869 141.678 13.656 141.31 14.443 141.127 15.352 141.127 16.384 141.127 17.416 141.31 18.32 141.678 19.099 142.045 19.877 142.548 20.484 143.185 20.922 143.824 21.358 144.571 21.577 145.429 21.577zM145.429 25.616C143.644 25.616 142.058 25.223 140.668 24.436 139.278 23.649 138.181 22.56 137.376 21.171 136.572 19.78 136.17 18.185 136.17 16.384 136.17 15.019 136.396 13.774 136.851 12.646 137.307 11.519 137.953 10.539 138.793 9.709 139.632 8.879 140.611 8.235 141.73 7.781 142.848 7.326 144.082 7.099 145.429 7.099 146.774 7.099 148.008 7.326 149.127 7.781 150.245 8.235 151.224 8.879 152.064 9.709 152.903 10.539 153.551 11.519 154.005 12.646 154.46 13.774 154.687 15.019 154.687 16.384 154.687 18.185 154.285 19.78 153.48 21.171 152.676 22.56 151.579 23.649 150.189 24.436 148.799 25.223 147.212 25.616 145.429 25.616L145.429 25.616zM162.293 21.42L164.522 21.42C165.799 21.42 166.808 20.957 167.552 20.029 168.295 19.103 168.667 17.879 168.667 16.357 168.667 14.836 168.295 13.612 167.552 12.685 166.808 11.759 165.799 11.296 164.522 11.296L162.293 11.296 162.293 21.42zM157.493 25.275L157.493 7.44 164.522 7.44C166.289 7.44 167.849 7.82 169.204 8.581 170.559 9.342 171.622 10.391 172.391 11.728 173.16 13.066 173.545 14.609 173.545 16.357 173.545 18.106 173.16 19.649 172.391 20.987 171.622 22.324 170.559 23.374 169.204 24.135 167.849 24.895 166.289 25.275 164.522 25.275L157.493 25.275 157.493 25.275zM181.361 18.325L185.584 18.325 183.486 12.082 181.361 18.325zM187.944 25.275L186.817 21.944 180.129 21.944 179.001 25.275 174.175 25.275 180.706 7.44 186.371 7.44 192.902 25.275 187.944 25.275 187.944 25.275z"/>
    <polyline fill="#404040" points="202.344 18.85 202.344 25.275 197.386 25.275 197.386 18.85 191.065 7.44 196.573 7.44 199.878 14.521 203.156 7.44 208.664 7.44 202.344 18.85"/>
    <polyline fill="#404040" points="227.627 25.275 220.624 14.994 220.624 25.275 216.139 25.275 216.139 7.44 220.598 7.44 227.574 17.905 227.574 7.44 232.086 7.44 232.086 25.275 227.627 25.275"/>
    <polyline fill="#404040" points="236.02 25.275 236.02 7.44 248.322 7.44 248.322 11.348 240.795 11.348 240.795 14.364 247.482 14.364 247.482 18.272 240.795 18.272 240.795 21.367 248.742 21.367 248.742 25.275 236.02 25.275"/>
    <polyline fill="#404040" points="255.744 25.275 255.744 11.374 250.446 11.374 250.446 7.44 265.921 7.44 265.921 11.374 260.623 11.374 260.623 25.275 255.744 25.275"/>
    <polyline fill="#404040" points="282.391 25.275 279.507 13.683 276.621 25.275 271.454 25.275 267.021 7.44 271.743 7.44 274.444 19.61 277.434 7.44 281.604 7.44 284.568 19.531 287.349 7.44 291.991 7.44 287.558 25.275 282.391 25.275"/>
    <path fill="#404040" d="M302.378 21.577C303.234 21.577 303.981 21.358 304.62 20.922 305.259 20.484 305.761 19.877 306.128 19.099 306.495 18.32 306.68 17.416 306.68 16.384 306.68 15.352 306.495 14.443 306.128 13.656 305.761 12.869 305.259 12.253 304.62 11.807 303.981 11.361 303.234 11.139 302.378 11.139 301.52 11.139 300.773 11.361 300.135 11.807 299.497 12.253 298.994 12.869 298.627 13.656 298.26 14.443 298.076 15.352 298.076 16.384 298.076 17.416 298.26 18.32 298.627 19.099 298.994 19.877 299.497 20.484 300.135 20.922 300.773 21.358 301.52 21.577 302.378 21.577zM302.378 25.616C300.594 25.616 299.008 25.223 297.617 24.436 296.227 23.649 295.13 22.56 294.325 21.171 293.521 19.78 293.119 18.185 293.119 16.384 293.119 15.019 293.346 13.774 293.801 12.646 294.256 11.519 294.902 10.539 295.742 9.709 296.581 8.879 297.56 8.235 298.68 7.781 299.798 7.326 301.031 7.099 302.378 7.099 303.724 7.099 304.957 7.326 306.076 7.781 307.194 8.235 308.174 8.879 309.014 9.709 309.852 10.539 310.5 11.519 310.954 12.646 311.409 13.774 311.637 15.019 311.637 16.384 311.637 18.185 311.234 19.78 310.43 21.171 309.625 22.56 308.528 23.649 307.139 24.436 305.748 25.223 304.161 25.616 302.378 25.616L302.378 25.616zM319.217 15.649L321.84 15.649C322.591 15.649 323.185 15.453 323.623 15.06 324.059 14.666 324.278 14.128 324.278 13.446 324.278 12.8 324.059 12.279 323.623 11.886 323.185 11.492 322.591 11.296 321.84 11.296L319.217 11.296 319.217 15.649zM319.217 19.348L319.217 25.275 314.495 25.275 314.495 7.44 322.364 7.44C324.462 7.44 326.123 7.977 327.348 9.053 328.571 10.128 329.183 11.593 329.183 13.446 329.183 14.652 328.912 15.693 328.37 16.567 327.828 17.442 327.067 18.124 326.089 18.613L329.734 25.275 324.541 25.275 321.577 19.348 319.217 19.348 319.217 19.348z"/>
    <polyline fill="#404040" points="342.874 25.275 337.209 16.556 337.209 25.275 332.356 25.275 332.356 7.44 337.209 7.44 337.209 15.269 343.084 7.44 348.697 7.44 342.088 15.637 348.566 25.275 342.874 25.275"/>
    <polyline class='no-color-change' fill="#009BFF" points="72.907 48.129 65.904 37.848 65.904 48.129 61.419 48.129 61.419 30.294 65.878 30.294 72.854 40.759 72.854 30.294 77.366 30.294 77.366 48.129 72.907 48.129"/>
    <path class='no-color-change' fill="#009BFF" d="M89.536 44.431C90.392 44.431 91.14 44.212 91.778 43.775 92.417 43.338 92.919 42.73 93.286 41.952 93.653 41.174 93.838 40.269 93.838 39.237 93.838 38.206 93.653 37.297 93.286 36.51 92.919 35.723 92.417 35.106 91.778 34.66 91.14 34.215 90.392 33.992 89.536 33.992 88.679 33.992 87.932 34.215 87.293 34.66 86.655 35.106 86.152 35.723 85.785 36.51 85.418 37.297 85.234 38.206 85.234 39.237 85.234 40.269 85.418 41.174 85.785 41.952 86.152 42.73 86.655 43.338 87.293 43.775 87.932 44.212 88.679 44.431 89.536 44.431zM89.536 48.47C87.752 48.47 86.166 48.076 84.775 47.29 83.386 46.503 82.288 45.414 81.483 44.024 80.68 42.634 80.277 41.039 80.277 39.237 80.277 37.873 80.504 36.628 80.959 35.5 81.414 34.372 82.06 33.393 82.9 32.562 83.739 31.732 84.719 31.089 85.838 30.635 86.956 30.18 88.189 29.952 89.536 29.952 90.882 29.952 92.115 30.18 93.234 30.635 94.352 31.089 95.332 31.732 96.172 32.562 97.011 33.393 97.658 34.372 98.112 35.5 98.567 36.628 98.795 37.873 98.795 39.237 98.795 41.039 98.392 42.634 97.588 44.024 96.783 45.414 95.686 46.503 94.297 47.29 92.906 48.076 91.319 48.47 89.536 48.47L89.536 48.47zM106.428 38.503L109.051 38.503C109.802 38.503 110.396 38.307 110.834 37.913 111.27 37.519 111.489 36.981 111.489 36.3 111.489 35.653 111.27 35.133 110.834 34.739 110.396 34.346 109.802 34.149 109.051 34.149L106.428 34.149 106.428 38.503zM106.428 42.201L106.428 48.129 101.706 48.129 101.706 30.294 109.575 30.294C111.673 30.294 113.334 30.831 114.558 31.906 115.782 32.981 116.394 34.446 116.394 36.3 116.394 37.506 116.123 38.547 115.581 39.421 115.039 40.296 114.278 40.977 113.3 41.467L116.945 48.129 111.752 48.129 108.788 42.201 106.428 42.201 106.428 42.201z"/>
    <polyline class='no-color-change' fill="#009BFF" points="123.24 48.129 123.24 34.227 117.942 34.227 117.942 30.294 133.417 30.294 133.417 34.227 128.119 34.227 128.119 48.129 123.24 48.129"/>
    <polyline class='no-color-change' fill="#009BFF" points="135.986 48.129 135.986 30.294 140.865 30.294 140.865 37.165 146.924 37.165 146.924 30.294 151.803 30.294 151.803 48.129 146.924 48.129 146.924 41.152 140.865 41.152 140.865 48.129 135.986 48.129"/>
    <path class='no-color-change' fill="#009BFF" d="M170.188 48.47C168.37 48.47 166.774 48.076 165.402 47.29 164.029 46.503 162.954 45.414 162.176 44.024 161.397 42.634 161.009 41.02 161.009 39.185 161.009 37.349 161.397 35.74 162.176 34.359 162.954 32.977 164.029 31.897 165.402 31.12 166.774 30.342 168.37 29.952 170.188 29.952 171.727 29.952 173.113 30.263 174.346 30.884 175.579 31.505 176.632 32.4 177.507 33.572L173.65 35.853C173.196 35.277 172.684 34.822 172.116 34.49 171.548 34.158 170.888 33.992 170.136 33.992 168.894 33.992 167.89 34.46 167.12 35.394 166.35 36.33 165.966 37.594 165.966 39.185 165.966 40.776 166.35 42.049 167.12 43.001 167.89 43.954 168.894 44.431 170.136 44.431 170.905 44.431 171.588 44.243 172.182 43.867 172.776 43.491 173.274 43.05 173.677 42.542L177.507 44.824C176.649 46.014 175.596 46.918 174.346 47.539 173.096 48.159 171.71 48.47 170.188 48.47M187.972 44.431C188.828 44.431 189.575 44.212 190.214 43.775 190.852 43.338 191.354 42.73 191.722 41.952 192.089 41.174 192.273 40.269 192.273 39.237 192.273 38.206 192.089 37.297 191.722 36.51 191.354 35.723 190.852 35.106 190.214 34.66 189.575 34.215 188.828 33.992 187.972 33.992 187.114 33.992 186.367 34.215 185.728 34.66 185.091 35.106 184.588 35.723 184.221 36.51 183.853 37.297 183.67 38.206 183.67 39.237 183.67 40.269 183.853 41.174 184.221 41.952 184.588 42.73 185.091 43.338 185.728 43.775 186.367 44.212 187.114 44.431 187.972 44.431zM187.972 48.47C186.187 48.47 184.601 48.076 183.211 47.29 181.821 46.503 180.723 45.414 179.919 44.024 179.115 42.634 178.713 41.039 178.713 39.237 178.713 37.873 178.939 36.628 179.394 35.5 179.849 34.372 180.496 33.393 181.336 32.562 182.175 31.732 183.154 31.089 184.273 30.635 185.391 30.18 186.625 29.952 187.972 29.952 189.317 29.952 190.551 30.18 191.67 30.635 192.788 31.089 193.767 31.732 194.607 32.562 195.446 33.393 196.094 34.372 196.548 35.5 197.003 36.628 197.23 37.873 197.23 39.237 197.23 41.039 196.828 42.634 196.023 44.024 195.219 45.414 194.122 46.503 192.732 47.29 191.342 48.076 189.755 48.47 187.972 48.47L187.972 48.47z"/>
    <polyline class='no-color-change' fill="#009BFF" points="205.019 44.194 212.442 44.194 212.442 48.129 200.14 48.129 200.14 30.294 205.019 30.294 205.019 44.194"/>
    <path class='no-color-change' fill="#009BFF" d="M222.724 44.431C223.581 44.431 224.328 44.212 224.967 43.775 225.605 43.338 226.107 42.73 226.474 41.952 226.842 41.174 227.026 40.269 227.026 39.237 227.026 38.206 226.842 37.297 226.474 36.51 226.107 35.723 225.605 35.106 224.967 34.66 224.328 34.215 223.581 33.992 222.724 33.992 221.867 33.992 221.12 34.215 220.481 34.66 219.844 35.106 219.341 35.723 218.973 36.51 218.606 37.297 218.423 38.206 218.423 39.237 218.423 40.269 218.606 41.174 218.973 41.952 219.341 42.73 219.844 43.338 220.481 43.775 221.12 44.212 221.867 44.431 222.724 44.431zM222.724 48.47C220.94 48.47 219.354 48.076 217.964 47.29 216.574 46.503 215.476 45.414 214.672 44.024 213.868 42.634 213.466 41.039 213.466 39.237 213.466 37.873 213.692 36.628 214.147 35.5 214.602 34.372 215.249 33.393 216.089 32.562 216.928 31.732 217.907 31.089 219.026 30.635 220.144 30.18 221.378 29.952 222.724 29.952 224.07 29.952 225.304 30.18 226.423 30.635 227.541 31.089 228.52 31.732 229.36 32.562 230.199 33.393 230.847 34.372 231.301 35.5 231.756 36.628 231.983 37.873 231.983 39.237 231.983 41.039 231.581 42.634 230.776 44.024 229.972 45.414 228.875 46.503 227.485 47.29 226.095 48.076 224.508 48.47 222.724 48.47L222.724 48.47zM239.615 38.503L242.238 38.503C242.989 38.503 243.584 38.307 244.021 37.913 244.458 37.519 244.677 36.981 244.677 36.3 244.677 35.653 244.458 35.133 244.021 34.739 243.584 34.346 242.989 34.149 242.238 34.149L239.615 34.149 239.615 38.503zM239.615 42.201L239.615 48.129 234.893 48.129 234.893 30.294 242.763 30.294C244.86 30.294 246.521 30.831 247.746 31.906 248.97 32.981 249.582 34.446 249.582 36.3 249.582 37.506 249.31 38.547 248.768 39.421 248.226 40.296 247.466 40.977 246.487 41.467L250.133 48.129 244.939 48.129 241.975 42.201 239.615 42.201 239.615 42.201zM258.343 41.179L262.565 41.179 260.468 34.935 258.343 41.179zM264.926 48.129L263.799 44.798 257.11 44.798 255.982 48.129 251.156 48.129 257.687 30.294 263.352 30.294 269.884 48.129 264.926 48.129 264.926 48.129zM277.016 44.273L279.246 44.273C280.522 44.273 281.532 43.81 282.275 42.883 283.018 41.957 283.391 40.732 283.391 39.211 283.391 37.689 283.018 36.466 282.275 35.539 281.532 34.612 280.522 34.149 279.246 34.149L277.016 34.149 277.016 44.273zM272.217 48.129L272.217 30.294 279.246 30.294C281.013 30.294 282.573 30.674 283.928 31.435 285.283 32.195 286.346 33.244 287.115 34.582 287.884 35.92 288.268 37.463 288.268 39.211 288.268 40.96 287.884 42.503 287.115 43.841 286.346 45.178 285.283 46.227 283.928 46.988 282.573 47.749 281.013 48.129 279.246 48.129L272.217 48.129 272.217 48.129zM299.416 44.431C300.272 44.431 301.019 44.212 301.658 43.775 302.297 43.338 302.799 42.73 303.166 41.952 303.533 41.174 303.718 40.269 303.718 39.237 303.718 38.206 303.533 37.297 303.166 36.51 302.799 35.723 302.297 35.106 301.658 34.66 301.019 34.215 300.272 33.992 299.416 33.992 298.558 33.992 297.811 34.215 297.173 34.66 296.535 35.106 296.032 35.723 295.665 36.51 295.298 37.297 295.114 38.206 295.114 39.237 295.114 40.269 295.298 41.174 295.665 41.952 296.032 42.73 296.535 43.338 297.173 43.775 297.811 44.212 298.558 44.431 299.416 44.431zM299.416 48.47C297.632 48.47 296.046 48.076 294.655 47.29 293.266 46.503 292.168 45.414 291.363 44.024 290.559 42.634 290.157 41.039 290.157 39.237 290.157 37.873 290.384 36.628 290.839 35.5 291.294 34.372 291.94 33.393 292.78 32.562 293.619 31.732 294.599 31.089 295.718 30.635 296.836 30.18 298.069 29.952 299.416 29.952 300.762 29.952 301.995 30.18 303.114 30.635 304.232 31.089 305.212 31.732 306.052 32.562 306.891 33.393 307.538 34.372 307.992 35.5 308.447 36.628 308.675 37.873 308.675 39.237 308.675 41.039 308.272 42.634 307.468 44.024 306.663 45.414 305.566 46.503 304.177 47.29 302.786 48.076 301.199 48.47 299.416 48.47L299.416 48.47z"/>
  </g>
</svg>
