<?xml version="1.0" encoding="UTF-8"?>
<svg width="271px" height="43px" viewBox="0 0 271 43" version="1.1" xmlns="http://www.w3.org/2000/svg" xmlns:xlink="http://www.w3.org/1999/xlink">
    <!-- Generator: Sketch 47.1 (45422) - http://www.bohemiancoding.com/sketch -->
    <title>FL_FortMyers_Logo_Prm_FullClr_RGB</title>
    <desc>Created with Sketch.</desc>
    <defs></defs>
    <g id="Page-1" stroke="none" stroke-width="1" fill="none" fill-rule="evenodd">
        <g id="FL_FortMyers_Logo_Prm_FullClr_RGB" transform="translate(0.000000, -69.000000)">
            <path d="M1.249,109.014 L2.38,109.014 C2.751,109.014 3.046,108.924 3.262,108.745 C3.478,108.566 3.586,108.322 3.586,108.012 C3.586,107.702 3.478,107.458 3.262,107.279 C3.046,107.1 2.751,107.01 2.38,107.01 L1.249,107.01 L1.249,109.014 Z M0.41,111.856 L0.41,106.318 L2.38,106.318 C3.013,106.318 3.514,106.47 3.885,106.775 C4.257,107.079 4.443,107.491 4.443,108.012 C4.443,108.528 4.257,108.937 3.885,109.238 C3.514,109.539 3.013,109.69 2.38,109.69 L1.249,109.69 L1.249,111.856 L0.41,111.856 L0.41,111.856 Z" id="Fill-1" fill="#404040"></path>
            <path d="M6.139,109.771 L8.202,109.771 L7.171,107.174 L6.139,109.771 Z M9.025,111.856 L8.476,110.464 L5.865,110.464 L5.316,111.856 L4.467,111.856 L6.73,106.318 L7.636,106.318 L9.889,111.856 L9.025,111.856 L9.025,111.856 Z" id="Fill-2" fill="#404040"></path>
            <path d="M11.67,108.932 L12.825,108.932 C13.185,108.932 13.473,108.846 13.686,108.672 C13.899,108.498 14.007,108.265 14.007,107.971 C14.007,107.679 13.899,107.445 13.686,107.271 C13.473,107.098 13.185,107.01 12.825,107.01 L11.67,107.01 L11.67,108.932 Z M11.67,109.608 L11.67,111.856 L10.829,111.856 L10.829,106.318 L12.825,106.318 C13.452,106.318 13.948,106.466 14.314,106.762 C14.68,107.058 14.863,107.461 14.863,107.971 C14.863,108.357 14.752,108.682 14.53,108.948 C14.309,109.215 14.004,109.402 13.615,109.51 L14.987,111.856 L14.031,111.856 L12.742,109.608 L11.67,109.608 L11.67,109.608 Z" id="Fill-3" fill="#404040"></path>
            <polyline id="Fill-4" fill="#404040" points="17.274 111.856 17.274 107.01 15.37 107.01 15.37 106.318 20.018 106.318 20.018 107.01 18.114 107.01 18.114 111.856 17.274 111.856"></polyline>
            <path d="M25.415,111.229 C25.781,111.229 26.107,111.138 26.393,110.956 C26.677,110.774 26.901,110.523 27.062,110.203 C27.222,109.883 27.303,109.51 27.303,109.087 C27.303,108.663 27.222,108.292 27.062,107.971 C26.901,107.651 26.677,107.4 26.393,107.218 C26.107,107.036 25.781,106.946 25.415,106.946 C25.049,106.946 24.725,107.036 24.442,107.218 C24.159,107.4 23.938,107.651 23.777,107.971 C23.616,108.292 23.535,108.663 23.535,109.087 C23.535,109.51 23.616,109.883 23.777,110.203 C23.938,110.523 24.159,110.774 24.442,110.956 C24.725,111.138 25.049,111.229 25.415,111.229 Z M25.415,111.945 C24.883,111.945 24.412,111.823 24.002,111.578 C23.591,111.334 23.269,110.998 23.033,110.569 C22.797,110.14 22.679,109.646 22.679,109.087 C22.679,108.528 22.797,108.034 23.033,107.605 C23.269,107.176 23.591,106.839 24.002,106.595 C24.412,106.351 24.883,106.229 25.415,106.229 C25.947,106.229 26.42,106.351 26.833,106.595 C27.246,106.839 27.57,107.176 27.806,107.605 C28.042,108.034 28.16,108.528 28.16,109.087 C28.16,109.646 28.042,110.14 27.806,110.569 C27.57,110.998 27.246,111.334 26.833,111.578 C26.42,111.823 25.947,111.945 25.415,111.945 L25.415,111.945 Z" id="Fill-5" fill="#404040"></path>
            <polyline id="Fill-6" fill="#404040" points="30.18 111.856 29.341 111.856 29.341 106.318 32.858 106.318 32.858 107.01 30.18 107.01 30.18 108.884 32.451 108.884 32.451 109.576 30.18 109.576 30.18 111.856"></polyline>
            <polyline id="Fill-7" fill="#404040" points="37.24 111.856 37.24 107.01 35.336 107.01 35.336 106.318 39.984 106.318 39.984 107.01 38.081 107.01 38.081 111.856 37.24 111.856"></polyline>
            <polyline id="Fill-8" fill="#404040" points="40.949 111.856 40.949 106.318 41.79 106.318 41.79 108.688 44.709 108.688 44.709 106.318 45.548 106.318 45.548 111.856 44.709 111.856 44.709 109.396 41.79 109.396 41.79 111.856 40.949 111.856"></polyline>
            <polyline id="Fill-9" fill="#404040" points="47.028 111.856 47.028 106.318 50.654 106.318 50.654 107.01 47.868 107.01 47.868 108.72 50.321 108.72 50.321 109.413 47.868 109.413 47.868 111.164 50.72 111.164 50.72 111.856 47.028 111.856"></polyline>
            <path d="M56.025,111.229 C56.486,111.229 56.848,111.093 57.111,110.822 C57.375,110.55 57.506,110.184 57.506,109.722 L57.506,106.318 L58.346,106.318 L58.346,109.731 C58.346,110.42 58.139,110.961 57.726,111.355 C57.313,111.748 56.746,111.945 56.025,111.945 C55.305,111.945 54.74,111.748 54.329,111.355 C53.919,110.961 53.714,110.42 53.714,109.731 L53.714,106.318 L54.554,106.318 L54.554,109.722 C54.554,110.184 54.685,110.55 54.949,110.822 C55.212,111.093 55.571,111.229 56.025,111.229" id="Fill-10" fill="#404040"></path>
            <path d="M61.481,111.945 C61.054,111.945 60.647,111.872 60.258,111.726 C59.87,111.578 59.557,111.384 59.318,111.139 L59.793,110.594 C60.014,110.794 60.276,110.952 60.578,111.066 C60.88,111.18 61.181,111.237 61.481,111.237 C61.847,111.237 62.142,111.167 62.366,111.03 C62.591,110.891 62.704,110.699 62.704,110.455 C62.704,110.233 62.623,110.045 62.462,109.893 C62.301,109.741 62.027,109.614 61.639,109.51 L60.857,109.307 C60.352,109.176 59.985,108.992 59.755,108.754 C59.525,108.514 59.41,108.202 59.41,107.816 C59.41,107.502 59.496,107.225 59.668,106.986 C59.84,106.747 60.077,106.561 60.379,106.428 C60.681,106.295 61.024,106.229 61.405,106.229 C61.811,106.229 62.191,106.304 62.545,106.453 C62.9,106.602 63.213,106.81 63.485,107.076 L62.978,107.613 C62.74,107.396 62.491,107.229 62.234,107.112 C61.975,106.996 61.703,106.937 61.414,106.937 C61.065,106.937 60.78,107.009 60.558,107.153 C60.336,107.297 60.225,107.496 60.225,107.752 C60.225,107.985 60.304,108.167 60.462,108.297 C60.62,108.428 60.862,108.536 61.19,108.623 L62.063,108.859 C62.568,108.995 62.936,109.185 63.169,109.429 C63.401,109.674 63.518,109.978 63.518,110.341 C63.518,110.661 63.432,110.942 63.26,111.183 C63.088,111.426 62.85,111.613 62.545,111.746 C62.24,111.879 61.885,111.945 61.481,111.945" id="Fill-11" fill="#404040"></path>
            <path d="M65.631,109.771 L67.693,109.771 L66.662,107.174 L65.631,109.771 Z M68.517,111.856 L67.968,110.464 L65.357,110.464 L64.808,111.856 L63.959,111.856 L66.222,106.318 L67.128,106.318 L69.381,111.856 L68.517,111.856 L68.517,111.856 Z" id="Fill-12" fill="#404040"></path>
            <polyline id="Fill-13" fill="#404040" points="73.289 111.856 73.289 107.01 71.385 107.01 71.385 106.318 76.033 106.318 76.033 107.01 74.13 107.01 74.13 111.856 73.289 111.856"></polyline>
            <path d="M79.061,111.229 C79.427,111.229 79.752,111.138 80.038,110.956 C80.324,110.774 80.547,110.523 80.707,110.203 C80.868,109.883 80.948,109.51 80.948,109.087 C80.948,108.663 80.868,108.292 80.707,107.971 C80.547,107.651 80.324,107.4 80.038,107.218 C79.752,107.036 79.427,106.946 79.061,106.946 C78.695,106.946 78.37,107.036 78.088,107.218 C77.805,107.4 77.583,107.651 77.423,107.971 C77.262,108.292 77.181,108.663 77.181,109.087 C77.181,109.51 77.262,109.883 77.423,110.203 C77.583,110.523 77.805,110.774 78.088,110.956 C78.37,111.138 78.695,111.229 79.061,111.229 Z M79.061,111.945 C78.529,111.945 78.057,111.823 77.647,111.578 C77.237,111.334 76.914,110.998 76.678,110.569 C76.443,110.14 76.325,109.646 76.325,109.087 C76.325,108.528 76.443,108.034 76.678,107.605 C76.914,107.176 77.237,106.839 77.647,106.595 C78.057,106.351 78.529,106.229 79.061,106.229 C79.593,106.229 80.065,106.351 80.478,106.595 C80.891,106.839 81.216,107.176 81.452,107.605 C81.687,108.034 81.805,108.528 81.805,109.087 C81.805,109.646 81.687,110.14 81.452,110.569 C81.216,110.998 80.891,111.334 80.478,111.578 C80.065,111.823 79.593,111.945 79.061,111.945 L79.061,111.945 Z" id="Fill-14" fill="#404040"></path>
            <path d="M83.825,111.164 L84.974,111.164 C85.372,111.164 85.715,111.078 86,110.907 C86.286,110.736 86.505,110.496 86.657,110.186 C86.81,109.877 86.886,109.51 86.886,109.087 C86.886,108.663 86.81,108.297 86.657,107.987 C86.505,107.679 86.286,107.439 86,107.267 C85.715,107.096 85.372,107.01 84.974,107.01 L83.825,107.01 L83.825,111.164 Z M82.986,111.856 L82.986,106.318 L84.974,106.318 C85.528,106.318 86.012,106.434 86.428,106.665 C86.844,106.895 87.167,107.218 87.398,107.633 C87.628,108.049 87.742,108.533 87.742,109.087 C87.742,109.64 87.628,110.126 87.398,110.541 C87.167,110.956 86.844,111.279 86.428,111.51 C86.012,111.741 85.528,111.856 84.974,111.856 L82.986,111.856 L82.986,111.856 Z" id="Fill-15" fill="#404040"></path>
            <path d="M89.888,109.771 L91.951,109.771 L90.92,107.174 L89.888,109.771 Z M92.774,111.856 L92.225,110.464 L89.614,110.464 L89.065,111.856 L88.216,111.856 L90.479,106.318 L91.385,106.318 L93.638,111.856 L92.774,111.856 L92.774,111.856 Z" id="Fill-16" fill="#404040"></path>
            <polyline id="Fill-17" fill="#404040" points="96.216 109.657 96.216 111.856 95.377 111.856 95.377 109.657 93.389 106.318 94.379 106.318 95.8 108.875 97.223 106.318 98.196 106.318 96.216 109.657"></polyline>
            <polyline id="Fill-18" fill="#404040" points="104.915 111.856 101.896 107.613 101.896 111.856 101.106 111.856 101.106 106.318 101.888 106.318 104.915 110.561 104.915 106.318 105.697 106.318 105.697 111.856 104.915 111.856"></polyline>
            <polyline id="Fill-19" fill="#404040" points="107.177 111.856 107.177 106.318 110.802 106.318 110.802 107.01 108.016 107.01 108.016 108.72 110.47 108.72 110.47 109.413 108.016 109.413 108.016 111.164 110.869 111.164 110.869 111.856 107.177 111.856"></polyline>
            <polyline id="Fill-20" fill="#404040" points="113.363 111.856 113.363 107.01 111.459 107.01 111.459 106.318 116.108 106.318 116.108 107.01 114.204 107.01 114.204 111.856 113.363 111.856"></polyline>
            <polyline id="Fill-21" fill="#404040" points="121.596 111.856 120.274 107.442 118.951 111.856 118.079 111.856 116.574 106.318 117.405 106.318 118.553 110.699 119.875 106.318 120.673 106.318 122.004 110.715 123.16 106.318 123.975 106.318 122.47 111.856 121.596 111.856"></polyline>
            <path d="M127.309,111.229 C127.676,111.229 128.001,111.138 128.287,110.956 C128.572,110.774 128.795,110.523 128.956,110.203 C129.116,109.883 129.197,109.51 129.197,109.087 C129.197,108.663 129.116,108.292 128.956,107.971 C128.795,107.651 128.572,107.4 128.287,107.218 C128.001,107.036 127.676,106.946 127.309,106.946 C126.944,106.946 126.619,107.036 126.337,107.218 C126.054,107.4 125.832,107.651 125.671,107.971 C125.511,108.292 125.43,108.663 125.43,109.087 C125.43,109.51 125.511,109.883 125.671,110.203 C125.832,110.523 126.054,110.774 126.337,110.956 C126.619,111.138 126.944,111.229 127.309,111.229 Z M127.309,111.945 C126.778,111.945 126.306,111.823 125.896,111.578 C125.485,111.334 125.162,110.998 124.927,110.569 C124.691,110.14 124.574,109.646 124.574,109.087 C124.574,108.528 124.691,108.034 124.927,107.605 C125.162,107.176 125.485,106.839 125.896,106.595 C126.306,106.351 126.778,106.229 127.309,106.229 C127.842,106.229 128.314,106.351 128.727,106.595 C129.14,106.839 129.465,107.176 129.7,107.605 C129.936,108.034 130.054,108.528 130.054,109.087 C130.054,109.646 129.936,110.14 129.7,110.569 C129.465,110.998 129.14,111.334 128.727,111.578 C128.314,111.823 127.842,111.945 127.309,111.945 L127.309,111.945 Z" id="Fill-22" fill="#404040"></path>
            <path d="M132.074,108.932 L133.231,108.932 C133.591,108.932 133.877,108.846 134.091,108.672 C134.305,108.498 134.411,108.265 134.411,107.971 C134.411,107.679 134.305,107.445 134.091,107.271 C133.877,107.098 133.591,107.01 133.231,107.01 L132.074,107.01 L132.074,108.932 Z M132.074,109.608 L132.074,111.856 L131.235,111.856 L131.235,106.318 L133.231,106.318 C133.857,106.318 134.353,106.466 134.719,106.762 C135.085,107.058 135.268,107.461 135.268,107.971 C135.268,108.357 135.157,108.682 134.935,108.948 C134.713,109.215 134.408,109.402 134.021,109.51 L135.393,111.856 L134.436,111.856 L133.147,109.608 L132.074,109.608 L132.074,109.608 Z" id="Fill-23" fill="#404040"></path>
            <polyline id="Fill-24" fill="#404040" points="139.833 111.856 137.297 109.062 137.297 111.856 136.456 111.856 136.456 106.318 137.297 106.318 137.297 108.745 139.667 106.318 140.706 106.318 138.187 108.859 140.889 111.856 139.833 111.856"></polyline>
            <polyline id="Fill-25" fill="#404040" points="20.066 100.102 8.051 82.462 8.051 100.102 0.357 100.102 0.357 69.502 8.007 69.502 19.976 87.457 19.976 69.502 27.717 69.502 27.717 100.102 20.066 100.102"></polyline>
            <path d="M44.681,82.282 C42.131,82.282 40.601,83.632 40.092,86.332 L48.822,86.332 C48.611,84.862 48.109,83.82 47.314,83.204 C46.519,82.59 45.641,82.282 44.681,82.282 Z M55.391,97.762 C54.252,98.571 52.804,99.262 51.049,99.832 C49.295,100.402 47.426,100.687 45.447,100.687 C42.717,100.687 40.384,100.184 38.449,99.179 C36.513,98.174 35.029,96.772 33.994,94.972 C32.959,93.172 32.441,91.102 32.441,88.762 C32.441,86.392 32.951,84.292 33.971,82.462 C34.991,80.632 36.402,79.199 38.201,78.164 C40.002,77.129 42.101,76.612 44.502,76.612 C46.842,76.612 48.904,77.114 50.689,78.119 C52.473,79.125 53.869,80.52 54.875,82.304 C55.879,84.089 56.382,86.182 56.382,88.582 C56.382,88.912 56.359,89.257 56.314,89.616 C56.269,89.977 56.217,90.352 56.156,90.741 L40.181,90.741 C40.902,93.382 42.866,94.701 46.076,94.701 C47.516,94.701 48.791,94.477 49.902,94.027 C51.011,93.576 51.941,93.127 52.691,92.677 L55.391,97.762 L55.391,97.762 Z" id="Fill-26" fill="#404040"></path>
            <polyline id="Fill-27" fill="#404040" points="79.691 100.102 76.002 86.196 72.356 100.102 64.257 100.102 58.316 77.196 66.326 77.196 68.711 91.957 72.582 77.196 79.467 77.196 83.471 92.002 85.901 77.196 93.731 77.196 87.791 100.102 79.691 100.102"></polyline>
            <path d="M105.656,100.687 C103.676,100.687 101.823,100.371 100.097,99.741 C98.373,99.112 96.82,98.212 95.441,97.042 L98.771,92.632 C99.82,93.472 100.953,94.154 102.168,94.679 C103.383,95.204 104.576,95.467 105.746,95.467 C106.525,95.467 107.148,95.332 107.613,95.062 C108.078,94.792 108.31,94.387 108.31,93.847 C108.31,93.278 108.048,92.82 107.523,92.474 C106.998,92.13 106.06,91.792 104.711,91.462 L102.551,90.922 C98.26,89.782 96.115,87.487 96.115,84.036 C96.115,82.507 96.535,81.187 97.376,80.076 C98.215,78.967 99.371,78.112 100.841,77.512 C102.31,76.912 104.02,76.612 105.97,76.612 C107.89,76.612 109.698,76.912 111.392,77.512 C113.088,78.112 114.64,78.982 116.051,80.121 L112.631,84.621 C111.58,83.782 110.47,83.108 109.301,82.597 C108.131,82.087 107.035,81.832 106.015,81.832 C104.365,81.832 103.541,82.371 103.541,83.451 C103.541,83.932 103.788,84.322 104.283,84.621 C104.778,84.922 105.475,85.192 106.376,85.432 L109.301,86.241 C111.49,86.842 113.11,87.742 114.16,88.942 C115.211,90.142 115.736,91.568 115.736,93.217 C115.736,94.717 115.315,96.029 114.475,97.154 C113.635,98.279 112.458,99.15 110.943,99.764 C109.427,100.379 107.666,100.687 105.656,100.687" id="Fill-28" fill="#404040"></path>
            <polygon id="Fill-29" fill="#404040" points="120.236 89.752 134.545 89.752 134.545 82.821 120.236 82.821"></polygon>
            <path d="M148.99,83.496 L153.041,83.496 C154.33,83.496 155.35,83.159 156.1,82.485 C156.849,81.809 157.225,80.917 157.225,79.807 C157.225,78.697 156.849,77.804 156.1,77.129 C155.35,76.454 154.33,76.116 153.041,76.116 L148.99,76.116 L148.99,83.496 Z M140.89,100.102 L140.89,69.502 L153.85,69.502 C157.451,69.502 160.301,70.424 162.4,72.27 C164.5,74.114 165.551,76.627 165.551,79.807 C165.551,81.877 165.078,83.67 164.133,85.184 C163.187,86.699 161.861,87.869 160.15,88.695 C158.44,89.52 156.4,89.932 154.031,89.932 L148.99,89.932 L148.99,100.102 L140.89,100.102 L140.89,100.102 Z" id="Fill-30" fill="#404040"></path>
            <path d="M177.385,91.237 L177.385,100.102 L169.554,100.102 L169.554,77.196 L176.71,77.196 L177.205,81.022 C177.684,79.792 178.472,78.794 179.567,78.029 C180.662,77.264 181.929,76.882 183.37,76.882 C184.179,76.882 184.795,76.987 185.215,77.196 L185.215,84.352 C184.885,84.233 184.517,84.142 184.113,84.082 C183.707,84.022 183.25,83.991 182.74,83.991 C181.179,83.991 179.897,84.57 178.892,85.724 C177.886,86.879 177.385,88.717 177.385,91.237" id="Fill-31" fill="#404040"></path>
            <path d="M199.84,82.282 C197.289,82.282 195.76,83.632 195.25,86.332 L203.979,86.332 C203.769,84.862 203.266,83.82 202.472,83.204 C201.677,82.59 200.799,82.282 199.84,82.282 Z M210.549,97.762 C209.409,98.571 207.962,99.262 206.207,99.832 C204.452,100.402 202.584,100.687 200.604,100.687 C197.875,100.687 195.542,100.184 193.607,99.179 C191.672,98.174 190.187,96.772 189.152,94.972 C188.117,93.172 187.599,91.102 187.599,88.762 C187.599,86.392 188.109,84.292 189.129,82.462 C190.148,80.632 191.559,79.199 193.359,78.164 C195.16,77.129 197.26,76.612 199.66,76.612 C202,76.612 204.062,77.114 205.847,78.119 C207.631,79.125 209.026,80.52 210.032,82.304 C211.037,84.089 211.539,86.182 211.539,88.582 C211.539,88.912 211.517,89.257 211.472,89.616 C211.427,89.977 211.375,90.352 211.314,90.741 L195.34,90.741 C196.059,93.382 198.023,94.701 201.234,94.701 C202.674,94.701 203.949,94.477 205.059,94.027 C206.169,93.576 207.099,93.127 207.849,92.677 L210.549,97.762 L210.549,97.762 Z" id="Fill-32" fill="#404040"></path>
            <path d="M224.049,100.687 C222.069,100.687 220.217,100.371 218.492,99.741 C216.765,99.112 215.214,98.212 213.834,97.042 L217.164,92.632 C218.214,93.472 219.346,94.154 220.562,94.679 C221.777,95.204 222.969,95.467 224.138,95.467 C224.919,95.467 225.541,95.332 226.007,95.062 C226.471,94.792 226.704,94.387 226.704,93.847 C226.704,93.278 226.441,92.82 225.917,92.474 C225.391,92.13 224.454,91.792 223.104,91.462 L220.944,90.922 C216.654,89.782 214.51,87.487 214.51,84.036 C214.51,82.507 214.929,81.187 215.769,80.076 C216.609,78.967 217.763,78.112 219.234,77.512 C220.703,76.912 222.414,76.612 224.364,76.612 C226.283,76.612 228.092,76.912 229.787,77.512 C231.481,78.112 233.033,78.982 234.444,80.121 L231.024,84.621 C229.973,83.782 228.864,83.108 227.694,82.597 C226.524,82.087 225.428,81.832 224.409,81.832 C222.76,81.832 221.933,82.371 221.933,83.451 C221.933,83.932 222.181,84.322 222.677,84.621 C223.172,84.922 223.869,85.192 224.769,85.432 L227.694,86.241 C229.884,86.842 231.504,87.742 232.554,88.942 C233.603,90.142 234.129,91.568 234.129,93.217 C234.129,94.717 233.709,96.029 232.869,97.154 C232.029,98.279 230.851,99.15 229.337,99.764 C227.822,100.379 226.058,100.687 224.049,100.687" id="Fill-33" fill="#404040"></path>
            <path d="M246.909,100.687 C244.929,100.687 243.076,100.371 241.351,99.741 C239.626,99.112 238.074,98.212 236.694,97.042 L240.024,92.632 C241.074,93.472 242.207,94.154 243.422,94.679 C244.636,95.204 245.829,95.467 246.999,95.467 C247.779,95.467 248.401,95.332 248.867,95.062 C249.332,94.792 249.564,94.387 249.564,93.847 C249.564,93.278 249.301,92.82 248.777,92.474 C248.252,92.13 247.314,91.792 245.965,91.462 L243.804,90.922 C239.513,89.782 237.369,87.487 237.369,84.036 C237.369,82.507 237.789,81.187 238.629,80.076 C239.469,78.967 240.624,78.112 242.094,77.512 C243.563,76.912 245.273,76.612 247.224,76.612 C249.143,76.612 250.951,76.912 252.646,77.512 C254.342,78.112 255.893,78.982 257.304,80.121 L253.885,84.621 C252.834,83.782 251.724,83.108 250.554,82.597 C249.385,82.087 248.289,81.832 247.269,81.832 C245.619,81.832 244.794,82.371 244.794,83.451 C244.794,83.932 245.041,84.322 245.537,84.621 C246.031,84.922 246.728,85.192 247.629,85.432 L250.554,86.241 C252.744,86.842 254.363,87.742 255.414,88.942 C256.464,90.142 256.989,91.568 256.989,93.217 C256.989,94.717 256.568,96.029 255.728,97.154 C254.888,98.279 253.711,99.15 252.197,99.764 C250.681,100.379 248.919,100.687 246.909,100.687" id="Fill-34" fill="#404040"></path>
            <path d="M265.269,100.597 C264.309,100.597 263.431,100.364 262.636,99.9 C261.842,99.435 261.212,98.805 260.747,98.009 C260.281,97.215 260.049,96.337 260.049,95.377 C260.049,94.417 260.281,93.54 260.747,92.744 C261.212,91.95 261.842,91.32 262.636,90.855 C263.431,90.39 264.309,90.157 265.269,90.157 C266.229,90.157 267.106,90.39 267.902,90.855 C268.696,91.32 269.326,91.95 269.792,92.744 C270.257,93.54 270.489,94.417 270.489,95.377 C270.489,96.337 270.257,97.215 269.792,98.009 C269.326,98.805 268.696,99.435 267.902,99.9 C267.106,100.364 266.229,100.597 265.269,100.597" id="Fill-35" fill="#009BFF" class='no-color-change'></path>
        </g>
    </g>
</svg>
