<svg xmlns="http://www.w3.org/2000/svg" width="265" height="46" viewBox="0 0 265 46">
  <g fill="none" fill-rule="evenodd">
    <path fill="#404040" d="M2.986 42.693L4.101 42.693C4.468 42.693 4.757 42.603 4.971 42.422 5.184 42.242 5.291 41.996 5.291 41.684 5.291 41.373 5.184 41.127 4.971 40.946 4.757 40.766 4.468 40.676 4.101 40.676L2.986 40.676 2.986 42.693zM2.158 45.555L2.158 39.979 4.101 39.979C4.725 39.979 5.219 40.132 5.586 40.438 5.952 40.744 6.135 41.16 6.135 41.684 6.135 42.204 5.952 42.615 5.586 42.919 5.219 43.222 4.725 43.374 4.101 43.374L2.986 43.374 2.986 45.555 2.158 45.555 2.158 45.555zM7.808 43.456L9.842 43.456 8.825 40.84 7.808 43.456zM10.653 45.555L10.112 44.153 7.537 44.153 6.996 45.555 6.16 45.555 8.39 39.979 9.284 39.979 11.506 45.555 10.653 45.555 10.653 45.555zM13.261 42.611L14.401 42.611C14.756 42.611 15.039 42.524 15.249 42.349 15.46 42.174 15.565 41.939 15.565 41.643 15.565 41.348 15.46 41.113 15.249 40.938 15.039 40.763 14.756 40.676 14.401 40.676L13.261 40.676 13.261 42.611zM13.261 43.291L13.261 45.555 12.433 45.555 12.433 39.979 14.401 39.979C15.019 39.979 15.508 40.128 15.869 40.425 16.23 40.724 16.41 41.13 16.41 41.643 16.41 42.032 16.301 42.36 16.082 42.627 15.863 42.895 15.562 43.084 15.18 43.193L16.533 45.555 15.59 45.555 14.319 43.291 13.261 43.291 13.261 43.291z"/>
    <polyline fill="#404040" points="18.788 45.555 18.788 40.676 16.91 40.676 16.91 39.979 21.494 39.979 21.494 40.676 19.616 40.676 19.616 45.555 18.788 45.555"/>
    <path fill="#404040" d="M26.816,44.923 C27.177,44.923 27.498,44.832 27.779,44.649 C28.061,44.466 28.281,44.213 28.439,43.89 C28.598,43.568 28.677,43.193 28.677,42.767 C28.677,42.34 28.598,41.966 28.439,41.643 C28.281,41.321 28.061,41.068 27.779,40.885 C27.498,40.702 27.177,40.61 26.816,40.61 C26.455,40.61 26.135,40.702 25.856,40.885 C25.577,41.068 25.359,41.321 25.2,41.643 C25.042,41.966 24.962,42.34 24.962,42.767 C24.962,43.193 25.042,43.568 25.2,43.89 C25.359,44.213 25.577,44.466 25.856,44.649 C26.135,44.832 26.455,44.923 26.816,44.923 Z M26.816,45.645 C26.291,45.645 25.826,45.522 25.422,45.276 C25.017,45.03 24.699,44.691 24.466,44.259 C24.234,43.828 24.118,43.33 24.118,42.767 C24.118,42.204 24.234,41.706 24.466,41.275 C24.699,40.842 25.017,40.503 25.422,40.258 C25.826,40.011 26.291,39.888 26.816,39.888 C27.341,39.888 27.806,40.011 28.214,40.258 C28.621,40.503 28.941,40.842 29.173,41.275 C29.405,41.706 29.522,42.204 29.522,42.767 C29.522,43.33 29.405,43.828 29.173,44.259 C28.941,44.691 28.621,45.03 28.214,45.276 C27.806,45.522 27.341,45.645 26.816,45.645 L26.816,45.645 Z"/>
    <polyline fill="#404040" points="31.514 45.555 30.686 45.555 30.686 39.979 34.155 39.979 34.155 40.676 31.514 40.676 31.514 42.562 33.753 42.562 33.753 43.259 31.514 43.259 31.514 45.555"/>
    <polyline fill="#404040" points="38.476 45.555 38.476 40.676 36.598 40.676 36.598 39.979 41.182 39.979 41.182 40.676 39.304 40.676 39.304 45.555 38.476 45.555"/>
    <polyline fill="#404040" points="42.133 45.555 42.133 39.979 42.962 39.979 42.962 42.365 45.84 42.365 45.84 39.979 46.668 39.979 46.668 45.555 45.84 45.555 45.84 43.078 42.962 43.078 42.962 45.555 42.133 45.555"/>
    <polyline fill="#404040" points="48.128 45.555 48.128 39.979 51.703 39.979 51.703 40.676 48.956 40.676 48.956 42.398 51.375 42.398 51.375 43.095 48.956 43.095 48.956 44.858 51.768 44.858 51.768 45.555 48.128 45.555"/>
    <path fill="#404040" d="M57 44.923C57.454 44.923 57.81 44.787 58.07 44.514 58.33 44.24 58.46 43.871 58.46 43.406L58.46 39.979 59.288 39.979 59.288 43.414C59.288 44.109 59.084 44.654 58.677 45.05 58.27 45.447 57.711 45.645 57 45.645 56.289 45.645 55.732 45.447 55.327 45.05 54.923 44.654 54.72 44.109 54.72 43.414L54.72 39.979 55.549 39.979 55.549 43.406C55.549 43.871 55.678 44.24 55.938 44.514 56.198 44.787 56.552 44.923 57 44.923M62.379 45.645C61.958 45.645 61.556 45.571 61.174 45.424 60.791 45.276 60.482 45.079 60.247 44.833L60.715 44.284C60.933 44.486 61.191 44.644 61.49 44.759 61.787 44.874 62.084 44.931 62.379 44.931 62.74 44.931 63.031 44.862 63.253 44.722 63.474 44.583 63.585 44.39 63.585 44.145 63.585 43.92 63.505 43.732 63.347 43.578 63.188 43.425 62.918 43.297 62.535 43.193L61.764 42.988C61.267 42.857 60.904 42.671 60.678 42.431 60.451 42.19 60.337 41.876 60.337 41.488 60.337 41.171 60.422 40.891 60.591 40.651 60.761 40.411 60.995 40.224 61.293 40.089 61.59 39.955 61.928 39.888 62.305 39.888 62.704 39.888 63.079 39.964 63.429 40.114 63.779 40.264 64.087 40.474 64.355 40.741L63.855 41.283C63.62 41.064 63.375 40.896 63.121 40.778 62.867 40.661 62.598 40.602 62.314 40.602 61.969 40.602 61.687 40.675 61.469 40.819 61.25 40.964 61.141 41.165 61.141 41.422 61.141 41.657 61.219 41.84 61.375 41.971 61.53 42.103 61.769 42.212 62.092 42.3L62.953 42.537C63.451 42.674 63.814 42.865 64.044 43.111 64.273 43.357 64.388 43.664 64.388 44.03 64.388 44.352 64.303 44.635 64.134 44.878 63.964 45.122 63.729 45.31 63.429 45.444 63.128 45.578 62.778 45.645 62.379 45.645M66.471 43.456L68.505 43.456 67.488 40.84 66.471 43.456zM69.317 45.555L68.775 44.153 66.2 44.153 65.659 45.555 64.823 45.555 67.053 39.979 67.947 39.979 70.17 45.555 69.317 45.555 69.317 45.555z"/>
    <polyline fill="#404040" points="74.023 45.555 74.023 40.676 72.145 40.676 72.145 39.979 76.729 39.979 76.729 40.676 74.852 40.676 74.852 45.555 74.023 45.555"/>
    <path fill="#404040" d="M79.714 44.923C80.075 44.923 80.396 44.832 80.678 44.649 80.959 44.466 81.179 44.213 81.338 43.89 81.496 43.568 81.576 43.193 81.576 42.767 81.576 42.34 81.496 41.966 81.338 41.643 81.179 41.321 80.959 41.068 80.678 40.885 80.396 40.702 80.075 40.61 79.714 40.61 79.354 40.61 79.034 40.702 78.755 40.885 78.476 41.068 78.257 41.321 78.099 41.643 77.94 41.966 77.861 42.34 77.861 42.767 77.861 43.193 77.94 43.568 78.099 43.89 78.257 44.213 78.476 44.466 78.755 44.649 79.034 44.832 79.354 44.923 79.714 44.923zM79.714 45.645C79.19 45.645 78.725 45.522 78.32 45.276 77.916 45.03 77.597 44.691 77.365 44.259 77.133 43.828 77.016 43.33 77.016 42.767 77.016 42.204 77.133 41.706 77.365 41.275 77.597 40.842 77.916 40.503 78.32 40.258 78.725 40.011 79.19 39.888 79.714 39.888 80.239 39.888 80.705 40.011 81.112 40.258 81.52 40.503 81.839 40.842 82.072 41.275 82.304 41.706 82.42 42.204 82.42 42.767 82.42 43.33 82.304 43.828 82.072 44.259 81.839 44.691 81.52 45.03 81.112 45.276 80.705 45.522 80.239 45.645 79.714 45.645L79.714 45.645zM84.413 44.858L85.545 44.858C85.938 44.858 86.276 44.772 86.557 44.6 86.839 44.427 87.055 44.186 87.205 43.874 87.355 43.562 87.431 43.193 87.431 42.767 87.431 42.34 87.355 41.971 87.205 41.66 87.055 41.348 86.839 41.106 86.557 40.934 86.276 40.762 85.938 40.676 85.545 40.676L84.413 40.676 84.413 44.858zM83.585 45.555L83.585 39.979 85.545 39.979C86.091 39.979 86.57 40.095 86.98 40.327 87.39 40.56 87.708 40.885 87.935 41.303 88.162 41.721 88.275 42.209 88.275 42.767 88.275 43.325 88.162 43.812 87.935 44.231 87.708 44.649 87.39 44.974 86.98 45.206 86.57 45.439 86.091 45.555 85.545 45.555L83.585 45.555 83.585 45.555zM90.391 43.456L92.424 43.456 91.408 40.84 90.391 43.456zM93.236 45.555L92.695 44.153 90.12 44.153 89.579 45.555 88.742 45.555 90.973 39.979 91.867 39.979 94.089 45.555 93.236 45.555 93.236 45.555z"/>
    <polyline fill="#404040" points="96.631 43.341 96.631 45.555 95.803 45.555 95.803 43.341 93.843 39.979 94.819 39.979 96.221 42.553 97.623 39.979 98.583 39.979 96.631 43.341"/>
    <polyline fill="#404040" points="105.208 45.555 102.232 41.283 102.232 45.555 101.453 45.555 101.453 39.979 102.224 39.979 105.208 44.251 105.208 39.979 105.979 39.979 105.979 45.555 105.208 45.555"/>
    <polyline fill="#404040" points="107.439 45.555 107.439 39.979 111.014 39.979 111.014 40.676 108.267 40.676 108.267 42.398 110.686 42.398 110.686 43.095 108.267 43.095 108.267 44.858 111.08 44.858 111.08 45.555 107.439 45.555"/>
    <polyline fill="#404040" points="113.54 45.555 113.54 40.676 111.662 40.676 111.662 39.979 116.246 39.979 116.246 40.676 114.368 40.676 114.368 45.555 113.54 45.555"/>
    <polyline fill="#404040" points="121.658 45.555 120.354 41.111 119.05 45.555 118.189 45.555 116.705 39.979 117.525 39.979 118.656 44.39 119.96 39.979 120.748 39.979 122.059 44.407 123.199 39.979 124.003 39.979 122.519 45.555 121.658 45.555"/>
    <path fill="#404040" d="M127.291 44.923C127.652 44.923 127.973 44.832 128.255 44.649 128.536 44.466 128.757 44.213 128.915 43.89 129.074 43.568 129.153 43.193 129.153 42.767 129.153 42.34 129.074 41.966 128.915 41.643 128.757 41.321 128.536 41.068 128.255 40.885 127.973 40.702 127.652 40.61 127.291 40.61 126.931 40.61 126.611 40.702 126.332 40.885 126.053 41.068 125.834 41.321 125.676 41.643 125.517 41.966 125.438 42.34 125.438 42.767 125.438 43.193 125.517 43.568 125.676 43.89 125.834 44.213 126.053 44.466 126.332 44.649 126.611 44.832 126.931 44.923 127.291 44.923zM127.291 45.645C126.767 45.645 126.302 45.522 125.897 45.276 125.493 45.03 125.174 44.691 124.942 44.259 124.71 43.828 124.594 43.33 124.594 42.767 124.594 42.204 124.71 41.706 124.942 41.275 125.174 40.842 125.493 40.503 125.897 40.258 126.302 40.011 126.767 39.888 127.291 39.888 127.816 39.888 128.282 40.011 128.69 40.258 129.097 40.503 129.416 40.842 129.649 41.275 129.881 41.706 129.997 42.204 129.997 42.767 129.997 43.33 129.881 43.828 129.649 44.259 129.416 44.691 129.097 45.03 128.69 45.276 128.282 45.522 127.816 45.645 127.291 45.645L127.291 45.645zM131.99 42.611L133.13 42.611C133.485 42.611 133.768 42.524 133.978 42.349 134.189 42.174 134.294 41.939 134.294 41.643 134.294 41.348 134.189 41.113 133.978 40.938 133.768 40.763 133.485 40.676 133.13 40.676L131.99 40.676 131.99 42.611zM131.99 43.291L131.99 45.555 131.162 45.555 131.162 39.979 133.13 39.979C133.747 39.979 134.237 40.128 134.597 40.425 134.958 40.724 135.139 41.13 135.139 41.643 135.139 42.032 135.03 42.36 134.811 42.627 134.592 42.895 134.292 43.084 133.909 43.193L135.262 45.555 134.319 45.555 133.048 43.291 131.99 43.291 131.99 43.291z"/>
    <polyline fill="#404040" points="139.641 45.555 137.14 42.742 137.14 45.555 136.311 45.555 136.311 39.979 137.14 39.979 137.14 42.422 139.477 39.979 140.502 39.979 138.017 42.537 140.682 45.555 139.641 45.555"/>
    <path fill="#404040" d="M16.105 34.101C12.984 34.101 10.247 33.427 7.892 32.077 5.537 30.726 3.692 28.859 2.357 26.474 1.022 24.089.355 21.322.355 18.172.355 15.021 1.022 12.262 2.357 9.891 3.692 7.522 5.537 5.67 7.892 4.334 10.247 3 12.984 2.332 16.105 2.332 18.744 2.332 21.122 2.865 23.237 3.93 25.352 4.994 27.159 6.532 28.66 8.542L22.045 12.457C21.264 11.467 20.387 10.687 19.412 10.117 18.437 9.547 17.304 9.262 16.015 9.262 13.884 9.262 12.159 10.064 10.84 11.669 9.519 13.274 8.86 15.442 8.86 18.172 8.86 20.902 9.519 23.084 10.84 24.719 12.159 26.354 13.884 27.172 16.015 27.172 17.334 27.172 18.504 26.849 19.525 26.204 20.544 25.559 21.399 24.802 22.09 23.931L28.66 27.847C27.189 29.887 25.381 31.439 23.237 32.504 21.092 33.569 18.715 34.101 16.105 34.101M43.42 27.891C44.799 27.891 45.902 27.359 46.727 26.294 47.552 25.229 47.965 23.812 47.965 22.042 47.965 20.272 47.552 18.862 46.727 17.811 45.902 16.762 44.799 16.237 43.42 16.237 42.039 16.237 40.937 16.762 40.112 17.811 39.287 18.862 38.874 20.272 38.874 22.042 38.874 23.812 39.287 25.229 40.112 26.294 40.937 27.359 42.039 27.891 43.42 27.891zM43.42 34.101C40.959 34.101 38.791 33.584 36.917 32.549 35.042 31.514 33.571 30.097 32.507 28.297 31.442 26.497 30.91 24.412 30.91 22.042 30.91 19.672 31.442 17.587 32.507 15.787 33.571 13.987 35.042 12.577 36.917 11.557 38.791 10.537 40.959 10.027 43.42 10.027 45.879 10.027 48.047 10.537 49.922 11.557 51.797 12.577 53.267 13.987 54.332 15.787 55.396 17.587 55.93 19.672 55.93 22.042 55.93 24.412 55.396 26.497 54.332 28.297 53.267 30.097 51.797 31.514 49.922 32.549 48.047 33.584 45.879 34.101 43.42 34.101L43.42 34.101z"/>
    <polygon fill="#404040" points="60.024 33.517 67.854 33.517 67.854 .667 60.024 .667"/>
    <path fill="#404040" d="M84.459 27.891C85.838 27.891 86.941 27.359 87.766 26.294 88.591 25.229 89.004 23.812 89.004 22.042 89.004 20.272 88.591 18.862 87.766 17.811 86.941 16.762 85.838 16.237 84.459 16.237 83.079 16.237 81.976 16.762 81.151 17.811 80.326 18.862 79.914 20.272 79.914 22.042 79.914 23.812 80.326 25.229 81.151 26.294 81.976 27.359 83.079 27.891 84.459 27.891zM84.459 34.101C81.998 34.101 79.831 33.584 77.956 32.549 76.081 31.514 74.611 30.097 73.546 28.297 72.481 26.497 71.949 24.412 71.949 22.042 71.949 19.672 72.481 17.587 73.546 15.787 74.611 13.987 76.081 12.577 77.956 11.557 79.831 10.537 81.998 10.027 84.459 10.027 86.918 10.027 89.086 10.537 90.961 11.557 92.836 12.577 94.306 13.987 95.371 15.787 96.436 17.587 96.969 19.672 96.969 22.042 96.969 24.412 96.436 26.497 95.371 28.297 94.306 30.097 92.836 31.514 90.961 32.549 89.086 33.584 86.918 34.101 84.459 34.101L84.459 34.101zM108.894 24.652L108.894 33.516 101.064 33.516 101.064 10.612 108.219 10.612 108.714 14.436C109.193 13.207 109.981 12.209 111.076 11.444 112.171 10.68 113.439 10.297 114.879 10.297 115.689 10.297 116.303 10.402 116.724 10.612L116.724 17.766C116.393 17.647 116.026 17.557 115.621 17.497 115.216 17.437 114.758 17.407 114.249 17.407 112.689 17.407 111.406 17.985 110.401 19.14 109.396 20.295 108.894 22.132 108.894 24.652M126.668 26.092C126.668 26.782 126.923 27.345 127.434 27.779 127.943 28.215 128.603 28.431 129.414 28.431 130.494 28.431 131.401 28.064 132.136 27.329 132.871 26.595 133.238 25.672 133.238 24.561L133.238 23.797C132.428 23.647 131.573 23.572 130.674 23.572 129.533 23.572 128.581 23.767 127.816 24.157 127.051 24.547 126.668 25.192 126.668 26.092zM133.553 33.516L133.148 30.502C131.648 32.902 129.369 34.101 126.309 34.101 124.958 34.101 123.736 33.809 122.641 33.224 121.546 32.639 120.676 31.837 120.031 30.817 119.385 29.797 119.063 28.612 119.063 27.262 119.063 24.712 120.061 22.732 122.056 21.322 124.051 19.912 126.683 19.207 129.954 19.207 130.973 19.207 132.053 19.297 133.194 19.476 133.073 18.337 132.586 17.474 131.731 16.89 130.876 16.305 129.833 16.012 128.603 16.012 127.523 16.012 126.436 16.214 125.341 16.619 124.246 17.024 123.204 17.512 122.214 18.082L119.559 13.042C121.058 12.082 122.678 11.34 124.418 10.814 126.158 10.29 127.898 10.027 129.638 10.027 131.738 10.027 133.628 10.387 135.308 11.107 136.988 11.827 138.308 12.922 139.268 14.391 140.228 15.862 140.708 17.722 140.708 19.972L140.708 33.516 133.553 33.516 133.553 33.516zM156.818 27.891C158.168 27.891 159.255 27.359 160.081 26.294 160.905 25.229 161.318 23.812 161.318 22.042 161.318 20.272 160.905 18.854 160.081 17.789 159.255 16.724 158.168 16.192 156.818 16.192 155.438 16.192 154.335 16.724 153.51 17.789 152.685 18.854 152.273 20.272 152.273 22.042 152.273 23.812 152.685 25.229 153.51 26.294 154.335 27.359 155.438 27.891 156.818 27.891zM161.858 33.516L161.453 30.502C160.733 31.612 159.803 32.489 158.663 33.134 157.523 33.779 156.203 34.101 154.703 34.101 152.633 34.101 150.818 33.591 149.258 32.572 147.698 31.552 146.483 30.135 145.613 28.319 144.742 26.505 144.308 24.412 144.308 22.042 144.308 19.672 144.742 17.587 145.613 15.787 146.483 13.987 147.675 12.577 149.191 11.557 150.705 10.537 152.453 10.027 154.433 10.027 155.813 10.027 157.088 10.319 158.258 10.904 159.428 11.489 160.403 12.277 161.183 13.266L161.183.667 169.013.667 169.013 33.516 161.858 33.516 161.858 33.516zM185.618 27.891C186.998 27.891 188.1 27.359 188.925 26.294 189.75 25.229 190.163 23.812 190.163 22.042 190.163 20.272 189.75 18.862 188.925 17.811 188.1 16.762 186.998 16.237 185.618 16.237 184.238 16.237 183.135 16.762 182.311 17.811 181.485 18.862 181.073 20.272 181.073 22.042 181.073 23.812 181.485 25.229 182.311 26.294 183.135 27.359 184.238 27.891 185.618 27.891zM185.618 34.101C183.158 34.101 180.99 33.584 179.115 32.549 177.24 31.514 175.77 30.097 174.706 28.297 173.64 26.497 173.108 24.412 173.108 22.042 173.108 19.672 173.64 17.587 174.706 15.787 175.77 13.987 177.24 12.577 179.115 11.557 180.99 10.537 183.158 10.027 185.618 10.027 188.078 10.027 190.245 10.537 192.121 11.557 193.995 12.577 195.466 13.987 196.53 15.787 197.595 17.587 198.128 19.672 198.128 22.042 198.128 24.412 197.595 26.497 196.53 28.297 195.466 30.097 193.995 31.514 192.121 32.549 190.245 33.584 188.078 34.101 185.618 34.101L185.618 34.101zM208.388 26.092C208.388 26.782 208.643 27.345 209.153 27.779 209.663 28.215 210.323 28.431 211.133 28.431 212.213 28.431 213.12 28.064 213.856 27.329 214.591 26.595 214.958 25.672 214.958 24.561L214.958 23.797C214.148 23.647 213.293 23.572 212.393 23.572 211.253 23.572 210.3 23.767 209.536 24.157 208.771 24.547 208.388 25.192 208.388 26.092zM215.273 33.516L214.868 30.502C213.368 32.902 211.088 34.101 208.028 34.101 206.678 34.101 205.455 33.809 204.361 33.224 203.265 32.639 202.395 31.837 201.751 30.817 201.105 29.797 200.783 28.612 200.783 27.262 200.783 24.712 201.78 22.732 203.776 21.322 205.77 19.912 208.403 19.207 211.673 19.207 212.693 19.207 213.773 19.297 214.913 19.476 214.793 18.337 214.305 17.474 213.45 16.89 212.595 16.305 211.553 16.012 210.323 16.012 209.243 16.012 208.155 16.214 207.061 16.619 205.965 17.024 204.923 17.512 203.933 18.082L201.278 13.042C202.778 12.082 204.398 11.34 206.138 10.814 207.878 10.29 209.618 10.027 211.358 10.027 213.458 10.027 215.348 10.387 217.028 11.107 218.708 11.827 220.028 12.922 220.988 14.391 221.948 15.862 222.428 17.722 222.428 19.972L222.428 33.516 215.273 33.516 215.273 33.516zM235.253 20.872L235.253 33.516 227.423 33.516 227.423 10.612 234.578 10.612 234.983 13.627C235.732 12.547 236.708 11.677 237.908 11.016 239.107 10.357 240.428 10.027 241.868 10.027 244.358 10.027 246.352 10.837 247.853 12.457 249.353 14.077 250.103 16.402 250.103 19.431L250.103 33.516 242.273 33.516 242.273 20.332C242.273 18.982 241.972 17.985 241.373 17.339 240.772 16.694 239.933 16.372 238.853 16.372 237.773 16.372 236.903 16.717 236.243 17.407 235.583 18.097 235.253 19.252 235.253 20.872"/>
    <path class="no-color-change" fill="#009BFF" d="M259.193,34.012 C258.232,34.012 257.355,33.779 256.56,33.314 C255.765,32.849 255.135,32.22 254.67,31.424 C254.204,30.63 253.972,29.752 253.972,28.792 C253.972,27.832 254.204,26.954 254.67,26.159 C255.135,25.365 255.765,24.735 256.56,24.269 C257.355,23.805 258.232,23.572 259.193,23.572 C260.152,23.572 261.029,23.805 261.825,24.269 C262.619,24.735 263.25,25.365 263.715,26.159 C264.18,26.954 264.412,27.832 264.412,28.792 C264.412,29.752 264.18,30.63 263.715,31.424 C263.25,32.22 262.619,32.849 261.825,33.314 C261.029,33.779 260.152,34.012 259.193,34.012"/>
  </g>
</svg>
