<svg xmlns="http://www.w3.org/2000/svg" width="579" height="44" viewBox="0 0 579 44">
  <g fill="none" fill-rule="evenodd">
    <path fill="#404040" d="M1.239 40.499L2.427 40.499C2.818 40.499 3.127 40.403 3.354 40.211 3.581 40.019 3.695 39.757 3.695 39.425 3.695 39.093 3.581 38.83 3.354 38.638 3.127 38.445 2.818 38.35 2.427 38.35L1.239 38.35 1.239 40.499zM.357 43.549L.357 37.606 2.427 37.606C3.091 37.606 3.619 37.77 4.009 38.097 4.4 38.423 4.595 38.865 4.595 39.425 4.595 39.977 4.4 40.416 4.009 40.739 3.619 41.062 3.091 41.223 2.427 41.223L1.239 41.223 1.239 43.549.357 43.549zM6.377 41.311L8.544 41.311 7.461 38.524 6.377 41.311zM9.409 43.549L8.832 42.055 6.089 42.055 5.512 43.549 4.621 43.549 6.997 37.606 7.95 37.606 10.318 43.549 9.409 43.549zM12.187 40.412L13.402 40.412C13.781 40.412 14.082 40.318 14.306 40.132 14.531 39.946 14.642 39.695 14.642 39.381 14.642 39.066 14.531 38.816 14.306 38.629 14.082 38.443 13.781 38.35 13.402 38.35L12.187 38.35 12.187 40.412zM12.187 41.137L12.187 43.549 11.305 43.549 11.305 37.606 13.402 37.606C14.06 37.606 14.581 37.765 14.966 38.083 15.35 38.401 15.543 38.833 15.543 39.381 15.543 39.795 15.426 40.144 15.193 40.429 14.96 40.715 14.639 40.916 14.232 41.032L15.673 43.549 14.669 43.549 13.314 41.137 12.187 41.137z"/>
    <polyline fill="#404040" points="18.076 43.549 18.076 38.35 16.075 38.35 16.075 37.606 20.96 37.606 20.96 38.35 18.959 38.35 18.959 43.549 18.076 43.549"/>
    <path fill="#404040" d="M26.63,42.876 C27.014,42.876 27.357,42.778 27.657,42.583 C27.957,42.388 28.191,42.118 28.36,41.774 C28.529,41.431 28.613,41.032 28.613,40.578 C28.613,40.123 28.529,39.725 28.36,39.381 C28.191,39.037 27.957,38.768 27.657,38.572 C27.357,38.378 27.014,38.28 26.63,38.28 C26.246,38.28 25.905,38.378 25.608,38.572 C25.311,38.768 25.078,39.037 24.909,39.381 C24.74,39.725 24.656,40.123 24.656,40.578 C24.656,41.032 24.74,41.431 24.909,41.774 C25.078,42.118 25.311,42.388 25.608,42.583 C25.905,42.778 26.246,42.876 26.63,42.876 Z M26.63,43.644 C26.071,43.644 25.576,43.514 25.145,43.252 C24.714,42.989 24.374,42.628 24.127,42.168 C23.879,41.708 23.756,41.178 23.756,40.578 C23.756,39.977 23.879,39.447 24.127,38.987 C24.374,38.527 24.714,38.166 25.145,37.904 C25.576,37.642 26.071,37.511 26.63,37.511 C27.189,37.511 27.686,37.642 28.12,37.904 C28.554,38.166 28.894,38.527 29.142,38.987 C29.39,39.447 29.513,39.977 29.513,40.578 C29.513,41.178 29.39,41.708 29.142,42.168 C28.894,42.628 28.554,42.989 28.12,43.252 C27.686,43.514 27.189,43.644 26.63,43.644 Z"/>
    <polyline fill="#404040" points="31.637 43.549 30.755 43.549 30.755 37.606 34.45 37.606 34.45 38.35 31.637 38.35 31.637 40.359 34.022 40.359 34.022 41.102 31.637 41.102 31.637 43.549"/>
    <polyline fill="#404040" points="39.054 43.549 39.054 38.35 37.053 38.35 37.053 37.606 41.938 37.606 41.938 38.35 39.937 38.35 39.937 43.549 39.054 43.549"/>
    <polyline fill="#404040" points="42.951 43.549 42.951 37.606 43.834 37.606 43.834 40.149 46.901 40.149 46.901 37.606 47.783 37.606 47.783 43.549 46.901 43.549 46.901 40.91 43.834 40.91 43.834 43.549 42.951 43.549"/>
    <polyline fill="#404040" points="49.339 43.549 49.339 37.606 53.148 37.606 53.148 38.35 50.221 38.35 50.221 40.185 52.799 40.185 52.799 40.927 50.221 40.927 50.221 42.806 53.218 42.806 53.218 43.549 49.339 43.549"/>
    <path fill="#404040" d="M58.792 42.876C59.276 42.876 59.656 42.729 59.932 42.438 60.209 42.147 60.347 41.755 60.347 41.26L60.347 37.606 61.23 37.606 61.23 41.268C61.23 42.008 61.012 42.589 60.579 43.012 60.145 43.434 59.549 43.644 58.792 43.644 58.035 43.644 57.441 43.434 57.01 43.012 56.578 42.589 56.363 42.008 56.363 41.268L56.363 37.606 57.245 37.606 57.245 41.26C57.245 41.755 57.384 42.147 57.66 42.438 57.937 42.729 58.314 42.876 58.792 42.876M64.524 43.644C64.075 43.644 63.647 43.566 63.239 43.408 62.832 43.252 62.503 43.041 62.252 42.779L62.75 42.194C62.983 42.409 63.259 42.579 63.576 42.701 63.893 42.823 64.209 42.885 64.524 42.885 64.908 42.885 65.219 42.81 65.454 42.662 65.691 42.513 65.808 42.307 65.808 42.046 65.808 41.807 65.724 41.605 65.555 41.443 65.386 41.279 65.098 41.143 64.69 41.032L63.869 40.813C63.339 40.674 62.953 40.476 62.711 40.22 62.469 39.963 62.348 39.628 62.348 39.215 62.348 38.877 62.439 38.58 62.619 38.323 62.8 38.067 63.049 37.868 63.366 37.725 63.684 37.582 64.044 37.511 64.446 37.511 64.87 37.511 65.27 37.591 65.642 37.751 66.015 37.912 66.344 38.134 66.63 38.42L66.096 38.996C65.846 38.764 65.586 38.584 65.315 38.459 65.044 38.334 64.757 38.27 64.454 38.27 64.087 38.27 63.787 38.348 63.554 38.502 63.321 38.657 63.205 38.871 63.205 39.144 63.205 39.395 63.288 39.59 63.454 39.73 63.62 39.87 63.874 39.986 64.218 40.079L65.135 40.333C65.666 40.478 66.053 40.682 66.298 40.944 66.542 41.207 66.665 41.533 66.665 41.924 66.665 42.268 66.574 42.568 66.394 42.828 66.213 43.087 65.963 43.288 65.642 43.431 65.322 43.573 64.949 43.644 64.524 43.644M68.884 41.311L71.05 41.311 69.967 38.524 68.884 41.311zM71.916 43.549L71.339 42.055 68.595 42.055 68.019 43.549 67.128 43.549 69.504 37.606 70.457 37.606 72.824 43.549 71.916 43.549z"/>
    <polyline fill="#404040" points="76.931 43.549 76.931 38.35 74.93 38.35 74.93 37.606 79.814 37.606 79.814 38.35 77.813 38.35 77.813 43.549 76.931 43.549"/>
    <path fill="#404040" d="M82.994 42.876C83.379 42.876 83.721 42.778 84.021 42.583 84.321 42.388 84.555 42.118 84.725 41.774 84.894 41.431 84.978 41.032 84.978 40.578 84.978 40.123 84.894 39.725 84.725 39.381 84.555 39.037 84.321 38.768 84.021 38.572 83.721 38.378 83.379 38.28 82.994 38.28 82.61 38.28 82.269 38.378 81.972 38.572 81.675 38.768 81.442 39.037 81.273 39.381 81.104 39.725 81.02 40.123 81.02 40.578 81.02 41.032 81.104 41.431 81.273 41.774 81.442 42.118 81.675 42.388 81.972 42.583 82.269 42.778 82.61 42.876 82.994 42.876zM82.994 43.644C82.436 43.644 81.94 43.514 81.509 43.252 81.078 42.989 80.739 42.628 80.491 42.168 80.244 41.708 80.12 41.178 80.12 40.578 80.12 39.977 80.244 39.447 80.491 38.987 80.739 38.527 81.078 38.166 81.509 37.904 81.94 37.642 82.436 37.511 82.994 37.511 83.554 37.511 84.05 37.642 84.484 37.904 84.918 38.166 85.259 38.527 85.507 38.987 85.754 39.447 85.878 39.977 85.878 40.578 85.878 41.178 85.754 41.708 85.507 42.168 85.259 42.628 84.918 42.989 84.484 43.252 84.05 43.514 83.554 43.644 82.994 43.644zM88.001 42.806L89.207 42.806C89.626 42.806 89.986 42.714 90.286 42.53 90.586 42.348 90.816 42.089 90.976 41.757 91.136 41.425 91.216 41.032 91.216 40.578 91.216 40.123 91.136 39.73 90.976 39.398 90.816 39.066 90.586 38.809 90.286 38.625 89.986 38.441 89.626 38.35 89.207 38.35L88.001 38.35 88.001 42.806zM87.119 43.549L87.119 37.606 89.207 37.606C89.789 37.606 90.299 37.73 90.736 37.978 91.173 38.227 91.512 38.572 91.754 39.019 91.995 39.464 92.116 39.983 92.116 40.578 92.116 41.172 91.995 41.691 91.754 42.137 91.512 42.583 91.173 42.93 90.736 43.177 90.299 43.425 89.789 43.549 89.207 43.549L87.119 43.549zM94.37 41.311L96.537 41.311 95.454 38.524 94.37 41.311zM97.403 43.549L96.826 42.055 94.082 42.055 93.506 43.549 92.614 43.549 94.991 37.606 95.943 37.606 98.311 43.549 97.403 43.549z"/>
    <polyline fill="#404040" points="101.02 41.189 101.02 43.549 100.137 43.549 100.137 41.189 98.049 37.606 99.089 37.606 100.583 40.351 102.077 37.606 103.099 37.606 101.02 41.189"/>
    <polyline fill="#404040" points="110.159 43.549 106.987 38.996 106.987 43.549 106.157 43.549 106.157 37.606 106.979 37.606 110.159 42.159 110.159 37.606 110.98 37.606 110.98 43.549 110.159 43.549"/>
    <polyline fill="#404040" points="112.536 43.549 112.536 37.606 116.345 37.606 116.345 38.35 113.418 38.35 113.418 40.185 115.996 40.185 115.996 40.927 113.418 40.927 113.418 42.806 116.415 42.806 116.415 43.549 112.536 43.549"/>
    <polyline fill="#404040" points="119.036 43.549 119.036 38.35 117.035 38.35 117.035 37.606 121.92 37.606 121.92 38.35 119.919 38.35 119.919 43.549 119.036 43.549"/>
    <polyline fill="#404040" points="127.686 43.549 126.297 38.812 124.908 43.549 123.99 43.549 122.409 37.606 123.282 37.606 124.488 42.307 125.878 37.606 126.716 37.606 128.114 42.325 129.329 37.606 130.185 37.606 128.604 43.549 127.686 43.549"/>
    <path fill="#404040" d="M133.689 42.876C134.073 42.876 134.415 42.778 134.716 42.583 135.015 42.388 135.25 42.118 135.419 41.774 135.588 41.431 135.672 41.032 135.672 40.578 135.672 40.123 135.588 39.725 135.419 39.381 135.25 39.037 135.015 38.768 134.716 38.572 134.415 38.378 134.073 38.28 133.689 38.28 133.304 38.28 132.964 38.378 132.666 38.572 132.369 38.768 132.136 39.037 131.967 39.381 131.799 39.725 131.714 40.123 131.714 40.578 131.714 41.032 131.799 41.431 131.967 41.774 132.136 42.118 132.369 42.388 132.666 42.583 132.964 42.778 133.304 42.876 133.689 42.876zM133.689 43.644C133.13 43.644 132.634 43.514 132.203 43.252 131.772 42.989 131.433 42.628 131.185 42.168 130.938 41.708 130.814 41.178 130.814 40.578 130.814 39.977 130.938 39.447 131.185 38.987 131.433 38.527 131.772 38.166 132.203 37.904 132.634 37.642 133.13 37.511 133.689 37.511 134.248 37.511 134.745 37.642 135.178 37.904 135.612 38.166 135.953 38.527 136.201 38.987 136.448 39.447 136.572 39.977 136.572 40.578 136.572 41.178 136.448 41.708 136.201 42.168 135.953 42.628 135.612 42.989 135.178 43.252 134.745 43.514 134.248 43.644 133.689 43.644zM138.695 40.412L139.91 40.412C140.288 40.412 140.59 40.318 140.814 40.132 141.038 39.946 141.151 39.695 141.151 39.381 141.151 39.066 141.038 38.816 140.814 38.629 140.59 38.443 140.288 38.35 139.91 38.35L138.695 38.35 138.695 40.412zM138.695 41.137L138.695 43.549 137.813 43.549 137.813 37.606 139.91 37.606C140.568 37.606 141.09 37.765 141.474 38.083 141.858 38.401 142.05 38.833 142.05 39.381 142.05 39.795 141.934 40.144 141.701 40.429 141.468 40.715 141.148 40.916 140.74 41.032L142.182 43.549 141.177 43.549 139.822 41.137 138.695 41.137z"/>
    <polyline fill="#404040" points="146.847 43.549 144.182 40.552 144.182 43.549 143.3 43.549 143.3 37.606 144.182 37.606 144.182 40.211 146.673 37.606 147.765 37.606 145.117 40.333 147.957 43.549 146.847 43.549"/>
    <polyline fill="#009BFF" class='no-color-change' points="8.727 30.709 .357 30.709 .357 .109 21.867 .109 21.867 6.814 8.727 6.814 8.727 12.935 19.617 12.935 19.617 19.639 8.727 19.639 8.727 30.709"/>
    <path fill="#009BFF" class='no-color-change' d="M33.702 21.844L33.702 30.709 25.872 30.709 25.872 7.804 33.027 7.804 33.522 11.629C34.001 10.399 34.789 9.401 35.885 8.637 36.979 7.872 38.247 7.489 39.687 7.489 40.497 7.489 41.112 7.595 41.532 7.804L41.532 14.959C41.201 14.84 40.834 14.75 40.429 14.689 40.024 14.629 39.567 14.599 39.057 14.599 37.497 14.599 36.214 15.177 35.209 16.332 34.204 17.487 33.702 19.324 33.702 21.844M56.156 12.889C53.606 12.889 52.076 14.239 51.566 16.939L60.296 16.939C60.086 15.47 59.583 14.427 58.789 13.811 57.993 13.197 57.116 12.889 56.156 12.889zM66.866 28.369C65.726 29.179 64.279 29.869 62.524 30.439 60.769 31.009 58.901 31.294 56.921 31.294 54.191 31.294 51.859 30.791 49.924 29.786 47.989 28.782 46.504 27.379 45.469 25.579 44.434 23.779 43.916 21.709 43.916 19.369 43.916 17 44.426 14.899 45.446 13.069 46.465 11.239 47.876 9.807 49.677 8.771 51.476 7.736 53.576 7.219 55.976 7.219 58.316 7.219 60.379 7.722 62.164 8.727 63.948 9.732 65.344 11.127 66.349 12.911 67.354 14.697 67.856 16.789 67.856 19.189 67.856 19.519 67.834 19.864 67.789 20.223 67.744 20.584 67.691 20.96 67.631 21.348L51.656 21.348C52.376 23.989 54.34 25.309 57.552 25.309 58.991 25.309 60.266 25.084 61.376 24.634 62.486 24.184 63.416 23.734 64.166 23.284L66.866 28.369zM79.691 17.524L79.691 30.709 71.862 30.709 71.862 7.804 79.061 7.804 79.466 10.729C80.156 9.619 81.056 8.779 82.166 8.209 83.276 7.64 84.461 7.354 85.721 7.354 87.071 7.354 88.301 7.654 89.411 8.254 90.521 8.854 91.421 9.694 92.112 10.774 92.921 9.665 93.979 8.816 95.284 8.231 96.589 7.646 97.961 7.354 99.401 7.354 100.991 7.354 102.394 7.722 103.609 8.457 104.824 9.192 105.776 10.212 106.466 11.517 107.156 12.821 107.501 14.329 107.501 16.039L107.501 30.709 99.671 30.709 99.671 16.849C99.671 15.89 99.408 15.124 98.884 14.554 98.359 13.984 97.691 13.699 96.881 13.699 95.891 13.699 95.096 14.014 94.496 14.644 93.896 15.274 93.596 16.234 93.596 17.524L93.596 30.709 85.766 30.709 85.766 16.849C85.766 15.89 85.511 15.124 85.001 14.554 84.491 13.984 83.801 13.699 82.931 13.699 81.971 13.699 81.191 14.014 80.591 14.644 79.991 15.274 79.691 16.234 79.691 17.524M123.701 25.084C125.081 25.084 126.183 24.552 127.008 23.486 127.833 22.422 128.246 21.005 128.246 19.234 128.246 17.464 127.833 16.055 127.008 15.004 126.183 13.954 125.081 13.429 123.701 13.429 122.321 13.429 121.218 13.954 120.394 15.004 119.568 16.055 119.156 17.464 119.156 19.234 119.156 21.005 119.568 22.422 120.394 23.486 121.218 24.552 122.321 25.084 123.701 25.084zM123.701 31.294C121.241 31.294 119.073 30.776 117.198 29.741 115.323 28.707 113.853 27.289 112.789 25.489 111.723 23.689 111.191 21.604 111.191 19.234 111.191 16.864 111.723 14.779 112.789 12.979 113.853 11.179 115.323 9.769 117.198 8.749 119.073 7.729 121.241 7.219 123.701 7.219 126.161 7.219 128.328 7.729 130.204 8.749 132.078 9.769 133.549 11.179 134.613 12.979 135.678 14.779 136.211 16.864 136.211 19.234 136.211 21.604 135.678 23.689 134.613 25.489 133.549 27.289 132.078 28.707 130.204 29.741 128.328 30.776 126.161 31.294 123.701 31.294zM148.136 18.064L148.136 30.709 140.306 30.709 140.306 7.804 147.461 7.804 147.866 10.819C148.615 9.739 149.591 8.869 150.791 8.209 151.99 7.55 153.311 7.219 154.751 7.219 157.241 7.219 159.236 8.029 160.736 9.649 162.236 11.269 162.986 13.595 162.986 16.624L162.986 30.709 155.156 30.709 155.156 17.524C155.156 16.174 154.856 15.177 154.256 14.531 153.655 13.887 152.816 13.564 151.736 13.564 150.656 13.564 149.786 13.909 149.126 14.599 148.466 15.29 148.136 16.444 148.136 18.064M184.945 29.223C184.015 29.854 182.95 30.356 181.751 30.731 180.55 31.106 179.29 31.294 177.97 31.294 175.51 31.294 173.553 30.582 172.098 29.156 170.643 27.732 169.916 25.819 169.916 23.419L169.916 13.654 166.18 13.654 166.18 7.804 170.276 7.804 171.265 1.414 177.745 1.414 177.745 7.804 183.731 7.804 183.731 13.654 177.745 13.654 177.745 22.429C177.745 23.21 177.978 23.817 178.443 24.252 178.908 24.686 179.53 24.904 180.311 24.904 180.7 24.904 181.098 24.829 181.503 24.679 181.908 24.529 182.291 24.349 182.651 24.139L184.945 29.223"/>
    <polyline fill="#404040" points="218.92 30.709 206.905 13.069 206.905 30.709 199.21 30.709 199.21 .109 206.86 .109 218.83 18.064 218.83 .109 226.57 .109 226.57 30.709 218.92 30.709"/>
    <path fill="#404040" d="M243.535,12.889 C240.985,12.889 239.454,14.239 238.945,16.939 L247.674,16.939 C247.465,15.47 246.962,14.427 246.167,13.811 C245.372,13.197 244.494,12.889 243.535,12.889 Z M254.245,28.369 C253.104,29.179 251.657,29.869 249.902,30.439 C248.147,31.009 246.279,31.294 244.299,31.294 C241.57,31.294 239.237,30.791 237.302,29.786 C235.367,28.782 233.882,27.379 232.847,25.579 C231.812,23.779 231.295,21.709 231.295,19.369 C231.295,17 231.804,14.899 232.824,13.069 C233.844,11.239 235.255,9.807 237.055,8.771 C238.855,7.736 240.954,7.219 243.355,7.219 C245.695,7.219 247.757,7.722 249.542,8.727 C251.327,9.732 252.722,11.127 253.727,12.911 C254.732,14.697 255.235,16.789 255.235,19.189 C255.235,19.519 255.212,19.864 255.167,20.223 C255.122,20.584 255.07,20.96 255.009,21.348 L239.035,21.348 C239.755,23.989 241.719,25.309 244.93,25.309 C246.37,25.309 247.644,25.084 248.755,24.634 C249.864,24.184 250.795,23.734 251.545,23.284 L254.245,28.369 Z"/>
    <polyline fill="#404040" points="278.545 30.709 274.855 16.804 271.21 30.709 263.11 30.709 257.17 7.804 265.179 7.804 267.565 22.564 271.434 7.804 278.32 7.804 282.324 22.609 284.755 7.804 292.584 7.804 286.644 30.709 278.545 30.709"/>
    <path fill="#404040" d="M304.508,31.294 C302.529,31.294 300.676,30.979 298.951,30.348 C297.226,29.719 295.674,28.819 294.294,27.649 L297.624,23.239 C298.674,24.079 299.806,24.762 301.021,25.286 C302.236,25.811 303.428,26.074 304.599,26.074 C305.379,26.074 306.001,25.939 306.466,25.669 C306.931,25.399 307.164,24.994 307.164,24.454 C307.164,23.885 306.901,23.427 306.377,23.082 C305.851,22.737 304.914,22.399 303.564,22.069 L301.404,21.529 C297.113,20.39 294.968,18.095 294.968,14.644 C294.968,13.114 295.388,11.794 296.229,10.685 C297.068,9.574 298.223,8.72 299.694,8.119 C301.164,7.519 302.874,7.219 304.824,7.219 C306.744,7.219 308.551,7.519 310.247,8.119 C311.941,8.72 313.494,9.589 314.904,10.729 L311.484,15.229 C310.433,14.39 309.324,13.715 308.154,13.204 C306.984,12.694 305.888,12.439 304.869,12.439 C303.218,12.439 302.394,12.979 302.394,14.059 C302.394,14.539 302.641,14.93 303.136,15.229 C303.632,15.529 304.329,15.8 305.229,16.039 L308.154,16.849 C310.343,17.449 311.964,18.349 313.013,19.549 C314.063,20.749 314.589,22.175 314.589,23.824 C314.589,25.324 314.169,26.637 313.329,27.762 C312.489,28.887 311.311,29.757 309.797,30.372 C308.281,30.986 306.518,31.294 304.508,31.294"/>
    <polyline fill="#404040" points="344.333 27.874 337.358 11.719 337.358 30.709 330.293 30.709 330.293 .109 339.653 .109 347.663 19.234 355.448 .109 364.808 .109 364.808 30.709 357.833 30.709 357.833 11.494 350.768 27.874 344.333 27.874"/>
    <path fill="#404040" d="M381.773 12.889C379.222 12.889 377.692 14.239 377.182 16.939L385.913 16.939C385.703 15.47 385.2 14.427 384.405 13.811 383.61 13.197 382.732 12.889 381.773 12.889zM392.483 28.369C391.342 29.179 389.895 29.869 388.14 30.439 386.385 31.009 384.517 31.294 382.538 31.294 379.807 31.294 377.475 30.791 375.54 29.786 373.605 28.782 372.12 27.379 371.086 25.579 370.05 23.779 369.533 21.709 369.533 19.369 369.533 17 370.043 14.899 371.062 13.069 372.082 11.239 373.493 9.807 375.293 8.771 377.092 7.736 379.192 7.219 381.592 7.219 383.932 7.219 385.995 7.722 387.78 8.727 389.565 9.732 390.96 11.127 391.966 12.911 392.97 14.697 393.472 16.789 393.472 19.189 393.472 19.519 393.45 19.864 393.405 20.223 393.36 20.584 393.307 20.96 393.248 21.348L377.273 21.348C377.993 23.989 379.957 25.309 383.168 25.309 384.608 25.309 385.883 25.084 386.993 24.634 388.102 24.184 389.033 23.734 389.783 23.284L392.483 28.369zM405.982 31.294C404.003 31.294 402.15 30.979 400.424 30.348 398.7 29.719 397.147 28.819 395.767 27.649L399.097 23.239C400.147 24.079 401.28 24.762 402.495 25.286 403.71 25.811 404.902 26.074 406.073 26.074 406.852 26.074 407.474 25.939 407.94 25.669 408.405 25.399 408.637 24.994 408.637 24.454 408.637 23.885 408.375 23.427 407.85 23.082 407.325 22.737 406.387 22.399 405.038 22.069L402.878 21.529C398.587 20.39 396.442 18.095 396.442 14.644 396.442 13.114 396.862 11.794 397.703 10.685 398.542 9.574 399.697 8.72 401.168 8.119 402.637 7.519 404.347 7.219 406.298 7.219 408.217 7.219 410.025 7.519 411.72 8.119 413.415 8.72 414.967 9.589 416.378 10.729L412.958 15.229C411.907 14.39 410.798 13.715 409.628 13.204 408.458 12.694 407.362 12.439 406.342 12.439 404.692 12.439 403.868 12.979 403.868 14.059 403.868 14.539 404.115 14.93 404.61 15.229 405.105 15.529 405.802 15.8 406.703 16.039L409.628 16.849C411.817 17.449 413.437 18.349 414.487 19.549 415.537 20.749 416.062 22.175 416.062 23.824 416.062 25.324 415.642 26.637 414.802 27.762 413.963 28.887 412.785 29.757 411.27 30.372 409.755 30.986 407.992 31.294 405.982 31.294M428.842 31.294C426.862 31.294 425.009 30.979 423.285 30.348 421.559 29.719 420.007 28.819 418.628 27.649L421.958 23.239C423.008 24.079 424.14 24.762 425.355 25.286 426.57 25.811 427.762 26.074 428.932 26.074 429.713 26.074 430.335 25.939 430.799 25.669 431.264 25.399 431.498 24.994 431.498 24.454 431.498 23.885 431.234 23.427 430.71 23.082 430.184 22.737 429.248 22.399 427.897 22.069L425.737 21.529C421.447 20.39 419.302 18.095 419.302 14.644 419.302 13.114 419.722 11.794 420.562 10.685 421.402 9.574 422.557 8.72 424.027 8.119 425.497 7.519 427.207 7.219 429.157 7.219 431.077 7.219 432.884 7.519 434.58 8.119 436.274 8.72 437.827 9.589 439.237 10.729L435.817 15.229C434.767 14.39 433.657 13.715 432.487 13.204 431.317 12.694 430.222 12.439 429.203 12.439 427.552 12.439 426.727 12.979 426.727 14.059 426.727 14.539 426.975 14.93 427.469 15.229 427.965 15.529 428.663 15.8 429.562 16.039L432.487 16.849C434.676 17.449 436.297 18.349 437.347 19.549 438.397 20.749 438.923 22.175 438.923 23.824 438.923 25.324 438.502 26.637 437.663 27.762 436.822 28.887 435.644 29.757 434.13 30.372 432.615 30.986 430.852 31.294 428.842 31.294M454.043 12.889C451.492 12.889 449.962 14.239 449.452 16.939L458.182 16.939C457.972 15.47 457.469 14.427 456.674 13.811 455.88 13.197 455.002 12.889 454.043 12.889zM464.753 28.369C463.612 29.179 462.165 29.869 460.41 30.439 458.655 31.009 456.787 31.294 454.807 31.294 452.077 31.294 449.745 30.791 447.809 29.786 445.875 28.782 444.389 27.379 443.355 25.579 442.32 23.779 441.802 21.709 441.802 19.369 441.802 17 442.312 14.899 443.332 13.069 444.351 11.239 445.762 9.807 447.562 8.771 449.362 7.736 451.462 7.219 453.862 7.219 456.202 7.219 458.264 7.722 460.049 8.727 461.835 9.732 463.229 11.127 464.235 12.911 465.24 14.697 465.742 16.789 465.742 19.189 465.742 19.519 465.719 19.864 465.674 20.223 465.63 20.584 465.577 20.96 465.517 21.348L449.543 21.348C450.262 23.989 452.226 25.309 455.437 25.309 456.878 25.309 458.152 25.084 459.262 24.634 460.372 24.184 461.302 23.734 462.052 23.284L464.753 28.369zM477.577 18.064L477.577 30.709 469.747 30.709 469.747 7.804 476.902 7.804 477.307 10.819C478.056 9.739 479.032 8.869 480.232 8.209 481.431 7.55 482.752 7.219 484.192 7.219 486.681 7.219 488.676 8.029 490.176 9.649 491.676 11.269 492.426 13.595 492.426 16.624L492.426 30.709 484.597 30.709 484.597 17.524C484.597 16.174 484.297 15.177 483.697 14.531 483.096 13.887 482.257 13.564 481.176 13.564 480.097 13.564 479.226 13.909 478.567 14.599 477.907 15.29 477.577 16.444 477.577 18.064M508.537 23.824C509.856 23.824 510.922 23.352 511.731 22.406 512.542 21.462 512.947 20.194 512.947 18.604 512.947 17.015 512.542 15.747 511.731 14.802 510.922 13.856 509.856 13.384 508.537 13.384 507.186 13.384 506.106 13.856 505.297 14.802 504.487 15.747 504.082 17.015 504.082 18.604 504.082 20.164 504.487 21.425 505.297 22.384 506.106 23.345 507.186 23.824 508.537 23.824zM520.686 28.279C520.686 30.619 520.146 32.622 519.066 34.286 517.987 35.951 516.494 37.227 514.589 38.111 512.683 38.996 510.471 39.439 507.952 39.439 505.911 39.439 503.976 39.169 502.146 38.629 500.316 38.089 498.681 37.369 497.242 36.469L500.167 31.429C501.186 32.029 502.259 32.517 503.384 32.892 504.509 33.267 505.672 33.454 506.872 33.454 508.882 33.454 510.382 33.004 511.372 32.104 512.362 31.204 512.856 29.93 512.856 28.279L512.856 27.469C512.076 28.25 511.138 28.872 510.044 29.337 508.949 29.802 507.801 30.034 506.601 30.034 504.532 30.034 502.709 29.547 501.134 28.571 499.559 27.597 498.329 26.247 497.444 24.521 496.559 22.797 496.117 20.824 496.117 18.604 496.117 16.354 496.551 14.374 497.422 12.664 498.292 10.954 499.507 9.619 501.066 8.659 502.626 7.699 504.426 7.219 506.466 7.219 507.846 7.219 509.129 7.55 510.314 8.209 511.499 8.869 512.436 9.739 513.127 10.819L513.532 7.804 520.686 7.804 520.686 28.279zM537.021 12.889C534.47 12.889 532.941 14.239 532.431 16.939L541.161 16.939C540.951 15.47 540.448 14.427 539.654 13.811 538.858 13.197 537.981 12.889 537.021 12.889zM547.731 28.369C546.591 29.179 545.143 29.869 543.388 30.439 541.633 31.009 539.766 31.294 537.786 31.294 535.056 31.294 532.723 30.791 530.789 29.786 528.853 28.782 527.369 27.379 526.334 25.579 525.299 23.779 524.781 21.709 524.781 19.369 524.781 17 525.291 14.899 526.311 13.069 527.331 11.239 528.741 9.807 530.541 8.771 532.341 7.736 534.441 7.219 536.841 7.219 539.181 7.219 541.244 7.722 543.029 8.727 544.813 9.732 546.208 11.127 547.214 12.911 548.218 14.697 548.721 16.789 548.721 19.189 548.721 19.519 548.699 19.864 548.654 20.223 548.609 20.584 548.556 20.96 548.496 21.348L532.521 21.348C533.241 23.989 535.206 25.309 538.416 25.309 539.856 25.309 541.131 25.084 542.241 24.634 543.35 24.184 544.281 23.734 545.031 23.284L547.731 28.369zM560.556 21.844L560.556 30.709 552.726 30.709 552.726 7.804 559.881 7.804 560.376 11.629C560.855 10.399 561.643 9.401 562.738 8.637 563.833 7.872 565.101 7.489 566.541 7.489 567.351 7.489 567.966 7.595 568.385 7.804L568.385 14.959C568.055 14.84 567.688 14.75 567.284 14.689 566.879 14.629 566.421 14.599 565.911 14.599 564.35 14.599 563.068 15.177 562.063 16.332 561.058 17.487 560.556 19.324 560.556 21.844"/>
    <path fill="#009BFF" class='no-color-change' d="M573.145,31.204 C572.185,31.204 571.307,30.972 570.513,30.507 C569.717,30.042 569.088,29.412 568.623,28.616 C568.158,27.822 567.925,26.944 567.925,25.984 C567.925,25.024 568.158,24.146 568.623,23.352 C569.088,22.557 569.717,21.927 570.513,21.462 C571.307,20.997 572.185,20.764 573.145,20.764 C574.105,20.764 574.983,20.997 575.778,21.462 C576.573,21.927 577.203,22.557 577.668,23.352 C578.133,24.146 578.366,25.024 578.366,25.984 C578.366,26.944 578.133,27.822 577.668,28.616 C577.203,29.412 576.573,30.042 575.778,30.507 C574.983,30.972 574.105,31.204 573.145,31.204"/>
  </g>
</svg>
