<svg xmlns="http://www.w3.org/2000/svg" xmlns:xlink="http://www.w3.org/1999/xlink" width="720" height="163" viewBox="0 0 720 163">
  <defs>
    <style>
      .cls-1 {
        filter: url(#filter);
      }

      .cls-2 {
        fill: #999;
      }

      .cls-2, .cls-3, .cls-4, .cls-5 {
        fill-rule: evenodd;
      }

      .cls-3, .cls-5 {
        fill: #fff;
      }

      .cls-4 {
        fill: #feffff;
      }

      .cls-5 {
        filter: url(#filter-2);
      }
    </style>
    <filter id="filter" filterUnits="userSpaceOnUse">
      <feFlood result="flood" flood-color="#333"/>
      <feComposite result="composite" operator="in" in2="SourceGraphic"/>
      <feBlend result="blend" in2="SourceGraphic"/>
    </filter>
    <filter id="filter-2" x="0" y="-0.031" width="448.281" height="19.469" filterUnits="userSpaceOnUse">
      <feFlood result="flood" flood-color="#999"/>
      <feComposite result="composite" operator="in" in2="SourceGraphic"/>
      <feBlend result="blend" in2="SourceGraphic"/>
    </filter>
  </defs>
  <g id="fsu" class="cls-1">
    <path class="cls-2" d="M462.754,52.23h2.208v55.385h-2.208V52.23Z"/>
    <path id="Florida_Flambeau" data-name="Florida Flambeau" class="cls-3" d="M481.346,105.834H484.2V97.021h7.128V94.573H484.2V88.064h7.359V85.616H481.346v20.218Zm13.881,0h2.713V85.616h-2.713v20.218Zm14.227,0.345a7.461,7.461,0,1,0-7.619-7.459A7.362,7.362,0,0,0,509.454,106.179Zm0-2.3a5.163,5.163,0,1,1,4.878-5.155A4.868,4.868,0,0,1,509.454,103.875Zm11.515,1.959h2.713V98.288c0-2.88,1.212-4.579,3.521-4.579a5.552,5.552,0,0,1,1.818.317V91.463a6.338,6.338,0,0,0-1.53-.2,4.005,4.005,0,0,0-3.867,2.419h-0.058V91.607h-2.6v14.227Zm12.784-16.272a1.652,1.652,0,0,0,1.732-1.67,1.733,1.733,0,0,0-3.463,0A1.652,1.652,0,0,0,533.753,89.562ZM532.4,105.834h2.713V91.607H532.4v14.227Zm13.795,0.345a5.976,5.976,0,0,0,5.252-2.793H551.5v2.448h2.6V85.616h-2.741v8.323H551.3a5.688,5.688,0,0,0-5.108-2.678,7.086,7.086,0,0,0-7.187,7.4C539.005,102.262,541.256,106.179,546.192,106.179Zm0.375-2.275c-2.828,0-4.791-2.246-4.791-5.184,0-2.909,1.905-5.184,4.791-5.184,2.915,0,4.82,2.3,4.82,5.184C551.387,101.658,549.424,103.9,546.567,103.9Zm18.614,2.275a5.978,5.978,0,0,0,5.253-2.793h0.057v2.448h2.6V91.607h-2.6v2.448h-0.057a5.978,5.978,0,0,0-5.253-2.793,7.068,7.068,0,0,0-7.186,7.4C558,102.262,560.246,106.179,565.181,106.179Zm0.375-2.275c-2.828,0-4.791-2.246-4.791-5.184,0-2.909,1.9-5.184,4.791-5.184,2.915,0,4.82,2.3,4.82,5.184C570.376,101.658,568.414,103.9,565.556,103.9Zm19.538,1.93h2.857V97.021h7.128V94.573h-7.128V88.064h7.359V85.616H585.094v20.218Zm13.881,0h2.713V85.616h-2.713v20.218Zm13.795,0.345a5.977,5.977,0,0,0,5.252-2.793h0.058v2.448h2.6V91.607h-2.6v2.448h-0.058a5.978,5.978,0,0,0-5.252-2.793,7.069,7.069,0,0,0-7.187,7.4C605.583,102.262,607.834,106.179,612.77,106.179Zm0.375-2.275c-2.829,0-4.791-2.246-4.791-5.184,0-2.909,1.9-5.184,4.791-5.184,2.915,0,4.819,2.3,4.819,5.184C617.964,101.658,616,103.9,613.145,103.9Zm12.524,1.93h2.742V97.741c0-2.678,1.385-4.233,3.637-4.233,2.222,0,3.261,1.469,3.261,4.147v8.18h2.742V97.741c0-2.678,1.385-4.233,3.636-4.233,2.222,0,3.29,1.469,3.29,4.147v8.18h2.713V97.165c0-3.744-1.962-5.9-5.339-5.9A5.272,5.272,0,0,0,637.387,94a4.753,4.753,0,0,0-4.676-2.736,4.915,4.915,0,0,0-4.386,2.246h-0.058v-1.9h-2.6v14.227Zm34.661,0.345c4.935,0,7.186-3.917,7.186-7.517a7.092,7.092,0,0,0-7.215-7.4,5.758,5.758,0,0,0-5.108,2.678h-0.058V85.616h-2.713v20.218h2.6v-2.448h0.058A5.942,5.942,0,0,0,660.33,106.179Zm-0.4-2.275c-2.857,0-4.82-2.246-4.82-5.184,0-2.88,1.9-5.184,4.82-5.184s4.82,2.275,4.82,5.184C664.746,101.658,662.783,103.9,659.926,103.9Zm17.893,2.275a7.319,7.319,0,0,0,6.637-3.542l-1.962-1.239a4.992,4.992,0,0,1-4.531,2.592A4.706,4.706,0,0,1,673,99.239h11.717a6.021,6.021,0,0,0,.029-0.662c0-3.37-2.02-7.315-7.157-7.315-5.166,0-7.273,4.032-7.273,7.459A7.179,7.179,0,0,0,677.819,106.179Zm-4.734-8.9a4.525,4.525,0,0,1,8.976,0h-8.976Zm21.645,8.9a5.979,5.979,0,0,0,5.253-2.793h0.057v2.448h2.6V91.607h-2.6v2.448h-0.057a5.979,5.979,0,0,0-5.253-2.793,7.068,7.068,0,0,0-7.186,7.4C687.544,102.262,689.8,106.179,694.73,106.179Zm0.375-2.275c-2.828,0-4.791-2.246-4.791-5.184,0-2.909,1.905-5.184,4.791-5.184,2.915,0,4.82,2.3,4.82,5.184C699.925,101.658,697.962,103.9,695.105,103.9Zm17.691,2.275a4.838,4.838,0,0,0,4.387-2.246h0.057v1.9h2.627V91.607h-2.742V99.7c0,2.679-1.328,4.234-3.694,4.234-2.28,0-3.348-1.411-3.348-4.147V91.607H707.37v8.668C707.37,103.99,709.275,106.179,712.8,106.179Z"/>
    <path id="FSView" class="cls-4" d="M481.346,75.928H484.2V67.115h7.128V64.667H484.2V58.158h7.359V55.71H481.346V75.928Zm19.1,0.4c4.156,0,6.754-2.621,6.754-6.134,0-3.715-2.944-5.069-5.8-6.192-1.761-.691-3.781-1.382-3.781-3.485,0-1.7,1.3-2.707,3.261-2.707A4.6,4.6,0,0,1,504.9,60l1.934-1.642a6.794,6.794,0,0,0-5.946-3.053c-3.636,0-6.118,2.218-6.118,5.414,0,3.225,2.569,4.493,5.108,5.5,2.482,0.979,4.474,1.786,4.474,4.176,0,2.218-1.732,3.427-3.954,3.427a5.867,5.867,0,0,1-5.08-3.2L493.38,72.27A7.859,7.859,0,0,0,500.45,76.331Zm16.941-.4h2.078l8.456-20.217h-2.973l-5.021,12.153c-0.145.346-1.386,3.773-1.443,4.09h-0.029c-0.029-.317-1.3-3.744-1.443-4.09L512.023,55.71h-3.088Zm14.66-16.272a1.652,1.652,0,0,0,1.732-1.67,1.733,1.733,0,0,0-3.463,0A1.652,1.652,0,0,0,532.051,59.656ZM530.7,75.928h2.713V61.7H530.7V75.928Zm14.112,0.346a7.321,7.321,0,0,0,6.638-3.542l-1.963-1.238a4.991,4.991,0,0,1-4.531,2.592,4.706,4.706,0,0,1-4.964-4.752h11.718a6.021,6.021,0,0,0,.029-0.662c0-3.37-2.021-7.315-7.158-7.315-5.166,0-7.273,4.032-7.273,7.459A7.179,7.179,0,0,0,544.807,76.273Zm-4.733-8.9a4.525,4.525,0,0,1,8.975,0h-8.975ZM558.6,75.928H561l2.886-8.352a21.422,21.422,0,0,0,.722-2.678h0.057a27.282,27.282,0,0,0,.751,2.678l2.886,8.352h2.366l5.08-14.227h-2.771l-2.713,8.179a26.655,26.655,0,0,0-.779,2.794h-0.058c-0.028-.346-0.606-2.218-0.779-2.736l-2.8-8.237h-2.367l-2.77,8.237c-0.116.374-.751,2.39-0.78,2.736h-0.057c-0.058-.346-0.635-2.362-0.78-2.794L556.379,61.7h-2.828Z"/>
    <path class="cls-3" d="M0.194,30.1H38.4v9.154H10.879V63.6H37.538v9.154H10.879V105.71H0.194V30.1ZM42.5,92.032l7.231-6.139c3.67,6.032,9.5,11.956,19,11.956,8.311,0,14.787-4.524,14.787-12.816,0-8.94-7.447-11.956-16.729-15.618-9.5-3.769-19.1-8.507-19.1-20.57,0-11.956,9.282-20.249,22.881-20.249,10.794,0,17.916,4.956,22.234,11.418l-7.232,6.139a17.181,17.181,0,0,0-15-8.185c-7.339,0-12.2,3.769-12.2,10.124,0,7.862,7.556,10.446,14.139,13.032C83.194,65.323,94.2,70.384,94.2,84.278c0,13.139-9.714,22.94-25.256,22.94A29.4,29.4,0,0,1,42.5,92.032Zm58.607-12.385V30.1H111.9V76.416c0,13.139,5.612,21.217,18.24,21.217,12.736,0,18.348-8.078,18.348-21.217V30.1h10.793V79.647c0,16.585-10.685,27.572-29.141,27.572C111.58,107.218,101.111,96.232,101.111,79.647Zm80.2-49.542h8.2l42.956,49c1.295,1.4,6.907,8.4,7.447,9.477l0.216-.107c-0.216-1.078-.216-9.8-0.216-11.74V30.1h10.361V105.71h-8.31l-42.956-49c-1.3-1.4-6.908-8.4-7.448-9.479l-0.108.109c0.108,1.076.216,9.8,0.216,11.738V105.71H181.306V30.1Zm81.165,49c0-12.816,7.879-27.9,27.2-27.9,19.211,0,26.766,14.755,26.766,27.356a22.624,22.624,0,0,1-.108,2.479H272.509c0.216,10.339,7.663,17.77,18.563,17.77a18.67,18.67,0,0,0,16.946-9.694l7.338,4.631C310.176,102.694,301,107,290.533,107,271.537,107,262.471,92.786,262.471,79.108ZM306.4,73.723c-1.619-9.047-8.2-14.755-16.729-14.755-8.851,0-15.218,6.03-16.838,14.755H306.4Zm9.284-21.217h10.578l10.145,30.587c0.54,1.614,2.7,9.154,2.914,10.446h0.215c0.108-1.292,2.484-8.832,2.915-10.23l10.361-30.8h8.851l10.469,30.8c0.647,1.939,2.806,8.939,2.913,10.23h0.216a99.776,99.776,0,0,1,2.915-10.446L388.32,52.506h10.361l-19,53.2h-8.851L360.043,74.477a101.837,101.837,0,0,1-2.807-10.017H357.02a80.189,80.189,0,0,1-2.7,10.017L343.529,105.71h-8.958Zm80.95,44.479,6.044-6.03c3.023,3.878,7.555,7.862,14.787,7.862,5.936,0,10.685-2.693,10.685-7.862,0-5.708-6.044-7.755-12.736-9.908-7.987-2.586-15.434-6.139-15.434-14.864,0-9.154,8.1-14.971,19-14.971,8.743,0,14.787,3.771,17.917,7.755l-5.829,6.246A14.914,14.914,0,0,0,418.974,59.4c-5.288,0-8.957,2.368-8.957,6.246,0,4.954,5.828,6.57,10.9,8.294,7.987,2.693,17.269,5.923,17.269,16.37,0,10.124-8.634,16.694-20.614,16.694C406.994,107,400.087,101.94,396.633,96.986ZM297.692,158.61a3.332,3.332,0,1,1,3.331,3.324A3.226,3.226,0,0,1,297.692,158.61Zm9.548-15.293c0-9.307,6.441-19.206,18.952-19.206a18.558,18.558,0,0,1,9.105,2.142v3.99a15.229,15.229,0,0,0-9.18-2.808c-8.735,0-15.028,6.8-15.028,15.808,0,8.865,6.071,15.809,15.177,15.809a14.689,14.689,0,0,0,9.327-3.027v3.988a19.356,19.356,0,0,1-9.476,2.365C313.754,162.378,307.24,152.626,307.24,143.317Zm30.868-.074c0-9.38,6.663-19.132,18.8-19.132s18.8,9.752,18.8,19.132-6.663,19.135-18.8,19.135S338.108,152.626,338.108,143.243Zm33.758,0c0-9.086-6.367-15.808-14.955-15.808s-14.954,6.722-14.954,15.808,6.367,15.809,14.954,15.809S371.866,152.331,371.866,143.243ZM381.78,125h3.776v4.875H385.7a12.369,12.369,0,0,1,11.031-5.762c5.774,0,10.143,2.586,12.215,7.461,2.3-4.432,5.922-7.461,12.511-7.461,8.217,0,13.622,5.024,13.622,14.478v22.9h-3.85V139.55c0-8.346-3.85-12.115-9.92-12.115-6.367,0-10.956,4.137-10.956,12.411v21.645h-3.85V139.55c0-8.346-3.85-12.115-9.92-12.115-6.367,0-10.956,4.137-10.956,12.411v21.645h-3.85V125Z"/>
    <path id="USAT_Network" data-name="USAT Network" class="cls-5" d="M-0.013.332H5.455C9.3,0.332,11.872,2.6,11.872,6.1S9.247,11.86,5.455,11.86H2.666v7.206H-0.013V0.332Zm5.2,9.317c2.573,0,3.952-1.415,3.952-3.55,0-2.111-1.379-3.55-3.952-3.55H2.666v7.1H5.185ZM19.521,0.332H21.9l7.8,18.734H26.829l-1.946-4.908h-8.42l-1.949,4.908H11.7S18.572,2.63,19.521.332Zm4.465,11.61L22.174,7.327c-0.27-.7-1.436-3.58-1.463-3.819H20.658c-0.027.24-1.163,3.041-1.463,3.819l-1.839,4.615h6.631Zm8.435-11.61h5.495c3.546,0,6.308,1.819,6.308,5.551,0,2.912-1.949,4.831-4.818,5.287l5.821,7.9H42.086l-5.495-7.633H35.1v7.633h-2.68V0.332Zm5.2,8.943c2.489,0,3.9-1.31,3.9-3.363s-1.409-3.363-3.9-3.363H35.1V9.275H37.62ZM51.657,2.6H46.242V0.332H59.751V2.6H54.336V19.066H51.657V2.6ZM66.7,9.7A9.57,9.57,0,0,1,76.69-.037,9.572,9.572,0,0,1,86.679,9.7a9.572,9.572,0,0,1-9.99,9.738A9.57,9.57,0,0,1,66.7,9.7Zm17.218,0a7.244,7.244,0,1,0-14.485,0A7.244,7.244,0,1,0,83.917,9.7Zm6.619-9.37h9.584V2.6h-6.9v6.03H99.9V10.9H93.216v8.165H90.536V0.332ZM112.24,2.6h-5.415V0.332h13.509V2.6h-5.415V19.066H112.24V2.6Zm10.907-2.269h2.679V8.017h9.963V0.332h2.682V19.066h-2.682V10.286h-9.963v8.78h-2.679V0.332Zm20.261,0h10.343V2.578h-7.663V8.017h7.444v2.246h-7.444v6.562h7.824v2.241h-10.5V0.332ZM162.9,12.608V0.332H165.6V11.807c0,3.258,1.41,5.258,4.576,5.258,3.2,0,4.605-2,4.605-5.258V0.332h2.7V12.608c0,4.112-2.679,6.832-7.31,6.832C165.521,19.44,162.9,16.72,162.9,12.608Zm17.39,3.071,1.816-1.521a5.51,5.51,0,0,0,4.765,2.96c2.083,0,3.709-1.118,3.709-3.176,0-2.211-1.869-2.96-4.2-3.866-2.382-.936-4.791-2.112-4.791-5.1,0-2.959,2.329-5.012,5.741-5.012A6.394,6.394,0,0,1,192.9,2.788l-1.816,1.521a4.329,4.329,0,0,0-3.762-2.03c-1.843,0-3.059.936-3.059,2.509,0,1.948,1.893,2.591,3.545,3.228,2.679,1.042,5.442,2.3,5.442,5.738,0,3.258-2.436,5.686-6.335,5.686A7.389,7.389,0,0,1,180.285,15.679ZM202.508,0.332h2.382l7.8,18.734h-2.871l-1.947-4.908h-8.42l-1.95,4.908h-2.815S201.559,2.63,202.508.332Zm4.465,11.61-1.812-4.615c-0.271-.7-1.437-3.58-1.463-3.819h-0.054c-0.026.24-1.163,3.041-1.463,3.819l-1.839,4.615h6.631ZM224,2.6h-5.415V0.332H232.1V2.6H226.68V19.066H224V2.6Zm9.1,7.1a9.993,9.993,0,0,1,19.98,0A9.993,9.993,0,0,1,233.1,9.7Zm17.218,0a7.243,7.243,0,1,0-14.485,0A7.243,7.243,0,1,0,250.318,9.7Zm6.62-9.37h5.387c6.065,0,10.07,3.416,10.07,9.37,0,5.924-4.034,9.364-10.07,9.364h-5.387V0.332ZM259.617,16.8h2.492c4.438,0,7.524-2.316,7.524-7.094s-3.086-7.1-7.524-7.1h-2.492V16.8ZM281.1,0.332h2.383l7.8,18.734h-2.871l-1.947-4.908h-8.42l-1.95,4.908h-2.816S280.154,2.63,281.1.332Zm4.466,11.61-1.813-4.615c-0.27-.7-1.436-3.58-1.463-3.819H282.24c-0.027.24-1.163,3.041-1.463,3.819l-1.839,4.615h6.631Zm11.067-.509-6.471-11.1h3.006l3.519,6.247a27.668,27.668,0,0,1,1.352,2.667h0.027a28.176,28.176,0,0,1,1.356-2.667l3.546-6.247h2.922l-6.468,11.1v7.633h-2.789V11.432Zm17.131-11.1h2.056L326.6,12.474c0.324,0.351,1.733,2.082,1.87,2.351l0.053-.029c-0.053-.263-0.053-2.427-0.053-2.907V0.332h2.6V19.066h-2.086L318.206,6.923c-0.323-.345-1.733-2.082-1.866-2.345l-0.027.023c0.027,0.269.053,2.433,0.053,2.913V19.066h-2.6V0.332Zm22.238,0h10.34V2.578h-7.661V8.017h7.447v2.246h-7.447v6.562h7.824v2.241h-10.5V0.332ZM354.729,2.6h-5.414V0.332h13.509V2.6h-5.415V19.066h-2.68V2.6Zm10.329-2.269H367.9l3.9,11.13c0.137,0.427,1.056,3.2,1.083,3.626h0.056a37.388,37.388,0,0,1,1.136-3.626l4.063-11.13h2.138l4.06,11.13c0.162,0.427,1.109,3.2,1.139,3.626h0.053c0.054-.427.973-3.2,1.11-3.626l3.872-11.13h2.732l-6.688,18.734H384.5L380.113,7.38a30.594,30.594,0,0,1-.923-3.041h-0.054a31.285,31.285,0,0,1-.946,3.041l-4.359,11.686h-2.059ZM394.44,9.7a9.993,9.993,0,0,1,19.98,0A9.993,9.993,0,0,1,394.44,9.7Zm17.218,0a7.243,7.243,0,1,0-14.485,0A7.243,7.243,0,1,0,411.658,9.7Zm6.619-9.37h5.5c3.548,0,6.307,1.819,6.307,5.551,0,2.912-1.949,4.831-4.818,5.287l5.822,7.9h-3.142l-5.495-7.633h-1.49v7.633h-2.679V0.332Zm5.2,8.943c2.49,0,3.9-1.31,3.9-3.363s-1.409-3.363-3.9-3.363h-2.519V9.275h2.519Zm10.643-8.943H436.8v8.7l7.851-8.7H447.9l-8.147,8.943,8.527,9.791H444.92L436.8,9.6v9.469h-2.679V0.332Z"/>
  </g>
</svg>
