<svg xmlns="http://www.w3.org/2000/svg" width="349" height="55" viewBox="0 0 349 55">
  <g fill="none" fill-rule="evenodd">
    <path class='no-color-change' fill="#009BFF" d="M54.176,27.824 C54.176,42.736 42.089,54.824 27.176,54.824 C12.264,54.824 0.176,42.736 0.176,27.824 C0.176,12.911 12.264,0.824 27.176,0.824 C42.089,0.824 54.176,12.911 54.176,27.824"/>
    <path fill="#404040" d="M69.536 21.551C70.515 21.551 71.27 21.263 71.805 20.687 72.338 20.108 72.606 19.287 72.606 18.221L72.606 7.441 77.484 7.441 77.484 18.195C77.484 20.555 76.792 22.384 75.412 23.676 74.029 24.971 72.071 25.617 69.536 25.617 67.001 25.617 65.042 24.971 63.661 23.676 62.279 22.384 61.588 20.555 61.588 18.195L61.588 7.441 66.468 7.441 66.468 18.221C66.468 19.287 66.733 20.108 67.268 20.687 67.801 21.263 68.556 21.551 69.536 21.551M87.241 25.617C85.789 25.617 84.399 25.369 83.072 24.87 81.742 24.372 80.587 23.659 79.608 22.732L81.97 19.768C82.668 20.398 83.456 20.892 84.33 21.25 85.204 21.609 86.166 21.788 87.215 21.788 87.914 21.788 88.466 21.666 88.867 21.421 89.27 21.176 89.471 20.809 89.471 20.319 89.471 19.847 89.234 19.466 88.763 19.178 88.29 18.89 87.46 18.589 86.271 18.274L85.17 17.984C83.559 17.566 82.337 16.922 81.497 16.057 80.657 15.191 80.237 14.095 80.237 12.765 80.237 11.63 80.535 10.631 81.13 9.774 81.723 8.919 82.546 8.258 83.595 7.795 84.644 7.332 85.859 7.1 87.241 7.1 88.605 7.1 89.908 7.349 91.149 7.848 92.39 8.347 93.492 9.023 94.455 9.88L92.014 12.95C91.385 12.407 90.646 11.935 89.799 11.533 88.95 11.13 88.106 10.929 87.268 10.929 86.567 10.929 86.03 11.048 85.654 11.283 85.279 11.52 85.091 11.865 85.091 12.319 85.091 12.739 85.286 13.102 85.68 13.407 86.074 13.714 86.752 13.999 87.712 14.261L89.051 14.628C90.974 15.151 92.334 15.869 93.129 16.779 93.925 17.688 94.323 18.745 94.323 19.952 94.323 21.09 94.029 22.08 93.443 22.93 92.858 23.777 92.033 24.436 90.965 24.909 89.899 25.382 88.658 25.617 87.241 25.617M102.48 18.327L106.702 18.327 104.604 12.083 102.48 18.327zM109.062 25.276L107.934 21.945 101.246 21.945 100.118 25.276 95.293 25.276 101.824 7.441 107.489 7.441 114.019 25.276 109.062 25.276 109.062 25.276z"/>
    <polyline fill="#404040" points="125.218 25.276 125.218 11.375 119.92 11.375 119.92 7.441 135.395 7.441 135.395 11.375 130.097 11.375 130.097 25.276 125.218 25.276"/>
    <path fill="#404040" d="M145.598 21.577C146.454 21.577 147.202 21.359 147.841 20.922 148.479 20.485 148.982 19.879 149.349 19.099 149.716 18.321 149.899 17.417 149.899 16.385 149.899 15.353 149.716 14.443 149.349 13.658 148.982 12.871 148.479 12.255 147.841 11.808 147.202 11.362 146.454 11.14 145.598 11.14 144.741 11.14 143.993 11.362 143.356 11.808 142.718 12.255 142.215 12.871 141.848 13.658 141.48 14.443 141.296 15.353 141.296 16.385 141.296 17.417 141.48 18.321 141.848 19.099 142.215 19.879 142.718 20.485 143.356 20.922 143.993 21.359 144.741 21.577 145.598 21.577zM145.598 25.617C143.814 25.617 142.228 25.224 140.838 24.436 139.448 23.651 138.35 22.562 137.546 21.173 136.742 19.781 136.339 18.186 136.339 16.385 136.339 15.021 136.567 13.775 137.021 12.647 137.476 11.52 138.122 10.541 138.962 9.71 139.802 8.88 140.78 8.238 141.9 7.782 143.019 7.328 144.251 7.1 145.598 7.1 146.944 7.1 148.178 7.328 149.296 7.782 150.415 8.238 151.395 8.88 152.235 9.71 153.073 10.541 153.721 11.52 154.174 12.647 154.63 13.775 154.856 15.021 154.856 16.385 154.856 18.186 154.455 19.781 153.651 21.173 152.847 22.562 151.749 23.651 150.359 24.436 148.969 25.224 147.381 25.617 145.598 25.617L145.598 25.617zM162.463 21.421L164.693 21.421C165.968 21.421 166.979 20.958 167.721 20.031 168.465 19.105 168.836 17.88 168.836 16.359 168.836 14.837 168.465 13.615 167.721 12.686 166.979 11.759 165.968 11.296 164.693 11.296L162.463 11.296 162.463 21.421zM157.662 25.276L157.662 7.441 164.693 7.441C166.458 7.441 168.019 7.821 169.375 8.582 170.729 9.343 171.791 10.392 172.562 11.729 173.33 13.067 173.714 14.611 173.714 16.359 173.714 18.108 173.33 19.651 172.562 20.988 171.791 22.325 170.729 23.374 169.375 24.135 168.019 24.896 166.458 25.276 164.693 25.276L157.662 25.276 157.662 25.276zM181.53 18.327L185.753 18.327 183.655 12.083 181.53 18.327zM188.113 25.276L186.985 21.945 180.297 21.945 179.169 25.276 174.343 25.276 180.875 7.441 186.54 7.441 193.07 25.276 188.113 25.276 188.113 25.276z"/>
    <polyline fill="#404040" points="202.513 18.85 202.513 25.276 197.556 25.276 197.556 18.85 191.234 7.441 196.742 7.441 200.048 14.522 203.325 7.441 208.834 7.441 202.513 18.85"/>
    <polyline fill="#404040" points="227.797 25.276 220.795 14.995 220.795 25.276 216.309 25.276 216.309 7.441 220.769 7.441 227.745 17.907 227.745 7.441 232.257 7.441 232.257 25.276 227.797 25.276"/>
    <polyline fill="#404040" points="236.19 25.276 236.19 7.441 248.492 7.441 248.492 11.349 240.964 11.349 240.964 14.366 247.652 14.366 247.652 18.274 240.964 18.274 240.964 21.368 248.912 21.368 248.912 25.276 236.19 25.276"/>
    <polyline fill="#404040" points="255.912 25.276 255.912 11.375 250.614 11.375 250.614 7.441 266.09 7.441 266.09 11.375 260.792 11.375 260.792 25.276 255.912 25.276"/>
    <polyline fill="#404040" points="282.56 25.276 279.677 13.684 276.791 25.276 271.623 25.276 267.192 7.441 271.911 7.441 274.614 19.611 277.603 7.441 281.775 7.441 284.737 19.532 287.519 7.441 292.161 7.441 287.728 25.276 282.56 25.276"/>
    <path fill="#404040" d="M302.546 21.577C303.403 21.577 304.151 21.359 304.789 20.922 305.428 20.485 305.931 19.879 306.298 19.099 306.665 18.321 306.848 17.417 306.848 16.385 306.848 15.353 306.665 14.443 306.298 13.658 305.931 12.871 305.428 12.255 304.789 11.808 304.151 11.362 303.403 11.14 302.546 11.14 301.689 11.14 300.942 11.362 300.305 11.808 299.667 12.255 299.164 12.871 298.797 13.658 298.429 14.443 298.245 15.353 298.245 16.385 298.245 17.417 298.429 18.321 298.797 19.099 299.164 19.879 299.667 20.485 300.305 20.922 300.942 21.359 301.689 21.577 302.546 21.577zM302.546 25.617C300.763 25.617 299.177 25.224 297.787 24.436 296.397 23.651 295.299 22.562 294.495 21.173 293.691 19.781 293.288 18.186 293.288 16.385 293.288 15.021 293.516 13.775 293.969 12.647 294.425 11.52 295.071 10.541 295.911 9.71 296.751 8.88 297.729 8.238 298.849 7.782 299.968 7.328 301.2 7.1 302.546 7.1 303.893 7.1 305.127 7.328 306.245 7.782 307.364 8.238 308.343 8.88 309.183 9.71 310.021 10.541 310.669 11.52 311.123 12.647 311.579 13.775 311.805 15.021 311.805 16.385 311.805 18.186 311.404 19.781 310.6 21.173 309.795 22.562 308.697 23.651 307.308 24.436 305.918 25.224 304.33 25.617 302.546 25.617L302.546 25.617zM319.386 15.651L322.009 15.651C322.761 15.651 323.356 15.455 323.793 15.061 324.23 14.667 324.448 14.129 324.448 13.447 324.448 12.801 324.23 12.279 323.793 11.888 323.356 11.494 322.761 11.296 322.009 11.296L319.386 11.296 319.386 15.651zM319.386 19.349L319.386 25.276 314.664 25.276 314.664 7.441 322.533 7.441C324.633 7.441 326.292 7.98 327.516 9.055 328.74 10.13 329.352 11.594 329.352 13.447 329.352 14.654 329.081 15.694 328.541 16.568 327.998 17.443 327.237 18.125 326.258 18.615L329.904 25.276 324.71 25.276 321.747 19.349 319.386 19.349 319.386 19.349z"/>
    <polyline fill="#404040" points="343.044 25.276 337.379 16.556 337.379 25.276 332.526 25.276 332.526 7.441 337.379 7.441 337.379 15.27 343.254 7.441 348.868 7.441 342.257 15.637 348.736 25.276 343.044 25.276"/>
    <path class='no-color-change' fill="#009BFF" d="M78.564 46.031C77.811 46.801 76.771 47.398 75.442 47.828 74.114 48.255 72.645 48.47 71.036 48.47 69.112 48.47 67.447 48.082 66.04 47.302 64.631 46.525 63.539 45.436 62.761 44.037 61.983 42.639 61.593 41.021 61.593 39.185 61.593 37.349 61.987 35.74 62.774 34.36 63.561 32.978 64.663 31.898 66.079 31.121 67.496 30.343 69.147 29.953 71.036 29.953 74.253 29.953 76.745 31.16 78.512 33.573L74.604 35.853C74.236 35.26 73.733 34.801 73.095 34.477 72.456 34.155 71.752 33.993 70.984 33.993 69.584 33.993 68.496 34.464 67.718 35.409 66.94 36.353 66.55 37.613 66.55 39.185 66.55 40.952 66.993 42.266 67.876 43.133 68.758 43.999 70.04 44.43 71.718 44.43 72.505 44.43 73.283 44.3 74.052 44.037L74.052 41.415 70.878 41.415 70.878 37.874 78.564 37.874 78.564 46.031M86.589 38.503L89.213 38.503C89.964 38.503 90.559 38.307 90.996 37.914 91.433 37.52 91.652 36.982 91.652 36.3 91.652 35.654 91.433 35.132 90.996 34.74 90.559 34.347 89.964 34.149 89.213 34.149L86.589 34.149 86.589 38.503zM86.589 42.202L86.589 48.129 81.868 48.129 81.868 30.294 89.736 30.294C91.836 30.294 93.496 30.832 94.72 31.908 95.944 32.983 96.556 34.447 96.556 36.3 96.556 37.507 96.285 38.547 95.744 39.421 95.202 40.296 94.441 40.978 93.462 41.468L97.108 48.129 91.914 48.129 88.951 42.202 86.589 42.202 86.589 42.202z"/>
    <polyline class='no-color-change' fill="#009BFF" points="99.73 48.129 99.73 30.294 112.032 30.294 112.032 34.202 104.504 34.202 104.504 37.219 111.192 37.219 111.192 41.127 104.504 41.127 104.504 44.221 112.452 44.221 112.452 48.129 99.73 48.129"/>
    <path class='no-color-change' fill="#009BFF" d="M121.106,41.18 L125.328,41.18 L123.23,34.936 L121.106,41.18 Z M127.688,48.129 L126.56,44.798 L119.872,44.798 L118.744,48.129 L113.919,48.129 L120.45,30.294 L126.116,30.294 L132.645,48.129 L127.688,48.129 L127.688,48.129 Z"/>
    <polyline class='no-color-change' fill="#009BFF" points="137.472 48.129 137.472 34.228 132.174 34.228 132.174 30.294 147.65 30.294 147.65 34.228 142.352 34.228 142.352 48.129 137.472 48.129"/>
    <polyline class='no-color-change' fill="#009BFF" points="161.393 48.129 156.513 48.129 156.513 30.294 169.051 30.294 169.051 34.202 161.393 34.202 161.393 37.769 167.74 37.769 167.74 41.677 161.393 41.677 161.393 48.129"/>
    <path class='no-color-change' fill="#009BFF" d="M176.159,41.18 L180.381,41.18 L178.283,34.936 L176.159,41.18 Z M182.741,48.129 L181.613,44.798 L174.925,44.798 L173.797,48.129 L168.972,48.129 L175.503,30.294 L181.168,30.294 L187.698,48.129 L182.741,48.129 L182.741,48.129 Z"/>
    <polyline class='no-color-change' fill="#009BFF" points="194.913 44.195 202.336 44.195 202.336 48.129 190.033 48.129 190.033 30.294 194.913 30.294 194.913 44.195"/>
    <polyline class='no-color-change' fill="#009BFF" points="209.784 44.195 217.207 44.195 217.207 48.129 204.905 48.129 204.905 30.294 209.784 30.294 209.784 44.195"/>
    <path class='no-color-change' fill="#009BFF" d="M226.072,48.47 C224.62,48.47 223.23,48.222 221.902,47.722 C220.572,47.225 219.418,46.511 218.438,45.585 L220.8,42.62 C221.499,43.251 222.286,43.745 223.16,44.103 C224.034,44.462 224.996,44.641 226.045,44.641 C226.744,44.641 227.296,44.519 227.697,44.274 C228.1,44.029 228.302,43.662 228.302,43.172 C228.302,42.699 228.064,42.319 227.594,42.031 C227.121,41.743 226.29,41.441 225.102,41.127 L224,40.837 C222.39,40.419 221.167,39.775 220.327,38.91 C219.488,38.044 219.068,36.948 219.068,35.618 C219.068,34.482 219.365,33.484 219.96,32.627 C220.553,31.772 221.377,31.111 222.426,30.648 C223.475,30.184 224.689,29.953 226.072,29.953 C227.435,29.953 228.739,30.201 229.98,30.701 C231.221,31.2 232.323,31.876 233.285,32.733 L230.844,35.803 C230.215,35.26 229.477,34.787 228.629,34.386 C227.78,33.983 226.936,33.782 226.098,33.782 C225.398,33.782 224.861,33.9 224.484,34.136 C224.109,34.373 223.921,34.718 223.921,35.172 C223.921,35.592 224.117,35.955 224.51,36.26 C224.904,36.567 225.582,36.852 226.543,37.113 L227.882,37.481 C229.805,38.004 231.164,38.722 231.959,39.631 C232.756,40.541 233.153,41.598 233.153,42.805 C233.153,43.943 232.859,44.933 232.274,45.783 C231.688,46.63 230.863,47.289 229.795,47.762 C228.729,48.235 227.488,48.47 226.072,48.47"/>
  </g>
</svg>
