<svg xmlns="http://www.w3.org/2000/svg" width="414" height="47" viewBox="0 0 414 47">
  <g fill="none" fill-rule="evenodd">
    <path fill="#009BFF" class='no-color-change' d="M29.473 30.609C28.182 31.929 26.397 32.957 24.118 33.691 21.838 34.426 19.318 34.794 16.558 34.794 13.257 34.794 10.4 34.127 7.985 32.792 5.57 31.457 3.695 29.589 2.36 27.189 1.025 24.789.358 22.014.358 18.864.358 15.714 1.033 12.954 2.383 10.584 3.733 8.214 5.623 6.362 8.053 5.026 10.483 3.692 13.318 3.024 16.558 3.024 22.077 3.024 26.352 5.094 29.383 9.234L22.678 13.149C22.048 12.13 21.185 11.342 20.09 10.786 18.995 10.232 17.787 9.954 16.468 9.954 14.067 9.954 12.2 10.764 10.865 12.384 9.53 14.004 8.863 16.164 8.863 18.864 8.863 21.894 9.62 24.151 11.135 25.636 12.65 27.122 14.848 27.864 17.728 27.864 19.078 27.864 20.412 27.639 21.733 27.189L21.733 22.689 16.288 22.689 16.288 16.614 29.473 16.614 29.473 30.609M42.342 25.344L42.342 34.209 34.513 34.209 34.513 11.304 41.667 11.304 42.162 15.129C42.642 13.899 43.43 12.901 44.525 12.136 45.62 11.372 46.888 10.989 48.328 10.989 49.138 10.989 49.752 11.094 50.173 11.304L50.173 18.459C49.842 18.339 49.475 18.25 49.07 18.189 48.665 18.129 48.207 18.099 47.697 18.099 46.137 18.099 44.855 18.677 43.85 19.832 42.845 20.987 42.342 22.824 42.342 25.344M64.797 16.389C62.247 16.389 60.717 17.739 60.207 20.439L68.937 20.439C68.727 18.969 68.224 17.926 67.429 17.311 66.634 16.697 65.757 16.389 64.797 16.389zM75.507 31.869C74.366 32.679 72.919 33.369 71.164 33.939 69.409 34.508 67.542 34.794 65.562 34.794 62.832 34.794 60.499 34.291 58.564 33.286 56.63 32.282 55.145 30.879 54.11 29.079 53.074 27.279 52.557 25.209 52.557 22.869 52.557 20.5 53.067 18.399 54.087 16.569 55.106 14.739 56.517 13.306 58.317 12.271 60.117 11.236 62.217 10.719 64.617 10.719 66.957 10.719 69.019 11.221 70.804 12.226 72.589 13.232 73.984 14.627 74.989 16.411 75.994 18.197 76.497 20.289 76.497 22.689 76.497 23.019 76.475 23.364 76.429 23.724 76.384 24.084 76.332 24.46 76.272 24.849L60.297 24.849C61.017 27.489 62.981 28.809 66.192 28.809 67.632 28.809 68.907 28.584 70.017 28.134 71.126 27.684 72.057 27.234 72.807 26.784L75.507 31.869zM86.667 26.784C86.667 27.474 86.922 28.037 87.432 28.471 87.942 28.907 88.602 29.124 89.412 29.124 90.492 29.124 91.399 28.756 92.134 28.021 92.869 27.287 93.237 26.364 93.237 25.254L93.237 24.489C92.427 24.339 91.572 24.264 90.672 24.264 89.531 24.264 88.58 24.46 87.815 24.849 87.049 25.239 86.667 25.884 86.667 26.784zM93.552 34.209L93.147 31.194C91.647 33.594 89.367 34.794 86.307 34.794 84.957 34.794 83.734 34.502 82.64 33.917 81.544 33.332 80.674 32.529 80.029 31.509 79.384 30.489 79.062 29.304 79.062 27.954 79.062 25.404 80.059 23.424 82.055 22.014 84.049 20.604 86.682 19.899 89.952 19.899 90.972 19.899 92.051 19.989 93.192 20.169 93.072 19.029 92.584 18.167 91.729 17.582 90.874 16.997 89.832 16.704 88.602 16.704 87.522 16.704 86.434 16.906 85.34 17.311 84.244 17.716 83.202 18.204 82.212 18.774L79.557 13.734C81.057 12.774 82.677 12.032 84.417 11.506 86.156 10.982 87.897 10.719 89.637 10.719 91.737 10.719 93.627 11.079 95.307 11.799 96.987 12.519 98.307 13.614 99.267 15.084 100.227 16.554 100.707 18.414 100.707 20.664L100.707 34.209 93.552 34.209zM122.577 32.724C121.646 33.354 120.581 33.857 119.382 34.231 118.182 34.606 116.922 34.794 115.602 34.794 113.142 34.794 111.184 34.082 109.729 32.656 108.274 31.232 107.547 29.319 107.547 26.919L107.547 17.154 103.812 17.154 103.812 11.304 107.907 11.304 108.897 4.914 115.377 4.914 115.377 11.304 121.362 11.304 121.362 17.154 115.377 17.154 115.377 25.929C115.377 26.71 115.609 27.317 116.074 27.752 116.539 28.187 117.161 28.404 117.942 28.404 118.331 28.404 118.729 28.329 119.134 28.179 119.539 28.029 119.922 27.849 120.282 27.639L122.577 32.724"/>
    <polyline fill="#009BFF" class='no-color-change' points="146.111 34.209 137.741 34.209 137.741 3.609 159.251 3.609 159.251 10.314 146.111 10.314 146.111 16.434 157.001 16.434 157.001 23.139 146.111 23.139 146.111 34.209"/>
    <path fill="#009BFF" class='no-color-change' d="M168.746,26.784 C168.746,27.474 169,28.037 169.511,28.471 C170.02,28.907 170.681,29.124 171.491,29.124 C172.571,29.124 173.478,28.756 174.213,28.021 C174.948,27.287 175.316,26.364 175.316,25.254 L175.316,24.489 C174.506,24.339 173.651,24.264 172.751,24.264 C171.61,24.264 170.658,24.46 169.893,24.849 C169.128,25.239 168.746,25.884 168.746,26.784 Z M175.631,34.209 L175.226,31.194 C173.725,33.594 171.446,34.794 168.386,34.794 C167.036,34.794 165.813,34.502 164.718,33.917 C163.623,33.332 162.753,32.529 162.108,31.509 C161.463,30.489 161.141,29.304 161.141,27.954 C161.141,25.404 162.138,23.424 164.133,22.014 C166.128,20.604 168.76,19.899 172.031,19.899 C173.05,19.899 174.13,19.989 175.271,20.169 C175.15,19.029 174.663,18.167 173.808,17.582 C172.953,16.997 171.91,16.704 170.681,16.704 C169.601,16.704 168.513,16.906 167.418,17.311 C166.323,17.716 165.281,18.204 164.291,18.774 L161.636,13.734 C163.135,12.774 164.755,12.032 166.496,11.506 C168.235,10.982 169.975,10.719 171.715,10.719 C173.815,10.719 175.705,11.079 177.386,11.799 C179.065,12.519 180.385,13.614 181.346,15.084 C182.305,16.554 182.786,18.414 182.786,20.664 L182.786,34.209 L175.631,34.209 Z"/>
    <polygon fill="#009BFF" class='no-color-change' points="187.781 34.209 195.611 34.209 195.611 1.359 187.781 1.359"/>
    <polygon fill="#009BFF" class='no-color-change' points="201.1 34.209 208.93 34.209 208.93 1.359 201.1 1.359"/>
    <path fill="#009BFF" class='no-color-change' d="M222.925,34.794 C220.945,34.794 219.092,34.479 217.367,33.849 C215.642,33.219 214.089,32.319 212.709,31.149 L216.039,26.739 C217.089,27.579 218.222,28.262 219.437,28.786 C220.652,29.312 221.845,29.574 223.015,29.574 C223.794,29.574 224.416,29.439 224.882,29.169 C225.347,28.899 225.58,28.494 225.58,27.954 C225.58,27.384 225.317,26.926 224.792,26.582 C224.267,26.237 223.33,25.899 221.979,25.569 L219.82,25.029 C215.529,23.889 213.385,21.594 213.385,18.144 C213.385,16.614 213.805,15.294 214.644,14.184 C215.484,13.074 216.64,12.219 218.11,11.619 C219.579,11.019 221.289,10.719 223.24,10.719 C225.159,10.719 226.967,11.019 228.662,11.619 C230.357,12.219 231.909,13.089 233.32,14.229 L229.9,18.729 C228.849,17.889 227.74,17.214 226.57,16.704 C225.4,16.194 224.304,15.939 223.285,15.939 C221.634,15.939 220.809,16.479 220.809,17.559 C220.809,18.039 221.057,18.429 221.552,18.729 C222.047,19.029 222.745,19.299 223.644,19.539 L226.57,20.349 C228.759,20.949 230.379,21.849 231.43,23.049 C232.479,24.249 233.005,25.674 233.005,27.324 C233.005,28.824 232.584,30.136 231.745,31.261 C230.904,32.386 229.727,33.256 228.212,33.872 C226.697,34.486 224.934,34.794 222.925,34.794"/>
    <polyline fill="#404040" points="253.459 34.209 253.459 10.359 244.369 10.359 244.369 3.609 270.919 3.609 270.919 10.359 261.829 10.359 261.829 34.209 253.459 34.209"/>
    <path fill="#404040" d="M281.404 25.344L281.404 34.209 273.574 34.209 273.574 11.304 280.728 11.304 281.224 15.129C281.703 13.899 282.491 12.901 283.586 12.136 284.681 11.372 285.949 10.989 287.389 10.989 288.199 10.989 288.813 11.094 289.234 11.304L289.234 18.459C288.903 18.339 288.536 18.25 288.131 18.189 287.726 18.129 287.268 18.099 286.759 18.099 285.199 18.099 283.916 18.677 282.911 19.832 281.906 20.987 281.404 22.824 281.404 25.344M293.014 34.209L293.014 11.304C294.273 11.574 295.548 11.709 296.838 11.709 298.158 11.709 299.494 11.574 300.843 11.304L300.843 34.209 293.014 34.209M318.573 28.584C319.923 28.584 321.01 28.051 321.835 26.986 322.66 25.922 323.073 24.505 323.073 22.734 323.073 20.964 322.66 19.547 321.835 18.481 321.01 17.417 319.923 16.884 318.573 16.884 317.193 16.884 316.09 17.417 315.266 18.481 314.44 19.547 314.028 20.964 314.028 22.734 314.028 24.505 314.44 25.922 315.266 26.986 316.09 28.051 317.193 28.584 318.573 28.584zM331.038 22.734C331.038 25.134 330.588 27.242 329.688 29.056 328.788 30.872 327.558 32.282 325.998 33.286 324.438 34.291 322.668 34.794 320.688 34.794 319.068 34.794 317.695 34.457 316.57 33.781 315.445 33.106 314.553 32.244 313.893 31.194L313.488 34.209 306.333 34.209 306.333 1.359 314.163 1.359 314.163 13.914C314.913 12.924 315.873 12.144 317.043 11.574 318.213 11.005 319.608 10.719 321.228 10.719 323.028 10.719 324.67 11.229 326.155 12.249 327.641 13.269 328.825 14.679 329.71 16.479 330.595 18.279 331.038 20.364 331.038 22.734zM350.253 34.209L349.848 31.194C349.098 32.304 348.115 33.181 346.9 33.826 345.685 34.471 344.372 34.794 342.963 34.794 340.292 34.794 338.252 34.006 336.843 32.431 335.432 30.856 334.728 28.584 334.728 25.614L334.728 11.304 342.558 11.304 342.558 24.714C342.558 27.204 343.698 28.449 345.978 28.449 348.377 28.449 349.578 26.949 349.578 23.949L349.578 11.304 357.408 11.304 357.408 34.209 350.253 34.209M370.727 21.564L370.727 34.209 362.897 34.209 362.897 11.304 370.052 11.304 370.457 14.319C371.207 13.239 372.182 12.369 373.382 11.709 374.582 11.049 375.902 10.719 377.342 10.719 379.832 10.719 381.827 11.529 383.328 13.149 384.827 14.769 385.578 17.094 385.578 20.124L385.578 34.209 377.747 34.209 377.747 21.024C377.747 19.674 377.447 18.677 376.848 18.031 376.247 17.386 375.407 17.064 374.328 17.064 373.247 17.064 372.377 17.409 371.717 18.099 371.057 18.79 370.727 19.944 370.727 21.564M401.507 16.389C398.956 16.389 397.427 17.739 396.917 20.439L405.646 20.439C405.436 18.969 404.934 17.926 404.14 17.311 403.344 16.697 402.467 16.389 401.507 16.389zM412.217 31.869C411.076 32.679 409.629 33.369 407.874 33.939 406.119 34.508 404.252 34.794 402.271 34.794 399.542 34.794 397.209 34.291 395.274 33.286 393.339 32.282 391.854 30.879 390.819 29.079 389.784 27.279 389.267 25.209 389.267 22.869 389.267 20.5 389.777 18.399 390.797 16.569 391.816 14.739 393.227 13.306 395.026 12.271 396.827 11.236 398.927 10.719 401.327 10.719 403.667 10.719 405.729 11.221 407.515 12.226 409.299 13.232 410.693 14.627 411.699 16.411 412.704 18.197 413.207 20.289 413.207 22.689 413.207 23.019 413.185 23.364 413.14 23.724 413.095 24.084 413.042 24.46 412.981 24.849L397.007 24.849C397.727 27.489 399.691 28.809 402.901 28.809 404.342 28.809 405.616 28.584 406.727 28.134 407.836 27.684 408.767 27.234 409.517 26.784L412.217 31.869z"/>
    <path fill="#009BFF" class='no-color-change' d="M296.838,9.504 C295.548,9.504 294.446,9.047 293.531,8.131 C292.615,7.216 292.158,6.114 292.158,4.824 C292.158,3.534 292.615,2.432 293.531,1.516 C294.446,0.602 295.548,0.144 296.838,0.144 C298.128,0.144 299.23,0.602 300.146,1.516 C301.06,2.432 301.518,3.534 301.518,4.824 C301.518,6.114 301.06,7.216 300.146,8.131 C299.23,9.047 298.128,9.504 296.838,9.504"/>
    <path fill="#404040" d="M4.837 43.604L5.984 43.604C6.361 43.604 6.659 43.511 6.879 43.326 7.098 43.14 7.208 42.887 7.208 42.566 7.208 42.245 7.098 41.992 6.879 41.807 6.659 41.621 6.361 41.528 5.984 41.528L4.837 41.528 4.837 43.604zM3.984 46.549L3.984 40.811 5.984 40.811C6.626 40.811 7.135 40.968 7.512 41.283 7.889 41.599 8.077 42.026 8.077 42.566 8.077 43.101 7.889 43.524 7.512 43.836 7.135 44.148 6.626 44.305 5.984 44.305L4.837 44.305 4.837 46.549 3.984 46.549zM9.799 44.389L11.892 44.389 10.845 41.697 9.799 44.389zM12.727 46.549L12.17 45.106 9.52 45.106 8.963 46.549 8.103 46.549 10.398 40.811 11.318 40.811 13.605 46.549 12.727 46.549zM15.411 43.519L16.584 43.519C16.949 43.519 17.241 43.43 17.457 43.25 17.674 43.07 17.782 42.828 17.782 42.524 17.782 42.22 17.674 41.979 17.457 41.798 17.241 41.618 16.949 41.528 16.584 41.528L15.411 41.528 15.411 43.519zM15.411 44.22L15.411 46.549 14.559 46.549 14.559 40.811 16.584 40.811C17.22 40.811 17.723 40.964 18.094 41.27 18.466 41.577 18.651 41.995 18.651 42.524 18.651 42.924 18.539 43.261 18.314 43.537 18.089 43.812 17.779 44.007 17.386 44.119L18.778 46.549 17.808 46.549 16.5 44.22 15.411 44.22z"/>
    <polyline fill="#404040" points="21.099 46.549 21.099 41.528 19.166 41.528 19.166 40.811 23.883 40.811 23.883 41.528 21.951 41.528 21.951 46.549 21.099 46.549"/>
    <path fill="#404040" d="M29.36,45.899 C29.732,45.899 30.062,45.805 30.352,45.617 C30.642,45.429 30.868,45.168 31.031,44.836 C31.194,44.505 31.276,44.119 31.276,43.68 C31.276,43.241 31.194,42.856 31.031,42.524 C30.868,42.192 30.642,41.932 30.352,41.743 C30.062,41.555 29.732,41.46 29.36,41.46 C28.989,41.46 28.66,41.555 28.373,41.743 C28.086,41.932 27.861,42.192 27.698,42.524 C27.535,42.856 27.453,43.241 27.453,43.68 C27.453,44.119 27.535,44.505 27.698,44.836 C27.861,45.168 28.086,45.429 28.373,45.617 C28.66,45.805 28.989,45.899 29.36,45.899 Z M29.36,46.642 C28.82,46.642 28.342,46.515 27.926,46.262 C27.509,46.009 27.182,45.66 26.943,45.216 C26.703,44.772 26.584,44.259 26.584,43.68 C26.584,43.101 26.703,42.589 26.943,42.144 C27.182,41.7 27.509,41.351 27.926,41.098 C28.342,40.844 28.82,40.718 29.36,40.718 C29.901,40.718 30.38,40.844 30.799,41.098 C31.218,41.351 31.547,41.7 31.787,42.144 C32.026,42.589 32.145,43.101 32.145,43.68 C32.145,44.259 32.026,44.772 31.787,45.216 C31.547,45.66 31.218,46.009 30.799,46.262 C30.38,46.515 29.901,46.642 29.36,46.642 Z"/>
    <polyline fill="#404040" points="34.196 46.549 33.344 46.549 33.344 40.811 36.914 40.811 36.914 41.528 34.196 41.528 34.196 43.469 36.5 43.469 36.5 44.186 34.196 44.186 34.196 46.549"/>
    <polyline fill="#404040" points="41.361 46.549 41.361 41.528 39.428 41.528 39.428 40.811 44.145 40.811 44.145 41.528 42.213 41.528 42.213 46.549 41.361 46.549"/>
    <polyline fill="#404040" points="45.124 46.549 45.124 40.811 45.977 40.811 45.977 43.267 48.939 43.267 48.939 40.811 49.791 40.811 49.791 46.549 48.939 46.549 48.939 44.001 45.977 44.001 45.977 46.549 45.124 46.549"/>
    <polyline fill="#404040" points="51.293 46.549 51.293 40.811 54.973 40.811 54.973 41.528 52.146 41.528 52.146 43.3 54.635 43.3 54.635 44.017 52.146 44.017 52.146 45.832 55.04 45.832 55.04 46.549 51.293 46.549"/>
    <path fill="#404040" d="M60.424 45.899C60.891 45.899 61.258 45.759 61.525 45.478 61.793 45.196 61.926 44.816 61.926 44.338L61.926 40.811 62.779 40.811 62.779 44.347C62.779 45.061 62.569 45.622 62.15 46.03 61.731 46.438 61.155 46.642 60.424 46.642 59.693 46.642 59.119 46.438 58.703 46.03 58.286 45.622 58.078 45.061 58.078 44.347L58.078 40.811 58.931 40.811 58.931 44.338C58.931 44.816 59.064 45.196 59.331 45.478 59.599 45.759 59.963 45.899 60.424 45.899M65.96 46.642C65.527 46.642 65.113 46.566 64.72 46.415 64.326 46.262 64.008 46.06 63.766 45.807L64.247 45.241C64.472 45.45 64.738 45.613 65.045 45.731 65.351 45.849 65.656 45.908 65.96 45.908 66.331 45.908 66.631 45.836 66.859 45.693 67.087 45.549 67.201 45.351 67.201 45.098 67.201 44.867 67.119 44.673 66.956 44.515 66.793 44.358 66.514 44.226 66.12 44.119L65.327 43.908C64.815 43.773 64.442 43.581 64.209 43.334 63.975 43.087 63.859 42.763 63.859 42.364 63.859 42.038 63.946 41.75 64.12 41.503 64.295 41.255 64.535 41.063 64.842 40.925 65.148 40.787 65.496 40.718 65.884 40.718 66.295 40.718 66.68 40.795 67.04 40.95 67.4 41.105 67.718 41.32 67.994 41.596L67.479 42.153C67.237 41.928 66.985 41.755 66.724 41.634 66.462 41.513 66.185 41.452 65.893 41.452 65.538 41.452 65.248 41.527 65.023 41.676 64.798 41.825 64.686 42.032 64.686 42.296 64.686 42.538 64.766 42.726 64.926 42.862 65.087 42.996 65.333 43.109 65.665 43.199L66.551 43.444C67.063 43.584 67.437 43.781 67.673 44.035 67.91 44.288 68.028 44.603 68.028 44.98 68.028 45.312 67.94 45.603 67.766 45.853 67.592 46.104 67.35 46.297 67.04 46.435 66.731 46.573 66.371 46.642 65.96 46.642M70.171 44.389L72.264 44.389 71.218 41.697 70.171 44.389zM73.1 46.549L72.543 45.106 69.893 45.106 69.336 46.549 68.475 46.549 70.77 40.811 71.69 40.811 73.977 46.549 73.1 46.549z"/>
    <polyline fill="#404040" points="77.944 46.549 77.944 41.528 76.011 41.528 76.011 40.811 80.728 40.811 80.728 41.528 78.796 41.528 78.796 46.549 77.944 46.549"/>
    <path fill="#404040" d="M83.8 45.899C84.172 45.899 84.502 45.805 84.792 45.617 85.081 45.429 85.308 45.168 85.471 44.836 85.634 44.505 85.716 44.119 85.716 43.68 85.716 43.241 85.634 42.856 85.471 42.524 85.308 42.192 85.081 41.932 84.792 41.743 84.502 41.555 84.172 41.46 83.8 41.46 83.429 41.46 83.1 41.555 82.813 41.743 82.526 41.932 82.301 42.192 82.138 42.524 81.975 42.856 81.893 43.241 81.893 43.68 81.893 44.119 81.975 44.505 82.138 44.836 82.301 45.168 82.526 45.429 82.813 45.617 83.1 45.805 83.429 45.899 83.8 45.899zM83.8 46.642C83.26 46.642 82.782 46.515 82.366 46.262 81.949 46.009 81.622 45.66 81.382 45.216 81.143 44.772 81.024 44.259 81.024 43.68 81.024 43.101 81.143 42.589 81.382 42.144 81.622 41.7 81.949 41.351 82.366 41.098 82.782 40.844 83.26 40.718 83.8 40.718 84.34 40.718 84.82 40.844 85.239 41.098 85.658 41.351 85.987 41.7 86.227 42.144 86.466 42.589 86.585 43.101 86.585 43.68 86.585 44.259 86.466 44.772 86.227 45.216 85.987 45.66 85.658 46.009 85.239 46.262 84.82 46.515 84.34 46.642 83.8 46.642zM88.636 45.832L89.8 45.832C90.205 45.832 90.553 45.743 90.842 45.566 91.132 45.389 91.354 45.14 91.509 44.819 91.664 44.499 91.741 44.119 91.741 43.68 91.741 43.241 91.664 42.862 91.509 42.541 91.354 42.22 91.132 41.971 90.842 41.794 90.553 41.617 90.205 41.528 89.8 41.528L88.636 41.528 88.636 45.832zM87.783 46.549L87.783 40.811 89.8 40.811C90.363 40.811 90.855 40.931 91.277 41.17 91.699 41.409 92.027 41.743 92.26 42.174 92.494 42.604 92.611 43.106 92.611 43.68 92.611 44.254 92.494 44.756 92.26 45.186 92.027 45.617 91.699 45.952 91.277 46.191 90.855 46.43 90.363 46.549 89.8 46.549L87.783 46.549zM94.788 44.389L96.881 44.389 95.834 41.697 94.788 44.389zM97.716 46.549L97.159 45.106 94.509 45.106 93.952 46.549 93.092 46.549 95.387 40.811 96.307 40.811 98.594 46.549 97.716 46.549z"/>
    <polyline fill="#404040" points="101.21 44.271 101.21 46.549 100.358 46.549 100.358 44.271 98.341 40.811 99.345 40.811 100.788 43.46 102.231 40.811 103.218 40.811 101.21 44.271"/>
    <polyline fill="#404040" points="110.037 46.549 106.974 42.153 106.974 46.549 106.172 46.549 106.172 40.811 106.965 40.811 110.037 45.208 110.037 40.811 110.83 40.811 110.83 46.549 110.037 46.549"/>
    <polyline fill="#404040" points="112.333 46.549 112.333 40.811 116.012 40.811 116.012 41.528 113.185 41.528 113.185 43.3 115.674 43.3 115.674 44.017 113.185 44.017 113.185 45.832 116.079 45.832 116.079 46.549 112.333 46.549"/>
    <polyline fill="#404040" points="118.611 46.549 118.611 41.528 116.679 41.528 116.679 40.811 121.396 40.811 121.396 41.528 119.464 41.528 119.464 46.549 118.611 46.549"/>
    <polyline fill="#404040" points="126.966 46.549 125.624 41.976 124.282 46.549 123.396 46.549 121.869 40.811 122.712 40.811 123.877 45.351 125.219 40.811 126.029 40.811 127.379 45.368 128.552 40.811 129.379 40.811 127.852 46.549 126.966 46.549"/>
    <path fill="#404040" d="M132.764 45.899C133.135 45.899 133.465 45.805 133.755 45.617 134.045 45.429 134.271 45.168 134.434 44.836 134.598 44.505 134.679 44.119 134.679 43.68 134.679 43.241 134.598 42.856 134.434 42.524 134.271 42.192 134.045 41.932 133.755 41.743 133.465 41.555 133.135 41.46 132.764 41.46 132.392 41.46 132.063 41.555 131.776 41.743 131.489 41.932 131.264 42.192 131.101 42.524 130.938 42.856 130.856 43.241 130.856 43.68 130.856 44.119 130.938 44.505 131.101 44.836 131.264 45.168 131.489 45.429 131.776 45.617 132.063 45.805 132.392 45.899 132.764 45.899zM132.764 46.642C132.224 46.642 131.745 46.515 131.329 46.262 130.913 46.009 130.585 45.66 130.346 45.216 130.107 44.772 129.987 44.259 129.987 43.68 129.987 43.101 130.107 42.589 130.346 42.144 130.585 41.7 130.913 41.351 131.329 41.098 131.745 40.844 132.224 40.718 132.764 40.718 133.304 40.718 133.783 40.844 134.202 41.098 134.621 41.351 134.951 41.7 135.19 42.144 135.429 42.589 135.548 43.101 135.548 43.68 135.548 44.259 135.429 44.772 135.19 45.216 134.951 45.66 134.621 46.009 134.202 46.262 133.783 46.515 133.304 46.642 132.764 46.642zM137.599 43.519L138.772 43.519C139.138 43.519 139.429 43.43 139.645 43.25 139.862 43.07 139.97 42.828 139.97 42.524 139.97 42.22 139.862 41.979 139.645 41.798 139.429 41.618 139.138 41.528 138.772 41.528L137.599 41.528 137.599 43.519zM137.599 44.22L137.599 46.549 136.747 46.549 136.747 40.811 138.772 40.811C139.408 40.811 139.911 40.964 140.283 41.27 140.654 41.577 140.839 41.995 140.839 42.524 140.839 42.924 140.727 43.261 140.502 43.537 140.277 43.812 139.967 44.007 139.574 44.119L140.966 46.549 139.996 46.549 138.688 44.22 137.599 44.22z"/>
    <polyline fill="#404040" points="145.473 46.549 142.899 43.655 142.899 46.549 142.046 46.549 142.046 40.811 142.899 40.811 142.899 43.326 145.304 40.811 146.359 40.811 143.802 43.444 146.544 46.549 145.473 46.549"/>
  </g>
</svg>
