<svg xmlns="http://www.w3.org/2000/svg" xmlns:xlink="http://www.w3.org/1999/xlink" width="720" height="97" viewBox="0 0 720 97">
  <defs>
    <style>
      .cls-1 {
        filter: url(#filter);
      }

      .cls-2, .cls-3 {
        fill: #fff;
        fill-rule: evenodd;
      }

      .cls-3 {
        filter: url(#filter-2);
      }
    </style>
    <filter id="filter" filterUnits="userSpaceOnUse">
      <feFlood result="flood" flood-color="#333"/>
      <feComposite result="composite" operator="in" in2="SourceGraphic"/>
      <feBlend result="blend" in2="SourceGraphic"/>
    </filter>
    <filter id="filter-2" x="369.938" y="81.563" width="348.187" height="15.094" filterUnits="userSpaceOnUse">
      <feFlood result="flood" flood-color="#999"/>
      <feComposite result="composite" operator="in" in2="SourceGraphic"/>
      <feBlend result="blend" in2="SourceGraphic"/>
    </filter>
  </defs>
  <g id="Great_Falls" data-name="Great Falls" class="cls-1">
    <path id="GF_Tribune_logo" data-name="GF Tribune logo" class="cls-2" d="M0.312,35.173c0-19.661,14.214-34.5,34.209-34.5,14.214,0,23.975,7.28,29.47,16.163l-4.169,2.837C55.369,11.922,47.219,5.4,34.521,5.4,17.559,5.4,5.429,18.158,5.429,35.173S17.464,64.945,34.521,64.945c16.11,0,26.06-11.53,27.386-25.045h-25.4V35.173h30.8c0,17.486-11.466,34.5-32.788,34.5C14.621,69.671.312,54.831,0.312,35.173ZM75.081,21.657h4.832v6.522H80.1c2.653-5.294,6.632-7.657,12.509-7.657a19.8,19.8,0,0,1,5.5.757v5.009a16.9,16.9,0,0,0-6.065-1.134c-8.15,0-12.036,6.617-12.036,17.3v25.9H75.081V21.657ZM99.72,44.908c0-11.437,7.107-24.387,22.932-24.387C138,20.521,145.016,32.715,145.016,45v0.189H104.552c0.1,10.492,6.444,20.036,18.194,20.036,7.867,0,13.646-4.252,16.868-10.68l4.169,2.268c-4.263,8.318-12.507,12.667-21.416,12.667C107.49,69.483,99.72,56.911,99.72,44.908Zm40.368-3.877c-1.327-9.735-8.149-16.35-17.531-16.35-9.855,0-16.3,7.089-17.72,16.35h35.251ZM148.523,45c0-12.288,8.244-24.481,23.6-24.481,8.813,0,14.972,4.348,18.478,10.4h0.189V21.657h4.833V68.348h-4.833V59.085H190.6c-3.506,6.049-9.665,10.4-18.478,10.4C156.767,69.483,148.523,57.29,148.523,45Zm42.263,0c0-11.626-7.864-20.226-18.667-20.226S153.451,33.376,153.451,45s7.865,20.225,18.668,20.225S190.786,56.628,190.786,45Zm17.437,11.813V26.1h-6.917V21.657h6.917V8.992h4.929V21.657h12.223V26.1H213.152V56.345c0,5.481,1.61,8.317,5.874,8.317a11.962,11.962,0,0,0,5.592-1.04v4.631a22.05,22.05,0,0,1-6.065.757C211.729,69.009,208.223,64.851,208.223,56.816ZM241.3,2h30.418V6.722h-25.3V32.149h24.355v4.726H246.413V68.348H241.3V2ZM273.8,45c0-12.288,8.244-24.481,23.6-24.481,8.813,0,14.972,4.348,18.478,10.4h0.189V21.657H320.9V68.348h-4.833V59.085h-0.189c-3.506,6.049-9.665,10.4-18.478,10.4C282.046,69.483,273.8,57.29,273.8,45Zm42.263,0c0-11.626-7.864-20.226-18.667-20.226S278.73,33.376,278.73,45,286.6,65.228,297.4,65.228,316.065,56.628,316.065,45ZM332.935,2h4.926V68.348h-4.926V2ZM349.9,2h4.927V68.348H349.9V2Zm11.275,58.034,3.507-2.646c2.464,3.874,6.633,7.843,13.646,7.843,6.538,0,11.75-3.591,11.75-9.261,0-6.238-6.065-8.507-12.6-10.871-6.728-2.457-12.982-5.575-12.982-12.664,0-6.994,5.969-11.911,14.4-11.911,6.728,0,11.656,3.12,14.4,7.089l-3.506,2.931a12.648,12.648,0,0,0-10.8-5.765c-5.591,0-9.572,3.117-9.572,7.56,0,5.294,5.5,7.184,10.33,8.886C386.664,43.679,395,46.893,395,55.777c0,7.94-6.824,13.706-16.49,13.706C369.892,69.483,364.016,65.04,361.173,60.031Zm60.934-46.125H404.482V2h49.655V13.906H436.512V68.348h-14.4V13.906Zm33.831,7.751h12.887V28.84h0.19c2.559-4.915,6.538-8.318,12.888-8.318a13.984,13.984,0,0,1,4.549.662V33.472a18.043,18.043,0,0,0-5.781-.946c-7.108,0-10.993,4.349-10.993,12.383V68.348h-13.74V21.657ZM488.064,8.9a7.825,7.825,0,0,1,8.148-7.75c4.644,0,8.244,3.308,8.244,7.751s-3.6,7.75-8.244,7.75A7.825,7.825,0,0,1,488.064,8.9Zm1.326,12.76h13.74V68.348H489.39V21.657Zm34.115,39.98h-0.19v6.711H510.428V2h13.74V27.706h0.1c2.463-3.591,7.106-7.184,14.972-7.184,14.024,0,23.6,10.587,23.6,24.1,0,11.248-6.255,24.859-23.6,24.859A18.508,18.508,0,0,1,523.505,61.637ZM549,45c0-7.089-4.455-13.232-12.415-13.232-8.149,0-12.6,6.237-12.6,13.232,0,7.278,4.834,13.232,12.6,13.232C544.162,58.234,549,52.281,549,45Zm17.626,4.158v-27.5h13.741v25.33c0,7.183,1.8,11.531,8.528,11.531,7.012,0,9.667-4.914,9.667-11.624V21.657H612.2V68.348H599.316V62.016h-0.19c-2.843,3.969-6.538,7.467-14.592,7.467C572.214,69.483,566.623,61.448,566.623,49.161Zm52.878-27.5h12.887v6.332h0.19c2.938-4.158,7.3-7.467,15.068-7.467,12.413,0,18.194,7.941,18.194,20.323v27.5H652.194V42.924c0-6.523-1.9-11.436-8.907-11.436s-10.046,4.818-10.046,11.529V68.348H619.5V21.657ZM669.725,45c0-10.869,6.634-24.481,25.112-24.481s24.639,13.612,24.639,24.1a18.225,18.225,0,0,1-.286,3.4H683.371c0.663,7.372,6.918,10.869,13.74,10.869,6.254,0,10.329-2.646,12.7-5.954l7.581,7.751c-3.885,5.2-10.993,8.791-20.943,8.791C678.065,69.483,669.725,57.1,669.725,45Zm36.483-5.011c-1.327-6.426-5.875-9.544-11.371-9.544s-10.14,3.118-11.466,9.544h22.837Z"/>
    <path id="USAT_Network" data-name="USAT Network" class="cls-3" d="M369.952,81.845H374.2c2.987,0,4.985,1.761,4.985,4.474s-2.04,4.47-4.985,4.47h-2.166v5.591h-2.081V81.845Zm4.037,7.229c2,0,3.07-1.1,3.07-2.754,0-1.638-1.071-2.755-3.07-2.755h-1.956v5.509h1.956Zm11.135-7.229h1.851l6.056,14.535H390.8l-1.512-3.808h-6.539l-1.514,3.808h-2.187S384.387,83.628,385.124,81.845Zm3.469,9.007-1.409-3.58c-0.209-.54-1.115-2.777-1.136-2.963h-0.041c-0.021.186-.9,2.36-1.136,2.963l-1.429,3.58h5.151Zm6.55-9.007h4.268c2.754,0,4.9,1.411,4.9,4.307a4.056,4.056,0,0,1-3.742,4.1l4.522,6.126h-2.441l-4.268-5.922h-1.156v5.922h-2.082V81.845Zm4.038,6.938c1.933,0,3.028-1.017,3.028-2.609s-1.1-2.61-3.028-2.61h-1.956v5.219h1.956Zm10.9-5.178h-4.205V81.845h10.491v1.761h-4.205V96.379h-2.081V83.605Zm11.683,5.509a7.762,7.762,0,1,1,7.759,7.555A7.429,7.429,0,0,1,421.766,89.114Zm13.373,0a5.626,5.626,0,1,0-5.635,5.713A5.455,5.455,0,0,0,435.139,89.114Zm5.141-7.27h7.443v1.761H442.36v4.679h5.194v1.761H442.36v6.335h-2.08V81.845Zm16.856,1.761h-4.205V81.845h10.491v1.761h-4.205V96.379h-2.081V83.605Zm8.471-1.761h2.081v5.962h7.738V81.845h2.083V96.379h-2.083V89.568h-7.738v6.812h-2.081V81.845Zm15.737,0h8.032v1.742h-5.952v4.22h5.782V89.55h-5.782v5.091H489.5v1.738h-8.157V81.845Zm15.135,9.525V81.845h2.1v8.9c0,2.528,1.1,4.08,3.554,4.08,2.481,0,3.576-1.552,3.576-4.08v-8.9h2.1v9.525c0,3.19-2.081,5.3-5.678,5.3C498.518,96.67,496.479,94.56,496.479,91.369Zm13.5,2.382,1.411-1.18a4.279,4.279,0,0,0,3.7,2.3c1.618,0,2.881-.867,2.881-2.464,0-1.716-1.451-2.3-3.26-3-1.851-.726-3.722-1.638-3.722-3.957,0-2.3,1.809-3.889,4.459-3.889a4.968,4.968,0,0,1,4.332,2.192l-1.41,1.18a3.364,3.364,0,0,0-2.922-1.575c-1.431,0-2.376.726-2.376,1.947,0,1.511,1.47,2.01,2.754,2.5,2.081,0.808,4.226,1.783,4.226,4.451,0,2.528-1.892,4.411-4.92,4.411A5.742,5.742,0,0,1,509.984,93.752Zm17.26-11.907H529.1l6.055,14.535h-2.23l-1.512-3.808h-6.54l-1.514,3.808h-2.186S526.507,83.628,527.244,81.845Zm3.468,9.007-1.407-3.58c-0.21-.54-1.116-2.777-1.136-2.963h-0.042c-0.021.186-.9,2.36-1.136,2.963l-1.429,3.58h5.15Zm13.225-7.247h-4.205V81.845h10.492v1.761h-4.206V96.379h-2.081V83.605Zm7.068,5.509a7.761,7.761,0,1,1,7.759,7.555A7.429,7.429,0,0,1,551.005,89.114Zm13.372,0a5.626,5.626,0,1,0-5.634,5.713A5.454,5.454,0,0,0,564.377,89.114Zm5.141-7.27H573.7c4.71,0,7.821,2.65,7.821,7.27,0,4.6-3.134,7.265-7.821,7.265h-4.185V81.845ZM571.6,94.618h1.935c3.448,0,5.844-1.8,5.844-5.5s-2.4-5.509-5.844-5.509H571.6V94.618Zm16.688-12.773h1.851l6.055,14.535h-2.23l-1.512-3.808h-6.54L584.4,96.379H582.21S587.55,83.628,588.287,81.845Zm3.468,9.007-1.408-3.58c-0.209-.54-1.115-2.777-1.136-2.963H589.17c-0.021.186-.9,2.36-1.136,2.963l-1.429,3.58h5.15Zm8.6-.395-5.026-8.612h2.334l2.733,4.846a21.392,21.392,0,0,1,1.051,2.069h0.021a21.642,21.642,0,0,1,1.053-2.069l2.754-4.846h2.269l-5.023,8.612v5.922h-2.166V90.457Zm13.3-8.612h1.6l8.369,9.42c0.252,0.272,1.346,1.615,1.452,1.824l0.042-.022c-0.042-.2-0.042-1.883-0.042-2.255V81.845h2.019V96.379h-1.62L617.1,86.959c-0.252-.268-1.346-1.615-1.45-1.82l-0.021.018c0.021,0.209.042,1.888,0.042,2.26v8.962h-2.019V81.845Zm17.271,0h8.031v1.742h-5.95v4.22h5.784V89.55h-5.784v5.091h6.077v1.738h-8.158V81.845Zm14.543,1.761h-4.205V81.845h10.492v1.761h-4.206V96.379H645.47V83.605Zm8.022-1.761H655.7l3.028,8.635c0.107,0.331.821,2.482,0.841,2.814h0.044a28.678,28.678,0,0,1,.883-2.814l3.155-8.635h1.661l3.152,8.635a29.247,29.247,0,0,1,.885,2.814h0.042c0.041-.331.755-2.482,0.862-2.814l3.007-8.635h2.122l-5.194,14.535h-1.6l-3.406-9.067a23.949,23.949,0,0,1-.716-2.359h-0.042a24.072,24.072,0,0,1-.735,2.359l-3.385,9.067h-1.6Zm22.82,7.27a7.762,7.762,0,1,1,7.759,7.555A7.429,7.429,0,0,1,676.312,89.114Zm13.373,0a5.626,5.626,0,1,0-5.635,5.713A5.455,5.455,0,0,0,689.685,89.114Zm5.14-7.27h4.268c2.756,0,4.9,1.411,4.9,4.307a4.056,4.056,0,0,1-3.742,4.1l4.521,6.126h-2.44l-4.268-5.922h-1.157v5.922h-2.081V81.845Zm4.038,6.938c1.933,0,3.028-1.017,3.028-2.609s-1.095-2.61-3.028-2.61h-1.957v5.219h1.957Zm8.266-6.938h2.08V88.6l6.1-6.752h2.523L711.5,88.783l6.623,7.6h-2.606l-6.31-7.347v7.347h-2.08V81.845Z"/>
  </g>
</svg>
