<?xml version="1.0" encoding="UTF-8" standalone="no"?>
<svg width="715px" height="102px" viewBox="0 0 715 102" version="1.1" xmlns="http://www.w3.org/2000/svg" xmlns:xlink="http://www.w3.org/1999/xlink" xmlns:sketch="http://www.bohemiancoding.com/sketch/ns">
    <!-- Generator: Sketch 3.4.2 (15857) - http://www.bohemiancoding.com/sketch -->
    <title>GreenBay</title>
    <desc>Created with Sketch.</desc>
    <defs></defs>
    <g id="Page-1" stroke="none" stroke-width="1" fill="none" fill-rule="evenodd" sketch:type="MSPage">
        <g id="GreenBay" sketch:type="MSLayerGroup" fill="#1A1918">
            <path d="M27.765,32.202 C27.765,29.915 29.002,29.483 31.175,29.483 L32.109,29.483 C41.23,29.483 44.121,36.762 44.121,45.897 C44.121,56.44 39.159,62.108 31.691,62.108 C30.138,62.108 28.901,61.878 27.765,61.562 L27.765,32.202 L27.765,32.202 Z M36.972,67.099 C52.724,67.099 63.183,58.181 63.183,45.897 C63.183,29.368 50.033,24.477 35.734,24.477 L0,24.477 L0,29.483 C4.662,29.583 9.323,29.583 9.323,33.282 L9.323,90.705 C9.323,94.403 4.662,94.403 0,94.503 L0,99.51 L38.425,99.51 L38.425,94.503 C30.354,94.403 27.765,94.403 27.765,90.705 L27.765,66.553 C30.455,66.999 33.361,67.099 36.972,67.099 L36.972,67.099 Z M91.119,65.703 C89.047,65.703 88.098,65.518 88.098,64.61 L88.098,43.409 C88.012,41.68 89.306,41.134 91.551,41.134 C98.023,41.134 103.808,43.494 103.808,53.016 C103.808,61.346 99.233,65.703 91.119,65.703 L91.119,65.703 Z M126.249,95.337 C124.004,95.337 122.711,92.979 121.071,89.899 L113.646,75.946 C110.454,69.875 108.037,68.698 106.225,67.963 C105.103,67.516 104.583,67.431 104.583,66.883 C104.583,66.336 106.482,65.978 108.294,65.159 C115.804,61.993 119.689,58.267 119.689,51.018 C119.689,40.141 108.467,36.977 95.953,36.977 L64.967,36.977 L64.967,41.134 C68.851,41.237 72.733,41.237 72.733,44.313 L72.733,92.172 C72.733,95.25 68.851,95.25 64.967,95.337 L64.967,99.51 L95.435,99.51 L95.435,95.337 C91.119,95.25 88.098,95.25 88.098,92.172 L88.098,71.228 C88.098,70.323 88.357,69.516 90.86,69.516 C93.362,69.516 94.141,69.963 94.917,71.688 L108.554,99.51 L127.284,99.51 L127.284,95.337 L126.249,95.337 L126.249,95.337 Z M129.759,99.51 L129.759,95.337 C133.643,95.25 137.528,95.25 137.528,92.172 L137.528,44.313 C137.528,41.237 133.643,41.237 129.759,41.134 L129.759,36.977 L182.581,36.977 C182.409,41.134 182.669,49.306 183.185,53.923 L178.786,53.923 C175.246,43.954 172.568,41.134 163.334,41.134 L156.43,41.134 C153.582,41.134 152.89,41.782 152.89,43.766 L152.89,62.353 C152.89,63.704 153.754,64.338 156.43,64.338 L159.019,64.338 C166.959,64.338 167.477,60.266 168.081,55.547 L172.312,55.547 C171.706,59.993 171.706,73.039 172.312,78.478 L167.909,78.478 C167.305,72.133 166.873,68.51 159.019,68.51 L156.43,68.51 C153.754,68.51 152.89,69.243 152.89,70.507 L152.89,92.705 C152.89,95.064 154.961,95.337 158.069,95.337 L163.506,95.337 C174.036,95.337 178.352,85.282 181.115,79.112 L185.777,79.658 C184.653,85.008 183.445,93.252 183.185,99.51 L129.759,99.51 L129.759,99.51 Z M187.531,80.836 L192.794,80.203 C197.113,91.625 202.896,96.79 210.491,96.79 C216.36,96.79 222.315,93.987 222.315,85.828 C222.315,80.651 219.466,78.305 212.992,76.493 L202.465,73.4 C197.198,71.86 188.136,67.603 188.136,56.008 C188.136,46.125 193.917,35.525 211.354,35.525 C214.807,35.525 217.828,35.797 220.417,36.071 C223.008,36.432 225.163,36.703 226.716,36.703 L228.963,36.703 C228.963,42.775 229.481,48.758 230.171,54.743 L225.249,55.276 C223.352,47.305 218.432,40.229 209.285,40.229 C203.586,40.229 197.285,42.775 197.285,49.938 C197.285,54.83 200.478,57.362 205.656,58.815 L217.137,62.079 C227.407,65.071 232.5,70.048 232.5,80.836 C232.5,95.25 221.969,100.961 209.108,100.961 C206.521,100.961 203.154,100.602 198.578,99.695 C195.3,99.047 191.762,98.517 189.343,98.517 C189.343,93.711 188.565,85.555 187.531,80.836 L187.531,80.836 Z M234.516,80.836 L239.782,80.203 C244.097,91.625 249.877,96.79 257.474,96.79 C263.343,96.79 269.3,93.987 269.3,85.828 C269.3,80.651 266.45,78.305 259.977,76.493 L249.448,73.4 C244.18,71.86 235.12,67.603 235.12,56.008 C235.12,46.125 240.899,35.525 258.339,35.525 C261.788,35.525 264.812,35.797 267.399,36.071 C269.989,36.432 272.147,36.703 273.687,36.703 L275.93,36.703 C275.93,42.775 276.448,48.758 277.138,54.743 L272.235,55.276 C270.335,47.305 265.415,40.229 256.265,40.229 C250.571,40.229 244.269,42.775 244.269,49.938 C244.269,54.83 247.461,57.362 252.64,58.815 L264.122,62.079 C274.378,65.071 279.47,70.048 279.47,80.836 C279.47,95.25 268.953,100.961 256.095,100.961 C253.505,100.961 250.138,100.602 245.563,99.695 C242.282,99.047 238.745,98.517 236.326,98.517 C236.326,93.711 235.55,85.555 234.516,80.836 L234.516,80.836 Z M282.618,76.278 L282.618,65.576 L303.049,65.545 L303.049,76.235 L282.618,76.278 L282.618,76.278 Z M344.405,70.58 L344.405,65.576 L378.988,65.576 L378.988,70.58 C374.128,70.797 371.954,70.911 371.954,74.393 L371.954,90.259 C371.954,91.684 372.354,92.979 372.674,93.739 C364.289,97.653 353.208,101.25 342.222,101.25 C317.894,101.25 306.503,83.627 306.503,62.97 C306.503,40.574 319.029,22.737 347.397,22.737 C356.101,22.737 364.803,24.377 370.185,25.571 C369.667,32.202 369.984,40.358 370.602,47.205 L365.006,47.967 C363.352,40.459 359.426,27.743 346.262,27.743 C329.388,27.743 325.547,47.752 325.547,63.849 C325.547,80.694 330.423,96.243 343.37,96.243 C350.823,96.243 354.544,94.186 354.544,88.965 L354.544,74.825 C354.544,71.127 352.176,71.012 344.405,70.58 L344.405,70.58 Z" id="Fill-1" sketch:type="MSShapeGroup"></path>
            <path d="M406.619,75.211 L394.277,75.211 C393.328,75.211 392.893,74.953 392.893,74.133 C392.893,73.674 393.241,72.679 393.672,71.328 L400.231,51.29 L407.829,70.953 C408.258,72.049 408.604,73.141 408.604,73.674 C408.604,74.853 407.568,75.211 406.619,75.211 L406.619,75.211 Z M407.568,95.337 L406.878,95.337 L406.878,99.51 L438.887,99.51 L438.858,95.281 C436.11,94.904 432.815,93.567 430.959,88.806 L409.813,34.791 L401.527,34.791 L383.744,86.461 C380.899,94.344 378.741,95.064 374.339,95.337 L374.339,99.51 L394.449,99.51 L394.449,95.337 L393.328,95.337 C389.098,95.337 387.458,93.987 387.458,91.985 C387.458,91.164 387.63,89.899 388.15,88.174 L390.219,81.658 C390.735,80.118 391.6,79.383 393.328,79.383 L408.604,79.383 C410.416,79.383 411.28,79.844 411.884,81.743 L413.524,86.361 C414.217,88.361 414.562,90.36 414.562,91.164 C414.562,93.165 413.179,95.337 407.568,95.337 L407.568,95.337 Z M441.075,95.092 L473.416,40.948 L463.834,40.948 C457.966,40.948 455.29,42.228 451.752,45.854 C449.852,47.752 448.04,51.563 446.832,56.267 L442.26,55.088 C443.551,49.29 444.155,42.228 444.417,36.244 C445.104,36.416 445.797,36.604 446.574,36.69 C447.263,36.79 448.04,36.79 449.076,36.79 L489.47,36.79 L490.938,40.861 L458.224,95.151 L468.495,95.151 C481.099,95.151 484.465,88.174 487.658,79.112 L492.402,79.931 C491.113,86.276 490.506,92.791 490.334,99.321 L442.688,99.321 L441.075,95.092 L441.075,95.092 Z M493.081,99.51 L493.081,95.337 C496.965,95.25 500.851,95.25 500.851,92.172 L500.851,44.313 C500.851,41.237 496.965,41.237 493.081,41.134 L493.081,36.977 L545.906,36.977 C545.731,41.134 545.99,49.306 546.509,53.923 L542.106,53.923 C538.569,43.954 535.894,41.134 526.656,41.134 L519.75,41.134 C516.904,41.134 516.214,41.782 516.214,43.766 L516.214,62.353 C516.214,63.704 517.077,64.338 519.75,64.338 L522.343,64.338 C530.282,64.338 530.802,60.266 531.404,55.547 L535.634,55.547 C535.029,59.993 535.029,73.039 535.634,78.478 L531.231,78.478 C530.625,72.133 530.195,68.51 522.343,68.51 L519.75,68.51 C517.077,68.51 516.214,69.243 516.214,70.507 L516.214,92.705 C516.214,95.064 518.285,95.337 521.392,95.337 L526.83,95.337 C537.36,95.337 541.674,85.282 544.438,79.112 L549.097,79.658 C547.976,85.008 546.77,93.252 546.509,99.51 L493.081,99.51 L493.081,99.51 Z" id="Fill-2" sketch:type="MSShapeGroup"></path>
            <path d="M550.164,36.877 L600.396,36.877 C600.053,41.739 601.606,55.706 601.606,55.706 L597.118,56.914 C595.045,48.657 592.199,41.049 582.962,41.049 L582.962,91.713 C582.962,94.344 584.085,95.25 589.437,95.25 L592.284,95.25 L592.284,99.409 L558.275,99.409 L558.275,95.25 L561.124,95.25 C566.478,95.25 567.599,94.344 567.599,91.713 L567.599,41.049 C558.361,41.049 555.516,48.657 553.442,56.914 L548.351,55.547 C549.3,51.651 550.595,42.947 550.164,36.877 M605.934,37.005 L656.17,37.005 C655.824,41.854 657.391,55.836 657.391,55.836 L652.892,57.03 C650.819,48.787 647.972,41.178 638.735,41.178 L638.735,91.84 C638.735,94.459 639.857,95.366 645.211,95.366 L648.057,95.366 L648.057,99.536 L614.05,99.536 L614.05,95.366 L616.897,95.366 C622.247,95.366 623.372,94.459 623.372,91.84 L623.372,41.178 C614.135,41.178 611.287,48.787 609.215,57.03 L604.124,55.678 C605.073,51.78 606.367,43.077 605.934,37.005 M658.859,99.51 L658.859,95.337 C662.746,95.25 666.63,95.25 666.63,92.172 L666.63,44.313 C666.63,41.237 662.746,41.237 658.859,41.134 L658.859,36.977 L711.685,36.977 C711.513,41.134 711.771,49.306 712.288,53.923 L707.886,53.923 C704.348,43.954 701.671,41.134 692.435,41.134 L685.531,41.134 C682.684,41.134 681.993,41.782 681.993,43.766 L681.993,62.353 C681.993,63.704 682.856,64.338 685.531,64.338 L688.12,64.338 C696.062,64.338 696.58,60.266 697.186,55.547 L701.413,55.547 C700.809,59.993 700.809,73.039 701.413,78.478 L697.012,78.478 C696.406,72.133 695.975,68.51 688.12,68.51 L685.531,68.51 C682.856,68.51 681.993,69.243 681.993,70.507 L681.993,92.705 C681.993,95.064 684.064,95.337 687.173,95.337 L692.609,95.337 C703.138,95.337 707.455,85.282 710.216,79.112 L714.879,79.658 C713.756,85.008 712.549,93.252 712.288,99.51 L658.859,99.51" id="Fill-3" sketch:type="MSShapeGroup"></path>
            <path d="M78.586,17.845 L78.586,15.997 L91.353,15.997 L91.353,17.845 C89.559,17.926 88.756,17.967 88.756,19.252 L88.756,25.112 C88.756,25.637 88.91,26.116 89.022,26.395 C85.926,27.84 81.836,29.168 77.784,29.168 C68.797,29.168 64.591,22.662 64.591,15.036 C64.591,6.768 69.216,0.182 79.696,0.182 C82.903,0.182 86.117,0.788 88.103,1.229 C87.912,3.676 88.029,6.688 88.257,9.215 L86.191,9.496 C85.58,6.725 84.131,2.03 79.27,2.03 C73.04,2.03 71.628,9.417 71.628,15.361 C71.628,21.579 73.423,27.32 78.204,27.32 C80.955,27.32 82.33,26.561 82.33,24.633 L82.33,19.413 C82.33,18.047 81.454,18.005 78.586,17.845" id="Fill-4" sketch:type="MSShapeGroup"></path>
            <path d="M101.46,13.599 C100.553,13.599 100.137,13.518 100.137,13.119 L100.137,3.834 C100.1,3.077 100.666,2.837 101.649,2.837 C104.485,2.837 107.019,3.872 107.019,8.041 C107.019,11.69 105.014,13.599 101.46,13.599 L101.46,13.599 Z M116.848,26.579 C115.864,26.579 115.297,25.545 114.579,24.197 L111.328,18.084 C109.929,15.426 108.87,14.911 108.076,14.588 C107.585,14.393 107.358,14.356 107.358,14.116 C107.358,13.876 108.19,13.719 108.984,13.36 C112.273,11.974 113.974,10.342 113.974,7.166 C113.974,2.403 109.059,1.016 103.577,1.016 L90.005,1.016 L90.005,2.837 C91.706,2.882 93.408,2.882 93.408,4.23 L93.408,25.192 C93.408,26.541 91.706,26.541 90.005,26.579 L90.005,28.407 L103.351,28.407 L103.351,26.579 C101.46,26.541 100.137,26.541 100.137,25.192 L100.137,16.018 C100.137,15.622 100.25,15.269 101.347,15.269 C102.443,15.269 102.783,15.465 103.124,16.221 L109.097,28.407 L117.301,28.407 L117.301,26.579 L116.848,26.579 L116.848,26.579 Z M118.479,28.407 L118.479,26.579 C120.18,26.541 121.882,26.541 121.882,25.192 L121.882,4.23 C121.882,2.882 120.18,2.882 118.479,2.837 L118.479,1.016 L141.617,1.016 C141.541,2.837 141.655,6.416 141.881,8.439 L139.953,8.439 C138.403,4.073 137.231,2.837 133.186,2.837 L130.162,2.837 C128.914,2.837 128.611,3.122 128.611,3.991 L128.611,12.131 C128.611,12.723 128.989,13 130.162,13 L131.296,13 C134.774,13 135,11.217 135.265,9.151 L137.118,9.151 C136.853,11.098 136.84,16.819 137.105,19.2 L135.19,19.195 C134.925,16.415 134.736,14.828 131.296,14.828 L130.162,14.828 C128.989,14.828 128.611,15.149 128.611,15.703 L128.611,25.426 C128.611,26.459 129.519,26.579 130.88,26.579 L133.261,26.579 C137.874,26.579 139.764,22.174 140.974,19.472 L143.015,19.711 C142.524,22.054 141.995,25.666 141.881,28.407 L118.479,28.407 L118.479,28.407 Z M143.041,28.407 L143.041,26.579 C144.742,26.541 146.444,26.541 146.444,25.192 L146.444,4.23 C146.444,2.882 144.742,2.882 143.041,2.837 L143.041,1.016 L166.178,1.016 C166.102,2.837 166.216,6.416 166.442,8.439 L164.514,8.439 C162.964,4.073 161.792,2.837 157.747,2.837 L154.723,2.837 C153.476,2.837 153.172,3.122 153.172,3.991 L153.172,12.131 C153.172,12.723 153.551,13 154.723,13 L155.856,13 C159.334,13 159.562,11.217 159.826,9.151 L161.679,9.151 C161.414,11.098 161.414,16.813 161.679,19.195 L159.751,19.195 C159.486,16.415 159.297,14.828 155.856,14.828 L154.723,14.828 C153.551,14.828 153.172,15.149 153.172,15.703 L153.172,25.426 C153.172,26.459 154.081,26.579 155.441,26.579 L157.823,26.579 C162.436,26.579 164.325,22.174 165.535,19.472 L167.577,19.711 C167.085,22.054 166.556,25.666 166.442,28.407 L143.041,28.407 L143.041,28.407 Z M167.829,28.407 L167.829,26.579 C170.438,26.579 171.193,26.301 171.193,23.485 L171.193,4.747 C171.193,2.919 169.794,2.837 167.905,2.837 L167.905,1.016 L177.507,1.016 L189.983,19.434 L190.058,19.434 L190.058,5.975 C190.058,2.919 189.34,2.837 186.505,2.837 L186.505,1.016 L195.2,1.016 L195.2,2.837 C193.347,2.837 192.1,2.837 192.1,4.507 L192.1,28.885 L188.584,28.885 L173.31,6.53 L173.235,6.53 L173.235,23.284 C173.235,26.579 174.028,26.579 177.167,26.579 L177.167,28.407 L167.829,28.407 L167.829,28.407 Z M215.7,26.692 C214.886,26.692 214.303,26.411 214.303,25.51 L214.303,14.386 C214.303,13.934 214.573,13.647 215.349,13.647 C218.53,13.647 222.337,14.666 222.337,20.414 C222.337,24.371 220.202,26.692 215.7,26.692 L215.7,26.692 Z M214.303,3.014 C214.303,2.157 214.767,1.995 215.58,1.995 C218.843,1.995 221.135,2.847 221.135,6.842 C221.135,9.657 219.463,11.938 215.311,11.938 C214.61,11.938 214.303,11.653 214.303,11.124 L214.303,3.014 L214.303,3.014 Z M220.358,13.2 C219.27,13.038 218.88,13 218.88,12.795 C218.88,12.59 219.231,12.59 219.814,12.51 C222.181,12.18 228.042,11.286 228.042,6.153 C228.042,0.809 222.569,0.28 217.252,0.28 L203.896,0.28 L203.896,2.157 C205.643,2.194 207.39,2.194 207.39,3.58 L207.39,25.106 C207.39,26.493 205.643,26.493 203.896,26.53 L203.896,28.407 L216.826,28.407 C219.5,28.407 229.481,28.407 229.481,20.54 C229.481,14.547 222.645,13.529 220.358,13.2 L220.358,13.2 Z" id="Fill-5" sketch:type="MSShapeGroup"></path>
            <path d="M241.907,17.764 L236.5,17.764 C236.084,17.764 235.896,17.651 235.896,17.291 C235.896,17.09 236.046,16.655 236.235,16.063 L239.109,7.286 L242.436,15.899 C242.624,16.378 242.776,16.857 242.776,17.09 C242.776,17.606 242.323,17.764 241.907,17.764 L241.907,17.764 Z M252.567,23.718 L243.306,0.059 L239.675,0.059 L231.888,22.691 C230.641,26.143 229.695,26.459 227.768,26.579 L227.768,28.407 L236.575,28.407 L236.575,26.579 L236.084,26.579 C234.231,26.579 233.514,25.988 233.514,25.111 C233.514,24.75 233.589,24.197 233.816,23.441 L234.723,20.587 C234.95,19.913 235.328,19.59 236.084,19.59 L242.776,19.59 C243.571,19.59 243.948,19.793 244.213,20.624 L244.931,22.647 C245.233,23.523 245.385,24.399 245.385,24.75 C245.385,25.627 244.78,26.579 242.323,26.579 L242.021,26.579 L242.021,28.407 L256.272,28.407 L256.272,26.579 C255.024,26.459 253.437,25.942 252.567,23.718 L252.567,23.718 Z" id="Fill-6" sketch:type="MSShapeGroup"></path>
            <path d="M257.627,28.407 L257.627,26.579 C260.766,26.459 261.71,26.421 261.71,25.192 L261.71,18.401 L254.338,5.699 C253.582,4.35 252.6,2.837 251.276,2.837 L251.276,1.016 L265.491,1.016 L265.491,2.837 L265.036,2.837 C263.525,2.837 262.202,3.354 262.202,4.545 C262.202,5.181 262.655,6.057 262.958,6.612 L267.76,15.824 L272.259,6.334 C272.561,5.737 272.788,5.144 272.788,4.469 C272.788,3.317 271.39,2.837 269.574,2.837 L269.574,1.016 L278.42,1.016 L278.42,2.837 C277.097,2.837 275.888,3.834 274.867,5.78 L268.44,18.401 L268.44,25.192 C268.44,26.421 269.385,26.459 272.523,26.579 L272.523,28.407 L257.627,28.407" id="Fill-7" sketch:type="MSShapeGroup"></path>
        </g>
    </g>
</svg>