<svg xmlns="http://www.w3.org/2000/svg" width="355" height="47" viewBox="0 0 355 47">
  <g fill="none" fill-rule="evenodd">
    <path fill="#FFFFFF" d="M2.135 43.642L3.293 43.642C3.673 43.642 3.974 43.551 4.196 43.367 4.417 43.183 4.528 42.934 4.528 42.617 4.528 42.3 4.417 42.05 4.196 41.866 3.974 41.684 3.673 41.591 3.293 41.591L2.135 41.591 2.135 43.642zM1.276 46.552L1.276 40.882 3.293 40.882C3.94 40.882 4.454 41.038 4.834 41.35 5.214 41.661 5.404 42.083 5.404 42.617 5.404 43.145 5.214 43.564 4.834 43.872 4.454 44.18 3.94 44.334 3.293 44.334L2.135 44.334 2.135 46.552 1.276 46.552zM7.141 44.418L9.252 44.418 8.197 41.758 7.141 44.418zM10.095 46.552L9.533 45.127 6.86 45.127 6.298 46.552 5.43 46.552 7.746 40.882 8.674 40.882 10.98 46.552 10.095 46.552zM12.802 43.559L13.986 43.559C14.354 43.559 14.648 43.47 14.867 43.292 15.085 43.114 15.195 42.875 15.195 42.575 15.195 42.276 15.085 42.036 14.867 41.859 14.648 41.681 14.354 41.591 13.986 41.591L12.802 41.591 12.802 43.559zM12.802 44.251L12.802 46.552 11.943 46.552 11.943 40.882 13.986 40.882C14.627 40.882 15.135 41.034 15.51 41.337 15.884 41.64 16.072 42.053 16.072 42.575 16.072 42.97 15.958 43.303 15.731 43.575 15.504 43.848 15.192 44.04 14.795 44.151L16.199 46.552 15.22 46.552 13.9 44.251 12.802 44.251z"/>
    <polyline fill="#FFFFFF" points="18.54 46.552 18.54 41.591 16.591 41.591 16.591 40.882 21.349 40.882 21.349 41.591 19.4 41.591 19.4 46.552 18.54 46.552"/>
    <path fill="#FFFFFF" d="M26.874,45.91 C27.249,45.91 27.582,45.817 27.874,45.63 C28.167,45.445 28.395,45.187 28.56,44.859 C28.724,44.532 28.807,44.151 28.807,43.717 C28.807,43.284 28.724,42.904 28.56,42.575 C28.395,42.247 28.167,41.991 27.874,41.804 C27.582,41.617 27.249,41.525 26.874,41.525 C26.499,41.525 26.167,41.617 25.878,41.804 C25.589,41.991 25.362,42.247 25.197,42.575 C25.033,42.904 24.95,43.284 24.95,43.717 C24.95,44.151 25.033,44.532 25.197,44.859 C25.362,45.187 25.589,45.445 25.878,45.63 C26.167,45.817 26.499,45.91 26.874,45.91 Z M26.874,46.643 C26.329,46.643 25.847,46.519 25.427,46.268 C25.007,46.018 24.676,45.674 24.435,45.235 C24.194,44.795 24.073,44.29 24.073,43.717 C24.073,43.145 24.194,42.639 24.435,42.2 C24.676,41.761 25.007,41.416 25.427,41.166 C25.847,40.917 26.329,40.791 26.874,40.791 C27.419,40.791 27.903,40.917 28.325,41.166 C28.748,41.416 29.08,41.761 29.322,42.2 C29.563,42.639 29.683,43.145 29.683,43.717 C29.683,44.29 29.563,44.795 29.322,45.235 C29.08,45.674 28.748,46.018 28.325,46.268 C27.903,46.519 27.419,46.643 26.874,46.643 Z"/>
    <polyline fill="#FFFFFF" points="31.753 46.552 30.893 46.552 30.893 40.882 34.494 40.882 34.494 41.591 31.753 41.591 31.753 43.509 34.077 43.509 34.077 44.218 31.753 44.218 31.753 46.552"/>
    <polyline fill="#FFFFFF" points="38.98 46.552 38.98 41.591 37.03 41.591 37.03 40.882 41.789 40.882 41.789 41.591 39.84 41.591 39.84 46.552 38.98 46.552"/>
    <polyline fill="#FFFFFF" points="42.777 46.552 42.777 40.882 43.637 40.882 43.637 43.309 46.625 43.309 46.625 40.882 47.484 40.882 47.484 46.552 46.625 46.552 46.625 44.034 43.637 44.034 43.637 46.552 42.777 46.552"/>
    <polyline fill="#FFFFFF" points="48.999 46.552 48.999 40.882 52.711 40.882 52.711 41.591 49.859 41.591 49.859 43.342 52.371 43.342 52.371 44.051 49.859 44.051 49.859 45.843 52.779 45.843 52.779 46.552 48.999 46.552"/>
    <path fill="#FFFFFF" d="M58.21 45.91C58.682 45.91 59.052 45.771 59.322 45.493 59.591 45.215 59.726 44.84 59.726 44.367L59.726 40.882 60.586 40.882 60.586 44.376C60.586 45.082 60.374 45.636 59.951 46.039 59.529 46.442 58.948 46.643 58.21 46.643 57.473 46.643 56.894 46.442 56.474 46.039 56.054 45.636 55.844 45.082 55.844 44.376L55.844 40.882 56.704 40.882 56.704 44.367C56.704 44.84 56.838 45.215 57.108 45.493 57.378 45.771 57.745 45.91 58.21 45.91M63.795 46.643C63.358 46.643 62.941 46.568 62.543 46.419 62.146 46.268 61.826 46.069 61.582 45.818L62.067 45.26C62.294 45.465 62.562 45.626 62.871 45.743 63.181 45.86 63.489 45.918 63.795 45.918 64.17 45.918 64.472 45.847 64.702 45.706 64.931 45.564 65.047 45.368 65.047 45.118 65.047 44.89 64.964 44.698 64.8 44.542 64.635 44.387 64.354 44.257 63.957 44.151L63.156 43.943C62.64 43.809 62.264 43.62 62.029 43.376 61.793 43.131 61.675 42.811 61.675 42.416 61.675 42.095 61.763 41.811 61.939 41.567 62.115 41.322 62.358 41.131 62.667 40.995 62.977 40.859 63.327 40.791 63.718 40.791 64.133 40.791 64.522 40.868 64.885 41.021 65.248 41.173 65.568 41.386 65.846 41.658L65.327 42.208C65.084 41.986 64.829 41.815 64.565 41.695 64.301 41.577 64.022 41.516 63.727 41.516 63.369 41.516 63.077 41.59 62.85 41.737 62.623 41.885 62.509 42.089 62.509 42.35 62.509 42.59 62.591 42.775 62.752 42.908 62.914 43.043 63.162 43.153 63.497 43.242L64.391 43.484C64.908 43.623 65.285 43.817 65.523 44.067 65.761 44.318 65.881 44.629 65.881 45.001 65.881 45.329 65.793 45.617 65.617 45.863 65.441 46.111 65.197 46.303 64.885 46.439 64.573 46.575 64.209 46.643 63.795 46.643M68.043 44.418L70.155 44.418 69.099 41.758 68.043 44.418zM70.998 46.552L70.436 45.127 67.762 45.127 67.201 46.552 66.332 46.552 68.648 40.882 69.576 40.882 71.883 46.552 70.998 46.552z"/>
    <polyline fill="#FFFFFF" points="75.884 46.552 75.884 41.591 73.934 41.591 73.934 40.882 78.693 40.882 78.693 41.591 76.743 41.591 76.743 46.552 75.884 46.552"/>
    <path fill="#FFFFFF" d="M81.792 45.91C82.167 45.91 82.5 45.817 82.792 45.63 83.084 45.445 83.313 45.187 83.478 44.859 83.642 44.532 83.724 44.151 83.724 43.717 83.724 43.284 83.642 42.904 83.478 42.575 83.313 42.247 83.084 41.991 82.792 41.804 82.5 41.617 82.167 41.525 81.792 41.525 81.417 41.525 81.085 41.617 80.796 41.804 80.506 41.991 80.279 42.247 80.115 42.575 79.95 42.904 79.868 43.284 79.868 43.717 79.868 44.151 79.95 44.532 80.115 44.859 80.279 45.187 80.506 45.445 80.796 45.63 81.085 45.817 81.417 45.91 81.792 45.91zM81.792 46.643C81.247 46.643 80.764 46.519 80.345 46.268 79.925 46.018 79.594 45.674 79.353 45.235 79.111 44.795 78.991 44.29 78.991 43.717 78.991 43.145 79.111 42.639 79.353 42.2 79.594 41.761 79.925 41.416 80.345 41.166 80.764 40.917 81.247 40.791 81.792 40.791 82.337 40.791 82.82 40.917 83.243 41.166 83.666 41.416 83.998 41.761 84.24 42.2 84.481 42.639 84.601 43.145 84.601 43.717 84.601 44.29 84.481 44.795 84.24 45.235 83.998 45.674 83.666 46.018 83.243 46.268 82.82 46.519 82.337 46.643 81.792 46.643zM86.67 45.843L87.845 45.843C88.253 45.843 88.604 45.756 88.896 45.581 89.188 45.406 89.413 45.16 89.569 44.843 89.725 44.526 89.803 44.151 89.803 43.717 89.803 43.284 89.725 42.908 89.569 42.591 89.413 42.276 89.188 42.03 88.896 41.854 88.604 41.679 88.253 41.591 87.845 41.591L86.67 41.591 86.67 45.843zM85.81 46.552L85.81 40.882 87.845 40.882C88.412 40.882 88.908 41.001 89.334 41.237 89.76 41.474 90.091 41.804 90.326 42.229 90.562 42.655 90.68 43.15 90.68 43.717 90.68 44.284 90.562 44.781 90.326 45.205 90.091 45.63 89.76 45.962 89.334 46.198 88.908 46.434 88.412 46.552 87.845 46.552L85.81 46.552zM92.876 44.418L94.987 44.418 93.932 41.758 92.876 44.418zM95.83 46.552L95.268 45.127 92.595 45.127 92.033 46.552 91.165 46.552 93.481 40.882 94.408 40.882 96.715 46.552 95.83 46.552z"/>
    <polyline fill="#FFFFFF" points="99.354 44.3 99.354 46.552 98.495 46.552 98.495 44.3 96.46 40.882 97.473 40.882 98.929 43.5 100.384 40.882 101.381 40.882 99.354 44.3"/>
    <polyline fill="#FFFFFF" points="108.259 46.552 105.169 42.208 105.169 46.552 104.36 46.552 104.36 40.882 105.16 40.882 108.259 45.226 108.259 40.882 109.059 40.882 109.059 46.552 108.259 46.552"/>
    <polyline fill="#FFFFFF" points="110.575 46.552 110.575 40.882 114.286 40.882 114.286 41.591 111.434 41.591 111.434 43.342 113.946 43.342 113.946 44.051 111.434 44.051 111.434 45.843 114.354 45.843 114.354 46.552 110.575 46.552"/>
    <polyline fill="#FFFFFF" points="116.908 46.552 116.908 41.591 114.959 41.591 114.959 40.882 119.717 40.882 119.717 41.591 117.768 41.591 117.768 46.552 116.908 46.552"/>
    <polyline fill="#FFFFFF" points="125.336 46.552 123.982 42.034 122.629 46.552 121.735 46.552 120.194 40.882 121.045 40.882 122.22 45.368 123.574 40.882 124.391 40.882 125.753 45.384 126.937 40.882 127.771 40.882 126.23 46.552 125.336 46.552"/>
    <path fill="#FFFFFF" d="M131.185 45.91C131.56 45.91 131.893 45.817 132.185 45.63 132.477 45.445 132.706 45.187 132.871 44.859 133.035 44.532 133.117 44.151 133.117 43.717 133.117 43.284 133.035 42.904 132.871 42.575 132.706 42.247 132.477 41.991 132.185 41.804 131.893 41.617 131.56 41.525 131.185 41.525 130.81 41.525 130.478 41.617 130.189 41.804 129.899 41.991 129.672 42.247 129.508 42.575 129.343 42.904 129.261 43.284 129.261 43.717 129.261 44.151 129.343 44.532 129.508 44.859 129.672 45.187 129.899 45.445 130.189 45.63 130.478 45.817 130.81 45.91 131.185 45.91zM131.185 46.643C130.64 46.643 130.157 46.519 129.738 46.268 129.318 46.018 128.987 45.674 128.746 45.235 128.504 44.795 128.384 44.29 128.384 43.717 128.384 43.145 128.504 42.639 128.746 42.2 128.987 41.761 129.318 41.416 129.738 41.166 130.157 40.917 130.64 40.791 131.185 40.791 131.73 40.791 132.213 40.917 132.636 41.166 133.059 41.416 133.391 41.761 133.633 42.2 133.874 42.639 133.994 43.145 133.994 43.717 133.994 44.29 133.874 44.795 133.633 45.235 133.391 45.674 133.059 46.018 132.636 46.268 132.213 46.519 131.73 46.643 131.185 46.643zM136.063 43.559L137.246 43.559C137.615 43.559 137.909 43.47 138.127 43.292 138.346 43.114 138.455 42.875 138.455 42.575 138.455 42.276 138.346 42.036 138.127 41.859 137.909 41.681 137.615 41.591 137.246 41.591L136.063 41.591 136.063 43.559zM136.063 44.251L136.063 46.552 135.203 46.552 135.203 40.882 137.246 40.882C137.887 40.882 138.395 41.034 138.77 41.337 139.145 41.64 139.332 42.053 139.332 42.575 139.332 42.97 139.218 43.303 138.991 43.575 138.764 43.848 138.452 44.04 138.055 44.151L139.46 46.552 138.48 46.552 137.161 44.251 136.063 44.251z"/>
    <polyline fill="#FFFFFF" points="144.005 46.552 141.409 43.692 141.409 46.552 140.549 46.552 140.549 40.882 141.409 40.882 141.409 43.367 143.835 40.882 144.899 40.882 142.32 43.484 145.087 46.552 144.005 46.552"/>
    <path fill="#FFFFFF" d="M29.472 30.941C28.182 32.261 26.397 33.288 24.117 34.023 21.837 34.757 19.317 35.125 16.557 35.125 13.257 35.125 10.399 34.458 7.985 33.122 5.569 31.788 3.694 29.921 2.36 27.521 1.024 25.12.357 22.345.357 19.196.357 16.045 1.032 13.286 2.382 10.915 3.732 8.546 5.622 6.693 8.052 5.358 10.482 4.024 13.317 3.356 16.557 3.356 22.076 3.356 26.352 5.425 29.382 9.566L22.677 13.481C22.047 12.461 21.184 11.673 20.09 11.118 18.994 10.563 17.787 10.286 16.467 10.286 14.067 10.286 12.199 11.095 10.865 12.715 9.53 14.335 8.862 16.495 8.862 19.196 8.862 22.226 9.619 24.483 11.135 25.968 12.649 27.453 14.847 28.196 17.727 28.196 19.077 28.196 20.411 27.97 21.732 27.521L21.732 23.021 16.287 23.021 16.287 16.946 29.472 16.946 29.472 30.941M42.342 25.675L42.342 34.54 34.512 34.54 34.512 11.635 41.667 11.635 42.162 15.46C42.641 14.231 43.429 13.233 44.524 12.468 45.619 11.703 46.887 11.321 48.327 11.321 49.137 11.321 49.751 11.426 50.172 11.635L50.172 18.79C49.842 18.671 49.474 18.58 49.07 18.521 48.664 18.46 48.207 18.43 47.697 18.43 46.137 18.43 44.854 19.008 43.849 20.162 42.844 21.318 42.342 23.156 42.342 25.675M64.796 16.72C62.246 16.72 60.716 18.071 60.206 20.771L68.936 20.771C68.726 19.301 68.223 18.258 67.429 17.643 66.634 17.029 65.756 16.72 64.796 16.72zM75.506 32.201C74.366 33.01 72.919 33.701 71.164 34.271 69.409 34.84 67.541 35.125 65.561 35.125 62.831 35.125 60.499 34.622 58.564 33.618 56.629 32.613 55.144 31.21 54.109 29.411 53.074 27.611 52.556 25.54 52.556 23.201 52.556 20.83 53.066 18.731 54.086 16.901 55.106 15.071 56.516 13.638 58.316 12.603 60.117 11.568 62.216 11.05 64.617 11.05 66.956 11.05 69.019 11.553 70.804 12.558 72.588 13.564 73.983 14.958 74.989 16.743 75.993 18.528 76.496 20.62 76.496 23.021 76.496 23.351 76.474 23.696 76.429 24.055 76.384 24.415 76.331 24.79 76.271 25.18L60.296 25.18C61.016 27.821 62.981 29.14 66.191 29.14 67.631 29.14 68.906 28.915 70.016 28.465 71.126 28.015 72.056 27.566 72.806 27.116L75.506 32.201zM91.346 16.72C88.796 16.72 87.266 18.071 86.756 20.771L95.486 20.771C95.276 19.301 94.773 18.258 93.979 17.643 93.183 17.029 92.306 16.72 91.346 16.72zM102.056 32.201C100.916 33.01 99.469 33.701 97.714 34.271 95.959 34.84 94.091 35.125 92.111 35.125 89.381 35.125 87.049 34.622 85.114 33.618 83.178 32.613 81.694 31.21 80.658 29.411 79.624 27.611 79.106 25.54 79.106 23.201 79.106 20.83 79.616 18.731 80.636 16.901 81.656 15.071 83.066 13.638 84.866 12.603 86.666 11.568 88.766 11.05 91.166 11.05 93.506 11.05 95.569 11.553 97.354 12.558 99.138 13.564 100.533 14.958 101.539 16.743 102.543 18.528 103.046 20.62 103.046 23.021 103.046 23.351 103.024 23.696 102.979 24.055 102.934 24.415 102.881 24.79 102.821 25.18L86.846 25.18C87.566 27.821 89.531 29.14 92.741 29.14 94.181 29.14 95.456 28.915 96.566 28.465 97.676 28.015 98.606 27.566 99.356 27.116L102.056 32.201zM114.881 21.896L114.881 34.54 107.051 34.54 107.051 11.635 114.206 11.635 114.611 14.651C115.361 13.571 116.336 12.701 117.536 12.04 118.736 11.381 120.056 11.05 121.496 11.05 123.986 11.05 125.98 11.861 127.481 13.481 128.981 15.1 129.731 17.425 129.731 20.455L129.731 34.54 121.901 34.54 121.901 21.356C121.901 20.005 121.601 19.008 121.001 18.363 120.401 17.718 119.561 17.396 118.481 17.396 117.401 17.396 116.531 17.741 115.871 18.43 115.211 19.12 114.881 20.276 114.881 21.896"/>
    <polyline fill="#FFFFFF" points="158.126 11.635 149.261 34.54 140.711 34.54 131.846 11.635 140.441 11.635 145.121 26.441 149.711 11.635 158.126 11.635"/>
    <path fill="#FFFFFF" d="M161.32,34.54 L161.32,11.635 C162.58,11.906 163.855,12.04 165.145,12.04 C166.465,12.04 167.8,11.906 169.15,11.635 L169.15,34.54 L161.32,34.54"/>
    <polygon fill="#FFFFFF" points="174.64 34.541 182.47 34.541 182.47 1.691 174.64 1.691"/>
    <polygon fill="#FFFFFF" points="187.959 34.541 195.79 34.541 195.79 1.691 187.959 1.691"/>
    <path fill="#FFFFFF" d="M212.124,16.72 C209.574,16.72 208.044,18.071 207.534,20.771 L216.264,20.771 C216.053,19.301 215.552,18.258 214.757,17.643 C213.962,17.029 213.084,16.72 212.124,16.72 Z M222.834,32.201 C221.694,33.01 220.247,33.701 218.492,34.271 C216.737,34.84 214.869,35.125 212.889,35.125 C210.159,35.125 207.827,34.622 205.891,33.618 C203.957,32.613 202.471,31.21 201.436,29.411 C200.402,27.611 199.885,25.54 199.885,23.201 C199.885,20.83 200.394,18.731 201.414,16.901 C202.433,15.071 203.844,13.638 205.644,12.603 C207.444,11.568 209.544,11.05 211.944,11.05 C214.284,11.05 216.346,11.553 218.132,12.558 C219.916,13.564 221.311,14.958 222.317,16.743 C223.321,18.528 223.824,20.62 223.824,23.021 C223.824,23.351 223.802,23.696 223.757,24.055 C223.712,24.415 223.659,24.79 223.599,25.18 L207.624,25.18 C208.344,27.821 210.308,29.14 213.519,29.14 C214.959,29.14 216.234,28.915 217.344,28.465 C218.454,28.015 219.384,27.566 220.135,27.116 L222.834,32.201 Z"/>
    <polyline class="no-color-change" fill="#009BFF" points="258.969 34.54 246.953 16.901 246.953 34.54 239.259 34.54 239.259 3.941 246.908 3.941 258.879 21.896 258.879 3.941 266.618 3.941 266.618 34.54 258.969 34.54"/>
    <path class="no-color-change" fill="#009BFF" d="M283.583,16.72 C281.033,16.72 279.503,18.071 278.993,20.771 L287.723,20.771 C287.512,19.301 287.01,18.258 286.216,17.643 C285.421,17.029 284.543,16.72 283.583,16.72 Z M294.293,32.201 C293.153,33.01 291.706,33.701 289.951,34.271 C288.196,34.84 286.328,35.125 284.348,35.125 C281.618,35.125 279.286,34.622 277.35,33.618 C275.416,32.613 273.93,31.21 272.895,29.411 C271.861,27.611 271.344,25.54 271.344,23.201 C271.344,20.83 271.853,18.731 272.873,16.901 C273.892,15.071 275.303,13.638 277.103,12.603 C278.903,11.568 281.003,11.05 283.403,11.05 C285.743,11.05 287.805,11.553 289.591,12.558 C291.375,13.564 292.77,14.958 293.776,16.743 C294.78,18.528 295.283,20.62 295.283,23.021 C295.283,23.351 295.26,23.696 295.216,24.055 C295.171,24.415 295.118,24.79 295.058,25.18 L279.083,25.18 C279.803,27.821 281.767,29.14 284.978,29.14 C286.418,29.14 287.693,28.915 288.803,28.465 C289.913,28.015 290.843,27.566 291.594,27.116 L294.293,32.201 Z"/>
    <polyline class="no-color-change" fill="#009BFF" points="318.593 34.54 314.903 20.635 311.258 34.54 303.158 34.54 297.218 11.635 305.228 11.635 307.613 26.396 311.483 11.635 318.368 11.635 322.373 26.441 324.802 11.635 332.633 11.635 326.693 34.54 318.593 34.54"/>
    <path class="no-color-change" fill="#009BFF" d="M344.557 35.125C342.577 35.125 340.724 34.81 339 34.18 337.274 33.55 335.721 32.651 334.343 31.481L337.673 27.071C338.721 27.911 339.854 28.593 341.07 29.118 342.285 29.643 343.477 29.906 344.647 29.906 345.427 29.906 346.05 29.771 346.514 29.5 346.979 29.231 347.212 28.826 347.212 28.286 347.212 27.716 346.949 27.258 346.425 26.912 345.899 26.569 344.962 26.231 343.612 25.901L341.452 25.361C337.162 24.221 335.017 21.925 335.017 18.475 335.017 16.946 335.437 15.625 336.277 14.515 337.117 13.406 338.272 12.551 339.742 11.951 341.212 11.351 342.922 11.05 344.872 11.05 346.792 11.05 348.599 11.351 350.295 11.951 351.989 12.551 353.542 13.42 354.952 14.56L351.532 19.06C350.481 18.221 349.372 17.546 348.202 17.036 347.032 16.526 345.936 16.271 344.917 16.271 343.267 16.271 342.442 16.81 342.442 17.89 342.442 18.37 342.689 18.761 343.184 19.06 343.679 19.361 344.377 19.63 345.277 19.87L348.202 20.68C350.391 21.281 352.011 22.181 353.062 23.38 354.112 24.58 354.637 26.006 354.637 27.656 354.637 29.156 354.217 30.468 353.377 31.593 352.537 32.718 351.359 33.588 349.844 34.203 348.33 34.818 346.567 35.125 344.557 35.125M165.145 9.835C163.855 9.835 162.752 9.378 161.838 8.463 160.922 7.548 160.465 6.446 160.465 5.156 160.465 3.866 160.922 2.763 161.838 1.848 162.752.933 163.855.475 165.145.475 166.434.475 167.537.933 168.452 1.848 169.367 2.763 169.825 3.866 169.825 5.156 169.825 6.446 169.367 7.548 168.452 8.463 167.537 9.378 166.434 9.835 165.145 9.835"/>
  </g>
</svg>
