<svg xmlns="http://www.w3.org/2000/svg" width="355" height="35" viewBox="0 0 355 35">
  <g fill="none" fill-rule="evenodd" transform="translate(0 -1)">
    <path fill="#FFFFFF" d="M29.472 31.459C28.182 32.779 26.397 33.806 24.117 34.541 21.837 35.275 19.317 35.643 16.557 35.643 13.257 35.643 10.399 34.976 7.985 33.64 5.569 32.306 3.694 30.439 2.36 28.039 1.024 25.638.357 22.863.357 19.713.357 16.563 1.032 13.803 2.382 11.433 3.732 9.064 5.622 7.211 8.052 5.876 10.482 4.542 13.317 3.874 16.557 3.874 22.076 3.874 26.352 5.943 29.382 10.084L22.677 13.999C22.047 12.979 21.184 12.191 20.09 11.635 18.994 11.081 17.787 10.803 16.467 10.803 14.067 10.803 12.199 11.613 10.865 13.233 9.53 14.853 8.862 17.013 8.862 19.713 8.862 22.744 9.619 25.001 11.135 26.486 12.649 27.97 14.847 28.714 17.727 28.714 19.077 28.714 20.411 28.488 21.732 28.039L21.732 23.539 16.287 23.539 16.287 17.464 29.472 17.464 29.472 31.459M42.342 26.193L42.342 35.058 34.512 35.058 34.512 12.153 41.667 12.153 42.162 15.978C42.641 14.749 43.429 13.751 44.524 12.986 45.619 12.22 46.887 11.839 48.327 11.839 49.137 11.839 49.751 11.944 50.172 12.153L50.172 19.308C49.842 19.189 49.474 19.098 49.07 19.039 48.664 18.978 48.207 18.948 47.697 18.948 46.137 18.948 44.854 19.526 43.849 20.68 42.844 21.836 42.342 23.674 42.342 26.193M64.796 17.238C62.246 17.238 60.716 18.589 60.206 21.289L68.936 21.289C68.726 19.819 68.223 18.776 67.429 18.161 66.634 17.547 65.756 17.238 64.796 17.238zM75.506 32.718C74.366 33.528 72.919 34.218 71.164 34.789 69.409 35.358 67.541 35.643 65.561 35.643 62.831 35.643 60.499 35.14 58.564 34.135 56.629 33.131 55.144 31.728 54.109 29.928 53.074 28.129 52.556 26.058 52.556 23.718 52.556 21.348 53.066 19.249 54.086 17.419 55.106 15.589 56.516 14.156 58.316 13.121 60.117 12.086 62.216 11.568 64.617 11.568 66.956 11.568 69.019 12.071 70.804 13.076 72.588 14.082 73.983 15.476 74.989 17.26 75.993 19.046 76.496 21.138 76.496 23.539 76.496 23.869 76.474 24.213 76.429 24.573 76.384 24.933 76.331 25.308 76.271 25.698L60.296 25.698C61.016 28.339 62.981 29.658 66.191 29.658 67.631 29.658 68.906 29.433 70.016 28.983 71.126 28.533 72.056 28.084 72.806 27.633L75.506 32.718 75.506 32.718zM91.346 17.238C88.796 17.238 87.266 18.589 86.756 21.289L95.486 21.289C95.276 19.819 94.773 18.776 93.979 18.161 93.183 17.547 92.306 17.238 91.346 17.238zM102.056 32.718C100.916 33.528 99.469 34.218 97.714 34.789 95.959 35.358 94.091 35.643 92.111 35.643 89.381 35.643 87.049 35.14 85.114 34.135 83.178 33.131 81.694 31.728 80.658 29.928 79.624 28.129 79.106 26.058 79.106 23.718 79.106 21.348 79.616 19.249 80.636 17.419 81.656 15.589 83.066 14.156 84.866 13.121 86.666 12.086 88.766 11.568 91.166 11.568 93.506 11.568 95.569 12.071 97.354 13.076 99.138 14.082 100.533 15.476 101.539 17.26 102.543 19.046 103.046 21.138 103.046 23.539 103.046 23.869 103.024 24.213 102.979 24.573 102.934 24.933 102.881 25.308 102.821 25.698L86.846 25.698C87.566 28.339 89.531 29.658 92.741 29.658 94.181 29.658 95.456 29.433 96.566 28.983 97.676 28.533 98.606 28.084 99.356 27.633L102.056 32.718 102.056 32.718zM114.881 22.414L114.881 35.058 107.051 35.058 107.051 12.153 114.206 12.153 114.611 15.169C115.361 14.089 116.336 13.218 117.536 12.558 118.736 11.899 120.056 11.568 121.496 11.568 123.986 11.568 125.98 12.379 127.481 13.999 128.981 15.618 129.731 17.943 129.731 20.973L129.731 35.058 121.901 35.058 121.901 21.874C121.901 20.523 121.601 19.526 121.001 18.881 120.401 18.236 119.561 17.914 118.481 17.914 117.401 17.914 116.531 18.258 115.871 18.948 115.211 19.638 114.881 20.794 114.881 22.414"/>
    <polyline fill="#FFFFFF" points="158.126 12.153 149.261 35.058 140.711 35.058 131.846 12.153 140.441 12.153 145.121 26.959 149.711 12.153 158.126 12.153"/>
    <path fill="#009BFF" class="no-color-change" d="M165.145,10.353 C163.855,10.353 162.752,9.896 161.838,8.981 C160.922,8.066 160.465,6.964 160.465,5.674 C160.465,4.383 160.922,3.281 161.838,2.366 C162.752,1.451 163.855,0.993 165.145,0.993 C166.434,0.993 167.537,1.451 168.452,2.366 C169.367,3.281 169.825,4.383 169.825,5.674 C169.825,6.964 169.367,8.066 168.452,8.981 C167.537,9.896 166.434,10.353 165.145,10.353"/>
    <path fill="#FFFFFF" d="M161.32,35.058 L161.32,12.153 C162.58,12.424 163.855,12.558 165.145,12.558 C166.465,12.558 167.8,12.424 169.15,12.153 L169.15,35.058 L161.32,35.058"/>
    <polygon fill="#FFFFFF" points="174.64 35.059 182.47 35.059 182.47 2.209 174.64 2.209"/>
    <polygon fill="#FFFFFF" points="187.959 35.059 195.79 35.059 195.79 2.209 187.959 2.209"/>
    <path fill="#FFFFFF" d="M212.124,17.238 C209.574,17.238 208.044,18.589 207.534,21.289 L216.264,21.289 C216.053,19.819 215.552,18.776 214.757,18.161 C213.962,17.547 213.084,17.238 212.124,17.238 Z M222.834,32.718 C221.694,33.528 220.247,34.218 218.492,34.789 C216.737,35.358 214.869,35.643 212.889,35.643 C210.159,35.643 207.827,35.14 205.891,34.135 C203.957,33.131 202.471,31.728 201.436,29.928 C200.402,28.129 199.885,26.058 199.885,23.718 C199.885,21.348 200.394,19.249 201.414,17.419 C202.433,15.589 203.844,14.156 205.644,13.121 C207.444,12.086 209.544,11.568 211.944,11.568 C214.284,11.568 216.346,12.071 218.132,13.076 C219.916,14.082 221.311,15.476 222.317,17.26 C223.321,19.046 223.824,21.138 223.824,23.539 C223.824,23.869 223.802,24.213 223.757,24.573 C223.712,24.933 223.659,25.308 223.599,25.698 L207.624,25.698 C208.344,28.339 210.308,29.658 213.519,29.658 C214.959,29.658 216.234,29.433 217.344,28.983 C218.454,28.533 219.384,28.084 220.135,27.633 L222.834,32.718 L222.834,32.718 Z"/>
    <polyline fill="#009BFF" class="no-color-change" points="258.969 35.058 246.953 17.419 246.953 35.058 239.259 35.058 239.259 4.459 246.908 4.459 258.879 22.414 258.879 4.459 266.618 4.459 266.618 35.058 258.969 35.058"/>
    <path fill="#009BFF" class="no-color-change" d="M283.583,17.238 C281.033,17.238 279.503,18.589 278.993,21.289 L287.723,21.289 C287.512,19.819 287.01,18.776 286.216,18.161 C285.421,17.547 284.543,17.238 283.583,17.238 Z M294.293,32.718 C293.153,33.528 291.706,34.218 289.951,34.789 C288.196,35.358 286.328,35.643 284.348,35.643 C281.618,35.643 279.286,35.14 277.35,34.135 C275.416,33.131 273.93,31.728 272.895,29.928 C271.861,28.129 271.344,26.058 271.344,23.718 C271.344,21.348 271.853,19.249 272.873,17.419 C273.892,15.589 275.303,14.156 277.103,13.121 C278.903,12.086 281.003,11.568 283.403,11.568 C285.743,11.568 287.805,12.071 289.591,13.076 C291.375,14.082 292.77,15.476 293.776,17.26 C294.78,19.046 295.283,21.138 295.283,23.539 C295.283,23.869 295.26,24.213 295.216,24.573 C295.171,24.933 295.118,25.308 295.058,25.698 L279.083,25.698 C279.803,28.339 281.767,29.658 284.978,29.658 C286.418,29.658 287.693,29.433 288.803,28.983 C289.913,28.533 290.843,28.084 291.594,27.633 L294.293,32.718 L294.293,32.718 Z"/>
    <polyline fill="#009BFF" class="no-color-change" points="318.593 35.058 314.903 21.153 311.258 35.058 303.158 35.058 297.218 12.153 305.228 12.153 307.613 26.914 311.483 12.153 318.368 12.153 322.373 26.959 324.802 12.153 332.633 12.153 326.693 35.058 318.593 35.058"/>
    <path fill="#009BFF" class="no-color-change" d="M344.557,35.643 C342.577,35.643 340.724,35.328 339,34.698 C337.274,34.068 335.721,33.169 334.343,31.999 L337.673,27.588 C338.721,28.428 339.854,29.111 341.07,29.635 C342.285,30.161 343.477,30.424 344.647,30.424 C345.427,30.424 346.05,30.289 346.514,30.018 C346.979,29.749 347.212,29.343 347.212,28.803 C347.212,28.234 346.949,27.776 346.425,27.43 C345.899,27.087 344.962,26.749 343.612,26.419 L341.452,25.879 C337.162,24.739 335.017,22.443 335.017,18.993 C335.017,17.464 335.437,16.143 336.277,15.033 C337.117,13.924 338.272,13.069 339.742,12.468 C341.212,11.869 342.922,11.568 344.872,11.568 C346.792,11.568 348.599,11.869 350.295,12.468 C351.989,13.069 353.542,13.938 354.952,15.078 L351.532,19.578 C350.481,18.739 349.372,18.064 348.202,17.553 C347.032,17.044 345.936,16.789 344.917,16.789 C343.267,16.789 342.442,17.328 342.442,18.408 C342.442,18.888 342.689,19.279 343.184,19.578 C343.679,19.879 344.377,20.148 345.277,20.388 L348.202,21.198 C350.391,21.799 352.011,22.699 353.062,23.898 C354.112,25.098 354.637,26.524 354.637,28.174 C354.637,29.674 354.217,30.986 353.377,32.111 C352.537,33.236 351.359,34.106 349.844,34.72 C348.33,35.336 346.567,35.643 344.557,35.643"/>
  </g>
</svg>
