<svg xmlns="http://www.w3.org/2000/svg" xmlns:xlink="http://www.w3.org/1999/xlink" width="720" height="197" viewBox="0 0 720 197">
  <defs>
    <style>
      .cls-1 {
        filter: url(#filter);
      }

      .cls-2 {
        fill: #00afaf;
        filter: url(#filter-2);
      }

      .cls-2, .cls-3 {
        fill-rule: evenodd;
      }

      .cls-3 {
        fill: #fff;
        filter: url(#filter-3);
      }
    </style>
    <filter id="filter" filterUnits="userSpaceOnUse">
      <feFlood result="flood" flood-color="#333"/>
      <feComposite result="composite" operator="in" in2="SourceGraphic"/>
      <feBlend result="blend" in2="SourceGraphic"/>
    </filter>
    <filter id="filter-2" x="0.688" y="31.094" width="718.782" height="106.344" filterUnits="userSpaceOnUse">
      <feFlood result="flood" flood-color="#fff"/>
      <feComposite result="composite" operator="in" in2="SourceGraphic"/>
      <feBlend result="blend" in2="SourceGraphic"/>
    </filter>
    <filter id="filter-3" x="352" y="149.969" width="367.969" height="16" filterUnits="userSpaceOnUse">
      <feFlood result="flood" flood-color="#999"/>
      <feComposite result="composite" operator="in" in2="SourceGraphic"/>
      <feBlend result="blend" in2="SourceGraphic"/>
    </filter>
  </defs>
  <g id="Greenville" class="cls-1">
    <path class="cls-2" d="M1.82,88.114c3.646-16.086,14.586-21.693,18.65-23.6,7.292-3.387,14.482-4.233,21.565-4.233A61.189,61.189,0,0,1,64.956,64.2a59.944,59.944,0,0,0-4.793,14.6,15.953,15.953,0,0,0-5.313-4.763,27.515,27.515,0,0,0-13.022-2.752c-8.128,0-12.816,2.54-16.357,6.032-6.772,6.773-7.085,15.556-7.085,20.212,0,20.425,12.084,28.677,23.337,28.677a47.325,47.325,0,0,0,6.564-.634c0.209-3.386.313-6.667,0.313-10.053,0-11.111-1.771-12.275-3.125-13.757a64.12,64.12,0,0,0,11.148,1.164,89.927,89.927,0,0,0,10.731-.846c-0.625,1.164-2.4,2.857-2.4,16.4,0,14.075,1.563,14.709,2.084,16.4-2.084.106-3.438,0.212-5.523,0.424-2.708.212-5.417,0.529-8.126,0.846q-6.721.636-13.44,0.635c-5.314,0-19.587,0-29.485-9.947-7.084-7.2-9.793-17.355-9.793-27.514A52.943,52.943,0,0,1,1.82,88.114ZM91.94,94.886c-4.583,4.339-4.583,12.7-4.583,16.4,0,1.587.1,15.026,0.625,19.047,0.521,3.6,1.563,4.762,3.021,6.244-3.959-.212-7.71-0.635-11.564-0.635-3.334,0-6.564.317-9.9,0.635a36.725,36.725,0,0,0,1.772-7.936c0.417-4.869.313-16.72,0.313-25.61,0-19.895-2.708-22.116-4.272-23.916,10.106,0,12.607-.423,21.462-2.857a135.778,135.778,0,0,0-.938,16.509A21.8,21.8,0,0,1,93.5,84.41c5.938-6.032,10.938-6.773,15.419-7.3a105.841,105.841,0,0,0-2.709,16.3,19.323,19.323,0,0,0-6.773-1.481A10.406,10.406,0,0,0,91.94,94.886Zm32.4,5.608c0-3.492.1-15.344,9.481-15.344,8.23,0,9.064,9,9.064,15.344H124.341Zm34.694,8.89c0.1-5.926.313-13.862-2.814-20.847-3.853-8.784-11.252-11.958-20.836-11.958-7.5,0-15.107,2.011-20.525,7.3-7.293,7.2-7.918,16.825-7.918,22.328,0,30.476,24.067,31.112,34.59,31.112,5.938,0,8.439-.636,13.544-2.011a101.064,101.064,0,0,1,1.875-13.228c-2.084,2.01-5.418,5.4-14.377,5.4-2.084,0-8.544,0-13.232-4.763-4.688-4.655-4.792-10.476-4.792-13.332h34.485Zm21.254-8.89c0-3.492.1-15.344,9.48-15.344,8.232,0,9.064,9,9.064,15.344H180.289Zm34.693,8.89c0.1-5.926.313-13.862-2.813-20.847-3.855-8.784-11.252-11.958-20.837-11.958-7.5,0-15.106,2.011-20.524,7.3-7.293,7.2-7.918,16.825-7.918,22.328,0,30.476,24.066,31.112,34.589,31.112,5.938,0,8.44-.636,13.544-2.011a101.234,101.234,0,0,1,1.875-13.228c-2.084,2.01-5.417,5.4-14.377,5.4-2.085,0-8.543,0-13.232-4.763-4.688-4.655-4.793-10.476-4.793-13.332h34.486Zm53.031-27.725c3.958,4.021,3.958,7.831,3.958,21.692,0,2.118-.1,12.382-0.1,14.71,0,5.4.209,10.583,0.417,12.593,0.313,3.6,1.145,4.55,2.291,6.031-3.541-.317-7.5-0.635-11.252-0.635a84.368,84.368,0,0,0-10.313.635,12.044,12.044,0,0,0,2.5-6.772c0.209-2.434.313-4.127,0.313-15.873,0-4.551.1-7.3-.1-12.276-0.209-6.878-.209-12.593-8.648-12.593a11.283,11.283,0,0,0-8.439,3.387c-3.334,3.492-3.646,8.359-3.646,17.037,0,9,.1,16.508.207,18.731,0.209,4.337.73,5.713,2.085,8.254-3.334-.212-6.668-0.53-10-0.53-3.542,0-6.981.318-10.418,0.53,1.146-2.434,1.874-4.233,2.188-9.63,0.312-5.079.312-15.873,0.312-32.17,0-12.064-3.855-14.815-5-15.767,12.294,0.106,15.628-.635,21.566-2.963-0.416,5.609-.416,6.985-0.521,12.8a28.062,28.062,0,0,1,4.48-5.82A22.06,22.06,0,0,1,255.094,76.9C260.094,76.9,265.1,78.7,268.013,81.659ZM413.9,100.494c0-3.492.1-15.344,9.48-15.344,8.23,0,9.065,9,9.065,15.344H413.9Zm34.694,8.89c0.1-5.926.312-13.862-2.815-20.847-3.854-8.784-11.25-11.958-20.836-11.958-7.5,0-15.106,2.011-20.524,7.3-7.294,7.2-7.919,16.825-7.919,22.328,0,30.476,24.067,31.112,34.589,31.112,5.939,0,8.44-.636,13.545-2.011a101.07,101.07,0,0,1,1.876-13.228c-2.084,2.01-5.418,5.4-14.379,5.4-2.082,0-8.542,0-13.231-4.763-4.687-4.655-4.793-10.476-4.793-13.332h34.487ZM488.178,67.69a20.145,20.145,0,0,1,18.44,10.9c3.439,6.455,4.064,15.026,4.064,20.318,0,6.985-.936,14.6-4.272,20.529a23.188,23.188,0,0,1-6.46,7.408,21.029,21.029,0,0,1-29.067-5.82c-2.6-3.916-5-10.583-5-21.8,0-9.735,1.667-23.175,12.3-29.1A21.183,21.183,0,0,1,488.178,67.69Zm0.1-7.2c-10.73,0-19.481,3.7-25.422,10.158-9.063,9.736-9.376,23.493-9.376,28.361,0,4.445.106,18.836,9.9,28.89a29.76,29.76,0,0,0,12.5,7.724,39.383,39.383,0,0,0,12.085,1.8c8.127,0,18.441-1.8,26.047-10.582,8.544-9.736,9.065-22.858,9.065-28.466,0-9.841-1.98-19.788-8.335-27.2C508.183,63.669,498.285,60.494,488.282,60.494Zm86.371,61.588c0.1,4.974.208,11.006,1.875,14.709-2.188-.211-4.48-0.529-6.772-0.529-2.4,0-4.689.318-7.084,0.529,1.561-6.137,1.561-9.629,1.561-22.011V98.272c0-5.926,0-13.333-10.313-13.333-2.5,0-7.919.318-11.669,4.551-4.584,5.079-4.584,12.487-4.584,23.174v6.667c0,7.937,0,12.487,1.667,17.46a46,46,0,0,0-6.564-.635,44.548,44.548,0,0,0-6.563.635c0.625-2.645,1.355-7.512,1.355-15.979v-16.4c0-5.4-.106-10.9-0.627-16.191-0.728-6.455-1.978-7.62-3.854-9.207a46.158,46.158,0,0,0,14.9-3.069c-0.1,2.434-.1,4.551-0.1,8.466v5.4c4.585-9.418,10.21-13.016,20.836-13.016,2.606,0,8.962,0,12.92,5.291,2.605,3.386,3.022,6.667,3.022,16.931v23.069Zm8.125-33.651c-0.208-14.6-.208-18.2-1.146-22.01a7.778,7.778,0,0,0-3.437-5.08c7.5-.846,9.27-1.376,16.147-4.551-1.249,7.514-1.355,15.133-1.457,22.646v34.392c0,6.773.1,13.44,0.729,17.672a20.137,20.137,0,0,0,1.353,5.185c-2.395-.211-4.687-0.529-7.083-0.529a50.272,50.272,0,0,0-6.879.529,22.657,22.657,0,0,0,1.148-5.185c0.521-3.809.521-11.64,0.625-17.566v-25.5Zm18.337,13.229c-0.1-7.09-.209-14.5-1.147-18.308a8.47,8.47,0,0,0-2.5-4.549c6.668-.212,8.231-0.53,14.9-2.964-0.938,4.868-1.146,8.148-1.249,18.519v24.974c0.311,10.264.624,11.852,2.082,17.249-2.292-.212-4.478-0.424-6.771-0.424s-4.584.212-6.772,0.424c1.356-4.974,1.459-5.186,1.459-17.144V101.659Zm-2.084-36.826a6.407,6.407,0,1,1,12.814,0A6.409,6.409,0,1,1,599.031,64.833Zm67.2,57.249c0.1,4.974.207,11.006,1.876,14.709-2.19-.211-4.481-0.529-6.773-0.529-2.4,0-4.689.318-7.085,0.529,1.563-6.137,1.563-9.629,1.563-22.011V98.272c0-5.926,0-13.333-10.314-13.333-2.5,0-7.917.318-11.668,4.551-4.586,5.079-4.586,12.487-4.586,23.174v6.667c0,7.937,0,12.487,1.667,17.46a45.96,45.96,0,0,0-6.563-.635,44.588,44.588,0,0,0-6.564.635c0.625-2.645,1.355-7.512,1.355-15.979v-16.4c0-5.4-.105-10.9-0.626-16.191-0.729-6.455-1.979-7.62-3.855-9.207a46.143,46.143,0,0,0,14.9-3.069c-0.1,2.434-.1,4.551-0.1,8.466v5.4c4.583-9.418,10.211-13.016,20.835-13.016,2.607,0,8.961,0,12.919,5.291,2.605,3.386,3.023,6.667,3.023,16.931v23.069Zm15.209-20.741c0.314-4.55.834-10.9,5.627-15.238a12.655,12.655,0,0,1,8.752-3.28c4.583,0,7.917,1.9,10,5.185,2.709,4.022,2.709,9.1,2.709,13.334H681.44Zm37.715,6.243c0.313-3.6.313-5.184,0.313-6.243,0-6.349-1.563-12.91-5.1-17.249-4.272-5.185-11.045-7.3-17.713-7.3-9.376,0-15.732,3.809-19.273,7.619-5.418,5.926-7.085,14.18-7.085,22.223,0,19.153,11.461,30.477,30.421,30.477a50.3,50.3,0,0,0,14.8-2.118A34.962,34.962,0,0,1,717.7,124.2c-2.5,2.645-5.522,5.926-15.106,5.926-6.356,0-13.335-1.481-17.607-9.1-2.812-4.868-3.126-9.63-3.437-13.44h37.609ZM330.242,52.672L342.451,31.1l5.637,21.572,39.444-4.689-37.1,19.227,37.1,40.8L333.275,75.83,305.222,90.288l18.916-26.36L299.719,53.61Zm22.468,19.86-5.258-5.784a9.057,9.057,0,0,1-8.57,6.339,9.363,9.363,0,1,1,8.617-6.493l3.681-1.907a13.575,13.575,0,0,0-1.776-3.135,85.127,85.127,0,0,0,9.042-.631L377.4,51.1,346.668,54.75,341.8,36.108,331.369,54.534l-22.922.7,18.617,7.867L316.532,77.782a32.54,32.54,0,0,0,4.847.385c1.207,0,2.395-.072,3.588-0.189l8.373-4.315,7.5,4.448c2.205-.33,4.646-0.812,8.043-1.531a26.364,26.364,0,0,0-1.739,5.271l6.334,3.756c-0.093-4.045-.269-7.891-0.636-11.672C352.8,73.442,352.756,72.978,352.71,72.532ZM311.358,84.991l2.215-1.141c0.09-.754.159-1.5,0.2-2.226Zm58.05,6.721c0,1.145,0,2.254,0,3.344l7.187,4.262V98.8l-7.189-7.9v0.815ZM331.714,78.768c0.962-.016,1.851-0.038,2.679-0.069L333.21,78Zm-18.936,9.759c-0.391,1.844-.88,3.869-1.506,6.252-1.146,4.551-2.395,9.1-3.645,13.651-1.042,3.809-3.022,9.63-4.689,17.99-0.625-3.493-3.02-11.958-7.292-27.831-5-18.413-3.959-19.366-3.959-21.27-3.647.318-7.19,0.741-10.836,0.741-3.439,0-6.98-.423-10.419-0.741,1.772,2.011,4.167,7.62,5.209,10.794,3.23,10.053,9.273,28.782,12.295,39.365a79.3,79.3,0,0,1,2.188,9.312,89.194,89.194,0,0,1,10.313-.741,96.861,96.861,0,0,1,11.045.741,124.862,124.862,0,0,1,4.375-17.672c1.354-4.762,5.312-17.142,8.959-28.677,1.2-3.791,2.159-6.424,3.17-9.1-0.1-.172-0.2-0.342-0.3-0.493Zm3.754-10.746-2.758,3.842c-0.042.729-.111,1.472-0.2,2.226l11.394-5.872c-1.193.117-2.381,0.189-3.588,0.189A32.54,32.54,0,0,1,316.532,77.782ZM347.5,66.595a9.023,9.023,0,1,0-8.617,6.493,9.057,9.057,0,0,0,8.57-6.339l-0.08-.088ZM340.84,78.11l6.3,3.739a26.364,26.364,0,0,1,1.739-5.271C345.486,77.3,343.045,77.781,340.84,78.11Zm-9.126.658-3.425,1.765c-0.1.269-.2,0.537-0.3,0.8a11.265,11.265,0,0,1,.895,2.014c1.146,3.28,1.353,7.514,1.353,17.673,0,12.592,0,17.778-.417,24.973-0.415,5.609-.832,7.408-1.978,10.9a81.651,81.651,0,0,1,10.314-.741,71.831,71.831,0,0,1,10.209.741c-1.146-2.222-1.771-3.492-1.978-11.111-0.21-4.868-.21-15.873-0.21-20.317,0-4.666,0-14.1.43-19.529L334.393,78.7C333.565,78.731,332.676,78.753,331.714,78.768Zm-4.03,2.077c0.1,0.151.2,0.32,0.3,0.493,0.1-.267.2-0.535,0.3-0.8ZM369.408,90.9l-16.7-18.365c0.046,0.446.089,0.91,0.132,1.4,0.367,3.781.543,7.627,0.636,11.672l15.932,9.45c0-1.09,0-2.2,0-3.344V90.9Zm0.007-5.634c0.036-15.871.218-19.877,0.545-26.037L353.5,67.757ZM351.18,64.687l7.266-3.766a85.127,85.127,0,0,1-9.042.631A13.575,13.575,0,0,1,351.18,64.687Zm2.392,29.882c0,28.043,0,31.958-1.772,42.116a45.857,45.857,0,0,1,9.168-.74,73.012,73.012,0,0,1,11.149.74,24.291,24.291,0,0,1-1.772-8.253c-0.694-8.191-.881-16.836-0.925-28.959l-15.869-9.412C353.563,91.534,353.572,93.016,353.572,94.569Zm39.8,33.863c-0.832-9.841-.936-20.318-0.936-36.72,0-22.752.208-26.032,0.625-33.863-9.273,3.068-11.564,3.386-20.629,3.7,1.563,2.223,2.709,3.915,3.437,12.381,0.587,6.042.71,12.212,0.724,19.22l12.348,13.58-2.375,2.906-9.97-5.913c-0.022,19.915-.21,24.028-1.767,32.958a45.83,45.83,0,0,1,9.167-.74,73.012,73.012,0,0,1,11.149.74A24.31,24.31,0,0,1,393.369,128.432ZM377.614,99.921L376.6,98.8v0.516ZM347.372,66.66l0.08,0.088c0.016-.051.031-0.1,0.047-0.154Z"/>
    <path id="USAT_Network" data-name="USAT Network" class="cls-3" d="M351.989,150.273h4.489c3.156,0,5.267,1.865,5.267,4.741s-2.155,4.735-5.267,4.735h-2.29v5.925h-2.2v-15.4Zm4.267,7.659c2.112,0,3.244-1.163,3.244-2.918,0-1.736-1.132-2.919-3.244-2.919h-2.068v5.837h2.068Zm11.768-7.659h1.955l6.4,15.4h-2.358l-1.6-4.035h-6.912l-1.6,4.035H361.6S367.244,152.162,368.024,150.273Zm3.665,9.544-1.488-3.794c-0.222-.572-1.179-2.942-1.2-3.139h-0.043c-0.022.2-.955,2.5-1.2,3.139l-1.51,3.794h5.443Zm6.924-9.544h4.51c2.91,0,5.178,1.5,5.178,4.563a4.293,4.293,0,0,1-3.955,4.346l4.778,6.492h-2.579l-4.51-6.276h-1.223v6.276h-2.2v-15.4Zm4.267,7.351c2.043,0,3.2-1.077,3.2-2.764s-1.157-2.765-3.2-2.765h-2.068v5.529h2.068Zm11.522-5.486h-4.445v-1.865h11.089v1.865H396.6v13.536h-2.2V152.138Zm12.347,5.838a8.2,8.2,0,1,1,8.2,8A7.862,7.862,0,0,1,406.749,157.976Zm14.133,0a5.946,5.946,0,1,0-5.955,6.053A5.772,5.772,0,0,0,420.882,157.976Zm5.433-7.7h7.867v1.865h-5.668V157.1H434v1.865h-5.49v6.713h-2.2v-15.4Zm17.815,1.865h-4.444v-1.865h11.088v1.865h-4.445v13.536h-2.2V152.138Zm8.953-1.865h2.2v6.318h8.178v-6.318h2.2v15.4h-2.2v-7.218h-8.178v7.218h-2.2v-15.4Zm16.631,0h8.49v1.846h-6.29v4.472h6.11v1.846h-6.11v5.395h6.422v1.842h-8.622v-15.4Zm16,10.092V150.273h2.221v9.433c0,2.679,1.157,4.323,3.756,4.323,2.622,0,3.78-1.644,3.78-4.323v-9.433h2.221v10.092c0,3.38-2.2,5.616-6,5.616C487.865,165.981,485.71,163.745,485.71,160.365Zm14.274,2.524,1.491-1.25a4.52,4.52,0,0,0,3.911,2.433c1.709,0,3.044-.918,3.044-2.611,0-1.817-1.534-2.433-3.446-3.178-1.956-.769-3.933-1.736-3.933-4.193,0-2.432,1.912-4.12,4.712-4.12a5.249,5.249,0,0,1,4.579,2.322l-1.491,1.25a3.552,3.552,0,0,0-3.088-1.668c-1.512,0-2.511.769-2.511,2.063,0,1.6,1.554,2.13,2.911,2.654,2.2,0.856,4.466,1.889,4.466,4.716,0,2.679-2,4.674-5.2,4.674A6.064,6.064,0,0,1,499.984,162.889Zm18.241-12.616h1.956l6.4,15.4h-2.357l-1.6-4.035h-6.912l-1.6,4.035H511.8S517.446,152.162,518.225,150.273Zm3.665,9.544-1.487-3.794c-0.222-.572-1.179-2.942-1.2-3.139h-0.044c-0.022.2-.955,2.5-1.2,3.139l-1.51,3.794h5.443Zm13.978-7.679h-4.445v-1.865h11.088v1.865h-4.444v13.536h-2.2V152.138Zm7.469,5.838a8.2,8.2,0,1,1,8.2,8A7.861,7.861,0,0,1,543.337,157.976Zm14.132,0a5.945,5.945,0,1,0-5.954,6.053A5.772,5.772,0,0,0,557.469,157.976Zm5.434-7.7h4.422c4.978,0,8.266,2.808,8.266,7.7,0,4.87-3.312,7.7-8.266,7.7H562.9v-15.4Zm2.2,13.534h2.046c3.643,0,6.176-1.9,6.176-5.831s-2.533-5.838-6.176-5.838H565.1v11.669Zm17.637-13.534H584.7l6.4,15.4h-2.357l-1.6-4.035h-6.912l-1.6,4.035h-2.311S581.96,152.162,582.739,150.273Zm3.666,9.544-1.489-3.794c-0.221-.572-1.178-2.942-1.2-3.139h-0.044c-0.022.2-.955,2.5-1.2,3.139l-1.51,3.794h5.444Zm9.084-.419-5.312-9.125h2.467l2.889,5.135a22.887,22.887,0,0,1,1.11,2.192h0.022a23.153,23.153,0,0,1,1.113-2.192l2.91-5.135h2.4l-5.309,9.125v6.276h-2.289V159.4Zm14.062-9.125h1.687l8.846,9.982c0.266,0.288,1.422,1.711,1.534,1.932l0.044-.023c-0.044-.217-0.044-2-0.044-2.39v-9.5h2.134v15.4h-1.713l-8.845-9.983c-0.265-.283-1.422-1.711-1.532-1.928l-0.021.02c0.021,0.221.043,2,.043,2.394v9.5h-2.133v-15.4Zm18.253,0h8.487v1.846H630v4.472h6.113v1.846H630v5.395h6.422v1.842H627.8v-15.4Zm15.37,1.865h-4.445v-1.865h11.089v1.865h-4.445v13.536h-2.2V152.138Zm8.477-1.865h2.334l3.2,9.15c0.112,0.351.867,2.63,0.889,2.981h0.046a30.445,30.445,0,0,1,.933-2.981l3.334-9.15h1.756l3.332,9.15c0.133,0.351.91,2.63,0.935,2.981h0.044c0.044-.351.8-2.63,0.91-2.981l3.179-9.15h2.243l-5.49,15.4h-1.688l-3.6-9.607a25.578,25.578,0,0,1-.758-2.5h-0.044a25.693,25.693,0,0,1-.776,2.5l-3.578,9.607h-1.69Zm24.119,7.7a8.2,8.2,0,1,1,8.2,8A7.861,7.861,0,0,1,675.77,157.976Zm14.132,0a5.945,5.945,0,1,0-5.955,6.053A5.772,5.772,0,0,0,689.9,157.976Zm5.433-7.7h4.511c2.913,0,5.177,1.5,5.177,4.563a4.293,4.293,0,0,1-3.955,4.346l4.779,6.492h-2.579l-4.511-6.276h-1.222v6.276h-2.2v-15.4Zm4.267,7.351c2.044,0,3.2-1.077,3.2-2.764s-1.156-2.765-3.2-2.765h-2.067v5.529H699.6Zm8.736-7.351h2.2v7.154l6.444-7.154h2.666l-6.687,7.351,7,8.05h-2.754l-6.668-7.785v7.785h-2.2v-15.4Z"/>
  </g>
</svg>
