<svg xmlns="http://www.w3.org/2000/svg" width="555" height="46" viewBox="0 0 555 46">
  <g fill="none" fill-rule="evenodd">
    <path fill="#009BFF" class='no-color-change' d="M29.473 28.34C28.183 29.661 26.397 30.688 24.118 31.422 21.838 32.158 19.318 32.525 16.558 32.525 13.257 32.525 10.4 31.858 7.986 30.523 5.57 29.188 3.695 27.321 2.361 24.92 1.025 22.52.358 19.745.358 16.595.358 13.445 1.033 10.685 2.383 8.315 3.733 5.946 5.623 4.093 8.053 2.757 10.483 1.423 13.318.755 16.558.755 22.078.755 26.352 2.825 29.383 6.965L22.678 10.88C22.048 9.861 21.185 9.073 20.091 8.518 18.995 7.963 17.788 7.685 16.468 7.685 14.068 7.685 12.2 8.495 10.865 10.115 9.53 11.735 8.863 13.895 8.863 16.595 8.863 19.625 9.62 21.882 11.135 23.368 12.65 24.853 14.848 25.595 17.728 25.595 19.078 25.595 20.413 25.37 21.733 24.92L21.733 20.42 16.288 20.42 16.288 14.345 29.473 14.345 29.473 28.34M42.343 23.075L42.343 31.94 34.513 31.94 34.513 9.035 41.668 9.035 42.163 12.86C42.642 11.63 43.43 10.632 44.525 9.868 45.62 9.103 46.888 8.72 48.328 8.72 49.138 8.72 49.752 8.826 50.173 9.035L50.173 16.19C49.842 16.071 49.475 15.981 49.07 15.92 48.665 15.86 48.207 15.83 47.698 15.83 46.138 15.83 44.855 16.408 43.85 17.563 42.845 18.718 42.343 20.555 42.343 23.075M64.797 14.12C62.247 14.12 60.717 15.47 60.207 18.17L68.937 18.17C68.727 16.701 68.224 15.658 67.43 15.042 66.634 14.428 65.757 14.12 64.797 14.12zM75.507 29.6C74.367 30.41 72.92 31.101 71.165 31.67 69.41 32.24 67.542 32.525 65.562 32.525 62.832 32.525 60.5 32.022 58.565 31.017 56.63 30.013 55.145 28.61 54.11 26.81 53.075 25.01 52.557 22.94 52.557 20.6 52.557 18.231 53.067 16.13 54.087 14.3 55.107 12.471 56.517 11.038 58.317 10.002 60.117 8.968 62.217 8.45 64.617 8.45 66.957 8.45 69.019 8.953 70.805 9.957 72.589 10.963 73.984 12.358 74.99 14.143 75.994 15.928 76.497 18.02 76.497 20.42 76.497 20.75 76.475 21.095 76.43 21.455 76.385 21.815 76.332 22.191 76.272 22.58L60.297 22.58C61.017 25.22 62.982 26.54 66.192 26.54 67.632 26.54 68.907 26.315 70.017 25.865 71.127 25.415 72.057 24.965 72.807 24.515L75.507 29.6zM91.347 14.12C88.797 14.12 87.267 15.47 86.757 18.17L95.487 18.17C95.277 16.701 94.774 15.658 93.979 15.042 93.184 14.428 92.307 14.12 91.347 14.12zM102.057 29.6C100.916 30.41 99.469 31.101 97.714 31.67 95.959 32.24 94.092 32.525 92.112 32.525 89.382 32.525 87.049 32.022 85.114 31.017 83.18 30.013 81.694 28.61 80.66 26.81 79.624 25.01 79.107 22.94 79.107 20.6 79.107 18.231 79.617 16.13 80.637 14.3 81.656 12.471 83.067 11.038 84.867 10.002 86.667 8.968 88.766 8.45 91.167 8.45 93.507 8.45 95.569 8.953 97.354 9.957 99.139 10.963 100.534 12.358 101.539 14.143 102.544 15.928 103.047 18.02 103.047 20.42 103.047 20.75 103.025 21.095 102.979 21.455 102.934 21.815 102.882 22.191 102.822 22.58L86.847 22.58C87.567 25.22 89.531 26.54 92.742 26.54 94.182 26.54 95.457 26.315 96.567 25.865 97.676 25.415 98.607 24.965 99.357 24.515L102.057 29.6zM114.882 19.295L114.882 31.94 107.052 31.94 107.052 9.035 114.207 9.035 114.612 12.05C115.361 10.97 116.337 10.1 117.537 9.44 118.736 8.781 120.057 8.45 121.497 8.45 123.987 8.45 125.982 9.26 127.482 10.88 128.982 12.5 129.732 14.826 129.732 17.855L129.732 31.94 121.902 31.94 121.902 18.755C121.902 17.405 121.602 16.408 121.002 15.763 120.401 15.118 119.562 14.795 118.482 14.795 117.402 14.795 116.532 15.14 115.872 15.83 115.212 16.521 114.882 17.675 114.882 19.295M154.031 25.55L159.701 25.55C160.721 25.55 161.546 25.265 162.176 24.695 162.806 24.125 163.121 23.42 163.121 22.58 163.121 21.68 162.806 20.945 162.176 20.375 161.546 19.806 160.721 19.52 159.701 19.52L154.031 19.52 154.031 25.55zM154.031 13.49L158.936 13.49C159.926 13.49 160.706 13.228 161.276 12.703 161.846 12.178 162.131 11.465 162.131 10.565 162.131 9.695 161.831 9.005 161.231 8.495 160.63 7.985 159.836 7.73 158.846 7.73L154.031 7.73 154.031 13.49zM171.401 23.525C171.401 25.175 170.935 26.638 170.006 27.912 169.076 29.188 167.763 30.178 166.068 30.882 164.373 31.588 162.386 31.94 160.106 31.94L146.246 31.94 146.246 1.34 159.521 1.34C162.821 1.34 165.423 2.053 167.328 3.478 169.233 4.903 170.186 6.846 170.186 9.305 170.186 11.009 169.758 12.468 168.903 13.679 168.048 14.89 166.975 15.78 165.686 16.348 167.425 16.89 168.813 17.792 169.849 19.057 170.883 20.321 171.401 21.81 171.401 23.525zM181.841 24.515C181.841 25.206 182.096 25.768 182.606 26.203 183.116 26.638 183.776 26.855 184.586 26.855 185.666 26.855 186.573 26.488 187.308 25.752 188.043 25.018 188.411 24.095 188.411 22.985L188.411 22.22C187.601 22.07 186.746 21.995 185.846 21.995 184.705 21.995 183.754 22.191 182.989 22.58 182.224 22.97 181.841 23.615 181.841 24.515zM188.726 31.94L188.321 28.925C186.821 31.326 184.541 32.525 181.481 32.525 180.131 32.525 178.908 32.233 177.814 31.648 176.718 31.063 175.848 30.26 175.203 29.24 174.558 28.221 174.236 27.035 174.236 25.685 174.236 23.136 175.233 21.156 177.229 19.745 179.223 18.335 181.856 17.63 185.126 17.63 186.146 17.63 187.225 17.72 188.366 17.9 188.246 16.76 187.758 15.898 186.903 15.313 186.048 14.728 185.006 14.435 183.776 14.435 182.696 14.435 181.608 14.638 180.514 15.042 179.418 15.448 178.376 15.936 177.386 16.505L174.731 11.465C176.231 10.505 177.851 9.763 179.591 9.238 181.33 8.713 183.071 8.45 184.811 8.45 186.911 8.45 188.801 8.81 190.481 9.53 192.161 10.25 193.481 11.346 194.441 12.815 195.401 14.286 195.881 16.145 195.881 18.395L195.881 31.94 188.726 31.94zM216.086 30.14C214.706 33.68 213.131 36.32 211.361 38.06 209.59 39.8 207.34 40.67 204.611 40.67 203.38 40.67 202.271 40.535 201.281 40.265 200.291 39.995 199.451 39.665 198.761 39.275L200.966 33.875C201.386 34.084 201.85 34.265 202.361 34.415 202.871 34.565 203.411 34.64 203.981 34.64 204.791 34.64 205.518 34.445 206.163 34.055 206.808 33.665 207.371 32.959 207.851 31.94L208.211 31.13 197.861 9.035 206.501 9.035 211.586 22.76 215.771 9.035 224.276 9.035 216.086 30.14"/>
    <path fill="#404040" d="M247 15.335L251.05 15.335C252.339 15.335 253.359 14.998 254.11 14.323 254.859 13.648 255.235 12.755 255.235 11.645 255.235 10.536 254.859 9.643 254.11 8.968 253.359 8.292 252.339 7.955 251.05 7.955L247 7.955 247 15.335zM238.9 31.94L238.9 1.34 251.86 1.34C255.46 1.34 258.309 2.263 260.41 4.108 262.509 5.953 263.56 8.465 263.56 11.645 263.56 13.715 263.087 15.508 262.142 17.023 261.197 18.538 259.87 19.708 258.16 20.533 256.45 21.358 254.409 21.77 252.04 21.77L247 21.77 247 31.94 238.9 31.94zM275.394 23.075L275.394 31.94 267.564 31.94 267.564 9.035 274.719 9.035 275.214 12.86C275.694 11.63 276.481 10.632 277.577 9.868 278.671 9.103 279.939 8.72 281.379 8.72 282.189 8.72 282.804 8.826 283.224 9.035L283.224 16.19C282.893 16.071 282.527 15.981 282.121 15.92 281.717 15.86 281.259 15.83 280.749 15.83 279.189 15.83 277.906 16.408 276.902 17.563 275.896 18.718 275.394 20.555 275.394 23.075M297.849 14.12C295.299 14.12 293.768 15.47 293.259 18.17L301.989 18.17C301.779 16.701 301.276 15.658 300.481 15.042 299.686 14.428 298.808 14.12 297.849 14.12zM308.559 29.6C307.418 30.41 305.971 31.101 304.216 31.67 302.461 32.24 300.594 32.525 298.614 32.525 295.884 32.525 293.551 32.022 291.616 31.017 289.682 30.013 288.196 28.61 287.161 26.81 286.126 25.01 285.609 22.94 285.609 20.6 285.609 18.231 286.119 16.13 287.139 14.3 288.158 12.471 289.569 11.038 291.369 10.002 293.169 8.968 295.268 8.45 297.669 8.45 300.009 8.45 302.071 8.953 303.856 9.957 305.641 10.963 307.036 12.358 308.041 14.143 309.046 15.928 309.549 18.02 309.549 20.42 309.549 20.75 309.526 21.095 309.481 21.455 309.436 21.815 309.384 22.191 309.324 22.58L293.349 22.58C294.069 25.22 296.033 26.54 299.244 26.54 300.684 26.54 301.958 26.315 303.069 25.865 304.178 25.415 305.109 24.965 305.859 24.515L308.559 29.6zM322.058 32.525C320.078 32.525 318.226 32.21 316.501 31.58 314.776 30.95 313.223 30.05 311.844 28.88L315.174 24.47C316.224 25.31 317.356 25.993 318.571 26.518 319.786 27.043 320.978 27.305 322.149 27.305 322.929 27.305 323.551 27.17 324.016 26.9 324.481 26.63 324.714 26.225 324.714 25.685 324.714 25.116 324.451 24.658 323.926 24.313 323.401 23.968 322.464 23.63 321.114 23.3L318.953 22.76C314.663 21.62 312.518 19.326 312.518 15.875 312.518 14.345 312.938 13.025 313.779 11.915 314.618 10.806 315.773 9.951 317.244 9.35 318.713 8.75 320.423 8.45 322.373 8.45 324.293 8.45 326.101 8.75 327.796 9.35 329.491 9.951 331.043 10.82 332.453 11.96L329.034 16.46C327.983 15.62 326.873 14.946 325.703 14.435 324.534 13.925 323.438 13.67 322.419 13.67 320.768 13.67 319.944 14.21 319.944 15.29 319.944 15.77 320.191 16.161 320.686 16.46 321.181 16.76 321.879 17.031 322.779 17.27L325.703 18.08C327.893 18.681 329.513 19.581 330.563 20.78 331.613 21.98 332.139 23.406 332.139 25.055 332.139 26.556 331.718 27.868 330.879 28.993 330.038 30.118 328.861 30.988 327.346 31.603 325.831 32.217 324.068 32.525 322.058 32.525M344.918 32.525C342.938 32.525 341.086 32.21 339.361 31.58 337.636 30.95 336.083 30.05 334.703 28.88L338.034 24.47C339.083 25.31 340.216 25.993 341.431 26.518 342.646 27.043 343.838 27.305 345.009 27.305 345.788 27.305 346.411 27.17 346.876 26.9 347.341 26.63 347.574 26.225 347.574 25.685 347.574 25.116 347.31 24.658 346.786 24.313 346.261 23.968 345.324 23.63 343.974 23.3L341.813 22.76C337.523 21.62 335.378 19.326 335.378 15.875 335.378 14.345 335.798 13.025 336.639 11.915 337.478 10.806 338.633 9.951 340.103 9.35 341.573 8.75 343.283 8.45 345.233 8.45 347.153 8.45 348.961 8.75 350.656 9.35 352.35 9.951 353.903 10.82 355.313 11.96L351.893 16.46C350.843 15.62 349.733 14.946 348.563 14.435 347.393 13.925 346.298 13.67 345.279 13.67 343.628 13.67 342.804 14.21 342.804 15.29 342.804 15.77 343.051 16.161 343.546 16.46 344.041 16.76 344.739 17.031 345.639 17.27L348.563 18.08C350.753 18.681 352.373 19.581 353.423 20.78 354.473 21.98 354.998 23.406 354.998 25.055 354.998 26.556 354.578 27.868 353.739 28.993 352.898 30.118 351.721 30.988 350.206 31.603 348.691 32.217 346.928 32.525 344.918 32.525M398.063 28.34C396.772 29.661 394.987 30.688 392.707 31.422 390.428 32.158 387.908 32.525 385.148 32.525 381.847 32.525 378.99 31.858 376.575 30.523 374.16 29.188 372.285 27.321 370.95 24.92 369.615 22.52 368.948 19.745 368.948 16.595 368.948 13.445 369.622 10.685 370.973 8.315 372.323 5.946 374.213 4.093 376.642 2.757 379.073 1.423 381.908.755 385.148.755 390.667.755 394.942 2.825 397.973 6.965L391.267 10.88C390.638 9.861 389.775 9.073 388.68 8.518 387.585 7.963 386.377 7.685 385.057 7.685 382.657 7.685 380.789 8.495 379.455 10.115 378.12 11.735 377.453 13.895 377.453 16.595 377.453 19.625 378.21 21.882 379.725 23.368 381.24 24.853 383.438 25.595 386.318 25.595 387.668 25.595 389.002 25.37 390.323 24.92L390.323 20.42 384.878 20.42 384.878 14.345 398.063 14.345 398.063 28.34M409.267 24.515C409.267 25.206 409.522 25.768 410.033 26.203 410.542 26.638 411.203 26.855 412.013 26.855 413.093 26.855 413.999 26.488 414.735 25.752 415.47 25.018 415.837 24.095 415.837 22.985L415.837 22.22C415.027 22.07 414.172 21.995 413.272 21.995 412.132 21.995 411.18 22.191 410.415 22.58 409.65 22.97 409.267 23.615 409.267 24.515zM416.152 31.94L415.747 28.925C414.247 31.326 411.968 32.525 408.908 32.525 407.557 32.525 406.335 32.233 405.24 31.648 404.144 31.063 403.275 30.26 402.63 29.24 401.984 28.221 401.662 27.035 401.662 25.685 401.662 23.136 402.66 21.156 404.655 19.745 406.65 18.335 409.282 17.63 412.553 17.63 413.572 17.63 414.652 17.72 415.792 17.9 415.672 16.76 415.185 15.898 414.33 15.313 413.475 14.728 412.432 14.435 411.203 14.435 410.122 14.435 409.035 14.638 407.94 15.042 406.845 15.448 405.803 15.936 404.812 16.505L402.158 11.465C403.657 10.505 405.277 9.763 407.017 9.238 408.757 8.713 410.497 8.45 412.237 8.45 414.337 8.45 416.227 8.81 417.908 9.53 419.587 10.25 420.907 11.346 421.868 12.815 422.827 14.286 423.307 16.145 423.307 18.395L423.307 31.94 416.152 31.94z"/>
    <polyline fill="#404040" points="447.247 26.09 447.247 31.94 426.953 31.94 426.953 27.035 437.392 14.885 427.627 14.885 427.627 9.035 446.888 9.035 446.888 13.94 436.537 26.09 447.247 26.09"/>
    <path fill="#404040" d="M462.367 14.12C459.817 14.12 458.286 15.47 457.777 18.17L466.507 18.17C466.296 16.701 465.794 15.658 464.999 15.042 464.204 14.428 463.327 14.12 462.367 14.12zM473.077 29.6C471.936 30.41 470.489 31.101 468.734 31.67 466.979 32.24 465.112 32.525 463.132 32.525 460.402 32.525 458.069 32.022 456.134 31.017 454.2 30.013 452.714 28.61 451.68 26.81 450.644 25.01 450.127 22.94 450.127 20.6 450.127 18.231 450.637 16.13 451.657 14.3 452.676 12.471 454.087 11.038 455.887 10.002 457.687 8.968 459.786 8.45 462.187 8.45 464.527 8.45 466.589 8.953 468.374 9.957 470.159 10.963 471.554 12.358 472.559 14.143 473.564 15.928 474.067 18.02 474.067 20.42 474.067 20.75 474.044 21.095 473.999 21.455 473.954 21.815 473.902 22.191 473.842 22.58L457.867 22.58C458.587 25.22 460.551 26.54 463.762 26.54 465.202 26.54 466.476 26.315 467.587 25.865 468.696 25.415 469.626 24.965 470.377 24.515L473.077 29.6zM494.947 30.455C494.016 31.085 492.951 31.588 491.751 31.962 490.551 32.337 489.291 32.525 487.972 32.525 485.511 32.525 483.554 31.813 482.099 30.388 480.643 28.963 479.916 27.05 479.916 24.65L479.916 14.885 476.182 14.885 476.182 9.035 480.277 9.035 481.266 2.645 487.746 2.645 487.746 9.035 493.731 9.035 493.731 14.885 487.746 14.885 487.746 23.66C487.746 24.441 487.978 25.048 488.444 25.483 488.909 25.918 489.531 26.135 490.311 26.135 490.701 26.135 491.099 26.061 491.504 25.91 491.909 25.76 492.291 25.581 492.652 25.37L494.947 30.455M515.557 30.455C514.626 31.085 513.561 31.588 512.361 31.962 511.161 32.337 509.901 32.525 508.581 32.525 506.121 32.525 504.163 31.813 502.709 30.388 501.253 28.963 500.526 27.05 500.526 24.65L500.526 14.885 496.791 14.885 496.791 9.035 500.887 9.035 501.876 2.645 508.356 2.645 508.356 9.035 514.341 9.035 514.341 14.885 508.356 14.885 508.356 23.66C508.356 24.441 508.588 25.048 509.054 25.483 509.518 25.918 510.141 26.135 510.921 26.135 511.311 26.135 511.709 26.061 512.114 25.91 512.519 25.76 512.901 25.581 513.262 25.37L515.557 30.455M529.461 14.12C526.911 14.12 525.381 15.47 524.871 18.17L533.601 18.17C533.391 16.701 532.888 15.658 532.094 15.042 531.298 14.428 530.421 14.12 529.461 14.12zM540.171 29.6C539.031 30.41 537.583 31.101 535.828 31.67 534.074 32.24 532.206 32.525 530.226 32.525 527.496 32.525 525.163 32.022 523.228 31.017 521.293 30.013 519.808 28.61 518.773 26.81 517.739 25.01 517.221 22.94 517.221 20.6 517.221 18.231 517.731 16.13 518.751 14.3 519.77 12.471 521.181 11.038 522.981 10.002 524.781 8.968 526.881 8.45 529.281 8.45 531.621 8.45 533.683 8.953 535.469 9.957 537.253 10.963 538.648 12.358 539.654 14.143 540.658 15.928 541.161 18.02 541.161 20.42 541.161 20.75 541.139 21.095 541.094 21.455 541.049 21.815 540.996 22.191 540.936 22.58L524.961 22.58C525.681 25.22 527.645 26.54 530.856 26.54 532.296 26.54 533.571 26.315 534.681 25.865 535.79 25.415 536.721 24.965 537.471 24.515L540.171 29.6z"/>
    <path fill="#009BFF" class='no-color-change' d="M549.271,32.435 C548.311,32.435 547.433,32.203 546.639,31.738 C545.844,31.273 545.214,30.643 544.749,29.848 C544.284,29.053 544.051,28.175 544.051,27.215 C544.051,26.255 544.284,25.378 544.749,24.582 C545.214,23.788 545.844,23.158 546.639,22.693 C547.433,22.228 548.311,21.995 549.271,21.995 C550.231,21.995 551.109,22.228 551.904,22.693 C552.699,23.158 553.328,23.788 553.794,24.582 C554.259,25.378 554.492,26.255 554.492,27.215 C554.492,28.175 554.259,29.053 553.794,29.848 C553.328,30.643 552.699,31.273 551.904,31.738 C551.109,32.203 550.231,32.435 549.271,32.435"/>
    <path fill="#404040" d="M4.936 42.252L6.216 42.252C6.637 42.252 6.97 42.148 7.214 41.941 7.459 41.735 7.582 41.452 7.582 41.094 7.582 40.736 7.459 40.454 7.214 40.247 6.97 40.039 6.637 39.936 6.216 39.936L4.936 39.936 4.936 42.252zM3.985 45.539L3.985 39.135 6.216 39.135C6.932 39.135 7.5 39.311 7.921 39.663 8.341 40.014 8.551 40.492 8.551 41.094 8.551 41.691 8.341 42.163 7.921 42.511 7.5 42.859 6.932 43.034 6.216 43.034L4.936 43.034 4.936 45.539 3.985 45.539zM10.473 43.128L12.808 43.128 11.64 40.124 10.473 43.128zM13.74 45.539L13.119 43.928 10.162 43.928 9.54 45.539 8.58 45.539 11.141 39.135 12.168 39.135 14.72 45.539 13.74 45.539zM16.735 42.158L18.044 42.158C18.452 42.158 18.777 42.058 19.018 41.857 19.26 41.656 19.381 41.386 19.381 41.047 19.381 40.708 19.26 40.438 19.018 40.237 18.777 40.036 18.452 39.936 18.044 39.936L16.735 39.936 16.735 42.158zM16.735 42.939L16.735 45.539 15.784 45.539 15.784 39.135 18.044 39.135C18.753 39.135 19.315 39.306 19.729 39.648 20.144 39.991 20.351 40.457 20.351 41.047 20.351 41.493 20.225 41.869 19.974 42.177 19.723 42.484 19.377 42.701 18.938 42.826L20.492 45.539 19.409 45.539 17.95 42.939 16.735 42.939z"/>
    <polyline fill="#404040" points="23.081 45.539 23.081 39.936 20.925 39.936 20.925 39.135 26.189 39.135 26.189 39.936 24.033 39.936 24.033 45.539 23.081 45.539"/>
    <path fill="#404040" d="M32.3,44.813 C32.715,44.813 33.083,44.708 33.407,44.498 C33.73,44.288 33.982,43.998 34.165,43.627 C34.347,43.257 34.438,42.826 34.438,42.337 C34.438,41.847 34.347,41.417 34.165,41.047 C33.982,40.677 33.73,40.386 33.407,40.176 C33.083,39.966 32.715,39.86 32.3,39.86 C31.886,39.86 31.519,39.966 31.198,40.176 C30.878,40.386 30.627,40.677 30.445,41.047 C30.263,41.417 30.172,41.847 30.172,42.337 C30.172,42.826 30.263,43.257 30.445,43.627 C30.627,43.998 30.878,44.288 31.198,44.498 C31.519,44.708 31.886,44.813 32.3,44.813 Z M32.3,45.642 C31.698,45.642 31.164,45.501 30.699,45.219 C30.235,44.936 29.869,44.547 29.602,44.051 C29.335,43.555 29.202,42.984 29.202,42.337 C29.202,41.691 29.335,41.119 29.602,40.623 C29.869,40.127 30.235,39.738 30.699,39.456 C31.164,39.173 31.698,39.032 32.3,39.032 C32.903,39.032 33.438,39.173 33.906,39.456 C34.373,39.738 34.74,40.127 35.008,40.623 C35.274,41.119 35.407,41.691 35.407,42.337 C35.407,42.984 35.274,43.555 35.008,44.051 C34.74,44.547 34.373,44.936 33.906,45.219 C33.438,45.501 32.903,45.642 32.3,45.642 Z"/>
    <polyline fill="#404040" points="37.696 45.539 36.745 45.539 36.745 39.135 40.728 39.135 40.728 39.936 37.696 39.936 37.696 42.102 40.267 42.102 40.267 42.902 37.696 42.902 37.696 45.539"/>
    <polyline fill="#404040" points="45.69 45.539 45.69 39.936 43.534 39.936 43.534 39.135 48.798 39.135 48.798 39.936 46.642 39.936 46.642 45.539 45.69 45.539"/>
    <polyline fill="#404040" points="49.89 45.539 49.89 39.135 50.841 39.135 50.841 41.876 54.146 41.876 54.146 39.135 55.097 39.135 55.097 45.539 54.146 45.539 54.146 42.695 50.841 42.695 50.841 45.539 49.89 45.539"/>
    <polyline fill="#404040" points="56.774 45.539 56.774 39.135 60.879 39.135 60.879 39.936 57.725 39.936 57.725 41.913 60.502 41.913 60.502 42.713 57.725 42.713 57.725 44.738 60.955 44.738 60.955 45.539 56.774 45.539"/>
    <path fill="#404040" d="M66.962 44.813C67.483 44.813 67.893 44.657 68.191 44.343 68.489 44.029 68.638 43.605 68.638 43.071L68.638 39.135 69.589 39.135 69.589 43.081C69.589 43.878 69.355 44.504 68.888 44.959 68.42 45.415 67.778 45.642 66.962 45.642 66.146 45.642 65.506 45.415 65.041 44.959 64.577 44.504 64.344 43.878 64.344 43.081L64.344 39.135 65.296 39.135 65.296 43.071C65.296 43.605 65.445 44.029 65.743 44.343 66.041 44.657 66.447 44.813 66.962 44.813M73.139 45.642C72.656 45.642 72.194 45.557 71.755 45.388 71.316 45.219 70.961 44.992 70.691 44.71L71.228 44.079C71.479 44.312 71.775 44.493 72.118 44.625 72.46 44.757 72.8 44.823 73.139 44.823 73.554 44.823 73.888 44.743 74.142 44.583 74.396 44.422 74.524 44.201 74.524 43.919 74.524 43.661 74.432 43.445 74.25 43.269 74.068 43.093 73.758 42.946 73.318 42.826L72.433 42.591C71.862 42.441 71.446 42.227 71.185 41.951 70.925 41.675 70.795 41.314 70.795 40.868 70.795 40.504 70.892 40.184 71.086 39.907 71.281 39.631 71.549 39.417 71.892 39.262 72.234 39.109 72.621 39.032 73.055 39.032 73.513 39.032 73.943 39.118 74.345 39.291 74.746 39.463 75.101 39.704 75.409 40.011L74.834 40.633C74.564 40.382 74.283 40.188 73.992 40.053 73.7 39.918 73.39 39.851 73.064 39.851 72.668 39.851 72.345 39.934 72.094 40.101 71.843 40.267 71.718 40.498 71.718 40.792 71.718 41.062 71.807 41.273 71.986 41.424 72.165 41.574 72.439 41.7 72.81 41.8L73.799 42.073C74.37 42.23 74.787 42.45 75.051 42.733 75.315 43.015 75.446 43.367 75.446 43.787 75.446 44.158 75.349 44.482 75.155 44.762 74.96 45.041 74.69 45.257 74.345 45.411 73.999 45.565 73.598 45.642 73.139 45.642M77.838 43.128L80.174 43.128 79.006 40.124 77.838 43.128zM81.106 45.539L80.484 43.928 77.527 43.928 76.906 45.539 75.945 45.539 78.507 39.135 79.533 39.135 82.085 45.539 81.106 45.539z"/>
    <polyline fill="#404040" points="86.511 45.539 86.511 39.936 84.354 39.936 84.354 39.135 89.618 39.135 89.618 39.936 87.462 39.936 87.462 45.539 86.511 45.539"/>
    <path fill="#404040" d="M93.046 44.813C93.46 44.813 93.829 44.708 94.153 44.498 94.476 44.288 94.728 43.998 94.91 43.627 95.092 43.257 95.184 42.826 95.184 42.337 95.184 41.847 95.092 41.417 94.91 41.047 94.728 40.677 94.476 40.386 94.153 40.176 93.829 39.966 93.46 39.86 93.046 39.86 92.632 39.86 92.264 39.966 91.944 40.176 91.624 40.386 91.373 40.677 91.191 41.047 91.009 41.417 90.918 41.847 90.918 42.337 90.918 42.826 91.009 43.257 91.191 43.627 91.373 43.998 91.624 44.288 91.944 44.498 92.264 44.708 92.632 44.813 93.046 44.813zM93.046 45.642C92.443 45.642 91.91 45.501 91.445 45.219 90.981 44.936 90.615 44.547 90.348 44.051 90.081 43.555 89.948 42.984 89.948 42.337 89.948 41.691 90.081 41.119 90.348 40.623 90.615 40.127 90.981 39.738 91.445 39.456 91.91 39.173 92.443 39.032 93.046 39.032 93.649 39.032 94.184 39.173 94.652 39.456 95.119 39.738 95.486 40.127 95.753 40.623 96.02 41.119 96.153 41.691 96.153 42.337 96.153 42.984 96.02 43.555 95.753 44.051 95.486 44.547 95.119 44.936 94.652 45.219 94.184 45.501 93.649 45.642 93.046 45.642zM98.442 44.738L99.741 44.738C100.193 44.738 100.581 44.639 100.904 44.442 101.227 44.244 101.475 43.966 101.648 43.608 101.821 43.25 101.907 42.826 101.907 42.337 101.907 41.847 101.821 41.424 101.648 41.066 101.475 40.708 101.227 40.43 100.904 40.232 100.581 40.035 100.193 39.936 99.741 39.936L98.442 39.936 98.442 44.738zM97.491 45.539L97.491 39.135 99.741 39.135C100.369 39.135 100.918 39.269 101.389 39.536 101.86 39.803 102.225 40.176 102.486 40.656 102.746 41.136 102.877 41.697 102.877 42.337 102.877 42.977 102.746 43.537 102.486 44.018 102.225 44.498 101.86 44.872 101.389 45.138 100.918 45.405 100.369 45.539 99.741 45.539L97.491 45.539zM105.306 43.128L107.642 43.128 106.474 40.124 105.306 43.128zM108.574 45.539L107.952 43.928 104.995 43.928 104.374 45.539 103.413 45.539 105.975 39.135 107.001 39.135 109.553 45.539 108.574 45.539z"/>
    <polyline fill="#404040" points="112.472 42.996 112.472 45.539 111.521 45.539 111.521 42.996 109.271 39.135 110.391 39.135 112.002 42.092 113.612 39.135 114.713 39.135 112.472 42.996"/>
    <polyline fill="#404040" points="122.322 45.539 118.904 40.633 118.904 45.539 118.009 45.539 118.009 39.135 118.894 39.135 122.322 44.041 122.322 39.135 123.207 39.135 123.207 45.539 122.322 45.539"/>
    <polyline fill="#404040" points="124.883 45.539 124.883 39.135 128.989 39.135 128.989 39.936 125.834 39.936 125.834 41.913 128.612 41.913 128.612 42.713 125.834 42.713 125.834 44.738 129.064 44.738 129.064 45.539 124.883 45.539"/>
    <polyline fill="#404040" points="131.889 45.539 131.889 39.936 129.733 39.936 129.733 39.135 134.997 39.135 134.997 39.936 132.84 39.936 132.84 45.539 131.889 45.539"/>
    <polyline fill="#404040" points="141.211 45.539 139.714 40.435 138.217 45.539 137.228 45.539 135.524 39.135 136.465 39.135 137.765 44.201 139.262 39.135 140.166 39.135 141.673 44.22 142.982 39.135 143.905 39.135 142.2 45.539 141.211 45.539"/>
    <path fill="#404040" d="M147.681 44.813C148.095 44.813 148.464 44.708 148.787 44.498 149.111 44.288 149.363 43.998 149.545 43.627 149.727 43.257 149.819 42.826 149.819 42.337 149.819 41.847 149.727 41.417 149.545 41.047 149.363 40.677 149.111 40.386 148.787 40.176 148.464 39.966 148.095 39.86 147.681 39.86 147.267 39.86 146.899 39.966 146.579 40.176 146.259 40.386 146.008 40.677 145.826 41.047 145.644 41.417 145.553 41.847 145.553 42.337 145.553 42.826 145.644 43.257 145.826 43.627 146.008 43.998 146.259 44.288 146.579 44.498 146.899 44.708 147.267 44.813 147.681 44.813zM147.681 45.642C147.078 45.642 146.545 45.501 146.08 45.219 145.616 44.936 145.25 44.547 144.983 44.051 144.716 43.555 144.583 42.984 144.583 42.337 144.583 41.691 144.716 41.119 144.983 40.623 145.25 40.127 145.616 39.738 146.08 39.456 146.545 39.173 147.078 39.032 147.681 39.032 148.284 39.032 148.819 39.173 149.287 39.456 149.754 39.738 150.121 40.127 150.388 40.623 150.655 41.119 150.788 41.691 150.788 42.337 150.788 42.984 150.655 43.555 150.388 44.051 150.121 44.547 149.754 44.936 149.287 45.219 148.819 45.501 148.284 45.642 147.681 45.642zM153.077 42.158L154.385 42.158C154.793 42.158 155.118 42.058 155.36 41.857 155.602 41.656 155.723 41.386 155.723 41.047 155.723 40.708 155.602 40.438 155.36 40.237 155.118 40.036 154.793 39.936 154.385 39.936L153.077 39.936 153.077 42.158zM153.077 42.939L153.077 45.539 152.125 45.539 152.125 39.135 154.385 39.135C155.095 39.135 155.657 39.306 156.071 39.648 156.485 39.991 156.692 40.457 156.692 41.047 156.692 41.493 156.567 41.869 156.316 42.177 156.065 42.484 155.719 42.701 155.28 42.826L156.834 45.539 155.751 45.539 154.291 42.939 153.077 42.939z"/>
    <polyline fill="#404040" points="161.862 45.539 158.99 42.309 158.99 45.539 158.039 45.539 158.039 39.135 158.99 39.135 158.99 41.941 161.674 39.135 162.851 39.135 159.998 42.073 163.058 45.539 161.862 45.539"/>
  </g>
</svg>
