<svg xmlns="http://www.w3.org/2000/svg" width="349" height="55" viewBox="0 0 349 55">
  <g fill="none" fill-rule="evenodd">
    <path class='no-color-change' fill="#009BFF" d="M54.177,27.824 C54.177,42.736 42.09,54.824 27.177,54.824 C12.264,54.824 0.177,42.736 0.177,27.824 C0.177,12.911 12.264,0.824 27.177,0.824 C42.09,0.824 54.177,12.911 54.177,27.824"/>
    <path fill="#404040" d="M69.536 21.551C70.516 21.551 71.272 21.263 71.805 20.686 72.338 20.109 72.606 19.288 72.606 18.22L72.606 7.441 77.484 7.441 77.484 18.194C77.484 20.555 76.793 22.382 75.411 23.676 74.031 24.97 72.072 25.617 69.536 25.617 67.001 25.617 65.042 24.97 63.661 23.676 62.28 22.382 61.589 20.555 61.589 18.194L61.589 7.441 66.468 7.441 66.468 18.22C66.468 19.288 66.735 20.109 67.268 20.686 67.801 21.263 68.557 21.551 69.536 21.551M87.241 25.617C85.789 25.617 84.399 25.368 83.071 24.87 81.742 24.371 80.587 23.659 79.609 22.732L81.969 19.768C82.668 20.397 83.454 20.892 84.329 21.249 85.203 21.608 86.165 21.788 87.214 21.788 87.913 21.788 88.464 21.665 88.867 21.42 89.269 21.175 89.47 20.808 89.47 20.319 89.47 19.846 89.235 19.466 88.762 19.178 88.29 18.889 87.459 18.587 86.271 18.273L85.169 17.984C83.56 17.565 82.336 16.922 81.496 16.056 80.658 15.191 80.238 14.094 80.238 12.765 80.238 11.628 80.534 10.631 81.129 9.775 81.724 8.918 82.546 8.258 83.595 7.794 84.644 7.331 85.86 7.099 87.241 7.099 88.605 7.099 89.908 7.349 91.149 7.847 92.39 8.345 93.492 9.023 94.453 9.879L92.014 12.949C91.385 12.407 90.646 11.934 89.798 11.532 88.95 11.13 88.107 10.929 87.267 10.929 86.568 10.929 86.03 11.047 85.654 11.283 85.278 11.519 85.09 11.865 85.09 12.319 85.09 12.739 85.286 13.102 85.68 13.408 86.074 13.713 86.751 13.997 87.713 14.26L89.05 14.627C90.974 15.152 92.333 15.869 93.129 16.778 93.924 17.687 94.323 18.745 94.323 19.952 94.323 21.088 94.03 22.08 93.444 22.928 92.858 23.777 92.032 24.437 90.965 24.909 89.899 25.38 88.658 25.617 87.241 25.617M102.48 18.326L106.702 18.326 104.605 12.082 102.48 18.326zM109.063 25.276L107.936 21.945 101.247 21.945 100.119 25.276 95.293 25.276 101.825 7.441 107.49 7.441 114.021 25.276 109.063 25.276 109.063 25.276z"/>
    <polyline fill="#404040" points="125.219 25.276 125.219 11.374 119.921 11.374 119.921 7.441 135.396 7.441 135.396 11.374 130.098 11.374 130.098 25.276 125.219 25.276"/>
    <path fill="#404040" d="M145.599 21.578C146.455 21.578 147.202 21.359 147.841 20.922 148.48 20.485 148.982 19.877 149.349 19.099 149.716 18.321 149.901 17.416 149.901 16.384 149.901 15.353 149.716 14.444 149.349 13.657 148.982 12.87 148.48 12.253 147.841 11.807 147.202 11.362 146.455 11.139 145.599 11.139 144.742 11.139 143.994 11.362 143.356 11.807 142.718 12.253 142.215 12.87 141.848 13.657 141.481 14.444 141.297 15.353 141.297 16.384 141.297 17.416 141.481 18.321 141.848 19.099 142.215 19.877 142.718 20.485 143.356 20.922 143.994 21.359 144.742 21.578 145.599 21.578zM145.599 25.617C143.815 25.617 142.229 25.223 140.838 24.437 139.449 23.65 138.351 22.561 137.546 21.171 136.743 19.781 136.34 18.186 136.34 16.384 136.34 15.02 136.567 13.775 137.022 12.647 137.477 11.519 138.123 10.539 138.963 9.709 139.802 8.879 140.782 8.236 141.901 7.782 143.019 7.327 144.252 7.099 145.599 7.099 146.945 7.099 148.178 7.327 149.297 7.782 150.415 8.236 151.395 8.879 152.235 9.709 153.074 10.539 153.721 11.519 154.175 12.647 154.63 13.775 154.858 15.02 154.858 16.384 154.858 18.186 154.455 19.781 153.651 21.171 152.846 22.561 151.749 23.65 150.36 24.437 148.969 25.223 147.382 25.617 145.599 25.617L145.599 25.617zM162.463 21.42L164.693 21.42C165.969 21.42 166.979 20.957 167.722 20.03 168.465 19.104 168.837 17.879 168.837 16.358 168.837 14.836 168.465 13.613 167.722 12.686 166.979 11.759 165.969 11.296 164.693 11.296L162.463 11.296 162.463 21.42zM157.663 25.276L157.663 7.441 164.693 7.441C166.459 7.441 168.02 7.821 169.374 8.581 170.73 9.342 171.792 10.391 172.562 11.729 173.33 13.067 173.715 14.61 173.715 16.358 173.715 18.107 173.33 19.65 172.562 20.988 171.792 22.325 170.73 23.374 169.374 24.135 168.02 24.896 166.459 25.276 164.693 25.276L157.663 25.276 157.663 25.276zM181.532 18.326L185.754 18.326 183.657 12.082 181.532 18.326zM188.115 25.276L186.988 21.945 180.299 21.945 179.171 25.276 174.345 25.276 180.876 7.441 186.541 7.441 193.073 25.276 188.115 25.276 188.115 25.276z"/>
    <polyline fill="#404040" points="202.514 18.85 202.514 25.276 197.556 25.276 197.556 18.85 191.236 7.441 196.743 7.441 200.048 14.522 203.327 7.441 208.834 7.441 202.514 18.85"/>
    <polyline fill="#404040" points="227.797 25.276 220.794 14.995 220.794 25.276 216.309 25.276 216.309 7.441 220.768 7.441 227.744 17.906 227.744 7.441 232.256 7.441 232.256 25.276 227.797 25.276"/>
    <polyline fill="#404040" points="236.191 25.276 236.191 7.441 248.493 7.441 248.493 11.348 240.965 11.348 240.965 14.365 247.653 14.365 247.653 18.273 240.965 18.273 240.965 21.368 248.912 21.368 248.912 25.276 236.191 25.276"/>
    <polyline fill="#404040" points="255.914 25.276 255.914 11.374 250.617 11.374 250.617 7.441 266.091 7.441 266.091 11.374 260.793 11.374 260.793 25.276 255.914 25.276"/>
    <polyline fill="#404040" points="282.562 25.276 279.677 13.683 276.791 25.276 271.624 25.276 267.192 7.441 271.913 7.441 274.615 19.611 277.605 7.441 281.775 7.441 284.739 19.532 287.519 7.441 292.161 7.441 287.729 25.276 282.562 25.276"/>
    <path fill="#404040" d="M302.548 21.578C303.405 21.578 304.152 21.359 304.79 20.922 305.429 20.485 305.931 19.877 306.298 19.099 306.665 18.321 306.85 17.416 306.85 16.384 306.85 15.353 306.665 14.444 306.298 13.657 305.931 12.87 305.429 12.253 304.79 11.807 304.152 11.362 303.405 11.139 302.548 11.139 301.691 11.139 300.944 11.362 300.305 11.807 299.667 12.253 299.164 12.87 298.797 13.657 298.43 14.444 298.246 15.353 298.246 16.384 298.246 17.416 298.43 18.321 298.797 19.099 299.164 19.877 299.667 20.485 300.305 20.922 300.944 21.359 301.691 21.578 302.548 21.578zM302.548 25.617C300.764 25.617 299.178 25.223 297.787 24.437 296.398 23.65 295.3 22.561 294.495 21.171 293.692 19.781 293.289 18.186 293.289 16.384 293.289 15.02 293.516 13.775 293.971 12.647 294.426 11.519 295.073 10.539 295.912 9.709 296.751 8.879 297.731 8.236 298.85 7.782 299.968 7.327 301.202 7.099 302.548 7.099 303.894 7.099 305.127 7.327 306.246 7.782 307.365 8.236 308.344 8.879 309.184 9.709 310.023 10.539 310.67 11.519 311.124 12.647 311.579 13.775 311.807 15.02 311.807 16.384 311.807 18.186 311.405 19.781 310.6 21.171 309.795 22.561 308.699 23.65 307.309 24.437 305.918 25.223 304.331 25.617 302.548 25.617L302.548 25.617zM319.387 15.65L322.01 15.65C322.761 15.65 323.356 15.454 323.793 15.06 324.23 14.666 324.449 14.128 324.449 13.447 324.449 12.8 324.23 12.28 323.793 11.886 323.356 11.493 322.761 11.296 322.01 11.296L319.387 11.296 319.387 15.65zM319.387 19.348L319.387 25.276 314.665 25.276 314.665 7.441 322.535 7.441C324.632 7.441 326.293 7.978 327.518 9.053 328.742 10.128 329.354 11.593 329.354 13.447 329.354 14.653 329.082 15.694 328.54 16.568 327.998 17.443 327.238 18.124 326.259 18.614L329.905 25.276 324.711 25.276 321.747 19.348 319.387 19.348 319.387 19.348z"/>
    <polyline fill="#404040" points="343.044 25.276 337.379 16.556 337.379 25.276 332.527 25.276 332.527 7.441 337.379 7.441 337.379 15.27 343.254 7.441 348.868 7.441 342.258 15.637 348.737 25.276 343.044 25.276"/>
    <path class='no-color-change' fill="#009BFF" d="M77.877 46.031C77.125 46.8 76.084 47.4 74.756 47.828 73.427 48.256 71.958 48.47 70.35 48.47 68.426 48.47 66.76 48.081 65.353 47.303 63.946 46.525 62.853 45.437 62.075 44.038 61.296 42.639 60.908 41.021 60.908 39.185 60.908 37.349 61.301 35.741 62.088 34.36 62.874 32.978 63.976 31.898 65.393 31.121 66.809 30.342 68.461 29.953 70.35 29.953 73.567 29.953 76.059 31.16 77.825 33.573L73.916 35.854C73.549 35.26 73.047 34.801 72.408 34.477 71.77 34.154 71.067 33.993 70.297 33.993 68.898 33.993 67.81 34.464 67.032 35.409 66.253 36.353 65.865 37.612 65.865 39.185 65.865 40.952 66.306 42.267 67.189 43.133 68.072 43.998 69.353 44.431 71.032 44.431 71.819 44.431 72.596 44.3 73.366 44.038L73.366 41.414 70.193 41.414 70.193 37.873 77.877 37.873 77.877 46.031M88.788 44.405C89.768 44.405 90.524 44.117 91.057 43.539 91.59 42.962 91.858 42.141 91.858 41.074L91.858 30.294 96.736 30.294 96.736 41.047C96.736 43.409 96.045 45.236 94.663 46.53 93.283 47.824 91.324 48.47 88.788 48.47 86.253 48.47 84.294 47.824 82.913 46.53 81.532 45.236 80.841 43.409 80.841 41.047L80.841 30.294 85.72 30.294 85.72 41.074C85.72 42.141 85.987 42.962 86.52 43.539 87.053 44.117 87.809 44.405 88.788 44.405M105.391 41.179L109.614 41.179 107.516 34.936 105.391 41.179zM111.974 48.129L110.847 44.798 104.159 44.798 103.031 48.129 98.204 48.129 104.736 30.294 110.401 30.294 116.932 48.129 111.974 48.129 111.974 48.129z"/>
    <polyline class='no-color-change' fill="#009BFF" points="127.449 46.477 123.383 37.061 123.383 48.129 119.265 48.129 119.265 30.294 124.721 30.294 129.39 41.441 133.927 30.294 139.382 30.294 139.382 48.129 135.317 48.129 135.317 36.93 131.2 46.477 127.449 46.477"/>
  </g>
</svg>
