<svg xmlns="http://www.w3.org/2000/svg" xmlns:xlink="http://www.w3.org/1999/xlink" width="720" height="97" viewBox="0 0 720 97">
  <defs>
    <style>
      .cls-1 {
        filter: url(#filter);
      }

      .cls-2, .cls-3 {
        fill: #fff;
        fill-rule: evenodd;
      }

      .cls-3 {
        filter: url(#filter-2);
      }
    </style>
    <filter id="filter" filterUnits="userSpaceOnUse">
      <feFlood result="flood" flood-color="#333"/>
      <feComposite result="composite" operator="in" in2="SourceGraphic"/>
      <feBlend result="blend" in2="SourceGraphic"/>
    </filter>
    <filter id="filter-2" x="57" y="80.969" width="367.969" height="16" filterUnits="userSpaceOnUse">
      <feFlood result="flood" flood-color="#999"/>
      <feComposite result="composite" operator="in" in2="SourceGraphic"/>
      <feBlend result="blend" in2="SourceGraphic"/>
    </filter>
  </defs>
  <g id="Guam" class="cls-1">
    <path id="Guam_Logo" data-name="Guam Logo" class="cls-2" d="M72.693,2.793H57.265V65.549h4.487v-26.9H72.693c10.857,0,19.2-6.635,19.2-18.021S83.729,2.793,72.693,2.793ZM72.6,34.171H61.751V7.276H72.6c9.242,0,14.536,5.469,14.536,13.448S81.845,34.171,72.6,34.171Zm60.93-4.483h0.083c-3.32-5.977-9.151-9.765-17.5-9.765-14.535,0-22.341,11.612-22.341,23.266s7.806,23.237,22.341,23.237c8.345,0,14.176-3.867,17.5-9.843h-0.083v8.965h4.486V20.724h-4.486v8.965ZM116.121,62.424c-10.229,0-17.675-8.16-17.675-19.185s7.446-19.185,17.675-19.185S133.8,32.212,133.8,43.239,126.35,62.424,116.121,62.424ZM150.4,43.239c0-10.938,7.7-19.185,18.292-19.185a19.842,19.842,0,0,1,11.2,3.407v-4.84a24.564,24.564,0,0,0-11.113-2.6c-15.165,0-23.009,12.012-23.009,23.309s7.773,23.128,22.757,23.128a23.888,23.888,0,0,0,11.365-2.869V58.747a17.55,17.55,0,0,1-11.2,3.677C157.654,62.424,150.4,54,150.4,43.239Zm39.57-36.666a3.3,3.3,0,0,0-3.41,3.406,3.41,3.41,0,0,0,6.82,0A3.3,3.3,0,0,0,189.967,6.573Zm-2.6,58.976h4.486V20.724h-4.486V65.549Zm17.945-49.922v5.1h-5.982v4.483h5.982V65.549H209.8V25.206h13.459V20.724H209.8V16.075c0-7.351,3.186-10.489,8.569-10.489a10.839,10.839,0,0,1,4.89,1.166V2.18a17.733,17.733,0,0,0-5.249-.808C210.117,1.372,205.316,6.573,205.316,15.627Zm22.432,49.922h4.487V20.724h-4.487V65.549Zm1.7-58.976a3.3,3.3,0,0,0-3.41,3.406,3.41,3.41,0,0,0,6.82,0A3.3,3.3,0,0,0,229.447,6.573ZM243.8,43.239c0-10.938,7.361-19.185,17.949-19.185,4.844,0,9.364,1.523,10.859,3.407v-4.84c-1.5-1.436-6.1-2.6-10.77-2.6-15.164,0-22.837,12.012-22.837,23.309s8.263,23.128,23.25,23.128a26.033,26.033,0,0,0,11.853-2.869V58.747A18.756,18.756,0,0,1,262.5,62.424C251.464,62.424,243.8,54,243.8,43.239ZM309.3,2.793H289.063V65.549H309.3c20.906,0,34.184-11.834,34.184-31.378C343.488,14.359,330.479,2.793,309.3,2.793Zm-1.078,50.8h-5.7V13.253h5.7c13.1,0,21.176,6.544,21.176,20.17S321.326,53.6,308.226,53.6Zm75.051-25.4H382.7c-2.962-4.483-7.628-7.806-14.895-7.806-13.28,0-22.342,9.855-22.342,22.675,0,10.669,6.012,23.763,22.342,23.763,7.267,0,11.933-4.265,14.895-7.254h0.575v5.977h11.964V20.724H383.277v7.471ZM370.409,55.789c-7.178,0-11.754-5.648-11.754-12.55,0-6.724,4.127-12.552,11.754-12.552s11.843,5.918,11.843,12.552C382.252,50.14,377.676,55.789,370.409,55.789Zm32.309,9.76h11.964V20.724H402.718V65.549Zm5.735-63.907a7.416,7.416,0,0,0-7.715,7.351,7.414,7.414,0,0,0,7.715,7.35c4.4,0,7.806-3.137,7.806-7.35S412.851,1.642,408.453,1.642Zm13.706,63.907h13.46V2.793h-13.46V65.549ZM464.084,43.63a70.889,70.889,0,0,0-2.512,8.472h-0.18c-0.18-1.494-2.243-7.576-2.6-8.65l-8.344-22.728H436.27L454.483,63.76l-1.794,4.217a7.1,7.1,0,0,1-6.966,4.888,12.259,12.259,0,0,1-5.618-1.119V82.055a27.282,27.282,0,0,0,7.144,1.077c11.4,0,15.235-6.105,18.825-14.711l20.172-47.7H472.517Zm80.7-9.8c0,3.407-.245,9.681.023,11.654l-0.435.091c-0.9-1.795-4.749-6.822-6.992-9.511L509.217,2.793H496.933V65.549h13.459V34.005c0-3.406-.14-9.683-0.409-11.654l0.246-.089a92.737,92.737,0,0,0,6.9,9.765l28.161,33.523h11.466V2.793H544.788V33.826ZM585.934,20.02c-17.5,0-23.777,12.908-23.777,23.218,0,11.475,7.9,23.218,25.3,23.218,9.422,0,16.151-3.406,19.83-8.338l-7.178-7.351c-2.243,3.139-6.1,5.659-12.024,5.659-6.459,0-12.381-2.831-13.009-10.3h33.915a23.018,23.018,0,0,0,.271-3.236C609.263,32.937,603.43,20.02,585.934,20.02ZM575.077,38.654c1.256-5.977,5.653-9.055,10.857-9.055s9.51,3.079,10.766,9.055H575.077Zm95.11-17.93-6.371,22.533A73.009,73.009,0,0,0,661.662,53.6h-0.268a74.041,74.041,0,0,0-2.155-10.249l-6.37-22.623h-13.1L633.4,43.346A74.359,74.359,0,0,0,631.246,53.6h-0.269a73.009,73.009,0,0,0-2.154-10.339l-6.459-22.533h-13.37l14.895,44.825h13.189l6.82-21.966a74.263,74.263,0,0,0,2.063-9.411h0.358a74.461,74.461,0,0,0,2.064,9.411l6.82,21.966h13.189l14.895-44.825h-13.1ZM704.911,37.77c-3.949-1.164-7.985-1.792-7.985-4.751,0-2.062,1.973-3.587,5.922-3.587a12.978,12.978,0,0,1,9.51,3.946l6.191-7.62c-2.692-2.69-7.716-5.737-15.881-5.737-10.5,0-18.394,5.11-18.394,13.716,0,7.888,6.64,11.294,13.548,13.267,4.846,1.345,8.883,1.973,8.883,5.559,0,2.869-2.6,4.482-6.729,4.482a15.44,15.44,0,0,1-11.844-5.737l-6.19,7.439c3.23,4.214,9.51,7.71,18.214,7.71,11.215,0,19.2-5.737,19.2-14.791C719.356,43.148,712.269,39.92,704.911,37.77ZM43.1,54.177C41.538,51.29,21.185,1.072,20.979.564a0.638,0.638,0,0,0-1.224.16c-0.015.108-1.358,10.836-4.327,18.415-3.3,8.4-10.461,16.484-10.533,16.564a0.636,0.636,0,0,0-.16.394c-0.155,3.257,31.467,16,31.791,16.077a5.261,5.261,0,0,1,3.609,3.575,10.814,10.814,0,0,1-2.861.379,4.357,4.357,0,0,1-.971-0.085,20.91,20.91,0,0,1-2.77-1.357A37.965,37.965,0,0,0,27.278,51.8l-1.151-.341c-3.775-1.115-10.8-3.19-13.488-4.906a40.887,40.887,0,0,1-5.031-4.294c-2.3-2.17-2.941-2.721-3.512-2.721a0.849,0.849,0,0,0-.708.391c-0.724,1.074.133,5.694,0.86,7.507,1.138,2.835,3.941,5.219,5.07,6.1C8.566,54.718,7.4,56.167,6.707,56.243c-1.021,0-3.414-2.775-4.313-3.823l-0.374-.433A1.061,1.061,0,0,0,.2,52c-0.5.887-.284,3.13,0.951,5.2C3.48,61.11,8.138,64.808,14.992,68.193c5.214,2.577,9.283,3.881,12.1,3.881a7.373,7.373,0,0,0,2.448-.388c1.493-.5,3.026-2.911,2.944-3.9a0.834,0.834,0,0,0-.7-0.8,28.521,28.521,0,0,1-8.407-3.139c0.4-.721,1.993-2.419,2.653-2.428,0.632,0.342,6.3,3.321,10.658,3.321,4.091,0,8.711-5.632,8.909-5.875a0.634,0.634,0,0,0-.025-0.832A22,22,0,0,1,43.1,54.177ZM19.163,62.224a28.12,28.12,0,0,1-3.837-1.382,20.847,20.847,0,0,1-3.668-2.163l2.1-2.621L21.657,59.5Z"/>
    <path id="USAT_Network" data-name="USAT Network" class="cls-3" d="M56.989,81.273h4.489c3.156,0,5.267,1.865,5.267,4.741S64.59,90.75,61.478,90.75H59.188v5.924h-2.2v-15.4Zm4.267,7.66c2.112,0,3.244-1.163,3.244-2.919,0-1.735-1.132-2.919-3.244-2.919H59.188v5.837h2.067Zm11.768-7.66H74.98l6.4,15.4H79.022l-1.6-4.034H70.513l-1.6,4.034H66.6S72.244,83.162,73.024,81.273Zm3.665,9.544L75.2,87.023c-0.221-.572-1.179-2.943-1.2-3.14H73.957c-0.022.2-.955,2.5-1.2,3.14l-1.51,3.794h5.443Zm6.924-9.544h4.51c2.91,0,5.178,1.5,5.178,4.563a4.293,4.293,0,0,1-3.955,4.346l4.778,6.491H91.545L87.035,90.4H85.812v6.275h-2.2v-15.4Zm4.267,7.352c2.043,0,3.2-1.077,3.2-2.765s-1.157-2.765-3.2-2.765H85.812v5.53H87.88ZM99.4,83.138H94.957V81.273h11.088v1.865H101.6V96.674H99.4V83.138Zm12.347,5.837a8.2,8.2,0,1,1,8.2,8.006A7.862,7.862,0,0,1,111.749,88.976Zm14.133,0a5.946,5.946,0,1,0-5.955,6.054A5.772,5.772,0,0,0,125.882,88.976Zm5.433-7.7h7.867v1.865h-5.668V88.1H139v1.866h-5.49v6.712h-2.2v-15.4Zm17.815,1.865h-4.444V81.273h11.088v1.865H151.33V96.674h-2.2V83.138Zm8.953-1.865h2.2v6.318h8.178V81.273h2.2v15.4h-2.2V89.456h-8.178v7.217h-2.2v-15.4Zm16.631,0h8.49v1.846h-6.291v4.472h6.111v1.846h-6.111v5.395h6.423v1.842h-8.622v-15.4Zm16,10.092V81.273h2.221v9.434c0,2.678,1.157,4.323,3.756,4.323,2.622,0,3.78-1.644,3.78-4.323V81.273h2.221V91.365c0,3.381-2.2,5.616-6,5.616C192.865,96.981,190.71,94.746,190.71,91.365Zm14.274,2.524,1.491-1.25a4.521,4.521,0,0,0,3.911,2.433c1.709,0,3.044-.919,3.044-2.611,0-1.818-1.534-2.433-3.446-3.178-1.956-.769-3.933-1.736-3.933-4.193,0-2.433,1.912-4.12,4.712-4.12a5.247,5.247,0,0,1,4.579,2.322l-1.491,1.25a3.552,3.552,0,0,0-3.088-1.668c-1.512,0-2.511.769-2.511,2.063,0,1.6,1.554,2.13,2.911,2.654,2.2,0.856,4.466,1.89,4.466,4.717,0,2.678-2,4.674-5.2,4.674A6.064,6.064,0,0,1,204.984,93.889Zm18.241-12.617h1.956l6.4,15.4h-2.357l-1.6-4.034h-6.912l-1.6,4.034H216.8S222.446,83.162,223.225,81.273Zm3.665,9.544L225.4,87.023c-0.222-.572-1.179-2.943-1.2-3.14h-0.044c-0.022.2-.955,2.5-1.2,3.14l-1.51,3.794h5.443Zm13.978-7.679h-4.445V81.273h11.088v1.865h-4.444V96.674h-2.2V83.138Zm7.469,5.837a8.2,8.2,0,1,1,8.2,8.006A7.861,7.861,0,0,1,248.337,88.976Zm14.132,0a5.945,5.945,0,1,0-5.954,6.054A5.772,5.772,0,0,0,262.469,88.976Zm5.434-7.7h4.422c4.978,0,8.266,2.808,8.266,7.7,0,4.87-3.312,7.7-8.266,7.7H267.9v-15.4Zm2.2,13.535h2.046c3.643,0,6.176-1.9,6.176-5.832s-2.533-5.837-6.176-5.837H270.1V94.808Zm17.637-13.535H289.7l6.4,15.4h-2.357l-1.6-4.034h-6.912l-1.6,4.034h-2.311S286.96,83.162,287.739,81.273Zm3.666,9.544-1.489-3.794c-0.221-.572-1.178-2.943-1.2-3.14h-0.044c-0.022.2-.955,2.5-1.2,3.14l-1.51,3.794H291.4Zm9.084-.419-5.312-9.126h2.467l2.889,5.135a22.881,22.881,0,0,1,1.11,2.192h0.022a23.147,23.147,0,0,1,1.113-2.192l2.91-5.135h2.4L302.778,90.4v6.275h-2.289V90.4Zm14.062-9.126h1.687l8.846,9.982c0.266,0.289,1.422,1.712,1.534,1.933l0.044-.024c-0.044-.217-0.044-2-0.044-2.39v-9.5h2.134v15.4h-1.713l-8.845-9.982c-0.265-.284-1.422-1.711-1.532-1.928l-0.021.019c0.021,0.221.043,2,.043,2.394v9.5h-2.133v-15.4Zm18.253,0h8.487v1.846H335v4.472h6.113v1.846H335v5.395h6.422v1.842H332.8v-15.4Zm15.37,1.865h-4.445V81.273h11.089v1.865h-4.445V96.674h-2.2V83.138Zm8.477-1.865h2.334l3.2,9.15c0.112,0.351.867,2.63,0.889,2.981h0.046a30.44,30.44,0,0,1,.933-2.981l3.334-9.15h1.756l3.332,9.15c0.133,0.351.91,2.63,0.935,2.981h0.044c0.044-.351.8-2.63,0.91-2.981l3.179-9.15h2.243l-5.49,15.4h-1.688l-3.6-9.607a25.638,25.638,0,0,1-.758-2.5h-0.044a25.482,25.482,0,0,1-.776,2.5l-3.578,9.607h-1.69Zm24.119,7.7a8.2,8.2,0,1,1,8.2,8.006A7.861,7.861,0,0,1,380.77,88.976Zm14.132,0a5.946,5.946,0,1,0-5.955,6.054A5.772,5.772,0,0,0,394.9,88.976Zm5.433-7.7h4.511c2.913,0,5.177,1.5,5.177,4.563a4.294,4.294,0,0,1-3.955,4.346l4.779,6.491h-2.579L403.757,90.4h-1.222v6.275h-2.2v-15.4Zm4.267,7.352c2.044,0,3.2-1.077,3.2-2.765s-1.156-2.765-3.2-2.765h-2.067v5.53H404.6Zm8.736-7.352h2.2v7.154l6.444-7.154h2.666l-6.687,7.352,7,8.049h-2.754l-6.668-7.785v7.785h-2.2v-15.4Z"/>
  </g>
</svg>
