<svg xmlns="http://www.w3.org/2000/svg" width="398" height="46" viewBox="0 0 398 46">
  <g fill="none" fill-rule="evenodd">
    <path fill="#009BFF" class='no-color-change' d="M8.457 17.59L12.506 17.59C13.796 17.59 14.816 17.252 15.566 16.577 16.316 15.902 16.691 15.009 16.691 13.899 16.691 12.79 16.316 11.897 15.566 11.222 14.816 10.547 13.796 10.209 12.506 10.209L8.457 10.209 8.457 17.59zM.357 34.194L.357 3.594 13.316 3.594C16.917 3.594 19.766 4.517 21.867 6.362 23.966 8.207 25.016 10.719 25.016 13.899 25.016 15.969 24.544 17.762 23.599 19.277 22.654 20.792 21.327 21.962 19.617 22.787 17.907 23.612 15.866 24.024 13.496 24.024L8.457 24.024 8.457 34.194.357 34.194zM35.186 26.769C35.186 27.46 35.44 28.022 35.951 28.457 36.461 28.892 37.121 29.109 37.931 29.109 39.011 29.109 39.918 28.742 40.653 28.007 41.388 27.272 41.756 26.349 41.756 25.239L41.756 24.474C40.946 24.324 40.091 24.249 39.191 24.249 38.05 24.249 37.099 24.445 36.334 24.834 35.568 25.224 35.186 25.869 35.186 26.769zM42.071 34.194L41.666 31.179C40.166 33.58 37.886 34.779 34.826 34.779 33.476 34.779 32.253 34.487 31.159 33.902 30.063 33.317 29.193 32.514 28.548 31.494 27.903 30.475 27.581 29.289 27.581 27.939 27.581 25.39 28.578 23.41 30.574 21.999 32.568 20.59 35.201 19.884 38.471 19.884 39.491 19.884 40.57 19.974 41.711 20.154 41.591 19.014 41.103 18.152 40.248 17.567 39.393 16.982 38.351 16.689 37.121 16.689 36.041 16.689 34.953 16.892 33.859 17.297 32.763 17.702 31.721 18.19 30.731 18.759L28.076 13.719C29.576 12.759 31.196 12.017 32.936 11.492 34.675 10.967 36.416 10.704 38.156 10.704 40.255 10.704 42.146 11.064 43.826 11.784 45.506 12.505 46.826 13.6 47.786 15.069 48.746 16.54 49.226 18.399 49.226 20.649L49.226 34.194 42.071 34.194zM64.931 34.779C62.591 34.779 60.513 34.277 58.698 33.272 56.883 32.267 55.451 30.864 54.401 29.064 53.35 27.264 52.826 25.165 52.826 22.764 52.826 20.364 53.35 18.264 54.401 16.465 55.451 14.664 56.883 13.262 58.698 12.257 60.513 11.252 62.591 10.749 64.931 10.749 67.001 10.749 68.816 11.132 70.376 11.897 71.935 12.662 73.316 13.884 74.516 15.564L69.341 19.344C68.92 18.715 68.373 18.197 67.698 17.792 67.023 17.386 66.295 17.184 65.516 17.184 64.166 17.184 63.041 17.687 62.141 18.692 61.241 19.697 60.791 21.054 60.791 22.764 60.791 24.474 61.241 25.832 62.141 26.837 63.041 27.842 64.166 28.344 65.516 28.344 66.295 28.344 67.023 28.142 67.698 27.737 68.373 27.332 68.92 26.814 69.341 26.184L74.516 29.965C73.316 31.645 71.935 32.867 70.376 33.632 68.816 34.397 67.001 34.779 64.931 34.779M78.025 34.194L78.025 11.289C79.285 11.559 80.56 11.694 81.85 11.694 83.17 11.694 84.505 11.559 85.855 11.289L85.855 34.194 78.025 34.194zM81.85 9.489C80.56 9.489 79.458 9.032 78.543 8.117 77.627 7.202 77.17 6.099 77.17 4.809 77.17 3.52 77.627 2.417 78.543 1.502 79.458.587 80.56.13 81.85.13 83.14.13 84.242.587 85.158 1.502 86.073 2.417 86.53 3.52 86.53 4.809 86.53 6.099 86.073 7.202 85.158 8.117 84.242 9.032 83.14 9.489 81.85 9.489zM107.005 17.139L101.02 17.139 101.02 34.194 93.19 34.194 93.19 17.139 89.455 17.139 89.455 11.289 93.19 11.289 93.19 9.624C93.19 6.985 93.97 4.854 95.53 3.234 97.089 1.614 99.295.804 102.145.804 103.225.804 104.32.939 105.43 1.209 106.539 1.479 107.71 2.005 108.94 2.784L106.285 7.599C105.925 7.39 105.52 7.21 105.07 7.059 104.62 6.91 104.125 6.834 103.585 6.834 102.865 6.834 102.257 7.059 101.763 7.509 101.267 7.959 101.02 8.665 101.02 9.624L101.02 11.289 107.005 11.289 107.005 17.139M111.324 34.194L111.324 11.289C112.584 11.559 113.859 11.694 115.149 11.694 116.469 11.694 117.804 11.559 119.154 11.289L119.154 34.194 111.324 34.194zM115.149 9.489C113.859 9.489 112.756 9.032 111.842 8.117 110.926 7.202 110.469 6.099 110.469 4.809 110.469 3.52 110.926 2.417 111.842 1.502 112.756.587 113.859.13 115.149.13 116.439.13 117.541.587 118.457 1.502 119.371 2.417 119.829 3.52 119.829 4.809 119.829 6.099 119.371 7.202 118.457 8.117 117.541 9.032 116.439 9.489 115.149 9.489zM135.354 34.779C133.014 34.779 130.936 34.277 129.121 33.272 127.306 32.267 125.874 30.864 124.824 29.064 123.773 27.264 123.249 25.165 123.249 22.764 123.249 20.364 123.773 18.264 124.824 16.465 125.874 14.664 127.306 13.262 129.121 12.257 130.936 11.252 133.014 10.749 135.354 10.749 137.424 10.749 139.239 11.132 140.799 11.897 142.358 12.662 143.739 13.884 144.939 15.564L139.764 19.344C139.343 18.715 138.796 18.197 138.121 17.792 137.446 17.386 136.719 17.184 135.939 17.184 134.589 17.184 133.464 17.687 132.564 18.692 131.664 19.697 131.214 21.054 131.214 22.764 131.214 24.474 131.664 25.832 132.564 26.837 133.464 27.842 134.589 28.344 135.939 28.344 136.719 28.344 137.446 28.142 138.121 27.737 138.796 27.332 139.343 26.814 139.764 26.184L144.939 29.965C143.739 31.645 142.358 32.867 140.799 33.632 139.239 34.397 137.424 34.779 135.354 34.779"/>
    <path fill="#404040" d="M168.113 27.579L171.938 27.579C174.128 27.579 175.86 26.785 177.136 25.194 178.41 23.604 179.048 21.505 179.048 18.894 179.048 16.284 178.41 14.185 177.136 12.594 175.86 11.005 174.128 10.209 171.938 10.209L168.113 10.209 168.113 27.579zM159.878 34.194L159.878 3.594 171.938 3.594C174.968 3.594 177.645 4.247 179.971 5.551 182.295 6.857 184.118 8.657 185.438 10.952 186.758 13.247 187.418 15.895 187.418 18.894 187.418 21.894 186.758 24.542 185.438 26.837 184.118 29.132 182.295 30.932 179.971 32.237 177.645 33.542 174.968 34.194 171.938 34.194L159.878 34.194zM197.948 26.769C197.948 27.46 198.202 28.022 198.713 28.457 199.222 28.892 199.883 29.109 200.693 29.109 201.773 29.109 202.68 28.742 203.415 28.007 204.15 27.272 204.517 26.349 204.517 25.239L204.517 24.474C203.707 24.324 202.852 24.249 201.952 24.249 200.812 24.249 199.86 24.445 199.095 24.834 198.33 25.224 197.948 25.869 197.948 26.769zM204.832 34.194L204.428 31.179C202.927 33.58 200.648 34.779 197.588 34.779 196.238 34.779 195.015 34.487 193.92 33.902 192.825 33.317 191.955 32.514 191.31 31.494 190.665 30.475 190.343 29.289 190.343 27.939 190.343 25.39 191.34 23.41 193.335 21.999 195.33 20.59 197.962 19.884 201.233 19.884 202.252 19.884 203.332 19.974 204.472 20.154 204.352 19.014 203.865 18.152 203.01 17.567 202.155 16.982 201.112 16.689 199.883 16.689 198.803 16.689 197.715 16.892 196.62 17.297 195.525 17.702 194.483 18.19 193.493 18.759L190.838 13.719C192.337 12.759 193.957 12.017 195.698 11.492 197.437 10.967 199.177 10.704 200.917 10.704 203.017 10.704 204.907 11.064 206.588 11.784 208.267 12.505 209.587 13.6 210.548 15.069 211.507 16.54 211.988 18.399 211.988 20.649L211.988 34.194 204.832 34.194zM216.983 34.194L216.983 11.289C218.243 11.559 219.517 11.694 220.807 11.694 222.127 11.694 223.463 11.559 224.812 11.289L224.812 34.194 216.983 34.194"/>
    <polygon fill="#404040" points="230.302 34.194 238.132 34.194 238.132 1.344 230.302 1.344"/>
    <path fill="#404040" d="M259.506,32.394 C258.126,35.934 256.551,38.574 254.782,40.314 C253.011,42.054 250.761,42.925 248.032,42.925 C246.801,42.925 245.691,42.789 244.701,42.519 C243.711,42.249 242.871,41.919 242.181,41.529 L244.387,36.13 C244.806,36.339 245.271,36.519 245.782,36.67 C246.291,36.819 246.831,36.894 247.401,36.894 C248.211,36.894 248.938,36.699 249.584,36.309 C250.229,35.919 250.791,35.214 251.271,34.194 L251.631,33.384 L241.282,11.289 L249.921,11.289 L255.006,25.014 L259.191,11.289 L267.697,11.289 L259.506,32.394"/>
    <polyline fill="#404040" points="302.031 34.194 290.015 16.554 290.015 34.194 282.321 34.194 282.321 3.594 289.971 3.594 301.941 21.55 301.941 3.594 309.68 3.594 309.68 34.194 302.031 34.194"/>
    <path fill="#404040" d="M326.645,16.374 C324.095,16.374 322.565,17.724 322.055,20.425 L330.785,20.425 C330.575,18.955 330.073,17.912 329.278,17.297 C328.483,16.682 327.605,16.374 326.645,16.374 Z M337.355,31.854 C336.215,32.664 334.768,33.355 333.013,33.925 C331.258,34.494 329.39,34.779 327.41,34.779 C324.68,34.779 322.348,34.277 320.413,33.272 C318.478,32.267 316.993,30.864 315.958,29.064 C314.923,27.264 314.406,25.194 314.406,22.854 C314.406,20.485 314.915,18.384 315.935,16.554 C316.955,14.725 318.366,13.292 320.165,12.257 C321.965,11.222 324.065,10.704 326.465,10.704 C328.805,10.704 330.867,11.207 332.653,12.212 C334.437,13.217 335.832,14.612 336.838,16.397 C337.843,18.182 338.346,20.275 338.346,22.675 C338.346,23.005 338.323,23.349 338.278,23.709 C338.233,24.069 338.18,24.445 338.12,24.834 L322.145,24.834 C322.866,27.474 324.83,28.795 328.04,28.795 C329.48,28.795 330.755,28.569 331.866,28.119 C332.975,27.67 333.905,27.219 334.656,26.769 L337.355,31.854 Z"/>
    <polyline fill="#404040" points="361.655 34.194 357.965 20.289 354.32 34.194 346.22 34.194 340.28 11.289 348.29 11.289 350.675 26.05 354.545 11.289 361.43 11.289 365.435 26.094 367.865 11.289 375.695 11.289 369.755 34.194 361.655 34.194"/>
    <path fill="#404040" d="M387.619 34.779C385.639 34.779 383.787 34.465 382.062 33.834 380.337 33.204 378.784 32.304 377.405 31.134L380.735 26.724C381.784 27.564 382.917 28.247 384.132 28.772 385.347 29.297 386.539 29.559 387.709 29.559 388.489 29.559 389.112 29.425 389.577 29.154 390.042 28.884 390.274 28.479 390.274 27.939 390.274 27.37 390.012 26.912 389.487 26.567 388.962 26.222 388.024 25.884 386.674 25.554L384.514 25.014C380.224 23.875 378.079 21.58 378.079 18.13 378.079 16.599 378.499 15.279 379.34 14.17 380.179 13.06 381.334 12.205 382.805 11.604 384.274 11.005 385.984 10.704 387.934 10.704 389.854 10.704 391.662 11.005 393.357 11.604 395.052 12.205 396.604 13.074 398.014 14.215L394.595 18.715C393.544 17.875 392.434 17.2 391.264 16.689 390.095 16.179 388.999 15.925 387.979 15.925 386.329 15.925 385.505 16.465 385.505 17.545 385.505 18.025 385.752 18.415 386.247 18.715 386.742 19.014 387.439 19.285 388.34 19.524L391.264 20.334C393.454 20.935 395.074 21.835 396.124 23.034 397.174 24.235 397.7 25.66 397.7 27.309 397.7 28.81 397.279 30.122 396.439 31.247 395.599 32.372 394.422 33.242 392.907 33.857 391.392 34.471 389.629 34.779 387.619 34.779M267.079 42.854L268.132 42.854C268.478 42.854 268.752 42.769 268.954 42.599 269.155 42.428 269.256 42.196 269.256 41.901 269.256 41.607 269.155 41.374 268.954 41.204 268.752 41.033 268.478 40.948 268.132 40.948L267.079 40.948 267.079 42.854zM266.296 45.558L266.296 40.29 268.132 40.29C268.721 40.29 269.189 40.434 269.535 40.724 269.881 41.013 270.054 41.406 270.054 41.901 270.054 42.392 269.881 42.781 269.535 43.067 269.189 43.354 268.721 43.497 268.132 43.497L267.079 43.497 267.079 45.558 266.296 45.558zM271.634 43.575L273.556 43.575 272.595 41.103 271.634 43.575zM274.323 45.558L273.811 44.233 271.379 44.233 270.867 45.558 270.077 45.558 272.184 40.29 273.029 40.29 275.129 45.558 274.323 45.558zM276.787 42.777L277.863 42.777C278.199 42.777 278.467 42.694 278.665 42.529 278.864 42.364 278.964 42.141 278.964 41.862 278.964 41.584 278.864 41.362 278.665 41.196 278.467 41.031 278.199 40.948 277.863 40.948L276.787 40.948 276.787 42.777zM276.787 43.42L276.787 45.558 276.004 45.558 276.004 40.29 277.863 40.29C278.447 40.29 278.909 40.43 279.25 40.712 279.591 40.994 279.762 41.377 279.762 41.862 279.762 42.229 279.658 42.539 279.452 42.792 279.245 43.045 278.961 43.224 278.6 43.327L279.878 45.558 278.987 45.558 277.786 43.42 276.787 43.42z"/>
    <polyline fill="#404040" points="282.008 45.558 282.008 40.948 280.234 40.948 280.234 40.29 284.565 40.29 284.565 40.948 282.791 40.948 282.791 45.558 282.008 45.558"/>
    <path fill="#404040" d="M289.593,44.961 C289.934,44.961 290.238,44.875 290.504,44.702 C290.769,44.529 290.978,44.29 291.127,43.985 C291.277,43.681 291.352,43.327 291.352,42.924 C291.352,42.521 291.277,42.167 291.127,41.862 C290.978,41.558 290.769,41.319 290.504,41.146 C290.238,40.973 289.934,40.886 289.593,40.886 C289.252,40.886 288.95,40.973 288.687,41.146 C288.423,41.319 288.217,41.558 288.067,41.862 C287.917,42.167 287.842,42.521 287.842,42.924 C287.842,43.327 287.917,43.681 288.067,43.985 C288.217,44.29 288.423,44.529 288.687,44.702 C288.95,44.875 289.252,44.961 289.593,44.961 Z M289.593,45.644 C289.097,45.644 288.658,45.527 288.276,45.295 C287.894,45.062 287.593,44.742 287.374,44.334 C287.154,43.926 287.044,43.456 287.044,42.924 C287.044,42.392 287.154,41.922 287.374,41.514 C287.593,41.106 287.894,40.785 288.276,40.553 C288.658,40.321 289.097,40.204 289.593,40.204 C290.089,40.204 290.529,40.321 290.914,40.553 C291.299,40.785 291.601,41.106 291.821,41.514 C292.04,41.922 292.15,42.392 292.15,42.924 C292.15,43.456 292.04,43.926 291.821,44.334 C291.601,44.742 291.299,45.062 290.914,45.295 C290.529,45.527 290.089,45.644 289.593,45.644 Z"/>
    <polyline fill="#404040" points="294.033 45.558 293.25 45.558 293.25 40.29 296.528 40.29 296.528 40.948 294.033 40.948 294.033 42.73 296.148 42.73 296.148 43.389 294.033 43.389 294.033 45.558"/>
    <polyline fill="#404040" points="300.61 45.558 300.61 40.948 298.836 40.948 298.836 40.29 303.167 40.29 303.167 40.948 301.393 40.948 301.393 45.558 300.61 45.558"/>
    <polyline fill="#404040" points="304.066 45.558 304.066 40.29 304.848 40.29 304.848 42.544 307.568 42.544 307.568 40.29 308.35 40.29 308.35 45.558 307.568 45.558 307.568 43.218 304.848 43.218 304.848 45.558 304.066 45.558"/>
    <polyline fill="#404040" points="309.729 45.558 309.729 40.29 313.107 40.29 313.107 40.948 310.512 40.948 310.512 42.575 312.797 42.575 312.797 43.234 310.512 43.234 310.512 44.9 313.169 44.9 313.169 45.558 309.729 45.558"/>
    <path fill="#404040" d="M318.112 44.961C318.541 44.961 318.878 44.833 319.123 44.574 319.368 44.316 319.491 43.967 319.491 43.528L319.491 40.29 320.274 40.29 320.274 43.536C320.274 44.192 320.081 44.707 319.697 45.082 319.312 45.456 318.784 45.644 318.112 45.644 317.441 45.644 316.914 45.456 316.532 45.082 316.149 44.707 315.958 44.192 315.958 43.536L315.958 40.29 316.741 40.29 316.741 43.528C316.741 43.967 316.864 44.316 317.109 44.574 317.354 44.833 317.689 44.961 318.112 44.961M323.195 45.644C322.797 45.644 322.417 45.574 322.056 45.434 321.694 45.295 321.402 45.109 321.18 44.877L321.622 44.357C321.828 44.549 322.072 44.698 322.354 44.807 322.635 44.915 322.916 44.969 323.195 44.969 323.536 44.969 323.811 44.904 324.02 44.772 324.229 44.64 324.333 44.458 324.333 44.226 324.333 44.014 324.258 43.836 324.109 43.691 323.959 43.546 323.703 43.425 323.342 43.327L322.614 43.133C322.143 43.009 321.801 42.833 321.587 42.606 321.373 42.379 321.265 42.082 321.265 41.715 321.265 41.416 321.345 41.152 321.506 40.925 321.666 40.698 321.886 40.521 322.168 40.394 322.449 40.268 322.769 40.204 323.125 40.204 323.502 40.204 323.856 40.275 324.186 40.418 324.517 40.56 324.809 40.757 325.062 41.01L324.589 41.522C324.367 41.315 324.136 41.156 323.896 41.045 323.656 40.934 323.401 40.878 323.133 40.878 322.807 40.878 322.541 40.947 322.335 41.084 322.128 41.221 322.025 41.41 322.025 41.653 322.025 41.875 322.098 42.048 322.245 42.173 322.393 42.296 322.619 42.4 322.923 42.482L323.737 42.707C324.207 42.836 324.551 43.017 324.767 43.249 324.984 43.482 325.093 43.771 325.093 44.117 325.093 44.422 325.013 44.689 324.853 44.919 324.692 45.149 324.47 45.327 324.186 45.453 323.902 45.58 323.572 45.644 323.195 45.644M327.061 43.575L328.982 43.575 328.021 41.103 327.061 43.575zM329.749 45.558L329.238 44.233 326.805 44.233 326.294 45.558 325.503 45.558 327.611 40.29 328.455 40.29 330.555 45.558 329.749 45.558z"/>
    <polyline fill="#404040" points="334.196 45.558 334.196 40.948 332.422 40.948 332.422 40.29 336.753 40.29 336.753 40.948 334.979 40.948 334.979 45.558 334.196 45.558"/>
    <path fill="#404040" d="M339.573 44.961C339.914 44.961 340.218 44.875 340.484 44.702 340.749 44.529 340.957 44.29 341.107 43.985 341.257 43.681 341.332 43.327 341.332 42.924 341.332 42.521 341.257 42.167 341.107 41.862 340.957 41.558 340.749 41.319 340.484 41.146 340.218 40.973 339.914 40.886 339.573 40.886 339.232 40.886 338.93 40.973 338.667 41.146 338.403 41.319 338.197 41.558 338.047 41.862 337.897 42.167 337.822 42.521 337.822 42.924 337.822 43.327 337.897 43.681 338.047 43.985 338.197 44.29 338.403 44.529 338.667 44.702 338.93 44.875 339.232 44.961 339.573 44.961zM339.573 45.644C339.077 45.644 338.638 45.527 338.256 45.295 337.874 45.062 337.573 44.742 337.354 44.334 337.134 43.926 337.024 43.456 337.024 42.924 337.024 42.392 337.134 41.922 337.354 41.514 337.573 41.106 337.874 40.785 338.256 40.553 338.638 40.321 339.077 40.204 339.573 40.204 340.069 40.204 340.509 40.321 340.894 40.553 341.279 40.785 341.581 41.106 341.801 41.514 342.02 41.922 342.13 42.392 342.13 42.924 342.13 43.456 342.02 43.926 341.801 44.334 341.581 44.742 341.279 45.062 340.894 45.295 340.509 45.527 340.069 45.644 339.573 45.644zM344.013 44.9L345.082 44.9C345.454 44.9 345.772 44.818 346.039 44.656 346.305 44.493 346.509 44.264 346.651 43.97 346.793 43.675 346.864 43.327 346.864 42.924 346.864 42.521 346.793 42.173 346.651 41.878 346.509 41.584 346.305 41.355 346.039 41.192 345.772 41.03 345.454 40.948 345.082 40.948L344.013 40.948 344.013 44.9zM343.23 45.558L343.23 40.29 345.082 40.29C345.598 40.29 346.05 40.4 346.438 40.619 346.825 40.839 347.126 41.146 347.34 41.541 347.554 41.936 347.662 42.397 347.662 42.924 347.662 43.451 347.554 43.912 347.34 44.307 347.126 44.702 346.825 45.009 346.438 45.229 346.05 45.448 345.598 45.558 345.082 45.558L343.23 45.558zM349.661 43.575L351.582 43.575 350.621 41.103 349.661 43.575zM352.349 45.558L351.838 44.233 349.405 44.233 348.894 45.558 348.103 45.558 350.211 40.29 351.055 40.29 353.155 45.558 352.349 45.558z"/>
    <polyline fill="#404040" points="355.557 43.466 355.557 45.558 354.774 45.558 354.774 43.466 352.922 40.29 353.844 40.29 355.169 42.722 356.494 40.29 357.401 40.29 355.557 43.466"/>
    <polyline fill="#404040" points="363.661 45.558 360.848 41.522 360.848 45.558 360.112 45.558 360.112 40.29 360.841 40.29 363.661 44.326 363.661 40.29 364.389 40.29 364.389 45.558 363.661 45.558"/>
    <polyline fill="#404040" points="365.768 45.558 365.768 40.29 369.146 40.29 369.146 40.948 366.551 40.948 366.551 42.575 368.836 42.575 368.836 43.234 366.551 43.234 366.551 44.9 369.208 44.9 369.208 45.558 365.768 45.558"/>
    <polyline fill="#404040" points="371.532 45.558 371.532 40.948 369.758 40.948 369.758 40.29 374.089 40.29 374.089 40.948 372.315 40.948 372.315 45.558 371.532 45.558"/>
    <polyline fill="#404040" points="379.202 45.558 377.97 41.359 376.739 45.558 375.925 45.558 374.523 40.29 375.297 40.29 376.367 44.458 377.599 40.29 378.342 40.29 379.582 44.474 380.659 40.29 381.418 40.29 380.016 45.558 379.202 45.558"/>
    <path fill="#404040" d="M384.525 44.961C384.866 44.961 385.17 44.875 385.436 44.702 385.701 44.529 385.909 44.29 386.059 43.985 386.209 43.681 386.284 43.327 386.284 42.924 386.284 42.521 386.209 42.167 386.059 41.862 385.909 41.558 385.701 41.319 385.436 41.146 385.17 40.973 384.866 40.886 384.525 40.886 384.184 40.886 383.882 40.973 383.619 41.146 383.355 41.319 383.149 41.558 382.999 41.862 382.849 42.167 382.774 42.521 382.774 42.924 382.774 43.327 382.849 43.681 382.999 43.985 383.149 44.29 383.355 44.529 383.619 44.702 383.882 44.875 384.184 44.961 384.525 44.961zM384.525 45.644C384.029 45.644 383.59 45.527 383.208 45.295 382.826 45.062 382.525 44.742 382.306 44.334 382.086 43.926 381.976 43.456 381.976 42.924 381.976 42.392 382.086 41.922 382.306 41.514 382.525 41.106 382.826 40.785 383.208 40.553 383.59 40.321 384.029 40.204 384.525 40.204 385.021 40.204 385.461 40.321 385.846 40.553 386.231 40.785 386.533 41.106 386.753 41.514 386.972 41.922 387.082 42.392 387.082 42.924 387.082 43.456 386.972 43.926 386.753 44.334 386.533 44.742 386.231 45.062 385.846 45.295 385.461 45.527 385.021 45.644 384.525 45.644zM388.965 42.777L390.042 42.777C390.377 42.777 390.645 42.694 390.843 42.529 391.042 42.364 391.142 42.141 391.142 41.862 391.142 41.584 391.042 41.362 390.843 41.196 390.645 41.031 390.377 40.948 390.042 40.948L388.965 40.948 388.965 42.777zM388.965 43.42L388.965 45.558 388.182 45.558 388.182 40.29 390.042 40.29C390.625 40.29 391.087 40.43 391.428 40.712 391.769 40.994 391.94 41.377 391.94 41.862 391.94 42.229 391.836 42.539 391.63 42.792 391.423 43.045 391.139 43.224 390.778 43.327L392.056 45.558 391.165 45.558 389.964 43.42 388.965 43.42z"/>
    <polyline fill="#404040" points="396.193 45.558 393.83 42.901 393.83 45.558 393.048 45.558 393.048 40.29 393.83 40.29 393.83 42.599 396.038 40.29 397.007 40.29 394.659 42.707 397.177 45.558 396.193 45.558"/>
    <path fill="#009BFF" class='no-color-change' d="M220.807,9.489 C219.517,9.489 218.415,9.032 217.5,8.117 C216.584,7.202 216.127,6.099 216.127,4.809 C216.127,3.52 216.584,2.417 217.5,1.502 C218.415,0.587 219.517,0.13 220.807,0.13 C222.097,0.13 223.2,0.587 224.115,1.502 C225.03,2.417 225.488,3.52 225.488,4.809 C225.488,6.099 225.03,7.202 224.115,8.117 C223.2,9.032 222.097,9.489 220.807,9.489"/>
  </g>
</svg>
