<svg xmlns="http://www.w3.org/2000/svg" xmlns:xlink="http://www.w3.org/1999/xlink" width="719.281" height="109.75" viewBox="0 0 719.281 109.75">
  <defs>
    <style>
      .cls-1 {
        filter: url(#filter);
      }

      .cls-2, .cls-3 {
        fill: #fff;
        fill-rule: evenodd;
      }

      .cls-2 {
        filter: url(#filter-2);
      }
    </style>
    <filter id="filter" filterUnits="userSpaceOnUse">
      <feFlood result="flood" flood-color="#333"/>
      <feComposite result="composite" operator="in" in2="SourceGraphic"/>
      <feBlend result="blend" in2="SourceGraphic"/>
    </filter>
    <filter id="filter-2" x="349" y="113.969" width="367.969" height="16" filterUnits="userSpaceOnUse">
      <feFlood result="flood" flood-color="#999"/>
      <feComposite result="composite" operator="in" in2="SourceGraphic"/>
      <feBlend result="blend" in2="SourceGraphic"/>
    </filter>
  </defs>
  <g id="eveningsun" class="cls-1">
    <path id="USAT_Network" data-name="USAT Network" class="cls-2" d="M348.989,114.273h4.489c3.156,0,5.267,1.865,5.267,4.741s-2.155,4.735-5.267,4.735h-2.29v5.925h-2.2v-15.4Zm4.267,7.659c2.112,0,3.244-1.163,3.244-2.918,0-1.736-1.132-2.919-3.244-2.919h-2.068v5.837h2.068Zm11.768-7.659h1.955l6.4,15.4h-2.358l-1.6-4.035h-6.912l-1.6,4.035H358.6S364.244,116.162,365.024,114.273Zm3.665,9.544-1.488-3.794c-0.222-.572-1.179-2.942-1.2-3.139h-0.043c-0.022.2-.955,2.5-1.2,3.139l-1.51,3.794h5.443Zm6.924-9.544h4.51c2.91,0,5.178,1.5,5.178,4.563a4.293,4.293,0,0,1-3.955,4.346l4.778,6.492h-2.579l-4.51-6.276h-1.223v6.276h-2.2v-15.4Zm4.267,7.351c2.043,0,3.2-1.077,3.2-2.764s-1.157-2.765-3.2-2.765h-2.068v5.529h2.068Zm11.522-5.486h-4.445v-1.865h11.089v1.865H393.6v13.536h-2.2V116.138Zm12.347,5.838a8.2,8.2,0,1,1,8.2,8A7.862,7.862,0,0,1,403.749,121.976Zm14.133,0a5.946,5.946,0,1,0-5.955,6.053A5.772,5.772,0,0,0,417.882,121.976Zm5.433-7.7h7.867v1.865h-5.668V121.1H431v1.865h-5.49v6.713h-2.2v-15.4Zm17.815,1.865h-4.444v-1.865h11.088v1.865h-4.445v13.536h-2.2V116.138Zm8.953-1.865h2.2v6.318h8.178v-6.318h2.2v15.4h-2.2v-7.218h-8.178v7.218h-2.2v-15.4Zm16.631,0h8.49v1.846h-6.291v4.472h6.111v1.846h-6.111v5.395h6.423v1.842h-8.622v-15.4Zm16,10.092V114.273h2.221v9.433c0,2.679,1.157,4.323,3.756,4.323,2.622,0,3.78-1.644,3.78-4.323v-9.433h2.221v10.092c0,3.38-2.2,5.616-6,5.616C484.865,129.981,482.71,127.745,482.71,124.365Zm14.274,2.524,1.491-1.25a4.52,4.52,0,0,0,3.911,2.433c1.709,0,3.044-.918,3.044-2.611,0-1.817-1.534-2.433-3.446-3.178-1.956-.769-3.933-1.736-3.933-4.193,0-2.432,1.912-4.12,4.712-4.12a5.248,5.248,0,0,1,4.579,2.322l-1.491,1.25a3.552,3.552,0,0,0-3.088-1.668c-1.512,0-2.511.769-2.511,2.063,0,1.6,1.554,2.13,2.911,2.654,2.2,0.856,4.466,1.889,4.466,4.716,0,2.679-2,4.674-5.2,4.674A6.064,6.064,0,0,1,496.984,126.889Zm18.241-12.616h1.956l6.4,15.4h-2.357l-1.6-4.035h-6.912l-1.6,4.035H508.8S514.446,116.162,515.225,114.273Zm3.665,9.544-1.487-3.794c-0.222-.572-1.179-2.942-1.2-3.139h-0.044c-0.022.2-.955,2.5-1.2,3.139l-1.51,3.794h5.443Zm13.978-7.679h-4.445v-1.865h11.088v1.865h-4.444v13.536h-2.2V116.138Zm7.469,5.838a8.2,8.2,0,1,1,8.2,8A7.861,7.861,0,0,1,540.337,121.976Zm14.132,0a5.945,5.945,0,1,0-5.954,6.053A5.772,5.772,0,0,0,554.469,121.976Zm5.434-7.7h4.422c4.978,0,8.266,2.808,8.266,7.7,0,4.87-3.312,7.7-8.266,7.7H559.9v-15.4Zm2.2,13.534h2.046c3.643,0,6.176-1.9,6.176-5.831s-2.533-5.838-6.176-5.838H562.1v11.669Zm17.637-13.534H581.7l6.4,15.4h-2.357l-1.6-4.035h-6.912l-1.6,4.035h-2.311S578.96,116.162,579.739,114.273Zm3.666,9.544-1.489-3.794c-0.221-.572-1.178-2.942-1.2-3.139h-0.044c-0.022.2-.955,2.5-1.2,3.139l-1.51,3.794h5.444Zm9.084-.419-5.312-9.125h2.467l2.889,5.135a22.887,22.887,0,0,1,1.11,2.192h0.022a23.153,23.153,0,0,1,1.113-2.192l2.91-5.135h2.4l-5.309,9.125v6.276h-2.289V123.4Zm14.062-9.125h1.687l8.846,9.982c0.266,0.288,1.422,1.711,1.534,1.932l0.044-.023c-0.044-.217-0.044-2-0.044-2.39v-9.5h2.134v15.4h-1.713l-8.845-9.983c-0.265-.283-1.422-1.711-1.532-1.928l-0.021.02c0.021,0.221.043,2,.043,2.394v9.5h-2.133v-15.4Zm18.253,0h8.487v1.846H627v4.472h6.113v1.846H627v5.395h6.422v1.842H624.8v-15.4Zm15.37,1.865h-4.445v-1.865h11.089v1.865h-4.445v13.536h-2.2V116.138Zm8.477-1.865h2.334l3.2,9.15c0.112,0.351.867,2.63,0.889,2.981h0.046a30.445,30.445,0,0,1,.933-2.981l3.334-9.15h1.756l3.332,9.15c0.133,0.351.91,2.63,0.935,2.981h0.044c0.044-.351.8-2.63,0.91-2.981l3.179-9.15h2.243l-5.49,15.4h-1.688l-3.6-9.607a25.578,25.578,0,0,1-.758-2.5h-0.044a25.693,25.693,0,0,1-.776,2.5l-3.578,9.607h-1.69Zm24.119,7.7a8.2,8.2,0,1,1,8.2,8A7.861,7.861,0,0,1,672.77,121.976Zm14.132,0a5.945,5.945,0,1,0-5.955,6.053A5.772,5.772,0,0,0,686.9,121.976Zm5.433-7.7h4.511c2.913,0,5.177,1.5,5.177,4.563a4.293,4.293,0,0,1-3.955,4.346l4.779,6.492h-2.579l-4.511-6.276h-1.222v6.276h-2.2v-15.4Zm4.267,7.351c2.044,0,3.2-1.077,3.2-2.764s-1.156-2.765-3.2-2.765h-2.067v5.529H696.6Zm8.736-7.351h2.2v7.154l6.444-7.154h2.666l-6.687,7.351,7,8.05h-2.754l-6.668-7.785v7.785h-2.2v-15.4Z" transform="translate(0 -20.219)"/>
    <path class="cls-3" d="M14.157,100.094v-4.72a29.372,29.372,0,0,0,5.572-.561,3.382,3.382,0,0,0,1.919-.926,4.981,4.981,0,0,0,.845-2.387q0.325-2.415.561-17.735Q23.2,62.876,23.2,51.538q0-22.276-.12-22.7t-3.306-.421q-6.524,0-11.215.45a9.941,9.941,0,0,0-3.076.563,1.817,1.817,0,0,0-.541.984q-0.189.7-.8,9.858H0.116Q0.207,29.508-.353,21.736l0.516-.453H59.984l0.514,0.9q-0.886,7.719-1.263,18.085H55.35q-0.423-9.476-.843-10.265a2,2,0,0,0-1.5-.849q-3.744-.74-14.882-0.739A1.277,1.277,0,0,0,37,28.753a12.025,12.025,0,0,0-.187,2.98L36.531,69.51q0,16.418.237,20.159t1.13,4.525q0.612,0.5,7.387,1.178v4.721Q38.392,99.7,30.66,99.7,20.489,99.7,14.157,100.094Zm48.727-.119v-3.8q4.718-.27,5.346-0.79a3.358,3.358,0,0,0,.846-2.149,123.72,123.72,0,0,0,.359-12.526L69.4,55.975Q69.36,43.448,69.039,42.32a1.993,1.993,0,0,0-.613-1.043q-0.717-.584-5.542-0.948v-3.8q7.17,0.318,11.364.318,6.629,0,12.111-.318v3.8c-2.938.241-4.663,0.513-5.186,0.815a1.551,1.551,0,0,0-.683.813,22.843,22.843,0,0,0-.5,5.245q-0.179,6.51-.18,13.206v3.752q3.721,0.23,11.791.225,7.18,0,10.575-.225,0.037-14.7-.25-19.533c-0.1-1.718-.341-2.775-0.749-3.166q-0.819-.858-5.551-1.131v-3.8q8.891,0.318,12.04.318,5.4,0,11.4-.318v3.8q-4.579.361-5.33,0.858a1.648,1.648,0,0,0-.645.815,45.025,45.025,0,0,0-.467,7.369q-0.254,9.854-.25,15.961l0.214,20.533a67.306,67.306,0,0,0,.322,8,2.444,2.444,0,0,0,.826,1.468q0.568,0.436,5.33.838v3.8l-3.964-.135q-4.467-.182-7-0.18-5.288,0-12.469.315v-3.8c3.161-.183,4.96-0.5,5.4-0.98s0.706-1.7.8-3.709q0.248-5.142.355-21.945h-8.9q-7.681,0-13.47.18V72.7q0,11.847.25,17.776c0.122,2.651.4,4.2,0.855,4.633s2.268,0.793,5.445,1.063v3.8l-4.228-.135q-4.015-.182-7.168-0.18Zm64.3,0V97.536A19.808,19.808,0,0,0,130.713,95q0.725-7.057.728-29.667,0-15.415-.254-20.438-0.11-2.672-.751-3.371t-5.405-1.2v-3.8q8.587,0.409,13.567.405l20.039-.405a46.121,46.121,0,0,1,5.714.32l0.25,0.5a120.227,120.227,0,0,0-1.161,13.243h-2.88q-0.178-6.6-.419-7.054a2.838,2.838,0,0,0-1.655-.86,38.487,38.487,0,0,0-9.247-.815q-3.061,0-7.134.315-0.471,13.976-.544,22.251,3.893,0.321,7.315.32,5.059,0,6.079-.41a1.774,1.774,0,0,0,.875-1.311,50.165,50.165,0,0,0,.507-5.7h3.132q-0.18,7.662-.183,9.97l0.183,10.2h-3.132q-0.253-5.956-.652-6.867a1.394,1.394,0,0,0-.985-0.773,40.037,40.037,0,0,0-8.19-.5,40.794,40.794,0,0,0-4.694.317q-0.075,2.388-.075,4.865,0,12.885.364,19.825l7.224,0.137a71.8,71.8,0,0,0,11.267-.815q0.916-4.179,1.75-9.5h3.019q-0.839,8.054-.983,15.468-3.315.314-6.367,0.315-2.007,0-7.9-.155-5.5-.159-10.122-0.158Q133.911,99.659,127.182,99.975Zm52.432,0.119V97.058a24.5,24.5,0,0,0,4.444-3.146q0.917-8.76.92-36.845,0-19.154-.32-25.39-0.143-3.311-.941-4.184T176.908,26v-4.72Q187.717,21.79,194,21.79l25.238-.507a59.093,59.093,0,0,1,7.189.4l0.322,0.624a147.082,147.082,0,0,0-1.466,16.447h-3.623q-0.234-8.2-.528-8.761a3.6,3.6,0,0,0-2.086-1.068,49.178,49.178,0,0,0-11.648-1.011q-3.846,0-8.983.394-0.6,17.357-.688,27.636,4.9,0.392,9.213.394,6.377,0,7.658-.507a2.2,2.2,0,0,0,1.1-1.628,60.608,60.608,0,0,0,.641-7.078h3.941q-0.226,9.51-.228,12.387l0.228,12.666h-3.941q-0.322-7.392-.828-8.529a1.746,1.746,0,0,0-1.235-.959q-2.3-.625-10.316-0.622a52.555,52.555,0,0,0-5.917.394q-0.088,2.966-.092,6.045,0,16,.46,24.627L207.5,93.3a91.589,91.589,0,0,0,14.2-1.013q1.143-5.192,2.2-11.8h3.8Q226.652,90.5,226.462,99.7q-4.173.392-8.023,0.395-2.518,0-9.948-.2-6.923-.2-12.744-0.2Q188.1,99.7,179.614,100.094Zm52.733-59.661V36.645q6.393,0.318,11.719.318,4.715,0,10.336-.318v3.788q-3.911.355-4.67,0.831a1.643,1.643,0,0,0-.753,1.509q0,1.311,2.828,10.637L261.351,84.5l7.619-25.143q4.215-13.874,4.214-16.67a1.614,1.614,0,0,0-.723-1.486q-0.728-.449-4.927-0.764v-3.79q6.183,0.318,8.28.318,2.194,0,7.837-.318v3.788q-3.405.449-3.941,1.081-0.808.855-3.908,10.369l-10.37,33.156q-3.173,9.82-4.525,15.719h-4.913L244.07,62.54q-4.106-13.067-5.759-17.7a9.2,9.2,0,0,0-1.637-3.353Q235.984,40.879,232.347,40.433ZM289.76,99.975V97.538a18.769,18.769,0,0,0,3.364-2.525q0.693-7.047.694-29.613,0-15.388-.243-20.4c-0.068-1.775-.307-2.9-0.71-3.36s-2.12-.865-5.153-1.2V36.645q8.183,0.409,12.927.408l19.1-.408a41.774,41.774,0,0,1,5.441.322l0.244,0.5a124.464,124.464,0,0,0-1.112,13.218h-2.742a48.892,48.892,0,0,0-.4-7.04,2.662,2.662,0,0,0-1.576-.858,35.147,35.147,0,0,0-8.812-.811q-2.916,0-6.8.318-0.45,13.945-.519,22.2,3.711,0.321,6.97.32,4.822,0,5.795-.408a1.749,1.749,0,0,0,.832-1.309,51.29,51.29,0,0,0,.485-5.689h2.985q-0.176,7.648-.176,9.954l0.176,10.182h-2.985q-0.24-5.949-.625-6.853a1.34,1.34,0,0,0-.936-0.775,36.769,36.769,0,0,0-7.806-.5,37.362,37.362,0,0,0-4.471.315q-0.075,2.382-.072,4.858,0,12.864.347,19.787l6.882,0.135a65.894,65.894,0,0,0,10.742-.808q0.869-4.176,1.668-9.484h2.875q-0.8,8.044-.938,15.438-3.156.314-6.068,0.315-1.906,0-7.529-.155-5.238-.159-9.644-0.158Q296.176,99.656,289.76,99.975Zm42.165-.155V96.056q4.437-.22,5.2-0.718a2.133,2.133,0,0,0,.766-1.164q0.4-1.071.5-7.563,0.194-10.749.192-16.209l-0.07-18.938q0-7.52-.4-8.684a1.8,1.8,0,0,0-.69-0.986c-0.485-.358-2.313-0.7-5.5-1.032V37q5.688,0.223,8.419.227,3.024,0,6.873-.227,8.4,13.192,18.99,28.631,7.046,10.317,12.16,17.049V64.907q0-10.1-.182-17.411a20.2,20.2,0,0,0-.58-5.342,1.332,1.332,0,0,0-.8-0.761,36.677,36.677,0,0,0-5.092-.633V37q3.951,0.223,7.874.227,5.372,0,9.73-.227v3.759a19.889,19.889,0,0,0-4.884.718,1.923,1.923,0,0,0-.758.626,2.86,2.86,0,0,0-.437,1.029,52.125,52.125,0,0,0-.3,6.9L382.8,67.938l-0.075,18.046q0,7.249.26,14.505l-0.474.627q-4.424-.99-6.248-1.3-9.35-12.753-22.589-32.039-6.693-9.746-10.8-16.414v17.4q0,7.111.18,17.13,0.112,7.385.508,8.5a1.359,1.359,0,0,0,.543.761q0.693,0.493,5.243.894v3.763c-3.917-.212-6.713-0.318-8.4-0.318Q338.848,99.506,331.925,99.819ZM392.9,99.975V96.193q4.5-.318,5.082-1.038c0.388-.48.63-1.669,0.715-3.561q0.264-5.946.262-22.161,0-6.219-.131-18.017-0.067-8.064-.262-8.853a1.945,1.945,0,0,0-.687-1.149q-0.721-.5-4.981-0.856V36.773q6.75,0.318,10.322.318,6.159,0,11.139-.318v3.786q-4.485.361-5.057,0.968a5.033,5.033,0,0,0-.742,2.817q-0.264,4.324-.264,17.524,0,17.567.1,24.483t0.589,8.218a1.617,1.617,0,0,0,.836.926,19.806,19.806,0,0,0,4.539.7v3.781l-3.867-.133q-3.666-.186-6.555-0.182Zm26.014-.155V96.056q4.522-.22,5.3-0.718a2.127,2.127,0,0,0,.78-1.164q0.41-1.071.5-7.563,0.2-10.749.2-16.209L425.62,51.464q0-7.52-.406-8.684a1.8,1.8,0,0,0-.7-0.986c-0.492-.358-2.359-0.7-5.6-1.032V37q5.79,0.223,8.577.227,3.078,0,7-.227,8.553,13.192,19.342,28.631,7.181,10.317,12.385,17.049V64.907q0-10.1-.187-17.411a19.783,19.783,0,0,0-.591-5.342,1.339,1.339,0,0,0-.816-0.761,38.1,38.1,0,0,0-5.186-.633V37q4.032,0.223,8.023.227,5.464,0,9.907-.227v3.759a20.574,20.574,0,0,0-4.974.718,1.943,1.943,0,0,0-.771.626,2.829,2.829,0,0,0-.444,1.029,50.122,50.122,0,0,0-.3,6.9l-0.14,17.909-0.074,18.046q0,7.249.261,14.505l-0.483.627q-4.5-.99-6.365-1.3-9.524-12.753-23.008-32.039-6.819-9.746-11-16.414v17.4q0,7.111.187,17.13,0.113,7.385.517,8.5a1.35,1.35,0,0,0,.555.761q0.707,0.493,5.337.894v3.763c-3.987-.212-6.835-0.318-8.56-0.318Q425.962,99.506,418.914,99.819Zm95.025-22.465v-3.7q6.771,0.226,12.1.23,4.914,0,10.609-.23v2.925a22.227,22.227,0,0,0-3.127,1.511q-0.45,4.618-.447,7.864,0,2.334.447,9.238a72.336,72.336,0,0,1-12.339,4.419,45.338,45.338,0,0,1-10.293,1.155q-14.369,0-22.5-9.166T480.25,67.846q0-15,8.3-24t23.818-9.006a51.367,51.367,0,0,1,10.5,1.05,43.168,43.168,0,0,1,9.565,3.2l0.335,0.687a120.59,120.59,0,0,0-1.6,14.447h-3.125a62.483,62.483,0,0,0-.487-7.68,14.824,14.824,0,0,0-6.124-5.074,21.274,21.274,0,0,0-8.839-1.691,18.483,18.483,0,0,0-15.245,7.137q-5.675,7.135-5.675,19.537,0,13.226,5.97,21.3t14.722,8.078a21.217,21.217,0,0,0,9.9-2.788q0.3-3.524.295-6.678,0-7.04-.667-7.774T513.939,77.354Zm44.366-1h4.12q0.047,8.307.444,9.738a10.264,10.264,0,0,0,2.692,3.759,17.111,17.111,0,0,0,5.944,3.788,20.013,20.013,0,0,0,7.488,1.459,13.8,13.8,0,0,0,10.557-4.209,14.74,14.74,0,0,0,3.955-10.5q0-5.783-2.62-8.869-2.668-3.088-10.108-4.376-11.051-1.909-14.911-4.157a15.513,15.513,0,0,1-6.084-6.743,24.157,24.157,0,0,1-2.223-10.792,26.8,26.8,0,0,1,6.2-17.9q6.2-7.334,19.8-7.333a42.268,42.268,0,0,1,9.468.955,34.5,34.5,0,0,1,8.3,3.148l0.467,1.349a64.193,64.193,0,0,0-1.055,6.409q-0.3,2.868-.539,9.9h-4.025q-0.229-8.635-.7-9.7-0.893-1.848-4.517-3.894a16.64,16.64,0,0,0-8.311-2.047q-6.412,0-9.946,3.732a13.429,13.429,0,0,0-3.533,9.626,12.875,12.875,0,0,0,1.454,6.259,9.012,9.012,0,0,0,4.047,3.93q2.6,1.267,11.164,2.892,7.773,1.4,10.532,2.75a14.843,14.843,0,0,1,6.88,6.678,24.41,24.41,0,0,1,2.343,11.339q0,11.9-7.583,19.787t-20.736,7.884a38.963,38.963,0,0,1-10.624-1.349,40.3,40.3,0,0,1-9.879-4.437,58.663,58.663,0,0,0,1.123-7.126Q558.257,83.876,558.3,76.35Zm46.874-35.584V37q6.971,0.318,12.236.315,3.356,0,9.477-.315v3.766a9.9,9.9,0,0,0-4.446.716,1.642,1.642,0,0,0-.722.761,5.378,5.378,0,0,0-.511,2.106q-0.21,2.513-.345,14.429-0.1,8.3-.1,16.848,0,7.037,1.234,10.328a9.929,9.929,0,0,0,3.587,4.905,13.138,13.138,0,0,0,7.457,2.286q5.506,0,8.41-2.374a11.616,11.616,0,0,0,3.9-6.542q0.991-4.162.992-18.236l-0.034-16.58a32.94,32.94,0,0,0-.41-6.718,1.679,1.679,0,0,0-.722-0.941q-0.814-.625-4.992-0.984V37q4.414,0.318,8.14.315,3.213,0,7.9-.315v3.766c-2.261,0-3.666.329-4.225,0.984s-0.893,2.36-1.011,5.11q-0.375,10.037-.412,22.715,0,8.108-.165,10.619a31.041,31.041,0,0,1-2.3,10.556,16.172,16.172,0,0,1-6.357,7.191,20.227,20.227,0,0,1-11.046,2.822A22.138,22.138,0,0,1,619.3,98.076a15.592,15.592,0,0,1-6.462-6.79q-1.914-4.1-1.91-12.031l0.165-20.163q0-2.415-.165-12.319a14.3,14.3,0,0,0-.516-4.216,2.156,2.156,0,0,0-.839-0.984A17.273,17.273,0,0,0,605.179,40.766Zm56.7,59.053V96.056c2.959-.146,4.7-0.385,5.2-0.718a2.118,2.118,0,0,0,.767-1.164q0.4-1.071.5-7.563,0.193-10.749.194-16.209l-0.072-18.938q0-7.52-.395-8.684a1.784,1.784,0,0,0-.688-0.986c-0.484-.358-2.315-0.7-5.5-1.032V37q5.688,0.223,8.421.227,3.024,0,6.873-.227,8.4,13.192,18.99,28.631,7.053,10.317,12.165,17.049V64.907q0-10.1-.182-17.411a20.31,20.31,0,0,0-.584-5.342,1.32,1.32,0,0,0-.8-0.761,36.946,36.946,0,0,0-5.091-.633V37q3.957,0.223,7.871.227,5.375,0,9.728-.227v3.759a19.851,19.851,0,0,0-4.88.718,1.9,1.9,0,0,0-.762.626,2.824,2.824,0,0,0-.433,1.029,50.464,50.464,0,0,0-.3,6.9l-0.133,17.909-0.079,18.046q0,7.249.255,14.505l-0.471.627c-2.949-.66-5.028-1.093-6.25-1.3q-9.345-12.753-22.587-32.039-6.693-9.746-10.805-16.414v17.4q0,7.111.183,17.13,0.108,7.385.511,8.5a1.329,1.329,0,0,0,.544.761q0.693,0.493,5.236.894v3.763q-5.873-.318-8.4-0.318Q668.8,99.506,661.878,99.819Z" transform="translate(0 -20.219)"/>
  </g>
</svg>
