<svg height="47" viewBox="0 0 267 47" width="267" xmlns="http://www.w3.org/2000/svg">
  <g fill="none" fill-rule="evenodd">
    <g fill="#404040"><path
      d="m1.191 43.666h1.124c.37 0 .662-.091.877-.273s.322-.429.322-.743c0-.315-.107-.563-.322-.745-.215-.181-.507-.272-.877-.272h-1.124zm-.835 2.886v-5.623h1.959c.629 0 1.128.155 1.497.463.37.309.554.728.554 1.258 0 .523-.184.938-.554 1.244-.369.306-.868.459-1.497.459h-1.124v2.199zm5.697-2.117h2.051l-1.026-2.637zm2.869 2.117-.546-1.414h-2.596l-.546 1.414h-.843l2.249-5.623h.901l2.241 5.623zm2.63-2.968h1.149c.358 0 .643-.088.856-.265.212-.176.318-.413.318-.711s-.106-.535-.318-.711c-.213-.177-.498-.264-.856-.264h-1.149zm0 .686v2.282h-.836v-5.623h1.985c.623 0 1.116.151 1.48.451.364.301.546.71.546 1.228 0 .391-.111.723-.331.992-.221.27-.524.461-.91.571l1.365 2.381h-.951l-1.282-2.282z"/><path d="m17.124 46.552v-4.919h-1.893v-.704h4.622v.704h-1.893v4.919z"/><path
      d="m25.219 45.916c.364 0 .688-.093.972-.278.284-.184.506-.439.665-.765.16-.324.24-.702.24-1.132s-.08-.808-.24-1.133c-.159-.325-.381-.58-.665-.765-.284-.184-.608-.277-.972-.277s-.686.093-.967.277c-.281.185-.502.44-.662.765s-.239.703-.239 1.133.079.808.239 1.132c.16.326.381.581.662.765.281.185.603.278.967.278zm0 .727c-.529 0-.998-.124-1.405-.372-.408-.248-.729-.59-.964-1.025-.234-.436-.351-.937-.351-1.505s.117-1.07.351-1.505c.235-.436.556-.777.964-1.025.407-.248.876-.373 1.405-.373.53 0 .999.125 1.41.373s.733.589.967 1.025c.235.435.352.937.352 1.505s-.117 1.069-.352 1.505c-.234.435-.556.777-.967 1.025s-.88.372-1.41.372z"/><path d="m29.957 46.552h-.835v-5.623h3.498v.704h-2.663v1.901h2.258v.703h-2.258z"/><path d="m36.977 46.552v-4.919h-1.894v-.704h4.622v.704h-1.893v4.919z"/><path d="m40.665 46.552v-5.623h.835v2.407h2.902v-2.407h.835v5.623h-.835v-2.497h-2.902v2.497z"/><path d="m46.709 46.552v-5.623h3.605v.704h-2.77v1.736h2.439v.703h-2.439v1.778h2.836v.702z"/><path
      d="m55.656 45.916c.457 0 .817-.138 1.079-.414.261-.276.392-.648.392-1.116v-3.457h.836v3.465c0 .7-.206 1.25-.617 1.65-.41.399-.974.599-1.69.599-.717 0-1.279-.2-1.687-.599-.408-.4-.612-.95-.612-1.65v-3.465h.835v3.457c0 .468.131.84.393 1.116s.619.414 1.071.414m5.424.727c-.425 0-.83-.074-1.216-.223s-.697-.348-.934-.595l.471-.554c.221.203.481.363.782.479.3.116.599.174.897.174.364 0 .657-.071.881-.211.223-.141.334-.335.334-.583 0-.226-.08-.416-.24-.57-.159-.155-.432-.284-.818-.389l-.778-.207c-.501-.132-.866-.32-1.095-.562s-.343-.56-.343-.951c0-.319.085-.601.256-.843.171-.243.407-.431.707-.567.301-.135.641-.203 1.021-.203.403 0 .78.077 1.133.228.353.152.664.362.934.633l-.504.545c-.237-.22-.483-.39-.74-.508-.256-.119-.528-.178-.814-.178-.348 0-.632.073-.852.219-.221.146-.331.349-.331.608 0 .237.079.422.236.554s.398.242.723.331l.868.239c.502.138.869.331 1.1.579.232.248.348.557.348.926 0 .326-.086.611-.257.856s-.408.436-.711.571-.656.202-1.058.202m4.126-2.208h2.05l-1.025-2.637zm2.869 2.117-.546-1.414h-2.596l-.546 1.414h-.843l2.249-5.623h.901l2.241 5.623z"/><path d="m72.821 46.552v-4.919h-1.894v-.704h4.622v.704h-1.893v4.919z"/><path
      d="m78.559 45.916c.364 0 .688-.093.972-.278.284-.184.506-.439.665-.765.16-.324.24-.702.24-1.132s-.08-.808-.24-1.133c-.159-.325-.381-.58-.665-.765-.284-.184-.608-.277-.972-.277-.363 0-.686.093-.967.277-.281.185-.502.44-.661.765-.16.325-.24.703-.24 1.133s.08.808.24 1.132c.159.326.38.581.661.765.281.185.604.278.967.278zm0 .727c-.529 0-.997-.124-1.405-.372s-.729-.59-.963-1.025c-.235-.436-.352-.937-.352-1.505s.117-1.07.352-1.505c.234-.436.555-.777.963-1.025s.876-.373 1.405-.373c.53 0 1 .125 1.41.373.411.248.733.589.968 1.025.234.435.351.937.351 1.505s-.117 1.069-.351 1.505c-.235.435-.557.777-.968 1.025-.41.248-.88.372-1.41.372zm4.738-.793h1.141c.397 0 .738-.088 1.022-.261.283-.174.501-.418.653-.732.151-.314.227-.686.227-1.116s-.076-.802-.227-1.116c-.152-.315-.37-.559-.653-.732-.284-.174-.625-.26-1.022-.26h-1.141zm-.835.702v-5.623h1.976c.552 0 1.034.118 1.447.352.414.234.735.562.964.984.228.422.343.914.343 1.476s-.115 1.054-.343 1.476c-.229.421-.55.75-.964.984-.413.234-.895.351-1.447.351zm6.863-2.117h2.051l-1.026-2.637zm2.869 2.117-.546-1.414h-2.596l-.546 1.414h-.843l2.249-5.623h.901l2.241 5.623z"/><path d="m95.617 44.319v2.233h-.835v-2.233l-1.976-3.39h.984l1.414 2.597 1.414-2.597h.967z"/><path d="m104.266 46.552-3.001-4.308v4.308h-.786v-5.623h.777l3.01 4.308v-4.308h.777v5.623z"/><path d="m106.515 46.552v-5.623h3.605v.704h-2.77v1.736h2.44v.703h-2.44v1.778h2.836v.702z"/><path d="m112.667 46.552v-4.919h-1.894v-.704h4.622v.704h-1.893v4.919z"/><path d="m120.853 46.552-1.315-4.481-1.315 4.481h-.868l-1.497-5.623h.827l1.141 4.449 1.315-4.449h.794l1.323 4.466 1.149-4.466h.81l-1.496 5.623z"/><path
      d="m126.533 45.916c.364 0 .688-.093.972-.278.284-.184.505-.439.665-.765.16-.324.24-.702.24-1.132s-.08-.808-.24-1.133-.381-.58-.665-.765c-.284-.184-.608-.277-.972-.277s-.686.093-.967.277c-.281.185-.502.44-.662.765s-.239.703-.239 1.133.079.808.239 1.132c.16.326.381.581.662.765.281.185.603.278.967.278zm0 .727c-.529 0-.998-.124-1.405-.372-.408-.248-.73-.59-.964-1.025-.234-.436-.351-.937-.351-1.505s.117-1.07.351-1.505c.234-.436.556-.777.964-1.025.407-.248.876-.373 1.405-.373.53 0 .999.125 1.41.373.41.248.733.589.967 1.025.235.435.352.937.352 1.505s-.117 1.069-.352 1.505c-.234.435-.557.777-.967 1.025-.411.248-.88.372-1.41.372zm4.738-3.059h1.15c.358 0 .643-.088.855-.265.212-.176.319-.413.319-.711s-.107-.535-.319-.711c-.212-.177-.497-.264-.855-.264h-1.15zm0 .686v2.282h-.835v-5.623h1.985c.622 0 1.116.151 1.479.451.364.301.546.71.546 1.228 0 .391-.11.723-.33.992-.221.27-.524.461-.91.571l1.364 2.381h-.95l-1.282-2.282z"/><path d="m138.986 46.552-2.522-2.836v2.836h-.835v-5.623h.835v2.464l2.356-2.464h1.034l-2.506 2.58 2.688 3.043z"/><path d="m.356 34.388v-30.6h21.105v6.705h-12.915v5.175h11.475v6.705h-11.475v5.31h13.635v6.705z"/><path d="m50.8 11.483-8.864 22.905h-8.551l-8.865-22.905h8.595l4.681 14.805 4.589-14.805z"/><path
      d="m64.165 16.568c-2.55 0-4.08 1.35-4.59 4.05h8.73c-.21-1.47-.713-2.513-1.508-3.128-.795-.614-1.672-.922-2.632-.922zm10.71 15.48c-1.141.81-2.588 1.5-4.343 2.07-1.755.569-3.622.855-5.602.855-2.73 0-5.063-.503-6.998-1.508-1.935-1.004-3.42-2.407-4.455-4.207s-1.552-3.87-1.552-6.21c0-2.369.51-4.47 1.53-6.3 1.019-1.83 2.43-3.263 4.23-4.298 1.8-1.034 3.899-1.552 6.3-1.552 2.34 0 4.402.502 6.187 1.507 1.785 1.006 3.18 2.401 4.185 4.185 1.005 1.786 1.508 3.878 1.508 6.278 0 .33-.023.675-.068 1.035s-.097.736-.157 1.125h-15.975c.72 2.64 2.684 3.96 5.895 3.96 1.44 0 2.715-.225 3.825-.675 1.109-.45 2.04-.9 2.79-1.35zm12.825-10.305v12.645h-7.83v-22.905h7.155l.405 3.015c.749-1.08 1.724-1.95 2.925-2.61 1.199-.659 2.52-.99 3.96-.99 2.489 0 4.484.81 5.985 2.43 1.5 1.62 2.25 3.945 2.25 6.975v14.085h-7.83v-13.185c0-1.35-.301-2.347-.9-2.993-.601-.645-1.44-.967-2.52-.967s-1.951.345-2.61 1.035c-.661.691-.99 1.845-.99 3.465m19.934 12.645v-22.905c1.26.27 2.535.405 3.825.405 1.32 0 2.655-.135 4.005-.405v22.905zm21.15-12.645v12.645h-7.83v-22.905h7.155l.405 3.015c.749-1.08 1.725-1.95 2.925-2.61 1.199-.659 2.52-.99 3.96-.99 2.489 0 4.484.81 5.985 2.43 1.499 1.62 2.25 3.945 2.25 6.975v14.085h-7.83v-13.185c0-1.35-.3-2.347-.9-2.993-.601-.645-1.44-.967-2.52-.967s-1.95.345-2.61 1.035c-.66.691-.99 1.845-.99 3.465m30.959 5.76c1.32 0 2.385-.473 3.195-1.418.81-.944 1.215-2.212 1.215-3.802s-.405-2.857-1.215-3.803c-.81-.945-1.875-1.417-3.195-1.417-1.35 0-2.43.472-3.24 1.417-.81.946-1.215 2.213-1.215 3.803 0 1.56.405 2.821 1.215 3.78.81.96 1.89 1.44 3.24 1.44zm12.15 4.455c0 2.34-.54 4.343-1.62 6.007-1.08 1.665-2.573 2.94-4.477 3.826-1.906.884-4.118 1.327-6.638 1.327-2.04 0-3.975-.27-5.805-.81s-3.465-1.26-4.905-2.16l2.925-5.04c1.02.6 2.093 1.087 3.218 1.462s2.287.563 3.487.563c2.01 0 3.51-.45 4.5-1.35s1.485-2.175 1.485-3.825v-.81c-.78.781-1.718 1.403-2.812 1.868-1.096.465-2.243.697-3.443.697-2.07 0-3.892-.487-5.467-1.463-1.575-.974-2.806-2.324-3.69-4.05-.886-1.724-1.328-3.697-1.328-5.917 0-2.25.435-4.23 1.305-5.94s2.085-3.045 3.645-4.005 3.36-1.44 5.4-1.44c1.38 0 2.662.331 3.848.99 1.184.66 2.122 1.53 2.812 2.61l.405-3.015h7.155z"/></g><path
      d="m199.613 34.973c-2.491 0-4.876-.428-7.155-1.283-2.281-.855-4.261-2.077-5.94-3.667l4.05-5.085c1.199 1.08 2.549 1.928 4.049 2.542 1.5.616 3.151.923 4.951.923 1.199 0 2.144-.21 2.835-.63.689-.419 1.035-1.05 1.035-1.89 0-.81-.406-1.463-1.216-1.957-.809-.495-2.234-1.013-4.275-1.553l-1.889-.495c-2.761-.72-4.861-1.822-6.3-3.308-1.44-1.485-2.161-3.367-2.161-5.647 0-1.95.51-3.66 1.531-5.13 1.019-1.47 2.43-2.603 4.23-3.398 1.799-.794 3.884-1.192 6.255-1.192 2.339 0 4.574.427 6.705 1.282 2.129.855 4.019 2.018 5.67 3.488l-4.186 5.265c-1.08-.929-2.347-1.74-3.802-2.43s-2.903-1.035-4.343-1.035c-1.2 0-2.122.203-2.767.607-.645.405-.967.998-.967 1.778 0 .72.337 1.343 1.012 1.867.675.526 1.837 1.013 3.488 1.463l2.294.63c3.3.9 5.633 2.13 6.998 3.69s2.047 3.375 2.047 5.445c0 1.95-.502 3.653-1.507 5.107-1.005 1.456-2.423 2.588-4.252 3.398-1.83.81-3.96 1.215-6.39 1.215m31.679-.585-.405-3.015c-.75 1.11-1.732 1.987-2.947 2.632s-2.528.968-3.938.968c-2.67 0-4.71-.787-6.119-2.363-1.411-1.575-2.116-3.847-2.116-6.817v-14.31h7.83v13.41c0 2.49 1.14 3.735 3.42 3.735 2.4 0 3.6-1.5 3.6-4.5v-12.645h7.83v22.905zm20.475-12.645v12.645h-7.83v-22.905h7.154l.406 3.015c.749-1.08 1.724-1.95 2.925-2.61 1.199-.659 2.52-.99 3.96-.99 2.489 0 4.484.81 5.985 2.43 1.499 1.62 2.25 3.945 2.25 6.975v14.085h-7.83v-13.185c0-1.35-.3-2.347-.9-2.993-.601-.645-1.441-.967-2.52-.967-1.08 0-1.951.345-2.61 1.035-.661.691-.99 1.845-.99 3.465m-140.308-12.06c-1.29 0-2.392-.457-3.307-1.372-.916-.916-1.373-2.018-1.373-3.308s.457-2.392 1.373-3.308c.915-.914 2.017-1.372 3.307-1.372s2.392.458 3.308 1.372c.915.916 1.372 2.018 1.372 3.308s-.457 2.392-1.372 3.308c-.916.915-2.018 1.372-3.308 1.372"
      fill="#009bff" class='no-color-change'/></g>
</svg>