<svg xmlns="http://www.w3.org/2000/svg" width="349" height="55" viewBox="0 0 349 55">
  <g fill="none" fill-rule="evenodd">
    <path class='no-color-change' fill="#009BFF" d="M54.176,27.824 C54.176,42.737 42.089,54.824 27.176,54.824 C12.263,54.824 0.176,42.737 0.176,27.824 C0.176,12.911 12.263,0.824 27.176,0.824 C42.089,0.824 54.176,12.911 54.176,27.824"/>
    <path fill="#404040" d="M69.536 21.551C70.515 21.551 71.27 21.263 71.805 20.686 72.338 20.108 72.606 19.287 72.606 18.221L72.606 7.441 77.484 7.441 77.484 18.195C77.484 20.555 76.792 22.384 75.412 23.676 74.029 24.971 72.071 25.617 69.536 25.617 67.001 25.617 65.042 24.971 63.661 23.676 62.279 22.384 61.588 20.555 61.588 18.195L61.588 7.441 66.467 7.441 66.467 18.221C66.467 19.287 66.733 20.108 67.268 20.686 67.801 21.263 68.556 21.551 69.536 21.551M87.241 25.617C85.789 25.617 84.399 25.369 83.072 24.87 81.742 24.372 80.587 23.659 79.608 22.732L81.97 19.767C82.669 20.398 83.456 20.892 84.33 21.25 85.203 21.609 86.166 21.788 87.215 21.788 87.914 21.788 88.466 21.666 88.866 21.421 89.27 21.176 89.471 20.809 89.471 20.319 89.471 19.847 89.234 19.466 88.763 19.178 88.29 18.89 87.46 18.589 86.271 18.274L85.17 17.984C83.559 17.566 82.337 16.922 81.497 16.058 80.657 15.191 80.237 14.095 80.237 12.765 80.237 11.629 80.534 10.631 81.13 9.774 81.723 8.919 82.546 8.258 83.595 7.795 84.644 7.331 85.859 7.1 87.241 7.1 88.605 7.1 89.908 7.349 91.149 7.848 92.39 8.347 93.492 9.023 94.455 9.88L92.014 12.95C91.385 12.407 90.646 11.934 89.799 11.534 88.949 11.13 88.106 10.929 87.268 10.929 86.567 10.929 86.031 11.048 85.654 11.283 85.279 11.52 85.091 11.865 85.091 12.319 85.091 12.739 85.286 13.102 85.68 13.408 86.073 13.714 86.752 13.999 87.712 14.261L89.051 14.628C90.974 15.151 92.334 15.869 93.129 16.779 93.926 17.688 94.323 18.745 94.323 19.952 94.323 21.09 94.029 22.08 93.443 22.93 92.858 23.777 92.032 24.436 90.965 24.909 89.899 25.382 88.657 25.617 87.241 25.617M102.48 18.327L106.702 18.327 104.604 12.083 102.48 18.327zM109.062 25.276L107.934 21.945 101.246 21.945 100.118 25.276 95.293 25.276 101.824 7.441 107.49 7.441 114.019 25.276 109.062 25.276 109.062 25.276z"/>
    <polyline fill="#404040" points="125.218 25.276 125.218 11.375 119.92 11.375 119.92 7.441 135.395 7.441 135.395 11.375 130.097 11.375 130.097 25.276 125.218 25.276"/>
    <path fill="#404040" d="M145.597 21.578C146.454 21.578 147.202 21.359 147.841 20.922 148.479 20.485 148.982 19.879 149.349 19.099 149.717 18.321 149.899 17.417 149.899 16.385 149.899 15.353 149.717 14.443 149.349 13.658 148.982 12.87 148.479 12.255 147.841 11.808 147.202 11.362 146.454 11.14 145.597 11.14 144.74 11.14 143.993 11.362 143.356 11.808 142.718 12.255 142.215 12.87 141.848 13.658 141.481 14.443 141.296 15.353 141.296 16.385 141.296 17.417 141.481 18.321 141.848 19.099 142.215 19.879 142.718 20.485 143.356 20.922 143.993 21.359 144.74 21.578 145.597 21.578zM145.597 25.617C143.814 25.617 142.228 25.224 140.838 24.436 139.449 23.651 138.35 22.562 137.546 21.173 136.742 19.781 136.339 18.185 136.339 16.385 136.339 15.021 136.567 13.775 137.021 12.646 137.476 11.52 138.122 10.541 138.963 9.71 139.803 8.88 140.78 8.238 141.901 7.782 143.019 7.328 144.251 7.1 145.597 7.1 146.944 7.1 148.178 7.328 149.297 7.782 150.415 8.238 151.395 8.88 152.235 9.71 153.073 10.541 153.72 11.52 154.175 12.646 154.63 13.775 154.856 15.021 154.856 16.385 154.856 18.185 154.455 19.781 153.651 21.173 152.846 22.562 151.749 23.651 150.359 24.436 148.969 25.224 147.381 25.617 145.597 25.617L145.597 25.617zM162.463 21.421L164.693 21.421C165.968 21.421 166.979 20.958 167.721 20.031 168.466 19.104 168.837 17.88 168.837 16.359 168.837 14.837 168.466 13.615 167.721 12.686 166.979 11.76 165.968 11.296 164.693 11.296L162.463 11.296 162.463 21.421zM157.662 25.276L157.662 7.441 164.693 7.441C166.458 7.441 168.019 7.821 169.375 8.582 170.729 9.343 171.791 10.392 172.562 11.729 173.33 13.066 173.715 14.611 173.715 16.359 173.715 18.108 173.33 19.651 172.562 20.988 171.791 22.325 170.729 23.374 169.375 24.135 168.019 24.896 166.458 25.276 164.693 25.276L157.662 25.276 157.662 25.276zM181.531 18.327L185.753 18.327 183.655 12.083 181.531 18.327zM188.113 25.276L186.985 21.945 180.297 21.945 179.168 25.276 174.344 25.276 180.875 7.441 186.54 7.441 193.07 25.276 188.113 25.276 188.113 25.276z"/>
    <polyline fill="#404040" points="202.513 18.85 202.513 25.276 197.556 25.276 197.556 18.85 191.234 7.441 196.742 7.441 200.048 14.522 203.324 7.441 208.833 7.441 202.513 18.85"/>
    <polyline fill="#404040" points="227.797 25.276 220.795 14.995 220.795 25.276 216.309 25.276 216.309 7.441 220.769 7.441 227.744 17.907 227.744 7.441 232.257 7.441 232.257 25.276 227.797 25.276"/>
    <polyline fill="#404040" points="236.19 25.276 236.19 7.441 248.491 7.441 248.491 11.349 240.964 11.349 240.964 14.366 247.652 14.366 247.652 18.274 240.964 18.274 240.964 21.368 248.911 21.368 248.911 25.276 236.19 25.276"/>
    <polyline fill="#404040" points="255.912 25.276 255.912 11.375 250.615 11.375 250.615 7.441 266.09 7.441 266.09 11.375 260.792 11.375 260.792 25.276 255.912 25.276"/>
    <polyline fill="#404040" points="282.56 25.276 279.677 13.684 276.791 25.276 271.623 25.276 267.192 7.441 271.911 7.441 274.615 19.611 277.603 7.441 281.775 7.441 284.738 19.532 287.519 7.441 292.161 7.441 287.728 25.276 282.56 25.276"/>
    <path fill="#404040" d="M302.546 21.578C303.404 21.578 304.151 21.359 304.789 20.922 305.428 20.485 305.931 19.879 306.298 19.099 306.665 18.321 306.848 17.417 306.848 16.385 306.848 15.353 306.665 14.443 306.298 13.658 305.931 12.87 305.428 12.255 304.789 11.808 304.151 11.362 303.404 11.14 302.546 11.14 301.69 11.14 300.942 11.362 300.305 11.808 299.666 12.255 299.163 12.87 298.796 13.658 298.429 14.443 298.244 15.353 298.244 16.385 298.244 17.417 298.429 18.321 298.796 19.099 299.163 19.879 299.666 20.485 300.305 20.922 300.942 21.359 301.69 21.578 302.546 21.578zM302.546 25.617C300.763 25.617 299.177 25.224 297.787 24.436 296.397 23.651 295.299 22.562 294.495 21.173 293.691 19.781 293.287 18.185 293.287 16.385 293.287 15.021 293.516 13.775 293.969 12.646 294.425 11.52 295.072 10.541 295.911 9.71 296.751 8.88 297.729 8.238 298.849 7.782 299.968 7.328 301.199 7.1 302.546 7.1 303.893 7.1 305.126 7.328 306.245 7.782 307.364 8.238 308.343 8.88 309.183 9.71 310.022 10.541 310.669 11.52 311.123 12.646 311.579 13.775 311.805 15.021 311.805 16.385 311.805 18.185 311.404 19.781 310.6 21.173 309.795 22.562 308.698 23.651 307.308 24.436 305.917 25.224 304.33 25.617 302.546 25.617L302.546 25.617zM319.386 15.65L322.009 15.65C322.761 15.65 323.356 15.454 323.792 15.061 324.23 14.667 324.448 14.129 324.448 13.447 324.448 12.801 324.23 12.279 323.792 11.888 323.356 11.494 322.761 11.296 322.009 11.296L319.386 11.296 319.386 15.65zM319.386 19.35L319.386 25.276 314.664 25.276 314.664 7.441 322.532 7.441C324.633 7.441 326.292 7.979 327.516 9.055 328.74 10.13 329.353 11.594 329.353 13.447 329.353 14.654 329.081 15.694 328.54 16.568 327.998 17.443 327.238 18.125 326.258 18.615L329.905 25.276 324.71 25.276 321.747 19.35 319.386 19.35 319.386 19.35z"/>
    <polyline fill="#404040" points="343.044 25.276 337.379 16.557 337.379 25.276 332.526 25.276 332.526 7.441 337.379 7.441 337.379 15.27 343.253 7.441 348.867 7.441 342.257 15.637 348.736 25.276 343.044 25.276"/>
    <polyline class='no-color-change' fill="#009BFF" points="61.568 48.129 61.568 30.293 66.448 30.293 66.448 37.166 72.506 37.166 72.506 30.293 77.384 30.293 77.384 48.129 72.506 48.129 72.506 41.154 66.448 41.154 66.448 48.129 61.568 48.129"/>
    <path class='no-color-change' fill="#009BFF" d="M86.905,41.18 L91.127,41.18 L89.029,34.936 L86.905,41.18 Z M93.487,48.129 L92.359,44.797 L85.671,44.797 L84.543,48.129 L79.717,48.129 L86.249,30.293 L91.914,30.293 L98.444,48.129 L93.487,48.129 L93.487,48.129 Z"/>
    <polyline class='no-color-change' fill="#009BFF" points="103.271 48.129 103.271 34.228 97.973 34.228 97.973 30.293 113.449 30.293 113.449 34.228 108.151 34.228 108.151 48.129 103.271 48.129"/>
    <polyline class='no-color-change' fill="#009BFF" points="120.608 48.129 120.608 34.228 115.309 34.228 115.309 30.293 130.785 30.293 130.785 34.228 125.487 34.228 125.487 48.129 120.608 48.129"/>
    <polygon class='no-color-change' fill="#009BFF" points="133.354 48.129 138.234 48.129 138.234 30.293 133.354 30.293"/>
    <polyline class='no-color-change' fill="#009BFF" points="142.166 48.129 142.166 30.293 154.469 30.293 154.469 34.202 146.941 34.202 146.941 37.219 153.629 37.219 153.629 41.127 146.941 41.127 146.941 44.221 154.888 44.221 154.888 48.129 142.166 48.129"/>
    <path class='no-color-change' fill="#009BFF" d="M164.253 48.47C162.801 48.47 161.411 48.221 160.083 47.722 158.753 47.225 157.599 46.511 156.619 45.584L158.981 42.62C159.68 43.251 160.467 43.745 161.341 44.103 162.215 44.462 163.178 44.641 164.226 44.641 164.925 44.641 165.477 44.519 165.878 44.274 166.281 44.029 166.483 43.662 166.483 43.172 166.483 42.7 166.245 42.319 165.775 42.031 165.302 41.743 164.471 41.442 163.283 41.127L162.181 40.837C160.571 40.418 159.348 39.775 158.509 38.911 157.668 38.043 157.248 36.948 157.248 35.618 157.248 34.483 157.546 33.484 158.141 32.627 158.735 31.772 159.557 31.111 160.607 30.648 161.656 30.185 162.87 29.953 164.253 29.953 165.616 29.953 166.92 30.201 168.161 30.701 169.402 31.2 170.504 31.875 171.466 32.733L169.025 35.802C168.396 35.26 167.658 34.787 166.81 34.386 165.961 33.983 165.117 33.782 164.279 33.782 163.578 33.782 163.042 33.901 162.665 34.136 162.29 34.373 162.102 34.718 162.102 35.171 162.102 35.591 162.298 35.955 162.691 36.26 163.085 36.567 163.763 36.852 164.723 37.114L166.063 37.481C167.986 38.004 169.345 38.722 170.14 39.631 170.937 40.541 171.334 41.598 171.334 42.805 171.334 43.943 171.04 44.933 170.455 45.783 169.869 46.63 169.044 47.289 167.976 47.762 166.91 48.235 165.669 48.47 164.253 48.47M178.809 44.404L182.113 44.404C182.708 44.404 183.188 44.239 183.555 43.907 183.923 43.576 184.108 43.162 184.108 42.673 184.108 42.15 183.923 41.72 183.555 41.389 183.188 41.057 182.708 40.89 182.113 40.89L178.809 40.89 178.809 44.404zM178.809 37.375L181.668 37.375C182.244 37.375 182.699 37.223 183.032 36.915 183.364 36.611 183.529 36.195 183.529 35.67 183.529 35.164 183.356 34.761 183.005 34.463 182.656 34.167 182.192 34.019 181.615 34.019L178.809 34.019 178.809 37.375zM188.933 43.225C188.933 44.186 188.661 45.038 188.12 45.783 187.578 46.525 186.812 47.103 185.824 47.513 184.836 47.924 183.678 48.129 182.35 48.129L174.27 48.129 174.27 30.293 182.009 30.293C183.932 30.293 185.449 30.71 186.56 31.54 187.668 32.371 188.224 33.503 188.224 34.936 188.224 35.929 187.976 36.78 187.477 37.485 186.98 38.191 186.354 38.71 185.603 39.042 186.615 39.357 187.426 39.884 188.029 40.62 188.631 41.357 188.933 42.225 188.933 43.225L188.933 43.225zM199.399 44.404C200.377 44.404 201.133 44.116 201.668 43.539 202.2 42.961 202.468 42.14 202.468 41.075L202.468 30.293 207.346 30.293 207.346 41.048C207.346 43.408 206.655 45.237 205.275 46.529 203.892 47.825 201.933 48.47 199.399 48.47 196.864 48.47 194.905 47.825 193.524 46.529 192.142 45.237 191.45 43.408 191.45 41.048L191.45 30.293 196.33 30.293 196.33 41.075C196.33 42.14 196.596 42.961 197.131 43.539 197.663 44.116 198.419 44.404 199.399 44.404M215.659 38.503L218.282 38.503C219.034 38.503 219.629 38.307 220.067 37.913 220.503 37.52 220.722 36.982 220.722 36.3 220.722 35.654 220.503 35.132 220.067 34.741 219.629 34.347 219.034 34.149 218.282 34.149L215.659 34.149 215.659 38.503zM215.659 42.203L215.659 48.129 210.938 48.129 210.938 30.293 218.807 30.293C220.907 30.293 222.566 30.832 223.79 31.908 225.014 32.983 225.626 34.447 225.626 36.3 225.626 37.507 225.355 38.546 224.815 39.42 224.272 40.296 223.511 40.978 222.532 41.468L226.178 48.129 220.984 48.129 218.021 42.203 215.659 42.203 215.659 42.203zM244.748 46.032C243.994 46.801 242.955 47.399 241.625 47.828 240.297 48.255 238.828 48.47 237.22 48.47 235.295 48.47 233.63 48.082 232.224 47.302 230.815 46.525 229.723 45.436 228.945 44.037 228.167 42.639 227.777 41.022 227.777 39.185 227.777 37.349 228.17 35.741 228.958 34.36 229.745 32.978 230.847 31.899 232.263 31.12 233.679 30.343 235.331 29.953 237.22 29.953 240.437 29.953 242.929 31.161 244.696 33.573L240.787 35.854C240.42 35.26 239.917 34.8 239.279 34.477 238.64 34.155 237.936 33.993 237.167 33.993 235.768 33.993 234.68 34.463 233.902 35.409 233.124 36.353 232.734 37.613 232.734 39.185 232.734 40.952 233.177 42.266 234.06 43.132 234.942 43.999 236.224 44.43 237.902 44.43 238.689 44.43 239.467 44.3 240.236 44.037L240.236 41.415 237.062 41.415 237.062 37.874 244.748 37.874 244.748 46.032"/>
  </g>
</svg>
