<svg height="48" viewBox="0 0 484 48" width="484" xmlns="http://www.w3.org/2000/svg">
  <g fill="none" fill-rule="evenodd">
    <g fill="#404040"><path
      d="m1.243 44.486h1.193c.391 0 .701-.097.929-.29s.342-.456.342-.789c0-.334-.114-.597-.342-.79s-.538-.289-.929-.289h-1.193zm-.886 3.061v-5.964h2.079c.666 0 1.196.163 1.587.49.392.328.588.772.588 1.334 0 .556-.196.995-.588 1.32-.391.325-.921.487-1.587.487h-1.193v2.333zm6.043-2.246h2.176l-1.088-2.798zm3.044 2.246-.579-1.5h-2.754l-.579 1.5h-.895l2.386-5.964h.956l2.377 5.964zm2.79-3.149h1.219c.38 0 .682-.094.908-.28.225-.187.337-.439.337-.755s-.112-.567-.337-.754c-.226-.187-.528-.281-.908-.281h-1.219zm0 .728v2.421h-.886v-5.964h2.105c.66 0 1.184.159 1.57.478.386.318.579.752.579 1.302 0 .415-.117.766-.351 1.053s-.556.488-.965.605l1.447 2.526h-1.009l-1.359-2.421z"/><path d="m18.146 47.547v-5.219h-2.009v-.745h4.903v.745h-2.009v5.219z"/><path
      d="m26.732 46.872c.386 0 .73-.098 1.031-.294s.537-.467.706-.811c.17-.346.255-.746.255-1.202 0-.457-.085-.857-.255-1.202-.169-.345-.405-.615-.706-.811s-.645-.294-1.031-.294-.727.098-1.026.294c-.298.196-.532.466-.701.811-.17.345-.255.745-.255 1.202 0 .456.085.856.255 1.202.169.344.403.615.701.811.299.196.64.294 1.026.294zm0 .771c-.561 0-1.058-.131-1.49-.394-.433-.263-.774-.626-1.023-1.088-.248-.462-.372-.994-.372-1.596s.124-1.135.372-1.597c.249-.462.59-.824 1.023-1.087.432-.263.929-.395 1.49-.395.562 0 1.06.132 1.496.395s.778.625 1.026 1.087c.249.462.373.995.373 1.597s-.124 1.134-.373 1.596c-.248.462-.59.825-1.026 1.088s-.934.394-1.496.394z"/><path d="m31.759 47.547h-.886v-5.964h3.71v.745h-2.824v2.018h2.394v.745h-2.394z"/><path d="m39.206 47.547v-5.219h-2.009v-.745h4.903v.745h-2.009v5.219z"/><path d="m43.118 47.547v-5.964h.886v2.552h3.078v-2.552h.886v5.964h-.886v-2.649h-3.078v2.649z"/><path d="m49.529 47.547v-5.964h3.825v.745h-2.939v1.842h2.588v.745h-2.588v1.887h3.009v.745z"/><path
      d="m59.02 46.872c.485 0 .867-.146 1.145-.439.277-.292.416-.687.416-1.184v-3.666h.886v3.675c0 .742-.218 1.326-.653 1.749-.436.425-1.034.636-1.794.636s-1.357-.211-1.789-.636c-.433-.423-.65-1.007-.65-1.749v-3.675h.886v3.666c0 .497.139.892.417 1.184.278.293.656.439 1.136.439m5.754.771c-.45 0-.88-.078-1.289-.236-.41-.158-.74-.369-.992-.632l.5-.587c.234.216.51.386.829.508.319.123.636.184.952.184.386 0 .697-.074.934-.223s.355-.356.355-.619c0-.239-.084-.441-.254-.605s-.459-.301-.868-.412l-.825-.219c-.532-.141-.92-.34-1.162-.597-.243-.257-.364-.593-.364-1.009 0-.339.09-.637.272-.895.181-.257.431-.457.75-.6s.68-.215 1.083-.215c.427 0 .828.08 1.202.241s.705.384.991.671l-.535.579c-.251-.234-.513-.414-.785-.539-.272-.126-.56-.189-.864-.189-.368 0-.67.078-.904.233s-.35.369-.35.644c0 .252.083.448.249.588.167.14.423.257.768.351l.921.254c.532.146.921.351 1.167.614.245.263.368.591.368.982 0 .346-.091.648-.272.909-.181.26-.433.462-.754.604-.322.144-.696.215-1.123.215m4.377-2.342h2.175l-1.087-2.798zm3.044 2.246-.579-1.5h-2.754l-.579 1.5h-.895l2.386-5.964h.956l2.377 5.964z"/><path d="m77.23 47.547v-5.219h-2.009v-.745h4.903v.745h-2.008v5.219z"/><path
      d="m83.317 46.872c.386 0 .729-.098 1.031-.294.301-.196.536-.467.706-.811.169-.346.254-.746.254-1.202 0-.457-.085-.857-.254-1.202-.17-.345-.405-.615-.706-.811-.302-.196-.645-.294-1.031-.294s-.728.098-1.026.294c-.299.196-.533.466-.702.811-.17.345-.254.745-.254 1.202 0 .456.084.856.254 1.202.169.344.403.615.702.811.298.196.64.294 1.026.294zm0 .771c-.562 0-1.059-.131-1.491-.394-.433-.263-.774-.626-1.022-1.088-.249-.462-.373-.994-.373-1.596s.124-1.135.373-1.597c.248-.462.589-.824 1.022-1.087.432-.263.929-.395 1.491-.395.561 0 1.06.132 1.495.395.436.263.778.625 1.027 1.087.248.462.372.995.372 1.597s-.124 1.134-.372 1.596c-.249.462-.591.825-1.027 1.088-.435.263-.934.394-1.495.394zm5.026-.841h1.21c.421 0 .783-.093 1.084-.277s.532-.443.693-.776c.16-.333.241-.728.241-1.184 0-.457-.081-.851-.241-1.184-.161-.334-.392-.593-.693-.777s-.663-.276-1.084-.276h-1.21zm-.886.745v-5.964h2.096c.585 0 1.097.124 1.535.372.439.249.78.597 1.022 1.044.243.448.364.969.364 1.566 0 .596-.121 1.118-.364 1.565-.242.448-.583.796-1.022 1.044-.438.249-.95.373-1.535.373zm7.281-2.246h2.175l-1.088-2.798zm3.043 2.246-.579-1.5h-2.754l-.579 1.5h-.895l2.386-5.964h.956l2.377 5.964z"/><path d="m101.412 45.179v2.368h-.885v-2.368l-2.097-3.596h1.044l1.5 2.754 1.5-2.754h1.026z"/><path d="m110.587 47.547-3.184-4.57v4.57h-.833v-5.964h.825l3.192 4.57v-4.57h.825v5.964z"/><path d="m112.973 47.547v-5.964h3.825v.745h-2.939v1.842h2.588v.745h-2.588v1.887h3.009v.745z"/><path d="m119.499 47.547v-5.219h-2.008v-.745h4.903v.745h-2.009v5.219z"/><path d="m128.183 47.547-1.395-4.754-1.394 4.754h-.921l-1.588-5.964h.877l1.211 4.718 1.394-4.718h.842l1.404 4.736 1.219-4.736h.86l-1.588 5.964z"/><path
      d="m134.209 46.872c.386 0 .729-.098 1.031-.294.301-.196.536-.467.706-.811.169-.346.254-.746.254-1.202 0-.457-.085-.857-.254-1.202-.17-.345-.405-.615-.706-.811-.302-.196-.645-.294-1.031-.294s-.728.098-1.026.294-.533.466-.702.811c-.17.345-.254.745-.254 1.202 0 .456.084.856.254 1.202.169.344.404.615.702.811s.64.294 1.026.294zm0 .771c-.562 0-1.059-.131-1.491-.394-.433-.263-.774-.626-1.022-1.088-.249-.462-.373-.994-.373-1.596s.124-1.135.373-1.597c.248-.462.589-.824 1.022-1.087.432-.263.929-.395 1.491-.395.561 0 1.06.132 1.496.395.435.263.777.625 1.026 1.087.248.462.373.995.373 1.597s-.125 1.134-.373 1.596c-.249.462-.591.825-1.026 1.088-.436.263-.935.394-1.496.394zm5.026-3.245h1.219c.38 0 .683-.094.908-.28.225-.187.338-.439.338-.755s-.113-.567-.338-.754-.528-.281-.908-.281h-1.219zm0 .728v2.421h-.886v-5.964h2.105c.661 0 1.184.159 1.57.478.386.318.579.752.579 1.302 0 .415-.117.766-.351 1.053-.233.287-.555.488-.964.605l1.447 2.526h-1.009l-1.36-2.421z"/><path d="m147.419 47.547-2.675-3.008v3.008h-.886v-5.964h.886v2.613l2.499-2.613h1.097l-2.658 2.736 2.851 3.228z"/></g><path d="m.357 34.652v-30.6h8.37v11.791h10.395v-11.791h8.37v30.6h-8.37v-11.97h-10.395v11.97z" fill="#009bff" class='no-color-change'/><path
      d="m39.776 27.227c0 .691.255 1.253.765 1.688s1.17.652 1.98.652c1.081 0 1.987-.367 2.723-1.102.735-.735 1.102-1.658 1.102-2.768v-.765c-.81-.15-1.665-.225-2.565-.225-1.14 0-2.092.196-2.857.585-.765.39-1.148 1.035-1.148 1.935zm6.885 7.425-.405-3.015c-1.5 2.401-3.779 3.6-6.84 3.6-1.35 0-2.572-.292-3.667-.877s-1.965-1.388-2.61-2.408c-.646-1.019-.968-2.205-.968-3.555 0-2.549.997-4.529 2.993-5.94 1.995-1.409 4.627-2.114 7.897-2.114 1.02 0 2.1.089 3.24.269-.12-1.14-.607-2.002-1.462-2.587s-1.898-.878-3.128-.878c-1.08 0-2.167.203-3.262.608s-2.138.893-3.127 1.463l-2.656-5.041c1.5-.959 3.12-1.702 4.86-2.227 1.74-.524 3.48-.788 5.22-.788 2.1 0 3.99.36 5.67 1.08 1.68.721 3 1.816 3.96 3.285.96 1.471 1.44 3.33 1.44 5.58v13.545zm29.025-1.485c-.93.631-1.995 1.133-3.195 1.507-1.2.375-2.46.563-3.78.563-2.46 0-4.417-.712-5.872-2.137-1.456-1.424-2.183-3.338-2.183-5.738v-9.765h-3.735v-5.85h4.095l.99-6.39h6.48v6.39h5.985v5.85h-5.985v8.775c0 .781.232 1.389.698 1.823.465.435 1.087.652 1.867.652.39 0 .788-.074 1.193-.225.405-.15.787-.329 1.147-.54zm20.61 0c-.93.631-1.995 1.133-3.195 1.507-1.2.375-2.46.563-3.78.563-2.46 0-4.418-.712-5.873-2.137-1.455-1.424-2.182-3.338-2.182-5.738v-9.765h-3.735v-5.85h4.095l.99-6.39h6.48v6.39h5.985v5.85h-5.985v8.775c0 .781.232 1.389.697 1.823.465.435 1.088.652 1.868.652.389 0 .787-.074 1.192-.225.406-.15.788-.329 1.148-.54zm3.735 1.485v-22.905c1.259.27 2.534.405 3.825.405 1.319 0 2.655-.135 4.005-.405v22.905zm3.825-24.705c-1.291 0-2.393-.457-3.308-1.372s-1.372-2.018-1.372-3.308c0-1.289.457-2.392 1.372-3.307s2.017-1.372 3.308-1.372c1.289 0 2.392.457 3.307 1.372s1.373 2.018 1.373 3.307c0 1.29-.458 2.393-1.373 3.308s-2.018 1.372-3.307 1.372zm20.339 6.885c-2.55 0-4.08 1.35-4.59 4.051h8.73c-.21-1.47-.713-2.513-1.507-3.128-.796-.615-1.673-.923-2.633-.923zm10.71 15.48c-1.14.81-2.587 1.501-4.342 2.071-1.755.569-3.623.854-5.603.854-2.73 0-5.062-.502-6.997-1.507s-3.42-2.408-4.455-4.208-1.553-3.87-1.553-6.21c0-2.369.51-4.469 1.53-6.3 1.02-1.829 2.43-3.262 4.23-4.297s3.9-1.553 6.3-1.553c2.34 0 4.402.503 6.188 1.508 1.784 1.006 3.179 2.4 4.185 4.185 1.005 1.785 1.507 3.878 1.507 6.278 0 .33-.022.674-.067 1.034s-.098.736-.158 1.125h-15.975c.72 2.64 2.685 3.961 5.895 3.961 1.44 0 2.715-.226 3.825-.676 1.11-.449 2.04-.9 2.79-1.35zm13.5 2.925c-1.98 0-3.833-.314-5.558-.945-1.725-.63-3.277-1.53-4.657-2.699l3.33-4.411c1.05.84 2.183 1.523 3.397 2.048 1.216.525 2.408.787 3.578.787.78 0 1.402-.134 1.868-.405.464-.269.697-.675.697-1.215 0-.569-.263-1.027-.788-1.372s-1.462-.682-2.812-1.013l-2.16-.54c-4.291-1.139-6.435-3.434-6.435-6.884 0-1.531.42-2.85 1.26-3.96s1.995-1.965 3.465-2.566c1.47-.599 3.18-.9 5.13-.9 1.92 0 3.727.301 5.423.9 1.694.601 3.247 1.47 4.657 2.611l-3.42 4.5c-1.05-.84-2.16-1.515-3.33-2.026-1.17-.51-2.265-.764-3.285-.764-1.65 0-2.475.54-2.475 1.62 0 .48.248.87.742 1.17.496.299 1.193.57 2.093.809l2.925.81c2.189.601 3.81 1.501 4.86 2.7 1.05 1.201 1.575 2.626 1.575 4.275 0 1.501-.421 2.813-1.26 3.938-.84 1.125-2.018 1.995-3.532 2.61-1.516.614-3.278.922-5.288.922m26.595-6.21c1.35 0 2.437-.532 3.262-1.597s1.238-2.482 1.238-4.253c0-1.77-.413-3.187-1.238-4.252s-1.912-1.598-3.262-1.598c-1.38 0-2.483.533-3.308 1.598s-1.237 2.482-1.237 4.252c0 1.771.412 3.188 1.237 4.253s1.928 1.597 3.308 1.597zm12.465-5.85c0 2.401-.45 4.508-1.35 6.323s-2.131 3.225-3.69 4.23c-1.56 1.005-3.33 1.507-5.31 1.507-1.62 0-2.993-.337-4.118-1.012-1.125-.676-2.018-1.537-2.677-2.588l-.405 3.015h-7.155v-32.85h7.83v12.555c.749-.99 1.71-1.769 2.88-2.34 1.17-.569 2.565-.855 4.185-.855 1.8 0 3.442.511 4.927 1.53 1.485 1.021 2.67 2.43 3.555 4.231.885 1.799 1.328 3.885 1.328 6.254zm19.215 11.475-.405-3.015c-.75 1.111-1.733 1.988-2.948 2.633-1.214.645-2.527.967-3.937.967-2.671 0-4.71-.787-6.12-2.362-1.411-1.576-2.115-3.848-2.115-6.818v-14.31h7.83v13.41c0 2.491 1.14 3.735 3.42 3.735 2.4 0 3.6-1.5 3.6-4.5v-12.645h7.83v22.905zm20.474-8.865v8.865h-7.83v-22.905h7.155l.495 3.825c.48-1.229 1.267-2.228 2.363-2.992 1.095-.765 2.362-1.148 3.802-1.148.81 0 1.425.106 1.845.315v7.155c-.33-.119-.697-.209-1.102-.269s-.863-.091-1.373-.091c-1.56 0-2.843.578-3.847 1.733-1.006 1.155-1.508 2.992-1.508 5.512m22.635 1.98c1.32 0 2.385-.472 3.195-1.417s1.215-2.213 1.215-3.802c0-1.59-.405-2.858-1.215-3.803s-1.875-1.418-3.195-1.418c-1.35 0-2.43.473-3.24 1.418s-1.215 2.213-1.215 3.803c0 1.56.405 2.82 1.215 3.779.81.961 1.89 1.44 3.24 1.44zm12.15 4.455c0 2.34-.54 4.343-1.62 6.008s-2.573 2.94-4.478 3.825c-1.905.884-4.117 1.328-6.637 1.328-2.04 0-3.976-.271-5.805-.811-1.83-.54-3.465-1.26-4.905-2.16l2.925-5.04c1.019.6 2.092 1.088 3.217 1.463s2.288.562 3.488.562c2.009 0 3.51-.45 4.5-1.349.99-.901 1.485-2.175 1.485-3.826v-.81c-.78.781-1.718 1.403-2.813 1.868s-2.243.697-3.442.697c-2.07 0-3.893-.487-5.468-1.462s-2.805-2.325-3.689-4.05c-.886-1.725-1.328-3.697-1.328-5.917 0-2.25.434-4.231 1.305-5.941.87-1.71 2.085-3.044 3.645-4.005 1.559-.96 3.359-1.44 5.4-1.44 1.38 0 2.662.331 3.847.99 1.185.66 2.122 1.53 2.813 2.61l.405-3.015h7.155z"
      fill="#009bff" class='no-color-change'/><path
      d="m288.443 22.727h7.245l-3.6-10.71zm11.295 11.925-1.935-5.715h-11.475l-1.935 5.715h-8.28l11.205-30.6h9.72l11.205 30.6zm19.71-13.184v13.184h-7.83v-22.905h7.2l.405 2.926c.69-1.11 1.589-1.951 2.7-2.521 1.109-.569 2.295-.854 3.555-.854 1.35 0 2.58.299 3.689.899 1.11.601 2.01 1.44 2.701 2.521.81-1.11 1.867-1.958 3.172-2.543s2.678-.877 4.118-.877c1.59 0 2.992.367 4.207 1.102 1.215.736 2.167 1.755 2.858 3.06.69 1.305 1.035 2.812 1.035 4.522v14.67h-7.83v-13.86c0-.959-.263-1.724-.788-2.295-.525-.57-1.192-.855-2.002-.855-.991 0-1.785.315-2.386.946-.6.63-.899 1.589-.899 2.88v13.184h-7.831v-13.86c0-.959-.254-1.724-.764-2.295-.511-.57-1.2-.855-2.071-.855-.96 0-1.74.315-2.339.946-.601.63-.9 1.589-.9 2.88m43.739-4.636c-2.55 0-4.08 1.35-4.589 4.051h8.73c-.211-1.47-.713-2.513-1.508-3.128s-1.673-.923-2.633-.923zm10.71 15.48c-1.14.81-2.587 1.501-4.342 2.071-1.755.569-3.622.854-5.602.854-2.731 0-5.063-.502-6.998-1.507s-3.42-2.408-4.455-4.208-1.552-3.87-1.552-6.21c0-2.369.509-4.469 1.53-6.3 1.019-1.829 2.43-3.262 4.229-4.297 1.8-1.035 3.9-1.553 6.3-1.553 2.341 0 4.403.503 6.188 1.508 1.784 1.006 3.179 2.4 4.185 4.185 1.005 1.785 1.508 3.878 1.508 6.278 0 .33-.023.674-.068 1.034s-.098.736-.157 1.125h-15.976c.721 2.64 2.685 3.961 5.895 3.961 1.44 0 2.715-.226 3.826-.676 1.109-.449 2.039-.9 2.79-1.35zm12.826-6.525v8.865h-7.83v-22.905h7.154l.495 3.825c.48-1.229 1.268-2.228 2.363-2.992 1.095-.765 2.363-1.148 3.802-1.148.811 0 1.425.106 1.846.315v7.155c-.331-.119-.698-.209-1.103-.269s-.863-.091-1.372-.091c-1.56 0-2.843.578-3.848 1.733s-1.507 2.992-1.507 5.512m11.609 8.865v-22.905c1.26.27 2.535.405 3.825.405 1.32 0 2.655-.135 4.005-.405v22.905zm24.03.585c-2.341 0-4.418-.502-6.233-1.507-1.816-1.005-3.248-2.408-4.297-4.208-1.051-1.8-1.575-3.899-1.575-6.3 0-2.399.524-4.5 1.575-6.299 1.049-1.801 2.481-3.203 4.297-4.208 1.815-1.005 3.892-1.508 6.233-1.508 2.07 0 3.885.383 5.445 1.148 1.559.765 2.939 1.988 4.139 3.667l-5.175 3.78c-.42-.629-.967-1.147-1.642-1.552-.675-.406-1.402-.608-2.182-.608-1.35 0-2.475.503-3.375 1.508-.901 1.005-1.35 2.362-1.35 4.072s.449 3.068 1.35 4.073c.9 1.006 2.025 1.507 3.375 1.507.78 0 1.507-.202 2.182-.607s1.222-.923 1.642-1.553l5.175 3.781c-1.2 1.68-2.58 2.902-4.139 3.667-1.56.765-3.375 1.147-5.445 1.147m19.259-8.01c0 .691.254 1.253.765 1.688.509.435 1.17.652 1.98.652 1.08 0 1.987-.367 2.722-1.102s1.103-1.658 1.103-2.768v-.765c-.81-.15-1.665-.225-2.565-.225-1.141 0-2.093.196-2.857.585-.766.39-1.148 1.035-1.148 1.935zm6.885 7.425-.405-3.015c-1.5 2.401-3.78 3.6-6.84 3.6-1.35 0-2.573-.292-3.668-.877s-1.965-1.388-2.61-2.408c-.645-1.019-.967-2.205-.967-3.555 0-2.549.997-4.529 2.992-5.94 1.995-1.409 4.628-2.114 7.898-2.114 1.019 0 2.099.089 3.24.269-.12-1.14-.607-2.002-1.462-2.587s-1.898-.878-3.128-.878c-1.08 0-2.168.203-3.263.608s-2.137.893-3.127 1.463l-2.655-5.041c1.5-.959 3.12-1.702 4.86-2.227 1.739-.524 3.48-.788 5.22-.788 2.099 0 3.99.36 5.67 1.08 1.68.721 2.999 1.816 3.96 3.285.96 1.471 1.44 3.33 1.44 5.58v13.545zm19.98-12.644v12.644h-7.83v-22.905h7.155l.405 3.015c.75-1.08 1.725-1.95 2.925-2.61 1.2-.659 2.52-.99 3.96-.99 2.49 0 4.484.81 5.985 2.431 1.5 1.62 2.25 3.945 2.25 6.974v14.085h-7.83v-13.184c0-1.351-.3-2.348-.9-2.993s-1.44-.967-2.52-.967-1.95.344-2.61 1.034c-.66.691-.99 1.845-.99 3.466"
      fill="#404040"/><path
      d="m402.157 9.947c-1.29 0-2.393-.457-3.307-1.372-.916-.915-1.373-2.018-1.373-3.308 0-1.289.457-2.392 1.373-3.307.914-.915 2.017-1.372 3.307-1.372s2.392.457 3.307 1.372 1.373 2.018 1.373 3.307c0 1.29-.458 2.393-1.373 3.308s-2.017 1.372-3.307 1.372"
      fill="#009bff" class='no-color-change'/></g>
</svg>