<svg id="Layer_1" data-name="Layer 1" xmlns="http://www.w3.org/2000/svg" viewBox="0 0 323.97 121.21" height="121.21" width="323.97">
    <defs>
        <style>
            .cls-1 {
                fill: #231f20;
            }
            .cls-2 {
                fill: #414042;
            }
        </style>
    </defs>
    <title>Gleaner</title><path class="cls-1" d="M93.19,23.73h13.67v2.55h-5.37V40.62h-3V26.28H93.19Z"/><path class="cls-1" d="M108.16,23.73h2.7V30h0a4.28,4.28,0,0,1,3.67-1.94c2.65,0,4.33,1.42,4.33,4.16v8.4h-2.7V32.93c0-1.92-.8-2.74-2.39-2.74a3,3,0,0,0-3,3.22v7.21h-2.7Z"/><path class="cls-1" d="M122.68,35.2c0,1.92,1,3.62,3.29,3.62a2.84,2.84,0,0,0,3-2h2.55A5.36,5.36,0,0,1,126,41c-3.83,0-6-2.67-6-6.43,0-3.48,2.27-6.46,5.91-6.46,3.86,0,6.22,3.48,5.77,7.14ZM129,33.43a3.15,3.15,0,1,0-6.29,0Z"/><path
        class="cls-1"
        d="M55.92,87.84c-4.93,7-11.39,9.64-17.58,9.64C18.53,97.48,6.87,81.25,6.87,61c0-20.85,11.66-37.08,31.47-37.08,13.09,0,25.47,8.85,27,24.79H51.89c-1.61-7.77-6.9-11.8-13.54-11.8C25.7,36.88,21,48.69,21,61c0,11.71,4.75,23.51,17.4,23.51,9.15,0,14.44-5.41,15.24-15.15H39.42V57.83h26.9v38h-9Z"/><path class="cls-1" d="M72.32,25.57H85V95.81H72.32Z"/><path
        class="cls-1"
        d="M102.28,73.77c.36,8.85,4.3,12.89,11.39,12.89,5.11,0,9.24-3.44,10-6.59h11.21c-3.59,12-11.21,17.12-21.7,17.12-14.62,0-23.67-11-23.67-26.76,0-15.25,9.59-26.85,23.67-26.85,15.78,0,23.4,14.56,22.51,30.2ZM123,64.92C121.82,57.83,119,54.1,112.86,54.1c-8.07,0-10.4,6.89-10.58,10.82Z"/><path
        class="cls-1"
        d="M140.51,60.59c.72-13.08,11.39-17,21.79-17,9.24,0,20.36,2.26,20.36,14.46V84.49c0,4.62.45,9.25,1.61,11.31H171.36a22.58,22.58,0,0,1-.9-4.92c-4,4.62-10,6.29-15.6,6.29-8.79,0-15.78-4.82-15.78-15.25,0-11.51,7.89-14.26,15.78-15.44s15.07-1,15.07-6.69c0-6-3.77-6.89-8.25-6.89-4.84,0-8,2.16-8.43,7.67Zm29.41,10.33c-2.15,2.07-6.64,2.16-10.58,3s-7.53,2.36-7.53,7.48,3.68,6.49,7.8,6.49c10,0,10.31-8.66,10.31-11.71Z"/><path class="cls-1" d="M189.21,44.95h12.11V52h.27a16.22,16.22,0,0,1,14.17-8.46c13.54,0,16.95,8.36,16.95,21V95.81H220V67.08c0-8.36-2.24-12.49-8.16-12.49-6.9,0-9.86,4.23-9.86,14.56V95.81H189.21Z"/><path
        class="cls-1"
        d="M249.57,73.77c.36,8.85,4.31,12.89,11.39,12.89,5.11,0,9.24-3.44,10-6.59h11.21c-3.59,12-11.21,17.12-21.7,17.12-14.62,0-23.67-11-23.67-26.76,0-15.25,9.59-26.85,23.67-26.85,15.78,0,23.4,14.56,22.51,30.2Zm20.71-8.85c-1.17-7.08-3.95-10.82-10.13-10.82-8.07,0-10.4,6.89-10.58,10.82Z"/><path class="cls-1" d="M287.24,44.95h12.1v9.44h.18c2.33-6.39,8.61-10.82,14.8-10.82a8.75,8.75,0,0,1,2.78.49V57a21.19,21.19,0,0,0-4.57-.49c-9.33,0-12.55,7.38-12.55,16.33V95.81H287.24Z"/><path class="cls-2" d="M135.39,105.11h2a2.16,2.16,0,1,1,0,4.31h-1v2.69h-1Zm1.91,3.48a1.33,1.33,0,1,0,0-2.65h-.93v2.65Z"/><path class="cls-2" d="M142.58,105.11h.88l2.87,7h-1.06l-.72-1.83h-3.1l-.72,1.83h-1Zm1.64,4.34-.67-1.72c-.1-.26-.53-1.34-.54-1.43h0c0,.09-.43,1.14-.54,1.43l-.68,1.72Z"/><path class="cls-2" d="M147.33,105.11h2a2.05,2.05,0,0,1,2.32,2.07,1.94,1.94,0,0,1-1.78,2l2.14,3h-1.16l-2-2.85h-.55v2.85h-1Zm1.91,3.34c.92,0,1.44-.49,1.44-1.26s-.52-1.26-1.44-1.26h-.93v2.51Z"/><path class="cls-2" d="M154.42,106h-2v-.85h5V106h-2v6.15h-1Z"/><path class="cls-2" d="M160,108.61a3.68,3.68,0,1,1,3.68,3.64A3.55,3.55,0,0,1,160,108.61Zm6.34,0a2.67,2.67,0,1,0-2.67,2.75A2.61,2.61,0,0,0,166.31,108.61Z"/><path class="cls-2" d="M168.74,105.11h3.53V106h-2.54v2.25h2.46v.85h-2.46v3.05h-1Z"/><path class="cls-2" d="M176.74,106h-2v-.85h5V106h-2v6.15h-1Z"/><path class="cls-2" d="M180.76,105.11h1V108h3.67v-2.87h1v7h-1v-3.28h-3.67v3.28h-1Z"/><path class="cls-2" d="M188.22,105.11H192V106h-2.82v2H192v.84h-2.74v2.45h2.88v.84h-3.87Z"/><path class="cls-2" d="M195.4,109.7v-4.59h1v4.29c0,1.22.52,2,1.69,2s1.7-.75,1.7-2v-4.29h1v4.59a2.69,2.69,0,0,1-5.38,0Z"/><path
        class="cls-2"
        d="M201.81,110.85l.67-.57a2,2,0,0,0,1.76,1.11,1.21,1.21,0,0,0,1.37-1.19c0-.83-.69-1.11-1.55-1.44s-1.77-.79-1.77-1.91A1.91,1.91,0,0,1,204.4,105a2.35,2.35,0,0,1,2.05,1.06l-.67.57a1.59,1.59,0,0,0-1.39-.76c-.68,0-1.13.35-1.13.94s.7,1,1.31,1.21c1,.39,2,.86,2,2.14a2.12,2.12,0,0,1-2.33,2.12A2.72,2.72,0,0,1,201.81,110.85Z"/><path class="cls-2" d="M210,105.11h.88l2.87,7h-1.06l-.72-1.83h-3.1l-.72,1.83h-1Zm1.64,4.34-.67-1.72c-.1-.26-.53-1.34-.54-1.43h0c0,.09-.43,1.14-.54,1.43l-.68,1.72Z"/><path class="cls-2" d="M217.91,106h-2v-.85h5V106h-2v6.15h-1Z"/><path class="cls-2" d="M221.26,108.61a3.68,3.68,0,1,1,3.68,3.64A3.55,3.55,0,0,1,221.26,108.61Zm6.34,0a2.67,2.67,0,1,0-2.67,2.75A2.61,2.61,0,0,0,227.61,108.61Z"/><path class="cls-2" d="M230,105.11h2c2.23,0,3.71,1.28,3.71,3.5s-1.49,3.5-3.71,3.5h-2Zm1,6.15h.92a2.66,2.66,0,1,0,0-5.31H231Z"/><path class="cls-2" d="M238.95,105.11h.88l2.87,7h-1.06l-.72-1.83h-3.1l-.72,1.83h-1Zm1.64,4.34-.67-1.72c-.1-.26-.53-1.34-.54-1.43h0c0,.09-.43,1.14-.54,1.43l-.68,1.72Z"/><path class="cls-2" d="M244.67,109.26l-2.38-4.15h1.11l1.3,2.33a10.34,10.34,0,0,1,.5,1h0a10.61,10.61,0,0,1,.5-1l1.31-2.33h1.08l-2.38,4.15v2.85h-1Z"/><path class="cls-2" d="M251,105.11h.76l4,4.54c.12.13.64.78.69.88h0c0-.1,0-.91,0-1.09v-4.32h1v7h-.77l-4-4.54c-.12-.13-.64-.78-.69-.88h0c0,.1,0,.91,0,1.09v4.32h-1Z"/><path class="cls-2" d="M259.17,105.11H263V106h-2.82v2h2.74v.84h-2.74v2.45H263v.84h-3.87Z"/><path class="cls-2" d="M266.07,106h-2v-.85h5V106h-2v6.15h-1Z"/><path
        class="cls-2"
        d="M269.88,105.11h1l1.44,4.16c.05.16.39,1.2.4,1.36h0a14,14,0,0,1,.42-1.36l1.5-4.16h.79l1.5,4.16c.06.16.41,1.2.42,1.36h0c0-.16.36-1.2.41-1.36l1.43-4.16h1l-2.46,7H277l-1.62-4.37a11.68,11.68,0,0,1-.34-1.14h0a11.74,11.74,0,0,1-.35,1.14l-1.61,4.37h-.76Z"/><path class="cls-2" d="M280.7,108.61a3.68,3.68,0,1,1,3.68,3.64A3.55,3.55,0,0,1,280.7,108.61Zm6.34,0a2.67,2.67,0,1,0-2.67,2.75A2.61,2.61,0,0,0,287,108.61Z"/><path class="cls-2" d="M289.48,105.11h2a2.05,2.05,0,0,1,2.32,2.07,1.94,1.94,0,0,1-1.78,2l2.14,3H293l-2-2.85h-.55v2.85h-1Zm1.91,3.34c.92,0,1.44-.49,1.44-1.26s-.52-1.26-1.44-1.26h-.93v2.51Z"/><path class="cls-2" d="M295.32,105.11h1v3.25l2.89-3.25h1.2l-3,3.34,3.14,3.66H299.3l-3-3.54v3.54h-1Z"/></svg>
