<svg xmlns="http://www.w3.org/2000/svg" width="274" height="46" viewBox="0 0 274 46">
  <g fill="none" fill-rule="evenodd">
    <polyline fill="#404040" points="9.447 33.089 9.447 9.239 .357 9.239 .357 2.489 26.907 2.489 26.907 9.239 17.818 9.239 17.818 33.089 9.447 33.089"/>
    <path fill="#404040" d="M38.517 20.489L38.517 33.089 30.687 33.089 30.687.239 38.517.239 38.517 12.839C39.266 11.849 40.219 11.061 41.374 10.476 42.529 9.891 43.782 9.599 45.132 9.599 47.622 9.599 49.616 10.409 51.117 12.029 52.617 13.649 53.367 15.974 53.367 19.003L53.367 33.089 45.537 33.089 45.537 19.904C45.537 18.554 45.237 17.557 44.637 16.911 44.036 16.266 43.197 15.944 42.117 15.944 41.037 15.944 40.166 16.289 39.507 16.979 38.847 17.67 38.517 18.839 38.517 20.489M69.296 15.269C66.746 15.269 65.216 16.619 64.706 19.319L73.436 19.319C73.226 17.849 72.723 16.806 71.929 16.191 71.133 15.577 70.256 15.269 69.296 15.269zM80.006 30.749C78.866 31.559 77.419 32.249 75.664 32.819 73.909 33.388 72.041 33.674 70.061 33.674 67.331 33.674 64.999 33.171 63.064 32.166 61.129 31.162 59.644 29.758 58.609 27.959 57.574 26.159 57.056 24.088 57.056 21.749 57.056 19.379 57.566 17.279 58.586 15.449 59.606 13.619 61.016 12.186 62.816 11.151 64.616 10.116 66.716 9.599 69.116 9.599 71.456 9.599 73.518 10.101 75.304 11.106 77.088 12.112 78.483 13.507 79.489 15.291 80.494 17.077 80.996 19.169 80.996 21.569 80.996 21.899 80.974 22.244 80.929 22.604 80.884 22.963 80.831 23.339 80.771 23.729L64.796 23.729C65.516 26.369 67.481 27.689 70.691 27.689 72.131 27.689 73.406 27.463 74.516 27.014 75.626 26.564 76.556 26.114 77.306 25.664L80.006 30.749zM123.791 29.489C122.501 30.809 120.715 31.836 118.436 32.571 116.156 33.306 113.636 33.674 110.876 33.674 107.575 33.674 104.718 33.007 102.303 31.671 99.888 30.336 98.013 28.469 96.678 26.069 95.343 23.669 94.676 20.894 94.676 17.744 94.676 14.593 95.351 11.834 96.701 9.464 98.051 7.094 99.941 5.242 102.371 3.906 104.801 2.572 107.636 1.904 110.876 1.904 116.395 1.904 120.67 3.974 123.701 8.114L116.996 12.029C116.366 11.009 115.503 10.222 114.408 9.666 113.313 9.111 112.106 8.834 110.786 8.834 108.385 8.834 106.518 9.644 105.183 11.264 103.848 12.883 103.181 15.044 103.181 17.744 103.181 20.774 103.938 23.031 105.453 24.516 106.968 26.002 109.166 26.744 112.046 26.744 113.396 26.744 114.73 26.519 116.051 26.069L116.051 21.569 110.606 21.569 110.606 15.494 123.791 15.494 123.791 29.489"/>
    <polygon fill="#404040" points="128.83 33.089 136.66 33.089 136.66 .239 128.83 .239"/>
    <path fill="#404040" d="M152.995 15.269C150.444 15.269 148.915 16.619 148.405 19.319L157.135 19.319C156.924 17.849 156.422 16.806 155.627 16.191 154.832 15.577 153.955 15.269 152.995 15.269zM163.705 30.749C162.564 31.559 161.117 32.249 159.362 32.819 157.607 33.388 155.74 33.674 153.76 33.674 151.029 33.674 148.697 33.171 146.762 32.166 144.827 31.162 143.342 29.758 142.307 27.959 141.272 26.159 140.755 24.088 140.755 21.749 140.755 19.379 141.265 17.279 142.285 15.449 143.304 13.619 144.715 12.186 146.515 11.151 148.315 10.116 150.414 9.599 152.815 9.599 155.155 9.599 157.217 10.101 159.002 11.106 160.787 12.112 162.182 13.507 163.187 15.291 164.192 17.077 164.695 19.169 164.695 21.569 164.695 21.899 164.673 22.244 164.627 22.604 164.582 22.963 164.529 23.339 164.47 23.729L148.495 23.729C149.215 26.369 151.179 27.689 154.39 27.689 155.83 27.689 157.105 27.463 158.215 27.014 159.324 26.564 160.255 26.114 161.005 25.664L163.705 30.749zM174.864 25.664C174.864 26.354 175.119 26.917 175.63 27.351 176.139 27.787 176.799 28.003 177.61 28.003 178.69 28.003 179.597 27.636 180.332 26.901 181.067 26.167 181.435 25.244 181.435 24.133L181.435 23.369C180.625 23.219 179.77 23.144 178.87 23.144 177.729 23.144 176.777 23.339 176.012 23.729 175.247 24.119 174.864 24.764 174.864 25.664zM181.75 33.089L181.344 30.074C179.844 32.474 177.565 33.674 174.505 33.674 173.154 33.674 171.932 33.382 170.837 32.796 169.742 32.211 168.872 31.409 168.227 30.389 167.582 29.369 167.259 28.184 167.259 26.834 167.259 24.284 168.257 22.304 170.252 20.894 172.247 19.484 174.88 18.779 178.15 18.779 179.169 18.779 180.249 18.869 181.39 19.048 181.269 17.909 180.782 17.046 179.927 16.461 179.072 15.877 178.029 15.584 176.799 15.584 175.719 15.584 174.632 15.786 173.537 16.191 172.442 16.596 171.4 17.084 170.41 17.654L167.755 12.614C169.255 11.654 170.874 10.912 172.614 10.386 174.354 9.862 176.094 9.599 177.835 9.599 179.934 9.599 181.824 9.959 183.505 10.679 185.184 11.399 186.504 12.494 187.465 13.964 188.424 15.434 188.904 17.294 188.904 19.544L188.904 33.089 181.75 33.089zM10.308 42.572L11.468 42.572C11.848 42.572 12.15 42.478 12.371 42.291 12.593 42.103 12.704 41.848 12.704 41.524 12.704 41.2 12.593 40.944 12.371 40.757 12.15 40.569 11.848 40.475 11.468 40.475L10.308 40.475 10.308 42.572zM9.447 45.547L9.447 39.751 11.468 39.751C12.116 39.751 12.63 39.91 13.011 40.228 13.391 40.546 13.582 40.978 13.582 41.524 13.582 42.064 13.391 42.491 13.011 42.807 12.63 43.122 12.116 43.28 11.468 43.28L10.308 43.28 10.308 45.547 9.447 45.547zM15.321 43.365L17.435 43.365 16.378 40.646 15.321 43.365zM18.279 45.547L17.716 44.09 15.039 44.09 14.477 45.547 13.607 45.547 15.926 39.751 16.855 39.751 19.165 45.547 18.279 45.547zM20.989 42.487L22.174 42.487C22.544 42.487 22.838 42.396 23.056 42.214 23.275 42.033 23.385 41.788 23.385 41.481 23.385 41.174 23.275 40.93 23.056 40.748 22.838 40.567 22.544 40.475 22.174 40.475L20.989 40.475 20.989 42.487zM20.989 43.194L20.989 45.547 20.128 45.547 20.128 39.751 22.174 39.751C22.816 39.751 23.325 39.905 23.7 40.215 24.075 40.525 24.263 40.947 24.263 41.481 24.263 41.885 24.149 42.226 23.922 42.504 23.694 42.783 23.382 42.979 22.984 43.092L24.391 45.547 23.41 45.547 22.089 43.194 20.989 43.194z"/>
    <polyline fill="#404040" points="26.735 45.547 26.735 40.475 24.783 40.475 24.783 39.751 29.548 39.751 29.548 40.475 27.596 40.475 27.596 45.547 26.735 45.547"/>
    <path fill="#404040" d="M35.08,44.891 C35.455,44.891 35.789,44.796 36.081,44.605 C36.374,44.415 36.603,44.152 36.768,43.817 C36.933,43.481 37.015,43.092 37.015,42.649 C37.015,42.206 36.933,41.816 36.768,41.481 C36.603,41.146 36.374,40.883 36.081,40.693 C35.789,40.502 35.455,40.407 35.08,40.407 C34.705,40.407 34.372,40.502 34.083,40.693 C33.793,40.883 33.565,41.146 33.401,41.481 C33.236,41.816 33.153,42.206 33.153,42.649 C33.153,43.092 33.236,43.481 33.401,43.817 C33.565,44.152 33.793,44.415 34.083,44.605 C34.372,44.796 34.705,44.891 35.08,44.891 Z M35.08,45.641 C34.534,45.641 34.051,45.513 33.631,45.257 C33.21,45.002 32.879,44.649 32.638,44.2 C32.396,43.752 32.275,43.235 32.275,42.649 C32.275,42.064 32.396,41.547 32.638,41.097 C32.879,40.649 33.21,40.296 33.631,40.041 C34.051,39.785 34.534,39.657 35.08,39.657 C35.626,39.657 36.11,39.785 36.533,40.041 C36.957,40.296 37.289,40.649 37.531,41.097 C37.772,41.547 37.893,42.064 37.893,42.649 C37.893,43.235 37.772,43.752 37.531,44.2 C37.289,44.649 36.957,45.002 36.533,45.257 C36.11,45.513 35.626,45.641 35.08,45.641 Z"/>
    <polyline fill="#404040" points="39.964 45.547 39.103 45.547 39.103 39.751 42.709 39.751 42.709 40.475 39.964 40.475 39.964 42.436 42.291 42.436 42.291 43.16 39.964 43.16 39.964 45.547"/>
    <polyline fill="#404040" points="47.201 45.547 47.201 40.475 45.249 40.475 45.249 39.751 50.014 39.751 50.014 40.475 48.062 40.475 48.062 45.547 47.201 45.547"/>
    <polyline fill="#404040" points="51.003 45.547 51.003 39.751 51.864 39.751 51.864 42.232 54.856 42.232 54.856 39.751 55.717 39.751 55.717 45.547 54.856 45.547 54.856 42.973 51.864 42.973 51.864 45.547 51.003 45.547"/>
    <polyline fill="#404040" points="57.234 45.547 57.234 39.751 60.951 39.751 60.951 40.475 58.095 40.475 58.095 42.266 60.61 42.266 60.61 42.99 58.095 42.99 58.095 44.823 61.019 44.823 61.019 45.547 57.234 45.547"/>
    <path fill="#404040" d="M66.457 44.891C66.929 44.891 67.3 44.749 67.57 44.465 67.839 44.181 67.975 43.797 67.975 43.314L67.975 39.751 68.836 39.751 68.836 43.323C68.836 44.044 68.624 44.611 68.2 45.023 67.777 45.435 67.196 45.641 66.457 45.641 65.718 45.641 65.139 45.435 64.718 45.023 64.298 44.611 64.088 44.044 64.088 43.323L64.088 39.751 64.949 39.751 64.949 43.314C64.949 43.797 65.083 44.181 65.353 44.465 65.623 44.749 65.991 44.891 66.457 44.891M72.049 45.641C71.612 45.641 71.194 45.565 70.796 45.411 70.398 45.257 70.077 45.053 69.833 44.797L70.319 44.226C70.546 44.436 70.815 44.601 71.124 44.72 71.434 44.84 71.742 44.9 72.049 44.9 72.424 44.9 72.727 44.827 72.957 44.682 73.187 44.537 73.302 44.337 73.302 44.081 73.302 43.848 73.22 43.652 73.055 43.493 72.89 43.334 72.609 43.2 72.211 43.092L71.41 42.879C70.893 42.743 70.516 42.55 70.281 42.299 70.045 42.049 69.927 41.723 69.927 41.319 69.927 40.99 70.015 40.7 70.191 40.45 70.367 40.2 70.61 40.005 70.92 39.866 71.23 39.727 71.58 39.657 71.973 39.657 72.387 39.657 72.777 39.735 73.14 39.892 73.504 40.048 73.825 40.265 74.104 40.544L73.584 41.106C73.339 40.879 73.085 40.704 72.821 40.582 72.556 40.46 72.276 40.399 71.981 40.399 71.623 40.399 71.33 40.474 71.103 40.624 70.876 40.775 70.762 40.984 70.762 41.251 70.762 41.495 70.843 41.686 71.005 41.822 71.167 41.958 71.416 42.072 71.751 42.163L72.646 42.41C73.163 42.553 73.541 42.752 73.78 43.007 74.018 43.263 74.138 43.581 74.138 43.962 74.138 44.297 74.05 44.591 73.874 44.844 73.697 45.097 73.453 45.293 73.14 45.432 72.828 45.571 72.464 45.641 72.049 45.641M76.303 43.365L78.417 43.365 77.36 40.646 76.303 43.365zM79.261 45.547L78.698 44.09 76.021 44.09 75.459 45.547 74.589 45.547 76.908 39.751 77.837 39.751 80.147 45.547 79.261 45.547z"/>
    <polyline fill="#404040" points="84.153 45.547 84.153 40.475 82.201 40.475 82.201 39.751 86.966 39.751 86.966 40.475 85.014 40.475 85.014 45.547 84.153 45.547"/>
    <path fill="#404040" d="M90.069 44.891C90.445 44.891 90.778 44.796 91.071 44.605 91.364 44.415 91.592 44.152 91.757 43.817 91.922 43.481 92.004 43.092 92.004 42.649 92.004 42.206 91.922 41.816 91.757 41.481 91.592 41.146 91.364 40.883 91.071 40.693 90.778 40.502 90.445 40.407 90.069 40.407 89.694 40.407 89.362 40.502 89.072 40.693 88.782 40.883 88.555 41.146 88.39 41.481 88.225 41.816 88.143 42.206 88.143 42.649 88.143 43.092 88.225 43.481 88.39 43.817 88.555 44.152 88.782 44.415 89.072 44.605 89.362 44.796 89.694 44.891 90.069 44.891zM90.069 45.641C89.524 45.641 89.041 45.513 88.62 45.257 88.2 45.002 87.869 44.649 87.627 44.2 87.386 43.752 87.265 43.235 87.265 42.649 87.265 42.064 87.386 41.547 87.627 41.097 87.869 40.649 88.2 40.296 88.62 40.041 89.041 39.785 89.524 39.657 90.069 39.657 90.615 39.657 91.099 39.785 91.523 40.041 91.946 40.296 92.278 40.649 92.52 41.097 92.762 41.547 92.882 42.064 92.882 42.649 92.882 43.235 92.762 43.752 92.52 44.2 92.278 44.649 91.946 45.002 91.523 45.257 91.099 45.513 90.615 45.641 90.069 45.641zM94.954 44.823L96.13 44.823C96.539 44.823 96.89 44.733 97.183 44.554 97.475 44.375 97.7 44.124 97.856 43.8 98.013 43.476 98.091 43.092 98.091 42.649 98.091 42.206 98.013 41.822 97.856 41.498 97.7 41.174 97.475 40.923 97.183 40.744 96.89 40.565 96.539 40.475 96.13 40.475L94.954 40.475 94.954 44.823zM94.093 45.547L94.093 39.751 96.13 39.751C96.698 39.751 97.196 39.872 97.622 40.113 98.048 40.355 98.379 40.693 98.615 41.128 98.851 41.562 98.969 42.069 98.969 42.649 98.969 43.229 98.851 43.736 98.615 44.171 98.379 44.605 98.048 44.944 97.622 45.185 97.196 45.427 96.698 45.547 96.13 45.547L94.093 45.547zM101.168 43.365L103.282 43.365 102.225 40.646 101.168 43.365zM104.126 45.547L103.563 44.09 100.887 44.09 100.324 45.547 99.454 45.547 101.773 39.751 102.702 39.751 105.012 45.547 104.126 45.547z"/>
    <polyline fill="#404040" points="107.655 43.246 107.655 45.547 106.794 45.547 106.794 43.246 104.757 39.751 105.771 39.751 107.229 42.427 108.687 39.751 109.684 39.751 107.655 43.246"/>
    <polyline fill="#404040" points="116.571 45.547 113.477 41.106 113.477 45.547 112.667 45.547 112.667 39.751 113.469 39.751 116.571 44.192 116.571 39.751 117.373 39.751 117.373 45.547 116.571 45.547"/>
    <polyline fill="#404040" points="118.89 45.547 118.89 39.751 122.607 39.751 122.607 40.475 119.751 40.475 119.751 42.266 122.266 42.266 122.266 42.99 119.751 42.99 119.751 44.823 122.675 44.823 122.675 45.547 118.89 45.547"/>
    <polyline fill="#404040" points="125.232 45.547 125.232 40.475 123.28 40.475 123.28 39.751 128.045 39.751 128.045 40.475 126.093 40.475 126.093 45.547 125.232 45.547"/>
    <polyline fill="#404040" points="133.671 45.547 132.316 40.927 130.96 45.547 130.065 45.547 128.522 39.751 129.375 39.751 130.551 44.337 131.906 39.751 132.725 39.751 134.088 44.354 135.273 39.751 136.109 39.751 134.566 45.547 133.671 45.547"/>
    <path fill="#404040" d="M139.527 44.891C139.902 44.891 140.236 44.796 140.529 44.605 140.821 44.415 141.05 44.152 141.215 43.817 141.38 43.481 141.462 43.092 141.462 42.649 141.462 42.206 141.38 41.816 141.215 41.481 141.05 41.146 140.821 40.883 140.529 40.693 140.236 40.502 139.902 40.407 139.527 40.407 139.152 40.407 138.82 40.502 138.53 40.693 138.24 40.883 138.012 41.146 137.848 41.481 137.683 41.816 137.601 42.206 137.601 42.649 137.601 43.092 137.683 43.481 137.848 43.817 138.012 44.152 138.24 44.415 138.53 44.605 138.82 44.796 139.152 44.891 139.527 44.891zM139.527 45.641C138.981 45.641 138.498 45.513 138.078 45.257 137.657 45.002 137.326 44.649 137.085 44.2 136.843 43.752 136.723 43.235 136.723 42.649 136.723 42.064 136.843 41.547 137.085 41.097 137.326 40.649 137.657 40.296 138.078 40.041 138.498 39.785 138.981 39.657 139.527 39.657 140.073 39.657 140.557 39.785 140.98 40.041 141.404 40.296 141.736 40.649 141.978 41.097 142.219 41.547 142.34 42.064 142.34 42.649 142.34 43.235 142.219 43.752 141.978 44.2 141.736 44.649 141.404 45.002 140.98 45.257 140.557 45.513 140.073 45.641 139.527 45.641zM144.411 42.487L145.596 42.487C145.965 42.487 146.26 42.396 146.479 42.214 146.697 42.033 146.807 41.788 146.807 41.481 146.807 41.174 146.697 40.93 146.479 40.748 146.26 40.567 145.965 40.475 145.596 40.475L144.411 40.475 144.411 42.487zM144.411 43.194L144.411 45.547 143.55 45.547 143.55 39.751 145.596 39.751C146.239 39.751 146.747 39.905 147.122 40.215 147.497 40.525 147.685 40.947 147.685 41.481 147.685 41.885 147.571 42.226 147.344 42.504 147.116 42.783 146.804 42.979 146.406 43.092L147.813 45.547 146.832 45.547 145.511 43.194 144.411 43.194z"/>
    <polyline fill="#404040" points="152.365 45.547 149.765 42.623 149.765 45.547 148.904 45.547 148.904 39.751 149.765 39.751 149.765 42.291 152.194 39.751 153.26 39.751 150.677 42.41 153.447 45.547 152.365 45.547"/>
    <path fill="#404040" d="M201.729 20.443L201.729 33.089 193.9 33.089 193.9 10.184 201.054 10.184 201.459 13.199C202.209 12.118 203.184 11.249 204.384 10.589 205.584 9.929 206.904 9.598 208.344 9.598 210.834 9.598 212.829 10.409 214.329 12.028 215.829 13.649 216.579 15.974 216.579 19.003L216.579 33.089 208.749 33.089 208.749 19.903C208.749 18.554 208.449 17.556 207.85 16.911 207.249 16.266 206.409 15.943 205.329 15.943 204.249 15.943 203.379 16.289 202.719 16.978 202.059 17.669 201.729 18.824 201.729 20.443M232.509 15.268C229.959 15.268 228.429 16.618 227.919 19.318L236.649 19.318C236.439 17.849 235.936 16.806 235.142 16.191 234.346 15.576 233.469 15.268 232.509 15.268zM243.219 30.748C242.078 31.558 240.632 32.249 238.877 32.818 237.121 33.388 235.254 33.674 233.274 33.674 230.544 33.674 228.212 33.171 226.277 32.166 224.342 31.161 222.857 29.758 221.822 27.959 220.787 26.159 220.269 24.088 220.269 21.748 220.269 19.379 220.779 17.279 221.799 15.449 222.819 13.619 224.229 12.186 226.029 11.151 227.829 10.116 229.929 9.598 232.329 9.598 234.669 9.598 236.732 10.101 238.517 11.106 240.301 12.111 241.696 13.507 242.701 15.291 243.706 17.076 244.209 19.169 244.209 21.568 244.209 21.899 244.187 22.243 244.142 22.603 244.097 22.963 244.044 23.339 243.984 23.728L228.009 23.728C228.729 26.369 230.694 27.689 233.904 27.689 235.344 27.689 236.619 27.463 237.729 27.013 238.839 26.564 239.769 26.113 240.519 25.663L243.219 30.748zM256.044 24.223L256.044 33.089 248.214 33.089 248.214 10.184 255.369 10.184 255.864 14.008C256.343 12.779 257.131 11.781 258.227 11.016 259.321 10.251 260.589 9.868 262.029 9.868 262.839 9.868 263.453 9.974 263.874 10.184L263.874 17.338C263.543 17.219 263.176 17.129 262.772 17.068 262.366 17.009 261.908 16.978 261.399 16.978 259.839 16.978 258.556 17.556 257.551 18.711 256.546 19.866 256.044 21.703 256.044 24.223"/>
    <path fill="#009BFF" class='no-color-change' d="M268.634,33.584 C267.673,33.584 266.796,33.351 266.001,32.886 C265.206,32.421 264.576,31.791 264.111,30.996 C263.646,30.201 263.414,29.324 263.414,28.363 C263.414,27.404 263.646,26.526 264.111,25.731 C264.576,24.936 265.206,24.306 266.001,23.841 C266.796,23.376 267.673,23.143 268.634,23.143 C269.593,23.143 270.471,23.376 271.266,23.841 C272.061,24.306 272.691,24.936 273.156,25.731 C273.621,26.526 273.854,27.404 273.854,28.363 C273.854,29.324 273.621,30.201 273.156,30.996 C272.691,31.791 272.061,32.421 271.266,32.886 C270.471,33.351 269.593,33.584 268.634,33.584"/>
  </g>
</svg>
