<svg xmlns="http://www.w3.org/2000/svg" xmlns:xlink="http://www.w3.org/1999/xlink" width="720" height="150" viewBox="0 0 720 150">
  <defs>
    <style>
      .cls-1 {
        filter: url(#filter);
      }

      .cls-2, .cls-3 {
        fill: #fff;
        fill-rule: evenodd;
      }

      .cls-3 {
        filter: url(#filter-2);
      }
    </style>
    <filter id="filter" filterUnits="userSpaceOnUse">
      <feFlood result="flood" flood-color="#333"/>
      <feComposite result="composite" operator="in" in2="SourceGraphic"/>
      <feBlend result="blend" in2="SourceGraphic"/>
    </filter>
    <filter id="filter-2" x="352" y="133.969" width="367.969" height="16" filterUnits="userSpaceOnUse">
      <feFlood result="flood" flood-color="#999"/>
      <feComposite result="composite" operator="in" in2="SourceGraphic"/>
      <feBlend result="blend" in2="SourceGraphic"/>
    </filter>
  </defs>
  <g class="cls-1">
    <path id="logo-in_situ" data-name="logo-in situ" class="cls-2" d="M0.1,3.188H9.49V119.634H0.1V3.188Zm28.78-3h2.284l95.112,101.869V3.188h9.394V122.63h-2.285L38.271,20.761v98.873H28.877V0.192Zm122.713,3h29.955a80.127,80.127,0,0,1,25.429,3.847,55.566,55.566,0,0,1,19.842,11.3,52,52,0,0,1,12.989,18.3,61.848,61.848,0,0,1,4.7,24.778,61.854,61.854,0,0,1-4.7,24.78,52.383,52.383,0,0,1-12.989,18.341,54.725,54.725,0,0,1-19.842,11.3,80.9,80.9,0,0,1-25.429,3.805H151.59V3.188Zm9.392,108.186H180.7a72.875,72.875,0,0,0,21.578-3.078,47.788,47.788,0,0,0,17.263-9.311A43.293,43.293,0,0,0,230.963,83.4q4.145-9.356,4.146-21.987a53.974,53.974,0,0,0-4.146-21.945,43.222,43.222,0,0,0-11.424-15.629,47.345,47.345,0,0,0-17.263-9.271A73.844,73.844,0,0,0,180.7,11.528H160.982v99.846ZM271.515,69.591l-39.686-66.4h10.747L276.254,60.6,310.017,3.188h10.577l-39.686,66.4v50.043h-9.393V69.591Zm41.083,35.45,16.81-22.221c6.239,7.131,16.636,13.6,28.593,13.6,9.013,0,14.383-3.648,14.383-10.449,0-8.123-7.8-10.446-20.967-14.261-17.677-5.14-33.273-13.928-33.273-33.993C318.144,15.661,337.032.9,363.719,0.9c18.544,0,32.579,5.472,41.418,13.432l-15.771,22.22A32.644,32.644,0,0,0,365.452,26.44c-9.01,0-12.822,3.483-12.822,8.125,0,7.3,9.184,9.287,19.235,12.271,19.756,5.97,35.006,14.593,35.006,35.984,0,22.388-16.809,39.135-47.137,39.135C337.38,121.955,320.05,112.836,312.6,105.041Zm125.64-74.787h-29.98V3.224H503.05v27.03H473.07v89.38H438.238V30.254Zm89.247-27.03h38.3l45.229,116.41H574.8l-5.721-16.748H523.154l-5.545,16.748H482.256S527.312,3.224,527.485,3.224Zm32.754,73.129-9.358-28.024a100.591,100.591,0,0,1-4.16-17.412h-1.039a100.493,100.493,0,0,1-4.159,17.412l-9.358,28.024h28.074ZM614.484,3.224h50.428c25.993,0,47.656,11.111,47.656,39.136,0,13.6-8.146,25.536-24.608,32.17l31.54,45.1H679.988L654.514,80.167h-5.2v39.467H614.484V3.224Zm44.882,51.738c11.612,0,17.5-4.312,17.5-12.6s-5.891-12.6-17.5-12.6h-10.05V54.962h10.05Z"/>
    <path id="USAT_Network" data-name="USAT Network" class="cls-3" d="M351.989,134.273h4.489c3.156,0,5.267,1.865,5.267,4.74s-2.155,4.736-5.267,4.736h-2.29v5.925h-2.2v-15.4Zm4.267,7.659c2.112,0,3.244-1.163,3.244-2.919,0-1.735-1.132-2.918-3.244-2.918h-2.068v5.837h2.068Zm11.768-7.659h1.956l6.4,15.4h-2.358l-1.6-4.035h-6.911l-1.6,4.035H361.6S367.244,136.162,368.024,134.273Zm3.665,9.544-1.488-3.794c-0.221-.572-1.179-2.943-1.2-3.139h-0.043c-0.022.2-.955,2.5-1.2,3.139l-1.51,3.794h5.443Zm6.924-9.544h4.51c2.91,0,5.178,1.5,5.178,4.563a4.293,4.293,0,0,1-3.955,4.346l4.778,6.492h-2.579l-4.51-6.276h-1.223v6.276h-2.2v-15.4Zm4.267,7.351c2.043,0,3.2-1.077,3.2-2.764s-1.157-2.765-3.2-2.765h-2.068v5.529h2.068Zm11.522-5.486h-4.445v-1.865h11.089v1.865H396.6v13.536h-2.2V136.138Zm12.347,5.838a8.2,8.2,0,1,1,8.2,8A7.862,7.862,0,0,1,406.749,141.976Zm14.133,0a5.946,5.946,0,1,0-5.955,6.053A5.772,5.772,0,0,0,420.882,141.976Zm5.433-7.7h7.867v1.865h-5.668V141.1H434v1.865h-5.49v6.713h-2.2v-15.4Zm17.815,1.865h-4.444v-1.865h11.088v1.865H446.33v13.536h-2.2V136.138Zm8.953-1.865h2.2v6.318h8.178v-6.318h2.2v15.4h-2.2v-7.218h-8.178v7.218h-2.2v-15.4Zm16.631,0h8.49v1.846h-6.29v4.472h6.11v1.846h-6.11v5.395h6.422v1.842h-8.622v-15.4Zm16,10.092V134.273h2.221v9.433c0,2.679,1.157,4.323,3.756,4.323,2.622,0,3.78-1.644,3.78-4.323v-9.433h2.221v10.092c0,3.38-2.2,5.616-6,5.616C487.865,149.981,485.71,147.745,485.71,144.365Zm14.274,2.524,1.491-1.25a4.52,4.52,0,0,0,3.911,2.433c1.709,0,3.044-.918,3.044-2.611,0-1.817-1.534-2.433-3.446-3.178-1.956-.769-3.933-1.736-3.933-4.193,0-2.432,1.912-4.12,4.712-4.12a5.249,5.249,0,0,1,4.579,2.322l-1.491,1.25a3.552,3.552,0,0,0-3.088-1.668c-1.512,0-2.511.769-2.511,2.063,0,1.6,1.554,2.13,2.911,2.654,2.2,0.856,4.466,1.889,4.466,4.716,0,2.679-2,4.674-5.2,4.674A6.064,6.064,0,0,1,499.984,146.889Zm18.241-12.616h1.956l6.4,15.4h-2.357l-1.6-4.035h-6.912l-1.6,4.035H511.8S517.446,136.162,518.225,134.273Zm3.665,9.544-1.487-3.794c-0.222-.572-1.179-2.943-1.2-3.139h-0.044c-0.022.2-.955,2.5-1.2,3.139l-1.51,3.794h5.443Zm13.978-7.679h-4.445v-1.865h11.088v1.865h-4.444v13.536h-2.2V136.138Zm7.469,5.838a8.2,8.2,0,1,1,8.2,8A7.861,7.861,0,0,1,543.337,141.976Zm14.132,0a5.945,5.945,0,1,0-5.954,6.053A5.772,5.772,0,0,0,557.469,141.976Zm5.434-7.7h4.423c4.977,0,8.265,2.807,8.265,7.7,0,4.87-3.312,7.7-8.265,7.7H562.9v-15.4Zm2.2,13.534h2.046c3.643,0,6.176-1.9,6.176-5.831s-2.533-5.838-6.176-5.838H565.1v11.669Zm17.637-13.534H584.7l6.4,15.4h-2.357l-1.6-4.035h-6.912l-1.6,4.035h-2.311S581.96,136.162,582.739,134.273Zm3.666,9.544-1.489-3.794c-0.221-.572-1.178-2.943-1.2-3.139h-0.044c-0.022.2-.955,2.5-1.2,3.139l-1.51,3.794h5.444Zm9.084-.419-5.312-9.125h2.467l2.889,5.135a22.887,22.887,0,0,1,1.11,2.192h0.022a23.153,23.153,0,0,1,1.113-2.192l2.91-5.135h2.4l-5.309,9.125v6.276h-2.289V143.4Zm14.062-9.125h1.687l8.846,9.982c0.266,0.288,1.422,1.711,1.534,1.932l0.044-.023c-0.044-.217-0.044-2-0.044-2.39v-9.5h2.134v15.4h-1.713l-8.845-9.983c-0.265-.283-1.422-1.711-1.532-1.928l-0.021.02c0.021,0.221.043,2,.043,2.394v9.5h-2.133v-15.4Zm18.253,0h8.487v1.846H630v4.472h6.113v1.846H630v5.395h6.422v1.842H627.8v-15.4Zm15.37,1.865h-4.445v-1.865h11.089v1.865h-4.445v13.536h-2.2V136.138Zm8.478-1.865h2.333l3.2,9.15c0.112,0.351.867,2.63,0.889,2.981h0.046a30.445,30.445,0,0,1,.933-2.981l3.334-9.15h1.756l3.331,9.15c0.134,0.351.911,2.63,0.936,2.981h0.044c0.044-.351.8-2.63,0.91-2.981l3.179-9.15h2.243l-5.49,15.4h-1.688l-3.6-9.607a25.578,25.578,0,0,1-.758-2.5h-0.044a25.421,25.421,0,0,1-.776,2.5l-3.578,9.607h-1.69Zm24.117,7.7a8.2,8.2,0,1,1,8.2,8A7.862,7.862,0,0,1,675.769,141.976Zm14.133,0a5.946,5.946,0,1,0-5.954,6.053A5.772,5.772,0,0,0,689.9,141.976Zm5.433-7.7h4.511c2.913,0,5.177,1.5,5.177,4.563a4.293,4.293,0,0,1-3.955,4.346l4.779,6.492h-2.579l-4.511-6.276h-1.223v6.276h-2.2v-15.4Zm4.267,7.351c2.044,0,3.2-1.077,3.2-2.764s-1.156-2.765-3.2-2.765h-2.068v5.529H699.6Zm8.736-7.351h2.2v7.154l6.444-7.154h2.666l-6.687,7.351,7,8.05h-2.755l-6.667-7.785v7.785h-2.2v-15.4Z"/>
  </g>
</svg>
