<svg xmlns="http://www.w3.org/2000/svg" width="200" height="42" viewBox="0 0 200 42">
  <g fill="none" fill-rule="evenodd">
    <path fill="#FFFFFF" d="M91.019 39.285L91.806 39.285C92.064 39.285 92.269 39.223 92.419 39.099 92.569 38.974 92.644 38.805 92.644 38.589 92.644 38.374 92.569 38.204 92.419 38.079 92.269 37.955 92.064 37.892 91.806 37.892L91.019 37.892 91.019 39.285zM90.436 41.263L90.436 37.411 91.806 37.411C92.246 37.411 92.594 37.517 92.853 37.728 93.111 37.939 93.24 38.226 93.24 38.589 93.24 38.947 93.111 39.232 92.853 39.441 92.594 39.651 92.246 39.756 91.806 39.756L91.019 39.756 91.019 41.263 90.436 41.263 90.436 41.263zM94.42 39.812L95.855 39.812 95.137 38.005 94.42 39.812zM96.427 41.263L96.045 40.294 94.229 40.294 93.848 41.263 93.257 41.263 94.831 37.411 95.461 37.411 97.028 41.263 96.427 41.263 96.427 41.263zM98.266 39.228L99.07 39.228C99.32 39.228 99.52 39.169 99.668 39.048 99.817 38.927 99.891 38.765 99.891 38.56 99.891 38.357 99.817 38.194 99.668 38.074 99.52 37.953 99.32 37.892 99.07 37.892L98.266 37.892 98.266 39.228zM98.266 39.699L98.266 41.263 97.682 41.263 97.682 37.411 99.07 37.411C99.506 37.411 99.851 37.514 100.105 37.72 100.36 37.925 100.487 38.206 100.487 38.56 100.487 38.828 100.41 39.056 100.255 39.24 100.101 39.425 99.889 39.556 99.619 39.631L100.574 41.263 99.909 41.263 99.012 39.699 98.266 39.699 98.266 39.699z"/>
    <polyline fill="#FFFFFF" points="102.164 41.263 102.164 37.892 100.84 37.892 100.84 37.411 104.072 37.411 104.072 37.892 102.748 37.892 102.748 41.263 102.164 41.263"/>
    <path fill="#FFFFFF" d="M107.826,40.827 C108.08,40.827 108.307,40.763 108.505,40.636 C108.704,40.51 108.859,40.335 108.971,40.112 C109.083,39.89 109.139,39.631 109.139,39.337 C109.139,39.042 109.083,38.783 108.971,38.56 C108.859,38.338 108.704,38.164 108.505,38.037 C108.307,37.91 108.08,37.847 107.826,37.847 C107.571,37.847 107.346,37.91 107.149,38.037 C106.952,38.164 106.798,38.338 106.686,38.56 C106.574,38.783 106.518,39.042 106.518,39.337 C106.518,39.631 106.574,39.89 106.686,40.112 C106.798,40.335 106.952,40.51 107.149,40.636 C107.346,40.763 107.571,40.827 107.826,40.827 Z M107.826,41.324 C107.455,41.324 107.128,41.24 106.843,41.07 C106.557,40.899 106.333,40.666 106.169,40.367 C106.005,40.069 105.923,39.725 105.923,39.337 C105.923,38.947 106.005,38.604 106.169,38.305 C106.333,38.008 106.557,37.773 106.843,37.604 C107.128,37.434 107.455,37.349 107.826,37.349 C108.196,37.349 108.525,37.434 108.812,37.604 C109.099,37.773 109.324,38.008 109.489,38.305 C109.652,38.604 109.734,38.947 109.734,39.337 C109.734,39.725 109.652,40.069 109.489,40.367 C109.324,40.666 109.099,40.899 108.812,41.07 C108.525,41.24 108.196,41.324 107.826,41.324 L107.826,41.324 Z"/>
    <polyline fill="#FFFFFF" points="111.14 41.263 110.556 41.263 110.556 37.411 113.002 37.411 113.002 37.892 111.14 37.892 111.14 39.195 112.719 39.195 112.719 39.676 111.14 39.676 111.14 41.263"/>
    <polyline fill="#FFFFFF" points="116.05 41.263 116.05 37.892 114.726 37.892 114.726 37.411 117.958 37.411 117.958 37.892 116.634 37.892 116.634 41.263 116.05 41.263"/>
    <polyline fill="#FFFFFF" points="118.629 41.263 118.629 37.411 119.213 37.411 119.213 39.059 121.243 39.059 121.243 37.411 121.827 37.411 121.827 41.263 121.243 41.263 121.243 39.552 119.213 39.552 119.213 41.263 118.629 41.263"/>
    <polyline fill="#FFFFFF" points="122.857 41.263 122.857 37.411 125.378 37.411 125.378 37.892 123.44 37.892 123.44 39.082 125.147 39.082 125.147 39.563 123.44 39.563 123.44 40.78 125.424 40.78 125.424 41.263 122.857 41.263"/>
    <path fill="#FFFFFF" d="M129.114 40.827C129.434 40.827 129.686 40.731 129.869 40.543 130.052 40.354 130.143 40.099 130.143 39.778L130.143 37.411 130.728 37.411 130.728 39.785C130.728 40.264 130.584 40.64 130.297 40.914 130.009 41.187 129.615 41.324 129.114 41.324 128.613 41.324 128.22 41.187 127.934 40.914 127.649 40.64 127.506 40.264 127.506 39.785L127.506 37.411 128.09 37.411 128.09 39.778C128.09 40.099 128.182 40.354 128.365 40.543 128.549 40.731 128.798 40.827 129.114 40.827M132.908 41.324C132.611 41.324 132.328 41.273 132.058 41.171 131.788 41.07 131.57 40.934 131.404 40.763L131.734 40.384C131.888 40.524 132.07 40.634 132.28 40.713 132.49 40.792 132.7 40.832 132.908 40.832 133.163 40.832 133.368 40.783 133.524 40.688 133.68 40.591 133.758 40.458 133.758 40.288 133.758 40.133 133.702 40.003 133.59 39.897 133.478 39.791 133.287 39.703 133.018 39.631L132.474 39.49C132.123 39.399 131.868 39.271 131.708 39.104 131.548 38.938 131.468 38.721 131.468 38.453 131.468 38.234 131.527 38.041 131.647 37.876 131.767 37.71 131.932 37.58 132.142 37.488 132.352 37.395 132.59 37.349 132.855 37.349 133.137 37.349 133.402 37.401 133.648 37.505 133.895 37.608 134.113 37.753 134.302 37.938L133.949 38.312C133.783 38.16 133.61 38.044 133.431 37.963 133.252 37.883 133.062 37.842 132.861 37.842 132.618 37.842 132.42 37.892 132.266 37.991 132.112 38.091 132.035 38.23 132.035 38.408 132.035 38.571 132.089 38.696 132.199 38.787 132.309 38.879 132.478 38.954 132.706 39.013L133.312 39.178C133.664 39.272 133.92 39.404 134.082 39.575 134.244 39.745 134.325 39.956 134.325 40.209 134.325 40.432 134.265 40.627 134.145 40.795 134.026 40.963 133.86 41.093 133.648 41.186 133.436 41.278 133.189 41.324 132.908 41.324M135.794 39.812L137.229 39.812 136.511 38.005 135.794 39.812zM137.801 41.263L137.419 40.294 135.603 40.294 135.222 41.263 134.631 41.263 136.205 37.411 136.835 37.411 138.402 41.263 137.801 41.263 137.801 41.263z"/>
    <polyline fill="#FFFFFF" points="141.12 41.263 141.12 37.892 139.796 37.892 139.796 37.411 143.029 37.411 143.029 37.892 141.705 37.892 141.705 41.263 141.12 41.263"/>
    <path fill="#FFFFFF" d="M145.134 40.827C145.389 40.827 145.615 40.763 145.813 40.636 146.012 40.51 146.167 40.335 146.279 40.112 146.391 39.89 146.447 39.631 146.447 39.337 146.447 39.042 146.391 38.783 146.279 38.56 146.167 38.338 146.012 38.164 145.813 38.037 145.615 37.91 145.389 37.847 145.134 37.847 144.88 37.847 144.654 37.91 144.458 38.037 144.261 38.164 144.106 38.338 143.995 38.56 143.883 38.783 143.827 39.042 143.827 39.337 143.827 39.631 143.883 39.89 143.995 40.112 144.106 40.335 144.261 40.51 144.458 40.636 144.654 40.763 144.88 40.827 145.134 40.827zM145.134 41.324C144.764 41.324 144.436 41.24 144.151 41.07 143.865 40.899 143.641 40.666 143.477 40.367 143.313 40.069 143.231 39.725 143.231 39.337 143.231 38.947 143.313 38.604 143.477 38.305 143.641 38.008 143.865 37.773 144.151 37.604 144.436 37.434 144.764 37.349 145.134 37.349 145.504 37.349 145.833 37.434 146.12 37.604 146.407 37.773 146.633 38.008 146.797 38.305 146.96 38.604 147.042 38.947 147.042 39.337 147.042 39.725 146.96 40.069 146.797 40.367 146.633 40.666 146.407 40.899 146.12 41.07 145.833 41.24 145.504 41.324 145.134 41.324L145.134 41.324zM148.448 40.78L149.246 40.78C149.523 40.78 149.762 40.721 149.96 40.602 150.159 40.483 150.311 40.317 150.417 40.101 150.523 39.886 150.576 39.631 150.576 39.337 150.576 39.042 150.523 38.787 150.417 38.572 150.311 38.357 150.159 38.19 149.96 38.07 149.762 37.951 149.523 37.892 149.246 37.892L148.448 37.892 148.448 40.78zM147.864 41.263L147.864 37.411 149.246 37.411C149.632 37.411 149.968 37.492 150.258 37.652 150.547 37.813 150.771 38.037 150.932 38.325 151.092 38.614 151.172 38.951 151.172 39.337 151.172 39.721 151.092 40.059 150.932 40.347 150.771 40.636 150.547 40.861 150.258 41.022 149.968 41.182 149.632 41.263 149.246 41.263L147.864 41.263 147.864 41.263zM152.664 39.812L154.098 39.812 153.381 38.005 152.664 39.812zM154.671 41.263L154.289 40.294 152.473 40.294 152.092 41.263 151.501 41.263 153.075 37.411 153.705 37.411 155.272 41.263 154.671 41.263 154.671 41.263z"/>
    <polyline fill="#FFFFFF" points="157.065 39.733 157.065 41.263 156.481 41.263 156.481 39.733 155.099 37.411 155.787 37.411 156.776 39.189 157.765 37.411 158.442 37.411 157.065 39.733"/>
    <polyline fill="#FFFFFF" points="163.115 41.263 161.015 38.312 161.015 41.263 160.466 41.263 160.466 37.411 161.009 37.411 163.115 40.362 163.115 37.411 163.658 37.411 163.658 41.263 163.115 41.263"/>
    <polyline fill="#FFFFFF" points="164.688 41.263 164.688 37.411 167.209 37.411 167.209 37.892 165.271 37.892 165.271 39.082 166.978 39.082 166.978 39.563 165.271 39.563 165.271 40.78 167.255 40.78 167.255 41.263 164.688 41.263"/>
    <polyline fill="#FFFFFF" points="168.99 41.263 168.99 37.892 167.666 37.892 167.666 37.411 170.898 37.411 170.898 37.892 169.574 37.892 169.574 41.263 168.99 41.263"/>
    <polyline fill="#FFFFFF" points="174.715 41.263 173.796 38.193 172.876 41.263 172.269 41.263 171.223 37.411 171.801 37.411 172.599 40.458 173.519 37.411 174.074 37.411 174.999 40.469 175.803 37.411 176.37 37.411 175.323 41.263 174.715 41.263"/>
    <path fill="#FFFFFF" d="M178.689 40.827C178.944 40.827 179.17 40.763 179.368 40.636 179.567 40.51 179.722 40.335 179.834 40.112 179.946 39.89 180.002 39.631 180.002 39.337 180.002 39.042 179.946 38.783 179.834 38.56 179.722 38.338 179.567 38.164 179.368 38.037 179.17 37.91 178.944 37.847 178.689 37.847 178.435 37.847 178.209 37.91 178.013 38.037 177.816 38.164 177.661 38.338 177.55 38.56 177.438 38.783 177.382 39.042 177.382 39.337 177.382 39.631 177.438 39.89 177.55 40.112 177.661 40.335 177.816 40.51 178.013 40.636 178.209 40.763 178.435 40.827 178.689 40.827zM178.689 41.324C178.319 41.324 177.991 41.24 177.706 41.07 177.42 40.899 177.196 40.666 177.032 40.367 176.868 40.069 176.786 39.725 176.786 39.337 176.786 38.947 176.868 38.604 177.032 38.305 177.196 38.008 177.42 37.773 177.706 37.604 177.991 37.434 178.319 37.349 178.689 37.349 179.059 37.349 179.388 37.434 179.675 37.604 179.962 37.773 180.188 38.008 180.352 38.305 180.516 38.604 180.597 38.947 180.597 39.337 180.597 39.725 180.516 40.069 180.352 40.367 180.188 40.666 179.962 40.899 179.675 41.07 179.388 41.24 179.059 41.324 178.689 41.324L178.689 41.324zM182.003 39.228L182.807 39.228C183.057 39.228 183.257 39.169 183.405 39.048 183.554 38.927 183.628 38.765 183.628 38.56 183.628 38.357 183.554 38.194 183.405 38.074 183.257 37.953 183.057 37.892 182.807 37.892L182.003 37.892 182.003 39.228zM182.003 39.699L182.003 41.263 181.419 41.263 181.419 37.411 182.807 37.411C183.242 37.411 183.588 37.514 183.842 37.72 184.097 37.925 184.224 38.206 184.224 38.56 184.224 38.828 184.146 39.056 183.992 39.24 183.838 39.425 183.626 39.556 183.356 39.631L184.311 41.263 183.645 41.263 182.749 39.699 182.003 39.699 182.003 39.699z"/>
    <polyline fill="#FFFFFF" points="187.399 41.263 185.635 39.32 185.635 41.263 185.05 41.263 185.05 37.411 185.635 37.411 185.635 39.099 187.283 37.411 188.006 37.411 186.254 39.178 188.133 41.263 187.399 41.263"/>
    <polygon fill="#009BFF" class="no-color-change" points=".357 32.913 8.727 32.913 8.727 2.313 .357 2.313"/>
    <path fill="#009BFF" class="no-color-change" d="M22.677 20.268L22.677 32.913 14.847 32.913 14.847 10.007 22.003 10.007 22.408 13.023C23.157 11.943 24.132 11.073 25.333 10.413 26.532 9.754 27.852 9.423 29.293 9.423 31.782 9.423 33.777 10.233 35.277 11.853 36.777 13.472 37.527 15.798 37.527 18.828L37.527 32.913 29.698 32.913 29.698 19.728C29.698 18.378 29.397 17.381 28.797 16.735 28.197 16.09 27.357 15.768 26.277 15.768 25.198 15.768 24.327 16.113 23.668 16.802 23.007 17.493 22.677 18.648 22.677 20.268M53.726 27.288C55.077 27.288 56.164 26.756 56.989 25.69 57.814 24.626 58.226 23.209 58.226 21.438 58.226 19.668 57.814 18.251 56.989 17.185 56.164 16.121 55.077 15.588 53.726 15.588 52.346 15.588 51.244 16.121 50.42 17.185 49.593 18.251 49.181 19.668 49.181 21.438 49.181 23.209 49.593 24.626 50.42 25.69 51.244 26.756 52.346 27.288 53.726 27.288zM58.766 32.913L58.362 29.898C57.641 31.008 56.712 31.885 55.572 32.53 54.431 33.175 53.111 33.498 51.612 33.498 49.542 33.498 47.726 32.987 46.167 31.967 44.606 30.948 43.391 29.531 42.521 27.715 41.651 25.9 41.216 23.808 41.216 21.438 41.216 19.068 41.651 16.983 42.521 15.182 43.391 13.382 44.584 11.973 46.099 10.953 47.614 9.933 49.362 9.423 51.341 9.423 52.721 9.423 53.997 9.715 55.167 10.3 56.337 10.885 57.311 11.673 58.091 12.663L58.091.063 65.922.063 65.922 32.913 58.766 32.913 58.766 32.913zM87.296 31.113C85.917 34.652 84.341 37.293 82.572 39.033 80.801 40.772 78.551 41.643 75.822 41.643 74.591 41.643 73.482 41.507 72.492 41.238 71.502 40.967 70.662 40.637 69.972 40.248L72.176 34.847C72.596 35.057 73.061 35.237 73.572 35.387 74.082 35.538 74.622 35.613 75.192 35.613 76.002 35.613 76.729 35.418 77.375 35.028 78.019 34.637 78.582 33.932 79.062 32.913L79.421 32.103 69.072 10.007 77.711 10.007 82.796 23.733 86.982 10.007 95.487 10.007 87.296 31.113"/>
    <path fill="#FFFFFF" d="M110.111 33.498C107.621 33.498 105.235 33.07 102.956 32.215 100.675 31.36 98.696 30.138 97.016 28.548L101.066 23.463C102.265 24.543 103.616 25.39 105.116 26.006 106.616 26.621 108.266 26.927 110.066 26.927 111.265 26.927 112.211 26.719 112.901 26.298 113.59 25.878 113.936 25.248 113.936 24.408 113.936 23.597 113.531 22.945 112.721 22.45 111.911 21.956 110.486 21.438 108.446 20.898L106.556 20.403C103.795 19.682 101.696 18.581 100.255 17.095 98.816 15.61 98.096 13.728 98.096 11.448 98.096 9.498 98.606 7.788 99.626 6.318 100.645 4.848 102.056 3.715 103.856 2.921 105.656 2.126 107.741 1.728 110.111 1.728 112.451 1.728 114.685 2.155 116.816 3.01 118.946 3.865 120.836 5.028 122.486 6.498L118.301 11.762C117.221 10.834 115.953 10.023 114.499 9.333 113.043 8.643 111.596 8.298 110.156 8.298 108.956 8.298 108.033 8.501 107.388 8.905 106.743 9.31 106.42 9.903 106.42 10.682 106.42 11.403 106.758 12.026 107.433 12.55 108.108 13.076 109.271 13.563 110.92 14.012L113.215 14.643C116.515 15.543 118.848 16.773 120.213 18.333 121.578 19.893 122.261 21.708 122.261 23.778 122.261 25.728 121.758 27.43 120.753 28.885 119.748 30.34 118.331 31.472 116.501 32.283 114.67 33.092 112.541 33.498 110.111 33.498M143.545 31.427C142.616 32.057 141.55 32.56 140.35 32.935 139.15 33.31 137.89 33.498 136.571 33.498 134.11 33.498 132.153 32.786 130.698 31.36 129.243 29.936 128.515 28.023 128.515 25.623L128.515 15.858 124.781 15.858 124.781 10.007 128.876 10.007 129.866 3.618 136.345 3.618 136.345 10.007 142.331 10.007 142.331 15.858 136.345 15.858 136.345 24.632C136.345 25.413 136.578 26.021 137.044 26.456 137.507 26.89 138.13 27.108 138.911 27.108 139.3 27.108 139.698 27.033 140.103 26.882 140.508 26.733 140.89 26.553 141.251 26.343L143.545 31.427M153.446 25.488C153.446 26.178 153.7 26.741 154.211 27.176 154.72 27.61 155.38 27.828 156.19 27.828 157.27 27.828 158.177 27.461 158.913 26.725 159.648 25.991 160.015 25.068 160.015 23.958L160.015 23.193C159.206 23.043 158.35 22.968 157.451 22.968 156.31 22.968 155.358 23.163 154.593 23.552 153.828 23.943 153.446 24.588 153.446 25.488zM160.331 32.913L159.925 29.898C158.425 32.298 156.145 33.498 153.086 33.498 151.736 33.498 150.512 33.206 149.418 32.62 148.323 32.035 147.453 31.233 146.808 30.213 146.163 29.193 145.84 28.007 145.84 26.658 145.84 24.108 146.837 22.129 148.833 20.718 150.828 19.308 153.461 18.603 156.73 18.603 157.75 18.603 158.83 18.693 159.97 18.873 159.85 17.733 159.363 16.87 158.508 16.285 157.653 15.7 156.61 15.408 155.38 15.408 154.3 15.408 153.212 15.61 152.118 16.015 151.022 16.421 149.98 16.908 148.991 17.478L146.336 12.438C147.836 11.478 149.456 10.735 151.196 10.211 152.935 9.686 154.675 9.423 156.416 9.423 158.515 9.423 160.405 9.783 162.086 10.503 163.765 11.222 165.085 12.318 166.045 13.788 167.005 15.259 167.486 17.118 167.486 19.368L167.486 32.913 160.331 32.913 160.331 32.913zM180.31 24.048L180.31 32.913 172.48 32.913 172.48 10.007 179.635 10.007 180.13 13.833C180.61 12.603 181.397 11.605 182.493 10.84 183.587 10.075 184.855 9.693 186.295 9.693 187.105 9.693 187.719 9.799 188.14 10.007L188.14 17.163C187.81 17.044 187.443 16.953 187.038 16.893 186.632 16.833 186.175 16.802 185.666 16.802 184.105 16.802 182.823 17.381 181.818 18.535 180.812 19.69 180.31 21.528 180.31 24.048"/>
    <path fill="#009BFF" class="no-color-change" d="M193.899,33.408 C192.939,33.408 192.062,33.175 191.267,32.711 C190.472,32.246 189.842,31.615 189.377,30.82 C188.912,30.026 188.68,29.148 188.68,28.188 C188.68,27.228 188.912,26.35 189.377,25.555 C189.842,24.76 190.472,24.131 191.267,23.665 C192.062,23.201 192.939,22.968 193.899,22.968 C194.859,22.968 195.737,23.201 196.532,23.665 C197.327,24.131 197.957,24.76 198.422,25.555 C198.887,26.35 199.12,27.228 199.12,28.188 C199.12,29.148 198.887,30.026 198.422,30.82 C197.957,31.615 197.327,32.246 196.532,32.711 C195.737,33.175 194.859,33.408 193.899,33.408"/>
  </g>
</svg>
