<svg xmlns="http://www.w3.org/2000/svg" xmlns:xlink="http://www.w3.org/1999/xlink" width="720" height="164.969" viewBox="0 0 720 164.969">
  <defs>
    <style>
      .cls-1 {
        filter: url(#filter);
      }

      .cls-2, .cls-3 {
        fill: #fff;
        fill-rule: evenodd;
      }

      .cls-3 {
        filter: url(#filter-2);
      }
    </style>
    <filter id="filter" filterUnits="userSpaceOnUse">
      <feFlood result="flood" flood-color="#333"/>
      <feComposite result="composite" operator="in" in2="SourceGraphic"/>
      <feBlend result="blend" in2="SourceGraphic"/>
    </filter>
    <filter id="filter-2" x="352" y="148.969" width="367.969" height="16" filterUnits="userSpaceOnUse">
      <feFlood result="flood" flood-color="#999"/>
      <feComposite result="composite" operator="in" in2="SourceGraphic"/>
      <feBlend result="blend" in2="SourceGraphic"/>
    </filter>
  </defs>
  <g id="inyork" class="cls-1">
    <path class="cls-2" d="M0,11.481H13.406V133.864H0V11.481ZM50.58,66.831h0.326c5.263-7.3,12.127-11.365,21.382-11.365,20.739,0,25.527,15.259,25.527,33.113v45.284H85.049V90.854c0-12.336-.955-23.378-15.8-23.378-17.549,0-18.671,16.557-18.671,30.2v36.193H37.819V57.579H50.58v9.252m48.673-55.35h15.481l30.64,54.54,30.636-54.54h15.472L152.072,81.275v52.589h-13.4V81.275L99.254,11.481m95.6,84.238c0,15.586,10.852,28.244,26.654,28.244s26.649-12.658,26.649-28.244c0-15.42-10.856-28.244-26.649-28.244S194.858,80.3,194.858,95.719m-12.765.161c0-22.393,17.4-40.414,39.419-40.414s39.411,18.02,39.411,40.414-17.554,40.092-39.411,40.092S182.093,118.283,182.093,95.88ZM290.6,65.855h0.321c4.471-6.007,8.3-10.389,16.594-10.389,4.313,0,7.824,1.464,11.485,3.572L312.94,70.891c-2.557-1.791-4.308-3.415-7.661-3.415-14.037,0-14.68,18.347-14.68,28.244v38.145h-12.77V57.579H290.6v8.276M344.06,85.823l27.283-28.244h17.083l-32.08,32.46,38.139,43.825H377.569L347.409,99.13l-3.349,3.411v31.323H331.294V-0.04H344.06V85.823m84.247,40.9a8.941,8.941,0,1,1-17.871,0,8.936,8.936,0,0,1,17.871,0M511.766,80.3h-0.322c-5.9-7.627-13.245-12.824-23.3-12.824-15.481,0-26.481,12.99-26.481,28.244,0,15.1,10.2,28.244,25.843,28.244,10.689,0,18.192-4.866,24.409-13.146h0.326v17.367c-7.335,5.031-14.843,7.788-23.775,7.788-22.658,0-39.9-17.2-39.9-40.253a39.772,39.772,0,0,1,63.191-32.626V80.3m26.327,15.42c0,15.586,10.852,28.244,26.654,28.244S591.4,111.305,591.4,95.719c0-15.42-10.856-28.244-26.649-28.244S538.093,80.3,538.093,95.719m-12.765.161c0-22.393,17.39-40.414,39.419-40.414s39.41,18.02,39.41,40.414-17.553,40.092-39.41,40.092S525.328,118.283,525.328,95.88ZM634.472,65.855h0.321c3.991-6.329,10.372-10.389,18.029-10.389a22.952,22.952,0,0,1,20.743,12.663c4.471-8.442,13.409-12.663,22.5-12.663C715.216,55.467,720,71.374,720,87.443v46.421H707.238V89.556c0-9.906-.638-22.08-13.73-22.08-14.675,0-16.268,14.449-16.268,25.974v40.414H664.47V90.527c0-9.413-1.114-23.052-13.4-23.052-15,0-16.6,15.425-16.6,26.95v39.438H621.7V57.579h12.77v8.276"/>
    <path id="USAT_Network" data-name="USAT Network" class="cls-3" d="M351.989,149.273h4.489c3.156,0,5.267,1.865,5.267,4.74s-2.155,4.736-5.267,4.736h-2.29v5.925h-2.2v-15.4Zm4.267,7.659c2.112,0,3.244-1.163,3.244-2.919,0-1.735-1.132-2.918-3.244-2.918h-2.068v5.837h2.068Zm11.768-7.659h1.956l6.4,15.4h-2.358l-1.6-4.035h-6.911l-1.6,4.035H361.6S367.244,151.162,368.024,149.273Zm3.665,9.544-1.488-3.794c-0.221-.572-1.179-2.942-1.2-3.139h-0.043c-0.022.2-.955,2.5-1.2,3.139l-1.51,3.794h5.443Zm6.924-9.544h4.51c2.91,0,5.178,1.5,5.178,4.563a4.293,4.293,0,0,1-3.955,4.346l4.778,6.492h-2.579l-4.51-6.276h-1.223v6.276h-2.2v-15.4Zm4.267,7.351c2.043,0,3.2-1.077,3.2-2.764s-1.157-2.765-3.2-2.765h-2.068v5.529h2.068Zm11.522-5.486h-4.445v-1.865h11.089v1.865H396.6v13.536h-2.2V151.138Zm12.347,5.838a8.2,8.2,0,1,1,8.2,8A7.862,7.862,0,0,1,406.749,156.976Zm14.133,0a5.946,5.946,0,1,0-5.955,6.053A5.772,5.772,0,0,0,420.882,156.976Zm5.433-7.7h7.867v1.865h-5.668V156.1H434v1.865h-5.49v6.713h-2.2v-15.4Zm17.815,1.865h-4.444v-1.865h11.088v1.865H446.33v13.536h-2.2V151.138Zm8.953-1.865h2.2v6.318h8.178v-6.318h2.2v15.4h-2.2v-7.218h-8.178v7.218h-2.2v-15.4Zm16.631,0h8.49v1.846h-6.29v4.472h6.11v1.846h-6.11v5.395h6.422v1.842h-8.622v-15.4Zm16,10.092V149.273h2.221v9.433c0,2.679,1.157,4.323,3.756,4.323,2.622,0,3.78-1.644,3.78-4.323v-9.433h2.221v10.092c0,3.38-2.2,5.616-6,5.616C487.865,164.981,485.71,162.745,485.71,159.365Zm14.274,2.524,1.491-1.25a4.52,4.52,0,0,0,3.911,2.433c1.709,0,3.044-.918,3.044-2.611,0-1.817-1.534-2.433-3.446-3.178-1.956-.769-3.933-1.736-3.933-4.193,0-2.432,1.912-4.12,4.712-4.12a5.249,5.249,0,0,1,4.579,2.322l-1.491,1.25a3.552,3.552,0,0,0-3.088-1.668c-1.512,0-2.511.769-2.511,2.063,0,1.6,1.554,2.13,2.911,2.654,2.2,0.856,4.466,1.889,4.466,4.716,0,2.679-2,4.674-5.2,4.674A6.064,6.064,0,0,1,499.984,161.889Zm18.241-12.616h1.956l6.4,15.4h-2.357l-1.6-4.035h-6.912l-1.6,4.035H511.8S517.446,151.162,518.225,149.273Zm3.665,9.544-1.487-3.794c-0.222-.572-1.179-2.942-1.2-3.139h-0.044c-0.022.2-.955,2.5-1.2,3.139l-1.51,3.794h5.443Zm13.978-7.679h-4.445v-1.865h11.088v1.865h-4.444v13.536h-2.2V151.138Zm7.469,5.838a8.2,8.2,0,1,1,8.2,8A7.861,7.861,0,0,1,543.337,156.976Zm14.132,0a5.945,5.945,0,1,0-5.954,6.053A5.772,5.772,0,0,0,557.469,156.976Zm5.434-7.7h4.423c4.977,0,8.265,2.808,8.265,7.7,0,4.87-3.312,7.7-8.265,7.7H562.9v-15.4Zm2.2,13.534h2.046c3.643,0,6.176-1.9,6.176-5.831s-2.533-5.838-6.176-5.838H565.1v11.669Zm17.637-13.534H584.7l6.4,15.4h-2.357l-1.6-4.035h-6.912l-1.6,4.035h-2.311S581.96,151.162,582.739,149.273Zm3.666,9.544-1.489-3.794c-0.221-.572-1.178-2.942-1.2-3.139h-0.044c-0.022.2-.955,2.5-1.2,3.139l-1.51,3.794h5.444Zm9.084-.419-5.312-9.125h2.467l2.889,5.135a22.887,22.887,0,0,1,1.11,2.192h0.022a23.153,23.153,0,0,1,1.113-2.192l2.91-5.135h2.4l-5.309,9.125v6.276h-2.289V158.4Zm14.062-9.125h1.687l8.846,9.982c0.266,0.288,1.422,1.711,1.534,1.932l0.044-.023c-0.044-.217-0.044-2-0.044-2.39v-9.5h2.134v15.4h-1.713l-8.845-9.983c-0.265-.283-1.422-1.711-1.532-1.928l-0.021.02c0.021,0.221.043,2,.043,2.394v9.5h-2.133v-15.4Zm18.253,0h8.487v1.846H630v4.472h6.113v1.846H630v5.395h6.422v1.842H627.8v-15.4Zm15.37,1.865h-4.445v-1.865h11.089v1.865h-4.445v13.536h-2.2V151.138Zm8.478-1.865h2.333l3.2,9.15c0.112,0.351.867,2.63,0.889,2.981h0.046a30.445,30.445,0,0,1,.933-2.981l3.334-9.15h1.756l3.331,9.15c0.134,0.351.911,2.63,0.936,2.981h0.044c0.044-.351.8-2.63,0.91-2.981l3.179-9.15h2.243l-5.49,15.4h-1.688l-3.6-9.607a25.578,25.578,0,0,1-.758-2.5h-0.044a25.421,25.421,0,0,1-.776,2.5l-3.578,9.607h-1.69Zm24.117,7.7a8.2,8.2,0,1,1,8.2,8A7.862,7.862,0,0,1,675.769,156.976Zm14.133,0a5.946,5.946,0,1,0-5.954,6.053A5.772,5.772,0,0,0,689.9,156.976Zm5.433-7.7h4.511c2.913,0,5.177,1.5,5.177,4.563a4.293,4.293,0,0,1-3.955,4.346l4.779,6.492h-2.579l-4.511-6.276h-1.223v6.276h-2.2v-15.4Zm4.267,7.351c2.044,0,3.2-1.077,3.2-2.764s-1.156-2.765-3.2-2.765h-2.068v5.529H699.6Zm8.736-7.351h2.2v7.154l6.444-7.154h2.666l-6.687,7.351,7,8.05h-2.755l-6.667-7.785v7.785h-2.2v-15.4Z"/>
  </g>
</svg>
