<svg xmlns="http://www.w3.org/2000/svg" width="508" height="48" viewBox="0 0 508 48">
  <g fill="none" fill-rule="evenodd">
    <polygon fill="#404040" points=".357 34.983 8.727 34.983 8.727 4.383 .357 4.383"/>
    <path fill="#404040" d="M25.962,29.358 C27.341,29.358 28.444,28.825 29.269,27.76 C30.094,26.695 30.507,25.278 30.507,23.508 C30.507,21.738 30.094,20.328 29.269,19.278 C28.444,18.228 27.341,17.703 25.962,17.703 C24.582,17.703 23.479,18.228 22.654,19.278 C21.829,20.328 21.417,21.738 21.417,23.508 C21.417,25.278 21.829,26.695 22.654,27.76 C23.479,28.825 24.582,29.358 25.962,29.358 Z M25.962,35.568 C23.501,35.568 21.334,35.05 19.459,34.015 C17.584,32.981 16.114,31.563 15.049,29.763 C13.984,27.963 13.452,25.878 13.452,23.508 C13.452,21.138 13.984,19.053 15.049,17.253 C16.114,15.453 17.584,14.043 19.459,13.023 C21.334,12.003 23.501,11.493 25.962,11.493 C28.421,11.493 30.589,12.003 32.464,13.023 C34.339,14.043 35.809,15.453 36.874,17.253 C37.939,19.053 38.472,21.138 38.472,23.508 C38.472,25.878 37.939,27.963 36.874,29.763 C35.809,31.563 34.339,32.981 32.464,34.015 C30.589,35.05 28.421,35.568 25.962,35.568 Z"/>
    <polyline fill="#404040" points="61.242 34.983 57.552 21.078 53.907 34.983 45.807 34.983 39.867 12.078 47.877 12.078 50.262 26.838 54.132 12.078 61.017 12.078 65.022 26.883 67.452 12.078 75.282 12.078 69.342 34.983 61.242 34.983"/>
    <path fill="#404040" d="M84.867 27.558C84.867 28.248 85.121 28.811 85.632 29.245 86.141 29.681 86.802 29.898 87.612 29.898 88.692 29.898 89.599 29.531 90.334 28.795 91.069 28.061 91.437 27.138 91.437 26.028L91.437 25.263C90.627 25.113 89.772 25.038 88.872 25.038 87.731 25.038 86.779 25.234 86.014 25.623 85.249 26.013 84.867 26.658 84.867 27.558zM91.752 34.983L91.347 31.968C89.846 34.368 87.567 35.568 84.507 35.568 83.157 35.568 81.934 35.276 80.839 34.691 79.744 34.106 78.874 33.303 78.229 32.283 77.584 31.263 77.262 30.078 77.262 28.728 77.262 26.178 78.259 24.199 80.254 22.788 82.249 21.378 84.881 20.673 88.152 20.673 89.171 20.673 90.251 20.763 91.392 20.943 91.271 19.803 90.784 18.941 89.929 18.356 89.074 17.771 88.031 17.478 86.802 17.478 85.722 17.478 84.634 17.68 83.539 18.085 82.444 18.49 81.402 18.978 80.412 19.548L77.757 14.508C79.256 13.548 80.876 12.806 82.617 12.281 84.356 11.756 86.096 11.493 87.836 11.493 89.936 11.493 91.826 11.853 93.507 12.573 95.186 13.293 96.506 14.388 97.467 15.858 98.426 17.328 98.907 19.188 98.907 21.438L98.907 34.983 91.752 34.983zM128.326 35.568C125.205 35.568 122.468 34.893 120.113 33.543 117.758 32.193 115.913 30.325 114.578 27.941 113.243 25.555 112.576 22.788 112.576 19.638 112.576 16.487 113.243 13.728 114.578 11.358 115.913 8.989 117.758 7.136 120.113 5.8 122.468 4.466 125.205 3.798 128.326 3.798 130.965 3.798 133.343 4.331 135.458 5.396 137.573 6.461 139.38 7.998 140.881 10.008L134.266 13.923C133.485 12.933 132.608 12.153 131.633 11.583 130.658 11.013 129.525 10.728 128.236 10.728 126.105 10.728 124.381 11.531 123.061 13.135 121.74 14.74 121.081 16.908 121.081 19.638 121.081 22.368 121.74 24.55 123.061 26.185 124.381 27.82 126.105 28.638 128.236 28.638 129.556 28.638 130.726 28.316 131.746 27.67 132.765 27.026 133.62 26.268 134.311 25.398L140.881 29.313C139.411 31.353 137.603 32.905 135.458 33.97 133.313 35.035 130.936 35.568 128.326 35.568M144.526 34.983L144.526 12.078C145.786 12.348 147.061 12.483 148.351 12.483 149.67 12.483 151.006 12.348 152.356 12.078L152.356 34.983 144.526 34.983M174.721 33.498C173.79 34.128 172.725 34.631 171.525 35.005 170.325 35.38 169.065 35.568 167.745 35.568 165.285 35.568 163.328 34.856 161.873 33.43 160.418 32.006 159.69 30.093 159.69 27.693L159.69 17.928 155.955 17.928 155.955 12.078 160.05 12.078 161.04 5.688 167.52 5.688 167.52 12.078 173.505 12.078 173.505 17.928 167.52 17.928 167.52 26.703C167.52 27.484 167.753 28.091 168.218 28.526 168.683 28.961 169.305 29.178 170.086 29.178 170.475 29.178 170.873 29.103 171.278 28.953 171.683 28.803 172.065 28.623 172.425 28.413L174.721 33.498M194.34 33.183C192.96 36.722 191.385 39.362 189.615 41.103 187.845 42.842 185.595 43.713 182.865 43.713 181.635 43.713 180.525 43.578 179.535 43.308 178.545 43.038 177.705 42.707 177.015 42.318L179.22 36.918C179.64 37.127 180.105 37.307 180.615 37.458 181.125 37.608 181.665 37.683 182.235 37.683 183.045 37.683 183.772 37.487 184.418 37.098 185.062 36.708 185.625 36.002 186.105 34.983L186.465 34.173 176.115 12.078 184.755 12.078 189.84 25.803 194.025 12.078 202.53 12.078 194.34 33.183"/>
    <path fill="#009BFF" class='no-color-change' d="M224.254 18.378L228.304 18.378C229.594 18.378 230.614 18.04 231.364 17.365 232.114 16.691 232.489 15.798 232.489 14.688 232.489 13.578 232.114 12.685 231.364 12.01 230.614 11.335 229.594 10.998 228.304 10.998L224.254 10.998 224.254 18.378zM216.154 34.983L216.154 4.383 229.114 4.383C232.714 4.383 235.564 5.305 237.664 7.151 239.764 8.995 240.814 11.508 240.814 14.688 240.814 16.758 240.342 18.551 239.397 20.066 238.452 21.58 237.124 22.751 235.414 23.575 233.704 24.401 231.664 24.813 229.294 24.813L224.254 24.813 224.254 34.983 216.154 34.983zM252.648 26.118L252.648 34.983 244.819 34.983 244.819 12.078 251.973 12.078 252.469 15.903C252.948 14.673 253.736 13.675 254.831 12.91 255.926 12.146 257.194 11.763 258.634 11.763 259.444 11.763 260.058 11.868 260.478 12.078L260.478 19.233C260.148 19.114 259.781 19.024 259.376 18.963 258.971 18.903 258.513 18.873 258.003 18.873 256.443 18.873 255.16 19.451 254.156 20.606 253.151 21.761 252.648 23.598 252.648 26.118M275.103 17.163C272.553 17.163 271.023 18.513 270.513 21.213L279.243 21.213C279.033 19.743 278.53 18.7 277.735 18.085 276.94 17.471 276.063 17.163 275.103 17.163zM285.813 32.643C284.672 33.453 283.225 34.143 281.471 34.713 279.715 35.282 277.848 35.568 275.868 35.568 273.138 35.568 270.805 35.065 268.87 34.06 266.935 33.056 265.451 31.653 264.415 29.853 263.38 28.053 262.863 25.983 262.863 23.643 262.863 21.274 263.373 19.173 264.393 17.343 265.412 15.513 266.823 14.08 268.623 13.045 270.423 12.01 272.522 11.493 274.923 11.493 277.263 11.493 279.325 11.995 281.11 13 282.895 14.006 284.29 15.401 285.295 17.185 286.3 18.971 286.803 21.063 286.803 23.463 286.803 23.793 286.781 24.138 286.735 24.498 286.69 24.858 286.638 25.234 286.578 25.623L270.603 25.623C271.323 28.263 273.287 29.583 276.498 29.583 277.938 29.583 279.213 29.358 280.323 28.908 281.432 28.458 282.363 28.008 283.113 27.558L285.813 32.643zM299.313 35.568C297.333 35.568 295.48 35.253 293.755 34.623 292.03 33.993 290.477 33.093 289.097 31.923L292.428 27.513C293.477 28.353 294.61 29.036 295.825 29.56 297.04 30.086 298.233 30.348 299.403 30.348 300.182 30.348 300.805 30.213 301.27 29.943 301.735 29.673 301.968 29.268 301.968 28.728 301.968 28.158 301.705 27.7 301.18 27.356 300.655 27.011 299.718 26.673 298.367 26.343L296.208 25.803C291.917 24.663 289.773 22.368 289.773 18.918 289.773 17.388 290.193 16.068 291.033 14.958 291.872 13.848 293.028 12.993 294.498 12.393 295.967 11.793 297.677 11.493 299.628 11.493 301.547 11.493 303.355 11.793 305.05 12.393 306.745 12.993 308.297 13.863 309.708 15.003L306.288 19.503C305.237 18.663 304.128 17.989 302.958 17.478 301.788 16.968 300.692 16.713 299.673 16.713 298.022 16.713 297.198 17.253 297.198 18.333 297.198 18.813 297.445 19.203 297.94 19.503 298.435 19.803 299.133 20.074 300.033 20.313L302.958 21.123C305.147 21.723 306.767 22.623 307.818 23.823 308.867 25.023 309.393 26.449 309.393 28.098 309.393 29.598 308.972 30.91 308.133 32.035 307.292 33.16 306.115 34.03 304.6 34.646 303.085 35.26 301.322 35.568 299.313 35.568M322.173 35.568C320.193 35.568 318.34 35.253 316.615 34.623 314.889 33.993 313.337 33.093 311.957 31.923L315.287 27.513C316.337 28.353 317.47 29.036 318.685 29.56 319.9 30.086 321.093 30.348 322.263 30.348 323.042 30.348 323.664 30.213 324.13 29.943 324.595 29.673 324.827 29.268 324.827 28.728 324.827 28.158 324.565 27.7 324.04 27.356 323.515 27.011 322.577 26.673 321.227 26.343L319.068 25.803C314.777 24.663 312.633 22.368 312.633 18.918 312.633 17.388 313.053 16.068 313.892 14.958 314.732 13.848 315.888 12.993 317.358 12.393 318.827 11.793 320.537 11.493 322.488 11.493 324.407 11.493 326.215 11.793 327.91 12.393 329.605 12.993 331.157 13.863 332.568 15.003L329.148 19.503C328.097 18.663 326.988 17.989 325.818 17.478 324.648 16.968 323.552 16.713 322.533 16.713 320.882 16.713 320.057 17.253 320.057 18.333 320.057 18.813 320.305 19.203 320.8 19.503 321.295 19.803 321.992 20.074 322.892 20.313L325.818 21.123C328.007 21.723 329.627 22.623 330.678 23.823 331.727 25.023 332.253 26.449 332.253 28.098 332.253 29.598 331.832 30.91 330.992 32.035 330.152 33.16 328.974 34.03 327.46 34.646 325.945 35.26 324.182 35.568 322.173 35.568"/>
    <polygon fill="#009BFF" class='no-color-change' points="336.752 24.633 351.062 24.633 351.062 17.703 336.752 17.703"/>
    <path fill="#009BFF" class='no-color-change' d="M371.402 35.568C368.282 35.568 365.544 34.893 363.19 33.543 360.834 32.193 358.989 30.325 357.655 27.941 356.32 25.555 355.652 22.788 355.652 19.638 355.652 16.487 356.32 13.728 357.655 11.358 358.989 8.989 360.834 7.136 363.19 5.8 365.544 4.466 368.282 3.798 371.402 3.798 374.042 3.798 376.42 4.331 378.534 5.396 380.65 6.461 382.457 7.998 383.957 10.008L377.342 13.923C376.562 12.933 375.684 12.153 374.71 11.583 373.734 11.013 372.602 10.728 371.312 10.728 369.181 10.728 367.457 11.531 366.137 13.135 364.817 14.74 364.157 16.908 364.157 19.638 364.157 22.368 364.817 24.55 366.137 26.185 367.457 27.82 369.181 28.638 371.312 28.638 372.632 28.638 373.802 28.316 374.822 27.67 375.842 27.026 376.697 26.268 377.387 25.398L383.957 29.313C382.487 31.353 380.679 32.905 378.534 33.97 376.389 35.035 374.012 35.568 371.402 35.568M387.602 34.983L387.602 12.078C388.862 12.348 390.137 12.483 391.427 12.483 392.747 12.483 394.082 12.348 395.432 12.078L395.432 34.983 387.602 34.983zM391.427 10.278C390.137 10.278 389.034 9.82 388.119 8.906 387.204 7.99 386.747 6.888 386.747 5.598 386.747 4.308 387.204 3.206 388.119 2.29 389.034 1.376 390.137.918 391.427.918 392.717.918 393.819 1.376 394.735 2.29 395.649 3.206 396.107 4.308 396.107 5.598 396.107 6.888 395.649 7.99 394.735 8.906 393.819 9.82 392.717 10.278 391.427 10.278zM417.797 33.498C416.867 34.128 415.801 34.631 414.602 35.005 413.402 35.38 412.141 35.568 410.822 35.568 408.362 35.568 406.404 34.856 404.949 33.43 403.494 32.006 402.767 30.093 402.767 27.693L402.767 17.928 399.032 17.928 399.032 12.078 403.127 12.078 404.117 5.688 410.596 5.688 410.596 12.078 416.582 12.078 416.582 17.928 410.596 17.928 410.596 26.703C410.596 27.484 410.829 28.091 411.294 28.526 411.759 28.961 412.381 29.178 413.162 29.178 413.551 29.178 413.949 29.103 414.354 28.953 414.759 28.803 415.142 28.623 415.502 28.413L417.797 33.498M421.532 34.983L421.532 12.078C422.791 12.348 424.066 12.483 425.356 12.483 426.676 12.483 428.012 12.348 429.361 12.078L429.361 34.983 421.532 34.983zM425.356 10.278C424.066 10.278 422.964 9.82 422.049 8.906 421.133 7.99 420.676 6.888 420.676 5.598 420.676 4.308 421.133 3.206 422.049 2.29 422.964 1.376 424.066.918 425.356.918 426.646.918 427.748 1.376 428.664 2.29 429.578 3.206 430.036 4.308 430.036 5.598 430.036 6.888 429.578 7.99 428.664 8.906 427.748 9.82 426.646 10.278 425.356 10.278z"/>
    <polyline fill="#009BFF" class='no-color-change' points="453.796 29.133 453.796 34.983 433.501 34.983 433.501 30.078 443.941 17.928 434.176 17.928 434.176 12.078 453.436 12.078 453.436 16.983 443.086 29.133 453.796 29.133"/>
    <path fill="#009BFF" class='no-color-change' d="M468.915 17.163C466.365 17.163 464.835 18.513 464.326 21.213L473.055 21.213C472.845 19.743 472.343 18.7 471.548 18.085 470.753 17.471 469.875 17.163 468.915 17.163zM479.625 32.643C478.485 33.453 477.038 34.143 475.283 34.713 473.528 35.282 471.66 35.568 469.68 35.568 466.951 35.568 464.618 35.065 462.683 34.06 460.748 33.056 459.263 31.653 458.228 29.853 457.193 28.053 456.676 25.983 456.676 23.643 456.676 21.274 457.185 19.173 458.205 17.343 459.225 15.513 460.636 14.08 462.435 13.045 464.236 12.01 466.335 11.493 468.736 11.493 471.076 11.493 473.138 11.995 474.923 13 476.707 14.006 478.102 15.401 479.108 17.185 480.113 18.971 480.616 21.063 480.616 23.463 480.616 23.793 480.593 24.138 480.548 24.498 480.503 24.858 480.451 25.234 480.39 25.623L464.415 25.623C465.136 28.263 467.1 29.583 470.31 29.583 471.75 29.583 473.025 29.358 474.136 28.908 475.245 28.458 476.175 28.008 476.926 27.558L479.625 32.643zM492.451 22.338L492.451 34.983 484.62 34.983 484.62 12.078 491.775 12.078 492.18 15.093C492.93 14.013 493.905 13.143 495.105 12.483 496.305 11.824 497.625 11.493 499.065 11.493 501.555 11.493 503.55 12.303 505.05 13.923 506.55 15.543 507.3 17.868 507.3 20.898L507.3 34.983 499.471 34.983 499.471 21.798C499.471 20.448 499.17 19.451 498.57 18.805 497.97 18.16 497.13 17.838 496.05 17.838 494.971 17.838 494.1 18.183 493.44 18.873 492.78 19.564 492.451 20.718 492.451 22.338"/>
    <path fill="#404040" d="M1.288 44.547L2.458 44.547C2.842 44.547 3.146 44.452 3.369 44.263 3.593 44.073 3.705 43.816 3.705 43.488 3.705 43.162 3.593 42.904 3.369 42.715 3.146 42.526 2.842 42.431 2.458 42.431L1.288 42.431 1.288 44.547zM.419 47.548L.419 41.7 2.458 41.7C3.111 41.7 3.63 41.861 4.014 42.181 4.398 42.503 4.591 42.938 4.591 43.488 4.591 44.033 4.398 44.465 4.014 44.783 3.63 45.101 3.111 45.261 2.458 45.261L1.288 45.261 1.288 47.548.419 47.548zM6.345 45.346L8.478 45.346 7.411 42.603 6.345 45.346zM9.329 47.548L8.762 46.077 6.061 46.077 5.494 47.548 4.616 47.548 6.956 41.7 7.893 41.7 10.224 47.548 9.329 47.548zM12.064 44.461L13.26 44.461C13.632 44.461 13.929 44.369 14.15 44.185 14.371 44.002 14.481 43.755 14.481 43.445 14.481 43.136 14.371 42.889 14.15 42.706 13.929 42.523 13.632 42.431 13.26 42.431L12.064 42.431 12.064 44.461zM12.064 45.174L12.064 47.548 11.196 47.548 11.196 41.7 13.26 41.7C13.907 41.7 14.421 41.856 14.799 42.169 15.178 42.481 15.367 42.907 15.367 43.445 15.367 43.853 15.252 44.197 15.023 44.478 14.794 44.758 14.478 44.956 14.077 45.071L15.496 47.548 14.507 47.548 13.174 45.174 12.064 45.174z"/>
    <polyline fill="#404040" points="17.861 47.548 17.861 42.431 15.891 42.431 15.891 41.7 20.699 41.7 20.699 42.431 18.73 42.431 18.73 47.548 17.861 47.548"/>
    <path fill="#404040" d="M26.281,46.886 C26.659,46.886 26.996,46.79 27.291,46.598 C27.586,46.405 27.817,46.14 27.983,45.802 C28.15,45.464 28.233,45.071 28.233,44.624 C28.233,44.177 28.15,43.784 27.983,43.445 C27.817,43.108 27.586,42.842 27.291,42.65 C26.996,42.458 26.659,42.362 26.281,42.362 C25.902,42.362 25.567,42.458 25.274,42.65 C24.982,42.842 24.752,43.108 24.586,43.445 C24.42,43.784 24.337,44.177 24.337,44.624 C24.337,45.071 24.42,45.464 24.586,45.802 C24.752,46.14 24.982,46.405 25.274,46.598 C25.567,46.79 25.902,46.886 26.281,46.886 Z M26.281,47.643 C25.73,47.643 25.243,47.514 24.818,47.256 C24.394,46.998 24.06,46.642 23.816,46.189 C23.573,45.736 23.451,45.215 23.451,44.624 C23.451,44.033 23.573,43.511 23.816,43.059 C24.06,42.606 24.394,42.25 24.818,41.992 C25.243,41.734 25.73,41.605 26.281,41.605 C26.831,41.605 27.32,41.734 27.747,41.992 C28.174,42.25 28.509,42.606 28.753,43.059 C28.997,43.511 29.119,44.033 29.119,44.624 C29.119,45.215 28.997,45.736 28.753,46.189 C28.509,46.642 28.174,46.998 27.747,47.256 C27.32,47.514 26.831,47.643 26.281,47.643 Z"/>
    <polyline fill="#404040" points="31.209 47.548 30.34 47.548 30.34 41.7 33.978 41.7 33.978 42.431 31.209 42.431 31.209 44.409 33.556 44.409 33.556 45.14 31.209 45.14 31.209 47.548"/>
    <polyline fill="#404040" points="38.51 47.548 38.51 42.431 36.541 42.431 36.541 41.7 41.348 41.7 41.348 42.431 39.379 42.431 39.379 47.548 38.51 47.548"/>
    <polyline fill="#404040" points="42.346 47.548 42.346 41.7 43.215 41.7 43.215 44.202 46.233 44.202 46.233 41.7 47.102 41.7 47.102 47.548 46.233 47.548 46.233 44.951 43.215 44.951 43.215 47.548 42.346 47.548"/>
    <polyline fill="#404040" points="48.633 47.548 48.633 41.7 52.383 41.7 52.383 42.431 49.501 42.431 49.501 44.237 52.039 44.237 52.039 44.968 49.501 44.968 49.501 46.817 52.451 46.817 52.451 47.548 48.633 47.548"/>
    <path fill="#404040" d="M57.938 46.886C58.414 46.886 58.788 46.742 59.061 46.456 59.333 46.169 59.469 45.782 59.469 45.295L59.469 41.7 60.338 41.7 60.338 45.303C60.338 46.031 60.124 46.604 59.697 47.019 59.27 47.435 58.684 47.643 57.938 47.643 57.193 47.643 56.608 47.435 56.184 47.019 55.76 46.604 55.547 46.031 55.547 45.303L55.547 41.7 56.416 41.7 56.416 45.295C56.416 45.782 56.552 46.169 56.825 46.456 57.097 46.742 57.468 46.886 57.938 46.886M63.58 47.643C63.139 47.643 62.718 47.565 62.316 47.41 61.915 47.256 61.591 47.049 61.344 46.791L61.834 46.215C62.064 46.427 62.335 46.594 62.647 46.714 62.96 46.834 63.271 46.894 63.58 46.894 63.959 46.894 64.264 46.821 64.496 46.675 64.729 46.529 64.845 46.327 64.845 46.069 64.845 45.834 64.761 45.636 64.595 45.475 64.429 45.315 64.145 45.18 63.744 45.071L62.935 44.856C62.414 44.719 62.034 44.524 61.796 44.271 61.558 44.019 61.439 43.689 61.439 43.282 61.439 42.95 61.528 42.657 61.706 42.405 61.883 42.153 62.128 41.956 62.441 41.816 62.753 41.675 63.107 41.605 63.503 41.605 63.921 41.605 64.314 41.684 64.681 41.842 65.048 41.999 65.372 42.219 65.653 42.5L65.128 43.067C64.882 42.838 64.626 42.662 64.359 42.538 64.092 42.415 63.81 42.353 63.512 42.353 63.15 42.353 62.855 42.429 62.626 42.581 62.397 42.733 62.282 42.944 62.282 43.214 62.282 43.46 62.364 43.652 62.527 43.79 62.69 43.928 62.941 44.042 63.28 44.134L64.182 44.383C64.704 44.527 65.085 44.727 65.326 44.985 65.567 45.243 65.688 45.564 65.688 45.948 65.688 46.287 65.599 46.584 65.421 46.839 65.243 47.093 64.997 47.292 64.681 47.432 64.366 47.572 63.999 47.643 63.58 47.643M67.872 45.346L70.005 45.346 68.938 42.603 67.872 45.346zM70.856 47.548L70.289 46.077 67.588 46.077 67.021 47.548 66.143 47.548 68.482 41.7 69.42 41.7 71.751 47.548 70.856 47.548z"/>
    <polyline fill="#404040" points="75.793 47.548 75.793 42.431 73.823 42.431 73.823 41.7 78.631 41.7 78.631 42.431 76.661 42.431 76.661 47.548 75.793 47.548"/>
    <path fill="#404040" d="M81.762 46.886C82.14 46.886 82.477 46.79 82.772 46.598 83.067 46.405 83.298 46.14 83.464 45.802 83.631 45.464 83.714 45.071 83.714 44.624 83.714 44.177 83.631 43.784 83.464 43.445 83.298 43.108 83.067 42.842 82.772 42.65 82.477 42.458 82.14 42.362 81.762 42.362 81.383 42.362 81.048 42.458 80.755 42.65 80.463 42.842 80.233 43.108 80.067 43.445 79.901 43.784 79.818 44.177 79.818 44.624 79.818 45.071 79.901 45.464 80.067 45.802 80.233 46.14 80.463 46.405 80.755 46.598 81.048 46.79 81.383 46.886 81.762 46.886zM81.762 47.643C81.211 47.643 80.724 47.514 80.299 47.256 79.875 46.998 79.541 46.642 79.297 46.189 79.054 45.736 78.932 45.215 78.932 44.624 78.932 44.033 79.054 43.511 79.297 43.059 79.541 42.606 79.875 42.25 80.299 41.992 80.724 41.734 81.211 41.605 81.762 41.605 82.312 41.605 82.801 41.734 83.228 41.992 83.655 42.25 83.99 42.606 84.234 43.059 84.478 43.511 84.6 44.033 84.6 44.624 84.6 45.215 84.478 45.736 84.234 46.189 83.99 46.642 83.655 46.998 83.228 47.256 82.801 47.514 82.312 47.643 81.762 47.643zM86.69 46.817L87.877 46.817C88.289 46.817 88.643 46.727 88.939 46.546 89.234 46.365 89.46 46.112 89.618 45.785 89.776 45.458 89.855 45.071 89.855 44.624 89.855 44.177 89.776 43.79 89.618 43.463 89.46 43.136 89.234 42.883 88.939 42.702 88.643 42.521 88.289 42.431 87.877 42.431L86.69 42.431 86.69 46.817zM85.821 47.548L85.821 41.7 87.877 41.7C88.45 41.7 88.951 41.821 89.381 42.065 89.812 42.309 90.146 42.65 90.383 43.089 90.621 43.528 90.74 44.039 90.74 44.624 90.74 45.209 90.621 45.72 90.383 46.159 90.146 46.598 89.812 46.939 89.381 47.182 88.951 47.426 88.45 47.548 87.877 47.548L85.821 47.548zM92.959 45.346L95.092 45.346 94.026 42.603 92.959 45.346zM95.944 47.548L95.376 46.077 92.676 46.077 92.108 47.548 91.231 47.548 93.57 41.7 94.507 41.7 96.838 47.548 95.944 47.548z"/>
    <polyline fill="#404040" points="99.504 45.226 99.504 47.548 98.636 47.548 98.636 45.226 96.58 41.7 97.604 41.7 99.075 44.4 100.545 41.7 101.551 41.7 99.504 45.226"/>
    <polyline fill="#404040" points="108.5 47.548 105.378 43.067 105.378 47.548 104.561 47.548 104.561 41.7 105.37 41.7 108.5 46.18 108.5 41.7 109.309 41.7 109.309 47.548 108.5 47.548"/>
    <polyline fill="#404040" points="110.84 47.548 110.84 41.7 114.589 41.7 114.589 42.431 111.708 42.431 111.708 44.237 114.245 44.237 114.245 44.968 111.708 44.968 111.708 46.817 114.658 46.817 114.658 47.548 110.84 47.548"/>
    <polyline fill="#404040" points="117.238 47.548 117.238 42.431 115.269 42.431 115.269 41.7 120.076 41.7 120.076 42.431 118.107 42.431 118.107 47.548 117.238 47.548"/>
    <polyline fill="#404040" points="125.753 47.548 124.385 42.886 123.018 47.548 122.115 47.548 120.558 41.7 121.418 41.7 122.605 46.327 123.972 41.7 124.798 41.7 126.174 46.344 127.37 41.7 128.212 41.7 126.656 47.548 125.753 47.548"/>
    <path fill="#404040" d="M131.661 46.886C132.04 46.886 132.376 46.79 132.672 46.598 132.967 46.405 133.198 46.14 133.364 45.802 133.53 45.464 133.614 45.071 133.614 44.624 133.614 44.177 133.53 43.784 133.364 43.445 133.198 43.108 132.967 42.842 132.672 42.65 132.376 42.458 132.04 42.362 131.661 42.362 131.283 42.362 130.947 42.458 130.655 42.65 130.363 42.842 130.133 43.108 129.967 43.445 129.801 43.784 129.717 44.177 129.717 44.624 129.717 45.071 129.801 45.464 129.967 45.802 130.133 46.14 130.363 46.405 130.655 46.598 130.947 46.79 131.283 46.886 131.661 46.886zM131.661 47.643C131.111 47.643 130.623 47.514 130.199 47.256 129.775 46.998 129.441 46.642 129.197 46.189 128.953 45.736 128.832 45.215 128.832 44.624 128.832 44.033 128.953 43.511 129.197 43.059 129.441 42.606 129.775 42.25 130.199 41.992 130.623 41.734 131.111 41.605 131.661 41.605 132.211 41.605 132.7 41.734 133.128 41.992 133.555 42.25 133.89 42.606 134.134 43.059 134.378 43.511 134.499 44.033 134.499 44.624 134.499 45.215 134.378 45.736 134.134 46.189 133.89 46.642 133.555 46.998 133.128 47.256 132.7 47.514 132.211 47.643 131.661 47.643zM136.589 44.461L137.785 44.461C138.157 44.461 138.454 44.369 138.675 44.185 138.896 44.002 139.006 43.755 139.006 43.445 139.006 43.136 138.896 42.889 138.675 42.706 138.454 42.523 138.157 42.431 137.785 42.431L136.589 42.431 136.589 44.461zM136.589 45.174L136.589 47.548 135.721 47.548 135.721 41.7 137.785 41.7C138.432 41.7 138.946 41.856 139.324 42.169 139.703 42.481 139.892 42.907 139.892 43.445 139.892 43.853 139.777 44.197 139.548 44.478 139.318 44.758 139.003 44.956 138.602 45.071L140.021 47.548 139.032 47.548 137.699 45.174 136.589 45.174z"/>
    <polyline fill="#404040" points="144.614 47.548 141.99 44.598 141.99 47.548 141.122 47.548 141.122 41.7 141.99 41.7 141.99 44.263 144.441 41.7 145.517 41.7 142.911 44.383 145.706 47.548 144.614 47.548"/>
    <path fill="#009BFF" class='no-color-change' d="M148.351,10.278 C147.061,10.278 145.958,9.82 145.043,8.906 C144.128,7.99 143.671,6.888 143.671,5.598 C143.671,4.308 144.128,3.206 145.043,2.29 C145.958,1.376 147.061,0.918 148.351,0.918 C149.64,0.918 150.743,1.376 151.658,2.29 C152.573,3.206 153.031,4.308 153.031,5.598 C153.031,6.888 152.573,7.99 151.658,8.906 C150.743,9.82 149.64,10.278 148.351,10.278"/>
  </g>
</svg>
