<?xml version="1.0" encoding="UTF-8" standalone="no"?>
<svg width="632px" height="117px" viewBox="0 0 632 117" version="1.1" xmlns="http://www.w3.org/2000/svg" xmlns:xlink="http://www.w3.org/1999/xlink">
    <!-- Generator: Sketch 3.6.1 (26313) - http://www.bohemiancoding.com/sketch -->
    <title>IowaCity_PressCitizen</title>
    <desc>Created with Sketch.</desc>
    <defs></defs>
    <g id="Page-1" stroke="none" stroke-width="1" fill="none" fill-rule="evenodd">
        <g id="IowaCity_PressCitizen">
            <text id="PART-OF-THE-USA-TODA" font-family="Futura-Medium, Futura" font-size="20.5" font-weight="400" fill="#000000">
                <tspan x="258.245361" y="115.238867">PART OF THE USA TODAY NETWORK</tspan>
            </text>
            <path d="M257.188,48.003 L285.699,48.003 L285.699,61.61 L257.115,61.61 L257.115,48.219 C257.109,48.116 257.104,48.015 257.188,48.003" id="Fill-1" fill="#1A1918"></path>
            <path d="M474.124,27.555 L517.683,27.555 C517.546,28.383 517.863,29.571 517.683,30.507 C517.533,31.287 516.556,32.607 516.027,33.531 C507.507,48.374 498.987,63.122 490.539,77.955 C497.337,78.231 503.529,77.961 507.315,75.148 C511.132,72.31 513.376,68.079 514.804,62.907 L518.115,62.907 C517.527,69.231 516.874,75.488 516.243,81.771 L471.243,81.771 C471.382,80.942 471.063,79.755 471.243,78.819 C471.405,78.003 472.431,76.731 472.972,75.795 C481.6,60.892 490.12,46.19 498.675,31.299 C492.64,31.485 486.837,31.143 482.907,33.243 C479.001,35.331 477.495,39.435 476.283,44.259 L473.187,44.259 C473.529,38.817 473.703,33.207 474.052,27.771 C474.046,27.669 474.039,27.567 474.124,27.555" id="Fill-2" fill="#1A1918"></path>
            <path d="M440.355,27.555 L462.892,27.555 L462.892,70.971 C462.892,73.149 462.915,74.979 463.683,76.37 C464.487,77.829 466.263,78.795 468.363,78.892 L468.363,81.771 L440.283,81.771 L440.283,78.892 C442.281,78.495 444.909,77.864 445.827,76.083 C446.961,73.88 446.548,69.142 446.548,65.715 L446.548,43.538 C446.548,39.297 447.081,34.011 445.035,32.091 C443.931,31.053 441.945,30.723 440.283,30.363 L440.283,27.771 C440.277,27.669 440.271,27.567 440.355,27.555" id="Fill-3" fill="#1A1918"></path>
            <path d="M373.251,27.555 L395.715,27.555 L395.715,64.923 C395.715,68.817 395.109,73.886 396.579,76.442 C397.39,77.853 399.201,78.808 401.259,78.892 L401.259,81.771 L373.179,81.771 L373.179,78.892 C375.207,78.411 377.596,77.942 378.579,76.299 C379.743,74.343 379.372,69.488 379.372,66.003 L379.372,43.827 C379.372,39.153 380.073,33.435 377.355,31.659 C376.263,30.945 374.438,30.663 373.179,30.363 L373.179,27.771 C373.173,27.669 373.167,27.567 373.251,27.555" id="Fill-4" fill="#1A1918"></path>
            <path d="M631.804,78.892 L631.804,81.771 L604.228,81.771 L604.228,78.892 C610.995,78.944 609.699,71.145 609.699,64.274 L609.699,45.698 C609.699,40.713 609.657,36.249 606.243,34.611 C602.253,32.697 597.903,35.727 595.659,37.851 C594.951,38.523 593.685,39.843 593.499,40.659 C593.241,41.817 593.499,43.719 593.499,45.194 L593.499,67.659 C593.499,70.622 593.247,74.169 594.147,76.011 C595.018,77.786 596.841,78.675 599.259,78.892 L599.259,81.771 L570.892,81.771 L570.892,78.892 C573.058,78.591 575.523,77.997 576.435,76.227 C577.581,74.013 577.155,69.255 577.155,65.786 L577.155,43.467 C577.155,39.909 577.558,35.211 576.435,33.027 C575.499,31.209 573.183,30.693 570.892,30.363 L570.892,27.555 L593.355,27.555 L593.355,35.979 C593.835,36.033 593.913,35.439 594.075,35.187 C596.337,31.683 599.709,28.683 604.083,27.195 C605.806,26.607 607.63,26.199 609.844,26.115 C615.188,25.917 619.449,27.981 622.011,30.795 C624.85,33.909 626.044,37.929 626.044,43.538 L626.044,68.738 C626.044,71.325 625.773,74.644 626.69,76.442 C627.507,78.032 629.277,78.808 631.804,78.892" id="Fill-5" fill="#1A1918"></path>
            <path d="M245.955,26.403 L248.547,26.403 L248.547,43.396 L245.523,43.396 C243.927,38.283 241.557,33.933 236.812,31.443 C234.525,30.243 231.069,29.499 228.315,30.435 C225.538,31.377 223.131,33.723 223.491,37.563 C223.593,38.649 224.043,39.639 224.5,40.371 C226.131,42.981 229.215,44.553 232.203,45.986 C240.969,50.192 251.961,53.427 250.923,67.083 C250.312,75.081 245.914,80.241 239.547,82.347 C233.895,84.219 227.463,83.036 222.412,81.483 C221.739,81.273 220.857,80.901 219.963,80.618 C219.093,80.343 218.079,79.899 217.299,79.971 C215.583,80.132 215.271,82.149 214.347,83.282 L211.467,83.282 L211.467,63.843 L214.779,63.843 C216.057,69.771 218.577,74.547 223.131,77.234 C225.447,78.597 228.405,79.558 231.843,79.395 C235.215,79.233 237.483,77.757 238.755,75.435 C239.643,73.81 240.04,71.169 239.188,69.243 C237.951,66.441 234.963,64.833 231.843,63.267 C228.819,61.749 225.562,60.31 222.916,58.874 C217.401,55.894 211.731,51.771 211.683,43.467 C211.635,35.313 216.327,30.009 222.267,27.627 C224.374,26.781 226.827,26.259 229.827,26.115 C232.281,26.001 235.191,26.607 237.459,27.267 C240.195,28.065 245.109,30.321 245.955,26.403" id="Fill-7" fill="#1A1918"></path>
            <path d="M202.611,26.403 L205.131,26.403 L205.131,43.396 L202.179,43.396 C200.577,38.469 198.387,34.545 194.476,32.019 C192.495,30.741 189.675,29.829 186.987,30.075 C184.299,30.321 182.157,31.509 180.939,33.531 C179.799,35.427 180.021,38.631 181.083,40.371 C182.637,42.915 185.938,44.644 188.788,45.986 C197.523,50.108 208.563,53.415 207.507,67.011 C206.871,75.219 202.647,80.062 196.131,82.274 C192.753,83.421 188.193,83.612 184.395,82.851 C181.779,82.329 179.199,81.536 176.619,80.691 C175.689,80.384 174.681,79.899 173.812,80.043 C172.143,80.319 171.855,82.047 171.003,83.282 L168.124,83.282 L168.124,63.843 L171.363,63.843 C172.953,70.564 175.731,75.753 181.587,78.171 C184.329,79.306 188.865,79.929 191.883,78.603 C195.081,77.198 197.812,72.357 195.412,68.523 C192.987,64.648 186.885,62.547 182.019,60.099 C177.297,57.723 172.569,55.071 169.995,50.308 C167.043,44.853 168.501,37.299 171.435,33.243 C173.001,31.083 175.102,29.438 177.412,28.275 C181.779,26.073 188.188,25.551 193.899,27.195 C195.813,27.747 198.657,29.277 200.739,28.562 C201.741,28.221 202.053,27.411 202.611,26.403" id="Fill-9" fill="#1A1918"></path>
            <path d="M102.243,78.892 L102.243,81.771 L70.995,81.771 L70.995,78.892 C73.767,78.591 76.228,77.636 76.971,75.075 C77.775,72.303 77.331,67.988 77.331,64.491 L77.331,42.747 C77.331,39.135 77.602,34.761 76.395,32.811 C75.405,31.209 73.203,30.633 70.995,30.363 L70.995,27.555 L93.171,27.555 L93.171,36.843 C93.645,36.819 93.747,36.285 93.963,35.979 C95.451,33.873 97.281,31.713 99.292,30.003 C101.595,28.041 104.739,26.175 108.579,26.115 C114.267,26.025 118.203,29.361 118.587,34.683 C118.995,40.353 114.621,44.499 108.867,42.892 C106.383,42.195 105.327,40.557 103.827,38.499 C103.203,37.641 102.243,36.417 101.019,36.267 C99.369,36.063 97.893,37.251 96.916,38.211 C95.788,39.321 95.127,40.449 94.611,41.883 C93.525,44.913 93.675,49.118 93.675,52.971 L93.675,64.995 C93.675,68.817 93.339,73.671 94.683,76.011 C95.961,78.231 98.721,78.801 102.243,78.892" id="Fill-10" fill="#1A1918"></path>
            <path d="M423.507,7.683 L426.388,7.683 L426.388,27.483 C429.938,27.651 433.804,27.507 437.476,27.555 L437.476,32.739 L426.388,32.739 L426.388,63.339 C426.388,66.729 426.052,70.628 427.179,72.698 C428.104,74.403 430.348,75.345 432.651,74.499 C435.207,73.558 436.461,70.851 437.69,68.667 C438.663,69.11 439.647,69.543 440.644,69.963 C438.171,75.231 435.058,80.043 429.268,82.13 C426.22,83.229 422.128,83.475 418.899,82.707 C415.857,81.981 413.445,80.247 411.987,77.882 C410.415,75.333 410.044,72.058 410.044,68.019 L410.044,32.811 C408.147,32.643 405.938,32.787 403.923,32.739 C404.128,31.953 403.659,30.681 403.923,29.715 C404.085,29.127 406.077,27.651 406.587,27.195 C409.329,24.747 412.041,22.143 414.363,19.491 C417.64,15.759 420.573,11.679 423.507,7.683" id="Fill-11" fill="#1A1918"></path>
            <path d="M453.892,0.555 C456.796,0.314 459.1,1.413 460.659,2.787 C462.394,4.317 463.953,6.867 463.683,10.563 C463.359,15.039 459.909,18.327 455.69,18.699 C449.787,19.221 445.348,15.333 445.468,9.483 C445.503,7.893 445.953,6.201 446.69,4.947 C447.808,3.045 450.382,0.843 453.892,0.555" id="Fill-19" fill="#1A1918"></path>
            <path d="M386.715,0.555 C389.169,0.351 391.485,1.149 392.907,2.211 C394.821,3.639 396.544,6.087 396.579,9.555 C396.628,14.631 393.075,18.327 388.515,18.699 C381.993,19.233 377.919,14.493 378.363,8.691 C378.537,6.459 379.497,4.971 380.308,3.939 C381.681,2.187 383.715,0.801 386.715,0.555" id="Fill-20" fill="#1A1918"></path>
            <path d="M364.179,0.843 L367.419,0.843 L367.419,28.347 L364.539,28.347 C361.743,22.185 358.546,16.809 354.027,12.291 C349.827,8.091 343.876,3.807 335.523,4.443 C327.382,5.061 322.894,9.507 319.972,15.459 C317.013,21.483 315.759,28.971 315.363,37.347 C314.943,46.221 315.615,54.776 317.596,61.538 C319.611,68.421 323.409,73.497 329.403,76.227 C332.644,77.702 336.447,78.573 340.563,78.243 C352.605,77.282 359.571,70.642 365.979,63.915 C367.222,64.81 368.319,65.847 369.507,66.795 C361.102,76.221 351.52,85.245 332.931,83.858 C317.013,82.671 305.715,75.194 299.451,63.482 C296.265,57.524 294.166,50.03 294.483,41.523 C295.102,24.951 302.643,13.299 313.491,6.675 C317.757,4.071 322.335,2.163 328.179,1.131 C330.105,0.789 332.35,0.585 334.515,0.483 C341.715,0.141 347.583,2.307 352.876,4.371 C354.585,5.037 356.565,6.045 358.348,6.243 C362.157,6.669 363.063,3.453 364.179,0.843" id="Fill-21" fill="#1A1918"></path>
            <path d="M142.275,29.787 C134.721,30.345 134.938,40.773 134.571,48.579 L150.339,48.579 C149.871,40.569 151.143,29.133 142.275,29.787 L142.275,29.787 Z M164.812,52.971 L135.219,52.971 C135.562,61.952 137.301,69.963 143.283,73.419 C146.559,75.31 151.449,75.278 154.875,73.707 C158.151,72.207 160.407,69.556 162.579,67.083 C163.563,67.564 164.421,68.169 165.387,68.667 C160.347,75.993 155.385,82.431 144.363,83.282 C133.089,84.153 125.553,78.477 121.611,70.61 C117.669,62.745 117.075,49.767 120.819,40.947 C123.417,34.833 127.869,30.009 134.211,27.627 C136.474,26.775 138.933,26.253 141.843,26.115 C149.943,25.731 155.751,29.205 159.124,33.747 C162.735,38.613 164.361,45.148 164.812,52.971 L164.812,52.971 Z" id="Fill-22" fill="#1A1918"></path>
            <path d="M43.491,39.075 C46.947,36.471 48.129,32.169 48.387,26.403 C48.639,20.715 48.117,15.177 45.94,11.499 C43.803,7.893 39.489,5.919 33.483,6.387 C31.755,6.519 29.967,7.221 29.307,8.619 C28.455,10.419 28.876,13.977 28.876,16.611 C28.876,25.113 28.815,34.371 28.947,42.027 C35.145,42.069 40.168,41.577 43.491,39.075 L43.491,39.075 Z M0.075,2.283 L38.164,2.283 C50.391,2.283 60.771,5.241 65.668,12.867 C68.217,16.839 69.405,22.911 68.187,28.419 C67.095,33.375 64.173,37.359 60.699,39.939 C57.093,42.615 52.503,44.511 47.091,45.339 C41.613,46.173 35.307,45.999 28.876,46.13 C29.139,53.024 28.527,61.251 28.876,68.595 C28.995,71.073 29.085,73.395 29.883,75.075 C31.335,78.122 35.314,78.207 39.243,78.819 L39.243,81.771 L0.003,81.771 L0.003,78.819 C1.593,78.417 3.819,78.333 5.547,77.812 C10.491,76.312 9.867,68.829 9.867,62.114 L9.867,22.083 C9.867,15.171 10.425,8.151 5.763,6.243 C4.173,5.595 2.007,5.343 0.003,5.235 L0.003,2.499 C-0.003,2.397 -0.009,2.295 0.075,2.283 L0.075,2.283 Z" id="Fill-23" fill="#1A1918"></path>
            <path d="M550.443,31.299 C549.333,30.261 547.636,29.625 545.548,29.787 C543.399,29.955 541.81,31.029 540.796,32.451 C538.173,36.117 538.083,42.573 537.844,48.579 L553.611,48.579 C553.312,42.201 553.894,34.521 550.443,31.299 L550.443,31.299 Z M568.083,52.971 L538.491,52.971 C538.953,62.138 540.573,69.981 546.628,73.419 C549.915,75.284 554.77,75.297 558.22,73.707 C561.453,72.219 563.739,69.567 565.852,67.083 C566.859,67.538 567.711,68.151 568.659,68.667 C563.661,75.999 558.669,82.479 547.636,83.282 C536.415,84.099 528.783,78.495 524.884,70.61 C522.915,66.626 521.602,61.665 521.571,56.138 C521.541,50.343 522.255,45.38 524.163,40.947 C526.815,34.773 531.124,29.991 537.556,27.627 C539.841,26.787 542.229,26.253 545.187,26.115 C553.39,25.725 558.951,29.247 562.396,33.819 C566.02,38.625 567.711,45.104 568.083,52.971 L568.083,52.971 Z" id="Fill-28" fill="#1A1918"></path>
            <path d="M82.8239321,22.2375 L82.1996689,22.2375 C81.6739735,22.2375 81.246846,22.13625 80.9511424,21.9675 C80.6554387,21.765 80.425447,21.5625 80.3268791,21.32625 C80.2283113,21.09 80.1625993,20.4825 80.1625993,19.47 L80.1625993,6.74625 C80.1625993,5.80125 80.2283113,5.19375 80.3268791,4.9575 C80.458303,4.62 80.6554387,4.4175 80.8854305,4.2825 C81.2139901,4.08 81.6411175,3.97875 82.1996689,3.97875 L82.8239321,3.97875 L82.8239321,3.43875 L73,3.43875 L73,3.97875 L73.6242632,3.97875 C74.1499586,3.97875 74.5770861,4.08 74.8727897,4.24875 C75.1684934,4.4175 75.3984851,4.65375 75.497053,4.89 C75.5956209,5.12625 75.6613328,5.7675 75.6613328,6.74625 L75.6613328,19.43625 C75.6613328,20.415 75.5956209,20.98875 75.497053,21.225 C75.3656291,21.5625 75.1684934,21.765 74.9385017,21.9 C74.6099421,22.1025 74.1499586,22.20375 73.6242632,22.20375 L73,22.20375 L73,22.74375 L82.8239321,22.74375 L82.8239321,22.2375 L82.8239321,22.2375 Z" id="Shape" fill="#000000"></path>
            <path d="M94.6520778,23.1825 C98.0362417,23.1825 100.631863,21.93375 102.471796,19.47 C103.884603,17.61375 104.574578,15.45375 104.574578,13.02375 C104.574578,10.155 103.621755,7.75875 101.781821,5.86875 C99.9090315,3.945 97.4776904,3.0675 94.487798,3.16875 C91.7278974,3.0675 89.3622682,3.945 87.4894785,5.86875 C85.5838328,7.7925 84.6310099,10.155 84.6310099,13.02375 C84.6310099,15.58875 85.3538411,17.7825 86.8323593,19.63875 C88.6394371,22.035 91.2679139,23.1825 94.6520778,23.1825 L94.6520778,23.1825 Z M90.7093626,6.78 C91.5964735,4.99125 92.9107119,4.08 94.6192219,4.08 C95.5391887,4.08 96.3934437,4.35 97.0834189,4.85625 C97.80625,5.3625 98.3976573,6.27375 98.8576407,7.55625 C99.3176242,8.83875 99.5476159,10.72875 99.5476159,13.29375 C99.5476159,15.45375 99.3176242,17.175 98.8576407,18.525 C98.3976573,19.875 97.773394,20.85375 96.951995,21.46125 C96.3277318,21.93375 95.5063328,22.17 94.5535099,22.17 C93.1407036,22.17 92.056457,21.63 91.2679139,20.51625 C90.1508113,18.96375 89.5922599,16.5 89.5922599,13.22625 C89.5922599,10.39125 89.9536755,8.265 90.7093626,6.78 L90.7093626,6.78 Z" id="Shape" fill="#000000"></path>
            <path d="M106.743071,7.42125 L112.919992,23.1825 L113.445687,23.1825 L118.571217,10.7625 L123.236763,23.21625 L123.762459,23.21625 L129.643675,7.28625 C130.169371,5.93625 130.465075,5.19375 130.530786,5.0925 C130.727922,4.72125 130.925058,4.485 131.15505,4.31625 C131.385041,4.1475 131.680745,4.04625 132.042161,4.0125 L132.042161,3.43875 L127.146623,3.43875 L127.146623,3.97875 C127.869454,4.0125 128.362293,4.11375 128.625141,4.35 C128.887988,4.58625 129.019412,4.89 129.019412,5.26125 C129.019412,5.53125 128.986556,5.80125 128.920844,6.13875 C128.855132,6.4425 128.657997,7.01625 128.329437,7.89375 L125.273833,16.1625 L121.856813,7.01625 C121.429685,5.9025 121.23255,5.2275 121.23255,5.025 C121.23255,4.8225 121.298262,4.65375 121.396829,4.485 C121.495397,4.31625 121.659677,4.215 121.856813,4.1475 C122.152517,4.04625 122.579644,4.0125 123.236763,3.97875 L123.236763,3.43875 L114.135662,3.43875 L114.135662,3.97875 C114.72707,3.97875 115.154197,4.04625 115.449901,4.215 C115.745604,4.38375 116.008452,4.65375 116.238444,5.025 C116.468435,5.39625 116.796995,6.13875 117.224123,7.28625 L118.012666,9.31125 L115.055629,16.635 L111.375762,7.2525 C110.915778,6.07125 110.685786,5.32875 110.685786,4.9575 C110.685786,4.6875 110.784354,4.45125 111.014346,4.24875 C111.244338,4.08 111.671465,3.97875 112.328584,3.945 L112.328584,3.43875 L104.180306,3.43875 L104.180306,3.97875 C104.771714,4.04625 105.198841,4.24875 105.428833,4.5525 C105.69168,4.89 106.118808,5.835 106.743071,7.42125 L106.743071,7.42125 Z" id="Shape" fill="#000000"></path>
            <path d="M128.822276,22.2375 L128.822276,22.7775 L135.064909,22.7775 L135.064909,22.2375 C134.07923,22.17 133.487823,22.035 133.224975,21.9 C132.797848,21.63 132.600712,21.25875 132.600712,20.685 C132.600712,20.28 132.732136,19.77375 132.994983,19.1325 L133.783526,17.2425 L140.42043,17.2425 L141.406109,19.63875 C141.668957,20.24625 141.800381,20.6175 141.833237,20.71875 C141.898949,20.8875 141.898949,21.05625 141.898949,21.25875 C141.898949,21.52875 141.800381,21.765 141.603245,21.9 C141.307541,22.1025 140.781846,22.20375 140.059015,22.20375 L139.697599,22.20375 L139.697599,22.74375 L148.7987,22.74375 L148.7987,22.20375 C148.240149,22.17 147.780166,22.00125 147.484462,21.6975 C147.057334,21.2925 146.531639,20.3475 145.87452,18.8625 L139.073336,3.03375 L138.810488,3.03375 L132.075017,18.4575 C131.450753,19.9425 130.892202,20.8875 130.465075,21.36 C130.037947,21.8325 129.512252,22.13625 128.822276,22.2375 L128.822276,22.2375 Z M137.134834,9.5475 L139.927591,16.19625 L134.24351,16.19625 L137.134834,9.5475 L137.134834,9.5475 Z" id="Shape" fill="#000000"></path>
            <path d="M169.760803,18.3225 C168.676556,19.605 167.625166,20.55 166.639487,21.05625 C165.653808,21.59625 164.569561,21.8325 163.386747,21.8325 C161.941084,21.8325 160.791126,21.46125 159.871159,20.7525 C158.951192,20.04375 158.294073,18.96375 157.866945,17.5125 C157.439818,16.095 157.242682,14.5425 157.242682,12.7875 C157.242682,11.0325 157.538386,9.44625 158.129793,7.995 C158.589776,6.88125 159.312608,5.97 160.26543,5.295 C161.251109,4.62 162.335356,4.24875 163.485315,4.24875 C164.898121,4.24875 166.146647,4.72125 167.26375,5.6325 C168.380853,6.5775 169.13654,7.89375 169.530811,9.64875 L170.089363,9.64875 L170.089363,3 L169.530811,3 C169.465099,3.4725 169.333675,3.84375 169.103684,4.04625 C168.873692,4.2825 168.6437,4.38375 168.347997,4.38375 C168.118005,4.38375 167.559454,4.215 166.738055,3.8775 C165.259536,3.27 163.879586,3 162.565348,3 C160.75827,3 159.082616,3.43875 157.472674,4.35 C155.895588,5.26125 154.614205,6.54375 153.661382,8.1975 C152.70856,9.85125 152.248576,11.60625 152.248576,13.42875 C152.248576,15.18375 152.675704,16.80375 153.497103,18.35625 C154.351358,19.90875 155.534172,21.09 157.111258,21.9 C158.655488,22.74375 160.462566,23.14875 162.46678,23.14875 C163.978154,23.14875 165.325248,22.87875 166.475207,22.3725 C167.625166,21.86625 168.709412,21.0225 169.760803,19.90875 L169.760803,18.3225 L169.760803,18.3225 Z" id="Shape" fill="#000000"></path>
            <path d="M182.016076,22.2375 L181.391813,22.2375 C180.866118,22.2375 180.43899,22.13625 180.143286,21.9675 C179.814727,21.765 179.617591,21.5625 179.519023,21.32625 C179.420455,21.09 179.354743,20.4825 179.354743,19.47 L179.354743,6.74625 C179.354743,5.80125 179.420455,5.19375 179.519023,4.9575 C179.650447,4.62 179.847583,4.4175 180.077575,4.2825 C180.406134,4.08 180.866118,3.97875 181.391813,3.97875 L182.016076,3.97875 L182.016076,3.43875 L172.192144,3.43875 L172.192144,3.97875 L172.816407,3.97875 C173.342103,3.97875 173.76923,4.08 174.064934,4.24875 C174.360637,4.4175 174.590629,4.65375 174.689197,4.89 C174.787765,5.12625 174.853477,5.7675 174.853477,6.74625 L174.853477,19.43625 C174.853477,20.415 174.820621,20.98875 174.689197,21.225 C174.557773,21.5625 174.360637,21.765 174.130646,21.9 C173.802086,22.1025 173.374959,22.20375 172.816407,22.20375 L172.192144,22.20375 L172.192144,22.74375 L182.016076,22.74375 L182.016076,22.2375 L182.016076,22.2375 Z" id="Shape" fill="#000000"></path>
            <path d="M185.498808,5.39625 C186.057359,4.85625 186.977326,4.5525 188.258709,4.5525 L189.605803,4.5525 L189.605803,19.47 C189.605803,20.44875 189.540091,21.0225 189.441523,21.25875 C189.310099,21.59625 189.112964,21.79875 188.882972,21.93375 C188.554412,22.13625 188.094429,22.2375 187.568733,22.2375 L186.94447,22.2375 L186.94447,22.7775 L196.768402,22.7775 L196.768402,22.2375 L196.144139,22.2375 C195.618444,22.2375 195.191316,22.13625 194.862757,21.9675 C194.567053,21.765 194.337061,21.5625 194.238493,21.32625 C194.139925,21.09 194.074214,20.4825 194.074214,19.47 L194.074214,4.5525 L195.454164,4.5525 C196.341275,4.5525 196.965538,4.62 197.294098,4.8225 C197.918361,5.12625 198.4112,5.565 198.772616,6.105 C199.134031,6.645 199.462591,7.48875 199.758295,8.70375 L200.251134,8.70375 L200.251134,3.43875 L183.363171,3.43875 L183.363171,8.67 L183.888866,8.67 C184.18457,7.2525 184.710265,6.13875 185.498808,5.39625 L185.498808,5.39625 Z" id="Shape" fill="#000000"></path>
            <path d="M209.187955,21.25875 C209.056531,21.59625 208.859396,21.79875 208.629404,21.93375 C208.300844,22.13625 207.873717,22.2375 207.315166,22.2375 L206.329487,22.2375 L206.329487,22.7775 L216.87625,22.7775 L216.87625,22.2375 L215.824859,22.2375 C215.33202,22.2375 214.937748,22.13625 214.609189,21.9675 C214.313485,21.765 214.116349,21.5625 214.017781,21.32625 C213.919214,21.09 213.853502,20.44875 213.853502,19.47 L213.853502,14.77875 L217.927641,7.7925 C218.91332,6.0375 219.669007,4.92375 220.12899,4.51875 C220.45755,4.215 220.950389,4.04625 221.541796,3.97875 L221.541796,3.43875 L215.824859,3.43875 L215.824859,3.97875 C216.679114,4.0125 217.237666,4.18125 217.566225,4.4175 C217.796217,4.58625 217.927641,4.8225 217.927641,5.05875 C217.927641,5.53125 217.500513,6.47625 216.679114,7.89375 L213.29495,13.69875 L209.910786,7.32 C209.155099,5.93625 208.793684,5.0925 208.793684,4.755 C208.793684,4.5525 208.892252,4.4175 209.122243,4.24875 C209.352235,4.08 209.713651,4.0125 210.272202,4.0125 L210.666474,4.0125 L210.666474,3.43875 L201.66394,3.43875 L201.66394,3.97875 C202.255348,3.97875 202.748187,4.1475 203.109603,4.4175 C203.471018,4.72125 204.095281,5.66625 204.982392,7.28625 L209.417947,15.555 L209.417947,19.43625 C209.319379,20.415 209.286523,21.0225 209.187955,21.25875 L209.187955,21.25875 Z" id="Shape" fill="#000000"></path>
        </g>
    </g>
</svg>