<?xml version="1.0" encoding="utf-8"?>
<!-- Generator: Adobe Illustrator 20.0.0, SVG Export Plug-In . SVG Version: 6.00 Build 0)  -->
<svg version="1.1" id="Layer_1" xmlns="http://www.w3.org/2000/svg" xmlns:xlink="http://www.w3.org/1999/xlink" x="0px" y="0px"
	 viewBox="0 0 637.8 125" style="enable-background:new 0 0 637.8 125;" xml:space="preserve">
<style type="text/css">
	.st0{fill:#1A1918;}
</style>
<g id="IowaCity_PressCitizen">
	<path id="Fill-1" class="st0" d="M257.2,48h28.5v13.6h-28.6V48.2C257.1,48.1,257.1,48,257.2,48"/>
	<path id="Fill-2" class="st0" d="M474.1,27.6h43.6c-0.1,0.8,0.2,2,0,3c-0.1,0.8-1.1,2.1-1.7,3c-8.5,14.8-17,29.6-25.5,44.4
		c6.8,0.3,13,0,16.8-2.8c3.8-2.8,6.1-7.1,7.5-12.2h3.3c-0.6,6.3-1.2,12.6-1.9,18.9h-45c0.1-0.8-0.2-2,0-3c0.2-0.8,1.2-2.1,1.7-3
		c8.6-14.9,17.1-29.6,25.7-44.5c-6,0.2-11.8-0.2-15.8,1.9c-3.9,2.1-5.4,6.2-6.6,11h-3.1c0.3-5.4,0.5-11.1,0.9-16.5
		C474,27.7,474,27.6,474.1,27.6"/>
	<path id="Fill-3" class="st0" d="M440.4,27.6h22.5V71c0,2.2,0,4,0.8,5.4c0.8,1.5,2.6,2.4,4.7,2.5v2.9h-28.1v-2.9
		c2-0.4,4.6-1,5.5-2.8c1.1-2.2,0.7-6.9,0.7-10.4V43.5c0-4.2,0.5-9.5-1.5-11.4c-1.1-1-3.1-1.4-4.8-1.7v-2.6
		C440.3,27.7,440.3,27.6,440.4,27.6"/>
	<path id="Fill-4" class="st0" d="M373.3,27.6h22.5v37.4c0,3.9-0.6,9,0.9,11.5c0.8,1.4,2.6,2.4,4.7,2.4v2.9h-28.1v-2.9
		c2-0.5,4.4-0.9,5.4-2.6c1.2-2,0.8-6.8,0.8-10.3V43.8c0-4.7,0.7-10.4-2-12.2c-1.1-0.7-2.9-1-4.2-1.3v-2.6
		C373.2,27.7,373.2,27.6,373.3,27.6"/>
	<path id="Fill-5" class="st0" d="M631.8,78.9v2.9h-27.6v-2.9c6.8,0.1,5.5-7.7,5.5-14.6V45.7c0-5,0-9.4-3.5-11.1
		c-4-1.9-8.3,1.1-10.6,3.2c-0.7,0.7-2,2-2.2,2.8c-0.3,1.2,0,3.1,0,4.5v22.5c0,3-0.3,6.5,0.6,8.4c0.9,1.8,2.7,2.7,5.1,2.9v2.9h-28.4
		v-2.9c2.2-0.3,4.6-0.9,5.5-2.7c1.1-2.2,0.7-7,0.7-10.4V43.5c0-3.6,0.4-8.3-0.7-10.4c-0.9-1.8-3.3-2.3-5.5-2.7v-2.8h22.5V36
		c0.5,0.1,0.6-0.5,0.7-0.8c2.3-3.5,5.6-6.5,10-8c1.7-0.6,3.5-1,5.8-1.1c5.3-0.2,9.6,1.9,12.2,4.7c2.8,3.1,4,7.1,4,12.7v25.2
		c0,2.6-0.3,5.9,0.6,7.7C627.5,78,629.3,78.8,631.8,78.9"/>
	<path id="Fill-7" class="st0" d="M246,26.4h2.6v17h-3c-1.6-5.1-4-9.5-8.7-12c-2.3-1.2-5.7-1.9-8.5-1c-2.8,0.9-5.2,3.3-4.8,7.1
		c0.1,1.1,0.6,2.1,1,2.8c1.6,2.6,4.7,4.2,7.7,5.6c8.8,4.2,19.8,7.4,18.7,21.1c-0.6,8-5,13.2-11.4,15.3c-5.7,1.9-12.1,0.7-17.1-0.9
		c-0.7-0.2-1.6-0.6-2.4-0.9c-0.9-0.3-1.9-0.7-2.7-0.6c-1.7,0.2-2,2.2-3,3.3h-2.9V63.8h3.3c1.3,5.9,3.8,10.7,8.4,13.4
		c2.3,1.4,5.3,2.3,8.7,2.2c3.4-0.2,5.6-1.6,6.9-4c0.9-1.6,1.3-4.3,0.4-6.2c-1.2-2.8-4.2-4.4-7.3-6c-3-1.5-6.3-3-8.9-4.4
		c-5.5-3-11.2-7.1-11.2-15.4c0-8.2,4.6-13.5,10.6-15.8c2.1-0.8,4.6-1.4,7.6-1.5c2.5-0.1,5.4,0.5,7.6,1.2
		C240.2,28.1,245.1,30.3,246,26.4"/>
	<path id="Fill-9" class="st0" d="M202.6,26.4h2.5v17h-3c-1.6-4.9-3.8-8.9-7.7-11.4c-2-1.3-4.8-2.2-7.5-1.9c-2.7,0.2-4.8,1.4-6,3.5
		c-1.1,1.9-0.9,5.1,0.1,6.8c1.6,2.5,4.9,4.3,7.7,5.6c8.7,4.1,19.8,7.4,18.7,21c-0.6,8.2-4.9,13.1-11.4,15.3
		c-3.4,1.1-7.9,1.3-11.7,0.6c-2.6-0.5-5.2-1.3-7.8-2.2c-0.9-0.3-1.9-0.8-2.8-0.6c-1.7,0.3-2,2-2.8,3.2h-2.9V63.8h3.2
		c1.6,6.7,4.4,11.9,10.2,14.3c2.7,1.1,7.3,1.8,10.3,0.4c3.2-1.4,5.9-6.2,3.5-10.1c-2.4-3.9-8.5-6-13.4-8.4c-4.7-2.4-9.4-5-12-9.8
		c-3-5.5-1.5-13,1.4-17.1c1.6-2.2,3.7-3.8,6-5c4.4-2.2,10.8-2.7,16.5-1.1c1.9,0.6,4.8,2.1,6.8,1.4C201.7,28.2,202.1,27.4,202.6,26.4
		"/>
	<path id="Fill-10" class="st0" d="M102.2,78.9v2.9H71v-2.9c2.8-0.3,5.2-1.3,6-3.8c0.8-2.8,0.4-7.1,0.4-10.6V42.7
		c0-3.6,0.3-8-0.9-9.9c-1-1.6-3.2-2.2-5.4-2.4v-2.8h22.2v9.3c0.5,0,0.6-0.6,0.8-0.9c1.5-2.1,3.3-4.3,5.3-6c2.3-2,5.4-3.8,9.3-3.9
		c5.7-0.1,9.6,3.2,10,8.6c0.4,5.7-4,9.8-9.7,8.2c-2.5-0.7-3.5-2.3-5-4.4c-0.6-0.9-1.6-2.1-2.8-2.2c-1.6-0.2-3.1,1-4.1,1.9
		c-1.1,1.1-1.8,2.2-2.3,3.7c-1.1,3-0.9,7.2-0.9,11.1v12c0,3.8-0.3,8.7,1,11C96,78.2,98.7,78.8,102.2,78.9"/>
	<path id="Fill-11" class="st0" d="M423.5,7.7h2.9v19.8c3.5,0.2,7.4,0,11.1,0.1v5.2h-11.1v30.6c0,3.4-0.3,7.3,0.8,9.4
		c0.9,1.7,3.2,2.6,5.5,1.8c2.6-0.9,3.8-3.6,5-5.8c1,0.4,2,0.9,3,1.3c-2.5,5.3-5.6,10.1-11.4,12.2c-3,1.1-7.1,1.3-10.4,0.6
		c-3-0.7-5.5-2.5-6.9-4.8c-1.6-2.5-1.9-5.8-1.9-9.9V32.8c-1.9-0.2-4.1,0-6.1-0.1c0.2-0.8-0.3-2.1,0-3c0.2-0.6,2.2-2.1,2.7-2.5
		c2.7-2.4,5.5-5.1,7.8-7.7C417.6,15.8,420.6,11.7,423.5,7.7"/>
	<path id="Fill-19" class="st0" d="M453.9,0.6c2.9-0.2,5.2,0.9,6.8,2.2c1.7,1.5,3.3,4.1,3,7.8c-0.3,4.5-3.8,7.8-8,8.1
		c-5.9,0.5-10.3-3.4-10.2-9.2c0-1.6,0.5-3.3,1.2-4.5C447.8,3,450.4,0.8,453.9,0.6"/>
	<path id="Fill-20" class="st0" d="M386.7,0.6c2.5-0.2,4.8,0.6,6.2,1.7c1.9,1.4,3.6,3.9,3.7,7.3c0,5.1-3.5,8.8-8.1,9.1
		c-6.5,0.5-10.6-4.2-10.2-10c0.2-2.2,1.1-3.7,1.9-4.8C381.7,2.2,383.7,0.8,386.7,0.6"/>
	<path id="Fill-21" class="st0" d="M364.2,0.8h3.2v27.5h-2.9c-2.8-6.2-6-11.5-10.5-16.1c-4.2-4.2-10.2-8.5-18.5-7.8
		c-8.1,0.6-12.6,5.1-15.6,11c-3,6-4.2,13.5-4.6,21.9c-0.4,8.9,0.3,17.4,2.2,24.2c2,6.9,5.8,12,11.8,14.7c3.2,1.5,7,2.3,11.2,2
		c12-1,19-7.6,25.4-14.3c1.2,0.9,2.3,1.9,3.5,2.9c-8.4,9.4-18,18.5-36.6,17.1c-15.9-1.2-27.2-8.7-33.5-20.4c-3.2-6-5.3-13.5-5-22
		c0.6-16.6,8.2-28.2,19-34.8c4.3-2.6,8.8-4.5,14.7-5.5c1.9-0.3,4.2-0.5,6.3-0.6c7.2-0.3,13.1,1.8,18.4,3.9c1.7,0.7,3.7,1.7,5.5,1.9
		C362.2,6.7,363.1,3.5,364.2,0.8"/>
	<path id="Fill-22" class="st0" d="M142.3,29.8c-7.6,0.6-7.3,11-7.7,18.8h15.8C149.9,40.6,151.1,29.1,142.3,29.8L142.3,29.8z
		 M164.8,53h-29.6c0.3,9,2.1,17,8.1,20.4c3.3,1.9,8.2,1.9,11.6,0.3c3.3-1.5,5.5-4.2,7.7-6.6c1,0.5,1.8,1.1,2.8,1.6
		c-5,7.3-10,13.8-21,14.6c-11.3,0.9-18.8-4.8-22.8-12.7c-3.9-7.9-4.5-20.8-0.8-29.7c2.6-6.1,7.1-10.9,13.4-13.3
		c2.3-0.9,4.7-1.4,7.6-1.5c8.1-0.4,13.9,3.1,17.3,7.6C162.7,38.6,164.4,45.1,164.8,53L164.8,53z"/>
	<path id="Fill-23" class="st0" d="M43.5,39.1c3.5-2.6,4.6-6.9,4.9-12.7c0.3-5.7-0.3-11.2-2.4-14.9c-2.1-3.6-6.5-5.6-12.5-5.1
		c-1.7,0.1-3.5,0.8-4.2,2.2c-0.9,1.8-0.4,5.4-0.4,8c0,8.5-0.1,17.8,0.1,25.4C35.1,42.1,40.2,41.6,43.5,39.1L43.5,39.1z M0.1,2.3
		h38.1c12.2,0,22.6,3,27.5,10.6c2.5,4,3.7,10,2.5,15.6c-1.1,5-4,8.9-7.5,11.5c-3.6,2.7-8.2,4.6-13.6,5.4c-5.5,0.8-11.8,0.7-18.2,0.8
		c0.3,6.9-0.3,15.1,0,22.5c0.1,2.5,0.2,4.8,1,6.5c1.5,3,5.4,3.1,9.4,3.7v3H0v-3c1.6-0.4,3.8-0.5,5.5-1c4.9-1.5,4.3-9,4.3-15.7v-40
		c0-6.9,0.6-13.9-4.1-15.8C4.2,5.6,2,5.3,0,5.2V2.5C0,2.4,0,2.3,0.1,2.3L0.1,2.3z"/>
	<path id="Fill-28" class="st0" d="M550.4,31.3c-1.1-1-2.8-1.7-4.9-1.5c-2.1,0.2-3.7,1.2-4.8,2.7c-2.6,3.7-2.7,10.1-3,16.1h15.8
		C553.3,42.2,553.9,34.5,550.4,31.3L550.4,31.3z M568.1,53h-29.6c0.5,9.2,2.1,17,8.1,20.4c3.3,1.9,8.1,1.9,11.6,0.3
		c3.2-1.5,5.5-4.1,7.6-6.6c1,0.5,1.9,1.1,2.8,1.6c-5,7.3-10,13.8-21,14.6c-11.2,0.8-18.9-4.8-22.8-12.7c-2-4-3.3-8.9-3.3-14.5
		c0-5.8,0.7-10.8,2.6-15.2c2.7-6.2,7-11,13.4-13.3c2.3-0.8,4.7-1.4,7.6-1.5c8.2-0.4,13.8,3.1,17.2,7.7C566,38.6,567.7,45.1,568.1,53
		L568.1,53z"/>
	<path id="Shape" d="M82.8,22.2h-0.6c-0.5,0-1-0.1-1.2-0.3c-0.3-0.2-0.5-0.4-0.6-0.6c-0.1-0.2-0.2-0.8-0.2-1.9V6.7
		c0-0.9,0.1-1.6,0.2-1.8c0.1-0.3,0.3-0.5,0.6-0.7C81.2,4.1,81.6,4,82.2,4h0.6V3.4H73V4h0.6c0.5,0,1,0.1,1.2,0.3
		c0.3,0.2,0.5,0.4,0.6,0.6c0.1,0.2,0.2,0.9,0.2,1.9v12.7c0,1-0.1,1.6-0.2,1.8c-0.1,0.3-0.3,0.5-0.6,0.7c-0.3,0.2-0.8,0.3-1.3,0.3H73
		v0.5h9.8V22.2L82.8,22.2z"/>
	<path id="Shape_1_" d="M94.7,23.2c3.4,0,6-1.2,7.8-3.7c1.4-1.9,2.1-4,2.1-6.4c0-2.9-1-5.3-2.8-7.2c-1.9-1.9-4.3-2.8-7.3-2.7
		c-2.8-0.1-5.1,0.8-7,2.7c-1.9,1.9-2.9,4.3-2.9,7.2c0,2.6,0.7,4.8,2.2,6.6C88.6,22,91.3,23.2,94.7,23.2L94.7,23.2z M90.7,6.8
		c0.9-1.8,2.2-2.7,3.9-2.7c0.9,0,1.8,0.3,2.5,0.8c0.7,0.5,1.3,1.4,1.8,2.7s0.7,3.2,0.7,5.7c0,2.2-0.2,3.9-0.7,5.2s-1.1,2.3-1.9,2.9
		c-0.6,0.5-1.4,0.7-2.4,0.7c-1.4,0-2.5-0.5-3.3-1.7c-1.1-1.6-1.7-4-1.7-7.3C89.6,10.4,90,8.3,90.7,6.8L90.7,6.8z"/>
	<path id="Shape_2_" d="M106.7,7.4l6.2,15.8h0.5l5.1-12.4l4.7,12.5h0.5l5.9-15.9c0.5-1.3,0.8-2.1,0.9-2.2c0.2-0.4,0.4-0.6,0.6-0.8
		c0.2-0.2,0.5-0.3,0.9-0.3V3.4h-4.9V4c0.7,0,1.2,0.1,1.5,0.4s0.4,0.5,0.4,0.9c0,0.3,0,0.5-0.1,0.9c-0.1,0.3-0.3,0.9-0.6,1.8
		l-3.1,8.3L121.9,7c-0.4-1.1-0.6-1.8-0.6-2s0.1-0.4,0.2-0.5c0.1-0.2,0.3-0.3,0.5-0.3c0.3-0.1,0.7-0.1,1.4-0.2V3.4h-9.1V4
		c0.6,0,1,0.1,1.3,0.2c0.3,0.2,0.6,0.4,0.8,0.8c0.2,0.4,0.6,1.1,1,2.3l0.8,2l-3,7.3l-3.7-9.4c-0.5-1.2-0.7-1.9-0.7-2.3
		c0-0.3,0.1-0.5,0.3-0.7c0.2-0.2,0.7-0.3,1.3-0.3V3.4h-8.1V4c0.6,0.1,1,0.3,1.2,0.6C105.7,4.9,106.1,5.8,106.7,7.4L106.7,7.4z"/>
	<path id="Shape_3_" d="M128.8,22.2v0.5h6.2v-0.5c-1-0.1-1.6-0.2-1.8-0.3c-0.4-0.3-0.6-0.6-0.6-1.2c0-0.4,0.1-0.9,0.4-1.6l0.8-1.9
		h6.6l1,2.4c0.3,0.6,0.4,1,0.4,1.1c0.1,0.2,0.1,0.3,0.1,0.5c0,0.3-0.1,0.5-0.3,0.6c-0.3,0.2-0.8,0.3-1.5,0.3h-0.4v0.5h9.1v-0.5
		c-0.6,0-1-0.2-1.3-0.5c-0.4-0.4-1-1.4-1.6-2.8L139.1,3h-0.3l-6.7,15.4c-0.6,1.5-1.2,2.4-1.6,2.9S129.5,22.1,128.8,22.2L128.8,22.2z
		 M137.1,9.5l2.8,6.6h-5.7L137.1,9.5L137.1,9.5z"/>
	<path id="Shape_4_" d="M169.8,18.3c-1.1,1.3-2.1,2.2-3.1,2.7c-1,0.5-2.1,0.8-3.3,0.8c-1.4,0-2.6-0.4-3.5-1.1s-1.6-1.8-2-3.2
		c-0.4-1.4-0.6-3-0.6-4.7s0.3-3.3,0.9-4.8c0.5-1.1,1.2-2,2.1-2.7c1-0.7,2.1-1,3.2-1c1.4,0,2.7,0.5,3.8,1.4c1.1,0.9,1.9,2.3,2.3,4
		h0.6V3h-0.6c-0.1,0.5-0.2,0.8-0.4,1c-0.2,0.2-0.5,0.3-0.8,0.3c-0.2,0-0.8-0.2-1.6-0.5c-1.5-0.6-2.9-0.9-4.2-0.9
		c-1.8,0-3.5,0.4-5.1,1.3c-1.6,0.9-2.9,2.2-3.8,3.8c-1,1.7-1.4,3.4-1.4,5.2c0,1.8,0.4,3.4,1.2,4.9c0.9,1.6,2,2.7,3.6,3.5
		c1.5,0.8,3.4,1.2,5.4,1.2c1.5,0,2.9-0.3,4-0.8s2.2-1.4,3.3-2.5V18.3L169.8,18.3z"/>
	<path id="Shape_5_" d="M182,22.2h-0.6c-0.5,0-1-0.1-1.2-0.3c-0.3-0.2-0.5-0.4-0.6-0.6c-0.1-0.2-0.2-0.8-0.2-1.9V6.7
		c0-0.9,0.1-1.6,0.2-1.8c0.1-0.3,0.3-0.5,0.6-0.7c0.3-0.2,0.8-0.3,1.3-0.3h0.6V3.4h-9.8V4h0.6c0.5,0,1,0.1,1.2,0.3
		c0.3,0.2,0.5,0.4,0.6,0.6s0.2,0.9,0.2,1.9v12.7c0,1,0,1.6-0.2,1.8c-0.1,0.3-0.3,0.5-0.6,0.7c-0.3,0.2-0.8,0.3-1.3,0.3h-0.6v0.5h9.8
		V22.2L182,22.2z"/>
	<path id="Shape_6_" d="M185.5,5.4c0.6-0.5,1.5-0.8,2.8-0.8h1.3v14.9c0,1-0.1,1.6-0.2,1.8c-0.1,0.3-0.3,0.5-0.6,0.7
		c-0.3,0.2-0.8,0.3-1.3,0.3h-0.6v0.5h9.8v-0.5h-0.6c-0.5,0-1-0.1-1.3-0.3c-0.3-0.2-0.5-0.4-0.6-0.6s-0.2-0.8-0.2-1.9V4.6h1.4
		c0.9,0,1.5,0.1,1.8,0.3c0.6,0.3,1.1,0.7,1.5,1.3s0.7,1.4,1,2.6h0.5V3.4h-16.9v5.2h0.5C184.2,7.3,184.7,6.1,185.5,5.4L185.5,5.4z"/>
	<path id="Shape_7_" d="M209.2,21.3c-0.1,0.3-0.3,0.5-0.6,0.7c-0.3,0.2-0.8,0.3-1.3,0.3h-1v0.5h10.5v-0.5h-1.1
		c-0.5,0-0.9-0.1-1.2-0.3c-0.3-0.2-0.5-0.4-0.6-0.6c-0.1-0.2-0.2-0.9-0.2-1.9v-4.7l4.1-7c1-1.8,1.7-2.9,2.2-3.3
		c0.3-0.3,0.8-0.5,1.4-0.5V3.4h-5.7V4c0.9,0,1.4,0.2,1.7,0.4c0.2,0.2,0.4,0.4,0.4,0.6c0,0.5-0.4,1.4-1.2,2.8l-3.4,5.8l-3.4-6.4
		c-0.8-1.4-1.1-2.2-1.1-2.6c0-0.2,0.1-0.3,0.3-0.5c0.2-0.2,0.6-0.2,1.1-0.2h0.4V3.4h-9V4c0.6,0,1.1,0.2,1.4,0.4
		c0.4,0.3,1,1.2,1.9,2.9l4.4,8.3v3.9C209.3,20.4,209.3,21,209.2,21.3L209.2,21.3z"/>
</g>
<g id="Iowa_City">
	<path id="USAT_Network" class="st0" d="M264,109.3h4.5c3.2,0,5.3,1.9,5.3,4.7s-2.2,4.7-5.3,4.7h-2.3v5.9H264L264,109.3L264,109.3z
		 M268.3,116.9c2.1,0,3.2-1.2,3.2-2.9c0-1.7-1.1-2.9-3.2-2.9h-2.1v5.8H268.3z M280,109.3h2l6.4,15.4H286l-1.6-4h-6.9l-1.6,4h-2.3
		C273.6,124.7,279.2,111.2,280,109.3L280,109.3z M283.7,118.8l-1.5-3.8c-0.2-0.6-1.2-2.9-1.2-3.1h0c0,0.2-1,2.5-1.2,3.1l-1.5,3.8
		H283.7L283.7,118.8z M290.6,109.3h4.5c2.9,0,5.2,1.5,5.2,4.6c0,2.3-1.7,4.2-4,4.3l4.8,6.5h-2.6l-4.5-6.3h-1.2v6.3h-2.2L290.6,109.3
		L290.6,109.3z M294.9,116.6c2,0,3.2-1.1,3.2-2.8s-1.2-2.8-3.2-2.8h-2.1v5.5H294.9z M306.4,111.1H302v-1.9H313v1.9h-4.4v13.5h-2.2
		L306.4,111.1L306.4,111.1z M318.7,117c-0.1-4.5,3.5-8.3,8-8.4c4.5-0.1,8.3,3.5,8.4,8c0.1,4.5-3.5,8.3-8,8.4c-0.1,0-0.1,0-0.2,0
		c-4.3,0.2-8-3.2-8.2-7.5C318.7,117.3,318.7,117.1,318.7,117L318.7,117z M332.9,117c-0.1-3.3-2.8-5.9-6.1-5.8
		c-3.3,0.1-5.9,2.8-5.8,6.1c0.1,3.2,2.7,5.8,5.9,5.8c3.2,0.1,5.9-2.4,6-5.6C332.9,117.3,332.9,117.1,332.9,117L332.9,117z
		 M338.3,109.3h7.9v1.9h-5.7v5h5.5v1.9h-5.5v6.7h-2.2L338.3,109.3L338.3,109.3z M356.1,111.1h-4.4v-1.9h11.1v1.9h-4.4v13.5h-2.2
		L356.1,111.1L356.1,111.1z M365.1,109.3h2.2v6.3h8.2v-6.3h2.2v15.4h-2.2v-7.2h-8.2v7.2h-2.2V109.3z M381.7,109.3h8.5v1.8h-6.3v4.5
		h6.1v1.8h-6.1v5.4h6.4v1.8h-8.6L381.7,109.3L381.7,109.3z M397.7,119.4v-10.1h2.2v9.4c0,2.7,1.2,4.3,3.8,4.3c2.6,0,3.8-1.6,3.8-4.3
		v-9.4h2.2v10.1c0,3.4-2.2,5.6-6,5.6C399.9,125,397.7,122.7,397.7,119.4L397.7,119.4z M412,121.9l1.5-1.2c0.8,1.5,2.3,2.4,3.9,2.4
		c1.7,0,3-0.9,3-2.6c0-1.8-1.5-2.4-3.4-3.2c-2-0.8-3.9-1.7-3.9-4.2c0-2.4,1.9-4.1,4.7-4.1c1.8-0.1,3.6,0.8,4.6,2.3l-1.5,1.2
		c-0.7-1.1-1.8-1.7-3.1-1.7c-1.5,0-2.5,0.8-2.5,2.1c0,1.6,1.6,2.1,2.9,2.7c2.2,0.9,4.5,1.9,4.5,4.7c0,2.7-2,4.7-5.2,4.7
		C415.2,125,413.1,123.9,412,121.9L412,121.9z M430.2,109.3h2l6.4,15.4h-2.4l-1.6-4h-6.9l-1.6,4h-2.3
		C423.8,124.7,429.4,111.2,430.2,109.3L430.2,109.3z M433.9,118.8l-1.5-3.8c-0.2-0.6-1.2-2.9-1.2-3.1h0c0,0.2-1,2.5-1.2,3.1
		l-1.5,3.8H433.9L433.9,118.8z M447.9,111.1h-4.4v-1.9h11.1v1.9h-4.4v13.5h-2.2L447.9,111.1L447.9,111.1z M455.3,117
		c-0.1-4.5,3.5-8.3,8-8.4s8.3,3.5,8.4,8c0.1,4.5-3.5,8.3-8,8.4c-0.1,0-0.1,0-0.2,0c-4.3,0.2-8-3.2-8.2-7.5
		C455.3,117.3,455.3,117.1,455.3,117L455.3,117z M469.5,117c-0.1-3.3-2.8-5.9-6.1-5.8c-3.3,0.1-5.9,2.8-5.8,6.1
		c0.1,3.2,2.7,5.8,5.9,5.8c3.2,0.1,5.9-2.4,6-5.6C469.5,117.3,469.5,117.1,469.5,117L469.5,117z M474.9,109.3h4.4
		c5,0,8.3,2.8,8.3,7.7c0,4.9-3.3,7.7-8.3,7.7h-4.4L474.9,109.3L474.9,109.3z M477.1,122.8h2c3.6,0,6.2-1.9,6.2-5.8s-2.5-5.8-6.2-5.8
		h-2.1L477.1,122.8L477.1,122.8z M494.7,109.3h2l6.4,15.4h-2.4l-1.6-4h-6.9l-1.6,4h-2.3C488.3,124.7,494,111.2,494.7,109.3
		L494.7,109.3z M498.4,118.8l-1.5-3.8c-0.2-0.6-1.2-2.9-1.2-3.1h0c0,0.2-1,2.5-1.2,3.1l-1.5,3.8H498.4L498.4,118.8z M507.5,118.4
		l-5.3-9.1h2.5l2.9,5.1c0.4,0.7,0.8,1.4,1.1,2.2h0c0.3-0.7,0.7-1.5,1.1-2.2l2.9-5.1h2.4l-5.3,9.1v6.3h-2.3L507.5,118.4L507.5,118.4z
		 M521.6,109.3h1.7l8.8,10c0.3,0.3,1.4,1.7,1.5,1.9l0,0c0-0.2,0-2,0-2.4v-9.5h2.1v15.4H534l-8.8-10c-0.3-0.3-1.4-1.7-1.5-1.9l0,0
		c0,0.2,0,2,0,2.4v9.5h-2.1L521.6,109.3L521.6,109.3z M539.8,109.3h8.5v1.8H542v4.5h6.1v1.8H542v5.4h6.4v1.8h-8.6L539.8,109.3
		L539.8,109.3z M555.2,111.1h-4.4v-1.9h11.1v1.9h-4.4v13.5h-2.2L555.2,111.1L555.2,111.1z M563.7,109.3h2.3l3.2,9.2
		c0.1,0.4,0.9,2.6,0.9,3h0c0.3-1,0.6-2,0.9-3l3.3-9.2h1.8l3.3,9.2c0.1,0.4,0.9,2.6,0.9,3h0c0-0.4,0.8-2.6,0.9-3l3.2-9.2h2.2
		l-5.5,15.4h-1.7l-3.6-9.6c-0.3-0.8-0.5-1.7-0.8-2.5h0c-0.2,0.8-0.5,1.7-0.8,2.5l-3.6,9.6h-1.7L563.7,109.3z M587.8,117
		c-0.1-4.5,3.5-8.3,8-8.4s8.3,3.5,8.4,8c0.1,4.5-3.5,8.3-8,8.4c-0.1,0-0.1,0-0.2,0c-4.3,0.2-8-3.2-8.2-7.5
		C587.8,117.3,587.8,117.1,587.8,117L587.8,117z M601.9,117c-0.1-3.3-2.8-5.9-6.1-5.8c-3.3,0.1-5.9,2.8-5.8,6.1
		c0.1,3.2,2.7,5.8,5.9,5.8c3.2,0.1,5.9-2.4,6-5.6C601.9,117.3,601.9,117.1,601.9,117L601.9,117z M607.3,109.3h4.5
		c2.9,0,5.2,1.5,5.2,4.6c0,2.3-1.7,4.2-4,4.3l4.8,6.5h-2.6l-4.5-6.3h-1.2v6.3h-2.2L607.3,109.3L607.3,109.3z M611.6,116.6
		c2,0,3.2-1.1,3.2-2.8s-1.2-2.8-3.2-2.8h-2.1v5.5H611.6L611.6,116.6z M620.3,109.3h2.2v7.2l6.4-7.2h2.7l-6.7,7.4l7,8.1h-2.8
		l-6.7-7.8v7.8h-2.2L620.3,109.3L620.3,109.3z"/>
</g>
</svg>
