<svg xmlns="http://www.w3.org/2000/svg" width="297" height="46" viewBox="0 0 297 46">
  <g fill="none" fill-rule="evenodd">
    <path fill="#404040" d="M1.212 34.697L1.212 11.793C2.472 12.063 3.747 12.197 5.037 12.197 6.357 12.197 7.692 12.063 9.042 11.793L9.042 34.697 1.212 34.697M31.407 33.213C30.476 33.843 29.411 34.345 28.212 34.72 27.012 35.095 25.752 35.282 24.432 35.282 21.972 35.282 20.014 34.57 18.559 33.145 17.104 31.721 16.377 29.808 16.377 27.407L16.377 17.643 12.642 17.643 12.642 11.793 16.737 11.793 17.727 5.402 24.207 5.402 24.207 11.793 30.192 11.793 30.192 17.643 24.207 17.643 24.207 26.418C24.207 27.198 24.439 27.806 24.904 28.24 25.369 28.675 25.991 28.893 26.772 28.893 27.161 28.893 27.559 28.818 27.964 28.668 28.369 28.518 28.752 28.338 29.112 28.128L31.407 33.213M42.971 22.098L42.971 34.697 35.142 34.697 35.142 1.848 42.971 1.848 42.971 14.447C43.721 13.458 44.674 12.67 45.829 12.085 46.983 11.5 48.237 11.208 49.586 11.208 52.076 11.208 54.071 12.018 55.571 13.638 57.071 15.258 57.821 17.583 57.821 20.612L57.821 34.697 49.991 34.697 49.991 21.513C49.991 20.163 49.691 19.166 49.091 18.52 48.491 17.875 47.651 17.553 46.571 17.553 45.491 17.553 44.621 17.898 43.961 18.588 43.301 19.278 42.971 20.448 42.971 22.098M69.071 27.273C69.071 27.963 69.326 28.525 69.836 28.96 70.346 29.396 71.006 29.612 71.816 29.612 72.896 29.612 73.803 29.245 74.539 28.51 75.273 27.775 75.641 26.853 75.641 25.742L75.641 24.978C74.831 24.828 73.976 24.753 73.076 24.753 71.936 24.753 70.984 24.948 70.219 25.338 69.454 25.728 69.071 26.373 69.071 27.273zM75.956 34.697L75.551 31.683C74.051 34.083 71.771 35.282 68.711 35.282 67.361 35.282 66.138 34.99 65.044 34.405 63.948 33.82 63.078 33.018 62.433 31.998 61.788 30.978 61.466 29.793 61.466 28.443 61.466 25.893 62.463 23.913 64.459 22.503 66.453 21.093 69.086 20.388 72.356 20.388 73.376 20.388 74.456 20.478 75.596 20.657 75.476 19.518 74.988 18.655 74.133 18.07 73.279 17.486 72.236 17.193 71.006 17.193 69.926 17.193 68.838 17.395 67.744 17.8 66.648 18.205 65.606 18.693 64.616 19.263L61.961 14.223C63.461 13.263 65.081 12.521 66.821 11.995 68.561 11.471 70.301 11.208 72.041 11.208 74.141 11.208 76.031 11.568 77.711 12.288 79.391 13.008 80.711 14.103 81.671 15.572 82.631 17.043 83.111 18.902 83.111 21.152L83.111 34.697 75.956 34.697zM98.816 35.282C96.476 35.282 94.398 34.78 92.583 33.775 90.768 32.771 89.336 31.367 88.286 29.568 87.235 27.768 86.711 25.668 86.711 23.268 86.711 20.868 87.235 18.768 88.286 16.968 89.336 15.168 90.768 13.766 92.583 12.76 94.398 11.755 96.476 11.253 98.816 11.253 100.886 11.253 102.701 11.635 104.261 12.4 105.82 13.165 107.201 14.388 108.401 16.068L103.226 19.848C102.805 19.218 102.258 18.7 101.583 18.295 100.908 17.89 100.181 17.688 99.401 17.688 98.051 17.688 96.926 18.191 96.026 19.195 95.126 20.2 94.676 21.558 94.676 23.268 94.676 24.978 95.126 26.335 96.026 27.34 96.926 28.346 98.051 28.848 99.401 28.848 100.181 28.848 100.908 28.645 101.583 28.24 102.258 27.835 102.805 27.318 103.226 26.688L108.401 30.468C107.201 32.148 105.82 33.37 104.261 34.135 102.701 34.9 100.886 35.282 98.816 35.282M118.075 27.273C118.075 27.963 118.33 28.525 118.841 28.96 119.35 29.396 120.01 29.612 120.821 29.612 121.901 29.612 122.808 29.245 123.543 28.51 124.278 27.775 124.645 26.853 124.645 25.742L124.645 24.978C123.835 24.828 122.98 24.753 122.081 24.753 120.94 24.753 119.988 24.948 119.223 25.338 118.458 25.728 118.075 26.373 118.075 27.273zM124.96 34.697L124.555 31.683C123.055 34.083 120.776 35.282 117.716 35.282 116.365 35.282 115.143 34.99 114.048 34.405 112.953 33.82 112.083 33.018 111.438 31.998 110.792 30.978 110.47 29.793 110.47 28.443 110.47 25.893 111.467 23.913 113.463 22.503 115.458 21.093 118.09 20.388 121.361 20.388 122.38 20.388 123.46 20.478 124.601 20.657 124.48 19.518 123.993 18.655 123.138 18.07 122.283 17.486 121.24 17.193 120.01 17.193 118.93 17.193 117.843 17.395 116.748 17.8 115.653 18.205 114.611 18.693 113.621 19.263L110.966 14.223C112.465 13.263 114.085 12.521 115.825 11.995 117.565 11.471 119.305 11.208 121.045 11.208 123.145 11.208 125.035 11.568 126.716 12.288 128.395 13.008 129.715 14.103 130.675 15.572 131.635 17.043 132.115 18.902 132.115 21.152L132.115 34.697 124.96 34.697z"/>
    <path fill="#009BFF" class='no-color-change' d="M151.78 9.992C150.489 9.992 149.387 9.535 148.473 8.62 147.557 7.705 147.1 6.603 147.1 5.313 147.1 4.023 147.557 2.921 148.473 2.005 149.387 1.09 150.489.633 151.78.633 153.07.633 154.172 1.09 155.088 2.005 156.002 2.921 156.46 4.023 156.46 5.313 156.46 6.603 156.002 7.705 155.088 8.62 154.172 9.535 153.07 9.992 151.78 9.992zM145.03 43.023L143.545 36.633C144.865 36.512 145.93 36.077 146.74 35.327 147.55 34.578 147.955 33.528 147.955 32.178L147.955 11.793C149.215 12.063 150.489 12.197 151.78 12.197 153.1 12.197 154.435 12.063 155.785 11.793L155.785 31.773C155.785 35.103 154.922 37.728 153.197 39.648 151.472 41.567 148.749 42.692 145.03 43.023zM172.39 29.072C173.769 29.072 174.872 28.54 175.697 27.475 176.522 26.41 176.935 24.993 176.935 23.223 176.935 21.453 176.522 20.043 175.697 18.992 174.872 17.943 173.769 17.418 172.39 17.418 171.009 17.418 169.907 17.943 169.082 18.992 168.257 20.043 167.844 21.453 167.844 23.223 167.844 24.993 168.257 26.41 169.082 27.475 169.907 28.54 171.009 29.072 172.39 29.072zM172.39 35.282C169.929 35.282 167.761 34.765 165.887 33.73 164.012 32.695 162.542 31.278 161.477 29.478 160.412 27.678 159.88 25.593 159.88 23.223 159.88 20.853 160.412 18.768 161.477 16.968 162.542 15.168 164.012 13.758 165.887 12.737 167.761 11.718 169.929 11.208 172.39 11.208 174.849 11.208 177.017 11.718 178.892 12.737 180.767 13.758 182.237 15.168 183.302 16.968 184.366 18.768 184.9 20.853 184.9 23.223 184.9 25.593 184.366 27.678 183.302 29.478 182.237 31.278 180.767 32.695 178.892 33.73 177.017 34.765 174.849 35.282 172.39 35.282zM204.114 34.697L203.71 31.683C202.959 32.793 201.977 33.67 200.762 34.315 199.547 34.96 198.235 35.282 196.824 35.282 194.154 35.282 192.114 34.495 190.705 32.92 189.294 31.345 188.59 29.072 188.59 26.103L188.59 11.793 196.42 11.793 196.42 25.202C196.42 27.693 197.559 28.938 199.84 28.938 202.239 28.938 203.44 27.438 203.44 24.438L203.44 11.793 211.27 11.793 211.27 34.697 204.114 34.697M224.589 25.833L224.589 34.697 216.759 34.697 216.759 11.793 223.914 11.793 224.409 15.617C224.888 14.388 225.676 13.39 226.772 12.625 227.866 11.86 229.134 11.478 230.574 11.478 231.384 11.478 231.999 11.583 232.419 11.793L232.419 18.947C232.089 18.828 231.721 18.738 231.317 18.678 230.911 18.618 230.454 18.588 229.944 18.588 228.384 18.588 227.101 19.166 226.096 20.32 225.091 21.476 224.589 23.313 224.589 25.833M244.029 22.053L244.029 34.697 236.199 34.697 236.199 11.793 243.354 11.793 243.758 14.808C244.508 13.728 245.484 12.858 246.684 12.197 247.883 11.538 249.204 11.208 250.644 11.208 253.133 11.208 255.128 12.018 256.629 13.638 258.129 15.258 258.879 17.583 258.879 20.612L258.879 34.697 251.049 34.697 251.049 21.513C251.049 20.163 250.748 19.166 250.149 18.52 249.548 17.875 248.709 17.553 247.629 17.553 246.549 17.553 245.678 17.898 245.019 18.588 244.359 19.278 244.029 20.433 244.029 22.053M270.128 27.273C270.128 27.963 270.383 28.525 270.893 28.96 271.403 29.396 272.063 29.612 272.873 29.612 273.953 29.612 274.86 29.245 275.595 28.51 276.33 27.775 276.698 26.853 276.698 25.742L276.698 24.978C275.888 24.828 275.033 24.753 274.133 24.753 272.992 24.753 272.041 24.948 271.276 25.338 270.51 25.728 270.128 26.373 270.128 27.273zM277.013 34.697L276.608 31.683C275.108 34.083 272.828 35.282 269.768 35.282 268.418 35.282 267.195 34.99 266.101 34.405 265.005 33.82 264.135 33.018 263.49 31.998 262.845 30.978 262.523 29.793 262.523 28.443 262.523 25.893 263.52 23.913 265.516 22.503 267.51 21.093 270.143 20.388 273.413 20.388 274.433 20.388 275.512 20.478 276.653 20.657 276.533 19.518 276.046 18.655 275.191 18.07 274.336 17.486 273.293 17.193 272.063 17.193 270.983 17.193 269.895 17.395 268.8 17.8 267.705 18.205 266.663 18.693 265.673 19.263L263.018 14.223C264.518 13.263 266.138 12.521 267.878 11.995 269.617 11.471 271.358 11.208 273.098 11.208 275.197 11.208 277.088 11.568 278.768 12.288 280.448 13.008 281.768 14.103 282.728 15.572 283.688 17.043 284.168 18.902 284.168 21.152L284.168 34.697 277.013 34.697z"/>
    <polygon fill="#009BFF" class='no-color-change' points="289.163 34.698 296.993 34.698 296.993 1.848 289.163 1.848"/>
    <path fill="#404040" d="M1.911 43.028L2.851 43.028C3.16 43.028 3.405 42.952 3.585 42.8 3.764 42.648 3.854 42.44 3.854 42.177 3.854 41.914 3.764 41.707 3.585 41.555 3.405 41.403 3.16 41.327 2.851 41.327L1.911 41.327 1.911 43.028zM1.212 45.442L1.212 40.739 2.851 40.739C3.377 40.739 3.794 40.868 4.103 41.126 4.412 41.384 4.567 41.735 4.567 42.177 4.567 42.616 4.412 42.962 4.103 43.218 3.794 43.474 3.377 43.602 2.851 43.602L1.911 43.602 1.911 45.442 1.212 45.442zM5.978 43.671L7.693 43.671 6.835 41.465 5.978 43.671zM8.378 45.442L7.921 44.259 5.749 44.259 5.293 45.442 4.587 45.442 6.469 40.739 7.223 40.739 9.097 45.442 8.378 45.442zM10.577 42.959L11.538 42.959C11.838 42.959 12.077 42.885 12.254 42.738 12.432 42.59 12.52 42.392 12.52 42.143 12.52 41.894 12.432 41.696 12.254 41.548 12.077 41.401 11.838 41.327 11.538 41.327L10.577 41.327 10.577 42.959zM10.577 43.533L10.577 45.442 9.878 45.442 9.878 40.739 11.538 40.739C12.059 40.739 12.472 40.864 12.776 41.116 13.081 41.367 13.233 41.71 13.233 42.143 13.233 42.47 13.141 42.747 12.956 42.973 12.772 43.199 12.518 43.358 12.195 43.45L13.337 45.442 12.541 45.442 11.469 43.533 10.577 43.533z"/>
    <polyline fill="#404040" points="15.238 45.442 15.238 41.327 13.655 41.327 13.655 40.739 17.521 40.739 17.521 41.327 15.937 41.327 15.937 45.442 15.238 45.442"/>
    <path fill="#404040" d="M22.009,44.909 C22.314,44.909 22.585,44.832 22.822,44.678 C23.059,44.523 23.245,44.31 23.379,44.038 C23.512,43.766 23.579,43.45 23.579,43.09 C23.579,42.73 23.512,42.415 23.379,42.143 C23.245,41.871 23.059,41.658 22.822,41.503 C22.585,41.349 22.314,41.271 22.009,41.271 C21.705,41.271 21.435,41.349 21.2,41.503 C20.965,41.658 20.78,41.871 20.647,42.143 C20.513,42.415 20.446,42.73 20.446,43.09 C20.446,43.45 20.513,43.766 20.647,44.038 C20.78,44.31 20.965,44.523 21.2,44.678 C21.435,44.832 21.705,44.909 22.009,44.909 Z M22.009,45.518 C21.567,45.518 21.175,45.414 20.833,45.207 C20.492,44.999 20.224,44.713 20.028,44.349 C19.832,43.985 19.734,43.565 19.734,43.09 C19.734,42.616 19.832,42.196 20.028,41.832 C20.224,41.467 20.492,41.181 20.833,40.974 C21.175,40.766 21.567,40.663 22.009,40.663 C22.452,40.663 22.845,40.766 23.189,40.974 C23.532,41.181 23.802,41.467 23.998,41.832 C24.194,42.196 24.292,42.616 24.292,43.09 C24.292,43.565 24.194,43.985 23.998,44.349 C23.802,44.713 23.532,44.999 23.189,45.207 C22.845,45.414 22.452,45.518 22.009,45.518 Z"/>
    <polyline fill="#404040" points="25.973 45.442 25.274 45.442 25.274 40.739 28.2 40.739 28.2 41.327 25.973 41.327 25.973 42.918 27.861 42.918 27.861 43.505 25.973 43.505 25.973 45.442"/>
    <polyline fill="#404040" points="31.844 45.442 31.844 41.327 30.26 41.327 30.26 40.739 34.127 40.739 34.127 41.327 32.543 41.327 32.543 45.442 31.844 45.442"/>
    <polyline fill="#404040" points="34.929 45.442 34.929 40.739 35.627 40.739 35.627 42.751 38.055 42.751 38.055 40.739 38.753 40.739 38.753 45.442 38.055 45.442 38.055 43.353 35.627 43.353 35.627 45.442 34.929 45.442"/>
    <polyline fill="#404040" points="39.985 45.442 39.985 40.739 43 40.739 43 41.327 40.683 41.327 40.683 42.779 42.723 42.779 42.723 43.367 40.683 43.367 40.683 44.854 43.055 44.854 43.055 45.442 39.985 45.442"/>
    <path fill="#404040" d="M47.468 44.909C47.851 44.909 48.151 44.794 48.37 44.564 48.589 44.333 48.699 44.022 48.699 43.63L48.699 40.739 49.397 40.739 49.397 43.637C49.397 44.223 49.226 44.682 48.882 45.016 48.539 45.351 48.067 45.518 47.468 45.518 46.868 45.518 46.398 45.351 46.057 45.016 45.716 44.682 45.545 44.223 45.545 43.637L45.545 40.739 46.244 40.739 46.244 43.63C46.244 44.022 46.353 44.333 46.572 44.564 46.791 44.794 47.09 44.909 47.468 44.909M52.005 45.518C51.65 45.518 51.311 45.456 50.988 45.331 50.665 45.207 50.405 45.041 50.207 44.833L50.601 44.37C50.785 44.541 51.003 44.674 51.255 44.771 51.506 44.868 51.756 44.916 52.005 44.916 52.309 44.916 52.555 44.858 52.741 44.74 52.928 44.622 53.021 44.46 53.021 44.252 53.021 44.063 52.955 43.904 52.821 43.775 52.687 43.646 52.459 43.538 52.136 43.45L51.486 43.277C51.066 43.166 50.761 43.009 50.57 42.807 50.378 42.604 50.283 42.339 50.283 42.011 50.283 41.744 50.354 41.509 50.497 41.306 50.64 41.103 50.837 40.945 51.088 40.832 51.34 40.719 51.624 40.663 51.943 40.663 52.279 40.663 52.595 40.726 52.89 40.853 53.185 40.98 53.446 41.156 53.672 41.382L53.25 41.838C53.052 41.654 52.845 41.512 52.631 41.413 52.416 41.314 52.189 41.264 51.949 41.264 51.659 41.264 51.421 41.326 51.237 41.448 51.053 41.57 50.961 41.739 50.961 41.956 50.961 42.154 51.026 42.309 51.158 42.42 51.289 42.53 51.491 42.622 51.763 42.696L52.489 42.897C52.909 43.012 53.215 43.173 53.409 43.381 53.603 43.588 53.699 43.847 53.699 44.156 53.699 44.428 53.628 44.666 53.485 44.871 53.342 45.076 53.144 45.235 52.89 45.348 52.636 45.462 52.341 45.518 52.005 45.518M55.456 43.671L57.171 43.671 56.314 41.465 55.456 43.671zM57.856 45.442L57.4 44.259 55.228 44.259 54.771 45.442 54.066 45.442 55.947 40.739 56.701 40.739 58.575 45.442 57.856 45.442z"/>
    <polyline fill="#404040" points="61.826 45.442 61.826 41.327 60.242 41.327 60.242 40.739 64.108 40.739 64.108 41.327 62.525 41.327 62.525 45.442 61.826 45.442"/>
    <path fill="#404040" d="M66.626 44.909C66.93 44.909 67.201 44.832 67.439 44.678 67.676 44.523 67.862 44.31 67.995 44.038 68.129 43.766 68.196 43.45 68.196 43.09 68.196 42.73 68.129 42.415 67.995 42.143 67.862 41.871 67.676 41.658 67.439 41.503 67.201 41.349 66.93 41.271 66.626 41.271 66.322 41.271 66.052 41.349 65.817 41.503 65.581 41.658 65.397 41.871 65.263 42.143 65.13 42.415 65.063 42.73 65.063 43.09 65.063 43.45 65.13 43.766 65.263 44.038 65.397 44.31 65.581 44.523 65.817 44.678 66.052 44.832 66.322 44.909 66.626 44.909zM66.626 45.518C66.183 45.518 65.791 45.414 65.45 45.207 65.109 44.999 64.84 44.713 64.644 44.349 64.448 43.985 64.35 43.565 64.35 43.09 64.35 42.616 64.448 42.196 64.644 41.832 64.84 41.467 65.109 41.181 65.45 40.974 65.791 40.766 66.183 40.663 66.626 40.663 67.069 40.663 67.462 40.766 67.805 40.974 68.148 41.181 68.418 41.467 68.614 41.832 68.81 42.196 68.908 42.616 68.908 43.09 68.908 43.565 68.81 43.985 68.614 44.349 68.418 44.713 68.148 44.999 67.805 45.207 67.462 45.414 67.069 45.518 66.626 45.518zM70.589 44.854L71.543 44.854C71.875 44.854 72.16 44.781 72.397 44.636 72.635 44.491 72.817 44.287 72.944 44.024 73.071 43.761 73.134 43.45 73.134 43.09 73.134 42.73 73.071 42.42 72.944 42.157 72.817 41.894 72.635 41.69 72.397 41.545 72.16 41.399 71.875 41.327 71.543 41.327L70.589 41.327 70.589 44.854zM69.89 45.442L69.89 40.739 71.543 40.739C72.004 40.739 72.408 40.837 72.754 41.033 73.099 41.229 73.368 41.503 73.559 41.856 73.751 42.208 73.846 42.62 73.846 43.09 73.846 43.561 73.751 43.972 73.559 44.325 73.368 44.678 73.099 44.952 72.754 45.148 72.408 45.344 72.004 45.442 71.543 45.442L69.89 45.442zM75.631 43.671L77.346 43.671 76.488 41.465 75.631 43.671zM78.031 45.442L77.574 44.259 75.402 44.259 74.946 45.442 74.241 45.442 76.122 40.739 76.876 40.739 78.75 45.442 78.031 45.442z"/>
    <polyline fill="#404040" points="80.894 43.575 80.894 45.442 80.196 45.442 80.196 43.575 78.542 40.739 79.366 40.739 80.548 42.91 81.731 40.739 82.54 40.739 80.894 43.575"/>
    <polyline fill="#404040" points="88.128 45.442 85.618 41.838 85.618 45.442 84.961 45.442 84.961 40.739 85.611 40.739 88.128 44.342 88.128 40.739 88.779 40.739 88.779 45.442 88.128 45.442"/>
    <polyline fill="#404040" points="90.01 45.442 90.01 40.739 93.025 40.739 93.025 41.327 90.708 41.327 90.708 42.779 92.748 42.779 92.748 43.367 90.708 43.367 90.708 44.854 93.08 44.854 93.08 45.442 90.01 45.442"/>
    <polyline fill="#404040" points="95.155 45.442 95.155 41.327 93.571 41.327 93.571 40.739 97.438 40.739 97.438 41.327 95.854 41.327 95.854 45.442 95.155 45.442"/>
    <polyline fill="#404040" points="102.002 45.442 100.903 41.693 99.803 45.442 99.077 45.442 97.825 40.739 98.516 40.739 99.471 44.46 100.571 40.739 101.235 40.739 102.341 44.474 103.303 40.739 103.98 40.739 102.728 45.442 102.002 45.442"/>
    <path fill="#404040" d="M106.754 44.909C107.058 44.909 107.329 44.832 107.567 44.678 107.804 44.523 107.99 44.31 108.123 44.038 108.257 43.766 108.324 43.45 108.324 43.09 108.324 42.73 108.257 42.415 108.123 42.143 107.99 41.871 107.804 41.658 107.567 41.503 107.329 41.349 107.058 41.271 106.754 41.271 106.45 41.271 106.18 41.349 105.945 41.503 105.71 41.658 105.525 41.871 105.391 42.143 105.258 42.415 105.191 42.73 105.191 43.09 105.191 43.45 105.258 43.766 105.391 44.038 105.525 44.31 105.71 44.523 105.945 44.678 106.18 44.832 106.45 44.909 106.754 44.909zM106.754 45.518C106.311 45.518 105.919 45.414 105.578 45.207 105.237 44.999 104.968 44.713 104.772 44.349 104.576 43.985 104.478 43.565 104.478 43.09 104.478 42.616 104.576 42.196 104.772 41.832 104.968 41.467 105.237 41.181 105.578 40.974 105.919 40.766 106.311 40.663 106.754 40.663 107.197 40.663 107.59 40.766 107.933 40.974 108.277 41.181 108.546 41.467 108.742 41.832 108.938 42.196 109.036 42.616 109.036 43.09 109.036 43.565 108.938 43.985 108.742 44.349 108.546 44.713 108.277 44.999 107.933 45.207 107.59 45.414 107.197 45.518 106.754 45.518zM110.717 42.959L111.678 42.959C111.978 42.959 112.217 42.885 112.394 42.738 112.572 42.59 112.66 42.392 112.66 42.143 112.66 41.894 112.572 41.696 112.394 41.548 112.217 41.401 111.978 41.327 111.678 41.327L110.717 41.327 110.717 42.959zM110.717 43.533L110.717 45.442 110.018 45.442 110.018 40.739 111.678 40.739C112.199 40.739 112.612 40.864 112.916 41.116 113.221 41.367 113.373 41.71 113.373 42.143 113.373 42.47 113.28 42.747 113.096 42.973 112.912 43.199 112.658 43.358 112.335 43.45L113.476 45.442 112.681 45.442 111.609 43.533 110.717 43.533z"/>
    <polyline fill="#404040" points="117.17 45.442 115.06 43.07 115.06 45.442 114.362 45.442 114.362 40.739 115.06 40.739 115.06 42.8 117.031 40.739 117.896 40.739 115.8 42.897 118.048 45.442 117.17 45.442"/>
    <path fill="#009BFF" class='no-color-change' d="M5.037,9.992 C3.747,9.992 2.645,9.535 1.73,8.62 C0.814,7.705 0.357,6.603 0.357,5.313 C0.357,4.023 0.814,2.921 1.73,2.005 C2.645,1.09 3.747,0.633 5.037,0.633 C6.327,0.633 7.429,1.09 8.345,2.005 C9.259,2.921 9.717,4.023 9.717,5.313 C9.717,6.603 9.259,7.705 8.345,8.62 C7.429,9.535 6.327,9.992 5.037,9.992"/>
  </g>
</svg>
