<svg xmlns="http://www.w3.org/2000/svg" xmlns:xlink="http://www.w3.org/1999/xlink" width="719.969" height="167.969" viewBox="0 0 719.969 167.969">
  <defs>
    <style>
      .cls-1 {
        filter: url(#filter);
      }

      .cls-2 {
        fill: #fff;
        filter: url(#filter-2);
      }

      .cls-2, .cls-3 {
        fill-rule: evenodd;
      }

      .cls-3 {
        fill: #ccc;
      }
    </style>
    <filter id="filter" filterUnits="userSpaceOnUse">
      <feFlood result="flood" flood-color="#333"/>
      <feComposite result="composite" operator="in" in2="SourceGraphic"/>
      <feBlend result="blend" in2="SourceGraphic"/>
    </filter>
    <filter id="filter-2" x="352" y="151.969" width="367.969" height="16" filterUnits="userSpaceOnUse">
      <feFlood result="flood" flood-color="#999"/>
      <feComposite result="composite" operator="in" in2="SourceGraphic"/>
      <feBlend result="blend" in2="SourceGraphic"/>
    </filter>
  </defs>
  <g class="cls-1">
    <path id="USAT_Network" data-name="USAT Network" class="cls-2" d="M351.989,152.273h4.489c3.156,0,5.267,1.865,5.267,4.74s-2.155,4.736-5.267,4.736h-2.29v5.925h-2.2v-15.4Zm4.267,7.659c2.112,0,3.244-1.163,3.244-2.919,0-1.735-1.132-2.918-3.244-2.918h-2.068v5.837h2.068Zm11.768-7.659h1.956l6.4,15.4h-2.358l-1.6-4.035h-6.911l-1.6,4.035H361.6S367.244,154.162,368.024,152.273Zm3.665,9.544-1.488-3.794c-0.221-.572-1.179-2.943-1.2-3.139h-0.043c-0.022.2-.955,2.5-1.2,3.139l-1.51,3.794h5.443Zm6.924-9.544h4.51c2.91,0,5.178,1.5,5.178,4.563a4.293,4.293,0,0,1-3.955,4.346l4.778,6.492h-2.579l-4.51-6.276h-1.223v6.276h-2.2v-15.4Zm4.267,7.351c2.043,0,3.2-1.077,3.2-2.764s-1.157-2.765-3.2-2.765h-2.068v5.529h2.068Zm11.522-5.486h-4.445v-1.865h11.089v1.865H396.6v13.536h-2.2V154.138Zm12.347,5.838a8.2,8.2,0,1,1,8.2,8A7.862,7.862,0,0,1,406.749,159.976Zm14.133,0a5.946,5.946,0,1,0-5.955,6.053A5.772,5.772,0,0,0,420.882,159.976Zm5.433-7.7h7.867v1.865h-5.668V159.1H434v1.865h-5.49v6.713h-2.2v-15.4Zm17.815,1.865h-4.444v-1.865h11.088v1.865H446.33v13.536h-2.2V154.138Zm8.953-1.865h2.2v6.318h8.178v-6.318h2.2v15.4h-2.2v-7.218h-8.178v7.218h-2.2v-15.4Zm16.631,0h8.49v1.846h-6.29v4.472h6.11v1.846h-6.11v5.395h6.422v1.842h-8.622v-15.4Zm16,10.092V152.273h2.221v9.433c0,2.679,1.157,4.323,3.756,4.323,2.622,0,3.78-1.644,3.78-4.323v-9.433h2.221v10.092c0,3.38-2.2,5.616-6,5.616C487.865,167.981,485.71,165.745,485.71,162.365Zm14.274,2.524,1.491-1.25a4.52,4.52,0,0,0,3.911,2.433c1.709,0,3.044-.918,3.044-2.611,0-1.817-1.534-2.433-3.446-3.178-1.956-.769-3.933-1.736-3.933-4.193,0-2.432,1.912-4.12,4.712-4.12a5.249,5.249,0,0,1,4.579,2.322l-1.491,1.25a3.552,3.552,0,0,0-3.088-1.668c-1.512,0-2.511.769-2.511,2.063,0,1.6,1.554,2.13,2.911,2.654,2.2,0.856,4.466,1.889,4.466,4.716,0,2.679-2,4.674-5.2,4.674A6.064,6.064,0,0,1,499.984,164.889Zm18.241-12.616h1.956l6.4,15.4h-2.357l-1.6-4.035h-6.912l-1.6,4.035H511.8S517.446,154.162,518.225,152.273Zm3.665,9.544-1.487-3.794c-0.222-.572-1.179-2.943-1.2-3.139h-0.044c-0.022.2-.955,2.5-1.2,3.139l-1.51,3.794h5.443Zm13.978-7.679h-4.445v-1.865h11.088v1.865h-4.444v13.536h-2.2V154.138Zm7.469,5.838a8.2,8.2,0,1,1,8.2,8A7.861,7.861,0,0,1,543.337,159.976Zm14.132,0a5.945,5.945,0,1,0-5.954,6.053A5.772,5.772,0,0,0,557.469,159.976Zm5.434-7.7h4.423c4.977,0,8.265,2.807,8.265,7.7,0,4.87-3.312,7.7-8.265,7.7H562.9v-15.4Zm2.2,13.534h2.046c3.643,0,6.176-1.9,6.176-5.831s-2.533-5.838-6.176-5.838H565.1v11.669Zm17.637-13.534H584.7l6.4,15.4h-2.357l-1.6-4.035h-6.912l-1.6,4.035h-2.311S581.96,154.162,582.739,152.273Zm3.666,9.544-1.489-3.794c-0.221-.572-1.178-2.943-1.2-3.139h-0.044c-0.022.2-.955,2.5-1.2,3.139l-1.51,3.794h5.444Zm9.084-.419-5.312-9.125h2.467l2.889,5.135a22.887,22.887,0,0,1,1.11,2.192h0.022a23.153,23.153,0,0,1,1.113-2.192l2.91-5.135h2.4l-5.309,9.125v6.276h-2.289V161.4Zm14.062-9.125h1.687l8.846,9.982c0.266,0.288,1.422,1.711,1.534,1.932l0.044-.023c-0.044-.217-0.044-2-0.044-2.39v-9.5h2.134v15.4h-1.713l-8.845-9.983c-0.265-.283-1.422-1.711-1.532-1.928l-0.021.02c0.021,0.221.043,2,.043,2.394v9.5h-2.133v-15.4Zm18.253,0h8.487v1.846H630v4.472h6.113v1.846H630v5.395h6.422v1.842H627.8v-15.4Zm15.37,1.865h-4.445v-1.865h11.089v1.865h-4.445v13.536h-2.2V154.138Zm8.478-1.865h2.333l3.2,9.15c0.112,0.351.867,2.63,0.889,2.981h0.046a30.445,30.445,0,0,1,.933-2.981l3.334-9.15h1.756l3.331,9.15c0.134,0.351.911,2.63,0.936,2.981h0.044c0.044-.351.8-2.63,0.91-2.981l3.179-9.15h2.243l-5.49,15.4h-1.688l-3.6-9.607a25.578,25.578,0,0,1-.758-2.5h-0.044a25.421,25.421,0,0,1-.776,2.5l-3.578,9.607h-1.69Zm24.117,7.7a8.2,8.2,0,1,1,8.2,8A7.862,7.862,0,0,1,675.769,159.976Zm14.133,0a5.946,5.946,0,1,0-5.954,6.053A5.772,5.772,0,0,0,689.9,159.976Zm5.433-7.7h4.511c2.913,0,5.177,1.5,5.177,4.563a4.293,4.293,0,0,1-3.955,4.346l4.779,6.492h-2.579l-4.511-6.276h-1.223v6.276h-2.2v-15.4Zm4.267,7.351c2.044,0,3.2-1.077,3.2-2.764s-1.156-2.765-3.2-2.765h-2.068v5.529H699.6Zm8.736-7.351h2.2v7.154l6.444-7.154h2.666l-6.687,7.351,7,8.05h-2.755l-6.667-7.785v7.785h-2.2v-15.4Z"/>
    <path class="cls-3" d="M1.972,107.158H15.307V34.1H1.972v73.061Zm6.365-86.5H8.488a8.34,8.34,0,0,0,8.638-8.6A8.181,8.181,0,0,0,8.64,3.6,8.308,8.308,0,0,0,0,12.056,8.269,8.269,0,0,0,8.337,20.66Zm37.579-4.075V34.1H65.009V44.21H45.916v39.4c0,9.06,2.576,14.189,10,14.189a25.061,25.061,0,0,0,7.727-.9l0.605,10.113a36.463,36.463,0,0,1-11.818,1.812c-6.214,0-11.214-2.116-14.4-5.586-3.638-4.075-5.153-10.565-5.153-19.172V44.21H21.518V34.1H32.883V20.66ZM72.432-.02H85.768V45.569h0.3a23.7,23.7,0,0,1,9.546-9.36,26.045,26.045,0,0,1,13.638-3.774c9.85,0,25.61,6.038,25.61,31.248v43.475H121.529V65.192c0-11.925-4.394-21.738-16.971-21.738-8.638,0-15.305,6.039-17.881,13.284a16.019,16.019,0,0,0-.909,6.34v44.079H72.432V-0.02Zm128.2,89.667a122.255,122.255,0,0,0,1.06,17.51H189.717l-1.211-9.207h-0.455c-3.94,5.737-11.971,10.868-22.426,10.868-14.851,0-22.427-10.417-22.427-20.983,0-17.663,15.758-27.323,44.1-27.172V59.154c0-6.038-1.667-17.057-16.668-16.906-6.971,0-14.094,1.962-19.245,5.434l-3.031-8.906c6.061-3.774,15-6.341,24.246-6.341,22.578,0,28.033,15.247,28.033,29.89V89.648ZM187.6,69.872c-14.546-.3-31.065,2.264-31.065,16.454,0,8.756,5.759,12.681,12.426,12.681,9.7,0,15.911-6.038,18.034-12.228a13.608,13.608,0,0,0,.6-4.227V69.872Zm79.1,34.718a51.687,51.687,0,0,1-21.063,4.229c-22.124,0-36.518-14.947-36.518-37.437s15.456-38.947,39.4-38.947c7.88,0,14.85,1.963,18.487,3.925l-3.031,10.115A32.749,32.749,0,0,0,248.512,43C231.691,43,222.6,55.532,222.6,70.778c0,16.907,10.91,27.323,25.457,27.323a38.284,38.284,0,0,0,16.366-3.474Zm59.85-14.942a122.245,122.245,0,0,0,1.061,17.51H315.635l-1.212-9.207h-0.454c-3.941,5.737-11.971,10.868-22.427,10.868-14.851,0-22.427-10.417-22.427-20.983,0-17.663,15.758-27.323,44.095-27.172V59.154c0-6.038-1.666-17.057-16.668-16.906-6.97,0-14.093,1.962-19.245,5.434l-3.03-8.906c6.061-3.774,15-6.341,24.245-6.341,22.578,0,28.033,15.247,28.033,29.89V89.648ZM313.514,69.872c-14.547-.3-31.065,2.264-31.065,16.454,0,8.756,5.759,12.681,12.426,12.681,9.7,0,15.91-6.038,18.033-12.228a13.58,13.58,0,0,0,.606-4.227V69.872ZM348.365,20.66h0.152a8.252,8.252,0,0,0,8.637-8.6A8.181,8.181,0,0,0,348.668,3.6a8.307,8.307,0,0,0-8.636,8.453A8.267,8.267,0,0,0,348.365,20.66ZM342,95.537c0,17.508-1.516,23.4-5.153,27.471-3.182,3.474-8.335,5.132-14.547,5.587l1.515,10.414c7.122,0,16.821-2.414,22.73-8.3,6.516-6.643,8.788-15.851,8.788-30.043V34.1H342v61.44Zm57.43,13.282c-19.7,0-35.155-14.493-35.155-37.589,0-24.454,16.213-38.8,36.367-38.8,21.065,0,35.308,15.247,35.308,37.437,0,27.172-18.941,38.947-36.369,38.947h-0.151Zm0.456-9.965c12.727,0,22.274-11.924,22.274-28.528,0-12.378-6.212-27.928-21.972-27.928-15.609,0-22.427,14.493-22.427,28.381,0,16,9.09,28.075,21.971,28.075h0.154ZM506.563,87.232c0,7.549.152,14.189,0.605,19.926H495.351l-0.759-11.925h-0.305a27.4,27.4,0,0,1-24.244,13.586c-11.515,0-25.305-6.492-25.305-32V34.1h13.334V74.4c0,13.888,4.393,23.4,16.367,23.4,8.938,0,15.153-6.185,17.576-12.226a18.117,18.117,0,0,0,1.212-6.792V34.1h13.336V87.232Zm14.7-30.342c0-8.605-.151-16-0.6-22.794h11.665l0.608,14.339h0.453c3.336-9.811,11.518-16,20.458-16a14.12,14.12,0,0,1,3.638.453V45.266a43.566,43.566,0,0,0-4.7-.3c-9.394,0-16.062,7.1-17.881,16.908a41.605,41.605,0,0,0-.453,6.339v38.947H521.109Zm42.414-3.02c0-7.7-.15-13.736-0.6-19.774h11.817l0.758,11.925h0.3c3.638-6.794,12.125-13.587,24.247-13.587,10.152,0,25.912,6.038,25.912,31.1v43.626H612.77V65.042c0-11.775-4.393-21.738-16.971-21.738-8.636,0-15.455,6.19-17.881,13.587a19.746,19.746,0,0,0-.907,6.188v44.079H563.674V53.87Zm128.2,35.777a122.11,122.11,0,0,0,1.06,17.51H680.961l-1.211-9.207h-0.456c-3.941,5.737-11.971,10.868-22.426,10.868-14.85,0-22.428-10.417-22.428-20.983,0-17.663,15.76-27.323,44.1-27.172V59.154c0-6.038-1.668-17.057-16.669-16.906-6.971,0-14.092,1.962-19.244,5.434l-3.03-8.906c6.061-3.774,15-6.341,24.244-6.341,22.579,0,28.033,15.247,28.033,29.89V89.648ZM678.84,69.872c-14.548-.3-31.063,2.264-31.063,16.454,0,8.756,5.759,12.681,12.424,12.681,9.7,0,15.911-6.038,18.032-12.228a13.552,13.552,0,0,0,.607-4.227V69.872ZM705.659-.02H719V107.158H705.659V-0.02Z"/>
  </g>
</svg>
