<svg id="Jackson_TN" data-name="Jackson TN" xmlns="http://www.w3.org/2000/svg" xmlns:xlink="http://www.w3.org/1999/xlink" width="724" height="160" viewBox="0 0 724 160">
  <defs>
    <style>
      .cls-1 {
        fill: #0461c2;
        filter: url(#filter);
      }

      .cls-1, .cls-2 {
        fill-rule: evenodd;
      }

      .cls-2 {
        fill: #000;
        filter: url(#filter-2);
      }
    </style>
    <filter id="filter" x="-0.031" y="24" width="724.031" height="85.062" filterUnits="userSpaceOnUse">
      <feFlood result="flood" flood-color="#000"/>
      <feComposite result="composite" operator="in" in2="SourceGraphic"/>
      <feBlend result="blend" in2="SourceGraphic"/>
    </filter>
    <filter id="filter-2" x="349" y="119.969" width="367.969" height="16" filterUnits="userSpaceOnUse">
      <feFlood result="flood" flood-color="#999"/>
      <feComposite result="composite" operator="in" in2="SourceGraphic"/>
      <feBlend result="blend" in2="SourceGraphic"/>
    </filter>
  </defs>
  <path class="cls-1" d="M233.349,31.741c-0.564,4.064-6.044,3.273-9.166,4.833-2.053,1.027-2.832,2.663-4.853,3.223-5.978,9.184-2.354,25.884-5.39,35.975,0.169,7.56.072,15.75-4.316,20.946-4.541,5.375-14.761,8.417-21.026,3.759,13.942,1.337,11.316-14.138,11.862-24.7-1.6-2.124-5.147-4.187-7.549-3.758-3.894.7-2.508,4.09-5.393,5.908-3.271-9.221,1.04-21.8,11.863-18.794,0.553-9.654,4.052-16.371,12.4-18.259-3.987-4.551-16.685-9.442-22.644-3.758-1.816,1.765,1.817,3.6,0,5.369-7.485-2.67-1.382-11.767,4.851-15.036C206.844,20.7,225.01,24.768,233.349,31.741ZM94.781,33.888c-0.558,2.876-3.954,3.422-4.853,6.981-1.194,4.718,1.24,11.054-.54,16.111,5.39-2.506,8.668-7.119,13.48-10.2,5.443,2.788,10.305,7.632,18.332,4.833,0.658,4.1-5.193,5.764-6.47,9.667-0.256,8.769-3.126,18.263,0,25.775,1.415,2.172,4.845,2.338,5.391,5.371-4.849,2.329-7.554,6.8-11.861,9.667-14.293-3.767-7.961-22.6-7.549-35.442a31.385,31.385,0,0,0-10.783-5.371c-1.52,7.237-.913,15.256-1.079,25.775-0.072,1.866,2.731.861,2.7,2.688,0.033,7.189-5.27,9.068-9.166,12.35-3.626-1.224-6.134-3.557-9.166-5.371-2.659-.782-5.472,1.9-6.47-0.537,1.1-3.872,7.409-4.3,8.087-9.129,0.928-6.586.674-18.978,1.08-29,0.188-4.674.48-11.426,0-13.425-0.851-3.546-5.351-5.056-4.853-8.054,0.424-2.537,3.927-2.251,6.47-4.3,2.275-1.831,2.957-6.492,5.933-6.981C88.636,24.445,91.617,31.157,94.781,33.888Zm252.874,0c-5.421,3.551-3.4,14.511-4.313,22.555,5.721-1,8.109-8.015,13.479-8.054,4.3-.033,10.816,7.455,13.479,10.2-3.905,3.448-8.894,5.823-12.939,9.129,9.57,0.673,8.578,11.863,9.166,21.477,3.089,1.613,4.563-1.49,7.007-2.146-1.913,6.865-7.455,10.117-11.32,15.037h-5.933c-8.641-4.641,2.01-25.233-12.4-24.167-1.808,4.239-1.777,11.59,2.157,15.038-2.6,4.388-7.608,6.385-10.783,10.2-4.763-.987-7.148-4.339-10.786-6.446-3.286-1.053-4.835,1.639-5.93,1.075,0.182-5.021,6.666-4.6,8.087-9.667,1.036-3.684.257-10.148,0.54-15.038,0.636-10.958.118-23.247,0-32.757-2-1.228-4.373-2.089-5.391-4.3,2.436-4.912,8.46-6.249,11.321-10.74A31.962,31.962,0,0,1,347.655,33.888ZM344.419,60.2c-2.2,2.823-.586,9.442-1.077,13.963,4.067-2.753,8.933-4.707,11.862-8.592C350.77,64.617,349.175,60.835,344.419,60.2ZM65.666,40.332C64.95,48.393,59,51.238,51.106,52.147c-0.2,9.389-1.319,24.447-1.079,38.667,5.636,0.271,10.816-4.873,12.942-9.667,1.033-2.334.018-6.616,3.234-7.521C67.55,86.173,52.855,96.071,44.1,103.164,21.221,112.984.28,97.588,0.425,76.314,0.547,57.99,13.6,53.821,26.3,46.776c-3.828-5.657-13.664-7.685-19.41-3.221,2.2,2.29,3.87,7.04,1.617,10.74-14.9.645-7.271-11.917,0-17.721,5.221-4.167,12.683-8.188,19.949-8.592,13.666-.761,21.674,9.6,30.2,11.814C61.21,39.491,63.965,38.683,65.666,40.332ZM20.374,87.589c8.269,0.153,10.2-8.784,9.166-16.108-0.419-.122-1.064-0.017-1.079-0.537-4.368-1.337-3.861,4.541-6.47,3.221C21.906,68,21.1,57.531,29.54,56.98c-0.235-2.452.544-5.913-.54-7.519C13.033,48.952,12.136,78.656,20.374,87.589Zm5.391,3.225c3.929,3.75,16.248,3.522,21.568,1.071,0.242-13.919,1.345-25.222.538-39.2H46.254C46.21,72.154,41.971,87.44,25.765,90.814Zm573.147-52.63c-4.015-7.169,5.257-11.587,8.626-5.369-2.185,9.638-9.776,13.889-14.559,20.942,15.788,1.752,25.529,17.317,15.639,31.682-6.679,9.7-26.77,13-34.506,22.021-3.756-1.363-7.591-5.2-11.325-6.983-1.834-.879-5.709-2.352-7.547-2.146-6.13.682-7.223,10.073-12.4,10.737-0.922.118-5.187-.489-5.933-3.758-1.035-4.51,4.195-9.4,8.087-11.813,6.174-3.828,14.989-1.809,17.253-8.592-10.215-1.049-20.614-1.9-20.487-12.35,0.066-5.421,3.866-10.054,9.706-11.817,0.215-3.258-1.479-4.613-2.159-6.981,0.215-18.4,22.957-14.367,31.272-24.7C587.648,30.849,589.833,40.16,598.912,38.184Zm-30.193.538c-1.3,1.211-3.282,1.744-4.313,3.223v6.444c1.136,7.272,23.729,9.3,26.959,2.683C581.694,49.068,573.66,45.437,568.719,38.722ZM552.541,66.11c1.7,5.511,20.465,6.35,23.725,2.686-8.885-.636-17.937-1.108-22.646-5.908h-1.079C552.84,63.848,552.159,64.862,552.541,66.11Zm48.53,10.2c-1.817-7.082-11.878-8.729-21.571-6.983,0.061,0.655.162,1.272,1.079,1.075,11.268-.627,17.569,5.1,16.179,13.425-1,5.978-7.556,7.316-9.706,12.35C595.283,93.838,603.681,86.5,601.071,76.314Zm-17.258,9.667c-4.374.546-17.082-4.711-19.947,2.683,8.291,1.378,13.749,5.425,19.412,7.517C586.13,93.935,586.7,88.459,583.813,85.981Zm-42.592,18.254c6.551,0.8,7.507-3.977,10.245-6.979C546.029,94.7,540.14,99.225,541.221,104.235ZM244.672,31.2c-0.276,3.844-4.013,4.239-5.932,6.444-5.7,14.393.158,33.834-7.008,48.334-9.282,18.778-41.16,31.115-58.771,10.737-0.557-2.845-1.658-5.152-2.156-8.054,1.988-10.453,16.542-11.31,18.332-2.15,0.77,3.946-3.133,12.617-9.706,10.742,7.188,10.781,26.154,6.651,31.812,1.613,12.565-11.2,7.3-33.135,9.166-49.407,1.374-11.979,12.183-14.057,22.646-18.794C243.834,30.314,244.053,31.328,244.672,31.2ZM411.279,50.537c3.62-.151,2.544-4.984,6.467-4.834,1.584,7.285-10.022,10.307-11.86,17.721,3.493,1.89,8.807,1.969,10.785,5.371-1.812,5.176-.149,14.8-0.539,20.944-2.058,2.05-4.208.874-6.473,1.608-11.224,3.653-18.49,17.5-31.272,6.446-3,.017-3.606,4.794-7.007,2.684,3.3-5.835,8.763-9.532,11.86-15.571-12.444-1.993-5.853-16.156-7.547-25.777,6.45-3.23,16.981-10.211,23.721-13.425C403.157,43.918,407.022,50.054,411.279,50.537ZM390.787,72.556c1.3-.223,1.176.979,2.7,0.533,2.852-2.526,4.62-6.136,7.547-8.592-1.97-3.229-6.885-3.522-10.246-5.369C390.844,65.83,389.945,67.738,390.787,72.556Zm-3.233,12.883c4.835,2.167,8.464,5.532,14.019,6.983V78.46C395,73.237,389.581,79.928,387.554,85.439ZM142.766,74.164V84.906c1.879,2.246,4.733,3.522,7.55,4.834,3.31-.284,3.109-4.064,7.009-3.758-0.748,3.243-4.874,5.24-8.089,8.592-2.521,2.626-5.489,7.211-8.626,7.517-4.928.477-7.87-4.877-12.4-6.983-2.789-.271-2.714,2.312-5.933,1.613-0.107-3.509,3.28-3.535,4.853-5.371,1.391-10.873,1.453-21.007-.539-29.534-1.11-4.757,18.238-11.017,21.028-15.573,6.74,1.075,12.951,6.96,12.4,12.35C159.46,64.1,146.56,71.249,142.766,74.164Zm0-4.3c2.905-.507,3.9-2.924,5.933-4.3-0.77-2.635-4.215-2.607-5.933-4.3v8.592ZM321.775,56.98c-0.9,2.967-3.356,5.974-5.392,8.592-1.819,2.34-4.07,6.24-7.01,5.908-0.48-3.166,2.328-3.053,2.7-5.371a34.389,34.389,0,0,0-8.626-8.056c-0.524,11.028-1.13,19.939-1.079,30.611,1.766,2,6.134,1.407,7.549,3.758,4.883-1.582,6.621-6.293,10.243-9.129,0.264,4.252-4.107,7.967-7.009,10.737-3.175,3.037-7.341,5.292-10.244,8.058-6.456,1.8-9.842-3.688-14.559-5.371-2.8-.712-3.341,2.723-5.39,1.075,7.4-6.726,6.165-26.675,3.234-37.592,6.867-5.152,15.822-8.227,22.645-13.425C315.437,47.9,318.175,52.868,321.775,56.98Zm119.7,47.255c-4.668-2.329-9.376-4.624-14.019-6.979-3.313.087-4.234,4.252-7.547,2.683-0.21-3.785,3.041-4.134,4.313-6.442,1.76-10.676,2.212-21.418,0-32.221,8.311-5.19,15.055-10.076,23.186-13.963,2.8-1.339,18.161,7.325,19.407,10.74a24.388,24.388,0,0,1,.54,3.223c0.671,8.085.948,24.9-2.155,29-2.11,2.788-8.156,4.956-11.864,6.984C449.137,99.55,445.3,101.906,441.471,104.235Zm-1.079-17.721c2.778,1.613,8.126,3.256,10.785,3.225-0.276-9.029.979-16.327,0-24.7-2.224-2.259-6.928-2.05-9.706-3.758C440.594,71.935,441.129,78.98,440.392,86.514ZM274.865,54.295c3.209,0.332,2.356-3.382,5.932-2.685,1.172,2.607-2.933,4.1-4.313,5.909-1.558,11.065-.676,19.456-1.619,31.679,0.368,1.066,1.643,1.233,2.156,2.15,4.2,1.141,3.12-2.98,6.473-2.683,0.155,2.272-8.206,13.32-11.863,13.963-4.43.778-6.481-3.208-10.246-5.371-4.682,1.958-8.984,4.3-14.556,5.371-5.189-2.714-9.579-9.077-10.246-14.5,3.056-5.118,9.063-4.016,14.019-6.979-5.912-3.19-9.293-11.937-7.547-17.186,1.42-4.272,12.514-14.017,18.87-15.573,2.023-.5,4.041.393,5.393,0C269.724,50.464,271.506,53.165,274.865,54.295Zm-23.723,4.834c-6.161,1.61-4.436,16.687-.54,19.331,2.694,1.831,5.4.7,9.706,1.075,0.228-5.41,1.235-12,0-17.186C255.721,61.263,254.6,58.224,251.142,59.128Zm0.54,24.165c1.625,4.514,3.986,11,8.086,11.279,1.253-2.875.185-8.05,0.54-11.817C258.011,81.934,253.279,81.794,251.682,83.293ZM494.31,58.053c4.563-2.078,7.674-5.6,11.325-8.592,5.173-.407,9.118,5.391,13.479,5.371,2.594-.011,3.234-2.618,5.933-2.148,0.781,3.206-2.9,4.575-3.778,7.517-2.681,8.972.842,21.287-1.075,30.071,1.36,2.67,4.813-.079,6.468,2.15-3.3,4.23-7.71,7.355-11.861,10.742-15.432-.454-10.245-25.05-9.166-35.981-3.089-1.938-5.858-4.191-10.246-4.834-2.435,7.242-.417,18.917-1.079,27.923,0.772,1.56,3.339,1.333,4.313,2.688-4,3.356-8.135,6.573-11.86,10.2-5.669-1.455-10.689-6.144-15.634-3.763,0.272-4.2,4.16-4.8,6.468-6.979,1.206-8,2.716-20.575.539-28.461-1.584-1.289-3.427-2.314-4.313-4.3C477.588,51.78,491.34,43.481,494.31,58.053ZM634.5,88.664a16.872,16.872,0,0,0,8.627,4.3c3.321-7.63,1.448-20.1,2.159-29-1.339-1.176-3.98-1.051-4.314-3.223,1.677-5.13,6.63-7,10.242-10.2,4.927,1.538,7.538,5.382,11.864,7.516-2.825,9.18-1.2,22.788-1.619,34.369,2.242,1.94,4.226-2.474,6.472-.538-3.462,4.611-8.613,7.53-11.865,12.35-7.849,1.2-8.183-5.091-10.78-9.129-4.853,1.975-6.819,6.813-11.325,9.129-5.345-1.656-9.439-4.558-14.555-6.442-2.751-.393-3.146,4.362-5.392,2.684-1.993-3.3,4.677-4.471,5.927-9.663,0.808-3.348,1.3-21.178,0-24.7-1.105-3.007-4.317-3.339-4.313-5.908,4.485-2.323,6.705-9.992,12.4-9.664C640.044,51.225,632.738,78.691,634.5,88.664Zm55-28.463c6.906-.562,7.832-9.046,13.479-9.664,3.589-.4,6.692,5.181,11.321,5.369,3.128,0.129,3.567-2.277,7.551-2.148-0.083,3.14-3.054,3.4-4.313,5.371-0.645,8.972-.794,20.354-1.079,31.144,0.157,1.1,1.456,1.058,1.619,2.15C720.986,93,721.28,90.967,724,91.347c-2.8,5.659-9.026,8.8-13.48,13.425-14.357-2.692-7.143-22.585-9.166-36.514-2.4-2.264-6.652-2.683-9.706-4.3-0.878,8.716-5.1,27.123,3.238,30.611-2.733,3.365-5.879,6.315-8.626,9.663-5.3-.625-7.776-4.069-12.4-5.367-3.054-.184-2.9,2.832-5.388,3.221-1.444-5,4.3-5.34,5.928-9.129,1.044-2.434-.1-5.563,0-8.592,0.206-5.825,1.9-12.486,1.079-19.334-0.776-2.089-3.6-2.137-5.392-3.221,0.022-3.656,7.02-8.255,9.706-11.277C682.614,47.357,689.723,56.5,689.5,60.2Z"/>
  <path id="USAT_Network" data-name="USAT Network" class="cls-2" d="M348.989,120.273h4.489c3.156,0,5.267,1.865,5.267,4.741s-2.155,4.735-5.267,4.735h-2.29v5.925h-2.2v-15.4Zm4.267,7.659c2.112,0,3.244-1.163,3.244-2.918,0-1.736-1.132-2.919-3.244-2.919h-2.068v5.837h2.068Zm11.768-7.659h1.955l6.4,15.4h-2.358l-1.6-4.035h-6.911l-1.6,4.035H358.6S364.244,122.162,365.024,120.273Zm3.665,9.544-1.488-3.794c-0.222-.572-1.179-2.942-1.2-3.139h-0.043c-0.022.2-.955,2.5-1.2,3.139l-1.51,3.794h5.443Zm6.924-9.544h4.51c2.91,0,5.178,1.5,5.178,4.563a4.293,4.293,0,0,1-3.955,4.346l4.778,6.492h-2.579l-4.51-6.276h-1.223v6.276h-2.2v-15.4Zm4.267,7.351c2.043,0,3.2-1.077,3.2-2.764s-1.157-2.765-3.2-2.765h-2.068v5.529h2.068Zm11.522-5.486h-4.445v-1.865h11.089v1.865H393.6v13.536h-2.2V122.138Zm12.347,5.838a8.2,8.2,0,1,1,8.2,8A7.862,7.862,0,0,1,403.749,127.976Zm14.133,0a5.946,5.946,0,1,0-5.955,6.053A5.772,5.772,0,0,0,417.882,127.976Zm5.433-7.7h7.867v1.865h-5.668V127.1H431v1.865h-5.49v6.713h-2.2v-15.4Zm17.815,1.865h-4.444v-1.865h11.088v1.865H443.33v13.536h-2.2V122.138Zm8.953-1.865h2.2v6.318h8.178v-6.318h2.2v15.4h-2.2v-7.218h-8.178v7.218h-2.2v-15.4Zm16.631,0h8.49v1.846h-6.29v4.472h6.11v1.846h-6.11v5.395h6.422v1.842h-8.622v-15.4Zm16,10.092V120.273h2.221v9.433c0,2.679,1.157,4.323,3.756,4.323,2.622,0,3.78-1.644,3.78-4.323v-9.433h2.221v10.092c0,3.38-2.2,5.616-6,5.616C484.865,135.981,482.71,133.745,482.71,130.365Zm14.274,2.524,1.491-1.25a4.52,4.52,0,0,0,3.911,2.433c1.709,0,3.044-.918,3.044-2.611,0-1.817-1.534-2.433-3.446-3.178-1.956-.769-3.933-1.736-3.933-4.193,0-2.432,1.912-4.12,4.712-4.12a5.249,5.249,0,0,1,4.579,2.322l-1.491,1.25a3.552,3.552,0,0,0-3.088-1.668c-1.512,0-2.511.769-2.511,2.063,0,1.6,1.554,2.13,2.911,2.654,2.2,0.856,4.466,1.889,4.466,4.716,0,2.679-2,4.674-5.2,4.674A6.064,6.064,0,0,1,496.984,132.889Zm18.241-12.616h1.956l6.4,15.4h-2.357l-1.6-4.035h-6.912l-1.6,4.035H508.8S514.446,122.162,515.225,120.273Zm3.665,9.544-1.487-3.794c-0.222-.572-1.179-2.942-1.2-3.139h-0.044c-0.022.2-.955,2.5-1.2,3.139l-1.51,3.794h5.443Zm13.978-7.679h-4.445v-1.865h11.088v1.865h-4.444v13.536h-2.2V122.138Zm7.469,5.838a8.2,8.2,0,1,1,8.2,8A7.861,7.861,0,0,1,540.337,127.976Zm14.132,0a5.945,5.945,0,1,0-5.954,6.053A5.772,5.772,0,0,0,554.469,127.976Zm5.434-7.7h4.423c4.977,0,8.265,2.808,8.265,7.7,0,4.87-3.312,7.7-8.265,7.7H559.9v-15.4Zm2.2,13.534h2.046c3.643,0,6.176-1.9,6.176-5.831s-2.533-5.838-6.176-5.838H562.1v11.669Zm17.637-13.534H581.7l6.4,15.4h-2.357l-1.6-4.035h-6.912l-1.6,4.035h-2.311S578.96,122.162,579.739,120.273Zm3.666,9.544-1.489-3.794c-0.221-.572-1.178-2.942-1.2-3.139h-0.044c-0.022.2-.955,2.5-1.2,3.139l-1.51,3.794h5.444Zm9.084-.419-5.312-9.125h2.467l2.889,5.135a22.887,22.887,0,0,1,1.11,2.192h0.022a23.153,23.153,0,0,1,1.113-2.192l2.91-5.135h2.4l-5.309,9.125v6.276h-2.289V129.4Zm14.062-9.125h1.687l8.846,9.982c0.266,0.288,1.422,1.711,1.534,1.932l0.044-.023c-0.044-.217-0.044-2-0.044-2.39v-9.5h2.134v15.4h-1.713l-8.845-9.983c-0.265-.283-1.422-1.711-1.532-1.928l-0.022.02c0.022,0.221.044,2,.044,2.394v9.5h-2.133v-15.4Zm18.253,0h8.487v1.846H627v4.472h6.113v1.846H627v5.395h6.422v1.842H624.8v-15.4Zm15.37,1.865h-4.445v-1.865h11.089v1.865h-4.445v13.536h-2.2V122.138Zm8.478-1.865h2.333l3.2,9.15c0.112,0.351.867,2.63,0.889,2.981h0.046a30.445,30.445,0,0,1,.933-2.981l3.334-9.15h1.756l3.332,9.15c0.133,0.351.91,2.63,0.935,2.981h0.044c0.044-.351.8-2.63,0.91-2.981l3.179-9.15h2.243l-5.49,15.4h-1.688l-3.6-9.607a25.578,25.578,0,0,1-.758-2.5h-0.044a25.693,25.693,0,0,1-.776,2.5l-3.578,9.607h-1.69Zm24.117,7.7a8.2,8.2,0,1,1,8.2,8A7.862,7.862,0,0,1,672.769,127.976Zm14.133,0a5.946,5.946,0,1,0-5.955,6.053A5.772,5.772,0,0,0,686.9,127.976Zm5.433-7.7h4.511c2.913,0,5.177,1.5,5.177,4.563a4.293,4.293,0,0,1-3.955,4.346l4.779,6.492h-2.579l-4.511-6.276h-1.222v6.276h-2.2v-15.4Zm4.267,7.351c2.044,0,3.2-1.077,3.2-2.764s-1.156-2.765-3.2-2.765h-2.067v5.529H696.6Zm8.736-7.351h2.2v7.154l6.444-7.154h2.666l-6.687,7.351,7,8.05h-2.754l-6.668-7.785v7.785h-2.2v-15.4Z"/>
</svg>
