<svg xmlns="http://www.w3.org/2000/svg" xmlns:xlink="http://www.w3.org/1999/xlink" width="800" height="160" viewBox="0 0 800 160">
  <defs>
    <style>
      .cls-1, .cls-2 {
        fill: #000;
        fill-rule: evenodd;
      }

      .cls-2 {
        filter: url(#filter);
      }
    </style>
    <filter id="filter" x="19" y="114.969" width="367.969" height="16" filterUnits="userSpaceOnUse">
      <feFlood result="flood" flood-color="#999"/>
      <feComposite result="composite" operator="in" in2="SourceGraphic"/>
      <feBlend result="blend" in2="SourceGraphic"/>
    </filter>
  </defs>
  <path id="C-L" class="cls-1" d="M21.27,35.264H0.47V30.352h46.9v4.912h-20.8V99.316h-5.3V35.264Zm31.3-4.912h5.1V57.27h0.2c2.748-4.127,7.457-7.662,15.208-7.662,11.087,0,18.739,6.679,18.739,19.254V99.316h-5.1V70.139c0-11.1-5.4-16.112-13.835-16.112-8.829,0-15.207,5.5-15.207,16.5V99.316h-5.1V30.352Zm46.8,44.6c0-11.886,7.358-25.345,23.743-25.345,15.894,0,23.155,12.672,23.155,25.444v0.2H104.375c0.1,10.9,6.671,20.827,18.838,20.827,8.143,0,14.128-4.421,17.463-11.1l4.318,2.358c-4.416,8.644-12.952,13.163-22.174,13.163C107.416,100.494,99.371,87.429,99.371,74.952Zm41.8-4.026c-1.374-10.119-8.438-17-18.151-17-10.2,0-16.876,7.368-18.347,17h36.5Zm14.523-6.092c0-20.925,14.717-35.856,36.3-35.856,8.242,0,14.227,1.963,18.053,4.519V47.936c-3.924-3.438-9.712-5.8-17.071-5.8C179.924,42.14,171,51.08,171,64.833s8.831,22.693,21.978,22.693c7.359,0,13.834-2.063,17.856-5.991V95.878c-3.826,2.653-10.5,4.813-18.838,4.813C170.211,100.691,155.69,85.857,155.69,64.833ZM217.5,30.352H231.73V99.316H217.5V30.352Zm19.427,44.306c0-14.047,9.909-25.05,24.43-25.05a19.008,19.008,0,0,1,16.287,8.153h0.2V50.786h13.344v48.53H277.844V92.341h-0.2a19.008,19.008,0,0,1-16.287,8.153C243.505,100.494,236.931,86.348,236.931,74.658Zm40.227,0.393c0-7.269-4.612-13.753-12.952-13.753s-12.852,6.385-12.852,13.753c0,7.565,5,13.753,12.852,13.753C272.154,88.8,277.158,82.616,277.158,75.051Zm22.077-24.265h13.343v7.466h0.2c2.649-5.109,6.77-8.644,13.343-8.644a14.335,14.335,0,0,1,4.71.688V63.066a18.613,18.613,0,0,0-5.985-.983c-7.359,0-11.382,4.519-11.382,12.869V99.316H299.235V50.786Zm33.752-13.262a8.116,8.116,0,0,1,8.437-8.056c4.808,0,8.537,3.438,8.537,8.056s-3.729,8.056-8.537,8.056A8.117,8.117,0,0,1,332.987,37.524Zm1.373,13.262h14.227v48.53H334.36V50.786Zm19.428,24.265c0-12.084,8.929-25.444,26.981-25.444s26.982,13.36,26.982,25.444-8.929,25.443-26.982,25.443S353.788,87.135,353.788,75.051Zm39.833,0c0-8.252-5.688-13.556-12.852-13.556s-12.853,5.3-12.853,13.557,5.692,13.556,12.853,13.556S393.621,83.3,393.621,75.051Zm19.331-24.265H426.3v6.582h0.2c3.041-4.322,7.554-7.76,15.6-7.76,12.853,0,18.838,8.251,18.838,21.122V99.316H446.8V72.889c0-6.778-1.964-11.887-9.224-11.887s-10.4,5.011-10.4,11.986V99.316H412.952V50.786Zm53.769,11h26.193V74.854H466.721V61.789Zm33.555-31.437h14.912V86.938h22.176V99.316H500.276V30.352Zm38.56,44.7c0-11.3,6.867-25.444,26-25.444s25.51,14.146,25.51,25.05a19.163,19.163,0,0,1-.294,3.537H552.963c0.687,7.662,7.164,11.3,14.226,11.3,6.477,0,10.7-2.75,13.149-6.188l7.848,8.056c-4.021,5.4-11.38,9.135-21.684,9.135C547.47,100.494,538.836,87.626,538.836,75.051Zm37.772-5.207c-1.374-6.681-6.081-9.922-11.773-9.922s-10.5,3.241-11.872,9.922h23.645ZM592.7,74.658c0-14.047,9.907-25.05,24.43-25.05,8.142,0,12.952,3.732,15.5,7.466h0.1V30.352h14.226V99.316H633.613V92.341h-0.2a19.007,19.007,0,0,1-16.286,8.153C599.275,100.494,592.7,86.348,592.7,74.658Zm40.224,0.393c0-7.269-4.609-13.753-12.948-13.753s-12.855,6.385-12.855,13.753c0,7.565,5,13.753,12.855,13.753C627.924,88.8,632.926,82.616,632.926,75.051ZM655.3,111.694l6.18-9.431c3.239,3.438,8.339,5.6,14.817,5.6,7.355,0,14.912-3.045,14.912-12.378V92.047h-0.2c-3.14,4.223-8.045,7.367-15.794,7.367-15.9,0-23.057-12.082-23.057-24.853,0-13.165,7.554-24.953,23.057-24.953,8.241,0,13.44,3.438,16.679,8.35h0.2V50.786h13.344V93.52c0,15.719-9.224,25.249-27.864,25.249C667.564,118.768,659.519,116.016,655.3,111.694Zm36.2-37.233c0-7.563-5-13.163-12.559-13.163-7.358,0-12.459,5.6-12.459,13.163,0,7.662,5.1,13.165,12.459,13.165C686.5,87.626,691.5,82.123,691.5,74.461Zm19.131,0.59c0-11.3,6.871-25.444,26-25.444s25.51,14.146,25.51,25.05a18.889,18.889,0,0,1-.3,3.537H724.765c0.686,7.662,7.16,11.3,14.225,11.3,6.474,0,10.693-2.75,13.146-6.188l7.851,8.056c-4.024,5.4-11.383,9.135-21.683,9.135C719.268,100.494,710.634,87.626,710.634,75.051Zm37.775-5.207c-1.373-6.681-6.084-9.922-11.773-9.922s-10.5,3.241-11.871,9.922h23.644Zm18.937-19.058H780.69v7.466h0.195c2.651-5.109,6.771-8.644,13.344-8.644a14.353,14.353,0,0,1,4.711.688V63.066a18.617,18.617,0,0,0-5.985-.983c-7.359,0-11.383,4.519-11.383,12.869V99.316H767.346V50.786Z"/>
  <path id="USAT_Network" data-name="USAT Network" class="cls-2" d="M18.989,115.273h4.488c3.156,0,5.268,1.865,5.268,4.741s-2.155,4.735-5.268,4.735H21.188v5.925h-2.2v-15.4Zm4.267,7.659c2.112,0,3.244-1.163,3.244-2.918,0-1.736-1.132-2.919-3.244-2.919H21.188v5.837h2.067Zm11.768-7.659H36.98l6.4,15.4H41.022l-1.6-4.035H32.513l-1.6,4.035H28.6S34.244,117.162,35.024,115.273Zm3.665,9.544L37.2,121.023c-0.221-.572-1.178-2.942-1.2-3.139H35.957c-0.022.2-.955,2.5-1.2,3.139l-1.51,3.794h5.443Zm6.923-9.544h4.51c2.91,0,5.178,1.5,5.178,4.563a4.293,4.293,0,0,1-3.955,4.346l4.778,6.492H53.545l-4.51-6.276H47.812v6.276h-2.2v-15.4Zm4.267,7.351c2.044,0,3.2-1.077,3.2-2.764s-1.157-2.765-3.2-2.765H47.812v5.529H49.88ZM61.4,117.138H56.957v-1.865H68.046v1.865H63.6v13.536H61.4V117.138Zm12.348,5.838a8.2,8.2,0,1,1,8.2,8A7.862,7.862,0,0,1,73.75,122.976Zm14.133,0a5.946,5.946,0,1,0-5.955,6.053A5.773,5.773,0,0,0,87.882,122.976Zm5.433-7.7h7.867v1.865H95.514V122.1H101v1.865h-5.49v6.713h-2.2v-15.4Zm17.815,1.865h-4.444v-1.865h11.088v1.865H113.33v13.536h-2.2V117.138Zm8.953-1.865h2.2v6.318h8.178v-6.318h2.2v15.4h-2.2v-7.218h-8.178v7.218h-2.2v-15.4Zm16.631,0h8.49v1.846h-6.29v4.472h6.11v1.846h-6.11v5.395h6.422v1.842h-8.622v-15.4Zm16,10.092V115.273h2.221v9.433c0,2.679,1.157,4.323,3.756,4.323,2.622,0,3.78-1.644,3.78-4.323v-9.433h2.221v10.092c0,3.38-2.2,5.616-6,5.616C154.865,130.981,152.71,128.745,152.71,125.365Zm14.274,2.524,1.491-1.25a4.52,4.52,0,0,0,3.911,2.433c1.709,0,3.044-.918,3.044-2.611,0-1.817-1.534-2.433-3.446-3.178-1.956-.769-3.933-1.736-3.933-4.193,0-2.432,1.912-4.12,4.712-4.12a5.249,5.249,0,0,1,4.579,2.322l-1.491,1.25a3.552,3.552,0,0,0-3.088-1.668c-1.512,0-2.511.769-2.511,2.063,0,1.6,1.554,2.13,2.911,2.654,2.2,0.856,4.466,1.889,4.466,4.716,0,2.679-2,4.674-5.2,4.674A6.064,6.064,0,0,1,166.984,127.889Zm18.241-12.616h1.956l6.4,15.4h-2.357l-1.6-4.035h-6.912l-1.6,4.035H178.8S184.446,117.162,185.225,115.273Zm3.665,9.544-1.487-3.794c-0.222-.572-1.179-2.942-1.2-3.139h-0.044c-0.022.2-.955,2.5-1.2,3.139l-1.51,3.794h5.443Zm13.978-7.679h-4.445v-1.865h11.088v1.865h-4.444v13.536h-2.2V117.138Zm7.469,5.838a8.2,8.2,0,1,1,8.2,8A7.861,7.861,0,0,1,210.337,122.976Zm14.132,0a5.945,5.945,0,1,0-5.954,6.053A5.772,5.772,0,0,0,224.469,122.976Zm5.434-7.7h4.423c4.977,0,8.265,2.808,8.265,7.7,0,4.87-3.312,7.7-8.265,7.7H229.9v-15.4Zm2.2,13.534h2.046c3.643,0,6.176-1.9,6.176-5.831s-2.533-5.838-6.176-5.838H232.1v11.669Zm17.637-13.534H251.7l6.4,15.4h-2.357l-1.6-4.035h-6.912l-1.6,4.035h-2.311S248.96,117.162,249.739,115.273Zm3.666,9.544-1.489-3.794c-0.221-.572-1.178-2.942-1.2-3.139h-0.044c-0.022.2-.955,2.5-1.2,3.139l-1.51,3.794h5.444Zm9.084-.419-5.312-9.125h2.467l2.889,5.135a22.887,22.887,0,0,1,1.11,2.192h0.022a23.153,23.153,0,0,1,1.113-2.192l2.91-5.135h2.4l-5.309,9.125v6.276h-2.289V124.4Zm14.062-9.125h1.687l8.846,9.982c0.266,0.288,1.422,1.711,1.534,1.932l0.044-.023c-0.044-.217-0.044-2-0.044-2.39v-9.5h2.134v15.4h-1.713l-8.845-9.983c-0.265-.283-1.422-1.711-1.532-1.928l-0.021.02c0.021,0.221.043,2,.043,2.394v9.5h-2.133v-15.4Zm18.253,0h8.487v1.846H297v4.472h6.113v1.846H297v5.395h6.422v1.842H294.8v-15.4Zm15.37,1.865h-4.445v-1.865h11.089v1.865h-4.445v13.536h-2.2V117.138Zm8.477-1.865h2.334l3.2,9.15c0.112,0.351.867,2.63,0.889,2.981h0.046a30.445,30.445,0,0,1,.933-2.981l3.334-9.15h1.756l3.332,9.15c0.133,0.351.91,2.63,0.935,2.981h0.044c0.044-.351.8-2.63,0.91-2.981l3.179-9.15h2.243l-5.49,15.4h-1.688l-3.6-9.607a25.578,25.578,0,0,1-.758-2.5h-0.044a25.421,25.421,0,0,1-.776,2.5l-3.578,9.607h-1.69Zm24.118,7.7a8.2,8.2,0,1,1,8.2,8A7.862,7.862,0,0,1,342.769,122.976Zm14.133,0a5.946,5.946,0,1,0-5.955,6.053A5.772,5.772,0,0,0,356.9,122.976Zm5.433-7.7h4.511c2.913,0,5.177,1.5,5.177,4.563a4.293,4.293,0,0,1-3.955,4.346l4.779,6.492h-2.579l-4.511-6.276h-1.222v6.276h-2.2v-15.4Zm4.267,7.351c2.044,0,3.2-1.077,3.2-2.764s-1.156-2.765-3.2-2.765h-2.067v5.529H366.6Zm8.736-7.351h2.2v7.154l6.444-7.154h2.666l-6.687,7.351,7,8.05h-2.754l-6.668-7.785v7.785h-2.2v-15.4Z"/>
</svg>
