<svg xmlns="http://www.w3.org/2000/svg" width="322" height="46" viewBox="0 0 322 46">
  <g fill="none" fill-rule="evenodd">
    <path fill="#FFFFFF" d="M4.128 43.002L5.126 43.002C5.454 43.002 5.713 42.921 5.904 42.759 6.095 42.598 6.19 42.378 6.19 42.099 6.19 41.82 6.095 41.6 5.904 41.438 5.713 41.277 5.454 41.196 5.126 41.196L4.128 41.196 4.128 43.002zM3.386 45.563L3.386 40.572 5.126 40.572C5.684 40.572 6.127 40.709 6.454 40.983 6.782 41.257 6.946 41.629 6.946 42.099 6.946 42.564 6.782 42.932 6.454 43.204 6.127 43.475 5.684 43.611 5.126 43.611L4.128 43.611 4.128 45.563 3.386 45.563zM8.444 43.684L10.264 43.684 9.354 41.343 8.444 43.684zM10.991 45.563L10.506 44.308 8.201 44.308 7.717 45.563 6.968 45.563 8.965 40.572 9.765 40.572 11.754 45.563 10.991 45.563zM13.325 42.928L14.345 42.928C14.663 42.928 14.917 42.85 15.105 42.693 15.293 42.537 15.388 42.327 15.388 42.062 15.388 41.798 15.293 41.588 15.105 41.431 14.917 41.274 14.663 41.196 14.345 41.196L13.325 41.196 13.325 42.928zM13.325 43.537L13.325 45.563 12.583 45.563 12.583 40.572 14.345 40.572C14.898 40.572 15.336 40.705 15.659 40.972 15.982 41.239 16.144 41.602 16.144 42.062 16.144 42.41 16.046 42.703 15.85 42.943 15.654 43.183 15.385 43.351 15.043 43.449L16.254 45.563 15.41 45.563 14.272 43.537 13.325 43.537z"/>
    <polyline fill="#FFFFFF" points="18.272 45.563 18.272 41.196 16.591 41.196 16.591 40.572 20.695 40.572 20.695 41.196 19.014 41.196 19.014 45.563 18.272 45.563"/>
    <path fill="#FFFFFF" d="M25.458,44.998 C25.781,44.998 26.069,44.917 26.321,44.752 C26.573,44.588 26.77,44.362 26.912,44.073 C27.054,43.785 27.125,43.449 27.125,43.068 C27.125,42.686 27.054,42.351 26.912,42.062 C26.77,41.773 26.573,41.547 26.321,41.383 C26.069,41.219 25.781,41.137 25.458,41.137 C25.135,41.137 24.849,41.219 24.6,41.383 C24.35,41.547 24.154,41.773 24.012,42.062 C23.87,42.351 23.799,42.686 23.799,43.068 C23.799,43.449 23.87,43.785 24.012,44.073 C24.154,44.362 24.35,44.588 24.6,44.752 C24.849,44.917 25.135,44.998 25.458,44.998 Z M25.458,45.644 C24.988,45.644 24.572,45.534 24.21,45.314 C23.848,45.093 23.563,44.79 23.355,44.403 C23.147,44.017 23.043,43.572 23.043,43.068 C23.043,42.564 23.147,42.119 23.355,41.732 C23.563,41.345 23.848,41.042 24.21,40.822 C24.572,40.601 24.988,40.491 25.458,40.491 C25.928,40.491 26.345,40.601 26.71,40.822 C27.074,41.042 27.36,41.345 27.569,41.732 C27.776,42.119 27.881,42.564 27.881,43.068 C27.881,43.572 27.776,44.017 27.569,44.403 C27.36,44.79 27.074,45.093 26.71,45.314 C26.345,45.534 25.928,45.644 25.458,45.644 Z"/>
    <polyline fill="#FFFFFF" points="29.664 45.563 28.923 45.563 28.923 40.572 32.028 40.572 32.028 41.196 29.664 41.196 29.664 42.884 31.668 42.884 31.668 43.508 29.664 43.508 29.664 45.563"/>
    <polyline fill="#FFFFFF" points="35.896 45.563 35.896 41.196 34.215 41.196 34.215 40.572 38.319 40.572 38.319 41.196 36.638 41.196 36.638 45.563 35.896 45.563"/>
    <polyline fill="#FFFFFF" points="39.17 45.563 39.17 40.572 39.912 40.572 39.912 42.708 42.488 42.708 42.488 40.572 43.23 40.572 43.23 45.563 42.488 45.563 42.488 43.347 39.912 43.347 39.912 45.563 39.17 45.563"/>
    <polyline fill="#FFFFFF" points="44.536 45.563 44.536 40.572 47.736 40.572 47.736 41.196 45.277 41.196 45.277 42.737 47.442 42.737 47.442 43.361 45.277 43.361 45.277 44.939 47.795 44.939 47.795 45.563 44.536 45.563"/>
    <path fill="#FFFFFF" d="M52.478 44.998C52.884 44.998 53.203 44.876 53.436 44.631 53.668 44.386 53.785 44.056 53.785 43.64L53.785 40.572 54.526 40.572 54.526 43.648C54.526 44.269 54.344 44.757 53.979 45.112 53.615 45.467 53.114 45.644 52.478 45.644 51.842 45.644 51.343 45.467 50.981 45.112 50.618 44.757 50.437 44.269 50.437 43.648L50.437 40.572 51.179 40.572 51.179 43.64C51.179 44.056 51.295 44.386 51.527 44.631 51.76 44.876 52.077 44.998 52.478 44.998M57.293 45.644C56.917 45.644 56.557 45.578 56.214 45.446 55.872 45.314 55.595 45.138 55.385 44.917L55.803 44.425C55.999 44.607 56.23 44.748 56.497 44.851 56.763 44.954 57.029 45.006 57.293 45.006 57.616 45.006 57.877 44.943 58.075 44.818 58.273 44.693 58.372 44.521 58.372 44.301 58.372 44.1 58.301 43.931 58.159 43.794 58.017 43.657 57.775 43.542 57.433 43.449L56.743 43.266C56.297 43.149 55.973 42.982 55.77 42.767 55.567 42.551 55.465 42.27 55.465 41.923 55.465 41.639 55.541 41.389 55.693 41.174 55.845 40.959 56.054 40.791 56.321 40.671 56.587 40.551 56.89 40.491 57.227 40.491 57.585 40.491 57.92 40.559 58.233 40.693 58.546 40.828 58.822 41.015 59.062 41.255L58.615 41.739C58.404 41.543 58.185 41.393 57.958 41.287 57.73 41.183 57.489 41.13 57.235 41.13 56.926 41.13 56.674 41.195 56.478 41.324 56.283 41.454 56.185 41.634 56.185 41.864 56.185 42.074 56.254 42.238 56.394 42.356 56.534 42.473 56.748 42.571 57.036 42.65L57.807 42.862C58.253 42.985 58.578 43.156 58.783 43.376 58.989 43.596 59.092 43.87 59.092 44.198 59.092 44.487 59.016 44.74 58.864 44.958 58.712 45.175 58.502 45.344 58.233 45.464 57.964 45.584 57.65 45.644 57.293 45.644M60.956 43.684L62.777 43.684 61.866 41.343 60.956 43.684zM63.503 45.563L63.019 44.308 60.714 44.308 60.23 45.563 59.481 45.563 61.477 40.572 62.278 40.572 64.267 45.563 63.503 45.563z"/>
    <polyline fill="#FFFFFF" points="67.716 45.563 67.716 41.196 66.036 41.196 66.036 40.572 70.139 40.572 70.139 41.196 68.458 41.196 68.458 45.563 67.716 45.563"/>
    <path fill="#FFFFFF" d="M72.81 44.998C73.133 44.998 73.421 44.917 73.673 44.752 73.925 44.588 74.122 44.362 74.264 44.073 74.406 43.785 74.477 43.449 74.477 43.068 74.477 42.686 74.406 42.351 74.264 42.062 74.122 41.773 73.925 41.547 73.673 41.383 73.421 41.219 73.133 41.137 72.81 41.137 72.488 41.137 72.202 41.219 71.952 41.383 71.702 41.547 71.506 41.773 71.365 42.062 71.223 42.351 71.152 42.686 71.152 43.068 71.152 43.449 71.223 43.785 71.365 44.073 71.506 44.362 71.702 44.588 71.952 44.752 72.202 44.917 72.488 44.998 72.81 44.998zM72.81 45.644C72.341 45.644 71.925 45.534 71.563 45.314 71.201 45.093 70.916 44.79 70.707 44.403 70.5 44.017 70.396 43.572 70.396 43.068 70.396 42.564 70.5 42.119 70.707 41.732 70.916 41.345 71.201 41.042 71.563 40.822 71.925 40.601 72.341 40.491 72.81 40.491 73.28 40.491 73.698 40.601 74.062 40.822 74.426 41.042 74.713 41.345 74.921 41.732 75.129 42.119 75.233 42.564 75.233 43.068 75.233 43.572 75.129 44.017 74.921 44.403 74.713 44.79 74.426 45.093 74.062 45.314 73.698 45.534 73.28 45.644 72.81 45.644zM77.016 44.939L78.029 44.939C78.382 44.939 78.684 44.862 78.936 44.708 79.188 44.554 79.381 44.338 79.516 44.058 79.65 43.78 79.718 43.449 79.718 43.068 79.718 42.686 79.65 42.356 79.516 42.077 79.381 41.798 79.188 41.581 78.936 41.427 78.684 41.273 78.382 41.196 78.029 41.196L77.016 41.196 77.016 44.939zM76.275 45.563L76.275 40.572 78.029 40.572C78.519 40.572 78.947 40.676 79.314 40.884 79.681 41.092 79.966 41.383 80.169 41.757 80.372 42.132 80.474 42.568 80.474 43.068 80.474 43.567 80.372 44.003 80.169 44.378 79.966 44.752 79.681 45.044 79.314 45.252 78.947 45.459 78.519 45.563 78.029 45.563L76.275 45.563zM82.368 43.684L84.188 43.684 83.278 41.343 82.368 43.684zM84.915 45.563L84.43 44.308 82.125 44.308 81.641 45.563 80.892 45.563 82.889 40.572 83.689 40.572 85.678 45.563 84.915 45.563z"/>
    <polyline fill="#FFFFFF" points="87.954 43.581 87.954 45.563 87.213 45.563 87.213 43.581 85.458 40.572 86.332 40.572 87.587 42.877 88.842 40.572 89.701 40.572 87.954 43.581"/>
    <polyline fill="#FFFFFF" points="95.632 45.563 92.967 41.739 92.967 45.563 92.27 45.563 92.27 40.572 92.96 40.572 95.632 44.396 95.632 40.572 96.322 40.572 96.322 45.563 95.632 45.563"/>
    <polyline fill="#FFFFFF" points="97.628 45.563 97.628 40.572 100.829 40.572 100.829 41.196 98.37 41.196 98.37 42.737 100.535 42.737 100.535 43.361 98.37 43.361 98.37 44.939 100.887 44.939 100.887 45.563 97.628 45.563"/>
    <polyline fill="#FFFFFF" points="103.089 45.563 103.089 41.196 101.408 41.196 101.408 40.572 105.512 40.572 105.512 41.196 103.831 41.196 103.831 45.563 103.089 45.563"/>
    <polyline fill="#FFFFFF" points="110.356 45.563 109.189 41.585 108.022 45.563 107.251 45.563 105.923 40.572 106.657 40.572 107.67 44.521 108.837 40.572 109.541 40.572 110.716 44.536 111.736 40.572 112.456 40.572 111.127 45.563 110.356 45.563"/>
    <path fill="#FFFFFF" d="M115.399 44.998C115.722 44.998 116.009 44.917 116.262 44.752 116.513 44.588 116.711 44.362 116.853 44.073 116.995 43.785 117.065 43.449 117.065 43.068 117.065 42.686 116.995 42.351 116.853 42.062 116.711 41.773 116.513 41.547 116.262 41.383 116.009 41.219 115.722 41.137 115.399 41.137 115.076 41.137 114.79 41.219 114.54 41.383 114.291 41.547 114.095 41.773 113.953 42.062 113.811 42.351 113.74 42.686 113.74 43.068 113.74 43.449 113.811 43.785 113.953 44.073 114.095 44.362 114.291 44.588 114.54 44.752 114.79 44.917 115.076 44.998 115.399 44.998zM115.399 45.644C114.929 45.644 114.514 45.534 114.152 45.314 113.789 45.093 113.504 44.79 113.296 44.403 113.088 44.017 112.984 43.572 112.984 43.068 112.984 42.564 113.088 42.119 113.296 41.732 113.504 41.345 113.789 41.042 114.152 40.822 114.514 40.601 114.929 40.491 115.399 40.491 115.869 40.491 116.286 40.601 116.651 40.822 117.015 41.042 117.302 41.345 117.509 41.732 117.717 42.119 117.822 42.564 117.822 43.068 117.822 43.572 117.717 44.017 117.509 44.403 117.302 44.79 117.015 45.093 116.651 45.314 116.286 45.534 115.869 45.644 115.399 45.644zM119.605 42.928L120.625 42.928C120.943 42.928 121.197 42.85 121.385 42.693 121.573 42.537 121.668 42.327 121.668 42.062 121.668 41.798 121.573 41.588 121.385 41.431 121.197 41.274 120.943 41.196 120.625 41.196L119.605 41.196 119.605 42.928zM119.605 43.537L119.605 45.563 118.864 45.563 118.864 40.572 120.625 40.572C121.178 40.572 121.616 40.705 121.939 40.972 122.262 41.239 122.424 41.602 122.424 42.062 122.424 42.41 122.326 42.703 122.13 42.943 121.934 43.183 121.665 43.351 121.323 43.449L122.534 45.563 121.69 45.563 120.552 43.537 119.605 43.537z"/>
    <polyline fill="#FFFFFF" points="126.454 45.563 124.215 43.045 124.215 45.563 123.473 45.563 123.473 40.572 124.215 40.572 124.215 42.759 126.307 40.572 127.224 40.572 125 42.862 127.386 45.563 126.454 45.563"/>
    <path fill="#FFFFFF" d="M16.108,35.331 C12.987,35.331 10.25,34.656 7.895,33.306 C5.54,31.956 3.695,30.089 2.36,27.704 C1.025,25.319 0.358,22.551 0.358,19.401 C0.358,16.251 1.025,13.491 2.36,11.121 C3.695,8.752 5.54,6.899 7.895,5.563 C10.25,4.229 12.987,3.561 16.108,3.561 C18.747,3.561 21.125,4.094 23.24,5.159 C25.355,6.224 27.162,7.762 28.663,9.771 L22.048,13.686 C21.267,12.696 20.39,11.916 19.415,11.347 C18.44,10.777 17.307,10.491 16.018,10.491 C13.887,10.491 12.162,11.294 10.843,12.899 C9.522,14.504 8.863,16.672 8.863,19.401 C8.863,22.132 9.522,24.314 10.843,25.949 C12.162,27.584 13.887,28.401 16.018,28.401 C17.337,28.401 18.507,28.079 19.528,27.433 C20.547,26.789 21.402,26.032 22.093,25.161 L28.663,29.076 C27.192,31.117 25.385,32.669 23.24,33.734 C21.095,34.798 18.718,35.331 16.108,35.331"/>
    <polygon fill="#FFFFFF" points="32.308 34.746 40.138 34.746 40.138 1.896 32.308 1.896"/>
    <path fill="#FFFFFF" d="M51.792 27.321C51.792 28.012 52.047 28.574 52.557 29.009 53.067 29.444 53.727 29.661 54.537 29.661 55.617 29.661 56.524 29.294 57.26 28.558 57.994 27.824 58.362 26.901 58.362 25.791L58.362 25.026C57.552 24.876 56.697 24.801 55.797 24.801 54.657 24.801 53.705 24.997 52.94 25.386 52.175 25.776 51.792 26.421 51.792 27.321zM58.677 34.746L58.272 31.731C56.772 34.132 54.492 35.331 51.432 35.331 50.082 35.331 48.859 35.039 47.765 34.454 46.669 33.869 45.799 33.066 45.155 32.046 44.509 31.027 44.187 29.841 44.187 28.491 44.187 25.942 45.184 23.962 47.18 22.551 49.174 21.141 51.807 20.436 55.077 20.436 56.097 20.436 57.177 20.526 58.317 20.706 58.197 19.566 57.71 18.704 56.855 18.119 56 17.534 54.957 17.241 53.727 17.241 52.647 17.241 51.559 17.444 50.465 17.848 49.369 18.254 48.327 18.742 47.337 19.311L44.682 14.271C46.182 13.311 47.802 12.569 49.542 12.044 51.282 11.519 53.022 11.256 54.762 11.256 56.862 11.256 58.752 11.616 60.432 12.336 62.112 13.056 63.432 14.152 64.392 15.621 65.352 17.092 65.832 18.951 65.832 21.201L65.832 34.746 58.677 34.746zM78.657 25.881L78.657 34.746 70.827 34.746 70.827 11.841 77.982 11.841 78.477 15.666C78.956 14.436 79.744 13.438 80.839 12.674 81.934 11.909 83.202 11.526 84.642 11.526 85.452 11.526 86.066 11.632 86.487 11.841L86.487 18.996C86.156 18.877 85.789 18.787 85.384 18.727 84.979 18.666 84.522 18.636 84.012 18.636 82.452 18.636 81.169 19.214 80.164 20.369 79.159 21.524 78.657 23.361 78.657 25.881M90.267 34.746L90.267 11.841C91.526 12.111 92.801 12.246 94.092 12.246 95.411 12.246 96.747 12.111 98.096 11.841L98.096 34.746 90.267 34.746M114.701 29.121C116.081 29.121 117.183 28.589 118.009 27.524 118.833 26.459 119.246 25.042 119.246 23.271 119.246 21.501 118.833 20.092 118.009 19.041 117.183 17.991 116.081 17.466 114.701 17.466 113.321 17.466 112.218 17.991 111.394 19.041 110.568 20.092 110.156 21.501 110.156 23.271 110.156 25.042 110.568 26.459 111.394 27.524 112.218 28.589 113.321 29.121 114.701 29.121zM114.701 35.331C112.241 35.331 110.073 34.813 108.199 33.779 106.323 32.744 104.853 31.326 103.789 29.526 102.723 27.727 102.191 25.641 102.191 23.271 102.191 20.902 102.723 18.816 103.789 17.016 104.853 15.216 106.323 13.806 108.199 12.786 110.073 11.766 112.241 11.256 114.701 11.256 117.161 11.256 119.328 11.766 121.204 12.786 123.078 13.806 124.548 15.216 125.614 17.016 126.678 18.816 127.211 20.902 127.211 23.271 127.211 25.641 126.678 27.727 125.614 29.526 124.548 31.326 123.078 32.744 121.204 33.779 119.328 34.813 117.161 35.331 114.701 35.331zM139.136 22.102L139.136 34.746 131.306 34.746 131.306 11.841 138.461 11.841 138.866 14.856C139.616 13.776 140.591 12.906 141.791 12.246 142.991 11.587 144.311 11.256 145.751 11.256 148.241 11.256 150.236 12.066 151.736 13.686 153.236 15.306 153.986 17.632 153.986 20.661L153.986 34.746 146.156 34.746 146.156 21.561C146.156 20.211 145.856 19.214 145.256 18.569 144.656 17.924 143.816 17.602 142.736 17.602 141.656 17.602 140.786 17.946 140.126 18.636 139.466 19.327 139.136 20.481 139.136 22.102"/>
    <polyline class="no-color-change" fill="#009BFF" points="178.87 27.996 191.605 27.996 191.605 34.746 170.5 34.746 170.5 4.146 178.87 4.146 178.87 27.996"/>
    <path class="no-color-change" fill="#009BFF" d="M206.229 16.926C203.679 16.926 202.149 18.276 201.639 20.977L210.369 20.977C210.159 19.507 209.657 18.464 208.862 17.848 208.067 17.234 207.189 16.926 206.229 16.926zM216.939 32.406C215.799 33.216 214.352 33.907 212.597 34.476 210.842 35.046 208.974 35.331 206.994 35.331 204.264 35.331 201.932 34.829 199.997 33.824 198.062 32.819 196.577 31.416 195.542 29.616 194.507 27.816 193.99 25.746 193.99 23.406 193.99 21.037 194.499 18.936 195.519 17.106 196.539 15.277 197.95 13.844 199.749 12.808 201.549 11.774 203.649 11.256 206.049 11.256 208.389 11.256 210.451 11.759 212.237 12.764 214.021 13.769 215.416 15.164 216.422 16.949 217.427 18.734 217.929 20.827 217.929 23.227 217.929 23.556 217.907 23.901 217.862 24.261 217.817 24.621 217.764 24.997 217.704 25.386L201.729 25.386C202.45 28.026 204.414 29.347 207.624 29.347 209.064 29.347 210.339 29.121 211.45 28.671 212.559 28.222 213.489 27.771 214.24 27.321L216.939 32.406zM233.049 29.121C234.399 29.121 235.486 28.589 236.312 27.524 237.137 26.459 237.549 25.042 237.549 23.271 237.549 21.501 237.137 20.084 236.312 19.018 235.486 17.954 234.399 17.421 233.049 17.421 231.669 17.421 230.566 17.954 229.741 19.018 228.916 20.084 228.504 21.501 228.504 23.271 228.504 25.042 228.916 26.459 229.741 27.524 230.566 28.589 231.669 29.121 233.049 29.121zM238.089 34.746L237.684 31.731C236.964 32.842 236.034 33.719 234.894 34.364 233.754 35.009 232.434 35.331 230.934 35.331 228.864 35.331 227.049 34.821 225.489 33.801 223.929 32.782 222.714 31.364 221.844 29.549 220.973 27.734 220.539 25.641 220.539 23.271 220.539 20.902 220.973 18.816 221.844 17.016 222.714 15.216 223.907 13.806 225.422 12.786 226.936 11.766 228.684 11.256 230.664 11.256 232.044 11.256 233.319 11.549 234.489 12.134 235.659 12.719 236.634 13.506 237.414 14.496L237.414 1.896 245.244 1.896 245.244 34.746 238.089 34.746zM261.759 27.861C263.079 27.861 264.144 27.389 264.954 26.444 265.764 25.499 266.169 24.231 266.169 22.641 266.169 21.052 265.764 19.784 264.954 18.839 264.144 17.893 263.079 17.421 261.759 17.421 260.409 17.421 259.329 17.893 258.519 18.839 257.709 19.784 257.304 21.052 257.304 22.641 257.304 24.202 257.709 25.462 258.519 26.421 259.329 27.382 260.409 27.861 261.759 27.861zM273.909 32.316C273.909 34.656 273.369 36.659 272.289 38.324 271.209 39.989 269.717 41.264 267.812 42.149 265.906 43.033 263.694 43.476 261.174 43.476 259.134 43.476 257.199 43.206 255.369 42.666 253.539 42.126 251.904 41.406 250.464 40.506L253.389 35.466C254.408 36.066 255.482 36.554 256.607 36.929 257.732 37.304 258.894 37.491 260.094 37.491 262.104 37.491 263.604 37.041 264.594 36.141 265.584 35.241 266.079 33.967 266.079 32.316L266.079 31.506C265.299 32.287 264.362 32.909 263.267 33.374 262.171 33.839 261.024 34.071 259.824 34.071 257.754 34.071 255.931 33.584 254.357 32.609 252.782 31.634 251.551 30.284 250.667 28.558 249.782 26.834 249.339 24.862 249.339 22.641 249.339 20.391 249.774 18.411 250.644 16.701 251.514 14.991 252.729 13.657 254.289 12.696 255.849 11.736 257.649 11.256 259.689 11.256 261.069 11.256 262.351 11.587 263.537 12.246 264.721 12.906 265.658 13.776 266.349 14.856L266.754 11.841 273.909 11.841 273.909 32.316zM290.244 16.926C287.694 16.926 286.163 18.276 285.654 20.977L294.384 20.977C294.174 19.507 293.671 18.464 292.876 17.848 292.081 17.234 291.203 16.926 290.244 16.926zM300.954 32.406C299.813 33.216 298.366 33.907 296.611 34.476 294.856 35.046 292.989 35.331 291.009 35.331 288.279 35.331 285.946 34.829 284.011 33.824 282.076 32.819 280.591 31.416 279.556 29.616 278.521 27.816 278.004 25.746 278.004 23.406 278.004 21.037 278.513 18.936 279.533 17.106 280.553 15.277 281.964 13.844 283.764 12.808 285.564 11.774 287.663 11.256 290.064 11.256 292.404 11.256 294.466 11.759 296.251 12.764 298.036 13.769 299.431 15.164 300.436 16.949 301.441 18.734 301.944 20.827 301.944 23.227 301.944 23.556 301.921 23.901 301.876 24.261 301.831 24.621 301.779 24.997 301.719 25.386L285.744 25.386C286.464 28.026 288.428 29.347 291.639 29.347 293.079 29.347 294.353 29.121 295.464 28.671 296.573 28.222 297.504 27.771 298.254 27.321L300.954 32.406zM313.779 25.881L313.779 34.746 305.949 34.746 305.949 11.841 313.103 11.841 313.598 15.666C314.078 14.436 314.866 13.438 315.961 12.674 317.056 11.909 318.324 11.526 319.763 11.526 320.574 11.526 321.188 11.632 321.609 11.841L321.609 18.996C321.278 18.877 320.911 18.787 320.506 18.727 320.101 18.666 319.643 18.636 319.134 18.636 317.574 18.636 316.291 19.214 315.286 20.369 314.281 21.524 313.779 23.361 313.779 25.881M94.092 10.041C92.801 10.041 91.699 9.584 90.784 8.669 89.868 7.754 89.411 6.651 89.411 5.361 89.411 4.072 89.868 2.969 90.784 2.054 91.699 1.139 92.801.681 94.092.681 95.381.681 96.483 1.139 97.399 2.054 98.314 2.969 98.772 4.072 98.772 5.361 98.772 6.651 98.314 7.754 97.399 8.669 96.483 9.584 95.381 10.041 94.092 10.041"/>
  </g>
</svg>
