<svg height="47" viewBox="0 0 286 47" width="286" xmlns="http://www.w3.org/2000/svg">
  <g fill="none" fill-rule="evenodd">
    <g fill="#404040"><path
      d="m4.403 43.35h1.243c.408 0 .731-.101.969-.302s.356-.475.356-.823c0-.347-.118-.621-.356-.823-.238-.201-.561-.301-.969-.301h-1.243zm-.924 3.191v-6.217h2.167c.695 0 1.246.171 1.655.512.408.341.612.804.612 1.389 0 .58-.204 1.038-.612 1.377-.409.338-.96.507-1.655.507h-1.243v2.432zm6.299-2.341h2.267l-1.133-2.916zm3.173 2.341-.604-1.563h-2.87l-.604 1.563h-.932l2.486-6.217h.997l2.477 6.217zm2.907-3.282h1.271c.396 0 .711-.098.946-.293s.352-.457.352-.786-.117-.592-.352-.786c-.235-.195-.55-.293-.946-.293h-1.271zm0 .758v2.524h-.923v-6.217h2.194c.688 0 1.234.166 1.636.498.402.333.604.785.604 1.358 0 .432-.123.798-.366 1.097-.244.299-.579.509-1.006.631l1.509 2.633h-1.052l-1.417-2.524z"/><path d="m22.02 46.541v-5.44h-2.094v-.777h5.111v.777h-2.094v5.44z"/><path
      d="m30.97 45.837c.402 0 .76-.102 1.074-.306.314-.205.559-.487.736-.846.177-.36.265-.777.265-1.253 0-.475-.088-.893-.265-1.252-.177-.36-.422-.641-.736-.846-.314-.204-.672-.306-1.074-.306-.403 0-.759.102-1.07.306-.31.205-.554.486-.731.846-.177.359-.265.777-.265 1.252 0 .476.088.893.265 1.253.177.359.421.641.731.846.311.204.667.306 1.07.306zm0 .804c-.585 0-1.103-.137-1.554-.411s-.806-.652-1.065-1.134c-.26-.481-.389-1.036-.389-1.664 0-.627.129-1.182.389-1.664.259-.481.614-.859 1.065-1.133s.969-.412 1.554-.412 1.105.138 1.559.412.81.652 1.069 1.133c.259.482.389 1.037.389 1.664 0 .628-.13 1.183-.389 1.664-.259.482-.615.86-1.069 1.134s-.974.411-1.559.411z"/><path d="m36.209 46.541h-.924v-6.217h3.867v.777h-2.943v2.103h2.495v.777h-2.495z"/><path d="m43.97 46.541v-5.44h-2.093v-.777h5.11v.777h-2.094v5.44z"/><path d="m48.048 46.541v-6.217h.923v2.66h3.209v-2.66h.923v6.217h-.923v-2.761h-3.209v2.761z"/><path d="m54.73 46.541v-6.217h3.986v.777h-3.062v1.92h2.697v.777h-2.697v1.966h3.136v.777z"/><path
      d="m64.622 45.837c.506 0 .903-.153 1.193-.457.29-.305.434-.716.434-1.235v-3.821h.924v3.831c0 .773-.227 1.382-.681 1.823-.454.442-1.078.663-1.87.663s-1.414-.221-1.865-.663c-.451-.441-.676-1.05-.676-1.823v-3.831h.923v3.821c0 .519.145.93.434 1.235.29.304.684.457 1.184.457m5.998.804c-.47 0-.918-.082-1.344-.247-.427-.164-.771-.384-1.033-.658l.521-.612c.243.225.531.402.864.53.332.128.663.192.992.192.402 0 .726-.078.973-.233.247-.156.37-.371.37-.645 0-.25-.088-.46-.265-.63-.177-.171-.478-.314-.905-.43l-.859-.229c-.555-.146-.959-.353-1.212-.621-.252-.268-.379-.619-.379-1.052 0-.353.094-.664.284-.933.188-.268.449-.476.781-.626.332-.149.709-.224 1.129-.224.445 0 .863.084 1.253.252s.734.4 1.033.699l-.558.604c-.262-.244-.535-.432-.818-.563s-.584-.197-.9-.197c-.384 0-.698.082-.942.243-.244.162-.366.385-.366.672 0 .262.087.466.261.613.173.146.44.268.8.365l.959.265c.555.153.96.366 1.216.64s.384.616.384 1.024c0 .36-.094.675-.283.947-.189.271-.451.481-.786.63-.335.15-.726.224-1.17.224m4.562-2.441h2.267l-1.134-2.916zm3.172 2.341-.604-1.563h-2.87l-.604 1.563h-.932l2.487-6.217h.996l2.478 6.217z"/><path d="m83.602 46.541v-5.44h-2.094v-.777h5.111v.777h-2.094v5.44z"/><path
      d="m89.946 45.837c.402 0 .76-.102 1.074-.306.314-.205.559-.487.736-.846.177-.36.265-.777.265-1.253 0-.475-.088-.893-.265-1.252-.177-.36-.422-.641-.736-.846-.314-.204-.672-.306-1.074-.306s-.759.102-1.069.306c-.311.205-.555.486-.732.846-.177.359-.265.777-.265 1.252 0 .476.088.893.265 1.253.177.359.421.641.732.846.31.204.667.306 1.069.306zm0 .804c-.585 0-1.103-.137-1.554-.411s-.806-.652-1.065-1.134c-.259-.481-.389-1.036-.389-1.664 0-.627.13-1.182.389-1.664.259-.481.614-.859 1.065-1.133s.969-.412 1.554-.412 1.105.138 1.559.412.811.652 1.069 1.133c.26.482.389 1.037.389 1.664 0 .628-.129 1.183-.389 1.664-.258.482-.615.86-1.069 1.134s-.974.411-1.559.411zm5.239-.877h1.261c.439 0 .816-.097 1.13-.288.313-.193.554-.462.722-.809.167-.348.251-.759.251-1.235 0-.475-.084-.886-.251-1.234-.168-.347-.409-.617-.722-.809-.314-.192-.691-.288-1.13-.288h-1.261zm-.924.777v-6.217h2.185c.61 0 1.143.13 1.6.389s.812.621 1.066 1.087c.252.467.379 1.01.379 1.632s-.127 1.166-.379 1.632c-.254.467-.609.829-1.066 1.088s-.99.389-1.6.389zm7.589-2.341h2.267l-1.134-2.916zm3.172 2.341-.603-1.563h-2.871l-.603 1.563h-.933l2.487-6.217h.996l2.478 6.217z"/><path d="m108.807 44.072v2.469h-.923v-2.469l-2.186-3.748h1.088l1.564 2.87 1.563-2.87h1.07z"/><path d="m118.37 46.541-3.319-4.763v4.763h-.869v-6.217h.86l3.328 4.763v-4.763h.859v6.217z"/><path d="m120.856 46.541v-6.217h3.986v.777h-3.062v1.92h2.697v.777h-2.697v1.966h3.135v.777z"/><path d="m127.658 46.541v-5.44h-2.093v-.777h5.11v.777h-2.094v5.44z"/><path d="m136.709 46.541-1.454-4.956-1.453 4.956h-.96l-1.655-6.217h.914l1.262 4.918 1.453-4.918h.878l1.463 4.937 1.271-4.937h.896l-1.655 6.217z"/><path
      d="m142.99 45.837c.402 0 .76-.102 1.074-.306.314-.205.559-.487.736-.846.177-.36.265-.777.265-1.253 0-.475-.088-.893-.265-1.252-.177-.36-.422-.641-.736-.846-.314-.204-.672-.306-1.074-.306-.403 0-.759.102-1.07.306-.311.205-.555.486-.731.846-.177.359-.265.777-.265 1.252 0 .476.088.893.265 1.253.176.359.42.641.731.846.311.204.667.306 1.07.306zm0 .804c-.586 0-1.104-.137-1.554-.411-.452-.274-.807-.652-1.066-1.134-.259-.481-.388-1.036-.388-1.664 0-.627.129-1.182.388-1.664.259-.481.614-.859 1.066-1.133.45-.274.968-.412 1.554-.412.585 0 1.104.138 1.559.412.454.274.81.652 1.069 1.133.259.482.389 1.037.389 1.664 0 .628-.13 1.183-.389 1.664-.259.482-.615.86-1.069 1.134-.455.274-.974.411-1.559.411zm5.238-3.382h1.271c.396 0 .711-.098.946-.293s.352-.457.352-.786-.117-.592-.352-.786c-.235-.195-.55-.293-.946-.293h-1.271zm0 .758v2.524h-.923v-6.217h2.194c.689 0 1.234.166 1.636.498.403.333.604.785.604 1.358 0 .432-.122.798-.366 1.097-.243.299-.579.509-1.005.631l1.508 2.633h-1.051l-1.417-2.524z"/><path d="m156.758 46.541-2.788-3.136v3.136h-.924v-6.217h.924v2.724l2.605-2.724h1.143l-2.77 2.852 2.971 3.365z"/></g><path
      d="m11.066 33.744c-5.129 0-8.7-2.189-10.709-6.569l6.659-3.195c.48.99 1.005 1.71 1.576 2.16.569.45 1.289.675 2.16.675 1.049 0 1.852-.278 2.407-.833s.833-1.447.833-2.677v-20.745h8.369v20.519c0 2.221-.465 4.126-1.394 5.716-.931 1.59-2.244 2.812-3.938 3.667-1.695.855-3.683 1.282-5.963 1.282m23.085-8.009c0 .69.255 1.253.765 1.687.51.436 1.17.652 1.98.652 1.08 0 1.987-.367 2.723-1.102.735-.734 1.102-1.657 1.102-2.768v-.764c-.81-.15-1.665-.225-2.565-.225-1.14 0-2.092.195-2.857.585s-1.148 1.035-1.148 1.935zm6.885 7.425-.405-3.015c-1.5 2.4-3.78 3.599-6.84 3.599-1.35 0-2.572-.292-3.667-.877-1.096-.585-1.965-1.387-2.61-2.407-.646-1.02-.968-2.205-.968-3.555 0-2.55.997-4.53 2.993-5.94 1.995-1.41 4.627-2.115 7.897-2.115 1.02 0 2.1.09 3.24.269-.12-1.139-.607-2.001-1.462-2.586s-1.898-.878-3.128-.878c-1.08 0-2.167.202-3.262.607-1.096.405-2.138.893-3.128 1.463l-2.655-5.04c1.5-.96 3.12-1.702 4.86-2.228 1.74-.524 3.48-.787 5.22-.787 2.1 0 3.99.36 5.67 1.08s3 1.815 3.96 3.285 1.44 3.33 1.44 5.58v13.545zm22.86.584c-2.34 0-4.417-.502-6.232-1.507-1.816-1.004-3.248-2.408-4.298-4.207-1.05-1.8-1.575-3.9-1.575-6.3s.525-4.5 1.575-6.3 2.482-3.202 4.298-4.208c1.815-1.005 3.892-1.507 6.232-1.507 2.07 0 3.885.382 5.445 1.147s2.94 1.988 4.14 3.668l-5.175 3.78c-.42-.63-.967-1.148-1.642-1.553s-1.403-.607-2.183-.607c-1.35 0-2.475.503-3.375 1.508-.9 1.004-1.35 2.362-1.35 4.072s.45 3.067 1.35 4.072c.9 1.006 2.025 1.508 3.375 1.508.78 0 1.508-.203 2.183-.608s1.222-.922 1.642-1.552l5.175 3.78c-1.2 1.68-2.58 2.902-4.14 3.667s-3.375 1.147-5.445 1.147"
      fill="#009bff" class='no-color-change'/><path d="m91.886 33.16-7.065-11.43v11.43h-7.83v-32.85h7.83v19.17l7.29-9.225h9.315l-8.64 10.08 8.505 12.825z" fill="#009bff" class='no-color-change'/><path
      d="m112.271 33.744c-1.98 0-3.833-.314-5.558-.944s-3.278-1.53-4.657-2.7l3.33-4.41c1.05.84 2.182 1.523 3.397 2.047 1.215.526 2.408.788 3.578.788.78 0 1.402-.135 1.867-.406.465-.269.698-.674.698-1.214 0-.57-.263-1.028-.788-1.372-.525-.345-1.462-.683-2.812-1.013l-2.16-.54c-4.291-1.14-6.435-3.435-6.435-6.885 0-1.53.42-2.85 1.26-3.96.839-1.11 1.995-1.965 3.465-2.565 1.469-.6 3.179-.9 5.13-.9 1.919 0 3.727.3 5.422.9s3.247 1.47 4.658 2.61l-3.42 4.5c-1.051-.84-2.16-1.515-3.33-2.025s-2.266-.765-3.285-.765c-1.65 0-2.475.54-2.475 1.62 0 .48.247.87.742 1.17s1.193.57 2.093.81l2.925.81c2.189.6 3.809 1.5 4.86 2.7 1.049 1.2 1.575 2.625 1.575 4.275 0 1.5-.421 2.812-1.26 3.937-.84 1.125-2.018 1.995-3.533 2.61s-3.278.922-5.287.922m25.47-6.21c1.379 0 2.482-.532 3.307-1.597s1.238-2.482 1.238-4.252-.413-3.18-1.238-4.231c-.825-1.049-1.928-1.574-3.307-1.574-1.381 0-2.483.525-3.308 1.574-.825 1.051-1.237 2.461-1.237 4.231s.412 3.187 1.237 4.252 1.927 1.597 3.308 1.597zm0 6.21c-2.461 0-4.628-.517-6.503-1.552s-3.345-2.453-4.41-4.252c-1.065-1.8-1.597-3.885-1.597-6.255s.532-4.455 1.597-6.255 2.535-3.21 4.41-4.23 4.042-1.53 6.503-1.53c2.459 0 4.627.51 6.502 1.53 1.874 1.02 3.345 2.43 4.41 4.23s1.598 3.885 1.598 6.255-.533 4.455-1.598 6.255c-1.065 1.799-2.536 3.217-4.41 4.252-1.875 1.035-4.043 1.552-6.502 1.552zm24.434-13.229v12.645h-7.829v-22.905h7.154l.405 3.015c.75-1.08 1.725-1.95 2.925-2.61s2.52-.99 3.96-.99c2.49 0 4.485.81 5.985 2.43s2.25 3.945 2.25 6.975v14.085h-7.83v-13.185c0-1.35-.3-2.347-.9-2.993-.6-.645-1.44-.967-2.52-.967s-1.95.345-2.61 1.035c-.66.691-.99 1.845-.99 3.465"
      fill="#009bff" class='no-color-change'/><path
      d="m204.34 33.744c-2.491 0-4.876-.427-7.156-1.282s-4.26-2.077-5.94-3.667l4.05-5.085c1.2 1.079 2.55 1.928 4.051 2.542 1.499.616 3.149.923 4.949.923 1.2 0 2.145-.21 2.836-.63.689-.42 1.034-1.05 1.034-1.89 0-.81-.404-1.463-1.214-1.958-.811-.495-2.236-1.012-4.275-1.552l-1.891-.495c-2.76-.72-4.859-1.823-6.299-3.308-1.441-1.485-2.16-3.367-2.16-5.647 0-1.95.509-3.66 1.529-5.13s2.43-2.603 4.23-3.398c1.801-.795 3.885-1.192 6.256-1.192 2.339 0 4.574.427 6.704 1.282s4.02 2.018 5.671 3.487l-4.185 5.266c-1.08-.93-2.348-1.74-3.803-2.431-1.456-.689-2.902-1.034-4.342-1.034-1.201 0-2.123.202-2.768.607-.646.405-.967.998-.967 1.778 0 .72.337 1.343 1.012 1.867.675.526 1.837 1.013 3.488 1.463l2.295.63c3.299.899 5.631 2.13 6.997 3.689 1.365 1.561 2.048 3.375 2.048 5.446 0 1.95-.503 3.653-1.508 5.107-1.006 1.456-2.423 2.588-4.253 3.398s-3.96 1.214-6.389 1.214m31.679-.584-.405-3.015c-.75 1.11-1.732 1.987-2.947 2.632s-2.528.967-3.938.967c-2.67 0-4.71-.787-6.12-2.362s-2.115-3.848-2.115-6.817v-14.31h7.83v13.409c0 2.491 1.14 3.736 3.42 3.736 2.4 0 3.6-1.5 3.6-4.5v-12.645h7.83v22.905zm20.474-12.645v12.645h-7.829v-22.905h7.155l.404 3.015c.75-1.08 1.726-1.95 2.926-2.61 1.199-.66 2.52-.99 3.96-.99 2.489 0 4.484.81 5.985 2.43 1.5 1.62 2.25 3.945 2.25 6.975v14.085h-7.831v-13.185c0-1.35-.3-2.347-.899-2.993-.601-.645-1.44-.967-2.52-.967-1.081 0-1.951.345-2.61 1.035-.66.691-.991 1.845-.991 3.465"
      fill="#404040"/><path
      d="m280.433 33.655c-.96 0-1.838-.233-2.632-.698-.795-.465-1.425-1.094-1.89-1.89-.466-.794-.698-1.672-.698-2.632s.232-1.838.698-2.633c.465-.794 1.095-1.424 1.89-1.89.794-.465 1.672-.697 2.632-.697s1.837.232 2.633.697c.794.466 1.425 1.096 1.89 1.89.465.795.697 1.673.697 2.633s-.232 1.838-.697 2.632c-.465.796-1.096 1.425-1.89 1.89-.796.465-1.673.698-2.633.698"
      fill="#009bff" class='no-color-change'/></g>
</svg>