<svg xmlns="http://www.w3.org/2000/svg" width="322" height="44" viewBox="0 0 322 44">
  <g fill="none" fill-rule="evenodd">
    <path fill="#FFFFFE" d="M16.108,35.499 C12.987,35.499 10.25,34.824 7.895,33.475 C5.54,32.124 3.695,30.257 2.36,27.872 C1.025,25.487 0.358,22.719 0.358,19.57 C0.358,16.419 1.025,13.659 2.36,11.289 C3.695,8.92 5.54,7.068 7.895,5.732 C10.25,4.398 12.987,3.73 16.108,3.73 C18.747,3.73 21.125,4.262 23.24,5.327 C25.355,6.392 27.162,7.93 28.663,9.94 L22.048,13.855 C21.267,12.864 20.39,12.085 19.415,11.515 C18.44,10.945 17.307,10.659 16.018,10.659 C13.887,10.659 12.162,11.462 10.843,13.067 C9.522,14.672 8.863,16.84 8.863,19.57 C8.863,22.3 9.522,24.482 10.843,26.117 C12.162,27.752 13.887,28.57 16.018,28.57 C17.337,28.57 18.507,28.247 19.528,27.602 C20.547,26.957 21.402,26.2 22.093,25.329 L28.663,29.244 C27.192,31.285 25.385,32.837 23.24,33.902 C21.095,34.966 18.718,35.499 16.108,35.499"/>
    <polygon fill="#FFFFFE" points="32.308 34.915 40.138 34.915 40.138 2.065 32.308 2.065"/>
    <path fill="#FFFFFE" d="M51.792 27.489C51.792 28.18 52.047 28.742 52.557 29.177 53.067 29.612 53.727 29.829 54.537 29.829 55.617 29.829 56.524 29.462 57.26 28.727 57.994 27.992 58.362 27.07 58.362 25.959L58.362 25.195C57.552 25.045 56.697 24.969 55.797 24.969 54.657 24.969 53.705 25.165 52.94 25.554 52.175 25.945 51.792 26.59 51.792 27.489zM58.677 34.914L58.272 31.9C56.772 34.3 54.492 35.499 51.432 35.499 50.082 35.499 48.859 35.207 47.765 34.622 46.669 34.037 45.799 33.235 45.155 32.215 44.509 31.195 44.187 30.009 44.187 28.659 44.187 26.11 45.184 24.13 47.18 22.719 49.174 21.31 51.807 20.605 55.077 20.605 56.097 20.605 57.177 20.695 58.317 20.874 58.197 19.735 57.71 18.872 56.855 18.287 56 17.702 54.957 17.409 53.727 17.409 52.647 17.409 51.559 17.612 50.465 18.017 49.369 18.422 48.327 18.91 47.337 19.48L44.682 14.44C46.182 13.48 47.802 12.737 49.542 12.212 51.282 11.688 53.022 11.424 54.762 11.424 56.862 11.424 58.752 11.784 60.432 12.505 62.112 13.225 63.432 14.32 64.392 15.789 65.352 17.26 65.832 19.119 65.832 21.369L65.832 34.914 58.677 34.914 58.677 34.914zM78.657 26.049L78.657 34.914 70.827 34.914 70.827 12.009 77.982 12.009 78.477 15.834C78.956 14.605 79.744 13.607 80.839 12.842 81.934 12.077 83.202 11.695 84.642 11.695 85.452 11.695 86.066 11.8 86.487 12.009L86.487 19.164C86.156 19.045 85.789 18.955 85.384 18.895 84.979 18.835 84.522 18.804 84.012 18.804 82.452 18.804 81.169 19.383 80.164 20.537 79.159 21.693 78.657 23.529 78.657 26.049M90.267 34.914L90.267 12.009C91.526 12.279 92.801 12.414 94.092 12.414 95.411 12.414 96.747 12.279 98.096 12.009L98.096 34.914 90.267 34.914M114.701 29.289C116.081 29.289 117.183 28.757 118.009 27.692 118.833 26.627 119.246 25.21 119.246 23.44 119.246 21.67 118.833 20.26 118.009 19.209 117.183 18.159 116.081 17.634 114.701 17.634 113.321 17.634 112.218 18.159 111.394 19.209 110.568 20.26 110.156 21.67 110.156 23.44 110.156 25.21 110.568 26.627 111.394 27.692 112.218 28.757 113.321 29.289 114.701 29.289zM114.701 35.499C112.241 35.499 110.073 34.982 108.199 33.947 106.323 32.912 104.853 31.494 103.789 29.695 102.723 27.895 102.191 25.81 102.191 23.44 102.191 21.07 102.723 18.985 103.789 17.185 104.853 15.384 106.323 13.975 108.199 12.954 110.073 11.935 112.241 11.424 114.701 11.424 117.161 11.424 119.328 11.935 121.204 12.954 123.078 13.975 124.548 15.384 125.614 17.185 126.678 18.985 127.211 21.07 127.211 23.44 127.211 25.81 126.678 27.895 125.614 29.695 124.548 31.494 123.078 32.912 121.204 33.947 119.328 34.982 117.161 35.499 114.701 35.499L114.701 35.499zM139.136 22.27L139.136 34.914 131.306 34.914 131.306 12.009 138.461 12.009 138.866 15.025C139.616 13.945 140.591 13.074 141.791 12.414 142.991 11.755 144.311 11.424 145.751 11.424 148.241 11.424 150.236 12.235 151.736 13.855 153.236 15.475 153.986 17.8 153.986 20.829L153.986 34.914 146.156 34.914 146.156 21.73C146.156 20.38 145.856 19.383 145.256 18.737 144.656 18.092 143.816 17.77 142.736 17.77 141.656 17.77 140.786 18.114 140.126 18.804 139.466 19.495 139.136 20.65 139.136 22.27"/>
    <polyline fill="#009BFF" class="no-color-change" points="178.87 28.164 191.605 28.164 191.605 34.914 170.5 34.914 170.5 4.315 178.87 4.315 178.87 28.164"/>
    <path fill="#009BFF" class="no-color-change" d="M206.229 17.094C203.679 17.094 202.149 18.445 201.639 21.145L210.369 21.145C210.159 19.675 209.657 18.632 208.862 18.017 208.067 17.403 207.189 17.094 206.229 17.094zM216.939 32.574C215.799 33.384 214.352 34.075 212.597 34.645 210.842 35.214 208.974 35.499 206.994 35.499 204.264 35.499 201.932 34.997 199.997 33.992 198.062 32.987 196.577 31.584 195.542 29.784 194.507 27.985 193.99 25.914 193.99 23.574 193.99 21.205 194.499 19.105 195.519 17.275 196.539 15.445 197.95 14.012 199.749 12.977 201.549 11.942 203.649 11.424 206.049 11.424 208.389 11.424 210.451 11.927 212.237 12.932 214.021 13.938 215.416 15.332 216.422 17.117 217.427 18.903 217.929 20.995 217.929 23.395 217.929 23.725 217.907 24.07 217.862 24.429 217.817 24.789 217.764 25.165 217.704 25.554L201.729 25.554C202.45 28.195 204.414 29.515 207.624 29.515 209.064 29.515 210.339 29.289 211.45 28.84 212.559 28.39 213.489 27.94 214.24 27.489L216.939 32.574 216.939 32.574zM233.049 29.289C234.399 29.289 235.486 28.757 236.312 27.692 237.137 26.627 237.549 25.21 237.549 23.44 237.549 21.67 237.137 20.252 236.312 19.187 235.486 18.122 234.399 17.59 233.049 17.59 231.669 17.59 230.566 18.122 229.741 19.187 228.916 20.252 228.504 21.67 228.504 23.44 228.504 25.21 228.916 26.627 229.741 27.692 230.566 28.757 231.669 29.289 233.049 29.289zM238.089 34.914L237.684 31.9C236.964 33.01 236.034 33.887 234.894 34.532 233.754 35.177 232.434 35.499 230.934 35.499 228.864 35.499 227.049 34.989 225.489 33.969 223.929 32.95 222.714 31.532 221.844 29.717 220.973 27.903 220.539 25.81 220.539 23.44 220.539 21.07 220.973 18.985 221.844 17.185 222.714 15.384 223.907 13.975 225.422 12.954 226.936 11.935 228.684 11.424 230.664 11.424 232.044 11.424 233.319 11.717 234.489 12.302 235.659 12.887 236.634 13.674 237.414 14.664L237.414 2.065 245.244 2.065 245.244 34.914 238.089 34.914 238.089 34.914zM261.759 28.029C263.079 28.029 264.144 27.557 264.954 26.612 265.764 25.667 266.169 24.4 266.169 22.81 266.169 21.22 265.764 19.952 264.954 19.007 264.144 18.062 263.079 17.59 261.759 17.59 260.409 17.59 259.329 18.062 258.519 19.007 257.709 19.952 257.304 21.22 257.304 22.81 257.304 24.37 257.709 25.63 258.519 26.59 259.329 27.55 260.409 28.029 261.759 28.029zM273.909 32.485C273.909 34.824 273.369 36.827 272.289 38.492 271.209 40.157 269.717 41.432 267.812 42.317 265.906 43.201 263.694 43.645 261.174 43.645 259.134 43.645 257.199 43.374 255.369 42.834 253.539 42.294 251.904 41.574 250.464 40.674L253.389 35.634C254.408 36.235 255.482 36.722 256.607 37.097 257.732 37.472 258.894 37.659 260.094 37.659 262.104 37.659 263.604 37.209 264.594 36.31 265.584 35.409 266.079 34.135 266.079 32.485L266.079 31.674C265.299 32.455 264.362 33.077 263.267 33.542 262.171 34.007 261.024 34.239 259.824 34.239 257.754 34.239 255.931 33.752 254.357 32.777 252.782 31.802 251.551 30.452 250.667 28.727 249.782 27.002 249.339 25.03 249.339 22.81 249.339 20.56 249.774 18.579 250.644 16.869 251.514 15.159 252.729 13.825 254.289 12.864 255.849 11.904 257.649 11.424 259.689 11.424 261.069 11.424 262.351 11.755 263.537 12.414 264.721 13.074 265.658 13.945 266.349 15.025L266.754 12.009 273.909 12.009 273.909 32.485 273.909 32.485zM290.244 17.094C287.694 17.094 286.163 18.445 285.654 21.145L294.384 21.145C294.174 19.675 293.671 18.632 292.876 18.017 292.081 17.403 291.203 17.094 290.244 17.094zM300.954 32.574C299.813 33.384 298.366 34.075 296.611 34.645 294.856 35.214 292.989 35.499 291.009 35.499 288.279 35.499 285.946 34.997 284.011 33.992 282.076 32.987 280.591 31.584 279.556 29.784 278.521 27.985 278.004 25.914 278.004 23.574 278.004 21.205 278.513 19.105 279.533 17.275 280.553 15.445 281.964 14.012 283.764 12.977 285.564 11.942 287.663 11.424 290.064 11.424 292.404 11.424 294.466 11.927 296.251 12.932 298.036 13.938 299.431 15.332 300.436 17.117 301.441 18.903 301.944 20.995 301.944 23.395 301.944 23.725 301.921 24.07 301.876 24.429 301.831 24.789 301.779 25.165 301.719 25.554L285.744 25.554C286.464 28.195 288.428 29.515 291.639 29.515 293.079 29.515 294.353 29.289 295.464 28.84 296.573 28.39 297.504 27.94 298.254 27.489L300.954 32.574 300.954 32.574zM313.779 26.049L313.779 34.914 305.949 34.914 305.949 12.009 313.103 12.009 313.598 15.834C314.078 14.605 314.866 13.607 315.961 12.842 317.056 12.077 318.324 11.695 319.763 11.695 320.574 11.695 321.188 11.8 321.609 12.009L321.609 19.164C321.278 19.045 320.911 18.955 320.506 18.895 320.101 18.835 319.643 18.804 319.134 18.804 317.574 18.804 316.291 19.383 315.286 20.537 314.281 21.693 313.779 23.529 313.779 26.049M94.092 10.209C92.801 10.209 91.699 9.752 90.784 8.837 89.868 7.922 89.411 6.82 89.411 5.529 89.411 4.24 89.868 3.137 90.784 2.222 91.699 1.307 92.801.85 94.092.85 95.381.85 96.483 1.307 97.399 2.222 98.314 3.137 98.772 4.24 98.772 5.529 98.772 6.82 98.314 7.922 97.399 8.837 96.483 9.752 95.381 10.209 94.092 10.209"/>
  </g>
</svg>
