<?xml version="1.0" encoding="UTF-8" standalone="no"?>
<svg width="576px" height="68px" viewBox="0 0 576 68" version="1.1" xmlns="http://www.w3.org/2000/svg" xmlns:xlink="http://www.w3.org/1999/xlink" xmlns:sketch="http://www.bohemiancoding.com/sketch/ns">
    <!-- Generator: Sketch 3.4.2 (15857) - http://www.bohemiancoding.com/sketch -->
    <title>Jackson_Sun</title>
    <desc>Created with Sketch.</desc>
    <defs>
        <path id="path-1" d="M0,68 L575.336,68 L575.336,0.302 L0,0.302"></path>
    </defs>
    <g id="Page-1" stroke="none" stroke-width="1" fill="none" fill-rule="evenodd" sketch:type="MSPage">
        <g id="Jackson_Sun" sketch:type="MSLayerGroup">
            <path d="M175.454,1.706 L185.784,6.394 C186.167,6.776 185.975,7.54 185.784,8.019 C184.061,9.263 181.958,9.358 180.045,10.028 C174.784,11.462 172.393,17.105 171.819,21.888 C171.342,31.929 170.959,41.303 169.811,51.154 C169.237,56.225 164.932,61.197 160.151,62.822 C157.186,63.588 153.073,64.83 150.299,62.822 C150.108,60.432 152.594,62.44 153.838,61.674 C155.944,61.483 156.899,59.572 157.856,58.041 C159.387,52.877 159.292,47.33 159.292,41.588 C157.569,39.678 154.891,39.104 152.307,39.486 C150.395,40.346 150.682,42.451 149.631,43.791 C147.717,42.643 148.387,40.154 148.292,38.147 C148.674,34.608 149.725,30.878 153.073,28.964 C154.7,28.296 156.803,28.583 158.428,28.296 C159.481,26.478 158.811,24.374 159.481,22.366 C160.438,17.966 164.645,15.384 168.377,13.661 C164.167,10.313 158.428,8.593 152.69,9.358 C151.543,10.028 149.725,10.792 150.108,12.515 C150.206,13.374 150.969,14.331 150.299,15.192 C149.917,15.575 149.344,15.48 149.057,15.097 C148.1,14.044 148.1,12.61 147.717,11.366 C149.057,4.862 156.327,3.142 161.299,0.847 C166.081,-0.206 171.053,0.368 175.454,1.706" id="Fill-1" fill="#1A1918" sketch:type="MSShapeGroup"></path>
            <path d="M275.784,7.157 C276.167,7.923 275.975,8.976 275.497,9.741 C271.67,11.558 274.252,16.53 273.393,19.591 L273.106,26.095 L273.487,26.478 C276.836,24.374 279.991,21.601 283.436,19.591 L285.061,20.069 L293.86,26.669 C294.434,27.913 293.094,29.155 292.042,29.825 L284.295,35.182 C284.583,36.139 286.209,36.233 287.26,36.424 C290.129,37.479 290.608,40.92 290.799,43.791 L291.374,51.729 C291.756,52.397 292.233,52.971 292.999,53.26 C294.721,53.639 295.487,50.58 297.112,51.537 L296.729,52.971 L289.079,62.057 C288.026,63.108 286.592,63.299 285.061,63.205 C283.245,63.014 281.809,61.58 280.948,59.955 C279.514,56.318 280.278,51.44 280.278,47.518 C278.94,45.033 275.879,43.502 273.106,43.502 L272.532,44.268 L272.532,52.397 C273.01,53.736 275.018,53.736 275.114,55.268 L274.637,56.701 L266.506,63.779 L265.358,63.779 L257.038,58.424 C255.506,58.041 254.741,59.858 253.403,59.666 L253.403,58.233 C255.506,56.416 258.377,54.885 259.62,52.303 L260.481,14.331 C260.194,11.462 255.315,12.323 256.272,9.167 C259.045,6.202 262.489,3.905 265.645,1.323 L267.174,1.706 L275.784,7.157" id="Fill-3" fill="#1A1918" sketch:type="MSShapeGroup"></path>
            <g id="Group-9">
                <mask id="mask-2" sketch:name="Clip 5" fill="white">
                    <use xlink:href="#path-1"></use>
                </mask>
                <g id="Clip-5"></g>
                <path d="M73.786,5.724 C74.836,6.489 75.411,7.54 75.506,8.784 C75.028,11.558 71.299,12.802 72.065,16.15 C71.778,19.306 72.065,23.226 71.778,26.573 L72.256,27.052 C75.698,24.47 78.854,21.696 82.297,18.923 L91.002,23.513 C92.436,23.8 93.967,23.608 95.018,22.462 C95.688,22.558 96.549,22.175 96.932,22.843 C97.696,24.757 95.209,25.616 94.348,26.86 C89.948,31.929 91.288,39.295 90.522,45.893 C90.811,48.858 91.383,52.494 94.922,53.451 C95.497,53.928 95.784,54.885 95.305,55.553 C92.245,57.85 89.567,60.815 86.889,63.299 C84.975,63.873 83.829,61.963 82.489,61.1 C80.385,58.807 79.428,55.744 79.715,52.779 C79.045,51.248 80.098,49.912 79.715,48.283 C80.002,43.6 80.098,39.197 80.577,34.513 C78.28,32.694 75.602,31.739 73.116,30.4 C72.159,29.921 71.682,30.974 71.586,31.644 C71.491,38.053 71.395,44.459 71.204,50.963 L73.498,53.83 C73.881,57.943 69.768,60.143 67.186,62.631 C65.752,63.779 64.413,61.963 62.977,61.58 C60.299,60.525 57.909,56.893 54.944,59.381 C54.561,59.283 54.178,59.092 53.893,58.709 C53.893,55.842 57.334,56.033 58.77,53.83 C60.682,51.729 60.204,48.572 60.491,45.799 C60.395,35.565 61.448,26.765 60.873,16.626 C60.491,13.757 54.274,11.462 58.866,8.784 C61.831,7.731 64.795,5.341 65.752,2.185 C66.42,1.228 67.473,1.515 68.334,1.802 L73.786,5.724" id="Fill-4" fill="#1A1918" sketch:type="MSShapeGroup" mask="url(#mask-2)"></path>
                <path d="M463.53,4.097 C466.303,6.966 469.174,9.263 472.52,11.366 C473.573,11.941 475.104,11.558 476.155,11.175 L476.346,10.888 C476.252,9.167 475.008,7.062 476.635,5.724 C477.303,4.575 478.356,4.575 479.409,4.288 C480.842,4.384 481.799,5.437 482.659,6.489 C483.999,10.505 479.887,13.183 477.973,16.245 L471.948,23.513 L472.043,24.087 C478.452,25.044 484.667,28.679 486.963,35.088 C487.633,38.623 487.823,42.643 485.911,45.608 C484.667,48.475 482.659,50.674 480.172,52.971 C472.331,57.85 463.627,60.623 456.549,67.029 C451.67,64.162 446.889,61.1 441.534,59.381 L440.002,59.858 L432.159,67.893 C430.629,68.084 428.43,68.178 427.282,66.744 C425.561,63.779 427.665,61.197 429.483,58.807 C433.69,55.361 438.569,53.068 444.02,52.303 C445.167,51.346 446.602,50.104 447.081,48.666 C441.819,46.947 434.456,49.24 431.395,43.119 C429.866,39.963 430.629,36.139 432.542,33.364 C433.977,31.357 436.272,30.017 438.471,29.155 C437.995,26.095 435.698,23.13 437.325,19.974 C440.959,7.349 455.784,12.706 462.575,3.716 L463.53,4.097" id="Fill-6" fill="#1A1918" sketch:type="MSShapeGroup" mask="url(#mask-2)"></path>
                <path d="M35.911,7.54 C39.737,10.122 43.944,11.653 48.248,13.089 C49.873,12.898 51.5,12.323 52.647,13.757 C53.221,16.339 51.213,18.54 49.682,20.069 C47.674,21.888 44.901,22.271 42.223,22.653 C39.832,23.704 41.553,26.669 40.694,28.679 C41.077,36.904 40.024,45.51 40.502,54.022 C42.893,54.787 45.284,53.451 46.909,51.346 C49.206,48.092 51.883,45.127 52.075,40.92 C52.362,40.443 53.127,40.154 53.604,40.635 C54.752,42.068 53.221,43.502 53.221,45.033 C47.483,55.744 37.344,65.596 25.102,66.744 C15.252,67.318 6.549,61.291 2.723,52.686 C-0.626,46.467 0.522,37.764 3.104,31.644 C4.54,27.626 8.94,25.427 12.573,23.704 L20.608,19.401 C21.182,18.923 21.086,18.349 20.704,17.87 C17.165,15.384 12.477,12.323 7.792,14.905 C7.026,15.288 5.879,15.48 5.592,16.53 L7.792,19.591 C7.504,21.505 7.983,23.991 6.069,24.948 C4.635,25.523 3.104,25.14 1.958,24.374 C0.237,23.13 -0.148,20.835 0.045,18.827 C2.913,13.47 8.174,9.741 13.245,6.966 C19.842,2.95 29.598,2.95 35.911,7.54" id="Fill-7" fill="#1A1918" sketch:type="MSShapeGroup" mask="url(#mask-2)"></path>
                <path d="M194.965,6.966 C194.965,8.784 192.956,8.593 192.096,9.837 C188.461,14.427 188.27,20.644 187.887,26.478 C187.887,28.773 187.6,31.644 187.409,34.13 C187.696,36.998 186.932,39.963 186.741,42.736 C184.922,51.92 178.227,60.908 169.524,64.447 C162.733,68.178 151.924,68.943 145.135,64.736 C140.831,62.822 136.528,58.998 136.241,53.928 C136.145,50.674 137.674,48.092 140.352,46.373 C142.647,44.842 145.995,45.608 148.004,47.041 C149.534,48.666 150.491,50.674 150.206,52.877 C149.631,55.076 148.866,57.467 146.667,58.615 C145.709,60.432 140.161,57.658 143.127,61.006 C149.534,65.404 158.047,66.076 165.124,62.537 C171.534,58.041 174.975,50.865 174.69,43.025 C175.262,34.8 175.358,26.573 175.932,18.253 C176.889,10.696 185.688,10.313 190.948,7.349 C192.288,7.157 194.391,5.054 194.965,6.966" id="Fill-8" fill="#1A1918" sketch:type="MSShapeGroup" mask="url(#mask-2)"></path>
            </g>
            <path d="M453.776,13.853 C458.557,18.253 464.295,20.261 470.323,21.792 C470.131,22.653 469.366,23.321 468.792,24.087 C463.338,23.896 457.219,25.044 452.149,23.13 C450.045,21.792 448.227,19.306 448.514,16.339 C448.612,15.192 449.088,14.14 449.854,13.183 C451.096,12.036 453.776,11.079 453.776,13.853" id="Fill-10" fill="#FFFFFF" sketch:type="MSShapeGroup"></path>
            <path d="M322.745,19.019 C324.657,19.497 325.901,21.983 328.196,21.218 C329.917,20.069 330.491,17.583 332.594,17.679 C333.456,18.349 333.073,19.591 332.69,20.357 C329.249,23.896 326.186,27.626 322.936,31.261 C322.745,31.739 323.221,32.312 323.702,32.407 C326.284,32.694 328.674,33.556 330.874,34.897 C332.118,36.33 331.352,38.529 331.065,40.252 C330.491,44.459 332.022,48.666 331.352,52.779 C329.534,54.311 326.858,53.83 324.848,54.979 C320.448,57.178 316.336,60.049 312.032,62.631 C307.92,63.779 304.475,61.389 301.225,59.381 C299.311,59.572 298.069,61.197 297.016,62.537 C296.346,62.44 295.487,62.248 295.295,61.483 C298.163,57.467 301.895,53.639 304.956,49.529 L304.956,48.955 C302.754,47.713 299.885,47.139 298.834,44.365 C297.112,40.443 299.502,36.233 299.502,32.025 C299.311,30.687 298.354,27.913 300.364,27.435 L318.823,17.392 C320.352,17.487 321.311,18.636 322.745,19.019" id="Fill-11" fill="#1A1918" sketch:type="MSShapeGroup"></path>
            <path d="M126.485,25.523 C128.397,28.296 125.528,30.4 124.284,32.407 L113.86,41.209 C112.999,42.834 114.051,44.459 113.381,46.182 C113.668,47.807 112.52,50.006 114.815,50.674 C116.825,51.248 118.26,53.83 120.555,53.26 C122.276,52.303 122.659,50.104 124.573,50.197 C124.858,50.865 124.667,51.631 124.19,52.111 L113.668,62.44 C112.424,63.588 110.704,63.205 109.366,62.44 L102.381,57.561 C100.661,57.467 99.706,59.092 98.079,58.998 C97.409,58.709 97.504,57.85 97.887,57.467 C99.608,55.936 102.862,54.404 102.096,51.346 C102.192,45.033 102.477,38.147 101.522,32.12 C101.139,30.878 101.139,29.634 102,28.583 C107.069,25.235 112.52,22.366 117.303,18.54 C121.704,18.157 124.475,22.366 126.485,25.523" id="Fill-12" fill="#1A1918" sketch:type="MSShapeGroup"></path>
            <path d="M248.334,19.019 C251.299,21.314 253.403,23.8 255.987,26.382 C255.506,29.73 252.35,31.644 250.725,34.513 L247.282,38.912 C246.708,38.912 245.944,38.432 246.229,37.572 C246.42,35.947 248.811,35.275 248.43,33.46 L242.116,27.817 L241.543,27.817 C241.352,36.041 241.065,43.311 240.874,51.92 C242.69,53.354 244.7,54.502 246.995,55.17 L248.143,54.979 C250.247,53.068 252.448,50.674 253.881,48.381 C254.168,48.283 254.36,48.092 254.741,48.19 C255.315,48.764 255.028,49.721 254.647,50.197 C250.438,55.361 246.42,59.381 241.256,63.108 C238.483,64.447 235.995,62.248 233.795,61.1 C231.979,60.334 230.256,58.233 228.249,59.092 C227.389,59.19 226.719,60.334 225.858,59.764 C225.188,58.041 227.77,57.178 228.44,55.65 C230.737,48.19 229.491,39.869 229.206,32.12 C229.684,30.782 227.292,30.208 228.344,29.155 C234.37,25.712 240.395,22.079 246.42,18.827 L248.334,19.019" id="Fill-13" fill="#1A1918" sketch:type="MSShapeGroup"></path>
            <path d="M369.895,24.853 C372.479,28.296 371.043,33.077 371.905,36.998 C372.479,42.068 371.522,46.565 371.043,51.346 L369.991,53.354 C364.159,57.467 357.653,60.525 351.627,64.354 C347.803,62.537 343.977,60.815 340.151,58.998 C338.143,58.807 337.09,62.44 334.795,61.291 C334.125,60.908 334.03,59.858 334.604,59.381 C340.438,55.268 338.334,47.713 339.1,41.588 C339.194,37.479 338.047,33.46 338.334,29.442 C344.36,25.616 350.29,22.271 356.411,18.827 C361.479,19.497 365.497,22.653 369.895,24.853" id="Fill-14" fill="#1A1918" sketch:type="MSShapeGroup"></path>
            <path d="M218.588,24.661 C220.979,25.712 221.745,21.983 223.752,22.462 C224.805,25.616 220.596,25.712 220.024,28.392 C219.928,36.904 219.737,44.553 219.258,52.779 C219.545,53.83 220.694,54.404 221.553,54.787 C223.561,55.361 224.137,52.686 225.762,52.494 C226.241,52.971 226.145,53.928 225.858,54.502 L217.44,63.397 C213.711,64.447 211.417,61.1 208.545,59.283 C203.477,60.334 197.069,67.318 192.477,60.432 C190.661,58.041 189.514,55.361 188.557,52.494 C188.366,50.483 190.756,50.104 192,49.049 C194.583,48.283 197.356,47.998 199.653,46.373 C196.303,43.983 193.53,40.346 193.627,36.139 C193.338,28.009 202.139,24.661 207.59,20.931 C209.217,19.782 211.512,19.782 213.329,20.548 C215.049,22.271 217.059,22.843 218.588,24.661" id="Fill-15" fill="#1A1918" sketch:type="MSShapeGroup"></path>
            <path d="M403.467,20.644 C406.528,21.983 409.493,23.417 412.458,24.757 C413.032,24.278 413.604,24.757 414.178,24.278 C414.944,23.513 415.422,22.462 416.667,22.653 C417.909,24.087 415.997,25.235 415.422,26.573 C412.553,29.921 413.893,35.088 413.413,39.197 L413.032,52.779 C413.604,56.033 418.674,52.303 417.813,55.936 L409.206,63.108 C406.909,63.682 404.616,62.248 403.084,60.525 C400.694,58.135 400.024,54.787 400.502,51.248 C400.215,45.225 401.553,39.678 401.553,34.034 L393.711,30.4 L392.946,31.452 C393.137,38.053 392.659,44.744 392.469,51.346 C392.374,52.397 392.946,53.545 393.999,54.119 C394.667,54.311 395.336,54.404 395.815,55.076 C395.719,55.936 394.956,56.701 394.19,57.084 C391.704,58.709 389.502,61.291 387.208,63.299 L385.487,63.205 L378.792,59.764 C377.069,58.807 376.018,62.537 374.774,60.143 C375.252,57.178 378.313,56.893 379.844,54.502 C381.086,51.248 380.799,47.233 380.991,43.693 C380.799,39.963 381.469,36.139 380.895,32.694 C379.749,30.878 375.827,29.921 377.547,27.148 C380.512,24.47 382.424,22.175 385.581,20.357 C387.686,20.165 389.217,21.505 390.747,22.558 C391.799,24.087 392.469,25.616 393.137,27.243 L394.573,26.573 L401.936,20.261 L403.467,20.644" id="Fill-16" fill="#1A1918" sketch:type="MSShapeGroup"></path>
            <path d="M23.477,27.052 C21.565,27.53 19.555,28.679 18.409,30.495 C18.122,32.407 17.739,34.704 17.835,36.615 C17.739,37.955 17.069,40.154 18.409,41.018 C20.129,40.92 19.174,38.24 21.182,38.432 C22.424,38.338 23.668,38.815 24.051,40.061 C24.147,43.791 23.286,46.756 21.469,49.815 C19.842,51.057 17.643,52.205 15.538,51.057 C11.426,45.225 12.19,37.479 13.434,30.495 C13.817,28.2 14.2,25.999 15.827,24.183 C18.122,23.034 20.225,20.931 22.903,20.931 C24.815,22.558 23.094,24.948 23.477,27.052" id="Fill-17" fill="#FFFFFF" sketch:type="MSShapeGroup"></path>
            <path d="M504.37,25.808 L505.327,29.538 C505.04,36.998 504.848,44.076 504.659,51.346 C505.614,53.928 508.483,53.928 510.395,55.361 C514.604,55.076 511.831,50.197 512.788,47.713 C512.69,42.643 513.362,37.287 513.073,32.312 C512.022,30.974 508.77,30.591 510.014,28.105 C512.213,25.903 514.795,23.704 516.995,21.696 C520.534,21.122 522.448,25.044 525.506,26.286 C526.178,26.669 526.655,26.956 527.133,27.626 C527.038,29.155 526.37,30.495 525.889,31.833 C525.795,39.295 525.602,46.85 525.506,54.404 C525.889,55.268 527.133,55.65 527.995,55.17 C528.952,55.076 530.098,53.068 530.672,54.787 L530.481,55.553 L520.821,64.447 C519.194,64.928 517.665,64.354 516.42,63.299 C514.795,61.483 514.7,58.807 512.881,57.084 L511.543,57.85 C509.153,59.955 507.432,62.537 504.752,64.162 C500.258,63.397 496.624,60.717 492.606,59.092 C490.502,59.19 490.024,62.725 487.823,61.58 L487.823,60.525 L492.797,54.596 C493.372,50.483 493.276,46.084 493.563,41.877 C493.754,38.721 493.85,35.85 493.18,32.886 C492.223,31.069 488.303,30.591 490.024,28.2 C493.084,26.095 496.049,22.843 499.014,20.835 C501.502,21.601 503.319,23.417 504.37,25.808" id="Fill-18" fill="#1A1918" sketch:type="MSShapeGroup"></path>
            <path d="M548.366,29.251 L549.131,29.155 L558.409,21.314 C563.094,21.505 567.112,29.155 571.512,24.087 C572.086,23.991 572.85,23.608 573.329,24.087 C573.807,26.382 570.747,26.573 570.364,28.583 C569.311,32.312 570.079,36.904 569.694,40.92 C569.502,45.033 569.6,49.432 569.502,53.26 C569.409,54.022 570.079,54.693 570.747,54.979 C572.374,56.225 574.286,52.877 575.336,54.787 L574.858,55.744 L565.008,64.83 C561.948,64.736 560.131,62.057 558.313,59.858 C556.495,56.608 557.93,52.494 557.547,49.049 C557.358,44.459 558.409,39.869 557.547,35.275 C555.061,33.651 552.096,33.173 549.418,32.12 L549.036,32.312 C548.557,39.006 548.461,46.084 548.27,52.971 C548.557,55.65 553.053,54.404 551.809,57.561 C549.514,59.955 547.219,62.44 544.924,64.736 C541.768,63.108 538.514,61.58 535.264,60.143 C533.446,60.143 532.776,63.49 530.768,61.865 L530.864,60.717 L535.932,55.268 C536.602,48.475 536.698,40.729 536.793,33.556 C536.506,31.644 534.403,30.974 532.872,30.495 C532.108,29.921 532.491,29.062 532.776,28.392 C535.549,25.808 538.514,23.608 541.194,21.122 C545.305,21.792 546.836,25.903 548.366,29.251" id="Fill-19" fill="#1A1918" sketch:type="MSShapeGroup"></path>
            <path d="M39.067,26.956 C39.067,30.017 38.301,33.077 38.875,36.139 C37.92,42.068 38.875,48.955 38.112,54.787 C35.432,56.701 31.127,55.936 28.069,56.416 C25.581,56.127 22.52,55.936 20.704,53.928 C25.487,52.779 30.077,50.58 32.946,45.99 C35.623,40.826 37.153,34.897 36.772,28.679 C37.153,27.243 36.006,24.566 37.727,23.608 C39.545,23.321 38.971,25.712 39.067,26.956" id="Fill-20" fill="#FFFFFF" sketch:type="MSShapeGroup"></path>
            <path d="M207.78,31.548 C208.069,36.139 208.452,40.443 207.495,44.842 C204.625,45.51 200.704,45.416 198.887,42.643 C196.592,39.006 196.782,33.556 198.6,29.825 C200.129,26.956 202.331,29.921 204.147,29.921 L207.78,31.548" id="Fill-21" fill="#FFFFFF" sketch:type="MSShapeGroup"></path>
            <path d="M319.014,32.025 L319.014,32.79 L313.276,39.58 C312.319,40.154 311.936,39.006 311.077,38.912 C310.598,35.658 310.598,31.739 311.077,28.583 C313.944,29.347 316.432,30.878 319.014,32.025" id="Fill-22" fill="#FFFFFF" sketch:type="MSShapeGroup"></path>
            <path d="M275.305,29.538 C277.504,31.165 279.991,32.312 282.192,33.939 C279.706,36.904 275.879,38.053 273.106,40.635 L272.819,39.869 C273.01,36.807 272.723,33.46 273.106,30.495 C273.487,29.825 274.444,29.155 275.305,29.538" id="Fill-23" fill="#FFFFFF" sketch:type="MSShapeGroup"></path>
            <path d="M358.706,32.407 C359.663,33.269 358.993,34.226 359.28,35.182 C359.567,40.92 359.95,47.233 358.993,52.779 C357.461,53.162 356.028,52.111 354.499,51.822 C353.35,51.154 351.725,51.44 350.959,50.197 C350.577,48.19 351.627,46.373 350.959,44.365 C351.151,39.772 351.534,34.608 351.534,30.304 C354.116,30.495 356.315,31.739 358.706,32.407" id="Fill-24" fill="#FFFFFF" sketch:type="MSShapeGroup"></path>
            <path d="M118.069,33.364 C117.208,35.088 115.389,36.33 113.668,37.287 C113.573,35.182 113.477,32.79 113.86,30.687 C115.295,31.261 116.825,32.216 118.069,33.364" id="Fill-25" fill="#FFFFFF" sketch:type="MSShapeGroup"></path>
            <path d="M444.116,33.939 C448.227,36.139 453.489,34.99 457.983,35.756 C457.792,36.424 457.315,37.096 456.645,37.381 C451.002,36.904 444.69,38.147 440.194,34.99 C439.333,34.034 438.663,32.79 438.952,31.548 C441.055,30.112 442.297,33.46 444.116,33.939" id="Fill-26" fill="#FFFFFF" sketch:type="MSShapeGroup"></path>
            <path d="M477.112,40.443 C478.452,43.983 478.643,48.283 476.061,51.248 C473.764,54.404 470.799,57.178 467.069,57.85 C468.6,54.502 473.668,52.686 474.338,48.666 C475.2,45.51 474.147,42.451 472.331,40.061 C469.844,36.139 465.061,37.858 461.331,36.904 C460.948,35.756 462.288,36.041 462.956,35.658 C467.834,36.522 474.434,34.608 477.112,40.443" id="Fill-27" fill="#FFFFFF" sketch:type="MSShapeGroup"></path>
            <path d="M319.684,44.744 L319.493,54.693 L318.918,55.17 C315.284,53.162 311.651,51.44 308.206,49.049 C309.737,46.756 311.553,44.65 313.372,42.545 L314.137,41.971 C316.049,42.736 318.727,42.643 319.684,44.744" id="Fill-28" fill="#FFFFFF" sketch:type="MSShapeGroup"></path>
            <path d="M207.59,47.713 C208.163,50.772 207.399,53.736 207.399,56.799 C206.92,57.275 206.252,57.369 205.678,57.084 L200.799,49.338 C200.417,48.19 201.469,47.615 202.233,47.233 C203.764,47.615 205.963,47.041 207.59,47.713" id="Fill-29" fill="#FFFFFF" sketch:type="MSShapeGroup"></path>
            <path d="M463.436,49.432 C465.444,50.295 465.444,52.397 465.827,54.119 C465.731,55.553 464.583,56.608 463.913,57.658 C461.713,57.658 460.565,55.459 458.461,54.979 C455.305,53.354 451.67,52.494 448.227,51.822 C448.706,50.772 449.375,49.049 450.905,48.764 C454.829,48.764 459.61,49.049 463.436,49.432" id="Fill-30" fill="#FFFFFF" sketch:type="MSShapeGroup"></path>
            <path d="M223.752,55.17 L223.752,54.596 L223.85,55.076 L223.752,55.17" id="Fill-31" fill="#FFFFFF" sketch:type="MSShapeGroup"></path>
            <path d="M437.708,58.807 C437.133,60.815 434.838,62.44 433.594,64.162 C432.448,64.545 430.821,64.928 429.866,63.779 C429.579,62.346 430.438,61.483 430.821,60.334 C432.448,58.326 435.315,58.518 437.708,58.807" id="Fill-32" fill="#FFFFFF" sketch:type="MSShapeGroup"></path>
        </g>
    </g>
</svg>