<svg xmlns="http://www.w3.org/2000/svg" width="232" height="44" viewBox="0 0 232 44">
  <g fill="none" fill-rule="evenodd">
    <path fill="#404040" d="M.986 41.404L1.833 41.404C2.111 41.404 2.33 41.336 2.492 41.199 2.654 41.062 2.735 40.875 2.735 40.639 2.735 40.402 2.654 40.216 2.492 40.079 2.33 39.942 2.111 39.874 1.833 39.874L.986 39.874.986 41.404zM.358 43.576L.358 39.344 1.833 39.344C2.306 39.344 2.681 39.46 2.959 39.693 3.237 39.925 3.376 40.241 3.376 40.639 3.376 41.033 3.237 41.345 2.959 41.575 2.681 41.805 2.306 41.92 1.833 41.92L.986 41.92.986 43.576.358 43.576zM4.645 41.983L6.189 41.983 5.417 39.998 4.645 41.983zM6.805 43.576L6.394 42.512 4.44 42.512 4.03 43.576 3.395 43.576 5.087 39.344 5.766 39.344 7.452 43.576 6.805 43.576zM8.783 41.342L9.648 41.342C9.918 41.342 10.133 41.276 10.292 41.143 10.452 41.01 10.532 40.832 10.532 40.607 10.532 40.383 10.452 40.205 10.292 40.072 10.133 39.94 9.918 39.874 9.648 39.874L8.783 39.874 8.783 41.342zM8.783 41.858L8.783 43.576 8.155 43.576 8.155 39.344 9.648 39.344C10.117 39.344 10.488 39.457 10.762 39.684 11.036 39.91 11.173 40.218 11.173 40.607 11.173 40.902 11.09 41.151 10.924 41.354 10.758 41.557 10.53 41.701 10.239 41.784L11.266 43.576 10.551 43.576 9.586 41.858 8.783 41.858z"/>
    <polyline fill="#404040" points="12.978 43.576 12.978 39.874 11.553 39.874 11.553 39.344 15.031 39.344 15.031 39.874 13.606 39.874 13.606 43.576 12.978 43.576"/>
    <path fill="#404040" d="M19.07,43.097 C19.343,43.097 19.587,43.027 19.801,42.888 C20.014,42.749 20.182,42.558 20.302,42.313 C20.422,42.068 20.482,41.784 20.482,41.46 C20.482,41.137 20.422,40.852 20.302,40.607 C20.182,40.363 20.014,40.171 19.801,40.032 C19.587,39.893 19.343,39.823 19.07,39.823 C18.796,39.823 18.553,39.893 18.342,40.032 C18.13,40.171 17.964,40.363 17.844,40.607 C17.723,40.852 17.663,41.137 17.663,41.46 C17.663,41.784 17.723,42.068 17.844,42.313 C17.964,42.558 18.13,42.749 18.342,42.888 C18.553,43.027 18.796,43.097 19.07,43.097 Z M19.07,43.644 C18.671,43.644 18.319,43.551 18.012,43.365 C17.705,43.177 17.463,42.921 17.287,42.592 C17.11,42.265 17.022,41.887 17.022,41.46 C17.022,41.033 17.11,40.655 17.287,40.328 C17.463,40 17.705,39.743 18.012,39.556 C18.319,39.369 18.671,39.276 19.07,39.276 C19.468,39.276 19.822,39.369 20.131,39.556 C20.44,39.743 20.682,40 20.859,40.328 C21.035,40.655 21.123,41.033 21.123,41.46 C21.123,41.887 21.035,42.265 20.859,42.592 C20.682,42.921 20.44,43.177 20.131,43.365 C19.822,43.551 19.468,43.644 19.07,43.644 Z"/>
    <polyline fill="#404040" points="22.635 43.576 22.007 43.576 22.007 39.344 24.639 39.344 24.639 39.874 22.635 39.874 22.635 41.304 24.334 41.304 24.334 41.834 22.635 41.834 22.635 43.576"/>
    <polyline fill="#404040" points="27.918 43.576 27.918 39.874 26.493 39.874 26.493 39.344 29.972 39.344 29.972 39.874 28.547 39.874 28.547 43.576 27.918 43.576"/>
    <polyline fill="#404040" points="30.693 43.576 30.693 39.344 31.322 39.344 31.322 41.155 33.506 41.155 33.506 39.344 34.135 39.344 34.135 43.576 33.506 43.576 33.506 41.697 31.322 41.697 31.322 43.576 30.693 43.576"/>
    <polyline fill="#404040" points="35.242 43.576 35.242 39.344 37.955 39.344 37.955 39.874 35.871 39.874 35.871 41.18 37.706 41.18 37.706 41.709 35.871 41.709 35.871 43.047 38.005 43.047 38.005 43.576 35.242 43.576"/>
    <path fill="#404040" d="M41.975 43.097C42.32 43.097 42.59 42.993 42.787 42.786 42.984 42.578 43.083 42.298 43.083 41.946L43.083 39.344 43.711 39.344 43.711 41.952C43.711 42.479 43.557 42.893 43.248 43.193 42.939 43.494 42.514 43.644 41.975 43.644 41.436 43.644 41.013 43.494 40.706 43.193 40.399 42.893 40.245 42.479 40.245 41.952L40.245 39.344 40.874 39.344 40.874 41.946C40.874 42.298 40.972 42.578 41.169 42.786 41.366 42.993 41.635 43.097 41.975 43.097M46.057 43.644C45.738 43.644 45.433 43.588 45.142 43.477 44.852 43.365 44.618 43.215 44.439 43.028L44.794 42.611C44.96 42.765 45.156 42.885 45.382 42.972 45.608 43.059 45.833 43.103 46.057 43.103 46.331 43.103 46.552 43.05 46.72 42.944 46.888 42.838 46.972 42.692 46.972 42.505 46.972 42.335 46.912 42.193 46.792 42.076 46.671 41.96 46.466 41.863 46.175 41.784L45.59 41.628C45.213 41.529 44.938 41.388 44.766 41.205 44.594 41.023 44.508 40.784 44.508 40.489 44.508 40.249 44.572 40.037 44.701 39.855 44.829 39.672 45.007 39.53 45.233 39.428 45.459 39.327 45.715 39.276 46.001 39.276 46.304 39.276 46.588 39.333 46.854 39.447 47.119 39.561 47.353 39.72 47.557 39.923L47.177 40.334C46.999 40.168 46.813 40.04 46.62 39.951 46.427 39.862 46.223 39.817 46.007 39.817 45.746 39.817 45.532 39.873 45.366 39.982 45.2 40.092 45.118 40.245 45.118 40.44 45.118 40.618 45.177 40.757 45.295 40.856 45.413 40.956 45.595 41.039 45.839 41.105L46.493 41.286C46.87 41.39 47.146 41.535 47.32 41.722 47.495 41.908 47.582 42.14 47.582 42.419 47.582 42.663 47.517 42.878 47.389 43.062 47.26 43.247 47.082 43.39 46.854 43.492 46.626 43.594 46.36 43.644 46.057 43.644M49.162 41.983L50.705 41.983 49.934 39.998 49.162 41.983zM51.322 43.576L50.911 42.512 48.957 42.512 48.546 43.576 47.912 43.576 49.604 39.344 50.282 39.344 51.969 43.576 51.322 43.576z"/>
    <polyline fill="#404040" points="54.894 43.576 54.894 39.874 53.469 39.874 53.469 39.344 56.947 39.344 56.947 39.874 55.522 39.874 55.522 43.576 54.894 43.576"/>
    <path fill="#404040" d="M59.212 43.097C59.486 43.097 59.73 43.027 59.943 42.888 60.157 42.749 60.324 42.558 60.444 42.313 60.564 42.068 60.625 41.784 60.625 41.46 60.625 41.137 60.564 40.852 60.444 40.607 60.324 40.363 60.157 40.171 59.943 40.032 59.73 39.893 59.486 39.823 59.212 39.823 58.938 39.823 58.696 39.893 58.484 40.032 58.273 40.171 58.107 40.363 57.986 40.607 57.866 40.852 57.806 41.137 57.806 41.46 57.806 41.784 57.866 42.068 57.986 42.313 58.107 42.558 58.273 42.749 58.484 42.888 58.696 43.027 58.938 43.097 59.212 43.097zM59.212 43.644C58.814 43.644 58.461 43.551 58.154 43.365 57.847 43.177 57.605 42.921 57.429 42.592 57.253 42.265 57.165 41.887 57.165 41.46 57.165 41.033 57.253 40.655 57.429 40.328 57.605 40 57.847 39.743 58.154 39.556 58.461 39.369 58.814 39.276 59.212 39.276 59.61 39.276 59.964 39.369 60.273 39.556 60.582 39.743 60.825 40 61.001 40.328 61.178 40.655 61.266 41.033 61.266 41.46 61.266 41.887 61.178 42.265 61.001 42.592 60.825 42.921 60.582 43.177 60.273 43.365 59.964 43.551 59.61 43.644 59.212 43.644zM62.778 43.047L63.636 43.047C63.935 43.047 64.191 42.982 64.405 42.851 64.618 42.72 64.782 42.537 64.896 42.3 65.01 42.064 65.067 41.784 65.067 41.46 65.067 41.137 65.01 40.856 64.896 40.62 64.782 40.383 64.618 40.2 64.405 40.069 64.191 39.938 63.935 39.874 63.636 39.874L62.778 39.874 62.778 43.047zM62.149 43.576L62.149 39.344 63.636 39.344C64.051 39.344 64.414 39.433 64.725 39.609 65.036 39.785 65.278 40.032 65.45 40.35 65.622 40.667 65.708 41.037 65.708 41.46 65.708 41.883 65.622 42.253 65.45 42.571 65.278 42.888 65.036 43.135 64.725 43.311 64.414 43.488 64.051 43.576 63.636 43.576L62.149 43.576zM67.314 41.983L68.857 41.983 68.086 39.998 67.314 41.983zM69.473 43.576L69.063 42.512 67.109 42.512 66.698 43.576 66.063 43.576 67.756 39.344 68.434 39.344 70.12 43.576 69.473 43.576z"/>
    <polyline fill="#404040" points="72.05 41.895 72.05 43.576 71.421 43.576 71.421 41.895 69.934 39.344 70.674 39.344 71.738 41.298 72.802 39.344 73.531 39.344 72.05 41.895"/>
    <polyline fill="#404040" points="78.558 43.576 76.3 40.334 76.3 43.576 75.708 43.576 75.708 39.344 76.293 39.344 78.558 42.586 78.558 39.344 79.143 39.344 79.143 43.576 78.558 43.576"/>
    <polyline fill="#404040" points="80.251 43.576 80.251 39.344 82.964 39.344 82.964 39.874 80.879 39.874 80.879 41.18 82.715 41.18 82.715 41.709 80.879 41.709 80.879 43.047 83.014 43.047 83.014 43.576 80.251 43.576"/>
    <polyline fill="#404040" points="84.881 43.576 84.881 39.874 83.456 39.874 83.456 39.344 86.934 39.344 86.934 39.874 85.509 39.874 85.509 43.576 84.881 43.576"/>
    <polyline fill="#404040" points="91.041 43.576 90.052 40.203 89.062 43.576 88.409 43.576 87.282 39.344 87.905 39.344 88.764 42.692 89.753 39.344 90.35 39.344 91.346 42.704 92.211 39.344 92.821 39.344 91.694 43.576 91.041 43.576"/>
    <path fill="#404040" d="M95.316 43.097C95.59 43.097 95.834 43.027 96.047 42.888 96.261 42.749 96.428 42.558 96.548 42.313 96.668 42.068 96.729 41.784 96.729 41.46 96.729 41.137 96.668 40.852 96.548 40.607 96.428 40.363 96.261 40.171 96.047 40.032 95.834 39.893 95.59 39.823 95.316 39.823 95.042 39.823 94.8 39.893 94.588 40.032 94.377 40.171 94.211 40.363 94.09 40.607 93.97 40.852 93.91 41.137 93.91 41.46 93.91 41.784 93.97 42.068 94.09 42.313 94.211 42.558 94.377 42.749 94.588 42.888 94.8 43.027 95.042 43.097 95.316 43.097zM95.316 43.644C94.918 43.644 94.565 43.551 94.258 43.365 93.951 43.177 93.709 42.921 93.533 42.592 93.357 42.265 93.269 41.887 93.269 41.46 93.269 41.033 93.357 40.655 93.533 40.328 93.709 40 93.951 39.743 94.258 39.556 94.565 39.369 94.918 39.276 95.316 39.276 95.714 39.276 96.068 39.369 96.377 39.556 96.686 39.743 96.929 40 97.105 40.328 97.282 40.655 97.37 41.033 97.37 41.46 97.37 41.887 97.282 42.265 97.105 42.592 96.929 42.921 96.686 43.177 96.377 43.365 96.068 43.551 95.714 43.644 95.316 43.644zM98.882 41.342L99.747 41.342C100.016 41.342 100.231 41.276 100.391 41.143 100.55 41.01 100.63 40.832 100.63 40.607 100.63 40.383 100.55 40.205 100.391 40.072 100.231 39.94 100.016 39.874 99.747 39.874L98.882 39.874 98.882 41.342zM98.882 41.858L98.882 43.576 98.253 43.576 98.253 39.344 99.747 39.344C100.215 39.344 100.587 39.457 100.861 39.684 101.134 39.91 101.271 40.218 101.271 40.607 101.271 40.902 101.188 41.151 101.022 41.354 100.856 41.557 100.628 41.701 100.338 41.784L101.365 43.576 100.649 43.576 99.684 41.858 98.882 41.858z"/>
    <polyline fill="#404040" points="104.688 43.576 102.79 41.441 102.79 43.576 102.161 43.576 102.161 39.344 102.79 39.344 102.79 41.199 104.563 39.344 105.341 39.344 103.455 41.286 105.478 43.576 104.688 43.576"/>
    <polyline fill="#404040" points="18.403 34.309 8.683 19.349 8.683 34.309 .358 34.309 .358 3.71 8.683 3.71 8.683 17.143 18.763 3.71 28.393 3.71 17.053 17.772 28.168 34.309 18.403 34.309"/>
    <path fill="#404040" d="M31.723 34.309L31.723 11.405C32.983 11.675 34.258 11.809 35.548 11.809 36.867 11.809 38.203 11.675 39.553 11.405L39.553 34.309 31.723 34.309M61.917 32.825C60.987 33.455 59.922 33.957 58.722 34.332 57.522 34.707 56.262 34.894 54.942 34.894 52.482 34.894 50.525 34.182 49.07 32.757 47.615 31.333 46.887 29.42 46.887 27.019L46.887 17.255 43.152 17.255 43.152 11.405 47.247 11.405 48.237 5.014 54.717 5.014 54.717 11.405 60.702 11.405 60.702 17.255 54.717 17.255 54.717 26.03C54.717 26.81 54.949 27.418 55.415 27.852 55.88 28.287 56.502 28.505 57.282 28.505 57.672 28.505 58.07 28.43 58.475 28.28 58.88 28.13 59.262 27.95 59.622 27.739L61.917 32.825M74.157 34.894C72.177 34.894 70.324 34.58 68.599 33.95 66.874 33.32 65.322 32.42 63.942 31.25L67.272 26.84C68.322 27.68 69.455 28.363 70.669 28.887 71.884 29.412 73.077 29.675 74.247 29.675 75.027 29.675 75.649 29.54 76.114 29.269 76.579 29 76.812 28.595 76.812 28.055 76.812 27.485 76.549 27.027 76.024 26.682 75.499 26.338 74.562 26 73.212 25.67L71.052 25.13C66.761 23.99 64.617 21.695 64.617 18.245 64.617 16.715 65.037 15.395 65.877 14.285 66.717 13.175 67.872 12.32 69.342 11.72 70.811 11.12 72.521 10.82 74.472 10.82 76.392 10.82 78.199 11.12 79.894 11.72 81.589 12.32 83.142 13.19 84.552 14.33L81.132 18.83C80.082 17.99 78.972 17.315 77.802 16.805 76.632 16.295 75.537 16.04 74.517 16.04 72.867 16.04 72.042 16.58 72.042 17.66 72.042 18.14 72.29 18.53 72.784 18.83 73.28 19.13 73.977 19.4 74.877 19.639L77.802 20.45C79.991 21.05 81.612 21.95 82.662 23.15 83.712 24.35 84.237 25.775 84.237 27.425 84.237 28.925 83.816 30.237 82.977 31.362 82.137 32.487 80.959 33.357 79.445 33.972 77.929 34.587 76.166 34.894 74.157 34.894M94.677 26.885C94.677 27.575 94.931 28.138 95.442 28.572 95.952 29.008 96.612 29.224 97.422 29.224 98.502 29.224 99.409 28.857 100.144 28.122 100.879 27.388 101.247 26.465 101.247 25.354L101.247 24.59C100.437 24.44 99.582 24.364 98.682 24.364 97.541 24.364 96.589 24.56 95.824 24.95 95.059 25.34 94.677 25.985 94.677 26.885zM101.562 34.309L101.157 31.295C99.656 33.695 97.377 34.894 94.317 34.894 92.967 34.894 91.744 34.602 90.649 34.017 89.554 33.432 88.684 32.63 88.039 31.61 87.394 30.59 87.072 29.405 87.072 28.055 87.072 25.505 88.069 23.525 90.064 22.114 92.059 20.705 94.692 20 97.962 20 98.981 20 100.061 20.09 101.202 20.269 101.082 19.13 100.594 18.267 99.739 17.682 98.884 17.097 97.842 16.805 96.612 16.805 95.532 16.805 94.444 17.007 93.349 17.412 92.254 17.817 91.212 18.305 90.222 18.875L87.567 13.835C89.067 12.875 90.686 12.133 92.427 11.607 94.166 11.083 95.906 10.82 97.647 10.82 99.746 10.82 101.636 11.18 103.317 11.9 104.997 12.62 106.316 13.715 107.277 15.184 108.237 16.655 108.717 18.514 108.717 20.764L108.717 34.309 101.562 34.309zM125.907 28.684C127.286 28.684 128.389 28.152 129.214 27.087 130.039 26.022 130.452 24.605 130.452 22.835 130.452 21.065 130.039 19.647 129.214 18.582 128.389 17.517 127.286 16.985 125.907 16.985 124.557 16.985 123.469 17.517 122.644 18.582 121.819 19.647 121.407 21.065 121.407 22.835 121.407 24.605 121.819 26.022 122.644 27.087 123.469 28.152 124.557 28.684 125.907 28.684zM128.022 34.894C126.672 34.894 125.441 34.609 124.332 34.04 123.222 33.47 122.291 32.689 121.542 31.7L121.542 42.635 113.712 42.635 113.712 11.405 120.867 11.405 121.272 14.42C121.992 13.34 122.959 12.47 124.174 11.809 125.389 11.15 126.791 10.82 128.382 10.82 130.332 10.82 132.056 11.33 133.557 12.349 135.057 13.37 136.241 14.78 137.112 16.58 137.981 18.38 138.417 20.465 138.417 22.835 138.417 25.205 137.974 27.298 137.089 29.112 136.204 30.928 134.974 32.345 133.399 33.365 131.824 34.384 130.031 34.894 128.022 34.894z"/>
    <path fill="#009BFF" class='no-color-change' d="M164.741 34.894C162.251 34.894 159.865 34.467 157.586 33.612 155.306 32.757 153.326 31.535 151.646 29.945L155.696 24.86C156.896 25.939 158.245 26.788 159.746 27.402 161.246 28.017 162.896 28.325 164.696 28.325 165.896 28.325 166.841 28.115 167.531 27.695 168.221 27.275 168.566 26.645 168.566 25.805 168.566 24.995 168.161 24.342 167.351 23.847 166.541 23.352 165.116 22.835 163.076 22.295L161.186 21.8C158.426 21.08 156.326 19.977 154.886 18.492 153.446 17.007 152.726 15.125 152.726 12.845 152.726 10.895 153.236 9.185 154.256 7.715 155.276 6.245 156.686 5.112 158.486 4.317 160.286 3.522 162.371 3.125 164.741 3.125 167.081 3.125 169.316 3.552 171.446 4.407 173.576 5.262 175.466 6.425 177.116 7.894L172.931 13.16C171.851 12.23 170.583 11.42 169.129 10.729 167.673 10.04 166.226 9.695 164.786 9.695 163.586 9.695 162.663 9.897 162.018 10.302 161.373 10.707 161.051 11.3 161.051 12.08 161.051 12.8 161.388 13.423 162.064 13.947 162.738 14.472 163.901 14.96 165.551 15.41L167.846 16.04C171.146 16.939 173.478 18.17 174.843 19.729 176.208 21.29 176.891 23.104 176.891 25.175 176.891 27.125 176.388 28.827 175.384 30.282 174.378 31.738 172.961 32.87 171.131 33.679 169.301 34.49 167.171 34.894 164.741 34.894M196.421 34.309L196.016 31.295C195.265 32.405 194.283 33.282 193.068 33.927 191.853 34.572 190.541 34.894 189.131 34.894 186.46 34.894 184.421 34.107 183.011 32.532 181.6 30.957 180.896 28.684 180.896 25.715L180.896 11.405 188.726 11.405 188.726 24.814C188.726 27.305 189.865 28.55 192.146 28.55 194.546 28.55 195.746 27.05 195.746 24.05L195.746 11.405 203.576 11.405 203.576 34.309 196.421 34.309M216.895 21.665L216.895 34.309 209.066 34.309 209.066 11.405 216.22 11.405 216.625 14.42C217.375 13.34 218.35 12.47 219.551 11.809 220.75 11.15 222.071 10.82 223.51 10.82 226 10.82 227.995 11.63 229.495 13.25 230.995 14.87 231.745 17.195 231.745 20.224L231.745 34.309 223.915 34.309 223.915 21.125C223.915 19.775 223.615 18.778 223.015 18.132 222.415 17.487 221.575 17.165 220.495 17.165 219.415 17.165 218.545 17.51 217.885 18.2 217.225 18.89 216.895 20.045 216.895 21.665M35.548 9.604C34.258 9.604 33.155 9.147 32.24 8.232 31.325 7.317 30.868 6.215 30.868 4.925 30.868 3.635 31.325 2.533 32.24 1.617 33.155.702 34.258.245 35.548.245 36.837.245 37.94.702 38.855 1.617 39.77 2.533 40.228 3.635 40.228 4.925 40.228 6.215 39.77 7.317 38.855 8.232 37.94 9.147 36.837 9.604 35.548 9.604"/>
  </g>
</svg>
