<?xml version="1.0" encoding="UTF-8"?>
<svg width="244px" height="34px" viewBox="0 0 244 34" version="1.1" xmlns="http://www.w3.org/2000/svg" xmlns:xlink="http://www.w3.org/1999/xlink">
    <!-- Generator: Sketch 47.1 (45422) - http://www.bohemiancoding.com/sketch -->
    <title>TN_Knoxville_Logo_Prm-nEds_KOR_RGB</title>
    <desc>Created with Sketch.</desc>
    <defs></defs>
    <g id="Page-1" stroke="none" stroke-width="1" fill="none" fill-rule="evenodd">
        <g id="TN_Knoxville_Logo_Prm-nEds_KOR_RGB" transform="translate(0.000000, -69.000000)">
            <polyline id="Fill-1" fill="#009BFF" class='no-color-change' points="15.253 102.058 8.187 90.628 8.187 102.058 0.357 102.058 0.357 69.208 8.187 69.208 8.187 88.378 15.478 79.153 24.793 79.153 16.152 89.233 24.658 102.058 15.253 102.058"></polyline>
            <path d="M35.862,89.413 L35.862,102.058 L28.032,102.058 L28.032,79.153 L35.187,79.153 L35.592,82.168 C36.342,81.088 37.316,80.218 38.517,79.558 C39.717,78.899 41.037,78.568 42.476,78.568 C44.967,78.568 46.961,79.378 48.462,80.998 C49.962,82.617 50.712,84.943 50.712,87.973 L50.712,102.058 L42.883,102.058 L42.883,88.873 C42.883,87.523 42.582,86.526 41.982,85.88 C41.382,85.236 40.542,84.913 39.462,84.913 C38.383,84.913 37.512,85.258 36.851,85.947 C36.191,86.638 35.862,87.793 35.862,89.413" id="Fill-2" fill="#009BFF" class='no-color-change'></path>
            <path d="M66.912,96.433 C68.291,96.433 69.393,95.901 70.219,94.835 C71.044,93.771 71.457,92.354 71.457,90.583 C71.457,88.813 71.044,87.404 70.219,86.353 C69.393,85.303 68.291,84.778 66.912,84.778 C65.531,84.778 64.429,85.303 63.604,86.353 C62.779,87.404 62.367,88.813 62.367,90.583 C62.367,92.354 62.779,93.771 63.604,94.835 C64.429,95.901 65.531,96.433 66.912,96.433 Z M66.912,102.643 C64.451,102.643 62.283,102.125 60.409,101.09 C58.534,100.055 57.064,98.638 55.999,96.838 C54.933,95.038 54.402,92.953 54.402,90.583 C54.402,88.213 54.933,86.128 55.999,84.327 C57.064,82.528 58.534,81.118 60.409,80.098 C62.283,79.078 64.451,78.568 66.912,78.568 C69.371,78.568 71.539,79.078 73.414,80.098 C75.289,81.118 76.759,82.528 77.824,84.327 C78.888,86.128 79.422,88.213 79.422,90.583 C79.422,92.953 78.888,95.038 77.824,96.838 C76.759,98.638 75.289,100.055 73.414,101.09 C71.539,102.125 69.371,102.643 66.912,102.643 L66.912,102.643 Z" id="Fill-3" fill="#009BFF" class='no-color-change'></path>
            <polyline id="Fill-4" fill="#009BFF" class='no-color-change' points="97.781 102.058 93.641 95.713 89.457 102.058 80.457 102.058 88.962 90.223 81.132 79.153 90.132 79.153 93.641 84.598 97.197 79.153 106.197 79.153 98.322 90.133 106.781 102.058 97.781 102.058"></polyline>
            <path d="M128.56,89.413 L128.56,102.058 L120.73,102.058 L120.73,79.153 L127.885,79.153 L128.291,82.168 C129.041,81.088 130.015,80.218 131.216,79.558 C132.416,78.899 133.736,78.568 135.176,78.568 C137.666,78.568 139.66,79.378 141.16,80.998 C142.66,82.617 143.41,84.943 143.41,87.973 L143.41,102.058 L135.581,102.058 L135.581,88.873 C135.581,87.523 135.281,86.526 134.68,85.88 C134.08,85.236 133.24,84.913 132.16,84.913 C131.081,84.913 130.211,85.258 129.551,85.947 C128.89,86.638 128.56,87.793 128.56,89.413" id="Fill-5" fill="#FFFFFF"></path>
            <path d="M159.34,84.238 C156.79,84.238 155.26,85.588 154.75,88.288 L163.48,88.288 C163.269,86.819 162.767,85.776 161.972,85.16 C161.177,84.546 160.301,84.238 159.34,84.238 Z M170.051,99.718 C168.91,100.528 167.463,101.218 165.708,101.788 C163.953,102.358 162.086,102.643 160.105,102.643 C157.375,102.643 155.043,102.14 153.107,101.135 C151.173,100.13 149.687,98.728 148.652,96.928 C147.618,95.128 147.1,93.058 147.1,90.718 C147.1,88.348 147.61,86.248 148.631,84.418 C149.65,82.588 151.06,81.155 152.86,80.12 C154.66,79.085 156.76,78.568 159.16,78.568 C161.5,78.568 163.562,79.07 165.347,80.075 C167.133,81.081 168.527,82.476 169.533,84.26 C170.537,86.045 171.041,88.138 171.041,90.538 C171.041,90.868 171.017,91.213 170.972,91.572 C170.927,91.933 170.875,92.308 170.815,92.697 L154.84,92.697 C155.56,95.338 157.525,96.657 160.735,96.657 C162.176,96.657 163.45,96.433 164.56,95.983 C165.67,95.532 166.599,95.083 167.35,94.633 L170.051,99.718 L170.051,99.718 Z" id="Fill-6" fill="#FFFFFF"></path>
            <polyline id="Fill-7" fill="#FFFFFF" points="194.349 102.058 190.66 88.153 187.015 102.058 178.916 102.058 172.974 79.153 180.985 79.153 183.37 93.913 187.24 79.153 194.125 79.153 198.131 93.958 200.56 79.153 208.39 79.153 202.45 102.058 194.349 102.058"></polyline>
            <path d="M220.314,102.643 C218.334,102.643 216.482,102.327 214.757,101.697 C213.031,101.068 211.478,100.168 210.099,98.998 L213.429,94.588 C214.478,95.428 215.611,96.11 216.827,96.635 C218.042,97.16 219.234,97.423 220.404,97.423 C221.183,97.423 221.806,97.288 222.271,97.018 C222.736,96.748 222.969,96.343 222.969,95.803 C222.969,95.234 222.707,94.776 222.181,94.43 C221.656,94.086 220.719,93.748 219.369,93.418 L217.209,92.878 C212.919,91.739 210.774,89.443 210.774,85.992 C210.774,84.463 211.194,83.143 212.035,82.032 C212.874,80.923 214.029,80.068 215.5,79.468 C216.969,78.868 218.679,78.568 220.629,78.568 C222.549,78.568 224.357,78.868 226.052,79.468 C227.746,80.068 229.299,80.938 230.709,82.077 L227.289,86.577 C226.238,85.739 225.129,85.064 223.959,84.553 C222.789,84.043 221.693,83.788 220.674,83.788 C219.024,83.788 218.199,84.327 218.199,85.407 C218.199,85.888 218.447,86.279 218.941,86.577 C219.437,86.878 220.135,87.148 221.035,87.388 L223.959,88.197 C226.148,88.798 227.769,89.698 228.819,90.898 C229.869,92.098 230.394,93.524 230.394,95.173 C230.394,96.673 229.974,97.985 229.135,99.11 C228.295,100.235 227.117,101.106 225.601,101.72 C224.087,102.335 222.324,102.643 220.314,102.643" id="Fill-8" fill="#FFFFFF"></path>
            <path d="M238.674,102.553 C237.714,102.553 236.836,102.32 236.041,101.856 C235.246,101.391 234.616,100.761 234.152,99.966 C233.686,99.172 233.454,98.294 233.454,97.333 C233.454,96.374 233.686,95.496 234.152,94.701 C234.616,93.906 235.246,93.277 236.041,92.811 C236.836,92.346 237.714,92.114 238.674,92.114 C239.634,92.114 240.511,92.346 241.306,92.811 C242.101,93.277 242.731,93.906 243.197,94.701 C243.661,95.496 243.894,96.374 243.894,97.333 C243.894,98.294 243.661,99.172 243.197,99.966 C242.731,100.761 242.101,101.391 241.306,101.856 C240.511,102.32 239.634,102.553 238.674,102.553" id="Fill-9" fill="#009BFF" class='no-color-change'></path>
        </g>
    </g>
</svg>
