<svg xmlns="http://www.w3.org/2000/svg" width="244" height="46" viewBox="0 0 244 46">
  <g fill="none" fill-rule="evenodd" transform="translate(-1)">
    <path fill="#FFFFFF" d="M1.852 42.657L3.003 42.657C3.382 42.657 3.681 42.566 3.902 42.384 4.121 42.201 4.231 41.953 4.231 41.638 4.231 41.323 4.121 41.073 3.902 40.891 3.681 40.71 3.382 40.617 3.003 40.617L1.852 40.617 1.852 42.657zM.997 45.552L.997 39.913 3.003 39.913C3.647 39.913 4.158 40.068 4.536 40.377 4.914 40.686 5.104 41.106 5.104 41.638 5.104 42.162 4.914 42.58 4.536 42.885 4.158 43.193 3.647 43.346 3.003 43.346L1.852 43.346 1.852 45.552.997 45.552zM6.832 43.429L8.932 43.429 7.882 40.783 6.832 43.429zM9.77 45.552L9.211 44.135 6.552 44.135 5.993 45.552 5.129 45.552 7.433 39.913 8.356 39.913 10.65 45.552 9.77 45.552zM12.463 42.574L13.64 42.574C14.006 42.574 14.299 42.487 14.516 42.309 14.734 42.133 14.843 41.895 14.843 41.595 14.843 41.298 14.734 41.06 14.516 40.884 14.299 40.706 14.006 40.617 13.64 40.617L12.463 40.617 12.463 42.574zM12.463 43.262L12.463 45.552 11.607 45.552 11.607 39.913 13.64 39.913C14.278 39.913 14.783 40.064 15.156 40.365 15.528 40.665 15.715 41.077 15.715 41.595 15.715 41.988 15.602 42.321 15.376 42.591 15.15 42.862 14.84 43.054 14.444 43.164L15.842 45.552 14.868 45.552 13.555 43.262 12.463 43.262z"/>
    <polyline fill="#FFFFFF" points="18.17 45.552 18.17 40.617 16.231 40.617 16.231 39.913 20.965 39.913 20.965 40.617 19.026 40.617 19.026 45.552 18.17 45.552"/>
    <path fill="#FFFFFF" d="M26.461,44.914 C26.833,44.914 27.165,44.821 27.456,44.635 C27.746,44.45 27.973,44.195 28.138,43.868 C28.301,43.543 28.383,43.164 28.383,42.733 C28.383,42.301 28.301,41.922 28.138,41.595 C27.973,41.27 27.746,41.015 27.456,40.83 C27.165,40.644 26.833,40.551 26.461,40.551 C26.088,40.551 25.758,40.644 25.47,40.83 C25.182,41.015 24.956,41.27 24.792,41.595 C24.628,41.922 24.546,42.301 24.546,42.733 C24.546,43.164 24.628,43.543 24.792,43.868 C24.956,44.195 25.182,44.45 25.47,44.635 C25.758,44.821 26.088,44.914 26.461,44.914 Z M26.461,45.643 C25.918,45.643 25.439,45.519 25.021,45.27 C24.603,45.02 24.275,44.678 24.035,44.241 C23.794,43.804 23.674,43.301 23.674,42.733 C23.674,42.162 23.794,41.659 24.035,41.222 C24.275,40.787 24.603,40.443 25.021,40.195 C25.439,39.946 25.918,39.822 26.461,39.822 C27.002,39.822 27.484,39.946 27.904,40.195 C28.325,40.443 28.655,40.787 28.896,41.222 C29.135,41.659 29.255,42.162 29.255,42.733 C29.255,43.301 29.135,43.804 28.896,44.241 C28.655,44.678 28.325,45.02 27.904,45.27 C27.484,45.519 27.002,45.643 26.461,45.643 Z"/>
    <polyline fill="#FFFFFF" points="31.313 45.552 30.458 45.552 30.458 39.913 34.04 39.913 34.04 40.617 31.313 40.617 31.313 42.526 33.625 42.526 33.625 43.229 31.313 43.229 31.313 45.552"/>
    <polyline fill="#FFFFFF" points="38.502 45.552 38.502 40.617 36.564 40.617 36.564 39.913 41.297 39.913 41.297 40.617 39.358 40.617 39.358 45.552 38.502 45.552"/>
    <polyline fill="#FFFFFF" points="42.279 45.552 42.279 39.913 43.135 39.913 43.135 42.326 46.107 42.326 46.107 39.913 46.962 39.913 46.962 45.552 46.107 45.552 46.107 43.048 43.135 43.048 43.135 45.552 42.279 45.552"/>
    <polyline fill="#FFFFFF" points="48.47 45.552 48.47 39.913 52.162 39.913 52.162 40.617 49.324 40.617 49.324 42.359 51.823 42.359 51.823 43.063 49.324 43.063 49.324 44.846 52.229 44.846 52.229 45.552 48.47 45.552"/>
    <path fill="#FFFFFF" d="M57.632 44.914C58.101 44.914 58.469 44.775 58.737 44.498 59.006 44.222 59.139 43.848 59.139 43.378L59.139 39.913 59.995 39.913 59.995 43.388C59.995 44.09 59.784 44.641 59.363 45.042 58.943 45.442 58.365 45.643 57.632 45.643 56.898 45.643 56.322 45.442 55.905 45.042 55.487 44.641 55.278 44.09 55.278 43.388L55.278 39.913 56.133 39.913 56.133 43.378C56.133 43.848 56.267 44.222 56.535 44.498 56.804 44.775 57.169 44.914 57.632 44.914M63.187 45.643C62.753 45.643 62.338 45.568 61.942 45.419 61.547 45.27 61.228 45.071 60.985 44.821L61.468 44.266C61.694 44.471 61.961 44.632 62.268 44.748 62.576 44.864 62.882 44.922 63.187 44.922 63.56 44.922 63.861 44.85 64.089 44.711 64.317 44.57 64.432 44.374 64.432 44.125 64.432 43.899 64.35 43.707 64.187 43.552 64.022 43.398 63.743 43.268 63.348 43.164L62.551 42.957C62.038 42.823 61.664 42.636 61.43 42.392 61.196 42.148 61.079 41.831 61.079 41.439 61.079 41.118 61.166 40.835 61.341 40.594 61.516 40.35 61.758 40.16 62.065 40.025 62.373 39.89 62.722 39.822 63.11 39.822 63.523 39.822 63.91 39.897 64.271 40.05 64.632 40.201 64.951 40.414 65.228 40.684L64.712 41.232C64.469 41.009 64.216 40.839 63.954 40.721 63.691 40.603 63.413 40.543 63.119 40.543 62.763 40.543 62.473 40.617 62.247 40.762 62.022 40.909 61.908 41.112 61.908 41.373 61.908 41.611 61.989 41.795 62.149 41.928 62.311 42.061 62.557 42.172 62.891 42.259L63.779 42.5C64.294 42.638 64.669 42.831 64.906 43.081 65.143 43.33 65.262 43.64 65.262 44.009 65.262 44.336 65.174 44.622 64.999 44.868 64.824 45.113 64.581 45.305 64.271 45.44 63.96 45.575 63.599 45.643 63.187 45.643M67.413 43.429L69.514 43.429 68.463 40.783 67.413 43.429zM70.352 45.552L69.793 44.135 67.134 44.135 66.575 45.552 65.71 45.552 68.015 39.913 68.937 39.913 71.232 45.552 70.352 45.552z"/>
    <polyline fill="#FFFFFF" points="75.212 45.552 75.212 40.617 73.273 40.617 73.273 39.913 78.006 39.913 78.006 40.617 76.068 40.617 76.068 45.552 75.212 45.552"/>
    <path fill="#FFFFFF" d="M81.089 44.914C81.462 44.914 81.793 44.821 82.084 44.635 82.375 44.45 82.602 44.195 82.766 43.868 82.929 43.543 83.011 43.164 83.011 42.733 83.011 42.301 82.929 41.922 82.766 41.595 82.602 41.27 82.375 41.015 82.084 40.83 81.793 40.644 81.462 40.551 81.089 40.551 80.717 40.551 80.386 40.644 80.099 40.83 79.811 41.015 79.584 41.27 79.421 41.595 79.258 41.922 79.175 42.301 79.175 42.733 79.175 43.164 79.258 43.543 79.421 43.868 79.584 44.195 79.811 44.45 80.099 44.635 80.386 44.821 80.717 44.914 81.089 44.914zM81.089 45.643C80.548 45.643 80.067 45.519 79.649 45.27 79.231 45.02 78.903 44.678 78.663 44.241 78.423 43.804 78.303 43.301 78.303 42.733 78.303 42.162 78.423 41.659 78.663 41.222 78.903 40.787 79.231 40.443 79.649 40.195 80.067 39.946 80.548 39.822 81.089 39.822 81.631 39.822 82.112 39.946 82.533 40.195 82.953 40.443 83.284 40.787 83.524 41.222 83.764 41.659 83.883 42.162 83.883 42.733 83.883 43.301 83.764 43.804 83.524 44.241 83.284 44.678 82.953 45.02 82.533 45.27 82.112 45.519 81.631 45.643 81.089 45.643zM85.941 44.846L87.11 44.846C87.516 44.846 87.865 44.759 88.156 44.585 88.447 44.411 88.67 44.167 88.825 43.852 88.98 43.537 89.058 43.164 89.058 42.733 89.058 42.301 88.98 41.928 88.825 41.613 88.67 41.298 88.447 41.054 88.156 40.878 87.865 40.704 87.516 40.617 87.11 40.617L85.941 40.617 85.941 44.846zM85.086 45.552L85.086 39.913 87.11 39.913C87.675 39.913 88.168 40.031 88.592 40.265 89.015 40.501 89.344 40.83 89.579 41.251 89.813 41.675 89.93 42.168 89.93 42.733 89.93 43.295 89.813 43.79 89.579 44.212 89.344 44.635 89.015 44.964 88.592 45.2 88.168 45.434 87.675 45.552 87.11 45.552L85.086 45.552zM92.115 43.429L94.215 43.429 93.165 40.783 92.115 43.429zM95.054 45.552L94.495 44.135 91.836 44.135 91.277 45.552 90.412 45.552 92.717 39.913 93.639 39.913 95.934 45.552 95.054 45.552z"/>
    <polyline fill="#FFFFFF" points="98.559 43.313 98.559 45.552 97.704 45.552 97.704 43.313 95.68 39.913 96.688 39.913 98.135 42.516 99.584 39.913 100.575 39.913 98.559 43.313"/>
    <polyline fill="#FFFFFF" points="107.417 45.552 104.343 41.232 104.343 45.552 103.539 45.552 103.539 39.913 104.335 39.913 107.417 44.233 107.417 39.913 108.213 39.913 108.213 45.552 107.417 45.552"/>
    <polyline fill="#FFFFFF" points="109.721 45.552 109.721 39.913 113.412 39.913 113.412 40.617 110.575 40.617 110.575 42.359 113.074 42.359 113.074 43.063 110.575 43.063 110.575 44.846 113.48 44.846 113.48 45.552 109.721 45.552"/>
    <polyline fill="#FFFFFF" points="116.02 45.552 116.02 40.617 114.081 40.617 114.081 39.913 118.815 39.913 118.815 40.617 116.876 40.617 116.876 45.552 116.02 45.552"/>
    <polyline fill="#FFFFFF" points="124.404 45.552 123.058 41.058 121.711 45.552 120.822 45.552 119.29 39.913 120.136 39.913 121.305 44.374 122.652 39.913 123.464 39.913 124.82 44.39 125.996 39.913 126.826 39.913 125.293 45.552 124.404 45.552"/>
    <path fill="#FFFFFF" d="M130.222 44.914C130.595 44.914 130.926 44.821 131.217 44.635 131.508 44.45 131.735 44.195 131.899 43.868 132.062 43.543 132.144 43.164 132.144 42.733 132.144 42.301 132.062 41.922 131.899 41.595 131.735 41.27 131.508 41.015 131.217 40.83 130.926 40.644 130.595 40.551 130.222 40.551 129.85 40.551 129.519 40.644 129.232 40.83 128.944 41.015 128.717 41.27 128.554 41.595 128.391 41.922 128.308 42.301 128.308 42.733 128.308 43.164 128.391 43.543 128.554 43.868 128.717 44.195 128.944 44.45 129.232 44.635 129.519 44.821 129.85 44.914 130.222 44.914zM130.222 45.643C129.68 45.643 129.2 45.519 128.782 45.27 128.364 45.02 128.036 44.678 127.796 44.241 127.556 43.804 127.436 43.301 127.436 42.733 127.436 42.162 127.556 41.659 127.796 41.222 128.036 40.787 128.364 40.443 128.782 40.195 129.2 39.946 129.68 39.822 130.222 39.822 130.764 39.822 131.245 39.946 131.666 40.195 132.086 40.443 132.417 40.787 132.657 41.222 132.897 41.659 133.016 42.162 133.016 42.733 133.016 43.301 132.897 43.804 132.657 44.241 132.417 44.678 132.086 45.02 131.666 45.27 131.245 45.519 130.764 45.643 130.222 45.643zM135.074 42.574L136.252 42.574C136.618 42.574 136.91 42.487 137.128 42.309 137.345 42.133 137.454 41.895 137.454 41.595 137.454 41.298 137.345 41.06 137.128 40.884 136.91 40.706 136.618 40.617 136.252 40.617L135.074 40.617 135.074 42.574zM135.074 43.262L135.074 45.552 134.219 45.552 134.219 39.913 136.252 39.913C136.889 39.913 137.395 40.064 137.767 40.365 138.14 40.665 138.326 41.077 138.326 41.595 138.326 41.988 138.213 42.321 137.988 42.591 137.761 42.862 137.451 43.054 137.056 43.164L138.454 45.552 137.479 45.552 136.167 43.262 135.074 43.262z"/>
    <polyline fill="#FFFFFF" points="142.975 45.552 140.392 42.707 140.392 45.552 139.537 45.552 139.537 39.913 140.392 39.913 140.392 42.384 142.806 39.913 143.864 39.913 141.298 42.5 144.05 45.552 142.975 45.552"/>
    <polyline class="no-color-change" fill="#009BFF" points="15.893 33.507 8.827 22.077 8.827 33.507 .997 33.507 .997 .657 8.827 .657 8.827 19.827 16.118 10.602 25.433 10.602 16.792 20.682 25.298 33.507 15.893 33.507"/>
    <path class="no-color-change" fill="#009BFF" d="M36.502 20.862L36.502 33.507 28.672 33.507 28.672 10.602 35.827 10.602 36.231 13.617C36.981 12.537 37.956 11.667 39.157 11.007 40.356 10.348 41.677 10.017 43.116 10.017 45.606 10.017 47.601 10.827 49.102 12.447 50.602 14.066 51.352 16.392 51.352 19.422L51.352 33.507 43.522 33.507 43.522 20.322C43.522 18.972 43.222 17.975 42.622 17.329 42.021 16.685 41.182 16.362 40.102 16.362 39.022 16.362 38.151 16.707 37.491 17.396 36.831 18.087 36.502 19.242 36.502 20.862M67.552 27.882C68.931 27.882 70.033 27.35 70.858 26.284 71.684 25.22 72.097 23.803 72.097 22.032 72.097 20.262 71.684 18.853 70.858 17.802 70.033 16.752 68.931 16.227 67.552 16.227 66.171 16.227 65.069 16.752 64.244 17.802 63.419 18.853 63.007 20.262 63.007 22.032 63.007 23.803 63.419 25.22 64.244 26.284 65.069 27.35 66.171 27.882 67.552 27.882zM67.552 34.092C65.091 34.092 62.923 33.574 61.049 32.539 59.174 31.504 57.704 30.087 56.639 28.287 55.573 26.487 55.042 24.402 55.042 22.032 55.042 19.662 55.573 17.577 56.639 15.776 57.704 13.977 59.174 12.567 61.049 11.547 62.923 10.527 65.091 10.017 67.552 10.017 70.011 10.017 72.179 10.527 74.054 11.547 75.929 12.567 77.398 13.977 78.464 15.776 79.528 17.577 80.062 19.662 80.062 22.032 80.062 24.402 79.528 26.487 78.464 28.287 77.398 30.087 75.929 31.504 74.054 32.539 72.179 33.574 70.011 34.092 67.552 34.092z"/>
    <polyline class="no-color-change" fill="#009BFF" points="98.421 33.507 94.281 27.162 90.097 33.507 81.097 33.507 89.602 21.672 81.771 10.602 90.771 10.602 94.281 16.047 97.837 10.602 106.837 10.602 98.962 21.582 107.421 33.507 98.421 33.507"/>
    <path fill="#FFFFFF" d="M129.2 20.862L129.2 33.507 121.37 33.507 121.37 10.602 128.525 10.602 128.931 13.617C129.681 12.537 130.655 11.667 131.855 11.007 133.056 10.348 134.376 10.017 135.815 10.017 138.306 10.017 140.3 10.827 141.8 12.447 143.3 14.066 144.05 16.392 144.05 19.422L144.05 33.507 136.221 33.507 136.221 20.322C136.221 18.972 135.921 17.975 135.32 17.329 134.72 16.685 133.88 16.362 132.8 16.362 131.721 16.362 130.851 16.707 130.19 17.396 129.53 18.087 129.2 19.242 129.2 20.862M159.979 15.687C157.43 15.687 155.899 17.037 155.39 19.737L164.12 19.737C163.909 18.268 163.407 17.225 162.612 16.609 161.817 15.995 160.94 15.687 159.979 15.687zM170.69 31.167C169.55 31.977 168.103 32.667 166.348 33.237 164.593 33.807 162.726 34.092 160.745 34.092 158.015 34.092 155.683 33.589 153.747 32.584 151.813 31.579 150.327 30.177 149.292 28.377 148.258 26.577 147.74 24.507 147.74 22.167 147.74 19.797 148.25 17.697 149.271 15.867 150.29 14.037 151.7 12.604 153.5 11.569 155.3 10.534 157.399 10.017 159.8 10.017 162.14 10.017 164.202 10.52 165.987 11.524 167.772 12.53 169.167 13.925 170.173 15.709 171.177 17.494 171.681 19.587 171.681 21.987 171.681 22.317 171.657 22.662 171.612 23.021 171.567 23.382 171.515 23.757 171.455 24.146L155.479 24.146C156.2 26.787 158.165 28.106 161.375 28.106 162.815 28.106 164.09 27.882 165.2 27.432 166.31 26.981 167.239 26.532 167.99 26.082L170.69 31.167z"/>
    <polyline fill="#FFFFFF" points="194.989 33.507 191.3 19.602 187.655 33.507 179.556 33.507 173.614 10.602 181.625 10.602 184.01 25.362 187.88 10.602 194.765 10.602 198.771 25.407 201.2 10.602 209.03 10.602 203.09 33.507 194.989 33.507"/>
    <path fill="#FFFFFF" d="M220.954,34.092 C218.974,34.092 217.122,33.776 215.396,33.146 C213.671,32.517 212.118,31.617 210.739,30.447 L214.069,26.037 C215.118,26.877 216.251,27.56 217.467,28.084 C218.682,28.609 219.874,28.872 221.044,28.872 C221.823,28.872 222.446,28.737 222.911,28.467 C223.376,28.197 223.608,27.792 223.608,27.252 C223.608,26.683 223.347,26.225 222.821,25.879 C222.296,25.535 221.358,25.197 220.009,24.867 L217.849,24.327 C213.559,23.188 211.414,20.892 211.414,17.441 C211.414,15.912 211.834,14.592 212.675,13.481 C213.514,12.372 214.669,11.518 216.14,10.917 C217.608,10.317 219.319,10.017 221.269,10.017 C223.188,10.017 224.997,10.317 226.691,10.917 C228.386,11.518 229.938,12.387 231.349,13.526 L227.929,18.026 C226.878,17.188 225.769,16.513 224.599,16.002 C223.429,15.492 222.333,15.237 221.313,15.237 C219.664,15.237 218.839,15.776 218.839,16.856 C218.839,17.337 219.087,17.728 219.581,18.026 C220.077,18.327 220.774,18.597 221.675,18.837 L224.599,19.646 C226.788,20.247 228.409,21.147 229.459,22.347 C230.509,23.547 231.034,24.973 231.034,26.622 C231.034,28.122 230.614,29.435 229.774,30.56 C228.935,31.685 227.757,32.555 226.241,33.169 C224.727,33.784 222.964,34.092 220.954,34.092"/>
    <path class="no-color-change" fill="#009BFF" d="M239.314,34.002 C238.354,34.002 237.476,33.77 236.681,33.305 C235.886,32.84 235.256,32.21 234.792,31.415 C234.326,30.621 234.094,29.743 234.094,28.782 C234.094,27.823 234.326,26.945 234.792,26.15 C235.256,25.355 235.886,24.726 236.681,24.26 C237.476,23.795 238.354,23.563 239.314,23.563 C240.273,23.563 241.151,23.795 241.946,24.26 C242.741,24.726 243.371,25.355 243.836,26.15 C244.301,26.945 244.534,27.823 244.534,28.782 C244.534,29.743 244.301,30.621 243.836,31.415 C243.371,32.21 242.741,32.84 241.946,33.305 C241.151,33.77 240.273,34.002 239.314,34.002"/>
  </g>
</svg>
