<svg id="Layer_1" data-name="Layer 1" xmlns="http://www.w3.org/2000/svg" viewBox="0 0 430.28 107.87" height="107.87" width="430.28">
    <defs>
        <style>
            .cls-1 {
                fill: #231f20;
            }
            .cls-2 {
                fill: #2f6195;
            }
            .cls-3 {
                fill: #414042;
            }
        </style>
    </defs>
    <title>KNS-Horizontal</title><path
        class="cls-1"
        d="M4.1,85.21H5.5c2.42,0,4.68-.85,4.68-5.59V37.93L6.75,33.36H4.33V32H20.41L49.82,69.6H50V37.78c0-2.95-1.87-4.42-5.31-4.42H43.19V32H57.93v1.4H56.84c-3.51,0-5,2.25-5,4.19v50H48.57L12.21,40.34h-.16V80c0,4.42,1.72,5.2,6.09,5.2h.7v1.4H4.1Z"/><path class="cls-1" d="M54.69,85.63h4.38V49.69H54.69v-1H84.92V59.43H84v-.75c0-4.9-3.62-9-10.06-9H67.51V66.16h3.73c3.52,0,5.35-2,5.35-7.1v-.59h1v17h-1V74.23c0-3.82-1.84-7.1-5.35-7.1H67.51V85.63H75.3c8.87,0,10.17-7.32,10.17-10.38V74.5h1V86.6H54.69Z"/><path
        class="cls-1"
        d="M86.68,49.69v-1h14.07v1H97.83L105.42,75h.1l4.19-14.47-3.16-10.81H103v-1h15.09v1h-3.8l7.4,25.45h.1l5.55-19.32A16.7,16.7,0,0,0,128.2,52c0-.91-.44-2.26-3.31-2.26h-.34v-1h9v1h-.44c-1.31,0-2.92,1.08-4.19,5.27L119,87.46h-1.17l-7.54-25.18h-.1l-7.54,25.18h-1.22L89.89,49.69Z"/><path
        class="cls-1"
        d="M130.09,72.35h1c1.3,6.08,5.41,14.15,12.71,14.15,4.65,0,7.79-2.85,7.79-7.59,0-11.73-21.58-3.28-21.58-19.48,0-7.1,4.76-11.57,11.9-11.57,5.46,0,7.19,2.91,9.63,2.91,1.62,0,1.73-1.4,1.73-2.1h1V60.78h-1c-1.35-5.7-4.38-11.94-11.19-11.94-4.11,0-7.19,2.74-7.19,6.89,0,10.38,21.9,2.21,21.9,18.19,0,8.39-4.76,13.56-12.38,13.56-4.71,0-9.14-2.8-11.3-2.8a1.84,1.84,0,0,0-2,2h-1Z"/><path
        class="cls-2 no-color-change"
        d="M61.59,44.9H62.8V32.43H61.59v-.36h6.25v.36H66.64V38.2l4.56-4.31c.47-.43.73-.81.73-1.12s-.43-.34-.81-.34H70.9v-.36H75v.36h-.17c-1.17,0-2.24.69-4.16,2.57l-1.07,1,5.2,8.86h.81v.36H69.28V44.9h1.13l-3.54-6.37-.23.17v6.2h1.21v.36H61.59Z"/><path class="cls-2 no-color-change" d="M76.3,44.9h1V37.13h-1v-.36h1.13a10.14,10.14,0,0,0,3.3-.34v1.63h0a3.25,3.25,0,0,1,3-1.63c1.85,0,3.11.88,3.11,3V44.9h1v.36H82.46V44.9h1V38.33c0-.69-.19-1.2-.92-1.2s-1.85,1.24-1.85,2.32V44.9h1v.36H76.3Z"/><path class="cls-2 no-color-change" d="M94.13,36.43c2.75,0,5.16,1.84,5.16,4.59s-2.41,4.57-5.16,4.57S89,43.78,89,41,91.4,36.43,94.13,36.43Zm1.43,2.32c0-1.56-.66-2-1.43-2s-1.41.41-1.41,2v4.51c0,1.55.66,2,1.41,2s1.43-.41,1.43-2Z"/><path
        class="cls-2 no-color-change"
        d="M100.24,44.9h.32a3.47,3.47,0,0,0,2.13-1.27L104.3,42,101,37.13h-.75v-.36h5.69v.36h-.81l1.56,2.32.89-.92a1.79,1.79,0,0,0,.51-.94c0-.32-.51-.47-.81-.47H107v-.36h3.73v.36h-.23a2.6,2.6,0,0,0-1.75.88L107,39.83l3.41,5.08h.7v.36h-5.61V44.9h.81l-1.68-2.49-1,.94a1.47,1.47,0,0,0-.49,1c0,.45.43.56.83.56h.34v.36h-4.07Z"/><path class="cls-2 no-color-change" d="M112.34,37.13h-.7v-.36h5.09v.36h-.79l1.71,4.55h0l1.11-3.05a2.84,2.84,0,0,0,.23-1c0-.3-.19-.49-.68-.49H118v-.36h2.62v.36h-.08c-.7,0-.94.71-1.11,1.14l-2.73,7.1h-.83Z"/><path class="cls-2 no-color-change" d="M121.23,44.9h1V37.13h-1v-.36h1.13a10.14,10.14,0,0,0,3.3-.34V44.9h1v.36h-5.46ZM124,31.81a1.74,1.74,0,1,1-1.75,1.74A1.76,1.76,0,0,1,124,31.81Z"/><path class="cls-2 no-color-change" d="M127.52,44.9h1V32.43h-1v-.36h1.41a7.24,7.24,0,0,0,3-.47V44.9h1v.36h-5.46Z"/><path class="cls-2 no-color-change" d="M133.81,44.9h1V32.43h-1v-.36h1.41a7.24,7.24,0,0,0,3-.47V44.9h1v.36h-5.46Z"/><path
        class="cls-2 no-color-change"
        d="M144,40.74v1.93c0,1.91.7,2.45,1.85,2.45a3.79,3.79,0,0,0,3.26-2.66l.36.11a4.14,4.14,0,0,1-4.22,3c-2.86,0-5-1.85-5-4.53a4.58,4.58,0,0,1,4.82-4.63,4.31,4.31,0,0,1,4.44,4.31Zm2.15-.36V38.33c0-.81-.26-1.54-1.07-1.54s-1.07.52-1.07,2v1.57Z"/><path
        class="cls-1"
        d="M172.62,66.13H174c1.87,8.76,7.79,20.4,18.3,20.4,6.7,0,11.22-4.11,11.22-10.94,0-16.91-31.08-4.73-31.08-28.08,0-10.24,6.85-16.68,17.13-16.68,7.87,0,10.36,4.19,13.86,4.19,2.34,0,2.49-2,2.49-3h1.4V49.46H206c-1.95-8.22-6.31-17.22-16.12-17.22-5.92,0-10.36,4-10.36,9.93,0,15,31.54,3.18,31.54,26.22,0,12.1-6.85,19.55-17.84,19.55-6.78,0-13.16-4-16.28-4A2.64,2.64,0,0,0,174,86.77h-1.4Z"/><path class="cls-1" d="M209.61,85.72H214V49.8h-4.37v-1h30.18v10.7h-1v-.75c0-4.89-3.62-9-10-9H222.4V66.26h3.72c3.51,0,5.35-2,5.35-7.1v-.59h1v17h-1V74.32c0-3.82-1.84-7.1-5.35-7.1H222.4v18.5h7.77c8.85,0,10.15-7.31,10.15-10.38v-.75h1v12.1H209.61Z"/><path
        class="cls-1"
        d="M241.07,85.72h1c1.67,0,3.24-.59,3.24-3.87V53l-2.38-3.17h-1.67v-1h11.12l20.35,26.08h.11v-22c0-2-1.3-3.06-3.67-3.06h-1v-1h10.2v1h-.76c-2.43,0-3.46,1.56-3.46,2.9V87.33h-2.27L246.68,54.64h-.11V82.12c0,3.06,1.19,3.6,4.21,3.6h.49v1h-10.2Z"/><path class="cls-1" d="M283.77,85.72h5V49.8h-2.21c-7,0-8.8,4.89-9.61,10.81h-1V48.84h34V60.61h-1c-.81-5.91-2.59-10.81-9.61-10.81h-2.21V85.72h5v1H283.77Z"/><path class="cls-1" d="M308.77,85.72h4.37V49.8h-4.37v-1h17.17v1h-4.37V85.72h4.37v1H308.77Z"/><path
        class="cls-1"
        d="M324.53,85.72h1c1.67,0,3.24-.59,3.24-3.87V53l-2.37-3.17H324.7v-1h11.12l20.35,26.08h.11v-22c0-2-1.3-3.06-3.67-3.06h-1v-1h10.2v1H361c-2.43,0-3.46,1.56-3.46,2.9V87.33h-2.27L330.15,54.64H330V82.12c0,3.06,1.19,3.6,4.21,3.6h.49v1h-10.2Z"/><path class="cls-1" d="M359.63,85.72H364V49.8h-4.37v-1H389.8v10.7h-1v-.75c0-4.89-3.62-9-10-9h-6.37V66.26h3.73c3.51,0,5.34-2,5.34-7.1v-.59h1v17h-1V74.32c0-3.82-1.84-7.1-5.34-7.1h-3.73v18.5h7.77c8.85,0,10.15-7.31,10.15-10.38v-.75h1v12.1H359.63Z"/><path class="cls-1" d="M391.69,85.72h4.37V49.8h-4.37v-1h17.65v1h-4.86V85.72h6.21c9.56,0,11.71-4.62,11.71-10.86V73.78h1v12.9H391.69Z"/><path class="cls-3" d="M241.3,95.57h2.22a2.39,2.39,0,1,1,0,4.75h-1.13v3H241.3Zm2.11,3.84a1.47,1.47,0,1,0,0-2.93h-1v2.93Z"/><path class="cls-3" d="M249.23,95.57h1l3.17,7.72H252.2l-.79-2H248l-.79,2h-1.14S248.85,96.52,249.23,95.57Zm1.81,4.78-.74-1.9c-.11-.29-.58-1.48-.59-1.57h0c0,.1-.47,1.25-.59,1.57l-.75,1.9Z"/><path class="cls-3" d="M254.47,95.57h2.23a2.26,2.26,0,0,1,2.56,2.29,2.14,2.14,0,0,1-2,2.18l2.36,3.25H258.4l-2.23-3.15h-.6v3.15h-1.09Zm2.11,3.69c1,0,1.58-.54,1.58-1.39s-.57-1.39-1.58-1.39h-1v2.77Z"/><path class="cls-3" d="M262.29,96.51h-2.2v-.94h5.49v.94h-2.2v6.78h-1.09Z"/><path class="cls-3" d="M268.4,99.43a4.06,4.06,0,1,1,4.06,4A3.92,3.92,0,0,1,268.4,99.43Zm7,0a2.94,2.94,0,1,0-2.95,3A2.88,2.88,0,0,0,275.39,99.43Z"/><path class="cls-3" d="M278.08,95.57H282v.94h-2.8V99h2.72v.94h-2.72v3.36h-1.09Z"/><path class="cls-3" d="M286.89,96.51h-2.2v-.94h5.49v.94H288v6.78h-1.09Z"/><path class="cls-3" d="M291.32,95.57h1.09v3.17h4V95.57h1.09v7.72h-1.09V99.68h-4v3.62h-1.09Z"/><path class="cls-3" d="M299.55,95.57h4.2v.93h-3.11v2.24h3v.93h-3v2.7h3.18v.92h-4.27Z"/><path class="cls-3" d="M307.47,100.63V95.57h1.1v4.73c0,1.34.57,2.17,1.86,2.17s1.87-.82,1.87-2.17V95.57h1.1v5.06a3,3,0,0,1-5.93,0Z"/><path
        class="cls-3"
        d="M314.53,101.9l.74-.63a2.24,2.24,0,0,0,1.94,1.22,1.33,1.33,0,0,0,1.51-1.31c0-.91-.76-1.22-1.71-1.59s-1.95-.87-1.95-2.1a2.11,2.11,0,0,1,2.33-2.07,2.59,2.59,0,0,1,2.27,1.16l-.74.63a1.75,1.75,0,0,0-1.53-.84c-.75,0-1.24.39-1.24,1,0,.8.77,1.07,1.44,1.33,1.09.43,2.21.95,2.21,2.36a2.34,2.34,0,0,1-2.57,2.34A3,3,0,0,1,314.53,101.9Z"/><path class="cls-3" d="M323.56,95.57h1l3.17,7.72h-1.17l-.79-2h-3.42l-.79,2h-1.14S323.17,96.52,323.56,95.57Zm1.81,4.78-.74-1.9c-.11-.29-.58-1.48-.59-1.57h0c0,.1-.47,1.25-.59,1.57l-.75,1.9Z"/><path class="cls-3" d="M332.29,96.51h-2.2v-.94h5.49v.94h-2.2v6.78h-1.09Z"/><path class="cls-3" d="M336,99.43a4.06,4.06,0,1,1,4.06,4A3.92,3.92,0,0,1,336,99.43Zm7,0a2.94,2.94,0,1,0-2.95,3A2.88,2.88,0,0,0,343,99.43Z"/><path class="cls-3" d="M345.67,95.57h2.19c2.46,0,4.09,1.41,4.09,3.86s-1.64,3.86-4.09,3.86h-2.19Zm1.09,6.78h1a2.93,2.93,0,1,0,0-5.85h-1Z"/><path class="cls-3" d="M355.48,95.57h1l3.17,7.72h-1.17l-.79-2h-3.42l-.79,2H352.3S355.1,96.52,355.48,95.57Zm1.81,4.78-.74-1.9c-.11-.29-.58-1.48-.59-1.57h0c0,.1-.47,1.25-.59,1.57l-.75,1.9Z"/><path class="cls-3" d="M361.79,100.15l-2.63-4.57h1.22l1.43,2.57a11.4,11.4,0,0,1,.55,1.1h0a11.69,11.69,0,0,1,.55-1.1l1.44-2.57h1.19l-2.63,4.57v3.15h-1.13Z"/><path class="cls-3" d="M368.75,95.57h.84l4.38,5c.13.14.7.86.76,1h0c0-.11,0-1,0-1.2V95.57h1.06v7.72h-.85l-4.38-5c-.13-.14-.7-.86-.76-1h0c0,.11,0,1,0,1.2v4.76h-1.06Z"/><path class="cls-3" d="M377.78,95.57H382v.93h-3.11v2.24h3v.93h-3v2.7H382v.92h-4.27Z"/><path class="cls-3" d="M385.39,96.51h-2.2v-.94h5.49v.94h-2.2v6.78h-1.09Z"/><path
        class="cls-3"
        d="M389.58,95.57h1.15l1.58,4.59c.06.18.43,1.32.44,1.49h0a15.4,15.4,0,0,1,.46-1.49l1.65-4.59h.87l1.65,4.59c.07.18.45,1.32.46,1.49h0c0-.18.4-1.32.45-1.49l1.57-4.59H401l-2.72,7.72h-.84l-1.78-4.82a12.88,12.88,0,0,1-.37-1.25h0a12.94,12.94,0,0,1-.38,1.25l-1.77,4.82h-.84Z"/><path class="cls-3" d="M401.52,99.43a4.06,4.06,0,1,1,4.06,4A3.92,3.92,0,0,1,401.52,99.43Zm7,0a2.94,2.94,0,1,0-2.95,3A2.88,2.88,0,0,0,408.51,99.43Z"/><path class="cls-3" d="M411.2,95.57h2.23A2.26,2.26,0,0,1,416,97.86a2.14,2.14,0,0,1-2,2.18l2.36,3.25h-1.28l-2.23-3.15h-.6v3.15H411.2Zm2.11,3.69c1,0,1.58-.54,1.58-1.39s-.57-1.39-1.58-1.39h-1v2.77Z"/><path class="cls-3" d="M417.63,95.57h1.09v3.59l3.19-3.59h1.32l-3.31,3.69,3.46,4H422l-3.3-3.9v3.9h-1.09Z"/></svg>
