<svg xmlns="http://www.w3.org/2000/svg" xmlns:xlink="http://www.w3.org/1999/xlink" width="720" height="137" viewBox="0 0 720 137">
  <defs>
    <style>
      .cls-1 {
        filter: url(#filter);
      }

      .cls-2 {
        fill: #d12233;
      }

      .cls-2, .cls-3, .cls-4 {
        fill-rule: evenodd;
      }

      .cls-3, .cls-4 {
        fill: #fff;
      }

      .cls-4 {
        filter: url(#filter-2);
      }
    </style>
    <filter id="filter" filterUnits="userSpaceOnUse">
      <feFlood result="flood" flood-color="#333"/>
      <feComposite result="composite" operator="in" in2="SourceGraphic"/>
      <feBlend result="blend" in2="SourceGraphic"/>
    </filter>
    <filter id="filter-2" x="119" y="113.969" width="367.969" height="16" filterUnits="userSpaceOnUse">
      <feFlood result="flood" flood-color="#999"/>
      <feComposite result="composite" operator="in" in2="SourceGraphic"/>
      <feBlend result="blend" in2="SourceGraphic"/>
    </filter>
  </defs>
  <g id="lafayette_LA" data-name="lafayette LA" class="cls-1">
    <path class="cls-2" d="M292.306,97.433c-10.833,0-19.334-7.391-19.334-18.34V78.408c0-11.223,8.5-18.34,19.334-18.34h13.165a1.229,1.229,0,0,0,1.371-1.369V57.056c0-5.337-4.388-9.306-10.01-9.306-3.292,0-6.72,2.052-10.011,7.8a1.285,1.285,0,0,1-1.1.822,4.25,4.25,0,0,1-1.646-.684l-10.421-5.475a1.13,1.13,0,0,1-.823-0.958c0-.685,1.509-3.423,2.879-5.475,4.388-6.57,10.559-10.4,21.119-10.4,15.632,0,25.642,9.854,25.642,24.089v38.6a1.177,1.177,0,0,1-1.371,1.369H309.447c-0.96,0-1.371-.274-1.371-1.095,0-1.095-.274-1.78-0.96-1.78a2.216,2.216,0,0,0-1.234.411,17.546,17.546,0,0,1-8.365,2.464h-5.211Zm5.211-14.37a9.978,9.978,0,0,0,9.325-7.665V73.209H292.306a3.8,3.8,0,0,0-3.7,3.831v2.054a3.751,3.751,0,0,0,3.7,3.97h5.211Zm66.515,14.37c-0.961,0-1.372-.274-1.372-1.232s-0.411-1.506-1.1-1.506a3.506,3.506,0,0,0-.96.274,21.429,21.429,0,0,1-9.05,2.464c-15.632,0-25.643-9.991-25.643-24.225V58.836c0-14.235,10.833-24.09,24.272-24.09a20.953,20.953,0,0,1,9.05,2.464,2.548,2.548,0,0,0,.96.274c0.686,0,1.1-.546,1.1-1.506v-23.4a1.176,1.176,0,0,1,1.371-1.369h13.027a1.176,1.176,0,0,1,1.371,1.369v83.49a1.177,1.177,0,0,1-1.371,1.369H364.032Zm-2.743-38.6a9.805,9.805,0,0,0-19.61,0V73.209a9.805,9.805,0,1,0,19.61,0V58.836Zm41.763,38.6a1.318,1.318,0,0,1-1.234-.821L378.232,38.3a10,10,0,0,1-.822-2.463c0-.684.41-1.095,1.371-1.095H392.63a1.318,1.318,0,0,1,1.234.821l12.342,31.618a55.257,55.257,0,0,1,1.508,6.024h0.549a55.028,55.028,0,0,1,1.508-6.024l12.341-31.618a1.32,1.32,0,0,1,1.234-.821h13.987c0.961,0,1.372.411,1.372,1.095a6.374,6.374,0,0,1-.686,2.189l-23.86,58.582a1.319,1.319,0,0,1-1.234.821h-9.873ZM483.91,81.557a1.284,1.284,0,0,1,.823,1.095,15.363,15.363,0,0,1-2.057,4.107c-4.251,6.98-10.284,12.044-22.214,12.044-15.633,0-25.643-9.992-25.643-24.227V57.6c0-11.36,10.01-24.227,25.643-24.227,15.5,0,25.5,12.866,25.5,24.227V68.691A1.177,1.177,0,0,1,484.6,70.06H451.96a1.178,1.178,0,0,0-1.372,1.369v3.147a9.822,9.822,0,0,0,9.874,9.854c3.565,0,7.267-2.189,9.735-8.074a1.287,1.287,0,0,1,1.1-.823,8.159,8.159,0,0,1,2.332.958ZM468.552,56.921a1.314,1.314,0,0,0,1.508-1.232c0-1.645-2.742-7.939-9.6-7.939-6.72,0-9.737,6.159-9.737,7.939a1.315,1.315,0,0,0,1.509,1.232h16.318Zm22.277,40.512a1.177,1.177,0,0,1-1.371-1.369V36.116a1.177,1.177,0,0,1,1.371-1.369h11.657c0.959,0,1.37.137,1.37,1.232V37.9a1.252,1.252,0,0,0,1.1,1.367,1.064,1.064,0,0,0,.959-0.409c1.372-1.506,6.033-4.107,10.422-4.107a16.483,16.483,0,0,1,3.839.411,1.332,1.332,0,0,1,1.1,1.367V50.349a1.409,1.409,0,0,1-1.372,1.506c-0.823,0-2.056-1.232-4.936-1.232a9.514,9.514,0,0,0-9.874,9.582V96.064a1.177,1.177,0,0,1-1.37,1.369H490.829Zm66.172,0A1.229,1.229,0,0,1,555.63,98.8a36.349,36.349,0,0,1-11.656-2.464c-9.462-3.832-14.4-11.77-14.4-21.763V50.488a1.178,1.178,0,0,0-1.371-1.371h-7.131a1.136,1.136,0,0,1-1.371-1.232c0-.82.137-3.7,0.274-7.391l15.769-16.7a2.4,2.4,0,0,1,1.647-.822h6.444a1.178,1.178,0,0,1,1.372,1.371v9.032a1.177,1.177,0,0,0,1.371,1.369h9.05A1.177,1.177,0,0,1,557,36.116V47.75a1.176,1.176,0,0,1-1.371,1.367h-9.05a1.178,1.178,0,0,0-1.371,1.371V74.575c0,4.927,3.428,9.171,10.558,9.719A1.191,1.191,0,0,1,557,85.662V97.433Zm11.3-69.257a9.361,9.361,0,0,1-9.187-9.171,9.187,9.187,0,0,1,18.374,0A9.361,9.361,0,0,1,568.3,28.176Zm-6.445,69.257a1.177,1.177,0,0,1-1.371-1.369V36.116a1.177,1.177,0,0,1,1.371-1.369h12.89a1.177,1.177,0,0,1,1.371,1.369V96.064a1.177,1.177,0,0,1-1.371,1.369h-12.89ZM602.577,98.8c-11.245,0-17.415-4.792-21.255-10.812-1.371-2.189-2.468-4.518-2.468-5.2a1.287,1.287,0,0,1,.823-1.1L589.55,76.9a6.9,6.9,0,0,1,2.057-.822,1.253,1.253,0,0,1,1.1.958c2.057,5.2,5.9,7.8,9.873,7.8h3.978c5.209,0,7.952-2.875,7.952-5.885,0-5.2-7.542-4.79-15.084-6.3-9.873-1.915-19.883-5.338-19.883-18.068,0-13.413,10.7-21.215,23.037-21.215h3.978c10.967,0,17.138,4.379,20.98,10.129,1.371,2.054,2.878,5.064,2.878,5.75a1.279,1.279,0,0,1-.822,1.093L619.17,55.415a3.379,3.379,0,0,1-1.508.546,1.286,1.286,0,0,1-1.1-.821c-2.056-5.2-6.033-7.8-10.008-7.8h-3.978c-5.211,0-7.542,1.917-7.542,5.2,0,5.2,7.542,4.927,14.947,6.57,9.873,2.052,20.158,5.474,20.158,17.929,0,11.634-8.091,21.763-23.585,21.763h-3.978Zm79.349-17.245a1.281,1.281,0,0,1,.822,1.095,15.381,15.381,0,0,1-2.056,4.107c-4.25,6.98-10.285,12.044-22.214,12.044-15.633,0-25.644-9.992-25.644-24.227V57.6c0-11.36,10.011-24.227,25.644-24.227,15.494,0,25.5,12.866,25.5,24.227V68.691a1.176,1.176,0,0,1-1.369,1.369H649.976a1.177,1.177,0,0,0-1.371,1.369v3.147a9.821,9.821,0,0,0,9.873,9.854c3.565,0,7.267-2.189,9.735-8.074a1.288,1.288,0,0,1,1.1-.823,8.145,8.145,0,0,1,2.331.958ZM666.567,56.921a1.315,1.315,0,0,0,1.509-1.232c0-1.645-2.743-7.939-9.6-7.939-6.72,0-9.736,6.159-9.736,7.939a1.314,1.314,0,0,0,1.507,1.232h16.318Zm22.28,40.512a1.177,1.177,0,0,1-1.371-1.369V36.116a1.177,1.177,0,0,1,1.371-1.369H700.5c0.961,0,1.371.137,1.371,1.232V37.9a1.252,1.252,0,0,0,1.1,1.367,1.068,1.068,0,0,0,.961-0.409c1.37-1.506,6.034-4.107,10.421-4.107a16.483,16.483,0,0,1,3.839.411,1.33,1.33,0,0,1,1.1,1.367V50.349a1.408,1.408,0,0,1-1.371,1.506c-0.823,0-2.057-1.232-4.937-1.232a9.514,9.514,0,0,0-9.873,9.582V96.064a1.177,1.177,0,0,1-1.371,1.369H688.847Z"/>
    <path class="cls-3" d="M155.791,98.672a1.228,1.228,0,0,1-1.37,1.369,36.347,36.347,0,0,1-11.657-2.463c-9.461-3.832-14.4-11.77-14.4-21.763V51.726A1.178,1.178,0,0,0,127,50.356h-7.13a1.136,1.136,0,0,1-1.372-1.232c0-.82.138-3.7,0.274-7.391l15.77-16.7a2.392,2.392,0,0,1,1.646-.823h6.444A1.178,1.178,0,0,1,144,25.584v9.032a1.177,1.177,0,0,0,1.371,1.369h9.051a1.177,1.177,0,0,1,1.37,1.369V48.988a1.175,1.175,0,0,1-1.37,1.367H145.37A1.178,1.178,0,0,0,144,51.726V75.814c0,4.927,3.428,9.171,10.558,9.719a1.191,1.191,0,0,1,1.234,1.367V98.672Zm4.852,0a1.177,1.177,0,0,1-1.371-1.369V13.813a1.177,1.177,0,0,1,1.371-1.369h12.891a1.176,1.176,0,0,1,1.37,1.369v23.4c0,0.959.412,1.506,1.1,1.506a2.54,2.54,0,0,0,.959-0.274,21.465,21.465,0,0,1,9.051-2.464c13.713,0,24.271,9.854,24.271,24.09V97.3a1.177,1.177,0,0,1-1.371,1.369H195.885a1.177,1.177,0,0,1-1.371-1.369V60.075a9.593,9.593,0,0,0-9.736-9.719,9.709,9.709,0,0,0-9.874,9.719V97.3a1.177,1.177,0,0,1-1.37,1.369H160.643ZM262.822,82.8a1.282,1.282,0,0,1,.823,1.095A15.38,15.38,0,0,1,261.589,88c-4.251,6.98-10.285,12.043-22.215,12.043-15.632,0-25.642-9.991-25.642-24.226V58.843c0-11.36,10.01-24.227,25.642-24.227,15.5,0,25.506,12.866,25.506,24.227V69.929a1.177,1.177,0,0,1-1.372,1.369H230.872a1.178,1.178,0,0,0-1.372,1.369v3.147a9.822,9.822,0,0,0,9.874,9.854c3.565,0,7.268-2.189,9.736-8.074a1.287,1.287,0,0,1,1.1-.823,8.159,8.159,0,0,1,2.332.958ZM247.465,58.159a1.314,1.314,0,0,0,1.507-1.232c0-1.645-2.741-7.939-9.6-7.939-6.72,0-9.736,6.159-9.736,7.939a1.315,1.315,0,0,0,1.509,1.232h16.318Z"/>
    <path class="cls-2" d="M96.924,76.779c-1.524-3.918-.545-8.962,1.642-11.243q3.24,5.949,9.56,4.106c-0.029-.853-1.286-0.826-2.039-1.245a5.662,5.662,0,0,1-2.994-3.2c-0.483-1.52.452-3.183,0.78-4.67a26.156,26.156,0,0,0,.538-4.738c0.1-2.931.193-6.7-1.468-10.1-2.258-4.614-7.034-7.632-11.038-8.793-6.649-1.929-16.337,1.566-22.017,7.56a31.617,31.617,0,0,0-3.406,4.317A40.137,40.137,0,0,0,62.4,57.15,40.883,40.883,0,0,0,60.36,65.2c-0.1.661-.179,1.322-0.245,1.987a47.05,47.05,0,0,0-.23,5.007A60.771,60.771,0,0,0,64.411,94.04a41.646,41.646,0,0,0,7.332,12.067,32.136,32.136,0,0,1-3.786,1.423,138.082,138.082,0,0,1-7.615-18.949A46.014,46.014,0,0,1,59.1,83.134a68.069,68.069,0,0,1-1.065-16.574c0.687-9.152,4.881-16.975,9.877-24.482,2.8-4.207,6.227-9.026,5.935-14.329C73.336,18.537,59.875,5.425,54.366.821v0l0,0v0c-5.507,4.6-18.971,17.716-19.482,26.928-0.294,5.3,3.131,10.121,5.935,14.329,4.993,7.508,9.187,15.33,9.873,24.483a67.816,67.816,0,0,1-1.064,16.574,45.043,45.043,0,0,1-1.238,5.447,136.948,136.948,0,0,1-7.436,18.575,29.821,29.821,0,0,1-3.484-1.45A41.758,41.758,0,0,0,44.443,94.04,60.77,60.77,0,0,0,48.97,72.2a46.814,46.814,0,0,0-.23-5.007c-0.067-.665-0.148-1.326-0.245-1.987a40.89,40.89,0,0,0-2.044-8.051,40.076,40.076,0,0,0-4.079-8.378,31.3,31.3,0,0,0-3.4-4.317C33.289,38.461,23.6,34.966,16.95,36.9c-4.005,1.161-8.777,4.179-11.037,8.793-1.662,3.4-1.573,7.169-1.469,10.1a26,26,0,0,0,.539,4.738c0.329,1.487,1.262,3.15.778,4.67a5.64,5.64,0,0,1-2.994,3.2c-0.748.419-2.01,0.392-2.037,1.245q6.314,1.828,9.558-4.106c2.187,2.281,3.168,7.324,1.646,11.243-2.1,5.385-6.267,3.743-9.662.142a7.047,7.047,0,0,0-.286,4.334c2.289,6.992,13.786,10.233,17.832,2.353a11.615,11.615,0,0,0-.16-10.52c4.74,2.565,7.98,1.33,10.107-2.722-4.478.44-9.972-1.528-10.893-5.684-1.649-7.417,4.64-14.58,12.869-9.2,2.517,1.644,4.79,5.036,6.069,7.62a34.559,34.559,0,0,1,3.482,11.4,36.656,36.656,0,0,1-.769,13.422,29.264,29.264,0,0,1-4.2,9.745,16.215,16.215,0,0,1-1.983,2.305,20.009,20.009,0,0,1-2.295,1.876,8.573,8.573,0,0,1-2.56-5.831c0-2.522,1.338-4.877,3.654-6.889-4.323,3.239-6.943,7.446-6.943,12.046a12.164,12.164,0,0,0,.46,3.282,16.367,16.367,0,0,1-1.749.469,10.5,10.5,0,0,1-6.635-.622c-3.03-1.518-5.45-4.959-3.577-7.708,1.63-2.4,6.763-1.318,9.015,1.593C22.816,89.517,8.84,88.608,5.766,96.9c-2,5.38,1.874,12.95,8.47,16.063a18.751,18.751,0,0,0,6.136,1.471A14.7,14.7,0,0,0,26,113.708a23.5,23.5,0,0,0,4.978-2.33,24.963,24.963,0,0,0,5.739,4.094,131.619,131.619,0,0,1-8.01,12.628c-0.414.579-.859,1.225-1.355,1.835a45.863,45.863,0,0,0,12.057,5.874c1.2-3.763,2.382-7.531,3.491-11.323q0.881-3.018,1.7-6.052a43.893,43.893,0,0,0,19.6.287c0.527,1.927,1.065,3.848,1.628,5.765,1.148,3.912,2.368,7.812,3.611,11.7a46.4,46.4,0,0,0,12.422-5.691,24.162,24.162,0,0,1-1.838-2.392,132.53,132.53,0,0,1-7.715-12.108,26.125,26.125,0,0,0,6.3-4.172,22.931,22.931,0,0,0,4.252,1.888,14.706,14.706,0,0,0,5.627.723,18.733,18.733,0,0,0,6.136-1.471c6.6-3.113,10.465-10.683,8.47-16.063-3.075-8.289-17.05-7.38-17.944,1.283,2.253-2.91,7.387-3.988,9.016-1.593,1.873,2.749-.542,6.19-3.576,7.708a10.5,10.5,0,0,1-6.634.622c-0.218-.043-0.428-0.1-0.642-0.157a12.162,12.162,0,0,0,.551-3.594c0-4.6-2.621-8.809-6.945-12.048,2.319,2.014,3.652,4.368,3.652,6.891a8.863,8.863,0,0,1-3.026,6.31,19.216,19.216,0,0,1-3.023-2.355,16.224,16.224,0,0,1-1.985-2.305,29.344,29.344,0,0,1-4.2-9.745,36.669,36.669,0,0,1-.77-13.422,34.507,34.507,0,0,1,3.481-11.4c1.279-2.584,3.553-5.976,6.072-7.62,8.229-5.376,14.516,1.787,12.87,9.2-0.924,4.156-6.418,6.124-10.9,5.684,2.127,4.053,5.368,5.288,10.108,2.722a11.6,11.6,0,0,0-.16,10.52c4.043,7.88,15.544,4.639,17.831-2.353a7.065,7.065,0,0,0-.285-4.334C103.19,80.521,99.019,82.164,96.924,76.779ZM54.365,0.83a0.655,0.655,0,0,1,0,.184A0.606,0.606,0,0,1,54.365.83Zm0.662,108.541a47.124,47.124,0,0,1-7.85-.647q0.613-2.367,1.219-4.732c1.37-5.325,2.737-10.646,3.843-16.033,0.666-3.224,1.448-6.469,1.974-9.72,0.062-.395.109-0.793,0.152-1.194,0.042,0.4.088,0.8,0.15,1.194,0.526,3.251,1.31,6.5,1.972,9.72,1.11,5.387,2.476,10.708,3.847,16.033,0.419,1.646.843,3.284,1.27,4.93A48,48,0,0,1,55.027,109.371Z"/>
    <path id="USAT_Network" data-name="USAT Network" class="cls-4" d="M118.989,114.273h4.489c3.156,0,5.267,1.865,5.267,4.74s-2.155,4.736-5.267,4.736h-2.29v5.925h-2.2v-15.4Zm4.267,7.659c2.112,0,3.244-1.163,3.244-2.919,0-1.735-1.132-2.918-3.244-2.918h-2.068v5.837h2.068Zm11.768-7.659h1.956l6.4,15.4h-2.358l-1.6-4.035h-6.911l-1.6,4.035H128.6S134.244,116.162,135.024,114.273Zm3.665,9.544-1.488-3.794c-0.221-.572-1.179-2.943-1.2-3.139h-0.043c-0.022.2-.955,2.5-1.2,3.139l-1.51,3.794h5.443Zm6.924-9.544h4.51c2.91,0,5.178,1.5,5.178,4.563a4.293,4.293,0,0,1-3.955,4.346l4.778,6.492h-2.579l-4.51-6.276h-1.223v6.276h-2.2v-15.4Zm4.267,7.351c2.043,0,3.2-1.077,3.2-2.764s-1.157-2.765-3.2-2.765h-2.068v5.529h2.068Zm11.522-5.486h-4.445v-1.865h11.089v1.865H163.6v13.536h-2.2V116.138Zm12.347,5.838a8.2,8.2,0,1,1,8.2,8A7.862,7.862,0,0,1,173.749,121.976Zm14.133,0a5.946,5.946,0,1,0-5.955,6.053A5.772,5.772,0,0,0,187.882,121.976Zm5.433-7.7h7.867v1.865h-5.668V121.1H201v1.865h-5.49v6.713h-2.2v-15.4Zm17.815,1.865h-4.444v-1.865h11.088v1.865H213.33v13.536h-2.2V116.138Zm8.953-1.865h2.2v6.318h8.178v-6.318h2.2v15.4h-2.2v-7.218h-8.178v7.218h-2.2v-15.4Zm16.631,0h8.49v1.846h-6.291v4.472h6.111v1.846h-6.111v5.395h6.423v1.842h-8.622v-15.4Zm16,10.092V114.273h2.221v9.433c0,2.679,1.157,4.323,3.756,4.323,2.622,0,3.78-1.644,3.78-4.323v-9.433h2.221v10.092c0,3.38-2.2,5.616-6,5.616C254.865,129.981,252.71,127.745,252.71,124.365Zm14.274,2.524,1.491-1.25a4.52,4.52,0,0,0,3.911,2.433c1.709,0,3.044-.918,3.044-2.611,0-1.817-1.534-2.433-3.446-3.178-1.956-.769-3.933-1.736-3.933-4.193,0-2.432,1.912-4.12,4.712-4.12a5.249,5.249,0,0,1,4.579,2.322l-1.491,1.25a3.552,3.552,0,0,0-3.088-1.668c-1.512,0-2.511.769-2.511,2.063,0,1.6,1.554,2.13,2.911,2.654,2.2,0.856,4.466,1.889,4.466,4.716,0,2.679-2,4.674-5.2,4.674A6.064,6.064,0,0,1,266.984,126.889Zm18.241-12.616h1.956l6.4,15.4h-2.357l-1.6-4.035h-6.912l-1.6,4.035H278.8S284.446,116.162,285.225,114.273Zm3.665,9.544-1.487-3.794c-0.222-.572-1.179-2.943-1.2-3.139h-0.044c-0.022.2-.955,2.5-1.2,3.139l-1.51,3.794h5.443Zm13.978-7.679h-4.445v-1.865h11.088v1.865h-4.444v13.536h-2.2V116.138Zm7.469,5.838a8.2,8.2,0,1,1,8.2,8A7.861,7.861,0,0,1,310.337,121.976Zm14.132,0a5.945,5.945,0,1,0-5.954,6.053A5.772,5.772,0,0,0,324.469,121.976Zm5.434-7.7h4.423c4.977,0,8.265,2.807,8.265,7.7,0,4.87-3.312,7.7-8.265,7.7H329.9v-15.4Zm2.2,13.534h2.045c3.644,0,6.177-1.9,6.177-5.831s-2.533-5.838-6.177-5.838H332.1v11.669Zm17.637-13.534H351.7l6.4,15.4h-2.357l-1.6-4.035h-6.912l-1.6,4.035h-2.311S348.96,116.162,349.739,114.273Zm3.666,9.544-1.489-3.794c-0.221-.572-1.178-2.943-1.2-3.139h-0.044c-0.022.2-.955,2.5-1.2,3.139l-1.51,3.794h5.444Zm9.084-.419-5.312-9.125h2.467l2.889,5.135a22.887,22.887,0,0,1,1.11,2.192h0.022a23.153,23.153,0,0,1,1.113-2.192l2.91-5.135h2.4l-5.309,9.125v6.276h-2.289V123.4Zm14.062-9.125h1.687l8.846,9.982c0.266,0.288,1.422,1.711,1.534,1.932l0.044-.023c-0.044-.217-0.044-2-0.044-2.39v-9.5h2.134v15.4h-1.713l-8.845-9.983c-0.265-.283-1.422-1.711-1.532-1.928l-0.021.02c0.021,0.221.043,2,.043,2.394v9.5h-2.133v-15.4Zm18.253,0h8.487v1.846H397v4.472h6.113v1.846H397v5.395h6.422v1.842H394.8v-15.4Zm15.37,1.865h-4.445v-1.865h11.089v1.865h-4.445v13.536h-2.2V116.138Zm8.478-1.865h2.333l3.2,9.15c0.112,0.351.867,2.63,0.889,2.981h0.046a30.445,30.445,0,0,1,.933-2.981l3.334-9.15h1.756l3.332,9.15c0.133,0.351.91,2.63,0.935,2.981h0.044c0.043-.351.8-2.63,0.91-2.981l3.179-9.15h2.243l-5.49,15.4h-1.688l-3.6-9.607a25.578,25.578,0,0,1-.758-2.5h-0.044a25.421,25.421,0,0,1-.776,2.5l-3.578,9.607h-1.69Zm24.117,7.7a8.2,8.2,0,1,1,8.2,8A7.862,7.862,0,0,1,442.769,121.976Zm14.133,0a5.946,5.946,0,1,0-5.955,6.053A5.772,5.772,0,0,0,456.9,121.976Zm5.433-7.7h4.511c2.913,0,5.178,1.5,5.178,4.563a4.294,4.294,0,0,1-3.956,4.346l4.779,6.492h-2.579l-4.511-6.276h-1.223v6.276h-2.2v-15.4Zm4.267,7.351c2.044,0,3.2-1.077,3.2-2.764s-1.156-2.765-3.2-2.765h-2.068v5.529H466.6Zm8.736-7.351h2.2v7.154l6.444-7.154h2.666l-6.687,7.351,7,8.05h-2.754l-6.668-7.785v7.785h-2.2v-15.4Z"/>
  </g>
</svg>
