<svg id="Lafayette_IN" data-name="Lafayette IN" xmlns="http://www.w3.org/2000/svg" xmlns:xlink="http://www.w3.org/1999/xlink" width="726" height="160" viewBox="0 0 726 160">
  <defs>
    <style>
      .cls-1, .cls-2 {
        fill-rule: evenodd;
      }

      .cls-2 {
        fill: #fff;
        filter: url(#filter);
      }
    </style>
    <filter id="filter" x="0" y="118.969" width="367.969" height="16" filterUnits="userSpaceOnUse">
      <feFlood result="flood" flood-color="#999"/>
      <feComposite result="composite" operator="in" in2="SourceGraphic"/>
      <feBlend result="blend" in2="SourceGraphic"/>
    </filter>
  </defs>
  <path id="Lafayette_Journal_Courier" data-name="Lafayette Journal&amp;Courier" class="cls-1" d="M438.24,62.719h12.088V59.567h-8.417V36.69H438.24V62.719ZM461.1,63.164a7.674,7.674,0,0,0,6.748-3.6h0.074v3.152h3.337V44.4h-3.337v3.152h-0.074a7.674,7.674,0,0,0-6.748-3.6c-5.784,0-9.232,4.486-9.232,9.529C451.871,58.121,454.763,63.164,461.1,63.164Zm0.482-2.929c-3.634,0-6.155-2.892-6.155-6.674,0-3.745,2.447-6.674,6.155-6.674,3.745,0,6.192,2.966,6.192,6.674C467.777,57.343,465.256,60.235,461.585,60.235Zm16.588,2.484H481.7V47.183H486.7V44.4H481.7V42.771c0-2.6,1.224-3.634,3.152-3.634a4.161,4.161,0,0,1,1.854.408V36.579a9.313,9.313,0,0,0-2.559-.334c-3.893,0-5.969,2.484-5.969,6.414V44.4h-2.6v2.781h2.6V62.719Zm19.232,0.445a7.676,7.676,0,0,0,6.748-3.6h0.074v3.152h3.337V44.4h-3.337v3.152h-0.074a7.676,7.676,0,0,0-6.748-3.6c-5.784,0-9.233,4.486-9.233,9.529C488.172,58.121,491.064,63.164,497.405,63.164Zm0.482-2.929c-3.634,0-6.155-2.892-6.155-6.674,0-3.745,2.447-6.674,6.155-6.674,3.745,0,6.192,2.966,6.192,6.674C504.079,57.343,501.558,60.235,497.887,60.235Zm16.18,9.826c3.93,0,5.191-2.3,6.377-5.08L529.269,44.4h-3.708L521.3,55.155c-0.408,1.038-1.149,3-1.224,3.411H520a29.378,29.378,0,0,0-1.26-3.411L514.475,44.4h-3.782l7.452,17.464-1.186,2.781c-0.742,1.706-1.669,2.521-3.263,2.521a4.843,4.843,0,0,1-2.151-.482v2.929A6.526,6.526,0,0,0,514.067,70.06Zm25.974-6.9a9.4,9.4,0,0,0,8.528-4.561l-2.521-1.594a6.412,6.412,0,0,1-5.822,3.337,6.052,6.052,0,0,1-6.377-6.118H548.9a7.821,7.821,0,0,0,.037-0.853c0-4.338-2.6-9.418-9.2-9.418-6.637,0-9.343,5.191-9.343,9.6C530.4,58.27,533.515,63.164,540.041,63.164ZM533.96,51.707a5.812,5.812,0,0,1,11.532,0H533.96Zm24.414,11.346a9.675,9.675,0,0,0,2.707-.334V59.827a4.572,4.572,0,0,1-1.965.334c-1.483,0-2.151-.853-2.151-2.818V47.183H561.3V44.4h-4.339V39.434h-3.522V44.4h-2.6v2.781h2.6v10.53C553.443,61.236,554.926,63.053,558.374,63.053Zm12.225,0a9.672,9.672,0,0,0,2.706-.334V59.827a4.572,4.572,0,0,1-1.965.334c-1.483,0-2.15-.853-2.15-2.818V47.183h4.338V44.4H569.19V39.434h-3.523V44.4h-2.6v2.781h2.6v10.53C565.667,61.236,567.15,63.053,570.6,63.053Zm15,0.111a9.4,9.4,0,0,0,8.528-4.561l-2.522-1.594a6.409,6.409,0,0,1-5.821,3.337,6.052,6.052,0,0,1-6.377-6.118h15.053a7.821,7.821,0,0,0,.037-0.853c0-4.338-2.595-9.418-9.195-9.418-6.637,0-9.344,5.191-9.344,9.6C575.963,58.27,579.078,63.164,585.6,63.164Zm-6.081-11.457a5.812,5.812,0,0,1,11.531,0H579.523Zm-138.205,52.5c3.782,0,6.266-2.262,6.266-6.341V77.657h-3.671V97.382c0,2.151-.852,3.56-2.929,3.56a3.662,3.662,0,0,1-3.263-2.04l-2.336,2.114A6.663,6.663,0,0,0,441.318,104.205Zm20.341-.075a9.6,9.6,0,1,0-9.788-9.6A9.468,9.468,0,0,0,461.659,104.13Zm0-2.966c-3.559,0-6.266-2.744-6.266-6.637s2.707-6.637,6.266-6.637,6.266,2.744,6.266,6.637S465.219,101.164,461.659,101.164Zm22.335,2.966a6.21,6.21,0,0,0,5.636-2.892H489.7v2.447h3.374V85.369h-3.522V95.788c0,3.448-1.706,5.45-4.746,5.45-2.929,0-4.3-1.817-4.3-5.339V85.369h-3.486V96.529C477.023,101.312,479.471,104.13,483.994,104.13Zm14.477-.445h3.486V93.971c0-3.708,1.557-5.9,4.523-5.9a7.119,7.119,0,0,1,2.336.408v-3.3a8.115,8.115,0,0,0-1.965-.26,5.145,5.145,0,0,0-4.968,3.115h-0.075v-2.67h-3.337v18.316Zm15.188,0h3.485V93.267c0-3.448,1.854-5.45,4.932-5.45,2.966,0,4.412,1.891,4.412,5.339v10.53h3.522V92.525c0-4.82-2.6-7.6-7.119-7.6a6.644,6.644,0,0,0-5.821,2.892H517V85.369h-3.337v18.316ZM542.6,104.13a7.677,7.677,0,0,0,6.748-3.6h0.074v3.151h3.337V85.369h-3.337v3.152h-0.074a7.677,7.677,0,0,0-6.748-3.6c-5.785,0-9.233,4.486-9.233,9.529C533.364,99.088,536.256,104.13,542.6,104.13Zm0.482-2.929c-3.634,0-6.155-2.892-6.155-6.674,0-3.745,2.447-6.674,6.155-6.674,3.744,0,6.192,2.966,6.192,6.674C549.271,98.309,546.749,101.2,543.079,101.2Zm15.772,2.484h3.485V77.657h-3.485v26.028Zm20.791,0.408a11.87,11.87,0,0,0,8.231-3.151l2.336,2.743h4.116l-4.3-4.894a11.6,11.6,0,0,0,2.669-7.749h-3.151a9.666,9.666,0,0,1-1.446,5.525l-6.341-7.23c2.373-1.557,4.969-3.263,4.969-6.563,0-2.892-1.965-5.525-6.081-5.525-3.522,0-6.34,1.965-6.34,5.413,0,2.447,1.409,4.3,2.818,6.007-3.152,2-5.933,4.079-5.933,8.12C571.188,101.387,574.785,104.093,579.642,104.093Zm0.519-2.818c-3.337,0-5.413-1.816-5.413-4.672,0-2.707,1.853-4.264,4.226-5.821l6.971,8.046A7.821,7.821,0,0,1,580.161,101.275ZM579.976,87.26c-1.039-1.186-2.3-2.781-2.3-4.486a2.7,2.7,0,0,1,2.892-2.781,2.774,2.774,0,0,1,2.966,2.855C583.535,84.813,581.829,86.148,579.976,87.26Zm31.492,16.945a13.2,13.2,0,0,0,7.787-2.262V98.124a10.5,10.5,0,0,1-7.6,2.781c-5.9,0-9.974-4.264-9.974-10.234s4.115-10.234,9.974-10.234a10.153,10.153,0,0,1,7.267,2.632V79.214a12.733,12.733,0,0,0-7.416-2.076c-7.972,0-13.57,5.747-13.57,13.534C597.935,98.495,603.5,104.205,611.468,104.205Zm20.3-.075a9.6,9.6,0,1,0-9.789-9.6A9.468,9.468,0,0,0,631.764,104.13Zm0-2.966c-3.56,0-6.266-2.744-6.266-6.637s2.706-6.637,6.266-6.637,6.266,2.744,6.266,6.637S635.323,101.164,631.764,101.164ZM654.1,104.13a6.212,6.212,0,0,0,5.636-2.892h0.074v2.447h3.374V85.369H659.66V95.788c0,3.448-1.7,5.45-4.746,5.45-2.929,0-4.3-1.817-4.3-5.339V85.369h-3.485V96.529C647.128,101.312,649.575,104.13,654.1,104.13Zm14.477-.445h3.485V93.971c0-3.708,1.558-5.9,4.524-5.9a7.119,7.119,0,0,1,2.336.408v-3.3a8.121,8.121,0,0,0-1.965-.26,5.146,5.146,0,0,0-4.969,3.115h-0.074v-2.67h-3.337v18.316Zm16.93-20.949a2.125,2.125,0,0,0,2.225-2.15,2.226,2.226,0,0,0-4.45,0A2.125,2.125,0,0,0,685.506,82.736Zm-1.743,20.949h3.486V85.369h-3.486v18.316Zm17.493,0.445a9.4,9.4,0,0,0,8.528-4.56l-2.522-1.594a6.408,6.408,0,0,1-5.821,3.337,6.051,6.051,0,0,1-6.377-6.117h15.053a7.823,7.823,0,0,0,.037-0.853c0-4.338-2.6-9.418-9.2-9.418-6.637,0-9.344,5.191-9.344,9.6C691.615,99.236,694.73,104.13,701.256,104.13Zm-6.081-11.457a5.812,5.812,0,0,1,11.531,0H695.175Zm18.964,11.012h3.485V93.971c0-3.708,1.557-5.9,4.523-5.9a7.119,7.119,0,0,1,2.336.408v-3.3a8.115,8.115,0,0,0-1.965-.26,5.145,5.145,0,0,0-4.968,3.115h-0.074v-2.67h-3.337v18.316Z"/>
  <path id="JConline_pixel_hinted_2x" data-name="JConline pixel hinted 2x" class="cls-1" d="M19.788,102.81c13.532,0,22.123-8.162,22.123-20.942V25.915H25.587v53.7c0,5.155-2.04,8.914-7.84,8.914-4.188,0-6.981-2.255-9.021-5.262l-8.914,10.2C3.356,98.944,10.659,102.81,19.788,102.81Zm71.956,0c9.129,0,16.432-2.363,20.62-5.263V81.868c-4.4,4.3-11.491,6.551-19.546,6.551-14.391,0-24.056-9.773-24.056-24.808S78.534,38.8,92.818,38.8c8.055,0,14.391,2.578,18.687,6.336V29.352c-4.188-2.792-10.739-4.94-19.761-4.94-23.627,0-39.736,16.324-39.736,39.2C52.008,86.593,67.9,102.81,91.744,102.81ZM152.1,102.6c19.761,0,29.534-14.606,29.534-27.815S171.862,46.965,152.1,46.965,122.568,61.57,122.568,74.78,132.341,102.6,152.1,102.6Zm0-12.995c-7.839,0-14.068-5.8-14.068-14.82s6.229-14.821,14.068-14.821,14.069,5.8,14.069,14.821S159.941,89.6,152.1,89.6ZM188.012,101l15.478,0,0.055-28.481c0-7.625,3.437-13.1,11.384-13.1s10.095,5.584,10.095,12.995L225,101l15.58-.015-0.091-30.931c0-14.069-6.551-23.09-20.62-23.09-8.806,0-13.746,3.759-17.075,8.484h-0.215v-7.2H187.973Zm61.983-.03,15.886,0.048L266,26H250Zm32.488-58.412c5.263,0,9.344-3.759,9.344-8.806s-4.081-8.806-9.344-8.806c-5.155,0-9.236,3.759-9.236,8.806S277.328,42.561,282.483,42.561ZM275,101h15V48H275v53Zm26,0h16l-0.042-28.476c0-7.625,3.437-13.1,11.384-13.1s10.1,5.584,10.1,12.995l0.081,28.59L354,101l-0.1-30.946c0-14.069-6.551-23.09-20.62-23.09-8.806,0-13.747,3.759-17.076,8.484h-0.215L316,48H301v53Zm89.847,1.595c11.277,0,19.331-4.081,23.735-9.988L405.99,83.8c-2.685,3.759-7.3,6.766-14.391,6.766-7.732,0-14.82-3.974-15.572-12.35h40.6a20.791,20.791,0,0,0,.322-3.866c0-11.921-6.98-27.386-27.922-27.386s-28.46,15.465-28.46,27.815C360.562,88.526,370.013,102.6,390.847,102.6Zm-14.82-33.507c1.5-7.3,6.766-10.847,13-10.847s11.384,3.544,12.887,10.847H376.027Z"/>
  <path id="USAT_Network" data-name="USAT Network" class="cls-2" d="M-0.011,119.273H4.478c3.156,0,5.268,1.865,5.268,4.741s-2.155,4.735-5.268,4.735H2.188v5.925h-2.2v-15.4Zm4.267,7.659c2.112,0,3.244-1.163,3.244-2.918,0-1.736-1.132-2.919-3.244-2.919H2.188v5.837H4.256Zm11.768-7.659H17.98l6.4,15.4H22.022l-1.6-4.035H13.513l-1.6,4.035H9.6S15.244,121.162,16.024,119.273Zm3.665,9.544L18.2,125.023c-0.221-.572-1.179-2.942-1.2-3.139H16.957c-0.022.2-.955,2.5-1.2,3.139l-1.51,3.794h5.443Zm6.924-9.544h4.51c2.91,0,5.178,1.5,5.178,4.563a4.293,4.293,0,0,1-3.955,4.346l4.778,6.492H34.545l-4.51-6.276H28.812v6.276h-2.2v-15.4Zm4.267,7.351c2.043,0,3.2-1.077,3.2-2.764s-1.157-2.765-3.2-2.765H28.812v5.529H30.88ZM42.4,121.138H37.957v-1.865H49.046v1.865H44.6v13.536H42.4V121.138Zm12.348,5.838a7.862,7.862,0,0,1,8.2-8.006,8.008,8.008,0,1,1,0,16.011A7.861,7.861,0,0,1,54.75,126.976Zm14.133,0a5.946,5.946,0,1,0-5.955,6.053A5.773,5.773,0,0,0,68.882,126.976Zm5.433-7.7h7.867v1.865H76.514V126.1H82v1.865H76.514v6.713h-2.2v-15.4Zm17.815,1.865H87.686v-1.865H98.774v1.865H94.33v13.536h-2.2V121.138Zm8.953-1.865h2.2v6.318h8.178v-6.318h2.2v15.4h-2.2v-7.218h-8.178v7.218h-2.2v-15.4Zm16.631,0h8.49v1.846h-6.29v4.472h6.11v1.846h-6.11v5.395h6.422v1.842h-8.622v-15.4Zm16,10.092V119.273h2.221v9.433c0,2.679,1.157,4.323,3.756,4.323,2.622,0,3.78-1.644,3.78-4.323v-9.433h2.221v10.092c0,3.38-2.2,5.616-6,5.616C135.865,134.981,133.71,132.745,133.71,129.365Zm14.274,2.524,1.491-1.25a4.52,4.52,0,0,0,3.911,2.433c1.709,0,3.044-.918,3.044-2.611,0-1.817-1.534-2.433-3.446-3.178-1.956-.769-3.933-1.736-3.933-4.193,0-2.432,1.912-4.12,4.712-4.12a5.249,5.249,0,0,1,4.579,2.322l-1.491,1.25a3.552,3.552,0,0,0-3.088-1.668c-1.512,0-2.511.769-2.511,2.063,0,1.6,1.554,2.13,2.911,2.654,2.2,0.856,4.466,1.889,4.466,4.716,0,2.679-2,4.674-5.2,4.674A6.064,6.064,0,0,1,147.984,131.889Zm18.241-12.616h1.956l6.4,15.4h-2.357l-1.6-4.035h-6.912l-1.6,4.035H159.8S165.446,121.162,166.225,119.273Zm3.665,9.544-1.487-3.794c-0.222-.572-1.179-2.942-1.2-3.139h-0.044c-0.022.2-.955,2.5-1.2,3.139l-1.51,3.794h5.443Zm13.978-7.679h-4.445v-1.865h11.088v1.865h-4.444v13.536h-2.2V121.138Zm7.469,5.838a8.2,8.2,0,1,1,8.2,8A7.861,7.861,0,0,1,191.337,126.976Zm14.132,0a5.945,5.945,0,1,0-5.954,6.053A5.772,5.772,0,0,0,205.469,126.976Zm5.434-7.7h4.423c4.977,0,8.265,2.808,8.265,7.7,0,4.87-3.312,7.7-8.265,7.7H210.9v-15.4Zm2.2,13.534h2.046c3.643,0,6.176-1.9,6.176-5.831s-2.533-5.838-6.176-5.838H213.1v11.669Zm17.637-13.534H232.7l6.4,15.4h-2.357l-1.6-4.035h-6.912l-1.6,4.035h-2.311S229.96,121.162,230.739,119.273Zm3.666,9.544-1.489-3.794c-0.221-.572-1.178-2.942-1.2-3.139h-0.044c-0.022.2-.955,2.5-1.2,3.139l-1.51,3.794h5.444Zm9.084-.419-5.312-9.125h2.467l2.889,5.135a22.887,22.887,0,0,1,1.11,2.192h0.022a23.153,23.153,0,0,1,1.113-2.192l2.91-5.135h2.4l-5.309,9.125v6.276h-2.289V128.4Zm14.062-9.125h1.687l8.846,9.982c0.266,0.288,1.422,1.711,1.534,1.932l0.044-.023c-0.044-.217-0.044-2-0.044-2.39v-9.5h2.134v15.4h-1.713l-8.845-9.983c-0.265-.283-1.422-1.711-1.532-1.928l-0.021.02c0.021,0.221.043,2,.043,2.394v9.5h-2.133v-15.4Zm18.253,0h8.487v1.846H278v4.472h6.113v1.846H278v5.395h6.422v1.842H275.8v-15.4Zm15.37,1.865h-4.445v-1.865h11.089v1.865h-4.445v13.536h-2.2V121.138Zm8.477-1.865h2.334l3.2,9.15c0.112,0.351.867,2.63,0.889,2.981h0.046a30.445,30.445,0,0,1,.933-2.981l3.334-9.15h1.756l3.332,9.15c0.133,0.351.91,2.63,0.935,2.981h0.044c0.044-.351.8-2.63,0.91-2.981l3.179-9.15h2.243l-5.49,15.4h-1.688l-3.6-9.607a25.578,25.578,0,0,1-.758-2.5h-0.044a25.421,25.421,0,0,1-.776,2.5l-3.578,9.607h-1.69Zm24.119,7.7a8.2,8.2,0,1,1,8.2,8A7.861,7.861,0,0,1,323.77,126.976Zm14.132,0a5.945,5.945,0,1,0-5.955,6.053A5.772,5.772,0,0,0,337.9,126.976Zm5.433-7.7h4.511c2.913,0,5.178,1.5,5.178,4.563a4.294,4.294,0,0,1-3.956,4.346l4.779,6.492h-2.579l-4.511-6.276h-1.222v6.276h-2.2v-15.4Zm4.267,7.351c2.044,0,3.2-1.077,3.2-2.764s-1.156-2.765-3.2-2.765h-2.067v5.529H347.6Zm8.736-7.351h2.2v7.154l6.444-7.154h2.666l-6.687,7.351,7,8.05h-2.754l-6.668-7.785v7.785h-2.2v-15.4Z"/>
</svg>
