<svg xmlns="http://www.w3.org/2000/svg" width="344" height="47" viewBox="0 0 344 47">
  <g fill="none" fill-rule="evenodd" transform="translate(0 -1)">
    <path fill="#414140" d="M12.857 29.535C14.141 29.569 15.36 28.973 16.122 27.94 16.996 26.706 17.43 25.215 17.357 23.705 17.435 22.188 17 20.689 16.122 19.45 15.364 18.41 14.145 17.806 12.857 17.835 11.56 17.793 10.323 18.389 9.547 19.43 8.66 20.673 8.219 22.18 8.297 23.705 8.22 25.22 8.655 26.717 9.532 27.955 10.314 28.995 11.557 29.585 12.857 29.535zM17.882 35.16L17.477 32.16C16.019 34.466 13.455 35.833 10.727 35.76 8.798 35.793 6.903 35.252 5.282 34.206 3.695 33.155 2.433 31.683 1.637 29.955.747 27.994.31 25.858.357 23.705.312 21.548.758 19.409 1.662 17.45 2.444 15.741 3.672 14.275 5.217 13.205 6.77 12.174 8.599 11.64 10.462 11.675 11.788 11.662 13.099 11.962 14.287 12.55 15.426 13.109 16.425 13.916 17.212 14.91L17.212 2.31 25.042 2.31 25.042 35.16 17.882 35.16 17.882 35.16zM36.507 27.735C36.488 28.386 36.77 29.01 37.273 29.425 37.836 29.881 38.548 30.113 39.273 30.075 40.294 30.099 41.281 29.699 41.997 28.97 42.732 28.239 43.132 27.236 43.102 26.2L43.102 25.44C42.256 25.287 41.398 25.211 40.537 25.215 39.553 25.183 38.575 25.383 37.682 25.8 36.928 26.14 36.461 26.909 36.507 27.735zM43.392 35.16L42.987 32.16C41.487 34.56 39.207 35.76 36.148 35.76 34.87 35.779 33.608 35.478 32.477 34.885 31.41 34.326 30.51 33.495 29.867 32.475 29.21 31.408 28.874 30.173 28.902 28.92 28.81 26.555 29.944 24.31 31.902 22.98 33.902 21.57 36.534 20.865 39.797 20.865 40.883 20.871 41.966 20.961 43.037 21.135 42.972 20.094 42.432 19.141 41.572 18.55 40.646 17.943 39.555 17.636 38.447 17.67 37.332 17.676 36.226 17.88 35.182 18.275 34.101 18.663 33.054 19.142 32.052 19.705L29.398 14.705C30.906 13.74 32.542 12.99 34.257 12.475 35.949 11.957 37.708 11.69 39.477 11.685 41.421 11.655 43.351 12.022 45.148 12.765 46.768 13.437 48.148 14.582 49.107 16.05 50.124 17.729 50.625 19.669 50.547 21.63L50.547 35.175 43.392 35.175 43.392 35.16 43.392 35.16zM55.422 35.16L55.422 12.255C56.679 12.525 57.961 12.661 59.247 12.66 60.591 12.657 61.931 12.521 63.247 12.255L63.247 35.16 55.422 35.16"/>
    <polygon fill="#414140" points="68.532 35.16 76.357 35.16 76.357 2.31 68.532 2.31"/>
    <path fill="#414140" d="M97.247,33.36 C95.867,36.9 94.292,39.541 92.522,41.28 C90.721,43.033 88.284,43.975 85.772,43.89 C84.649,43.904 83.529,43.767 82.442,43.485 C81.571,43.255 80.732,42.919 79.942,42.485 L82.147,37.085 C82.596,37.305 83.063,37.486 83.542,37.625 C84.069,37.777 84.614,37.853 85.162,37.85 C85.931,37.862 86.688,37.659 87.347,37.265 C88.105,36.74 88.692,36.004 89.037,35.15 L89.397,34.34 L79.022,12.255 L87.662,12.255 L92.747,25.98 L96.932,12.255 L105.432,12.255 L97.247,33.36"/>
    <path class='no-color-change' fill="#009BFF" d="M126.497 27.735C126.479 28.386 126.761 29.009 127.262 29.425 127.826 29.881 128.538 30.113 129.262 30.075 130.284 30.099 131.271 29.699 131.987 28.97 132.722 28.239 133.122 27.236 133.092 26.2L133.092 25.44C132.246 25.287 131.387 25.211 130.527 25.215 129.543 25.183 128.565 25.383 127.672 25.8 126.918 26.14 126.451 26.909 126.497 27.735zM133.382 35.16L132.977 32.16C131.477 34.56 129.197 35.76 126.137 35.76 124.862 35.778 123.602 35.477 122.472 34.885 121.405 34.326 120.505 33.495 119.862 32.475 119.205 31.408 118.87 30.173 118.897 28.92 118.805 26.555 119.939 24.31 121.897 22.98 123.897 21.57 126.529 20.865 129.792 20.865 130.877 20.871 131.961 20.961 133.032 21.135 132.967 20.094 132.427 19.141 131.567 18.55 130.64 17.943 129.549 17.636 128.442 17.67 127.328 17.676 126.224 17.881 125.182 18.275 124.097 18.663 123.047 19.141 122.042 19.705L119.387 14.705C120.896 13.74 122.532 12.99 124.247 12.475 125.939 11.957 127.698 11.69 129.467 11.685 131.411 11.655 133.341 12.022 135.137 12.765 136.758 13.437 138.138 14.582 139.097 16.05 140.114 17.729 140.615 19.669 140.537 21.63L140.537 35.175 133.382 35.175 133.382 35.16 133.382 35.16zM156.627 29.535C157.911 29.569 159.13 28.973 159.892 27.94 160.769 26.702 161.204 25.205 161.127 23.69 161.205 22.173 160.77 20.675 159.892 19.435 159.13 18.402 157.911 17.807 156.627 17.84 155.331 17.804 154.097 18.398 153.317 19.435 152.436 20.679 152.001 22.183 152.082 23.705 152.005 25.22 152.44 26.717 153.317 27.955 154.097 28.991 155.332 29.58 156.627 29.535zM161.667 35.16L161.262 32.16C159.804 34.466 157.239 35.833 154.512 35.76 152.585 35.792 150.691 35.251 149.072 34.206 147.485 33.155 146.223 31.683 145.427 29.955 144.529 27.996 144.083 25.86 144.122 23.705 144.077 21.548 144.523 19.409 145.427 17.45 146.215 15.739 147.45 14.272 149.002 13.205 150.555 12.174 152.384 11.64 154.247 11.675 155.573 11.662 156.884 11.962 158.072 12.55 159.211 13.109 160.21 13.915 160.997 14.91L160.997 2.31 168.828 2.31 168.828 35.16 161.667 35.16 161.667 35.16z"/>
    <polyline class='no-color-change' fill="#009BFF" points="197.792 12.255 188.927 35.16 180.357 35.16 171.512 12.255 180.107 12.255 184.788 27.06 189.357 12.255 197.792 12.255"/>
    <path class='no-color-change' fill="#009BFF" d="M210.408 17.32C207.857 17.32 206.328 18.67 205.817 21.37L214.547 21.37C214.337 19.9 213.837 18.857 213.047 18.24 212.295 17.648 211.364 17.331 210.408 17.34L210.408 17.32zM221.118 32.82C219.781 33.725 218.317 34.422 216.772 34.89 214.96 35.468 213.069 35.757 211.167 35.745 208.747 35.818 206.345 35.303 204.167 34.245 202.303 33.307 200.754 31.843 199.712 30.035 198.652 28.14 198.115 25.997 198.158 23.825 198.115 21.628 198.642 19.458 199.687 17.525 200.673 15.729 202.137 14.24 203.917 13.225 207.826 11.166 212.495 11.149 216.417 13.18 218.174 14.158 219.624 15.608 220.602 17.365 221.64 19.292 222.157 21.457 222.102 23.645 222.101 23.991 222.078 24.337 222.033 24.68 221.987 25.04 221.932 25.415 221.877 25.805L205.908 25.805C206.627 28.445 208.592 29.765 211.802 29.765 213.109 29.79 214.408 29.56 215.627 29.09 216.59 28.711 217.523 28.261 218.417 27.74L221.118 32.82 221.118 32.82zM233.783 26.295L233.783 35.16 225.953 35.16 225.953 12.255 233.107 12.255 233.607 16.08C234.594 13.546 237.053 11.895 239.772 11.94 240.403 11.907 241.034 12.015 241.618 12.255L241.618 19.41C241.258 19.284 240.888 19.193 240.512 19.14 240.057 19.077 239.597 19.046 239.137 19.05 237.657 19.014 236.241 19.652 235.288 20.785 234.284 21.938 233.782 23.775 233.783 26.295M262.453 33.675C261.466 34.329 260.39 34.834 259.257 35.175 258.034 35.554 256.758 35.745 255.477 35.74 253.017 35.74 251.061 35.029 249.607 33.605 248.154 32.182 247.425 30.268 247.422 27.865L247.422 18.105 243.687 18.105 243.687 12.255 247.783 12.255 248.783 5.865 255.283 5.865 255.283 12.255 261.283 12.255 261.283 18.105 255.283 18.105 255.283 26.88C255.241 27.56 255.494 28.225 255.977 28.706 256.492 29.158 257.163 29.391 257.847 29.355 258.254 29.352 258.657 29.276 259.038 29.13 259.434 28.984 259.817 28.803 260.182 28.59L262.453 33.675M265.857 35.16L265.857 12.255C267.115 12.525 268.397 12.661 269.682 12.66 271.026 12.657 272.366 12.521 273.682 12.255L273.682 35.16 265.857 35.16zM269.667 10.455C267.085 10.468 264.982 8.386 264.968 5.804 264.962 4.546 265.462 3.339 266.357 2.455 268.125.569 271.085.472 272.972 2.239 274.859 4.006 274.956 6.968 273.188 8.854 273.119 8.928 273.046 9 272.972 9.07 272.11 9.969 270.914 10.471 269.667 10.455L269.667 10.455zM287.527 35.745C285.632 35.76 283.75 35.44 281.967 34.8 280.267 34.184 278.691 33.27 277.312 32.1L280.642 27.69C281.677 28.521 282.819 29.208 284.038 29.735 285.164 30.242 286.382 30.511 287.618 30.525 288.265 30.556 288.91 30.416 289.487 30.12 289.933 29.882 290.204 29.41 290.182 28.905 290.184 28.339 289.882 27.817 289.392 27.535 288.512 27.061 287.564 26.724 286.583 26.535L284.422 25.995C280.132 24.855 277.987 22.56 277.988 19.11 277.953 17.687 278.396 16.292 279.248 15.15 280.147 13.995 281.345 13.108 282.712 12.585 284.348 11.955 286.09 11.649 287.842 11.685 289.687 11.673 291.52 11.978 293.262 12.585 294.954 13.183 296.53 14.065 297.922 15.195L294.502 19.695C293.486 18.876 292.367 18.196 291.172 17.67 290.142 17.192 289.023 16.932 287.887 16.905 286.221 16.905 285.387 17.445 285.387 18.525 285.398 19.023 285.685 19.475 286.132 19.695 286.789 20.06 287.492 20.332 288.222 20.505L291.147 21.315C293.337 21.915 294.958 22.815 296.007 24.015 297.049 25.193 297.611 26.718 297.583 28.29 297.614 29.694 297.184 31.07 296.357 32.206 295.444 33.384 294.222 34.288 292.828 34.815 291.137 35.465 289.337 35.781 287.527 35.745M312.312 17.32C309.762 17.32 308.232 18.67 307.722 21.37L316.453 21.37C316.243 19.9 315.743 18.857 314.953 18.24 314.2 17.649 313.269 17.331 312.312 17.34L312.312 17.32zM323.022 32.82C321.686 33.725 320.221 34.422 318.677 34.89 316.866 35.468 314.974 35.757 313.073 35.745 310.652 35.818 308.25 35.303 306.073 34.245 304.208 33.307 302.66 31.843 301.618 30.035 300.557 28.14 300.02 25.997 300.062 23.825 300.02 21.628 300.546 19.458 301.592 17.525 302.584 15.717 304.062 14.221 305.857 13.205 309.765 11.146 314.434 11.129 318.357 13.16 320.115 14.138 321.564 15.588 322.542 17.345 323.58 19.272 324.096 21.437 324.042 23.625 324.041 23.971 324.017 24.317 323.972 24.66 323.927 25.02 323.873 25.395 323.812 25.785L307.837 25.785C308.557 28.425 310.522 29.745 313.732 29.745 315.039 29.769 316.337 29.54 317.557 29.07 318.52 28.692 319.453 28.241 320.347 27.72L323.022 32.82 323.022 32.82zM335.687 26.295L335.687 35.16 327.857 35.16 327.857 12.255 335.012 12.255 335.512 16.08C336.5 13.546 338.958 11.895 341.677 11.94 342.308 11.907 342.938 12.015 343.522 12.255L343.522 19.41C343.164 19.284 342.793 19.193 342.417 19.14 341.961 19.077 341.502 19.046 341.042 19.05 339.564 19.015 338.15 19.653 337.198 20.785 336.191 21.938 335.687 23.775 335.687 26.295M59.407 10.455C56.825 10.468 54.722 8.386 54.709 5.804 54.702 4.546 55.203 3.339 56.097 2.455 57.864.569 60.826.472 62.712 2.239 64.599 4.006 64.695 6.968 62.928 8.854 62.858 8.928 62.787 9 62.712 9.07 61.85 9.969 60.653 10.471 59.407 10.455"/>
    <path fill="#414140" d="M192.696 44.576L193.856 44.576C194.237 44.576 194.538 44.482 194.76 44.294 194.981 44.107 195.092 43.851 195.092 43.527 195.092 43.203 194.981 42.948 194.76 42.76 194.538 42.573 194.237 42.478 193.856 42.478L192.696 42.478 192.696 44.576zM191.834 47.551L191.834 41.753 193.856 41.753C194.504 41.753 195.018 41.913 195.399 42.231 195.78 42.549 195.97 42.981 195.97 43.527 195.97 44.067 195.78 44.495 195.399 44.81 195.018 45.125 194.504 45.284 193.856 45.284L192.696 45.284 192.696 47.551 191.834 47.551 191.834 47.551zM197.709 45.369L199.824 45.369 198.767 42.649 197.709 45.369zM200.668 47.551L200.106 46.093 197.428 46.093 196.866 47.551 195.996 47.551 198.315 41.753 199.245 41.753 201.555 47.551 200.668 47.551 200.668 47.551zM203.379 44.491L204.565 44.491C204.935 44.491 205.229 44.4 205.448 44.217 205.667 44.036 205.776 43.791 205.776 43.484 205.776 43.177 205.667 42.933 205.448 42.751 205.229 42.57 204.935 42.478 204.565 42.478L203.379 42.478 203.379 44.491zM203.379 45.199L203.379 47.551 202.519 47.551 202.519 41.753 204.565 41.753C205.208 41.753 205.716 41.909 206.091 42.218 206.466 42.529 206.655 42.951 206.655 43.484 206.655 43.888 206.541 44.229 206.313 44.507 206.086 44.786 205.773 44.983 205.376 45.096L206.782 47.551 205.801 47.551 204.48 45.199 203.379 45.199 203.379 45.199z"/>
    <polyline fill="#414140" points="209.126 47.551 209.126 42.478 207.174 42.478 207.174 41.753 211.941 41.753 211.941 42.478 209.989 42.478 209.989 47.551 209.126 47.551"/>
    <path fill="#414140" d="M217.475,46.895 C217.849,46.895 218.184,46.8 218.476,46.61 C218.769,46.419 218.998,46.156 219.163,45.821 C219.328,45.486 219.41,45.096 219.41,44.653 C219.41,44.209 219.328,43.82 219.163,43.484 C218.998,43.149 218.769,42.886 218.476,42.696 C218.184,42.505 217.849,42.411 217.475,42.411 C217.099,42.411 216.767,42.505 216.477,42.696 C216.187,42.886 215.959,43.149 215.795,43.484 C215.629,43.82 215.547,44.209 215.547,44.653 C215.547,45.096 215.629,45.486 215.795,45.821 C215.959,46.156 216.187,46.419 216.477,46.61 C216.767,46.8 217.099,46.895 217.475,46.895 Z M217.475,47.646 C216.928,47.646 216.446,47.518 216.025,47.262 C215.604,47.006 215.273,46.654 215.032,46.205 C214.791,45.755 214.669,45.238 214.669,44.653 C214.669,44.067 214.791,43.55 215.032,43.101 C215.273,42.652 215.604,42.299 216.025,42.043 C216.446,41.788 216.928,41.66 217.475,41.66 C218.02,41.66 218.504,41.788 218.928,42.043 C219.352,42.299 219.684,42.652 219.926,43.101 C220.167,43.55 220.289,44.067 220.289,44.653 C220.289,45.238 220.167,45.755 219.926,46.205 C219.684,46.654 219.352,47.006 218.928,47.262 C218.504,47.518 218.02,47.646 217.475,47.646 L217.475,47.646 Z"/>
    <polyline fill="#414140" points="222.36 47.551 221.499 47.551 221.499 41.753 225.105 41.753 225.105 42.478 222.36 42.478 222.36 44.44 224.688 44.44 224.688 45.165 222.36 45.165 222.36 47.551"/>
    <polyline fill="#414140" points="229.599 47.551 229.599 42.478 227.647 42.478 227.647 41.753 232.413 41.753 232.413 42.478 230.46 42.478 230.46 47.551 229.599 47.551"/>
    <polyline fill="#414140" points="233.402 47.551 233.402 41.753 234.263 41.753 234.263 44.235 237.256 44.235 237.256 41.753 238.117 41.753 238.117 47.551 237.256 47.551 237.256 44.976 234.263 44.976 234.263 47.551 233.402 47.551"/>
    <polyline fill="#414140" points="239.634 47.551 239.634 41.753 243.352 41.753 243.352 42.478 240.496 42.478 240.496 44.269 243.011 44.269 243.011 44.994 240.496 44.994 240.496 46.827 243.42 46.827 243.42 47.551 239.634 47.551"/>
    <path fill="#414140" d="M248.861 46.895C249.333 46.895 249.703 46.752 249.973 46.468 250.244 46.184 250.378 45.801 250.378 45.318L250.378 41.753 251.24 41.753 251.24 45.327C251.24 46.048 251.028 46.615 250.605 47.027 250.181 47.44 249.599 47.646 248.861 47.646 248.122 47.646 247.542 47.44 247.122 47.027 246.701 46.615 246.49 46.048 246.49 45.327L246.49 41.753 247.352 41.753 247.352 45.318C247.352 45.801 247.487 46.184 247.756 46.468 248.027 46.752 248.395 46.895 248.861 46.895M254.454 47.646C254.016 47.646 253.598 47.569 253.201 47.416 252.803 47.262 252.482 47.057 252.237 46.801L252.723 46.23C252.951 46.44 253.219 46.605 253.529 46.724 253.838 46.844 254.147 46.904 254.454 46.904 254.829 46.904 255.131 46.832 255.362 46.686 255.592 46.541 255.708 46.341 255.708 46.085 255.708 45.852 255.625 45.656 255.46 45.497 255.295 45.337 255.014 45.204 254.616 45.096L253.814 44.882C253.297 44.747 252.92 44.553 252.685 44.303 252.449 44.053 252.331 43.726 252.331 43.322 252.331 42.993 252.418 42.703 252.595 42.453 252.771 42.203 253.014 42.008 253.324 41.869 253.634 41.73 253.985 41.66 254.377 41.66 254.792 41.66 255.181 41.738 255.545 41.894 255.91 42.05 256.23 42.268 256.509 42.546L255.989 43.109C255.745 42.882 255.49 42.708 255.225 42.585 254.961 42.463 254.681 42.402 254.385 42.402 254.028 42.402 253.735 42.477 253.507 42.627 253.281 42.778 253.167 42.987 253.167 43.254 253.167 43.499 253.248 43.689 253.41 43.826 253.572 43.961 253.82 44.076 254.156 44.166L255.051 44.415C255.568 44.556 255.946 44.755 256.185 45.011 256.424 45.267 256.543 45.584 256.543 45.965 256.543 46.301 256.455 46.595 256.279 46.848 256.102 47.101 255.858 47.297 255.545 47.437 255.233 47.576 254.869 47.646 254.454 47.646M258.708 45.369L260.824 45.369 259.766 42.649 258.708 45.369zM261.667 47.551L261.105 46.093 258.427 46.093 257.865 47.551 256.996 47.551 259.314 41.753 260.244 41.753 262.554 47.551 261.667 47.551 261.667 47.551z"/>
    <polyline fill="#414140" points="266.562 47.551 266.562 42.478 264.61 42.478 264.61 41.753 269.376 41.753 269.376 42.478 267.423 42.478 267.423 47.551 266.562 47.551"/>
    <path fill="#414140" d="M272.48 46.895C272.854 46.895 273.189 46.8 273.481 46.61 273.774 46.419 274.002 46.156 274.167 45.821 274.333 45.486 274.415 45.096 274.415 44.653 274.415 44.209 274.333 43.82 274.167 43.484 274.002 43.149 273.774 42.886 273.481 42.696 273.189 42.505 272.854 42.411 272.48 42.411 272.104 42.411 271.772 42.505 271.482 42.696 271.192 42.886 270.964 43.149 270.8 43.484 270.634 43.82 270.552 44.209 270.552 44.653 270.552 45.096 270.634 45.486 270.8 45.821 270.964 46.156 271.192 46.419 271.482 46.61 271.772 46.8 272.104 46.895 272.48 46.895zM272.48 47.646C271.933 47.646 271.451 47.518 271.03 47.262 270.609 47.006 270.278 46.654 270.037 46.205 269.795 45.755 269.674 45.238 269.674 44.653 269.674 44.067 269.795 43.55 270.037 43.101 270.278 42.652 270.609 42.299 271.03 42.043 271.451 41.788 271.933 41.66 272.48 41.66 273.025 41.66 273.509 41.788 273.933 42.043 274.357 42.299 274.689 42.652 274.931 43.101 275.172 43.55 275.293 44.067 275.293 44.653 275.293 45.238 275.172 45.755 274.931 46.205 274.689 46.654 274.357 47.006 273.933 47.262 273.509 47.518 273.025 47.646 272.48 47.646L272.48 47.646zM277.365 46.827L278.542 46.827C278.951 46.827 279.302 46.738 279.594 46.558 279.887 46.379 280.112 46.127 280.268 45.803 280.424 45.48 280.502 45.096 280.502 44.653 280.502 44.209 280.424 43.826 280.268 43.501 280.112 43.177 279.887 42.926 279.594 42.748 279.302 42.568 278.951 42.478 278.542 42.478L277.365 42.478 277.365 46.827zM276.503 47.551L276.503 41.753 278.542 41.753C279.11 41.753 279.607 41.875 280.034 42.116 280.46 42.358 280.791 42.696 281.028 43.13 281.263 43.565 281.381 44.073 281.381 44.653 281.381 45.232 281.263 45.74 281.028 46.174 280.791 46.61 280.46 46.948 280.034 47.189 279.607 47.431 279.11 47.551 278.542 47.551L276.503 47.551 276.503 47.551zM283.581 45.369L285.696 45.369 284.638 42.649 283.581 45.369zM286.54 47.551L285.977 46.093 283.299 46.093 282.737 47.551 281.868 47.551 284.187 41.753 285.116 41.753 287.426 47.551 286.54 47.551 286.54 47.551z"/>
    <polyline fill="#414140" points="290.07 45.25 290.07 47.551 289.208 47.551 289.208 45.25 287.171 41.753 288.185 41.753 289.643 44.431 291.102 41.753 292.099 41.753 290.07 45.25"/>
    <polyline fill="#414140" points="298.989 47.551 295.893 43.109 295.893 47.551 295.083 47.551 295.083 41.753 295.885 41.753 298.989 46.196 298.989 41.753 299.791 41.753 299.791 47.551 298.989 47.551"/>
    <polyline fill="#414140" points="301.307 47.551 301.307 41.753 305.025 41.753 305.025 42.478 302.168 42.478 302.168 44.269 304.684 44.269 304.684 44.994 302.168 44.994 302.168 46.827 305.093 46.827 305.093 47.551 301.307 47.551"/>
    <polyline fill="#414140" points="307.652 47.551 307.652 42.478 305.699 42.478 305.699 41.753 310.465 41.753 310.465 42.478 308.513 42.478 308.513 47.551 307.652 47.551"/>
    <polyline fill="#414140" points="316.092 47.551 314.737 42.93 313.381 47.551 312.486 47.551 310.942 41.753 311.794 41.753 312.972 46.341 314.328 41.753 315.146 41.753 316.51 46.358 317.696 41.753 318.532 41.753 316.988 47.551 316.092 47.551"/>
    <path fill="#414140" d="M321.951 46.895C322.326 46.895 322.66 46.8 322.953 46.61 323.246 46.419 323.474 46.156 323.639 45.821 323.804 45.486 323.886 45.096 323.886 44.653 323.886 44.209 323.804 43.82 323.639 43.484 323.474 43.149 323.246 42.886 322.953 42.696 322.66 42.505 322.326 42.411 321.951 42.411 321.576 42.411 321.243 42.505 320.953 42.696 320.663 42.886 320.435 43.149 320.271 43.484 320.106 43.82 320.024 44.209 320.024 44.653 320.024 45.096 320.106 45.486 320.271 45.821 320.435 46.156 320.663 46.419 320.953 46.61 321.243 46.8 321.576 46.895 321.951 46.895zM321.951 47.646C321.405 47.646 320.921 47.518 320.5 47.262 320.081 47.006 319.75 46.654 319.507 46.205 319.266 45.755 319.145 45.238 319.145 44.653 319.145 44.067 319.266 43.55 319.507 43.101 319.75 42.652 320.081 42.299 320.5 42.043 320.921 41.788 321.405 41.66 321.951 41.66 322.497 41.66 322.981 41.788 323.404 42.043 323.828 42.299 324.161 42.652 324.402 43.101 324.644 43.55 324.764 44.067 324.764 44.653 324.764 45.238 324.644 45.755 324.402 46.205 324.161 46.654 323.828 47.006 323.404 47.262 322.981 47.518 322.497 47.646 321.951 47.646L321.951 47.646zM326.836 44.491L328.022 44.491C328.391 44.491 328.686 44.4 328.904 44.217 329.123 44.036 329.233 43.791 329.233 43.484 329.233 43.177 329.123 42.933 328.904 42.751 328.686 42.57 328.391 42.478 328.022 42.478L326.836 42.478 326.836 44.491zM326.836 45.199L326.836 47.551 325.975 47.551 325.975 41.753 328.022 41.753C328.664 41.753 329.173 41.909 329.548 42.218 329.923 42.529 330.111 42.951 330.111 43.484 330.111 43.888 329.998 44.229 329.77 44.507 329.542 44.786 329.23 44.983 328.833 45.096L330.239 47.551 329.258 47.551 327.937 45.199 326.836 45.199 326.836 45.199z"/>
    <polyline fill="#414140" points="334.792 47.551 332.191 44.627 332.191 47.551 331.331 47.551 331.331 41.753 332.191 41.753 332.191 44.294 334.622 41.753 335.687 41.753 333.104 44.415 335.875 47.551 334.792 47.551"/>
  </g>
</svg>
