<svg xmlns="http://www.w3.org/2000/svg" width="360" height="50" viewBox="0 0 360 50">
  <g fill="none" fill-rule="evenodd">
    <path fill="#FFFFFE" d="M4.323 46.037L5.683 46.037C6.129 46.037 6.483 45.926 6.743 45.707 7.003 45.487 7.133 45.187 7.133 44.806 7.133 44.426 7.003 44.127 6.743 43.907 6.483 43.687 6.129 43.577 5.683 43.577L4.323 43.577 4.323 46.037zM3.313 49.527L3.313 42.727 5.683 42.727C6.443 42.727 7.046 42.914 7.493 43.287 7.94 43.66 8.163 44.167 8.163 44.806 8.163 45.44 7.94 45.942 7.493 46.312 7.046 46.681 6.443 46.867 5.683 46.867L4.323 46.867 4.323 49.527 3.313 49.527 3.313 49.527zM10.203 46.967L12.683 46.967 11.443 43.777 10.203 46.967zM13.673 49.527L13.013 47.817 9.873 47.817 9.213 49.527 8.193 49.527 10.913 42.727 12.003 42.727 14.713 49.527 13.673 49.527 13.673 49.527zM16.853 45.937L18.243 45.937C18.676 45.937 19.021 45.83 19.278 45.617 19.535 45.404 19.662 45.117 19.662 44.757 19.662 44.397 19.535 44.11 19.278 43.897 19.021 43.683 18.676 43.577 18.243 43.577L16.853 43.577 16.853 45.937zM16.853 46.767L16.853 49.527 15.843 49.527 15.843 42.727 18.243 42.727C18.996 42.727 19.593 42.909 20.033 43.272 20.473 43.636 20.693 44.131 20.693 44.757 20.693 45.23 20.559 45.631 20.293 45.957 20.026 46.284 19.66 46.513 19.193 46.647L20.843 49.527 19.693 49.527 18.143 46.767 16.853 46.767 16.853 46.767z"/>
    <polyline fill="#FFFFFE" points="23.593 49.527 23.593 43.577 21.303 43.577 21.303 42.727 26.893 42.727 26.893 43.577 24.603 43.577 24.603 49.527 23.593 49.527"/>
    <path fill="#FFFFFE" d="M33.383,48.757 C33.823,48.757 34.214,48.645 34.558,48.422 C34.901,48.199 35.169,47.89 35.363,47.497 C35.556,47.103 35.653,46.647 35.653,46.127 C35.653,45.607 35.556,45.15 35.363,44.757 C35.169,44.364 34.901,44.055 34.558,43.832 C34.214,43.608 33.823,43.497 33.383,43.497 C32.943,43.497 32.553,43.608 32.212,43.832 C31.872,44.055 31.606,44.364 31.413,44.757 C31.219,45.15 31.122,45.607 31.122,46.127 C31.122,46.647 31.219,47.103 31.413,47.497 C31.606,47.89 31.872,48.199 32.212,48.422 C32.553,48.645 32.943,48.757 33.383,48.757 Z M33.383,49.637 C32.743,49.637 32.176,49.487 31.683,49.187 C31.189,48.887 30.801,48.473 30.518,47.947 C30.234,47.421 30.093,46.813 30.093,46.127 C30.093,45.44 30.234,44.834 30.518,44.306 C30.801,43.78 31.189,43.367 31.683,43.067 C32.176,42.767 32.743,42.617 33.383,42.617 C34.023,42.617 34.591,42.767 35.087,43.067 C35.584,43.367 35.974,43.78 36.258,44.306 C36.541,44.834 36.683,45.44 36.683,46.127 C36.683,46.813 36.541,47.421 36.258,47.947 C35.974,48.473 35.584,48.887 35.087,49.187 C34.591,49.487 34.023,49.637 33.383,49.637 L33.383,49.637 Z"/>
    <polyline fill="#FFFFFE" points="39.113 49.527 38.103 49.527 38.103 42.727 42.333 42.727 42.333 43.577 39.113 43.577 39.113 45.877 41.843 45.877 41.843 46.727 39.113 46.727 39.113 49.527"/>
    <polyline fill="#FFFFFE" points="47.603 49.527 47.603 43.577 45.313 43.577 45.313 42.727 50.903 42.727 50.903 43.577 48.613 43.577 48.613 49.527 47.603 49.527"/>
    <polyline fill="#FFFFFE" points="52.062 49.527 52.062 42.727 53.073 42.727 53.073 45.637 56.582 45.637 56.582 42.727 57.592 42.727 57.592 49.527 56.582 49.527 56.582 46.507 53.073 46.507 53.073 49.527 52.062 49.527"/>
    <polyline fill="#FFFFFE" points="59.372 49.527 59.372 42.727 63.732 42.727 63.732 43.577 60.382 43.577 60.382 45.677 63.332 45.677 63.332 46.527 60.382 46.527 60.382 48.677 63.812 48.677 63.812 49.527 59.372 49.527"/>
    <path fill="#FFFFFE" d="M70.192 48.757C70.745 48.757 71.181 48.591 71.497 48.257 71.814 47.924 71.972 47.473 71.972 46.907L71.972 42.727 72.982 42.727 72.982 46.917C72.982 47.763 72.734 48.429 72.237 48.912 71.741 49.395 71.059 49.637 70.192 49.637 69.326 49.637 68.645 49.395 68.152 48.912 67.659 48.429 67.412 47.763 67.412 46.917L67.412 42.727 68.422 42.727 68.422 46.907C68.422 47.473 68.58 47.924 68.897 48.257 69.214 48.591 69.645 48.757 70.192 48.757M76.752 49.637C76.239 49.637 75.749 49.547 75.283 49.367 74.816 49.187 74.439 48.947 74.152 48.647L74.722 47.977C74.989 48.223 75.304 48.417 75.667 48.556 76.031 48.697 76.392 48.767 76.752 48.767 77.192 48.767 77.547 48.681 77.817 48.512 78.087 48.342 78.222 48.107 78.222 47.806 78.222 47.534 78.125 47.304 77.932 47.117 77.739 46.93 77.409 46.773 76.942 46.647L76.002 46.397C75.396 46.237 74.954 46.01 74.677 45.717 74.401 45.424 74.262 45.041 74.262 44.567 74.262 44.18 74.366 43.841 74.573 43.547 74.779 43.254 75.064 43.025 75.427 42.862 75.79 42.699 76.202 42.617 76.662 42.617 77.149 42.617 77.606 42.709 78.033 42.892 78.459 43.075 78.835 43.33 79.162 43.657L78.552 44.317C78.265 44.051 77.967 43.845 77.658 43.702 77.347 43.558 77.019 43.487 76.672 43.487 76.252 43.487 75.909 43.575 75.642 43.752 75.375 43.929 75.243 44.174 75.243 44.487 75.243 44.773 75.337 44.997 75.527 45.157 75.717 45.317 76.009 45.45 76.402 45.556L77.452 45.847C78.059 46.013 78.502 46.247 78.783 46.547 79.062 46.847 79.202 47.22 79.202 47.667 79.202 48.06 79.099 48.405 78.892 48.702 78.686 48.999 78.399 49.228 78.033 49.392 77.665 49.555 77.239 49.637 76.752 49.637M81.743 46.967L84.222 46.967 82.982 43.777 81.743 46.967zM85.212 49.527L84.552 47.817 81.412 47.817 80.752 49.527 79.732 49.527 82.452 42.727 83.542 42.727 86.252 49.527 85.212 49.527 85.212 49.527z"/>
    <polyline fill="#FFFFFE" points="90.952 49.527 90.952 43.577 88.662 43.577 88.662 42.727 94.252 42.727 94.252 43.577 91.962 43.577 91.962 49.527 90.952 49.527"/>
    <path fill="#FFFFFE" d="M97.892 48.757C98.332 48.757 98.723 48.645 99.067 48.422 99.41 48.199 99.678 47.89 99.872 47.497 100.065 47.103 100.162 46.647 100.162 46.127 100.162 45.607 100.065 45.15 99.872 44.757 99.678 44.364 99.41 44.055 99.067 43.832 98.723 43.608 98.332 43.497 97.892 43.497 97.452 43.497 97.062 43.608 96.722 43.832 96.382 44.055 96.115 44.364 95.922 44.757 95.728 45.15 95.632 45.607 95.632 46.127 95.632 46.647 95.728 47.103 95.922 47.497 96.115 47.89 96.382 48.199 96.722 48.422 97.062 48.645 97.452 48.757 97.892 48.757zM97.892 49.637C97.252 49.637 96.685 49.487 96.192 49.187 95.699 48.887 95.31 48.473 95.027 47.947 94.743 47.421 94.602 46.813 94.602 46.127 94.602 45.44 94.743 44.834 95.027 44.306 95.31 43.78 95.699 43.367 96.192 43.067 96.685 42.767 97.252 42.617 97.892 42.617 98.532 42.617 99.1 42.767 99.597 43.067 100.093 43.367 100.484 43.78 100.767 44.306 101.05 44.834 101.192 45.44 101.192 46.127 101.192 46.813 101.05 47.421 100.767 47.947 100.484 48.473 100.093 48.887 99.597 49.187 99.1 49.487 98.532 49.637 97.892 49.637L97.892 49.637zM103.622 48.677L105.002 48.677C105.482 48.677 105.894 48.572 106.237 48.362 106.58 48.152 106.844 47.857 107.027 47.477 107.21 47.096 107.302 46.647 107.302 46.127 107.302 45.607 107.21 45.157 107.027 44.777 106.844 44.397 106.58 44.102 106.237 43.892 105.894 43.681 105.482 43.577 105.002 43.577L103.622 43.577 103.622 48.677zM102.612 49.527L102.612 42.727 105.002 42.727C105.668 42.727 106.252 42.869 106.752 43.152 107.252 43.435 107.64 43.832 107.917 44.342 108.194 44.852 108.332 45.447 108.332 46.127 108.332 46.806 108.194 47.402 107.917 47.912 107.64 48.422 107.252 48.818 106.752 49.102 106.252 49.385 105.668 49.527 105.002 49.527L102.612 49.527 102.612 49.527zM110.912 46.967L113.392 46.967 112.152 43.777 110.912 46.967zM114.382 49.527L113.722 47.817 110.582 47.817 109.922 49.527 108.902 49.527 111.622 42.727 112.712 42.727 115.422 49.527 114.382 49.527 114.382 49.527z"/>
    <polyline fill="#FFFFFE" points="118.522 46.827 118.522 49.527 117.512 49.527 117.512 46.827 115.122 42.727 116.312 42.727 118.022 45.867 119.732 42.727 120.902 42.727 118.522 46.827"/>
    <polyline fill="#FFFFFE" points="128.982 49.527 125.352 44.317 125.352 49.527 124.402 49.527 124.402 42.727 125.342 42.727 128.982 47.937 128.982 42.727 129.922 42.727 129.922 49.527 128.982 49.527"/>
    <polyline fill="#FFFFFE" points="131.702 49.527 131.702 42.727 136.062 42.727 136.062 43.577 132.712 43.577 132.712 45.677 135.662 45.677 135.662 46.527 132.712 46.527 132.712 48.677 136.142 48.677 136.142 49.527 131.702 49.527"/>
    <polyline fill="#FFFFFE" points="139.142 49.527 139.142 43.577 136.852 43.577 136.852 42.727 142.442 42.727 142.442 43.577 140.152 43.577 140.152 49.527 139.142 49.527"/>
    <polyline fill="#FFFFFE" points="149.042 49.527 147.452 44.107 145.862 49.527 144.812 49.527 143.002 42.727 144.002 42.727 145.382 48.107 146.972 42.727 147.932 42.727 149.532 48.127 150.922 42.727 151.902 42.727 150.092 49.527 149.042 49.527"/>
    <path fill="#FFFFFE" d="M155.682 48.757C156.121 48.757 156.513 48.645 156.857 48.422 157.2 48.199 157.468 47.89 157.661 47.497 157.855 47.103 157.952 46.647 157.952 46.127 157.952 45.607 157.855 45.15 157.661 44.757 157.468 44.364 157.2 44.055 156.857 43.832 156.513 43.608 156.121 43.497 155.682 43.497 155.242 43.497 154.852 43.608 154.512 43.832 154.172 44.055 153.905 44.364 153.712 44.757 153.518 45.15 153.422 45.607 153.422 46.127 153.422 46.647 153.518 47.103 153.712 47.497 153.905 47.89 154.172 48.199 154.512 48.422 154.852 48.645 155.242 48.757 155.682 48.757zM155.682 49.637C155.041 49.637 154.475 49.487 153.982 49.187 153.488 48.887 153.1 48.473 152.817 47.947 152.534 47.421 152.392 46.813 152.392 46.127 152.392 45.44 152.534 44.834 152.817 44.306 153.1 43.78 153.488 43.367 153.982 43.067 154.475 42.767 155.041 42.617 155.682 42.617 156.322 42.617 156.89 42.767 157.387 43.067 157.883 43.367 158.273 43.78 158.557 44.306 158.84 44.834 158.982 45.44 158.982 46.127 158.982 46.813 158.84 47.421 158.557 47.947 158.273 48.473 157.883 48.887 157.387 49.187 156.89 49.487 156.322 49.637 155.682 49.637L155.682 49.637zM161.291 45.937L162.682 45.937C163.115 45.937 163.46 45.83 163.717 45.617 163.973 45.404 164.102 45.117 164.102 44.757 164.102 44.397 163.973 44.11 163.717 43.897 163.46 43.683 163.115 43.577 162.682 43.577L161.291 43.577 161.291 45.937zM161.291 46.767L161.291 49.527 160.282 49.527 160.282 42.727 162.682 42.727C163.435 42.727 164.032 42.909 164.472 43.272 164.911 43.636 165.132 44.131 165.132 44.757 165.132 45.23 164.998 45.631 164.732 45.957 164.465 46.284 164.098 46.513 163.632 46.647L165.282 49.527 164.132 49.527 162.581 46.767 161.291 46.767 161.291 46.767z"/>
    <polyline fill="#FFFFFE" points="170.621 49.527 167.572 46.097 167.572 49.527 166.561 49.527 166.561 42.727 167.572 42.727 167.572 45.707 170.421 42.727 171.671 42.727 168.641 45.847 171.891 49.527 170.621 49.527"/>
    <path fill="#FFFFFE" d="M11.065 35.61C5.935 35.61 2.365 33.421.355 29.04L7.015 25.846C7.495 26.836 8.02 27.555 8.59 28.006 9.16 28.455 9.88 28.68 10.75 28.68 11.8 28.68 12.602 28.403 13.158 27.847 13.712 27.293 13.99 26.401 13.99 25.171L13.99 4.426 22.36 4.426 22.36 24.945C22.36 27.166 21.895 29.07 20.965 30.66 20.035 32.251 18.722 33.472 17.028 34.328 15.332 35.182 13.345 35.61 11.065 35.61M38.925 29.4C40.304 29.4 41.407 28.868 42.232 27.803 43.057 26.738 43.47 25.321 43.47 23.551 43.47 21.78 43.057 20.371 42.232 19.32 41.407 18.27 40.304 17.745 38.925 17.745 37.544 17.745 36.442 18.27 35.617 19.32 34.791 20.371 34.379 21.78 34.379 23.551 34.379 25.321 34.791 26.738 35.617 27.803 36.442 28.868 37.544 29.4 38.925 29.4zM38.925 35.61C36.464 35.61 34.296 35.092 32.422 34.057 30.547 33.023 29.077 31.605 28.012 29.805 26.947 28.006 26.414 25.921 26.414 23.551 26.414 21.18 26.947 19.096 28.012 17.296 29.077 15.495 30.547 14.086 32.422 13.065 34.296 12.046 36.464 11.535 38.925 11.535 41.384 11.535 43.552 12.046 45.427 13.065 47.302 14.086 48.772 15.495 49.837 17.296 50.901 19.096 51.434 21.18 51.434 23.551 51.434 25.921 50.901 28.006 49.837 29.805 48.772 31.605 47.302 33.023 45.427 34.057 43.552 35.092 41.384 35.61 38.925 35.61L38.925 35.61zM70.469 35.025L70.064 32.011C69.314 33.121 68.332 33.998 67.117 34.642 65.902 35.288 64.589 35.61 63.179 35.61 60.509 35.61 58.469 34.823 57.059 33.248 55.649 31.673 54.944 29.4 54.944 26.43L54.944 12.12 62.774 12.12 62.774 25.53C62.774 28.02 63.914 29.265 66.194 29.265 68.594 29.265 69.794 27.765 69.794 24.765L69.794 12.12 77.624 12.12 77.624 35.025 70.469 35.025M90.602 26.16L90.602 35.025 82.772 35.025 82.772 12.12 89.927 12.12 90.422 15.945C90.901 14.716 91.689 13.717 92.785 12.953 93.879 12.188 95.147 11.805 96.587 11.805 97.397 11.805 98.012 11.911 98.432 12.12L98.432 19.275C98.101 19.156 97.734 19.066 97.329 19.006 96.924 18.945 96.467 18.915 95.957 18.915 94.397 18.915 93.114 19.493 92.109 20.648 91.104 21.804 90.602 23.64 90.602 26.16M109.304 22.381L109.304 35.025 101.473 35.025 101.473 12.12 108.628 12.12 109.034 15.136C109.783 14.055 110.758 13.185 111.958 12.525 113.158 11.866 114.478 11.535 115.918 11.535 118.408 11.535 120.403 12.346 121.904 13.966 123.403 15.586 124.154 17.911 124.154 20.94L124.154 35.025 116.324 35.025 116.324 21.841C116.324 20.49 116.023 19.493 115.424 18.847 114.823 18.203 113.983 17.881 112.904 17.881 111.824 17.881 110.953 18.225 110.293 18.915 109.633 19.606 109.304 20.761 109.304 22.381M135.25 27.6C135.25 28.291 135.505 28.853 136.015 29.288 136.525 29.723 137.185 29.94 137.995 29.94 139.075 29.94 139.982 29.573 140.718 28.838 141.452 28.103 141.82 27.18 141.82 26.07L141.82 25.305C141.01 25.155 140.155 25.08 139.255 25.08 138.115 25.08 137.162 25.276 136.398 25.665 135.633 26.055 135.25 26.7 135.25 27.6zM142.135 35.025L141.73 32.011C140.23 34.411 137.95 35.61 134.89 35.61 133.54 35.61 132.317 35.318 131.223 34.733 130.127 34.148 129.257 33.345 128.613 32.325 127.967 31.305 127.645 30.12 127.645 28.77 127.645 26.221 128.642 24.241 130.638 22.83 132.632 21.421 135.265 20.716 138.535 20.716 139.555 20.716 140.635 20.805 141.775 20.985 141.655 19.846 141.167 18.983 140.312 18.398 139.457 17.813 138.415 17.52 137.185 17.52 136.105 17.52 135.017 17.722 133.923 18.128 132.827 18.533 131.785 19.02 130.795 19.591L128.14 14.551C129.64 13.591 131.26 12.848 133 12.323 134.74 11.799 136.48 11.535 138.22 11.535 140.32 11.535 142.21 11.895 143.89 12.615 145.57 13.336 146.889 14.43 147.85 15.9 148.81 17.371 149.29 19.23 149.29 21.48L149.29 35.025 142.135 35.025 142.135 35.025z"/>
    <polygon fill="#FFFFFE" points="154.168 35.026 161.998 35.026 161.998 2.176 154.168 2.176"/>
    <path fill="#FFFFFE" d="M178.872 17.644C178.872 18.027 178.991 18.427 179.227 18.843 179.463 19.259 179.885 19.815 180.492 20.513L181.134 20.31C181.808 20.086 182.343 19.736 182.737 19.264 183.13 18.792 183.327 18.252 183.327 17.644 183.327 17.014 183.119 16.503 182.703 16.108 182.286 15.715 181.752 15.517 181.1 15.517 180.47 15.517 179.941 15.721 179.514 16.126 179.086 16.53 178.872 17.037 178.872 17.644zM176.814 28.242C176.814 29.141 177.19 29.867 177.944 30.419 178.698 30.971 179.704 31.245 180.965 31.245 181.932 31.245 182.821 31.065 183.631 30.705L178.535 25.373C177.388 25.98 176.814 26.937 176.814 28.242zM187.783 35.025L186.635 33.845C184.902 34.856 182.866 35.363 180.526 35.363 178.748 35.363 177.19 35.081 175.852 34.519 174.513 33.957 173.473 33.164 172.73 32.139 171.988 31.116 171.616 29.918 171.616 28.546 171.616 27.195 171.971 25.975 172.68 24.884 173.388 23.793 174.372 22.921 175.633 22.267 174.957 21.435 174.462 20.654 174.147 19.923 173.832 19.191 173.675 18.431 173.675 17.644 173.675 16.452 173.995 15.388 174.637 14.455 175.278 13.521 176.156 12.784 177.269 12.244 178.383 11.704 179.66 11.434 181.1 11.434 182.539 11.434 183.817 11.704 184.931 12.244 186.044 12.784 186.922 13.521 187.563 14.455 188.204 15.388 188.525 16.452 188.525 17.644 188.525 19.016 188.08 20.209 187.192 21.222 186.303 22.234 185.037 23.033 183.395 23.618L186.905 27.364C187.445 26.284 187.793 25.024 187.952 23.584L192.203 24.158C191.888 26.722 191.158 28.883 190.01 30.638L194.094 35.025 187.783 35.025 187.783 35.025zM215.176 35.61C212.056 35.61 209.319 34.935 206.963 33.586 204.608 32.235 202.763 30.368 201.429 27.983 200.093 25.597 199.426 22.83 199.426 19.68 199.426 16.53 200.093 13.77 201.429 11.4 202.763 9.031 204.608 7.179 206.963 5.842 209.319 4.509 212.056 3.841 215.176 3.841 217.816 3.841 220.194 4.373 222.309 5.438 224.423 6.503 226.231 8.041 227.731 10.051L221.117 13.966C220.335 12.975 219.458 12.195 218.484 11.626 217.508 11.055 216.375 10.77 215.086 10.77 212.955 10.77 211.231 11.573 209.911 13.178 208.59 14.783 207.931 16.951 207.931 19.68 207.931 22.411 208.59 24.593 209.911 26.227 211.231 27.863 212.955 28.68 215.086 28.68 216.406 28.68 217.576 28.358 218.596 27.713 219.616 27.068 220.471 26.31 221.161 25.44L227.731 29.355C226.261 31.395 224.453 32.948 222.309 34.013 220.163 35.077 217.786 35.61 215.176 35.61M242.023 29.4C243.403 29.4 244.505 28.868 245.33 27.803 246.156 26.738 246.568 25.321 246.568 23.551 246.568 21.78 246.156 20.371 245.33 19.32 244.505 18.27 243.403 17.745 242.023 17.745 240.643 17.745 239.54 18.27 238.715 19.32 237.89 20.371 237.478 21.78 237.478 23.551 237.478 25.321 237.89 26.738 238.715 27.803 239.54 28.868 240.643 29.4 242.023 29.4zM242.023 35.61C239.563 35.61 237.395 35.092 235.521 34.057 233.645 33.023 232.175 31.605 231.111 29.805 230.045 28.006 229.513 25.921 229.513 23.551 229.513 21.18 230.045 19.096 231.111 17.296 232.175 15.495 233.645 14.086 235.521 13.065 237.395 12.046 239.563 11.535 242.023 11.535 244.483 11.535 246.651 12.046 248.526 13.065 250.4 14.086 251.87 15.495 252.936 17.296 254 19.096 254.534 21.18 254.534 23.551 254.534 25.921 254 28.006 252.936 29.805 251.87 31.605 250.4 33.023 248.526 34.057 246.651 35.092 244.483 35.61 242.023 35.61L242.023 35.61zM273.568 35.025L273.162 32.011C272.412 33.121 271.43 33.998 270.215 34.642 269 35.288 267.688 35.61 266.278 35.61 263.608 35.61 261.568 34.823 260.158 33.248 258.747 31.673 258.043 29.4 258.043 26.43L258.043 12.12 265.872 12.12 265.872 25.53C265.872 28.02 267.013 29.265 269.293 29.265 271.693 29.265 272.893 27.765 272.893 24.765L272.893 12.12 280.723 12.12 280.723 35.025 273.568 35.025M293.701 26.16L293.701 35.025 285.87 35.025 285.87 12.12 293.025 12.12 293.52 15.945C293.999 14.716 294.787 13.717 295.883 12.953 296.978 12.188 298.245 11.805 299.685 11.805 300.495 11.805 301.11 11.911 301.531 12.12L301.531 19.275C301.2 19.156 300.832 19.066 300.428 19.006 300.023 18.945 299.565 18.915 299.055 18.915 297.495 18.915 296.212 19.493 295.207 20.648 294.202 21.804 293.701 23.64 293.701 26.16M304.572 35.025L304.572 12.12C305.831 12.39 307.107 12.525 308.397 12.525 309.716 12.525 311.052 12.39 312.402 12.12L312.402 35.025 304.572 35.025M328.525 17.205C325.975 17.205 324.445 18.555 323.935 21.256L332.665 21.256C332.454 19.786 331.952 18.743 331.158 18.128 330.363 17.513 329.485 17.205 328.525 17.205zM339.235 32.685C338.094 33.495 336.648 34.185 334.893 34.756 333.137 35.325 331.27 35.61 329.29 35.61 326.56 35.61 324.228 35.107 322.292 34.102 320.358 33.098 318.872 31.695 317.837 29.895 316.802 28.096 316.285 26.025 316.285 23.685 316.285 21.316 316.795 19.216 317.815 17.386 318.834 15.555 320.245 14.123 322.045 13.088 323.845 12.053 325.945 11.535 328.345 11.535 330.685 11.535 332.747 12.038 334.533 13.043 336.317 14.049 337.712 15.443 338.717 17.227 339.722 19.013 340.225 21.105 340.225 23.506 340.225 23.836 340.202 24.18 340.158 24.54 340.113 24.9 340.06 25.276 340 25.665L324.025 25.665C324.745 28.305 326.709 29.626 329.92 29.626 331.36 29.626 332.635 29.4 333.745 28.95 334.855 28.501 335.785 28.051 336.535 27.6L339.235 32.685 339.235 32.685zM351.898 26.16L351.898 35.025 344.068 35.025 344.068 12.12 351.223 12.12 351.718 15.945C352.198 14.716 352.985 13.717 354.08 12.953 355.175 12.188 356.443 11.805 357.883 11.805 358.693 11.805 359.308 11.911 359.728 12.12L359.728 19.275C359.398 19.156 359.031 19.066 358.625 19.006 358.22 18.945 357.763 18.915 357.253 18.915 355.693 18.915 354.41 19.493 353.406 20.648 352.4 21.804 351.898 23.64 351.898 26.16"/>
    <path class='no-color-change' fill="#009BFF" d="M308.397,10.32 C307.107,10.32 306.004,9.863 305.089,8.948 C304.174,8.033 303.717,6.93 303.717,5.64 C303.717,4.35 304.174,3.248 305.089,2.333 C306.004,1.418 307.107,0.961 308.397,0.961 C309.687,0.961 310.788,1.418 311.704,2.333 C312.619,3.248 313.077,4.35 313.077,5.64 C313.077,6.93 312.619,8.033 311.704,8.948 C310.788,9.863 309.687,10.32 308.397,10.32"/>
  </g>
</svg>
