<svg id="Lafayette_IN" data-name="Lafayette IN" xmlns="http://www.w3.org/2000/svg" xmlns:xlink="http://www.w3.org/1999/xlink" width="726" height="160" viewBox="0 0 726 160">
  <defs>
    <style>
      @font-face {
        font-family: 'Futura Today';
        src: url('../../fonts/FuturaToday/FuturaTodayNormal.otf');
        font-weight: normal;
      }

      .cls-1 {
        font-size: 6.255px;
        font-family: 'Futura Today';
      }

      .cls-1, .cls-2 {
        fill: #000;
      }

      .cls-2, .cls-3 {
        fill-rule: evenodd;
      }

      .cls-3 {
        fill: #fff;
        filter: url(#filter);
      }
    </style>
    <filter id="filter" x="0" y="118.969" width="367.969" height="16" filterUnits="userSpaceOnUse">
      <feFlood result="flood" flood-color="#999"/>
      <feComposite result="composite" operator="in" in2="SourceGraphic"/>
      <feBlend result="blend" in2="SourceGraphic"/>
    </filter>
  </defs>
  <text id="Lafayette_Journal_Courier" data-name="Lafayette Journal&amp;Courier" class="cls-1" transform="translate(435.348 62.719) scale(2.963)">Lafayette<tspan x="0" dy="7.506">Journal&amp;Courier</tspan></text>
  <path id="JConline_pixel_hinted_2x" data-name="JConline pixel hinted 2x" class="cls-2" d="M19.788,102.81c13.532,0,22.123-8.162,22.123-20.942V25.915H25.587v53.7c0,5.155-2.04,8.914-7.84,8.914-4.188,0-6.981-2.255-9.021-5.262l-8.914,10.2C3.356,98.944,10.659,102.81,19.788,102.81Zm71.956,0c9.129,0,16.432-2.363,20.62-5.263V81.868c-4.4,4.3-11.491,6.551-19.546,6.551-14.391,0-24.056-9.773-24.056-24.808S78.534,38.8,92.818,38.8c8.055,0,14.391,2.578,18.687,6.336V29.352c-4.188-2.792-10.739-4.94-19.761-4.94-23.627,0-39.736,16.324-39.736,39.2C52.008,86.593,67.9,102.81,91.744,102.81ZM152.1,102.6c19.761,0,29.534-14.606,29.534-27.815S171.862,46.965,152.1,46.965,122.568,61.57,122.568,74.78,132.341,102.6,152.1,102.6Zm0-12.995c-7.839,0-14.068-5.8-14.068-14.82s6.229-14.821,14.068-14.821,14.069,5.8,14.069,14.821S159.941,89.6,152.1,89.6ZM188.012,101l15.478,0,0.055-28.481c0-7.625,3.437-13.1,11.384-13.1s10.095,5.584,10.095,12.995L225,101l15.58-.015-0.091-30.931c0-14.069-6.551-23.09-20.62-23.09-8.806,0-13.746,3.759-17.075,8.484h-0.215v-7.2H187.973Zm61.983-.03,15.886,0.048L266,26H250Zm32.488-58.412c5.263,0,9.344-3.759,9.344-8.806s-4.081-8.806-9.344-8.806c-5.155,0-9.236,3.759-9.236,8.806S277.328,42.561,282.483,42.561ZM275,101h15V48H275v53Zm26,0h16l-0.042-28.476c0-7.625,3.437-13.1,11.384-13.1s10.1,5.584,10.1,12.995l0.081,28.59L354,101l-0.1-30.946c0-14.069-6.551-23.09-20.62-23.09-8.806,0-13.747,3.759-17.076,8.484h-0.215L316,48H301v53Zm89.847,1.595c11.277,0,19.331-4.081,23.735-9.988L405.99,83.8c-2.685,3.759-7.3,6.766-14.391,6.766-7.732,0-14.82-3.974-15.572-12.35h40.6a20.791,20.791,0,0,0,.322-3.866c0-11.921-6.98-27.386-27.922-27.386s-28.46,15.465-28.46,27.815C360.562,88.526,370.013,102.6,390.847,102.6Zm-14.82-33.507c1.5-7.3,6.766-10.847,13-10.847s11.384,3.544,12.887,10.847H376.027Z"/>
  <path id="USAT_Network" data-name="USAT Network" class="cls-3" d="M-0.011,119.273H4.478c3.156,0,5.268,1.865,5.268,4.741s-2.155,4.735-5.268,4.735H2.188v5.925h-2.2v-15.4Zm4.267,7.659c2.112,0,3.244-1.163,3.244-2.918,0-1.736-1.132-2.919-3.244-2.919H2.188v5.837H4.256Zm11.768-7.659H17.98l6.4,15.4H22.022l-1.6-4.035H13.513l-1.6,4.035H9.6S15.244,121.162,16.024,119.273Zm3.665,9.544L18.2,125.023c-0.221-.572-1.179-2.942-1.2-3.139H16.957c-0.022.2-.955,2.5-1.2,3.139l-1.51,3.794h5.443Zm6.924-9.544h4.51c2.91,0,5.178,1.5,5.178,4.563a4.293,4.293,0,0,1-3.955,4.346l4.778,6.492H34.545l-4.51-6.276H28.812v6.276h-2.2v-15.4Zm4.267,7.351c2.043,0,3.2-1.077,3.2-2.764s-1.157-2.765-3.2-2.765H28.812v5.529H30.88ZM42.4,121.138H37.957v-1.865H49.046v1.865H44.6v13.536H42.4V121.138Zm12.348,5.838a7.862,7.862,0,0,1,8.2-8.006,8.008,8.008,0,1,1,0,16.011A7.861,7.861,0,0,1,54.75,126.976Zm14.133,0a5.946,5.946,0,1,0-5.955,6.053A5.773,5.773,0,0,0,68.882,126.976Zm5.433-7.7h7.867v1.865H76.514V126.1H82v1.865H76.514v6.713h-2.2v-15.4Zm17.815,1.865H87.686v-1.865H98.774v1.865H94.33v13.536h-2.2V121.138Zm8.953-1.865h2.2v6.318h8.178v-6.318h2.2v15.4h-2.2v-7.218h-8.178v7.218h-2.2v-15.4Zm16.631,0h8.49v1.846h-6.29v4.472h6.11v1.846h-6.11v5.395h6.422v1.842h-8.622v-15.4Zm16,10.092V119.273h2.221v9.433c0,2.679,1.157,4.323,3.756,4.323,2.622,0,3.78-1.644,3.78-4.323v-9.433h2.221v10.092c0,3.38-2.2,5.616-6,5.616C135.865,134.981,133.71,132.745,133.71,129.365Zm14.274,2.524,1.491-1.25a4.52,4.52,0,0,0,3.911,2.433c1.709,0,3.044-.918,3.044-2.611,0-1.817-1.534-2.433-3.446-3.178-1.956-.769-3.933-1.736-3.933-4.193,0-2.432,1.912-4.12,4.712-4.12a5.249,5.249,0,0,1,4.579,2.322l-1.491,1.25a3.552,3.552,0,0,0-3.088-1.668c-1.512,0-2.511.769-2.511,2.063,0,1.6,1.554,2.13,2.911,2.654,2.2,0.856,4.466,1.889,4.466,4.716,0,2.679-2,4.674-5.2,4.674A6.064,6.064,0,0,1,147.984,131.889Zm18.241-12.616h1.956l6.4,15.4h-2.357l-1.6-4.035h-6.912l-1.6,4.035H159.8S165.446,121.162,166.225,119.273Zm3.665,9.544-1.487-3.794c-0.222-.572-1.179-2.942-1.2-3.139h-0.044c-0.022.2-.955,2.5-1.2,3.139l-1.51,3.794h5.443Zm13.978-7.679h-4.445v-1.865h11.088v1.865h-4.444v13.536h-2.2V121.138Zm7.469,5.838a8.2,8.2,0,1,1,8.2,8A7.861,7.861,0,0,1,191.337,126.976Zm14.132,0a5.945,5.945,0,1,0-5.954,6.053A5.772,5.772,0,0,0,205.469,126.976Zm5.434-7.7h4.423c4.977,0,8.265,2.808,8.265,7.7,0,4.87-3.312,7.7-8.265,7.7H210.9v-15.4Zm2.2,13.534h2.046c3.643,0,6.176-1.9,6.176-5.831s-2.533-5.838-6.176-5.838H213.1v11.669Zm17.637-13.534H232.7l6.4,15.4h-2.357l-1.6-4.035h-6.912l-1.6,4.035h-2.311S229.96,121.162,230.739,119.273Zm3.666,9.544-1.489-3.794c-0.221-.572-1.178-2.942-1.2-3.139h-0.044c-0.022.2-.955,2.5-1.2,3.139l-1.51,3.794h5.444Zm9.084-.419-5.312-9.125h2.467l2.889,5.135a22.887,22.887,0,0,1,1.11,2.192h0.022a23.153,23.153,0,0,1,1.113-2.192l2.91-5.135h2.4l-5.309,9.125v6.276h-2.289V128.4Zm14.062-9.125h1.687l8.846,9.982c0.266,0.288,1.422,1.711,1.534,1.932l0.044-.023c-0.044-.217-0.044-2-0.044-2.39v-9.5h2.134v15.4h-1.713l-8.845-9.983c-0.265-.283-1.422-1.711-1.532-1.928l-0.021.02c0.021,0.221.043,2,.043,2.394v9.5h-2.133v-15.4Zm18.253,0h8.487v1.846H278v4.472h6.113v1.846H278v5.395h6.422v1.842H275.8v-15.4Zm15.37,1.865h-4.445v-1.865h11.089v1.865h-4.445v13.536h-2.2V121.138Zm8.477-1.865h2.334l3.2,9.15c0.112,0.351.867,2.63,0.889,2.981h0.046a30.445,30.445,0,0,1,.933-2.981l3.334-9.15h1.756l3.332,9.15c0.133,0.351.91,2.63,0.935,2.981h0.044c0.044-.351.8-2.63,0.91-2.981l3.179-9.15h2.243l-5.49,15.4h-1.688l-3.6-9.607a25.578,25.578,0,0,1-.758-2.5h-0.044a25.421,25.421,0,0,1-.776,2.5l-3.578,9.607h-1.69Zm24.119,7.7a8.2,8.2,0,1,1,8.2,8A7.861,7.861,0,0,1,323.77,126.976Zm14.132,0a5.945,5.945,0,1,0-5.955,6.053A5.772,5.772,0,0,0,337.9,126.976Zm5.433-7.7h4.511c2.913,0,5.178,1.5,5.178,4.563a4.294,4.294,0,0,1-3.956,4.346l4.779,6.492h-2.579l-4.511-6.276h-1.222v6.276h-2.2v-15.4Zm4.267,7.351c2.044,0,3.2-1.077,3.2-2.764s-1.156-2.765-3.2-2.765h-2.067v5.529H347.6Zm8.736-7.351h2.2v7.154l6.444-7.154h2.666l-6.687,7.351,7,8.05h-2.754l-6.668-7.785v7.785h-2.2v-15.4Z"/>
</svg>
