<svg xmlns="http://www.w3.org/2000/svg" width="542" height="46" viewBox="0 0 542 46">
  <g fill="none" fill-rule="evenodd">
    <path fill="#404040" d="M1.218 42.574L2.377 42.574C2.758 42.574 3.059 42.48 3.281 42.292 3.502 42.105 3.613 41.849 3.613 41.525 3.613 41.201 3.502 40.946 3.281 40.758 3.059 40.57 2.758 40.476 2.377 40.476L1.218 40.476 1.218 42.574zM.357 45.549L.357 39.752 2.377 39.752C3.025 39.752 3.539 39.911 3.92 40.229 4.301 40.548 4.491 40.98 4.491 41.525 4.491 42.065 4.301 42.492 3.92 42.808 3.539 43.124 3.025 43.281 2.377 43.281L1.218 43.281 1.218 45.549.357 45.549zM6.23 43.367L8.344 43.367 7.287 40.647 6.23 43.367zM9.188 45.549L8.625 44.091 5.949 44.091 5.386 45.549 4.517 45.549 6.835 39.752 7.765 39.752 10.075 45.549 9.188 45.549zM11.899 42.488L13.083 42.488C13.453 42.488 13.747 42.398 13.966 42.215 14.185 42.034 14.294 41.789 14.294 41.482 14.294 41.175 14.185 40.931 13.966 40.749 13.747 40.568 13.453 40.476 13.083 40.476L11.899 40.476 11.899 42.488zM11.899 43.196L11.899 45.549 11.038 45.549 11.038 39.752 13.083 39.752C13.726 39.752 14.234 39.907 14.609 40.217 14.984 40.527 15.172 40.948 15.172 41.482 15.172 41.886 15.058 42.227 14.831 42.505 14.604 42.784 14.291 42.98 13.893 43.094L15.3 45.549 14.32 45.549 12.998 43.196 11.899 43.196z"/>
    <polyline fill="#404040" points="17.644 45.549 17.644 40.476 15.692 40.476 15.692 39.752 20.457 39.752 20.457 40.476 18.505 40.476 18.505 45.549 17.644 45.549"/>
    <path fill="#404040" d="M25.989,44.892 C26.364,44.892 26.698,44.797 26.991,44.606 C27.284,44.416 27.512,44.153 27.677,43.818 C27.842,43.483 27.924,43.094 27.924,42.65 C27.924,42.207 27.842,41.818 27.677,41.482 C27.512,41.147 27.284,40.884 26.991,40.694 C26.698,40.504 26.364,40.408 25.989,40.408 C25.614,40.408 25.282,40.504 24.992,40.694 C24.702,40.884 24.475,41.147 24.31,41.482 C24.145,41.818 24.063,42.207 24.063,42.65 C24.063,43.094 24.145,43.483 24.31,43.818 C24.475,44.153 24.702,44.416 24.992,44.606 C25.282,44.797 25.614,44.892 25.989,44.892 Z M25.989,45.642 C25.444,45.642 24.961,45.515 24.54,45.259 C24.119,45.003 23.788,44.651 23.547,44.202 C23.306,43.753 23.185,43.236 23.185,42.65 C23.185,42.065 23.306,41.548 23.547,41.099 C23.788,40.65 24.119,40.298 24.54,40.042 C24.961,39.786 25.444,39.658 25.989,39.658 C26.535,39.658 27.019,39.786 27.443,40.042 C27.866,40.298 28.198,40.65 28.44,41.099 C28.682,41.548 28.802,42.065 28.802,42.65 C28.802,43.236 28.682,43.753 28.44,44.202 C28.198,44.651 27.866,45.003 27.443,45.259 C27.019,45.515 26.535,45.642 25.989,45.642 Z"/>
    <polyline fill="#404040" points="30.874 45.549 30.013 45.549 30.013 39.752 33.619 39.752 33.619 40.476 30.874 40.476 30.874 42.437 33.201 42.437 33.201 43.162 30.874 43.162 30.874 45.549"/>
    <polyline fill="#404040" points="38.111 45.549 38.111 40.476 36.159 40.476 36.159 39.752 40.924 39.752 40.924 40.476 38.972 40.476 38.972 45.549 38.111 45.549"/>
    <polyline fill="#404040" points="41.913 45.549 41.913 39.752 42.773 39.752 42.773 42.233 45.766 42.233 45.766 39.752 46.626 39.752 46.626 45.549 45.766 45.549 45.766 42.974 42.773 42.974 42.773 45.549 41.913 45.549"/>
    <polyline fill="#404040" points="48.144 45.549 48.144 39.752 51.86 39.752 51.86 40.476 49.005 40.476 49.005 42.267 51.519 42.267 51.519 42.991 49.005 42.991 49.005 44.824 51.928 44.824 51.928 45.549 48.144 45.549"/>
    <path fill="#404040" d="M57.367 44.892C57.839 44.892 58.209 44.75 58.479 44.466 58.749 44.182 58.884 43.798 58.884 43.315L58.884 39.752 59.745 39.752 59.745 43.323C59.745 44.045 59.533 44.613 59.11 45.024 58.686 45.436 58.105 45.642 57.367 45.642 56.628 45.642 56.048 45.436 55.628 45.024 55.207 44.613 54.997 44.045 54.997 43.323L54.997 39.752 55.858 39.752 55.858 43.315C55.858 43.798 55.993 44.182 56.263 44.466 56.533 44.75 56.901 44.892 57.367 44.892M62.959 45.642C62.521 45.642 62.104 45.566 61.706 45.412 61.308 45.259 60.987 45.054 60.743 44.798L61.228 44.227C61.456 44.438 61.724 44.602 62.034 44.722 62.344 44.841 62.652 44.901 62.959 44.901 63.334 44.901 63.637 44.828 63.867 44.684 64.097 44.538 64.212 44.338 64.212 44.082 64.212 43.85 64.13 43.653 63.965 43.494 63.8 43.335 63.519 43.202 63.121 43.094L62.32 42.881C61.802 42.744 61.426 42.551 61.19 42.301 60.954 42.051 60.836 41.724 60.836 41.32 60.836 40.991 60.924 40.701 61.1 40.451 61.277 40.201 61.52 40.007 61.83 39.867 62.139 39.728 62.49 39.658 62.882 39.658 63.297 39.658 63.686 39.736 64.05 39.892 64.414 40.049 64.735 40.266 65.013 40.545L64.493 41.108C64.249 40.88 63.995 40.705 63.73 40.583 63.466 40.461 63.186 40.4 62.891 40.4 62.533 40.4 62.24 40.475 62.013 40.626 61.785 40.776 61.672 40.985 61.672 41.252 61.672 41.497 61.753 41.687 61.915 41.823 62.077 41.96 62.325 42.073 62.661 42.164L63.556 42.412C64.073 42.554 64.451 42.753 64.689 43.008 64.928 43.264 65.048 43.582 65.048 43.963 65.048 44.299 64.959 44.592 64.783 44.845 64.607 45.098 64.363 45.294 64.05 45.433 63.737 45.573 63.374 45.642 62.959 45.642M67.212 43.367L69.326 43.367 68.269 40.647 67.212 43.367zM70.17 45.549L69.608 44.091 66.931 44.091 66.369 45.549 65.499 45.549 67.818 39.752 68.747 39.752 71.057 45.549 70.17 45.549z"/>
    <polyline fill="#404040" points="75.063 45.549 75.063 40.476 73.111 40.476 73.111 39.752 77.876 39.752 77.876 40.476 75.924 40.476 75.924 45.549 75.063 45.549"/>
    <path fill="#404040" d="M80.979 44.892C81.354 44.892 81.688 44.797 81.981 44.606 82.273 44.416 82.502 44.153 82.667 43.818 82.832 43.483 82.914 43.094 82.914 42.65 82.914 42.207 82.832 41.818 82.667 41.482 82.502 41.147 82.273 40.884 81.981 40.694 81.688 40.504 81.354 40.408 80.979 40.408 80.604 40.408 80.272 40.504 79.982 40.694 79.692 40.884 79.465 41.147 79.3 41.482 79.135 41.818 79.052 42.207 79.052 42.65 79.052 43.094 79.135 43.483 79.3 43.818 79.465 44.153 79.692 44.416 79.982 44.606 80.272 44.797 80.604 44.892 80.979 44.892zM80.979 45.642C80.434 45.642 79.95 45.515 79.53 45.259 79.109 45.003 78.778 44.651 78.537 44.202 78.295 43.753 78.175 43.236 78.175 42.65 78.175 42.065 78.295 41.548 78.537 41.099 78.778 40.65 79.109 40.298 79.53 40.042 79.95 39.786 80.434 39.658 80.979 39.658 81.525 39.658 82.009 39.786 82.432 40.042 82.856 40.298 83.188 40.65 83.43 41.099 83.671 41.548 83.792 42.065 83.792 42.65 83.792 43.236 83.671 43.753 83.43 44.202 83.188 44.651 82.856 45.003 82.432 45.259 82.009 45.515 81.525 45.642 80.979 45.642zM85.863 44.824L87.04 44.824C87.449 44.824 87.8 44.734 88.093 44.555 88.385 44.377 88.61 44.125 88.766 43.801 88.922 43.477 89 43.094 89 42.65 89 42.207 88.922 41.823 88.766 41.5 88.61 41.175 88.385 40.924 88.093 40.745 87.8 40.566 87.449 40.476 87.04 40.476L85.863 40.476 85.863 44.824zM85.002 45.549L85.002 39.752 87.04 39.752C87.608 39.752 88.105 39.873 88.532 40.114 88.958 40.356 89.289 40.694 89.525 41.129 89.76 41.564 89.878 42.07 89.878 42.65 89.878 43.23 89.76 43.737 89.525 44.172 89.289 44.606 88.958 44.945 88.532 45.186 88.105 45.428 87.608 45.549 87.04 45.549L85.002 45.549zM92.078 43.367L94.192 43.367 93.135 40.647 92.078 43.367zM95.035 45.549L94.473 44.091 91.796 44.091 91.234 45.549 90.364 45.549 92.683 39.752 93.612 39.752 95.922 45.549 95.035 45.549z"/>
    <polyline fill="#404040" points="98.565 43.247 98.565 45.549 97.704 45.549 97.704 43.247 95.667 39.752 96.681 39.752 98.138 42.429 99.596 39.752 100.594 39.752 98.565 43.247"/>
    <polyline fill="#404040" points="107.481 45.549 104.387 41.108 104.387 45.549 103.577 45.549 103.577 39.752 104.378 39.752 107.481 44.193 107.481 39.752 108.282 39.752 108.282 45.549 107.481 45.549"/>
    <polyline fill="#404040" points="109.8 45.549 109.8 39.752 113.516 39.752 113.516 40.476 110.661 40.476 110.661 42.267 113.175 42.267 113.175 42.991 110.661 42.991 110.661 44.824 113.584 44.824 113.584 45.549 109.8 45.549"/>
    <polyline fill="#404040" points="116.142 45.549 116.142 40.476 114.189 40.476 114.189 39.752 118.955 39.752 118.955 40.476 117.003 40.476 117.003 45.549 116.142 45.549"/>
    <polyline fill="#404040" points="124.581 45.549 123.225 40.928 121.87 45.549 120.975 45.549 119.432 39.752 120.284 39.752 121.461 44.338 122.816 39.752 123.634 39.752 124.998 44.355 126.183 39.752 127.018 39.752 125.476 45.549 124.581 45.549"/>
    <path fill="#404040" d="M130.437 44.892C130.812 44.892 131.146 44.797 131.438 44.606 131.731 44.416 131.96 44.153 132.125 43.818 132.289 43.483 132.372 43.094 132.372 42.65 132.372 42.207 132.289 41.818 132.125 41.482 131.96 41.147 131.731 40.884 131.438 40.694 131.146 40.504 130.812 40.408 130.437 40.408 130.062 40.408 129.729 40.504 129.439 40.694 129.15 40.884 128.922 41.147 128.758 41.482 128.593 41.818 128.51 42.207 128.51 42.65 128.51 43.094 128.593 43.483 128.758 43.818 128.922 44.153 129.15 44.416 129.439 44.606 129.729 44.797 130.062 44.892 130.437 44.892zM130.437 45.642C129.891 45.642 129.408 45.515 128.988 45.259 128.567 45.003 128.236 44.651 127.995 44.202 127.753 43.753 127.632 43.236 127.632 42.65 127.632 42.065 127.753 41.548 127.995 41.099 128.236 40.65 128.567 40.298 128.988 40.042 129.408 39.786 129.891 39.658 130.437 39.658 130.982 39.658 131.467 39.786 131.89 40.042 132.314 40.298 132.646 40.65 132.888 41.099 133.129 41.548 133.25 42.065 133.25 42.65 133.25 43.236 133.129 43.753 132.888 44.202 132.646 44.651 132.314 45.003 131.89 45.259 131.467 45.515 130.982 45.642 130.437 45.642zM135.321 42.488L136.506 42.488C136.875 42.488 137.17 42.398 137.388 42.215 137.607 42.034 137.716 41.789 137.716 41.482 137.716 41.175 137.607 40.931 137.388 40.749 137.17 40.568 136.875 40.476 136.506 40.476L135.321 40.476 135.321 42.488zM135.321 43.196L135.321 45.549 134.46 45.549 134.46 39.752 136.506 39.752C137.148 39.752 137.657 39.907 138.032 40.217 138.407 40.527 138.595 40.948 138.595 41.482 138.595 41.886 138.481 42.227 138.253 42.505 138.026 42.784 137.714 42.98 137.316 43.094L138.722 45.549 137.742 45.549 136.421 43.196 135.321 43.196z"/>
    <polyline fill="#404040" points="143.274 45.549 140.674 42.625 140.674 45.549 139.813 45.549 139.813 39.752 140.674 39.752 140.674 42.292 143.104 39.752 144.169 39.752 141.587 42.412 144.357 45.549 143.274 45.549"/>
    <polyline fill="#009BFF" class='no-color-change' points="8.727 26.339 21.462 26.339 21.462 33.089 .357 33.089 .357 2.489 8.727 2.489 8.727 26.339"/>
    <path fill="#009BFF" class='no-color-change' d="M31.406 25.664C31.406 26.354 31.661 26.917 32.172 27.352 32.681 27.787 33.341 28.004 34.151 28.004 35.232 28.004 36.138 27.637 36.874 26.901 37.609 26.167 37.976 25.244 37.976 24.134L37.976 23.369C37.166 23.219 36.311 23.144 35.411 23.144 34.271 23.144 33.319 23.34 32.554 23.729 31.789 24.119 31.406 24.764 31.406 25.664zM38.291 33.089L37.886 30.074C36.386 32.474 34.107 33.674 31.047 33.674 29.696 33.674 28.474 33.382 27.379 32.797 26.284 32.212 25.414 31.409 24.769 30.389 24.123 29.37 23.801 28.184 23.801 26.834 23.801 24.285 24.798 22.305 26.794 20.894 28.789 19.484 31.421 18.779 34.692 18.779 35.711 18.779 36.791 18.869 37.932 19.049 37.811 17.909 37.324 17.047 36.469 16.462 35.614 15.877 34.571 15.584 33.341 15.584 32.261 15.584 31.174 15.787 30.079 16.191 28.984 16.597 27.941 17.084 26.952 17.654L24.297 12.614C25.796 11.654 27.416 10.912 29.156 10.387 30.896 9.862 32.636 9.599 34.376 9.599 36.476 9.599 38.366 9.959 40.047 10.679 41.726 11.399 43.046 12.494 44.006 13.964 44.966 15.435 45.446 17.294 45.446 19.544L45.446 33.089 38.291 33.089zM58.271 20.444L58.271 33.089 50.442 33.089 50.442 10.184 57.596 10.184 58.001 13.199C58.751 12.119 59.726 11.249 60.926 10.589 62.126 9.93 63.446 9.599 64.886 9.599 67.376 9.599 69.371 10.409 70.871 12.029 72.371 13.649 73.121 15.975 73.121 19.004L73.121 33.089 65.291 33.089 65.291 19.904C65.291 18.554 64.991 17.557 64.391 16.912 63.791 16.267 62.951 15.944 61.871 15.944 60.791 15.944 59.921 16.289 59.261 16.979 58.601 17.67 58.271 18.824 58.271 20.444M88.916 33.674C86.576 33.674 84.498 33.171 82.683 32.166 80.868 31.162 79.436 29.759 78.386 27.959 77.335 26.159 76.811 24.06 76.811 21.659 76.811 19.259 77.335 17.159 78.386 15.359 79.436 13.559 80.868 12.157 82.683 11.151 84.498 10.146 86.576 9.644 88.916 9.644 90.986 9.644 92.801 10.026 94.361 10.791 95.92 11.557 97.301 12.779 98.501 14.459L93.326 18.239C92.905 17.609 92.358 17.092 91.683 16.686 91.008 16.281 90.281 16.079 89.501 16.079 88.151 16.079 87.026 16.582 86.126 17.587 85.226 18.592 84.776 19.949 84.776 21.659 84.776 23.369 85.226 24.727 86.126 25.731 87.026 26.737 88.151 27.239 89.501 27.239 90.281 27.239 91.008 27.037 91.683 26.632 92.358 26.227 92.905 25.709 93.326 25.079L98.501 28.859C97.301 30.54 95.92 31.762 94.361 32.526 92.801 33.291 90.986 33.674 88.916 33.674M108.175 25.664C108.175 26.354 108.43 26.917 108.94 27.352 109.45 27.787 110.11 28.004 110.92 28.004 112.001 28.004 112.908 27.637 113.643 26.901 114.378 26.167 114.745 25.244 114.745 24.134L114.745 23.369C113.935 23.219 113.08 23.144 112.18 23.144 111.04 23.144 110.088 23.34 109.323 23.729 108.558 24.119 108.175 24.764 108.175 25.664zM115.06 33.089L114.655 30.074C113.155 32.474 110.876 33.674 107.815 33.674 106.465 33.674 105.243 33.382 104.148 32.797 103.053 32.212 102.183 31.409 101.538 30.389 100.892 29.37 100.57 28.184 100.57 26.834 100.57 24.285 101.567 22.305 103.563 20.894 105.558 19.484 108.19 18.779 111.461 18.779 112.48 18.779 113.56 18.869 114.701 19.049 114.58 17.909 114.093 17.047 113.238 16.462 112.383 15.877 111.34 15.584 110.11 15.584 109.03 15.584 107.943 15.787 106.848 16.191 105.753 16.597 104.711 17.084 103.721 17.654L101.065 12.614C102.565 11.654 104.185 10.912 105.925 10.387 107.665 9.862 109.405 9.599 111.145 9.599 113.245 9.599 115.135 9.959 116.815 10.679 118.495 11.399 119.815 12.494 120.775 13.964 121.735 15.435 122.215 17.294 122.215 19.544L122.215 33.089 115.06 33.089zM135.715 33.674C133.735 33.674 131.883 33.359 130.158 32.729 128.432 32.099 126.88 31.199 125.5 30.029L128.83 25.619C129.88 26.459 131.013 27.142 132.228 27.666 133.443 28.192 134.635 28.454 135.805 28.454 136.585 28.454 137.207 28.319 137.673 28.049 138.138 27.779 138.37 27.374 138.37 26.834 138.37 26.265 138.107 25.807 137.583 25.462 137.058 25.117 136.12 24.779 134.77 24.449L132.61 23.909C128.32 22.77 126.175 20.475 126.175 17.024 126.175 15.494 126.595 14.174 127.435 13.064 128.275 11.954 129.43 11.1 130.9 10.499 132.37 9.899 134.08 9.599 136.03 9.599 137.95 9.599 139.758 9.899 141.453 10.499 143.148 11.1 144.7 11.969 146.11 13.109L142.69 17.609C141.64 16.77 140.53 16.095 139.36 15.584 138.19 15.074 137.095 14.819 136.076 14.819 134.425 14.819 133.6 15.359 133.6 16.439 133.6 16.919 133.848 17.31 134.343 17.609 134.838 17.909 135.535 18.18 136.435 18.419L139.36 19.229C141.55 19.83 143.17 20.729 144.22 21.929 145.27 23.129 145.795 24.555 145.795 26.204 145.795 27.704 145.375 29.017 144.535 30.142 143.695 31.267 142.517 32.137 141.003 32.752 139.488 33.366 137.725 33.674 135.715 33.674M166.945 31.604C166.015 32.234 164.95 32.737 163.75 33.111 162.55 33.486 161.29 33.674 159.97 33.674 157.51 33.674 155.552 32.962 154.097 31.537 152.642 30.112 151.915 28.199 151.915 25.799L151.915 16.034 148.18 16.034 148.18 10.184 152.275 10.184 153.265 3.794 159.745 3.794 159.745 10.184 165.73 10.184 165.73 16.034 159.745 16.034 159.745 24.809C159.745 25.59 159.977 26.197 160.442 26.632 160.907 27.067 161.53 27.284 162.31 27.284 162.7 27.284 163.097 27.209 163.503 27.059 163.908 26.909 164.29 26.729 164.65 26.519L166.945 31.604M180.85 15.269C178.3 15.269 176.77 16.619 176.26 19.319L184.99 19.319C184.78 17.85 184.277 16.807 183.482 16.191 182.687 15.577 181.81 15.269 180.85 15.269zM191.56 30.749C190.419 31.559 188.972 32.249 187.217 32.819 185.462 33.389 183.595 33.674 181.615 33.674 178.885 33.674 176.552 33.171 174.617 32.166 172.682 31.162 171.197 29.759 170.162 27.959 169.127 26.159 168.61 24.089 168.61 21.749 168.61 19.38 169.12 17.279 170.14 15.449 171.159 13.619 172.57 12.186 174.37 11.151 176.17 10.117 178.269 9.599 180.67 9.599 183.01 9.599 185.072 10.102 186.857 11.106 188.642 12.112 190.037 13.507 191.042 15.291 192.047 17.077 192.55 19.169 192.55 21.569 192.55 21.899 192.527 22.244 192.482 22.604 192.437 22.964 192.385 23.34 192.325 23.729L176.35 23.729C177.07 26.369 179.034 27.689 182.245 27.689 183.685 27.689 184.96 27.464 186.07 27.014 187.179 26.564 188.11 26.114 188.86 25.664L191.56 30.749zM204.385 24.224L204.385 33.089 196.555 33.089 196.555 10.184 203.71 10.184 204.205 14.009C204.684 12.779 205.472 11.781 206.567 11.017 207.662 10.252 208.93 9.869 210.37 9.869 211.18 9.869 211.794 9.975 212.215 10.184L212.215 17.339C211.884 17.22 211.517 17.13 211.112 17.069 210.707 17.009 210.249 16.979 209.74 16.979 208.18 16.979 206.897 17.557 205.892 18.712 204.887 19.867 204.385 21.704 204.385 24.224"/>
    <polyline fill="#404040" points="226.624 33.089 226.624 2.489 247.729 2.489 247.729 9.194 234.814 9.194 234.814 14.369 246.289 14.369 246.289 21.074 234.814 21.074 234.814 26.384 248.449 26.384 248.449 33.089 226.624 33.089"/>
    <path fill="#404040" d="M259.248 25.664C259.248 26.354 259.503 26.917 260.013 27.352 260.523 27.787 261.183 28.004 261.993 28.004 263.074 28.004 263.981 27.637 264.716 26.901 265.451 26.167 265.818 25.244 265.818 24.134L265.818 23.369C265.008 23.219 264.153 23.144 263.253 23.144 262.113 23.144 261.161 23.34 260.396 23.729 259.631 24.119 259.248 24.764 259.248 25.664zM266.133 33.089L265.728 30.074C264.228 32.474 261.949 33.674 258.888 33.674 257.538 33.674 256.316 33.382 255.221 32.797 254.126 32.212 253.256 31.409 252.611 30.389 251.965 29.37 251.643 28.184 251.643 26.834 251.643 24.285 252.64 22.305 254.636 20.894 256.631 19.484 259.263 18.779 262.534 18.779 263.553 18.779 264.633 18.869 265.773 19.049 265.653 17.909 265.166 17.047 264.311 16.462 263.456 15.877 262.413 15.584 261.183 15.584 260.103 15.584 259.016 15.787 257.921 16.191 256.826 16.597 255.784 17.084 254.794 17.654L252.138 12.614C253.638 11.654 255.258 10.912 256.998 10.387 258.738 9.862 260.478 9.599 262.218 9.599 264.318 9.599 266.208 9.959 267.888 10.679 269.568 11.399 270.888 12.494 271.848 13.964 272.808 15.435 273.288 17.294 273.288 19.544L273.288 33.089 266.133 33.089zM289.308 26.204C290.628 26.204 291.693 25.731 292.503 24.787 293.313 23.842 293.718 22.574 293.718 20.984 293.718 19.395 293.313 18.127 292.503 17.182 291.693 16.236 290.628 15.764 289.308 15.764 287.958 15.764 286.878 16.236 286.068 17.182 285.258 18.127 284.853 19.395 284.853 20.984 284.853 22.544 285.258 23.805 286.068 24.764 286.878 25.725 287.958 26.204 289.308 26.204zM301.458 30.659C301.458 32.999 300.918 35.002 299.838 36.666 298.758 38.332 297.265 39.606 295.361 40.492 293.455 41.376 291.243 41.819 288.723 41.819 286.682 41.819 284.747 41.549 282.918 41.009 281.088 40.469 279.453 39.749 278.013 38.849L280.938 33.809C281.957 34.409 283.031 34.896 284.156 35.271 285.281 35.646 286.443 35.834 287.643 35.834 289.653 35.834 291.153 35.384 292.143 34.484 293.133 33.584 293.628 32.309 293.628 30.659L293.628 29.849C292.847 30.63 291.91 31.252 290.816 31.717 289.72 32.182 288.573 32.414 287.373 32.414 285.303 32.414 283.48 31.927 281.906 30.952 280.33 29.977 279.1 28.627 278.216 26.901 277.33 25.177 276.888 23.205 276.888 20.984 276.888 18.734 277.323 16.754 278.193 15.044 279.063 13.334 280.278 11.999 281.838 11.039 283.398 10.079 285.198 9.599 287.238 9.599 288.617 9.599 289.9 9.93 291.086 10.589 292.27 11.249 293.207 12.119 293.898 13.199L294.303 10.184 301.458 10.184 301.458 30.659z"/>
    <polygon fill="#404040" points="306.948 33.089 314.778 33.089 314.778 .239 306.948 .239"/>
    <path fill="#404040" d="M331.113 15.269C328.562 15.269 327.032 16.619 326.522 19.319L335.252 19.319C335.042 17.85 334.539 16.807 333.745 16.191 332.95 15.577 332.072 15.269 331.113 15.269zM341.823 30.749C340.682 31.559 339.235 32.249 337.48 32.819 335.725 33.389 333.857 33.674 331.877 33.674 329.147 33.674 326.815 33.171 324.88 32.166 322.945 31.162 321.46 29.759 320.425 27.959 319.39 26.159 318.872 24.089 318.872 21.749 318.872 19.38 319.382 17.279 320.402 15.449 321.422 13.619 322.832 12.186 324.633 11.151 326.432 10.117 328.532 9.599 330.932 9.599 333.272 9.599 335.335 10.102 337.12 11.106 338.905 12.112 340.3 13.507 341.305 15.291 342.31 17.077 342.812 19.169 342.812 21.569 342.812 21.899 342.79 22.244 342.745 22.604 342.7 22.964 342.647 23.34 342.587 23.729L326.613 23.729C327.332 26.369 329.297 27.689 332.508 27.689 333.948 27.689 335.222 27.464 336.332 27.014 337.442 26.564 338.372 26.114 339.122 25.664L341.823 30.749zM385.607 29.489C384.317 30.809 382.531 31.837 380.252 32.571 377.971 33.307 375.451 33.674 372.692 33.674 369.391 33.674 366.534 33.007 364.119 31.672 361.704 30.337 359.829 28.47 358.494 26.069 357.159 23.669 356.492 20.894 356.492 17.744 356.492 14.594 357.167 11.834 358.517 9.464 359.867 7.095 361.757 5.242 364.187 3.906 366.617 2.572 369.452 1.904 372.692 1.904 378.211 1.904 382.486 3.974 385.517 8.114L378.812 12.029C378.182 11.01 377.319 10.222 376.224 9.666 375.129 9.112 373.922 8.834 372.602 8.834 370.201 8.834 368.334 9.644 366.999 11.264 365.664 12.884 364.997 15.044 364.997 17.744 364.997 20.774 365.754 23.031 367.269 24.517 368.784 26.002 370.982 26.744 373.862 26.744 375.212 26.744 376.546 26.519 377.867 26.069L377.867 21.569 372.422 21.569 372.422 15.494 385.607 15.494 385.607 29.489M396.811 25.664C396.811 26.354 397.066 26.917 397.576 27.352 398.086 27.787 398.746 28.004 399.556 28.004 400.637 28.004 401.543 27.637 402.279 26.901 403.013 26.167 403.381 25.244 403.381 24.134L403.381 23.369C402.571 23.219 401.716 23.144 400.816 23.144 399.676 23.144 398.724 23.34 397.959 23.729 397.194 24.119 396.811 24.764 396.811 25.664zM403.696 33.089L403.291 30.074C401.791 32.474 399.512 33.674 396.451 33.674 395.101 33.674 393.879 33.382 392.784 32.797 391.688 32.212 390.819 31.409 390.174 30.389 389.528 29.37 389.206 28.184 389.206 26.834 389.206 24.285 390.203 22.305 392.199 20.894 394.194 19.484 396.826 18.779 400.096 18.779 401.116 18.779 402.196 18.869 403.336 19.049 403.216 17.909 402.729 17.047 401.874 16.462 401.019 15.877 399.976 15.584 398.746 15.584 397.666 15.584 396.578 15.787 395.484 16.191 394.388 16.597 393.346 17.084 392.356 17.654L389.701 12.614C391.201 11.654 392.821 10.912 394.561 10.387 396.301 9.862 398.041 9.599 399.781 9.599 401.881 9.599 403.771 9.959 405.451 10.679 407.131 11.399 408.451 12.494 409.411 13.964 410.371 15.435 410.851 17.294 410.851 19.544L410.851 33.089 403.696 33.089z"/>
    <polyline fill="#404040" points="434.791 27.239 434.791 33.089 414.496 33.089 414.496 28.184 424.936 16.034 415.171 16.034 415.171 10.184 434.431 10.184 434.431 15.089 424.081 27.239 434.791 27.239"/>
    <path fill="#404040" d="M449.911 15.269C447.361 15.269 445.831 16.619 445.321 19.319L454.051 19.319C453.841 17.85 453.338 16.807 452.543 16.191 451.748 15.577 450.871 15.269 449.911 15.269zM460.62 30.749C459.481 31.559 458.034 32.249 456.279 32.819 454.523 33.389 452.656 33.674 450.676 33.674 447.946 33.674 445.614 33.171 443.679 32.166 441.743 31.162 440.259 29.759 439.223 27.959 438.188 26.159 437.671 24.089 437.671 21.749 437.671 19.38 438.181 17.279 439.201 15.449 440.221 13.619 441.631 12.186 443.431 11.151 445.231 10.117 447.33 9.599 449.731 9.599 452.071 9.599 454.133 10.102 455.918 11.106 457.703 12.112 459.098 13.507 460.104 15.291 461.108 17.077 461.611 19.169 461.611 21.569 461.611 21.899 461.588 22.244 461.543 22.604 461.498 22.964 461.446 23.34 461.386 23.729L445.411 23.729C446.131 26.369 448.096 27.689 451.306 27.689 452.746 27.689 454.021 27.464 455.131 27.014 456.241 26.564 457.171 26.114 457.921 25.664L460.62 30.749zM482.491 31.604C481.56 32.234 480.495 32.737 479.295 33.111 478.095 33.486 476.835 33.674 475.515 33.674 473.055 33.674 471.097 32.962 469.643 31.537 468.187 30.112 467.46 28.199 467.46 25.799L467.46 16.034 463.725 16.034 463.725 10.184 467.821 10.184 468.81 3.794 475.29 3.794 475.29 10.184 481.275 10.184 481.275 16.034 475.29 16.034 475.29 24.809C475.29 25.59 475.522 26.197 475.988 26.632 476.452 27.067 477.075 27.284 477.855 27.284 478.245 27.284 478.643 27.209 479.048 27.059 479.453 26.909 479.835 26.729 480.196 26.519L482.491 31.604M503.1 31.604C502.17 32.234 501.105 32.737 499.905 33.111 498.705 33.486 497.445 33.674 496.125 33.674 493.665 33.674 491.707 32.962 490.253 31.537 488.797 30.112 488.07 28.199 488.07 25.799L488.07 16.034 484.335 16.034 484.335 10.184 488.43 10.184 489.42 3.794 495.9 3.794 495.9 10.184 501.885 10.184 501.885 16.034 495.9 16.034 495.9 24.809C495.9 25.59 496.132 26.197 496.598 26.632 497.062 27.067 497.685 27.284 498.465 27.284 498.855 27.284 499.253 27.209 499.658 27.059 500.063 26.909 500.445 26.729 500.805 26.519L503.1 31.604M517.005 15.269C514.454 15.269 512.925 16.619 512.415 19.319L521.145 19.319C520.934 17.85 520.432 16.807 519.638 16.191 518.842 15.577 517.965 15.269 517.005 15.269zM527.715 30.749C526.575 31.559 525.127 32.249 523.372 32.819 521.617 33.389 519.75 33.674 517.77 33.674 515.04 33.674 512.707 33.171 510.772 32.166 508.837 31.162 507.352 29.759 506.317 27.959 505.283 26.159 504.765 24.089 504.765 21.749 504.765 19.38 505.275 17.279 506.295 15.449 507.314 13.619 508.725 12.186 510.525 11.151 512.325 10.117 514.425 9.599 516.825 9.599 519.165 9.599 521.227 10.102 523.013 11.106 524.797 12.112 526.192 13.507 527.198 15.291 528.202 17.077 528.705 19.169 528.705 21.569 528.705 21.899 528.682 22.244 528.638 22.604 528.593 22.964 528.54 23.34 528.48 23.729L512.505 23.729C513.225 26.369 515.189 27.689 518.4 27.689 519.84 27.689 521.115 27.464 522.225 27.014 523.334 26.564 524.264 26.114 525.015 25.664L527.715 30.749z"/>
    <path fill="#009BFF" class='no-color-change' d="M535.815,33.584 C534.855,33.584 533.977,33.352 533.183,32.887 C532.388,32.422 531.758,31.792 531.293,30.997 C530.827,30.202 530.595,29.324 530.595,28.364 C530.595,27.404 530.827,26.527 531.293,25.731 C531.758,24.937 532.388,24.307 533.183,23.842 C533.977,23.377 534.855,23.144 535.815,23.144 C536.775,23.144 537.653,23.377 538.448,23.842 C539.242,24.307 539.872,24.937 540.338,25.731 C540.803,26.527 541.035,27.404 541.035,28.364 C541.035,29.324 540.803,30.202 540.338,30.997 C539.872,31.792 539.242,32.422 538.448,32.887 C537.653,33.352 536.775,33.584 535.815,33.584"/>
  </g>
</svg>
