<svg id="Lansing" xmlns="http://www.w3.org/2000/svg" xmlns:xlink="http://www.w3.org/1999/xlink" width="624" height="160" viewBox="0 0 624 160">
  <defs>
    <style>
      .cls-1 {
        fill: #000;
        filter: url(#filter);
      }

      .cls-1, .cls-2 {
        fill-rule: evenodd;
      }

      .cls-2 {
        filter: url(#filter-2);
      }
    </style>
    <filter id="filter" x="256" y="116.969" width="367.969" height="16" filterUnits="userSpaceOnUse">
      <feFlood result="flood" flood-color="#999"/>
      <feComposite result="composite" operator="in" in2="SourceGraphic"/>
      <feBlend result="blend" in2="SourceGraphic"/>
    </filter>
    <filter id="filter-2" x="1.188" y="27.219" width="622.343" height="84" filterUnits="userSpaceOnUse">
      <feFlood result="flood" flood-color="#000"/>
      <feComposite result="composite" operator="in" in2="SourceGraphic"/>
      <feBlend result="blend" in2="SourceGraphic"/>
    </filter>
  </defs>
  <path id="USAT_Network" data-name="USAT Network" class="cls-1" d="M255.989,117.273h4.489c3.156,0,5.267,1.865,5.267,4.741s-2.155,4.735-5.267,4.735h-2.29v5.925h-2.2v-15.4Zm4.267,7.659c2.112,0,3.244-1.163,3.244-2.918,0-1.736-1.132-2.919-3.244-2.919h-2.068v5.837h2.068Zm11.768-7.659h1.955l6.4,15.4h-2.358l-1.6-4.035h-6.911l-1.6,4.035H265.6S271.244,119.162,272.024,117.273Zm3.665,9.544-1.488-3.794c-0.222-.572-1.179-2.942-1.2-3.139h-0.043c-0.022.2-.955,2.5-1.2,3.139l-1.51,3.794h5.443Zm6.924-9.544h4.51c2.91,0,5.178,1.5,5.178,4.563a4.293,4.293,0,0,1-3.955,4.346l4.778,6.492h-2.579l-4.51-6.276h-1.223v6.276h-2.2v-15.4Zm4.267,7.351c2.043,0,3.2-1.077,3.2-2.764s-1.157-2.765-3.2-2.765h-2.068v5.529h2.068Zm11.522-5.486h-4.445v-1.865h11.089v1.865H300.6v13.536h-2.2V119.138Zm12.347,5.838a8.2,8.2,0,1,1,8.2,8A7.862,7.862,0,0,1,310.749,124.976Zm14.133,0a5.946,5.946,0,1,0-5.955,6.053A5.772,5.772,0,0,0,324.882,124.976Zm5.433-7.7h7.867v1.865h-5.668V124.1H338v1.865h-5.49v6.713h-2.2v-15.4Zm17.815,1.865h-4.444v-1.865h11.088v1.865H350.33v13.536h-2.2V119.138Zm8.953-1.865h2.2v6.318h8.178v-6.318h2.2v15.4h-2.2v-7.218h-8.178v7.218h-2.2v-15.4Zm16.631,0h8.49v1.846h-6.29v4.472h6.11v1.846h-6.11v5.395h6.422v1.842h-8.622v-15.4Zm16,10.092V117.273h2.221v9.433c0,2.679,1.157,4.323,3.756,4.323,2.622,0,3.78-1.644,3.78-4.323v-9.433h2.221v10.092c0,3.38-2.2,5.616-6,5.616C391.865,132.981,389.71,130.745,389.71,127.365Zm14.274,2.524,1.491-1.25a4.52,4.52,0,0,0,3.911,2.433c1.709,0,3.044-.918,3.044-2.611,0-1.817-1.534-2.433-3.446-3.178-1.956-.769-3.933-1.736-3.933-4.193,0-2.432,1.912-4.12,4.712-4.12a5.249,5.249,0,0,1,4.579,2.322l-1.491,1.25a3.552,3.552,0,0,0-3.088-1.668c-1.512,0-2.511.769-2.511,2.063,0,1.6,1.554,2.13,2.911,2.654,2.2,0.856,4.466,1.889,4.466,4.716,0,2.679-2,4.674-5.2,4.674A6.064,6.064,0,0,1,403.984,129.889Zm18.241-12.616h1.956l6.4,15.4h-2.357l-1.6-4.035h-6.912l-1.6,4.035H415.8S421.446,119.162,422.225,117.273Zm3.665,9.544-1.487-3.794c-0.222-.572-1.179-2.942-1.2-3.139h-0.044c-0.022.2-.955,2.5-1.2,3.139l-1.51,3.794h5.443Zm13.978-7.679h-4.445v-1.865h11.088v1.865h-4.444v13.536h-2.2V119.138Zm7.469,5.838a8.2,8.2,0,1,1,8.2,8A7.861,7.861,0,0,1,447.337,124.976Zm14.132,0a5.945,5.945,0,1,0-5.954,6.053A5.772,5.772,0,0,0,461.469,124.976Zm5.434-7.7h4.423c4.977,0,8.265,2.808,8.265,7.7,0,4.87-3.312,7.7-8.265,7.7H466.9v-15.4Zm2.2,13.534h2.046c3.643,0,6.176-1.9,6.176-5.831s-2.533-5.838-6.176-5.838H469.1v11.669Zm17.637-13.534H488.7l6.4,15.4h-2.357l-1.6-4.035h-6.912l-1.6,4.035h-2.311S485.96,119.162,486.739,117.273Zm3.666,9.544-1.489-3.794c-0.221-.572-1.178-2.942-1.2-3.139h-0.044c-0.022.2-.955,2.5-1.2,3.139l-1.51,3.794h5.444Zm9.084-.419-5.312-9.125h2.467l2.889,5.135a22.887,22.887,0,0,1,1.11,2.192h0.022a23.153,23.153,0,0,1,1.113-2.192l2.91-5.135h2.4l-5.309,9.125v6.276h-2.289V126.4Zm14.062-9.125h1.687l8.846,9.982c0.266,0.288,1.422,1.711,1.534,1.932l0.044-.023c-0.044-.217-0.044-2-0.044-2.39v-9.5h2.134v15.4h-1.713l-8.845-9.983c-0.265-.283-1.422-1.711-1.532-1.928l-0.021.02c0.021,0.221.043,2,.043,2.394v9.5h-2.133v-15.4Zm18.253,0h8.487v1.846H534v4.472h6.113v1.846H534v5.395h6.422v1.842H531.8v-15.4Zm15.37,1.865h-4.445v-1.865h11.089v1.865h-4.445v13.536h-2.2V119.138Zm8.477-1.865h2.334l3.2,9.15c0.112,0.351.867,2.63,0.889,2.981h0.046a30.445,30.445,0,0,1,.933-2.981l3.334-9.15h1.756l3.332,9.15c0.133,0.351.91,2.63,0.935,2.981h0.044c0.044-.351.8-2.63,0.91-2.981l3.179-9.15h2.243l-5.49,15.4h-1.688l-3.6-9.607a25.578,25.578,0,0,1-.758-2.5h-0.044a25.693,25.693,0,0,1-.776,2.5l-3.578,9.607h-1.69Zm24.119,7.7a8.2,8.2,0,1,1,8.2,8A7.861,7.861,0,0,1,579.77,124.976Zm14.132,0a5.946,5.946,0,1,0-5.955,6.053A5.772,5.772,0,0,0,593.9,124.976Zm5.433-7.7h4.511c2.913,0,5.177,1.5,5.177,4.563a4.293,4.293,0,0,1-3.955,4.346l4.779,6.492h-2.579l-4.511-6.276h-1.222v6.276h-2.2v-15.4Zm4.267,7.351c2.044,0,3.2-1.077,3.2-2.764s-1.156-2.765-3.2-2.765h-2.067v5.529H603.6Zm8.736-7.351h2.2v7.154l6.444-7.154h2.666l-6.687,7.351,7,8.05h-2.754l-6.668-7.785v7.785h-2.2v-15.4Z"/>
  <path id="Lansing-2" data-name="Lansing" class="cls-2" d="M1.225,30.475c0.45,7.848.618,14.742,0.618,25.437v12.5c0,10.694-.168,17.587-0.618,25.438l-0.036.624,0.792-.086c1.691-.184,4.006-0.437,16.159-0.437,5.043,0,8.377.188,10.811,0.325l3.339,0.164-0.1-.634-0.038-.266a22.132,22.132,0,0,1-.267-3.613,24.774,24.774,0,0,1,.24-3.545l0.15-1.213-0.682.1a128.739,128.739,0,0,1-17.1,1.171c-0.008-1.014-.15-18.024-0.15-18.024v-12.5c0-10.686.167-17.58,0.617-25.437l0.036-.626-1.3.144a47.644,47.644,0,0,1-5.6.382,47.629,47.629,0,0,1-5.6-.382l-1.3-.144ZM83.469,54.589c0.087-1.935.259-5.794,0.259-5.794l-2.311.237-3.888.282a35.118,35.118,0,0,1-4-.3l-2.07-.225,0.051,0.633c0.426,5.919.616,12.2,0.616,20.374v3.675c0,8.173-.19,14.455-0.616,20.373l-0.047.649,0.758-.1a36.22,36.22,0,0,1,11.338.015L84.21,94.5l-0.046-.654c-0.426-5.923-.618-12.207-0.618-20.373V69.8c0-5.925,1.075-12.987,6.2-12.987,3.856,0,5.81,3.595,5.81,10.686,0,9.488-.1,19.244-0.847,26.333l-0.076.721,0.71-.148a36.389,36.389,0,0,1,11.379,0l0.66,0.139-0.16-4.48-0.25-9.51,0.14-6.658,0.17-8.788c0-11.576-4.235-17.447-12.588-17.447-4.343,0-8.191,2.4-11.221,6.93m25.508,8.4c0,9.613,6.27,12.721,11.308,15.217,3.615,1.79,6.472,3.206,6.472,6.389a4.868,4.868,0,0,1-5.115,4.713c-4.929,0-8.062-4.3-9.35-8.322l-0.117-.367h-2.089l-0.026.5a72.9,72.9,0,0,1-1.148,9.895l-0.067.318,0.252,0.2a18.505,18.505,0,0,0,11,4.07c7.69,0,15.449-4.968,15.449-16.066,0-9.694-6.355-12.546-11.462-14.836-3.789-1.7-6.781-3.043-6.781-6.495a4.673,4.673,0,0,1,4.96-4.8c4.451,0,7.324,4.35,7.864,7.289L130.2,61.13h2.344l0.054-.469a34.148,34.148,0,0,1,1.823-7.959l0.139-.359-0.3-.243c-3.85-3.154-7.1-4.442-11.234-4.442-6.77,0-14.056,4.8-14.056,15.331m27.864-28.324c0,4.237,2.853,7.433,6.635,7.433s6.636-3.2,6.636-7.433-2.853-7.435-6.636-7.435-6.635,3.2-6.635,7.435M149.2,48.859a40.65,40.65,0,0,1-5.724.455,40.9,40.9,0,0,1-5.615-.44l-0.644-.086-0.066.633c0.428,5.92.617,12.2,0.617,20.374v3.675c0,8.171-.189,14.454-0.617,20.373l-0.046.649,0.758-.1a36.216,36.216,0,0,1,11.337.015l0.648,0.09-0.047-.654c-0.427-5.918-.616-12.2-0.616-20.373V69.8c0-8.171.189-14.455,0.616-20.374l0.047-.653Zm16.1,5.73c0.087-1.935.261-5.794,0.261-5.794l-2.315.237-3.883.282a35.113,35.113,0,0,1-4-.3l-2.07-.225,0.05,0.633c0.427,5.925.617,12.209,0.617,20.374v3.675c0,8.166-.19,14.45-0.617,20.373l-0.047.649,0.757-.1a36.228,36.228,0,0,1,11.339.015l0.648,0.09L166,93.844c-0.427-5.923-.617-12.207-0.617-20.373V69.8c0-5.925,1.075-12.987,6.195-12.987,3.856,0,5.811,3.595,5.811,10.686,0,9.492-.1,19.249-0.847,26.333l-0.076.722,0.71-.149a36.385,36.385,0,0,1,11.378,0l0.661,0.139-0.163-4.553L188.8,80.551l0.139-6.658,0.17-8.788c0-11.576-4.235-17.447-12.587-17.447-4.345,0-8.192,2.4-11.222,6.93m61.411-7.6a67.323,67.323,0,0,1-12.358,1.044l-2.238-.164-3.519-.205c-10.276,0-16.916,6.018-16.916,15.331a16.7,16.7,0,0,0,2.726,9.869,13.408,13.408,0,0,0,6.374,4.722c-3.538,1.187-6.395,2.511-6.395,6.614,0,3.438,1.707,4.8,4.173,6.144-3.834,1.817-6.092,3.687-6.849,7.666a8.665,8.665,0,0,0-.152,1.619,11.554,11.554,0,0,0,4.424,8.651c3.713,2.877,13.264,4.135,20.488,1.51,5.49-1.995,9.012-5.873,10.18-11.214,0.685-3.133-.439-6.89-3.009-10.05-2.456-3.021-5.714-4.8-8.712-4.77l-5.706-.091-0.256.02c-2.838.311-4.082-.21-4.624-0.707a1.75,1.75,0,0,1-.552-1.4c0.02-1.488.82-2.79,1.714-2.79l3.478,0.091c9.141,0,15.525-6.493,15.525-15.79a13.745,13.745,0,0,0-3.587-9.759l6.589,0.727-0.145-.661-0.193-.9a7.67,7.67,0,0,1-.324-2.031,5.309,5.309,0,0,1,.308-2.046l0.418-1.708ZM203.563,64.093c0-7.81,1.546-11.606,4.726-11.606,2.841,0,4.343,3.727,4.343,10.78,0,9.88-2.4,11.147-4.5,11.147-2.11,0-4.572-2.7-4.572-10.32m-2.836,33.921c0-3.166,1.528-5.408,2.562-5.923a12.537,12.537,0,0,1,5.029-.681c7.956,0,11.2,1.828,11.2,6.31,0,4.456-4.46,8.221-9.737,8.221-4.178,0-9.055-2.077-9.055-7.927m46.825-49.091c0,11.806,7.192,15.851,13.538,19.421,5.1,2.868,9.5,5.345,9.5,11.272,0,3.893-2.781,8.084-8.882,8.084-5.238,0-8.528-4.479-9.777-13.309l-0.065-.453h-2.394l-0.058.462a85.955,85.955,0,0,1-3.684,16.181l-0.1.325,0.254,0.228c2.4,2.16,8.7,4.472,14.263,4.472,12.569,0,21.014-8.563,21.014-21.308,0-11.853-7.378-16.076-13.886-19.8-5.159-2.953-9.614-5.5-9.614-11.275a7.549,7.549,0,0,1,7.51-7.745c4.5,0,7.688,2.605,9.215,7.535l0.115,0.372h1.647l0.06-.46a38.793,38.793,0,0,1,2.8-8.953l0.156-.346-0.276-.259c-3.192-3-7.953-4.648-13.4-4.648-8.631,0-17.921,6.321-17.921,20.2m47.045-16.9c-3.431,3.859-6.181,5.245-10.9,5.486l-0.527.028,0.025,0.528c0.209,4.228.3,7.612,0.306,11.491l-5.463-.278,0.287,3.042a11.245,11.245,0,0,1-.22,2.19l-0.137.649,5.525-.093c-0.021.994-.268,13.141-0.268,13.141l-0.263,12.613c0,5.889,1.1,9.735,3.469,12.1,1.8,1.8,4.291,2.68,7.609,2.68a10.691,10.691,0,0,0,8.108-3.74l0.115-.146V87.83L300.8,88.984a3.618,3.618,0,0,1-2.618,1.092c-2.9,0-3.8-2.088-3.8-15.133,0-4.868.223-14.439,0.515-19.959l6.954,0.189-0.138-.657a11.219,11.219,0,0,1-.22-2.19l0.28-2.99-0.592-.022-6.245.169c0.036-5.048.578-11.674,1.046-16.444l0.02-.206-0.978-1.284Zm62.482,39.79c0,17.54,9.978,23.79,19.314,23.79,5.872,0,8.7-1.488,11.37-3.89l0.084-.077,2.634-5.989L388.9,84.24l-0.353.35a12.7,12.7,0,0,1-9.136,3.983c-6.047,0-9.681-6.137-9.806-16.41h22.149l0.008-.467,0.081-3.1c0-13.112-6.091-20.941-16.3-20.941-11.559,0-18.462,9.031-18.462,24.159m18.153-18.964c3.217,0,4.95,4.767,5.171,14.112H369.591c0.129-3.924.921-14.112,5.641-14.112m35.982-22.379c0.45,7.843.617,14.738,0.617,25.437v12.5c0,10.7-.167,17.6-0.618,25.438-0.38,6.6-1.716,7.864-5.752,10.043l-0.367.2,1.394,5.2,0.485-.094c12.11-2.354,17.511-9.772,17.511-24.058l-0.155-16.733v-12.5c0-10.681.167-17.576,0.616-25.439l0.036-.624-1.3.144a47.654,47.654,0,0,1-5.6.382,47.654,47.654,0,0,1-5.6-.382l-1.3-.144Zm15.321,42.262c0,16.881,10.486,22.871,19.466,22.871,11.644,0,19.467-10,19.467-24.893,0-14.221-7.459-23.056-19.467-23.056-9.69,0-19.466,7.755-19.466,25.078m12.5,0.091c0-12.879,2.53-19.974,7.125-19.974,5.631,0,6.813,8.964,6.813,16.481,0,13.591-2.446,21.078-6.89,21.078-4.677,0-7.048-5.916-7.048-17.584m40.306-23.963a36.275,36.275,0,0,1-11.377,0l-0.661-.14,0.161,4.518,0.249,9.471-0.139,6.658L467.4,78.16c0,11.577,4.233,17.448,12.586,17.448,4.343,0,8.192-2.4,11.222-6.932-0.088,1.936-.26,5.8-0.26,5.8l2.315-.238,3.883-.28a35.351,35.351,0,0,1,4,.3l2.071,0.225-0.05-.634c-0.427-5.923-.618-12.207-0.618-20.373V69.8c0-8.165.191-14.449,0.618-20.374l0.046-.648-0.757.1a40.9,40.9,0,0,1-5.615.44,40.675,40.675,0,0,1-5.723-.455l-0.648-.09,0.047,0.653c0.427,5.936.618,12.219,0.618,20.374v3.675c0,5.925-1.075,12.987-6.2,12.987-3.854,0-5.81-3.6-5.81-10.687,0-9.492.1-19.249,0.846-26.332l0.078-.723Zm66.348,5.724c0.087-1.934.26-5.794,0.26-5.794l-2.315.237-3.884.282a35.112,35.112,0,0,1-4-.3l-2.071-.225,0.05,0.633c0.428,5.925.618,12.209,0.618,20.374v3.675c0,8.166-.19,14.45-0.618,20.373l-0.046.649,0.761-.1a36.239,36.239,0,0,1,11.335.016l0.647,0.09-0.046-.654c-0.428-5.923-.618-12.207-0.618-20.373V69.8c0-5.925,1.076-12.987,6.2-12.987,3.856,0,5.811,3.595,5.811,10.686,0,9.5-.1,19.255-0.849,26.333l-0.076.721,0.71-.148a36.392,36.392,0,0,1,11.379,0L569.6,94.54l-0.16-4.48-0.25-9.51,0.139-6.658,0.17-8.788c0-11.576-4.234-17.447-12.588-17.447-4.344,0-8.191,2.4-11.221,6.93m65.178-23.644c0.4,10.161.62,16.466,0.62,27.875v5.724c0,10.324-.18,19.144-0.62,30.441l-0.027.672,0.659-.132a38.079,38.079,0,0,1,11.389,0l0.658,0.132-0.027-.672c-0.44-11.3-.62-20.117-0.62-30.441V58.821c0-11.41.225-17.714,0.62-27.875l0.027-.672-0.658.133a33.184,33.184,0,0,1-5.694.43,33.162,33.162,0,0,1-5.7-.43l-0.659-.133ZM36.2,54.249l-0.2.2,1.135,6.225h0.914l0.154-.256c1.508-2.512,5.888-4.8,9.188-4.8,4.059,0,6.892,3.072,6.892,7.469,0,2.93-.357,3.789-9.032,6.016C36.3,71.4,33.42,74.785,33.42,83.035,33.42,89.294,37,95.608,45,95.608c5.006,0,7.941-3.108,9.947-6.118,1.474,4,3.942,6.118,7.445,6.118A10.488,10.488,0,0,0,69.9,91.793l0.13-.15V88.652l-0.815.526c-1.061.684-1.865,0.885-2.392,0.6-0.619-.339-1.355-1.607-1.354-5.731l0.108-9.555L65.7,63.176c0-12.825-7.98-15.517-14.673-15.517-5.121,0-10.664,2.464-14.827,6.59m9.095,27.5c0-6.658,3.008-7.992,6.491-9.537a28.993,28.993,0,0,0,2.647-1.318c-0.008.788-.017,1.745-0.017,1.745l-0.052,6.995c0,5.367-1.94,8.572-5.191,8.572-2.465,0-3.878-2.354-3.878-6.457M352.025,32.029c-3.428,3.858-6.179,5.244-10.9,5.485l-0.527.028,0.027,0.527c0.208,4.245.3,7.629,0.306,11.492l-5.465-.278,0.288,3.042a10.974,10.974,0,0,1-.222,2.189l-0.137.65,5.527-.093c-0.02.994-.267,13.141-0.267,13.141l-0.263,12.613c0,5.889,1.1,9.735,3.468,12.1,1.8,1.8,4.292,2.68,7.611,2.68a10.688,10.688,0,0,0,8.105-3.74l0.116-.146V87.831l-1.469,1.154a3.61,3.61,0,0,1-2.615,1.091c-2.9,0-3.8-2.088-3.8-15.133,0-4.86.223-14.432,0.515-19.959l6.954,0.189-0.137-.657a11.168,11.168,0,0,1-.221-2.19l0.281-2.99-0.592-.022-6.246.169c0.036-5.048.578-11.674,1.047-16.444l0.018-.206-0.976-1.284Zm-47.912,22.22-0.2.2,1.135,6.225h0.915l0.155-.256c1.508-2.512,5.888-4.8,9.188-4.8,4.058,0,6.892,3.072,6.892,7.469,0,2.93-.359,3.789-9.033,6.016-8.961,2.3-11.838,5.687-11.838,13.936,0,6.259,3.582,12.573,11.582,12.573,5.007,0,7.94-3.108,9.945-6.118,1.476,4,3.944,6.118,7.447,6.118a10.489,10.489,0,0,0,7.512-3.815l0.128-.15V88.652l-0.815.526c-1.061.684-1.865,0.885-2.392,0.6-0.617-.339-1.354-1.607-1.354-5.731l0.109-9.555,0.123-11.315c0-12.825-7.979-15.517-14.673-15.517-5.122,0-10.665,2.464-14.827,6.59m9.1,27.5c0-6.658,3.007-7.992,6.49-9.537a28.92,28.92,0,0,0,2.646-1.318c-0.007.788-.017,1.745-0.017,1.745l-0.052,6.995c0,5.367-1.94,8.572-5.19,8.572-2.464,0-3.877-2.354-3.877-6.457m261.541-27.5-0.2.2,1.133,6.225H576.6l0.155-.256c1.506-2.512,5.885-4.8,9.185-4.8,4.059,0,6.893,3.072,6.893,7.469,0,2.93-.358,3.789-9.032,6.016-8.963,2.3-11.839,5.687-11.839,13.936,0,6.259,3.582,12.573,11.583,12.573,5.006,0,7.941-3.108,9.947-6.118,1.474,4,3.942,6.118,7.446,6.118a10.487,10.487,0,0,0,7.511-3.815l0.129-.15V88.652l-0.815.526c-1.061.684-1.865,0.885-2.391,0.6-0.618-.338-1.354-1.606-1.354-5.731l0.108-9.555,0.125-11.315c0-12.825-7.981-15.517-14.676-15.517-5.122,0-10.664,2.464-14.827,6.59m9.094,27.5c0-6.658,3.009-7.991,6.491-9.537a29.048,29.048,0,0,0,2.646-1.318c-0.008.788-.016,1.745-0.016,1.745l-0.052,6.995c0,5.367-1.94,8.572-5.191,8.572-2.464,0-3.878-2.354-3.878-6.457M518.085,57.972l0.191-9.254-1.946.219a34.391,34.391,0,0,1-3.929.3,34.1,34.1,0,0,1-3.933-.307l-1.978-.221,0.05,0.636c0.428,5.911.618,12.194,0.618,20.372V73.4c0,8.178-.19,14.462-0.618,20.373l-0.048.647,0.812-.106a36.1,36.1,0,0,1,11.286.02l0.647,0.09-0.047-.652c-0.427-5.934-.619-12.217-0.619-20.373V69.721c0-4.259,2.4-8.571,6.972-8.571a6.027,6.027,0,0,1,3.63,1.184l0.378,0.277,0.8-.857-0.01-.224a92.755,92.755,0,0,1,.744-12.958l0.1-.57-1.117-.087-0.736-.052c-4.874,0-8.565,3.331-11.245,10.11"/>
</svg>
