<svg xmlns="http://www.w3.org/2000/svg" width="474" height="47" viewBox="0 0 474 47">
  <g fill="none" fill-rule="evenodd">
    <path fill="#FFFFFF" d="M1.424 43.479L2.525 43.479C2.886 43.479 3.172 43.39 3.383 43.212 3.593 43.035 3.698 42.791 3.698 42.484 3.698 42.176 3.593 41.934 3.383 41.756 3.172 41.577 2.886 41.489 2.525 41.489L1.424 41.489 1.424 43.479zM.607 46.304L.607 40.801 2.525 40.801C3.14 40.801 3.628 40.952 3.99 41.254 4.351 41.556 4.532 41.966 4.532 42.484 4.532 42.997 4.351 43.402 3.99 43.702 3.628 44.001 3.14 44.151 2.525 44.151L1.424 44.151 1.424 46.304.607 46.304zM6.183 44.232L8.19 44.232 7.186 41.651 6.183 44.232zM8.991 46.304L8.457 44.92 5.916 44.92 5.382 46.304 4.556 46.304 6.757 40.801 7.639 40.801 9.833 46.304 8.991 46.304zM11.564 43.398L12.689 43.398C13.04 43.398 13.319 43.312 13.527 43.14 13.735 42.967 13.838 42.735 13.838 42.443 13.838 42.152 13.735 41.92 13.527 41.747 13.319 41.575 13.04 41.489 12.689 41.489L11.564 41.489 11.564 43.398zM11.564 44.07L11.564 46.304 10.747 46.304 10.747 40.801 12.689 40.801C13.299 40.801 13.782 40.948 14.138 41.242 14.494 41.536 14.672 41.937 14.672 42.443 14.672 42.827 14.564 43.151 14.348 43.415 14.132 43.679 13.836 43.865 13.458 43.973L14.793 46.304 13.863 46.304 12.608 44.07 11.564 44.07z"/>
    <polyline fill="#FFFFFF" points="17.019 46.304 17.019 41.489 15.165 41.489 15.165 40.801 19.689 40.801 19.689 41.489 17.836 41.489 17.836 46.304 17.019 46.304"/>
    <path fill="#FFFFFF" d="M24.941,45.68 C25.298,45.68 25.614,45.59 25.892,45.41 C26.17,45.229 26.387,44.979 26.544,44.661 C26.7,44.343 26.778,43.973 26.778,43.552 C26.778,43.131 26.7,42.762 26.544,42.443 C26.387,42.125 26.17,41.876 25.892,41.695 C25.614,41.514 25.298,41.424 24.941,41.424 C24.585,41.424 24.27,41.514 23.995,41.695 C23.719,41.876 23.503,42.125 23.347,42.443 C23.191,42.762 23.112,43.131 23.112,43.552 C23.112,43.973 23.191,44.343 23.347,44.661 C23.503,44.979 23.719,45.229 23.995,45.41 C24.27,45.59 24.585,45.68 24.941,45.68 Z M24.941,46.393 C24.423,46.393 23.965,46.271 23.565,46.029 C23.166,45.786 22.852,45.451 22.623,45.025 C22.393,44.599 22.279,44.108 22.279,43.552 C22.279,42.997 22.393,42.506 22.623,42.08 C22.852,41.653 23.166,41.319 23.565,41.076 C23.965,40.833 24.423,40.712 24.941,40.712 C25.459,40.712 25.919,40.833 26.321,41.076 C26.723,41.319 27.039,41.653 27.268,42.08 C27.497,42.506 27.612,42.997 27.612,43.552 C27.612,44.108 27.497,44.599 27.268,45.025 C27.039,45.451 26.723,45.786 26.321,46.029 C25.919,46.271 25.459,46.393 24.941,46.393 Z"/>
    <polyline fill="#FFFFFF" points="29.579 46.304 28.761 46.304 28.761 40.801 32.184 40.801 32.184 41.489 29.579 41.489 29.579 43.35 31.788 43.35 31.788 44.038 29.579 44.038 29.579 46.304"/>
    <polyline fill="#FFFFFF" points="36.449 46.304 36.449 41.489 34.596 41.489 34.596 40.801 39.12 40.801 39.12 41.489 37.266 41.489 37.266 46.304 36.449 46.304"/>
    <polyline fill="#FFFFFF" points="40.058 46.304 40.058 40.801 40.876 40.801 40.876 43.156 43.716 43.156 43.716 40.801 44.533 40.801 44.533 46.304 43.716 46.304 43.716 43.86 40.876 43.86 40.876 46.304 40.058 46.304"/>
    <polyline fill="#FFFFFF" points="45.974 46.304 45.974 40.801 49.502 40.801 49.502 41.489 46.791 41.489 46.791 43.188 49.178 43.188 49.178 43.876 46.791 43.876 46.791 45.616 49.567 45.616 49.567 46.304 45.974 46.304"/>
    <path fill="#FFFFFF" d="M54.73 45.68C55.178 45.68 55.53 45.546 55.786 45.276 56.042 45.006 56.171 44.642 56.171 44.183L56.171 40.801 56.988 40.801 56.988 44.191C56.988 44.877 56.787 45.415 56.385 45.806 55.983 46.197 55.431 46.393 54.73 46.393 54.029 46.393 53.479 46.197 53.079 45.806 52.68 45.415 52.48 44.877 52.48 44.191L52.48 40.801 53.298 40.801 53.298 44.183C53.298 44.642 53.426 45.006 53.682 45.276 53.938 45.546 54.288 45.68 54.73 45.68M60.039 46.393C59.623 46.393 59.227 46.32 58.849 46.174 58.471 46.029 58.166 45.834 57.935 45.592L58.396 45.049C58.612 45.249 58.867 45.405 59.161 45.519 59.455 45.632 59.747 45.689 60.039 45.689 60.395 45.689 60.682 45.62 60.901 45.482 61.119 45.345 61.228 45.154 61.228 44.912 61.228 44.691 61.15 44.505 60.994 44.353 60.837 44.202 60.57 44.076 60.192 43.973L59.432 43.771C58.941 43.641 58.583 43.458 58.359 43.22 58.136 42.983 58.024 42.673 58.024 42.29 58.024 41.977 58.107 41.702 58.274 41.464 58.442 41.227 58.672 41.042 58.966 40.91 59.26 40.778 59.594 40.712 59.966 40.712 60.36 40.712 60.729 40.786 61.074 40.934 61.42 41.083 61.725 41.289 61.989 41.553L61.495 42.087C61.263 41.872 61.022 41.706 60.771 41.59 60.52 41.474 60.254 41.416 59.974 41.416 59.634 41.416 59.356 41.487 59.141 41.63 58.925 41.773 58.817 41.972 58.817 42.225 58.817 42.457 58.893 42.638 59.047 42.767 59.201 42.897 59.437 43.005 59.756 43.091L60.605 43.326C61.096 43.46 61.455 43.649 61.681 43.892 61.908 44.135 62.021 44.437 62.021 44.799 62.021 45.117 61.938 45.396 61.771 45.636 61.603 45.876 61.371 46.062 61.074 46.194 60.778 46.327 60.433 46.393 60.039 46.393M64.077 44.232L66.084 44.232 65.08 41.651 64.077 44.232zM66.885 46.304L66.351 44.92 63.81 44.92 63.276 46.304 62.45 46.304 64.652 40.801 65.534 40.801 67.727 46.304 66.885 46.304z"/>
    <polyline fill="#FFFFFF" points="71.53 46.304 71.53 41.489 69.677 41.489 69.677 40.801 74.201 40.801 74.201 41.489 72.348 41.489 72.348 46.304 71.53 46.304"/>
    <path fill="#FFFFFF" d="M77.147 45.68C77.503 45.68 77.82 45.59 78.098 45.41 78.375 45.229 78.593 44.979 78.749 44.661 78.905 44.343 78.984 43.973 78.984 43.552 78.984 43.131 78.905 42.762 78.749 42.443 78.593 42.125 78.375 41.876 78.098 41.695 77.82 41.514 77.503 41.424 77.147 41.424 76.791 41.424 76.475 41.514 76.2 41.695 75.925 41.876 75.709 42.125 75.552 42.443 75.396 42.762 75.318 43.131 75.318 43.552 75.318 43.973 75.396 44.343 75.552 44.661 75.709 44.979 75.925 45.229 76.2 45.41 76.475 45.59 76.791 45.68 77.147 45.68zM77.147 46.393C76.629 46.393 76.17 46.271 75.771 46.029 75.372 45.786 75.057 45.451 74.828 45.025 74.599 44.599 74.484 44.108 74.484 43.552 74.484 42.997 74.599 42.506 74.828 42.08 75.057 41.653 75.372 41.319 75.771 41.076 76.17 40.833 76.629 40.712 77.147 40.712 77.665 40.712 78.124 40.833 78.526 41.076 78.928 41.319 79.244 41.653 79.473 42.08 79.702 42.506 79.817 42.997 79.817 43.552 79.817 44.108 79.702 44.599 79.473 45.025 79.244 45.451 78.928 45.786 78.526 46.029 78.124 46.271 77.665 46.393 77.147 46.393zM81.784 45.616L82.9 45.616C83.289 45.616 83.622 45.531 83.9 45.361 84.178 45.191 84.391 44.952 84.539 44.645 84.687 44.337 84.762 43.973 84.762 43.552 84.762 43.131 84.687 42.767 84.539 42.46 84.391 42.152 84.178 41.913 83.9 41.744 83.622 41.574 83.289 41.489 82.9 41.489L81.784 41.489 81.784 45.616zM80.966 46.304L80.966 40.801 82.9 40.801C83.44 40.801 83.912 40.916 84.317 41.145 84.721 41.374 85.035 41.695 85.259 42.108 85.483 42.52 85.595 43.002 85.595 43.552 85.595 44.103 85.483 44.584 85.259 44.997 85.035 45.41 84.721 45.73 84.317 45.96 83.912 46.189 83.44 46.304 82.9 46.304L80.966 46.304zM87.683 44.232L89.69 44.232 88.687 41.651 87.683 44.232zM90.491 46.304L89.957 44.92 87.416 44.92 86.882 46.304 86.056 46.304 88.258 40.801 89.14 40.801 91.333 46.304 90.491 46.304z"/>
    <polyline fill="#FFFFFF" points="93.842 44.119 93.842 46.304 93.024 46.304 93.024 44.119 91.09 40.801 92.053 40.801 93.437 43.342 94.821 40.801 95.768 40.801 93.842 44.119"/>
    <polyline fill="#FFFFFF" points="102.306 46.304 99.369 42.087 99.369 46.304 98.6 46.304 98.6 40.801 99.361 40.801 102.306 45.017 102.306 40.801 103.067 40.801 103.067 46.304 102.306 46.304"/>
    <polyline fill="#FFFFFF" points="104.508 46.304 104.508 40.801 108.036 40.801 108.036 41.489 105.325 41.489 105.325 43.188 107.712 43.188 107.712 43.876 105.325 43.876 105.325 45.616 108.101 45.616 108.101 46.304 104.508 46.304"/>
    <polyline fill="#FFFFFF" points="110.529 46.304 110.529 41.489 108.675 41.489 108.675 40.801 113.199 40.801 113.199 41.489 111.346 41.489 111.346 46.304 110.529 46.304"/>
    <polyline fill="#FFFFFF" points="118.54 46.304 117.253 41.918 115.967 46.304 115.117 46.304 113.652 40.801 114.461 40.801 115.578 45.154 116.865 40.801 117.642 40.801 118.937 45.171 120.062 40.801 120.855 40.801 119.39 46.304 118.54 46.304"/>
    <path fill="#FFFFFF" d="M124.1 45.68C124.456 45.68 124.773 45.59 125.051 45.41 125.329 45.229 125.546 44.979 125.702 44.661 125.859 44.343 125.937 43.973 125.937 43.552 125.937 43.131 125.859 42.762 125.702 42.443 125.546 42.125 125.329 41.876 125.051 41.695 124.773 41.514 124.456 41.424 124.1 41.424 123.744 41.424 123.428 41.514 123.153 41.695 122.878 41.876 122.662 42.125 122.506 42.443 122.349 42.762 122.271 43.131 122.271 43.552 122.271 43.973 122.349 44.343 122.506 44.661 122.662 44.979 122.878 45.229 123.153 45.41 123.428 45.59 123.744 45.68 124.1 45.68zM124.1 46.393C123.582 46.393 123.124 46.271 122.724 46.029 122.325 45.786 122.011 45.451 121.782 45.025 121.552 44.599 121.438 44.108 121.438 43.552 121.438 42.997 121.552 42.506 121.782 42.08 122.011 41.653 122.325 41.319 122.724 41.076 123.124 40.833 123.582 40.712 124.1 40.712 124.618 40.712 125.078 40.833 125.48 41.076 125.882 41.319 126.197 41.653 126.427 42.08 126.656 42.506 126.771 42.997 126.771 43.552 126.771 44.108 126.656 44.599 126.427 45.025 126.197 45.451 125.882 45.786 125.48 46.029 125.078 46.271 124.618 46.393 124.1 46.393zM128.737 43.398L129.862 43.398C130.212 43.398 130.492 43.312 130.699 43.14 130.907 42.967 131.011 42.735 131.011 42.443 131.011 42.152 130.907 41.92 130.699 41.747 130.492 41.575 130.212 41.489 129.862 41.489L128.737 41.489 128.737 43.398zM128.737 44.07L128.737 46.304 127.92 46.304 127.92 40.801 129.862 40.801C130.471 40.801 130.954 40.948 131.31 41.242 131.667 41.536 131.844 41.937 131.844 42.443 131.844 42.827 131.737 43.151 131.521 43.415 131.305 43.679 131.008 43.865 130.631 43.973L131.966 46.304 131.035 46.304 129.781 44.07 128.737 44.07z"/>
    <polyline fill="#FFFFFF" points="136.287 46.304 133.819 43.528 133.819 46.304 133.002 46.304 133.002 40.801 133.819 40.801 133.819 43.212 136.126 40.801 137.137 40.801 134.685 43.326 137.315 46.304 136.287 46.304"/>
    <polyline fill="#FFFFFF" points="8.978 27.873 21.712 27.873 21.712 34.623 .607 34.623 .607 4.023 8.978 4.023 8.978 27.873"/>
    <path fill="#FFFFFF" d="M31.657 27.198C31.657 27.888 31.911 28.451 32.422 28.885 32.932 29.321 33.592 29.538 34.402 29.538 35.482 29.538 36.389 29.171 37.124 28.435 37.859 27.701 38.227 26.778 38.227 25.668L38.227 24.903C37.417 24.753 36.562 24.678 35.662 24.678 34.521 24.678 33.569 24.874 32.804 25.263 32.039 25.653 31.657 26.298 31.657 27.198zM38.542 34.623L38.137 31.608C36.636 34.008 34.357 35.208 31.297 35.208 29.947 35.208 28.724 34.916 27.629 34.331 26.534 33.746 25.664 32.943 25.019 31.923 24.374 30.903 24.052 29.718 24.052 28.368 24.052 25.819 25.049 23.839 27.044 22.428 29.039 21.018 31.672 20.313 34.942 20.313 35.961 20.313 37.041 20.403 38.182 20.583 38.061 19.443 37.574 18.581 36.719 17.996 35.864 17.411 34.821 17.118 33.592 17.118 32.512 17.118 31.424 17.32 30.329 17.725 29.234 18.131 28.192 18.618 27.202 19.188L24.547 14.148C26.047 13.188 27.666 12.446 29.407 11.921 31.146 11.396 32.886 11.133 34.627 11.133 36.726 11.133 38.616 11.493 40.297 12.213 41.977 12.933 43.296 14.028 44.257 15.498 45.217 16.968 45.697 18.828 45.697 21.078L45.697 34.623 38.542 34.623zM58.522 21.978L58.522 34.623 50.692 34.623 50.692 11.718 57.847 11.718 58.252 14.733C59.001 13.653 59.977 12.783 61.177 12.123 62.376 11.464 63.697 11.133 65.137 11.133 67.626 11.133 69.621 11.943 71.122 13.563 72.622 15.183 73.372 17.508 73.372 20.538L73.372 34.623 65.542 34.623 65.542 21.438C65.542 20.088 65.241 19.091 64.642 18.445 64.041 17.8 63.202 17.478 62.122 17.478 61.042 17.478 60.171 17.823 59.512 18.513 58.852 19.204 58.522 20.358 58.522 21.978M86.961 35.208C84.981 35.208 83.128 34.893 81.404 34.263 79.678 33.633 78.126 32.733 76.746 31.563L80.076 27.153C81.126 27.993 82.259 28.676 83.474 29.2 84.689 29.726 85.881 29.988 87.051 29.988 87.831 29.988 88.453 29.853 88.919 29.583 89.384 29.313 89.616 28.908 89.616 28.368 89.616 27.798 89.353 27.34 88.829 26.996 88.303 26.651 87.366 26.313 86.016 25.983L83.856 25.443C79.566 24.303 77.421 22.008 77.421 18.558 77.421 17.028 77.841 15.708 78.681 14.598 79.521 13.488 80.676 12.633 82.146 12.033 83.616 11.433 85.326 11.133 87.276 11.133 89.196 11.133 91.003 11.433 92.699 12.033 94.393 12.633 95.946 13.503 97.356 14.643L93.936 19.143C92.886 18.303 91.776 17.629 90.606 17.118 89.436 16.608 88.341 16.353 87.321 16.353 85.671 16.353 84.846 16.893 84.846 17.973 84.846 18.453 85.094 18.843 85.589 19.143 86.084 19.443 86.781 19.714 87.681 19.953L90.606 20.763C92.796 21.363 94.416 22.263 95.466 23.463 96.516 24.663 97.041 26.089 97.041 27.738 97.041 29.238 96.621 30.55 95.781 31.675 94.941 32.8 93.763 33.67 92.249 34.286 90.733 34.9 88.971 35.208 86.961 35.208M101.316 34.623L101.316 11.718C102.576 11.988 103.851 12.123 105.141 12.123 106.461 12.123 107.796 11.988 109.146 11.718L109.146 34.623 101.316 34.623M122.466 21.978L122.466 34.623 114.636 34.623 114.636 11.718 121.791 11.718 122.196 14.733C122.945 13.653 123.92 12.783 125.121 12.123 126.32 11.464 127.641 11.133 129.081 11.133 131.57 11.133 133.565 11.943 135.066 13.563 136.565 15.183 137.316 17.508 137.316 20.538L137.316 34.623 129.486 34.623 129.486 21.438C129.486 20.088 129.185 19.091 128.586 18.445 127.985 17.8 127.146 17.478 126.066 17.478 124.986 17.478 124.115 17.823 123.456 18.513 122.795 19.204 122.466 20.358 122.466 21.978M153.425 27.738C154.745 27.738 155.81 27.265 156.62 26.32 157.43 25.376 157.835 24.108 157.835 22.518 157.835 20.928 157.43 19.661 156.62 18.715 155.81 17.77 154.745 17.298 153.425 17.298 152.075 17.298 150.995 17.77 150.185 18.715 149.375 19.661 148.97 20.928 148.97 22.518 148.97 24.078 149.375 25.339 150.185 26.298 150.995 27.258 152.075 27.738 153.425 27.738zM165.575 32.193C165.575 34.533 165.035 36.536 163.955 38.2 162.875 39.865 161.382 41.14 159.478 42.026 157.572 42.91 155.36 43.353 152.84 43.353 150.8 43.353 148.865 43.083 147.035 42.543 145.205 42.002 143.57 41.283 142.13 40.383L145.055 35.343C146.074 35.943 147.147 36.43 148.272 36.805 149.397 37.18 150.56 37.368 151.76 37.368 153.77 37.368 155.27 36.918 156.26 36.018 157.25 35.118 157.745 33.843 157.745 32.193L157.745 31.383C156.965 32.164 156.027 32.786 154.933 33.251 153.837 33.716 152.689 33.948 151.49 33.948 149.42 33.948 147.597 33.461 146.022 32.486 144.448 31.511 143.217 30.161 142.333 28.435 141.447 26.711 141.005 24.738 141.005 22.518 141.005 20.268 141.439 18.288 142.31 16.578 143.18 14.868 144.395 13.533 145.955 12.573 147.515 11.613 149.314 11.133 151.355 11.133 152.735 11.133 154.017 11.464 155.203 12.123 156.387 12.783 157.324 13.653 158.015 14.733L158.42 11.718 165.575 11.718 165.575 32.193z"/>
    <path class="no-color-change" fill="#009BFF" d="M193.294 35.208C190.804 35.208 188.419 34.78 186.139 33.925 183.859 33.07 181.879 31.848 180.199 30.258L184.249 25.173C185.449 26.252 186.799 27.101 188.299 27.715 189.799 28.331 191.449 28.638 193.249 28.638 194.449 28.638 195.394 28.428 196.084 28.008 196.774 27.589 197.119 26.958 197.119 26.118 197.119 25.308 196.714 24.655 195.904 24.161 195.094 23.666 193.669 23.148 191.629 22.608L189.74 22.113C186.979 21.393 184.879 20.291 183.439 18.805 181.999 17.32 181.279 15.438 181.279 13.158 181.279 11.208 181.789 9.498 182.809 8.028 183.829 6.558 185.24 5.425 187.039 4.631 188.839 3.836 190.924 3.438 193.294 3.438 195.634 3.438 197.869 3.865 199.999 4.72 202.129 5.575 204.019 6.738 205.669 8.208L201.484 13.473C200.404 12.544 199.137 11.733 197.682 11.043 196.226 10.353 194.779 10.008 193.339 10.008 192.139 10.008 191.217 10.211 190.572 10.615 189.927 11.02 189.605 11.613 189.605 12.393 189.605 13.113 189.942 13.736 190.617 14.26 191.292 14.786 192.454 15.273 194.105 15.723L196.399 16.353C199.699 17.252 202.032 18.483 203.397 20.043 204.762 21.603 205.444 23.418 205.444 25.488 205.444 27.438 204.942 29.141 203.937 30.595 202.931 32.051 201.514 33.183 199.684 33.993 197.854 34.803 195.724 35.208 193.294 35.208M226.729 33.138C225.799 33.768 224.734 34.271 223.534 34.645 222.334 35.02 221.074 35.208 219.754 35.208 217.294 35.208 215.336 34.496 213.882 33.07 212.426 31.646 211.699 29.733 211.699 27.333L211.699 17.568 207.964 17.568 207.964 11.718 212.059 11.718 213.049 5.328 219.529 5.328 219.529 11.718 225.514 11.718 225.514 17.568 219.529 17.568 219.529 26.343C219.529 27.124 219.761 27.731 220.227 28.166 220.691 28.601 221.314 28.818 222.094 28.818 222.484 28.818 222.882 28.743 223.287 28.593 223.692 28.443 224.074 28.263 224.434 28.053L226.729 33.138M236.628 27.198C236.628 27.888 236.883 28.451 237.394 28.885 237.903 29.321 238.563 29.538 239.374 29.538 240.454 29.538 241.361 29.171 242.096 28.435 242.831 27.701 243.199 26.778 243.199 25.668L243.199 24.903C242.389 24.753 241.534 24.678 240.634 24.678 239.493 24.678 238.541 24.874 237.776 25.263 237.011 25.653 236.628 26.298 236.628 27.198zM243.514 34.623L243.108 31.608C241.608 34.008 239.329 35.208 236.269 35.208 234.918 35.208 233.696 34.916 232.601 34.331 231.506 33.746 230.636 32.943 229.991 31.923 229.346 30.903 229.023 29.718 229.023 28.368 229.023 25.819 230.021 23.839 232.016 22.428 234.011 21.018 236.644 20.313 239.914 20.313 240.933 20.313 242.013 20.403 243.154 20.583 243.033 19.443 242.546 18.581 241.691 17.996 240.836 17.411 239.793 17.118 238.563 17.118 237.483 17.118 236.396 17.32 235.301 17.725 234.206 18.131 233.164 18.618 232.174 19.188L229.519 14.148C231.019 13.188 232.638 12.446 234.378 11.921 236.118 11.396 237.858 11.133 239.599 11.133 241.698 11.133 243.588 11.493 245.269 12.213 246.948 12.933 248.268 14.028 249.229 15.498 250.188 16.968 250.668 18.828 250.668 21.078L250.668 34.623 243.514 34.623zM272.539 33.138C271.608 33.768 270.543 34.271 269.344 34.645 268.144 35.02 266.883 35.208 265.563 35.208 263.104 35.208 261.146 34.496 259.691 33.07 258.236 31.646 257.509 29.733 257.509 27.333L257.509 17.568 253.773 17.568 253.773 11.718 257.869 11.718 258.858 5.328 265.338 5.328 265.338 11.718 271.324 11.718 271.324 17.568 265.338 17.568 265.338 26.343C265.338 27.124 265.571 27.731 266.036 28.166 266.501 28.601 267.123 28.818 267.904 28.818 268.293 28.818 268.691 28.743 269.096 28.593 269.501 28.443 269.884 28.263 270.244 28.053L272.539 33.138M286.443 16.803C283.893 16.803 282.363 18.153 281.853 20.853L290.583 20.853C290.373 19.383 289.87 18.34 289.076 17.725 288.28 17.111 287.403 16.803 286.443 16.803zM297.153 32.283C296.013 33.093 294.565 33.783 292.811 34.353 291.056 34.922 289.188 35.208 287.208 35.208 284.478 35.208 282.146 34.705 280.21 33.7 278.276 32.696 276.791 31.293 275.756 29.493 274.721 27.693 274.203 25.623 274.203 23.283 274.203 20.914 274.713 18.813 275.733 16.983 276.752 15.153 278.163 13.72 279.963 12.685 281.763 11.65 283.863 11.133 286.263 11.133 288.603 11.133 290.666 11.635 292.451 12.64 294.235 13.646 295.63 15.041 296.636 16.825 297.641 18.611 298.143 20.703 298.143 23.103 298.143 23.433 298.121 23.778 298.076 24.138 298.031 24.498 297.978 24.874 297.918 25.263L281.943 25.263C282.663 27.903 284.627 29.223 287.838 29.223 289.278 29.223 290.553 28.998 291.663 28.548 292.772 28.098 293.703 27.648 294.453 27.198L297.153 32.283zM320.913 35.208C315.783 35.208 312.212 33.018 310.203 28.638L316.862 25.443C317.342 26.433 317.867 27.153 318.438 27.603 319.007 28.053 319.727 28.278 320.598 28.278 321.647 28.278 322.45 28.001 323.005 27.445 323.56 26.891 323.837 25.999 323.837 24.768L323.837 4.023 332.208 4.023 332.208 24.543C332.208 26.763 331.742 28.668 330.813 30.258 329.882 31.848 328.569 33.07 326.875 33.925 325.18 34.78 323.192 35.208 320.913 35.208M348.947 28.998C350.327 28.998 351.429 28.465 352.255 27.401 353.08 26.336 353.492 24.919 353.492 23.148 353.492 21.378 353.08 19.968 352.255 18.918 351.429 17.868 350.327 17.343 348.947 17.343 347.567 17.343 346.464 17.868 345.64 18.918 344.814 19.968 344.402 21.378 344.402 23.148 344.402 24.919 344.814 26.336 345.64 27.401 346.464 28.465 347.567 28.998 348.947 28.998zM348.947 35.208C346.487 35.208 344.319 34.69 342.445 33.655 340.569 32.621 339.099 31.203 338.035 29.403 336.97 27.603 336.438 25.518 336.438 23.148 336.438 20.778 336.97 18.693 338.035 16.893 339.099 15.093 340.569 13.683 342.445 12.663 344.319 11.643 346.487 11.133 348.947 11.133 351.407 11.133 353.575 11.643 355.45 12.663 357.324 13.683 358.794 15.093 359.86 16.893 360.924 18.693 361.458 20.778 361.458 23.148 361.458 25.518 360.924 27.603 359.86 29.403 358.794 31.203 357.324 32.621 355.45 33.655 353.575 34.69 351.407 35.208 348.947 35.208zM380.672 34.623L380.267 31.608C379.517 32.718 378.535 33.595 377.32 34.24 376.105 34.885 374.792 35.208 373.382 35.208 370.712 35.208 368.672 34.42 367.262 32.845 365.852 31.27 365.147 28.998 365.147 26.028L365.147 11.718 372.977 11.718 372.977 25.127C372.977 27.618 374.117 28.863 376.397 28.863 378.797 28.863 379.997 27.363 379.997 24.363L379.997 11.718 387.827 11.718 387.827 34.623 380.672 34.623M401.146 25.758L401.146 34.623 393.317 34.623 393.317 11.718 400.472 11.718 400.967 15.543C401.446 14.313 402.234 13.315 403.329 12.55 404.424 11.786 405.692 11.403 407.132 11.403 407.942 11.403 408.556 11.508 408.977 11.718L408.977 18.873C408.646 18.754 408.279 18.664 407.874 18.603 407.469 18.543 407.011 18.513 406.501 18.513 404.941 18.513 403.659 19.091 402.654 20.246 401.649 21.401 401.146 23.238 401.146 25.758M420.586 21.978L420.586 34.623 412.756 34.623 412.756 11.718 419.911 11.718 420.316 14.733C421.066 13.653 422.041 12.783 423.241 12.123 424.441 11.464 425.761 11.133 427.201 11.133 429.691 11.133 431.686 11.943 433.186 13.563 434.686 15.183 435.436 17.508 435.436 20.538L435.436 34.623 427.606 34.623 427.606 21.438C427.606 20.088 427.306 19.091 426.706 18.445 426.106 17.8 425.266 17.478 424.187 17.478 423.106 17.478 422.236 17.823 421.576 18.513 420.916 19.204 420.586 20.358 420.586 21.978M446.686 27.198C446.686 27.888 446.94 28.451 447.451 28.885 447.96 29.321 448.621 29.538 449.431 29.538 450.511 29.538 451.418 29.171 452.153 28.435 452.888 27.701 453.256 26.778 453.256 25.668L453.256 24.903C452.446 24.753 451.591 24.678 450.691 24.678 449.55 24.678 448.598 24.874 447.833 25.263 447.068 25.653 446.686 26.298 446.686 27.198zM453.571 34.623L453.166 31.608C451.666 34.008 449.386 35.208 446.326 35.208 444.976 35.208 443.753 34.916 442.658 34.331 441.563 33.746 440.693 32.943 440.048 31.923 439.403 30.903 439.081 29.718 439.081 28.368 439.081 25.819 440.078 23.839 442.073 22.428 444.068 21.018 446.701 20.313 449.971 20.313 450.99 20.313 452.07 20.403 453.211 20.583 453.091 19.443 452.604 18.581 451.749 17.996 450.894 17.411 449.851 17.118 448.621 17.118 447.541 17.118 446.453 17.32 445.358 17.725 444.263 18.131 443.221 18.618 442.231 19.188L439.576 14.148C441.076 13.188 442.696 12.446 444.436 11.921 446.175 11.396 447.916 11.133 449.656 11.133 451.755 11.133 453.646 11.493 455.326 12.213 457.006 12.933 458.325 14.028 459.286 15.498 460.246 16.968 460.726 18.828 460.726 21.078L460.726 34.623 453.571 34.623z"/>
    <polygon class="no-color-change" fill="#009BFF" points="465.721 34.623 473.551 34.623 473.551 1.773 465.721 1.773"/>
    <path class="no-color-change" fill="#009BFF" d="M105.141,9.918 C103.851,9.918 102.748,9.461 101.834,8.546 C100.918,7.631 100.461,6.528 100.461,5.238 C100.461,3.948 100.918,2.846 101.834,1.93 C102.748,1.016 103.851,0.558 105.141,0.558 C106.431,0.558 107.533,1.016 108.449,1.93 C109.363,2.846 109.821,3.948 109.821,5.238 C109.821,6.528 109.363,7.631 108.449,8.546 C107.533,9.461 106.431,9.918 105.141,9.918"/>
  </g>
</svg>
