<svg xmlns="http://www.w3.org/2000/svg" width="474" height="44" viewBox="0 0 474 44">
  <g fill="none" fill-rule="evenodd">
    <polyline fill="#FFFFFE" points="8.977 27.913 21.712 27.913 21.712 34.663 .607 34.663 .607 4.063 8.977 4.063 8.977 27.913"/>
    <path fill="#FFFFFE" d="M31.656 27.238C31.656 27.928 31.911 28.491 32.421 28.925 32.931 29.361 33.591 29.578 34.401 29.578 35.481 29.578 36.388 29.21 37.124 28.475 37.859 27.741 38.226 26.818 38.226 25.708L38.226 24.943C37.416 24.793 36.561 24.718 35.661 24.718 34.521 24.718 33.569 24.914 32.804 25.303 32.039 25.693 31.656 26.338 31.656 27.238zM38.541 34.663L38.136 31.648C36.636 34.048 34.356 35.248 31.296 35.248 29.946 35.248 28.724 34.956 27.629 34.371 26.533 33.786 25.664 32.983 25.019 31.963 24.373 30.943 24.051 29.758 24.051 28.408 24.051 25.858 25.048 23.878 27.044 22.468 29.039 21.058 31.671 20.353 34.941 20.353 35.961 20.353 37.041 20.443 38.181 20.623 38.061 19.483 37.574 18.621 36.719 18.036 35.864 17.451 34.821 17.158 33.591 17.158 32.511 17.158 31.424 17.36 30.329 17.765 29.233 18.17 28.191 18.658 27.201 19.228L24.546 14.188C26.046 13.228 27.666 12.486 29.406 11.96 31.146 11.436 32.886 11.173 34.626 11.173 36.726 11.173 38.616 11.533 40.296 12.253 41.976 12.973 43.296 14.068 44.256 15.538 45.216 17.008 45.696 18.868 45.696 21.118L45.696 34.663 38.541 34.663 38.541 34.663zM58.521 22.018L58.521 34.663 50.691 34.663 50.691 11.758 57.846 11.758 58.251 14.773C59.001 13.693 59.976 12.823 61.176 12.163 62.376 11.503 63.696 11.173 65.136 11.173 67.626 11.173 69.621 11.983 71.121 13.603 72.621 15.223 73.371 17.548 73.371 20.578L73.371 34.663 65.541 34.663 65.541 21.478C65.541 20.128 65.241 19.131 64.641 18.485 64.041 17.84 63.201 17.518 62.121 17.518 61.041 17.518 60.171 17.863 59.511 18.553 58.851 19.244 58.521 20.398 58.521 22.018M86.961 35.248C84.981 35.248 83.128 34.933 81.403 34.303 79.678 33.673 78.125 32.773 76.746 31.603L80.076 27.193C81.126 28.033 82.258 28.716 83.473 29.24 84.688 29.766 85.881 30.028 87.051 30.028 87.831 30.028 88.453 29.893 88.918 29.623 89.383 29.353 89.616 28.948 89.616 28.408 89.616 27.838 89.353 27.38 88.828 27.036 88.303 26.691 87.366 26.353 86.016 26.023L83.856 25.483C79.565 24.343 77.421 22.048 77.421 18.598 77.421 17.068 77.841 15.748 78.681 14.638 79.52 13.528 80.676 12.673 82.146 12.073 83.615 11.473 85.325 11.173 87.276 11.173 89.195 11.173 91.003 11.473 92.698 12.073 94.393 12.673 95.945 13.543 97.356 14.683L93.936 19.183C92.885 18.343 91.776 17.668 90.606 17.158 89.436 16.648 88.34 16.393 87.321 16.393 85.67 16.393 84.846 16.933 84.846 18.013 84.846 18.493 85.093 18.883 85.588 19.183 86.083 19.483 86.781 19.753 87.681 19.993L90.606 20.803C92.795 21.403 94.415 22.303 95.466 23.503 96.515 24.703 97.041 26.128 97.041 27.778 97.041 29.278 96.62 30.59 95.781 31.715 94.94 32.84 93.763 33.71 92.248 34.326 90.733 34.94 88.97 35.248 86.961 35.248M101.316 34.663L101.316 11.758C102.576 12.028 103.85 12.163 105.141 12.163 106.46 12.163 107.796 12.028 109.146 11.758L109.146 34.663 101.316 34.663M122.465 22.018L122.465 34.663 114.635 34.663 114.635 11.758 121.79 11.758 122.195 14.773C122.945 13.693 123.92 12.823 125.12 12.163 126.32 11.503 127.64 11.173 129.08 11.173 131.57 11.173 133.565 11.983 135.065 13.603 136.565 15.223 137.315 17.548 137.315 20.578L137.315 34.663 129.485 34.663 129.485 21.478C129.485 20.128 129.185 19.131 128.585 18.485 127.985 17.84 127.145 17.518 126.065 17.518 124.985 17.518 124.115 17.863 123.455 18.553 122.795 19.244 122.465 20.398 122.465 22.018M153.425 27.778C154.744 27.778 155.81 27.305 156.62 26.36 157.43 25.416 157.835 24.148 157.835 22.558 157.835 20.968 157.43 19.701 156.62 18.755 155.81 17.81 154.744 17.338 153.425 17.338 152.075 17.338 150.995 17.81 150.185 18.755 149.375 19.701 148.97 20.968 148.97 22.558 148.97 24.118 149.375 25.378 150.185 26.338 150.995 27.298 152.075 27.778 153.425 27.778zM165.575 32.233C165.575 34.573 165.034 36.576 163.955 38.24 162.875 39.905 161.382 41.18 159.477 42.065 157.572 42.95 155.36 43.393 152.84 43.393 150.799 43.393 148.864 43.123 147.034 42.583 145.204 42.042 143.57 41.323 142.13 40.423L145.055 35.383C146.074 35.983 147.147 36.47 148.272 36.845 149.397 37.22 150.559 37.408 151.76 37.408 153.769 37.408 155.27 36.958 156.26 36.058 157.25 35.158 157.745 33.883 157.745 32.233L157.745 31.423C156.964 32.204 156.027 32.826 154.932 33.291 153.837 33.756 152.689 33.988 151.49 33.988 149.419 33.988 147.597 33.501 146.022 32.525 144.447 31.551 143.217 30.201 142.332 28.475 141.447 26.751 141.005 24.778 141.005 22.558 141.005 20.308 141.439 18.328 142.31 16.618 143.179 14.908 144.394 13.573 145.955 12.613 147.514 11.653 149.314 11.173 151.355 11.173 152.734 11.173 154.017 11.503 155.202 12.163 156.387 12.823 157.324 13.693 158.015 14.773L158.419 11.758 165.575 11.758 165.575 32.233 165.575 32.233z"/>
    <path fill="#009BFF" class="no-color-change" d="M193.294 35.248C190.804 35.248 188.419 34.82 186.139 33.965 183.859 33.11 181.879 31.888 180.199 30.298L184.249 25.213C185.449 26.292 186.798 27.141 188.299 27.755 189.799 28.371 191.449 28.678 193.249 28.678 194.449 28.678 195.393 28.468 196.084 28.048 196.774 27.628 197.119 26.998 197.119 26.158 197.119 25.348 196.714 24.695 195.904 24.201 195.094 23.706 193.669 23.188 191.629 22.648L189.739 22.153C186.979 21.433 184.879 20.331 183.439 18.845 181.999 17.36 181.279 15.478 181.279 13.198 181.279 11.248 181.789 9.538 182.809 8.068 183.828 6.598 185.239 5.465 187.039 4.671 188.839 3.876 190.924 3.478 193.294 3.478 195.634 3.478 197.868 3.905 199.999 4.76 202.129 5.615 204.019 6.778 205.669 8.248L201.484 13.513C200.404 12.584 199.136 11.773 197.681 11.083 196.226 10.393 194.779 10.048 193.339 10.048 192.139 10.048 191.216 10.251 190.571 10.655 189.926 11.06 189.604 11.653 189.604 12.433 189.604 13.153 189.941 13.776 190.617 14.3 191.292 14.826 192.454 15.313 194.104 15.763L196.399 16.393C199.699 17.292 202.031 18.523 203.397 20.083 204.761 21.643 205.444 23.458 205.444 25.528 205.444 27.478 204.941 29.181 203.936 30.635 202.931 32.091 201.513 33.223 199.684 34.033 197.854 34.843 195.724 35.248 193.294 35.248M226.729 33.178C225.798 33.808 224.733 34.311 223.534 34.685 222.334 35.06 221.074 35.248 219.754 35.248 217.294 35.248 215.336 34.536 213.881 33.11 212.426 31.686 211.699 29.773 211.699 27.373L211.699 17.608 207.964 17.608 207.964 11.758 212.059 11.758 213.049 5.368 219.529 5.368 219.529 11.758 225.514 11.758 225.514 17.608 219.529 17.608 219.529 26.383C219.529 27.164 219.761 27.771 220.226 28.206 220.691 28.641 221.313 28.858 222.094 28.858 222.483 28.858 222.881 28.783 223.286 28.633 223.691 28.483 224.074 28.303 224.434 28.093L226.729 33.178M236.628 27.238C236.628 27.928 236.883 28.491 237.393 28.925 237.903 29.361 238.563 29.578 239.373 29.578 240.453 29.578 241.36 29.21 242.096 28.475 242.831 27.741 243.198 26.818 243.198 25.708L243.198 24.943C242.388 24.793 241.533 24.718 240.633 24.718 239.493 24.718 238.541 24.914 237.776 25.303 237.011 25.693 236.628 26.338 236.628 27.238zM243.513 34.663L243.108 31.648C241.608 34.048 239.328 35.248 236.268 35.248 234.918 35.248 233.695 34.956 232.601 34.371 231.505 33.786 230.635 32.983 229.991 31.963 229.345 30.943 229.023 29.758 229.023 28.408 229.023 25.858 230.02 23.878 232.016 22.468 234.01 21.058 236.643 20.353 239.913 20.353 240.933 20.353 242.013 20.443 243.153 20.623 243.033 19.483 242.545 18.621 241.69 18.036 240.836 17.451 239.793 17.158 238.563 17.158 237.483 17.158 236.396 17.36 235.301 17.765 234.205 18.17 233.163 18.658 232.173 19.228L229.518 14.188C231.018 13.228 232.638 12.486 234.378 11.96 236.118 11.436 237.858 11.173 239.598 11.173 241.698 11.173 243.588 11.533 245.268 12.253 246.948 12.973 248.268 14.068 249.228 15.538 250.188 17.008 250.668 18.868 250.668 21.118L250.668 34.663 243.513 34.663 243.513 34.663zM272.538 33.178C271.608 33.808 270.543 34.311 269.343 34.685 268.143 35.06 266.883 35.248 265.563 35.248 263.103 35.248 261.146 34.536 259.69 33.11 258.235 31.686 257.508 29.773 257.508 27.373L257.508 17.608 253.773 17.608 253.773 11.758 257.868 11.758 258.858 5.368 265.338 5.368 265.338 11.758 271.323 11.758 271.323 17.608 265.338 17.608 265.338 26.383C265.338 27.164 265.57 27.771 266.036 28.206 266.501 28.641 267.123 28.858 267.903 28.858 268.293 28.858 268.69 28.783 269.096 28.633 269.501 28.483 269.883 28.303 270.243 28.093L272.538 33.178M286.443 16.843C283.893 16.843 282.362 18.193 281.853 20.893L290.583 20.893C290.373 19.423 289.87 18.38 289.075 17.765 288.28 17.151 287.402 16.843 286.443 16.843zM297.153 32.323C296.012 33.133 294.565 33.823 292.81 34.393 291.055 34.962 289.188 35.248 287.208 35.248 284.478 35.248 282.145 34.745 280.21 33.74 278.275 32.736 276.79 31.333 275.755 29.533 274.72 27.733 274.203 25.663 274.203 23.323 274.203 20.954 274.712 18.853 275.732 17.023 276.752 15.193 278.163 13.76 279.963 12.725 281.763 11.69 283.862 11.173 286.263 11.173 288.603 11.173 290.665 11.675 292.45 12.68 294.235 13.686 295.63 15.081 296.635 16.865 297.64 18.651 298.143 20.743 298.143 23.143 298.143 23.473 298.12 23.818 298.075 24.178 298.03 24.538 297.978 24.914 297.918 25.303L281.943 25.303C282.663 27.943 284.627 29.263 287.838 29.263 289.278 29.263 290.552 29.038 291.663 28.588 292.772 28.138 293.703 27.688 294.453 27.238L297.153 32.323 297.153 32.323zM320.912 35.248C315.782 35.248 312.211 33.058 310.202 28.678L316.862 25.483C317.342 26.473 317.867 27.193 318.437 27.643 319.006 28.093 319.727 28.318 320.597 28.318 321.647 28.318 322.449 28.041 323.004 27.485 323.559 26.931 323.837 26.039 323.837 24.808L323.837 4.063 332.207 4.063 332.207 24.583C332.207 26.803 331.742 28.708 330.812 30.298 329.882 31.888 328.569 33.11 326.875 33.965 325.179 34.82 323.191 35.248 320.912 35.248M348.947 29.038C350.326 29.038 351.429 28.505 352.254 27.44 353.079 26.376 353.492 24.959 353.492 23.188 353.492 21.418 353.079 20.008 352.254 18.958 351.429 17.908 350.326 17.383 348.947 17.383 347.566 17.383 346.464 17.908 345.639 18.958 344.814 20.008 344.402 21.418 344.402 23.188 344.402 24.959 344.814 26.376 345.639 27.44 346.464 28.505 347.566 29.038 348.947 29.038zM348.947 35.248C346.486 35.248 344.319 34.73 342.444 33.695 340.569 32.661 339.099 31.243 338.034 29.443 336.969 27.643 336.437 25.558 336.437 23.188 336.437 20.818 336.969 18.733 338.034 16.933 339.099 15.133 340.569 13.723 342.444 12.703 344.319 11.683 346.486 11.173 348.947 11.173 351.406 11.173 353.574 11.683 355.449 12.703 357.324 13.723 358.794 15.133 359.859 16.933 360.924 18.733 361.457 20.818 361.457 23.188 361.457 25.558 360.924 27.643 359.859 29.443 358.794 31.243 357.324 32.661 355.449 33.695 353.574 34.73 351.406 35.248 348.947 35.248L348.947 35.248zM380.672 34.663L380.267 31.648C379.517 32.758 378.534 33.635 377.319 34.28 376.105 34.925 374.792 35.248 373.382 35.248 370.711 35.248 368.671 34.46 367.262 32.885 365.851 31.31 365.147 29.038 365.147 26.068L365.147 11.758 372.977 11.758 372.977 25.167C372.977 27.658 374.117 28.903 376.397 28.903 378.796 28.903 379.997 27.403 379.997 24.403L379.997 11.758 387.827 11.758 387.827 34.663 380.672 34.663M401.146 25.798L401.146 34.663 393.316 34.663 393.316 11.758 400.471 11.758 400.966 15.583C401.446 14.353 402.233 13.355 403.329 12.59 404.423 11.826 405.691 11.443 407.131 11.443 407.941 11.443 408.556 11.548 408.976 11.758L408.976 18.913C408.646 18.793 408.279 18.704 407.874 18.643 407.469 18.583 407.011 18.553 406.501 18.553 404.941 18.553 403.658 19.131 402.654 20.286 401.648 21.441 401.146 23.278 401.146 25.798M420.586 22.018L420.586 34.663 412.756 34.663 412.756 11.758 419.911 11.758 420.316 14.773C421.065 13.693 422.041 12.823 423.241 12.163 424.44 11.503 425.761 11.173 427.201 11.173 429.69 11.173 431.685 11.983 433.186 13.603 434.686 15.223 435.436 17.548 435.436 20.578L435.436 34.663 427.606 34.663 427.606 21.478C427.606 20.128 427.306 19.131 426.706 18.485 426.106 17.84 425.266 17.518 424.186 17.518 423.106 17.518 422.235 17.863 421.576 18.553 420.916 19.244 420.586 20.398 420.586 22.018M446.686 27.238C446.686 27.928 446.94 28.491 447.45 28.925 447.96 29.361 448.621 29.578 449.43 29.578 450.51 29.578 451.418 29.21 452.153 28.475 452.888 27.741 453.255 26.818 453.255 25.708L453.255 24.943C452.445 24.793 451.59 24.718 450.69 24.718 449.55 24.718 448.598 24.914 447.833 25.303 447.068 25.693 446.686 26.338 446.686 27.238zM453.57 34.663L453.166 31.648C451.665 34.048 449.385 35.248 446.325 35.248 444.976 35.248 443.753 34.956 442.658 34.371 441.563 33.786 440.693 32.983 440.048 31.963 439.402 30.943 439.081 29.758 439.081 28.408 439.081 25.858 440.078 23.878 442.073 22.468 444.068 21.058 446.7 20.353 449.97 20.353 450.99 20.353 452.07 20.443 453.211 20.623 453.09 19.483 452.603 18.621 451.748 18.036 450.893 17.451 449.85 17.158 448.621 17.158 447.541 17.158 446.453 17.36 445.358 17.765 444.262 18.17 443.22 18.658 442.231 19.228L439.575 14.188C441.075 13.228 442.695 12.486 444.436 11.96 446.175 11.436 447.915 11.173 449.655 11.173 451.755 11.173 453.645 11.533 455.325 12.253 457.005 12.973 458.325 14.068 459.285 15.538 460.245 17.008 460.726 18.868 460.726 21.118L460.726 34.663 453.57 34.663 453.57 34.663z"/>
    <polygon fill="#009BFF" class="no-color-change" points="465.72 34.663 473.55 34.663 473.55 1.813 465.72 1.813"/>
    <path fill="#009BFF" class="no-color-change" d="M105.141,9.958 C103.85,9.958 102.748,9.501 101.833,8.585 C100.918,7.671 100.461,6.568 100.461,5.278 C100.461,3.988 100.918,2.886 101.833,1.97 C102.748,1.056 103.85,0.598 105.141,0.598 C106.43,0.598 107.533,1.056 108.448,1.97 C109.363,2.886 109.821,3.988 109.821,5.278 C109.821,6.568 109.363,7.671 108.448,8.585 C107.533,9.501 106.43,9.958 105.141,9.958"/>
  </g>
</svg>
