<svg xmlns="http://www.w3.org/2000/svg" width="349" height="55" viewBox="0 0 349 55">
  <g fill="none" fill-rule="evenodd">
    <path class='no-color-change' fill="#009BFF" d="M54.177,27.824 C54.177,42.737 42.09,54.824 27.177,54.824 C12.264,54.824 0.177,42.737 0.177,27.824 C0.177,12.911 12.264,0.824 27.177,0.824 C42.09,0.824 54.177,12.911 54.177,27.824"/>
    <path fill="#404040" d="M69.537 21.551C70.516 21.551 71.272 21.263 71.805 20.686 72.338 20.109 72.606 19.287 72.606 18.22L72.606 7.441 77.485 7.441 77.485 18.194C77.485 20.555 76.793 22.382 75.412 23.676 74.031 24.97 72.072 25.617 69.537 25.617 67.002 25.617 65.043 24.97 63.662 23.676 62.28 22.382 61.59 20.555 61.59 18.194L61.59 7.441 66.469 7.441 66.469 18.22C66.469 19.287 66.735 20.109 67.268 20.686 67.801 21.263 68.557 21.551 69.537 21.551M87.24 25.617C85.789 25.617 84.399 25.368 83.071 24.87 81.742 24.37 80.588 23.659 79.61 22.732L81.969 19.768C82.668 20.397 83.455 20.892 84.33 21.249 85.203 21.608 86.166 21.787 87.215 21.787 87.914 21.787 88.465 21.665 88.867 21.42 89.27 21.175 89.471 20.808 89.471 20.319 89.471 19.846 89.235 19.466 88.762 19.178 88.291 18.889 87.459 18.587 86.272 18.273L85.17 17.984C83.561 17.565 82.336 16.922 81.496 16.056 80.658 15.191 80.239 14.094 80.239 12.765 80.239 11.628 80.535 10.631 81.129 9.775 81.725 8.918 82.547 8.258 83.596 7.794 84.645 7.331 85.86 7.099 87.24 7.099 88.606 7.099 89.908 7.349 91.149 7.847 92.391 8.345 93.492 9.023 94.453 9.879L92.014 12.949C91.385 12.407 90.647 11.934 89.799 11.532 88.949 11.13 88.108 10.929 87.268 10.929 86.569 10.929 86.03 11.047 85.655 11.283 85.278 11.519 85.09 11.865 85.09 12.319 85.09 12.739 85.287 13.102 85.68 13.408 86.074 13.713 86.752 13.997 87.713 14.26L89.051 14.627C90.975 15.152 92.334 15.869 93.129 16.778 93.924 17.687 94.323 18.745 94.323 19.952 94.323 21.088 94.03 22.08 93.444 22.928 92.858 23.777 92.032 24.437 90.965 24.909 89.899 25.38 88.658 25.617 87.24 25.617M102.481 18.326L106.703 18.326 104.606 12.082 102.481 18.326zM109.063 25.276L107.936 21.945 101.248 21.945 100.119 25.276 95.293 25.276 101.824 7.441 107.49 7.441 114.022 25.276 109.063 25.276 109.063 25.276z"/>
    <polyline fill="#404040" points="125.219 25.276 125.219 11.374 119.922 11.374 119.922 7.441 135.397 7.441 135.397 11.374 130.098 11.374 130.098 25.276 125.219 25.276"/>
    <path fill="#404040" d="M145.6 21.578C146.455 21.578 147.203 21.359 147.842 20.922 148.481 20.485 148.983 19.877 149.35 19.099 149.717 18.321 149.901 17.416 149.901 16.384 149.901 15.353 149.717 14.444 149.35 13.657 148.983 12.87 148.481 12.253 147.842 11.807 147.203 11.362 146.455 11.139 145.6 11.139 144.742 11.139 143.994 11.362 143.356 11.807 142.719 12.253 142.215 12.87 141.848 13.657 141.481 14.444 141.297 15.353 141.297 16.384 141.297 17.416 141.481 18.321 141.848 19.099 142.215 19.877 142.719 20.485 143.356 20.922 143.994 21.359 144.742 21.578 145.6 21.578zM145.6 25.617C143.815 25.617 142.229 25.223 140.838 24.437 139.449 23.65 138.352 22.561 137.547 21.171 136.742 19.781 136.34 18.186 136.34 16.384 136.34 15.02 136.567 13.775 137.022 12.647 137.477 11.519 138.123 10.539 138.963 9.709 139.803 8.879 140.782 8.236 141.901 7.782 143.02 7.327 144.252 7.099 145.6 7.099 146.946 7.099 148.178 7.327 149.297 7.782 150.416 8.236 151.395 8.879 152.235 9.709 153.074 10.539 153.721 11.519 154.176 12.647 154.631 13.775 154.858 15.02 154.858 16.384 154.858 18.186 154.455 19.781 153.651 21.171 152.846 22.561 151.75 23.65 150.36 24.437 148.969 25.223 147.383 25.617 145.6 25.617L145.6 25.617zM162.463 21.42L164.694 21.42C165.969 21.42 166.979 20.957 167.723 20.03 168.465 19.104 168.838 17.879 168.838 16.358 168.838 14.836 168.465 13.613 167.723 12.686 166.979 11.759 165.969 11.296 164.694 11.296L162.463 11.296 162.463 21.42zM157.664 25.276L157.664 7.441 164.694 7.441C166.459 7.441 168.02 7.821 169.375 8.581 170.731 9.342 171.793 10.391 172.563 11.729 173.33 13.067 173.715 14.61 173.715 16.358 173.715 18.107 173.33 19.65 172.563 20.988 171.793 22.325 170.731 23.374 169.375 24.135 168.02 24.896 166.459 25.276 164.694 25.276L157.664 25.276 157.664 25.276zM181.532 18.326L185.754 18.326 183.657 12.082 181.532 18.326zM188.115 25.276L186.989 21.945 180.299 21.945 179.172 25.276 174.346 25.276 180.877 7.441 186.541 7.441 193.073 25.276 188.115 25.276 188.115 25.276z"/>
    <polyline fill="#404040" points="202.514 18.85 202.514 25.276 197.557 25.276 197.557 18.85 191.237 7.441 196.744 7.441 200.049 14.522 203.326 7.441 208.834 7.441 202.514 18.85"/>
    <polyline fill="#404040" points="227.797 25.276 220.795 14.995 220.795 25.276 216.309 25.276 216.309 7.441 220.768 7.441 227.744 17.906 227.744 7.441 232.256 7.441 232.256 25.276 227.797 25.276"/>
    <polyline fill="#404040" points="236.192 25.276 236.192 7.441 248.492 7.441 248.492 11.348 240.965 11.348 240.965 14.365 247.653 14.365 247.653 18.273 240.965 18.273 240.965 21.368 248.912 21.368 248.912 25.276 236.192 25.276"/>
    <polyline fill="#404040" points="255.914 25.276 255.914 11.374 250.617 11.374 250.617 7.441 266.092 7.441 266.092 11.374 260.793 11.374 260.793 25.276 255.914 25.276"/>
    <polyline fill="#404040" points="282.563 25.276 279.678 13.683 276.791 25.276 271.625 25.276 267.192 7.441 271.914 7.441 274.615 19.611 277.606 7.441 281.776 7.441 284.739 19.532 287.52 7.441 292.162 7.441 287.729 25.276 282.563 25.276"/>
    <path fill="#404040" d="M302.549 21.578C303.405 21.578 304.153 21.359 304.791 20.922 305.43 20.485 305.932 19.877 306.299 19.099 306.666 18.321 306.85 17.416 306.85 16.384 306.85 15.353 306.666 14.444 306.299 13.657 305.932 12.87 305.43 12.253 304.791 11.807 304.153 11.362 303.405 11.139 302.549 11.139 301.692 11.139 300.944 11.362 300.305 11.807 299.668 12.253 299.164 12.87 298.797 13.657 298.43 14.444 298.246 15.353 298.246 16.384 298.246 17.416 298.43 18.321 298.797 19.099 299.164 19.877 299.668 20.485 300.305 20.922 300.944 21.359 301.692 21.578 302.549 21.578zM302.549 25.617C300.764 25.617 299.178 25.223 297.787 24.437 296.399 23.65 295.301 22.561 294.496 21.171 293.692 19.781 293.289 18.186 293.289 16.384 293.289 15.02 293.516 13.775 293.971 12.647 294.426 11.519 295.073 10.539 295.912 9.709 296.752 8.879 297.731 8.236 298.85 7.782 299.969 7.327 301.201 7.099 302.549 7.099 303.895 7.099 305.127 7.327 306.246 7.782 307.365 8.236 308.344 8.879 309.184 9.709 310.024 10.539 310.67 11.519 311.125 12.647 311.58 13.775 311.807 15.02 311.807 16.384 311.807 18.186 311.405 19.781 310.6 21.171 309.795 22.561 308.699 23.65 307.309 24.437 305.918 25.223 304.332 25.617 302.549 25.617L302.549 25.617zM319.387 15.65L322.01 15.65C322.762 15.65 323.356 15.454 323.793 15.06 324.231 14.666 324.449 14.128 324.449 13.447 324.449 12.8 324.231 12.28 323.793 11.886 323.356 11.493 322.762 11.296 322.01 11.296L319.387 11.296 319.387 15.65zM319.387 19.348L319.387 25.276 314.666 25.276 314.666 7.441 322.535 7.441C324.633 7.441 326.293 7.978 327.518 9.053 328.742 10.128 329.354 11.593 329.354 13.447 329.354 14.653 329.082 15.694 328.541 16.568 327.998 17.443 327.239 18.124 326.26 18.614L329.905 25.276 324.711 25.276 321.748 19.348 319.387 19.348 319.387 19.348z"/>
    <polyline fill="#404040" points="343.045 25.276 337.379 16.556 337.379 25.276 332.528 25.276 332.528 7.441 337.379 7.441 337.379 15.27 343.254 7.441 348.867 7.441 342.258 15.637 348.737 25.276 343.045 25.276"/>
    <polyline class='no-color-change' fill="#009BFF" points="66.469 44.195 73.893 44.195 73.893 48.129 61.59 48.129 61.59 30.294 66.469 30.294 66.469 44.195"/>
    <path class='no-color-change' fill="#009BFF" d="M82.311 41.179L86.533 41.179 84.436 34.936 82.311 41.179zM88.895 48.129L87.768 44.798 81.078 44.798 79.951 48.129 75.125 48.129 81.657 30.294 87.321 30.294 93.852 48.129 88.895 48.129 88.895 48.129zM102.481 48.47C101.03 48.47 99.639 48.221 98.311 47.723 96.981 47.224 95.826 46.512 94.848 45.585L97.209 42.621C97.908 43.25 98.694 43.745 99.569 44.103 100.444 44.461 101.405 44.641 102.453 44.641 103.153 44.641 103.703 44.519 104.106 44.274 104.508 44.029 104.709 43.662 104.709 43.172 104.709 42.7 104.475 42.32 104.002 42.032 103.53 41.743 102.699 41.441 101.51 41.126L100.408 40.837C98.799 40.418 97.576 39.776 96.737 38.91 95.897 38.044 95.477 36.948 95.477 35.618 95.477 34.482 95.774 33.485 96.369 32.628 96.963 31.772 97.785 31.112 98.834 30.648 99.883 30.185 101.1 29.953 102.481 29.953 103.844 29.953 105.147 30.203 106.389 30.701 107.629 31.199 108.731 31.876 109.694 32.733L107.254 35.802C106.625 35.26 105.885 34.787 105.037 34.385 104.19 33.984 103.346 33.783 102.506 33.783 101.807 33.783 101.27 33.901 100.893 34.136 100.518 34.372 100.33 34.718 100.33 35.172 100.33 35.592 100.526 35.955 100.92 36.261 101.313 36.567 101.99 36.851 102.953 37.114L104.289 37.481C106.213 38.005 107.573 38.722 108.369 39.631 109.164 40.54 109.563 41.598 109.563 42.805 109.563 43.942 109.27 44.934 108.684 45.782 108.098 46.63 107.272 47.29 106.205 47.762 105.139 48.234 103.897 48.47 102.481 48.47M126.951 48.47C125.133 48.47 123.537 48.077 122.164 47.29 120.791 46.503 119.717 45.414 118.938 44.025 118.16 42.634 117.772 41.021 117.772 39.185 117.772 37.349 118.16 35.741 118.938 34.36 119.717 32.978 120.791 31.898 122.164 31.12 123.537 30.342 125.133 29.953 126.951 29.953 128.49 29.953 129.875 30.263 131.108 30.884 132.342 31.505 133.395 32.401 134.27 33.573L130.412 35.854C129.959 35.278 129.448 34.823 128.879 34.491 128.311 34.159 127.651 33.993 126.899 33.993 125.657 33.993 124.653 34.46 123.883 35.395 123.114 36.33 122.729 37.594 122.729 39.185 122.729 40.777 123.114 42.049 123.883 43.001 124.653 43.954 125.657 44.431 126.899 44.431 127.668 44.431 128.35 44.244 128.944 43.868 129.539 43.492 130.037 43.05 130.44 42.542L134.27 44.825C133.412 46.014 132.358 46.918 131.108 47.539 129.858 48.16 128.473 48.47 126.951 48.47M141.483 38.503L144.106 38.503C144.856 38.503 145.451 38.307 145.889 37.913 146.324 37.52 146.543 36.982 146.543 36.3 146.543 35.654 146.324 35.133 145.889 34.74 145.451 34.346 144.856 34.15 144.106 34.15L141.483 34.15 141.483 38.503zM141.483 42.202L141.483 48.129 136.76 48.129 136.76 30.294 144.629 30.294C146.727 30.294 148.389 30.831 149.614 31.907 150.836 32.982 151.449 34.447 151.449 36.3 151.449 37.506 151.178 38.547 150.635 39.421 150.094 40.296 149.332 40.978 148.354 41.467L152 48.129 146.807 48.129 143.842 42.202 141.483 42.202 141.483 42.202zM161.967 44.405C162.946 44.405 163.701 44.117 164.235 43.539 164.768 42.962 165.035 42.141 165.035 41.074L165.035 30.294 169.914 30.294 169.914 41.047C169.914 43.409 169.223 45.236 167.842 46.53 166.461 47.824 164.502 48.47 161.967 48.47 159.432 48.47 157.473 47.824 156.092 46.53 154.709 45.236 154.02 43.409 154.02 41.047L154.02 30.294 158.899 30.294 158.899 41.074C158.899 42.141 159.164 42.962 159.698 43.539 160.231 44.117 160.987 44.405 161.967 44.405M181.664 48.47C179.846 48.47 178.25 48.077 176.877 47.29 175.504 46.503 174.43 45.414 173.651 44.025 172.873 42.634 172.485 41.021 172.485 39.185 172.485 37.349 172.873 35.741 173.651 34.36 174.43 32.978 175.504 31.898 176.877 31.12 178.25 30.342 179.846 29.953 181.664 29.953 183.203 29.953 184.588 30.263 185.821 30.884 187.055 31.505 188.108 32.401 188.983 33.573L185.125 35.854C184.672 35.278 184.16 34.823 183.592 34.491 183.024 34.159 182.364 33.993 181.612 33.993 180.369 33.993 179.365 34.46 178.596 35.395 177.826 36.33 177.442 37.594 177.442 39.185 177.442 40.777 177.826 42.049 178.596 43.001 179.365 43.954 180.369 44.431 181.612 44.431 182.381 44.431 183.063 44.244 183.657 43.868 184.252 43.492 184.75 43.05 185.153 42.542L188.983 44.825C188.125 46.014 187.071 46.918 185.821 47.539 184.571 48.16 183.186 48.47 181.664 48.47"/>
    <polyline class='no-color-change' fill="#009BFF" points="191.473 48.129 191.473 30.294 203.776 30.294 203.776 34.202 196.248 34.202 196.248 37.218 202.936 37.218 202.936 41.126 196.248 41.126 196.248 44.221 204.196 44.221 204.196 48.129 191.473 48.129"/>
    <path class='no-color-change' fill="#009BFF" d="M213.557,48.47 C212.106,48.47 210.715,48.221 209.387,47.723 C208.059,47.224 206.905,46.512 205.926,45.585 L208.285,42.621 C208.985,43.25 209.772,43.745 210.647,44.103 C211.52,44.461 212.483,44.641 213.532,44.641 C214.231,44.641 214.782,44.519 215.184,44.274 C215.586,44.029 215.787,43.662 215.787,43.172 C215.787,42.7 215.551,42.32 215.078,42.032 C214.608,41.743 213.776,41.441 212.588,41.126 L211.487,40.837 C209.877,40.418 208.653,39.776 207.813,38.91 C206.975,38.044 206.555,36.948 206.555,35.618 C206.555,34.482 206.852,33.485 207.446,32.628 C208.041,31.772 208.864,31.112 209.912,30.648 C210.961,30.185 212.176,29.953 213.557,29.953 C214.922,29.953 216.225,30.203 217.465,30.701 C218.707,31.199 219.809,31.876 220.77,32.733 L218.33,35.802 C217.701,35.26 216.963,34.787 216.115,34.385 C215.266,33.984 214.424,33.783 213.584,33.783 C212.885,33.783 212.346,33.901 211.971,34.136 C211.594,34.372 211.407,34.718 211.407,35.172 C211.407,35.592 211.604,35.955 211.996,36.261 C212.391,36.567 213.069,36.851 214.03,37.114 L215.367,37.481 C217.291,38.005 218.651,38.722 219.446,39.631 C220.24,40.54 220.639,41.598 220.639,42.805 C220.639,43.942 220.346,44.934 219.76,45.782 C219.174,46.63 218.348,47.29 217.282,47.762 C216.215,48.234 214.975,48.47 213.557,48.47"/>
  </g>
</svg>
