<svg xmlns="http://www.w3.org/2000/svg" width="470" height="45" viewBox="0 0 470 45">
  <g fill="none" fill-rule="evenodd">
    <polyline fill="#009BFF" class='no-color-change' points="8.727 24.957 21.462 24.957 21.462 31.707 .357 31.707 .357 1.107 8.727 1.107 8.727 24.957"/>
    <path fill="#009BFF" class='no-color-change' d="M31.406 24.282C31.406 24.972 31.661 25.535 32.172 25.969 32.681 26.405 33.341 26.622 34.151 26.622 35.232 26.622 36.139 26.255 36.874 25.519 37.609 24.785 37.976 23.862 37.976 22.752L37.976 21.987C37.166 21.837 36.311 21.762 35.411 21.762 34.271 21.762 33.319 21.958 32.554 22.347 31.789 22.737 31.406 23.382 31.406 24.282zM38.291 31.707L37.886 28.692C36.386 31.092 34.107 32.292 31.047 32.292 29.696 32.292 28.474 32 27.379 31.415 26.284 30.83 25.414 30.027 24.769 29.007 24.123 27.987 23.801 26.802 23.801 25.452 23.801 22.903 24.798 20.923 26.794 19.512 28.789 18.102 31.421 17.397 34.692 17.397 35.711 17.397 36.791 17.487 37.932 17.667 37.811 16.527 37.324 15.665 36.469 15.08 35.614 14.495 34.571 14.202 33.341 14.202 32.261 14.202 31.174 14.404 30.079 14.809 28.984 15.215 27.942 15.702 26.952 16.272L24.297 11.232C25.796 10.272 27.416 9.53 29.156 9.005 30.896 8.48 32.636 8.217 34.376 8.217 36.476 8.217 38.366 8.577 40.047 9.297 41.726 10.017 43.046 11.113 44.006 12.582 44.966 14.053 45.446 15.912 45.446 18.162L45.446 31.707 38.291 31.707zM58.946 32.292C56.966 32.292 55.114 31.977 53.389 31.347 51.663 30.717 50.111 29.817 48.731 28.647L52.061 24.237C53.111 25.077 54.244 25.76 55.459 26.284 56.674 26.81 57.866 27.072 59.036 27.072 59.816 27.072 60.438 26.937 60.904 26.667 61.369 26.397 61.601 25.992 61.601 25.452 61.601 24.882 61.338 24.424 60.814 24.08 60.289 23.735 59.351 23.397 58.001 23.067L55.841 22.527C51.551 21.387 49.406 19.093 49.406 15.642 49.406 14.112 49.826 12.792 50.666 11.682 51.506 10.573 52.661 9.717 54.131 9.117 55.601 8.517 57.311 8.217 59.261 8.217 61.181 8.217 62.989 8.517 64.684 9.117 66.378 9.717 67.931 10.587 69.341 11.727L65.922 16.227C64.871 15.387 63.761 14.713 62.591 14.202 61.422 13.692 60.326 13.437 59.307 13.437 57.656 13.437 56.831 13.977 56.831 15.057 56.831 15.537 57.079 15.928 57.574 16.227 58.069 16.527 58.766 16.798 59.666 17.037L62.591 17.847C64.781 18.448 66.401 19.347 67.451 20.547 68.501 21.747 69.026 23.173 69.026 24.822 69.026 26.323 68.606 27.635 67.766 28.76 66.926 29.885 65.748 30.755 64.234 31.37 62.719 31.984 60.956 32.292 58.946 32.292M98.726 32.292C95.605 32.292 92.868 31.617 90.513 30.267 88.158 28.917 86.313 27.049 84.978 24.665 83.643 22.279 82.976 19.512 82.976 16.362 82.976 13.212 83.643 10.452 84.978 8.082 86.313 5.713 88.158 3.86 90.513 2.524 92.868 1.19 95.605.522 98.726.522 101.365.522 103.743 1.055 105.858 2.12 107.973 3.185 109.78 4.722 111.281 6.732L104.666 10.647C103.885 9.657 103.008 8.877 102.033 8.307 101.058 7.738 99.925 7.452 98.636 7.452 96.505 7.452 94.78 8.255 93.461 9.86 92.14 11.465 91.481 13.632 91.481 16.362 91.481 19.093 92.14 21.275 93.461 22.909 94.78 24.545 96.505 25.362 98.636 25.362 99.955 25.362 101.125 25.04 102.146 24.394 103.165 23.75 104.02 22.992 104.711 22.122L111.281 26.037C109.81 28.077 108.003 29.63 105.858 30.695 103.713 31.759 101.336 32.292 98.726 32.292M122.755 22.842L122.755 31.707 114.926 31.707 114.926 8.802 122.08 8.802 122.576 12.627C123.055 11.397 123.843 10.399 124.938 9.634 126.033 8.87 127.301 8.487 128.741 8.487 129.551 8.487 130.165 8.592 130.586 8.802L130.586 15.957C130.255 15.838 129.888 15.748 129.483 15.687 129.078 15.627 128.62 15.597 128.11 15.597 126.55 15.597 125.268 16.175 124.263 17.33 123.258 18.485 122.755 20.322 122.755 22.842M149.485 31.707L149.08 28.692C148.33 29.803 147.348 30.679 146.133 31.324 144.918 31.969 143.605 32.292 142.195 32.292 139.525 32.292 137.485 31.505 136.075 29.929 134.665 28.354 133.96 26.082 133.96 23.112L133.96 8.802 141.79 8.802 141.79 22.212C141.79 24.702 142.93 25.947 145.21 25.947 147.61 25.947 148.81 24.447 148.81 21.447L148.81 8.802 156.64 8.802 156.64 31.707 149.485 31.707M172.84 32.292C170.5 32.292 168.422 31.789 166.607 30.784 164.792 29.78 163.359 28.377 162.31 26.577 161.259 24.777 160.735 22.678 160.735 20.277 160.735 17.877 161.259 15.777 162.31 13.977 163.359 12.177 164.792 10.775 166.607 9.769 168.422 8.764 170.5 8.262 172.84 8.262 174.909 8.262 176.724 8.644 178.284 9.409 179.844 10.174 181.224 11.397 182.425 13.077L177.25 16.857C176.829 16.227 176.282 15.71 175.607 15.304 174.932 14.899 174.204 14.697 173.425 14.697 172.075 14.697 170.95 15.2 170.05 16.205 169.149 17.21 168.7 18.567 168.7 20.277 168.7 21.987 169.149 23.344 170.05 24.349 170.95 25.355 172.075 25.857 173.425 25.857 174.204 25.857 174.932 25.654 175.607 25.25 176.282 24.844 176.829 24.327 177.25 23.697L182.425 27.477C181.224 29.157 179.844 30.38 178.284 31.144 176.724 31.909 174.909 32.292 172.84 32.292M196.779 13.887C194.229 13.887 192.699 15.237 192.189 17.937L200.919 17.937C200.709 16.468 200.206 15.424 199.412 14.809 198.617 14.195 197.739 13.887 196.779 13.887zM207.489 29.367C206.349 30.177 204.902 30.867 203.147 31.437 201.392 32.007 199.524 32.292 197.544 32.292 194.814 32.292 192.482 31.789 190.547 30.784 188.612 29.78 187.127 28.377 186.092 26.577 185.057 24.777 184.539 22.707 184.539 20.367 184.539 17.998 185.049 15.897 186.069 14.067 187.089 12.238 188.499 10.804 190.299 9.769 192.099 8.735 194.199 8.217 196.599 8.217 198.939 8.217 201.002 8.719 202.787 9.724 204.571 10.73 205.966 12.125 206.972 13.909 207.977 15.695 208.479 17.787 208.479 20.187 208.479 20.517 208.457 20.862 208.412 21.222 208.367 21.582 208.314 21.958 208.254 22.347L192.279 22.347C192.999 24.987 194.964 26.307 198.174 26.307 199.614 26.307 200.889 26.082 201.999 25.632 203.109 25.182 204.039 24.732 204.789 24.282L207.489 29.367zM220.989 32.292C219.009 32.292 217.156 31.977 215.431 31.347 213.706 30.717 212.154 29.817 210.774 28.647L214.104 24.237C215.154 25.077 216.287 25.76 217.502 26.284 218.717 26.81 219.909 27.072 221.079 27.072 221.859 27.072 222.481 26.937 222.947 26.667 223.411 26.397 223.644 25.992 223.644 25.452 223.644 24.882 223.381 24.424 222.857 24.08 222.331 23.735 221.394 23.397 220.044 23.067L217.884 22.527C213.594 21.387 211.449 19.093 211.449 15.642 211.449 14.112 211.869 12.792 212.709 11.682 213.549 10.573 214.704 9.717 216.174 9.117 217.644 8.517 219.354 8.217 221.304 8.217 223.224 8.217 225.031 8.517 226.727 9.117 228.421 9.717 229.974 10.587 231.384 11.727L227.964 16.227C226.914 15.387 225.804 14.713 224.634 14.202 223.464 13.692 222.369 13.437 221.349 13.437 219.699 13.437 218.874 13.977 218.874 15.057 218.874 15.537 219.122 15.928 219.617 16.227 220.112 16.527 220.809 16.798 221.709 17.037L224.634 17.847C226.824 18.448 228.444 19.347 229.494 20.547 230.544 21.747 231.069 23.173 231.069 24.822 231.069 26.323 230.648 27.635 229.809 28.76 228.969 29.885 227.791 30.755 226.277 31.37 224.761 31.984 222.999 32.292 220.989 32.292"/>
    <path fill="#404040" d="M257.573 32.292C255.083 32.292 252.698 31.865 250.419 31.009 248.138 30.154 246.158 28.932 244.479 27.342L248.528 22.257C249.728 23.337 251.078 24.185 252.578 24.799 254.078 25.415 255.729 25.722 257.528 25.722 258.728 25.722 259.673 25.512 260.363 25.092 261.053 24.673 261.398 24.042 261.398 23.202 261.398 22.392 260.993 21.74 260.183 21.245 259.374 20.75 257.948 20.232 255.908 19.692L254.019 19.197C251.258 18.477 249.158 17.375 247.718 15.889 246.278 14.404 245.558 12.522 245.558 10.242 245.558 8.292 246.068 6.582 247.088 5.112 248.108 3.642 249.519 2.509 251.318 1.715 253.118.92 255.203.522 257.573.522 259.913.522 262.148.949 264.278 1.804 266.408 2.659 268.298 3.823 269.948 5.292L265.763 10.557C264.683 9.628 263.416 8.817 261.961 8.127 260.505 7.437 259.058 7.092 257.618 7.092 256.418 7.092 255.496 7.295 254.851 7.699 254.206 8.104 253.883 8.697 253.883 9.477 253.883 10.197 254.221 10.82 254.896 11.344 255.571 11.87 256.733 12.357 258.383 12.807L260.678 13.437C263.978 14.337 266.311 15.567 267.676 17.127 269.041 18.687 269.723 20.502 269.723 22.572 269.723 24.522 269.221 26.225 268.216 27.679 267.211 29.135 265.793 30.267 263.963 31.077 262.133 31.887 260.003 32.292 257.573 32.292M289.253 31.707L288.848 28.692C288.098 29.803 287.116 30.679 285.9 31.324 284.686 31.969 283.373 32.292 281.963 32.292 279.293 32.292 277.253 31.505 275.843 29.929 274.433 28.354 273.728 26.082 273.728 23.112L273.728 8.802 281.558 8.802 281.558 22.212C281.558 24.702 282.698 25.947 284.978 25.947 287.378 25.947 288.578 24.447 288.578 21.447L288.578 8.802 296.408 8.802 296.408 31.707 289.253 31.707M309.728 19.062L309.728 31.707 301.898 31.707 301.898 8.802 309.052 8.802 309.458 11.817C310.207 10.737 311.182 9.867 312.382 9.207 313.582 8.548 314.902 8.217 316.342 8.217 318.832 8.217 320.827 9.027 322.328 10.647 323.827 12.267 324.578 14.592 324.578 17.622L324.578 31.707 316.748 31.707 316.748 18.522C316.748 17.172 316.447 16.175 315.848 15.529 315.247 14.884 314.407 14.562 313.328 14.562 312.248 14.562 311.377 14.907 310.717 15.597 310.057 16.288 309.728 17.442 309.728 19.062"/>
    <polyline fill="#404040" points="360.802 31.707 348.787 14.067 348.787 31.707 341.092 31.707 341.092 1.107 348.742 1.107 360.712 19.062 360.712 1.107 368.452 1.107 368.452 31.707 360.802 31.707"/>
    <path fill="#404040" d="M385.417,13.887 C382.866,13.887 381.336,15.237 380.826,17.937 L389.556,17.937 C389.346,16.468 388.843,15.424 388.049,14.809 C387.253,14.195 386.376,13.887 385.417,13.887 Z M396.127,29.367 C394.986,30.177 393.539,30.867 391.784,31.437 C390.029,32.007 388.161,32.292 386.181,32.292 C383.451,32.292 381.119,31.789 379.184,30.784 C377.249,29.78 375.764,28.377 374.729,26.577 C373.694,24.777 373.176,22.707 373.176,20.367 C373.176,17.998 373.686,15.897 374.706,14.067 C375.726,12.238 377.136,10.804 378.937,9.769 C380.736,8.735 382.836,8.217 385.236,8.217 C387.576,8.217 389.639,8.719 391.424,9.724 C393.209,10.73 394.604,12.125 395.609,13.909 C396.614,15.695 397.116,17.787 397.116,20.187 C397.116,20.517 397.094,20.862 397.049,21.222 C397.004,21.582 396.951,21.958 396.891,22.347 L380.917,22.347 C381.636,24.987 383.601,26.307 386.812,26.307 C388.252,26.307 389.526,26.082 390.636,25.632 C391.746,25.182 392.676,24.732 393.426,24.282 L396.127,29.367 Z"/>
    <polyline fill="#404040" points="420.426 31.707 416.736 17.802 413.091 31.707 404.991 31.707 399.051 8.802 407.062 8.802 409.446 23.562 413.316 8.802 420.201 8.802 424.206 23.607 426.636 8.802 434.466 8.802 428.526 31.707 420.426 31.707"/>
    <path fill="#404040" d="M446.391,32.292 C444.411,32.292 442.558,31.977 440.833,31.347 C439.107,30.717 437.555,29.817 436.176,28.647 L439.506,24.237 C440.555,25.077 441.688,25.76 442.903,26.284 C444.118,26.81 445.311,27.072 446.481,27.072 C447.26,27.072 447.883,26.937 448.348,26.667 C448.813,26.397 449.045,25.992 449.045,25.452 C449.045,24.882 448.783,24.424 448.258,24.08 C447.733,23.735 446.795,23.397 445.446,23.067 L443.286,22.527 C438.995,21.387 436.851,19.093 436.851,15.642 C436.851,14.112 437.271,12.792 438.111,11.682 C438.95,10.573 440.106,9.717 441.576,9.117 C443.045,8.517 444.755,8.217 446.706,8.217 C448.625,8.217 450.433,8.517 452.128,9.117 C453.823,9.717 455.375,10.587 456.786,11.727 L453.366,16.227 C452.315,15.387 451.206,14.713 450.036,14.202 C448.866,13.692 447.77,13.437 446.751,13.437 C445.101,13.437 444.275,13.977 444.275,15.057 C444.275,15.537 444.523,15.928 445.018,16.227 C445.513,16.527 446.211,16.798 447.111,17.037 L450.036,17.847 C452.225,18.448 453.845,19.347 454.896,20.547 C455.945,21.747 456.471,23.173 456.471,24.822 C456.471,26.323 456.05,27.635 455.211,28.76 C454.371,29.885 453.193,30.755 451.678,31.37 C450.163,31.984 448.4,32.292 446.391,32.292"/>
    <path fill="#009BFF" class='no-color-change' d="M464.751,32.202 C463.79,32.202 462.913,31.969 462.118,31.505 C461.323,31.04 460.693,30.41 460.228,29.615 C459.763,28.82 459.53,27.942 459.53,26.982 C459.53,26.022 459.763,25.145 460.228,24.349 C460.693,23.555 461.323,22.925 462.118,22.46 C462.913,21.995 463.79,21.762 464.751,21.762 C465.711,21.762 466.588,21.995 467.383,22.46 C468.178,22.925 468.808,23.555 469.273,24.349 C469.738,25.145 469.971,26.022 469.971,26.982 C469.971,27.942 469.738,28.82 469.273,29.615 C468.808,30.41 468.178,31.04 467.383,31.505 C466.588,31.969 465.711,32.202 464.751,32.202"/>
    <path fill="#404040" d="M1.245 41.476L2.442 41.476C2.835 41.476 3.146 41.38 3.374 41.186 3.603 40.992 3.718 40.729 3.718 40.394 3.718 40.06 3.603 39.796 3.374 39.603 3.146 39.409 2.835 39.312 2.442 39.312L1.245 39.312 1.245 41.476zM.357 44.547L.357 38.565 2.442 38.565C3.11 38.565 3.641 38.729 4.034 39.057 4.427 39.385 4.624 39.831 4.624 40.394 4.624 40.951 4.427 41.393 4.034 41.718 3.641 42.044 3.11 42.207 2.442 42.207L1.245 42.207 1.245 44.547.357 44.547zM6.418 42.295L8.6 42.295 7.509 39.488 6.418 42.295zM9.471 44.547L8.89 43.042 6.128 43.042 5.547 44.547 4.65 44.547 7.043 38.565 8.002 38.565 10.386 44.547 9.471 44.547zM12.268 41.388L13.491 41.388C13.872 41.388 14.176 41.295 14.402 41.107 14.628 40.919 14.741 40.667 14.741 40.35 14.741 40.033 14.628 39.782 14.402 39.594 14.176 39.406 13.872 39.312 13.491 39.312L12.268 39.312 12.268 41.388zM12.268 42.118L12.268 44.547 11.38 44.547 11.38 38.565 13.491 38.565C14.154 38.565 14.679 38.724 15.066 39.044 15.453 39.364 15.647 39.799 15.647 40.35 15.647 40.767 15.529 41.119 15.295 41.406 15.06 41.694 14.737 41.896 14.327 42.013L15.779 44.547 14.767 44.547 13.403 42.118 12.268 42.118z"/>
    <polyline fill="#404040" points="18.198 44.547 18.198 39.312 16.183 39.312 16.183 38.565 21.101 38.565 21.101 39.312 19.086 39.312 19.086 44.547 18.198 44.547"/>
    <path fill="#404040" d="M26.81,43.869 C27.197,43.869 27.542,43.771 27.844,43.574 C28.146,43.378 28.382,43.107 28.552,42.761 C28.722,42.415 28.807,42.013 28.807,41.555 C28.807,41.098 28.722,40.697 28.552,40.35 C28.382,40.004 28.146,39.733 27.844,39.536 C27.542,39.34 27.197,39.242 26.81,39.242 C26.423,39.242 26.08,39.34 25.781,39.536 C25.482,39.733 25.247,40.004 25.077,40.35 C24.907,40.697 24.822,41.098 24.822,41.555 C24.822,42.013 24.907,42.415 25.077,42.761 C25.247,43.107 25.482,43.378 25.781,43.574 C26.08,43.771 26.423,43.869 26.81,43.869 Z M26.81,44.643 C26.247,44.643 25.749,44.511 25.315,44.247 C24.88,43.984 24.539,43.62 24.29,43.157 C24.04,42.694 23.916,42.16 23.916,41.555 C23.916,40.951 24.04,40.418 24.29,39.954 C24.539,39.491 24.88,39.128 25.315,38.864 C25.749,38.6 26.247,38.467 26.81,38.467 C27.373,38.467 27.873,38.6 28.31,38.864 C28.747,39.128 29.09,39.491 29.339,39.954 C29.588,40.418 29.713,40.951 29.713,41.555 C29.713,42.16 29.588,42.694 29.339,43.157 C29.09,43.62 28.747,43.984 28.31,44.247 C27.873,44.511 27.373,44.643 26.81,44.643 Z"/>
    <polyline fill="#404040" points="31.851 44.547 30.963 44.547 30.963 38.565 34.684 38.565 34.684 39.312 31.851 39.312 31.851 41.336 34.253 41.336 34.253 42.083 31.851 42.083 31.851 44.547"/>
    <polyline fill="#404040" points="39.32 44.547 39.32 39.312 37.305 39.312 37.305 38.565 42.223 38.565 42.223 39.312 40.208 39.312 40.208 44.547 39.32 44.547"/>
    <polyline fill="#404040" points="43.243 44.547 43.243 38.565 44.132 38.565 44.132 41.124 47.22 41.124 47.22 38.565 48.108 38.565 48.108 44.547 47.22 44.547 47.22 41.89 44.132 41.89 44.132 44.547 43.243 44.547"/>
    <polyline fill="#404040" points="49.674 44.547 49.674 38.565 53.51 38.565 53.51 39.312 50.562 39.312 50.562 41.16 53.158 41.16 53.158 41.907 50.562 41.907 50.562 43.799 53.58 43.799 53.58 44.547 49.674 44.547"/>
    <path fill="#404040" d="M59.192 43.869C59.679 43.869 60.062 43.723 60.34 43.429 60.619 43.136 60.758 42.74 60.758 42.242L60.758 38.565 61.647 38.565 61.647 42.251C61.647 42.995 61.428 43.58 60.991 44.006 60.554 44.431 59.954 44.643 59.192 44.643 58.43 44.643 57.831 44.431 57.398 44.006 56.963 43.58 56.747 42.995 56.747 42.251L56.747 38.565 57.635 38.565 57.635 42.242C57.635 42.74 57.774 43.136 58.053 43.429 58.331 43.723 58.711 43.869 59.192 43.869M64.963 44.643C64.512 44.643 64.08 44.564 63.67 44.406 63.259 44.247 62.928 44.036 62.676 43.773L63.177 43.183C63.412 43.4 63.689 43.57 64.009 43.693 64.328 43.817 64.647 43.878 64.963 43.878 65.35 43.878 65.663 43.803 65.9 43.654 66.138 43.504 66.256 43.298 66.256 43.033 66.256 42.793 66.171 42.59 66.001 42.426 65.831 42.262 65.541 42.124 65.13 42.013L64.304 41.793C63.77 41.652 63.381 41.453 63.138 41.195 62.894 40.937 62.773 40.6 62.773 40.183 62.773 39.843 62.864 39.544 63.046 39.286 63.227 39.028 63.478 38.827 63.798 38.683 64.117 38.54 64.479 38.467 64.884 38.467 65.312 38.467 65.714 38.549 66.089 38.71 66.464 38.871 66.796 39.095 67.083 39.382L66.547 39.963C66.295 39.729 66.032 39.549 65.759 39.422 65.487 39.296 65.198 39.233 64.893 39.233 64.523 39.233 64.221 39.311 63.987 39.466 63.752 39.622 63.635 39.837 63.635 40.113 63.635 40.365 63.718 40.561 63.886 40.702 64.053 40.843 64.309 40.96 64.655 41.054L65.579 41.309C66.113 41.456 66.503 41.661 66.749 41.925 66.995 42.189 67.118 42.517 67.118 42.91 67.118 43.257 67.028 43.56 66.846 43.821 66.664 44.082 66.412 44.284 66.089 44.428 65.767 44.572 65.391 44.643 64.963 44.643M69.353 42.295L71.535 42.295 70.444 39.488 69.353 42.295zM72.406 44.547L71.825 43.042 69.063 43.042 68.482 44.547 67.585 44.547 69.978 38.565 70.937 38.565 73.321 44.547 72.406 44.547z"/>
    <polyline fill="#404040" points="77.455 44.547 77.455 39.312 75.441 39.312 75.441 38.565 80.358 38.565 80.358 39.312 78.344 39.312 78.344 44.547 77.455 44.547"/>
    <path fill="#404040" d="M83.56 43.869C83.947 43.869 84.292 43.771 84.594 43.574 84.896 43.378 85.132 43.107 85.302 42.761 85.472 42.415 85.557 42.013 85.557 41.555 85.557 41.098 85.472 40.697 85.302 40.35 85.132 40.004 84.896 39.733 84.594 39.536 84.292 39.34 83.947 39.242 83.56 39.242 83.173 39.242 82.83 39.34 82.531 39.536 82.232 39.733 81.997 40.004 81.827 40.35 81.657 40.697 81.572 41.098 81.572 41.555 81.572 42.013 81.657 42.415 81.827 42.761 81.997 43.107 82.232 43.378 82.531 43.574 82.83 43.771 83.173 43.869 83.56 43.869zM83.56 44.643C82.997 44.643 82.499 44.511 82.065 44.247 81.631 43.984 81.289 43.62 81.04 43.157 80.791 42.694 80.666 42.16 80.666 41.555 80.666 40.951 80.791 40.418 81.04 39.954 81.289 39.491 81.631 39.128 82.065 38.864 82.499 38.6 82.997 38.467 83.56 38.467 84.123 38.467 84.623 38.6 85.06 38.864 85.497 39.128 85.84 39.491 86.089 39.954 86.339 40.418 86.463 40.951 86.463 41.555 86.463 42.16 86.339 42.694 86.089 43.157 85.84 43.62 85.497 43.984 85.06 44.247 84.623 44.511 84.123 44.643 83.56 44.643zM88.601 43.799L89.815 43.799C90.238 43.799 90.6 43.706 90.902 43.522 91.204 43.337 91.435 43.077 91.597 42.743 91.758 42.409 91.839 42.013 91.839 41.555 91.839 41.098 91.758 40.702 91.597 40.368 91.435 40.033 91.204 39.774 90.902 39.59 90.6 39.405 90.238 39.312 89.815 39.312L88.601 39.312 88.601 43.799zM87.713 44.547L87.713 38.565 89.815 38.565C90.402 38.565 90.915 38.689 91.355 38.938 91.795 39.188 92.136 39.536 92.38 39.985 92.623 40.434 92.745 40.957 92.745 41.555 92.745 42.154 92.623 42.677 92.38 43.126 92.136 43.574 91.795 43.924 91.355 44.173 90.915 44.422 90.402 44.547 89.815 44.547L87.713 44.547zM95.014 42.295L97.196 42.295 96.105 39.488 95.014 42.295zM98.067 44.547L97.486 43.042 94.724 43.042 94.143 44.547 93.246 44.547 95.639 38.565 96.598 38.565 98.982 44.547 98.067 44.547z"/>
    <polyline fill="#404040" points="101.709 42.171 101.709 44.547 100.821 44.547 100.821 42.171 98.718 38.565 99.765 38.565 101.269 41.327 102.773 38.565 103.803 38.565 101.709 42.171"/>
    <polyline fill="#404040" points="110.911 44.547 107.718 39.963 107.718 44.547 106.882 44.547 106.882 38.565 107.709 38.565 110.911 43.148 110.911 38.565 111.738 38.565 111.738 44.547 110.911 44.547"/>
    <polyline fill="#404040" points="113.304 44.547 113.304 38.565 117.139 38.565 117.139 39.312 114.192 39.312 114.192 41.16 116.787 41.16 116.787 41.907 114.192 41.907 114.192 43.799 117.21 43.799 117.21 44.547 113.304 44.547"/>
    <polyline fill="#404040" points="119.849 44.547 119.849 39.312 117.834 39.312 117.834 38.565 122.752 38.565 122.752 39.312 120.737 39.312 120.737 44.547 119.849 44.547"/>
    <polyline fill="#404040" points="128.558 44.547 127.159 39.778 125.761 44.547 124.837 44.547 123.244 38.565 124.124 38.565 125.338 43.298 126.737 38.565 127.581 38.565 128.989 43.315 130.212 38.565 131.074 38.565 129.482 44.547 128.558 44.547"/>
    <path fill="#404040" d="M134.602 43.869C134.989 43.869 135.333 43.771 135.636 43.574 135.938 43.378 136.173 43.107 136.344 42.761 136.514 42.415 136.599 42.013 136.599 41.555 136.599 41.098 136.514 40.697 136.344 40.35 136.173 40.004 135.938 39.733 135.636 39.536 135.333 39.34 134.989 39.242 134.602 39.242 134.215 39.242 133.872 39.34 133.573 39.536 133.273 39.733 133.039 40.004 132.869 40.35 132.699 40.697 132.614 41.098 132.614 41.555 132.614 42.013 132.699 42.415 132.869 42.761 133.039 43.107 133.273 43.378 133.573 43.574 133.872 43.771 134.215 43.869 134.602 43.869zM134.602 44.643C134.039 44.643 133.54 44.511 133.106 44.247 132.672 43.984 132.331 43.62 132.081 43.157 131.832 42.694 131.708 42.16 131.708 41.555 131.708 40.951 131.832 40.418 132.081 39.954 132.331 39.491 132.672 39.128 133.106 38.864 133.54 38.6 134.039 38.467 134.602 38.467 135.165 38.467 135.665 38.6 136.102 38.864 136.539 39.128 136.882 39.491 137.131 39.954 137.38 40.418 137.505 40.951 137.505 41.555 137.505 42.16 137.38 42.694 137.131 43.157 136.882 43.62 136.539 43.984 136.102 44.247 135.665 44.511 135.165 44.643 134.602 44.643zM139.642 41.388L140.865 41.388C141.246 41.388 141.55 41.295 141.776 41.107 142.002 40.919 142.115 40.667 142.115 40.35 142.115 40.033 142.002 39.782 141.776 39.594 141.55 39.406 141.246 39.312 140.865 39.312L139.642 39.312 139.642 41.388zM139.642 42.118L139.642 44.547 138.754 44.547 138.754 38.565 140.865 38.565C141.528 38.565 142.053 38.724 142.44 39.044 142.827 39.364 143.021 39.799 143.021 40.35 143.021 40.767 142.903 41.119 142.669 41.406 142.434 41.694 142.111 41.896 141.701 42.013L143.153 44.547 142.141 44.547 140.777 42.118 139.642 42.118z"/>
    <polyline fill="#404040" points="147.85 44.547 145.167 41.529 145.167 44.547 144.279 44.547 144.279 38.565 145.167 38.565 145.167 41.186 147.674 38.565 148.774 38.565 146.108 41.309 148.968 44.547 147.85 44.547"/>
  </g>
</svg>
