<svg id="Layer_1" data-name="Layer 1" xmlns="http://www.w3.org/2000/svg" viewBox="0 0 455.71 73.84"><defs>
  <style>
      @font-face {
        font-family: 'Futura Today';
        src: url('../../fonts/FuturaToday/FuturaTodayNormal.otf');
        font-weight: normal;
      }

  .cls-1{fill:#0072b1;}.cls-2{fill:#333;}.cls-3{fill:#ed1847;stroke-width:1.01px;}.cls-3,.cls-4{stroke:#fff;}.cls-4{fill:#ffc60b;stroke-width:0.88px;}.cls-5{font-size:15px;fill:#231f20;font-family: 'Futura Today'; }.cls-6{letter-spacing:-1px;}.cls-7{white-space:pre;}</style></defs><title>LaVoz</title><path class="cls-1" d="M62,56.91a17.23,17.23,0,0,1-.57-4.57c-4,3.17-8.4,5.43-14.37,5.43-7.6,0-13.2-4-11.72-13.13,2-12,14.7-17.47,30.39-18.74l0.1-.63c0.53-3.26-.76-4.8-5.29-4.8-4.07,0-8.23,1.63-12.9,4.71l-6.16-9.41c5.81-4.53,13.62-7.51,23.95-7.51,13.13,0,19.45,4.53,17.26,18L79.65,45.1c-0.81,5-1.18,9.44-.48,11.79Zm2.27-22c-7.1.82-11.15,3.44-11.83,7.6-0.41,2.53.65,4.35,3.46,4.35a11.69,11.69,0,0,0,6.91-3Z" transform="translate(-4.47 -7.17)"/><path class="cls-1" d="M36.63,54.47c-1.89-2.23-2.63-5.24-2.21-8.95h-8L33,8.42,17,8.45,8.48,56.93H39.87A9.85,9.85,0,0,1,36.63,54.47Z" transform="translate(-4.47 -7.17)"/><path class="cls-1" d="M152.12,7.17c-15.19,0-29.57,11.68-32.12,26.18s7.69,26.3,22.87,26.35S172.44,48,175,33.52,167.31,7.22,152.12,7.17Zm7.32,26.3c-1.11,6.3-7.36,11.4-14,11.38s-11-5.15-9.94-11.45,7.36-11.4,14-11.38S160.56,27.17,159.45,33.47Z" transform="translate(-4.47 -7.17)"/><polygon class="cls-1" points="126.8 3.75 128.25 0.98 112.27 0.98 97.76 33.11 95.01 1.01 77.56 0.99 86.51 49.47 103.02 49.46 112.24 31.56 126.8 3.75"/><path class="cls-1" d="M168.19,47.6l-1.61,9.17H210.4l2-11.45H187.81l28.18-26,1.91-11.08H180.48l-1.9,10.41-0.11.7h0.59l17.36,0L168.74,44.95" transform="translate(-4.47 -7.17)"/><path class="cls-2" d="M9,66.49L7.18,75h5l-0.41,1.93H4.47L6.65,66.49H9Z" transform="translate(-4.47 -7.17)"/><path class="cls-2" d="M22.94,66.49l1.74,10.44H22.4l-0.34-2.32h-3.9l-1.32,2.32H14.43l6.16-10.44h2.35Zm-1.08,6.4-0.51-4.15h0l-2.25,4.15h2.79Z" transform="translate(-4.47 -7.17)"/><path class="cls-2" d="M29.76,76.93l-1.2-10.44h2.3l0.69,7.84h0l4-7.84h2.38L32.35,76.93H29.76Z" transform="translate(-4.47 -7.17)"/><path class="cls-2" d="M40.29,70.15a6.21,6.21,0,0,1,1.13-2,5.35,5.35,0,0,1,4.17-1.89,6.07,6.07,0,0,1,1.92.29,3.82,3.82,0,0,1,1.46.85,3.87,3.87,0,0,1,.93,1.4,5.23,5.23,0,0,1,.33,1.93,7.9,7.9,0,0,1-.38,2.46,6.36,6.36,0,0,1-1.1,2.06A5.22,5.22,0,0,1,47,76.64a5.47,5.47,0,0,1-2.43.52A4.69,4.69,0,0,1,41.1,76a4.58,4.58,0,0,1-1.21-3.42A7.32,7.32,0,0,1,40.29,70.15Zm2,3.44a2.57,2.57,0,0,0,.42.86,2,2,0,0,0,.73.59,2.41,2.41,0,0,0,1.07.22,2.68,2.68,0,0,0,1.48-.4,3.56,3.56,0,0,0,1.05-1,4.8,4.8,0,0,0,.64-1.41,5.74,5.74,0,0,0,.21-1.52,4.25,4.25,0,0,0-.12-1,2.36,2.36,0,0,0-.4-0.86,2,2,0,0,0-.72-0.58,2.41,2.41,0,0,0-1.08-.22,2.84,2.84,0,0,0-1.53.4,3.39,3.39,0,0,0-1.07,1A4.77,4.77,0,0,0,42.4,71a6,6,0,0,0-.2,1.53A3.67,3.67,0,0,0,42.33,73.58Z" transform="translate(-4.47 -7.17)"/><path class="cls-2" d="M60.1,68.42H54.75l0.42-1.93h8.25L63,68.33,56,75H61.9l-0.38,1.93H52.75L53.14,75Z" transform="translate(-4.47 -7.17)"/><path class="cls-2" d="M76.64,66.49l1.74,10.44H76.09l-0.34-2.32h-3.9l-1.32,2.32H68.13l6.16-10.44h2.35Zm-1.08,6.4L75,68.74h0l-2.25,4.15h2.79Z" transform="translate(-4.47 -7.17)"/><path class="cls-2" d="M89,66.49a5.06,5.06,0,0,1,1.28.12,2.47,2.47,0,0,1,1,.47,2.12,2.12,0,0,1,.63.85,3.36,3.36,0,0,1,.22,1.29,2.94,2.94,0,0,1-.18,1,2.73,2.73,0,0,1-.5.85,2.86,2.86,0,0,1-.76.62,2.69,2.69,0,0,1-1,.32v0a1.3,1.3,0,0,1,.86.71,2.82,2.82,0,0,1,.22,1.13q0,0.35,0,.84c0,0.33,0,.65,0,1s0,0.46,0,.67a2.11,2.11,0,0,0,.12.55H88.64c0-.13-0.05-0.25-0.07-0.36a2,2,0,0,1,0-.34,9.73,9.73,0,0,1,.06-1.06,9.69,9.69,0,0,0,.06-1.06,1.5,1.5,0,0,0-.11-0.62,1,1,0,0,0-.31-0.39,1.13,1.13,0,0,0-.48-0.2,3.38,3.38,0,0,0-.61-0.05H85l-0.86,4.08H81.84L84,66.49h5Zm-1.55,4.72a4.06,4.06,0,0,0,.89-0.1,2.5,2.5,0,0,0,.75-0.29,1.56,1.56,0,0,0,.53-0.51,1.39,1.39,0,0,0,.2-0.75,1.43,1.43,0,0,0-.14-0.68,1,1,0,0,0-.37-0.39,1.51,1.51,0,0,0-.54-0.17,4.53,4.53,0,0,0-.64,0H85.95l-0.61,2.94h2.12Z" transform="translate(-4.47 -7.17)"/><path class="cls-2" d="M99.53,66.49L97.32,76.93H95l2.19-10.44h2.31Z" transform="translate(-4.47 -7.17)"/><path class="cls-2" d="M108.77,68.42h-5.35l0.42-1.93h8.25l-0.38,1.84-7,6.67h5.89l-0.38,1.93h-8.77l0.4-1.9Z" transform="translate(-4.47 -7.17)"/><path class="cls-2" d="M138.77,66.49l2.84,7.43h0l1.49-7.43h2.11L143,76.93h-2.29l-2.87-7.32h0l-1.49,7.32h-2.13l2.19-10.44h2.37Z" transform="translate(-4.47 -7.17)"/><path class="cls-2" d="M155.11,66.49l1.74,10.44h-2.28l-0.34-2.32h-3.9L149,76.93h-2.41l6.16-10.44h2.35ZM154,72.89l-0.51-4.15h0l-2.25,4.15H154Z" transform="translate(-4.47 -7.17)"/><path class="cls-2" d="M163,74.68l-0.48,2.25h-2.3l0.47-2.25H163Z" transform="translate(-4.47 -7.17)"/><path class="cls-2" d="M174.67,68.66a1.89,1.89,0,0,0-1.35-.49,2.84,2.84,0,0,0-1.53.4,3.39,3.39,0,0,0-1.07,1A4.8,4.8,0,0,0,170.1,71a6,6,0,0,0-.21,1.53,3.67,3.67,0,0,0,.14,1,2.54,2.54,0,0,0,.42.86,2,2,0,0,0,.73.59,2.41,2.41,0,0,0,1.08.22,2.33,2.33,0,0,0,.88-0.17,2.49,2.49,0,0,0,.74-0.45,2.61,2.61,0,0,0,.54-0.67,2.42,2.42,0,0,0,.29-0.79H177a8.29,8.29,0,0,1-.83,1.86,4.84,4.84,0,0,1-1.07,1.24,3.77,3.77,0,0,1-1.32.69,5.6,5.6,0,0,1-1.57.21A4.68,4.68,0,0,1,168.81,76a4.58,4.58,0,0,1-1.21-3.42,7.33,7.33,0,0,1,.39-2.41,6.22,6.22,0,0,1,1.13-2,5.35,5.35,0,0,1,4.17-1.89,5.5,5.5,0,0,1,1.68.25,3.77,3.77,0,0,1,1.34.74,3.3,3.3,0,0,1,.87,1.21,4.1,4.1,0,0,1,.29,1.67h-2.29A1.91,1.91,0,0,0,174.67,68.66Z" transform="translate(-4.47 -7.17)"/><path class="cls-2" d="M181.46,70.15a6.22,6.22,0,0,1,1.13-2,5.35,5.35,0,0,1,4.17-1.89,6.07,6.07,0,0,1,1.92.29,3.72,3.72,0,0,1,2.39,2.26,5.22,5.22,0,0,1,.33,1.93,7.92,7.92,0,0,1-.38,2.46,6.37,6.37,0,0,1-1.1,2.06,5.21,5.21,0,0,1-1.78,1.41,5.47,5.47,0,0,1-2.43.52A4.68,4.68,0,0,1,182.27,76a4.58,4.58,0,0,1-1.21-3.42A7.33,7.33,0,0,1,181.46,70.15Zm2,3.44a2.54,2.54,0,0,0,.42.86,2,2,0,0,0,.73.59,2.41,2.41,0,0,0,1.08.22,2.68,2.68,0,0,0,1.48-.4,3.55,3.55,0,0,0,1.05-1,4.81,4.81,0,0,0,.64-1.41,5.77,5.77,0,0,0,.21-1.52,4.27,4.27,0,0,0-.12-1,2.37,2.37,0,0,0-.4-0.86,2,2,0,0,0-.72-0.58,2.41,2.41,0,0,0-1.08-.22,2.84,2.84,0,0,0-1.53.4,3.39,3.39,0,0,0-1.07,1,4.81,4.81,0,0,0-.62,1.42,6,6,0,0,0-.21,1.53A3.67,3.67,0,0,0,183.5,73.58Z" transform="translate(-4.47 -7.17)"/><path class="cls-2" d="M199.85,66.49l0.8,7.56h0l4-7.56h3.2L205.7,76.93h-2.15l1.9-8.3h0L201,76.93h-1.75l-1-8.3h0l-1.56,8.3h-2.16l2.19-10.44h3.17Z" transform="translate(-4.47 -7.17)"/><ellipse class="cls-3" cx="122.81" cy="71.68" rx="8.91" ry="7.53" transform="translate(-9.46 2.16) rotate(-4.26)"/><path class="cls-4" d="M129.38,77.6c-2-.9-4-1.78-6.06-2.65-1.81,1.61-3.63,3.21-5.44,4.79l1.69-6.42c-2-.89-4-1.79-6.07-2.73,2.37-.37,4.75-0.81,7.11-1.25l1.69-6.45L125,68.5c2.37-.45,4.74-0.88,7.11-1.26-1.82,1.55-3.63,3.13-5.45,4.73Z" transform="translate(-4.47 -7.17)"/><text class="cls-5" transform="translate(215.33 49.47)"><tspan class="cls-6">P</tspan><tspan x="7.05" y="0">A</tspan><tspan x="16.96" y="0">R</tspan><tspan x="25.2" y="0">T</tspan><tspan class="cls-7" x="32.59" y="0"> OF</tspan><tspan x="54.88" y="0"> </tspan><tspan x="57.85" y="0">THE USA</tspan><tspan x="115.22" y="0"> </tspan><tspan x="118.19" y="0">T</tspan><tspan x="125.28" y="0">O</tspan><tspan x="137.46" y="0">D</tspan><tspan class="cls-6" x="147.57" y="0">A</tspan><tspan x="156.2" y="0">Y</tspan><tspan class="cls-7" x="164.6" y="0"> NE</tspan><tspan x="187.4" y="0">T</tspan><tspan x="195.24" y="0">W</tspan><tspan x="210.75" y="0">ORK</tspan></text></svg>