<?xml version="1.0" encoding="utf-8"?>
<!-- Generator: Adobe Illustrator 20.0.0, SVG Export Plug-In . SVG Version: 6.00 Build 0)  -->
<svg version="1.1" id="op1" xmlns="http://www.w3.org/2000/svg" xmlns:xlink="http://www.w3.org/1999/xlink" x="0px" y="0px"
	 viewBox="0 0 585.6 75.9" style="enable-background:new 0 0 585.6 75.9;" xml:space="preserve">
<style type="text/css">
	.st0{fill:#333333;}
	.st1{fill:#ED1847;stroke:#FFFFFF;stroke-width:1.01;}
	.st2{fill:#FFC60B;stroke:#FFFFFF;stroke-width:0.88;}
</style>
<path class="st0" d="M57.5,49.7c-0.4-1.5-0.6-3-0.6-4.6c-4,3.2-8.4,5.4-14.4,5.4c-7.6,0-13.2-4-11.7-13.1c2-12,14.7-17.5,30.4-18.7
	l0.1-0.6c0.5-3.3-0.8-4.8-5.3-4.8c-4.1,0-8.2,1.6-12.9,4.7L37,8.6c5.8-4.5,13.6-7.5,24-7.5c13.1,0,19.4,4.5,17.3,18l-3,18.8
	c-0.8,5-1.2,9.4-0.5,11.8H57.5z M59.8,27.7c-7.1,0.8-11.2,3.4-11.8,7.6c-0.4,2.5,0.7,4.3,3.5,4.3c2.6-0.2,5-1.3,6.9-3L59.8,27.7z"/>
<path class="st0" d="M32.2,47.3c-1.9-2.2-2.6-5.2-2.2-9h-8l6.6-37.1h-16L4,49.8h31.4C34.2,49.2,33.1,48.3,32.2,47.3z"/>
<path class="st0" d="M147.6,0c-15.2,0-29.6,11.7-32.1,26.2s7.7,26.3,22.9,26.4c15.2,0,29.6-11.7,32.1-26.2S162.8,0,147.6,0z
	 M155,26.3c-1.1,6.3-7.4,11.4-14,11.4s-11-5.2-9.9-11.4s7.4-11.4,14-11.4S156.1,20,155,26.3L155,26.3z"/>
<polygon class="st0" points="126.8,3.8 128.2,1 112.3,1 97.8,33.1 95,1 77.6,1 86.5,49.5 103,49.5 112.2,31.6 "/>
<path class="st0" d="M163.7,40.4l-1.6,9.2h43.8l2-11.5h-24.6l28.2-26L213.4,1H176l-1.9,10.4l-0.1,0.7h0.6H192l-27.7,25.6"/>
<path class="st0" d="M4.5,59.3l-1.8,8.5h5l-0.4,1.9H0l2.2-10.4C2.2,59.3,4.5,59.3,4.5,59.3z"/>
<path class="st0" d="M18.5,59.3l1.7,10.4h-2.3l-0.3-2.3h-3.9l-1.3,2.3H10l6.2-10.4C16.2,59.3,18.5,59.3,18.5,59.3z M17.4,65.7
	l-0.5-4.2l0,0l-2.2,4.2H17.4L17.4,65.7z"/>
<path class="st0" d="M25.3,69.8l-1.2-10.4h2.3l0.7,7.8l0,0l4-7.8h2.4l-5.6,10.4H25.3z"/>
<path class="st0" d="M35.8,63c0.2-0.7,0.6-1.4,1.1-2c1-1.2,2.6-1.9,4.2-1.9c0.7,0,1.3,0.1,1.9,0.3c0.5,0.2,1,0.5,1.5,0.8
	c0.4,0.4,0.7,0.9,0.9,1.4c0.2,0.6,0.3,1.3,0.3,1.9c0,0.8-0.1,1.7-0.4,2.5c-0.2,0.7-0.6,1.4-1.1,2.1c-0.5,0.6-1.1,1.1-1.8,1.4
	C41.6,69.9,40.8,70,40,70c-1.3,0.1-2.5-0.3-3.5-1.2c-0.9-0.9-1.3-2.2-1.2-3.4C35.4,64.6,35.6,63.8,35.8,63z M37.8,66.4
	c0.1,0.3,0.2,0.6,0.4,0.9s0.4,0.5,0.7,0.6c0.3,0.2,0.7,0.2,1.1,0.2c0.5,0,1-0.1,1.5-0.4c0.4-0.3,0.8-0.6,1-1
	c0.3-0.4,0.5-0.9,0.6-1.4s0.2-1,0.2-1.5c0-0.3,0-0.7-0.1-1s-0.2-0.6-0.4-0.9c-0.2-0.2-0.4-0.4-0.7-0.6c-0.3-0.2-0.7-0.2-1.1-0.2
	c-0.5,0-1.1,0.1-1.5,0.4c-0.4,0.3-0.8,0.6-1.1,1s-0.4,0.9-0.6,1.3c-0.1,0.5-0.2,1-0.2,1.5C37.7,65.7,37.8,66.1,37.8,66.4L37.8,66.4z
	"/>
<path class="st0" d="M55.6,61.2h-5.3l0.4-1.9h8.2l-0.4,1.8l-7,6.7h5.9l-0.4,2h-8.8l0.4-1.9L55.6,61.2z"/>
<path class="st0" d="M72.2,59.3l1.7,10.4h-2.3l-0.3-2.3h-3.9l-1.3,2.3h-2.4l6.2-10.4C69.8,59.3,72.2,59.3,72.2,59.3z M71.1,65.7
	l-0.6-4.2l0,0l-2.2,4.2H71.1L71.1,65.7z"/>
<path class="st0" d="M84.5,59.3c0.4,0,0.9,0,1.3,0.1s0.7,0.2,1,0.5c0.3,0.2,0.5,0.5,0.6,0.8c0.2,0.4,0.2,0.8,0.2,1.3
	c0,0.3-0.1,0.7-0.2,1s-0.3,0.6-0.5,0.8s-0.5,0.5-0.8,0.6c-0.3,0.2-0.6,0.3-1,0.3l0,0c0.4,0.1,0.7,0.4,0.9,0.7
	c0.2,0.4,0.2,0.7,0.2,1.1c0,0.2,0,0.5,0,0.8s0,0.7,0,1s0,0.5,0,0.7s0.1,0.4,0.1,0.6h-2.2c0-0.1-0.1-0.2-0.1-0.4c0-0.1,0-0.2,0-0.3
	c0-0.4,0-0.7,0.1-1.1c0-0.4,0.1-0.7,0.1-1.1c0-0.2,0-0.4-0.1-0.6s-0.2-0.3-0.3-0.4c-0.1-0.1-0.3-0.2-0.5-0.2s-0.4-0.1-0.6-0.1h-2.2
	l-0.9,4.1h-2.3l2.2-10.4h5V59.3z M83,64c0.3,0,0.6,0,0.9-0.1s0.5-0.2,0.8-0.3c0.2-0.1,0.4-0.3,0.5-0.5s0.2-0.5,0.2-0.8
	c0-0.2,0-0.5-0.1-0.7s-0.2-0.3-0.4-0.4c-0.2-0.1-0.4-0.1-0.5-0.2c-0.2,0-0.4,0-0.6,0h-2.2L81,63.9L83,64L83,64z"/>
<path class="st0" d="M95.1,59.3l-2.2,10.4h-2.3l2.2-10.4L95.1,59.3L95.1,59.3z"/>
<path class="st0" d="M104.3,61.2H99l0.4-1.9h8.2l-0.4,1.8l-7,6.7h5.9l-0.4,1.9H97l0.4-1.9L104.3,61.2z"/>
<path class="st0" d="M134.3,59.3l2.8,7.4l0,0l1.5-7.4h2.1l-2.2,10.4h-2.3l-2.9-7.3l0,0l-1.5,7.3h-2.1l2.2-10.4L134.3,59.3
	L134.3,59.3z"/>
<path class="st0" d="M150.6,59.3l1.7,10.4H150l-0.3-2.3h-3.9l-1.3,2.3h-2.4l6.2-10.4L150.6,59.3L150.6,59.3z M149.5,65.7l-0.5-4.2
	l0,0l-2.2,4.2H149.5z"/>
<path class="st0" d="M158.5,67.5l-0.5,2.2h-2.3l0.5-2.2H158.5z"/>
<path class="st0" d="M170.2,61.5c-0.4-0.3-0.9-0.5-1.4-0.5s-1.1,0.1-1.5,0.4c-0.4,0.3-0.8,0.6-1.1,1s-0.5,0.9-0.6,1.4
	s-0.2,1-0.2,1.5c0,0.3,0,0.7,0.1,1s0.2,0.6,0.4,0.9s0.4,0.5,0.7,0.6c0.3,0.2,0.7,0.2,1.1,0.2c0.3,0,0.6-0.1,0.9-0.2
	c0.3-0.1,0.5-0.3,0.7-0.4c0.2-0.2,0.4-0.4,0.5-0.7c0.1-0.2,0.2-0.5,0.3-0.8h2.3c-0.2,0.7-0.5,1.3-0.8,1.9c-0.3,0.5-0.6,0.9-1.1,1.2
	c-0.4,0.3-0.8,0.6-1.3,0.7s-1,0.2-1.6,0.2c-1.2,0.1-2.5-0.3-3.4-1.1c-0.9-0.9-1.3-2.2-1.2-3.4c0-0.8,0.1-1.6,0.4-2.4
	c0.2-0.7,0.6-1.4,1.1-2c1-1.2,2.6-1.9,4.2-1.9c0.6,0,1.1,0.1,1.7,0.2c0.5,0.2,0.9,0.4,1.3,0.7c0.4,0.3,0.7,0.7,0.9,1.2
	s0.3,1.1,0.3,1.7h-2.3C170.8,62.4,170.6,61.9,170.2,61.5z"/>
<path class="st0" d="M177,63c0.2-0.7,0.6-1.4,1.1-2c1-1.2,2.6-1.9,4.2-1.9c0.7,0,1.3,0.1,1.9,0.3c1.1,0.3,2,1.2,2.4,2.3
	c0.2,0.6,0.3,1.3,0.3,1.9c0,0.8-0.1,1.7-0.4,2.5c-0.2,0.7-0.6,1.4-1.1,2.1c-0.5,0.6-1.1,1.1-1.8,1.4c-0.8,0.4-1.6,0.5-2.4,0.5
	c-1.3,0.1-2.5-0.3-3.4-1.2c-0.9-0.9-1.3-2.2-1.2-3.4C176.6,64.6,176.7,63.8,177,63z M179,66.4c0.1,0.3,0.2,0.6,0.4,0.9
	s0.4,0.5,0.7,0.6c0.3,0.2,0.7,0.2,1.1,0.2c0.5,0,1-0.1,1.5-0.4c0.4-0.3,0.8-0.6,1.1-1s0.5-0.9,0.6-1.4s0.2-1,0.2-1.5
	c0-0.3,0-0.7-0.1-1s-0.2-0.6-0.4-0.9c-0.2-0.2-0.4-0.4-0.7-0.6c-0.3-0.2-0.7-0.2-1.1-0.2c-0.5,0-1.1,0.1-1.5,0.4
	c-0.4,0.3-0.8,0.6-1.1,1s-0.5,0.9-0.6,1.4c-0.1,0.5-0.2,1-0.2,1.5C178.9,65.8,178.9,66.1,179,66.4L179,66.4z"/>
<path class="st0" d="M195.4,59.3l0.8,7.6l0,0l4-7.6h3.2l-2.2,10.4h-2.1l1.9-8.3l0,0l-4.4,8.3h-1.8l-1-8.3l0,0l-1.6,8.3H190l2.2-10.4
	L195.4,59.3L195.4,59.3z"/>
<ellipse transform="matrix(0.9972 -7.428531e-02 7.428531e-02 0.9972 -4.4646 8.9657)" class="st1 no-color-change" cx="118.3" cy="64.5" rx="8.9" ry="7.5"/>
<path class="st2 no-color-change" d="M124.9,70.4c-2-0.9-4-1.8-6.1-2.7c-1.8,1.6-3.6,3.2-5.4,4.8l1.7-6.4c-2-0.9-4-1.8-6.1-2.7
	c2.4-0.4,4.8-0.8,7.1-1.2l1.7-6.5l2.7,5.6c2.4-0.4,4.7-0.9,7.1-1.3c-1.8,1.6-3.6,3.1-5.4,4.7L124.9,70.4z"/>
<path id="USAT_Network" class="st3" d="M217,34.3h4.5c3.2,0,5.3,1.9,5.3,4.7s-2.2,4.7-5.3,4.7h-2.3v5.9H217V34.3L217,34.3z
	 M221.3,41.9c2.1,0,3.2-1.2,3.2-2.9s-1.1-2.9-3.2-2.9h-2.1v5.8L221.3,41.9L221.3,41.9z M233.1,34.3h2l6.4,15.4h-2.4l-1.6-4h-6.9
	l-1.6,4h-2.3C226.6,49.7,232.3,36.2,233.1,34.3L233.1,34.3z M236.7,43.8l-1.5-3.8c-0.2-0.6-1.2-2.9-1.2-3.1l0,0c0,0.2-1,2.5-1.2,3.1
	l-1.5,3.8H236.7L236.7,43.8z M243.6,34.3h4.5c2.9,0,5.2,1.5,5.2,4.6c0,2.3-1.7,4.2-4,4.3l4.8,6.5h-2.6l-4.5-6.3h-1.2v6.3h-2.2
	L243.6,34.3L243.6,34.3z M247.9,41.6c2,0,3.2-1.1,3.2-2.8s-1.2-2.8-3.2-2.8h-2.1v5.5L247.9,41.6L247.9,41.6z M259.4,36.1H255v-1.9
	h11.1v1.9h-4.4v13.5h-2.2V36.1H259.4z M271.8,42c-0.1-4.5,3.5-8.3,8-8.4c4.5-0.1,8.3,3.5,8.4,8s-3.5,8.3-8,8.4c-0.1,0-0.1,0-0.2,0
	c-4.3,0.2-8-3.2-8.2-7.5C271.8,42.3,271.8,42.1,271.8,42L271.8,42z M285.9,42c-0.1-3.3-2.8-5.9-6.1-5.8c-3.3,0.1-5.9,2.8-5.8,6.1
	c0.1,3.2,2.7,5.8,5.9,5.8c3.2,0.1,5.9-2.4,6-5.6C285.9,42.3,285.9,42.1,285.9,42L285.9,42z M291.3,34.3h7.9v1.9h-5.7v5h5.5V43h-5.5
	v6.7h-2.2L291.3,34.3L291.3,34.3z M309.2,36.1h-4.4v-1.9h11.1v1.9h-4.4v13.5h-2.2L309.2,36.1L309.2,36.1z M318.1,34.3h2.2v6.3h8.2
	v-6.3h2.2v15.4h-2.2v-7.2h-8.2v7.2h-2.2V34.3L318.1,34.3z M334.7,34.3h8.5v1.8h-6.3v4.5h6.1v1.8h-6.1v5.4h6.4v1.8h-8.6V34.3
	L334.7,34.3z M350.7,44.4V34.3h2.2v9.4c0,2.7,1.2,4.3,3.8,4.3c2.6,0,3.8-1.6,3.8-4.3v-9.4h2.2v10.1c0,3.4-2.2,5.6-6,5.6
	C352.9,50,350.7,47.7,350.7,44.4L350.7,44.4z M365,46.9l1.5-1.2c0.8,1.5,2.3,2.4,3.9,2.4c1.7,0,3-0.9,3-2.6c0-1.8-1.5-2.4-3.4-3.2
	c-2-0.8-3.9-1.7-3.9-4.2c0-2.4,1.9-4.1,4.7-4.1c1.8-0.1,3.6,0.8,4.6,2.3l-1.5,1.2c-0.7-1.1-1.8-1.7-3.1-1.7c-1.5,0-2.5,0.8-2.5,2.1
	c0,1.6,1.6,2.1,2.9,2.7c2.2,0.9,4.5,1.9,4.5,4.7c0,2.7-2,4.7-5.2,4.7C368.2,50,366.1,48.9,365,46.9L365,46.9z M383.3,34.3h2
	l6.4,15.4h-2.4l-1.6-4h-6.9l-1.6,4h-2.3C376.8,49.7,382.5,36.2,383.3,34.3L383.3,34.3z M386.9,43.8l-1.5-3.8
	c-0.2-0.6-1.2-2.9-1.2-3.1l0,0c0,0.2-1,2.5-1.2,3.1l-1.5,3.8H386.9L386.9,43.8z M400.9,36.1h-4.4v-1.9h11.1v1.9h-4.4v13.5H401
	L400.9,36.1L400.9,36.1z M408.4,42c-0.1-4.5,3.5-8.3,8-8.4c4.5-0.1,8.3,3.5,8.4,8c0.1,4.5-3.5,8.3-8,8.4c-0.1,0-0.1,0-0.2,0
	c-4.3,0.2-8-3.2-8.2-7.5C408.4,42.3,408.4,42.1,408.4,42L408.4,42z M422.5,42c-0.1-3.3-2.8-5.9-6.1-5.8c-3.3,0.1-5.9,2.8-5.8,6.1
	c0.1,3.2,2.7,5.8,5.9,5.8c3.2,0.1,5.9-2.4,6-5.6C422.5,42.3,422.5,42.1,422.5,42L422.5,42z M427.9,34.3h4.4c5,0,8.3,2.8,8.3,7.7
	s-3.3,7.7-8.3,7.7h-4.4V34.3L427.9,34.3z M430.1,47.8h2c3.6,0,6.2-1.9,6.2-5.8s-2.5-5.8-6.2-5.8H430L430.1,47.8L430.1,47.8z
	 M447.8,34.3h2l6.4,15.4h-2.4l-1.6-4h-6.9l-1.6,4h-2.3C441.4,49.7,447,36.2,447.8,34.3L447.8,34.3z M451.4,43.8L450,40
	c-0.2-0.6-1.2-2.9-1.2-3.1l0,0c0,0.2-1,2.5-1.2,3.1l-1.5,3.8H451.4L451.4,43.8z M460.5,43.4l-5.3-9.1h2.5l2.9,5.1
	c0.4,0.7,0.8,1.4,1.1,2.2l0,0c0.3-0.7,0.7-1.5,1.1-2.2l2.9-5.1h2.4l-5.3,9.1v6.3h-2.3L460.5,43.4L460.5,43.4z M474.6,34.3h1.7
	l8.8,10c0.3,0.3,1.4,1.7,1.5,1.9l0,0c0-0.2,0-2,0-2.4v-9.5h2.1v15.4H487l-8.8-10c-0.3-0.3-1.4-1.7-1.5-1.9l0,0c0,0.2,0,2,0,2.4v9.5
	h-2.1V34.3L474.6,34.3z M492.8,34.3h8.5v1.8H495v4.5h6.1v1.8H495v5.4h6.4v1.8h-8.6L492.8,34.3L492.8,34.3z M508.2,36.1h-4.4v-1.9
	h11.1v1.9h-4.4v13.5h-2.2L508.2,36.1L508.2,36.1z M516.7,34.3h2.3l3.2,9.2c0.1,0.4,0.9,2.6,0.9,3l0,0c0.3-1,0.6-2,0.9-3l3.3-9.2h1.8
	l3.3,9.2c0.1,0.4,0.9,2.6,0.9,3l0,0c0-0.4,0.8-2.6,0.9-3l3.2-9.2h2.2l-5.5,15.4h-1.7l-3.6-9.6c-0.3-0.8-0.5-1.7-0.8-2.5l0,0
	c-0.2,0.8-0.5,1.7-0.8,2.5l-3.6,9.6h-1.7L516.7,34.3z M540.8,42c-0.1-4.5,3.5-8.3,8-8.4c4.5-0.1,8.3,3.5,8.4,8
	c0.1,4.5-3.5,8.3-8,8.4c-0.1,0-0.1,0-0.2,0c-4.3,0.2-8-3.2-8.2-7.5C540.8,42.3,540.8,42.1,540.8,42L540.8,42z M554.9,42
	c-0.1-3.3-2.8-5.9-6.1-5.8c-3.3,0.1-5.9,2.8-5.8,6.1c0.1,3.2,2.7,5.8,5.9,5.8c3.2,0.1,5.9-2.4,6-5.6C554.9,42.3,554.9,42.1,554.9,42
	L554.9,42z M560.4,34.3h4.5c2.9,0,5.2,1.5,5.2,4.6c0,2.3-1.7,4.2-4,4.3l4.8,6.5h-2.6l-4.5-6.3h-1.2v6.3h-2.2V34.3L560.4,34.3z
	 M564.6,41.6c2,0,3.2-1.1,3.2-2.8s-1.2-2.8-3.2-2.8h-2.1v5.5L564.6,41.6L564.6,41.6z M573.4,34.3h2.2v7.2l6.4-7.2h2.7l-6.7,7.4l7,8
	h-2.8l-6.7-7.8v7.8h-2.2L573.4,34.3L573.4,34.3z"/>
</svg>
