<?xml version="1.0" encoding="UTF-8" standalone="no"?>
<svg width="214px" height="74px" viewBox="0 0 214 74" version="1.1" xmlns="http://www.w3.org/2000/svg" xmlns:xlink="http://www.w3.org/1999/xlink" xmlns:sketch="http://www.bohemiancoding.com/sketch/ns">
    <!-- Generator: Sketch 3.4.2 (15857) - http://www.bohemiancoding.com/sketch -->
    <title>La-Voz-AZ-Logos-URL</title>
    <desc>Created with Sketch.</desc>
    <defs></defs>
    <g id="Page-1" stroke="none" stroke-width="1" fill="none" fill-rule="evenodd" sketch:type="MSPage">
        <g id="La-Voz-AZ-Logos-URL" sketch:type="MSLayerGroup">
            <path d="M60.104,28.167 C53.001,28.982 48.953,31.606 48.276,35.772 C47.864,38.306 48.928,40.117 51.734,40.117 C53.907,40.117 56.452,38.94 58.648,37.129 L60.104,28.167 L60.104,28.167 Z M57.838,50.207 C57.439,48.758 57.271,47.269 57.264,45.639 C53.309,48.808 48.868,51.071 42.891,51.071 C35.288,51.071 29.688,47.088 31.174,37.944 C33.131,25.903 45.874,20.471 61.561,19.204 L61.664,18.57 C62.194,15.311 60.905,13.772 56.378,13.772 C52.304,13.772 48.146,15.402 43.481,18.479 L37.317,9.064 C43.123,4.538 50.941,1.55 61.262,1.55 C74.389,1.55 80.715,6.076 78.523,19.566 L75.462,38.397 C74.653,43.376 74.28,47.838 74.984,50.192 L57.838,50.207 L57.838,50.207 Z" id="Fill-27" fill="#FE5926" sketch:type="MSShapeGroup"></path>
            <path d="M32.442,47.77 C30.548,45.544 29.809,42.535 30.232,38.821 L22.217,38.821 L28.762,1.72 L12.837,1.752 L4.287,50.231 L35.681,50.234 C34.398,49.61 33.308,48.788 32.442,47.77" id="Fill-28" fill="#FE5926" sketch:type="MSShapeGroup"></path>
            <path d="M155.257,26.769 C154.148,33.073 147.898,38.166 141.299,38.146 C134.7,38.127 130.249,33.001 131.36,26.698 C132.47,20.395 138.719,15.301 145.318,15.321 C151.917,15.34 156.367,20.466 155.257,26.769 L155.257,26.769 Z M147.933,0.469 C132.746,0.423 118.365,12.146 115.811,26.651 C113.257,41.157 123.497,52.953 138.684,52.998 C153.87,53.044 168.252,41.321 170.806,26.815 C173.36,12.311 163.119,0.514 147.933,0.469 L147.933,0.469 Z" id="Fill-29" fill="#FE5926" sketch:type="MSShapeGroup"></path>
            <path d="M127.086,4.218 L128.531,1.453 L112.552,1.453 L98.046,33.579 L95.294,1.48 L77.84,1.457 L86.79,49.941 L103.304,49.931 L112.526,32.03 L127.086,4.218" id="Fill-30" fill="#FE5926" sketch:type="MSShapeGroup"></path>
            <path d="M164.002,40.9 L162.39,50.071 L206.212,50.071 L208.171,38.622 L183.623,38.622 L211.804,12.658 L213.718,1.58 L176.288,1.574 L174.392,11.987 L174.278,12.69 C174.495,12.69 174.374,12.694 174.563,12.694 L174.871,12.69 L192.235,12.726 L164.551,38.246" id="Fill-31" fill="#FE5926" sketch:type="MSShapeGroup"></path>
            <path d="M127.511,64.314 C127.82,68.462 124.092,72.122 119.184,72.487 C114.276,72.853 110.046,69.787 109.737,65.638 C109.428,61.49 113.156,57.83 118.064,57.464 C122.972,57.098 127.202,60.165 127.511,64.314" id="Fill-32" fill="#D91E43" sketch:type="MSShapeGroup"></path>
            <path d="M127.511,64.314 C127.82,68.462 124.092,72.122 119.184,72.487 C114.276,72.853 110.046,69.787 109.737,65.638 C109.428,61.49 113.156,57.83 118.064,57.464 C122.972,57.098 127.202,60.165 127.511,64.314 L127.511,64.314 Z" id="Stroke-33" stroke="#FFFFFF" stroke-width="1.015" sketch:type="MSShapeGroup"></path>
            <path d="M125.192,70.9 C123.172,70.002 121.147,69.124 119.133,68.247 C117.318,69.854 115.505,71.461 113.692,73.04 C114.254,70.903 114.817,68.758 115.381,66.616 C113.357,65.728 111.336,64.83 109.314,63.889 C111.687,63.514 114.06,63.082 116.425,62.634 C116.99,60.487 117.553,58.338 118.116,56.189 C119.017,58.059 119.919,59.93 120.819,61.799 C123.189,61.351 125.559,60.917 127.934,60.539 C126.117,62.088 124.301,63.674 122.487,65.272 C123.389,67.145 124.291,69.021 125.192,70.9" id="Fill-34" fill="#F7C024" sketch:type="MSShapeGroup"></path>
            <path d="M125.192,70.9 C123.172,70.002 121.147,69.124 119.133,68.247 C117.318,69.854 115.505,71.461 113.692,73.04 C114.254,70.903 114.817,68.758 115.381,66.616 C113.357,65.728 111.336,64.83 109.314,63.889 C111.687,63.514 114.06,63.082 116.425,62.634 C116.99,60.487 117.553,58.338 118.116,56.189 C119.017,58.059 119.919,59.93 120.819,61.799 C123.189,61.351 125.559,60.917 127.934,60.539 C126.117,62.088 124.301,63.674 122.487,65.272 C123.389,67.145 124.291,69.021 125.192,70.9 L125.192,70.9 Z" id="Stroke-35" stroke="#FFFFFF" stroke-width="0.877" sketch:type="MSShapeGroup"></path>
            <path d="M4.77,59.79 L2.987,68.299 L8.031,68.299 L7.622,70.229 L0.282,70.229 L2.46,59.79 L4.77,59.79" id="Fill-36" fill="#1A1918" sketch:type="MSShapeGroup"></path>
            <path d="M17.665,66.194 L17.153,62.042 L17.124,62.042 L14.872,66.194 L17.665,66.194 L17.665,66.194 Z M18.747,59.79 L20.486,70.229 L18.205,70.229 L17.87,67.904 L13.966,67.904 L12.65,70.229 L10.238,70.229 L16.393,59.79 L18.747,59.79 L18.747,59.79 Z" id="Fill-37" fill="#1A1918" sketch:type="MSShapeGroup"></path>
            <path d="M25.575,70.229 L24.376,59.79 L26.671,59.79 L27.358,67.626 L27.388,67.626 L31.35,59.79 L33.732,59.79 L28.163,70.229 L25.575,70.229" id="Fill-38" fill="#1A1918" sketch:type="MSShapeGroup"></path>
            <path d="M38.14,66.881 C38.233,67.202 38.374,67.488 38.564,67.736 C38.754,67.985 38.997,68.182 39.295,68.328 C39.592,68.474 39.951,68.548 40.37,68.548 C40.935,68.548 41.427,68.414 41.846,68.145 C42.265,67.878 42.616,67.532 42.899,67.108 C43.182,66.683 43.393,66.213 43.535,65.697 C43.676,65.18 43.747,64.673 43.747,64.176 C43.747,63.806 43.705,63.457 43.622,63.131 C43.539,62.804 43.406,62.519 43.221,62.276 C43.035,62.032 42.796,61.837 42.504,61.691 C42.212,61.545 41.851,61.471 41.422,61.471 C40.837,61.471 40.328,61.606 39.894,61.874 C39.461,62.142 39.105,62.488 38.827,62.911 C38.549,63.336 38.342,63.808 38.206,64.33 C38.069,64.851 38.001,65.361 38.001,65.858 C38.001,66.218 38.047,66.559 38.14,66.881 L38.14,66.881 Z M36.101,63.445 C36.364,62.685 36.742,62.015 37.234,61.435 C37.726,60.855 38.325,60.395 39.032,60.054 C39.738,59.712 40.53,59.542 41.408,59.542 C42.109,59.542 42.747,59.637 43.323,59.827 C43.898,60.017 44.385,60.302 44.785,60.682 C45.184,61.062 45.494,61.53 45.713,62.086 C45.933,62.641 46.042,63.284 46.042,64.015 C46.042,64.873 45.915,65.692 45.662,66.471 C45.409,67.251 45.04,67.939 44.558,68.533 C44.076,69.128 43.481,69.598 42.774,69.944 C42.068,70.289 41.256,70.463 40.34,70.463 C38.859,70.463 37.716,70.068 36.912,69.279 C36.108,68.489 35.706,67.349 35.706,65.858 C35.706,65.01 35.837,64.205 36.101,63.445 L36.101,63.445 Z" id="Fill-39" fill="#1A1918" sketch:type="MSShapeGroup"></path>
            <path d="M55.91,61.72 L50.559,61.72 L50.983,59.79 L59.229,59.79 L58.849,61.633 L51.816,68.299 L57.708,68.299 L57.328,70.229 L48.556,70.229 L48.951,68.328 L55.91,61.72" id="Fill-40" fill="#1A1918" sketch:type="MSShapeGroup"></path>
            <path d="M71.364,66.194 L70.852,62.042 L70.823,62.042 L68.571,66.194 L71.364,66.194 L71.364,66.194 Z M72.445,59.79 L74.185,70.229 L71.904,70.229 L71.568,67.904 L67.664,67.904 L66.349,70.229 L63.936,70.229 L70.092,59.79 L72.445,59.79 L72.445,59.79 Z" id="Fill-41" fill="#1A1918" sketch:type="MSShapeGroup"></path>
            <path d="M83.264,64.512 C83.576,64.512 83.873,64.481 84.156,64.417 C84.438,64.354 84.689,64.257 84.909,64.125 C85.128,63.993 85.303,63.823 85.435,63.614 C85.566,63.404 85.632,63.153 85.632,62.861 C85.632,62.578 85.586,62.351 85.494,62.18 C85.401,62.01 85.276,61.881 85.121,61.793 C84.965,61.705 84.785,61.647 84.579,61.618 C84.375,61.589 84.161,61.574 83.936,61.574 L81.758,61.574 L81.144,64.512 L83.264,64.512 L83.264,64.512 Z M84.813,59.79 C85.282,59.781 85.708,59.822 86.093,59.914 C86.478,60.007 86.807,60.163 87.079,60.383 C87.352,60.602 87.562,60.887 87.708,61.238 C87.854,61.589 87.928,62.017 87.928,62.524 C87.928,62.875 87.869,63.211 87.752,63.533 C87.635,63.855 87.469,64.139 87.255,64.388 C87.04,64.637 86.788,64.844 86.495,65.01 C86.203,65.176 85.881,65.283 85.53,65.331 L85.53,65.361 C85.959,65.497 86.246,65.733 86.392,66.07 C86.538,66.406 86.612,66.783 86.612,67.202 C86.612,67.436 86.6,67.717 86.575,68.043 C86.551,68.37 86.538,68.694 86.538,69.015 C86.538,69.249 86.548,69.471 86.568,69.68 C86.587,69.89 86.626,70.073 86.685,70.229 L84.448,70.229 C84.419,70.102 84.394,69.983 84.375,69.87 C84.355,69.759 84.346,69.644 84.346,69.527 C84.346,69.176 84.365,68.823 84.404,68.467 C84.443,68.112 84.463,67.758 84.463,67.407 C84.463,67.154 84.426,66.947 84.353,66.786 C84.28,66.625 84.178,66.496 84.046,66.398 C83.914,66.301 83.756,66.235 83.571,66.201 C83.386,66.167 83.181,66.15 82.957,66.15 L80.793,66.15 L79.931,70.229 L77.65,70.229 L79.828,59.79 L84.813,59.79 L84.813,59.79 Z" id="Fill-42" fill="#1A1918" sketch:type="MSShapeGroup"></path>
            <path d="M95.339,59.79 L93.132,70.229 L90.836,70.229 L93.029,59.79 L95.339,59.79" id="Fill-43" fill="#1A1918" sketch:type="MSShapeGroup"></path>
            <path d="M104.579,61.72 L99.228,61.72 L99.652,59.79 L107.898,59.79 L107.517,61.633 L100.485,68.299 L106.377,68.299 L105.997,70.229 L97.225,70.229 L97.62,68.328 L104.579,61.72" id="Fill-44" fill="#1A1918" sketch:type="MSShapeGroup"></path>
            <path d="M134.579,59.79 L137.415,67.217 L137.444,67.217 L138.935,59.79 L141.041,59.79 L138.833,70.229 L136.538,70.229 L133.673,62.904 L133.643,62.904 L132.152,70.229 L130.017,70.229 L132.211,59.79 L134.579,59.79" id="Fill-45" fill="#1A1918" sketch:type="MSShapeGroup"></path>
            <path d="M149.842,66.194 L149.33,62.042 L149.301,62.042 L147.05,66.194 L149.842,66.194 L149.842,66.194 Z M150.924,59.79 L152.664,70.229 L150.383,70.229 L150.047,67.904 L146.143,67.904 L144.827,70.229 L142.415,70.229 L148.57,59.79 L150.924,59.79 L150.924,59.79 Z" id="Fill-46" fill="#1A1918" sketch:type="MSShapeGroup"></path>
            <path d="M158.774,67.977 L158.292,70.229 L155.996,70.229 L156.464,67.977 L158.774,67.977" id="Fill-47" fill="#1A1918" sketch:type="MSShapeGroup"></path>
            <path d="M170.477,61.961 C170.132,61.635 169.681,61.471 169.125,61.471 C168.541,61.471 168.031,61.606 167.598,61.874 C167.164,62.142 166.809,62.488 166.53,62.911 C166.253,63.336 166.046,63.808 165.909,64.33 C165.772,64.851 165.704,65.361 165.704,65.858 C165.704,66.218 165.751,66.559 165.844,66.881 C165.935,67.202 166.077,67.488 166.267,67.736 C166.457,67.985 166.701,68.182 166.998,68.328 C167.296,68.474 167.653,68.548 168.073,68.548 C168.385,68.548 168.68,68.491 168.957,68.379 C169.235,68.267 169.481,68.116 169.695,67.926 C169.91,67.736 170.091,67.514 170.236,67.261 C170.383,67.008 170.48,66.744 170.529,66.471 L172.824,66.471 C172.59,67.202 172.314,67.822 171.998,68.328 C171.682,68.835 171.326,69.247 170.931,69.564 C170.536,69.881 170.098,70.11 169.615,70.251 C169.133,70.392 168.608,70.463 168.044,70.463 C166.561,70.463 165.419,70.068 164.615,69.279 C163.811,68.489 163.409,67.349 163.409,65.858 C163.409,65.01 163.541,64.205 163.804,63.445 C164.067,62.685 164.444,62.015 164.936,61.435 C165.429,60.855 166.028,60.395 166.735,60.054 C167.441,59.712 168.233,59.542 169.11,59.542 C169.715,59.542 170.275,59.625 170.792,59.79 C171.309,59.956 171.755,60.202 172.13,60.529 C172.505,60.855 172.795,61.26 173,61.742 C173.204,62.224 173.302,62.783 173.292,63.416 L170.997,63.416 C170.997,62.773 170.823,62.288 170.477,61.961" id="Fill-48" fill="#1A1918" sketch:type="MSShapeGroup"></path>
            <path d="M179.309,66.881 C179.4,67.202 179.542,67.488 179.732,67.736 C179.922,67.985 180.166,68.182 180.463,68.328 C180.761,68.474 181.118,68.548 181.538,68.548 C182.102,68.548 182.595,68.414 183.015,68.145 C183.434,67.878 183.784,67.532 184.066,67.108 C184.35,66.683 184.561,66.213 184.703,65.697 C184.844,65.18 184.915,64.673 184.915,64.176 C184.915,63.806 184.873,63.457 184.791,63.131 C184.708,62.804 184.573,62.519 184.389,62.276 C184.203,62.032 183.965,61.837 183.672,61.691 C183.38,61.545 183.019,61.471 182.59,61.471 C182.006,61.471 181.496,61.606 181.062,61.874 C180.629,62.142 180.273,62.488 179.995,62.911 C179.718,63.336 179.511,63.808 179.374,64.33 C179.237,64.851 179.169,65.361 179.169,65.858 C179.169,66.218 179.216,66.559 179.309,66.881 L179.309,66.881 Z M177.268,63.445 C177.532,62.685 177.909,62.015 178.401,61.435 C178.893,60.855 179.493,60.395 180.2,60.054 C180.906,59.712 181.698,59.542 182.575,59.542 C183.277,59.542 183.916,59.637 184.491,59.827 C185.065,60.017 185.553,60.302 185.953,60.682 C186.352,61.062 186.662,61.53 186.881,62.086 C187.1,62.641 187.21,63.284 187.21,64.015 C187.21,64.873 187.083,65.692 186.83,66.471 C186.576,67.251 186.209,67.939 185.726,68.533 C185.244,69.128 184.649,69.598 183.942,69.944 C183.235,70.289 182.425,70.463 181.509,70.463 C180.026,70.463 178.884,70.068 178.08,69.279 C177.276,68.489 176.874,67.349 176.874,65.858 C176.874,65.01 177.006,64.205 177.268,63.445 L177.268,63.445 Z" id="Fill-49" fill="#1A1918" sketch:type="MSShapeGroup"></path>
            <path d="M195.66,59.79 L196.465,67.349 L196.494,67.349 L200.515,59.79 L203.716,59.79 L201.509,70.229 L199.359,70.229 L201.26,61.925 L201.23,61.925 L196.815,70.229 L195.061,70.229 L194.053,61.925 L194.023,61.925 L192.459,70.229 L190.295,70.229 L192.488,59.79 L195.66,59.79" id="Fill-50" fill="#1A1918" sketch:type="MSShapeGroup"></path>
        </g>
    </g>
</svg>