<svg height="48" viewBox="0 0 437 48" width="437" xmlns="http://www.w3.org/2000/svg">
  <g fill="none" fill-rule="evenodd">
    <g fill="#404040"><path
      d="m1.216 44.575h1.159c.381 0 .682-.094.904-.282.222-.187.332-.443.332-.767s-.11-.579-.332-.767-.523-.281-.904-.281h-1.159zm-.861 2.975v-5.796h2.02c.648 0 1.163.158 1.543.476.381.319.571.751.571 1.296 0 .54-.19.968-.571 1.284-.38.315-.895.472-1.543.472h-1.159v2.268zm5.874-2.182h2.113l-1.057-2.72zm2.957 2.182-.562-1.458h-2.677l-.563 1.458h-.869l2.319-5.796h.929l2.31 5.796zm2.711-3.06h1.185c.369 0 .663-.091.882-.273s.328-.426.328-.733-.109-.552-.328-.733c-.219-.182-.513-.273-.882-.273h-1.185zm0 .707v2.353h-.861v-5.796h2.046c.642 0 1.151.154 1.526.464s.562.731.562 1.266c0 .403-.113.744-.341 1.023-.227.279-.54.474-.937.588l1.406 2.455h-.98l-1.321-2.353z"/><path d="m17.643 47.55v-5.072h-1.953v-.724h4.766v.724h-1.953v5.072z"/><path
      d="m25.987 46.894c.376 0 .71-.095 1.002-.286.293-.19.522-.453.686-.788.165-.336.248-.725.248-1.168 0-.444-.083-.833-.248-1.168-.164-.335-.393-.598-.686-.788-.292-.191-.626-.286-1.002-.286-.375 0-.707.095-.997.286-.289.19-.517.453-.682.788-.164.335-.247.724-.247 1.168 0 .443.083.832.247 1.168.165.335.393.598.682.788.29.191.622.286.997.286zm0 .749c-.545 0-1.028-.127-1.449-.383-.42-.256-.751-.608-.993-1.057-.241-.449-.362-.966-.362-1.551 0-.586.121-1.103.362-1.552.242-.449.573-.801.993-1.056.421-.256.904-.384 1.449-.384.546 0 1.031.128 1.454.384.423.255.756.607.997 1.056.242.449.363.966.363 1.552 0 .585-.121 1.102-.363 1.551-.241.449-.574.801-.997 1.057s-.908.383-1.454.383z"/><path d="m30.872 47.55h-.861v-5.796h3.606v.724h-2.745v1.961h2.327v.724h-2.327z"/><path d="m38.109 47.55v-5.072h-1.952v-.724h4.765v.724h-1.952v5.072z"/><path d="m41.911 47.55v-5.796h.861v2.48h2.992v-2.48h.861v5.796h-.861v-2.575h-2.992v2.575z"/><path d="m48.142 47.55v-5.796h3.716v.724h-2.855v1.79h2.514v.724h-2.514v1.834h2.924v.724z"/><path
      d="m57.365 46.894c.472 0 .842-.142 1.112-.426.27-.285.405-.668.405-1.152v-3.562h.861v3.571c0 .722-.211 1.289-.635 1.7-.423.413-1.005.618-1.743.618-.739 0-1.319-.205-1.739-.618-.421-.411-.631-.978-.631-1.7v-3.571h.861v3.562c0 .484.135.867.405 1.152.27.284.638.426 1.104.426m5.592.749c-.438 0-.855-.076-1.253-.23-.398-.153-.719-.358-.963-.613l.486-.571c.227.21.495.375.805.494.31.12.618.179.925.179.375 0 .678-.072.908-.217s.345-.346.345-.601c0-.233-.082-.43-.247-.588-.165-.16-.447-.293-.844-.401l-.801-.213c-.518-.137-.894-.33-1.13-.58s-.354-.576-.354-.98c0-.33.088-.619.265-.87.176-.25.419-.444.728-.584.31-.138.661-.208 1.053-.208.415 0 .804.078 1.168.234s.685.374.963.652l-.52.563c-.244-.228-.498-.402-.763-.525-.264-.122-.544-.183-.839-.183-.358 0-.651.076-.878.226-.228.151-.341.359-.341.626 0 .245.081.436.243.572s.41.25.746.341l.894.247c.518.142.896.341 1.134.596.239.256.358.575.358.955 0 .336-.088.63-.264.883s-.421.449-.733.588c-.313.139-.676.208-1.091.208m4.254-2.275h2.114l-1.058-2.72zm2.957 2.182-.562-1.458h-2.677l-.562 1.458h-.87l2.319-5.796h.929l2.31 5.796z"/><path d="m75.062 47.55v-5.072h-1.952v-.724h4.765v.724h-1.953v5.072z"/><path
      d="m80.977 46.894c.375 0 .709-.095 1.002-.286.292-.19.521-.453.686-.788.165-.336.247-.725.247-1.168 0-.444-.082-.833-.247-1.168s-.394-.598-.686-.788c-.293-.191-.627-.286-1.002-.286s-.707.095-.997.286c-.29.19-.517.453-.682.788s-.247.724-.247 1.168c0 .443.082.832.247 1.168.165.335.392.598.682.788.29.191.622.286.997.286zm0 .749c-.546 0-1.029-.127-1.449-.383-.421-.256-.752-.608-.993-1.057-.242-.449-.362-.966-.362-1.551 0-.586.12-1.103.362-1.552.241-.449.572-.801.993-1.056.42-.256.903-.384 1.449-.384s1.03.128 1.454.384c.423.255.755.607.997 1.056.241.449.362.966.362 1.552 0 .585-.121 1.102-.362 1.551-.242.449-.574.801-.997 1.057-.424.256-.908.383-1.454.383zm4.885-.817h1.176c.409 0 .76-.09 1.053-.269.292-.179.517-.43.673-.754s.235-.708.235-1.151c0-.444-.079-.827-.235-1.151s-.381-.576-.673-.754c-.293-.18-.644-.269-1.053-.269h-1.176zm-.861.724v-5.796h2.037c.568 0 1.065.12 1.492.362.426.241.757.58.993 1.014.236.435.354.942.354 1.522 0 .579-.118 1.087-.354 1.521-.236.435-.567.773-.993 1.015-.427.241-.924.362-1.492.362zm7.075-2.182h2.114l-1.057-2.72zm2.958 2.182-.563-1.458h-2.676l-.563 1.458h-.87l2.319-5.796h.929l2.31 5.796z"/><path d="m98.563 45.248v2.302h-.861v-2.302l-2.037-3.494h1.014l1.458 2.676 1.457-2.676h.998z"/><path d="m107.479 47.55-3.094-4.441v4.441h-.81v-5.796h.801l3.103 4.441v-4.441h.801v5.796z"/><path d="m109.798 47.55v-5.796h3.716v.724h-2.855v1.79h2.514v.724h-2.514v1.834h2.924v.724z"/><path d="m116.14 47.55v-5.072h-1.952v-.724h4.765v.724h-1.952v5.072z"/><path d="m124.579 47.55-1.356-4.621-1.355 4.621h-.895l-1.543-5.796h.853l1.176 4.585 1.355-4.585h.819l1.364 4.602 1.185-4.602h.835l-1.543 5.796z"/><path
      d="m130.435 46.894c.375 0 .709-.095 1.002-.286.292-.19.521-.453.686-.788.165-.336.247-.725.247-1.168 0-.444-.082-.833-.247-1.168s-.394-.598-.686-.788c-.293-.191-.627-.286-1.002-.286s-.707.095-.997.286c-.29.19-.518.453-.682.788-.165.335-.247.724-.247 1.168 0 .443.082.832.247 1.168.164.335.392.598.682.788.29.191.622.286.997.286zm0 .749c-.546 0-1.029-.127-1.449-.383-.421-.256-.752-.608-.993-1.057-.242-.449-.363-.966-.363-1.551 0-.586.121-1.103.363-1.552.241-.449.572-.801.993-1.056.42-.256.903-.384 1.449-.384.545 0 1.03.128 1.453.384.424.255.756.607.998 1.056.241.449.362.966.362 1.552 0 .585-.121 1.102-.362 1.551-.242.449-.574.801-.998 1.057-.423.256-.908.383-1.453.383zm4.885-3.153h1.184c.37 0 .664-.091.883-.273.218-.182.328-.426.328-.733s-.11-.552-.328-.733c-.219-.182-.513-.273-.883-.273h-1.184zm0 .707v2.353h-.861v-5.796h2.045c.642 0 1.151.154 1.526.464s.563.731.563 1.266c0 .403-.114.744-.341 1.023s-.54.474-.938.588l1.407 2.455h-.981l-1.321-2.353z"/><path d="m143.273 47.55-2.6-2.924v2.924h-.861v-5.796h.861v2.539l2.429-2.539h1.066l-2.583 2.659 2.77 3.137z"/></g><path d="m8.725 28.27h12.735v6.75h-21.105v-30.6h8.37z" fill="#009bff" class='no-color-change'/><path
      d="m36.085 17.2c-2.551 0-4.081 1.35-4.59 4.05h8.73c-.211-1.47-.713-2.513-1.508-3.128-.795-.614-1.673-.922-2.632-.922zm10.71 15.48c-1.141.81-2.588 1.5-4.343 2.07-1.755.569-3.622.855-5.602.855-2.731 0-5.063-.503-6.998-1.508-1.935-1.004-3.42-2.407-4.455-4.207s-1.552-3.87-1.552-6.21c0-2.369.51-4.47 1.529-6.3 1.02-1.83 2.431-3.263 4.231-4.298 1.799-1.034 3.899-1.552 6.299-1.552 2.341 0 4.403.502 6.188 1.507 1.785 1.006 3.18 2.401 4.185 4.185 1.005 1.786 1.508 3.878 1.508 6.278 0 .33-.023.675-.068 1.035s-.098.736-.157 1.125h-15.975c.72 2.64 2.684 3.96 5.895 3.96 1.44 0 2.714-.225 3.825-.675 1.109-.45 2.039-.9 2.79-1.35zm17.234-3.285c1.35 0 2.438-.533 3.263-1.597.825-1.066 1.238-2.483 1.238-4.253s-.413-3.187-1.238-4.253c-.825-1.064-1.913-1.597-3.263-1.597-1.38 0-2.482.533-3.307 1.597-.826 1.066-1.238 2.483-1.238 4.253s.412 3.187 1.238 4.253c.825 1.064 1.927 1.597 3.307 1.597zm12.465-5.85c0 2.4-.45 4.508-1.349 6.322-.901 1.816-2.131 3.226-3.691 4.23-1.56 1.005-3.33 1.508-5.309 1.508-1.621 0-2.993-.337-4.118-1.013-1.125-.675-2.018-1.537-2.678-2.587l-.405 3.015h-7.154v-32.85h7.829v12.555c.75-.99 1.71-1.77 2.88-2.34s2.565-.855 4.185-.855c1.8 0 3.443.51 4.928 1.53s2.67 2.43 3.555 4.23c.884 1.8 1.327 3.885 1.327 6.255zm10.26 4.05c0 .69.255 1.253.766 1.687.509.436 1.169.653 1.979.653 1.081 0 1.988-.367 2.723-1.103.735-.734 1.102-1.657 1.102-2.767v-.765c-.81-.15-1.665-.225-2.564-.225-1.141 0-2.093.196-2.858.585-.765.39-1.148 1.035-1.148 1.935zm6.885 7.425-.405-3.015c-1.5 2.4-3.779 3.6-6.839 3.6-1.351 0-2.573-.292-3.668-.877s-1.965-1.388-2.61-2.408c-.646-1.02-.968-2.205-.968-3.555 0-2.55.997-4.529 2.993-5.94 1.995-1.41 4.627-2.115 7.898-2.115 1.019 0 2.099.09 3.24.27-.121-1.14-.608-2.002-1.463-2.587s-1.898-.878-3.128-.878c-1.08 0-2.167.202-3.262.607s-2.137.893-3.127 1.463l-2.655-5.04c1.499-.96 3.119-1.702 4.859-2.227s3.48-.788 5.22-.788c2.1 0 3.99.36 5.671 1.08 1.679.72 2.999 1.815 3.959 3.285s1.44 3.33 1.44 5.58v13.545zm19.98-12.645v12.645h-7.83v-22.905h7.155l.405 3.015c.75-1.08 1.725-1.95 2.925-2.61 1.2-.659 2.52-.99 3.96-.99 2.49 0 4.485.81 5.985 2.43s2.25 3.945 2.25 6.975v14.085h-7.83v-13.185c0-1.35-.3-2.347-.9-2.993-.6-.645-1.44-.967-2.52-.967s-1.95.345-2.61 1.035c-.66.691-.99 1.845-.99 3.465m31.05 7.02c1.379 0 2.482-.533 3.307-1.597.825-1.066 1.238-2.483 1.238-4.253s-.413-3.18-1.238-4.23-1.928-1.575-3.307-1.575c-1.38 0-2.483.525-3.308 1.575s-1.237 2.46-1.237 4.23.412 3.187 1.237 4.253c.825 1.064 1.928 1.597 3.308 1.597zm0 6.21c-2.461 0-4.628-.518-6.503-1.553-1.875-1.034-3.345-2.452-4.41-4.252s-1.597-3.885-1.597-6.255.532-4.455 1.597-6.255 2.535-3.21 4.41-4.23 4.042-1.53 6.503-1.53c2.459 0 4.627.51 6.502 1.53s3.345 2.43 4.41 4.23 1.598 3.885 1.598 6.255-.533 4.455-1.598 6.255-2.535 3.218-4.41 4.252c-1.875 1.035-4.043 1.553-6.502 1.553zm24.435-13.23v12.645h-7.83v-22.905h7.154l.405 3.015c.75-1.08 1.725-1.95 2.926-2.61 1.199-.659 2.52-.99 3.959-.99 2.49 0 4.485.81 5.986 2.43 1.499 1.62 2.25 3.945 2.25 6.975v14.085h-7.83v-13.185c0-1.35-.301-2.347-.9-2.993-.601-.645-1.441-.967-2.52-.967-1.08 0-1.951.345-2.611 1.035-.66.691-.989 1.845-.989 3.465"
      fill="#009bff" class='no-color-change'/><path
      d="m207.703 28.405h3.825c2.189 0 3.922-.794 5.197-2.385 1.275-1.59 1.913-3.69 1.913-6.3s-.638-4.71-1.913-6.3-3.008-2.385-5.197-2.385h-3.825zm-8.235 6.615v-30.6h12.06c3.03 0 5.707.652 8.032 1.957 2.325 1.306 4.147 3.105 5.468 5.4 1.32 2.295 1.98 4.943 1.98 7.943s-.66 5.647-1.98 7.942c-1.321 2.295-3.143 4.095-5.468 5.401-2.325 1.304-5.002 1.957-8.032 1.957zm38.069-7.425c0 .69.255 1.253.765 1.687.51.436 1.17.653 1.98.653 1.08 0 1.988-.367 2.723-1.103.735-.734 1.102-1.657 1.102-2.767v-.765c-.81-.15-1.665-.225-2.565-.225-1.14 0-2.092.196-2.857.585-.765.39-1.148 1.035-1.148 1.935zm6.885 7.425-.405-3.015c-1.5 2.4-3.78 3.6-6.84 3.6-1.35 0-2.573-.292-3.667-.877-1.095-.585-1.966-1.388-2.61-2.408-.646-1.02-.968-2.205-.968-3.555 0-2.55.997-4.529 2.993-5.94 1.994-1.41 4.627-2.115 7.897-2.115 1.02 0 2.1.09 3.241.27-.121-1.14-.608-2.002-1.463-2.587s-1.898-.878-3.128-.878c-1.08 0-2.167.202-3.262.607-1.096.405-2.138.893-3.127 1.463l-2.656-5.04c1.5-.96 3.12-1.702 4.86-2.227s3.48-.788 5.22-.788c2.1 0 3.99.36 5.67 1.08s3 1.815 3.96 3.285 1.44 3.33 1.44 5.58v13.545zm12.15 0v-22.905c1.26.27 2.535.405 3.825.405 1.32 0 2.655-.135 4.005-.405v22.905z"
      fill="#404040"/><path d="m269.892 35.02h7.83v-32.85h-7.83z" fill="#404040"/><path
      d="m299.096 33.22c-1.38 3.539-2.955 6.18-4.725 7.92s-4.02 2.61-6.75 2.61c-1.23 0-2.34-.135-3.33-.405s-1.83-.601-2.52-.99l2.205-5.4c.42.209.885.389 1.395.54.51.15 1.05.225 1.62.225.81 0 1.537-.195 2.183-.585.644-.39 1.207-1.096 1.687-2.115l.36-.81-10.35-22.095h8.64l5.085 13.725 4.185-13.725h8.505z"
      fill="#404040"/><path d="m340.62 35.02-12.015-17.64v17.64h-7.695v-30.6h7.65l11.97 17.955v-17.955h7.741v30.6z" fill="#404040"/><path
      d="m365.235 17.2c-2.55 0-4.08 1.35-4.59 4.05h8.73c-.21-1.47-.713-2.513-1.507-3.128-.796-.614-1.673-.922-2.633-.922zm10.71 15.48c-1.14.81-2.588 1.5-4.342 2.07-1.755.569-3.623.855-5.603.855-2.73 0-5.062-.503-6.998-1.508-1.934-1.004-3.419-2.407-4.454-4.207s-1.553-3.87-1.553-6.21c0-2.369.51-4.47 1.53-6.3 1.019-1.83 2.43-3.263 4.23-4.298 1.8-1.034 3.9-1.552 6.3-1.552 2.34 0 4.403.502 6.188 1.507 1.784 1.006 3.179 2.401 4.185 4.185 1.005 1.786 1.507 3.878 1.507 6.278 0 .33-.022.675-.067 1.035s-.098.736-.158 1.125h-15.975c.72 2.64 2.684 3.96 5.895 3.96 1.44 0 2.715-.225 3.825-.675 1.109-.45 2.04-.9 2.79-1.35z"
      fill="#404040"/><path d="m400.245 35.02-3.69-13.905-3.645 13.905h-8.1l-5.94-22.905h8.01l2.385 14.76 3.87-14.76h6.885l4.005 14.805 2.43-14.805h7.83l-5.94 22.905z" fill="#404040"/><path
      d="m426.209 35.605c-1.98 0-3.833-.315-5.558-.945s-3.277-1.53-4.657-2.7l3.33-4.41c1.05.84 2.182 1.523 3.398 2.047 1.215.526 2.407.788 3.577.788.78 0 1.402-.135 1.868-.405.464-.27.697-.675.697-1.215 0-.57-.263-1.028-.787-1.372-.526-.345-1.463-.683-2.813-1.013l-2.16-.54c-4.291-1.14-6.435-3.435-6.435-6.885 0-1.53.42-2.85 1.26-3.96s1.995-1.965 3.465-2.565c1.469-.6 3.18-.9 5.13-.9 1.919 0 3.727.3 5.422.9s3.247 1.47 4.658 2.61l-3.42 4.5c-1.051-.84-2.16-1.514-3.33-2.025-1.17-.51-2.266-.765-3.285-.765-1.65 0-2.475.54-2.475 1.62 0 .48.247.87.742 1.17.496.3 1.193.571 2.093.81l2.925.81c2.189.6 3.81 1.5 4.86 2.7s1.575 2.626 1.575 4.275c0 1.5-.42 2.812-1.26 3.937s-2.018 1.995-3.532 2.611c-1.516.614-3.278.922-5.288.922"
      fill="#404040"/><path
      d="m260.397 10.315c-1.29 0-2.393-.458-3.307-1.372-.916-.916-1.373-2.018-1.373-3.308s.457-2.392 1.373-3.308c.914-.914 2.017-1.372 3.307-1.372s2.392.458 3.308 1.372c.915.916 1.372 2.018 1.372 3.308s-.457 2.392-1.372 3.308c-.916.914-2.018 1.372-3.308 1.372"
      fill="#009bff" class='no-color-change'/></g>
</svg>