<svg height="56" viewBox="0 0 353 56" width="353" xmlns="http://www.w3.org/2000/svg">
  <g fill="none" fill-rule="evenodd">
    <g fill="#404040"><path
      d="m1.218 52.573h1.159c.381 0 .682-.094.904-.282.221-.187.332-.443.332-.767s-.111-.579-.332-.767c-.222-.187-.523-.281-.904-.281h-1.159zm-.861 2.975v-5.796h2.02c.648 0 1.162.159 1.543.477s.571.75.571 1.295c0 .541-.19.968-.571 1.284-.381.315-.895.473-1.543.473h-1.159v2.267zm5.873-2.182h2.114l-1.057-2.719zm2.958 2.182-.563-1.458h-2.676l-.563 1.458h-.869l2.318-5.796h.929l2.31 5.796zm2.711-3.061h1.184c.37 0 .664-.09.883-.272.218-.182.328-.426.328-.733s-.11-.551-.328-.734c-.219-.181-.513-.272-.883-.272h-1.184zm0 .708v2.353h-.861v-5.796h2.045c.643 0 1.151.154 1.526.464.375.309.563.731.563 1.266 0 .403-.114.745-.341 1.023s-.54.474-.938.588l1.407 2.455h-.981l-1.321-2.353z"/><path d="m17.644 55.548v-5.072h-1.952v-.724h4.765v.724h-1.952v5.072z"/><path
      d="m25.989 54.892c.375 0 .709-.095 1.002-.286.292-.191.521-.453.686-.789.165-.335.247-.724.247-1.168 0-.443-.082-.832-.247-1.167-.165-.336-.394-.598-.686-.789-.293-.19-.627-.285-1.002-.285s-.707.095-.997.285c-.29.191-.518.453-.682.789-.165.335-.247.724-.247 1.167 0 .444.082.833.247 1.168.164.336.392.598.682.789s.622.286.997.286zm0 .749c-.545 0-1.029-.127-1.449-.383-.421-.256-.752-.608-.993-1.057-.242-.449-.363-.966-.363-1.552 0-.584.121-1.102.363-1.551.241-.448.572-.801.993-1.057.42-.256.904-.384 1.449-.384.546 0 1.03.128 1.454.384.423.256.755.609.997 1.057.241.449.362.967.362 1.551 0 .586-.121 1.103-.362 1.552-.242.449-.574.801-.997 1.057-.424.256-.908.383-1.454.383z"/><path d="m30.873 55.548h-.86v-5.796h3.605v.724h-2.745v1.96h2.328v.725h-2.328z"/><path d="m38.111 55.548v-5.072h-1.952v-.724h4.765v.724h-1.952v5.072z"/><path d="m41.912 55.548v-5.796h.861v2.48h2.992v-2.48h.861v5.796h-.861v-2.575h-2.992v2.575z"/><path d="m48.144 55.548v-5.796h3.716v.724h-2.856v1.79h2.515v.725h-2.515v1.832h2.924v.725z"/><path
      d="m57.367 54.892c.471 0 .842-.143 1.112-.427s.405-.667.405-1.15v-3.563h.861v3.571c0 .722-.212 1.288-.635 1.7-.424.413-1.005.618-1.743.618-.739 0-1.319-.205-1.739-.618-.421-.412-.631-.978-.631-1.7v-3.571h.861v3.563c0 .483.135.866.405 1.15s.638.427 1.104.427m5.592.749c-.438 0-.856-.076-1.253-.229-.398-.154-.719-.358-.963-.615l.485-.571c.228.211.496.376.806.495s.618.179.925.179c.375 0 .678-.072.908-.217s.345-.346.345-.601c0-.233-.083-.429-.247-.589-.165-.159-.447-.292-.844-.4l-.802-.213c-.517-.136-.893-.33-1.129-.58s-.354-.577-.354-.98c0-.33.088-.62.264-.87.176-.249.419-.444.729-.584.31-.139.661-.209 1.053-.209.415 0 .804.079 1.168.235.363.157.685.373.963.652l-.52.563c-.244-.227-.499-.402-.763-.524s-.544-.183-.839-.183c-.359 0-.651.075-.879.225-.227.151-.34.359-.34.627 0 .244.081.434.242.571.162.136.411.25.746.34l.896.248c.516.142.895.341 1.133.597.239.255.358.573.358.955 0 .335-.088.629-.264.882-.176.252-.42.449-.733.588s-.676.208-1.091.208m4.253-2.275h2.115l-1.057-2.719zm2.958 2.182-.562-1.458h-2.677l-.562 1.458h-.87l2.319-5.796h.929l2.31 5.796z"/><path d="m75.063 55.548v-5.072h-1.952v-.724h4.765v.724h-1.952v5.072z"/><path
      d="m80.979 54.892c.375 0 .709-.095 1.001-.286.293-.191.522-.453.687-.789.164-.335.247-.724.247-1.168 0-.443-.083-.832-.247-1.167-.165-.336-.394-.598-.687-.789-.292-.19-.626-.285-1.001-.285s-.707.095-.997.285c-.29.191-.518.453-.682.789-.165.335-.247.724-.247 1.167 0 .444.082.833.247 1.168.164.336.392.598.682.789s.622.286.997.286zm0 .749c-.545 0-1.029-.127-1.449-.383-.421-.256-.752-.608-.993-1.057-.242-.449-.363-.966-.363-1.552 0-.584.121-1.102.363-1.551.241-.448.572-.801.993-1.057.42-.256.904-.384 1.449-.384.546 0 1.03.128 1.454.384.423.256.755.609.997 1.057.241.449.362.967.362 1.551 0 .586-.121 1.103-.362 1.552-.242.449-.574.801-.997 1.057-.424.256-.908.383-1.454.383zm4.884-.818h1.177c.409 0 .76-.089 1.052-.268.293-.179.518-.43.674-.754s.234-.708.234-1.152c0-.443-.078-.826-.234-1.15s-.381-.576-.674-.754c-.292-.18-.643-.269-1.052-.269h-1.177zm-.86.725v-5.796h2.037c.568 0 1.065.12 1.492.362.426.241.757.579.993 1.014.235.435.354.942.354 1.521 0 .581-.119 1.088-.354 1.522-.236.435-.567.773-.993 1.014-.427.242-.924.363-1.492.363zm7.074-2.182h2.115l-1.057-2.719zm2.959 2.182-.563-1.458h-2.677l-.562 1.458h-.87l2.319-5.796h.929l2.31 5.796z"/><path d="m98.564 53.246v2.302h-.861v-2.302l-2.037-3.494h1.015l1.457 2.676 1.458-2.676h.997z"/><path d="m107.481 55.548-3.094-4.441v4.441h-.81v-5.796h.801l3.103 4.44v-4.44h.801v5.796z"/><path d="m109.799 55.548v-5.796h3.717v.724h-2.856v1.79h2.515v.725h-2.515v1.832h2.924v.725z"/><path d="m116.142 55.548v-5.072h-1.953v-.724h4.766v.724h-1.953v5.072z"/><path d="m124.581 55.548-1.356-4.62-1.355 4.62h-.895l-1.543-5.796h.852l1.177 4.585 1.355-4.585h.819l1.363 4.602 1.185-4.602h.836l-1.543 5.796z"/><path
      d="m130.437 54.892c.375 0 .708-.095 1.001-.286s.522-.453.687-.789c.164-.335.247-.724.247-1.168 0-.443-.083-.832-.247-1.167-.165-.336-.394-.598-.687-.789-.293-.19-.626-.285-1.001-.285s-.708.095-.998.285c-.289.191-.517.453-.682.789-.165.335-.247.724-.247 1.167 0 .444.082.833.247 1.168.165.336.393.598.682.789.29.191.623.286.998.286zm0 .749c-.546 0-1.029-.127-1.449-.383-.421-.256-.752-.608-.994-1.057-.241-.449-.362-.966-.362-1.552 0-.584.121-1.102.362-1.551.242-.448.573-.801.994-1.057.42-.256.903-.384 1.449-.384.545 0 1.03.128 1.453.384s.756.609.997 1.057c.242.449.363.967.363 1.551 0 .586-.121 1.103-.363 1.552-.241.449-.574.801-.997 1.057s-.908.383-1.453.383zm4.884-3.154h1.185c.369 0 .663-.09.882-.272s.329-.426.329-.733-.11-.551-.329-.734c-.219-.181-.513-.272-.882-.272h-1.185zm0 .708v2.353h-.861v-5.796h2.046c.642 0 1.151.154 1.526.464.375.309.562.731.562 1.266 0 .403-.113.745-.341 1.023-.227.278-.539.474-.937.588l1.407 2.455h-.981l-1.321-2.353z"/><path d="m143.274 55.548-2.6-2.924v2.924h-.861v-5.796h.861v2.539l2.43-2.539h1.065l-2.583 2.659 2.771 3.137z"/></g><path d="m8.727 28.193h12.735v6.75h-21.105v-30.6h8.37z" fill="#009bff" class='no-color-change'/><path
      d="m25.241 34.943v-22.905c1.26.27 2.535.405 3.825.405 1.32 0 2.655-.135 4.005-.405v22.905zm3.825-24.705c-1.29 0-2.392-.457-3.307-1.372-.916-.915-1.373-2.018-1.373-3.308 0-1.289.457-2.392 1.373-3.307.915-.915 2.017-1.372 3.307-1.372s2.392.457 3.308 1.372c.914.915 1.372 2.018 1.372 3.307 0 1.29-.458 2.393-1.372 3.308-.916.915-2.018 1.372-3.308 1.372z"
      fill="#009bff" class='no-color-change'/><path d="m62.546 12.038-8.865 22.905h-8.55l-8.865-22.905h8.595l4.68 14.805 4.59-14.805z" fill="#009bff" class='no-color-change'/><path
      d="m65.74 34.943v-22.905c1.26.27 2.535.405 3.825.405 1.32 0 2.655-.135 4.005-.405v22.905zm3.825-24.705c-1.29 0-2.393-.457-3.307-1.372-.916-.915-1.373-2.018-1.373-3.308 0-1.289.457-2.392 1.373-3.307.914-.915 2.017-1.372 3.307-1.372s2.392.457 3.308 1.372c.914.915 1.372 2.018 1.372 3.307 0 1.29-.458 2.393-1.372 3.308-.916.915-2.018 1.372-3.308 1.372zm17.325 12.06v12.645h-7.83v-22.905h7.155l.405 3.015c.749-1.08 1.725-1.95 2.925-2.61 1.199-.659 2.52-.99 3.96-.99 2.49 0 4.484.81 5.985 2.43 1.5 1.621 2.25 3.946 2.25 6.975v14.085h-7.83v-13.185c0-1.35-.301-2.347-.9-2.992-.601-.645-1.44-.968-2.52-.968s-1.951.345-2.61 1.035c-.66.691-.99 1.845-.99 3.465m30.959 5.76c1.32 0 2.385-.472 3.195-1.417s1.215-2.213 1.215-3.802c0-1.59-.405-2.858-1.215-3.803-.81-.946-1.875-1.418-3.195-1.418-1.35 0-2.43.472-3.24 1.418-.81.945-1.215 2.213-1.215 3.803 0 1.56.405 2.82 1.215 3.779.81.961 1.89 1.44 3.24 1.44zm12.15 4.455c0 2.34-.54 4.343-1.62 6.008s-2.572 2.94-4.477 3.825c-1.906.884-4.118 1.328-6.638 1.328-2.04 0-3.975-.271-5.805-.811s-3.465-1.26-4.905-2.16l2.925-5.04c1.02.6 2.093 1.088 3.218 1.463s2.287.562 3.487.562c2.01 0 3.51-.45 4.5-1.349.99-.901 1.485-2.175 1.485-3.826v-.81c-.78.781-1.717 1.403-2.812 1.868-1.096.465-2.243.697-3.443.697-2.07 0-3.892-.487-5.467-1.462s-2.806-2.325-3.69-4.05c-.886-1.725-1.328-3.697-1.328-5.917 0-2.25.435-4.231 1.305-5.941s2.085-3.044 3.645-4.005c1.56-.96 3.36-1.44 5.4-1.44 1.38 0 2.662.331 3.848.99 1.184.66 2.122 1.53 2.812 2.61l.405-3.015h7.155zm13.995 3.015c-1.98 0-3.833-.314-5.558-.945-1.725-.63-3.277-1.53-4.657-2.699l3.33-4.411c1.05.84 2.183 1.523 3.397 2.048 1.216.525 2.408.787 3.578.787.78 0 1.402-.135 1.868-.405.464-.27.697-.675.697-1.215 0-.569-.263-1.027-.788-1.372s-1.462-.683-2.812-1.013l-2.16-.54c-4.29-1.139-6.435-3.434-6.435-6.884 0-1.531.42-2.851 1.26-3.96.84-1.11 1.995-1.965 3.465-2.566 1.47-.599 3.18-.9 5.13-.9 1.92 0 3.727.301 5.423.9 1.694.601 3.247 1.471 4.657 2.611l-3.42 4.5c-1.05-.84-2.16-1.515-3.33-2.026-1.17-.51-2.265-.765-3.285-.765-1.65 0-2.475.541-2.475 1.621 0 .48.248.87.742 1.17.496.299 1.193.57 2.093.809l2.925.81c2.189.601 3.81 1.501 4.86 2.7 1.05 1.201 1.575 2.626 1.575 4.275 0 1.501-.421 2.813-1.26 3.938-.84 1.125-2.018 1.995-3.532 2.61-1.516.614-3.278.922-5.288.922m31.23-2.07c-.93.631-1.996 1.133-3.195 1.507-1.2.375-2.46.563-3.78.563-2.46 0-4.418-.712-5.873-2.137s-2.182-3.338-2.182-5.738v-9.765h-3.735v-5.85h4.095l.99-6.39h6.48v6.39h5.985v5.85h-5.985v8.775c0 .781.232 1.389.697 1.823.465.435 1.087.652 1.868.652.389 0 .787-.074 1.192-.225.405-.15.788-.329 1.148-.54zm14.174-4.14c1.38 0 2.482-.532 3.308-1.597.825-1.065 1.237-2.482 1.237-4.253 0-1.769-.412-3.179-1.237-4.23-.826-1.05-1.928-1.575-3.308-1.575s-2.483.525-3.307 1.575c-.825 1.051-1.238 2.461-1.238 4.23 0 1.771.413 3.188 1.238 4.253.824 1.065 1.927 1.597 3.307 1.597zm0 6.21c-2.46 0-4.628-.518-6.502-1.552-1.876-1.035-3.346-2.453-4.41-4.253-1.065-1.8-1.597-3.884-1.597-6.255 0-2.369.532-4.455 1.597-6.254 1.064-1.801 2.534-3.21 4.41-4.231 1.874-1.019 4.042-1.53 6.502-1.53s4.628.511 6.503 1.53c1.874 1.021 3.344 2.43 4.41 4.231 1.064 1.799 1.598 3.885 1.598 6.254 0 2.371-.534 4.455-1.598 6.255-1.066 1.8-2.536 3.218-4.41 4.253-1.875 1.034-4.043 1.552-6.503 1.552zm24.435-13.23v12.645h-7.83v-22.905h7.155l.405 3.015c.75-1.08 1.725-1.95 2.925-2.61 1.2-.659 2.52-.99 3.96-.99 2.49 0 4.485.81 5.985 2.43 1.5 1.621 2.25 3.946 2.25 6.975v14.085h-7.83v-13.185c0-1.35-.3-2.347-.9-2.992s-1.44-.968-2.52-.968-1.95.345-2.61 1.035c-.66.691-.99 1.845-.99 3.465"
      fill="#009bff" class='no-color-change'/><path
      d="m253.432 28.328h3.825c2.19 0 3.922-.794 5.198-2.385 1.274-1.59 1.912-3.689 1.912-6.3 0-2.61-.638-4.709-1.912-6.3-1.276-1.589-3.008-2.385-5.198-2.385h-3.825zm-8.235 6.615v-30.6h12.06c3.03 0 5.708.653 8.033 1.957 2.324 1.306 4.147 3.106 5.467 5.401s1.98 4.943 1.98 7.942c0 3-.66 5.648-1.98 7.943s-3.143 4.095-5.467 5.4c-2.325 1.305-5.003 1.957-8.033 1.957zm38.07-7.425c0 .691.254 1.253.765 1.688.51.435 1.17.652 1.98.652 1.08 0 1.987-.367 2.722-1.102s1.103-1.658 1.103-2.768v-.765c-.81-.149-1.665-.225-2.565-.225-1.141 0-2.092.196-2.858.585-.765.39-1.147 1.035-1.147 1.935zm6.885 7.425-.405-3.015c-1.501 2.401-3.78 3.6-6.84 3.6-1.35 0-2.573-.292-3.667-.877-1.096-.585-1.966-1.388-2.611-2.408-.645-1.019-.967-2.205-.967-3.555 0-2.549.997-4.529 2.993-5.94 1.994-1.409 4.627-2.115 7.897-2.115 1.02 0 2.099.09 3.24.27-.12-1.14-.608-2.002-1.463-2.587s-1.897-.878-3.127-.878c-1.08 0-2.168.203-3.263.608s-2.137.893-3.127 1.462l-2.655-5.04c1.5-.96 3.12-1.702 4.86-2.227 1.739-.525 3.479-.788 5.22-.788 2.099 0 3.989.36 5.67 1.08 1.68.721 3 1.816 3.96 3.285.96 1.471 1.44 3.33 1.44 5.58v13.545zm12.15 0v-22.905c1.26.27 2.535.405 3.825.405 1.32 0 2.655-.135 4.005-.405v22.905z"
      fill="#404040"/><path d="m315.621 34.943h7.831v-32.85h-7.831z" fill="#404040"/><path
      d="m344.826 33.143c-1.38 3.54-2.956 6.18-4.725 7.92-1.771 1.74-4.021 2.611-6.75 2.611-1.231 0-2.34-.136-3.33-.406s-1.83-.6-2.52-.99l2.205-5.399c.419.209.884.389 1.395.54.51.149 1.05.224 1.62.224.81 0 1.537-.195 2.182-.585s1.208-1.095 1.688-2.115l.36-.809-10.35-22.096h8.64l5.085 13.725 4.185-13.725h8.505z"
      fill="#404040"/><path
      d="m306.127 10.238c-1.29 0-2.393-.457-3.308-1.372s-1.372-2.018-1.372-3.308c0-1.289.457-2.392 1.372-3.307s2.018-1.372 3.308-1.372c1.289 0 2.392.457 3.307 1.372s1.373 2.018 1.373 3.307c0 1.29-.458 2.393-1.373 3.308s-2.018 1.372-3.307 1.372"
      fill="#009bff" class='no-color-change'/></g>
</svg>