<svg xmlns="http://www.w3.org/2000/svg" xmlns:xlink="http://www.w3.org/1999/xlink" width="520" height="160" viewBox="0 0 520 160">
  <defs>
    <style>
      .cls-1, .cls-2 {
        fill: #000;
        fill-rule: evenodd;
      }

      .cls-1 {
        filter: url(#filter);
      }
    </style>
    <filter id="filter" x="0" y="115.969" width="367.969" height="16" filterUnits="userSpaceOnUse">
      <feFlood result="flood" flood-color="#999"/>
      <feComposite result="composite" operator="in" in2="SourceGraphic"/>
      <feBlend result="blend" in2="SourceGraphic"/>
    </filter>
  </defs>
  <path id="USAT_Network" data-name="USAT Network" class="cls-1" d="M-0.011,116.273H4.478c3.156,0,5.268,1.865,5.268,4.741s-2.155,4.735-5.268,4.735H2.188v5.925h-2.2v-15.4Zm4.267,7.659c2.112,0,3.244-1.163,3.244-2.918,0-1.736-1.132-2.919-3.244-2.919H2.188v5.837H4.256Zm11.768-7.659H17.98l6.4,15.4H22.022l-1.6-4.035H13.513l-1.6,4.035H9.6S15.244,118.162,16.024,116.273Zm3.665,9.544L18.2,122.023c-0.221-.572-1.178-2.942-1.2-3.139H16.957c-0.022.2-.955,2.5-1.2,3.139l-1.51,3.794h5.443Zm6.924-9.544h4.51c2.91,0,5.178,1.5,5.178,4.563a4.293,4.293,0,0,1-3.955,4.346l4.778,6.492H34.545l-4.51-6.276H28.812v6.276h-2.2v-15.4Zm4.267,7.351c2.043,0,3.2-1.077,3.2-2.764s-1.157-2.765-3.2-2.765H28.812v5.529H30.88ZM42.4,118.138H37.957v-1.865H49.046v1.865H44.6v13.536H42.4V118.138Zm12.348,5.838a7.862,7.862,0,0,1,8.2-8.006,8.008,8.008,0,1,1,0,16.011A7.861,7.861,0,0,1,54.75,123.976Zm14.133,0a5.946,5.946,0,1,0-5.955,6.053A5.773,5.773,0,0,0,68.882,123.976Zm5.433-7.7h7.867v1.865H76.514V123.1H82v1.865H76.514v6.713h-2.2v-15.4Zm17.815,1.865H87.686v-1.865H98.774v1.865H94.33v13.536h-2.2V118.138Zm8.953-1.865h2.2v6.318h8.178v-6.318h2.2v15.4h-2.2v-7.218h-8.178v7.218h-2.2v-15.4Zm16.631,0h8.49v1.846h-6.29v4.472h6.11v1.846h-6.11v5.395h6.422v1.842h-8.622v-15.4Zm16,10.092V116.273h2.221v9.433c0,2.679,1.157,4.323,3.756,4.323,2.622,0,3.78-1.644,3.78-4.323v-9.433h2.221v10.092c0,3.38-2.2,5.616-6,5.616C135.865,131.981,133.71,129.745,133.71,126.365Zm14.274,2.524,1.491-1.25a4.52,4.52,0,0,0,3.911,2.433c1.709,0,3.044-.918,3.044-2.611,0-1.817-1.534-2.433-3.446-3.178-1.956-.769-3.933-1.736-3.933-4.193,0-2.432,1.912-4.12,4.712-4.12a5.249,5.249,0,0,1,4.579,2.322l-1.491,1.25a3.552,3.552,0,0,0-3.088-1.668c-1.512,0-2.511.769-2.511,2.063,0,1.6,1.554,2.13,2.911,2.654,2.2,0.856,4.466,1.889,4.466,4.716,0,2.679-2,4.674-5.2,4.674A6.064,6.064,0,0,1,147.984,128.889Zm18.241-12.616h1.956l6.4,15.4h-2.357l-1.6-4.035h-6.912l-1.6,4.035H159.8S165.446,118.162,166.225,116.273Zm3.665,9.544-1.487-3.794c-0.222-.572-1.179-2.942-1.2-3.139h-0.044c-0.022.2-.955,2.5-1.2,3.139l-1.51,3.794h5.443Zm13.978-7.679h-4.445v-1.865h11.088v1.865h-4.444v13.536h-2.2V118.138Zm7.469,5.838a8.2,8.2,0,1,1,8.2,8A7.861,7.861,0,0,1,191.337,123.976Zm14.132,0a5.945,5.945,0,1,0-5.954,6.053A5.772,5.772,0,0,0,205.469,123.976Zm5.434-7.7h4.423c4.977,0,8.265,2.808,8.265,7.7,0,4.87-3.312,7.7-8.265,7.7H210.9v-15.4Zm2.2,13.534h2.046c3.643,0,6.176-1.9,6.176-5.831s-2.533-5.838-6.176-5.838H213.1v11.669Zm17.637-13.534H232.7l6.4,15.4h-2.357l-1.6-4.035h-6.912l-1.6,4.035h-2.311S229.96,118.162,230.739,116.273Zm3.666,9.544-1.489-3.794c-0.221-.572-1.178-2.942-1.2-3.139h-0.044c-0.022.2-.955,2.5-1.2,3.139l-1.51,3.794h5.444Zm9.084-.419-5.312-9.125h2.467l2.889,5.135a22.887,22.887,0,0,1,1.11,2.192h0.022a23.153,23.153,0,0,1,1.113-2.192l2.91-5.135h2.4l-5.309,9.125v6.276h-2.289V125.4Zm14.062-9.125h1.687l8.846,9.982c0.266,0.288,1.422,1.711,1.534,1.932l0.044-.023c-0.044-.217-0.044-2-0.044-2.39v-9.5h2.134v15.4h-1.713l-8.845-9.983c-0.265-.283-1.422-1.711-1.532-1.928l-0.021.02c0.021,0.221.043,2,.043,2.394v9.5h-2.133v-15.4Zm18.253,0h8.487v1.846H278v4.472h6.113v1.846H278v5.395h6.422v1.842H275.8v-15.4Zm15.37,1.865h-4.445v-1.865h11.089v1.865h-4.445v13.536h-2.2V118.138Zm8.477-1.865h2.334l3.2,9.15c0.112,0.351.867,2.63,0.889,2.981h0.046a30.445,30.445,0,0,1,.933-2.981l3.334-9.15h1.756l3.332,9.15c0.133,0.351.91,2.63,0.935,2.981h0.044c0.044-.351.8-2.63,0.91-2.981l3.179-9.15h2.243l-5.49,15.4h-1.688l-3.6-9.607a25.578,25.578,0,0,1-.758-2.5h-0.044a25.421,25.421,0,0,1-.776,2.5l-3.578,9.607h-1.69Zm24.118,7.7a8.2,8.2,0,1,1,8.2,8A7.862,7.862,0,0,1,323.769,123.976Zm14.133,0a5.945,5.945,0,1,0-5.955,6.053A5.772,5.772,0,0,0,337.9,123.976Zm5.433-7.7h4.511c2.913,0,5.177,1.5,5.177,4.563a4.293,4.293,0,0,1-3.955,4.346l4.779,6.492h-2.579l-4.511-6.276h-1.223v6.276h-2.2v-15.4Zm4.267,7.351c2.044,0,3.2-1.077,3.2-2.764s-1.156-2.765-3.2-2.765h-2.068v5.529H347.6Zm8.736-7.351h2.2v7.154l6.444-7.154h2.666l-6.687,7.351,7,8.05h-2.754l-6.668-7.785v7.785h-2.2v-15.4Z"/>
  <path id="LD_logo_ipad_splash_copy_5" data-name="LD logo ipad splash copy 5" class="cls-2" d="M0,28.741H4.506v54.52H23.447v4.182H0v-58.7Zm27.2,7.025a3.171,3.171,0,1,1,3.171,3.177A3.072,3.072,0,0,1,27.2,35.765Zm1,10.369h4.339V87.443H28.2V46.134Zm7.01,0H39.8L54.071,80.169h0.167L68.506,46.134h4.505L54.739,88.613H53.487ZM74.683,35.765a3.171,3.171,0,1,1,3.171,3.177A3.072,3.072,0,0,1,74.683,35.765Zm1,10.369h4.339V87.443H75.683V46.134Zm14.937,0h4.256v5.519h0.167c2.336-3.513,6.425-6.522,13.017-6.522,9.429,0,15.937,5.686,15.937,16.389V87.443h-4.339V62.607c0-9.448-4.589-13.714-11.765-13.714-7.509,0-12.933,4.683-12.933,14.049v24.5H90.62V46.134Zm42.223,49.587,3.5-2.423c3,4.6,8.678,6.939,14.937,6.939,8.427,0,15.853-4.181,15.853-15.47V79.5H166.97a18.048,18.048,0,0,1-16.187,8.948c-13.518,0-20.777-10.788-20.777-21.658s7.259-21.658,20.777-21.658a17.993,17.993,0,0,1,16.271,9.2h0.166v-8.2h4.256V84.35c0,12.29-7.259,19.651-20.192,19.651C143.44,104,136.431,101.325,132.843,95.721ZM167.22,66.789c0-10.286-6.925-17.9-16.437-17.9s-16.438,7.61-16.438,17.9,6.925,17.9,16.438,17.9S167.22,77.075,167.22,66.789Zm9.849,13.3,3.086-2.342c2.17,3.428,5.841,6.942,12.016,6.942,5.758,0,10.347-3.179,10.347-8.2,0-5.519-5.34-7.527-11.1-9.618-5.924-2.174-11.432-4.933-11.432-11.2,0-6.189,5.257-10.536,12.683-10.536A14.989,14.989,0,0,1,205.355,51.4l-3.088,2.593a11.123,11.123,0,0,0-9.512-5.1c-4.923,0-8.427,2.76-8.427,6.689,0,4.684,4.839,6.356,9.095,7.861,6.091,2.175,13.434,5.019,13.434,12.879,0,7.024-6.008,12.126-14.519,12.126C184.745,88.447,179.571,84.516,177.069,80.084Zm37.13-2.843V50.064h-6.091v-3.93H214.2V34.928h4.34V46.134H229.3v3.93H218.539V76.823c0,4.852,1.418,7.359,5.173,7.359a10.475,10.475,0,0,0,4.923-.92v4.1a19.45,19.45,0,0,1-5.34.667C217.287,88.028,214.2,84.35,214.2,77.242Zm17.024-10.453c0-10.621,7.509-21.658,21.194-21.658S273.61,56.168,273.61,66.789,266.1,88.447,252.417,88.447,231.223,77.409,231.223,66.789Zm38.048,0c0-10.286-7.175-17.9-16.854-17.9s-16.855,7.61-16.855,17.9,7.175,17.9,16.855,17.9S269.271,77.075,269.271,66.789Zm11.183-20.655h4.255v5.519h0.167c2.336-3.513,6.425-6.522,13.016-6.522,9.43,0,15.938,5.686,15.938,16.389V87.443h-4.339V62.607c0-9.448-4.589-13.714-11.766-13.714-7.509,0-12.933,4.683-12.933,14.049v24.5h-4.338V46.134Zm50.151-17.393H349.88c19.691,0,31.79,10.871,31.79,29.35,0,18.231-12.349,29.352-31.79,29.352H330.605v-58.7ZM343.287,76.99h5.59c12.183,0,19.693-6.187,19.693-18.9s-7.51-18.9-19.693-18.9h-5.59v37.8Zm40.22-10.536c0-11.957,8.428-21.323,20.777-21.323a16.165,16.165,0,0,1,13.852,6.94H418.3V46.134H429.65V87.443H418.3V81.506h-0.166a16.165,16.165,0,0,1-13.852,6.942C389.1,88.447,383.507,76.4,383.507,66.454Zm34.211,0.335c0-6.188-3.921-11.707-11.013-11.707s-10.932,5.435-10.932,11.707c0,6.439,4.256,11.706,10.932,11.706C413.463,78.495,417.718,73.228,417.718,66.789Zm17.191-31.944a7.227,7.227,0,1,1,7.175,6.857A6.9,6.9,0,0,1,434.909,34.845Zm1.168,11.289h12.1V87.443h-12.1V46.134ZM454.6,28.741h12.1v58.7H454.6v-58.7ZM471.457,103V93.38a11.569,11.569,0,0,0,5.256,1.089,6.6,6.6,0,0,0,6.509-4.516l1.668-3.846L467.953,46.134h13.183L488.9,67.457a74.886,74.886,0,0,1,2.421,8.2h0.167a62.1,62.1,0,0,1,2.336-8.028l7.843-21.49h12.767l-18.774,44.32C492.317,98.481,488.73,104,478.132,104A22.631,22.631,0,0,1,471.457,103Z"/>
</svg>
