<svg xmlns="http://www.w3.org/2000/svg" xmlns:xlink="http://www.w3.org/1999/xlink" width="665" height="160" viewBox="0 0 665 160">
  <defs>
    <style>
      .cls-1, .cls-2 {
        fill: #000;
        fill-rule: evenodd;
      }

      .cls-1 {
        filter: url(#filter);
      }
    </style>
    <filter id="filter" x="297" y="119.969" width="367.969" height="16" filterUnits="userSpaceOnUse">
      <feFlood result="flood" flood-color="#999"/>
      <feComposite result="composite" operator="in" in2="SourceGraphic"/>
      <feBlend result="blend" in2="SourceGraphic"/>
    </filter>
  </defs>
  <path id="USAT_Network" data-name="USAT Network" class="cls-1" d="M296.989,120.273h4.489c3.156,0,5.267,1.865,5.267,4.741s-2.155,4.735-5.267,4.735h-2.29v5.925h-2.2v-15.4Zm4.267,7.659c2.112,0,3.244-1.163,3.244-2.918,0-1.736-1.132-2.919-3.244-2.919h-2.068v5.837h2.068Zm11.768-7.659h1.955l6.4,15.4h-2.358l-1.6-4.035h-6.911l-1.6,4.035H306.6S312.244,122.162,313.024,120.273Zm3.665,9.544-1.488-3.794c-0.222-.572-1.179-2.942-1.2-3.139h-0.043c-0.022.2-.955,2.5-1.2,3.139l-1.51,3.794h5.443Zm6.924-9.544h4.51c2.91,0,5.178,1.5,5.178,4.563a4.293,4.293,0,0,1-3.955,4.346l4.778,6.492h-2.579l-4.51-6.276h-1.223v6.276h-2.2v-15.4Zm4.267,7.351c2.043,0,3.2-1.077,3.2-2.764s-1.157-2.765-3.2-2.765h-2.068v5.529h2.068Zm11.522-5.486h-4.445v-1.865h11.088v1.865H341.6v13.536h-2.2V122.138Zm12.347,5.838a8.2,8.2,0,1,1,8.2,8A7.862,7.862,0,0,1,351.749,127.976Zm14.133,0a5.946,5.946,0,1,0-5.955,6.053A5.772,5.772,0,0,0,365.882,127.976Zm5.433-7.7h7.867v1.865h-5.668V127.1H379v1.865h-5.49v6.713h-2.2v-15.4Zm17.815,1.865h-4.444v-1.865h11.088v1.865H391.33v13.536h-2.2V122.138Zm8.953-1.865h2.2v6.318h8.178v-6.318h2.2v15.4h-2.2v-7.218h-8.178v7.218h-2.2v-15.4Zm16.631,0h8.49v1.846h-6.29v4.472h6.11v1.846h-6.11v5.395h6.422v1.842h-8.622v-15.4Zm16,10.092V120.273h2.221v9.433c0,2.679,1.157,4.323,3.756,4.323,2.622,0,3.78-1.644,3.78-4.323v-9.433h2.221v10.092c0,3.38-2.2,5.616-6,5.616C432.865,135.981,430.71,133.745,430.71,130.365Zm14.274,2.524,1.491-1.25a4.52,4.52,0,0,0,3.911,2.433c1.709,0,3.044-.918,3.044-2.611,0-1.817-1.534-2.433-3.446-3.178-1.956-.769-3.933-1.736-3.933-4.193,0-2.432,1.912-4.12,4.712-4.12a5.248,5.248,0,0,1,4.579,2.322l-1.491,1.25a3.552,3.552,0,0,0-3.088-1.668c-1.512,0-2.511.769-2.511,2.063,0,1.6,1.554,2.13,2.911,2.654,2.2,0.856,4.466,1.889,4.466,4.716,0,2.679-2,4.674-5.2,4.674A6.064,6.064,0,0,1,444.984,132.889Zm18.241-12.616h1.956l6.4,15.4h-2.357l-1.6-4.035h-6.912l-1.6,4.035H456.8S462.446,122.162,463.225,120.273Zm3.665,9.544-1.487-3.794c-0.222-.572-1.179-2.942-1.2-3.139h-0.044c-0.022.2-.955,2.5-1.2,3.139l-1.51,3.794h5.443Zm13.978-7.679h-4.445v-1.865h11.088v1.865h-4.444v13.536h-2.2V122.138Zm7.469,5.838a8.2,8.2,0,1,1,8.2,8A7.861,7.861,0,0,1,488.337,127.976Zm14.132,0a5.945,5.945,0,1,0-5.954,6.053A5.772,5.772,0,0,0,502.469,127.976Zm5.434-7.7h4.423c4.977,0,8.265,2.808,8.265,7.7,0,4.87-3.312,7.7-8.265,7.7H507.9v-15.4Zm2.2,13.534h2.046c3.643,0,6.176-1.9,6.176-5.831s-2.533-5.838-6.176-5.838H510.1v11.669Zm17.637-13.534H529.7l6.4,15.4h-2.357l-1.6-4.035h-6.912l-1.6,4.035h-2.311S526.96,122.162,527.739,120.273Zm3.666,9.544-1.489-3.794c-0.221-.572-1.178-2.942-1.2-3.139h-0.044c-0.022.2-.955,2.5-1.2,3.139l-1.51,3.794h5.444Zm9.084-.419-5.312-9.125h2.467l2.889,5.135a22.887,22.887,0,0,1,1.11,2.192h0.022a23.153,23.153,0,0,1,1.113-2.192l2.91-5.135h2.4l-5.309,9.125v6.276h-2.289V129.4Zm14.062-9.125h1.687l8.846,9.982c0.266,0.288,1.422,1.711,1.534,1.932l0.044-.023c-0.044-.217-0.044-2-0.044-2.39v-9.5h2.134v15.4h-1.713l-8.845-9.983c-0.265-.283-1.422-1.711-1.532-1.928l-0.021.02c0.021,0.221.043,2,.043,2.394v9.5h-2.133v-15.4Zm18.253,0h8.487v1.846H575v4.472h6.113v1.846H575v5.395h6.422v1.842H572.8v-15.4Zm15.37,1.865h-4.445v-1.865h11.089v1.865h-4.445v13.536h-2.2V122.138Zm8.478-1.865h2.333l3.2,9.15c0.112,0.351.867,2.63,0.889,2.981h0.046a30.445,30.445,0,0,1,.933-2.981l3.334-9.15h1.756l3.332,9.15c0.133,0.351.91,2.63,0.935,2.981h0.044c0.044-.351.8-2.63,0.91-2.981l3.179-9.15h2.243l-5.49,15.4h-1.688l-3.6-9.607a25.578,25.578,0,0,1-.758-2.5h-0.044a25.421,25.421,0,0,1-.776,2.5l-3.578,9.607h-1.69Zm24.117,7.7a8.2,8.2,0,1,1,8.2,8A7.862,7.862,0,0,1,620.769,127.976Zm14.133,0a5.945,5.945,0,1,0-5.955,6.053A5.772,5.772,0,0,0,634.9,127.976Zm5.433-7.7h4.511c2.913,0,5.177,1.5,5.177,4.563a4.293,4.293,0,0,1-3.955,4.346l4.779,6.492h-2.579l-4.511-6.276h-1.222v6.276h-2.2v-15.4Zm4.267,7.351c2.044,0,3.2-1.077,3.2-2.764s-1.156-2.765-3.2-2.765h-2.067v5.529H644.6Zm8.736-7.351h2.2v7.154l6.444-7.154h2.666l-6.687,7.351,7,8.05h-2.754l-6.668-7.785v7.785h-2.2v-15.4Z"/>
  <path id="hometown" class="cls-2" d="M2.407,26.095h14.6V52.569h0.2c3.021-4.144,7.351-7.608,15.407-7.608,12.785,0,19.029,8.085,19.029,20.7V93.672h-14.5v-25.9c0-6.646-2.015-11.65-9.465-11.65s-10.672,4.91-10.672,11.744v25.8H2.407V26.095ZM62.312,69.9c0-11.845,9.163-24.934,27.69-24.934S117.691,58.05,117.691,69.9,108.528,94.829,90,94.829,62.312,81.733,62.312,69.9Zm40.881,0c0-8.085-5.839-13.284-13.191-13.284s-13.19,5.2-13.19,13.284S82.651,83.18,90,83.18,103.193,77.98,103.193,69.9Zm25.874-23.776H142.76v6.45h0.2c3.123-4.238,7.453-7.608,15.509-7.608,7.85,0,13.289,3.276,16.208,8.663,3.124-4.527,8.256-8.663,17.419-8.663,12.588,0,18.931,8.085,18.931,20.7V93.672h-14.6v-25.9c0-6.646-1.913-11.65-8.958-11.65S177.3,61.037,177.3,67.871v25.8H162.8v-25.9c0-6.646-2.015-11.65-9.064-11.65s-10.169,4.91-10.169,11.744v25.8h-14.5V46.119ZM221.692,69.9c0-11.071,7.049-24.934,26.684-24.934s26.176,13.863,26.176,24.55a17.863,17.863,0,0,1-.3,3.464H236.191c0.7,7.506,7.351,11.071,14.6,11.071,6.645,0,10.975-2.7,13.489-6.067l8.055,7.9c-4.126,5.294-11.678,8.953-22.251,8.953C230.552,94.829,221.692,82.218,221.692,69.9Zm38.766-5.105c-1.411-6.544-6.243-9.719-12.082-9.719S237.6,58.246,236.191,64.79h24.267Zm27.886,14.534V56.51H281.6V46.119h6.746v-12.9h14.6v12.9h10.368V56.51H302.946V77.69c0,4.527,2.011,5.966,5.335,5.966a18.208,18.208,0,0,0,4.731-.571v10.68a37.332,37.332,0,0,1-8.455.868C292.875,94.634,288.344,89.435,288.344,79.325ZM321.472,69.9c0-11.845,9.163-24.934,27.689-24.934S376.85,58.05,376.85,69.9s-9.162,24.934-27.689,24.934S321.472,81.733,321.472,69.9Zm40.88,0c0-8.085-5.839-13.284-13.191-13.284s-13.19,5.2-13.19,13.284,5.838,13.284,13.19,13.284S362.352,77.98,362.352,69.9Zm19.729-23.776h15L404.333,69.8a103.382,103.382,0,0,1,2.416,10.587h0.3A101.741,101.741,0,0,1,409.468,69.9l7.151-23.776h14.7L438.466,69.9a100.965,100.965,0,0,1,2.416,10.493h0.3A103.118,103.118,0,0,1,443.6,69.8l7.151-23.682h14.7L448.737,93.672h-14.8L426.285,69.8a65.147,65.147,0,0,1-2.318-10.4h-0.4a65.038,65.038,0,0,1-2.318,10.4L413.6,93.672H398.8Zm92.526,0H488.3v6.45h0.2c3.123-4.238,7.752-7.608,16.011-7.608,13.191,0,19.332,8.085,19.332,20.7V93.672h-14.5v-25.9c0-6.646-2.016-11.65-9.465-11.65s-10.672,4.91-10.672,11.744v25.8h-14.6V46.119Zm65.348-20.024h5.234V93.672h-5.234V26.095ZM563.31,34.18a3.831,3.831,0,1,1,3.828,3.659A3.625,3.625,0,0,1,563.31,34.18Zm1.211,11.939h5.234V93.672h-5.234V46.119ZM590.9,50.638h-7.352V46.119H590.9V40.246c0-9.726,5.438-15.309,14.3-15.309a19.123,19.123,0,0,1,5.942.868v4.91a11.812,11.812,0,0,0-5.438-1.251c-6.043,0-9.564,3.37-9.564,11.26v5.395h15v4.519h-15V93.672H590.9V50.638ZM616.878,69.8c0-11.649,7.552-24.84,24.366-24.84,16.31,0,23.76,12.417,23.76,24.934v0.188H622.01c0.1,10.688,6.849,20.414,19.332,20.414a19.482,19.482,0,0,0,17.925-10.883l4.429,2.314c-4.531,8.468-13.289,12.9-22.755,12.9C625.134,94.829,616.878,82.022,616.878,69.8Zm42.892-3.948c-1.41-9.921-8.659-16.654-18.628-16.654-10.472,0-17.317,7.217-18.829,16.654H659.77Z"/>
  <path class="cls-2" d="M2.491,126.047c0-5.374,4.227-9.956,10.908-9.956s10.908,4.582,10.908,9.956S20.08,136,13.4,136,2.491,131.421,2.491,126.047Zm18.8,0c0-4.446-3.341-7.529-7.923-7.529-4.523,0-7.893,3.083-7.893,7.529s3.37,7.529,7.893,7.529C17.952,133.576,21.292,130.494,21.292,126.047Zm3.873,4.5c0-2.973,2.217-4.5,4.73-5.974-1.123-1.255-2.247-2.618-2.247-4.419,0-2.537,2.247-3.982,5.055-3.982,3.282,0,4.848,1.936,4.848,4.064,0,2.428-2.069,3.683-3.961,4.828l5.055,5.319A6.7,6.7,0,0,0,39.8,126.32h2.513a8.135,8.135,0,0,1-2.128,5.7l3.429,3.6H40.331L38.468,133.6a9.917,9.917,0,0,1-6.563,2.319C28.033,135.922,25.165,133.93,25.165,130.548Zm11.766,1.5-5.558-5.919c-1.892,1.146-3.37,2.291-3.37,4.283,0,2.1,1.656,3.437,4.316,3.437A6.493,6.493,0,0,0,36.931,132.048ZM35.01,120.291a2.136,2.136,0,0,0-2.365-2.1,2.076,2.076,0,0,0-2.306,2.046c0,1.255,1.005,2.428,1.833,3.3C33.65,122.719,35.01,121.737,35.01,120.291Zm10.081-3.818H56.383v2.291H48.017v5.565h8.129v2.291H48.017v6.71h8.543v2.292H45.091V116.473Zm20.486,0h2.6L73.8,128.857a22.589,22.589,0,0,1,1.005,2.7H74.83a22.641,22.641,0,0,1,1.005-2.7l5.617-12.384h2.542l2.867,19.149H83.994l-1.508-10.884c-0.059-.409-0.385-2.673-0.414-3.137H82.043c-0.059.3-.946,2.4-1.153,2.864l-5.085,11.157h-2.04l-5.055-11.157c-0.207-.491-1.123-2.564-1.182-2.864H67.5c-0.03.464-.355,2.728-0.414,3.137l-1.508,10.884H62.71ZM87.72,128.884c0-3.246,2.158-7.065,7.45-7.065,5.262,0,7.331,3.737,7.331,6.929a5.4,5.4,0,0,1-.029.627h-12c0.059,2.619,2.1,4.5,5.085,4.5a5.2,5.2,0,0,0,4.642-2.455l2.01,1.173a7.669,7.669,0,0,1-6.8,3.355C90.2,135.949,87.72,132.348,87.72,128.884Zm12.032-1.364a4.7,4.7,0,0,0-9.194,0h9.194Zm3.548,1.309a6.975,6.975,0,0,1,7.361-7.01,5.95,5.95,0,0,1,5.233,2.537h0.059v-7.883h2.808v19.149H116.1V133.3H116.04a6.255,6.255,0,0,1-5.38,2.646A6.945,6.945,0,0,1,103.3,128.829Zm12.682,0.055a4.922,4.922,0,1,0-4.937,4.91A4.757,4.757,0,0,0,115.981,128.884Zm5.44-10.256a1.785,1.785,0,0,1,3.547,0A1.785,1.785,0,0,1,121.421,118.628Zm0.384,3.518h2.779v13.476h-2.779V122.146Zm4.7,6.683a6.958,6.958,0,0,1,7.361-7.01,6.259,6.259,0,0,1,5.381,2.646h0.059v-2.319h2.661v13.476h-2.661V133.3h-0.059a6.259,6.259,0,0,1-5.381,2.646A6.945,6.945,0,0,1,126.505,128.829Zm12.683,0.055a4.923,4.923,0,1,0-4.937,4.91A4.757,4.757,0,0,0,139.188,128.884Z"/>
</svg>
