<svg height="47" viewBox="0 0 331 47" width="331" xmlns="http://www.w3.org/2000/svg">
  <g fill="none" fill-rule="evenodd">
    <g fill="#404040"><path
      d="m1.183 43.696h1.113c.366 0 .655-.09.867-.27.213-.179.32-.425.32-.736s-.107-.556-.32-.737c-.212-.18-.501-.27-.867-.27h-1.113zm-.826 2.856v-5.564h1.939c.622 0 1.116.152 1.481.458.366.306.549.72.549 1.244 0 .518-.183.929-.549 1.231-.365.303-.859.455-1.481.455h-1.113v2.176zm5.638-2.094h2.029l-1.014-2.611zm2.84 2.094-.541-1.399h-2.569l-.54 1.399h-.835l2.226-5.564h.892l2.218 5.564zm2.602-2.938h1.137c.355 0 .637-.087.847-.261.21-.175.315-.409.315-.704s-.105-.529-.315-.704c-.21-.174-.492-.262-.847-.262h-1.137zm0 .68v2.258h-.827v-5.564h1.964c.617 0 1.105.148 1.465.446.36.297.54.702.54 1.215 0 .387-.109.715-.327.982s-.518.455-.9.565l1.35 2.356h-.941l-1.269-2.258z"/><path d="m16.952 46.552v-4.869h-1.874v-.695h4.575v.695h-1.874v4.869z"/><path
      d="m24.964 45.922c.36 0 .68-.091.961-.274.281-.182.501-.435.659-.757s.238-.695.238-1.121c0-.425-.08-.799-.238-1.121s-.378-.574-.659-.757-.601-.274-.961-.274-.679.091-.958.274c-.278.183-.496.435-.654.757s-.238.696-.238 1.121c0 .426.08.799.238 1.121s.376.575.654.757c.279.183.598.274.958.274zm0 .721c-.524 0-.988-.123-1.391-.369-.404-.245-.722-.583-.954-1.015-.232-.43-.348-.927-.348-1.489s.116-1.058.348-1.489.55-.769.954-1.015c.403-.245.867-.368 1.391-.368s.989.123 1.395.368c.407.246.726.584.957 1.015.232.431.348.927.348 1.489s-.116 1.059-.348 1.489c-.231.432-.55.77-.957 1.015-.406.246-.871.369-1.395.369z"/><path d="m29.653 46.552h-.827v-5.564h3.462v.695h-2.635v1.883h2.234v.695h-2.234z"/><path d="m36.6 46.552v-4.869h-1.874v-.695h4.575v.695h-1.874v4.869z"/><path d="m40.25 46.552v-5.564h.826v2.381h2.873v-2.381h.827v5.564h-.827v-2.471h-2.873v2.471z"/><path d="m46.232 46.552v-5.564h3.568v.695h-2.742v1.719h2.415v.695h-2.415v1.76h2.807v.695z"/><path
      d="m55.086 45.922c.453 0 .809-.136 1.068-.409.259-.272.389-.641.389-1.105v-3.42h.826v3.429c0 .692-.203 1.237-.61 1.632-.406.396-.964.594-1.673.594s-1.266-.198-1.669-.594c-.404-.395-.606-.94-.606-1.632v-3.429h.827v3.42c0 .464.129.833.388 1.105.259.273.613.409 1.06.409m5.368.721c-.42 0-.82-.074-1.202-.221-.382-.148-.69-.344-.925-.59l.466-.548c.218.202.476.36.774.475.297.114.593.172.887.172.361 0 .651-.07.872-.209s.332-.331.332-.577c0-.224-.08-.412-.238-.565-.158-.152-.428-.281-.81-.384l-.769-.205c-.497-.131-.858-.316-1.084-.556-.227-.24-.34-.554-.34-.942 0-.316.084-.594.254-.834.169-.24.402-.427.699-.561.298-.133.634-.2 1.011-.2.398 0 .772.075 1.121.225s.658.358.925.626l-.499.54c-.235-.218-.479-.386-.733-.504-.253-.116-.522-.175-.806-.175-.344 0-.625.072-.843.217-.218.144-.327.345-.327.601 0 .234.078.418.233.548.156.131.394.24.716.328l.859.237c.497.136.86.327 1.089.573s.343.551.343.916c0 .322-.084.605-.253.847-.169.243-.404.431-.704.565s-.649.201-1.048.201m4.084-2.185h2.029l-1.014-2.611zm2.839 2.094-.54-1.399h-2.569l-.54 1.399h-.835l2.226-5.564h.892l2.217 5.564z"/><path d="m72.075 46.552v-4.869h-1.874v-.695h4.574v.695h-1.874v4.869z"/><path
      d="m77.754 45.922c.36 0 .68-.091.961-.274.281-.182.501-.435.659-.757s.237-.695.237-1.121c0-.425-.079-.799-.237-1.121s-.378-.574-.659-.757-.601-.274-.961-.274-.679.091-.958.274c-.278.183-.496.435-.654.757-.159.322-.238.696-.238 1.121 0 .426.079.799.238 1.121.158.322.376.575.654.757.279.183.598.274.958.274zm0 .721c-.524 0-.988-.123-1.391-.369-.404-.245-.722-.583-.954-1.015-.232-.43-.348-.927-.348-1.489s.116-1.058.348-1.489.55-.769.954-1.015c.403-.245.867-.368 1.391-.368.523 0 .989.123 1.395.368.406.246.725.584.957 1.015s.348.927.348 1.489-.116 1.059-.348 1.489c-.232.432-.551.77-.957 1.015-.406.246-.872.369-1.395.369zm4.689-.786h1.129c.393 0 .73-.086 1.011-.258s.496-.413.646-.724.225-.679.225-1.105c0-.425-.075-.794-.225-1.105s-.365-.552-.646-.724-.618-.258-1.011-.258h-1.129zm-.827.695v-5.564h1.956c.546 0 1.023.116 1.432.348.41.231.727.556.954.973.226.418.339.904.339 1.461 0 .556-.113 1.044-.339 1.461-.227.417-.544.742-.954.974-.409.232-.886.347-1.432.347zm6.793-2.094h2.029l-1.015-2.611zm2.839 2.094-.54-1.399h-2.569l-.541 1.399h-.834l2.225-5.564h.893l2.217 5.564z"/><path d="m94.636 44.343v2.209h-.826v-2.209l-1.956-3.355h.973l1.4 2.57 1.399-2.57h.958z"/><path d="m103.196 46.552-2.971-4.263v4.263h-.777v-5.564h.769l2.979 4.263v-4.263h.769v5.564z"/><path d="m105.421 46.552v-5.564h3.568v.695h-2.741v1.719h2.414v.695h-2.414v1.76h2.807v.695z"/><path d="m111.51 46.552v-4.869h-1.874v-.695h4.574v.695h-1.874v4.869z"/><path d="m119.611 46.552-1.301-4.435-1.301 4.435h-.859l-1.481-5.564h.818l1.129 4.403 1.301-4.403h.786l1.309 4.419 1.138-4.419h.802l-1.482 5.564z"/><path
      d="m125.233 45.922c.36 0 .681-.091.962-.274.281-.182.5-.435.658-.757.159-.322.238-.695.238-1.121 0-.425-.079-.799-.238-1.121-.158-.322-.377-.574-.658-.757s-.602-.274-.962-.274-.679.091-.957.274c-.279.183-.497.435-.655.757s-.237.696-.237 1.121c0 .426.079.799.237 1.121s.376.575.655.757c.278.183.597.274.957.274zm0 .721c-.524 0-.987-.123-1.391-.369-.404-.245-.722-.583-.953-1.015-.232-.43-.348-.927-.348-1.489s.116-1.058.348-1.489c.231-.431.549-.769.953-1.015.404-.245.867-.368 1.391-.368s.989.123 1.395.368c.407.246.726.584.958 1.015s.348.927.348 1.489-.116 1.059-.348 1.489c-.232.432-.551.77-.958 1.015-.406.246-.871.369-1.395.369zm4.689-3.029h1.138c.354 0 .637-.087.847-.261.21-.175.315-.409.315-.704s-.105-.529-.315-.704c-.21-.174-.493-.262-.847-.262h-1.138zm0 .68v2.258h-.826v-5.564h1.964c.616 0 1.104.148 1.465.446.36.297.54.702.54 1.215 0 .387-.109.715-.328.982-.218.267-.518.455-.9.565l1.35 2.356h-.941l-1.268-2.258z"/><path d="m137.557 46.552-2.496-2.806v2.806h-.826v-5.564h.826v2.438l2.333-2.438h1.022l-2.479 2.553 2.66 3.011z"/></g><path d="m.357 34.568v-30.599h8.37v11.79h10.395v-11.79h8.37v30.599h-8.37v-11.969h-10.395v11.969z" fill="#009bff" class='no-color-change'/><path
      d="m44.726 28.943c1.38 0 2.482-.532 3.308-1.597.824-1.065 1.237-2.482 1.237-4.252s-.413-3.18-1.237-4.231c-.826-1.049-1.928-1.574-3.308-1.574s-2.483.525-3.307 1.574c-.826 1.051-1.238 2.461-1.238 4.231s.412 3.187 1.238 4.252c.824 1.065 1.927 1.597 3.307 1.597zm0 6.21c-2.46 0-4.628-.517-6.502-1.552-1.876-1.035-3.346-2.453-4.41-4.252-1.066-1.8-1.598-3.885-1.598-6.255s.532-4.455 1.598-6.255c1.064-1.8 2.534-3.21 4.41-4.231 1.874-1.019 4.042-1.529 6.502-1.529s4.628.51 6.503 1.529c1.874 1.021 3.344 2.431 4.41 4.231 1.064 1.8 1.597 3.885 1.597 6.255s-.533 4.455-1.597 6.255c-1.066 1.799-2.536 3.217-4.41 4.252-1.875 1.035-4.043 1.552-6.503 1.552zm24.435-13.769v13.184h-7.83v-22.904h7.2l.405 2.925c.69-1.11 1.59-1.95 2.7-2.521 1.11-.569 2.295-.854 3.555-.854 1.35 0 2.58.3 3.69.899 1.11.601 2.01 1.441 2.7 2.521.81-1.11 1.868-1.958 3.173-2.543s2.677-.877 4.117-.877c1.59 0 2.993.367 4.208 1.102 1.215.736 2.167 1.755 2.857 3.06s1.035 2.813 1.035 4.522v14.67h-7.83v-13.859c0-.96-.263-1.725-.787-2.295-.526-.57-1.193-.855-2.003-.855-.99 0-1.785.315-2.385.945s-.9 1.59-.9 2.88v13.184h-7.83v-13.859c0-.96-.255-1.725-.765-2.295s-1.2-.855-2.07-.855c-.96 0-1.74.315-2.34.945s-.9 1.59-.9 2.88m43.74-4.635c-2.55 0-4.08 1.35-4.59 4.05h8.73c-.21-1.47-.713-2.513-1.508-3.128-.795-.614-1.672-.922-2.632-.922zm10.71 15.48c-1.141.81-2.588 1.5-4.342 2.07-1.756.569-3.623.854-5.603.854-2.73 0-5.063-.502-6.998-1.507-1.934-1.004-3.42-2.408-4.454-4.207-1.036-1.8-1.553-3.871-1.553-6.21 0-2.37.51-4.47 1.53-6.3 1.019-1.83 2.43-3.263 4.23-4.298s3.9-1.552 6.3-1.552c2.34 0 4.402.502 6.187 1.507 1.785 1.006 3.18 2.4 4.185 4.185 1.005 1.786 1.508 3.878 1.508 6.278 0 .33-.022.675-.068 1.035-.045.359-.097.735-.157 1.125h-15.975c.72 2.64 2.684 3.96 5.895 3.96 1.44 0 2.715-.226 3.825-.675 1.109-.45 2.04-.9 2.79-1.35zm21.87.855c-.931.63-1.996 1.132-3.195 1.507-1.2.375-2.46.562-3.78.562-2.46 0-4.418-.712-5.873-2.137-1.455-1.424-2.182-3.337-2.182-5.738v-9.764h-3.735v-5.85h4.095l.99-6.391h6.48v6.391h5.985v5.85h-5.985v8.775c0 .78.232 1.388.697 1.822.465.435 1.087.653 1.868.653.389 0 .787-.075 1.192-.225s.788-.33 1.148-.54zm14.175-4.141c1.379 0 2.482-.532 3.307-1.597s1.238-2.482 1.238-4.252-.413-3.18-1.238-4.231c-.825-1.049-1.928-1.574-3.307-1.574-1.381 0-2.483.525-3.308 1.574-.825 1.051-1.237 2.461-1.237 4.231s.412 3.187 1.237 4.252 1.927 1.597 3.308 1.597zm0 6.21c-2.461 0-4.628-.517-6.503-1.552s-3.345-2.453-4.41-4.252c-1.065-1.8-1.597-3.885-1.597-6.255s.532-4.455 1.597-6.255 2.535-3.21 4.41-4.231c1.875-1.019 4.042-1.529 6.503-1.529 2.459 0 4.627.51 6.502 1.529 1.875 1.021 3.345 2.431 4.41 4.231 1.064 1.8 1.597 3.885 1.597 6.255s-.533 4.455-1.597 6.255c-1.065 1.799-2.535 3.217-4.41 4.252s-4.043 1.552-6.502 1.552z"
      fill="#009bff" class='no-color-change'/><path d="m194.936 34.568-3.69-13.904-3.645 13.904h-8.101l-5.939-22.904h8.01l2.385 14.76 3.87-14.76h6.884l4.006 14.805 2.429-14.805h7.831l-5.94 22.904z" fill="#009bff" class='no-color-change'/><path
      d="m220.225 21.924v12.644h-7.83v-22.904h7.155l.405 3.015c.75-1.08 1.725-1.95 2.925-2.611 1.2-.659 2.52-.989 3.96-.989 2.49 0 4.485.81 5.985 2.43s2.25 3.945 2.25 6.974v14.085h-7.83v-13.184c0-1.35-.3-2.347-.9-2.993-.6-.645-1.44-.967-2.52-.967s-1.951.345-2.61 1.035c-.66.69-.99 1.845-.99 3.465"
      fill="#009bff" class='no-color-change'/><path d="m259.959 27.818h12.735v6.75h-21.105v-30.599h8.37z" fill="#404040"/><path
      d="m276.474 34.568v-22.904c1.259.27 2.534.404 3.825.404 1.319 0 2.655-.134 4.005-.404v22.904zm28.979-17.054h-5.985v17.054h-7.83v-17.054h-3.735v-5.85h3.735v-1.665c0-2.64.78-4.77 2.34-6.391 1.56-1.62 3.765-2.429 6.615-2.429 1.08 0 2.175.135 3.285.405 1.109.27 2.28.795 3.51 1.575l-2.655 4.815c-.36-.21-.765-.39-1.215-.54s-.945-.225-1.485-.225c-.72 0-1.327.225-1.823.675-.495.45-.742 1.155-.742 2.115v1.665h5.985zm13.68-.765c-2.551 0-4.08 1.35-4.59 4.05h8.73c-.211-1.47-.713-2.513-1.508-3.128-.795-.614-1.672-.922-2.632-.922zm10.71 15.48c-1.141.81-2.588 1.5-4.343 2.07-1.755.569-3.622.854-5.602.854-2.731 0-5.063-.502-6.998-1.507-1.935-1.004-3.42-2.408-4.455-4.207-1.035-1.8-1.552-3.871-1.552-6.21 0-2.37.51-4.47 1.53-6.3 1.019-1.83 2.43-3.263 4.23-4.298s3.899-1.552 6.3-1.552c2.34 0 4.402.502 6.187 1.507 1.785 1.006 3.18 2.4 4.185 4.185 1.005 1.786 1.508 3.878 1.508 6.278 0 .33-.023.675-.068 1.035-.045.359-.098.735-.157 1.125h-15.975c.72 2.64 2.684 3.96 5.895 3.96 1.44 0 2.715-.226 3.825-.675 1.109-.45 2.04-.9 2.79-1.35z"
      fill="#404040"/><path
      d="m280.299 9.863c-1.291 0-2.393-.457-3.308-1.372s-1.372-2.017-1.372-3.307.457-2.392 1.372-3.308c.915-.915 2.017-1.372 3.308-1.372 1.289 0 2.391.457 3.307 1.372.915.916 1.372 2.018 1.372 3.308s-.457 2.392-1.372 3.307c-.916.915-2.018 1.372-3.307 1.372"
      fill="#009bff" class='no-color-change'/></g>
</svg>