<svg xmlns="http://www.w3.org/2000/svg" width="320" height="47" viewBox="0 0 320 47">
  <g fill="none" fill-rule="evenodd">
    <path fill="#FFFFFF" d="M183.411 43.722L184.515 43.722C184.877 43.722 185.163 43.632 185.374 43.454 185.585 43.275 185.691 43.032 185.691 42.724 185.691 42.415 185.585 42.172 185.374 41.993 185.163 41.814 184.877 41.726 184.515 41.726L183.411 41.726 183.411 43.722zM182.592 46.554L182.592 41.036 184.515 41.036C185.131 41.036 185.621 41.187 185.983 41.49 186.346 41.793 186.526 42.204 186.526 42.724 186.526 43.237 186.346 43.645 185.983 43.945 185.621 44.245 185.131 44.396 184.515 44.396L183.411 44.396 183.411 46.554 182.592 46.554zM188.182 44.477L190.194 44.477 189.189 41.888 188.182 44.477zM190.998 46.554L190.462 45.166 187.914 45.166 187.379 46.554 186.551 46.554 188.758 41.036 189.643 41.036 191.842 46.554 190.998 46.554zM193.578 43.641L194.706 43.641C195.058 43.641 195.337 43.554 195.546 43.381 195.754 43.208 195.858 42.975 195.858 42.683 195.858 42.391 195.754 42.158 195.546 41.985 195.337 41.812 195.058 41.726 194.706 41.726L193.578 41.726 193.578 43.641zM193.578 44.313L193.578 46.554 192.759 46.554 192.759 41.036 194.706 41.036C195.317 41.036 195.801 41.183 196.158 41.477 196.516 41.772 196.693 42.175 196.693 42.683 196.693 43.067 196.586 43.392 196.369 43.656 196.152 43.922 195.856 44.108 195.477 44.217L196.815 46.554 195.883 46.554 194.625 44.313 193.578 44.313z"/>
    <polyline fill="#FFFFFF" points="199.047 46.554 199.047 41.726 197.189 41.726 197.189 41.036 201.725 41.036 201.725 41.726 199.866 41.726 199.866 46.554 199.047 46.554"/>
    <path fill="#FFFFFF" d="M206.99,45.929 C207.348,45.929 207.665,45.838 207.943,45.657 C208.223,45.476 208.44,45.226 208.597,44.906 C208.754,44.587 208.832,44.217 208.832,43.794 C208.832,43.372 208.754,43.002 208.597,42.683 C208.44,42.364 208.223,42.113 207.943,41.933 C207.665,41.751 207.348,41.66 206.99,41.66 C206.634,41.66 206.317,41.751 206.041,41.933 C205.765,42.113 205.549,42.364 205.392,42.683 C205.235,43.002 205.156,43.372 205.156,43.794 C205.156,44.217 205.235,44.587 205.392,44.906 C205.549,45.226 205.765,45.476 206.041,45.657 C206.317,45.838 206.634,45.929 206.99,45.929 Z M206.99,46.643 C206.471,46.643 206.012,46.521 205.611,46.277 C205.211,46.034 204.896,45.698 204.666,45.271 C204.436,44.844 204.32,44.352 204.32,43.794 C204.32,43.237 204.436,42.745 204.666,42.318 C204.896,41.891 205.211,41.555 205.611,41.312 C206.012,41.068 206.471,40.946 206.99,40.946 C207.51,40.946 207.971,41.068 208.374,41.312 C208.776,41.555 209.093,41.891 209.323,42.318 C209.553,42.745 209.668,43.237 209.668,43.794 C209.668,44.352 209.553,44.844 209.323,45.271 C209.093,45.698 208.776,46.034 208.374,46.277 C207.971,46.521 207.51,46.643 206.99,46.643 Z"/>
    <polyline fill="#FFFFFF" points="211.64 46.554 210.82 46.554 210.82 41.036 214.253 41.036 214.253 41.726 211.64 41.726 211.64 43.592 213.856 43.592 213.856 44.281 211.64 44.281 211.64 46.554"/>
    <polyline fill="#FFFFFF" points="218.528 46.554 218.528 41.726 216.67 41.726 216.67 41.036 221.206 41.036 221.206 41.726 219.349 41.726 219.349 46.554 218.528 46.554"/>
    <polyline fill="#FFFFFF" points="222.148 46.554 222.148 41.036 222.967 41.036 222.967 43.397 225.815 43.397 225.815 41.036 226.635 41.036 226.635 46.554 225.815 46.554 225.815 44.102 222.967 44.102 222.967 46.554 222.148 46.554"/>
    <polyline fill="#FFFFFF" points="228.079 46.554 228.079 41.036 231.616 41.036 231.616 41.726 228.898 41.726 228.898 43.429 231.292 43.429 231.292 44.119 228.898 44.119 228.898 45.863 231.682 45.863 231.682 46.554 228.079 46.554"/>
    <path fill="#FFFFFF" d="M236.858 45.929C237.308 45.929 237.66 45.794 237.917 45.523 238.174 45.252 238.303 44.887 238.303 44.428L238.303 41.036 239.122 41.036 239.122 44.436C239.122 45.123 238.92 45.662 238.518 46.055 238.114 46.446 237.562 46.643 236.858 46.643 236.155 46.643 235.604 46.446 235.203 46.055 234.803 45.662 234.603 45.123 234.603 44.436L234.603 41.036 235.422 41.036 235.422 44.428C235.422 44.887 235.551 45.252 235.808 45.523 236.065 45.794 236.414 45.929 236.858 45.929M242.181 46.643C241.765 46.643 241.366 46.569 240.988 46.424 240.609 46.277 240.304 46.083 240.071 45.84L240.534 45.296C240.75 45.496 241.006 45.652 241.301 45.767 241.596 45.88 241.889 45.937 242.181 45.937 242.538 45.937 242.826 45.868 243.045 45.729 243.264 45.592 243.374 45.401 243.374 45.158 243.374 44.936 243.295 44.75 243.139 44.598 242.982 44.446 242.714 44.319 242.335 44.217L241.572 44.014C241.08 43.884 240.722 43.7 240.497 43.462 240.273 43.224 240.16 42.913 240.16 42.529 240.16 42.215 240.244 41.939 240.412 41.701 240.58 41.463 240.811 41.278 241.106 41.146 241.4 41.013 241.734 40.946 242.108 40.946 242.503 40.946 242.873 41.021 243.22 41.17 243.565 41.318 243.871 41.525 244.137 41.79L243.642 42.326C243.409 42.109 243.167 41.943 242.915 41.827 242.664 41.711 242.398 41.652 242.116 41.652 241.775 41.652 241.496 41.725 241.28 41.867 241.064 42.011 240.956 42.21 240.956 42.464 240.956 42.696 241.032 42.878 241.187 43.008 241.341 43.138 241.578 43.246 241.898 43.332L242.749 43.567C243.241 43.702 243.601 43.892 243.828 44.136 244.056 44.379 244.169 44.682 244.169 45.044 244.169 45.363 244.085 45.644 243.917 45.884 243.75 46.125 243.517 46.312 243.22 46.443 242.922 46.576 242.576 46.643 242.181 46.643M246.23 44.477L248.242 44.477 247.236 41.888 246.23 44.477zM249.046 46.554L248.51 45.166 245.962 45.166 245.427 46.554 244.599 46.554 246.806 41.036 247.69 41.036 249.89 46.554 249.046 46.554z"/>
    <polyline fill="#FFFFFF" points="253.703 46.554 253.703 41.726 251.845 41.726 251.845 41.036 256.381 41.036 256.381 41.726 254.523 41.726 254.523 46.554 253.703 46.554"/>
    <path fill="#FFFFFF" d="M259.334 45.929C259.691 45.929 260.009 45.838 260.288 45.657 260.566 45.476 260.784 45.226 260.94 44.906 261.098 44.587 261.176 44.217 261.176 43.794 261.176 43.372 261.098 43.002 260.94 42.683 260.784 42.364 260.566 42.113 260.288 41.933 260.009 41.751 259.691 41.66 259.334 41.66 258.978 41.66 258.661 41.751 258.385 41.933 258.109 42.113 257.893 42.364 257.735 42.683 257.579 43.002 257.5 43.372 257.5 43.794 257.5 44.217 257.579 44.587 257.735 44.906 257.893 45.226 258.109 45.476 258.385 45.657 258.661 45.838 258.978 45.929 259.334 45.929zM259.334 46.643C258.815 46.643 258.356 46.521 257.955 46.277 257.555 46.034 257.239 45.698 257.01 45.271 256.779 44.844 256.665 44.352 256.665 43.794 256.665 43.237 256.779 42.745 257.01 42.318 257.239 41.891 257.555 41.555 257.955 41.312 258.356 41.068 258.815 40.946 259.334 40.946 259.854 40.946 260.315 41.068 260.718 41.312 261.12 41.555 261.438 41.891 261.667 42.318 261.897 42.745 262.012 43.237 262.012 43.794 262.012 44.352 261.897 44.844 261.667 45.271 261.438 45.698 261.12 46.034 260.718 46.277 260.315 46.521 259.854 46.643 259.334 46.643zM263.983 45.863L265.104 45.863C265.493 45.863 265.827 45.778 266.106 45.608 266.384 45.438 266.598 45.198 266.746 44.89 266.896 44.582 266.97 44.217 266.97 43.794 266.97 43.372 266.896 43.008 266.746 42.699 266.598 42.391 266.384 42.151 266.106 41.981 265.827 41.811 265.493 41.726 265.104 41.726L263.983 41.726 263.983 45.863zM263.164 46.554L263.164 41.036 265.104 41.036C265.645 41.036 266.117 41.15 266.523 41.381 266.929 41.61 267.244 41.933 267.469 42.347 267.693 42.76 267.806 43.243 267.806 43.794 267.806 44.347 267.693 44.829 267.469 45.243 267.244 45.657 266.929 45.979 266.523 46.208 266.117 46.438 265.645 46.554 265.104 46.554L263.164 46.554zM269.898 44.477L271.911 44.477 270.905 41.888 269.898 44.477zM272.715 46.554L272.179 45.166 269.631 45.166 269.096 46.554 268.268 46.554 270.475 41.036 271.359 41.036 273.559 46.554 272.715 46.554z"/>
    <polyline fill="#FFFFFF" points="276.073 44.362 276.073 46.554 275.254 46.554 275.254 44.362 273.315 41.036 274.28 41.036 275.668 43.583 277.056 41.036 278.005 41.036 276.073 44.362"/>
    <polyline fill="#FFFFFF" points="284.561 46.554 281.615 42.326 281.615 46.554 280.845 46.554 280.845 41.036 281.607 41.036 284.561 45.264 284.561 41.036 285.323 41.036 285.323 46.554 284.561 46.554"/>
    <polyline fill="#FFFFFF" points="286.768 46.554 286.768 41.036 290.306 41.036 290.306 41.726 287.588 41.726 287.588 43.429 289.982 43.429 289.982 44.119 287.588 44.119 287.588 45.863 290.371 45.863 290.371 46.554 286.768 46.554"/>
    <polyline fill="#FFFFFF" points="292.805 46.554 292.805 41.726 290.946 41.726 290.946 41.036 295.482 41.036 295.482 41.726 293.624 41.726 293.624 46.554 292.805 46.554"/>
    <polyline fill="#FFFFFF" points="300.838 46.554 299.548 42.155 298.258 46.554 297.405 46.554 295.937 41.036 296.748 41.036 297.868 45.401 299.158 41.036 299.938 41.036 301.235 45.418 302.363 41.036 303.158 41.036 301.69 46.554 300.838 46.554"/>
    <path fill="#FFFFFF" d="M306.412 45.929C306.77 45.929 307.087 45.838 307.366 45.657 307.644 45.476 307.862 45.226 308.019 44.906 308.176 44.587 308.254 44.217 308.254 43.794 308.254 43.372 308.176 43.002 308.019 42.683 307.862 42.364 307.644 42.113 307.366 41.933 307.087 41.751 306.77 41.66 306.412 41.66 306.056 41.66 305.739 41.751 305.463 41.933 305.187 42.113 304.971 42.364 304.814 42.683 304.657 43.002 304.578 43.372 304.578 43.794 304.578 44.217 304.657 44.587 304.814 44.906 304.971 45.226 305.187 45.476 305.463 45.657 305.739 45.838 306.056 45.929 306.412 45.929zM306.412 46.643C305.894 46.643 305.434 46.521 305.032 46.277 304.633 46.034 304.317 45.698 304.087 45.271 303.857 44.844 303.742 44.352 303.742 43.794 303.742 43.237 303.857 42.745 304.087 42.318 304.317 41.891 304.633 41.555 305.032 41.312 305.434 41.068 305.894 40.946 306.412 40.946 306.932 40.946 307.393 41.068 307.796 41.312 308.198 41.555 308.515 41.891 308.745 42.318 308.975 42.745 309.09 43.237 309.09 43.794 309.09 44.352 308.975 44.844 308.745 45.271 308.515 45.698 308.198 46.034 307.796 46.277 307.393 46.521 306.932 46.643 306.412 46.643zM311.062 43.641L312.19 43.641C312.541 43.641 312.821 43.554 313.029 43.381 313.237 43.208 313.342 42.975 313.342 42.683 313.342 42.391 313.237 42.158 313.029 41.985 312.821 41.812 312.541 41.726 312.19 41.726L311.062 41.726 311.062 43.641zM311.062 44.313L311.062 46.554 310.242 46.554 310.242 41.036 312.19 41.036C312.801 41.036 313.285 41.183 313.642 41.477 313.999 41.772 314.177 42.175 314.177 42.683 314.177 43.067 314.069 43.392 313.853 43.656 313.637 43.922 313.339 44.108 312.96 44.217L314.299 46.554 313.366 46.554 312.108 44.313 311.062 44.313z"/>
    <polyline fill="#FFFFFF" points="318.632 46.554 316.157 43.771 316.157 46.554 315.338 46.554 315.338 41.036 316.157 41.036 316.157 43.454 318.47 41.036 319.484 41.036 317.025 43.567 319.662 46.554 318.632 46.554"/>
    <path class="no-color-change" fill="#009BFF" d="M12.462 35.384C10.122 35.384 8.044 34.882 6.23 33.877 4.414 32.872 2.982 31.469 1.932 29.669.881 27.869.357 25.77.357 23.369.357 20.97.881 18.869 1.932 17.069 2.982 15.27 4.414 13.867 6.23 12.862 8.044 11.857 10.122 11.354 12.462 11.354 14.532 11.354 16.347 11.737 17.907 12.502 19.466 13.267 20.847 14.489 22.047 16.169L16.872 19.949C16.451 19.319 15.904 18.802 15.23 18.396 14.555 17.992 13.827 17.789 13.047 17.789 11.697 17.789 10.572 18.292 9.672 19.297 8.771 20.302 8.322 21.659 8.322 23.369 8.322 25.079 8.771 26.437 9.672 27.441 10.572 28.447 11.697 28.949 13.047 28.949 13.827 28.949 14.555 28.747 15.23 28.342 15.904 27.937 16.451 27.419 16.872 26.789L22.047 30.569C20.847 32.25 19.466 33.472 17.907 34.236 16.347 35.002 14.532 35.384 12.462 35.384M36.672 29.174C38.051 29.174 39.153 28.642 39.979 27.577 40.804 26.512 41.217 25.095 41.217 23.324 41.217 21.555 40.804 20.145 39.979 19.094 39.153 18.044 38.051 17.52 36.672 17.52 35.291 17.52 34.189 18.044 33.364 19.094 32.539 20.145 32.127 21.555 32.127 23.324 32.127 25.095 32.539 26.512 33.364 27.577 34.189 28.642 35.291 29.174 36.672 29.174zM36.672 35.384C34.211 35.384 32.044 34.866 30.169 33.832 28.294 32.797 26.823 31.379 25.759 29.579 24.694 27.779 24.162 25.694 24.162 23.324 24.162 20.955 24.694 18.869 25.759 17.069 26.823 15.27 28.294 13.859 30.169 12.839 32.044 11.82 34.211 11.31 36.672 11.31 39.131 11.31 41.299 11.82 43.174 12.839 45.049 13.859 46.519 15.27 47.584 17.069 48.648 18.869 49.182 20.955 49.182 23.324 49.182 25.694 48.648 27.779 47.584 29.579 46.519 31.379 45.049 32.797 43.174 33.832 41.299 34.866 39.131 35.384 36.672 35.384zM68.397 34.799L67.991 31.784C67.241 32.895 66.259 33.771 65.044 34.417 63.829 35.062 62.516 35.384 61.106 35.384 58.436 35.384 56.396 34.597 54.986 33.021 53.576 31.446 52.871 29.174 52.871 26.204L52.871 11.895 60.701 11.895 60.701 25.304C60.701 27.795 61.841 29.039 64.121 29.039 66.521 29.039 67.721 27.539 67.721 24.539L67.721 11.895 75.551 11.895 75.551 34.799 68.397 34.799M88.871 25.935L88.871 34.799 81.041 34.799 81.041 11.895 88.196 11.895 88.691 15.719C89.17 14.489 89.958 13.492 91.054 12.727 92.149 11.962 93.416 11.579 94.856 11.579 95.666 11.579 96.28 11.685 96.701 11.895L96.701 19.049C96.37 18.93 96.003 18.84 95.599 18.779 95.193 18.72 94.735 18.689 94.226 18.689 92.666 18.689 91.383 19.268 90.378 20.422 89.373 21.577 88.871 23.414 88.871 25.935M100.481 34.799L100.481 11.895C101.74 12.164 103.015 12.299 104.306 12.299 105.625 12.299 106.961 12.164 108.311 11.895L108.311 34.799 100.481 34.799zM104.306 10.094C103.015 10.094 101.913 9.637 100.998 8.722 100.082 7.807 99.625 6.705 99.625 5.414 99.625 4.125 100.082 3.022 100.998 2.107 101.913 1.192 103.015.734 104.306.734 105.595.734 106.697 1.192 107.613 2.107 108.527 3.022 108.985 4.125 108.985 5.414 108.985 6.705 108.527 7.807 107.613 8.722 106.697 9.637 105.595 10.094 104.306 10.094zM124.645 16.979C122.095 16.979 120.565 18.329 120.055 21.029L128.785 21.029C128.575 19.56 128.072 18.517 127.277 17.902 126.482 17.287 125.605 16.979 124.645 16.979zM135.355 32.459C134.214 33.27 132.768 33.96 131.013 34.529 129.257 35.099 127.39 35.384 125.41 35.384 122.68 35.384 120.348 34.882 118.412 33.877 116.478 32.872 114.992 31.469 113.958 29.669 112.922 27.869 112.405 25.799 112.405 23.459 112.405 21.09 112.915 18.989 113.935 17.159 114.954 15.33 116.365 13.896 118.165 12.862 119.965 11.827 122.065 11.31 124.465 11.31 126.805 11.31 128.867 11.812 130.652 12.817 132.437 13.822 133.832 15.217 134.837 17.002 135.842 18.787 136.345 20.88 136.345 23.279 136.345 23.61 136.322 23.954 136.277 24.314 136.232 24.674 136.18 25.05 136.12 25.439L120.145 25.439C120.865 28.079 122.829 29.399 126.04 29.399 127.48 29.399 128.755 29.174 129.865 28.725 130.975 28.274 131.905 27.824 132.655 27.374L135.355 32.459zM148.18 25.935L148.18 34.799 140.35 34.799 140.35 11.895 147.505 11.895 148 15.719C148.48 14.489 149.267 13.492 150.362 12.727 151.457 11.962 152.725 11.579 154.165 11.579 154.975 11.579 155.59 11.685 156.01 11.895L156.01 19.049C155.68 18.93 155.313 18.84 154.907 18.779 154.503 18.72 154.045 18.689 153.535 18.689 151.975 18.689 150.692 19.268 149.688 20.422 148.682 21.577 148.18 23.414 148.18 25.935"/>
    <path fill="#FFFFFF" d="M167.709 43.124L166.224 36.734C167.544 36.614 168.608 36.179 169.419 35.429 170.23 34.68 170.634 33.629 170.634 32.279L170.634 11.895C171.894 12.164 173.169 12.299 174.459 12.299 175.778 12.299 177.114 12.164 178.464 11.895L178.464 31.874C178.464 35.204 177.602 37.829 175.876 39.749 174.151 41.669 171.429 42.794 167.709 43.124M195.069 29.174C196.448 29.174 197.551 28.642 198.376 27.577 199.201 26.512 199.614 25.095 199.614 23.324 199.614 21.555 199.201 20.145 198.376 19.094 197.551 18.044 196.448 17.52 195.069 17.52 193.689 17.52 192.586 18.044 191.761 19.094 190.937 20.145 190.524 21.555 190.524 23.324 190.524 25.095 190.937 26.512 191.761 27.577 192.586 28.642 193.689 29.174 195.069 29.174zM195.069 35.384C192.608 35.384 190.44 34.866 188.566 33.832 186.691 32.797 185.221 31.379 184.156 29.579 183.091 27.779 182.56 25.694 182.56 23.324 182.56 20.955 183.091 18.869 184.156 17.069 185.221 15.27 186.691 13.859 188.566 12.839 190.44 11.82 192.608 11.31 195.069 11.31 197.528 11.31 199.696 11.82 201.571 12.839 203.446 13.859 204.916 15.27 205.982 17.069 207.046 18.869 207.579 20.955 207.579 23.324 207.579 25.694 207.046 27.779 205.982 29.579 204.916 31.379 203.446 32.797 201.571 33.832 199.696 34.866 197.528 35.384 195.069 35.384zM226.794 34.799L226.389 31.784C225.638 32.895 224.656 33.771 223.44 34.417 222.226 35.062 220.913 35.384 219.503 35.384 216.833 35.384 214.794 34.597 213.384 33.021 211.974 31.446 211.269 29.174 211.269 26.204L211.269 11.895 219.099 11.895 219.099 25.304C219.099 27.795 220.238 29.039 222.519 29.039 224.919 29.039 226.118 27.539 226.118 24.539L226.118 11.895 233.948 11.895 233.948 34.799 226.794 34.799M247.269 25.935L247.269 34.799 239.439 34.799 239.439 11.895 246.593 11.895 247.089 15.719C247.567 14.489 248.356 13.492 249.45 12.727 250.546 11.962 251.814 11.579 253.253 11.579 254.064 11.579 254.678 11.685 255.099 11.895L255.099 19.049C254.768 18.93 254.401 18.84 253.995 18.779 253.591 18.72 253.133 18.689 252.623 18.689 251.064 18.689 249.78 19.268 248.776 20.422 247.771 21.577 247.269 23.414 247.269 25.935M266.708 22.154L266.708 34.799 258.878 34.799 258.878 11.895 266.032 11.895 266.438 14.909C267.187 13.829 268.163 12.96 269.362 12.299 270.562 11.64 271.883 11.31 273.323 11.31 275.813 11.31 277.808 12.119 279.308 13.739 280.808 15.359 281.558 17.685 281.558 20.714L281.558 34.799 273.728 34.799 273.728 21.614C273.728 20.265 273.427 19.268 272.827 18.622 272.228 17.977 271.388 17.654 270.308 17.654 269.228 17.654 268.357 18 267.698 18.689 267.038 19.38 266.708 20.534 266.708 22.154M292.808 27.374C292.808 28.064 293.062 28.627 293.572 29.062 294.082 29.497 294.742 29.714 295.552 29.714 296.632 29.714 297.54 29.347 298.274 28.611 299.01 27.877 299.378 26.954 299.378 25.844L299.378 25.079C298.567 24.93 297.712 24.854 296.813 24.854 295.672 24.854 294.72 25.05 293.955 25.439 293.19 25.829 292.808 26.475 292.808 27.374zM299.692 34.799L299.287 31.784C297.787 34.185 295.507 35.384 292.447 35.384 291.097 35.384 289.874 35.092 288.78 34.507 287.685 33.922 286.815 33.119 286.17 32.1 285.524 31.08 285.202 29.895 285.202 28.544 285.202 25.995 286.199 24.015 288.194 22.604 290.19 21.194 292.822 20.489 296.093 20.489 297.112 20.489 298.192 20.579 299.333 20.759 299.212 19.62 298.725 18.757 297.87 18.172 297.015 17.587 295.972 17.294 294.742 17.294 293.662 17.294 292.575 17.497 291.48 17.902 290.384 18.307 289.343 18.795 288.353 19.364L285.697 14.324C287.197 13.364 288.817 12.622 290.558 12.097 292.297 11.572 294.037 11.31 295.777 11.31 297.877 11.31 299.767 11.669 301.447 12.39 303.127 13.109 304.446 14.205 305.407 15.674 306.367 17.145 306.847 19.004 306.847 21.254L306.847 34.799 299.692 34.799z"/>
    <polygon fill="#FFFFFF" points="311.843 34.799 319.673 34.799 319.673 1.949 311.843 1.949"/>
    <path class="no-color-change" fill="#009BFF" d="M174.459,10.094 C173.169,10.094 172.066,9.637 171.151,8.722 C170.236,7.807 169.779,6.705 169.779,5.414 C169.779,4.125 170.236,3.022 171.151,2.107 C172.066,1.192 173.169,0.734 174.459,0.734 C175.749,0.734 176.851,1.192 177.767,2.107 C178.681,3.022 179.139,4.125 179.139,5.414 C179.139,6.705 178.681,7.807 177.767,8.722 C176.851,9.637 175.749,10.094 174.459,10.094"/>
  </g>
</svg>
