<svg xmlns="http://www.w3.org/2000/svg" xmlns:xlink="http://www.w3.org/1999/xlink" width="720" height="120" viewBox="0 0 720 120">
  <defs>
    <style>
      .cls-1 {
        fill: #fff;
        filter: url(#filter);
      }

      .cls-1, .cls-2 {
        fill-rule: evenodd;
      }

      .cls-2 {
        fill: #333;
      }
    </style>
    <filter id="filter" x="352" y="96.969" width="367.969" height="16" filterUnits="userSpaceOnUse">
      <feFlood result="flood" flood-color="#333"/>
      <feComposite result="composite" operator="in" in2="SourceGraphic"/>
      <feBlend result="blend" in2="SourceGraphic"/>
    </filter>
  </defs>
  <path id="USAT_Network" data-name="USAT Network" class="cls-1" d="M351.989,97.273h4.489c3.156,0,5.267,1.865,5.267,4.741s-2.155,4.735-5.267,4.735h-2.29v5.925h-2.2v-15.4Zm4.267,7.659c2.112,0,3.244-1.163,3.244-2.918,0-1.736-1.132-2.919-3.244-2.919h-2.068v5.837h2.068Zm11.768-7.659h1.955l6.4,15.4h-2.358l-1.6-4.035h-6.911l-1.6,4.035H361.6S367.244,99.162,368.024,97.273Zm3.665,9.544-1.488-3.794c-0.222-.572-1.179-2.942-1.2-3.139h-0.043c-0.022.2-.955,2.5-1.2,3.139l-1.51,3.794h5.443Zm6.924-9.544h4.51c2.91,0,5.178,1.5,5.178,4.563a4.293,4.293,0,0,1-3.955,4.346l4.778,6.492h-2.579l-4.51-6.276h-1.223v6.276h-2.2v-15.4Zm4.267,7.351c2.043,0,3.2-1.077,3.2-2.764s-1.157-2.765-3.2-2.765h-2.068v5.529h2.068ZM394.4,99.138h-4.445V97.273h11.089v1.865H396.6v13.536h-2.2V99.138Zm12.347,5.838a8.2,8.2,0,1,1,8.2,8A7.862,7.862,0,0,1,406.749,104.976Zm14.133,0a5.946,5.946,0,1,0-5.955,6.053A5.772,5.772,0,0,0,420.882,104.976Zm5.433-7.7h7.867v1.865h-5.668V104.1H434v1.865h-5.49v6.713h-2.2v-15.4Zm17.815,1.865h-4.444V97.273h11.088v1.865h-4.445v13.536h-2.2V99.138Zm8.953-1.865h2.2v6.318h8.178V97.273h2.2v15.4h-2.2v-7.218h-8.178v7.218h-2.2v-15.4Zm16.631,0h8.49v1.846h-6.29v4.472h6.11v1.846h-6.11v5.395h6.422v1.842h-8.622v-15.4Zm16,10.092V97.273h2.221v9.433c0,2.679,1.157,4.323,3.756,4.323,2.622,0,3.78-1.644,3.78-4.323V97.273h2.221v10.092c0,3.38-2.2,5.616-6,5.616C487.865,112.981,485.71,110.745,485.71,107.365Zm14.274,2.524,1.491-1.25a4.52,4.52,0,0,0,3.911,2.433c1.709,0,3.044-.918,3.044-2.611,0-1.817-1.534-2.433-3.446-3.178-1.956-.769-3.933-1.736-3.933-4.193,0-2.432,1.912-4.12,4.712-4.12a5.248,5.248,0,0,1,4.579,2.322l-1.491,1.25a3.553,3.553,0,0,0-3.088-1.668c-1.512,0-2.511.77-2.511,2.063,0,1.6,1.554,2.13,2.911,2.654,2.2,0.856,4.466,1.889,4.466,4.716,0,2.679-2,4.674-5.2,4.674A6.064,6.064,0,0,1,499.984,109.889Zm18.241-12.616h1.956l6.4,15.4h-2.357l-1.6-4.035h-6.912l-1.6,4.035H511.8S517.446,99.162,518.225,97.273Zm3.665,9.544-1.487-3.794c-0.222-.572-1.179-2.942-1.2-3.139h-0.044c-0.022.2-.955,2.5-1.2,3.139l-1.51,3.794h5.443Zm13.978-7.679h-4.445V97.273h11.088v1.865h-4.444v13.536h-2.2V99.138Zm7.469,5.838a8.2,8.2,0,1,1,8.2,8A7.861,7.861,0,0,1,543.337,104.976Zm14.132,0a5.945,5.945,0,1,0-5.954,6.053A5.772,5.772,0,0,0,557.469,104.976Zm5.434-7.7h4.423c4.977,0,8.265,2.808,8.265,7.7,0,4.87-3.312,7.7-8.265,7.7H562.9v-15.4Zm2.2,13.534h2.046c3.643,0,6.176-1.9,6.176-5.831s-2.533-5.838-6.176-5.838H565.1v11.669Zm17.637-13.534H584.7l6.4,15.4h-2.357l-1.6-4.035h-6.912l-1.6,4.035h-2.311S581.96,99.162,582.739,97.273Zm3.666,9.544-1.489-3.794c-0.221-.572-1.178-2.942-1.2-3.139h-0.044c-0.022.2-.955,2.5-1.2,3.139l-1.51,3.794h5.444Zm9.084-.419-5.312-9.125h2.467l2.889,5.135a22.887,22.887,0,0,1,1.11,2.192h0.022a23.153,23.153,0,0,1,1.113-2.192l2.91-5.135h2.4l-5.309,9.125v6.276h-2.289V106.4Zm14.062-9.125h1.687l8.846,9.982c0.265,0.288,1.422,1.711,1.534,1.932l0.044-.023c-0.044-.217-0.044-2-0.044-2.39v-9.5h2.134v15.4h-1.713l-8.845-9.983c-0.265-.283-1.422-1.711-1.532-1.928l-0.021.02c0.021,0.221.043,2,.043,2.394v9.5h-2.133v-15.4Zm18.253,0h8.487v1.846H630v4.472h6.113v1.846H630v5.395h6.422v1.842H627.8v-15.4Zm15.37,1.865h-4.445V97.273h11.089v1.865h-4.445v13.536h-2.2V99.138Zm8.477-1.865h2.334l3.2,9.15c0.112,0.351.867,2.63,0.889,2.981h0.046a30.445,30.445,0,0,1,.933-2.981l3.334-9.15h1.756l3.332,9.15c0.133,0.351.91,2.63,0.935,2.981h0.044c0.044-.351.8-2.63,0.91-2.981l3.179-9.15h2.243l-5.49,15.4h-1.688l-3.6-9.607a25.578,25.578,0,0,1-.758-2.5h-0.044a25.693,25.693,0,0,1-.776,2.5l-3.578,9.607h-1.69Zm24.119,7.7a8.2,8.2,0,1,1,8.2,8A7.861,7.861,0,0,1,675.77,104.976Zm14.132,0a5.946,5.946,0,1,0-5.955,6.053A5.772,5.772,0,0,0,689.9,104.976Zm5.433-7.7h4.511c2.913,0,5.177,1.5,5.177,4.563a4.293,4.293,0,0,1-3.955,4.346l4.779,6.492h-2.579l-4.511-6.276h-1.222v6.276h-2.2v-15.4Zm4.267,7.351c2.044,0,3.2-1.077,3.2-2.764s-1.156-2.765-3.2-2.765h-2.067v5.529H699.6Zm8.736-7.351h2.2v7.154l6.444-7.154h2.666l-6.687,7.351,7,8.05h-2.754l-6.668-7.785v7.785h-2.2v-15.4Z"/>
  <path id="Courier-Journal_logo" data-name="Courier-Journal logo" class="cls-2" d="M700.29,64.3h-4.658v9.169H720V64.3h-4.241V11.7H695.632v9.169h4.658V64.3ZM674.217,52.88c0,5.75-2.5,12.753-9.066,12.753-3.409,0-5.073-2.335-5.073-5.418,0-5.835,5.073-7.335,10.147-7.335h3.992Zm0.666,20.588h17.631V64.3h-4.075V45.045c0-8.418-2.5-18.337-20.626-18.337-11.228,0-19.461,3.75-20.21,16h14.471c0.582-4.668,1.33-8,5.905-8,5.988,0,5.988,6.251,5.988,10.919-2.411-.166-4.492-0.25-7.651-0.25-9.9,0-20.709,3.166-20.709,16.17,0,3.417,1.913,13.253,14.97,13.253,7.153,0,10.4-1.334,14.138-7.586h0.168v6.252ZM624.566,64.3h-4.158v9.169h23.869V64.3h-4.241V39.127c0-10.085-7.653-12.418-13.89-12.418-6.487,0-12.142,2.25-14.3,8.918h-0.168V28.042h-19.21v9.169h4.657V64.3h-4.657v9.169h24.367V64.3H612.59V46.545c0-6.5,2.579-9.668,6.488-9.668,5.488,0,5.488,4.834,5.488,8.585V64.3Zm-66.117,0h-4.657v9.169H579.74V64.3h-5.822V54.214c0-8.419,4.741-13.5,10.646-13.5a8.048,8.048,0,0,1,3.992.916V27.375c-0.5-.417-1.83-0.667-3.992-0.667-6.239,0-10.231,4.751-11.477,10.5h-0.168V28.042H553.792v9.169h4.657V64.3ZM503.9,59.548c0,4.834,0,15.254,13.224,15.254,6.237,0,12.558-2.5,14.47-8.336h0.167v7H550.64V64.3H546.4V28.042H526.022v9.169h4.409v19c0,4-1.83,7.751-5.823,7.751s-5.239-2.667-5.239-6.5V28.042H499.242v9.169H503.9V59.548ZM474.892,36.376c4.74,0,7.151,4.084,7.151,14.421s-2.411,14.336-7.068,14.336c-4.741,0-7.153-4-7.153-14.419,0-10.253,2.412-14.337,7.07-14.337M451.853,50.8c0,13.835,8.9,24.005,23.039,24.005,14.221,0,23.12-10.17,23.12-24.005,0-14.086-8.65-24.088-23.12-24.088-14.389,0-23.039,10-23.039,24.089M431.4,23.624h15.469V10.788H431.4V23.624Zm0,50.094c0,2.084,0,4.25-3.909,4.25a20.4,20.4,0,0,1-2.328-.166v9.169a50.283,50.283,0,0,0,9.147.667c10.148,0,12.559-3.085,12.559-13.587V28.042H426.737v9.169H431.4V73.718ZM402.128,57.241h21.041V46.405H402.128V57.241ZM369.678,64.3h-4.657v9.167h25.948V64.3h-5.822V54.214c0-8.419,4.741-13.5,10.646-13.5a8.048,8.048,0,0,1,3.992.916V27.375c-0.5-.417-1.83-0.667-3.992-0.667-6.239,0-10.231,4.751-11.477,10.5h-0.168V28.042H365.021V37.21h4.657V64.3Zm-21.866-3.585c0,1.5-1.413,4.919-6.486,4.919-6.9,0-7.818-6.252-7.818-11.17h29.108a24.247,24.247,0,0,0,.168-2.834c0-14.67-6.322-24.922-21.791-24.922-14.3,0-22.954,9.751-22.954,23.838,0,14.253,6.653,24.255,23.287,24.255,9.73,0,19.045-3.417,20.958-14.086H347.812Zm-14.3-14.252c0-1.917.249-10.586,7.236-10.586,6.32,0,6.57,7.418,6.57,10.586H333.508ZM298,23.624h15.469V10.788H298V23.624ZM298,64.3h-4.657v9.167h24.369V64.3h-4.243V28.042H293.338V37.21H298V64.3Zm-38.737,0H254.6v9.167h25.949V64.3h-5.822V54.214c0-8.419,4.74-13.5,10.645-13.5a8.05,8.05,0,0,1,3.993.916V27.375c-0.5-.417-1.831-0.667-3.993-0.667-6.238,0-10.229,4.751-11.476,10.5h-0.168V28.042H254.6V37.21h4.658V64.3Zm-54.55-4.751c0,4.834,0,15.252,13.224,15.252,6.237,0,12.559-2.5,14.471-8.334h0.167v7h18.879V64.3h-4.241V28.042H226.831V37.21h4.408v19c0,4-1.83,7.751-5.822,7.751s-5.24-2.667-5.24-6.5V28.042H200.051V37.21h4.657V59.549ZM177.43,36.377c4.741,0,7.152,4.084,7.152,14.42s-2.411,14.336-7.069,14.336c-4.74,0-7.153-4-7.153-14.421,0-10.252,2.413-14.336,7.07-14.336M154.392,50.8c0,13.835,8.9,24,23.038,24,14.222,0,23.12-10.168,23.12-24,0-14.086-8.649-24.088-23.12-24.088-14.389,0-23.038,10-23.038,24.089M139.638,32.959h-0.166c-2.079-4.668-6.154-6.251-10.979-6.251-13.222,0-19.378,10.752-19.378,22.838,0,15.252,6.987,25.254,22.872,25.254,11.643,0,18.463-5.084,19.462-16.837H138.641c-0.168,1.917-.833,7.669-6.322,7.669-5.739,0-7.236-7.252-7.236-14,0-6.668.166-15.254,7.153-15.254,5.323,0,6.405,4.917,6.405,8.835h12.808V28.042H139.638v4.917ZM54.337,1V17.429c15.5,2.347,26.207,16.319,26.207,30.959,0,13.412-7.36,20.23-10.705,23.695V60.124H54.226V96c9.367,0,42.711-11.847,42.711-47.612C96.937,17.095,68.891,1,54.448,1M42.6,1V17.429C27.1,19.776,16.393,33.748,16.393,48.388a31.9,31.9,0,0,0,26.318,31.07V96C33.344,96,0,84.153,0,48.388,0,17.095,28.047,1,42.489,1"/>
</svg>
