<?xml version="1.0" encoding="UTF-8"?>
<svg width="320px" height="43px" viewBox="0 0 320 43" version="1.1" xmlns="http://www.w3.org/2000/svg" xmlns:xlink="http://www.w3.org/1999/xlink">
    <!-- Generator: Sketch 47.1 (45422) - http://www.bohemiancoding.com/sketch -->
    <title>KY_Louisville_Logo_Prm-nEds_KOR_CMYK</title>
    <desc>Created with Sketch.</desc>
    <defs></defs>
    <g id="Page-1" stroke="none" stroke-width="1" fill="none" fill-rule="evenodd">
        <g id="KY_Louisville_Logo_Prm-nEds_KOR_CMYK" transform="translate(0.000000, -69.000000)">
            <path d="M12.462,103.903 C10.122,103.903 8.044,103.401 6.23,102.395 C4.414,101.391 2.982,99.988 1.932,98.188 C0.881,96.388 0.357,94.288 0.357,91.888 C0.357,89.489 0.881,87.388 1.932,85.588 C2.982,83.788 4.414,82.386 6.23,81.381 C8.044,80.376 10.122,79.873 12.462,79.873 C14.532,79.873 16.347,80.256 17.907,81.021 C19.466,81.785 20.847,83.008 22.047,84.688 L16.872,88.468 C16.451,87.838 15.904,87.321 15.23,86.915 C14.555,86.511 13.827,86.308 13.047,86.308 C11.697,86.308 10.572,86.811 9.672,87.816 C8.771,88.821 8.322,90.178 8.322,91.888 C8.322,93.598 8.771,94.956 9.672,95.961 C10.572,96.966 11.697,97.468 13.047,97.468 C13.827,97.468 14.555,97.266 15.23,96.86 C15.904,96.456 16.451,95.938 16.872,95.307 L22.047,99.089 C20.847,100.768 19.466,101.991 17.907,102.756 C16.347,103.52 14.532,103.903 12.462,103.903" id="Fill-1" fill="#009BFF" class='no-color-change'></path>
            <path d="M36.672,97.693 C38.051,97.693 39.153,97.161 39.979,96.096 C40.804,95.031 41.217,93.614 41.217,91.843 C41.217,90.074 40.804,88.663 39.979,87.613 C39.153,86.563 38.051,86.038 36.672,86.038 C35.291,86.038 34.189,86.563 33.364,87.613 C32.539,88.663 32.127,90.074 32.127,91.843 C32.127,93.614 32.539,95.031 33.364,96.096 C34.189,97.161 35.291,97.693 36.672,97.693 Z M36.672,103.903 C34.211,103.903 32.044,103.386 30.169,102.35 C28.294,101.315 26.823,99.898 25.759,98.098 C24.694,96.298 24.162,94.214 24.162,91.843 C24.162,89.474 24.694,87.388 25.759,85.588 C26.823,83.788 28.294,82.378 30.169,81.358 C32.044,80.339 34.211,79.828 36.672,79.828 C39.131,79.828 41.299,80.339 43.174,81.358 C45.049,82.378 46.519,83.788 47.584,85.588 C48.648,87.388 49.182,89.474 49.182,91.843 C49.182,94.214 48.648,96.298 47.584,98.098 C46.519,99.898 45.049,101.315 43.174,102.35 C41.299,103.386 39.131,103.903 36.672,103.903 L36.672,103.903 Z" id="Fill-2" fill="#009BFF" class='no-color-change'></path>
            <path d="M68.397,103.318 L67.991,100.304 C67.241,101.413 66.259,102.291 65.044,102.936 C63.829,103.581 62.516,103.903 61.106,103.903 C58.436,103.903 56.396,103.116 54.986,101.54 C53.576,99.966 52.871,97.693 52.871,94.723 L52.871,80.413 L60.701,80.413 L60.701,93.823 C60.701,96.313 61.841,97.557 64.121,97.557 C66.521,97.557 67.721,96.058 67.721,93.057 L67.721,80.413 L75.551,80.413 L75.551,103.318 L68.397,103.318" id="Fill-3" fill="#009BFF" class='no-color-change'></path>
            <path d="M88.871,94.454 L88.871,103.318 L81.041,103.318 L81.041,80.413 L88.196,80.413 L88.691,84.238 C89.17,83.008 89.958,82.011 91.054,81.245 C92.149,80.481 93.416,80.098 94.856,80.098 C95.666,80.098 96.28,80.203 96.701,80.413 L96.701,87.568 C96.37,87.449 96.003,87.359 95.599,87.298 C95.193,87.239 94.735,87.208 94.226,87.208 C92.666,87.208 91.383,87.786 90.378,88.941 C89.373,90.096 88.871,91.932 88.871,94.454" id="Fill-4" fill="#009BFF" class='no-color-change'></path>
            <path d="M100.481,103.318 L100.481,80.413 C101.74,80.683 103.015,80.818 104.306,80.818 C105.625,80.818 106.961,80.683 108.311,80.413 L108.311,103.318 L100.481,103.318 Z M104.306,78.613 C103.015,78.613 101.913,78.156 100.998,77.241 C100.082,76.326 99.625,75.223 99.625,73.933 C99.625,72.644 100.082,71.541 100.998,70.626 C101.913,69.711 103.015,69.253 104.306,69.253 C105.595,69.253 106.697,69.711 107.613,70.626 C108.527,71.541 108.985,72.644 108.985,73.933 C108.985,75.223 108.527,76.326 107.613,77.241 C106.697,78.156 105.595,78.613 104.306,78.613 L104.306,78.613 Z" id="Fill-5" fill="#009BFF" class='no-color-change'></path>
            <path d="M124.645,85.498 C122.095,85.498 120.565,86.848 120.055,89.548 L128.785,89.548 C128.575,88.078 128.072,87.036 127.277,86.421 C126.482,85.806 125.605,85.498 124.645,85.498 Z M135.355,100.977 C134.214,101.788 132.768,102.479 131.013,103.048 C129.257,103.618 127.39,103.903 125.41,103.903 C122.68,103.903 120.348,103.401 118.412,102.395 C116.478,101.391 114.992,99.988 113.958,98.188 C112.922,96.388 112.405,94.318 112.405,91.977 C112.405,89.609 112.915,87.508 113.935,85.678 C114.954,83.849 116.365,82.415 118.165,81.381 C119.965,80.346 122.065,79.828 124.465,79.828 C126.805,79.828 128.867,80.331 130.652,81.336 C132.437,82.341 133.832,83.736 134.837,85.521 C135.842,87.306 136.345,89.399 136.345,91.798 C136.345,92.129 136.322,92.473 136.277,92.833 C136.232,93.193 136.18,93.569 136.12,93.958 L120.145,93.958 C120.865,96.598 122.829,97.919 126.04,97.919 C127.48,97.919 128.755,97.693 129.865,97.243 C130.975,96.794 131.905,96.343 132.655,95.893 L135.355,100.977 L135.355,100.977 Z" id="Fill-6" fill="#009BFF" class='no-color-change'></path>
            <path d="M148.18,94.454 L148.18,103.318 L140.35,103.318 L140.35,80.413 L147.505,80.413 L148,84.238 C148.48,83.008 149.267,82.011 150.362,81.245 C151.457,80.481 152.725,80.098 154.165,80.098 C154.975,80.098 155.59,80.203 156.01,80.413 L156.01,87.568 C155.68,87.449 155.313,87.359 154.907,87.298 C154.503,87.239 154.045,87.208 153.535,87.208 C151.975,87.208 150.692,87.786 149.688,88.941 C148.682,90.096 148.18,91.932 148.18,94.454" id="Fill-7" fill="#009BFF" class='no-color-change'></path>
            <path d="M167.709,111.643 L166.224,105.253 C167.544,105.134 168.608,104.698 169.419,103.948 C170.23,103.198 170.634,102.148 170.634,100.798 L170.634,80.413 C171.894,80.683 173.169,80.818 174.459,80.818 C175.778,80.818 177.114,80.683 178.464,80.413 L178.464,100.393 C178.464,103.723 177.602,106.348 175.876,108.268 C174.151,110.188 171.429,111.313 167.709,111.643" id="Fill-8" fill="#FFFFFE"></path>
            <path d="M195.069,97.693 C196.448,97.693 197.551,97.161 198.376,96.096 C199.201,95.031 199.614,93.614 199.614,91.843 C199.614,90.074 199.201,88.663 198.376,87.613 C197.551,86.563 196.448,86.038 195.069,86.038 C193.689,86.038 192.586,86.563 191.761,87.613 C190.937,88.663 190.524,90.074 190.524,91.843 C190.524,93.614 190.937,95.031 191.761,96.096 C192.586,97.161 193.689,97.693 195.069,97.693 Z M195.069,103.903 C192.608,103.903 190.44,103.386 188.566,102.35 C186.691,101.315 185.221,99.898 184.156,98.098 C183.091,96.298 182.56,94.214 182.56,91.843 C182.56,89.474 183.091,87.388 184.156,85.588 C185.221,83.788 186.691,82.378 188.566,81.358 C190.44,80.339 192.608,79.828 195.069,79.828 C197.528,79.828 199.696,80.339 201.571,81.358 C203.446,82.378 204.916,83.788 205.982,85.588 C207.046,87.388 207.579,89.474 207.579,91.843 C207.579,94.214 207.046,96.298 205.982,98.098 C204.916,99.898 203.446,101.315 201.571,102.35 C199.696,103.386 197.528,103.903 195.069,103.903 L195.069,103.903 Z" id="Fill-9" fill="#FFFFFE"></path>
            <path d="M226.794,103.318 L226.389,100.304 C225.638,101.413 224.656,102.291 223.44,102.936 C222.226,103.581 220.913,103.903 219.503,103.903 C216.833,103.903 214.794,103.116 213.384,101.54 C211.974,99.966 211.269,97.693 211.269,94.723 L211.269,80.413 L219.099,80.413 L219.099,93.823 C219.099,96.313 220.238,97.557 222.519,97.557 C224.919,97.557 226.118,96.058 226.118,93.057 L226.118,80.413 L233.948,80.413 L233.948,103.318 L226.794,103.318" id="Fill-10" fill="#FFFFFE"></path>
            <path d="M247.269,94.454 L247.269,103.318 L239.439,103.318 L239.439,80.413 L246.593,80.413 L247.089,84.238 C247.567,83.008 248.356,82.011 249.45,81.245 C250.546,80.481 251.814,80.098 253.253,80.098 C254.064,80.098 254.678,80.203 255.099,80.413 L255.099,87.568 C254.768,87.449 254.401,87.359 253.995,87.298 C253.591,87.239 253.133,87.208 252.623,87.208 C251.064,87.208 249.78,87.786 248.776,88.941 C247.771,90.096 247.269,91.932 247.269,94.454" id="Fill-11" fill="#FFFFFE"></path>
            <path d="M266.708,90.673 L266.708,103.318 L258.878,103.318 L258.878,80.413 L266.032,80.413 L266.438,83.428 C267.187,82.348 268.163,81.478 269.362,80.818 C270.562,80.159 271.883,79.828 273.323,79.828 C275.813,79.828 277.808,80.638 279.308,82.258 C280.808,83.878 281.558,86.203 281.558,89.233 L281.558,103.318 L273.728,103.318 L273.728,90.133 C273.728,88.784 273.427,87.786 272.827,87.141 C272.228,86.496 271.388,86.173 270.308,86.173 C269.228,86.173 268.357,86.518 267.698,87.208 C267.038,87.899 266.708,89.053 266.708,90.673" id="Fill-12" fill="#FFFFFE"></path>
            <path d="M292.808,95.893 C292.808,96.583 293.062,97.145 293.572,97.581 C294.082,98.016 294.742,98.233 295.552,98.233 C296.632,98.233 297.54,97.866 298.274,97.131 C299.01,96.395 299.378,95.473 299.378,94.363 L299.378,93.598 C298.567,93.448 297.712,93.374 296.813,93.374 C295.672,93.374 294.72,93.569 293.955,93.958 C293.19,94.348 292.808,94.993 292.808,95.893 Z M299.692,103.318 L299.287,100.304 C297.787,102.704 295.507,103.903 292.447,103.903 C291.097,103.903 289.874,103.61 288.78,103.026 C287.685,102.44 286.815,101.638 286.17,100.618 C285.524,99.598 285.202,98.413 285.202,97.063 C285.202,94.514 286.199,92.534 288.194,91.123 C290.19,89.713 292.822,89.008 296.093,89.008 C297.112,89.008 298.192,89.098 299.333,89.278 C299.212,88.138 298.725,87.276 297.87,86.691 C297.015,86.106 295.972,85.813 294.742,85.813 C293.662,85.813 292.575,86.016 291.48,86.421 C290.384,86.825 289.343,87.314 288.353,87.883 L285.697,82.843 C287.197,81.883 288.817,81.141 290.558,80.616 C292.297,80.091 294.037,79.828 295.777,79.828 C297.877,79.828 299.767,80.188 301.447,80.909 C303.127,81.628 304.446,82.724 305.407,84.193 C306.367,85.663 306.847,87.523 306.847,89.773 L306.847,103.318 L299.692,103.318 L299.692,103.318 Z" id="Fill-13" fill="#FFFFFE"></path>
            <polygon id="Fill-14" fill="#FFFFFE" points="311.843 103.318 319.673 103.318 319.673 70.468 311.843 70.468"></polygon>
            <path d="M174.459,78.613 C173.169,78.613 172.066,78.156 171.151,77.241 C170.236,76.326 169.779,75.223 169.779,73.933 C169.779,72.644 170.236,71.541 171.151,70.626 C172.066,69.711 173.169,69.253 174.459,69.253 C175.749,69.253 176.851,69.711 177.767,70.626 C178.681,71.541 179.139,72.644 179.139,73.933 C179.139,75.223 178.681,76.326 177.767,77.241 C176.851,78.156 175.749,78.613 174.459,78.613" id="Fill-15" fill="#009BFF" class='no-color-change'></path>
        </g>
    </g>
</svg>
