<svg id="htrnews" xmlns="http://www.w3.org/2000/svg" xmlns:xlink="http://www.w3.org/1999/xlink" width="663" height="160" viewBox="0 0 663 160">
  <defs>
    <style>
      .cls-1, .cls-2 {
        fill: #000;
      }

      .cls-1, .cls-2, .cls-4 {
        fill-rule: evenodd;
      }

      .cls-1 {
        filter: url(#filter);
      }

      .cls-3, .cls-4 {
        fill: #999;
      }
    </style>
    <filter id="filter" x="0" y="118.969" width="367.969" height="16" filterUnits="userSpaceOnUse">
      <feFlood result="flood" flood-color="#999"/>
      <feComposite result="composite" operator="in" in2="SourceGraphic"/>
      <feBlend result="blend" in2="SourceGraphic"/>
    </filter>
  </defs>
  <path id="USAT_Network" data-name="USAT Network" class="cls-1" d="M-0.011,119.273H4.478c3.156,0,5.268,1.865,5.268,4.741s-2.155,4.735-5.268,4.735H2.188v5.925h-2.2v-15.4Zm4.267,7.659c2.112,0,3.244-1.163,3.244-2.918,0-1.736-1.132-2.919-3.244-2.919H2.188v5.837H4.256Zm11.768-7.659H17.98l6.4,15.4H22.022l-1.6-4.035H13.513l-1.6,4.035H9.6S15.244,121.162,16.024,119.273Zm3.665,9.544L18.2,125.023c-0.221-.572-1.179-2.942-1.2-3.139H16.957c-0.022.2-.955,2.5-1.2,3.139l-1.51,3.794h5.443Zm6.924-9.544h4.51c2.91,0,5.178,1.5,5.178,4.563a4.293,4.293,0,0,1-3.955,4.346l4.778,6.492H34.545l-4.51-6.276H28.812v6.276h-2.2v-15.4Zm4.267,7.351c2.044,0,3.2-1.077,3.2-2.764s-1.157-2.765-3.2-2.765H28.812v5.529H30.88ZM42.4,121.138H37.957v-1.865H49.046v1.865H44.6v13.536H42.4V121.138Zm12.348,5.838a7.862,7.862,0,0,1,8.2-8.006,8.008,8.008,0,1,1,0,16.011A7.861,7.861,0,0,1,54.75,126.976Zm14.133,0a5.946,5.946,0,1,0-5.955,6.053A5.773,5.773,0,0,0,68.882,126.976Zm5.433-7.7h7.867v1.865H76.514V126.1H82v1.865H76.514v6.713h-2.2v-15.4Zm17.815,1.865H87.686v-1.865H98.774v1.865H94.33v13.536h-2.2V121.138Zm8.953-1.865h2.2v6.318h8.178v-6.318h2.2v15.4h-2.2v-7.218h-8.178v7.218h-2.2v-15.4Zm16.631,0h8.49v1.846h-6.29v4.472h6.11v1.846h-6.11v5.395h6.422v1.842h-8.622v-15.4Zm16,10.092V119.273h2.221v9.433c0,2.679,1.157,4.323,3.756,4.323,2.622,0,3.78-1.644,3.78-4.323v-9.433h2.221v10.092c0,3.38-2.2,5.616-6,5.616C135.865,134.981,133.71,132.745,133.71,129.365Zm14.274,2.524,1.491-1.25a4.52,4.52,0,0,0,3.911,2.433c1.709,0,3.044-.918,3.044-2.611,0-1.817-1.534-2.433-3.446-3.178-1.956-.769-3.933-1.736-3.933-4.193,0-2.432,1.912-4.12,4.712-4.12a5.249,5.249,0,0,1,4.579,2.322l-1.491,1.25a3.552,3.552,0,0,0-3.088-1.668c-1.512,0-2.511.769-2.511,2.063,0,1.6,1.554,2.13,2.911,2.654,2.2,0.856,4.466,1.889,4.466,4.716,0,2.679-2,4.674-5.2,4.674A6.064,6.064,0,0,1,147.984,131.889Zm18.241-12.616h1.956l6.4,15.4h-2.357l-1.6-4.035h-6.912l-1.6,4.035H159.8S165.446,121.162,166.225,119.273Zm3.665,9.544-1.487-3.794c-0.222-.572-1.179-2.942-1.2-3.139h-0.044c-0.022.2-.955,2.5-1.2,3.139l-1.51,3.794h5.443Zm13.978-7.679h-4.445v-1.865h11.088v1.865h-4.444v13.536h-2.2V121.138Zm7.469,5.838a8.2,8.2,0,1,1,8.2,8A7.861,7.861,0,0,1,191.337,126.976Zm14.132,0a5.945,5.945,0,1,0-5.954,6.053A5.772,5.772,0,0,0,205.469,126.976Zm5.434-7.7h4.423c4.977,0,8.265,2.808,8.265,7.7,0,4.87-3.312,7.7-8.265,7.7H210.9v-15.4Zm2.2,13.534h2.046c3.643,0,6.176-1.9,6.176-5.831s-2.533-5.838-6.176-5.838H213.1v11.669Zm17.637-13.534H232.7l6.4,15.4h-2.357l-1.6-4.035h-6.912l-1.6,4.035h-2.311S229.96,121.162,230.739,119.273Zm3.666,9.544-1.489-3.794c-0.221-.572-1.178-2.942-1.2-3.139h-0.044c-0.022.2-.955,2.5-1.2,3.139l-1.51,3.794h5.444Zm9.084-.419-5.312-9.125h2.467l2.889,5.135a22.887,22.887,0,0,1,1.11,2.192h0.022a23.153,23.153,0,0,1,1.113-2.192l2.91-5.135h2.4l-5.309,9.125v6.276h-2.289V128.4Zm14.062-9.125h1.687l8.846,9.982c0.266,0.288,1.422,1.711,1.534,1.932l0.044-.023c-0.044-.217-0.044-2-0.044-2.39v-9.5h2.134v15.4h-1.713l-8.845-9.983c-0.265-.283-1.422-1.711-1.532-1.928l-0.021.02c0.021,0.221.043,2,.043,2.394v9.5h-2.133v-15.4Zm18.253,0h8.487v1.846H278v4.472h6.113v1.846H278v5.395h6.422v1.842H275.8v-15.4Zm15.37,1.865h-4.445v-1.865h11.089v1.865h-4.445v13.536h-2.2V121.138Zm8.477-1.865h2.334l3.2,9.15c0.112,0.351.867,2.63,0.889,2.981h0.046a30.445,30.445,0,0,1,.933-2.981l3.334-9.15h1.756l3.332,9.15c0.133,0.351.91,2.63,0.935,2.981h0.044c0.044-.351.8-2.63,0.91-2.981l3.179-9.15h2.243l-5.49,15.4h-1.688l-3.6-9.607a25.578,25.578,0,0,1-.758-2.5h-0.044a25.693,25.693,0,0,1-.776,2.5l-3.578,9.607h-1.69Zm24.119,7.7a8.2,8.2,0,1,1,8.2,8A7.861,7.861,0,0,1,323.77,126.976Zm14.132,0a5.945,5.945,0,1,0-5.955,6.053A5.772,5.772,0,0,0,337.9,126.976Zm5.433-7.7h4.511c2.913,0,5.177,1.5,5.177,4.563a4.293,4.293,0,0,1-3.955,4.346l4.779,6.492h-2.579l-4.511-6.276h-1.223v6.276h-2.2v-15.4Zm4.267,7.351c2.044,0,3.2-1.077,3.2-2.764s-1.156-2.765-3.2-2.765h-2.068v5.529H347.6Zm8.736-7.351h2.2v7.154l6.444-7.154h2.666l-6.687,7.351,7,8.05h-2.754l-6.668-7.785v7.785h-2.2v-15.4Z"/>
  <path class="cls-2" d="M1.1,25H8.254V56.651a30.493,30.493,0,0,1,9.56-8.62,23.142,23.142,0,0,1,11.3-2.856,19.625,19.625,0,0,1,11.067,3.191,19,19,0,0,1,7.131,8.568q2.3,5.378,2.3,16.854v28.82H42.453V75.9q0-9.674-.766-12.917a14.668,14.668,0,0,0-4.832-8.362,14.234,14.234,0,0,0-9.176-2.8,17.575,17.575,0,0,0-11.63,4.323,20.27,20.27,0,0,0-6.773,10.7Q8.253,70.959,8.254,82.074v20.534H1.1V25Zm67.677,0.824h7.157v20.79H87.28v6.227H75.931v49.765H68.774V52.843H59.01V46.616h9.764V25.826ZM92.9,46.616h7.311V54.8a25.73,25.73,0,0,1,6.9-7.231,13.544,13.544,0,0,1,7.565-2.393,13,13,0,0,1,6.339,1.9l-3.731,6.073a9.9,9.9,0,0,0-3.783-.978,10.313,10.313,0,0,0-6.9,2.959q-3.324,2.96-5.062,9.186-1.329,4.786-1.328,19.35v18.939H92.9V46.616Zm33.99,0h7.157V56.651a29.985,29.985,0,0,1,9.508-8.62A23.246,23.246,0,0,1,154.9,45.176a19.623,19.623,0,0,1,11.067,3.191A18.969,18.969,0,0,1,173.1,56.96q2.3,5.4,2.3,16.828v28.82h-7.157V75.9q0-9.674-.8-12.917a14.205,14.205,0,0,0-4.771-8.362,14.344,14.344,0,0,0-9.2-2.8,17.584,17.584,0,0,0-11.633,4.323,20.275,20.275,0,0,0-6.774,10.7q-1.022,4.169-1.022,15.233v20.534h-7.157V46.616ZM235.153,84.03l6.033,3.191a33.113,33.113,0,0,1-6.857,9.47,27.209,27.209,0,0,1-8.749,5.48,30.353,30.353,0,0,1-11,1.878q-13.609,0-21.285-8.98a30.416,30.416,0,0,1-7.675-20.3,30.063,30.063,0,0,1,6.5-18.99q8.236-10.6,22.053-10.6,14.224,0,22.717,10.859,6.037,7.668,6.14,19.144H192.98q0.2,9.756,6.192,15.993a19.691,19.691,0,0,0,14.792,6.239,23.643,23.643,0,0,0,8.266-1.487,21.707,21.707,0,0,0,6.832-3.948A33.513,33.513,0,0,0,235.153,84.03Zm0-15.079a23.965,23.965,0,0,0-4.171-9.212,19.763,19.763,0,0,0-7.243-5.558,22.056,22.056,0,0,0-9.468-2.11,20.313,20.313,0,0,0-14.075,5.3q-4.3,3.86-6.5,11.579h41.458Zm11.293-22.335h7.361l17.048,40.656L288.6,46.616h1.3l17.866,40.656L325.14,46.616h7.443l-24.161,55.992h-1.328L289.31,62.518l-17.775,40.09H270.2ZM366.52,52.74l-4.6,4.786q-5.74-5.608-11.225-5.609a8.444,8.444,0,0,0-5.97,2.316,7.168,7.168,0,0,0-2.486,5.4,8.031,8.031,0,0,0,2.049,5.2q2.046,2.522,8.6,5.918,7.992,4.169,10.862,8.029a14.7,14.7,0,0,1,2.817,8.8,15.848,15.848,0,0,1-4.814,11.682,16.368,16.368,0,0,1-12.031,4.785,20.91,20.91,0,0,1-9.19-2.109,20,20,0,0,1-7.244-5.815l4.5-5.147q5.484,6.227,11.633,6.227a10.434,10.434,0,0,0,7.326-2.78,8.606,8.606,0,0,0,3.023-6.536,8.414,8.414,0,0,0-2-5.507q-2-2.366-9.016-5.969-7.533-3.91-10.247-7.72A14.6,14.6,0,0,1,335.8,60a14.194,14.194,0,0,1,4.326-10.6,15.023,15.023,0,0,1,10.933-4.22Q358.737,45.176,366.52,52.74Zm9.767,44.53a2.848,2.848,0,0,1,2.1.873,3.045,3.045,0,0,1,0,4.258,2.927,2.927,0,0,1-4.194,0,3.045,3.045,0,0,1,0-4.258A2.846,2.846,0,0,1,376.287,97.27Zm34.269-15.577-2.676,1.674a11.178,11.178,0,0,0-9.46-4.634,10.906,10.906,0,0,0-7.956,3.1,10.157,10.157,0,0,0-3.165,7.537,10.759,10.759,0,0,0,1.456,5.429,10.236,10.236,0,0,0,4,3.95,12.025,12.025,0,0,0,15.129-3.228l2.676,1.771a12.649,12.649,0,0,1-5.05,4.422,16.037,16.037,0,0,1-7.217,1.571,14.2,14.2,0,0,1-10.315-3.979,12.982,12.982,0,0,1-4.1-9.681,13.9,13.9,0,0,1,1.916-7.121,13.536,13.536,0,0,1,5.267-5.132,15.275,15.275,0,0,1,7.495-1.844,15.9,15.9,0,0,1,5.024.8,13.913,13.913,0,0,1,4.109,2.087A11.334,11.334,0,0,1,410.556,81.694Zm17.759-6.162a12.948,12.948,0,0,1,10.043,4.416,14.241,14.241,0,0,1-.206,19.2,13.8,13.8,0,0,1-19.7,0,14.216,14.216,0,0,1-.206-19.18A12.947,12.947,0,0,1,428.315,75.531ZM428.3,78.855a9.7,9.7,0,0,0-7.231,3.13,10.5,10.5,0,0,0-3.024,7.57,10.783,10.783,0,0,0,1.38,5.338,9.792,9.792,0,0,0,3.724,3.822,10.526,10.526,0,0,0,10.3,0,9.808,9.808,0,0,0,3.725-3.822,10.791,10.791,0,0,0,1.378-5.338,10.479,10.479,0,0,0-3.035-7.57A9.718,9.718,0,0,0,428.3,78.855Zm18.761-2.644h3.374v4.561a13.11,13.11,0,0,1,3.618-3.688,10.217,10.217,0,0,1,5.382-1.553,8.9,8.9,0,0,1,3.618.752,7.78,7.78,0,0,1,2.8,2,10.776,10.776,0,0,1,1.882,3.578,12.5,12.5,0,0,1,4.207-4.719,9.91,9.91,0,0,1,5.434-1.613,8.462,8.462,0,0,1,4.8,1.383,8.236,8.236,0,0,1,3.089,3.858,20.693,20.693,0,0,1,1.01,7.425v14.412h-3.446V88.2a18.958,18.958,0,0,0-.6-5.835,5.247,5.247,0,0,0-2.054-2.56,6.1,6.1,0,0,0-3.471-.971,7.518,7.518,0,0,0-4.48,1.456,8.365,8.365,0,0,0-2.966,3.882q-0.937,2.426-.937,8.1v10.336h-3.374V89.094a23.272,23.272,0,0,0-.591-6.49,5.428,5.428,0,0,0-2.06-2.742,5.937,5.937,0,0,0-3.5-1.031,7.51,7.51,0,0,0-4.374,1.419,8.4,8.4,0,0,0-3.012,3.822,20.719,20.719,0,0,0-.976,7.351v11.186h-3.374V76.21Z"/>
  <rect id="Rectangle_1_copy_2" data-name="Rectangle 1 copy 2" class="cls-3" x="502.75" y="29.406" width="2.188" height="72.469"/>
  <path class="cls-4" d="M521.6,60.406l2.653-18.8h0.3l7.531,15.422,7.457-15.422h0.3l2.666,18.8h-1.815l-1.83-13.442-6.55,13.442h-0.473l-6.628-13.544-1.82,13.544H521.6Zm37.9-13.9v13.9h-1.738V58.016a7.574,7.574,0,0,1-2.486,2.057,6.871,6.871,0,0,1-7.984-1.45,7.232,7.232,0,0,1-2.06-5.207,7.1,7.1,0,0,1,2.078-5.137,6.731,6.731,0,0,1,5-2.134,6.389,6.389,0,0,1,3.053.728,6.98,6.98,0,0,1,2.4,2.185V46.5H559.5Zm-7.045,1.367a5.255,5.255,0,0,0-2.717.734,5.353,5.353,0,0,0-1.981,2.062,5.706,5.706,0,0,0,0,5.615,5.454,5.454,0,0,0,1.994,2.087,5.155,5.155,0,0,0,2.686.746,5.441,5.441,0,0,0,2.742-.74,5.143,5.143,0,0,0,1.994-2,5.791,5.791,0,0,0,.7-2.846,5.575,5.575,0,0,0-1.565-4.033A5.153,5.153,0,0,0,552.459,47.871ZM563.471,46.5h1.763V49a7.424,7.424,0,0,1,2.343-2.141,5.694,5.694,0,0,1,2.795-.709,4.81,4.81,0,0,1,2.727.792,4.7,4.7,0,0,1,1.756,2.134,11.426,11.426,0,0,1,.568,4.178v7.155H573.66V53.774a16.616,16.616,0,0,0-.2-3.207,3.215,3.215,0,0,0-3.442-2.773,4.31,4.31,0,0,0-2.866,1.073,5.04,5.04,0,0,0-1.669,2.658,18.74,18.74,0,0,0-.252,3.782v5.1h-1.763V46.5ZM579.81,40.78a1.39,1.39,0,0,1,1.028.434,1.438,1.438,0,0,1,.426,1.048,1.422,1.422,0,0,1-.426,1.035,1.387,1.387,0,0,1-1.028.434,1.371,1.371,0,0,1-1.015-.434,1.423,1.423,0,0,1-.427-1.035,1.439,1.439,0,0,1,.427-1.048A1.374,1.374,0,0,1,579.81,40.78ZM578.934,46.5H580.7v13.9h-1.763V46.5Zm6.964-5.162h1.763V46.5h2.8V48.05h-2.8V60.406H585.9V48.05h-2.4V46.5h2.4V41.342Zm13.688,4.8a6.74,6.74,0,0,1,5.248,2.325,7.544,7.544,0,0,1-.106,10.113,7.169,7.169,0,0,1-10.294,0,7.524,7.524,0,0,1-.108-10.1A6.74,6.74,0,0,1,599.586,46.146Zm0,1.751a5.053,5.053,0,0,0-3.779,1.648,5.552,5.552,0,0,0-1.579,3.986,5.72,5.72,0,0,0,.72,2.811,5.138,5.138,0,0,0,1.946,2.012,5.46,5.46,0,0,0,5.383,0,5.147,5.147,0,0,0,1.947-2.012,5.72,5.72,0,0,0,.72-2.811,5.538,5.538,0,0,0-1.587-3.986A5.056,5.056,0,0,0,599.581,47.9Zm8.556-1.393h1.814l4.2,10.094L618.522,46.5h0.319l4.4,10.094,4.28-10.094h1.833l-5.952,13.9h-0.327L618.7,50.452l-4.378,9.953h-0.329Zm29.769-.358a6.739,6.739,0,0,1,5.248,2.325,7.544,7.544,0,0,1-.106,10.113,7.169,7.169,0,0,1-10.294,0,7.526,7.526,0,0,1-.107-10.1A6.737,6.737,0,0,1,637.906,46.146Zm0,1.751a5.054,5.054,0,0,0-3.779,1.648,5.552,5.552,0,0,0-1.579,3.986,5.72,5.72,0,0,0,.72,2.811,5.138,5.138,0,0,0,1.946,2.012,5.46,5.46,0,0,0,5.383,0,5.14,5.14,0,0,0,1.947-2.012,5.72,5.72,0,0,0,.72-2.811,5.538,5.538,0,0,0-1.587-3.986A5.054,5.054,0,0,0,637.9,47.9Zm23.705,1.495-1.4.882a5.829,5.829,0,0,0-4.945-2.44,5.677,5.677,0,0,0-4.157,1.633,5.373,5.373,0,0,0-1.654,3.97,5.7,5.7,0,0,0,.762,2.859,5.37,5.37,0,0,0,2.088,2.08,6.251,6.251,0,0,0,7.906-1.7l1.4,0.933a6.634,6.634,0,0,1-2.638,2.328,8.323,8.323,0,0,1-3.773.828,7.388,7.388,0,0,1-5.389-2.1,6.868,6.868,0,0,1-2.14-5.1,7.361,7.361,0,0,1,1-3.751,7.1,7.1,0,0,1,2.751-2.7,7.943,7.943,0,0,1,3.917-.971,8.253,8.253,0,0,1,2.625.422,7.287,7.287,0,0,1,2.148,1.1A5.964,5.964,0,0,1,661.606,49.392ZM520.041,77.419h1.9l3.785,13.544,5.31-13.544h0.384l5.249,13.544,3.848-13.544h1.888l-5.322,18.8h-0.345l-5.5-14.222-5.6,14.222h-0.346Zm26.275-.831a1.39,1.39,0,0,1,1.028.434,1.442,1.442,0,0,1,.426,1.048,1.426,1.426,0,0,1-.426,1.035,1.387,1.387,0,0,1-1.028.434,1.371,1.371,0,0,1-1.015-.434,1.423,1.423,0,0,1-.427-1.035,1.439,1.439,0,0,1,.427-1.048A1.374,1.374,0,0,1,546.316,76.588Zm-0.876,5.724H547.2v13.9H545.44v-13.9Zm12.316,1.52-1.132,1.188a4.056,4.056,0,0,0-2.765-1.393,2.076,2.076,0,0,0-1.472.575,1.788,1.788,0,0,0-.612,1.342,2,2,0,0,0,.5,1.291,7.113,7.113,0,0,0,2.119,1.469,7.906,7.906,0,0,1,2.675,1.993,3.669,3.669,0,0,1,.7,2.186,3.949,3.949,0,0,1-1.185,2.9,4.019,4.019,0,0,1-2.964,1.189,5.109,5.109,0,0,1-2.264-.525,4.9,4.9,0,0,1-1.784-1.443l1.108-1.278a3.834,3.834,0,0,0,2.864,1.545,2.563,2.563,0,0,0,1.806-.69,2.144,2.144,0,0,0,.744-1.622,2.1,2.1,0,0,0-.492-1.368,7.944,7.944,0,0,0-2.221-1.482,7.114,7.114,0,0,1-2.523-1.916,3.636,3.636,0,0,1-.67-2.159A3.537,3.537,0,0,1,551.254,83a3.685,3.685,0,0,1,2.693-1.048A5.548,5.548,0,0,1,557.756,83.833ZM574.177,85.2l-1.4.882a5.827,5.827,0,0,0-4.944-2.44,5.675,5.675,0,0,0-4.157,1.633,5.375,5.375,0,0,0-1.654,3.97,5.7,5.7,0,0,0,.762,2.858,5.372,5.372,0,0,0,2.088,2.081,6.252,6.252,0,0,0,7.9-1.7l1.4,0.932a6.634,6.634,0,0,1-2.638,2.328,8.315,8.315,0,0,1-3.773.829,7.388,7.388,0,0,1-5.389-2.1,6.866,6.866,0,0,1-2.14-5.1,7.363,7.363,0,0,1,1-3.751,7.1,7.1,0,0,1,2.751-2.7,7.942,7.942,0,0,1,3.916-.971,8.254,8.254,0,0,1,2.626.422,7.3,7.3,0,0,1,2.148,1.1A5.964,5.964,0,0,1,574.177,85.2Zm9.872-3.245A6.739,6.739,0,0,1,589.3,84.28a7.545,7.545,0,0,1-.106,10.114,7.169,7.169,0,0,1-10.294,0,7.527,7.527,0,0,1-.107-10.1A6.737,6.737,0,0,1,584.049,81.955Zm0,1.75a5.054,5.054,0,0,0-3.779,1.648,5.554,5.554,0,0,0-1.579,3.987,5.721,5.721,0,0,0,.72,2.811,5.137,5.137,0,0,0,1.946,2.012,5.465,5.465,0,0,0,5.383,0,5.14,5.14,0,0,0,1.947-2.012,5.721,5.721,0,0,0,.72-2.811,5.54,5.54,0,0,0-1.587-3.987A5.054,5.054,0,0,0,584.044,83.705Zm10.408-1.393h1.763V84.8a7.414,7.414,0,0,1,2.343-2.141,5.694,5.694,0,0,1,2.795-.709,4.811,4.811,0,0,1,2.727.792,4.714,4.714,0,0,1,1.756,2.134,11.435,11.435,0,0,1,.567,4.179v7.155H604.64V89.583a16.641,16.641,0,0,0-.2-3.206A3.216,3.216,0,0,0,601,83.6a4.31,4.31,0,0,0-2.866,1.073,5.034,5.034,0,0,0-1.669,2.658,18.743,18.743,0,0,0-.252,3.782v5.1h-1.763v-13.9Zm22.615,1.52-1.132,1.188a4.054,4.054,0,0,0-2.765-1.393,2.074,2.074,0,0,0-1.471.575,1.788,1.788,0,0,0-.612,1.342,2,2,0,0,0,.5,1.291,7.1,7.1,0,0,0,2.119,1.469,7.927,7.927,0,0,1,2.675,1.993,3.669,3.669,0,0,1,.7,2.186,3.949,3.949,0,0,1-1.185,2.9,4.021,4.021,0,0,1-2.964,1.189,5.106,5.106,0,0,1-2.264-.525,4.9,4.9,0,0,1-1.784-1.443l1.108-1.278a3.834,3.834,0,0,0,2.864,1.545,2.56,2.56,0,0,0,1.8-.69,2.144,2.144,0,0,0,.744-1.622,2.1,2.1,0,0,0-.492-1.368,7.918,7.918,0,0,0-2.22-1.482,7.119,7.119,0,0,1-2.524-1.916,3.635,3.635,0,0,1-.669-2.159A3.54,3.54,0,0,1,610.565,83a3.686,3.686,0,0,1,2.694-1.048A5.544,5.544,0,0,1,617.067,83.833Zm3.736-7.245a1.389,1.389,0,0,1,1.027.434,1.439,1.439,0,0,1,.427,1.048,1.423,1.423,0,0,1-.427,1.035,1.387,1.387,0,0,1-1.027.434,1.372,1.372,0,0,1-1.016-.434,1.422,1.422,0,0,1-.426-1.035,1.438,1.438,0,0,1,.426-1.048A1.374,1.374,0,0,1,620.8,76.588Zm-0.876,5.724h1.763v13.9h-1.763v-13.9Zm5.426,0h1.763V84.8a7.425,7.425,0,0,1,2.343-2.141,5.694,5.694,0,0,1,2.8-.709,4.811,4.811,0,0,1,2.727.792,4.708,4.708,0,0,1,1.756,2.134,11.431,11.431,0,0,1,.568,4.179v7.155h-1.763V89.583a16.614,16.614,0,0,0-.2-3.206A3.214,3.214,0,0,0,631.9,83.6a4.31,4.31,0,0,0-2.866,1.073,5.04,5.04,0,0,0-1.669,2.658,18.743,18.743,0,0,0-.252,3.782v5.1h-1.763v-13.9Z"/>
</svg>
