<svg xmlns="http://www.w3.org/2000/svg" width="496" height="48" viewBox="0 0 496 48">
  <g fill="none" fill-rule="evenodd">
    <polyline fill="#404040" points=".36 34.184 .36 3.584 8.73 3.584 8.73 15.374 19.124 15.374 19.124 3.584 27.495 3.584 27.495 34.184 19.124 34.184 19.124 22.214 8.73 22.214 8.73 34.184 .36 34.184"/>
    <path fill="#404040" d="M44.459 16.364C41.909 16.364 40.379 17.714 39.869 20.414L48.599 20.414C48.389 18.944 47.886 17.901 47.092 17.286 46.296 16.672 45.419 16.364 44.459 16.364zM55.169 31.844C54.029 32.654 52.581 33.344 50.827 33.914 49.072 34.483 47.204 34.769 45.224 34.769 42.494 34.769 40.162 34.266 38.227 33.261 36.292 32.257 34.807 30.854 33.772 29.054 32.737 27.254 32.219 25.184 32.219 22.844 32.219 20.475 32.729 18.374 33.749 16.544 34.769 14.714 36.179 13.281 37.979 12.246 39.779 11.211 41.879 10.694 44.279 10.694 46.619 10.694 48.681 11.196 50.467 12.201 52.251 13.207 53.646 14.602 54.652 16.386 55.656 18.172 56.159 20.264 56.159 22.664 56.159 22.994 56.137 23.339 56.092 23.699 56.047 24.059 55.994 24.435 55.934 24.824L39.959 24.824C40.679 27.464 42.644 28.784 45.854 28.784 47.294 28.784 48.569 28.559 49.679 28.109 50.789 27.659 51.719 27.209 52.469 26.759L55.169 31.844zM67.994 25.319L67.994 34.184 60.164 34.184 60.164 11.279 67.319 11.279 67.814 15.104C68.293 13.874 69.081 12.876 70.177 12.111 71.271 11.347 72.539 10.964 73.979 10.964 74.789 10.964 75.404 11.069 75.824 11.279L75.824 18.434C75.493 18.315 75.126 18.225 74.721 18.164 74.316 18.104 73.859 18.074 73.349 18.074 71.789 18.074 70.506 18.652 69.501 19.807 68.496 20.962 67.994 22.799 67.994 25.319M85.769 26.759C85.769 27.449 86.023 28.012 86.534 28.446 87.043 28.882 87.704 29.099 88.514 29.099 89.594 29.099 90.501 28.731 91.236 27.996 91.971 27.262 92.339 26.339 92.339 25.229L92.339 24.464C91.529 24.314 90.674 24.239 89.774 24.239 88.633 24.239 87.681 24.435 86.916 24.824 86.151 25.214 85.769 25.859 85.769 26.759zM92.654 34.184L92.249 31.169C90.748 33.569 88.469 34.769 85.409 34.769 84.059 34.769 82.836 34.477 81.741 33.892 80.646 33.307 79.776 32.504 79.131 31.484 78.486 30.464 78.164 29.279 78.164 27.929 78.164 25.379 79.161 23.399 81.156 21.989 83.151 20.579 85.783 19.874 89.054 19.874 90.073 19.874 91.153 19.964 92.294 20.144 92.173 19.004 91.686 18.142 90.831 17.557 89.976 16.972 88.933 16.679 87.704 16.679 86.624 16.679 85.536 16.881 84.441 17.286 83.346 17.691 82.304 18.179 81.314 18.749L78.659 13.709C80.158 12.749 81.778 12.007 83.519 11.481 85.258 10.957 86.998 10.694 88.739 10.694 90.838 10.694 92.728 11.054 94.409 11.774 96.088 12.494 97.408 13.589 98.369 15.059 99.328 16.529 99.809 18.389 99.809 20.639L99.809 34.184 92.654 34.184z"/>
    <polygon fill="#404040" points="104.804 34.184 112.634 34.184 112.634 1.334 104.804 1.334"/>
    <path fill="#404040" d="M129.238,28.559 C130.588,28.559 131.675,28.026 132.501,26.961 C133.325,25.897 133.738,24.48 133.738,22.709 C133.738,20.939 133.325,19.522 132.501,18.456 C131.675,17.392 130.588,16.859 129.238,16.859 C127.858,16.859 126.755,17.392 125.931,18.456 C125.105,19.522 124.693,20.939 124.693,22.709 C124.693,24.48 125.105,25.897 125.931,26.961 C126.755,28.026 127.858,28.559 129.238,28.559 Z M134.278,34.184 L133.873,31.169 C133.153,32.279 132.223,33.156 131.083,33.801 C129.943,34.446 128.623,34.769 127.123,34.769 C125.053,34.769 123.238,34.258 121.678,33.239 C120.118,32.219 118.903,30.802 118.033,28.986 C117.163,27.172 116.728,25.079 116.728,22.709 C116.728,20.339 117.163,18.254 118.033,16.454 C118.903,14.654 120.095,13.244 121.611,12.224 C123.125,11.204 124.873,10.694 126.853,10.694 C128.233,10.694 129.508,10.986 130.678,11.571 C131.848,12.156 132.823,12.944 133.603,13.934 L133.603,1.334 L141.433,1.334 L141.433,34.184 L134.278,34.184 Z"/>
    <polyline fill="#404040" points="165.103 34.184 165.103 10.334 156.012 10.334 156.012 3.584 182.563 3.584 182.563 10.334 173.473 10.334 173.473 34.184 165.103 34.184"/>
    <path fill="#404040" d="M186.342 34.184L186.342 11.279C187.602 11.549 188.877 11.684 190.167 11.684 191.487 11.684 192.822 11.549 194.172 11.279L194.172 34.184 186.342 34.184M207.491 20.999L207.491 34.184 199.662 34.184 199.662 11.279 206.862 11.279 207.267 14.204C207.956 13.094 208.856 12.254 209.967 11.684 211.076 11.114 212.261 10.829 213.521 10.829 214.872 10.829 216.101 11.129 217.211 11.729 218.321 12.329 219.221 13.169 219.912 14.249 220.721 13.14 221.779 12.291 223.084 11.706 224.389 11.121 225.761 10.829 227.201 10.829 228.791 10.829 230.194 11.196 231.409 11.932 232.624 12.667 233.576 13.687 234.267 14.991 234.956 16.296 235.302 17.804 235.302 19.514L235.302 34.184 227.471 34.184 227.471 20.324C227.471 19.364 227.208 18.599 226.684 18.029 226.159 17.459 225.491 17.174 224.681 17.174 223.691 17.174 222.896 17.489 222.296 18.119 221.696 18.749 221.396 19.709 221.396 20.999L221.396 34.184 213.566 34.184 213.566 20.324C213.566 19.364 213.311 18.599 212.802 18.029 212.291 17.459 211.601 17.174 210.731 17.174 209.771 17.174 208.991 17.489 208.392 18.119 207.791 18.749 207.491 19.709 207.491 20.999M251.231 16.364C248.681 16.364 247.151 17.714 246.642 20.414L255.372 20.414C255.161 18.944 254.659 17.901 253.864 17.286 253.069 16.672 252.191 16.364 251.231 16.364zM261.941 31.844C260.801 32.654 259.354 33.344 257.599 33.914 255.844 34.483 253.977 34.769 251.997 34.769 249.266 34.769 246.934 34.266 244.999 33.261 243.064 32.257 241.579 30.854 240.544 29.054 239.509 27.254 238.992 25.184 238.992 22.844 238.992 20.475 239.501 18.374 240.521 16.544 241.541 14.714 242.952 13.281 244.752 12.246 246.551 11.211 248.651 10.694 251.051 10.694 253.392 10.694 255.454 11.196 257.239 12.201 259.023 13.207 260.418 14.602 261.424 16.386 262.429 18.172 262.932 20.264 262.932 22.664 262.932 22.994 262.909 23.339 262.864 23.699 262.819 24.059 262.766 24.435 262.707 24.824L246.731 24.824C247.452 27.464 249.416 28.784 252.626 28.784 254.066 28.784 255.341 28.559 256.452 28.109 257.561 27.659 258.491 27.209 259.242 26.759L261.941 31.844zM275.441 34.769C273.461 34.769 271.608 34.454 269.884 33.824 268.158 33.194 266.606 32.294 265.226 31.124L268.556 26.714C269.606 27.554 270.739 28.237 271.954 28.761 273.169 29.287 274.361 29.549 275.531 29.549 276.311 29.549 276.933 29.414 277.399 29.144 277.864 28.874 278.096 28.469 278.096 27.929 278.096 27.359 277.833 26.901 277.309 26.557 276.784 26.212 275.846 25.874 274.496 25.544L272.336 25.004C268.046 23.864 265.901 21.569 265.901 18.119 265.901 16.589 266.321 15.269 267.161 14.159 268.001 13.049 269.156 12.194 270.626 11.594 272.096 10.994 273.806 10.694 275.756 10.694 277.676 10.694 279.483 10.994 281.179 11.594 282.874 12.194 284.426 13.064 285.836 14.204L282.417 18.704C281.366 17.864 280.256 17.189 279.086 16.679 277.917 16.169 276.821 15.914 275.801 15.914 274.151 15.914 273.326 16.454 273.326 17.534 273.326 18.014 273.574 18.404 274.069 18.704 274.564 19.004 275.261 19.274 276.161 19.514L279.086 20.324C281.276 20.924 282.896 21.824 283.946 23.024 284.996 24.224 285.521 25.649 285.521 27.299 285.521 28.799 285.101 30.111 284.261 31.236 283.421 32.361 282.243 33.231 280.729 33.847 279.213 34.461 277.451 34.769 275.441 34.769"/>
    <path fill="#009BFF" class='no-color-change' d="M309.326 17.669L313.826 17.669C315.115 17.669 316.135 17.331 316.886 16.656 317.635 15.981 318.011 15.059 318.011 13.889 318.011 12.779 317.635 11.886 316.886 11.211 316.135 10.536 315.115 10.199 313.826 10.199L309.326 10.199 309.326 17.669zM309.326 24.014L309.326 34.184 301.226 34.184 301.226 3.584 314.726 3.584C318.326 3.584 321.175 4.506 323.276 6.352 325.375 8.196 326.426 10.709 326.426 13.889 326.426 15.959 325.96 17.744 325.031 19.244 324.101 20.744 322.795 21.914 321.116 22.754L327.371 34.184 318.461 34.184 313.375 24.014 309.326 24.014zM341.636 16.364C339.085 16.364 337.556 17.714 337.046 20.414L345.776 20.414C345.565 18.944 345.063 17.901 344.268 17.286 343.473 16.672 342.596 16.364 341.636 16.364zM352.346 31.844C351.205 32.654 349.758 33.344 348.003 33.914 346.248 34.483 344.381 34.769 342.401 34.769 339.67 34.769 337.338 34.266 335.403 33.261 333.468 32.257 331.983 30.854 330.948 29.054 329.913 27.254 329.396 25.184 329.396 22.844 329.396 20.475 329.906 18.374 330.926 16.544 331.945 14.714 333.356 13.281 335.156 12.246 336.956 11.211 339.055 10.694 341.456 10.694 343.796 10.694 345.858 11.196 347.643 12.201 349.428 13.207 350.823 14.602 351.828 16.386 352.833 18.172 353.336 20.264 353.336 22.664 353.336 22.994 353.313 23.339 353.268 23.699 353.223 24.059 353.17 24.435 353.111 24.824L337.136 24.824C337.856 27.464 339.82 28.784 343.031 28.784 344.471 28.784 345.746 28.559 346.856 28.109 347.965 27.659 348.896 27.209 349.646 26.759L352.346 31.844zM369.536 28.559C370.915 28.559 372.018 28.026 372.843 26.961 373.668 25.897 374.081 24.48 374.081 22.709 374.081 20.939 373.668 19.522 372.843 18.456 372.018 17.392 370.915 16.859 369.536 16.859 368.186 16.859 367.098 17.392 366.273 18.456 365.448 19.522 365.036 20.939 365.036 22.709 365.036 24.48 365.448 25.897 366.273 26.961 367.098 28.026 368.186 28.559 369.536 28.559zM371.65 34.769C370.301 34.769 369.07 34.483 367.96 33.914 366.851 33.344 365.92 32.563 365.17 31.574L365.17 42.509 357.341 42.509 357.341 11.279 364.496 11.279 364.9 14.294C365.621 13.214 366.588 12.344 367.803 11.684 369.018 11.024 370.42 10.694 372.011 10.694 373.96 10.694 375.685 11.204 377.186 12.224 378.686 13.244 379.87 14.654 380.741 16.454 381.61 18.254 382.045 20.339 382.045 22.709 382.045 25.079 381.603 27.172 380.718 28.986 379.833 30.802 378.603 32.219 377.028 33.239 375.453 34.258 373.66 34.769 371.65 34.769zM397.256 28.559C398.635 28.559 399.738 28.026 400.563 26.961 401.388 25.897 401.801 24.48 401.801 22.709 401.801 20.939 401.388 19.529 400.563 18.479 399.738 17.429 398.635 16.904 397.256 16.904 395.875 16.904 394.773 17.429 393.948 18.479 393.123 19.529 392.71 20.939 392.71 22.709 392.71 24.48 393.123 25.897 393.948 26.961 394.773 28.026 395.875 28.559 397.256 28.559zM397.256 34.769C394.795 34.769 392.627 34.251 390.753 33.216 388.878 32.182 387.408 30.764 386.343 28.964 385.278 27.164 384.746 25.079 384.746 22.709 384.746 20.339 385.278 18.254 386.343 16.454 387.408 14.654 388.878 13.244 390.753 12.224 392.627 11.204 394.795 10.694 397.256 10.694 399.715 10.694 401.883 11.204 403.758 12.224 405.633 13.244 407.103 14.654 408.168 16.454 409.232 18.254 409.766 20.339 409.766 22.709 409.766 25.079 409.232 27.164 408.168 28.964 407.103 30.764 405.633 32.182 403.758 33.216 401.883 34.251 399.715 34.769 397.256 34.769zM421.69 25.319L421.69 34.184 413.861 34.184 413.861 11.279 421.016 11.279 421.511 15.104C421.99 13.874 422.778 12.876 423.873 12.111 424.968 11.347 426.236 10.964 427.676 10.964 428.486 10.964 429.1 11.069 429.521 11.279L429.521 18.434C429.19 18.315 428.823 18.225 428.418 18.164 428.013 18.104 427.555 18.074 427.045 18.074 425.485 18.074 424.203 18.652 423.198 19.807 422.193 20.962 421.69 22.799 421.69 25.319M450.625 32.699C449.695 33.329 448.629 33.831 447.43 34.206 446.229 34.581 444.97 34.769 443.65 34.769 441.189 34.769 439.232 34.057 437.777 32.631 436.322 31.207 435.595 29.294 435.595 26.894L435.595 17.129 431.86 17.129 431.86 11.279 435.955 11.279 436.945 4.889 443.425 4.889 443.425 11.279 449.41 11.279 449.41 17.129 443.425 17.129 443.425 25.904C443.425 26.685 443.657 27.292 444.123 27.727 444.587 28.162 445.209 28.379 445.99 28.379 446.379 28.379 446.777 28.304 447.183 28.154 447.587 28.004 447.97 27.824 448.33 27.614L450.625 32.699M464.529 16.364C461.979 16.364 460.449 17.714 459.939 20.414L468.669 20.414C468.459 18.944 467.957 17.901 467.162 17.286 466.367 16.672 465.489 16.364 464.529 16.364zM475.239 31.844C474.099 32.654 472.652 33.344 470.897 33.914 469.142 34.483 467.274 34.769 465.294 34.769 462.564 34.769 460.232 34.266 458.297 33.261 456.362 32.257 454.877 30.854 453.842 29.054 452.807 27.254 452.29 25.184 452.29 22.844 452.29 20.475 452.799 18.374 453.819 16.544 454.839 14.714 456.25 13.281 458.049 12.246 459.85 11.211 461.949 10.694 464.35 10.694 466.689 10.694 468.752 11.196 470.537 12.201 472.321 13.207 473.716 14.602 474.722 16.386 475.727 18.172 476.229 20.264 476.229 22.664 476.229 22.994 476.207 23.339 476.162 23.699 476.117 24.059 476.064 24.435 476.004 24.824L460.029 24.824C460.75 27.464 462.714 28.784 465.924 28.784 467.364 28.784 468.639 28.559 469.75 28.109 470.859 27.659 471.789 27.209 472.54 26.759L475.239 31.844zM488.064 25.319L488.064 34.184 480.234 34.184 480.234 11.279 487.389 11.279 487.884 15.104C488.364 13.874 489.151 12.876 490.247 12.111 491.341 11.347 492.609 10.964 494.049 10.964 494.859 10.964 495.474 11.069 495.894 11.279L495.894 18.434C495.564 18.315 495.197 18.225 494.792 18.164 494.387 18.104 493.929 18.074 493.419 18.074 491.859 18.074 490.577 18.652 489.572 19.807 488.566 20.962 488.064 22.799 488.064 25.319"/>
    <path fill="#404040" d="M1.286 44.327L2.539 44.327C2.951 44.327 3.276 44.225 3.516 44.022 3.755 43.82 3.875 43.543 3.875 43.193 3.875 42.843 3.755 42.567 3.516 42.364 3.276 42.161 2.951 42.06 2.539 42.06L1.286 42.06 1.286 44.327zM.356 47.542L.356 41.277 2.539 41.277C3.239 41.277 3.796 41.449 4.207 41.793 4.618 42.137 4.824 42.604 4.824 43.193 4.824 43.777 4.618 44.239 4.207 44.58 3.796 44.921 3.239 45.092 2.539 45.092L1.286 45.092 1.286 47.542.356 47.542zM6.704 45.183L8.989 45.183 7.846 42.244 6.704 45.183zM9.901 47.542L9.293 45.967 6.4 45.967 5.792 47.542 4.852 47.542 7.358 41.277 8.362 41.277 10.859 47.542 9.901 47.542zM12.831 44.234L14.112 44.234C14.511 44.234 14.829 44.136 15.066 43.94 15.302 43.743 15.42 43.479 15.42 43.147 15.42 42.815 15.302 42.552 15.066 42.354 14.829 42.158 14.511 42.06 14.112 42.06L12.831 42.06 12.831 44.234zM12.831 44.999L12.831 47.542 11.901 47.542 11.901 41.277 14.112 41.277C14.806 41.277 15.356 41.444 15.761 41.779 16.167 42.114 16.369 42.57 16.369 43.147 16.369 43.584 16.247 43.952 16.001 44.253 15.755 44.554 15.417 44.766 14.987 44.888L16.508 47.542 15.448 47.542 14.02 44.999 12.831 44.999z"/>
    <polyline fill="#404040" points="19.041 47.542 19.041 42.06 16.931 42.06 16.931 41.277 22.082 41.277 22.082 42.06 19.972 42.06 19.972 47.542 19.041 47.542"/>
    <path fill="#404040" d="M28.062,46.833 C28.467,46.833 28.828,46.73 29.144,46.524 C29.46,46.318 29.708,46.034 29.886,45.672 C30.064,45.31 30.153,44.888 30.153,44.409 C30.153,43.93 30.064,43.509 29.886,43.147 C29.708,42.785 29.46,42.501 29.144,42.295 C28.828,42.089 28.467,41.986 28.062,41.986 C27.656,41.986 27.297,42.089 26.984,42.295 C26.67,42.501 26.424,42.785 26.246,43.147 C26.068,43.509 25.979,43.93 25.979,44.409 C25.979,44.888 26.068,45.31 26.246,45.672 C26.424,46.034 26.67,46.318 26.984,46.524 C27.297,46.73 27.656,46.833 28.062,46.833 Z M28.062,47.644 C27.472,47.644 26.95,47.505 26.495,47.229 C26.041,46.952 25.683,46.571 25.422,46.086 C25.161,45.601 25.03,45.042 25.03,44.409 C25.03,43.777 25.161,43.218 25.422,42.733 C25.683,42.247 26.041,41.866 26.495,41.59 C26.95,41.313 27.472,41.175 28.062,41.175 C28.651,41.175 29.175,41.313 29.632,41.59 C30.09,41.866 30.449,42.247 30.711,42.733 C30.972,43.218 31.102,43.777 31.102,44.409 C31.102,45.042 30.972,45.601 30.711,46.086 C30.449,46.571 30.09,46.952 29.632,47.229 C29.175,47.505 28.651,47.644 28.062,47.644 Z"/>
    <polyline fill="#404040" points="33.341 47.542 32.411 47.542 32.411 41.277 36.308 41.277 36.308 42.06 33.341 42.06 33.341 44.179 35.857 44.179 35.857 44.962 33.341 44.962 33.341 47.542"/>
    <polyline fill="#404040" points="41.164 47.542 41.164 42.06 39.054 42.06 39.054 41.277 44.204 41.277 44.204 42.06 42.094 42.06 42.094 47.542 41.164 47.542"/>
    <polyline fill="#404040" points="45.273 47.542 45.273 41.277 46.204 41.277 46.204 43.958 49.437 43.958 49.437 41.277 50.368 41.277 50.368 47.542 49.437 47.542 49.437 44.76 46.204 44.76 46.204 47.542 45.273 47.542"/>
    <polyline fill="#404040" points="52.008 47.542 52.008 41.277 56.026 41.277 56.026 42.06 52.939 42.06 52.939 43.995 55.657 43.995 55.657 44.778 52.939 44.778 52.939 46.759 56.099 46.759 56.099 47.542 52.008 47.542"/>
    <path fill="#404040" d="M61.978 46.833C62.488 46.833 62.888 46.679 63.18 46.372 63.472 46.065 63.618 45.65 63.618 45.128L63.618 41.277 64.548 41.277 64.548 45.137C64.548 45.918 64.319 46.53 63.862 46.975 63.404 47.421 62.776 47.644 61.978 47.644 61.179 47.644 60.553 47.421 60.098 46.975 59.643 46.53 59.416 45.918 59.416 45.137L59.416 41.277 60.347 41.277 60.347 45.128C60.347 45.65 60.493 46.065 60.784 46.372 61.076 46.679 61.474 46.833 61.978 46.833M68.022 47.644C67.549 47.644 67.097 47.56 66.667 47.395 66.237 47.229 65.89 47.008 65.626 46.732L66.151 46.114C66.397 46.342 66.687 46.519 67.022 46.648 67.357 46.777 67.69 46.842 68.022 46.842 68.427 46.842 68.754 46.764 69.003 46.607 69.252 46.45 69.376 46.234 69.376 45.957 69.376 45.705 69.287 45.494 69.109 45.321 68.931 45.15 68.627 45.006 68.197 44.888L67.331 44.658C66.772 44.511 66.365 44.302 66.11 44.032 65.855 43.761 65.728 43.408 65.728 42.972 65.728 42.616 65.823 42.302 66.013 42.032 66.204 41.762 66.466 41.552 66.801 41.401 67.136 41.251 67.515 41.175 67.939 41.175 68.387 41.175 68.808 41.26 69.201 41.429 69.594 41.598 69.941 41.833 70.242 42.134L69.68 42.742C69.416 42.496 69.141 42.307 68.856 42.175 68.57 42.043 68.267 41.977 67.948 41.977 67.561 41.977 67.245 42.059 66.999 42.221 66.753 42.384 66.631 42.61 66.631 42.898 66.631 43.162 66.718 43.368 66.893 43.516 67.068 43.663 67.337 43.786 67.699 43.884L68.667 44.151C69.226 44.305 69.634 44.52 69.892 44.797 70.15 45.073 70.279 45.417 70.279 45.829 70.279 46.191 70.184 46.509 69.994 46.782 69.803 47.055 69.539 47.267 69.201 47.418 68.863 47.569 68.47 47.644 68.022 47.644M72.619 45.183L74.905 45.183 73.762 42.244 72.619 45.183zM75.817 47.542L75.209 45.967 72.315 45.967 71.707 47.542 70.768 47.542 73.274 41.277 74.278 41.277 76.775 47.542 75.817 47.542z"/>
    <polyline fill="#404040" points="81.105 47.542 81.105 42.06 78.995 42.06 78.995 41.277 84.146 41.277 84.146 42.06 82.036 42.06 82.036 47.542 81.105 47.542"/>
    <path fill="#404040" d="M87.5 46.833C87.906 46.833 88.266 46.73 88.583 46.524 88.899 46.318 89.146 46.034 89.324 45.672 89.502 45.31 89.592 44.888 89.592 44.409 89.592 43.93 89.502 43.509 89.324 43.147 89.146 42.785 88.899 42.501 88.583 42.295 88.266 42.089 87.906 41.986 87.5 41.986 87.095 41.986 86.735 42.089 86.422 42.295 86.109 42.501 85.863 42.785 85.685 43.147 85.507 43.509 85.418 43.93 85.418 44.409 85.418 44.888 85.507 45.31 85.685 45.672 85.863 46.034 86.109 46.318 86.422 46.524 86.735 46.73 87.095 46.833 87.5 46.833zM87.5 47.644C86.91 47.644 86.388 47.505 85.934 47.229 85.479 46.952 85.121 46.571 84.86 46.086 84.599 45.601 84.469 45.042 84.469 44.409 84.469 43.777 84.599 43.218 84.86 42.733 85.121 42.247 85.479 41.866 85.934 41.59 86.388 41.313 86.91 41.175 87.5 41.175 88.09 41.175 88.613 41.313 89.071 41.59 89.528 41.866 89.888 42.247 90.149 42.733 90.41 43.218 90.54 43.777 90.54 44.409 90.54 45.042 90.41 45.601 90.149 46.086 89.888 46.571 89.528 46.952 89.071 47.229 88.613 47.505 88.09 47.644 87.5 47.644zM92.779 46.759L94.051 46.759C94.493 46.759 94.872 46.662 95.189 46.469 95.505 46.275 95.748 46.004 95.917 45.653 96.086 45.303 96.17 44.888 96.17 44.409 96.17 43.93 96.086 43.516 95.917 43.166 95.748 42.815 95.505 42.544 95.189 42.35 94.872 42.157 94.493 42.06 94.051 42.06L92.779 42.06 92.779 46.759zM91.849 47.542L91.849 41.277 94.051 41.277C94.665 41.277 95.203 41.407 95.663 41.669 96.124 41.929 96.482 42.295 96.737 42.765 96.992 43.234 97.119 43.783 97.119 44.409 97.119 45.036 96.992 45.584 96.737 46.054 96.482 46.524 96.124 46.889 95.663 47.151 95.203 47.412 94.665 47.542 94.051 47.542L91.849 47.542zM99.496 45.183L101.781 45.183 100.639 42.244 99.496 45.183zM102.694 47.542L102.086 45.967 99.192 45.967 98.584 47.542 97.644 47.542 100.151 41.277 101.155 41.277 103.652 47.542 102.694 47.542z"/>
    <polyline fill="#404040" points="106.508 45.054 106.508 47.542 105.578 47.542 105.578 45.054 103.375 41.277 104.472 41.277 106.048 44.17 107.623 41.277 108.701 41.277 106.508 45.054"/>
    <polyline fill="#404040" points="116.146 47.542 112.801 42.742 112.801 47.542 111.926 47.542 111.926 41.277 112.792 41.277 116.146 46.077 116.146 41.277 117.012 41.277 117.012 47.542 116.146 47.542"/>
    <polyline fill="#404040" points="118.652 47.542 118.652 41.277 122.669 41.277 122.669 42.06 119.583 42.06 119.583 43.995 122.301 43.995 122.301 44.778 119.583 44.778 119.583 46.759 122.743 46.759 122.743 47.542 118.652 47.542"/>
    <polyline fill="#404040" points="125.507 47.542 125.507 42.06 123.397 42.06 123.397 41.277 128.548 41.277 128.548 42.06 126.438 42.06 126.438 47.542 125.507 47.542"/>
    <polyline fill="#404040" points="134.629 47.542 133.164 42.548 131.699 47.542 130.731 47.542 129.064 41.277 129.985 41.277 131.256 46.234 132.722 41.277 133.606 41.277 135.08 46.252 136.361 41.277 137.264 41.277 135.596 47.542 134.629 47.542"/>
    <path fill="#404040" d="M140.959 46.833C141.365 46.833 141.725 46.73 142.042 46.524 142.358 46.318 142.605 46.034 142.783 45.672 142.961 45.31 143.05 44.888 143.05 44.409 143.05 43.93 142.961 43.509 142.783 43.147 142.605 42.785 142.358 42.501 142.042 42.295 141.725 42.089 141.365 41.986 140.959 41.986 140.554 41.986 140.194 42.089 139.881 42.295 139.568 42.501 139.322 42.785 139.144 43.147 138.966 43.509 138.877 43.93 138.877 44.409 138.877 44.888 138.966 45.31 139.144 45.672 139.322 46.034 139.568 46.318 139.881 46.524 140.194 46.73 140.554 46.833 140.959 46.833zM140.959 47.644C140.369 47.644 139.847 47.505 139.392 47.229 138.938 46.952 138.58 46.571 138.319 46.086 138.058 45.601 137.928 45.042 137.928 44.409 137.928 43.777 138.058 43.218 138.319 42.733 138.58 42.247 138.938 41.866 139.392 41.59 139.847 41.313 140.369 41.175 140.959 41.175 141.549 41.175 142.072 41.313 142.53 41.59 142.987 41.866 143.347 42.247 143.608 42.733 143.869 43.218 143.999 43.777 143.999 44.409 143.999 45.042 143.869 45.601 143.608 46.086 143.347 46.571 142.987 46.952 142.53 47.229 142.072 47.505 141.549 47.644 140.959 47.644zM146.238 44.234L147.519 44.234C147.918 44.234 148.236 44.136 148.473 43.94 148.709 43.743 148.827 43.479 148.827 43.147 148.827 42.815 148.709 42.552 148.473 42.354 148.236 42.158 147.918 42.06 147.519 42.06L146.238 42.06 146.238 44.234zM146.238 44.999L146.238 47.542 145.308 47.542 145.308 41.277 147.519 41.277C148.213 41.277 148.763 41.444 149.168 41.779 149.574 42.114 149.776 42.57 149.776 43.147 149.776 43.584 149.654 43.952 149.408 44.253 149.162 44.554 148.824 44.766 148.394 44.888L149.915 47.542 148.855 47.542 147.427 44.999 146.238 44.999z"/>
    <polyline fill="#404040" points="154.835 47.542 152.025 44.382 152.025 47.542 151.094 47.542 151.094 41.277 152.025 41.277 152.025 44.022 154.651 41.277 155.802 41.277 153.011 44.151 156.005 47.542 154.835 47.542"/>
    <path fill="#009BFF" class='no-color-change' d="M190.167,9.479 C188.877,9.479 187.774,9.022 186.859,8.106 C185.944,7.191 185.487,6.089 185.487,4.799 C185.487,3.509 185.944,2.407 186.859,1.491 C187.774,0.577 188.877,0.119 190.167,0.119 C191.457,0.119 192.559,0.577 193.474,1.491 C194.389,2.407 194.847,3.509 194.847,4.799 C194.847,6.089 194.389,7.191 193.474,8.106 C192.559,9.022 191.457,9.479 190.167,9.479"/>
  </g>
</svg>
