<svg xmlns="http://www.w3.org/2000/svg" xmlns:xlink="http://www.w3.org/1999/xlink" preserveAspectRatio="xMidYMid" width="171" height="25" viewBox="0 0 171 25">
  <path d="M166.558,22.594 L166.558,1.995 L170.818,1.995 L170.818,22.594 L166.558,22.594 ZM160.299,20.511 L160.241,20.511 C159.271,21.861 157.743,22.946 155.364,22.946 C150.017,22.946 148.048,18.721 148.048,15.229 C148.048,11.033 151.016,7.746 155.364,7.746 C157.743,7.746 159.271,8.832 160.241,10.182 L160.299,10.182 L160.299,8.098 L164.295,8.098 L164.295,22.594 L160.299,22.594 L160.299,20.511 ZM156.216,11.238 C153.719,11.238 152.367,13.146 152.367,15.346 C152.367,17.606 153.866,19.455 156.216,19.455 C158.595,19.455 160.094,17.606 160.094,15.346 C160.094,13.175 158.713,11.238 156.216,11.238 ZM142.613,14.701 C142.613,12.676 142.026,11.150 139.852,11.150 C137.678,11.150 136.738,12.647 136.738,14.730 L136.738,22.594 L132.478,22.594 L132.478,8.098 L136.473,8.098 L136.473,10.064 L136.532,10.064 C137.443,8.773 138.794,7.746 141.203,7.746 C145.052,7.746 146.844,10.211 146.844,14.055 L146.844,22.594 L142.613,22.594 L142.613,14.701 ZM129.775,11.473 C127.571,11.473 126.367,12.823 126.367,15.317 L126.367,22.594 L122.107,22.594 L122.107,8.098 L126.102,8.098 L126.102,10.328 L126.161,10.328 C126.954,8.802 128.188,7.746 130.157,7.746 C130.656,7.746 131.155,7.805 131.567,7.952 L131.567,11.767 C131.097,11.590 130.392,11.473 129.775,11.473 ZM115.849,20.628 L115.790,20.628 C114.909,21.861 113.763,22.946 111.266,22.946 C107.447,22.946 105.713,20.452 105.713,16.637 L105.713,8.098 L109.973,8.098 L109.973,15.963 C109.973,18.193 110.531,19.543 112.617,19.543 C114.791,19.543 115.614,18.017 115.614,15.933 L115.614,8.098 L119.845,8.098 L119.845,22.594 L115.849,22.594 L115.849,20.628 ZM96.459,22.946 C91.053,22.946 88.380,18.956 88.380,15.346 C88.380,11.737 91.053,7.746 96.459,7.746 C101.864,7.746 104.538,11.737 104.538,15.346 C104.538,18.956 101.864,22.946 96.459,22.946 ZM96.459,11.297 C94.314,11.297 92.610,12.881 92.610,15.346 C92.610,17.811 94.314,19.396 96.459,19.396 C98.603,19.396 100.307,17.811 100.307,15.346 C100.307,12.881 98.603,11.297 96.459,11.297 ZM80.858,23.005 C78.361,23.005 76.363,21.949 75.393,20.452 L77.832,17.665 C78.390,18.486 79.154,19.102 80.300,19.102 C81.886,19.102 82.444,18.076 82.444,16.667 L82.444,1.995 L86.910,1.995 L86.910,17.283 C86.910,20.775 84.560,23.005 80.858,23.005 ZM72.867,18.105 C72.867,21.068 70.252,22.946 66.580,22.946 C63.730,22.946 61.673,21.802 60.616,20.423 L62.643,17.987 C63.524,19.044 64.876,19.865 66.521,19.865 C67.873,19.865 68.725,19.337 68.725,18.398 C68.725,17.224 67.402,17.019 65.816,16.579 C63.554,15.933 61.380,14.818 61.380,12.236 C61.380,9.419 63.965,7.746 67.402,7.746 C70.076,7.746 71.721,8.744 72.602,9.624 L70.575,12.119 C69.900,11.385 68.783,10.828 67.461,10.828 C66.168,10.828 65.522,11.326 65.522,12.001 C65.522,12.970 66.844,13.175 68.137,13.556 C70.546,14.261 72.867,15.317 72.867,18.105 ZM51.861,22.594 L49.627,15.317 C49.393,14.525 48.981,12.793 48.952,12.148 L48.834,12.148 C48.805,12.793 48.394,14.525 48.159,15.317 L45.926,22.594 L41.607,22.594 L36.730,8.098 L41.108,8.098 L43.223,15.317 C43.399,15.904 43.840,17.841 43.928,18.545 L44.016,18.545 C44.104,17.811 44.545,15.963 44.721,15.346 L46.807,8.098 L51.096,8.098 L53.182,15.346 C53.359,15.963 53.799,17.811 53.888,18.545 L53.975,18.545 C54.063,17.841 54.504,15.904 54.681,15.317 L56.767,8.098 L61.056,8.098 L56.179,22.594 L51.861,22.594 ZM36.730,16.285 L25.625,16.285 C25.830,18.574 27.769,19.660 29.884,19.660 C31.824,19.660 33.087,18.838 33.821,17.811 L36.172,20.218 C34.967,21.832 32.764,22.946 29.679,22.946 C23.980,22.946 21.394,19.102 21.394,15.346 C21.394,11.972 23.451,7.746 29.180,7.746 C34.908,7.746 36.818,11.972 36.818,15.229 C36.818,15.611 36.788,15.992 36.730,16.285 ZM29.180,10.828 C27.476,10.828 26.036,11.796 25.625,13.791 L32.705,13.791 C32.294,11.796 30.883,10.828 29.180,10.828 ZM6.646,11.649 C5.911,10.769 4.707,9.067 4.383,8.480 L4.295,8.509 C4.383,9.155 4.413,11.209 4.413,12.324 L4.413,22.594 L0.182,22.594 L0.182,1.995 L4.060,1.995 L13.256,12.940 C13.990,13.820 15.224,15.523 15.518,16.109 L15.606,16.080 C15.518,15.434 15.489,13.381 15.489,12.265 L15.489,1.995 L19.719,1.995 L19.719,22.594 L15.871,22.594 L6.646,11.649 Z" class="cls-1"/>
</svg>
