<svg xmlns="http://www.w3.org/2000/svg" width="522" height="47" viewBox="0 0 522 47">
  <g fill="none" fill-rule="evenodd">
    <path fill="#404040" d="M1.218 43.574L2.377 43.574C2.758 43.574 3.059 43.48 3.281 43.292 3.503 43.105 3.613 42.849 3.613 42.526 3.613 42.201 3.503 41.946 3.281 41.758 3.059 41.571 2.758 41.477 2.377 41.477L1.218 41.477 1.218 43.574zM.357 46.549L.357 40.752 2.377 40.752C3.025 40.752 3.539 40.911 3.92 41.23 4.301 41.548 4.491 41.98 4.491 42.526 4.491 43.065 4.301 43.493 3.92 43.808 3.539 44.123 3.025 44.281 2.377 44.281L1.218 44.281 1.218 46.549.357 46.549zM6.23 44.367L8.344 44.367 7.288 41.647 6.23 44.367zM9.188 46.549L8.626 45.091 5.949 45.091 5.387 46.549 4.517 46.549 6.836 40.752 7.765 40.752 10.075 46.549 9.188 46.549zM11.899 43.489L13.084 43.489C13.453 43.489 13.747 43.398 13.966 43.216 14.185 43.034 14.294 42.79 14.294 42.483 14.294 42.176 14.185 41.931 13.966 41.749 13.747 41.568 13.453 41.477 13.084 41.477L11.899 41.477 11.899 43.489zM11.899 44.196L11.899 46.549 11.038 46.549 11.038 40.752 13.084 40.752C13.726 40.752 14.234 40.907 14.61 41.217 14.984 41.526 15.172 41.949 15.172 42.483 15.172 42.886 15.059 43.227 14.831 43.506 14.604 43.784 14.291 43.98 13.893 44.094L15.3 46.549 14.32 46.549 12.998 44.196 11.899 44.196z"/>
    <polyline fill="#404040" points="17.645 46.549 17.645 41.477 15.692 41.477 15.692 40.752 20.458 40.752 20.458 41.477 18.505 41.477 18.505 46.549 17.645 46.549"/>
    <path fill="#404040" d="M25.99,45.893 C26.365,45.893 26.699,45.798 26.991,45.607 C27.284,45.416 27.513,45.154 27.678,44.818 C27.842,44.483 27.925,44.094 27.925,43.651 C27.925,43.208 27.842,42.818 27.678,42.483 C27.513,42.147 27.284,41.885 26.991,41.695 C26.699,41.504 26.365,41.409 25.99,41.409 C25.615,41.409 25.282,41.504 24.992,41.695 C24.703,41.885 24.475,42.147 24.31,42.483 C24.145,42.818 24.063,43.208 24.063,43.651 C24.063,44.094 24.145,44.483 24.31,44.818 C24.475,45.154 24.703,45.416 24.992,45.607 C25.282,45.798 25.615,45.893 25.99,45.893 Z M25.99,46.643 C25.444,46.643 24.961,46.515 24.54,46.259 C24.12,46.003 23.789,45.651 23.547,45.202 C23.306,44.753 23.185,44.236 23.185,43.651 C23.185,43.065 23.306,42.548 23.547,42.099 C23.789,41.65 24.12,41.298 24.54,41.042 C24.961,40.786 25.444,40.659 25.99,40.659 C26.535,40.659 27.02,40.786 27.443,41.042 C27.866,41.298 28.199,41.65 28.44,42.099 C28.682,42.548 28.803,43.065 28.803,43.651 C28.803,44.236 28.682,44.753 28.44,45.202 C28.199,45.651 27.866,46.003 27.443,46.259 C27.02,46.515 26.535,46.643 25.99,46.643 Z"/>
    <polyline fill="#404040" points="30.874 46.549 30.013 46.549 30.013 40.752 33.619 40.752 33.619 41.477 30.874 41.477 30.874 43.437 33.201 43.437 33.201 44.162 30.874 44.162 30.874 46.549"/>
    <polyline fill="#404040" points="38.111 46.549 38.111 41.477 36.159 41.477 36.159 40.752 40.924 40.752 40.924 41.477 38.972 41.477 38.972 46.549 38.111 46.549"/>
    <polyline fill="#404040" points="41.913 46.549 41.913 40.752 42.774 40.752 42.774 43.233 45.766 43.233 45.766 40.752 46.627 40.752 46.627 46.549 45.766 46.549 45.766 43.975 42.774 43.975 42.774 46.549 41.913 46.549"/>
    <polyline fill="#404040" points="48.144 46.549 48.144 40.752 51.86 40.752 51.86 41.477 49.005 41.477 49.005 43.267 51.519 43.267 51.519 43.992 49.005 43.992 49.005 45.825 51.929 45.825 51.929 46.549 48.144 46.549"/>
    <path fill="#404040" d="M57.367 45.893C57.839 45.893 58.21 45.75 58.48 45.466 58.749 45.182 58.884 44.798 58.884 44.316L58.884 40.752 59.745 40.752 59.745 44.324C59.745 45.046 59.534 45.613 59.11 46.025 58.687 46.436 58.106 46.643 57.367 46.643 56.628 46.643 56.049 46.436 55.628 46.025 55.207 45.613 54.997 45.046 54.997 44.324L54.997 40.752 55.858 40.752 55.858 44.316C55.858 44.798 55.993 45.182 56.263 45.466 56.533 45.75 56.901 45.893 57.367 45.893M62.959 46.643C62.521 46.643 62.104 46.566 61.706 46.413 61.308 46.259 60.987 46.054 60.743 45.799L61.228 45.227C61.456 45.438 61.724 45.602 62.034 45.722 62.343 45.841 62.652 45.901 62.959 45.901 63.334 45.901 63.636 45.829 63.867 45.684 64.097 45.539 64.212 45.339 64.212 45.082 64.212 44.85 64.129 44.654 63.965 44.494 63.8 44.335 63.518 44.202 63.121 44.094L62.319 43.88C61.802 43.744 61.426 43.551 61.19 43.301 60.954 43.051 60.836 42.724 60.836 42.321 60.836 41.991 60.924 41.701 61.101 41.451 61.276 41.202 61.52 41.007 61.829 40.868 62.139 40.728 62.49 40.659 62.882 40.659 63.297 40.659 63.686 40.737 64.05 40.893 64.413 41.049 64.734 41.267 65.013 41.545L64.493 42.108C64.249 41.881 63.995 41.706 63.73 41.583 63.466 41.461 63.186 41.4 62.891 41.4 62.533 41.4 62.24 41.476 62.013 41.626 61.785 41.776 61.672 41.985 61.672 42.253 61.672 42.497 61.753 42.688 61.915 42.824 62.076 42.96 62.325 43.074 62.66 43.164L63.555 43.412C64.072 43.554 64.45 43.753 64.689 44.009 64.928 44.264 65.047 44.582 65.047 44.964 65.047 45.299 64.959 45.593 64.783 45.845 64.607 46.098 64.362 46.295 64.05 46.434 63.737 46.573 63.374 46.643 62.959 46.643M67.212 44.367L69.326 44.367 68.269 41.647 67.212 44.367zM70.17 46.549L69.608 45.091 66.931 45.091 66.369 46.549 65.499 46.549 67.818 40.752 68.747 40.752 71.057 46.549 70.17 46.549z"/>
    <polyline fill="#404040" points="75.063 46.549 75.063 41.477 73.111 41.477 73.111 40.752 77.876 40.752 77.876 41.477 75.924 41.477 75.924 46.549 75.063 46.549"/>
    <path fill="#404040" d="M80.979 45.893C81.354 45.893 81.688 45.798 81.981 45.607 82.273 45.416 82.502 45.154 82.667 44.818 82.832 44.483 82.914 44.094 82.914 43.651 82.914 43.208 82.832 42.818 82.667 42.483 82.502 42.147 82.273 41.885 81.981 41.695 81.688 41.504 81.354 41.409 80.979 41.409 80.604 41.409 80.272 41.504 79.982 41.695 79.692 41.885 79.465 42.147 79.3 42.483 79.135 42.818 79.053 43.208 79.053 43.651 79.053 44.094 79.135 44.483 79.3 44.818 79.465 45.154 79.692 45.416 79.982 45.607 80.272 45.798 80.604 45.893 80.979 45.893zM80.979 46.643C80.434 46.643 79.95 46.515 79.53 46.259 79.11 46.003 78.778 45.651 78.537 45.202 78.295 44.753 78.175 44.236 78.175 43.651 78.175 43.065 78.295 42.548 78.537 42.099 78.778 41.65 79.11 41.298 79.53 41.042 79.95 40.786 80.434 40.659 80.979 40.659 81.525 40.659 82.009 40.786 82.432 41.042 82.856 41.298 83.188 41.65 83.43 42.099 83.672 42.548 83.792 43.065 83.792 43.651 83.792 44.236 83.672 44.753 83.43 45.202 83.188 45.651 82.856 46.003 82.432 46.259 82.009 46.515 81.525 46.643 80.979 46.643zM85.863 45.825L87.04 45.825C87.449 45.825 87.8 45.735 88.093 45.556 88.385 45.377 88.609 45.125 88.766 44.801 88.922 44.478 89 44.094 89 43.651 89 43.208 88.922 42.824 88.766 42.5 88.609 42.176 88.385 41.924 88.093 41.745 87.8 41.566 87.449 41.477 87.04 41.477L85.863 41.477 85.863 45.825zM85.002 46.549L85.002 40.752 87.04 40.752C87.608 40.752 88.105 40.873 88.531 41.115 88.958 41.356 89.289 41.695 89.524 42.129 89.76 42.564 89.878 43.071 89.878 43.651 89.878 44.23 89.76 44.737 89.524 45.172 89.289 45.607 88.958 45.945 88.531 46.186 88.105 46.428 87.608 46.549 87.04 46.549L85.002 46.549zM92.078 44.367L94.191 44.367 93.135 41.647 92.078 44.367zM95.036 46.549L94.473 45.091 91.796 45.091 91.234 46.549 90.364 46.549 92.683 40.752 93.612 40.752 95.922 46.549 95.036 46.549z"/>
    <polyline fill="#404040" points="98.565 44.247 98.565 46.549 97.704 46.549 97.704 44.247 95.667 40.752 96.681 40.752 98.139 43.429 99.596 40.752 100.594 40.752 98.565 44.247"/>
    <polyline fill="#404040" points="107.481 46.549 104.387 42.108 104.387 46.549 103.577 46.549 103.577 40.752 104.378 40.752 107.481 45.193 107.481 40.752 108.282 40.752 108.282 46.549 107.481 46.549"/>
    <polyline fill="#404040" points="109.799 46.549 109.799 40.752 113.516 40.752 113.516 41.477 110.66 41.477 110.66 43.267 113.175 43.267 113.175 43.992 110.66 43.992 110.66 45.825 113.584 45.825 113.584 46.549 109.799 46.549"/>
    <polyline fill="#404040" points="116.142 46.549 116.142 41.477 114.19 41.477 114.19 40.752 118.955 40.752 118.955 41.477 117.002 41.477 117.002 46.549 116.142 46.549"/>
    <polyline fill="#404040" points="124.58 46.549 123.225 41.929 121.87 46.549 120.975 46.549 119.432 40.752 120.284 40.752 121.461 45.339 122.816 40.752 123.634 40.752 124.998 45.355 126.183 40.752 127.018 40.752 125.475 46.549 124.58 46.549"/>
    <path fill="#404040" d="M130.437 45.893C130.812 45.893 131.146 45.798 131.438 45.607 131.731 45.416 131.96 45.154 132.125 44.818 132.289 44.483 132.372 44.094 132.372 43.651 132.372 43.208 132.289 42.818 132.125 42.483 131.96 42.147 131.731 41.885 131.438 41.695 131.146 41.504 130.812 41.409 130.437 41.409 130.062 41.409 129.729 41.504 129.439 41.695 129.15 41.885 128.922 42.147 128.757 42.483 128.592 42.818 128.51 43.208 128.51 43.651 128.51 44.094 128.592 44.483 128.757 44.818 128.922 45.154 129.15 45.416 129.439 45.607 129.729 45.798 130.062 45.893 130.437 45.893zM130.437 46.643C129.891 46.643 129.408 46.515 128.988 46.259 128.567 46.003 128.236 45.651 127.995 45.202 127.753 44.753 127.632 44.236 127.632 43.651 127.632 43.065 127.753 42.548 127.995 42.099 128.236 41.65 128.567 41.298 128.988 41.042 129.408 40.786 129.891 40.659 130.437 40.659 130.982 40.659 131.467 40.786 131.89 41.042 132.314 41.298 132.646 41.65 132.887 42.099 133.129 42.548 133.25 43.065 133.25 43.651 133.25 44.236 133.129 44.753 132.887 45.202 132.646 45.651 132.314 46.003 131.89 46.259 131.467 46.515 130.982 46.643 130.437 46.643zM135.321 43.489L136.506 43.489C136.876 43.489 137.17 43.398 137.388 43.216 137.607 43.034 137.716 42.79 137.716 42.483 137.716 42.176 137.607 41.931 137.388 41.749 137.17 41.568 136.876 41.477 136.506 41.477L135.321 41.477 135.321 43.489zM135.321 44.196L135.321 46.549 134.46 46.549 134.46 40.752 136.506 40.752C137.148 40.752 137.657 40.907 138.032 41.217 138.407 41.526 138.594 41.949 138.594 42.483 138.594 42.886 138.481 43.227 138.254 43.506 138.026 43.784 137.714 43.98 137.316 44.094L138.723 46.549 137.742 46.549 136.421 44.196 135.321 44.196z"/>
    <polyline fill="#404040" points="143.274 46.549 140.674 43.625 140.674 46.549 139.813 46.549 139.813 40.752 140.674 40.752 140.674 43.292 143.104 40.752 144.17 40.752 141.586 43.412 144.357 46.549 143.274 46.549"/>
    <polyline fill="#404040" points="14.397 31.255 7.422 15.1 7.422 34.09 .357 34.09 .357 3.49 9.717 3.49 17.727 22.615 25.512 3.49 34.872 3.49 34.872 34.09 27.897 34.09 27.897 14.875 20.832 31.255 14.397 31.255"/>
    <path fill="#404040" d="M47.157 26.665C47.157 27.355 47.411 27.918 47.922 28.352 48.432 28.788 49.092 29.005 49.902 29.005 50.982 29.005 51.889 28.637 52.624 27.902 53.359 27.168 53.727 26.245 53.727 25.134L53.727 24.37C52.917 24.22 52.062 24.145 51.162 24.145 50.021 24.145 49.069 24.34 48.304 24.73 47.539 25.12 47.157 25.765 47.157 26.665zM54.042 34.09L53.637 31.075C52.136 33.475 49.857 34.674 46.797 34.674 45.447 34.674 44.224 34.382 43.129 33.798 42.034 33.213 41.164 32.41 40.519 31.39 39.874 30.37 39.552 29.185 39.552 27.835 39.552 25.285 40.549 23.305 42.544 21.895 44.539 20.485 47.172 19.78 50.442 19.78 51.461 19.78 52.541 19.87 53.682 20.049 53.561 18.91 53.074 18.048 52.219 17.463 51.364 16.878 50.321 16.585 49.092 16.585 48.012 16.585 46.924 16.787 45.829 17.192 44.734 17.597 43.692 18.085 42.702 18.655L40.047 13.615C41.547 12.655 43.166 11.913 44.907 11.387 46.646 10.863 48.386 10.6 50.127 10.6 52.226 10.6 54.116 10.96 55.797 11.68 57.476 12.4 58.796 13.495 59.757 14.965 60.716 16.435 61.197 18.295 61.197 20.545L61.197 34.09 54.042 34.09zM74.022 21.445L74.022 34.09 66.192 34.09 66.192 11.185 73.347 11.185 73.752 14.2C74.501 13.12 75.476 12.25 76.677 11.59 77.876 10.93 79.197 10.6 80.637 10.6 83.126 10.6 85.121 11.41 86.622 13.03 88.121 14.65 88.872 16.975 88.872 20.005L88.872 34.09 81.042 34.09 81.042 20.905C81.042 19.555 80.741 18.558 80.142 17.912 79.541 17.267 78.701 16.945 77.622 16.945 76.542 16.945 75.671 17.29 75.012 17.98 74.351 18.671 74.022 19.825 74.022 21.445M102.461 34.674C100.481 34.674 98.628 34.36 96.903 33.73 95.178 33.1 93.626 32.2 92.246 31.03L95.576 26.62C96.626 27.46 97.759 28.143 98.973 28.667 100.189 29.193 101.381 29.455 102.551 29.455 103.331 29.455 103.953 29.32 104.419 29.049 104.883 28.78 105.116 28.375 105.116 27.835 105.116 27.265 104.853 26.807 104.328 26.463 103.803 26.118 102.866 25.78 101.516 25.45L99.356 24.91C95.065 23.77 92.921 21.475 92.921 18.025 92.921 16.495 93.341 15.175 94.181 14.065 95.021 12.955 96.176 12.1 97.646 11.5 99.116 10.9 100.826 10.6 102.776 10.6 104.696 10.6 106.503 10.9 108.199 11.5 109.893 12.1 111.446 12.97 112.856 14.11L109.436 18.61C108.386 17.77 107.276 17.095 106.106 16.585 104.936 16.075 103.841 15.82 102.821 15.82 101.171 15.82 100.346 16.36 100.346 17.44 100.346 17.92 100.594 18.31 101.088 18.61 101.584 18.91 102.281 19.18 103.181 19.42L106.106 20.23C108.295 20.83 109.916 21.73 110.966 22.93 112.016 24.13 112.541 25.555 112.541 27.205 112.541 28.705 112.12 30.017 111.281 31.142 110.441 32.267 109.263 33.137 107.749 33.753 106.233 34.367 104.471 34.674 102.461 34.674M132.476 17.035L126.491 17.035 126.491 34.09 118.661 34.09 118.661 17.035 114.926 17.035 114.926 11.185 118.661 11.185 118.661 9.52C118.661 6.881 119.441 4.75 121.001 3.13 122.56 1.509 124.765.7 127.616.7 128.696.7 129.791.835 130.901 1.105 132.01 1.375 133.18 1.9 134.411 2.68L131.756 7.495C131.396 7.285 130.991 7.105 130.541 6.955 130.091 6.805 129.596 6.73 129.056 6.73 128.336 6.73 127.728 6.955 127.233 7.405 126.738 7.855 126.491 8.56 126.491 9.52L126.491 11.185 132.476 11.185 132.476 17.035M136.795 34.09L136.795 11.185C138.055 11.455 139.33 11.59 140.62 11.59 141.94 11.59 143.275 11.455 144.625 11.185L144.625 34.09 136.795 34.09M160.96 16.27C158.409 16.27 156.879 17.62 156.37 20.32L165.1 20.32C164.889 18.85 164.387 17.807 163.592 17.192 162.797 16.578 161.919 16.27 160.96 16.27zM171.67 31.75C170.529 32.56 169.082 33.25 167.327 33.82 165.572 34.389 163.705 34.674 161.725 34.674 158.994 34.674 156.662 34.172 154.727 33.167 152.792 32.163 151.307 30.759 150.272 28.96 149.237 27.16 148.72 25.09 148.72 22.75 148.72 20.381 149.23 18.28 150.25 16.45 151.269 14.62 152.68 13.187 154.48 12.152 156.28 11.117 158.379 10.6 160.78 10.6 163.12 10.6 165.182 11.102 166.967 12.107 168.752 13.113 170.147 14.507 171.152 16.292 172.157 18.078 172.66 20.17 172.66 22.57 172.66 22.9 172.637 23.245 172.592 23.605 172.547 23.965 172.494 24.34 172.435 24.73L156.46 24.73C157.18 27.37 159.144 28.69 162.355 28.69 163.795 28.69 165.069 28.465 166.18 28.015 167.289 27.565 168.22 27.115 168.97 26.665L171.67 31.75z"/>
    <polygon fill="#404040" points="176.665 34.09 184.494 34.09 184.494 1.24 176.665 1.24"/>
    <path fill="#404040" d="M201.099,28.465 C202.449,28.465 203.536,27.932 204.362,26.867 C205.186,25.802 205.599,24.385 205.599,22.615 C205.599,20.845 205.186,19.427 204.362,18.362 C203.536,17.298 202.449,16.765 201.099,16.765 C199.719,16.765 198.616,17.298 197.792,18.362 C196.966,19.427 196.554,20.845 196.554,22.615 C196.554,24.385 196.966,25.802 197.792,26.867 C198.616,27.932 199.719,28.465 201.099,28.465 Z M206.139,34.09 L205.734,31.075 C205.014,32.185 204.084,33.062 202.944,33.707 C201.804,34.352 200.484,34.674 198.984,34.674 C196.914,34.674 195.099,34.164 193.539,33.145 C191.979,32.125 190.764,30.708 189.894,28.892 C189.023,27.078 188.589,24.985 188.589,22.615 C188.589,20.245 189.023,18.16 189.894,16.36 C190.764,14.56 191.956,13.15 193.471,12.13 C194.986,11.11 196.734,10.6 198.714,10.6 C200.094,10.6 201.369,10.892 202.539,11.477 C203.709,12.062 204.684,12.85 205.464,13.84 L205.464,1.24 L213.294,1.24 L213.294,34.09 L206.139,34.09 Z"/>
    <polyline fill="#009BFF" class='no-color-change' points="249.924 34.09 237.909 16.45 237.909 34.09 230.214 34.09 230.214 3.49 237.864 3.49 249.834 21.445 249.834 3.49 257.574 3.49 257.574 34.09 249.924 34.09"/>
    <path fill="#009BFF" class='no-color-change' d="M274.539,16.27 C271.988,16.27 270.458,17.62 269.949,20.32 L278.679,20.32 C278.468,18.85 277.966,17.807 277.171,17.192 C276.376,16.578 275.498,16.27 274.539,16.27 Z M285.249,31.75 C284.108,32.56 282.661,33.25 280.906,33.82 C279.151,34.389 277.284,34.674 275.304,34.674 C272.573,34.674 270.241,34.172 268.306,33.167 C266.371,32.163 264.886,30.759 263.851,28.96 C262.816,27.16 262.299,25.09 262.299,22.75 C262.299,20.381 262.808,18.28 263.828,16.45 C264.848,14.62 266.259,13.187 268.059,12.152 C269.858,11.117 271.958,10.6 274.358,10.6 C276.699,10.6 278.761,11.102 280.546,12.107 C282.331,13.113 283.726,14.507 284.731,16.292 C285.736,18.078 286.239,20.17 286.239,22.57 C286.239,22.9 286.216,23.245 286.171,23.605 C286.126,23.965 286.073,24.34 286.013,24.73 L270.039,24.73 C270.759,27.37 272.723,28.69 275.934,28.69 C277.374,28.69 278.648,28.465 279.759,28.015 C280.868,27.565 281.798,27.115 282.549,26.665 L285.249,31.75 Z"/>
    <polyline fill="#009BFF" class='no-color-change' points="309.548 34.09 305.858 20.185 302.213 34.09 294.113 34.09 288.173 11.185 296.183 11.185 298.568 25.945 302.438 11.185 309.323 11.185 313.328 25.99 315.758 11.185 323.588 11.185 317.648 34.09 309.548 34.09"/>
    <path fill="#009BFF" class='no-color-change' d="M335.513 34.674C333.533 34.674 331.68 34.36 329.955 33.73 328.229 33.1 326.677 32.2 325.297 31.03L328.627 26.62C329.677 27.46 330.81 28.143 332.025 28.667 333.24 29.193 334.432 29.455 335.602 29.455 336.382 29.455 337.004 29.32 337.47 29.049 337.935 28.78 338.167 28.375 338.167 27.835 338.167 27.265 337.905 26.807 337.38 26.463 336.855 26.118 335.917 25.78 334.567 25.45L332.408 24.91C328.117 23.77 325.972 21.475 325.972 18.025 325.972 16.495 326.392 15.175 327.232 14.065 328.072 12.955 329.227 12.1 330.698 11.5 332.167 10.9 333.877 10.6 335.827 10.6 337.747 10.6 339.555 10.9 341.25 11.5 342.945 12.1 344.497 12.97 345.908 14.11L342.488 18.61C341.437 17.77 340.327 17.095 339.158 16.585 337.988 16.075 336.892 15.82 335.872 15.82 334.222 15.82 333.397 16.36 333.397 17.44 333.397 17.92 333.645 18.31 334.14 18.61 334.635 18.91 335.332 19.18 336.232 19.42L339.158 20.23C341.347 20.83 342.967 21.73 344.017 22.93 345.067 24.13 345.593 25.555 345.593 27.205 345.593 28.705 345.172 30.017 344.332 31.142 343.492 32.267 342.314 33.137 340.8 33.753 339.284 34.367 337.522 34.674 335.513 34.674M368.632 34.674C363.502 34.674 359.931 32.485 357.922 28.105L364.582 24.91C365.061 25.9 365.587 26.62 366.157 27.07 366.726 27.52 367.446 27.745 368.317 27.745 369.367 27.745 370.169 27.467 370.724 26.912 371.279 26.358 371.557 25.465 371.557 24.235L371.557 3.49 379.927 3.49 379.927 24.009C379.927 26.23 379.461 28.135 378.532 29.725 377.601 31.315 376.289 32.537 374.595 33.392 372.899 34.247 370.911 34.674 368.632 34.674M396.667 28.465C398.046 28.465 399.149 27.932 399.974 26.867 400.799 25.802 401.212 24.385 401.212 22.615 401.212 20.845 400.799 19.435 399.974 18.384 399.149 17.335 398.046 16.81 396.667 16.81 395.286 16.81 394.184 17.335 393.359 18.384 392.534 19.435 392.121 20.845 392.121 22.615 392.121 24.385 392.534 25.802 393.359 26.867 394.184 27.932 395.286 28.465 396.667 28.465zM396.667 34.674C394.206 34.674 392.038 34.157 390.164 33.122 388.289 32.088 386.819 30.67 385.754 28.87 384.689 27.07 384.157 24.985 384.157 22.615 384.157 20.245 384.689 18.16 385.754 16.36 386.819 14.56 388.289 13.15 390.164 12.13 392.038 11.11 394.206 10.6 396.667 10.6 399.126 10.6 401.294 11.11 403.169 12.13 405.044 13.15 406.514 14.56 407.579 16.36 408.643 18.16 409.177 20.245 409.177 22.615 409.177 24.985 408.643 27.07 407.579 28.87 406.514 30.67 405.044 32.088 403.169 33.122 401.294 34.157 399.126 34.674 396.667 34.674zM428.391 34.09L427.987 31.075C427.236 32.185 426.254 33.062 425.039 33.707 423.824 34.352 422.512 34.674 421.101 34.674 418.431 34.674 416.391 33.887 414.982 32.312 413.571 30.737 412.867 28.465 412.867 25.495L412.867 11.185 420.697 11.185 420.697 24.595C420.697 27.085 421.836 28.33 424.117 28.33 426.516 28.33 427.717 26.83 427.717 23.83L427.717 11.185 435.547 11.185 435.547 34.09 428.391 34.09M448.866 25.225L448.866 34.09 441.036 34.09 441.036 11.185 448.191 11.185 448.686 15.009C449.166 13.78 449.953 12.782 451.049 12.017 452.143 11.253 453.411 10.87 454.851 10.87 455.661 10.87 456.275 10.975 456.696 11.185L456.696 18.34C456.366 18.22 455.999 18.131 455.594 18.07 455.188 18.01 454.731 17.98 454.221 17.98 452.661 17.98 451.379 18.558 450.374 19.713 449.368 20.868 448.866 22.705 448.866 25.225M468.306 21.445L468.306 34.09 460.476 34.09 460.476 11.185 467.631 11.185 468.036 14.2C468.785 13.12 469.761 12.25 470.961 11.59 472.16 10.93 473.481 10.6 474.921 10.6 477.41 10.6 479.405 11.41 480.906 13.03 482.406 14.65 483.156 16.975 483.156 20.005L483.156 34.09 475.326 34.09 475.326 20.905C475.326 19.555 475.026 18.558 474.426 17.912 473.826 17.267 472.986 16.945 471.906 16.945 470.826 16.945 469.955 17.29 469.296 17.98 468.636 18.671 468.306 19.825 468.306 21.445M494.406 26.665C494.406 27.355 494.66 27.918 495.17 28.352 495.68 28.788 496.341 29.005 497.15 29.005 498.23 29.005 499.138 28.637 499.873 27.902 500.608 27.168 500.975 26.245 500.975 25.134L500.975 24.37C500.165 24.22 499.31 24.145 498.41 24.145 497.27 24.145 496.318 24.34 495.553 24.73 494.788 25.12 494.406 25.765 494.406 26.665zM501.29 34.09L500.886 31.075C499.385 33.475 497.105 34.674 494.045 34.674 492.696 34.674 491.472 34.382 490.378 33.798 489.283 33.213 488.413 32.41 487.768 31.39 487.122 30.37 486.801 29.185 486.801 27.835 486.801 25.285 487.798 23.305 489.793 21.895 491.788 20.485 494.42 19.78 497.69 19.78 498.71 19.78 499.79 19.87 500.93 20.049 500.81 18.91 500.323 18.048 499.468 17.463 498.613 16.878 497.57 16.585 496.341 16.585 495.261 16.585 494.173 16.787 493.078 17.192 491.982 17.597 490.94 18.085 489.951 18.655L487.295 13.615C488.795 12.655 490.415 11.913 492.156 11.387 493.895 10.863 495.635 10.6 497.375 10.6 499.475 10.6 501.365 10.96 503.045 11.68 504.725 12.4 506.045 13.495 507.005 14.965 507.965 16.435 508.446 18.295 508.446 20.545L508.446 34.09 501.29 34.09z"/>
    <polygon fill="#009BFF" class='no-color-change' points="513.44 34.09 521.27 34.09 521.27 1.24 513.44 1.24"/>
    <path fill="#009BFF" class='no-color-change' d="M140.624,9.37 C139.334,9.37 138.231,8.912 137.317,7.997 C136.401,7.082 135.944,5.98 135.944,4.69 C135.944,3.4 136.401,2.298 137.317,1.382 C138.231,0.468 139.334,0.01 140.624,0.01 C141.914,0.01 143.016,0.468 143.932,1.382 C144.846,2.298 145.304,3.4 145.304,4.69 C145.304,5.98 144.846,7.082 143.932,7.997 C143.016,8.912 141.914,9.37 140.624,9.37"/>
  </g>
</svg>
