<svg xmlns="http://www.w3.org/2000/svg" width="615" height="104" viewBox="0 0 615 104">
  <g fill="none" fill-rule="evenodd" transform="translate(0 -31)">
    <path fill="#424F52" d="M576.942,76.479 C576.942,66.676 577.679,64.249 589.172,64.249 C600.03,64.249 601.717,65.094 601.717,76.479 L576.942,76.479 L576.942,76.479 Z M601.717,92.505 C601.717,100.727 596.552,100.622 589.172,100.622 C577.259,100.622 576.942,96.827 576.942,84.914 L615,84.914 C615,60.771 611.942,54.129 589.172,54.129 C566.821,54.129 563.659,62.774 563.659,82.594 C563.659,103.995 567.981,110.743 589.172,110.743 C604.985,110.743 615,109.9 615,92.505 L601.717,92.505 L601.717,92.505 Z M540.361,110.112 L553.644,110.112 L553.644,31.043 L540.361,31.043 L540.361,110.112 Z M515.375,112.745 C515.375,122.235 512.95,124.553 501.67,124.553 C494.185,124.553 491.339,123.393 491.339,115.803 L478.899,115.803 C478.054,132.355 488.177,134.673 501.67,134.673 C521.91,134.673 528.236,129.93 528.236,110.005 L528.236,54.762 L514.953,54.762 L515.48,63.091 L515.058,63.091 C511.685,55.816 505.57,54.129 497.77,54.129 C477.212,54.129 476.579,67.097 476.579,84.07 C476.579,100.305 478.794,110.743 497.77,110.743 C504.515,110.743 511.58,109.477 515.058,102.204 L515.375,102.204 L515.375,112.745 L515.375,112.745 Z M501.67,64.249 C513.16,64.249 514.953,68.994 514.953,80.802 C514.953,93.98 514.953,100.622 501.67,100.622 C489.864,100.622 489.864,93.347 489.864,80.802 C489.864,66.886 492.497,64.249 501.67,64.249 L501.67,64.249 Z M453.281,110.11 L466.564,110.11 L466.564,75.425 C466.564,56.871 459.184,54.129 441.473,54.129 C428.823,54.129 417.753,54.762 417.753,70.892 L431.036,70.892 C431.036,63.724 435.676,63.196 441.473,63.196 C452.543,63.196 453.281,66.359 453.281,75.319 L453.281,82.489 L452.859,82.489 C449.696,76.269 443.054,76.164 436.308,76.164 C422.603,76.164 415.645,79.854 415.645,93.137 C415.645,108.107 423.763,110.743 436.308,110.743 C442.738,110.743 450.856,110.53 453.491,103.152 L453.807,103.152 L453.281,110.11 L453.281,110.11 Z M441.051,85.23 C447.588,85.23 453.281,85.442 453.281,93.137 C453.281,101.043 448.114,101.677 441.051,101.677 C432.091,101.677 428.928,100.938 428.928,93.137 C428.928,85.23 434.305,85.23 441.051,85.23 L441.051,85.23 Z M369.786,76.479 C369.786,66.676 370.524,64.249 382.014,64.249 C392.874,64.249 394.562,65.094 394.562,76.479 L369.786,76.479 L369.786,76.479 Z M394.562,92.505 C394.562,100.727 389.394,100.622 382.014,100.622 C370.103,100.622 369.786,96.827 369.786,84.914 L407.845,84.914 C407.845,60.771 404.787,54.129 382.014,54.129 C359.664,54.129 356.502,62.774 356.502,82.594 C356.502,103.995 360.826,110.743 382.014,110.743 C397.829,110.743 407.845,109.9 407.845,92.505 L394.562,92.505 L394.562,92.505 Z M288.254,64.249 C300.061,64.249 301.009,67.624 301.009,82.594 C301.009,97.353 300.061,100.622 288.254,100.622 C276.446,100.622 275.496,97.353 275.496,82.594 C275.496,67.624 276.446,64.249 288.254,64.249 L288.254,64.249 Z M288.254,54.129 C265.166,54.129 262.213,60.984 262.213,82.489 C262.213,103.89 265.166,110.743 288.254,110.743 C311.342,110.743 314.292,103.89 314.292,82.489 C314.292,60.984 311.342,54.129 288.254,54.129 L288.254,54.129 Z M242.078,89.027 C242.078,98.725 241.023,100.622 230.165,100.622 C218.464,100.622 218.674,96.3 218.674,82.489 C218.674,68.257 218.78,64.249 230.165,64.249 C239.443,64.249 242.078,65.727 242.078,74.161 L255.361,74.161 C255.361,56.659 246.611,54.129 230.165,54.129 C208.449,54.129 205.392,63.091 205.392,82.489 C205.392,104.838 209.819,110.743 230.165,110.743 C248.825,110.743 255.361,107.158 255.361,89.027 L242.078,89.027 L242.078,89.027 Z M156.686,54.762 L156.686,110.11 L169.97,110.11 L169.97,75.954 C169.758,68.784 172.078,64.249 179.986,64.249 C186.206,64.249 186.733,67.519 186.733,73.107 L186.733,75.954 L199.171,75.954 L199.171,71.524 C199.171,61.089 196.324,54.129 184.623,54.129 C178.193,54.129 172.5,55.922 169.863,62.037 L169.338,62.037 L169.653,54.762 L156.686,54.762 L156.686,54.762 Z M132.227,110.11 L145.51,110.11 L145.51,75.425 C145.51,56.871 138.132,54.129 120.422,54.129 C107.771,54.129 96.701,54.762 96.701,70.892 L109.984,70.892 C109.984,63.724 114.624,63.196 120.422,63.196 C131.49,63.196 132.227,66.359 132.227,75.319 L132.227,82.489 L131.807,82.489 C128.644,76.269 122.002,76.164 115.256,76.164 C101.551,76.164 94.593,79.854 94.593,93.137 C94.593,108.107 102.711,110.743 115.256,110.743 C121.685,110.743 129.802,110.53 132.439,103.152 L132.755,103.152 L132.227,110.11 L132.227,110.11 Z M119.999,85.23 C126.535,85.23 132.227,85.442 132.227,93.137 C132.227,101.043 127.062,101.677 119.999,101.677 C111.039,101.677 107.876,100.938 107.876,93.137 C107.876,85.23 113.254,85.23 119.999,85.23 L119.999,85.23 Z M0.344,54.762 L0.344,110.11 L13.627,110.11 L13.627,78.904 C13.627,69.099 15.735,64.249 26.489,64.249 C33.762,64.249 35.45,66.992 35.765,73.949 L35.765,110.11 L49.05,110.11 L49.05,78.904 C49.05,69.099 51.158,64.249 61.911,64.249 C69.185,64.249 70.873,66.992 71.188,73.949 L71.188,110.11 L84.471,110.11 L84.471,72.684 C84.471,59.084 79.728,54.129 65.39,54.129 C58.01,54.129 50.42,56.239 47.89,63.934 L47.468,63.934 C45.992,55.922 37.98,54.129 31.022,54.129 C24.064,54.129 16.579,55.711 13.627,62.774 L13.205,62.774 L13.205,54.762 L0.344,54.762 L0.344,54.762 Z"/>
    <path fill="#3A3B39" d="M2.749 125.93C3.939 125.93 4.577 125.266 4.577 124.264 4.577 123.273 3.939 122.597 2.749 122.597L1.583 122.597 1.583 125.93 2.749 125.93 2.749 125.93zM.344 121.557L2.874 121.557C4.652 121.557 5.843 122.622 5.843 124.264 5.843 125.905 4.628 126.968 2.874 126.968L1.583 126.968 1.583 130.35.344 130.35.344 121.557.344 121.557zM11.447 127.006L10.608 124.84C10.483 124.513 9.944 123.16 9.932 123.047L9.907 123.047C9.895 123.16 9.369 124.475 9.23 124.84L8.379 127.006 11.447 127.006 11.447 127.006zM9.381 121.557L10.483 121.557 14.091 130.35 12.762 130.35 11.861 128.047 7.966 128.047 7.064 130.35 5.761 130.35C5.761 130.35 8.942 122.636 9.381 121.557L9.381 121.557zM17.754 125.754C18.906 125.754 19.558 125.139 19.558 124.176 19.558 123.212 18.906 122.597 17.754 122.597L16.589 122.597 16.589 125.754 17.754 125.754 17.754 125.754zM15.349 121.557L17.891 121.557C19.532 121.557 20.81 122.411 20.81 124.162 20.81 125.529 19.908 126.43 18.58 126.644L21.274 130.35 19.82 130.35 17.278 126.767 16.589 126.767 16.589 130.35 15.349 130.35 15.349 121.557 15.349 121.557z"/>
    <polyline fill="#3A3B39" points="24.248 122.622 21.743 122.622 21.743 121.557 27.992 121.557 27.992 122.622 25.487 122.622 25.487 130.35 24.248 130.35 24.248 122.622"/>
    <path fill="#3A3B39" d="M39.172,125.955 C39.172,123.912 37.757,122.498 35.816,122.498 C33.9,122.498 32.471,123.912 32.471,125.955 C32.471,127.997 33.9,129.411 35.816,129.411 C37.757,129.411 39.172,127.997 39.172,125.955 L39.172,125.955 Z M31.207,125.955 C31.207,123.487 32.997,121.384 35.829,121.384 C38.659,121.384 40.45,123.487 40.45,125.955 C40.45,128.423 38.659,130.525 35.829,130.525 C32.997,130.525 31.207,128.423 31.207,125.955 L31.207,125.955 Z"/>
    <polyline fill="#3A3B39" points="42.235 121.557 46.668 121.557 46.668 122.622 43.474 122.622 43.474 125.452 46.568 125.452 46.568 126.517 43.474 126.517 43.474 130.35 42.235 130.35 42.235 121.557"/>
    <polyline fill="#3A3B39" points="52.275 122.622 49.77 122.622 49.77 121.557 56.02 121.557 56.02 122.622 53.515 122.622 53.515 130.35 52.275 130.35 52.275 122.622"/>
    <polyline fill="#3A3B39" points="57.321 121.557 58.561 121.557 58.561 125.164 63.17 125.164 63.17 121.557 64.411 121.557 64.411 130.35 63.17 130.35 63.17 126.229 58.561 126.229 58.561 130.35 57.321 130.35 57.321 121.557"/>
    <polyline fill="#3A3B39" points="66.695 121.557 71.48 121.557 71.48 122.611 67.934 122.611 67.934 125.164 71.378 125.164 71.378 126.218 67.934 126.218 67.934 129.298 71.554 129.298 71.554 130.35 66.695 130.35 66.695 121.557"/>
    <path fill="#3A3B39" d="M75.71 127.319L75.71 121.557 76.962 121.557 76.962 126.943C76.962 128.472 77.614 129.411 79.079 129.411 80.557 129.411 81.209 128.472 81.209 126.943L81.209 121.557 82.461 121.557 82.461 127.319C82.461 129.249 81.221 130.525 79.079 130.525 76.925 130.525 75.71 129.249 75.71 127.319M83.755 128.76L84.595 128.047C85.021 128.747 85.697 129.436 86.799 129.436 87.763 129.436 88.515 128.911 88.515 127.945 88.515 126.907 87.651 126.556 86.573 126.13 85.471 125.691 84.356 125.139 84.356 123.737 84.356 122.347 85.434 121.384 87.012 121.384 88.264 121.384 89.09 121.958 89.593 122.71L88.753 123.424C88.415 122.899 87.851 122.471 87.012 122.471 86.16 122.471 85.597 122.91 85.597 123.649 85.597 124.563 86.473 124.865 87.237 125.164 88.477 125.653 89.755 126.243 89.755 127.857 89.755 129.386 88.628 130.525 86.824 130.525 85.321 130.525 84.319 129.738 83.755 128.76M96.102 127.006L95.263 124.84C95.138 124.513 94.599 123.16 94.586 123.047L94.562 123.047C94.549 123.16 94.024 124.475 93.885 124.84L93.034 127.006 96.102 127.006 96.102 127.006zM94.036 121.557L95.138 121.557 98.745 130.35 97.417 130.35 96.516 128.047 92.621 128.047 91.719 130.35 90.416 130.35C90.416 130.35 93.597 122.636 94.036 121.557L94.036 121.557z"/>
    <polyline fill="#3A3B39" points="103.979 122.622 101.474 122.622 101.474 121.557 107.724 121.557 107.724 122.622 105.219 122.622 105.219 130.35 103.979 130.35 103.979 122.622"/>
    <path fill="#3A3B39" d="M116.154 125.955C116.154 123.912 114.739 122.498 112.798 122.498 110.882 122.498 109.453 123.912 109.453 125.955 109.453 127.997 110.882 129.411 112.798 129.411 114.739 129.411 116.154 127.997 116.154 125.955L116.154 125.955zM108.189 125.955C108.189 123.487 109.979 121.384 112.811 121.384 115.641 121.384 117.432 123.487 117.432 125.955 117.432 128.423 115.641 130.525 112.811 130.525 109.979 130.525 108.189 128.423 108.189 125.955L108.189 125.955zM120.456 129.285L121.609 129.285C123.662 129.285 125.09 128.198 125.09 125.955 125.09 123.712 123.662 122.622 121.609 122.622L120.456 122.622 120.456 129.285 120.456 129.285zM119.217 121.557L121.709 121.557C124.515 121.557 126.368 123.16 126.368 125.955 126.368 128.736 124.501 130.35 121.709 130.35L119.217 130.35 119.217 121.557 119.217 121.557zM132.462 127.006L131.624 124.84C131.499 124.513 130.959 123.16 130.947 123.047L130.922 123.047C130.91 123.16 130.384 124.475 130.246 124.84L129.395 127.006 132.462 127.006 132.462 127.006zM130.397 121.557L131.499 121.557 135.106 130.35 133.777 130.35 132.877 128.047 128.981 128.047 128.08 130.35 126.777 130.35C126.777 130.35 129.957 122.636 130.397 121.557L130.397 121.557zM137.582 126.767L134.588 121.557 135.979 121.557 137.607 124.489C137.682 124.626 138.208 125.592 138.233 125.741L138.245 125.741C138.271 125.592 138.797 124.626 138.872 124.489L140.513 121.557 141.865 121.557 138.872 126.767 138.872 130.35 137.582 130.35 137.582 126.767M145.508 121.557L146.459 121.557 151.444 127.256C151.594 127.421 152.246 128.233 152.309 128.359L152.334 128.346C152.309 128.222 152.309 127.206 152.309 126.981L152.309 121.557 153.511 121.557 153.511 130.35 152.546 130.35 147.561 124.651C147.411 124.489 146.76 123.673 146.698 123.55L146.685 123.561C146.698 123.687 146.71 124.703 146.71 124.928L146.71 130.35 145.508 130.35 145.508 121.557"/>
    <polyline fill="#3A3B39" points="155.795 121.557 160.579 121.557 160.579 122.611 157.035 122.611 157.035 125.164 160.48 125.164 160.48 126.218 157.035 126.218 157.035 129.298 160.654 129.298 160.654 130.35 155.795 130.35 155.795 121.557"/>
    <polyline fill="#3A3B39" points="164.458 122.622 161.953 122.622 161.953 121.557 168.202 121.557 168.202 122.622 165.697 122.622 165.697 130.35 164.458 130.35 164.458 122.622"/>
    <path fill="#3A3B39" d="M169.236 121.557L170.551 121.557 172.355 126.781C172.418 126.981 172.843 128.283 172.856 128.483L172.882 128.483C172.894 128.283 173.332 126.981 173.408 126.781L175.287 121.557 176.276 121.557 178.154 126.781C178.229 126.981 178.667 128.283 178.681 128.483L178.706 128.483C178.731 128.283 179.156 126.981 179.219 126.781L181.01 121.557 182.275 121.557 179.181 130.35 178.229 130.35 176.201 124.865C176.138 124.675 175.788 123.638 175.774 123.437L175.749 123.437C175.737 123.638 175.373 124.675 175.311 124.865L173.295 130.35 172.342 130.35 169.236 121.557M190.794 125.955C190.794 123.912 189.379 122.498 187.438 122.498 185.522 122.498 184.093 123.912 184.093 125.955 184.093 127.997 185.522 129.411 187.438 129.411 189.379 129.411 190.794 127.997 190.794 125.955L190.794 125.955zM182.829 125.955C182.829 123.487 184.619 121.384 187.451 121.384 190.281 121.384 192.072 123.487 192.072 125.955 192.072 128.423 190.281 130.525 187.451 130.525 184.619 130.525 182.829 128.423 182.829 125.955L182.829 125.955zM196.261 125.754C197.413 125.754 198.065 125.139 198.065 124.176 198.065 123.212 197.413 122.597 196.261 122.597L195.096 122.597 195.096 125.754 196.261 125.754 196.261 125.754zM193.857 121.557L196.399 121.557C198.04 121.557 199.317 122.411 199.317 124.162 199.317 125.529 198.415 126.43 197.088 126.644L199.781 130.35 198.327 130.35 195.785 126.767 195.096 126.767 195.096 130.35 193.857 130.35 193.857 121.557 193.857 121.557z"/>
    <polyline fill="#3A3B39" points="201.185 121.557 202.425 121.557 202.425 125.642 206.057 121.557 207.56 121.557 203.79 125.754 207.735 130.35 206.183 130.35 202.425 125.905 202.425 130.35 201.185 130.35 201.185 121.557"/>
  </g>
</svg>
