<?xml version="1.0" encoding="UTF-8" standalone="no"?>
<svg width="661px" height="94px" viewBox="0 0 661 94" version="1.1" xmlns="http://www.w3.org/2000/svg" xmlns:xlink="http://www.w3.org/1999/xlink" xmlns:sketch="http://www.bohemiancoding.com/sketch/ns">
    <!-- Generator: Sketch 3.4.2 (15857) - http://www.bohemiancoding.com/sketch -->
    <title>Marion_Star</title>
    <desc>Created with Sketch.</desc>
    <defs></defs>
    <g id="Page-1" stroke="none" stroke-width="1" fill="none" fill-rule="evenodd" sketch:type="MSPage">
        <g id="Marion_Star" sketch:type="MSLayerGroup">
            <path d="M137.126,22.857 C133.142,22.688 131.85,22.619 131.85,19.725 L131.85,1.778 C135.564,1.916 141.109,2.086 142.186,7.534 L143.747,7.534 L143.64,0.689 L111.338,0.689 L111.176,7.534 L112.738,7.534 C113.814,2.086 119.36,1.916 123.128,1.778 L123.128,19.725 C123.128,22.585 121.836,22.652 117.906,22.857 L117.906,23.708 L137.126,23.708 L137.126,22.857" id="Fill-1" fill="#9E9F9E" sketch:type="MSShapeGroup"></path>
            <path d="M184.943,22.857 C182.09,22.619 180.205,22.482 180.205,20.439 L180.205,3.959 C180.205,1.745 182.628,1.643 184.943,1.541 L184.943,0.689 L166.639,0.689 L166.639,1.541 C169.007,1.643 171.484,1.711 171.484,3.959 L171.484,11.006 L158.509,11.006 L158.509,3.959 C158.509,1.711 160.986,1.643 163.355,1.541 L163.355,0.689 L145.212,0.689 L145.212,1.541 C147.473,1.676 149.788,1.745 149.788,3.959 L149.788,20.439 C149.788,22.449 148.065,22.619 145.212,22.857 L145.212,23.708 L163.355,23.708 L163.355,22.857 C160.501,22.652 158.509,22.517 158.509,20.439 L158.509,12.607 L171.484,12.607 L171.484,20.439 C171.484,22.517 169.492,22.652 166.639,22.857 L166.639,23.708 L184.943,23.708 L184.943,22.857" id="Fill-2" fill="#9E9F9E" sketch:type="MSShapeGroup"></path>
            <path d="M185.524,1.541 C188,1.643 190.261,1.711 190.261,3.959 L190.261,20.439 C190.261,22.55 188.592,22.652 185.524,22.857 L185.524,23.708 L217.018,23.708 L219.171,16.626 L217.664,16.626 C214.272,21.768 208.781,22.652 203.505,22.652 C200.006,22.652 198.983,22.245 198.983,20.746 L198.983,12.505 C204.313,12.505 207.058,13.526 207.704,17.784 L209.104,17.784 L209.104,6.273 L207.704,6.273 C206.897,10.497 204.151,11.381 198.983,11.348 L198.983,3.448 C198.983,1.983 199.952,1.846 202.913,1.846 C210.181,1.846 214.003,2.699 215.241,7.534 L216.587,7.534 L216.587,0.689 L185.524,0.689 L185.524,1.541" id="Fill-3" fill="#9E9F9E" sketch:type="MSShapeGroup"></path>
            <path d="M27.685,41.965 L42.646,92.297 L55.231,92.297 L69.493,41.965 L69.493,69.574 C69.493,74.004 69.073,76.277 65.997,77.299 L65.997,92.297 L103.47,92.297 L103.47,77.299 C100.115,75.936 99.555,73.664 99.555,69.574 L99.555,30.377 C99.555,26.4 100.115,24.015 103.47,22.65 L103.47,7.88 L61.663,7.88 L52.154,43.896 L42.646,7.88 L0,7.88 L0,22.65 C3.215,24.015 3.775,26.287 3.775,30.377 L3.775,69.574 C3.775,73.664 3.215,75.936 0,77.299 L0,92.297 L31.32,92.297 L31.32,77.299 C28.104,76.277 27.685,73.891 27.685,69.574 L27.685,41.965" id="Fill-4" fill="#1A1918" sketch:type="MSShapeGroup"></path>
            <path d="M143.514,92.297 L173.996,92.297 L173.996,78.322 C171.2,77.299 170.361,75.027 170.361,70.938 L170.361,51.963 C170.361,36.511 161.832,29.126 139.879,29.126 C125.477,29.126 113.032,32.309 105.062,37.308 L105.062,51.963 L131.349,51.963 L131.349,50.828 C131.349,45.942 133.027,43.557 136.803,43.557 C140.578,43.557 142.256,45.942 142.256,50.828 L142.256,51.963 C113.731,58.666 101.706,61.166 101.706,75.483 C101.706,86.957 109.677,93.318 122.96,93.318 C131.629,93.318 137.642,91.502 142.536,86.957 L143.514,92.297 L143.514,92.297 Z M142.256,75.254 C140.158,76.844 137.781,77.641 135.265,77.641 C132.188,77.641 130.51,76.049 130.51,73.209 C130.51,69.461 134.286,68.096 142.256,65.484 L142.256,75.254 L142.256,75.254 Z" id="Fill-5" fill="#1A1918" sketch:type="MSShapeGroup"></path>
            <path d="M205.666,70.143 L205.666,62.076 C205.666,54.236 209.161,50.373 216.852,50.373 L219.928,50.373 L219.928,29.355 C218.53,29.126 217.271,29.013 216.432,29.013 C211.259,29.013 207.344,31.059 203.988,35.149 L203.988,30.262 L173.506,30.262 L173.506,44.237 C176.722,45.374 177.281,47.305 177.281,50.828 L177.281,70.482 C177.281,75.254 176.023,77.754 173.506,78.322 L173.506,92.297 L209.441,92.297 L209.441,78.322 C206.505,77.412 205.666,74.914 205.666,70.143" id="Fill-6" fill="#1A1918" sketch:type="MSShapeGroup"></path>
            <path d="M253.6,16.97 C253.6,11.63 247.307,7.426 238.359,7.426 C229.27,7.426 223.118,11.744 223.118,16.97 C223.118,22.197 229.27,26.513 238.359,26.513 C247.447,26.513 253.6,22.31 253.6,16.97 L253.6,16.97 Z M253.879,70.143 L253.879,30.262 L221.58,30.262 L221.58,44.237 C224.796,45.374 225.355,47.305 225.355,50.828 L225.355,70.482 C225.355,75.254 224.096,77.754 221.58,78.322 L221.58,92.297 L257.235,92.297 L257.235,78.322 C254.578,77.186 253.879,74.687 253.879,70.143 L253.879,70.143 Z" id="Fill-7" fill="#1A1918" sketch:type="MSShapeGroup"></path>
            <path d="M294.46,50.828 L294.46,71.733 C294.46,76.617 293.202,79.117 288.867,79.117 C284.532,79.117 283.274,76.733 283.274,71.733 L283.274,50.828 C283.274,45.942 284.532,43.557 288.867,43.557 C293.342,43.557 294.46,45.942 294.46,50.828 L294.46,50.828 Z M322.845,51.85 C322.845,34.581 314.176,29.241 288.867,29.241 C263.559,29.241 255.029,34.694 255.029,51.85 L255.029,70.709 C255.029,87.865 263.559,93.318 288.867,93.318 C314.315,93.318 322.845,87.865 322.845,70.709 L322.845,51.85 L322.845,51.85 Z" id="Fill-8" fill="#1A1918" sketch:type="MSShapeGroup"></path>
            <path d="M353.94,70.143 L353.94,46.964 C355.478,46.51 357.016,46.169 358.414,46.169 C363.867,46.169 364.846,49.01 364.846,54.463 L364.846,67.984 C364.846,78.436 364.846,86.502 366.383,92.297 L396.726,92.297 L396.726,78.322 C393.65,77.299 393.37,74.914 393.37,70.256 L393.37,49.805 C393.37,36.171 388.197,29.582 372.397,29.582 C365.266,29.582 358.554,31.286 352.821,34.466 L352.821,30.262 L321.78,30.262 L321.78,44.237 C324.996,45.374 325.555,47.305 325.555,50.828 L325.555,70.482 C325.555,75.254 324.297,77.754 321.78,78.322 L321.78,92.297 L357.435,92.297 L357.435,78.322 C354.779,77.186 353.94,74.687 353.94,70.143" id="Fill-9" fill="#1A1918" sketch:type="MSShapeGroup"></path>
            <path d="M430.352,84.912 C439.022,90.479 452.445,94 469.224,94 C495.232,94 507.676,85.367 507.676,67.188 C507.676,48.668 499.286,44.805 479.571,40.148 C466.987,37.193 461.533,36.285 461.533,30.262 C461.533,26.287 463.771,24.355 468.105,24.355 C472.299,24.355 474.676,27.195 474.676,32.648 L474.676,36.511 L505.159,36.511 L505.159,15.494 C493.694,9.245 480.83,6.177 466.148,6.177 C440.28,6.177 428.814,14.812 428.814,32.991 C428.814,48.668 437.623,52.418 455.38,56.963 C467.266,60.031 475.097,60.826 475.097,68.324 C475.097,73.096 472.44,75.709 468.385,75.709 C462.792,75.709 461.813,72.527 461.813,66.393 L461.813,61.734 L430.352,61.734 L430.352,84.912" id="Fill-10" fill="#1A1918" sketch:type="MSShapeGroup"></path>
            <path d="M546.41,92.07 L546.41,78.436 C537.042,78.322 536.902,74.687 536.902,65.824 L536.902,44.464 L546.41,44.464 L546.41,30.262 L536.902,30.262 L536.902,11.971 L508.376,18.448 L508.376,30.262 L504.881,30.262 L504.881,44.464 L508.376,44.464 L508.376,72.754 C508.376,86.957 513.551,93.434 532.426,93.434 C537.042,93.434 541.794,92.979 546.41,92.07" id="Fill-11" fill="#1A1918" sketch:type="MSShapeGroup"></path>
            <path d="M646.054,70.143 L646.054,62.076 C646.054,54.236 649.549,50.373 657.24,50.373 L660.316,50.373 L660.316,29.355 C658.917,29.126 657.659,29.013 656.82,29.013 C651.647,29.013 647.732,31.059 644.375,35.149 L644.375,30.262 L613.894,30.262 L613.894,44.237 C617.11,45.374 617.668,47.305 617.668,50.828 L617.668,70.482 C617.668,75.254 616.411,77.754 613.894,78.322 L613.894,92.297 L649.829,92.297 L649.829,78.322 C646.893,77.412 646.054,74.914 646.054,70.143" id="Fill-12" fill="#1A1918" sketch:type="MSShapeGroup"></path>
            <path d="M612.567,70.938 L612.567,51.963 C612.567,36.511 604.037,29.126 582.084,29.126 C567.683,29.126 555.238,32.309 547.268,37.308 L547.268,51.963 L573.555,51.963 L573.555,50.828 C573.555,45.942 575.233,43.557 579.008,43.557 C582.784,43.557 584.461,45.942 584.461,50.828 L584.461,51.963 C583.748,52.131 583.051,52.294 582.358,52.457 L586.329,64.756 L601.806,64.756 L589.337,73.912 L594.174,88.434 L581.76,79.488 L569.345,88.434 L574.236,73.912 L561.66,64.756 L577.084,64.756 L581.046,52.765 C554.982,58.889 543.912,61.753 543.912,75.483 C543.912,86.957 551.881,93.318 565.166,93.318 C573.834,93.318 579.848,91.502 584.741,86.957 L585.72,92.297 L616.202,92.297 L616.202,78.322 C613.405,77.299 612.567,75.027 612.567,70.938" id="Fill-13" fill="#1A1918" sketch:type="MSShapeGroup"></path>
        </g>
    </g>
</svg>