<svg xmlns="http://www.w3.org/2000/svg" width="255" height="47" viewBox="0 0 255 47">
  <g fill="none" fill-rule="evenodd">
    <path fill="#404040" d="M1.199 43.637L2.335 43.637C2.708 43.637 3.002 43.546 3.219 43.361 3.436 43.178 3.545 42.927 3.545 42.611 3.545 42.293 3.436 42.043 3.219 41.859 3.002 41.676 2.708 41.584 2.335 41.584L1.199 41.584 1.199 43.637zM.356 46.55L.356 40.874 2.335 40.874C2.969 40.874 3.472 41.03 3.845 41.342 4.218 41.653 4.405 42.076 4.405 42.611 4.405 43.139 4.218 43.558 3.845 43.866 3.472 44.175 2.969 44.329 2.335 44.329L1.199 44.329 1.199 46.55.356 46.55zM6.107 44.413L8.177 44.413 7.142 41.751 6.107 44.413zM9.004 46.55L8.453 45.123 5.832 45.123 5.281 46.55 4.43 46.55 6.7 40.874 7.61 40.874 9.872 46.55 9.004 46.55zM11.658 43.554L12.818 43.554C13.18 43.554 13.468 43.465 13.682 43.286 13.896 43.108 14.003 42.869 14.003 42.568 14.003 42.268 13.896 42.029 13.682 41.851 13.468 41.673 13.18 41.584 12.818 41.584L11.658 41.584 11.658 43.554zM11.658 44.246L11.658 46.55 10.815 46.55 10.815 40.874 12.818 40.874C13.447 40.874 13.945 41.026 14.312 41.329 14.679 41.632 14.863 42.046 14.863 42.568 14.863 42.964 14.752 43.297 14.529 43.57 14.306 43.843 14 44.035 13.611 44.146L14.988 46.55 14.028 46.55 12.734 44.246 11.658 44.246z"/>
    <polyline fill="#404040" points="17.284 46.55 17.284 41.584 15.372 41.584 15.372 40.874 20.038 40.874 20.038 41.584 18.127 41.584 18.127 46.55 17.284 46.55"/>
    <path fill="#404040" d="M25.455,45.907 C25.822,45.907 26.149,45.814 26.436,45.627 C26.722,45.441 26.946,45.184 27.108,44.856 C27.269,44.527 27.35,44.146 27.35,43.712 C27.35,43.278 27.269,42.897 27.108,42.568 C26.946,42.24 26.722,41.983 26.436,41.797 C26.149,41.61 25.822,41.517 25.455,41.517 C25.088,41.517 24.762,41.61 24.478,41.797 C24.195,41.983 23.972,42.24 23.811,42.568 C23.649,42.897 23.569,43.278 23.569,43.712 C23.569,44.146 23.649,44.527 23.811,44.856 C23.972,45.184 24.195,45.441 24.478,45.627 C24.762,45.814 25.088,45.907 25.455,45.907 Z M25.455,46.642 C24.921,46.642 24.448,46.517 24.036,46.266 C23.624,46.016 23.3,45.671 23.064,45.231 C22.827,44.792 22.709,44.285 22.709,43.712 C22.709,43.139 22.827,42.632 23.064,42.193 C23.3,41.753 23.624,41.409 24.036,41.158 C24.448,40.908 24.921,40.782 25.455,40.782 C25.989,40.782 26.464,40.908 26.878,41.158 C27.293,41.409 27.618,41.753 27.855,42.193 C28.091,42.632 28.21,43.139 28.21,43.712 C28.21,44.285 28.091,44.792 27.855,45.231 C27.618,45.671 27.293,46.016 26.878,46.266 C26.464,46.517 25.989,46.642 25.455,46.642 Z"/>
    <polyline fill="#404040" points="30.237 46.55 29.394 46.55 29.394 40.874 32.925 40.874 32.925 41.584 30.237 41.584 30.237 43.503 32.516 43.503 32.516 44.213 30.237 44.213 30.237 46.55"/>
    <polyline fill="#404040" points="37.324 46.55 37.324 41.584 35.412 41.584 35.412 40.874 40.078 40.874 40.078 41.584 38.167 41.584 38.167 46.55 37.324 46.55"/>
    <polyline fill="#404040" points="41.046 46.55 41.046 40.874 41.889 40.874 41.889 43.303 44.819 43.303 44.819 40.874 45.662 40.874 45.662 46.55 44.819 46.55 44.819 44.03 41.889 44.03 41.889 46.55 41.046 46.55"/>
    <polyline fill="#404040" points="47.147 46.55 47.147 40.874 50.787 40.874 50.787 41.584 47.991 41.584 47.991 43.337 50.453 43.337 50.453 44.046 47.991 44.046 47.991 45.841 50.854 45.841 50.854 46.55 47.147 46.55"/>
    <path fill="#404040" d="M56.179 45.907C56.641 45.907 57.004 45.768 57.268 45.49 57.532 45.212 57.664 44.836 57.664 44.363L57.664 40.874 58.508 40.874 58.508 44.372C58.508 45.078 58.3 45.633 57.886 46.037 57.471 46.44 56.902 46.642 56.179 46.642 55.455 46.642 54.888 46.44 54.476 46.037 54.064 45.633 53.858 45.078 53.858 44.372L53.858 40.874 54.701 40.874 54.701 44.363C54.701 44.836 54.833 45.212 55.098 45.49 55.362 45.768 55.722 45.907 56.179 45.907M61.654 46.642C61.225 46.642 60.817 46.567 60.427 46.417 60.037 46.266 59.723 46.066 59.484 45.816L59.959 45.256C60.182 45.462 60.445 45.623 60.748 45.74 61.051 45.857 61.353 45.916 61.654 45.916 62.021 45.916 62.317 45.845 62.543 45.703 62.768 45.561 62.881 45.365 62.881 45.114 62.881 44.886 62.8 44.695 62.639 44.538 62.477 44.382 62.202 44.252 61.813 44.146L61.028 43.937C60.521 43.804 60.153 43.615 59.922 43.37 59.691 43.125 59.576 42.805 59.576 42.41 59.576 42.087 59.662 41.804 59.834 41.559 60.007 41.314 60.245 41.123 60.548 40.987 60.851 40.85 61.195 40.782 61.579 40.782 61.985 40.782 62.366 40.859 62.722 41.012 63.078 41.165 63.393 41.378 63.666 41.651L63.156 42.201C62.917 41.979 62.668 41.808 62.409 41.688 62.15 41.568 61.876 41.509 61.587 41.509 61.237 41.509 60.95 41.583 60.727 41.729 60.505 41.877 60.394 42.082 60.394 42.343 60.394 42.583 60.473 42.769 60.632 42.902 60.79 43.036 61.033 43.147 61.362 43.236L62.238 43.478C62.744 43.618 63.115 43.812 63.348 44.063 63.582 44.313 63.699 44.625 63.699 44.998 63.699 45.326 63.613 45.614 63.44 45.861 63.268 46.109 63.028 46.301 62.722 46.437 62.416 46.574 62.06 46.642 61.654 46.642M65.819 44.413L67.889 44.413 66.854 41.751 65.819 44.413zM68.715 46.55L68.165 45.123 65.544 45.123 64.993 46.55 64.141 46.55 66.412 40.874 67.321 40.874 69.584 46.55 68.715 46.55z"/>
    <polyline fill="#404040" points="73.507 46.55 73.507 41.584 71.595 41.584 71.595 40.874 76.261 40.874 76.261 41.584 74.349 41.584 74.349 46.55 73.507 46.55"/>
    <path fill="#404040" d="M79.299 45.907C79.666 45.907 79.993 45.814 80.28 45.627 80.566 45.441 80.79 45.184 80.952 44.856 81.113 44.527 81.194 44.146 81.194 43.712 81.194 43.278 81.113 42.897 80.952 42.568 80.79 42.24 80.566 41.983 80.28 41.797 79.993 41.61 79.666 41.517 79.299 41.517 78.932 41.517 78.606 41.61 78.322 41.797 78.039 41.983 77.816 42.24 77.655 42.568 77.493 42.897 77.413 43.278 77.413 43.712 77.413 44.146 77.493 44.527 77.655 44.856 77.816 45.184 78.039 45.441 78.322 45.627 78.606 45.814 78.932 45.907 79.299 45.907zM79.299 46.642C78.765 46.642 78.292 46.517 77.88 46.266 77.468 46.016 77.144 45.671 76.908 45.231 76.671 44.792 76.553 44.285 76.553 43.712 76.553 43.139 76.671 42.632 76.908 42.193 77.144 41.753 77.468 41.409 77.88 41.158 78.292 40.908 78.765 40.782 79.299 40.782 79.833 40.782 80.308 40.908 80.722 41.158 81.137 41.409 81.462 41.753 81.699 42.193 81.935 42.632 82.054 43.139 82.054 43.712 82.054 44.285 81.935 44.792 81.699 45.231 81.462 45.671 81.137 46.016 80.722 46.266 80.308 46.517 79.833 46.642 79.299 46.642zM84.081 45.841L85.233 45.841C85.634 45.841 85.977 45.753 86.264 45.578 86.55 45.402 86.77 45.156 86.923 44.839 87.076 44.522 87.153 44.146 87.153 43.712 87.153 43.278 87.076 42.902 86.923 42.585 86.77 42.268 86.55 42.022 86.264 41.846 85.977 41.671 85.634 41.584 85.233 41.584L84.081 41.584 84.081 45.841zM83.238 46.55L83.238 40.874 85.233 40.874C85.79 40.874 86.276 40.992 86.694 41.229 87.111 41.466 87.435 41.797 87.666 42.222 87.897 42.648 88.013 43.144 88.013 43.712 88.013 44.28 87.897 44.776 87.666 45.202 87.435 45.627 87.111 45.958 86.694 46.195 86.276 46.432 85.79 46.55 85.233 46.55L83.238 46.55zM90.166 44.413L92.236 44.413 91.201 41.751 90.166 44.413zM93.063 46.55L92.512 45.123 89.891 45.123 89.34 46.55 88.488 46.55 90.759 40.874 91.669 40.874 93.931 46.55 93.063 46.55z"/>
    <polyline fill="#404040" points="96.518 44.296 96.518 46.55 95.675 46.55 95.675 44.296 93.681 40.874 94.674 40.874 96.101 43.495 97.528 40.874 98.505 40.874 96.518 44.296"/>
    <polyline fill="#404040" points="105.249 46.55 102.219 42.201 102.219 46.55 101.426 46.55 101.426 40.874 102.211 40.874 105.249 45.223 105.249 40.874 106.033 40.874 106.033 46.55 105.249 46.55"/>
    <polyline fill="#404040" points="107.519 46.55 107.519 40.874 111.158 40.874 111.158 41.584 108.362 41.584 108.362 43.337 110.824 43.337 110.824 44.046 108.362 44.046 108.362 45.841 111.225 45.841 111.225 46.55 107.519 46.55"/>
    <polyline fill="#404040" points="113.729 46.55 113.729 41.584 111.818 41.584 111.818 40.874 116.483 40.874 116.483 41.584 114.572 41.584 114.572 46.55 113.729 46.55"/>
    <polyline fill="#404040" points="121.992 46.55 120.665 42.026 119.338 46.55 118.461 46.55 116.95 40.874 117.785 40.874 118.937 45.365 120.264 40.874 121.066 40.874 122.401 45.381 123.561 40.874 124.379 40.874 122.868 46.55 121.992 46.55"/>
    <path fill="#404040" d="M127.726 45.907C128.093 45.907 128.42 45.814 128.707 45.627 128.993 45.441 129.218 45.184 129.379 44.856 129.54 44.527 129.621 44.146 129.621 43.712 129.621 43.278 129.54 42.897 129.379 42.568 129.218 42.24 128.993 41.983 128.707 41.797 128.42 41.61 128.093 41.517 127.726 41.517 127.359 41.517 127.033 41.61 126.749 41.797 126.466 41.983 126.243 42.24 126.082 42.568 125.92 42.897 125.84 43.278 125.84 43.712 125.84 44.146 125.92 44.527 126.082 44.856 126.243 45.184 126.466 45.441 126.749 45.627 127.033 45.814 127.359 45.907 127.726 45.907zM127.726 46.642C127.192 46.642 126.719 46.517 126.307 46.266 125.896 46.016 125.571 45.671 125.335 45.231 125.098 44.792 124.98 44.285 124.98 43.712 124.98 43.139 125.098 42.632 125.335 42.193 125.571 41.753 125.896 41.409 126.307 41.158 126.719 40.908 127.192 40.782 127.726 40.782 128.261 40.782 128.735 40.908 129.149 41.158 129.564 41.409 129.889 41.753 130.126 42.193 130.362 42.632 130.481 43.139 130.481 43.712 130.481 44.285 130.362 44.792 130.126 45.231 129.889 45.671 129.564 46.016 129.149 46.266 128.735 46.517 128.261 46.642 127.726 46.642zM132.509 43.554L133.669 43.554C134.031 43.554 134.319 43.465 134.533 43.286 134.747 43.108 134.854 42.869 134.854 42.568 134.854 42.268 134.747 42.029 134.533 41.851 134.319 41.673 134.031 41.584 133.669 41.584L132.509 41.584 132.509 43.554zM132.509 44.246L132.509 46.55 131.666 46.55 131.666 40.874 133.669 40.874C134.298 40.874 134.796 41.026 135.163 41.329 135.53 41.632 135.714 42.046 135.714 42.568 135.714 42.964 135.603 43.297 135.38 43.57 135.157 43.843 134.852 44.035 134.462 44.146L135.839 46.55 134.879 46.55 133.586 44.246 132.509 44.246z"/>
    <polyline fill="#404040" points="140.297 46.55 137.751 43.687 137.751 46.55 136.908 46.55 136.908 40.874 137.751 40.874 137.751 43.361 140.13 40.874 141.173 40.874 138.644 43.478 141.356 46.55 140.297 46.55"/>
    <polyline fill="#404040" points="14.396 31.561 7.421 15.406 7.421 34.396 .356 34.396 .356 3.796 9.717 3.796 17.727 22.921 25.511 3.796 34.871 3.796 34.871 34.396 27.896 34.396 27.896 15.181 20.832 31.561 14.396 31.561"/>
    <path fill="#404040" d="M47.156 26.971C47.156 27.661 47.411 28.224 47.921 28.658 48.431 29.094 49.091 29.311 49.901 29.311 50.981 29.311 51.888 28.943 52.624 28.208 53.358 27.474 53.726 26.551 53.726 25.44L53.726 24.676C52.916 24.526 52.061 24.451 51.161 24.451 50.021 24.451 49.069 24.647 48.304 25.036 47.539 25.426 47.156 26.071 47.156 26.971zM54.041 34.396L53.636 31.381C52.136 33.781 49.856 34.981 46.796 34.981 45.446 34.981 44.223 34.689 43.129 34.104 42.033 33.519 41.163 32.716 40.519 31.696 39.873 30.676 39.551 29.491 39.551 28.141 39.551 25.591 40.548 23.611 42.544 22.201 44.538 20.791 47.171 20.086 50.441 20.086 51.461 20.086 52.541 20.176 53.681 20.356 53.561 19.216 53.073 18.354 52.218 17.769 51.363 17.184 50.321 16.891 49.091 16.891 48.011 16.891 46.923 17.093 45.829 17.498 44.733 17.903 43.691 18.391 42.701 18.961L40.046 13.921C41.546 12.961 43.166 12.219 44.906 11.693 46.646 11.169 48.386 10.906 50.126 10.906 52.226 10.906 54.116 11.266 55.796 11.986 57.476 12.706 58.796 13.801 59.756 15.271 60.716 16.741 61.196 18.601 61.196 20.851L61.196 34.396 54.041 34.396zM74.021 25.531L74.021 34.396 66.191 34.396 66.191 11.491 73.346 11.491 73.841 15.315C74.321 14.086 75.108 13.088 76.204 12.323 77.298 11.559 78.566 11.176 80.006 11.176 80.816 11.176 81.431 11.281 81.851 11.491L81.851 18.646C81.521 18.526 81.154 18.437 80.749 18.376 80.344 18.316 79.886 18.286 79.376 18.286 77.816 18.286 76.533 18.864 75.529 20.019 74.523 21.174 74.021 23.011 74.021 25.531M85.631 34.396L85.631 11.491C86.89 11.761 88.165 11.896 89.456 11.896 90.775 11.896 92.111 11.761 93.46 11.491L93.46 34.396 85.631 34.396M110.065 28.771C111.445 28.771 112.547 28.238 113.373 27.173 114.197 26.108 114.61 24.691 114.61 22.921 114.61 21.151 114.197 19.741 113.373 18.69 112.547 17.641 111.445 17.116 110.065 17.116 108.685 17.116 107.582 17.641 106.758 18.69 105.932 19.741 105.52 21.151 105.52 22.921 105.52 24.691 105.932 26.108 106.758 27.173 107.582 28.238 108.685 28.771 110.065 28.771zM110.065 34.981C107.605 34.981 105.437 34.463 103.563 33.428 101.687 32.394 100.217 30.976 99.153 29.176 98.087 27.376 97.555 25.291 97.555 22.921 97.555 20.551 98.087 18.466 99.153 16.666 100.217 14.866 101.687 13.456 103.563 12.436 105.437 11.416 107.605 10.906 110.065 10.906 112.525 10.906 114.692 11.416 116.568 12.436 118.442 13.456 119.912 14.866 120.978 16.666 122.042 18.466 122.575 20.551 122.575 22.921 122.575 25.291 122.042 27.376 120.978 29.176 119.912 30.976 118.442 32.394 116.568 33.428 114.692 34.463 112.525 34.981 110.065 34.981zM134.5 21.751L134.5 34.396 126.67 34.396 126.67 11.491 133.825 11.491 134.23 14.506C134.98 13.426 135.955 12.556 137.155 11.896 138.355 11.236 139.675 10.906 141.115 10.906 143.605 10.906 145.6 11.716 147.1 13.336 148.6 14.956 149.35 17.281 149.35 20.311L149.35 34.396 141.52 34.396 141.52 21.211C141.52 19.861 141.22 18.864 140.62 18.218 140.02 17.573 139.18 17.251 138.1 17.251 137.02 17.251 136.15 17.596 135.49 18.286 134.83 18.977 134.5 20.131 134.5 21.751"/>
    <path fill="#009BFF" class='no-color-change' d="M176.664 34.981C174.174 34.981 171.788 34.553 169.509 33.698 167.229 32.843 165.249 31.621 163.569 30.031L167.619 24.946C168.819 26.025 170.168 26.874 171.669 27.488 173.169 28.104 174.819 28.411 176.619 28.411 177.819 28.411 178.763 28.201 179.454 27.781 180.144 27.361 180.489 26.731 180.489 25.891 180.489 25.081 180.084 24.428 179.274 23.934 178.464 23.439 177.039 22.921 174.999 22.381L173.109 21.886C170.348 21.166 168.249 20.064 166.809 18.578 165.369 17.093 164.649 15.211 164.649 12.931 164.649 10.981 165.159 9.271 166.179 7.801 167.199 6.331 168.609 5.198 170.409 4.403 172.209 3.608 174.294 3.211 176.664 3.211 179.004 3.211 181.239 3.638 183.369 4.493 185.499 5.348 187.388 6.511 189.039 7.981L184.854 13.246C183.774 12.316 182.506 11.506 181.052 10.815 179.596 10.126 178.149 9.781 176.709 9.781 175.509 9.781 174.586 9.983 173.941 10.388 173.296 10.793 172.974 11.386 172.974 12.166 172.974 12.886 173.311 13.509 173.987 14.033 174.661 14.559 175.824 15.046 177.474 15.496L179.769 16.126C183.069 17.025 185.401 18.256 186.766 19.815 188.131 21.376 188.814 23.19 188.814 25.261 188.814 27.211 188.311 28.914 187.306 30.368 186.301 31.824 184.884 32.956 183.054 33.766 181.224 34.576 179.094 34.981 176.664 34.981M210.099 32.911C209.168 33.541 208.103 34.044 206.904 34.418 205.703 34.793 204.444 34.981 203.124 34.981 200.663 34.981 198.706 34.269 197.251 32.843 195.796 31.419 195.069 29.506 195.069 27.106L195.069 17.341 191.334 17.341 191.334 11.491 195.428 11.491 196.419 5.101 202.899 5.101 202.899 11.491 208.884 11.491 208.884 17.341 202.899 17.341 202.899 26.116C202.899 26.897 203.131 27.504 203.596 27.939 204.061 28.374 204.683 28.591 205.464 28.591 205.853 28.591 206.251 28.516 206.656 28.366 207.061 28.216 207.444 28.036 207.803 27.826L210.099 32.911M219.998 26.971C219.998 27.661 220.253 28.224 220.763 28.658 221.273 29.094 221.933 29.311 222.743 29.311 223.824 29.311 224.731 28.943 225.466 28.208 226.201 27.474 226.569 26.551 226.569 25.44L226.569 24.676C225.759 24.526 224.904 24.451 224.004 24.451 222.863 24.451 221.911 24.647 221.146 25.036 220.381 25.426 219.998 26.071 219.998 26.971zM226.884 34.396L226.478 31.381C224.978 33.781 222.699 34.981 219.638 34.981 218.288 34.981 217.066 34.689 215.971 34.104 214.876 33.519 214.006 32.716 213.361 31.696 212.716 30.676 212.393 29.491 212.393 28.141 212.393 25.591 213.39 23.611 215.386 22.201 217.381 20.791 220.013 20.086 223.283 20.086 224.303 20.086 225.383 20.176 226.524 20.356 226.403 19.216 225.916 18.354 225.061 17.769 224.206 17.184 223.163 16.891 221.933 16.891 220.853 16.891 219.766 17.093 218.671 17.498 217.575 17.903 216.533 18.391 215.544 18.961L212.888 13.921C214.388 12.961 216.008 12.219 217.748 11.693 219.488 11.169 221.228 10.906 222.969 10.906 225.068 10.906 226.958 11.266 228.638 11.986 230.318 12.706 231.638 13.801 232.598 15.271 233.558 16.741 234.038 18.601 234.038 20.851L234.038 34.396 226.884 34.396zM246.863 25.531L246.863 34.396 239.033 34.396 239.033 11.491 246.188 11.491 246.683 15.315C247.163 14.086 247.95 13.088 249.046 12.323 250.14 11.559 251.408 11.176 252.848 11.176 253.658 11.176 254.273 11.281 254.693 11.491L254.693 18.646C254.363 18.526 253.996 18.437 253.591 18.376 253.186 18.316 252.728 18.286 252.218 18.286 250.658 18.286 249.375 18.864 248.371 20.019 247.366 21.174 246.863 23.011 246.863 25.531M89.464 9.684C88.174 9.684 87.071 9.227 86.156 8.312 85.241 7.397 84.784 6.294 84.784 5.004 84.784 3.715 85.241 2.612 86.156 1.697 87.071.782 88.174.325 89.464.325 90.754.325 91.856.782 92.771 1.697 93.686 2.612 94.144 3.715 94.144 5.004 94.144 6.294 93.686 7.397 92.771 8.312 91.856 9.227 90.754 9.684 89.464 9.684"/>
  </g>
</svg>
