<svg xmlns="http://www.w3.org/2000/svg" width="522" height="47" viewBox="0 0 522 47">
  <g fill="none" fill-rule="evenodd">
    <polyline fill="#404040" points="14.397 31.386 7.422 15.231 7.422 34.221 .357 34.221 .357 3.621 9.717 3.621 17.727 22.746 25.512 3.621 34.872 3.621 34.872 34.221 27.897 34.221 27.897 15.006 20.832 31.386 14.397 31.386"/>
    <path fill="#404040" d="M47.157 26.796C47.157 27.487 47.411 28.049 47.922 28.484 48.432 28.919 49.092 29.136 49.902 29.136 50.982 29.136 51.889 28.769 52.624 28.033 53.359 27.299 53.727 26.376 53.727 25.266L53.727 24.501C52.917 24.351 52.062 24.276 51.162 24.276 50.021 24.276 49.069 24.472 48.304 24.861 47.539 25.251 47.157 25.896 47.157 26.796zM54.042 34.221L53.637 31.206C52.136 33.607 49.857 34.806 46.797 34.806 45.447 34.806 44.224 34.514 43.129 33.929 42.034 33.344 41.164 32.541 40.519 31.521 39.874 30.502 39.552 29.316 39.552 27.966 39.552 25.417 40.549 23.437 42.544 22.026 44.539 20.616 47.172 19.911 50.442 19.911 51.462 19.911 52.541 20.001 53.682 20.181 53.562 19.041 53.074 18.179 52.219 17.594 51.364 17.009 50.322 16.716 49.092 16.716 48.012 16.716 46.924 16.919 45.829 17.323 44.734 17.729 43.692 18.217 42.702 18.786L40.047 13.746C41.547 12.786 43.166 12.044 44.907 11.519 46.646 10.994 48.386 10.731 50.127 10.731 52.226 10.731 54.117 11.091 55.797 11.811 57.477 12.531 58.796 13.627 59.757 15.096 60.717 16.567 61.197 18.426 61.197 20.676L61.197 34.221 54.042 34.221zM74.022 25.356L74.022 34.221 66.192 34.221 66.192 11.316 73.347 11.316 73.842 15.141C74.321 13.911 75.109 12.913 76.204 12.149 77.299 11.384 78.567 11.001 80.007 11.001 80.817 11.001 81.431 11.107 81.852 11.316L81.852 18.471C81.521 18.352 81.154 18.262 80.749 18.201 80.344 18.141 79.887 18.111 79.377 18.111 77.817 18.111 76.534 18.689 75.529 19.844 74.524 20.999 74.022 22.836 74.022 25.356M94.136 34.806C92.156 34.806 90.303 34.491 88.579 33.861 86.853 33.231 85.301 32.331 83.921 31.161L87.251 26.751C88.301 27.591 89.434 28.274 90.649 28.799 91.864 29.324 93.056 29.586 94.226 29.586 95.006 29.586 95.628 29.451 96.094 29.181 96.559 28.911 96.791 28.506 96.791 27.966 96.791 27.397 96.528 26.939 96.004 26.594 95.479 26.249 94.541 25.911 93.191 25.581L91.031 25.041C86.741 23.902 84.596 21.607 84.596 18.156 84.596 16.626 85.016 15.306 85.856 14.197 86.696 13.087 87.851 12.232 89.321 11.631 90.791 11.031 92.501 10.731 94.451 10.731 96.371 10.731 98.178 11.031 99.874 11.631 101.568 12.232 103.121 13.101 104.531 14.241L101.111 18.741C100.061 17.902 98.951 17.227 97.781 16.716 96.611 16.206 95.516 15.951 94.496 15.951 92.846 15.951 92.021 16.491 92.021 17.572 92.021 18.051 92.269 18.442 92.764 18.741 93.259 19.041 93.956 19.312 94.856 19.551L97.781 20.361C99.971 20.962 101.591 21.862 102.641 23.061 103.691 24.261 104.216 25.687 104.216 27.336 104.216 28.837 103.796 30.149 102.956 31.274 102.116 32.399 100.938 33.269 99.424 33.884 97.908 34.498 96.146 34.806 94.136 34.806M116.321 21.621L116.321 34.221 108.491 34.221 108.491 1.371 116.321 1.371 116.321 13.971C117.071 12.981 118.023 12.194 119.179 11.609 120.333 11.024 121.586 10.731 122.936 10.731 125.426 10.731 127.421 11.541 128.921 13.161 130.421 14.781 131.171 17.107 131.171 20.136L131.171 34.221 123.341 34.221 123.341 21.036C123.341 19.686 123.041 18.689 122.441 18.044 121.841 17.399 121.001 17.076 119.921 17.076 118.841 17.076 117.971 17.421 117.311 18.111 116.651 18.802 116.321 19.972 116.321 21.621M151.916 17.166L145.931 17.166 145.931 34.221 138.101 34.221 138.101 17.166 134.366 17.166 134.366 11.316 138.101 11.316 138.101 9.651C138.101 7.012 138.881 4.881 140.441 3.261 142 1.641 144.205.831 147.056.831 148.136.831 149.23.966 150.341 1.236 151.45 1.506 152.62 2.031 153.851 2.811L151.196 7.626C150.836 7.417 150.431 7.237 149.981 7.086 149.531 6.937 149.036 6.861 148.496 6.861 147.776 6.861 147.168 7.086 146.673 7.536 146.178 7.986 145.931 8.692 145.931 9.651L145.931 11.316 151.916 11.316 151.916 17.166M156.235 34.221L156.235 11.316C157.495 11.586 158.77 11.721 160.06 11.721 161.38 11.721 162.715 11.586 164.065 11.316L164.065 34.221 156.235 34.221M180.4 16.401C177.849 16.401 176.319 17.751 175.81 20.451L184.54 20.451C184.329 18.982 183.827 17.939 183.032 17.323 182.237 16.709 181.359 16.401 180.4 16.401zM191.11 31.881C189.969 32.691 188.522 33.382 186.767 33.951 185.012 34.521 183.145 34.806 181.165 34.806 178.434 34.806 176.102 34.303 174.167 33.299 172.232 32.294 170.747 30.891 169.712 29.091 168.677 27.291 168.16 25.221 168.16 22.881 168.16 20.512 168.669 18.411 169.689 16.581 170.709 14.752 172.12 13.319 173.92 12.283 175.72 11.249 177.819 10.731 180.22 10.731 182.56 10.731 184.622 11.234 186.407 12.238 188.192 13.244 189.587 14.639 190.592 16.424 191.597 18.209 192.1 20.301 192.1 22.701 192.1 23.031 192.077 23.376 192.032 23.736 191.987 24.096 191.934 24.472 191.875 24.861L175.9 24.861C176.62 27.501 178.584 28.822 181.795 28.822 183.235 28.822 184.509 28.596 185.62 28.146 186.729 27.697 187.659 27.246 188.41 26.796L191.11 31.881z"/>
    <polygon fill="#404040" points="196.105 34.221 203.934 34.221 203.934 1.371 196.105 1.371"/>
    <path fill="#404040" d="M220.539,28.596 C221.889,28.596 222.976,28.064 223.802,26.999 C224.626,25.934 225.039,24.517 225.039,22.746 C225.039,20.976 224.626,19.559 223.802,18.493 C222.976,17.429 221.889,16.896 220.539,16.896 C219.159,16.896 218.056,17.429 217.231,18.493 C216.406,19.559 215.994,20.976 215.994,22.746 C215.994,24.517 216.406,25.934 217.231,26.999 C218.056,28.064 219.159,28.596 220.539,28.596 Z M225.579,34.221 L225.174,31.206 C224.454,32.317 223.524,33.194 222.384,33.839 C221.243,34.484 219.924,34.806 218.424,34.806 C216.354,34.806 214.539,34.296 212.979,33.276 C211.419,32.257 210.204,30.839 209.334,29.024 C208.463,27.209 208.029,25.116 208.029,22.746 C208.029,20.377 208.463,18.291 209.334,16.491 C210.204,14.691 211.396,13.281 212.911,12.261 C214.426,11.241 216.174,10.731 218.154,10.731 C219.533,10.731 220.809,11.024 221.979,11.609 C223.149,12.194 224.124,12.981 224.904,13.971 L224.904,1.371 L232.734,1.371 L232.734,34.221 L225.579,34.221 Z"/>
    <polyline fill="#009BFF" class='no-color-change' points="269.363 34.221 257.349 16.581 257.349 34.221 249.654 34.221 249.654 3.621 257.303 3.621 269.273 21.576 269.273 3.621 277.014 3.621 277.014 34.221 269.363 34.221"/>
    <path fill="#009BFF" class='no-color-change' d="M293.978,16.401 C291.428,16.401 289.898,17.751 289.388,20.451 L298.118,20.451 C297.908,18.982 297.405,17.939 296.61,17.323 C295.815,16.709 294.938,16.401 293.978,16.401 Z M304.688,31.881 C303.547,32.691 302.101,33.382 300.346,33.951 C298.59,34.521 296.723,34.806 294.743,34.806 C292.013,34.806 289.681,34.303 287.746,33.299 C285.811,32.294 284.326,30.891 283.291,29.091 C282.255,27.291 281.738,25.221 281.738,22.881 C281.738,20.512 282.248,18.411 283.268,16.581 C284.288,14.752 285.698,13.319 287.498,12.283 C289.298,11.249 291.397,10.731 293.798,10.731 C296.138,10.731 298.2,11.234 299.985,12.238 C301.77,13.244 303.165,14.639 304.17,16.424 C305.175,18.209 305.678,20.301 305.678,22.701 C305.678,23.031 305.656,23.376 305.61,23.736 C305.565,24.096 305.513,24.472 305.453,24.861 L289.478,24.861 C290.198,27.501 292.163,28.822 295.373,28.822 C296.813,28.822 298.088,28.596 299.198,28.146 C300.308,27.697 301.238,27.246 301.988,26.796 L304.688,31.881 Z"/>
    <polyline fill="#009BFF" class='no-color-change' points="328.988 34.221 325.298 20.316 321.653 34.221 313.553 34.221 307.613 11.316 315.623 11.316 318.008 26.076 321.878 11.316 328.763 11.316 332.768 26.121 335.198 11.316 343.028 11.316 337.088 34.221 328.988 34.221"/>
    <path fill="#009BFF" class='no-color-change' d="M354.952,34.806 C352.972,34.806 351.12,34.491 349.395,33.861 C347.669,33.231 346.117,32.331 344.737,31.161 L348.067,26.751 C349.117,27.591 350.25,28.274 351.465,28.799 C352.68,29.324 353.872,29.586 355.043,29.586 C355.822,29.586 356.444,29.451 356.91,29.181 C357.375,28.911 357.607,28.506 357.607,27.966 C357.607,27.397 357.344,26.939 356.82,26.594 C356.294,26.249 355.357,25.911 354.007,25.581 L351.847,25.041 C347.557,23.902 345.412,21.607 345.412,18.156 C345.412,16.626 345.832,15.306 346.672,14.197 C347.512,13.087 348.667,12.232 350.137,11.631 C351.607,11.031 353.317,10.731 355.267,10.731 C357.187,10.731 358.995,11.031 360.69,11.631 C362.384,12.232 363.937,13.101 365.347,14.241 L361.927,18.741 C360.877,17.902 359.767,17.227 358.597,16.716 C357.427,16.206 356.332,15.951 355.313,15.951 C353.662,15.951 352.837,16.491 352.837,17.572 C352.837,18.051 353.085,18.442 353.58,18.741 C354.075,19.041 354.772,19.312 355.672,19.551 L358.597,20.361 C360.787,20.962 362.407,21.862 363.457,23.061 C364.507,24.261 365.032,25.687 365.032,27.336 C365.032,28.837 364.612,30.149 363.772,31.274 C362.932,32.399 361.754,33.269 360.24,33.884 C358.725,34.498 356.962,34.806 354.952,34.806"/>
    <polyline fill="#009BFF" class='no-color-change' points="380.737 34.221 380.737 3.621 389.107 3.621 389.107 15.411 399.501 15.411 399.501 3.621 407.872 3.621 407.872 34.221 399.501 34.221 399.501 22.251 389.107 22.251 389.107 34.221 380.737 34.221"/>
    <path fill="#009BFF" class='no-color-change' d="M424.836 16.401C422.286 16.401 420.756 17.751 420.246 20.451L428.976 20.451C428.766 18.982 428.263 17.939 427.469 17.323 426.673 16.709 425.796 16.401 424.836 16.401zM435.546 31.881C434.406 32.691 432.959 33.382 431.204 33.951 429.449 34.521 427.581 34.806 425.601 34.806 422.871 34.806 420.539 34.303 418.604 33.299 416.669 32.294 415.184 30.891 414.149 29.091 413.114 27.291 412.596 25.221 412.596 22.881 412.596 20.512 413.106 18.411 414.126 16.581 415.146 14.752 416.556 13.319 418.356 12.283 420.156 11.249 422.256 10.731 424.656 10.731 426.996 10.731 429.059 11.234 430.844 12.238 432.628 13.244 434.023 14.639 435.029 16.424 436.034 18.209 436.536 20.301 436.536 22.701 436.536 23.031 436.514 23.376 436.469 23.736 436.424 24.096 436.371 24.472 436.311 24.861L420.336 24.861C421.056 27.501 423.021 28.822 426.231 28.822 427.671 28.822 428.946 28.596 430.056 28.146 431.166 27.697 432.096 27.246 432.846 26.796L435.546 31.881zM448.371 25.356L448.371 34.221 440.541 34.221 440.541 11.316 447.696 11.316 448.191 15.141C448.67 13.911 449.458 12.913 450.553 12.149 451.648 11.384 452.916 11.001 454.356 11.001 455.166 11.001 455.78 11.107 456.201 11.316L456.201 18.471C455.871 18.352 455.503 18.262 455.099 18.201 454.693 18.141 454.236 18.111 453.726 18.111 452.166 18.111 450.883 18.689 449.878 19.844 448.873 20.999 448.371 22.836 448.371 25.356M466.146 26.796C466.146 27.487 466.4 28.049 466.911 28.484 467.42 28.919 468.081 29.136 468.891 29.136 469.971 29.136 470.878 28.769 471.613 28.033 472.348 27.299 472.716 26.376 472.716 25.266L472.716 24.501C471.906 24.351 471.051 24.276 470.151 24.276 469.01 24.276 468.058 24.472 467.293 24.861 466.528 25.251 466.146 25.896 466.146 26.796zM473.031 34.221L472.626 31.206C471.126 33.607 468.846 34.806 465.786 34.806 464.436 34.806 463.213 34.514 462.118 33.929 461.023 33.344 460.153 32.541 459.508 31.521 458.863 30.502 458.541 29.316 458.541 27.966 458.541 25.417 459.538 23.437 461.533 22.026 463.528 20.616 466.161 19.911 469.431 19.911 470.45 19.911 471.53 20.001 472.671 20.181 472.551 19.041 472.064 18.179 471.209 17.594 470.354 17.009 469.311 16.716 468.081 16.716 467.001 16.716 465.913 16.919 464.818 17.323 463.723 17.729 462.681 18.217 461.691 18.786L459.036 13.746C460.536 12.786 462.156 12.044 463.896 11.519 465.635 10.994 467.376 10.731 469.116 10.731 471.215 10.731 473.105 11.091 474.786 11.811 476.466 12.531 477.785 13.627 478.746 15.096 479.706 16.567 480.186 18.426 480.186 20.676L480.186 34.221 473.031 34.221z"/>
    <polygon fill="#009BFF" class='no-color-change' points="485.181 34.221 493.011 34.221 493.011 1.371 485.181 1.371"/>
    <path fill="#009BFF" class='no-color-change' d="M509.615,28.596 C510.965,28.596 512.052,28.064 512.878,26.999 C513.702,25.934 514.115,24.517 514.115,22.746 C514.115,20.976 513.702,19.559 512.878,18.493 C512.052,17.429 510.965,16.896 509.615,16.896 C508.235,16.896 507.132,17.429 506.308,18.493 C505.482,19.559 505.07,20.976 505.07,22.746 C505.07,24.517 505.482,25.934 506.308,26.999 C507.132,28.064 508.235,28.596 509.615,28.596 Z M514.655,34.221 L514.25,31.206 C513.53,32.317 512.6,33.194 511.46,33.839 C510.319,34.484 509,34.806 507.5,34.806 C505.43,34.806 503.614,34.296 502.055,33.276 C500.495,32.257 499.28,30.839 498.41,29.024 C497.54,27.209 497.105,25.116 497.105,22.746 C497.105,20.377 497.54,18.291 498.41,16.491 C499.28,14.691 500.472,13.281 501.987,12.261 C503.502,11.241 505.25,10.731 507.23,10.731 C508.609,10.731 509.885,11.024 511.055,11.609 C512.225,12.194 513.199,12.981 513.98,13.971 L513.98,1.371 L521.81,1.371 L521.81,34.221 L514.655,34.221 Z"/>
    <path fill="#404040" d="M1.227 43.54L2.399 43.54C2.784 43.54 3.089 43.445 3.313 43.256 3.537 43.066 3.649 42.808 3.649 42.48 3.649 42.153 3.537 41.894 3.313 41.705 3.089 41.515 2.784 41.42 2.399 41.42L1.227 41.42 1.227 43.54zM.357 46.548L.357 40.688 2.399 40.688C3.054 40.688 3.574 40.849 3.959 41.17 4.344 41.492 4.536 41.929 4.536 42.48 4.536 43.026 4.344 43.458 3.959 43.777 3.574 44.096 3.054 44.256 2.399 44.256L1.227 44.256 1.227 46.548.357 46.548zM6.294 44.342L8.432 44.342 7.363 41.593 6.294 44.342zM9.285 46.548L8.716 45.074 6.01 45.074 5.441 46.548 4.562 46.548 6.906 40.688 7.845 40.688 10.181 46.548 9.285 46.548zM12.025 43.454L13.223 43.454C13.596 43.454 13.894 43.362 14.115 43.178 14.336 42.995 14.446 42.747 14.446 42.437 14.446 42.127 14.336 41.88 14.115 41.696 13.894 41.512 13.596 41.42 13.223 41.42L12.025 41.42 12.025 43.454zM12.025 44.169L12.025 46.548 11.155 46.548 11.155 40.688 13.223 40.688C13.872 40.688 14.386 40.844 14.765 41.157 15.145 41.471 15.334 41.897 15.334 42.437 15.334 42.845 15.219 43.19 14.989 43.471 14.759 43.753 14.443 43.951 14.042 44.066L15.463 46.548 14.472 46.548 13.137 44.169 12.025 44.169z"/>
    <polyline fill="#404040" points="17.833 46.548 17.833 41.42 15.86 41.42 15.86 40.688 20.677 40.688 20.677 41.42 18.703 41.42 18.703 46.548 17.833 46.548"/>
    <path fill="#404040" d="M26.269,45.884 C26.649,45.884 26.986,45.788 27.282,45.596 C27.578,45.403 27.809,45.137 27.976,44.798 C28.142,44.46 28.226,44.066 28.226,43.618 C28.226,43.169 28.142,42.776 27.976,42.437 C27.809,42.098 27.578,41.832 27.282,41.64 C26.986,41.448 26.649,41.351 26.269,41.351 C25.89,41.351 25.554,41.448 25.261,41.64 C24.968,41.832 24.738,42.098 24.572,42.437 C24.405,42.776 24.322,43.169 24.322,43.618 C24.322,44.066 24.405,44.46 24.572,44.798 C24.738,45.137 24.968,45.403 25.261,45.596 C25.554,45.788 25.89,45.884 26.269,45.884 Z M26.269,46.643 C25.718,46.643 25.23,46.513 24.804,46.255 C24.379,45.996 24.045,45.64 23.801,45.186 C23.556,44.732 23.434,44.209 23.434,43.618 C23.434,43.026 23.556,42.503 23.801,42.05 C24.045,41.595 24.379,41.239 24.804,40.981 C25.23,40.722 25.718,40.593 26.269,40.593 C26.821,40.593 27.311,40.722 27.739,40.981 C28.167,41.239 28.503,41.595 28.747,42.05 C28.991,42.503 29.113,43.026 29.113,43.618 C29.113,44.209 28.991,44.732 28.747,45.186 C28.503,45.64 28.167,45.996 27.739,46.255 C27.311,46.513 26.821,46.643 26.269,46.643 Z"/>
    <polyline fill="#404040" points="31.207 46.548 30.337 46.548 30.337 40.688 33.982 40.688 33.982 41.42 31.207 41.42 31.207 43.403 33.56 43.403 33.56 44.135 31.207 44.135 31.207 46.548"/>
    <polyline fill="#404040" points="38.523 46.548 38.523 41.42 36.55 41.42 36.55 40.688 41.367 40.688 41.367 41.42 39.394 41.42 39.394 46.548 38.523 46.548"/>
    <polyline fill="#404040" points="42.367 46.548 42.367 40.688 43.237 40.688 43.237 43.196 46.262 43.196 46.262 40.688 47.132 40.688 47.132 46.548 46.262 46.548 46.262 43.945 43.237 43.945 43.237 46.548 42.367 46.548"/>
    <polyline fill="#404040" points="48.666 46.548 48.666 40.688 52.423 40.688 52.423 41.42 49.536 41.42 49.536 43.23 52.078 43.23 52.078 43.962 49.536 43.962 49.536 45.815 52.492 45.815 52.492 46.548 48.666 46.548"/>
    <path fill="#404040" d="M57.99 45.884C58.467 45.884 58.842 45.741 59.115 45.453 59.387 45.166 59.524 44.778 59.524 44.29L59.524 40.688 60.394 40.688 60.394 44.298C60.394 45.028 60.18 45.601 59.752 46.018 59.324 46.434 58.737 46.643 57.99 46.643 57.243 46.643 56.657 46.434 56.232 46.018 55.807 45.601 55.594 45.028 55.594 44.298L55.594 40.688 56.465 40.688 56.465 44.29C56.465 44.778 56.601 45.166 56.874 45.453 57.147 45.741 57.519 45.884 57.99 45.884M63.643 46.643C63.201 46.643 62.778 46.565 62.376 46.41 61.974 46.255 61.649 46.048 61.402 45.79L61.894 45.212C62.123 45.425 62.395 45.591 62.708 45.712 63.021 45.832 63.333 45.893 63.643 45.893 64.022 45.893 64.328 45.82 64.561 45.673 64.793 45.526 64.91 45.324 64.91 45.066 64.91 44.83 64.826 44.632 64.66 44.471 64.493 44.31 64.209 44.175 63.807 44.066L62.997 43.85C62.474 43.713 62.093 43.517 61.855 43.264 61.617 43.012 61.497 42.682 61.497 42.274 61.497 41.94 61.586 41.647 61.764 41.394 61.943 41.142 62.188 40.945 62.501 40.804 62.814 40.663 63.169 40.593 63.566 40.593 63.985 40.593 64.378 40.672 64.746 40.83 65.114 40.988 65.438 41.208 65.72 41.489L65.194 42.058C64.947 41.828 64.69 41.652 64.423 41.528 64.156 41.404 63.873 41.343 63.574 41.343 63.212 41.343 62.916 41.419 62.687 41.571 62.457 41.723 62.342 41.934 62.342 42.204 62.342 42.451 62.424 42.644 62.587 42.782 62.751 42.92 63.002 43.035 63.341 43.127L64.246 43.376C64.769 43.52 65.151 43.721 65.392 43.98 65.634 44.238 65.754 44.56 65.754 44.945 65.754 45.284 65.665 45.581 65.487 45.837 65.309 46.092 65.062 46.29 64.746 46.431 64.43 46.572 64.062 46.643 63.643 46.643M67.943 44.342L70.08 44.342 69.012 41.593 67.943 44.342zM70.934 46.548L70.365 45.074 67.659 45.074 67.09 46.548 66.211 46.548 68.555 40.688 69.494 40.688 71.83 46.548 70.934 46.548z"/>
    <polyline fill="#404040" points="75.88 46.548 75.88 41.42 73.906 41.42 73.906 40.688 78.724 40.688 78.724 41.42 76.75 41.42 76.75 46.548 75.88 46.548"/>
    <path fill="#404040" d="M81.86 45.884C82.24 45.884 82.577 45.788 82.873 45.596 83.169 45.403 83.4 45.137 83.567 44.798 83.733 44.46 83.817 44.066 83.817 43.618 83.817 43.169 83.733 42.776 83.567 42.437 83.4 42.098 83.169 41.832 82.873 41.64 82.577 41.448 82.24 41.351 81.86 41.351 81.481 41.351 81.145 41.448 80.852 41.64 80.559 41.832 80.329 42.098 80.163 42.437 79.996 42.776 79.913 43.169 79.913 43.618 79.913 44.066 79.996 44.46 80.163 44.798 80.329 45.137 80.559 45.403 80.852 45.596 81.145 45.788 81.481 45.884 81.86 45.884zM81.86 46.643C81.309 46.643 80.821 46.513 80.395 46.255 79.97 45.996 79.636 45.64 79.392 45.186 79.147 44.732 79.025 44.209 79.025 43.618 79.025 43.026 79.147 42.503 79.392 42.05 79.636 41.595 79.97 41.239 80.395 40.981 80.821 40.722 81.309 40.593 81.86 40.593 82.412 40.593 82.902 40.722 83.33 40.981 83.758 41.239 84.094 41.595 84.338 42.05 84.582 42.503 84.704 43.026 84.704 43.618 84.704 44.209 84.582 44.732 84.338 45.186 84.094 45.64 83.758 45.996 83.33 46.255 82.902 46.513 82.412 46.643 81.86 46.643zM86.798 45.815L87.988 45.815C88.401 45.815 88.756 45.725 89.052 45.544 89.348 45.363 89.574 45.109 89.732 44.781 89.89 44.454 89.97 44.066 89.97 43.618 89.97 43.169 89.89 42.782 89.732 42.454 89.574 42.127 89.348 41.873 89.052 41.692 88.756 41.511 88.401 41.42 87.988 41.42L86.798 41.42 86.798 45.815zM85.928 46.548L85.928 40.688 87.988 40.688C88.562 40.688 89.065 40.81 89.496 41.054 89.926 41.298 90.261 41.64 90.499 42.08 90.738 42.519 90.857 43.032 90.857 43.618 90.857 44.204 90.738 44.716 90.499 45.156 90.261 45.596 89.926 45.937 89.496 46.181 89.065 46.426 88.562 46.548 87.988 46.548L85.928 46.548zM93.08 44.342L95.218 44.342 94.149 41.593 93.08 44.342zM96.071 46.548L95.502 45.074 92.796 45.074 92.227 46.548 91.348 46.548 93.692 40.688 94.632 40.688 96.967 46.548 96.071 46.548z"/>
    <polyline fill="#404040" points="99.638 44.221 99.638 46.548 98.768 46.548 98.768 44.221 96.708 40.688 97.734 40.688 99.208 43.393 100.681 40.688 101.689 40.688 99.638 44.221"/>
    <polyline fill="#404040" points="108.652 46.548 105.524 42.058 105.524 46.548 104.705 46.548 104.705 40.688 105.515 40.688 108.652 45.178 108.652 40.688 109.462 40.688 109.462 46.548 108.652 46.548"/>
    <polyline fill="#404040" points="110.996 46.548 110.996 40.688 114.753 40.688 114.753 41.42 111.867 41.42 111.867 43.23 114.409 43.23 114.409 43.962 111.867 43.962 111.867 45.815 114.822 45.815 114.822 46.548 110.996 46.548"/>
    <polyline fill="#404040" points="117.407 46.548 117.407 41.42 115.434 41.42 115.434 40.688 120.251 40.688 120.251 41.42 118.278 41.42 118.278 46.548 117.407 46.548"/>
    <polyline fill="#404040" points="125.939 46.548 124.568 41.877 123.198 46.548 122.293 46.548 120.734 40.688 121.595 40.688 122.785 45.324 124.155 40.688 124.982 40.688 126.361 45.341 127.559 40.688 128.403 40.688 126.843 46.548 125.939 46.548"/>
    <path fill="#404040" d="M131.859 45.884C132.238 45.884 132.576 45.788 132.872 45.596 133.167 45.403 133.399 45.137 133.565 44.798 133.732 44.46 133.815 44.066 133.815 43.618 133.815 43.169 133.732 42.776 133.565 42.437 133.399 42.098 133.167 41.832 132.872 41.64 132.576 41.448 132.238 41.351 131.859 41.351 131.48 41.351 131.144 41.448 130.851 41.64 130.558 41.832 130.328 42.098 130.161 42.437 129.995 42.776 129.911 43.169 129.911 43.618 129.911 44.066 129.995 44.46 130.161 44.798 130.328 45.137 130.558 45.403 130.851 45.596 131.144 45.788 131.48 45.884 131.859 45.884zM131.859 46.643C131.308 46.643 130.819 46.513 130.394 46.255 129.969 45.996 129.634 45.64 129.39 45.186 129.146 44.732 129.024 44.209 129.024 43.618 129.024 43.026 129.146 42.503 129.39 42.05 129.634 41.595 129.969 41.239 130.394 40.981 130.819 40.722 131.308 40.593 131.859 40.593 132.411 40.593 132.9 40.722 133.328 40.981 133.756 41.239 134.092 41.595 134.337 42.05 134.581 42.503 134.703 43.026 134.703 43.618 134.703 44.209 134.581 44.732 134.337 45.186 134.092 45.64 133.756 45.996 133.328 46.255 132.9 46.513 132.411 46.643 131.859 46.643zM136.797 43.454L137.995 43.454C138.368 43.454 138.665 43.362 138.886 43.178 139.108 42.995 139.218 42.747 139.218 42.437 139.218 42.127 139.108 41.88 138.886 41.696 138.665 41.512 138.368 41.42 137.995 41.42L136.797 41.42 136.797 43.454zM136.797 44.169L136.797 46.548 135.926 46.548 135.926 40.688 137.995 40.688C138.644 40.688 139.158 40.844 139.537 41.157 139.916 41.471 140.106 41.897 140.106 42.437 140.106 42.845 139.991 43.19 139.761 43.471 139.531 43.753 139.215 43.951 138.813 44.066L140.235 46.548 139.244 46.548 137.908 44.169 136.797 44.169z"/>
    <polyline fill="#404040" points="144.837 46.548 142.209 43.592 142.209 46.548 141.338 46.548 141.338 40.688 142.209 40.688 142.209 43.256 144.664 40.688 145.742 40.688 143.131 43.376 145.931 46.548 144.837 46.548"/>
    <path fill="#009BFF" class='no-color-change' d="M160.06,9.516 C158.77,9.516 157.667,9.059 156.752,8.144 C155.837,7.229 155.38,6.126 155.38,4.836 C155.38,3.547 155.837,2.444 156.752,1.529 C157.667,0.614 158.77,0.156 160.06,0.156 C161.35,0.156 162.452,0.614 163.367,1.529 C164.282,2.444 164.74,3.547 164.74,4.836 C164.74,6.126 164.282,7.229 163.367,8.144 C162.452,9.059 161.35,9.516 160.06,9.516"/>
  </g>
</svg>
