<svg id="Layer_1" data-name="Layer 1" xmlns="http://www.w3.org/2000/svg" viewBox="0 0 432.82 81.21" height="81.21" width="432.82">
    <defs>
        <style>
            .cls-1 {
                fill: #231f20;
            }
            .cls-2 {
                fill: #414042;
            }
        </style>
    </defs>
    <title>Memphis</title><path
        class="cls-1"
        d="M307.22,60a6.76,6.76,0,0,0,.88,1.54,2.05,2.05,0,0,0,1.68.78l.4,0,.5,0a1,1,0,0,1,.68.17.59.59,0,0,1,.17.45c0,.41-.29.62-.86.62s-1.25,0-2.13,0-2.12,0-3.7,0-3.13,0-4.55,0l-2.94,0c-.58,0-.86-.2-.86-.62s.28-.62.86-.62l1.28,0,1.19-.07c.88-.06,1.4-.38,1.54-.94a4.21,4.21,0,0,0-.4-2.42l-1.4-3.75c-.43-1.14-.8-2.11-1.11-2.94-.35-1-.67-1.87-.95-2.66H285.21c-.28.76-.59,1.58-.9,2.47s-.55,1.62-.89,2.58-.73,2-1.14,3.06a8.11,8.11,0,0,0-.68,3.27c.07.7.68,1.14,1.83,1.33a3.11,3.11,0,0,0,.64.07l.69,0q1,0,1,.62c0,.41-.29.62-.85.62s-1.26,0-2.16,0-1.9,0-3,0l-1.38,0-.88,0-.67,0-.69,0c-.57,0-.85-.2-.85-.62s.28-.53.85-.62a6.28,6.28,0,0,0,1.31-.28,2.5,2.5,0,0,0,1-.68,6.32,6.32,0,0,0,.9-1.42c.3-.62.65-1.47,1.07-2.54l2.09-5.53q1.18-3.16,2.46-6.59t2.58-6.88l2.4-6.33a1.94,1.94,0,0,0,.19-1,3.22,3.22,0,0,0-.28-1,3.15,3.15,0,0,1-.26-.69.52.52,0,0,1,.21-.4,13,13,0,0,0,1.9-1.68,14.92,14.92,0,0,0,1.52-2l.19-.21a.29.29,0,0,1,.23-.12c.16,0,.27.13.34.38l1.94,5.05,2.42,6.31q1.27,3.35,2.6,6.85t2.54,6.66c.81,2.1,1.54,4,2.21,5.69l1.56,4M296.93,48l-5.79-14.84L285.78,48Z"/><path
        class="cls-1"
        d="M317.33,62.2a2,2,0,0,0,1.31.39l.52,0,.57,0c.41,0,.61.14.61.44s-.21.44-.61.44l-1.71,0c-.75,0-1.7,0-2.86,0s-2.11,0-2.84,0l-1.69,0q-.62,0-.62-.44c0-.3.2-.44.62-.44l.41,0,.37,0a1.82,1.82,0,0,0,1.28-.39,2.51,2.51,0,0,0,.33-1.55V39.4a2.11,2.11,0,0,0-.36-1.46,2,2,0,0,0-1.31-.38l-.36,0-.4,0c-.41,0-.61-.14-.61-.44s.21-.44.61-.44l1.53,0c.64,0,1.54,0,2.7,0l1.45,0,1,0,.87,0,1,0A24.51,24.51,0,0,1,324,37a10.18,10.18,0,0,1,3.53,1.35,6,6,0,0,1,2.16,2.37,8.67,8.67,0,0,1,0,7.06,6.5,6.5,0,0,1-2.22,2.44,10.26,10.26,0,0,1-3.58,1.4,24.46,24.46,0,0,1-4.89.44h-.66l-1.31,0v8.59a2.32,2.32,0,0,0,.36,1.55m.54-11,.88,0c2.65,0,4.59-.54,5.79-1.6s1.81-2.85,1.81-5.33a7,7,0,0,0-1.65-5,6.28,6.28,0,0,0-4.76-1.73,3.32,3.32,0,0,0-2.33.62A2.87,2.87,0,0,0,317,40.2V51.1l.9.05"/><path
        class="cls-1"
        d="M338.58,62.2a2,2,0,0,0,1.31.39l.53,0,.56,0c.41,0,.62.14.62.44s-.21.44-.62.44l-1.7,0c-.75,0-1.7,0-2.86,0s-2.11,0-2.85,0l-1.69,0c-.41,0-.61-.15-.61-.44s.21-.44.61-.44l.41,0,.37,0a1.84,1.84,0,0,0,1.28-.39,2.52,2.52,0,0,0,.32-1.55V39.4a2.09,2.09,0,0,0-.36-1.46,2,2,0,0,0-1.31-.38l-.36,0-.39,0c-.41,0-.61-.14-.61-.44s.2-.44.61-.44l1.54,0c.63,0,1.53,0,2.69,0l1.45,0,1,0,.87,0,1,0a24.49,24.49,0,0,1,4.83.43,10.15,10.15,0,0,1,3.53,1.35,6,6,0,0,1,2.17,2.37,7.65,7.65,0,0,1,.73,3.49,7.63,7.63,0,0,1-.77,3.56,6.44,6.44,0,0,1-2.21,2.44,10.26,10.26,0,0,1-3.58,1.4,24.45,24.45,0,0,1-4.89.44h-.67l-1.31,0v8.59a2.32,2.32,0,0,0,.36,1.55m.55-11,.87,0q4,0,5.79-1.6t1.81-5.33a7,7,0,0,0-1.65-5,6.28,6.28,0,0,0-4.75-1.73,3.36,3.36,0,0,0-2.34.62,2.88,2.88,0,0,0-.63,2.12V51.1l.9.05"/><path
        class="cls-1"
        d="M356.84,63.44c-1.16,0-2.1,0-2.84,0l-1.69,0c-.41,0-.61-.15-.61-.46s.21-.46.61-.46l.41,0,.37,0a1.81,1.81,0,0,0,1.28-.39,2.5,2.5,0,0,0,.32-1.55V39.4a2.08,2.08,0,0,0-.36-1.46,2,2,0,0,0-1.31-.38l-.36,0h-.39c-.41,0-.62-.15-.62-.44s.21-.44.62-.44l1.53,0c.63,0,1.54,0,2.69,0h1.6l2.45,0,2.88,0,2.9,0,2.49,0,1.69,0a.5.5,0,0,1,.55.34c.19.59.34,1.13.48,1.62s.28,1,.43,1.4l.45,1.33c.15.45.31.93.49,1.45a.33.33,0,0,1,0,.31.52.52,0,0,1-.25.21.41.41,0,0,1-.55-.13c-.39-.62-.73-1.16-1-1.64a13.3,13.3,0,0,0-.87-1.24,10.89,10.89,0,0,0-.85-.93,5.66,5.66,0,0,0-1-.76,6.48,6.48,0,0,0-2.48-.8,25.84,25.84,0,0,0-3.6-.22h-3.61V49.36h2.86a11.19,11.19,0,0,0,2.54-.24,3,3,0,0,0,2.37-2.22,13.42,13.42,0,0,0,.44-2.15.46.46,0,0,1,.73-.24.3.3,0,0,1,.12.24c0,.8,0,1.59,0,2.4s0,1.62,0,2.44,0,1.8,0,2.68,0,1.73,0,2.57a.28.28,0,0,1-.13.26.56.56,0,0,1-.31.09.39.39,0,0,1-.41-.34,11.14,11.14,0,0,0-.39-2,3.09,3.09,0,0,0-.85-1.41,3.64,3.64,0,0,0-1.56-.83,9.54,9.54,0,0,0-2.54-.27h-2.86V59.7a7,7,0,0,0,.12,1.44,1.55,1.55,0,0,0,.47.88,2,2,0,0,0,1,.45,9,9,0,0,0,1.6.12h2.35a14.48,14.48,0,0,0,3.22-.32A9.13,9.13,0,0,0,370,61.21a9.75,9.75,0,0,0,2.33-2,23.11,23.11,0,0,0,2.27-3.09.59.59,0,0,1,.22-.24.46.46,0,0,1,.39,0,.32.32,0,0,1,.22.31.91.91,0,0,1-.05.41c-.47,1.23-.94,2.43-1.4,3.6l-1.16,3a.5.5,0,0,1-.55.35l-1.86,0-2.78,0-3.22,0-3.2,0h-2.7"/><path
        class="cls-1"
        d="M397,61a5.54,5.54,0,0,0,.63,1.1,1.51,1.51,0,0,0,1.21.57l.29,0,.36,0a.75.75,0,0,1,.49.11.47.47,0,0,1,.12.33c0,.3-.21.44-.62.44l-1.54,0q-1,0-2.66,0t-3.27,0l-2.11,0c-.41,0-.61-.14-.61-.44s.21-.44.61-.44l.92,0c.3,0,.58,0,.85-.06.64,0,1-.27,1.11-.68a3.08,3.08,0,0,0-.29-1.74l-1-2.69-.8-2.11L390,53.45h-8.83c-.2.55-.42,1.14-.64,1.78s-.4,1.17-.65,1.86-.52,1.43-.82,2.2a5.81,5.81,0,0,0-.5,2.35c.06.5.5.82,1.31,1a1.82,1.82,0,0,0,.46.06l.5,0c.47,0,.71.14.71.44s-.2.44-.61.44l-1.55,0q-1,0-2.17,0c-.41,0-.74,0-1,0l-.63,0-.48,0-.49,0c-.41,0-.62-.14-.62-.44s.21-.38.62-.44a4.65,4.65,0,0,0,.93-.21,1.74,1.74,0,0,0,.72-.49,4.61,4.61,0,0,0,.65-1c.22-.45.48-1.06.77-1.83q.65-1.71,1.5-4t1.77-4.74q.92-2.47,1.86-4.95l1.72-4.55a1.36,1.36,0,0,0,.14-.72,2.3,2.3,0,0,0-.2-.72,2.38,2.38,0,0,1-.19-.49c0-.08,0-.18.16-.29a9.06,9.06,0,0,0,1.36-1.21,10.31,10.31,0,0,0,1.09-1.42l.14-.15a.21.21,0,0,1,.17-.09c.11,0,.19.09.24.27l1.4,3.63q.82,2.13,1.74,4.54c.62,1.6,1.24,3.25,1.88,4.93s1.24,3.28,1.82,4.79,1.11,2.88,1.59,4.09.85,2.18,1.12,2.89m-7.4-8.63L385.4,41.66l-3.86,10.67Z"/><path
        class="cls-1"
        d="M404.34,63.44c-1.16,0-2.1,0-2.84,0l-1.69,0c-.41,0-.62-.15-.62-.46s.21-.46.62-.46l.41,0,.37,0a1.79,1.79,0,0,0,1.28-.39,2.46,2.46,0,0,0,.33-1.55V39.4a2.07,2.07,0,0,0-.36-1.46,2,2,0,0,0-1.31-.38l-.36,0h-.39c-.41,0-.61-.15-.61-.44s.2-.44.61-.44l1.53,0c.64,0,1.54,0,2.7,0s2.18,0,3.07,0l1.91,0c.41,0,.61.15.61.44s-.2.44-.61.44h-.61l-.38,0h-.24a1.81,1.81,0,0,0-1.28.39,2.49,2.49,0,0,0-.32,1.55V59.93a6.76,6.76,0,0,0,.12,1.45,1.27,1.27,0,0,0,.49.8,2.15,2.15,0,0,0,1,.34c.45,0,1,.07,1.72.07h2.55a12.92,12.92,0,0,0,3.26-.35,7.22,7.22,0,0,0,2.46-1.18,9.78,9.78,0,0,0,2.08-2.18c.65-.91,1.35-2,2.13-3.38.13-.25.27-.49.41-.73s.31-.35.51-.33a.3.3,0,0,1,.31.36,4.78,4.78,0,0,1-.17.8c-.09.37-.21.83-.36,1.4s-.3,1.18-.46,1.83-.32,1.3-.49,2-.33,1.28-.46,1.85a1.2,1.2,0,0,1-.38.69,1.58,1.58,0,0,1-.82.16l-2.54,0-3.05,0h-8.62"/><path
        class="cls-1"
        d="M37.48,50.52A.5.5,0,0,1,38,50a.42.42,0,0,1,.47.47V62.73a.53.53,0,0,1-.47.57c-.22,0-.41-.11-.56-.43-.25-.54-.5-1.07-.73-1.6s-.51-.8-.83-.8a2.91,2.91,0,0,0-1.27.62,20.53,20.53,0,0,1-2.39,1.34,22.17,22.17,0,0,1-3.56,1.34,17,17,0,0,1-4.81.61A18.41,18.41,0,0,1,16.72,63,16.55,16.55,0,0,1,11,59.1a18.46,18.46,0,0,1-3.82-6.16,22.21,22.21,0,0,1-1.39-8A20.35,20.35,0,0,1,7.26,37a19,19,0,0,1,4-6.11,18,18,0,0,1,12.81-5.33,15.87,15.87,0,0,1,4.41.57,25.68,25.68,0,0,1,3.42,1.22c1,.44,1.8.84,2.48,1.21a3.72,3.72,0,0,0,1.54.54,1.18,1.18,0,0,0,1-.43,5.09,5.09,0,0,0,.66-1.37c.12-.32.3-.47.52-.47s.43.16.43.47V39.57q0,.62-.52.62c-.31,0-.5-.2-.56-.62A16.53,16.53,0,0,0,36,34.31a14.56,14.56,0,0,0-2.76-4A11.45,11.45,0,0,0,25,26.83a11.06,11.06,0,0,0-5.24,1.3,13.19,13.19,0,0,0-4.29,3.67,18.25,18.25,0,0,0-2.9,5.72A24.46,24.46,0,0,0,11.48,45a28,28,0,0,0,.92,7.46A17.4,17.4,0,0,0,15,58.1,11.55,11.55,0,0,0,24.74,63a11.58,11.58,0,0,0,8.21-3.14q3.34-3.13,4.53-9.31"/><path
        class="cls-1"
        d="M68,50.08a15.6,15.6,0,0,1-1,5.81,13.32,13.32,0,0,1-2.85,4.44,12.58,12.58,0,0,1-4.24,2.85,14.25,14.25,0,0,1-10.54,0,12.58,12.58,0,0,1-4.25-2.85,13.28,13.28,0,0,1-2.85-4.44,16.82,16.82,0,0,1,0-11.63,13.23,13.23,0,0,1,2.85-4.45A12.58,12.58,0,0,1,49.36,37a14.27,14.27,0,0,1,10.52,0,12.59,12.59,0,0,1,4.24,2.85A13.26,13.26,0,0,1,67,44.26a15.58,15.58,0,0,1,1,5.81m-4.2,0a21.73,21.73,0,0,0-.61-5.35,13.07,13.07,0,0,0-1.79-4.17,8.61,8.61,0,0,0-2.88-2.71,8.39,8.39,0,0,0-7.83,0,8.54,8.54,0,0,0-2.9,2.71A13,13,0,0,0,46,44.72a23.62,23.62,0,0,0,0,10.71,13,13,0,0,0,1.79,4.17,8.55,8.55,0,0,0,2.9,2.7,8.39,8.39,0,0,0,7.83,0,8.63,8.63,0,0,0,2.88-2.7,13,13,0,0,0,1.79-4.17,21.7,21.7,0,0,0,.61-5.35"/><path
        class="cls-1"
        d="M75,37c.07.11.26.51.58,1.17l1.19,2.54c.48,1,1,2.17,1.58,3.45S79.5,46.7,80.12,48q2.11,4.6,4.81,10.33,2.52-5.8,4.5-10.43L91.1,44l1.47-3.43,1.08-2.5c.28-.66.44-1,.46-1.09a.71.71,0,0,1,.15-.26.39.39,0,0,1,.29-.08h1.17l1.25,0,1.84,0H100c.41,0,.62.15.62.46s-.21.46-.62.46l-.4,0-.38,0a1.83,1.83,0,0,0-1.28.39,2.49,2.49,0,0,0-.32,1.55v21.1A2.31,2.31,0,0,0,98,62.2a2,2,0,0,0,1.32.39l.36,0,.39,0c.41,0,.62.14.62.44s-.2.44-.62.44l-1.53,0c-.63,0-1.53,0-2.69,0s-2.11,0-2.84,0l-1.69,0c-.41,0-.62-.15-.62-.44s.21-.44.62-.44l.41,0,.38,0a1.83,1.83,0,0,0,1.28-.39,2.49,2.49,0,0,0,.32-1.55v-20q-1.81,4.19-3.55,8.29-.75,1.74-1.55,3.61L87,56.25,85.4,59.89c-.5,1.18-1,2.27-1.4,3.28a1.06,1.06,0,0,1-.22.33.44.44,0,0,1-.29.15.58.58,0,0,1-.31-.1.71.71,0,0,1-.27-.34l-1.43-3.09q-.78-1.68-1.65-3.53l-1.75-3.75-1.71-3.68-4-8.53v20a2.31,2.31,0,0,0,.36,1.55,2,2,0,0,0,1.31.39l.35,0,.39,0c.41,0,.61.14.61.44s-.2.44-.61.44-.81,0-1.28,0-1,0-1.58,0-1.14,0-1.64,0-.95,0-1.33,0-.62-.15-.62-.44.2-.44.62-.44l.41,0,.38,0A1.83,1.83,0,0,0,71,62.2a2.49,2.49,0,0,0,.32-1.55V39.06a1.86,1.86,0,0,0-.74-1.21,3.5,3.5,0,0,0-1.69-.29c-.41,0-.61-.15-.61-.46s.21-.46.61-.46H70l1.76,0,1.53,0h1.16A.55.55,0,0,1,75,37"/><path
        class="cls-1"
        d="M109,37c.07.11.26.51.58,1.17l1.19,2.54c.48,1,1,2.17,1.58,3.45s1.18,2.55,1.79,3.85q2.11,4.6,4.8,10.33,2.53-5.8,4.5-10.43L125.16,44l1.46-3.43,1.07-2.5q.43-1,.46-1.09a.7.7,0,0,1,.15-.26.39.39,0,0,1,.29-.08h1.18l1.24,0,1.84,0h1.19c.41,0,.61.15.61.46s-.2.46-.61.46l-.41,0-.38,0A1.82,1.82,0,0,0,132,38a2.47,2.47,0,0,0-.33,1.55v21.1A2.29,2.29,0,0,0,132,62.2a2,2,0,0,0,1.31.39l.36,0,.39,0c.41,0,.61.14.61.44s-.2.44-.61.44l-1.54,0c-.64,0-1.53,0-2.69,0s-2.11,0-2.85,0l-1.69,0q-.62,0-.62-.44c0-.3.2-.44.62-.44l.41,0,.38,0a1.84,1.84,0,0,0,1.28-.39,2.51,2.51,0,0,0,.32-1.55v-20q-1.81,4.19-3.55,8.29-.75,1.74-1.55,3.61L121,56.25l-1.55,3.65-1.4,3.28a1,1,0,0,1-.22.33.45.45,0,0,1-.29.15.58.58,0,0,1-.31-.1.69.69,0,0,1-.27-.34l-1.43-3.09-1.65-3.53q-.87-1.84-1.75-3.75l-1.71-3.68-4-8.53v20a2.31,2.31,0,0,0,.36,1.55,2,2,0,0,0,1.31.39l.36,0,.39,0c.41,0,.62.14.62.44s-.21.44-.62.44-.81,0-1.28,0-1,0-1.58,0-1.14,0-1.64,0-.95,0-1.33,0-.62-.15-.62-.44.2-.44.62-.44l.41,0,.38,0a1.84,1.84,0,0,0,1.28-.39,2.5,2.5,0,0,0,.32-1.55V39.06a1.85,1.85,0,0,0-.73-1.21,3.49,3.49,0,0,0-1.69-.29c-.41,0-.61-.15-.61-.46s.2-.46.61-.46h1.08l1.76,0,1.53,0h1.16A.54.54,0,0,1,109,37"/><path
        class="cls-1"
        d="M141.77,63.44c-1.16,0-2.11,0-2.85,0l-1.69,0c-.41,0-.61-.15-.61-.46s.21-.46.61-.46l.41,0,.38,0a1.8,1.8,0,0,0,1.28-.39,2.47,2.47,0,0,0,.32-1.55V39.4a2.09,2.09,0,0,0-.36-1.46,2,2,0,0,0-1.31-.38l-.36,0h-.39c-.41,0-.61-.15-.61-.44s.2-.44.61-.44l1.53,0q1,0,2.7,0H143l2.46,0,2.88,0,2.9,0,2.49,0,1.69,0a.5.5,0,0,1,.55.34q.27.89.48,1.62c.14.49.28,1,.42,1.4l.45,1.33c.15.45.31.93.49,1.45a.32.32,0,0,1,0,.31.52.52,0,0,1-.25.21.41.41,0,0,1-.55-.13l-1-1.64a13,13,0,0,0-.87-1.24,9.62,9.62,0,0,0-.85-.93,5.5,5.5,0,0,0-1-.76,6.41,6.41,0,0,0-2.47-.8,25.76,25.76,0,0,0-3.59-.22h-3.62V49.36h2.87a11.18,11.18,0,0,0,2.54-.24,3.3,3.3,0,0,0,1.53-.78,3.36,3.36,0,0,0,.83-1.43,13.56,13.56,0,0,0,.44-2.15.4.4,0,0,1,.44-.34.42.42,0,0,1,.29.1.31.31,0,0,1,.12.24c0,.8,0,1.59,0,2.4s0,1.62,0,2.44,0,1.8,0,2.68,0,1.73,0,2.57a.28.28,0,0,1-.14.26.54.54,0,0,1-.31.09.38.38,0,0,1-.41-.34,12.21,12.21,0,0,0-.39-2,3.14,3.14,0,0,0-.86-1.41,3.61,3.61,0,0,0-1.56-.83,9.53,9.53,0,0,0-2.54-.27h-2.87V59.7a6.85,6.85,0,0,0,.12,1.44,1.56,1.56,0,0,0,.48.88,2,2,0,0,0,1,.45,9,9,0,0,0,1.6.12h2.35a14.43,14.43,0,0,0,3.22-.32A9,9,0,0,0,155,61.21a9.94,9.94,0,0,0,2.34-2,24,24,0,0,0,2.27-3.09.59.59,0,0,1,.22-.24.46.46,0,0,1,.39,0,.32.32,0,0,1,.22.31.89.89,0,0,1-.05.41l-1.4,3.6-1.16,3a.5.5,0,0,1-.55.35l-1.86,0-2.78,0-3.22,0-3.2,0h-2.69"/><path
        class="cls-1"
        d="M181.92,60.57a7.53,7.53,0,0,0,1.31,1.51,2.09,2.09,0,0,0,1.11.51l.36,0,.39,0c.41,0,.61.14.61.44s-.2.44-.61.44h-.41a2.15,2.15,0,0,0-.36,0l-.63,0-1.29,0-1.25,0-.58,0a1.86,1.86,0,0,0-.32,0h-.48a1.41,1.41,0,0,1-1.2-.72c-.2-.32-.48-.73-.83-1.23s-.73-1.05-1.12-1.66l-1.25-1.84c-.43-.62-.84-1.21-1.21-1.77l-1-1.48-.65-1c-.34-.49-.65-.92-.92-1.26a5,5,0,0,0-.8-.81,2.28,2.28,0,0,0-.82-.43,3.76,3.76,0,0,0-1-.12h-.49a3,3,0,0,0-.49,0v9.37a2.32,2.32,0,0,0,.36,1.55,2,2,0,0,0,1.31.39l.53,0,.56,0c.41,0,.61.14.61.44s-.2.44-.61.44l-1.71,0c-.75,0-1.7,0-2.86,0s-2.11,0-2.84,0l-1.69,0c-.41,0-.61-.15-.61-.44s.2-.44.61-.44l.41,0,.38,0a1.83,1.83,0,0,0,1.28-.39,2.5,2.5,0,0,0,.32-1.55V39.4a2.1,2.1,0,0,0-.36-1.46,2,2,0,0,0-1.31-.38l-.36,0-.39,0c-.41,0-.62-.14-.62-.44s.2-.44.62-.44h.6l.79,0,1.09,0,1.48,0,2.27-.07q1.38,0,3.08,0a23.56,23.56,0,0,1,4,.32,10,10,0,0,1,3.34,1.16,6.45,6.45,0,0,1,2.32,2.26,6.9,6.9,0,0,1,.87,3.64,4.8,4.8,0,0,1-.63,2.45,7.53,7.53,0,0,1-1.58,1.91,9.79,9.79,0,0,1-2.1,1.37,12.67,12.67,0,0,1-2.13.84c.45.63,1,1.36,1.52,2.17l1.75,2.53c.62.88,1.23,1.77,1.86,2.68s1.24,1.79,1.82,2.63m-13-10.07c.28,0,.57,0,.87,0q3.92,0,5.74-1.58t1.82-5.12a6.17,6.17,0,0,0-1.74-4.73,7,7,0,0,0-5-1.63,2.76,2.76,0,0,0-2.06.61,2.87,2.87,0,0,0-.56,2V50.45l.9,0"/><path
        class="cls-1"
        d="M206.7,54.1a.36.36,0,0,1,.37-.34.3.3,0,0,1,.34.34v8.83a.38.38,0,0,1-.34.41c-.16,0-.29-.08-.41-.31s-.36-.77-.53-1.16-.37-.58-.6-.58a2.09,2.09,0,0,0-.92.45,15.05,15.05,0,0,1-1.72,1,16.21,16.21,0,0,1-2.57,1,12.27,12.27,0,0,1-3.48.44,13.32,13.32,0,0,1-5.15-1,12,12,0,0,1-4.14-2.83,13.25,13.25,0,0,1-2.76-4.45,16.06,16.06,0,0,1-1-5.81,14.67,14.67,0,0,1,1.07-5.71,13.69,13.69,0,0,1,2.9-4.42A13,13,0,0,1,197,36.06a11.48,11.48,0,0,1,3.19.41,18.07,18.07,0,0,1,2.47.89c.71.32,1.3.61,1.79.87a2.68,2.68,0,0,0,1.11.39.85.85,0,0,0,.72-.31,3.52,3.52,0,0,0,.48-1c.09-.23.22-.34.38-.34s.31.11.31.34v8.86c0,.3-.12.45-.38.45s-.36-.15-.41-.45a11.9,11.9,0,0,0-1-3.8,10.49,10.49,0,0,0-2-2.9,8.37,8.37,0,0,0-2.73-1.86,8.21,8.21,0,0,0-3.24-.65,8,8,0,0,0-3.78.93,9.59,9.59,0,0,0-3.11,2.66,13.27,13.27,0,0,0-2.09,4.14,17.69,17.69,0,0,0-.77,5.38,20.29,20.29,0,0,0,.67,5.4,12.49,12.49,0,0,0,1.9,4.09,8.48,8.48,0,0,0,3,2.6,8.61,8.61,0,0,0,4,.92,8.36,8.36,0,0,0,5.93-2.27,12,12,0,0,0,3.28-6.73"/><path
        class="cls-1"
        d="M216.43,62.2a2,2,0,0,0,1.31.39l.36,0,.4,0c.41,0,.61.14.61.44s-.2.44-.61.44l-1.54,0c-.64,0-1.53,0-2.7,0s-2.11,0-2.84,0l-1.69,0c-.41,0-.61-.15-.61-.44s.2-.44.61-.44l.41,0,.37,0a1.82,1.82,0,0,0,1.28-.39,2.51,2.51,0,0,0,.32-1.55V39.41a2.11,2.11,0,0,0-.36-1.46,2,2,0,0,0-1.31-.38l-.36,0h-.39c-.41,0-.62-.15-.62-.44s.21-.44.62-.44l1.53,0c.64,0,1.54,0,2.69,0s2.11,0,2.85,0l1.69,0c.41,0,.61.15.61.44s-.21.44-.61.44h-.41l-.38,0a1.8,1.8,0,0,0-1.28.39,2.47,2.47,0,0,0-.33,1.55V60.64a2.29,2.29,0,0,0,.36,1.55"/><path
        class="cls-1"
        d="M242.71,61a5,5,0,0,0,.63,1.1,1.47,1.47,0,0,0,1.2.57l.29,0,.36,0a.74.74,0,0,1,.49.11.47.47,0,0,1,.12.33c0,.3-.2.44-.62.44l-1.53,0q-1,0-2.66,0c-1.16,0-2.25,0-3.27,0l-2.11,0c-.41,0-.62-.14-.62-.44s.2-.44.62-.44l.92,0,.85-.06c.63,0,1-.27,1.1-.68a3,3,0,0,0-.29-1.74l-1-2.69c-.3-.82-.57-1.53-.8-2.11s-.47-1.34-.68-1.91h-8.83c-.21.55-.42,1.14-.65,1.78s-.4,1.17-.65,1.86-.53,1.43-.82,2.2a5.88,5.88,0,0,0-.49,2.35c.06.5.49.82,1.31,1a1.77,1.77,0,0,0,.46.06l.5,0c.48,0,.71.14.71.44s-.2.44-.61.44l-1.55,0c-.65,0-1.37,0-2.16,0-.41,0-.75,0-1,0l-.63,0-.48,0-.49,0c-.41,0-.61-.14-.61-.44s.21-.38.61-.44a4.77,4.77,0,0,0,.94-.21A1.8,1.8,0,0,0,222,62a4.35,4.35,0,0,0,.64-1c.22-.45.47-1.06.77-1.83l1.5-4c.57-1.51,1.16-3.09,1.77-4.74s1.23-3.3,1.86-4.95l1.73-4.55a1.5,1.5,0,0,0,.14-.72,2.55,2.55,0,0,0-.21-.72A2.2,2.2,0,0,1,230,39c0-.08,0-.18.15-.29a9.35,9.35,0,0,0,1.36-1.21,10.46,10.46,0,0,0,1.09-1.42.94.94,0,0,0,.14-.15.22.22,0,0,1,.17-.09c.11,0,.19.09.24.27l1.4,3.63,1.74,4.54c.62,1.6,1.24,3.25,1.88,4.93S239.42,52.47,240,54s1.1,2.88,1.58,4.09L242.71,61m-7.4-8.63-4.16-10.67L227.3,52.33Z"/><path
        class="cls-1"
        d="M251.24,63.44c-1.16,0-2.11,0-2.85,0l-1.68,0c-.41,0-.62-.15-.62-.46s.21-.46.62-.46l.41,0,.37,0a1.82,1.82,0,0,0,1.28-.39,2.49,2.49,0,0,0,.33-1.55V39.4a2.08,2.08,0,0,0-.36-1.46,2,2,0,0,0-1.31-.38l-.36,0h-.39c-.41,0-.61-.15-.61-.44s.2-.44.61-.44l1.53,0c.64,0,1.53,0,2.7,0s2.18,0,3.07,0l1.91,0c.41,0,.61.15.61.44s-.2.44-.61.44h-.61l-.38,0h-.24a1.81,1.81,0,0,0-1.28.39A2.47,2.47,0,0,0,253,39.5V59.93a6.83,6.83,0,0,0,.12,1.45,1.28,1.28,0,0,0,.5.8,2.13,2.13,0,0,0,1,.34c.45,0,1,.07,1.72.07H259a12.91,12.91,0,0,0,3.26-.35,7.17,7.17,0,0,0,2.45-1.18,9.8,9.8,0,0,0,2.08-2.18q1-1.37,2.13-3.38l.41-.73c.14-.24.31-.35.52-.33a.3.3,0,0,1,.31.36,5.12,5.12,0,0,1-.17.8c-.09.37-.21.83-.36,1.4s-.3,1.18-.46,1.83-.32,1.3-.49,2-.33,1.28-.46,1.85a1.17,1.17,0,0,1-.37.69,1.57,1.57,0,0,1-.82.16l-2.54,0-3.05,0h-8.62"/><path
        class="cls-1"
        d="M54.91,17.73a5.36,5.36,0,0,0,1.2-.22c.12,0,.19,0,.2.1s.06.33.12.59l.19.88.22,1c.07.35.14.66.19,1,0,.12,0,.2-.08.22a.11.11,0,0,1-.13,0l-.08-.1c-.29-.53-.55-1-.78-1.35a5,5,0,0,0-.69-.9,2.25,2.25,0,0,0-.74-.51,2.45,2.45,0,0,0-.92-.16h-2a.41.41,0,0,0-.22.06.27.27,0,0,0-.09.24v11a1.12,1.12,0,0,0,.18.76,1,1,0,0,0,.64.19h.45c.2,0,.3.07.3.22s-.1.22-.3.22l-.79,0-1.36,0-1.44,0-.87,0c-.2,0-.3-.07-.3-.22s.1-.22.3-.22h.47a.88.88,0,0,0,.62-.19,1.2,1.2,0,0,0,.16-.76v-11a.27.27,0,0,0-.09-.24.39.39,0,0,0-.23-.06H47a2.46,2.46,0,0,0-.92.16,2.22,2.22,0,0,0-.75.51,4.93,4.93,0,0,0-.69.9c-.23.37-.49.82-.78,1.35l-.08.1a.11.11,0,0,1-.13,0c-.08,0-.11-.09-.08-.22.06-.29.12-.61.19-1l.22-1c.07-.32.14-.62.19-.88s.09-.46.12-.59.08-.13.2-.1a5.35,5.35,0,0,0,1.2.22l1.15,0h6.91l1.15,0"/><path
        class="cls-1"
        d="M66.48,30.39a.75.75,0,0,0,.51.15h.29c.16,0,.24.05.24.17s-.08.17-.24.17H63.87c-.16,0-.24-.06-.24-.17s.08-.17.24-.17h.31a.7.7,0,0,0,.5-.15,1,1,0,0,0,.13-.61V25.73H59.38v4.06a.92.92,0,0,0,.14.61.76.76,0,0,0,.51.15h.29c.16,0,.24.05.24.17s-.08.17-.24.17H56.91c-.16,0-.24-.06-.24-.17s.08-.17.24-.17h.31a.7.7,0,0,0,.5-.15,1,1,0,0,0,.13-.61V21.5a.81.81,0,0,0-.14-.57.79.79,0,0,0-.51-.15H56.9c-.16,0-.24-.06-.24-.17s.08-.17.24-.17h3.42c.16,0,.24.05.24.17s-.08.17-.24.17H60a.71.71,0,0,0-.5.15,1,1,0,0,0-.13.61v3.78H64.8V21.5a.82.82,0,0,0-.14-.57.8.8,0,0,0-.51-.15h-.29c-.16,0-.24-.06-.24-.17s.08-.17.24-.17h3.42c.16,0,.24.05.24.17s-.08.17-.24.17H67a.71.71,0,0,0-.5.15,1,1,0,0,0-.13.61v8.25a.89.89,0,0,0,.14.61"/><path
        class="cls-1"
        d="M70,30.88H68.27c-.16,0-.24-.06-.24-.18s.08-.18.24-.18h.3a.72.72,0,0,0,.5-.15,1,1,0,0,0,.13-.61V21.5a.82.82,0,0,0-.14-.57.8.8,0,0,0-.51-.15h-.29c-.16,0-.24-.06-.24-.17s.08-.17.24-.17h5.49l1,0h.66a.19.19,0,0,1,.21.13c.07.23.13.44.19.63s.11.37.17.55l.17.52.19.56v.12l-.1.08a.16.16,0,0,1-.21-.05l-.4-.64a5,5,0,0,0-.34-.48,3.52,3.52,0,0,0-.33-.37,2,2,0,0,0-.39-.29,2.49,2.49,0,0,0-1-.31,10.11,10.11,0,0,0-1.4-.09H70.75v4.62h1.12a4.31,4.31,0,0,0,1-.09,1.17,1.17,0,0,0,.92-.86,5.23,5.23,0,0,0,.17-.84.16.16,0,0,1,.17-.13l.11,0,0,.09c0,.31,0,.62,0,.94s0,.63,0,1,0,.7,0,1,0,.67,0,1l-.05.1-.12,0a.15.15,0,0,1-.16-.13,4.64,4.64,0,0,0-.15-.8,1.26,1.26,0,0,0-.33-.55,1.45,1.45,0,0,0-.61-.32,3.78,3.78,0,0,0-1-.11H70.75v3.68a2.93,2.93,0,0,0,0,.56.62.62,0,0,0,.19.34.76.76,0,0,0,.38.17,3.33,3.33,0,0,0,.63,0h.92a5.6,5.6,0,0,0,1.26-.13,3.56,3.56,0,0,0,1-.41,3.94,3.94,0,0,0,.91-.77A9.24,9.24,0,0,0,77,28l.09-.09a.18.18,0,0,1,.16,0,.13.13,0,0,1,.09.12.37.37,0,0,1,0,.16l-.55,1.4-.45,1.17a.2.2,0,0,1-.21.14H70.71"/><path class="cls-2" d="M275.42,71.85h1.79a1.92,1.92,0,1,1,0,3.83h-.91v2.39h-.88Zm1.7,3.1a1.18,1.18,0,1,0,0-2.36h-.82v2.36Z"/><path class="cls-2" d="M281.82,71.85h.78l2.55,6.22h-.94l-.64-1.63h-2.76l-.64,1.63h-.92Zm1.46,3.86-.59-1.53c-.09-.23-.47-1.19-.48-1.27h0c0,.08-.38,1-.48,1.27l-.6,1.53Z"/><path class="cls-2" d="M286,71.85h1.8a1.82,1.82,0,0,1,2.07,1.84,1.73,1.73,0,0,1-1.58,1.76l1.91,2.62h-1l-1.8-2.54h-.49v2.54H286Zm1.7,3c.82,0,1.28-.44,1.28-1.12s-.46-1.12-1.28-1.12h-.82v2.23Z"/><path class="cls-2" d="M292.34,72.6h-1.77v-.75H295v.75h-1.77v5.47h-.88Z"/><path class="cls-2" d="M297.27,75a3.27,3.27,0,1,1,3.27,3.24A3.16,3.16,0,0,1,297.27,75Zm5.64,0a2.37,2.37,0,1,0-2.38,2.45A2.32,2.32,0,0,0,302.91,75Z"/><path class="cls-2" d="M305.07,71.85h3.14v.75H306v2h2.19v.75H306v2.71h-.88Z"/><path class="cls-2" d="M312.18,72.6h-1.77v-.75h4.42v.75h-1.77v5.47h-.88Z"/><path class="cls-2" d="M315.75,71.85h.88V74.4h3.26V71.85h.88v6.22h-.88V75.15h-3.26v2.92h-.88Z"/><path class="cls-2" d="M322.39,71.85h3.39v.75h-2.51V74.4h2.44v.75h-2.44v2.18h2.56v.74h-3.44Z"/><path class="cls-2" d="M328.77,75.93V71.85h.89v3.81c0,1.08.46,1.75,1.5,1.75s1.51-.66,1.51-1.75V71.85h.89v4.08a2.39,2.39,0,0,1-4.78,0Z"/><path
        class="cls-2"
        d="M334.47,76.95l.59-.51a1.8,1.8,0,0,0,1.56,1,1.08,1.08,0,0,0,1.21-1.06c0-.73-.61-1-1.37-1.28s-1.57-.7-1.57-1.69a1.7,1.7,0,0,1,1.88-1.67,2.09,2.09,0,0,1,1.83.94l-.59.51a1.41,1.41,0,0,0-1.23-.67c-.6,0-1,.31-1,.83s.62.86,1.16,1.07c.88.35,1.78.76,1.78,1.91a1.89,1.89,0,0,1-2.07,1.89A2.41,2.41,0,0,1,334.47,76.95Z"/><path class="cls-2" d="M341.74,71.85h.78l2.55,6.22h-.94l-.64-1.63h-2.76l-.64,1.63h-.92Zm1.46,3.86-.59-1.53c-.09-.23-.47-1.19-.48-1.27h0c0,.08-.38,1-.48,1.27L341,75.7Z"/><path class="cls-2" d="M348.78,72.6H347v-.75h4.42v.75h-1.77v5.47h-.88Z"/><path class="cls-2" d="M351.76,75A3.27,3.27,0,1,1,355,78.2,3.16,3.16,0,0,1,351.76,75Zm5.64,0A2.37,2.37,0,1,0,355,77.41,2.32,2.32,0,0,0,357.4,75Z"/><path class="cls-2" d="M359.57,71.85h1.76a3.12,3.12,0,1,1,0,6.22h-1.76Zm.88,5.47h.82a2.36,2.36,0,1,0,0-4.72h-.82Z"/><path class="cls-2" d="M367.48,71.85h.78l2.55,6.22h-.94l-.64-1.63h-2.76l-.64,1.63h-.92Zm1.46,3.86-.59-1.53c-.09-.23-.47-1.19-.48-1.27h0c0,.08-.38,1-.48,1.27l-.6,1.53Z"/><path class="cls-2" d="M372.57,75.54l-2.12-3.69h1l1.15,2.08a9.19,9.19,0,0,1,.44.89h0a9.43,9.43,0,0,1,.44-.89l1.16-2.08h1l-2.12,3.69v2.54h-.91Z"/><path class="cls-2" d="M378.18,71.85h.67l3.53,4c.11.12.57.69.61.78h0c0-.09,0-.81,0-1V71.85h.85v6.22h-.68l-3.53-4c-.11-.11-.57-.69-.61-.78h0c0,.09,0,.81,0,1v3.84h-.85Z"/><path class="cls-2" d="M385.46,71.85h3.39v.75h-2.51V74.4h2.44v.75h-2.44v2.18h2.56v.74h-3.44Z"/><path class="cls-2" d="M391.6,72.6h-1.77v-.75h4.42v.75h-1.77v5.47h-.88Z"/><path
        class="cls-2"
        d="M395,71.85h.93l1.28,3.7c0,.14.35,1.06.35,1.2h0a12.42,12.42,0,0,1,.37-1.2l1.33-3.7h.7l1.33,3.7c.05.14.36,1.06.37,1.2h0c0-.14.32-1.06.36-1.2l1.27-3.7h.89L402,78.07h-.67l-1.44-3.88a10.38,10.38,0,0,1-.3-1h0a10.43,10.43,0,0,1-.31,1l-1.43,3.88h-.67Z"/><path class="cls-2" d="M404.6,75a3.27,3.27,0,1,1,3.27,3.24A3.16,3.16,0,0,1,404.6,75Zm5.64,0a2.37,2.37,0,1,0-2.38,2.45A2.32,2.32,0,0,0,410.24,75Z"/><path class="cls-2" d="M412.41,71.85h1.8a1.82,1.82,0,0,1,2.07,1.84,1.73,1.73,0,0,1-1.58,1.76l1.91,2.62h-1l-1.8-2.54h-.49v2.54h-.88Zm1.7,3c.82,0,1.28-.44,1.28-1.12s-.46-1.12-1.28-1.12h-.82v2.23Z"/><path class="cls-2" d="M417.6,71.85h.88v2.89L421,71.85h1.06l-2.67,3,2.79,3.25h-1.1l-2.66-3.15v3.15h-.88Z"/></svg>
