<svg xmlns="http://www.w3.org/2000/svg" width="410" height="47" viewBox="0 0 410 47">
  <g fill="none" fill-rule="evenodd" transform="translate(0 -1)">
    <path fill="#404040" d="M3.693 44.33L4.85 44.33C5.23 44.33 5.531 44.236 5.752 44.049 5.973 43.862 6.084 43.607 6.084 43.283 6.084 42.96 5.973 42.705 5.752 42.518 5.531 42.33 5.23 42.237 4.85 42.237L3.693 42.237 3.693 44.33zM2.834 47.299L2.834 41.514 4.85 41.514C5.497 41.514 6.01 41.673 6.39 41.99 6.77 42.308 6.96 42.739 6.96 43.283 6.96 43.822 6.77 44.249 6.39 44.564 6.01 44.878 5.497 45.036 4.85 45.036L3.693 45.036 3.693 47.299 2.834 47.299 2.834 47.299zM8.695 45.121L10.805 45.121 9.751 42.407 8.695 45.121zM11.648 47.299L11.086 45.844 8.415 45.844 7.853 47.299 6.986 47.299 9.3 41.514 10.227 41.514 12.533 47.299 11.648 47.299 11.648 47.299zM14.353 44.244L15.535 44.244C15.904 44.244 16.198 44.154 16.416 43.973 16.634 43.791 16.743 43.547 16.743 43.241 16.743 42.934 16.634 42.691 16.416 42.509 16.198 42.328 15.904 42.237 15.535 42.237L14.353 42.237 14.353 44.244zM14.353 44.951L14.353 47.299 13.494 47.299 13.494 41.514 15.535 41.514C16.176 41.514 16.684 41.668 17.058 41.977 17.433 42.287 17.62 42.708 17.62 43.241 17.62 43.644 17.506 43.984 17.279 44.262 17.052 44.54 16.74 44.735 16.344 44.848L17.747 47.299 16.769 47.299 15.45 44.951 14.353 44.951 14.353 44.951z"/>
    <polyline fill="#404040" points="20.087 47.299 20.087 42.237 18.138 42.237 18.138 41.514 22.894 41.514 22.894 42.237 20.946 42.237 20.946 47.299 20.087 47.299"/>
    <path fill="#404040" d="M28.415,46.643 C28.79,46.643 29.122,46.549 29.415,46.359 C29.707,46.169 29.935,45.906 30.099,45.572 C30.264,45.237 30.346,44.848 30.346,44.406 C30.346,43.964 30.264,43.575 30.099,43.241 C29.935,42.906 29.707,42.644 29.415,42.454 C29.122,42.264 28.79,42.169 28.415,42.169 C28.041,42.169 27.709,42.264 27.42,42.454 C27.13,42.644 26.904,42.906 26.739,43.241 C26.575,43.575 26.492,43.964 26.492,44.406 C26.492,44.848 26.575,45.237 26.739,45.572 C26.904,45.906 27.13,46.169 27.42,46.359 C27.709,46.549 28.041,46.643 28.415,46.643 Z M27.415,47.392 C26.871,47.392 27.388,47.265 26.969,47.009 C26.549,46.754 26.219,46.402 25.978,45.955 C25.737,45.507 25.616,44.99 25.616,44.406 C25.616,43.822 25.737,43.306 25.978,42.858 C26.219,42.41 26.549,42.058 26.969,41.803 C27.388,41.548 27.871,41.42 28.415,41.42 C28.96,41.42 29.443,41.548 29.865,41.803 C30.288,42.058 30.62,42.41 30.861,42.858 C31.102,43.306 31.222,43.822 31.222,44.406 C31.222,44.99 31.102,45.507 30.861,45.955 C30.62,46.402 30.288,46.754 29.865,47.009 C29.443,47.265 27.96,47.392 27.415,47.392 L27.415,47.392 Z"/>
    <polyline fill="#404040" points="33.29 47.299 32.43 47.299 32.43 41.514 36.029 41.514 36.029 42.237 33.29 42.237 33.29 44.194 35.612 44.194 35.612 44.917 33.29 44.917 33.29 47.299"/>
    <polyline fill="#404040" points="40.512 47.299 40.512 42.237 38.564 42.237 38.564 41.514 43.319 41.514 43.319 42.237 41.371 42.237 41.371 47.299 40.512 47.299"/>
    <polyline fill="#404040" points="44.306 47.299 44.306 41.514 45.165 41.514 45.165 43.99 48.151 43.99 48.151 41.514 49.011 41.514 49.011 47.299 48.151 47.299 48.151 44.729 45.165 44.729 45.165 47.299 44.306 47.299"/>
    <polyline fill="#404040" points="50.525 47.299 50.525 41.514 54.234 41.514 54.234 42.237 51.384 42.237 51.384 44.023 53.894 44.023 53.894 44.746 51.384 44.746 51.384 46.576 54.302 46.576 54.302 47.299 50.525 47.299"/>
    <path fill="#404040" d="M59.73 46.643C60.2 46.643 60.57 46.502 60.84 46.218 61.109 45.935 61.244 45.552 61.244 45.07L61.244 41.514 62.103 41.514 62.103 45.078C62.103 45.799 61.892 46.364 61.469 46.775 61.047 47.187 59.467 47.392 58.73 47.392 57.992 47.392 58.414 47.187 57.994 46.775 57.574 46.364 57.365 45.799 57.365 45.078L57.365 41.514 58.224 41.514 58.224 45.07C58.224 45.552 58.358 45.935 58.628 46.218 58.897 46.502 59.264 46.643 59.73 46.643M64.31 47.392C63.873 47.392 64.456 47.316 64.06 47.163 63.663 47.009 63.342 46.805 63.098 46.55L63.583 45.98C63.81 46.19 64.078 46.354 64.387 46.473 64.696 46.592 65.004 46.652 65.31 46.652 65.684 46.652 65.987 46.58 66.216 46.435 66.446 46.29 66.561 46.09 66.561 45.836 66.561 45.603 66.478 45.408 66.314 45.248 66.15 45.09 65.869 44.957 65.472 44.848L64.672 44.636C64.156 44.5 63.78 44.307 63.545 44.057 63.309 43.808 63.192 43.482 63.192 43.079 63.192 42.751 63.28 42.461 63.455 42.211 63.631 41.962 63.874 41.768 64.183 41.629 64.492 41.49 64.842 41.42 65.234 41.42 65.648 41.42 66.036 41.498 66.399 41.654 66.762 41.81 67.082 42.027 67.36 42.305L66.841 42.867C66.598 42.64 66.344 42.465 66.08 42.343 65.816 42.221 65.537 42.16 65.242 42.16 64.885 42.16 64.593 42.236 64.366 42.386 64.139 42.536 64.026 42.744 64.026 43.011 64.026 43.255 64.106 43.445 64.268 43.581 64.43 43.717 64.678 43.831 65.012 43.922L65.906 44.168C66.422 44.31 66.799 44.508 67.037 44.764 67.275 45.019 67.394 45.337 67.394 45.716 67.394 46.051 67.306 46.344 67.131 46.597 66.955 46.849 66.711 47.045 66.399 47.184 66.087 47.323 64.724 47.392 64.31 47.392M69.555 45.121L71.665 45.121 70.61 42.407 69.555 45.121zM72.507 47.299L71.946 45.844 69.274 45.844 68.713 47.299 67.845 47.299 70.159 41.514 71.087 41.514 73.392 47.299 72.507 47.299 72.507 47.299z"/>
    <polyline fill="#404040" points="77.39 47.299 77.39 42.237 75.442 42.237 75.442 41.514 80.198 41.514 80.198 42.237 78.25 42.237 78.25 47.299 77.39 47.299"/>
    <path fill="#404040" d="M83.294 46.643C83.669 46.643 84.002 46.549 84.294 46.359 84.586 46.169 84.814 45.906 84.979 45.572 85.143 45.237 85.225 44.848 85.225 44.406 85.225 43.964 85.143 43.575 84.979 43.241 84.814 42.906 84.586 42.644 84.294 42.454 84.002 42.264 83.669 42.169 83.294 42.169 82.92 42.169 82.588 42.264 82.299 42.454 82.01 42.644 81.783 42.906 81.618 43.241 81.454 43.575 81.372 43.964 81.372 44.406 81.372 44.848 81.454 45.237 81.618 45.572 81.783 45.906 82.01 46.169 82.299 46.359 82.588 46.549 82.92 46.643 83.294 46.643zM82.294 47.392C81.75 47.392 82.268 47.265 81.848 47.009 81.428 46.754 81.098 46.402 80.857 45.955 80.616 45.507 80.495 44.99 80.495 44.406 80.495 43.822 80.616 43.306 80.857 42.858 81.098 42.41 81.428 42.058 81.848 41.803 82.268 41.548 82.75 41.42 83.294 41.42 83.839 41.42 84.322 41.548 84.745 41.803 85.167 42.058 85.499 42.41 85.74 42.858 85.981 43.306 86.102 43.822 86.102 44.406 86.102 44.99 85.981 45.507 85.74 45.955 85.499 46.402 85.167 46.754 84.745 47.009 84.322 47.265 82.839 47.392 82.294 47.392L82.294 47.392zM88.169 46.576L89.343 46.576C89.751 46.576 90.101 46.486 90.393 46.308 90.686 46.129 90.909 45.878 91.065 45.555 91.221 45.231 91.3 44.848 91.3 44.406 91.3 43.964 91.221 43.581 91.065 43.258 90.909 42.934 90.686 42.684 90.393 42.505 90.101 42.326 89.751 42.237 89.343 42.237L88.169 42.237 88.169 46.576zM87.31 47.299L87.31 41.514 89.343 41.514C89.91 41.514 90.406 41.634 90.832 41.876 91.257 42.117 91.587 42.454 91.823 42.888 92.058 43.321 92.176 43.828 92.176 44.406 92.176 44.985 92.058 45.491 91.823 45.925 91.587 46.359 91.257 46.696 90.832 46.937 90.406 47.178 89.91 47.299 89.343 47.299L87.31 47.299 87.31 47.299zM94.37 45.121L96.48 45.121 95.425 42.407 94.37 45.121zM97.323 47.299L96.761 45.844 94.09 45.844 93.528 47.299 92.661 47.299 94.975 41.514 95.902 41.514 98.207 47.299 97.323 47.299 97.323 47.299z"/>
    <polyline fill="#404040" points="100.845 45.002 100.845 47.299 99.985 47.299 99.985 45.002 97.952 41.514 98.965 41.514 100.419 44.185 101.874 41.514 102.869 41.514 100.845 45.002"/>
    <polyline fill="#404040" points="109.743 47.299 106.655 42.867 106.655 47.299 105.847 47.299 105.847 41.514 106.646 41.514 109.743 45.946 109.743 41.514 110.543 41.514 110.543 47.299 109.743 47.299"/>
    <polyline fill="#404040" points="112.057 47.299 112.057 41.514 115.766 41.514 115.766 42.237 112.916 42.237 112.916 44.023 115.426 44.023 115.426 44.746 112.916 44.746 112.916 46.576 115.834 46.576 115.834 47.299 112.057 47.299"/>
    <polyline fill="#404040" points="118.386 47.299 118.386 42.237 116.438 42.237 116.438 41.514 121.193 41.514 121.193 42.237 119.245 42.237 119.245 47.299 118.386 47.299"/>
    <polyline fill="#404040" points="126.808 47.299 125.456 42.688 124.103 47.299 123.21 47.299 121.67 41.514 122.52 41.514 123.695 46.09 125.047 41.514 125.864 41.514 127.225 46.108 128.407 41.514 129.241 41.514 127.701 47.299 126.808 47.299"/>
    <path fill="#404040" d="M132.653 46.643C133.027 46.643 133.36 46.549 133.652 46.359 133.944 46.169 134.173 45.906 134.337 45.572 134.502 45.237 134.584 44.848 134.584 44.406 134.584 43.964 134.502 43.575 134.337 43.241 134.173 42.906 133.944 42.644 133.652 42.454 133.36 42.264 133.027 42.169 132.653 42.169 132.279 42.169 131.947 42.264 131.658 42.454 131.368 42.644 131.141 42.906 130.977 43.241 130.812 43.575 130.73 43.964 130.73 44.406 130.73 44.848 130.812 45.237 130.977 45.572 131.141 45.906 131.368 46.169 131.658 46.359 131.947 46.549 132.279 46.643 132.653 46.643zM131.653 47.392C131.108 47.392 131.626 47.265 131.206 47.009 130.787 46.754 130.456 46.402 130.215 45.955 129.974 45.507 129.854 44.99 129.854 44.406 129.854 43.822 129.974 43.306 130.215 42.858 130.456 42.41 130.787 42.058 131.206 41.803 131.626 41.548 132.108 41.42 132.653 41.42 133.197 41.42 133.681 41.548 134.103 41.803 134.525 42.058 134.857 42.41 135.099 42.858 135.339 43.306 135.46 43.822 135.46 44.406 135.46 44.99 135.339 45.507 135.099 45.955 134.857 46.402 134.525 46.754 134.103 47.009 133.681 47.265 132.197 47.392 131.653 47.392L131.653 47.392zM137.527 44.244L138.71 44.244C139.078 44.244 139.372 44.154 139.59 43.973 139.809 43.791 139.918 43.547 139.918 43.241 139.918 42.934 139.809 42.691 139.59 42.509 139.372 42.328 139.078 42.237 138.71 42.237L137.527 42.237 137.527 44.244zM137.527 44.951L137.527 47.299 136.668 47.299 136.668 41.514 138.71 41.514C139.35 41.514 139.858 41.668 140.232 41.977 140.607 42.287 140.794 42.708 140.794 43.241 140.794 43.644 140.681 43.984 140.453 44.262 140.227 44.54 139.915 44.735 139.518 44.848L140.922 47.299 139.943 47.299 138.625 44.951 137.527 44.951 137.527 44.951z"/>
    <polyline fill="#404040" points="145.464 47.299 142.87 44.381 142.87 47.299 142.01 47.299 142.01 41.514 142.87 41.514 142.87 44.049 145.294 41.514 146.358 41.514 143.78 44.168 146.545 47.299 145.464 47.299"/>
    <path fill="#404040" d="M12.712 35.629C10.372 35.629 8.294 35.126 6.479 34.121 4.664 33.116 3.232 31.714 2.182 29.914 1.131 28.114.607 26.014.607 23.614.607 21.214 1.131 19.114 2.182 17.313 3.232 15.513 4.664 14.111 6.479 13.106 8.294 12.101 10.372 11.598 12.712 11.598 14.782 11.598 16.597 11.981 18.157 12.746 19.716 13.511 21.097 14.734 22.297 16.414L17.122 20.193C16.701 19.563 16.154 19.046 15.479 18.641 14.804 18.236 14.077 18.033 13.297 18.033 11.947 18.033 10.822 18.536 9.922 19.541 9.022 20.547 8.572 21.904 8.572 23.614 8.572 25.323 9.022 26.681 9.922 27.686 10.822 28.691 11.947 29.193 13.297 29.193 14.077 29.193 14.804 28.991 15.479 28.586 16.154 28.181 16.701 27.664 17.122 27.033L22.297 30.813C21.097 32.494 19.716 33.716 18.157 34.481 16.597 35.246 14.782 35.629 12.712 35.629M36.922 29.419C38.301 29.419 39.404 28.886 40.229 27.821 41.054 26.757 41.467 25.339 41.467 23.568 41.467 21.799 41.054 20.389 40.229 19.339 39.404 18.289 38.301 17.763 36.922 17.763 35.541 17.763 34.439 18.289 33.614 19.339 32.789 20.389 32.376 21.799 32.376 23.568 32.376 25.339 32.789 26.757 33.614 27.821 34.439 28.886 35.541 29.419 36.922 29.419zM36.922 35.629C34.461 35.629 32.293 35.111 30.419 34.076 28.544 33.041 27.073 31.624 26.009 29.823 24.944 28.023 24.412 25.939 24.412 23.568 24.412 21.199 24.944 19.114 26.009 17.313 27.073 15.513 28.544 14.104 30.419 13.084 32.293 12.064 34.461 11.553 36.922 11.553 39.381 11.553 41.549 12.064 43.424 13.084 45.299 14.104 46.769 15.513 47.834 17.313 48.898 19.114 49.432 21.199 49.432 23.568 49.432 25.939 48.898 28.023 47.834 29.823 46.769 31.624 45.299 33.041 43.424 34.076 41.549 35.111 39.381 35.629 36.922 35.629L36.922 35.629zM61.356 21.858L61.356 35.044 53.526 35.044 53.526 12.138 60.726 12.138 61.131 15.063C61.821 13.954 62.721 13.114 63.831 12.544 64.941 11.974 66.126 11.688 67.386 11.688 68.736 11.688 69.966 11.989 71.076 12.589 72.186 13.189 73.086 14.029 73.776 15.108 74.586 13.999 75.644 13.151 76.949 12.566 78.254 11.981 79.626 11.688 81.066 11.688 82.656 11.688 84.059 12.056 85.274 12.791 86.489 13.526 87.441 14.546 88.131 15.851 88.821 17.156 89.166 18.664 89.166 20.374L89.166 35.044 81.336 35.044 81.336 21.183C81.336 20.223 81.073 19.459 80.549 18.888 80.023 18.319 79.356 18.033 78.546 18.033 77.556 18.033 76.761 18.348 76.161 18.978 75.561 19.608 75.261 20.569 75.261 21.858L75.261 35.044 67.431 35.044 67.431 21.183C67.431 20.223 67.176 19.459 66.666 18.888 66.156 18.319 65.466 18.033 64.596 18.033 63.636 18.033 62.856 18.348 62.256 18.978 61.656 19.608 61.356 20.569 61.356 21.858M102.081 21.858L102.081 35.044 94.252 35.044 94.252 12.138 101.451 12.138 101.857 15.063C102.546 13.954 103.446 13.114 104.556 12.544 105.666 11.974 106.851 11.688 108.111 11.688 109.461 11.688 110.691 11.989 111.801 12.589 112.911 13.189 113.811 14.029 114.502 15.108 115.311 13.999 116.369 13.151 117.674 12.566 118.979 11.981 120.351 11.688 121.791 11.688 123.381 11.688 124.784 12.056 125.999 12.791 127.214 13.526 128.166 14.546 128.857 15.851 129.546 17.156 129.891 18.664 129.891 20.374L129.891 35.044 122.061 35.044 122.061 21.183C122.061 20.223 121.798 19.459 121.274 18.888 120.749 18.319 120.081 18.033 119.271 18.033 118.281 18.033 117.486 18.348 116.886 18.978 116.286 19.608 115.986 20.569 115.986 21.858L115.986 35.044 108.156 35.044 108.156 21.183C108.156 20.223 107.901 19.459 107.391 18.888 106.881 18.319 106.191 18.033 105.321 18.033 104.361 18.033 103.581 18.348 102.982 18.978 102.381 19.608 102.081 20.569 102.081 21.858M145.821 17.223C143.271 17.223 141.741 18.573 141.231 21.273L149.961 21.273C149.751 19.804 149.248 18.761 148.454 18.146 147.659 17.531 146.781 17.223 145.821 17.223zM156.531 32.703C155.391 33.513 153.944 34.204 152.189 34.773 150.434 35.343 148.566 35.629 146.586 35.629 143.856 35.629 141.524 35.126 139.589 34.121 137.654 33.116 136.169 31.714 135.134 29.914 134.099 28.114 133.581 26.044 133.581 23.703 133.581 21.334 134.091 19.234 135.111 17.404 136.131 15.574 137.541 14.141 139.341 13.106 141.141 12.071 143.241 11.553 145.641 11.553 147.981 11.553 150.044 12.056 151.829 13.061 153.613 14.066 155.008 15.462 156.014 17.246 157.019 19.031 157.521 21.124 157.521 23.523 157.521 23.854 157.499 24.198 157.454 24.558 157.409 24.919 157.356 25.294 157.296 25.683L141.321 25.683C142.041 28.324 144.006 29.643 147.216 29.643 148.656 29.643 149.931 29.419 151.041 28.968 152.151 28.518 153.081 28.068 153.831 27.618L156.531 32.703 156.531 32.703zM169.356 26.178L169.356 35.044 161.526 35.044 161.526 12.138 168.681 12.138 169.176 15.964C169.656 14.734 170.443 13.736 171.539 12.971 172.633 12.206 173.901 11.823 175.341 11.823 176.151 11.823 176.766 11.929 177.186 12.138L177.186 19.294C176.856 19.174 176.489 19.084 176.084 19.023 175.679 18.964 175.221 18.933 174.711 18.933 173.151 18.933 171.868 19.511 170.864 20.666 169.858 21.821 169.356 23.658 169.356 26.178M191.676 35.629C189.336 35.629 187.258 35.126 185.443 34.121 183.628 33.116 182.196 31.714 181.146 29.914 180.095 28.114 179.571 26.014 179.571 23.614 179.571 21.214 180.095 19.114 181.146 17.313 182.196 15.513 183.628 14.111 185.443 13.106 187.258 12.101 189.336 11.598 191.676 11.598 193.746 11.598 195.561 11.981 197.121 12.746 198.68 13.511 200.061 14.734 201.261 16.414L196.086 20.193C195.666 19.563 195.118 19.046 194.443 18.641 193.768 18.236 193.041 18.033 192.261 18.033 190.911 18.033 189.786 18.536 188.886 19.541 187.986 20.547 187.536 21.904 187.536 23.614 187.536 25.323 187.986 26.681 188.886 27.686 189.786 28.691 190.911 29.193 192.261 29.193 193.041 29.193 193.768 28.991 194.443 28.586 195.118 28.181 195.666 27.664 196.086 27.033L201.261 30.813C200.061 32.494 198.68 33.716 197.121 34.481 195.561 35.246 193.746 35.629 191.676 35.629M204.771 35.044L204.771 12.138C206.03 12.408 207.305 12.544 208.595 12.544 209.915 12.544 211.251 12.408 212.6 12.138L212.6 35.044 204.771 35.044M224.255 27.618C224.255 28.309 224.509 28.871 225.02 29.306 225.53 29.741 226.19 29.959 227 29.959 228.08 29.959 228.987 29.591 229.722 28.856 230.458 28.121 230.825 27.199 230.825 26.089L230.825 25.323C230.015 25.174 229.16 25.098 228.26 25.098 227.12 25.098 226.168 25.294 225.403 25.683 224.637 26.074 224.255 26.718 224.255 27.618zM231.14 35.044L230.735 32.029C229.235 34.429 226.955 35.629 223.895 35.629 222.545 35.629 221.322 35.336 220.228 34.751 219.132 34.166 218.262 33.364 217.618 32.343 216.972 31.324 216.65 30.138 216.65 28.789 216.65 26.239 217.647 24.259 219.643 22.848 221.637 21.439 224.27 20.733 227.54 20.733 228.56 20.733 229.639 20.823 230.78 21.004 230.66 19.864 230.172 19.001 229.317 18.416 228.462 17.831 227.419 17.539 226.19 17.539 225.11 17.539 224.022 17.741 222.927 18.146 221.832 18.551 220.79 19.039 219.8 19.608L217.145 14.568C218.645 13.609 220.265 12.866 222.005 12.341 223.745 11.816 225.485 11.553 227.225 11.553 229.325 11.553 231.214 11.914 232.895 12.633 234.575 13.353 235.895 14.449 236.855 15.919 237.815 17.388 238.295 19.249 238.295 21.499L238.295 35.044 231.14 35.044 231.14 35.044z"/>
    <polygon fill="#404040" points="243.29 35.043 251.12 35.043 251.12 2.193 243.29 2.193"/>
    <path class='no-color-change' fill="#009BFF" d="M273.574 27.618C273.574 28.309 273.829 28.871 274.339 29.306 274.849 29.741 275.509 29.959 276.319 29.959 277.399 29.959 278.306 29.591 279.042 28.856 279.776 28.121 280.144 27.199 280.144 26.089L280.144 25.323C279.334 25.174 278.479 25.098 277.579 25.098 276.438 25.098 275.486 25.294 274.721 25.683 273.957 26.074 273.574 26.718 273.574 27.618zM280.459 35.044L280.054 32.029C278.553 34.429 276.274 35.629 273.214 35.629 271.864 35.629 270.641 35.336 269.546 34.751 268.451 34.166 267.581 33.364 266.936 32.343 266.291 31.324 265.969 30.138 265.969 28.789 265.969 26.239 266.966 24.259 268.961 22.848 270.956 21.439 273.588 20.733 276.859 20.733 277.878 20.733 278.959 20.823 280.099 21.004 279.979 19.864 279.491 19.001 278.636 18.416 277.781 17.831 276.739 17.539 275.509 17.539 274.429 17.539 273.341 17.741 272.247 18.146 271.151 18.551 270.109 19.039 269.119 19.608L266.464 14.568C267.963 13.609 269.584 12.866 271.324 12.341 273.063 11.816 274.803 11.553 276.544 11.553 278.643 11.553 280.534 11.914 282.214 12.633 283.894 13.353 285.213 14.449 286.174 15.919 287.133 17.388 287.614 19.249 287.614 21.499L287.614 35.044 280.459 35.044 280.459 35.044zM304.804 29.419C306.183 29.419 307.286 28.886 308.111 27.821 308.936 26.757 309.349 25.339 309.349 23.568 309.349 21.799 308.936 20.381 308.111 19.316 307.286 18.252 306.183 17.718 304.804 17.718 303.454 17.718 302.366 18.252 301.542 19.316 300.716 20.381 300.304 21.799 300.304 23.568 300.304 25.339 300.716 26.757 301.542 27.821 302.366 28.886 303.454 29.419 304.804 29.419zM306.919 35.629C305.569 35.629 304.338 35.343 303.229 34.773 302.119 34.204 301.188 33.424 300.439 32.433L300.439 43.368 292.609 43.368 292.609 12.138 299.764 12.138 300.169 15.154C300.889 14.073 301.856 13.204 303.071 12.544 304.287 11.884 305.688 11.553 307.279 11.553 309.229 11.553 310.954 12.064 312.454 13.084 313.954 14.104 315.138 15.513 316.009 17.313 316.878 19.114 317.314 21.199 317.314 23.568 317.314 25.939 316.871 28.031 315.986 29.846 315.101 31.661 313.872 33.079 312.296 34.098 310.721 35.118 308.928 35.629 306.919 35.629L306.919 35.629zM333.604 29.419C334.983 29.419 336.086 28.886 336.912 27.821 337.736 26.757 338.149 25.339 338.149 23.568 338.149 21.799 337.736 20.381 336.912 19.316 336.086 18.252 334.983 17.718 333.604 17.718 332.254 17.718 331.166 18.252 330.341 19.316 329.516 20.381 329.104 21.799 329.104 23.568 329.104 25.339 329.516 26.757 330.341 27.821 331.166 28.886 332.254 29.419 333.604 29.419zM335.719 35.629C334.369 35.629 333.138 35.343 332.029 34.773 330.919 34.204 329.988 33.424 329.239 32.433L329.239 43.368 321.409 43.368 321.409 12.138 328.564 12.138 328.969 15.154C329.689 14.073 330.656 13.204 331.872 12.544 333.086 11.884 334.488 11.553 336.079 11.553 338.029 11.553 339.753 12.064 341.254 13.084 342.753 14.104 343.938 15.513 344.809 17.313 345.678 19.114 346.114 21.199 346.114 23.568 346.114 25.939 345.671 28.031 344.787 29.846 343.901 31.661 342.671 33.079 341.096 34.098 339.521 35.118 337.728 35.629 335.719 35.629L335.719 35.629zM361.054 17.223C358.503 17.223 356.974 18.573 356.464 21.273L365.194 21.273C364.984 19.804 364.481 18.761 363.686 18.146 362.891 17.531 362.014 17.223 361.054 17.223zM371.764 32.703C370.624 33.513 369.176 34.204 367.421 34.773 365.667 35.343 363.799 35.629 361.819 35.629 359.088 35.629 356.756 35.126 354.821 34.121 352.886 33.116 351.401 31.714 350.367 29.914 349.332 28.114 348.814 26.044 348.814 23.703 348.814 21.334 349.324 19.234 350.344 17.404 351.363 15.574 352.774 14.141 354.574 13.106 356.374 12.071 358.473 11.553 360.874 11.553 363.214 11.553 365.276 12.056 367.061 13.061 368.846 14.066 370.241 15.462 371.247 17.246 372.252 19.031 372.754 21.124 372.754 23.523 372.754 23.854 372.732 24.198 372.686 24.558 372.641 24.919 372.588 25.294 372.529 25.683L356.554 25.683C357.274 28.324 359.238 29.643 362.449 29.643 363.889 29.643 365.164 29.419 366.274 28.968 367.383 28.518 368.314 28.068 369.064 27.618L371.764 32.703 371.764 32.703zM382.923 27.618C382.923 28.309 383.178 28.871 383.689 29.306 384.199 29.741 384.859 29.959 385.669 29.959 386.749 29.959 387.656 29.591 388.391 28.856 389.126 28.121 389.494 27.199 389.494 26.089L389.494 25.323C388.684 25.174 387.829 25.098 386.929 25.098 385.788 25.098 384.836 25.294 384.071 25.683 383.306 26.074 382.923 26.718 382.923 27.618zM389.809 35.044L389.404 32.029C387.903 34.429 385.624 35.629 382.564 35.629 381.213 35.629 379.991 35.336 378.896 34.751 377.801 34.166 376.931 33.364 376.286 32.343 375.641 31.324 375.319 30.138 375.319 28.789 375.319 26.239 376.316 24.259 378.311 22.848 380.306 21.439 382.939 20.733 386.209 20.733 387.228 20.733 388.308 20.823 389.449 21.004 389.329 19.864 388.841 19.001 387.986 18.416 387.131 17.831 386.088 17.539 384.859 17.539 383.779 17.539 382.691 17.741 381.596 18.146 380.501 18.551 379.459 19.039 378.469 19.608L375.814 14.568C377.314 13.609 378.933 12.866 380.673 12.341 382.413 11.816 384.153 11.553 385.894 11.553 387.993 11.553 389.883 11.914 391.564 12.633 393.244 13.353 394.563 14.449 395.523 15.919 396.483 17.388 396.964 19.249 396.964 21.499L396.964 35.044 389.809 35.044 389.809 35.044z"/>
    <polygon class='no-color-change' fill="#009BFF" points="401.959 35.043 409.789 35.043 409.789 2.193 401.959 2.193"/>
    <path class='no-color-change' fill="#009BFF" d="M208.595,10.339 C207.305,10.339 206.203,9.882 205.288,8.966 C204.373,8.051 203.916,6.949 203.916,5.658 C203.916,4.369 204.373,3.266 205.288,2.351 C206.203,1.436 207.305,0.978 208.595,0.978 C209.885,0.978 210.987,1.436 211.903,2.351 C212.818,3.266 213.275,4.369 213.275,5.658 C213.275,6.949 212.818,8.051 211.903,8.966 C210.987,9.882 209.885,10.339 208.595,10.339"/>
  </g>
</svg>
