<svg xmlns="http://www.w3.org/2000/svg" width="341" height="47" viewBox="0 0 341 47">
  <g fill="none" fill-rule="evenodd">
    <path fill="#FFFFFE" d="M1.933 42.891L.448 36.501C1.768 36.381 2.832 35.945 3.643 35.195 4.452 34.446 4.858 33.396 4.858 32.046L4.858 11.661C6.118 11.931 7.393 12.066 8.683 12.066 10.002 12.066 11.338 11.931 12.688 11.661L12.688 31.641C12.688 34.971 11.825 37.596 10.1 39.516 8.375 41.436 5.652 42.561 1.933 42.891M29.005 28.941C30.384 28.941 31.487 28.408 32.312 27.344 33.137 26.278 33.55 24.861 33.55 23.091 33.55 21.321 33.137 19.911 32.312 18.861 31.487 17.811 30.384 17.286 29.005 17.286 27.624 17.286 26.522 17.811 25.697 18.861 24.872 19.911 24.459 21.321 24.459 23.091 24.459 24.861 24.872 26.278 25.697 27.344 26.522 28.408 27.624 28.941 29.005 28.941zM29.005 35.151C26.544 35.151 24.376 34.633 22.502 33.598 20.627 32.564 19.157 31.146 18.092 29.346 17.027 27.546 16.495 25.461 16.495 23.091 16.495 20.721 17.027 18.636 18.092 16.836 19.157 15.036 20.627 13.626 22.502 12.606 24.376 11.586 26.544 11.076 29.005 11.076 31.464 11.076 33.632 11.586 35.507 12.606 37.382 13.626 38.852 15.036 39.917 16.836 40.981 18.636 41.514 20.721 41.514 23.091 41.514 25.461 40.981 27.546 39.917 29.346 38.852 31.146 37.382 32.564 35.507 33.598 33.632 34.633 31.464 35.151 29.005 35.151L29.005 35.151zM60.549 34.566L60.144 31.551C59.394 32.661 58.412 33.538 57.197 34.183 55.982 34.828 54.669 35.151 53.259 35.151 50.589 35.151 48.549 34.363 47.14 32.788 45.729 31.213 45.024 28.941 45.024 25.971L45.024 11.661 52.854 11.661 52.854 25.07C52.854 27.561 53.994 28.806 56.274 28.806 58.674 28.806 59.874 27.306 59.874 24.306L59.874 11.661 67.704 11.661 67.704 34.566 60.549 34.566M80.682 25.701L80.682 34.566 72.852 34.566 72.852 11.661 80.007 11.661 80.502 15.486C80.981 14.256 81.769 13.258 82.865 12.493 83.959 11.729 85.227 11.346 86.667 11.346 87.477 11.346 88.092 11.451 88.512 11.661L88.512 18.816C88.182 18.697 87.814 18.607 87.41 18.546 87.004 18.486 86.547 18.456 86.037 18.456 84.477 18.456 83.194 19.034 82.189 20.189 81.184 21.344 80.682 23.181 80.682 25.701M99.384 21.921L99.384 34.566 91.554 34.566 91.554 11.661 98.708 11.661 99.114 14.676C99.863 13.596 100.838 12.726 102.038 12.066 103.238 11.407 104.558 11.076 105.998 11.076 108.488 11.076 110.483 11.886 111.984 13.506 113.483 15.126 114.234 17.451 114.234 20.481L114.234 34.566 106.404 34.566 106.404 21.381C106.404 20.031 106.103 19.034 105.504 18.388 104.903 17.743 104.063 17.421 102.984 17.421 101.904 17.421 101.033 17.766 100.373 18.456 99.713 19.147 99.384 20.301 99.384 21.921M125.33 27.141C125.33 27.831 125.584 28.394 126.095 28.828 126.605 29.264 127.265 29.481 128.075 29.481 129.155 29.481 130.062 29.114 130.797 28.378 131.532 27.644 131.9 26.721 131.9 25.611L131.9 24.846C131.09 24.696 130.235 24.621 129.335 24.621 128.194 24.621 127.243 24.817 126.477 25.206 125.712 25.596 125.33 26.241 125.33 27.141zM132.215 34.566L131.81 31.551C130.309 33.951 128.03 35.151 124.97 35.151 123.62 35.151 122.397 34.859 121.303 34.274 120.207 33.689 119.337 32.886 118.692 31.866 118.047 30.846 117.725 29.661 117.725 28.311 117.725 25.761 118.722 23.782 120.718 22.371 122.712 20.961 125.345 20.256 128.615 20.256 129.635 20.256 130.714 20.346 131.855 20.526 131.735 19.386 131.247 18.524 130.392 17.939 129.537 17.354 128.495 17.061 127.265 17.061 126.185 17.061 125.097 17.263 124.002 17.668 122.907 18.073 121.865 18.561 120.875 19.131L118.22 14.091C119.72 13.131 121.34 12.389 123.08 11.864 124.819 11.339 126.559 11.076 128.3 11.076 130.399 11.076 132.289 11.436 133.97 12.156 135.65 12.876 136.97 13.971 137.93 15.441 138.89 16.911 139.37 18.771 139.37 21.021L139.37 34.566 132.215 34.566 132.215 34.566z"/>
    <polygon fill="#FFFFFE" points="144.248 34.566 152.078 34.566 152.078 1.716 144.248 1.716"/>
    <path class='no-color-change' fill="#009BFF" d="M177.772 35.151C175.792 35.151 173.939 34.836 172.214 34.206 170.489 33.576 168.936 32.676 167.557 31.506L170.887 27.096C171.937 27.936 173.07 28.619 174.285 29.143 175.499 29.669 176.692 29.931 177.862 29.931 178.642 29.931 179.264 29.796 179.729 29.526 180.194 29.256 180.427 28.851 180.427 28.311 180.427 27.741 180.164 27.283 179.64 26.939 179.114 26.594 178.177 26.256 176.827 25.926L174.667 25.386C170.376 24.246 168.232 21.951 168.232 18.501 168.232 16.971 168.652 15.651 169.492 14.541 170.331 13.431 171.487 12.576 172.957 11.976 174.427 11.376 176.137 11.076 178.087 11.076 180.007 11.076 181.814 11.376 183.51 11.976 185.204 12.576 186.757 13.446 188.167 14.586L184.747 19.086C183.697 18.246 182.587 17.572 181.417 17.061 180.247 16.551 179.152 16.296 178.132 16.296 176.482 16.296 175.657 16.836 175.657 17.916 175.657 18.396 175.905 18.786 176.399 19.086 176.894 19.386 177.592 19.657 178.492 19.896L181.417 20.706C183.606 21.306 185.226 22.206 186.277 23.406 187.327 24.606 187.852 26.032 187.852 27.681 187.852 29.181 187.432 30.493 186.592 31.618 185.752 32.743 184.574 33.613 183.059 34.229 181.544 34.843 179.782 35.151 177.772 35.151M202.558 16.746C200.008 16.746 198.477 18.096 197.968 20.796L206.698 20.796C206.488 19.326 205.985 18.283 205.19 17.668 204.395 17.054 203.517 16.746 202.558 16.746zM213.268 32.226C212.127 33.036 210.68 33.726 208.925 34.296 207.17 34.865 205.303 35.151 203.323 35.151 200.593 35.151 198.26 34.648 196.325 33.643 194.391 32.639 192.905 31.236 191.87 29.436 190.835 27.636 190.318 25.566 190.318 23.226 190.318 20.857 190.828 18.756 191.848 16.926 192.867 15.096 194.278 13.663 196.078 12.628 197.878 11.593 199.977 11.076 202.378 11.076 204.718 11.076 206.78 11.578 208.565 12.583 210.35 13.589 211.745 14.984 212.75 16.768 213.755 18.554 214.258 20.646 214.258 23.046 214.258 23.376 214.235 23.721 214.19 24.081 214.145 24.441 214.093 24.817 214.033 25.206L198.058 25.206C198.778 27.846 200.742 29.166 203.953 29.166 205.393 29.166 206.667 28.941 207.778 28.491 208.887 28.041 209.818 27.591 210.568 27.141L213.268 32.226 213.268 32.226zM225.931 21.921L225.931 34.566 218.101 34.566 218.101 11.661 225.256 11.661 225.661 14.676C226.41 13.596 227.386 12.726 228.586 12.066 229.785 11.407 231.106 11.076 232.546 11.076 235.036 11.076 237.03 11.886 238.531 13.506 240.031 15.126 240.781 17.451 240.781 20.481L240.781 34.566 232.951 34.566 232.951 21.381C232.951 20.031 232.65 19.034 232.051 18.388 231.45 17.743 230.611 17.421 229.531 17.421 228.451 17.421 227.58 17.766 226.921 18.456 226.261 19.147 225.931 20.301 225.931 21.921M262.137 33.081C261.207 33.711 260.141 34.214 258.942 34.588 257.742 34.963 256.482 35.151 255.162 35.151 252.702 35.151 250.745 34.439 249.289 33.013 247.834 31.589 247.107 29.676 247.107 27.276L247.107 17.511 243.372 17.511 243.372 11.661 247.467 11.661 248.457 5.271 254.937 5.271 254.937 11.661 260.922 11.661 260.922 17.511 254.937 17.511 254.937 26.286C254.937 27.067 255.169 27.674 255.635 28.109 256.099 28.544 256.722 28.761 257.502 28.761 257.891 28.761 258.289 28.686 258.695 28.536 259.099 28.386 259.482 28.206 259.842 27.996L262.137 33.081M265.53 34.566L265.53 11.661C266.79 11.931 268.065 12.066 269.355 12.066 270.675 12.066 272.01 11.931 273.36 11.661L273.36 34.566 265.53 34.566zM269.355 9.861C268.065 9.861 266.962 9.404 266.047 8.489 265.132 7.573 264.675 6.471 264.675 5.181 264.675 3.891 265.132 2.789 266.047 1.873 266.962.959 268.065.501 269.355.501 270.644.501 271.747.959 272.662 1.873 273.577 2.789 274.035 3.891 274.035 5.181 274.035 6.471 273.577 7.573 272.662 8.489 271.747 9.404 270.644 9.861 269.355 9.861L269.355 9.861zM286.495 21.921L286.495 34.566 278.665 34.566 278.665 11.661 285.82 11.661 286.225 14.676C286.974 13.596 287.95 12.726 289.15 12.066 290.349 11.407 291.67 11.076 293.11 11.076 295.599 11.076 297.595 11.886 299.095 13.506 300.595 15.126 301.345 17.451 301.345 20.481L301.345 34.566 293.515 34.566 293.515 21.381C293.515 20.031 293.215 19.034 292.615 18.388 292.015 17.743 291.175 17.421 290.095 17.421 289.015 17.421 288.144 17.766 287.485 18.456 286.825 19.147 286.495 20.301 286.495 21.921M317.095 16.746C314.544 16.746 313.014 18.096 312.504 20.796L321.234 20.796C321.024 19.326 320.521 18.283 319.727 17.668 318.932 17.054 318.054 16.746 317.095 16.746zM327.805 32.226C326.664 33.036 325.217 33.726 323.462 34.296 321.707 34.865 319.839 35.151 317.859 35.151 315.129 35.151 312.797 34.648 310.862 33.643 308.927 32.639 307.442 31.236 306.407 29.436 305.372 27.636 304.854 25.566 304.854 23.226 304.854 20.857 305.364 18.756 306.384 16.926 307.404 15.096 308.814 13.663 310.615 12.628 312.414 11.593 314.514 11.076 316.914 11.076 319.254 11.076 321.317 11.578 323.102 12.583 324.887 13.589 326.282 14.984 327.287 16.768 328.292 18.554 328.794 20.646 328.794 23.046 328.794 23.376 328.772 23.721 328.727 24.081 328.682 24.441 328.629 24.817 328.569 25.206L312.595 25.206C313.314 27.846 315.279 29.166 318.49 29.166 319.93 29.166 321.204 28.941 322.314 28.491 323.424 28.041 324.354 27.591 325.104 27.141L327.805 32.226 327.805 32.226z"/>
    <polygon class='no-color-change' fill="#009BFF" points="332.615 34.566 340.445 34.566 340.445 1.716 332.615 1.716"/>
    <path class='no-color-change' fill="#009BFF" d="M8.683,9.861 C7.393,9.861 6.29,9.404 5.375,8.489 C4.46,7.573 4.003,6.471 4.003,5.181 C4.003,3.891 4.46,2.789 5.375,1.873 C6.29,0.959 7.393,0.501 8.683,0.501 C9.972,0.501 11.075,0.959 11.99,1.873 C12.905,2.789 13.363,3.891 13.363,5.181 C13.363,6.471 12.905,7.573 11.99,8.489 C11.075,9.404 9.972,9.861 8.683,9.861"/>
    <path fill="#FFFFFE" d="M202.094 43.673L203.216 43.673C203.584 43.673 203.876 43.582 204.09 43.401 204.305 43.219 204.412 42.971 204.412 42.658 204.412 42.344 204.305 42.097 204.09 41.915 203.876 41.734 203.584 41.643 203.216 41.643L202.094 41.643 202.094 43.673zM201.26 46.552L201.26 40.942 203.216 40.942C203.843 40.942 204.34 41.096 204.709 41.404 205.077 41.712 205.262 42.13 205.262 42.658 205.262 43.18 205.077 43.594 204.709 43.9 204.34 44.205 203.843 44.358 203.216 44.358L202.094 44.358 202.094 46.552 201.26 46.552 201.26 46.552zM206.944 44.44L208.991 44.44 207.968 41.808 206.944 44.44zM209.807 46.552L209.263 45.141 206.672 45.141 206.128 46.552 205.286 46.552 207.53 40.942 208.43 40.942 210.665 46.552 209.807 46.552 209.807 46.552zM212.431 43.59L213.578 43.59C213.935 43.59 214.22 43.502 214.432 43.326 214.643 43.15 214.749 42.914 214.749 42.617 214.749 42.319 214.643 42.083 214.432 41.907 214.22 41.731 213.935 41.643 213.578 41.643L212.431 41.643 212.431 43.59zM212.431 44.275L212.431 46.552 211.598 46.552 211.598 40.942 213.578 40.942C214.199 40.942 214.691 41.092 215.054 41.392 215.417 41.692 215.599 42.1 215.599 42.617 215.599 43.008 215.489 43.337 215.268 43.607 215.049 43.876 214.746 44.066 214.361 44.176L215.723 46.552 214.773 46.552 213.495 44.275 212.431 44.275 212.431 44.275z"/>
    <polyline fill="#FFFFFE" points="217.991 46.552 217.991 41.643 216.102 41.643 216.102 40.942 220.714 40.942 220.714 41.643 218.825 41.643 218.825 46.552 217.991 46.552"/>
    <path fill="#FFFFFE" d="M226.068,45.917 C226.431,45.917 226.754,45.825 227.037,45.64 C227.32,45.456 227.542,45.202 227.701,44.877 C227.861,44.553 227.94,44.176 227.94,43.747 C227.94,43.318 227.861,42.941 227.701,42.617 C227.542,42.292 227.32,42.038 227.037,41.854 C226.754,41.669 226.431,41.577 226.068,41.577 C225.705,41.577 225.383,41.669 225.102,41.854 C224.822,42.038 224.602,42.292 224.443,42.617 C224.283,42.941 224.203,43.318 224.203,43.747 C224.203,44.176 224.283,44.553 224.443,44.877 C224.602,45.202 224.822,45.456 225.102,45.64 C225.383,45.825 225.705,45.917 226.068,45.917 Z M226.068,46.643 C225.54,46.643 225.072,46.519 224.665,46.272 C224.258,46.024 223.938,45.683 223.704,45.248 C223.471,44.814 223.353,44.314 223.353,43.747 C223.353,43.18 223.471,42.68 223.704,42.245 C223.938,41.811 224.258,41.47 224.665,41.222 C225.072,40.975 225.54,40.851 226.068,40.851 C226.596,40.851 227.065,40.975 227.474,41.222 C227.884,41.47 228.206,41.811 228.44,42.245 C228.674,42.68 228.79,43.18 228.79,43.747 C228.79,44.314 228.674,44.814 228.44,45.248 C228.206,45.683 227.884,46.024 227.474,46.272 C227.065,46.519 226.596,46.643 226.068,46.643 L226.068,46.643 Z"/>
    <polyline fill="#FFFFFE" points="230.795 46.552 229.962 46.552 229.962 40.942 233.452 40.942 233.452 41.643 230.795 41.643 230.795 43.541 233.047 43.541 233.047 44.242 230.795 44.242 230.795 46.552"/>
    <polyline fill="#FFFFFE" points="237.799 46.552 237.799 41.643 235.91 41.643 235.91 40.942 240.521 40.942 240.521 41.643 238.633 41.643 238.633 46.552 237.799 46.552"/>
    <polyline fill="#FFFFFE" points="241.478 46.552 241.478 40.942 242.311 40.942 242.311 43.342 245.207 43.342 245.207 40.942 246.041 40.942 246.041 46.552 245.207 46.552 245.207 44.06 242.311 44.06 242.311 46.552 241.478 46.552"/>
    <polyline fill="#FFFFFE" points="247.509 46.552 247.509 40.942 251.106 40.942 251.106 41.643 248.343 41.643 248.343 43.376 250.776 43.376 250.776 44.077 248.343 44.077 248.343 45.851 251.172 45.851 251.172 46.552 247.509 46.552"/>
    <path fill="#FFFFFE" d="M256.435 45.917C256.892 45.917 257.251 45.78 257.512 45.504 257.773 45.229 257.904 44.858 257.904 44.39L257.904 40.942 258.737 40.942 258.737 44.399C258.737 45.097 258.532 45.646 258.123 46.045 257.713 46.444 257.15 46.643 256.435 46.643 255.721 46.643 255.16 46.444 254.753 46.045 254.346 45.646 254.142 45.097 254.142 44.399L254.142 40.942 254.975 40.942 254.975 44.39C254.975 44.858 255.106 45.229 255.367 45.504 255.628 45.78 255.984 45.917 256.435 45.917M261.848 46.643C261.424 46.643 261.02 46.569 260.635 46.42 260.25 46.272 259.939 46.073 259.703 45.826L260.173 45.273C260.392 45.477 260.653 45.636 260.953 45.752 261.252 45.867 261.551 45.925 261.848 45.925 262.211 45.925 262.504 45.855 262.726 45.715 262.949 45.574 263.06 45.381 263.06 45.133 263.06 44.907 262.98 44.718 262.821 44.564 262.661 44.41 262.39 44.28 262.004 44.176L261.229 43.97C260.728 43.838 260.364 43.651 260.136 43.409 259.907 43.167 259.793 42.851 259.793 42.46 259.793 42.141 259.879 41.861 260.049 41.618 260.22 41.377 260.455 41.188 260.755 41.053 261.055 40.919 261.394 40.851 261.773 40.851 262.175 40.851 262.552 40.927 262.904 41.078 263.256 41.229 263.566 41.44 263.836 41.709L263.333 42.254C263.096 42.034 262.85 41.864 262.595 41.746 262.339 41.628 262.067 41.569 261.782 41.569 261.435 41.569 261.152 41.642 260.932 41.788 260.712 41.933 260.602 42.136 260.602 42.394 260.602 42.631 260.681 42.815 260.837 42.947 260.994 43.079 261.234 43.189 261.559 43.277L262.425 43.516C262.926 43.654 263.291 43.846 263.522 44.094 263.753 44.341 263.869 44.649 263.869 45.017 263.869 45.342 263.784 45.627 263.613 45.871 263.442 46.116 263.206 46.306 262.904 46.441 262.601 46.575 262.249 46.643 261.848 46.643M265.964 44.44L268.011 44.44 266.987 41.808 265.964 44.44zM268.827 46.552L268.283 45.141 265.692 45.141 265.147 46.552 264.306 46.552 266.55 40.942 267.449 40.942 269.685 46.552 268.827 46.552 268.827 46.552z"/>
    <polyline fill="#FFFFFE" points="273.562 46.552 273.562 41.643 271.673 41.643 271.673 40.942 276.285 40.942 276.285 41.643 274.396 41.643 274.396 46.552 273.562 46.552"/>
    <path fill="#FFFFFE" d="M279.288 45.917C279.651 45.917 279.974 45.825 280.257 45.64 280.54 45.456 280.762 45.202 280.921 44.877 281.081 44.553 281.161 44.176 281.161 43.747 281.161 43.318 281.081 42.941 280.921 42.617 280.762 42.292 280.54 42.038 280.257 41.854 279.974 41.669 279.651 41.577 279.288 41.577 278.925 41.577 278.603 41.669 278.323 41.854 278.042 42.038 277.822 42.292 277.663 42.617 277.503 42.941 277.424 43.318 277.424 43.747 277.424 44.176 277.503 44.553 277.663 44.877 277.822 45.202 278.042 45.456 278.323 45.64 278.603 45.825 278.925 45.917 279.288 45.917zM279.288 46.643C278.76 46.643 278.292 46.519 277.886 46.272 277.478 46.024 277.158 45.683 276.924 45.248 276.69 44.814 276.574 44.314 276.574 43.747 276.574 43.18 276.69 42.68 276.924 42.245 277.158 41.811 277.478 41.47 277.886 41.222 278.292 40.975 278.76 40.851 279.288 40.851 279.816 40.851 280.285 40.975 280.694 41.222 281.104 41.47 281.426 41.811 281.66 42.245 281.893 42.68 282.011 43.18 282.011 43.747 282.011 44.314 281.893 44.814 281.66 45.248 281.426 45.683 281.104 46.024 280.694 46.272 280.285 46.519 279.816 46.643 279.288 46.643L279.288 46.643zM284.015 45.851L285.154 45.851C285.55 45.851 285.89 45.764 286.173 45.591 286.456 45.418 286.673 45.174 286.824 44.861 286.975 44.547 287.051 44.176 287.051 43.747 287.051 43.318 286.975 42.947 286.824 42.633 286.673 42.319 286.456 42.076 286.173 41.903 285.89 41.73 285.55 41.643 285.154 41.643L284.015 41.643 284.015 45.851zM283.182 46.552L283.182 40.942 285.154 40.942C285.703 40.942 286.185 41.059 286.598 41.293 287.01 41.527 287.33 41.854 287.558 42.274 287.787 42.695 287.901 43.186 287.901 43.747 287.901 44.308 287.787 44.799 287.558 45.219 287.33 45.64 287.01 45.967 286.598 46.201 286.185 46.435 285.703 46.552 285.154 46.552L283.182 46.552 283.182 46.552zM290.029 44.44L292.076 44.44 291.053 41.808 290.029 44.44zM292.892 46.552L292.348 45.141 289.757 45.141 289.213 46.552 288.371 46.552 290.615 40.942 291.515 40.942 293.75 46.552 292.892 46.552 292.892 46.552z"/>
    <polyline fill="#FFFFFE" points="296.307 44.324 296.307 46.552 295.474 46.552 295.474 44.324 293.503 40.942 294.484 40.942 295.895 43.532 297.306 40.942 298.271 40.942 296.307 44.324"/>
    <polyline fill="#FFFFFE" points="304.937 46.552 301.942 42.254 301.942 46.552 301.158 46.552 301.158 40.942 301.934 40.942 304.937 45.24 304.937 40.942 305.713 40.942 305.713 46.552 304.937 46.552"/>
    <polyline fill="#FFFFFE" points="307.181 46.552 307.181 40.942 310.778 40.942 310.778 41.643 308.014 41.643 308.014 43.376 310.448 43.376 310.448 44.077 308.014 44.077 308.014 45.851 310.844 45.851 310.844 46.552 307.181 46.552"/>
    <polyline fill="#FFFFFE" points="313.319 46.552 313.319 41.643 311.43 41.643 311.43 40.942 316.041 40.942 316.041 41.643 314.152 41.643 314.152 46.552 313.319 46.552"/>
    <polyline fill="#FFFFFE" points="321.486 46.552 320.175 42.08 318.863 46.552 317.997 46.552 316.504 40.942 317.328 40.942 318.467 45.381 319.779 40.942 320.571 40.942 321.891 45.397 323.037 40.942 323.846 40.942 322.352 46.552 321.486 46.552"/>
    <path fill="#FFFFFE" d="M327.154 45.917C327.517 45.917 327.841 45.825 328.124 45.64 328.407 45.456 328.628 45.202 328.788 44.877 328.947 44.553 329.027 44.176 329.027 43.747 329.027 43.318 328.947 42.941 328.788 42.617 328.628 42.292 328.407 42.038 328.124 41.854 327.841 41.669 327.517 41.577 327.154 41.577 326.791 41.577 326.47 41.669 326.189 41.854 325.909 42.038 325.688 42.292 325.529 42.617 325.37 42.941 325.29 43.318 325.29 43.747 325.29 44.176 325.37 44.553 325.529 44.877 325.688 45.202 325.909 45.456 326.189 45.64 326.47 45.825 326.791 45.917 327.154 45.917zM327.154 46.643C326.626 46.643 326.159 46.519 325.752 46.272 325.345 46.024 325.024 45.683 324.791 45.248 324.557 44.814 324.44 44.314 324.44 43.747 324.44 43.18 324.557 42.68 324.791 42.245 325.024 41.811 325.345 41.47 325.752 41.222 326.159 40.975 326.626 40.851 327.154 40.851 327.682 40.851 328.151 40.975 328.561 41.222 328.971 41.47 329.292 41.811 329.526 42.245 329.76 42.68 329.877 43.18 329.877 43.747 329.877 44.314 329.76 44.814 329.526 45.248 329.292 45.683 328.971 46.024 328.561 46.272 328.151 46.519 327.682 46.643 327.154 46.643L327.154 46.643zM331.881 43.59L333.028 43.59C333.386 43.59 333.67 43.502 333.882 43.326 334.094 43.15 334.2 42.914 334.2 42.617 334.2 42.319 334.094 42.083 333.882 41.907 333.67 41.731 333.386 41.643 333.028 41.643L331.881 41.643 331.881 43.59zM331.881 44.275L331.881 46.552 331.048 46.552 331.048 40.942 333.028 40.942C333.649 40.942 334.141 41.092 334.505 41.392 334.868 41.692 335.05 42.1 335.05 42.617 335.05 43.008 334.939 43.337 334.72 43.607 334.499 43.876 334.197 44.066 333.812 44.176L335.173 46.552 334.224 46.552 332.946 44.275 331.881 44.275 331.881 44.275z"/>
    <polyline fill="#FFFFFE" points="339.578 46.552 337.062 43.722 337.062 46.552 336.229 46.552 336.229 40.942 337.062 40.942 337.062 43.401 339.413 40.942 340.445 40.942 337.945 43.516 340.626 46.552 339.578 46.552"/>
  </g>
</svg>
