<svg id="Layer_1" data-name="Layer 1" xmlns="http://www.w3.org/2000/svg" viewBox="0 0 803.83 160.41">
    <defs>
        <style>
            .cls-1 {
                fill: #231f20;
            }
            .cls-2 {
                fill: #d73648;
            }
            .cls-3 {
                fill: #fff;
            }
            .cls-4 {
                fill: #004fa3;
            }
            .cls-5 {
                fill: #414042;
            }
        </style>
    </defs>
    <title>MJS LOGO</title><path
        class="cls-1"
        d="M240.63,36l3.25,0a5.45,5.45,0,0,0,.42,1.23c.42,1,2.4,5.14,5.68,11.87h0c.47-1,3.75-7.49,5.91-12.16a4.76,4.76,0,0,0,0-.94l3.77,0,0,.09-2.12.71c0,3,.28,13.05.42,13.9l2,.78,0,.09c-.52,0-2-.07-2.85-.07s-1.81,0-2.43.07l0-.09,1.53-.78c0-.94-.07-9.85-.14-13.08h0c-1.37,3-3.49,7.44-6.48,14.16l-.24.16c-1.18-2.66-2.07-4.76-6.13-13.69h-.07c-.24,3.84-.59,11.57-.5,12.42l1.77.8,0,.09c-.71,0-1.37-.07-2.45-.07-.64,0-1.63,0-2.26.07l0-.09,1.79-.78c.21-1.11.8-7.23,1.23-13.19-.21-.75-.4-.78-2.26-1.32Z"/><path class="cls-1" d="M263.11,35.92c.94,0,1.84.07,2.73.07s1.77,0,2.66-.07l0,.12-1.91.8v6.57c0,3.89.07,6.86.12,7.26l2.17.78,0,.09c-.54,0-1.53-.07-3-.07-1.25,0-2.47,0-3,.07l0-.09,2-.78c.09-.38.14-3.37.14-7.28v-6.6l-2-.78Z"/><path
        class="cls-1"
        d="M272,35.92c.64,0,1.53.07,2.69.07s2.14,0,2.8-.07l-.07.09-1.91.78v6.57c0,3.75,0,7,.09,7.28l5.65.4c.68-1,1.41-2.12,2-2.9l0,.12c-.09.64-.54,2.71-.73,3.3-.71,0-2.12-.09-7.8-.09-1.13,0-2.31,0-3.09.07l0-.09,2.19-.8c0-.45.09-3.58.09-7.26v-6.6L272,36Z"/><path
        class="cls-1"
        d="M283.59,35.92c.42,0,1.23.07,2.33.07.59,0,1.3,0,1.77-.07l0,.09-.68.73c.47,1.41,1.34,3.46,5.09,13h0c.57-1.15,1.34-2.83,3-6.38-.87-2.19-2-4.71-2.76-6.48-.52-.28-1.06-.57-1.6-.82l0-.09c.49,0,1.58.07,2.29.07a7.24,7.24,0,0,0,.82-.07l.07.07.09.75A42.21,42.21,0,0,0,296,41.5h0a49.77,49.77,0,0,0,1.93-4.64V36l0-.07a6.87,6.87,0,0,0,.89.07c.87,0,1.51,0,2.1-.07l0,.09-2,.94c-.35.61-1.15,2.1-2.66,5.28.24.59,1.2,2.8,3.13,7.37h0c1-2.78,2.78-7.47,4.52-12.79l-.82-.8.07-.09c.35,0,.78.07,1.3.07,1,0,1.91,0,2.52-.07V36l-2,.9c-.73,1.46-3.49,8.72-5.42,13.81a4.37,4.37,0,0,1-.75,1.2h-.14c-.42-.92-1.77-4.31-3.3-7.85h0c-1.7,3.56-2.54,5.37-3.18,6.74a4.08,4.08,0,0,1-.78,1.11h-.12c-.64-1.51-4.69-11.83-6.1-15.05L283.54,36Z"/><path
        class="cls-1"
        d="M314.88,35.37l.12.07a3.68,3.68,0,0,0,.31,1.51c.33,1,4.67,12.25,5.25,13.62.71.31,1.39.59,2.1.87l0,.09c-.71,0-1.72-.07-2.4-.07s-1.58,0-2.31.07l0-.09,1-.71c-.28-.85-1.06-2.76-2.14-5.61a47.41,47.41,0,0,1-5.18.12c-1.11,2.76-1.53,3.93-2,5.4l2.1.8,0,.09c-.61,0-1.88-.07-2.71-.07s-1.48,0-2.19.07v-.09l1.67-.78c.9-1.81,3.42-7.85,5.42-13a.72.72,0,0,0,0-.54l-.21-.59Zm-.73,2.8c-.64,1.72-1.6,4.17-2.33,6.29.57,0,3.68.09,4.74.09-.85-2.29-1.6-4.31-2.36-6.38Z"/><path
        class="cls-1"
        d="M323.79,35.92c.89,0,1.84.07,2.73.07s1.77,0,2.26-.07l-.07.09-1.32.78c0,3.11,0,6.1,0,9.85a4.24,4.24,0,0,0,.87,2.76A4.77,4.77,0,0,0,332.16,51a4.54,4.54,0,0,0,3.93-1.74A5.94,5.94,0,0,0,337,46c.12-3.27.09-6.24.07-9.26L335.22,36l.07-.09c.71,0,1.46.07,2.12.07.9,0,2.07,0,2.66-.07L340,36l-2,.78c0,.5-.07,1.63-.31,8.43a8.27,8.27,0,0,1-.78,3.77,5.59,5.59,0,0,1-5.3,2.87,5.76,5.76,0,0,1-5.07-2.45,6.88,6.88,0,0,1-.82-3.63c-.07-2.76,0-7.28,0-9l-2-.78Z"/><path
        class="cls-1"
        d="M342.67,35.89c.9,0,1.77.07,2.69.07s1.77,0,2.71-.07l0,.12-2,.82v6.55c0,3.91.07,6.88.12,7.28l2.17.78v.09c-.57,0-1.58-.07-3.06-.07-1.25,0-2.47,0-3,.07l0-.09,2.07-.78c.09-.38.14-3.37.14-7.26v-6.6L342.62,36Zm13.88.16c-1,.26-1.86.52-2.52.71a1.15,1.15,0,0,0-.61.4,66.58,66.58,0,0,0-5.32,5.61v.07c2.12,2.57,3.72,4.24,5.49,6.08s2.47,2.43,2.94,2.9l0,0a6,6,0,0,1-4.38-2.14c-1.2-1.2-3.32-3.49-5.44-5.94v-.19a71.4,71.4,0,0,0,5.94-6.88,3.06,3.06,0,0,1-.09-.78c1.51-.12,3.35,0,4.08,0Z"/><path
        class="cls-1"
        d="M359.61,35.89c.85,0,1.7.07,2.54.07h6.22a9.71,9.71,0,0,1,1.39-.28l0,0c-.12.68-.5,2.1-.68,3.11l-.12.07c-.24-.75-.52-1.74-.71-2.43l-5.25.16v6.41a54.41,54.41,0,0,0,6-.21l0,0a5.1,5.1,0,0,1-1.18,1c-.24,0-4.31-.19-4.81-.17,0,1.74,0,4.78.09,7l5.42.24c.52-.78,1.27-2,1.81-2.69l.09,0a28.1,28.1,0,0,1-.66,3.23c-1.51-.07-2.87-.07-4.22-.07h-3.51c-1,0-2.24,0-3,.07l.07-.09,2.24-.75c.07-.26.14-3.32.14-7.28V36.69L359.59,36Z"/><path
        class="cls-1"
        d="M373.52,35.89c.85,0,1.7.07,2.54.07h6.22a9.71,9.71,0,0,1,1.39-.28l0,0c-.12.68-.5,2.1-.68,3.11l-.12.07c-.24-.75-.52-1.74-.71-2.43l-5.25.16v6.41a54.41,54.41,0,0,0,6-.21l0,0a5.1,5.1,0,0,1-1.18,1c-.24,0-4.31-.19-4.81-.17,0,1.74,0,4.78.09,7l5.42.24c.52-.78,1.27-2,1.81-2.69l.09,0a28.1,28.1,0,0,1-.66,3.23c-1.51-.07-2.87-.07-4.22-.07H376c-1,0-2.24,0-3,.07l.07-.09,2.24-.75c.07-.26.14-3.32.14-7.28V36.69L373.5,36Z"/><path class="cls-1" d="M402,42.33A5.57,5.57,0,0,1,404,44.49l0,.39A7.25,7.25,0,0,1,401.85,47l-.29.1a5.91,5.91,0,0,1-1.92-2.21l.1-.39a7.72,7.72,0,0,1,2.06-2.11Z"/><path
        class="cls-1"
        d="M415.36,35.92c.42,0,1.22.07,2.33.07.59,0,1.3,0,1.77-.07l0,.09-.68.73c.47,1.41,1.34,3.46,5.09,13h0c.57-1.15,1.34-2.83,3-6.38-.87-2.19-2-4.71-2.76-6.48-.52-.28-1.06-.57-1.6-.82l0-.09c.5,0,1.58.07,2.29.07a7.22,7.22,0,0,0,.82-.07l.07.07.09.75a42.32,42.32,0,0,0,1.93,4.76h0a49.81,49.81,0,0,0,1.93-4.64V36l0-.07a6.88,6.88,0,0,0,.9.07c.87,0,1.51,0,2.1-.07l0,.09-2,.94c-.35.61-1.15,2.1-2.66,5.28.24.59,1.2,2.8,3.13,7.37h0c1-2.78,2.78-7.47,4.52-12.79l-.82-.8.07-.09c.35,0,.78.07,1.3.07,1,0,1.91,0,2.52-.07V36l-2,.9c-.73,1.46-3.49,8.72-5.42,13.81a4.37,4.37,0,0,1-.75,1.2h-.14c-.42-.92-1.77-4.31-3.3-7.85h0c-1.7,3.56-2.54,5.37-3.18,6.74a4.09,4.09,0,0,1-.78,1.11h-.12c-.64-1.51-4.69-11.83-6.1-15.05L415.31,36Z"/><path class="cls-1" d="M441.38,35.92c.94,0,1.84.07,2.73.07s1.77,0,2.66-.07l0,.12-1.91.8v6.57c0,3.89.07,6.86.12,7.26l2.17.78,0,.09c-.54,0-1.53-.07-3-.07-1.25,0-2.47,0-3,.07l0-.09,2-.78c.09-.38.14-3.37.14-7.28v-6.6l-2-.78Z"/><path
        class="cls-1"
        d="M455.14,35.52a4,4,0,0,1,2.57.92,7.78,7.78,0,0,1,1.3-.8l.07.07a31.55,31.55,0,0,1-.87,3.09l-.09.07a18.45,18.45,0,0,1-.57-2,4.41,4.41,0,0,0-2.36-.64,3,3,0,0,0-3.11,3,2.84,2.84,0,0,0,1.55,2.62c1,.64,2.21,1.23,3.37,1.86,2.21,1.27,2.62,2.57,2.62,3.65,0,3.7-3.3,4.57-5.21,4.57a7.29,7.29,0,0,1-4.19-1.46,28.72,28.72,0,0,1,1-2.73l.09,0c.09.4.17.82.47,3.13a6,6,0,0,0,2.47.45c2.45-.07,3.84-1.3,3.84-3.46,0-1-.57-1.86-2-2.71-1-.54-2.19-1.13-3.3-1.84a4,4,0,0,1-2-3.6,4.22,4.22,0,0,1,4.43-4.15Z"/><path
        class="cls-1"
        d="M471.92,35.52A7,7,0,0,1,476,36.58a4.7,4.7,0,0,1,1.34-.75l.07,0a15,15,0,0,1-.87,3.37l-.09.09a8.13,8.13,0,0,1-.61-2.36,6.69,6.69,0,0,0-3.56-.82c-4.81,0-7.35,3.42-7.35,7.63,0,3.72,2.45,7.4,7.82,7.4a4.7,4.7,0,0,0,1.72-.24c.68-.68,2-2.07,2.52-2.5l.12.07a13.91,13.91,0,0,1-1.16,2.61,14.35,14.35,0,0,1-4.17.78c-4.31,0-8.58-2.59-8.58-8.06,0-5.68,4.92-8.34,8.65-8.34Z"/><path class="cls-1" d="M488.51,35.52c3.86,0,8.2,2.5,8.27,7.89a7.92,7.92,0,0,1-8.18,8.51c-3.49,0-8.15-2.33-8.15-8a8.06,8.06,0,0,1,8-8.36Zm.07.47c-4.12,0-6.31,3.53-6.31,7.52,0,4.26,2.62,8,6.62,8,4.29,0,6.08-3.75,6.08-7.77,0-4.41-3-7.7-6.36-7.7Z"/><path
        class="cls-1"
        d="M505.17,51.54c-1,0-1.62-.07-2.83-.07-.59,0-1.74,0-2.59.07l0-.09,2.1-.82c.07-1.23.33-5.44.4-12.53-1-1.46-1-1.46-2.4-2l.07-.12,2.66-.12a9,9,0,0,0,.71,1.15c3.23,4.22,6.9,8.65,10.27,12.46h.09c0-1.53-.14-10.74-.17-12.58L511.72,36l.07-.09c.85,0,1.41.07,2.07.07s1.79,0,2.69-.07l0,.14-2,.8c0,1.15-.24,8.22-.26,12.58,0,.75,0,1.86-.09,2.4L514,52c-2.1-1.44-6.1-6.81-11.21-13.1h0c0,4.41,0,10.53.19,11.69l2.24.9Z"/><path
        class="cls-1"
        d="M524.35,35.52a4,4,0,0,1,2.57.92,7.78,7.78,0,0,1,1.3-.8l.07.07a31.29,31.29,0,0,1-.87,3.09l-.09.07a18.65,18.65,0,0,1-.57-2,4.42,4.42,0,0,0-2.36-.64,3,3,0,0,0-3.11,3,2.84,2.84,0,0,0,1.55,2.62c1,.64,2.21,1.23,3.37,1.86,2.21,1.27,2.62,2.57,2.62,3.65,0,3.7-3.3,4.57-5.21,4.57a7.29,7.29,0,0,1-4.19-1.46,28.75,28.75,0,0,1,1-2.73l.09,0c.09.4.16.82.47,3.13a6,6,0,0,0,2.47.45c2.45-.07,3.84-1.3,3.84-3.46,0-1-.57-1.86-2-2.71-1-.54-2.19-1.13-3.3-1.84a4,4,0,0,1-2-3.6,4.22,4.22,0,0,1,4.43-4.15Z"/><path class="cls-1" d="M532.06,35.92c.94,0,1.84.07,2.73.07s1.77,0,2.66-.07l0,.12-1.91.8v6.57c0,3.89.07,6.86.12,7.26l2.17.78,0,.09c-.54,0-1.53-.07-3-.07-1.25,0-2.47,0-3,.07l0-.09,2-.78c.09-.38.14-3.37.14-7.28v-6.6L532,36Z"/><path
        class="cls-1"
        d="M546,51.54c-1,0-1.62-.07-2.83-.07-.59,0-1.74,0-2.59.07l0-.09,2.1-.82c.07-1.23.33-5.44.4-12.53-1-1.46-1-1.46-2.4-2l.07-.12,2.66-.12a8.91,8.91,0,0,0,.71,1.15c3.23,4.22,6.9,8.65,10.27,12.46h.09c0-1.53-.14-10.74-.16-12.58L552.54,36l.07-.09c.85,0,1.41.07,2.07.07s1.79,0,2.69-.07l0,.14-2,.8c0,1.15-.24,8.22-.26,12.58,0,.75,0,1.86-.09,2.4l-.12.12c-2.1-1.44-6.1-6.81-11.21-13.1h0c0,4.41,0,10.53.19,11.69l2.24.9Z"/><rect class="cls-2 no-color-change" x="10.42" y="7.6" width="783" height="4.3"/><path
        class="cls-3"
        d="M120.29,109c1.45,3.18,4.15,4.77,8,4.77,7.33,0,10.45-6,10.45-20.34,0-7.33-.83-12.66-2.56-16.33-1.45-3.18-4.15-4.77-8-4.77-7.27,0-10.45,6.09-10.45,20.06,0,7.54.83,12.94,2.56,16.61m27.26.28c-3.94,6.64-10.31,9.82-19.86,9.82C113,119.13,105,110.27,105,93.87c0-6.85,1.24-12.32,3.94-17C112.75,70.21,119.25,67,128.8,67c14.81,0,22.69,8.85,22.69,25.39,0,6.71-1.31,12.38-3.94,16.88"/><path
        class="cls-3"
        d="M198.37,70.28c-1.73,1-2,1.87-2,6.09V95.81c0,10.17-.55,13.77-3.8,17.51-3.53,3.94-8.93,5.81-16.75,5.81-8.86,0-14.88-2.84-17.64-7.33-1.94-3.32-2.35-6-2.35-14.46v-21c0-4.22-.28-5.12-2-6.09l-1.73-1V67.65h19.58v1.66l-1.73,1c-1.73,1-2,1.87-2,6.09v26.08c0,3.87.14,5,.83,6.64,1.11,2.7,4.22,4.22,8.65,4.22,3.25,0,5.74-.76,7.33-2.35,1.8-1.8,2.15-3.6,2.15-9.41V76.37c0-4.22-.28-5.12-2-6.09l-1.73-1V67.65h17v1.66Z"/><path
        class="cls-3"
        d="M102.68,70.28c-1.73,1-2,1.87-2,6.09V117c0,5.19-1.52,9.2-4.43,12s-7.13,4.15-12.52,4.15-8-1.52-8-4.91a4.84,4.84,0,0,1,5.05-4.91A2.18,2.18,0,0,1,83,124.45l2.21,3.32c.55.83.76,1,1.38,1a1.48,1.48,0,0,0,1.18-.55c.62-.69.69-1.38.76-4.22V76.37c0-4.22-.28-5.12-2-6.09l-1.73-1V67.65h19.58v1.66Z"/><path
        class="cls-3"
        d="M221.86,72.35c-1.18,0-3.94.21-3.94.21V90.48h3.8c5.88,0,8.51-2.91,8.51-9.69,0-6-2.56-8.44-8.37-8.44m10.52,46.15c-2.63-3.81-7.33-13.08-11.62-22.76l-.14-.42h-2.7v14.39c0,4.29.35,5.19,2.08,6.16l1.73,1v1.66H202.49v-1.66l1.73-1c1.73-1,2.08-1.87,2.08-6.16V76.37c0-4.22-.35-5.12-2.08-6.09l-1.73-1V67.65h21.79c5.4,0,6.43.07,9,.55,6,1.18,9.62,5.67,9.62,11.9,0,6.92-4.57,12-11.49,13l.28.55c.83,1.52,2.35,4.22,4.5,8.09,1.73,3,3.25,5.67,4.57,7.82a23.45,23.45,0,0,0,5.12,6.09l1.59,1.25v1.59Z"/><path
        class="cls-3"
        d="M260.68,109.72c0,4.29.28,5.19,2,6.16l1.8,1v1.66H250v-1.66l1.73-1c1.73-1,2.08-1.87,2.08-6.16V76.37c0-4.22-.35-5.12-2.08-6.09l-1.73-1V67.65h16.81l17.71,28a12.19,12.19,0,0,1,2.15,5.61V76.37c0-4.22-.28-5.12-2-6.09l-1.73-1V67.65h14.46v1.66l-1.8,1c-1.73,1-2,1.87-2,6.09V118.5h-8l-23-36.81a12.92,12.92,0,0,1-1.87-4.5Z"/><path
        class="cls-3"
        d="M318,73.74,312.3,94.15h11ZM295.9,118.5v-1.66l1-1.18a15.93,15.93,0,0,0,2.84-5.4l13.22-41.79,14.18-2,12.45,43.18a13.27,13.27,0,0,0,3,6l1,1.18v1.66H325.58v-1.66l1.59-1.18a2.42,2.42,0,0,0,1-2,4.8,4.8,0,0,0-.28-1.59l-3.25-12.52H310.78l-3.39,12.25a7.63,7.63,0,0,0-.35,1.94,2.39,2.39,0,0,0,1,1.94l1.59,1.18v1.66Z"/><path
        class="cls-3"
        d="M366.86,67.65v1.66l-3,1.38c-1.66.76-2.08,1.87-2.08,6.09v36.74h5.33a14.46,14.46,0,0,0,4.36-.56,6.63,6.63,0,0,0,2.84-1.59l5.05-5h2.49l-2.49,12.11H346v-1.66l1.73-1c1.73-1,2.08-1.87,2.08-6.16V76.37c0-4.22-.35-5.12-2.08-6.09l-1.73-1V67.65Z"/><path
        class="cls-3"
        d="M428.88,115.32c-3.25,2.63-7.75,3.8-14.46,3.8a61.11,61.11,0,0,1-13.7-1.52l-.21-.07V106.4h2.08l2.77,3c.76.83,1.52,1.52,2.28,2.21,2.14,1.73,3.67,2.21,6.92,2.21,5.47,0,8.23-2.28,8.23-6.85a7.29,7.29,0,0,0-.9-3.39c-.9-1.59-1.94-2.49-6.3-5.26l-5.05-3.11c-7.26-4.57-9.62-8-9.62-14a13.45,13.45,0,0,1,5.88-11.35c3-2,6.92-2.91,12.39-2.91a72.28,72.28,0,0,1,13.15,1.31l.14.07V79.13h-2.08l-2.77-2.63c-3.67-3.53-5.12-4.22-8.51-4.22-4.57,0-7.13,2.21-7.13,6.16a6.3,6.3,0,0,0,.9,3.46c.76,1.18,1.94,2,5.26,3.94L423.49,89a57,57,0,0,1,4.84,3,14,14,0,0,1,5.81,11.76,14.44,14.44,0,0,1-5.26,11.56"/><path
        class="cls-3"
        d="M463.93,99.48,461.37,97c-1.66-1.66-2.49-1.94-5.81-1.94h-4.64v18.48h7.4a13.75,13.75,0,0,0,4.29-.49,6.78,6.78,0,0,0,2.91-1.66l5.05-5h2.49l-2.49,12.11H435.08v-1.66l1.73-1c1.73-1,2.08-1.87,2.08-6.16V76.37c0-4.22-.35-5.12-2.08-6.09l-1.73-1V67.65h35.29V79.13H468l-3.53-4.36a6.06,6.06,0,0,0-1.66-1.32c-1.31-.69-2.14-.83-5.19-.83h-6.71V90.07h4.64c3.32,0,4.15-.28,5.81-1.94l2.56-2.49h2.35V99.48Z"/><path
        class="cls-3"
        d="M485.65,109.72c0,4.29.28,5.19,2,6.16l1.8,1v1.66H475v-1.66l1.73-1c1.73-1,2.08-1.87,2.08-6.16V76.37c0-4.22-.35-5.12-2.08-6.09l-1.73-1V67.65h16.81l17.71,28a12.2,12.2,0,0,1,2.14,5.61V76.37c0-4.22-.28-5.12-2-6.09l-1.73-1V67.65H522.4v1.66l-1.8,1c-1.73,1-2,1.87-2,6.09V118.5h-8l-23-36.81a13,13,0,0,1-1.87-4.5Z"/><path class="cls-3" d="M536,72.35c-3.39,0-4.5.42-5.67,2.14l-3.18,4.64H525V67.65h40.62V79.13h-2.08l-3.18-4.64c-1.18-1.73-2.28-2.14-5.6-2.14h-3.39v37.22c0,4.43.35,5.33,2.28,6.23l2.35,1v1.66H534.64v-1.66l2.42-1c1.87-.9,2.21-1.8,2.21-6.23V72.35Z"/><path class="cls-3" d="M586,70.28c-1.73,1-2.08,1.87-2.08,6.09v33.35c0,4.29.35,5.19,2.08,6.16l1.73,1v1.66H568.1v-1.66l1.73-1c1.73-1,2.08-1.87,2.08-6.16V76.37c0-4.22-.35-5.12-2.08-6.09l-1.73-1V67.65h19.65v1.66Z"/><path
        class="cls-3"
        d="M601,109.72c0,4.29.28,5.19,2,6.16l1.8,1v1.66H590.31v-1.66l1.73-1c1.73-1,2.08-1.87,2.08-6.16V76.37c0-4.22-.35-5.12-2.08-6.09l-1.73-1V67.65h16.81l17.71,28a12.2,12.2,0,0,1,2.14,5.61V76.37c0-4.22-.28-5.12-2-6.09l-1.73-1V67.65H637.7v1.66l-1.8,1c-1.73,1-2,1.87-2,6.09V118.5h-8l-23-36.81A12.93,12.93,0,0,1,601,77.2Z"/><path
        class="cls-3"
        d="M669.22,99.48,666.65,97C665,95.32,664.16,95,660.84,95h-4.64v18.48h7.4a13.75,13.75,0,0,0,4.29-.49,6.79,6.79,0,0,0,2.91-1.66l5.05-5h2.49l-2.49,12.11h-35.5v-1.66l1.73-1c1.73-1,2.07-1.87,2.07-6.16V76.37c0-4.22-.34-5.12-2.07-6.09l-1.73-1V67.65h35.29V79.13H673.3l-3.53-4.36a6.06,6.06,0,0,0-1.66-1.32c-1.31-.69-2.14-.83-5.19-.83h-6.71V90.07h4.64c3.32,0,4.15-.28,5.81-1.94l2.56-2.49h2.35V99.48Z"/><path
        class="cls-3"
        d="M701.18,67.65v1.66l-3,1.38c-1.66.76-2.08,1.87-2.08,6.09v36.74h5.33a14.46,14.46,0,0,0,4.36-.56,6.64,6.64,0,0,0,2.84-1.59l5.05-5h2.49L713.7,118.5H680.29v-1.66l1.73-1c1.73-1,2.08-1.87,2.08-6.16V76.37c0-4.22-.35-5.12-2.08-6.09l-1.73-1V67.65Z"/><path
        class="cls-3"
        d="M120.23,109c1.45,3.17,4.13,4.76,8,4.76,7.3,0,10.4-6,10.4-20.26,0-7.31-.83-12.61-2.55-16.27-1.45-3.17-4.13-4.76-8-4.76-7.23,0-10.4,6.07-10.4,20,0,7.51.83,12.89,2.55,16.54m27.14.28c-3.93,6.62-10.26,9.79-19.77,9.79-14.67,0-22.6-8.82-22.6-25.16,0-6.83,1.24-12.27,3.93-17,3.79-6.62,10.27-9.79,19.77-9.79,14.74,0,22.6,8.82,22.6,25.29,0,6.69-1.31,12.34-3.93,16.82"/><path
        class="cls-3"
        d="M120.23,109l-.91.42a8.75,8.75,0,0,0,3.49,4,10.45,10.45,0,0,0,5.41,1.33,10,10,0,0,0,5.22-1.3,9.07,9.07,0,0,0,2.87-2.77,18.25,18.25,0,0,0,2.53-6.88,57.32,57.32,0,0,0,.78-10.31c0-7.38-.82-12.81-2.65-16.69l-.9.43.91-.42a8.75,8.75,0,0,0-3.49-4,10.45,10.45,0,0,0-5.41-1.33,9.93,9.93,0,0,0-5.19,1.31A9.16,9.16,0,0,0,120,75.55a18.11,18.11,0,0,0-2.55,6.81,54.56,54.56,0,0,0-.79,10.11c0,7.59.82,13.08,2.64,17l.9-.43-.91.42.91-.42.9-.43c-1.62-3.42-2.46-8.68-2.45-16.12,0-6.89.81-11.76,2.38-14.75a7.77,7.77,0,0,1,2.86-3.21,7.94,7.94,0,0,1,4.16-1,8.46,8.46,0,0,1,4.39,1,6.74,6.74,0,0,1,2.69,3.12h0c1.62,3.42,2.46,8.61,2.45,15.84,0,7.06-.79,12-2.35,15a7.66,7.66,0,0,1-2.86,3.22,8,8,0,0,1-4.19,1,8.44,8.44,0,0,1-4.39-1,6.74,6.74,0,0,1-2.69-3.12h0Zm27.14.28-.86-.51a17.49,17.49,0,0,1-7.38,7,25.7,25.7,0,0,1-11.53,2.31,25.92,25.92,0,0,1-9.36-1.57,17.08,17.08,0,0,1-9.08-7.93c-2.06-3.75-3.16-8.65-3.16-14.66,0-6.71,1.21-12,3.79-16.46a16.89,16.89,0,0,1,7.32-7,26,26,0,0,1,11.59-2.31,26,26,0,0,1,9.39,1.57,17,17,0,0,1,9.07,8c2.05,3.77,3.14,8.7,3.14,14.76,0,6.56-1.29,12-3.79,16.31h0l.86.51.86.5c2.73-4.67,4.06-10.51,4.06-17.32,0-8.39-2-15-6-19.49a19.06,19.06,0,0,0-7.46-5.1,28,28,0,0,0-10.11-1.7,28,28,0,0,0-12.47,2.52,18.91,18.91,0,0,0-8.17,7.77C105.27,81.33,104,87,104,93.92c0,8.32,2,14.88,6.05,19.37a19.13,19.13,0,0,0,7.46,5.08,27.91,27.91,0,0,0,10.08,1.7A27.66,27.66,0,0,0,140,117.56a19.5,19.5,0,0,0,8.21-7.76h0Z"/><path
        class="cls-3"
        d="M198.18,70.42c-1.72,1-2,1.86-2,6.07V95.85c0,10.13-.55,13.72-3.79,17.44-3.51,3.93-8.89,5.79-16.67,5.79-8.82,0-14.81-2.83-17.57-7.3-1.93-3.31-2.34-5.93-2.34-14.41V76.48c0-4.21-.28-5.1-2-6.07l-1.72-1V67.8h19.5v1.65l-1.72,1c-1.72,1-2,1.86-2,6.07v26c0,3.86.14,5,.83,6.62,1.1,2.69,4.2,4.2,8.61,4.2,3.24,0,5.72-.76,7.3-2.34,1.79-1.79,2.14-3.58,2.14-9.37V76.48c0-4.21-.28-5.1-2-6.07l-1.72-1V67.8H199.9v1.65Z"/><path
        class="cls-3"
        d="M198.18,70.42l-.49-.87a5.21,5.21,0,0,0-1.28,1,3.59,3.59,0,0,0-.68,1,6.55,6.55,0,0,0-.46,2c-.08.79-.1,1.74-.1,2.93V95.85a57.82,57.82,0,0,1-.66,10.92,11.89,11.89,0,0,1-2.88,5.86l.75.66-.74-.67a14.7,14.7,0,0,1-6.32,4.09,29.4,29.4,0,0,1-9.61,1.37,27.11,27.11,0,0,1-10.66-1.89,12.81,12.81,0,0,1-6.06-4.94l-.85.52.86-.5a13.14,13.14,0,0,1-1.77-4.92,59.85,59.85,0,0,1-.44-9V76.48a15.75,15.75,0,0,0-.4-4.56,3.72,3.72,0,0,0-.83-1.43,5.21,5.21,0,0,0-1.28-1l-1.21-.68V68.8h17.5v.07l-1.21.68a5.22,5.22,0,0,0-1.28,1,3.6,3.6,0,0,0-.68,1,6.55,6.55,0,0,0-.46,2c-.08.79-.1,1.74-.1,2.93v26a36.13,36.13,0,0,0,.16,4.26,9.78,9.78,0,0,0,.74,2.74h0a7,7,0,0,0,3.55,3.63,13.67,13.67,0,0,0,6,1.2,15.23,15.23,0,0,0,4.57-.62,8.34,8.34,0,0,0,3.44-2,7,7,0,0,0,2-3.68,31.45,31.45,0,0,0,.42-6.4V76.48a15.75,15.75,0,0,0-.4-4.56,3.72,3.72,0,0,0-.83-1.43,5.22,5.22,0,0,0-1.28-1L184,68.87V68.8H198.9v.07l-1.21.68.49.87.49.87L200.9,70V66.8H182V70l2.23,1.25a3.25,3.25,0,0,1,.8.58,1.56,1.56,0,0,1,.3.46,4.67,4.67,0,0,1,.3,1.41c.06.68.09,1.57.09,2.74v25.09a29.93,29.93,0,0,1-.37,6,5,5,0,0,1-1.47,2.7,6.35,6.35,0,0,1-2.63,1.52,13.2,13.2,0,0,1-4,.53,11.72,11.72,0,0,1-5.11-1,5,5,0,0,1-2.58-2.59h0a7.74,7.74,0,0,1-.6-2.22,34.62,34.62,0,0,1-.15-4v-26a14.49,14.49,0,0,1,.3-3.94,1.69,1.69,0,0,1,.38-.68,3.25,3.25,0,0,1,.8-.58L172.58,70V66.8h-21.5V70l2.23,1.25a3.25,3.25,0,0,1,.8.58,1.59,1.59,0,0,1,.3.46,4.67,4.67,0,0,1,.3,1.41c.06.68.09,1.57.09,2.74V97.37a61.36,61.36,0,0,0,.46,9.3,15.17,15.17,0,0,0,2,5.61h0a14.81,14.81,0,0,0,7,5.73,29.06,29.06,0,0,0,11.45,2.05A31.38,31.38,0,0,0,186,118.6a16.72,16.72,0,0,0,7.15-4.65h0a13.93,13.93,0,0,0,3.33-6.77,59.37,59.37,0,0,0,.7-11.32V76.48a14.53,14.53,0,0,1,.3-3.94,1.7,1.7,0,0,1,.38-.68,3.21,3.21,0,0,1,.8-.58Z"/><path
        class="cls-3"
        d="M102.49,70.42c-1.72,1-2,1.86-2,6.07V117c0,5.17-1.51,9.17-4.4,11.93s-7.08,4.14-12.44,4.14-8-1.52-8-4.9a4.81,4.81,0,0,1,5-4.9A2.16,2.16,0,0,1,83,124.43l2.2,3.31c.55.83.76,1,1.37,1a1.46,1.46,0,0,0,1.17-.55c.62-.69.69-1.38.76-4.21V76.49c0-4.21-.27-5.11-2-6.07l-1.72-1V67.8h19.45v1.66Z"/><path
        class="cls-3"
        d="M102.49,70.42l-.49-.87a5.19,5.19,0,0,0-1.28,1,3.58,3.58,0,0,0-.67,1,6.58,6.58,0,0,0-.46,2c-.07.79-.1,1.74-.1,2.93V117a18.71,18.71,0,0,1-1.05,6.52,12.29,12.29,0,0,1-3,4.69l.69.72-.68-.73c-2.66,2.48-6.57,3.87-11.75,3.87-2.66,0-4.49-.39-5.52-1a2.85,2.85,0,0,1-1.09-1.13,3.75,3.75,0,0,1-.36-1.73,3.82,3.82,0,0,1,1.12-2.79,4.07,4.07,0,0,1,2.89-1.1,2.06,2.06,0,0,1,.89.12l.21.16a2.72,2.72,0,0,1,.33.43h0l2.2,3.32a4.44,4.44,0,0,0,.88,1.06,1.92,1.92,0,0,0,.66.34,2.51,2.51,0,0,0,.67.08,2.47,2.47,0,0,0,2-.93l-.78-.62.75.67a3.15,3.15,0,0,0,.53-.8,4.84,4.84,0,0,0,.37-1.59c.06-.62.08-1.4.11-2.46h0V76.49a15.85,15.85,0,0,0-.4-4.56,3.73,3.73,0,0,0-.82-1.43,5.22,5.22,0,0,0-1.28-1l-1.21-.68V68.8h17.45v.07l-1.21.68.49.87.49.87L105.21,70V66.8H83.77V70L86,71.29a3.26,3.26,0,0,1,.8.58,1.56,1.56,0,0,1,.3.46,4.7,4.7,0,0,1,.3,1.41c.06.68.09,1.58.09,2.75V124h1l-1,0a22.68,22.68,0,0,1-.16,2.76,2,2,0,0,1-.14.5,1.13,1.13,0,0,1-.21.3l0,0,0,0a.47.47,0,0,1-.39.17h-.13l0,.11.06-.1h0l0,.11.06-.1h0a3.23,3.23,0,0,1-.45-.59l-2.2-3.31-.83.55.84-.54a4.66,4.66,0,0,0-.58-.75,2.69,2.69,0,0,0-1.18-.73,4.63,4.63,0,0,0-1.36-.16,6.07,6.07,0,0,0-4.29,1.67,5.83,5.83,0,0,0-1.73,4.23,5.72,5.72,0,0,0,.58,2.65,5.34,5.34,0,0,0,3.11,2.53,15.88,15.88,0,0,0,5.28.72c5.53,0,10-1.5,13.12-4.41h0a14.3,14.3,0,0,0,3.53-5.44A20.69,20.69,0,0,0,101.5,117V76.49a14.58,14.58,0,0,1,.3-3.94,1.71,1.71,0,0,1,.38-.68,3.26,3.26,0,0,1,.8-.58Z"/><path
        class="cls-3"
        d="M221.78,72.48c-1.17,0-3.93.21-3.93.21V90.54h3.79c5.85,0,8.47-2.89,8.47-9.65,0-5.93-2.55-8.41-8.33-8.41m10.47,46c-2.62-3.79-7.3-13-11.57-22.67l-.14-.41h-2.69V109.7c0,4.27.35,5.17,2.07,6.13l1.72,1v1.65H202.49V116.8l1.72-1c1.72-1,2.07-1.86,2.07-6.13V76.48c0-4.2-.35-5.1-2.07-6.07l-1.72-1V67.8h21.7c5.37,0,6.41.07,9,.55,5.92,1.17,9.58,5.65,9.58,11.85,0,6.89-4.55,12-11.44,13l.28.55c.83,1.52,2.34,4.2,4.48,8.06,1.72,3,3.24,5.65,4.55,7.79a23.35,23.35,0,0,0,5.1,6.06l1.58,1.24v1.59Z"/><path
        class="cls-3"
        d="M221.78,72.48v-1c-.64,0-1.62.05-2.46.11l-1.54.1-.93.07V91.54h4.79a12.35,12.35,0,0,0,4.13-.62,7.1,7.1,0,0,0,4.1-3.56,14.18,14.18,0,0,0,1.25-6.48,14,14,0,0,0-.53-4.11,6.82,6.82,0,0,0-3.12-4.07,11.28,11.28,0,0,0-5.68-1.23v2a11.81,11.81,0,0,1,3.45.44,4.77,4.77,0,0,1,2.91,2.21,9.53,9.53,0,0,1,1,4.77,15.55,15.55,0,0,1-.46,4.09,5.67,5.67,0,0,1-2.3,3.45,8.46,8.46,0,0,1-4.71,1.11h-2.79V72.69h-1l.08,1,1.51-.1c.83-.05,1.81-.1,2.34-.1Zm10.47,46,.82-.57a88.63,88.63,0,0,1-5.1-9c-2-4-4.25-8.68-6.38-13.49l-.91.41.95-.32-.14-.41-.23-.68h-4.41V109.7a15.2,15.2,0,0,0,.44,4.63,3.78,3.78,0,0,0,.85,1.43,5.36,5.36,0,0,0,1.28.95l1.21.68v.07H203.49v-.07l1.21-.68a5.34,5.34,0,0,0,1.28-.95,3.7,3.7,0,0,0,.69-1,6.55,6.55,0,0,0,.49-2c.08-.81.11-1.77.11-3V76.48a14.84,14.84,0,0,0-.44-4.57,3.77,3.77,0,0,0-.85-1.42,5.38,5.38,0,0,0-1.28-.94l-1.21-.68V68.8h20.7c2.68,0,4.27,0,5.47.09a23.92,23.92,0,0,1,3.29.44h0A10.73,10.73,0,0,1,239.37,73a11.19,11.19,0,0,1,2.34,7.18,11.91,11.91,0,0,1-2.88,8,12.35,12.35,0,0,1-7.69,3.93l-1.38.19.91,1.81v0c.83,1.53,2.35,4.21,4.48,8.07h0c1.72,3,3.24,5.66,4.56,7.82h0a24.31,24.31,0,0,0,5.32,6.31h0l1.21.95v.1h-14v1l.82-.57-.82.57v1h16v-3.07l-2-1.54-.62.79.63-.78a22.38,22.38,0,0,1-4.88-5.82h0c-1.3-2.12-2.81-4.73-4.53-7.76l-.87.49.88-.48c-2.14-3.86-3.65-6.55-4.47-8.06l-.88.48.9-.45-.28-.55-.89.45.14,1a14.35,14.35,0,0,0,8.91-4.58,13.91,13.91,0,0,0,3.39-9.36,13.19,13.19,0,0,0-2.79-8.44,12.74,12.74,0,0,0-7.59-4.39h0a26.06,26.06,0,0,0-3.54-.47c-1.29-.08-2.91-.1-5.6-.1h-22.7V70l2.23,1.25a3.42,3.42,0,0,1,.82.58,1.67,1.67,0,0,1,.32.47,4.56,4.56,0,0,1,.32,1.41c.07.67.1,1.57.1,2.73V109.7a13.86,13.86,0,0,1-.33,4,1.77,1.77,0,0,1-.41.69,3.42,3.42,0,0,1-.82.58l-2.23,1.25v3.24h21.15v-3.24L220.41,115a3.42,3.42,0,0,1-.82-.58,1.63,1.63,0,0,1-.32-.47,4.63,4.63,0,0,1-.32-1.42c-.07-.68-.1-1.59-.1-2.78V96.37h1.69v-1l-.95.32.14.41,0,0,0,0c2.14,4.84,4.39,9.57,6.43,13.58a90.69,90.69,0,0,0,5.23,9.25l.3.43h.52Z"/><path
        class="cls-3"
        d="M260.63,109.7c0,4.27.28,5.17,2,6.13l1.79,1v1.65H250V116.8l1.72-1c1.72-1,2.07-1.86,2.07-6.13V76.48c0-4.2-.35-5.1-2.07-6.07l-1.72-1V67.8h16.74L284.4,95.71a12.16,12.16,0,0,1,2.14,5.58V76.48c0-4.2-.28-5.1-2-6.07l-1.72-1V67.8h14.4v1.65l-1.79,1c-1.72,1-2,1.86-2,6.07v42h-8L262.49,81.79a12.88,12.88,0,0,1-1.86-4.48Z"/><path
        class="cls-3"
        d="M260.63,109.7h-1a16.13,16.13,0,0,0,.4,4.62,3.71,3.71,0,0,0,.83,1.44,5.15,5.15,0,0,0,1.28,1h0l1.27.69v.06H251v-.07l1.21-.68a5.38,5.38,0,0,0,1.28-.95,3.67,3.67,0,0,0,.69-1,6.52,6.52,0,0,0,.49-2c.08-.81.11-1.77.11-3V76.48a14.86,14.86,0,0,0-.44-4.57,3.78,3.78,0,0,0-.85-1.42,5.43,5.43,0,0,0-1.28-.94L251,68.87V68.8h15.19l17.35,27.45h0a12,12,0,0,1,1.28,2.37,16.38,16.38,0,0,1,.71,2.85l2-.18V76.48a15.75,15.75,0,0,0-.4-4.56,3.71,3.71,0,0,0-.83-1.43,5.18,5.18,0,0,0-1.28-1l-1.21-.68V68.8h12.4v.06l-1.27.69h0a5.21,5.21,0,0,0-1.28,1,3.59,3.59,0,0,0-.68,1,6.53,6.53,0,0,0-.46,2c-.07.79-.1,1.74-.1,2.93v41H286L263.34,81.26l-.85.53.86-.51a15.89,15.89,0,0,1-1.07-2,13.87,13.87,0,0,1-.67-2.19l-2-8.18v40.8h2V77.31h-1l-1,.23a15.73,15.73,0,0,0,.77,2.5,17.62,17.62,0,0,0,1.2,2.26h0l23.24,37.14h9.54v-43a14.55,14.55,0,0,1,.3-3.94,1.7,1.7,0,0,1,.38-.68,3.23,3.23,0,0,1,.8-.58l-.49-.87.47.88L298.22,70V66.8h-16.4V70l2.23,1.25a3.24,3.24,0,0,1,.8.58,1.56,1.56,0,0,1,.3.46,4.7,4.7,0,0,1,.3,1.41c.06.68.09,1.57.09,2.74v24.81h1l1-.18a18.24,18.24,0,0,0-.81-3.2,13.94,13.94,0,0,0-1.48-2.75l-.84.55.84-.53L267.32,66.8H249V70l2.23,1.25a3.44,3.44,0,0,1,.82.58,1.67,1.67,0,0,1,.32.47,4.56,4.56,0,0,1,.32,1.41c.07.67.1,1.57.1,2.73V109.7a13.85,13.85,0,0,1-.33,4,1.78,1.78,0,0,1-.41.69,3.43,3.43,0,0,1-.82.58L249,116.21v3.24h16.4V116.2L263.1,115l-.47.88.49-.87a3.24,3.24,0,0,1-.8-.58,1.59,1.59,0,0,1-.3-.47,4.76,4.76,0,0,1-.3-1.43c-.06-.69-.09-1.6-.09-2.79Z"/><path
        class="cls-3"
        d="M317.88,73.87,312.23,94.2h11Zm-22,44.58V116.8l1-1.17a15.87,15.87,0,0,0,2.83-5.37l13.16-41.62,14.12-2,12.4,43a13.2,13.2,0,0,0,3,6l1,1.17v1.65H325.46V116.8l1.59-1.17a2.41,2.41,0,0,0,1-2,4.8,4.8,0,0,0-.28-1.59l-3.24-12.47H310.71l-3.38,12.2a7.65,7.65,0,0,0-.34,1.93,2.38,2.38,0,0,0,1,1.93l1.59,1.17v1.65Z"/><path
        class="cls-3"
        d="M317.88,73.87l-1-.27-6,21.6h13.57L317.91,70l-1,3.58,1,.27-1,.25,5,19.08h-8.34l5.3-19.06-1-.27-1,.25Zm-22,44.58h1v-1.3l.74-.9-.77-.63.76.65a16.83,16.83,0,0,0,3-5.71l13-41,12.64-1.79,12.16,42.16h0a20.77,20.77,0,0,0,1.32,3.66,12.29,12.29,0,0,0,1.86,2.72l.75-.66-.77.63.74.9v.3H326.46v-.15l1.18-.87-.59-.8.55.83a3.41,3.41,0,0,0,1.48-2.83,5.78,5.78,0,0,0-.33-1.9l-.95.32,1-.25-3.43-13.22H310l-3.58,12.93h0a8.49,8.49,0,0,0-.38,2.19,3.37,3.37,0,0,0,1.48,2.76l.55-.83-.59.8,1.18.87v.15H295.9v1h0v1h14.71V116.3l-2-1.49h0a1.4,1.4,0,0,1-.59-1.1,6.78,6.78,0,0,1,.31-1.67l3.17-11.46h12.31l3.05,11.76v0a3.77,3.77,0,0,1,.22,1.27,1.42,1.42,0,0,1-.59,1.17h0l-2,1.49v3.16H344.3v-3L343.1,115h0a10.21,10.21,0,0,1-1.57-2.29,18.83,18.83,0,0,1-1.18-3.31h0L327.69,65.52l-15.61,2.21-13.35,42.22h0a14.9,14.9,0,0,1-2.63,5h0l-1.2,1.45v3h1Z"/><path class="cls-3" d="M366.73,67.8v1.65l-3,1.38c-1.65.76-2.06,1.86-2.06,6.07v36.6H367a14.4,14.4,0,0,0,4.33-.55,6.6,6.6,0,0,0,2.82-1.58l5-5h2.48l-2.48,12.06H346V116.8l1.72-1c1.72-1,2.06-1.86,2.06-6.13V76.48c0-4.2-.34-5.1-2.06-6.07l-1.72-1V67.8Z"/><path
        class="cls-3"
        d="M366.73,67.8h-1v1l-2.38,1.11h0a4.34,4.34,0,0,0-1.31.88,3.57,3.57,0,0,0-.7,1,6.78,6.78,0,0,0-.51,2.07,27.91,27.91,0,0,0-.12,3v37.6H367a15.38,15.38,0,0,0,4.63-.6l-.3-1,.29,1a7.58,7.58,0,0,0,3.24-1.84h0l4.72-4.67h.84l-2.06,10.06H347v-.07l1.21-.68a5.33,5.33,0,0,0,1.28-.95,3.67,3.67,0,0,0,.69-1,6.52,6.52,0,0,0,.49-2c.08-.81.11-1.77.11-3V76.48a14.88,14.88,0,0,0-.44-4.57,3.78,3.78,0,0,0-.85-1.42,5.43,5.43,0,0,0-1.28-.94L347,68.87V68.8h19.77v-1h0v-1H345V70l2.23,1.25a3.49,3.49,0,0,1,.81.58,1.64,1.64,0,0,1,.32.47,4.53,4.53,0,0,1,.32,1.41c.07.67.1,1.57.1,2.73V109.7a13.91,13.91,0,0,1-.33,4,1.78,1.78,0,0,1-.4.69,3.4,3.4,0,0,1-.81.58L345,116.21v3.24h35l2.89-14.06h-4.11l-5.31,5.25h0A5.59,5.59,0,0,1,371,112h0a13.4,13.4,0,0,1-4,.51h-4.3V76.9a13.64,13.64,0,0,1,.36-4,1.73,1.73,0,0,1,.4-.69,2.36,2.36,0,0,1,.72-.47h0l3.53-1.65V66.8h-1Z"/><path
        class="cls-3"
        d="M428.71,115.29c-3.23,2.62-7.7,3.79-14.37,3.79a60.71,60.71,0,0,1-13.62-1.52l-.21-.07V106.4h2.06l2.75,3c.76.83,1.51,1.52,2.27,2.21,2.13,1.72,3.65,2.2,6.88,2.2,5.43,0,8.18-2.27,8.18-6.82a7.29,7.29,0,0,0-.89-3.38c-.89-1.58-1.93-2.48-6.26-5.24l-5-3.1c-7.22-4.55-9.56-8-9.56-13.92a13.41,13.41,0,0,1,5.85-11.3c3-2,6.88-2.89,12.31-2.89a71.77,71.77,0,0,1,13.07,1.31l.14.07V79.24h-2.06l-2.75-2.62c-3.65-3.52-5.09-4.21-8.46-4.21-4.54,0-7.08,2.21-7.08,6.13a6.28,6.28,0,0,0,.89,3.45c.76,1.17,1.93,2,5.23,3.93l5.3,3.1a55.72,55.72,0,0,1,4.81,3,13.92,13.92,0,0,1,5.78,11.72,14.4,14.4,0,0,1-5.23,11.51"/><path
        class="cls-3"
        d="M428.71,115.29l-.63-.78a14.35,14.35,0,0,1-5.52,2.69,32.56,32.56,0,0,1-8.22.88,59.59,59.59,0,0,1-13.39-1.49l-.22,1,.32-.95-.21-.07-.32.95h1V107.4h.62l2.46,2.71c.79.87,1.58,1.58,2.33,2.27l0,0,0,0a10.15,10.15,0,0,0,3.35,1.92,13.41,13.41,0,0,0,4.16.5c2.85,0,5.14-.59,6.77-1.94a6.29,6.29,0,0,0,1.83-2.53,9,9,0,0,0,.59-3.36,8.27,8.27,0,0,0-1-3.85h0a8.34,8.34,0,0,0-2.07-2.45A44.49,44.49,0,0,0,416,97.56h0l-5-3.1h0c-3.56-2.24-5.83-4.17-7.2-6.16a11.48,11.48,0,0,1-1.9-6.91,12.4,12.4,0,0,1,5.4-10.47c2.8-1.85,6.43-2.73,11.76-2.73A70.86,70.86,0,0,1,432,69.47l.19-1-.45.89.14.07.45-.89h-1v9.68h-.66l-2.46-2.34a19.47,19.47,0,0,0-4.58-3.6,8,8,0,0,0-2.16-.71,13.71,13.71,0,0,0-2.41-.18,8.81,8.81,0,0,0-5.9,1.84,6,6,0,0,0-1.64,2.3,7.88,7.88,0,0,0-.54,3,7.28,7.28,0,0,0,1.05,4h0a7.34,7.34,0,0,0,1.9,1.94,42.21,42.21,0,0,0,3.66,2.31l5.3,3.1h0a54.71,54.71,0,0,1,4.72,3h0a12.92,12.92,0,0,1,5.35,10.9,13.39,13.39,0,0,1-4.85,10.73h0l.63.78.62.78a15.4,15.4,0,0,0,5.6-12.29,14.93,14.93,0,0,0-6.2-12.53l-.58.82.59-.81a57,57,0,0,0-4.9-3.09h0l-5.29-3.1a40.23,40.23,0,0,1-3.48-2.19,5.33,5.33,0,0,1-1.42-1.42h0a5.3,5.3,0,0,1-.73-2.91,5.89,5.89,0,0,1,.39-2.24,4.07,4.07,0,0,1,1.92-2.11,8,8,0,0,1,3.77-.79,11.69,11.69,0,0,1,2.05.15,6.27,6.27,0,0,1,2.46,1,24.07,24.07,0,0,1,3.25,2.76h0l3,2.9h3.46V67.94l-.69-.35-.12-.06-.13,0a72.82,72.82,0,0,0-13.26-1.33c-5.53,0-9.61.91-12.86,3.06a14.4,14.4,0,0,0-6.29,12.14,13.5,13.5,0,0,0,2.25,8c1.61,2.35,4.12,4.42,7.78,6.73h0l5,3.1.52-.85-.54.84a43.32,43.32,0,0,1,4.31,3,6.32,6.32,0,0,1,1.61,1.91l.87-.49-.88.47a6.29,6.29,0,0,1,.78,2.91,7,7,0,0,1-.44,2.61A4.37,4.37,0,0,1,419,112a10.17,10.17,0,0,1-4.53.85,11.51,11.51,0,0,1-3.55-.41,8.19,8.19,0,0,1-2.7-1.57l-.63.78.67-.74c-.76-.69-1.49-1.36-2.21-2.14l-3-3.36h-3.51v12.82l.89.3,0,0h0a61.67,61.67,0,0,0,13.84,1.54,34.51,34.51,0,0,0,8.73-.95,16.36,16.36,0,0,0,6.27-3.07h0Z"/><path
        class="cls-3"
        d="M463.76,99.5,461.21,97c-1.65-1.65-2.48-1.93-5.78-1.93h-4.61v18.4h7.36a13.6,13.6,0,0,0,4.26-.48,6.74,6.74,0,0,0,2.89-1.65l5-5h2.48l-2.48,12.06H435.08V116.8l1.72-1c1.72-1,2.06-1.86,2.06-6.13V76.48c0-4.2-.34-5.1-2.06-6.07l-1.72-1V67.8h35.08V79.24h-2.34l-3.51-4.34a6,6,0,0,0-1.65-1.31c-1.31-.69-2.13-.83-5.16-.83h-6.67V90.13h4.61c3.3,0,4.13-.28,5.78-1.93l2.55-2.48h2.34V99.5Z"/><path
        class="cls-3"
        d="M463.76,99.5l.7-.72-2.54-2.48-.7.72.71-.71a10.2,10.2,0,0,0-1.26-1.11,5.31,5.31,0,0,0-2.2-.92,16.72,16.72,0,0,0-3-.19h-5.61v20.4h8.36a14.46,14.46,0,0,0,4.6-.54l-.34-.94.3,1a7.74,7.74,0,0,0,3.29-1.9l4.72-4.67h.84l-2.07,10.06H436.08v-.07l1.21-.68a5.31,5.31,0,0,0,1.28-.95,3.67,3.67,0,0,0,.69-1,6.51,6.51,0,0,0,.49-2,29.67,29.67,0,0,0,.11-3V76.48a14.91,14.91,0,0,0-.44-4.57,3.78,3.78,0,0,0-.85-1.42,5.4,5.4,0,0,0-1.28-.94l-1.21-.68V68.8h33.08v9.44h-.86l-3.22-4h0a7.07,7.07,0,0,0-1.92-1.53h0a6.84,6.84,0,0,0-2.24-.78,22.3,22.3,0,0,0-3.38-.17h-7.67V91.13h5.61a12.27,12.27,0,0,0,3.83-.4,5.18,5.18,0,0,0,1.4-.72,10.1,10.1,0,0,0,1.26-1.11l-.71-.71.7.72,2.25-2.2h.93V98.5h-1.34v1l.7-.72-.7.72v1h3.34V84.72h-3.75l-2.84,2.77h0a8.34,8.34,0,0,1-1,.89,3.26,3.26,0,0,1-1.4.59,15.06,15.06,0,0,1-2.66.16h-3.61V73.76h5.67a20.56,20.56,0,0,1,3.07.14,4.76,4.76,0,0,1,1.63.57l.47-.89-.49.87a5,5,0,0,1,1.38,1.09l.75-.66-.78.63,3.81,4.71h3.82V66.8H434.08V70l2.23,1.25a3.46,3.46,0,0,1,.82.58,1.65,1.65,0,0,1,.32.47,4.55,4.55,0,0,1,.32,1.41,27.17,27.17,0,0,1,.1,2.73V109.7a13.94,13.94,0,0,1-.33,4,1.8,1.8,0,0,1-.41.69,3.37,3.37,0,0,1-.81.58l-2.23,1.25v3.24h37.1l2.89-14.06H470l-5.32,5.25h0a5.73,5.73,0,0,1-2.48,1.41h0a12.85,12.85,0,0,1-3.93.42h-6.36V96.09h3.61a10.6,10.6,0,0,1,3.19.29,3.19,3.19,0,0,1,.87.45,8.2,8.2,0,0,1,1,.89h0l2.84,2.77h.41Z"/><path
        class="cls-3"
        d="M485.61,109.7c0,4.27.28,5.17,2,6.13l1.79,1v1.65H475V116.8l1.72-1c1.72-1,2.07-1.86,2.07-6.13V76.48c0-4.2-.34-5.1-2.07-6.07l-1.72-1V67.8h16.74l17.64,27.91a12.15,12.15,0,0,1,2.14,5.58V76.48c0-4.2-.28-5.1-2-6.07l-1.72-1V67.8h14.4v1.65l-1.79,1c-1.72,1-2,1.86-2,6.07v42h-8L487.47,81.79a12.88,12.88,0,0,1-1.86-4.48Z"/><path
        class="cls-3"
        d="M485.61,109.7h-1a16.11,16.11,0,0,0,.4,4.62,3.71,3.71,0,0,0,.83,1.44,5.16,5.16,0,0,0,1.28,1h0l1.27.69v.06H476v-.07l1.21-.68a5.33,5.33,0,0,0,1.28-.95,3.67,3.67,0,0,0,.69-1,6.58,6.58,0,0,0,.49-2c.08-.81.11-1.77.11-3V76.48a14.85,14.85,0,0,0-.44-4.57,3.78,3.78,0,0,0-.85-1.42,5.4,5.4,0,0,0-1.28-.94L476,68.87V68.8h15.19l17.35,27.45h0a12,12,0,0,1,1.28,2.37,16.29,16.29,0,0,1,.71,2.85l2-.18V76.48a15.8,15.8,0,0,0-.4-4.56,3.73,3.73,0,0,0-.83-1.43,5.2,5.2,0,0,0-1.28-1l-1.21-.68V68.8h12.4v.06l-1.27.68h0a5.19,5.19,0,0,0-1.28,1,3.59,3.59,0,0,0-.68,1,6.54,6.54,0,0,0-.46,2c-.07.79-.09,1.74-.1,2.93v41H511L488.32,81.26l-.85.53.86-.51a15.78,15.78,0,0,1-1.07-2,13.92,13.92,0,0,1-.67-2.19l-2-8.16V109.7h2V77.31h-1l-1,.23a15.63,15.63,0,0,0,.77,2.5,17.33,17.33,0,0,0,1.2,2.26h0l23.24,37.14h9.55v-43a14.54,14.54,0,0,1,.3-3.94,1.72,1.72,0,0,1,.38-.68,3.22,3.22,0,0,1,.8-.58l-.49-.87.47.88,2.32-1.25V66.8h-16.4V70L509,71.29a3.23,3.23,0,0,1,.8.58,1.55,1.55,0,0,1,.3.46,4.66,4.66,0,0,1,.3,1.41c.07.68.09,1.57.09,2.74v24.81h1l1-.18a18.06,18.06,0,0,0-.81-3.2,13.79,13.79,0,0,0-1.48-2.75l-.84.55.85-.53L492.29,66.8H474V70l2.23,1.25a3.44,3.44,0,0,1,.82.58,1.63,1.63,0,0,1,.32.47,4.58,4.58,0,0,1,.32,1.41c.07.67.1,1.57.1,2.73V109.7a13.89,13.89,0,0,1-.33,4,1.78,1.78,0,0,1-.41.69,3.43,3.43,0,0,1-.82.58L474,116.21v3.24h16.4V116.2L488.08,115l-.47.88.49-.87a3.2,3.2,0,0,1-.8-.58,1.55,1.55,0,0,1-.3-.47,4.74,4.74,0,0,1-.3-1.43c-.07-.69-.09-1.6-.09-2.79Z"/><path class="cls-3" d="M535.9,72.48c-3.37,0-4.47.41-5.65,2.14l-3.17,4.62H525V67.8h40.41V79.24h-2.07l-3.17-4.62c-1.17-1.72-2.27-2.14-5.58-2.14h-3.37v37.08c0,4.41.35,5.31,2.27,6.2l2.34,1v1.65H534.59V116.8l2.41-1c1.86-.9,2.2-1.79,2.2-6.2V72.48Z"/><path
        class="cls-3"
        d="M535.9,72.48v-1a11.54,11.54,0,0,0-4,.49,4.52,4.52,0,0,0-1.4.84,6.41,6.41,0,0,0-1.07,1.25l-2.87,4.18H526V68.8h38.41v9.44h-.54L561,74.06h0A6.46,6.46,0,0,0,560,72.81a4.77,4.77,0,0,0-2.21-1.08,14.8,14.8,0,0,0-3.12-.25h-4.37v38.08a14.73,14.73,0,0,0,.48,4.76,3.61,3.61,0,0,0,1,1.45,5.45,5.45,0,0,0,1.42.9h0l1.75.78H535.59v-.65h-1l.39.92,2.43-1h0a5.31,5.31,0,0,0,1.38-.9,3.54,3.54,0,0,0,.75-1,6.33,6.33,0,0,0,.52-2.1,30.32,30.32,0,0,0,.11-3.07V71.48h-4.3v2h2.3v36.08a13.81,13.81,0,0,1-.34,4.08,1.62,1.62,0,0,1-.42.67,3.37,3.37,0,0,1-.87.55l.43.9-.39-.92-3,1.3v3.31h23.27v-3.3l-2.94-1.3-.4.91.42-.91a3.52,3.52,0,0,1-.91-.56,1.47,1.47,0,0,1-.34-.45,4.3,4.3,0,0,1-.34-1.43,28,28,0,0,1-.1-2.86V73.48h2.37a9.58,9.58,0,0,1,3.23.36,2.5,2.5,0,0,1,.78.47,4.54,4.54,0,0,1,.73.87l3.47,5.06h3.59V66.8H524V80.24h3.59l3.47-5.06h0a4.47,4.47,0,0,1,.73-.87,2.77,2.77,0,0,1,1.34-.63,13.45,13.45,0,0,1,2.75-.2Z"/><path class="cls-3" d="M585.83,70.42c-1.71,1-2.05,1.86-2.05,6.07V109.7c0,4.27.34,5.17,2.05,6.13l1.71,1v1.65H568.09V116.8l1.71-1c1.71-1,2.05-1.86,2.05-6.13V76.48c0-4.2-.34-5.1-2.05-6.07l-1.71-1V67.8h19.45v1.65Z"/><path
        class="cls-3"
        d="M585.83,70.42l-.49-.87a5.38,5.38,0,0,0-1.28.94,3.67,3.67,0,0,0-.69,1,6.46,6.46,0,0,0-.49,2c-.08.8-.11,1.74-.11,2.94V109.7a15.33,15.33,0,0,0,.44,4.63,3.8,3.8,0,0,0,.85,1.43,5.32,5.32,0,0,0,1.28.95l1.2.68v.07H569.09v-.07l1.2-.68a5.29,5.29,0,0,0,1.28-.95,3.63,3.63,0,0,0,.69-1,6.55,6.55,0,0,0,.49-2c.08-.81.11-1.77.11-3V76.48a15,15,0,0,0-.44-4.57,3.79,3.79,0,0,0-.85-1.42,5.38,5.38,0,0,0-1.28-.94l-1.2-.68V68.8h17.45v.07l-1.2.68.49.87.49.87L588.54,70V66.8H567.09V70l2.22,1.25a3.42,3.42,0,0,1,.81.58,1.65,1.65,0,0,1,.32.47,4.56,4.56,0,0,1,.32,1.41c.07.67.1,1.57.1,2.73V109.7a14,14,0,0,1-.33,4,1.79,1.79,0,0,1-.4.69,3.35,3.35,0,0,1-.81.58l-2.22,1.25v3.24h21.45v-3.24L586.32,115a3.38,3.38,0,0,1-.81-.58,1.62,1.62,0,0,1-.32-.47,4.69,4.69,0,0,1-.32-1.43c-.07-.68-.1-1.59-.1-2.78V76.48a13.53,13.53,0,0,1,.33-3.92,1.77,1.77,0,0,1,.4-.69,3.45,3.45,0,0,1,.81-.58Z"/><path
        class="cls-3"
        d="M600.91,109.7c0,4.27.28,5.17,2,6.13l1.79,1v1.65H590.3V116.8l1.72-1c1.72-1,2.07-1.86,2.07-6.13V76.48c0-4.2-.34-5.1-2.07-6.07l-1.72-1V67.8H607l17.64,27.91a12.16,12.16,0,0,1,2.14,5.58V76.48c0-4.2-.28-5.1-2-6.07l-1.72-1V67.8h14.4v1.65l-1.79,1c-1.72,1-2,1.86-2,6.07v42h-8L602.77,81.79a12.9,12.9,0,0,1-1.86-4.48Z"/><path
        class="cls-3"
        d="M600.91,109.7h-1a16.16,16.16,0,0,0,.4,4.62,3.72,3.72,0,0,0,.83,1.44,5.15,5.15,0,0,0,1.28,1h0l1.27.69v.06H591.3v-.07l1.21-.68a5.35,5.35,0,0,0,1.28-.95,3.67,3.67,0,0,0,.69-1,6.55,6.55,0,0,0,.49-2c.08-.81.11-1.77.11-3V76.48a14.85,14.85,0,0,0-.44-4.57,3.78,3.78,0,0,0-.85-1.42,5.41,5.41,0,0,0-1.28-.94l-1.21-.68V68.8h15.19l17.35,27.45h0a12,12,0,0,1,1.28,2.37,16.2,16.2,0,0,1,.71,2.85l2-.18V76.48a15.73,15.73,0,0,0-.4-4.56,3.73,3.73,0,0,0-.83-1.43,5.19,5.19,0,0,0-1.28-1l-1.21-.68V68.8h12.4v.06l-1.27.68h0a5.2,5.2,0,0,0-1.28,1,3.59,3.59,0,0,0-.68,1,6.52,6.52,0,0,0-.46,2c-.07.79-.1,1.74-.1,2.93v41h-6.44L603.62,81.26l-.85.53.86-.51a15.75,15.75,0,0,1-1.07-2,13.91,13.91,0,0,1-.67-2.19l-2-8.16V109.7h2V77.31h-1l-1,.23a15.73,15.73,0,0,0,.77,2.5,17.57,17.57,0,0,0,1.2,2.26h0l23.24,37.14h9.55v-43a14.51,14.51,0,0,1,.3-3.94,1.7,1.7,0,0,1,.38-.68,3.23,3.23,0,0,1,.8-.58l-.49-.87.47.88,2.32-1.25V66.8H622.1V70l2.23,1.25a3.22,3.22,0,0,1,.8.58,1.55,1.55,0,0,1,.3.46,4.71,4.71,0,0,1,.3,1.41c.06.68.09,1.57.09,2.74v24.81h1l1-.18a18,18,0,0,0-.81-3.2,13.84,13.84,0,0,0-1.48-2.75l-.84.55.85-.53L607.6,66.8H589.3V70l2.23,1.25a3.45,3.45,0,0,1,.82.58,1.65,1.65,0,0,1,.32.47,4.55,4.55,0,0,1,.32,1.41c.07.67.1,1.57.1,2.73V109.7a13.9,13.9,0,0,1-.33,4,1.79,1.79,0,0,1-.41.69,3.44,3.44,0,0,1-.82.58l-2.23,1.25v3.24h16.4V116.2L603.38,115l-.47.88.49-.87a3.21,3.21,0,0,1-.8-.58,1.55,1.55,0,0,1-.3-.47,4.73,4.73,0,0,1-.3-1.43c-.06-.69-.09-1.6-.09-2.79Z"/><path
        class="cls-3"
        d="M669,99.5,666.5,97c-1.65-1.65-2.48-1.93-5.78-1.93h-4.61v18.4h7.36a13.6,13.6,0,0,0,4.26-.48,6.74,6.74,0,0,0,2.89-1.65l5-5h2.48l-2.48,12.06H640.36V116.8l1.72-1c1.72-1,2.06-1.86,2.06-6.13V76.48c0-4.2-.34-5.1-2.06-6.07l-1.72-1V67.8h35.08V79.24H673.1L669.6,74.9a6,6,0,0,0-1.65-1.31c-1.31-.69-2.13-.83-5.16-.83h-6.67V90.13h4.61c3.3,0,4.13-.28,5.78-1.93L669,85.72h2.34V99.5Z"/><path
        class="cls-3"
        d="M669,99.5l.7-.72L667.2,96.3l-.7.72.71-.71a10.21,10.21,0,0,0-1.26-1.11,5.31,5.31,0,0,0-2.2-.92,16.73,16.73,0,0,0-3-.19h-5.61v20.4h8.36a14.46,14.46,0,0,0,4.6-.54l-.34-.94.3,1a7.74,7.74,0,0,0,3.29-1.9l4.72-4.67h.84l-2.07,10.06H641.36v-.07l1.21-.68a5.3,5.3,0,0,0,1.28-.95,3.69,3.69,0,0,0,.69-1,6.51,6.51,0,0,0,.49-2,29.67,29.67,0,0,0,.11-3V76.48a14.92,14.92,0,0,0-.44-4.57,3.79,3.79,0,0,0-.85-1.42,5.39,5.39,0,0,0-1.28-.94l-1.21-.68V68.8h33.08v9.44h-.86l-3.22-4h0a7,7,0,0,0-1.92-1.53h0a6.85,6.85,0,0,0-2.24-.78,22.3,22.3,0,0,0-3.38-.17h-7.67V91.13h5.61a12.26,12.26,0,0,0,3.82-.4,5.18,5.18,0,0,0,1.4-.72,10.11,10.11,0,0,0,1.26-1.11l-.71-.71.7.72,2.25-2.2h.93V98.5H669v1l.7-.72-.7.72v1h3.34V84.72h-3.74l-2.84,2.77h0a8.41,8.41,0,0,1-1,.89,3.26,3.26,0,0,1-1.4.59,15,15,0,0,1-2.66.16h-3.61V73.76h5.67a20.55,20.55,0,0,1,3.07.14,4.76,4.76,0,0,1,1.63.57l.47-.89-.49.87a5,5,0,0,1,1.38,1.09l.75-.66-.78.63,3.81,4.71h3.82V66.8H639.36V70l2.23,1.25a3.46,3.46,0,0,1,.82.58,1.67,1.67,0,0,1,.32.47,4.52,4.52,0,0,1,.32,1.41,27.12,27.12,0,0,1,.1,2.73V109.7a13.89,13.89,0,0,1-.33,4,1.78,1.78,0,0,1-.41.69,3.36,3.36,0,0,1-.81.58l-2.23,1.25v3.24h37.1l2.89-14.06h-4.11l-5.31,5.25h0a5.72,5.72,0,0,1-2.48,1.41h0a12.85,12.85,0,0,1-3.93.42h-6.36V96.09h3.61a10.6,10.6,0,0,1,3.19.29,3.19,3.19,0,0,1,.87.45,8.26,8.26,0,0,1,1,.89h0l2.84,2.77H669Z"/><path
        class="cls-3"
        d="M701.05,67.8v1.65l-3,1.38c-1.65.76-2.06,1.86-2.06,6.07v36.6h5.29a14.4,14.4,0,0,0,4.33-.55,6.61,6.61,0,0,0,2.82-1.58l5-5H716l-2.48,12.06H680.28V116.8l1.72-1c1.72-1,2.06-1.86,2.06-6.13V76.48c0-4.2-.34-5.1-2.06-6.07l-1.72-1V67.8Z"/><path
        class="cls-3"
        d="M701,67.8h-1v1l-2.38,1.11h0a4.33,4.33,0,0,0-1.31.88,3.57,3.57,0,0,0-.7,1,6.81,6.81,0,0,0-.51,2.07,27.91,27.91,0,0,0-.12,3v37.6h6.29a15.37,15.37,0,0,0,4.63-.6l-.3-1,.29,1a7.59,7.59,0,0,0,3.24-1.84l4.72-4.67h.84l-2.06,10.06h-31.4v-.07l1.21-.68a5.31,5.31,0,0,0,1.28-.95,3.69,3.69,0,0,0,.69-1,6.59,6.59,0,0,0,.49-2c.08-.81.11-1.77.11-3V76.48a14.91,14.91,0,0,0-.44-4.57,3.78,3.78,0,0,0-.85-1.42,5.43,5.43,0,0,0-1.28-.94l-1.21-.68V68.8H701v-1h0v-1H679.28V70l2.23,1.25a3.46,3.46,0,0,1,.82.58,1.66,1.66,0,0,1,.32.47,4.54,4.54,0,0,1,.32,1.41c.07.67.1,1.57.1,2.73V109.7a13.94,13.94,0,0,1-.33,4,1.79,1.79,0,0,1-.41.69,3.4,3.4,0,0,1-.81.58l-2.23,1.25v3.24h35l2.89-14.06h-4.11l-5.32,5.26h0a5.6,5.6,0,0,1-2.4,1.33h0a13.41,13.41,0,0,1-4,.51H697V76.9a13.65,13.65,0,0,1,.36-4,1.73,1.73,0,0,1,.4-.69,2.37,2.37,0,0,1,.72-.47h0L702,70.09V66.8h-1Z"/><path
        class="cls-4"
        d="M120.28,109c1.45,3.18,4.15,4.77,8,4.77,7.33,0,10.44-6,10.44-20.32,0-7.33-.83-12.65-2.56-16.31-1.45-3.18-4.15-4.77-8-4.77-7.26,0-10.44,6.08-10.44,20,0,7.53.83,12.93,2.56,16.59m27.23.28c-3.94,6.64-10.3,9.82-19.84,9.82-14.72,0-22.67-8.85-22.67-25.23,0-6.84,1.24-12.3,3.94-17,3.8-6.63,10.3-9.81,19.84-9.81,14.79,0,22.67,8.85,22.67,25.37,0,6.7-1.31,12.37-3.94,16.87"/><path
        class="cls-3"
        d="M120.28,109l-.23.1c1.48,3.27,4.31,4.93,8.25,4.92a8.49,8.49,0,0,0,8.19-4.93c1.72-3.36,2.5-8.47,2.5-15.64,0-7.35-.83-12.7-2.58-16.42l-.23.11.23-.1c-1.48-3.27-4.31-4.93-8.24-4.92A8.52,8.52,0,0,0,120,77.06c-1.73,3.33-2.52,8.37-2.52,15.37,0,7.55.83,13,2.58,16.7l.23-.11-.23.1.23-.1.23-.11c-1.7-3.61-2.53-9-2.53-16.48,0-7,.8-11.94,2.47-15.14a8,8,0,0,1,7.72-4.65c3.8,0,6.37,1.53,7.79,4.62h0c1.7,3.61,2.53,8.9,2.53,16.21,0,7.14-.78,12.19-2.44,15.41a8,8,0,0,1-7.74,4.66c-3.81,0-6.37-1.53-7.79-4.62h0Zm27.23.28-.21-.13c-3.9,6.56-10.13,9.68-19.62,9.69-7.31,0-12.9-2.19-16.67-6.39s-5.75-10.44-5.75-18.59c0-6.81,1.24-12.22,3.91-16.88,3.76-6.55,10.13-9.68,19.62-9.69,7.35,0,12.93,2.19,16.69,6.4s5.73,10.49,5.73,18.71c0,6.67-1.31,12.3-3.91,16.74h0l.21.13.22.13c2.66-4.54,4-10.26,4-17,0-8.3-2-14.71-5.85-19s-9.63-6.57-17.07-6.57c-9.59,0-16.21,3.22-20.05,9.94-2.72,4.75-4,10.26-4,17.13,0,8.23,2,14.6,5.88,18.93s9.63,6.56,17,6.55c9.59,0,16.07-3.22,20.05-9.94h0Z"/><path
        class="cls-4"
        d="M198.33,70.31c-1.73,1-2,1.87-2,6.08V95.82c0,10.16-.55,13.76-3.8,17.49-3.53,3.94-8.92,5.81-16.73,5.81-8.85,0-14.86-2.83-17.62-7.33-1.94-3.32-2.35-5.94-2.35-14.45V76.4c0-4.22-.28-5.12-2-6.08l-1.73-1V67.69h19.56v1.66l-1.73,1c-1.73,1-2,1.87-2,6.08v26.06c0,3.87.14,5,.83,6.63,1.11,2.7,4.22,4.22,8.64,4.22,3.25,0,5.74-.76,7.33-2.35,1.8-1.8,2.14-3.59,2.14-9.4V76.4c0-4.22-.28-5.12-2-6.08l-1.73-1V67.69h16.93v1.66Z"/><path
        class="cls-3"
        d="M198.33,70.31l-.12-.22a3.3,3.3,0,0,0-1.77,2,15.28,15.28,0,0,0-.37,4.34V95.82a58.41,58.41,0,0,1-.68,11.1,12.67,12.67,0,0,1-3.06,6.22l.19.16-.19-.17c-3.46,3.87-8.77,5.72-16.54,5.72-8.8,0-14.71-2.82-17.41-7.21l-.21.13.22-.12a14,14,0,0,1-1.87-5.19,60.63,60.63,0,0,1-.45-9.13V76.4a15.24,15.24,0,0,0-.37-4.34,3.3,3.3,0,0,0-1.77-2l-1.6-.9V67.94H171.4V69.2l-1.6.9a3.3,3.3,0,0,0-1.77,2,15.31,15.31,0,0,0-.37,4.34v26.06a35.69,35.69,0,0,0,.16,4.18,9.09,9.09,0,0,0,.69,2.55,6.29,6.29,0,0,0,3.2,3.25,13,13,0,0,0,5.67,1.12c3.28,0,5.84-.77,7.5-2.42a6.24,6.24,0,0,0,1.81-3.32,31,31,0,0,0,.4-6.26V76.4a15.26,15.26,0,0,0-.37-4.34,3.3,3.3,0,0,0-1.77-2l-1.6-.9V67.94H199.8V69.2l-1.6.9.12.22.12.22,1.86-1V67.44H182.87v2.05l1.85,1a2.79,2.79,0,0,1,1.54,1.68,14.92,14.92,0,0,1,.34,4.18v25.16a30.62,30.62,0,0,1-.39,6.15,5.73,5.73,0,0,1-1.68,3.07c-1.52,1.52-3.94,2.28-7.15,2.28a12.49,12.49,0,0,1-5.45-1.07,5.8,5.8,0,0,1-3-3,8.56,8.56,0,0,1-.66-2.42,35.44,35.44,0,0,1-.15-4.12V76.4a14.93,14.93,0,0,1,.34-4.18A2.79,2.79,0,0,1,170,70.53l1.86-1V67.44H151.83v2.05l1.86,1a2.8,2.8,0,0,1,1.53,1.68,15,15,0,0,1,.34,4.18V97.34a61,61,0,0,0,.45,9.21,14.44,14.44,0,0,0,1.93,5.37h0c2.83,4.6,8.94,7.45,17.84,7.45,7.84,0,13.33-1.88,16.91-5.89h0a13.18,13.18,0,0,0,3.17-6.45,58.85,58.85,0,0,0,.69-11.21V76.4a15,15,0,0,1,.34-4.18,2.8,2.8,0,0,1,1.54-1.68Z"/><path
        class="cls-4"
        d="M102.64,70.31c-1.73,1-2,1.87-2,6.08V117c0,5.18-1.52,9.19-4.42,12s-7.12,4.15-12.5,4.15-8-1.52-8-4.91a4.83,4.83,0,0,1,5-4.91A2.18,2.18,0,0,1,83,124.45l2.21,3.32c.55.83.76,1,1.38,1a1.47,1.47,0,0,0,1.17-.55c.62-.69.69-1.38.76-4.22V76.4c0-4.22-.28-5.12-2-6.08l-1.73-1V67.69h19.55v1.66Z"/><path
        class="cls-3"
        d="M102.64,70.31l-.12-.22a3.3,3.3,0,0,0-1.76,2,15.29,15.29,0,0,0-.37,4.34V117c0,5.14-1.5,9.07-4.34,11.78l.17.18-.17-.18c-2.84,2.64-7,4.08-12.33,4.08-2.74,0-4.7-.38-5.95-1.15a3.77,3.77,0,0,1-1.81-3.51,4.58,4.58,0,0,1,4.79-4.66,2.73,2.73,0,0,1,1.23.2,2.22,2.22,0,0,1,.83.86h0L85,127.91a3.78,3.78,0,0,0,.72.89,1.3,1.3,0,0,0,.87.26,1.73,1.73,0,0,0,1.37-.65l-.2-.16.19.17a2.59,2.59,0,0,0,.65-1.43A23.43,23.43,0,0,0,88.8,124h0V76.4a15.28,15.28,0,0,0-.37-4.34,3.3,3.3,0,0,0-1.76-2l-1.6-.9V67.94h19V69.2l-1.6.9.12.22.12.22,1.85-1V67.44h-20v2.05l1.85,1A2.79,2.79,0,0,1,88,72.21a15,15,0,0,1,.34,4.18V124h0a23.37,23.37,0,0,1-.17,2.88,2.07,2.07,0,0,1-.53,1.18h0a1.22,1.22,0,0,1-1,.46.8.8,0,0,1-.56-.15,3.46,3.46,0,0,1-.61-.77l-2.21-3.32-.21.14.21-.14a2.71,2.71,0,0,0-1-1,3.19,3.19,0,0,0-1.46-.25A5.35,5.35,0,0,0,77,124.48a5.08,5.08,0,0,0-1.51,3.7,4.27,4.27,0,0,0,2.05,3.94c1.38.84,3.42,1.22,6.21,1.22,5.43,0,9.71-1.46,12.67-4.21h0c3-2.82,4.5-6.91,4.5-12.14V76.4a15,15,0,0,1,.34-4.18,2.79,2.79,0,0,1,1.53-1.68Z"/><path
        class="cls-4"
        d="M221.84,72.39c-1.17,0-3.94.21-3.94.21V90.5h3.8c5.87,0,8.5-2.9,8.5-9.68,0-5.94-2.56-8.43-8.36-8.43m10.51,46.11c-2.63-3.8-7.33-13.07-11.61-22.74l-.14-.41h-2.7v14.38c0,4.29.35,5.18,2.07,6.15l1.73,1v1.66H202.49v-1.66l1.73-1c1.73-1,2.07-1.87,2.07-6.15V76.4c0-4.22-.35-5.12-2.07-6.08l-1.73-1V67.69h21.77c5.39,0,6.43.07,9,.55,5.94,1.18,9.61,5.67,9.61,11.89,0,6.91-4.56,12-11.47,13l.28.55c.83,1.52,2.35,4.22,4.49,8.09,1.73,3,3.25,5.67,4.56,7.81a23.41,23.41,0,0,0,5.11,6.08l1.59,1.25v1.59Z"/><path
        class="cls-3"
        d="M221.84,72.39v-.25c-1.2,0-4,.21-4,.21l-.23,0V90.75h4.05c3,0,5.19-.74,6.64-2.38s2.11-4.13,2.11-7.54c0-3-.65-5.19-2.08-6.62s-3.6-2.06-6.54-2.06v.5c2.87,0,4.89.62,6.18,1.91S230,77.88,230,80.82c0,3.36-.65,5.71-2,7.21s-3.36,2.21-6.27,2.21h-3.55V72.59h-.25l0,.25,1.53-.1c.83-.05,1.82-.1,2.39-.1Zm10.51,46.11.21-.14c-2.6-3.77-7.31-13-11.59-22.7l-.23.1.24-.08-.14-.41-.06-.17h-3.13v14.63a14.72,14.72,0,0,0,.4,4.4,3.41,3.41,0,0,0,1.8,2l1.6.9v1.26H202.74V117l1.6-.9a3.41,3.41,0,0,0,1.8-2,14.74,14.74,0,0,0,.4-4.4V76.4a14.35,14.35,0,0,0-.4-4.34,3.42,3.42,0,0,0-1.8-2l-1.6-.9V67.94h21.52c5.4,0,6.39.07,8.94.55h0c5.84,1.16,9.39,5.52,9.41,11.64,0,6.8-4.46,11.79-11.26,12.75l-.34,0,.43.87h0c.83,1.52,2.35,4.22,4.49,8.09h0c1.73,3,3.25,5.67,4.57,7.82h0a23.68,23.68,0,0,0,5.17,6.15h0l1.5,1.17v1.22H232.35v.25l.21-.14-.21.14v.25h15.32v-2L246,115.46l-.15.2.16-.19a23.18,23.18,0,0,1-5.06-6h0c-1.31-2.14-2.83-4.76-4.56-7.8l-.22.12.22-.12c-2.14-3.87-3.66-6.57-4.49-8.09l-.22.12.22-.11L231.6,93l-.22.11,0,.25c7-1,11.7-6.22,11.69-13.24,0-6.32-3.76-10.95-9.81-12.13h0c-2.57-.49-3.65-.56-9-.56h-22v2.05l1.85,1a2.91,2.91,0,0,1,1.57,1.69A14.06,14.06,0,0,1,206,76.4v33.32a14.43,14.43,0,0,1-.37,4.24,2.9,2.9,0,0,1-1.57,1.7l-1.85,1v2.06H222v-2.06l-1.85-1a2.9,2.9,0,0,1-1.57-1.7,14.38,14.38,0,0,1-.37-4.24V95.59h2.27l.08.24h0c4.29,9.69,9,18.95,11.63,22.78l.08.11h.13Z"/><path
        class="cls-4"
        d="M260.67,109.71c0,4.29.28,5.18,2,6.15l1.8,1v1.66H250v-1.66l1.73-1c1.73-1,2.07-1.87,2.07-6.15V76.4c0-4.22-.34-5.12-2.07-6.08l-1.73-1V67.69h16.79l17.69,28a12.2,12.2,0,0,1,2.14,5.6V76.4c0-4.22-.28-5.12-2-6.08l-1.73-1V67.69h14.44v1.66l-1.8,1c-1.73,1-2,1.87-2,6.08v42.1h-8l-23-36.77a12.92,12.92,0,0,1-1.87-4.49Z"/><path
        class="cls-3"
        d="M260.67,109.71h-.25a15.69,15.69,0,0,0,.37,4.4,3.3,3.3,0,0,0,1.77,2h0l1.67.9v1.26H250.27V117l1.6-.9a3.41,3.41,0,0,0,1.8-2,14.71,14.71,0,0,0,.4-4.4V76.4a14.36,14.36,0,0,0-.4-4.34,3.42,3.42,0,0,0-1.8-2l-1.6-.9V67.94h16.41L284.3,95.82h0a11.92,11.92,0,0,1,2.11,5.51l.5,0V76.4a15.29,15.29,0,0,0-.37-4.34,3.3,3.3,0,0,0-1.77-2l-1.6-.9V67.94h13.94V69.2l-1.67.9h0a3.3,3.3,0,0,0-1.77,2,15.27,15.27,0,0,0-.37,4.34v41.85h-7.63L262.75,81.59l-.21.13.21-.13a12.66,12.66,0,0,1-1.84-4.42l-.49-2v34.59h.5V77.23h-.25l-.24.06a13.17,13.17,0,0,0,1.9,4.56h0l23.09,36.89h8.41V76.4a14.94,14.94,0,0,1,.34-4.18,2.79,2.79,0,0,1,1.54-1.68l-.12-.22.12.22,1.93-1V67.44H282.67v2.05l1.86,1a2.79,2.79,0,0,1,1.53,1.68,15,15,0,0,1,.34,4.18v24.88h.25l.25,0a12.46,12.46,0,0,0-2.18-5.69l-.21.14.21-.13L267,67.44H249.77v2.05l1.86,1a2.91,2.91,0,0,1,1.57,1.69,14,14,0,0,1,.38,4.18v33.32a14.34,14.34,0,0,1-.37,4.24,2.9,2.9,0,0,1-1.57,1.7l-1.86,1v2.06h14.95v-2.06l-1.93-1-.12.22.12-.22a2.78,2.78,0,0,1-1.54-1.69,15.41,15.41,0,0,1-.34-4.24Z"/><path
        class="cls-4"
        d="M317.95,73.77l-5.67,20.39h11Zm-22,44.72v-1.66l1-1.18a15.9,15.9,0,0,0,2.83-5.39l13.2-41.75,14.17-2,12.44,43.13a13.24,13.24,0,0,0,3,6l1,1.18v1.66h-17.9v-1.66l1.59-1.18a2.42,2.42,0,0,0,1-2,4.82,4.82,0,0,0-.28-1.59l-3.25-12.51H310.76l-3.39,12.23a7.67,7.67,0,0,0-.34,1.94,2.39,2.39,0,0,0,1,1.93l1.59,1.18v1.66Z"/><path
        class="cls-3"
        d="M317.95,73.77l-.24-.07L312,94.41H323.6L318,72.81l-.25.89.24.07-.24.06,5.24,20.08H312.61l5.58-20.07-.24-.07-.24.06Zm-22,44.72h.25v-1.57l.91-1.11-.19-.16.19.16a16.16,16.16,0,0,0,2.88-5.48l13.15-41.6,13.8-2,12.38,42.92h0a13.49,13.49,0,0,0,3,6.11l.19-.17-.19.16.91,1.11v1.32H325.8V117l1.49-1.1-.15-.2.14.21a2.67,2.67,0,0,0,1.15-2.21,5.07,5.07,0,0,0-.29-1.67l-.24.08.24-.06-3.3-12.7H310.57l-3.44,12.42a7.88,7.88,0,0,0-.35,2,2.64,2.64,0,0,0,1.15,2.14l.14-.21-.15.2,1.49,1.1v1.28H295.9v.25h0v.25h14v-2l-1.7-1.25h0a2.14,2.14,0,0,1-.92-1.73,7.41,7.41,0,0,1,.34-1.87L311,99.8h13.51l3.2,12.33h0a4.56,4.56,0,0,1,.26,1.51,2.17,2.17,0,0,1-.93,1.8h0l-1.69,1.25v2h18.4v-2l-1-1.25h0a13,13,0,0,1-2.92-5.92h0l-12.5-43.34-14.54,2.06-13.25,41.9h0a15.64,15.64,0,0,1-2.79,5.3h0l-1,1.25v2h.25Z"/><path
        class="cls-4"
        d="M366.82,67.69v1.66l-3,1.38c-1.66.76-2.07,1.87-2.07,6.08v36.71h5.32a14.45,14.45,0,0,0,4.35-.55,6.63,6.63,0,0,0,2.83-1.59l5-5h2.49l-2.49,12.1H346v-1.66l1.73-1c1.73-1,2.07-1.87,2.07-6.15V76.4c0-4.22-.35-5.12-2.07-6.08l-1.73-1V67.69Z"/><path
        class="cls-3"
        d="M366.82,67.69h-.25v1.5l-2.83,1.31A3,3,0,0,0,362,72.39a14.56,14.56,0,0,0-.43,4.42v37h5.57a14.75,14.75,0,0,0,4.43-.57,6.86,6.86,0,0,0,2.94-1.65l5-4.9h2.08l-2.38,11.6H346.21V117l1.6-.9a3.41,3.41,0,0,0,1.8-2,14.72,14.72,0,0,0,.4-4.4V76.4a14.36,14.36,0,0,0-.4-4.34,3.42,3.42,0,0,0-1.8-2l-1.6-.9V67.94h20.61v-.25h0v-.25H345.71v2.05l1.85,1a2.91,2.91,0,0,1,1.57,1.69,14,14,0,0,1,.38,4.18v33.32a14.34,14.34,0,0,1-.37,4.24,2.9,2.9,0,0,1-1.57,1.7l-1.85,1v2.06h33.82l2.59-12.6h-2.9l-5.12,5a6.37,6.37,0,0,1-2.73,1.53,14.23,14.23,0,0,1-4.28.54H362V76.81a14.17,14.17,0,0,1,.4-4.26A2.52,2.52,0,0,1,364,71l3.12-1.45V67.44h-.25Z"/><path
        class="cls-4"
        d="M428.84,115.31c-3.25,2.63-7.74,3.8-14.44,3.8a61,61,0,0,1-13.68-1.52l-.21-.07V106.4h2.07l2.76,3c.76.83,1.52,1.52,2.28,2.21,2.14,1.73,3.66,2.21,6.91,2.21,5.46,0,8.22-2.28,8.22-6.84a7.3,7.3,0,0,0-.9-3.39c-.9-1.59-1.93-2.49-6.29-5.25l-5-3.11c-7.25-4.56-9.6-8-9.6-14A13.44,13.44,0,0,1,406.8,70c3-2,6.91-2.9,12.37-2.9a72.26,72.26,0,0,1,13.13,1.31l.14.07V79.16h-2.07l-2.76-2.63c-3.66-3.53-5.11-4.22-8.5-4.22-4.56,0-7.12,2.21-7.12,6.15a6.3,6.3,0,0,0,.9,3.46c.76,1.18,1.94,2,5.25,3.94L423.45,89a55.76,55.76,0,0,1,4.84,3,14,14,0,0,1,5.8,11.75,14.43,14.43,0,0,1-5.25,11.54"/><path
        class="cls-3"
        d="M428.84,115.31l-.16-.2c-3.18,2.58-7.61,3.75-14.28,3.75a60.78,60.78,0,0,1-13.62-1.51l-.06.24.08-.24h0v-10.7h1.71l2.69,3c.77.84,1.54,1.54,2.3,2.23h0c2.16,1.76,3.8,2.28,7.06,2.27,2.76,0,4.88-.58,6.32-1.77A6.54,6.54,0,0,0,423,107a7.54,7.54,0,0,0-.93-3.5h0a7.63,7.63,0,0,0-1.9-2.25,44.21,44.21,0,0,0-4.47-3.09h0l-5-3.11c-3.61-2.27-6-4.26-7.45-6.39a12.26,12.26,0,0,1-2-7.36,13.19,13.19,0,0,1,5.76-11.13c3-2,6.8-2.86,12.23-2.86a72,72,0,0,1,13.08,1.31l0-.25-.11.22V78.91h-1.72l-2.69-2.56a18.85,18.85,0,0,0-4.41-3.47,9,9,0,0,0-4.26-.81,8.12,8.12,0,0,0-5.43,1.66,6,6,0,0,0-1.93,4.74,6.55,6.55,0,0,0,.94,3.59,6.63,6.63,0,0,0,1.73,1.75A42.19,42.19,0,0,0,418,86.08l5.32,3.11a56,56,0,0,1,4.82,3h0a13.71,13.71,0,0,1,5.7,11.55,14.18,14.18,0,0,1-5.16,11.35l.16.2.16.19a14.68,14.68,0,0,0,5.34-11.74,14.2,14.2,0,0,0-5.91-12l-.14.21.15-.2a56.22,56.22,0,0,0-4.86-3.06l-5.32-3.11a41.28,41.28,0,0,1-3.56-2.24,5.48,5.48,0,0,1-2.46-4.94A5.49,5.49,0,0,1,414,74.11a7.63,7.63,0,0,1,5.1-1.54,8.49,8.49,0,0,1,4,.76,18.43,18.43,0,0,1,4.29,3.39l2.84,2.7h2.42V68.29l-.28-.14,0,0h0a72.42,72.42,0,0,0-13.17-1.32c-5.48,0-9.41.9-12.5,2.94a13.69,13.69,0,0,0-6,11.54,12.79,12.79,0,0,0,2.12,7.64c1.53,2.22,4,4.24,7.6,6.53l5,3.11.13-.21-.13.21a43.89,43.89,0,0,1,4.41,3,7.11,7.11,0,0,1,1.79,2.12l.22-.12-.22.12a7,7,0,0,1,.87,3.27,6,6,0,0,1-2,4.94c-1.31,1.09-3.3,1.65-6,1.65-3.23,0-4.63-.46-6.75-2.16l-.16.2.17-.19c-.76-.69-1.51-1.38-2.26-2.2l-2.84-3.12h-2.43V117.7l.38.13h0a61.22,61.22,0,0,0,13.73,1.53c6.73,0,11.29-1.18,14.6-3.86Z"/><path
        class="cls-4"
        d="M463.89,99.48,461.33,97c-1.66-1.66-2.49-1.93-5.8-1.93H450.9v18.46h7.39a13.71,13.71,0,0,0,4.28-.48,6.79,6.79,0,0,0,2.9-1.66l5-5H473l-2.49,12.1H435.08v-1.66l1.73-1c1.73-1,2.07-1.87,2.07-6.15V76.4c0-4.22-.34-5.12-2.07-6.08l-1.73-1V67.69h35.24V79.16H468l-3.52-4.36a6.05,6.05,0,0,0-1.66-1.31c-1.31-.69-2.14-.83-5.18-.83h-6.7V90.08h4.63c3.32,0,4.14-.28,5.8-1.93l2.56-2.49h2.35V99.48Z"/><path
        class="cls-3"
        d="M463.89,99.48l.17-.18-2.56-2.49-.17.18.18-.18a6,6,0,0,0-2.38-1.65,11.69,11.69,0,0,0-3.6-.36h-4.88v19h7.64a14,14,0,0,0,4.37-.5l-.08-.24.08.24a7,7,0,0,0,3-1.72l5-4.9h2.08l-2.38,11.6h-35V117l1.6-.9a3.41,3.41,0,0,0,1.8-2,14.77,14.77,0,0,0,.4-4.4V76.4a14.39,14.39,0,0,0-.4-4.34,3.42,3.42,0,0,0-1.8-2l-1.6-.9V67.94h34.74v11h-2l-3.45-4.27h0a6.29,6.29,0,0,0-1.72-1.37h0a6.09,6.09,0,0,0-2-.7,21.69,21.69,0,0,0-3.28-.16h-7V90.33h4.88a11.68,11.68,0,0,0,3.6-.36,6,6,0,0,0,2.38-1.65l-.18-.18.17.18L464,85.91h2V99.23h-2.1v.25l.17-.18-.17.18v.25h2.6V85.41h-2.7L461.16,88h0A5.48,5.48,0,0,1,459,89.5a11.26,11.26,0,0,1-3.44.33h-4.38V72.91h6.45a21.32,21.32,0,0,1,3.2.15,5.55,5.55,0,0,1,1.87.65l.12-.22-.12.22A5.81,5.81,0,0,1,464.25,75l.19-.17-.19.16,3.6,4.45h2.72v-12H434.83v2.05l1.86,1a2.91,2.91,0,0,1,1.57,1.69,14,14,0,0,1,.37,4.18v33.32a14.38,14.38,0,0,1-.37,4.24,2.9,2.9,0,0,1-1.57,1.7l-1.86,1v2.06h35.9l2.59-12.6h-2.9l-5.12,5a6.51,6.51,0,0,1-2.8,1.6h0a13.49,13.49,0,0,1-4.2.47h-7.14v-18h4.38a11.23,11.23,0,0,1,3.44.33,5.48,5.48,0,0,1,2.18,1.53h0l2.63,2.56h.1Z"/><path
        class="cls-4"
        d="M485.64,109.71c0,4.29.28,5.18,2,6.15l1.8,1v1.66H475v-1.66l1.73-1c1.73-1,2.07-1.87,2.07-6.15V76.4c0-4.22-.35-5.12-2.07-6.08l-1.73-1V67.69h16.8l17.69,28a12.18,12.18,0,0,1,2.14,5.6V76.4c0-4.22-.28-5.12-2-6.08l-1.73-1V67.69h14.45v1.66l-1.8,1c-1.73,1-2,1.87-2,6.08v42.1h-8l-23-36.77a12.89,12.89,0,0,1-1.87-4.49Z"/><path
        class="cls-3"
        d="M485.64,109.71h-.25a15.66,15.66,0,0,0,.37,4.4,3.3,3.3,0,0,0,1.77,2h0l1.67.9v1.26H475.25V117l1.6-.9a3.41,3.41,0,0,0,1.8-2,14.72,14.72,0,0,0,.4-4.4V76.4a14.37,14.37,0,0,0-.4-4.34,3.42,3.42,0,0,0-1.8-2l-1.6-.9V67.94h16.41l17.62,27.88h0a11.93,11.93,0,0,1,2.1,5.51l.5,0V76.4a15.27,15.27,0,0,0-.37-4.34,3.31,3.31,0,0,0-1.77-2l-1.6-.9V67.94H522.1V69.2l-1.67.9h0a3.3,3.3,0,0,0-1.77,2,15.26,15.26,0,0,0-.37,4.34v41.85h-7.63L487.72,81.59l-.21.13.21-.13a12.61,12.61,0,0,1-1.84-4.42l-.49-2v34.58h.5V77.23h-.25l-.24.06a13.17,13.17,0,0,0,1.89,4.56h0l23.09,36.89h8.41V76.4a15,15,0,0,1,.34-4.18,2.8,2.8,0,0,1,1.54-1.68l-.12-.22.12.22,1.93-1V67.44H507.65v2.05l1.86,1A2.79,2.79,0,0,1,511,72.21a14.92,14.92,0,0,1,.34,4.18v24.88h.25l.25,0a12.44,12.44,0,0,0-2.18-5.69l-.21.14.21-.13L491.93,67.44H474.75v2.05l1.86,1a2.91,2.91,0,0,1,1.57,1.69,14,14,0,0,1,.38,4.18v33.32a14.38,14.38,0,0,1-.37,4.24,2.9,2.9,0,0,1-1.57,1.7l-1.86,1v2.06h14.95v-2.06l-1.93-1-.12.22.12-.22a2.79,2.79,0,0,1-1.54-1.69,15.31,15.31,0,0,1-.34-4.24Z"/><path class="cls-4" d="M535.94,72.39c-3.39,0-4.49.42-5.67,2.14l-3.18,4.63H525V67.69h40.56V79.16h-2.07l-3.18-4.63c-1.17-1.73-2.28-2.14-5.6-2.14h-3.39v37.19c0,4.42.35,5.32,2.28,6.22l2.35,1v1.66H534.63v-1.66l2.42-1c1.87-.9,2.21-1.8,2.21-6.22V72.39Z"/><path
        class="cls-3"
        d="M535.94,72.39v-.25a10.94,10.94,0,0,0-3.75.44,4.34,4.34,0,0,0-2.12,1.81L527,78.91h-1.69v-11h40.06v11h-1.69l-3.1-4.52a4.37,4.37,0,0,0-2.11-1.81,10.65,10.65,0,0,0-3.69-.44H551.1v37.44a14.27,14.27,0,0,0,.43,4.52,3.32,3.32,0,0,0,2,1.93h0l2.2,1v1.25H534.88V117l2.27-1h0a3.28,3.28,0,0,0,1.93-1.93,14.61,14.61,0,0,0,.42-4.52V72.14h-3.57v.5H539v36.94a14.33,14.33,0,0,1-.39,4.35,2.77,2.77,0,0,1-1.68,1.65l.11.23-.1-.23-2.57,1.1v2.07h21.85v-2.07l-2.5-1.1-.1.23.11-.23a2.82,2.82,0,0,1-1.74-1.65,14,14,0,0,1-.4-4.35V72.64h3.14a10.22,10.22,0,0,1,3.51.41,3.86,3.86,0,0,1,1.88,1.63l3.25,4.74h2.45v-12H524.77v12h2.45l3.25-4.74A3.85,3.85,0,0,1,532.37,73a10.53,10.53,0,0,1,3.58-.41Z"/><path class="cls-4" d="M586,70.31c-1.73,1-2.07,1.87-2.07,6.08v33.32c0,4.29.35,5.18,2.07,6.15l1.72,1v1.66h-19.6v-1.66l1.73-1c1.72-1,2.07-1.87,2.07-6.15V76.4c0-4.22-.35-5.12-2.07-6.08l-1.73-1V67.69h19.6v1.66Z"/><path
        class="cls-3"
        d="M586,70.31l-.12-.22a3.41,3.41,0,0,0-1.8,2,14.37,14.37,0,0,0-.4,4.34v33.32a14.72,14.72,0,0,0,.4,4.4,3.4,3.4,0,0,0,1.8,2l1.6.9v1.26h-19.1V117l1.6-.9a3.41,3.41,0,0,0,1.8-2,14.73,14.73,0,0,0,.4-4.4V76.4a14.38,14.38,0,0,0-.4-4.34,3.42,3.42,0,0,0-1.8-2l-1.6-.9V67.94h19.1V69.2l-1.6.9.12.22.12.22,1.85-1V67.44h-20.1v2.05l1.85,1a2.91,2.91,0,0,1,1.57,1.69,14.08,14.08,0,0,1,.37,4.18v33.32a14.45,14.45,0,0,1-.37,4.24,2.9,2.9,0,0,1-1.57,1.7l-1.85,1v2.06h20.1v-2.06l-1.85-1a2.9,2.9,0,0,1-1.57-1.7,14.41,14.41,0,0,1-.37-4.24V76.4a14,14,0,0,1,.38-4.18,2.91,2.91,0,0,1,1.57-1.69Z"/><path
        class="cls-4"
        d="M600.95,109.71c0,4.29.28,5.18,2,6.15l1.8,1v1.66H590.3v-1.66l1.73-1c1.73-1,2.07-1.87,2.07-6.15V76.4c0-4.22-.35-5.12-2.07-6.08l-1.73-1V67.69h16.8l17.69,28a12.19,12.19,0,0,1,2.14,5.6V76.4c0-4.22-.28-5.12-2-6.08l-1.73-1V67.69h14.45v1.66l-1.8,1c-1.73,1-2,1.87-2,6.08v42.1h-8l-23-36.77a12.91,12.91,0,0,1-1.87-4.49Z"/><path
        class="cls-3"
        d="M600.95,109.71h-.25a15.69,15.69,0,0,0,.37,4.4,3.3,3.3,0,0,0,1.77,2h0l1.67.9v1.26H590.55V117l1.6-.9a3.41,3.41,0,0,0,1.8-2,14.69,14.69,0,0,0,.4-4.4V76.4a14.34,14.34,0,0,0-.4-4.34,3.42,3.42,0,0,0-1.8-2l-1.6-.9V67.94H607l17.62,27.88h0a11.92,11.92,0,0,1,2.11,5.51l.5,0V76.4a15.26,15.26,0,0,0-.37-4.34,3.3,3.3,0,0,0-1.76-2l-1.6-.9V67.94H637.4V69.2l-1.67.9h0a3.31,3.31,0,0,0-1.77,2,15.3,15.3,0,0,0-.37,4.34v41.85H626L603,81.59l-.21.13.21-.13a12.64,12.64,0,0,1-1.84-4.42l-.49-2v34.58h.5V77.23h-.25l-.24.06a13.18,13.18,0,0,0,1.9,4.56h0l23.09,36.89h8.41V76.4a15,15,0,0,1,.34-4.18A2.79,2.79,0,0,1,636,70.53l-.12-.22.12.22,1.93-1V67.44H623v2.05l1.86,1a2.79,2.79,0,0,1,1.54,1.68,15,15,0,0,1,.34,4.18v24.88h.25l.25,0A12.45,12.45,0,0,0,625,95.54l-.21.14.21-.13L607.24,67.44H590.05v2.05l1.86,1a2.91,2.91,0,0,1,1.57,1.69,14,14,0,0,1,.38,4.18v33.32a14.34,14.34,0,0,1-.37,4.24,2.9,2.9,0,0,1-1.57,1.7l-1.86,1v2.06H605v-2.06l-1.93-1-.12.22.12-.22a2.79,2.79,0,0,1-1.54-1.69,15.34,15.34,0,0,1-.34-4.24Z"/><path
        class="cls-4"
        d="M669.17,99.48,666.62,97c-1.66-1.66-2.49-1.93-5.8-1.93h-4.63v18.46h7.39a13.71,13.71,0,0,0,4.28-.48,6.8,6.8,0,0,0,2.9-1.66l5-5h2.49l-2.49,12.1H640.36v-1.66l1.73-1c1.73-1,2.07-1.87,2.07-6.15V76.4c0-4.22-.34-5.12-2.07-6.08l-1.73-1V67.69H675.6V79.16h-2.35l-3.52-4.36a6.07,6.07,0,0,0-1.66-1.31c-1.31-.69-2.14-.83-5.18-.83h-6.7V90.08h4.63c3.32,0,4.14-.28,5.8-1.93l2.56-2.49h2.35V99.48Z"/><path
        class="cls-3"
        d="M669.17,99.48l.17-.18-2.56-2.49-.17.18.18-.18a6,6,0,0,0-2.38-1.65,11.69,11.69,0,0,0-3.6-.36h-4.88v19h7.64a14,14,0,0,0,4.37-.5l-.08-.24.08.24a7,7,0,0,0,3-1.72l5-4.9H678l-2.38,11.6h-35V117l1.6-.9a3.4,3.4,0,0,0,1.8-2,14.69,14.69,0,0,0,.4-4.4V76.4a14.34,14.34,0,0,0-.4-4.34,3.41,3.41,0,0,0-1.8-2l-1.6-.9V67.94h34.74v11h-2l-3.45-4.26h0a6.28,6.28,0,0,0-1.73-1.37h0a6.08,6.08,0,0,0-2-.7,21.7,21.7,0,0,0-3.28-.16h-7V90.33h4.88a11.69,11.69,0,0,0,3.6-.36,6,6,0,0,0,2.38-1.65l-.18-.18.17.18,2.48-2.42h2V99.23h-2.1v.25l.17-.18-.17.18v.25h2.6V85.41h-2.7L666.44,88h0a5.48,5.48,0,0,1-2.18,1.53,11.26,11.26,0,0,1-3.44.33h-4.38V72.91h6.45a21.33,21.33,0,0,1,3.2.15,5.55,5.55,0,0,1,1.87.65l.12-.22-.12.22A5.82,5.82,0,0,1,669.54,75l.19-.17-.19.16,3.6,4.45h2.72v-12H640.11v2.05l1.86,1a2.91,2.91,0,0,1,1.57,1.69,14,14,0,0,1,.37,4.18v33.32a14.35,14.35,0,0,1-.37,4.24,2.9,2.9,0,0,1-1.57,1.7l-1.86,1v2.06H676l2.59-12.6h-2.9l-5.12,5a6.5,6.5,0,0,1-2.8,1.6h0a13.49,13.49,0,0,1-4.2.47h-7.14v-18h4.38a11.23,11.23,0,0,1,3.44.33,5.48,5.48,0,0,1,2.18,1.53h0l2.63,2.56h.1Z"/><path
        class="cls-4"
        d="M701.15,67.69v1.66l-3,1.38c-1.66.76-2.07,1.87-2.07,6.08v36.71h5.32a14.46,14.46,0,0,0,4.35-.55,6.63,6.63,0,0,0,2.83-1.59l5-5h2.49l-2.49,12.1H680.28v-1.66l1.73-1c1.73-1,2.07-1.87,2.07-6.15V76.4c0-4.22-.34-5.12-2.07-6.08l-1.73-1V67.69Z"/><path
        class="cls-3"
        d="M701.15,67.69h-.25v1.5l-2.83,1.31a3,3,0,0,0-1.79,1.89,14.56,14.56,0,0,0-.43,4.42v37h5.57a14.75,14.75,0,0,0,4.43-.57,6.85,6.85,0,0,0,2.93-1.65l5-4.9h2.08l-2.38,11.6H680.53V117l1.6-.9a3.41,3.41,0,0,0,1.8-2,14.77,14.77,0,0,0,.4-4.4V76.4a14.38,14.38,0,0,0-.4-4.34,3.42,3.42,0,0,0-1.8-2l-1.6-.9V67.94h20.61v-.25h0v-.25H680v2.05l1.86,1a2.91,2.91,0,0,1,1.57,1.69,14,14,0,0,1,.37,4.18v33.32a14.38,14.38,0,0,1-.37,4.24,2.9,2.9,0,0,1-1.57,1.7l-1.86,1v2.06h33.82l2.59-12.6h-2.9l-5.12,5a6.38,6.38,0,0,1-2.73,1.53,14.22,14.22,0,0,1-4.28.54h-5.07V76.81a14.18,14.18,0,0,1,.4-4.26,2.52,2.52,0,0,1,1.53-1.6l3.12-1.45V67.44h-.25Z"/><path class="cls-5" d="M272.09,135h3.17c2.23,0,3.72,1.33,3.72,3.39s-1.52,3.39-3.72,3.39h-1.62V146h-1.55Zm3,5.48a2.1,2.1,0,1,0,0-4.17h-1.46v4.17Z"/><path class="cls-5" d="M283.4,135h1.38l4.52,11h-1.66l-1.13-2.88h-4.88L280.5,146h-1.63S282.85,136.32,283.4,135Zm2.59,6.82-1.05-2.71c-.16-.41-.83-2.1-.85-2.24h0c0,.14-.67,1.79-.85,2.24l-1.07,2.71Z"/><path class="cls-5" d="M290.87,135h3.18c2.05,0,3.65,1.07,3.65,3.26a3.05,3.05,0,0,1-2.79,3.11l3.37,4.64h-1.82l-3.18-4.49h-.86V146h-1.55Zm3,5.26c1.44,0,2.26-.77,2.26-2s-.82-2-2.26-2h-1.46v4Z"/><path class="cls-5" d="M302,136.3h-3.14V135h7.82v1.33h-3.14V146H302Z"/><path class="cls-5" d="M310.73,140.47a5.79,5.79,0,1,1,5.79,5.72A5.58,5.58,0,0,1,310.73,140.47Zm10,0a4.2,4.2,0,1,0-4.2,4.33A4.1,4.1,0,0,0,320.7,140.47Z"/><path class="cls-5" d="M324.54,135h5.55v1.33h-4v3.54H330v1.33h-3.87V146h-1.55Z"/><path class="cls-5" d="M337.11,136.3H334V135h7.82v1.33h-3.14V146h-1.55Z"/><path class="cls-5" d="M343.42,135H345v4.52h5.77V135h1.55v11h-1.55v-5.16H345V146h-1.55Z"/><path class="cls-5" d="M355.16,135h6v1.32h-4.44v3.2H361v1.32h-4.31v3.86h4.53V146h-6.08Z"/><path class="cls-5" d="M366.45,142.18V135H368v6.74c0,1.91.82,3.09,2.65,3.09s2.67-1.18,2.67-3.09V135h1.57v7.21c0,2.42-1.55,4-4.23,4S366.45,144.6,366.45,142.18Z"/><path
        class="cls-5"
        d="M376.52,144l1.05-.89a3.19,3.19,0,0,0,2.76,1.74,1.9,1.9,0,0,0,2.15-1.87c0-1.3-1.08-1.74-2.43-2.27s-2.78-1.24-2.78-3,1.35-2.95,3.33-2.95a3.69,3.69,0,0,1,3.23,1.66l-1.05.89a2.5,2.5,0,0,0-2.18-1.19c-1.07,0-1.77.55-1.77,1.47,0,1.14,1.1,1.52,2.05,1.9,1.55.61,3.15,1.35,3.15,3.37a3.34,3.34,0,0,1-3.67,3.34A4.27,4.27,0,0,1,376.52,144Z"/><path class="cls-5" d="M389.39,135h1.38l4.52,11h-1.66l-1.13-2.88h-4.88L386.49,146h-1.63S388.84,136.32,389.39,135Zm2.59,6.82-1.05-2.71c-.16-.41-.83-2.1-.85-2.24h0c0,.14-.67,1.79-.85,2.24l-1.07,2.71Z"/><path class="cls-5" d="M401.84,136.3H398.7V135h7.82v1.33h-3.14V146h-1.55Z"/><path class="cls-5" d="M407.11,140.47a5.79,5.79,0,1,1,5.79,5.72A5.58,5.58,0,0,1,407.11,140.47Zm10,0a4.2,4.2,0,1,0-4.2,4.33A4.1,4.1,0,0,0,417.08,140.47Z"/><path class="cls-5" d="M420.92,135H424c3.51,0,5.83,2,5.83,5.51S427.54,146,424,146h-3.12Zm1.55,9.68h1.44c2.57,0,4.36-1.36,4.36-4.17s-1.79-4.17-4.36-4.17h-1.44Z"/><path class="cls-5" d="M434.92,135h1.38l4.52,11h-1.66L438,143.09h-4.88L432,146h-1.63S434.37,136.32,434.92,135Zm2.59,6.82-1.05-2.71c-.16-.41-.83-2.1-.85-2.24h0c0,.14-.67,1.79-.85,2.24l-1.07,2.71Z"/><path class="cls-5" d="M443.91,141.49,440.17,135h1.74l2,3.67a16.25,16.25,0,0,1,.78,1.57h0a16.68,16.68,0,0,1,.79-1.57l2.05-3.67h1.69l-3.75,6.52V146h-1.62Z"/><path class="cls-5" d="M453.84,135H455l6.24,7.14c.19.21,1,1.22,1.08,1.38l0,0c0-.15,0-1.43,0-1.71V135h1.51v11h-1.21l-6.24-7.14c-.19-.2-1-1.22-1.08-1.38h0c0,.16,0,1.43,0,1.71V146h-1.51Z"/><path class="cls-5" d="M466.72,135h6v1.32h-4.44v3.2h4.31v1.32h-4.31v3.86h4.53V146h-6.08Z"/><path class="cls-5" d="M477.56,136.3h-3.14V135h7.82v1.33h-3.14V146h-1.55Z"/><path
        class="cls-5"
        d="M483.55,135h1.65l2.26,6.54c.08.25.61,1.88.63,2.13h0a22,22,0,0,1,.66-2.13l2.35-6.54h1.24l2.35,6.54c.09.25.64,1.88.66,2.13h0c0-.25.56-1.88.64-2.13l2.24-6.54h1.58L496,146h-1.19l-2.54-6.87a18.36,18.36,0,0,1-.53-1.79h0a18.45,18.45,0,0,1-.55,1.79L488.63,146h-1.19Z"/><path class="cls-5" d="M500.56,140.47a5.79,5.79,0,1,1,5.79,5.72A5.58,5.58,0,0,1,500.56,140.47Zm10,0a4.2,4.2,0,1,0-4.2,4.33A4.1,4.1,0,0,0,510.54,140.47Z"/><path class="cls-5" d="M514.37,135h3.18c2.06,0,3.65,1.07,3.65,3.26a3.05,3.05,0,0,1-2.79,3.11l3.37,4.64H520l-3.18-4.49h-.86V146h-1.55Zm3,5.26c1.44,0,2.26-.77,2.26-2s-.82-2-2.26-2h-1.46v4Z"/><path class="cls-5" d="M523.55,135h1.55v5.11l4.55-5.11h1.88l-4.72,5.26,4.94,5.75H529.8l-4.71-5.56V146h-1.55Z"/></svg>
