<svg height="45" viewBox="0 0 232 45" width="232" xmlns="http://www.w3.org/2000/svg">
  <g fill="none" fill-rule="evenodd">
    <g fill="#404040"><path
      d="m1.209 41.604h1.148c.377 0 .675-.093.895-.279.219-.186.329-.439.329-.759 0-.321-.11-.574-.329-.76-.22-.186-.518-.278-.895-.278h-1.148zm-.852 2.945v-5.738h2c.641 0 1.151.157 1.528.472s.565.743.565 1.283c0 .534-.188.957-.565 1.269-.377.313-.887.469-1.528.469h-1.148v2.245zm5.814-2.16h2.093l-1.046-2.692zm2.929 2.16-.557-1.443h-2.65l-.557 1.443h-.861l2.296-5.738h.919l2.287 5.738zm2.683-3.03h1.173c.366 0 .657-.09.874-.27.216-.18.325-.422.325-.726s-.109-.545-.325-.725c-.217-.18-.508-.27-.874-.27h-1.173zm0 .701v2.329h-.852v-5.738h2.025c.636 0 1.14.152 1.511.459s.557.725.557 1.253c0 .4-.113.737-.338 1.013s-.534.47-.928.582l1.393 2.431h-.971l-1.308-2.329z"/><path d="m17.471 44.549v-5.021h-1.932v-.717h4.717v.717h-1.932v5.021z"/><path
      d="m25.733 43.899c.371 0 .702-.094.992-.283.289-.188.516-.448.679-.78s.245-.718.245-1.157c0-.438-.082-.824-.245-1.156s-.39-.592-.679-.78c-.29-.189-.621-.283-.992-.283-.372 0-.701.094-.987.283-.287.188-.513.448-.675.78-.164.332-.245.718-.245 1.156 0 .439.081.825.245 1.157.162.332.388.592.675.78.286.189.615.283.987.283zm0 .742c-.54 0-1.019-.126-1.435-.379s-.744-.602-.983-1.047c-.239-.444-.359-.956-.359-1.536 0-.579.12-1.091.359-1.535.239-.445.567-.794.983-1.047s.895-.38 1.435-.38 1.02.127 1.439.38.748.602.987 1.047c.239.444.359.956.359 1.535 0 .58-.12 1.092-.359 1.536-.239.445-.568.794-.987 1.047s-.899.379-1.439.379z"/><path d="m30.569 44.549h-.853v-5.738h3.57v.717h-2.717v1.941h2.303v.717h-2.303z"/><path d="m37.733 44.549v-5.021h-1.932v-.717h4.717v.717h-1.933v5.021z"/><path d="m41.497 44.549v-5.738h.852v2.455h2.962v-2.455h.853v5.738h-.853v-2.549h-2.962v2.549z"/><path d="m47.666 44.549v-5.738h3.679v.717h-2.827v1.772h2.49v.717h-2.49v1.815h2.895v.717z"/><path
      d="m56.797 43.899c.467 0 .834-.14 1.101-.422.267-.281.401-.661.401-1.139v-3.527h.852v3.535c0 .715-.209 1.276-.628 1.684s-.995.611-1.726.611c-.732 0-1.305-.203-1.722-.611-.416-.408-.624-.969-.624-1.684v-3.535h.852v3.527c0 .478.134.858.401 1.139.267.282.632.422 1.093.422m5.536.742c-.434 0-.847-.075-1.241-.227s-.712-.355-.954-.608l.482-.565c.224.208.49.371.797.489.307.119.612.178.916.178.371 0 .671-.072.898-.216.228-.143.342-.342.342-.595 0-.23-.081-.425-.245-.582-.163-.158-.441-.29-.835-.397l-.793-.211c-.512-.134-.885-.326-1.119-.574-.233-.247-.35-.57-.35-.97 0-.326.087-.613.262-.861.174-.247.415-.44.722-.578.306-.137.653-.207 1.042-.207.41 0 .796.078 1.156.233s.678.37.954.645l-.515.557c-.242-.225-.494-.398-.756-.519-.261-.121-.538-.181-.831-.181-.354 0-.644.074-.869.223s-.337.356-.337.621c0 .241.079.43.24.565.16.135.406.248.738.338l.886.244c.512.141.886.338 1.123.591.236.253.354.568.354.945 0 .332-.087.623-.262.874-.174.25-.416.444-.725.582-.31.138-.67.206-1.08.206m4.211-2.252h2.093l-1.047-2.692zm2.928 2.16-.557-1.443h-2.65l-.557 1.443h-.86l2.295-5.738h.92l2.287 5.738z"/><path d="m74.316 44.549v-5.021h-1.932v-.717h4.717v.717h-1.933v5.021z"/><path
      d="m80.173 43.899c.371 0 .702-.094.992-.283.289-.188.515-.448.679-.78.163-.332.245-.718.245-1.157 0-.438-.082-.824-.245-1.156-.164-.332-.39-.592-.679-.78-.29-.189-.621-.283-.992-.283-.372 0-.701.094-.988.283-.287.188-.512.448-.675.78s-.244.718-.244 1.156c0 .439.081.825.244 1.157s.388.592.675.78c.287.189.616.283.988.283zm0 .742c-.54 0-1.019-.126-1.435-.379s-.744-.602-.983-1.047c-.239-.444-.359-.956-.359-1.536 0-.579.12-1.091.359-1.535.239-.445.567-.794.983-1.047s.895-.38 1.435-.38 1.019.127 1.439.38c.419.253.748.602.987 1.047.239.444.359.956.359 1.535 0 .58-.12 1.092-.359 1.536-.239.445-.568.794-.987 1.047-.42.253-.899.379-1.439.379zm4.836-.809h1.164c.405 0 .753-.089 1.042-.267.29-.176.512-.426.667-.746.155-.321.232-.701.232-1.14 0-.438-.077-.818-.232-1.139s-.377-.569-.667-.747c-.289-.177-.637-.265-1.042-.265h-1.164zm-.853.717v-5.738h2.017c.563 0 1.055.119 1.477.358s.749.574.983 1.004c.233.431.35.932.35 1.506s-.117 1.076-.35 1.507c-.234.43-.561.765-.983 1.004-.422.24-.914.359-1.477.359zm7.004-2.16h2.093l-1.046-2.692zm2.929 2.16-.557-1.443h-2.65l-.557 1.443h-.861l2.296-5.738h.919l2.288 5.738z"/><path d="m97.583 42.27v2.279h-.853v-2.279l-2.017-3.459h1.005l1.443 2.649 1.443-2.649h.987z"/><path d="m106.41 44.549-3.063-4.397v4.397h-.802v-5.738h.793l3.072 4.396v-4.396h.793v5.738z"/><path d="m108.705 44.549v-5.738h3.679v.717h-2.827v1.772h2.49v.717h-2.49v1.815h2.895v.717z"/><path d="m114.984 44.549v-5.021h-1.933v-.717h4.717v.717h-1.932v5.021z"/><path d="m123.338 44.549-1.342-4.574-1.341 4.574h-.886l-1.528-5.738h.844l1.165 4.539 1.341-4.539h.811l1.35 4.556 1.173-4.556h.827l-1.528 5.738z"/><path
      d="m129.136 43.899c.371 0 .702-.094.992-.283.289-.188.516-.448.679-.78s.245-.718.245-1.157c0-.438-.082-.824-.245-1.156s-.39-.592-.679-.78c-.29-.189-.621-.283-.992-.283s-.7.094-.987.283c-.287.188-.512.448-.675.78s-.245.718-.245 1.156c0 .439.082.825.245 1.157s.388.592.675.78c.287.189.616.283.987.283zm0 .742c-.54 0-1.018-.126-1.435-.379-.416-.253-.744-.602-.983-1.047-.239-.444-.358-.956-.358-1.536 0-.579.119-1.091.358-1.535.239-.445.567-.794.983-1.047.417-.253.895-.38 1.435-.38s1.02.127 1.439.38.748.602.987 1.047c.239.444.359.956.359 1.535 0 .58-.12 1.092-.359 1.536-.239.445-.568.794-.987 1.047s-.899.379-1.439.379zm4.835-3.122h1.174c.365 0 .656-.09.873-.27.216-.18.325-.422.325-.726s-.109-.545-.325-.725c-.217-.18-.508-.27-.873-.27h-1.174zm0 .701v2.329h-.852v-5.738h2.026c.635 0 1.139.152 1.51.459.372.307.557.725.557 1.253 0 .4-.113.737-.338 1.013-.224.276-.534.47-.928.582l1.393 2.431h-.971l-1.308-2.329z"/><path d="m141.845 44.549-2.574-2.895v2.895h-.852v-5.738h.852v2.514l2.405-2.514h1.055l-2.557 2.632 2.743 3.106z"/></g><path d="m20.067 32.144-12.015-17.639v17.639h-7.695v-30.599h7.65l11.97 17.955v-17.955h7.74v30.599z" fill="#009bff" class='no-color-change'/><path
      d="m44.682 14.324c-2.55 0-4.08 1.351-4.59 4.051h8.73c-.21-1.47-.713-2.513-1.508-3.128-.795-.614-1.672-.923-2.632-.923zm10.71 15.48c-1.141.81-2.588 1.501-4.343 2.071-1.755.569-3.622.854-5.602.854-2.73 0-5.063-.502-6.998-1.507-1.935-1.004-3.42-2.408-4.455-4.208-1.035-1.799-1.552-3.87-1.552-6.21 0-2.369.51-4.469 1.53-6.299 1.019-1.83 2.43-3.263 4.23-4.298s3.899-1.552 6.3-1.552c2.34 0 4.402.502 6.187 1.507 1.785 1.006 3.18 2.4 4.185 4.185 1.005 1.786 1.508 3.878 1.508 6.278 0 .33-.023.675-.068 1.034-.045.36-.097.736-.157 1.125h-15.975c.72 2.641 2.684 3.961 5.895 3.961 1.44 0 2.715-.226 3.825-.675 1.109-.45 2.04-.9 2.79-1.351z"
      fill="#009bff" class='no-color-change'/><path d="m79.692 32.144-3.69-13.905-3.645 13.905h-8.1l-5.94-22.904h8.01l2.385 14.76 3.87-14.76h6.885l4.005 14.805 2.43-14.805h7.83l-5.94 22.904z" fill="#009bff" class='no-color-change'/><path
      d="m105.656 32.729c-1.98 0-3.833-.314-5.558-.945-1.725-.629-3.277-1.529-4.657-2.699l3.33-4.41c1.05.839 2.183 1.523 3.398 2.047 1.215.525 2.407.788 3.577.788.78 0 1.402-.135 1.868-.406.464-.269.697-.675.697-1.215 0-.569-.263-1.027-.787-1.372-.526-.344-1.463-.682-2.813-1.012l-2.16-.54c-4.29-1.14-6.435-3.435-6.435-6.885 0-1.53.42-2.85 1.26-3.96s1.995-1.965 3.465-2.566c1.47-.599 3.18-.899 5.13-.899 1.92 0 3.727.3 5.423.899 1.694.601 3.246 1.471 4.657 2.611l-3.42 4.5c-1.05-.84-2.16-1.515-3.33-2.026-1.17-.509-2.265-.764-3.285-.764-1.65 0-2.475.54-2.475 1.62 0 .48.248.87.743 1.17s1.192.57 2.092.809l2.925.81c2.19.601 3.81 1.501 4.86 2.701s1.575 2.625 1.575 4.275c0 1.5-.421 2.812-1.26 3.937-.84 1.125-2.018 1.995-3.532 2.61-1.516.615-3.278.922-5.288.922"
      fill="#009bff" class='no-color-change'/><path
      d="m142.241 32.729c-2.491 0-4.876-.427-7.156-1.282s-4.26-2.077-5.94-3.667l4.05-5.085c1.2 1.079 2.55 1.928 4.05 2.542 1.5.615 3.15.922 4.95.922 1.2 0 2.145-.209 2.836-.629.689-.42 1.034-1.05 1.034-1.891 0-.809-.404-1.462-1.215-1.957-.81-.495-2.235-1.012-4.274-1.552l-1.891-.495c-2.76-.72-4.859-1.823-6.299-3.308-1.441-1.485-2.161-3.367-2.161-5.648 0-1.949.51-3.659 1.53-5.129s2.43-2.603 4.23-3.398c1.801-.795 3.885-1.192 6.256-1.192 2.339 0 4.574.427 6.704 1.282s4.02 2.018 5.671 3.487l-4.185 5.266c-1.081-.93-2.348-1.74-3.803-2.431-1.456-.689-2.903-1.034-4.342-1.034-1.201 0-2.124.202-2.768.607-.646.405-.967.998-.967 1.778 0 .72.337 1.343 1.012 1.867.675.525 1.837 1.013 3.488 1.463l2.295.63c3.299.899 5.631 2.13 6.997 3.689 1.365 1.561 2.047 3.375 2.047 5.446 0 1.95-.502 3.652-1.507 5.107-1.006 1.456-2.423 2.588-4.253 3.397-1.83.811-3.96 1.215-6.389 1.215m33.434-2.07c-.931.631-1.995 1.133-3.195 1.508s-2.46.562-3.78.562c-2.46 0-4.418-.712-5.873-2.137-1.455-1.424-2.182-3.337-2.182-5.738v-9.764h-3.735v-5.85h4.095l.99-6.391h6.48v6.391h5.985v5.85h-5.985v8.774c0 .781.232 1.389.697 1.823.465.435 1.088.653 1.868.653.39 0 .787-.075 1.192-.226.406-.149.788-.329 1.148-.54zm9.9-5.94c0 .691.254 1.253.765 1.688.509.436 1.17.652 1.98.652 1.08 0 1.987-.367 2.722-1.102s1.103-1.657 1.103-2.768v-.764c-.81-.15-1.665-.226-2.565-.226-1.141 0-2.093.196-2.857.585-.766.391-1.148 1.036-1.148 1.935zm6.885 7.425-.405-3.014c-1.5 2.4-3.78 3.599-6.84 3.599-1.35 0-2.573-.292-3.668-.877s-1.965-1.387-2.61-2.407-.967-2.206-.967-3.556c0-2.549.997-4.529 2.992-5.94 1.995-1.409 4.628-2.114 7.898-2.114 1.019 0 2.099.09 3.24.269-.121-1.139-.608-2.002-1.463-2.587s-1.897-.878-3.127-.878c-1.08 0-2.168.203-3.263.608s-2.137.893-3.127 1.463l-2.655-5.04c1.5-.96 3.119-1.702 4.86-2.228 1.739-.524 3.48-.787 5.22-.787 2.099 0 3.99.359 5.67 1.08 1.679.72 2.999 1.815 3.96 3.284.96 1.471 1.44 3.33 1.44 5.58v13.545zm19.979-8.864v8.864h-7.829v-22.904h7.155l.495 3.824c.479-1.229 1.267-2.227 2.362-2.992s2.363-1.147 3.803-1.147c.81 0 1.424.105 1.844.315v7.154c-.33-.119-.697-.209-1.102-.269s-.863-.091-1.373-.091c-1.56 0-2.842.579-3.847 1.733-1.005 1.156-1.508 2.993-1.508 5.513"
      fill="#404040"/><path
      d="m226.029 32.639c-.96 0-1.838-.232-2.632-.697-.796-.465-1.425-1.095-1.89-1.89-.466-.794-.698-1.672-.698-2.632s.232-1.838.698-2.633c.465-.795 1.094-1.424 1.89-1.89.794-.465 1.672-.698 2.632-.698s1.838.233 2.633.698c.794.466 1.424 1.095 1.89 1.89.464.795.697 1.673.697 2.633s-.233 1.838-.697 2.632c-.466.795-1.096 1.425-1.89 1.89-.795.465-1.673.697-2.633.697"
      fill="#009bff" class='no-color-change'/></g>
</svg>