<svg xmlns="http://www.w3.org/2000/svg" width="349" height="55" viewBox="0 0 349 55">
  <g fill="none" fill-rule="evenodd">
    <path class='no-color-change' fill="#009BFF" d="M54.177,27.824 C54.177,42.737 42.09,54.824 27.177,54.824 C12.264,54.824 0.177,42.737 0.177,27.824 C0.177,12.911 12.264,0.824 27.177,0.824 C42.09,0.824 54.177,12.911 54.177,27.824"/>
    <path fill="#404040" d="M69.536 21.551C70.516 21.551 71.272 21.263 71.805 20.686 72.338 20.109 72.606 19.287 72.606 18.22L72.606 7.441 77.484 7.441 77.484 18.194C77.484 20.555 76.793 22.382 75.411 23.676 74.031 24.97 72.072 25.617 69.536 25.617 67.001 25.617 65.042 24.97 63.661 23.676 62.28 22.382 61.589 20.555 61.589 18.194L61.589 7.441 66.468 7.441 66.468 18.22C66.468 19.287 66.735 20.109 67.268 20.686 67.801 21.263 68.557 21.551 69.536 21.551M87.24 25.617C85.789 25.617 84.399 25.368 83.071 24.87 81.742 24.37 80.587 23.659 79.609 22.732L81.969 19.768C82.668 20.397 83.454 20.892 84.329 21.249 85.203 21.608 86.165 21.787 87.214 21.787 87.913 21.787 88.464 21.665 88.866 21.42 89.269 21.175 89.47 20.808 89.47 20.319 89.47 19.846 89.235 19.466 88.762 19.178 88.29 18.889 87.459 18.587 86.271 18.273L85.169 17.984C83.56 17.565 82.336 16.922 81.496 16.056 80.658 15.191 80.238 14.094 80.238 12.765 80.238 11.628 80.534 10.631 81.129 9.775 81.724 8.918 82.546 8.258 83.595 7.794 84.644 7.331 85.86 7.099 87.24 7.099 88.605 7.099 89.907 7.349 91.149 7.847 92.39 8.345 93.491 9.023 94.453 9.879L92.014 12.949C91.385 12.407 90.646 11.934 89.798 11.532 88.949 11.13 88.107 10.929 87.267 10.929 86.568 10.929 86.03 11.047 85.654 11.283 85.278 11.519 85.09 11.865 85.09 12.319 85.09 12.739 85.286 13.102 85.68 13.408 86.074 13.713 86.751 13.997 87.713 14.26L89.05 14.627C90.974 15.152 92.333 15.869 93.129 16.778 93.924 17.687 94.323 18.745 94.323 19.952 94.323 21.088 94.03 22.08 93.444 22.928 92.858 23.777 92.032 24.437 90.965 24.909 89.899 25.38 88.657 25.617 87.24 25.617M102.48 18.326L106.702 18.326 104.605 12.082 102.48 18.326zM109.063 25.276L107.936 21.945 101.247 21.945 100.119 25.276 95.293 25.276 101.824 7.441 107.49 7.441 114.021 25.276 109.063 25.276 109.063 25.276z"/>
    <polyline fill="#404040" points="125.219 25.276 125.219 11.374 119.921 11.374 119.921 7.441 135.396 7.441 135.396 11.374 130.098 11.374 130.098 25.276 125.219 25.276"/>
    <path fill="#404040" d="M145.599 21.578C146.455 21.578 147.202 21.359 147.841 20.922 148.48 20.485 148.982 19.877 149.349 19.099 149.716 18.321 149.901 17.416 149.901 16.384 149.901 15.353 149.716 14.444 149.349 13.657 148.982 12.87 148.48 12.253 147.841 11.807 147.202 11.362 146.455 11.139 145.599 11.139 144.741 11.139 143.994 11.362 143.356 11.807 142.718 12.253 142.215 12.87 141.848 13.657 141.481 14.444 141.297 15.353 141.297 16.384 141.297 17.416 141.481 18.321 141.848 19.099 142.215 19.877 142.718 20.485 143.356 20.922 143.994 21.359 144.741 21.578 145.599 21.578zM145.599 25.617C143.815 25.617 142.229 25.223 140.838 24.437 139.449 23.65 138.351 22.561 137.546 21.171 136.742 19.781 136.34 18.186 136.34 16.384 136.34 15.02 136.567 13.775 137.022 12.647 137.477 11.519 138.123 10.539 138.963 9.709 139.802 8.879 140.782 8.236 141.901 7.782 143.019 7.327 144.252 7.099 145.599 7.099 146.945 7.099 148.178 7.327 149.297 7.782 150.415 8.236 151.395 8.879 152.235 9.709 153.074 10.539 153.721 11.519 154.175 12.647 154.63 13.775 154.858 15.02 154.858 16.384 154.858 18.186 154.455 19.781 153.651 21.171 152.846 22.561 151.749 23.65 150.36 24.437 148.969 25.223 147.382 25.617 145.599 25.617L145.599 25.617zM162.463 21.42L164.693 21.42C165.969 21.42 166.979 20.957 167.722 20.03 168.465 19.104 168.837 17.879 168.837 16.358 168.837 14.836 168.465 13.613 167.722 12.686 166.979 11.759 165.969 11.296 164.693 11.296L162.463 11.296 162.463 21.42zM157.663 25.276L157.663 7.441 164.693 7.441C166.459 7.441 168.02 7.821 169.374 8.581 170.73 9.342 171.792 10.391 172.562 11.729 173.33 13.067 173.715 14.61 173.715 16.358 173.715 18.107 173.33 19.65 172.562 20.988 171.792 22.325 170.73 23.374 169.374 24.135 168.02 24.896 166.459 25.276 164.693 25.276L157.663 25.276 157.663 25.276zM181.532 18.326L185.754 18.326 183.657 12.082 181.532 18.326zM188.115 25.276L186.988 21.945 180.299 21.945 179.171 25.276 174.345 25.276 180.876 7.441 186.541 7.441 193.073 25.276 188.115 25.276 188.115 25.276z"/>
    <polyline fill="#404040" points="202.514 18.85 202.514 25.276 197.556 25.276 197.556 18.85 191.236 7.441 196.743 7.441 200.048 14.522 203.326 7.441 208.834 7.441 202.514 18.85"/>
    <polyline fill="#404040" points="227.797 25.276 220.794 14.995 220.794 25.276 216.309 25.276 216.309 7.441 220.768 7.441 227.744 17.906 227.744 7.441 232.256 7.441 232.256 25.276 227.797 25.276"/>
    <polyline fill="#404040" points="236.191 25.276 236.191 7.441 248.492 7.441 248.492 11.348 240.965 11.348 240.965 14.365 247.653 14.365 247.653 18.273 240.965 18.273 240.965 21.368 248.912 21.368 248.912 25.276 236.191 25.276"/>
    <polyline fill="#404040" points="255.914 25.276 255.914 11.374 250.616 11.374 250.616 7.441 266.091 7.441 266.091 11.374 260.793 11.374 260.793 25.276 255.914 25.276"/>
    <polyline fill="#404040" points="282.562 25.276 279.677 13.683 276.791 25.276 271.624 25.276 267.192 7.441 271.913 7.441 274.615 19.611 277.605 7.441 281.775 7.441 284.739 19.532 287.519 7.441 292.161 7.441 287.729 25.276 282.562 25.276"/>
    <path fill="#404040" d="M302.548 21.578C303.405 21.578 304.152 21.359 304.79 20.922 305.429 20.485 305.931 19.877 306.298 19.099 306.665 18.321 306.85 17.416 306.85 16.384 306.85 15.353 306.665 14.444 306.298 13.657 305.931 12.87 305.429 12.253 304.79 11.807 304.152 11.362 303.405 11.139 302.548 11.139 301.691 11.139 300.944 11.362 300.305 11.807 299.667 12.253 299.164 12.87 298.797 13.657 298.43 14.444 298.246 15.353 298.246 16.384 298.246 17.416 298.43 18.321 298.797 19.099 299.164 19.877 299.667 20.485 300.305 20.922 300.944 21.359 301.691 21.578 302.548 21.578zM302.548 25.617C300.764 25.617 299.178 25.223 297.787 24.437 296.398 23.65 295.3 22.561 294.495 21.171 293.692 19.781 293.289 18.186 293.289 16.384 293.289 15.02 293.516 13.775 293.971 12.647 294.426 11.519 295.073 10.539 295.912 9.709 296.751 8.879 297.731 8.236 298.85 7.782 299.968 7.327 301.201 7.099 302.548 7.099 303.894 7.099 305.127 7.327 306.246 7.782 307.365 8.236 308.344 8.879 309.184 9.709 310.023 10.539 310.67 11.519 311.124 12.647 311.579 13.775 311.807 15.02 311.807 16.384 311.807 18.186 311.405 19.781 310.6 21.171 309.795 22.561 308.698 23.65 307.309 24.437 305.918 25.223 304.331 25.617 302.548 25.617L302.548 25.617zM319.387 15.65L322.01 15.65C322.761 15.65 323.356 15.454 323.793 15.06 324.23 14.666 324.448 14.128 324.448 13.447 324.448 12.8 324.23 12.28 323.793 11.886 323.356 11.493 322.761 11.296 322.01 11.296L319.387 11.296 319.387 15.65zM319.387 19.348L319.387 25.276 314.665 25.276 314.665 7.441 322.534 7.441C324.632 7.441 326.293 7.978 327.518 9.053 328.741 10.128 329.354 11.593 329.354 13.447 329.354 14.653 329.082 15.694 328.54 16.568 327.998 17.443 327.238 18.124 326.259 18.614L329.905 25.276 324.711 25.276 321.747 19.348 319.387 19.348 319.387 19.348z"/>
    <polyline fill="#404040" points="343.044 25.276 337.379 16.556 337.379 25.276 332.527 25.276 332.527 7.441 337.379 7.441 337.379 15.27 343.254 7.441 348.867 7.441 342.258 15.637 348.737 25.276 343.044 25.276"/>
    <polyline class='no-color-change' fill="#009BFF" points="69.773 46.477 65.707 37.061 65.707 48.129 61.589 48.129 61.589 30.294 67.045 30.294 71.714 41.441 76.251 30.294 81.706 30.294 81.706 48.129 77.641 48.129 77.641 36.93 73.524 46.477 69.773 46.477"/>
    <path class='no-color-change' fill="#009BFF" d="M93.877,44.431 C94.734,44.431 95.481,44.212 96.119,43.776 C96.758,43.338 97.26,42.731 97.627,41.953 C97.994,41.174 98.179,40.27 98.179,39.238 C98.179,38.206 97.994,37.297 97.627,36.51 C97.26,35.723 96.758,35.107 96.119,34.661 C95.481,34.215 94.734,33.993 93.877,33.993 C93.02,33.993 92.273,34.215 91.634,34.661 C90.996,35.107 90.493,35.723 90.126,36.51 C89.759,37.297 89.575,38.206 89.575,39.238 C89.575,40.27 89.759,41.174 90.126,41.953 C90.493,42.731 90.996,43.338 91.634,43.776 C92.273,44.212 93.02,44.431 93.877,44.431 Z M93.877,48.47 C92.093,48.47 90.507,48.077 89.116,47.29 C87.727,46.503 86.629,45.414 85.824,44.025 C85.021,42.634 84.618,41.039 84.618,39.238 C84.618,37.873 84.845,36.628 85.3,35.5 C85.755,34.372 86.402,33.393 87.241,32.563 C88.08,31.733 89.06,31.089 90.179,30.635 C91.297,30.18 92.531,29.953 93.877,29.953 C95.223,29.953 96.456,30.18 97.575,30.635 C98.694,31.089 99.673,31.733 100.513,32.563 C101.352,33.393 101.999,34.372 102.453,35.5 C102.908,36.628 103.136,37.873 103.136,39.238 C103.136,41.039 102.734,42.634 101.929,44.025 C101.124,45.414 100.028,46.503 98.638,47.29 C97.247,48.077 95.66,48.47 93.877,48.47 L93.877,48.47 Z"/>
    <polyline class='no-color-change' fill="#009BFF" points="117.534 48.129 110.532 37.848 110.532 48.129 106.046 48.129 106.046 30.294 110.505 30.294 117.482 40.759 117.482 30.294 121.993 30.294 121.993 48.129 117.534 48.129"/>
    <polyline class='no-color-change' fill="#009BFF" points="129.862 48.129 129.862 34.228 124.564 34.228 124.564 30.294 140.038 30.294 140.038 34.228 134.74 34.228 134.74 48.129 129.862 48.129"/>
    <polyline class='no-color-change' fill="#009BFF" points="142.609 48.129 142.609 30.294 154.91 30.294 154.91 34.202 147.383 34.202 147.383 37.218 154.071 37.218 154.071 41.126 147.383 41.126 147.383 44.221 155.33 44.221 155.33 48.129 142.609 48.129"/>
    <path class='no-color-change' fill="#009BFF" d="M163.119,38.503 L165.742,38.503 C166.493,38.503 167.088,38.307 167.526,37.913 C167.962,37.52 168.181,36.982 168.181,36.3 C168.181,35.654 167.962,35.133 167.526,34.74 C167.088,34.346 166.493,34.15 165.742,34.15 L163.119,34.15 L163.119,38.503 Z M163.119,42.202 L163.119,48.129 L158.398,48.129 L158.398,30.294 L166.267,30.294 C168.365,30.294 170.026,30.831 171.25,31.907 C172.474,32.982 173.086,34.447 173.086,36.3 C173.086,37.506 172.815,38.547 172.273,39.421 C171.731,40.296 170.97,40.978 169.991,41.467 L173.637,48.129 L168.444,48.129 L165.48,42.202 L163.119,42.202 L163.119,42.202 Z"/>
    <polyline class='no-color-change' fill="#009BFF" points="176.259 48.129 176.259 30.294 188.561 30.294 188.561 34.202 181.033 34.202 181.033 37.218 187.721 37.218 187.721 41.126 181.033 41.126 181.033 44.221 188.981 44.221 188.981 48.129 176.259 48.129"/>
    <polyline class='no-color-change' fill="#009BFF" points="201.623 41.704 201.623 48.129 196.665 48.129 196.665 41.704 190.345 30.294 195.853 30.294 199.157 37.375 202.436 30.294 207.944 30.294 201.623 41.704"/>
    <path class='no-color-change' fill="#009BFF" d="M224.624 48.47C222.806 48.47 221.21 48.077 219.838 47.29 218.465 46.503 217.39 45.414 216.612 44.025 215.833 42.634 215.445 41.021 215.445 39.185 215.445 37.349 215.833 35.741 216.612 34.36 217.39 32.978 218.465 31.898 219.838 31.12 221.21 30.342 222.806 29.953 224.624 29.953 226.163 29.953 227.549 30.263 228.782 30.884 230.015 31.505 231.068 32.401 231.943 33.573L228.086 35.854C227.632 35.278 227.12 34.823 226.552 34.491 225.984 34.159 225.324 33.993 224.572 33.993 223.33 33.993 222.325 34.46 221.556 35.395 220.786 36.33 220.402 37.594 220.402 39.185 220.402 40.777 220.786 42.049 221.556 43.001 222.325 43.954 223.33 44.431 224.572 44.431 225.341 44.431 226.024 44.244 226.617 43.868 227.212 43.492 227.71 43.05 228.113 42.542L231.943 44.825C231.085 46.014 230.032 46.918 228.782 47.539 227.532 48.16 226.146 48.47 224.624 48.47M242.407 44.431C243.264 44.431 244.011 44.212 244.65 43.776 245.288 43.338 245.79 42.731 246.157 41.953 246.525 41.174 246.709 40.27 246.709 39.238 246.709 38.206 246.525 37.297 246.157 36.51 245.79 35.723 245.288 35.107 244.65 34.661 244.011 34.215 243.264 33.993 242.407 33.993 241.55 33.993 240.803 34.215 240.164 34.661 239.527 35.107 239.024 35.723 238.656 36.51 238.289 37.297 238.106 38.206 238.106 39.238 238.106 40.27 238.289 41.174 238.656 41.953 239.024 42.731 239.527 43.338 240.164 43.776 240.803 44.212 241.55 44.431 242.407 44.431zM242.407 48.47C240.623 48.47 239.037 48.077 237.647 47.29 236.257 46.503 235.159 45.414 234.355 44.025 233.551 42.634 233.149 41.039 233.149 39.238 233.149 37.873 233.375 36.628 233.83 35.5 234.285 34.372 234.932 33.393 235.772 32.563 236.611 31.733 237.59 31.089 238.709 30.635 239.827 30.18 241.061 29.953 242.407 29.953 243.753 29.953 244.987 30.18 246.106 30.635 247.224 31.089 248.203 31.733 249.043 32.563 249.882 33.393 250.53 34.372 250.984 35.5 251.439 36.628 251.666 37.873 251.666 39.238 251.666 41.039 251.264 42.634 250.459 44.025 249.655 45.414 248.558 46.503 247.168 47.29 245.778 48.077 244.191 48.47 242.407 48.47L242.407 48.47zM262.184 44.405C263.163 44.405 263.919 44.117 264.452 43.539 264.986 42.962 265.253 42.141 265.253 41.074L265.253 30.294 270.131 30.294 270.131 41.047C270.131 43.409 269.441 45.236 268.059 46.53 266.678 47.824 264.719 48.47 262.184 48.47 259.649 48.47 257.69 47.824 256.309 46.53 254.927 45.236 254.237 43.409 254.237 41.047L254.237 30.294 259.115 30.294 259.115 41.074C259.115 42.141 259.382 42.962 259.915 43.539 260.448 44.117 261.204 44.405 262.184 44.405"/>
    <polyline class='no-color-change' fill="#009BFF" points="285.212 48.129 278.209 37.848 278.209 48.129 273.724 48.129 273.724 30.294 278.183 30.294 285.159 40.759 285.159 30.294 289.671 30.294 289.671 48.129 285.212 48.129"/>
    <polyline class='no-color-change' fill="#009BFF" points="297.54 48.129 297.54 34.228 292.242 34.228 292.242 30.294 307.717 30.294 307.717 34.228 302.419 34.228 302.419 48.129 297.54 48.129"/>
    <polyline class='no-color-change' fill="#009BFF" points="319.861 41.704 319.861 48.129 314.903 48.129 314.903 41.704 308.582 30.294 314.09 30.294 317.395 37.375 320.673 30.294 326.181 30.294 319.861 41.704"/>
  </g>
</svg>
