<svg id="Montgomery" xmlns="http://www.w3.org/2000/svg" xmlns:xlink="http://www.w3.org/1999/xlink" width="772" height="160" viewBox="0 0 772 160">
  <defs>
    <style>
      .cls-1 {
        fill: #fff;
        filter: url(#filter);
      }

      .cls-1, .cls-2 {
        fill-rule: evenodd;
      }

      .cls-2 {
        fill: #525252;
      }
    </style>
    <filter id="filter" x="404" y="104.969" width="367.969" height="16" filterUnits="userSpaceOnUse">
      <feFlood result="flood" flood-color="#999"/>
      <feComposite result="composite" operator="in" in2="SourceGraphic"/>
      <feBlend result="blend" in2="SourceGraphic"/>
    </filter>
    <filter id="filter-2" x="22.156" y="38.875" width="729.032" height="67.375" filterUnits="userSpaceOnUse">
      <feFlood result="flood" flood-color="#fff"/>
      <feComposite result="composite" operator="in" in2="SourceGraphic"/>
      <feBlend result="blend" in2="SourceGraphic"/>
    </filter>
  </defs>
  <path id="USAT_Network" data-name="USAT Network" class="cls-1" d="M403.989,105.273h4.489c3.156,0,5.267,1.865,5.267,4.741s-2.155,4.735-5.267,4.735h-2.29v5.925h-2.2v-15.4Zm4.267,7.659c2.112,0,3.244-1.163,3.244-2.918,0-1.736-1.132-2.919-3.244-2.919h-2.068v5.837h2.068Zm11.768-7.659h1.955l6.4,15.4h-2.358l-1.6-4.035h-6.911l-1.6,4.035H413.6S419.244,107.162,420.024,105.273Zm3.665,9.544-1.488-3.794c-0.222-.572-1.179-2.942-1.2-3.139h-0.043c-0.022.2-.955,2.5-1.2,3.139l-1.51,3.794h5.443Zm6.924-9.544h4.51c2.91,0,5.178,1.5,5.178,4.563a4.293,4.293,0,0,1-3.955,4.346l4.778,6.492h-2.579l-4.51-6.276h-1.223v6.276h-2.2v-15.4Zm4.267,7.351c2.043,0,3.2-1.077,3.2-2.764s-1.157-2.765-3.2-2.765h-2.068v5.529h2.068Zm11.522-5.486h-4.445v-1.865h11.089v1.865H448.6v13.536h-2.2V107.138Zm12.347,5.838a8.2,8.2,0,1,1,8.2,8A7.862,7.862,0,0,1,458.749,112.976Zm14.133,0a5.946,5.946,0,1,0-5.955,6.053A5.772,5.772,0,0,0,472.882,112.976Zm5.433-7.7h7.867v1.865h-5.668V112.1H486v1.865h-5.49v6.713h-2.2v-15.4Zm17.815,1.865h-4.444v-1.865h11.088v1.865H498.33v13.536h-2.2V107.138Zm8.953-1.865h2.2v6.318h8.178v-6.318h2.2v15.4h-2.2v-7.218h-8.178v7.218h-2.2v-15.4Zm16.631,0h8.49v1.846h-6.291v4.472h6.111v1.846h-6.111v5.395h6.423v1.842h-8.622v-15.4Zm16,10.092V105.273h2.221v9.433c0,2.679,1.157,4.323,3.756,4.323,2.622,0,3.78-1.644,3.78-4.323v-9.433h2.221v10.092c0,3.38-2.2,5.616-6,5.616C539.865,120.981,537.71,118.745,537.71,115.365Zm14.274,2.524,1.491-1.25a4.52,4.52,0,0,0,3.911,2.433c1.709,0,3.044-.918,3.044-2.611,0-1.817-1.534-2.433-3.446-3.178-1.956-.769-3.933-1.736-3.933-4.193,0-2.432,1.912-4.12,4.712-4.12a5.248,5.248,0,0,1,4.579,2.322l-1.491,1.25a3.552,3.552,0,0,0-3.088-1.668c-1.512,0-2.511.769-2.511,2.063,0,1.6,1.554,2.13,2.911,2.654,2.2,0.856,4.466,1.889,4.466,4.716,0,2.679-2,4.674-5.2,4.674A6.064,6.064,0,0,1,551.984,117.889Zm18.241-12.616h1.956l6.4,15.4h-2.357l-1.6-4.035h-6.912l-1.6,4.035H563.8S569.446,107.162,570.225,105.273Zm3.665,9.544-1.487-3.794c-0.222-.572-1.179-2.942-1.2-3.139h-0.044c-0.022.2-.955,2.5-1.2,3.139l-1.51,3.794h5.443Zm13.978-7.679h-4.445v-1.865h11.088v1.865h-4.444v13.536h-2.2V107.138Zm7.469,5.838a8.2,8.2,0,1,1,8.2,8A7.861,7.861,0,0,1,595.337,112.976Zm14.132,0a5.945,5.945,0,1,0-5.954,6.053A5.772,5.772,0,0,0,609.469,112.976Zm5.434-7.7h4.423c4.977,0,8.265,2.808,8.265,7.7,0,4.87-3.312,7.7-8.265,7.7H614.9v-15.4Zm2.2,13.534h2.046c3.643,0,6.176-1.9,6.176-5.831s-2.533-5.838-6.176-5.838H617.1v11.669Zm17.637-13.534H636.7l6.4,15.4h-2.357l-1.6-4.035h-6.912l-1.6,4.035h-2.311S633.96,107.162,634.739,105.273Zm3.666,9.544-1.489-3.794c-0.221-.572-1.178-2.942-1.2-3.139h-0.044c-0.022.2-.955,2.5-1.2,3.139l-1.51,3.794h5.444Zm9.084-.419-5.312-9.125h2.467l2.889,5.135a22.887,22.887,0,0,1,1.11,2.192h0.022a23.153,23.153,0,0,1,1.113-2.192l2.91-5.135h2.4l-5.309,9.125v6.276h-2.289V114.4Zm14.062-9.125h1.687l8.846,9.982c0.266,0.288,1.422,1.711,1.534,1.932l0.044-.023c-0.044-.217-0.044-2-0.044-2.39v-9.5h2.134v15.4h-1.713l-8.845-9.983c-0.265-.283-1.422-1.711-1.532-1.928l-0.021.02c0.021,0.221.043,2,.043,2.394v9.5h-2.133v-15.4Zm18.253,0h8.487v1.846H682v4.472h6.113v1.846H682v5.395h6.422v1.842H679.8v-15.4Zm15.37,1.865h-4.445v-1.865h11.089v1.865h-4.445v13.536h-2.2V107.138Zm8.477-1.865h2.334l3.2,9.15c0.112,0.351.867,2.63,0.889,2.981h0.046a30.445,30.445,0,0,1,.933-2.981l3.334-9.15h1.756l3.332,9.15c0.133,0.351.91,2.63,0.935,2.981h0.044c0.043-.351.8-2.63,0.91-2.981l3.179-9.15h2.243l-5.49,15.4h-1.688l-3.6-9.607a25.578,25.578,0,0,1-.758-2.5h-0.044a25.693,25.693,0,0,1-.776,2.5l-3.578,9.607h-1.69Zm24.118,7.7a8.2,8.2,0,1,1,8.2,8A7.862,7.862,0,0,1,727.769,112.976Zm14.133,0a5.946,5.946,0,1,0-5.955,6.053A5.772,5.772,0,0,0,741.9,112.976Zm5.433-7.7h4.511c2.913,0,5.177,1.5,5.177,4.563a4.293,4.293,0,0,1-3.955,4.346l4.779,6.492h-2.579l-4.511-6.276h-1.222v6.276h-2.2v-15.4Zm4.267,7.351c2.044,0,3.2-1.077,3.2-2.764s-1.156-2.765-3.2-2.765h-2.067v5.529H751.6Zm8.736-7.351h2.2v7.154l6.444-7.154h2.666l-6.687,7.351,7,8.05h-2.754l-6.668-7.785v7.785h-2.2v-15.4Z"/>
  <path id="Montgomery_Adver_tiser" data-name="Montgomery Adver tiser" class="cls-2" d="M22.167,91.822h4.088l5.083-40.845L50.072,93.635h1.138L69.943,50.977l5.083,40.845h4.088L72.254,38.891H71.081L50.641,85.708,30.165,38.891H29.027Zm86.3-.764a17.97,17.97,0,0,0,5.83-4.337,18.34,18.34,0,0,0,3.554-6.043,20.254,20.254,0,0,0,0-13.686,18.347,18.347,0,0,0-3.554-6.043,17.767,17.767,0,0,0-5.83-4.319,18.336,18.336,0,0,0-7.91-1.635,18.153,18.153,0,0,0-7.927,1.635,17.9,17.9,0,0,0-5.777,4.319,18.573,18.573,0,0,0-3.573,6.043,19.977,19.977,0,0,0,0,13.686,18.565,18.565,0,0,0,3.573,6.043A19.021,19.021,0,0,0,108.467,91.058ZM94.656,88.249A13.7,13.7,0,0,1,90,85.015a14.936,14.936,0,0,1-3.057-4.959,18.11,18.11,0,0,1,0-12.442A14.936,14.936,0,0,1,90,62.655a13.711,13.711,0,0,1,4.657-3.235,14.857,14.857,0,0,1,5.9-1.155,14.679,14.679,0,0,1,5.83,1.155,13.723,13.723,0,0,1,4.657,3.235,15.442,15.442,0,0,1,3.093,4.959,17.587,17.587,0,0,1,0,12.442,15.442,15.442,0,0,1-3.093,4.959,13.715,13.715,0,0,1-4.657,3.235,14.668,14.668,0,0,1-5.83,1.155A14.847,14.847,0,0,1,94.656,88.249Zm30.43,3.573h3.8V70.493q0-6.114,3.164-9.171a11.181,11.181,0,0,1,8.1-3.057,9.926,9.926,0,0,1,7.5,2.879q2.774,2.879,2.773,9.065V91.822H154.2V69.249a17.235,17.235,0,0,0-1.013-6.15,12.514,12.514,0,0,0-2.826-4.479,11.5,11.5,0,0,0-4.408-2.72,17.031,17.031,0,0,0-5.652-.906,12.713,12.713,0,0,0-11.34,5.652h-0.142v-4.8h-3.733V91.822Zm48.9,0.32q1.083-.178,1.9-0.391V88.2a9.667,9.667,0,0,1-1.8.569,12.1,12.1,0,0,1-2.506.213,3.816,3.816,0,0,1-3.5-1.6,9.093,9.093,0,0,1-1.013-4.8V59.3h9.384V55.847h-9.384v-9.74h-3.8v9.74h-5.3V59.3h5.3v23.64q0,9.385,7.963,9.385A17.574,17.574,0,0,0,173.989,92.142Zm35.788,9.6q4.55-4.515,4.55-12.62V55.847h-3.733v7.145h-0.142a16.731,16.731,0,0,0-5.563-5.741,15.7,15.7,0,0,0-8.621-2.257,18.194,18.194,0,0,0-7.838,1.6,17,17,0,0,0-5.688,4.248,18,18,0,0,0-3.448,6.043,21.486,21.486,0,0,0,0,13.9,17.994,17.994,0,0,0,3.448,6.043,17.192,17.192,0,0,0,5.688,4.266,18.026,18.026,0,0,0,7.838,1.617,17.378,17.378,0,0,0,4.8-.622A16.109,16.109,0,0,0,205,90.4a14.958,14.958,0,0,0,3.11-2.488,16.036,16.036,0,0,0,2.275-3.022h0.142v4.586A15.571,15.571,0,0,1,209.4,95.75a11.229,11.229,0,0,1-3.022,4.141,11.938,11.938,0,0,1-4.408,2.329,19.858,19.858,0,0,1-12.886-.764,11.834,11.834,0,0,1-5.4-4.551l-3.057,2.133a13.972,13.972,0,0,0,6.612,5.421,24.306,24.306,0,0,0,9.456,1.8Q205.227,106.255,209.777,101.74ZM190.51,88.249a13.507,13.507,0,0,1-4.551-3.235,14.8,14.8,0,0,1-2.986-4.959,18.685,18.685,0,0,1,0-12.442,14.8,14.8,0,0,1,2.986-4.959,13.515,13.515,0,0,1,4.551-3.235,14.884,14.884,0,0,1,11.5,0,13.383,13.383,0,0,1,4.515,3.235,15.186,15.186,0,0,1,2.986,4.959,18.393,18.393,0,0,1,0,12.442,15.186,15.186,0,0,1-2.986,4.959,13.375,13.375,0,0,1-4.515,3.235A14.884,14.884,0,0,1,190.51,88.249Zm56.415,2.808a17.955,17.955,0,0,0,5.829-4.337,18.326,18.326,0,0,0,3.555-6.043,20.254,20.254,0,0,0,0-13.686,18.333,18.333,0,0,0-3.555-6.043,17.753,17.753,0,0,0-5.829-4.319,18.336,18.336,0,0,0-7.91-1.635,18.151,18.151,0,0,0-7.927,1.635,17.908,17.908,0,0,0-5.777,4.319,18.569,18.569,0,0,0-3.572,6.043,19.971,19.971,0,0,0,0,13.686,18.562,18.562,0,0,0,3.572,6.043A19.022,19.022,0,0,0,246.925,91.058Zm-13.811-2.808a13.7,13.7,0,0,1-4.657-3.235,14.941,14.941,0,0,1-3.057-4.959,18.11,18.11,0,0,1,0-12.442,14.941,14.941,0,0,1,3.057-4.959,13.713,13.713,0,0,1,4.657-3.235,14.858,14.858,0,0,1,5.9-1.155,14.679,14.679,0,0,1,5.83,1.155,13.723,13.723,0,0,1,4.657,3.235,15.422,15.422,0,0,1,3.092,4.959,17.573,17.573,0,0,1,0,12.442,15.422,15.422,0,0,1-3.092,4.959,13.715,13.715,0,0,1-4.657,3.235,14.668,14.668,0,0,1-5.83,1.155A14.847,14.847,0,0,1,233.114,88.249Zm30.43,3.573h3.8V70.493q0-6.114,3.021-9.171a10.428,10.428,0,0,1,7.75-3.057,9.142,9.142,0,0,1,7.127,2.879q2.613,2.879,2.613,9.065V91.822h3.8V70.493q0-6.114,3.021-9.171a10.429,10.429,0,0,1,7.75-3.057,9.142,9.142,0,0,1,7.127,2.879q2.613,2.879,2.613,9.065V91.822h3.8V69.249q0-7.074-3.644-10.665t-9.758-3.59a13.228,13.228,0,0,0-7.749,2.026,14.255,14.255,0,0,0-4.551,5.332,11.229,11.229,0,0,0-4.621-5.51,14.156,14.156,0,0,0-7.394-1.849,12.167,12.167,0,0,0-6.772,1.671,14.054,14.054,0,0,0-4.07,3.981h-0.142v-4.8h-3.733V91.822Zm84.634-1.6a17.032,17.032,0,0,0,6.861-7.287l-3.2-1.742a15.95,15.95,0,0,1-5.119,5.954A13.318,13.318,0,0,1,338.9,89.4a13.549,13.549,0,0,1-6.026-1.262,12.608,12.608,0,0,1-4.319-3.413,16.138,16.138,0,0,1-2.7-4.923,17.69,17.69,0,0,1-.959-5.83H356V73.835a24.157,24.157,0,0,0-1.013-6.95,17.677,17.677,0,0,0-3.128-6.043,15.517,15.517,0,0,0-5.368-4.248,19.164,19.164,0,0,0-15.57.107,16.521,16.521,0,0,0-5.474,4.408,18.5,18.5,0,0,0-3.2,6.043,21.544,21.544,0,0,0,.071,13.491,18.509,18.509,0,0,0,3.306,6.043,17.271,17.271,0,0,0,5.439,4.337,16.1,16.1,0,0,0,7.519,1.689A19.2,19.2,0,0,0,348.178,90.222ZM325.142,70.777a18.311,18.311,0,0,1,1.511-4.995,13.178,13.178,0,0,1,2.844-3.964,13.437,13.437,0,0,1,4.088-2.648,13.142,13.142,0,0,1,5.137-.978,13.461,13.461,0,0,1,4.994.907,12.5,12.5,0,0,1,4.053,2.577,14.278,14.278,0,0,1,2.915,3.964,15.667,15.667,0,0,1,1.511,5.137H325.142Zm37.083,21.045h3.8V71.879q0-6.185,2.257-9.758a7.678,7.678,0,0,1,6.985-3.573,12.519,12.519,0,0,1,2.453.249,12.219,12.219,0,0,1,2.2.64V55.563a15.343,15.343,0,0,0-4.23-.569,10.83,10.83,0,0,0-5.741,1.422A10.617,10.617,0,0,0,366.1,60.9h-0.142V55.847h-3.733V91.822Zm24.313,13.7a8.8,8.8,0,0,0,2.773-1.9,11.874,11.874,0,0,0,1.938-2.666,30.563,30.563,0,0,0,1.439-3.093l18.13-42.018h-3.91L394.43,85.494h-0.142L381.846,55.847h-3.981L392.4,89.725l-3.2,7.323a12.685,12.685,0,0,1-2.88,4.461,5.694,5.694,0,0,1-3.875,1.3,10.212,10.212,0,0,1-4.088-.853v3.484a6.356,6.356,0,0,0,1.742.587,12.257,12.257,0,0,0,2.489.231A9.666,9.666,0,0,0,386.538,105.526Zm32.712-13.7h11.34l3.8-10.273h20.8l3.8,10.273h11.624L450.6,40.7H439.192ZM437.344,72.59l4.514-12.442q0.249-.568.676-1.849t0.871-2.666q0.444-1.386.8-2.577a11.889,11.889,0,0,0,.426-1.8h0.285a17.284,17.284,0,0,0,.462,1.8q0.354,1.191.8,2.577t0.871,2.666q0.428,1.28.64,1.849L452.2,72.59H437.344Zm57.781,18.361a15.725,15.725,0,0,0,4.728-4.284H500v5.154h9.918V40.7H499.356V60.5h-0.071a20.406,20.406,0,0,0-1.76-2.026,10.1,10.1,0,0,0-2.435-1.8,14.258,14.258,0,0,0-3.235-1.226,16.606,16.606,0,0,0-4.088-.462,18.568,18.568,0,0,0-7.376,1.422,17.175,17.175,0,0,0-5.724,3.928,17.686,17.686,0,0,0-3.714,5.883,19.982,19.982,0,0,0-1.316,7.323,23.6,23.6,0,0,0,1,6.665,18.4,18.4,0,0,0,3.128,6.15,16.588,16.588,0,0,0,5.6,4.55,18.1,18.1,0,0,0,8.407,1.8A14.037,14.037,0,0,0,495.125,90.951Zm-9.171-7.714a9.407,9.407,0,0,1-3.022-2.186A9.308,9.308,0,0,1,481,77.816a11.778,11.778,0,0,1-.658-3.981,12.22,12.22,0,0,1,.622-3.893,9,9,0,0,1,4.817-5.457,10.35,10.35,0,0,1,8.23,0,9.194,9.194,0,0,1,3.021,2.257,9.522,9.522,0,0,1,1.849,3.235,11.927,11.927,0,0,1,.622,3.857,11.8,11.8,0,0,1-.658,3.981,9.236,9.236,0,0,1-4.994,5.421,9.514,9.514,0,0,1-3.946.8A9.351,9.351,0,0,1,485.954,83.237Zm40.267,8.585h9.953L551.46,55.847H540.333l-7,18.734q-0.213.569-.5,1.44t-0.569,1.813q-0.285.942-.516,1.742t-0.3,1.12H531.3q-0.072-.32-0.284-1.155t-0.551-1.777q-0.339-.942-0.622-1.849t-0.5-1.475l-6.932-18.592H510.935Zm53.906-.978a15.774,15.774,0,0,0,6.274-4.923l-5.794-5.972a11.88,11.88,0,0,1-3.75,3.235,12.032,12.032,0,0,1-6.026,1.351,14.356,14.356,0,0,1-3.786-.5,10.117,10.117,0,0,1-3.27-1.529,8.28,8.28,0,0,1-2.364-2.631,9.149,9.149,0,0,1-1.138-3.7h27.515A14.058,14.058,0,0,0,588,73.55a22.827,22.827,0,0,0-.942-6.328,16.873,16.873,0,0,0-3.164-6.008,16.691,16.691,0,0,0-5.847-4.479,23.731,23.731,0,0,0-17.935.036,17.7,17.7,0,0,0-5.972,4.515,17.361,17.361,0,0,0-3.323,6.079,21.883,21.883,0,0,0-1.031,6.47,19.838,19.838,0,0,0,1.244,6.879,17.421,17.421,0,0,0,3.75,6.043,18.831,18.831,0,0,0,6.363,4.3A26.5,26.5,0,0,0,580.127,90.844ZM560.273,70a8.593,8.593,0,0,1,8.816-7.359,8.883,8.883,0,0,1,5.564,1.813A9.145,9.145,0,0,1,577.834,70H560.273Zm31.355,21.827h10.558V73.764q0-4.657,2.133-7.092t6.292-2.435a16.376,16.376,0,0,1,2.381.178,8.711,8.711,0,0,1,2.062.533V55.492a10.831,10.831,0,0,0-3.484-.5,9.874,9.874,0,0,0-6.1,1.777,13.222,13.222,0,0,0-3.822,4.621H601.51V55.847h-9.882V91.822Zm43.761,0.533a17.451,17.451,0,0,0,2.631-.462v-8.07a14.223,14.223,0,0,1-1.476.284,13.179,13.179,0,0,1-1.973.142,3.9,3.9,0,0,1-2.826-.978q-1.012-.977-1.013-3.537V63.7h7.5V55.847h-7.5v-9.74H620.174v9.74H615.3V63.7h4.87V80.98q0,5.759,2.684,8.656t9.047,2.9A31.709,31.709,0,0,0,635.389,92.355ZM651.37,50.284a5.9,5.9,0,0,0,0-8.514,6.33,6.33,0,0,0-4.514-1.706,6.242,6.242,0,0,0-4.444,1.706,5.9,5.9,0,0,0,0,8.514,6.2,6.2,0,0,0,4.444,1.724A6.292,6.292,0,0,0,651.37,50.284Zm-9.74,41.538h10.558V55.847H641.63V91.822Zm33.958,0.036a15.55,15.55,0,0,0,4.906-2.417,11.3,11.3,0,0,0,3.253-3.786A10.454,10.454,0,0,0,684.92,80.7a9.119,9.119,0,0,0-1-4.443,10.406,10.406,0,0,0-2.63-3.128,15.177,15.177,0,0,0-3.751-2.186q-2.115-.871-4.354-1.546-1.245-.355-2.364-0.64a11.877,11.877,0,0,1-2.08-.729,4.6,4.6,0,0,1-1.493-1.031,2.064,2.064,0,0,1-.533-1.44,2.472,2.472,0,0,1,1.191-2.08,6.316,6.316,0,0,1,3.608-.835,10.688,10.688,0,0,1,4.479.906,9.643,9.643,0,0,1,3.235,2.293l5.012-6.185A12.941,12.941,0,0,0,682.254,58a15.355,15.355,0,0,0-2.773-1.493,19.771,19.771,0,0,0-3.608-1.084,23.645,23.645,0,0,0-10.434.338,15.222,15.222,0,0,0-4.745,2.186,10.2,10.2,0,0,0-3.129,3.484,9.679,9.679,0,0,0-1.119,4.692,8.611,8.611,0,0,0,.942,4.159,10.274,10.274,0,0,0,2.47,3.022,14.581,14.581,0,0,0,3.5,2.151,28.456,28.456,0,0,0,4.07,1.44q1.457,0.427,2.773.764a12.029,12.029,0,0,1,2.293.818,4.9,4.9,0,0,1,1.564,1.155,2.615,2.615,0,0,1,.586,1.778,3.056,3.056,0,0,1-1.457,2.7,7.247,7.247,0,0,1-4.017.96,11.121,11.121,0,0,1-5.492-1.351,14.406,14.406,0,0,1-4.106-3.341l-5.013,6.043a15.952,15.952,0,0,0,5.706,4.426,20.129,20.129,0,0,0,9.047,1.866A21.662,21.662,0,0,0,675.588,91.858Zm40.681-1.013a15.781,15.781,0,0,0,6.274-4.923l-5.794-5.972A11.884,11.884,0,0,1,713,83.184a12.028,12.028,0,0,1-6.025,1.351,14.345,14.345,0,0,1-3.786-.5,10.113,10.113,0,0,1-3.271-1.529,8.292,8.292,0,0,1-2.364-2.631,9.148,9.148,0,0,1-1.137-3.7h27.514a13.966,13.966,0,0,0,.214-2.631,22.865,22.865,0,0,0-.942-6.328,16.889,16.889,0,0,0-3.164-6.008,16.7,16.7,0,0,0-5.848-4.479,23.728,23.728,0,0,0-17.934.036,17.675,17.675,0,0,0-5.972,4.515,17.348,17.348,0,0,0-3.324,6.079,21.883,21.883,0,0,0-1.031,6.47,19.862,19.862,0,0,0,1.244,6.879,17.439,17.439,0,0,0,3.751,6.043,18.811,18.811,0,0,0,6.363,4.3A26.5,26.5,0,0,0,716.269,90.844ZM696.415,70a8.591,8.591,0,0,1,8.816-7.359,8.878,8.878,0,0,1,5.563,1.813A9.15,9.15,0,0,1,713.976,70H696.415Zm31.354,21.827h10.558V73.764q0-4.657,2.133-7.092t6.292-2.435a16.389,16.389,0,0,1,2.382.178,8.723,8.723,0,0,1,2.062.533V55.492a10.831,10.831,0,0,0-3.484-.5,9.875,9.875,0,0,0-6.1,1.777,13.209,13.209,0,0,0-3.821,4.621h-0.142V55.847h-9.883V91.822Z"/>
</svg>
