<svg xmlns="http://www.w3.org/2000/svg" width="532" height="48" viewBox="0 0 532 48">
  <g fill="none" fill-rule="evenodd">
    <polyline fill="#009BFF" class='no-color-change' points="14.397 31.86 7.422 15.705 7.422 34.695 .357 34.695 .357 4.095 9.717 4.095 17.727 23.22 25.512 4.095 34.872 4.095 34.872 34.695 27.897 34.695 27.897 15.48 20.832 31.86 14.397 31.86"/>
    <path fill="#009BFF" class='no-color-change' d="M52.106 29.07C53.486 29.07 54.588 28.538 55.414 27.473 56.239 26.408 56.651 24.991 56.651 23.22 56.651 21.45 56.239 20.04 55.414 18.99 54.588 17.94 53.486 17.415 52.106 17.415 50.726 17.415 49.624 17.94 48.799 18.99 47.973 20.04 47.561 21.45 47.561 23.22 47.561 24.991 47.973 26.408 48.799 27.473 49.624 28.538 50.726 29.07 52.106 29.07zM52.106 35.28C49.646 35.28 47.478 34.762 45.604 33.728 43.729 32.693 42.258 31.275 41.194 29.475 40.129 27.675 39.596 25.59 39.596 23.22 39.596 20.851 40.129 18.765 41.194 16.965 42.258 15.165 43.729 13.755 45.604 12.735 47.478 11.715 49.646 11.205 52.106 11.205 54.566 11.205 56.734 11.715 58.609 12.735 60.483 13.755 61.954 15.165 63.019 16.965 64.083 18.765 64.617 20.851 64.617 23.22 64.617 25.59 64.083 27.675 63.019 29.475 61.954 31.275 60.483 32.693 58.609 33.728 56.734 34.762 54.566 35.28 52.106 35.28zM76.541 22.05L76.541 34.695 68.711 34.695 68.711 11.79 75.866 11.79 76.271 14.805C77.021 13.725 77.996 12.855 79.196 12.195 80.396 11.536 81.716 11.205 83.156 11.205 85.646 11.205 87.641 12.015 89.141 13.635 90.641 15.255 91.391 17.581 91.391 20.61L91.391 34.695 83.561 34.695 83.561 21.51C83.561 20.16 83.261 19.163 82.661 18.518 82.061 17.873 81.221 17.55 80.141 17.55 79.061 17.55 78.191 17.895 77.531 18.585 76.871 19.276 76.541 20.43 76.541 22.05M113.351 33.21C112.42 33.84 111.355 34.343 110.156 34.717 108.956 35.092 107.696 35.28 106.376 35.28 103.916 35.28 101.958 34.568 100.503 33.143 99.048 31.718 98.321 29.805 98.321 27.405L98.321 17.64 94.586 17.64 94.586 11.79 98.681 11.79 99.671 5.4 106.151 5.4 106.151 11.79 112.136 11.79 112.136 17.64 106.151 17.64 106.151 26.415C106.151 27.196 106.383 27.803 106.848 28.238 107.313 28.673 107.935 28.89 108.716 28.89 109.105 28.89 109.503 28.815 109.908 28.665 110.313 28.515 110.696 28.335 111.056 28.125L113.351 33.21M127.436 27.81C128.755 27.81 129.821 27.337 130.631 26.393 131.44 25.448 131.846 24.18 131.846 22.59 131.846 21 131.44 19.733 130.631 18.788 129.821 17.842 128.755 17.37 127.436 17.37 126.086 17.37 125.006 17.842 124.196 18.788 123.386 19.733 122.981 21 122.981 22.59 122.981 24.15 123.386 25.411 124.196 26.37 125.006 27.331 126.086 27.81 127.436 27.81zM139.586 32.265C139.586 34.605 139.045 36.608 137.966 38.272 136.886 39.937 135.393 41.212 133.488 42.098 131.583 42.982 129.371 43.425 126.851 43.425 124.81 43.425 122.875 43.155 121.045 42.615 119.215 42.075 117.581 41.355 116.141 40.455L119.065 35.415C120.085 36.015 121.158 36.502 122.283 36.877 123.408 37.252 124.57 37.44 125.771 37.44 127.78 37.44 129.281 36.99 130.271 36.09 131.261 35.19 131.756 33.915 131.756 32.265L131.756 31.455C130.975 32.236 130.038 32.858 128.943 33.323 127.848 33.788 126.7 34.02 125.501 34.02 123.43 34.02 121.608 33.533 120.033 32.558 118.458 31.583 117.228 30.233 116.343 28.507 115.458 26.783 115.016 24.811 115.016 22.59 115.016 20.34 115.45 18.36 116.321 16.65 117.19 14.94 118.405 13.605 119.966 12.645 121.525 11.685 123.325 11.205 125.366 11.205 126.745 11.205 128.028 11.536 129.213 12.195 130.398 12.855 131.335 13.725 132.026 14.805L132.43 11.79 139.586 11.79 139.586 32.265zM156.19 29.07C157.57 29.07 158.672 28.538 159.498 27.473 160.322 26.408 160.735 24.991 160.735 23.22 160.735 21.45 160.322 20.04 159.498 18.99 158.672 17.94 157.57 17.415 156.19 17.415 154.81 17.415 153.707 17.94 152.883 18.99 152.057 20.04 151.645 21.45 151.645 23.22 151.645 24.991 152.057 26.408 152.883 27.473 153.707 28.538 154.81 29.07 156.19 29.07zM156.19 35.28C153.73 35.28 151.562 34.762 149.688 33.728 147.812 32.693 146.342 31.275 145.278 29.475 144.212 27.675 143.68 25.59 143.68 23.22 143.68 20.851 144.212 18.765 145.278 16.965 146.342 15.165 147.812 13.755 149.688 12.735 151.562 11.715 153.73 11.205 156.19 11.205 158.65 11.205 160.817 11.715 162.693 12.735 164.567 13.755 166.037 15.165 167.103 16.965 168.167 18.765 168.7 20.851 168.7 23.22 168.7 25.59 168.167 27.675 167.103 29.475 166.037 31.275 164.567 32.693 162.693 33.728 160.817 34.762 158.65 35.28 156.19 35.28zM180.625 21.51L180.625 34.695 172.795 34.695 172.795 11.79 179.995 11.79 180.4 14.715C181.09 13.605 181.99 12.765 183.1 12.195 184.21 11.625 185.395 11.34 186.655 11.34 188.005 11.34 189.235 11.64 190.345 12.24 191.455 12.84 192.355 13.68 193.045 14.76 193.855 13.651 194.913 12.802 196.218 12.217 197.523 11.632 198.895 11.34 200.335 11.34 201.925 11.34 203.328 11.707 204.543 12.443 205.758 13.178 206.71 14.198 207.4 15.502 208.09 16.808 208.435 18.315 208.435 20.025L208.435 34.695 200.605 34.695 200.605 20.835C200.605 19.875 200.342 19.11 199.818 18.54 199.292 17.97 198.625 17.685 197.815 17.685 196.825 17.685 196.03 18 195.43 18.63 194.83 19.26 194.53 20.22 194.53 21.51L194.53 34.695 186.7 34.695 186.7 20.835C186.7 19.875 186.445 19.11 185.935 18.54 185.425 17.97 184.735 17.685 183.865 17.685 182.905 17.685 182.125 18 181.525 18.63 180.925 19.26 180.625 20.22 180.625 21.51M224.365 16.875C221.815 16.875 220.285 18.225 219.775 20.925L228.505 20.925C228.295 19.456 227.792 18.413 226.997 17.797 226.202 17.183 225.325 16.875 224.365 16.875zM235.075 32.355C233.934 33.165 232.487 33.855 230.732 34.425 228.977 34.995 227.11 35.28 225.13 35.28 222.4 35.28 220.067 34.777 218.132 33.772 216.198 32.768 214.712 31.365 213.678 29.565 212.642 27.765 212.125 25.695 212.125 23.355 212.125 20.986 212.635 18.885 213.655 17.055 214.674 15.226 216.085 13.792 217.885 12.757 219.685 11.723 221.784 11.205 224.185 11.205 226.525 11.205 228.587 11.707 230.372 12.712 232.157 13.718 233.552 15.113 234.557 16.897 235.562 18.683 236.065 20.775 236.065 23.175 236.065 23.505 236.043 23.85 235.997 24.21 235.952 24.57 235.9 24.946 235.84 25.335L219.865 25.335C220.585 27.975 222.549 29.295 225.76 29.295 227.2 29.295 228.475 29.07 229.585 28.62 230.694 28.17 231.625 27.72 232.375 27.27L235.075 32.355zM247.9 25.83L247.9 34.695 240.07 34.695 240.07 11.79 247.225 11.79 247.72 15.615C248.199 14.385 248.987 13.387 250.082 12.623 251.177 11.858 252.445 11.475 253.885 11.475 254.695 11.475 255.309 11.581 255.73 11.79L255.73 18.945C255.399 18.826 255.032 18.736 254.627 18.675 254.222 18.615 253.764 18.585 253.255 18.585 251.695 18.585 250.412 19.163 249.407 20.318 248.402 21.473 247.9 23.31 247.9 25.83M275.844 32.895C274.464 36.435 272.889 39.075 271.119 40.815 269.348 42.555 267.098 43.425 264.369 43.425 263.139 43.425 262.029 43.29 261.039 43.02 260.049 42.75 259.209 42.419 258.519 42.03L260.724 36.63C261.144 36.839 261.609 37.019 262.119 37.17 262.629 37.32 263.169 37.395 263.739 37.395 264.549 37.395 265.276 37.2 265.922 36.81 266.566 36.42 267.129 35.714 267.609 34.695L267.969 33.885 257.619 11.79 266.259 11.79 271.344 25.515 275.529 11.79 284.034 11.79 275.844 32.895"/>
    <path fill="#404040" d="M308.243 22.77L315.488 22.77 311.888 12.06 308.243 22.77zM319.538 34.695L317.603 28.98 306.128 28.98 304.193 34.695 295.913 34.695 307.118 4.095 316.838 4.095 328.043 34.695 319.538 34.695zM341.813 29.07C343.163 29.07 344.25 28.538 345.076 27.473 345.9 26.408 346.313 24.991 346.313 23.22 346.313 21.45 345.9 20.033 345.076 18.967 344.25 17.903 343.163 17.37 341.813 17.37 340.433 17.37 339.33 17.903 338.506 18.967 337.68 20.033 337.268 21.45 337.268 23.22 337.268 24.991 337.68 26.408 338.506 27.473 339.33 28.538 340.433 29.07 341.813 29.07zM346.853 34.695L346.448 31.68C345.728 32.79 344.798 33.667 343.658 34.312 342.517 34.957 341.198 35.28 339.698 35.28 337.628 35.28 335.813 34.769 334.253 33.75 332.693 32.73 331.478 31.313 330.608 29.498 329.738 27.683 329.303 25.59 329.303 23.22 329.303 20.851 329.738 18.765 330.608 16.965 331.478 15.165 332.67 13.755 334.185 12.735 335.7 11.715 337.448 11.205 339.428 11.205 340.807 11.205 342.083 11.498 343.253 12.082 344.423 12.667 345.398 13.455 346.178 14.445L346.178 1.845 354.008 1.845 354.008 34.695 346.853 34.695z"/>
    <polyline fill="#404040" points="383.483 11.79 374.618 34.695 366.068 34.695 357.203 11.79 365.798 11.79 370.478 26.595 375.068 11.79 383.483 11.79"/>
    <path fill="#404040" d="M396.847 16.875C394.297 16.875 392.767 18.225 392.258 20.925L400.988 20.925C400.777 19.456 400.275 18.413 399.48 17.797 398.685 17.183 397.807 16.875 396.847 16.875zM407.557 32.355C406.417 33.165 404.97 33.855 403.215 34.425 401.46 34.995 399.593 35.28 397.613 35.28 394.882 35.28 392.55 34.777 390.615 33.772 388.68 32.768 387.195 31.365 386.16 29.565 385.125 27.765 384.608 25.695 384.608 23.355 384.608 20.986 385.117 18.885 386.138 17.055 387.157 15.226 388.568 13.792 390.367 12.757 392.167 11.723 394.267 11.205 396.667 11.205 399.008 11.205 401.07 11.707 402.855 12.712 404.639 13.718 406.034 15.113 407.04 16.897 408.045 18.683 408.548 20.775 408.548 23.175 408.548 23.505 408.525 23.85 408.48 24.21 408.435 24.57 408.382 24.946 408.323 25.335L392.347 25.335C393.068 27.975 395.032 29.295 398.242 29.295 399.682 29.295 400.957 29.07 402.068 28.62 403.177 28.17 404.107 27.72 404.858 27.27L407.557 32.355zM420.382 25.83L420.382 34.695 412.553 34.695 412.553 11.79 419.707 11.79 420.202 15.615C420.682 14.385 421.47 13.387 422.565 12.623 423.659 11.858 424.928 11.475 426.367 11.475 427.178 11.475 427.792 11.581 428.212 11.79L428.212 18.945C427.882 18.826 427.515 18.736 427.11 18.675 426.705 18.615 426.247 18.585 425.737 18.585 424.177 18.585 422.894 19.163 421.89 20.318 420.885 21.473 420.382 23.31 420.382 25.83M449.317 33.21C448.387 33.84 447.321 34.343 446.122 34.717 444.922 35.092 443.661 35.28 442.342 35.28 439.882 35.28 437.924 34.568 436.469 33.143 435.014 31.718 434.287 29.805 434.287 27.405L434.287 17.64 430.552 17.64 430.552 11.79 434.647 11.79 435.637 5.4 442.117 5.4 442.117 11.79 448.102 11.79 448.102 17.64 442.117 17.64 442.117 26.415C442.117 27.196 442.349 27.803 442.814 28.238 443.279 28.673 443.901 28.89 444.682 28.89 445.071 28.89 445.469 28.815 445.874 28.665 446.279 28.515 446.662 28.335 447.022 28.125L449.317 33.21M453.052 34.695L453.052 11.79C454.311 12.06 455.586 12.195 456.876 12.195 458.196 12.195 459.532 12.06 460.881 11.79L460.881 34.695 453.052 34.695M474.876 35.28C472.896 35.28 471.043 34.965 469.318 34.335 467.593 33.705 466.04 32.805 464.661 31.635L467.991 27.225C469.04 28.065 470.173 28.748 471.388 29.272 472.603 29.798 473.796 30.06 474.966 30.06 475.745 30.06 476.368 29.925 476.833 29.655 477.298 29.385 477.531 28.98 477.531 28.44 477.531 27.871 477.268 27.413 476.743 27.068 476.218 26.723 475.281 26.385 473.931 26.055L471.771 25.515C467.48 24.375 465.336 22.081 465.336 18.63 465.336 17.1 465.756 15.78 466.596 14.67 467.435 13.561 468.591 12.706 470.061 12.105 471.53 11.505 473.241 11.205 475.191 11.205 477.11 11.205 478.918 11.505 480.613 12.105 482.308 12.706 483.86 13.575 485.271 14.715L481.851 19.215C480.8 18.375 479.691 17.701 478.521 17.19 477.351 16.68 476.255 16.425 475.236 16.425 473.586 16.425 472.761 16.965 472.761 18.045 472.761 18.525 473.008 18.915 473.503 19.215 473.998 19.515 474.696 19.786 475.596 20.025L478.521 20.835C480.71 21.436 482.33 22.335 483.381 23.535 484.43 24.735 484.956 26.161 484.956 27.81 484.956 29.31 484.535 30.623 483.696 31.748 482.856 32.873 481.678 33.743 480.163 34.358 478.648 34.972 476.886 35.28 474.876 35.28M500.076 16.875C497.525 16.875 495.995 18.225 495.486 20.925L504.216 20.925C504.005 19.456 503.503 18.413 502.708 17.797 501.913 17.183 501.035 16.875 500.076 16.875zM510.785 32.355C509.645 33.165 508.198 33.855 506.443 34.425 504.688 34.995 502.821 35.28 500.841 35.28 498.111 35.28 495.778 34.777 493.843 33.772 491.908 32.768 490.423 31.365 489.388 29.565 488.353 27.765 487.836 25.695 487.836 23.355 487.836 20.986 488.346 18.885 489.366 17.055 490.385 15.226 491.796 13.792 493.596 12.757 495.396 11.723 497.495 11.205 499.896 11.205 502.236 11.205 504.298 11.707 506.083 12.712 507.867 13.718 509.263 15.113 510.268 16.897 511.273 18.683 511.776 20.775 511.776 23.175 511.776 23.505 511.753 23.85 511.708 24.21 511.663 24.57 511.611 24.946 511.551 25.335L495.576 25.335C496.296 27.975 498.26 29.295 501.471 29.295 502.91 29.295 504.185 29.07 505.296 28.62 506.405 28.17 507.335 27.72 508.086 27.27L510.785 32.355zM523.611 25.83L523.611 34.695 515.781 34.695 515.781 11.79 522.935 11.79 523.43 15.615C523.91 14.385 524.698 13.387 525.793 12.623 526.888 11.858 528.156 11.475 529.596 11.475 530.406 11.475 531.02 11.581 531.44 11.79L531.44 18.945C531.11 18.826 530.743 18.736 530.338 18.675 529.933 18.615 529.475 18.585 528.966 18.585 527.405 18.585 526.123 19.163 525.118 20.318 524.113 21.473 523.611 23.31 523.611 25.83M375.754 44.473L376.951 44.473C377.344 44.473 377.656 44.376 377.885 44.182 378.113 43.989 378.228 43.725 378.228 43.39 378.228 43.055 378.113 42.791 377.885 42.597 377.656 42.403 377.344 42.307 376.951 42.307L375.754 42.307 375.754 44.473zM374.864 47.546L374.864 41.558 376.951 41.558C377.62 41.558 378.152 41.723 378.545 42.051 378.938 42.38 379.135 42.826 379.135 43.39 379.135 43.948 378.938 44.389 378.545 44.715 378.152 45.041 377.62 45.203 376.951 45.203L375.754 45.203 375.754 47.546 374.864 47.546zM380.931 45.292L383.115 45.292 382.023 42.483 380.931 45.292zM383.987 47.546L383.406 46.04 380.641 46.04 380.06 47.546 379.161 47.546 381.556 41.558 382.516 41.558 384.903 47.546 383.987 47.546zM386.787 44.385L388.011 44.385C388.392 44.385 388.696 44.291 388.922 44.103 389.148 43.915 389.261 43.663 389.261 43.346 389.261 43.029 389.148 42.777 388.922 42.588 388.696 42.401 388.392 42.307 388.011 42.307L386.787 42.307 386.787 44.385zM386.787 45.116L386.787 47.546 385.897 47.546 385.897 41.558 388.011 41.558C388.674 41.558 389.199 41.718 389.587 42.038 389.974 42.359 390.168 42.794 390.168 43.346 390.168 43.763 390.051 44.115 389.816 44.402 389.581 44.69 389.258 44.893 388.847 45.01L390.3 47.546 389.287 47.546 387.923 45.116 386.787 45.116z"/>
    <polyline fill="#404040" points="392.722 47.546 392.722 42.307 390.705 42.307 390.705 41.558 395.628 41.558 395.628 42.307 393.611 42.307 393.611 47.546 392.722 47.546"/>
    <path fill="#404040" d="M401.342,46.868 C401.73,46.868 402.074,46.77 402.377,46.573 C402.679,46.377 402.915,46.105 403.086,45.759 C403.256,45.412 403.341,45.01 403.341,44.552 C403.341,44.094 403.256,43.692 403.086,43.346 C402.915,42.999 402.679,42.728 402.377,42.531 C402.074,42.334 401.73,42.236 401.342,42.236 C400.955,42.236 400.611,42.334 400.312,42.531 C400.013,42.728 399.778,42.999 399.608,43.346 C399.437,43.692 399.352,44.094 399.352,44.552 C399.352,45.01 399.437,45.412 399.608,45.759 C399.778,46.105 400.013,46.377 400.312,46.573 C400.611,46.77 400.955,46.868 401.342,46.868 Z M401.342,47.643 C400.779,47.643 400.28,47.511 399.845,47.247 C399.411,46.982 399.069,46.618 398.819,46.155 C398.57,45.691 398.445,45.157 398.445,44.552 C398.445,43.948 398.57,43.414 398.819,42.949 C399.069,42.486 399.411,42.122 399.845,41.858 C400.28,41.594 400.779,41.461 401.342,41.461 C401.906,41.461 402.406,41.594 402.844,41.858 C403.281,42.122 403.624,42.486 403.874,42.949 C404.123,43.414 404.248,43.948 404.248,44.552 C404.248,45.157 404.123,45.691 403.874,46.155 C403.624,46.618 403.281,46.982 402.844,47.247 C402.406,47.511 401.906,47.643 401.342,47.643 Z"/>
    <polyline fill="#404040" points="406.388 47.546 405.498 47.546 405.498 41.558 409.223 41.558 409.223 42.307 406.388 42.307 406.388 44.332 408.792 44.332 408.792 45.08 406.388 45.08 406.388 47.546"/>
    <polyline fill="#404040" points="413.863 47.546 413.863 42.307 411.847 42.307 411.847 41.558 416.769 41.558 416.769 42.307 414.753 42.307 414.753 47.546 413.863 47.546"/>
    <polyline fill="#404040" points="417.791 47.546 417.791 41.558 418.68 41.558 418.68 44.121 421.771 44.121 421.771 41.558 422.66 41.558 422.66 47.546 421.771 47.546 421.771 44.887 418.68 44.887 418.68 47.546 417.791 47.546"/>
    <polyline fill="#404040" points="424.227 47.546 424.227 41.558 428.067 41.558 428.067 42.307 425.117 42.307 425.117 44.156 427.715 44.156 427.715 44.904 425.117 44.904 425.117 46.797 428.137 46.797 428.137 47.546 424.227 47.546"/>
    <path fill="#404040" d="M433.755 46.868C434.242 46.868 434.625 46.721 434.904 46.428 435.183 46.135 435.322 45.738 435.322 45.239L435.322 41.558 436.212 41.558 436.212 45.248C436.212 45.994 435.993 46.579 435.556 47.005 435.118 47.43 434.518 47.643 433.755 47.643 432.992 47.643 432.393 47.43 431.959 47.005 431.524 46.579 431.307 45.994 431.307 45.248L431.307 41.558 432.196 41.558 432.196 45.239C432.196 45.738 432.336 46.135 432.615 46.428 432.893 46.721 433.273 46.868 433.755 46.868M439.531 47.643C439.079 47.643 438.648 47.563 438.237 47.405 437.826 47.247 437.494 47.035 437.242 46.771L437.743 46.181C437.978 46.398 438.256 46.569 438.576 46.692 438.896 46.815 439.214 46.877 439.531 46.877 439.918 46.877 440.231 46.802 440.469 46.652 440.707 46.503 440.826 46.296 440.826 46.031 440.826 45.791 440.74 45.589 440.57 45.424 440.4 45.259 440.109 45.122 439.698 45.01L438.871 44.79C438.337 44.649 437.947 44.45 437.704 44.191 437.46 43.933 437.339 43.595 437.339 43.179 437.339 42.838 437.43 42.539 437.611 42.281 437.794 42.022 438.044 41.821 438.365 41.677 438.684 41.533 439.047 41.461 439.452 41.461 439.88 41.461 440.282 41.542 440.658 41.703 441.034 41.865 441.366 42.09 441.653 42.377L441.116 42.958C440.863 42.723 440.601 42.543 440.328 42.417 440.055 42.29 439.766 42.227 439.461 42.227 439.091 42.227 438.788 42.305 438.554 42.461 438.319 42.616 438.202 42.832 438.202 43.108 438.202 43.36 438.285 43.557 438.452 43.698 438.62 43.839 438.876 43.956 439.223 44.05L440.147 44.306C440.682 44.452 441.072 44.658 441.319 44.922 441.565 45.186 441.688 45.515 441.688 45.908 441.688 46.255 441.597 46.559 441.415 46.82 441.234 47.081 440.981 47.283 440.658 47.427 440.335 47.571 439.959 47.643 439.531 47.643M443.925 45.292L446.109 45.292 445.017 42.483 443.925 45.292zM446.981 47.546L446.399 46.04 443.634 46.04 443.053 47.546 442.155 47.546 444.55 41.558 445.51 41.558 447.896 47.546 446.981 47.546z"/>
    <polyline fill="#404040" points="452.035 47.546 452.035 42.307 450.018 42.307 450.018 41.558 454.941 41.558 454.941 42.307 452.924 42.307 452.924 47.546 452.035 47.546"/>
    <path fill="#404040" d="M458.146 46.868C458.533 46.868 458.878 46.77 459.18 46.573 459.483 46.377 459.719 46.105 459.889 45.759 460.06 45.412 460.145 45.01 460.145 44.552 460.145 44.094 460.06 43.692 459.889 43.346 459.719 42.999 459.483 42.728 459.18 42.531 458.878 42.334 458.533 42.236 458.146 42.236 457.758 42.236 457.415 42.334 457.116 42.531 456.816 42.728 456.581 42.999 456.411 43.346 456.241 43.692 456.156 44.094 456.156 44.552 456.156 45.01 456.241 45.412 456.411 45.759 456.581 46.105 456.816 46.377 457.116 46.573 457.415 46.77 457.758 46.868 458.146 46.868zM458.146 47.643C457.582 47.643 457.083 47.511 456.649 47.247 456.214 46.982 455.873 46.618 455.623 46.155 455.374 45.691 455.249 45.157 455.249 44.552 455.249 43.948 455.374 43.414 455.623 42.949 455.873 42.486 456.214 42.122 456.649 41.858 457.083 41.594 457.582 41.461 458.146 41.461 458.709 41.461 459.21 41.594 459.647 41.858 460.085 42.122 460.428 42.486 460.677 42.949 460.927 43.414 461.052 43.948 461.052 44.552 461.052 45.157 460.927 45.691 460.677 46.155 460.428 46.618 460.085 46.982 459.647 47.247 459.21 47.511 458.709 47.643 458.146 47.643zM463.192 46.797L464.407 46.797C464.829 46.797 465.192 46.705 465.494 46.52 465.796 46.335 466.028 46.075 466.19 45.741 466.351 45.406 466.432 45.01 466.432 44.552 466.432 44.094 466.351 43.698 466.19 43.364 466.028 43.029 465.796 42.769 465.494 42.584 465.192 42.399 464.829 42.307 464.407 42.307L463.192 42.307 463.192 46.797zM462.302 47.546L462.302 41.558 464.407 41.558C464.993 41.558 465.507 41.683 465.948 41.933 466.388 42.182 466.73 42.531 466.973 42.98 467.217 43.43 467.339 43.953 467.339 44.552 467.339 45.151 467.217 45.675 466.973 46.124 466.73 46.573 466.388 46.922 465.948 47.172 465.507 47.421 464.993 47.546 464.407 47.546L462.302 47.546zM469.611 45.292L471.794 45.292 470.703 42.483 469.611 45.292zM472.666 47.546L472.085 46.04 469.32 46.04 468.739 47.546 467.841 47.546 470.236 41.558 471.196 41.558 473.582 47.546 472.666 47.546z"/>
    <polyline fill="#404040" points="476.312 45.168 476.312 47.546 475.422 47.546 475.422 45.168 473.318 41.558 474.366 41.558 475.871 44.323 477.377 41.558 478.407 41.558 476.312 45.168"/>
    <polyline fill="#404040" points="485.522 47.546 482.326 42.958 482.326 47.546 481.489 47.546 481.489 41.558 482.317 41.558 485.522 46.146 485.522 41.558 486.35 41.558 486.35 47.546 485.522 47.546"/>
    <polyline fill="#404040" points="487.917 47.546 487.917 41.558 491.756 41.558 491.756 42.307 488.806 42.307 488.806 44.156 491.404 44.156 491.404 44.904 488.806 44.904 488.806 46.797 491.827 46.797 491.827 47.546 487.917 47.546"/>
    <polyline fill="#404040" points="494.468 47.546 494.468 42.307 492.452 42.307 492.452 41.558 497.374 41.558 497.374 42.307 495.358 42.307 495.358 47.546 494.468 47.546"/>
    <polyline fill="#404040" points="503.186 47.546 501.786 42.773 500.385 47.546 499.461 47.546 497.867 41.558 498.748 41.558 499.963 46.296 501.363 41.558 502.208 41.558 503.617 46.313 504.841 41.558 505.704 41.558 504.11 47.546 503.186 47.546"/>
    <path fill="#404040" d="M509.235 46.868C509.622 46.868 509.967 46.77 510.27 46.573 510.572 46.377 510.808 46.105 510.979 45.759 511.149 45.412 511.234 45.01 511.234 44.552 511.234 44.094 511.149 43.692 510.979 43.346 510.808 42.999 510.572 42.728 510.27 42.531 509.967 42.334 509.622 42.236 509.235 42.236 508.847 42.236 508.504 42.334 508.205 42.531 507.905 42.728 507.67 42.999 507.5 43.346 507.33 43.692 507.245 44.094 507.245 44.552 507.245 45.01 507.33 45.412 507.5 45.759 507.67 46.105 507.905 46.377 508.205 46.573 508.504 46.77 508.847 46.868 509.235 46.868zM509.235 47.643C508.672 47.643 508.173 47.511 507.738 47.247 507.304 46.982 506.962 46.618 506.712 46.155 506.463 45.691 506.338 45.157 506.338 44.552 506.338 43.948 506.463 43.414 506.712 42.949 506.962 42.486 507.304 42.122 507.738 41.858 508.173 41.594 508.672 41.461 509.235 41.461 509.799 41.461 510.299 41.594 510.736 41.858 511.174 42.122 511.517 42.486 511.766 42.949 512.016 43.414 512.141 43.948 512.141 44.552 512.141 45.157 512.016 45.691 511.766 46.155 511.517 46.618 511.174 46.982 510.736 47.247 510.299 47.511 509.799 47.643 509.235 47.643zM514.281 44.385L515.505 44.385C515.886 44.385 516.19 44.291 516.416 44.103 516.642 43.915 516.755 43.663 516.755 43.346 516.755 43.029 516.642 42.777 516.416 42.588 516.19 42.401 515.886 42.307 515.505 42.307L514.281 42.307 514.281 44.385zM514.281 45.116L514.281 47.546 513.391 47.546 513.391 41.558 515.505 41.558C516.168 41.558 516.693 41.718 517.081 42.038 517.468 42.359 517.662 42.794 517.662 43.346 517.662 43.763 517.544 44.115 517.31 44.402 517.075 44.69 516.752 44.893 516.341 45.01L517.794 47.546 516.781 47.546 515.417 45.116 514.281 45.116z"/>
    <polyline fill="#404040" points="522.496 47.546 519.81 44.526 519.81 47.546 518.921 47.546 518.921 41.558 519.81 41.558 519.81 44.182 522.32 41.558 523.42 41.558 520.752 44.306 523.614 47.546 522.496 47.546"/>
    <path fill="#009BFF" class='no-color-change' d="M456.876,9.99 C455.586,9.99 454.484,9.533 453.569,8.618 C452.653,7.703 452.196,6.6 452.196,5.31 C452.196,4.02 452.653,2.918 453.569,2.002 C454.484,1.088 455.586,0.63 456.876,0.63 C458.165,0.63 459.268,1.088 460.184,2.002 C461.099,2.918 461.556,4.02 461.556,5.31 C461.556,6.6 461.099,7.703 460.184,8.618 C459.268,9.533 458.165,9.99 456.876,9.99"/>
  </g>
</svg>
