<svg height="47" viewBox="0 0 274 47" width="274" xmlns="http://www.w3.org/2000/svg">
  <g fill="none" fill-rule="evenodd">
    <g fill="#404040"><path
      d="m131.575 43.603h1.148c.377 0 .675-.092.895-.278.219-.185.328-.439.328-.759 0-.321-.109-.574-.328-.76-.22-.186-.518-.279-.895-.279h-1.148zm-.852 2.946v-5.739h2c.641 0 1.15.158 1.528.473.376.315.565.742.565 1.283 0 .534-.189.957-.565 1.269-.378.313-.887.469-1.528.469h-1.148v2.245zm5.814-2.16h2.093l-1.046-2.693zm2.928 2.16-.556-1.443h-2.651l-.556 1.443h-.861l2.295-5.739h.92l2.287 5.739zm2.684-3.03h1.174c.365 0 .656-.09.873-.27.216-.18.324-.422.324-.726s-.108-.545-.324-.726c-.217-.18-.508-.27-.873-.27h-1.174zm0 .7v2.33h-.852v-5.739h2.026c.635 0 1.138.154 1.51.46.372.307.557.725.557 1.253 0 .4-.112.737-.338 1.013-.225.276-.534.47-.928.582l1.393 2.431h-.971l-1.308-2.33z"/><path d="m147.837 46.549v-5.022h-1.933v-.717h4.718v.717h-1.932v5.022z"/><path
      d="m156.098 45.899c.372 0 .702-.094.992-.283s.517-.448.68-.781c.163-.331.244-.717.244-1.156 0-.438-.081-.824-.244-1.156s-.39-.592-.68-.78c-.29-.189-.62-.283-.992-.283-.371 0-.7.094-.987.283-.287.188-.512.448-.675.78s-.245.718-.245 1.156c0 .439.082.825.245 1.156.163.333.388.592.675.781s.616.283.987.283zm0 .743c-.54 0-1.018-.127-1.434-.38-.417-.253-.744-.602-.983-1.047-.239-.444-.359-.956-.359-1.536 0-.579.12-1.091.359-1.536.239-.444.566-.793.983-1.046.416-.253.894-.38 1.434-.38.541 0 1.02.127 1.439.38.42.253.749.602.988 1.046.239.445.359.957.359 1.536 0 .58-.12 1.092-.359 1.536-.239.445-.568.794-.988 1.047-.419.253-.898.38-1.439.38z"/><path d="m160.934 46.549h-.852v-5.739h3.57v.717h-2.718v1.941h2.304v.718h-2.304z"/><path d="m168.099 46.549v-5.022h-1.933v-.717h4.718v.717h-1.933v5.022z"/><path d="m171.863 46.549v-5.739h.852v2.456h2.962v-2.456h.852v5.739h-.852v-2.549h-2.962v2.549z"/><path d="m178.032 46.549v-5.739h3.679v.717h-2.827v1.773h2.49v.717h-2.49v1.814h2.895v.718z"/><path
      d="m187.162 45.899c.467 0 .834-.141 1.102-.422.267-.281.401-.661.401-1.14v-3.527h.852v3.536c0 .715-.21 1.276-.628 1.683-.42.409-.995.613-1.727.613-.731 0-1.305-.204-1.721-.613-.416-.407-.624-.968-.624-1.683v-3.536h.852v3.527c0 .479.134.859.401 1.14s.631.422 1.092.422m5.537.743c-.434 0-.847-.076-1.241-.229-.393-.151-.711-.354-.953-.607l.481-.565c.225.208.491.371.797.489.307.118.612.177.916.177.371 0 .671-.072.899-.215.227-.143.342-.342.342-.595 0-.231-.082-.425-.245-.582-.164-.157-.442-.29-.836-.397l-.793-.211c-.512-.135-.885-.326-1.118-.574-.233-.247-.35-.571-.35-.97 0-.326.087-.613.261-.861.174-.247.415-.44.722-.578.306-.138.654-.207 1.042-.207.411 0 .796.077 1.156.233.36.154.678.369.954.645l-.515.557c-.242-.225-.494-.398-.755-.519-.262-.121-.539-.181-.832-.181-.354 0-.644.074-.869.223s-.337.356-.337.62c0 .243.08.431.24.566s.407.248.739.338l.886.244c.512.141.886.338 1.122.591s.354.568.354.945c0 .332-.087.623-.261.873-.174.251-.417.445-.726.583-.309.137-.669.207-1.08.207m4.211-2.253h2.093l-1.047-2.693zm2.928 2.16-.557-1.443h-2.65l-.557 1.443h-.86l2.295-5.739h.92l2.287 5.739z"/><path d="m204.682 46.549v-5.022h-1.932v-.717h4.717v.717h-1.932v5.022z"/><path
      d="m210.539 45.899c.371 0 .701-.094.992-.283.289-.189.516-.448.679-.781.163-.331.245-.717.245-1.156 0-.438-.082-.824-.245-1.156s-.39-.592-.679-.78c-.291-.189-.621-.283-.992-.283-.372 0-.7.094-.988.283-.286.188-.512.448-.675.78s-.244.718-.244 1.156c0 .439.081.825.244 1.156.163.333.389.592.675.781.288.189.616.283.988.283zm0 .743c-.54 0-1.019-.127-1.435-.38s-.744-.602-.983-1.047c-.239-.444-.359-.956-.359-1.536 0-.579.12-1.091.359-1.536.239-.444.567-.793.983-1.046s.895-.38 1.435-.38 1.02.127 1.438.38c.42.253.749.602.988 1.046.239.445.359.957.359 1.536 0 .58-.12 1.092-.359 1.536-.239.445-.568.794-.988 1.047-.418.253-.898.38-1.438.38zm4.835-.811h1.165c.405 0 .753-.088 1.042-.265.29-.177.512-.426.667-.747s.232-.701.232-1.14c0-.438-.077-.818-.232-1.139s-.377-.57-.667-.747c-.289-.177-.637-.266-1.042-.266h-1.165zm-.852.718v-5.739h2.017c.563 0 1.055.12 1.477.359s.75.574.983 1.004c.234.43.351.932.351 1.506s-.117 1.077-.351 1.507c-.233.43-.561.765-.983 1.004s-.914.359-1.477.359zm7.005-2.16h2.092l-1.046-2.693zm2.928 2.16-.557-1.443h-2.65l-.557 1.443h-.861l2.296-5.739h.919l2.288 5.739z"/><path d="m227.949 44.27v2.279h-.853v-2.279l-2.017-3.46h1.005l1.443 2.65 1.443-2.65h.987z"/><path d="m236.775 46.549-3.063-4.397v4.397h-.802v-5.739h.793l3.072 4.396v-4.396h.794v5.739z"/><path d="m239.071 46.549v-5.739h3.68v.717h-2.828v1.773h2.49v.717h-2.49v1.814h2.895v.718z"/><path d="m245.35 46.549v-5.022h-1.933v-.717h4.718v.717h-1.933v5.022z"/><path d="m253.705 46.549-1.342-4.574-1.343 4.574h-.885l-1.528-5.739h.844l1.165 4.54 1.342-4.54h.81l1.35 4.557 1.173-4.557h.827l-1.528 5.739z"/><path
      d="m259.502 45.899c.372 0 .702-.094.992-.283s.516-.448.679-.781c.164-.331.245-.717.245-1.156 0-.438-.081-.824-.245-1.156-.163-.332-.389-.592-.679-.78-.29-.189-.62-.283-.992-.283-.371 0-.7.094-.987.283-.287.188-.512.448-.675.78s-.245.718-.245 1.156c0 .439.082.825.245 1.156.163.333.388.592.675.781s.616.283.987.283zm0 .743c-.54 0-1.018-.127-1.435-.38-.416-.253-.743-.602-.982-1.047-.24-.444-.359-.956-.359-1.536 0-.579.119-1.091.359-1.536.239-.444.566-.793.982-1.046.417-.253.895-.38 1.435-.38.541 0 1.02.127 1.439.38s.749.602.988 1.046c.238.445.358.957.358 1.536 0 .58-.12 1.092-.358 1.536-.239.445-.569.794-.988 1.047s-.898.38-1.439.38zm4.835-3.123h1.174c.365 0 .657-.09.873-.27s.325-.422.325-.726-.109-.545-.325-.726c-.216-.18-.508-.27-.873-.27h-1.174zm0 .7v2.33h-.852v-5.739h2.026c.635 0 1.139.154 1.51.46.372.307.557.725.557 1.253 0 .4-.112.737-.337 1.013-.226.276-.535.47-.929.582l1.393 2.431h-.971l-1.308-2.33z"/><path d="m272.211 46.549-2.574-2.895v2.895h-.852v-5.739h.852v2.515l2.405-2.515h1.055l-2.557 2.633 2.743 3.106z"/><path
      d="m8.499 27.529h3.825c2.189 0 3.922-.794 5.197-2.385 1.275-1.59 1.913-3.69 1.913-6.3s-.638-4.709-1.913-6.3c-1.275-1.59-3.008-2.385-5.197-2.385h-3.825zm-8.235 6.615v-30.6h12.06c3.029 0 5.707.653 8.032 1.957 2.325 1.306 4.147 3.106 5.468 5.401 1.32 2.295 1.98 4.943 1.98 7.942 0 3-.66 5.648-1.98 7.942-1.321 2.295-3.143 4.096-5.468 5.401s-5.003 1.957-8.032 1.957zm38.069-7.425c0 .691.255 1.253.765 1.688s1.17.652 1.98.652c1.08 0 1.987-.367 2.723-1.103.735-.734 1.102-1.657 1.102-2.767v-.765c-.81-.15-1.665-.225-2.565-.225-1.14 0-2.092.196-2.857.585-.765.39-1.148 1.035-1.148 1.935zm6.885 7.425-.405-3.015c-1.5 2.401-3.78 3.6-6.84 3.6-1.35 0-2.572-.292-3.667-.877-1.096-.585-1.965-1.388-2.61-2.408-.646-1.019-.968-2.205-.968-3.555 0-2.549.997-4.529 2.993-5.94 1.995-1.41 4.627-2.115 7.897-2.115 1.02 0 2.1.09 3.24.27-.12-1.14-.607-2.002-1.462-2.587s-1.898-.878-3.128-.878c-1.08 0-2.167.203-3.262.607-1.096.406-2.138.894-3.128 1.463l-2.655-5.04c1.5-.96 3.12-1.702 4.86-2.227s3.48-.788 5.22-.788c2.1 0 3.99.36 5.67 1.08s3 1.816 3.96 3.285c.96 1.471 1.44 3.33 1.44 5.58v13.545zm12.15 0v-22.905c1.26.27 2.535.405 3.825.405 1.32 0 2.655-.135 4.005-.405v22.905z"/><path d="m70.688 34.144h7.83v-32.85h-7.83z"/><path
      d="m99.892 32.344c-1.38 3.54-2.955 6.18-4.725 7.92s-4.02 2.61-6.75 2.61c-1.23 0-2.34-.135-3.33-.405s-1.83-.601-2.52-.99l2.205-5.4c.42.209.885.39 1.395.541.51.149 1.05.224 1.62.224.81 0 1.537-.195 2.183-.585.645-.39 1.207-1.096 1.687-2.115l.36-.81-10.35-22.095h8.64l5.085 13.725 4.185-13.725h8.505z"/></g><path
      d="m130.806 17.629h4.5c1.29 0 2.31-.338 3.06-1.012.75-.675 1.125-1.598 1.125-2.768 0-1.109-.375-2.002-1.125-2.677-.75-.676-1.77-1.013-3.06-1.013h-4.5zm0 6.345v10.17h-8.1v-30.6h13.5c3.6 0 6.45.923 8.55 2.768 2.099 1.845 3.15 4.357 3.15 7.537 0 2.07-.465 3.855-1.395 5.355s-2.235 2.67-3.915 3.51l6.255 11.43h-8.91l-5.085-10.17zm32.311-7.65c-2.551 0-4.081 1.35-4.591 4.05h8.73c-.21-1.469-.713-2.512-1.507-3.128-.795-.614-1.673-.922-2.632-.922zm10.71 15.48c-1.141.81-2.588 1.501-4.343 2.07-1.755.57-3.623.855-5.603.855-2.73 0-5.062-.503-6.997-1.507-1.935-1.005-3.42-2.408-4.455-4.208s-1.553-3.87-1.553-6.21c0-2.369.51-4.47 1.53-6.3 1.02-1.829 2.43-3.262 4.231-4.298 1.8-1.034 3.899-1.552 6.3-1.552 2.339 0 4.402.503 6.187 1.508s3.18 2.4 4.185 4.185 1.507 3.878 1.507 6.277c0 .33-.022.675-.067 1.035s-.098.736-.158 1.125h-15.974c.719 2.64 2.684 3.961 5.895 3.961 1.44 0 2.714-.226 3.824-.676 1.11-.449 2.04-.9 2.79-1.35zm15.704 2.925c-2.34 0-4.417-.503-6.232-1.507-1.816-1.005-3.248-2.408-4.298-4.208s-1.575-3.899-1.575-6.3c0-2.4.525-4.5 1.575-6.3s2.482-3.202 4.298-4.208c1.815-1.004 3.892-1.507 6.232-1.507 2.07 0 3.885.382 5.445 1.148 1.56.765 2.94 1.987 4.14 3.667l-5.175 3.78c-.42-.63-.967-1.147-1.642-1.552-.675-.406-1.403-.608-2.183-.608-1.35 0-2.475.503-3.375 1.508s-1.35 2.362-1.35 4.072.45 3.068 1.35 4.072c.9 1.006 2.025 1.508 3.375 1.508.78 0 1.508-.202 2.183-.607s1.222-.923 1.642-1.553l5.175 3.78c-1.2 1.681-2.58 2.903-4.14 3.667-1.56.766-3.375 1.148-5.445 1.148m24.21-6.21c1.38 0 2.482-.532 3.307-1.597s1.238-2.482 1.238-4.253c0-1.77-.413-3.179-1.238-4.23-.825-1.05-1.927-1.575-3.307-1.575s-2.483.525-3.307 1.575c-.826 1.051-1.238 2.46-1.238 4.23 0 1.771.412 3.188 1.238 4.253.824 1.065 1.927 1.597 3.307 1.597zm0 6.21c-2.46 0-4.628-.518-6.503-1.552-1.875-1.035-3.345-2.453-4.409-4.253-1.066-1.8-1.598-3.885-1.598-6.255 0-2.369.532-4.455 1.598-6.255 1.064-1.8 2.534-3.21 4.409-4.23s4.043-1.53 6.503-1.53 4.627.51 6.503 1.53c1.874 1.02 3.344 2.43 4.409 4.23s1.598 3.886 1.598 6.255c0 2.37-.533 4.455-1.598 6.255s-2.535 3.218-4.409 4.253c-1.876 1.034-4.043 1.552-6.503 1.552zm24.435-9.45v8.865h-7.83v-22.905h7.154l.496 3.825c.479-1.23 1.267-2.228 2.362-2.992 1.095-.765 2.363-1.148 3.803-1.148.81 0 1.424.106 1.845.315v7.155c-.331-.119-.698-.209-1.103-.27-.405-.06-.862-.09-1.372-.09-1.56 0-2.843.578-3.848 1.733s-1.507 2.992-1.507 5.512m22.724 3.24c1.35 0 2.437-.532 3.263-1.597.825-1.065 1.237-2.482 1.237-4.253 0-1.77-.412-3.187-1.237-4.253-.826-1.064-1.913-1.597-3.263-1.597-1.38 0-2.483.533-3.307 1.597-.825 1.066-1.238 2.483-1.238 4.253 0 1.771.413 3.188 1.238 4.253.824 1.065 1.927 1.597 3.307 1.597zm5.04 5.625-.404-3.015c-.721 1.111-1.651 1.988-2.79 2.633-1.141.645-2.461.967-3.96.967-2.071 0-3.886-.51-5.446-1.53-1.56-1.019-2.775-2.437-3.645-4.252s-1.304-3.908-1.304-6.278c0-2.369.434-4.455 1.304-6.255s2.063-3.21 3.578-4.23 3.263-1.53 5.243-1.53c1.379 0 2.654.293 3.824.878s2.145 1.372 2.926 2.362v-12.6h7.829v32.85zm-204.747-24.705c-1.29 0-2.393-.457-3.307-1.372-.916-.915-1.373-2.018-1.373-3.308 0-1.289.457-2.392 1.373-3.307.914-.915 2.017-1.373 3.307-1.373s2.392.458 3.308 1.373c.914.915 1.372 2.018 1.372 3.307 0 1.29-.458 2.393-1.372 3.308-.916.915-2.018 1.372-3.308 1.372"
      fill="#009bff" class='no-color-change'/></g>
</svg>