<svg xmlns="http://www.w3.org/2000/svg" width="327" height="49" viewBox="0 0 327 49">
  <g fill="none" fill-rule="evenodd">
    <path fill="#009BFF" class='no-color-change' d="M8.183 27.845L13.854 27.845C14.873 27.845 15.698 27.56 16.328 26.99 16.959 26.42 17.273 25.715 17.273 24.874 17.273 23.975 16.959 23.24 16.328 22.67 15.698 22.1 14.873 21.815 13.854 21.815L8.183 21.815 8.183 27.845zM8.183 15.785L13.089 15.785C14.078 15.785 14.858 15.523 15.428 14.997 15.998 14.473 16.283 13.76 16.283 12.86 16.283 11.99 15.983 11.3 15.383 10.789 14.783 10.28 13.988 10.025 12.999 10.025L8.183 10.025 8.183 15.785zM25.553 25.82C25.553 27.47 25.088 28.933 24.158 30.207 23.228 31.483 21.916 32.473 20.221 33.177 18.525 33.882 16.538 34.235 14.258 34.235L.398 34.235.398 3.635 13.673 3.635C16.973 3.635 19.575 4.348 21.481 5.773 23.386 7.198 24.339 9.14 24.339 11.6 24.339 13.304 23.911 14.762 23.056 15.973 22.201 17.185 21.128 18.075 19.839 18.642 21.578 19.185 22.966 20.087 24.001 21.352 25.036 22.616 25.553 24.105 25.553 25.82zM35.993 26.81C35.993 27.5 36.248 28.063 36.758 28.497 37.268 28.933 37.928 29.15 38.738 29.15 39.818 29.15 40.726 28.783 41.461 28.047 42.196 27.313 42.564 26.39 42.564 25.28L42.564 24.515C41.754 24.365 40.898 24.289 39.999 24.289 38.858 24.289 37.906 24.486 37.141 24.874 36.376 25.265 35.993 25.91 35.993 26.81zM42.879 34.235L42.473 31.22C40.973 33.621 38.693 34.82 35.633 34.82 34.283 34.82 33.061 34.528 31.966 33.943 30.871 33.358 30.001 32.555 29.356 31.535 28.711 30.515 28.388 29.33 28.388 27.98 28.388 25.43 29.385 23.451 31.381 22.039 33.376 20.63 36.008 19.925 39.278 19.925 40.298 19.925 41.378 20.015 42.519 20.195 42.398 19.055 41.911 18.193 41.056 17.608 40.201 17.023 39.158 16.73 37.928 16.73 36.848 16.73 35.761 16.932 34.666 17.337 33.57 17.743 32.528 18.23 31.539 18.8L28.883 13.76C30.383 12.8 32.003 12.058 33.743 11.533 35.483 11.008 37.223 10.744 38.964 10.744 41.063 10.744 42.953 11.105 44.633 11.825 46.313 12.545 47.633 13.64 48.593 15.11 49.553 16.58 50.033 18.44 50.033 20.69L50.033 34.235 42.879 34.235z"/>
    <polyline fill="#009BFF" class='no-color-change' points="69.968 34.235 65.828 27.89 61.643 34.235 52.643 34.235 61.148 22.4 53.318 11.329 62.318 11.329 65.828 16.775 69.383 11.329 78.383 11.329 70.508 22.31 78.968 34.235 69.968 34.235"/>
    <path fill="#009BFF" class='no-color-change' d="M98.993 32.749C98.063 33.38 96.997 33.882 95.798 34.257 94.598 34.632 93.338 34.82 92.018 34.82 89.558 34.82 87.6 34.108 86.145 32.682 84.69 31.258 83.963 29.345 83.963 26.945L83.963 17.18 80.228 17.18 80.228 11.329 84.323 11.329 85.313 4.94 91.793 4.94 91.793 11.329 97.778 11.329 97.778 17.18 91.793 17.18 91.793 25.955C91.793 26.736 92.025 27.343 92.49 27.778 92.955 28.212 93.577 28.43 94.358 28.43 94.747 28.43 95.145 28.355 95.55 28.205 95.955 28.055 96.338 27.875 96.698 27.664L98.993 32.749M112.898 16.414C110.347 16.414 108.817 17.765 108.308 20.465L117.038 20.465C116.827 18.995 116.325 17.952 115.53 17.337 114.735 16.723 113.858 16.414 112.898 16.414zM123.608 31.895C122.467 32.704 121.02 33.395 119.265 33.965 117.51 34.535 115.643 34.82 113.663 34.82 110.932 34.82 108.6 34.317 106.665 33.312 104.73 32.308 103.245 30.905 102.21 29.105 101.175 27.305 100.658 25.235 100.658 22.895 100.658 20.526 101.168 18.425 102.188 16.595 103.207 14.765 104.618 13.332 106.418 12.297 108.217 11.262 110.317 10.744 112.717 10.744 115.058 10.744 117.12 11.247 118.905 12.252 120.69 13.258 122.085 14.653 123.09 16.437 124.095 18.223 124.598 20.315 124.598 22.715 124.598 23.045 124.575 23.39 124.53 23.749 124.485 24.11 124.432 24.486 124.373 24.874L108.398 24.874C109.118 27.515 111.082 28.835 114.293 28.835 115.733 28.835 117.007 28.61 118.118 28.16 119.227 27.71 120.157 27.26 120.908 26.81L123.608 31.895zM136.432 25.369L136.432 34.235 128.603 34.235 128.603 11.329 135.757 11.329 136.253 15.155C136.732 13.925 137.52 12.927 138.615 12.163 139.71 11.398 140.978 11.015 142.418 11.015 143.228 11.015 143.842 11.12 144.262 11.329L144.262 18.485C143.932 18.366 143.565 18.276 143.16 18.215 142.755 18.155 142.297 18.124 141.787 18.124 140.227 18.124 138.944 18.702 137.94 19.858 136.935 21.013 136.432 22.85 136.432 25.369"/>
    <path fill="#404040" d="M167.256 27.845L172.927 27.845C173.946 27.845 174.772 27.56 175.401 26.99 176.031 26.42 176.347 25.715 176.347 24.874 176.347 23.975 176.031 23.24 175.401 22.67 174.772 22.1 173.946 21.815 172.927 21.815L167.256 21.815 167.256 27.845zM167.256 15.785L172.161 15.785C173.151 15.785 173.931 15.523 174.501 14.997 175.071 14.473 175.357 13.76 175.357 12.86 175.357 11.99 175.056 11.3 174.456 10.789 173.856 10.28 173.062 10.025 172.071 10.025L167.256 10.025 167.256 15.785zM184.626 25.82C184.626 27.47 184.161 28.933 183.232 30.207 182.301 31.483 180.988 32.473 179.294 33.177 177.599 33.882 175.611 34.235 173.331 34.235L159.471 34.235 159.471 3.635 172.746 3.635C176.046 3.635 178.649 4.348 180.554 5.773 182.459 7.198 183.411 9.14 183.411 11.6 183.411 13.304 182.984 14.762 182.129 15.973 181.274 17.185 180.201 18.075 178.911 18.642 180.65 19.185 182.039 20.087 183.074 21.352 184.109 22.616 184.626 24.105 184.626 25.82zM204.022 34.235L203.616 31.22C202.866 32.33 201.884 33.207 200.669 33.852 199.454 34.497 198.142 34.82 196.732 34.82 194.061 34.82 192.022 34.033 190.611 32.457 189.201 30.882 188.496 28.61 188.496 25.64L188.496 11.329 196.326 11.329 196.326 24.74C196.326 27.23 197.466 28.475 199.746 28.475 202.147 28.475 203.347 26.975 203.347 23.975L203.347 11.329 211.177 11.329 211.177 34.235 204.022 34.235"/>
    <polygon fill="#404040" points="216.666 34.235 224.496 34.235 224.496 1.385 216.666 1.385"/>
    <polygon fill="#404040" points="229.985 34.235 237.816 34.235 237.816 1.385 229.985 1.385"/>
    <path fill="#404040" d="M254.151 16.414C251.6 16.414 250.069 17.765 249.56 20.465L258.29 20.465C258.08 18.995 257.577 17.952 256.782 17.337 255.987 16.723 255.109 16.414 254.151 16.414zM264.86 31.895C263.72 32.704 262.273 33.395 260.518 33.965 258.763 34.535 256.895 34.82 254.915 34.82 252.185 34.82 249.853 34.317 247.917 33.312 245.983 32.308 244.497 30.905 243.463 29.105 242.428 27.305 241.91 25.235 241.91 22.895 241.91 20.526 242.42 18.425 243.44 16.595 244.459 14.765 245.87 13.332 247.67 12.297 249.47 11.262 251.569 10.744 253.97 10.744 256.31 10.744 258.372 11.247 260.157 12.252 261.943 13.258 263.337 14.653 264.343 16.437 265.348 18.223 265.85 20.315 265.85 22.715 265.85 23.045 265.827 23.39 265.782 23.749 265.737 24.11 265.685 24.486 265.625 24.874L249.651 24.874C250.37 27.515 252.334 28.835 255.545 28.835 256.985 28.835 258.26 28.61 259.37 28.16 260.48 27.71 261.41 27.26 262.16 26.81L264.86 31.895zM286.73 32.749C285.8 33.38 284.734 33.882 283.535 34.257 282.335 34.632 281.074 34.82 279.755 34.82 277.295 34.82 275.337 34.108 273.882 32.682 272.427 31.258 271.7 29.345 271.7 26.945L271.7 17.18 267.965 17.18 267.965 11.329 272.06 11.329 273.05 4.94 279.529 4.94 279.529 11.329 285.515 11.329 285.515 17.18 279.529 17.18 279.529 25.955C279.529 26.736 279.762 27.343 280.228 27.778 280.693 28.212 281.315 28.43 282.095 28.43 282.484 28.43 282.882 28.355 283.287 28.205 283.693 28.055 284.075 27.875 284.435 27.664L286.73 32.749M290.465 34.235L290.465 11.329C291.725 11.6 292.999 11.735 294.29 11.735 295.609 11.735 296.944 11.6 298.295 11.329L298.295 34.235 290.465 34.235M311.614 21.59L311.614 34.235 303.784 34.235 303.784 11.329 310.939 11.329 311.344 14.345C312.094 13.265 313.068 12.395 314.269 11.735 315.469 11.076 316.789 10.744 318.229 10.744 320.719 10.744 322.714 11.555 324.214 13.175 325.714 14.795 326.464 17.12 326.464 20.15L326.464 34.235 318.634 34.235 318.634 21.05C318.634 19.7 318.334 18.702 317.734 18.057 317.134 17.413 316.294 17.09 315.214 17.09 314.134 17.09 313.264 17.435 312.604 18.124 311.943 18.816 311.614 19.97 311.614 21.59M1.31 45.098L2.649 45.098C3.089 45.098 3.437 44.991 3.693 44.774 3.949 44.557 4.077 44.261 4.077 43.887 4.077 43.513 3.949 43.217 3.693 43.001 3.437 42.785 3.089 42.676 2.649 42.676L1.31 42.676 1.31 45.098zM.316 48.534L.316 41.839 2.649 41.839C3.398 41.839 3.992 42.023 4.431 42.391 4.871 42.758 5.091 43.257 5.091 43.887 5.091 44.511 4.871 45.004 4.431 45.37 3.992 45.733 3.398 45.915 2.649 45.915L1.31 45.915 1.31 48.534.316 48.534zM7.1 46.014L9.541 46.014 8.32 42.873 7.1 46.014zM10.516 48.534L9.866 46.851 6.774 46.851 6.125 48.534 5.121 48.534 7.798 41.839 8.872 41.839 11.54 48.534 10.516 48.534zM13.647 44.999L15.016 44.999C15.442 44.999 15.782 44.895 16.035 44.685 16.287 44.475 16.414 44.193 16.414 43.838 16.414 43.484 16.287 43.201 16.035 42.992 15.782 42.782 15.442 42.676 15.016 42.676L13.647 42.676 13.647 44.999zM13.647 45.817L13.647 48.534 12.652 48.534 12.652 41.839 15.016 41.839C15.757 41.839 16.345 42.018 16.778 42.376 17.211 42.734 17.427 43.221 17.427 43.838 17.427 44.304 17.296 44.698 17.034 45.02 16.771 45.341 16.41 45.568 15.951 45.7L17.575 48.534 16.443 48.534 14.917 45.817 13.647 45.817z"/>
    <polyline fill="#404040" points="20.283 48.534 20.283 42.676 18.028 42.676 18.028 41.839 23.532 41.839 23.532 42.676 21.277 42.676 21.277 48.534 20.283 48.534"/>
    <path fill="#404040" d="M29.922,47.776 C30.355,47.776 30.74,47.666 31.078,47.447 C31.416,47.227 31.68,46.923 31.871,46.536 C32.061,46.149 32.156,45.7 32.156,45.187 C32.156,44.675 32.061,44.225 31.871,43.838 C31.68,43.451 31.416,43.147 31.078,42.928 C30.74,42.707 30.355,42.598 29.922,42.598 C29.488,42.598 29.104,42.707 28.77,42.928 C28.435,43.147 28.172,43.451 27.982,43.838 C27.791,44.225 27.696,44.675 27.696,45.187 C27.696,45.7 27.791,46.149 27.982,46.536 C28.172,46.923 28.435,47.227 28.77,47.447 C29.104,47.666 29.488,47.776 29.922,47.776 Z M29.922,48.643 C29.291,48.643 28.733,48.496 28.247,48.2 C27.762,47.905 27.38,47.497 27.101,46.979 C26.821,46.46 26.682,45.864 26.682,45.187 C26.682,44.511 26.821,43.913 27.101,43.395 C27.38,42.877 27.762,42.469 28.247,42.174 C28.733,41.878 29.291,41.732 29.922,41.732 C30.551,41.732 31.111,41.878 31.6,42.174 C32.089,42.469 32.473,42.877 32.752,43.395 C33.031,43.913 33.171,44.511 33.171,45.187 C33.171,45.864 33.031,46.46 32.752,46.979 C32.473,47.497 32.089,47.905 31.6,48.2 C31.111,48.496 30.551,48.643 29.922,48.643 Z"/>
    <polyline fill="#404040" points="35.563 48.534 34.568 48.534 34.568 41.839 38.733 41.839 38.733 42.676 35.563 42.676 35.563 44.941 38.251 44.941 38.251 45.778 35.563 45.778 35.563 48.534"/>
    <polyline fill="#404040" points="43.922 48.534 43.922 42.676 41.667 42.676 41.667 41.839 47.171 41.839 47.171 42.676 44.916 42.676 44.916 48.534 43.922 48.534"/>
    <polyline fill="#404040" points="48.313 48.534 48.313 41.839 49.307 41.839 49.307 44.704 52.763 44.704 52.763 41.839 53.757 41.839 53.757 48.534 52.763 48.534 52.763 45.561 49.307 45.561 49.307 48.534 48.313 48.534"/>
    <polyline fill="#404040" points="55.51 48.534 55.51 41.839 59.802 41.839 59.802 42.676 56.504 42.676 56.504 44.743 59.409 44.743 59.409 45.581 56.504 45.581 56.504 47.698 59.881 47.698 59.881 48.534 55.51 48.534"/>
    <path fill="#404040" d="M66.162 47.776C66.707 47.776 67.135 47.613 67.447 47.284 67.759 46.955 67.915 46.513 67.915 45.955L67.915 41.839 68.909 41.839 68.909 45.964C68.909 46.798 68.665 47.454 68.176 47.929 67.687 48.405 67.016 48.643 66.162 48.643 65.309 48.643 64.639 48.405 64.154 47.929 63.668 47.454 63.425 46.798 63.425 45.964L63.425 41.839 64.419 41.839 64.419 45.955C64.419 46.513 64.576 46.955 64.887 47.284 65.199 47.613 65.624 47.776 66.162 47.776M72.621 48.643C72.116 48.643 71.633 48.554 71.174 48.377 70.714 48.2 70.343 47.963 70.061 47.668L70.623 47.008C70.885 47.251 71.195 47.442 71.553 47.579 71.911 47.717 72.267 47.787 72.621 47.787 73.054 47.787 73.404 47.703 73.67 47.536 73.936 47.368 74.068 47.136 74.068 46.841 74.068 46.572 73.973 46.345 73.783 46.162 73.593 45.978 73.268 45.824 72.808 45.7L71.883 45.453C71.285 45.295 70.85 45.072 70.578 44.784 70.306 44.495 70.17 44.118 70.17 43.651 70.17 43.271 70.272 42.936 70.475 42.647 70.678 42.358 70.959 42.133 71.317 41.972 71.674 41.812 72.08 41.732 72.533 41.732 73.011 41.732 73.462 41.822 73.881 42.001 74.301 42.182 74.672 42.434 74.994 42.755L74.393 43.405C74.111 43.142 73.817 42.941 73.512 42.799 73.207 42.659 72.883 42.587 72.543 42.587 72.129 42.587 71.791 42.674 71.528 42.849 71.266 43.023 71.134 43.263 71.134 43.572 71.134 43.855 71.228 44.075 71.415 44.232 71.602 44.389 71.889 44.521 72.277 44.625L73.311 44.912C73.908 45.076 74.344 45.305 74.62 45.601 74.896 45.896 75.033 46.264 75.033 46.704 75.033 47.09 74.932 47.43 74.728 47.722 74.525 48.014 74.242 48.241 73.881 48.402 73.521 48.563 73.1 48.643 72.621 48.643M77.534 46.014L79.976 46.014 78.755 42.873 77.534 46.014zM80.95 48.534L80.3 46.851 77.209 46.851 76.559 48.534 75.555 48.534 78.233 41.839 79.306 41.839 81.975 48.534 80.95 48.534z"/>
    <polyline fill="#404040" points="86.602 48.534 86.602 42.676 84.347 42.676 84.347 41.839 89.851 41.839 89.851 42.676 87.596 42.676 87.596 48.534 86.602 48.534"/>
    <path fill="#404040" d="M93.435 47.776C93.868 47.776 94.253 47.666 94.591 47.447 94.929 47.227 95.193 46.923 95.384 46.536 95.574 46.149 95.67 45.7 95.67 45.187 95.67 44.675 95.574 44.225 95.384 43.838 95.193 43.451 94.929 43.147 94.591 42.928 94.253 42.707 93.868 42.598 93.435 42.598 93.002 42.598 92.617 42.707 92.283 42.928 91.948 43.147 91.685 43.451 91.495 43.838 91.304 44.225 91.21 44.675 91.21 45.187 91.21 45.7 91.304 46.149 91.495 46.536 91.685 46.923 91.948 47.227 92.283 47.447 92.617 47.666 93.002 47.776 93.435 47.776zM93.435 48.643C92.804 48.643 92.246 48.496 91.761 48.2 91.275 47.905 90.893 47.497 90.614 46.979 90.335 46.46 90.195 45.864 90.195 45.187 90.195 44.511 90.335 43.913 90.614 43.395 90.893 42.877 91.275 42.469 91.761 42.174 92.246 41.878 92.804 41.732 93.435 41.732 94.065 41.732 94.624 41.878 95.113 42.174 95.602 42.469 95.986 42.877 96.265 43.395 96.544 43.913 96.684 44.511 96.684 45.187 96.684 45.864 96.544 46.46 96.265 46.979 95.986 47.497 95.602 47.905 95.113 48.2 94.624 48.496 94.065 48.643 93.435 48.643zM99.076 47.698L100.435 47.698C100.907 47.698 101.313 47.594 101.651 47.388 101.989 47.181 102.248 46.89 102.429 46.516 102.609 46.142 102.699 45.7 102.699 45.187 102.699 44.675 102.609 44.232 102.429 43.858 102.248 43.484 101.989 43.193 101.651 42.987 101.313 42.78 100.907 42.676 100.435 42.676L99.076 42.676 99.076 47.698zM98.082 48.534L98.082 41.839 100.435 41.839C101.091 41.839 101.666 41.979 102.158 42.258 102.65 42.537 103.032 42.928 103.305 43.429 103.577 43.932 103.713 44.518 103.713 45.187 103.713 45.857 103.577 46.443 103.305 46.945 103.032 47.447 102.65 47.837 102.158 48.117 101.666 48.395 101.091 48.534 100.435 48.534L98.082 48.534zM106.254 46.014L108.695 46.014 107.474 42.873 106.254 46.014zM109.67 48.534L109.02 46.851 105.928 46.851 105.278 48.534 104.275 48.534 106.953 41.839 108.025 41.839 110.694 48.534 109.67 48.534z"/>
    <polyline fill="#404040" points="113.746 45.876 113.746 48.534 112.752 48.534 112.752 45.876 110.399 41.839 111.57 41.839 113.254 44.931 114.937 41.839 116.089 41.839 113.746 45.876"/>
    <polyline fill="#404040" points="124.044 48.534 120.47 43.405 120.47 48.534 119.535 48.534 119.535 41.839 120.461 41.839 124.044 46.969 124.044 41.839 124.97 41.839 124.97 48.534 124.044 48.534"/>
    <polyline fill="#404040" points="126.722 48.534 126.722 41.839 131.015 41.839 131.015 42.676 127.716 42.676 127.716 44.743 130.621 44.743 130.621 45.581 127.716 45.581 127.716 47.698 131.094 47.698 131.094 48.534 126.722 48.534"/>
    <polyline fill="#404040" points="134.047 48.534 134.047 42.676 131.793 42.676 131.793 41.839 137.296 41.839 137.296 42.676 135.042 42.676 135.042 48.534 134.047 48.534"/>
    <polyline fill="#404040" points="143.794 48.534 142.229 43.198 140.664 48.534 139.63 48.534 137.848 41.839 138.832 41.839 140.191 47.136 141.756 41.839 142.701 41.839 144.277 47.157 145.646 41.839 146.61 41.839 144.828 48.534 143.794 48.534"/>
    <path fill="#404040" d="M150.558 47.776C150.991 47.776 151.377 47.666 151.715 47.447 152.053 47.227 152.317 46.923 152.507 46.536 152.698 46.149 152.793 45.7 152.793 45.187 152.793 44.675 152.698 44.225 152.507 43.838 152.317 43.451 152.053 43.147 151.715 42.928 151.377 42.707 150.991 42.598 150.558 42.598 150.125 42.598 149.741 42.707 149.406 42.928 149.072 43.147 148.809 43.451 148.619 43.838 148.428 44.225 148.333 44.675 148.333 45.187 148.333 45.7 148.428 46.149 148.619 46.536 148.809 46.923 149.072 47.227 149.406 47.447 149.741 47.666 150.125 47.776 150.558 47.776zM150.558 48.643C149.928 48.643 149.37 48.496 148.884 48.2 148.399 47.905 148.017 47.497 147.737 46.979 147.458 46.46 147.319 45.864 147.319 45.187 147.319 44.511 147.458 43.913 147.737 43.395 148.017 42.877 148.399 42.469 148.884 42.174 149.37 41.878 149.928 41.732 150.558 41.732 151.189 41.732 151.748 41.878 152.237 42.174 152.726 42.469 153.11 42.877 153.389 43.395 153.668 43.913 153.807 44.511 153.807 45.187 153.807 45.864 153.668 46.46 153.389 46.979 153.11 47.497 152.726 47.905 152.237 48.2 151.748 48.496 151.189 48.643 150.558 48.643zM156.2 44.999L157.568 44.999C157.995 44.999 158.335 44.895 158.588 44.685 158.84 44.475 158.966 44.193 158.966 43.838 158.966 43.484 158.84 43.201 158.588 42.992 158.335 42.782 157.995 42.676 157.568 42.676L156.2 42.676 156.2 44.999zM156.2 45.817L156.2 48.534 155.205 48.534 155.205 41.839 157.568 41.839C158.31 41.839 158.898 42.018 159.331 42.376 159.764 42.734 159.981 43.221 159.981 43.838 159.981 44.304 159.849 44.698 159.587 45.02 159.324 45.341 158.963 45.568 158.504 45.7L160.128 48.534 158.996 48.534 157.47 45.817 156.2 45.817z"/>
    <polyline fill="#404040" points="165.385 48.534 162.382 45.158 162.382 48.534 161.388 48.534 161.388 41.839 162.382 41.839 162.382 44.774 165.189 41.839 166.42 41.839 163.436 44.912 166.636 48.534 165.385 48.534"/>
    <path fill="#009BFF" class='no-color-change' d="M294.29,9.53 C292.999,9.53 291.897,9.073 290.983,8.158 C290.067,7.243 289.609,6.14 289.609,4.85 C289.609,3.56 290.067,2.457 290.983,1.542 C291.897,0.627 292.999,0.17 294.29,0.17 C295.579,0.17 296.682,0.627 297.597,1.542 C298.512,2.457 298.97,3.56 298.97,4.85 C298.97,6.14 298.512,7.243 297.597,8.158 C296.682,9.073 295.579,9.53 294.29,9.53"/>
  </g>
</svg>
