<svg id="Mountain_Home" data-name="Mountain Home" xmlns="http://www.w3.org/2000/svg" xmlns:xlink="http://www.w3.org/1999/xlink" width="782" height="160" viewBox="0 0 782 160">
  <defs>
    <style>
      .cls-1, .cls-2 {
        fill: #000;
        fill-rule: evenodd;
      }

      .cls-1 {
        filter: url(#filter);
      }
    </style>
    <filter id="filter" x="414" y="114.969" width="367.969" height="16" filterUnits="userSpaceOnUse">
      <feFlood result="flood" flood-color="#999"/>
      <feComposite result="composite" operator="in" in2="SourceGraphic"/>
      <feBlend result="blend" in2="SourceGraphic"/>
    </filter>
  </defs>
  <path id="USAT_Network" data-name="USAT Network" class="cls-1" d="M413.989,115.273h4.489c3.156,0,5.267,1.865,5.267,4.741s-2.155,4.735-5.267,4.735h-2.29v5.925h-2.2v-15.4Zm4.267,7.659c2.112,0,3.244-1.163,3.244-2.918,0-1.736-1.132-2.919-3.244-2.919h-2.068v5.837h2.068Zm11.768-7.659h1.955l6.4,15.4h-2.358l-1.6-4.035h-6.911l-1.6,4.035H423.6S429.244,117.162,430.024,115.273Zm3.665,9.544-1.488-3.794c-0.222-.572-1.179-2.942-1.2-3.139h-0.043c-0.022.2-.955,2.5-1.2,3.139l-1.51,3.794h5.443Zm6.924-9.544h4.51c2.91,0,5.178,1.5,5.178,4.563a4.293,4.293,0,0,1-3.955,4.346l4.778,6.492h-2.579l-4.51-6.276h-1.223v6.276h-2.2v-15.4Zm4.267,7.351c2.043,0,3.2-1.077,3.2-2.764s-1.157-2.765-3.2-2.765h-2.068v5.529h2.068Zm11.522-5.486h-4.445v-1.865h11.089v1.865H458.6v13.536h-2.2V117.138Zm12.347,5.838a8.2,8.2,0,1,1,8.2,8A7.862,7.862,0,0,1,468.749,122.976Zm14.133,0a5.946,5.946,0,1,0-5.955,6.053A5.772,5.772,0,0,0,482.882,122.976Zm5.433-7.7h7.867v1.865h-5.668V122.1H496v1.865h-5.49v6.713h-2.2v-15.4Zm17.815,1.865h-4.444v-1.865h11.088v1.865H508.33v13.536h-2.2V117.138Zm8.953-1.865h2.2v6.318h8.178v-6.318h2.2v15.4h-2.2v-7.218h-8.178v7.218h-2.2v-15.4Zm16.631,0h8.49v1.846h-6.29v4.472h6.11v1.846h-6.11v5.395h6.422v1.842h-8.622v-15.4Zm16,10.092V115.273h2.221v9.433c0,2.679,1.157,4.323,3.756,4.323,2.622,0,3.78-1.644,3.78-4.323v-9.433h2.221v10.092c0,3.38-2.2,5.616-6,5.616C549.865,130.981,547.71,128.745,547.71,125.365Zm14.274,2.524,1.491-1.25a4.52,4.52,0,0,0,3.911,2.433c1.709,0,3.044-.918,3.044-2.611,0-1.817-1.534-2.433-3.446-3.178-1.956-.769-3.933-1.736-3.933-4.193,0-2.432,1.912-4.12,4.712-4.12a5.249,5.249,0,0,1,4.579,2.322l-1.491,1.25a3.552,3.552,0,0,0-3.088-1.668c-1.512,0-2.511.769-2.511,2.063,0,1.6,1.554,2.13,2.911,2.654,2.2,0.856,4.466,1.889,4.466,4.716,0,2.679-2,4.674-5.2,4.674A6.064,6.064,0,0,1,561.984,127.889Zm18.241-12.616h1.956l6.4,15.4h-2.357l-1.6-4.035h-6.912l-1.6,4.035H573.8S579.446,117.162,580.225,115.273Zm3.665,9.544-1.487-3.794c-0.222-.572-1.179-2.942-1.2-3.139h-0.044c-0.022.2-.955,2.5-1.2,3.139l-1.51,3.794h5.443Zm13.978-7.679h-4.445v-1.865h11.088v1.865h-4.444v13.536h-2.2V117.138Zm7.469,5.838a8.2,8.2,0,1,1,8.2,8A7.861,7.861,0,0,1,605.337,122.976Zm14.132,0a5.945,5.945,0,1,0-5.954,6.053A5.772,5.772,0,0,0,619.469,122.976Zm5.434-7.7h4.423c4.977,0,8.265,2.808,8.265,7.7,0,4.87-3.312,7.7-8.265,7.7H624.9v-15.4Zm2.2,13.534h2.046c3.643,0,6.176-1.9,6.176-5.831s-2.533-5.838-6.176-5.838H627.1v11.669Zm17.637-13.534H646.7l6.4,15.4h-2.357l-1.6-4.035h-6.912l-1.6,4.035h-2.311S643.96,117.162,644.739,115.273Zm3.666,9.544-1.489-3.794c-0.221-.572-1.178-2.942-1.2-3.139h-0.044c-0.022.2-.955,2.5-1.2,3.139l-1.51,3.794h5.444Zm9.084-.419-5.312-9.125h2.467l2.889,5.135a22.887,22.887,0,0,1,1.11,2.192h0.022a23.153,23.153,0,0,1,1.113-2.192l2.91-5.135h2.4l-5.309,9.125v6.276h-2.289V124.4Zm14.062-9.125h1.687l8.846,9.982c0.266,0.288,1.422,1.711,1.534,1.932l0.044-.023c-0.044-.217-0.044-2-0.044-2.39v-9.5h2.134v15.4h-1.713l-8.845-9.983c-0.265-.283-1.422-1.711-1.532-1.928l-0.021.02c0.021,0.221.043,2,.043,2.394v9.5h-2.133v-15.4Zm18.253,0h8.487v1.846H692v4.472h6.113v1.846H692v5.395h6.422v1.842H689.8v-15.4Zm15.37,1.865h-4.445v-1.865h11.089v1.865h-4.445v13.536h-2.2V117.138Zm8.478-1.865h2.333l3.2,9.15c0.112,0.351.867,2.63,0.889,2.981h0.046a30.445,30.445,0,0,1,.933-2.981l3.334-9.15h1.756l3.332,9.15c0.133,0.351.91,2.63,0.935,2.981h0.044c0.044-.351.8-2.63,0.91-2.981l3.179-9.15h2.243l-5.49,15.4h-1.688l-3.6-9.607a25.578,25.578,0,0,1-.758-2.5h-0.044a25.693,25.693,0,0,1-.776,2.5l-3.578,9.607h-1.69Zm24.117,7.7a8.2,8.2,0,1,1,8.2,8A7.862,7.862,0,0,1,737.769,122.976Zm14.133,0a5.946,5.946,0,1,0-5.955,6.053A5.772,5.772,0,0,0,751.9,122.976Zm5.433-7.7h4.511c2.913,0,5.177,1.5,5.177,4.563a4.293,4.293,0,0,1-3.955,4.346l4.779,6.492h-2.579l-4.511-6.276h-1.222v6.276h-2.2v-15.4Zm4.267,7.351c2.044,0,3.2-1.077,3.2-2.764s-1.156-2.765-3.2-2.765h-2.067v5.529H761.6Zm8.736-7.351h2.2v7.154l6.444-7.154h2.666l-6.687,7.351,7,8.05h-2.754l-6.668-7.785v7.785h-2.2v-15.4Z"/>
  <path id="baxter_bulletin" data-name="baxter bulletin" class="cls-2" d="M22.2,34.433H0.887V29.406H48.94v5.027H27.628V99.979H22.2V34.433Zm31.567-5.027h5.228V56.952h0.2c2.815-4.223,7.641-7.841,15.583-7.841,11.36,0,19.2,6.835,19.2,19.7V99.979H88.752V70.121c0-11.359-5.529-16.488-14.176-16.488-9.047,0-15.582,5.631-15.582,16.89V99.979H53.767V29.406ZM101.22,75.048c0-12.165,7.54-25.937,24.329-25.937,16.285,0,23.725,12.968,23.725,26.037v0.2H106.348c0.1,11.158,6.835,21.313,19.3,21.313,8.343,0,14.476-4.524,17.894-11.361l4.424,2.414c-4.525,8.846-13.271,13.47-22.721,13.47C109.464,101.185,101.22,87.814,101.22,75.048Zm42.827-4.122c-1.408-10.356-8.646-17.392-18.6-17.392-10.455,0-17.291,7.54-18.8,17.393h37.4Zm21.917-41.52h22.921c16.387,0,25.535,6.133,25.535,18.3,0,7.642-3.82,12.768-10.555,14.981v0.2c7.54,2.312,13.37,7.238,13.37,17.291,0,12.767-9.249,19.8-26.64,19.8H165.964V29.406ZM181.245,58.66h6.937c6.936,0,10.958-3.217,10.958-9.047,0-5.73-4.022-8.947-10.958-8.947h-6.937V58.66Zm0,30.059h8.545c7.64,0,12.165-3.62,12.165-9.952s-4.625-9.852-12.165-9.852h-8.545v19.8Zm37.7-13.974c0-14.375,10.153-25.635,25.032-25.635,8.143,0,13.37,3.719,16.688,8.344h0.2V50.316H274.54V99.979H260.867V92.841h-0.2c-3.318,4.624-8.545,8.344-16.688,8.344C225.682,101.185,218.946,86.708,218.946,74.745Zm41.218,0.4c0-7.439-4.725-14.074-13.271-14.074s-13.169,6.534-13.169,14.074c0,7.741,5.127,14.074,13.169,14.074C255.036,89.222,260.164,82.889,260.164,75.148Zm35.891-.5-18.2-24.329h16.688L304.5,64.39l9.952-14.074h16.186l-18.2,24.329,19.3,25.334H315.056L304,84.6,292.938,99.979H276.753ZM336.369,85V61.173h-6.735V50.316h6.735V36.845h14.577V50.316H361.3V61.173H350.946V83.29c0,4.726,2.011,6.233,5.329,6.233a17.442,17.442,0,0,0,4.725-.6v11.158a35.876,35.876,0,0,1-8.445.905C340.893,100.984,336.369,95.556,336.369,85Zm26.542-9.852c0-11.561,7.037-26.037,26.64-26.037S415.69,63.587,415.69,74.745a19.485,19.485,0,0,1-.3,3.62h-38c0.7,7.841,7.338,11.561,14.577,11.561,6.635,0,10.958-2.814,13.472-6.333l8.042,8.244c-4.122,5.529-11.662,9.349-22.218,9.349C371.758,101.185,362.911,88.016,362.911,75.148Zm38.7-5.328c-1.407-6.837-6.233-10.153-12.065-10.153S378.8,62.983,377.388,69.82h24.228Zm18.9-19.5h13.672v7.64h0.2c2.714-5.228,6.936-8.846,13.673-8.846a14.762,14.762,0,0,1,4.826.7V62.883a19.109,19.109,0,0,0-6.133-1.006c-7.541,0-11.663,4.624-11.663,13.171V99.979H420.517V50.316Zm46.447-20.911h22.92c16.388,0,25.535,6.133,25.535,18.3,0,7.642-3.819,12.768-10.554,14.981v0.2c7.538,2.312,13.37,7.238,13.37,17.291,0,12.767-9.25,19.8-26.641,19.8h-24.63V29.406Zm15.28,29.254h6.936c6.937,0,10.959-3.217,10.959-9.047,0-5.73-4.022-8.947-10.959-8.947h-6.936V58.66Zm0,30.059h8.545c7.642,0,12.164-3.62,12.164-9.952s-4.624-9.852-12.164-9.852h-8.545v19.8Zm39.812-9.149V50.316h14.578V77.259c0,7.64,1.91,12.264,9.047,12.264,7.439,0,10.255-5.227,10.255-12.364V50.316h14.477V99.979H556.739V93.244h-0.2c-3.016,4.222-6.936,7.941-15.481,7.941C527.988,101.185,522.056,92.64,522.056,79.571Zm56.1-50.165H592.73V99.979H578.154V29.406Zm22.32,0H615.05V99.979H600.474V29.406Zm19.4,45.742c0-11.561,7.038-26.037,26.642-26.037s26.138,14.477,26.138,25.635a19.388,19.388,0,0,1-.3,3.62h-38c0.7,7.841,7.339,11.561,14.576,11.561,6.636,0,10.959-2.814,13.472-6.333l8.043,8.244c-4.122,5.529-11.662,9.349-22.218,9.349C628.721,101.185,619.875,88.016,619.875,75.148ZM658.58,69.82c-1.408-6.837-6.233-10.153-12.063-10.153s-10.758,3.317-12.165,10.153H658.58ZM679.894,85V61.173h-6.735V50.316h6.735V36.845h14.578V50.316h10.355V61.173H694.472V83.29c0,4.726,2.01,6.233,5.328,6.233a17.434,17.434,0,0,0,4.724-.6v11.158a35.85,35.85,0,0,1-8.443.905C684.419,100.984,679.894,95.556,679.894,85Zm28.052-48.255A8.311,8.311,0,0,1,716.59,28.5c4.927,0,8.747,3.518,8.747,8.244s-3.82,8.244-8.747,8.244A8.312,8.312,0,0,1,707.946,36.745Zm1.407,13.572h14.576V99.979H709.353V50.316Zm22.318,0h13.671v6.735h0.2c3.117-4.423,7.741-7.941,15.985-7.941,13.169,0,19.3,8.444,19.3,21.614V99.979H766.354V72.935c0-6.936-2.011-12.164-9.449-12.164S746.247,65.9,746.247,73.037V99.979H731.671V50.316Z"/>
</svg>
