<svg xmlns="http://www.w3.org/2000/svg" width="237" height="44" viewBox="0 0 237 44">
  <g fill="none" fill-rule="evenodd" transform="translate(0 -1)">
    <path fill="#404040" d="M4.685 41.379L5.808 41.379C6.178 41.379 6.469 41.288 6.684 41.107 6.899 40.925 7.007 40.677 7.007 40.363 7.007 40.048 6.899 39.801 6.684 39.62 6.469 39.437 6.178 39.347 5.808 39.347L4.685 39.347 4.685 41.379zM3.85 44.263L3.85 38.644 5.808 38.644C6.436 38.644 6.935 38.798 7.304 39.107 7.673 39.415 7.858 39.834 7.858 40.363 7.858 40.886 7.673 41.3 7.304 41.607 6.935 41.912 6.436 42.065 5.808 42.065L4.685 42.065 4.685 44.263 3.85 44.263zM9.543 42.148L11.593 42.148 10.568 39.512 9.543 42.148zM12.41 44.263L11.866 42.85 9.271 42.85 8.725 44.263 7.883 44.263 10.13 38.644 11.031 38.644 13.27 44.263 12.41 44.263zM15.038 41.296L16.187 41.296C16.545 41.296 16.83 41.208 17.042 41.033 17.254 40.856 17.36 40.619 17.36 40.321 17.36 40.024 17.254 39.787 17.042 39.611 16.83 39.435 16.545 39.347 16.187 39.347L15.038 39.347 15.038 41.296zM15.038 41.982L15.038 44.263 14.204 44.263 14.204 38.644 16.187 38.644C16.809 38.644 17.302 38.794 17.666 39.094 18.03 39.395 18.211 39.804 18.211 40.321 18.211 40.713 18.101 41.043 17.881 41.313 17.66 41.582 17.357 41.773 16.972 41.883L18.335 44.263 17.385 44.263 16.104 41.982 15.038 41.982z"/>
    <polyline fill="#404040" points="20.607 44.263 20.607 39.347 18.715 39.347 18.715 38.644 23.334 38.644 23.334 39.347 21.442 39.347 21.442 44.263 20.607 44.263"/>
    <path fill="#404040" d="M28.697,43.626 C29.06,43.626 29.384,43.535 29.668,43.35 C29.951,43.165 30.173,42.911 30.333,42.585 C30.492,42.261 30.572,41.883 30.572,41.453 C30.572,41.024 30.492,40.646 30.333,40.321 C30.173,39.996 29.951,39.742 29.668,39.557 C29.384,39.372 29.06,39.28 28.697,39.28 C28.333,39.28 28.011,39.372 27.73,39.557 C27.449,39.742 27.228,39.996 27.069,40.321 C26.909,40.646 26.829,41.024 26.829,41.453 C26.829,41.883 26.909,42.261 27.069,42.585 C27.228,42.911 27.449,43.165 27.73,43.35 C28.011,43.535 28.333,43.626 28.697,43.626 Z M28.697,44.354 C28.168,44.354 27.699,44.23 27.292,43.982 C26.884,43.734 26.563,43.392 26.329,42.957 C26.095,42.522 25.978,42.021 25.978,41.453 C25.978,40.886 26.095,40.385 26.329,39.95 C26.563,39.514 26.884,39.172 27.292,38.925 C27.699,38.677 28.168,38.553 28.697,38.553 C29.225,38.553 29.695,38.677 30.105,38.925 C30.515,39.172 30.838,39.514 31.073,39.95 C31.306,40.385 31.423,40.886 31.423,41.453 C31.423,42.021 31.306,42.522 31.073,42.957 C30.838,43.392 30.515,43.734 30.105,43.982 C29.695,44.23 29.225,44.354 28.697,44.354 Z"/>
    <polyline fill="#404040" points="33.432 44.263 32.597 44.263 32.597 38.644 36.092 38.644 36.092 39.347 33.432 39.347 33.432 41.247 35.687 41.247 35.687 41.949 33.432 41.949 33.432 44.263"/>
    <polyline fill="#404040" points="40.447 44.263 40.447 39.347 38.554 39.347 38.554 38.644 43.173 38.644 43.173 39.347 41.281 39.347 41.281 44.263 40.447 44.263"/>
    <polyline fill="#404040" points="44.132 44.263 44.132 38.644 44.966 38.644 44.966 41.048 47.866 41.048 47.866 38.644 48.701 38.644 48.701 44.263 47.866 44.263 47.866 41.767 44.966 41.767 44.966 44.263 44.132 44.263"/>
    <polyline fill="#404040" points="50.172 44.263 50.172 38.644 53.774 38.644 53.774 39.347 51.006 39.347 51.006 41.081 53.444 41.081 53.444 41.784 51.006 41.784 51.006 43.56 53.841 43.56 53.841 44.263 50.172 44.263"/>
    <path fill="#404040" d="M59.112 43.626C59.569 43.626 59.928 43.489 60.19 43.213 60.452 42.938 60.583 42.566 60.583 42.098L60.583 38.644 61.417 38.644 61.417 42.106C61.417 42.806 61.212 43.355 60.802 43.754 60.391 44.154 59.828 44.354 59.112 44.354 58.396 44.354 57.834 44.154 57.427 43.754 57.019 43.355 56.815 42.806 56.815 42.106L56.815 38.644 57.65 38.644 57.65 42.098C57.65 42.566 57.781 42.938 58.042 43.213 58.303 43.489 58.66 43.626 59.112 43.626M64.532 44.354C64.108 44.354 63.703 44.28 63.318 44.131 62.932 43.982 62.621 43.784 62.384 43.536L62.855 42.982C63.075 43.186 63.336 43.345 63.636 43.461 63.936 43.577 64.235 43.634 64.532 43.634 64.896 43.634 65.189 43.565 65.412 43.424 65.636 43.284 65.747 43.089 65.747 42.841 65.747 42.616 65.667 42.426 65.508 42.271 65.347 42.118 65.075 41.988 64.689 41.883L63.913 41.676C63.411 41.544 63.046 41.357 62.818 41.115 62.589 40.872 62.475 40.556 62.475 40.164 62.475 39.845 62.56 39.564 62.731 39.322 62.902 39.079 63.137 38.891 63.438 38.755 63.738 38.62 64.078 38.553 64.458 38.553 64.86 38.553 65.238 38.628 65.59 38.781 65.943 38.932 66.254 39.143 66.524 39.412L66.02 39.958C65.783 39.738 65.536 39.568 65.28 39.45 65.024 39.331 64.753 39.272 64.466 39.272 64.119 39.272 63.835 39.345 63.615 39.492 63.395 39.637 63.285 39.839 63.285 40.098 63.285 40.335 63.363 40.52 63.52 40.652 63.677 40.785 63.918 40.895 64.243 40.983L65.111 41.222C65.612 41.36 65.978 41.552 66.21 41.8 66.441 42.048 66.557 42.357 66.557 42.726 66.557 43.051 66.471 43.336 66.301 43.581 66.13 43.827 65.893 44.016 65.59 44.151 65.287 44.287 64.934 44.354 64.532 44.354M68.656 42.148L70.705 42.148 69.68 39.512 68.656 42.148zM71.523 44.263L70.978 42.85 68.383 42.85 67.838 44.263 66.995 44.263 69.242 38.644 70.143 38.644 72.383 44.263 71.523 44.263z"/>
    <polyline fill="#404040" points="76.266 44.263 76.266 39.347 74.373 39.347 74.373 38.644 78.992 38.644 78.992 39.347 77.1 39.347 77.1 44.263 76.266 44.263"/>
    <path fill="#404040" d="M82 43.626C82.364 43.626 82.687 43.535 82.971 43.35 83.255 43.165 83.476 42.911 83.636 42.585 83.796 42.261 83.876 41.883 83.876 41.453 83.876 41.024 83.796 40.646 83.636 40.321 83.476 39.996 83.255 39.742 82.971 39.557 82.687 39.372 82.364 39.28 82 39.28 81.637 39.28 81.314 39.372 81.034 39.557 80.753 39.742 80.532 39.996 80.372 40.321 80.213 40.646 80.133 41.024 80.133 41.453 80.133 41.883 80.213 42.261 80.372 42.585 80.532 42.911 80.753 43.165 81.034 43.35 81.314 43.535 81.637 43.626 82 43.626zM82 44.354C81.471 44.354 81.003 44.23 80.596 43.982 80.188 43.734 79.867 43.392 79.633 42.957 79.399 42.522 79.282 42.021 79.282 41.453 79.282 40.886 79.399 40.385 79.633 39.95 79.867 39.514 80.188 39.172 80.596 38.925 81.003 38.677 81.471 38.553 82 38.553 82.529 38.553 82.999 38.677 83.409 38.925 83.819 39.172 84.141 39.514 84.376 39.95 84.61 40.385 84.727 40.886 84.727 41.453 84.727 42.021 84.61 42.522 84.376 42.957 84.141 43.392 83.819 43.734 83.409 43.982 82.999 44.23 82.529 44.354 82 44.354zM86.735 43.56L87.875 43.56C88.272 43.56 88.612 43.474 88.895 43.3 89.18 43.127 89.397 42.883 89.548 42.569 89.7 42.255 89.776 41.883 89.776 41.453 89.776 41.024 89.7 40.652 89.548 40.338 89.397 40.024 89.18 39.78 88.895 39.607 88.612 39.433 88.272 39.347 87.875 39.347L86.735 39.347 86.735 43.56zM85.9 44.263L85.9 38.644 87.875 38.644C88.426 38.644 88.908 38.761 89.321 38.995 89.734 39.23 90.055 39.557 90.284 39.979 90.512 40.4 90.627 40.892 90.627 41.453 90.627 42.015 90.512 42.507 90.284 42.928 90.055 43.35 89.734 43.677 89.321 43.912 88.908 44.146 88.426 44.263 87.875 44.263L85.9 44.263zM92.759 42.148L94.808 42.148 93.783 39.512 92.759 42.148zM95.626 44.263L95.08 42.85 92.486 42.85 91.94 44.263 91.097 44.263 93.345 38.644 94.246 38.644 96.485 44.263 95.626 44.263z"/>
    <polyline fill="#404040" points="99.047 42.032 99.047 44.263 98.212 44.263 98.212 42.032 96.237 38.644 97.221 38.644 98.634 41.239 100.047 38.644 101.013 38.644 99.047 42.032"/>
    <polyline fill="#404040" points="107.689 44.263 104.69 39.958 104.69 44.263 103.905 44.263 103.905 38.644 104.682 38.644 107.689 42.949 107.689 38.644 108.466 38.644 108.466 44.263 107.689 44.263"/>
    <polyline fill="#404040" points="109.937 44.263 109.937 38.644 113.54 38.644 113.54 39.347 110.772 39.347 110.772 41.081 113.209 41.081 113.209 41.784 110.772 41.784 110.772 43.56 113.606 43.56 113.606 44.263 109.937 44.263"/>
    <polyline fill="#404040" points="116.084 44.263 116.084 39.347 114.192 39.347 114.192 38.644 118.811 38.644 118.811 39.347 116.919 39.347 116.919 44.263 116.084 44.263"/>
    <polyline fill="#404040" points="124.264 44.263 122.951 39.785 121.637 44.263 120.769 44.263 119.274 38.644 120.1 38.644 121.241 43.089 122.554 38.644 123.347 38.644 124.669 43.106 125.818 38.644 126.628 38.644 125.132 44.263 124.264 44.263"/>
    <path fill="#404040" d="M129.942 43.626C130.305 43.626 130.629 43.535 130.912 43.35 131.196 43.165 131.418 42.911 131.577 42.585 131.738 42.261 131.818 41.883 131.818 41.453 131.818 41.024 131.738 40.646 131.577 40.321 131.418 39.996 131.196 39.742 130.912 39.557 130.629 39.372 130.305 39.28 129.942 39.28 129.578 39.28 129.256 39.372 128.975 39.557 128.694 39.742 128.474 39.996 128.314 40.321 128.154 40.646 128.075 41.024 128.075 41.453 128.075 41.883 128.154 42.261 128.314 42.585 128.474 42.911 128.694 43.165 128.975 43.35 129.256 43.535 129.578 43.626 129.942 43.626zM129.942 44.354C129.412 44.354 128.945 44.23 128.536 43.982 128.129 43.734 127.808 43.392 127.575 42.957 127.34 42.522 127.223 42.021 127.223 41.453 127.223 40.886 127.34 40.385 127.575 39.95 127.808 39.514 128.129 39.172 128.536 38.925 128.945 38.677 129.412 38.553 129.942 38.553 130.47 38.553 130.94 38.677 131.351 38.925 131.76 39.172 132.082 39.514 132.318 39.95 132.551 40.385 132.668 40.886 132.668 41.453 132.668 42.021 132.551 42.522 132.318 42.957 132.082 43.392 131.76 43.734 131.351 43.982 130.94 44.23 130.47 44.354 129.942 44.354zM134.676 41.296L135.825 41.296C136.182 41.296 136.468 41.208 136.68 41.033 136.892 40.856 136.998 40.619 136.998 40.321 136.998 40.024 136.892 39.787 136.68 39.611 136.468 39.435 136.182 39.347 135.825 39.347L134.676 39.347 134.676 41.296zM134.676 41.982L134.676 44.263 133.841 44.263 133.841 38.644 135.825 38.644C136.447 38.644 136.94 38.794 137.303 39.094 137.667 39.395 137.849 39.804 137.849 40.321 137.849 40.713 137.739 41.043 137.518 41.313 137.298 41.582 136.995 41.773 136.61 41.883L137.973 44.263 137.023 44.263 135.742 41.982 134.676 41.982z"/>
    <polyline fill="#404040" points="142.385 44.263 139.866 41.429 139.866 44.263 139.031 44.263 139.031 38.644 139.866 38.644 139.866 41.107 142.22 38.644 143.253 38.644 140.749 41.222 143.435 44.263 142.385 44.263"/>
    <path fill="#009BFF" class='no-color-change' d="M13.702 32.766C11.212 32.766 8.826 32.339 6.547 31.484 4.267 30.629 2.287 29.407.607 27.817L4.657 22.732C5.857 23.811 7.206 24.66 8.707 25.274 10.207 25.889 11.857 26.197 13.657 26.197 14.857 26.197 15.802 25.987 16.492 25.567 17.182 25.147 17.527 24.517 17.527 23.676 17.527 22.867 17.122 22.214 16.312 21.719 15.502 21.224 14.077 20.706 12.037 20.166L10.147 19.671C7.386 18.952 5.287 17.849 3.847 16.364 2.407 14.879 1.687 12.996 1.687 10.716 1.687 8.767 2.197 7.057 3.217 5.586 4.237 4.117 5.647 2.984 7.447 2.189 9.247 1.394 11.332.996 13.702.996 16.042.996 18.277 1.424 20.407 2.279 22.537 3.134 24.427 4.297 26.077 5.766L21.892 11.032C20.812 10.102 19.544 9.291 18.09 8.601 16.634 7.912 15.187 7.567 13.747 7.567 12.547 7.567 11.624 7.769 10.979 8.174 10.334 8.578 10.012 9.171 10.012 9.952 10.012 10.671 10.349 11.294 11.025 11.819 11.699 12.344 12.862 12.831 14.512 13.282L16.807 13.912C20.107 14.811 22.439 16.041 23.804 17.601 25.169 19.162 25.852 20.976 25.852 23.046 25.852 24.996 25.349 26.7 24.344 28.154 23.339 29.61 21.922 30.742 20.092 31.551 18.262 32.362 16.132 32.766 13.702 32.766M47.137 30.697C46.206 31.327 45.141 31.829 43.942 32.203 42.742 32.578 41.482 32.766 40.162 32.766 37.701 32.766 35.744 32.054 34.289 30.629 32.834 29.204 32.107 27.291 32.107 24.891L32.107 15.126 28.372 15.126 28.372 9.277 32.467 9.277 33.457 2.886 39.937 2.886 39.937 9.277 45.922 9.277 45.922 15.126 39.937 15.126 39.937 23.902C39.937 24.682 40.169 25.289 40.634 25.724 41.099 26.16 41.721 26.376 42.502 26.376 42.891 26.376 43.289 26.302 43.694 26.152 44.099 26.001 44.482 25.822 44.842 25.612L47.137 30.697M57.036 24.756C57.036 25.447 57.291 26.009 57.802 26.444 58.311 26.879 58.971 27.096 59.782 27.096 60.862 27.096 61.768 26.729 62.504 25.994 63.239 25.259 63.606 24.336 63.606 23.226L63.606 22.461C62.796 22.312 61.941 22.237 61.041 22.237 59.901 22.237 58.949 22.432 58.184 22.822 57.419 23.211 57.036 23.857 57.036 24.756zM63.921 32.181L63.516 29.166C62.016 31.567 59.737 32.766 56.677 32.766 55.326 32.766 54.104 32.474 53.009 31.889 51.913 31.304 51.044 30.501 50.399 29.482 49.753 28.462 49.431 27.277 49.431 25.926 49.431 23.377 50.428 21.397 52.424 19.987 54.419 18.577 57.051 17.871 60.322 17.871 61.341 17.871 62.421 17.961 63.561 18.141 63.441 17.001 62.954 16.139 62.099 15.554 61.244 14.969 60.201 14.676 58.971 14.676 57.891 14.676 56.803 14.879 55.709 15.284 54.614 15.689 53.572 16.177 52.581 16.746L49.927 11.706C51.426 10.746 53.046 10.004 54.786 9.479 56.526 8.954 58.266 8.692 60.006 8.692 62.106 8.692 63.996 9.051 65.677 9.772 67.356 10.492 68.676 11.587 69.637 13.056 70.596 14.527 71.076 16.386 71.076 18.636L71.076 32.181 63.921 32.181zM83.901 23.317L83.901 32.181 76.072 32.181 76.072 9.277 83.226 9.277 83.721 13.101C84.201 11.871 84.989 10.873 86.084 10.109 87.179 9.344 88.447 8.961 89.887 8.961 90.697 8.961 91.311 9.067 91.731 9.277L91.731 16.431C91.401 16.312 91.034 16.222 90.629 16.162 90.224 16.102 89.766 16.072 89.256 16.072 87.696 16.072 86.413 16.65 85.409 17.804 84.404 18.959 83.901 20.796 83.901 23.317"/>
    <path fill="#404040" d="M115.041 15.577L119.091 15.577C120.38 15.577 121.4 15.239 122.151 14.564 122.9 13.889 123.276 12.996 123.276 11.886 123.276 10.777 122.9 9.884 122.151 9.209 121.4 8.534 120.38 8.197 119.091 8.197L115.041 8.197 115.041 15.577zM106.941 32.181L106.941 1.581 119.901 1.581C123.501 1.581 126.35 2.504 128.451 4.349 130.55 6.194 131.6 8.706 131.6 11.886 131.6 13.956 131.128 15.749 130.183 17.264 129.238 18.779 127.91 19.95 126.201 20.774 124.491 21.599 122.45 22.011 120.08 22.011L115.041 22.011 115.041 32.181 106.941 32.181zM143.435 23.317L143.435 32.181 135.605 32.181 135.605 9.277 142.759 9.277 143.254 13.101C143.734 11.871 144.522 10.873 145.617 10.109 146.712 9.344 147.98 8.961 149.419 8.961 150.23 8.961 150.844 9.067 151.265 9.277L151.265 16.431C150.934 16.312 150.567 16.222 150.162 16.162 149.757 16.102 149.299 16.072 148.789 16.072 147.23 16.072 145.947 16.65 144.942 17.804 143.937 18.959 143.435 20.796 143.435 23.317M165.889 14.362C163.339 14.362 161.809 15.711 161.299 18.412L170.03 18.412C169.819 16.942 169.317 15.899 168.522 15.284 167.727 14.669 166.849 14.362 165.889 14.362zM176.599 29.841C175.458 30.652 174.012 31.342 172.257 31.912 170.501 32.481 168.634 32.766 166.655 32.766 163.924 32.766 161.592 32.264 159.657 31.259 157.722 30.254 156.237 28.851 155.201 27.051 154.166 25.251 153.65 23.181 153.65 20.841 153.65 18.472 154.159 16.371 155.179 14.541 156.199 12.712 157.61 11.279 159.409 10.244 161.209 9.209 163.309 8.692 165.709 8.692 168.049 8.692 170.112 9.194 171.897 10.199 173.681 11.204 175.076 12.599 176.081 14.384 177.086 16.169 177.589 18.262 177.589 20.662 177.589 20.992 177.567 21.336 177.522 21.697 177.477 22.056 177.424 22.432 177.365 22.822L161.389 22.822C162.11 25.461 164.074 26.782 167.284 26.782 168.724 26.782 169.999 26.556 171.11 26.107 172.219 25.657 173.149 25.206 173.9 24.756L176.599 29.841zM190.099 32.766C188.119 32.766 186.266 32.452 184.541 31.822 182.816 31.192 181.264 30.291 179.884 29.121L183.214 24.711C184.264 25.551 185.397 26.235 186.612 26.759 187.826 27.285 189.019 27.546 190.189 27.546 190.969 27.546 191.591 27.412 192.057 27.141 192.522 26.871 192.754 26.466 192.754 25.926 192.754 25.357 192.492 24.899 191.966 24.554 191.442 24.209 190.504 23.871 189.154 23.541L186.994 23.001C182.703 21.862 180.559 19.567 180.559 16.117 180.559 14.586 180.979 13.267 181.819 12.157 182.659 11.047 183.814 10.192 185.284 9.591 186.753 8.992 188.463 8.692 190.414 8.692 192.333 8.692 194.141 8.992 195.836 9.591 197.532 10.192 199.083 11.062 200.494 12.202L197.075 16.702C196.024 15.862 194.914 15.187 193.744 14.676 192.575 14.166 191.479 13.912 190.459 13.912 188.809 13.912 187.984 14.452 187.984 15.532 187.984 16.012 188.232 16.402 188.727 16.702 189.222 17.001 189.919 17.272 190.819 17.511L193.744 18.322C195.934 18.922 197.554 19.822 198.604 21.022 199.654 22.222 200.179 23.647 200.179 25.296 200.179 26.797 199.758 28.109 198.919 29.234 198.078 30.359 196.901 31.229 195.387 31.844 193.871 32.458 192.109 32.766 190.099 32.766M212.959 32.766C210.979 32.766 209.126 32.452 207.402 31.822 205.676 31.192 204.123 30.291 202.743 29.121L206.074 24.711C207.123 25.551 208.256 26.235 209.471 26.759 210.687 27.285 211.879 27.546 213.049 27.546 213.828 27.546 214.451 27.412 214.916 27.141 215.381 26.871 215.614 26.466 215.614 25.926 215.614 25.357 215.351 24.899 214.826 24.554 214.301 24.209 213.364 23.871 212.014 23.541L209.854 23.001C205.564 21.862 203.419 19.567 203.419 16.117 203.419 14.586 203.839 13.267 204.679 12.157 205.519 11.047 206.674 10.192 208.144 9.591 209.614 8.992 211.324 8.692 213.274 8.692 215.194 8.692 217.001 8.992 218.697 9.591 220.391 10.192 221.944 11.062 223.354 12.202L219.934 16.702C218.883 15.862 217.774 15.187 216.604 14.676 215.434 14.166 214.338 13.912 213.319 13.912 211.668 13.912 210.844 14.452 210.844 15.532 210.844 16.012 211.091 16.402 211.586 16.702 212.081 17.001 212.779 17.272 213.679 17.511L216.604 18.322C218.793 18.922 220.413 19.822 221.464 21.022 222.514 22.222 223.039 23.647 223.039 25.296 223.039 26.797 222.618 28.109 221.779 29.234 220.939 30.359 219.761 31.229 218.246 31.844 216.731 32.458 214.968 32.766 212.959 32.766"/>
    <path fill="#009BFF" class='no-color-change' d="M231.319,32.676 C230.359,32.676 229.481,32.444 228.686,31.979 C227.891,31.514 227.261,30.884 226.796,30.089 C226.33,29.294 226.099,28.416 226.099,27.456 C226.099,26.496 226.33,25.62 226.796,24.824 C227.261,24.03 227.891,23.4 228.686,22.934 C229.481,22.469 230.359,22.237 231.319,22.237 C232.279,22.237 233.156,22.469 233.951,22.934 C234.745,23.4 235.376,24.03 235.841,24.824 C236.306,25.62 236.538,26.496 236.538,27.456 C236.538,28.416 236.306,29.294 235.841,30.089 C235.376,30.884 234.745,31.514 233.951,31.979 C233.156,32.444 232.279,32.676 231.319,32.676"/>
  </g>
</svg>
