<svg height="47" viewBox="0 0 410 47" width="410" xmlns="http://www.w3.org/2000/svg">
  <g fill="none" fill-rule="evenodd">
    <g fill="#404040"><path
      d="m277.75 43.819h1.067c.35 0 .627-.086.831-.259.204-.172.306-.408.306-.705 0-.298-.102-.534-.306-.706-.204-.173-.481-.259-.831-.259h-1.067zm-.792 2.737v-5.333h1.859c.596 0 1.069.147 1.419.44.35.292.526.69.526 1.192 0 .496-.176.889-.526 1.18-.35.29-.823.435-1.419.435h-1.067v2.086zm5.403-2.007h1.945l-.972-2.502zm2.722 2.007-.518-1.341h-2.462l-.518 1.341h-.8l2.133-5.333h.855l2.125 5.333zm2.494-2.815h1.09c.339 0 .61-.084.811-.252.202-.167.302-.391.302-.674 0-.282-.1-.507-.302-.674-.201-.167-.472-.251-.811-.251h-1.09zm0 .651v2.164h-.792v-5.333h1.882c.591 0 1.058.143 1.403.428.346.285.518.673.518 1.164 0 .371-.105.685-.314.941-.209.257-.496.437-.862.541l1.294 2.259h-.903l-1.215-2.164z"/><path d="m292.862 46.556v-4.666h-1.796v-.667h4.384v.667h-1.796v4.666z"/><path
      d="m300.54 45.952c.345 0 .652-.087.921-.262.269-.176.48-.417.632-.726.151-.308.227-.667.227-1.074 0-.408-.076-.766-.227-1.075-.152-.308-.363-.55-.632-.725s-.576-.263-.921-.263c-.346 0-.651.088-.918.263-.266.175-.476.417-.627.725-.152.309-.228.667-.228 1.075 0 .407.076.766.228 1.074.151.309.361.55.627.726.267.175.572.262.918.262zm0 .69c-.502 0-.947-.117-1.334-.353-.387-.235-.691-.559-.913-.972-.223-.413-.333-.889-.333-1.427 0-.539.11-1.015.333-1.428.222-.412.526-.737.913-.972s.832-.353 1.334-.353.947.118 1.337.353c.389.235.695.56.918.972.221.413.333.889.333 1.428 0 .538-.112 1.014-.333 1.427-.223.413-.529.737-.918.972-.39.236-.835.353-1.337.353z"/><path d="m305.034 46.556h-.792v-5.333h3.317v.667h-2.525v1.803h2.141v.667h-2.141z"/><path d="m311.691 46.556v-4.666h-1.796v-.667h4.385v.667h-1.796v4.666z"/><path d="m315.189 46.556v-5.333h.793v2.282h2.752v-2.282h.792v5.333h-.792v-2.368h-2.752v2.368z"/><path d="m320.922 46.556v-5.333h3.42v.667h-2.628v1.647h2.314v.666h-2.314v1.686h2.69v.667z"/><path
      d="m329.407 45.952c.434 0 .776-.13 1.024-.392.248-.261.372-.614.372-1.059v-3.278h.792v3.286c0 .665-.194 1.186-.584 1.565s-.924.568-1.604.568-1.213-.189-1.599-.568c-.387-.379-.581-.9-.581-1.565v-3.286h.792v3.278c0 .445.125.798.373 1.059.248.262.587.392 1.015.392m5.145.69c-.403 0-.787-.07-1.153-.211-.366-.142-.662-.33-.886-.565l.447-.525c.209.193.456.344.741.454s.568.165.851.165c.345 0 .623-.067.835-.2s.318-.318.318-.553c0-.214-.076-.394-.228-.541-.151-.146-.41-.269-.776-.369l-.737-.195c-.476-.126-.822-.303-1.039-.534-.217-.23-.326-.53-.326-.902 0-.303.081-.569.243-.799.162-.231.386-.409.671-.538.284-.128.607-.192.968-.192.382 0 .74.072 1.075.216.334.143.629.344.886.6l-.478.517c-.226-.209-.459-.37-.702-.482s-.501-.168-.773-.168c-.329 0-.599.069-.807.207-.21.139-.314.331-.314.577 0 .224.074.4.223.525.149.126.378.23.686.313l.824.228c.476.131.823.314 1.043.549.219.235.329.528.329.878 0 .309-.081.58-.243.812-.162.233-.387.413-.674.541-.288.128-.623.192-1.004.192m3.913-2.093h1.945l-.972-2.502zm2.722 2.007-.518-1.341h-2.462l-.518 1.341h-.8l2.133-5.333h.854l2.126 5.333z"/><path d="m345.688 46.556v-4.666h-1.796v-.667h4.384v.667h-1.796v4.666z"/><path
      d="m351.131 45.952c.345 0 .652-.087.921-.262.269-.176.48-.417.632-.726.151-.308.227-.667.227-1.074 0-.408-.076-.766-.227-1.075-.152-.308-.363-.55-.632-.725s-.576-.263-.921-.263c-.346 0-.651.088-.918.263-.266.175-.476.417-.627.725-.152.309-.228.667-.228 1.075 0 .407.076.766.228 1.074.151.309.361.55.627.726.267.175.572.262.918.262zm0 .69c-.502 0-.947-.117-1.334-.353-.387-.235-.691-.559-.913-.972-.223-.413-.334-.889-.334-1.427 0-.539.111-1.015.334-1.428.222-.412.526-.737.913-.972s.832-.353 1.334-.353.947.118 1.337.353c.389.235.695.56.917.972.222.413.334.889.334 1.428 0 .538-.112 1.014-.334 1.427s-.528.737-.917.972c-.39.236-.835.353-1.337.353zm4.494-.753h1.082c.376 0 .699-.082.968-.246.27-.165.476-.396.62-.695.144-.298.216-.651.216-1.058 0-.408-.072-.761-.216-1.059s-.35-.529-.62-.694c-.269-.165-.592-.247-.968-.247h-1.082zm-.793.667v-5.333h1.875c.523 0 .98.112 1.372.334s.697.533.914.933.325.866.325 1.4c0 .533-.108.999-.325 1.399-.217.401-.522.712-.914.934s-.849.333-1.372.333zm6.509-2.007h1.945l-.972-2.502zm2.722 2.007-.518-1.341h-2.462l-.518 1.341h-.8l2.133-5.333h.855l2.125 5.333z"/><path d="m367.309 44.439v2.117h-.792v-2.117l-1.874-3.216h.933l1.341 2.463 1.341-2.463h.918z"/><path d="m375.512 46.556-2.846-4.086v4.086h-.746v-5.333h.737l2.855 4.086v-4.086h.738v5.333z"/><path d="m377.646 46.556v-5.333h3.419v.667h-2.627v1.647h2.313v.666h-2.313v1.686h2.689v.667z"/><path d="m383.48 46.556v-4.666h-1.796v-.667h4.384v.667h-1.796v4.666z"/><path d="m391.244 46.556-1.247-4.251-1.247 4.251h-.823l-1.42-5.333h.785l1.082 4.219 1.247-4.219h.753l1.255 4.235 1.09-4.235h.768l-1.419 5.333z"/><path
      d="m396.632 45.952c.345 0 .652-.087.922-.262.269-.176.479-.417.631-.726.152-.308.227-.667.227-1.074 0-.408-.075-.766-.227-1.075-.152-.308-.362-.55-.631-.725-.27-.175-.577-.263-.922-.263s-.651.088-.918.263c-.266.175-.475.417-.627.725-.151.309-.227.667-.227 1.075 0 .407.076.766.227 1.074.152.309.361.55.627.726.267.175.573.262.918.262zm0 .69c-.502 0-.946-.117-1.333-.353-.387-.235-.691-.559-.914-.972-.222-.413-.333-.889-.333-1.427 0-.539.111-1.015.333-1.428.223-.412.527-.737.914-.972s.831-.353 1.333-.353.948.118 1.337.353c.39.235.696.56.918.972.222.413.333.889.333 1.428 0 .538-.111 1.014-.333 1.427s-.528.737-.918.972c-.389.236-.835.353-1.337.353zm4.494-2.901h1.089c.34 0 .611-.084.812-.252.201-.167.302-.391.302-.674 0-.282-.101-.507-.302-.674s-.472-.251-.812-.251h-1.089zm0 .651v2.164h-.793v-5.333h1.882c.591 0 1.059.143 1.404.428s.518.673.518 1.164c0 .371-.105.685-.314.941-.209.257-.497.437-.862.541l1.293 2.259h-.902l-1.215-2.164z"/><path d="m408.442 46.556-2.392-2.69v2.69h-.792v-5.333h.792v2.337l2.235-2.337h.98l-2.376 2.447 2.549 2.886z"/><path
      d="m9.01 28.327h3.825c2.189 0 3.922-.794 5.197-2.385 1.275-1.59 1.913-3.689 1.913-6.3 0-2.609-.638-4.709-1.913-6.299s-3.008-2.386-5.197-2.386h-3.825zm-8.235 6.615v-30.599h12.06c3.03 0 5.707.652 8.032 1.957s4.147 3.105 5.468 5.4c1.32 2.295 1.98 4.943 1.98 7.942 0 3-.66 5.648-1.98 7.943-1.321 2.295-3.143 4.095-5.468 5.4s-5.002 1.957-8.032 1.957zm38.069-7.425c0 .691.255 1.253.765 1.688s1.17.652 1.98.652c1.081 0 1.988-.367 2.723-1.102s1.102-1.658 1.102-2.768v-.765c-.81-.149-1.665-.225-2.565-.225-1.14 0-2.092.196-2.857.585-.765.39-1.148 1.036-1.148 1.935zm6.885 7.425-.405-3.014c-1.5 2.4-3.779 3.599-6.84 3.599-1.35 0-2.572-.292-3.667-.877s-1.965-1.387-2.61-2.407c-.646-1.02-.968-2.206-.968-3.556 0-2.549.997-4.529 2.993-5.94 1.995-1.409 4.627-2.114 7.898-2.114 1.019 0 2.099.089 3.239.269-.12-1.139-.607-2.002-1.462-2.587s-1.898-.878-3.128-.878c-1.08 0-2.167.203-3.262.608-1.096.405-2.137.893-3.127 1.463l-2.656-5.04c1.5-.96 3.12-1.703 4.86-2.228 1.74-.524 3.48-.788 5.22-.788 2.1 0 3.99.36 5.67 1.081 1.68.72 3 1.815 3.96 3.284.96 1.471 1.44 3.33 1.44 5.58v13.545zm12.151 0v-22.905c1.259.27 2.534.405 3.824.405 1.32 0 2.655-.135 4.005-.405v22.905z"/><path d="m71.199 34.943h7.83v-32.85h-7.83z"/><path
      d="m100.403 33.142c-1.38 3.54-2.955 6.18-4.725 7.92s-4.02 2.611-6.75 2.611c-1.23 0-2.34-.136-3.33-.406s-1.83-.6-2.52-.99l2.205-5.399c.42.209.885.389 1.395.54.51.149 1.05.224 1.62.224.81 0 1.537-.195 2.183-.585.645-.39 1.207-1.095 1.687-2.115l.36-.809-10.35-22.096h8.64l5.085 13.726 4.185-13.726h8.505z"/></g><path d="m140.927 34.942-12.015-17.639v17.639h-7.695v-30.599h7.65l11.971 17.955v-17.955h7.74v30.599z" fill="#009bff" class='no-color-change'/><path
      d="m165.542 17.122c-2.55 0-4.08 1.35-4.59 4.051h8.73c-.21-1.47-.713-2.513-1.507-3.128-.795-.615-1.673-.923-2.633-.923zm10.71 15.48c-1.14.81-2.587 1.501-4.342 2.071-1.755.569-3.623.854-5.603.854-2.73 0-5.062-.502-6.997-1.507s-3.42-2.408-4.455-4.208c-1.035-1.799-1.553-3.87-1.553-6.21 0-2.369.51-4.469 1.53-6.299s2.43-3.263 4.23-4.298 3.9-1.553 6.3-1.553c2.34 0 4.403.503 6.188 1.508 1.784 1.006 3.179 2.4 4.185 4.185 1.005 1.785 1.507 3.878 1.507 6.278 0 .33-.022.674-.067 1.034s-.098.736-.158 1.125h-15.975c.72 2.64 2.685 3.961 5.895 3.961 1.44 0 2.715-.226 3.825-.675 1.11-.45 2.04-.9 2.79-1.351z"
      fill="#009bff" class='no-color-change'/><path d="m200.552 34.942-3.69-13.905-3.645 13.905h-8.1l-5.94-22.905h8.01l2.385 14.761 3.87-14.761h6.885l4.005 14.806 2.43-14.806h7.83l-5.94 22.905z" fill="#009bff" class='no-color-change'/><path
      d="m226.517 35.527c-1.98 0-3.833-.314-5.558-.945-1.726-.63-3.278-1.529-4.658-2.699l3.33-4.411c1.05.84 2.183 1.523 3.398 2.048s2.407.787 3.577.787c.78 0 1.402-.134 1.868-.405.465-.269.697-.675.697-1.215 0-.569-.262-1.027-.787-1.372-.525-.344-1.463-.682-2.813-1.012l-2.159-.54c-4.291-1.14-6.436-3.435-6.436-6.885 0-1.531.42-2.85 1.26-3.96s1.995-1.965 3.466-2.566c1.469-.599 3.179-.9 5.129-.9 1.92 0 3.728.301 5.423.9 1.695.601 3.247 1.471 4.658 2.611l-3.42 4.5c-1.051-.84-2.161-1.515-3.33-2.026-1.17-.509-2.266-.764-3.286-.764-1.65 0-2.475.54-2.475 1.62 0 .48.248.87.743 1.17s1.192.57 2.092.809l2.926.81c2.189.601 3.809 1.501 4.859 2.701s1.576 2.625 1.576 4.274c0 1.501-.421 2.813-1.261 3.938s-2.018 1.995-3.532 2.61c-1.516.615-3.278.922-5.287.922m30.119 0c-5.13 0-8.701-2.189-10.71-6.57l6.66-3.194c.479.99 1.005 1.709 1.575 2.16.569.449 1.289.674 2.16.674 1.05 0 1.852-.277 2.407-.832s.833-1.447.833-2.677v-20.745h8.37v20.519c0 2.221-.466 4.126-1.395 5.715-.931 1.591-2.243 2.813-3.937 3.668-1.696.855-3.684 1.282-5.963 1.282m28.034-6.21c1.38 0 2.482-.532 3.308-1.597.825-1.065 1.237-2.482 1.237-4.252s-.412-3.18-1.237-4.231c-.826-1.05-1.928-1.575-3.308-1.575s-2.483.525-3.307 1.575c-.825 1.051-1.238 2.461-1.238 4.231s.413 3.187 1.238 4.252c.824 1.065 1.927 1.597 3.307 1.597zm0 6.21c-2.46 0-4.628-.517-6.502-1.552-1.876-1.035-3.346-2.453-4.41-4.253-1.065-1.799-1.597-3.884-1.597-6.254s.532-4.455 1.597-6.255c1.064-1.801 2.534-3.21 4.41-4.231 1.874-1.019 4.042-1.53 6.502-1.53s4.628.511 6.503 1.53c1.874 1.021 3.344 2.43 4.41 4.231 1.064 1.8 1.598 3.885 1.598 6.255s-.534 4.455-1.598 6.254c-1.066 1.8-2.536 3.218-4.41 4.253-1.875 1.035-4.043 1.552-6.503 1.552zm31.725-.585-.405-3.014c-.75 1.11-1.732 1.987-2.947 2.632s-2.528.967-3.938.967c-2.67 0-4.71-.787-6.12-2.362s-2.114-3.848-2.114-6.818v-14.31h7.829v13.41c0 2.491 1.14 3.735 3.421 3.735 2.399 0 3.599-1.5 3.599-4.5v-12.645h7.83v22.905zm20.475-8.865v8.865h-7.83v-22.905h7.155l.495 3.825c.479-1.229 1.267-2.227 2.362-2.992s2.363-1.148 3.803-1.148c.81 0 1.424.106 1.845.315v7.155c-.331-.119-.698-.209-1.103-.269s-.863-.091-1.372-.091c-1.561 0-2.843.578-3.848 1.733-1.005 1.156-1.507 2.992-1.507 5.512m19.439-3.779v12.644h-7.83v-22.905h7.155l.405 3.016c.75-1.081 1.725-1.951 2.925-2.611 1.2-.659 2.52-.99 3.96-.99 2.49 0 4.485.811 5.986 2.431 1.499 1.62 2.25 3.945 2.25 6.974v14.085h-7.831v-13.184c0-1.35-.3-2.348-.899-2.993-.601-.645-1.441-.967-2.52-.967-1.081 0-1.951.344-2.611 1.034-.66.691-.99 1.846-.99 3.466m26.1 5.219c0 .691.254 1.253.765 1.688.51.435 1.17.652 1.98.652 1.08 0 1.987-.367 2.722-1.102s1.103-1.658 1.103-2.768v-.765c-.81-.149-1.665-.225-2.565-.225-1.141 0-2.092.196-2.857.585-.766.39-1.148 1.036-1.148 1.935zm6.885 7.425-.405-3.014c-1.5 2.4-3.78 3.599-6.84 3.599-1.35 0-2.573-.292-3.667-.877-1.096-.585-1.966-1.387-2.611-2.407s-.967-2.206-.967-3.556c0-2.549.997-4.529 2.993-5.94 1.994-1.409 4.627-2.114 7.897-2.114 1.02 0 2.099.089 3.24.269-.12-1.139-.607-2.002-1.462-2.587s-1.898-.878-3.128-.878c-1.08 0-2.168.203-3.263.608s-2.137.893-3.127 1.463l-2.655-5.04c1.5-.96 3.12-1.703 4.86-2.228 1.739-.524 3.48-.788 5.22-.788 2.099 0 3.99.36 5.67 1.081 1.68.72 2.999 1.815 3.96 3.284.96 1.471 1.44 3.33 1.44 5.58v13.545z"
      fill="#009bff" class='no-color-change'/><path d="m401.444 34.943h7.83v-32.85h-7.83z" fill="#009bff" class='no-color-change'/><path
      d="m61.704 10.237c-1.29 0-2.392-.457-3.307-1.372-.916-.915-1.373-2.018-1.373-3.308 0-1.289.457-2.392 1.373-3.307.915-.915 2.017-1.372 3.307-1.372s2.392.457 3.308 1.372c.915.915 1.372 2.018 1.372 3.307 0 1.29-.457 2.393-1.372 3.308-.916.915-2.018 1.372-3.308 1.372"
      fill="#009bff" class='no-color-change'/></g>
</svg>