<?xml version="1.0" encoding="UTF-8"?>
<svg width="401px" height="46px" viewBox="0 0 401 46" version="1.1" xmlns="http://www.w3.org/2000/svg" xmlns:xlink="http://www.w3.org/1999/xlink">
    <!-- Generator: Sketch 47.1 (45422) - http://www.bohemiancoding.com/sketch -->
    <title>FL_Naples_Logo_Prm_FullClr_RGB</title>
    <desc>Created with Sketch.</desc>
    <defs></defs>
    <g id="Page-1" stroke="none" stroke-width="1" fill="none" fill-rule="evenodd">
        <g id="FL_Naples_Logo_Prm_FullClr_RGB" transform="translate(0.000000, -69.000000)">
            <path d="M269.196,111.853 L270.249,111.853 C270.595,111.853 270.869,111.768 271.071,111.598 C271.272,111.427 271.373,111.195 271.373,110.9 C271.373,110.606 271.272,110.374 271.071,110.203 C270.869,110.033 270.595,109.948 270.249,109.948 L269.196,109.948 L269.196,111.853 Z M268.413,114.557 L268.413,109.289 L270.249,109.289 C270.838,109.289 271.306,109.434 271.652,109.723 C271.998,110.012 272.171,110.405 272.171,110.9 C272.171,111.391 271.998,111.78 271.652,112.067 C271.306,112.353 270.838,112.497 270.249,112.497 L269.196,112.497 L269.196,114.557 L268.413,114.557 L268.413,114.557 Z" id="Fill-1" fill="#404040"></path>
            <path d="M273.751,112.574 L275.673,112.574 L274.712,110.103 L273.751,112.574 Z M276.44,114.557 L275.928,113.232 L273.495,113.232 L272.984,114.557 L272.194,114.557 L274.301,109.289 L275.146,109.289 L277.246,114.557 L276.44,114.557 L276.44,114.557 Z" id="Fill-2" fill="#404040"></path>
            <path d="M278.904,111.776 L279.981,111.776 C280.316,111.776 280.584,111.693 280.782,111.528 C280.981,111.363 281.081,111.141 281.081,110.861 C281.081,110.583 280.981,110.361 280.782,110.195 C280.584,110.03 280.316,109.948 279.981,109.948 L278.904,109.948 L278.904,111.776 Z M278.904,112.419 L278.904,114.557 L278.121,114.557 L278.121,109.289 L279.981,109.289 C280.564,109.289 281.026,109.429 281.367,109.711 C281.708,109.993 281.879,110.376 281.879,110.861 C281.879,111.229 281.775,111.539 281.569,111.791 C281.362,112.044 281.078,112.223 280.716,112.326 L281.995,114.557 L281.104,114.557 L279.903,112.419 L278.904,112.419 L278.904,112.419 Z" id="Fill-3" fill="#404040"></path>
            <polyline id="Fill-4" fill="#404040" points="284.126 114.557 284.126 109.948 282.351 109.948 282.351 109.289 286.682 109.289 286.682 109.948 284.908 109.948 284.908 114.557 284.126 114.557"></polyline>
            <path d="M291.71,113.961 C292.051,113.961 292.355,113.874 292.621,113.701 C292.886,113.528 293.095,113.289 293.244,112.984 C293.394,112.68 293.469,112.326 293.469,111.923 C293.469,111.52 293.394,111.166 293.244,110.861 C293.095,110.557 292.886,110.318 292.621,110.145 C292.355,109.972 292.051,109.885 291.71,109.885 C291.37,109.885 291.067,109.972 290.804,110.145 C290.54,110.318 290.334,110.557 290.184,110.861 C290.034,111.166 289.959,111.52 289.959,111.923 C289.959,112.326 290.034,112.68 290.184,112.984 C290.334,113.289 290.54,113.528 290.804,113.701 C291.067,113.874 291.37,113.961 291.71,113.961 Z M291.71,114.643 C291.215,114.643 290.776,114.526 290.393,114.294 C290.011,114.061 289.71,113.741 289.49,113.333 C289.271,112.925 289.161,112.455 289.161,111.923 C289.161,111.391 289.271,110.921 289.49,110.513 C289.71,110.105 290.011,109.785 290.393,109.552 C290.776,109.32 291.215,109.204 291.71,109.204 C292.206,109.204 292.647,109.32 293.031,109.552 C293.416,109.785 293.718,110.105 293.938,110.513 C294.157,110.921 294.267,111.391 294.267,111.923 C294.267,112.455 294.157,112.925 293.938,113.333 C293.718,113.741 293.416,114.061 293.031,114.294 C292.647,114.526 292.206,114.643 291.71,114.643 L291.71,114.643 Z" id="Fill-5" fill="#404040"></path>
            <polyline id="Fill-6" fill="#404040" points="296.15 114.557 295.367 114.557 295.367 109.289 298.645 109.289 298.645 109.948 296.15 109.948 296.15 111.73 298.265 111.73 298.265 112.388 296.15 112.388 296.15 114.557"></polyline>
            <polyline id="Fill-7" fill="#404040" points="302.727 114.557 302.727 109.948 300.953 109.948 300.953 109.289 305.284 109.289 305.284 109.948 303.51 109.948 303.51 114.557 302.727 114.557"></polyline>
            <polyline id="Fill-8" fill="#404040" points="306.183 114.557 306.183 109.289 306.965 109.289 306.965 111.543 309.685 111.543 309.685 109.289 310.467 109.289 310.467 114.557 309.685 114.557 309.685 112.217 306.965 112.217 306.965 114.557 306.183 114.557"></polyline>
            <polyline id="Fill-9" fill="#404040" points="311.846 114.557 311.846 109.289 315.224 109.289 315.224 109.948 312.629 109.948 312.629 111.574 314.914 111.574 314.914 112.233 312.629 112.233 312.629 113.899 315.286 113.899 315.286 114.557 311.846 114.557"></polyline>
            <path d="M320.229,113.961 C320.658,113.961 320.995,113.832 321.24,113.573 C321.485,113.315 321.608,112.966 321.608,112.527 L321.608,109.289 L322.391,109.289 L322.391,112.535 C322.391,113.191 322.198,113.706 321.814,114.081 C321.429,114.455 320.9,114.643 320.229,114.643 C319.558,114.643 319.031,114.455 318.649,114.081 C318.267,113.706 318.076,113.191 318.076,112.535 L318.076,109.289 L318.858,109.289 L318.858,112.527 C318.858,112.966 318.981,113.315 319.226,113.573 C319.471,113.832 319.806,113.961 320.229,113.961" id="Fill-10" fill="#404040"></path>
            <path d="M325.312,114.643 C324.914,114.643 324.534,114.573 324.173,114.434 C323.811,114.294 323.519,114.108 323.297,113.876 L323.739,113.356 C323.945,113.548 324.189,113.697 324.471,113.806 C324.753,113.914 325.033,113.968 325.312,113.968 C325.652,113.968 325.928,113.903 326.137,113.771 C326.346,113.639 326.451,113.457 326.451,113.225 C326.451,113.013 326.376,112.835 326.226,112.69 C326.076,112.545 325.82,112.424 325.459,112.326 L324.731,112.132 C324.26,112.008 323.918,111.833 323.704,111.605 C323.49,111.378 323.383,111.081 323.383,110.715 C323.383,110.415 323.463,110.151 323.622,109.924 C323.783,109.697 324.003,109.52 324.285,109.393 C324.567,109.267 324.885,109.204 325.242,109.204 C325.619,109.204 325.973,109.275 326.303,109.417 C326.634,109.559 326.926,109.757 327.179,110.009 L326.706,110.521 C326.484,110.314 326.253,110.155 326.013,110.044 C325.773,109.933 325.518,109.878 325.25,109.878 C324.924,109.878 324.658,109.946 324.452,110.083 C324.245,110.22 324.142,110.41 324.142,110.652 C324.142,110.875 324.215,111.048 324.362,111.172 C324.51,111.296 324.735,111.399 325.04,111.482 L325.854,111.706 C326.324,111.835 326.667,112.016 326.884,112.249 C327.102,112.481 327.21,112.77 327.21,113.116 C327.21,113.421 327.13,113.688 326.97,113.918 C326.809,114.148 326.587,114.326 326.303,114.452 C326.019,114.579 325.689,114.643 325.312,114.643" id="Fill-11" fill="#404040"></path>
            <path d="M329.178,112.574 L331.099,112.574 L330.138,110.103 L329.178,112.574 Z M331.866,114.557 L331.355,113.232 L328.922,113.232 L328.411,114.557 L327.621,114.557 L329.728,109.289 L330.572,109.289 L332.672,114.557 L331.866,114.557 L331.866,114.557 Z" id="Fill-12" fill="#404040"></path>
            <polyline id="Fill-13" fill="#404040" points="336.313 114.557 336.313 109.948 334.539 109.948 334.539 109.289 338.87 109.289 338.87 109.948 337.096 109.948 337.096 114.557 336.313 114.557"></polyline>
            <path d="M341.69,113.961 C342.031,113.961 342.335,113.874 342.601,113.701 C342.867,113.528 343.074,113.289 343.224,112.984 C343.374,112.68 343.449,112.326 343.449,111.923 C343.449,111.52 343.374,111.166 343.224,110.861 C343.074,110.557 342.867,110.318 342.601,110.145 C342.335,109.972 342.031,109.885 341.69,109.885 C341.349,109.885 341.047,109.972 340.784,110.145 C340.52,110.318 340.314,110.557 340.164,110.861 C340.014,111.166 339.939,111.52 339.939,111.923 C339.939,112.326 340.014,112.68 340.164,112.984 C340.314,113.289 340.52,113.528 340.784,113.701 C341.047,113.874 341.349,113.961 341.69,113.961 Z M341.69,114.643 C341.194,114.643 340.755,114.526 340.373,114.294 C339.991,114.061 339.69,113.741 339.471,113.333 C339.251,112.925 339.141,112.455 339.141,111.923 C339.141,111.391 339.251,110.921 339.471,110.513 C339.69,110.105 339.991,109.785 340.373,109.552 C340.755,109.32 341.194,109.204 341.69,109.204 C342.186,109.204 342.626,109.32 343.011,109.552 C343.396,109.785 343.698,110.105 343.918,110.513 C344.137,110.921 344.247,111.391 344.247,111.923 C344.247,112.455 344.137,112.925 343.918,113.333 C343.698,113.741 343.396,114.061 343.011,114.294 C342.626,114.526 342.186,114.643 341.69,114.643 L341.69,114.643 Z" id="Fill-14" fill="#404040"></path>
            <path d="M346.13,113.899 L347.199,113.899 C347.571,113.899 347.89,113.817 348.156,113.655 C348.422,113.492 348.625,113.264 348.768,112.969 C348.91,112.675 348.981,112.326 348.981,111.923 C348.981,111.52 348.91,111.172 348.768,110.877 C348.625,110.583 348.422,110.354 348.156,110.192 C347.89,110.029 347.571,109.948 347.199,109.948 L346.13,109.948 L346.13,113.899 Z M345.347,114.557 L345.347,109.289 L347.199,109.289 C347.715,109.289 348.167,109.399 348.555,109.618 C348.942,109.838 349.243,110.145 349.457,110.54 C349.672,110.935 349.779,111.396 349.779,111.923 C349.779,112.45 349.672,112.911 349.457,113.306 C349.243,113.701 348.942,114.008 348.555,114.228 C348.167,114.448 347.715,114.557 347.199,114.557 L345.347,114.557 L345.347,114.557 Z" id="Fill-15" fill="#404040"></path>
            <path d="M351.777,112.574 L353.699,112.574 L352.738,110.103 L351.777,112.574 Z M354.466,114.557 L353.955,113.232 L351.522,113.232 L351.01,114.557 L350.22,114.557 L352.328,109.289 L353.172,109.289 L355.272,114.557 L354.466,114.557 L354.466,114.557 Z" id="Fill-16" fill="#404040"></path>
            <polyline id="Fill-17" fill="#404040" points="357.674 112.465 357.674 114.557 356.891 114.557 356.891 112.465 355.039 109.289 355.962 109.289 357.287 111.721 358.611 109.289 359.518 109.289 357.674 112.465"></polyline>
            <polyline id="Fill-18" fill="#404040" points="365.778 114.557 362.965 110.521 362.965 114.557 362.229 114.557 362.229 109.289 362.958 109.289 365.778 113.325 365.778 109.289 366.506 109.289 366.506 114.557 365.778 114.557"></polyline>
            <polyline id="Fill-19" fill="#404040" points="367.885 114.557 367.885 109.289 371.263 109.289 371.263 109.948 368.668 109.948 368.668 111.574 370.953 111.574 370.953 112.233 368.668 112.233 368.668 113.899 371.325 113.899 371.325 114.557 367.885 114.557"></polyline>
            <polyline id="Fill-20" fill="#404040" points="373.649 114.557 373.649 109.948 371.875 109.948 371.875 109.289 376.206 109.289 376.206 109.948 374.432 109.948 374.432 114.557 373.649 114.557"></polyline>
            <polyline id="Fill-21" fill="#404040" points="381.319 114.557 380.087 110.358 378.856 114.557 378.042 114.557 376.64 109.289 377.415 109.289 378.484 113.457 379.716 109.289 380.46 109.289 381.699 113.473 382.776 109.289 383.535 109.289 382.133 114.557 381.319 114.557"></polyline>
            <path d="M386.642,113.961 C386.983,113.961 387.287,113.874 387.553,113.701 C387.818,113.528 388.027,113.289 388.176,112.984 C388.326,112.68 388.401,112.326 388.401,111.923 C388.401,111.52 388.326,111.166 388.176,110.861 C388.027,110.557 387.818,110.318 387.553,110.145 C387.287,109.972 386.983,109.885 386.642,109.885 C386.302,109.885 385.999,109.972 385.736,110.145 C385.472,110.318 385.266,110.557 385.116,110.861 C384.966,111.166 384.891,111.52 384.891,111.923 C384.891,112.326 384.966,112.68 385.116,112.984 C385.266,113.289 385.472,113.528 385.736,113.701 C385.999,113.874 386.302,113.961 386.642,113.961 Z M386.642,114.643 C386.147,114.643 385.708,114.526 385.325,114.294 C384.943,114.061 384.642,113.741 384.422,113.333 C384.203,112.925 384.093,112.455 384.093,111.923 C384.093,111.391 384.203,110.921 384.422,110.513 C384.642,110.105 384.943,109.785 385.325,109.552 C385.708,109.32 386.147,109.204 386.642,109.204 C387.138,109.204 387.579,109.32 387.963,109.552 C388.348,109.785 388.65,110.105 388.87,110.513 C389.089,110.921 389.199,111.391 389.199,111.923 C389.199,112.455 389.089,112.925 388.87,113.333 C388.65,113.741 388.348,114.061 387.963,114.294 C387.579,114.526 387.138,114.643 386.642,114.643 L386.642,114.643 Z" id="Fill-22" fill="#404040"></path>
            <path d="M391.082,111.776 L392.158,111.776 C392.494,111.776 392.761,111.693 392.96,111.528 C393.159,111.363 393.259,111.141 393.259,110.861 C393.259,110.583 393.159,110.361 392.96,110.195 C392.761,110.03 392.494,109.948 392.158,109.948 L391.082,109.948 L391.082,111.776 Z M391.082,112.419 L391.082,114.557 L390.299,114.557 L390.299,109.289 L392.158,109.289 C392.742,109.289 393.205,109.429 393.545,109.711 C393.886,109.993 394.057,110.376 394.057,110.861 C394.057,111.229 393.954,111.539 393.747,111.791 C393.54,112.044 393.256,112.223 392.895,112.326 L394.173,114.557 L393.282,114.557 L392.081,112.419 L391.082,112.419 L391.082,112.419 Z" id="Fill-23" fill="#404040"></path>
            <polyline id="Fill-24" fill="#404040" points="398.31 114.557 395.947 111.9 395.947 114.557 395.165 114.557 395.165 109.289 395.947 109.289 395.947 111.598 398.155 109.289 399.124 109.289 396.776 111.706 399.294 114.557 398.31 114.557"></polyline>
            <polyline id="Fill-25" fill="#009BFF" class='no-color-change' points="20.067 103.194 8.052 85.554 8.052 103.194 0.357 103.194 0.357 72.593 8.007 72.593 19.977 90.548 19.977 72.593 27.717 72.593 27.717 103.194 20.067 103.194"></polyline>
            <path d="M40.002,95.768 C40.002,96.459 40.256,97.021 40.767,97.456 C41.277,97.891 41.937,98.109 42.747,98.109 C43.827,98.109 44.734,97.742 45.469,97.006 C46.204,96.271 46.572,95.349 46.572,94.239 L46.572,93.473 C45.762,93.324 44.907,93.248 44.007,93.248 C42.866,93.248 41.914,93.444 41.15,93.833 C40.384,94.224 40.002,94.868 40.002,95.768 Z M46.887,103.194 L46.482,100.179 C44.982,102.579 42.702,103.779 39.642,103.779 C38.292,103.779 37.069,103.486 35.974,102.901 C34.879,102.316 34.009,101.514 33.364,100.493 C32.719,99.474 32.397,98.288 32.397,96.939 C32.397,94.389 33.394,92.409 35.39,90.998 C37.384,89.589 40.017,88.883 43.287,88.883 C44.307,88.883 45.386,88.973 46.527,89.154 C46.407,88.014 45.919,87.151 45.064,86.566 C44.209,85.981 43.167,85.689 41.937,85.689 C40.857,85.689 39.769,85.891 38.674,86.296 C37.579,86.701 36.537,87.189 35.547,87.758 L32.892,82.718 C34.392,81.758 36.012,81.016 37.752,80.491 C39.491,79.966 41.232,79.703 42.972,79.703 C45.071,79.703 46.962,80.064 48.642,80.784 C50.322,81.503 51.641,82.599 52.602,84.069 C53.562,85.538 54.042,87.399 54.042,89.649 L54.042,103.194 L46.887,103.194 L46.887,103.194 Z" id="Fill-26" fill="#009BFF" class='no-color-change'></path>
            <path d="M71.232,97.569 C72.611,97.569 73.714,97.036 74.539,95.971 C75.364,94.907 75.777,93.489 75.777,91.718 C75.777,89.949 75.364,88.531 74.539,87.466 C73.714,86.402 72.611,85.868 71.232,85.868 C69.882,85.868 68.794,86.402 67.969,87.466 C67.144,88.531 66.732,89.949 66.732,91.718 C66.732,93.489 67.144,94.907 67.969,95.971 C68.794,97.036 69.882,97.569 71.232,97.569 Z M73.347,103.779 C71.997,103.779 70.766,103.493 69.657,102.923 C68.547,102.354 67.616,101.574 66.867,100.583 L66.867,111.518 L59.037,111.518 L59.037,80.288 L66.192,80.288 L66.597,83.304 C67.317,82.223 68.284,81.354 69.499,80.694 C70.714,80.034 72.116,79.703 73.707,79.703 C75.657,79.703 77.381,80.214 78.882,81.234 C80.382,82.254 81.566,83.663 82.437,85.463 C83.306,87.263 83.742,89.349 83.742,91.718 C83.742,94.089 83.299,96.181 82.414,97.996 C81.529,99.811 80.299,101.229 78.724,102.248 C77.149,103.268 75.356,103.779 73.347,103.779 L73.347,103.779 Z" id="Fill-27" fill="#009BFF" class='no-color-change'></path>
            <polygon id="Fill-28" fill="#009BFF" class='no-color-change' points="87.837 103.194 95.667 103.194 95.667 70.343 87.837 70.343"></polygon>
            <path d="M112.001,85.373 C109.451,85.373 107.921,86.723 107.411,89.423 L116.141,89.423 C115.931,87.954 115.428,86.911 114.634,86.296 C113.838,85.681 112.961,85.373 112.001,85.373 Z M122.711,100.853 C121.571,101.663 120.124,102.354 118.369,102.923 C116.614,103.493 114.746,103.779 112.766,103.779 C110.036,103.779 107.704,103.276 105.769,102.271 C103.834,101.266 102.349,99.864 101.314,98.064 C100.279,96.263 99.761,94.194 99.761,91.853 C99.761,89.484 100.271,87.384 101.291,85.554 C102.311,83.724 103.721,82.291 105.521,81.256 C107.321,80.221 109.421,79.703 111.821,79.703 C114.161,79.703 116.223,80.206 118.009,81.211 C119.793,82.216 121.188,83.612 122.194,85.396 C123.199,87.181 123.701,89.274 123.701,91.673 C123.701,92.004 123.679,92.348 123.634,92.708 C123.589,93.069 123.536,93.444 123.476,93.833 L107.501,93.833 C108.221,96.474 110.186,97.793 113.396,97.793 C114.836,97.793 116.111,97.569 117.221,97.118 C118.331,96.668 119.261,96.218 120.011,95.768 L122.711,100.853 L122.711,100.853 Z" id="Fill-29" fill="#009BFF" class='no-color-change'></path>
            <path d="M136.211,103.779 C134.231,103.779 132.378,103.463 130.653,102.833 C128.928,102.203 127.376,101.304 125.996,100.133 L129.326,95.723 C130.376,96.564 131.509,97.246 132.723,97.771 C133.939,98.296 135.131,98.558 136.301,98.558 C137.081,98.558 137.703,98.423 138.169,98.154 C138.633,97.883 138.866,97.478 138.866,96.939 C138.866,96.369 138.603,95.911 138.078,95.566 C137.553,95.221 136.616,94.884 135.266,94.554 L133.106,94.013 C128.815,92.873 126.671,90.578 126.671,87.128 C126.671,85.598 127.091,84.279 127.931,83.168 C128.771,82.059 129.926,81.204 131.396,80.603 C132.866,80.004 134.576,79.703 136.526,79.703 C138.446,79.703 140.253,80.004 141.949,80.603 C143.643,81.204 145.196,82.074 146.606,83.213 L143.186,87.713 C142.136,86.874 141.026,86.199 139.856,85.689 C138.686,85.179 137.591,84.923 136.571,84.923 C134.921,84.923 134.096,85.463 134.096,86.543 C134.096,87.024 134.344,87.414 134.838,87.713 C135.334,88.014 136.031,88.284 136.931,88.524 L139.856,89.333 C142.045,89.934 143.666,90.834 144.716,92.034 C145.766,93.234 146.291,94.659 146.291,96.308 C146.291,97.809 145.87,99.121 145.031,100.246 C144.191,101.371 143.013,102.242 141.499,102.856 C139.983,103.471 138.221,103.779 136.211,103.779" id="Fill-30" fill="#009BFF" class='no-color-change'></path>
            <path d="M170.231,96.578 L174.055,96.578 C176.245,96.578 177.977,95.784 179.253,94.194 C180.528,92.604 181.165,90.503 181.165,87.893 C181.165,85.284 180.528,83.184 179.253,81.593 C177.977,80.004 176.245,79.208 174.055,79.208 L170.231,79.208 L170.231,96.578 Z M161.995,103.194 L161.995,72.593 L174.055,72.593 C177.085,72.593 179.763,73.246 182.088,74.551 C184.412,75.856 186.235,77.656 187.555,79.951 C188.875,82.246 189.535,84.894 189.535,87.893 C189.535,90.894 188.875,93.541 187.555,95.836 C186.235,98.131 184.412,99.931 182.088,101.236 C179.763,102.541 177.085,103.194 174.055,103.194 L161.995,103.194 L161.995,103.194 Z" id="Fill-31" fill="#404040"></path>
            <path d="M200.065,95.768 C200.065,96.459 200.32,97.021 200.83,97.456 C201.34,97.891 202,98.109 202.81,98.109 C203.89,98.109 204.797,97.742 205.533,97.006 C206.267,96.271 206.635,95.349 206.635,94.239 L206.635,93.473 C205.825,93.324 204.97,93.248 204.07,93.248 C202.93,93.248 201.977,93.444 201.213,93.833 C200.448,94.224 200.065,94.868 200.065,95.768 Z M206.95,103.194 L206.545,100.179 C205.045,102.579 202.765,103.779 199.705,103.779 C198.355,103.779 197.133,103.486 196.038,102.901 C194.942,102.316 194.072,101.514 193.428,100.493 C192.782,99.474 192.46,98.288 192.46,96.939 C192.46,94.389 193.457,92.409 195.453,90.998 C197.447,89.589 200.08,88.883 203.35,88.883 C204.37,88.883 205.45,88.973 206.59,89.154 C206.47,88.014 205.982,87.151 205.128,86.566 C204.272,85.981 203.23,85.689 202,85.689 C200.92,85.689 199.832,85.891 198.738,86.296 C197.642,86.701 196.6,87.189 195.61,87.758 L192.955,82.718 C194.455,81.758 196.075,81.016 197.815,80.491 C199.555,79.966 201.295,79.703 203.035,79.703 C205.135,79.703 207.025,80.064 208.705,80.784 C210.385,81.503 211.705,82.599 212.665,84.069 C213.625,85.538 214.105,87.399 214.105,89.649 L214.105,103.194 L206.95,103.194 L206.95,103.194 Z" id="Fill-32" fill="#404040"></path>
            <path d="M219.1,103.194 L219.1,80.288 C220.36,80.558 221.635,80.694 222.925,80.694 C224.245,80.694 225.58,80.558 226.93,80.288 L226.93,103.194 L219.1,103.194" id="Fill-33" fill="#404040"></path>
            <polygon id="Fill-34" fill="#404040" points="232.42 103.194 240.249 103.194 240.249 70.343 232.42 70.343"></polygon>
            <path d="M261.624,101.393 C260.244,104.933 258.669,107.574 256.899,109.314 C255.129,111.053 252.879,111.923 250.149,111.923 C248.919,111.923 247.809,111.788 246.819,111.518 C245.829,111.248 244.989,110.918 244.299,110.529 L246.504,105.128 C246.924,105.338 247.388,105.518 247.899,105.668 C248.409,105.818 248.949,105.893 249.519,105.893 C250.329,105.893 251.056,105.698 251.701,105.308 C252.346,104.918 252.909,104.213 253.389,103.194 L253.749,102.383 L243.399,80.288 L252.039,80.288 L257.124,94.013 L261.309,80.288 L269.814,80.288 L261.624,101.393" id="Fill-35" fill="#404040"></path>
            <polyline id="Fill-36" fill="#404040" points="304.148 103.194 292.133 85.554 292.133 103.194 284.438 103.194 284.438 72.593 292.088 72.593 304.058 90.548 304.058 72.593 311.798 72.593 311.798 103.194 304.148 103.194"></polyline>
            <path d="M328.763,85.373 C326.213,85.373 324.682,86.723 324.173,89.423 L332.903,89.423 C332.693,87.954 332.19,86.911 331.395,86.296 C330.6,85.681 329.722,85.373 328.763,85.373 Z M339.473,100.853 C338.332,101.663 336.886,102.354 335.131,102.923 C333.375,103.493 331.508,103.779 329.528,103.779 C326.798,103.779 324.466,103.276 322.53,102.271 C320.596,101.266 319.11,99.864 318.076,98.064 C317.04,96.263 316.523,94.194 316.523,91.853 C316.523,89.484 317.033,87.384 318.053,85.554 C319.072,83.724 320.483,82.291 322.283,81.256 C324.083,80.221 326.182,79.703 328.583,79.703 C330.923,79.703 332.985,80.206 334.77,81.211 C336.555,82.216 337.95,83.612 338.955,85.396 C339.96,87.181 340.463,89.274 340.463,91.673 C340.463,92.004 340.44,92.348 340.395,92.708 C340.35,93.069 340.298,93.444 340.238,93.833 L324.263,93.833 C324.983,96.474 326.947,97.793 330.158,97.793 C331.598,97.793 332.873,97.569 333.983,97.118 C335.093,96.668 336.023,96.218 336.773,95.768 L339.473,100.853 L339.473,100.853 Z" id="Fill-37" fill="#404040"></path>
            <polyline id="Fill-38" fill="#404040" points="363.773 103.194 360.083 89.288 356.438 103.194 348.338 103.194 342.398 80.288 350.408 80.288 352.793 95.048 356.663 80.288 363.548 80.288 367.553 95.093 369.983 80.288 377.813 80.288 371.873 103.194 363.773 103.194"></polyline>
            <path d="M389.737,103.779 C387.757,103.779 385.904,103.463 384.18,102.833 C382.454,102.203 380.902,101.304 379.522,100.133 L382.852,95.723 C383.902,96.564 385.035,97.246 386.25,97.771 C387.465,98.296 388.657,98.558 389.827,98.558 C390.607,98.558 391.229,98.423 391.695,98.154 C392.159,97.883 392.392,97.478 392.392,96.939 C392.392,96.369 392.129,95.911 391.605,95.566 C391.079,95.221 390.142,94.884 388.792,94.554 L386.632,94.013 C382.342,92.873 380.197,90.578 380.197,87.128 C380.197,85.598 380.617,84.279 381.457,83.168 C382.297,82.059 383.452,81.204 384.922,80.603 C386.391,80.004 388.102,79.703 390.052,79.703 C391.971,79.703 393.78,80.004 395.474,80.603 C397.169,81.204 398.721,82.074 400.132,83.213 L396.712,87.713 C395.661,86.874 394.552,86.199 393.382,85.689 C392.212,85.179 391.117,84.923 390.097,84.923 C388.447,84.923 387.622,85.463 387.622,86.543 C387.622,87.024 387.87,87.414 388.365,87.713 C388.86,88.014 389.557,88.284 390.457,88.524 L393.382,89.333 C395.572,89.934 397.192,90.834 398.242,92.034 C399.292,93.234 399.817,94.659 399.817,96.308 C399.817,97.809 399.397,99.121 398.557,100.246 C397.717,101.371 396.539,102.242 395.025,102.856 C393.51,103.471 391.747,103.779 389.737,103.779" id="Fill-39" fill="#404040"></path>
            <path d="M222.925,78.489 C221.635,78.489 220.532,78.032 219.617,77.116 C218.702,76.201 218.245,75.099 218.245,73.808 C218.245,72.519 218.702,71.416 219.617,70.501 C220.532,69.586 221.635,69.128 222.925,69.128 C224.215,69.128 225.317,69.586 226.232,70.501 C227.147,71.416 227.605,72.519 227.605,73.808 C227.605,75.099 227.147,76.201 226.232,77.116 C225.317,78.032 224.215,78.489 222.925,78.489" id="Fill-40" fill="#009BFF" class='no-color-change'></path>
        </g>
    </g>
</svg>
