<svg xmlns="http://www.w3.org/2000/svg" width="349" height="55" viewBox="0 0 349 55">
  <g fill="none" fill-rule="evenodd">
    <path class='no-color-change' fill="#009BFF" d="M54.176,27.824 C54.176,42.737 42.089,54.824 27.176,54.824 C12.263,54.824 0.176,42.737 0.176,27.824 C0.176,12.911 12.263,0.824 27.176,0.824 C42.089,0.824 54.176,12.911 54.176,27.824"/>
    <path fill="#404040" d="M69.537 21.55C70.516 21.55 71.272 21.262 71.806 20.684 72.339 20.107 72.606 19.286 72.606 18.219L72.606 7.439 77.484 7.439 77.484 18.193C77.484 20.554 76.793 22.381 75.412 23.675 74.031 24.969 72.072 25.615 69.537 25.615 67.002 25.615 65.043 24.969 63.662 23.675 62.28 22.381 61.59 20.554 61.59 18.193L61.59 7.439 66.468 7.439 66.468 18.219C66.468 19.286 66.735 20.107 67.268 20.684 67.801 21.262 68.557 21.55 69.537 21.55M87.241 25.615C85.79 25.615 84.4 25.366 83.071 24.868 81.742 24.37 80.588 23.657 79.609 22.73L81.969 19.766C82.669 20.396 83.455 20.891 84.33 21.249 85.204 21.607 86.166 21.786 87.215 21.786 87.914 21.786 88.465 21.664 88.867 21.419 89.269 21.175 89.47 20.808 89.47 20.317 89.47 19.846 89.235 19.465 88.762 19.177 88.29 18.888 87.46 18.586 86.271 18.271L85.169 17.983C83.56 17.563 82.337 16.921 81.497 16.056 80.658 15.189 80.238 14.093 80.238 12.764 80.238 11.627 80.535 10.631 81.13 9.773 81.724 8.917 82.546 8.257 83.595 7.793 84.645 7.33 85.86 7.099 87.241 7.099 88.605 7.099 89.907 7.348 91.149 7.846 92.391 8.344 93.492 9.021 94.454 9.879L92.015 12.947C91.386 12.405 90.646 11.933 89.799 11.531 88.95 11.129 88.107 10.928 87.267 10.928 86.568 10.928 86.03 11.046 85.655 11.281 85.278 11.517 85.091 11.863 85.091 12.317 85.091 12.737 85.287 13.1 85.68 13.406 86.074 13.712 86.752 13.996 87.713 14.259L89.051 14.626C90.974 15.15 92.334 15.867 93.13 16.776 93.925 17.685 94.323 18.744 94.323 19.95 94.323 21.087 94.03 22.079 93.444 22.927 92.858 23.775 92.032 24.435 90.966 24.907 89.899 25.38 88.657 25.615 87.241 25.615M102.48 18.324L106.703 18.324 104.604 12.082 102.48 18.324zM109.063 25.274L107.935 21.943 101.247 21.943 100.119 25.274 95.293 25.274 101.824 7.439 107.49 7.439 114.02 25.274 109.063 25.274 109.063 25.274z"/>
    <polyline fill="#404040" points="125.219 25.274 125.219 11.373 119.921 11.373 119.921 7.439 135.396 7.439 135.396 11.373 130.098 11.373 130.098 25.274 125.219 25.274"/>
    <path fill="#404040" d="M145.599 21.576C146.455 21.576 147.203 21.358 147.841 20.921 148.479 20.483 148.982 19.876 149.349 19.098 149.717 18.32 149.9 17.415 149.9 16.383 149.9 15.351 149.717 14.442 149.349 13.655 148.982 12.868 148.479 12.252 147.841 11.807 147.203 11.36 146.455 11.138 145.599 11.138 144.742 11.138 143.994 11.36 143.356 11.807 142.718 12.252 142.215 12.868 141.848 13.655 141.481 14.442 141.297 15.351 141.297 16.383 141.297 17.415 141.481 18.32 141.848 19.098 142.215 19.876 142.718 20.483 143.356 20.921 143.994 21.358 144.742 21.576 145.599 21.576zM145.599 25.615C143.815 25.615 142.228 25.222 140.838 24.435 139.448 23.648 138.35 22.559 137.547 21.17 136.742 19.779 136.34 18.184 136.34 16.383 136.34 15.019 136.567 13.773 137.022 12.645 137.476 11.517 138.123 10.539 138.963 9.708 139.802 8.878 140.781 8.235 141.901 7.78 143.019 7.326 144.252 7.099 145.599 7.099 146.945 7.099 148.178 7.326 149.297 7.78 150.416 8.235 151.395 8.878 152.235 9.708 153.074 10.539 153.72 11.517 154.176 12.645 154.63 13.773 154.857 15.019 154.857 16.383 154.857 18.184 154.455 19.779 153.651 21.17 152.846 22.559 151.749 23.648 150.359 24.435 148.969 25.222 147.382 25.615 145.599 25.615L145.599 25.615zM162.464 21.419L164.693 21.419C165.969 21.419 166.979 20.956 167.722 20.029 168.466 19.102 168.837 17.878 168.837 16.357 168.837 14.836 168.466 13.612 167.722 12.684 166.979 11.759 165.969 11.295 164.693 11.295L162.464 11.295 162.464 21.419zM157.664 25.274L157.664 7.439 164.693 7.439C166.459 7.439 168.019 7.819 169.375 8.58 170.73 9.341 171.792 10.39 172.561 11.727 173.331 13.065 173.716 14.608 173.716 16.357 173.716 18.105 173.331 19.648 172.561 20.986 171.792 22.324 170.73 23.373 169.375 24.134 168.019 24.894 166.459 25.274 164.693 25.274L157.664 25.274 157.664 25.274zM181.532 18.324L185.754 18.324 183.656 12.082 181.532 18.324zM188.115 25.274L186.987 21.943 180.299 21.943 179.171 25.274 174.345 25.274 180.875 7.439 186.541 7.439 193.072 25.274 188.115 25.274 188.115 25.274z"/>
    <polyline fill="#404040" points="202.514 18.849 202.514 25.274 197.557 25.274 197.557 18.849 191.236 7.439 196.744 7.439 200.049 14.52 203.327 7.439 208.835 7.439 202.514 18.849"/>
    <polyline fill="#404040" points="227.797 25.274 220.795 14.993 220.795 25.274 216.309 25.274 216.309 7.439 220.768 7.439 227.744 17.904 227.744 7.439 232.256 7.439 232.256 25.274 227.797 25.274"/>
    <polyline fill="#404040" points="236.191 25.274 236.191 7.439 248.492 7.439 248.492 11.348 240.965 11.348 240.965 14.363 247.653 14.363 247.653 18.271 240.965 18.271 240.965 21.366 248.912 21.366 248.912 25.274 236.191 25.274"/>
    <polyline fill="#404040" points="255.914 25.274 255.914 11.373 250.616 11.373 250.616 7.439 266.091 7.439 266.091 11.373 260.793 11.373 260.793 25.274 255.914 25.274"/>
    <polyline fill="#404040" points="282.562 25.274 279.677 13.682 276.791 25.274 271.624 25.274 267.192 7.439 271.913 7.439 274.615 19.609 277.605 7.439 281.775 7.439 284.739 19.53 287.519 7.439 292.161 7.439 287.729 25.274 282.562 25.274"/>
    <path fill="#404040" d="M302.548 21.576C303.405 21.576 304.152 21.358 304.79 20.921 305.429 20.483 305.931 19.876 306.298 19.098 306.665 18.32 306.85 17.415 306.85 16.383 306.85 15.351 306.665 14.442 306.298 13.655 305.931 12.868 305.429 12.252 304.79 11.807 304.152 11.36 303.405 11.138 302.548 11.138 301.691 11.138 300.944 11.36 300.305 11.807 299.667 12.252 299.164 12.868 298.797 13.655 298.43 14.442 298.246 15.351 298.246 16.383 298.246 17.415 298.43 18.32 298.797 19.098 299.164 19.876 299.667 20.483 300.305 20.921 300.944 21.358 301.691 21.576 302.548 21.576zM302.548 25.615C300.764 25.615 299.178 25.222 297.787 24.435 296.398 23.648 295.3 22.559 294.495 21.17 293.692 19.779 293.289 18.184 293.289 16.383 293.289 15.019 293.516 13.773 293.971 12.645 294.426 11.517 295.073 10.539 295.912 9.708 296.751 8.878 297.731 8.235 298.85 7.78 299.968 7.326 301.201 7.099 302.548 7.099 303.894 7.099 305.127 7.326 306.246 7.78 307.365 8.235 308.344 8.878 309.184 9.708 310.023 10.539 310.67 11.517 311.124 12.645 311.579 13.773 311.807 15.019 311.807 16.383 311.807 18.184 311.405 19.779 310.6 21.17 309.795 22.559 308.698 23.648 307.309 24.435 305.918 25.222 304.331 25.615 302.548 25.615L302.548 25.615zM319.387 15.648L322.01 15.648C322.761 15.648 323.356 15.452 323.793 15.058 324.23 14.665 324.448 14.128 324.448 13.445 324.448 12.799 324.23 12.278 323.793 11.885 323.356 11.491 322.761 11.295 322.01 11.295L319.387 11.295 319.387 15.648zM319.387 19.347L319.387 25.274 314.665 25.274 314.665 7.439 322.534 7.439C324.632 7.439 326.293 7.976 327.518 9.053 328.741 10.128 329.354 11.593 329.354 13.445 329.354 14.652 329.082 15.692 328.54 16.566 327.998 17.441 327.238 18.123 326.259 18.612L329.905 25.274 324.711 25.274 321.747 19.347 319.387 19.347 319.387 19.347z"/>
    <polyline fill="#404040" points="343.044 25.274 337.379 16.555 337.379 25.274 332.527 25.274 332.527 7.439 337.379 7.439 337.379 15.268 343.254 7.439 348.867 7.439 342.258 15.636 348.737 25.274 343.044 25.274"/>
    <polyline class='no-color-change' fill="#009BFF" points="73.078 48.128 66.075 37.847 66.075 48.128 61.59 48.128 61.59 30.293 66.049 30.293 73.026 40.758 73.026 30.293 77.537 30.293 77.537 48.128 73.078 48.128"/>
    <path class='no-color-change' fill="#009BFF" d="M87.058 41.178L91.281 41.178 89.182 34.936 87.058 41.178zM93.641 48.128L92.513 44.797 85.825 44.797 84.698 48.128 79.871 48.128 86.402 30.293 92.068 30.293 98.598 48.128 93.641 48.128 93.641 48.128zM105.654 38.451L108.014 38.451C108.765 38.451 109.36 38.253 109.798 37.86 110.234 37.466 110.453 36.947 110.453 36.299 110.453 35.653 110.234 35.132 109.798 34.739 109.36 34.345 108.765 34.149 108.014 34.149L105.654 34.149 105.654 38.451zM100.932 48.128L100.932 30.293 108.486 30.293C110.584 30.293 112.245 30.83 113.469 31.907 114.693 32.982 115.305 34.447 115.305 36.299 115.305 37.506 115.03 38.551 114.479 39.434 113.928 40.317 113.155 40.998 112.158 41.48 111.161 41.96 109.972 42.201 108.591 42.201L105.654 42.201 105.654 48.128 100.932 48.128 100.932 48.128z"/>
    <polyline class='no-color-change' fill="#009BFF" points="122.886 44.195 130.308 44.195 130.308 48.128 118.007 48.128 118.007 30.293 122.886 30.293 122.886 44.195"/>
    <polyline class='no-color-change' fill="#009BFF" points="132.878 48.128 132.878 30.293 145.179 30.293 145.179 34.202 137.652 34.202 137.652 37.217 144.34 37.217 144.34 41.125 137.652 41.125 137.652 44.22 145.599 44.22 145.599 48.128 132.878 48.128"/>
    <path class='no-color-change' fill="#009BFF" d="M154.963,48.469 C153.511,48.469 152.121,48.22 150.792,47.722 C149.463,47.224 148.309,46.511 147.33,45.584 L149.691,42.62 C150.39,43.25 151.177,43.745 152.051,44.103 C152.925,44.461 153.887,44.64 154.936,44.64 C155.636,44.64 156.186,44.518 156.589,44.273 C156.99,44.029 157.192,43.662 157.192,43.171 C157.192,42.7 156.956,42.319 156.484,42.031 C156.011,41.742 155.181,41.44 153.992,41.125 L152.89,40.837 C151.282,40.417 150.058,39.775 149.219,38.91 C148.379,38.043 147.959,36.947 147.959,35.618 C147.959,34.481 148.257,33.485 148.851,32.627 C149.446,31.771 150.267,31.111 151.317,30.647 C152.366,30.184 153.581,29.953 154.963,29.953 C156.326,29.953 157.629,30.201 158.87,30.7 C160.112,31.198 161.214,31.875 162.176,32.733 L159.736,35.801 C159.107,35.259 158.367,34.787 157.52,34.385 C156.672,33.983 155.828,33.782 154.989,33.782 C154.289,33.782 153.751,33.9 153.376,34.135 C152.999,34.371 152.812,34.717 152.812,35.171 C152.812,35.591 153.009,35.954 153.402,36.26 C153.795,36.566 154.473,36.85 155.434,37.113 L156.772,37.48 C158.696,38.004 160.055,38.721 160.851,39.63 C161.646,40.539 162.044,41.598 162.044,42.804 C162.044,43.941 161.751,44.933 161.165,45.781 C160.579,46.629 159.753,47.289 158.687,47.761 C157.62,48.234 156.379,48.469 154.963,48.469"/>
  </g>
</svg>
