<svg id="Layer_1" data-name="Layer 1" xmlns="http://www.w3.org/2000/svg" viewBox="0 0 342 66"><defs><style>.cls-1{fill:#231f20;}.cls-2{fill:#414042;}</style></defs><title>NDNWIDE</title><path class="cls-1" d="M152.21,42.31A9.35,9.35,0,0,0,145.95,39V32.6a6.57,6.57,0,0,1,3.76-1.25,6.18,6.18,0,0,1,3.8,1.25v9.19Zm1.29-10.72a7.23,7.23,0,0,0-3.8-1.06,6.54,6.54,0,0,0-3.76,1.25V23.38a6.33,6.33,0,0,0,3.76,1.15,6.54,6.54,0,0,0,3.8-1.2Zm0-9.17a6.32,6.32,0,0,1-3.8,1.3,6.49,6.49,0,0,1-3.76-1.3V13.8a25.73,25.73,0,0,1,3.2-.29c3,0,4.37,1.44,4.37,4.71Zm-6,24.22c3.28-3.07,7.44-4.8,12.67-5.43a8.86,8.86,0,0,1-1.12-4.27V19.81c0-8.12-2.51-12-8.73-12-3.76,0-7.83,1-12,1a18,18,0,0,1-5.88-1c0,4.57,2.33,6.63,7,6.63a43.35,43.35,0,0,0,5.71-.53V39H145c-5.14,0-9.51,2.69-12.75,7.74a14.61,14.61,0,0,1,8-2.36,14.89,14.89,0,0,1,7.3,2.3M137,35.54V36a4,4,0,0,1-1.68,3.7c5-1.25,7.39-3.51,7.39-7.11V23.29a7.44,7.44,0,0,1,.87-4.13c-4.33,1.49-6.4,3.69-6.57,7.59h-.39c-2.77,0-4.15,1.53-4.15,4.7a10.49,10.49,0,0,0,.52,3.12c.18-1.63.74-2.35,2-2.35h2Zm37.17,2.34-1.65,1.25c-3.67-.72-5.53-2.74-5.53-5.87a6.16,6.16,0,0,1,1.68-4.08L171.91,33l.43-.58-7.26-8.94a7.32,7.32,0,0,0,3.58,1.3,3.8,3.8,0,0,0,3.16-1.92,5.16,5.16,0,0,0,2.34,2.4Zm7.18-17.06a3.34,3.34,0,0,1-2,.72c-1.29,0-2.25-.86-3.33-2.64-1.81,2.21-3.67,3.22-4.92,3.22-1.47,0-2.42-1-3.24-3.17a7.46,7.46,0,0,1-4.63,3.6l4.8,5.91c-4,2.3-5.62,4.37-5.62,8.17,0,4,1.81,6.24,5.7,6.92l6.1-4.75c.65,2.74,2.07,4.22,4.23,4.42a39.63,39.63,0,0,1,3.58-4.13c-2.68-.34-3.14-1.78-3.14-4.81V24.48a5.71,5.71,0,0,0,2.42-3.66m10.48-8.15a3,3,0,0,1-1.3.34c-1.21,0-2.29-.91-3-2.74a54.74,54.74,0,0,1-4.8,5l.52.67a1.39,1.39,0,0,1,1.08-.58c1,0,1.94,1.54,3.63,1.54,1.9,0,3.67-1.68,3.89-4.18m-3.89,30.69A20.13,20.13,0,0,1,193,39.42v-.58c-2.47-.24-3.12-1.3-3.12-3.7V24.67a6,6,0,0,0,2.77-2.93h-.17c-2.12,0-3.89-.87-5.75-2.84a12.67,12.67,0,0,1-4.84,3.94,6,6,0,0,0,3,2V37c0,3.08.52,4.76,3,6.39m18.51-4-.43-.82-1.95,1.11a4.52,4.52,0,0,0-2.77-2.11V10.19a9.54,9.54,0,0,1,1.48-5.62,10.8,10.8,0,0,1-6.44,2.31,12.39,12.39,0,0,1-1.25-.1,4.84,4.84,0,0,1,1.25,3.6v27.7A4,4,0,0,0,194,41.63a6.86,6.86,0,0,1,2.25-.53c1.56,0,2.76.82,4.15,2.45a23.68,23.68,0,0,1,6.05-4.18M229.1,19.61h-.18a7.67,7.67,0,0,1-5.79-2.84,12.31,12.31,0,0,1-4.84,3.94,6,6,0,0,0,3,2V33.34l-4.41,3.27a3.39,3.39,0,0,0-2.29-2V23.79c0-3.89-.91-5.91-4.27-6.68a13.48,13.48,0,0,1-4,3.8v.58c2.64.14,3.24,1.2,3.24,3.79v9.89a4.34,4.34,0,0,0-2.29,3.7,5.56,5.56,0,0,1,2-.48c1.38,0,2.42.77,3.24,2.35l8.74-6.44c0,2.5.13,4.09.47,4.85.56,1.2,1.86,2.06,1.86,4.47S222,47.71,220,47.71c-1.82,0-2.68-1.3-3.8-2.79s-2.2-2.55-3.8-2.55c-2.33,0-4.1,2.12-4.5,5.91a3.29,3.29,0,0,1,2.25-1.15c1.51,0,3.41,2,7.43,2,6.36,0,10.42-4.71,10.42-9,0-2-1-2.93-1.42-4a8.83,8.83,0,0,1-.22-2.12V22.54a5.81,5.81,0,0,0,2.77-2.93M264,36.35c-1.86-1.78-3.81-6.06-6.32-12.78a9.29,9.29,0,0,0,2.34.29,12.59,12.59,0,0,0,4-.53ZM254,29.42a9.44,9.44,0,0,0-3.37-.67,11.37,11.37,0,0,0-4.88,1.1V15.16c2.9,1.2,5.19,6.06,8.26,14.27M270.08,6.36a4.41,4.41,0,0,1-1.64.34c-1.69,0-2.94-1.2-4.62-3.41a64,64,0,0,1-6.22,6.06l.52.86L259.66,9A5.67,5.67,0,0,0,264,11.27v11.1a10.55,10.55,0,0,1-3.59.67,23.42,23.42,0,0,1-3.2-.29c-3.51-9.41-7.18-14-12.28-14-4,0-6.62,3-6.62,7.49a6.34,6.34,0,0,0,1,3.84c.17-3.6,1.6-5.43,3.89-5.43a9.24,9.24,0,0,1,1.64.24v8.84h-.65c-3,0-4.45,1.63-4.45,4.8a4.73,4.73,0,0,0,1,3c.13-1.68,1.08-2.4,2.94-2.4h1.12v10.5a10.6,10.6,0,0,0-7,7.45,10,10,0,0,1,5.71-1.64,14.11,14.11,0,0,1,6.27,1.44,34,34,0,0,1,5.19-5.62l-.56-.91L253,41.75a6.81,6.81,0,0,0-5.41-2.4,16.87,16.87,0,0,0-1.9.19V30.77a10,10,0,0,1,4.54-1.15,9.51,9.51,0,0,1,4.37,1c3.24,8.74,5.67,13,9.9,13h.35V11.27a6.14,6.14,0,0,0,5.23-4.9m4.5,26.2v-10a13.14,13.14,0,0,0,1.86-.48,62,62,0,0,0,3.68,7.06Zm0,1.2,11-6.82a19.09,19.09,0,0,1-5.28-8.12,12.86,12.86,0,0,1-8.91,3.31,14.29,14.29,0,0,1-3.16-.43c1.13,1.2,1.39,2.64,1.39,4.85V37.42a6.2,6.2,0,0,0-2.81,3,13.53,13.53,0,0,1,1.68-.1c1.82,0,5.1.87,9.2,3.12l6.66-5-.43-.86-3.07,2.16a16.33,16.33,0,0,0-6.27-2.64Zm45.77-13.67h-.17c-2.12,0-3.89-.87-5.75-2.84a12.27,12.27,0,0,1-4.84,3.94,6,6,0,0,0,3,2V39.33l-2.33.81c-3.9-1.54-4.37-2.88-4.37-6.58v-8c0-3.89-.9-5.91-4.27-6.68a13.32,13.32,0,0,1-4,3.8v.58c2.64.14,3.24,1.25,3.24,3.85V36l-4.41,3.27a4.76,4.76,0,0,0-2.29-1.92V24c0-3.89-.91-5.91-4.28-6.68a13.28,13.28,0,0,1-4,3.79v.58c2.64.14,3.24,1.25,3.24,3.84V37.88a4.12,4.12,0,0,0-2.34,3.65,5.75,5.75,0,0,1,2-.53c1.38,0,2.46.82,3.29,2.4L300.89,37c0,3.66,1.65,5.72,5.15,6.58a19.34,19.34,0,0,1,12.58-4h.31c-1.17-1.34-1.34-2.59-1.34-4.46V23a5.8,5.8,0,0,0,2.77-2.93m13.13,19.43-1.12.39a5.13,5.13,0,0,0-4.45-3.18c-1.38,0-3.07.77-5.32,2a45.84,45.84,0,0,1,8.08-7.64h2.81Zm-3.59-9.22h-3.33V22.56l1.3-.34a5.14,5.14,0,0,0,4.07,2.4c1.47,0,3-1,5-2.88a38.76,38.76,0,0,1-7,8.55m9.37-1.63h-6.44c2.77-3.12,4.89-5.91,5.93-9.08l-.56-.38a2.47,2.47,0,0,1-2.38,1.92A5.23,5.23,0,0,1,332,18.77a12.64,12.64,0,0,1-8.56,3.46,11.52,11.52,0,0,1-2.34-.33,5.72,5.72,0,0,1,1.08,3.89v2.88c0,1.87-.17,3.12-1.08,4.09h6a28.8,28.8,0,0,0-6.54,9.6l.74.53c.69-1.44.66-2.21,2-2.21s2.94,1,5,2.74a11.07,11.07,0,0,1,8-3.36,18,18,0,0,1,3.07.38,7.7,7.7,0,0,1-1.08-4.61V32.08a5,5,0,0,1,1.08-3.41"/><path class="cls-1" d="M29.63,36.75C27.78,35,25.83,30.7,23.32,24a9.26,9.26,0,0,0,2.34.29,12.55,12.55,0,0,0,4-.53ZM19.56,29.83a9.43,9.43,0,0,0-3.37-.67,11.41,11.41,0,0,0-4.88,1.1V15.56c2.9,1.2,5.19,6.06,8.26,14.27M35.15,7.59a4.42,4.42,0,0,1-1.64.34c-1.68,0-2.4-2.27-4.09-4.48a64,64,0,0,1-6.23,6.06l.52.86,1.56-1.2a5.68,5.68,0,0,0,4.36,2.26V22.77a10.53,10.53,0,0,1-3.59.67,23.46,23.46,0,0,1-3.2-.29c-3.5-9.41-7.18-14-12.28-14-4,0-6.61,3-6.61,7.49a6.36,6.36,0,0,0,1,3.84c.18-3.6,1.6-5.43,3.89-5.43a9.18,9.18,0,0,1,1.64.24v8.84H9.88c-3,0-4.45,1.63-4.45,4.8a4.73,4.73,0,0,0,1,3c.13-1.68,1.08-2.4,2.94-2.4h1.12V39.71a10.59,10.59,0,0,0-7,7.45,10,10,0,0,1,5.71-1.64A14.12,14.12,0,0,1,15.5,47a34.23,34.23,0,0,1,5.18-5.62l-.56-.91-1.52,1.34a6.8,6.8,0,0,0-5.4-2.4,17.27,17.27,0,0,0-1.9.19v-8.4A10,10,0,0,1,15.84,30a9.51,9.51,0,0,1,4.37,1c3.24,8.74,5.66,13,9.9,13h.35V11.43c2.81-.58,4.18-1.2,4.7-3.84M46,38.09l-1.65,1.25c-3.68-.72-5.54-2.74-5.54-5.87a6.14,6.14,0,0,1,1.69-4.08l3.25,3.84.43-.58-7.27-8.94A7.32,7.32,0,0,0,40.51,25a3.8,3.8,0,0,0,3.15-1.92A5.15,5.15,0,0,0,46,25.51Zm4.75-3.61V24.69A5.68,5.68,0,0,0,53.18,21a3.33,3.33,0,0,1-1.94.72c-1.3,0-2.25-.86-3.33-2.64-1.82,2.21-3.68,3.22-4.93,3.22-1.47,0-2.42-1-3.24-3.17a7.45,7.45,0,0,1-4.62,3.6l4.8,5.91c-4,2.3-5.62,4.37-5.62,8.16,0,4,1.82,6.24,5.71,6.92L46.09,39c.65,2.74,2.08,4.22,4.24,4.42a40.74,40.74,0,0,1,4.11-4.13c-2.68-.34-3.68-1.78-3.68-4.81m19.59,4.76-.86.38a7.78,7.78,0,0,0-5.83-3.46V25.84l3.63-2.79a4.35,4.35,0,0,0,3.06,2.26ZM77.52,21a4.9,4.9,0,0,1-2.21.63c-1.47,0-2.68-.86-4.07-2.55l-7.61,5.77a6,6,0,0,0-3.07-5.67,16,16,0,0,1-5.06,3.84v.67C58,24,58.63,25,58.63,27.38v9.27c-2.2.67-3.24,2.16-3.24,4.76v.29A3.35,3.35,0,0,1,58,40.45h.61v6.79a10.13,10.13,0,0,1-1.43,5.57,10.84,10.84,0,0,1,6.44-2.31,11.74,11.74,0,0,1,1.25.1,4.71,4.71,0,0,1-1.25-3.12V40.78c1,.1,1.82.91,2.81,2.16,2-2.54,5.4-3.84,10.08-4-1-.58-1.17-1.63-1.17-3.79V24.59A4.31,4.31,0,0,0,77.52,21M89.75,42.77l-2,1.1A4.53,4.53,0,0,0,85,41.76V14.51A9.52,9.52,0,0,1,86.5,8.88a10.82,10.82,0,0,1-6.44,2.3,12.28,12.28,0,0,1-1.25-.09,4.85,4.85,0,0,1,1.25,3.6V42.29a4,4,0,0,0-2.34,3.55A6.88,6.88,0,0,1,80,45.32c1.56,0,2.77.81,4.16,2.45a23.6,23.6,0,0,1,6.05-4.18ZM96.3,32.45v-10A13.1,13.1,0,0,0,98.15,22,62,62,0,0,0,101.83,29Zm0,1.2,11-7.35A17.11,17.11,0,0,1,102,18.71,12.86,12.86,0,0,1,93.1,22a14.28,14.28,0,0,1-3.16-.43c1.13,1.2,1.39,2.64,1.39,4.85V37.3a6.2,6.2,0,0,0-2.81,3,13.55,13.55,0,0,1,1.68-.1c1.82,0,5.1.87,9.2,3.12l6.66-5-.43-.86-3.07,2.16A16.35,16.35,0,0,0,96.3,37Zm24.08,5.74-1.12.39a5.13,5.13,0,0,0-4.45-3.17c-1.38,0-3.07.77-5.32,2a45.79,45.79,0,0,1,8.08-7.64h2.81Zm-3.59-9.22h-3.33V22.43l1.3-.33a5.14,5.14,0,0,0,4.07,2.4c1.47,0,3-1,5-2.88a38.76,38.76,0,0,1-7,8.55m9.37-1.63h-6.44c2.77-3.12,4.89-5.91,5.93-9.08l-.56-.38A2.47,2.47,0,0,1,122.72,21a5.22,5.22,0,0,1-3.84-2.36,12.64,12.64,0,0,1-8.56,3.46,11.52,11.52,0,0,1-2.34-.33,5.72,5.72,0,0,1,1.08,3.89v2.88c0,1.87-.17,3.12-1.08,4.09h6a28.81,28.81,0,0,0-6.54,9.6l.74.53c.69-1.44.66-2.21,2-2.21s2.94,1,5,2.74a11.07,11.07,0,0,1,8-3.36,18,18,0,0,1,3.06.38,7.7,7.7,0,0,1-1.08-4.61V31.94a5,5,0,0,1,1.08-3.41"/><path class="cls-2" d="M190.18,56.1H192A1.94,1.94,0,1,1,192,60h-.92v2.41h-.88Zm1.72,3.12a1.19,1.19,0,1,0,0-2.38h-.83v2.38Z"/><path class="cls-2" d="M196.62,56.1h.79L200,62.38H199l-.64-1.64h-2.78L195,62.38H194ZM198.1,60l-.6-1.55c-.09-.23-.47-1.2-.48-1.28h0c0,.08-.38,1-.48,1.28L195.91,60Z"/><path class="cls-2" d="M200.88,56.1h1.81A1.84,1.84,0,0,1,204.78,58a1.74,1.74,0,0,1-1.59,1.77l1.92,2.64h-1l-1.81-2.56h-.49v2.56h-.88Zm1.72,3c.82,0,1.29-.44,1.29-1.13s-.47-1.13-1.29-1.13h-.83V59.1Z"/><path class="cls-2" d="M207.23,56.86h-1.79V56.1h4.46v.76h-1.79v5.51h-.88Z"/><path class="cls-2" d="M212.2,59.24a3.3,3.3,0,1,1,3.3,3.26A3.18,3.18,0,0,1,212.2,59.24Zm5.68,0a2.39,2.39,0,1,0-2.39,2.47A2.34,2.34,0,0,0,217.88,59.24Z"/><path class="cls-2" d="M220.07,56.1h3.16v.76H221v2h2.21v.76H221v2.73h-.88Z"/><path class="cls-2" d="M227.23,56.86h-1.79V56.1h4.46v.76h-1.79v5.51h-.88Z"/><path class="cls-2" d="M230.83,56.1h.88v2.57H235V56.1h.89v6.27H235V59.44h-3.29v2.94h-.88Z"/><path class="cls-2" d="M237.52,56.1h3.41v.75h-2.53v1.82h2.46v.75h-2.46v2.2H241v.75h-3.47Z"/><path class="cls-2" d="M244,60.22V56.1h.89v3.84c0,1.09.47,1.76,1.51,1.76s1.52-.67,1.52-1.76V56.1h.89v4.11a2.41,2.41,0,0,1-4.82,0Z"/><path class="cls-2" d="M249.69,61.24l.6-.51a1.82,1.82,0,0,0,1.57,1,1.08,1.08,0,0,0,1.22-1.06c0-.74-.62-1-1.39-1.29s-1.58-.71-1.58-1.71A1.71,1.71,0,0,1,252,56a2.1,2.1,0,0,1,1.84.95l-.6.51a1.42,1.42,0,0,0-1.24-.68c-.61,0-1,.31-1,.84s.62.87,1.17,1.08c.88.35,1.8.77,1.8,1.92a1.9,1.9,0,0,1-2.09,1.9A2.43,2.43,0,0,1,249.69,61.24Z"/><path class="cls-2" d="M257,56.1h.79l2.57,6.27h-.95l-.64-1.64H256l-.64,1.64h-.93ZM258.5,60l-.6-1.55c-.09-.23-.47-1.2-.48-1.28h0c0,.08-.38,1-.48,1.28L256.32,60Z"/><path class="cls-2" d="M264.13,56.86h-1.79V56.1h4.46v.76H265v5.51h-.88Z"/><path class="cls-2" d="M267.13,59.24a3.3,3.3,0,1,1,3.3,3.26A3.18,3.18,0,0,1,267.13,59.24Zm5.68,0a2.39,2.39,0,1,0-2.39,2.47A2.34,2.34,0,0,0,272.81,59.24Z"/><path class="cls-2" d="M275,56.1h1.78a3.14,3.14,0,1,1,0,6.27H275Zm.88,5.51h.82a2.38,2.38,0,1,0,0-4.75h-.82Z"/><path class="cls-2" d="M283,56.1h.79l2.57,6.27h-.95l-.64-1.64H282l-.64,1.64h-.93ZM284.45,60l-.6-1.55c-.09-.23-.47-1.2-.48-1.28h0c0,.08-.38,1-.48,1.28L282.26,60Z"/><path class="cls-2" d="M288.1,59.82,286,56.1h1l1.16,2.09a9.26,9.26,0,0,1,.45.89h0a9.5,9.5,0,0,1,.45-.89l1.17-2.09h1L289,59.82v2.56h-.92Z"/><path class="cls-2" d="M293.76,56.1h.68L298,60.17c.11.12.57.7.62.79h0c0-.09,0-.81,0-1V56.1h.86v6.27h-.69l-3.56-4.07c-.11-.12-.57-.7-.62-.79h0c0,.09,0,.81,0,1v3.87h-.86Z"/><path class="cls-2" d="M301.1,56.1h3.41v.75H302v1.82h2.46v.75H302v2.2h2.58v.75H301.1Z"/><path class="cls-2" d="M307.28,56.86h-1.79V56.1H310v.76h-1.79v5.51h-.88Z"/><path class="cls-2" d="M310.69,56.1h.94l1.29,3.73c0,.14.35,1.07.36,1.21h0a12.52,12.52,0,0,1,.38-1.21L315,56.1h.71l1.34,3.73c.05.14.37,1.07.38,1.21h0c0-.14.32-1.07.37-1.21l1.28-3.73h.9l-2.21,6.27h-.68l-1.45-3.91a10.47,10.47,0,0,1-.3-1h0a10.52,10.52,0,0,1-.31,1l-1.44,3.91h-.68Z"/><path class="cls-2" d="M320.39,59.24a3.3,3.3,0,1,1,3.3,3.26A3.18,3.18,0,0,1,320.39,59.24Zm5.68,0a2.39,2.39,0,1,0-2.39,2.47A2.34,2.34,0,0,0,326.07,59.24Z"/><path class="cls-2" d="M328.26,56.1h1.81A1.84,1.84,0,0,1,332.16,58a1.74,1.74,0,0,1-1.59,1.77l1.92,2.64h-1l-1.81-2.56h-.49v2.56h-.88Zm1.72,3c.82,0,1.29-.44,1.29-1.13s-.47-1.13-1.29-1.13h-.83V59.1Z"/><path class="cls-2" d="M333.49,56.1h.88V59L337,56.1H338l-2.69,3,2.81,3.28h-1.11l-2.68-3.17v3.17h-.88Z"/></svg>