<svg xmlns="http://www.w3.org/2000/svg" width="269" height="43" viewBox="0 0 269 43">
  <g fill="none" fill-rule="evenodd">
    <polyline fill="#414140" points="9.41 30.78 9.41 6.93 .32 6.93 .32 .18 26.87 .18 26.87 6.93 17.78 6.93 17.78 30.78 9.41 30.78"/>
    <path fill="#414140" d="M38.305 12.94C35.755 12.94 34.225 14.29 33.715 16.99L42.44 16.99C42.23 15.52 41.73 14.477 40.94 13.86 40.189 13.27 39.26 12.952 38.305 12.96L38.305 12.94zM49.015 28.44C47.679 29.345 46.214 30.042 44.67 30.51 42.858 31.089 40.967 31.377 39.065 31.365 36.645 31.437 34.243 30.923 32.065 29.865 30.201 28.927 28.652 27.463 27.61 25.655 26.551 23.759 26.016 21.616 26.06 19.445 26.018 17.248 26.545 15.078 27.59 13.145 28.576 11.348 30.04 9.86 31.82 8.845 35.728 6.786 40.397 6.769 44.32 8.8 46.077 9.778 47.527 11.228 48.505 12.985 49.542 14.912 50.059 17.077 50.005 19.265 50.003 19.611 49.98 19.957 49.935 20.3 49.89 20.66 49.835 21.035 49.78 21.425L33.805 21.425C34.525 24.065 36.49 25.385 39.7 25.385 41.007 25.409 42.305 25.18 43.525 24.71 44.488 24.332 45.421 23.88 46.315 23.36L49.015 28.44 49.015 28.44zM61.675 18.135L61.675 30.78 53.845 30.78 53.845 7.875 61 7.875 61.405 10.875C62.162 9.788 63.164 8.894 64.33 8.265 65.543 7.598 66.906 7.254 68.29 7.265 70.78 7.265 72.78 8.075 74.29 9.695 75.8 11.315 76.55 13.64 76.54 16.67L76.54 30.755 68.695 30.755 68.695 17.595C68.695 16.245 68.395 15.245 67.795 14.595 67.137 13.931 66.228 13.58 65.295 13.63 64.317 13.589 63.369 13.965 62.685 14.665 62.012 15.358 61.675 16.515 61.675 18.135M89.255 18.135L89.255 30.78 81.44 30.78 81.44 7.875 88.595 7.875 89 10.875C89.757 9.788 90.759 8.894 91.925 8.265 93.138 7.598 94.501 7.254 95.885 7.265 98.375 7.265 100.375 8.075 101.885 9.695 103.395 11.315 104.145 13.64 104.135 16.67L104.135 30.755 96.275 30.755 96.275 17.595C96.275 16.245 95.975 15.245 95.375 14.595 94.717 13.931 93.808 13.58 92.875 13.63 91.898 13.589 90.949 13.965 90.265 14.665 89.592 15.358 89.255 16.515 89.255 18.135M119.855 12.94C117.305 12.94 115.775 14.29 115.265 16.99L123.995 16.99C123.785 15.52 123.285 14.477 122.495 13.86 121.743 13.269 120.812 12.951 119.855 12.96L119.855 12.94zM130.565 28.44C129.229 29.345 127.764 30.042 126.22 30.51 124.408 31.089 122.517 31.377 120.615 31.365 118.195 31.437 115.793 30.923 113.615 29.865 111.751 28.927 110.202 27.463 109.16 25.655 108.101 23.759 107.566 21.616 107.61 19.445 107.568 17.248 108.095 15.078 109.14 13.145 110.126 11.348 111.59 9.86 113.37 8.845 117.278 6.786 121.947 6.769 125.87 8.8 127.627 9.778 129.077 11.228 130.055 12.985 131.092 14.912 131.609 17.077 131.555 19.265 131.553 19.611 131.53 19.957 131.485 20.3 131.44 20.66 131.385 21.035 131.33 21.425L115.355 21.425C116.075 24.065 118.04 25.385 121.25 25.385 122.557 25.409 123.856 25.18 125.075 24.71 126.038 24.332 126.971 23.88 127.865 23.36L130.565 28.44 130.565 28.44zM143.8 31.365C141.905 31.38 140.023 31.06 138.24 30.42 136.54 29.804 134.964 28.89 133.585 27.72L136.94 23.325C137.975 24.156 139.117 24.843 140.335 25.37 141.461 25.877 142.68 26.146 143.915 26.16 144.563 26.191 145.208 26.051 145.785 25.755 146.22 25.504 146.475 25.027 146.44 24.525 146.442 23.96 146.14 23.437 145.65 23.155 144.77 22.681 143.822 22.344 142.84 22.155L140.68 21.615C136.39 20.475 134.245 18.18 134.245 14.73 134.211 13.306 134.654 11.912 135.505 10.77 136.405 9.615 137.603 8.728 138.97 8.205 140.605 7.575 142.348 7.269 144.1 7.305 145.945 7.293 147.778 7.598 149.52 8.205 151.211 8.803 152.787 9.685 154.18 10.815L150.76 15.315C149.748 14.492 148.632 13.806 147.44 13.275 146.409 12.797 145.291 12.536 144.155 12.51 142.488 12.51 141.655 13.05 141.655 14.13 141.673 14.638 141.977 15.091 142.44 15.3 143.096 15.664 143.8 15.937 144.53 16.11L147.44 16.92C149.63 17.52 151.25 18.42 152.3 19.62 153.342 20.798 153.904 22.323 153.875 23.895 153.902 25.312 153.459 26.697 152.615 27.835 151.702 29.014 150.48 29.918 149.085 30.445 147.399 31.09 145.604 31.402 143.8 31.365M166.29 31.365C164.395 31.38 162.513 31.06 160.73 30.42 159.028 29.805 157.45 28.89 156.07 27.72L159.4 23.31C160.435 24.141 161.577 24.828 162.795 25.355 163.921 25.862 165.14 26.131 166.375 26.145 167.023 26.176 167.668 26.036 168.245 25.74 168.691 25.502 168.961 25.03 168.94 24.525 168.942 23.96 168.64 23.437 168.15 23.155 167.27 22.681 166.322 22.344 165.34 22.155L163.18 21.615C158.89 20.475 156.745 18.18 156.745 14.73 156.711 13.306 157.154 11.912 158.005 10.77 158.905 9.615 160.103 8.728 161.47 8.205 163.105 7.575 164.848 7.269 166.6 7.305 168.445 7.293 170.278 7.598 172.02 8.205 173.711 8.803 175.287 9.685 176.68 10.815L173.26 15.315C172.248 14.492 171.132 13.806 169.94 13.275 168.909 12.797 167.791 12.536 166.655 12.51 164.988 12.51 164.155 13.05 164.155 14.13 164.173 14.638 164.477 15.091 164.94 15.3 165.596 15.664 166.3 15.937 167.03 16.11L169.94 16.92C172.13 17.52 173.75 18.42 174.8 19.62 175.842 20.798 176.404 22.323 176.375 23.895 176.402 25.312 175.959 26.697 175.115 27.835 174.202 29.014 172.98 29.918 171.585 30.445 169.896 31.091 168.098 31.403 166.29 31.365M191.075 12.94C188.525 12.94 186.995 14.29 186.485 16.99L195.215 16.99C195.005 15.52 194.505 14.477 193.715 13.86 192.963 13.268 192.032 12.951 191.075 12.96L191.075 12.94zM201.785 28.44C200.451 29.344 198.987 30.042 197.445 30.51 195.633 31.089 193.742 31.377 191.84 31.365 189.42 31.437 187.018 30.923 184.84 29.865 182.976 28.927 181.427 27.463 180.385 25.655 179.326 23.759 178.791 21.616 178.835 19.445 178.793 17.248 179.32 15.078 180.365 13.145 181.351 11.348 182.815 9.86 184.595 8.845 188.503 6.786 193.172 6.769 197.095 8.8 198.852 9.778 200.302 11.228 201.28 12.985 202.317 14.912 202.834 17.077 202.78 19.265 202.778 19.611 202.755 19.957 202.71 20.3 202.665 20.66 202.61 21.035 202.555 21.425L186.555 21.425C187.275 24.065 189.24 25.385 192.45 25.385 193.757 25.409 195.056 25.18 196.275 24.71 197.238 24.332 198.171 23.88 199.065 23.36L201.785 28.44 201.785 28.44zM212.665 23.355C212.645 24.006 212.928 24.63 213.43 25.045 213.994 25.501 214.706 25.732 215.43 25.695 216.45 25.718 217.435 25.318 218.15 24.59 218.885 23.859 219.285 22.856 219.255 21.82L219.255 21.06C218.409 20.907 217.55 20.832 216.69 20.835 215.706 20.803 214.727 21.003 213.835 21.42 213.083 21.762 212.618 22.53 212.665 23.355zM219.55 30.78L219.145 27.78C217.645 30.18 215.365 31.38 212.305 31.38 211.029 31.398 209.77 31.097 208.64 30.505 207.573 29.946 206.673 29.114 206.03 28.095 205.372 27.028 205.037 25.793 205.065 24.54 204.972 22.175 206.107 19.929 208.065 18.6 210.065 17.19 212.697 16.485 215.96 16.485 217.045 16.491 218.129 16.581 219.2 16.755 219.136 15.715 218.598 14.762 217.74 14.17 216.813 13.563 215.722 13.256 214.615 13.29 213.499 13.296 212.394 13.5 211.35 13.895 210.265 14.283 209.215 14.761 208.21 15.325L205.555 10.325C207.064 9.36 208.699 8.61 210.415 8.095 212.107 7.576 213.866 7.31 215.635 7.305 217.579 7.275 219.508 7.642 221.305 8.385 222.926 9.057 224.306 10.201 225.265 11.67 226.282 13.348 226.783 15.289 226.705 17.25L226.705 30.795 219.55 30.795 219.55 30.78 219.55 30.78zM239.395 18.135L239.395 30.78 231.565 30.78 231.565 7.875 238.72 7.875 239.125 10.875C239.882 9.788 240.884 8.894 242.05 8.265 243.263 7.598 244.626 7.254 246.01 7.265 248.5 7.265 250.5 8.075 252.01 9.695 253.52 11.315 254.27 13.64 254.26 16.67L254.26 30.755 246.43 30.755 246.43 17.595C246.43 16.245 246.13 15.245 245.53 14.595 244.872 13.931 243.963 13.58 243.03 13.63 242.052 13.589 241.104 13.965 240.42 14.665 239.737 15.358 239.395 16.515 239.395 18.135"/>
    <path class='no-color-change' fill="#009BFF" d="M263.665,31.275 C262.74,31.286 261.829,31.046 261.03,30.58 C260.246,30.126 259.594,29.474 259.14,28.69 C258.21,27.058 258.21,25.057 259.14,23.425 C259.594,22.641 260.246,21.989 261.03,21.535 C262.662,20.605 264.663,20.605 266.295,21.535 C267.079,21.99 267.73,22.641 268.185,23.425 C269.114,25.057 269.114,27.058 268.185,28.69 C267.731,29.474 267.079,30.126 266.295,30.58 C265.497,31.045 264.588,31.285 263.665,31.275"/>
    <path fill="#414140" d="M10.22 39.791L11.312 39.791C11.67 39.791 11.954 39.703 12.162 39.526 12.371 39.35 12.475 39.109 12.475 38.804 12.475 38.499 12.371 38.259 12.162 38.082 11.954 37.906 11.67 37.817 11.312 37.817L10.22 37.817 10.22 39.791zM9.41 42.591L9.41 37.135 11.312 37.135C11.922 37.135 12.405 37.285 12.764 37.584 13.122 37.884 13.302 38.291 13.302 38.804 13.302 39.312 13.122 39.715 12.764 40.012 12.405 40.309 11.922 40.457 11.312 40.457L10.22 40.457 10.22 42.591 9.41 42.591 9.41 42.591zM14.939 40.537L16.928 40.537 15.934 37.978 14.939 40.537zM17.723 42.591L17.193 41.219 14.674 41.219 14.144 42.591 13.326 42.591 15.508 37.135 16.383 37.135 18.557 42.591 17.723 42.591 17.723 42.591zM20.274 39.711L21.39 39.711C21.738 39.711 22.014 39.625 22.22 39.454 22.426 39.283 22.529 39.053 22.529 38.764 22.529 38.475 22.426 38.245 22.22 38.074 22.014 37.903 21.738 37.817 21.39 37.817L20.274 37.817 20.274 39.711zM20.274 40.377L20.274 42.591 19.464 42.591 19.464 37.135 21.39 37.135C21.994 37.135 22.473 37.281 22.826 37.572 23.179 37.864 23.356 38.261 23.356 38.764 23.356 39.144 23.249 39.465 23.035 39.727 22.821 39.989 22.526 40.174 22.152 40.28L23.476 42.591 22.554 42.591 21.31 40.377 20.274 40.377 20.274 40.377z"/>
    <polyline fill="#414140" points="25.683 42.591 25.683 37.817 23.845 37.817 23.845 37.135 28.331 37.135 28.331 37.817 26.493 37.817 26.493 42.591 25.683 42.591"/>
    <path fill="#414140" d="M33.539,41.974 C33.891,41.974 34.206,41.884 34.481,41.705 C34.757,41.526 34.972,41.278 35.127,40.963 C35.282,40.647 35.36,40.28 35.36,39.864 C35.36,39.446 35.282,39.08 35.127,38.764 C34.972,38.448 34.757,38.201 34.481,38.022 C34.206,37.843 33.891,37.753 33.539,37.753 C33.186,37.753 32.872,37.843 32.599,38.022 C32.327,38.201 32.112,38.448 31.958,38.764 C31.802,39.08 31.725,39.446 31.725,39.864 C31.725,40.28 31.802,40.647 31.958,40.963 C32.112,41.278 32.327,41.526 32.599,41.705 C32.872,41.884 33.186,41.974 33.539,41.974 Z M33.539,42.68 C33.025,42.68 32.57,42.56 32.174,42.319 C31.778,42.078 31.467,41.746 31.239,41.324 C31.012,40.901 30.898,40.414 30.898,39.864 C30.898,39.312 31.012,38.826 31.239,38.403 C31.467,37.98 31.778,37.649 32.174,37.408 C32.57,37.167 33.025,37.047 33.539,37.047 C34.052,37.047 34.508,37.167 34.906,37.408 C35.305,37.649 35.618,37.98 35.845,38.403 C36.073,38.826 36.186,39.312 36.186,39.864 C36.186,40.414 36.073,40.901 35.845,41.324 C35.618,41.746 35.305,42.078 34.906,42.319 C34.508,42.56 34.052,42.68 33.539,42.68 L33.539,42.68 Z"/>
    <polyline fill="#414140" points="38.136 42.591 37.326 42.591 37.326 37.135 40.719 37.135 40.719 37.817 38.136 37.817 38.136 39.663 40.327 39.663 40.327 40.345 38.136 40.345 38.136 42.591"/>
    <polyline fill="#414140" points="44.948 42.591 44.948 37.817 43.111 37.817 43.111 37.135 47.596 37.135 47.596 37.817 45.759 37.817 45.759 42.591 44.948 42.591"/>
    <polyline fill="#414140" points="48.527 42.591 48.527 37.135 49.337 37.135 49.337 39.47 52.154 39.47 52.154 37.135 52.964 37.135 52.964 42.591 52.154 42.591 52.154 40.168 49.337 40.168 49.337 42.591 48.527 42.591"/>
    <polyline fill="#414140" points="54.392 42.591 54.392 37.135 57.891 37.135 57.891 37.817 55.202 37.817 55.202 39.502 57.57 39.502 57.57 40.184 55.202 40.184 55.202 41.909 57.955 41.909 57.955 42.591 54.392 42.591"/>
    <path fill="#414140" d="M63.074 41.974C63.518 41.974 63.867 41.84 64.122 41.572 64.376 41.305 64.503 40.944 64.503 40.489L64.503 37.135 65.313 37.135 65.313 40.497C65.313 41.177 65.114 41.71 64.716 42.098 64.317 42.486 63.77 42.68 63.074 42.68 62.379 42.68 61.834 42.486 61.438 42.098 61.042 41.71 60.844 41.177 60.844 40.497L60.844 37.135 61.654 37.135 61.654 40.489C61.654 40.944 61.781 41.305 62.035 41.572 62.29 41.84 62.636 41.974 63.074 41.974M68.338 42.68C67.926 42.68 67.533 42.608 67.158 42.463 66.784 42.319 66.482 42.126 66.252 41.885L66.709 41.348C66.923 41.546 67.176 41.701 67.468 41.813 67.759 41.925 68.049 41.982 68.338 41.982 68.691 41.982 68.976 41.913 69.193 41.777 69.409 41.641 69.518 41.452 69.518 41.211 69.518 40.992 69.44 40.808 69.285 40.658 69.13 40.508 68.865 40.382 68.491 40.28L67.736 40.08C67.249 39.952 66.895 39.77 66.673 39.534 66.451 39.299 66.34 38.992 66.34 38.611 66.34 38.301 66.423 38.028 66.589 37.793 66.755 37.558 66.983 37.375 67.275 37.244 67.566 37.113 67.897 37.047 68.266 37.047 68.656 37.047 69.023 37.12 69.365 37.268 69.708 37.415 70.01 37.619 70.272 37.882L69.782 38.411C69.553 38.197 69.313 38.033 69.064 37.918 68.815 37.803 68.552 37.745 68.274 37.745 67.937 37.745 67.662 37.816 67.447 37.958 67.234 38.099 67.127 38.296 67.127 38.548 67.127 38.777 67.203 38.957 67.355 39.085 67.508 39.213 67.741 39.32 68.057 39.406L68.9 39.639C69.386 39.773 69.742 39.96 69.967 40.2 70.192 40.441 70.304 40.741 70.304 41.099 70.304 41.414 70.221 41.691 70.055 41.93 69.89 42.168 69.659 42.352 69.365 42.483 69.071 42.614 68.729 42.68 68.338 42.68M72.342 40.537L74.332 40.537 73.337 37.978 72.342 40.537zM75.127 42.591L74.597 41.219 72.077 41.219 71.548 42.591 70.73 42.591 72.912 37.135 73.787 37.135 75.961 42.591 75.127 42.591 75.127 42.591z"/>
    <polyline fill="#414140" points="79.733 42.591 79.733 37.817 77.895 37.817 77.895 37.135 82.381 37.135 82.381 37.817 80.543 37.817 80.543 42.591 79.733 42.591"/>
    <path fill="#414140" d="M85.301 41.974C85.654 41.974 85.968 41.884 86.244 41.705 86.52 41.526 86.735 41.278 86.89 40.963 87.045 40.647 87.122 40.28 87.122 39.864 87.122 39.446 87.045 39.08 86.89 38.764 86.735 38.448 86.52 38.201 86.244 38.022 85.968 37.843 85.654 37.753 85.301 37.753 84.948 37.753 84.635 37.843 84.362 38.022 84.089 38.201 83.875 38.448 83.721 38.764 83.565 39.08 83.488 39.446 83.488 39.864 83.488 40.28 83.565 40.647 83.721 40.963 83.875 41.278 84.089 41.526 84.362 41.705 84.635 41.884 84.948 41.974 85.301 41.974zM85.301 42.68C84.787 42.68 84.333 42.56 83.937 42.319 83.541 42.078 83.23 41.746 83.002 41.324 82.775 40.901 82.661 40.414 82.661 39.864 82.661 39.312 82.775 38.826 83.002 38.403 83.23 37.98 83.541 37.649 83.937 37.408 84.333 37.167 84.787 37.047 85.301 37.047 85.815 37.047 86.27 37.167 86.669 37.408 87.068 37.649 87.381 37.98 87.608 38.403 87.836 38.826 87.949 39.312 87.949 39.864 87.949 40.414 87.836 40.901 87.608 41.324 87.381 41.746 87.068 42.078 86.669 42.319 86.27 42.56 85.815 42.68 85.301 42.68L85.301 42.68zM89.899 41.909L91.006 41.909C91.391 41.909 91.722 41.825 91.997 41.657 92.272 41.488 92.484 41.252 92.631 40.946 92.778 40.642 92.852 40.28 92.852 39.864 92.852 39.446 92.778 39.085 92.631 38.78 92.484 38.475 92.272 38.238 91.997 38.07 91.722 37.901 91.391 37.817 91.006 37.817L89.899 37.817 89.899 41.909zM89.088 42.591L89.088 37.135 91.006 37.135C91.541 37.135 92.009 37.249 92.41 37.476 92.811 37.703 93.123 38.022 93.345 38.431 93.567 38.84 93.678 39.318 93.678 39.864 93.678 40.409 93.567 40.886 93.345 41.295 93.123 41.705 92.811 42.023 92.41 42.25 92.009 42.478 91.541 42.591 91.006 42.591L89.088 42.591 89.088 42.591zM95.748 40.537L97.738 40.537 96.744 37.978 95.748 40.537zM98.533 42.591L98.003 41.219 95.483 41.219 94.954 42.591 94.136 42.591 96.318 37.135 97.193 37.135 99.367 42.591 98.533 42.591 98.533 42.591z"/>
    <polyline fill="#414140" points="101.855 40.425 101.855 42.591 101.044 42.591 101.044 40.425 99.127 37.135 100.081 37.135 101.453 39.655 102.826 37.135 103.765 37.135 101.855 40.425"/>
    <polyline fill="#414140" points="110.248 42.591 107.335 38.411 107.335 42.591 106.573 42.591 106.573 37.135 107.327 37.135 110.248 41.316 110.248 37.135 111.002 37.135 111.002 42.591 110.248 42.591"/>
    <polyline fill="#414140" points="112.43 42.591 112.43 37.135 115.929 37.135 115.929 37.817 113.24 37.817 113.24 39.502 115.608 39.502 115.608 40.184 113.24 40.184 113.24 41.909 115.993 41.909 115.993 42.591 112.43 42.591"/>
    <polyline fill="#414140" points="118.4 42.591 118.4 37.817 116.563 37.817 116.563 37.135 121.048 37.135 121.048 37.817 119.211 37.817 119.211 42.591 118.4 42.591"/>
    <polyline fill="#414140" points="126.344 42.591 125.068 38.243 123.792 42.591 122.95 42.591 121.497 37.135 122.299 37.135 123.407 41.452 124.683 37.135 125.453 37.135 126.737 41.468 127.852 37.135 128.639 37.135 127.186 42.591 126.344 42.591"/>
    <path fill="#414140" d="M131.857 41.974C132.209 41.974 132.524 41.884 132.799 41.705 133.075 41.526 133.29 41.278 133.445 40.963 133.6 40.647 133.678 40.28 133.678 39.864 133.678 39.446 133.6 39.08 133.445 38.764 133.29 38.448 133.075 38.201 132.799 38.022 132.524 37.843 132.209 37.753 131.857 37.753 131.503 37.753 131.191 37.843 130.917 38.022 130.645 38.201 130.43 38.448 130.276 38.764 130.12 39.08 130.043 39.446 130.043 39.864 130.043 40.28 130.12 40.647 130.276 40.963 130.43 41.278 130.645 41.526 130.917 41.705 131.191 41.884 131.503 41.974 131.857 41.974zM131.857 42.68C131.343 42.68 130.888 42.56 130.492 42.319 130.096 42.078 129.785 41.746 129.558 41.324 129.33 40.901 129.216 40.414 129.216 39.864 129.216 39.312 129.33 38.826 129.558 38.403 129.785 37.98 130.096 37.649 130.492 37.408 130.888 37.167 131.343 37.047 131.857 37.047 132.37 37.047 132.826 37.167 133.224 37.408 133.623 37.649 133.936 37.98 134.164 38.403 134.391 38.826 134.504 39.312 134.504 39.864 134.504 40.414 134.391 40.901 134.164 41.324 133.936 41.746 133.623 42.078 133.224 42.319 132.826 42.56 132.37 42.68 131.857 42.68L131.857 42.68zM136.454 39.711L137.57 39.711C137.918 39.711 138.194 39.625 138.4 39.454 138.606 39.283 138.709 39.053 138.709 38.764 138.709 38.475 138.606 38.245 138.4 38.074 138.194 37.903 137.918 37.817 137.57 37.817L136.454 37.817 136.454 39.711zM136.454 40.377L136.454 42.591 135.644 42.591 135.644 37.135 137.57 37.135C138.174 37.135 138.653 37.281 139.006 37.572 139.359 37.864 139.536 38.261 139.536 38.764 139.536 39.144 139.429 39.465 139.215 39.727 139.001 39.989 138.706 40.174 138.332 40.28L139.656 42.591 138.734 42.591 137.49 40.377 136.454 40.377 136.454 40.377z"/>
    <polyline fill="#414140" points="143.941 42.591 141.493 39.84 141.493 42.591 140.683 42.591 140.683 37.135 141.493 37.135 141.493 39.526 143.78 37.135 144.783 37.135 142.352 39.639 144.96 42.591 143.941 42.591"/>
  </g>
</svg>
