<svg id="nashville" xmlns="http://www.w3.org/2000/svg" xmlns:xlink="http://www.w3.org/1999/xlink" width="797" height="160" viewBox="0 0 797 160">
  <defs>
    <style>
      .cls-1, .cls-2 {
        fill: #000;
        fill-rule: evenodd;
      }

      .cls-1 {
        filter: url(#filter);
      }
    </style>
    <filter id="filter" x="426" y="117.969" width="367.969" height="16" filterUnits="userSpaceOnUse">
      <feFlood result="flood" flood-color="#999"/>
      <feComposite result="composite" operator="in" in2="SourceGraphic"/>
      <feBlend result="blend" in2="SourceGraphic"/>
    </filter>
  </defs>
  <path id="USAT_Network" data-name="USAT Network" class="cls-1" d="M425.989,118.273h4.489c3.156,0,5.267,1.865,5.267,4.741s-2.155,4.735-5.267,4.735h-2.29v5.925h-2.2v-15.4Zm4.267,7.659c2.112,0,3.244-1.163,3.244-2.918,0-1.736-1.132-2.919-3.244-2.919h-2.068v5.837h2.068Zm11.768-7.659h1.955l6.4,15.4h-2.358l-1.6-4.035h-6.911l-1.6,4.035H435.6S441.244,120.162,442.024,118.273Zm3.665,9.544-1.488-3.794c-0.222-.572-1.179-2.942-1.2-3.139h-0.043c-0.022.2-.955,2.5-1.2,3.139l-1.51,3.794h5.443Zm6.924-9.544h4.51c2.91,0,5.178,1.5,5.178,4.563a4.293,4.293,0,0,1-3.955,4.346l4.778,6.492h-2.579l-4.51-6.276h-1.223v6.276h-2.2v-15.4Zm4.267,7.351c2.043,0,3.2-1.077,3.2-2.764s-1.157-2.765-3.2-2.765h-2.068v5.529h2.068Zm11.522-5.486h-4.445v-1.865h11.089v1.865H470.6v13.536h-2.2V120.138Zm12.347,5.838a8.2,8.2,0,1,1,8.2,8A7.862,7.862,0,0,1,480.749,125.976Zm14.133,0a5.946,5.946,0,1,0-5.955,6.053A5.772,5.772,0,0,0,494.882,125.976Zm5.433-7.7h7.867v1.865h-5.668V125.1H508v1.865h-5.49v6.713h-2.2v-15.4Zm17.815,1.865h-4.444v-1.865h11.088v1.865H520.33v13.536h-2.2V120.138Zm8.953-1.865h2.2v6.318h8.178v-6.318h2.2v15.4h-2.2v-7.218h-8.178v7.218h-2.2v-15.4Zm16.631,0h8.49v1.846h-6.29v4.472h6.11v1.846h-6.11v5.395h6.422v1.842h-8.622v-15.4Zm16,10.092V118.273h2.221v9.433c0,2.679,1.157,4.323,3.756,4.323,2.622,0,3.78-1.644,3.78-4.323v-9.433h2.221v10.092c0,3.38-2.2,5.616-6,5.616C561.865,133.981,559.71,131.745,559.71,128.365Zm14.274,2.524,1.491-1.25a4.52,4.52,0,0,0,3.911,2.433c1.709,0,3.044-.918,3.044-2.611,0-1.817-1.534-2.433-3.446-3.178-1.956-.769-3.933-1.736-3.933-4.193,0-2.432,1.912-4.12,4.712-4.12a5.248,5.248,0,0,1,4.579,2.322l-1.491,1.25a3.552,3.552,0,0,0-3.088-1.668c-1.512,0-2.511.769-2.511,2.063,0,1.6,1.554,2.13,2.911,2.654,2.2,0.856,4.466,1.889,4.466,4.716,0,2.679-2,4.674-5.2,4.674A6.064,6.064,0,0,1,573.984,130.889Zm18.241-12.616h1.956l6.4,15.4h-2.357l-1.6-4.035h-6.912l-1.6,4.035H585.8S591.446,120.162,592.225,118.273Zm3.665,9.544-1.487-3.794c-0.222-.572-1.179-2.942-1.2-3.139h-0.044c-0.022.2-.955,2.5-1.2,3.139l-1.51,3.794h5.443Zm13.978-7.679h-4.445v-1.865h11.088v1.865h-4.444v13.536h-2.2V120.138Zm7.469,5.838a8.2,8.2,0,1,1,8.2,8A7.861,7.861,0,0,1,617.337,125.976Zm14.132,0a5.945,5.945,0,1,0-5.954,6.053A5.772,5.772,0,0,0,631.469,125.976Zm5.434-7.7h4.423c4.977,0,8.265,2.808,8.265,7.7,0,4.87-3.312,7.7-8.265,7.7H636.9v-15.4Zm2.2,13.534h2.046c3.643,0,6.176-1.9,6.176-5.831s-2.533-5.838-6.176-5.838H639.1v11.669Zm17.637-13.534H658.7l6.4,15.4h-2.357l-1.6-4.035h-6.912l-1.6,4.035h-2.311S655.96,120.162,656.739,118.273Zm3.666,9.544-1.489-3.794c-0.221-.572-1.178-2.942-1.2-3.139h-0.044c-0.022.2-.955,2.5-1.2,3.139l-1.51,3.794h5.444Zm9.084-.419-5.312-9.125h2.467l2.889,5.135a22.887,22.887,0,0,1,1.11,2.192h0.022a23.153,23.153,0,0,1,1.113-2.192l2.91-5.135h2.4l-5.309,9.125v6.276h-2.289V127.4Zm14.062-9.125h1.687l8.846,9.982c0.266,0.288,1.422,1.711,1.534,1.932l0.044-.023c-0.044-.217-0.044-2-0.044-2.39v-9.5h2.134v15.4h-1.713l-8.845-9.983c-0.265-.283-1.422-1.711-1.532-1.928l-0.021.02c0.021,0.221.043,2,.043,2.394v9.5h-2.133v-15.4Zm18.253,0h8.487v1.846H704v4.472h6.113v1.846H704v5.395h6.422v1.842H701.8v-15.4Zm15.37,1.865h-4.445v-1.865h11.089v1.865h-4.445v13.536h-2.2V120.138Zm8.477-1.865h2.334l3.2,9.15c0.112,0.351.867,2.63,0.889,2.981h0.046a30.445,30.445,0,0,1,.933-2.981l3.334-9.15h1.756l3.332,9.15c0.133,0.351.91,2.63,0.935,2.981h0.044c0.044-.351.8-2.63,0.91-2.981l3.179-9.15h2.243l-5.49,15.4h-1.688l-3.6-9.607a25.578,25.578,0,0,1-.758-2.5h-0.044a25.693,25.693,0,0,1-.776,2.5l-3.578,9.607h-1.69Zm24.118,7.7a8.2,8.2,0,1,1,8.2,8A7.862,7.862,0,0,1,749.769,125.976Zm14.133,0a5.946,5.946,0,1,0-5.955,6.053A5.772,5.772,0,0,0,763.9,125.976Zm5.433-7.7h4.511c2.913,0,5.177,1.5,5.177,4.563a4.293,4.293,0,0,1-3.955,4.346l4.779,6.492h-2.579l-4.511-6.276h-1.222v6.276h-2.2v-15.4Zm4.267,7.351c2.044,0,3.2-1.077,3.2-2.764s-1.156-2.765-3.2-2.765h-2.067v5.529H773.6Zm8.736-7.351h2.2v7.154l6.444-7.154h2.666l-6.687,7.351,7,8.05h-2.754l-6.668-7.785v7.785h-2.2v-15.4Z"/>
  <path id="Tennessean" class="cls-2" d="M186.43,87.037l-2.967,19.029h-2.575c-0.618-.839-1.248-1.248-4.452-1.248H133.42v-2.809h2.264c3.079,0,5.387-1.639,5.387-6.628V50.852c0-3.705-2.3-5.381-5.309-5.381h-1.327V42.43H176.67c1.877,0,2.635-.451,3.281-1.249h2.5l0.78,15.988-2.654.154c-1.226-5.583-3.006-8.812-7.651-8.812H152.469V68.867h15.848c3.391,0,4.841-1.9,4.841-5.614V62.316h2.967V82.669H173v-2.1c0-3.971-2.1-5.54-4.918-5.54H152.469V98.658h19.205c5.826,0,8.941-4.542,12.023-12.245Zm-56.914,17.781H106.562v-2.886h1.25c2.717,0,4.371-1.256,4.371-4.911V75.495H85.561V97.021c0,3.523,1.863,4.911,3.9,4.911H91.5v2.886H68.542v-2.963h1.249c2.712,0,4.372-1.331,4.372-4.914V50.305c0-3.084-1.694-4.914-4.372-4.914H68.542V42.43H91.5v2.961H89.466c-2.252,0-3.9,1.231-3.9,4.68V69.334h26.622V50.305c0-3.59-1.666-4.914-4.371-4.914h-1.25V42.43h22.954v2.961h-2.031c-2.594,0-3.9,1.71-3.9,4.68v47.18c0,3.365,1.855,4.757,3.9,4.757h2.031v2.809Zm-63-59.737-2.889.311c-1.476-7.988-4.7-10.138-9.837-10.138H39.967V95.617c0,3.78,1.788,6.238,4.92,6.238h2.264v2.963H19.513v-3.042H21.23c3.725,0,5.544-1.676,5.544-6.159V35.253H13.346c-5.506,0-8.583,1.864-10.149,10.218l-2.967-.313L1.087,26.442H3.821C4.3,27.224,4.88,27.689,7.178,27.689H59.8c2.194,0,2.872-.605,3.278-1.247h2.654ZM675.623,87.037l-2.885,19.029h-2.576c-0.618-.839-1.249-1.248-4.45-1.248H622.694v-2.809h2.265c3.078,0,5.385-1.639,5.385-6.628V50.852c0-3.705-2.3-5.381-5.31-5.381h-1.326V42.43h42.238c1.875,0,2.556-.451,3.2-1.249h2.576L672.5,57.169l-2.656.154c-1.226-5.583-3-8.812-7.649-8.812H641.744V68.867h15.849c3.391,0,4.839-1.9,4.839-5.614V62.316H665.4V82.669h-3.123v-2.1c0-3.971-2.1-5.54-4.92-5.54H641.744V98.658h19.2c5.827,0,8.939-4.542,12.024-12.245Zm-53.633.934c0,11.839-10.031,18.015-21.313,18.015a45.11,45.11,0,0,1-10.617-1.168,28.487,28.487,0,0,0-5.854-1.169,2.466,2.466,0,0,0-2.733,1.791h-2.425l-3.2-18.56,2.967-.624c2.733,9.1,9.211,13.959,20.064,13.959,7.067,0,11.789-3.565,11.789-9.279,0-4.941-2.813-8.242-9.369-11.385l-11.084-5.385c-8.408-4.029-12.96-8.619-12.96-16.92,0-9.542,8.885-15.832,19.672-15.832a37.57,37.57,0,0,1,10.306,1.326c1.187,0.329,2.1.689,2.89,0.937a6.731,6.731,0,0,0,1.8.39c2.255,0,2.652-.338,3.433-2.03h2.422l0.858,17.471-2.5.156c-3-8.975-8.106-12.245-18.032-12.245-6.359,0-9.841,2.923-9.841,7.565,0,4.138,3.1,6.413,7.578,8.578l12.41,6C617.184,73.894,621.99,79.935,621.99,87.971Zm-49.418,0c0,11.839-10.031,18.015-21.313,18.015a45.1,45.1,0,0,1-10.617-1.168,28.48,28.48,0,0,0-5.859-1.169,2.471,2.471,0,0,0-2.733,1.791h-2.42l-3.2-18.56,2.965-.624c2.737,9.1,9.214,13.959,20.067,13.959,7.064,0,11.788-3.565,11.788-9.279,0-4.941-2.817-8.242-9.369-11.385l-11.089-5.385c-8.4-4.029-12.957-8.619-12.957-16.92,0-9.542,8.883-15.832,19.674-15.832a37.587,37.587,0,0,1,10.306,1.326c1.185,0.329,2.1.689,2.888,0.937a6.791,6.791,0,0,0,1.795.39c2.257,0,2.656-.338,3.437-2.03h2.42l0.858,17.471-2.5.156c-3-8.975-8.109-12.245-18.038-12.245-6.351,0-9.836,2.923-9.836,7.565,0,4.138,3.1,6.413,7.573,8.578l12.413,6C567.766,73.894,572.572,79.935,572.572,87.971Zm-48.95-.934-2.969,19.029h-2.574c-0.618-.839-1.249-1.248-4.45-1.248H470.613v-2.809h2.263c3.08,0,5.387-1.639,5.387-6.628V50.852c0-3.705-2.3-5.381-5.31-5.381h-1.328V42.43h42.24c1.873,0,2.631-.451,3.274-1.249h2.5l0.779,15.988-2.65.154c-1.228-5.583-3.01-8.812-7.654-8.812H489.66V68.867h15.849c3.392,0,4.84-1.9,4.84-5.614V62.316h2.967V82.669h-3.123v-2.1c0-3.971-2.1-5.54-4.92-5.54H489.66V98.658h19.207c5.824,0,8.939-4.542,12.019-12.245ZM468.191,45.314h-1.719c-2.794,0-4.215,1.467-4.215,4.757V98.812a46.087,46.087,0,0,0,.39,6.24l-3.511.778a12.568,12.568,0,0,0-.861-1.948,24.534,24.534,0,0,0-2.5-3.354L420.8,59.2V97.488c0,3.082,1.412,4.522,5.466,4.522h1.793v2.809H408v-2.809h1.485c2.615,0,4.213-1.358,4.213-4.211V51.475c0-4.383-2.758-6.161-6.009-6.161h-1.562V42.43H422.13L455.154,81.5V50.228c0-3.32-1.3-4.914-5.389-4.914h-1.716V42.43h20.142v2.884Zm-65.113,0h-1.716c-2.8,0-4.216,1.467-4.216,4.757V98.812a45.91,45.91,0,0,0,.389,6.24l-3.513.778a12.105,12.105,0,0,0-.86-1.948,24.242,24.242,0,0,0-2.5-3.354L355.689,59.2V97.488c0,3.082,1.412,4.522,5.464,4.522h1.8v2.809H342.885v-2.809h1.486c2.611,0,4.214-1.358,4.214-4.211V51.475c0-4.383-2.758-6.161-6.013-6.161h-1.561V42.43h16.006L390.041,81.5V50.228c0-3.32-1.3-4.914-5.387-4.914h-1.717V42.43h20.141v2.884ZM340.387,87.037L337.5,106.066h-2.574c-0.619-.839-1.248-1.248-4.451-1.248H287.455v-2.809h2.263c3.081,0,5.386-1.639,5.386-6.628V50.852c0-3.705-2.3-5.381-5.308-5.381H288.47V42.43h42.236c1.877,0,2.557-.451,3.2-1.249h2.575l0.783,15.988-2.654.154c-1.228-5.583-3.008-8.812-7.652-8.812H306.5V68.867h15.848c3.392,0,4.841-1.9,4.841-5.614V62.316h2.966V82.669h-3.124v-2.1c0-3.971-2.1-5.54-4.917-5.54H306.5V98.658H325.71c5.825,0,8.942-4.542,12.022-12.245ZM285.814,45.081l-2.889.311c-1.475-7.988-4.7-10.138-9.836-10.138H259.27V95.617c0,3.78,1.788,6.238,4.919,6.238h2.264v2.963H238.815v-3.042h1.718c3.725,0,5.543-1.676,5.543-6.159V35.253H232.649c-5.507,0-8.584,1.864-10.15,10.218l-2.966-.313,0.858-18.716h2.732c0.476,0.782,1.06,1.247,3.357,1.247H279.1c2.2,0,2.876-.605,3.279-1.247h2.654Zm510.432,0.233h-1.718c-2.794,0-4.215,1.467-4.215,4.757V98.812a46.087,46.087,0,0,0,.39,6.24l-3.514.778a12.265,12.265,0,0,0-.856-1.948,24.445,24.445,0,0,0-2.5-3.354L748.776,59.2V97.488c0,3.082,1.414,4.522,5.467,4.522h1.795v2.809H714.272v-2.809h1.174c2.9,0,3.591-1.213,3.591-2.1a15.567,15.567,0,0,0-1.172-3.821l-3.282-8.658H694.131l-3.984,10.528a8.581,8.581,0,0,0-.547,2.73c0,0.658.524,1.324,2.419,1.324h1.251v2.809H675.939v-2.809h0.935c2.9,0,4.009-.932,5.621-4.837l21-50.765a14.57,14.57,0,0,0,1.1-4.524l3.668-.546a34.277,34.277,0,0,0,1.094,3.51L730.2,96.395c1.906,4.711,3.513,5.614,5.931,5.614h1.33c2.613,0,4.216-1.358,4.216-4.211V51.475c0-4.383-2.761-6.161-6.014-6.161H734.1V42.43h16L783.21,81.5V50.228c0-3.32-1.3-4.914-5.389-4.914h-1.716V42.43h20.141v2.884ZM712.32,81.266l-7.809-20.9-7.963,20.9H712.32Z"/>
</svg>
