<svg id="Newark-_Newark_Advocate" data-name="Newark-  Newark Advocate" xmlns="http://www.w3.org/2000/svg" xmlns:xlink="http://www.w3.org/1999/xlink" width="760" height="160" viewBox="0 0 760 160">
  <defs>
    <style>
      .cls-1 {
        fill: #000;
        filter: url(#filter);
      }

      .cls-1, .cls-2 {
        fill-rule: evenodd;
      }

      .cls-2 {
        fill: #000;
      }
    </style>
    <filter id="filter" x="392" y="116.969" width="367.969" height="16" filterUnits="userSpaceOnUse">
      <feFlood result="flood" flood-color="#999"/>
      <feComposite result="composite" operator="in" in2="SourceGraphic"/>
      <feBlend result="blend" in2="SourceGraphic"/>
    </filter>
  </defs>
  <path id="USAT_Network" data-name="USAT Network" class="cls-1" d="M391.989,117.273h4.489c3.156,0,5.267,1.865,5.267,4.741s-2.155,4.735-5.267,4.735h-2.29v5.925h-2.2v-15.4Zm4.267,7.659c2.112,0,3.244-1.163,3.244-2.918,0-1.736-1.132-2.919-3.244-2.919h-2.068v5.837h2.068Zm11.768-7.659h1.955l6.4,15.4h-2.358l-1.6-4.035h-6.911l-1.6,4.035H401.6S407.244,119.162,408.024,117.273Zm3.665,9.544-1.488-3.794c-0.222-.572-1.179-2.942-1.2-3.139h-0.043c-0.022.2-.955,2.5-1.2,3.139l-1.51,3.794h5.443Zm6.924-9.544h4.51c2.91,0,5.178,1.5,5.178,4.563a4.293,4.293,0,0,1-3.955,4.346l4.778,6.492h-2.579l-4.51-6.276h-1.223v6.276h-2.2v-15.4Zm4.267,7.351c2.043,0,3.2-1.077,3.2-2.764s-1.157-2.765-3.2-2.765h-2.068v5.529h2.068Zm11.522-5.486h-4.445v-1.865h11.089v1.865H436.6v13.536h-2.2V119.138Zm12.347,5.838a8.2,8.2,0,1,1,8.2,8A7.862,7.862,0,0,1,446.749,124.976Zm14.133,0a5.946,5.946,0,1,0-5.955,6.053A5.772,5.772,0,0,0,460.882,124.976Zm5.433-7.7h7.867v1.865h-5.668V124.1H474v1.865h-5.49v6.713h-2.2v-15.4Zm17.815,1.865h-4.444v-1.865h11.088v1.865H486.33v13.536h-2.2V119.138Zm8.953-1.865h2.2v6.318h8.178v-6.318h2.2v15.4h-2.2v-7.218h-8.178v7.218h-2.2v-15.4Zm16.631,0h8.49v1.846h-6.291v4.472h6.111v1.846h-6.111v5.395h6.423v1.842h-8.622v-15.4Zm16,10.092V117.273h2.221v9.433c0,2.679,1.157,4.323,3.756,4.323,2.622,0,3.78-1.644,3.78-4.323v-9.433h2.221v10.092c0,3.38-2.2,5.616-6,5.616C527.865,132.981,525.71,130.745,525.71,127.365Zm14.274,2.524,1.491-1.25a4.52,4.52,0,0,0,3.911,2.433c1.709,0,3.044-.918,3.044-2.611,0-1.817-1.534-2.433-3.446-3.178-1.956-.769-3.933-1.736-3.933-4.193,0-2.432,1.912-4.12,4.712-4.12a5.248,5.248,0,0,1,4.579,2.322l-1.491,1.25a3.552,3.552,0,0,0-3.088-1.668c-1.512,0-2.511.769-2.511,2.063,0,1.6,1.554,2.13,2.911,2.654,2.2,0.856,4.466,1.889,4.466,4.716,0,2.679-2,4.674-5.2,4.674A6.064,6.064,0,0,1,539.984,129.889Zm18.241-12.616h1.956l6.4,15.4h-2.357l-1.6-4.035h-6.912l-1.6,4.035H551.8S557.446,119.162,558.225,117.273Zm3.665,9.544-1.487-3.794c-0.222-.572-1.179-2.942-1.2-3.139h-0.044c-0.022.2-.955,2.5-1.2,3.139l-1.51,3.794h5.443Zm13.978-7.679h-4.445v-1.865h11.088v1.865h-4.444v13.536h-2.2V119.138Zm7.469,5.838a8.2,8.2,0,1,1,8.2,8A7.861,7.861,0,0,1,583.337,124.976Zm14.132,0a5.945,5.945,0,1,0-5.954,6.053A5.772,5.772,0,0,0,597.469,124.976Zm5.434-7.7h4.422c4.978,0,8.266,2.808,8.266,7.7,0,4.87-3.312,7.7-8.266,7.7H602.9v-15.4Zm2.2,13.534h2.046c3.643,0,6.176-1.9,6.176-5.831s-2.533-5.838-6.176-5.838H605.1v11.669Zm17.637-13.534H624.7l6.4,15.4h-2.357l-1.6-4.035h-6.912l-1.6,4.035h-2.311S621.96,119.162,622.739,117.273Zm3.666,9.544-1.489-3.794c-0.221-.572-1.178-2.942-1.2-3.139h-0.044c-0.022.2-.955,2.5-1.2,3.139l-1.51,3.794h5.444Zm9.084-.419-5.312-9.125h2.467l2.889,5.135a22.887,22.887,0,0,1,1.11,2.192h0.022a23.153,23.153,0,0,1,1.113-2.192l2.91-5.135h2.4l-5.309,9.125v6.276h-2.289V126.4Zm14.062-9.125h1.687l8.846,9.982c0.266,0.288,1.422,1.711,1.534,1.932l0.044-.023c-0.044-.217-0.044-2-0.044-2.39v-9.5h2.134v15.4h-1.713l-8.845-9.983c-0.265-.283-1.422-1.711-1.532-1.928l-0.021.02c0.021,0.221.043,2,.043,2.394v9.5h-2.133v-15.4Zm18.253,0h8.487v1.846H670v4.472h6.113v1.846H670v5.395h6.422v1.842H667.8v-15.4Zm15.37,1.865h-4.445v-1.865h11.089v1.865h-4.445v13.536h-2.2V119.138Zm8.477-1.865h2.334l3.2,9.15c0.112,0.351.867,2.63,0.889,2.981h0.046a30.445,30.445,0,0,1,.933-2.981l3.334-9.15h1.756l3.332,9.15c0.133,0.351.91,2.63,0.935,2.981h0.044c0.044-.351.8-2.63,0.91-2.981l3.179-9.15h2.243l-5.49,15.4h-1.688l-3.6-9.607a25.578,25.578,0,0,1-.758-2.5h-0.044a25.693,25.693,0,0,1-.776,2.5l-3.578,9.607h-1.69Zm24.118,7.7a8.2,8.2,0,1,1,8.2,8A7.862,7.862,0,0,1,715.769,124.976Zm14.133,0a5.946,5.946,0,1,0-5.955,6.053A5.772,5.772,0,0,0,729.9,124.976Zm5.433-7.7h4.511c2.913,0,5.177,1.5,5.177,4.563a4.293,4.293,0,0,1-3.955,4.346l4.779,6.492h-2.579l-4.511-6.276h-1.222v6.276h-2.2v-15.4Zm4.267,7.351c2.044,0,3.2-1.077,3.2-2.764s-1.156-2.765-3.2-2.765h-2.067v5.529H739.6Zm8.736-7.351h2.2v7.154l6.444-7.154h2.666l-6.687,7.351,7,8.05h-2.754l-6.668-7.785v7.785h-2.2v-15.4Z"/>
  <path id="NA" class="cls-2" d="M-0.022,27.815h1.31L56.612,89.689V29.629h5.441v72.556h-1.31L5.421,40.311v60.061H-0.022V27.815ZM70.824,75.379c0-12.193,7.558-26,24.387-26,16.324,0,23.782,13,23.782,26.1v0.2H75.964c0.1,11.186,6.852,21.363,19.348,21.363,8.363,0,14.511-4.534,17.937-11.387l4.434,2.418c-4.535,8.868-13.3,13.5-22.775,13.5C79.088,101.58,70.824,88.177,70.824,75.379Zm42.929-4.132c-1.411-10.379-8.667-17.433-18.643-17.433-10.48,0-17.333,7.557-18.845,17.433h37.487ZM119.7,50.59h5.341L139.451,90.7h0.2l15.518-41.719h1.412L172.1,90.7h0.2l14.41-40.107h5.342l-19.047,51.393H171.5L155.978,60.264h-0.2l-15.518,41.719h-1.512ZM192.762,75.48c0-13.1,8.767-26.1,25.092-26.1,9.371,0,15.922,4.636,19.65,11.086h0.2V50.59h5.139v49.781h-5.139V90.5h-0.2c-3.728,6.449-10.279,11.085-19.65,11.085C201.529,101.58,192.762,88.581,192.762,75.48Zm44.944,0c0-12.4-8.364-21.565-19.852-21.565S198,63.085,198,75.48s8.365,21.565,19.853,21.565S237.706,87.876,237.706,75.48ZM256.148,50.59h5.14v6.953h0.2c2.821-5.643,7.054-8.163,13.3-8.163a21.017,21.017,0,0,1,5.845.806v5.341a17.917,17.917,0,0,0-6.449-1.21c-8.666,0-12.8,7.054-12.8,18.441v27.612h-5.241V50.59Zm31.24-20.961h5.241V71.852L317.318,50.59h6.853l-26.6,22.674,28.518,27.107h-7.054l-26.4-25.394v25.394h-5.241V29.629Zm76.185,0H379.4l27.712,70.742H390.983l-5.24-14.209h-28.82l-5.241,14.209h-15.72Zm18.039,44.138-6.248-17.232c-0.806-2.217-3.527-10.279-3.83-12.294h-0.4c-0.3,2.015-3.023,10.077-3.829,12.294l-6.247,17.232h20.557Zm22.171,1.31c0-14.41,10.178-25.7,25.093-25.7,8.364,0,13.3,3.829,15.921,7.659h0.1V29.629H459.51v70.742h-13.7V93.216h-0.2c-3.326,4.635-8.566,8.364-16.728,8.364C410.536,101.58,403.783,87.069,403.783,75.077Zm41.317,0.4c0-7.457-4.736-14.108-13.3-14.108s-13.2,6.55-13.2,14.109c0,7.759,5.139,14.108,13.2,14.108C439.96,89.588,445.1,83.239,445.1,75.48ZM461.528,50.59H477.45l9.573,25.7c0.7,2.015,2.519,7.457,2.721,8.666h0.2c0.2-1.209,1.914-6.449,2.619-8.464l9.674-25.9h15.419L496.5,100.371H482.69Zm52.7,24.891c0-12.4,9.17-26.1,27.712-26.1s27.713,13.7,27.713,26.1-9.171,26.1-27.713,26.1S514.233,87.876,514.233,75.48Zm40.914,0c0-8.465-5.846-13.907-13.2-13.907s-13.2,5.442-13.2,13.907,5.844,13.907,13.2,13.907S555.147,83.945,555.147,75.48Zm16.932,0c0-13.3,10.078-26.1,27.41-26.1A27.16,27.16,0,0,1,610.473,51.4V64.7c-2.115-1.814-6.047-3.023-9.875-3.023-7.76,0-14.008,5.14-14.008,13.806s6.248,13.806,14.008,13.806a16.574,16.574,0,0,0,10.177-3.225v13.3a26.758,26.758,0,0,1-11.386,2.217C582.157,101.58,572.079,88.782,572.079,75.48Zm41.517-.4c0-14.41,10.178-25.7,25.093-25.7,8.161,0,13.4,3.729,16.729,8.364h0.2V50.59h13.7v49.781h-13.7V93.216h-0.2c-3.327,4.635-8.568,8.364-16.729,8.364C620.348,101.58,613.6,87.069,613.6,75.077Zm41.316,0.4c0-7.457-4.735-14.108-13.3-14.108s-13.2,6.55-13.2,14.109c0,7.759,5.141,14.108,13.2,14.108C649.774,89.588,654.912,83.239,654.912,75.48Zm25.094,9.876V61.473h-6.751V50.59h6.751v-13.5h14.613v13.5H705V61.473h-10.38v22.17c0,4.736,2.014,6.248,5.341,6.248a17.47,17.47,0,0,0,4.735-.6v11.186a36.067,36.067,0,0,1-8.464.907C684.542,101.379,680.006,95.937,680.006,85.356Zm27.11-9.876c0-11.589,7.055-26.1,26.705-26.1s26.2,14.511,26.2,25.7a19.569,19.569,0,0,1-.3,3.628H721.627c0.706,7.86,7.357,11.588,14.611,11.588,6.652,0,10.985-2.821,13.5-6.348l8.062,8.263c-4.132,5.542-11.69,9.372-22.271,9.372C715.983,101.58,707.116,88.379,707.116,75.48Zm38.8-5.341c-1.41-6.853-6.247-10.178-12.091-10.178s-10.783,3.325-12.194,10.178h24.285Z"/>
</svg>
