<svg xmlns="http://www.w3.org/2000/svg" xmlns:xlink="http://www.w3.org/1999/xlink" preserveAspectRatio="xMidYMid" width="213" height="25" viewBox="0 0 213 25">
  <defs>
    <filter id="color-overlay-1" filterUnits="userSpaceOnUse">
      <feFlood flood-color="#333"/>
      <feComposite operator="in" in2="SourceGraphic"/>
      <feBlend in2="SourceGraphic" result="solidFill"/>
    </filter>
  </defs>
  <path d="M212.921,16.427 L202.246,16.427 C202.443,18.621 204.307,19.661 206.341,19.661 C208.205,19.661 209.419,18.874 210.125,17.889 L212.385,20.195 C211.227,21.742 209.108,22.810 206.143,22.810 C200.664,22.810 198.179,19.127 198.179,15.528 C198.179,12.294 200.156,8.245 205.663,8.245 C211.170,8.245 213.006,12.294 213.006,15.415 C213.006,15.781 212.978,16.146 212.921,16.427 ZM205.663,11.197 C204.025,11.197 202.641,12.125 202.246,14.037 L209.052,14.037 C208.656,12.125 207.301,11.197 205.663,11.197 ZM194.676,17.805 C194.676,19.127 195.241,19.549 196.173,19.549 C196.709,19.549 197.246,19.464 197.500,19.380 L197.500,22.501 C196.964,22.642 196.088,22.754 195.128,22.754 C191.852,22.754 190.581,21.236 190.581,18.283 L190.581,11.619 L188.689,11.619 L188.689,8.582 L190.581,8.582 L190.581,4.814 L194.676,4.814 L194.676,8.582 L197.585,8.582 L197.585,11.619 L194.676,11.619 L194.676,17.805 ZM183.745,20.476 L183.689,20.476 C182.757,21.770 181.288,22.810 179.001,22.810 C173.861,22.810 171.968,18.761 171.968,15.415 C171.968,11.394 174.821,8.245 179.001,8.245 C181.288,8.245 182.757,9.285 183.689,10.579 L183.745,10.579 L183.745,8.582 L187.587,8.582 L187.587,22.473 L183.745,22.473 L183.745,20.476 ZM179.820,11.591 C177.419,11.591 176.120,13.419 176.120,15.528 C176.120,17.693 177.561,19.464 179.820,19.464 C182.108,19.464 183.548,17.693 183.548,15.528 C183.548,13.447 182.221,11.591 179.820,11.591 ZM167.987,22.810 C163.157,22.810 160.333,19.239 160.333,15.528 C160.333,11.816 163.157,8.245 168.015,8.245 C169.370,8.245 170.528,8.526 171.093,8.807 L171.093,12.519 C170.500,12.013 169.398,11.675 168.325,11.675 C166.151,11.675 164.400,13.109 164.400,15.528 C164.400,17.946 166.151,19.380 168.325,19.380 C169.455,19.380 170.528,19.014 171.178,18.480 L171.178,22.192 C170.585,22.501 169.398,22.810 167.987,22.810 ZM151.887,22.810 C146.691,22.810 144.120,18.986 144.120,15.528 C144.120,12.069 146.691,8.245 151.887,8.245 C157.084,8.245 159.654,12.069 159.654,15.528 C159.654,18.986 157.084,22.810 151.887,22.810 ZM151.887,11.647 C149.825,11.647 148.187,13.166 148.187,15.528 C148.187,17.889 149.825,19.408 151.887,19.408 C153.949,19.408 155.587,17.889 155.587,15.528 C155.587,13.166 153.949,11.647 151.887,11.647 ZM135.280,22.473 L129.349,8.582 L133.812,8.582 L136.495,15.753 C136.692,16.315 137.201,17.833 137.257,18.171 L137.314,18.171 C137.370,17.833 137.850,16.371 138.048,15.809 L140.759,8.582 L145.080,8.582 L139.149,22.473 L135.280,22.473 ZM124.943,20.476 L124.886,20.476 C123.954,21.770 122.486,22.810 120.198,22.810 C115.058,22.810 113.166,18.761 113.166,15.415 C113.166,11.394 116.018,8.245 120.198,8.245 C122.542,8.245 123.926,9.313 124.660,10.382 L124.689,10.382 L124.689,2.734 L128.784,2.734 L128.784,22.473 L124.943,22.473 L124.943,20.476 ZM121.017,11.591 C118.616,11.591 117.317,13.419 117.317,15.528 C117.317,17.693 118.758,19.464 121.017,19.464 C123.305,19.464 124.745,17.693 124.745,15.528 C124.745,13.447 123.418,11.591 121.017,11.591 ZM109.578,22.473 L108.110,18.508 L100.032,18.508 L98.564,22.473 L94.158,22.473 L101.896,2.734 L106.330,2.734 L114.097,22.473 L109.578,22.473 ZM105.201,10.241 C104.975,9.623 104.212,7.373 104.127,6.811 L104.014,6.811 C103.930,7.373 103.167,9.623 102.941,10.241 L101.190,15.050 L106.952,15.050 L105.201,10.241 ZM89.413,22.473 L82.013,15.387 L82.013,22.473 L80.544,22.473 L80.544,2.734 L82.013,2.734 L82.013,14.515 L88.932,8.582 L90.853,8.582 L83.397,14.909 L91.390,22.473 L89.413,22.473 ZM76.845,9.623 C74.416,9.623 73.258,11.591 73.258,14.768 L73.258,22.473 L71.789,22.473 L71.789,8.582 L73.229,8.582 L73.229,10.522 L73.286,10.522 C74.077,8.948 75.263,8.245 77.014,8.245 C77.607,8.245 78.172,8.329 78.652,8.470 L78.652,9.960 C78.172,9.763 77.494,9.623 76.845,9.623 ZM66.620,19.717 L66.564,19.717 C65.519,21.517 63.683,22.810 61.056,22.810 C56.481,22.810 54.024,19.183 54.024,15.528 C54.024,11.872 56.481,8.245 61.056,8.245 C63.683,8.245 65.519,9.538 66.564,11.338 L66.620,11.338 L66.620,8.582 L68.061,8.582 L68.061,22.473 L66.620,22.473 L66.620,19.717 ZM61.056,9.510 C57.837,9.510 55.492,12.069 55.492,15.528 C55.492,18.986 57.837,21.545 61.056,21.545 C64.276,21.545 66.620,18.986 66.620,15.528 C66.620,12.069 64.276,9.510 61.056,9.510 ZM48.064,22.923 L43.715,11.282 L43.658,11.282 L39.309,22.923 L38.885,22.923 L33.547,8.582 L35.044,8.582 L39.083,19.773 L39.139,19.773 L43.489,8.132 L43.884,8.132 L48.234,19.773 L48.290,19.773 L52.329,8.582 L53.826,8.582 L48.488,22.923 L48.064,22.923 ZM26.712,21.545 C29.056,21.545 30.779,20.280 31.739,18.368 L32.982,19.042 C31.711,21.517 29.254,22.810 26.599,22.810 C22.165,22.810 19.849,19.070 19.849,15.499 C19.849,12.097 21.967,8.245 26.684,8.245 C31.259,8.245 33.349,11.872 33.349,15.528 L33.349,15.584 L21.290,15.584 C21.318,18.705 23.210,21.545 26.712,21.545 ZM31.881,14.347 C31.485,11.450 29.452,9.482 26.656,9.482 C23.719,9.482 21.798,11.591 21.374,14.347 L31.881,14.347 ZM1.519,5.714 L1.519,22.473 L-0.006,22.473 L-0.006,2.227 L0.361,2.227 L15.866,19.492 L15.866,2.734 L17.391,2.734 L17.391,22.979 L17.024,22.979 L1.519,5.714 Z" class="cls-2"/>
</svg>
