<svg xmlns="http://www.w3.org/2000/svg" width="400" height="46" viewBox="0 0 400 46">
  <g fill="none" fill-rule="evenodd">
    <path fill="#404040" d="M1.201 42.635L2.337 42.635C2.71 42.635 3.005 42.543 3.223 42.358 3.44 42.175 3.548 41.924 3.548 41.607 3.548 41.289 3.44 41.039 3.223 40.855 3.005 40.671 2.71 40.58 2.337 40.58L1.201 40.58 1.201 42.635zM.357 45.55L.357 39.869 2.337 39.869C2.972 39.869 3.476 40.025 3.849 40.337 4.222 40.649 4.409 41.072 4.409 41.607 4.409 42.136 4.222 42.555 3.849 42.864 3.476 43.173 2.972 43.327 2.337 43.327L1.201 43.327 1.201 45.55.357 45.55zM6.113 43.411L8.184 43.411 7.149 40.746 6.113 43.411zM9.012 45.55L8.46 44.121 5.837 44.121 5.286 45.55 4.434 45.55 6.706 39.869 7.617 39.869 9.881 45.55 9.012 45.55zM11.668 42.551L12.829 42.551C13.191 42.551 13.479 42.462 13.694 42.283 13.908 42.105 14.015 41.866 14.015 41.565 14.015 41.264 13.908 41.025 13.694 40.846 13.479 40.669 13.191 40.58 12.829 40.58L11.668 40.58 11.668 42.551zM11.668 43.244L11.668 45.55 10.824 45.55 10.824 39.869 12.829 39.869C13.458 39.869 13.957 40.021 14.324 40.324 14.692 40.628 14.876 41.042 14.876 41.565 14.876 41.96 14.764 42.294 14.542 42.567 14.319 42.84 14.012 43.033 13.623 43.144L15.001 45.55 14.04 45.55 12.745 43.244 11.668 43.244z"/>
    <polyline fill="#404040" points="17.299 45.55 17.299 40.58 15.386 40.58 15.386 39.869 20.056 39.869 20.056 40.58 18.142 40.58 18.142 45.55 17.299 45.55"/>
    <path fill="#404040" d="M25.477,44.907 C25.844,44.907 26.172,44.813 26.458,44.626 C26.745,44.44 26.969,44.183 27.131,43.854 C27.292,43.525 27.373,43.144 27.373,42.709 C27.373,42.275 27.292,41.893 27.131,41.565 C26.969,41.236 26.745,40.979 26.458,40.792 C26.172,40.605 25.844,40.512 25.477,40.512 C25.109,40.512 24.784,40.605 24.499,40.792 C24.216,40.979 23.993,41.236 23.831,41.565 C23.669,41.893 23.589,42.275 23.589,42.709 C23.589,43.144 23.669,43.525 23.831,43.854 C23.993,44.183 24.216,44.44 24.499,44.626 C24.784,44.813 25.109,44.907 25.477,44.907 Z M25.477,45.642 C24.942,45.642 24.469,45.516 24.057,45.266 C23.645,45.015 23.32,44.67 23.084,44.23 C22.847,43.79 22.728,43.283 22.728,42.709 C22.728,42.136 22.847,41.629 23.084,41.189 C23.32,40.749 23.645,40.404 24.057,40.153 C24.469,39.902 24.942,39.777 25.477,39.777 C26.012,39.777 26.486,39.902 26.901,40.153 C27.316,40.404 27.642,40.749 27.879,41.189 C28.115,41.629 28.234,42.136 28.234,42.709 C28.234,43.283 28.115,43.79 27.879,44.23 C27.642,44.67 27.316,45.015 26.901,45.266 C26.486,45.516 26.012,45.642 25.477,45.642 Z"/>
    <polyline fill="#404040" points="30.263 45.55 29.42 45.55 29.42 39.869 32.953 39.869 32.953 40.58 30.263 40.58 30.263 42.5 32.544 42.5 32.544 43.211 30.263 43.211 30.263 45.55"/>
    <polyline fill="#404040" points="37.356 45.55 37.356 40.58 35.443 40.58 35.443 39.869 40.113 39.869 40.113 40.58 38.199 40.58 38.199 45.55 37.356 45.55"/>
    <polyline fill="#404040" points="41.082 45.55 41.082 39.869 41.925 39.869 41.925 42.3 44.858 42.3 44.858 39.869 45.701 39.869 45.701 45.55 44.858 45.55 44.858 43.027 41.925 43.027 41.925 45.55 41.082 45.55"/>
    <polyline fill="#404040" points="47.188 45.55 47.188 39.869 50.83 39.869 50.83 40.58 48.032 40.58 48.032 42.334 50.496 42.334 50.496 43.043 48.032 43.043 48.032 44.84 50.897 44.84 50.897 45.55 47.188 45.55"/>
    <path fill="#404040" d="M56.227 44.907C56.689 44.907 57.052 44.767 57.317 44.489 57.582 44.211 57.714 43.834 57.714 43.361L57.714 39.869 58.558 39.869 58.558 43.369C58.558 44.076 58.35 44.632 57.935 45.036 57.52 45.439 56.951 45.642 56.227 45.642 55.503 45.642 54.935 45.439 54.523 45.036 54.11 44.632 53.904 44.076 53.904 43.369L53.904 39.869 54.748 39.869 54.748 43.361C54.748 43.834 54.88 44.211 55.145 44.489 55.409 44.767 55.77 44.907 56.227 44.907M61.707 45.642C61.278 45.642 60.868 45.567 60.479 45.416 60.089 45.266 59.774 45.065 59.535 44.815L60.011 44.255C60.234 44.461 60.497 44.622 60.8 44.739 61.104 44.856 61.406 44.915 61.707 44.915 62.074 44.915 62.371 44.844 62.596 44.702 62.822 44.56 62.935 44.364 62.935 44.113 62.935 43.885 62.854 43.693 62.693 43.536 62.531 43.38 62.255 43.25 61.865 43.144L61.08 42.935C60.573 42.801 60.204 42.612 59.973 42.367 59.742 42.122 59.627 41.802 59.627 41.406 59.627 41.083 59.713 40.799 59.886 40.554 60.058 40.309 60.296 40.118 60.6 39.982 60.903 39.845 61.247 39.777 61.631 39.777 62.038 39.777 62.419 39.854 62.776 40.007 63.132 40.16 63.447 40.373 63.72 40.646L63.21 41.197C62.971 40.975 62.722 40.803 62.463 40.684 62.204 40.564 61.929 40.504 61.64 40.504 61.289 40.504 61.002 40.578 60.779 40.725 60.557 40.873 60.445 41.078 60.445 41.34 60.445 41.579 60.525 41.766 60.684 41.899 60.842 42.033 61.086 42.144 61.414 42.233L62.291 42.475C62.798 42.615 63.169 42.809 63.403 43.061 63.636 43.311 63.753 43.623 63.753 43.996 63.753 44.325 63.667 44.613 63.494 44.86 63.322 45.108 63.082 45.301 62.776 45.437 62.47 45.574 62.113 45.642 61.707 45.642M65.875 43.411L67.947 43.411 66.911 40.746 65.875 43.411zM68.774 45.55L68.223 44.121 65.6 44.121 65.048 45.55 64.196 45.55 66.469 39.869 67.379 39.869 69.643 45.55 68.774 45.55z"/>
    <polyline fill="#404040" points="73.569 45.55 73.569 40.58 71.656 40.58 71.656 39.869 76.326 39.869 76.326 40.58 74.413 40.58 74.413 45.55 73.569 45.55"/>
    <path fill="#404040" d="M79.367 44.907C79.734 44.907 80.061 44.813 80.348 44.626 80.635 44.44 80.859 44.183 81.021 43.854 81.182 43.525 81.263 43.144 81.263 42.709 81.263 42.275 81.182 41.893 81.021 41.565 80.859 41.236 80.635 40.979 80.348 40.792 80.061 40.605 79.734 40.512 79.367 40.512 78.999 40.512 78.673 40.605 78.389 40.792 78.105 40.979 77.883 41.236 77.721 41.565 77.559 41.893 77.479 42.275 77.479 42.709 77.479 43.144 77.559 43.525 77.721 43.854 77.883 44.183 78.105 44.44 78.389 44.626 78.673 44.813 78.999 44.907 79.367 44.907zM79.367 45.642C78.832 45.642 78.359 45.516 77.947 45.266 77.534 45.015 77.21 44.67 76.973 44.23 76.737 43.79 76.618 43.283 76.618 42.709 76.618 42.136 76.737 41.629 76.973 41.189 77.21 40.749 77.534 40.404 77.947 40.153 78.359 39.902 78.832 39.777 79.367 39.777 79.902 39.777 80.376 39.902 80.791 40.153 81.206 40.404 81.532 40.749 81.768 41.189 82.005 41.629 82.124 42.136 82.124 42.709 82.124 43.283 82.005 43.79 81.768 44.23 81.532 44.67 81.206 45.015 80.791 45.266 80.376 45.516 79.902 45.642 79.367 45.642zM84.153 44.84L85.306 44.84C85.707 44.84 86.051 44.752 86.338 44.577 86.624 44.401 86.844 44.155 86.998 43.837 87.151 43.52 87.227 43.144 87.227 42.709 87.227 42.275 87.151 41.899 86.998 41.582 86.844 41.264 86.624 41.018 86.338 40.842 86.051 40.667 85.707 40.58 85.306 40.58L84.153 40.58 84.153 44.84zM83.309 45.55L83.309 39.869 85.306 39.869C85.863 39.869 86.35 39.987 86.768 40.224 87.186 40.461 87.51 40.792 87.741 41.218 87.972 41.644 88.088 42.141 88.088 42.709 88.088 43.278 87.972 43.774 87.741 44.2 87.51 44.626 87.186 44.958 86.768 45.194 86.35 45.431 85.863 45.55 85.306 45.55L83.309 45.55zM90.243 43.411L92.315 43.411 91.279 40.746 90.243 43.411zM93.142 45.55L92.591 44.121 89.968 44.121 89.416 45.55 88.564 45.55 90.836 39.869 91.747 39.869 94.011 45.55 93.142 45.55z"/>
    <polyline fill="#404040" points="96.601 43.294 96.601 45.55 95.757 45.55 95.757 43.294 93.76 39.869 94.754 39.869 96.183 42.492 97.611 39.869 98.589 39.869 96.601 43.294"/>
    <polyline fill="#404040" points="105.338 45.55 102.306 41.197 102.306 45.55 101.512 45.55 101.512 39.869 102.298 39.869 105.338 44.221 105.338 39.869 106.124 39.869 106.124 45.55 105.338 45.55"/>
    <polyline fill="#404040" points="107.611 45.55 107.611 39.869 111.253 39.869 111.253 40.58 108.454 40.58 108.454 42.334 110.919 42.334 110.919 43.043 108.454 43.043 108.454 44.84 111.32 44.84 111.32 45.55 107.611 45.55"/>
    <polyline fill="#404040" points="113.826 45.55 113.826 40.58 111.913 40.58 111.913 39.869 116.583 39.869 116.583 40.58 114.67 40.58 114.67 45.55 113.826 45.55"/>
    <polyline fill="#404040" points="122.096 45.55 120.768 41.022 119.439 45.55 118.562 45.55 117.05 39.869 117.885 39.869 119.039 44.364 120.367 39.869 121.169 39.869 122.505 44.38 123.667 39.869 124.485 39.869 122.973 45.55 122.096 45.55"/>
    <path fill="#404040" d="M127.835 44.907C128.203 44.907 128.53 44.813 128.817 44.626 129.104 44.44 129.328 44.183 129.489 43.854 129.651 43.525 129.732 43.144 129.732 42.709 129.732 42.275 129.651 41.893 129.489 41.565 129.328 41.236 129.104 40.979 128.817 40.792 128.53 40.605 128.203 40.512 127.835 40.512 127.468 40.512 127.142 40.605 126.858 40.792 126.574 40.979 126.351 41.236 126.189 41.565 126.028 41.893 125.947 42.275 125.947 42.709 125.947 43.144 126.028 43.525 126.189 43.854 126.351 44.183 126.574 44.44 126.858 44.626 127.142 44.813 127.468 44.907 127.835 44.907zM127.835 45.642C127.301 45.642 126.827 45.516 126.415 45.266 126.003 45.015 125.678 44.67 125.442 44.23 125.205 43.79 125.087 43.283 125.087 42.709 125.087 42.136 125.205 41.629 125.442 41.189 125.678 40.749 126.003 40.404 126.415 40.153 126.827 39.902 127.301 39.777 127.835 39.777 128.37 39.777 128.845 39.902 129.259 40.153 129.674 40.404 130 40.749 130.237 41.189 130.474 41.629 130.592 42.136 130.592 42.709 130.592 43.283 130.474 43.79 130.237 44.23 130 44.67 129.674 45.015 129.259 45.266 128.845 45.516 128.37 45.642 127.835 45.642zM132.622 42.551L133.783 42.551C134.145 42.551 134.433 42.462 134.648 42.283 134.862 42.105 134.969 41.866 134.969 41.565 134.969 41.264 134.862 41.025 134.648 40.846 134.433 40.669 134.145 40.58 133.783 40.58L132.622 40.58 132.622 42.551zM132.622 43.244L132.622 45.55 131.778 45.55 131.778 39.869 133.783 39.869C134.412 39.869 134.911 40.021 135.279 40.324 135.646 40.628 135.83 41.042 135.83 41.565 135.83 41.96 135.718 42.294 135.496 42.567 135.273 42.84 134.967 43.033 134.577 43.144L135.955 45.55 134.994 45.55 133.699 43.244 132.622 43.244z"/>
    <polyline fill="#404040" points="140.416 45.55 137.868 42.684 137.868 45.55 137.024 45.55 137.024 39.869 137.868 39.869 137.868 42.358 140.249 39.869 141.293 39.869 138.762 42.475 141.477 45.55 140.416 45.55"/>
    <polyline fill="#009BFF" class='no-color-change' points="20.067 33.311 8.052 15.671 8.052 33.311 .357 33.311 .357 2.711 8.007 2.711 19.977 20.666 19.977 2.711 27.717 2.711 27.717 33.311 20.067 33.311"/>
    <path fill="#009BFF" class='no-color-change' d="M44.682,15.491 C42.132,15.491 40.602,16.841 40.092,19.541 L48.822,19.541 C48.612,18.071 48.109,17.029 47.314,16.413 C46.519,15.799 45.642,15.491 44.682,15.491 Z M55.392,30.971 C54.251,31.781 52.804,32.471 51.049,33.041 C49.294,33.611 47.427,33.896 45.447,33.896 C42.717,33.896 40.384,33.393 38.449,32.388 C36.515,31.384 35.029,29.981 33.995,28.181 C32.959,26.381 32.442,24.311 32.442,21.971 C32.442,19.602 32.952,17.501 33.972,15.671 C34.991,13.842 36.402,12.408 38.202,11.373 C40.002,10.339 42.101,9.821 44.502,9.821 C46.842,9.821 48.904,10.323 50.689,11.328 C52.474,12.334 53.869,13.729 54.874,15.513 C55.879,17.299 56.382,19.391 56.382,21.791 C56.382,22.121 56.359,22.466 56.314,22.826 C56.269,23.186 56.217,23.562 56.157,23.951 L40.182,23.951 C40.902,26.591 42.866,27.911 46.077,27.911 C47.517,27.911 48.792,27.686 49.902,27.236 C51.011,26.786 51.942,26.336 52.692,25.886 L55.392,30.971 Z"/>
    <polyline fill="#009BFF" class='no-color-change' points="79.692 33.311 76.002 19.406 72.357 33.311 64.257 33.311 58.317 10.406 66.327 10.406 68.712 25.166 72.582 10.406 79.467 10.406 83.472 25.211 85.902 10.406 93.732 10.406 87.792 33.311 79.692 33.311"/>
    <path fill="#009BFF" class='no-color-change' d="M103.316 25.886C103.316 26.576 103.571 27.139 104.081 27.573 104.591 28.009 105.251 28.226 106.061 28.226 107.141 28.226 108.048 27.859 108.784 27.123 109.518 26.389 109.886 25.466 109.886 24.356L109.886 23.591C109.076 23.441 108.221 23.366 107.321 23.366 106.18 23.366 105.229 23.562 104.464 23.951 103.699 24.341 103.316 24.986 103.316 25.886zM110.201 33.311L109.796 30.296C108.296 32.696 106.016 33.896 102.956 33.896 101.606 33.896 100.383 33.604 99.289 33.019 98.193 32.434 97.323 31.631 96.679 30.611 96.033 29.592 95.711 28.406 95.711 27.056 95.711 24.507 96.708 22.527 98.704 21.116 100.698 19.706 103.331 19.001 106.601 19.001 107.621 19.001 108.701 19.091 109.841 19.271 109.721 18.131 109.233 17.269 108.378 16.684 107.523 16.099 106.481 15.806 105.251 15.806 104.171 15.806 103.083 16.008 101.989 16.413 100.893 16.819 99.851 17.306 98.861 17.876L96.206 12.836C97.706 11.876 99.326 11.134 101.066 10.609 102.805 10.084 104.546 9.821 106.286 9.821 108.386 9.821 110.276 10.181 111.956 10.901 113.636 11.621 114.956 12.717 115.916 14.186 116.876 15.657 117.356 17.516 117.356 19.766L117.356 33.311 110.201 33.311zM130.181 24.446L130.181 33.311 122.351 33.311 122.351 10.406 129.506 10.406 130.001 14.231C130.48 13.001 131.268 12.003 132.363 11.239 133.458 10.474 134.726 10.091 136.166 10.091 136.976 10.091 137.59 10.196 138.011 10.406L138.011 17.561C137.68 17.442 137.313 17.352 136.908 17.291 136.503 17.231 136.045 17.201 135.536 17.201 133.976 17.201 132.693 17.779 131.688 18.934 130.683 20.089 130.181 21.926 130.181 24.446"/>
    <polyline fill="#009BFF" class='no-color-change' points="156.685 33.311 149.62 21.881 149.62 33.311 141.791 33.311 141.791 .461 149.62 .461 149.62 19.631 156.91 10.406 166.225 10.406 157.586 20.486 166.09 33.311 156.685 33.311"/>
    <path fill="#404040" d="M190.48 21.386L197.725 21.386 194.125 10.676 190.48 21.386zM201.774 33.311L199.84 27.596 188.365 27.596 186.43 33.311 178.149 33.311 189.355 2.711 199.075 2.711 210.28 33.311 201.774 33.311zM224.05 27.686C225.399 27.686 226.487 27.154 227.312 26.089 228.137 25.024 228.55 23.607 228.55 21.836 228.55 20.066 228.137 18.649 227.312 17.583 226.487 16.519 225.399 15.986 224.05 15.986 222.669 15.986 221.567 16.519 220.742 17.583 219.917 18.649 219.504 20.066 219.504 21.836 219.504 23.607 219.917 25.024 220.742 26.089 221.567 27.154 222.669 27.686 224.05 27.686zM229.089 33.311L228.685 30.296C227.964 31.406 227.034 32.283 225.895 32.928 224.754 33.573 223.434 33.896 221.935 33.896 219.865 33.896 218.049 33.385 216.49 32.366 214.929 31.346 213.714 29.929 212.845 28.113 211.974 26.299 211.54 24.206 211.54 21.836 211.54 19.467 211.974 17.381 212.845 15.581 213.714 13.781 214.907 12.371 216.422 11.351 217.937 10.331 219.685 9.821 221.665 9.821 223.044 9.821 224.319 10.114 225.49 10.698 226.659 11.283 227.634 12.071 228.415 13.061L228.415.461 236.244.461 236.244 33.311 229.089 33.311z"/>
    <polyline fill="#404040" points="265.72 10.406 256.854 33.311 248.305 33.311 239.439 10.406 248.034 10.406 252.715 25.211 257.305 10.406 265.72 10.406"/>
    <path fill="#404040" d="M279.354 27.686C280.733 27.686 281.836 27.154 282.661 26.089 283.486 25.024 283.899 23.607 283.899 21.836 283.899 20.066 283.486 18.656 282.661 17.606 281.836 16.556 280.733 16.031 279.354 16.031 277.973 16.031 276.871 16.556 276.046 17.606 275.221 18.656 274.809 20.066 274.809 21.836 274.809 23.607 275.221 25.024 276.046 26.089 276.871 27.154 277.973 27.686 279.354 27.686zM279.354 33.896C276.893 33.896 274.726 33.378 272.851 32.343 270.976 31.309 269.506 29.891 268.441 28.091 267.376 26.291 266.844 24.206 266.844 21.836 266.844 19.467 267.376 17.381 268.441 15.581 269.506 13.781 270.976 12.371 272.851 11.351 274.726 10.331 276.893 9.821 279.354 9.821 281.813 9.821 283.981 10.331 285.856 11.351 287.731 12.371 289.201 13.781 290.266 15.581 291.331 17.381 291.864 19.467 291.864 21.836 291.864 24.206 291.331 26.291 290.266 28.091 289.201 29.891 287.731 31.309 285.856 32.343 283.981 33.378 281.813 33.896 279.354 33.896zM306.669 33.896C304.329 33.896 302.251 33.393 300.436 32.388 298.621 31.384 297.189 29.981 296.139 28.181 295.088 26.381 294.564 24.281 294.564 21.881 294.564 19.481 295.088 17.381 296.139 15.581 297.189 13.781 298.621 12.379 300.436 11.373 302.251 10.368 304.329 9.866 306.669 9.866 308.739 9.866 310.554 10.248 312.114 11.013 313.673 11.779 315.054 13.001 316.254 14.681L311.079 18.461C310.659 17.831 310.111 17.314 309.436 16.908 308.762 16.503 308.034 16.301 307.254 16.301 305.904 16.301 304.779 16.804 303.879 17.809 302.979 18.814 302.529 20.171 302.529 21.881 302.529 23.591 302.979 24.948 303.879 25.953 304.779 26.959 305.904 27.461 307.254 27.461 308.034 27.461 308.762 27.258 309.436 26.854 310.111 26.448 310.659 25.931 311.079 25.301L316.254 29.081C315.054 30.761 313.673 31.984 312.114 32.748 310.554 33.513 308.739 33.896 306.669 33.896M325.929 25.886C325.929 26.576 326.183 27.139 326.694 27.573 327.203 28.009 327.864 28.226 328.674 28.226 329.754 28.226 330.66 27.859 331.396 27.123 332.131 26.389 332.498 25.466 332.498 24.356L332.498 23.591C331.688 23.441 330.833 23.366 329.933 23.366 328.793 23.366 327.841 23.562 327.076 23.951 326.311 24.341 325.929 24.986 325.929 25.886zM332.813 33.311L332.409 30.296C330.908 32.696 328.629 33.896 325.569 33.896 324.219 33.896 322.996 33.604 321.901 33.019 320.805 32.434 319.936 31.631 319.291 30.611 318.645 29.592 318.324 28.406 318.324 27.056 318.324 24.507 319.321 22.527 321.316 21.116 323.311 19.706 325.943 19.001 329.214 19.001 330.233 19.001 331.313 19.091 332.453 19.271 332.333 18.131 331.846 17.269 330.991 16.684 330.136 16.099 329.093 15.806 327.864 15.806 326.784 15.806 325.696 16.008 324.601 16.413 323.506 16.819 322.464 17.306 321.473 17.876L318.819 12.836C320.318 11.876 321.938 11.134 323.679 10.609 325.418 10.084 327.158 9.821 328.898 9.821 330.998 9.821 332.888 10.181 334.569 10.901 336.248 11.621 337.568 12.717 338.529 14.186 339.488 15.657 339.969 17.516 339.969 19.766L339.969 33.311 332.813 33.311zM361.839 31.826C360.908 32.456 359.843 32.959 358.643 33.333 357.443 33.708 356.183 33.896 354.864 33.896 352.403 33.896 350.446 33.184 348.991 31.758 347.535 30.334 346.808 28.421 346.808 26.021L346.808 16.256 343.074 16.256 343.074 10.406 347.168 10.406 348.159 4.016 354.638 4.016 354.638 10.406 360.623 10.406 360.623 16.256 354.638 16.256 354.638 25.031C354.638 25.812 354.87 26.419 355.336 26.854 355.801 27.289 356.423 27.506 357.203 27.506 357.593 27.506 357.991 27.431 358.396 27.281 358.801 27.131 359.183 26.951 359.543 26.741L361.839 31.826M375.743 15.491C373.193 15.491 371.663 16.841 371.153 19.541L379.883 19.541C379.673 18.071 379.17 17.029 378.375 16.413 377.58 15.799 376.703 15.491 375.743 15.491zM386.453 30.971C385.312 31.781 383.866 32.471 382.111 33.041 380.355 33.611 378.488 33.896 376.508 33.896 373.778 33.896 371.446 33.393 369.511 32.388 367.576 31.384 366.091 29.981 365.055 28.181 364.02 26.381 363.503 24.311 363.503 21.971 363.503 19.602 364.013 17.501 365.033 15.671 366.053 13.842 367.463 12.408 369.263 11.373 371.063 10.339 373.162 9.821 375.563 9.821 377.903 9.821 379.965 10.323 381.75 11.328 383.535 12.334 384.93 13.729 385.935 15.513 386.94 17.299 387.443 19.391 387.443 21.791 387.443 22.121 387.421 22.466 387.375 22.826 387.33 23.186 387.278 23.562 387.218 23.951L371.243 23.951C371.963 26.591 373.928 27.911 377.138 27.911 378.578 27.911 379.853 27.686 380.963 27.236 382.073 26.786 383.003 26.336 383.753 25.886L386.453 30.971z"/>
    <path fill="#009BFF" class='no-color-change' d="M394.633,33.827 C393.672,33.827 392.795,33.595 392,33.13 C391.205,32.665 390.575,32.035 390.11,31.24 C389.644,30.445 389.413,29.567 389.413,28.608 C389.413,27.648 389.644,26.77 390.11,25.975 C390.575,25.18 391.205,24.55 392,24.085 C392.795,23.62 393.672,23.387 394.633,23.387 C395.592,23.387 396.47,23.62 397.265,24.085 C398.059,24.55 398.69,25.18 399.155,25.975 C399.62,26.77 399.852,27.648 399.852,28.608 C399.852,29.567 399.62,30.445 399.155,31.24 C398.69,32.035 398.059,32.665 397.265,33.13 C396.47,33.595 395.592,33.827 394.633,33.827"/>
  </g>
</svg>
