<?xml version="1.0" encoding="UTF-8"?>
<svg width="384px" height="120px" viewBox="0 0 384 120" version="1.1" xmlns="http://www.w3.org/2000/svg" xmlns:xlink="http://www.w3.org/1999/xlink">
    <!-- Generator: Sketch 51.2 (57519) - http://www.bohemiancoding.com/sketch -->
    <title>USAT_B2BLogo_Vert@1x</title>
    <desc>Created with Sketch.</desc>
    <defs></defs>
    <g id="Page-1" stroke="none" stroke-width="1" fill="none" fill-rule="evenodd">
        <g id="USAT_B2BLogo_Vert">
            <path d="M117.219,60 C117.219,93.126 90.992,119.975 58.623,119.975 C26.258,119.975 0.026,93.126 0.026,60 C0.026,26.874 26.258,0.025 58.623,0.025 C90.992,0.025 117.219,26.874 117.219,60" id="Fill-1" fill="#009bff" class='no-color-change'></path>
            <path d="M141.008,32.062 C142.524,32.062 143.694,31.616 144.522,30.724 C145.347,29.829 145.76,28.558 145.76,26.905 L145.76,10.212 L153.318,10.212 L153.318,26.865 C153.318,30.52 152.245,33.35 150.106,35.352 C147.966,37.361 144.931,38.36 141.008,38.36 C137.081,38.36 134.047,37.361 131.91,35.352 C129.771,33.35 128.698,30.52 128.698,26.865 L128.698,10.212 L136.256,10.212 L136.256,26.905 C136.256,28.558 136.665,29.829 137.494,30.724 C138.322,31.616 139.489,32.062 141.008,32.062" id="Fill-2" fill="#393A37"></path>
            <path d="M168.425,38.357 C166.178,38.357 164.025,37.971 161.97,37.203 C159.907,36.432 158.123,35.322 156.604,33.89 L160.26,29.296 C161.343,30.275 162.563,31.043 163.918,31.593 C165.269,32.153 166.762,32.431 168.385,32.431 C169.468,32.431 170.323,32.24 170.943,31.861 C171.567,31.479 171.879,30.916 171.879,30.158 C171.879,29.423 171.513,28.833 170.782,28.384 C170.051,27.944 168.763,27.475 166.926,26.985 L165.219,26.536 C162.724,25.892 160.83,24.889 159.528,23.555 C158.231,22.214 157.577,20.517 157.577,18.454 C157.577,16.694 158.039,15.148 158.962,13.827 C159.88,12.499 161.155,11.473 162.778,10.762 C164.404,10.041 166.286,9.682 168.425,9.682 C170.541,9.682 172.556,10.068 174.478,10.839 C176.402,11.614 178.106,12.66 179.598,13.988 L175.819,18.743 C174.843,17.905 173.7,17.17 172.385,16.546 C171.074,15.926 169.766,15.611 168.465,15.611 C167.382,15.611 166.55,15.795 165.97,16.157 C165.387,16.53 165.095,17.063 165.095,17.764 C165.095,18.414 165.4,18.974 166.007,19.45 C166.617,19.927 167.667,20.363 169.153,20.775 L171.228,21.342 C174.206,22.15 176.312,23.263 177.543,24.672 C178.78,26.08 179.394,27.716 179.394,29.584 C179.394,31.348 178.938,32.881 178.029,34.195 C177.124,35.51 175.846,36.532 174.193,37.26 C172.543,37.994 170.621,38.357 168.425,38.357" id="Fill-3" fill="#393A37"></path>
            <path d="M192.026,27.069 L198.565,27.069 L195.316,17.401 L192.026,27.069 Z M202.22,37.833 L200.473,32.673 L190.114,32.673 L188.367,37.833 L180.896,37.833 L191.01,10.212 L199.782,10.212 L209.892,37.833 L202.22,37.833 Z" id="Fill-4" fill="#393A37"></path>
            <polyline id="Fill-5" fill="#393A37" points="227.24 37.83 227.24 16.302 219.037 16.302 219.037 10.208 243 10.208 243 16.302 234.794 16.302 234.794 37.83 227.24 37.83"></polyline>
            <path d="M258.801,32.103 C260.129,32.103 261.286,31.764 262.275,31.087 C263.261,30.412 264.042,29.474 264.609,28.263 C265.179,27.059 265.464,25.661 265.464,24.061 C265.464,22.465 265.179,21.057 264.609,19.839 C264.042,18.619 263.261,17.666 262.275,16.976 C261.286,16.281 260.129,15.939 258.801,15.939 C257.473,15.939 256.316,16.281 255.33,16.976 C254.341,17.666 253.56,18.619 252.993,19.839 C252.426,21.057 252.138,22.465 252.138,24.061 C252.138,25.661 252.426,27.059 252.993,28.263 C253.56,29.474 254.341,30.412 255.33,31.087 C256.316,31.764 257.473,32.103 258.801,32.103 M258.801,38.357 C256.038,38.357 253.583,37.75 251.43,36.529 C249.277,35.315 247.577,33.628 246.333,31.475 C245.086,29.323 244.462,26.851 244.462,24.061 C244.462,21.952 244.818,20.02 245.518,18.27 C246.226,16.53 247.225,15.01 248.523,13.726 C249.827,12.438 251.34,11.443 253.073,10.738 C254.807,10.034 256.715,9.682 258.801,9.682 C260.887,9.682 262.795,10.034 264.529,10.738 C266.259,11.443 267.778,12.438 269.075,13.726 C270.377,15.01 271.379,16.53 272.084,18.27 C272.788,20.02 273.14,21.952 273.14,24.061 C273.14,26.851 272.516,29.323 271.272,31.475 C270.028,33.628 268.324,35.315 266.175,36.529 C264.022,37.75 261.564,38.357 258.801,38.357" id="Fill-6" fill="#393A37"></path>
            <path d="M284.92,31.861 L288.374,31.861 C290.346,31.861 291.915,31.144 293.062,29.708 C294.216,28.276 294.789,26.378 294.789,24.021 C294.789,21.664 294.216,19.769 293.062,18.334 C291.915,16.898 290.346,16.181 288.374,16.181 L284.92,16.181 L284.92,31.861 Z M277.489,37.83 L277.489,10.212 L288.374,10.212 C291.104,10.212 293.525,10.802 295.624,11.979 C297.72,13.156 299.366,14.779 300.557,16.852 C301.747,18.924 302.341,21.315 302.341,24.021 C302.341,26.73 301.747,29.118 300.557,31.19 C299.366,33.263 297.72,34.886 295.624,36.063 C293.525,37.24 291.104,37.83 288.374,37.83 L277.489,37.83 Z" id="Fill-7" fill="#393A37"></path>
            <path d="M314.447,27.069 L320.986,27.069 L317.736,17.401 L314.447,27.069 Z M324.641,37.833 L322.89,32.673 L312.535,32.673 L310.791,37.833 L303.317,37.833 L313.431,10.212 L322.203,10.212 L332.313,37.833 L324.641,37.833 Z" id="Fill-8" fill="#393A37"></path>
            <polyline id="Fill-9" fill="#393A37" points="346.944 27.877 346.944 37.827 339.268 37.827 339.268 27.877 329.476 10.212 338.007 10.212 343.128 21.174 348.198 10.212 356.732 10.212 346.944 27.877"></polyline>
            <polyline id="Fill-10" fill="#393A37" points="145.652 73.226 134.807 57.304 134.807 73.226 127.862 73.226 127.862 45.604 134.766 45.604 145.571 61.814 145.571 45.604 152.559 45.604 152.559 73.226 145.652 73.226"></polyline>
            <polyline id="Fill-11" fill="#393A37" points="158.649 73.226 158.649 45.604 177.7 45.604 177.7 51.657 166.043 51.657 166.043 56.328 176.398 56.328 176.398 62.381 166.043 62.381 166.043 67.173 178.35 67.173 178.35 73.226 158.649 73.226"></polyline>
            <polyline id="Fill-12" fill="#393A37" points="189.195 73.226 189.195 51.697 180.993 51.697 180.993 45.604 204.956 45.604 204.956 51.697 196.75 51.697 196.75 73.226 189.195 73.226"></polyline>
            <polyline id="Fill-13" fill="#393A37" points="230.461 73.226 225.994 55.272 221.524 73.226 213.523 73.226 206.659 45.604 213.969 45.604 218.154 64.453 222.785 45.604 229.244 45.604 233.831 64.329 238.137 45.604 245.33 45.604 238.462 73.226 230.461 73.226"></polyline>
            <path d="M261.412,67.498 C262.74,67.498 263.898,67.16 264.887,66.482 C265.876,65.808 266.654,64.869 267.224,63.659 C267.791,62.455 268.076,61.057 268.076,59.457 C268.076,57.861 267.791,56.452 267.224,55.235 C266.654,54.014 265.876,53.062 264.887,52.371 C263.898,51.677 262.74,51.335 261.412,51.335 C260.085,51.335 258.928,51.677 257.942,52.371 C256.953,53.062 256.171,54.014 255.608,55.235 C255.038,56.452 254.749,57.861 254.749,59.457 C254.749,61.057 255.038,62.455 255.608,63.659 C256.171,64.869 256.953,65.808 257.942,66.482 C258.928,67.16 260.085,67.498 261.412,67.498 M261.412,73.752 C258.65,73.752 256.195,73.145 254.042,71.925 C251.889,70.711 250.189,69.024 248.945,66.871 C247.698,64.718 247.074,62.247 247.074,59.457 C247.074,57.348 247.429,55.416 248.13,53.666 C248.838,51.925 249.837,50.406 251.138,49.122 C252.439,47.834 253.952,46.838 255.688,46.134 C257.419,45.43 259.327,45.078 261.412,45.078 C263.498,45.078 265.406,45.43 267.14,46.134 C268.874,46.838 270.39,47.834 271.687,49.122 C272.988,50.406 273.991,51.925 274.695,53.666 C275.4,55.416 275.752,57.348 275.752,59.457 C275.752,62.247 275.131,64.718 273.884,66.871 C272.639,69.024 270.939,70.711 268.786,71.925 C266.634,73.145 264.176,73.752 261.412,73.752" id="Fill-14" fill="#393A37"></path>
            <path d="M287.492,58.32 L291.556,58.32 C292.719,58.32 293.642,58.015 294.316,57.405 C294.993,56.798 295.332,55.963 295.332,54.906 C295.332,53.907 294.993,53.099 294.316,52.492 C293.642,51.882 292.719,51.577 291.556,51.577 L287.492,51.577 L287.492,58.32 Z M287.492,64.051 L287.492,73.226 L280.178,73.226 L280.178,45.608 L292.364,45.608 C295.617,45.608 298.189,46.439 300.083,48.106 C301.975,49.769 302.927,52.036 302.927,54.906 C302.927,56.778 302.508,58.387 301.67,59.739 C300.831,61.097 299.651,62.153 298.135,62.911 L303.782,73.226 L295.737,73.226 L291.147,64.051 L287.492,64.051 Z" id="Fill-15" fill="#393A37"></path>
            <polyline id="Fill-16" fill="#393A37" points="324.13 73.226 315.358 59.722 315.358 73.226 307.84 73.226 307.84 45.604 315.358 45.604 315.358 57.73 324.452 45.604 333.147 45.604 322.91 58.297 332.946 73.226 324.13 73.226"></polyline>
            <path d="M152.739,109.786 L152.739,81.963 L145.701,81.963 L145.701,98.289 L134.818,81.963 L127.862,81.963 L127.862,109.786 L134.859,109.786 L134.859,93.747 L145.783,109.786 L152.739,109.786 Z M178.72,109.786 L178.72,103.69 L166.323,103.69 L166.323,98.862 L176.756,98.862 L176.756,92.765 L166.323,92.765 L166.323,88.06 L178.065,88.06 L178.065,81.963 L158.876,81.963 L158.876,109.786 L178.72,109.786 Z M213.253,109.786 L220.167,81.963 L212.925,81.963 L208.588,100.826 L203.965,81.963 L197.459,81.963 L192.795,100.948 L188.58,81.963 L181.216,81.963 L188.13,109.786 L196.191,109.786 L200.691,91.701 L205.192,109.786 L213.253,109.786 Z M245.923,109.152 C247.464,108.374 248.657,107.263 249.503,105.817 C250.348,104.372 250.771,102.64 250.771,100.621 L250.771,81.963 L243.161,81.963 L243.161,100.826 C243.161,101.944 242.909,102.756 242.404,103.26 C241.899,103.765 241.17,104.017 240.215,104.017 C239.424,104.017 238.769,103.812 238.251,103.403 C237.733,102.994 237.255,102.339 236.819,101.439 L230.764,104.344 C232.591,108.327 235.837,110.318 240.502,110.318 C242.574,110.318 244.381,109.929 245.923,109.152 Z M276.302,109.786 L276.302,103.69 L263.905,103.69 L263.905,98.862 L274.339,98.862 L274.339,92.765 L263.905,92.765 L263.905,88.06 L275.648,88.06 L275.648,81.963 L256.458,81.963 L256.458,109.786 L276.302,109.786 Z M292.136,100.539 L296.76,109.786 L304.861,109.786 L299.174,99.393 C300.701,98.63 301.888,97.566 302.734,96.202 C303.579,94.838 304.002,93.215 304.002,91.333 C304.002,88.442 303.047,86.157 301.138,84.48 C299.228,82.802 296.637,81.963 293.364,81.963 L281.089,81.963 L281.089,109.786 L288.454,109.786 L288.454,100.539 L292.136,100.539 Z M288.454,87.978 L292.546,87.978 C293.718,87.978 294.646,88.285 295.328,88.899 C296.009,89.512 296.351,90.324 296.351,91.333 C296.351,92.397 296.009,93.236 295.328,93.849 C294.646,94.463 293.718,94.77 292.546,94.77 L288.454,94.77 L288.454,87.978 Z M324.582,109.213 C326.246,108.477 327.535,107.447 328.449,106.124 C329.363,104.801 329.82,103.254 329.82,101.48 C329.82,99.598 329.199,97.948 327.958,96.529 C326.716,95.111 324.596,93.993 321.596,93.174 L319.509,92.601 C318.009,92.192 316.952,91.749 316.338,91.272 C315.724,90.795 315.417,90.228 315.417,89.574 C315.417,88.865 315.71,88.326 316.297,87.958 C316.883,87.589 317.722,87.405 318.813,87.405 C320.123,87.405 321.438,87.719 322.762,88.346 C324.084,88.974 325.237,89.711 326.219,90.556 L330.024,85.769 C328.524,84.432 326.805,83.375 324.869,82.598 C322.932,81.82 320.9,81.432 318.772,81.432 C316.617,81.432 314.722,81.793 313.085,82.516 C311.449,83.239 310.166,84.269 309.239,85.605 C308.311,86.942 307.848,88.496 307.848,90.269 C307.848,92.343 308.503,94.054 309.812,95.404 C311.121,96.754 313.03,97.757 315.54,98.411 L317.259,98.862 C319.113,99.353 320.409,99.823 321.146,100.273 C321.882,100.723 322.25,101.317 322.25,102.053 C322.25,102.817 321.936,103.39 321.309,103.771 C320.681,104.154 319.822,104.344 318.732,104.344 C317.095,104.344 315.594,104.065 314.231,103.505 C312.867,102.947 311.639,102.176 310.548,101.194 L306.866,105.817 C308.393,107.263 310.194,108.374 312.267,109.152 C314.34,109.929 316.508,110.318 318.772,110.318 C320.982,110.318 322.918,109.95 324.582,109.213 Z M354.246,109.786 L354.246,103.69 L341.849,103.69 L341.849,98.862 L352.282,98.862 L352.282,92.765 L341.849,92.765 L341.849,88.06 L353.591,88.06 L353.591,81.963 L334.402,81.963 L334.402,109.786 L354.246,109.786 Z M383.828,81.963 L375.235,81.963 L370.121,93.011 L364.966,81.963 L356.373,81.963 L366.234,99.762 L366.234,109.786 L373.967,109.786 L373.967,99.762 L383.828,81.963 Z" id="Fill-17" fill="#009bff" class='no-color-change'></path>
        </g>
    </g>
</svg>
