<svg xmlns="http://www.w3.org/2000/svg" width="356" height="44" viewBox="0 0 356 44">
  <g fill="none" fill-rule="evenodd">
    <path fill="#FFFFFE" d="M251.845 41.437L252.679 41.437C252.952 41.437 253.169 41.369 253.328 41.234 253.487 41.1 253.567 40.916 253.567 40.683 253.567 40.45 253.487 40.266 253.328 40.132 253.169 39.997 252.952 39.93 252.679 39.93L251.845 39.93 251.845 41.437zM251.227 43.575L251.227 39.409 252.679 39.409C253.144 39.409 253.514 39.523 253.788 39.752 254.061 39.981 254.198 40.291 254.198 40.683 254.198 41.071 254.061 41.378 253.788 41.605 253.514 41.832 253.144 41.945 252.679 41.945L251.845 41.945 251.845 43.575 251.227 43.575 251.227 43.575zM255.448 42.006L256.967 42.006 256.208 40.052 255.448 42.006zM257.574 43.575L257.17 42.527 255.246 42.527 254.841 43.575 254.216 43.575 255.883 39.409 256.551 39.409 258.211 43.575 257.574 43.575 257.574 43.575zM259.522 41.375L260.374 41.375C260.639 41.375 260.851 41.31 261.008 41.179 261.165 41.049 261.244 40.873 261.244 40.652 261.244 40.432 261.165 40.257 261.008 40.125 260.851 39.995 260.639 39.93 260.374 39.93L259.522 39.93 259.522 41.375zM259.522 41.884L259.522 43.575 258.903 43.575 258.903 39.409 260.374 39.409C260.835 39.409 261.201 39.52 261.471 39.742 261.74 39.965 261.875 40.269 261.875 40.652 261.875 40.943 261.793 41.188 261.63 41.388 261.466 41.588 261.242 41.729 260.956 41.81L261.967 43.575 261.262 43.575 260.313 41.884 259.522 41.884 259.522 41.884z"/>
    <polyline fill="#FFFFFE" points="263.652 43.575 263.652 39.93 262.249 39.93 262.249 39.409 265.673 39.409 265.673 39.93 264.271 39.93 264.271 43.575 263.652 43.575"/>
    <path fill="#FFFFFE" d="M269.65,43.103 C269.919,43.103 270.159,43.035 270.37,42.898 C270.58,42.761 270.744,42.572 270.863,42.331 C270.981,42.09 271.04,41.81 271.04,41.492 C271.04,41.173 270.981,40.893 270.863,40.652 C270.744,40.411 270.58,40.222 270.37,40.086 C270.159,39.949 269.919,39.88 269.65,39.88 C269.38,39.88 269.141,39.949 268.933,40.086 C268.725,40.222 268.561,40.411 268.443,40.652 C268.324,40.893 268.265,41.173 268.265,41.492 C268.265,41.81 268.324,42.09 268.443,42.331 C268.561,42.572 268.725,42.761 268.933,42.898 C269.141,43.035 269.38,43.103 269.65,43.103 Z M269.65,43.642 C269.258,43.642 268.91,43.55 268.608,43.367 C268.306,43.183 268.068,42.929 267.894,42.607 C267.721,42.284 267.634,41.912 267.634,41.492 C267.634,41.071 267.721,40.699 267.894,40.377 C268.068,40.054 268.306,39.801 268.608,39.617 C268.91,39.433 269.258,39.341 269.65,39.341 C270.042,39.341 270.39,39.433 270.694,39.617 C270.999,39.801 271.238,40.054 271.411,40.377 C271.585,40.699 271.672,41.071 271.672,41.492 C271.672,41.912 271.585,42.284 271.411,42.607 C271.238,42.929 270.999,43.183 270.694,43.367 C270.39,43.55 270.042,43.642 269.65,43.642 L269.65,43.642 Z"/>
    <polyline fill="#FFFFFE" points="273.161 43.575 272.542 43.575 272.542 39.409 275.133 39.409 275.133 39.93 273.161 39.93 273.161 41.339 274.833 41.339 274.833 41.859 273.161 41.859 273.161 43.575"/>
    <polyline fill="#FFFFFE" points="278.362 43.575 278.362 39.93 276.959 39.93 276.959 39.409 280.384 39.409 280.384 39.93 278.981 39.93 278.981 43.575 278.362 43.575"/>
    <polyline fill="#FFFFFE" points="281.095 43.575 281.095 39.409 281.713 39.409 281.713 41.192 283.864 41.192 283.864 39.409 284.483 39.409 284.483 43.575 283.864 43.575 283.864 41.725 281.713 41.725 281.713 43.575 281.095 43.575"/>
    <polyline fill="#FFFFFE" points="285.573 43.575 285.573 39.409 288.245 39.409 288.245 39.93 286.192 39.93 286.192 41.216 287.999 41.216 287.999 41.737 286.192 41.737 286.192 43.054 288.294 43.054 288.294 43.575 285.573 43.575"/>
    <path fill="#FFFFFE" d="M292.202 43.103C292.541 43.103 292.808 43.001 293.002 42.797 293.196 42.593 293.293 42.317 293.293 41.97L293.293 39.409 293.912 39.409 293.912 41.976C293.912 42.495 293.76 42.902 293.455 43.198 293.151 43.494 292.733 43.642 292.202 43.642 291.671 43.642 291.255 43.494 290.953 43.198 290.65 42.902 290.499 42.495 290.499 41.976L290.499 39.409 291.118 39.409 291.118 41.97C291.118 42.317 291.215 42.593 291.409 42.797 291.603 43.001 291.867 43.103 292.202 43.103M296.222 43.642C295.907 43.642 295.607 43.587 295.321 43.477 295.035 43.367 294.804 43.219 294.628 43.036L294.978 42.625C295.141 42.777 295.334 42.895 295.557 42.98 295.779 43.066 296.001 43.109 296.222 43.109 296.491 43.109 296.709 43.057 296.874 42.953 297.039 42.849 297.122 42.705 297.122 42.521 297.122 42.354 297.063 42.213 296.944 42.098 296.826 41.984 296.624 41.888 296.338 41.81L295.762 41.657C295.39 41.559 295.12 41.42 294.95 41.241 294.781 41.061 294.696 40.826 294.696 40.536 294.696 40.299 294.759 40.091 294.886 39.911 295.012 39.731 295.187 39.592 295.41 39.491 295.632 39.391 295.885 39.341 296.166 39.341 296.464 39.341 296.744 39.397 297.006 39.51 297.267 39.622 297.498 39.778 297.698 39.979L297.324 40.383C297.149 40.22 296.966 40.094 296.776 40.006 296.586 39.918 296.385 39.874 296.172 39.874 295.915 39.874 295.705 39.929 295.541 40.037 295.378 40.145 295.296 40.295 295.296 40.487 295.296 40.663 295.354 40.799 295.471 40.898 295.587 40.995 295.766 41.077 296.007 41.143L296.65 41.32C297.022 41.422 297.294 41.565 297.465 41.749 297.637 41.933 297.723 42.162 297.723 42.435 297.723 42.677 297.659 42.888 297.533 43.069 297.406 43.251 297.23 43.392 297.006 43.492 296.781 43.592 296.52 43.642 296.222 43.642M299.279 42.006L300.798 42.006 300.039 40.052 299.279 42.006zM301.405 43.575L301 42.527 299.077 42.527 298.672 43.575 298.047 43.575 299.714 39.409 300.382 39.409 302.042 43.575 301.405 43.575 301.405 43.575z"/>
    <polyline fill="#FFFFFE" points="304.922 43.575 304.922 39.93 303.518 39.93 303.518 39.409 306.943 39.409 306.943 39.93 305.54 39.93 305.54 43.575 304.922 43.575"/>
    <path fill="#FFFFFE" d="M309.174 43.103C309.443 43.103 309.683 43.035 309.894 42.898 310.104 42.761 310.268 42.572 310.387 42.331 310.505 42.09 310.564 41.81 310.564 41.492 310.564 41.173 310.505 40.893 310.387 40.652 310.268 40.411 310.104 40.222 309.894 40.086 309.683 39.949 309.443 39.88 309.174 39.88 308.904 39.88 308.665 39.949 308.457 40.086 308.248 40.222 308.085 40.411 307.967 40.652 307.848 40.893 307.789 41.173 307.789 41.492 307.789 41.81 307.848 42.09 307.967 42.331 308.085 42.572 308.248 42.761 308.457 42.898 308.665 43.035 308.904 43.103 309.174 43.103zM309.174 43.642C308.782 43.642 308.434 43.55 308.132 43.367 307.83 43.183 307.592 42.929 307.418 42.607 307.245 42.284 307.158 41.912 307.158 41.492 307.158 41.071 307.245 40.699 307.418 40.377 307.592 40.054 307.83 39.801 308.132 39.617 308.434 39.433 308.782 39.341 309.174 39.341 309.566 39.341 309.914 39.433 310.218 39.617 310.522 39.801 310.761 40.054 310.935 40.377 311.109 40.699 311.195 41.071 311.195 41.492 311.195 41.912 311.109 42.284 310.935 42.607 310.761 42.929 310.522 43.183 310.218 43.367 309.914 43.55 309.566 43.642 309.174 43.642L309.174 43.642zM312.684 43.054L313.53 43.054C313.824 43.054 314.076 42.99 314.286 42.861 314.497 42.733 314.658 42.552 314.77 42.319 314.883 42.086 314.939 41.81 314.939 41.492 314.939 41.173 314.883 40.898 314.77 40.665 314.658 40.432 314.497 40.251 314.286 40.122 314.076 39.994 313.824 39.93 313.53 39.93L312.684 39.93 312.684 43.054zM312.065 43.575L312.065 39.409 313.53 39.409C313.938 39.409 314.296 39.496 314.602 39.669 314.908 39.843 315.146 40.086 315.316 40.398 315.485 40.71 315.57 41.075 315.57 41.492 315.57 41.909 315.485 42.273 315.316 42.585 315.146 42.898 314.908 43.141 314.602 43.314 314.296 43.488 313.938 43.575 313.53 43.575L312.065 43.575 312.065 43.575zM317.151 42.006L318.67 42.006 317.91 40.052 317.151 42.006zM319.277 43.575L318.872 42.527 316.948 42.527 316.544 43.575 315.919 43.575 317.586 39.409 318.254 39.409 319.914 43.575 319.277 43.575 319.277 43.575z"/>
    <polyline fill="#FFFFFE" points="321.813 41.921 321.813 43.575 321.194 43.575 321.194 41.921 319.73 39.409 320.459 39.409 321.507 41.332 322.555 39.409 323.271 39.409 321.813 41.921"/>
    <polyline fill="#FFFFFE" points="328.222 43.575 325.998 40.383 325.998 43.575 325.416 43.575 325.416 39.409 325.992 39.409 328.222 42.601 328.222 39.409 328.798 39.409 328.798 43.575 328.222 43.575"/>
    <polyline fill="#FFFFFE" points="329.888 43.575 329.888 39.409 332.56 39.409 332.56 39.93 330.507 39.93 330.507 41.216 332.314 41.216 332.314 41.737 330.507 41.737 330.507 43.054 332.609 43.054 332.609 43.575 329.888 43.575"/>
    <polyline fill="#FFFFFE" points="334.447 43.575 334.447 39.93 333.044 39.93 333.044 39.409 336.468 39.409 336.468 39.93 335.066 39.93 335.066 43.575 334.447 43.575"/>
    <polyline fill="#FFFFFE" points="340.512 43.575 339.538 40.254 338.564 43.575 337.921 43.575 336.812 39.409 337.424 39.409 338.27 42.705 339.244 39.409 339.832 39.409 340.812 42.717 341.664 39.409 342.264 39.409 341.155 43.575 340.512 43.575"/>
    <path fill="#FFFFFE" d="M344.721 43.103C344.991 43.103 345.231 43.035 345.441 42.898 345.652 42.761 345.816 42.572 345.935 42.331 346.053 42.09 346.112 41.81 346.112 41.492 346.112 41.173 346.053 40.893 345.935 40.652 345.816 40.411 345.652 40.222 345.441 40.086 345.231 39.949 344.991 39.88 344.721 39.88 344.452 39.88 344.213 39.949 344.005 40.086 343.796 40.222 343.633 40.411 343.514 40.652 343.396 40.893 343.337 41.173 343.337 41.492 343.337 41.81 343.396 42.09 343.514 42.331 343.633 42.572 343.796 42.761 344.005 42.898 344.213 43.035 344.452 43.103 344.721 43.103zM344.721 43.642C344.329 43.642 343.982 43.55 343.68 43.367 343.378 43.183 343.14 42.929 342.966 42.607 342.793 42.284 342.706 41.912 342.706 41.492 342.706 41.071 342.793 40.699 342.966 40.377 343.14 40.054 343.378 39.801 343.68 39.617 343.982 39.433 344.329 39.341 344.721 39.341 345.114 39.341 345.462 39.433 345.766 39.617 346.07 39.801 346.309 40.054 346.483 40.377 346.656 40.699 346.743 41.071 346.743 41.492 346.743 41.912 346.656 42.284 346.483 42.607 346.309 42.929 346.07 43.183 345.766 43.367 345.462 43.55 345.114 43.642 344.721 43.642L344.721 43.642zM348.232 41.375L349.084 41.375C349.349 41.375 349.561 41.31 349.718 41.179 349.875 41.049 349.954 40.873 349.954 40.652 349.954 40.432 349.875 40.257 349.718 40.125 349.561 39.995 349.349 39.93 349.084 39.93L348.232 39.93 348.232 41.375zM348.232 41.884L348.232 43.575 347.613 43.575 347.613 39.409 349.084 39.409C349.545 39.409 349.911 39.52 350.18 39.742 350.45 39.965 350.585 40.269 350.585 40.652 350.585 40.943 350.503 41.188 350.34 41.388 350.176 41.588 349.952 41.729 349.666 41.81L350.677 43.575 349.972 43.575 349.022 41.884 348.232 41.884 348.232 41.884z"/>
    <polyline fill="#FFFFFE" points="353.948 43.575 352.08 41.473 352.08 43.575 351.461 43.575 351.461 39.409 352.08 39.409 352.08 41.234 353.826 39.409 354.592 39.409 352.735 41.32 354.727 43.575 353.948 43.575"/>
    <path fill="#FFFFFE" d="M8.186 21.811L8.186 34.455.356 34.455.356 11.55 7.511 11.55 7.916 14.565C8.665 13.485 9.641 12.615 10.841 11.955 12.04 11.296 13.361 10.965 14.801 10.965 17.291 10.965 19.285 11.775 20.786 13.396 22.286 15.016 23.036 17.341 23.036 20.37L23.036 34.455 15.206 34.455 15.206 21.271C15.206 19.92 14.906 18.923 14.306 18.278 13.705 17.633 12.866 17.311 11.786 17.311 10.706 17.311 9.835 17.655 9.176 18.345 8.516 19.036 8.186 20.19 8.186 21.811M39.235 28.83C40.615 28.83 41.717 28.298 42.543 27.233 43.368 26.168 43.78 24.751 43.78 22.981 43.78 21.211 43.368 19.801 42.543 18.75 41.717 17.7 40.615 17.175 39.235 17.175 37.855 17.175 36.753 17.7 35.928 18.75 35.102 19.801 34.69 21.211 34.69 22.981 34.69 24.751 35.102 26.168 35.928 27.233 36.753 28.298 37.855 28.83 39.235 28.83zM39.235 35.04C36.775 35.04 34.607 34.523 32.733 33.488 30.857 32.453 29.387 31.035 28.323 29.235 27.258 27.436 26.725 25.351 26.725 22.981 26.725 20.611 27.258 18.525 28.323 16.726 29.387 14.925 30.857 13.516 32.733 12.495 34.607 11.476 36.775 10.965 39.235 10.965 41.695 10.965 43.863 11.476 45.738 12.495 47.612 13.516 49.083 14.925 50.148 16.726 51.212 18.525 51.745 20.611 51.745 22.981 51.745 25.351 51.212 27.436 50.148 29.235 49.083 31.035 47.612 32.453 45.738 33.488 43.863 34.523 41.695 35.04 39.235 35.04L39.235 35.04zM63.67 25.59L63.67 34.455 55.84 34.455 55.84 11.55 62.995 11.55 63.49 15.375C63.97 14.146 64.757 13.148 65.853 12.383 66.948 11.618 68.215 11.235 69.655 11.235 70.465 11.235 71.08 11.341 71.5 11.55L71.5 18.705C71.17 18.586 70.803 18.496 70.398 18.436 69.993 18.376 69.535 18.345 69.025 18.345 67.465 18.345 66.182 18.923 65.178 20.078 64.172 21.233 63.67 23.07 63.67 25.59M93.505 32.97C92.575 33.601 91.509 34.103 90.31 34.478 89.11 34.853 87.85 35.04 86.53 35.04 84.07 35.04 82.112 34.328 80.657 32.903 79.202 31.479 78.475 29.565 78.475 27.165L78.475 17.4 74.74 17.4 74.74 11.55 78.835 11.55 79.825 5.16 86.305 5.16 86.305 11.55 92.29 11.55 92.29 17.4 86.305 17.4 86.305 26.175C86.305 26.956 86.537 27.564 87.002 27.998 87.467 28.433 88.089 28.65 88.87 28.65 89.259 28.65 89.657 28.576 90.062 28.425 90.467 28.275 90.85 28.096 91.21 27.885L93.505 32.97M105.07 21.856L105.07 34.455 97.24 34.455 97.24 1.606 105.07 1.606 105.07 14.205C105.819 13.215 106.772 12.428 107.927 11.843 109.082 11.258 110.335 10.965 111.685 10.965 114.174 10.965 116.169 11.775 117.67 13.396 119.169 15.016 119.92 17.341 119.92 20.37L119.92 34.455 112.09 34.455 112.09 21.271C112.09 19.92 111.789 18.923 111.19 18.278 110.589 17.633 109.75 17.311 108.67 17.311 107.59 17.311 106.719 17.655 106.06 18.345 105.399 19.036 105.07 20.206 105.07 21.856M122.124 42.78L120.639 36.391C121.96 36.27 123.024 35.835 123.834 35.085 124.644 34.336 125.049 33.285 125.049 31.936L125.049 11.55C126.309 11.82 127.584 11.955 128.874 11.955 130.194 11.955 131.529 11.82 132.879 11.55L132.879 31.53C132.879 34.86 132.016 37.485 130.292 39.405 128.566 41.325 125.844 42.45 122.124 42.78M149.214 16.635C146.664 16.635 145.134 17.985 144.624 20.686L153.354 20.686C153.144 19.216 152.641 18.173 151.846 17.558 151.051 16.943 150.174 16.635 149.214 16.635zM159.924 32.115C158.783 32.925 157.336 33.616 155.582 34.186 153.826 34.755 151.959 35.04 149.979 35.04 147.249 35.04 144.917 34.538 142.981 33.533 141.047 32.528 139.562 31.125 138.527 29.325 137.492 27.525 136.974 25.455 136.974 23.115 136.974 20.746 137.484 18.646 138.504 16.815 139.523 14.986 140.934 13.553 142.734 12.518 144.534 11.483 146.634 10.965 149.034 10.965 151.374 10.965 153.436 11.468 155.221 12.473 157.006 13.479 158.401 14.873 159.407 16.658 160.411 18.443 160.914 20.536 160.914 22.936 160.914 23.266 160.892 23.61 160.846 23.97 160.802 24.33 160.749 24.706 160.689 25.095L144.714 25.095C145.434 27.735 147.398 29.056 150.609 29.056 152.049 29.056 153.324 28.83 154.434 28.38 155.544 27.931 156.474 27.481 157.224 27.03L159.924 32.115 159.924 32.115zM172.749 25.59L172.749 34.455 164.919 34.455 164.919 11.55 172.074 11.55 172.569 15.375C173.048 14.146 173.836 13.148 174.931 12.383 176.026 11.618 177.294 11.235 178.734 11.235 179.544 11.235 180.158 11.341 180.579 11.55L180.579 18.705C180.248 18.586 179.881 18.496 179.476 18.436 179.071 18.376 178.614 18.345 178.104 18.345 176.544 18.345 175.261 18.923 174.256 20.078 173.251 21.233 172.749 23.07 172.749 25.59M192.863 35.04C190.883 35.04 189.031 34.726 187.306 34.095 185.58 33.465 184.028 32.565 182.648 31.396L185.978 26.985C187.028 27.825 188.161 28.508 189.376 29.033 190.591 29.558 191.783 29.82 192.953 29.82 193.733 29.82 194.355 29.686 194.821 29.415 195.286 29.146 195.518 28.74 195.518 28.2 195.518 27.631 195.255 27.173 194.731 26.828 194.206 26.483 193.268 26.146 191.918 25.815L189.758 25.275C185.468 24.136 183.323 21.841 183.323 18.391 183.323 16.86 183.743 15.541 184.583 14.431 185.423 13.321 186.578 12.466 188.048 11.865 189.518 11.266 191.228 10.965 193.178 10.965 195.098 10.965 196.906 11.266 198.601 11.865 200.295 12.466 201.848 13.336 203.258 14.476L199.838 18.976C198.788 18.136 197.678 17.461 196.508 16.95 195.338 16.44 194.243 16.186 193.223 16.186 191.573 16.186 190.748 16.726 190.748 17.806 190.748 18.286 190.996 18.676 191.491 18.976 191.986 19.275 192.683 19.546 193.583 19.785L196.508 20.595C198.698 21.196 200.318 22.096 201.368 23.295 202.418 24.496 202.943 25.921 202.943 27.57 202.943 29.071 202.523 30.383 201.683 31.508 200.843 32.633 199.665 33.503 198.151 34.118 196.636 34.732 194.873 35.04 192.863 35.04M218.063 16.635C215.513 16.635 213.983 17.985 213.473 20.686L222.203 20.686C221.993 19.216 221.49 18.173 220.696 17.558 219.9 16.943 219.023 16.635 218.063 16.635zM228.773 32.115C227.633 32.925 226.186 33.616 224.431 34.186 222.676 34.755 220.808 35.04 218.828 35.04 216.098 35.04 213.766 34.538 211.831 33.533 209.896 32.528 208.411 31.125 207.376 29.325 206.341 27.525 205.823 25.455 205.823 23.115 205.823 20.746 206.333 18.646 207.353 16.815 208.373 14.986 209.783 13.553 211.583 12.518 213.383 11.483 215.483 10.965 217.883 10.965 220.223 10.965 222.285 11.468 224.071 12.473 225.855 13.479 227.25 14.873 228.256 16.658 229.261 18.443 229.763 20.536 229.763 22.936 229.763 23.266 229.741 23.61 229.696 23.97 229.651 24.33 229.598 24.706 229.538 25.095L213.563 25.095C214.283 27.735 216.248 29.056 219.458 29.056 220.898 29.056 222.173 28.83 223.283 28.38 224.393 27.931 225.323 27.481 226.073 27.03L228.773 32.115 228.773 32.115zM248.753 32.655C247.373 36.195 245.798 38.835 244.029 40.575 242.258 42.315 240.008 43.186 237.279 43.186 236.048 43.186 234.939 43.05 233.949 42.78 232.959 42.51 232.118 42.18 231.428 41.79L233.634 36.391C234.053 36.6 234.518 36.78 235.029 36.931 235.538 37.08 236.078 37.155 236.648 37.155 237.459 37.155 238.186 36.96 238.831 36.57 239.476 36.18 240.038 35.475 240.519 34.455L240.878 33.646 230.529 11.55 239.168 11.55 244.253 25.275 248.439 11.55 256.943 11.55 248.753 32.655M259.193 34.95C258.232 34.95 257.355 34.718 256.56 34.253 255.765 33.788 255.135 33.158 254.67 32.363 254.205 31.568 253.973 30.69 253.973 29.731 253.973 28.771 254.205 27.893 254.67 27.098 255.135 26.303 255.765 25.673 256.56 25.208 257.355 24.743 258.232 24.51 259.193 24.51 260.152 24.51 261.03 24.743 261.825 25.208 262.62 25.673 263.25 26.303 263.715 27.098 264.18 27.893 264.413 28.771 264.413 29.731 264.413 30.69 264.18 31.568 263.715 32.363 263.25 33.158 262.62 33.788 261.825 34.253 261.03 34.718 260.152 34.95 259.193 34.95M278.722 35.04C276.382 35.04 274.305 34.538 272.49 33.533 270.674 32.528 269.242 31.125 268.192 29.325 267.142 27.525 266.617 25.426 266.617 23.025 266.617 20.626 267.142 18.525 268.192 16.726 269.242 14.925 270.674 13.524 272.49 12.518 274.305 11.513 276.382 11.01 278.722 11.01 280.792 11.01 282.607 11.393 284.167 12.158 285.727 12.923 287.107 14.146 288.307 15.825L283.132 19.606C282.712 18.976 282.165 18.458 281.49 18.053 280.815 17.648 280.087 17.445 279.307 17.445 277.957 17.445 276.832 17.948 275.932 18.953 275.032 19.958 274.582 21.315 274.582 23.025 274.582 24.735 275.032 26.093 275.932 27.098 276.832 28.104 277.957 28.606 279.307 28.606 280.087 28.606 280.815 28.403 281.49 27.998 282.165 27.593 282.712 27.075 283.132 26.445L288.307 30.226C287.107 31.906 285.727 33.128 284.167 33.893 282.607 34.658 280.792 35.04 278.722 35.04M302.932 28.83C304.312 28.83 305.414 28.298 306.239 27.233 307.064 26.168 307.477 24.751 307.477 22.981 307.477 21.211 307.064 19.801 306.239 18.75 305.414 17.7 304.312 17.175 302.932 17.175 301.552 17.175 300.449 17.7 299.625 18.75 298.799 19.801 298.387 21.211 298.387 22.981 298.387 24.751 298.799 26.168 299.625 27.233 300.449 28.298 301.552 28.83 302.932 28.83zM302.932 35.04C300.472 35.04 298.304 34.523 296.429 33.488 294.554 32.453 293.084 31.035 292.02 29.235 290.954 27.436 290.422 25.351 290.422 22.981 290.422 20.611 290.954 18.525 292.02 16.726 293.084 14.925 294.554 13.516 296.429 12.495 298.304 11.476 300.472 10.965 302.932 10.965 305.392 10.965 307.559 11.476 309.435 12.495 311.309 13.516 312.779 14.925 313.844 16.726 314.909 18.525 315.442 20.611 315.442 22.981 315.442 25.351 314.909 27.436 313.844 29.235 312.779 31.035 311.309 32.453 309.435 33.488 307.559 34.523 305.392 35.04 302.932 35.04L302.932 35.04zM327.367 21.271L327.367 34.455 319.537 34.455 319.537 11.55 326.737 11.55 327.142 14.476C327.832 13.366 328.731 12.525 329.842 11.955 330.951 11.386 332.137 11.101 333.397 11.101 334.747 11.101 335.977 11.4 337.087 12 338.196 12.601 339.096 13.44 339.787 14.521 340.597 13.411 341.654 12.563 342.96 11.978 344.264 11.393 345.637 11.101 347.077 11.101 348.667 11.101 350.069 11.468 351.284 12.203 352.5 12.939 353.451 13.958 354.142 15.263 354.832 16.568 355.177 18.075 355.177 19.785L355.177 34.455 347.347 34.455 347.347 20.595C347.347 19.636 347.084 18.871 346.56 18.3 346.034 17.731 345.367 17.445 344.557 17.445 343.567 17.445 342.772 17.76 342.172 18.391 341.571 19.021 341.272 19.981 341.272 21.271L341.272 34.455 333.442 34.455 333.442 20.595C333.442 19.636 333.187 18.871 332.677 18.3 332.167 17.731 331.477 17.445 330.607 17.445 329.647 17.445 328.867 17.76 328.267 18.391 327.667 19.021 327.367 19.981 327.367 21.271"/>
    <path fill="#009BD3" d="M128.874,9.75 C127.584,9.75 126.481,9.293 125.567,8.378 C124.651,7.463 124.194,6.36 124.194,5.07 C124.194,3.781 124.651,2.678 125.567,1.763 C126.481,0.848 127.584,0.391 128.874,0.391 C130.164,0.391 131.266,0.848 132.182,1.763 C133.096,2.678 133.554,3.781 133.554,5.07 C133.554,6.36 133.096,7.463 132.182,8.378 C131.266,9.293 130.164,9.75 128.874,9.75"/>
  </g>
</svg>
