<svg xmlns="http://www.w3.org/2000/svg" width="617" height="102" viewBox="0 0 617 102" xmlns:xlink="http://www.w3.org/1999/xlink">
  <defs>
    <polygon id="a" points=".457 18.94 38.447 18.94 38.447 .436 .457 .436"/>
    <polygon id="c" points=".744 18.94 47.574 18.94 47.574 .436 .744 .436 .744 18.94"/>
    <polygon id="e" points=".373 18.94 32.78 18.94 32.78 .436 .373 .436"/>
    <polygon id="g" points=".983 18.94 47.358 18.94 47.358 .436 .983 .436"/>
  </defs>
  <g fill="none" fill-rule="evenodd">
    <path fill="#143348" d="M263.003,41.529 C263.003,48.82 259.763,51.969 254.543,51.969 C250.133,51.969 246.623,49.629 243.024,45.67 L234.294,55.389 C238.614,60.52 245.094,64.84 254.903,64.84 C261.743,64.84 267.413,62.859 271.283,58.99 C275.063,55.209 277.222,49.629 277.222,42.16 L277.222,0.942 L263.003,0.942 L263.003,41.529 L263.003,41.529 Z M295.448,36.041 C296.528,29.831 300.218,25.781 305.888,25.781 C311.647,25.781 315.247,29.921 316.057,36.041 L295.448,36.041 L295.448,36.041 Z M305.888,14.801 C291.848,14.801 282.038,26.141 282.038,39.91 L282.038,40.09 C282.038,54.85 292.748,65.02 307.238,65.02 C315.967,65.02 322.447,61.6 326.947,56.02 L319.117,49.09 C315.337,52.6 312.007,54.039 307.417,54.039 C301.298,54.039 296.978,50.799 295.628,44.59 L329.197,44.59 C329.287,43.33 329.376,42.07 329.376,40.99 C329.376,27.311 321.997,14.801 305.888,14.801 L305.888,14.801 Z M347.872,25.421 L347.872,15.702 L334.193,15.702 L334.193,63.94 L347.872,63.94 L347.872,46.119 C347.872,34.6 353.453,29.111 362.542,29.111 L363.261,29.111 L363.261,14.801 C355.162,14.441 350.662,18.761 347.872,25.421 L347.872,25.421 Z M486.966,15.702 L476.437,48.551 L465.458,15.702 L450.968,15.702 L469.869,64.119 C468.699,66.549 467.439,67.27 465.099,67.27 C463.298,67.27 461.048,66.459 459.247,65.379 L454.66,75.279 C458.169,77.35 461.859,78.61 466.808,78.61 C474.997,78.61 478.956,74.918 482.646,65.11 L501.185,15.702 L486.966,15.702 L486.966,15.702 Z M418.453,36.041 C419.533,29.831 423.222,25.781 428.892,25.781 C434.652,25.781 438.251,29.921 439.062,36.041 L418.453,36.041 L418.453,36.041 Z M428.892,14.801 C414.853,14.801 405.042,26.141 405.042,39.91 L405.042,40.09 C405.042,54.85 415.751,65.02 430.242,65.02 C438.97,65.02 445.451,61.6 449.951,56.02 L442.121,49.09 C438.341,52.6 435.011,54.039 430.421,54.039 C424.302,54.039 419.982,50.799 418.632,44.59 L452.201,44.59 C452.29,43.33 452.38,42.07 452.38,40.99 C452.38,27.311 445.001,14.801 428.892,14.801 L428.892,14.801 Z M388.648,34.781 C383.427,32.981 378.837,31.72 378.837,29.021 L378.837,28.84 C378.837,26.951 380.548,25.511 383.876,25.511 C387.388,25.511 392.158,27.221 396.927,30.01 L402.146,20.561 C396.927,17.051 390.267,14.981 384.148,14.981 C374.427,14.981 366.507,20.471 366.507,30.281 L366.507,30.461 C366.507,39.82 374.158,42.971 380.908,44.949 C386.218,46.57 390.898,47.561 390.898,50.529 L390.898,50.709 C390.898,52.869 389.097,54.311 385.138,54.311 C380.638,54.311 375.148,52.33 369.927,48.551 L364.078,57.549 C370.468,62.59 378.027,64.84 384.777,64.84 C395.216,64.84 403.226,59.979 403.226,49.27 L403.226,49.09 C403.226,40.27 395.396,37.031 388.648,34.781 L388.648,34.781 Z M98.493,40.09 C98.493,47.199 93.813,53.231 85.983,53.231 C78.424,53.231 73.294,47.02 73.294,39.91 L73.294,39.731 C73.294,32.621 77.974,26.59 85.803,26.59 C93.363,26.59 98.493,32.8 98.493,39.91 L98.493,40.09 L98.493,40.09 Z M85.983,14.801 C70.954,14.801 59.794,26.05 59.794,39.91 L59.794,40.09 C59.794,53.949 70.864,65.02 85.803,65.02 C100.833,65.02 111.992,53.77 111.992,39.91 L111.992,39.731 C111.992,25.871 100.923,14.801 85.983,14.801 L85.983,14.801 Z M213.098,14.801 C206.168,14.801 202.119,18.491 198.969,22.541 L198.969,0.942 L185.289,0.942 L185.289,63.94 L198.969,63.94 L198.969,37.031 C198.969,30.55 202.298,27.221 207.518,27.221 C212.738,27.221 215.798,30.55 215.798,37.031 L215.798,63.94 L229.477,63.94 L229.477,32.711 C229.477,21.641 223.448,14.801 213.098,14.801 L213.098,14.801 Z M42.298,39.731 L12.78,0.942 L0,0.942 L0,63.94 L13.68,63.94 L13.68,23.891 L44.188,63.94 L55.978,63.94 L55.978,0.942 L42.298,0.942 L42.298,39.731 L42.298,39.731 Z M129.488,24.644 L129.488,15.702 L115.809,15.702 L115.809,63.94 L129.488,63.94 L129.488,46.119 C129.488,34.6 135.068,27.401 144.158,27.401 L144.877,27.401 L144.877,15.702 C136.778,15.341 132.278,17.985 129.488,24.644 L129.488,24.644 Z M169.133,0.942 L155.454,0.942 L155.454,15.702 L149.694,15.702 L149.694,27.401 L155.454,27.401 L155.454,50.26 C155.454,61.42 161.123,64.75 169.493,64.75 C174.083,64.75 177.413,63.67 180.292,61.959 L180.292,50.981 C178.313,52.061 176.063,52.69 173.543,52.69 C170.483,52.69 169.133,51.16 169.133,48.01 L169.133,27.401 L180.473,27.401 L180.473,15.702 L169.133,15.702 L169.133,0.942 L169.133,0.942 Z M499.15,50.559 C495.431,50.559 492.421,53.572 492.421,57.287 C492.421,61.006 495.431,64.02 499.15,64.02 C502.867,64.02 505.88,61.006 505.88,57.287 C505.88,53.572 502.867,50.559 499.15,50.559 L499.15,50.559 Z M560.347,48.936 C560.347,53.236 557.515,56.885 552.777,56.885 C548.203,56.885 545.099,53.127 545.099,48.824 L545.099,48.717 C545.099,44.414 547.931,40.766 552.667,40.766 C557.244,40.766 560.347,44.526 560.347,48.824 L560.347,48.936 L560.347,48.936 Z M552.777,33.633 C543.683,33.633 536.931,40.44 536.931,48.824 L536.931,48.936 C536.931,57.32 543.628,64.02 552.667,64.02 C561.761,64.02 568.513,57.211 568.513,48.824 L568.513,48.717 C568.513,40.33 561.816,33.633 552.777,33.633 L552.777,33.633 Z M606.466,33.633 C602.49,33.633 599.441,35.267 596.882,38.262 C595.357,35.322 592.47,33.633 588.66,33.633 C584.466,33.633 581.962,35.867 580.054,38.317 L580.054,34.178 L571.779,34.178 L571.779,63.363 L580.054,63.363 L580.054,47.082 C580.054,43.164 581.962,41.149 585.066,41.149 C588.169,41.149 589.912,43.164 589.912,47.082 L589.912,63.363 L598.191,63.363 L598.191,47.082 C598.191,43.164 600.095,41.149 603.199,41.149 C606.302,41.149 608.044,43.164 608.044,47.082 L608.044,63.363 L616.322,63.363 L616.322,44.359 C616.322,37.337 612.619,33.633 606.466,33.633 L606.466,33.633 Z M524.634,40.766 C527.576,40.766 529.427,42.018 531.279,43.979 L531.312,43.942 C531.978,41.369 533.154,39.018 534.742,36.987 C532.271,34.88 529.173,33.633 524.689,33.633 C515.759,33.633 509.386,40.494 509.386,48.824 L509.386,48.936 C509.386,57.268 515.812,64.02 524.579,64.02 C529.154,64.02 532.15,62.639 534.595,60.545 C533.128,58.627 532.027,56.434 531.372,54.039 C529.462,55.789 527.607,56.885 524.96,56.885 C520.441,56.885 517.556,53.291 517.556,48.824 L517.556,48.717 C517.556,44.414 520.496,40.766 524.634,40.766 L524.634,40.766 Z"/>
    <path fill="#343433" d="M4.884 92.668C7.3 92.668 8.597 91.319 8.597 89.284 8.597 87.271 7.3 85.9 4.884 85.9L2.517 85.9 2.517 92.668 4.884 92.668 4.884 92.668zM0 83.787L5.137 83.787C8.75 83.787 11.167 85.95 11.167 89.284 11.167 92.618 8.7 94.775 5.137 94.775L2.517 94.775 2.517 101.643 0 101.643 0 83.787 0 83.787zM22.548 94.853L20.845 90.454C20.591 89.791 19.496 87.043 19.471 86.814L19.42 86.814C19.395 87.043 18.328 89.713 18.046 90.454L16.318 94.853 22.548 94.853 22.548 94.853zM18.353 83.787L20.591 83.787 27.917 101.643 25.218 101.643 23.39 96.966 15.479 96.966 13.648 101.643 11.002 101.643C11.002 101.643 17.461 85.978 18.353 83.787L18.353 83.787zM35.356 92.311C37.695 92.311 39.019 91.062 39.019 89.105 39.019 87.149 37.695 85.9 35.356 85.9L32.99 85.9 32.99 92.311 35.356 92.311 35.356 92.311zM30.473 83.787L35.635 83.787C38.966 83.787 41.561 85.521 41.561 89.077 41.561 91.854 39.73 93.682 37.035 94.117L42.504 101.643 39.551 101.643 34.389 94.368 32.99 94.368 32.99 101.643 30.473 101.643 30.473 83.787 30.473 83.787z"/>
    <g transform="translate(43 83)">
      <mask id="b" fill="white">
        <use xlink:href="#a"/>
      </mask>
      <polyline fill="#343433" points="5.544 2.95 .457 2.95 .457 .787 13.148 .787 13.148 2.95 8.061 2.95 8.061 18.643 5.544 18.643 5.544 2.95" mask="url(#b)"/>
      <path fill="#343433" d="M35.852,9.718 C35.852,5.57 32.978,2.699 29.037,2.699 C25.146,2.699 22.244,5.57 22.244,9.718 C22.244,13.866 25.146,16.737 29.037,16.737 C32.978,16.737 35.852,13.866 35.852,9.718 L35.852,9.718 Z M19.677,9.718 C19.677,4.706 23.311,0.436 29.062,0.436 C34.81,0.436 38.447,4.706 38.447,9.718 C38.447,14.73 34.81,19 29.062,19 C23.311,19 19.677,14.73 19.677,9.718 L19.677,9.718 Z" mask="url(#b)"/>
    </g>
    <polyline fill="#343433" points="85.071 83.787 94.075 83.787 94.075 85.95 87.588 85.95 87.588 91.698 93.871 91.698 93.871 93.861 87.588 93.861 87.588 101.643 85.071 101.643 85.071 83.787"/>
    <polyline fill="#343433" points="105.461 85.95 100.374 85.95 100.374 83.787 113.066 83.787 113.066 85.95 107.979 85.95 107.979 101.643 105.461 101.643 105.461 85.95"/>
    <polyline fill="#343433" points="115.708 83.787 118.225 83.787 118.225 91.112 127.586 91.112 127.586 83.787 130.106 83.787 130.106 101.643 127.586 101.643 127.586 93.275 118.225 93.275 118.225 101.643 115.708 101.643 115.708 83.787"/>
    <g transform="translate(134 83)">
      <mask id="d" fill="white">
        <use xlink:href="#c"/>
      </mask>
      <polyline fill="#343433" points=".744 .787 10.461 .787 10.461 2.928 3.261 2.928 3.261 8.112 10.255 8.112 10.255 10.253 3.261 10.253 3.261 16.508 10.612 16.508 10.612 18.643 .744 18.643 .744 .787" mask="url(#d)"/>
      <path fill="#343433" d="M19.052 12.489L19.052.787 21.594.787 21.594 11.725C21.594 14.83 22.918 16.737 25.893 16.737 28.895 16.737 30.219 14.83 30.219 11.725L30.219.787 32.761.787 32.761 12.489C32.761 16.408 30.244 19 25.893 19 21.519 19 19.052 16.408 19.052 12.489M35.39 15.416L37.095 13.966C37.96 15.388 39.334 16.787 41.572 16.787 43.529 16.787 45.057 15.722 45.057 13.76 45.057 11.653 43.3 10.939 41.112 10.075 38.874 9.183 36.61 8.062 36.61 5.213 36.61 2.392 38.799.436 42.004.436 44.546.436 46.224 1.601 47.245 3.128L45.539 4.578C44.853 3.513 43.707 2.643 42.004 2.643 40.273 2.643 39.13 3.535 39.13 5.035 39.13 6.891 40.909 7.505 42.461 8.112 44.978 9.105 47.574 10.303 47.574 13.581 47.574 16.687 45.285 19 41.622 19 38.57 19 36.535 17.4 35.39 15.416" mask="url(#d)"/>
    </g>
    <path fill="#343433" d="M194.463,94.853 L192.76,90.454 C192.506,89.791 191.411,87.043 191.386,86.814 L191.335,86.814 C191.31,87.043 190.243,89.713 189.961,90.454 L188.233,94.853 L194.463,94.853 L194.463,94.853 Z M190.268,83.787 L192.506,83.787 L199.832,101.643 L197.133,101.643 L195.305,96.966 L187.394,96.966 L185.563,101.643 L182.917,101.643 C182.917,101.643 189.376,85.978 190.268,83.787 L190.268,83.787 Z"/>
    <g transform="translate(205 83)">
      <mask id="f" fill="white">
        <use xlink:href="#e"/>
      </mask>
      <polyline fill="#343433" points="5.46 2.95 .373 2.95 .373 .787 13.065 .787 13.065 2.95 7.977 2.95 7.977 18.643 5.46 18.643 5.46 2.95" mask="url(#f)"/>
      <path fill="#343433" d="M30.185,9.718 C30.185,5.57 27.311,2.699 23.37,2.699 C19.479,2.699 16.577,5.57 16.577,9.718 C16.577,13.866 19.479,16.737 23.37,16.737 C27.311,16.737 30.185,13.866 30.185,9.718 L30.185,9.718 Z M14.009,9.718 C14.009,4.706 17.644,0.436 23.395,0.436 C29.143,0.436 32.78,4.706 32.78,9.718 C32.78,14.73 29.143,19 23.395,19 C17.644,19 14.009,14.73 14.009,9.718 L14.009,9.718 Z" mask="url(#f)"/>
    </g>
    <path fill="#343433" d="M243.921 99.48L246.263 99.48C250.433 99.48 253.332 97.273 253.332 92.718 253.332 88.163 250.433 85.95 246.263 85.95L243.921 85.95 243.921 99.48 243.921 99.48zM241.404 83.787L246.466 83.787C252.164 83.787 255.927 87.043 255.927 92.718 255.927 98.365 252.136 101.643 246.466 101.643L241.404 101.643 241.404 83.787 241.404 83.787zM268.303 94.853L266.6 90.454C266.346 89.791 265.251 87.043 265.226 86.814L265.176 86.814C265.151 87.043 264.083 89.713 263.801 90.454L262.073 94.853 268.303 94.853 268.303 94.853zM264.108 83.787L266.346 83.787 273.672 101.643 270.974 101.643 269.145 96.966 261.234 96.966 259.403 101.643 256.758 101.643C256.758 101.643 263.216 85.978 264.108 83.787L264.108 83.787zM278.701 94.368L272.621 83.787 275.445 83.787 278.751 89.741C278.904 90.02 279.972 91.982 280.022 92.283L280.047 92.283C280.1 91.982 281.167 90.02 281.321 89.741L284.652 83.787 287.397 83.787 281.321 94.368 281.321 101.643 278.701 101.643 278.701 94.368M294.795 83.787L296.727 83.787 306.851 95.361C307.155 95.695 308.479 97.345 308.607 97.602L308.658 97.574C308.607 97.323 308.607 95.26 308.607 94.803L308.607 83.787 311.049 83.787 311.049 101.643 309.09 101.643 298.966 90.07C298.662 89.741 297.338 88.085 297.212 87.834L297.187 87.857C297.212 88.113 297.237 90.176 297.237 90.633L297.237 101.643 294.795 101.643 294.795 83.787"/>
    <polyline fill="#343433" points="315.688 83.787 325.402 83.787 325.402 85.928 318.205 85.928 318.205 91.112 325.201 91.112 325.201 93.253 318.205 93.253 318.205 99.508 325.555 99.508 325.555 101.643 315.688 101.643 315.688 83.787"/>
    <polyline fill="#343433" points="333.279 85.95 328.192 85.95 328.192 83.787 340.884 83.787 340.884 85.95 335.796 85.95 335.796 101.643 333.279 101.643 333.279 85.95"/>
    <g transform="translate(342 83)">
      <mask id="h" fill="white">
        <use xlink:href="#g"/>
      </mask>
      <path fill="#343433" d="M.983.787L3.653.787 7.316 11.396C7.444 11.803 8.308 14.445 8.333 14.853L8.386 14.853C8.411 14.445 9.3 11.803 9.454 11.396L13.27.787 15.28.787 19.093 11.396C19.246 11.803 20.135 14.445 20.163 14.853L20.213 14.853C20.264 14.445 21.128 11.803 21.256 11.396L24.894.787 27.461.787 21.178 18.643 19.246 18.643 15.126 7.505C14.998 7.12 14.287 5.013 14.259 4.606L14.209 4.606C14.184 5.013 13.445 7.12 13.32 7.505L9.225 18.643 7.291 18.643.983.787M44.763 9.718C44.763 5.57 41.889 2.699 37.947 2.699 34.056 2.699 31.154 5.57 31.154 9.718 31.154 13.866 34.056 16.737 37.947 16.737 41.889 16.737 44.763 13.866 44.763 9.718L44.763 9.718zM28.587 9.718C28.587 4.706 32.222.436 37.972.436 43.72.436 47.358 4.706 47.358 9.718 47.358 14.73 43.72 19 37.972 19 32.222 19 28.587 14.73 28.587 9.718L28.587 9.718z" mask="url(#h)"/>
    </g>
    <path fill="#343433" d="M397.865,92.311 C400.204,92.311 401.528,91.062 401.528,89.105 C401.528,87.149 400.204,85.9 397.865,85.9 L395.499,85.9 L395.499,92.311 L397.865,92.311 L397.865,92.311 Z M392.982,83.787 L398.144,83.787 C401.478,83.787 404.07,85.521 404.07,89.077 C404.07,91.854 402.239,93.682 399.543,94.117 L405.012,101.643 L402.06,101.643 L396.898,94.368 L395.499,94.368 L395.499,101.643 L392.982,101.643 L392.982,83.787 L392.982,83.787 Z"/>
    <polyline fill="#343433" points="407.864 83.787 410.381 83.787 410.381 92.082 417.757 83.787 420.809 83.787 413.155 92.311 421.166 101.643 418.013 101.643 410.381 92.618 410.381 101.643 407.864 101.643 407.864 83.787"/>
  </g>
</svg>
