<svg xmlns="http://www.w3.org/2000/svg" width="349" height="55" viewBox="0 0 349 55">
  <g fill="none" fill-rule="evenodd">
    <path class='no-color-change' fill="#009BFF" d="M54.177,27.824 C54.177,42.736 42.089,54.823 27.177,54.823 C12.264,54.823 0.177,42.736 0.177,27.824 C0.177,12.911 12.264,0.823 27.177,0.823 C42.089,0.823 54.177,12.911 54.177,27.824"/>
    <path fill="#404040" d="M69.537 21.551C70.516 21.551 71.272 21.263 71.805 20.685 72.338 20.108 72.606 19.287 72.606 18.22L72.606 7.44 77.484 7.44 77.484 18.193C77.484 20.555 76.793 22.382 75.412 23.676 74.031 24.97 72.072 25.616 69.537 25.616 67.001 25.616 65.042 24.97 63.662 23.676 62.28 22.382 61.589 20.555 61.589 18.193L61.589 7.44 66.468 7.44 66.468 18.22C66.468 19.287 66.735 20.108 67.268 20.685 67.801 21.263 68.557 21.551 69.537 21.551M87.241 25.616C85.79 25.616 84.399 25.367 83.071 24.869 81.742 24.37 80.587 23.658 79.609 22.731L81.969 19.768C82.668 20.396 83.455 20.892 84.33 21.249 85.204 21.607 86.166 21.787 87.214 21.787 87.914 21.787 88.464 21.665 88.867 21.42 89.269 21.175 89.47 20.808 89.47 20.318 89.47 19.846 89.235 19.466 88.762 19.178 88.291 18.889 87.46 18.587 86.271 18.272L85.169 17.983C83.56 17.564 82.336 16.922 81.497 16.056 80.658 15.19 80.238 14.094 80.238 12.765 80.238 11.628 80.535 10.631 81.129 9.774 81.724 8.918 82.546 8.258 83.595 7.794 84.644 7.331 85.86 7.099 87.241 7.099 88.605 7.099 89.908 7.349 91.149 7.847 92.39 8.345 93.492 9.022 94.454 9.879L92.014 12.948C91.385 12.406 90.646 11.934 89.798 11.531 88.95 11.13 88.107 10.929 87.267 10.929 86.568 10.929 86.03 11.047 85.654 11.282 85.278 11.519 85.09 11.864 85.09 12.318 85.09 12.738 85.287 13.102 85.68 13.407 86.074 13.713 86.751 13.997 87.713 14.26L89.05 14.627C90.974 15.151 92.334 15.868 93.129 16.777 93.924 17.686 94.323 18.744 94.323 19.951 94.323 21.088 94.03 22.08 93.444 22.928 92.858 23.776 92.032 24.436 90.965 24.908 89.899 25.38 88.658 25.616 87.241 25.616M102.48 18.325L106.703 18.325 104.605 12.082 102.48 18.325zM109.063 25.275L107.936 21.944 101.248 21.944 100.12 25.275 95.293 25.275 101.825 7.44 107.49 7.44 114.021 25.275 109.063 25.275 109.063 25.275z"/>
    <polyline fill="#404040" points="125.219 25.275 125.219 11.374 119.921 11.374 119.921 7.44 135.396 7.44 135.396 11.374 130.098 11.374 130.098 25.275 125.219 25.275"/>
    <path fill="#404040" d="M145.599 21.577C146.456 21.577 147.203 21.358 147.841 20.922 148.48 20.484 148.982 19.877 149.349 19.099 149.716 18.32 149.901 17.416 149.901 16.384 149.901 15.352 149.716 14.443 149.349 13.656 148.982 12.869 148.48 12.253 147.841 11.807 147.203 11.361 146.456 11.139 145.599 11.139 144.742 11.139 143.995 11.361 143.356 11.807 142.718 12.253 142.215 12.869 141.848 13.656 141.481 14.443 141.297 15.352 141.297 16.384 141.297 17.416 141.481 18.32 141.848 19.099 142.215 19.877 142.718 20.484 143.356 20.922 143.995 21.358 144.742 21.577 145.599 21.577zM145.599 25.616C143.815 25.616 142.229 25.223 140.838 24.436 139.449 23.649 138.351 22.56 137.546 21.171 136.743 19.78 136.34 18.185 136.34 16.384 136.34 15.019 136.567 13.774 137.022 12.646 137.477 11.519 138.124 10.539 138.963 9.709 139.802 8.879 140.782 8.235 141.901 7.781 143.019 7.326 144.252 7.099 145.599 7.099 146.945 7.099 148.178 7.326 149.297 7.781 150.416 8.235 151.395 8.879 152.235 9.709 153.074 10.539 153.721 11.519 154.175 12.646 154.63 13.774 154.858 15.019 154.858 16.384 154.858 18.185 154.456 19.78 153.651 21.171 152.846 22.56 151.75 23.649 150.36 24.436 148.969 25.223 147.382 25.616 145.599 25.616L145.599 25.616zM162.463 21.42L164.693 21.42C165.969 21.42 166.979 20.957 167.722 20.029 168.465 19.103 168.837 17.879 168.837 16.357 168.837 14.836 168.465 13.612 167.722 12.685 166.979 11.759 165.969 11.296 164.693 11.296L162.463 11.296 162.463 21.42zM157.664 25.275L157.664 7.44 164.693 7.44C166.46 7.44 168.02 7.82 169.375 8.581 170.73 9.342 171.793 10.391 172.562 11.728 173.331 13.066 173.715 14.609 173.715 16.357 173.715 18.106 173.331 19.649 172.562 20.987 171.793 22.324 170.73 23.374 169.375 24.135 168.02 24.895 166.46 25.275 164.693 25.275L157.664 25.275 157.664 25.275zM181.532 18.325L185.754 18.325 183.657 12.082 181.532 18.325zM188.115 25.275L186.988 21.944 180.299 21.944 179.171 25.275 174.345 25.275 180.876 7.44 186.542 7.44 193.073 25.275 188.115 25.275 188.115 25.275z"/>
    <polyline fill="#404040" points="202.514 18.85 202.514 25.275 197.556 25.275 197.556 18.85 191.236 7.44 196.744 7.44 200.048 14.521 203.327 7.44 208.835 7.44 202.514 18.85"/>
    <polyline fill="#404040" points="227.797 25.275 220.794 14.994 220.794 25.275 216.309 25.275 216.309 7.44 220.768 7.44 227.745 17.905 227.745 7.44 232.256 7.44 232.256 25.275 227.797 25.275"/>
    <polyline fill="#404040" points="236.191 25.275 236.191 7.44 248.493 7.44 248.493 11.348 240.965 11.348 240.965 14.364 247.653 14.364 247.653 18.272 240.965 18.272 240.965 21.367 248.913 21.367 248.913 25.275 236.191 25.275"/>
    <polyline fill="#404040" points="255.915 25.275 255.915 11.374 250.617 11.374 250.617 7.44 266.091 7.44 266.091 11.374 260.793 11.374 260.793 25.275 255.915 25.275"/>
    <polyline fill="#404040" points="282.562 25.275 279.677 13.683 276.792 25.275 271.625 25.275 267.192 7.44 271.914 7.44 274.615 19.61 277.605 7.44 281.775 7.44 284.739 19.531 287.519 7.44 292.162 7.44 287.729 25.275 282.562 25.275"/>
    <path fill="#404040" d="M302.548 21.577C303.405 21.577 304.152 21.358 304.791 20.922 305.429 20.484 305.931 19.877 306.298 19.099 306.666 18.32 306.85 17.416 306.85 16.384 306.85 15.352 306.666 14.443 306.298 13.656 305.931 12.869 305.429 12.253 304.791 11.807 304.152 11.361 303.405 11.139 302.548 11.139 301.691 11.139 300.944 11.361 300.305 11.807 299.668 12.253 299.165 12.869 298.797 13.656 298.43 14.443 298.247 15.352 298.247 16.384 298.247 17.416 298.43 18.32 298.797 19.099 299.165 19.877 299.668 20.484 300.305 20.922 300.944 21.358 301.691 21.577 302.548 21.577zM302.548 25.616C300.764 25.616 299.178 25.223 297.788 24.436 296.398 23.649 295.3 22.56 294.496 21.171 293.692 19.78 293.29 18.185 293.29 16.384 293.29 15.019 293.516 13.774 293.971 12.646 294.426 11.519 295.073 10.539 295.913 9.709 296.751 8.879 297.731 8.235 298.85 7.781 299.968 7.326 301.202 7.099 302.548 7.099 303.894 7.099 305.127 7.326 306.247 7.781 307.365 8.235 308.344 8.879 309.184 9.709 310.023 10.539 310.67 11.519 311.125 12.646 311.58 13.774 311.807 15.019 311.807 16.384 311.807 18.185 311.405 19.78 310.6 21.171 309.795 22.56 308.699 23.649 307.309 24.436 305.918 25.223 304.332 25.616 302.548 25.616L302.548 25.616zM319.387 15.649L322.01 15.649C322.761 15.649 323.356 15.453 323.793 15.06 324.23 14.666 324.449 14.128 324.449 13.446 324.449 12.8 324.23 12.279 323.793 11.886 323.356 11.492 322.761 11.296 322.01 11.296L319.387 11.296 319.387 15.649zM319.387 19.348L319.387 25.275 314.666 25.275 314.666 7.44 322.535 7.44C324.632 7.44 326.293 7.977 327.518 9.053 328.742 10.128 329.354 11.593 329.354 13.446 329.354 14.652 329.083 15.693 328.541 16.567 327.999 17.442 327.238 18.124 326.259 18.613L329.905 25.275 324.711 25.275 321.748 19.348 319.387 19.348 319.387 19.348z"/>
    <polyline fill="#404040" points="343.044 25.275 337.379 16.556 337.379 25.275 332.527 25.275 332.527 7.44 337.379 7.44 337.379 15.269 343.254 7.44 348.868 7.44 342.258 15.637 348.737 25.275 343.044 25.275"/>
    <polyline class='no-color-change' fill="#009BFF" points="73.418 48.129 66.416 37.848 66.416 48.129 61.93 48.129 61.93 30.294 66.389 30.294 73.366 40.759 73.366 30.294 77.878 30.294 77.878 48.129 73.418 48.129"/>
    <path class='no-color-change' fill="#009BFF" d="M90.047 44.431C90.904 44.431 91.651 44.212 92.29 43.775 92.928 43.338 93.43 42.73 93.797 41.952 94.165 41.174 94.349 40.269 94.349 39.237 94.349 38.206 94.165 37.297 93.797 36.51 93.43 35.723 92.928 35.106 92.29 34.66 91.651 34.215 90.904 33.992 90.047 33.992 89.19 33.992 88.443 34.215 87.804 34.66 87.167 35.106 86.664 35.723 86.296 36.51 85.929 37.297 85.746 38.206 85.746 39.237 85.746 40.269 85.929 41.174 86.296 41.952 86.664 42.73 87.167 43.338 87.804 43.775 88.443 44.212 89.19 44.431 90.047 44.431zM90.047 48.47C88.263 48.47 86.677 48.076 85.287 47.29 83.897 46.503 82.799 45.414 81.995 44.024 81.191 42.634 80.789 41.039 80.789 39.237 80.789 37.873 81.015 36.628 81.47 35.5 81.925 34.372 82.572 33.393 83.412 32.562 84.251 31.732 85.23 31.089 86.349 30.635 87.467 30.18 88.701 29.952 90.047 29.952 91.393 29.952 92.626 30.18 93.746 30.635 94.864 31.089 95.843 31.732 96.683 32.562 97.522 33.393 98.169 34.372 98.624 35.5 99.079 36.628 99.306 37.873 99.306 39.237 99.306 41.039 98.904 42.634 98.099 44.024 97.294 45.414 96.198 46.503 94.808 47.29 93.418 48.076 91.831 48.47 90.047 48.47L90.047 48.47zM106.939 38.503L109.562 38.503C110.313 38.503 110.908 38.307 111.345 37.913 111.782 37.519 112.001 36.981 112.001 36.3 112.001 35.653 111.782 35.133 111.345 34.739 110.908 34.346 110.313 34.149 109.562 34.149L106.939 34.149 106.939 38.503zM106.939 42.201L106.939 48.129 102.217 48.129 102.217 30.294 110.086 30.294C112.184 30.294 113.845 30.831 115.07 31.906 116.293 32.981 116.906 34.446 116.906 36.3 116.906 37.506 116.634 38.547 116.092 39.421 115.55 40.296 114.79 40.977 113.811 41.467L117.457 48.129 112.263 48.129 109.299 42.201 106.939 42.201 106.939 42.201z"/>
    <polyline class='no-color-change' fill="#009BFF" points="123.751 48.129 123.751 34.227 118.454 34.227 118.454 30.294 133.928 30.294 133.928 34.227 128.63 34.227 128.63 48.129 123.751 48.129"/>
    <polyline class='no-color-change' fill="#009BFF" points="136.498 48.129 136.498 30.294 141.376 30.294 141.376 37.165 147.435 37.165 147.435 30.294 152.314 30.294 152.314 48.129 147.435 48.129 147.435 41.152 141.376 41.152 141.376 48.129 136.498 48.129"/>
    <polyline class='no-color-change' fill="#009BFF" points="156.248 48.129 156.248 30.294 168.549 30.294 168.549 34.201 161.022 34.201 161.022 37.218 167.71 37.218 167.71 41.126 161.022 41.126 161.022 44.221 168.969 44.221 168.969 48.129 156.248 48.129"/>
    <path class='no-color-change' fill="#009BFF" d="M176.758,38.503 L179.381,38.503 C180.132,38.503 180.727,38.307 181.165,37.913 C181.601,37.519 181.82,36.981 181.82,36.3 C181.82,35.653 181.601,35.133 181.165,34.739 C180.727,34.346 180.132,34.149 179.381,34.149 L176.758,34.149 L176.758,38.503 Z M176.758,42.201 L176.758,48.129 L172.037,48.129 L172.037,30.294 L179.906,30.294 C182.003,30.294 183.665,30.831 184.889,31.906 C186.113,32.981 186.725,34.446 186.725,36.3 C186.725,37.506 186.454,38.547 185.912,39.421 C185.37,40.296 184.609,40.977 183.63,41.467 L187.276,48.129 L182.083,48.129 L179.119,42.201 L176.758,42.201 L176.758,42.201 Z"/>
    <polyline class='no-color-change' fill="#009BFF" points="201.387 48.129 194.384 37.848 194.384 48.129 189.899 48.129 189.899 30.294 194.358 30.294 201.335 40.759 201.335 30.294 205.846 30.294 205.846 48.129 201.387 48.129"/>
    <polyline class='no-color-change' fill="#009BFF" points="227.563 48.129 220.56 37.848 220.56 48.129 216.075 48.129 216.075 30.294 220.534 30.294 227.51 40.759 227.51 30.294 232.022 30.294 232.022 48.129 227.563 48.129"/>
    <polyline class='no-color-change' fill="#009BFF" points="235.956 48.129 235.956 30.294 248.257 30.294 248.257 34.201 240.73 34.201 240.73 37.218 247.418 37.218 247.418 41.126 240.73 41.126 240.73 44.221 248.677 44.221 248.677 48.129 235.956 48.129"/>
    <polyline class='no-color-change' fill="#009BFF" points="268.374 30.294 261.921 48.129 256.597 48.129 250.145 30.294 255.259 30.294 259.298 42.726 263.469 30.294 268.374 30.294"/>
    <path class='no-color-change' fill="#009BFF" d="M274.852 41.179L279.075 41.179 276.977 34.935 274.852 41.179zM281.435 48.129L280.308 44.798 273.62 44.798 272.492 48.129 267.666 48.129 274.197 30.294 279.862 30.294 286.393 48.129 281.435 48.129 281.435 48.129zM293.527 44.273L295.756 44.273C297.033 44.273 298.043 43.81 298.786 42.883 299.529 41.957 299.901 40.732 299.901 39.211 299.901 37.689 299.529 36.466 298.786 35.539 298.043 34.612 297.033 34.149 295.756 34.149L293.527 34.149 293.527 44.273zM288.727 48.129L288.727 30.294 295.756 30.294C297.523 30.294 299.084 30.674 300.438 31.435 301.793 32.195 302.856 33.244 303.626 34.582 304.394 35.92 304.779 37.463 304.779 39.211 304.779 40.96 304.394 42.503 303.626 43.841 302.856 45.178 301.793 46.227 300.438 46.988 299.084 47.749 297.523 48.129 295.756 48.129L288.727 48.129 288.727 48.129zM312.752 41.179L316.975 41.179 314.877 34.935 312.752 41.179zM319.335 48.129L318.209 44.798 311.52 44.798 310.392 48.129 305.566 48.129 312.097 30.294 317.762 30.294 324.293 48.129 319.335 48.129 319.335 48.129z"/>
  </g>
</svg>
