<svg height="47" viewBox="0 0 249 47" width="249" xmlns="http://www.w3.org/2000/svg">
  <g fill="none" fill-rule="evenodd">
    <g fill="#404040"><path
      d="m105.807 43.575h1.159c.381 0 .682-.094.904-.281.221-.188.333-.444.333-.767 0-.324-.112-.58-.333-.768-.222-.187-.523-.281-.904-.281h-1.159zm-.861 2.975v-5.796h2.02c.648 0 1.163.159 1.543.477.381.318.572.75.572 1.296 0 .54-.191.967-.572 1.282-.38.316-.895.473-1.543.473h-1.159v2.268zm5.873-2.182h2.114l-1.057-2.719zm2.958 2.182-.562-1.457h-2.678l-.562 1.457h-.87l2.319-5.796h.929l2.31 5.796zm2.711-3.06h1.185c.369 0 .663-.091.882-.273s.329-.426.329-.733-.11-.552-.329-.733c-.219-.182-.513-.273-.882-.273h-1.185zm0 .707v2.353h-.861v-5.796h2.046c.642 0 1.15.154 1.525.464.376.31.563.732.563 1.266 0 .404-.114.744-.341 1.023-.227.278-.54.474-.937.588l1.406 2.455h-.98l-1.321-2.353z"/><path d="m122.233 46.55v-5.072h-1.952v-.724h4.765v.724h-1.952v5.072z"/><path
      d="m130.578 45.894c.375 0 .709-.095 1.002-.286.293-.19.521-.453.687-.788.164-.336.247-.725.247-1.168 0-.444-.083-.833-.247-1.168-.166-.335-.394-.598-.687-.788-.293-.191-.627-.286-1.002-.286s-.707.095-.997.286c-.289.19-.517.453-.682.788s-.247.724-.247 1.168c0 .443.082.832.247 1.168.165.335.393.598.682.788.29.191.622.286.997.286zm0 .75c-.545 0-1.028-.128-1.449-.384-.42-.256-.751-.608-.992-1.057-.242-.449-.363-.966-.363-1.551s.121-1.103.363-1.552c.241-.449.572-.801.992-1.056.421-.256.904-.384 1.449-.384.546 0 1.03.128 1.454.384.423.255.755.607.997 1.056s.363.967.363 1.552-.121 1.102-.363 1.551-.574.801-.997 1.057c-.424.256-.908.384-1.454.384z"/><path d="m135.463 46.55h-.861v-5.796h3.606v.724h-2.745v1.961h2.327v.725h-2.327z"/><path d="m142.699 46.55v-5.072h-1.952v-.724h4.766v.724h-1.952v5.072z"/><path d="m146.501 46.55v-5.796h.862v2.48h2.991v-2.48h.862v5.796h-.862v-2.574h-2.991v2.574z"/><path d="m152.732 46.55v-5.796h3.717v.724h-2.855v1.79h2.514v.725h-2.514v1.832h2.924v.725z"/><path
      d="m161.956 45.894c.472 0 .842-.142 1.113-.426.27-.285.404-.668.404-1.151v-3.563h.862v3.571c0 .722-.212 1.289-.636 1.701-.423.412-1.004.618-1.743.618s-1.318-.206-1.739-.618c-.42-.412-.63-.979-.63-1.701v-3.571h.86v3.563c0 .483.136.866.406 1.151.269.284.637.426 1.103.426m5.592.75c-.438 0-.856-.077-1.253-.23-.398-.154-.719-.358-.964-.614l.486-.571c.227.21.496.375.806.494.31.12.618.179.925.179.375 0 .678-.072.908-.217s.345-.345.345-.601c0-.233-.083-.429-.247-.588-.165-.159-.447-.293-.844-.401l-.802-.213c-.517-.136-.893-.33-1.129-.58s-.354-.577-.354-.98c0-.329.088-.62.264-.87s.42-.444.729-.583c.31-.14.661-.209 1.053-.209.415 0 .804.078 1.168.234s.685.374.963.652l-.52.563c-.244-.228-.499-.402-.763-.525-.264-.121-.544-.183-.839-.183-.358 0-.651.076-.878.226-.228.151-.342.36-.342.627 0 .244.081.435.244.571.161.136.41.25.746.341l.894.247c.517.142.895.341 1.134.597s.358.574.358.955c0 .335-.088.629-.264.882-.177.253-.42.449-.733.588s-.677.209-1.091.209m4.254-2.276h2.113l-1.057-2.719zm2.957 2.182-.562-1.457h-2.677l-.563 1.457h-.869l2.319-5.796h.929l2.31 5.796z"/><path d="m179.652 46.55v-5.072h-1.952v-.724h4.766v.724h-1.952v5.072z"/><path
      d="m185.568 45.894c.375 0 .709-.095 1.002-.286.292-.19.521-.453.686-.788.165-.336.247-.725.247-1.168 0-.444-.082-.833-.247-1.168s-.394-.598-.686-.788c-.293-.191-.627-.286-1.002-.286s-.707.095-.997.286c-.29.19-.517.453-.682.788s-.248.724-.248 1.168c0 .443.083.832.248 1.168.165.335.392.598.682.788.29.191.622.286.997.286zm0 .75c-.546 0-1.029-.128-1.449-.384-.421-.256-.752-.608-.993-1.057-.242-.449-.362-.966-.362-1.551s.12-1.103.362-1.552c.241-.449.572-.801.993-1.056.42-.256.903-.384 1.449-.384s1.03.128 1.453.384c.424.255.756.607.998 1.056.241.449.362.967.362 1.552s-.121 1.102-.362 1.551c-.242.449-.574.801-.998 1.057-.423.256-.907.384-1.453.384zm4.885-.819h1.176c.409 0 .76-.089 1.053-.268s.517-.431.673-.754c.156-.324.234-.708.234-1.151 0-.444-.078-.827-.234-1.151s-.38-.575-.673-.754-.644-.269-1.053-.269h-1.176zm-.862.725v-5.796h2.038c.568 0 1.065.12 1.491.362.427.241.758.58.994 1.014.235.435.353.942.353 1.522 0 .579-.118 1.087-.353 1.522-.236.434-.567.772-.994 1.014-.426.241-.923.362-1.491.362zm7.076-2.182h2.114l-1.057-2.719zm2.958 2.182-.562-1.457h-2.677l-.563 1.457h-.869l2.318-5.796h.93l2.309 5.796z"/><path d="m203.154 44.249v2.301h-.861v-2.301l-2.037-3.495h1.014l1.458 2.676 1.457-2.676h.998z"/><path d="m212.07 46.55-3.094-4.441v4.441h-.81v-5.796h.801l3.103 4.441v-4.441h.802v5.796z"/><path d="m214.388 46.55v-5.796h3.717v.724h-2.855v1.79h2.514v.725h-2.514v1.832h2.924v.725z"/><path d="m220.731 46.55v-5.072h-1.952v-.724h4.765v.724h-1.952v5.072z"/><path d="m229.17 46.55-1.355-4.62-1.356 4.62h-.895l-1.543-5.796h.853l1.176 4.586 1.355-4.586h.819l1.364 4.602 1.185-4.602h.835l-1.543 5.796z"/><path
      d="m235.026 45.894c.375 0 .709-.095 1.002-.286.293-.19.521-.453.686-.788.165-.336.248-.725.248-1.168 0-.444-.083-.833-.248-1.168s-.393-.598-.686-.788c-.293-.191-.627-.286-1.002-.286s-.707.095-.997.286c-.29.19-.517.453-.682.788s-.247.724-.247 1.168c0 .443.082.832.247 1.168.165.335.392.598.682.788.29.191.622.286.997.286zm0 .75c-.546 0-1.028-.128-1.449-.384s-.752-.608-.993-1.057-.362-.966-.362-1.551.121-1.103.362-1.552.572-.801.993-1.056c.421-.256.903-.384 1.449-.384s1.03.128 1.453.384c.424.255.756.607.998 1.056s.362.967.362 1.552-.12 1.102-.362 1.551-.574.801-.998 1.057c-.423.256-.907.384-1.453.384zm4.884-3.154h1.185c.369 0 .664-.091.882-.273.219-.182.329-.426.329-.733s-.11-.552-.329-.733c-.218-.182-.513-.273-.882-.273h-1.185zm0 .707v2.353h-.861v-5.796h2.046c.642 0 1.151.154 1.526.464s.563.732.563 1.266c0 .404-.114.744-.342 1.023-.227.278-.54.474-.937.588l1.406 2.455h-.98l-1.321-2.353z"/><path d="m247.863 46.55-2.599-2.924v2.924h-.862v-5.796h.862v2.54l2.429-2.54h1.066l-2.584 2.659 2.771 3.137z"/><path
      d="m8.579 27.475h3.825c2.189 0 3.922-.794 5.197-2.385 1.275-1.59 1.913-3.69 1.913-6.3s-.638-4.709-1.913-6.3c-1.275-1.59-3.008-2.385-5.197-2.385h-3.825zm-8.235 6.615v-30.6h12.06c3.03 0 5.707.653 8.032 1.957 2.325 1.306 4.147 3.106 5.468 5.401 1.32 2.295 1.98 4.943 1.98 7.942 0 3-.66 5.648-1.98 7.943-1.321 2.294-3.143 4.095-5.468 5.4s-5.002 1.957-8.032 1.957zm38.069-7.425c0 .691.255 1.253.765 1.688s1.17.652 1.98.652c1.081 0 1.987-.367 2.723-1.103.735-.734 1.102-1.657 1.102-2.767v-.765c-.81-.15-1.665-.225-2.564-.225-1.141 0-2.093.196-2.858.585-.765.39-1.148 1.035-1.148 1.935zm6.885 7.425-.405-3.015c-1.5 2.401-3.779 3.6-6.84 3.6-1.35 0-2.572-.292-3.667-.877s-1.965-1.388-2.61-2.408c-.646-1.019-.968-2.205-.968-3.555 0-2.549.997-4.529 2.993-5.94 1.995-1.41 4.627-2.115 7.897-2.115 1.02 0 2.1.09 3.24.27-.12-1.14-.607-2.002-1.462-2.587s-1.898-.878-3.128-.878c-1.08 0-2.167.203-3.262.607-1.096.406-2.138.894-3.128 1.463l-2.655-5.04c1.5-.96 3.12-1.702 4.86-2.227s3.48-.788 5.22-.788c2.1 0 3.99.36 5.67 1.08s3 1.816 3.96 3.285c.96 1.471 1.44 3.33 1.44 5.58v13.545zm12.15 0v-22.905c1.26.27 2.535.405 3.825.405 1.32 0 2.655-.135 4.005-.405v22.905z"/><path d="m70.768 34.09h7.83v-32.85h-7.83z"/><path
      d="m99.972 32.29c-1.38 3.54-2.955 6.18-4.725 7.92s-4.02 2.61-6.75 2.61c-1.23 0-2.34-.135-3.33-.405s-1.83-.6-2.52-.99l2.205-5.4c.42.209.885.39 1.395.541.51.149 1.05.224 1.62.224.81 0 1.537-.195 2.183-.585.645-.39 1.207-1.096 1.687-2.115l.36-.81-10.35-22.095h8.64l5.085 13.725 4.185-13.725h8.505z"/></g><path d="m146.636 34.09-4.95-19.89-4.95 19.89h-8.865l-7.605-30.6h8.1l4.635 20.88 5.13-20.88h7.155l5.085 20.745 4.77-20.745h7.965l-7.605 30.6z" fill="#009bff" class='no-color-change'/><path
      d="m176.247 28.465c1.379 0 2.482-.532 3.307-1.597.824-1.065 1.238-2.482 1.238-4.253 0-1.77-.414-3.179-1.238-4.23-.825-1.05-1.928-1.575-3.307-1.575-1.381 0-2.483.525-3.308 1.575-.826 1.051-1.238 2.46-1.238 4.23 0 1.771.412 3.188 1.238 4.253.825 1.065 1.927 1.597 3.308 1.597zm0 6.21c-2.461 0-4.629-.518-6.503-1.552-1.875-1.035-3.346-2.453-4.41-4.253-1.065-1.799-1.598-3.885-1.598-6.255 0-2.369.533-4.455 1.598-6.255 1.064-1.8 2.535-3.21 4.41-4.23 1.874-1.02 4.042-1.53 6.503-1.53 2.459 0 4.627.51 6.502 1.53s3.345 2.43 4.41 4.23c1.064 1.8 1.597 3.886 1.597 6.255 0 2.37-.533 4.456-1.597 6.255-1.065 1.8-2.535 3.218-4.41 4.253-1.875 1.034-4.043 1.552-6.502 1.552zm24.434-9.45v8.865h-7.829v-22.905h7.154l.495 3.825c.48-1.23 1.268-2.228 2.363-2.992 1.095-.765 2.363-1.148 3.803-1.148.81 0 1.424.106 1.844.315v7.155c-.33-.119-.697-.209-1.102-.27-.405-.06-.863-.09-1.373-.09-1.56 0-2.843.578-3.847 1.733-1.005 1.155-1.508 2.992-1.508 5.512"
      fill="#009bff" class='no-color-change'/><path d="m212.291 34.09h7.83v-32.85h-7.83z" fill="#009bff" class='no-color-change'/><path
      d="m236.726 28.465c1.349 0 2.437-.532 3.262-1.597s1.238-2.482 1.238-4.253c0-1.77-.413-3.187-1.238-4.253-.825-1.064-1.913-1.597-3.262-1.597-1.381 0-2.483.533-3.308 1.597-.826 1.066-1.238 2.483-1.238 4.253 0 1.771.412 3.188 1.238 4.253.825 1.065 1.927 1.597 3.308 1.597zm5.039 5.625-.405-3.015c-.72 1.111-1.65 1.988-2.79 2.633s-2.46.967-3.96.967c-2.069 0-3.885-.51-5.444-1.53-1.561-1.019-2.776-2.437-3.645-4.252-.871-1.815-1.306-3.908-1.306-6.278 0-2.369.435-4.455 1.306-6.255.869-1.8 2.062-3.21 3.577-4.23 1.514-1.02 3.262-1.53 5.242-1.53 1.38 0 2.655.293 3.826.878 1.169.585 2.144 1.372 2.924 2.362v-12.6h7.83v32.85zm-180.492-24.705c-1.29 0-2.392-.457-3.307-1.372-.916-.915-1.373-2.018-1.373-3.308 0-1.289.457-2.392 1.373-3.307.915-.915 2.017-1.373 3.307-1.373s2.392.458 3.308 1.373c.915.915 1.372 2.018 1.372 3.307 0 1.29-.457 2.393-1.372 3.308-.916.915-2.018 1.372-3.308 1.372"
      fill="#009bff" class='no-color-change'/></g>
</svg>