<svg id="Opelousas" xmlns="http://www.w3.org/2000/svg" xmlns:xlink="http://www.w3.org/1999/xlink" width="720" height="148" viewBox="0 0 720 148">
  <defs>
    <style>
      .cls-1 {
        fill: #fff;
        filter: url(#filter);
      }

      .cls-1, .cls-2 {
        fill-rule: evenodd;
      }

      .cls-2 {
        fill: #333;
      }
    </style>
    <filter id="filter" x="351" y="121.969" width="367.969" height="16" filterUnits="userSpaceOnUse">
      <feFlood result="flood" flood-color="#333"/>
      <feComposite result="composite" operator="in" in2="SourceGraphic"/>
      <feBlend result="blend" in2="SourceGraphic"/>
    </filter>
  </defs>
  <path id="USAT_Network" data-name="USAT Network" class="cls-1" d="M350.989,122.273h4.489c3.156,0,5.267,1.865,5.267,4.74s-2.155,4.736-5.267,4.736h-2.29v5.925h-2.2v-15.4Zm4.267,7.659c2.112,0,3.244-1.163,3.244-2.919,0-1.735-1.132-2.918-3.244-2.918h-2.068v5.837h2.068Zm11.768-7.659h1.956l6.4,15.4h-2.358l-1.6-4.035h-6.911l-1.6,4.035H360.6S366.244,124.162,367.024,122.273Zm3.665,9.544-1.488-3.794c-0.221-.572-1.179-2.943-1.2-3.139h-0.043c-0.022.2-.955,2.5-1.2,3.139l-1.51,3.794h5.443Zm6.924-9.544h4.51c2.91,0,5.178,1.5,5.178,4.563a4.293,4.293,0,0,1-3.955,4.346l4.778,6.492h-2.579l-4.51-6.276h-1.223v6.276h-2.2v-15.4Zm4.267,7.351c2.043,0,3.2-1.077,3.2-2.764s-1.157-2.765-3.2-2.765h-2.068v5.529h2.068Zm11.522-5.486h-4.445v-1.865h11.089v1.865H395.6v13.536h-2.2V124.138Zm12.347,5.838a8.2,8.2,0,1,1,8.2,8A7.862,7.862,0,0,1,405.749,129.976Zm14.133,0a5.946,5.946,0,1,0-5.955,6.053A5.772,5.772,0,0,0,419.882,129.976Zm5.433-7.7h7.867v1.865h-5.668V129.1H433v1.865h-5.49v6.713h-2.2v-15.4Zm17.815,1.865h-4.444v-1.865h11.088v1.865H445.33v13.536h-2.2V124.138Zm8.953-1.865h2.2v6.318h8.178v-6.318h2.2v15.4h-2.2v-7.218h-8.178v7.218h-2.2v-15.4Zm16.631,0h8.49v1.846h-6.29v4.472h6.11v1.846h-6.11v5.395h6.422v1.842h-8.622v-15.4Zm16,10.092V122.273h2.221v9.433c0,2.679,1.157,4.323,3.756,4.323,2.622,0,3.78-1.644,3.78-4.323v-9.433h2.221v10.092c0,3.38-2.2,5.616-6,5.616C486.865,137.981,484.71,135.745,484.71,132.365Zm14.274,2.524,1.491-1.25a4.52,4.52,0,0,0,3.911,2.433c1.709,0,3.044-.918,3.044-2.611,0-1.817-1.534-2.433-3.446-3.178-1.956-.769-3.933-1.736-3.933-4.193,0-2.432,1.912-4.12,4.712-4.12a5.249,5.249,0,0,1,4.579,2.322l-1.491,1.25a3.552,3.552,0,0,0-3.088-1.668c-1.512,0-2.511.769-2.511,2.063,0,1.6,1.554,2.13,2.911,2.654,2.2,0.856,4.466,1.889,4.466,4.716,0,2.679-2,4.674-5.2,4.674A6.064,6.064,0,0,1,498.984,134.889Zm18.241-12.616h1.956l6.4,15.4h-2.357l-1.6-4.035h-6.912l-1.6,4.035H510.8S516.446,124.162,517.225,122.273Zm3.665,9.544-1.487-3.794c-0.222-.572-1.179-2.943-1.2-3.139h-0.044c-0.022.2-.955,2.5-1.2,3.139l-1.51,3.794h5.443Zm13.978-7.679h-4.445v-1.865h11.088v1.865h-4.444v13.536h-2.2V124.138Zm7.469,5.838a8.2,8.2,0,1,1,8.2,8A7.861,7.861,0,0,1,542.337,129.976Zm14.132,0a5.945,5.945,0,1,0-5.954,6.053A5.772,5.772,0,0,0,556.469,129.976Zm5.434-7.7h4.423c4.977,0,8.265,2.807,8.265,7.7,0,4.87-3.312,7.7-8.265,7.7H561.9v-15.4Zm2.2,13.534h2.046c3.643,0,6.176-1.9,6.176-5.831s-2.533-5.838-6.176-5.838H564.1v11.669Zm17.637-13.534H583.7l6.4,15.4h-2.357l-1.6-4.035h-6.912l-1.6,4.035h-2.311S580.96,124.162,581.739,122.273Zm3.666,9.544-1.489-3.794c-0.221-.572-1.178-2.943-1.2-3.139h-0.044c-0.022.2-.955,2.5-1.2,3.139l-1.51,3.794h5.444Zm9.084-.419-5.312-9.125h2.467l2.889,5.135a22.887,22.887,0,0,1,1.11,2.192h0.022a23.153,23.153,0,0,1,1.113-2.192l2.91-5.135h2.4l-5.309,9.125v6.276h-2.289V131.4Zm14.062-9.125h1.687l8.846,9.982c0.266,0.288,1.422,1.711,1.534,1.932l0.044-.023c-0.044-.217-0.044-2-0.044-2.39v-9.5h2.134v15.4h-1.713l-8.845-9.983c-0.265-.283-1.422-1.711-1.532-1.928l-0.021.02c0.021,0.221.043,2,.043,2.394v9.5h-2.133v-15.4Zm18.253,0h8.487v1.846H629v4.472h6.113v1.846H629v5.395h6.422v1.842H626.8v-15.4Zm15.37,1.865h-4.445v-1.865h11.089v1.865h-4.445v13.536h-2.2V124.138Zm8.478-1.865h2.333l3.2,9.15c0.112,0.351.867,2.63,0.889,2.981h0.046a30.445,30.445,0,0,1,.933-2.981l3.334-9.15h1.756l3.331,9.15c0.134,0.351.911,2.63,0.936,2.981h0.044c0.043-.351.8-2.63,0.91-2.981l3.179-9.15h2.243l-5.49,15.4h-1.688l-3.6-9.607a25.578,25.578,0,0,1-.758-2.5h-0.044a25.421,25.421,0,0,1-.776,2.5l-3.578,9.607h-1.69Zm24.117,7.7a8.2,8.2,0,1,1,8.2,8A7.862,7.862,0,0,1,674.769,129.976Zm14.133,0a5.946,5.946,0,1,0-5.955,6.053A5.772,5.772,0,0,0,688.9,129.976Zm5.433-7.7h4.511c2.913,0,5.178,1.5,5.178,4.563a4.294,4.294,0,0,1-3.956,4.346l4.779,6.492h-2.579l-4.511-6.276h-1.223v6.276h-2.2v-15.4Zm4.267,7.351c2.044,0,3.2-1.077,3.2-2.764s-1.156-2.765-3.2-2.765h-2.068v5.529H698.6Zm8.736-7.351h2.2v7.154l6.444-7.154h2.666l-6.687,7.351,7,8.05h-2.754l-6.668-7.785v7.785h-2.2v-15.4Z"/>
  <path class="cls-2" d="M0.758,0.082h26.57c32.712,0,55.749,19.41,55.749,54.071S60.04,108.224,27.328,108.224H0.758V0.082ZM9.051,100.521H26.559c27.645,0,48.225-15.1,48.225-46.368S54.2,7.784,26.559,7.784H9.051v92.737ZM89.532,70.174c0-20.027,13.361-39.9,38.242-39.9,14.282,0,24.265,7.087,29.947,16.947h0.307v-15.1h7.834v76.1h-7.834v-15.1h-0.307c-5.682,9.859-15.665,16.945-29.947,16.945C102.893,110.072,89.532,90.2,89.532,70.174Zm68.5,0c0-18.949-12.746-32.966-30.254-32.966S97.517,51.225,97.517,70.174s12.748,32.966,30.257,32.966S158.028,89.123,158.028,70.174Zm23.194-57.153a5.836,5.836,0,1,1,11.671,0A5.836,5.836,0,1,1,181.222,13.021Zm1.842,19.1h7.987v76.1h-7.987v-76.1ZM208.252,0.082h7.987V108.224h-7.987V0.082Zm20.888,136.95v-7.4a20.286,20.286,0,0,0,8.6,1.848c6.758,0,10.444-3.388,14.284-12.169l6.757-15.559L228.065,32.124h8.447l26.263,62.7h0.308l26.261-62.7h8.293L259.4,121.011c-3.839,8.934-8.14,17.715-21.348,17.715A21.188,21.188,0,0,1,229.14,137.032ZM302.4,0.082H326.36L343.715,54c1.69,5.084,5.376,18.178,5.683,23.57h0.614c0.461-5.392,4.147-18.486,5.835-23.57L373.664,0.082h20.579L412.059,54c1.689,5.084,5.375,18.178,5.836,23.57h0.615c0.46-5.392,4.146-18.486,5.682-23.57L441.547,0.082h23.037L428.645,108.224H407.758L389.022,52.766c-1.69-5.084-4.762-16.638-5.222-22.029h-0.615c-0.46,5.391-3.532,16.945-5.222,22.029l-18.736,55.458H338.34ZM455.067,70.174c0-18.949,13.976-39.9,42.235-39.9s42.236,20.951,42.236,39.9-13.977,39.9-42.236,39.9S455.067,89.123,455.067,70.174Zm62.354,0c0-12.941-8.908-21.259-20.119-21.259s-20.119,8.318-20.119,21.259,8.908,21.259,20.119,21.259S517.421,83.113,517.421,70.174Zm27.189-38.05H565.5V43.831H565.8c4.147-8.01,10.6-13.556,20.888-13.556a22.468,22.468,0,0,1,7.372,1.079V51.38a29.124,29.124,0,0,0-9.369-1.541c-11.519,0-17.816,7.087-17.816,20.181v38.2H544.61v-76.1ZM602.665,0.082h22.268V108.224H602.665V0.082Zm30.41,69.475c0-22.029,15.511-39.282,38.242-39.282,12.746,0,20.273,5.854,24.266,11.709h0.154V0.082h22.269V108.224H697.117V97.287h-0.3c-5.069,7.087-13.056,12.785-25.5,12.785C643.364,110.072,633.075,87.889,633.075,69.557Zm62.968,0.617c0-11.4-7.218-21.568-20.271-21.568S655.651,58.62,655.651,70.174c0,11.861,7.834,21.566,20.121,21.566C688.211,91.74,696.043,82.035,696.043,70.174Z"/>
</svg>
