<svg id="thenorthwestern" xmlns="http://www.w3.org/2000/svg" xmlns:xlink="http://www.w3.org/1999/xlink" width="751" height="160" viewBox="0 0 751 160">
  <defs>
    <style>
      .cls-1, .cls-4 {
        fill: #000;
      }

      .cls-1, .cls-3, .cls-4 {
        fill-rule: evenodd;
      }

      .cls-1 {
        filter: url(#filter);
      }

      .cls-2, .cls-3 {
        fill: #999;
      }
    </style>
    <filter id="filter" x="0" y="117.969" width="367.969" height="16" filterUnits="userSpaceOnUse">
      <feFlood result="flood" flood-color="#999"/>
      <feComposite result="composite" operator="in" in2="SourceGraphic"/>
      <feBlend result="blend" in2="SourceGraphic"/>
    </filter>
  </defs>
  <path id="USAT_Network" data-name="USAT Network" class="cls-1" d="M-0.011,118.273H4.478c3.156,0,5.268,1.865,5.268,4.741s-2.155,4.735-5.268,4.735H2.188v5.925h-2.2v-15.4Zm4.267,7.659c2.112,0,3.244-1.163,3.244-2.918,0-1.736-1.132-2.919-3.244-2.919H2.188v5.837H4.256Zm11.768-7.659H17.98l6.4,15.4H22.022l-1.6-4.035H13.513l-1.6,4.035H9.6S15.244,120.162,16.024,118.273Zm3.665,9.544L18.2,124.023c-0.221-.572-1.179-2.942-1.2-3.139H16.957c-0.022.2-.955,2.5-1.2,3.139l-1.51,3.794h5.443Zm6.924-9.544h4.51c2.91,0,5.178,1.5,5.178,4.563a4.293,4.293,0,0,1-3.955,4.346l4.778,6.492H34.545l-4.51-6.276H28.812v6.276h-2.2v-15.4Zm4.267,7.351c2.043,0,3.2-1.077,3.2-2.764s-1.157-2.765-3.2-2.765H28.812v5.529H30.88ZM42.4,120.138H37.957v-1.865H49.046v1.865H44.6v13.536H42.4V120.138Zm12.348,5.838a7.862,7.862,0,0,1,8.2-8.006,8.008,8.008,0,1,1,0,16.011A7.861,7.861,0,0,1,54.75,125.976Zm14.133,0a5.946,5.946,0,1,0-5.955,6.053A5.773,5.773,0,0,0,68.882,125.976Zm5.433-7.7h7.867v1.865H76.514V125.1H82v1.865H76.514v6.713h-2.2v-15.4Zm17.815,1.865H87.686v-1.865H98.774v1.865H94.33v13.536h-2.2V120.138Zm8.953-1.865h2.2v6.318h8.178v-6.318h2.2v15.4h-2.2v-7.218h-8.178v7.218h-2.2v-15.4Zm16.631,0h8.49v1.846h-6.29v4.472h6.11v1.846h-6.11v5.395h6.422v1.842h-8.622v-15.4Zm16,10.092V118.273h2.221v9.433c0,2.679,1.157,4.323,3.756,4.323,2.622,0,3.78-1.644,3.78-4.323v-9.433h2.221v10.092c0,3.38-2.2,5.616-6,5.616C135.865,133.981,133.71,131.745,133.71,128.365Zm14.274,2.524,1.491-1.25a4.52,4.52,0,0,0,3.911,2.433c1.709,0,3.044-.918,3.044-2.611,0-1.817-1.534-2.433-3.446-3.178-1.956-.769-3.933-1.736-3.933-4.193,0-2.432,1.912-4.12,4.712-4.12a5.249,5.249,0,0,1,4.579,2.322l-1.491,1.25a3.552,3.552,0,0,0-3.088-1.668c-1.512,0-2.511.769-2.511,2.063,0,1.6,1.554,2.13,2.911,2.654,2.2,0.856,4.466,1.889,4.466,4.716,0,2.679-2,4.674-5.2,4.674A6.064,6.064,0,0,1,147.984,130.889Zm18.241-12.616h1.956l6.4,15.4h-2.357l-1.6-4.035h-6.912l-1.6,4.035H159.8S165.446,120.162,166.225,118.273Zm3.665,9.544-1.487-3.794c-0.222-.572-1.179-2.942-1.2-3.139h-0.044c-0.022.2-.955,2.5-1.2,3.139l-1.51,3.794h5.443Zm13.978-7.679h-4.445v-1.865h11.088v1.865h-4.444v13.536h-2.2V120.138Zm7.469,5.838a8.2,8.2,0,1,1,8.2,8A7.861,7.861,0,0,1,191.337,125.976Zm14.132,0a5.945,5.945,0,1,0-5.954,6.053A5.772,5.772,0,0,0,205.469,125.976Zm5.434-7.7h4.422c4.978,0,8.266,2.808,8.266,7.7,0,4.87-3.312,7.7-8.266,7.7H210.9v-15.4Zm2.2,13.534h2.046c3.643,0,6.176-1.9,6.176-5.831s-2.533-5.838-6.176-5.838H213.1v11.669Zm17.637-13.534H232.7l6.4,15.4h-2.357l-1.6-4.035h-6.912l-1.6,4.035h-2.311S229.96,120.162,230.739,118.273Zm3.666,9.544-1.489-3.794c-0.221-.572-1.178-2.942-1.2-3.139h-0.044c-0.022.2-.955,2.5-1.2,3.139l-1.51,3.794h5.444Zm9.084-.419-5.312-9.125h2.467l2.889,5.135a22.887,22.887,0,0,1,1.11,2.192h0.022a23.153,23.153,0,0,1,1.113-2.192l2.91-5.135h2.4l-5.309,9.125v6.276h-2.289V127.4Zm14.062-9.125h1.687l8.846,9.982c0.266,0.288,1.422,1.711,1.534,1.932l0.044-.023c-0.044-.217-0.044-2-0.044-2.39v-9.5h2.134v15.4h-1.713l-8.845-9.983c-0.265-.283-1.422-1.711-1.532-1.928l-0.021.02c0.021,0.221.043,2,.043,2.394v9.5h-2.133v-15.4Zm18.253,0h8.487v1.846H278v4.472h6.113v1.846H278v5.395h6.422v1.842H275.8v-15.4Zm15.37,1.865h-4.445v-1.865h11.089v1.865h-4.445v13.536h-2.2V120.138Zm8.477-1.865h2.334l3.2,9.15c0.112,0.351.867,2.63,0.889,2.981h0.046a30.445,30.445,0,0,1,.933-2.981l3.334-9.15h1.756l3.332,9.15c0.133,0.351.91,2.63,0.935,2.981h0.044c0.044-.351.8-2.63,0.91-2.981l3.179-9.15h2.243l-5.49,15.4h-1.688l-3.6-9.607a25.578,25.578,0,0,1-.758-2.5h-0.044a25.693,25.693,0,0,1-.776,2.5l-3.578,9.607h-1.69Zm24.118,7.7a8.2,8.2,0,1,1,8.2,8A7.862,7.862,0,0,1,323.769,125.976Zm14.133,0a5.946,5.946,0,1,0-5.955,6.053A5.772,5.772,0,0,0,337.9,125.976Zm5.433-7.7h4.511c2.913,0,5.177,1.5,5.177,4.563a4.293,4.293,0,0,1-3.955,4.346l4.779,6.492h-2.579l-4.511-6.276h-1.222v6.276h-2.2v-15.4Zm4.267,7.351c2.044,0,3.2-1.077,3.2-2.764s-1.156-2.765-3.2-2.765h-2.067v5.529H347.6Zm8.736-7.351h2.2v7.154l6.444-7.154h2.666l-6.687,7.351,7,8.05h-2.754l-6.668-7.785v7.785h-2.2v-15.4Z"/>
  <rect id="Rectangle_1_copy_3" data-name="Rectangle 1 copy 3" class="cls-2" x="621.438" y="25" width="2.187" height="72.469"/>
  <path class="cls-3" d="M648.084,35.967a9.3,9.3,0,0,1,6.807,2.71,9.485,9.485,0,0,1,.007,13.331,9.075,9.075,0,0,1-6.668,2.734,9.168,9.168,0,0,1-6.721-2.722,8.941,8.941,0,0,1-2.74-6.586,9.515,9.515,0,0,1,1.248-4.776,9.074,9.074,0,0,1,3.4-3.445A9.166,9.166,0,0,1,648.084,35.967Zm0.08,1.738a7.646,7.646,0,0,0-6.546,3.819,7.737,7.737,0,0,0-1,3.9A7.523,7.523,0,0,0,648.164,53a7.659,7.659,0,0,0,3.857-1.009,7.24,7.24,0,0,0,2.767-2.76,7.754,7.754,0,0,0,.994-3.892,7.562,7.562,0,0,0-.994-3.849,7.429,7.429,0,0,0-2.8-2.755A7.586,7.586,0,0,0,648.164,37.7ZM667.6,42.517l-1.094,1.13a3.947,3.947,0,0,0-2.673-1.325,2.024,2.024,0,0,0-1.422.547,1.689,1.689,0,0,0-.591,1.276,1.884,1.884,0,0,0,.488,1.227,6.849,6.849,0,0,0,2.048,1.4,7.645,7.645,0,0,1,2.585,1.9,3.452,3.452,0,0,1,.671,2.078,3.725,3.725,0,0,1-1.145,2.758,3.917,3.917,0,0,1-2.864,1.13,5.008,5.008,0,0,1-2.188-.5,4.725,4.725,0,0,1-1.724-1.373l1.071-1.215a3.721,3.721,0,0,0,2.768,1.47,2.5,2.5,0,0,0,1.744-.656,2.024,2.024,0,0,0,.719-1.543,1.971,1.971,0,0,0-.475-1.3,7.67,7.67,0,0,0-2.146-1.41,6.868,6.868,0,0,1-2.439-1.823,3.428,3.428,0,0,1-.647-2.054,3.341,3.341,0,0,1,1.03-2.5,3.593,3.593,0,0,1,2.6-1A5.4,5.4,0,0,1,667.6,42.517Zm3.017-6.55h1.7V43.44a7.251,7.251,0,0,1,2.275-2.036,5.553,5.553,0,0,1,2.69-.674,4.7,4.7,0,0,1,2.635.753,4.5,4.5,0,0,1,1.7,2.024,10.7,10.7,0,0,1,.549,3.979v6.8h-1.7V47.985a16.153,16.153,0,0,0-.183-3.05,3.467,3.467,0,0,0-1.15-1.975,3.409,3.409,0,0,0-2.184-.662,4.206,4.206,0,0,0-2.769,1.021,4.781,4.781,0,0,0-1.612,2.528,17.381,17.381,0,0,0-.244,3.6v4.848h-1.7V35.967Zm15.188,0h1.7v10.44l6.14-5.336h2.5l-7.279,6.307,7.7,6.914h-2.4l-6.669-5.952v5.952h-1.7V35.967Zm18.789,4.764a6.561,6.561,0,0,1,5.072,2.212,7.091,7.091,0,0,1-.1,9.618,7.006,7.006,0,0,1-9.948,0,7.074,7.074,0,0,1-.1-9.606A6.559,6.559,0,0,1,704.592,40.73Zm0,1.665a4.92,4.92,0,0,0-3.652,1.568,5.238,5.238,0,0,0-1.526,3.791,5.371,5.371,0,0,0,.7,2.674,4.921,4.921,0,0,0,1.88,1.914,5.352,5.352,0,0,0,5.2,0,4.926,4.926,0,0,0,1.882-1.914,5.371,5.371,0,0,0,.7-2.674,5.221,5.221,0,0,0-1.534-3.791A4.922,4.922,0,0,0,704.587,42.4ZM721.3,42.517l-1.094,1.13a3.943,3.943,0,0,0-2.672-1.325,2.024,2.024,0,0,0-1.422.547,1.69,1.69,0,0,0-.592,1.276,1.889,1.889,0,0,0,.488,1.227,6.858,6.858,0,0,0,2.049,1.4,7.645,7.645,0,0,1,2.585,1.9,3.452,3.452,0,0,1,.671,2.078,3.729,3.729,0,0,1-1.145,2.758,3.917,3.917,0,0,1-2.865,1.13,5.007,5.007,0,0,1-2.187-.5,4.737,4.737,0,0,1-1.725-1.373l1.071-1.215a3.723,3.723,0,0,0,2.768,1.47,2.5,2.5,0,0,0,1.745-.656,2.027,2.027,0,0,0,.719-1.543,1.976,1.976,0,0,0-.475-1.3,7.67,7.67,0,0,0-2.146-1.41,6.859,6.859,0,0,1-2.439-1.823,3.422,3.422,0,0,1-.647-2.054,3.337,3.337,0,0,1,1.03-2.5,3.593,3.593,0,0,1,2.6-1A5.4,5.4,0,0,1,721.3,42.517Zm3.018-6.55h1.7V43.44A7.24,7.24,0,0,1,728.3,41.4a5.55,5.55,0,0,1,2.69-.674,4.7,4.7,0,0,1,2.635.753,4.5,4.5,0,0,1,1.7,2.024,10.708,10.708,0,0,1,.548,3.979v6.8h-1.7V47.985a16.153,16.153,0,0,0-.183-3.05,3.463,3.463,0,0,0-1.151-1.975,3.407,3.407,0,0,0-2.184-.662,4.2,4.2,0,0,0-2.768,1.021,4.783,4.783,0,0,0-1.613,2.528,17.476,17.476,0,0,0-.243,3.6v4.848h-1.7V35.967ZM637.238,70.472h1.837l3.657,12.881,5.132-12.881h0.371l5.073,12.881,3.719-12.881h1.824l-5.143,17.876h-0.333l-5.312-13.525-5.415,13.525h-0.334Zm25.392-.79a1.4,1.4,0,0,1,0,2.807,1.411,1.411,0,0,1-1.394-1.4,1.356,1.356,0,0,1,.413-1A1.335,1.335,0,0,1,662.63,69.682Zm-0.847,5.444h1.7V88.348h-1.7V75.126Zm11.9,1.446-1.094,1.13a3.945,3.945,0,0,0-2.672-1.325,2.02,2.02,0,0,0-1.422.547,1.686,1.686,0,0,0-.592,1.276,1.891,1.891,0,0,0,.488,1.228,6.864,6.864,0,0,0,2.048,1.4,7.645,7.645,0,0,1,2.585,1.9A3.454,3.454,0,0,1,673.7,84.8a3.723,3.723,0,0,1-1.145,2.758,3.915,3.915,0,0,1-2.864,1.131,5,5,0,0,1-2.188-.5,4.733,4.733,0,0,1-1.724-1.373l1.071-1.215a3.724,3.724,0,0,0,2.768,1.47,2.5,2.5,0,0,0,1.745-.656,2.026,2.026,0,0,0,.718-1.543,1.972,1.972,0,0,0-.475-1.3,7.649,7.649,0,0,0-2.146-1.41,6.854,6.854,0,0,1-2.438-1.823,3.419,3.419,0,0,1-.647-2.054,3.34,3.34,0,0,1,1.029-2.5,3.593,3.593,0,0,1,2.6-1A5.4,5.4,0,0,1,673.685,76.572Zm15.868,1.3-1.35.838a5.662,5.662,0,0,0-4.778-2.321,5.531,5.531,0,0,0-4.017,1.554,5.068,5.068,0,0,0-1.6,3.776,5.347,5.347,0,0,0,.737,2.718,5.144,5.144,0,0,0,2.017,1.979A6.111,6.111,0,0,0,688.2,84.8l1.35,0.886A6.371,6.371,0,0,1,687,87.9a8.139,8.139,0,0,1-3.645.788A7.2,7.2,0,0,1,678.15,86.7a6.482,6.482,0,0,1-2.067-4.849,6.912,6.912,0,0,1,.967-3.567,6.808,6.808,0,0,1,2.658-2.57,7.774,7.774,0,0,1,3.785-.924,8.1,8.1,0,0,1,2.538.4,7.1,7.1,0,0,1,2.075,1.045A5.7,5.7,0,0,1,689.553,77.873Zm9.541-3.087A6.561,6.561,0,0,1,704.166,77a7.091,7.091,0,0,1-.1,9.618,7.006,7.006,0,0,1-9.948,0,7.074,7.074,0,0,1-.1-9.606A6.559,6.559,0,0,1,699.094,74.786Zm0,1.665a4.92,4.92,0,0,0-3.652,1.568,5.24,5.24,0,0,0-1.526,3.792,5.372,5.372,0,0,0,.7,2.673,4.926,4.926,0,0,0,1.88,1.914,5.355,5.355,0,0,0,5.2,0,4.924,4.924,0,0,0,1.882-1.914,5.372,5.372,0,0,0,.7-2.673,5.223,5.223,0,0,0-1.534-3.792A4.92,4.92,0,0,0,699.089,76.451Zm10.058-1.325h1.7V77.5a7.129,7.129,0,0,1,2.263-2.036,5.577,5.577,0,0,1,2.7-.674,4.7,4.7,0,0,1,2.635.753,4.494,4.494,0,0,1,1.7,2.029,10.718,10.718,0,0,1,.549,3.974v6.8h-1.7V82.041a15.534,15.534,0,0,0-.19-3.049,3.353,3.353,0,0,0-1.136-1.976,3.435,3.435,0,0,0-2.19-.662,4.2,4.2,0,0,0-2.77,1.021,4.782,4.782,0,0,0-1.613,2.528,17.589,17.589,0,0,0-.243,3.6v4.849h-1.7V75.126ZM731,76.572l-1.094,1.13a3.943,3.943,0,0,0-2.672-1.325,2.024,2.024,0,0,0-1.422.547,1.69,1.69,0,0,0-.592,1.276,1.891,1.891,0,0,0,.488,1.228,6.878,6.878,0,0,0,2.048,1.4,7.624,7.624,0,0,1,2.585,1.9,3.449,3.449,0,0,1,.672,2.079,3.727,3.727,0,0,1-1.145,2.758,3.919,3.919,0,0,1-2.865,1.131,5.007,5.007,0,0,1-2.188-.5,4.733,4.733,0,0,1-1.724-1.373l1.071-1.215a3.724,3.724,0,0,0,2.768,1.47,2.5,2.5,0,0,0,1.745-.656,2.027,2.027,0,0,0,.719-1.543,1.973,1.973,0,0,0-.476-1.3,7.655,7.655,0,0,0-2.145-1.41,6.86,6.86,0,0,1-2.439-1.823,3.419,3.419,0,0,1-.647-2.054,3.337,3.337,0,0,1,1.03-2.5,3.592,3.592,0,0,1,2.6-1A5.4,5.4,0,0,1,731,76.572Zm3.61-6.89a1.4,1.4,0,0,1,0,2.807,1.411,1.411,0,0,1-1.394-1.4,1.356,1.356,0,0,1,.413-1A1.335,1.335,0,0,1,734.612,69.682Zm-0.847,5.444h1.7V88.348h-1.7V75.126Zm5.244,0h1.7V77.5a7.132,7.132,0,0,1,2.264-2.036,5.573,5.573,0,0,1,2.7-.674,4.7,4.7,0,0,1,2.635.753,4.494,4.494,0,0,1,1.7,2.029,10.718,10.718,0,0,1,.549,3.974v6.8h-1.7V82.041a15.534,15.534,0,0,0-.19-3.049,3.353,3.353,0,0,0-1.136-1.976,3.435,3.435,0,0,0-2.19-.662,4.2,4.2,0,0,0-2.77,1.021,4.782,4.782,0,0,0-1.613,2.528,17.589,17.589,0,0,0-.243,3.6v4.849h-1.7V75.126Z"/>
  <path class="cls-4" d="M7.541,31h5.528V46.973h8.766v4.784H13.069V89.989H7.541V51.757H0V46.973H7.541V31Zm20.726-.633h5.528V54.683a23.514,23.514,0,0,1,7.384-6.623,17.954,17.954,0,0,1,8.726-2.194,15.22,15.22,0,0,1,8.549,2.451A14.621,14.621,0,0,1,63.962,54.9q1.777,4.132,1.777,12.948V89.989H60.211V69.47a52.536,52.536,0,0,0-.592-9.924,11.257,11.257,0,0,0-3.732-6.425A11.04,11.04,0,0,0,48.8,50.966a13.619,13.619,0,0,0-8.983,3.321,15.559,15.559,0,0,0-5.232,8.224q-0.79,3.163-.79,11.7V89.989H28.267V30.367Zm83.626,45.349,4.66,2.451a25.464,25.464,0,0,1-5.3,7.275,21.04,21.04,0,0,1-6.759,4.21A23.549,23.549,0,0,1,96,91.1q-10.513,0-16.441-6.9a23.289,23.289,0,0,1-5.928-15.6,23.015,23.015,0,0,1,5.019-14.59,20.51,20.51,0,0,1,17.034-8.145,21.185,21.185,0,0,1,17.548,8.342q4.662,5.892,4.742,14.708H79.318A17.525,17.525,0,0,0,84.1,81.2,15.249,15.249,0,0,0,95.526,86a18.354,18.354,0,0,0,6.385-1.141,16.794,16.794,0,0,0,5.278-3.033A25.79,25.79,0,0,0,111.893,75.717Zm0-11.585a18.376,18.376,0,0,0-3.222-7.077,15.256,15.256,0,0,0-5.594-4.27,17.118,17.118,0,0,0-7.314-1.621,15.742,15.742,0,0,0-10.872,4.072q-3.321,2.965-5.02,8.9h32.022ZM126.42,46.973h5.528v7.71a23.126,23.126,0,0,1,7.344-6.623,18.034,18.034,0,0,1,8.766-2.194,15.22,15.22,0,0,1,8.549,2.451,14.6,14.6,0,0,1,5.508,6.6q1.776,4.151,1.777,12.928V89.989h-5.528V69.47a50.607,50.607,0,0,0-.616-9.924,10.9,10.9,0,0,0-3.685-6.425,11.127,11.127,0,0,0-7.108-2.154,13.625,13.625,0,0,0-8.985,3.321,15.559,15.559,0,0,0-5.232,8.224q-0.79,3.2-.79,11.7V89.989H126.42V46.973Zm67.793-1.107a21.264,21.264,0,0,1,16.454,7.2,23.116,23.116,0,0,1-.336,31.293,22.688,22.688,0,0,1-32.277,0,23.068,23.068,0,0,1-.336-31.253A21.255,21.255,0,0,1,194.213,45.866Zm-0.02,5.416a15.938,15.938,0,0,0-11.848,5.1,17.055,17.055,0,0,0-4.953,12.335,17.5,17.5,0,0,0,2.259,8.7,16,16,0,0,0,6.1,6.227,17.33,17.33,0,0,0,16.88,0,16.012,16.012,0,0,0,6.1-6.227,17.507,17.507,0,0,0,2.259-8.7,17.024,17.024,0,0,0-4.973-12.335A15.959,15.959,0,0,0,194.193,51.282Zm28.682-4.309h5.646v6.286a19.839,19.839,0,0,1,5.331-5.555,10.5,10.5,0,0,1,5.844-1.839,10.079,10.079,0,0,1,4.9,1.463l-2.882,4.665a7.694,7.694,0,0,0-2.922-.751,7.991,7.991,0,0,0-5.331,2.273,14.387,14.387,0,0,0-3.909,7.058q-1.028,3.677-1.027,14.866V89.989h-5.646V46.973ZM252.248,31h5.528V46.973h8.766v4.784h-8.766V89.989h-5.528V51.757h-7.542V46.973h7.542V31Zm20.726-.633H278.5V54.683a23.514,23.514,0,0,1,7.384-6.623,17.953,17.953,0,0,1,8.726-2.194,15.22,15.22,0,0,1,8.549,2.451,14.625,14.625,0,0,1,5.508,6.583q1.776,4.132,1.777,12.948V89.989h-5.528V69.47a52.621,52.621,0,0,0-.592-9.924,11.258,11.258,0,0,0-3.732-6.425,11.04,11.04,0,0,0-7.087-2.154,13.618,13.618,0,0,0-8.983,3.321,15.559,15.559,0,0,0-5.232,8.224q-0.791,3.163-.79,11.7V89.989h-5.528V30.367Zm41.653,16.606h5.686l13.169,31.234,13.707-31.234h1l13.8,31.234,13.423-31.234h5.747L362.5,89.989h-1.025l-13.737-30.8-13.73,30.8h-1.029ZM421.944,75.717l4.661,2.451a25.447,25.447,0,0,1-5.3,7.275,21.029,21.029,0,0,1-6.759,4.21,23.542,23.542,0,0,1-8.5,1.443q-10.514,0-16.442-6.9a23.3,23.3,0,0,1-5.928-15.6A23.017,23.017,0,0,1,388.7,54.01a20.511,20.511,0,0,1,17.033-8.145,21.184,21.184,0,0,1,17.548,8.342q4.665,5.892,4.743,14.708H389.369A17.527,17.527,0,0,0,394.152,81.2,15.25,15.25,0,0,0,405.577,86a18.36,18.36,0,0,0,6.386-1.141,16.8,16.8,0,0,0,5.277-3.033A25.738,25.738,0,0,0,421.944,75.717Zm0-11.585a18.347,18.347,0,0,0-3.222-7.077,15.256,15.256,0,0,0-5.594-4.27,17.117,17.117,0,0,0-7.313-1.621,15.742,15.742,0,0,0-10.872,4.072q-3.322,2.965-5.021,8.9h32.022ZM458.07,51.678l-3.553,3.677q-4.435-4.309-8.67-4.309a6.55,6.55,0,0,0-4.613,1.779,5.5,5.5,0,0,0-1.919,4.151,6.154,6.154,0,0,0,1.582,3.993q1.583,1.938,6.648,4.547,6.173,3.2,8.389,6.168a11.25,11.25,0,0,1,2.176,6.76,12.141,12.141,0,0,1-3.718,8.974A12.678,12.678,0,0,1,445.1,91.1a16.219,16.219,0,0,1-7.1-1.622,15.4,15.4,0,0,1-5.6-4.467l3.475-3.954q4.234,4.785,8.984,4.783a8.083,8.083,0,0,0,5.658-2.134,6.6,6.6,0,0,0,2.336-5.022,6.442,6.442,0,0,0-1.543-4.23q-1.543-1.818-6.964-4.586-5.819-3.005-7.915-5.931a11.179,11.179,0,0,1-2.1-6.682,10.875,10.875,0,0,1,3.342-8.145,11.638,11.638,0,0,1,8.445-3.242Q452.057,45.866,458.07,51.678ZM470.82,31h5.529V46.973h8.765v4.784h-8.765V89.989H470.82V51.757h-7.542V46.973h7.542V31Zm56.9,44.717,4.659,2.451a25.443,25.443,0,0,1-5.3,7.275,21.029,21.029,0,0,1-6.759,4.21,23.551,23.551,0,0,1-8.5,1.443q-10.512,0-16.441-6.9a23.291,23.291,0,0,1-5.929-15.6,23.018,23.018,0,0,1,5.02-14.59,20.508,20.508,0,0,1,17.033-8.145,21.184,21.184,0,0,1,17.547,8.342q4.663,5.892,4.743,14.708H495.139A17.528,17.528,0,0,0,499.923,81.2,15.248,15.248,0,0,0,511.348,86a18.355,18.355,0,0,0,6.385-1.141,16.789,16.789,0,0,0,5.277-3.033A25.79,25.79,0,0,0,527.715,75.717Zm0-11.585a18.376,18.376,0,0,0-3.222-7.077,15.256,15.256,0,0,0-5.594-4.27,17.121,17.121,0,0,0-7.314-1.621,15.74,15.74,0,0,0-10.872,4.072q-3.321,2.965-5.02,8.9h32.022Zm12.433-17.159h5.647v6.286a19.8,19.8,0,0,1,5.331-5.555,10.493,10.493,0,0,1,5.844-1.839,10.082,10.082,0,0,1,4.9,1.463l-2.883,4.665a7.69,7.69,0,0,0-2.922-.751,7.991,7.991,0,0,0-5.331,2.273,14.387,14.387,0,0,0-3.909,7.058q-1.026,3.677-1.026,14.866V89.989h-5.647V46.973Zm26.255,0h5.528v7.71a23.126,23.126,0,0,1,7.344-6.623,18.034,18.034,0,0,1,8.766-2.194,15.22,15.22,0,0,1,8.549,2.451,14.6,14.6,0,0,1,5.508,6.6q1.776,4.151,1.777,12.928V89.989h-5.528V69.47a50.715,50.715,0,0,0-.615-9.924,10.906,10.906,0,0,0-3.686-6.425,11.125,11.125,0,0,0-7.108-2.154,13.625,13.625,0,0,0-8.985,3.321,15.56,15.56,0,0,0-5.233,8.224q-0.789,3.2-.789,11.7V89.989H566.4V46.973Zm-86.062,80.682a3.142,3.142,0,0,1,2.307.956,3.321,3.321,0,0,1,0,4.661,3.234,3.234,0,0,1-4.615,0,3.321,3.321,0,0,1,0-4.661A3.143,3.143,0,0,1,480.341,127.655Zm37.708-17.048-2.943,1.833a12.323,12.323,0,0,0-10.412-5.073,12.036,12.036,0,0,0-8.754,3.4,11.084,11.084,0,0,0-3.483,8.248,11.719,11.719,0,0,0,1.6,5.943,11.25,11.25,0,0,0,4.4,4.323,13.287,13.287,0,0,0,16.649-3.534l2.943,1.938a13.9,13.9,0,0,1-5.556,4.84,17.731,17.731,0,0,1-7.942,1.719,15.681,15.681,0,0,1-11.351-4.354,14.176,14.176,0,0,1-4.508-10.6A15.152,15.152,0,0,1,490.8,111.5a14.853,14.853,0,0,1,5.8-5.617,16.893,16.893,0,0,1,8.248-2.018,17.608,17.608,0,0,1,5.528.876,15.34,15.34,0,0,1,4.522,2.285A12.366,12.366,0,0,1,518.049,110.607Zm19.543-6.745a14.286,14.286,0,0,1,11.053,4.833,15.528,15.528,0,0,1-.227,21.018,15.239,15.239,0,0,1-21.678,0,15.492,15.492,0,0,1-.226-20.991A14.271,14.271,0,0,1,537.592,103.862Zm-0.013,3.637a10.705,10.705,0,0,0-7.958,3.427,11.458,11.458,0,0,0-3.326,8.285,11.755,11.755,0,0,0,1.517,5.842,10.759,10.759,0,0,0,4.1,4.182,11.638,11.638,0,0,0,11.338,0,10.766,10.766,0,0,0,4.1-4.182,11.766,11.766,0,0,0,1.518-5.842,11.435,11.435,0,0,0-3.34-8.285A10.721,10.721,0,0,0,537.579,107.5Zm20.644-2.893h3.712V109.6a14.387,14.387,0,0,1,3.982-4.036,11.281,11.281,0,0,1,5.922-1.7,9.816,9.816,0,0,1,3.981.824,8.566,8.566,0,0,1,3.081,2.19,11.747,11.747,0,0,1,2.07,3.916,13.721,13.721,0,0,1,4.63-5.164,10.951,10.951,0,0,1,5.98-1.766,9.361,9.361,0,0,1,5.279,1.513,9.026,9.026,0,0,1,3.4,4.223,22.572,22.572,0,0,1,1.112,8.126V133.5h-3.792V117.724a20.634,20.634,0,0,0-.662-6.386,5.755,5.755,0,0,0-2.259-2.8,6.749,6.749,0,0,0-3.82-1.062,8.305,8.305,0,0,0-4.931,1.593,9.164,9.164,0,0,0-3.263,4.249q-1.032,2.655-1.032,8.869V133.5H577.9v-14.79a25.423,25.423,0,0,0-.649-7.1,5.946,5.946,0,0,0-2.266-3,6.559,6.559,0,0,0-3.847-1.128,8.293,8.293,0,0,0-4.813,1.553,9.2,9.2,0,0,0-3.315,4.182,22.582,22.582,0,0,0-1.074,8.047V133.5h-3.712V104.606Z"/>
</svg>
