<svg xmlns="http://www.w3.org/2000/svg" width="522" height="46" viewBox="0 0 522 46">
  <g fill="none" fill-rule="evenodd">
    <path fill="#009BFF" class='no-color-change' d="M16.242 26.562C17.712 26.562 18.994 26.187 20.09 25.437 21.184 24.688 22.047 23.645 22.677 22.31 23.307 20.975 23.622 19.423 23.622 17.652 23.622 15.882 23.307 14.322 22.677 12.972 22.047 11.622 21.184 10.565 20.09 9.799 18.994 9.035 17.712 8.652 16.242 8.652 14.772 8.652 13.489 9.035 12.394 9.799 11.299 10.565 10.437 11.622 9.807 12.972 9.177 14.322 8.862 15.882 8.862 17.652 8.862 19.423 9.177 20.975 9.807 22.31 10.437 23.645 11.299 24.688 12.394 25.437 13.489 26.187 14.772 26.562 16.242 26.562zM16.242 33.492C13.182 33.492 10.459 32.817 8.074 31.467 5.689 30.117 3.807 28.25 2.427 25.865 1.047 23.48.357 20.742.357 17.652.357 15.312.747 13.174 1.527 11.24 2.307 9.304 3.417 7.625 4.857 6.2 6.297 4.775 7.977 3.673 9.897 2.892 11.817 2.112 13.932 1.722 16.242 1.722 18.552 1.722 20.667 2.112 22.587 2.892 24.507 3.673 26.187 4.775 27.627 6.2 29.067 7.625 30.176 9.304 30.957 11.24 31.737 13.174 32.127 15.312 32.127 17.652 32.127 20.742 31.436 23.48 30.057 25.865 28.677 28.25 26.795 30.117 24.41 31.467 22.025 32.817 19.302 33.492 16.242 33.492zM44.997 33.492C43.017 33.492 41.164 33.177 39.439 32.547 37.714 31.917 36.162 31.017 34.782 29.847L38.112 25.437C39.162 26.277 40.295 26.96 41.509 27.485 42.725 28.01 43.917 28.272 45.087 28.272 45.867 28.272 46.489 28.137 46.955 27.867 47.419 27.597 47.652 27.192 47.652 26.652 47.652 26.083 47.389 25.625 46.864 25.28 46.339 24.935 45.402 24.597 44.052 24.267L41.892 23.727C37.602 22.588 35.457 20.293 35.457 16.842 35.457 15.312 35.877 13.992 36.717 12.882 37.557 11.773 38.712 10.918 40.182 10.317 41.652 9.717 43.362 9.417 45.312 9.417 47.232 9.417 49.039 9.717 50.735 10.317 52.429 10.918 53.982 11.787 55.392 12.927L51.972 17.427C50.922 16.588 49.812 15.913 48.642 15.402 47.472 14.892 46.377 14.637 45.357 14.637 43.707 14.637 42.882 15.177 42.882 16.257 42.882 16.737 43.13 17.128 43.624 17.427 44.12 17.727 44.817 17.998 45.717 18.237L48.642 19.047C50.832 19.648 52.452 20.548 53.502 21.747 54.552 22.947 55.077 24.373 55.077 26.022 55.077 27.523 54.656 28.835 53.817 29.96 52.977 31.085 51.799 31.955 50.285 32.57 48.769 33.184 47.007 33.492 44.997 33.492M67.182 20.307L67.182 32.907 59.352 32.907 59.352.057 67.182.057 67.182 12.657C67.931 11.667 68.884 10.88 70.039 10.295 71.194 9.71 72.447 9.417 73.797 9.417 76.287 9.417 78.281 10.227 79.782 11.847 81.282 13.467 82.032 15.793 82.032 18.822L82.032 32.907 74.202 32.907 74.202 19.722C74.202 18.372 73.902 17.375 73.302 16.73 72.701 16.085 71.862 15.762 70.782 15.762 69.702 15.762 68.831 16.107 68.172 16.797 67.512 17.488 67.182 18.658 67.182 20.307"/>
    <polyline fill="#009BFF" class='no-color-change' points="102.011 32.907 94.946 21.477 94.946 32.907 87.116 32.907 87.116 .057 94.946 .057 94.946 19.227 102.236 10.002 111.551 10.002 102.911 20.082 111.416 32.907 102.011 32.907"/>
    <path fill="#009BFF" class='no-color-change' d="M124.556 27.282C125.935 27.282 127.038 26.75 127.863 25.685 128.688 24.62 129.101 23.203 129.101 21.432 129.101 19.662 128.688 18.253 127.863 17.202 127.038 16.152 125.935 15.627 124.556 15.627 123.176 15.627 122.073 16.152 121.248 17.202 120.423 18.253 120.011 19.662 120.011 21.432 120.011 23.203 120.423 24.62 121.248 25.685 122.073 26.75 123.176 27.282 124.556 27.282zM124.556 33.492C122.096 33.492 119.928 32.974 118.053 31.94 116.178 30.905 114.708 29.487 113.643 27.687 112.578 25.887 112.046 23.802 112.046 21.432 112.046 19.063 112.578 16.977 113.643 15.177 114.708 13.377 116.178 11.967 118.053 10.947 119.928 9.927 122.096 9.417 124.556 9.417 127.016 9.417 129.183 9.927 131.059 10.947 132.933 11.967 134.403 13.377 135.468 15.177 136.533 16.977 137.066 19.063 137.066 21.432 137.066 23.802 136.533 25.887 135.468 27.687 134.403 29.487 132.933 30.905 131.059 31.94 129.183 32.974 127.016 33.492 124.556 33.492zM149.666 33.492C147.686 33.492 145.833 33.177 144.108 32.547 142.383 31.917 140.83 31.017 139.451 29.847L142.781 25.437C143.83 26.277 144.963 26.96 146.178 27.485 147.393 28.01 148.586 28.272 149.756 28.272 150.536 28.272 151.158 28.137 151.623 27.867 152.088 27.597 152.321 27.192 152.321 26.652 152.321 26.083 152.058 25.625 151.533 25.28 151.008 24.935 150.071 24.597 148.721 24.267L146.561 23.727C142.27 22.588 140.126 20.293 140.126 16.842 140.126 15.312 140.546 13.992 141.386 12.882 142.225 11.773 143.381 10.918 144.851 10.317 146.32 9.717 148.03 9.417 149.981 9.417 151.9 9.417 153.708 9.717 155.403 10.317 157.098 10.918 158.65 11.787 160.061 12.927L156.641 17.427C155.59 16.588 154.481 15.913 153.311 15.402 152.141 14.892 151.045 14.637 150.026 14.637 148.375 14.637 147.551 15.177 147.551 16.257 147.551 16.737 147.798 17.128 148.293 17.427 148.788 17.727 149.486 17.998 150.386 18.237L153.311 19.047C155.5 19.648 157.12 20.548 158.171 21.747 159.22 22.947 159.746 24.373 159.746 26.022 159.746 27.523 159.325 28.835 158.486 29.96 157.645 31.085 156.468 31.955 154.953 32.57 153.438 33.184 151.675 33.492 149.666 33.492M171.851 20.307L171.851 32.907 164.021 32.907 164.021.057 171.851.057 171.851 12.657C172.6 11.667 173.553 10.88 174.708 10.295 175.862 9.71 177.116 9.417 178.465 9.417 180.955 9.417 182.95 10.227 184.451 11.847 185.95 13.467 186.701 15.793 186.701 18.822L186.701 32.907 178.871 32.907 178.871 19.722C178.871 18.372 178.57 17.375 177.971 16.73 177.37 16.085 176.53 15.762 175.451 15.762 174.371 15.762 173.5 16.107 172.84 16.797 172.18 17.488 171.851 18.658 171.851 20.307"/>
    <polyline fill="#404040" points="222.925 32.907 210.91 15.267 210.91 32.907 203.215 32.907 203.215 2.307 210.865 2.307 222.835 20.262 222.835 2.307 230.575 2.307 230.575 32.907 222.925 32.907"/>
    <path fill="#404040" d="M247.809 27.282C249.189 27.282 250.291 26.75 251.117 25.685 251.942 24.62 252.354 23.203 252.354 21.432 252.354 19.662 251.942 18.253 251.117 17.202 250.291 16.152 249.189 15.627 247.809 15.627 246.429 15.627 245.327 16.152 244.502 17.202 243.676 18.253 243.264 19.662 243.264 21.432 243.264 23.203 243.676 24.62 244.502 25.685 245.327 26.75 246.429 27.282 247.809 27.282zM247.809 33.492C245.349 33.492 243.181 32.974 241.307 31.94 239.432 30.905 237.961 29.487 236.897 27.687 235.832 25.887 235.299 23.802 235.299 21.432 235.299 19.063 235.832 16.977 236.897 15.177 237.961 13.377 239.432 11.967 241.307 10.947 243.181 9.927 245.349 9.417 247.809 9.417 250.269 9.417 252.437 9.927 254.312 10.947 256.186 11.967 257.657 13.377 258.722 15.177 259.786 16.977 260.319 19.063 260.319 21.432 260.319 23.802 259.786 25.887 258.722 27.687 257.657 29.487 256.186 30.905 254.312 31.94 252.437 32.974 250.269 33.492 247.809 33.492zM272.244 24.042L272.244 32.907 264.414 32.907 264.414 10.002 271.569 10.002 272.064 13.827C272.544 12.597 273.331 11.599 274.427 10.835 275.522 10.07 276.789 9.687 278.229 9.687 279.039 9.687 279.654 9.793 280.074 10.002L280.074 17.157C279.744 17.038 279.377 16.948 278.972 16.887 278.567 16.827 278.109 16.797 277.599 16.797 276.039 16.797 274.757 17.375 273.752 18.53 272.746 19.685 272.244 21.522 272.244 24.042M301.179 31.422C300.248 32.052 299.183 32.555 297.984 32.929 296.783 33.304 295.524 33.492 294.204 33.492 291.743 33.492 289.786 32.78 288.331 31.355 286.876 29.93 286.149 28.017 286.149 25.617L286.149 15.852 282.414 15.852 282.414 10.002 286.508 10.002 287.499 3.612 293.979 3.612 293.979 10.002 299.964 10.002 299.964 15.852 293.979 15.852 293.979 24.627C293.979 25.408 294.211 26.015 294.676 26.45 295.141 26.885 295.763 27.102 296.544 27.102 296.933 27.102 297.331 27.028 297.736 26.877 298.141 26.727 298.524 26.548 298.883 26.337L301.179 31.422M312.743 20.307L312.743 32.907 304.913 32.907 304.913.057 312.743.057 312.743 12.657C313.493 11.667 314.445 10.88 315.601 10.295 316.755 9.71 318.008 9.417 319.358 9.417 321.848 9.417 323.843 10.227 325.343 11.847 326.843 13.467 327.593 15.793 327.593 18.822L327.593 32.907 319.763 32.907 319.763 19.722C319.763 18.372 319.463 17.375 318.863 16.73 318.263 16.085 317.423 15.762 316.343 15.762 315.263 15.762 314.393 16.107 313.733 16.797 313.073 17.488 312.743 18.658 312.743 20.307"/>
    <polyline fill="#404040" points="351.983 32.907 348.293 19.002 344.648 32.907 336.548 32.907 330.608 10.002 338.618 10.002 341.003 24.762 344.873 10.002 351.758 10.002 355.763 24.807 358.193 10.002 366.023 10.002 360.083 32.907 351.983 32.907"/>
    <path fill="#404040" d="M379.657 15.087C377.107 15.087 375.577 16.437 375.068 19.137L383.798 19.137C383.587 17.668 383.085 16.625 382.29 16.009 381.495 15.395 380.617 15.087 379.657 15.087zM390.367 30.567C389.227 31.377 387.78 32.068 386.025 32.637 384.27 33.207 382.402 33.492 380.423 33.492 377.692 33.492 375.36 32.989 373.425 31.985 371.49 30.98 370.005 29.577 368.97 27.777 367.935 25.977 367.418 23.907 367.418 21.567 367.418 19.198 367.927 17.097 368.947 15.267 369.967 13.438 371.378 12.005 373.177 10.969 374.977 9.935 377.077 9.417 379.477 9.417 381.818 9.417 383.88 9.92 385.665 10.924 387.449 11.93 388.844 13.325 389.85 15.11 390.855 16.895 391.358 18.987 391.358 21.387 391.358 21.717 391.335 22.062 391.29 22.422 391.245 22.782 391.192 23.158 391.132 23.547L375.157 23.547C375.878 26.187 377.842 27.507 381.052 27.507 382.492 27.507 383.767 27.282 384.878 26.832 385.987 26.382 386.917 25.932 387.668 25.482L390.367 30.567zM403.867 33.492C401.887 33.492 400.035 33.177 398.31 32.547 396.585 31.917 395.032 31.017 393.652 29.847L396.983 25.437C398.032 26.277 399.165 26.96 400.38 27.485 401.595 28.01 402.787 28.272 403.958 28.272 404.737 28.272 405.36 28.137 405.825 27.867 406.29 27.597 406.523 27.192 406.523 26.652 406.523 26.083 406.259 25.625 405.735 25.28 405.21 24.935 404.273 24.597 402.923 24.267L400.762 23.727C396.472 22.588 394.327 20.293 394.327 16.842 394.327 15.312 394.747 13.992 395.588 12.882 396.427 11.773 397.582 10.918 399.052 10.317 400.522 9.717 402.232 9.417 404.182 9.417 406.102 9.417 407.91 9.717 409.605 10.317 411.299 10.918 412.852 11.787 414.262 12.927L410.842 17.427C409.792 16.588 408.682 15.913 407.512 15.402 406.342 14.892 405.247 14.637 404.228 14.637 402.577 14.637 401.753 15.177 401.753 16.257 401.753 16.737 402 17.128 402.495 17.427 402.99 17.727 403.688 17.998 404.588 18.237L407.512 19.047C409.702 19.648 411.322 20.548 412.372 21.747 413.422 22.947 413.947 24.373 413.947 26.022 413.947 27.523 413.527 28.835 412.688 29.96 411.847 31.085 410.67 31.955 409.155 32.57 407.64 33.184 405.877 33.492 403.867 33.492M435.097 31.422C434.167 32.052 433.102 32.555 431.902 32.929 430.702 33.304 429.442 33.492 428.122 33.492 425.662 33.492 423.704 32.78 422.25 31.355 420.794 29.93 420.067 28.017 420.067 25.617L420.067 15.852 416.332 15.852 416.332 10.002 420.427 10.002 421.417 3.612 427.897 3.612 427.897 10.002 433.882 10.002 433.882 15.852 427.897 15.852 427.897 24.627C427.897 25.408 428.129 26.015 428.594 26.45 429.059 26.885 429.682 27.102 430.462 27.102 430.852 27.102 431.25 27.028 431.654 26.877 432.06 26.727 432.442 26.548 432.802 26.337L435.097 31.422M449.002 15.087C446.452 15.087 444.922 16.437 444.412 19.137L453.142 19.137C452.931 17.668 452.429 16.625 451.634 16.009 450.839 15.395 449.962 15.087 449.002 15.087zM459.712 30.567C458.571 31.377 457.124 32.068 455.369 32.637 453.614 33.207 451.747 33.492 449.767 33.492 447.037 33.492 444.704 32.989 442.769 31.985 440.835 30.98 439.349 29.577 438.315 27.777 437.279 25.977 436.762 23.907 436.762 21.567 436.762 19.198 437.272 17.097 438.292 15.267 439.311 13.438 440.722 12.005 442.522 10.969 444.322 9.935 446.422 9.417 448.822 9.417 451.162 9.417 453.224 9.92 455.009 10.924 456.794 11.93 458.189 13.325 459.194 15.11 460.199 16.895 460.702 18.987 460.702 21.387 460.702 21.717 460.679 22.062 460.634 22.422 460.59 22.782 460.537 23.158 460.477 23.547L444.502 23.547C445.222 26.187 447.186 27.507 450.397 27.507 451.837 27.507 453.111 27.282 454.222 26.832 455.331 26.382 456.261 25.932 457.012 25.482L459.712 30.567zM472.537 24.042L472.537 32.907 464.707 32.907 464.707 10.002 471.861 10.002 472.357 13.827C472.836 12.597 473.624 11.599 474.719 10.835 475.814 10.07 477.082 9.687 478.522 9.687 479.332 9.687 479.946 9.793 480.366 10.002L480.366 17.157C480.036 17.038 479.669 16.948 479.264 16.887 478.859 16.827 478.402 16.797 477.892 16.797 476.331 16.797 475.049 17.375 474.044 18.53 473.039 19.685 472.537 21.522 472.537 24.042M491.976 20.262L491.976 32.907 484.146 32.907 484.146 10.002 491.301 10.002 491.706 13.017C492.456 11.937 493.431 11.067 494.631 10.407 495.831 9.748 497.151 9.417 498.591 9.417 501.081 9.417 503.075 10.227 504.576 11.847 506.076 13.467 506.826 15.793 506.826 18.822L506.826 32.907 498.996 32.907 498.996 19.722C498.996 18.372 498.696 17.375 498.096 16.73 497.496 16.085 496.656 15.762 495.576 15.762 494.496 15.762 493.626 16.107 492.966 16.797 492.306 17.488 491.976 18.642 491.976 20.262"/>
    <path fill="#009BFF" class='no-color-change' d="M515.916,33.402 C514.955,33.402 514.078,33.17 513.283,32.705 C512.488,32.24 511.858,31.61 511.393,30.815 C510.928,30.02 510.695,29.142 510.695,28.182 C510.695,27.222 510.928,26.345 511.393,25.549 C511.858,24.755 512.488,24.125 513.283,23.66 C514.078,23.195 514.955,22.962 515.916,22.962 C516.876,22.962 517.753,23.195 518.548,23.66 C519.343,24.125 519.973,24.755 520.438,25.549 C520.903,26.345 521.136,27.222 521.136,28.182 C521.136,29.142 520.903,30.02 520.438,30.815 C519.973,31.61 519.343,32.24 518.548,32.705 C517.753,33.17 516.876,33.402 515.916,33.402"/>
    <path fill="#404040" d="M4.83 42.531L6.005 42.531C6.391 42.531 6.697 42.436 6.922 42.246 7.146 42.056 7.259 41.796 7.259 41.468 7.259 41.139 7.146 40.88 6.922 40.69 6.697 40.5 6.391 40.405 6.005 40.405L4.83 40.405 4.83 42.531zM3.957 45.547L3.957 39.671 6.005 39.671C6.662 39.671 7.184 39.832 7.57 40.154 7.956 40.477 8.149 40.915 8.149 41.468 8.149 42.016 7.956 42.449 7.57 42.769 7.184 43.088 6.662 43.249 6.005 43.249L4.83 43.249 4.83 45.547 3.957 45.547zM9.912 43.335L12.055 43.335 10.984 40.578 9.912 43.335zM12.911 45.547L12.341 44.069 9.627 44.069 9.056 45.547 8.175 45.547 10.526 39.671 11.468 39.671 13.81 45.547 12.911 45.547zM15.659 42.444L16.861 42.444C17.235 42.444 17.533 42.353 17.755 42.168 17.977 41.984 18.088 41.736 18.088 41.425 18.088 41.114 17.977 40.866 17.755 40.681 17.533 40.497 17.235 40.405 16.861 40.405L15.659 40.405 15.659 42.444zM15.659 43.162L15.659 45.547 14.786 45.547 14.786 39.671 16.861 39.671C17.512 39.671 18.027 39.827 18.408 40.141 18.788 40.456 18.978 40.883 18.978 41.425 18.978 41.834 18.863 42.18 18.632 42.462 18.402 42.744 18.085 42.943 17.682 43.058L19.108 45.547 18.114 45.547 16.774 43.162 15.659 43.162z"/>
    <polyline fill="#404040" points="21.484 45.547 21.484 40.405 19.505 40.405 19.505 39.671 24.336 39.671 24.336 40.405 22.357 40.405 22.357 45.547 21.484 45.547"/>
    <path fill="#404040" d="M29.945,44.882 C30.326,44.882 30.664,44.785 30.961,44.593 C31.258,44.4 31.49,44.133 31.657,43.793 C31.824,43.453 31.907,43.058 31.907,42.609 C31.907,42.159 31.824,41.765 31.657,41.425 C31.49,41.085 31.258,40.818 30.961,40.625 C30.664,40.432 30.326,40.336 29.945,40.336 C29.565,40.336 29.228,40.432 28.934,40.625 C28.64,40.818 28.41,41.085 28.243,41.425 C28.076,41.765 27.992,42.159 27.992,42.609 C27.992,43.058 28.076,43.453 28.243,43.793 C28.41,44.133 28.64,44.4 28.934,44.593 C29.228,44.785 29.565,44.882 29.945,44.882 Z M29.945,45.643 C29.392,45.643 28.903,45.513 28.476,45.254 C28.05,44.994 27.714,44.637 27.469,44.182 C27.224,43.727 27.102,43.202 27.102,42.609 C27.102,42.016 27.224,41.491 27.469,41.036 C27.714,40.581 28.05,40.223 28.476,39.964 C28.903,39.705 29.392,39.575 29.945,39.575 C30.499,39.575 30.99,39.705 31.419,39.964 C31.848,40.223 32.185,40.581 32.43,41.036 C32.675,41.491 32.797,42.016 32.797,42.609 C32.797,43.202 32.675,43.727 32.43,44.182 C32.185,44.637 31.848,44.994 31.419,45.254 C30.99,45.513 30.499,45.643 29.945,45.643 Z"/>
    <polyline fill="#404040" points="34.898 45.547 34.025 45.547 34.025 39.671 37.681 39.671 37.681 40.405 34.898 40.405 34.898 42.393 37.257 42.393 37.257 43.127 34.898 43.127 34.898 45.547"/>
    <polyline fill="#404040" points="42.235 45.547 42.235 40.405 40.256 40.405 40.256 39.671 45.087 39.671 45.087 40.405 43.108 40.405 43.108 45.547 42.235 45.547"/>
    <polyline fill="#404040" points="46.09 45.547 46.09 39.671 46.963 39.671 46.963 42.185 49.996 42.185 49.996 39.671 50.869 39.671 50.869 45.547 49.996 45.547 49.996 42.937 46.963 42.937 46.963 45.547 46.09 45.547"/>
    <polyline fill="#404040" points="52.408 45.547 52.408 39.671 56.176 39.671 56.176 40.405 53.281 40.405 53.281 42.22 55.83 42.22 55.83 42.954 53.281 42.954 53.281 44.813 56.245 44.813 56.245 45.547 52.408 45.547"/>
    <path fill="#404040" d="M61.759 44.882C62.237 44.882 62.613 44.738 62.887 44.45 63.16 44.162 63.297 43.773 63.297 43.283L63.297 39.671 64.17 39.671 64.17 43.291C64.17 44.024 63.955 44.598 63.526 45.016 63.097 45.433 62.508 45.643 61.759 45.643 61.01 45.643 60.422 45.433 59.996 45.016 59.569 44.598 59.356 44.024 59.356 43.291L59.356 39.671 60.229 39.671 60.229 43.283C60.229 43.773 60.366 44.162 60.64 44.45 60.913 44.738 61.286 44.882 61.759 44.882M67.428 45.643C66.985 45.643 66.561 45.565 66.158 45.409 65.755 45.254 65.429 45.046 65.181 44.787L65.674 44.208C65.904 44.421 66.177 44.588 66.491 44.709 66.805 44.83 67.117 44.89 67.428 44.89 67.809 44.89 68.115 44.817 68.349 44.67 68.582 44.523 68.699 44.32 68.699 44.061 68.699 43.825 68.615 43.626 68.448 43.464 68.281 43.303 67.996 43.168 67.592 43.058L66.78 42.842C66.256 42.704 65.874 42.508 65.635 42.254 65.396 42.001 65.276 41.67 65.276 41.261 65.276 40.927 65.366 40.632 65.544 40.379 65.723 40.126 65.969 39.929 66.283 39.787 66.597 39.646 66.953 39.575 67.351 39.575 67.771 39.575 68.166 39.654 68.534 39.813 68.903 39.971 69.229 40.192 69.511 40.474L68.984 41.045C68.736 40.814 68.478 40.637 68.21 40.513 67.943 40.389 67.659 40.327 67.359 40.327 66.996 40.327 66.699 40.404 66.469 40.556 66.239 40.709 66.123 40.921 66.123 41.191 66.123 41.439 66.205 41.632 66.37 41.771 66.534 41.909 66.786 42.024 67.126 42.116L68.033 42.367C68.558 42.511 68.941 42.712 69.183 42.972 69.425 43.231 69.546 43.554 69.546 43.94 69.546 44.28 69.456 44.578 69.278 44.834 69.099 45.091 68.851 45.289 68.534 45.43 68.218 45.572 67.849 45.643 67.428 45.643M71.741 43.335L73.885 43.335 72.813 40.578 71.741 43.335zM74.74 45.547L74.17 44.069 71.456 44.069 70.885 45.547 70.004 45.547 72.355 39.671 73.297 39.671 75.639 45.547 74.74 45.547z"/>
    <polyline fill="#404040" points="79.701 45.547 79.701 40.405 77.722 40.405 77.722 39.671 82.553 39.671 82.553 40.405 80.574 40.405 80.574 45.547 79.701 45.547"/>
    <path fill="#404040" d="M85.699 44.882C86.079 44.882 86.418 44.785 86.715 44.593 87.011 44.4 87.243 44.133 87.41 43.793 87.577 43.453 87.661 43.058 87.661 42.609 87.661 42.159 87.577 41.765 87.41 41.425 87.243 41.085 87.011 40.818 86.715 40.625 86.418 40.432 86.079 40.336 85.699 40.336 85.319 40.336 84.982 40.432 84.688 40.625 84.394 40.818 84.163 41.085 83.996 41.425 83.829 41.765 83.746 42.159 83.746 42.609 83.746 43.058 83.829 43.453 83.996 43.793 84.163 44.133 84.394 44.4 84.688 44.593 84.982 44.785 85.319 44.882 85.699 44.882zM85.699 45.643C85.146 45.643 84.656 45.513 84.23 45.254 83.803 44.994 83.468 44.637 83.223 44.182 82.978 43.727 82.855 43.202 82.855 42.609 82.855 42.016 82.978 41.491 83.223 41.036 83.468 40.581 83.803 40.223 84.23 39.964 84.656 39.705 85.146 39.575 85.699 39.575 86.252 39.575 86.743 39.705 87.173 39.964 87.602 40.223 87.939 40.581 88.184 41.036 88.428 41.491 88.551 42.016 88.551 42.609 88.551 43.202 88.428 43.727 88.184 44.182 87.939 44.637 87.602 44.994 87.173 45.254 86.743 45.513 86.252 45.643 85.699 45.643zM90.651 44.813L91.844 44.813C92.259 44.813 92.614 44.722 92.911 44.541 93.208 44.359 93.435 44.104 93.594 43.776 93.752 43.447 93.832 43.058 93.832 42.609 93.832 42.159 93.752 41.771 93.594 41.442 93.435 41.114 93.208 40.859 92.911 40.677 92.614 40.496 92.259 40.405 91.844 40.405L90.651 40.405 90.651 44.813zM89.778 45.547L89.778 39.671 91.844 39.671C92.42 39.671 92.924 39.793 93.356 40.038 93.788 40.283 94.124 40.625 94.363 41.066 94.602 41.507 94.722 42.021 94.722 42.609 94.722 43.197 94.602 43.711 94.363 44.152 94.124 44.593 93.788 44.935 93.356 45.18 92.924 45.425 92.42 45.547 91.844 45.547L89.778 45.547zM96.952 43.335L99.095 43.335 98.023 40.578 96.952 43.335zM99.951 45.547L99.38 44.069 96.666 44.069 96.096 45.547 95.214 45.547 97.565 39.671 98.507 39.671 100.85 45.547 99.951 45.547z"/>
    <polyline fill="#404040" points="103.529 43.214 103.529 45.547 102.656 45.547 102.656 43.214 100.59 39.671 101.619 39.671 103.097 42.384 104.575 39.671 105.586 39.671 103.529 43.214"/>
    <polyline fill="#404040" points="112.569 45.547 109.432 41.045 109.432 45.547 108.611 45.547 108.611 39.671 109.423 39.671 112.569 44.173 112.569 39.671 113.381 39.671 113.381 45.547 112.569 45.547"/>
    <polyline fill="#404040" points="114.92 45.547 114.92 39.671 118.688 39.671 118.688 40.405 115.793 40.405 115.793 42.22 118.342 42.22 118.342 42.954 115.793 42.954 115.793 44.813 118.757 44.813 118.757 45.547 114.92 45.547"/>
    <polyline fill="#404040" points="121.35 45.547 121.35 40.405 119.371 40.405 119.371 39.671 124.202 39.671 124.202 40.405 122.223 40.405 122.223 45.547 121.35 45.547"/>
    <polyline fill="#404040" points="129.906 45.547 128.532 40.863 127.158 45.547 126.25 45.547 124.686 39.671 125.55 39.671 126.743 44.32 128.117 39.671 128.947 39.671 130.329 44.338 131.531 39.671 132.378 39.671 130.813 45.547 129.906 45.547"/>
    <path fill="#404040" d="M135.844 44.882C136.224 44.882 136.562 44.785 136.859 44.593 137.156 44.4 137.388 44.133 137.555 43.793 137.722 43.453 137.806 43.058 137.806 42.609 137.806 42.159 137.722 41.765 137.555 41.425 137.388 41.085 137.156 40.818 136.859 40.625 136.562 40.432 136.224 40.336 135.844 40.336 135.463 40.336 135.126 40.432 134.833 40.625 134.539 40.818 134.308 41.085 134.141 41.425 133.974 41.765 133.89 42.159 133.89 42.609 133.89 43.058 133.974 43.453 134.141 43.793 134.308 44.133 134.539 44.4 134.833 44.593 135.126 44.785 135.463 44.882 135.844 44.882zM135.844 45.643C135.291 45.643 134.801 45.513 134.374 45.254 133.948 44.994 133.612 44.637 133.368 44.182 133.123 43.727 133 43.202 133 42.609 133 42.016 133.123 41.491 133.368 41.036 133.612 40.581 133.948 40.223 134.374 39.964 134.801 39.705 135.291 39.575 135.844 39.575 136.397 39.575 136.888 39.705 137.317 39.964 137.746 40.223 138.083 40.581 138.329 41.036 138.573 41.491 138.696 42.016 138.696 42.609 138.696 43.202 138.573 43.727 138.329 44.182 138.083 44.637 137.746 44.994 137.317 45.254 136.888 45.513 136.397 45.643 135.844 45.643zM140.796 42.444L141.997 42.444C142.372 42.444 142.67 42.353 142.892 42.168 143.114 41.984 143.224 41.736 143.224 41.425 143.224 41.114 143.114 40.866 142.892 40.681 142.67 40.497 142.372 40.405 141.997 40.405L140.796 40.405 140.796 42.444zM140.796 43.162L140.796 45.547 139.923 45.547 139.923 39.671 141.997 39.671C142.648 39.671 143.164 39.827 143.544 40.141 143.925 40.456 144.115 40.883 144.115 41.425 144.115 41.834 143.999 42.18 143.769 42.462 143.538 42.744 143.221 42.943 142.818 43.058L144.244 45.547 143.25 45.547 141.911 43.162 140.796 43.162z"/>
    <polyline fill="#404040" points="148.859 45.547 146.224 42.583 146.224 45.547 145.351 45.547 145.351 39.671 146.224 39.671 146.224 42.246 148.687 39.671 149.767 39.671 147.148 42.367 149.957 45.547 148.859 45.547"/>
  </g>
</svg>
