<svg xmlns="http://www.w3.org/2000/svg" width="252" height="42" viewBox="0 0 252 42">
  <g fill="none" fill-rule="evenodd">
    <path class='no-color-change' fill="#009BFF" d="M8.592 24.924L12.417 24.924C14.43 25.005 16.361 24.119 17.612 22.539 18.885 20.949 19.522 18.849 19.522 16.239 19.522 13.629 18.885 11.529 17.612 9.939 16.36 8.36 14.43 7.474 12.417 7.554L8.592 7.554 8.592 24.924zM.357 31.539L.357.939 12.417.939C15.218.883 17.985 1.556 20.447 2.894 22.731 4.159 24.624 6.027 25.917 8.294 27.276 10.716 27.967 13.457 27.917 16.234 27.967 19.012 27.276 21.752 25.917 24.174 24.626 26.444 22.735 28.316 20.452 29.584 17.991 30.922 15.223 31.596 12.422 31.539L.357 31.539.357 31.539zM42.977 13.699C40.427 13.699 38.897 15.049 38.387 17.749L47.117 17.749C46.907 16.279 46.407 15.236 45.617 14.619 44.864 14.026 43.931 13.709 42.972 13.719L42.977 13.699zM53.687 29.199C52.351 30.103 50.886 30.802 49.342 31.269 47.53 31.848 45.639 32.137 43.737 32.124 41.317 32.196 38.915 31.682 36.737 30.624 34.873 29.686 33.324 28.223 32.282 26.414 31.222 24.519 30.685 22.376 30.727 20.204 30.685 18.007 31.211 15.837 32.257 13.904 33.243 12.108 34.707 10.619 36.487 9.604 40.396 7.545 45.064 7.528 48.987 9.559 50.749 10.534 52.204 11.982 53.187 13.739 54.225 15.666 54.741 17.831 54.687 20.019 54.686 20.365 54.662 20.711 54.617 21.054 54.572 21.414 54.517 21.789 54.462 22.18L38.472 22.18C39.192 24.819 41.157 26.14 44.367 26.14 45.674 26.163 46.973 25.933 48.192 25.464 49.155 25.086 50.088 24.635 50.982 24.114L53.687 29.199 53.687 29.199zM66.917 32.124C65.023 32.14 63.14 31.819 61.357 31.18 59.655 30.563 58.077 29.649 56.697 28.479L60.027 24.069C61.062 24.899 62.204 25.588 63.422 26.114 64.548 26.621 65.767 26.89 67.002 26.904 67.649 26.935 68.292 26.795 68.867 26.499 69.315 26.263 69.587 25.79 69.567 25.284 69.569 24.719 69.267 24.196 68.777 23.914 67.897 23.44 66.949 23.102 65.967 22.914L63.807 22.374C59.517 21.234 57.372 18.939 57.372 15.489 57.338 14.065 57.781 12.671 58.632 11.529 59.532 10.375 60.73 9.488 62.097 8.964 63.732 8.334 65.475 8.028 67.227 8.064 69.074 8.052 70.908 8.356 72.652 8.964 74.341 9.562 75.916 10.445 77.307 11.574L73.887 16.074C72.871 15.255 71.752 14.575 70.557 14.049 69.526 13.571 68.408 13.31 67.272 13.284 65.606 13.284 64.772 13.824 64.772 14.904 64.781 15.402 65.066 15.852 65.512 16.074 66.17 16.439 66.875 16.711 67.607 16.884L70.532 17.694C72.722 18.294 74.342 19.194 75.392 20.394 76.434 21.572 76.996 23.098 76.967 24.669 76.998 26.074 76.566 27.449 75.737 28.584 74.823 29.765 73.599 30.668 72.202 31.194 70.517 31.842 68.722 32.158 66.917 32.124M91.687 13.719C89.137 13.719 87.607 15.069 87.097 17.769L95.827 17.769C95.617 16.299 95.117 15.256 94.327 14.639 93.578 14.041 92.646 13.716 91.687 13.719zM102.412 29.199C101.078 30.103 99.614 30.801 98.072 31.269 96.26 31.848 94.369 32.137 92.467 32.124 90.047 32.196 87.645 31.682 85.467 30.624 83.603 29.686 82.054 28.223 81.012 26.414 79.953 24.518 79.419 22.375 79.462 20.204 79.42 18.007 79.947 15.837 80.992 13.904 81.978 12.108 83.442 10.619 85.222 9.604 89.13 7.545 93.799 7.528 97.722 9.559 99.48 10.537 100.929 11.987 101.907 13.744 102.944 15.672 103.462 17.836 103.407 20.024 103.407 20.37 103.385 20.716 103.342 21.059 103.297 21.419 103.242 21.794 103.187 22.184L87.187 22.184C87.907 24.824 89.872 26.144 93.082 26.144 94.389 26.168 95.688 25.939 96.907 25.47 97.87 25.091 98.803 24.64 99.697 24.119L102.412 29.199 102.412 29.199zM115.077 22.674L115.077 31.539 107.242 31.539 107.242 8.634 114.397 8.634 114.897 12.459C115.884 9.926 118.343 8.274 121.062 8.319 121.693 8.286 122.323 8.394 122.907 8.634L122.907 15.789C122.548 15.663 122.178 15.573 121.802 15.519 121.347 15.455 120.887 15.426 120.427 15.429 118.948 15.393 117.534 16.032 116.582 17.164 115.575 18.317 115.074 20.154 115.077 22.674M143.742 30.055C142.756 30.708 141.68 31.214 140.547 31.555 139.323 31.933 138.048 32.124 136.767 32.119 134.307 32.119 132.349 31.407 130.892 29.984 129.435 28.561 128.709 26.647 128.713 24.244L128.713 14.484 124.977 14.484 124.977 8.634 129.072 8.634 130.072 2.244 136.572 2.244 136.572 8.634 142.572 8.634 142.572 14.484 136.572 14.484 136.572 23.259C136.532 23.94 136.787 24.604 137.272 25.084 137.785 25.536 138.455 25.769 139.137 25.734 139.545 25.73 139.947 25.654 140.327 25.51 140.724 25.363 141.107 25.182 141.472 24.97L143.742 30.055"/>
    <path fill="#414140" d="M170.607 32.124C168.165 32.134 165.74 31.7 163.452 30.845 161.246 30.035 159.225 28.789 157.512 27.18L161.562 22.095C162.755 23.169 164.126 24.028 165.612 24.634 167.186 25.263 168.868 25.575 170.562 25.555 171.547 25.605 172.527 25.388 173.397 24.924 174.069 24.538 174.468 23.808 174.432 23.034 174.421 22.209 173.953 21.458 173.217 21.084 171.865 20.384 170.428 19.861 168.942 19.529L167.052 19.029C164.293 18.309 162.192 17.206 160.753 15.719 159.303 14.208 158.525 12.177 158.592 10.084 158.555 8.257 159.09 6.463 160.122 4.954 161.187 3.449 162.652 2.273 164.352 1.559 166.331.73 168.462.325 170.607.369 172.904.36 175.18.795 177.312 1.649 179.391 2.477 181.31 3.661 182.982 5.149L178.797 10.414C177.643 9.437 176.364 8.62 174.992 7.984 173.639 7.318 172.155 6.965 170.647 6.949 169.686 6.892 168.727 7.101 167.878 7.554 167.252 7.924 166.881 8.608 166.912 9.334 166.925 10.081 167.297 10.775 167.912 11.199 168.98 11.897 170.166 12.393 171.412 12.664L173.708 13.294C177.007 14.194 179.34 15.424 180.708 16.984 182.049 18.477 182.782 20.421 182.757 22.43 182.798 24.245 182.274 26.029 181.257 27.534 180.186 29.042 178.714 30.218 177.007 30.93 174.981 31.771 172.8 32.179 170.607 32.124M202.057 31.539L201.652 28.539C200.903 29.647 199.888 30.552 198.702 31.169 197.491 31.812 196.138 32.144 194.767 32.134 192.1 32.134 190.06 31.348 188.647 29.774 187.234 28.201 186.529 25.93 186.532 22.959L186.532 8.634 194.362 8.634 194.362 22.044C194.362 24.534 195.503 25.779 197.782 25.779 200.182 25.779 201.382 24.279 201.382 21.279L201.382 8.634 209.213 8.634 209.213 31.539 202.057 31.539M222.187 18.894L222.187 31.539 214.362 31.539 214.362 8.634 221.517 8.634 221.922 11.634C222.679 10.547 223.681 9.653 224.847 9.024 226.06 8.357 227.423 8.013 228.807 8.024 231.297 8.024 233.297 8.834 234.807 10.454 236.317 12.074 237.067 14.399 237.057 17.429L237.057 31.515 229.187 31.515 229.187 18.354C229.187 17.004 228.887 16.004 228.287 15.354 227.63 14.691 226.72 14.34 225.787 14.389 224.809 14.348 223.861 14.724 223.177 15.424 222.517 16.118 222.187 17.274 222.187 18.894"/>
    <path class='no-color-change' fill="#009BFF" d="M246.463,32.034 C245.537,32.045 244.627,31.805 243.827,31.339 C243.043,30.886 242.391,30.233 241.937,29.449 C241.007,27.817 241.007,25.816 241.937,24.184 C242.391,23.4 243.044,22.749 243.827,22.294 C245.459,21.364 247.461,21.364 249.092,22.294 C249.876,22.749 250.527,23.4 250.982,24.184 C251.912,25.816 251.912,27.817 250.982,29.449 C250.528,30.233 249.877,30.885 249.092,31.339 C248.295,31.804 247.385,32.044 246.463,32.034"/>
    <path fill="#414140" d="M1.041 39.205L1.962 39.205C2.264 39.205 2.503 39.131 2.679 38.981 2.856 38.833 2.944 38.63 2.944 38.372 2.944 38.115 2.856 37.912 2.679 37.764 2.503 37.614 2.264 37.54 1.962 37.54L1.041 37.54 1.041 39.205zM.357 41.568L.357 36.964 1.962 36.964C2.476 36.964 2.884 37.091 3.187 37.344 3.489 37.597 3.641 37.939 3.641 38.372 3.641 38.802 3.489 39.141 3.187 39.392 2.884 39.642 2.476 39.767 1.962 39.767L1.041 39.767 1.041 41.568.357 41.568.357 41.568zM5.022 39.835L6.7 39.835 5.861 37.675 5.022 39.835zM7.371 41.568L6.924 40.41 4.798 40.41 4.351 41.568 3.661 41.568 5.503 36.964 6.24 36.964 8.075 41.568 7.371 41.568 7.371 41.568zM9.524 39.138L10.464 39.138C10.758 39.138 10.992 39.065 11.165 38.921 11.339 38.776 11.426 38.582 11.426 38.339 11.426 38.095 11.339 37.901 11.165 37.756 10.992 37.612 10.758 37.54 10.464 37.54L9.524 37.54 9.524 39.138zM9.524 39.699L9.524 41.568 8.84 41.568 8.84 36.964 10.464 36.964C10.975 36.964 11.378 37.087 11.676 37.333 11.975 37.579 12.124 37.914 12.124 38.339 12.124 38.659 12.033 38.93 11.853 39.15 11.672 39.372 11.424 39.528 11.108 39.618L12.225 41.568 11.446 41.568 10.397 39.699 9.524 39.699 9.524 39.699z"/>
    <polyline fill="#414140" points="14.086 41.568 14.086 37.54 12.537 37.54 12.537 36.964 16.321 36.964 16.321 37.54 14.771 37.54 14.771 41.568 14.086 41.568"/>
    <path fill="#414140" d="M20.715,41.047 C21.012,41.047 21.277,40.971 21.51,40.82 C21.743,40.669 21.924,40.46 22.055,40.193 C22.186,39.928 22.251,39.618 22.251,39.267 C22.251,38.914 22.186,38.605 22.055,38.339 C21.924,38.072 21.743,37.864 21.51,37.712 C21.277,37.561 21.012,37.485 20.715,37.485 C20.417,37.485 20.153,37.561 19.922,37.712 C19.692,37.864 19.511,38.072 19.381,38.339 C19.25,38.605 19.184,38.914 19.184,39.267 C19.184,39.618 19.25,39.928 19.381,40.193 C19.511,40.46 19.692,40.669 19.922,40.82 C20.153,40.971 20.417,41.047 20.715,41.047 Z M20.715,41.643 C20.281,41.643 19.898,41.541 19.564,41.338 C19.23,41.135 18.967,40.854 18.775,40.498 C18.583,40.142 18.487,39.73 18.487,39.267 C18.487,38.802 18.583,38.391 18.775,38.034 C18.967,37.678 19.23,37.397 19.564,37.194 C19.898,36.991 20.281,36.89 20.715,36.89 C21.148,36.89 21.532,36.991 21.869,37.194 C22.205,37.397 22.469,37.678 22.661,38.034 C22.853,38.391 22.948,38.802 22.948,39.267 C22.948,39.73 22.853,40.142 22.661,40.498 C22.469,40.854 22.205,41.135 21.869,41.338 C21.532,41.541 21.148,41.643 20.715,41.643 L20.715,41.643 Z"/>
    <polyline fill="#414140" points="24.593 41.568 23.91 41.568 23.91 36.964 26.774 36.964 26.774 37.54 24.593 37.54 24.593 39.097 26.442 39.097 26.442 39.672 24.593 39.672 24.593 41.568"/>
    <polyline fill="#414140" points="30.341 41.568 30.341 37.54 28.791 37.54 28.791 36.964 32.575 36.964 32.575 37.54 31.025 37.54 31.025 41.568 30.341 41.568"/>
    <polyline fill="#414140" points="33.36 41.568 33.36 36.964 34.044 36.964 34.044 38.935 36.42 38.935 36.42 36.964 37.104 36.964 37.104 41.568 36.42 41.568 36.42 39.523 34.044 39.523 34.044 41.568 33.36 41.568"/>
    <polyline fill="#414140" points="38.309 41.568 38.309 36.964 41.261 36.964 41.261 37.54 38.993 37.54 38.993 38.961 40.99 38.961 40.99 39.537 38.993 39.537 38.993 40.992 41.315 40.992 41.315 41.568 38.309 41.568"/>
    <path fill="#414140" d="M45.634 41.047C46.009 41.047 46.303 40.934 46.518 40.708 46.732 40.482 46.84 40.178 46.84 39.794L46.84 36.964 47.524 36.964 47.524 39.801C47.524 40.374 47.355 40.824 47.019 41.151 46.683 41.478 46.221 41.643 45.634 41.643 45.047 41.643 44.587 41.478 44.253 41.151 43.92 40.824 43.753 40.374 43.753 39.801L43.753 36.964 44.436 36.964 44.436 39.794C44.436 40.178 44.544 40.482 44.757 40.708 44.972 40.934 45.265 41.047 45.634 41.047M50.075 41.643C49.728 41.643 49.396 41.582 49.08 41.46 48.765 41.338 48.509 41.175 48.316 40.972L48.701 40.518C48.882 40.685 49.095 40.816 49.341 40.911 49.587 41.006 49.832 41.054 50.075 41.054 50.373 41.054 50.613 40.996 50.797 40.881 50.98 40.765 51.07 40.606 51.07 40.403 51.07 40.219 51.005 40.062 50.875 39.936 50.744 39.811 50.52 39.704 50.204 39.618L49.567 39.449C49.157 39.341 48.858 39.187 48.67 38.988 48.483 38.79 48.39 38.53 48.39 38.21 48.39 37.948 48.46 37.718 48.6 37.519 48.739 37.321 48.933 37.167 49.178 37.056 49.424 36.945 49.703 36.89 50.015 36.89 50.344 36.89 50.653 36.952 50.942 37.076 51.231 37.2 51.486 37.373 51.707 37.594L51.294 38.041C51.1 37.86 50.898 37.722 50.688 37.625 50.478 37.527 50.256 37.479 50.021 37.479 49.737 37.479 49.504 37.539 49.324 37.658 49.144 37.778 49.053 37.943 49.053 38.156 49.053 38.35 49.118 38.501 49.246 38.609 49.375 38.718 49.572 38.807 49.839 38.88L50.549 39.077C50.96 39.189 51.26 39.348 51.45 39.551 51.64 39.754 51.734 40.007 51.734 40.309 51.734 40.575 51.664 40.808 51.524 41.01 51.384 41.211 51.19 41.366 50.942 41.476 50.694 41.587 50.405 41.643 50.075 41.643M53.454 39.835L55.132 39.835 54.294 37.675 53.454 39.835zM55.803 41.568L55.356 40.41 53.23 40.41 52.783 41.568 52.093 41.568 53.935 36.964 54.673 36.964 56.507 41.568 55.803 41.568 55.803 41.568z"/>
    <polyline fill="#414140" points="59.689 41.568 59.689 37.54 58.139 37.54 58.139 36.964 61.923 36.964 61.923 37.54 60.373 37.54 60.373 41.568 59.689 41.568"/>
    <path fill="#414140" d="M64.387 41.047C64.685 41.047 64.95 40.971 65.183 40.82 65.416 40.669 65.597 40.46 65.728 40.193 65.859 39.928 65.924 39.618 65.924 39.267 65.924 38.914 65.859 38.605 65.728 38.339 65.597 38.072 65.416 37.864 65.183 37.712 64.95 37.561 64.685 37.485 64.387 37.485 64.089 37.485 63.826 37.561 63.595 37.712 63.365 37.864 63.184 38.072 63.054 38.339 62.923 38.605 62.857 38.914 62.857 39.267 62.857 39.618 62.923 39.928 63.054 40.193 63.184 40.46 63.365 40.669 63.595 40.82 63.826 40.971 64.089 41.047 64.387 41.047zM64.387 41.643C63.954 41.643 63.57 41.541 63.236 41.338 62.902 41.135 62.64 40.854 62.448 40.498 62.256 40.142 62.16 39.73 62.16 39.267 62.16 38.802 62.256 38.391 62.448 38.034 62.64 37.678 62.902 37.397 63.236 37.194 63.57 36.991 63.954 36.89 64.387 36.89 64.821 36.89 65.205 36.991 65.542 37.194 65.878 37.397 66.142 37.678 66.334 38.034 66.526 38.391 66.621 38.802 66.621 39.267 66.621 39.73 66.526 40.142 66.334 40.498 66.142 40.854 65.878 41.135 65.542 41.338 65.205 41.541 64.821 41.643 64.387 41.643L64.387 41.643zM68.266 40.992L69.201 40.992C69.526 40.992 69.804 40.921 70.037 40.779 70.269 40.637 70.447 40.437 70.571 40.18 70.695 39.923 70.758 39.618 70.758 39.267 70.758 38.914 70.695 38.609 70.571 38.352 70.447 38.095 70.269 37.895 70.037 37.753 69.804 37.611 69.526 37.54 69.201 37.54L68.266 37.54 68.266 40.992zM67.583 41.568L67.583 36.964 69.201 36.964C69.652 36.964 70.047 37.06 70.385 37.252 70.724 37.443 70.986 37.712 71.174 38.057 71.361 38.403 71.455 38.806 71.455 39.267 71.455 39.726 71.361 40.129 71.174 40.474 70.986 40.82 70.724 41.089 70.385 41.28 70.047 41.473 69.652 41.568 69.201 41.568L67.583 41.568 67.583 41.568zM73.202 39.835L74.88 39.835 74.042 37.675 73.202 39.835zM75.551 41.568L75.104 40.41 72.978 40.41 72.531 41.568 71.841 41.568 73.683 36.964 74.421 36.964 76.255 41.568 75.551 41.568 75.551 41.568z"/>
    <polyline fill="#414140" points="78.354 39.74 78.354 41.568 77.67 41.568 77.67 39.74 76.052 36.964 76.858 36.964 78.015 39.09 79.173 36.964 79.965 36.964 78.354 39.74"/>
    <polyline fill="#414140" points="85.435 41.568 82.978 38.041 82.978 41.568 82.335 41.568 82.335 36.964 82.971 36.964 85.435 40.491 85.435 36.964 86.072 36.964 86.072 41.568 85.435 41.568"/>
    <polyline fill="#414140" points="87.276 41.568 87.276 36.964 90.228 36.964 90.228 37.54 87.96 37.54 87.96 38.961 89.958 38.961 89.958 39.537 87.96 39.537 87.96 40.992 90.282 40.992 90.282 41.568 87.276 41.568"/>
    <polyline fill="#414140" points="92.313 41.568 92.313 37.54 90.763 37.54 90.763 36.964 94.547 36.964 94.547 37.54 92.997 37.54 92.997 41.568 92.313 41.568"/>
    <polyline fill="#414140" points="99.015 41.568 97.939 37.898 96.862 41.568 96.152 41.568 94.926 36.964 95.603 36.964 96.538 40.606 97.614 36.964 98.264 36.964 99.347 40.62 100.288 36.964 100.952 36.964 99.726 41.568 99.015 41.568"/>
    <path fill="#414140" d="M103.667 41.047C103.964 41.047 104.23 40.971 104.462 40.82 104.694 40.669 104.876 40.46 105.007 40.193 105.138 39.928 105.203 39.618 105.203 39.267 105.203 38.914 105.138 38.605 105.007 38.339 104.876 38.072 104.694 37.864 104.462 37.712 104.23 37.561 103.964 37.485 103.667 37.485 103.369 37.485 103.105 37.561 102.874 37.712 102.644 37.864 102.464 38.072 102.333 38.339 102.202 38.605 102.136 38.914 102.136 39.267 102.136 39.618 102.202 39.928 102.333 40.193 102.464 40.46 102.644 40.669 102.874 40.82 103.105 40.971 103.369 41.047 103.667 41.047zM103.667 41.643C103.233 41.643 102.85 41.541 102.515 41.338 102.181 41.135 101.919 40.854 101.727 40.498 101.535 40.142 101.439 39.73 101.439 39.267 101.439 38.802 101.535 38.391 101.727 38.034 101.919 37.678 102.181 37.397 102.515 37.194 102.85 36.991 103.233 36.89 103.667 36.89 104.1 36.89 104.484 36.991 104.82 37.194 105.157 37.397 105.421 37.678 105.613 38.034 105.805 38.391 105.901 38.802 105.901 39.267 105.901 39.73 105.805 40.142 105.613 40.498 105.421 40.854 105.157 41.135 104.82 41.338 104.484 41.541 104.1 41.643 103.667 41.643L103.667 41.643zM107.546 39.138L108.487 39.138C108.78 39.138 109.014 39.065 109.188 38.921 109.361 38.776 109.448 38.582 109.448 38.339 109.448 38.095 109.361 37.901 109.188 37.756 109.014 37.612 108.78 37.54 108.487 37.54L107.546 37.54 107.546 39.138zM107.546 39.699L107.546 41.568 106.862 41.568 106.862 36.964 108.487 36.964C108.997 36.964 109.401 37.087 109.699 37.333 109.997 37.579 110.146 37.914 110.146 38.339 110.146 38.659 110.055 38.93 109.875 39.15 109.694 39.372 109.446 39.528 109.13 39.618L110.247 41.568 109.469 41.568 108.42 39.699 107.546 39.699 107.546 39.699z"/>
    <polyline fill="#414140" points="113.862 41.568 111.797 39.246 111.797 41.568 111.114 41.568 111.114 36.964 111.797 36.964 111.797 38.981 113.727 36.964 114.573 36.964 112.522 39.077 114.722 41.568 113.862 41.568"/>
  </g>
</svg>
