<?xml version="1.0" encoding="UTF-8"?>
<svg width="507px" height="43px" viewBox="0 0 507 43" version="1.1" xmlns="http://www.w3.org/2000/svg" xmlns:xlink="http://www.w3.org/1999/xlink">
    <!-- Generator: Sketch 47.1 (45422) - http://www.bohemiancoding.com/sketch -->
    <title>FL_Pensacola_Logo_Prm-nEds_KOR_CMYK</title>
    <desc>Created with Sketch.</desc>
    <defs></defs>
    <g id="Page-1" stroke="none" stroke-width="1" fill="none" fill-rule="evenodd">
        <g id="FL_Pensacola_Logo_Prm-nEds_KOR_CMYK" transform="translate(0.000000, -68.000000)">
            <path d="M12.552,96.829 C13.931,96.829 15.034,96.297 15.859,95.232 C16.684,94.167 17.097,92.75 17.097,90.979 C17.097,89.209 16.684,87.792 15.859,86.726 C15.034,85.662 13.931,85.129 12.552,85.129 C11.202,85.129 10.114,85.662 9.289,86.726 C8.464,87.792 8.052,89.209 8.052,90.979 C8.052,92.75 8.464,94.167 9.289,95.232 C10.114,96.297 11.202,96.829 12.552,96.829 Z M14.667,103.039 C13.317,103.039 12.087,102.754 10.977,102.184 C9.867,101.615 8.936,100.834 8.187,99.844 L8.187,110.779 L0.357,110.779 L0.357,79.549 L7.512,79.549 L7.917,82.564 C8.637,81.484 9.604,80.614 10.819,79.954 C12.035,79.295 13.436,78.964 15.027,78.964 C16.977,78.964 18.702,79.474 20.202,80.494 C21.702,81.515 22.886,82.924 23.757,84.724 C24.627,86.524 25.062,88.61 25.062,90.979 C25.062,93.349 24.619,95.442 23.734,97.257 C22.849,99.072 21.619,100.49 20.045,101.509 C18.469,102.529 16.676,103.039 14.667,103.039 L14.667,103.039 Z" id="Fill-1" fill="#009BFF" class='no-color-change'></path>
            <path d="M40.002,84.634 C37.452,84.634 35.922,85.984 35.412,88.684 L44.142,88.684 C43.932,87.215 43.429,86.172 42.634,85.556 C41.839,84.942 40.962,84.634 40.002,84.634 Z M50.712,100.114 C49.571,100.924 48.124,101.615 46.369,102.184 C44.614,102.754 42.747,103.039 40.767,103.039 C38.037,103.039 35.704,102.536 33.769,101.532 C31.835,100.527 30.349,99.124 29.315,97.324 C28.279,95.524 27.762,93.454 27.762,91.114 C27.762,88.745 28.272,86.644 29.292,84.814 C30.311,82.985 31.722,81.552 33.522,80.517 C35.322,79.482 37.421,78.964 39.822,78.964 C42.162,78.964 44.224,79.467 46.009,80.471 C47.794,81.477 49.189,82.872 50.194,84.657 C51.199,86.442 51.702,88.534 51.702,90.934 C51.702,91.265 51.68,91.609 51.634,91.969 C51.589,92.329 51.537,92.705 51.477,93.094 L35.502,93.094 C36.222,95.734 38.186,97.054 41.397,97.054 C42.837,97.054 44.112,96.829 45.222,96.379 C46.331,95.929 47.262,95.479 48.012,95.029 L50.712,100.114 L50.712,100.114 Z" id="Fill-2" fill="#009BFF" class='no-color-change'></path>
            <path d="M63.537,89.809 L63.537,102.454 L55.707,102.454 L55.707,79.549 L62.862,79.549 L63.267,82.564 C64.016,81.484 64.992,80.614 66.192,79.954 C67.391,79.295 68.712,78.964 70.152,78.964 C72.641,78.964 74.636,79.774 76.137,81.394 C77.637,83.015 78.387,85.34 78.387,88.369 L78.387,102.454 L70.557,102.454 L70.557,89.269 C70.557,87.919 70.256,86.922 69.657,86.277 C69.056,85.632 68.217,85.309 67.137,85.309 C66.057,85.309 65.186,85.654 64.527,86.344 C63.867,87.035 63.537,88.189 63.537,89.809" id="Fill-3" fill="#009BFF" class='no-color-change'></path>
            <path d="M91.976,103.039 C89.996,103.039 88.143,102.724 86.418,102.094 C84.693,101.464 83.141,100.564 81.761,99.394 L85.091,94.984 C86.141,95.824 87.274,96.507 88.489,97.032 C89.704,97.557 90.896,97.819 92.066,97.819 C92.846,97.819 93.468,97.684 93.934,97.414 C94.398,97.144 94.631,96.739 94.631,96.199 C94.631,95.63 94.368,95.172 93.844,94.827 C93.318,94.482 92.381,94.144 91.031,93.814 L88.871,93.274 C84.581,92.135 82.436,89.84 82.436,86.39 C82.436,84.859 82.856,83.539 83.696,82.429 C84.536,81.32 85.691,80.465 87.161,79.864 C88.631,79.265 90.341,78.964 92.291,78.964 C94.211,78.964 96.018,79.265 97.714,79.864 C99.408,80.465 100.961,81.334 102.371,82.474 L98.951,86.974 C97.901,86.135 96.791,85.46 95.621,84.949 C94.451,84.439 93.356,84.184 92.336,84.184 C90.686,84.184 89.861,84.724 89.861,85.804 C89.861,86.284 90.109,86.675 90.604,86.974 C91.099,87.274 91.796,87.545 92.696,87.784 L95.621,88.594 C97.811,89.195 99.431,90.095 100.481,91.294 C101.531,92.494 102.056,93.92 102.056,95.569 C102.056,97.07 101.636,98.382 100.796,99.507 C99.956,100.632 98.778,101.502 97.264,102.117 C95.748,102.731 93.986,103.039 91.976,103.039" id="Fill-4" fill="#009BFF" class='no-color-change'></path>
            <path d="M112.496,95.029 C112.496,95.72 112.751,96.282 113.261,96.717 C113.771,97.152 114.431,97.369 115.241,97.369 C116.321,97.369 117.228,97.002 117.963,96.267 C118.698,95.532 119.066,94.609 119.066,93.499 L119.066,92.734 C118.256,92.584 117.401,92.509 116.501,92.509 C115.36,92.509 114.408,92.705 113.644,93.094 C112.878,93.484 112.496,94.129 112.496,95.029 Z M119.381,102.454 L118.976,99.439 C117.476,101.84 115.196,103.039 112.136,103.039 C110.786,103.039 109.563,102.747 108.469,102.162 C107.373,101.577 106.503,100.774 105.858,99.754 C105.213,98.735 104.891,97.549 104.891,96.199 C104.891,93.65 105.888,91.67 107.884,90.259 C109.878,88.849 112.511,88.144 115.781,88.144 C116.801,88.144 117.88,88.234 119.021,88.414 C118.901,87.274 118.413,86.412 117.558,85.827 C116.703,85.242 115.661,84.949 114.431,84.949 C113.351,84.949 112.263,85.152 111.168,85.556 C110.073,85.962 109.031,86.45 108.041,87.019 L105.386,81.979 C106.886,81.019 108.506,80.277 110.246,79.752 C111.985,79.227 113.726,78.964 115.466,78.964 C117.565,78.964 119.456,79.324 121.136,80.044 C122.816,80.765 124.136,81.86 125.096,83.329 C126.056,84.8 126.536,86.659 126.536,88.909 L126.536,102.454 L119.381,102.454 L119.381,102.454 Z" id="Fill-5" fill="#009BFF" class='no-color-change'></path>
            <path d="M142.241,103.039 C139.901,103.039 137.823,102.536 136.008,101.532 C134.193,100.527 132.761,99.124 131.711,97.324 C130.66,95.524 130.136,93.425 130.136,91.024 C130.136,88.624 130.66,86.524 131.711,84.724 C132.761,82.924 134.193,81.522 136.008,80.517 C137.823,79.512 139.901,79.009 142.241,79.009 C144.311,79.009 146.126,79.392 147.686,80.157 C149.245,80.922 150.626,82.144 151.826,83.824 L146.651,87.604 C146.23,86.974 145.683,86.457 145.008,86.052 C144.334,85.646 143.606,85.444 142.826,85.444 C141.476,85.444 140.351,85.947 139.451,86.952 C138.551,87.957 138.101,89.314 138.101,91.024 C138.101,92.734 138.551,94.092 139.451,95.096 C140.351,96.102 141.476,96.604 142.826,96.604 C143.606,96.604 144.334,96.402 145.008,95.997 C145.683,95.592 146.23,95.074 146.651,94.444 L151.826,98.224 C150.626,99.905 149.245,101.127 147.686,101.891 C146.126,102.657 144.311,103.039 142.241,103.039" id="Fill-6" fill="#009BFF" class='no-color-change'></path>
            <path d="M166.451,96.829 C167.83,96.829 168.933,96.297 169.758,95.232 C170.583,94.167 170.996,92.75 170.996,90.979 C170.996,89.209 170.583,87.8 169.758,86.749 C168.933,85.699 167.83,85.174 166.451,85.174 C165.07,85.174 163.968,85.699 163.143,86.749 C162.318,87.8 161.906,89.209 161.906,90.979 C161.906,92.75 162.318,94.167 163.143,95.232 C163.968,96.297 165.07,96.829 166.451,96.829 Z M166.451,103.039 C163.99,103.039 161.823,102.521 159.948,101.487 C158.073,100.452 156.603,99.034 155.538,97.234 C154.473,95.434 153.941,93.349 153.941,90.979 C153.941,88.61 154.473,86.524 155.538,84.724 C156.603,82.924 158.073,81.515 159.948,80.494 C161.823,79.474 163.99,78.964 166.451,78.964 C168.91,78.964 171.078,79.474 172.953,80.494 C174.828,81.515 176.298,82.924 177.363,84.724 C178.428,86.524 178.961,88.61 178.961,90.979 C178.961,93.349 178.428,95.434 177.363,97.234 C176.298,99.034 174.828,100.452 172.953,101.487 C171.078,102.521 168.91,103.039 166.451,103.039 L166.451,103.039 Z" id="Fill-7" fill="#009BFF" class='no-color-change'></path>
            <polygon id="Fill-8" fill="#009BFF" class='no-color-change' points="183.055 102.454 190.885 102.454 190.885 69.604 183.055 69.604"></polygon>
            <path d="M202.54,95.029 C202.54,95.72 202.794,96.282 203.305,96.717 C203.815,97.152 204.475,97.369 205.285,97.369 C206.365,97.369 207.272,97.002 208.007,96.267 C208.742,95.532 209.11,94.609 209.11,93.499 L209.11,92.734 C208.3,92.584 207.445,92.509 206.545,92.509 C205.404,92.509 204.452,92.705 203.688,93.094 C202.922,93.484 202.54,94.129 202.54,95.029 Z M209.425,102.454 L209.02,99.439 C207.52,101.84 205.24,103.039 202.18,103.039 C200.83,103.039 199.607,102.747 198.512,102.162 C197.417,101.577 196.547,100.774 195.902,99.754 C195.257,98.735 194.935,97.549 194.935,96.199 C194.935,93.65 195.932,91.67 197.928,90.259 C199.922,88.849 202.555,88.144 205.825,88.144 C206.845,88.144 207.924,88.234 209.065,88.414 C208.945,87.274 208.457,86.412 207.602,85.827 C206.747,85.242 205.705,84.949 204.475,84.949 C203.395,84.949 202.307,85.152 201.212,85.556 C200.117,85.962 199.075,86.45 198.085,87.019 L195.43,81.979 C196.93,81.019 198.55,80.277 200.29,79.752 C202.029,79.227 203.77,78.964 205.51,78.964 C207.609,78.964 209.5,79.324 211.18,80.044 C212.86,80.765 214.179,81.86 215.14,83.329 C216.1,84.8 216.58,86.659 216.58,88.909 L216.58,102.454 L209.425,102.454 L209.425,102.454 Z" id="Fill-9" fill="#009BFF" class='no-color-change'></path>
            <path d="M240.204,89.809 L240.204,102.454 L232.375,102.454 L232.375,79.549 L239.529,79.549 L239.934,82.564 C240.684,81.484 241.659,80.614 242.859,79.954 C244.059,79.295 245.379,78.964 246.819,78.964 C249.309,78.964 251.304,79.774 252.804,81.394 C254.304,83.015 255.054,85.34 255.054,88.369 L255.054,102.454 L247.224,102.454 L247.224,89.269 C247.224,87.919 246.924,86.922 246.324,86.277 C245.724,85.632 244.884,85.309 243.804,85.309 C242.724,85.309 241.854,85.654 241.194,86.344 C240.534,87.035 240.204,88.189 240.204,89.809" id="Fill-10" fill="#FFFFFE"></path>
            <path d="M270.984,84.634 C268.434,84.634 266.903,85.984 266.394,88.684 L275.124,88.684 C274.914,87.215 274.411,86.172 273.616,85.556 C272.821,84.942 271.943,84.634 270.984,84.634 Z M281.694,100.114 C280.553,100.924 279.106,101.615 277.351,102.184 C275.596,102.754 273.729,103.039 271.749,103.039 C269.019,103.039 266.686,102.536 264.751,101.532 C262.816,100.527 261.331,99.124 260.296,97.324 C259.261,95.524 258.744,93.454 258.744,91.114 C258.744,88.745 259.253,86.644 260.273,84.814 C261.293,82.985 262.704,81.552 264.504,80.517 C266.304,79.482 268.403,78.964 270.804,78.964 C273.144,78.964 275.206,79.467 276.991,80.471 C278.776,81.477 280.171,82.872 281.176,84.657 C282.181,86.442 282.684,88.534 282.684,90.934 C282.684,91.265 282.661,91.609 282.616,91.969 C282.571,92.329 282.519,92.705 282.459,93.094 L266.484,93.094 C267.204,95.734 269.168,97.054 272.379,97.054 C273.819,97.054 275.093,96.829 276.204,96.379 C277.313,95.929 278.244,95.479 278.994,95.029 L281.694,100.114 L281.694,100.114 Z" id="Fill-11" fill="#FFFFFE"></path>
            <polyline id="Fill-12" fill="#FFFFFE" points="305.994 102.454 302.304 88.549 298.659 102.454 290.559 102.454 284.619 79.549 292.628 79.549 295.014 94.309 298.883 79.549 305.769 79.549 309.773 94.354 312.204 79.549 320.034 79.549 314.093 102.454 305.994 102.454"></polyline>
            <path d="M331.958,103.039 C329.978,103.039 328.125,102.724 326.4,102.094 C324.675,101.464 323.123,100.564 321.743,99.394 L325.073,94.984 C326.123,95.824 327.255,96.507 328.47,97.032 C329.686,97.557 330.878,97.819 332.048,97.819 C332.828,97.819 333.45,97.684 333.916,97.414 C334.38,97.144 334.613,96.739 334.613,96.199 C334.613,95.63 334.35,95.172 333.825,94.827 C333.3,94.482 332.363,94.144 331.013,93.814 L328.853,93.274 C324.563,92.135 322.418,89.84 322.418,86.39 C322.418,84.859 322.838,83.539 323.678,82.429 C324.518,81.32 325.673,80.465 327.143,79.864 C328.612,79.265 330.322,78.964 332.273,78.964 C334.192,78.964 336,79.265 337.695,79.864 C339.39,80.465 340.942,81.334 342.353,82.474 L338.933,86.974 C337.882,86.135 336.773,85.46 335.603,84.949 C334.433,84.439 333.337,84.184 332.318,84.184 C330.668,84.184 329.843,84.724 329.843,85.804 C329.843,86.284 330.09,86.675 330.585,86.974 C331.081,87.274 331.778,87.545 332.678,87.784 L335.603,88.594 C337.793,89.195 339.413,90.095 340.463,91.294 C341.513,92.494 342.038,93.92 342.038,95.569 C342.038,97.07 341.617,98.382 340.778,99.507 C339.938,100.632 338.76,101.502 337.246,102.117 C335.73,102.731 333.967,103.039 331.958,103.039" id="Fill-13" fill="#FFFFFE"></path>
            <path d="M354.232,110.779 L352.747,104.389 C354.068,104.269 355.132,103.834 355.942,103.084 C356.752,102.335 357.157,101.284 357.157,99.934 L357.157,79.549 C358.418,79.819 359.692,79.954 360.982,79.954 C362.302,79.954 363.637,79.819 364.987,79.549 L364.987,99.529 C364.987,102.859 364.125,105.484 362.4,107.404 C360.674,109.324 357.952,110.449 354.232,110.779" id="Fill-14" fill="#FFFFFE"></path>
            <path d="M381.592,96.829 C382.972,96.829 384.074,96.297 384.899,95.232 C385.724,94.167 386.137,92.75 386.137,90.979 C386.137,89.209 385.724,87.8 384.899,86.749 C384.074,85.699 382.972,85.174 381.592,85.174 C380.212,85.174 379.109,85.699 378.285,86.749 C377.459,87.8 377.047,89.209 377.047,90.979 C377.047,92.75 377.459,94.167 378.285,95.232 C379.109,96.297 380.212,96.829 381.592,96.829 Z M381.592,103.039 C379.132,103.039 376.964,102.521 375.089,101.487 C373.214,100.452 371.744,99.034 370.68,97.234 C369.614,95.434 369.082,93.349 369.082,90.979 C369.082,88.61 369.614,86.524 370.68,84.724 C371.744,82.924 373.214,81.515 375.089,80.494 C376.964,79.474 379.132,78.964 381.592,78.964 C384.052,78.964 386.219,79.474 388.095,80.494 C389.969,81.515 391.439,82.924 392.504,84.724 C393.569,86.524 394.102,88.61 394.102,90.979 C394.102,93.349 393.569,95.434 392.504,97.234 C391.439,99.034 389.969,100.452 388.095,101.487 C386.219,102.521 384.052,103.039 381.592,103.039 L381.592,103.039 Z" id="Fill-15" fill="#FFFFFE"></path>
            <path d="M413.317,102.454 L412.912,99.439 C412.162,100.55 411.18,101.427 409.964,102.072 C408.75,102.717 407.437,103.039 406.027,103.039 C403.356,103.039 401.317,102.252 399.907,100.677 C398.497,99.101 397.792,96.829 397.792,93.859 L397.792,79.549 L405.622,79.549 L405.622,92.959 C405.622,95.45 406.762,96.694 409.042,96.694 C411.442,96.694 412.642,95.194 412.642,92.194 L412.642,79.549 L420.472,79.549 L420.472,102.454 L413.317,102.454" id="Fill-16" fill="#FFFFFE"></path>
            <path d="M433.792,93.589 L433.792,102.454 L425.961,102.454 L425.961,79.549 L433.116,79.549 L433.611,83.374 C434.091,82.144 434.878,81.146 435.974,80.382 C437.069,79.617 438.336,79.234 439.776,79.234 C440.586,79.234 441.201,79.34 441.622,79.549 L441.622,86.704 C441.291,86.585 440.924,86.495 440.519,86.434 C440.114,86.374 439.656,86.344 439.147,86.344 C437.586,86.344 436.304,86.922 435.299,88.077 C434.293,89.232 433.792,91.069 433.792,93.589" id="Fill-17" fill="#FFFFFE"></path>
            <path d="M453.231,89.809 L453.231,102.454 L445.401,102.454 L445.401,79.549 L452.556,79.549 L452.961,82.564 C453.711,81.484 454.686,80.614 455.886,79.954 C457.086,79.295 458.406,78.964 459.846,78.964 C462.336,78.964 464.331,79.774 465.831,81.394 C467.331,83.015 468.081,85.34 468.081,88.369 L468.081,102.454 L460.251,102.454 L460.251,89.269 C460.251,87.919 459.951,86.922 459.351,86.277 C458.751,85.632 457.911,85.309 456.831,85.309 C455.751,85.309 454.881,85.654 454.221,86.344 C453.561,87.035 453.231,88.189 453.231,89.809" id="Fill-18" fill="#FFFFFE"></path>
            <path d="M479.331,95.029 C479.331,95.72 479.585,96.282 480.095,96.717 C480.605,97.152 481.266,97.369 482.075,97.369 C483.155,97.369 484.063,97.002 484.798,96.267 C485.533,95.532 485.9,94.609 485.9,93.499 L485.9,92.734 C485.09,92.584 484.235,92.509 483.336,92.509 C482.195,92.509 481.243,92.705 480.478,93.094 C479.713,93.484 479.331,94.129 479.331,95.029 Z M486.215,102.454 L485.811,99.439 C484.31,101.84 482.03,103.039 478.97,103.039 C477.621,103.039 476.397,102.747 475.303,102.162 C474.208,101.577 473.338,100.774 472.693,99.754 C472.047,98.735 471.726,97.549 471.726,96.199 C471.726,93.65 472.723,91.67 474.718,90.259 C476.713,88.849 479.345,88.144 482.615,88.144 C483.635,88.144 484.715,88.234 485.856,88.414 C485.735,87.274 485.248,86.412 484.393,85.827 C483.538,85.242 482.495,84.949 481.266,84.949 C480.186,84.949 479.098,85.152 478.003,85.556 C476.907,85.962 475.865,86.45 474.876,87.019 L472.22,81.979 C473.72,81.019 475.34,80.277 477.081,79.752 C478.82,79.227 480.56,78.964 482.3,78.964 C484.4,78.964 486.29,79.324 487.97,80.044 C489.65,80.765 490.97,81.86 491.93,83.329 C492.89,84.8 493.371,86.659 493.371,88.909 L493.371,102.454 L486.215,102.454 L486.215,102.454 Z" id="Fill-19" fill="#FFFFFE"></path>
            <polygon id="Fill-20" fill="#FFFFFE" points="498.366 102.454 506.196 102.454 506.196 69.604 498.366 69.604"></polygon>
            <path d="M360.982,77.749 C359.692,77.749 358.589,77.292 357.675,76.377 C356.759,75.462 356.302,74.359 356.302,73.069 C356.302,71.78 356.759,70.677 357.675,69.762 C358.589,68.847 359.692,68.39 360.982,68.39 C362.272,68.39 363.375,68.847 364.29,69.762 C365.205,70.677 365.662,71.78 365.662,73.069 C365.662,74.359 365.205,75.462 364.29,76.377 C363.375,77.292 362.272,77.749 360.982,77.749" id="Fill-21" fill="#009BFF" class='no-color-change'></path>
        </g>
    </g>
</svg>
