<svg id="pensacoloa" xmlns="http://www.w3.org/2000/svg" xmlns:xlink="http://www.w3.org/1999/xlink" width="662" height="160" viewBox="0 0 662 160">
  <defs>
    <style>
      .cls-1 {
        fill: #000;
        filter: url(#filter);
      }

      .cls-1, .cls-2 {
        fill-rule: evenodd;
      }

      .cls-2 {
        filter: url(#filter-2);
      }
    </style>
    <filter id="filter" x="294" y="119.969" width="367.969" height="16" filterUnits="userSpaceOnUse">
      <feFlood result="flood" flood-color="#999"/>
      <feComposite result="composite" operator="in" in2="SourceGraphic"/>
      <feBlend result="blend" in2="SourceGraphic"/>
    </filter>
    <filter id="filter-2" x="0.5" y="25.813" width="587.406" height="107.781" filterUnits="userSpaceOnUse">
      <feFlood result="flood" flood-color="#000"/>
      <feComposite result="composite" operator="in" in2="SourceGraphic"/>
      <feBlend result="blend" in2="SourceGraphic"/>
    </filter>
  </defs>
  <path id="USAT_Network" data-name="USAT Network" class="cls-1" d="M293.989,120.273h4.489c3.156,0,5.267,1.865,5.267,4.741s-2.155,4.735-5.267,4.735h-2.29v5.925h-2.2v-15.4Zm4.267,7.659c2.112,0,3.244-1.163,3.244-2.918,0-1.736-1.132-2.919-3.244-2.919h-2.068v5.837h2.068Zm11.768-7.659h1.955l6.4,15.4h-2.358l-1.6-4.035h-6.911l-1.6,4.035H303.6S309.244,122.162,310.024,120.273Zm3.665,9.544-1.488-3.794c-0.222-.572-1.179-2.942-1.2-3.139h-0.043c-0.022.2-.955,2.5-1.2,3.139l-1.51,3.794h5.443Zm6.924-9.544h4.51c2.91,0,5.178,1.5,5.178,4.563a4.293,4.293,0,0,1-3.955,4.346l4.778,6.492h-2.579l-4.51-6.276h-1.223v6.276h-2.2v-15.4Zm4.267,7.351c2.043,0,3.2-1.077,3.2-2.764s-1.157-2.765-3.2-2.765h-2.068v5.529h2.068Zm11.522-5.486h-4.445v-1.865h11.089v1.865H338.6v13.536h-2.2V122.138Zm12.347,5.838a8.2,8.2,0,1,1,8.2,8A7.862,7.862,0,0,1,348.749,127.976Zm14.133,0a5.946,5.946,0,1,0-5.955,6.053A5.772,5.772,0,0,0,362.882,127.976Zm5.433-7.7h7.867v1.865h-5.668V127.1H376v1.865h-5.49v6.713h-2.2v-15.4Zm17.815,1.865h-4.444v-1.865h11.088v1.865H388.33v13.536h-2.2V122.138Zm8.953-1.865h2.2v6.318h8.178v-6.318h2.2v15.4h-2.2v-7.218h-8.178v7.218h-2.2v-15.4Zm16.631,0h8.49v1.846h-6.29v4.472h6.11v1.846h-6.11v5.395h6.422v1.842h-8.622v-15.4Zm16,10.092V120.273h2.221v9.433c0,2.679,1.157,4.323,3.756,4.323,2.622,0,3.78-1.644,3.78-4.323v-9.433h2.221v10.092c0,3.38-2.2,5.616-6,5.616C429.865,135.981,427.71,133.745,427.71,130.365Zm14.274,2.524,1.491-1.25a4.52,4.52,0,0,0,3.911,2.433c1.709,0,3.044-.918,3.044-2.611,0-1.817-1.534-2.433-3.446-3.178-1.956-.769-3.933-1.736-3.933-4.193,0-2.432,1.912-4.12,4.712-4.12a5.248,5.248,0,0,1,4.579,2.322l-1.491,1.25a3.552,3.552,0,0,0-3.088-1.668c-1.512,0-2.511.769-2.511,2.063,0,1.6,1.554,2.13,2.911,2.654,2.2,0.856,4.466,1.889,4.466,4.716,0,2.679-2,4.674-5.2,4.674A6.064,6.064,0,0,1,441.984,132.889Zm18.241-12.616h1.956l6.4,15.4h-2.357l-1.6-4.035h-6.912l-1.6,4.035H453.8S459.446,122.162,460.225,120.273Zm3.665,9.544-1.487-3.794c-0.222-.572-1.179-2.942-1.2-3.139h-0.044c-0.022.2-.955,2.5-1.2,3.139l-1.51,3.794h5.443Zm13.978-7.679h-4.445v-1.865h11.088v1.865h-4.444v13.536h-2.2V122.138Zm7.469,5.838a8.2,8.2,0,1,1,8.2,8A7.861,7.861,0,0,1,485.337,127.976Zm14.132,0a5.945,5.945,0,1,0-5.954,6.053A5.772,5.772,0,0,0,499.469,127.976Zm5.434-7.7h4.423c4.977,0,8.265,2.808,8.265,7.7,0,4.87-3.312,7.7-8.265,7.7H504.9v-15.4Zm2.2,13.534h2.046c3.643,0,6.176-1.9,6.176-5.831s-2.533-5.838-6.176-5.838H507.1v11.669Zm17.637-13.534H526.7l6.4,15.4h-2.357l-1.6-4.035h-6.912l-1.6,4.035h-2.311S523.96,122.162,524.739,120.273Zm3.666,9.544-1.489-3.794c-0.221-.572-1.178-2.942-1.2-3.139h-0.044c-0.022.2-.955,2.5-1.2,3.139l-1.51,3.794h5.444Zm9.084-.419-5.312-9.125h2.467l2.889,5.135a22.887,22.887,0,0,1,1.11,2.192h0.022a23.153,23.153,0,0,1,1.113-2.192l2.91-5.135h2.4l-5.309,9.125v6.276h-2.289V129.4Zm14.062-9.125h1.687l8.846,9.982c0.266,0.288,1.422,1.711,1.534,1.932l0.044-.023c-0.044-.217-0.044-2-0.044-2.39v-9.5h2.134v15.4h-1.713l-8.845-9.983c-0.265-.283-1.422-1.711-1.532-1.928l-0.021.02c0.021,0.221.043,2,.043,2.394v9.5h-2.133v-15.4Zm18.253,0h8.487v1.846H572v4.472h6.113v1.846H572v5.395h6.422v1.842H569.8v-15.4Zm15.37,1.865h-4.445v-1.865h11.089v1.865h-4.445v13.536h-2.2V122.138Zm8.477-1.865h2.334l3.2,9.15c0.112,0.351.867,2.63,0.889,2.981h0.046a30.445,30.445,0,0,1,.933-2.981l3.334-9.15h1.756l3.332,9.15c0.133,0.351.91,2.63,0.935,2.981h0.044c0.044-.351.8-2.63,0.91-2.981l3.179-9.15h2.243l-5.49,15.4h-1.688l-3.6-9.607a25.578,25.578,0,0,1-.758-2.5h-0.044a25.693,25.693,0,0,1-.776,2.5l-3.578,9.607h-1.69Zm24.119,7.7a8.2,8.2,0,1,1,8.2,8A7.861,7.861,0,0,1,617.77,127.976Zm14.132,0a5.946,5.946,0,1,0-5.955,6.053A5.772,5.772,0,0,0,631.9,127.976Zm5.433-7.7h4.511c2.913,0,5.177,1.5,5.177,4.563a4.293,4.293,0,0,1-3.955,4.346l4.779,6.492h-2.579l-4.511-6.276h-1.222v6.276h-2.2v-15.4Zm4.267,7.351c2.044,0,3.2-1.077,3.2-2.764s-1.156-2.765-3.2-2.765h-2.067v5.529H641.6Zm8.736-7.351h2.2v7.154l6.444-7.154h2.666l-6.687,7.351,7,8.05h-2.754l-6.668-7.785v7.785h-2.2v-15.4Z"/>
  <path id="Pensacola_logo" data-name="Pensacola logo" class="cls-2" d="M92.01,31.727h4.82c1.957,0,3.472.7,3.472,2.914,0,2.354-1.442,3.133-3.571,3.133H92.01V31.727h0Zm0,8.062h5.528a4.872,4.872,0,0,0,5.21-5.172c0-2.818-1.955-4.905-5.21-4.905h-7.9V47.143h2.37V39.789h0Zm27.639,5.268h-10.59V39.229h9.612V37.141h-9.612V31.8h10.419V29.712H106.687V47.143h12.962V45.057h0Zm15.484-1.263h-0.051L126.3,29.712h-2.813V47.143h2.3V33.063h0.048l8.929,14.08h2.665V29.712h-2.3V43.794h0Zm19.57-8.984c-0.1-1.917-.71-5.559-6.847-5.559-4.258,0-6.042,2.669-6.042,5.39,0,3.034,2.59,3.836,3.742,4.1l3.595,0.824c2.887,0.681,3.742,1.264,3.742,3.083,0,2.5-2.884,2.938-4.6,2.938-2.25,0-4.842-.923-4.842-4.078h-2.224a5.342,5.342,0,0,0,1.783,4.417c0.785,0.7,2.056,1.677,5.31,1.677,3.007,0,6.871-1.142,6.871-5.27,0-2.768-1.712-4.127-3.987-4.661l-5.013-1.142c-1.027-.241-2.078-0.727-2.078-2.208,0-2.647,2.519-3.06,4.008-3.06,1.982,0,4.234.851,4.357,3.545H154.7Zm14.041,7.259,1.735,5.073h2.592l-6.358-17.431h-2.691l-6.6,17.431h2.445L161.7,42.07h7.046Zm-6.311-2.087,2.812-7.671h0.048l2.593,7.671h-5.453Zm28.792-5.026c-0.342-2.914-2.69-5.7-7.214-5.7-5.114,0-8.2,3.714-8.2,9.079,0,6.7,3.916,9.276,7.9,9.276,1.319,0,6.7-.294,7.68-6.874h-2.3c-0.81,4.056-3.475,4.785-5.017,4.785-4.352,0-5.821-3.157-5.821-7.259,0-4.588,2.569-6.921,5.75-6.921,1.685,0,4.253.559,4.914,3.618h2.3Zm17.542,3.473c0,4.1-2.3,7.089-6.115,7.089s-6.117-2.985-6.117-7.089,2.3-7.091,6.117-7.091,6.115,2.988,6.115,7.091h0Zm2.444,0c0-3.763-2.006-9.177-8.559-9.177s-8.56,5.414-8.56,9.177,2,9.178,8.56,9.178,8.559-5.416,8.559-9.178h0Zm5.916-8.716h-2.371V47.143H226.03V45.057h-8.9V29.712h0ZM240.239,42.07l1.735,5.073h2.593l-6.361-17.431h-2.69l-6.6,17.431h2.445l1.835-5.073h7.046Zm-6.311-2.087,2.811-7.671h0.049l2.593,7.671h-5.453ZM72.112,44.856c0-6.636,2.313-11.741,10.928-12.25V30.435H57.584v2.171c7.97,1.786,9.513,5.23,9.513,14.293V80.461L23.128,30.435H0.5v2.171c3.086,0.637,4.241,1.53,10.028,7.4V90.031c0.127,7.275-1.8,11.615-9.9,12.889v2.172H26.6V102.92c-8.615-1.4-11.057-3.7-11.057-11.866V45.368l54.128,60.616h2.443V44.856h0Zm54.044,31.907c-1.8-13.275-11.7-21.7-25.455-21.7-15.3,0-27,11.36-27,26.289,0,14.678,11.315,25.653,26.486,25.653,11.7,0,21.6-6.384,25.97-16.719h-2.185c-4.63,7.018-10.287,10.465-17.358,10.465-9,0-18-8.167-17.228-23.99h36.771ZM89.386,73.827c0.386-9.19,4.371-15.316,10.285-15.316s10.285,6.382,10.8,15.316H89.386Zm111.239-3.062c2.957-6.637,6.43-10.209,11.7-11.616V56.98H192.651v2.169c5.914,0.383,6.686,5.871,3.6,13.147L189.437,87.99l-9.386-19.906c-2.185-4.722-.9-7.019,4.115-8.934V56.98H154.6v2.169c4.244,0.894,6.556,2.552,8.485,6L152.926,87.99l-8.744-18.5c-2.186-4.593-1.8-9.826,4.37-10.338V56.98h-31.5v2.169c5.144,0,7.973,2.426,11.446,9.955l17.485,37.9h2.568l16.329-37.9,17.355,37.9h2.572l15.816-36.242h0Zm43.9-15.571h-2.183a5.264,5.264,0,0,1-2.958,1.278c-0.9,0-2.956-.385-5.4-0.766-2.441-.255-5.271-0.64-7.456-0.64-10.672,0-16.97,7.02-16.97,14.676,0,18.123,28.541,14.036,28.541,26.8,0,3.829-3.984,7.019-8.614,7.019-6.943,0-12.726-4.978-17.613-15.187h-2.186v18.634h2.186a6.459,6.459,0,0,1,4.5-1.663,38.912,38.912,0,0,1,5.655.767,35.08,35.08,0,0,0,7.973.9c7.843,0,17.485-6.254,17.485-16.593,0-19.9-28.156-16.332-28.156-26.54,0-3.192,3.6-5.362,8.1-5.362,6.427,0,11.957,4.339,14.915,11.615h2.183V55.193h0ZM282.55,44.27c0-7.786.514-9.7,9.386-12V30.1H256.323v2.171c7.843,1.658,9.641,3.573,9.641,10.719v64.446c0,12.25-2.7,17.741-11.056,17.741-5.015,0-8.615-2.3-11.186-7.149h-2.185c1.158,9.318,9.127,15.57,19.671,15.57,14.656,0,21.342-9.825,21.342-23.224V44.27h0Zm62.2,36.37c0-11.869-9.255-25.907-30.215-25.907-23.014,0-30.342,15.952-30.342,25.907,0,12.886,10.157,26.033,30.342,26.033S344.755,93.4,344.755,80.64h0Zm-16.072,0c0,14.035-5.143,22.586-14.143,22.586-8.742,0-14.271-8.551-14.271-21.694,0-13.526,4.113-23.353,14.271-23.353,9.517,0,14.143,8.934,14.143,22.461h0ZM346.561,92c0,9.187,6.04,14.676,16.066,14.676,7.848,0,13.889-3.573,19.291-11.742h0.253l0.054,9.431,22.191,0.4V102.59c-6.427-1.658-7.716-3.19-7.716-9.574V54.733h-2.183l-19.929,1.914v2.169c5.014,0.895,7.583,3.192,7.583,7.149V89.953c-4.243,6.637-7.2,8.682-12.082,8.682-5.274,0-9-2.68-9-8.424V54.733H358.9l-19.931,1.914v2.169c5.787,1.023,7.59,2.936,7.59,8.3V92h0ZM449.034,58.817a11.32,11.32,0,0,0-8.616-4.083c-6.041,0-11.311,4.85-16.071,15.317h-0.255V54.733h-2.187L400.69,56.648v2.169c6.173,0.512,8.873,3.319,8.873,9.446V93.656c0,5.486-1.675,7.4-8.1,8.934v2.167h30.856V102.59c-7.068-1.406-8.225-3.19-8.225-8.934V74c3.726-5.1,6.427-6.891,10.8-6.891,3.345,0,6.687,2.17,10.93,6.254l3.215-14.551h0Zm42.392,35.1c0,5.1-1.928,7.4-7.712,8.676v2.167l33.538-.016-3.708-2.168c-6.691-1.657-7.59-4.195-7.59-9.3V72.218c0-12.634-9.64-17.484-16.969-17.484-8.1,0-14.274,4.85-18.386,11.743h-0.256V54.862h-2.187l-21.082,1.786v2.169c6.426,0.895,8.741,2.936,8.741,8.552V94.3c0,4.847-1.928,6.888-7.585,8.294v2.167h29.312V102.59c-6.3-1.914-7.2-4.212-7.2-9.191V70.942c3.086-5.614,7.2-8.423,12.082-8.423,5.656,0,9,4.212,9,11.486v19.91h0Zm73.332,0.047c0,6.122-2.056,8.421-9.127,9.569V105.7H587.9v-2.171c-7.2-1.659-8.614-3.191-8.614-9.569V25.811H577.1l-21.471,1.4v2.171c6.943,0.381,9.127,2.807,9.127,9.572v55h0Zm-9.829-21.106c0-13.116-10.8-17.783-21.1-17.783-11.178,0-18.931,5.927-21.473,16.142h1.911c3.047-5.3,7.874-7.943,14.353-7.943,8.643,0,11.944,4.034,11.944,12.483-11.689,4.289-30.747,5.3-30.747,18.159,0,6.94,6.48,12.489,14.358,12.489a20.681,20.681,0,0,0,15.116-5.675l1.149-1.01c2.412,4.792,5.717,6.685,11.56,6.685,6.989,0,12.981-2.155,13.491-8.082l-0.728-.84c-0.509,2.9-4.883,4.126-6.918,4.126-2.157,0-2.92-1.889-2.92-6.305V72.856h0ZM540.444,96.311c-3.306,3.281-6.1,4.917-9.022,4.917-3.937,0-6.607-3.4-6.607-8.572,0-6.431,3.687-9.334,15.629-14.378V96.311h0Z"/>
</svg>
