<svg xmlns="http://www.w3.org/2000/svg" width="349" height="55" viewBox="0 0 349 55">
  <g fill="none" fill-rule="evenodd">
    <path class='no-color-change' fill="#009BFF" d="M54.176,27.824 C54.176,42.736 42.089,54.824 27.176,54.824 C12.263,54.824 0.176,42.736 0.176,27.824 C0.176,12.911 12.263,0.824 27.176,0.824 C42.089,0.824 54.176,12.911 54.176,27.824"/>
    <path fill="#404040" d="M69.536 21.55C70.517 21.55 71.273 21.262 71.806 20.685 72.339 20.107 72.606 19.285 72.606 18.219L72.606 7.439 77.484 7.439 77.484 18.193C77.484 20.553 76.793 22.381 75.412 23.674 74.031 24.969 72.072 25.615 69.536 25.615 67.001 25.615 65.042 24.969 63.661 23.674 62.28 22.381 61.589 20.553 61.589 18.193L61.589 7.439 66.468 7.439 66.468 18.219C66.468 19.285 66.735 20.107 67.269 20.685 67.802 21.262 68.558 21.55 69.536 21.55M87.241 25.615C85.79 25.615 84.4 25.366 83.072 24.867 81.741 24.369 80.587 23.657 79.609 22.73L81.97 19.767C82.669 20.396 83.455 20.891 84.329 21.248 85.204 21.607 86.165 21.786 87.215 21.786 87.914 21.786 88.465 21.664 88.867 21.419 89.269 21.174 89.47 20.807 89.47 20.317 89.47 19.846 89.235 19.465 88.763 19.176 88.29 18.888 87.46 18.586 86.271 18.271L85.169 17.982C83.56 17.562 82.337 16.92 81.497 16.055 80.657 15.189 80.237 14.092 80.237 12.764 80.237 11.627 80.535 10.631 81.13 9.773 81.724 8.917 82.546 8.256 83.595 7.793 84.645 7.33 85.86 7.098 87.241 7.098 88.605 7.098 89.907 7.348 91.15 7.846 92.391 8.344 93.492 9.021 94.454 9.879L92.015 12.947C91.386 12.405 90.646 11.934 89.798 11.531 88.95 11.129 88.107 10.928 87.267 10.928 86.568 10.928 86.03 11.045 85.655 11.281 85.279 11.518 85.091 11.863 85.091 12.317 85.091 12.737 85.287 13.1 85.681 13.406 86.073 13.712 86.751 13.996 87.713 14.258L89.051 14.625C90.974 15.15 92.333 15.867 93.13 16.776 93.925 17.685 94.323 18.744 94.323 19.95 94.323 21.087 94.03 22.079 93.445 22.927 92.859 23.775 92.032 24.435 90.966 24.907 89.9 25.379 88.657 25.615 87.241 25.615M102.48 18.324L106.702 18.324 104.605 12.082 102.48 18.324zM109.064 25.274L107.935 21.943 101.247 21.943 100.119 25.274 95.293 25.274 101.823 7.439 107.489 7.439 114.021 25.274 109.064 25.274 109.064 25.274z"/>
    <polyline fill="#404040" points="125.22 25.274 125.22 11.373 119.921 11.373 119.921 7.439 135.396 7.439 135.396 11.373 130.098 11.373 130.098 25.274 125.22 25.274"/>
    <path fill="#404040" d="M145.599 21.576C146.455 21.576 147.202 21.357 147.841 20.92 148.48 20.483 148.982 19.876 149.349 19.098 149.716 18.32 149.9 17.415 149.9 16.383 149.9 15.352 149.716 14.441 149.349 13.655 148.982 12.868 148.48 12.252 147.841 11.807 147.202 11.36 146.455 11.137 145.599 11.137 144.741 11.137 143.994 11.36 143.357 11.807 142.718 12.252 142.215 12.868 141.848 13.655 141.481 14.441 141.297 15.352 141.297 16.383 141.297 17.415 141.481 18.32 141.848 19.098 142.215 19.876 142.718 20.483 143.357 20.92 143.994 21.357 144.741 21.576 145.599 21.576zM145.599 25.615C143.816 25.615 142.228 25.222 140.838 24.435 139.448 23.648 138.351 22.56 137.546 21.17 136.741 19.779 136.34 18.184 136.34 16.383 136.34 15.019 136.568 13.773 137.022 12.645 137.476 11.518 138.123 10.539 138.962 9.707 139.802 8.877 140.78 8.234 141.901 7.779 143.019 7.326 144.252 7.098 145.599 7.098 146.945 7.098 148.177 7.326 149.297 7.779 150.415 8.234 151.396 8.877 152.235 9.707 153.073 10.539 153.72 11.518 154.175 12.645 154.63 13.773 154.857 15.019 154.857 16.383 154.857 18.184 154.454 19.779 153.651 21.17 152.847 22.56 151.749 23.648 150.359 24.435 148.969 25.222 147.382 25.615 145.599 25.615L145.599 25.615zM162.464 21.419L164.693 21.419C165.969 21.419 166.979 20.955 167.722 20.029 168.466 19.102 168.837 17.878 168.837 16.357 168.837 14.836 168.466 13.611 167.722 12.685 166.979 11.758 165.969 11.295 164.693 11.295L162.464 11.295 162.464 21.419zM157.663 25.274L157.663 7.439 164.693 7.439C166.458 7.439 168.019 7.819 169.374 8.58 170.73 9.34 171.792 10.39 172.562 11.727 173.331 13.064 173.716 14.608 173.716 16.357 173.716 18.105 173.331 19.648 172.562 20.986 171.792 22.324 170.73 23.373 169.374 24.133 168.019 24.894 166.458 25.274 164.693 25.274L157.663 25.274 157.663 25.274zM181.531 18.324L185.755 18.324 183.655 12.082 181.531 18.324zM188.114 25.274L186.988 21.943 180.299 21.943 179.171 25.274 174.345 25.274 180.876 7.439 186.541 7.439 193.072 25.274 188.114 25.274 188.114 25.274z"/>
    <polyline fill="#404040" points="202.515 18.849 202.515 25.274 197.558 25.274 197.558 18.849 191.236 7.439 196.744 7.439 200.049 14.52 203.327 7.439 208.835 7.439 202.515 18.849"/>
    <polyline fill="#404040" points="227.798 25.274 220.796 14.992 220.796 25.274 216.31 25.274 216.31 7.439 220.769 7.439 227.745 17.904 227.745 7.439 232.257 7.439 232.257 25.274 227.798 25.274"/>
    <polyline fill="#404040" points="236.191 25.274 236.191 7.439 248.493 7.439 248.493 11.348 240.966 11.348 240.966 14.363 247.654 14.363 247.654 18.271 240.966 18.271 240.966 21.366 248.913 21.366 248.913 25.274 236.191 25.274"/>
    <polyline fill="#404040" points="255.915 25.274 255.915 11.373 250.616 11.373 250.616 7.439 266.091 7.439 266.091 11.373 260.794 11.373 260.794 25.274 255.915 25.274"/>
    <polyline fill="#404040" points="282.562 25.274 279.677 13.682 276.792 25.274 271.624 25.274 267.193 7.439 271.913 7.439 274.614 19.609 277.605 7.439 281.775 7.439 284.739 19.53 287.519 7.439 292.161 7.439 287.73 25.274 282.562 25.274"/>
    <path fill="#404040" d="M302.548 21.576C303.405 21.576 304.152 21.357 304.79 20.92 305.429 20.483 305.931 19.876 306.298 19.098 306.665 18.32 306.851 17.415 306.851 16.383 306.851 15.352 306.665 14.441 306.298 13.655 305.931 12.868 305.429 12.252 304.79 11.807 304.152 11.36 303.405 11.137 302.548 11.137 301.691 11.137 300.945 11.36 300.306 11.807 299.667 12.252 299.165 12.868 298.798 13.655 298.431 14.441 298.247 15.352 298.247 16.383 298.247 17.415 298.431 18.32 298.798 19.098 299.165 19.876 299.667 20.483 300.306 20.92 300.945 21.357 301.691 21.576 302.548 21.576zM302.548 25.615C300.765 25.615 299.179 25.222 297.788 24.435 296.398 23.648 295.3 22.56 294.495 21.17 293.693 19.779 293.29 18.184 293.29 16.383 293.29 15.019 293.517 13.773 293.972 12.645 294.427 11.518 295.073 10.539 295.913 9.707 296.751 8.877 297.732 8.234 298.851 7.779 299.968 7.326 301.202 7.098 302.548 7.098 303.894 7.098 305.128 7.326 306.247 7.779 307.364 8.234 308.345 8.877 309.185 9.707 310.023 10.539 310.671 11.518 311.124 12.645 311.579 13.773 311.808 15.019 311.808 16.383 311.808 18.184 311.405 19.779 310.601 21.17 309.796 22.56 308.698 23.648 307.31 24.435 305.919 25.222 304.331 25.615 302.548 25.615L302.548 25.615zM319.388 15.648L322.011 15.648C322.761 15.648 323.357 15.451 323.794 15.059 324.23 14.665 324.448 14.127 324.448 13.445 324.448 12.799 324.23 12.278 323.794 11.885 323.357 11.491 322.761 11.295 322.011 11.295L319.388 11.295 319.388 15.648zM319.388 19.347L319.388 25.274 314.665 25.274 314.665 7.439 322.534 7.439C324.632 7.439 326.294 7.977 327.519 9.053 328.741 10.127 329.355 11.592 329.355 13.445 329.355 14.652 329.083 15.692 328.54 16.566 327.999 17.441 327.238 18.123 326.259 18.612L329.905 25.274 324.712 25.274 321.747 19.347 319.388 19.347 319.388 19.347z"/>
    <polyline fill="#404040" points="343.044 25.274 337.38 16.555 337.38 25.274 332.527 25.274 332.527 7.439 337.38 7.439 337.38 15.268 343.255 7.439 348.868 7.439 342.259 15.635 348.738 25.274 343.044 25.274"/>
    <path class='no-color-change' fill="#009BFF" d="M66.31,38.449 L68.671,38.449 C69.422,38.449 70.017,38.253 70.454,37.859 C70.891,37.466 71.111,36.945 71.111,36.299 C71.111,35.652 70.891,35.132 70.454,34.738 C70.017,34.345 69.422,34.148 68.671,34.148 L66.31,34.148 L66.31,38.449 Z M61.589,48.128 L61.589,30.293 L69.143,30.293 C71.241,30.293 72.902,30.83 74.126,31.906 C75.35,32.98 75.962,34.445 75.962,36.299 C75.962,37.506 75.687,38.551 75.136,39.434 C74.585,40.316 73.812,40.998 72.815,41.478 C71.818,41.96 70.628,42.2 69.247,42.2 L66.31,42.2 L66.31,48.128 L61.589,48.128 L61.589,48.128 Z"/>
    <polyline class='no-color-change' fill="#009BFF" points="78.663 48.128 78.663 30.293 90.964 30.293 90.964 34.201 83.437 34.201 83.437 37.217 90.125 37.217 90.125 41.125 83.437 41.125 83.437 44.22 91.384 44.22 91.384 48.128 78.663 48.128"/>
    <polyline class='no-color-change' fill="#009BFF" points="105.941 48.128 98.938 37.846 98.938 48.128 94.452 48.128 94.452 30.293 98.911 30.293 105.888 40.758 105.888 30.293 110.4 30.293 110.4 48.128 105.941 48.128"/>
    <path class='no-color-change' fill="#009BFF" d="M120.629 48.469C119.177 48.469 117.787 48.22 116.458 47.721 115.13 47.223 113.976 46.511 112.996 45.584L115.357 42.62C116.056 43.25 116.843 43.744 117.718 44.102 118.591 44.461 119.554 44.64 120.603 44.64 121.302 44.64 121.853 44.518 122.255 44.272 122.657 44.027 122.859 43.66 122.859 43.171 122.859 42.699 122.622 42.318 122.15 42.029 121.678 41.741 120.847 41.439 119.658 41.125L118.557 40.836C116.949 40.416 115.724 39.773 114.885 38.908 114.046 38.043 113.626 36.945 113.626 35.617 113.626 34.48 113.923 33.484 114.518 32.627 115.113 31.77 115.934 31.109 116.984 30.646 118.032 30.184 119.247 29.951 120.629 29.951 121.993 29.951 123.295 30.201 124.536 30.699 125.779 31.197 126.88 31.875 127.842 32.732L125.403 35.801C124.773 35.259 124.034 34.787 123.187 34.385 122.338 33.982 121.494 33.781 120.656 33.781 119.956 33.781 119.417 33.898 119.042 34.135 118.665 34.371 118.478 34.717 118.478 35.171 118.478 35.591 118.675 35.953 119.068 36.26 119.462 36.565 120.14 36.85 121.101 37.111L122.439 37.478C124.363 38.004 125.722 38.721 126.517 39.63 127.313 40.539 127.71 41.598 127.71 42.804 127.71 43.94 127.417 44.933 126.831 45.78 126.245 46.629 125.419 47.289 124.353 47.761 123.286 48.232 122.045 48.469 120.629 48.469M135.71 41.178L139.933 41.178 137.835 34.935 135.71 41.178zM142.294 48.128L141.165 44.797 134.478 44.797 133.35 48.128 128.524 48.128 135.054 30.293 140.72 30.293 147.251 48.128 142.294 48.128 142.294 48.128zM157.218 48.469C155.4 48.469 153.804 48.076 152.431 47.289 151.058 46.502 149.983 45.413 149.204 44.023 148.427 42.633 148.038 41.019 148.038 39.184 148.038 37.348 148.427 35.739 149.204 34.357 149.983 32.977 151.058 31.896 152.431 31.119 153.804 30.341 155.4 29.951 157.218 29.951 158.756 29.951 160.142 30.262 161.374 30.883 162.608 31.504 163.661 32.4 164.535 33.571L160.68 35.853C160.225 35.275 159.714 34.821 159.146 34.489 158.577 34.157 157.917 33.99 157.165 33.99 155.923 33.99 154.918 34.459 154.15 35.394 153.379 36.33 152.995 37.594 152.995 39.184 152.995 40.775 153.379 42.047 154.15 43 154.918 43.953 155.923 44.43 157.165 44.43 157.935 44.43 158.616 44.242 159.211 43.865 159.806 43.49 160.304 43.049 160.706 42.541L164.535 44.823C163.679 46.012 162.624 46.918 161.374 47.537 160.124 48.158 158.74 48.469 157.218 48.469M175.001 44.43C175.857 44.43 176.605 44.211 177.243 43.773 177.881 43.337 178.384 42.729 178.751 41.951 179.118 41.174 179.302 40.268 179.302 39.236 179.302 38.205 179.118 37.295 178.751 36.509 178.384 35.722 177.881 35.105 177.243 34.66 176.605 34.214 175.857 33.99 175.001 33.99 174.144 33.99 173.396 34.214 172.758 34.66 172.119 35.105 171.616 35.722 171.249 36.509 170.882 37.295 170.699 38.205 170.699 39.236 170.699 40.268 170.882 41.174 171.249 41.951 171.616 42.729 172.119 43.337 172.758 43.773 173.396 44.211 174.144 44.43 175.001 44.43zM175.001 48.469C173.217 48.469 171.63 48.076 170.24 47.289 168.85 46.502 167.752 45.413 166.949 44.023 166.144 42.633 165.741 41.037 165.741 39.236 165.741 37.873 165.969 36.627 166.423 35.499 166.878 34.371 167.525 33.393 168.365 32.56 169.204 31.73 170.183 31.088 171.302 30.633 172.421 30.18 173.654 29.951 175.001 29.951 176.347 29.951 177.579 30.18 178.699 30.633 179.818 31.088 180.797 31.73 181.636 32.56 182.476 33.393 183.122 34.371 183.577 35.499 184.032 36.627 184.259 37.873 184.259 39.236 184.259 41.037 183.857 42.633 183.052 44.023 182.248 45.413 181.152 46.502 179.761 47.289 178.37 48.076 176.784 48.469 175.001 48.469L175.001 48.469z"/>
    <polyline class='no-color-change' fill="#009BFF" points="192.05 44.193 199.472 44.193 199.472 48.128 187.171 48.128 187.171 30.293 192.05 30.293 192.05 44.193"/>
    <path class='no-color-change' fill="#009BFF" d="M207.891,41.178 L212.115,41.178 L210.015,34.935 L207.891,41.178 Z M214.474,48.128 L213.347,44.797 L206.658,44.797 L205.531,48.128 L200.704,48.128 L207.236,30.293 L212.901,30.293 L219.433,48.128 L214.474,48.128 L214.474,48.128 Z"/>
  </g>
</svg>
