<svg xmlns="http://www.w3.org/2000/svg" width="507" height="47" viewBox="0 0 507 47">
  <g fill="none" fill-rule="evenodd">
    <path fill="#FFFFFF" d="M369.991 43.721L371.095 43.721C371.458 43.721 371.744 43.632 371.955 43.453 372.166 43.275 372.272 43.031 372.272 42.723 372.272 42.414 372.166 42.171 371.955 41.992 371.744 41.814 371.458 41.725 371.095 41.725L369.991 41.725 369.991 43.721zM369.171 46.554L369.171 41.035 371.095 41.035C371.712 41.035 372.202 41.186 372.564 41.489 372.927 41.792 373.108 42.203 373.108 42.723 373.108 43.237 372.927 43.644 372.564 43.945 372.202 44.245 371.712 44.395 371.095 44.395L369.991 44.395 369.991 46.554 369.171 46.554zM374.764 44.476L376.777 44.476 375.77 41.887 374.764 44.476zM377.58 46.554L377.045 45.166 374.496 45.166 373.96 46.554 373.132 46.554 375.34 41.035 376.225 41.035 378.424 46.554 377.58 46.554zM380.161 43.64L381.29 43.64C381.641 43.64 381.921 43.554 382.129 43.38 382.338 43.207 382.442 42.975 382.442 42.682 382.442 42.39 382.338 42.158 382.129 41.984 381.921 41.811 381.641 41.725 381.29 41.725L380.161 41.725 380.161 43.64zM380.161 44.314L380.161 46.554 379.341 46.554 379.341 41.035 381.29 41.035C381.901 41.035 382.385 41.182 382.742 41.477 383.099 41.772 383.278 42.174 383.278 42.682 383.278 43.067 383.17 43.391 382.953 43.656 382.737 43.921 382.439 44.108 382.061 44.216L383.4 46.554 382.466 46.554 381.208 44.314 380.161 44.314z"/>
    <polyline fill="#FFFFFF" points="385.632 46.554 385.632 41.725 383.773 41.725 383.773 41.035 388.31 41.035 388.31 41.725 386.452 41.725 386.452 46.554 385.632 46.554"/>
    <path fill="#FFFFFF" d="M393.578,45.929 C393.935,45.929 394.253,45.839 394.532,45.657 C394.81,45.476 395.028,45.226 395.185,44.906 C395.342,44.587 395.42,44.216 395.42,43.794 C395.42,43.372 395.342,43.001 395.185,42.682 C395.028,42.363 394.81,42.113 394.532,41.931 C394.253,41.75 393.935,41.659 393.578,41.659 C393.221,41.659 392.904,41.75 392.628,41.931 C392.352,42.113 392.136,42.363 391.979,42.682 C391.822,43.001 391.743,43.372 391.743,43.794 C391.743,44.216 391.822,44.587 391.979,44.906 C392.136,45.226 392.352,45.476 392.628,45.657 C392.904,45.839 393.221,45.929 393.578,45.929 Z M393.578,46.643 C393.058,46.643 392.598,46.521 392.198,46.278 C391.797,46.034 391.482,45.699 391.252,45.271 C391.022,44.844 390.908,44.352 390.908,43.794 C390.908,43.237 391.022,42.745 391.252,42.317 C391.482,41.89 391.797,41.554 392.198,41.311 C392.598,41.067 393.058,40.945 393.578,40.945 C394.097,40.945 394.559,41.067 394.962,41.311 C395.365,41.554 395.681,41.89 395.911,42.317 C396.141,42.745 396.256,43.237 396.256,43.794 C396.256,44.352 396.141,44.844 395.911,45.271 C395.681,45.699 395.365,46.034 394.962,46.278 C394.559,46.521 394.097,46.643 393.578,46.643 Z"/>
    <polyline fill="#FFFFFF" points="398.229 46.554 397.409 46.554 397.409 41.035 400.842 41.035 400.842 41.725 398.229 41.725 398.229 43.591 400.445 43.591 400.445 44.281 398.229 44.281 398.229 46.554"/>
    <polyline fill="#FFFFFF" points="405.12 46.554 405.12 41.725 403.261 41.725 403.261 41.035 407.798 41.035 407.798 41.725 405.939 41.725 405.939 46.554 405.12 46.554"/>
    <polyline fill="#FFFFFF" points="408.74 46.554 408.74 41.035 409.56 41.035 409.56 43.397 412.409 43.397 412.409 41.035 413.229 41.035 413.229 46.554 412.409 46.554 412.409 44.103 409.56 44.103 409.56 46.554 408.74 46.554"/>
    <polyline fill="#FFFFFF" points="414.673 46.554 414.673 41.035 418.212 41.035 418.212 41.725 415.493 41.725 415.493 43.429 417.887 43.429 417.887 44.119 415.493 44.119 415.493 45.864 418.277 45.864 418.277 46.554 414.673 46.554"/>
    <path fill="#FFFFFF" d="M423.455 45.929C423.904 45.929 424.257 45.794 424.514 45.523 424.771 45.252 424.9 44.887 424.9 44.427L424.9 41.035 425.72 41.035 425.72 44.436C425.72 45.123 425.518 45.663 425.115 46.055 424.712 46.447 424.159 46.643 423.455 46.643 422.752 46.643 422.2 46.447 421.799 46.055 421.399 45.663 421.199 45.123 421.199 44.436L421.199 41.035 422.018 41.035 422.018 44.427C422.018 44.887 422.147 45.252 422.404 45.523 422.661 45.794 423.011 45.929 423.455 45.929M428.78 46.643C428.363 46.643 427.965 46.57 427.586 46.424 427.208 46.278 426.902 46.083 426.669 45.84L427.132 45.296C427.348 45.496 427.604 45.653 427.899 45.767 428.194 45.88 428.487 45.937 428.78 45.937 429.137 45.937 429.425 45.868 429.644 45.73 429.863 45.592 429.973 45.401 429.973 45.158 429.973 44.936 429.894 44.749 429.737 44.598 429.58 44.446 429.313 44.319 428.934 44.216L428.171 44.013C427.678 43.884 427.32 43.699 427.095 43.462 426.871 43.223 426.758 42.912 426.758 42.528 426.758 42.214 426.842 41.938 427.01 41.7 427.178 41.462 427.409 41.277 427.704 41.144 427.999 41.012 428.333 40.945 428.706 40.945 429.102 40.945 429.472 41.02 429.819 41.168 430.165 41.318 430.47 41.525 430.736 41.79L430.241 42.325C430.008 42.109 429.766 41.942 429.514 41.826 429.263 41.71 428.996 41.651 428.715 41.651 428.374 41.651 428.095 41.723 427.879 41.866 427.662 42.01 427.554 42.209 427.554 42.463 427.554 42.696 427.631 42.877 427.785 43.007 427.939 43.137 428.176 43.245 428.495 43.332L429.348 43.567C429.84 43.702 430.2 43.892 430.427 44.135 430.655 44.379 430.768 44.682 430.768 45.044 430.768 45.363 430.684 45.643 430.517 45.884 430.349 46.125 430.116 46.312 429.819 46.444 429.521 46.577 429.175 46.643 428.78 46.643M432.83 44.476L434.843 44.476 433.836 41.887 432.83 44.476zM435.646 46.554L435.111 45.166 432.562 45.166 432.027 46.554 431.198 46.554 433.406 41.035 434.291 41.035 436.491 46.554 435.646 46.554z"/>
    <polyline fill="#FFFFFF" points="440.305 46.554 440.305 41.725 438.446 41.725 438.446 41.035 442.984 41.035 442.984 41.725 441.125 41.725 441.125 46.554 440.305 46.554"/>
    <path fill="#FFFFFF" d="M445.938 45.929C446.295 45.929 446.613 45.839 446.892 45.657 447.17 45.476 447.388 45.226 447.545 44.906 447.702 44.587 447.781 44.216 447.781 43.794 447.781 43.372 447.702 43.001 447.545 42.682 447.388 42.363 447.17 42.113 446.892 41.931 446.613 41.75 446.295 41.659 445.938 41.659 445.581 41.659 445.265 41.75 444.989 41.931 444.712 42.113 444.496 42.363 444.339 42.682 444.182 43.001 444.104 43.372 444.104 43.794 444.104 44.216 444.182 44.587 444.339 44.906 444.496 45.226 444.712 45.476 444.989 45.657 445.265 45.839 445.581 45.929 445.938 45.929zM445.938 46.643C445.419 46.643 444.959 46.521 444.558 46.278 444.158 46.034 443.843 45.699 443.613 45.271 443.383 44.844 443.268 44.352 443.268 43.794 443.268 43.237 443.383 42.745 443.613 42.317 443.843 41.89 444.158 41.554 444.558 41.311 444.959 41.067 445.419 40.945 445.938 40.945 446.458 40.945 446.919 41.067 447.322 41.311 447.725 41.554 448.041 41.89 448.272 42.317 448.502 42.745 448.617 43.237 448.617 43.794 448.617 44.352 448.502 44.844 448.272 45.271 448.041 45.699 447.725 46.034 447.322 46.278 446.919 46.521 446.458 46.643 445.938 46.643zM450.589 45.864L451.709 45.864C452.099 45.864 452.433 45.779 452.712 45.608 452.99 45.438 453.203 45.198 453.353 44.89 453.501 44.582 453.576 44.216 453.576 43.794 453.576 43.372 453.501 43.007 453.353 42.699 453.203 42.39 452.99 42.151 452.712 41.98 452.433 41.81 452.099 41.725 451.709 41.725L450.589 41.725 450.589 45.864zM449.769 46.554L449.769 41.035 451.709 41.035C452.25 41.035 452.723 41.15 453.129 41.379 453.535 41.61 453.85 41.931 454.075 42.345 454.299 42.759 454.412 43.242 454.412 43.794 454.412 44.346 454.299 44.829 454.075 45.243 453.85 45.657 453.535 45.979 453.129 46.209 452.723 46.439 452.25 46.554 451.709 46.554L449.769 46.554zM456.506 44.476L458.519 44.476 457.512 41.887 456.506 44.476zM459.322 46.554L458.787 45.166 456.238 45.166 455.702 46.554 454.874 46.554 457.082 41.035 457.967 41.035 460.166 46.554 459.322 46.554z"/>
    <polyline fill="#FFFFFF" points="462.682 44.362 462.682 46.554 461.863 46.554 461.863 44.362 459.923 41.035 460.889 41.035 462.277 43.583 463.665 41.035 464.615 41.035 462.682 44.362"/>
    <polyline fill="#FFFFFF" points="471.173 46.554 468.226 42.325 468.226 46.554 467.455 46.554 467.455 41.035 468.218 41.035 471.173 45.263 471.173 41.035 471.936 41.035 471.936 46.554 471.173 46.554"/>
    <polyline fill="#FFFFFF" points="473.38 46.554 473.38 41.035 476.919 41.035 476.919 41.725 474.2 41.725 474.2 43.429 476.594 43.429 476.594 44.119 474.2 44.119 474.2 45.864 476.984 45.864 476.984 46.554 473.38 46.554"/>
    <polyline fill="#FFFFFF" points="479.419 46.554 479.419 41.725 477.56 41.725 477.56 41.035 482.098 41.035 482.098 41.725 480.239 41.725 480.239 46.554 479.419 46.554"/>
    <polyline fill="#FFFFFF" points="487.455 46.554 486.164 42.155 484.874 46.554 484.021 46.554 482.552 41.035 483.364 41.035 484.484 45.401 485.774 41.035 486.553 41.035 487.852 45.417 488.98 41.035 489.776 41.035 488.307 46.554 487.455 46.554"/>
    <path fill="#FFFFFF" d="M493.031 45.929C493.388 45.929 493.706 45.839 493.984 45.657 494.263 45.476 494.481 45.226 494.638 44.906 494.795 44.587 494.873 44.216 494.873 43.794 494.873 43.372 494.795 43.001 494.638 42.682 494.481 42.363 494.263 42.113 493.984 41.931 493.706 41.75 493.388 41.659 493.031 41.659 492.674 41.659 492.357 41.75 492.081 41.931 491.805 42.113 491.589 42.363 491.432 42.682 491.275 43.001 491.196 43.372 491.196 43.794 491.196 44.216 491.275 44.587 491.432 44.906 491.589 45.226 491.805 45.476 492.081 45.657 492.357 45.839 492.674 45.929 493.031 45.929zM493.031 46.643C492.511 46.643 492.051 46.521 491.651 46.278 491.25 46.034 490.935 45.699 490.705 45.271 490.476 44.844 490.361 44.352 490.361 43.794 490.361 43.237 490.476 42.745 490.705 42.317 490.935 41.89 491.25 41.554 491.651 41.311 492.051 41.067 492.511 40.945 493.031 40.945 493.55 40.945 494.012 41.067 494.414 41.311 494.818 41.554 495.134 41.89 495.364 42.317 495.594 42.745 495.709 43.237 495.709 43.794 495.709 44.352 495.594 44.844 495.364 45.271 495.134 45.699 494.818 46.034 494.414 46.278 494.012 46.521 493.55 46.643 493.031 46.643zM497.682 43.64L498.81 43.64C499.161 43.64 499.441 43.554 499.65 43.38 499.858 43.207 499.962 42.975 499.962 42.682 499.962 42.39 499.858 42.158 499.65 41.984 499.441 41.811 499.161 41.725 498.81 41.725L497.682 41.725 497.682 43.64zM497.682 44.314L497.682 46.554 496.862 46.554 496.862 41.035 498.81 41.035C499.421 41.035 499.905 41.182 500.263 41.477 500.62 41.772 500.798 42.174 500.798 42.682 500.798 43.067 500.69 43.391 500.474 43.656 500.257 43.921 499.959 44.108 499.581 44.216L500.92 46.554 499.987 46.554 498.728 44.314 497.682 44.314z"/>
    <polyline fill="#FFFFFF" points="505.254 46.554 502.779 43.77 502.779 46.554 501.959 46.554 501.959 41.035 502.779 41.035 502.779 43.453 505.092 41.035 506.106 41.035 503.647 43.567 506.285 46.554 505.254 46.554"/>
    <path class="no-color-change" fill="#009BFF" d="M12.462 29.057C13.842 29.057 14.945 28.525 15.77 27.46 16.595 26.395 17.008 24.978 17.008 23.207 17.008 21.437 16.595 20.02 15.77 18.954 14.945 17.89 13.842 17.357 12.462 17.357 11.113 17.357 10.025 17.89 9.2 18.954 8.375 20.02 7.962 21.437 7.962 23.207 7.962 24.978 8.375 26.395 9.2 27.46 10.025 28.525 11.113 29.057 12.462 29.057zM14.577 35.267C13.228 35.267 11.997 34.981 10.887 34.412 9.777 33.842 8.847 33.062 8.097 32.072L8.097 43.007.268 43.007.268 11.777 7.422 11.777 7.827 14.792C8.547 13.712 9.515 12.842 10.73 12.182 11.945 11.523 13.347 11.192 14.938 11.192 16.887 11.192 18.612 11.702 20.113 12.722 21.612 13.742 22.797 15.152 23.667 16.952 24.537 18.752 24.972 20.838 24.972 23.207 24.972 25.577 24.53 27.67 23.645 29.484 22.76 31.3 21.53 32.717 19.955 33.737 18.38 34.756 16.587 35.267 14.577 35.267zM39.913 16.862C37.362 16.862 35.832 18.212 35.323 20.912L44.053 20.912C43.842 19.442 43.34 18.4 42.545 17.784 41.75 17.17 40.872 16.862 39.913 16.862zM50.623 32.342C49.482 33.152 48.035 33.842 46.28 34.412 44.525 34.981 42.657 35.267 40.678 35.267 37.947 35.267 35.615 34.764 33.68 33.759 31.745 32.755 30.26 31.352 29.225 29.552 28.19 27.752 27.673 25.682 27.673 23.342 27.673 20.973 28.182 18.872 29.202 17.042 30.222 15.213 31.633 13.779 33.433 12.744 35.232 11.71 37.332 11.192 39.732 11.192 42.073 11.192 44.135 11.694 45.92 12.699 47.705 13.705 49.1 15.1 50.105 16.884 51.11 18.67 51.613 20.762 51.613 23.162 51.613 23.492 51.59 23.837 51.545 24.197 51.5 24.557 51.447 24.933 51.387 25.322L35.413 25.322C36.133 27.962 38.097 29.282 41.308 29.282 42.748 29.282 44.022 29.057 45.133 28.607 46.242 28.157 47.172 27.707 47.923 27.257L50.623 32.342zM63.447 22.037L63.447 34.682 55.617 34.682 55.617 11.777 62.772 11.777 63.177 14.792C63.927 13.712 64.902 12.842 66.102 12.182 67.302 11.523 68.622 11.192 70.062 11.192 72.552 11.192 74.547 12.002 76.047 13.622 77.547 15.242 78.297 17.567 78.297 20.597L78.297 34.682 70.467 34.682 70.467 21.497C70.467 20.147 70.167 19.15 69.567 18.505 68.967 17.859 68.127 17.537 67.047 17.537 65.967 17.537 65.097 17.882 64.437 18.572 63.777 19.263 63.447 20.417 63.447 22.037M91.887 35.267C89.907 35.267 88.054 34.952 86.329 34.322 84.604 33.692 83.051 32.792 81.672 31.622L85.002 27.212C86.051 28.052 87.184 28.735 88.399 29.259 89.614 29.785 90.807 30.047 91.977 30.047 92.757 30.047 93.379 29.912 93.844 29.642 94.309 29.372 94.542 28.967 94.542 28.427 94.542 27.858 94.279 27.4 93.754 27.055 93.229 26.71 92.292 26.372 90.942 26.042L88.782 25.502C84.491 24.362 82.347 22.067 82.347 18.617 82.347 17.087 82.767 15.767 83.607 14.657 84.446 13.547 85.602 12.692 87.072 12.092 88.541 11.492 90.251 11.192 92.202 11.192 94.121 11.192 95.929 11.492 97.624 12.092 99.319 12.692 100.871 13.562 102.282 14.702L98.862 19.202C97.811 18.362 96.702 17.688 95.532 17.177 94.362 16.667 93.266 16.412 92.247 16.412 90.596 16.412 89.772 16.952 89.772 18.032 89.772 18.512 90.019 18.902 90.514 19.202 91.009 19.502 91.707 19.773 92.607 20.012L95.532 20.822C97.721 21.422 99.341 22.322 100.392 23.522 101.441 24.722 101.967 26.148 101.967 27.797 101.967 29.297 101.546 30.609 100.707 31.734 99.866 32.859 98.689 33.73 97.174 34.345 95.659 34.959 93.896 35.267 91.887 35.267M112.406 27.257C112.406 27.947 112.661 28.51 113.172 28.944 113.681 29.38 114.342 29.597 115.152 29.597 116.232 29.597 117.139 29.23 117.874 28.494 118.609 27.76 118.977 26.837 118.977 25.727L118.977 24.962C118.166 24.812 117.311 24.737 116.412 24.737 115.271 24.737 114.319 24.933 113.554 25.322 112.789 25.712 112.406 26.357 112.406 27.257zM119.291 34.682L118.886 31.667C117.386 34.067 115.107 35.267 112.047 35.267 110.697 35.267 109.474 34.975 108.379 34.39 107.284 33.805 106.414 33.002 105.769 31.982 105.124 30.963 104.801 29.777 104.801 28.427 104.801 25.878 105.799 23.898 107.794 22.487 109.789 21.077 112.421 20.372 115.692 20.372 116.711 20.372 117.791 20.462 118.932 20.642 118.811 19.502 118.324 18.64 117.469 18.055 116.614 17.47 115.571 17.177 114.342 17.177 113.261 17.177 112.174 17.38 111.079 17.784 109.984 18.19 108.942 18.677 107.952 19.247L105.297 14.207C106.796 13.247 108.416 12.505 110.156 11.979 111.896 11.455 113.636 11.192 115.376 11.192 117.476 11.192 119.366 11.552 121.047 12.272 122.726 12.992 124.046 14.088 125.007 15.557 125.966 17.027 126.447 18.887 126.447 21.137L126.447 34.682 119.291 34.682zM142.152 35.267C139.811 35.267 137.734 34.764 135.919 33.759 134.103 32.755 132.671 31.352 131.622 29.552 130.571 27.752 130.047 25.652 130.047 23.252 130.047 20.852 130.571 18.752 131.622 16.952 132.671 15.152 134.103 13.75 135.919 12.744 137.734 11.739 139.811 11.237 142.152 11.237 144.221 11.237 146.036 11.619 147.596 12.384 149.156 13.15 150.536 14.372 151.737 16.052L146.561 19.832C146.141 19.202 145.594 18.685 144.919 18.279 144.244 17.874 143.516 17.672 142.737 17.672 141.386 17.672 140.261 18.175 139.362 19.18 138.461 20.185 138.011 21.542 138.011 23.252 138.011 24.962 138.461 26.319 139.362 27.324 140.261 28.33 141.386 28.832 142.737 28.832 143.516 28.832 144.244 28.63 144.919 28.225 145.594 27.819 146.141 27.302 146.561 26.672L151.737 30.452C150.536 32.132 149.156 33.355 147.596 34.119 146.036 34.884 144.221 35.267 142.152 35.267M166.361 29.057C167.741 29.057 168.843 28.525 169.669 27.46 170.493 26.395 170.906 24.978 170.906 23.207 170.906 21.437 170.493 20.027 169.669 18.977 168.843 17.927 167.741 17.402 166.361 17.402 164.981 17.402 163.878 17.927 163.054 18.977 162.228 20.027 161.816 21.437 161.816 23.207 161.816 24.978 162.228 26.395 163.054 27.46 163.878 28.525 164.981 29.057 166.361 29.057zM166.361 35.267C163.901 35.267 161.733 34.749 159.859 33.714 157.983 32.68 156.513 31.262 155.449 29.462 154.384 27.662 153.851 25.577 153.851 23.207 153.851 20.838 154.384 18.752 155.449 16.952 156.513 15.152 157.983 13.742 159.859 12.722 161.733 11.702 163.901 11.192 166.361 11.192 168.821 11.192 170.988 11.702 172.864 12.722 174.738 13.742 176.208 15.152 177.274 16.952 178.338 18.752 178.871 20.838 178.871 23.207 178.871 25.577 178.338 27.662 177.274 29.462 176.208 31.262 174.738 32.68 172.864 33.714 170.988 34.749 168.821 35.267 166.361 35.267z"/>
    <polygon class="no-color-change" fill="#009BFF" points="182.966 34.682 190.796 34.682 190.796 1.832 182.966 1.832"/>
    <path class="no-color-change" fill="#009BFF" d="M202.45,27.257 C202.45,27.947 202.705,28.51 203.216,28.944 C203.725,29.38 204.385,29.597 205.196,29.597 C206.276,29.597 207.183,29.23 207.918,28.494 C208.653,27.76 209.02,26.837 209.02,25.727 L209.02,24.962 C208.21,24.812 207.355,24.737 206.456,24.737 C205.315,24.737 204.363,24.933 203.598,25.322 C202.833,25.712 202.45,26.357 202.45,27.257 Z M209.335,34.682 L208.93,31.667 C207.43,34.067 205.151,35.267 202.091,35.267 C200.74,35.267 199.518,34.975 198.423,34.39 C197.328,33.805 196.458,33.002 195.813,31.982 C195.167,30.963 194.845,29.777 194.845,28.427 C194.845,25.878 195.842,23.898 197.838,22.487 C199.833,21.077 202.465,20.372 205.736,20.372 C206.755,20.372 207.835,20.462 208.976,20.642 C208.855,19.502 208.368,18.64 207.513,18.055 C206.658,17.47 205.615,17.177 204.385,17.177 C203.305,17.177 202.218,17.38 201.123,17.784 C200.028,18.19 198.986,18.677 197.996,19.247 L195.341,14.207 C196.84,13.247 198.46,12.505 200.2,11.979 C201.94,11.455 203.68,11.192 205.42,11.192 C207.52,11.192 209.41,11.552 211.091,12.272 C212.77,12.992 214.09,14.088 215.051,15.557 C216.01,17.027 216.49,18.887 216.49,21.137 L216.49,34.682 L209.335,34.682 Z"/>
    <path fill="#FFFFFF" d="M240.115 22.037L240.115 34.682 232.285 34.682 232.285 11.777 239.44 11.777 239.845 14.792C240.594 13.712 241.57 12.842 242.77 12.182 243.969 11.523 245.29 11.192 246.73 11.192 249.22 11.192 251.215 12.002 252.715 13.622 254.215 15.242 254.965 17.567 254.965 20.597L254.965 34.682 247.135 34.682 247.135 21.497C247.135 20.147 246.835 19.15 246.235 18.505 245.634 17.859 244.795 17.537 243.715 17.537 242.635 17.537 241.765 17.882 241.105 18.572 240.445 19.263 240.115 20.417 240.115 22.037M270.895 16.862C268.344 16.862 266.814 18.212 266.304 20.912L275.034 20.912C274.824 19.442 274.321 18.4 273.527 17.784 272.731 17.17 271.854 16.862 270.895 16.862zM281.604 32.342C280.464 33.152 279.017 33.842 277.262 34.412 275.507 34.981 273.639 35.267 271.659 35.267 268.929 35.267 266.597 34.764 264.662 33.759 262.727 32.755 261.242 31.352 260.207 29.552 259.172 27.752 258.654 25.682 258.654 23.342 258.654 20.973 259.164 18.872 260.184 17.042 261.204 15.213 262.614 13.779 264.415 12.744 266.214 11.71 268.314 11.192 270.714 11.192 273.054 11.192 275.117 11.694 276.902 12.699 278.686 13.705 280.082 15.1 281.087 16.884 282.092 18.67 282.594 20.762 282.594 23.162 282.594 23.492 282.572 23.837 282.527 24.197 282.482 24.557 282.429 24.933 282.369 25.322L266.395 25.322C267.114 27.962 269.079 29.282 272.29 29.282 273.729 29.282 275.004 29.057 276.114 28.607 277.224 28.157 278.154 27.707 278.904 27.257L281.604 32.342z"/>
    <polyline fill="#FFFFFF" points="305.904 34.682 302.214 20.777 298.569 34.682 290.469 34.682 284.529 11.777 292.539 11.777 294.924 26.537 298.794 11.777 305.679 11.777 309.684 26.582 312.114 11.777 319.944 11.777 314.004 34.682 305.904 34.682"/>
    <path fill="#FFFFFF" d="M331.869 35.267C329.889 35.267 328.036 34.952 326.311 34.322 324.585 33.692 323.033 32.792 321.653 31.622L324.983 27.212C326.033 28.052 327.166 28.735 328.381 29.259 329.596 29.785 330.789 30.047 331.958 30.047 332.738 30.047 333.36 29.912 333.826 29.642 334.291 29.372 334.523 28.967 334.523 28.427 334.523 27.858 334.261 27.4 333.736 27.055 333.211 26.71 332.273 26.372 330.923 26.042L328.764 25.502C324.473 24.362 322.329 22.067 322.329 18.617 322.329 17.087 322.749 15.767 323.588 14.657 324.428 13.547 325.583 12.692 327.054 12.092 328.523 11.492 330.233 11.192 332.184 11.192 334.103 11.192 335.911 11.492 337.606 12.092 339.301 12.692 340.853 13.562 342.264 14.702L338.844 19.202C337.793 18.362 336.684 17.688 335.514 17.177 334.344 16.667 333.248 16.412 332.228 16.412 330.578 16.412 329.753 16.952 329.753 18.032 329.753 18.512 330.001 18.902 330.496 19.202 330.991 19.502 331.688 19.773 332.588 20.012L335.514 20.822C337.703 21.422 339.323 22.322 340.374 23.522 341.423 24.722 341.949 26.148 341.949 27.797 341.949 29.297 341.528 30.609 340.688 31.734 339.848 32.859 338.67 33.73 337.156 34.345 335.641 34.959 333.878 35.267 331.869 35.267M354.143 43.007L352.658 36.617C353.978 36.497 355.043 36.062 355.853 35.312 356.663 34.563 357.068 33.512 357.068 32.162L357.068 11.777C358.328 12.047 359.603 12.182 360.893 12.182 362.213 12.182 363.548 12.047 364.898 11.777L364.898 31.757C364.898 35.087 364.035 37.712 362.311 39.632 360.585 41.552 357.862 42.677 354.143 43.007M381.503 29.057C382.882 29.057 383.985 28.525 384.81 27.46 385.635 26.395 386.048 24.978 386.048 23.207 386.048 21.437 385.635 20.027 384.81 18.977 383.985 17.927 382.882 17.402 381.503 17.402 380.123 17.402 379.02 17.927 378.195 18.977 377.37 20.027 376.957 21.437 376.957 23.207 376.957 24.978 377.37 26.395 378.195 27.46 379.02 28.525 380.123 29.057 381.503 29.057zM381.503 35.267C379.042 35.267 376.874 34.749 375 33.714 373.125 32.68 371.655 31.262 370.59 29.462 369.525 27.662 368.993 25.577 368.993 23.207 368.993 20.838 369.525 18.752 370.59 16.952 371.655 15.152 373.125 13.742 375 12.722 376.874 11.702 379.042 11.192 381.503 11.192 383.962 11.192 386.13 11.702 388.005 12.722 389.88 13.742 391.35 15.152 392.415 16.952 393.479 18.752 394.013 20.838 394.013 23.207 394.013 25.577 393.479 27.662 392.415 29.462 391.35 31.262 389.88 32.68 388.005 33.714 386.13 34.749 383.962 35.267 381.503 35.267zM413.228 34.682L412.823 31.667C412.072 32.777 411.09 33.654 409.875 34.299 408.66 34.944 407.348 35.267 405.937 35.267 403.267 35.267 401.228 34.48 399.818 32.904 398.407 31.329 397.703 29.057 397.703 26.087L397.703 11.777 405.533 11.777 405.533 25.187C405.533 27.677 406.672 28.922 408.953 28.922 411.353 28.922 412.553 27.422 412.553 24.422L412.553 11.777 420.383 11.777 420.383 34.682 413.228 34.682M433.702 25.817L433.702 34.682 425.872 34.682 425.872 11.777 433.027 11.777 433.522 15.602C434.001 14.372 434.789 13.374 435.885 12.609 436.979 11.845 438.247 11.462 439.687 11.462 440.497 11.462 441.112 11.567 441.532 11.777L441.532 18.932C441.202 18.813 440.834 18.723 440.43 18.662 440.024 18.602 439.567 18.572 439.057 18.572 437.497 18.572 436.214 19.15 435.209 20.305 434.204 21.46 433.702 23.297 433.702 25.817M453.142 22.037L453.142 34.682 445.312 34.682 445.312 11.777 452.467 11.777 452.872 14.792C453.622 13.712 454.597 12.842 455.797 12.182 456.997 11.523 458.317 11.192 459.757 11.192 462.247 11.192 464.241 12.002 465.742 13.622 467.242 15.242 467.992 17.567 467.992 20.597L467.992 34.682 460.162 34.682 460.162 21.497C460.162 20.147 459.862 19.15 459.262 18.505 458.662 17.859 457.822 17.537 456.742 17.537 455.662 17.537 454.791 17.882 454.132 18.572 453.472 19.263 453.142 20.417 453.142 22.037M479.241 27.257C479.241 27.947 479.496 28.51 480.006 28.944 480.516 29.38 481.176 29.597 481.986 29.597 483.066 29.597 483.973 29.23 484.708 28.494 485.443 27.76 485.811 26.837 485.811 25.727L485.811 24.962C485.001 24.812 484.146 24.737 483.246 24.737 482.105 24.737 481.153 24.933 480.389 25.322 479.623 25.712 479.241 26.357 479.241 27.257zM486.126 34.682L485.721 31.667C484.221 34.067 481.941 35.267 478.881 35.267 477.531 35.267 476.308 34.975 475.213 34.39 474.118 33.805 473.249 33.002 472.603 31.982 471.958 30.963 471.636 29.777 471.636 28.427 471.636 25.878 472.633 23.898 474.628 22.487 476.624 21.077 479.256 20.372 482.526 20.372 483.545 20.372 484.625 20.462 485.766 20.642 485.646 19.502 485.159 18.64 484.304 18.055 483.449 17.47 482.406 17.177 481.176 17.177 480.096 17.177 479.008 17.38 477.914 17.784 476.818 18.19 475.776 18.677 474.786 19.247L472.131 14.207C473.631 13.247 475.251 12.505 476.991 11.979 478.73 11.455 480.471 11.192 482.211 11.192 484.31 11.192 486.201 11.552 487.881 12.272 489.561 12.992 490.88 14.088 491.841 15.557 492.801 17.027 493.281 18.887 493.281 21.137L493.281 34.682 486.126 34.682z"/>
    <polygon fill="#FFFFFF" points="498.276 34.682 506.106 34.682 506.106 1.832 498.276 1.832"/>
    <path class="no-color-change" fill="#009BFF" d="M360.893,9.977 C359.603,9.977 358.5,9.52 357.585,8.604 C356.67,7.69 356.213,6.587 356.213,5.297 C356.213,4.007 356.67,2.905 357.585,1.989 C358.5,1.075 359.603,0.617 360.893,0.617 C362.183,0.617 363.285,1.075 364.201,1.989 C365.115,2.905 365.573,4.007 365.573,5.297 C365.573,6.587 365.115,7.69 364.201,8.604 C363.285,9.52 362.183,9.977 360.893,9.977"/>
  </g>
</svg>
