<svg xmlns="http://www.w3.org/2000/svg" width="214" height="44" viewBox="0 0 214 44">
  <g fill="none" fill-rule="evenodd">
    <path class='no-color-change' fill="#009BFF" d="M7.963,25.869 C7.963,26.56 8.217,27.122 8.727,27.557 C9.237,27.992 9.897,28.209 10.708,28.209 C11.788,28.209 12.695,27.842 13.43,27.106 C14.165,26.372 14.533,25.449 14.533,24.339 L14.533,23.574 C13.722,23.424 12.867,23.349 11.968,23.349 C10.827,23.349 9.875,23.545 9.11,23.934 C8.345,24.324 7.963,24.969 7.963,25.869 Z M14.847,33.294 L14.442,30.279 C12.942,32.68 10.663,33.879 7.602,33.879 C6.253,33.879 5.03,33.587 3.935,33.002 C2.84,32.417 1.97,31.614 1.325,30.594 C0.679,29.575 0.357,28.389 0.357,27.039 C0.357,24.49 1.354,22.51 3.35,21.099 C5.345,19.689 7.977,18.984 11.248,18.984 C12.267,18.984 13.347,19.074 14.488,19.254 C14.367,18.114 13.88,17.252 13.025,16.667 C12.17,16.082 11.127,15.789 9.897,15.789 C8.817,15.789 7.73,15.992 6.635,16.396 C5.54,16.802 4.498,17.29 3.508,17.859 L0.852,12.819 C2.352,11.859 3.972,11.117 5.713,10.592 C7.452,10.067 9.192,9.804 10.932,9.804 C13.032,9.804 14.922,10.164 16.602,10.884 C18.282,11.604 19.602,12.7 20.562,14.169 C21.522,15.64 22.003,17.499 22.003,19.749 L22.003,33.294 L14.847,33.294 L14.847,33.294 Z"/>
    <polyline class='no-color-change' fill="#009BFF" points="45.812 27.444 45.812 33.294 25.517 33.294 25.517 28.389 35.957 16.239 26.192 16.239 26.192 10.389 45.452 10.389 45.452 15.294 35.102 27.444 45.812 27.444"/>
    <path fill="#FFFFFF" d="M60.212 33.879C57.872 33.879 55.794 33.376 53.979 32.372 52.164 31.367 50.731 29.964 49.681 28.164 48.631 26.364 48.107 24.265 48.107 21.864 48.107 19.464 48.631 17.364 49.681 15.564 50.731 13.764 52.164 12.362 53.979 11.356 55.794 10.352 57.872 9.849 60.212 9.849 62.282 9.849 64.096 10.231 65.657 10.997 67.216 11.762 68.597 12.984 69.797 14.664L64.622 18.444C64.201 17.814 63.654 17.297 62.979 16.892 62.304 16.486 61.576 16.284 60.797 16.284 59.447 16.284 58.322 16.787 57.422 17.792 56.521 18.797 56.072 20.154 56.072 21.864 56.072 23.574 56.521 24.932 57.422 25.937 58.322 26.942 59.447 27.444 60.797 27.444 61.576 27.444 62.304 27.242 62.979 26.837 63.654 26.432 64.201 25.914 64.622 25.284L69.797 29.064C68.597 30.745 67.216 31.967 65.657 32.731 64.096 33.497 62.282 33.879 60.212 33.879M83.409 15.474C80.858 15.474 79.328 16.824 78.819 19.524L87.549 19.524C87.339 18.055 86.836 17.012 86.041 16.396 85.246 15.782 84.368 15.474 83.409 15.474zM94.119 30.954C92.978 31.764 91.531 32.455 89.776 33.024 88.021 33.594 86.154 33.879 84.174 33.879 81.443 33.879 79.111 33.376 77.176 32.372 75.241 31.367 73.756 29.964 72.722 28.164 71.686 26.364 71.169 24.294 71.169 21.954 71.169 19.585 71.679 17.484 72.699 15.654 73.718 13.825 75.129 12.392 76.929 11.356 78.728 10.322 80.828 9.804 83.228 9.804 85.569 9.804 87.631 10.307 89.416 11.312 91.201 12.317 92.596 13.712 93.601 15.497 94.606 17.282 95.109 19.374 95.109 21.774 95.109 22.104 95.086 22.449 95.041 22.809 94.996 23.169 94.943 23.545 94.884 23.934L78.909 23.934C79.629 26.574 81.593 27.895 84.804 27.895 86.244 27.895 87.518 27.669 88.629 27.219 89.738 26.77 90.669 26.319 91.419 25.869L94.119 30.954 94.119 30.954zM106.782 20.649L106.782 33.294 98.952 33.294 98.952 10.389 106.106 10.389 106.512 13.404C107.261 12.324 108.236 11.454 109.436 10.794 110.636 10.135 111.957 9.804 113.396 9.804 115.887 9.804 117.881 10.614 119.382 12.234 120.882 13.854 121.632 16.18 121.632 19.209L121.632 33.294 113.802 33.294 113.802 20.109C113.802 18.759 113.501 17.762 112.902 17.117 112.301 16.472 111.462 16.149 110.382 16.149 109.302 16.149 108.431 16.494 107.771 17.184 107.111 17.875 106.782 19.029 106.782 20.649M142.988 31.809C142.057 32.439 140.993 32.942 139.793 33.316 138.593 33.691 137.333 33.879 136.013 33.879 133.553 33.879 131.596 33.167 130.14 31.742 128.685 30.317 127.958 28.404 127.958 26.004L127.958 16.239 124.223 16.239 124.223 10.389 128.318 10.389 129.308 3.999 135.788 3.999 135.788 10.389 141.773 10.389 141.773 16.239 135.788 16.239 135.788 25.014C135.788 25.795 136.02 26.402 136.485 26.837 136.95 27.272 137.573 27.489 138.353 27.489 138.743 27.489 139.14 27.415 139.546 27.264 139.951 27.114 140.333 26.935 140.693 26.724L142.988 31.809M154.08 24.429L154.08 33.294 146.25 33.294 146.25 10.389 153.405 10.389 153.9 14.214C154.38 12.984 155.167 11.986 156.263 11.222 157.357 10.457 158.625 10.074 160.065 10.074 160.875 10.074 161.49 10.18 161.91 10.389L161.91 17.544C161.58 17.425 161.213 17.335 160.807 17.274 160.403 17.214 159.945 17.184 159.435 17.184 157.875 17.184 156.593 17.762 155.588 18.917 154.582 20.072 154.08 21.909 154.08 24.429M171.522 25.869C171.522 26.56 171.776 27.122 172.287 27.557 172.797 27.992 173.457 28.209 174.267 28.209 175.347 28.209 176.254 27.842 176.989 27.106 177.724 26.372 178.092 25.449 178.092 24.339L178.092 23.574C177.282 23.424 176.427 23.349 175.527 23.349 174.387 23.349 173.434 23.545 172.67 23.934 171.904 24.324 171.522 24.969 171.522 25.869zM178.407 33.294L178.002 30.279C176.502 32.68 174.222 33.879 171.162 33.879 169.812 33.879 168.589 33.587 167.494 33.002 166.399 32.417 165.529 31.614 164.885 30.594 164.239 29.575 163.917 28.389 163.917 27.039 163.917 24.49 164.914 22.51 166.91 21.099 168.904 19.689 171.537 18.984 174.807 18.984 175.827 18.984 176.906 19.074 178.047 19.254 177.927 18.114 177.439 17.252 176.584 16.667 175.729 16.082 174.686 15.789 173.457 15.789 172.377 15.789 171.289 15.992 170.194 16.396 169.099 16.802 168.057 17.29 167.067 17.859L164.412 12.819C165.912 11.859 167.532 11.117 169.272 10.592 171.012 10.067 172.752 9.804 174.492 9.804 176.592 9.804 178.481 10.164 180.162 10.884 181.842 11.604 183.161 12.7 184.122 14.169 185.082 15.64 185.562 17.499 185.562 19.749L185.562 33.294 178.407 33.294 178.407 33.294z"/>
    <polygon fill="#FFFFFF" points="190.44 33.294 198.269 33.294 198.269 .444 190.44 .444"/>
    <path class='no-color-change' fill="#009BFF" d="M207.931,33.789 C206.971,33.789 206.093,33.557 205.298,33.092 C204.503,32.627 203.873,31.997 203.408,31.202 C202.943,30.407 202.711,29.529 202.711,28.569 C202.711,27.609 202.943,26.732 203.408,25.937 C203.873,25.142 204.503,24.512 205.298,24.047 C206.093,23.582 206.971,23.349 207.931,23.349 C208.89,23.349 209.768,23.582 210.563,24.047 C211.358,24.512 211.988,25.142 212.453,25.937 C212.918,26.732 213.151,27.609 213.151,28.569 C213.151,29.529 212.918,30.407 212.453,31.202 C211.988,31.997 211.358,32.627 210.563,33.092 C209.768,33.557 208.89,33.789 207.931,33.789"/>
    <path fill="#FFFFFF" d="M4.14 41.115L5.095 41.115C5.408 41.115 5.656 41.038 5.838 40.883 6.021 40.729 6.113 40.518 6.113 40.251 6.113 39.985 6.021 39.774 5.838 39.619 5.656 39.465 5.408 39.388 5.095 39.388L4.14 39.388 4.14 41.115zM3.43 43.565L3.43 38.791 5.095 38.791C5.628 38.791 6.051 38.922 6.365 39.184 6.679 39.447 6.836 39.802 6.836 40.251 6.836 40.696 6.679 41.048 6.365 41.308 6.051 41.568 5.628 41.698 5.095 41.698L4.14 41.698 4.14 43.565 3.43 43.565 3.43 43.565zM8.268 41.768L10.009 41.768 9.138 39.528 8.268 41.768zM10.704 43.565L10.241 42.365 8.036 42.365 7.573 43.565 6.857 43.565 8.766 38.791 9.532 38.791 11.434 43.565 10.704 43.565 10.704 43.565zM12.937 41.045L13.913 41.045C14.217 41.045 14.459 40.97 14.639 40.82 14.819 40.671 14.91 40.469 14.91 40.216 14.91 39.964 14.819 39.762 14.639 39.613 14.459 39.463 14.217 39.388 13.913 39.388L12.937 39.388 12.937 41.045zM12.937 41.627L12.937 43.565 12.227 43.565 12.227 38.791 13.913 38.791C14.442 38.791 14.86 38.919 15.169 39.174 15.478 39.429 15.633 39.776 15.633 40.216 15.633 40.549 15.539 40.83 15.352 41.059 15.164 41.288 14.907 41.45 14.58 41.543L15.738 43.565 14.931 43.565 13.842 41.627 12.937 41.627 12.937 41.627z"/>
    <polyline fill="#FFFFFF" points="17.668 43.565 17.668 39.388 16.061 39.388 16.061 38.791 19.985 38.791 19.985 39.388 18.378 39.388 18.378 43.565 17.668 43.565"/>
    <path fill="#FFFFFF" d="M24.542,43.025 C24.851,43.025 25.125,42.946 25.367,42.789 C25.608,42.633 25.796,42.416 25.932,42.14 C26.068,41.864 26.135,41.543 26.135,41.178 C26.135,40.813 26.068,40.493 25.932,40.216 C25.796,39.94 25.608,39.724 25.367,39.567 C25.125,39.41 24.851,39.331 24.542,39.331 C24.233,39.331 23.959,39.41 23.72,39.567 C23.481,39.724 23.294,39.94 23.159,40.216 C23.023,40.493 22.955,40.813 22.955,41.178 C22.955,41.543 23.023,41.864 23.159,42.14 C23.294,42.416 23.481,42.633 23.72,42.789 C23.959,42.946 24.233,43.025 24.542,43.025 Z M24.542,43.643 C24.093,43.643 23.695,43.537 23.348,43.327 C23.002,43.116 22.729,42.826 22.53,42.456 C22.332,42.086 22.232,41.66 22.232,41.178 C22.232,40.696 22.332,40.27 22.53,39.901 C22.729,39.531 23.002,39.24 23.348,39.03 C23.695,38.819 24.093,38.714 24.542,38.714 C24.991,38.714 25.39,38.819 25.739,39.03 C26.087,39.24 26.361,39.531 26.561,39.901 C26.759,40.27 26.859,40.696 26.859,41.178 C26.859,41.66 26.759,42.086 26.561,42.456 C26.361,42.826 26.087,43.116 25.739,43.327 C25.39,43.537 24.991,43.643 24.542,43.643 L24.542,43.643 Z"/>
    <polyline fill="#FFFFFF" points="28.565 43.565 27.856 43.565 27.856 38.791 30.825 38.791 30.825 39.388 28.565 39.388 28.565 41.002 30.481 41.002 30.481 41.599 28.565 41.599 28.565 43.565"/>
    <polyline fill="#FFFFFF" points="34.525 43.565 34.525 39.388 32.918 39.388 32.918 38.791 36.842 38.791 36.842 39.388 35.235 39.388 35.235 43.565 34.525 43.565"/>
    <polyline fill="#FFFFFF" points="37.657 43.565 37.657 38.791 38.366 38.791 38.366 40.834 40.83 40.834 40.83 38.791 41.539 38.791 41.539 43.565 40.83 43.565 40.83 41.445 38.366 41.445 38.366 43.565 37.657 43.565"/>
    <polyline fill="#FFFFFF" points="42.789 43.565 42.789 38.791 45.85 38.791 45.85 39.388 43.498 39.388 43.498 40.862 45.569 40.862 45.569 41.459 43.498 41.459 43.498 42.968 45.906 42.968 45.906 43.565 42.789 43.565"/>
    <path fill="#FFFFFF" d="M50.385 43.025C50.773 43.025 51.079 42.908 51.301 42.674 51.523 42.44 51.635 42.123 51.635 41.726L51.635 38.791 52.344 38.791 52.344 41.733C52.344 42.327 52.169 42.794 51.821 43.133 51.472 43.473 50.993 43.643 50.385 43.643 49.777 43.643 49.299 43.473 48.953 43.133 48.606 42.794 48.433 42.327 48.433 41.733L48.433 38.791 49.142 38.791 49.142 41.726C49.142 42.123 49.254 42.44 49.476 42.674 49.698 42.908 50.001 43.025 50.385 43.025M54.991 43.643C54.63 43.643 54.286 43.579 53.958 43.453 53.631 43.327 53.366 43.158 53.165 42.947L53.566 42.477C53.753 42.65 53.974 42.786 54.229 42.884 54.484 42.982 54.738 43.032 54.991 43.032 55.3 43.032 55.549 42.972 55.739 42.853 55.928 42.733 56.023 42.568 56.023 42.358 56.023 42.166 55.955 42.004 55.819 41.873 55.683 41.743 55.452 41.632 55.124 41.543L54.464 41.368C54.038 41.255 53.728 41.096 53.534 40.89 53.339 40.685 53.242 40.415 53.242 40.083 53.242 39.812 53.315 39.573 53.46 39.367 53.605 39.161 53.805 39 54.06 38.886 54.315 38.771 54.604 38.714 54.928 38.714 55.269 38.714 55.59 38.778 55.889 38.907 56.189 39.036 56.453 39.215 56.683 39.444L56.254 39.908C56.053 39.72 55.844 39.576 55.626 39.475 55.408 39.375 55.178 39.325 54.934 39.325 54.64 39.325 54.399 39.387 54.212 39.511 54.024 39.635 53.93 39.807 53.93 40.027 53.93 40.228 53.997 40.385 54.131 40.497 54.264 40.61 54.469 40.703 54.745 40.778L55.482 40.981C55.908 41.098 56.219 41.262 56.416 41.473 56.613 41.684 56.711 41.946 56.711 42.26 56.711 42.536 56.638 42.778 56.493 42.986 56.348 43.194 56.146 43.356 55.889 43.47 55.632 43.585 55.332 43.643 54.991 43.643M58.494 41.768L60.235 41.768 59.364 39.528 58.494 41.768zM60.93 43.565L60.467 42.365 58.262 42.365 57.799 43.565 57.083 43.565 58.992 38.791 59.758 38.791 61.66 43.565 60.93 43.565 60.93 43.565z"/>
    <polyline fill="#FFFFFF" points="64.96 43.565 64.96 39.388 63.352 39.388 63.352 38.791 67.277 38.791 67.277 39.388 65.669 39.388 65.669 43.565 64.96 43.565"/>
    <path fill="#FFFFFF" d="M69.833 43.025C70.141 43.025 70.416 42.946 70.657 42.789 70.898 42.633 71.087 42.416 71.222 42.14 71.358 41.864 71.426 41.543 71.426 41.178 71.426 40.813 71.358 40.493 71.222 40.216 71.087 39.94 70.898 39.724 70.657 39.567 70.416 39.41 70.141 39.331 69.833 39.331 69.523 39.331 69.25 39.41 69.011 39.567 68.772 39.724 68.585 39.94 68.449 40.216 68.313 40.493 68.246 40.813 68.246 41.178 68.246 41.543 68.313 41.864 68.449 42.14 68.585 42.416 68.772 42.633 69.011 42.789 69.25 42.946 69.523 43.025 69.833 43.025zM69.833 43.643C69.383 43.643 68.985 43.537 68.639 43.327 68.292 43.116 68.02 42.826 67.821 42.456 67.622 42.086 67.522 41.66 67.522 41.178 67.522 40.696 67.622 40.27 67.821 39.901 68.02 39.531 68.292 39.24 68.639 39.03 68.985 38.819 69.383 38.714 69.833 38.714 70.282 38.714 70.681 38.819 71.029 39.03 71.378 39.24 71.652 39.531 71.851 39.901 72.05 40.27 72.149 40.696 72.149 41.178 72.149 41.66 72.05 42.086 71.851 42.456 71.652 42.826 71.378 43.116 71.029 43.327 70.681 43.537 70.282 43.643 69.833 43.643L69.833 43.643zM73.855 42.968L74.824 42.968C75.161 42.968 75.45 42.895 75.691 42.747 75.932 42.6 76.117 42.393 76.246 42.126 76.374 41.859 76.439 41.543 76.439 41.178 76.439 40.813 76.374 40.497 76.246 40.23 76.117 39.964 75.932 39.757 75.691 39.609 75.45 39.462 75.161 39.388 74.824 39.388L73.855 39.388 73.855 42.968zM73.146 43.565L73.146 38.791 74.824 38.791C75.292 38.791 75.701 38.891 76.053 39.09 76.404 39.288 76.676 39.567 76.87 39.925 77.065 40.283 77.162 40.701 77.162 41.178 77.162 41.656 77.065 42.073 76.87 42.431 76.676 42.789 76.404 43.068 76.053 43.267 75.701 43.466 75.292 43.565 74.824 43.565L73.146 43.565 73.146 43.565zM78.973 41.768L80.715 41.768 79.844 39.528 78.973 41.768zM81.41 43.565L80.946 42.365 78.742 42.365 78.278 43.565 77.562 43.565 79.472 38.791 80.237 38.791 82.14 43.565 81.41 43.565 81.41 43.565z"/>
    <polyline fill="#FFFFFF" points="84.316 41.669 84.316 43.565 83.607 43.565 83.607 41.669 81.929 38.791 82.765 38.791 83.965 40.996 85.166 38.791 85.987 38.791 84.316 41.669"/>
    <polyline fill="#FFFFFF" points="91.66 43.565 89.111 39.908 89.111 43.565 88.444 43.565 88.444 38.791 89.104 38.791 91.66 42.449 91.66 38.791 92.32 38.791 92.32 43.565 91.66 43.565"/>
    <polyline fill="#FFFFFF" points="93.57 43.565 93.57 38.791 96.631 38.791 96.631 39.388 94.279 39.388 94.279 40.862 96.35 40.862 96.35 41.459 94.279 41.459 94.279 42.968 96.687 42.968 96.687 43.565 93.57 43.565"/>
    <polyline fill="#FFFFFF" points="98.793 43.565 98.793 39.388 97.185 39.388 97.185 38.791 101.11 38.791 101.11 39.388 99.502 39.388 99.502 43.565 98.793 43.565"/>
    <polyline fill="#FFFFFF" points="105.743 43.565 104.627 39.76 103.511 43.565 102.774 43.565 101.503 38.791 102.205 38.791 103.174 42.568 104.29 38.791 104.964 38.791 106.087 42.582 107.063 38.791 107.751 38.791 106.48 43.565 105.743 43.565"/>
    <path fill="#FFFFFF" d="M110.405 43.025C110.714 43.025 110.989 42.946 111.23 42.789 111.471 42.633 111.659 42.416 111.796 42.14 111.931 41.864 111.999 41.543 111.999 41.178 111.999 40.813 111.931 40.493 111.796 40.216 111.659 39.94 111.471 39.724 111.23 39.567 110.989 39.41 110.714 39.331 110.405 39.331 110.096 39.331 109.822 39.41 109.584 39.567 109.345 39.724 109.158 39.94 109.022 40.216 108.887 40.493 108.818 40.813 108.818 41.178 108.818 41.543 108.887 41.864 109.022 42.14 109.158 42.416 109.345 42.633 109.584 42.789 109.822 42.946 110.096 43.025 110.405 43.025zM110.405 43.643C109.956 43.643 109.558 43.537 109.212 43.327 108.865 43.116 108.593 42.826 108.394 42.456 108.195 42.086 108.096 41.66 108.096 41.178 108.096 40.696 108.195 40.27 108.394 39.901 108.593 39.531 108.865 39.24 109.212 39.03 109.558 38.819 109.956 38.714 110.405 38.714 110.855 38.714 111.253 38.819 111.602 39.03 111.951 39.24 112.225 39.531 112.424 39.901 112.623 40.27 112.722 40.696 112.722 41.178 112.722 41.66 112.623 42.086 112.424 42.456 112.225 42.826 111.951 43.116 111.602 43.327 111.253 43.537 110.855 43.643 110.405 43.643L110.405 43.643zM114.344 41.045L115.32 41.045C115.624 41.045 115.866 40.97 116.046 40.82 116.227 40.671 116.317 40.469 116.317 40.216 116.317 39.964 116.227 39.762 116.046 39.613 115.866 39.463 115.624 39.388 115.32 39.388L114.344 39.388 114.344 41.045zM114.344 41.627L114.344 43.565 113.635 43.565 113.635 38.791 115.32 38.791C115.849 38.791 116.268 38.919 116.576 39.174 116.885 39.429 117.04 39.776 117.04 40.216 117.04 40.549 116.946 40.83 116.759 41.059 116.572 41.288 116.314 41.45 115.987 41.543L117.145 43.565 116.338 43.565 115.25 41.627 114.344 41.627 114.344 41.627z"/>
    <polyline fill="#FFFFFF" points="120.894 43.565 118.753 41.157 118.753 43.565 118.043 43.565 118.043 38.791 118.753 38.791 118.753 40.883 120.754 38.791 121.631 38.791 119.504 40.981 121.786 43.565 120.894 43.565"/>
  </g>
</svg>
