<svg id="PortHuron" xmlns="http://www.w3.org/2000/svg" xmlns:xlink="http://www.w3.org/1999/xlink" width="788" height="160" viewBox="0 0 788 160">
  <defs>
    <style>
      .cls-1, .cls-2 {
        fill: #000;
        fill-rule: evenodd;
      }

      .cls-1 {
        filter: url(#filter);
      }
    </style>
    <filter id="filter" x="413" y="119.969" width="367.969" height="16" filterUnits="userSpaceOnUse">
      <feFlood result="flood" flood-color="#999"/>
      <feComposite result="composite" operator="in" in2="SourceGraphic"/>
      <feBlend result="blend" in2="SourceGraphic"/>
    </filter>
  </defs>
  <path id="USAT_Network" data-name="USAT Network" class="cls-1" d="M412.989,120.273h4.489c3.156,0,5.267,1.865,5.267,4.741s-2.155,4.735-5.267,4.735h-2.29v5.925h-2.2v-15.4Zm4.267,7.659c2.112,0,3.244-1.163,3.244-2.918,0-1.736-1.132-2.919-3.244-2.919h-2.068v5.837h2.068Zm11.768-7.659h1.955l6.4,15.4h-2.358l-1.6-4.035h-6.911l-1.6,4.035H422.6S428.244,122.162,429.024,120.273Zm3.665,9.544-1.488-3.794c-0.222-.572-1.179-2.942-1.2-3.139h-0.043c-0.022.2-.955,2.5-1.2,3.139l-1.51,3.794h5.443Zm6.924-9.544h4.51c2.91,0,5.178,1.5,5.178,4.563a4.293,4.293,0,0,1-3.955,4.346l4.778,6.492h-2.579l-4.51-6.276h-1.223v6.276h-2.2v-15.4Zm4.267,7.351c2.043,0,3.2-1.077,3.2-2.764s-1.157-2.765-3.2-2.765h-2.068v5.529h2.068Zm11.522-5.486h-4.445v-1.865h11.089v1.865H457.6v13.536h-2.2V122.138Zm12.348,5.838a8.2,8.2,0,1,1,8.2,8A7.861,7.861,0,0,1,467.75,127.976Zm14.132,0a5.946,5.946,0,1,0-5.955,6.053A5.772,5.772,0,0,0,481.882,127.976Zm5.433-7.7h7.867v1.865h-5.668V127.1H495v1.865h-5.49v6.713h-2.2v-15.4Zm17.815,1.865h-4.444v-1.865h11.088v1.865H507.33v13.536h-2.2V122.138Zm8.953-1.865h2.2v6.318h8.178v-6.318h2.2v15.4h-2.2v-7.218h-8.178v7.218h-2.2v-15.4Zm16.631,0h8.49v1.846h-6.29v4.472h6.11v1.846h-6.11v5.395h6.422v1.842h-8.622v-15.4Zm16,10.092V120.273h2.221v9.433c0,2.679,1.157,4.323,3.756,4.323,2.622,0,3.78-1.644,3.78-4.323v-9.433h2.221v10.092c0,3.38-2.2,5.616-6,5.616C548.865,135.981,546.71,133.745,546.71,130.365Zm14.274,2.524,1.491-1.25a4.52,4.52,0,0,0,3.911,2.433c1.709,0,3.044-.918,3.044-2.611,0-1.817-1.534-2.433-3.446-3.178-1.956-.769-3.933-1.736-3.933-4.193,0-2.432,1.912-4.12,4.712-4.12a5.248,5.248,0,0,1,4.579,2.322l-1.491,1.25a3.552,3.552,0,0,0-3.088-1.668c-1.512,0-2.511.769-2.511,2.063,0,1.6,1.554,2.13,2.911,2.654,2.2,0.856,4.466,1.889,4.466,4.716,0,2.679-2,4.674-5.2,4.674A6.064,6.064,0,0,1,560.984,132.889Zm18.241-12.616h1.956l6.4,15.4h-2.357l-1.6-4.035h-6.912l-1.6,4.035H572.8S578.446,122.162,579.225,120.273Zm3.665,9.544-1.487-3.794c-0.222-.572-1.179-2.942-1.2-3.139h-0.044c-0.022.2-.955,2.5-1.2,3.139l-1.51,3.794h5.443Zm13.978-7.679h-4.445v-1.865h11.088v1.865h-4.444v13.536h-2.2V122.138Zm7.469,5.838a8.2,8.2,0,1,1,8.2,8A7.861,7.861,0,0,1,604.337,127.976Zm14.132,0a5.945,5.945,0,1,0-5.954,6.053A5.772,5.772,0,0,0,618.469,127.976Zm5.434-7.7h4.423c4.977,0,8.265,2.808,8.265,7.7,0,4.87-3.312,7.7-8.265,7.7H623.9v-15.4Zm2.2,13.534h2.046c3.643,0,6.176-1.9,6.176-5.831s-2.533-5.838-6.176-5.838H626.1v11.669Zm17.637-13.534H645.7l6.4,15.4h-2.357l-1.6-4.035h-6.912l-1.6,4.035h-2.311S642.96,122.162,643.739,120.273Zm3.666,9.544-1.489-3.794c-0.221-.572-1.178-2.942-1.2-3.139h-0.044c-0.022.2-.955,2.5-1.2,3.139l-1.51,3.794h5.444Zm9.084-.419-5.312-9.125h2.467l2.889,5.135a22.887,22.887,0,0,1,1.11,2.192h0.022a23.153,23.153,0,0,1,1.113-2.192l2.91-5.135h2.4l-5.309,9.125v6.276h-2.289V129.4Zm14.062-9.125h1.687l8.846,9.982c0.266,0.288,1.422,1.711,1.534,1.932l0.044-.023c-0.044-.217-0.044-2-0.044-2.39v-9.5h2.134v15.4h-1.713l-8.845-9.983c-0.265-.283-1.422-1.711-1.532-1.928l-0.021.02c0.021,0.221.043,2,.043,2.394v9.5h-2.133v-15.4Zm18.253,0h8.487v1.846H691v4.472h6.113v1.846H691v5.395h6.422v1.842H688.8v-15.4Zm15.37,1.865h-4.445v-1.865h11.089v1.865h-4.445v13.536h-2.2V122.138Zm8.478-1.865h2.333l3.2,9.15c0.112,0.351.867,2.63,0.889,2.981h0.046a30.445,30.445,0,0,1,.933-2.981l3.334-9.15h1.756l3.332,9.15c0.133,0.351.91,2.63,0.935,2.981h0.044c0.044-.351.8-2.63,0.91-2.981l3.179-9.15h2.243l-5.49,15.4h-1.688l-3.6-9.607a25.578,25.578,0,0,1-.758-2.5h-0.044a25.421,25.421,0,0,1-.776,2.5l-3.578,9.607h-1.69Zm24.118,7.7a8.2,8.2,0,1,1,8.2,8A7.861,7.861,0,0,1,736.77,127.976Zm14.132,0a5.945,5.945,0,1,0-5.955,6.053A5.772,5.772,0,0,0,750.9,127.976Zm5.433-7.7h4.511c2.913,0,5.178,1.5,5.178,4.563a4.294,4.294,0,0,1-3.956,4.346l4.779,6.492h-2.579l-4.511-6.276h-1.222v6.276h-2.2v-15.4Zm4.267,7.351c2.044,0,3.2-1.077,3.2-2.764s-1.156-2.765-3.2-2.765h-2.067v5.529H760.6Zm8.736-7.351h2.2v7.154l6.444-7.154h2.666l-6.687,7.351,7,8.05h-2.754l-6.668-7.785v7.785h-2.2v-15.4Z"/>
  <path id="PH_logo" data-name="PH logo" class="cls-2" d="M24.02,34.4H0.989V29.014H52.917V34.4H29.886v70.207H24.02V34.4Zm34.113-5.384h5.648v29.5H64c3.041-4.523,8.258-8.4,16.839-8.4,12.276,0,20.75,7.323,20.75,21.107v33.38h-5.65V72.624c0-12.167-5.975-17.659-15.318-17.659-9.776,0-16.839,6.03-16.839,18.09v31.55H58.133V29.014ZM109.41,77.9c0-13.029,8.148-27.781,26.29-27.781,17.6,0,25.637,13.891,25.637,27.889v0.215H114.95c0.109,11.952,7.387,22.828,20.857,22.828,9.018,0,15.644-4.846,19.338-12.169l4.779,2.585c-4.887,9.475-14.338,14.427-24.55,14.427C118.318,105.9,109.41,91.576,109.41,77.9Zm46.278-4.413c-1.521-11.091-9.342-18.629-20.1-18.629-11.3,0-18.685,8.075-20.313,18.629h40.411Zm25.858-30.9h-20.2V29.014h56.924V42.582h-20.2v62.024H181.546V42.582Zm41.61-5.707c0-5.062,4.127-8.83,9.341-8.83,5.325,0,9.452,3.768,9.452,8.83S237.822,45.7,232.5,45.7C227.283,45.7,223.156,41.936,223.156,36.875Zm1.521,14.537h15.751v53.194H224.677V51.411Zm24.116,0h14.774v7.214h0.217c3.369-4.738,8.039-8.507,16.73-8.507,8.475,0,14.34,3.661,17.491,9.691,3.367-5.061,8.908-9.691,18.794-9.691,13.578,0,20.423,9.045,20.423,23.15v31.336H321.469V75.639c0-7.43-2.063-13.029-9.668-13.029S300.829,68.1,300.829,75.747v28.858H285.185V75.639c0-7.43-2.171-13.029-9.776-13.029S264.437,68.1,264.437,75.747v28.858H248.793V51.411Zm92.885,26.6c0-12.384,7.605-27.889,28.789-27.889s28.245,15.505,28.245,27.458a20.614,20.614,0,0,1-.327,3.877H357.322c0.76,8.4,7.93,12.382,15.751,12.382,7.17,0,11.842-3.015,14.558-6.785l8.691,8.83c-4.455,5.924-12.6,10.014-24.009,10.014C351.239,105.9,341.678,91.791,341.678,78.008ZM383.5,72.3c-1.521-7.323-6.735-10.877-13.035-10.877S358.842,64.979,357.322,72.3H383.5Zm15.973,24.334,7.5-8.935a18.747,18.747,0,0,0,14.34,6.891c5,0,8.148-1.938,8.148-5.384,0-4.308-4.889-5.062-10.756-6.678-8.365-2.37-16.4-6.46-16.4-15.935,0-10.338,9.561-16.476,22.271-16.476,9.886,0,15.969,3.661,19.228,6.892l-7.5,9.153a15.771,15.771,0,0,0-11.514-4.739c-4.782,0-7.171,1.831-7.171,4.308,0,3.554,4.89,4.308,9.669,5.707,8.908,2.585,17.489,6.46,17.489,16.691,0,10.875-9.668,17.766-23.246,17.766C410.989,105.9,403.384,101.7,399.475,96.636ZM461.4,29.014h16.511v29.5h33.46v-29.5h16.512v75.591H511.369V72.086h-33.46v32.519H461.4V29.014Zm72.681,48.994c0-12.384,7.605-27.889,28.788-27.889s28.246,15.505,28.246,27.458a20.7,20.7,0,0,1-.327,3.877H549.722c0.761,8.4,7.931,12.382,15.752,12.382,7.17,0,11.841-3.015,14.557-6.785l8.691,8.83c-4.454,5.924-12.6,10.014-24.009,10.014C543.639,105.9,534.079,91.791,534.079,78.008ZM575.9,72.3c-1.521-7.323-6.736-10.877-13.036-10.877S551.243,64.979,549.722,72.3H575.9Zm20.424-20.89H611.1v8.183h0.217c2.934-5.6,7.5-9.476,14.776-9.476a16.07,16.07,0,0,1,5.214.754v14a20.849,20.849,0,0,0-6.627-1.076c-8.148,0-12.6,4.953-12.6,14.105v26.706H596.327V51.411Zm35.2,26.165c0-15.4,10.971-27.458,27.05-27.458,8.8,0,14.448,3.985,18.034,8.938h0.216V51.411H691.6v53.194H676.826V96.96H676.61c-3.586,4.953-9.235,8.936-18.034,8.936C638.8,105.9,631.526,90.391,631.526,77.577Zm44.539,0.431c0-7.968-5.1-15.076-14.338-15.076s-14.233,7-14.233,15.076c0,8.29,5.542,15.075,14.233,15.075C670.525,93.083,676.065,86.3,676.065,78.008Zm23.9-48.994H715.72v75.591H699.968V29.014Zm20.968,48.563c0-15.4,10.972-27.458,27.05-27.458,9.016,0,14.34,4.092,17.164,8.184h0.108V29.014h15.753v75.591H766.236V96.96H766.02c-3.586,4.953-9.235,8.936-18.034,8.936C728.214,105.9,720.936,90.391,720.936,77.577Zm44.54,0.431c0-7.968-5.105-15.076-14.339-15.076s-14.232,7-14.232,15.076c0,8.29,5.541,15.075,14.232,15.075C759.936,93.083,765.476,86.3,765.476,78.008Z"/>
</svg>
