<svg xmlns="http://www.w3.org/2000/svg" width="549" height="48" viewBox="0 0 549 48">
  <g fill="none" fill-rule="evenodd">
    <path fill="#404040" d="M1.218 44.575L2.377 44.575C2.758 44.575 3.059 44.481 3.281 44.293 3.503 44.105 3.613 43.85 3.613 43.526 3.613 43.202 3.503 42.947 3.281 42.759 3.059 42.572 2.758 42.478 2.377 42.478L1.218 42.478 1.218 44.575zM.357 47.549L.357 41.753 2.377 41.753C3.025 41.753 3.539 41.912 3.92 42.231 4.301 42.549 4.491 42.98 4.491 43.526 4.491 44.066 4.301 44.493 3.92 44.809 3.539 45.124 3.025 45.282 2.377 45.282L1.218 45.282 1.218 47.549.357 47.549zM6.23 45.367L8.344 45.367 7.288 42.648 6.23 45.367zM9.188 47.549L8.626 46.092 5.949 46.092 5.387 47.549 4.517 47.549 6.836 41.753 7.765 41.753 10.075 47.549 9.188 47.549zM11.899 44.489L13.084 44.489C13.453 44.489 13.747 44.398 13.966 44.216 14.185 44.035 14.294 43.79 14.294 43.483 14.294 43.176 14.185 42.932 13.966 42.75 13.747 42.569 13.453 42.478 13.084 42.478L11.899 42.478 11.899 44.489zM11.899 45.197L11.899 47.549 11.038 47.549 11.038 41.753 13.084 41.753C13.726 41.753 14.234 41.908 14.61 42.217 14.984 42.527 15.172 42.949 15.172 43.483 15.172 43.887 15.059 44.228 14.831 44.506 14.604 44.785 14.291 44.981 13.893 45.094L15.3 47.549 14.32 47.549 12.998 45.197 11.899 45.197z"/>
    <polyline fill="#404040" points="17.645 47.549 17.645 42.478 15.692 42.478 15.692 41.753 20.458 41.753 20.458 42.478 18.505 42.478 18.505 47.549 17.645 47.549"/>
    <path fill="#404040" d="M25.99,46.893 C26.365,46.893 26.699,46.798 26.991,46.607 C27.284,46.417 27.513,46.154 27.678,45.819 C27.842,45.484 27.925,45.094 27.925,44.651 C27.925,44.208 27.842,43.819 27.678,43.483 C27.513,43.148 27.284,42.885 26.991,42.695 C26.699,42.504 26.365,42.409 25.99,42.409 C25.615,42.409 25.282,42.504 24.992,42.695 C24.703,42.885 24.475,43.148 24.31,43.483 C24.145,43.819 24.063,44.208 24.063,44.651 C24.063,45.094 24.145,45.484 24.31,45.819 C24.475,46.154 24.703,46.417 24.992,46.607 C25.282,46.798 25.615,46.893 25.99,46.893 Z M25.99,47.643 C25.444,47.643 24.961,47.515 24.54,47.26 C24.12,47.004 23.789,46.652 23.547,46.202 C23.306,45.754 23.185,45.236 23.185,44.651 C23.185,44.066 23.306,43.549 23.547,43.1 C23.789,42.651 24.12,42.299 24.54,42.042 C24.961,41.787 25.444,41.659 25.99,41.659 C26.535,41.659 27.02,41.787 27.443,42.042 C27.866,42.299 28.199,42.651 28.44,43.1 C28.682,43.549 28.803,44.066 28.803,44.651 C28.803,45.236 28.682,45.754 28.44,46.202 C28.199,46.652 27.866,47.004 27.443,47.26 C27.02,47.515 26.535,47.643 25.99,47.643 Z"/>
    <polyline fill="#404040" points="30.874 47.549 30.013 47.549 30.013 41.753 33.619 41.753 33.619 42.478 30.874 42.478 30.874 44.438 33.201 44.438 33.201 45.163 30.874 45.163 30.874 47.549"/>
    <polyline fill="#404040" points="38.111 47.549 38.111 42.478 36.159 42.478 36.159 41.753 40.924 41.753 40.924 42.478 38.972 42.478 38.972 47.549 38.111 47.549"/>
    <polyline fill="#404040" points="41.913 47.549 41.913 41.753 42.774 41.753 42.774 44.233 45.766 44.233 45.766 41.753 46.627 41.753 46.627 47.549 45.766 47.549 45.766 44.975 42.774 44.975 42.774 47.549 41.913 47.549"/>
    <polyline fill="#404040" points="48.144 47.549 48.144 41.753 51.86 41.753 51.86 42.478 49.005 42.478 49.005 44.268 51.519 44.268 51.519 44.992 49.005 44.992 49.005 46.825 51.929 46.825 51.929 47.549 48.144 47.549"/>
    <path fill="#404040" d="M57.367 46.893C57.839 46.893 58.21 46.751 58.48 46.467 58.749 46.183 58.884 45.799 58.884 45.316L58.884 41.753 59.745 41.753 59.745 45.325C59.745 46.046 59.534 46.613 59.11 47.025 58.687 47.437 58.106 47.643 57.367 47.643 56.628 47.643 56.049 47.437 55.628 47.025 55.207 46.613 54.997 46.046 54.997 45.325L54.997 41.753 55.858 41.753 55.858 45.316C55.858 45.799 55.993 46.183 56.263 46.467 56.533 46.751 56.901 46.893 57.367 46.893M62.959 47.643C62.521 47.643 62.104 47.567 61.706 47.413 61.308 47.26 60.987 47.055 60.743 46.8L61.228 46.228C61.456 46.438 61.724 46.603 62.034 46.722 62.343 46.842 62.652 46.902 62.959 46.902 63.334 46.902 63.636 46.829 63.867 46.684 64.097 46.539 64.212 46.339 64.212 46.083 64.212 45.85 64.129 45.655 63.965 45.495 63.8 45.336 63.518 45.202 63.121 45.094L62.319 44.881C61.802 44.745 61.426 44.552 61.19 44.302 60.954 44.052 60.836 43.725 60.836 43.321 60.836 42.992 60.924 42.702 61.101 42.452 61.276 42.202 61.52 42.007 61.829 41.868 62.139 41.729 62.49 41.659 62.882 41.659 63.297 41.659 63.686 41.738 64.05 41.894 64.413 42.05 64.734 42.267 65.013 42.546L64.493 43.108C64.249 42.881 63.995 42.706 63.73 42.584 63.466 42.462 63.186 42.401 62.891 42.401 62.533 42.401 62.24 42.476 62.013 42.626 61.785 42.777 61.672 42.986 61.672 43.253 61.672 43.498 61.753 43.688 61.915 43.824 62.076 43.961 62.325 44.074 62.66 44.165L63.555 44.412C64.072 44.555 64.45 44.753 64.689 45.009 64.928 45.265 65.047 45.583 65.047 45.964 65.047 46.3 64.959 46.593 64.783 46.846 64.607 47.099 64.362 47.295 64.05 47.434 63.737 47.574 63.374 47.643 62.959 47.643M67.212 45.367L69.326 45.367 68.269 42.648 67.212 45.367zM70.17 47.549L69.608 46.092 66.931 46.092 66.369 47.549 65.499 47.549 67.818 41.753 68.747 41.753 71.057 47.549 70.17 47.549z"/>
    <polyline fill="#404040" points="75.063 47.549 75.063 42.478 73.111 42.478 73.111 41.753 77.876 41.753 77.876 42.478 75.924 42.478 75.924 47.549 75.063 47.549"/>
    <path fill="#404040" d="M80.979 46.893C81.354 46.893 81.688 46.798 81.981 46.607 82.273 46.417 82.502 46.154 82.667 45.819 82.832 45.484 82.914 45.094 82.914 44.651 82.914 44.208 82.832 43.819 82.667 43.483 82.502 43.148 82.273 42.885 81.981 42.695 81.688 42.504 81.354 42.409 80.979 42.409 80.604 42.409 80.272 42.504 79.982 42.695 79.692 42.885 79.465 43.148 79.3 43.483 79.135 43.819 79.053 44.208 79.053 44.651 79.053 45.094 79.135 45.484 79.3 45.819 79.465 46.154 79.692 46.417 79.982 46.607 80.272 46.798 80.604 46.893 80.979 46.893zM80.979 47.643C80.434 47.643 79.95 47.515 79.53 47.26 79.11 47.004 78.778 46.652 78.537 46.202 78.295 45.754 78.175 45.236 78.175 44.651 78.175 44.066 78.295 43.549 78.537 43.1 78.778 42.651 79.11 42.299 79.53 42.042 79.95 41.787 80.434 41.659 80.979 41.659 81.525 41.659 82.009 41.787 82.432 42.042 82.856 42.299 83.188 42.651 83.43 43.1 83.672 43.549 83.792 44.066 83.792 44.651 83.792 45.236 83.672 45.754 83.43 46.202 83.188 46.652 82.856 47.004 82.432 47.26 82.009 47.515 81.525 47.643 80.979 47.643zM85.863 46.825L87.04 46.825C87.449 46.825 87.8 46.736 88.093 46.557 88.385 46.377 88.609 46.126 88.766 45.802 88.922 45.478 89 45.094 89 44.651 89 44.208 88.922 43.824 88.766 43.501 88.609 43.176 88.385 42.925 88.093 42.746 87.8 42.567 87.449 42.478 87.04 42.478L85.863 42.478 85.863 46.825zM85.002 47.549L85.002 41.753 87.04 41.753C87.608 41.753 88.105 41.874 88.531 42.115 88.958 42.357 89.289 42.695 89.524 43.13 89.76 43.564 89.878 44.071 89.878 44.651 89.878 45.231 89.76 45.738 89.524 46.173 89.289 46.607 88.958 46.945 88.531 47.187 88.105 47.429 87.608 47.549 87.04 47.549L85.002 47.549zM92.078 45.367L94.191 45.367 93.135 42.648 92.078 45.367zM95.036 47.549L94.473 46.092 91.796 46.092 91.234 47.549 90.364 47.549 92.683 41.753 93.612 41.753 95.922 47.549 95.036 47.549z"/>
    <polyline fill="#404040" points="98.565 45.248 98.565 47.549 97.704 47.549 97.704 45.248 95.667 41.753 96.681 41.753 98.139 44.43 99.596 41.753 100.594 41.753 98.565 45.248"/>
    <polyline fill="#404040" points="107.481 47.549 104.387 43.108 104.387 47.549 103.577 47.549 103.577 41.753 104.378 41.753 107.481 46.194 107.481 41.753 108.282 41.753 108.282 47.549 107.481 47.549"/>
    <polyline fill="#404040" points="109.799 47.549 109.799 41.753 113.516 41.753 113.516 42.478 110.66 42.478 110.66 44.268 113.175 44.268 113.175 44.992 110.66 44.992 110.66 46.825 113.584 46.825 113.584 47.549 109.799 47.549"/>
    <polyline fill="#404040" points="116.142 47.549 116.142 42.478 114.19 42.478 114.19 41.753 118.955 41.753 118.955 42.478 117.002 42.478 117.002 47.549 116.142 47.549"/>
    <polyline fill="#404040" points="124.58 47.549 123.225 42.929 121.87 47.549 120.975 47.549 119.432 41.753 120.284 41.753 121.461 46.339 122.816 41.753 123.634 41.753 124.998 46.356 126.183 41.753 127.018 41.753 125.475 47.549 124.58 47.549"/>
    <path fill="#404040" d="M130.437 46.893C130.812 46.893 131.146 46.798 131.438 46.607 131.731 46.417 131.96 46.154 132.125 45.819 132.289 45.484 132.372 45.094 132.372 44.651 132.372 44.208 132.289 43.819 132.125 43.483 131.96 43.148 131.731 42.885 131.438 42.695 131.146 42.504 130.812 42.409 130.437 42.409 130.062 42.409 129.729 42.504 129.439 42.695 129.15 42.885 128.922 43.148 128.757 43.483 128.592 43.819 128.51 44.208 128.51 44.651 128.51 45.094 128.592 45.484 128.757 45.819 128.922 46.154 129.15 46.417 129.439 46.607 129.729 46.798 130.062 46.893 130.437 46.893zM130.437 47.643C129.891 47.643 129.408 47.515 128.988 47.26 128.567 47.004 128.236 46.652 127.995 46.202 127.753 45.754 127.632 45.236 127.632 44.651 127.632 44.066 127.753 43.549 127.995 43.1 128.236 42.651 128.567 42.299 128.988 42.042 129.408 41.787 129.891 41.659 130.437 41.659 130.982 41.659 131.467 41.787 131.89 42.042 132.314 42.299 132.646 42.651 132.887 43.1 133.129 43.549 133.25 44.066 133.25 44.651 133.25 45.236 133.129 45.754 132.887 46.202 132.646 46.652 132.314 47.004 131.89 47.26 131.467 47.515 130.982 47.643 130.437 47.643zM135.321 44.489L136.506 44.489C136.876 44.489 137.17 44.398 137.388 44.216 137.607 44.035 137.716 43.79 137.716 43.483 137.716 43.176 137.607 42.932 137.388 42.75 137.17 42.569 136.876 42.478 136.506 42.478L135.321 42.478 135.321 44.489zM135.321 45.197L135.321 47.549 134.46 47.549 134.46 41.753 136.506 41.753C137.148 41.753 137.657 41.908 138.032 42.217 138.407 42.527 138.594 42.949 138.594 43.483 138.594 43.887 138.481 44.228 138.254 44.506 138.026 44.785 137.714 44.981 137.316 45.094L138.723 47.549 137.742 47.549 136.421 45.197 135.321 45.197z"/>
    <polyline fill="#404040" points="143.274 47.549 140.674 44.625 140.674 47.549 139.813 47.549 139.813 41.753 140.674 41.753 140.674 44.293 143.104 41.753 144.17 41.753 141.586 44.412 144.357 47.549 143.274 47.549"/>
    <path fill="#404040" d="M8.457 18.414L12.507 18.414C13.797 18.414 14.817 18.076 15.567 17.402 16.317 16.727 16.692 15.834 16.692 14.724 16.692 13.615 16.317 12.722 15.567 12.047 14.817 11.371 13.797 11.034 12.507 11.034L8.457 11.034 8.457 18.414zM.357 35.019L.357 4.419 13.317 4.419C16.917 4.419 19.767 5.342 21.867 7.187 23.967 9.032 25.017 11.544 25.017 14.724 25.017 16.794 24.545 18.587 23.599 20.102 22.655 21.617 21.327 22.787 19.617 23.612 17.907 24.437 15.867 24.849 13.497 24.849L8.457 24.849 8.457 35.019.357 35.019zM39.462 29.394C40.841 29.394 41.943 28.862 42.769 27.797 43.594 26.732 44.006 25.315 44.006 23.544 44.006 21.774 43.594 20.365 42.769 19.314 41.943 18.264 40.841 17.739 39.462 17.739 38.081 17.739 36.979 18.264 36.154 19.314 35.328 20.365 34.916 21.774 34.916 23.544 34.916 25.315 35.328 26.732 36.154 27.797 36.979 28.862 38.081 29.394 39.462 29.394zM39.462 35.604C37.001 35.604 34.833 35.086 32.959 34.052 31.084 33.017 29.613 31.599 28.549 29.799 27.484 27.999 26.952 25.914 26.952 23.544 26.952 21.175 27.484 19.089 28.549 17.289 29.613 15.489 31.084 14.079 32.959 13.059 34.833 12.039 37.001 11.529 39.462 11.529 41.921 11.529 44.089 12.039 45.964 13.059 47.838 14.079 49.309 15.489 50.374 17.289 51.438 19.089 51.972 21.175 51.972 23.544 51.972 25.914 51.438 27.999 50.374 29.799 49.309 31.599 47.838 33.017 45.964 34.052 44.089 35.086 41.921 35.604 39.462 35.604zM63.896 26.154L63.896 35.019 56.067 35.019 56.067 12.114 63.221 12.114 63.716 15.939C64.196 14.709 64.984 13.711 66.079 12.947 67.174 12.182 68.441 11.799 69.881 11.799 70.691 11.799 71.306 11.905 71.726 12.114L71.726 19.269C71.396 19.15 71.029 19.06 70.624 18.999 70.219 18.939 69.761 18.909 69.251 18.909 67.691 18.909 66.409 19.487 65.404 20.642 64.398 21.797 63.896 23.634 63.896 26.154M92.831 33.534C91.9 34.164 90.835 34.667 89.636 35.041 88.436 35.416 87.176 35.604 85.856 35.604 83.396 35.604 81.438 34.892 79.983 33.467 78.528 32.042 77.801 30.129 77.801 27.729L77.801 17.964 74.066 17.964 74.066 12.114 78.161 12.114 79.151 5.724 85.631 5.724 85.631 12.114 91.616 12.114 91.616 17.964 85.631 17.964 85.631 26.739C85.631 27.52 85.863 28.127 86.328 28.562 86.793 28.997 87.415 29.214 88.196 29.214 88.585 29.214 88.983 29.139 89.388 28.989 89.793 28.839 90.176 28.66 90.536 28.449L92.831 33.534M120.49 35.604C117.369 35.604 114.632 34.929 112.277 33.579 109.922 32.229 108.077 30.362 106.742 27.977 105.407 25.592 104.74 22.824 104.74 19.674 104.74 16.524 105.407 13.764 106.742 11.394 108.077 9.025 109.922 7.172 112.277 5.836 114.632 4.502 117.369 3.834 120.49 3.834 123.129 3.834 125.507 4.367 127.622 5.432 129.737 6.497 131.544 8.035 133.045 10.044L126.43 13.959C125.649 12.969 124.772 12.189 123.797 11.619 122.822 11.05 121.69 10.764 120.4 10.764 118.269 10.764 116.545 11.567 115.225 13.172 113.904 14.777 113.245 16.945 113.245 19.674 113.245 22.405 113.904 24.587 115.225 26.222 116.545 27.857 118.269 28.674 120.4 28.674 121.72 28.674 122.89 28.352 123.91 27.706 124.93 27.062 125.784 26.305 126.475 25.434L133.045 29.349C131.575 31.389 129.767 32.942 127.622 34.007 125.477 35.071 123.1 35.604 120.49 35.604"/>
    <polygon fill="#404040" points="136.69 35.019 144.52 35.019 144.52 2.169 136.69 2.169"/>
    <path fill="#404040" d="M150.009 35.019L150.009 12.114C151.269 12.384 152.544 12.519 153.834 12.519 155.154 12.519 156.489 12.384 157.839 12.114L157.839 35.019 150.009 35.019M171.159 22.374L171.159 35.019 163.329 35.019 163.329 12.114 170.484 12.114 170.889 15.129C171.638 14.049 172.614 13.179 173.814 12.519 175.013 11.86 176.334 11.529 177.774 11.529 180.263 11.529 182.258 12.339 183.759 13.959 185.259 15.579 186.009 17.905 186.009 20.934L186.009 35.019 178.179 35.019 178.179 21.834C178.179 20.484 177.878 19.487 177.279 18.842 176.678 18.197 175.839 17.874 174.759 17.874 173.679 17.874 172.808 18.219 172.149 18.909 171.489 19.6 171.159 20.754 171.159 22.374M207.969 33.534C207.038 34.164 205.973 34.667 204.773 35.041 203.573 35.416 202.313 35.604 200.993 35.604 198.533 35.604 196.576 34.892 195.121 33.467 193.666 32.042 192.939 30.129 192.939 27.729L192.939 17.964 189.203 17.964 189.203 12.114 193.298 12.114 194.288 5.724 200.768 5.724 200.768 12.114 206.753 12.114 206.753 17.964 200.768 17.964 200.768 26.739C200.768 27.52 201.001 28.127 201.466 28.562 201.931 28.997 202.553 29.214 203.334 29.214 203.723 29.214 204.121 29.139 204.526 28.989 204.931 28.839 205.314 28.66 205.673 28.449L207.969 33.534M222.143 29.394C223.523 29.394 224.625 28.862 225.451 27.797 226.275 26.732 226.688 25.315 226.688 23.544 226.688 21.774 226.275 20.365 225.451 19.314 224.625 18.264 223.523 17.739 222.143 17.739 220.763 17.739 219.66 18.264 218.836 19.314 218.01 20.365 217.598 21.774 217.598 23.544 217.598 25.315 218.01 26.732 218.836 27.797 219.66 28.862 220.763 29.394 222.143 29.394zM222.143 35.604C219.683 35.604 217.515 35.086 215.64 34.052 213.765 33.017 212.295 31.599 211.231 29.799 210.165 27.999 209.633 25.914 209.633 23.544 209.633 21.175 210.165 19.089 211.231 17.289 212.295 15.489 213.765 14.079 215.64 13.059 217.515 12.039 219.683 11.529 222.143 11.529 224.603 11.529 226.77 12.039 228.646 13.059 230.52 14.079 231.99 15.489 233.055 17.289 234.12 19.089 234.653 21.175 234.653 23.544 234.653 25.914 234.12 27.999 233.055 29.799 231.99 31.599 230.52 33.017 228.646 34.052 226.77 35.086 224.603 35.604 222.143 35.604zM246.578 22.374L246.578 35.019 238.748 35.019 238.748 12.114 245.903 12.114 246.308 15.129C247.057 14.049 248.033 13.179 249.233 12.519 250.432 11.86 251.753 11.529 253.193 11.529 255.683 11.529 257.678 12.339 259.178 13.959 260.678 15.579 261.428 17.905 261.428 20.934L261.428 35.019 253.598 35.019 253.598 21.834C253.598 20.484 253.298 19.487 252.698 18.842 252.097 18.197 251.258 17.874 250.178 17.874 249.098 17.874 248.228 18.219 247.568 18.909 246.908 19.6 246.578 20.754 246.578 22.374"/>
    <polyline fill="#009BFF" class='no-color-change' points="296.652 35.019 284.637 17.379 284.637 35.019 276.942 35.019 276.942 4.419 284.592 4.419 296.562 22.374 296.562 4.419 304.302 4.419 304.302 35.019 296.652 35.019"/>
    <path fill="#009BFF" class='no-color-change' d="M321.267,17.199 C318.717,17.199 317.186,18.549 316.677,21.249 L325.407,21.249 C325.197,19.78 324.694,18.737 323.899,18.121 C323.104,17.507 322.226,17.199 321.267,17.199 Z M331.977,32.679 C330.836,33.489 329.389,34.18 327.634,34.749 C325.879,35.319 324.012,35.604 322.032,35.604 C319.302,35.604 316.969,35.101 315.034,34.096 C313.099,33.092 311.614,31.689 310.579,29.889 C309.544,28.089 309.027,26.019 309.027,23.679 C309.027,21.31 309.537,19.209 310.557,17.379 C311.576,15.55 312.987,14.117 314.787,13.081 C316.587,12.047 318.686,11.529 321.087,11.529 C323.427,11.529 325.489,12.032 327.274,13.036 C329.059,14.042 330.454,15.437 331.459,17.222 C332.464,19.007 332.967,21.099 332.967,23.499 C332.967,23.829 332.944,24.174 332.899,24.534 C332.854,24.894 332.802,25.27 332.742,25.659 L316.767,25.659 C317.487,28.299 319.451,29.619 322.662,29.619 C324.102,29.619 325.376,29.394 326.487,28.944 C327.596,28.494 328.527,28.044 329.277,27.594 L331.977,32.679 Z"/>
    <polyline fill="#009BFF" class='no-color-change' points="356.277 35.019 352.587 21.114 348.942 35.019 340.842 35.019 334.902 12.114 342.911 12.114 345.297 26.874 349.166 12.114 356.052 12.114 360.056 26.919 362.487 12.114 370.317 12.114 364.376 35.019 356.277 35.019"/>
    <path fill="#009BFF" class='no-color-change' d="M382.241,35.604 C380.261,35.604 378.408,35.289 376.683,34.659 C374.958,34.029 373.406,33.129 372.026,31.959 L375.356,27.549 C376.406,28.389 377.538,29.072 378.753,29.597 C379.969,30.122 381.161,30.384 382.331,30.384 C383.111,30.384 383.733,30.249 384.199,29.979 C384.663,29.709 384.896,29.304 384.896,28.764 C384.896,28.195 384.633,27.737 384.108,27.392 C383.583,27.047 382.646,26.709 381.296,26.379 L379.136,25.839 C374.846,24.7 372.701,22.405 372.701,18.954 C372.701,17.424 373.121,16.104 373.961,14.994 C374.801,13.885 375.956,13.03 377.426,12.429 C378.895,11.829 380.605,11.529 382.556,11.529 C384.475,11.529 386.283,11.829 387.978,12.429 C389.673,13.03 391.225,13.899 392.636,15.039 L389.216,19.539 C388.165,18.7 387.056,18.025 385.886,17.514 C384.716,17.004 383.62,16.749 382.601,16.749 C380.951,16.749 380.126,17.289 380.126,18.369 C380.126,18.849 380.373,19.24 380.868,19.539 C381.364,19.839 382.061,20.11 382.961,20.349 L385.886,21.159 C388.076,21.76 389.696,22.66 390.746,23.859 C391.796,25.059 392.321,26.485 392.321,28.134 C392.321,29.635 391.9,30.947 391.061,32.072 C390.221,33.197 389.043,34.067 387.529,34.682 C386.013,35.296 384.25,35.604 382.241,35.604"/>
    <polyline fill="#009BFF" class='no-color-change' points="407.025 35.019 407.025 4.419 415.395 4.419 415.395 16.209 425.79 16.209 425.79 4.419 434.16 4.419 434.16 35.019 425.79 35.019 425.79 23.049 415.395 23.049 415.395 35.019 407.025 35.019"/>
    <path fill="#009BFF" class='no-color-change' d="M451.125 17.199C448.575 17.199 447.045 18.549 446.535 21.249L455.265 21.249C455.055 19.78 454.552 18.737 453.757 18.121 452.962 17.507 452.085 17.199 451.125 17.199zM461.835 32.679C460.695 33.489 459.247 34.18 457.492 34.749 455.737 35.319 453.87 35.604 451.89 35.604 449.159 35.604 446.827 35.101 444.892 34.096 442.957 33.092 441.472 31.689 440.437 29.889 439.402 28.089 438.885 26.019 438.885 23.679 438.885 21.31 439.395 19.209 440.415 17.379 441.434 15.55 442.845 14.117 444.645 13.081 446.445 12.047 448.544 11.529 450.945 11.529 453.285 11.529 455.347 12.032 457.132 13.036 458.917 14.042 460.312 15.437 461.318 17.222 462.322 19.007 462.825 21.099 462.825 23.499 462.825 23.829 462.803 24.174 462.758 24.534 462.713 24.894 462.66 25.27 462.6 25.659L446.625 25.659C447.345 28.299 449.309 29.619 452.52 29.619 453.96 29.619 455.235 29.394 456.345 28.944 457.454 28.494 458.385 28.044 459.135 27.594L461.835 32.679zM474.66 26.154L474.66 35.019 466.83 35.019 466.83 12.114 473.985 12.114 474.48 15.939C474.959 14.709 475.747 13.711 476.842 12.947 477.937 12.182 479.205 11.799 480.645 11.799 481.455 11.799 482.069 11.905 482.49 12.114L482.49 19.269C482.159 19.15 481.792 19.06 481.388 18.999 480.982 18.939 480.525 18.909 480.015 18.909 478.454 18.909 477.172 19.487 476.167 20.642 475.162 21.797 474.66 23.634 474.66 26.154M492.434 27.594C492.434 28.285 492.689 28.847 493.199 29.282 493.709 29.717 494.369 29.934 495.179 29.934 496.259 29.934 497.166 29.567 497.902 28.831 498.637 28.097 499.004 27.174 499.004 26.064L499.004 25.299C498.194 25.149 497.339 25.074 496.439 25.074 495.299 25.074 494.346 25.27 493.582 25.659 492.817 26.049 492.434 26.694 492.434 27.594zM499.319 35.019L498.914 32.004C497.414 34.405 495.134 35.604 492.074 35.604 490.724 35.604 489.501 35.312 488.407 34.727 487.311 34.142 486.442 33.339 485.797 32.319 485.151 31.3 484.829 30.114 484.829 28.764 484.829 26.215 485.826 24.235 487.822 22.824 489.817 21.414 492.449 20.709 495.719 20.709 496.739 20.709 497.819 20.799 498.959 20.979 498.839 19.839 498.352 18.977 497.497 18.392 496.642 17.807 495.599 17.514 494.369 17.514 493.289 17.514 492.201 17.717 491.107 18.121 490.011 18.527 488.969 19.014 487.979 19.584L485.324 14.544C486.824 13.584 488.444 12.842 490.184 12.317 491.924 11.792 493.664 11.529 495.404 11.529 497.504 11.529 499.394 11.889 501.074 12.609 502.754 13.329 504.074 14.425 505.034 15.894 505.994 17.365 506.474 19.224 506.474 21.474L506.474 35.019 499.319 35.019z"/>
    <polygon fill="#009BFF" class='no-color-change' points="511.47 35.019 519.3 35.019 519.3 2.169 511.47 2.169"/>
    <path fill="#009BFF" class='no-color-change' d="M535.904 29.394C537.254 29.394 538.341 28.862 539.166 27.797 539.991 26.732 540.404 25.315 540.404 23.544 540.404 21.774 539.991 20.357 539.166 19.291 538.341 18.227 537.254 17.694 535.904 17.694 534.524 17.694 533.421 18.227 532.596 19.291 531.771 20.357 531.359 21.774 531.359 23.544 531.359 25.315 531.771 26.732 532.596 27.797 533.421 28.862 534.524 29.394 535.904 29.394zM540.944 35.019L540.539 32.004C539.819 33.115 538.888 33.992 537.749 34.637 536.608 35.282 535.288 35.604 533.789 35.604 531.719 35.604 529.903 35.094 528.344 34.074 526.784 33.055 525.569 31.637 524.699 29.822 523.828 28.007 523.394 25.914 523.394 23.544 523.394 21.175 523.828 19.089 524.699 17.289 525.569 15.489 526.761 14.079 528.276 13.059 529.791 12.039 531.539 11.529 533.519 11.529 534.898 11.529 536.174 11.822 537.344 12.407 538.514 12.992 539.488 13.779 540.269 14.769L540.269 2.169 548.099 2.169 548.099 35.019 540.944 35.019zM153.834 10.314C152.544 10.314 151.441 9.857 150.527 8.942 149.611 8.027 149.154 6.924 149.154 5.634 149.154 4.345 149.611 3.242 150.527 2.326 151.441 1.412 152.544.954 153.834.954 155.124.954 156.226 1.412 157.142 2.326 158.056 3.242 158.514 4.345 158.514 5.634 158.514 6.924 158.056 8.027 157.142 8.942 156.226 9.857 155.124 10.314 153.834 10.314"/>
  </g>
</svg>
