<svg height="48" viewBox="0 0 287 48" width="287" xmlns="http://www.w3.org/2000/svg">
  <g fill="none" fill-rule="evenodd">
    <g fill="#404040"><path
      d="m10.309 44.574h1.16c.38 0 .682-.093.903-.281.222-.187.333-.443.333-.767s-.111-.579-.333-.767c-.221-.188-.523-.281-.903-.281h-1.16zm-.861 2.976v-5.797h2.021c.647 0 1.162.159 1.542.477.381.319.572.75.572 1.296 0 .54-.191.968-.572 1.283-.38.316-.895.473-1.542.473h-1.16v2.268zm5.874-2.183h2.114l-1.057-2.719zm2.958 2.183-.563-1.458h-2.677l-.562 1.458h-.869l2.318-5.797h.929l2.31 5.797zm2.71-3.061h1.185c.37 0 .664-.091.882-.272.219-.182.329-.427.329-.733 0-.308-.11-.552-.329-.734-.218-.182-.512-.272-.882-.272h-1.185zm0 .708v2.353h-.861v-5.797h2.046c.642 0 1.151.155 1.526.465s.563.731.563 1.266c0 .403-.114.744-.342 1.022-.227.279-.54.475-.937.589l1.406 2.455h-.98l-1.321-2.353z"/><path d="m26.735 47.55v-5.072h-1.951v-.725h4.765v.725h-1.952v5.072z"/><path
      d="m35.081 46.893c.375 0 .709-.095 1.001-.286.293-.19.521-.453.687-.788.164-.335.247-.724.247-1.168 0-.443-.083-.832-.247-1.167-.166-.336-.394-.598-.687-.789-.292-.19-.626-.285-1.001-.285s-.708.095-.998.285c-.289.191-.517.453-.682.789-.164.335-.247.724-.247 1.167 0 .444.083.833.247 1.168.165.335.393.598.682.788.29.191.623.286.998.286zm0 .751c-.546 0-1.029-.129-1.449-.385-.421-.255-.752-.607-.994-1.057-.241-.448-.362-.965-.362-1.551 0-.585.121-1.102.362-1.551.242-.449.573-.801.994-1.057.42-.256.903-.384 1.449-.384.545 0 1.029.128 1.453.384.423.256.756.608.998 1.057.241.449.362.966.362 1.551 0 .586-.121 1.103-.362 1.551-.242.45-.575.802-.998 1.057-.424.256-.908.385-1.453.385z"/><path d="m39.965 47.55h-.861v-5.797h3.606v.725h-2.745v1.96h2.327v.725h-2.327z"/><path d="m47.202 47.55v-5.072h-1.952v-.725h4.765v.725h-1.952v5.072z"/><path d="m51.004 47.55v-5.797h.861v2.48h2.992v-2.48h.861v5.797h-.861v-2.575h-2.992v2.575z"/><path d="m57.235 47.55v-5.797h3.717v.725h-2.856v1.79h2.515v.724h-2.515v1.833h2.924v.725z"/><path
      d="m66.458 46.893c.472 0 .843-.142 1.113-.426s.405-.668.405-1.151v-3.563h.861v3.572c0 .721-.212 1.288-.636 1.7-.423.412-1.004.619-1.743.619-.738 0-1.318-.207-1.738-.619-.421-.412-.631-.979-.631-1.7v-3.572h.861v3.563c0 .483.135.867.404 1.151.27.284.638.426 1.104.426m5.592.751c-.437 0-.855-.077-1.253-.231s-.719-.358-.963-.614l.486-.57c.227.21.496.374.805.493.31.12.618.179.925.179.375 0 .678-.072.908-.217.23-.144.345-.345.345-.601 0-.233-.082-.429-.247-.588s-.446-.292-.844-.4l-.801-.214c-.517-.136-.894-.329-1.13-.579-.235-.25-.353-.577-.353-.98 0-.33.088-.62.264-.87s.419-.445.729-.584c.309-.139.66-.209 1.052-.209.415 0 .805.078 1.168.235.364.156.685.373.963.652l-.519.562c-.245-.227-.499-.401-.764-.524-.264-.122-.544-.183-.839-.183-.358 0-.651.075-.878.226-.228.15-.341.359-.341.626 0 .245.081.435.243.572.162.136.41.25.746.34l.895.247c.517.142.895.341 1.134.597.238.256.358.574.358.955 0 .336-.089.63-.265.882-.176.253-.42.449-.733.589-.312.139-.676.209-1.091.209m4.254-2.277h2.114l-1.057-2.719zm2.958 2.183-.563-1.458h-2.677l-.562 1.458h-.869l2.318-5.797h.929l2.31 5.797z"/><path d="m84.155 47.55v-5.072h-1.952v-.725h4.765v.725h-1.952v5.072z"/><path
      d="m90.07 46.893c.375 0 .709-.095 1.002-.286.293-.19.521-.453.686-.788s.247-.724.247-1.168c0-.443-.082-.832-.247-1.167-.165-.336-.393-.598-.686-.789-.293-.19-.627-.285-1.002-.285s-.707.095-.997.285c-.29.191-.517.453-.682.789-.165.335-.247.724-.247 1.167 0 .444.082.833.247 1.168s.392.598.682.788c.29.191.622.286.997.286zm0 .751c-.545 0-1.028-.129-1.449-.385-.421-.255-.751-.607-.993-1.057-.241-.448-.362-.965-.362-1.551 0-.585.121-1.102.362-1.551.242-.449.572-.801.993-1.057s.904-.384 1.449-.384c.546 0 1.03.128 1.454.384.423.256.755.608.997 1.057.241.449.362.966.362 1.551 0 .586-.121 1.103-.362 1.551-.242.45-.574.802-.997 1.057-.424.256-.908.385-1.454.385zm4.885-.819h1.176c.409 0 .76-.089 1.053-.268s.517-.431.673-.755c.157-.324.235-.707.235-1.151 0-.443-.078-.826-.235-1.15-.156-.325-.38-.576-.673-.755s-.644-.268-1.053-.268h-1.176zm-.861.725v-5.797h2.037c.568 0 1.066.121 1.492.362.426.242.757.58.993 1.014.236.435.354.942.354 1.522s-.118 1.087-.354 1.522c-.236.434-.567.773-.993 1.014-.426.242-.924.363-1.492.363zm7.075-2.183h2.114l-1.057-2.719zm2.958 2.183-.563-1.458h-2.677l-.562 1.458h-.869l2.318-5.797h.929l2.31 5.797z"/><path d="m107.656 45.248v2.302h-.861v-2.302l-2.037-3.495h1.014l1.458 2.676 1.458-2.676h.997z"/><path d="m116.572 47.55-3.094-4.442v4.442h-.81v-5.797h.801l3.103 4.441v-4.441h.801v5.797z"/><path d="m118.891 47.55v-5.797h3.716v.725h-2.855v1.79h2.514v.724h-2.514v1.833h2.924v.725z"/><path d="m125.233 47.55v-5.072h-1.952v-.725h4.765v.725h-1.952v5.072z"/><path d="m133.672 47.55-1.355-4.621-1.356 4.621h-.895l-1.543-5.797h.853l1.176 4.586 1.355-4.586h.819l1.364 4.603 1.184-4.603h.836l-1.543 5.797z"/><path
      d="m139.528 46.893c.375 0 .709-.095 1.002-.286.292-.19.521-.453.686-.788s.247-.724.247-1.168c0-.443-.082-.832-.247-1.167-.165-.336-.394-.598-.686-.789-.293-.19-.627-.285-1.002-.285s-.708.095-.997.285c-.29.191-.517.453-.682.789-.165.335-.247.724-.247 1.167 0 .444.082.833.247 1.168s.392.598.682.788c.289.191.622.286.997.286zm0 .751c-.546 0-1.029-.129-1.449-.385-.421-.255-.752-.607-.993-1.057-.242-.448-.363-.965-.363-1.551 0-.585.121-1.102.363-1.551.241-.449.572-.801.993-1.057.42-.256.903-.384 1.449-.384s1.03.128 1.453.384c.424.256.756.608.998 1.057.241.449.362.966.362 1.551 0 .586-.121 1.103-.362 1.551-.242.45-.574.802-.998 1.057-.423.256-.907.385-1.453.385zm4.885-3.155h1.185c.369 0 .663-.091.882-.272.219-.182.328-.427.328-.733 0-.308-.109-.552-.328-.734s-.513-.272-.882-.272h-1.185zm0 .708v2.353h-.861v-5.797h2.046c.642 0 1.15.155 1.525.465s.563.731.563 1.266c0 .403-.114.744-.341 1.022-.227.279-.54.475-.938.589l1.407 2.455h-.981l-1.321-2.353z"/><path d="m152.366 47.55-2.6-2.924v2.924h-.861v-5.797h.861v2.54l2.429-2.54h1.066l-2.583 2.659 2.77 3.138z"/><path d="m9.448 35.019v-23.85h-9.09v-6.75h26.55v6.75h-9.09v23.85z"/><path
      d="m30.688 35.019v-22.905c1.26.27 2.535.405 3.825.405 1.319 0 2.655-.135 4.005-.405v22.905zm21.149-13.185v13.185h-7.83v-22.905h7.2l.405 2.925c.69-1.11 1.59-1.95 2.7-2.52s2.295-.855 3.555-.855c1.35 0 2.58.3 3.69.899 1.11.601 2.01 1.441 2.7 2.521.81-1.109 1.868-1.958 3.173-2.543s2.677-.877 4.117-.877c1.59 0 2.993.367 4.208 1.103 1.215.735 2.167 1.754 2.857 3.059s1.035 2.813 1.035 4.523v14.67h-7.83v-13.86c0-.96-.263-1.725-.787-2.295-.525-.57-1.193-.855-2.003-.855-.99 0-1.785.315-2.385.945s-.9 1.59-.9 2.88v13.185h-7.83v-13.86c0-.96-.255-1.725-.765-2.295s-1.2-.855-2.07-.855c-.96 0-1.74.315-2.34.945s-.9 1.59-.9 2.88m43.74-4.635c-2.55 0-4.08 1.35-4.59 4.05h8.73c-.21-1.47-.713-2.513-1.507-3.128-.796-.614-1.673-.922-2.633-.922zm10.71 15.48c-1.14.81-2.587 1.5-4.342 2.07-1.755.569-3.623.855-5.603.855-2.73 0-5.062-.503-6.997-1.508-1.935-1.004-3.42-2.407-4.455-4.207s-1.553-3.87-1.553-6.21c0-2.369.51-4.47 1.53-6.3s2.43-3.263 4.23-4.298 3.9-1.552 6.3-1.552c2.34 0 4.402.502 6.188 1.507 1.784 1.006 3.179 2.401 4.185 4.185 1.005 1.786 1.507 3.878 1.507 6.278 0 .33-.022.675-.067 1.035s-.098.736-.158 1.125h-15.975c.72 2.64 2.685 3.96 5.895 3.96 1.44 0 2.715-.225 3.825-.675s2.04-.9 2.79-1.35zm13.5 2.925c-1.98 0-3.833-.315-5.558-.945s-3.277-1.53-4.657-2.7l3.33-4.41c1.05.84 2.183 1.523 3.397 2.047 1.216.526 2.408.788 3.578.788.78 0 1.402-.135 1.868-.405.464-.27.697-.675.697-1.215 0-.57-.263-1.028-.788-1.372-.525-.345-1.462-.683-2.812-1.013l-2.16-.54c-4.291-1.14-6.435-3.435-6.435-6.885 0-1.53.42-2.85 1.26-3.96s1.995-1.965 3.465-2.565 3.18-.9 5.13-.9c1.92 0 3.727.3 5.423.9 1.694.6 3.247 1.47 4.657 2.61l-3.42 4.5c-1.05-.84-2.16-1.515-3.33-2.025s-2.265-.765-3.285-.765c-1.65 0-2.475.54-2.475 1.62 0 .48.248.87.742 1.17.496.3 1.193.57 2.093.81l2.925.81c2.189.6 3.81 1.5 4.86 2.7s1.575 2.625 1.575 4.275c0 1.5-.421 2.812-1.26 3.937-.84 1.125-2.018 1.996-3.532 2.611-1.516.614-3.278.922-5.288.922"/></g><path d="m145.571 35.019v-30.6h8.37v11.79h10.395v-11.79h8.37v30.6h-8.37v-11.97h-10.395v11.97z" fill="#009bff" class='no-color-change'/><path
      d="m189.671 17.199c-2.551 0-4.08 1.35-4.59 4.05h8.73c-.211-1.47-.713-2.513-1.508-3.128-.795-.614-1.672-.922-2.632-.922zm10.71 15.48c-1.141.81-2.588 1.5-4.343 2.07-1.755.569-3.622.855-5.602.855-2.731 0-5.063-.503-6.998-1.508-1.935-1.004-3.42-2.407-4.455-4.207s-1.552-3.87-1.552-6.21c0-2.369.51-4.47 1.53-6.3 1.019-1.83 2.43-3.263 4.23-4.298s3.899-1.552 6.3-1.552c2.34 0 4.402.502 6.187 1.507 1.785 1.006 3.18 2.401 4.185 4.185 1.005 1.786 1.508 3.878 1.508 6.278 0 .33-.022.675-.068 1.035-.045.36-.098.736-.157 1.125h-15.975c.72 2.64 2.684 3.96 5.895 3.96 1.44 0 2.715-.225 3.825-.675 1.109-.45 2.04-.9 2.79-1.35zm12.825-6.525v8.865h-7.83v-22.905h7.155l.495 3.824c.479-1.229 1.267-2.227 2.363-2.992 1.094-.764 2.362-1.147 3.802-1.147.81 0 1.425.105 1.845.315v7.155c-.331-.12-.698-.209-1.103-.27-.405-.06-.862-.09-1.372-.09-1.56 0-2.843.578-3.848 1.733s-1.507 2.992-1.507 5.512m17.774 1.44c0 .69.255 1.253.765 1.687.51.436 1.17.653 1.98.653 1.081 0 1.987-.367 2.723-1.103.734-.734 1.102-1.657 1.102-2.768v-.764c-.81-.15-1.665-.225-2.565-.225-1.14 0-2.092.196-2.857.585-.765.39-1.148 1.035-1.148 1.935zm6.885 7.425-.405-3.015c-1.5 2.4-3.779 3.6-6.84 3.6-1.35 0-2.572-.292-3.667-.877-1.096-.585-1.965-1.388-2.61-2.408-.646-1.02-.968-2.205-.968-3.555 0-2.55.997-4.53 2.993-5.94 1.995-1.41 4.627-2.115 7.898-2.115 1.019 0 2.099.09 3.239.27-.12-1.14-.607-2.002-1.462-2.587s-1.898-.878-3.128-.878c-1.08 0-2.168.202-3.262.607-1.096.405-2.137.893-3.128 1.463l-2.655-5.04c1.5-.96 3.12-1.702 4.86-2.228 1.74-.524 3.48-.787 5.22-.787 2.1 0 3.99.36 5.67 1.08s3 1.815 3.96 3.285 1.44 3.33 1.44 5.58v13.545z"
      fill="#009bff" class='no-color-change'/><path d="m250.016 35.019h7.829v-32.85h-7.829z" fill="#009bff" class='no-color-change'/><path
      d="m274.45 29.394c1.35 0 2.437-.533 3.262-1.598.825-1.064 1.238-2.482 1.238-4.252s-.413-3.187-1.238-4.253c-.825-1.064-1.912-1.597-3.262-1.597-1.38 0-2.483.533-3.308 1.597-.825 1.066-1.237 2.483-1.237 4.253s.412 3.188 1.237 4.252c.825 1.065 1.928 1.598 3.308 1.598zm5.04 5.625-.405-3.015c-.72 1.11-1.651 1.987-2.79 2.632-1.141.645-2.46.968-3.96.968-2.07 0-3.885-.511-5.445-1.53-1.561-1.02-2.775-2.437-3.645-4.253-.871-1.814-1.305-3.907-1.305-6.277s.434-4.455 1.305-6.255c.87-1.8 2.062-3.21 3.577-4.23s3.263-1.53 5.243-1.53c1.379 0 2.655.292 3.825.877s2.145 1.373 2.925 2.363v-12.6h7.83v32.85zm-244.977-24.706c-1.29 0-2.393-.457-3.308-1.372s-1.372-2.017-1.372-3.307.457-2.392 1.372-3.308c.915-.914 2.018-1.372 3.308-1.372 1.289 0 2.392.458 3.307 1.372.915.916 1.373 2.018 1.373 3.308s-.458 2.392-1.373 3.307-2.018 1.372-3.307 1.372"
      fill="#009bff" class='no-color-change'/></g>
</svg>