<svg id="poughkeepsie" xmlns="http://www.w3.org/2000/svg" xmlns:xlink="http://www.w3.org/1999/xlink" width="800" height="160" viewBox="0 0 800 160">
  <defs>
    <style>
      .cls-1 {
        fill: #fff;
        filter: url(#filter);
      }

      .cls-1, .cls-2 {
        fill-rule: evenodd;
      }

      .cls-2 {
      }
    </style>
    <filter id="filter" x="432" y="107.969" width="367.969" height="16" filterUnits="userSpaceOnUse">
      <feFlood result="flood" flood-color="#999"/>
      <feComposite result="composite" operator="in" in2="SourceGraphic"/>
      <feBlend result="blend" in2="SourceGraphic"/>
    </filter>
  </defs>
  <path id="USAT_Network" data-name="USAT Network" class="cls-1" d="M431.989,108.273h4.489c3.156,0,5.267,1.865,5.267,4.741s-2.155,4.735-5.267,4.735h-2.29v5.925h-2.2v-15.4Zm4.267,7.659c2.112,0,3.244-1.163,3.244-2.918,0-1.736-1.132-2.919-3.244-2.919h-2.068v5.837h2.068Zm11.768-7.659h1.955l6.4,15.4h-2.358l-1.6-4.035h-6.911l-1.6,4.035H441.6S447.244,110.162,448.024,108.273Zm3.665,9.544-1.488-3.794c-0.222-.572-1.179-2.942-1.2-3.139h-0.043c-0.022.2-.955,2.5-1.2,3.139l-1.51,3.794h5.443Zm6.924-9.544h4.51c2.91,0,5.178,1.5,5.178,4.563a4.293,4.293,0,0,1-3.955,4.346l4.778,6.492h-2.579l-4.51-6.276h-1.223v6.276h-2.2v-15.4Zm4.267,7.351c2.043,0,3.2-1.077,3.2-2.764s-1.157-2.765-3.2-2.765h-2.068v5.529h2.068Zm11.522-5.486h-4.445v-1.865h11.089v1.865H476.6v13.536h-2.2V110.138Zm12.348,5.838a8.2,8.2,0,1,1,8.2,8A7.861,7.861,0,0,1,486.75,115.976Zm14.132,0a5.946,5.946,0,1,0-5.955,6.053A5.772,5.772,0,0,0,500.882,115.976Zm5.433-7.7h7.867v1.865h-5.668V115.1H514v1.865h-5.49v6.713h-2.2v-15.4Zm17.815,1.865h-4.444v-1.865h11.088v1.865H526.33v13.536h-2.2V110.138Zm8.953-1.865h2.2v6.318h8.178v-6.318h2.2v15.4h-2.2v-7.218h-8.178v7.218h-2.2v-15.4Zm16.631,0h8.49v1.846h-6.29v4.472h6.11v1.846h-6.11v5.395h6.422v1.842h-8.622v-15.4Zm16,10.092V108.273h2.221v9.433c0,2.679,1.157,4.323,3.756,4.323,2.622,0,3.78-1.644,3.78-4.323v-9.433h2.221v10.092c0,3.38-2.2,5.616-6,5.616C567.865,123.981,565.71,121.745,565.71,118.365Zm14.274,2.524,1.491-1.25a4.52,4.52,0,0,0,3.911,2.433c1.709,0,3.044-.918,3.044-2.611,0-1.817-1.534-2.433-3.446-3.178-1.956-.769-3.933-1.736-3.933-4.193,0-2.432,1.912-4.12,4.712-4.12a5.248,5.248,0,0,1,4.579,2.322l-1.491,1.25a3.552,3.552,0,0,0-3.088-1.668c-1.512,0-2.511.769-2.511,2.063,0,1.6,1.554,2.13,2.911,2.654,2.2,0.856,4.466,1.889,4.466,4.716,0,2.679-2,4.674-5.2,4.674A6.064,6.064,0,0,1,579.984,120.889Zm18.241-12.616h1.956l6.4,15.4h-2.357l-1.6-4.035h-6.912l-1.6,4.035H591.8S597.446,110.162,598.225,108.273Zm3.665,9.544-1.487-3.794c-0.222-.572-1.179-2.942-1.2-3.139h-0.044c-0.022.2-.955,2.5-1.2,3.139l-1.51,3.794h5.443Zm13.978-7.679h-4.445v-1.865h11.088v1.865h-4.444v13.536h-2.2V110.138Zm7.469,5.838a8.2,8.2,0,1,1,8.2,8A7.861,7.861,0,0,1,623.337,115.976Zm14.132,0a5.945,5.945,0,1,0-5.954,6.053A5.772,5.772,0,0,0,637.469,115.976Zm5.434-7.7h4.423c4.977,0,8.265,2.808,8.265,7.7,0,4.87-3.312,7.7-8.265,7.7H642.9v-15.4Zm2.2,13.534h2.046c3.643,0,6.176-1.9,6.176-5.831s-2.533-5.838-6.176-5.838H645.1v11.669Zm17.637-13.534H664.7l6.4,15.4h-2.357l-1.6-4.035h-6.912l-1.6,4.035h-2.311S661.96,110.162,662.739,108.273Zm3.666,9.544-1.489-3.794c-0.221-.572-1.178-2.942-1.2-3.139h-0.044c-0.022.2-.955,2.5-1.2,3.139l-1.51,3.794h5.444Zm9.084-.419-5.312-9.125h2.467l2.889,5.135a22.887,22.887,0,0,1,1.11,2.192h0.022a23.153,23.153,0,0,1,1.113-2.192l2.91-5.135h2.4l-5.309,9.125v6.276h-2.289V117.4Zm14.062-9.125h1.687l8.846,9.982c0.266,0.288,1.422,1.711,1.534,1.932l0.044-.023c-0.044-.217-0.044-2-0.044-2.39v-9.5h2.134v15.4h-1.713l-8.845-9.983c-0.265-.283-1.422-1.711-1.532-1.928l-0.021.02c0.021,0.221.043,2,.043,2.394v9.5h-2.133v-15.4Zm18.253,0h8.487v1.846H710v4.472h6.113v1.846H710v5.395h6.422v1.842H707.8v-15.4Zm15.37,1.865h-4.445v-1.865h11.089v1.865h-4.445v13.536h-2.2V110.138Zm8.477-1.865h2.334l3.2,9.15c0.112,0.351.867,2.63,0.889,2.981h0.046a30.445,30.445,0,0,1,.933-2.981l3.334-9.15h1.756l3.332,9.15c0.133,0.351.91,2.63,0.935,2.981h0.044c0.044-.351.8-2.63,0.91-2.981l3.179-9.15h2.243l-5.49,15.4h-1.688l-3.6-9.607a25.578,25.578,0,0,1-.758-2.5h-0.044a25.421,25.421,0,0,1-.776,2.5l-3.578,9.607h-1.69Zm24.118,7.7a8.2,8.2,0,1,1,8.2,8A7.862,7.862,0,0,1,755.769,115.976Zm14.133,0a5.946,5.946,0,1,0-5.955,6.053A5.772,5.772,0,0,0,769.9,115.976Zm5.433-7.7h4.511c2.913,0,5.177,1.5,5.177,4.563a4.293,4.293,0,0,1-3.955,4.346l4.779,6.492h-2.579l-4.511-6.276h-1.222v6.276h-2.2v-15.4Zm4.267,7.351c2.044,0,3.2-1.077,3.2-2.764s-1.156-2.765-3.2-2.765h-2.067v5.529H779.6Zm8.736-7.351h2.2v7.154l6.444-7.154h2.666l-6.687,7.351,7,8.05h-2.754l-6.668-7.785v7.785h-2.2v-15.4Z"/>
  <path id="LOGO" class="cls-2" d="M0.8,94.12h4.32V70.44h9.6c9.68,0,17.119-6.16,17.119-16.319s-7.28-16.16-17.119-16.16H0.8V94.12Zm4.32-27.6V41.881h9.52c8.24,0,12.96,5.2,12.96,12.32s-4.72,12.32-12.96,12.32H5.115ZM58.455,95.08c13.12,0,20.319-10.56,20.319-20.719s-7.2-20.719-20.319-20.719S38.136,64.2,38.136,74.36,45.336,95.08,58.455,95.08Zm0-3.6C49.176,91.48,42.3,84.2,42.3,74.36s6.88-17.119,16.159-17.119,16.159,7.28,16.159,17.119S67.735,91.48,58.455,91.48Zm45.111,3.6c6.319,0,9.919-2.88,12.159-6.24h0.16v5.28h4.08V54.6h-4.16V78.04c0,8.96-4.88,13.439-12.079,13.439-6.88,0-10.96-4.08-10.96-13.119V54.6h-4.16V79.4C88.606,89.64,94.526,95.08,103.566,95.08Zm47.618,14.879c12.4,0,19.359-7.04,19.359-18.8V54.6h-4.08v7.84H166.3a17.257,17.257,0,0,0-15.6-8.8c-12.96,0-19.92,10.32-19.92,20.719s6.96,20.719,19.92,20.719a17.314,17.314,0,0,0,15.519-8.56h0.16v5.04c0,10.8-7.12,14.8-15.2,14.8-6,0-11.44-2.24-14.32-6.64l-3.36,2.32C136.944,107.4,143.664,109.959,151.184,109.959ZM150.7,91.48c-9.12,0-15.76-7.28-15.76-17.119s6.64-17.119,15.76-17.119,15.759,7.28,15.759,17.119S159.823,91.48,150.7,91.48Zm34.043,2.64h4.159V70.68c0-8.96,5.2-13.44,12.4-13.44,6.88,0,11.28,4.08,11.28,13.119V94.12h4.159v-24.8c0-10.24-6.239-15.679-15.279-15.679-6.32,0-10.16,2.88-12.4,6.24h-0.16V37.962h-4.159V94.12Zm44.978,0h4.16V73.96L254.844,94.12h5.6L237.805,72.6l21.119-18h-5.44l-19.6,16.879V37.962h-4.16V94.12Zm52.422,0.96a19.792,19.792,0,0,0,18.079-10.72l-3.52-1.92c-2.72,5.44-7.6,9.04-14.24,9.04-9.919,0-15.279-8.08-15.359-16.959h34.159V74.36c0-10.4-5.92-20.719-18.88-20.719-13.359,0-19.359,10.96-19.359,20.639C263.027,84.44,269.587,95.08,282.147,95.08ZM267.347,71c1.2-7.84,6.64-13.84,14.959-13.84,7.92,0,13.68,5.6,14.8,13.84H267.347ZM327.125,95.08A19.791,19.791,0,0,0,345.2,84.36l-3.52-1.92c-2.72,5.44-7.6,9.04-14.239,9.04-9.92,0-15.28-8.08-15.36-16.959h34.159V74.36c0-10.4-5.92-20.719-18.879-20.719-13.36,0-19.36,10.96-19.36,20.639C308.005,84.44,314.565,95.08,327.125,95.08ZM312.325,71c1.2-7.84,6.64-13.84,14.96-13.84,7.919,0,13.679,5.6,14.8,13.84H312.325Zm44.259,38h4.159V86.52h0.16a17.314,17.314,0,0,0,15.52,8.56c12.959,0,19.919-10.32,19.919-20.719s-6.96-20.719-19.919-20.719a17.258,17.258,0,0,0-15.6,8.8h-0.16V54.6h-4.079V109ZM376.423,91.48c-9.12,0-15.76-7.28-15.76-17.119s6.64-17.119,15.76-17.119,15.759,7.28,15.759,17.119S385.543,91.48,376.423,91.48Zm40.363,3.6c8.159,0,13.919-4.88,13.919-11.6,0-7.52-7.04-10.24-12.88-12.32-4.079-1.44-8.719-3.04-8.719-7.52,0-3.76,3.36-6.4,8.08-6.4a10.671,10.671,0,0,1,9.119,4.88l2.96-2.48a14.378,14.378,0,0,0-12.159-6c-7.12,0-12.16,4.16-12.16,10.08,0,6,5.28,8.64,10.96,10.72,5.519,2,10.639,3.92,10.639,9.2,0,4.8-4.4,7.84-9.919,7.84-5.92,0-9.44-3.36-11.52-6.64l-2.96,2.24C404.546,91.32,409.506,95.08,416.786,95.08Zm26.45-47.358a3.04,3.04,0,1,0-3.04-3.04A2.942,2.942,0,0,0,443.236,47.721Zm-2.08,46.4h4.16V54.6h-4.16V94.12Zm33.578,0.96a19.792,19.792,0,0,0,18.079-10.72l-3.52-1.92c-2.72,5.44-7.6,9.04-14.239,9.04-9.92,0-15.28-8.08-15.36-16.959h34.159V74.36c0-10.4-5.92-20.719-18.879-20.719-13.36,0-19.36,10.96-19.36,20.639C455.614,84.44,462.174,95.08,474.734,95.08ZM459.934,71c1.2-7.84,6.64-13.84,14.96-13.84,7.919,0,13.679,5.6,14.8,13.84H459.934ZM530.49,95.24c10.08,0,16.48-6.08,16.48-15.6V37.962H534.81v40c0,3.84-1.52,6.64-5.84,6.64-3.12,0-5.2-1.68-6.719-3.92l-6.64,7.6C518.251,92.36,523.69,95.24,530.49,95.24Zm46.342-.16c14.72,0,22-10.88,22-20.719s-7.279-20.719-22-20.719-22,10.88-22,20.719S562.113,95.08,576.832,95.08Zm0-9.68c-5.84,0-10.48-4.32-10.48-11.04s4.64-11.04,10.48-11.04,10.48,4.32,10.48,11.04S582.672,85.4,576.832,85.4Zm43.817,9.68c6.8,0,9.919-2.96,12.319-6.32h0.16v5.36h10.88V54.6h-11.52V75.96c0,5.68-2.24,9.84-8.16,9.84-5.679,0-7.2-3.68-7.2-9.76V54.6h-11.6V77.88C605.529,88.28,610.249,95.08,620.649,95.08Zm33.19-.96h11.6V74.28c0-6.8,3.28-10.48,9.28-10.48a15.2,15.2,0,0,1,4.879.8V54.2a11.718,11.718,0,0,0-3.839-.56c-5.36,0-8.72,2.88-10.88,7.04h-0.16V54.6h-10.88V94.12Zm32.865,0h11.6V72.68c0-5.68,2.56-9.76,8.48-9.76s7.52,4.16,7.52,9.68V94.12h11.519V70.84c0-10.48-4.88-17.2-15.359-17.2-6.56,0-10.24,2.8-12.72,6.32h-0.16V54.6H686.7V94.12Zm66.615,0.96a15.5,15.5,0,0,0,13.28-6.64h0.16v5.68h10.879V54.6H766.759v5.68H766.6a15.5,15.5,0,0,0-13.28-6.64c-11.839,0-19.919,8.96-19.919,20.4C733.4,83.56,738.76,95.08,753.319,95.08Zm2.32-9.52c-6.4,0-10.48-5.04-10.48-11.2,0-6,3.68-11.2,10.48-11.2s10.56,5.28,10.56,11.2C766.2,80.52,762.119,85.56,755.639,85.56Zm31.789,8.56h11.6V37.962h-11.6V94.12Z"/>
</svg>
