<svg xmlns="http://www.w3.org/2000/svg" width="472" height="47" viewBox="0 0 472 47">
  <g fill="none" fill-rule="evenodd">
    <path fill="#404040" d="M335.645 43.722L336.749 43.722C337.111 43.722 337.398 43.632 337.609 43.454 337.82 43.276 337.926 43.032 337.926 42.723 337.926 42.416 337.82 42.172 337.609 41.994 337.398 41.815 337.111 41.726 336.749 41.726L335.645 41.726 335.645 43.722zM334.826 46.553L334.826 41.037 336.749 41.037C337.365 41.037 337.855 41.188 338.218 41.491 338.58 41.794 338.761 42.205 338.761 42.723 338.761 43.238 338.58 43.645 338.218 43.945 337.855 44.245 337.365 44.395 336.749 44.395L335.645 44.395 335.645 46.553 334.826 46.553 334.826 46.553zM340.417 44.476L342.43 44.476 341.423 41.888 340.417 44.476zM343.232 46.553L342.697 45.167 340.149 45.167 339.613 46.553 338.785 46.553 340.993 41.037 341.877 41.037 344.076 46.553 343.232 46.553 343.232 46.553zM345.812 43.64L346.94 43.64C347.292 43.64 347.572 43.554 347.78 43.381 347.988 43.209 348.093 42.975 348.093 42.683 348.093 42.391 347.988 42.159 347.78 41.985 347.572 41.812 347.292 41.726 346.94 41.726L345.812 41.726 345.812 43.64zM345.812 44.314L345.812 46.553 344.993 46.553 344.993 41.037 346.94 41.037C347.552 41.037 348.036 41.183 348.392 41.478 348.75 41.773 348.929 42.175 348.929 42.683 348.929 43.068 348.82 43.392 348.603 43.657 348.387 43.922 348.09 44.109 347.712 44.216L349.051 46.553 348.117 46.553 346.859 44.314 345.812 44.314 345.812 44.314z"/>
    <polyline fill="#404040" points="351.281 46.553 351.281 41.726 349.423 41.726 349.423 41.037 353.959 41.037 353.959 41.726 352.1 41.726 352.1 46.553 351.281 46.553"/>
    <path fill="#404040" d="M359.225,45.928 C359.582,45.928 359.899,45.838 360.179,45.657 C360.457,45.476 360.675,45.226 360.832,44.907 C360.988,44.587 361.066,44.216 361.066,43.795 C361.066,43.373 360.988,43.003 360.832,42.683 C360.675,42.364 360.457,42.114 360.179,41.933 C359.899,41.751 359.582,41.661 359.225,41.661 C358.868,41.661 358.552,41.751 358.275,41.933 C358,42.114 357.783,42.364 357.626,42.683 C357.47,43.003 357.391,43.373 357.391,43.795 C357.391,44.216 357.47,44.587 357.626,44.907 C357.783,45.226 358,45.476 358.275,45.657 C358.552,45.838 358.868,45.928 359.225,45.928 Z M359.225,46.643 C358.706,46.643 358.246,46.521 357.846,46.278 C357.445,46.034 357.131,45.699 356.9,45.272 C356.671,44.844 356.555,44.352 356.555,43.795 C356.555,43.238 356.671,42.746 356.9,42.318 C357.131,41.89 357.445,41.555 357.846,41.312 C358.246,41.068 358.706,40.947 359.225,40.947 C359.744,40.947 360.205,41.068 360.608,41.312 C361.012,41.555 361.327,41.89 361.558,42.318 C361.787,42.746 361.902,43.238 361.902,43.795 C361.902,44.352 361.787,44.844 361.558,45.272 C361.327,45.699 361.012,46.034 360.608,46.278 C360.205,46.521 359.744,46.643 359.225,46.643 L359.225,46.643 Z"/>
    <polyline fill="#404040" points="363.875 46.553 363.056 46.553 363.056 41.037 366.487 41.037 366.487 41.726 363.875 41.726 363.875 43.592 366.09 43.592 366.09 44.282 363.875 44.282 363.875 46.553"/>
    <polyline fill="#404040" points="370.764 46.553 370.764 41.726 368.905 41.726 368.905 41.037 373.441 41.037 373.441 41.726 371.583 41.726 371.583 46.553 370.764 46.553"/>
    <polyline fill="#404040" points="374.382 46.553 374.382 41.037 375.202 41.037 375.202 43.397 378.05 43.397 378.05 41.037 378.869 41.037 378.869 46.553 378.05 46.553 378.05 44.103 375.202 44.103 375.202 46.553 374.382 46.553"/>
    <polyline fill="#404040" points="380.313 46.553 380.313 41.037 383.851 41.037 383.851 41.726 381.133 41.726 381.133 43.429 383.526 43.429 383.526 44.12 381.133 44.12 381.133 45.864 383.916 45.864 383.916 46.553 380.313 46.553"/>
    <path fill="#404040" d="M389.093 45.928C389.542 45.928 389.894 45.793 390.152 45.523 390.408 45.253 390.537 44.887 390.537 44.427L390.537 41.037 391.356 41.037 391.356 44.436C391.356 45.123 391.154 45.663 390.752 46.054 390.35 46.447 389.796 46.643 389.093 46.643 388.39 46.643 387.838 46.447 387.437 46.054 387.037 45.663 386.837 45.123 386.837 44.436L386.837 41.037 387.657 41.037 387.657 44.427C387.657 44.887 387.785 45.253 388.042 45.523 388.299 45.793 388.649 45.928 389.093 45.928M394.416 46.643C393.999 46.643 393.601 46.57 393.223 46.424 392.844 46.278 392.538 46.083 392.306 45.839L392.768 45.295C392.984 45.497 393.24 45.653 393.535 45.766 393.83 45.88 394.124 45.937 394.416 45.937 394.772 45.937 395.06 45.868 395.28 45.73 395.498 45.592 395.608 45.401 395.608 45.158 395.608 44.936 395.529 44.749 395.373 44.598 395.216 44.447 394.948 44.32 394.569 44.216L393.807 44.013C393.314 43.884 392.956 43.7 392.732 43.462 392.507 43.224 392.395 42.914 392.395 42.529 392.395 42.215 392.478 41.939 392.646 41.702 392.814 41.463 393.045 41.279 393.341 41.145 393.635 41.013 393.97 40.947 394.343 40.947 394.737 40.947 395.107 41.021 395.454 41.17 395.801 41.319 396.105 41.526 396.371 41.791L395.876 42.327C395.643 42.11 395.401 41.944 395.149 41.827 394.898 41.71 394.632 41.653 394.35 41.653 394.01 41.653 393.731 41.724 393.515 41.868 393.299 42.011 393.19 42.21 393.19 42.464 393.19 42.697 393.267 42.878 393.422 43.008 393.576 43.137 393.812 43.246 394.132 43.333L394.983 43.568C395.475 43.703 395.835 43.892 396.062 44.135 396.29 44.379 396.403 44.682 396.403 45.045 396.403 45.364 396.319 45.643 396.152 45.884 395.984 46.125 395.752 46.311 395.454 46.444 395.156 46.577 394.81 46.643 394.416 46.643M398.465 44.476L400.477 44.476 399.471 41.888 398.465 44.476zM401.28 46.553L400.745 45.167 398.197 45.167 397.661 46.553 396.834 46.553 399.041 41.037 399.925 41.037 402.124 46.553 401.28 46.553 401.28 46.553z"/>
    <polyline fill="#404040" points="405.937 46.553 405.937 41.726 404.079 41.726 404.079 41.037 408.615 41.037 408.615 41.726 406.757 41.726 406.757 46.553 405.937 46.553"/>
    <path fill="#404040" d="M411.568 45.928C411.926 45.928 412.243 45.838 412.522 45.657 412.801 45.476 413.018 45.226 413.176 44.907 413.332 44.587 413.411 44.216 413.411 43.795 413.411 43.373 413.332 43.003 413.176 42.683 413.018 42.364 412.801 42.114 412.522 41.933 412.243 41.751 411.926 41.661 411.568 41.661 411.212 41.661 410.895 41.751 410.62 41.933 410.344 42.114 410.127 42.364 409.971 42.683 409.813 43.003 409.735 43.373 409.735 43.795 409.735 44.216 409.813 44.587 409.971 44.907 410.127 45.226 410.344 45.476 410.62 45.657 410.895 45.838 411.212 45.928 411.568 45.928zM411.568 46.643C411.05 46.643 410.59 46.521 410.189 46.278 409.789 46.034 409.474 45.699 409.244 45.272 409.015 44.844 408.899 44.352 408.899 43.795 408.899 43.238 409.015 42.746 409.244 42.318 409.474 41.89 409.789 41.555 410.189 41.312 410.59 41.068 411.05 40.947 411.568 40.947 412.088 40.947 412.549 41.068 412.952 41.312 413.355 41.555 413.672 41.89 413.902 42.318 414.132 42.746 414.246 43.238 414.246 43.795 414.246 44.352 414.132 44.844 413.902 45.272 413.672 45.699 413.355 46.034 412.952 46.278 412.549 46.521 412.088 46.643 411.568 46.643L411.568 46.643zM416.218 45.864L417.338 45.864C417.727 45.864 418.061 45.779 418.34 45.608 418.618 45.438 418.832 45.199 418.98 44.89 419.13 44.582 419.204 44.216 419.204 43.795 419.204 43.373 419.13 43.008 418.98 42.7 418.832 42.391 418.618 42.152 418.34 41.981 418.061 41.811 417.727 41.726 417.338 41.726L416.218 41.726 416.218 45.864zM415.398 46.553L415.398 41.037 417.338 41.037C417.879 41.037 418.352 41.151 418.758 41.381 419.163 41.611 419.478 41.933 419.703 42.346 419.928 42.76 420.04 43.243 420.04 43.795 420.04 44.347 419.928 44.83 419.703 45.244 419.478 45.657 419.163 45.979 418.758 46.209 418.352 46.439 417.879 46.553 417.338 46.553L415.398 46.553 415.398 46.553zM422.134 44.476L424.145 44.476 423.14 41.888 422.134 44.476zM424.949 46.553L424.414 45.167 421.866 45.167 421.33 46.553 420.502 46.553 422.71 41.037 423.594 41.037 425.793 46.553 424.949 46.553 424.949 46.553z"/>
    <polyline fill="#404040" points="428.308 44.363 428.308 46.553 427.488 46.553 427.488 44.363 425.549 41.037 426.515 41.037 427.902 43.584 429.29 41.037 430.239 41.037 428.308 44.363"/>
    <polyline fill="#404040" points="436.796 46.553 433.85 42.327 433.85 46.553 433.079 46.553 433.079 41.037 433.842 41.037 436.796 45.263 436.796 41.037 437.559 41.037 437.559 46.553 436.796 46.553"/>
    <polyline fill="#404040" points="439.002 46.553 439.002 41.037 442.54 41.037 442.54 41.726 439.822 41.726 439.822 43.429 442.216 43.429 442.216 44.12 439.822 44.12 439.822 45.864 442.605 45.864 442.605 46.553 439.002 46.553"/>
    <polyline fill="#404040" points="445.04 46.553 445.04 41.726 443.182 41.726 443.182 41.037 447.717 41.037 447.717 41.726 445.859 41.726 445.859 46.553 445.04 46.553"/>
    <polyline fill="#404040" points="453.072 46.553 451.782 42.156 450.492 46.553 449.64 46.553 448.172 41.037 448.982 41.037 450.102 45.401 451.392 41.037 452.172 41.037 453.47 45.418 454.598 41.037 455.392 41.037 453.924 46.553 453.072 46.553"/>
    <path fill="#404040" d="M458.647 45.928C459.004 45.928 459.321 45.838 459.6 45.657 459.879 45.476 460.097 45.226 460.254 44.907 460.41 44.587 460.489 44.216 460.489 43.795 460.489 43.373 460.41 43.003 460.254 42.683 460.097 42.364 459.879 42.114 459.6 41.933 459.321 41.751 459.004 41.661 458.647 41.661 458.29 41.661 457.974 41.751 457.697 41.933 457.422 42.114 457.205 42.364 457.048 42.683 456.892 43.003 456.813 43.373 456.813 43.795 456.813 44.216 456.892 44.587 457.048 44.907 457.205 45.226 457.422 45.476 457.697 45.657 457.974 45.838 458.29 45.928 458.647 45.928zM458.647 46.643C458.128 46.643 457.668 46.521 457.267 46.278 456.867 46.034 456.553 45.699 456.322 45.272 456.093 44.844 455.977 44.352 455.977 43.795 455.977 43.238 456.093 42.746 456.322 42.318 456.553 41.89 456.867 41.555 457.267 41.312 457.668 41.068 458.128 40.947 458.647 40.947 459.167 40.947 459.627 41.068 460.03 41.312 460.434 41.555 460.749 41.89 460.979 42.318 461.209 42.746 461.325 43.238 461.325 43.795 461.325 44.352 461.209 44.844 460.979 45.272 460.749 45.699 460.434 46.034 460.03 46.278 459.627 46.521 459.167 46.643 458.647 46.643L458.647 46.643zM463.297 43.64L464.424 43.64C464.775 43.64 465.056 43.554 465.264 43.381 465.473 43.209 465.576 42.975 465.576 42.683 465.576 42.391 465.473 42.159 465.264 41.985 465.056 41.812 464.775 41.726 464.424 41.726L463.297 41.726 463.297 43.64zM463.297 44.314L463.297 46.553 462.476 46.553 462.476 41.037 464.424 41.037C465.035 41.037 465.519 41.183 465.877 41.478 466.233 41.773 466.412 42.175 466.412 42.683 466.412 43.068 466.304 43.392 466.088 43.657 465.871 43.922 465.573 44.109 465.195 44.216L466.534 46.553 465.6 46.553 464.343 44.314 463.297 44.314 463.297 44.314z"/>
    <polyline fill="#404040" points="470.866 46.553 468.392 43.771 468.392 46.553 467.572 46.553 467.572 41.037 468.392 41.037 468.392 43.454 470.704 41.037 471.719 41.037 469.26 43.568 471.897 46.553 470.866 46.553"/>
    <path class="no-color-change" fill="#009BFF" d="M12.552 29.174C13.932 29.174 15.034 28.642 15.86 27.578 16.685 26.512 17.097 25.095 17.097 23.325 17.097 21.555 16.685 20.137 15.86 19.072 15.034 18.007 13.932 17.475 12.552 17.475 11.202 17.475 10.114 18.007 9.29 19.072 8.464 20.137 8.052 21.555 8.052 23.325 8.052 25.095 8.464 26.512 9.29 27.578 10.114 28.642 11.202 29.174 12.552 29.174zM14.667 35.384C13.317 35.384 12.087 35.099 10.977 34.53 9.867 33.96 8.936 33.179 8.187 32.19L8.187 43.125.357 43.125.357 11.895 7.512 11.895 7.917 14.91C8.637 13.83 9.604 12.96 10.82 12.299 12.035 11.64 13.436 11.31 15.027 11.31 16.977 11.31 18.702 11.82 20.202 12.839 21.702 13.86 22.887 15.27 23.757 17.07 24.627 18.87 25.062 20.956 25.062 23.325 25.062 25.695 24.619 27.788 23.735 29.602 22.85 31.417 21.62 32.835 20.045 33.855 18.47 34.875 16.677 35.384 14.667 35.384L14.667 35.384zM40.272 29.174C41.652 29.174 42.754 28.642 43.579 27.578 44.404 26.512 44.817 25.095 44.817 23.325 44.817 21.555 44.404 20.145 43.579 19.094 42.754 18.045 41.652 17.52 40.272 17.52 38.892 17.52 37.79 18.045 36.965 19.094 36.139 20.145 35.727 21.555 35.727 23.325 35.727 25.095 36.139 26.512 36.965 27.578 37.79 28.642 38.892 29.174 40.272 29.174zM40.272 35.384C37.812 35.384 35.644 34.867 33.77 33.833 31.895 32.797 30.424 31.379 29.36 29.58 28.294 27.78 27.762 25.695 27.762 23.325 27.762 20.956 28.294 18.87 29.36 17.07 30.424 15.27 31.895 13.86 33.77 12.839 35.644 11.82 37.812 11.31 40.272 11.31 42.732 11.31 44.899 11.82 46.775 12.839 48.649 13.86 50.12 15.27 51.185 17.07 52.249 18.87 52.782 20.956 52.782 23.325 52.782 25.695 52.249 27.78 51.185 29.58 50.12 31.379 48.649 32.797 46.775 33.833 44.899 34.867 42.732 35.384 40.272 35.384L40.272 35.384zM71.997 34.799L71.592 31.785C70.842 32.895 69.859 33.772 68.644 34.417 67.43 35.062 66.117 35.384 64.707 35.384 62.037 35.384 59.997 34.597 58.587 33.022 57.176 31.447 56.472 29.174 56.472 26.205L56.472 11.895 64.302 11.895 64.302 25.304C64.302 27.795 65.442 29.04 67.722 29.04 70.122 29.04 71.322 27.54 71.322 24.54L71.322 11.895 79.152 11.895 79.152 34.799 71.997 34.799M95.666 27.915C96.986 27.915 98.052 27.442 98.862 26.498 99.671 25.552 100.077 24.285 100.077 22.695 100.077 21.105 99.671 19.837 98.862 18.892 98.052 17.947 96.986 17.475 95.666 17.475 94.316 17.475 93.237 17.947 92.427 18.892 91.617 19.837 91.211 21.105 91.211 22.695 91.211 24.255 91.617 25.515 92.427 26.475 93.237 27.435 94.316 27.915 95.666 27.915zM107.816 32.37C107.816 34.71 107.276 36.712 106.197 38.377 105.117 40.042 103.624 41.317 101.719 42.203 99.813 43.087 97.601 43.53 95.081 43.53 93.041 43.53 91.106 43.259 89.276 42.719 87.446 42.179 85.811 41.46 84.372 40.56L87.296 35.52C88.316 36.12 89.389 36.607 90.514 36.982 91.639 37.357 92.801 37.545 94.001 37.545 96.011 37.545 97.512 37.094 98.501 36.195 99.492 35.295 99.987 34.02 99.987 32.37L99.987 31.56C99.206 32.34 98.269 32.962 97.174 33.427 96.079 33.893 94.931 34.125 93.731 34.125 91.662 34.125 89.839 33.637 88.264 32.663 86.689 31.688 85.458 30.337 84.574 28.612 83.689 26.887 83.247 24.916 83.247 22.695 83.247 20.445 83.681 18.464 84.552 16.754 85.421 15.045 86.636 13.711 88.197 12.749 89.756 11.79 91.556 11.31 93.597 11.31 94.976 11.31 96.259 11.64 97.444 12.299 98.629 12.96 99.566 13.83 100.257 14.91L100.662 11.895 107.816 11.895 107.816 32.37 107.816 32.37zM121.136 22.2L121.136 34.799 113.306 34.799 113.306 1.95 121.136 1.95 121.136 14.549C121.886 13.56 122.838 12.772 123.994 12.187 125.148 11.602 126.401 11.31 127.751 11.31 130.241 11.31 132.236 12.12 133.736 13.74 135.236 15.36 135.986 17.685 135.986 20.714L135.986 34.799 128.156 34.799 128.156 21.615C128.156 20.265 127.856 19.268 127.256 18.623 126.656 17.977 125.816 17.655 124.736 17.655 123.656 17.655 122.786 18 122.126 18.69 121.466 19.38 121.136 20.55 121.136 22.2"/>
    <polyline class="no-color-change" fill="#009BFF" points="155.966 34.799 148.901 23.37 148.901 34.799 141.071 34.799 141.071 1.95 148.901 1.95 148.901 21.12 156.191 11.895 165.506 11.895 156.866 21.975 165.371 34.799 155.966 34.799"/>
    <path class="no-color-change" fill="#009BFF" d="M178.24 16.98C175.69 16.98 174.16 18.33 173.65 21.03L182.38 21.03C182.17 19.56 181.667 18.517 180.872 17.902 180.078 17.288 179.2 16.98 178.24 16.98zM188.95 32.46C187.809 33.27 186.363 33.96 184.608 34.53 182.852 35.099 180.985 35.384 179.005 35.384 176.275 35.384 173.943 34.882 172.008 33.877 170.073 32.873 168.588 31.469 167.553 29.67 166.518 27.87 166 25.799 166 23.46 166 21.09 166.51 18.99 167.53 17.16 168.55 15.331 169.96 13.897 171.76 12.862 173.56 11.828 175.66 11.31 178.06 11.31 180.4 11.31 182.462 11.812 184.247 12.817 186.032 13.823 187.427 15.217 188.433 17.003 189.437 18.788 189.94 20.88 189.94 23.28 189.94 23.61 189.918 23.955 189.872 24.315 189.828 24.674 189.775 25.05 189.715 25.44L173.74 25.44C174.46 28.08 176.425 29.4 179.635 29.4 181.075 29.4 182.35 29.174 183.46 28.725 184.57 28.275 185.5 27.825 186.25 27.375L188.95 32.46 188.95 32.46zM204.79 16.98C202.24 16.98 200.71 18.33 200.2 21.03L208.93 21.03C208.72 19.56 208.217 18.517 207.423 17.902 206.627 17.288 205.75 16.98 204.79 16.98zM215.5 32.46C214.36 33.27 212.913 33.96 211.158 34.53 209.403 35.099 207.535 35.384 205.555 35.384 202.825 35.384 200.493 34.882 198.558 33.877 196.623 32.873 195.138 31.469 194.103 29.67 193.068 27.87 192.55 25.799 192.55 23.46 192.55 21.09 193.06 18.99 194.08 17.16 195.1 15.331 196.51 13.897 198.31 12.862 200.11 11.828 202.21 11.31 204.61 11.31 206.95 11.31 209.013 11.812 210.798 12.817 212.582 13.823 213.977 15.217 214.983 17.003 215.988 18.788 216.49 20.88 216.49 23.28 216.49 23.61 216.468 23.955 216.423 24.315 216.378 24.674 216.325 25.05 216.265 25.44L200.29 25.44C201.01 28.08 202.975 29.4 206.185 29.4 207.625 29.4 208.9 29.174 210.01 28.725 211.12 28.275 212.05 27.825 212.8 27.375L215.5 32.46 215.5 32.46zM232.69 29.174C234.07 29.174 235.172 28.642 235.997 27.578 236.822 26.512 237.235 25.095 237.235 23.325 237.235 21.555 236.822 20.137 235.997 19.072 235.172 18.007 234.07 17.475 232.69 17.475 231.34 17.475 230.252 18.007 229.428 19.072 228.602 20.137 228.19 21.555 228.19 23.325 228.19 25.095 228.602 26.512 229.428 27.578 230.252 28.642 231.34 29.174 232.69 29.174zM234.805 35.384C233.455 35.384 232.225 35.099 231.115 34.53 230.005 33.96 229.075 33.179 228.325 32.19L228.325 43.125 220.495 43.125 220.495 11.895 227.65 11.895 228.055 14.91C228.775 13.83 229.743 12.96 230.957 12.299 232.173 11.64 233.575 11.31 235.165 11.31 237.115 11.31 238.84 11.82 240.34 12.839 241.84 13.86 243.024 15.27 243.894 17.07 244.765 18.87 245.2 20.956 245.2 23.325 245.2 25.695 244.757 27.788 243.872 29.602 242.987 31.417 241.758 32.835 240.183 33.855 238.607 34.875 236.814 35.384 234.805 35.384L234.805 35.384zM257.8 35.384C255.819 35.384 253.967 35.07 252.242 34.44 250.517 33.81 248.964 32.91 247.585 31.74L250.915 27.33C251.965 28.17 253.098 28.853 254.312 29.377 255.527 29.903 256.72 30.165 257.89 30.165 258.67 30.165 259.292 30.03 259.757 29.759 260.222 29.49 260.455 29.085 260.455 28.545 260.455 27.975 260.191 27.517 259.667 27.172 259.142 26.828 258.205 26.49 256.854 26.16L254.694 25.62C250.404 24.48 248.26 22.185 248.26 18.735 248.26 17.205 248.68 15.885 249.519 14.775 250.359 13.666 251.515 12.81 252.984 12.21 254.454 11.61 256.164 11.31 258.114 11.31 260.034 11.31 261.842 11.61 263.537 12.21 265.231 12.81 266.784 13.68 268.194 14.82L264.774 19.32C263.725 18.48 262.614 17.805 261.444 17.295 260.274 16.785 259.18 16.53 258.16 16.53 256.51 16.53 255.684 17.07 255.684 18.15 255.684 18.63 255.933 19.02 256.427 19.32 256.922 19.62 257.62 19.89 258.519 20.129L261.444 20.94C263.634 21.541 265.254 22.44 266.305 23.64 267.354 24.84 267.88 26.265 267.88 27.915 267.88 29.416 267.459 30.727 266.62 31.852 265.779 32.977 264.601 33.847 263.087 34.462 261.572 35.077 259.809 35.384 257.8 35.384M272.154 34.799L272.154 11.895C273.414 12.165 274.689 12.299 275.979 12.299 277.299 12.299 278.635 12.165 279.984 11.895L279.984 34.799 272.154 34.799zM275.979 10.094C274.689 10.094 273.587 9.637 272.672 8.722 271.757 7.807 271.3 6.705 271.3 5.415 271.3 4.126 271.757 3.023 272.672 2.107 273.587 1.193 274.689.735 275.979.735 277.269.735 278.371 1.193 279.287 2.107 280.202 3.023 280.659 4.126 280.659 5.415 280.659 6.705 280.202 7.807 279.287 8.722 278.371 9.637 277.269 10.094 275.979 10.094L275.979 10.094zM296.319 16.98C293.768 16.98 292.239 18.33 291.729 21.03L300.459 21.03C300.249 19.56 299.746 18.517 298.951 17.902 298.156 17.288 297.279 16.98 296.319 16.98zM307.029 32.46C305.889 33.27 304.441 33.96 302.686 34.53 300.932 35.099 299.064 35.384 297.084 35.384 294.353 35.384 292.021 34.882 290.087 33.877 288.151 32.873 286.667 31.469 285.632 29.67 284.597 27.87 284.079 25.799 284.079 23.46 284.079 21.09 284.589 18.99 285.609 17.16 286.629 15.331 288.039 13.897 289.839 12.862 291.639 11.828 293.738 11.31 296.139 11.31 298.479 11.31 300.541 11.812 302.326 12.817 304.111 13.823 305.506 15.217 306.512 17.003 307.517 18.788 308.019 20.88 308.019 23.28 308.019 23.61 307.997 23.955 307.951 24.315 307.906 24.674 307.853 25.05 307.794 25.44L291.819 25.44C292.539 28.08 294.504 29.4 297.714 29.4 299.154 29.4 300.429 29.174 301.539 28.725 302.648 28.275 303.579 27.825 304.329 27.375L307.029 32.46 307.029 32.46z"/>
    <path fill="#404040" d="M319.943 43.125L318.458 36.735C319.779 36.615 320.844 36.179 321.653 35.429 322.464 34.68 322.868 33.629 322.868 32.28L322.868 11.895C324.129 12.165 325.403 12.299 326.693 12.299 328.014 12.299 329.349 12.165 330.698 11.895L330.698 31.875C330.698 35.205 329.836 37.83 328.111 39.75 326.386 41.67 323.663 42.795 319.943 43.125M347.304 29.174C348.683 29.174 349.785 28.642 350.611 27.578 351.435 26.512 351.849 25.095 351.849 23.325 351.849 21.555 351.435 20.145 350.611 19.094 349.785 18.045 348.683 17.52 347.304 17.52 345.923 17.52 344.82 18.045 343.996 19.094 343.171 20.145 342.759 21.555 342.759 23.325 342.759 25.095 343.171 26.512 343.996 27.578 344.82 28.642 345.923 29.174 347.304 29.174zM347.304 35.384C344.843 35.384 342.676 34.867 340.801 33.833 338.926 32.797 337.455 31.379 336.391 29.58 335.326 27.78 334.794 25.695 334.794 23.325 334.794 20.956 335.326 18.87 336.391 17.07 337.455 15.27 338.926 13.86 340.801 12.839 342.676 11.82 344.843 11.31 347.304 11.31 349.763 11.31 351.931 11.82 353.806 12.839 355.681 13.86 357.15 15.27 358.216 17.07 359.28 18.87 359.813 20.956 359.813 23.325 359.813 25.695 359.28 27.78 358.216 29.58 357.15 31.379 355.681 32.797 353.806 33.833 351.931 34.867 349.763 35.384 347.304 35.384L347.304 35.384zM379.028 34.799L378.623 31.785C377.873 32.895 376.891 33.772 375.676 34.417 374.461 35.062 373.148 35.384 371.738 35.384 369.067 35.384 367.028 34.597 365.618 33.022 364.208 31.447 363.503 29.174 363.503 26.205L363.503 11.895 371.333 11.895 371.333 25.304C371.333 27.795 372.473 29.04 374.753 29.04 377.153 29.04 378.353 27.54 378.353 24.54L378.353 11.895 386.184 11.895 386.184 34.799 379.028 34.799M399.503 25.935L399.503 34.799 391.673 34.799 391.673 11.895 398.828 11.895 399.323 15.719C399.803 14.49 400.59 13.492 401.685 12.727 402.78 11.962 404.048 11.58 405.488 11.58 406.298 11.58 406.912 11.685 407.333 11.895L407.333 19.049C407.002 18.93 406.636 18.84 406.23 18.78 405.825 18.72 405.367 18.69 404.857 18.69 403.298 18.69 402.015 19.268 401.011 20.422 400.005 21.578 399.503 23.415 399.503 25.935M418.942 22.155L418.942 34.799 411.112 34.799 411.112 11.895 418.267 11.895 418.672 14.91C419.422 13.83 420.397 12.96 421.598 12.299 422.797 11.64 424.117 11.31 425.557 11.31 428.047 11.31 430.041 12.12 431.542 13.74 433.042 15.36 433.792 17.685 433.792 20.714L433.792 34.799 425.962 34.799 425.962 21.615C425.962 20.265 425.662 19.268 425.061 18.623 424.462 17.977 423.622 17.655 422.542 17.655 421.462 17.655 420.592 18 419.933 18.69 419.272 19.38 418.942 20.535 418.942 22.155M445.042 27.375C445.042 28.065 445.296 28.627 445.807 29.062 446.316 29.498 446.976 29.714 447.786 29.714 448.866 29.714 449.773 29.347 450.509 28.612 451.244 27.877 451.611 26.955 451.611 25.844L451.611 25.08C450.802 24.93 449.946 24.855 449.047 24.855 447.906 24.855 446.954 25.05 446.189 25.44 445.424 25.83 445.042 26.475 445.042 27.375zM451.927 34.799L451.521 31.785C450.021 34.185 447.741 35.384 444.682 35.384 443.332 35.384 442.108 35.092 441.014 34.507 439.919 33.922 439.049 33.12 438.404 32.1 437.759 31.081 437.436 29.895 437.436 28.545 437.436 25.996 438.434 24.015 440.429 22.605 442.424 21.195 445.057 20.49 448.326 20.49 449.346 20.49 450.426 20.58 451.566 20.759 451.446 19.62 450.959 18.757 450.104 18.172 449.249 17.587 448.206 17.295 446.976 17.295 445.896 17.295 444.809 17.498 443.714 17.902 442.618 18.307 441.576 18.795 440.587 19.365L437.932 14.325C439.432 13.365 441.052 12.623 442.792 12.097 444.531 11.573 446.271 11.31 448.012 11.31 450.111 11.31 452.001 11.67 453.682 12.39 455.361 13.11 456.681 14.206 457.642 15.674 458.601 17.145 459.082 19.004 459.082 21.254L459.082 34.799 451.927 34.799 451.927 34.799z"/>
    <polygon fill="#404040" points="464.077 34.8 471.907 34.8 471.907 1.95 464.077 1.95"/>
    <path class="no-color-change" fill="#009BFF" d="M326.693,10.094 C325.403,10.094 324.301,9.637 323.386,8.722 C322.471,7.807 322.014,6.705 322.014,5.415 C322.014,4.126 322.471,3.023 323.386,2.107 C324.301,1.193 325.403,0.735 326.693,0.735 C327.983,0.735 329.086,1.193 330.001,2.107 C330.916,3.023 331.373,4.126 331.373,5.415 C331.373,6.705 330.916,7.807 330.001,8.722 C329.086,9.637 327.983,10.094 326.693,10.094"/>
  </g>
</svg>
