<svg xmlns="http://www.w3.org/2000/svg" width="467" height="46" viewBox="0 0 467 46">
  <g fill="none" fill-rule="evenodd">
    <path fill="#3A3B38" d="M8.681,18.538 L21.383,18.538 L21.383,10.041 L8.681,10.041 L8.681,18.538 Z M0,0.937 L0,46 L8.681,46 L8.681,27.641 L30.063,27.641 L30.063,0.937 L0,0.937 Z"/>
    <polygon fill="#3A3B38" points="74.382 10.041 104.445 10.041 104.445 .937 74.382 .937"/>
    <polygon fill="#3A3B38" points="74.382 46 104.445 46 104.445 36.896 74.382 36.896"/>
    <polygon fill="#3A3B38" points="74.382 27.945 104.445 27.945 104.445 18.841 74.382 18.841"/>
    <polyline fill="#3A3B38" points="59.992 .937 52.107 17.759 44.224 .937 35.12 .937 47.258 26.838 47.258 46 56.957 46 56.957 26.838 69.095 .937 59.992 .937"/>
    <polyline fill="#3A3B38" points="199.897 18.841 199.897 27.944 206.178 27.944 206.178 36.896 194.947 36.896 194.947 10.041 215.704 10.041 215.704 .937 185.641 .937 185.641 46 215.704 46 215.704 18.841 199.897 18.841"/>
    <polyline fill="#3A3B38" points="169.89 13.19 158.047 .937 148.937 .937 148.937 46 158.047 46 158.047 14.811 169.89 26.845 169.89 46 179.001 46 179.001 .937 169.89 .937 169.89 13.19"/>
    <path fill="#3A3B38" d="M120.872,36.897 L132.707,36.897 L132.707,10.041 L120.872,10.041 L120.872,36.897 Z M111.768,46 L141.833,46 L141.833,0.937 L111.768,0.937 L111.768,46 Z"/>
    <polyline fill="#DC3B49" class='no-color-change' points="224.732 .937 224.732 46 254.795 46 254.795 36.896 234.193 36.896 234.193 10.041 254.795 10.041 254.795 .937 224.732 .937"/>
    <polyline fill="#DC3B49" class='no-color-change' points="282.76 18.841 270.917 18.841 270.917 .937 261.807 .937 261.807 46 270.917 46 270.917 27.945 282.76 27.945 282.76 46 291.87 46 291.87 .937 282.76 .937 282.76 18.841"/>
    <path fill="#DC3B49" class='no-color-change' d="M308.222,18.841 L320.065,18.841 L320.065,10.041 L308.222,10.041 L308.222,18.841 Z M299.112,0.937 L299.112,46 L308.222,46 L308.222,27.945 L320.065,27.945 L320.065,46 L329.175,46 L329.175,0.937 L299.112,0.937 Z"/>
    <polyline fill="#DC3B49" class='no-color-change' points="357.451 13.19 345.608 .937 336.499 .937 336.499 46 345.608 46 345.608 14.811 357.451 26.845 357.451 46 366.561 46 366.561 .937 357.451 .937 357.451 13.19"/>
    <polyline fill="#DC3B49" class='no-color-change' points="387.921 18.841 387.921 27.944 394.202 27.944 394.202 36.896 382.971 36.896 382.971 10.041 403.728 10.041 403.728 .937 373.666 .937 373.666 46 403.728 46 403.728 18.841 387.921 18.841"/>
    <polygon fill="#3A3B38" points="419.678 46 428.781 46 428.781 .938 419.678 .938"/>
    <path fill="#3A3B38" d="M445.271,18.841 L457.409,18.841 L457.409,10.041 L445.271,10.041 L445.271,18.841 Z M445.271,36.896 L457.409,36.896 L457.409,27.944 L445.271,27.944 L445.271,36.896 Z M436.168,45.999 L466.513,45.999 L466.513,0.937 L436.168,0.937 L436.168,45.999 Z"/>
  </g>
</svg>
