<svg id="Layer_1" data-name="Layer 1" xmlns="http://www.w3.org/2000/svg" viewBox="0 0 421.88 82.65" height="82.65" width="421.88">
    <defs>
        <style>
            .cls-1 {
                fill: #231f20;
            }
            .cls-2 {
                fill: #414042;
            }
        </style>
    </defs>
    <title>Redding</title><path
        class="cls-1"
        d="M191.13,57.61A9.39,9.39,0,0,1,184,61c-2.27,0-4-.95-5.93-2.27-.8-.51-1.1-1-2-1s-1.83,1-3.51,3H170V43.26h2.42c3,9.52,6.59,15.52,11.64,15.52A5.86,5.86,0,0,0,188,57.16c1.17-1.17,1.68-2.49,1.68-4.91,0-4.9-3.22-10-10.39-16.47-5.34-4.83-9.08-9.15-9.08-17.2,0-6.88,3.73-13.18,10.25-13.18a9.18,9.18,0,0,1,4.76,1.54,3.08,3.08,0,0,0,1.9.88c.59,0,1.24-.59,2.71-2.27h2.12V22.32h-2.27c-.73-5.2-4-14.86-9.59-14.86a4.57,4.57,0,0,0-3.66,1.91,8.07,8.07,0,0,0-1.61,5.2c0,4.68,5.05,9.52,9.59,13.4,6.88,5.86,10.1,11.28,10.1,18.67C194.5,51.09,193.25,55.34,191.13,57.61Z"/><path
        class="cls-1"
        d="M205.1,43c0,5.34.29,8.35,1.17,11.27.73,2.56,2.34,3.59,4.32,3.59,2.71,0,5.64-3.15,6.22-9h1.46C218.35,55.34,215.13,61,209,61c-7.32,0-11.49-8.56-11.49-18.08s3-18.81,11.05-18.81c7.76,0,10,10.1,10,18.81Zm6.29-13.62c-.29-2.12-1.1-3.73-2.78-3.73s-2.71,1.32-3,3.81a90.65,90.65,0,0,0-.51,11.27h6.73A113.53,113.53,0,0,0,211.39,29.35Z"/><path
        class="cls-1"
        d="M240.6,61c-2,0-4.32-2-5-5-1.83,2.64-4.83,5-7.69,5-3.66,0-6.81-3-6.81-8.64,0-8.2,7.76-12,13.69-14.28V31.91c0-4-1.61-6-4.1-6-1.91,0-4,1.47-4,2.2a3.81,3.81,0,0,1,3.22,3.51A3.7,3.7,0,0,1,226,35.42a3.77,3.77,0,0,1-3.88-4c0-3.73,4.25-7.32,9.88-7.32a11.25,11.25,0,0,1,6,1.61c2.71,1.69,3.59,4.83,3.59,8.42V51.89c0,3.15.37,4.76,1.61,4.76s1.83-1.54,1.91-4h1.46C246.6,56.07,245.14,61,240.6,61Zm-5.79-20.93a10.51,10.51,0,0,0-6.59,10c0,4,.44,7,3.07,7,1.76,0,3.51-2.2,3.51-4.39Z"/><path
        class="cls-1"
        d="M265.27,32.42c-2.57,0-3.88-2.56-4-3.88-2.41,1.32-3.8,8.78-3.8,13.54V56.43c0,1.69,1.24,2.19,2.71,2.34l.73.07v1.46H247.7V58.85l.73-.07c1.24-.15,2.27-.66,2.27-2.34V29.71a3.08,3.08,0,0,0-2.63-3.37l-.73-.07V25l10-.37.15,6.66c1.39-3.08,3.51-7.1,7-7.1a4.42,4.42,0,0,1,4.47,4.61A3.59,3.59,0,0,1,265.27,32.42Z"/><path
        class="cls-1"
        d="M280.86,61C273,61,269.15,52.48,269.15,43s3.66-18.81,12.22-18.81A7.42,7.42,0,0,1,289,31.55c0,.88-.51,4.1-3.66,4.1-2,0-3.15-1.68-3.15-3.59,0-2.49,1.39-4,3.3-4.17-.15-1.17-1.61-2.27-3.37-2.27a4.35,4.35,0,0,0-4,3.37c-1.17,3.88-1.39,6.88-1.39,14,0,5.49.44,8.49,1.46,11.5a4.39,4.39,0,0,0,4.25,3.29c3.59,0,6.15-4.17,6.15-9.88H290C290.3,54.38,287.67,61,280.86,61Z"/><path
        class="cls-1"
        d="M307.07,60.31V31.55A2.87,2.87,0,0,0,304,28.4c-1.61,0-3.81,2.34-3.81,5.27V56.43c0,1.69.73,2.05,1.91,2.27l.73.15v1.46H290.6V58.85l.73-.15c1.1-.22,2-.59,2-2.27V10.17c0-2.12-.88-2.49-1.76-2.56l-.73-.07V6.07c3.37-.07,3.44.07,9.3-.29V29.13c2-2.93,3.88-5,7.32-5,4,0,6.37,3.15,6.37,7.83V56.43c0,1.69.37,2,1.54,2.19l1.1.22v1.46Z"/><path class="cls-1" d="M319.08,60.31V58.85l.73-.15c1.1-.22,2-.59,2-2.27V10.17c0-2.12-1-2.49-1.9-2.56l-.73-.07V6.07c3.37-.07,3.59.07,9.44-.29V56.43c0,1.69.88,2.05,2.05,2.27l.73.15v1.46Z"/><path class="cls-1" d="M334.15,60.31V58.85l.73-.15a2.15,2.15,0,0,0,2.05-2.27V28.84a2.11,2.11,0,0,0-2.05-2.34l-.73-.07V25l9.59-.37V56.43a2,2,0,0,0,1.9,2.27l.73.15v1.46Zm6.15-46.56a3.94,3.94,0,0,1-4-4,4,4,0,1,1,7.9,0A3.94,3.94,0,0,1,340.31,13.76Z"/><path
        class="cls-1"
        d="M369.22,69.76c-2.78,2.34-6.44,3.37-10.54,3.37-3.08,0-6.45-.59-8.78-2.13a5.25,5.25,0,0,1-2.71-4.17,4.52,4.52,0,0,1,1.46-3.3,54.52,54.52,0,0,1,4.39-3.8c-1.68-.73-4.1-2.27-4.1-5s3.52-5.71,6.22-7.32l-.44-.22c-2.85-1.53-5.71-4.68-5.71-10.9,0-6.44,3-9.59,5.86-11.13a8.67,8.67,0,0,1,4.39-1,8.43,8.43,0,0,1,4.32,1A14.94,14.94,0,0,1,367,20.64a3.61,3.61,0,0,1,2.56-1,2.59,2.59,0,0,1,2.56,2.56,2.47,2.47,0,0,1-2.41,2.56,2.51,2.51,0,0,1-2.41-2c-1,.37-1.83,1.76-2.34,3.22,2.41,1.76,4.61,4.83,4.61,10.32,0,6.22-3,9.37-5.85,10.9a9,9,0,0,1-4.4,1.17,8.38,8.38,0,0,1-2.27-.29c-2.05,1-3.44,2.56-3.44,3.81,0,1.76,1.54,2.27,4,2.34,1.91.07,3.37.22,4.83.29,4.91.22,10,3.22,10,8.42A8.69,8.69,0,0,1,369.22,69.76ZM363.51,61c-3.15-.37-5.42-.37-8.06-.73-1.83,1.32-3.8,3.3-3.8,6.15,0,3.73,4,5.2,7.76,5.2,4.54,0,9.66-2.34,9.66-6.22C369.07,62.88,366.88,61.41,363.51,61ZM362,28.18a2.79,2.79,0,0,0-5.56,0,43.54,43.54,0,0,0-.51,8.05,42.54,42.54,0,0,0,.51,8c.36,1.83,1.46,2.71,2.78,2.71s2.42-.88,2.78-2.71a42.18,42.18,0,0,0,.51-8A43.17,43.17,0,0,0,362,28.18Z"/><path
        class="cls-1"
        d="M391.33,60.31V31.55a2.87,2.87,0,0,0-3.08-3.15c-1.61,0-3.8,2.34-3.8,5.27V56.43c0,1.69.73,2.05,1.9,2.27l.73.15v1.46H374.85V58.85l.73-.15c1.1-.22,2.05-.59,2.05-2.27V10.17c0-2.12-.88-2.49-1.76-2.56l-.73-.07V6.07c3.37-.07,3.44.07,9.3-.29V29.13c2-2.93,3.88-5,7.32-5,4,0,6.37,3.15,6.37,7.83V56.43c0,1.69.37,2,1.54,2.19l1.1.22v1.46Z"/><path
        class="cls-1"
        d="M420,52.48c-.29,5.35-3.08,8.56-8.06,8.56-2.56,0-6.22-1.46-6.73-6.51-.07-.8-.07-1.61-.07-2.78V27.15h-4.69V25.69c4.69-2.2,8.35-6.3,9.22-16.25h2.42V25h6.66v2.19h-6.66v25.4c0,3.88,1.24,5.05,2.78,5.05,1.9,0,3.36-2.35,3.66-6.08l.15-1.83,1.46.07Z"/><path
        class="cls-1"
        d="M28.12,60.75c-5,0-6.88-3.81-7.32-8.2-.44-4.17-.44-8.71-.59-12.88-.15-3.59-1.1-7.83-5.64-7.83H13.26V55c0,2.34.88,2.93,2.71,3.22l1,.15v1.9H1.77v-1.9l.95-.15C4.18,58,4.77,57.38,4.77,55V11.41c0-2.34-.59-3-2.05-3.22L1.77,8V6.14H16.48c9.15,0,14.13,5.42,14.13,13.1,0,5.93-3.29,8.34-7.1,10.32a21.42,21.42,0,0,1-5,1.54,15.41,15.41,0,0,1,6.66,4c3,3.15,3.66,7.91,3.81,12.88.22,7.39.44,9.59,1.76,9.59,1.17,0,2-3.15,2.12-5.86l1.46.15C34.27,55.19,33.17,60.75,28.12,60.75ZM20.21,9.87C19.19,8.48,17.43,8,15.53,8c-1,0-2.27.15-2.27,1.32V29.93h1.32c2.34,0,4.39-.51,5.56-1.91,2-2.34,2-5.42,2-8.78C22.19,14.93,22,12.07,20.21,9.87Z"/><path
        class="cls-1"
        d="M43.64,43c0,5.34.29,8.34,1.17,11.27.73,2.56,2.34,3.59,4.32,3.59,2.71,0,5.64-3.15,6.22-9h1.46C56.89,55.33,53.67,61,47.59,61,40.27,61,36.1,52.48,36.1,43s3-18.81,11.05-18.81c7.76,0,10,10.1,10,18.81Zm6.29-13.62c-.29-2.12-1.1-3.73-2.78-3.73s-2.71,1.32-3,3.81a91.48,91.48,0,0,0-.51,11.28h6.73A113.52,113.52,0,0,0,49.94,29.35Z"/><path
        class="cls-1"
        d="M72,61C64.12,61,60.24,52.48,60.24,43S63.9,24.15,72.46,24.15a7.42,7.42,0,0,1,7.62,7.4c0,.88-.51,4.1-3.66,4.1-2,0-3.15-1.68-3.15-3.59,0-2.49,1.39-4,3.29-4.17-.14-1.17-1.61-2.27-3.37-2.27a4.36,4.36,0,0,0-4,3.37c-1.17,3.88-1.39,6.88-1.39,14,0,5.49.44,8.49,1.46,11.49a4.4,4.4,0,0,0,4.25,3.29c3.59,0,6.15-4.17,6.15-9.88H81.1C81.4,54.38,78.76,61,72,61Z"/><path
        class="cls-1"
        d="M100.72,59.51a9.07,9.07,0,0,1-10.1,0c-3.3-2.34-6.81-7.25-6.81-16.84s3.51-14.57,6.81-16.91a8.72,8.72,0,0,1,10.1,0c3.3,2.34,6.81,7.18,6.81,16.91S104,57.16,100.72,59.51ZM99.26,29.2c-.66-3-2.34-3.59-3.59-3.59s-2.93.59-3.59,3.59c-.51,2.41-.73,6.29-.73,13.4s.22,11,.73,13.4c.66,3,2.34,3.59,3.59,3.59S98.6,59,99.26,56c.51-2.42.73-6.3.73-13.4S99.77,31.62,99.26,29.2Z"/><path
        class="cls-1"
        d="M126,32.42c-2.56,0-3.88-2.56-4-3.88-2.42,1.32-3.81,8.78-3.81,13.54V56.43c0,1.69,1.24,2.2,2.71,2.35l.73.07v1.47H108.39V58.85l.73-.07c1.25-.15,2.27-.66,2.27-2.35V29.71a3.09,3.09,0,0,0-2.64-3.37l-.73-.07V25l10-.37.15,6.66c1.39-3.07,3.51-7.1,7-7.1a4.41,4.41,0,0,1,4.47,4.61A3.59,3.59,0,0,1,126,32.42Z"/><path
        class="cls-1"
        d="M146.09,60.53,146,57.09c-1.25,2.42-3.08,4-5.49,4-8,0-10-10.18-10-18.08s1.61-18.81,10-18.81a6.31,6.31,0,0,1,5.42,2.93V10.17c0-2.12-1-2.49-1.9-2.56l-.73-.07V6.07c3.37-.08,3.51-.08,9.37-.44V56.29c0,1.68.8,2.19,1.9,2.34l.73.07v1.47Zm-.15-29.21c0-2.27-1.83-4.47-3.59-4.47-2,0-3.66,2.49-4.1,5.71a72.76,72.76,0,0,0-.59,10.4,60.42,60.42,0,0,0,.59,9.59c.44,3.22,2.12,5.34,4.1,5.34,1.76,0,3.59-1.68,3.59-4.76Z"/><path class="cls-2" d="M1.94,70.16H4.29a2.52,2.52,0,1,1,0,5H3.09v3.14H1.94Zm2.23,4.06a1.55,1.55,0,1,0,0-3.09H3.09v3.09Z"/><path class="cls-2" d="M10.33,70.16h1l3.35,8.16H13.47l-.84-2.14H9l-.84,2.14H7S9.93,71.16,10.33,70.16Zm1.92,5.06-.78-2c-.12-.3-.62-1.56-.63-1.66h0c0,.1-.5,1.33-.63,1.66l-.79,2Z"/><path class="cls-2" d="M15.88,70.16h2.36c1.52,0,2.71.79,2.71,2.42a2.27,2.27,0,0,1-2.07,2.3l2.5,3.44H20L17.67,75H17v3.33H15.88Zm2.23,3.9c1.07,0,1.67-.57,1.67-1.47s-.61-1.47-1.67-1.47H17v2.93Z"/><path class="cls-2" d="M24.14,71.15H21.81v-1h5.8v1H25.29v7.17H24.14Z"/><path class="cls-2" d="M30.6,74.24a4.29,4.29,0,1,1,4.29,4.24A4.14,4.14,0,0,1,30.6,74.24Zm7.4,0a3.11,3.11,0,1,0-3.12,3.21A3,3,0,0,0,38,74.24Z"/><path class="cls-2" d="M40.84,70.16H45v1H42v2.63h2.87v1H42v3.56H40.84Z"/><path class="cls-2" d="M50.16,71.15H47.83v-1h5.8v1H51.31v7.17H50.16Z"/><path class="cls-2" d="M54.85,70.16H56v3.35h4.28V70.16h1.15v8.16H60.28V74.5H56v3.83H54.85Z"/><path class="cls-2" d="M63.55,70.16H68v1H64.7v2.37h3.2v1H64.7v2.86h3.36v1H63.55Z"/><path class="cls-2" d="M71.92,75.51V70.16h1.16v5c0,1.42.61,2.29,2,2.29s2-.87,2-2.29v-5h1.16v5.35a3.14,3.14,0,0,1-6.27,0Z"/><path
        class="cls-2"
        d="M79.39,76.85l.78-.66a2.36,2.36,0,0,0,2,1.29,1.41,1.41,0,0,0,1.59-1.38c0-1-.8-1.29-1.8-1.68s-2.06-.92-2.06-2.22A2.23,2.23,0,0,1,82.41,70a2.74,2.74,0,0,1,2.4,1.23l-.78.66A1.85,1.85,0,0,0,82.41,71c-.79,0-1.31.41-1.31,1.09,0,.85.81,1.13,1.52,1.41C83.77,74,85,74.51,85,76a2.48,2.48,0,0,1-2.72,2.48A3.17,3.17,0,0,1,79.39,76.85Z"/><path class="cls-2" d="M88.93,70.16h1l3.35,8.16H92.07l-.84-2.14H87.62l-.84,2.14H85.57S88.53,71.16,88.93,70.16Zm1.92,5.06-.78-2c-.12-.3-.62-1.56-.63-1.66h0c0,.1-.5,1.33-.63,1.66l-.79,2Z"/><path class="cls-2" d="M98.17,71.15H95.84v-1h5.8v1H99.32v7.17H98.17Z"/><path class="cls-2" d="M102.07,74.24a4.29,4.29,0,1,1,4.29,4.24A4.14,4.14,0,0,1,102.07,74.24Zm7.4,0a3.11,3.11,0,1,0-3.12,3.21A3,3,0,0,0,109.47,74.24Z"/><path class="cls-2" d="M112.31,70.16h2.31c2.6,0,4.33,1.49,4.33,4.08s-1.73,4.08-4.33,4.08h-2.31Zm1.15,7.17h1.07c1.91,0,3.23-1,3.23-3.09a2.89,2.89,0,0,0-3.23-3.09h-1.07Z"/><path class="cls-2" d="M122.69,70.16h1l3.35,8.16h-1.23L125,76.18h-3.62l-.84,2.14h-1.21S122.29,71.16,122.69,70.16Zm1.92,5.06-.78-2c-.12-.3-.62-1.56-.63-1.66h0c0,.1-.5,1.33-.63,1.66l-.79,2Z"/><path class="cls-2" d="M129.36,75l-2.78-4.84h1.29l1.51,2.72A12.05,12.05,0,0,1,130,74h0a12.37,12.37,0,0,1,.58-1.16l1.52-2.72h1.26L130.56,75v3.33h-1.2Z"/><path class="cls-2" d="M136.72,70.16h.88l4.63,5.29c.14.15.74.91.8,1h0c0-.11,0-1.06,0-1.27v-5h1.12v8.16h-.9L138.63,73c-.14-.15-.74-.91-.8-1h0c0,.12,0,1.06,0,1.27v5h-1.12Z"/><path class="cls-2" d="M146.27,70.16h4.44v1h-3.29v2.37h3.2v1h-3.2v2.86h3.36v1h-4.51Z"/><path class="cls-2" d="M154.32,71.15H152v-1h5.8v1h-2.33v7.17h-1.15Z"/><path
        class="cls-2"
        d="M158.75,70.16H160L161.65,75c.06.19.45,1.39.47,1.58h0a16.29,16.29,0,0,1,.49-1.58l1.74-4.85h.92L167,75c.07.19.48,1.39.49,1.58h0c0-.19.42-1.39.48-1.58l1.66-4.85h1.17L168,78.32h-.88l-1.88-5.09a13.62,13.62,0,0,1-.4-1.33h0a13.68,13.68,0,0,1-.41,1.33l-1.87,5.09h-.88Z"/><path class="cls-2" d="M171.37,74.24a4.29,4.29,0,1,1,4.29,4.24A4.14,4.14,0,0,1,171.37,74.24Zm7.4,0a3.11,3.11,0,1,0-3.12,3.21A3,3,0,0,0,178.77,74.24Z"/><path class="cls-2" d="M181.61,70.16H184c1.52,0,2.71.79,2.71,2.42a2.27,2.27,0,0,1-2.07,2.3l2.5,3.44h-1.35L183.4,75h-.64v3.33h-1.15Zm2.23,3.9c1.07,0,1.67-.57,1.67-1.47s-.61-1.47-1.67-1.47h-1.08v2.93Z"/><path class="cls-2" d="M188.42,70.16h1.15V74l3.37-3.79h1.4l-3.5,3.9,3.66,4.27h-1.44l-3.49-4.13v4.13h-1.15Z"/></svg>
