<svg xmlns="http://www.w3.org/2000/svg" width="418" height="47" viewBox="0 0 418 47">
  <g fill="none" fill-rule="evenodd">
    <path fill="#404040" d="M1.215 43.587L2.369 43.587C2.748 43.587 3.048 43.494 3.269 43.308 3.489 43.121 3.6 42.866 3.6 42.543 3.6 42.221 3.489 41.967 3.269 41.78 3.048 41.593 2.748 41.5 2.369 41.5L1.215 41.5 1.215 43.587zM.358 46.549L.358 40.778 2.369 40.778C3.014 40.778 3.526 40.937 3.905 41.254 4.284 41.571 4.474 42 4.474 42.543 4.474 43.081 4.284 43.507 3.905 43.821 3.526 44.135 3.014 44.292 2.369 44.292L1.215 44.292 1.215 46.549.358 46.549zM6.205 44.377L8.31 44.377 7.258 41.669 6.205 44.377zM9.15 46.549L8.59 45.098 5.925 45.098 5.365 46.549 4.499 46.549 6.808 40.778 7.733 40.778 10.033 46.549 9.15 46.549zM11.849 43.502L13.028 43.502C13.396 43.502 13.689 43.412 13.907 43.231 14.124 43.05 14.233 42.807 14.233 42.501 14.233 42.196 14.124 41.953 13.907 41.771 13.689 41.59 13.396 41.5 13.028 41.5L11.849 41.5 11.849 43.502zM11.849 44.207L11.849 46.549 10.992 46.549 10.992 40.778 13.028 40.778C13.668 40.778 14.174 40.933 14.548 41.241 14.921 41.549 15.107 41.97 15.107 42.501 15.107 42.903 14.994 43.243 14.768 43.52 14.542 43.797 14.23 43.992 13.835 44.105L15.235 46.549 14.259 46.549 12.943 44.207 11.849 44.207z"/>
    <polyline fill="#404040" points="17.569 46.549 17.569 41.5 15.625 41.5 15.625 40.778 20.369 40.778 20.369 41.5 18.426 41.5 18.426 46.549 17.569 46.549"/>
    <path fill="#404040" d="M25.877,45.896 C26.25,45.896 26.582,45.801 26.874,45.611 C27.165,45.422 27.393,45.161 27.557,44.827 C27.721,44.493 27.803,44.105 27.803,43.664 C27.803,43.223 27.721,42.835 27.557,42.501 C27.393,42.167 27.165,41.906 26.874,41.716 C26.582,41.527 26.25,41.432 25.877,41.432 C25.503,41.432 25.173,41.527 24.884,41.716 C24.595,41.906 24.369,42.167 24.205,42.501 C24.041,42.835 23.959,43.223 23.959,43.664 C23.959,44.105 24.041,44.493 24.205,44.827 C24.369,45.161 24.595,45.422 24.884,45.611 C25.173,45.801 25.503,45.896 25.877,45.896 Z M25.877,46.643 C25.334,46.643 24.853,46.515 24.434,46.261 C24.015,46.006 23.686,45.655 23.445,45.209 C23.205,44.762 23.085,44.246 23.085,43.664 C23.085,43.081 23.205,42.566 23.445,42.119 C23.686,41.672 24.015,41.322 24.434,41.067 C24.853,40.813 25.334,40.685 25.877,40.685 C26.42,40.685 26.902,40.813 27.324,41.067 C27.745,41.322 28.076,41.672 28.317,42.119 C28.557,42.566 28.677,43.081 28.677,43.664 C28.677,44.246 28.557,44.762 28.317,45.209 C28.076,45.655 27.745,46.006 27.324,46.261 C26.902,46.515 26.42,46.643 25.877,46.643 Z"/>
    <polyline fill="#404040" points="30.74 46.549 29.882 46.549 29.882 40.778 33.472 40.778 33.472 41.5 30.74 41.5 30.74 43.452 33.056 43.452 33.056 44.173 30.74 44.173 30.74 46.549"/>
    <polyline fill="#404040" points="37.945 46.549 37.945 41.5 36.001 41.5 36.001 40.778 40.745 40.778 40.745 41.5 38.802 41.5 38.802 46.549 37.945 46.549"/>
    <polyline fill="#404040" points="41.73 46.549 41.73 40.778 42.587 40.778 42.587 43.248 45.565 43.248 45.565 40.778 46.423 40.778 46.423 46.549 45.565 46.549 45.565 43.986 42.587 43.986 42.587 46.549 41.73 46.549"/>
    <polyline fill="#404040" points="47.933 46.549 47.933 40.778 51.633 40.778 51.633 41.5 48.79 41.5 48.79 43.282 51.294 43.282 51.294 44.003 48.79 44.003 48.79 45.828 51.701 45.828 51.701 46.549 47.933 46.549"/>
    <path fill="#404040" d="M57.115 45.896C57.585 45.896 57.954 45.754 58.223 45.472 58.492 45.188 58.626 44.807 58.626 44.326L58.626 40.778 59.483 40.778 59.483 44.334C59.483 45.053 59.272 45.617 58.851 46.027 58.429 46.438 57.851 46.643 57.115 46.643 56.38 46.643 55.803 46.438 55.384 46.027 54.965 45.617 54.756 45.053 54.756 44.334L54.756 40.778 55.613 40.778 55.613 44.326C55.613 44.807 55.748 45.188 56.016 45.472 56.285 45.754 56.652 45.896 57.115 45.896M62.683 46.643C62.247 46.643 61.831 46.566 61.435 46.413 61.039 46.261 60.719 46.057 60.476 45.803L60.96 45.234C61.186 45.443 61.453 45.607 61.762 45.726 62.07 45.845 62.377 45.904 62.683 45.904 63.056 45.904 63.357 45.832 63.586 45.688 63.816 45.543 63.93 45.344 63.93 45.09 63.93 44.858 63.848 44.663 63.684 44.504 63.52 44.346 63.24 44.213 62.844 44.105L62.046 43.893C61.531 43.757 61.156 43.565 60.921 43.316 60.687 43.067 60.569 42.742 60.569 42.34 60.569 42.012 60.657 41.723 60.832 41.474 61.008 41.226 61.25 41.032 61.558 40.893 61.866 40.754 62.216 40.685 62.606 40.685 63.019 40.685 63.407 40.763 63.769 40.918 64.131 41.074 64.451 41.29 64.728 41.568L64.21 42.128C63.967 41.901 63.713 41.728 63.451 41.606 63.187 41.484 62.909 41.423 62.615 41.423 62.258 41.423 61.967 41.498 61.741 41.648 61.514 41.798 61.401 42.006 61.401 42.272 61.401 42.516 61.482 42.705 61.643 42.841 61.804 42.977 62.052 43.09 62.385 43.18L63.277 43.426C63.791 43.568 64.168 43.766 64.405 44.021 64.643 44.275 64.762 44.592 64.762 44.971 64.762 45.305 64.674 45.598 64.499 45.849 64.323 46.101 64.08 46.296 63.769 46.435 63.458 46.573 63.095 46.643 62.683 46.643M66.917 44.377L69.022 44.377 67.97 41.669 66.917 44.377zM69.862 46.549L69.302 45.098 66.637 45.098 66.077 46.549 65.211 46.549 67.52 40.778 68.445 40.778 70.744 46.549 69.862 46.549z"/>
    <polyline fill="#404040" points="74.733 46.549 74.733 41.5 72.79 41.5 72.79 40.778 77.534 40.778 77.534 41.5 75.59 41.5 75.59 46.549 74.733 46.549"/>
    <path fill="#404040" d="M80.623 45.896C80.996 45.896 81.328 45.801 81.62 45.611 81.911 45.422 82.139 45.161 82.303 44.827 82.467 44.493 82.549 44.105 82.549 43.664 82.549 43.223 82.467 42.835 82.303 42.501 82.139 42.167 81.911 41.906 81.62 41.716 81.328 41.527 80.996 41.432 80.623 41.432 80.249 41.432 79.919 41.527 79.63 41.716 79.341 41.906 79.115 42.167 78.951 42.501 78.787 42.835 78.705 43.223 78.705 43.664 78.705 44.105 78.787 44.493 78.951 44.827 79.115 45.161 79.341 45.422 79.63 45.611 79.919 45.801 80.249 45.896 80.623 45.896zM80.623 46.643C80.08 46.643 79.599 46.515 79.18 46.261 78.761 46.006 78.432 45.655 78.192 45.209 77.951 44.762 77.831 44.246 77.831 43.664 77.831 43.081 77.951 42.566 78.192 42.119 78.432 41.672 78.761 41.322 79.18 41.067 79.599 40.813 80.08 40.685 80.623 40.685 81.166 40.685 81.648 40.813 82.07 41.067 82.491 41.322 82.822 41.672 83.063 42.119 83.303 42.566 83.423 43.081 83.423 43.664 83.423 44.246 83.303 44.762 83.063 45.209 82.822 45.655 82.491 46.006 82.07 46.261 81.648 46.515 81.166 46.643 80.623 46.643zM85.486 45.828L86.657 45.828C87.064 45.828 87.413 45.739 87.705 45.561 87.996 45.382 88.22 45.132 88.375 44.81 88.531 44.487 88.609 44.105 88.609 43.664 88.609 43.223 88.531 42.841 88.375 42.518 88.22 42.196 87.996 41.945 87.705 41.767 87.413 41.589 87.064 41.5 86.657 41.5L85.486 41.5 85.486 45.828zM84.629 46.549L84.629 40.778 86.657 40.778C87.223 40.778 87.718 40.899 88.142 41.139 88.566 41.38 88.896 41.716 89.13 42.149 89.365 42.582 89.483 43.087 89.483 43.664 89.483 44.241 89.365 44.746 89.13 45.179 88.896 45.611 88.566 45.948 88.142 46.188 87.718 46.429 87.223 46.549 86.657 46.549L84.629 46.549zM91.672 44.377L93.777 44.377 92.725 41.669 91.672 44.377zM94.617 46.549L94.057 45.098 91.392 45.098 90.832 46.549 89.966 46.549 92.275 40.778 93.2 40.778 95.5 46.549 94.617 46.549z"/>
    <polyline fill="#404040" points="98.131 44.258 98.131 46.549 97.274 46.549 97.274 44.258 95.245 40.778 96.255 40.778 97.706 43.443 99.158 40.778 100.15 40.778 98.131 44.258"/>
    <polyline fill="#404040" points="107.007 46.549 103.927 42.128 103.927 46.549 103.121 46.549 103.121 40.778 103.918 40.778 107.007 45.2 107.007 40.778 107.805 40.778 107.805 46.549 107.007 46.549"/>
    <polyline fill="#404040" points="109.316 46.549 109.316 40.778 113.016 40.778 113.016 41.5 110.173 41.5 110.173 43.282 112.676 43.282 112.676 44.003 110.173 44.003 110.173 45.828 113.084 45.828 113.084 46.549 109.316 46.549"/>
    <polyline fill="#404040" points="115.63 46.549 115.63 41.5 113.686 41.5 113.686 40.778 118.43 40.778 118.43 41.5 116.487 41.5 116.487 46.549 115.63 46.549"/>
    <polyline fill="#404040" points="124.031 46.549 122.682 41.95 121.333 46.549 120.442 46.549 118.905 40.778 119.754 40.778 120.925 45.344 122.275 40.778 123.089 40.778 124.447 45.361 125.627 40.778 126.458 40.778 124.922 46.549 124.031 46.549"/>
    <path fill="#404040" d="M129.862 45.896C130.235 45.896 130.567 45.801 130.859 45.611 131.15 45.422 131.378 45.161 131.542 44.827 131.706 44.493 131.788 44.105 131.788 43.664 131.788 43.223 131.706 42.835 131.542 42.501 131.378 42.167 131.15 41.906 130.859 41.716 130.567 41.527 130.235 41.432 129.862 41.432 129.488 41.432 129.157 41.527 128.869 41.716 128.58 41.906 128.354 42.167 128.19 42.501 128.025 42.835 127.944 43.223 127.944 43.664 127.944 44.105 128.025 44.493 128.19 44.827 128.354 45.161 128.58 45.422 128.869 45.611 129.157 45.801 129.488 45.896 129.862 45.896zM129.862 46.643C129.318 46.643 128.838 46.515 128.419 46.261 128 46.006 127.671 45.655 127.43 45.209 127.19 44.762 127.069 44.246 127.069 43.664 127.069 43.081 127.19 42.566 127.43 42.119 127.671 41.672 128 41.322 128.419 41.067 128.838 40.813 129.318 40.685 129.862 40.685 130.405 40.685 130.887 40.813 131.308 41.067 131.73 41.322 132.061 41.672 132.301 42.119 132.542 42.566 132.662 43.081 132.662 43.664 132.662 44.246 132.542 44.762 132.301 45.209 132.061 45.655 131.73 46.006 131.308 46.261 130.887 46.515 130.405 46.643 129.862 46.643zM134.724 43.502L135.904 43.502C136.272 43.502 136.565 43.412 136.782 43.231 137 43.05 137.109 42.807 137.109 42.501 137.109 42.196 137 41.953 136.782 41.771 136.565 41.59 136.272 41.5 135.904 41.5L134.724 41.5 134.724 43.502zM134.724 44.207L134.724 46.549 133.867 46.549 133.867 40.778 135.904 40.778C136.543 40.778 137.05 40.933 137.423 41.241 137.796 41.549 137.983 41.97 137.983 42.501 137.983 42.903 137.87 43.243 137.644 43.52 137.417 43.797 137.106 43.992 136.71 44.105L138.11 46.549 137.135 46.549 135.819 44.207 134.724 44.207z"/>
    <polyline fill="#404040" points="142.642 46.549 140.054 43.639 140.054 46.549 139.197 46.549 139.197 40.778 140.054 40.778 140.054 43.308 142.472 40.778 143.533 40.778 140.962 43.426 143.72 46.549 142.642 46.549"/>
    <path fill="#009BFF" class='no-color-change' d="M8.458 17.658L12.958 17.658C14.248 17.658 15.268 17.32 16.018 16.645 16.767 15.97 17.143 15.047 17.143 13.877 17.143 12.768 16.767 11.875 16.018 11.2 15.268 10.525 14.248 10.188 12.958 10.188L8.458 10.188 8.458 17.658zM8.458 24.002L8.458 34.172.358 34.172.358 3.573 13.858 3.573C17.458 3.573 20.308 4.495 22.408 6.34 24.507 8.185 25.558 10.698 25.558 13.877 25.558 15.948 25.093 17.733 24.163 19.233 23.233 20.733 21.928 21.903 20.248 22.743L26.503 34.172 17.593 34.172 12.508 24.002 8.458 24.002zM40.768 16.353C38.218 16.353 36.688 17.703 36.178 20.403L44.908 20.403C44.698 18.933 44.195 17.89 43.401 17.275 42.606 16.661 41.728 16.353 40.768 16.353zM51.478 31.832C50.338 32.643 48.891 33.333 47.136 33.903 45.381 34.472 43.513 34.757 41.533 34.757 38.803 34.757 36.471 34.255 34.536 33.25 32.601 32.246 31.116 30.842 30.081 29.042 29.046 27.243 28.528 25.172 28.528 22.833 28.528 20.463 29.038 18.363 30.058 16.533 31.078 14.703 32.488 13.27 34.288 12.235 36.088 11.2 38.188 10.683 40.588 10.683 42.928 10.683 44.991 11.185 46.776 12.19 48.56 13.196 49.955 14.59 50.961 16.375 51.966 18.161 52.468 20.253 52.468 22.653 52.468 22.983 52.446 23.328 52.401 23.687 52.356 24.047 52.303 24.423 52.243 24.812L36.268 24.812C36.988 27.453 38.953 28.773 42.163 28.773 43.603 28.773 44.878 28.547 45.988 28.098 47.098 27.648 48.028 27.198 48.778 26.748L51.478 31.832zM67.183 34.757C64.843 34.757 62.766 34.255 60.951 33.25 59.135 32.246 57.703 30.842 56.653 29.042 55.603 27.243 55.078 25.143 55.078 22.743 55.078 20.343 55.603 18.243 56.653 16.443 57.703 14.643 59.135 13.241 60.951 12.235 62.766 11.23 64.843 10.728 67.183 10.728 69.253 10.728 71.068 11.11 72.628 11.875 74.188 12.64 75.568 13.863 76.768 15.542L71.593 19.323C71.173 18.693 70.626 18.175 69.951 17.77 69.276 17.365 68.548 17.163 67.768 17.163 66.418 17.163 65.293 17.666 64.393 18.67 63.493 19.675 63.043 21.033 63.043 22.743 63.043 24.453 63.493 25.81 64.393 26.815 65.293 27.821 66.418 28.323 67.768 28.323 68.548 28.323 69.276 28.12 69.951 27.715 70.626 27.31 71.173 26.792 71.593 26.163L76.768 29.943C75.568 31.623 74.188 32.845 72.628 33.61 71.068 34.375 69.253 34.757 67.183 34.757M91.393 28.547C92.772 28.547 93.875 28.015 94.7 26.95 95.525 25.885 95.938 24.468 95.938 22.698 95.938 20.928 95.525 19.518 94.7 18.467 93.875 17.417 92.772 16.893 91.393 16.893 90.013 16.893 88.91 17.417 88.085 18.467 87.26 19.518 86.848 20.928 86.848 22.698 86.848 24.468 87.26 25.885 88.085 26.95 88.91 28.015 90.013 28.547 91.393 28.547zM91.393 34.757C88.932 34.757 86.765 34.24 84.89 33.205 83.015 32.17 81.545 30.752 80.48 28.953 79.415 27.153 78.883 25.068 78.883 22.698 78.883 20.328 79.415 18.243 80.48 16.443 81.545 14.643 83.015 13.233 84.89 12.212 86.765 11.193 88.932 10.683 91.393 10.683 93.852 10.683 96.02 11.193 97.895 12.212 99.77 13.233 101.24 14.643 102.305 16.443 103.37 18.243 103.903 20.328 103.903 22.698 103.903 25.068 103.37 27.153 102.305 28.953 101.24 30.752 99.77 32.17 97.895 33.205 96.02 34.24 93.852 34.757 91.393 34.757zM115.827 25.308L115.827 34.172 107.998 34.172 107.998 11.268 115.152 11.268 115.648 15.092C116.127 13.863 116.915 12.865 118.01 12.1 119.105 11.335 120.373 10.953 121.813 10.953 122.623 10.953 123.237 11.058 123.658 11.268L123.658 18.422C123.327 18.303 122.96 18.213 122.555 18.153 122.15 18.093 121.692 18.062 121.182 18.062 119.622 18.062 118.34 18.641 117.335 19.795 116.33 20.951 115.827 22.788 115.827 25.308M138.552 28.547C139.902 28.547 140.989 28.015 141.815 26.95 142.64 25.885 143.052 24.468 143.052 22.698 143.052 20.928 142.64 19.51 141.815 18.445 140.989 17.38 139.902 16.848 138.552 16.848 137.172 16.848 136.069 17.38 135.245 18.445 134.419 19.51 134.007 20.928 134.007 22.698 134.007 24.468 134.419 25.885 135.245 26.95 136.069 28.015 137.172 28.547 138.552 28.547zM143.592 34.172L143.187 31.158C142.467 32.268 141.537 33.145 140.397 33.79 139.257 34.435 137.937 34.757 136.437 34.757 134.367 34.757 132.552 34.247 130.992 33.228 129.432 32.208 128.217 30.79 127.347 28.975 126.477 27.161 126.042 25.068 126.042 22.698 126.042 20.328 126.477 18.243 127.347 16.443 128.217 14.643 129.41 13.233 130.925 12.212 132.439 11.193 134.187 10.683 136.167 10.683 137.547 10.683 138.822 10.975 139.992 11.56 141.162 12.145 142.137 12.933 142.917 13.922L142.917 1.323 150.747 1.323 150.747 34.172 143.592 34.172z"/>
    <path fill="#404040" d="M178.467 34.757C175.976 34.757 173.591 34.33 171.312 33.475 169.032 32.62 167.052 31.398 165.372 29.808L169.422 24.723C170.621 25.802 171.971 26.651 173.472 27.265 174.972 27.88 176.622 28.188 178.422 28.188 179.621 28.188 180.566 27.978 181.257 27.558 181.947 27.138 182.292 26.508 182.292 25.667 182.292 24.858 181.887 24.205 181.077 23.71 180.267 23.215 178.842 22.698 176.802 22.158L174.912 21.663C172.151 20.943 170.052 19.84 168.612 18.355 167.172 16.87 166.452 14.988 166.452 12.708 166.452 10.758 166.961 9.048 167.982 7.578 169.001 6.108 170.412 4.975 172.212 4.18 174.012 3.385 176.097 2.988 178.467 2.988 180.807 2.988 183.041 3.415 185.172 4.27 187.302 5.125 189.191 6.288 190.842 7.757L186.657 13.023C185.577 12.093 184.309 11.283 182.854 10.592 181.399 9.903 179.952 9.558 178.512 9.558 177.311 9.558 176.389 9.76 175.744 10.165 175.099 10.57 174.777 11.163 174.777 11.943 174.777 12.663 175.114 13.286 175.789 13.81 176.464 14.335 177.626 14.823 179.277 15.273L181.572 15.903C184.871 16.802 187.204 18.033 188.569 19.592 189.934 21.153 190.617 22.967 190.617 25.038 190.617 26.988 190.114 28.69 189.109 30.145 188.104 31.601 186.686 32.733 184.857 33.542 183.027 34.353 180.897 34.757 178.467 34.757M205.871 16.353C203.321 16.353 201.791 17.703 201.282 20.403L210.012 20.403C209.801 18.933 209.299 17.89 208.504 17.275 207.709 16.661 206.831 16.353 205.871 16.353zM216.581 31.832C215.441 32.643 213.994 33.333 212.239 33.903 210.484 34.472 208.617 34.757 206.637 34.757 203.906 34.757 201.574 34.255 199.639 33.25 197.704 32.246 196.219 30.842 195.184 29.042 194.149 27.243 193.632 25.172 193.632 22.833 193.632 20.463 194.141 18.363 195.161 16.533 196.181 14.703 197.592 13.27 199.391 12.235 201.191 11.2 203.291 10.683 205.691 10.683 208.032 10.683 210.094 11.185 211.879 12.19 213.663 13.196 215.058 14.59 216.064 16.375 217.069 18.161 217.572 20.253 217.572 22.653 217.572 22.983 217.549 23.328 217.504 23.687 217.459 24.047 217.406 24.423 217.347 24.812L201.371 24.812C202.092 27.453 204.056 28.773 207.266 28.773 208.706 28.773 209.981 28.547 211.092 28.098 212.201 27.648 213.131 27.198 213.882 26.748L216.581 31.832zM227.741 26.748C227.741 27.438 227.996 28 228.506 28.435 229.016 28.871 229.676 29.087 230.486 29.087 231.566 29.087 232.474 28.72 233.209 27.985 233.944 27.25 234.311 26.328 234.311 25.217L234.311 24.453C233.501 24.303 232.646 24.228 231.746 24.228 230.606 24.228 229.654 24.423 228.889 24.812 228.124 25.203 227.741 25.848 227.741 26.748zM234.626 34.172L234.221 31.158C232.721 33.558 230.441 34.757 227.381 34.757 226.031 34.757 224.808 34.465 223.714 33.88 222.619 33.295 221.748 32.493 221.104 31.473 220.458 30.453 220.136 29.268 220.136 27.917 220.136 25.368 221.133 23.388 223.129 21.978 225.123 20.568 227.756 19.863 231.026 19.863 232.046 19.863 233.126 19.953 234.266 20.132 234.146 18.993 233.659 18.13 232.804 17.545 231.949 16.96 230.906 16.667 229.676 16.667 228.596 16.667 227.509 16.87 226.414 17.275 225.318 17.68 224.276 18.168 223.286 18.738L220.631 13.698C222.131 12.738 223.751 11.996 225.491 11.47 227.231 10.946 228.971 10.683 230.711 10.683 232.811 10.683 234.701 11.042 236.381 11.763 238.061 12.483 239.381 13.578 240.341 15.047 241.301 16.518 241.781 18.377 241.781 20.627L241.781 34.172 234.626 34.172zM254.606 25.308L254.606 34.172 246.776 34.172 246.776 11.268 253.931 11.268 254.426 15.092C254.906 13.863 255.693 12.865 256.788 12.1 257.883 11.335 259.151 10.953 260.591 10.953 261.401 10.953 262.016 11.058 262.436 11.268L262.436 18.422C262.105 18.303 261.739 18.213 261.333 18.153 260.929 18.093 260.471 18.062 259.961 18.062 258.401 18.062 257.118 18.641 256.114 19.795 255.108 20.951 254.606 22.788 254.606 25.308M276.926 34.757C274.586 34.757 272.508 34.255 270.693 33.25 268.878 32.246 267.446 30.842 266.396 29.042 265.345 27.243 264.821 25.143 264.821 22.743 264.821 20.343 265.345 18.243 266.396 16.443 267.446 14.643 268.878 13.241 270.693 12.235 272.508 11.23 274.586 10.728 276.926 10.728 278.995 10.728 280.81 11.11 282.37 11.875 283.93 12.64 285.31 13.863 286.511 15.542L281.336 19.323C280.915 18.693 280.368 18.175 279.693 17.77 279.018 17.365 278.29 17.163 277.511 17.163 276.161 17.163 275.036 17.666 274.136 18.67 273.236 19.675 272.786 21.033 272.786 22.743 272.786 24.453 273.236 25.81 274.136 26.815 275.036 27.821 276.161 28.323 277.511 28.323 278.29 28.323 279.018 28.12 279.693 27.715 280.368 27.31 280.915 26.792 281.336 26.163L286.511 29.943C285.31 31.623 283.93 32.845 282.37 33.61 280.81 34.375 278.995 34.757 276.926 34.757M297.85 21.573L297.85 34.172 290.02 34.172 290.02 1.323 297.85 1.323 297.85 13.922C298.6 12.933 299.553 12.145 300.708 11.56 301.862 10.975 303.116 10.683 304.465 10.683 306.955 10.683 308.95 11.493 310.451 13.113 311.95 14.733 312.701 17.058 312.701 20.087L312.701 34.172 304.87 34.172 304.87 20.988C304.87 19.638 304.57 18.641 303.971 17.995 303.37 17.35 302.53 17.028 301.451 17.028 300.37 17.028 299.5 17.373 298.84 18.062 298.18 18.753 297.85 19.923 297.85 21.573"/>
    <polygon fill="#404040" points="317.785 34.173 325.615 34.173 325.615 1.323 317.785 1.323"/>
    <path fill="#404040" d="M331.104 34.172L331.104 11.268C332.364 11.538 333.639 11.672 334.93 11.672 336.249 11.672 337.584 11.538 338.934 11.268L338.934 34.172 331.104 34.172M355.449 27.288C356.769 27.288 357.834 26.815 358.644 25.87 359.454 24.925 359.859 23.658 359.859 22.068 359.859 20.478 359.454 19.21 358.644 18.265 357.834 17.32 356.769 16.848 355.449 16.848 354.099 16.848 353.019 17.32 352.209 18.265 351.399 19.21 350.994 20.478 350.994 22.068 350.994 23.628 351.399 24.888 352.209 25.848 353.019 26.808 354.099 27.288 355.449 27.288zM367.599 31.743C367.599 34.082 367.059 36.085 365.979 37.75 364.899 39.415 363.406 40.69 361.501 41.575 359.596 42.459 357.384 42.903 354.864 42.903 352.824 42.903 350.889 42.632 349.059 42.092 347.229 41.552 345.594 40.832 344.154 39.933L347.079 34.893C348.099 35.493 349.171 35.98 350.296 36.355 351.421 36.73 352.584 36.917 353.784 36.917 355.793 36.917 357.294 36.467 358.284 35.568 359.274 34.667 359.769 33.393 359.769 31.743L359.769 30.933C358.989 31.713 358.051 32.335 356.956 32.8 355.861 33.266 354.713 33.497 353.514 33.497 351.444 33.497 349.621 33.01 348.046 32.035 346.472 31.061 345.241 29.71 344.356 27.985 343.471 26.26 343.029 24.288 343.029 22.068 343.029 19.818 343.463 17.837 344.334 16.127 345.203 14.417 346.419 13.083 347.979 12.123 349.538 11.163 351.338 10.683 353.379 10.683 354.759 10.683 356.041 11.013 357.226 11.672 358.411 12.333 359.349 13.203 360.039 14.283L360.444 11.268 367.599 11.268 367.599 31.743zM380.919 21.573L380.919 34.172 373.089 34.172 373.089 1.323 380.919 1.323 380.919 13.922C381.668 12.933 382.621 12.145 383.776 11.56 384.931 10.975 386.184 10.683 387.534 10.683 390.023 10.683 392.018 11.493 393.519 13.113 395.018 14.733 395.769 17.058 395.769 20.087L395.769 34.172 387.939 34.172 387.939 20.988C387.939 19.638 387.639 18.641 387.039 17.995 386.438 17.35 385.599 17.028 384.519 17.028 383.439 17.028 382.568 17.373 381.909 18.062 381.248 18.753 380.919 19.923 380.919 21.573M417.728 32.688C416.798 33.318 415.733 33.82 414.533 34.195 413.333 34.57 412.073 34.757 410.753 34.757 408.293 34.757 406.335 34.045 404.881 32.62 403.425 31.196 402.698 29.283 402.698 26.882L402.698 17.118 398.963 17.118 398.963 11.268 403.058 11.268 404.048 4.877 410.528 4.877 410.528 11.268 416.513 11.268 416.513 17.118 410.528 17.118 410.528 25.893C410.528 26.673 410.76 27.281 411.226 27.715 411.69 28.15 412.313 28.368 413.093 28.368 413.483 28.368 413.881 28.293 414.286 28.143 414.691 27.993 415.073 27.813 415.433 27.603L417.728 32.688"/>
    <path fill="#009BFF" class='no-color-change' d="M334.93,9.467 C333.639,9.467 332.536,9.01 331.622,8.095 C330.706,7.18 330.249,6.078 330.249,4.788 C330.249,3.498 330.706,2.396 331.622,1.48 C332.536,0.565 333.639,0.108 334.93,0.108 C336.219,0.108 337.321,0.565 338.237,1.48 C339.152,2.396 339.609,3.498 339.609,4.788 C339.609,6.078 339.152,7.18 338.237,8.095 C337.321,9.01 336.219,9.467 334.93,9.467"/>
  </g>
</svg>
