<?xml version="1.0" encoding="UTF-8" standalone="no"?>
<svg width="713px" height="68px" viewBox="0 0 713 68" version="1.1" xmlns="http://www.w3.org/2000/svg" xmlns:xlink="http://www.w3.org/1999/xlink" xmlns:sketch="http://www.bohemiancoding.com/sketch/ns">
    <!-- Generator: Sketch 3.4.2 (15857) - http://www.bohemiancoding.com/sketch -->
    <title>Reno_GazetteJournal</title>
    <desc>Created with Sketch.</desc>
    <defs></defs>
    <g id="Page-1" stroke="none" stroke-width="1" fill="none" fill-rule="evenodd" sketch:type="MSPage">
        <g id="Reno_GazetteJournal" sketch:type="MSLayerGroup" fill="#1A1918">
            <path d="M14.156,8.693 C14.156,5.842 14.838,5.153 18.849,5.153 C21.953,5.153 31.87,5.448 31.87,18.53 C31.87,32.593 20.516,32.79 14.156,32.888 L14.156,8.693 L14.156,8.693 Z M48.6,64.753 C45.497,64.558 43.68,62.788 42.015,60.132 L26.42,35.249 C30.281,34.265 40.122,31.903 40.122,18.726 C40.122,3.579 27.631,1.516 20.894,1.516 L0,1.516 L0,3.384 C5.299,4.071 6.435,4.958 6.435,12.235 L6.435,54.821 C6.435,62.196 6.132,64.263 0,64.753 L0,66.623 L20.97,66.623 L20.97,64.753 C14.913,64.36 14.156,62.492 14.156,55.903 L14.156,36.528 L18.395,36.33 L36.412,66.623 L48.6,66.623 L48.6,64.753 L48.6,64.753 Z" id="Fill-1" sketch:type="MSShapeGroup"></path>
            <path d="M83.517,54.157 L81.928,54.157 C79.429,61.606 76.591,63.82 69.493,63.82 C61.034,63.82 61.034,63.747 61.034,60.722 L61.034,42.429 L69.776,42.575 C74.49,42.649 75.342,43.681 76.023,49.585 L77.328,49.585 L77.328,32.47 L76.023,32.47 C75.398,37.707 74.83,39.478 69.776,39.478 L61.034,39.478 L61.034,23.103 C61.034,20.595 61.715,20.595 62.908,20.595 L70.572,20.595 C76.874,20.595 78.351,21.774 79.202,28.339 L80.621,28.339 L80.45,17.792 L50.303,17.792 L50.303,19.194 C53.88,19.563 55.242,20.005 55.242,25.832 L55.242,58.583 C55.242,64.263 53.936,64.927 50.303,65.222 L50.303,66.623 L80.962,66.623 L83.517,54.157" id="Fill-2" sketch:type="MSShapeGroup"></path>
            <path d="M124.729,17.792 L111.387,17.792 L111.387,19.194 C115.248,19.563 116.837,20.151 116.837,28.635 L116.837,53.271 L116.724,53.271 L94.98,17.792 L85.27,17.792 L85.27,19.194 C87.542,19.194 88.45,19.563 90.777,23.249 L90.777,55.78 C90.777,63.747 89.585,64.853 85.27,65.222 L85.27,66.623 L98.612,66.623 L98.612,65.222 C94.468,64.999 93.275,63.376 93.275,55.78 L93.275,27.011 L93.389,27.011 L118.37,67.434 L119.336,67.434 L119.336,28.635 C119.336,20.005 121.152,19.709 124.729,19.194 L124.729,17.792" id="Fill-3" sketch:type="MSShapeGroup"></path>
            <path d="M142.418,64.999 C136.116,64.999 130.325,58.435 130.325,42.206 C130.325,25.39 136.627,19.413 142.418,19.413 C148.209,19.413 154.512,25.39 154.512,42.206 C154.512,58.435 148.721,64.999 142.418,64.999 L142.418,64.999 Z M142.418,67.655 C152.695,67.655 160.984,57.993 160.984,42.28 C160.984,25.314 151.729,16.76 142.418,16.76 C133.106,16.76 123.853,25.314 123.853,42.28 C123.853,57.993 132.142,67.655 142.418,67.655 L142.418,67.655 Z" id="Fill-4" sketch:type="MSShapeGroup"></path>
            <path d="M231.245,31.806 L211.941,31.806 L211.941,33.576 C217.089,34.069 218.604,34.167 218.604,42.331 L218.604,58.264 C218.604,61.804 213.38,64.064 208.232,64.064 C196.499,64.064 188.626,52.951 188.626,35.151 C188.626,10.269 199.754,4.071 206.946,4.071 C217.543,4.071 221.479,13.808 223.524,20.891 L225.265,20.891 L224.659,0.139 L222.994,0.139 C222.539,2.893 220.042,3.384 219.437,3.384 C217.013,3.384 213.531,0.139 205.885,0.139 C189.837,0.139 179.995,16.562 179.995,33.085 C179.995,45.969 182.267,51.773 186.279,57.476 C191.654,65.048 200.057,68 207.552,68 C215.878,68 225.946,62.294 225.946,60.917 L225.946,41.149 C225.946,34.167 227.915,33.97 231.245,33.576 L231.245,31.806" id="Fill-5" sketch:type="MSShapeGroup"></path>
            <path d="M238.852,47.665 L245.381,27.38 L251.967,47.665 L238.852,47.665 L238.852,47.665 Z M266.673,65.222 C264.174,64.999 263.379,64.188 261.563,58.804 L247.425,16.906 L246.289,16.906 L234.48,53.124 C233.401,56.369 231.642,61.755 230.336,63.599 C229.314,64.999 228.349,65.149 227.439,65.222 L227.439,66.623 L238.682,66.623 L238.682,65.222 C237.489,65.222 234.82,65.222 234.82,62.124 C234.82,61.313 234.99,60.278 235.274,59.321 L237.887,50.691 L252.762,50.691 L255.089,57.771 C255.43,58.804 256.168,61.237 256.168,62.419 C256.168,65.149 254.295,65.222 252.193,65.222 L252.193,66.623 L266.673,66.623 L266.673,65.222 L266.673,65.222 Z" id="Fill-6" sketch:type="MSShapeGroup"></path>
            <path d="M300.518,53.64 C299.269,59.025 298.189,63.82 290.752,63.82 L276.161,63.82 L300.688,18.899 L300.688,17.792 L270.824,17.792 L269.688,30.405 L271.165,30.405 C271.902,25.464 272.584,20.595 280.702,20.595 L293.25,20.595 L268.438,65.517 L268.438,66.623 L300.46,66.623 L301.824,53.64 L300.518,53.64" id="Fill-7" sketch:type="MSShapeGroup"></path>
            <path d="M336.791,54.157 L335.2,54.157 C332.703,61.606 329.863,63.82 322.768,63.82 C314.307,63.82 314.307,63.747 314.307,60.722 L314.307,42.429 L323.051,42.575 C327.763,42.649 328.614,43.681 329.296,49.585 L330.602,49.585 L330.602,32.47 L329.296,32.47 C328.671,37.707 328.104,39.478 323.051,39.478 L314.307,39.478 L314.307,23.103 C314.307,20.595 314.988,20.595 316.181,20.595 L323.846,20.595 C330.147,20.595 331.624,21.774 332.476,28.339 L333.896,28.339 L333.725,17.792 L303.577,17.792 L303.577,19.194 C307.153,19.563 308.516,20.005 308.516,25.832 L308.516,58.583 C308.516,64.263 307.21,64.927 303.577,65.222 L303.577,66.623 L334.236,66.623 L336.791,54.157" id="Fill-8" sketch:type="MSShapeGroup"></path>
            <path d="M363.525,65.222 C358.754,64.999 358.076,63.599 358.076,58.583 L358.076,20.891 L361.137,20.891 C367.387,20.891 368.975,22.216 370.166,30.331 L371.533,30.331 L371.191,17.792 L339.168,17.792 L338.827,30.331 L340.189,30.331 C341.439,22.292 342.973,20.891 349.218,20.891 L352.284,20.891 L352.284,57.771 C352.284,63.23 352.113,64.927 346.947,65.222 L346.947,66.623 L363.525,66.623 L363.525,65.222" id="Fill-9" sketch:type="MSShapeGroup"></path>
            <path d="M398.49,65.222 C393.721,64.999 393.041,63.599 393.041,58.583 L393.041,20.891 L396.107,20.891 C402.354,20.891 403.939,22.216 405.137,30.331 L406.498,30.331 L406.156,17.792 L374.135,17.792 L373.793,30.331 L375.156,30.331 C376.406,22.292 377.939,20.891 384.184,20.891 L387.25,20.891 L387.25,57.771 C387.25,63.23 387.08,64.927 381.914,65.222 L381.914,66.623 L398.49,66.623 L398.49,65.222" id="Fill-10" sketch:type="MSShapeGroup"></path>
            <path d="M441.689,54.157 L440.102,54.157 C437.602,61.606 434.766,63.82 427.67,63.82 C419.209,63.82 419.209,63.747 419.209,60.722 L419.209,42.429 L427.949,42.575 C432.666,42.649 433.516,43.681 434.199,49.585 L435.502,49.585 L435.502,32.47 L434.199,32.47 C433.574,37.707 433.002,39.478 427.949,39.478 L419.209,39.478 L419.209,23.103 C419.209,20.595 419.887,20.595 421.078,20.595 L428.744,20.595 C435.049,20.595 436.523,21.774 437.377,28.339 L438.793,28.339 L438.627,17.792 L408.477,17.792 L408.477,19.194 C412.055,19.563 413.418,20.005 413.418,25.832 L413.418,58.583 C413.418,64.263 412.109,64.927 408.477,65.222 L408.477,66.623 L439.135,66.623 L441.689,54.157" id="Fill-11" sketch:type="MSShapeGroup"></path>
            <path d="M444.98,47.665 L458.945,47.665 L458.945,52.311 L444.98,52.311 L444.98,47.665 Z" id="Fill-12" sketch:type="MSShapeGroup"></path>
            <path d="M482.871,12.235 C482.871,4.958 483.93,3.874 489.834,3.384 L489.834,1.516 L468.109,1.516 L468.109,3.384 C474.242,3.874 475.15,5.251 475.15,12.235 L475.15,57.771 C475.15,62.886 474.014,64.263 472.197,64.263 C469.32,64.263 471.211,56.001 466.064,56.001 C463.867,56.001 462.582,58.952 462.582,60.819 C462.582,62.196 463.037,63.772 464.248,65.542 C465.082,66.721 466.973,68 470.15,68 C472.197,68 482.871,67.704 482.871,48.625 L482.871,12.235" id="Fill-13" sketch:type="MSShapeGroup"></path>
            <path d="M505.156,64.999 C498.852,64.999 493.061,58.435 493.061,42.206 C493.061,25.39 499.365,19.413 505.156,19.413 C510.947,19.413 517.25,25.39 517.25,42.206 C517.25,58.435 511.459,64.999 505.156,64.999 L505.156,64.999 Z M505.156,67.655 C515.434,67.655 523.721,57.993 523.721,42.28 C523.721,25.314 514.467,16.76 505.156,16.76 C495.844,16.76 486.592,25.314 486.592,42.28 C486.592,57.993 494.877,67.655 505.156,67.655 L505.156,67.655 Z" id="Fill-14" sketch:type="MSShapeGroup"></path>
            <path d="M561.449,17.792 L548.275,17.792 L548.275,19.194 C552.25,19.489 553.613,20.741 553.613,28.635 L553.613,48.552 C553.613,54.526 553.047,56.96 552.305,58.583 C550.658,62.05 547.422,64.409 542.992,64.409 C533.115,64.409 533.115,54.157 533.115,49.436 L533.115,25.832 C533.115,20.595 533.799,19.636 538.281,19.194 L538.281,17.792 L522.217,17.792 L522.217,19.194 C526.533,19.563 527.324,20.373 527.324,25.832 L527.324,48.845 C527.324,53.271 527.324,67.655 541.406,67.655 C556.107,67.655 556.107,53.788 556.107,47.888 L556.107,28.635 C556.107,20.891 557.074,19.782 561.449,19.194 L561.449,17.792" id="Fill-15" sketch:type="MSShapeGroup"></path>
            <path d="M574.346,23.176 C574.346,21.037 574.854,20.522 577.865,20.522 C580.189,20.522 587.627,20.741 587.627,30.554 C587.627,41.101 579.111,41.249 574.346,41.323 L574.346,23.176 L574.346,23.176 Z M600.176,65.222 C597.846,65.073 596.484,63.747 595.234,61.755 L583.539,43.093 C586.436,42.356 593.818,40.585 593.818,30.7 C593.818,19.341 584.447,17.792 579.398,17.792 L563.725,17.792 L563.725,19.194 C567.699,19.709 568.555,20.373 568.555,25.832 L568.555,57.771 C568.555,63.303 568.324,64.853 563.725,65.222 L563.725,66.623 L579.453,66.623 L579.453,65.222 C574.912,64.927 574.346,63.524 574.346,58.583 L574.346,44.052 L577.523,43.903 L591.035,66.623 L600.176,66.623 L600.176,65.222 L600.176,65.222 Z" id="Fill-16" sketch:type="MSShapeGroup"></path>
            <path d="M641.084,17.792 L627.738,17.792 L627.738,19.194 C631.602,19.563 633.193,20.151 633.193,28.635 L633.193,53.271 L633.076,53.271 L611.332,17.792 L601.621,17.792 L601.621,19.194 C603.896,19.194 604.805,19.563 607.129,23.249 L607.129,55.78 C607.129,63.747 605.938,64.853 601.621,65.222 L601.621,66.623 L614.965,66.623 L614.965,65.222 C610.82,64.999 609.629,63.376 609.629,55.78 L609.629,27.011 L609.74,27.011 L634.721,67.434 L635.688,67.434 L635.688,28.635 C635.688,20.005 637.504,19.709 641.084,19.194 L641.084,17.792" id="Fill-17" sketch:type="MSShapeGroup"></path>
            <path d="M649.965,47.665 L656.494,27.38 L663.08,47.665 L649.965,47.665 L649.965,47.665 Z M677.787,65.222 C675.287,64.999 674.492,64.188 672.68,58.804 L658.539,16.906 L657.402,16.906 L645.596,53.124 C644.516,56.369 642.758,61.755 641.449,63.599 C640.43,64.999 639.463,65.149 638.555,65.222 L638.555,66.623 L649.795,66.623 L649.795,65.222 C648.604,65.222 645.938,65.222 645.938,62.124 C645.938,61.313 646.107,60.278 646.391,59.321 L649.004,50.691 L663.877,50.691 L666.205,57.771 C666.547,58.804 667.285,61.237 667.285,62.419 C667.285,65.149 665.41,65.222 663.311,65.222 L663.311,66.623 L677.787,66.623 L677.787,65.222 L677.787,65.222 Z" id="Fill-18" sketch:type="MSShapeGroup"></path>
            <path d="M695.736,17.792 L679.727,17.792 L679.727,19.194 C683.301,19.563 684.662,20.005 684.662,25.832 L684.662,58.583 C684.662,64.263 683.359,64.927 679.727,65.222 L679.727,66.623 L710.268,66.623 L712.992,53.788 L711.576,53.788 C708.34,63.452 704.707,63.747 696.191,63.747 C691.479,63.747 690.453,63.671 690.453,60.722 L690.453,25.832 C690.453,20.005 691.875,19.489 695.736,19.194 L695.736,17.792" id="Fill-19" sketch:type="MSShapeGroup"></path>
        </g>
    </g>
</svg>