<svg id="Reno_newish" data-name="Reno newish" xmlns="http://www.w3.org/2000/svg" xmlns:xlink="http://www.w3.org/1999/xlink" width="728" height="160" viewBox="0 0 728 160">
  <defs>
    <style>
      @font-face {
        font-family: 'Futura Today';
        src: url('../../fonts/FuturaToday/FuturaTodayNormal.otf');
        font-weight: normal;
      }

      .cls-1 {
        fill: #195e92;
      }

      .cls-1, .cls-2, .cls-4 {
        fill-rule: evenodd;
      }

      .cls-2, .cls-3, .cls-4 {
        fill: #000;
      }

      .cls-3 {
        font-size: 22.9px;
        font-family: 'Futura Today';
        font-weight: 600;
      }

      .cls-4 {
        filter: url(#filter);
      }
    </style>
    <filter id="filter" x="360" y="117.969" width="367.969" height="16" filterUnits="userSpaceOnUse">
      <feFlood result="flood" flood-color="#999"/>
      <feComposite result="composite" operator="in" in2="SourceGraphic"/>
      <feBlend result="blend" in2="SourceGraphic"/>
    </filter>
  </defs>
  <g id="icon">
    <path id="swoosh_copy" data-name="swoosh copy" class="cls-1" d="M-0.44,108.732c15.5-13.377,36.3-28.076,60-41.834,55.052-31.966,104.862-46.746,111.256-33.011,4.321,9.281-12.289,29.208-40.5,51.018,20.515-17.7,31.745-33.089,28.1-40.913C152.018,30.257,102.207,45.037,47.157,77A440.052,440.052,0,0,0-.44,108.732Z"/>
    <path id="RGJ_copy" data-name="RGJ copy" class="cls-2" d="M122.358,72.5V70.132H99V72.5c6.219,0,7.655,3.313,7.655,9.56V94.887c-2.2,1.893-5.608,5.912-13.736,5.736C80.1,100.345,71,88.778,71,70.7c0-17.794,6.124-32.654,21.528-32.654,8.133,0,18.275,6.152,20.763,18.362h2.2V34.733H113.1c-0.766,2.555-2.679,3.88-4.305,3.88a8.8,8.8,0,0,1-3.158-.946,36.421,36.421,0,0,0-15.308-3.786c-20,0-29.624,16.378-29.286,36.535C61.421,93,76.156,104.774,93.485,104.774c6.984,0,12.364-1.894,20.835-7.477V82.058C114.32,76.1,116.713,72.5,122.358,72.5ZM158.9,36.3V33.929h-25V36.3c7.558,0,8.632,2.671,8.632,8.9v43.75c0,5.49-1.626,11.453-5.836,11.453-2.105,0-3.636-.852-3.636-3.6,0-3.029.573,0.094,0.573-5.112,0-3.6-2.678-5.3-5.452-5.3a6.164,6.164,0,0,0-6.125,6.436c0,8.329,7.751,11.074,13.875,11.074,8.61,0,14.359-5.962,14.359-19.782V45.193C150.293,38.464,152.194,36.3,158.9,36.3ZM66.183,102.219H51.228L34.837,71.552H26.492v19.5c0,5.774,1.683,8.8,9.146,8.8v2.367H9.865V99.852c6.7,0,8.42-3.786,8.42-8.8V46.281c0-6.342-1.722-8.9-8.42-8.9V35.017H34.918c14.639,0,23.207,6.152,23.207,18.173,0,8.8-7.228,14.86-15.074,17.226l2.274,4.677,9.782,18.042c2.888,4.515,6.82,7.4,11.076,7.4v1.68Zm-16.8-48.556A13,13,0,0,1,36.028,67.009H26.492V39.738h8.675C40.143,39.738,49.381,41.643,49.381,53.663Z"/>
  </g>
  <text id="Reno_Gazette-Journal" data-name="Reno Gazette-Journal" class="cls-3" transform="translate(184.943 102.856) scale(2.415)">Reno Gazette-Journal</text>
  <path id="USAT_Network" data-name="USAT Network" class="cls-4" d="M359.989,118.273h4.489c3.156,0,5.267,1.865,5.267,4.741s-2.155,4.735-5.267,4.735h-2.29v5.925h-2.2v-15.4Zm4.267,7.659c2.112,0,3.244-1.163,3.244-2.918,0-1.736-1.132-2.919-3.244-2.919h-2.068v5.837h2.068Zm11.768-7.659h1.955l6.4,15.4h-2.358l-1.6-4.035h-6.912l-1.6,4.035H369.6S375.244,120.162,376.024,118.273Zm3.665,9.544-1.488-3.794c-0.222-.572-1.179-2.942-1.2-3.139h-0.043c-0.022.2-.955,2.5-1.2,3.139l-1.51,3.794h5.443Zm6.924-9.544h4.51c2.91,0,5.178,1.5,5.178,4.563a4.293,4.293,0,0,1-3.955,4.346l4.778,6.492h-2.579l-4.51-6.276h-1.223v6.276h-2.2v-15.4Zm4.267,7.351c2.043,0,3.2-1.077,3.2-2.764s-1.157-2.765-3.2-2.765h-2.068v5.529h2.068Zm11.522-5.486h-4.445v-1.865h11.089v1.865H404.6v13.536h-2.2V120.138Zm12.347,5.838a8.2,8.2,0,1,1,8.2,8A7.862,7.862,0,0,1,414.749,125.976Zm14.133,0a5.946,5.946,0,1,0-5.955,6.053A5.772,5.772,0,0,0,428.882,125.976Zm5.433-7.7h7.867v1.865h-5.668V125.1H442v1.865h-5.49v6.713h-2.2v-15.4Zm17.815,1.865h-4.444v-1.865h11.088v1.865H454.33v13.536h-2.2V120.138Zm8.953-1.865h2.2v6.318h8.178v-6.318h2.2v15.4h-2.2v-7.218h-8.178v7.218h-2.2v-15.4Zm16.631,0h8.49v1.846h-6.29v4.472h6.11v1.846h-6.11v5.395h6.422v1.842h-8.622v-15.4Zm16,10.092V118.273h2.221v9.433c0,2.679,1.157,4.323,3.756,4.323,2.622,0,3.78-1.644,3.78-4.323v-9.433h2.221v10.092c0,3.38-2.2,5.616-6,5.616C495.865,133.981,493.71,131.745,493.71,128.365Zm14.274,2.524,1.491-1.25a4.52,4.52,0,0,0,3.911,2.433c1.709,0,3.044-.918,3.044-2.611,0-1.817-1.534-2.433-3.446-3.178-1.956-.769-3.933-1.736-3.933-4.193,0-2.432,1.912-4.12,4.712-4.12a5.248,5.248,0,0,1,4.579,2.322l-1.491,1.25a3.552,3.552,0,0,0-3.088-1.668c-1.512,0-2.511.769-2.511,2.063,0,1.6,1.554,2.13,2.911,2.654,2.2,0.856,4.466,1.889,4.466,4.716,0,2.679-2,4.674-5.2,4.674A6.064,6.064,0,0,1,507.984,130.889Zm18.241-12.616h1.956l6.4,15.4h-2.357l-1.6-4.035h-6.912l-1.6,4.035H519.8S525.446,120.162,526.225,118.273Zm3.665,9.544-1.487-3.794c-0.222-.572-1.179-2.942-1.2-3.139h-0.044c-0.022.2-.955,2.5-1.2,3.139l-1.51,3.794h5.443Zm13.978-7.679h-4.445v-1.865h11.088v1.865h-4.444v13.536h-2.2V120.138Zm7.469,5.838a8.2,8.2,0,1,1,8.2,8A7.861,7.861,0,0,1,551.337,125.976Zm14.132,0a5.945,5.945,0,1,0-5.954,6.053A5.772,5.772,0,0,0,565.469,125.976Zm5.434-7.7h4.423c4.977,0,8.265,2.808,8.265,7.7,0,4.87-3.312,7.7-8.265,7.7H570.9v-15.4Zm2.2,13.534h2.046c3.643,0,6.176-1.9,6.176-5.831s-2.533-5.838-6.176-5.838H573.1v11.669Zm17.637-13.534H592.7l6.4,15.4h-2.357l-1.6-4.035h-6.912l-1.6,4.035h-2.311S589.96,120.162,590.739,118.273Zm3.666,9.544-1.489-3.794c-0.221-.572-1.178-2.942-1.2-3.139h-0.044c-0.022.2-.955,2.5-1.2,3.139l-1.51,3.794h5.444Zm9.084-.419-5.312-9.125h2.467l2.889,5.135a22.887,22.887,0,0,1,1.11,2.192h0.022a23.153,23.153,0,0,1,1.113-2.192l2.91-5.135h2.4l-5.309,9.125v6.276h-2.289V127.4Zm14.062-9.125h1.687l8.846,9.982c0.266,0.288,1.422,1.711,1.534,1.932l0.044-.023c-0.044-.217-0.044-2-0.044-2.39v-9.5h2.134v15.4h-1.713l-8.845-9.983c-0.265-.283-1.422-1.711-1.532-1.928l-0.021.02c0.021,0.221.043,2,.043,2.394v9.5h-2.133v-15.4Zm18.253,0h8.487v1.846H638v4.472h6.113v1.846H638v5.395h6.422v1.842H635.8v-15.4Zm15.37,1.865h-4.445v-1.865h11.089v1.865h-4.445v13.536h-2.2V120.138Zm8.477-1.865h2.334l3.2,9.15c0.112,0.351.867,2.63,0.889,2.981h0.046a30.445,30.445,0,0,1,.933-2.981l3.334-9.15h1.756l3.332,9.15c0.133,0.351.91,2.63,0.935,2.981h0.044c0.044-.351.8-2.63,0.91-2.981l3.179-9.15h2.243l-5.49,15.4h-1.688l-3.6-9.607a25.578,25.578,0,0,1-.758-2.5h-0.044a25.693,25.693,0,0,1-.776,2.5l-3.578,9.607h-1.69Zm24.119,7.7a8.2,8.2,0,1,1,8.2,8A7.861,7.861,0,0,1,683.77,125.976Zm14.132,0a5.945,5.945,0,1,0-5.955,6.053A5.772,5.772,0,0,0,697.9,125.976Zm5.433-7.7h4.511c2.913,0,5.177,1.5,5.177,4.563a4.293,4.293,0,0,1-3.955,4.346l4.779,6.492h-2.579l-4.511-6.276h-1.222v6.276h-2.2v-15.4Zm4.267,7.351c2.044,0,3.2-1.077,3.2-2.764s-1.156-2.765-3.2-2.765h-2.067v5.529H707.6Zm8.736-7.351h2.2v7.154l6.444-7.154h2.666l-6.687,7.351,7,8.05h-2.754l-6.668-7.785v7.785h-2.2v-15.4Z"/>
</svg>
