<svg xmlns="http://www.w3.org/2000/svg" width="444" height="46" viewBox="0 0 444 46">
  <g fill="none" fill-rule="evenodd" transform="translate(0 -1)">
    <path fill="#FFFFFF" d="M307.389 43.47L308.493 43.47C308.856 43.47 309.142 43.381 309.353 43.202 309.565 43.024 309.67 42.78 309.67 42.472 309.67 42.163 309.565 41.92 309.353 41.741 309.142 41.562 308.856 41.473 308.493 41.473L307.389 41.473 307.389 43.47zM306.569 46.303L306.569 40.783 308.493 40.783C309.11 40.783 309.6 40.935 309.962 41.238 310.325 41.541 310.506 41.952 310.506 42.472 310.506 42.986 310.325 43.393 309.962 43.694 309.6 43.994 309.11 44.144 308.493 44.144L307.389 44.144 307.389 46.303 306.569 46.303zM312.162 44.225L314.175 44.225 313.169 41.636 312.162 44.225zM314.979 46.303L314.443 44.915 311.894 44.915 311.358 46.303 310.53 46.303 312.739 40.783 313.623 40.783 315.823 46.303 314.979 46.303zM317.561 43.389L318.689 43.389C319.041 43.389 319.321 43.303 319.529 43.129 319.737 42.956 319.842 42.723 319.842 42.431 319.842 42.139 319.737 41.906 319.529 41.733 319.321 41.56 319.041 41.473 318.689 41.473L317.561 41.473 317.561 43.389zM317.561 44.063L317.561 46.303 316.741 46.303 316.741 40.783 318.689 40.783C319.3 40.783 319.785 40.931 320.142 41.225 320.499 41.521 320.678 41.923 320.678 42.431 320.678 42.816 320.569 43.14 320.353 43.405 320.136 43.67 319.839 43.857 319.46 43.965L320.799 46.303 319.866 46.303 318.608 44.063 317.561 44.063z"/>
    <polyline fill="#FFFFFF" points="323.032 46.303 323.032 41.473 321.173 41.473 321.173 40.783 325.71 40.783 325.71 41.473 323.852 41.473 323.852 46.303 323.032 46.303"/>
    <path fill="#FFFFFF" d="M330.979,45.678 C331.336,45.678 331.654,45.588 331.933,45.406 C332.211,45.225 332.429,44.975 332.586,44.655 C332.743,44.336 332.821,43.965 332.821,43.543 C332.821,43.121 332.743,42.75 332.586,42.431 C332.429,42.112 332.211,41.862 331.933,41.68 C331.654,41.499 331.336,41.408 330.979,41.408 C330.622,41.408 330.305,41.499 330.029,41.68 C329.753,41.862 329.536,42.112 329.38,42.431 C329.223,42.75 329.144,43.121 329.144,43.543 C329.144,43.965 329.223,44.336 329.38,44.655 C329.536,44.975 329.753,45.225 330.029,45.406 C330.305,45.588 330.622,45.678 330.979,45.678 Z M330.979,46.393 C330.459,46.393 329.999,46.271 329.599,46.027 C329.198,45.784 328.883,45.448 328.653,45.021 C328.423,44.593 328.308,44.101 328.308,43.543 C328.308,42.986 328.423,42.493 328.653,42.066 C328.883,41.638 329.198,41.303 329.599,41.059 C329.999,40.816 330.459,40.694 330.979,40.694 C331.498,40.694 331.96,40.816 332.363,41.059 C332.766,41.303 333.082,41.638 333.313,42.066 C333.543,42.493 333.658,42.986 333.658,43.543 C333.658,44.101 333.543,44.593 333.313,45.021 C333.082,45.448 332.766,45.784 332.363,46.027 C331.96,46.271 331.498,46.393 330.979,46.393 Z"/>
    <polyline fill="#FFFFFF" points="335.63 46.303 334.81 46.303 334.81 40.783 338.244 40.783 338.244 41.473 335.63 41.473 335.63 43.34 337.847 43.34 337.847 44.03 335.63 44.03 335.63 46.303"/>
    <polyline fill="#FFFFFF" points="342.522 46.303 342.522 41.473 340.663 41.473 340.663 40.783 345.201 40.783 345.201 41.473 343.342 41.473 343.342 46.303 342.522 46.303"/>
    <polyline fill="#FFFFFF" points="346.142 46.303 346.142 40.783 346.962 40.783 346.962 43.146 349.812 43.146 349.812 40.783 350.631 40.783 350.631 46.303 349.812 46.303 349.812 43.852 346.962 43.852 346.962 46.303 346.142 46.303"/>
    <polyline fill="#FFFFFF" points="352.076 46.303 352.076 40.783 355.616 40.783 355.616 41.473 352.896 41.473 352.896 43.178 355.291 43.178 355.291 43.868 352.896 43.868 352.896 45.613 355.681 45.613 355.681 46.303 352.076 46.303"/>
    <path fill="#FFFFFF" d="M360.86 45.678C361.309 45.678 361.662 45.543 361.919 45.272 362.176 45.002 362.305 44.636 362.305 44.176L362.305 40.783 363.124 40.783 363.124 44.184C363.124 44.872 362.923 45.412 362.52 45.804 362.117 46.196 361.563 46.393 360.86 46.393 360.156 46.393 359.604 46.196 359.204 45.804 358.803 45.412 358.603 44.872 358.603 44.184L358.603 40.783 359.423 40.783 359.423 44.176C359.423 44.636 359.551 45.002 359.808 45.272 360.065 45.543 360.416 45.678 360.86 45.678M366.185 46.393C365.768 46.393 365.37 46.319 364.991 46.174 364.613 46.027 364.307 45.832 364.074 45.589L364.537 45.045C364.753 45.245 365.009 45.402 365.304 45.516 365.599 45.629 365.893 45.686 366.185 45.686 366.542 45.686 366.83 45.617 367.049 45.479 367.268 45.341 367.378 45.15 367.378 44.907 367.378 44.685 367.299 44.499 367.143 44.347 366.986 44.195 366.718 44.068 366.339 43.965L365.576 43.762C365.083 43.632 364.725 43.448 364.5 43.21 364.276 42.972 364.163 42.661 364.163 42.277 364.163 41.963 364.247 41.687 364.415 41.449 364.583 41.211 364.814 41.026 365.109 40.893 365.404 40.76 365.738 40.694 366.112 40.694 366.507 40.694 366.878 40.768 367.224 40.917 367.57 41.066 367.876 41.273 368.141 41.538L367.646 42.074C367.413 41.858 367.171 41.691 366.919 41.575 366.668 41.458 366.401 41.4 366.12 41.4 365.779 41.4 365.5 41.472 365.284 41.615 365.067 41.759 364.959 41.958 364.959 42.212 364.959 42.445 365.036 42.626 365.19 42.756 365.345 42.886 365.581 42.994 365.901 43.081L366.753 43.316C367.245 43.451 367.605 43.641 367.833 43.884 368.06 44.128 368.174 44.431 368.174 44.793 368.174 45.113 368.09 45.393 367.922 45.634 367.754 45.874 367.521 46.061 367.224 46.193 366.926 46.326 366.58 46.393 366.185 46.393M370.235 44.225L372.249 44.225 371.242 41.636 370.235 44.225zM373.052 46.303L372.517 44.915 369.968 44.915 369.432 46.303 368.604 46.303 370.812 40.783 371.697 40.783 373.897 46.303 373.052 46.303z"/>
    <polyline fill="#FFFFFF" points="377.712 46.303 377.712 41.473 375.853 41.473 375.853 40.783 380.391 40.783 380.391 41.473 378.532 41.473 378.532 46.303 377.712 46.303"/>
    <path fill="#FFFFFF" d="M383.346 45.678C383.703 45.678 384.021 45.588 384.299 45.406 384.578 45.225 384.796 44.975 384.953 44.655 385.11 44.336 385.188 43.965 385.188 43.543 385.188 43.121 385.11 42.75 384.953 42.431 384.796 42.112 384.578 41.862 384.299 41.68 384.021 41.499 383.703 41.408 383.346 41.408 382.988 41.408 382.672 41.499 382.396 41.68 382.12 41.862 381.903 42.112 381.746 42.431 381.589 42.75 381.511 43.121 381.511 43.543 381.511 43.965 381.589 44.336 381.746 44.655 381.903 44.975 382.12 45.225 382.396 45.406 382.672 45.588 382.988 45.678 383.346 45.678zM383.346 46.393C382.826 46.393 382.366 46.271 381.965 46.027 381.565 45.784 381.25 45.448 381.02 45.021 380.79 44.593 380.675 44.101 380.675 43.543 380.675 42.986 380.79 42.493 381.02 42.066 381.25 41.638 381.565 41.303 381.965 41.059 382.366 40.816 382.826 40.694 383.346 40.694 383.865 40.694 384.326 40.816 384.73 41.059 385.133 41.303 385.449 41.638 385.68 42.066 385.909 42.493 386.024 42.986 386.024 43.543 386.024 44.101 385.909 44.593 385.68 45.021 385.449 45.448 385.133 45.784 384.73 46.027 384.326 46.271 383.865 46.393 383.346 46.393zM387.997 45.613L389.117 45.613C389.507 45.613 389.841 45.528 390.12 45.358 390.398 45.187 390.612 44.948 390.761 44.639 390.91 44.331 390.984 43.965 390.984 43.543 390.984 43.121 390.91 42.756 390.761 42.447 390.612 42.139 390.398 41.899 390.12 41.729 389.841 41.559 389.507 41.473 389.117 41.473L387.997 41.473 387.997 45.613zM387.177 46.303L387.177 40.783 389.117 40.783C389.658 40.783 390.132 40.898 390.538 41.128 390.944 41.358 391.259 41.68 391.483 42.094 391.708 42.508 391.82 42.991 391.82 43.543 391.82 44.095 391.708 44.578 391.483 44.992 391.259 45.406 390.944 45.728 390.538 45.958 390.132 46.188 389.658 46.303 389.117 46.303L387.177 46.303zM393.915 44.225L395.928 44.225 394.921 41.636 393.915 44.225zM396.732 46.303L396.196 44.915 393.647 44.915 393.111 46.303 392.283 46.303 394.491 40.783 395.376 40.783 397.576 46.303 396.732 46.303z"/>
    <polyline fill="#FFFFFF" points="400.092 44.111 400.092 46.303 399.272 46.303 399.272 44.111 397.332 40.783 398.298 40.783 399.686 43.332 401.075 40.783 402.024 40.783 400.092 44.111"/>
    <polyline fill="#FFFFFF" points="408.583 46.303 405.637 42.074 405.637 46.303 404.865 46.303 404.865 40.783 405.628 40.783 408.583 45.013 408.583 40.783 409.346 40.783 409.346 46.303 408.583 46.303"/>
    <polyline fill="#FFFFFF" points="410.791 46.303 410.791 40.783 414.331 40.783 414.331 41.473 411.611 41.473 411.611 43.178 414.006 43.178 414.006 43.868 411.611 43.868 411.611 45.613 414.396 45.613 414.396 46.303 410.791 46.303"/>
    <polyline fill="#FFFFFF" points="416.831 46.303 416.831 41.473 414.972 41.473 414.972 40.783 419.51 40.783 419.51 41.473 417.651 41.473 417.651 46.303 416.831 46.303"/>
    <polyline fill="#FFFFFF" points="424.867 46.303 423.576 41.904 422.286 46.303 421.433 46.303 419.964 40.783 420.776 40.783 421.896 45.15 423.187 40.783 423.966 40.783 425.265 45.167 426.393 40.783 427.189 40.783 425.719 46.303 424.867 46.303"/>
    <path fill="#FFFFFF" d="M430.444 45.678C430.802 45.678 431.119 45.588 431.398 45.406 431.677 45.225 431.895 44.975 432.051 44.655 432.208 44.336 432.287 43.965 432.287 43.543 432.287 43.121 432.208 42.75 432.051 42.431 431.895 42.112 431.677 41.862 431.398 41.68 431.119 41.499 430.802 41.408 430.444 41.408 430.087 41.408 429.771 41.499 429.495 41.68 429.218 41.862 429.002 42.112 428.845 42.431 428.688 42.75 428.61 43.121 428.61 43.543 428.61 43.965 428.688 44.336 428.845 44.655 429.002 44.975 429.218 45.225 429.495 45.406 429.771 45.588 430.087 45.678 430.444 45.678zM430.444 46.393C429.925 46.393 429.465 46.271 429.064 46.027 428.664 45.784 428.349 45.448 428.119 45.021 427.888 44.593 427.773 44.101 427.773 43.543 427.773 42.986 427.888 42.493 428.119 42.066 428.349 41.638 428.664 41.303 429.064 41.059 429.465 40.816 429.925 40.694 430.444 40.694 430.964 40.694 431.425 40.816 431.828 41.059 432.231 41.303 432.548 41.638 432.778 42.066 433.008 42.493 433.123 42.986 433.123 43.543 433.123 44.101 433.008 44.593 432.778 45.021 432.548 45.448 432.231 45.784 431.828 46.027 431.425 46.271 430.964 46.393 430.444 46.393zM435.096 43.389L436.224 43.389C436.576 43.389 436.856 43.303 437.064 43.129 437.272 42.956 437.377 42.723 437.377 42.431 437.377 42.139 437.272 41.906 437.064 41.733 436.856 41.56 436.576 41.473 436.224 41.473L435.096 41.473 435.096 43.389zM435.096 44.063L435.096 46.303 434.276 46.303 434.276 40.783 436.224 40.783C436.835 40.783 437.32 40.931 437.677 41.225 438.034 41.521 438.213 41.923 438.213 42.431 438.213 42.816 438.104 43.14 437.888 43.405 437.671 43.67 437.374 43.857 436.995 43.965L438.335 46.303 437.401 46.303 436.143 44.063 435.096 44.063z"/>
    <polyline fill="#FFFFFF" points="442.669 46.303 440.194 43.519 440.194 46.303 439.374 46.303 439.374 40.783 440.194 40.783 440.194 43.202 442.507 40.783 443.522 40.783 441.062 43.316 443.7 46.303 442.669 46.303"/>
    <path class="no-color-change" fill="#009BFF" d="M8.649 25.583L8.649 34.447.819 34.447.819 11.543 7.974 11.543 8.469 15.367C8.948 14.138 9.736 13.14 10.831 12.375 11.926 11.61 13.194 11.228 14.634 11.228 15.444 11.228 16.058 11.333 16.479 11.543L16.479 18.697C16.148 18.578 15.781 18.488 15.376 18.428 14.971 18.368 14.514 18.337 14.004 18.337 12.444 18.337 11.161 18.916 10.156 20.07 9.151 21.226 8.649 23.063 8.649 25.583M31.104 16.627C28.553 16.627 27.023 17.978 26.514 20.678L35.243 20.678C35.033 19.208 34.531 18.165 33.736 17.55 32.941 16.936 32.063 16.627 31.104 16.627zM41.814 32.107C40.673 32.918 39.226 33.608 37.471 34.178 35.716 34.747 33.848 35.032 31.868 35.032 29.138 35.032 26.806 34.53 24.871 33.525 22.936 32.521 21.451 31.117 20.416 29.317 19.381 27.518 18.864 25.447 18.864 23.107 18.864 20.738 19.373 18.638 20.393 16.808 21.413 14.978 22.824 13.545 24.624 12.51 26.423 11.475 28.523 10.958 30.923 10.958 33.264 10.958 35.326 11.46 37.111 12.465 38.896 13.471 40.291 14.865 41.296 16.65 42.301 18.436 42.804 20.528 42.804 22.928 42.804 23.258 42.781 23.603 42.736 23.962 42.691 24.322 42.638 24.698 42.578 25.087L26.604 25.087C27.324 27.728 29.288 29.048 32.499 29.048 33.939 29.048 35.213 28.822 36.324 28.372 37.433 27.923 38.363 27.473 39.114 27.022L41.814 32.107zM54.638 21.803L54.638 34.447 46.808 34.447 46.808 11.543 53.963 11.543 54.368 14.558C55.118 13.478 56.093 12.607 57.293 11.947 58.493 11.288 59.813 10.958 61.253 10.958 63.743 10.958 65.738 11.768 67.238 13.388 68.738 15.008 69.488 17.333 69.488 20.362L69.488 34.447 61.658 34.447 61.658 21.263C61.658 19.913 61.358 18.916 60.758 18.27 60.158 17.625 59.318 17.303 58.238 17.303 57.158 17.303 56.288 17.647 55.628 18.337 54.968 19.028 54.638 20.183 54.638 21.803M85.688 28.822C87.067 28.822 88.17 28.29 88.995 27.225 89.82 26.16 90.233 24.743 90.233 22.973 90.233 21.203 89.82 19.793 88.995 18.742 88.17 17.692 87.067 17.168 85.688 17.168 84.308 17.168 83.205 17.692 82.38 18.742 81.555 19.793 81.143 21.203 81.143 22.973 81.143 24.743 81.555 26.16 82.38 27.225 83.205 28.29 84.308 28.822 85.688 28.822zM85.688 35.032C83.227 35.032 81.06 34.515 79.185 33.48 77.31 32.445 75.84 31.027 74.775 29.228 73.71 27.428 73.178 25.343 73.178 22.973 73.178 20.603 73.71 18.518 74.775 16.718 75.84 14.918 77.31 13.508 79.185 12.487 81.06 11.468 83.227 10.958 85.688 10.958 88.147 10.958 90.315 11.468 92.19 12.487 94.065 13.508 95.535 14.918 96.6 16.718 97.665 18.518 98.198 20.603 98.198 22.973 98.198 25.343 97.665 27.428 96.6 29.228 95.535 31.027 94.065 32.445 92.19 33.48 90.315 34.515 88.147 35.032 85.688 35.032z"/>
    <path fill="#FFFFFF" d="M124.117 27.563C125.437 27.563 126.502 27.09 127.312 26.145 128.122 25.2 128.527 23.933 128.527 22.343 128.527 20.753 128.122 19.485 127.312 18.54 126.502 17.595 125.437 17.123 124.117 17.123 122.767 17.123 121.687 17.595 120.877 18.54 120.067 19.485 119.662 20.753 119.662 22.343 119.662 23.903 120.067 25.163 120.877 26.123 121.687 27.083 122.767 27.563 124.117 27.563zM136.267 32.018C136.267 34.357 135.727 36.36 134.647 38.025 133.567 39.69 132.075 40.965 130.17 41.85 128.264 42.734 126.052 43.178 123.532 43.178 121.492 43.178 119.557 42.907 117.727 42.367 115.897 41.827 114.262 41.107 112.822 40.208L115.747 35.168C116.767 35.768 117.84 36.255 118.965 36.63 120.09 37.005 121.252 37.192 122.452 37.192 124.462 37.192 125.962 36.742 126.952 35.843 127.942 34.942 128.437 33.668 128.437 32.018L128.437 31.208C127.657 31.988 126.72 32.61 125.625 33.075 124.529 33.541 123.382 33.772 122.182 33.772 120.112 33.772 118.29 33.285 116.715 32.31 115.14 31.335 113.909 29.985 113.025 28.26 112.14 26.535 111.697 24.563 111.697 22.343 111.697 20.093 112.132 18.112 113.002 16.402 113.872 14.692 115.087 13.358 116.647 12.397 118.207 11.438 120.007 10.958 122.047 10.958 123.427 10.958 124.709 11.288 125.895 11.947 127.079 12.607 128.017 13.478 128.707 14.558L129.112 11.543 136.267 11.543 136.267 32.018zM147.922 27.022C147.922 27.713 148.176 28.275 148.687 28.71 149.197 29.146 149.857 29.362 150.667 29.362 151.747 29.362 152.654 28.995 153.389 28.26 154.124 27.525 154.492 26.603 154.492 25.492L154.492 24.728C153.682 24.578 152.827 24.502 151.927 24.502 150.786 24.502 149.834 24.698 149.069 25.087 148.304 25.478 147.922 26.123 147.922 27.022zM154.807 34.447L154.402 31.433C152.902 33.833 150.622 35.032 147.562 35.032 146.212 35.032 144.989 34.74 143.894 34.155 142.799 33.57 141.929 32.768 141.284 31.748 140.639 30.728 140.317 29.543 140.317 28.192 140.317 25.643 141.314 23.663 143.309 22.252 145.304 20.843 147.937 20.138 151.207 20.138 152.226 20.138 153.306 20.228 154.447 20.407 154.327 19.268 153.839 18.405 152.984 17.82 152.129 17.235 151.087 16.942 149.857 16.942 148.777 16.942 147.689 17.145 146.594 17.55 145.499 17.955 144.457 18.443 143.467 19.013L140.812 13.973C142.312 13.013 143.932 12.271 145.672 11.745 147.411 11.221 149.152 10.958 150.892 10.958 152.991 10.958 154.881 11.317 156.562 12.038 158.242 12.758 159.561 13.853 160.522 15.322 161.482 16.793 161.962 18.652 161.962 20.902L161.962 34.447 154.807 34.447z"/>
    <polyline fill="#FFFFFF" points="185.902 28.598 185.902 34.447 165.607 34.447 165.607 29.543 176.047 17.393 166.282 17.393 166.282 11.543 185.542 11.543 185.542 16.447 175.192 28.598 185.902 28.598"/>
    <path fill="#FFFFFF" d="M201.022 16.627C198.471 16.627 196.941 17.978 196.432 20.678L205.162 20.678C204.951 19.208 204.449 18.165 203.654 17.55 202.859 16.936 201.981 16.627 201.022 16.627zM211.732 32.107C210.591 32.918 209.144 33.608 207.389 34.178 205.634 34.747 203.766 35.032 201.787 35.032 199.056 35.032 196.724 34.53 194.789 33.525 192.854 32.521 191.369 31.117 190.334 29.317 189.299 27.518 188.782 25.447 188.782 23.107 188.782 20.738 189.291 18.638 190.311 16.808 191.331 14.978 192.742 13.545 194.542 12.51 196.341 11.475 198.441 10.958 200.841 10.958 203.182 10.958 205.244 11.46 207.029 12.465 208.814 13.471 210.209 14.865 211.214 16.65 212.219 18.436 212.722 20.528 212.722 22.928 212.722 23.258 212.699 23.603 212.654 23.962 212.609 24.322 212.556 24.698 212.496 25.087L196.522 25.087C197.242 27.728 199.206 29.048 202.417 29.048 203.857 29.048 205.131 28.822 206.242 28.372 207.351 27.923 208.281 27.473 209.032 27.022L211.732 32.107zM233.601 32.962C232.671 33.593 231.606 34.095 230.406 34.47 229.206 34.845 227.946 35.032 226.626 35.032 224.166 35.032 222.208 34.32 220.754 32.895 219.298 31.471 218.571 29.558 218.571 27.157L218.571 17.393 214.836 17.393 214.836 11.543 218.931 11.543 219.921 5.152 226.401 5.152 226.401 11.543 232.386 11.543 232.386 17.393 226.401 17.393 226.401 26.168C226.401 26.948 226.633 27.556 227.099 27.99 227.563 28.425 228.186 28.643 228.966 28.643 229.356 28.643 229.754 28.568 230.159 28.418 230.564 28.268 230.946 28.088 231.306 27.877L233.601 32.962M254.211 32.962C253.281 33.593 252.215 34.095 251.016 34.47 249.816 34.845 248.556 35.032 247.236 35.032 244.776 35.032 242.818 34.32 241.363 32.895 239.908 31.471 239.181 29.558 239.181 27.157L239.181 17.393 235.446 17.393 235.446 11.543 239.541 11.543 240.531 5.152 247.011 5.152 247.011 11.543 252.996 11.543 252.996 17.393 247.011 17.393 247.011 26.168C247.011 26.948 247.243 27.556 247.708 27.99 248.173 28.425 248.795 28.643 249.576 28.643 249.965 28.643 250.363 28.568 250.768 28.418 251.173 28.268 251.556 28.088 251.916 27.877L254.211 32.962M268.116 16.627C265.565 16.627 264.035 17.978 263.525 20.678L272.255 20.678C272.045 19.208 271.542 18.165 270.748 17.55 269.953 16.936 269.075 16.627 268.116 16.627zM278.826 32.107C277.685 32.918 276.238 33.608 274.483 34.178 272.728 34.747 270.86 35.032 268.88 35.032 266.15 35.032 263.818 34.53 261.883 33.525 259.948 32.521 258.463 31.117 257.428 29.317 256.393 27.518 255.875 25.447 255.875 23.107 255.875 20.738 256.385 18.638 257.405 16.808 258.425 14.978 259.835 13.545 261.636 12.51 263.435 11.475 265.535 10.958 267.935 10.958 270.275 10.958 272.338 11.46 274.123 12.465 275.908 13.471 277.303 14.865 278.308 16.65 279.313 18.436 279.815 20.528 279.815 22.928 279.815 23.258 279.793 23.603 279.748 23.962 279.703 24.322 279.65 24.698 279.59 25.087L263.616 25.087C264.335 27.728 266.3 29.048 269.511 29.048 270.951 29.048 272.225 28.822 273.335 28.372 274.445 27.923 275.375 27.473 276.125 27.022L278.826 32.107zM291.74 42.772L290.255 36.383C291.576 36.262 292.64 35.827 293.45 35.077 294.26 34.328 294.665 33.277 294.665 31.928L294.665 11.543C295.925 11.813 297.2 11.947 298.49 11.947 299.81 11.947 301.145 11.813 302.495 11.543L302.495 31.522C302.495 34.853 301.632 37.478 299.908 39.397 298.182 41.317 295.459 42.442 291.74 42.772M319.1 28.822C320.479 28.822 321.582 28.29 322.407 27.225 323.232 26.16 323.645 24.743 323.645 22.973 323.645 21.203 323.232 19.793 322.407 18.742 321.582 17.692 320.479 17.168 319.1 17.168 317.72 17.168 316.617 17.692 315.792 18.742 314.967 19.793 314.555 21.203 314.555 22.973 314.555 24.743 314.967 26.16 315.792 27.225 316.617 28.29 317.72 28.822 319.1 28.822zM319.1 35.032C316.64 35.032 314.472 34.515 312.597 33.48 310.722 32.445 309.252 31.027 308.187 29.228 307.122 27.428 306.59 25.343 306.59 22.973 306.59 20.603 307.122 18.518 308.187 16.718 309.252 14.918 310.722 13.508 312.597 12.487 314.472 11.468 316.64 10.958 319.1 10.958 321.559 10.958 323.727 11.468 325.602 12.487 327.477 13.508 328.947 14.918 330.012 16.718 331.077 18.518 331.61 20.603 331.61 22.973 331.61 25.343 331.077 27.428 330.012 29.228 328.947 31.027 327.477 32.445 325.602 33.48 323.727 34.515 321.559 35.032 319.1 35.032zM350.825 34.447L350.42 31.433C349.669 32.543 348.687 33.42 347.472 34.065 346.257 34.71 344.945 35.032 343.535 35.032 340.864 35.032 338.825 34.245 337.415 32.67 336.004 31.095 335.3 28.822 335.3 25.853L335.3 11.543 343.13 11.543 343.13 24.952C343.13 27.443 344.269 28.688 346.55 28.688 348.95 28.688 350.15 27.188 350.15 24.188L350.15 11.543 357.98 11.543 357.98 34.447 350.825 34.447M371.299 25.583L371.299 34.447 363.469 34.447 363.469 11.543 370.624 11.543 371.119 15.367C371.599 14.138 372.386 13.14 373.482 12.375 374.577 11.61 375.844 11.228 377.284 11.228 378.094 11.228 378.709 11.333 379.129 11.543L379.129 18.697C378.799 18.578 378.432 18.488 378.027 18.428 377.621 18.368 377.164 18.337 376.654 18.337 375.094 18.337 373.811 18.916 372.807 20.07 371.801 21.226 371.299 23.063 371.299 25.583M390.739 21.803L390.739 34.447 382.909 34.447 382.909 11.543 390.064 11.543 390.469 14.558C391.218 13.478 392.194 12.607 393.394 11.947 394.593 11.288 395.914 10.958 397.354 10.958 399.844 10.958 401.838 11.768 403.339 13.388 404.839 15.008 405.589 17.333 405.589 20.362L405.589 34.447 397.759 34.447 397.759 21.263C397.759 19.913 397.458 18.916 396.859 18.27 396.258 17.625 395.419 17.303 394.339 17.303 393.259 17.303 392.389 17.647 391.729 18.337 391.069 19.028 390.739 20.183 390.739 21.803M416.838 27.022C416.838 27.713 417.093 28.275 417.603 28.71 418.113 29.146 418.773 29.362 419.583 29.362 420.663 29.362 421.57 28.995 422.306 28.26 423.04 27.525 423.408 26.603 423.408 25.492L423.408 24.728C422.598 24.578 421.743 24.502 420.843 24.502 419.703 24.502 418.75 24.698 417.986 25.087 417.221 25.478 416.838 26.123 416.838 27.022zM423.723 34.447L423.318 31.433C421.818 33.833 419.538 35.032 416.478 35.032 415.128 35.032 413.905 34.74 412.81 34.155 411.715 33.57 410.845 32.768 410.201 31.748 409.555 30.728 409.233 29.543 409.233 28.192 409.233 25.643 410.23 23.663 412.225 22.252 414.221 20.843 416.853 20.138 420.123 20.138 421.142 20.138 422.223 20.228 423.363 20.407 423.243 19.268 422.756 18.405 421.901 17.82 421.046 17.235 420.003 16.942 418.773 16.942 417.693 16.942 416.605 17.145 415.511 17.55 414.415 17.955 413.373 18.443 412.383 19.013L409.728 13.973C411.228 13.013 412.848 12.271 414.588 11.745 416.328 11.221 418.068 10.958 419.808 10.958 421.908 10.958 423.798 11.317 425.478 12.038 427.158 12.758 428.477 13.853 429.438 15.322 430.398 16.793 430.878 18.652 430.878 20.902L430.878 34.447 423.723 34.447z"/>
    <polygon fill="#FFFFFF" points="435.873 34.448 443.703 34.448 443.703 1.598 435.873 1.598"/>
    <path class="no-color-change" fill="#009BFF" d="M298.49,10.35 C297.2,10.35 296.097,9.893 295.182,8.978 C294.267,8.063 293.81,6.96 293.81,5.67 C293.81,4.38 294.267,3.278 295.182,2.362 C296.097,1.448 297.2,0.99 298.49,0.99 C299.78,0.99 300.882,1.448 301.798,2.362 C302.712,3.278 303.17,4.38 303.17,5.67 C303.17,6.96 302.712,8.063 301.798,8.978 C300.882,9.893 299.78,10.35 298.49,10.35"/>
  </g>
</svg>
