<svg xmlns="http://www.w3.org/2000/svg" width="444" height="43" viewBox="0 0 444 43">
  <g fill="none" fill-rule="evenodd">
    <path fill="#009BFF" class="no-color-change" d="M8.437 25.202L8.437 34.067.607 34.067.607 11.162 7.762 11.162 8.257 14.987C8.736 13.758 9.524 12.76 10.619 11.995 11.714 11.23 12.982 10.848 14.422 10.848 15.232 10.848 15.846 10.953 16.267 11.162L16.267 18.317C15.936 18.198 15.569 18.108 15.164 18.048 14.759 17.988 14.302 17.957 13.792 17.957 12.232 17.957 10.949 18.535 9.944 19.69 8.939 20.846 8.437 22.683 8.437 25.202M30.892 16.247C28.341 16.247 26.811 17.597 26.302 20.298L35.032 20.298C34.821 18.828 34.319 17.785 33.524 17.17 32.729 16.556 31.851 16.247 30.892 16.247zM41.602 31.727C40.461 32.538 39.014 33.228 37.259 33.798 35.504 34.367 33.636 34.652 31.657 34.652 28.926 34.652 26.594 34.15 24.659 33.145 22.724 32.14 21.239 30.737 20.204 28.937 19.169 27.138 18.652 25.067 18.652 22.727 18.652 20.358 19.161 18.258 20.181 16.428 21.201 14.598 22.612 13.165 24.412 12.13 26.211 11.095 28.311 10.577 30.711 10.577 33.052 10.577 35.114 11.08 36.899 12.085 38.684 13.091 40.079 14.485 41.084 16.27 42.089 18.056 42.592 20.148 42.592 22.548 42.592 22.878 42.569 23.222 42.524 23.582 42.479 23.942 42.426 24.318 42.366 24.707L26.392 24.707C27.112 27.347 29.076 28.668 32.287 28.668 33.727 28.668 35.001 28.442 36.112 27.992 37.221 27.543 38.151 27.093 38.902 26.642L41.602 31.727 41.602 31.727zM54.426 21.423L54.426 34.067 46.596 34.067 46.596 11.162 53.751 11.162 54.156 14.178C54.906 13.097 55.881 12.227 57.081 11.567 58.281 10.908 59.601 10.577 61.041 10.577 63.531 10.577 65.526 11.388 67.026 13.008 68.526 14.628 69.276 16.953 69.276 19.982L69.276 34.067 61.446 34.067 61.446 20.883C61.446 19.533 61.146 18.535 60.546 17.89 59.946 17.245 59.106 16.923 58.026 16.923 56.946 16.923 56.076 17.267 55.416 17.957 54.756 18.648 54.426 19.803 54.426 21.423M85.476 28.442C86.855 28.442 87.958 27.91 88.783 26.845 89.608 25.78 90.021 24.363 90.021 22.593 90.021 20.823 89.608 19.413 88.783 18.362 87.958 17.312 86.855 16.788 85.476 16.788 84.096 16.788 82.993 17.312 82.168 18.362 81.343 19.413 80.931 20.823 80.931 22.593 80.931 24.363 81.343 25.78 82.168 26.845 82.993 27.91 84.096 28.442 85.476 28.442zM85.476 34.652C83.015 34.652 80.848 34.135 78.973 33.1 77.098 32.065 75.628 30.647 74.563 28.847 73.498 27.048 72.966 24.963 72.966 22.593 72.966 20.223 73.498 18.138 74.563 16.338 75.628 14.538 77.098 13.128 78.973 12.107 80.848 11.088 83.015 10.577 85.476 10.577 87.935 10.577 90.103 11.088 91.978 12.107 93.853 13.128 95.323 14.538 96.388 16.338 97.453 18.138 97.986 20.223 97.986 22.593 97.986 24.963 97.453 27.048 96.388 28.847 95.323 30.647 93.853 32.065 91.978 33.1 90.103 34.135 87.935 34.652 85.476 34.652L85.476 34.652z"/>
    <path fill="#FFFFFF" d="M123.905 27.183C125.225 27.183 126.29 26.71 127.1 25.765 127.91 24.82 128.315 23.553 128.315 21.963 128.315 20.373 127.91 19.105 127.1 18.16 126.29 17.215 125.225 16.742 123.905 16.742 122.555 16.742 121.475 17.215 120.665 18.16 119.855 19.105 119.45 20.373 119.45 21.963 119.45 23.523 119.855 24.783 120.665 25.742 121.475 26.703 122.555 27.183 123.905 27.183zM136.055 31.638C136.055 33.977 135.515 35.98 134.435 37.645 133.355 39.31 131.863 40.585 129.958 41.47 128.052 42.354 125.84 42.798 123.32 42.798 121.28 42.798 119.345 42.527 117.515 41.987 115.685 41.447 114.05 40.727 112.61 39.827L115.535 34.788C116.555 35.388 117.628 35.875 118.753 36.25 119.878 36.625 121.04 36.812 122.24 36.812 124.25 36.812 125.75 36.362 126.74 35.463 127.73 34.562 128.225 33.288 128.225 31.638L128.225 30.827C127.445 31.608 126.508 32.23 125.413 32.695 124.317 33.16 123.17 33.392 121.97 33.392 119.9 33.392 118.078 32.905 116.503 31.93 114.928 30.955 113.697 29.605 112.813 27.88 111.928 26.155 111.485 24.183 111.485 21.963 111.485 19.713 111.92 17.732 112.79 16.022 113.66 14.312 114.875 12.978 116.435 12.017 117.995 11.058 119.795 10.577 121.835 10.577 123.215 10.577 124.497 10.908 125.683 11.567 126.867 12.227 127.805 13.097 128.495 14.178L128.9 11.162 136.055 11.162 136.055 31.638 136.055 31.638zM147.71 26.642C147.71 27.333 147.964 27.895 148.475 28.33 148.985 28.765 149.645 28.982 150.455 28.982 151.535 28.982 152.442 28.615 153.177 27.88 153.912 27.145 154.28 26.222 154.28 25.112L154.28 24.347C153.47 24.198 152.615 24.122 151.715 24.122 150.574 24.122 149.622 24.318 148.857 24.707 148.092 25.097 147.71 25.742 147.71 26.642zM154.595 34.067L154.19 31.053C152.69 33.453 150.41 34.652 147.35 34.652 146 34.652 144.777 34.36 143.682 33.775 142.587 33.19 141.717 32.388 141.072 31.368 140.427 30.348 140.105 29.163 140.105 27.812 140.105 25.263 141.102 23.283 143.097 21.872 145.092 20.463 147.725 19.758 150.995 19.758 152.014 19.758 153.094 19.847 154.235 20.027 154.115 18.888 153.627 18.025 152.772 17.44 151.917 16.855 150.875 16.562 149.645 16.562 148.565 16.562 147.477 16.765 146.382 17.17 145.287 17.575 144.245 18.063 143.255 18.633L140.6 13.593C142.1 12.633 143.72 11.891 145.46 11.365 147.199 10.841 148.94 10.577 150.68 10.577 152.779 10.577 154.669 10.937 156.35 11.658 158.03 12.378 159.349 13.473 160.31 14.942 161.27 16.413 161.75 18.272 161.75 20.522L161.75 34.067 154.595 34.067 154.595 34.067z"/>
    <polyline fill="#FFFFFF" points="185.69 28.218 185.69 34.067 165.395 34.067 165.395 29.163 175.835 17.013 166.07 17.013 166.07 11.162 185.33 11.162 185.33 16.067 174.98 28.218 185.69 28.218"/>
    <path fill="#FFFFFF" d="M200.81 16.247C198.259 16.247 196.729 17.597 196.22 20.298L204.95 20.298C204.739 18.828 204.237 17.785 203.442 17.17 202.647 16.556 201.769 16.247 200.81 16.247zM211.52 31.727C210.379 32.538 208.932 33.228 207.177 33.798 205.422 34.367 203.555 34.652 201.575 34.652 198.844 34.652 196.512 34.15 194.577 33.145 192.642 32.14 191.157 30.737 190.122 28.937 189.087 27.138 188.57 25.067 188.57 22.727 188.57 20.358 189.079 18.258 190.099 16.428 191.119 14.598 192.53 13.165 194.33 12.13 196.129 11.095 198.229 10.577 200.629 10.577 202.97 10.577 205.032 11.08 206.817 12.085 208.602 13.091 209.997 14.485 211.002 16.27 212.007 18.056 212.51 20.148 212.51 22.548 212.51 22.878 212.487 23.222 212.442 23.582 212.397 23.942 212.344 24.318 212.284 24.707L196.31 24.707C197.03 27.347 198.994 28.668 202.205 28.668 203.645 28.668 204.919 28.442 206.03 27.992 207.139 27.543 208.069 27.093 208.82 26.642L211.52 31.727 211.52 31.727zM233.389 32.582C232.459 33.213 231.394 33.715 230.194 34.09 228.994 34.465 227.734 34.652 226.414 34.652 223.954 34.652 221.996 33.94 220.542 32.515 219.086 31.091 218.359 29.178 218.359 26.777L218.359 17.013 214.624 17.013 214.624 11.162 218.719 11.162 219.709 4.772 226.189 4.772 226.189 11.162 232.174 11.162 232.174 17.013 226.189 17.013 226.189 25.788C226.189 26.568 226.421 27.176 226.887 27.61 227.351 28.045 227.974 28.263 228.754 28.263 229.144 28.263 229.542 28.188 229.947 28.038 230.352 27.888 230.734 27.708 231.094 27.497L233.389 32.582M253.999 32.582C253.069 33.213 252.003 33.715 250.804 34.09 249.604 34.465 248.344 34.652 247.024 34.652 244.564 34.652 242.606 33.94 241.151 32.515 239.696 31.091 238.969 29.178 238.969 26.777L238.969 17.013 235.234 17.013 235.234 11.162 239.329 11.162 240.319 4.772 246.799 4.772 246.799 11.162 252.784 11.162 252.784 17.013 246.799 17.013 246.799 25.788C246.799 26.568 247.031 27.176 247.496 27.61 247.961 28.045 248.583 28.263 249.364 28.263 249.753 28.263 250.151 28.188 250.556 28.038 250.961 27.888 251.344 27.708 251.704 27.497L253.999 32.582M267.904 16.247C265.353 16.247 263.823 17.597 263.313 20.298L272.043 20.298C271.833 18.828 271.33 17.785 270.536 17.17 269.741 16.556 268.863 16.247 267.904 16.247zM278.614 31.727C277.473 32.538 276.026 33.228 274.271 33.798 272.516 34.367 270.648 34.652 268.668 34.652 265.938 34.652 263.606 34.15 261.671 33.145 259.736 32.14 258.251 30.737 257.216 28.937 256.181 27.138 255.663 25.067 255.663 22.727 255.663 20.358 256.173 18.258 257.193 16.428 258.213 14.598 259.623 13.165 261.424 12.13 263.223 11.095 265.323 10.577 267.723 10.577 270.063 10.577 272.126 11.08 273.911 12.085 275.696 13.091 277.091 14.485 278.096 16.27 279.101 18.056 279.603 20.148 279.603 22.548 279.603 22.878 279.581 23.222 279.536 23.582 279.491 23.942 279.438 24.318 279.378 24.707L263.404 24.707C264.123 27.347 266.088 28.668 269.299 28.668 270.739 28.668 272.013 28.442 273.123 27.992 274.233 27.543 275.163 27.093 275.913 26.642L278.614 31.727 278.614 31.727zM291.528 42.392L290.043 36.003C291.364 35.882 292.428 35.447 293.238 34.697 294.048 33.948 294.453 32.897 294.453 31.548L294.453 11.162C295.713 11.433 296.988 11.567 298.278 11.567 299.598 11.567 300.933 11.433 302.283 11.162L302.283 31.142C302.283 34.472 301.42 37.097 299.696 39.017 297.97 40.937 295.247 42.062 291.528 42.392M318.888 28.442C320.267 28.442 321.37 27.91 322.195 26.845 323.02 25.78 323.433 24.363 323.433 22.593 323.433 20.823 323.02 19.413 322.195 18.362 321.37 17.312 320.267 16.788 318.888 16.788 317.508 16.788 316.405 17.312 315.58 18.362 314.755 19.413 314.343 20.823 314.343 22.593 314.343 24.363 314.755 25.78 315.58 26.845 316.405 27.91 317.508 28.442 318.888 28.442zM318.888 34.652C316.428 34.652 314.26 34.135 312.385 33.1 310.51 32.065 309.04 30.647 307.975 28.847 306.91 27.048 306.378 24.963 306.378 22.593 306.378 20.223 306.91 18.138 307.975 16.338 309.04 14.538 310.51 13.128 312.385 12.107 314.26 11.088 316.428 10.577 318.888 10.577 321.347 10.577 323.515 11.088 325.39 12.107 327.265 13.128 328.735 14.538 329.8 16.338 330.865 18.138 331.398 20.223 331.398 22.593 331.398 24.963 330.865 27.048 329.8 28.847 328.735 30.647 327.265 32.065 325.39 33.1 323.515 34.135 321.347 34.652 318.888 34.652L318.888 34.652zM350.613 34.067L350.208 31.053C349.457 32.163 348.475 33.04 347.26 33.685 346.045 34.33 344.733 34.652 343.323 34.652 340.652 34.652 338.613 33.865 337.203 32.29 335.792 30.715 335.088 28.442 335.088 25.472L335.088 11.162 342.918 11.162 342.918 24.572C342.918 27.063 344.057 28.308 346.338 28.308 348.738 28.308 349.938 26.808 349.938 23.808L349.938 11.162 357.768 11.162 357.768 34.067 350.613 34.067M371.087 25.202L371.087 34.067 363.257 34.067 363.257 11.162 370.412 11.162 370.907 14.987C371.387 13.758 372.174 12.76 373.27 11.995 374.365 11.23 375.632 10.848 377.072 10.848 377.882 10.848 378.497 10.953 378.917 11.162L378.917 18.317C378.587 18.198 378.22 18.108 377.815 18.048 377.409 17.988 376.952 17.957 376.442 17.957 374.882 17.957 373.599 18.535 372.595 19.69 371.589 20.846 371.087 22.683 371.087 25.202M390.527 21.423L390.527 34.067 382.697 34.067 382.697 11.162 389.852 11.162 390.257 14.178C391.006 13.097 391.982 12.227 393.182 11.567 394.381 10.908 395.702 10.577 397.142 10.577 399.632 10.577 401.626 11.388 403.127 13.008 404.627 14.628 405.377 16.953 405.377 19.982L405.377 34.067 397.547 34.067 397.547 20.883C397.547 19.533 397.246 18.535 396.647 17.89 396.046 17.245 395.207 16.923 394.127 16.923 393.047 16.923 392.177 17.267 391.517 17.957 390.857 18.648 390.527 19.803 390.527 21.423M416.626 26.642C416.626 27.333 416.881 27.895 417.391 28.33 417.901 28.765 418.561 28.982 419.371 28.982 420.451 28.982 421.358 28.615 422.094 27.88 422.828 27.145 423.196 26.222 423.196 25.112L423.196 24.347C422.386 24.198 421.531 24.122 420.631 24.122 419.491 24.122 418.538 24.318 417.774 24.707 417.009 25.097 416.626 25.742 416.626 26.642zM423.511 34.067L423.106 31.053C421.606 33.453 419.326 34.652 416.266 34.652 414.916 34.652 413.693 34.36 412.598 33.775 411.503 33.19 410.633 32.388 409.989 31.368 409.343 30.348 409.021 29.163 409.021 27.812 409.021 25.263 410.018 23.283 412.013 21.872 414.009 20.463 416.641 19.758 419.911 19.758 420.93 19.758 422.011 19.847 423.151 20.027 423.031 18.888 422.544 18.025 421.689 17.44 420.834 16.855 419.791 16.562 418.561 16.562 417.481 16.562 416.393 16.765 415.299 17.17 414.203 17.575 413.161 18.063 412.171 18.633L409.516 13.593C411.016 12.633 412.636 11.891 414.376 11.365 416.116 10.841 417.856 10.577 419.596 10.577 421.696 10.577 423.586 10.937 425.266 11.658 426.946 12.378 428.265 13.473 429.226 14.942 430.186 16.413 430.666 18.272 430.666 20.522L430.666 34.067 423.511 34.067 423.511 34.067z"/>
    <polygon fill="#FFFFFF" points="435.661 34.068 443.492 34.068 443.492 1.218 435.661 1.218"/>
    <path fill="#009BFF" class="no-color-change" d="M298.278,9.97 C296.988,9.97 295.885,9.513 294.971,8.598 C294.055,7.683 293.598,6.58 293.598,5.29 C293.598,4 294.055,2.898 294.971,1.982 C295.885,1.068 296.988,0.61 298.278,0.61 C299.568,0.61 300.67,1.068 301.586,1.982 C302.5,2.898 302.958,4 302.958,5.29 C302.958,6.58 302.5,7.683 301.586,8.598 C300.67,9.513 299.568,9.97 298.278,9.97"/>
  </g>
</svg>
