<svg xmlns="http://www.w3.org/2000/svg" width="190" height="45" viewBox="0 0 190 45">
  <g fill="none" fill-rule="evenodd">
    <path fill="#009BFF" class='no-color-change' d="M8.457 16.572L12.507 16.572C13.797 16.572 14.817 16.234 15.567 15.56 16.317 14.885 16.692 13.992 16.692 12.882 16.692 11.772 16.317 10.879 15.567 10.205 14.817 9.529 13.797 9.192 12.507 9.192L8.457 9.192 8.457 16.572zM.357 33.177L.357 2.577 13.317 2.577C16.917 2.577 19.767 3.499 21.867 5.345 23.967 7.189 25.017 9.702 25.017 12.882 25.017 14.952 24.545 16.745 23.6 18.26 22.655 19.774 21.327 20.945 19.617 21.77 17.907 22.595 15.867 23.007 13.497 23.007L8.457 23.007 8.457 33.177.357 33.177zM35.186 25.752C35.186 26.442 35.441 27.005 35.952 27.439 36.461 27.875 37.122 28.092 37.932 28.092 39.012 28.092 39.919 27.725 40.654 26.989 41.389 26.255 41.757 25.332 41.757 24.222L41.757 23.457C40.946 23.307 40.092 23.232 39.192 23.232 38.051 23.232 37.099 23.428 36.334 23.817 35.569 24.207 35.186 24.852 35.186 25.752zM42.071 33.177L41.666 30.162C40.166 32.562 37.887 33.762 34.827 33.762 33.477 33.762 32.254 33.47 31.159 32.885 30.064 32.3 29.194 31.497 28.549 30.477 27.904 29.458 27.581 28.272 27.581 26.922 27.581 24.373 28.579 22.393 30.574 20.982 32.569 19.572 35.201 18.867 38.472 18.867 39.491 18.867 40.571 18.957 41.712 19.137 41.591 17.997 41.104 17.135 40.249 16.55 39.394 15.965 38.351 15.672 37.122 15.672 36.041 15.672 34.954 15.875 33.859 16.279 32.764 16.685 31.722 17.172 30.732 17.742L28.077 12.702C29.576 11.742 31.196 11 32.936 10.475 34.676 9.95 36.416 9.687 38.156 9.687 40.256 9.687 42.146 10.047 43.827 10.767 45.506 11.487 46.826 12.582 47.787 14.052 48.746 15.522 49.227 17.382 49.227 19.632L49.227 33.177 42.071 33.177z"/>
    <polygon fill="#009BFF" class='no-color-change' points="54.221 33.177 62.051 33.177 62.051 .327 54.221 .327"/>
    <polygon fill="#404040" points="78.97 33.177 87.34 33.177 87.34 2.577 78.97 2.577"/>
    <path fill="#404040" d="M110.335 31.692C109.405 32.322 108.34 32.825 107.141 33.199 105.94 33.574 104.68 33.762 103.36 33.762 100.9 33.762 98.943 33.05 97.488 31.625 96.033 30.2 95.306 28.287 95.306 25.887L95.306 16.122 91.57 16.122 91.57 10.272 95.665 10.272 96.655 3.882 103.135 3.882 103.135 10.272 109.121 10.272 109.121 16.122 103.135 16.122 103.135 24.897C103.135 25.678 103.368 26.285 103.833 26.72 104.298 27.155 104.92 27.372 105.701 27.372 106.09 27.372 106.488 27.297 106.893 27.147 107.298 26.997 107.681 26.817 108.04 26.607L110.335 31.692M124.24 15.357C121.69 15.357 120.16 16.707 119.65 19.407L128.38 19.407C128.17 17.937 127.667 16.895 126.872 16.279 126.077 15.665 125.2 15.357 124.24 15.357zM134.95 30.837C133.809 31.647 132.362 32.337 130.607 32.907 128.852 33.477 126.985 33.762 125.005 33.762 122.275 33.762 119.942 33.259 118.007 32.254 116.073 31.25 114.587 29.847 113.553 28.047 112.517 26.247 112 24.177 112 21.837 112 19.468 112.51 17.367 113.53 15.537 114.549 13.707 115.96 12.274 117.76 11.239 119.56 10.205 121.66 9.687 124.06 9.687 126.4 9.687 128.462 10.189 130.247 11.194 132.032 12.2 133.427 13.595 134.433 15.379 135.437 17.165 135.94 19.257 135.94 21.657 135.94 21.987 135.917 22.332 135.872 22.692 135.828 23.052 135.775 23.428 135.715 23.817L119.74 23.817C120.46 26.457 122.424 27.777 125.635 27.777 127.075 27.777 128.35 27.552 129.46 27.102 130.569 26.652 131.5 26.202 132.25 25.752L134.95 30.837zM147.775 19.992L147.775 33.177 139.945 33.177 139.945 10.272 147.145 10.272 147.55 13.197C148.24 12.087 149.14 11.247 150.25 10.677 151.359 10.107 152.545 9.822 153.805 9.822 155.155 9.822 156.385 10.122 157.495 10.722 158.604 11.322 159.504 12.162 160.195 13.242 161.005 12.133 162.062 11.284 163.367 10.699 164.672 10.114 166.045 9.822 167.485 9.822 169.075 9.822 170.477 10.189 171.692 10.925 172.907 11.66 173.859 12.68 174.55 13.984 175.24 15.29 175.585 16.797 175.585 18.507L175.585 33.177 167.755 33.177 167.755 19.317C167.755 18.357 167.492 17.592 166.967 17.022 166.442 16.452 165.775 16.167 164.965 16.167 163.975 16.167 163.18 16.482 162.579 17.112 161.979 17.742 161.68 18.702 161.68 19.992L161.68 33.177 153.85 33.177 153.85 19.317C153.85 18.357 153.595 17.592 153.085 17.022 152.574 16.452 151.885 16.167 151.015 16.167 150.054 16.167 149.274 16.482 148.675 17.112 148.074 17.742 147.775 18.702 147.775 19.992"/>
    <path fill="#009BFF" class='no-color-change' d="M184.675,33.672 C183.714,33.672 182.837,33.439 182.042,32.975 C181.247,32.51 180.617,31.88 180.152,31.084 C179.687,30.29 179.455,29.412 179.455,28.452 C179.455,27.492 179.687,26.615 180.152,25.819 C180.617,25.025 181.247,24.395 182.042,23.93 C182.837,23.465 183.714,23.232 184.675,23.232 C185.635,23.232 186.512,23.465 187.308,23.93 C188.102,24.395 188.732,25.025 189.197,25.819 C189.662,26.615 189.895,27.492 189.895,28.452 C189.895,29.412 189.662,30.29 189.197,31.084 C188.732,31.88 188.102,32.51 187.308,32.975 C186.512,33.439 185.635,33.672 184.675,33.672"/>
    <path fill="#404040" d="M1.146 41.83L2.209 41.83C2.558 41.83 2.834 41.744 3.037 41.572 3.24 41.4 3.342 41.166 3.342 40.868 3.342 40.572 3.24 40.337 3.037 40.166 2.834 39.993 2.558 39.908 2.209 39.908L1.146 39.908 1.146 41.83zM.357 44.557L.357 39.244 2.209 39.244C2.803 39.244 3.274 39.389 3.623 39.681 3.972 39.973 4.147 40.369 4.147 40.868 4.147 41.364 3.972 41.755 3.623 42.045 3.274 42.334 2.803 42.479 2.209 42.479L1.146 42.479 1.146 44.557.357 44.557zM5.741 42.556L7.679 42.556 6.71 40.064 5.741 42.556zM8.452 44.557L7.937 43.221 5.483 43.221 4.967 44.557 4.17 44.557 6.296 39.244 7.147 39.244 9.265 44.557 8.452 44.557zM10.937 41.751L12.023 41.751C12.362 41.751 12.632 41.669 12.832 41.502 13.033 41.335 13.133 41.111 13.133 40.829 13.133 40.548 13.033 40.325 12.832 40.157 12.632 39.991 12.362 39.908 12.023 39.908L10.937 39.908 10.937 41.751zM10.937 42.4L10.937 44.557 10.148 44.557 10.148 39.244 12.023 39.244C12.612 39.244 13.078 39.385 13.422 39.669 13.766 39.953 13.938 40.34 13.938 40.829 13.938 41.2 13.834 41.512 13.625 41.767 13.417 42.022 13.13 42.202 12.766 42.306L14.055 44.557 13.156 44.557 11.945 42.4 10.937 42.4z"/>
    <polyline fill="#404040" points="16.204 44.557 16.204 39.908 14.414 39.908 14.414 39.244 18.782 39.244 18.782 39.908 16.993 39.908 16.993 44.557 16.204 44.557"/>
    <path fill="#404040" d="M23.853,43.955 C24.197,43.955 24.503,43.868 24.771,43.694 C25.04,43.519 25.249,43.278 25.4,42.971 C25.552,42.663 25.627,42.306 25.627,41.9 C25.627,41.494 25.552,41.137 25.4,40.829 C25.249,40.522 25.04,40.281 24.771,40.107 C24.503,39.932 24.197,39.845 23.853,39.845 C23.51,39.845 23.205,39.932 22.939,40.107 C22.673,40.281 22.465,40.522 22.314,40.829 C22.163,41.137 22.087,41.494 22.087,41.9 C22.087,42.306 22.163,42.663 22.314,42.971 C22.465,43.278 22.673,43.519 22.939,43.694 C23.205,43.868 23.51,43.955 23.853,43.955 Z M23.853,44.643 C23.353,44.643 22.911,44.525 22.525,44.291 C22.14,44.057 21.836,43.734 21.615,43.322 C21.393,42.911 21.283,42.437 21.283,41.9 C21.283,41.364 21.393,40.889 21.615,40.478 C21.836,40.066 22.14,39.743 22.525,39.509 C22.911,39.274 23.353,39.157 23.853,39.157 C24.354,39.157 24.798,39.274 25.186,39.509 C25.574,39.743 25.878,40.066 26.1,40.478 C26.321,40.889 26.432,41.364 26.432,41.9 C26.432,42.437 26.321,42.911 26.1,43.322 C25.878,43.734 25.574,44.057 25.186,44.291 C24.798,44.525 24.354,44.643 23.853,44.643 Z"/>
    <polyline fill="#404040" points="28.331 44.557 27.542 44.557 27.542 39.244 30.847 39.244 30.847 39.908 28.331 39.908 28.331 41.705 30.464 41.705 30.464 42.369 28.331 42.369 28.331 44.557"/>
    <polyline fill="#404040" points="34.965 44.557 34.965 39.908 33.175 39.908 33.175 39.244 37.543 39.244 37.543 39.908 35.754 39.908 35.754 44.557 34.965 44.557"/>
    <polyline fill="#404040" points="38.45 44.557 38.45 39.244 39.239 39.244 39.239 41.517 41.981 41.517 41.981 39.244 42.771 39.244 42.771 44.557 41.981 44.557 41.981 42.197 39.239 42.197 39.239 44.557 38.45 44.557"/>
    <polyline fill="#404040" points="44.162 44.557 44.162 39.244 47.568 39.244 47.568 39.908 44.951 39.908 44.951 41.548 47.256 41.548 47.256 42.212 44.951 42.212 44.951 43.893 47.631 43.893 47.631 44.557 44.162 44.557"/>
    <path fill="#404040" d="M52.616 43.955C53.049 43.955 53.388 43.825 53.636 43.564 53.883 43.304 54.007 42.952 54.007 42.509L54.007 39.244 54.796 39.244 54.796 42.517C54.796 43.179 54.602 43.699 54.214 44.076 53.826 44.454 53.293 44.643 52.616 44.643 51.939 44.643 51.408 44.454 51.022 44.076 50.637 43.699 50.444 43.179 50.444 42.517L50.444 39.244 51.233 39.244 51.233 42.509C51.233 42.952 51.357 43.304 51.604 43.564 51.852 43.825 52.189 43.955 52.616 43.955M57.742 44.643C57.341 44.643 56.958 44.572 56.593 44.432 56.229 44.291 55.934 44.104 55.71 43.869L56.156 43.345C56.364 43.539 56.61 43.689 56.894 43.799 57.178 43.908 57.461 43.963 57.742 43.963 58.086 43.963 58.363 43.897 58.574 43.764 58.785 43.631 58.891 43.447 58.891 43.213 58.891 42.999 58.815 42.82 58.664 42.674 58.513 42.528 58.255 42.406 57.89 42.306L57.156 42.111C56.682 41.986 56.337 41.809 56.12 41.58 55.904 41.351 55.796 41.051 55.796 40.681 55.796 40.379 55.877 40.113 56.038 39.884 56.2 39.655 56.423 39.477 56.707 39.349 56.99 39.221 57.312 39.157 57.672 39.157 58.052 39.157 58.409 39.229 58.742 39.372 59.076 39.515 59.37 39.715 59.625 39.97L59.148 40.486C58.924 40.278 58.691 40.117 58.449 40.005 58.207 39.893 57.95 39.837 57.679 39.837 57.351 39.837 57.083 39.906 56.875 40.044 56.666 40.182 56.562 40.374 56.562 40.618 56.562 40.842 56.636 41.017 56.785 41.142 56.933 41.267 57.161 41.371 57.469 41.455L58.289 41.681C58.763 41.812 59.109 41.994 59.328 42.228 59.547 42.463 59.656 42.755 59.656 43.104 59.656 43.411 59.576 43.68 59.414 43.912 59.253 44.144 59.029 44.324 58.742 44.451 58.455 44.579 58.122 44.643 57.742 44.643M61.641 42.556L63.579 42.556 62.61 40.064 61.641 42.556zM64.353 44.557L63.837 43.221 61.383 43.221 60.868 44.557 60.07 44.557 62.196 39.244 63.048 39.244 65.165 44.557 64.353 44.557z"/>
    <polyline fill="#404040" points="68.838 44.557 68.838 39.908 67.048 39.908 67.048 39.244 71.416 39.244 71.416 39.908 69.627 39.908 69.627 44.557 68.838 44.557"/>
    <path fill="#404040" d="M74.261 43.955C74.604 43.955 74.91 43.868 75.179 43.694 75.447 43.519 75.657 43.278 75.808 42.971 75.959 42.663 76.034 42.306 76.034 41.9 76.034 41.494 75.959 41.137 75.808 40.829 75.657 40.522 75.447 40.281 75.179 40.107 74.91 39.932 74.604 39.845 74.261 39.845 73.917 39.845 73.612 39.932 73.346 40.107 73.081 40.281 72.872 40.522 72.721 40.829 72.57 41.137 72.495 41.494 72.495 41.9 72.495 42.306 72.57 42.663 72.721 42.971 72.872 43.278 73.081 43.519 73.346 43.694 73.612 43.868 73.917 43.955 74.261 43.955zM74.261 44.643C73.761 44.643 73.318 44.525 72.932 44.291 72.547 44.057 72.243 43.734 72.022 43.322 71.8 42.911 71.69 42.437 71.69 41.9 71.69 41.364 71.8 40.889 72.022 40.478 72.243 40.066 72.547 39.743 72.932 39.509 73.318 39.274 73.761 39.157 74.261 39.157 74.761 39.157 75.205 39.274 75.593 39.509 75.981 39.743 76.286 40.066 76.507 40.478 76.728 40.889 76.839 41.364 76.839 41.9 76.839 42.437 76.728 42.911 76.507 43.322 76.286 43.734 75.981 44.057 75.593 44.291 75.205 44.525 74.761 44.643 74.261 44.643zM78.738 43.893L79.816 43.893C80.191 43.893 80.513 43.811 80.781 43.647 81.049 43.482 81.255 43.252 81.398 42.955 81.542 42.658 81.613 42.306 81.613 41.9 81.613 41.494 81.542 41.142 81.398 40.845 81.255 40.548 81.049 40.318 80.781 40.154 80.513 39.99 80.191 39.908 79.816 39.908L78.738 39.908 78.738 43.893zM77.949 44.557L77.949 39.244 79.816 39.244C80.337 39.244 80.793 39.354 81.184 39.576 81.574 39.797 81.878 40.107 82.094 40.505 82.31 40.904 82.418 41.369 82.418 41.9 82.418 42.432 82.31 42.896 82.094 43.295 81.878 43.694 81.574 44.003 81.184 44.225 80.793 44.446 80.337 44.557 79.816 44.557L77.949 44.557zM84.434 42.556L86.372 42.556 85.403 40.064 84.434 42.556zM87.146 44.557L86.63 43.221 84.176 43.221 83.661 44.557 82.864 44.557 84.989 39.244 85.841 39.244 87.959 44.557 87.146 44.557z"/>
    <polyline fill="#404040" points="90.381 42.447 90.381 44.557 89.591 44.557 89.591 42.447 87.724 39.244 88.654 39.244 89.99 41.697 91.326 39.244 92.241 39.244 90.381 42.447"/>
    <polyline fill="#404040" points="98.554 44.557 95.717 40.486 95.717 44.557 94.975 44.557 94.975 39.244 95.71 39.244 98.554 43.314 98.554 39.244 99.289 39.244 99.289 44.557 98.554 44.557"/>
    <polyline fill="#404040" points="100.679 44.557 100.679 39.244 104.086 39.244 104.086 39.908 101.469 39.908 101.469 41.548 103.774 41.548 103.774 42.212 101.469 42.212 101.469 43.893 104.149 43.893 104.149 44.557 100.679 44.557"/>
    <polyline fill="#404040" points="106.493 44.557 106.493 39.908 104.704 39.908 104.704 39.244 109.072 39.244 109.072 39.908 107.282 39.908 107.282 44.557 106.493 44.557"/>
    <polyline fill="#404040" points="114.229 44.557 112.986 40.322 111.744 44.557 110.923 44.557 109.509 39.244 110.29 39.244 111.369 43.447 112.611 39.244 113.361 39.244 114.611 43.463 115.698 39.244 116.463 39.244 115.049 44.557 114.229 44.557"/>
    <path fill="#404040" d="M119.597 43.955C119.941 43.955 120.247 43.868 120.515 43.694 120.783 43.519 120.993 43.278 121.144 42.971 121.295 42.663 121.371 42.306 121.371 41.9 121.371 41.494 121.295 41.137 121.144 40.829 120.993 40.522 120.783 40.281 120.515 40.107 120.247 39.932 119.941 39.845 119.597 39.845 119.253 39.845 118.948 39.932 118.683 40.107 118.417 40.281 118.208 40.522 118.058 40.829 117.906 41.137 117.831 41.494 117.831 41.9 117.831 42.306 117.906 42.663 118.058 42.971 118.208 43.278 118.417 43.519 118.683 43.694 118.948 43.868 119.253 43.955 119.597 43.955zM119.597 44.643C119.097 44.643 118.654 44.525 118.269 44.291 117.883 44.057 117.58 43.734 117.358 43.322 117.137 42.911 117.026 42.437 117.026 41.9 117.026 41.364 117.137 40.889 117.358 40.478 117.58 40.066 117.883 39.743 118.269 39.509 118.654 39.274 119.097 39.157 119.597 39.157 120.097 39.157 120.541 39.274 120.929 39.509 121.317 39.743 121.622 40.066 121.843 40.478 122.065 40.889 122.176 41.364 122.176 41.9 122.176 42.437 122.065 42.911 121.843 43.322 121.622 43.734 121.317 44.057 120.929 44.291 120.541 44.525 120.097 44.643 119.597 44.643zM124.074 41.751L125.16 41.751C125.499 41.751 125.769 41.669 125.969 41.502 126.17 41.335 126.27 41.111 126.27 40.829 126.27 40.548 126.17 40.325 125.969 40.157 125.769 39.991 125.499 39.908 125.16 39.908L124.074 39.908 124.074 41.751zM124.074 42.4L124.074 44.557 123.285 44.557 123.285 39.244 125.16 39.244C125.749 39.244 126.215 39.385 126.559 39.669 126.903 39.953 127.075 40.34 127.075 40.829 127.075 41.2 126.97 41.512 126.762 41.767 126.554 42.022 126.267 42.202 125.903 42.306L127.192 44.557 126.293 44.557 125.082 42.4 124.074 42.4z"/>
    <polyline fill="#404040" points="131.364 44.557 128.981 41.877 128.981 44.557 128.192 44.557 128.192 39.244 128.981 39.244 128.981 41.572 131.208 39.244 132.185 39.244 129.817 41.681 132.357 44.557 131.364 44.557"/>
  </g>
</svg>
