<svg id="Richmond" xmlns="http://www.w3.org/2000/svg" xmlns:xlink="http://www.w3.org/1999/xlink" width="372" height="160" viewBox="0 0 372 160">
  <defs>
    <style>
      .cls-1 {
        fill: #000;
        filter: url(#filter);
      }

      .cls-1, .cls-2 {
        fill-rule: evenodd;
      }

      .cls-2 {
        filter: url(#filter-2);
      }
    </style>
    <filter id="filter" x="4" y="115.969" width="367.969" height="16" filterUnits="userSpaceOnUse">
      <feFlood result="flood" flood-color="#999"/>
      <feComposite result="composite" operator="in" in2="SourceGraphic"/>
      <feBlend result="blend" in2="SourceGraphic"/>
    </filter>
    <filter id="filter-2" x="0" y="28" width="372" height="75" filterUnits="userSpaceOnUse">
      <feFlood result="flood" flood-color="#000"/>
      <feComposite result="composite" operator="in" in2="SourceGraphic"/>
      <feBlend result="blend" in2="SourceGraphic"/>
    </filter>
  </defs>
  <path id="USAT_Network" data-name="USAT Network" class="cls-1" d="M3.989,116.273H8.478c3.156,0,5.267,1.865,5.267,4.741s-2.155,4.735-5.267,4.735H6.188v5.925h-2.2v-15.4Zm4.267,7.659c2.112,0,3.244-1.163,3.244-2.918,0-1.736-1.132-2.919-3.244-2.919H6.188v5.837H8.256Zm11.768-7.659H21.98l6.4,15.4H26.022l-1.6-4.035H17.513l-1.6,4.035H13.6S19.244,118.162,20.024,116.273Zm3.665,9.544L22.2,122.023c-0.221-.572-1.179-2.942-1.2-3.139H20.957c-0.022.2-.955,2.5-1.2,3.139l-1.51,3.794h5.443Zm6.924-9.544h4.51c2.91,0,5.178,1.5,5.178,4.563a4.293,4.293,0,0,1-3.955,4.346l4.778,6.492H38.545l-4.51-6.276H32.812v6.276h-2.2v-15.4Zm4.267,7.351c2.043,0,3.2-1.077,3.2-2.764s-1.157-2.765-3.2-2.765H32.812v5.529H34.88ZM46.4,118.138H41.957v-1.865H53.046v1.865H48.6v13.536H46.4V118.138Zm12.348,5.838a7.862,7.862,0,0,1,8.2-8.006,8.008,8.008,0,1,1,0,16.011A7.861,7.861,0,0,1,58.75,123.976Zm14.133,0a5.946,5.946,0,1,0-5.955,6.053A5.773,5.773,0,0,0,72.882,123.976Zm5.433-7.7h7.867v1.865H80.514V123.1H86v1.865H80.514v6.713h-2.2v-15.4Zm17.815,1.865H91.686v-1.865h11.088v1.865H98.33v13.536h-2.2V118.138Zm8.953-1.865h2.2v6.318h8.178v-6.318h2.2v15.4h-2.2v-7.218h-8.178v7.218h-2.2v-15.4Zm16.631,0h8.49v1.846h-6.29v4.472h6.11v1.846h-6.11v5.395h6.422v1.842h-8.622v-15.4Zm16,10.092V116.273h2.221v9.433c0,2.679,1.157,4.323,3.756,4.323,2.622,0,3.78-1.644,3.78-4.323v-9.433h2.221v10.092c0,3.38-2.2,5.616-6,5.616C139.865,131.981,137.71,129.745,137.71,126.365Zm14.274,2.524,1.491-1.25a4.52,4.52,0,0,0,3.911,2.433c1.709,0,3.044-.918,3.044-2.611,0-1.817-1.534-2.433-3.446-3.178-1.956-.769-3.933-1.736-3.933-4.193,0-2.432,1.912-4.12,4.712-4.12a5.248,5.248,0,0,1,4.579,2.322l-1.491,1.25a3.552,3.552,0,0,0-3.088-1.668c-1.512,0-2.511.769-2.511,2.063,0,1.6,1.554,2.13,2.911,2.654,2.2,0.856,4.466,1.889,4.466,4.716,0,2.679-2,4.674-5.2,4.674A6.064,6.064,0,0,1,151.984,128.889Zm18.241-12.616h1.956l6.4,15.4h-2.357l-1.6-4.035h-6.912l-1.6,4.035H163.8S169.446,118.162,170.225,116.273Zm3.665,9.544-1.487-3.794c-0.222-.572-1.179-2.942-1.2-3.139h-0.044c-0.022.2-.955,2.5-1.2,3.139l-1.51,3.794h5.443Zm13.978-7.679h-4.445v-1.865h11.088v1.865h-4.444v13.536h-2.2V118.138Zm7.469,5.838a8.2,8.2,0,1,1,8.2,8A7.861,7.861,0,0,1,195.337,123.976Zm14.132,0a5.945,5.945,0,1,0-5.954,6.053A5.772,5.772,0,0,0,209.469,123.976Zm5.434-7.7h4.423c4.977,0,8.265,2.808,8.265,7.7,0,4.87-3.312,7.7-8.265,7.7H214.9v-15.4Zm2.2,13.534h2.046c3.643,0,6.176-1.9,6.176-5.831s-2.533-5.838-6.176-5.838H217.1v11.669Zm17.637-13.534H236.7l6.4,15.4h-2.357l-1.6-4.035h-6.912l-1.6,4.035h-2.311S233.96,118.162,234.739,116.273Zm3.666,9.544-1.489-3.794c-0.221-.572-1.178-2.942-1.2-3.139h-0.044c-0.022.2-.955,2.5-1.2,3.139l-1.51,3.794h5.444Zm9.084-.419-5.312-9.125h2.467l2.889,5.135a22.887,22.887,0,0,1,1.11,2.192h0.022a23.153,23.153,0,0,1,1.113-2.192l2.91-5.135h2.4l-5.309,9.125v6.276h-2.289V125.4Zm14.062-9.125h1.687l8.846,9.982c0.266,0.288,1.422,1.711,1.534,1.932l0.044-.023c-0.044-.217-0.044-2-0.044-2.39v-9.5h2.134v15.4h-1.713l-8.845-9.983c-0.265-.283-1.422-1.711-1.532-1.928l-0.021.02c0.021,0.221.043,2,.043,2.394v9.5h-2.133v-15.4Zm18.253,0h8.487v1.846H282v4.472h6.113v1.846H282v5.395h6.422v1.842H279.8v-15.4Zm15.37,1.865h-4.445v-1.865h11.089v1.865h-4.445v13.536h-2.2V118.138Zm8.477-1.865h2.334l3.2,9.15c0.112,0.351.867,2.63,0.889,2.981h0.046a30.445,30.445,0,0,1,.933-2.981l3.334-9.15h1.756l3.332,9.15c0.133,0.351.91,2.63,0.935,2.981h0.044c0.044-.351.8-2.63,0.91-2.981l3.179-9.15h2.243l-5.49,15.4h-1.688l-3.6-9.607a25.578,25.578,0,0,1-.758-2.5h-0.044a25.693,25.693,0,0,1-.776,2.5l-3.578,9.607h-1.69Zm24.119,7.7a8.2,8.2,0,1,1,8.2,8A7.861,7.861,0,0,1,327.77,123.976Zm14.132,0a5.945,5.945,0,1,0-5.955,6.053A5.772,5.772,0,0,0,341.9,123.976Zm5.433-7.7h4.511c2.913,0,5.177,1.5,5.177,4.563a4.293,4.293,0,0,1-3.955,4.346l4.779,6.492h-2.579l-4.511-6.276h-1.222v6.276h-2.2v-15.4Zm4.267,7.351c2.044,0,3.2-1.077,3.2-2.764s-1.156-2.765-3.2-2.765h-2.067v5.529H351.6Zm8.736-7.351h2.2v7.154l6.444-7.154h2.666l-6.687,7.351,7,8.05h-2.754l-6.668-7.785v7.785h-2.2v-15.4Z"/>
  <path id="Pal-Item_Logo_desktop" data-name="Pal-Item Logo desktop" class="cls-2" d="M0,28.006H24.51c16.823,0,27.208,10.083,27.208,24.261,0,14.284-10.489,24.366-27.208,24.366H15.786v25.1H0V28.006ZM22.225,63.715c8.827,0,13.293-4.1,13.293-11.342S31.052,40.924,22.225,40.924H15.786V63.715h6.439ZM51.512,75.372c0-15.018,10.489-26.781,25.859-26.781a20.061,20.061,0,0,1,17.239,8.717h0.208V49.852h14.123v51.882H94.818V94.277H94.609a20.06,20.06,0,0,1-17.239,8.717C58.47,102.994,51.512,87.87,51.512,75.372Zm42.579,0.421c0-7.772-4.881-14.7-13.709-14.7s-13.6,6.827-13.6,14.7c0,8.086,5.3,14.7,13.6,14.7C88.794,90.5,94.091,83.88,94.091,75.793ZM116.94,28.006H132v73.728H116.94V28.006Zm21.393,33.608h27.729V75.583H138.333V61.614Zm35-33.608h15.785v73.728H173.332V28.006ZM200.54,86.086V61.194h-6.957V49.852h6.957V35.778H215.6V49.852h10.7V61.194H215.6V84.3c0,4.936,2.078,6.511,5.5,6.511a17.824,17.824,0,0,0,4.881-.63v11.657a36.741,36.741,0,0,1-8.724.945C205.214,102.784,200.54,97.113,200.54,86.086Zm27.418-10.292c0-12.078,7.27-27.2,27.521-27.2s27,15.124,27,26.781a20.553,20.553,0,0,1-.311,3.781H242.913c0.726,8.192,7.581,12.077,15.058,12.077,6.854,0,11.319-2.94,13.916-6.616l8.308,8.612c-4.258,5.776-12.047,9.767-22.951,9.767C237.1,102.994,227.958,89.236,227.958,75.793Zm39.983-5.566c-1.454-7.142-6.439-10.608-12.462-10.608s-11.113,3.466-12.566,10.608h25.028Zm19.524-20.375h14.123v7.036H301.8c3.219-4.621,7.685-8.3,15.993-8.3,8.1,0,13.708,3.571,16.72,9.452,3.22-4.936,8.516-9.452,17.966-9.452,12.981,0,19.524,8.822,19.524,22.58v30.563H356.941V73.483c0-7.247-1.974-12.708-9.243-12.708s-10.489,5.356-10.489,12.813v28.146H322.254V73.483c0-7.247-2.076-12.708-9.345-12.708s-10.49,5.356-10.49,12.813v28.146H287.465V49.852Z"/>
</svg>
