<svg id="Layer_1" data-name="Layer 1" xmlns="http://www.w3.org/2000/svg" viewBox="0 0 705.7 96.47" height="96.47" width="705.7">
    <defs>
        <style>
            .cls-1 {
                fill: #0fa5d6;
            }
            .cls-2 {
                fill: #7c7d7d;
            }
            .cls-3 {
                fill: #2b2f67;
            }
            .cls-4 {
                fill: #fff;
            }

        </style>
    </defs>
    <title>rochester</title>

    <path
        class="cls-1"
        d="M445.46,67.88c0-5.31,3.38-8.43,8.07-11.08-1.82-2.24-3.43-4.73-3.43-8,0-5.67,4.84-8.53,10.41-8.53,6.77,0,9.83,4.22,9.83,8.43,0,4.58-3.59,7.49-7.13,9.52l7.08,8a11.65,11.65,0,0,0,1.82-7h6.35a15.83,15.83,0,0,1-4.21,11.24l6.45,7.08h-8.48l-2.6-3a18.49,18.49,0,0,1-11.4,3.8C451.55,78.34,445.46,75,445.46,67.88Zm20.19,2.45L457.27,61C455,62.36,453,64.29,453,67.2c0,3.28,2.5,5.46,6.45,5.46A9,9,0,0,0,465.65,70.32ZM464.14,49a3.54,3.54,0,0,0-7.08.05c0,1.87,1.35,3.8,2.6,5.25C462.06,53.1,464.14,51.28,464.14,49Z"
        transform="translate(-16.43 -11)"/>

    <path
        class="cls-1"
        d="M494.75,59.29c0-11.08,7.81-19,19.25-19,4.37,0,7.55,1,9.58,2.39v7.65a13.52,13.52,0,0,0-9.05-3.07c-6.92,0-11.66,4.74-11.66,12s4.68,12,11.66,12c3.9,0,7.34-1.09,9.47-3.17v7.6a18.16,18.16,0,0,1-10,2.55C502.45,78.28,494.75,70.43,494.75,59.29Z"
        transform="translate(-16.43 -11)"/>

    <path class="cls-1" d="M529.62,41h7.55V55.34h.1a8.92,8.92,0,0,1,8-4.11c6.61,0,9.84,4.37,9.84,11.19V77.56h-7.49v-14c0-3.59-1-6.3-4.89-6.3s-5.51,2.65-5.51,6.35V77.56h-7.55Z" transform="translate(-16.43 -11)"/>
    <path class="cls-1" d="M561.05,51.85h7.08v4h.1c1.4-2.71,3.59-4.58,7.08-4.58a7.59,7.59,0,0,1,2.5.36v6.76a9.9,9.9,0,0,0-3.17-.52c-3.9,0-6,2.39-6,6.82V77.56h-7.55Z" transform="translate(-16.43 -11)"/>
    <path
        class="cls-1"
        d="M579.94,64.7c0-6.4,4.74-13.48,14.31-13.48s14.31,7.08,14.31,13.48-4.74,13.48-14.31,13.48S579.94,71.1,579.94,64.7Zm21.13,0c0-4.37-3-7.18-6.82-7.18s-6.82,2.81-6.82,7.18,3,7.18,6.82,7.18S601.07,69.07,601.07,64.7Z"
        transform="translate(-16.43 -11)"/>

      <path class="cls-1" d="M613.41,51.85h7.08v3.49h.1a9.32,9.32,0,0,1,8.27-4.11c6.82,0,10,4.37,10,11.19V77.56h-7.49v-14c0-3.59-1-6.3-4.89-6.3S621,59.92,621,63.61V77.56h-7.54Z" transform="translate(-16.43 -11)"/>
      <path class="cls-1" d="M644.12,44.82a4.51,4.51,0,1,1,4.48,4.27A4.3,4.3,0,0,1,644.12,44.82Zm.73,7h7.54V77.56h-7.54Z" transform="translate(-16.43 -11)"/>
      <path
        class="cls-1"
        d="M657.23,64.7c0-6.87,5.2-13.48,14.15-13.48a14,14,0,0,1,5.67,1v6.87a8.38,8.38,0,0,0-5.1-1.56c-4,0-7.23,2.65-7.23,7.13S668,71.83,672,71.83a8.55,8.55,0,0,0,5.26-1.67V77a13.8,13.8,0,0,1-5.88,1.14C662.44,78.18,657.23,71.57,657.23,64.7Z"
        transform="translate(-16.43 -11)"/>
        <path class="cls-1" d="M682.42,41H690V77.56h-7.54Z" transform="translate(-16.43 -11)"/>
        <path
        class="cls-1"
        d="M694.81,64.7c0-6,3.64-13.48,13.79-13.48s13.53,7.49,13.53,13.27a10,10,0,0,1-.16,1.87H702.3c.36,4.06,3.8,6,7.54,6a8.14,8.14,0,0,0,7-3.28L721,73.34c-2.13,2.86-6,4.84-11.5,4.84C699.39,78.18,694.81,71.36,694.81,64.7Zm20-2.76a6.37,6.37,0,0,0-12.54,0Z"
        transform="translate(-16.43 -11)"/>
        <path class="cls-1" d="M190.12,41.23h12C214.42,41.23,222,48,222,59.5c0,11.34-7.7,18.27-19.83,18.27h-12Zm7.91,30h3.48c7.6,0,12.28-3.85,12.28-11.76s-4.68-11.76-12.28-11.76H198Z" transform="translate(-16.43 -11)"/>
        <path
        class="cls-1"
        d="M225.46,64.91c0-6,3.64-13.48,13.79-13.48s13.53,7.49,13.53,13.27a10,10,0,0,1-.16,1.87H233c.36,4.06,3.8,6,7.55,6a8.14,8.14,0,0,0,7-3.28l4.16,4.27c-2.13,2.86-6,4.84-11.5,4.84C230,78.39,225.46,71.57,225.46,64.91Zm20-2.76a6.37,6.37,0,0,0-12.54,0Z"
        transform="translate(-16.43 -11)"/>
        <path
        class="cls-1"
        d="M257.62,52.06h7.08v3.49h.1a9,9,0,0,1,8-4.11c4.06,0,6.87,1.77,8.38,4.68a10.06,10.06,0,0,1,9-4.68c6.51,0,9.78,4.37,9.78,11.19V77.76h-7.54v-14c0-3.59-1-6.3-4.63-6.3s-5.25,2.65-5.25,6.35V77.76h-7.49v-14c0-3.59-1-6.3-4.68-6.3s-5.26,2.65-5.26,6.35V77.76h-7.49Z"
        transform="translate(-16.43 -11)"/>
        <path
        class="cls-1"
        d="M304.46,64.91c0-6.4,4.74-13.48,14.31-13.48s14.31,7.08,14.31,13.48-4.74,13.48-14.31,13.48S304.46,71.31,304.46,64.91Zm21.13,0c0-4.37-3-7.18-6.82-7.18S312,60.54,312,64.91s3,7.18,6.82,7.18S325.59,69.28,325.59,64.91Z"
        transform="translate(-16.43 -11)"/>
        <path
        class="cls-1"
        d="M336.42,64.91c0-6.87,5.2-13.48,14.15-13.48a14,14,0,0,1,5.67,1v6.87a8.38,8.38,0,0,0-5.1-1.56c-4,0-7.23,2.65-7.23,7.13S347.14,72,351.15,72a8.56,8.56,0,0,0,5.26-1.67v6.87a13.83,13.83,0,0,1-5.88,1.15C341.62,78.39,336.42,71.78,336.42,64.91Z"
        transform="translate(-16.43 -11)"/>
        <path class="cls-1" d="M361.61,52.06h7.08v4h.1c1.4-2.71,3.59-4.58,7.08-4.58a7.63,7.63,0,0,1,2.5.36v6.77a9.87,9.87,0,0,0-3.17-.52c-3.9,0-6,2.39-6,6.82V77.76h-7.54Z" transform="translate(-16.43 -11)"/>
        <path
        class="cls-1"
        d="M380.5,64.7c0-7.44,5.26-13.27,13-13.27a10.09,10.09,0,0,1,8.64,4.32h.1V52.06h7.08V77.76H402.2V74.07h-.1a10.09,10.09,0,0,1-8.64,4.32C384,78.39,380.5,70.89,380.5,64.7Zm21.33.21c0-3.85-2.45-7.28-6.87-7.28s-6.82,3.38-6.82,7.28S390.8,72.2,395,72.2,401.84,68.92,401.84,64.91Z"
        transform="translate(-16.43 -11)"/>
        <path class="cls-1" d="M416.88,70V57.68h-3.49V52.06h3.49v-7h7.54v7h5.36v5.62h-5.36V69.13c0,2.45,1,3.23,2.76,3.23a9,9,0,0,0,2.45-.31v5.78a18.65,18.65,0,0,1-4.37.47C419.22,78.28,416.88,75.47,416.88,70Z" transform="translate(-16.43 -11)"/>
        <path class="cls-2" d="M190.67,89.29h4c2.83,0,4.72,1.69,4.72,4.3s-1.93,4.3-4.72,4.3h-2.05v5.37h-2Zm3.82,6.95c1.89,0,2.9-1.05,2.9-2.65s-1-2.65-2.9-2.65h-1.85v5.3Z" transform="translate(-16.43 -11)"/>
        <path class="cls-2" d="M205,89.29h1.75l5.73,14h-2.11L209,99.6h-6.19l-1.43,3.66h-2.07s5.05-12.25,5.75-14m3.28,8.65L207,94.5c-.2-.52-1.06-2.67-1.08-2.85h0c0,.18-.85,2.27-1.08,2.85l-1.35,3.44Z" transform="translate(-16.43 -11)"/>
        <path class="cls-2" d="M214.5,89.29h4c2.6,0,4.64,1.36,4.64,4.14a3.87,3.87,0,0,1-3.54,3.94l4.28,5.89h-2.31l-4-5.69h-1.1v5.69h-2ZM218.32,96c1.83,0,2.87-1,2.87-2.51s-1-2.51-2.87-2.51h-1.85v5Z" transform="translate(-16.43 -11)"/><polygon class="cls-2" points="212.21 79.98 208.23 79.98 208.23 78.29 218.16 78.29 218.16 79.98 214.18 79.98 214.18 92.25 212.21 92.25 212.21 79.98"/>
        <path class="cls-2" d="M239.7,96.27a7.34,7.34,0,1,1,7.34,7.26,7.08,7.08,0,0,1-7.34-7.26m12.65,0a5.33,5.33,0,1,0-5.33,5.49,5.2,5.2,0,0,0,5.33-5.49" transform="translate(-16.43 -11)"/><polygon class="cls-2" points="240.78 78.29 247.82 78.29 247.82 79.98 242.75 79.98 242.75 84.48 247.67 84.48 247.67 86.17 242.75 86.17 242.75 92.26 240.78 92.26 240.78 78.29"/><polygon class="cls-2" points="256.73 79.98 252.75 79.98 252.75 78.29 262.68 78.29 262.68 79.98 258.7 79.98 258.7 92.25 256.73 92.25 256.73 79.98"/><polygon class="cls-2" points="264.75 78.29 266.72 78.29 266.72 84.02 274.04 84.02 274.04 78.29 276.01 78.29 276.01 92.26 274.04 92.26 274.04 85.71 266.72 85.71 266.72 92.26 264.75 92.26 264.75 78.29"/><polygon class="cls-2" points="279.64 78.29 287.24 78.29 287.24 79.96 281.61 79.96 281.61 84.02 287.08 84.02 287.08 85.69 281.61 85.69 281.61 90.59 287.36 90.59 287.36 92.26 279.64 92.26 279.64 78.29"/>
        <path class="cls-2" d="M310.39,98.44V89.29h2v8.56c0,2.43,1,3.92,3.36,3.92s3.39-1.49,3.39-3.92V89.29h2v9.15c0,3.07-2,5.1-5.37,5.1s-5.35-2-5.35-5.1" transform="translate(-16.43 -11)"/>
        <path
        class="cls-2"
        d="M323.17,100.73l1.34-1.13a4,4,0,0,0,3.5,2.21c1.53,0,2.72-.83,2.72-2.37s-1.37-2.21-3.09-2.89-3.52-1.57-3.52-3.8S325.84,89,328.35,89a4.68,4.68,0,0,1,4.1,2.11l-1.33,1.13a3.17,3.17,0,0,0-2.76-1.51c-1.36,0-2.25.7-2.25,1.87,0,1.45,1.39,1.93,2.61,2.41,2,.78,4,1.71,4,4.28s-1.79,4.24-4.65,4.24a5.42,5.42,0,0,1-4.88-2.8"
        transform="translate(-16.43 -11)"/>
        <path class="cls-2" d="M339.5,89.29h1.75l5.73,14h-2.11l-1.43-3.66h-6.19l-1.43,3.66h-2.07s5.05-12.25,5.75-14m3.28,8.65-1.33-3.44c-.2-.52-1.06-2.67-1.08-2.85h0c0,.18-.85,2.27-1.08,2.85l-1.35,3.44Z" transform="translate(-16.43 -11)"/><polygon class="cls-2" points="338.87 79.98 334.89 79.98 334.89 78.29 344.82 78.29 344.82 79.98 340.84 79.98 340.84 92.25 338.87 92.25 338.87 79.98"/>
        <path class="cls-2" d="M362,96.27a7.34,7.34,0,1,1,7.34,7.26A7.08,7.08,0,0,1,362,96.27m12.65,0a5.33,5.33,0,1,0-5.33,5.49,5.2,5.2,0,0,0,5.33-5.49" transform="translate(-16.43 -11)"/>
        <path class="cls-2" d="M379.51,89.29h4c4.46,0,7.4,2.55,7.4,7s-3,7-7.4,7h-4Zm2,12.28h1.83c3.26,0,5.53-1.73,5.53-5.29S386.57,91,383.31,91h-1.83Z" transform="translate(-16.43 -11)"/>
        <path class="cls-2" d="M397.27,89.29H399l5.73,14h-2.11L401.2,99.6H395l-1.43,3.66h-2.07s5.05-12.25,5.75-14m3.28,8.65-1.33-3.44c-.2-.52-1.06-2.67-1.08-2.85h0c0,.18-.85,2.27-1.08,2.85l-1.35,3.44Z" transform="translate(-16.43 -11)"/>
        <path class="cls-2" d="M408.68,97.56l-4.76-8.28h2.21l2.59,4.66a19.73,19.73,0,0,1,1,2h0a20.79,20.79,0,0,1,1-2l2.6-4.66h2.15l-4.75,8.28v5.69h-2Z" transform="translate(-16.43 -11)"/>
        <path class="cls-2" d="M421.27,89.29h1.51l7.92,9.05c.24.26,1.27,1.55,1.37,1.76l0,0c0-.2,0-1.81,0-2.17V89.29H434v14h-1.53l-7.92-9.05c-.24-.26-1.27-1.55-1.37-1.75l0,0c0,.2,0,1.81,0,2.17v8.61h-1.91Z" transform="translate(-16.43 -11)"/><polygon class="cls-2" points="421.19 78.29 428.79 78.29 428.79 79.96 423.15 79.96 423.15 84.02 428.63 84.02 428.63 85.69 423.15 85.69 423.15 90.59 428.91 90.59 428.91 92.26 421.19 92.26 421.19 78.29"/><polygon class="cls-2" points="434.95 79.98 430.97 79.98 430.97 78.29 440.89 78.29 440.89 79.98 436.92 79.98 436.92 92.25 434.95 92.25 434.95 79.98"/>
        <path
        class="cls-2"
        d="M459,89.29h2.09l2.86,8.3c.1.32.78,2.39.8,2.71h0a27.46,27.46,0,0,1,.84-2.71l3-8.3h1.57l3,8.3c.12.32.82,2.39.84,2.71h0c0-.32.71-2.39.81-2.71l2.84-8.3h2l-4.91,14h-1.51L470,94.54a23.16,23.16,0,0,1-.68-2.27h0a23.27,23.27,0,0,1-.7,2.27l-3.2,8.71H463.9Z"
        transform="translate(-16.43 -11)"/>
        <path class="cls-2" d="M480.56,96.27a7.34,7.34,0,1,1,7.34,7.26,7.08,7.08,0,0,1-7.34-7.26m12.65,0a5.33,5.33,0,1,0-5.33,5.49,5.2,5.2,0,0,0,5.33-5.49" transform="translate(-16.43 -11)"/>
        <path class="cls-2" d="M498.08,89.29h4c2.61,0,4.64,1.36,4.64,4.14a3.87,3.87,0,0,1-3.54,3.94l4.28,5.89h-2.31l-4-5.69H500v5.69h-2ZM501.9,96c1.83,0,2.87-1,2.87-2.51s-1-2.51-2.87-2.51H500v5Z" transform="translate(-16.43 -11)"/><polygon class="cls-2" points="493.29 78.29 495.26 78.29 495.26 84.78 501.03 78.29 503.42 78.29 497.43 84.95 503.7 92.26 501.23 92.26 495.26 85.19 495.26 92.26 493.29 92.26 493.29 78.29"/>
        <path class="cls-3 no-color-change" d="M155,70.79a24.87,24.87,0,1,1,.44-22.26l20.23-11.6a48.16,48.16,0,1,0-.45,45.45Z" transform="translate(-16.43 -11)"/>
        <path class="cls-3 no-color-change" d="M57.07,11H16.43v96.47H57.07a48.23,48.23,0,0,0,0-96.47m0,72.62H39.19V33.76H57a24.93,24.93,0,0,1,0,49.86" transform="translate(-16.43 -11)"/>
        <path class="cls-1 no-color-change" d="M119.38,59.23A24.81,24.81,0,1,1,94.57,34.42a24.81,24.81,0,0,1,24.81,24.81" transform="translate(-16.43 -11)"/>
        <path class="cls-4 no-color-change"
        d="M102,72.59l-2.6-2.68a10.7,10.7,0,0,1-3.24,2.31,11.15,11.15,0,0,1-4.79.91,13.85,13.85,0,0,1-3.65-.48,9.31,9.31,0,0,1-3.16-1.51,7.8,7.8,0,0,1-2.21-2.56A7.47,7.47,0,0,1,81.57,65a7.21,7.21,0,0,1,1.73-4.77,8.88,8.88,0,0,1,1.84-1.63,14.84,14.84,0,0,1,2.17-1.2,10.74,10.74,0,0,1-2.06-2.72,6.87,6.87,0,0,1-.78-3.26,6.16,6.16,0,0,1,.78-3.18,6.86,6.86,0,0,1,2-2.17A8.32,8.32,0,0,1,90,44.79a12.39,12.39,0,0,1,3-.39,11.72,11.72,0,0,1,3.06.41,8.21,8.21,0,0,1,2.69,1.26,6.75,6.75,0,0,1,2.19,7.7,6.79,6.79,0,0,1-1.18,1.94,9.41,9.41,0,0,1-1.76,1.57,19.48,19.48,0,0,1-2.13,1.28l3.45,3.53,2.75-4.23h7.06l-5.93,8,6.83,6.79ZM90.84,61a6.28,6.28,0,0,0-2,1.3,3.57,3.57,0,0,0-.54,3.84,3.53,3.53,0,0,0,.85,1.09,3.71,3.71,0,0,0,1.18.68,4,4,0,0,0,1.36.23,4.74,4.74,0,0,0,2.29-.54A5.2,5.2,0,0,0,95.69,66Zm4.89-9.42a2.46,2.46,0,0,0-2.6-2.52,2.63,2.63,0,0,0-1.88.72,2.38,2.38,0,0,0-.76,1.8A3.62,3.62,0,0,0,91,53.44a6.4,6.4,0,0,0,1.53,1.71,7.12,7.12,0,0,0,2.25-1.44,2.85,2.85,0,0,0,.93-2.13"
        transform="translate(-16.43 -11)"/>
</svg>
