<svg xmlns="http://www.w3.org/2000/svg" width="471" height="48" viewBox="0 0 471 48">
  <g fill="none" fill-rule="evenodd">
    <path fill="#FFFFFF" d="M1.488 44.255L2.673 44.255C3.062 44.255 3.37 44.159 3.597 43.967 3.824 43.775 3.937 43.514 3.937 43.182 3.937 42.851 3.824 42.59 3.597 42.398 3.37 42.206 3.062 42.11 2.673 42.11L1.488 42.11 1.488 44.255zM.607 47.297L.607 41.369 2.673 41.369C3.336 41.369 3.862 41.532 4.251 41.857 4.64 42.183 4.835 42.625 4.835 43.182 4.835 43.735 4.64 44.172 4.251 44.494 3.862 44.817 3.336 44.978 2.673 44.978L1.488 44.978 1.488 47.297.607 47.297zM6.613 45.065L8.776 45.065 7.694 42.285 6.613 45.065zM9.639 47.297L9.063 45.806 6.326 45.806 5.75 47.297 4.861 47.297 7.232 41.369 8.183 41.369 10.545 47.297 9.639 47.297zM12.411 44.167L13.623 44.167C14 44.167 14.301 44.075 14.525 43.889 14.749 43.703 14.86 43.453 14.86 43.138 14.86 42.825 14.749 42.575 14.525 42.389 14.301 42.203 14 42.11 13.623 42.11L12.411 42.11 12.411 44.167zM12.411 44.891L12.411 47.297 11.53 47.297 11.53 41.369 13.623 41.369C14.279 41.369 14.799 41.527 15.183 41.844 15.567 42.161 15.758 42.593 15.758 43.138 15.758 43.552 15.642 43.9 15.41 44.185 15.177 44.47 14.857 44.67 14.451 44.786L15.889 47.297 14.887 47.297 13.535 44.891 12.411 44.891z"/>
    <polyline fill="#FFFFFF" points="18.286 47.297 18.286 42.11 16.29 42.11 16.29 41.369 21.163 41.369 21.163 42.11 19.167 42.11 19.167 47.297 18.286 47.297"/>
    <path fill="#FFFFFF" d="M26.821,46.626 C27.205,46.626 27.546,46.529 27.845,46.334 C28.144,46.139 28.378,45.87 28.547,45.527 C28.715,45.185 28.8,44.786 28.8,44.333 C28.8,43.879 28.715,43.482 28.547,43.138 C28.378,42.796 28.144,42.527 27.845,42.332 C27.546,42.138 27.205,42.04 26.821,42.04 C26.437,42.04 26.097,42.138 25.801,42.332 C25.504,42.527 25.272,42.796 25.103,43.138 C24.935,43.482 24.851,43.879 24.851,44.333 C24.851,44.786 24.935,45.185 25.103,45.527 C25.272,45.87 25.504,46.139 25.801,46.334 C26.097,46.529 26.437,46.626 26.821,46.626 Z M26.821,47.393 C26.263,47.393 25.769,47.262 25.339,47.001 C24.909,46.739 24.57,46.379 24.323,45.92 C24.076,45.461 23.953,44.932 23.953,44.333 C23.953,43.735 24.076,43.206 24.323,42.747 C24.57,42.287 24.909,41.927 25.339,41.666 C25.769,41.404 26.263,41.273 26.821,41.273 C27.379,41.273 27.874,41.404 28.307,41.666 C28.74,41.927 29.08,42.287 29.327,42.747 C29.574,43.206 29.698,43.735 29.698,44.333 C29.698,44.932 29.574,45.461 29.327,45.92 C29.08,46.379 28.74,46.739 28.307,47.001 C27.874,47.262 27.379,47.393 26.821,47.393 Z"/>
    <polyline fill="#FFFFFF" points="31.816 47.297 30.936 47.297 30.936 41.369 34.623 41.369 34.623 42.11 31.816 42.11 31.816 44.115 34.196 44.115 34.196 44.856 31.816 44.856 31.816 47.297"/>
    <polyline fill="#FFFFFF" points="39.217 47.297 39.217 42.11 37.221 42.11 37.221 41.369 42.094 41.369 42.094 42.11 40.098 42.11 40.098 47.297 39.217 47.297"/>
    <polyline fill="#FFFFFF" points="43.105 47.297 43.105 41.369 43.986 41.369 43.986 43.906 47.046 43.906 47.046 41.369 47.926 41.369 47.926 47.297 47.046 47.297 47.046 44.664 43.986 44.664 43.986 47.297 43.105 47.297"/>
    <polyline fill="#FFFFFF" points="49.478 47.297 49.478 41.369 53.279 41.369 53.279 42.11 50.358 42.11 50.358 43.94 52.93 43.94 52.93 44.682 50.358 44.682 50.358 46.556 53.349 46.556 53.349 47.297 49.478 47.297"/>
    <path fill="#FFFFFF" d="M58.91 46.626C59.393 46.626 59.772 46.481 60.048 46.19 60.324 45.899 60.462 45.507 60.462 45.013L60.462 41.369 61.342 41.369 61.342 45.022C61.342 45.76 61.126 46.339 60.693 46.761 60.26 47.182 59.666 47.393 58.91 47.393 58.155 47.393 57.562 47.182 57.132 46.761 56.702 46.339 56.487 45.76 56.487 45.022L56.487 41.369 57.367 41.369 57.367 45.013C57.367 45.507 57.505 45.899 57.781 46.19 58.057 46.481 58.434 46.626 58.91 46.626M64.629 47.393C64.181 47.393 63.754 47.314 63.348 47.158 62.941 47.001 62.612 46.791 62.362 46.53L62.859 45.946C63.092 46.161 63.366 46.329 63.683 46.451 64 46.573 64.315 46.634 64.629 46.634 65.013 46.634 65.322 46.561 65.557 46.412 65.793 46.264 65.91 46.059 65.91 45.798 65.91 45.559 65.826 45.359 65.658 45.196 65.489 45.033 65.201 44.897 64.795 44.786L63.975 44.568C63.446 44.429 63.061 44.231 62.82 43.976 62.579 43.72 62.458 43.386 62.458 42.973 62.458 42.636 62.548 42.339 62.728 42.084 62.909 41.828 63.157 41.629 63.474 41.487 63.79 41.344 64.15 41.273 64.551 41.273 64.975 41.273 65.373 41.353 65.745 41.513 66.117 41.673 66.445 41.895 66.73 42.18L66.198 42.755C65.948 42.523 65.688 42.344 65.418 42.219 65.148 42.094 64.861 42.031 64.559 42.031 64.193 42.031 63.894 42.109 63.661 42.263 63.429 42.417 63.313 42.63 63.313 42.903 63.313 43.153 63.395 43.348 63.561 43.488 63.727 43.627 63.981 43.743 64.324 43.836L65.239 44.089C65.768 44.234 66.155 44.438 66.399 44.699 66.643 44.961 66.765 45.286 66.765 45.676 66.765 46.019 66.675 46.319 66.495 46.578 66.314 46.837 66.064 47.037 65.745 47.179 65.425 47.322 65.053 47.393 64.629 47.393M68.979 45.065L71.141 45.065 70.06 42.285 68.979 45.065zM72.004 47.297L71.429 45.806 68.691 45.806 68.116 47.297 67.227 47.297 69.598 41.369 70.548 41.369 72.911 47.297 72.004 47.297z"/>
    <polyline fill="#FFFFFF" points="77.008 47.297 77.008 42.11 75.012 42.11 75.012 41.369 79.885 41.369 79.885 42.11 77.889 42.11 77.889 47.297 77.008 47.297"/>
    <path fill="#FFFFFF" d="M83.058 46.626C83.442 46.626 83.783 46.529 84.082 46.334 84.382 46.139 84.616 45.87 84.784 45.527 84.953 45.185 85.037 44.786 85.037 44.333 85.037 43.879 84.953 43.482 84.784 43.138 84.616 42.796 84.382 42.527 84.082 42.332 83.783 42.138 83.442 42.04 83.058 42.04 82.675 42.04 82.335 42.138 82.038 42.332 81.742 42.527 81.509 42.796 81.341 43.138 81.172 43.482 81.088 43.879 81.088 44.333 81.088 44.786 81.172 45.185 81.341 45.527 81.509 45.87 81.742 46.139 82.038 46.334 82.335 46.529 82.675 46.626 83.058 46.626zM83.058 47.393C82.5 47.393 82.006 47.262 81.576 47.001 81.146 46.739 80.808 46.379 80.561 45.92 80.313 45.461 80.19 44.932 80.19 44.333 80.19 43.735 80.313 43.206 80.561 42.747 80.808 42.287 81.146 41.927 81.576 41.666 82.006 41.404 82.5 41.273 83.058 41.273 83.616 41.273 84.111 41.404 84.545 41.666 84.977 41.927 85.317 42.287 85.565 42.747 85.811 43.206 85.935 43.735 85.935 44.333 85.935 44.932 85.811 45.461 85.565 45.92 85.317 46.379 84.977 46.739 84.545 47.001 84.111 47.262 83.616 47.393 83.058 47.393zM88.053 46.556L89.256 46.556C89.675 46.556 90.033 46.465 90.333 46.282 90.632 46.099 90.862 45.841 91.022 45.51 91.181 45.179 91.261 44.786 91.261 44.333 91.261 43.879 91.181 43.488 91.022 43.156 90.862 42.825 90.632 42.568 90.333 42.385 90.033 42.202 89.675 42.11 89.256 42.11L88.053 42.11 88.053 46.556zM87.173 47.297L87.173 41.369 89.256 41.369C89.837 41.369 90.346 41.493 90.782 41.74 91.218 41.987 91.556 42.332 91.797 42.777 92.039 43.221 92.159 43.74 92.159 44.333 92.159 44.926 92.039 45.444 91.797 45.889 91.556 46.334 91.218 46.679 90.782 46.927 90.346 47.174 89.837 47.297 89.256 47.297L87.173 47.297zM94.408 45.065L96.57 45.065 95.489 42.285 94.408 45.065zM97.433 47.297L96.858 45.806 94.121 45.806 93.545 47.297 92.656 47.297 95.027 41.369 95.978 41.369 98.34 47.297 97.433 47.297z"/>
    <polyline fill="#FFFFFF" points="101.043 44.943 101.043 47.297 100.162 47.297 100.162 44.943 98.078 41.369 99.116 41.369 100.607 44.106 102.098 41.369 103.117 41.369 101.043 44.943"/>
    <polyline fill="#FFFFFF" points="110.161 47.297 106.997 42.755 106.997 47.297 106.168 47.297 106.168 41.369 106.988 41.369 110.161 45.911 110.161 41.369 110.981 41.369 110.981 47.297 110.161 47.297"/>
    <polyline fill="#FFFFFF" points="112.532 47.297 112.532 41.369 116.333 41.369 116.333 42.11 113.413 42.11 113.413 43.94 115.984 43.94 115.984 44.682 113.413 44.682 113.413 46.556 116.403 46.556 116.403 47.297 112.532 47.297"/>
    <polyline fill="#FFFFFF" points="119.018 47.297 119.018 42.11 117.022 42.11 117.022 41.369 121.895 41.369 121.895 42.11 119.899 42.11 119.899 47.297 119.018 47.297"/>
    <polyline fill="#FFFFFF" points="127.649 47.297 126.263 42.572 124.877 47.297 123.961 47.297 122.383 41.369 123.255 41.369 124.458 46.059 125.844 41.369 126.681 41.369 128.076 46.077 129.288 41.369 130.142 41.369 128.564 47.297 127.649 47.297"/>
    <path fill="#FFFFFF" d="M133.638 46.626C134.022 46.626 134.363 46.529 134.662 46.334 134.961 46.139 135.195 45.87 135.364 45.527 135.532 45.185 135.617 44.786 135.617 44.333 135.617 43.879 135.532 43.482 135.364 43.138 135.195 42.796 134.961 42.527 134.662 42.332 134.363 42.138 134.022 42.04 133.638 42.04 133.254 42.04 132.914 42.138 132.618 42.332 132.322 42.527 132.089 42.796 131.921 43.138 131.752 43.482 131.668 43.879 131.668 44.333 131.668 44.786 131.752 45.185 131.921 45.527 132.089 45.87 132.322 46.139 132.618 46.334 132.914 46.529 133.254 46.626 133.638 46.626zM133.638 47.393C133.08 47.393 132.586 47.262 132.156 47.001 131.726 46.739 131.387 46.379 131.14 45.92 130.893 45.461 130.77 44.932 130.77 44.333 130.77 43.735 130.893 43.206 131.14 42.747 131.387 42.287 131.726 41.927 132.156 41.666 132.586 41.404 133.08 41.273 133.638 41.273 134.196 41.273 134.691 41.404 135.124 41.666 135.557 41.927 135.897 42.287 136.144 42.747 136.391 43.206 136.515 43.735 136.515 44.333 136.515 44.932 136.391 45.461 136.144 45.92 135.897 46.379 135.557 46.739 135.124 47.001 134.691 47.262 134.196 47.393 133.638 47.393zM138.633 44.167L139.845 44.167C140.222 44.167 140.523 44.075 140.747 43.889 140.971 43.703 141.083 43.453 141.083 43.138 141.083 42.825 140.971 42.575 140.747 42.389 140.523 42.203 140.222 42.11 139.845 42.11L138.633 42.11 138.633 44.167zM138.633 44.891L138.633 47.297 137.753 47.297 137.753 41.369 139.845 41.369C140.501 41.369 141.022 41.527 141.405 41.844 141.789 42.161 141.981 42.593 141.981 43.138 141.981 43.552 141.864 43.9 141.632 44.185 141.399 44.47 141.08 44.67 140.673 44.786L142.111 47.297 141.109 47.297 139.758 44.891 138.633 44.891z"/>
    <polyline fill="#FFFFFF" points="146.767 47.297 144.108 44.307 144.108 47.297 143.227 47.297 143.227 41.369 144.108 41.369 144.108 43.967 146.592 41.369 147.682 41.369 145.041 44.089 147.874 47.297 146.767 47.297"/>
    <path fill="#FFFFFF" d="M8.842 27.953L12.667 27.953C14.857 27.953 16.589 27.159 17.865 25.568 19.139 23.978 19.777 21.878 19.777 19.268 19.777 16.659 19.139 14.559 17.865 12.968 16.589 11.378 14.857 10.583 12.667 10.583L8.842 10.583 8.842 27.953zM.607 34.568L.607 3.968 12.667 3.968C15.697 3.968 18.374 4.62 20.7 5.926 23.024 7.231 24.847 9.031 26.167 11.326 27.487 13.62 28.147 16.269 28.147 19.268 28.147 22.268 27.487 24.915 26.167 27.211 24.847 29.506 23.024 31.306 20.7 32.611 18.374 33.915 15.697 34.568 12.667 34.568L.607 34.568zM43.357 16.748C40.807 16.748 39.276 18.098 38.767 20.798L47.497 20.798C47.286 19.328 46.784 18.286 45.989 17.671 45.194 17.056 44.317 16.748 43.357 16.748zM54.067 32.228C52.926 33.038 51.479 33.729 49.724 34.298 47.969 34.868 46.102 35.153 44.122 35.153 41.391 35.153 39.059 34.651 37.124 33.646 35.189 32.641 33.704 31.238 32.669 29.438 31.634 27.638 31.117 25.568 31.117 23.228 31.117 20.859 31.627 18.758 32.646 16.928 33.666 15.099 35.077 13.665 36.877 12.631 38.677 11.596 40.776 11.078 43.177 11.078 45.517 11.078 47.579 11.581 49.364 12.586 51.149 13.591 52.544 14.986 53.549 16.771 54.554 18.556 55.057 20.649 55.057 23.048 55.057 23.379 55.034 23.723 54.989 24.083 54.944 24.443 54.891 24.819 54.832 25.208L38.857 25.208C39.577 27.848 41.541 29.168 44.752 29.168 46.192 29.168 47.466 28.943 48.577 28.493 49.686 28.043 50.617 27.593 51.367 27.143L54.067 32.228zM66.891 21.383L66.891 34.568 59.062 34.568 59.062 11.663 66.262 11.663 66.667 14.588C67.356 13.479 68.256 12.639 69.367 12.068 70.476 11.498 71.661 11.213 72.921 11.213 74.272 11.213 75.501 11.514 76.611 12.113 77.721 12.714 78.621 13.553 79.312 14.633 80.121 13.524 81.179 12.676 82.484 12.091 83.789 11.506 85.161 11.213 86.601 11.213 88.191 11.213 89.594 11.581 90.809 12.316 92.024 13.051 92.976 14.071 93.667 15.376 94.356 16.681 94.701 18.188 94.701 19.898L94.701 34.568 86.871 34.568 86.871 20.708C86.871 19.748 86.608 18.984 86.084 18.413 85.559 17.844 84.891 17.558 84.081 17.558 83.091 17.558 82.296 17.873 81.696 18.503 81.096 19.133 80.796 20.094 80.796 21.383L80.796 34.568 72.966 34.568 72.966 20.708C72.966 19.748 72.711 18.984 72.201 18.413 71.691 17.844 71.001 17.558 70.131 17.558 69.171 17.558 68.391 17.873 67.792 18.503 67.191 19.133 66.891 20.094 66.891 21.383M110.901 28.943C112.281 28.943 113.383 28.411 114.209 27.346 115.034 26.281 115.446 24.864 115.446 23.093 115.446 21.324 115.034 19.913 114.209 18.863 113.383 17.813 112.281 17.288 110.901 17.288 109.521 17.288 108.419 17.813 107.594 18.863 106.768 19.913 106.356 21.324 106.356 23.093 106.356 24.864 106.768 26.281 107.594 27.346 108.419 28.411 109.521 28.943 110.901 28.943zM110.901 35.153C108.441 35.153 106.273 34.636 104.399 33.601 102.523 32.566 101.053 31.148 99.989 29.348 98.924 27.548 98.391 25.463 98.391 23.093 98.391 20.724 98.924 18.638 99.989 16.838 101.053 15.038 102.523 13.628 104.399 12.608 106.273 11.589 108.441 11.078 110.901 11.078 113.361 11.078 115.529 11.589 117.404 12.608 119.278 13.628 120.749 15.038 121.814 16.838 122.878 18.638 123.411 20.724 123.411 23.093 123.411 25.463 122.878 27.548 121.814 29.348 120.749 31.148 119.278 32.566 117.404 33.601 115.529 34.636 113.361 35.153 110.901 35.153zM138.216 35.153C135.876 35.153 133.799 34.651 131.984 33.646 130.168 32.641 128.736 31.238 127.686 29.438 126.636 27.638 126.111 25.538 126.111 23.138 126.111 20.739 126.636 18.638 127.686 16.838 128.736 15.038 130.168 13.636 131.984 12.631 133.799 11.626 135.876 11.123 138.216 11.123 140.286 11.123 142.101 11.506 143.661 12.271 145.221 13.035 146.601 14.258 147.801 15.938L142.626 19.718C142.206 19.088 141.659 18.571 140.984 18.165 140.309 17.761 139.581 17.558 138.801 17.558 137.451 17.558 136.326 18.061 135.426 19.066 134.526 20.071 134.076 21.428 134.076 23.138 134.076 24.848 134.526 26.206 135.426 27.211 136.326 28.216 137.451 28.718 138.801 28.718 139.581 28.718 140.309 28.516 140.984 28.111 141.659 27.705 142.206 27.188 142.626 26.558L147.801 30.338C146.601 32.019 145.221 33.241 143.661 34.006 142.101 34.771 140.286 35.153 138.216 35.153M159.141 25.703L159.141 34.568 151.311 34.568 151.311 11.663 158.466 11.663 158.961 15.488C159.44 14.258 160.228 13.261 161.324 12.495 162.418 11.731 163.686 11.348 165.126 11.348 165.936 11.348 166.551 11.453 166.971 11.663L166.971 18.818C166.64 18.699 166.273 18.609 165.868 18.548 165.463 18.489 165.006 18.458 164.496 18.458 162.936 18.458 161.653 19.036 160.648 20.191 159.643 21.346 159.141 23.183 159.141 25.703M176.915 27.143C176.915 27.833 177.17 28.396 177.68 28.83 178.19 29.266 178.85 29.483 179.66 29.483 180.741 29.483 181.648 29.116 182.383 28.381 183.118 27.646 183.485 26.723 183.485 25.613L183.485 24.848C182.675 24.699 181.82 24.623 180.92 24.623 179.78 24.623 178.828 24.819 178.063 25.208 177.298 25.598 176.915 26.243 176.915 27.143zM183.8 34.568L183.395 31.553C181.895 33.953 179.616 35.153 176.555 35.153 175.205 35.153 173.983 34.861 172.888 34.276 171.793 33.691 170.923 32.889 170.278 31.868 169.632 30.849 169.31 29.663 169.31 28.313 169.31 25.764 170.307 23.784 172.303 22.373 174.298 20.963 176.93 20.258 180.201 20.258 181.22 20.258 182.3 20.348 183.44 20.528 183.32 19.389 182.833 18.526 181.978 17.941 181.123 17.356 180.08 17.063 178.85 17.063 177.77 17.063 176.683 17.266 175.588 17.671 174.492 18.076 173.451 18.564 172.461 19.133L169.805 14.093C171.305 13.133 172.925 12.391 174.665 11.866 176.405 11.341 178.145 11.078 179.885 11.078 181.985 11.078 183.875 11.438 185.555 12.159 187.235 12.878 188.555 13.974 189.515 15.443 190.475 16.913 190.955 18.773 190.955 21.023L190.955 34.568 183.8 34.568zM212.826 33.083C211.895 33.713 210.83 34.216 209.63 34.591 208.43 34.965 207.17 35.153 205.85 35.153 203.39 35.153 201.433 34.441 199.978 33.016 198.523 31.591 197.795 29.679 197.795 27.278L197.795 17.513 194.06 17.513 194.06 11.663 198.155 11.663 199.145 5.273 205.625 5.273 205.625 11.663 211.61 11.663 211.61 17.513 205.625 17.513 205.625 26.288C205.625 27.069 205.857 27.676 206.323 28.111 206.788 28.546 207.41 28.763 208.19 28.763 208.58 28.763 208.978 28.689 209.383 28.538 209.788 28.389 210.17 28.208 210.53 27.998L212.826 33.083M233.257 11.393C233.257 11.904 233.415 12.436 233.73 12.991 234.045 13.546 234.607 14.288 235.417 15.218L236.272 14.948C237.172 14.649 237.885 14.183 238.41 13.553 238.934 12.923 239.197 12.203 239.197 11.393 239.197 10.554 238.92 9.871 238.365 9.346 237.809 8.821 237.097 8.558 236.227 8.558 235.387 8.558 234.682 8.828 234.112 9.368 233.542 9.909 233.257 10.583 233.257 11.393zM230.512 25.523C230.512 26.723 231.014 27.691 232.02 28.426 233.025 29.161 234.367 29.528 236.047 29.528 237.337 29.528 238.522 29.288 239.602 28.808L232.807 21.698C231.277 22.508 230.512 23.784 230.512 25.523zM245.137 34.568L243.607 32.993C241.297 34.343 238.582 35.018 235.462 35.018 233.092 35.018 231.014 34.643 229.23 33.893 227.445 33.144 226.057 32.086 225.067 30.721 224.077 29.356 223.582 27.758 223.582 25.928 223.582 24.128 224.055 22.501 225 21.046 225.945 19.591 227.257 18.429 228.937 17.558 228.037 16.449 227.377 15.406 226.957 14.431 226.537 13.456 226.327 12.444 226.327 11.393 226.327 9.804 226.755 8.386 227.61 7.141 228.465 5.896 229.635 4.913 231.12 4.193 232.605 3.473 234.307 3.113 236.227 3.113 238.147 3.113 239.85 3.473 241.335 4.193 242.82 4.913 243.99 5.896 244.845 7.141 245.7 8.386 246.127 9.804 246.127 11.393 246.127 13.223 245.535 14.813 244.35 16.163 243.164 17.513 241.477 18.578 239.287 19.358L243.967 24.353C244.687 22.913 245.152 21.234 245.362 19.313L251.032 20.078C250.612 23.498 249.637 26.378 248.107 28.718L253.552 34.568 245.137 34.568zM278.343 35.153C275.223 35.153 272.485 34.478 270.131 33.128 267.775 31.778 265.93 29.91 264.596 27.526 263.261 25.141 262.593 22.373 262.593 19.223 262.593 16.073 263.261 13.313 264.596 10.943 265.93 8.574 267.775 6.721 270.131 5.385 272.485 4.051 275.223 3.383 278.343 3.383 280.983 3.383 283.361 3.916 285.476 4.981 287.59 6.046 289.398 7.583 290.898 9.593L284.283 13.508C283.503 12.518 282.626 11.739 281.651 11.168 280.675 10.599 279.543 10.313 278.254 10.313 276.123 10.313 274.398 11.116 273.078 12.721 271.758 14.326 271.098 16.493 271.098 19.223 271.098 21.953 271.758 24.136 273.078 25.771 274.398 27.406 276.123 28.223 278.254 28.223 279.573 28.223 280.743 27.901 281.763 27.256 282.783 26.611 283.638 25.854 284.328 24.983L290.898 28.898C289.428 30.939 287.62 32.491 285.476 33.556 283.331 34.62 280.953 35.153 278.343 35.153M302.373 21.968L302.373 34.568 294.543 34.568 294.543 1.718 302.373 1.718 302.373 14.318C303.123 13.328 304.075 12.54 305.231 11.955 306.385 11.37 307.638 11.078 308.988 11.078 311.478 11.078 313.472 11.888 314.973 13.508 316.473 15.128 317.223 17.453 317.223 20.483L317.223 34.568 309.393 34.568 309.393 21.383C309.393 20.034 309.092 19.036 308.493 18.391 307.892 17.746 307.053 17.423 305.973 17.423 304.893 17.423 304.023 17.768 303.363 18.458 302.703 19.149 302.373 20.319 302.373 21.968M330.137 25.703L330.137 34.568 322.308 34.568 322.308 11.663 329.462 11.663 329.958 15.488C330.437 14.258 331.225 13.261 332.32 12.495 333.415 11.731 334.683 11.348 336.123 11.348 336.933 11.348 337.547 11.453 337.967 11.663L337.967 18.818C337.637 18.699 337.27 18.609 336.865 18.548 336.46 18.489 336.003 18.458 335.493 18.458 333.932 18.458 332.65 19.036 331.645 20.191 330.64 21.346 330.137 23.183 330.137 25.703M352.862 28.943C354.242 28.943 355.344 28.411 356.17 27.346 356.995 26.281 357.407 24.864 357.407 23.093 357.407 21.324 356.995 19.913 356.17 18.863 355.344 17.813 354.242 17.288 352.862 17.288 351.482 17.288 350.379 17.813 349.555 18.863 348.729 19.913 348.317 21.324 348.317 23.093 348.317 24.864 348.729 26.281 349.555 27.346 350.379 28.411 351.482 28.943 352.862 28.943zM352.862 35.153C350.402 35.153 348.234 34.636 346.36 33.601 344.484 32.566 343.014 31.148 341.95 29.348 340.884 27.548 340.352 25.463 340.352 23.093 340.352 20.724 340.884 18.638 341.95 16.838 343.014 15.038 344.484 13.628 346.36 12.608 348.234 11.589 350.402 11.078 352.862 11.078 355.322 11.078 357.49 11.589 359.365 12.608 361.239 13.628 362.71 15.038 363.775 16.838 364.839 18.638 365.373 20.724 365.373 23.093 365.373 25.463 364.839 27.548 363.775 29.348 362.71 31.148 361.239 32.566 359.365 33.601 357.49 34.636 355.322 35.153 352.862 35.153zM377.297 21.923L377.297 34.568 369.467 34.568 369.467 11.663 376.622 11.663 377.027 14.678C377.776 13.598 378.752 12.728 379.952 12.068 381.151 11.409 382.472 11.078 383.912 11.078 386.402 11.078 388.397 11.888 389.897 13.508 391.397 15.128 392.147 17.453 392.147 20.483L392.147 34.568 384.317 34.568 384.317 21.383C384.317 20.034 384.017 19.036 383.417 18.391 382.816 17.746 381.977 17.423 380.897 17.423 379.817 17.423 378.947 17.768 378.287 18.458 377.627 19.149 377.297 20.303 377.297 21.923M397.232 34.568L397.232 11.663C398.492 11.933 399.766 12.068 401.057 12.068 402.377 12.068 403.712 11.933 405.062 11.663L405.062 34.568 397.232 34.568M421.261 35.153C418.921 35.153 416.843 34.651 415.029 33.646 413.213 32.641 411.781 31.238 410.731 29.438 409.681 27.638 409.156 25.538 409.156 23.138 409.156 20.739 409.681 18.638 410.731 16.838 411.781 15.038 413.213 13.636 415.029 12.631 416.843 11.626 418.921 11.123 421.261 11.123 423.331 11.123 425.146 11.506 426.706 12.271 428.266 13.035 429.646 14.258 430.846 15.938L425.671 19.718C425.251 19.088 424.704 18.571 424.029 18.165 423.354 17.761 422.626 17.558 421.846 17.558 420.496 17.558 419.371 18.061 418.471 19.066 417.571 20.071 417.121 21.428 417.121 23.138 417.121 24.848 417.571 26.206 418.471 27.211 419.371 28.216 420.496 28.718 421.846 28.718 422.626 28.718 423.354 28.516 424.029 28.111 424.704 27.705 425.251 27.188 425.671 26.558L430.846 30.338C429.646 32.019 428.266 33.241 426.706 34.006 425.146 34.771 423.331 35.153 421.261 35.153"/>
    <polygon fill="#FFFFFF" points="434.356 34.568 442.186 34.568 442.186 1.718 434.356 1.718"/>
    <path fill="#FFFFFF" d="M458.52,16.748 C455.97,16.748 454.44,18.098 453.93,20.798 L462.66,20.798 C462.45,19.328 461.947,18.286 461.153,17.671 C460.358,17.056 459.48,16.748 458.52,16.748 Z M469.23,32.228 C468.09,33.038 466.643,33.729 464.888,34.298 C463.133,34.868 461.265,35.153 459.285,35.153 C456.555,35.153 454.223,34.651 452.288,33.646 C450.353,32.641 448.868,31.238 447.833,29.438 C446.798,27.638 446.28,25.568 446.28,23.228 C446.28,20.859 446.79,18.758 447.81,16.928 C448.83,15.099 450.24,13.665 452.04,12.631 C453.84,11.596 455.94,11.078 458.34,11.078 C460.68,11.078 462.743,11.581 464.528,12.586 C466.312,13.591 467.707,14.986 468.713,16.771 C469.717,18.556 470.22,20.649 470.22,23.048 C470.22,23.379 470.198,23.723 470.153,24.083 C470.108,24.443 470.055,24.819 469.995,25.208 L454.02,25.208 C454.74,27.848 456.705,29.168 459.915,29.168 C461.355,29.168 462.63,28.943 463.74,28.493 C464.85,28.043 465.78,27.593 466.53,27.143 L469.23,32.228 Z"/>
    <path class="no-color-change" fill="#009BFF" d="M401.057,9.863 C399.766,9.863 398.664,9.406 397.749,8.491 C396.834,7.576 396.377,6.473 396.377,5.183 C396.377,3.894 396.834,2.791 397.749,1.876 C398.664,0.961 399.766,0.503 401.057,0.503 C402.346,0.503 403.449,0.961 404.364,1.876 C405.279,2.791 405.737,3.894 405.737,5.183 C405.737,6.473 405.279,7.576 404.364,8.491 C403.449,9.406 402.346,9.863 401.057,9.863"/>
  </g>
</svg>
