<svg xmlns="http://www.w3.org/2000/svg" width="471" height="36" viewBox="0 0 471 36">
  <g fill="none" fill-rule="evenodd">
    <path fill="#FFFFFE" d="M8.842 28.194L12.667 28.194C14.857 28.194 16.589 27.399 17.865 25.808 19.139 24.218 19.777 22.118 19.777 19.508 19.777 16.899 19.139 14.799 17.865 13.208 16.589 11.618 14.857 10.823 12.667 10.823L8.842 10.823 8.842 28.194zM.607 34.808L.607 4.208 12.667 4.208C15.697 4.208 18.374 4.861 20.7 6.166 23.024 7.471 24.847 9.271 26.167 11.566 27.487 13.861 28.147 16.509 28.147 19.508 28.147 22.509 27.487 25.156 26.167 27.451 24.847 29.746 23.024 31.546 20.7 32.851 18.374 34.156 15.697 34.808 12.667 34.808L.607 34.808.607 34.808zM43.357 16.989C40.807 16.989 39.276 18.338 38.767 21.038L47.497 21.038C47.286 19.569 46.784 18.526 45.989 17.911 45.194 17.296 44.317 16.989 43.357 16.989zM54.067 32.468C52.926 33.279 51.479 33.969 49.724 34.538 47.969 35.108 46.102 35.393 44.122 35.393 41.391 35.393 39.059 34.891 37.124 33.886 35.189 32.881 33.704 31.478 32.669 29.678 31.634 27.878 31.117 25.808 31.117 23.468 31.117 21.099 31.627 18.998 32.646 17.168 33.666 15.339 35.077 13.906 36.877 12.871 38.677 11.836 40.776 11.319 43.177 11.319 45.517 11.319 47.579 11.821 49.364 12.826 51.149 13.831 52.544 15.226 53.549 17.011 54.554 18.796 55.057 20.889 55.057 23.288 55.057 23.619 55.034 23.963 54.989 24.323 54.944 24.683 54.891 25.059 54.832 25.448L38.857 25.448C39.577 28.089 41.541 29.408 44.752 29.408 46.192 29.408 47.466 29.183 48.577 28.734 49.686 28.283 50.617 27.833 51.367 27.383L54.067 32.468 54.067 32.468zM66.891 21.623L66.891 34.808 59.062 34.808 59.062 11.904 66.262 11.904 66.667 14.828C67.356 13.719 68.256 12.879 69.367 12.308 70.476 11.739 71.661 11.453 72.921 11.453 74.272 11.453 75.501 11.754 76.611 12.353 77.721 12.954 78.621 13.793 79.312 14.873 80.121 13.764 81.179 12.916 82.484 12.331 83.789 11.746 85.161 11.453 86.601 11.453 88.191 11.453 89.594 11.821 90.809 12.556 92.024 13.291 92.976 14.311 93.667 15.616 94.356 16.921 94.701 18.428 94.701 20.138L94.701 34.808 86.871 34.808 86.871 20.948C86.871 19.989 86.608 19.224 86.084 18.654 85.559 18.084 84.891 17.798 84.081 17.798 83.091 17.798 82.296 18.114 81.696 18.743 81.096 19.373 80.796 20.334 80.796 21.623L80.796 34.808 72.966 34.808 72.966 20.948C72.966 19.989 72.711 19.224 72.201 18.654 71.691 18.084 71.001 17.798 70.131 17.798 69.171 17.798 68.391 18.114 67.792 18.743 67.191 19.373 66.891 20.334 66.891 21.623M110.901 29.183C112.281 29.183 113.383 28.651 114.209 27.586 115.034 26.521 115.446 25.104 115.446 23.333 115.446 21.564 115.034 20.154 114.209 19.103 113.383 18.053 112.281 17.529 110.901 17.529 109.521 17.529 108.419 18.053 107.594 19.103 106.768 20.154 106.356 21.564 106.356 23.333 106.356 25.104 106.768 26.521 107.594 27.586 108.419 28.651 109.521 29.183 110.901 29.183zM110.901 35.393C108.441 35.393 106.273 34.876 104.399 33.841 102.523 32.806 101.053 31.388 99.989 29.588 98.924 27.788 98.391 25.703 98.391 23.333 98.391 20.964 98.924 18.878 99.989 17.078 101.053 15.279 102.523 13.868 104.399 12.848 106.273 11.829 108.441 11.319 110.901 11.319 113.361 11.319 115.529 11.829 117.404 12.848 119.278 13.868 120.749 15.279 121.814 17.078 122.878 18.878 123.411 20.964 123.411 23.333 123.411 25.703 122.878 27.788 121.814 29.588 120.749 31.388 119.278 32.806 117.404 33.841 115.529 34.876 113.361 35.393 110.901 35.393L110.901 35.393zM138.216 35.393C135.876 35.393 133.799 34.891 131.984 33.886 130.168 32.881 128.736 31.478 127.686 29.678 126.636 27.878 126.111 25.779 126.111 23.378 126.111 20.979 126.636 18.878 127.686 17.078 128.736 15.279 130.168 13.876 131.984 12.871 133.799 11.866 135.876 11.364 138.216 11.364 140.286 11.364 142.101 11.746 143.661 12.511 145.221 13.276 146.601 14.498 147.801 16.178L142.626 19.958C142.206 19.328 141.659 18.811 140.984 18.406 140.309 18.001 139.581 17.798 138.801 17.798 137.451 17.798 136.326 18.301 135.426 19.306 134.526 20.311 134.076 21.668 134.076 23.378 134.076 25.088 134.526 26.446 135.426 27.451 136.326 28.456 137.451 28.958 138.801 28.958 139.581 28.958 140.309 28.756 140.984 28.351 141.659 27.946 142.206 27.428 142.626 26.798L147.801 30.578C146.601 32.259 145.221 33.481 143.661 34.246 142.101 35.011 140.286 35.393 138.216 35.393M159.141 25.944L159.141 34.808 151.311 34.808 151.311 11.904 158.466 11.904 158.961 15.728C159.44 14.498 160.228 13.501 161.324 12.736 162.418 11.971 163.686 11.588 165.126 11.588 165.936 11.588 166.551 11.694 166.971 11.904L166.971 19.058C166.64 18.939 166.273 18.849 165.868 18.788 165.463 18.729 165.006 18.698 164.496 18.698 162.936 18.698 161.653 19.277 160.648 20.431 159.643 21.586 159.141 23.423 159.141 25.944M176.915 27.383C176.915 28.073 177.17 28.636 177.68 29.071 178.19 29.506 178.85 29.723 179.66 29.723 180.741 29.723 181.648 29.356 182.383 28.621 183.118 27.886 183.485 26.964 183.485 25.853L183.485 25.088C182.675 24.939 181.82 24.864 180.92 24.864 179.78 24.864 178.828 25.059 178.063 25.448 177.298 25.839 176.915 26.484 176.915 27.383zM183.8 34.808L183.395 31.793C181.895 34.194 179.616 35.393 176.555 35.393 175.205 35.393 173.983 35.101 172.888 34.516 171.793 33.931 170.923 33.129 170.278 32.109 169.632 31.089 169.31 29.904 169.31 28.553 169.31 26.004 170.307 24.024 172.303 22.614 174.298 21.203 176.93 20.498 180.201 20.498 181.22 20.498 182.3 20.588 183.44 20.768 183.32 19.629 182.833 18.766 181.978 18.181 181.123 17.596 180.08 17.303 178.85 17.303 177.77 17.303 176.683 17.506 175.588 17.911 174.492 18.316 173.451 18.804 172.461 19.373L169.805 14.333C171.305 13.373 172.925 12.631 174.665 12.106 176.405 11.581 178.145 11.319 179.885 11.319 181.985 11.319 183.875 11.678 185.555 12.399 187.235 13.118 188.555 14.214 189.515 15.683 190.475 17.154 190.955 19.013 190.955 21.263L190.955 34.808 183.8 34.808 183.8 34.808zM212.826 33.323C211.895 33.953 210.83 34.456 209.63 34.831 208.43 35.205 207.17 35.393 205.85 35.393 203.39 35.393 201.433 34.681 199.978 33.256 198.523 31.831 197.795 29.919 197.795 27.518L197.795 17.753 194.06 17.753 194.06 11.904 198.155 11.904 199.145 5.513 205.625 5.513 205.625 11.904 211.61 11.904 211.61 17.753 205.625 17.753 205.625 26.529C205.625 27.309 205.857 27.916 206.323 28.351 206.788 28.786 207.41 29.003 208.19 29.003 208.58 29.003 208.978 28.929 209.383 28.779 209.788 28.629 210.17 28.448 210.53 28.239L212.826 33.323M233.257 11.633C233.257 12.144 233.415 12.676 233.73 13.231 234.045 13.786 234.607 14.529 235.417 15.458L236.272 15.188C237.172 14.889 237.885 14.423 238.41 13.793 238.934 13.163 239.197 12.444 239.197 11.633 239.197 10.794 238.92 10.111 238.365 9.586 237.809 9.061 237.097 8.798 236.227 8.798 235.387 8.798 234.682 9.069 234.112 9.609 233.542 10.149 233.257 10.823 233.257 11.633zM230.512 25.763C230.512 26.964 231.014 27.931 232.02 28.666 233.025 29.402 234.367 29.768 236.047 29.768 237.337 29.768 238.522 29.529 239.602 29.048L232.807 21.938C231.277 22.748 230.512 24.024 230.512 25.763zM245.137 34.808L243.607 33.234C241.297 34.583 238.582 35.258 235.462 35.258 233.092 35.258 231.014 34.883 229.23 34.133 227.445 33.384 226.057 32.326 225.067 30.961 224.077 29.596 223.582 27.998 223.582 26.168 223.582 24.368 224.055 22.741 225 21.286 225.945 19.831 227.257 18.669 228.937 17.798 228.037 16.689 227.377 15.646 226.957 14.671 226.537 13.697 226.327 12.684 226.327 11.633 226.327 10.044 226.755 8.626 227.61 7.381 228.465 6.136 229.635 5.154 231.12 4.433 232.605 3.713 234.307 3.353 236.227 3.353 238.147 3.353 239.85 3.713 241.335 4.433 242.82 5.154 243.99 6.136 244.845 7.381 245.7 8.626 246.127 10.044 246.127 11.633 246.127 13.464 245.535 15.053 244.35 16.404 243.164 17.753 241.477 18.819 239.287 19.598L243.967 24.593C244.687 23.154 245.152 21.474 245.362 19.553L251.032 20.319C250.612 23.739 249.637 26.618 248.107 28.958L253.552 34.808 245.137 34.808 245.137 34.808zM278.343 35.393C275.223 35.393 272.485 34.718 270.131 33.368 267.775 32.018 265.93 30.151 264.596 27.766 263.261 25.381 262.593 22.614 262.593 19.463 262.593 16.313 263.261 13.553 264.596 11.183 265.93 8.814 267.775 6.961 270.131 5.626 272.485 4.291 275.223 3.623 278.343 3.623 280.983 3.623 283.361 4.156 285.476 5.221 287.59 6.286 289.398 7.823 290.898 9.833L284.283 13.748C283.503 12.758 282.626 11.979 281.651 11.408 280.675 10.839 279.543 10.553 278.254 10.553 276.123 10.553 274.398 11.356 273.078 12.961 271.758 14.566 271.098 16.734 271.098 19.463 271.098 22.194 271.758 24.376 273.078 26.011 274.398 27.646 276.123 28.463 278.254 28.463 279.573 28.463 280.743 28.141 281.763 27.496 282.783 26.851 283.638 26.094 284.328 25.223L290.898 29.138C289.428 31.179 287.62 32.731 285.476 33.796 283.331 34.861 280.953 35.393 278.343 35.393M302.373 22.208L302.373 34.808 294.543 34.808 294.543 1.958 302.373 1.958 302.373 14.558C303.123 13.569 304.075 12.781 305.231 12.196 306.385 11.611 307.638 11.319 308.988 11.319 311.478 11.319 313.472 12.128 314.973 13.748 316.473 15.368 317.223 17.694 317.223 20.723L317.223 34.808 309.393 34.808 309.393 21.623C309.393 20.274 309.092 19.277 308.493 18.631 307.892 17.986 307.053 17.663 305.973 17.663 304.893 17.663 304.023 18.009 303.363 18.698 302.703 19.389 302.373 20.559 302.373 22.208M330.137 25.944L330.137 34.808 322.308 34.808 322.308 11.904 329.462 11.904 329.958 15.728C330.437 14.498 331.225 13.501 332.32 12.736 333.415 11.971 334.683 11.588 336.123 11.588 336.933 11.588 337.547 11.694 337.967 11.904L337.967 19.058C337.637 18.939 337.27 18.849 336.865 18.788 336.46 18.729 336.003 18.698 335.493 18.698 333.932 18.698 332.65 19.277 331.645 20.431 330.64 21.586 330.137 23.423 330.137 25.944M352.862 29.183C354.242 29.183 355.344 28.651 356.17 27.586 356.995 26.521 357.407 25.104 357.407 23.333 357.407 21.564 356.995 20.154 356.17 19.103 355.344 18.053 354.242 17.529 352.862 17.529 351.482 17.529 350.379 18.053 349.555 19.103 348.729 20.154 348.317 21.564 348.317 23.333 348.317 25.104 348.729 26.521 349.555 27.586 350.379 28.651 351.482 29.183 352.862 29.183zM352.862 35.393C350.402 35.393 348.234 34.876 346.36 33.841 344.484 32.806 343.014 31.388 341.95 29.588 340.884 27.788 340.352 25.703 340.352 23.333 340.352 20.964 340.884 18.878 341.95 17.078 343.014 15.279 344.484 13.868 346.36 12.848 348.234 11.829 350.402 11.319 352.862 11.319 355.322 11.319 357.49 11.829 359.365 12.848 361.239 13.868 362.71 15.279 363.775 17.078 364.839 18.878 365.373 20.964 365.373 23.333 365.373 25.703 364.839 27.788 363.775 29.588 362.71 31.388 361.239 32.806 359.365 33.841 357.49 34.876 355.322 35.393 352.862 35.393L352.862 35.393zM377.297 22.163L377.297 34.808 369.467 34.808 369.467 11.904 376.622 11.904 377.027 14.918C377.776 13.838 378.752 12.968 379.952 12.308 381.151 11.649 382.472 11.319 383.912 11.319 386.402 11.319 388.397 12.128 389.897 13.748 391.397 15.368 392.147 17.694 392.147 20.723L392.147 34.808 384.317 34.808 384.317 21.623C384.317 20.274 384.017 19.277 383.417 18.631 382.816 17.986 381.977 17.663 380.897 17.663 379.817 17.663 378.947 18.009 378.287 18.698 377.627 19.389 377.297 20.543 377.297 22.163M397.232 34.808L397.232 11.904C398.492 12.173 399.766 12.308 401.057 12.308 402.377 12.308 403.712 12.173 405.062 11.904L405.062 34.808 397.232 34.808M421.261 35.393C418.921 35.393 416.843 34.891 415.029 33.886 413.213 32.881 411.781 31.478 410.731 29.678 409.681 27.878 409.156 25.779 409.156 23.378 409.156 20.979 409.681 18.878 410.731 17.078 411.781 15.279 413.213 13.876 415.029 12.871 416.843 11.866 418.921 11.364 421.261 11.364 423.331 11.364 425.146 11.746 426.706 12.511 428.266 13.276 429.646 14.498 430.846 16.178L425.671 19.958C425.251 19.328 424.704 18.811 424.029 18.406 423.354 18.001 422.626 17.798 421.846 17.798 420.496 17.798 419.371 18.301 418.471 19.306 417.571 20.311 417.121 21.668 417.121 23.378 417.121 25.088 417.571 26.446 418.471 27.451 419.371 28.456 420.496 28.958 421.846 28.958 422.626 28.958 423.354 28.756 424.029 28.351 424.704 27.946 425.251 27.428 425.671 26.798L430.846 30.578C429.646 32.259 428.266 33.481 426.706 34.246 425.146 35.011 423.331 35.393 421.261 35.393"/>
    <polygon fill="#FFFFFE" points="434.356 34.808 442.186 34.808 442.186 1.958 434.356 1.958"/>
    <path fill="#FFFFFE" d="M458.52,16.989 C455.97,16.989 454.44,18.338 453.93,21.038 L462.66,21.038 C462.45,19.569 461.947,18.526 461.153,17.911 C460.358,17.296 459.48,16.989 458.52,16.989 Z M469.23,32.468 C468.09,33.279 466.643,33.969 464.888,34.538 C463.133,35.108 461.265,35.393 459.285,35.393 C456.555,35.393 454.223,34.891 452.288,33.886 C450.353,32.881 448.868,31.478 447.833,29.678 C446.798,27.878 446.28,25.808 446.28,23.468 C446.28,21.099 446.79,18.998 447.81,17.168 C448.83,15.339 450.24,13.906 452.04,12.871 C453.84,11.836 455.94,11.319 458.34,11.319 C460.68,11.319 462.743,11.821 464.528,12.826 C466.312,13.831 467.707,15.226 468.713,17.011 C469.717,18.796 470.22,20.889 470.22,23.288 C470.22,23.619 470.198,23.963 470.153,24.323 C470.108,24.683 470.055,25.059 469.995,25.448 L454.02,25.448 C454.74,28.089 456.705,29.408 459.915,29.408 C461.355,29.408 462.63,29.183 463.74,28.734 C464.85,28.283 465.78,27.833 466.53,27.383 L469.23,32.468 L469.23,32.468 Z"/>
    <path fill="#009BFF" class="no-color-change" d="M401.057,10.103 C399.766,10.103 398.664,9.646 397.749,8.731 C396.834,7.816 396.377,6.714 396.377,5.423 C396.377,4.134 396.834,3.031 397.749,2.116 C398.664,1.201 399.766,0.743 401.057,0.743 C402.346,0.743 403.449,1.201 404.364,2.116 C405.279,3.031 405.737,4.134 405.737,5.423 C405.737,6.714 405.279,7.816 404.364,8.731 C403.449,9.646 402.346,10.103 401.057,10.103"/>
  </g>
</svg>
