<svg xmlns="http://www.w3.org/2000/svg" width="306" height="48" viewBox="0 0 306 48">
  <g fill="none" fill-rule="evenodd">
    <path fill="#404040" d="M8.457 18.502L12.957 18.502C14.247 18.502 15.267 18.164 16.017 17.489 16.766 16.814 17.142 15.892 17.142 14.722 17.142 13.612 16.766 12.719 16.017 12.044 15.267 11.369 14.247 11.032 12.957 11.032L8.457 11.032 8.457 18.502zM8.457 24.847L8.457 35.017.357 35.017.357 4.417 13.857 4.417C17.457 4.417 20.307 5.339 22.407 7.185 24.506 9.029 25.557 11.542 25.557 14.722 25.557 16.792 25.092 18.577 24.162 20.077 23.232 21.577 21.927 22.747 20.247 23.587L26.502 35.017 17.592 35.017 12.507 24.847 8.457 24.847zM45.492 35.017L45.087 32.002C44.337 33.112 43.355 33.989 42.139 34.634 40.925 35.279 39.612 35.602 38.202 35.602 35.532 35.602 33.492 34.814 32.082 33.239 30.671 31.664 29.967 29.392 29.967 26.422L29.967 12.112 37.797 12.112 37.797 25.521C37.797 28.012 38.937 29.257 41.217 29.257 43.617 29.257 44.817 27.757 44.817 24.757L44.817 12.112 52.647 12.112 52.647 35.017 45.492 35.017M58.136 35.017L58.136 12.112C59.396 12.382 60.671 12.517 61.961 12.517 63.281 12.517 64.616 12.382 65.966 12.112L65.966 35.017 58.136 35.017M82.571 29.392C83.921 29.392 85.008 28.859 85.834 27.794 86.658 26.729 87.071 25.312 87.071 23.542 87.071 21.772 86.658 20.354 85.834 19.289 85.008 18.225 83.921 17.692 82.571 17.692 81.191 17.692 80.088 18.225 79.263 19.289 78.438 20.354 78.026 21.772 78.026 23.542 78.026 25.312 78.438 26.729 79.263 27.794 80.088 28.859 81.191 29.392 82.571 29.392zM87.611 35.017L87.206 32.002C86.486 33.112 85.556 33.989 84.416 34.634 83.275 35.279 81.956 35.602 80.456 35.602 78.386 35.602 76.571 35.091 75.011 34.072 73.451 33.052 72.236 31.635 71.366 29.819 70.495 28.005 70.061 25.912 70.061 23.542 70.061 21.172 70.495 19.087 71.366 17.287 72.236 15.487 73.428 14.077 74.943 13.057 76.458 12.037 78.206 11.527 80.186 11.527 81.565 11.527 82.841 11.819 84.011 12.404 85.181 12.989 86.156 13.777 86.936 14.767L86.936 2.167 94.766 2.167 94.766 35.017 87.611 35.017zM111.371 29.392C112.751 29.392 113.853 28.859 114.679 27.794 115.503 26.729 115.916 25.312 115.916 23.542 115.916 21.772 115.503 20.362 114.679 19.312 113.853 18.262 112.751 17.737 111.371 17.737 109.991 17.737 108.888 18.262 108.064 19.312 107.238 20.362 106.826 21.772 106.826 23.542 106.826 25.312 107.238 26.729 108.064 27.794 108.888 28.859 109.991 29.392 111.371 29.392zM111.371 35.602C108.911 35.602 106.743 35.084 104.868 34.049 102.993 33.015 101.523 31.597 100.459 29.797 99.393 27.997 98.861 25.912 98.861 23.542 98.861 21.172 99.393 19.087 100.459 17.287 101.523 15.487 102.993 14.077 104.868 13.057 106.743 12.037 108.911 11.527 111.371 11.527 113.831 11.527 115.998 12.037 117.874 13.057 119.748 14.077 121.218 15.487 122.284 17.287 123.348 19.087 123.881 21.172 123.881 23.542 123.881 25.912 123.348 27.997 122.284 29.797 121.218 31.597 119.748 33.015 117.874 34.049 115.998 35.084 113.831 35.602 111.371 35.602zM136.481 35.602C134.501 35.602 132.648 35.287 130.923 34.657 129.198 34.027 127.646 33.127 126.266 31.957L129.596 27.547C130.646 28.387 131.779 29.07 132.993 29.594 134.209 30.12 135.401 30.382 136.571 30.382 137.351 30.382 137.973 30.247 138.439 29.977 138.903 29.707 139.136 29.302 139.136 28.762 139.136 28.192 138.873 27.734 138.348 27.39 137.823 27.045 136.886 26.707 135.536 26.377L133.376 25.837C129.086 24.697 126.941 22.402 126.941 18.952 126.941 17.422 127.361 16.102 128.201 14.992 129.041 13.882 130.196 13.027 131.666 12.427 133.136 11.827 134.846 11.527 136.796 11.527 138.716 11.527 140.523 11.827 142.219 12.427 143.913 13.027 145.466 13.897 146.876 15.037L143.456 19.537C142.406 18.697 141.296 18.022 140.126 17.512 138.956 17.002 137.861 16.747 136.841 16.747 135.191 16.747 134.366 17.287 134.366 18.367 134.366 18.847 134.614 19.237 135.108 19.537 135.604 19.837 136.301 20.108 137.201 20.347L140.126 21.157C142.315 21.757 143.936 22.657 144.986 23.857 146.036 25.057 146.561 26.483 146.561 28.132 146.561 29.632 146.14 30.944 145.301 32.069 144.461 33.194 143.283 34.064 141.769 34.68 140.253 35.294 138.491 35.602 136.481 35.602M161.951 29.392C163.33 29.392 164.432 28.859 165.258 27.794 166.083 26.729 166.495 25.312 166.495 23.542 166.495 21.772 166.083 20.362 165.258 19.312 164.432 18.262 163.33 17.737 161.951 17.737 160.57 17.737 159.468 18.262 158.643 19.312 157.818 20.362 157.406 21.772 157.406 23.542 157.406 25.312 157.818 26.729 158.643 27.794 159.468 28.859 160.57 29.392 161.951 29.392zM161.951 35.602C159.49 35.602 157.323 35.084 155.448 34.049 153.573 33.015 152.102 31.597 151.038 29.797 149.973 27.997 149.441 25.912 149.441 23.542 149.441 21.172 149.973 19.087 151.038 17.287 152.102 15.487 153.573 14.077 155.448 13.057 157.323 12.037 159.49 11.527 161.951 11.527 164.41 11.527 166.578 12.037 168.453 13.057 170.327 14.077 171.798 15.487 172.863 17.287 173.928 19.087 174.461 21.172 174.461 23.542 174.461 25.912 173.928 27.997 172.863 29.797 171.798 31.597 170.327 33.015 168.453 34.049 166.578 35.084 164.41 35.602 161.951 35.602z"/>
    <polyline fill="#009BFF" class='no-color-change' points="209.695 35.017 197.68 17.377 197.68 35.017 189.985 35.017 189.985 4.417 197.635 4.417 209.605 22.372 209.605 4.417 217.345 4.417 217.345 35.017 209.695 35.017"/>
    <path fill="#009BFF" class='no-color-change' d="M234.31,17.197 C231.76,17.197 230.23,18.547 229.72,21.247 L238.45,21.247 C238.24,19.777 237.737,18.734 236.942,18.119 C236.147,17.505 235.27,17.197 234.31,17.197 Z M245.02,32.677 C243.879,33.487 242.432,34.177 240.678,34.747 C238.922,35.316 237.055,35.602 235.075,35.602 C232.345,35.602 230.013,35.099 228.077,34.094 C226.142,33.09 224.658,31.687 223.622,29.887 C222.587,28.087 222.07,26.017 222.07,23.677 C222.07,21.308 222.58,19.207 223.6,17.377 C224.619,15.547 226.03,14.114 227.83,13.079 C229.63,12.044 231.729,11.527 234.13,11.527 C236.47,11.527 238.532,12.029 240.317,13.034 C242.102,14.04 243.497,15.435 244.502,17.219 C245.507,19.005 246.01,21.097 246.01,23.497 C246.01,23.827 245.988,24.172 245.942,24.532 C245.897,24.892 245.845,25.268 245.785,25.657 L229.81,25.657 C230.53,28.297 232.494,29.617 235.705,29.617 C237.145,29.617 238.42,29.392 239.53,28.942 C240.639,28.492 241.57,28.042 242.32,27.592 L245.02,32.677 Z"/>
    <polyline fill="#009BFF" class='no-color-change' points="269.32 35.017 265.63 21.112 261.985 35.017 253.885 35.017 247.945 12.112 255.955 12.112 258.34 26.872 262.21 12.112 269.095 12.112 273.1 26.917 275.53 12.112 283.36 12.112 277.42 35.017 269.32 35.017"/>
    <path fill="#009BFF" class='no-color-change' d="M295.284,35.602 C293.304,35.602 291.451,35.287 289.726,34.657 C288.001,34.027 286.449,33.127 285.069,31.957 L288.399,27.547 C289.449,28.387 290.582,29.07 291.797,29.594 C293.012,30.12 294.204,30.382 295.374,30.382 C296.154,30.382 296.776,30.247 297.242,29.977 C297.706,29.707 297.939,29.302 297.939,28.762 C297.939,28.192 297.676,27.734 297.152,27.39 C296.626,27.045 295.689,26.707 294.339,26.377 L292.179,25.837 C287.888,24.697 285.744,22.402 285.744,18.952 C285.744,17.422 286.164,16.102 287.004,14.992 C287.844,13.882 288.999,13.027 290.469,12.427 C291.939,11.827 293.649,11.527 295.599,11.527 C297.519,11.527 299.326,11.827 301.022,12.427 C302.716,13.027 304.269,13.897 305.679,15.037 L302.259,19.537 C301.209,18.697 300.099,18.022 298.929,17.512 C297.759,17.002 296.664,16.747 295.644,16.747 C293.994,16.747 293.169,17.287 293.169,18.367 C293.169,18.847 293.417,19.237 293.911,19.537 C294.407,19.837 295.104,20.108 296.004,20.347 L298.929,21.157 C301.118,21.757 302.739,22.657 303.789,23.857 C304.839,25.057 305.364,26.483 305.364,28.132 C305.364,29.632 304.944,30.944 304.104,32.069 C303.264,33.194 302.086,34.064 300.572,34.68 C299.056,35.294 297.294,35.602 295.284,35.602"/>
    <path fill="#404040" d="M1.223 44.555L2.39 44.555C2.773 44.555 3.076 44.461 3.299 44.272 3.522 44.083 3.633 43.826 3.633 43.5 3.633 43.174 3.522 42.917 3.299 42.728 3.076 42.54 2.773 42.445 2.39 42.445L1.223 42.445 1.223 44.555zM.357 47.548L.357 41.716 2.39 41.716C3.042 41.716 3.559 41.877 3.942 42.197 4.325 42.517 4.517 42.951 4.517 43.5 4.517 44.044 4.325 44.474 3.942 44.791 3.559 45.108 3.042 45.267 2.39 45.267L1.223 45.267 1.223 47.548.357 47.548zM6.266 45.353L8.393 45.353 7.33 42.617 6.266 45.353zM9.242 47.548L8.676 46.082 5.983 46.082 5.417 47.548 4.542 47.548 6.875 41.716 7.81 41.716 10.134 47.548 9.242 47.548zM11.97 44.469L13.162 44.469C13.533 44.469 13.829 44.378 14.049 44.195 14.27 44.012 14.38 43.766 14.38 43.457 14.38 43.148 14.27 42.903 14.049 42.72 13.829 42.537 13.533 42.445 13.162 42.445L11.97 42.445 11.97 44.469zM11.97 45.181L11.97 47.548 11.103 47.548 11.103 41.716 13.162 41.716C13.808 41.716 14.32 41.872 14.697 42.184 15.074 42.496 15.263 42.92 15.263 43.457 15.263 43.863 15.148 44.207 14.92 44.486 14.691 44.767 14.377 44.964 13.977 45.078L15.392 47.548 14.405 47.548 13.076 45.181 11.97 45.181z"/>
    <polyline fill="#404040" points="17.75 47.548 17.75 42.445 15.786 42.445 15.786 41.716 20.58 41.716 20.58 42.445 18.616 42.445 18.616 47.548 17.75 47.548"/>
    <path fill="#404040" d="M26.146,46.888 C26.524,46.888 26.86,46.793 27.154,46.601 C27.449,46.409 27.678,46.145 27.844,45.807 C28.01,45.47 28.093,45.078 28.093,44.632 C28.093,44.187 28.01,43.795 27.844,43.457 C27.678,43.12 27.449,42.855 27.154,42.664 C26.86,42.473 26.524,42.377 26.146,42.377 C25.769,42.377 25.435,42.473 25.143,42.664 C24.851,42.855 24.623,43.12 24.457,43.457 C24.291,43.795 24.208,44.187 24.208,44.632 C24.208,45.078 24.291,45.47 24.457,45.807 C24.623,46.145 24.851,46.409 25.143,46.601 C25.435,46.793 25.769,46.888 26.146,46.888 Z M26.146,47.643 C25.597,47.643 25.111,47.514 24.688,47.257 C24.265,46.999 23.932,46.645 23.689,46.193 C23.446,45.742 23.325,45.221 23.325,44.632 C23.325,44.044 23.446,43.523 23.689,43.071 C23.932,42.62 24.265,42.265 24.688,42.008 C25.111,41.751 25.597,41.622 26.146,41.622 C26.695,41.622 27.183,41.751 27.609,42.008 C28.034,42.265 28.369,42.62 28.612,43.071 C28.855,43.523 28.977,44.044 28.977,44.632 C28.977,45.221 28.855,45.742 28.612,46.193 C28.369,46.645 28.034,46.999 27.609,47.257 C27.183,47.514 26.695,47.643 26.146,47.643 Z"/>
    <polyline fill="#404040" points="31.061 47.548 30.194 47.548 30.194 41.716 33.822 41.716 33.822 42.445 31.061 42.445 31.061 44.418 33.402 44.418 33.402 45.147 31.061 45.147 31.061 47.548"/>
    <polyline fill="#404040" points="38.342 47.548 38.342 42.445 36.378 42.445 36.378 41.716 41.172 41.716 41.172 42.445 39.208 42.445 39.208 47.548 38.342 47.548"/>
    <polyline fill="#404040" points="42.167 47.548 42.167 41.716 43.033 41.716 43.033 44.212 46.043 44.212 46.043 41.716 46.91 41.716 46.91 47.548 46.043 47.548 46.043 44.958 43.033 44.958 43.033 47.548 42.167 47.548"/>
    <polyline fill="#404040" points="48.436 47.548 48.436 41.716 52.176 41.716 52.176 42.445 49.303 42.445 49.303 44.247 51.833 44.247 51.833 44.976 49.303 44.976 49.303 46.819 52.244 46.819 52.244 47.548 48.436 47.548"/>
    <path fill="#404040" d="M57.716 46.888C58.19 46.888 58.563 46.745 58.835 46.459 59.106 46.173 59.242 45.787 59.242 45.301L59.242 41.716 60.109 41.716 60.109 45.31C60.109 46.036 59.896 46.606 59.47 47.021 59.044 47.436 58.459 47.643 57.716 47.643 56.972 47.643 56.389 47.436 55.966 47.021 55.543 46.606 55.332 46.036 55.332 45.31L55.332 41.716 56.198 41.716 56.198 45.301C56.198 45.787 56.334 46.173 56.605 46.459 56.877 46.745 57.247 46.888 57.716 46.888M63.342 47.643C62.902 47.643 62.481 47.565 62.081 47.411 61.681 47.257 61.358 47.051 61.112 46.793L61.601 46.219C61.83 46.431 62.1 46.596 62.411 46.716 62.723 46.836 63.033 46.896 63.342 46.896 63.72 46.896 64.024 46.824 64.255 46.678 64.487 46.532 64.603 46.331 64.603 46.073 64.603 45.839 64.52 45.642 64.354 45.481 64.188 45.321 63.905 45.187 63.505 45.078L62.699 44.864C62.178 44.727 61.8 44.532 61.563 44.281 61.325 44.029 61.207 43.701 61.207 43.294 61.207 42.963 61.295 42.671 61.472 42.419 61.649 42.168 61.894 41.972 62.206 41.832 62.517 41.692 62.87 41.622 63.265 41.622 63.682 41.622 64.074 41.701 64.44 41.858 64.806 42.015 65.129 42.234 65.409 42.514L64.886 43.08C64.64 42.852 64.384 42.676 64.118 42.553 63.852 42.43 63.571 42.368 63.273 42.368 62.913 42.368 62.619 42.444 62.39 42.595 62.161 42.747 62.047 42.957 62.047 43.226 62.047 43.472 62.128 43.663 62.292 43.8 62.454 43.938 62.704 44.052 63.042 44.144L63.942 44.392C64.463 44.535 64.843 44.735 65.083 44.993 65.323 45.25 65.443 45.57 65.443 45.953 65.443 46.291 65.355 46.587 65.178 46.841 65 47.095 64.754 47.293 64.44 47.433 64.125 47.573 63.759 47.643 63.342 47.643M67.622 45.353L69.749 45.353 68.685 42.617 67.622 45.353zM70.598 47.548L70.032 46.082 67.339 46.082 66.773 47.548 65.898 47.548 68.231 41.716 69.165 41.716 71.49 47.548 70.598 47.548z"/>
    <polyline fill="#404040" points="75.521 47.548 75.521 42.445 73.556 42.445 73.556 41.716 78.351 41.716 78.351 42.445 76.387 42.445 76.387 47.548 75.521 47.548"/>
    <path fill="#404040" d="M81.472 46.888C81.85 46.888 82.186 46.793 82.48 46.601 82.775 46.409 83.005 46.145 83.171 45.807 83.336 45.47 83.42 45.078 83.42 44.632 83.42 44.187 83.336 43.795 83.171 43.457 83.005 43.12 82.775 42.855 82.48 42.664 82.186 42.473 81.85 42.377 81.472 42.377 81.095 42.377 80.761 42.473 80.469 42.664 80.178 42.855 79.949 43.12 79.783 43.457 79.617 43.795 79.534 44.187 79.534 44.632 79.534 45.078 79.617 45.47 79.783 45.807 79.949 46.145 80.178 46.409 80.469 46.601 80.761 46.793 81.095 46.888 81.472 46.888zM81.472 47.643C80.924 47.643 80.438 47.514 80.014 47.257 79.591 46.999 79.258 46.645 79.015 46.193 78.772 45.742 78.651 45.221 78.651 44.632 78.651 44.044 78.772 43.523 79.015 43.071 79.258 42.62 79.591 42.265 80.014 42.008 80.438 41.751 80.924 41.622 81.472 41.622 82.022 41.622 82.509 41.751 82.935 42.008 83.361 42.265 83.695 42.62 83.938 43.071 84.181 43.523 84.303 44.044 84.303 44.632 84.303 45.221 84.181 45.742 83.938 46.193 83.695 46.645 83.361 46.999 82.935 47.257 82.509 47.514 82.022 47.643 81.472 47.643zM86.387 46.819L87.57 46.819C87.982 46.819 88.335 46.729 88.63 46.549 88.924 46.369 89.15 46.116 89.307 45.79 89.464 45.464 89.543 45.078 89.543 44.632 89.543 44.187 89.464 43.8 89.307 43.475 89.15 43.148 88.924 42.895 88.63 42.715 88.335 42.535 87.982 42.445 87.57 42.445L86.387 42.445 86.387 46.819zM85.521 47.548L85.521 41.716 87.57 41.716C88.142 41.716 88.643 41.838 89.071 42.081 89.5 42.324 89.833 42.664 90.071 43.102 90.308 43.539 90.426 44.049 90.426 44.632 90.426 45.215 90.308 45.726 90.071 46.163 89.833 46.601 89.5 46.941 89.071 47.184 88.643 47.427 88.142 47.548 87.57 47.548L85.521 47.548zM92.639 45.353L94.766 45.353 93.702 42.617 92.639 45.353zM95.615 47.548L95.049 46.082 92.356 46.082 91.79 47.548 90.915 47.548 93.248 41.716 94.183 41.716 96.507 47.548 95.615 47.548z"/>
    <polyline fill="#404040" points="99.166 45.233 99.166 47.548 98.3 47.548 98.3 45.233 96.25 41.716 97.27 41.716 98.737 44.409 100.203 41.716 101.207 41.716 99.166 45.233"/>
    <polyline fill="#404040" points="108.137 47.548 105.023 43.08 105.023 47.548 104.209 47.548 104.209 41.716 105.015 41.716 108.137 46.185 108.137 41.716 108.943 41.716 108.943 47.548 108.137 47.548"/>
    <polyline fill="#404040" points="110.469 47.548 110.469 41.716 114.209 41.716 114.209 42.445 111.336 42.445 111.336 44.247 113.866 44.247 113.866 44.976 111.336 44.976 111.336 46.819 114.277 46.819 114.277 47.548 110.469 47.548"/>
    <polyline fill="#404040" points="116.85 47.548 116.85 42.445 114.886 42.445 114.886 41.716 119.68 41.716 119.68 42.445 117.716 42.445 117.716 47.548 116.85 47.548"/>
    <polyline fill="#404040" points="125.341 47.548 123.977 42.9 122.614 47.548 121.713 47.548 120.161 41.716 121.018 41.716 122.202 46.331 123.565 41.716 124.389 41.716 125.761 46.348 126.953 41.716 127.794 41.716 126.241 47.548 125.341 47.548"/>
    <path fill="#404040" d="M131.233 46.888C131.61 46.888 131.946 46.793 132.241 46.601 132.535 46.409 132.765 46.145 132.931 45.807 133.097 45.47 133.18 45.078 133.18 44.632 133.18 44.187 133.097 43.795 132.931 43.457 132.765 43.12 132.535 42.855 132.241 42.664 131.946 42.473 131.61 42.377 131.233 42.377 130.856 42.377 130.521 42.473 130.229 42.664 129.938 42.855 129.709 43.12 129.543 43.457 129.377 43.795 129.294 44.187 129.294 44.632 129.294 45.078 129.377 45.47 129.543 45.807 129.709 46.145 129.938 46.409 130.229 46.601 130.521 46.793 130.856 46.888 131.233 46.888zM131.233 47.643C130.684 47.643 130.198 47.514 129.775 47.257 129.352 46.999 129.019 46.645 128.776 46.193 128.533 45.742 128.411 45.221 128.411 44.632 128.411 44.044 128.533 43.523 128.776 43.071 129.019 42.62 129.352 42.265 129.775 42.008 130.198 41.751 130.684 41.622 131.233 41.622 131.782 41.622 132.269 41.751 132.695 42.008 133.121 42.265 133.455 42.62 133.699 43.071 133.941 43.523 134.063 44.044 134.063 44.632 134.063 45.221 133.941 45.742 133.699 46.193 133.455 46.645 133.121 46.999 132.695 47.257 132.269 47.514 131.782 47.643 131.233 47.643zM136.147 44.469L137.339 44.469C137.711 44.469 138.007 44.378 138.227 44.195 138.447 44.012 138.557 43.766 138.557 43.457 138.557 43.148 138.447 42.903 138.227 42.72 138.007 42.537 137.711 42.445 137.339 42.445L136.147 42.445 136.147 44.469zM136.147 45.181L136.147 47.548 135.281 47.548 135.281 41.716 137.339 41.716C137.985 41.716 138.497 41.872 138.875 42.184 139.252 42.496 139.44 42.92 139.44 43.457 139.44 43.863 139.326 44.207 139.097 44.486 138.869 44.767 138.554 44.964 138.154 45.078L139.569 47.548 138.583 47.548 137.253 45.181 136.147 45.181z"/>
    <polyline fill="#404040" points="144.149 47.548 141.533 44.606 141.533 47.548 140.667 47.548 140.667 41.716 141.533 41.716 141.533 44.272 143.977 41.716 145.05 41.716 142.451 44.392 145.238 47.548 144.149 47.548"/>
    <path fill="#009BFF" class='no-color-change' d="M61.961,10.312 C60.671,10.312 59.569,9.854 58.654,8.939 C57.738,8.024 57.281,6.922 57.281,5.632 C57.281,4.342 57.738,3.24 58.654,2.324 C59.569,1.41 60.671,0.952 61.961,0.952 C63.251,0.952 64.353,1.41 65.269,2.324 C66.184,3.24 66.641,4.342 66.641,5.632 C66.641,6.922 66.184,8.024 65.269,8.939 C64.353,9.854 63.251,10.312 61.961,10.312"/>
  </g>
</svg>
