<svg xmlns="http://www.w3.org/2000/svg" width="349" height="55" viewBox="0 0 349 55">
  <g fill="none" fill-rule="evenodd">
    <path class='no-color-change' fill="#009BFF" d="M54.177,27.824 C54.177,42.737 42.09,54.824 27.177,54.824 C12.264,54.824 0.177,42.737 0.177,27.824 C0.177,12.911 12.264,0.824 27.177,0.824 C42.09,0.824 54.177,12.911 54.177,27.824"/>
    <path fill="#404040" d="M69.537 21.551C70.516 21.551 71.272 21.263 71.805 20.686 72.338 20.109 72.606 19.287 72.606 18.22L72.606 7.441 77.485 7.441 77.485 18.194C77.485 20.555 76.793 22.382 75.412 23.676 74.031 24.97 72.072 25.617 69.537 25.617 67.002 25.617 65.043 24.97 63.662 23.676 62.28 22.382 61.59 20.555 61.59 18.194L61.59 7.441 66.469 7.441 66.469 18.22C66.469 19.287 66.735 20.109 67.268 20.686 67.801 21.263 68.557 21.551 69.537 21.551M87.24 25.617C85.789 25.617 84.399 25.368 83.071 24.87 81.742 24.37 80.588 23.659 79.61 22.732L81.969 19.768C82.668 20.397 83.455 20.892 84.33 21.249 85.203 21.608 86.166 21.787 87.215 21.787 87.914 21.787 88.465 21.665 88.867 21.42 89.27 21.175 89.471 20.808 89.471 20.319 89.471 19.846 89.235 19.466 88.762 19.178 88.291 18.889 87.459 18.587 86.272 18.273L85.17 17.984C83.561 17.565 82.336 16.922 81.496 16.056 80.658 15.191 80.239 14.094 80.239 12.765 80.239 11.628 80.535 10.631 81.129 9.775 81.725 8.918 82.547 8.258 83.596 7.794 84.645 7.331 85.86 7.099 87.24 7.099 88.606 7.099 89.908 7.349 91.149 7.847 92.391 8.345 93.492 9.023 94.453 9.879L92.014 12.949C91.385 12.407 90.647 11.934 89.799 11.532 88.949 11.13 88.108 10.929 87.268 10.929 86.569 10.929 86.03 11.047 85.655 11.283 85.278 11.519 85.09 11.865 85.09 12.319 85.09 12.739 85.287 13.102 85.68 13.408 86.074 13.713 86.752 13.997 87.713 14.26L89.051 14.627C90.975 15.152 92.334 15.869 93.129 16.778 93.924 17.687 94.323 18.745 94.323 19.952 94.323 21.088 94.03 22.08 93.444 22.928 92.858 23.777 92.032 24.437 90.965 24.909 89.899 25.38 88.658 25.617 87.24 25.617M102.481 18.326L106.703 18.326 104.606 12.082 102.481 18.326zM109.063 25.276L107.936 21.945 101.248 21.945 100.119 25.276 95.293 25.276 101.824 7.441 107.49 7.441 114.022 25.276 109.063 25.276 109.063 25.276z"/>
    <polyline fill="#404040" points="125.219 25.276 125.219 11.374 119.922 11.374 119.922 7.441 135.397 7.441 135.397 11.374 130.098 11.374 130.098 25.276 125.219 25.276"/>
    <path fill="#404040" d="M145.6 21.578C146.455 21.578 147.203 21.359 147.842 20.922 148.481 20.485 148.983 19.877 149.35 19.099 149.717 18.321 149.901 17.416 149.901 16.384 149.901 15.353 149.717 14.444 149.35 13.657 148.983 12.87 148.481 12.253 147.842 11.807 147.203 11.362 146.455 11.139 145.6 11.139 144.742 11.139 143.994 11.362 143.356 11.807 142.719 12.253 142.215 12.87 141.848 13.657 141.481 14.444 141.297 15.353 141.297 16.384 141.297 17.416 141.481 18.321 141.848 19.099 142.215 19.877 142.719 20.485 143.356 20.922 143.994 21.359 144.742 21.578 145.6 21.578zM145.6 25.617C143.815 25.617 142.229 25.223 140.838 24.437 139.449 23.65 138.352 22.561 137.547 21.171 136.742 19.781 136.34 18.186 136.34 16.384 136.34 15.02 136.567 13.775 137.022 12.647 137.477 11.519 138.123 10.539 138.963 9.709 139.803 8.879 140.782 8.236 141.901 7.782 143.02 7.327 144.252 7.099 145.6 7.099 146.946 7.099 148.178 7.327 149.297 7.782 150.416 8.236 151.395 8.879 152.235 9.709 153.074 10.539 153.721 11.519 154.176 12.647 154.631 13.775 154.858 15.02 154.858 16.384 154.858 18.186 154.455 19.781 153.651 21.171 152.846 22.561 151.75 23.65 150.36 24.437 148.969 25.223 147.383 25.617 145.6 25.617L145.6 25.617zM162.463 21.42L164.694 21.42C165.969 21.42 166.979 20.957 167.723 20.03 168.465 19.104 168.838 17.879 168.838 16.358 168.838 14.836 168.465 13.613 167.723 12.686 166.979 11.759 165.969 11.296 164.694 11.296L162.463 11.296 162.463 21.42zM157.664 25.276L157.664 7.441 164.694 7.441C166.459 7.441 168.02 7.821 169.375 8.581 170.731 9.342 171.793 10.391 172.563 11.729 173.33 13.067 173.715 14.61 173.715 16.358 173.715 18.107 173.33 19.65 172.563 20.988 171.793 22.325 170.731 23.374 169.375 24.135 168.02 24.896 166.459 25.276 164.694 25.276L157.664 25.276 157.664 25.276zM181.532 18.326L185.754 18.326 183.657 12.082 181.532 18.326zM188.115 25.276L186.989 21.945 180.299 21.945 179.172 25.276 174.346 25.276 180.877 7.441 186.541 7.441 193.073 25.276 188.115 25.276 188.115 25.276z"/>
    <polyline fill="#404040" points="202.514 18.85 202.514 25.276 197.557 25.276 197.557 18.85 191.237 7.441 196.744 7.441 200.049 14.522 203.326 7.441 208.834 7.441 202.514 18.85"/>
    <polyline fill="#404040" points="227.797 25.276 220.795 14.995 220.795 25.276 216.309 25.276 216.309 7.441 220.768 7.441 227.744 17.906 227.744 7.441 232.256 7.441 232.256 25.276 227.797 25.276"/>
    <polyline fill="#404040" points="236.192 25.276 236.192 7.441 248.492 7.441 248.492 11.348 240.965 11.348 240.965 14.365 247.653 14.365 247.653 18.273 240.965 18.273 240.965 21.368 248.912 21.368 248.912 25.276 236.192 25.276"/>
    <polyline fill="#404040" points="255.914 25.276 255.914 11.374 250.617 11.374 250.617 7.441 266.092 7.441 266.092 11.374 260.793 11.374 260.793 25.276 255.914 25.276"/>
    <polyline fill="#404040" points="282.563 25.276 279.678 13.683 276.791 25.276 271.625 25.276 267.192 7.441 271.914 7.441 274.615 19.611 277.606 7.441 281.776 7.441 284.739 19.532 287.52 7.441 292.162 7.441 287.729 25.276 282.563 25.276"/>
    <path fill="#404040" d="M302.549 21.578C303.405 21.578 304.153 21.359 304.791 20.922 305.43 20.485 305.932 19.877 306.299 19.099 306.666 18.321 306.85 17.416 306.85 16.384 306.85 15.353 306.666 14.444 306.299 13.657 305.932 12.87 305.43 12.253 304.791 11.807 304.153 11.362 303.405 11.139 302.549 11.139 301.692 11.139 300.944 11.362 300.305 11.807 299.668 12.253 299.164 12.87 298.797 13.657 298.43 14.444 298.246 15.353 298.246 16.384 298.246 17.416 298.43 18.321 298.797 19.099 299.164 19.877 299.668 20.485 300.305 20.922 300.944 21.359 301.692 21.578 302.549 21.578zM302.549 25.617C300.764 25.617 299.178 25.223 297.787 24.437 296.399 23.65 295.301 22.561 294.496 21.171 293.692 19.781 293.289 18.186 293.289 16.384 293.289 15.02 293.516 13.775 293.971 12.647 294.426 11.519 295.073 10.539 295.912 9.709 296.752 8.879 297.731 8.236 298.85 7.782 299.969 7.327 301.201 7.099 302.549 7.099 303.895 7.099 305.127 7.327 306.246 7.782 307.365 8.236 308.344 8.879 309.184 9.709 310.024 10.539 310.67 11.519 311.125 12.647 311.58 13.775 311.807 15.02 311.807 16.384 311.807 18.186 311.405 19.781 310.6 21.171 309.795 22.561 308.699 23.65 307.309 24.437 305.918 25.223 304.332 25.617 302.549 25.617L302.549 25.617zM319.387 15.65L322.01 15.65C322.762 15.65 323.356 15.454 323.793 15.06 324.231 14.666 324.449 14.128 324.449 13.447 324.449 12.8 324.231 12.28 323.793 11.886 323.356 11.493 322.762 11.296 322.01 11.296L319.387 11.296 319.387 15.65zM319.387 19.348L319.387 25.276 314.666 25.276 314.666 7.441 322.535 7.441C324.633 7.441 326.293 7.978 327.518 9.053 328.742 10.128 329.354 11.593 329.354 13.447 329.354 14.653 329.082 15.694 328.541 16.568 327.998 17.443 327.239 18.124 326.26 18.614L329.905 25.276 324.711 25.276 321.748 19.348 319.387 19.348 319.387 19.348z"/>
    <polyline fill="#404040" points="343.045 25.276 337.379 16.556 337.379 25.276 332.528 25.276 332.528 7.441 337.379 7.441 337.379 15.27 343.254 7.441 348.867 7.441 342.258 15.637 348.737 25.276 343.045 25.276"/>
    <path class='no-color-change' fill="#009BFF" d="M66.313 38.503L68.936 38.503C69.686 38.503 70.281 38.307 70.719 37.913 71.155 37.52 71.373 36.982 71.373 36.3 71.373 35.654 71.155 35.133 70.719 34.74 70.281 34.346 69.686 34.15 68.936 34.15L66.313 34.15 66.313 38.503zM66.313 42.202L66.313 48.129 61.59 48.129 61.59 30.294 69.459 30.294C71.557 30.294 73.219 30.831 74.444 31.907 75.666 32.982 76.28 34.447 76.28 36.3 76.28 37.506 76.008 38.547 75.465 39.421 74.924 40.296 74.162 40.978 73.184 41.467L76.83 48.129 71.637 48.129 68.672 42.202 66.313 42.202 66.313 42.202zM86.797 44.405C87.776 44.405 88.532 44.117 89.065 43.539 89.598 42.962 89.865 42.141 89.865 41.074L89.865 30.294 94.744 30.294 94.744 41.047C94.744 43.409 94.053 45.236 92.672 46.53 91.291 47.824 89.332 48.47 86.797 48.47 84.262 48.47 82.303 47.824 80.922 46.53 79.539 45.236 78.85 43.409 78.85 41.047L78.85 30.294 83.729 30.294 83.729 41.074C83.729 42.141 83.994 42.962 84.528 43.539 85.061 44.117 85.817 44.405 86.797 44.405"/>
    <polygon class='no-color-change' fill="#009BFF" points="98.336 48.129 103.215 48.129 103.215 30.294 98.336 30.294"/>
    <path class='no-color-change' fill="#009BFF" d="M111.949 44.274L114.178 44.274C115.455 44.274 116.465 43.811 117.207 42.883 117.951 41.957 118.323 40.733 118.323 39.211 118.323 37.69 117.951 36.466 117.207 35.539 116.465 34.613 115.455 34.15 114.178 34.15L111.949 34.15 111.949 44.274zM107.149 48.129L107.149 30.294 114.178 30.294C115.946 30.294 117.506 30.674 118.86 31.435 120.215 32.196 121.278 33.245 122.047 34.582 122.817 35.92 123.201 37.463 123.201 39.211 123.201 40.96 122.817 42.503 122.047 43.841 121.278 45.178 120.215 46.228 118.86 46.989 117.506 47.749 115.946 48.129 114.178 48.129L107.149 48.129 107.149 48.129zM134.35 44.431C135.205 44.431 135.953 44.212 136.592 43.776 137.231 43.338 137.733 42.731 138.1 41.953 138.467 41.174 138.651 40.27 138.651 39.238 138.651 38.206 138.467 37.297 138.1 36.51 137.733 35.723 137.231 35.107 136.592 34.661 135.953 34.215 135.205 33.993 134.35 33.993 133.492 33.993 132.744 34.215 132.106 34.661 131.469 35.107 130.965 35.723 130.598 36.51 130.231 37.297 130.047 38.206 130.047 39.238 130.047 40.27 130.231 41.174 130.598 41.953 130.965 42.731 131.469 43.338 132.106 43.776 132.744 44.212 133.492 44.431 134.35 44.431zM134.35 48.47C132.565 48.47 130.979 48.077 129.588 47.29 128.199 46.503 127.102 45.414 126.297 44.025 125.492 42.634 125.09 41.039 125.09 39.238 125.09 37.873 125.317 36.628 125.772 35.5 126.227 34.372 126.873 33.393 127.713 32.563 128.553 31.733 129.532 31.089 130.651 30.635 131.77 30.18 133.002 29.953 134.35 29.953 135.696 29.953 136.928 30.18 138.047 30.635 139.166 31.089 140.145 31.733 140.985 32.563 141.824 33.393 142.471 34.372 142.926 35.5 143.381 36.628 143.608 37.873 143.608 39.238 143.608 41.039 143.205 42.634 142.401 44.025 141.596 45.414 140.5 46.503 139.11 47.29 137.719 48.077 136.133 48.47 134.35 48.47L134.35 48.47zM152.813 48.47C151.362 48.47 149.971 48.221 148.643 47.723 147.315 47.224 146.16 46.512 145.182 45.585L147.541 42.621C148.24 43.25 149.028 43.745 149.903 44.103 150.776 44.461 151.739 44.641 152.787 44.641 153.487 44.641 154.037 44.519 154.44 44.274 154.842 44.029 155.043 43.662 155.043 43.172 155.043 42.7 154.807 42.32 154.334 42.032 153.864 41.743 153.032 41.441 151.844 41.126L150.742 40.837C149.133 40.418 147.908 39.776 147.069 38.91 146.231 38.044 145.811 36.948 145.811 35.618 145.811 34.482 146.108 33.485 146.701 32.628 147.297 31.772 148.119 31.112 149.168 30.648 150.217 30.185 151.432 29.953 152.813 29.953 154.178 29.953 155.481 30.203 156.721 30.701 157.963 31.199 159.065 31.876 160.026 32.733L157.586 35.802C156.957 35.26 156.219 34.787 155.371 34.385 154.522 33.984 153.68 33.783 152.84 33.783 152.141 33.783 151.602 33.901 151.227 34.136 150.85 34.372 150.662 34.718 150.662 35.172 150.662 35.592 150.86 35.955 151.252 36.261 151.647 36.567 152.324 36.851 153.285 37.114L154.623 37.481C156.547 38.005 157.907 38.722 158.701 39.631 159.496 40.54 159.895 41.598 159.895 42.805 159.895 43.942 159.602 44.934 159.016 45.782 158.43 46.63 157.604 47.29 156.537 47.762 155.471 48.234 154.231 48.47 152.813 48.47M171.069 44.431C171.926 44.431 172.672 44.212 173.311 43.776 173.949 43.338 174.451 42.731 174.819 41.953 175.186 41.174 175.371 40.27 175.371 39.238 175.371 38.206 175.186 37.297 174.819 36.51 174.451 35.723 173.949 35.107 173.311 34.661 172.672 34.215 171.926 33.993 171.069 33.993 170.211 33.993 169.465 34.215 168.826 34.661 168.188 35.107 167.686 35.723 167.319 36.51 166.951 37.297 166.768 38.206 166.768 39.238 166.768 40.27 166.951 41.174 167.319 41.953 167.686 42.731 168.188 43.338 168.826 43.776 169.465 44.212 170.211 44.431 171.069 44.431zM171.069 48.47C169.285 48.47 167.699 48.077 166.309 47.29 164.918 46.503 163.821 45.414 163.016 44.025 162.213 42.634 161.811 41.039 161.811 39.238 161.811 37.873 162.037 36.628 162.492 35.5 162.948 34.372 163.594 33.393 164.434 32.563 165.272 31.733 166.252 31.089 167.371 30.635 168.489 30.18 169.723 29.953 171.069 29.953 172.414 29.953 173.649 30.18 174.768 30.635 175.885 31.089 176.865 31.733 177.705 32.563 178.543 33.393 179.192 34.372 179.645 35.5 180.1 36.628 180.328 37.873 180.328 39.238 180.328 41.039 179.926 42.634 179.121 44.025 178.317 45.414 177.219 46.503 175.83 47.29 174.44 48.077 172.852 48.47 171.069 48.47L171.069 48.47z"/>
  </g>
</svg>
