<svg xmlns="http://www.w3.org/2000/svg" width="394" height="43" viewBox="0 0 394 43">
  <g fill="none" fill-rule="evenodd">
    <path fill="#009BFF" class="no-color-change" d="M10.572 34.903C8.592 34.903 6.739 34.588 5.015 33.958 3.289 33.328 1.736 32.428.357 31.258L3.687 26.848C4.737 27.688 5.87 28.371 7.085 28.896 8.3 29.421 9.492 29.683 10.662 29.683 11.442 29.683 12.064 29.548 12.529 29.278 12.994 29.008 13.227 28.603 13.227 28.063 13.227 27.493 12.964 27.035 12.44 26.691 11.914 26.346 10.977 26.008 9.627 25.678L7.467 25.138C3.177 23.998 1.032 21.703 1.032 18.253 1.032 16.723 1.452 15.403 2.292 14.293 3.132 13.183 4.287 12.328 5.757 11.728 7.227 11.128 8.937 10.828 10.887 10.828 12.807 10.828 14.614 11.128 16.31 11.728 18.004 12.328 19.557 13.198 20.967 14.338L17.547 18.838C16.497 17.998 15.387 17.323 14.217 16.813 13.047 16.303 11.952 16.048 10.932 16.048 9.282 16.048 8.457 16.588 8.457 17.668 8.457 18.148 8.705 18.538 9.199 18.838 9.694 19.138 10.392 19.408 11.292 19.648L14.217 20.458C16.406 21.058 18.026 21.958 19.077 23.158 20.127 24.358 20.652 25.783 20.652 27.433 20.652 28.934 20.232 30.245 19.392 31.37 18.552 32.495 17.374 33.365 15.859 33.981 14.344 34.595 12.582 34.903 10.572 34.903M41.802 32.833C40.872 33.463 39.807 33.966 38.607 34.34 37.407 34.715 36.147 34.903 34.827 34.903 32.367 34.903 30.409 34.191 28.954 32.766 27.499 31.341 26.772 29.428 26.772 27.028L26.772 17.263 23.037 17.263 23.037 11.413 27.132 11.413 28.122 5.023 34.602 5.023 34.602 11.413 40.587 11.413 40.587 17.263 34.602 17.263 34.602 26.038C34.602 26.819 34.834 27.426 35.299 27.861 35.764 28.296 36.387 28.513 37.167 28.513 37.557 28.513 37.954 28.439 38.359 28.288 38.765 28.138 39.147 27.958 39.507 27.748L41.802 32.833M51.701 26.893C51.701 27.583 51.956 28.146 52.467 28.58 52.977 29.016 53.637 29.233 54.446 29.233 55.526 29.233 56.434 28.865 57.169 28.13 57.904 27.396 58.272 26.473 58.272 25.362L58.272 24.598C57.462 24.448 56.607 24.373 55.707 24.373 54.566 24.373 53.614 24.569 52.849 24.958 52.084 25.348 51.701 25.993 51.701 26.893zM58.587 34.318L58.182 31.303C56.681 33.703 54.401 34.903 51.342 34.903 49.991 34.903 48.769 34.611 47.674 34.026 46.579 33.441 45.709 32.638 45.064 31.618 44.419 30.599 44.097 29.413 44.097 28.063 44.097 25.514 45.094 23.533 47.089 22.123 49.084 20.713 51.716 20.008 54.986 20.008 56.006 20.008 57.086 20.098 58.227 20.278 58.107 19.138 57.619 18.276 56.764 17.691 55.909 17.106 54.866 16.813 53.637 16.813 52.557 16.813 51.469 17.015 50.374 17.42 49.278 17.825 48.236 18.313 47.247 18.883L44.592 13.843C46.091 12.883 47.711 12.141 49.451 11.615 51.191 11.091 52.931 10.828 54.672 10.828 56.771 10.828 58.661 11.188 60.342 11.908 62.022 12.628 63.341 13.723 64.302 15.193 65.261 16.663 65.741 18.523 65.741 20.773L65.741 34.318 58.587 34.318 58.587 34.318zM87.611 32.833C86.681 33.463 85.616 33.966 84.417 34.34 83.216 34.715 81.956 34.903 80.637 34.903 78.176 34.903 76.219 34.191 74.764 32.766 73.309 31.341 72.582 29.428 72.582 27.028L72.582 17.263 68.847 17.263 68.847 11.413 72.941 11.413 73.932 5.023 80.411 5.023 80.411 11.413 86.397 11.413 86.397 17.263 80.411 17.263 80.411 26.038C80.411 26.819 80.644 27.426 81.109 27.861 81.574 28.296 82.196 28.513 82.977 28.513 83.366 28.513 83.764 28.439 84.169 28.288 84.574 28.138 84.957 27.958 85.316 27.748L87.611 32.833M101.516 16.498C98.966 16.498 97.436 17.848 96.926 20.548L105.656 20.548C105.446 19.078 104.943 18.035 104.148 17.42 103.354 16.806 102.476 16.498 101.516 16.498zM112.226 31.978C111.086 32.788 109.639 33.479 107.884 34.048 106.128 34.617 104.261 34.903 102.281 34.903 99.551 34.903 97.219 34.401 95.283 33.396 93.349 32.391 91.863 30.987 90.829 29.188 89.794 27.388 89.276 25.318 89.276 22.978 89.276 20.609 89.786 18.508 90.806 16.678 91.825 14.848 93.236 13.415 95.036 12.38 96.836 11.345 98.936 10.828 101.336 10.828 103.676 10.828 105.738 11.33 107.523 12.335 109.308 13.341 110.703 14.736 111.709 16.52 112.713 18.306 113.216 20.398 113.216 22.798 113.216 23.128 113.193 23.473 113.148 23.833 113.104 24.193 113.051 24.569 112.991 24.958L97.016 24.958C97.736 27.598 99.7 28.918 102.911 28.918 104.351 28.918 105.626 28.693 106.736 28.243 107.846 27.793 108.776 27.343 109.526 26.893L112.226 31.978 112.226 31.978zM125.726 34.903C123.746 34.903 121.893 34.588 120.168 33.958 118.443 33.328 116.891 32.428 115.511 31.258L118.841 26.848C119.891 27.688 121.023 28.371 122.238 28.896 123.453 29.421 124.646 29.683 125.816 29.683 126.596 29.683 127.218 29.548 127.684 29.278 128.148 29.008 128.381 28.603 128.381 28.063 128.381 27.493 128.118 27.035 127.593 26.691 127.068 26.346 126.131 26.008 124.781 25.678L122.621 25.138C118.33 23.998 116.186 21.703 116.186 18.253 116.186 16.723 116.606 15.403 117.446 14.293 118.285 13.183 119.44 12.328 120.911 11.728 122.38 11.128 124.09 10.828 126.041 10.828 127.961 10.828 129.768 11.128 131.463 11.728 133.158 12.328 134.711 13.198 136.121 14.338L132.701 18.838C131.65 17.998 130.541 17.323 129.371 16.813 128.201 16.303 127.106 16.048 126.086 16.048 124.436 16.048 123.611 16.588 123.611 17.668 123.611 18.148 123.858 18.538 124.354 18.838 124.849 19.138 125.546 19.408 126.446 19.648L129.371 20.458C131.561 21.058 133.181 21.958 134.231 23.158 135.28 24.358 135.806 25.783 135.806 27.433 135.806 28.934 135.385 30.245 134.546 31.37 133.706 32.495 132.528 33.365 131.014 33.981 129.498 34.595 127.735 34.903 125.726 34.903M147.911 21.133L147.911 34.318 140.081 34.318 140.081 11.413 147.281 11.413 147.686 14.338C148.376 13.228 149.275 12.388 150.386 11.818 151.495 11.248 152.681 10.963 153.94 10.963 155.291 10.963 156.521 11.263 157.631 11.862 158.74 12.463 159.64 13.303 160.331 14.383 161.141 13.274 162.198 12.425 163.503 11.84 164.808 11.255 166.181 10.963 167.621 10.963 169.211 10.963 170.613 11.33 171.828 12.066 173.043 12.801 173.995 13.82 174.686 15.125 175.376 16.43 175.721 17.938 175.721 19.648L175.721 34.318 167.891 34.318 167.891 20.458C167.891 19.498 167.628 18.733 167.103 18.163 166.578 17.593 165.911 17.308 165.101 17.308 164.11 17.308 163.315 17.623 162.715 18.253 162.115 18.883 161.815 19.843 161.815 21.133L161.815 34.318 153.985 34.318 153.985 20.458C153.985 19.498 153.731 18.733 153.221 18.163 152.71 17.593 152.021 17.308 151.15 17.308 150.19 17.308 149.41 17.623 148.811 18.253 148.21 18.883 147.911 19.843 147.911 21.133M186.97 26.893C186.97 27.583 187.225 28.146 187.735 28.58 188.245 29.016 188.905 29.233 189.715 29.233 190.795 29.233 191.703 28.865 192.438 28.13 193.173 27.396 193.541 26.473 193.541 25.362L193.541 24.598C192.731 24.448 191.876 24.373 190.976 24.373 189.835 24.373 188.883 24.569 188.118 24.958 187.353 25.348 186.97 25.993 186.97 26.893zM193.856 34.318L193.45 31.303C191.95 33.703 189.67 34.903 186.61 34.903 185.26 34.903 184.038 34.611 182.943 34.026 181.848 33.441 180.978 32.638 180.333 31.618 179.688 30.599 179.365 29.413 179.365 28.063 179.365 25.514 180.362 23.533 182.358 22.123 184.353 20.713 186.985 20.008 190.255 20.008 191.275 20.008 192.355 20.098 193.496 20.278 193.375 19.138 192.888 18.276 192.033 17.691 191.178 17.106 190.135 16.813 188.905 16.813 187.825 16.813 186.738 17.015 185.643 17.42 184.547 17.825 183.505 18.313 182.516 18.883L179.86 13.843C181.36 12.883 182.98 12.141 184.72 11.615 186.46 11.091 188.2 10.828 189.94 10.828 192.04 10.828 193.93 11.188 195.61 11.908 197.29 12.628 198.61 13.723 199.57 15.193 200.53 16.663 201.011 18.523 201.011 20.773L201.011 34.318 193.856 34.318 193.856 34.318zM213.835 21.673L213.835 34.318 206.005 34.318 206.005 11.413 213.16 11.413 213.565 14.428C214.315 13.348 215.29 12.478 216.49 11.818 217.69 11.158 219.011 10.828 220.45 10.828 222.94 10.828 224.935 11.638 226.436 13.258 227.935 14.878 228.686 17.203 228.686 20.233L228.686 34.318 220.856 34.318 220.856 21.133C220.856 19.783 220.556 18.786 219.956 18.14 219.355 17.495 218.515 17.173 217.436 17.173 216.356 17.173 215.485 17.518 214.825 18.208 214.165 18.899 213.835 20.053 213.835 21.673"/>
    <path fill="#FFFFFF" d="M241.69 42.643L240.204 36.253C241.524 36.133 242.589 35.697 243.399 34.947 244.21 34.198 244.614 33.148 244.614 31.798L244.614 11.413C245.874 11.683 247.149 11.818 248.44 11.818 249.759 11.818 251.095 11.683 252.444 11.413L252.444 31.393C252.444 34.723 251.582 37.348 249.857 39.268 248.132 41.188 245.409 42.313 241.69 42.643M269.05 28.693C270.429 28.693 271.531 28.16 272.357 27.096 273.182 26.03 273.595 24.613 273.595 22.843 273.595 21.073 273.182 19.663 272.357 18.612 271.531 17.563 270.429 17.038 269.05 17.038 267.669 17.038 266.566 17.563 265.741 18.612 264.917 19.663 264.505 21.073 264.505 22.843 264.505 24.613 264.917 26.03 265.741 27.096 266.566 28.16 267.669 28.693 269.05 28.693zM269.05 34.903C266.589 34.903 264.421 34.385 262.547 33.351 260.671 32.316 259.201 30.898 258.137 29.098 257.071 27.298 256.54 25.213 256.54 22.843 256.54 20.473 257.071 18.388 258.137 16.588 259.201 14.788 260.671 13.378 262.547 12.358 264.421 11.338 266.589 10.828 269.05 10.828 271.509 10.828 273.677 11.338 275.552 12.358 277.427 13.378 278.897 14.788 279.962 16.588 281.026 18.388 281.56 20.473 281.56 22.843 281.56 25.213 281.026 27.298 279.962 29.098 278.897 30.898 277.427 32.316 275.552 33.351 273.677 34.385 271.509 34.903 269.05 34.903L269.05 34.903zM300.774 34.318L300.369 31.303C299.619 32.413 298.637 33.29 297.422 33.936 296.207 34.58 294.894 34.903 293.484 34.903 290.814 34.903 288.774 34.115 287.364 32.54 285.954 30.965 285.249 28.693 285.249 25.723L285.249 11.413 293.079 11.413 293.079 24.822C293.079 27.314 294.22 28.558 296.499 28.558 298.899 28.558 300.099 27.058 300.099 24.058L300.099 11.413 307.929 11.413 307.929 34.318 300.774 34.318M321.249 25.453L321.249 34.318 313.419 34.318 313.419 11.413 320.573 11.413 321.069 15.237C321.548 14.008 322.336 13.01 323.431 12.245 324.526 11.481 325.794 11.098 327.233 11.098 328.044 11.098 328.658 11.203 329.079 11.413L329.079 18.568C328.748 18.448 328.382 18.359 327.976 18.298 327.571 18.238 327.113 18.208 326.604 18.208 325.044 18.208 323.761 18.786 322.757 19.941 321.751 21.096 321.249 22.933 321.249 25.453M340.689 21.673L340.689 34.318 332.858 34.318 332.858 11.413 340.013 11.413 340.419 14.428C341.168 13.348 342.144 12.478 343.343 11.818 344.543 11.158 345.863 10.828 347.304 10.828 349.793 10.828 351.788 11.638 353.288 13.258 354.788 14.878 355.538 17.203 355.538 20.233L355.538 34.318 347.708 34.318 347.708 21.133C347.708 19.783 347.408 18.786 346.809 18.14 346.208 17.495 345.368 17.173 344.288 17.173 343.208 17.173 342.338 17.518 341.679 18.208 341.019 18.899 340.689 20.053 340.689 21.673M366.788 26.893C366.788 27.583 367.042 28.146 367.553 28.58 368.063 29.016 368.723 29.233 369.532 29.233 370.612 29.233 371.521 28.865 372.255 28.13 372.99 27.396 373.358 26.473 373.358 25.362L373.358 24.598C372.548 24.448 371.692 24.373 370.793 24.373 369.652 24.373 368.7 24.569 367.936 24.958 367.171 25.348 366.788 25.993 366.788 26.893zM373.673 34.318L373.268 31.303C371.768 33.703 369.487 34.903 366.428 34.903 365.077 34.903 363.855 34.611 362.761 34.026 361.665 33.441 360.795 32.638 360.15 31.618 359.505 30.599 359.183 29.413 359.183 28.063 359.183 25.514 360.18 23.533 362.175 22.123 364.17 20.713 366.803 20.008 370.073 20.008 371.093 20.008 372.173 20.098 373.314 20.278 373.192 19.138 372.705 18.276 371.851 17.691 370.995 17.106 369.952 16.813 368.723 16.813 367.643 16.813 366.556 17.015 365.46 17.42 364.364 17.825 363.323 18.313 362.333 18.883L359.678 13.843C361.178 12.883 362.798 12.141 364.538 11.615 366.277 11.091 368.018 10.828 369.758 10.828 371.857 10.828 373.747 11.188 375.428 11.908 377.107 12.628 378.427 13.723 379.388 15.193 380.348 16.663 380.827 18.523 380.827 20.773L380.827 34.318 373.673 34.318 373.673 34.318z"/>
    <polygon fill="#FFFFFF" points="385.823 34.318 393.653 34.318 393.653 1.468 385.823 1.468"/>
    <path fill="#009BFF" class="no-color-change" d="M248.44,9.612 C247.149,9.612 246.047,9.155 245.132,8.24 C244.217,7.325 243.76,6.223 243.76,4.933 C243.76,3.643 244.217,2.541 245.132,1.625 C246.047,0.711 247.149,0.253 248.44,0.253 C249.73,0.253 250.831,0.711 251.747,1.625 C252.661,2.541 253.12,3.643 253.12,4.933 C253.12,6.223 252.661,7.325 251.747,8.24 C250.831,9.155 249.73,9.612 248.44,9.612"/>
  </g>
</svg>
