<svg xmlns="http://www.w3.org/2000/svg" xmlns:xlink="http://www.w3.org/1999/xlink" width="720" height="115" viewBox="0 0 720 115">
  <defs>
    <style>
      .cls-1 {
        filter: url(#filter);
      }

      .cls-2, .cls-3 {
        fill: #fff;
      }

      .cls-2, .cls-3, .cls-4 {
        fill-rule: evenodd;
      }

      .cls-2 {
        filter: url(#filter-2);
      }

      .cls-4 {
        fill: #195991;
      }
    </style>
    <filter id="filter" filterUnits="userSpaceOnUse">
      <feFlood result="flood"/>
      <feComposite result="composite" operator="in" in2="SourceGraphic"/>
      <feBlend result="blend" in2="SourceGraphic"/>
    </filter>
    <filter id="filter-2" x="240" y="98.969" width="367.969" height="16" filterUnits="userSpaceOnUse">
      <feFlood result="flood" flood-color="#333"/>
      <feComposite result="composite" operator="in" in2="SourceGraphic"/>
      <feBlend result="blend" in2="SourceGraphic"/>
    </filter>
  </defs>
  <g id="SalemNew" class="cls-1">
    <path id="USAT_Network" data-name="USAT Network" class="cls-2" d="M239.989,99.273h4.489c3.156,0,5.267,1.865,5.267,4.741s-2.155,4.735-5.267,4.735h-2.29v5.925h-2.2v-15.4Zm4.267,7.659c2.112,0,3.244-1.163,3.244-2.918,0-1.736-1.132-2.919-3.244-2.919h-2.068v5.837h2.068Zm11.768-7.659h1.955l6.4,15.4h-2.358l-1.6-4.035h-6.912l-1.6,4.035H249.6S255.244,101.162,256.024,99.273Zm3.665,9.544-1.488-3.794c-0.222-.572-1.179-2.942-1.2-3.139h-0.043c-0.022.2-.955,2.5-1.2,3.139l-1.51,3.794h5.443Zm6.924-9.544h4.51c2.91,0,5.178,1.5,5.178,4.563a4.293,4.293,0,0,1-3.955,4.346l4.778,6.492h-2.579l-4.51-6.276h-1.223v6.276h-2.2v-15.4Zm4.267,7.351c2.043,0,3.2-1.077,3.2-2.764s-1.157-2.765-3.2-2.765h-2.068v5.529h2.068Zm11.522-5.486h-4.445V99.273h11.089v1.865H284.6v13.536h-2.2V101.138Zm12.347,5.838a8.2,8.2,0,1,1,8.2,8A7.862,7.862,0,0,1,294.749,106.976Zm14.133,0a5.946,5.946,0,1,0-5.955,6.053A5.772,5.772,0,0,0,308.882,106.976Zm5.433-7.7h7.867v1.865h-5.668V106.1H322v1.865h-5.49v6.713h-2.2v-15.4Zm17.815,1.865h-4.444V99.273h11.088v1.865H334.33v13.536h-2.2V101.138Zm8.953-1.865h2.2v6.318h8.178V99.273h2.2v15.4h-2.2v-7.218h-8.178v7.218h-2.2v-15.4Zm16.631,0h8.49v1.846h-6.29v4.472h6.11v1.846h-6.11v5.395h6.422v1.842h-8.622v-15.4Zm16,10.092V99.273h2.221v9.433c0,2.679,1.157,4.323,3.756,4.323,2.622,0,3.78-1.644,3.78-4.323V99.273h2.221v10.092c0,3.38-2.2,5.616-6,5.616C375.865,114.981,373.71,112.745,373.71,109.365Zm14.274,2.524,1.491-1.25a4.52,4.52,0,0,0,3.911,2.433c1.709,0,3.044-.918,3.044-2.611,0-1.817-1.534-2.433-3.446-3.178-1.956-.769-3.933-1.736-3.933-4.193,0-2.432,1.912-4.12,4.712-4.12a5.247,5.247,0,0,1,4.579,2.322l-1.491,1.25a3.552,3.552,0,0,0-3.088-1.668c-1.512,0-2.511.769-2.511,2.063,0,1.6,1.554,2.13,2.911,2.654,2.2,0.856,4.466,1.889,4.466,4.716,0,2.679-2,4.674-5.2,4.674A6.064,6.064,0,0,1,387.984,111.889Zm18.241-12.616h1.956l6.4,15.4h-2.357l-1.6-4.035h-6.912l-1.6,4.035H399.8S405.446,101.162,406.225,99.273Zm3.665,9.544-1.487-3.794c-0.222-.572-1.179-2.942-1.2-3.139h-0.044c-0.022.2-.955,2.5-1.2,3.139l-1.51,3.794h5.443Zm13.978-7.679h-4.445V99.273h11.088v1.865h-4.444v13.536h-2.2V101.138Zm7.469,5.838a8.2,8.2,0,1,1,8.2,8A7.861,7.861,0,0,1,431.337,106.976Zm14.132,0a5.945,5.945,0,1,0-5.954,6.053A5.772,5.772,0,0,0,445.469,106.976Zm5.434-7.7h4.423c4.977,0,8.265,2.808,8.265,7.7,0,4.87-3.312,7.7-8.265,7.7H450.9v-15.4Zm2.2,13.534h2.046c3.643,0,6.176-1.9,6.176-5.831s-2.533-5.838-6.176-5.838H453.1v11.669Zm17.637-13.534H472.7l6.4,15.4h-2.357l-1.6-4.035h-6.912l-1.6,4.035h-2.311S469.96,101.162,470.739,99.273Zm3.666,9.544-1.489-3.794c-0.221-.572-1.178-2.942-1.2-3.139h-0.044c-0.022.2-.955,2.5-1.2,3.139l-1.509,3.794h5.443Zm9.084-.419-5.312-9.125h2.467l2.889,5.135a22.887,22.887,0,0,1,1.11,2.192h0.022a23.153,23.153,0,0,1,1.113-2.192l2.91-5.135h2.4l-5.309,9.125v6.276h-2.289V108.4Zm14.062-9.125h1.687l8.846,9.982c0.266,0.288,1.422,1.711,1.534,1.932l0.044-.023c-0.044-.217-0.044-2-0.044-2.39v-9.5h2.134v15.4h-1.713l-8.845-9.983c-0.265-.283-1.422-1.711-1.532-1.928l-0.021.02c0.021,0.221.043,2,.043,2.394v9.5h-2.133v-15.4Zm18.253,0h8.487v1.846H518v4.472h6.113v1.846H518v5.395h6.422v1.842H515.8v-15.4Zm15.37,1.865h-4.445V99.273h11.089v1.865h-4.445v13.536h-2.2V101.138Zm8.477-1.865h2.334l3.2,9.15c0.112,0.351.867,2.63,0.889,2.981h0.046a30.445,30.445,0,0,1,.933-2.981l3.334-9.15h1.756l3.332,9.15c0.133,0.351.91,2.63,0.935,2.981h0.044c0.044-.351.8-2.63,0.91-2.981l3.179-9.15h2.243l-5.49,15.4h-1.688l-3.6-9.607a25.578,25.578,0,0,1-.758-2.5h-0.044a25.693,25.693,0,0,1-.776,2.5l-3.578,9.607h-1.69Zm24.119,7.7a8.2,8.2,0,1,1,8.2,8A7.861,7.861,0,0,1,563.77,106.976Zm14.132,0a5.946,5.946,0,1,0-5.955,6.053A5.772,5.772,0,0,0,577.9,106.976Zm5.433-7.7h4.511c2.913,0,5.177,1.5,5.177,4.563a4.293,4.293,0,0,1-3.955,4.346l4.779,6.492h-2.579l-4.511-6.276h-1.222v6.276h-2.2v-15.4Zm4.267,7.351c2.044,0,3.2-1.077,3.2-2.764s-1.156-2.765-3.2-2.765h-2.067v5.529H587.6Zm8.736-7.351h2.2v7.154l6.444-7.154h2.666l-6.687,7.351,7,8.05h-2.754l-6.668-7.785v7.785h-2.2v-15.4Z"/>
    <path id="logo_new_Statesman" data-name="logo new Statesman" class="cls-3" d="M713.4,10.085c-5.2.863-10.391,1.381-15.585,1.9v2.588h3.635c2.079,0,2.857,2.33,2.857,15.875v36.5c0,1.295-.605,1.381-1.558,1.381h-3.117v2.589h20.346V68.326h-3.808c-2.425,0-2.77-1.985-2.77-11.993V10.085ZM679.463,49.431c-6.667,2.588-16.71,6.3-16.71,14.408,0,4.918,3.117,8.456,8.138,8.456,4.849,0,10.3-4.228,13.854-7.076,2.683,6.817,8.83,7.076,11.082,7.076L699.2,67.2c-5.023-.863-6.062-2.329-6.062-9.06V44.857c0-9.405-.865-12.079-10.476-12.079-7.706,0-19.308,4.314-19.308,11.13a2.9,2.9,0,0,0,3.032,2.76c3.809,0,5.887-3.882,5.887-8.628a10.907,10.907,0,0,1,5.888-1.726c5.714,0,5.887,3.278,5.887,8.714v2.5Zm4.589,12.6c-2.079,2.244-4.936,4.228-8.052,4.228-2.771,0-4.155-1.984-4.155-4.573,0-5.177,5.627-8.456,10.648-10.441l1.559-.6v11.39ZM632.71,32.778c-5.2.689-10.478,1.034-15.673,1.467v2.588h3.638c2.943,0,2.943,3.8,2.943,12.511v17.6c0,1.295-.606,1.381-1.559,1.381h-3.116v2.589H638.51V68.326h-3.03c-2.425,0-2.77-1.985-2.77-11.993V42.182c2.51-2.329,5.54-3.968,8.57-3.968,6.408,0,6.408,4.918,6.408,10.784V66.945c0,1.295-.606,1.381-1.559,1.381h-2.424v2.589H662.84V68.326h-3.29c-2.425,0-2.771-1.985-2.771-11.993V44.684c0-7.851-3.637-11.906-10.477-11.906-4.675,0-8.918,2.76-13.592,6.211V32.778Zm-32.122,0c-5.194.689-10.476,1.034-15.67,1.467v2.588h3.635c2.943,0,2.943,3.8,2.943,12.511v17.6c0,1.295-.605,1.381-1.557,1.381h-3.117v2.589h21.04V68.326h-4.5c-2.424,0-2.77-1.985-2.77-11.993V43.65c2.252-2.158,4.762-4.142,8.052-4.142,4.5,0,3.377,2.933,5.109,2.933,0.866,0,1.038-.6,1.3-2.242l1.038-5.609a6.128,6.128,0,0,0-4.243-1.811c-4.329,0-6.926,3.192-11.255,7.765V32.778Zm-37.4,4.055h3.29c2.943,0,2.943,3.8,2.943,12.511V63.064c-2.943,2.329-5.713,3.8-9.09,3.8-5.367,0-5.888-4.659-5.888-8.715V32.778c-5.194.689-10.476,1.034-15.325,1.467v2.588h3.29c2.943,0,2.943,3.8,2.943,12.511V57.2c0,5.35,0,15.1,11.43,15.1,4.676,0,9.177-3.192,13.247-6.386C571.41,69.275,576,72.3,580.069,72.3h0.778l3.378-5.091c-4.676-.863-5.715-2.329-5.715-9.06V32.778c-5.194.689-10.476,1.034-15.325,1.467v2.588Zm-50.564,12.6c0-5.695,1.126-13.8,8.572-13.8,9.265,0,11.255,13.287,11.255,20.1,0,5.695-1.124,13.719-8.57,13.719-9.265,0-11.257-13.2-11.257-20.017M523.53,32.778c-11.6,0-20.346,8.887-20.346,20.707,0,11.475,7.1,18.81,18.355,18.81,11.6,0,20.346-8.887,20.346-20.709,0-11.476-7.1-18.808-18.355-18.808M481.453,16.125v2.847h3.9c2.772,0,3.291.345,3.291,11.735v37.62c0,14.755-8.312,15.359-10.737,15.359-2.25,0-5.54-1.036-6.32-3.366-0.26-.777-0.606-1.466-1.471-1.466-1.126,0-1.126,1.034-1.126,1.64,0,0.516.693,4.141,0.953,5.693a28.853,28.853,0,0,0,8.139,1.036c11.255,0,20.605-5.866,20.605-17.774v-49.1c0-.863.174-1.381,1.3-1.381h3.9V16.125H481.453ZM436.172,32.778c-5.2.689-10.476,1.034-15.672,1.467v2.588h3.637c2.943,0,2.943,3.8,2.943,12.511v17.6c0,1.295-.606,1.381-1.559,1.381h-3.115v2.589h19.566V68.326h-3.03c-2.424,0-2.77-1.985-2.77-11.993V42.182c2.51-2.329,5.54-3.968,8.572-3.968,6.406,0,6.406,4.918,6.406,10.784V66.945c0,1.295-.606,1.381-1.559,1.381h-2.424v2.589H466.3V68.326h-3.29c-2.425,0-2.77-1.985-2.77-11.993V44.684c0-7.851-3.638-11.906-10.476-11.906-4.676,0-8.919,2.76-13.594,6.211V32.778ZM400.76,49.431c-6.665,2.588-16.71,6.3-16.71,14.408,0,4.918,3.117,8.456,8.138,8.456,4.849,0,10.3-4.228,13.854-7.076,2.685,6.817,8.832,7.076,11.082,7.076L420.5,67.2c-5.021-.863-6.06-2.329-6.06-9.06V44.857c0-9.405-.867-12.079-10.476-12.079-7.706,0-19.308,4.314-19.308,11.13a2.9,2.9,0,0,0,3.03,2.76c3.809,0,5.887-3.882,5.887-8.628a10.907,10.907,0,0,1,5.888-1.726c5.714,0,5.887,3.278,5.887,8.714v2.5Zm4.589,12.6c-2.077,2.244-4.934,4.228-8.052,4.228-2.77,0-4.156-1.984-4.156-4.573,0-5.177,5.628-8.456,10.649-10.441l1.559-.6v11.39ZM334.18,70.915V68.326h-2.511c-2.424,0-2.771-1.985-2.771-11.993V42.182c2.425-1.983,4.677-3.968,7.793-3.968,6.407,0,6.407,4.918,6.407,10.784V66.945c0,1.295-.606,1.381-1.558,1.381h-2.6v2.589h18.528V68.326H354.96c-2.425,0-2.771-1.985-2.771-11.993V42.182c2.424-1.983,4.676-3.968,7.792-3.968,6.408,0,6.408,4.918,6.408,10.784V66.945c0,1.295-.606,1.381-1.559,1.381h-2.6v2.589h19.308V68.326h-3.29c-2.424,0-2.772-1.985-2.772-11.993V44.684c0-7.851-3.635-11.906-10.476-11.906-4.935,0-9,2.76-13.42,6.558-1.039-4.487-4.675-6.558-9.091-6.558-5.282,0-8.658,2.415-13.594,6.643V32.778c-5.194.689-10.476,1.034-15.67,1.467v2.588h3.636c2.944,0,2.944,3.8,2.944,12.511v17.6c0,1.295-.606,1.381-1.559,1.381h-3.117v2.589H334.18ZM312.1,34.763a24.628,24.628,0,0,0-10.3-1.984c-9.957,0-16.45,5.608-16.45,12.079,0,13.891,22.337,8.973,22.337,17.515,0,5.005-5.887,6.557-9.957,6.557-3.809,0-9.177-1.466-10.216-5.177-0.346-1.208-.607-1.811-1.559-1.811a1.276,1.276,0,0,0-1.3,1.467c0,0.518.346,2.244,1.212,7.161A33.561,33.561,0,0,0,296.777,72.3c8.053,0,18.7-3.451,18.7-13.2,0-13.806-22.339-9.4-22.339-17.516,0-3.969,4.676-5.436,7.879-5.436,3.29,0,7.879,1.122,9.352,4.487a1.466,1.466,0,0,0,1.3,1.208,1,1,0,0,0,1.039-1.035c0-.259-0.346-3.365-0.606-6.04M258.6,49c-0.173-4.141,1.473-13.372,7.013-13.372,4.243,0,6.754,5.866,8.053,9.232Zm23.723,14.755a16.806,16.806,0,0,1-10.735,3.969c-9.438,0-12.468-7.938-12.9-16.048l24.59-6.472c-3.2-6.9-7.707-12.424-15.932-12.424-11.6,0-18.095,9.663-18.095,20.448,0,10.7,5.974,19.069,17.489,19.069a24.954,24.954,0,0,0,16.884-6.558Zm-31.6,3.278a13.438,13.438,0,0,1-5.194,1.209c-4.936,0-5.368-3.365-5.368-8.283V36.746h6.839c1.3,0,1.732,0,1.905-2.588h-8.744V24.84h-1.732C228.033,33.9,226.388,35.108,226.388,35.8c0,0.862.779,0.948,1.645,0.948h3.03V62.373c0,6.816,2.165,9.923,9.352,9.923A23.266,23.266,0,0,0,251.843,69.1Zm-43.463-17.6c-6.667,2.588-16.71,6.3-16.71,14.408,0,4.918,3.116,8.456,8.138,8.456,4.849,0,10.3-4.228,13.853-7.076,2.684,6.817,8.832,7.076,11.082,7.076l3.377-5.091c-5.022-.863-6.06-2.329-6.06-9.06V44.857c0-9.405-.866-12.079-10.477-12.079-7.706,0-19.308,4.314-19.308,11.13a2.9,2.9,0,0,0,3.03,2.76c3.811,0,5.889-3.882,5.889-8.628a10.9,10.9,0,0,1,5.887-1.726c5.714,0,5.887,3.278,5.887,8.714v2.5Zm4.588,12.6c-2.078,2.244-4.935,4.228-8.052,4.228-2.77,0-4.155-1.984-4.155-4.573,0-5.177,5.627-8.456,10.649-10.441l1.558-.6v11.39Zm-23.549,5A13.439,13.439,0,0,1,183.1,68.24c-4.935,0-5.368-3.365-5.368-8.283V36.746h6.84c1.3,0,1.732,0,1.905-2.588H177.73V24.84H176C165.609,33.9,163.964,35.108,163.964,35.8c0,0.862.779,0.948,1.645,0.948h3.03V62.373c0,6.816,2.164,9.923,9.351,9.923A23.273,23.273,0,0,0,189.419,69.1Zm-31-8.887c0,7.335-6.84,10.872-13.507,10.872-4.415,0-11.775-2.07-13.42-6.815-0.26-.864-0.433-1.727-1.472-1.727a1.2,1.2,0,0,0-1.3,1.468c0,1.035.607,3.192,1.472,8.11a42.062,42.062,0,0,0,14.2,2.5c19.394,0,21.905-14.41,21.905-17.258,0-20.88-28.226-14.408-28.226-28.042,0-6.211,5.974-9.232,11.515-9.232,3.117,0,9.091,1.208,9.871,4.918,0.173,0.777.346,1.467,1.212,1.467a1.049,1.049,0,0,0,1.212-1.208c0-1.381-.347-4.832-0.433-7.076a29.909,29.909,0,0,0-10.65-1.638c-9.7,0-20.606,5.348-20.606,15.875,0,19.759,28.226,13.115,28.226,27.783"/>
    <path id="sj_icon" data-name="sj icon" class="cls-4" d="M83.079,0.747H0.019V62.576h0v22.3s-0.481,18.376,18.506,18.376H102.31V19.185S102.067,0.747,83.079.747ZM35.248,74.1c-4.129,0-10.32-.774-14.965-6.032a23.31,23.31,0,0,1-4.9-9.739l11.009-3.1c0.688,2.585,2.321,8.618,9.2,8.618,4.3,0,7.31-2.413,7.31-6.206,0-4.048-3.613-5.687-7.912-7.238C27.164,47.556,17.7,44.193,17.7,32.472c0-8.962,5.762-17.58,18.32-17.58,14.277,0,17.286,9.565,18.491,13.358L44.021,32.3c-0.689-2.071-2.322-7.155-8.084-7.155-4.215,0-6.021,2.93-6.021,5.258,0,3.965,3.785,5.344,9.889,7.67,6.451,2.5,15.826,6.033,15.826,17.669C55.632,65.568,48.751,74.1,35.248,74.1Zm44.331-7.686s-0.753,10.514-7.291,17.194a35.17,35.17,0,0,1-19.609,9.712L52.571,79.344A27.019,27.019,0,0,0,61.6,74.02a13.437,13.437,0,0,0,4.01-9.971L65.7,15.391H79.579V66.413Z"/>
  </g>
</svg>
