<svg xmlns="http://www.w3.org/2000/svg" width="394" height="48" viewBox="0 0 394 48">
  <g fill="none" fill-rule="evenodd">
    <path class="no-color-change" fill="#009BFF" d="M10.525 35.497C8.545 35.497 6.692 35.183 4.967 34.552 3.242 33.923 1.689 33.023.31 31.853L3.64 27.443C4.689 28.282 5.822 28.965 7.037 29.49 8.252 30.015 9.445 30.277 10.615 30.277 11.395 30.277 12.017 30.143 12.482 29.872 12.947 29.603 13.18 29.198 13.18 28.657 13.18 28.088 12.917 27.63 12.392 27.285 11.867 26.941 10.93 26.603 9.58 26.273L7.42 25.733C3.129 24.593.985 22.298.985 18.848.985 17.318 1.405 15.998 2.245 14.888 3.084 13.778 4.24 12.923 5.71 12.322 7.179 11.723 8.889 11.423 10.84 11.423 12.759 11.423 14.567 11.723 16.262 12.322 17.957 12.923 19.509 13.793 20.92 14.933L17.5 19.433C16.449 18.593 15.34 17.918 14.17 17.407 13 16.898 11.904 16.643 10.885 16.643 9.234 16.643 8.41 17.183 8.41 18.263 8.41 18.743 8.657 19.133 9.152 19.433 9.647 19.733 10.345 20.003 11.245 20.242L14.17 21.052C16.359 21.653 17.979 22.553 19.03 23.753 20.079 24.953 20.605 26.378 20.605 28.027 20.605 29.528 20.184 30.84 19.345 31.965 18.504 33.09 17.327 33.96 15.812 34.575 14.297 35.19 12.534 35.497 10.525 35.497M41.755 33.427C40.824 34.058 39.759 34.56 38.56 34.935 37.359 35.31 36.099 35.497 34.78 35.497 32.319 35.497 30.362 34.785 28.907 33.36 27.452 31.936 26.725 30.023 26.725 27.622L26.725 17.858 22.99 17.858 22.99 12.007 27.085 12.007 28.075 5.617 34.555 5.617 34.555 12.007 40.54 12.007 40.54 17.858 34.555 17.858 34.555 26.632C34.555 27.413 34.787 28.021 35.252 28.455 35.717 28.89 36.339 29.108 37.12 29.108 37.509 29.108 37.907 29.033 38.312 28.882 38.717 28.733 39.1 28.553 39.46 28.342L41.755 33.427M51.654 27.487C51.654 28.178 51.909 28.74 52.419 29.175 52.929 29.611 53.589 29.827 54.399 29.827 55.479 29.827 56.386 29.46 57.122 28.725 57.856 27.99 58.224 27.068 58.224 25.957L58.224 25.193C57.414 25.043 56.559 24.967 55.659 24.967 54.519 24.967 53.567 25.163 52.802 25.552 52.037 25.943 51.654 26.588 51.654 27.487zM58.539 34.912L58.134 31.898C56.634 34.298 54.354 35.497 51.294 35.497 49.944 35.497 48.721 35.205 47.627 34.62 46.531 34.035 45.661 33.233 45.017 32.213 44.371 31.193 44.049 30.007 44.049 28.657 44.049 26.108 45.046 24.128 47.042 22.717 49.036 21.308 51.669 20.603 54.939 20.603 55.959 20.603 57.039 20.693 58.179 20.872 58.059 19.733 57.572 18.87 56.717 18.285 55.862 17.7 54.819 17.407 53.589 17.407 52.509 17.407 51.421 17.61 50.327 18.015 49.231 18.42 48.189 18.908 47.199 19.478L44.544 14.438C46.044 13.478 47.664 12.735 49.404 12.21 51.144 11.686 52.884 11.423 54.624 11.423 56.724 11.423 58.614 11.782 60.294 12.503 61.974 13.223 63.294 14.318 64.254 15.787 65.214 17.258 65.694 19.117 65.694 21.367L65.694 34.912 58.539 34.912zM87.564 33.427C86.634 34.058 85.569 34.56 84.369 34.935 83.169 35.31 81.909 35.497 80.589 35.497 78.129 35.497 76.171 34.785 74.717 33.36 73.261 31.936 72.534 30.023 72.534 27.622L72.534 17.858 68.799 17.858 68.799 12.007 72.894 12.007 73.884 5.617 80.364 5.617 80.364 12.007 86.349 12.007 86.349 17.858 80.364 17.858 80.364 26.632C80.364 27.413 80.596 28.021 81.062 28.455 81.526 28.89 82.149 29.108 82.929 29.108 83.319 29.108 83.717 29.033 84.122 28.882 84.527 28.733 84.909 28.553 85.269 28.342L87.564 33.427M101.469 17.092C98.918 17.092 97.388 18.443 96.879 21.143L105.609 21.143C105.398 19.673 104.896 18.63 104.101 18.015 103.306 17.401 102.428 17.092 101.469 17.092zM112.179 32.572C111.038 33.382 109.591 34.073 107.836 34.643 106.081 35.212 104.214 35.497 102.234 35.497 99.503 35.497 97.171 34.995 95.236 33.99 93.301 32.986 91.816 31.582 90.781 29.782 89.746 27.983 89.229 25.912 89.229 23.572 89.229 21.203 89.739 19.103 90.759 17.273 91.778 15.443 93.189 14.01 94.989 12.975 96.789 11.94 98.888 11.423 101.289 11.423 103.629 11.423 105.691 11.925 107.476 12.93 109.261 13.936 110.656 15.33 111.661 17.115 112.666 18.901 113.169 20.993 113.169 23.393 113.169 23.723 113.146 24.068 113.101 24.427 113.056 24.787 113.003 25.163 112.944 25.552L96.969 25.552C97.689 28.193 99.653 29.513 102.864 29.513 104.304 29.513 105.578 29.287 106.689 28.838 107.798 28.388 108.729 27.938 109.479 27.487L112.179 32.572zM125.678 35.497C123.699 35.497 121.846 35.183 120.121 34.552 118.396 33.923 116.843 33.023 115.463 31.853L118.793 27.443C119.843 28.282 120.976 28.965 122.191 29.49 123.406 30.015 124.598 30.277 125.769 30.277 126.548 30.277 127.17 30.143 127.636 29.872 128.101 29.603 128.334 29.198 128.334 28.657 128.334 28.088 128.071 27.63 127.546 27.285 127.021 26.941 126.084 26.603 124.733 26.273L122.574 25.733C118.283 24.593 116.138 22.298 116.138 18.848 116.138 17.318 116.558 15.998 117.398 14.888 118.238 13.778 119.393 12.923 120.864 12.322 122.333 11.723 124.043 11.423 125.993 11.423 127.913 11.423 129.721 11.723 131.416 12.322 133.111 12.923 134.663 13.793 136.074 14.933L132.654 19.433C131.603 18.593 130.493 17.918 129.324 17.407 128.154 16.898 127.058 16.643 126.039 16.643 124.388 16.643 123.564 17.183 123.564 18.263 123.564 18.743 123.811 19.133 124.306 19.433 124.801 19.733 125.499 20.003 126.398 20.242L129.324 21.052C131.513 21.653 133.133 22.553 134.183 23.753 135.233 24.953 135.759 26.378 135.759 28.027 135.759 29.528 135.338 30.84 134.499 31.965 133.658 33.09 132.48 33.96 130.966 34.575 129.451 35.19 127.688 35.497 125.678 35.497M147.863 21.728L147.863 34.912 140.033 34.912 140.033 12.007 147.233 12.007 147.638 14.933C148.328 13.823 149.228 12.983 150.338 12.412 151.448 11.843 152.633 11.558 153.893 11.558 155.243 11.558 156.473 11.858 157.583 12.457 158.693 13.058 159.593 13.898 160.283 14.978 161.093 13.868 162.151 13.02 163.456 12.435 164.761 11.85 166.133 11.558 167.573 11.558 169.163 11.558 170.566 11.925 171.781 12.66 172.996 13.396 173.948 14.415 174.638 15.72 175.328 17.025 175.673 18.532 175.673 20.242L175.673 34.912 167.843 34.912 167.843 21.052C167.843 20.093 167.58 19.328 167.056 18.757 166.53 18.188 165.863 17.902 165.053 17.902 164.063 17.902 163.268 18.217 162.668 18.848 162.068 19.478 161.768 20.438 161.768 21.728L161.768 34.912 153.938 34.912 153.938 21.052C153.938 20.093 153.683 19.328 153.173 18.757 152.663 18.188 151.973 17.902 151.103 17.902 150.143 17.902 149.363 18.217 148.763 18.848 148.163 19.478 147.863 20.438 147.863 21.728M186.923 27.487C186.923 28.178 187.178 28.74 187.688 29.175 188.198 29.611 188.858 29.827 189.668 29.827 190.748 29.827 191.655 29.46 192.391 28.725 193.126 27.99 193.493 27.068 193.493 25.957L193.493 25.193C192.683 25.043 191.828 24.967 190.928 24.967 189.788 24.967 188.835 25.163 188.071 25.552 187.306 25.943 186.923 26.588 186.923 27.487zM193.808 34.912L193.403 31.898C191.903 34.298 189.623 35.497 186.563 35.497 185.213 35.497 183.99 35.205 182.896 34.62 181.8 34.035 180.93 33.233 180.286 32.213 179.64 31.193 179.318 30.007 179.318 28.657 179.318 26.108 180.315 24.128 182.311 22.717 184.305 21.308 186.938 20.603 190.208 20.603 191.228 20.603 192.308 20.693 193.448 20.872 193.328 19.733 192.84 18.87 191.985 18.285 191.13 17.7 190.088 17.407 188.858 17.407 187.778 17.407 186.69 17.61 185.596 18.015 184.5 18.42 183.458 18.908 182.468 19.478L179.813 14.438C181.313 13.478 182.933 12.735 184.673 12.21 186.413 11.686 188.153 11.423 189.893 11.423 191.993 11.423 193.883 11.782 195.563 12.503 197.243 13.223 198.563 14.318 199.523 15.787 200.483 17.258 200.963 19.117 200.963 21.367L200.963 34.912 193.808 34.912zM213.788 22.268L213.788 34.912 205.958 34.912 205.958 12.007 213.113 12.007 213.518 15.023C214.268 13.943 215.243 13.072 216.443 12.412 217.643 11.753 218.963 11.423 220.403 11.423 222.893 11.423 224.888 12.233 226.388 13.853 227.888 15.473 228.638 17.798 228.638 20.827L228.638 34.912 220.808 34.912 220.808 21.728C220.808 20.378 220.508 19.381 219.908 18.735 219.308 18.09 218.468 17.768 217.388 17.768 216.308 17.768 215.438 18.112 214.778 18.802 214.118 19.493 213.788 20.648 213.788 22.268"/>
    <path fill="#FFFFFF" d="M241.642 43.237L240.157 36.848C241.478 36.727 242.542 36.292 243.352 35.542 244.162 34.793 244.567 33.742 244.567 32.393L244.567 12.007C245.827 12.277 247.102 12.412 248.392 12.412 249.712 12.412 251.047 12.277 252.397 12.007L252.397 31.987C252.397 35.318 251.535 37.943 249.81 39.862 248.085 41.782 245.362 42.907 241.642 43.237M269.002 29.287C270.381 29.287 271.484 28.755 272.31 27.69 273.134 26.625 273.547 25.208 273.547 23.438 273.547 21.668 273.134 20.258 272.31 19.207 271.484 18.157 270.381 17.632 269.002 17.632 267.622 17.632 266.519 18.157 265.694 19.207 264.869 20.258 264.457 21.668 264.457 23.438 264.457 25.208 264.869 26.625 265.694 27.69 266.519 28.755 267.622 29.287 269.002 29.287zM269.002 35.497C266.542 35.497 264.374 34.98 262.5 33.945 260.624 32.91 259.154 31.492 258.089 29.693 257.024 27.893 256.492 25.808 256.492 23.438 256.492 21.068 257.024 18.983 258.089 17.183 259.154 15.382 260.624 13.973 262.5 12.952 264.374 11.933 266.542 11.423 269.002 11.423 271.461 11.423 273.629 11.933 275.504 12.952 277.379 13.973 278.849 15.382 279.915 17.183 280.979 18.983 281.512 21.068 281.512 23.438 281.512 25.808 280.979 27.893 279.915 29.693 278.849 31.492 277.379 32.91 275.504 33.945 273.629 34.98 271.461 35.497 269.002 35.497zM300.727 34.912L300.322 31.898C299.572 33.008 298.589 33.885 297.375 34.53 296.16 35.175 294.847 35.497 293.437 35.497 290.767 35.497 288.727 34.71 287.317 33.135 285.906 31.56 285.202 29.287 285.202 26.318L285.202 12.007 293.032 12.007 293.032 25.417C293.032 27.908 294.172 29.152 296.452 29.152 298.852 29.152 300.052 27.652 300.052 24.652L300.052 12.007 307.882 12.007 307.882 34.912 300.727 34.912M321.201 26.048L321.201 34.912 313.372 34.912 313.372 12.007 320.526 12.007 321.022 15.832C321.501 14.603 322.289 13.605 323.384 12.84 324.479 12.075 325.747 11.693 327.187 11.693 327.997 11.693 328.611 11.798 329.031 12.007L329.031 19.162C328.701 19.043 328.334 18.953 327.929 18.893 327.524 18.833 327.066 18.802 326.556 18.802 324.996 18.802 323.713 19.381 322.709 20.535 321.704 21.691 321.201 23.527 321.201 26.048M340.641 22.268L340.641 34.912 332.811 34.912 332.811 12.007 339.966 12.007 340.371 15.023C341.121 13.943 342.096 13.072 343.296 12.412 344.496 11.753 345.816 11.423 347.256 11.423 349.746 11.423 351.741 12.233 353.241 13.853 354.741 15.473 355.491 17.798 355.491 20.827L355.491 34.912 347.661 34.912 347.661 21.728C347.661 20.378 347.361 19.381 346.761 18.735 346.161 18.09 345.321 17.768 344.241 17.768 343.161 17.768 342.291 18.112 341.631 18.802 340.971 19.493 340.641 20.648 340.641 22.268M366.74 27.487C366.74 28.178 366.995 28.74 367.505 29.175 368.015 29.611 368.675 29.827 369.485 29.827 370.565 29.827 371.473 29.46 372.208 28.725 372.943 27.99 373.311 27.068 373.311 25.957L373.311 25.193C372.501 25.043 371.646 24.967 370.746 24.967 369.605 24.967 368.653 25.163 367.888 25.552 367.123 25.943 366.74 26.588 366.74 27.487zM373.626 34.912L373.22 31.898C371.72 34.298 369.44 35.497 366.38 35.497 365.03 35.497 363.808 35.205 362.713 34.62 361.618 34.035 360.748 33.233 360.103 32.213 359.458 31.193 359.135 30.007 359.135 28.657 359.135 26.108 360.132 24.128 362.128 22.717 364.123 21.308 366.755 20.603 370.025 20.603 371.045 20.603 372.125 20.693 373.266 20.872 373.145 19.733 372.658 18.87 371.803 18.285 370.948 17.7 369.905 17.407 368.675 17.407 367.595 17.407 366.508 17.61 365.413 18.015 364.317 18.42 363.275 18.908 362.286 19.478L359.63 14.438C361.13 13.478 362.75 12.735 364.49 12.21 366.23 11.686 367.97 11.423 369.71 11.423 371.81 11.423 373.7 11.782 375.38 12.503 377.06 13.223 378.38 14.318 379.34 15.787 380.3 17.258 380.78 19.117 380.78 21.367L380.78 34.912 373.626 34.912z"/>
    <polygon fill="#FFFFFF" points="385.775 34.913 393.605 34.913 393.605 2.063 385.775 2.063"/>
    <path class="no-color-change" fill="#009BFF" d="M248.392,10.207 C247.102,10.207 246,9.75 245.085,8.835 C244.169,7.92 243.712,6.818 243.712,5.527 C243.712,4.238 244.169,3.135 245.085,2.22 C246,1.305 247.102,0.848 248.392,0.848 C249.682,0.848 250.784,1.305 251.7,2.22 C252.614,3.135 253.072,4.238 253.072,5.527 C253.072,6.818 252.614,7.92 251.7,8.835 C250.784,9.75 249.682,10.207 248.392,10.207"/>
    <path fill="#FFFFFF" d="M3.156 44.5L4.328 44.5C4.712 44.5 5.017 44.405 5.241 44.216 5.465 44.027 5.577 43.768 5.577 43.441 5.577 43.113 5.465 42.855 5.241 42.666 5.017 42.476 4.712 42.382 4.328 42.382L3.156 42.382 3.156 44.5zM2.286 47.506L2.286 41.649 4.328 41.649C4.982 41.649 5.502 41.81 5.886 42.131 6.271 42.453 6.463 42.89 6.463 43.441 6.463 43.986 6.271 44.418 5.886 44.737 5.502 45.056 4.982 45.215 4.328 45.215L3.156 45.215 3.156 47.506 2.286 47.506zM8.221 45.301L10.357 45.301 9.289 42.554 8.221 45.301zM11.21 47.506L10.641 46.033 7.936 46.033 7.368 47.506 6.49 47.506 8.832 41.649 9.771 41.649 12.105 47.506 11.21 47.506zM13.949 44.414L15.146 44.414C15.519 44.414 15.816 44.322 16.038 44.139 16.258 43.955 16.369 43.708 16.369 43.397 16.369 43.088 16.258 42.841 16.038 42.657 15.816 42.473 15.519 42.382 15.146 42.382L13.949 42.382 13.949 44.414zM13.949 45.129L13.949 47.506 13.079 47.506 13.079 41.649 15.146 41.649C15.795 41.649 16.309 41.806 16.688 42.118 17.067 42.432 17.256 42.858 17.256 43.397 17.256 43.806 17.141 44.15 16.912 44.431 16.682 44.713 16.366 44.911 15.964 45.025L17.385 47.506 16.395 47.506 15.06 45.129 13.949 45.129z"/>
    <polyline fill="#FFFFFF" points="19.754 47.506 19.754 42.382 17.782 42.382 17.782 41.649 22.596 41.649 22.596 42.382 20.624 42.382 20.624 47.506 19.754 47.506"/>
    <path fill="#FFFFFF" d="M28.186,46.843 C28.565,46.843 28.903,46.747 29.199,46.555 C29.494,46.362 29.725,46.097 29.892,45.758 C30.058,45.419 30.142,45.025 30.142,44.577 C30.142,44.13 30.058,43.736 29.892,43.397 C29.725,43.059 29.494,42.793 29.199,42.601 C28.903,42.409 28.565,42.312 28.186,42.312 C27.808,42.312 27.472,42.409 27.179,42.601 C26.886,42.793 26.656,43.059 26.489,43.397 C26.323,43.736 26.24,44.13 26.24,44.577 C26.24,45.025 26.323,45.419 26.489,45.758 C26.656,46.097 26.886,46.362 27.179,46.555 C27.472,46.747 27.808,46.843 28.186,46.843 Z M28.186,47.601 C27.635,47.601 27.147,47.472 26.722,47.213 C26.297,46.955 25.963,46.599 25.719,46.145 C25.475,45.692 25.352,45.169 25.352,44.577 C25.352,43.986 25.475,43.464 25.719,43.01 C25.963,42.556 26.297,42.2 26.722,41.942 C27.147,41.683 27.635,41.554 28.186,41.554 C28.738,41.554 29.227,41.683 29.655,41.942 C30.083,42.2 30.418,42.556 30.663,43.01 C30.907,43.464 31.029,43.986 31.029,44.577 C31.029,45.169 30.907,45.692 30.663,46.145 C30.418,46.599 30.083,46.955 29.655,47.213 C29.227,47.472 28.738,47.601 28.186,47.601 Z"/>
    <polyline fill="#FFFFFF" points="33.122 47.506 32.252 47.506 32.252 41.649 35.896 41.649 35.896 42.382 33.122 42.382 33.122 44.363 35.473 44.363 35.473 45.094 33.122 45.094 33.122 47.506"/>
    <polyline fill="#FFFFFF" points="40.434 47.506 40.434 42.382 38.462 42.382 38.462 41.649 43.277 41.649 43.277 42.382 41.305 42.382 41.305 47.506 40.434 47.506"/>
    <polyline fill="#FFFFFF" points="44.276 47.506 44.276 41.649 45.146 41.649 45.146 44.156 48.169 44.156 48.169 41.649 49.039 41.649 49.039 47.506 48.169 47.506 48.169 44.905 45.146 44.905 45.146 47.506 44.276 47.506"/>
    <polyline fill="#FFFFFF" points="50.572 47.506 50.572 41.649 54.328 41.649 54.328 42.382 51.442 42.382 51.442 44.19 53.983 44.19 53.983 44.922 51.442 44.922 51.442 46.774 54.396 46.774 54.396 47.506 50.572 47.506"/>
    <path fill="#FFFFFF" d="M59.892 46.843C60.368 46.843 60.743 46.7 61.016 46.412 61.288 46.125 61.425 45.738 61.425 45.249L61.425 41.649 62.295 41.649 62.295 45.258C62.295 45.988 62.081 46.56 61.654 46.976 61.226 47.393 60.638 47.601 59.892 47.601 59.145 47.601 58.56 47.393 58.135 46.976 57.71 46.56 57.497 45.988 57.497 45.258L57.497 41.649 58.367 41.649 58.367 45.249C58.367 45.738 58.504 46.125 58.777 46.412 59.049 46.7 59.421 46.843 59.892 46.843M65.542 47.601C65.1 47.601 64.678 47.523 64.276 47.369 63.874 47.213 63.549 47.007 63.303 46.748L63.794 46.171C64.023 46.384 64.295 46.55 64.608 46.671 64.921 46.791 65.232 46.851 65.542 46.851 65.921 46.851 66.227 46.779 66.459 46.632 66.692 46.485 66.808 46.283 66.808 46.025 66.808 45.789 66.725 45.591 66.558 45.43 66.392 45.27 66.108 45.135 65.706 45.025L64.896 44.81C64.373 44.673 63.993 44.477 63.755 44.224 63.517 43.972 63.398 43.642 63.398 43.234 63.398 42.901 63.487 42.608 63.664 42.355 63.842 42.103 64.088 41.906 64.401 41.765 64.714 41.625 65.068 41.554 65.465 41.554 65.884 41.554 66.277 41.633 66.645 41.791 67.012 41.949 67.337 42.169 67.618 42.45L67.093 43.019C66.846 42.789 66.588 42.612 66.322 42.489 66.055 42.365 65.772 42.304 65.473 42.304 65.112 42.304 64.816 42.38 64.586 42.532 64.356 42.684 64.242 42.895 64.242 43.165 64.242 43.412 64.323 43.604 64.487 43.742 64.65 43.88 64.902 43.995 65.241 44.087L66.145 44.336C66.668 44.48 67.049 44.681 67.29 44.94 67.532 45.198 67.653 45.52 67.653 45.904 67.653 46.243 67.563 46.54 67.385 46.796 67.207 47.051 66.961 47.249 66.645 47.39 66.329 47.531 65.961 47.601 65.542 47.601M69.84 45.301L71.976 45.301 70.908 42.554 69.84 45.301zM72.829 47.506L72.261 46.033 69.556 46.033 68.987 47.506 68.109 47.506 70.452 41.649 71.391 41.649 73.725 47.506 72.829 47.506z"/>
    <polyline fill="#FFFFFF" points="77.773 47.506 77.773 42.382 75.8 42.382 75.8 41.649 80.615 41.649 80.615 42.382 78.643 42.382 78.643 47.506 77.773 47.506"/>
    <path fill="#FFFFFF" d="M83.751 46.843C84.13 46.843 84.467 46.747 84.763 46.555 85.059 46.362 85.29 46.097 85.456 45.758 85.623 45.419 85.706 45.025 85.706 44.577 85.706 44.13 85.623 43.736 85.456 43.397 85.29 43.059 85.059 42.793 84.763 42.601 84.467 42.409 84.13 42.312 83.751 42.312 83.372 42.312 83.036 42.409 82.743 42.601 82.45 42.793 82.22 43.059 82.054 43.397 81.887 43.736 81.804 44.13 81.804 44.577 81.804 45.025 81.887 45.419 82.054 45.758 82.22 46.097 82.45 46.362 82.743 46.555 83.036 46.747 83.372 46.843 83.751 46.843zM83.751 47.601C83.2 47.601 82.711 47.472 82.287 47.213 81.862 46.955 81.527 46.599 81.283 46.145 81.039 45.692 80.917 45.169 80.917 44.577 80.917 43.986 81.039 43.464 81.283 43.01 81.527 42.556 81.862 42.2 82.287 41.942 82.711 41.683 83.2 41.554 83.751 41.554 84.302 41.554 84.791 41.683 85.219 41.942 85.647 42.2 85.983 42.556 86.227 43.01 86.471 43.464 86.593 43.986 86.593 44.577 86.593 45.169 86.471 45.692 86.227 46.145 85.983 46.599 85.647 46.955 85.219 47.213 84.791 47.472 84.302 47.601 83.751 47.601zM88.686 46.774L89.875 46.774C90.288 46.774 90.643 46.684 90.939 46.503 91.234 46.322 91.461 46.068 91.619 45.741 91.777 45.413 91.856 45.025 91.856 44.577 91.856 44.13 91.777 43.742 91.619 43.415 91.461 43.088 91.234 42.833 90.939 42.653 90.643 42.472 90.288 42.382 89.875 42.382L88.686 42.382 88.686 46.774zM87.816 47.506L87.816 41.649 89.875 41.649C90.449 41.649 90.952 41.771 91.382 42.015 91.813 42.259 92.147 42.601 92.385 43.04 92.624 43.479 92.743 43.992 92.743 44.577 92.743 45.164 92.624 45.676 92.385 46.115 92.147 46.555 91.813 46.896 91.382 47.14 90.952 47.384 90.449 47.506 89.875 47.506L87.816 47.506zM94.965 45.301L97.101 45.301 96.033 42.554 94.965 45.301zM97.954 47.506L97.386 46.033 94.681 46.033 94.112 47.506 93.234 47.506 95.577 41.649 96.516 41.649 98.85 47.506 97.954 47.506z"/>
    <polyline fill="#FFFFFF" points="101.52 45.181 101.52 47.506 100.65 47.506 100.65 45.181 98.591 41.649 99.617 41.649 101.09 44.354 102.563 41.649 103.57 41.649 101.52 45.181"/>
    <polyline fill="#FFFFFF" points="110.53 47.506 107.403 43.019 107.403 47.506 106.585 47.506 106.585 41.649 107.395 41.649 110.53 46.137 110.53 41.649 111.339 41.649 111.339 47.506 110.53 47.506"/>
    <polyline fill="#FFFFFF" points="112.872 47.506 112.872 41.649 116.628 41.649 116.628 42.382 113.743 42.382 113.743 44.19 116.283 44.19 116.283 44.922 113.743 44.922 113.743 46.774 116.697 46.774 116.697 47.506 112.872 47.506"/>
    <polyline fill="#FFFFFF" points="119.281 47.506 119.281 42.382 117.308 42.382 117.308 41.649 122.123 41.649 122.123 42.382 120.151 42.382 120.151 47.506 119.281 47.506"/>
    <polyline fill="#FFFFFF" points="127.808 47.506 126.438 42.838 125.069 47.506 124.164 47.506 122.606 41.649 123.467 41.649 124.655 46.283 126.025 41.649 126.852 41.649 128.23 46.3 129.427 41.649 130.271 41.649 128.712 47.506 127.808 47.506"/>
    <path fill="#FFFFFF" d="M133.725 46.843C134.104 46.843 134.442 46.747 134.738 46.555 135.033 46.362 135.265 46.097 135.431 45.758 135.597 45.419 135.681 45.025 135.681 44.577 135.681 44.13 135.597 43.736 135.431 43.397 135.265 43.059 135.033 42.793 134.738 42.601 134.442 42.409 134.104 42.312 133.725 42.312 133.347 42.312 133.011 42.409 132.718 42.601 132.425 42.793 132.195 43.059 132.028 43.397 131.862 43.736 131.779 44.13 131.779 44.577 131.779 45.025 131.862 45.419 132.028 45.758 132.195 46.097 132.425 46.362 132.718 46.555 133.011 46.747 133.347 46.843 133.725 46.843zM133.725 47.601C133.174 47.601 132.686 47.472 132.261 47.213 131.836 46.955 131.502 46.599 131.258 46.145 131.014 45.692 130.892 45.169 130.892 44.577 130.892 43.986 131.014 43.464 131.258 43.01 131.502 42.556 131.836 42.2 132.261 41.942 132.686 41.683 133.174 41.554 133.725 41.554 134.277 41.554 134.766 41.683 135.194 41.942 135.622 42.2 135.958 42.556 136.202 43.01 136.446 43.464 136.568 43.986 136.568 44.577 136.568 45.169 136.446 45.692 136.202 46.145 135.958 46.599 135.622 46.955 135.194 47.213 134.766 47.472 134.277 47.601 133.725 47.601zM138.661 44.414L139.858 44.414C140.231 44.414 140.528 44.322 140.749 44.139 140.971 43.955 141.081 43.708 141.081 43.397 141.081 43.088 140.971 42.841 140.749 42.657 140.528 42.473 140.231 42.382 139.858 42.382L138.661 42.382 138.661 44.414zM138.661 45.129L138.661 47.506 137.791 47.506 137.791 41.649 139.858 41.649C140.507 41.649 141.021 41.806 141.4 42.118 141.779 42.432 141.968 42.858 141.968 43.397 141.968 43.806 141.854 44.15 141.624 44.431 141.394 44.713 141.078 44.911 140.676 45.025L142.098 47.506 141.107 47.506 139.772 45.129 138.661 45.129z"/>
    <polyline fill="#FFFFFF" points="146.697 47.506 144.07 44.552 144.07 47.506 143.2 47.506 143.2 41.649 144.07 41.649 144.07 44.216 146.525 41.649 147.602 41.649 144.992 44.336 147.791 47.506 146.697 47.506"/>
  </g>
</svg>
