<svg xmlns="http://www.w3.org/2000/svg" xmlns:xlink="http://www.w3.org/1999/xlink" width="720" height="156" viewBox="0 0 720 156">
  <defs>
    <style>
      .cls-1 {
        filter: url(#filter);
      }

      .cls-2, .cls-3 {
        fill: #fff;
        fill-rule: evenodd;
      }

      .cls-3 {
        filter: url(#filter-2);
      }
    </style>
    <filter id="filter" filterUnits="userSpaceOnUse">
      <feFlood result="flood" flood-color="#333"/>
      <feComposite result="composite" operator="in" in2="SourceGraphic"/>
      <feBlend result="blend" in2="SourceGraphic"/>
    </filter>
    <filter id="filter-2" x="352" y="139.969" width="367.969" height="16" filterUnits="userSpaceOnUse">
      <feFlood result="flood" flood-color="#999"/>
      <feComposite result="composite" operator="in" in2="SourceGraphic"/>
      <feBlend result="blend" in2="SourceGraphic"/>
    </filter>
  </defs>
  <g class="cls-1">
    <path id="Salinas_logo" data-name="Salinas logo" class="cls-2" d="M140.712,4.428l2.049-.288c0.521-.073.973-0.144,1.356-0.209q2.336-.46,2.515-0.5a1.4,1.4,0,0,1,.277-0.039,0.348,0.348,0,0,1,.237.293L142.259,21.57a48.114,48.114,0,0,1,4.007-5.449q2.724-2.966,5-2.965a3.088,3.088,0,0,1,1.8.611,2.5,2.5,0,0,1,.868,2.189,6.273,6.273,0,0,1-.1.98A8.39,8.39,0,0,1,153.6,18l-2.628,9.62c-0.078.267-.145,0.525-0.2,0.774a3.3,3.3,0,0,0-.078.672,0.734,0.734,0,0,0,.157.513,0.588,0.588,0,0,0,.455.171,2.259,2.259,0,0,0,1.446-.858q0.516-.54,1.922-2.356l0.512,0.478a20.4,20.4,0,0,1-2.359,3.036,5.016,5.016,0,0,1-3.469,1.7A1.781,1.781,0,0,1,147.5,29.8a3.655,3.655,0,0,1,.03-0.491,3.769,3.769,0,0,1,.108-0.51l2.993-11.769c0.026-.109.049-0.217,0.069-0.331a2.03,2.03,0,0,0,.03-0.353,1.036,1.036,0,0,0-.3-0.783,1.162,1.162,0,0,0-.805-0.281q-1.315,0-3.316,2.152a27.754,27.754,0,0,0-3.375,4.4,16.042,16.042,0,0,0-1.423,2.983q-0.481,1.4-1.855,6.449h-3.013l6.63-24.276a4.065,4.065,0,0,0,.078-0.442,2.968,2.968,0,0,0,.02-0.342,0.933,0.933,0,0,0-.552-1.035,7.218,7.218,0,0,0-2.11-.091V4.428Zm19.551,12.9q3.91-4.167,8.076-4.166a3.822,3.822,0,0,1,2.448.722,2.574,2.574,0,0,1,.909,2.146q0,2.887-3.331,4.942a17.323,17.323,0,0,1-7.008,2.516l-1.127.14a13.236,13.236,0,0,0-.356,1.31,6.338,6.338,0,0,0-.1,1.227,3.423,3.423,0,0,0,1.138,2.739,4.021,4.021,0,0,0,2.7.979,6.179,6.179,0,0,0,3.147-.995,26.172,26.172,0,0,0,2.753-2.071l0.513,0.46a12.49,12.49,0,0,1-2.55,2.335,10.012,10.012,0,0,1-5.909,2.137,5.173,5.173,0,0,1-3.676-1.5,5.659,5.659,0,0,1-1.581-4.306Q156.314,21.5,160.263,17.33Zm6.405,2.7q2.379-2.137,2.379-4.245a1.91,1.91,0,0,0-.357-1.213,1.257,1.257,0,0,0-1.05-.452,3.785,3.785,0,0,0-2.528,1.114,15,15,0,0,0-2.23,2.519,19.759,19.759,0,0,0-1.665,3.151q-0.338.8-.713,1.827A11.507,11.507,0,0,0,166.668,20.029ZM115.825,30.515a7.361,7.361,0,0,0,2.6-.536,3.871,3.871,0,0,0,1.765-2.584L126.244,5.06q-4.8,0-6.342.732t-3.6,4.44l-0.716-.162,1.59-6.464H139.44l-1.829,6.868-0.716-.08L137,8.926a4.224,4.224,0,0,0-.866-2.9q-0.867-.962-3.439-0.962h-2.327l-5.71,21.054a11.641,11.641,0,0,0-.306,1.219,6.1,6.1,0,0,0-.185,1.282,1.457,1.457,0,0,0,.753,1.539,10.1,10.1,0,0,0,2.942.361v0.647H115.825V30.515ZM650.47,39.521H679.1c0.123,0.182-4.078,16.1-3.957,16.285,6.908-12.445,20.295-19.4,28.074-19.4,12.638,0,18.084,11.894,15.536,21.41l-16.973,68.071H671.8c2.66-10.4,14.078-55.491,14.714-58.74,1.461-7.5-3.285-6.036-4.041-6.036-1.754,0-7.471,2.56-11.832,12.99-0.013.185-13.288,51.789-13.291,51.8h-28.9c7.368-28.556,22-86.2,22.017-86.381h0ZM546.75,4.761h30.789c-1.444,5.268-5.151,20.274-7.207,28.18-30.261.182-30.494-.366-30.518,0l6.936-28.18h0Zm21.371,34.767L546.509,125.9H515.992l21.881-86.373c24.629,0,30.08,0,30.248,0h0ZM458.3,39.521h28.626c0.121,0.182-4.083,16.1-3.957,16.285,6.906-12.445,20.292-19.4,28.071-19.4,12.639,0,18.084,11.894,15.539,21.41L509.6,125.891H479.624c2.659-10.4,14.078-55.491,14.711-58.74,1.463-7.5-3.282-6.036-4.038-6.036-1.757,0-7.471,2.56-11.832,12.99-0.014.185-13.291,51.789-13.291,51.8h-28.9c7.367-28.556,22.007-86.2,22.02-86.381h0Zm-57.74,31.84C397.536,82.8,393.22,98.47,386.272,125.9l-29.842-.011,21.993-86.007h29.842c0.147-.182-4.043,15.555-4.029,15.373,10.046-16.47,23.3-18.665,27.385-19.214h0c7.965,0,18.959,3.11,16.334,21.591l-6.887,27.451c0.123,0.182-29.841,0-29.841,0s6.334-24.094-.748-23.483C402.679,62.274,400.558,71.361,400.558,71.361ZM291.033,56.913l-6.735.005C284.4,57.1,266.81,126.076,266.7,125.9H237l17.74-69.355h-5.806c0.019-.293,4.931-18.665,4.783-18.484,2.075,0,6.47.185,6.361-.182,2.515-7.138,7.263-38.8,38.244-37.7,3.506,0.125,11.915,1.463,11.782,1.463,0,0-5.138,20.86-6.887,27.447-9.722,0-10.78-.874-13.282,8.789-0.016,0,5.939-.184,5.926,0,0,0-4.834,19.056-4.823,19.032h0ZM257.76,3.472c-2.966,11.712-4.3,16.905-7.391,28.91-24.74,0-28.885-.182-28.9,0,6.6-25.181,7.242-28.913,7.257-28.91,0.135,0,29.045-.185,29.031,0h0ZM248.379,39.7l-21.872,86.2-28.626-.011L219.752,39.7h28.627ZM222.5,3.106L191.084,125.9H161.917L193.2,3.106c0.111,0.182,29.154,0,29.3,0h0ZM55.383,0H75.909C89.564,0,105.9,7.641,104.468,28.357c-0.113,1.648-4.994,19.58-4.994,19.58-0.135,0-34.151-.185-34.163,0,0.135,0,2.933-11.345,2.967-11.712,1.077-11.712-6.624-9.7-8.228-9.88-2.187-.244-7.078,1.1-9.353,4.389-3.548.551-17.144,58.743-17.738,61.487C31,101.266,36.168,102,39.682,102.476c10.7,1.458,15.8-14.206,19.635-32.214H93.345c-13.235,49.046-22.313,58.569-54.4,58.569-2.917,0-38.462,3.865-38.358-23.426l0.023-6.229c0.023-6.1,10.083-50.324,19.2-74.844C28.936,1.64,47.428,0,55.383,0h0ZM325.728,37.257l9.368-.73,8.591,0.73c12.367,1.056,25.152,11.435,22.445,25.071-9.924,49.957-17,64.022-41.37,65.705l-10.468.722-10.057-.722c-10.35-.747-24.54-9.923-22.513-24.349,2.649-18.847,7.271-34.025,10.914-42.922,8.726-18.747,20.374-22.509,33.09-23.5h0Zm-3.356,22.46s-9.99,36.243-11.571,42.68c-0.809,3.285-1.212,4.927.47,7.511s8.553,2.852,11.026-.961,11.75-41.5,13.5-48.147c0.941-3.564-1.265-7.252-4.227-7.836-7.49-1.482-9.2,6.753-9.2,6.753h0Zm-173.5-20.373s-1.468,6.775-1.7,6.414c-2.52-2.636-5.631-7.393-18.833-8.482a27.32,27.32,0,0,0-8.6.9c-6.75,1.409-10.244,5.871-14.307,12.466-7.739,16.285-15.348,51.084-15.53,52.707-1.764,15.731,5.544,22.245,12.431,23.423a25.01,25.01,0,0,0,8.643,0c5.73-.833,16.278-9.814,19.737-16.111,0.443-.549-2.74,11.8-3.708,14.879,11.02,0,28.754-.008,28.493,0-0.253-.375,21.736-86.192,21.736-86.192H148.868Zm-6.66,22.1c-1.425,5.42-8.836,36.126-11.128,39.334s-9.231,3.453-11.058,1.5-1.506-3.29-.861-5.966c1.263-5.246,9.465-34.842,9.465-34.842s1.3-6.69,8.919-6.006C140.56,55.735,142.971,58.534,142.208,61.44Zm474.765-22.1s-1.471,6.775-1.706,6.414c-2.519-2.636-5.63-7.393-18.832-8.482a27.323,27.323,0,0,0-8.6.9c-6.75,1.409-10.243,5.871-14.307,12.466-7.739,16.285-15.347,51.084-15.529,52.707-1.765,15.731,5.541,22.245,12.431,23.423a25,25,0,0,0,8.641,0c5.728-.833,16.279-9.814,19.737-16.111,0.443-.549-2.74,11.8-3.706,14.879,11.018,0,28.755-.008,28.493,0-0.254-.375,21.734-86.192,21.734-86.192H616.973Zm-6.66,22.1c-1.426,5.42-8.837,36.126-11.13,39.334s-9.229,3.453-11.058,1.5-1.506-3.29-.86-5.966c1.263-5.246,9.464-34.842,9.464-34.842s1.3-6.69,8.919-6.006C608.663,55.735,611.074,58.534,610.313,61.44Z"/>
    <path id="USAT_Network" data-name="USAT Network" class="cls-3" d="M351.989,140.273h4.489c3.156,0,5.267,1.865,5.267,4.74s-2.155,4.736-5.267,4.736h-2.29v5.925h-2.2v-15.4Zm4.267,7.659c2.112,0,3.244-1.163,3.244-2.919,0-1.735-1.132-2.918-3.244-2.918h-2.068v5.837h2.068Zm11.768-7.659h1.956l6.4,15.4h-2.358l-1.6-4.035h-6.911l-1.6,4.035H361.6S367.244,142.162,368.024,140.273Zm3.665,9.544-1.488-3.794c-0.221-.572-1.179-2.943-1.2-3.139h-0.043c-0.022.2-.955,2.5-1.2,3.139l-1.51,3.794h5.443Zm6.924-9.544h4.51c2.91,0,5.178,1.5,5.178,4.563a4.293,4.293,0,0,1-3.955,4.346l4.778,6.492h-2.579l-4.51-6.276h-1.223v6.276h-2.2v-15.4Zm4.267,7.351c2.043,0,3.2-1.077,3.2-2.764s-1.157-2.765-3.2-2.765h-2.068v5.529h2.068Zm11.522-5.486h-4.445v-1.865h11.089v1.865H396.6v13.536h-2.2V142.138Zm12.347,5.838a8.2,8.2,0,1,1,8.2,8A7.862,7.862,0,0,1,406.749,147.976Zm14.133,0a5.946,5.946,0,1,0-5.955,6.053A5.772,5.772,0,0,0,420.882,147.976Zm5.433-7.7h7.867v1.865h-5.668V147.1H434v1.865h-5.49v6.713h-2.2v-15.4Zm17.815,1.865h-4.444v-1.865h11.088v1.865H446.33v13.536h-2.2V142.138Zm8.953-1.865h2.2v6.318h8.178v-6.318h2.2v15.4h-2.2v-7.218h-8.178v7.218h-2.2v-15.4Zm16.631,0h8.49v1.846h-6.29v4.472h6.11v1.846h-6.11v5.395h6.422v1.842h-8.622v-15.4Zm16,10.092V140.273h2.221v9.433c0,2.679,1.157,4.323,3.756,4.323,2.622,0,3.78-1.644,3.78-4.323v-9.433h2.221v10.092c0,3.38-2.2,5.616-6,5.616C487.865,155.981,485.71,153.745,485.71,150.365Zm14.274,2.524,1.491-1.25a4.52,4.52,0,0,0,3.911,2.433c1.709,0,3.044-.918,3.044-2.611,0-1.817-1.534-2.433-3.446-3.178-1.956-.769-3.933-1.736-3.933-4.193,0-2.432,1.912-4.12,4.712-4.12a5.249,5.249,0,0,1,4.579,2.322l-1.491,1.25a3.552,3.552,0,0,0-3.088-1.668c-1.512,0-2.511.769-2.511,2.063,0,1.6,1.554,2.13,2.911,2.654,2.2,0.856,4.466,1.889,4.466,4.716,0,2.679-2,4.674-5.2,4.674A6.064,6.064,0,0,1,499.984,152.889Zm18.241-12.616h1.956l6.4,15.4h-2.357l-1.6-4.035h-6.912l-1.6,4.035H511.8S517.446,142.162,518.225,140.273Zm3.665,9.544-1.487-3.794c-0.222-.572-1.179-2.943-1.2-3.139h-0.044c-0.022.2-.955,2.5-1.2,3.139l-1.51,3.794h5.443Zm13.978-7.679h-4.445v-1.865h11.088v1.865h-4.444v13.536h-2.2V142.138Zm7.469,5.838a8.2,8.2,0,1,1,8.2,8A7.861,7.861,0,0,1,543.337,147.976Zm14.132,0a5.945,5.945,0,1,0-5.954,6.053A5.772,5.772,0,0,0,557.469,147.976Zm5.434-7.7h4.423c4.977,0,8.265,2.807,8.265,7.7,0,4.87-3.312,7.7-8.265,7.7H562.9v-15.4Zm2.2,13.534h2.046c3.643,0,6.176-1.9,6.176-5.831s-2.533-5.838-6.176-5.838H565.1v11.669Zm17.637-13.534H584.7l6.4,15.4h-2.357l-1.6-4.035h-6.912l-1.6,4.035h-2.311S581.96,142.162,582.739,140.273Zm3.666,9.544-1.489-3.794c-0.221-.572-1.178-2.943-1.2-3.139h-0.044c-0.022.2-.955,2.5-1.2,3.139l-1.51,3.794h5.444Zm9.084-.419-5.312-9.125h2.467l2.889,5.135a22.887,22.887,0,0,1,1.11,2.192h0.022a23.153,23.153,0,0,1,1.113-2.192l2.91-5.135h2.4l-5.309,9.125v6.276h-2.289V149.4Zm14.062-9.125h1.687l8.846,9.982c0.266,0.288,1.422,1.711,1.534,1.932l0.044-.023c-0.044-.217-0.044-2-0.044-2.39v-9.5h2.134v15.4h-1.713l-8.845-9.983c-0.265-.283-1.422-1.711-1.532-1.928l-0.021.02c0.021,0.221.043,2,.043,2.394v9.5h-2.133v-15.4Zm18.253,0h8.487v1.846H630v4.472h6.113v1.846H630v5.395h6.422v1.842H627.8v-15.4Zm15.37,1.865h-4.445v-1.865h11.089v1.865h-4.445v13.536h-2.2V142.138Zm8.478-1.865h2.333l3.2,9.15c0.112,0.351.867,2.63,0.889,2.981h0.046a30.445,30.445,0,0,1,.933-2.981l3.334-9.15h1.756l3.331,9.15c0.134,0.351.911,2.63,0.936,2.981h0.044c0.044-.351.8-2.63,0.91-2.981l3.179-9.15h2.243l-5.49,15.4h-1.688l-3.6-9.607a25.578,25.578,0,0,1-.758-2.5h-0.044a25.421,25.421,0,0,1-.776,2.5l-3.578,9.607h-1.69Zm24.117,7.7a8.2,8.2,0,1,1,8.2,8A7.862,7.862,0,0,1,675.769,147.976Zm14.133,0a5.946,5.946,0,1,0-5.954,6.053A5.772,5.772,0,0,0,689.9,147.976Zm5.433-7.7h4.511c2.913,0,5.177,1.5,5.177,4.563a4.293,4.293,0,0,1-3.955,4.346l4.779,6.492h-2.579l-4.511-6.276h-1.223v6.276h-2.2v-15.4Zm4.267,7.351c2.044,0,3.2-1.077,3.2-2.764s-1.156-2.765-3.2-2.765h-2.068v5.529H699.6Zm8.736-7.351h2.2v7.154l6.444-7.154h2.666l-6.687,7.351,7,8.05h-2.755l-6.667-7.785v7.785h-2.2v-15.4Z"/>
  </g>
</svg>
