<svg xmlns="http://www.w3.org/2000/svg" width="334" height="48" viewBox="0 0 334 48">
  <g fill="none" fill-rule="evenodd">
    <path fill="#404040" d="M10.32 44.525L11.499 44.525C11.886 44.525 12.192 44.429 12.417 44.239 12.643 44.048 12.755 43.788 12.755 43.459 12.755 43.13 12.643 42.87 12.417 42.679 12.192 42.489 11.886 42.393 11.499 42.393L10.32 42.393 10.32 44.525zM9.445 47.549L9.445 41.657 11.499 41.657C12.157 41.657 12.68 41.819 13.067 42.142 13.454 42.466 13.648 42.905 13.648 43.459 13.648 44.008 13.454 44.442 13.067 44.763 12.68 45.084 12.157 45.244 11.499 45.244L10.32 45.244 10.32 47.549 9.445 47.549zM15.415 45.331L17.564 45.331 16.49 42.567 15.415 45.331zM18.422 47.549L17.85 46.067 15.13 46.067 14.557 47.549 13.674 47.549 16.031 41.657 16.975 41.657 19.323 47.549 18.422 47.549zM21.178 44.438L22.382 44.438C22.758 44.438 23.056 44.346 23.279 44.161 23.501 43.976 23.612 43.728 23.612 43.416 23.612 43.104 23.501 42.856 23.279 42.671 23.056 42.486 22.758 42.393 22.382 42.393L21.178 42.393 21.178 44.438zM21.178 45.158L21.178 47.549 20.302 47.549 20.302 41.657 22.382 41.657C23.035 41.657 23.552 41.814 23.933 42.129 24.314 42.444 24.505 42.873 24.505 43.416 24.505 43.826 24.389 44.173 24.158 44.455 23.927 44.739 23.609 44.938 23.205 45.054L24.635 47.549 23.638 47.549 22.296 45.158 21.178 45.158z"/>
    <polyline fill="#404040" points="27.018 47.549 27.018 42.393 25.033 42.393 25.033 41.657 29.877 41.657 29.877 42.393 27.893 42.393 27.893 47.549 27.018 47.549"/>
    <path fill="#404040" d="M35.501,46.882 C35.882,46.882 36.221,46.785 36.519,46.591 C36.816,46.398 37.049,46.131 37.216,45.79 C37.384,45.449 37.468,45.054 37.468,44.603 C37.468,44.153 37.384,43.757 37.216,43.416 C37.049,43.075 36.816,42.808 36.519,42.614 C36.221,42.421 35.882,42.324 35.501,42.324 C35.119,42.324 34.782,42.421 34.487,42.614 C34.192,42.808 33.961,43.075 33.794,43.416 C33.626,43.757 33.542,44.153 33.542,44.603 C33.542,45.054 33.626,45.449 33.794,45.79 C33.961,46.131 34.192,46.398 34.487,46.591 C34.782,46.785 35.119,46.882 35.501,46.882 Z M35.501,47.644 C34.946,47.644 34.455,47.514 34.028,47.255 C33.6,46.995 33.263,46.636 33.018,46.18 C32.772,45.724 32.65,45.198 32.65,44.603 C32.65,44.008 32.772,43.482 33.018,43.026 C33.263,42.57 33.6,42.212 34.028,41.951 C34.455,41.691 34.946,41.562 35.501,41.562 C36.055,41.562 36.548,41.691 36.978,41.951 C37.408,42.212 37.746,42.57 37.992,43.026 C38.237,43.482 38.36,44.008 38.36,44.603 C38.36,45.198 38.237,45.724 37.992,46.18 C37.746,46.636 37.408,46.995 36.978,47.255 C36.548,47.514 36.055,47.644 35.501,47.644 Z"/>
    <polyline fill="#404040" points="40.466 47.549 39.59 47.549 39.59 41.657 43.256 41.657 43.256 42.393 40.466 42.393 40.466 44.386 42.831 44.386 42.831 45.123 40.466 45.123 40.466 47.549"/>
    <polyline fill="#404040" points="47.822 47.549 47.822 42.393 45.838 42.393 45.838 41.657 50.681 41.657 50.681 42.393 48.697 42.393 48.697 47.549 47.822 47.549"/>
    <polyline fill="#404040" points="51.687 47.549 51.687 41.657 52.562 41.657 52.562 44.179 55.603 44.179 55.603 41.657 56.478 41.657 56.478 47.549 55.603 47.549 55.603 44.932 52.562 44.932 52.562 47.549 51.687 47.549"/>
    <polyline fill="#404040" points="58.02 47.549 58.02 41.657 61.799 41.657 61.799 42.393 58.896 42.393 58.896 44.213 61.452 44.213 61.452 44.949 58.896 44.949 58.896 46.813 61.868 46.813 61.868 47.549 58.02 47.549"/>
    <path fill="#404040" d="M67.396 46.882C67.875 46.882 68.252 46.738 68.527 46.449 68.801 46.16 68.938 45.77 68.938 45.279L68.938 41.657 69.813 41.657 69.813 45.287C69.813 46.021 69.598 46.597 69.168 47.016 68.737 47.435 68.147 47.644 67.396 47.644 66.645 47.644 66.056 47.435 65.628 47.016 65.201 46.597 64.987 46.021 64.987 45.287L64.987 41.657 65.862 41.657 65.862 45.279C65.862 45.77 65.999 46.16 66.274 46.449 66.548 46.738 66.922 46.882 67.396 46.882M73.08 47.644C72.635 47.644 72.21 47.567 71.806 47.41 71.402 47.255 71.075 47.047 70.827 46.787L71.321 46.206C71.552 46.42 71.825 46.587 72.14 46.709 72.455 46.83 72.768 46.89 73.08 46.89 73.461 46.89 73.769 46.817 74.003 46.67 74.237 46.522 74.354 46.319 74.354 46.059 74.354 45.822 74.27 45.623 74.102 45.461 73.935 45.299 73.649 45.163 73.245 45.054L72.43 44.837C71.904 44.699 71.522 44.502 71.282 44.248 71.042 43.994 70.922 43.662 70.922 43.251 70.922 42.916 71.012 42.622 71.191 42.367 71.37 42.113 71.617 41.915 71.932 41.774 72.247 41.632 72.603 41.562 73.002 41.562 73.424 41.562 73.819 41.641 74.189 41.8 74.559 41.959 74.885 42.18 75.168 42.463L74.64 43.035C74.391 42.803 74.133 42.626 73.864 42.502 73.595 42.378 73.311 42.316 73.011 42.316 72.647 42.316 72.349 42.392 72.118 42.545 71.887 42.698 71.772 42.911 71.772 43.182 71.772 43.43 71.854 43.624 72.019 43.762 72.183 43.901 72.436 44.017 72.777 44.109L73.687 44.36C74.212 44.505 74.596 44.707 74.839 44.967 75.082 45.227 75.203 45.55 75.203 45.937 75.203 46.278 75.113 46.577 74.934 46.834 74.755 47.091 74.507 47.291 74.189 47.432 73.871 47.574 73.502 47.644 73.08 47.644M77.404 45.331L79.553 45.331 78.478 42.567 77.404 45.331zM80.411 47.549L79.839 46.067 77.118 46.067 76.546 47.549 75.662 47.549 78.019 41.657 78.964 41.657 81.312 47.549 80.411 47.549z"/>
    <polyline fill="#404040" points="85.384 47.549 85.384 42.393 83.4 42.393 83.4 41.657 88.244 41.657 88.244 42.393 86.259 42.393 86.259 47.549 85.384 47.549"/>
    <path fill="#404040" d="M91.398 46.882C91.779 46.882 92.118 46.785 92.416 46.591 92.713 46.398 92.946 46.131 93.113 45.79 93.281 45.449 93.365 45.054 93.365 44.603 93.365 44.153 93.281 43.757 93.113 43.416 92.946 43.075 92.713 42.808 92.416 42.614 92.118 42.421 91.779 42.324 91.398 42.324 91.016 42.324 90.679 42.421 90.384 42.614 90.089 42.808 89.858 43.075 89.691 43.416 89.523 43.757 89.439 44.153 89.439 44.603 89.439 45.054 89.523 45.449 89.691 45.79 89.858 46.131 90.089 46.398 90.384 46.591 90.679 46.785 91.016 46.882 91.398 46.882zM91.398 47.644C90.843 47.644 90.352 47.514 89.925 47.255 89.497 46.995 89.161 46.636 88.915 46.18 88.669 45.724 88.547 45.198 88.547 44.603 88.547 44.008 88.669 43.482 88.915 43.026 89.161 42.57 89.497 42.212 89.925 41.951 90.352 41.691 90.843 41.562 91.398 41.562 91.952 41.562 92.445 41.691 92.875 41.951 93.305 42.212 93.643 42.57 93.889 43.026 94.134 43.482 94.257 44.008 94.257 44.603 94.257 45.198 94.134 45.724 93.889 46.18 93.643 46.636 93.305 46.995 92.875 47.255 92.445 47.514 91.952 47.644 91.398 47.644zM96.363 46.813L97.558 46.813C97.974 46.813 98.331 46.722 98.629 46.54 98.926 46.358 99.154 46.102 99.313 45.773 99.472 45.443 99.551 45.054 99.551 44.603 99.551 44.153 99.472 43.762 99.313 43.433 99.154 43.104 98.926 42.848 98.629 42.666 98.331 42.484 97.974 42.393 97.558 42.393L96.363 42.393 96.363 46.813zM95.487 47.549L95.487 41.657 97.558 41.657C98.136 41.657 98.642 41.78 99.075 42.025 99.508 42.271 99.845 42.614 100.084 43.056 100.324 43.498 100.444 44.014 100.444 44.603 100.444 45.192 100.324 45.708 100.084 46.15 99.845 46.591 99.508 46.936 99.075 47.181 98.642 47.426 98.136 47.549 97.558 47.549L95.487 47.549zM102.679 45.331L104.828 45.331 103.754 42.567 102.679 45.331zM105.686 47.549L105.114 46.067 102.393 46.067 101.821 47.549 100.938 47.549 103.295 41.657 104.239 41.657 106.587 47.549 105.686 47.549z"/>
    <polyline fill="#404040" points="109.274 45.209 109.274 47.549 108.398 47.549 108.398 45.209 106.328 41.657 107.359 41.657 108.84 44.378 110.322 41.657 111.336 41.657 109.274 45.209"/>
    <polyline fill="#404040" points="118.337 47.549 115.192 43.035 115.192 47.549 114.368 47.549 114.368 41.657 115.183 41.657 118.337 46.172 118.337 41.657 119.151 41.657 119.151 47.549 118.337 47.549"/>
    <polyline fill="#404040" points="120.694 47.549 120.694 41.657 124.472 41.657 124.472 42.393 121.569 42.393 121.569 44.213 124.125 44.213 124.125 44.949 121.569 44.949 121.569 46.813 124.541 46.813 124.541 47.549 120.694 47.549"/>
    <polyline fill="#404040" points="127.14 47.549 127.14 42.393 125.156 42.393 125.156 41.657 130 41.657 130 42.393 128.015 42.393 128.015 47.549 127.14 47.549"/>
    <polyline fill="#404040" points="135.719 47.549 134.341 42.853 132.963 47.549 132.053 47.549 130.485 41.657 131.351 41.657 132.547 46.319 133.925 41.657 134.757 41.657 136.143 46.336 137.347 41.657 138.197 41.657 136.628 47.549 135.719 47.549"/>
    <path fill="#404040" d="M141.671 46.882C142.052 46.882 142.392 46.785 142.689 46.591 142.987 46.398 143.219 46.131 143.387 45.79 143.554 45.449 143.638 45.054 143.638 44.603 143.638 44.153 143.554 43.757 143.387 43.416 143.219 43.075 142.987 42.808 142.689 42.614 142.392 42.421 142.052 42.324 141.671 42.324 141.29 42.324 140.952 42.421 140.657 42.614 140.363 42.808 140.132 43.075 139.964 43.416 139.797 43.757 139.713 44.153 139.713 44.603 139.713 45.054 139.797 45.449 139.964 45.79 140.132 46.131 140.363 46.398 140.657 46.591 140.952 46.785 141.29 46.882 141.671 46.882zM141.671 47.644C141.117 47.644 140.626 47.514 140.198 47.255 139.771 46.995 139.434 46.636 139.189 46.18 138.943 45.724 138.821 45.198 138.821 44.603 138.821 44.008 138.943 43.482 139.189 43.026 139.434 42.57 139.771 42.212 140.198 41.951 140.626 41.691 141.117 41.562 141.671 41.562 142.226 41.562 142.718 41.691 143.149 41.951 143.579 42.212 143.917 42.57 144.163 43.026 144.408 43.482 144.531 44.008 144.531 44.603 144.531 45.198 144.408 45.724 144.163 46.18 143.917 46.636 143.579 46.995 143.149 47.255 142.718 47.514 142.226 47.644 141.671 47.644zM146.636 44.438L147.841 44.438C148.216 44.438 148.515 44.346 148.738 44.161 148.96 43.976 149.071 43.728 149.071 43.416 149.071 43.104 148.96 42.856 148.738 42.671 148.515 42.486 148.216 42.393 147.841 42.393L146.636 42.393 146.636 44.438zM146.636 45.158L146.636 47.549 145.761 47.549 145.761 41.657 147.841 41.657C148.494 41.657 149.011 41.814 149.392 42.129 149.773 42.444 149.964 42.873 149.964 43.416 149.964 43.826 149.848 44.173 149.617 44.455 149.386 44.739 149.068 44.938 148.664 45.054L150.094 47.549 149.097 47.549 147.754 45.158 146.636 45.158z"/>
    <polyline fill="#404040" points="154.721 47.549 152.078 44.577 152.078 47.549 151.203 47.549 151.203 41.657 152.078 41.657 152.078 44.239 154.548 41.657 155.63 41.657 153.005 44.36 155.821 47.549 154.721 47.549"/>
    <polyline fill="#404040" points="9.445 34.811 9.445 10.961 .355 10.961 .355 4.211 26.905 4.211 26.905 10.961 17.815 10.961 17.815 34.811 9.445 34.811"/>
    <path fill="#404040" d="M38.515 22.211L38.515 34.811 30.685 34.811 30.685 1.961 38.515 1.961 38.515 14.561C39.264 13.571 40.217 12.783 41.372 12.198 42.527 11.613 43.78 11.321 45.13 11.321 47.619 11.321 49.614 12.131 51.115 13.751 52.615 15.371 53.365 17.696 53.365 20.726L53.365 34.811 45.535 34.811 45.535 21.626C45.535 20.276 45.234 19.279 44.635 18.633 44.034 17.988 43.195 17.666 42.115 17.666 41.035 17.666 40.164 18.011 39.505 18.701 38.845 19.392 38.515 20.562 38.515 22.211M69.294 16.991C66.744 16.991 65.214 18.341 64.704 21.041L73.434 21.041C73.224 19.571 72.721 18.528 71.926 17.913 71.131 17.299 70.254 16.991 69.294 16.991zM80.004 32.471C78.864 33.281 77.416 33.971 75.662 34.541 73.906 35.11 72.039 35.396 70.059 35.396 67.329 35.396 64.997 34.893 63.062 33.888 61.127 32.884 59.642 31.481 58.607 29.681 57.572 27.881 57.054 25.811 57.054 23.471 57.054 21.102 57.564 19.001 58.584 17.171 59.604 15.341 61.014 13.908 62.814 12.873 64.614 11.838 66.714 11.321 69.114 11.321 71.454 11.321 73.516 11.823 75.301 12.828 77.086 13.834 78.481 15.229 79.487 17.013 80.491 18.799 80.994 20.891 80.994 23.291 80.994 23.621 80.972 23.966 80.926 24.326 80.882 24.686 80.829 25.062 80.769 25.451L64.794 25.451C65.514 28.091 67.479 29.411 70.689 29.411 72.129 29.411 73.404 29.186 74.514 28.736 75.624 28.286 76.554 27.836 77.304 27.386L80.004 32.471zM110.424 35.396C107.303 35.396 104.566 34.721 102.211 33.371 99.856 32.021 98.011 30.153 96.676 27.769 95.341 25.383 94.674 22.616 94.674 19.466 94.674 16.315 95.341 13.556 96.676 11.186 98.011 8.816 99.856 6.964 102.211 5.628 104.566 4.294 107.303 3.626 110.424 3.626 113.063 3.626 115.441 4.159 117.556 5.224 119.671 6.289 121.478 7.826 122.979 9.836L116.364 13.751C115.583 12.761 114.706 11.981 113.731 11.411 112.756 10.841 111.623 10.556 110.334 10.556 108.203 10.556 106.479 11.358 105.159 12.963 103.838 14.568 103.179 16.736 103.179 19.466 103.179 22.196 103.838 24.378 105.159 26.013 106.479 27.649 108.203 28.466 110.334 28.466 111.654 28.466 112.823 28.144 113.844 27.498 114.863 26.854 115.718 26.096 116.409 25.226L122.979 29.141C121.509 31.181 119.701 32.733 117.556 33.798 115.411 34.863 113.034 35.396 110.424 35.396M132.788 27.386C132.788 28.076 133.043 28.639 133.553 29.073 134.063 29.509 134.723 29.726 135.533 29.726 136.614 29.726 137.52 29.358 138.256 28.623 138.991 27.889 139.358 26.966 139.358 25.855L139.358 25.091C138.548 24.941 137.693 24.866 136.793 24.866 135.653 24.866 134.701 25.062 133.936 25.451 133.171 25.841 132.788 26.486 132.788 27.386zM139.673 34.811L139.268 31.796C137.768 34.196 135.489 35.396 132.428 35.396 131.078 35.396 129.856 35.104 128.761 34.519 127.666 33.934 126.796 33.131 126.151 32.111 125.505 31.091 125.183 29.906 125.183 28.556 125.183 26.006 126.18 24.026 128.176 22.616 130.171 21.206 132.803 20.501 136.073 20.501 137.093 20.501 138.173 20.591 139.313 20.771 139.193 19.631 138.706 18.769 137.851 18.184 136.996 17.599 135.953 17.306 134.723 17.306 133.643 17.306 132.556 17.508 131.461 17.913 130.365 18.318 129.323 18.806 128.333 19.376L125.678 14.336C127.178 13.376 128.798 12.634 130.538 12.108 132.278 11.584 134.018 11.321 135.758 11.321 137.858 11.321 139.748 11.681 141.428 12.401 143.108 13.121 144.428 14.216 145.388 15.686 146.348 17.156 146.828 19.016 146.828 21.266L146.828 34.811 139.673 34.811z"/>
    <polygon fill="#404040" points="151.823 34.811 159.653 34.811 159.653 1.961 151.823 1.961"/>
    <path fill="#404040" d="M165.143 34.811L165.143 11.906C166.403 12.176 167.677 12.311 168.968 12.311 170.287 12.311 171.623 12.176 172.973 11.906L172.973 34.811 165.143 34.811M194.122 17.756L188.137 17.756 188.137 34.811 180.307 34.811 180.307 17.756 176.572 17.756 176.572 11.906 180.307 11.906 180.307 10.241C180.307 7.602 181.087 5.471 182.647 3.851 184.207 2.23 186.412 1.421 189.262 1.421 190.343 1.421 191.437 1.556 192.548 1.826 193.657 2.096 194.827 2.621 196.057 3.401L193.403 8.216C193.042 8.006 192.637 7.826 192.187 7.676 191.738 7.526 191.242 7.451 190.702 7.451 189.982 7.451 189.375 7.676 188.88 8.126 188.385 8.576 188.137 9.281 188.137 10.241L188.137 11.906 194.122 11.906 194.122 17.756M208.072 29.186C209.451 29.186 210.554 28.653 211.38 27.588 212.204 26.524 212.617 25.106 212.617 23.336 212.617 21.566 212.204 20.156 211.38 19.105 210.554 18.056 209.451 17.531 208.072 17.531 206.692 17.531 205.589 18.056 204.764 19.105 203.939 20.156 203.527 21.566 203.527 23.336 203.527 25.106 203.939 26.524 204.764 27.588 205.589 28.653 206.692 29.186 208.072 29.186zM208.072 35.396C205.612 35.396 203.444 34.878 201.57 33.843 199.694 32.809 198.224 31.391 197.159 29.591 196.094 27.791 195.562 25.706 195.562 23.336 195.562 20.966 196.094 18.881 197.159 17.081 198.224 15.281 199.694 13.871 201.57 12.851 203.444 11.831 205.612 11.321 208.072 11.321 210.531 11.321 212.699 11.831 214.574 12.851 216.449 13.871 217.919 15.281 218.985 17.081 220.049 18.881 220.582 20.966 220.582 23.336 220.582 25.706 220.049 27.791 218.985 29.591 217.919 31.391 216.449 32.809 214.574 33.843 212.699 34.878 210.531 35.396 208.072 35.396zM232.507 25.946L232.507 34.811 224.677 34.811 224.677 11.906 231.832 11.906 232.327 15.73C232.806 14.501 233.594 13.503 234.69 12.738 235.784 11.974 237.052 11.591 238.492 11.591 239.302 11.591 239.917 11.696 240.337 11.906L240.337 19.061C240.007 18.941 239.639 18.852 239.235 18.791 238.829 18.731 238.372 18.701 237.862 18.701 236.302 18.701 235.019 19.279 234.014 20.434 233.009 21.589 232.507 23.426 232.507 25.946M251.947 22.166L251.947 34.811 244.117 34.811 244.117 11.906 251.272 11.906 251.676 14.921C252.426 13.841 253.402 12.971 254.602 12.311 255.801 11.651 257.122 11.321 258.562 11.321 261.051 11.321 263.046 12.131 264.547 13.751 266.047 15.371 266.797 17.696 266.797 20.726L266.797 34.811 258.967 34.811 258.967 21.626C258.967 20.276 258.666 19.279 258.067 18.633 257.466 17.988 256.627 17.666 255.547 17.666 254.467 17.666 253.596 18.011 252.937 18.701 252.277 19.392 251.947 20.546 251.947 22.166M271.881 34.811L271.881 11.906C273.141 12.176 274.416 12.311 275.706 12.311 277.026 12.311 278.361 12.176 279.711 11.906L279.711 34.811 271.881 34.811zM275.706 10.105C274.416 10.105 273.313 9.648 272.399 8.733 271.483 7.818 271.026 6.716 271.026 5.426 271.026 4.136 271.483 3.034 272.399 2.118 273.313 1.204 274.416.746 275.706.746 276.996.746 278.098 1.204 279.013 2.118 279.928 3.034 280.386 4.136 280.386 5.426 280.386 6.716 279.928 7.818 279.013 8.733 278.098 9.648 276.996 10.105 275.706 10.105zM291.365 27.386C291.365 28.076 291.62 28.639 292.131 29.073 292.64 29.509 293.301 29.726 294.111 29.726 295.191 29.726 296.098 29.358 296.833 28.623 297.568 27.889 297.936 26.966 297.936 25.855L297.936 25.091C297.126 24.941 296.271 24.866 295.371 24.866 294.23 24.866 293.278 25.062 292.513 25.451 291.748 25.841 291.365 26.486 291.365 27.386zM298.251 34.811L297.845 31.796C296.345 34.196 294.066 35.396 291.006 35.396 289.655 35.396 288.433 35.104 287.338 34.519 286.243 33.934 285.373 33.131 284.728 32.111 284.083 31.091 283.76 29.906 283.76 28.556 283.76 26.006 284.758 24.026 286.753 22.616 288.748 21.206 291.381 20.501 294.651 20.501 295.67 20.501 296.75 20.591 297.891 20.771 297.77 19.631 297.283 18.769 296.428 18.184 295.573 17.599 294.53 17.306 293.301 17.306 292.22 17.306 291.133 17.508 290.038 17.913 288.943 18.318 287.901 18.806 286.911 19.376L284.256 14.336C285.756 13.376 287.375 12.634 289.115 12.108 290.855 11.584 292.595 11.321 294.336 11.321 296.435 11.321 298.325 11.681 300.006 12.401 301.685 13.121 303.005 14.216 303.966 15.686 304.926 17.156 305.405 19.016 305.405 21.266L305.405 34.811 298.251 34.811zM318.231 22.166L318.231 34.811 310.401 34.811 310.401 11.906 317.555 11.906 317.961 14.921C318.71 13.841 319.685 12.971 320.885 12.311 322.085 11.651 323.405 11.321 324.845 11.321 327.335 11.321 329.33 12.131 330.831 13.751 332.33 15.371 333.081 17.696 333.081 20.726L333.081 34.811 325.251 34.811 325.251 21.626C325.251 20.276 324.95 19.279 324.351 18.633 323.75 17.988 322.91 17.666 321.831 17.666 320.751 17.666 319.88 18.011 319.22 18.701 318.56 19.392 318.231 20.546 318.231 22.166"/>
    <path fill="#009BFF" class='no-color-change' d="M168.968,10.105 C167.677,10.105 166.575,9.648 165.66,8.733 C164.745,7.818 164.288,6.716 164.288,5.426 C164.288,4.136 164.745,3.034 165.66,2.118 C166.575,1.204 167.677,0.746 168.968,0.746 C170.258,0.746 171.36,1.204 172.275,2.118 C173.19,3.034 173.648,4.136 173.648,5.426 C173.648,6.716 173.19,7.818 172.275,8.733 C171.36,9.648 170.258,10.105 168.968,10.105"/>
  </g>
</svg>
