<svg xmlns="http://www.w3.org/2000/svg" xmlns:xlink="http://www.w3.org/1999/xlink" preserveAspectRatio="xMidYMid" width="318" height="80" viewBox="0 0 318 80">
  <defs>

    <filter id="inner-shadow-1" filterUnits="userSpaceOnUse">
      <feOffset dy="2" in="SourceAlpha"/>
      <feGaussianBlur stdDeviation="1.414" result="innerShadowBlur"/>
      <feFlood flood-opacity="0.3"/>
      <feComposite operator="out" in2="innerShadowBlur"/>
      <feComposite operator="in" in2="SourceAlpha"/>
      <feBlend in2="SourceGraphic" result="innerShadow"/>
    </filter>
  </defs>
  <path d="M315.984,36.599 L308.533,66.141 L295.373,66.141 C296.540,61.629 301.553,42.059 301.832,40.649 C302.473,37.393 300.390,38.029 300.058,38.029 C299.288,38.029 296.778,39.140 294.864,43.667 C294.858,43.747 289.031,66.142 289.030,66.145 L276.344,66.145 C279.579,53.753 286.004,28.737 286.010,28.658 C285.951,28.658 291.985,28.658 298.577,28.658 C298.630,28.737 296.786,35.646 296.839,35.725 C299.872,30.325 305.748,27.308 309.163,27.308 C314.712,27.308 317.102,32.469 315.984,36.599 ZM261.703,65.986 C262.127,64.652 263.525,59.291 263.330,59.529 C261.812,62.262 257.180,66.159 254.666,66.521 C252.300,66.862 250.872,66.521 250.872,66.521 C247.848,66.010 244.641,63.183 245.416,56.356 C245.495,55.652 248.835,40.550 252.232,33.482 C254.016,30.620 255.550,28.684 258.513,28.072 C258.513,28.072 260.405,27.531 262.289,27.684 C268.085,28.156 269.450,30.221 270.556,31.365 C270.659,31.521 271.305,28.581 271.305,28.581 L283.752,28.581 C283.752,28.581 274.100,65.824 274.211,65.986 C274.326,65.983 266.540,65.986 261.703,65.986 ZM266.333,35.577 C262.989,35.280 262.418,38.183 262.418,38.183 C262.418,38.183 258.818,51.027 258.264,53.304 C257.980,54.465 257.839,55.047 258.641,55.893 C259.444,56.739 262.487,56.634 263.495,55.240 C264.502,53.848 267.755,40.523 268.381,38.170 C268.715,36.909 267.657,35.695 266.333,35.577 ZM237.440,25.777 L240.478,13.573 L253.994,13.573 C253.360,15.859 251.733,22.371 250.830,25.803 C238.379,25.876 237.509,25.672 237.440,25.777 ZM249.860,28.661 L240.372,66.145 L226.976,66.145 L236.581,28.661 C247.393,28.661 249.786,28.660 249.860,28.661 ZM224.169,66.141 L211.011,66.141 C212.178,61.629 217.191,42.059 217.469,40.649 C218.111,37.393 216.028,38.029 215.696,38.029 C214.925,38.029 212.416,39.140 210.502,43.667 C210.496,43.747 204.667,66.142 204.667,66.145 L191.983,66.145 C195.217,53.753 201.643,28.737 201.649,28.658 C201.589,28.658 207.623,28.658 214.216,28.658 C214.268,28.737 212.423,35.646 212.478,35.725 C215.510,30.325 221.386,27.308 224.801,27.308 C230.350,27.308 232.740,32.469 231.623,36.599 L224.169,66.141 ZM194.086,48.432 C194.139,48.511 180.985,48.432 180.985,48.432 C180.985,48.432 183.766,37.976 180.657,38.241 C177.233,38.532 176.302,42.476 176.302,42.476 C174.975,47.441 173.081,54.240 170.031,66.145 L156.930,66.141 L166.585,28.816 L179.685,28.816 C179.750,28.737 177.911,35.566 177.917,35.487 C182.327,28.340 188.143,27.387 189.938,27.149 C193.435,27.149 198.261,28.499 197.109,36.519 L194.086,48.432 ZM143.029,67.070 L138.433,67.383 L134.019,67.070 C129.475,66.746 123.246,62.764 124.136,56.503 C125.298,48.324 127.328,41.737 128.927,37.876 C132.757,29.740 137.871,28.108 143.453,27.675 L147.565,27.359 L151.337,27.675 C156.765,28.134 162.378,32.638 161.189,38.556 C156.833,60.236 153.728,66.340 143.029,67.070 ZM146.018,34.492 C142.730,33.849 141.980,37.422 141.980,37.422 C141.980,37.422 137.594,53.151 136.900,55.945 C136.545,57.370 136.368,58.083 137.107,59.204 C137.846,60.324 140.861,60.442 141.947,58.787 C143.032,57.133 147.105,40.776 147.874,37.893 C148.286,36.346 147.318,34.745 146.018,34.492 ZM127.738,27.948 C127.731,27.946 130.345,27.868 130.339,27.946 C130.339,27.946 128.217,36.216 128.222,36.206 L125.266,36.208 C125.313,36.285 117.589,66.221 117.541,66.145 L104.500,66.145 L112.288,36.047 C112.348,36.047 109.739,36.047 109.739,36.047 C109.747,35.919 111.904,27.946 111.839,28.025 C112.750,28.025 114.679,28.105 114.631,27.946 C115.735,24.849 117.820,11.110 131.420,11.587 C132.959,11.641 136.650,12.222 136.592,12.222 C136.592,12.222 134.336,21.275 133.569,24.134 C129.301,24.134 128.836,23.754 127.738,27.948 ZM97.686,25.560 C100.581,14.632 100.865,13.012 100.872,13.014 C100.931,13.014 113.622,12.934 113.616,13.014 C112.314,18.096 111.730,20.350 110.371,25.560 C99.511,25.560 97.691,25.481 97.686,25.560 ZM71.542,66.145 L85.273,12.855 C85.322,12.934 98.071,12.853 98.136,12.855 L84.346,66.145 L71.542,66.145 ZM56.212,65.986 C56.638,64.652 58.034,59.291 57.840,59.529 C56.322,62.262 51.691,66.159 49.176,66.521 C46.810,66.862 45.382,66.521 45.382,66.521 C42.359,66.010 39.150,63.183 39.925,56.356 C40.005,55.652 43.345,40.550 46.742,33.482 C48.526,30.620 50.060,28.684 53.023,28.072 C53.023,28.072 54.915,27.531 56.799,27.684 C62.594,28.156 63.960,30.221 65.066,31.365 C65.169,31.521 65.814,28.581 65.814,28.581 L78.262,28.581 C78.262,28.581 68.609,65.824 68.720,65.986 C68.835,65.983 61.050,65.986 56.212,65.986 ZM60.843,35.577 C57.498,35.280 56.928,38.183 56.928,38.183 C56.928,38.183 53.327,51.027 52.773,53.304 C52.490,54.465 52.349,55.047 53.151,55.893 C53.953,56.739 56.997,56.634 58.005,55.240 C59.011,53.848 62.265,40.523 62.890,38.170 C63.225,36.909 62.167,35.695 60.843,35.577 ZM71.296,21.701 L70.802,21.761 C70.726,21.999 70.674,22.188 70.646,22.330 C70.616,22.471 70.602,22.649 70.602,22.862 C70.602,23.371 70.768,23.767 71.102,24.051 C71.435,24.333 71.831,24.475 72.288,24.475 C72.723,24.475 73.183,24.331 73.670,24.044 C73.948,23.876 74.351,23.577 74.878,23.145 L75.103,23.345 C74.843,23.674 74.470,24.012 73.984,24.358 C73.123,24.976 72.258,25.286 71.391,25.286 C70.777,25.286 70.239,25.068 69.777,24.633 C69.314,24.199 69.083,23.576 69.083,22.765 C69.083,21.479 69.660,20.233 70.816,19.027 C71.961,17.822 73.142,17.219 74.361,17.219 C74.812,17.219 75.170,17.324 75.436,17.533 C75.702,17.742 75.835,18.051 75.835,18.464 C75.835,19.299 75.347,20.014 74.373,20.609 C73.398,21.204 72.373,21.567 71.296,21.701 ZM74.515,17.830 C74.411,17.699 74.257,17.634 74.054,17.634 C73.677,17.634 73.307,17.795 72.945,18.117 C72.582,18.440 72.256,18.804 71.966,19.211 C71.658,19.686 71.415,20.142 71.235,20.578 C71.136,20.810 71.032,21.075 70.922,21.371 C72.030,21.208 72.932,20.817 73.628,20.199 C74.324,19.580 74.672,18.967 74.672,18.357 C74.672,18.136 74.620,17.961 74.515,17.830 ZM66.030,25.283 C65.798,25.283 65.604,25.210 65.447,25.066 C65.291,24.921 65.213,24.712 65.213,24.440 C65.213,24.365 65.217,24.294 65.226,24.227 C65.234,24.161 65.250,24.087 65.273,24.006 L66.587,18.898 C66.599,18.851 66.608,18.804 66.617,18.755 C66.626,18.705 66.630,18.654 66.630,18.602 C66.630,18.457 66.587,18.344 66.501,18.262 C66.409,18.181 66.291,18.140 66.148,18.140 C65.763,18.140 65.277,18.451 64.692,19.074 C64.106,19.697 63.612,20.333 63.210,20.982 C62.934,21.440 62.726,21.871 62.586,22.277 C62.445,22.683 62.173,23.615 61.771,25.075 L60.448,25.075 L63.359,14.540 C63.376,14.465 63.388,14.401 63.394,14.348 C63.399,14.296 63.402,14.246 63.402,14.200 C63.402,13.950 63.321,13.800 63.160,13.751 C62.998,13.701 62.690,13.688 62.234,13.711 L62.234,13.428 C62.604,13.377 62.904,13.335 63.133,13.303 C63.362,13.272 63.560,13.241 63.729,13.213 C64.412,13.080 64.780,13.008 64.832,12.996 C64.884,12.985 64.925,12.979 64.954,12.979 C65.023,13.014 65.058,13.056 65.058,13.106 L62.913,20.868 C63.630,19.790 64.216,19.002 64.672,18.503 C65.469,17.645 66.200,17.216 66.866,17.216 C67.140,17.216 67.403,17.305 67.657,17.481 C67.911,17.658 68.038,17.974 68.038,18.431 C68.038,18.542 68.024,18.683 67.995,18.857 C67.966,19.030 67.932,19.184 67.891,19.317 L66.738,23.492 C66.703,23.608 66.674,23.719 66.651,23.827 C66.628,23.935 66.617,24.032 66.617,24.119 C66.617,24.218 66.639,24.292 66.686,24.341 C66.732,24.391 66.798,24.416 66.885,24.416 C67.065,24.416 67.277,24.292 67.520,24.044 C67.671,23.888 67.952,23.546 68.364,23.021 L68.589,23.228 C68.182,23.829 67.837,24.268 67.553,24.546 C67.048,25.037 66.541,25.283 66.030,25.283 ZM60.558,16.017 L60.602,15.380 C60.602,14.818 60.475,14.399 60.222,14.120 C59.968,13.842 59.465,13.703 58.712,13.703 L57.690,13.703 L55.184,22.840 C55.124,23.037 55.079,23.214 55.050,23.369 C54.996,23.602 54.968,23.787 54.968,23.925 C54.968,24.284 55.078,24.507 55.299,24.593 C55.519,24.680 55.949,24.732 56.590,24.750 L56.590,25.030 L51.308,25.030 L51.308,24.750 C51.848,24.708 52.228,24.630 52.448,24.517 C52.816,24.320 53.075,23.946 53.223,23.396 L55.882,13.703 C54.478,13.703 53.550,13.809 53.098,14.021 C52.645,14.232 52.119,14.874 51.518,15.948 L51.204,15.877 L51.902,13.072 L61.675,13.072 L60.872,16.052 L60.558,16.017 ZM44.131,32.310 C44.072,32.310 29.139,32.230 29.134,32.310 C29.193,32.310 30.422,27.387 30.436,27.228 C30.909,22.145 27.528,23.018 26.824,22.940 C25.864,22.834 23.717,23.418 22.718,24.845 C21.161,25.084 15.192,50.338 14.932,51.529 C14.072,55.454 16.340,55.772 17.883,55.979 C22.580,56.611 24.820,49.814 26.502,41.999 C36.319,41.999 36.650,41.999 41.440,41.999 C35.630,63.283 31.645,67.416 17.560,67.416 C16.280,67.416 0.676,69.093 0.722,57.250 L0.732,54.547 C0.742,51.899 5.158,32.707 9.160,22.066 C13.166,12.219 21.283,11.505 24.776,11.505 L33.786,11.505 C39.780,11.505 46.950,14.823 46.323,23.813 C46.273,24.528 44.131,32.310 44.131,32.310 ZM109.498,28.737 L99.896,66.145 L87.330,66.141 L96.931,28.737 L109.498,28.737 Z" class="cls-1"/>
</svg>
