<svg xmlns="http://www.w3.org/2000/svg" width="319" height="46" viewBox="0 0 319 46">
  <g fill="none" fill-rule="evenodd">
    <path fill="#404040" d="M2.684 42.378L3.823 42.378C4.196 42.378 4.493 42.286 4.711 42.102 4.928 41.917 5.037 41.666 5.037 41.348 5.037 41.029 4.928 40.778 4.711 40.594 4.493 40.41 4.196 40.317 3.823 40.317L2.684 40.317 2.684 42.378zM1.838 45.301L1.838 39.606 3.823 39.606C4.459 39.606 4.964 39.762 5.339 40.075 5.713 40.388 5.9 40.812 5.9 41.348 5.9 41.878 5.713 42.299 5.339 42.608 4.964 42.918 4.459 43.073 3.823 43.073L2.684 43.073 2.684 45.301 1.838 45.301zM7.608 43.157L9.685 43.157 8.647 40.485 7.608 43.157zM10.514 45.301L9.962 43.869 7.332 43.869 6.779 45.301 5.925 45.301 8.203 39.606 9.116 39.606 11.385 45.301 10.514 45.301zM13.177 42.294L14.341 42.294C14.704 42.294 14.993 42.205 15.208 42.026 15.423 41.848 15.531 41.607 15.531 41.306 15.531 41.005 15.423 40.765 15.208 40.586 14.993 40.407 14.704 40.317 14.341 40.317L13.177 40.317 13.177 42.294zM13.177 42.989L13.177 45.301 12.332 45.301 12.332 39.606 14.341 39.606C14.972 39.606 15.472 39.758 15.841 40.063 16.209 40.366 16.393 40.781 16.393 41.306 16.393 41.702 16.281 42.037 16.058 42.311 15.835 42.585 15.528 42.777 15.137 42.889L16.519 45.301 15.556 45.301 14.257 42.989 13.177 42.989z"/>
    <polyline fill="#404040" points="18.822 45.301 18.822 40.317 16.904 40.317 16.904 39.606 21.586 39.606 21.586 40.317 19.668 40.317 19.668 45.301 18.822 45.301"/>
    <path fill="#404040" d="M27.021,44.656 C27.39,44.656 27.717,44.562 28.005,44.375 C28.293,44.189 28.517,43.93 28.679,43.601 C28.841,43.272 28.923,42.889 28.923,42.453 C28.923,42.018 28.841,41.636 28.679,41.306 C28.517,40.977 28.293,40.719 28.005,40.531 C27.717,40.344 27.39,40.251 27.021,40.251 C26.653,40.251 26.326,40.344 26.041,40.531 C25.757,40.719 25.533,40.977 25.371,41.306 C25.209,41.636 25.129,42.018 25.129,42.453 C25.129,42.889 25.209,43.272 25.371,43.601 C25.533,43.93 25.757,44.189 26.041,44.375 C26.326,44.562 26.653,44.656 27.021,44.656 Z M27.021,45.393 C26.485,45.393 26.01,45.268 25.597,45.016 C25.184,44.765 24.859,44.419 24.622,43.978 C24.384,43.536 24.266,43.028 24.266,42.453 C24.266,41.878 24.384,41.37 24.622,40.929 C24.859,40.488 25.184,40.142 25.597,39.891 C26.01,39.64 26.485,39.514 27.021,39.514 C27.557,39.514 28.033,39.64 28.449,39.891 C28.865,40.142 29.191,40.488 29.429,40.929 C29.666,41.37 29.785,41.878 29.785,42.453 C29.785,43.028 29.666,43.536 29.429,43.978 C29.191,44.419 28.865,44.765 28.449,45.016 C28.033,45.268 27.557,45.393 27.021,45.393 Z"/>
    <polyline fill="#404040" points="31.82 45.301 30.974 45.301 30.974 39.606 34.517 39.606 34.517 40.317 31.82 40.317 31.82 42.244 34.106 42.244 34.106 42.956 31.82 42.956 31.82 45.301"/>
    <polyline fill="#404040" points="38.93 45.301 38.93 40.317 37.012 40.317 37.012 39.606 41.694 39.606 41.694 40.317 39.776 40.317 39.776 45.301 38.93 45.301"/>
    <polyline fill="#404040" points="42.666 45.301 42.666 39.606 43.511 39.606 43.511 42.043 46.451 42.043 46.451 39.606 47.297 39.606 47.297 45.301 46.451 45.301 46.451 42.771 43.511 42.771 43.511 45.301 42.666 45.301"/>
    <polyline fill="#404040" points="48.788 45.301 48.788 39.606 52.439 39.606 52.439 40.317 49.633 40.317 49.633 42.076 52.104 42.076 52.104 42.788 49.633 42.788 49.633 44.589 52.506 44.589 52.506 45.301 48.788 45.301"/>
    <path fill="#404040" d="M57.849 44.656C58.313 44.656 58.677 44.517 58.942 44.237 59.207 43.958 59.34 43.581 59.34 43.107L59.34 39.606 60.186 39.606 60.186 43.115C60.186 43.824 59.978 44.381 59.562 44.786 59.146 45.19 58.575 45.393 57.849 45.393 57.123 45.393 56.554 45.19 56.141 44.786 55.727 44.381 55.521 43.824 55.521 43.115L55.521 39.606 56.367 39.606 56.367 43.107C56.367 43.581 56.499 43.958 56.765 44.237 57.03 44.517 57.391 44.656 57.849 44.656M63.343 45.393C62.913 45.393 62.503 45.317 62.112 45.167 61.721 45.016 61.406 44.815 61.166 44.564L61.643 44.003C61.866 44.209 62.13 44.371 62.435 44.488 62.739 44.605 63.042 44.664 63.343 44.664 63.712 44.664 64.009 44.593 64.235 44.451 64.462 44.309 64.574 44.111 64.574 43.86 64.574 43.632 64.493 43.439 64.332 43.282 64.17 43.126 63.893 42.995 63.503 42.889L62.715 42.68C62.207 42.545 61.837 42.355 61.606 42.11 61.374 41.864 61.258 41.543 61.258 41.146 61.258 40.823 61.344 40.538 61.518 40.293 61.691 40.047 61.929 39.856 62.234 39.719 62.538 39.582 62.882 39.514 63.268 39.514 63.675 39.514 64.058 39.591 64.415 39.744 64.773 39.897 65.088 40.111 65.362 40.385L64.851 40.938C64.61 40.714 64.361 40.542 64.101 40.422 63.842 40.303 63.567 40.242 63.277 40.242 62.924 40.242 62.637 40.316 62.414 40.464 62.19 40.612 62.079 40.817 62.079 41.08 62.079 41.32 62.158 41.507 62.317 41.641 62.477 41.775 62.721 41.887 63.05 41.976L63.929 42.219C64.438 42.358 64.809 42.554 65.044 42.805 65.278 43.057 65.395 43.369 65.395 43.743 65.395 44.072 65.309 44.361 65.135 44.609 64.963 44.858 64.722 45.051 64.415 45.188 64.108 45.324 63.751 45.393 63.343 45.393M67.522 43.157L69.599 43.157 68.561 40.485 67.522 43.157zM70.428 45.301L69.876 43.869 67.246 43.869 66.693 45.301 65.839 45.301 68.117 39.606 69.03 39.606 71.299 45.301 70.428 45.301z"/>
    <polyline fill="#404040" points="75.235 45.301 75.235 40.317 73.318 40.317 73.318 39.606 77.999 39.606 77.999 40.317 76.081 40.317 76.081 45.301 75.235 45.301"/>
    <path fill="#404040" d="M81.048 44.656C81.416 44.656 81.744 44.562 82.031 44.375 82.319 44.189 82.544 43.93 82.706 43.601 82.868 43.272 82.949 42.889 82.949 42.453 82.949 42.018 82.868 41.636 82.706 41.306 82.544 40.977 82.319 40.719 82.031 40.531 81.744 40.344 81.416 40.251 81.048 40.251 80.679 40.251 80.352 40.344 80.068 40.531 79.783 40.719 79.56 40.977 79.398 41.306 79.235 41.636 79.155 42.018 79.155 42.453 79.155 42.889 79.235 43.272 79.398 43.601 79.56 43.93 79.783 44.189 80.068 44.375 80.352 44.562 80.679 44.656 81.048 44.656zM81.048 45.393C80.511 45.393 80.037 45.268 79.624 45.016 79.211 44.765 78.885 44.419 78.648 43.978 78.411 43.536 78.292 43.028 78.292 42.453 78.292 41.878 78.411 41.37 78.648 40.929 78.885 40.488 79.211 40.142 79.624 39.891 80.037 39.64 80.511 39.514 81.048 39.514 81.584 39.514 82.06 39.64 82.475 39.891 82.891 40.142 83.218 40.488 83.455 40.929 83.693 41.37 83.811 41.878 83.811 42.453 83.811 43.028 83.693 43.536 83.455 43.978 83.218 44.419 82.891 44.765 82.475 45.016 82.06 45.268 81.584 45.393 81.048 45.393zM85.847 44.589L87.003 44.589C87.404 44.589 87.749 44.501 88.037 44.325 88.324 44.149 88.545 43.902 88.698 43.584 88.852 43.266 88.929 42.889 88.929 42.453 88.929 42.018 88.852 41.641 88.698 41.322 88.545 41.005 88.324 40.758 88.037 40.581 87.749 40.405 87.404 40.317 87.003 40.317L85.847 40.317 85.847 44.589zM85.001 45.301L85.001 39.606 87.003 39.606C87.561 39.606 88.049 39.725 88.468 39.962 88.887 40.199 89.212 40.531 89.444 40.958 89.675 41.386 89.791 41.884 89.791 42.453 89.791 43.023 89.675 43.521 89.444 43.948 89.212 44.375 88.887 44.708 88.468 44.945 88.049 45.183 87.561 45.301 87.003 45.301L85.001 45.301zM91.952 43.157L94.029 43.157 92.99 40.485 91.952 43.157zM94.858 45.301L94.305 43.869 91.675 43.869 91.123 45.301 90.269 45.301 92.547 39.606 93.46 39.606 95.729 45.301 94.858 45.301z"/>
    <polyline fill="#404040" points="98.325 43.039 98.325 45.301 97.48 45.301 97.48 43.039 95.478 39.606 96.474 39.606 97.906 42.235 99.339 39.606 100.318 39.606 98.325 43.039"/>
    <polyline fill="#404040" points="107.086 45.301 104.046 40.938 104.046 45.301 103.25 45.301 103.25 39.606 104.037 39.606 107.086 43.969 107.086 39.606 107.873 39.606 107.873 45.301 107.086 45.301"/>
    <polyline fill="#404040" points="109.363 45.301 109.363 39.606 113.015 39.606 113.015 40.317 110.209 40.317 110.209 42.076 112.68 42.076 112.68 42.788 110.209 42.788 110.209 44.589 113.082 44.589 113.082 45.301 109.363 45.301"/>
    <polyline fill="#404040" points="115.594 45.301 115.594 40.317 113.676 40.317 113.676 39.606 118.358 39.606 118.358 40.317 116.44 40.317 116.44 45.301 115.594 45.301"/>
    <polyline fill="#404040" points="123.885 45.301 122.554 40.762 121.222 45.301 120.343 45.301 118.827 39.606 119.665 39.606 120.82 44.111 122.152 39.606 122.956 39.606 124.296 44.128 125.46 39.606 126.281 39.606 124.765 45.301 123.885 45.301"/>
    <path fill="#404040" d="M129.639 44.656C130.007 44.656 130.336 44.562 130.624 44.375 130.911 44.189 131.135 43.93 131.298 43.601 131.46 43.272 131.541 42.889 131.541 42.453 131.541 42.018 131.46 41.636 131.298 41.306 131.135 40.977 130.911 40.719 130.624 40.531 130.336 40.344 130.007 40.251 129.639 40.251 129.271 40.251 128.944 40.344 128.66 40.531 128.375 40.719 128.151 40.977 127.989 41.306 127.827 41.636 127.747 42.018 127.747 42.453 127.747 42.889 127.827 43.272 127.989 43.601 128.151 43.93 128.375 44.189 128.66 44.375 128.944 44.562 129.271 44.656 129.639 44.656zM129.639 45.393C129.103 45.393 128.629 45.268 128.215 45.016 127.802 44.765 127.477 44.419 127.24 43.978 127.003 43.536 126.884 43.028 126.884 42.453 126.884 41.878 127.003 41.37 127.24 40.929 127.477 40.488 127.802 40.142 128.215 39.891 128.629 39.64 129.103 39.514 129.639 39.514 130.175 39.514 130.651 39.64 131.067 39.891 131.483 40.142 131.81 40.488 132.048 40.929 132.285 41.37 132.403 41.878 132.403 42.453 132.403 43.028 132.285 43.536 132.048 43.978 131.81 44.419 131.483 44.765 131.067 45.016 130.651 45.268 130.175 45.393 129.639 45.393zM134.437 42.294L135.602 42.294C135.964 42.294 136.254 42.205 136.468 42.026 136.683 41.848 136.791 41.607 136.791 41.306 136.791 41.005 136.683 40.765 136.468 40.586 136.254 40.407 135.964 40.317 135.602 40.317L134.437 40.317 134.437 42.294zM134.437 42.989L134.437 45.301 133.591 45.301 133.591 39.606 135.602 39.606C136.233 39.606 136.732 39.758 137.101 40.063 137.469 40.366 137.654 40.781 137.654 41.306 137.654 41.702 137.542 42.037 137.319 42.311 137.095 42.585 136.788 42.777 136.397 42.889L137.779 45.301 136.816 45.301 135.518 42.989 134.437 42.989z"/>
    <polyline fill="#404040" points="142.252 45.301 139.697 42.428 139.697 45.301 138.851 45.301 138.851 39.606 139.697 39.606 139.697 42.102 142.085 39.606 143.131 39.606 140.593 42.219 143.315 45.301 142.252 45.301"/>
    <path class="no-color-change" fill="#009BFF" d="M13.117 27.425C14.467 27.425 15.554 26.893 16.38 25.827 17.204 24.763 17.617 23.346 17.617 21.575 17.617 19.805 17.204 18.388 16.38 17.322 15.554 16.258 14.467 15.725 13.117 15.725 11.737 15.725 10.634 16.258 9.81 17.322 8.984 18.388 8.572 19.805 8.572 21.575 8.572 23.346 8.984 24.763 9.81 25.827 10.634 26.893 11.737 27.425 13.117 27.425zM18.157 33.05L17.752 30.035C17.032 31.146 16.102 32.022 14.962 32.667 13.821 33.312 12.501 33.635 11.002 33.635 8.932 33.635 7.116 33.124 5.557 32.104 3.997 31.085 2.782 29.668 1.912 27.853 1.042 26.037.607 23.945.607 21.575.607 19.205 1.042 17.12 1.912 15.319 2.782 13.52 3.974 12.11 5.489 11.09 7.004 10.07 8.752 9.56 10.732 9.56 12.111 9.56 13.387 9.853 14.557 10.438 15.727 11.023 16.701 11.81 17.482 12.8L17.482.2 25.312.2 25.312 33.05 18.157 33.05zM41.646 15.23C39.096 15.23 37.566 16.58 37.057 19.28L45.787 19.28C45.576 17.811 45.074 16.768 44.279 16.152 43.484 15.538 42.606 15.23 41.646 15.23zM52.356 30.71C51.216 31.52 49.769 32.21 48.014 32.78 46.259 33.35 44.392 33.635 42.412 33.635 39.682 33.635 37.349 33.132 35.414 32.127 33.479 31.122 31.994 29.72 30.959 27.92 29.924 26.12 29.407 24.05 29.407 21.71 29.407 19.34 29.917 17.24 30.937 15.41 31.956 13.58 33.367 12.148 35.167 11.112 36.967 10.077 39.066 9.56 41.467 9.56 43.807 9.56 45.869 10.063 47.654 11.067 49.438 12.073 50.834 13.468 51.839 15.252 52.844 17.037 53.347 19.13 53.347 21.53 53.347 21.86 53.324 22.205 53.279 22.565 53.234 22.925 53.182 23.3 53.122 23.69L37.146 23.69C37.867 26.33 39.831 27.649 43.042 27.649 44.481 27.649 45.756 27.425 46.867 26.975 47.976 26.524 48.906 26.075 49.657 25.625L52.356 30.71z"/>
    <polygon class="no-color-change" fill="#009BFF" points="57.352 33.05 65.182 33.05 65.182 .2 57.352 .2"/>
    <path class="no-color-change" fill="#009BFF" d="M78.502 19.865L78.502 33.05 70.671 33.05 70.671 10.145 77.871 10.145 78.276 13.069C78.966 11.96 79.866 11.12 80.976 10.55 82.086 9.981 83.272 9.694 84.531 9.694 85.881 9.694 87.111 9.995 88.221 10.595 89.331 11.195 90.231 12.035 90.921 13.115 91.732 12.005 92.789 11.157 94.094 10.572 95.399 9.987 96.772 9.694 98.211 9.694 99.801 9.694 101.204 10.063 102.419 10.797 103.634 11.533 104.586 12.553 105.276 13.857 105.966 15.162 106.311 16.67 106.311 18.38L106.311 33.05 98.482 33.05 98.482 19.19C98.482 18.231 98.218 17.465 97.694 16.895 97.169 16.325 96.502 16.04 95.691 16.04 94.701 16.04 93.906 16.355 93.306 16.984 92.706 17.615 92.406 18.575 92.406 19.865L92.406 33.05 84.576 33.05 84.576 19.19C84.576 18.231 84.321 17.465 83.811 16.895 83.301 16.325 82.611 16.04 81.741 16.04 80.781 16.04 80.001 16.355 79.401 16.984 78.801 17.615 78.502 18.575 78.502 19.865M117.562 25.625C117.562 26.315 117.816 26.878 118.326 27.313 118.836 27.747 119.497 27.965 120.306 27.965 121.386 27.965 122.294 27.598 123.029 26.862 123.764 26.128 124.131 25.205 124.131 24.095L124.131 23.33C123.321 23.18 122.466 23.105 121.566 23.105 120.426 23.105 119.474 23.3 118.709 23.69 117.944 24.08 117.562 24.725 117.562 25.625zM124.446 33.05L124.042 30.035C122.541 32.436 120.261 33.635 117.201 33.635 115.852 33.635 114.628 33.343 113.534 32.757 112.439 32.172 111.569 31.37 110.924 30.35 110.278 29.33 109.957 28.145 109.957 26.795 109.957 24.245 110.954 22.266 112.949 20.855 114.944 19.445 117.576 18.74 120.846 18.74 121.866 18.74 122.946 18.83 124.086 19.01 123.966 17.87 123.479 17.007 122.624 16.422 121.769 15.837 120.726 15.545 119.497 15.545 118.417 15.545 117.329 15.747 116.234 16.152 115.138 16.558 114.096 17.045 113.107 17.615L110.451 12.575C111.951 11.615 113.571 10.872 115.312 10.348 117.051 9.823 118.791 9.56 120.531 9.56 122.631 9.56 124.521 9.92 126.201 10.64 127.881 11.359 129.201 12.455 130.161 13.925 131.121 15.396 131.602 17.255 131.602 19.505L131.602 33.05 124.446 33.05zM144.426 24.185L144.426 33.05 136.596 33.05 136.596 10.145 143.751 10.145 144.245 13.97C144.726 12.74 145.513 11.742 146.608 10.978 147.703 10.212 148.971 9.83 150.41 9.83 151.221 9.83 151.835 9.936 152.256 10.145L152.256 17.3C151.925 17.181 151.558 17.09 151.153 17.03 150.748 16.97 150.29 16.94 149.78 16.94 148.221 16.94 146.938 17.518 145.933 18.672 144.928 19.827 144.426 21.665 144.426 24.185"/>
    <polyline class="no-color-change" fill="#009BFF" points="180.471 10.145 171.606 33.05 163.056 33.05 154.19 10.145 162.785 10.145 167.465 24.95 172.056 10.145 180.471 10.145"/>
    <path class="no-color-change" fill="#009BFF" d="M189.38,25.625 C189.38,26.315 189.634,26.878 190.145,27.313 C190.654,27.747 191.315,27.965 192.125,27.965 C193.205,27.965 194.111,27.598 194.848,26.862 C195.582,26.128 195.95,25.205 195.95,24.095 L195.95,23.33 C195.14,23.18 194.285,23.105 193.385,23.105 C192.244,23.105 191.292,23.3 190.527,23.69 C189.763,24.08 189.38,24.725 189.38,25.625 Z M196.265,33.05 L195.859,30.035 C194.359,32.436 192.08,33.635 189.02,33.635 C187.67,33.635 186.447,33.343 185.353,32.757 C184.257,32.172 183.387,31.37 182.742,30.35 C182.097,29.33 181.774,28.145 181.774,26.795 C181.774,24.245 182.772,22.266 184.768,20.855 C186.762,19.445 189.395,18.74 192.665,18.74 C193.685,18.74 194.765,18.83 195.904,19.01 C195.784,17.87 195.297,17.007 194.442,16.422 C193.587,15.837 192.545,15.545 191.315,15.545 C190.234,15.545 189.148,15.747 188.052,16.152 C186.957,16.558 185.915,17.045 184.925,17.615 L182.27,12.575 C183.77,11.615 185.39,10.872 187.13,10.348 C188.869,9.823 190.609,9.56 192.35,9.56 C194.449,9.56 196.339,9.92 198.02,10.64 C199.699,11.359 201.02,12.455 201.98,13.925 C202.94,15.396 203.42,17.255 203.42,19.505 L203.42,33.05 L196.265,33.05 Z"/>
    <path fill="#404040" d="M227.045 20.405L227.045 33.05 219.215 33.05 219.215 10.145 226.37 10.145 226.774 13.16C227.524 12.08 228.499 11.21 229.7 10.55 230.899 9.891 232.22 9.56 233.66 9.56 236.149 9.56 238.145 10.37 239.645 11.99 241.145 13.609 241.895 15.935 241.895 18.965L241.895 33.05 234.065 33.05 234.065 19.865C234.065 18.515 233.765 17.518 233.165 16.872 232.565 16.228 231.725 15.905 230.645 15.905 229.565 15.905 228.694 16.25 228.035 16.94 227.374 17.63 227.045 18.785 227.045 20.405M258.095 27.425C259.474 27.425 260.576 26.893 261.402 25.827 262.227 24.763 262.64 23.346 262.64 21.575 262.64 19.805 262.227 18.396 261.402 17.345 260.576 16.295 259.474 15.77 258.095 15.77 256.714 15.77 255.611 16.295 254.787 17.345 253.961 18.396 253.55 19.805 253.55 21.575 253.55 23.346 253.961 24.763 254.787 25.827 255.611 26.893 256.714 27.425 258.095 27.425zM258.095 33.635C255.634 33.635 253.467 33.117 251.592 32.082 249.717 31.047 248.246 29.63 247.182 27.83 246.116 26.03 245.584 23.945 245.584 21.575 245.584 19.205 246.116 17.12 247.182 15.319 248.246 13.52 249.717 12.11 251.592 11.09 253.467 10.07 255.634 9.56 258.095 9.56 260.554 9.56 262.722 10.07 264.597 11.09 266.472 12.11 267.941 13.52 269.007 15.319 270.071 17.12 270.605 19.205 270.605 21.575 270.605 23.945 270.071 26.03 269.007 27.83 267.941 29.63 266.472 31.047 264.597 32.082 262.722 33.117 260.554 33.635 258.095 33.635z"/>
    <polyline fill="#404040" points="293.374 33.05 289.685 19.145 286.039 33.05 277.94 33.05 271.999 10.145 280.009 10.145 282.395 24.905 286.265 10.145 293.149 10.145 297.154 24.95 299.584 10.145 307.414 10.145 301.475 33.05 293.374 33.05"/>
    <path class="no-color-change" fill="#009BFF" d="M313.94,33.5 C312.68,33.5 311.614,33.057 310.744,32.172 C309.874,31.288 309.44,30.231 309.44,29 C309.44,27.8 309.874,26.758 310.744,25.872 C311.614,24.987 312.68,24.545 313.94,24.545 C315.169,24.545 316.227,24.987 317.112,25.872 C317.996,26.758 318.44,27.8 318.44,29 C318.44,30.231 317.996,31.288 317.112,32.172 C316.227,33.057 315.169,33.5 313.94,33.5"/>
  </g>
</svg>
