<svg xmlns="http://www.w3.org/2000/svg" width="527" height="48" viewBox="0 0 527 48">
  <g fill="none" fill-rule="evenodd">
    <path stroke="#404040" stroke-width=".504" d="M254.868,24.303 L254.868,0.231"/>
    <path fill="#404040" d="M3.559 43.309L5.039 43.309C5.525 43.309 5.91 43.19 6.193 42.95 6.476 42.71 6.618 42.384 6.618 41.97 6.618 41.556 6.476 41.23 6.193 40.99 5.91 40.751 5.525 40.631 5.039 40.631L3.559 40.631 3.559 43.309zM2.459 47.108L2.459 39.705 5.039 39.705C5.866 39.705 6.523 39.909 7.01 40.316 7.496 40.722 7.739 41.273 7.739 41.97 7.739 42.659 7.496 43.206 7.01 43.609 6.523 44.011 5.866 44.213 5.039 44.213L3.559 44.213 3.559 47.108 2.459 47.108 2.459 47.108zM9.96 44.322L12.66 44.322 11.31 40.849 9.96 44.322zM13.737 47.108L13.019 45.248 9.6 45.248 8.882 47.108 7.772 47.108 10.733 39.705 11.92 39.705 14.87 47.108 13.737 47.108 13.737 47.108zM17.199 43.2L18.712 43.2C19.184 43.2 19.559 43.085 19.839 42.852 20.118 42.62 20.258 42.308 20.258 41.915 20.258 41.524 20.118 41.212 19.839 40.98 19.559 40.748 19.184 40.631 18.712 40.631L17.199 40.631 17.199 43.2zM17.199 44.104L17.199 47.108 16.1 47.108 16.1 39.705 18.712 39.705C19.532 39.705 20.182 39.903 20.661 40.299 21.14 40.694 21.379 41.234 21.379 41.915 21.379 42.431 21.234 42.866 20.944 43.222 20.654 43.578 20.254 43.828 19.746 43.973L21.543 47.108 20.291 47.108 18.603 44.104 17.199 44.104 17.199 44.104z"/>
    <polyline fill="#404040" points="24.537 47.108 24.537 40.631 22.044 40.631 22.044 39.705 28.129 39.705 28.129 40.631 25.636 40.631 25.636 47.108 24.537 47.108"/>
    <path fill="#404040" d="M35.194,46.271 C35.673,46.271 36.099,46.149 36.473,45.905 C36.847,45.663 37.139,45.326 37.349,44.899 C37.56,44.471 37.665,43.973 37.665,43.407 C37.665,42.841 37.56,42.345 37.349,41.915 C37.139,41.488 36.847,41.153 36.473,40.909 C36.099,40.665 35.673,40.545 35.194,40.545 C34.715,40.545 34.29,40.665 33.92,40.909 C33.55,41.153 33.26,41.488 33.049,41.915 C32.839,42.345 32.734,42.841 32.734,43.407 C32.734,43.973 32.839,44.471 33.049,44.899 C33.26,45.326 33.55,45.663 33.92,45.905 C34.29,46.149 34.715,46.271 35.194,46.271 Z M35.194,47.228 C34.497,47.228 33.88,47.065 33.343,46.738 C32.806,46.412 32.383,45.962 32.075,45.388 C31.767,44.815 31.612,44.155 31.612,43.407 C31.612,42.659 31.767,41.999 32.075,41.426 C32.383,40.853 32.806,40.402 33.343,40.076 C33.88,39.75 34.497,39.586 35.194,39.586 C35.891,39.586 36.51,39.75 37.05,40.076 C37.591,40.402 38.015,40.853 38.324,41.426 C38.632,41.999 38.786,42.659 38.786,43.407 C38.786,44.155 38.632,44.815 38.324,45.388 C38.015,45.962 37.591,46.412 37.05,46.738 C36.51,47.065 35.891,47.228 35.194,47.228 L35.194,47.228 Z"/>
    <polyline fill="#404040" points="41.432 47.108 40.332 47.108 40.332 39.705 44.937 39.705 44.937 40.631 41.432 40.631 41.432 43.135 44.403 43.135 44.403 44.061 41.432 44.061 41.432 47.108"/>
    <polyline fill="#404040" points="50.674 47.108 50.674 40.631 48.181 40.631 48.181 39.705 54.267 39.705 54.267 40.631 51.774 40.631 51.774 47.108 50.674 47.108"/>
    <polyline fill="#404040" points="55.53 47.108 55.53 39.705 56.629 39.705 56.629 42.874 60.45 42.874 60.45 39.705 61.55 39.705 61.55 47.108 60.45 47.108 60.45 43.821 56.629 43.821 56.629 47.108 55.53 47.108"/>
    <polyline fill="#404040" points="63.488 47.108 63.488 39.705 68.234 39.705 68.234 40.631 64.587 40.631 64.587 42.917 67.798 42.917 67.798 43.842 64.587 43.842 64.587 46.183 68.321 46.183 68.321 47.108 63.488 47.108"/>
    <path fill="#404040" d="M75.266 46.271C75.869 46.271 76.342 46.089 76.687 45.726 77.031 45.363 77.204 44.873 77.204 44.256L77.204 39.705 78.303 39.705 78.303 44.268C78.303 45.189 78.033 45.913 77.492 46.44 76.951 46.965 76.209 47.228 75.266 47.228 74.322 47.228 73.582 46.965 73.045 46.44 72.508 45.913 72.24 45.189 72.24 44.268L72.24 39.705 73.339 39.705 73.339 44.256C73.339 44.873 73.511 45.363 73.857 45.726 74.201 46.089 74.671 46.271 75.266 46.271M82.408 47.228C81.849 47.228 81.316 47.13 80.807 46.935 80.299 46.738 79.889 46.478 79.577 46.15L80.198 45.422C80.488 45.689 80.831 45.9 81.227 46.052 81.622 46.205 82.016 46.281 82.408 46.281 82.886 46.281 83.273 46.188 83.567 46.004 83.861 45.819 84.008 45.562 84.008 45.236 84.008 44.939 83.903 44.688 83.693 44.485 83.482 44.282 83.123 44.111 82.615 43.973L81.591 43.702C80.931 43.526 80.45 43.28 80.149 42.961 79.848 42.642 79.697 42.224 79.697 41.708 79.697 41.288 79.809 40.918 80.035 40.599 80.259 40.279 80.57 40.03 80.965 39.853 81.361 39.675 81.809 39.586 82.31 39.586 82.84 39.586 83.336 39.686 83.801 39.886 84.266 40.085 84.676 40.363 85.031 40.718L84.367 41.437C84.055 41.146 83.731 40.923 83.393 40.767 83.055 40.612 82.698 40.533 82.321 40.533 81.863 40.533 81.49 40.629 81.199 40.821 80.909 41.014 80.764 41.281 80.764 41.622 80.764 41.935 80.868 42.177 81.074 42.351 81.281 42.526 81.599 42.671 82.026 42.786L83.17 43.102C83.83 43.284 84.313 43.538 84.618 43.864 84.923 44.192 85.075 44.598 85.075 45.084 85.075 45.512 84.963 45.887 84.737 46.21 84.513 46.534 84.2 46.784 83.801 46.961 83.402 47.139 82.937 47.228 82.408 47.228M87.84 44.322L90.54 44.322 89.19 40.849 87.84 44.322zM91.617 47.108L90.899 45.248 87.48 45.248 86.762 47.108 85.652 47.108 88.613 39.705 89.8 39.705 92.75 47.108 91.617 47.108 91.617 47.108z"/>
    <polyline fill="#404040" points="97.866 47.108 97.866 40.631 95.373 40.631 95.373 39.705 101.458 39.705 101.458 40.631 98.965 40.631 98.965 47.108 97.866 47.108"/>
    <path fill="#404040" d="M105.421 46.271C105.9 46.271 106.326 46.149 106.7 45.905 107.074 45.663 107.366 45.326 107.576 44.899 107.787 44.471 107.892 43.973 107.892 43.407 107.892 42.841 107.787 42.345 107.576 41.915 107.366 41.488 107.074 41.153 106.7 40.909 106.326 40.665 105.9 40.545 105.421 40.545 104.942 40.545 104.517 40.665 104.147 40.909 103.777 41.153 103.487 41.488 103.276 41.915 103.065 42.345 102.961 42.841 102.961 43.407 102.961 43.973 103.065 44.471 103.276 44.899 103.487 45.326 103.777 45.663 104.147 45.905 104.517 46.149 104.942 46.271 105.421 46.271zM105.421 47.228C104.724 47.228 104.107 47.065 103.57 46.738 103.033 46.412 102.61 45.962 102.302 45.388 101.993 44.815 101.839 44.155 101.839 43.407 101.839 42.659 101.993 41.999 102.302 41.426 102.61 40.853 103.033 40.402 103.57 40.076 104.107 39.75 104.724 39.586 105.421 39.586 106.118 39.586 106.737 39.75 107.277 40.076 107.817 40.402 108.242 40.853 108.551 41.426 108.859 41.999 109.013 42.659 109.013 43.407 109.013 44.155 108.859 44.815 108.551 45.388 108.242 45.962 107.817 46.412 107.277 46.738 106.737 47.065 106.118 47.228 105.421 47.228L105.421 47.228zM111.659 46.183L113.162 46.183C113.684 46.183 114.132 46.069 114.506 45.84 114.88 45.612 115.167 45.291 115.366 44.877 115.566 44.463 115.665 43.973 115.665 43.407 115.665 42.841 115.566 42.351 115.366 41.937 115.167 41.524 114.88 41.203 114.506 40.974 114.132 40.745 113.684 40.631 113.162 40.631L111.659 40.631 111.659 46.183zM110.56 47.108L110.56 39.705 113.162 39.705C113.887 39.705 114.522 39.86 115.066 40.169 115.611 40.477 116.034 40.909 116.335 41.464 116.636 42.02 116.786 42.667 116.786 43.407 116.786 44.147 116.636 44.796 116.335 45.35 116.034 45.905 115.611 46.338 115.066 46.646 114.522 46.955 113.887 47.108 113.162 47.108L110.56 47.108 110.56 47.108zM119.595 44.322L122.295 44.322 120.945 40.849 119.595 44.322zM123.373 47.108L122.654 45.248 119.236 45.248 118.517 47.108 117.407 47.108 120.368 39.705 121.555 39.705 124.505 47.108 123.373 47.108 123.373 47.108z"/>
    <polyline fill="#404040" points="127.88 44.169 127.88 47.108 126.78 47.108 126.78 44.169 124.178 39.705 125.473 39.705 127.335 43.124 129.197 39.705 130.47 39.705 127.88 44.169"/>
    <polyline fill="#404040" points="139.267 47.108 135.315 41.437 135.315 47.108 134.281 47.108 134.281 39.705 135.304 39.705 139.267 45.377 139.267 39.705 140.29 39.705 140.29 47.108 139.267 47.108"/>
    <polyline fill="#404040" points="142.228 47.108 142.228 39.705 146.974 39.705 146.974 40.631 143.327 40.631 143.327 42.917 146.538 42.917 146.538 43.842 143.327 43.842 143.327 46.183 147.061 46.183 147.061 47.108 142.228 47.108"/>
    <polyline fill="#404040" points="150.327 47.108 150.327 40.631 147.834 40.631 147.834 39.705 153.919 39.705 153.919 40.631 151.426 40.631 151.426 47.108 150.327 47.108"/>
    <polyline fill="#404040" points="161.104 47.108 159.373 41.208 157.643 47.108 156.499 47.108 154.529 39.705 155.618 39.705 157.12 45.562 158.851 39.705 159.896 39.705 161.638 45.584 163.151 39.705 164.218 39.705 162.247 47.108 161.104 47.108"/>
    <path fill="#404040" d="M168.583 46.271C169.062 46.271 169.489 46.149 169.863 45.905 170.236 45.663 170.528 45.326 170.739 44.899 170.95 44.471 171.055 43.973 171.055 43.407 171.055 42.841 170.95 42.345 170.739 41.915 170.528 41.488 170.236 41.153 169.863 40.909 169.489 40.665 169.062 40.545 168.583 40.545 168.105 40.545 167.68 40.665 167.31 40.909 166.94 41.153 166.649 41.488 166.438 41.915 166.227 42.345 166.123 42.841 166.123 43.407 166.123 43.973 166.227 44.471 166.438 44.899 166.649 45.326 166.94 45.663 167.31 45.905 167.68 46.149 168.105 46.271 168.583 46.271zM168.583 47.228C167.887 47.228 167.27 47.065 166.733 46.738 166.196 46.412 165.773 45.962 165.465 45.388 165.156 44.815 165.002 44.155 165.002 43.407 165.002 42.659 165.156 41.999 165.465 41.426 165.773 40.853 166.196 40.402 166.733 40.076 167.27 39.75 167.887 39.586 168.583 39.586 169.28 39.586 169.899 39.75 170.439 40.076 170.98 40.402 171.405 40.853 171.714 41.426 172.022 41.999 172.176 42.659 172.176 43.407 172.176 44.155 172.022 44.815 171.714 45.388 171.405 45.962 170.98 46.412 170.439 46.738 169.899 47.065 169.28 47.228 168.583 47.228L168.583 47.228zM174.82 43.2L176.334 43.2C176.805 43.2 177.181 43.085 177.46 42.852 177.74 42.62 177.879 42.308 177.879 41.915 177.879 41.524 177.74 41.212 177.46 40.98 177.181 40.748 176.805 40.631 176.334 40.631L174.82 40.631 174.82 43.2zM174.82 44.104L174.82 47.108 173.721 47.108 173.721 39.705 176.334 39.705C177.154 39.705 177.803 39.903 178.283 40.299 178.761 40.694 179.001 41.234 179.001 41.915 179.001 42.431 178.855 42.866 178.566 43.222 178.275 43.578 177.875 43.828 177.368 43.973L179.164 47.108 177.912 47.108 176.225 44.104 174.82 44.104 174.82 44.104z"/>
    <polyline fill="#404040" points="184.978 47.108 181.657 43.374 181.657 47.108 180.558 47.108 180.558 39.705 181.657 39.705 181.657 42.95 184.761 39.705 186.121 39.705 182.822 43.102 186.36 47.108 184.978 47.108"/>
    <path fill="#009BFF" d="M9.779 19.832C10.751 19.832 11.534 19.449 12.128 18.682 12.722 17.916 13.019 16.896 13.019 15.621 13.019 14.347 12.722 13.326 12.128 12.559 11.534 11.793 10.751 11.409 9.779 11.409 8.786 11.409 7.992 11.793 7.398 12.559 6.804 13.326 6.507 14.347 6.507 15.621 6.507 16.896 6.804 17.916 7.398 18.682 7.992 19.449 8.786 19.832 9.779 19.832zM13.408 23.882L13.116 21.711C12.598 22.511 11.928 23.142 11.108 23.606 10.286 24.071 9.336 24.303 8.257 24.303 6.766 24.303 5.46 23.935 4.337 23.201 3.214 22.467 2.339 21.447 1.713 20.14 1.086 18.833.774 17.327.774 15.621.774 13.915 1.086 12.414 1.713 11.118 2.339 9.822 3.198 8.807 4.288 8.073 5.379 7.339 6.637 6.971 8.062 6.971 9.055 6.971 9.974 7.182 10.816 7.603 11.658 8.024 12.36 8.591 12.922 9.304L12.922.233 18.558.233 18.558 23.882 13.408 23.882 13.408 23.882zM30.317 11.053C28.481 11.053 27.38 12.025 27.013 13.969L33.298 13.969C33.146 12.911 32.785 12.16 32.213 11.717 31.64 11.275 31.008 11.053 30.317 11.053zM38.027 22.197C37.207 22.78 36.165 23.277 34.901 23.687 33.638 24.097 32.294 24.303 30.868 24.303 28.903 24.303 27.224 23.941 25.831 23.217 24.438 22.494 23.369 21.484 22.624 20.188 21.879 18.893 21.506 17.403 21.506 15.718 21.506 14.012 21.873 12.5 22.607 11.183 23.341 9.865 24.357 8.834 25.653 8.089 26.949 7.344 28.46 6.971 30.188 6.971 31.872 6.971 33.357 7.333 34.642 8.057 35.927 8.781 36.931 9.785 37.655 11.069 38.378 12.354 38.74 13.861 38.74 15.589 38.74 15.826 38.724 16.075 38.692 16.333 38.659 16.593 38.621 16.863 38.578 17.143L27.078 17.143C27.596 19.044 29.01 19.994 31.322 19.994 32.358 19.994 33.276 19.832 34.075 19.508 34.874 19.184 35.544 18.861 36.084 18.536L38.027 22.197 38.027 22.197z"/>
    <polygon fill="#009BFF" points="41.623 23.881 47.26 23.881 47.26 .233 41.623 .233"/>
    <path fill="#009BFF" d="M56.849 14.39L56.849 23.882 51.212 23.882 51.212 7.392 56.395 7.392 56.687 9.498C57.183 8.699 57.831 8.095 58.63 7.684 59.429 7.274 60.283 7.068 61.19 7.068 62.162 7.068 63.047 7.285 63.846 7.716 64.645 8.149 65.293 8.753 65.79 9.531 66.373 8.731 67.134 8.121 68.074 7.7 69.013 7.279 70.001 7.068 71.038 7.068 72.182 7.068 73.192 7.333 74.067 7.862 74.941 8.392 75.627 9.126 76.124 10.065 76.62 11.004 76.869 12.09 76.869 13.321L76.869 23.882 71.232 23.882 71.232 13.904C71.232 13.213 71.043 12.662 70.665 12.252 70.287 11.842 69.807 11.636 69.224 11.636 68.511 11.636 67.939 11.863 67.507 12.316 67.074 12.77 66.859 13.461 66.859 14.39L66.859 23.882 61.222 23.882 61.222 13.904C61.222 13.213 61.038 12.662 60.671 12.252 60.304 11.842 59.807 11.636 59.181 11.636 58.49 11.636 57.928 11.863 57.497 12.316 57.064 12.77 56.849 13.461 56.849 14.39M84.968 18.536C84.968 19.034 85.151 19.438 85.518 19.751 85.885 20.064 86.361 20.221 86.944 20.221 87.721 20.221 88.374 19.957 88.904 19.427 89.433 18.899 89.697 18.234 89.697 17.435L89.697 16.884C89.114 16.776 88.499 16.722 87.851 16.722 87.03 16.722 86.344 16.863 85.794 17.143 85.243 17.424 84.968 17.888 84.968 18.536zM89.924 23.882L89.633 21.711C88.552 23.439 86.911 24.303 84.708 24.303 83.737 24.303 82.856 24.092 82.068 23.671 81.28 23.249 80.654 22.672 80.189 21.938 79.725 21.204 79.493 20.35 79.493 19.379 79.493 17.543 80.211 16.118 81.647 15.102 83.083 14.088 84.978 13.58 87.332 13.58 88.066 13.58 88.844 13.645 89.665 13.774 89.578 12.954 89.228 12.332 88.612 11.911 87.997 11.49 87.246 11.28 86.361 11.28 85.583 11.28 84.8 11.425 84.012 11.717 83.223 12.009 82.473 12.36 81.761 12.77L79.849 9.142C80.929 8.451 82.095 7.916 83.348 7.538 84.6 7.161 85.853 6.971 87.106 6.971 88.617 6.971 89.978 7.23 91.187 7.749 92.396 8.267 93.347 9.056 94.038 10.114 94.729 11.172 95.075 12.511 95.075 14.131L95.075 23.882 89.924 23.882 89.924 23.882zM104.307 17.5L104.307 23.882 98.67 23.882 98.67 7.392 103.821 7.392 104.177 10.146C104.523 9.261 105.089 8.542 105.878 7.992 106.666 7.441 107.579 7.166 108.615 7.166 109.199 7.166 109.641 7.242 109.944 7.392L109.944 12.543C109.705 12.458 109.441 12.392 109.15 12.349 108.858 12.306 108.529 12.284 108.162 12.284 107.039 12.284 106.115 12.7 105.392 13.531 104.668 14.363 104.307 15.686 104.307 17.5"/>
    <polyline fill="#009BFF" points="130.255 7.392 123.873 23.882 117.718 23.882 111.336 7.392 117.524 7.392 120.893 18.051 124.197 7.392 130.255 7.392"/>
    <path fill="#009BFF" d="M136.669,18.536 C136.669,19.034 136.852,19.438 137.219,19.751 C137.586,20.064 138.062,20.221 138.645,20.221 C139.423,20.221 140.075,19.957 140.605,19.427 C141.134,18.899 141.399,18.234 141.399,17.435 L141.399,16.884 C140.815,16.776 140.2,16.722 139.552,16.722 C138.731,16.722 138.045,16.863 137.495,17.143 C136.944,17.424 136.669,17.888 136.669,18.536 Z M141.625,23.882 L141.333,21.711 C140.254,23.439 138.613,24.303 136.409,24.303 C135.438,24.303 134.558,24.092 133.77,23.671 C132.981,23.249 132.354,22.672 131.89,21.938 C131.426,21.204 131.194,20.35 131.194,19.379 C131.194,17.543 131.912,16.118 133.349,15.102 C134.784,14.088 136.679,13.58 139.034,13.58 C139.768,13.58 140.545,13.645 141.366,13.774 C141.279,12.954 140.928,12.332 140.313,11.911 C139.697,11.49 138.947,11.28 138.062,11.28 C137.284,11.28 136.502,11.425 135.713,11.717 C134.925,12.009 134.175,12.36 133.462,12.77 L131.55,9.142 C132.63,8.451 133.796,7.916 135.049,7.538 C136.301,7.161 137.554,6.971 138.807,6.971 C140.318,6.971 141.679,7.23 142.888,7.749 C144.098,8.267 145.048,9.056 145.739,10.114 C146.43,11.172 146.776,12.511 146.776,14.131 L146.776,23.882 L141.625,23.882 L141.625,23.882 Z"/>
    <path fill="#404040" d="M163.783 14.779L163.783 23.882 158.147 23.882 158.147 7.392 163.298 7.392 163.589 9.563C164.129 8.786 164.83 8.159 165.695 7.684 166.558 7.21 167.509 6.971 168.546 6.971 170.338 6.971 171.774 7.555 172.854 8.721 173.934 9.887 174.473 11.56 174.473 13.742L174.473 23.882 168.837 23.882 168.837 14.39C168.837 13.418 168.621 12.7 168.189 12.235 167.757 11.771 167.152 11.539 166.375 11.539 165.597 11.539 164.971 11.788 164.496 12.284 164.02 12.781 163.783 13.613 163.783 14.779M186.136 19.832C187.128 19.832 187.922 19.449 188.517 18.682 189.11 17.916 189.408 16.896 189.408 15.621 189.408 14.347 189.11 13.332 188.517 12.576 187.922 11.82 187.128 11.442 186.136 11.442 185.142 11.442 184.348 11.82 183.755 12.576 183.16 13.332 182.864 14.347 182.864 15.621 182.864 16.896 183.16 17.916 183.755 18.682 184.348 19.449 185.142 19.832 186.136 19.832zM186.136 24.303C184.364 24.303 182.804 23.93 181.454 23.185 180.105 22.44 179.046 21.42 178.28 20.124 177.513 18.828 177.129 17.327 177.129 15.621 177.129 13.915 177.513 12.414 178.28 11.118 179.046 9.822 180.105 8.807 181.454 8.073 182.804 7.339 184.364 6.971 186.136 6.971 187.906 6.971 189.467 7.339 190.816 8.073 192.166 8.807 193.224 9.822 193.991 11.118 194.758 12.414 195.141 13.915 195.141 15.621 195.141 17.327 194.758 18.828 193.991 20.124 193.224 21.42 192.166 22.44 190.816 23.185 189.467 23.93 187.906 24.303 186.136 24.303L186.136 24.303z"/>
    <polyline fill="#404040" points="211.533 23.882 208.877 13.871 206.253 23.882 200.422 23.882 196.145 7.392 201.911 7.392 203.629 18.018 206.415 7.392 211.371 7.392 214.254 18.051 216.003 7.392 221.64 7.392 217.364 23.882 211.533 23.882"/>
    <path fill="#009BFF" d="M226.337,24.238 C225.646,24.238 225.014,24.07 224.442,23.736 C223.87,23.401 223.416,22.948 223.082,22.375 C222.746,21.803 222.579,21.171 222.579,20.48 C222.579,19.789 222.746,19.157 223.082,18.585 C223.416,18.013 223.87,17.559 224.442,17.224 C225.014,16.89 225.646,16.722 226.337,16.722 C227.028,16.722 227.66,16.89 228.232,17.224 C228.804,17.559 229.258,18.013 229.593,18.585 C229.928,19.157 230.095,19.789 230.095,20.48 C230.095,21.171 229.928,21.803 229.593,22.375 C229.258,22.948 228.804,23.401 228.232,23.736 C227.66,24.07 227.028,24.238 226.337,24.238"/>
    <path fill="#231F20" d="M524.549,10.942 C524.654,11.258 524.693,11.666 525.023,11.653 C525.325,11.64 525.339,11.297 525.312,11.047 L524.72,4.644 C524.706,4.46 524.575,4.341 524.404,4.275 C523.982,4.104 524.048,5.185 523.507,5.237 C522.704,5.316 521.018,4.197 518.567,4.17 C515.498,4.117 512.296,5.935 512.033,9.097 C511.822,11.574 512.652,13.655 515.327,14.617 L519.595,16.145 C521.808,16.936 523.244,17.95 523.204,19.992 C523.152,22.337 521.149,23.51 518.357,23.431 C515.84,23.352 513.759,20.954 513.034,18.135 L512.481,16.014 C512.402,15.671 512.389,15.17 512.033,15.223 C511.77,15.263 511.638,15.526 511.638,15.803 L511.638,23.431 C511.638,23.694 511.875,23.971 512.112,23.958 C512.573,23.944 512.468,23.22 512.981,23.035 C513.798,22.745 516.539,24.168 518.936,24.102 C523.165,23.997 526.313,21.454 526.3,17.66 C526.3,14.169 524.048,12.536 521.11,11.6 L517.092,10.322 C515.801,9.901 514.826,9.058 514.734,7.701 C514.602,5.856 516.71,4.763 518.567,4.816 C521.281,4.895 523.271,7.161 524.034,9.413 L524.549,10.942 Z M507.251,4.302 L493.247,4.302 C492.733,4.302 492.562,4.407 492.549,4.697 C492.496,5.343 493.51,4.908 494.103,5.369 C494.419,5.619 494.709,6.041 494.709,6.555 L494.709,21.349 C494.709,21.929 494.538,22.548 494.195,22.759 C493.247,23.391 492.404,22.864 492.391,23.575 C492.391,23.747 492.601,23.865 492.773,23.865 L508.74,23.865 L510.083,16.672 C510.123,16.422 510.044,16.132 509.807,16.079 C509.53,16.014 509.385,16.369 509.306,16.646 L509.016,17.542 C507.712,21.56 503.443,23.18 501.402,23.101 C498.925,22.996 499.044,21.968 499.044,21.323 L499.044,13.932 L499.781,13.932 C500.361,13.932 501.375,14.288 502.205,14.999 C502.996,15.671 503.312,17.107 503.325,17.436 L503.378,18.121 C503.404,18.385 503.47,18.688 503.813,18.661 C504.195,18.622 504.102,18.319 504.102,18.069 L504.102,9.216 C504.102,9.005 503.944,8.794 503.733,8.794 C503.483,8.807 503.285,8.992 503.285,9.295 L503.285,10.006 C503.285,10.902 502.745,11.732 502.218,12.233 C501.27,13.128 500.084,13.247 499.781,13.247 L499.044,13.247 L499.044,5.04 L500.637,5.04 C501.204,5.04 503.799,5.237 505.38,6.449 C506.619,7.398 507.501,8.623 507.989,9.769 L508.279,10.454 C508.357,10.652 508.542,10.784 508.779,10.691 C509.029,10.599 508.95,10.401 508.898,10.23 L507.251,4.302 Z M484.869,6.963 L484.869,21.336 C484.869,22.113 484.659,22.522 484.316,22.745 C483.671,23.18 482.511,22.851 482.485,23.562 C482.485,23.76 482.722,23.865 482.933,23.865 L491.206,23.865 C491.391,23.865 491.641,23.747 491.627,23.496 C491.601,22.904 490.468,23.246 489.796,22.772 C489.428,22.508 489.098,22.192 489.098,21.309 L489.085,6.7 C489.085,6.186 489.085,5.725 489.441,5.422 C490.073,4.868 491.337,5.198 491.351,4.658 C491.351,4.328 491.008,4.302 490.745,4.302 L485.093,4.302 L479.613,17.818 L473.974,4.302 L468.007,4.302 C467.493,4.302 467.401,4.341 467.401,4.644 C467.401,5.277 468.573,4.855 469.377,5.369 C469.785,5.632 470.088,6.028 470.088,6.568 L470.088,19.347 C470.088,21.244 469.759,21.784 468.942,22.443 C467.888,23.312 466.992,22.851 466.966,23.562 C466.966,23.773 467.242,23.865 467.466,23.865 L473.513,23.865 C473.684,23.865 474.146,23.813 474.133,23.562 C474.08,22.864 473.368,23.352 472.433,22.68 C471.405,21.942 471.01,21.086 471.01,19.32 L471.01,7.595 L477.373,23.233 C477.465,23.444 477.597,23.641 477.834,23.641 C478.072,23.641 478.217,23.444 478.295,23.233 L484.869,6.963 Z M459.339,21.336 C459.339,22.087 459.194,22.416 458.825,22.745 C458.233,23.286 456.929,22.772 456.902,23.562 C456.902,23.773 457.179,23.865 457.403,23.865 L465.781,23.865 C465.953,23.865 466.203,23.813 466.19,23.562 C466.137,22.864 465.136,23.47 464.359,22.811 C463.871,22.403 463.713,21.955 463.713,21.309 L463.7,6.647 C463.7,6.08 463.832,5.672 464.253,5.29 C464.859,4.723 465.953,5.264 465.966,4.631 C465.966,4.302 465.597,4.302 465.32,4.302 L457.679,4.302 C457.152,4.302 457.087,4.341 457.073,4.631 C457.021,5.277 458.312,4.75 458.825,5.303 C459.142,5.659 459.339,6.041 459.339,6.555 L459.339,21.336 Z M450.06,5.369 C450.086,5.369 452.247,5.606 454.249,7.767 C456.08,9.756 456.014,11.284 456.673,11.087 C456.937,11.021 456.897,10.784 456.857,10.573 L455.593,4.249 C455.567,4.091 455.408,3.946 455.25,3.959 C455,3.973 454.868,4.091 454.868,4.302 L441.101,4.302 C441.088,4.117 440.891,4.012 440.759,3.986 C440.575,3.933 440.43,4.144 440.39,4.328 L439.191,10.665 C439.152,10.889 439.165,11.166 439.428,11.218 C440.047,11.337 440.298,8.873 442.326,7.082 C443.921,5.659 445.646,5.395 445.752,5.369 L445.765,21.336 C445.765,21.929 445.633,22.508 445.172,22.772 C444.079,23.417 442.959,22.772 442.933,23.483 C442.933,23.72 443.196,23.865 443.433,23.865 L452.471,23.865 C452.655,23.865 452.892,23.76 452.879,23.51 C452.839,22.811 451.799,23.391 450.679,22.759 C450.152,22.456 450.06,21.955 450.06,21.309 L450.06,5.369 Z M428.109,8.465 C429.097,6.831 429.927,6.093 430.652,5.54 C431.442,4.947 432.048,5.119 432.1,4.631 C432.14,4.302 431.732,4.302 431.455,4.302 L426.041,4.302 C425.513,4.302 425.448,4.341 425.435,4.631 C425.382,5.277 426.238,4.961 426.963,5.725 C427.582,6.383 427.766,7.556 426.989,8.847 L423.972,13.827 L420.586,7.674 C420.099,6.792 419.875,6.107 420.244,5.488 C420.613,4.855 421.851,5.237 421.864,4.605 C421.864,4.275 421.443,4.302 421.14,4.302 L413.249,4.302 C412.722,4.302 412.564,4.341 412.564,4.631 C412.537,5.25 413.209,4.934 414.171,5.646 C414.553,5.922 415.08,6.449 415.554,7.279 L419.954,15.157 L419.954,20.901 C419.954,21.639 419.823,22.311 419.401,22.64 C418.36,23.457 417.517,22.851 417.53,23.562 C417.53,23.773 417.807,23.865 418.018,23.865 L426.436,23.865 C426.607,23.865 426.963,23.76 426.897,23.483 C426.739,22.851 425.817,23.272 424.973,22.693 C424.486,22.363 424.196,22.021 424.196,21.112 L424.183,14.907 L428.109,8.465 Z M412.441,17.305 C411.4,20.928 407.567,22.917 405.63,22.983 C404.102,23.022 403.469,21.995 403.469,21.125 L403.469,6.647 C403.469,6.133 403.509,5.712 403.891,5.356 C404.51,4.789 405.67,5.329 405.696,4.671 C405.709,4.341 405.354,4.302 405.077,4.302 L397.238,4.302 C396.764,4.302 396.659,4.381 396.646,4.684 C396.593,5.316 397.765,4.908 398.477,5.343 C398.885,5.593 399.135,5.988 399.135,6.713 L399.135,20.888 C399.135,21.889 398.845,22.35 398.358,22.706 C397.449,23.365 396.303,22.864 396.277,23.575 C396.277,23.786 396.553,23.865 396.777,23.865 L412.283,23.865 L413.337,16.593 C413.363,16.382 413.337,16.119 413.126,16.066 C412.902,16 412.744,16.264 412.678,16.488 L412.441,17.305 Z M388.423,21.336 C388.423,22.087 388.278,22.416 387.909,22.745 C387.316,23.286 386.012,22.772 385.985,23.562 C385.985,23.773 386.262,23.865 386.486,23.865 L394.865,23.865 C395.036,23.865 395.286,23.813 395.273,23.562 C395.22,22.864 394.219,23.47 393.442,22.811 C392.954,22.403 392.796,21.955 392.796,21.309 L392.783,6.647 C392.783,6.08 392.915,5.672 393.337,5.29 C393.942,4.723 395.036,5.264 395.049,4.631 C395.049,4.302 394.68,4.302 394.404,4.302 L386.763,4.302 C386.236,4.302 386.17,4.341 386.157,4.631 C386.104,5.277 387.395,4.75 387.909,5.303 C388.225,5.659 388.423,6.041 388.423,6.555 L388.423,21.336 Z M373.986,8.162 L377.016,15.803 L371.101,15.803 L373.986,8.162 Z M370.837,16.567 L377.306,16.567 L378.965,20.625 C379.466,21.85 379.374,22.772 378.663,22.996 C377.964,23.207 376.963,22.89 376.989,23.562 C376.989,23.773 377.266,23.865 377.477,23.865 L385.737,23.865 C386.093,23.865 386.435,23.839 386.409,23.562 C386.343,22.943 385.987,23.417 385.118,22.877 C384.591,22.548 384.249,22.074 383.932,21.309 L376.845,4.104 C376.687,3.709 376.66,3.208 376.344,3.116 C375.936,2.984 375.646,3.999 374.5,4.921 C373.999,5.303 372.8,6.173 372.695,6.396 C372.576,6.62 372.892,6.713 373.156,6.884 L373.683,7.24 L369.191,18.517 C368.4,20.532 367.702,21.731 366.635,22.482 C365.568,23.246 364.711,22.851 364.698,23.562 C364.698,23.773 364.975,23.865 365.186,23.865 L371.812,23.865 C371.983,23.865 372.234,23.813 372.22,23.562 C372.168,22.864 371.259,23.299 370.416,22.469 C369.533,21.599 369.401,20.335 370.06,18.596 L370.837,16.567 Z M353.636,5.079 L356.416,5.079 C361.079,5.079 362.673,10.177 362.621,14.578 C362.555,18.767 361.685,22.363 357.14,23.18 C354.993,23.562 353.636,21.955 353.636,21.309 L353.636,5.079 Z M357.615,23.865 C365.255,23.865 367.218,17.41 367.153,14.288 C367.047,8.096 362.818,4.302 357.009,4.302 L347.457,4.302 C347.023,4.302 346.878,4.341 346.851,4.631 C346.812,5.277 347.945,4.908 348.617,5.329 C349.012,5.58 349.328,6.014 349.328,6.555 L349.328,21.336 C349.328,22.074 349.197,22.456 348.814,22.745 C348.195,23.246 346.917,22.851 346.904,23.562 C346.904,23.773 347.181,23.865 347.392,23.865 L357.615,23.865 Z M334.522,4.302 L320.518,4.302 C320.004,4.302 319.833,4.407 319.82,4.697 C319.767,5.343 320.781,4.908 321.374,5.369 C321.69,5.619 321.98,6.041 321.98,6.555 L321.98,21.349 C321.98,21.929 321.809,22.548 321.467,22.759 C320.518,23.391 319.675,22.864 319.662,23.575 C319.662,23.747 319.872,23.865 320.044,23.865 L336.011,23.865 L337.354,16.672 C337.394,16.422 337.315,16.132 337.077,16.079 C336.801,16.014 336.656,16.369 336.577,16.646 L336.287,17.542 C334.983,21.56 330.715,23.18 328.672,23.101 C326.196,22.996 326.314,21.968 326.314,21.323 L326.314,13.932 L327.052,13.932 C327.632,13.932 328.646,14.288 329.476,14.999 C330.267,15.671 330.583,17.107 330.596,17.436 L330.648,18.121 C330.675,18.385 330.741,18.688 331.083,18.661 C331.465,18.622 331.373,18.319 331.373,18.069 L331.373,9.216 C331.373,9.005 331.215,8.794 331.004,8.794 C330.754,8.807 330.557,8.992 330.557,9.295 L330.557,10.006 C330.557,10.902 330.016,11.732 329.489,12.233 C328.541,13.128 327.355,13.247 327.052,13.247 L326.314,13.247 L326.314,5.04 L327.909,5.04 C328.475,5.04 331.07,5.237 332.651,6.449 C333.889,7.398 334.772,8.623 335.259,9.769 L335.549,10.454 C335.629,10.652 335.813,10.784 336.05,10.691 C336.3,10.599 336.221,10.401 336.169,10.23 L334.522,4.302 Z M311.922,13.893 L311.922,21.323 C311.922,22.126 311.632,22.587 311.211,22.851 C310.579,23.259 309.393,22.851 309.367,23.562 C309.367,23.773 309.643,23.865 309.867,23.865 L318.206,23.865 C318.391,23.865 318.522,23.76 318.509,23.51 C318.47,22.811 317.613,23.338 316.784,22.811 C316.257,22.469 316.138,21.955 316.138,21.309 L316.138,6.647 C316.138,6.08 316.388,5.685 316.757,5.316 C317.39,4.684 318.641,5.29 318.628,4.631 C318.628,4.275 318.338,4.302 318.088,4.302 L310.144,4.302 C309.617,4.302 309.617,4.447 309.643,4.737 C309.683,5.303 310.987,4.776 311.501,5.329 C311.817,5.685 311.922,6.054 311.922,6.555 L311.922,13.155 L304.453,13.155 L304.453,6.647 C304.453,6.093 304.584,5.659 305.006,5.316 C305.612,4.802 306.771,5.29 306.771,4.605 C306.771,4.249 306.363,4.302 306.073,4.302 L298.524,4.302 C298.063,4.302 297.932,4.394 297.892,4.684 C297.826,5.25 298.985,4.921 299.605,5.356 C300.053,5.685 300.184,6.041 300.184,6.555 L300.184,21.336 C300.184,22.047 300.158,22.495 299.723,22.851 C299.051,23.417 297.879,22.851 297.866,23.562 C297.866,23.773 298.142,23.865 298.353,23.865 L306.534,23.865 C306.705,23.865 306.837,23.786 306.837,23.536 C306.811,22.864 305.704,23.496 304.927,22.838 C304.466,22.443 304.453,21.955 304.453,21.309 L304.453,13.893 L311.922,13.893 Z M291.01,5.369 C291.036,5.369 293.197,5.606 295.199,7.767 C297.031,9.756 296.965,11.284 297.623,11.087 C297.887,11.021 297.847,10.784 297.808,10.573 L296.543,4.249 C296.517,4.091 296.359,3.946 296.201,3.959 C295.95,3.973 295.819,4.091 295.819,4.302 L282.052,4.302 C282.039,4.117 281.841,4.012 281.709,3.986 C281.525,3.933 281.38,4.144 281.34,4.328 L280.141,10.665 C280.102,10.889 280.115,11.166 280.379,11.218 C280.998,11.337 281.248,8.873 283.277,7.082 C284.871,5.659 286.597,5.395 286.702,5.369 L286.715,21.336 C286.715,21.929 286.584,22.508 286.122,22.772 C285.029,23.417 283.909,22.772 283.883,23.483 C283.883,23.72 284.146,23.865 284.384,23.865 L293.421,23.865 C293.605,23.865 293.842,23.76 293.829,23.51 C293.79,22.811 292.749,23.391 291.629,22.759 C291.102,22.456 291.01,21.955 291.01,21.309 L291.01,5.369 L291.01,5.369 Z"/>
  </g>
</svg>
