<svg id="Layer_1" data-name="Layer 1" xmlns="http://www.w3.org/2000/svg" viewBox="0 0 425.52 120.26">
    <defs>
        <style>
            .cls-1 {
                fill: #ed1b2f;
                fill-rule: evenodd;
            }
            .cls-2 {
                fill: #231f20;
            }
            .cls-3 {
                fill: #414042;
            }
        </style>
    </defs>
    <title>San Angelo</title><path class="cls-1 no-color-change" d="M357.42,42.56c1.23,0-.51,1.42-.29,2.31C356.32,44.32,357.52,43.37,357.42,42.56Z"/><path
        class="cls-1 no-color-change"
        d="M373.3,98.31c3.23-2.46,7.91-1.74,11.84-2.89,3.52-1,6.56-2.89,9.82-3.47,7.42-4.42,12.69-11,17.91-17.62a61.55,61.55,0,0,0,6.35-23.69c-.75-.7-.28-2.61-.87-3.47-.25-.93,1-.4.87-1.16-.7-2.66-2.22-4.42-2-7.22A65.58,65.58,0,0,0,401.9,16c-.85,0-1.09-.6-2.31-.87-.08-.47.27-.5.29-.87a18.11,18.11,0,0,1-7.51-4.33c-1.61,0-3.22-.05-3.47-1.44A90.89,90.89,0,0,0,369,6.17c-2,1.45-6,1.08-9,2s-5.82,3.22-8.38,4c-1.32-.07.74-.8-.58-1.16-2.49,4.42-7.79,6.16-11,10.69-.59.58-.77.08-1.16-.29-.49,2-1,3.19-2,4-.08-.47.27-.5.29-.87-1.61.64-.08,2-1.16,3.47-1.43-.37-1.42.7-2.6.58.93,1.88-2.53,4.44-1.44,5.49-2.59,2.51-3.53,10.57-4.62,13.86,0-.25-.53-6.31.87-5.49-.37-1.41-.07-1.92-.29-3.18,5.65-18.86,20.11-33.8,41.88-35.82,20.54-1.9,32.49,9,42.17,19.64,3.87,8.07,8.84,15,9.24,26.57V53c-3,25.84-19.06,44.29-47.08,45.35Z"/><path
        class="cls-1 no-color-change"
        d="M373.59,21.19c-.58,2.88-2.21,4.73-3.47,6.93.43,1.64,2.24,3.28,1.16,5.49-.94.08-.61-1.12-1.44-1.16-.53.45.72,4.1-.58,5.2-5.66-.74-.91-10.21-5.78-11.84,3.57,4.38,1,13.51.58,20.51.75,1.85,3.76,1.44,5.49,2.31,1.6-1.29,4.18-1.6,4.33-4.33,8-3.87,3.91-21.75,17.33-19.93,4.22.57,10.65,4.55,12.42,9.24.33.88.12,1.78.58,2.6,1.36,2.43,4.82,2.75,4,7.51,1.16.76,1.84,2,2.89,2.89.42,4.56-.49,7.78-3.47,9-.78,2-.87,4.72-2,6.35a1.31,1.31,0,0,1-1.73-.29c-2.33,4-10.45,5.19-11.84,0-.62-2.3.38-5.23,0-7.8-.46-3.1-2.83-4.52-2-6.64-1.08-2.25-5.61-2.26-7.51-2a10,10,0,0,0,4.91.58c.68,3.46,3.74,4.54,3.18,9.24-.84-.12-.94-1-1.44-1.44-.94.21-.87,1.44-1.16,2.31-1.14,0-.88-1.26-2-.58-.64,1,0,3.23-.58,4.33-1.08.22-.63-1.1-1.44-1.16.83,2.24-.17,6.44-2,7.8,1.54,1.39-.25,3.92,2.31,4s2.12-4.13,4.33-5.2c-.11,3.16-2.16,4.39-2.89,6.93,1.61,4.69,4.46,0,8.09.29-.44,3-2.82,4.11-5.2,5.2-2.1,3-2.91,7.29-6.07,9.24-.86-1.23.51-2.92-.58-3.75-1.38.26-2.74,2.07-3.76,1.73,0-3.7,6-4.44,6.35-8.09.23-2.17-2.53-6.72-5.2-7.51-3-.89-6.57,0-8.66-2.31-.74,1,1,1.56,1.44,2.31-.83,2.56-4.34,3.58-3.18,7.22.83.06,1.47-.07,1.73-.58,1.28,1-1.91,2-2,3.47a2,2,0,0,0,1.44,1.44c1.9-.21,2.34-1.9,4.62-1.73.27.69,1.16.76.87,2-3.87.26-6.17,3.34-9,3.76-1,.48-.8,2.09-1.15,3.18a7.17,7.17,0,0,0-4,4.62c-1.14-.11-1.33-1.17-2-1.73a4.48,4.48,0,0,1,.87-2.31c-1.56.46-1.84,2.2-3.47,2.6-.89-5.2,5.53-5.39,6.93-9.24.51.07.66.5.58,1.16,2.5-2.26,3.74-8.6,2-12.42.59-1.91,2.84-2.17,2.89-4.62-2.75,3.44-9,6.58-13.86,3.18-1.83-1.28-4.19-4.38-6.64-7.22-3.51-4.06-5.41-6.67-5.2-12.42,2.42-6.38,13.52-7,12.13-15.31-1.35-.29-1,1.16-2.31.87,2.87-3.31-.32-7-4.33-6.07,1.38-3,7.11-1.75,8.38-4.91-1.86.17-2.12,1.92-4,2a16.31,16.31,0,0,0-2.6-3.18,25.5,25.5,0,0,1,4.91-5.49,3.78,3.78,0,0,0,5.2-2C368.16,13.71,367.63,20.79,373.59,21.19Zm-14.73.29c1.56-.66,2.39-2,3.47-3.18A3.32,3.32,0,0,0,358.86,21.48Zm6.07,0c1.22-.32,1.85-1.23,3.75-.87V19.17C367,18.59,364.9,19.46,364.93,21.48Zm-8.38,0c.79-.25,1.53-1.5,1.16-2C356.68,19.49,356.54,20.41,356.55,21.48Zm1.73,3.75c1,.53,2.81.92,3.75,0C361.89,22.36,359.23,24.15,358.28,25.23ZM389.19,29c1.56,0,1.5-1.58,3.47-1.16,1.37,2.08,4.2,1.13,6.07,2.89C397.66,28.32,391.62,25.54,389.19,29Zm-33.79-.87c-.51-.26-.74-.81-1.73-.58C353.34,28.71,355.33,29,355.39,28.12ZM357.7,31a1.78,1.78,0,0,0,.87-2.6C356,28,355.88,30.59,357.7,31Zm26.57,1.73a7.46,7.46,0,0,0,3.47-2.31C386.67,31.28,384.66,31.2,384.28,32.74ZM360,33.32c.55-.51,1.28-.84,1.16-2C360.1,31.11,359.29,32.67,360,33.32Zm36.68,1.16c-2.21-.46-4.16.17-6.35-.58.32,2.65,3.59,1.48,5.2.87,1.34.11,1.81,1.08,3.47.87-.48-2.21-2.16-4.76-4.91-3.75C395.07,32.64,397,32.48,396.7,34.48Zm-14.44,2.6c1-1.38,2.79-2,4.33-2.89C384.42,32.92,380.76,35.62,382.26,37.08ZM380.52,40c.24.62,1.49.24,1.73.87.14.91-.89.65-.58,1.73a.79.79,0,0,1,.58.87c1.56.12,2.6-.29,3.18-1.16-.43-.34-1.18-.36-1.44-.87.82-.69.29-1.06.29-2.31,1.25-.26,3.86-2,2.89-2.6C385,37.67,381.79,37.86,380.52,40Zm16.17,7.22c-1.57-3.24-.94-8.69-4.62-9.82h-.58C395.47,38.4,391.94,46.94,396.7,47.18ZM402.76,44c2,.36.63-2.64,2-2.89.33.64.33,1.59,1.16,1.73,1-3.33-3.77-3.35-4.91-5.49C401.86,39.39,403.45,41.32,402.76,44Zm-4.33-1.73c.8-1.1-.34-2.74-1.15-3.18C396.76,40.05,397.63,41.71,398.43,42.27Zm-40.15,4.33c1.28-1.33,2.73-4,2.31-6.07C359.27,41.85,357.45,44.09,358.28,46.61Zm36.39,3.75c-1.87-2.75-1-9.82-5.78-8.67C393.49,41.92,391.39,48.83,394.68,50.36Zm5.49-.58c-.27.94-2.21,2.45-.87,3.18,1.11-1.1,2.13-2.3,3.18-3.47C401,48,401.61,44.4,401,42h-.86C399.64,44.69,400.19,46.87,400.17,49.78Zm-46.79-4c1.31-.72,2.66-1.38,2.89-3.18C354.8,43.12,353.43,43.78,353.37,45.74Zm55.46,4c.15,1.42-.26,3.13.58,3.18,1.47-2.84-1.08-6.6-2.89-8.09C406.5,47.3,408.28,47.93,408.83,49.78Zm-1.73,2.31c.15.9-.39,1.77.29,2.6,2.38-3.25-.74-7.2-2.31-9.24C404.39,47.24,406.66,49.46,407.1,52.09Zm-55.75-1.73c.65,2,.1,4.68.29,7.51a7.94,7.94,0,0,0,3.47,2.6c-1.7-3.72-.45-14-6.07-13.86C348.91,48.07,350.75,48.47,351.35,50.36Zm-6.06,2.31c1.55-.61.85-3.31,0-4C345.55,50.17,344.86,51.89,345.28,52.67ZM347,53a2,2,0,0,0,0-3.75Zm58.93.58c-.52-1.31-.1-3.56-1.44-4C404.63,51.19,403.93,53.72,405.94,53.54Zm-22.24.58a11.77,11.77,0,0,0-4.62-.29c-1.4-2.95-5.67-2.17-8.09-1.44.73,2.6,2.65-.38,4.91.29,1.15.87,2,2,3.18,2.89.88.21,1.05-.3,1.73-.29.5.47.11,1.81,1.16,1.73,1.24-.8-1-2,0-2.6,1.22.42,1.12,2.15,2.6,2.31.51-2.37.09-5.2-2-5.78C382.83,52.1,383.92,52.45,383.7,54.12Zm15.89,0c1.77,1.23,4.12-2.35,2.89-3.18C402.09,52.58,400.45,53,399.59,54.12ZM397,58.74c-1.32-1.34-1.12-3.54-.58-5.78C393,52.85,394.22,59.14,397,58.74Zm-47.37,2c-.64-1.89.9-1.61,1.73-2-1.12-1.1-1.88-2.55-3.47-3.18C346.48,57.3,347.79,60.42,349.62,60.76Zm30.62,0c-.38-2.31-1.08-4.31-3.47-4.62C378.1,57.51,379.67,58.63,380.23,60.76Zm19.06-3.18c1.79,1.07,4.19,1.09,4.33-1.44C401.94,56.37,400.22,56.58,399.3,57.58ZM360,57c.16,0-1,1.41-1.44.29.42,1.6,2.25,1.79,2.6,3.47-2.8-.09-3-2.75-5.2-3.47,1.65,2.11,1.56,6.14,6.07,4.62C362.21,59.88,361.91,57.43,360,57Zm4.62,2.89c1.2,2.25,4.93,1.79,6.93,3.18,1.1.76.92,2.37,2.31,2-.08-3.19-3.32-3.23-4.91-4.91,1.34-1.4,2.44.3,4,.29C372.12,56.74,367.12,59.39,364.64,59.89Zm13,3.75a9.35,9.35,0,0,0-.58-4.62c-.78.18-2.29-.37-2.6.29C375.93,60.35,376.27,62.51,377.63,63.65Zm25.42-4.33a9.63,9.63,0,0,0-4,0C399.42,60,402.73,60.46,403.05,59.32Zm-27.44,3.76c-.05-1.1-.41-1.9-1.44-2C374.61,61.76,374.52,63,375.61,63.07Zm-9.24,3.47c-2.3,0-2.77-1.85-4.33-2.6-.44,1.33,1.79,1.46.87,2.31-2,0-1.24-2.8-3.18-2.89C359.81,66.24,364.31,69.29,366.37,66.54Zm2-2.6c-.78-.57-2.52-.17-3.76-.29C364.54,65.12,368,64.66,368.39,63.94ZM358,66.83c-.46-.79-.45-2.06-1.73-2C356.48,65.84,356.93,66.64,358,66.83ZM356.26,68a2.19,2.19,0,0,0-1.73-2.31A3.34,3.34,0,0,0,356.26,68ZM383.41,80.4c1.33,0,3-1.9,1.73-2.6C384.83,78.84,382.81,79.36,383.41,80.4Z"/><path
        class="cls-2"
        d="M14.59,82.44V86c0,2.57.58,5,3.59,5a3.46,3.46,0,0,0,3.71-3.71c0-4.19-4.23-7-8.46-10.18C9.14,73.4,4.85,70.76,4.85,63.46c0-9.4,5.1-13.41,13.62-13.41,9.27,0,13.33,4.67,13.33,12v4.31h-10V63.82c0-2.39-.35-5.27-3.36-5.27a3.36,3.36,0,0,0-3.65,3.59c0,2.87,4.52,6.17,8.87,9.52,3.94,3.59,8.87,5.93,8.87,15.57,0,4.61-3.36,12.21-14.49,12.21-10.55,0-13.79-6.88-13.79-11.85V82.44Z"/><path class="cls-2" d="M36.38,68.25H33.88V60.83h2.49V52.51h10v8.32h2.49v7.42H46.34V88.73c0,1,0,2.93,1.33,2.93h1.27v7.78H44.14c-4.29,0-7.76-.9-7.76-6.88Z"/><path
        class="cls-2"
        d="M75,98.66H65.87V95.73h-.12a8.49,8.49,0,0,1-7.07,3.71c-7.3,0-8.11-5.51-8.11-11.67,0-7.18,3.88-9.58,7.53-11.25s7.3-2.51,7.3-6.65c0-2-.46-3.17-2.32-3.17a2.31,2.31,0,0,0-2.55,2.63v3.11H51.27V69c0-5.63,4.87-9.34,11.7-9.34,9,0,12.05,3.71,12.05,12ZM65.41,79.45l-2.78,2.1A4,4,0,0,0,60.89,85V90c0,2.16.81,3.05,2.2,3.05,1.56,0,2.32-1.5,2.32-3.35Z"/><path class="cls-2" d="M78.38,60.41H88v4.25h.12c1.8-3.23,3.77-5,7.59-5,4.75,0,7.13,3.59,7.13,8.2V98.66h-10V72.5c0-1.38,0-3.65-2.26-3.65s-2.26,2.75-2.26,3.65V98.66h-10Z"/><path
        class="cls-2"
        d="M130.65,98.66h-10V94.83h-.12a7.17,7.17,0,0,1-7,4.61c-4.69,0-7.42-4.25-7.42-11.43V69.33c0-6.11,2.38-9.7,7.24-9.7,3.59,0,5.62,1.32,7.13,4.25h.12V50.83h10Zm-10-26.4c0-2.33-.46-4.85-2.55-4.85a2.11,2.11,0,0,0-2,2.33v19.4c0,2,1,2.51,2,2.51,2.55,0,2.55-3.59,2.55-6.23Z"/><path
        class="cls-2"
        d="M158.46,98.66h-9.15V95.73h-.12a8.49,8.49,0,0,1-7.07,3.71c-7.3,0-8.11-5.51-8.11-11.67,0-7.18,3.88-9.58,7.53-11.25s7.3-2.51,7.3-6.65c0-2-.46-3.17-2.32-3.17A2.31,2.31,0,0,0,144,69.33v3.11h-9.27V69c0-5.63,4.87-9.34,11.7-9.34,9,0,12.05,3.71,12.05,12Zm-9.62-19.22-2.78,2.1A4,4,0,0,0,144.33,85V90c0,2.16.81,3.05,2.2,3.05,1.56,0,2.32-1.5,2.32-3.35Z"/><path class="cls-2" d="M161.82,60.41h9.44v6.77h.12c1.39-3.53,2.61-7.54,7.13-7.54V72.08h-2.32c-3.42,0-4.4,2.22-4.4,4.85V98.66h-10Z"/><path
        class="cls-2"
        d="M204.41,98.66h-10V94.83h-.12a7.17,7.17,0,0,1-7,4.61c-4.69,0-7.42-4.25-7.42-11.43V69.33c0-6.11,2.38-9.7,7.24-9.7,3.59,0,5.62,1.32,7.13,4.25h.12V50.83h10Zm-10-26.4c0-2.33-.46-4.85-2.55-4.85a2.11,2.11,0,0,0-2,2.33v19.4c0,2,1,2.51,2,2.51,2.55,0,2.55-3.59,2.55-6.23Z"/><path class="cls-2" d="M207,74h11.43v8.86H207Z"/><path class="cls-2" d="M215.41,50.83h24.45V60H233V98.66H222.3V60h-6.9Z"/><path class="cls-2" d="M241.38,50.83h10v7.06h-10Zm0,9.58h10V98.66h-10Z"/><path
        class="cls-2"
        d="M256,60.41h9.62v4.73h.12c1.85-3.47,3.71-5.51,7.76-5.51,3.19,0,6.08,1.5,6.89,5.51,1.91-3.47,3.36-5.51,7.94-5.51,4.81,0,7.3,3.47,7.3,8.2V98.66h-10V73c0-1.38,0-4.13-2.43-4.13s-2.43,3.23-2.43,4.13V98.66h-10V73c0-1.38,0-4.13-2.43-4.13s-2.43,3.23-2.43,4.13V98.66H256Z"/><path
        class="cls-2"
        d="M299.44,70.53c0-4.49,2.26-10.9,12.23-10.9s12.23,6.41,12.23,10.9V81.06H309.4v8.2c0,1.32,0,3.11,2.26,3.11s2.26-1.8,2.26-3.11V84.47h10v4.07c0,4.49-2.26,10.9-12.23,10.9S299.44,93,299.44,88.55Zm10,3.47h4.52V69.81c0-1.32,0-3.11-2.26-3.11s-2.26,1.8-2.26,3.11Z"/><path
        class="cls-2"
        d="M326.38,86.63h8.92V89c0,1.5.41,3.41,2.55,3.41,1.51,0,2.2-1.08,2.2-2.81,0-3.05-3.42-5-6.66-7.54s-6.66-5.75-6.66-11.37c0-7.24,4.58-11,11.13-11,6.89,0,11.07,3,11.07,10.06v2H340v-2c0-1-.06-3-2.14-3-1.39,0-2.2.84-2.2,2.57,0,3.05,3.88,4.85,6.84,7.54,3.42,2.69,6.84,5.51,6.84,11.37,0,3.11-.64,11.25-11.47,11.25-8.81,0-11.47-4-11.47-10.3Z"/><path class="cls-3" d="M6.69,107.6H8.8a2.26,2.26,0,1,1,0,4.51H7.73v2.82h-1Zm2,3.64a1.39,1.39,0,1,0,0-2.78h-1v2.78Z"/><path class="cls-3" d="M14.22,107.6h.92l3,7.33H17L16.29,113H13l-.75,1.92H11.21Zm1.72,4.54-.7-1.81c-.1-.27-.55-1.4-.56-1.49h0c0,.09-.45,1.19-.56,1.49l-.71,1.81Z"/><path class="cls-3" d="M19.2,107.6h2.12a2.15,2.15,0,0,1,2.43,2.17,2,2,0,0,1-1.86,2.07l2.24,3.09H22.92l-2.12-3h-.57v3h-1Zm2,3.5c1,0,1.5-.51,1.5-1.32s-.54-1.32-1.5-1.32h-1v2.63Z"/><path class="cls-3" d="M26.61,108.48H24.53v-.89h5.21v.89H27.65v6.44h-1Z"/><path class="cls-3" d="M32.41,111.26a3.85,3.85,0,1,1,3.85,3.81A3.72,3.72,0,0,1,32.41,111.26Zm6.64,0a2.79,2.79,0,1,0-2.8,2.88A2.73,2.73,0,0,0,39.05,111.26Z"/><path class="cls-3" d="M41.6,107.6H45.3v.89H42.64v2.36h2.58v.89H42.64v3.19h-1Z"/><path class="cls-3" d="M50,108.48H47.88v-.89h5.21v.89H51v6.44H50Z"/><path class="cls-3" d="M54.18,107.6h1v3h3.84v-3h1v7.33h-1v-3.43H55.21v3.43h-1Z"/><path class="cls-3" d="M62,107.6h4v.88H63v2.13h2.87v.88H63V114h3v.88H62Z"/><path class="cls-3" d="M69.5,112.4v-4.8h1v4.49c0,1.27.54,2.06,1.76,2.06s1.78-.78,1.78-2.06V107.6h1v4.8a2.82,2.82,0,0,1-5.63,0Z"/><path
        class="cls-3"
        d="M76.21,113.6l.7-.59a2.12,2.12,0,0,0,1.84,1.16,1.27,1.27,0,0,0,1.43-1.24c0-.86-.72-1.16-1.62-1.51s-1.85-.83-1.85-2a2,2,0,0,1,2.21-2,2.46,2.46,0,0,1,2.15,1.11l-.7.59a1.66,1.66,0,0,0-1.45-.79c-.71,0-1.18.37-1.18,1s.73,1,1.37,1.26c1,.41,2.1.9,2.1,2.24a2.22,2.22,0,0,1-2.44,2.22A2.84,2.84,0,0,1,76.21,113.6Z"/><path class="cls-3" d="M84.77,107.6h.92l3,7.33H87.59L86.84,113H83.6l-.75,1.92H81.76Zm1.72,4.54-.7-1.81c-.1-.27-.55-1.4-.56-1.49h0c0,.09-.45,1.19-.56,1.49l-.71,1.81Z"/><path class="cls-3" d="M93.06,108.48H91v-.89h5.21v.89H94.09v6.44h-1Z"/><path class="cls-3" d="M96.57,111.26a3.85,3.85,0,1,1,3.85,3.81A3.72,3.72,0,0,1,96.57,111.26Zm6.64,0a2.79,2.79,0,1,0-2.8,2.88A2.73,2.73,0,0,0,103.21,111.26Z"/><path class="cls-3" d="M105.76,107.6h2.08c2.34,0,3.88,1.34,3.88,3.67s-1.56,3.66-3.88,3.66h-2.08Zm1,6.44h1a2.78,2.78,0,1,0,0-5.55h-1Z"/><path class="cls-3" d="M115.08,107.6H116l3,7.33h-1.11l-.75-1.92H113.9l-.75,1.92h-1.09Zm1.72,4.54-.7-1.81c-.1-.27-.55-1.4-.56-1.49h0c0,.09-.45,1.19-.56,1.49l-.71,1.81Z"/><path class="cls-3" d="M121.07,111.94l-2.49-4.34h1.16l1.36,2.44a10.82,10.82,0,0,1,.52,1h0a11.1,11.1,0,0,1,.52-1l1.37-2.44h1.13l-2.49,4.34v3h-1.08Z"/><path class="cls-3" d="M127.67,107.6h.79l4.15,4.75c.12.14.67.81.72.92h0c0-.1,0-.95,0-1.14V107.6h1v7.33h-.8l-4.15-4.75c-.12-.13-.67-.81-.72-.92h0c0,.11,0,1,0,1.14v4.52h-1Z"/><path class="cls-3" d="M136.24,107.6h4v.88h-3v2.13h2.87v.88h-2.87V114h3v.88h-4Z"/><path class="cls-3" d="M143.46,108.48h-2.09v-.89h5.21v.89H144.5v6.44h-1Z"/><path
        class="cls-3"
        d="M147.45,107.6h1.1l1.5,4.35c.05.17.41,1.25.42,1.42h0a14.62,14.62,0,0,1,.44-1.42l1.57-4.35h.82l1.56,4.35c.06.17.43,1.25.44,1.42h0c0-.17.38-1.25.43-1.42l1.49-4.35h1.05l-2.58,7.33h-.79l-1.69-4.57a12.22,12.22,0,0,1-.36-1.19h0a12.28,12.28,0,0,1-.36,1.19l-1.68,4.57H150Z"/><path class="cls-3" d="M158.77,111.26a3.85,3.85,0,1,1,3.85,3.81A3.72,3.72,0,0,1,158.77,111.26Zm6.64,0a2.79,2.79,0,1,0-2.8,2.88A2.73,2.73,0,0,0,165.41,111.26Z"/><path class="cls-3" d="M168,107.6h2.12a2.15,2.15,0,0,1,2.43,2.17,2,2,0,0,1-1.86,2.07l2.24,3.09h-1.21l-2.12-3H169v3h-1Zm2,3.5c1,0,1.5-.51,1.5-1.32s-.54-1.32-1.5-1.32h-1v2.63Z"/><path class="cls-3" d="M174.07,107.6h1V111l3-3.4h1.25l-3.14,3.5,3.29,3.83h-1.29l-3.13-3.7v3.7h-1Z"/></svg>
