<svg xmlns="http://www.w3.org/2000/svg" width="310" height="48" viewBox="0 0 310 48">
  <g fill="none" fill-rule="evenodd">
    <path fill="#009BFF" class='no-color-change' d="M29.474 30.018C28.184 31.338 26.398 32.366 24.119 33.1 21.839 33.835 19.319 34.203 16.559 34.203 13.259 34.203 10.401 33.536 7.987 32.201 5.571 30.866 3.696 28.998 2.362 26.598 1.026 24.199.359 21.423.359 18.273.359 15.122 1.034 12.363 2.384 9.993 3.734 7.623 5.624 5.771 8.054 4.435 10.484 3.101 13.319 2.433 16.559 2.433 22.078 2.433 26.353 4.503 29.384 8.643L22.679 12.558C22.049 11.538 21.186 10.751 20.092 10.196 18.996 9.641 17.789 9.363 16.469 9.363 14.069 9.363 12.201 10.173 10.867 11.793 9.531 13.412 8.864 15.573 8.864 18.273 8.864 21.303 9.621 23.56 11.137 25.045 12.651 26.531 14.849 27.273 17.729 27.273 19.079 27.273 20.413 27.048 21.734 26.598L21.734 22.098 16.289 22.098 16.289 16.023 29.474 16.023 29.474 30.018M45.629 27.993C47.008 27.993 48.111 27.46 48.936 26.396 49.761 25.33 50.174 23.913 50.174 22.143 50.174 20.373 49.761 18.963 48.936 17.912 48.111 16.863 47.008 16.338 45.629 16.338 44.248 16.338 43.146 16.863 42.321 17.912 41.496 18.963 41.084 20.373 41.084 22.143 41.084 23.913 41.496 25.33 42.321 26.396 43.146 27.46 44.248 27.993 45.629 27.993zM45.629 34.203C43.168 34.203 41.001 33.685 39.126 32.651 37.251 31.616 35.781 30.198 34.716 28.398 33.651 26.598 33.119 24.513 33.119 22.143 33.119 19.774 33.651 17.688 34.716 15.888 35.781 14.088 37.251 12.678 39.126 11.658 41.001 10.638 43.168 10.128 45.629 10.128 48.088 10.128 50.256 10.638 52.131 11.658 54.006 12.678 55.476 14.088 56.541 15.888 57.606 17.688 58.139 19.774 58.139 22.143 58.139 24.513 57.606 26.598 56.541 28.398 55.476 30.198 54.006 31.616 52.131 32.651 50.256 33.685 48.088 34.203 45.629 34.203z"/>
    <path fill="#404040" d="M73.663 34.203C71.173 34.203 68.788 33.776 66.509 32.92 64.228 32.066 62.248 30.843 60.569 29.253L64.618 24.168C65.818 25.247 67.168 26.096 68.668 26.71 70.168 27.326 71.819 27.633 73.619 27.633 74.818 27.633 75.763 27.423 76.454 27.003 77.143 26.583 77.489 25.953 77.489 25.113 77.489 24.303 77.083 23.651 76.273 23.156 75.464 22.661 74.038 22.143 71.998 21.603L70.109 21.108C67.348 20.388 65.248 19.286 63.808 17.8 62.368 16.316 61.648 14.433 61.648 12.153 61.648 10.203 62.158 8.494 63.179 7.023 64.198 5.553 65.609 4.42 67.409 3.625 69.208 2.83 71.293 2.433 73.663 2.433 76.003 2.433 78.238 2.861 80.369 3.715 82.498 4.571 84.388 5.734 86.038 7.203L81.853 12.468C80.773 11.538 79.506 10.728 78.051 10.037 76.596 9.348 75.148 9.003 73.708 9.003 72.508 9.003 71.586 9.205 70.941 9.611 70.296 10.015 69.974 10.608 69.974 11.388 69.974 12.108 70.311 12.731 70.986 13.255 71.661 13.781 72.823 14.268 74.474 14.718L76.768 15.348C80.068 16.247 82.401 17.478 83.766 19.037 85.131 20.598 85.813 22.412 85.813 24.483 85.813 26.433 85.311 28.136 84.306 29.59 83.301 31.046 81.883 32.178 80.054 32.988 78.224 33.798 76.094 34.203 73.663 34.203M96.388 26.193C96.388 26.883 96.643 27.446 97.153 27.88 97.663 28.316 98.323 28.533 99.133 28.533 100.213 28.533 101.12 28.165 101.856 27.43 102.591 26.696 102.958 25.773 102.958 24.662L102.958 23.898C102.148 23.748 101.293 23.673 100.393 23.673 99.253 23.673 98.301 23.869 97.536 24.258 96.771 24.648 96.388 25.293 96.388 26.193zM103.273 33.618L102.868 30.603C101.368 33.003 99.088 34.203 96.028 34.203 94.678 34.203 93.455 33.911 92.361 33.326 91.266 32.741 90.395 31.938 89.751 30.918 89.105 29.899 88.783 28.713 88.783 27.363 88.783 24.814 89.78 22.833 91.776 21.423 93.77 20.013 96.403 19.308 99.673 19.308 100.693 19.308 101.773 19.398 102.913 19.578 102.793 18.438 102.306 17.576 101.451 16.991 100.596 16.406 99.553 16.113 98.323 16.113 97.243 16.113 96.156 16.316 95.061 16.72 93.965 17.125 92.923 17.614 91.933 18.183L89.278 13.143C90.778 12.183 92.398 11.441 94.138 10.915 95.878 10.391 97.618 10.128 99.358 10.128 101.458 10.128 103.348 10.488 105.028 11.208 106.708 11.928 108.028 13.024 108.988 14.493 109.948 15.963 110.428 17.823 110.428 20.073L110.428 33.618 103.273 33.618zM123.253 20.973L123.253 33.618 115.423 33.618 115.423 10.713 122.578 10.713 122.983 13.728C123.733 12.648 124.708 11.778 125.908 11.118 127.108 10.458 128.428 10.128 129.868 10.128 132.358 10.128 134.353 10.938 135.853 12.558 137.353 14.178 138.103 16.503 138.103 19.533L138.103 33.618 130.273 33.618 130.273 20.433C130.273 19.083 129.973 18.086 129.373 17.441 128.773 16.795 127.933 16.473 126.853 16.473 125.773 16.473 124.903 16.818 124.243 17.508 123.583 18.199 123.253 19.353 123.253 20.973M153.403 21.693L160.648 21.693 157.048 10.983 153.403 21.693zM164.698 33.618L162.762 27.903 151.287 27.903 149.352 33.618 141.073 33.618 152.278 3.018 161.997 3.018 173.203 33.618 164.698 33.618zM184.407 20.973L184.407 33.618 176.578 33.618 176.578 10.713 183.732 10.713 184.137 13.728C184.886 12.648 185.862 11.778 187.062 11.118 188.261 10.458 189.582 10.128 191.022 10.128 193.512 10.128 195.506 10.938 197.007 12.558 198.507 14.178 199.257 16.503 199.257 19.533L199.257 33.618 191.427 33.618 191.427 20.433C191.427 19.083 191.126 18.086 190.527 17.441 189.926 16.795 189.087 16.473 188.007 16.473 186.927 16.473 186.057 16.818 185.397 17.508 184.737 18.199 184.407 19.353 184.407 20.973M215.367 26.733C216.686 26.733 217.751 26.26 218.562 25.316 219.371 24.37 219.777 23.103 219.777 21.513 219.777 19.923 219.371 18.656 218.562 17.71 217.751 16.765 216.686 16.293 215.367 16.293 214.016 16.293 212.937 16.765 212.126 17.71 211.317 18.656 210.912 19.923 210.912 21.513 210.912 23.074 211.317 24.333 212.126 25.293 212.937 26.253 214.016 26.733 215.367 26.733zM227.516 31.188C227.516 33.528 226.976 35.531 225.897 37.196 224.817 38.861 223.324 40.135 221.419 41.021 219.513 41.905 217.301 42.348 214.782 42.348 212.741 42.348 210.806 42.078 208.976 41.537 207.146 40.997 205.511 40.278 204.072 39.378L206.996 34.338C208.016 34.938 209.089 35.425 210.214 35.8 211.339 36.175 212.501 36.363 213.702 36.363 215.711 36.363 217.211 35.912 218.202 35.013 219.192 34.113 219.687 32.838 219.687 31.188L219.687 30.378C218.906 31.159 217.969 31.781 216.874 32.245 215.779 32.711 214.631 32.943 213.431 32.943 211.362 32.943 209.538 32.455 207.964 31.481 206.389 30.506 205.159 29.156 204.274 27.43 203.389 25.705 202.947 23.734 202.947 21.513 202.947 19.263 203.381 17.283 204.251 15.573 205.121 13.863 206.336 12.529 207.897 11.568 209.456 10.608 211.256 10.128 213.296 10.128 214.676 10.128 215.958 10.458 217.144 11.118 218.329 11.778 219.266 12.648 219.956 13.728L220.362 10.713 227.516 10.713 227.516 31.188zM243.851 15.798C241.301 15.798 239.771 17.148 239.261 19.848L247.992 19.848C247.781 18.378 247.279 17.335 246.484 16.72 245.689 16.106 244.811 15.798 243.851 15.798zM254.561 31.278C253.42 32.088 251.974 32.779 250.219 33.348 248.463 33.917 246.596 34.203 244.617 34.203 241.886 34.203 239.554 33.701 237.619 32.696 235.684 31.691 234.199 30.287 233.163 28.488 232.128 26.688 231.612 24.618 231.612 22.278 231.612 19.909 232.121 17.808 233.141 15.978 234.161 14.149 235.572 12.715 237.371 11.68 239.171 10.646 241.271 10.128 243.671 10.128 246.011 10.128 248.074 10.63 249.859 11.635 251.643 12.641 253.038 14.036 254.043 15.821 255.048 17.606 255.551 19.699 255.551 22.098 255.551 22.428 255.529 22.773 255.484 23.133 255.439 23.493 255.386 23.869 255.327 24.258L239.351 24.258C240.072 26.898 242.036 28.218 245.246 28.218 246.686 28.218 247.961 27.993 249.072 27.543 250.181 27.093 251.111 26.643 251.862 26.193L254.561 31.278z"/>
    <polygon fill="#404040" points="259.556 33.618 267.386 33.618 267.386 .768 259.556 .768"/>
    <path fill="#404040" d="M283.991,27.993 C285.37,27.993 286.473,27.46 287.298,26.396 C288.122,25.33 288.536,23.913 288.536,22.143 C288.536,20.373 288.122,18.963 287.298,17.912 C286.473,16.863 285.37,16.338 283.991,16.338 C282.611,16.338 281.508,16.863 280.683,17.912 C279.858,18.963 279.446,20.373 279.446,22.143 C279.446,23.913 279.858,25.33 280.683,26.396 C281.508,27.46 282.611,27.993 283.991,27.993 Z M283.991,34.203 C281.531,34.203 279.363,33.685 277.488,32.651 C275.613,31.616 274.143,30.198 273.078,28.398 C272.013,26.598 271.481,24.513 271.481,22.143 C271.481,19.774 272.013,17.688 273.078,15.888 C274.143,14.088 275.613,12.678 277.488,11.658 C279.363,10.638 281.531,10.128 283.991,10.128 C286.451,10.128 288.618,10.638 290.494,11.658 C292.368,12.678 293.838,14.088 294.903,15.888 C295.967,17.688 296.5,19.774 296.5,22.143 C296.5,24.513 295.967,26.598 294.903,28.398 C293.838,30.198 292.368,31.616 290.494,32.651 C288.618,33.685 286.451,34.203 283.991,34.203 Z"/>
    <path fill="#009BFF" class='no-color-change' d="M303.925,34.113 C302.965,34.113 302.087,33.88 301.293,33.415 C300.497,32.951 299.868,32.321 299.403,31.526 C298.938,30.731 298.705,29.853 298.705,28.893 C298.705,27.933 298.938,27.056 299.403,26.26 C299.868,25.466 300.497,24.836 301.293,24.37 C302.087,23.906 302.965,23.673 303.925,23.673 C304.885,23.673 305.763,23.906 306.558,24.37 C307.353,24.836 307.983,25.466 308.448,26.26 C308.912,27.056 309.146,27.933 309.146,28.893 C309.146,29.853 308.912,30.731 308.448,31.526 C307.983,32.321 307.353,32.951 306.558,33.415 C305.763,33.88 304.885,34.113 303.925,34.113"/>
    <path fill="#404040" d="M4.946 44.221L6.239 44.221C6.663 44.221 6.999 44.117 7.246 43.907 7.493 43.698 7.617 43.412 7.617 43.052 7.617 42.691 7.493 42.406 7.246 42.197 6.999 41.987 6.663 41.882 6.239 41.882L4.946 41.882 4.946 44.221zM3.986 47.537L3.986 41.075 6.239 41.075C6.961 41.075 7.534 41.252 7.959 41.607 8.383 41.962 8.596 42.444 8.596 43.052 8.596 43.654 8.383 44.13 7.959 44.483 7.534 44.833 6.961 45.01 6.239 45.01L4.946 45.01 4.946 47.537 3.986 47.537zM10.535 45.105L12.892 45.105 11.713 42.073 10.535 45.105zM13.833 47.537L13.205 45.912 10.221 45.912 9.594 47.537 8.624 47.537 11.209 41.075 12.245 41.075 14.821 47.537 13.833 47.537zM16.855 44.125L18.176 44.125C18.588 44.125 18.916 44.024 19.16 43.822 19.404 43.618 19.526 43.346 19.526 43.004 19.526 42.662 19.404 42.39 19.16 42.187 18.916 41.985 18.588 41.882 18.176 41.882L16.855 41.882 16.855 44.125zM16.855 44.914L16.855 47.537 15.895 47.537 15.895 41.075 18.176 41.075C18.892 41.075 19.459 41.247 19.877 41.592 20.296 41.938 20.505 42.409 20.505 43.004 20.505 43.454 20.378 43.834 20.124 44.145 19.871 44.455 19.522 44.673 19.079 44.8L20.647 47.537 19.554 47.537 18.081 44.914 16.855 44.914z"/>
    <polyline fill="#404040" points="23.261 47.537 23.261 41.882 21.084 41.882 21.084 41.075 26.397 41.075 26.397 41.882 24.221 41.882 24.221 47.537 23.261 47.537"/>
    <path fill="#404040" d="M32.566,46.806 C32.984,46.806 33.356,46.7 33.682,46.488 C34.009,46.276 34.264,45.983 34.448,45.609 C34.631,45.235 34.723,44.8 34.723,44.306 C34.723,43.812 34.631,43.378 34.448,43.004 C34.264,42.63 34.009,42.337 33.682,42.125 C33.356,41.912 32.984,41.807 32.566,41.807 C32.148,41.807 31.777,41.912 31.454,42.125 C31.131,42.337 30.877,42.63 30.694,43.004 C30.51,43.378 30.418,43.812 30.418,44.306 C30.418,44.8 30.51,45.235 30.694,45.609 C30.877,45.983 31.131,46.276 31.454,46.488 C31.777,46.7 32.148,46.806 32.566,46.806 Z M32.566,47.643 C31.957,47.643 31.419,47.499 30.95,47.215 C30.481,46.93 30.112,46.537 29.843,46.037 C29.574,45.536 29.439,44.959 29.439,44.306 C29.439,43.654 29.574,43.078 29.843,42.577 C30.112,42.076 30.481,41.683 30.95,41.398 C31.419,41.113 31.957,40.97 32.566,40.97 C33.174,40.97 33.714,41.113 34.186,41.398 C34.659,41.683 35.029,42.076 35.299,42.577 C35.568,43.078 35.702,43.654 35.702,44.306 C35.702,44.959 35.568,45.536 35.299,46.037 C35.029,46.537 34.659,46.93 34.186,47.215 C33.714,47.499 33.174,47.643 32.566,47.643 Z"/>
    <polyline fill="#404040" points="38.012 47.537 37.052 47.537 37.052 41.075 41.073 41.075 41.073 41.882 38.012 41.882 38.012 44.069 40.607 44.069 40.607 44.876 38.012 44.876 38.012 47.537"/>
    <polyline fill="#404040" points="46.081 47.537 46.081 41.882 43.905 41.882 43.905 41.075 49.218 41.075 49.218 41.882 47.041 41.882 47.041 47.537 46.081 47.537"/>
    <polyline fill="#404040" points="50.32 47.537 50.32 41.075 51.28 41.075 51.28 43.84 54.617 43.84 54.617 41.075 55.577 41.075 55.577 47.537 54.617 47.537 54.617 44.667 51.28 44.667 51.28 47.537 50.32 47.537"/>
    <polyline fill="#404040" points="57.268 47.537 57.268 41.075 61.412 41.075 61.412 41.882 58.228 41.882 58.228 43.878 61.032 43.878 61.032 44.687 58.228 44.687 58.228 46.73 61.488 46.73 61.488 47.537 57.268 47.537"/>
    <path fill="#404040" d="M67.552 46.806C68.078 46.806 68.491 46.648 68.792 46.331 69.093 46.014 69.244 45.586 69.244 45.047L69.244 41.075 70.204 41.075 70.204 45.057C70.204 45.862 69.968 46.494 69.495 46.953 69.024 47.412 68.375 47.643 67.552 47.643 66.728 47.643 66.082 47.412 65.613 46.953 65.144 46.494 64.91 45.862 64.91 45.057L64.91 41.075 65.869 41.075 65.869 45.047C65.869 45.586 66.02 46.014 66.321 46.331 66.622 46.648 67.032 46.806 67.552 46.806M73.787 47.643C73.299 47.643 72.833 47.557 72.39 47.386 71.946 47.215 71.588 46.987 71.316 46.702L71.858 46.065C72.111 46.299 72.411 46.483 72.756 46.616 73.101 46.749 73.445 46.816 73.787 46.816 74.205 46.816 74.542 46.735 74.799 46.573 75.056 46.412 75.184 46.188 75.184 45.903 75.184 45.644 75.092 45.425 74.909 45.247 74.725 45.07 74.411 44.921 73.968 44.8L73.074 44.563C72.497 44.412 72.078 44.196 71.815 43.916 71.552 43.638 71.42 43.274 71.42 42.824 71.42 42.456 71.519 42.133 71.715 41.854 71.912 41.576 72.183 41.359 72.528 41.203 72.873 41.048 73.265 40.97 73.702 40.97 74.164 40.97 74.598 41.058 75.004 41.232 75.409 41.406 75.767 41.648 76.078 41.958L75.498 42.585C75.225 42.332 74.942 42.138 74.647 42.001 74.353 41.865 74.04 41.797 73.711 41.797 73.312 41.797 72.985 41.881 72.732 42.049 72.478 42.217 72.352 42.45 72.352 42.747 72.352 43.02 72.442 43.233 72.623 43.384 72.804 43.537 73.08 43.663 73.454 43.764L74.453 44.04C75.029 44.199 75.45 44.42 75.716 44.705 75.983 44.991 76.116 45.345 76.116 45.77 76.116 46.144 76.017 46.472 75.821 46.754 75.624 47.036 75.352 47.254 75.004 47.41 74.655 47.565 74.249 47.643 73.787 47.643M78.53 45.105L80.887 45.105 79.708 42.073 78.53 45.105zM81.828 47.537L81.201 45.912 78.216 45.912 77.589 47.537 76.619 47.537 79.204 41.075 80.241 41.075 82.816 47.537 81.828 47.537z"/>
    <polyline fill="#404040" points="87.284 47.537 87.284 41.882 85.107 41.882 85.107 41.075 90.42 41.075 90.42 41.882 88.244 41.882 88.244 47.537 87.284 47.537"/>
    <path fill="#404040" d="M93.879 46.806C94.298 46.806 94.67 46.7 94.996 46.488 95.323 46.276 95.578 45.983 95.761 45.609 95.945 45.235 96.037 44.8 96.037 44.306 96.037 43.812 95.945 43.378 95.761 43.004 95.578 42.63 95.323 42.337 94.996 42.125 94.67 41.912 94.298 41.807 93.879 41.807 93.461 41.807 93.091 41.912 92.767 42.125 92.444 42.337 92.191 42.63 92.007 43.004 91.823 43.378 91.731 43.812 91.731 44.306 91.731 44.8 91.823 45.235 92.007 45.609 92.191 45.983 92.444 46.276 92.767 46.488 93.091 46.7 93.461 46.806 93.879 46.806zM93.879 47.643C93.271 47.643 92.733 47.499 92.264 47.215 91.795 46.93 91.426 46.537 91.156 46.037 90.887 45.536 90.752 44.959 90.752 44.306 90.752 43.654 90.887 43.078 91.156 42.577 91.426 42.076 91.795 41.683 92.264 41.398 92.733 41.113 93.271 40.97 93.879 40.97 94.488 40.97 95.028 41.113 95.5 41.398 95.972 41.683 96.343 42.076 96.612 42.577 96.881 43.078 97.016 43.654 97.016 44.306 97.016 44.959 96.881 45.536 96.612 46.037 96.343 46.537 95.972 46.93 95.5 47.215 95.028 47.499 94.488 47.643 93.879 47.643zM99.326 46.73L100.638 46.73C101.094 46.73 101.485 46.63 101.811 46.431 102.138 46.231 102.388 45.951 102.562 45.589 102.736 45.228 102.823 44.8 102.823 44.306 102.823 43.812 102.736 43.384 102.562 43.024 102.388 42.662 102.138 42.381 101.811 42.182 101.485 41.983 101.094 41.882 100.638 41.882L99.326 41.882 99.326 46.73zM98.366 47.537L98.366 41.075 100.638 41.075C101.271 41.075 101.826 41.209 102.301 41.479 102.776 41.747 103.145 42.125 103.408 42.61 103.671 43.095 103.803 43.661 103.803 44.306 103.803 44.953 103.671 45.518 103.408 46.003 103.145 46.488 102.776 46.865 102.301 47.134 101.826 47.404 101.271 47.537 100.638 47.537L98.366 47.537zM106.254 45.105L108.612 45.105 107.433 42.073 106.254 45.105zM109.553 47.537L108.925 45.912 105.941 45.912 105.313 47.537 104.344 47.537 106.929 41.075 107.965 41.075 110.541 47.537 109.553 47.537z"/>
    <polyline fill="#404040" points="113.488 44.972 113.488 47.537 112.527 47.537 112.527 44.972 110.256 41.075 111.387 41.075 113.013 44.059 114.638 41.075 115.749 41.075 113.488 44.972"/>
    <polyline fill="#404040" points="123.43 47.537 119.979 42.585 119.979 47.537 119.076 47.537 119.076 41.075 119.97 41.075 123.43 46.027 123.43 41.075 124.323 41.075 124.323 47.537 123.43 47.537"/>
    <polyline fill="#404040" points="126.015 47.537 126.015 41.075 130.159 41.075 130.159 41.882 126.975 41.882 126.975 43.878 129.778 43.878 129.778 44.687 126.975 44.687 126.975 46.73 130.234 46.73 130.234 47.537 126.015 47.537"/>
    <polyline fill="#404040" points="133.086 47.537 133.086 41.882 130.909 41.882 130.909 41.075 136.222 41.075 136.222 41.882 134.046 41.882 134.046 47.537 133.086 47.537"/>
    <polyline fill="#404040" points="142.495 47.537 140.984 42.386 139.473 47.537 138.475 47.537 136.755 41.075 137.705 41.075 139.017 46.188 140.528 41.075 141.44 41.075 142.961 46.207 144.282 41.075 145.214 41.075 143.493 47.537 142.495 47.537"/>
    <path fill="#404040" d="M149.025 46.806C149.443 46.806 149.815 46.7 150.141 46.488 150.468 46.276 150.723 45.983 150.907 45.609 151.09 45.235 151.183 44.8 151.183 44.306 151.183 43.812 151.09 43.378 150.907 43.004 150.723 42.63 150.468 42.337 150.141 42.125 149.815 41.912 149.443 41.807 149.025 41.807 148.607 41.807 148.236 41.912 147.913 42.125 147.59 42.337 147.336 42.63 147.153 43.004 146.969 43.378 146.877 43.812 146.877 44.306 146.877 44.8 146.969 45.235 147.153 45.609 147.336 45.983 147.59 46.276 147.913 46.488 148.236 46.7 148.607 46.806 149.025 46.806zM149.025 47.643C148.416 47.643 147.878 47.499 147.409 47.215 146.94 46.93 146.571 46.537 146.302 46.037 146.033 45.536 145.898 44.959 145.898 44.306 145.898 43.654 146.033 43.078 146.302 42.577 146.571 42.076 146.94 41.683 147.409 41.398 147.878 41.113 148.416 40.97 149.025 40.97 149.633 40.97 150.173 41.113 150.645 41.398 151.118 41.683 151.488 42.076 151.758 42.577 152.027 43.078 152.162 43.654 152.162 44.306 152.162 44.959 152.027 45.536 151.758 46.037 151.488 46.537 151.118 46.93 150.645 47.215 150.173 47.499 149.633 47.643 149.025 47.643zM154.471 44.125L155.792 44.125C156.204 44.125 156.532 44.024 156.776 43.822 157.02 43.618 157.142 43.346 157.142 43.004 157.142 42.662 157.02 42.39 156.776 42.187 156.532 41.985 156.204 41.882 155.792 41.882L154.471 41.882 154.471 44.125zM154.471 44.914L154.471 47.537 153.511 47.537 153.511 41.075 155.792 41.075C156.508 41.075 157.076 41.247 157.494 41.592 157.912 41.938 158.121 42.409 158.121 43.004 158.121 43.454 157.994 43.834 157.741 44.145 157.487 44.455 157.139 44.673 156.695 44.8L158.264 47.537 157.171 47.537 155.697 44.914 154.471 44.914z"/>
    <polyline fill="#404040" points="163.338 47.537 160.44 44.278 160.44 47.537 159.48 47.537 159.48 41.075 160.44 41.075 160.44 43.907 163.149 41.075 164.337 41.075 161.456 44.04 164.545 47.537 163.338 47.537"/>
  </g>
</svg>
