<svg xmlns="http://www.w3.org/2000/svg" width="349" height="55" viewBox="0 0 349 55">
  <g fill="none" fill-rule="evenodd">
    <path class='no-color-change' fill="#009BFF" d="M54.177,27.824 C54.177,42.737 42.09,54.824 27.177,54.824 C12.264,54.824 0.177,42.737 0.177,27.824 C0.177,12.911 12.264,0.824 27.177,0.824 C42.09,0.824 54.177,12.911 54.177,27.824"/>
    <path fill="#404040" d="M69.536 21.551C70.516 21.551 71.272 21.263 71.805 20.686 72.338 20.109 72.606 19.287 72.606 18.22L72.606 7.441 77.484 7.441 77.484 18.194C77.484 20.555 76.793 22.382 75.411 23.676 74.031 24.97 72.072 25.617 69.536 25.617 67.001 25.617 65.042 24.97 63.661 23.676 62.28 22.382 61.589 20.555 61.589 18.194L61.589 7.441 66.468 7.441 66.468 18.22C66.468 19.287 66.735 20.109 67.268 20.686 67.801 21.263 68.557 21.551 69.536 21.551M87.24 25.617C85.789 25.617 84.399 25.368 83.071 24.87 81.742 24.37 80.587 23.659 79.609 22.732L81.969 19.768C82.668 20.397 83.454 20.892 84.329 21.249 85.203 21.608 86.165 21.787 87.214 21.787 87.913 21.787 88.464 21.665 88.866 21.42 89.269 21.175 89.47 20.808 89.47 20.319 89.47 19.846 89.235 19.466 88.762 19.178 88.29 18.889 87.459 18.587 86.271 18.273L85.169 17.984C83.56 17.565 82.336 16.922 81.496 16.056 80.658 15.191 80.238 14.094 80.238 12.765 80.238 11.628 80.534 10.631 81.129 9.775 81.724 8.918 82.546 8.258 83.595 7.794 84.644 7.331 85.86 7.099 87.24 7.099 88.605 7.099 89.907 7.349 91.149 7.847 92.39 8.345 93.491 9.023 94.453 9.879L92.014 12.949C91.385 12.407 90.646 11.934 89.798 11.532 88.949 11.13 88.107 10.929 87.267 10.929 86.568 10.929 86.03 11.047 85.654 11.283 85.278 11.519 85.09 11.865 85.09 12.319 85.09 12.739 85.286 13.102 85.68 13.408 86.074 13.713 86.751 13.997 87.713 14.26L89.05 14.627C90.974 15.152 92.333 15.869 93.129 16.778 93.924 17.687 94.323 18.745 94.323 19.952 94.323 21.088 94.03 22.08 93.444 22.928 92.858 23.777 92.032 24.437 90.965 24.909 89.899 25.38 88.657 25.617 87.24 25.617M102.48 18.326L106.702 18.326 104.605 12.082 102.48 18.326zM109.063 25.276L107.936 21.945 101.247 21.945 100.119 25.276 95.293 25.276 101.824 7.441 107.49 7.441 114.021 25.276 109.063 25.276 109.063 25.276z"/>
    <polyline fill="#404040" points="125.219 25.276 125.219 11.374 119.921 11.374 119.921 7.441 135.396 7.441 135.396 11.374 130.098 11.374 130.098 25.276 125.219 25.276"/>
    <path fill="#404040" d="M145.599 21.578C146.455 21.578 147.202 21.359 147.841 20.922 148.48 20.485 148.982 19.877 149.349 19.099 149.716 18.321 149.901 17.416 149.901 16.384 149.901 15.353 149.716 14.444 149.349 13.657 148.982 12.87 148.48 12.253 147.841 11.807 147.202 11.362 146.455 11.139 145.599 11.139 144.741 11.139 143.994 11.362 143.356 11.807 142.718 12.253 142.215 12.87 141.848 13.657 141.481 14.444 141.297 15.353 141.297 16.384 141.297 17.416 141.481 18.321 141.848 19.099 142.215 19.877 142.718 20.485 143.356 20.922 143.994 21.359 144.741 21.578 145.599 21.578zM145.599 25.617C143.815 25.617 142.229 25.223 140.838 24.437 139.449 23.65 138.351 22.561 137.546 21.171 136.742 19.781 136.34 18.186 136.34 16.384 136.34 15.02 136.567 13.775 137.022 12.647 137.477 11.519 138.123 10.539 138.963 9.709 139.802 8.879 140.782 8.236 141.901 7.782 143.019 7.327 144.252 7.099 145.599 7.099 146.945 7.099 148.178 7.327 149.297 7.782 150.415 8.236 151.395 8.879 152.235 9.709 153.074 10.539 153.721 11.519 154.175 12.647 154.63 13.775 154.858 15.02 154.858 16.384 154.858 18.186 154.455 19.781 153.651 21.171 152.846 22.561 151.749 23.65 150.36 24.437 148.969 25.223 147.382 25.617 145.599 25.617L145.599 25.617zM162.463 21.42L164.693 21.42C165.969 21.42 166.979 20.957 167.722 20.03 168.465 19.104 168.837 17.879 168.837 16.358 168.837 14.836 168.465 13.613 167.722 12.686 166.979 11.759 165.969 11.296 164.693 11.296L162.463 11.296 162.463 21.42zM157.663 25.276L157.663 7.441 164.693 7.441C166.459 7.441 168.02 7.821 169.374 8.581 170.73 9.342 171.792 10.391 172.562 11.729 173.33 13.067 173.715 14.61 173.715 16.358 173.715 18.107 173.33 19.65 172.562 20.988 171.792 22.325 170.73 23.374 169.374 24.135 168.02 24.896 166.459 25.276 164.693 25.276L157.663 25.276 157.663 25.276zM181.532 18.326L185.754 18.326 183.657 12.082 181.532 18.326zM188.115 25.276L186.988 21.945 180.299 21.945 179.171 25.276 174.345 25.276 180.876 7.441 186.541 7.441 193.073 25.276 188.115 25.276 188.115 25.276z"/>
    <polyline fill="#404040" points="202.514 18.85 202.514 25.276 197.556 25.276 197.556 18.85 191.236 7.441 196.743 7.441 200.048 14.522 203.326 7.441 208.834 7.441 202.514 18.85"/>
    <polyline fill="#404040" points="227.797 25.276 220.794 14.995 220.794 25.276 216.309 25.276 216.309 7.441 220.768 7.441 227.744 17.906 227.744 7.441 232.256 7.441 232.256 25.276 227.797 25.276"/>
    <polyline fill="#404040" points="236.191 25.276 236.191 7.441 248.492 7.441 248.492 11.348 240.965 11.348 240.965 14.365 247.653 14.365 247.653 18.273 240.965 18.273 240.965 21.368 248.912 21.368 248.912 25.276 236.191 25.276"/>
    <polyline fill="#404040" points="255.914 25.276 255.914 11.374 250.616 11.374 250.616 7.441 266.091 7.441 266.091 11.374 260.793 11.374 260.793 25.276 255.914 25.276"/>
    <polyline fill="#404040" points="282.562 25.276 279.677 13.683 276.791 25.276 271.624 25.276 267.192 7.441 271.913 7.441 274.615 19.611 277.605 7.441 281.775 7.441 284.739 19.532 287.519 7.441 292.161 7.441 287.729 25.276 282.562 25.276"/>
    <path fill="#404040" d="M302.548 21.578C303.405 21.578 304.152 21.359 304.79 20.922 305.429 20.485 305.931 19.877 306.298 19.099 306.665 18.321 306.85 17.416 306.85 16.384 306.85 15.353 306.665 14.444 306.298 13.657 305.931 12.87 305.429 12.253 304.79 11.807 304.152 11.362 303.405 11.139 302.548 11.139 301.691 11.139 300.944 11.362 300.305 11.807 299.667 12.253 299.164 12.87 298.797 13.657 298.43 14.444 298.246 15.353 298.246 16.384 298.246 17.416 298.43 18.321 298.797 19.099 299.164 19.877 299.667 20.485 300.305 20.922 300.944 21.359 301.691 21.578 302.548 21.578zM302.548 25.617C300.764 25.617 299.178 25.223 297.787 24.437 296.398 23.65 295.3 22.561 294.495 21.171 293.692 19.781 293.289 18.186 293.289 16.384 293.289 15.02 293.516 13.775 293.971 12.647 294.426 11.519 295.073 10.539 295.912 9.709 296.751 8.879 297.731 8.236 298.85 7.782 299.968 7.327 301.201 7.099 302.548 7.099 303.894 7.099 305.127 7.327 306.246 7.782 307.365 8.236 308.344 8.879 309.184 9.709 310.023 10.539 310.67 11.519 311.124 12.647 311.579 13.775 311.807 15.02 311.807 16.384 311.807 18.186 311.405 19.781 310.6 21.171 309.795 22.561 308.698 23.65 307.309 24.437 305.918 25.223 304.331 25.617 302.548 25.617L302.548 25.617zM319.387 15.65L322.01 15.65C322.761 15.65 323.356 15.454 323.793 15.06 324.23 14.666 324.448 14.128 324.448 13.447 324.448 12.8 324.23 12.28 323.793 11.886 323.356 11.493 322.761 11.296 322.01 11.296L319.387 11.296 319.387 15.65zM319.387 19.348L319.387 25.276 314.665 25.276 314.665 7.441 322.534 7.441C324.632 7.441 326.293 7.978 327.518 9.053 328.741 10.128 329.354 11.593 329.354 13.447 329.354 14.653 329.082 15.694 328.54 16.568 327.998 17.443 327.238 18.124 326.259 18.614L329.905 25.276 324.711 25.276 321.747 19.348 319.387 19.348 319.387 19.348z"/>
    <polyline fill="#404040" points="343.044 25.276 337.379 16.556 337.379 25.276 332.527 25.276 332.527 7.441 337.379 7.441 337.379 15.27 343.254 7.441 348.867 7.441 342.258 15.637 348.737 25.276 343.044 25.276"/>
    <path class='no-color-change' fill="#009BFF" d="M69.221 48.47C67.77 48.47 66.379 48.221 65.051 47.723 63.722 47.224 62.568 46.512 61.589 45.585L63.949 42.621C64.649 43.25 65.435 43.745 66.31 44.103 67.184 44.461 68.146 44.641 69.195 44.641 69.894 44.641 70.445 44.519 70.847 44.274 71.249 44.029 71.451 43.662 71.451 43.172 71.451 42.7 71.215 42.32 70.742 42.032 70.271 41.743 69.44 41.441 68.251 41.126L67.15 40.837C65.54 40.418 64.317 39.776 63.477 38.91 62.638 38.044 62.218 36.948 62.218 35.618 62.218 34.482 62.515 33.485 63.11 32.628 63.704 31.772 64.527 31.112 65.575 30.648 66.624 30.185 67.84 29.953 69.221 29.953 70.585 29.953 71.888 30.203 73.129 30.701 74.37 31.199 75.472 31.876 76.434 32.733L73.994 35.802C73.366 35.26 72.626 34.787 71.779 34.385 70.93 33.984 70.087 33.783 69.247 33.783 68.548 33.783 68.01 33.901 67.634 34.136 67.258 34.372 67.071 34.718 67.071 35.172 67.071 35.592 67.267 35.955 67.66 36.261 68.054 36.567 68.732 36.851 69.694 37.114L71.031 37.481C72.954 38.005 74.314 38.722 75.11 39.631 75.905 40.54 76.303 41.598 76.303 42.805 76.303 43.942 76.01 44.934 75.424 45.782 74.838 46.63 74.012 47.29 72.946 47.762 71.879 48.234 70.638 48.47 69.221 48.47M84.303 41.179L88.526 41.179 86.428 34.936 84.303 41.179zM90.886 48.129L89.759 44.798 83.071 44.798 81.943 48.129 77.116 48.129 83.648 30.294 89.313 30.294 95.844 48.129 90.886 48.129 90.886 48.129z"/>
    <polyline class='no-color-change' fill="#009BFF" points="109.665 48.129 102.662 37.848 102.662 48.129 98.177 48.129 98.177 30.294 102.636 30.294 109.613 40.759 109.613 30.294 114.124 30.294 114.124 48.129 109.665 48.129"/>
    <path class='no-color-change' fill="#009BFF" d="M129.94,41.179 L134.162,41.179 L132.065,34.936 L129.94,41.179 Z M136.523,48.129 L135.396,44.798 L128.707,44.798 L127.579,48.129 L122.753,48.129 L129.284,30.294 L134.949,30.294 L141.481,48.129 L136.523,48.129 L136.523,48.129 Z"/>
    <polyline class='no-color-change' fill="#009BFF" points="155.302 48.129 148.299 37.848 148.299 48.129 143.814 48.129 143.814 30.294 148.273 30.294 155.249 40.759 155.249 30.294 159.761 30.294 159.761 48.129 155.302 48.129"/>
    <path class='no-color-change' fill="#009BFF" d="M179.643,46.031 C178.891,46.8 177.85,47.4 176.522,47.828 C175.193,48.256 173.724,48.47 172.115,48.47 C170.192,48.47 168.526,48.081 167.118,47.303 C165.711,46.525 164.618,45.437 163.84,44.037 C163.062,42.639 162.673,41.021 162.673,39.185 C162.673,37.349 163.067,35.741 163.854,34.36 C164.64,32.978 165.741,31.898 167.158,31.12 C168.574,30.342 170.227,29.953 172.115,29.953 C175.332,29.953 177.824,31.16 179.59,33.573 L175.682,35.854 C175.315,35.26 174.813,34.801 174.174,34.477 C173.535,34.154 172.832,33.993 172.063,33.993 C170.663,33.993 169.575,34.464 168.797,35.409 C168.019,36.353 167.63,37.612 167.63,39.185 C167.63,40.952 168.072,42.267 168.954,43.133 C169.837,43.998 171.118,44.431 172.797,44.431 C173.584,44.431 174.362,44.3 175.131,44.037 L175.131,41.414 L171.958,41.414 L171.958,37.873 L179.643,37.873 L179.643,46.031"/>
    <polyline class='no-color-change' fill="#009BFF" points="182.947 48.129 182.947 30.294 195.248 30.294 195.248 34.202 187.721 34.202 187.721 37.218 194.408 37.218 194.408 41.126 187.721 41.126 187.721 44.221 195.668 44.221 195.668 48.129 182.947 48.129"/>
    <polyline class='no-color-change' fill="#009BFF" points="203.615 44.195 211.038 44.195 211.038 48.129 198.737 48.129 198.737 30.294 203.615 30.294 203.615 44.195"/>
    <path class='no-color-change' fill="#009BFF" d="M221.32,44.431 C222.176,44.431 222.923,44.212 223.562,43.776 C224.2,43.338 224.702,42.731 225.07,41.953 C225.437,41.174 225.621,40.27 225.621,39.238 C225.621,38.206 225.437,37.297 225.07,36.51 C224.702,35.723 224.2,35.107 223.562,34.661 C222.923,34.215 222.176,33.993 221.32,33.993 C220.462,33.993 219.715,34.215 219.076,34.661 C218.439,35.107 217.936,35.723 217.569,36.51 C217.201,37.297 217.018,38.206 217.018,39.238 C217.018,40.27 217.201,41.174 217.569,41.953 C217.936,42.731 218.439,43.338 219.076,43.776 C219.715,44.212 220.462,44.431 221.32,44.431 Z M221.32,48.47 C219.535,48.47 217.949,48.077 216.559,47.29 C215.169,46.503 214.072,45.414 213.267,44.025 C212.463,42.634 212.061,41.039 212.061,39.238 C212.061,37.873 212.287,36.628 212.742,35.5 C213.198,34.372 213.844,33.393 214.684,32.563 C215.523,31.733 216.502,31.089 217.621,30.635 C218.74,30.18 219.973,29.953 221.32,29.953 C222.665,29.953 223.899,30.18 225.018,30.635 C226.136,31.089 227.115,31.733 227.955,32.563 C228.794,33.393 229.442,34.372 229.896,35.5 C230.351,36.628 230.578,37.873 230.578,39.238 C230.578,41.039 230.176,42.634 229.371,44.025 C228.567,45.414 227.47,46.503 226.08,47.29 C224.69,48.077 223.103,48.47 221.32,48.47 L221.32,48.47 Z"/>
  </g>
</svg>
