<svg id="sheboyganpress" xmlns="http://www.w3.org/2000/svg" xmlns:xlink="http://www.w3.org/1999/xlink" width="656" height="160" viewBox="0 0 656 160">
  <defs>
    <style>
      .cls-1, .cls-2 {
        fill: #000;
        fill-rule: evenodd;
      }

      .cls-1 {
        filter: url(#filter);
      }
    </style>
    <filter id="filter" x="10" y="119.969" width="367.969" height="16" filterUnits="userSpaceOnUse">
      <feFlood result="flood" flood-color="#999"/>
      <feComposite result="composite" operator="in" in2="SourceGraphic"/>
      <feBlend result="blend" in2="SourceGraphic"/>
    </filter>
  </defs>
  <path id="USAT_Network" data-name="USAT Network" class="cls-1" d="M9.989,120.273h4.488c3.156,0,5.268,1.865,5.268,4.741s-2.155,4.735-5.267,4.735H12.188v5.925h-2.2v-15.4Zm4.267,7.659c2.112,0,3.244-1.163,3.244-2.918,0-1.736-1.132-2.919-3.244-2.919H12.188v5.837h2.068Zm11.768-7.659H27.98l6.4,15.4H32.022l-1.6-4.035H23.513l-1.6,4.035H19.6S25.244,122.162,26.024,120.273Zm3.665,9.544L28.2,126.023c-0.221-.572-1.179-2.942-1.2-3.139H26.957c-0.022.2-.955,2.5-1.2,3.139l-1.51,3.794h5.443Zm6.923-9.544h4.51c2.91,0,5.178,1.5,5.178,4.563a4.293,4.293,0,0,1-3.955,4.346l4.778,6.492H44.545l-4.51-6.276H38.812v6.276h-2.2v-15.4Zm4.267,7.351c2.043,0,3.2-1.077,3.2-2.764s-1.157-2.765-3.2-2.765H38.812v5.529H40.88ZM52.4,122.138H47.957v-1.865H59.046v1.865H54.6v13.536H52.4V122.138Zm12.348,5.838a8.2,8.2,0,1,1,8.2,8A7.862,7.862,0,0,1,64.75,127.976Zm14.133,0a5.946,5.946,0,1,0-5.955,6.053A5.773,5.773,0,0,0,78.882,127.976Zm5.433-7.7h7.867v1.865H86.514V127.1H92v1.865H86.514v6.713h-2.2v-15.4Zm17.815,1.865H97.686v-1.865h11.088v1.865H104.33v13.536h-2.2V122.138Zm8.953-1.865h2.2v6.318h8.178v-6.318h2.2v15.4h-2.2v-7.218h-8.178v7.218h-2.2v-15.4Zm16.631,0h8.49v1.846h-6.29v4.472h6.11v1.846h-6.11v5.395h6.422v1.842h-8.622v-15.4Zm16,10.092V120.273h2.221v9.433c0,2.679,1.157,4.323,3.756,4.323,2.622,0,3.78-1.644,3.78-4.323v-9.433h2.221v10.092c0,3.38-2.2,5.616-6,5.616C145.865,135.981,143.71,133.745,143.71,130.365Zm14.274,2.524,1.491-1.25a4.52,4.52,0,0,0,3.911,2.433c1.709,0,3.044-.918,3.044-2.611,0-1.817-1.534-2.433-3.446-3.178-1.956-.769-3.933-1.736-3.933-4.193,0-2.432,1.912-4.12,4.712-4.12a5.248,5.248,0,0,1,4.579,2.322l-1.491,1.25a3.552,3.552,0,0,0-3.088-1.668c-1.512,0-2.511.769-2.511,2.063,0,1.6,1.554,2.13,2.911,2.654,2.2,0.856,4.466,1.889,4.466,4.716,0,2.679-2,4.674-5.2,4.674A6.064,6.064,0,0,1,157.984,132.889Zm18.241-12.616h1.956l6.4,15.4h-2.357l-1.6-4.035h-6.912l-1.6,4.035H169.8S175.446,122.162,176.225,120.273Zm3.665,9.544-1.487-3.794c-0.222-.572-1.179-2.942-1.2-3.139h-0.044c-0.022.2-.955,2.5-1.2,3.139l-1.51,3.794h5.443Zm13.978-7.679h-4.445v-1.865h11.088v1.865h-4.444v13.536h-2.2V122.138Zm7.469,5.838a8.2,8.2,0,1,1,8.2,8A7.861,7.861,0,0,1,201.337,127.976Zm14.132,0a5.945,5.945,0,1,0-5.954,6.053A5.772,5.772,0,0,0,215.469,127.976Zm5.434-7.7h4.423c4.977,0,8.265,2.808,8.265,7.7,0,4.87-3.312,7.7-8.265,7.7H220.9v-15.4Zm2.2,13.534h2.046c3.643,0,6.176-1.9,6.176-5.831s-2.533-5.838-6.176-5.838H223.1v11.669Zm17.637-13.534H242.7l6.4,15.4h-2.357l-1.6-4.035h-6.912l-1.6,4.035h-2.311S239.96,122.162,240.739,120.273Zm3.666,9.544-1.489-3.794c-0.221-.572-1.178-2.942-1.2-3.139h-0.044c-0.022.2-.955,2.5-1.2,3.139l-1.51,3.794h5.444Zm9.084-.419-5.312-9.125h2.467l2.889,5.135a22.887,22.887,0,0,1,1.11,2.192h0.022a23.153,23.153,0,0,1,1.113-2.192l2.91-5.135h2.4l-5.309,9.125v6.276h-2.289V129.4Zm14.062-9.125h1.687l8.846,9.982c0.266,0.288,1.422,1.711,1.534,1.932l0.044-.023c-0.044-.217-0.044-2-0.044-2.39v-9.5h2.134v15.4h-1.713l-8.845-9.983c-0.265-.283-1.422-1.711-1.532-1.928l-0.021.02c0.021,0.221.043,2,.043,2.394v9.5h-2.133v-15.4Zm18.253,0h8.487v1.846H288v4.472h6.113v1.846H288v5.395h6.422v1.842H285.8v-15.4Zm15.37,1.865h-4.445v-1.865h11.089v1.865h-4.445v13.536h-2.2V122.138Zm8.478-1.865h2.333l3.2,9.15c0.112,0.351.867,2.63,0.889,2.981h0.046a30.445,30.445,0,0,1,.933-2.981l3.334-9.15h1.756l3.332,9.15c0.133,0.351.91,2.63,0.935,2.981h0.044c0.044-.351.8-2.63,0.91-2.981l3.179-9.15h2.243l-5.49,15.4h-1.688l-3.6-9.607a25.578,25.578,0,0,1-.758-2.5h-0.044a25.421,25.421,0,0,1-.776,2.5l-3.578,9.607h-1.69Zm24.117,7.7a8.2,8.2,0,1,1,8.2,8A7.862,7.862,0,0,1,333.769,127.976Zm14.133,0a5.945,5.945,0,1,0-5.955,6.053A5.772,5.772,0,0,0,347.9,127.976Zm5.433-7.7h4.511c2.913,0,5.178,1.5,5.178,4.563a4.294,4.294,0,0,1-3.956,4.346l4.779,6.492h-2.579l-4.511-6.276h-1.222v6.276h-2.2v-15.4Zm4.267,7.351c2.044,0,3.2-1.077,3.2-2.764s-1.156-2.765-3.2-2.765h-2.067v5.529H357.6Zm8.736-7.351h2.2v7.154l6.444-7.154h2.666l-6.687,7.351,7,8.05h-2.754l-6.668-7.785v7.785h-2.2v-15.4Z"/>
  <path class="cls-2" d="M28.043,47.037l-3.828,3.958q-4.776-4.638-9.337-4.638A7.052,7.052,0,0,0,9.91,48.271a5.915,5.915,0,0,0-2.068,4.468,6.622,6.622,0,0,0,1.7,4.3q1.7,2.086,7.16,4.894,6.648,3.447,9.035,6.639a12.1,12.1,0,0,1,2.343,7.276,13.062,13.062,0,0,1-4,9.659,13.66,13.66,0,0,1-10.008,3.958,17.474,17.474,0,0,1-7.646-1.745A16.593,16.593,0,0,1,.4,82.91l3.742-4.255Q8.7,83.8,13.819,83.8a8.714,8.714,0,0,0,6.1-2.3,7.1,7.1,0,0,0,2.515-5.4,6.929,6.929,0,0,0-1.662-4.553q-1.663-1.957-7.5-4.936Q7,63.378,4.742,60.229a12.027,12.027,0,0,1-2.258-7.191,11.7,11.7,0,0,1,3.6-8.766,12.536,12.536,0,0,1,9.1-3.489Q21.567,40.782,28.043,47.037ZM36.586,24.1H42.54v26.17a25.32,25.32,0,0,1,7.953-7.128,19.348,19.348,0,0,1,9.4-2.361A16.4,16.4,0,0,1,69.1,43.42a15.739,15.739,0,0,1,5.932,7.085q1.914,4.447,1.914,13.936v23.83H70.991V66.187q0-8-.638-10.682a12.115,12.115,0,0,0-4.019-6.915A11.9,11.9,0,0,0,58.7,46.271a14.673,14.673,0,0,0-9.674,3.574A16.744,16.744,0,0,0,43.391,58.7q-0.851,3.405-.851,12.6V88.271H36.586V24.1Zm90.068,48.81,5.018,2.638a27.355,27.355,0,0,1-5.7,7.83,22.668,22.668,0,0,1-7.28,4.531,25.374,25.374,0,0,1-9.151,1.553q-11.323,0-17.708-7.426a25.057,25.057,0,0,1-6.385-16.786,24.76,24.76,0,0,1,5.405-15.7Q97.7,40.782,109.2,40.782q11.835,0,18.9,8.979,5.022,6.341,5.107,15.831H91.569a18.855,18.855,0,0,0,5.151,13.225,16.428,16.428,0,0,0,12.305,5.157,19.781,19.781,0,0,0,6.877-1.228,18.085,18.085,0,0,0,5.684-3.265A27.73,27.73,0,0,0,126.654,72.91Zm0-12.469a19.769,19.769,0,0,0-3.471-7.617,16.426,16.426,0,0,0-6.024-4.6,18.451,18.451,0,0,0-7.878-1.745,16.958,16.958,0,0,0-11.709,4.383q-3.577,3.191-5.408,9.574h34.489Zm16.028,27.83V24.1h5.954v25.83a25.133,25.133,0,0,1,8.369-6.873,23.448,23.448,0,0,1,26.914,4.851,23.87,23.87,0,0,1,6.947,17.3,23.531,23.531,0,0,1-7.011,17.15,22.835,22.835,0,0,1-16.865,7.106,21.547,21.547,0,0,1-10.239-2.426,23.887,23.887,0,0,1-8.115-7.276v8.511h-5.954ZM166.5,83.719a17.923,17.923,0,0,0,15.846-9.32,18.9,18.9,0,0,0-.02-18.766,18.266,18.266,0,0,0-6.725-6.958,17.469,17.469,0,0,0-9.016-2.489,18.527,18.527,0,0,0-9.271,2.489,17.337,17.337,0,0,0-6.746,6.7,19.113,19.113,0,0,0-2.355,9.49,18.472,18.472,0,0,0,5.282,13.447A17.469,17.469,0,0,0,166.5,83.719Zm55.111-42.937a22.911,22.911,0,0,1,17.722,7.745,24.87,24.87,0,0,1-.362,33.681q-6.754,7.256-17.36,7.256-10.651,0-17.4-7.256a24.816,24.816,0,0,1-.362-33.638A22.9,22.9,0,0,1,221.609,40.782Zm-0.022,5.83A17.173,17.173,0,0,0,208.826,52.1a18.355,18.355,0,0,0-5.334,13.277,18.822,18.822,0,0,0,2.433,9.362,17.227,17.227,0,0,0,6.572,6.7,18.678,18.678,0,0,0,18.181,0,17.232,17.232,0,0,0,6.571-6.7,18.833,18.833,0,0,0,2.433-9.362A18.318,18.318,0,0,0,234.326,52.1,17.2,17.2,0,0,0,221.587,46.612Zm28.17-4.638h6.294l15.9,35.652,15.441-35.652h6.337l-27.6,63.234H259.84l8.909-20.443Zm89.557,0h5.954V78.868q0,9.744-1.7,14.255a18.537,18.537,0,0,1-8.122,9.831,26.707,26.707,0,0,1-13.906,3.446,31.814,31.814,0,0,1-10.7-1.686,21.4,21.4,0,0,1-7.718-4.523,26.941,26.941,0,0,1-5.487-8.3H304.1a17.089,17.089,0,0,0,6.814,6.808,21.908,21.908,0,0,0,10.346,2.213,21.4,21.4,0,0,0,10.284-2.268,13.931,13.931,0,0,0,5.981-5.7q1.788-3.435,1.788-11.09V79.463a22.555,22.555,0,0,1-8.216,6.532,24.376,24.376,0,0,1-22.307-.894,22.5,22.5,0,0,1-8.683-8.531,23.328,23.328,0,0,1-3.065-11.788,24.08,24.08,0,0,1,23.924-24,22.151,22.151,0,0,1,9.684,2.149,26.7,26.7,0,0,1,8.663,7.085V41.973Zm-17.563,4.553a18.813,18.813,0,0,0-9.4,2.447,17.714,17.714,0,0,0-6.8,6.765,18.509,18.509,0,0,0-2.468,9.341,16.853,16.853,0,0,0,5.1,12.6q5.1,4.979,13.227,4.978,8.207,0,13.2-4.936t5-12.979a18.81,18.81,0,0,0-2.3-9.341,16.736,16.736,0,0,0-6.508-6.489A18.082,18.082,0,0,0,321.751,46.526Zm80.371-4.553v46.3h-5.867V80.314a25.549,25.549,0,0,1-8.4,6.85,23.455,23.455,0,0,1-26.964-4.829,23.9,23.9,0,0,1-6.953-17.341,23.475,23.475,0,0,1,7.017-17.107,22.874,22.874,0,0,1,16.884-7.106,21.826,21.826,0,0,1,10.313,2.425,23.505,23.505,0,0,1,8.1,7.277V41.973h5.867ZM378.33,46.526a17.956,17.956,0,0,0-15.868,9.309,18.771,18.771,0,0,0,.022,18.7,18.247,18.247,0,0,0,6.733,6.95,17.578,17.578,0,0,0,9.069,2.486,18.576,18.576,0,0,0,9.26-2.464,17.232,17.232,0,0,0,6.733-6.673,19.057,19.057,0,0,0,2.358-9.48,18.434,18.434,0,0,0-5.289-13.431A17.511,17.511,0,0,0,378.33,46.526Zm35.186-4.553h5.953v8.3a24.909,24.909,0,0,1,7.91-7.128,19.434,19.434,0,0,1,9.441-2.361,16.4,16.4,0,0,1,9.208,2.638,15.723,15.723,0,0,1,5.932,7.106q1.914,4.468,1.913,13.915v23.83h-5.954V66.187q0-8-.662-10.682a11.739,11.739,0,0,0-3.969-6.915,11.991,11.991,0,0,0-7.656-2.319,14.682,14.682,0,0,0-9.677,3.574A16.744,16.744,0,0,0,420.32,58.7q-0.852,3.447-.851,12.6V88.271h-5.953v-46.3Zm51.2,0h5.954v8.511a23.893,23.893,0,0,1,8.115-7.277,21.562,21.562,0,0,1,10.238-2.425,22.839,22.839,0,0,1,16.866,7.106,23.48,23.48,0,0,1,7.01,17.107,23.917,23.917,0,0,1-6.947,17.341,23.375,23.375,0,0,1-26.912,4.829,25.558,25.558,0,0,1-8.37-6.85v24.893h-5.954V41.973Zm23.815,4.553a17.48,17.48,0,0,0-13,5.4,18.444,18.444,0,0,0-5.282,13.431,19.066,19.066,0,0,0,2.355,9.48,17.181,17.181,0,0,0,6.746,6.673,18.652,18.652,0,0,0,9.271,2.464,17.469,17.469,0,0,0,9.015-2.486,18.237,18.237,0,0,0,6.726-6.949,18.784,18.784,0,0,0,.02-18.7A17.924,17.924,0,0,0,488.529,46.526Zm31.252-4.553h6.082v6.766a21.319,21.319,0,0,1,5.742-5.978,11.307,11.307,0,0,1,6.294-1.979,10.863,10.863,0,0,1,5.273,1.574l-3.105,5.021a8.284,8.284,0,0,0-3.147-.808,8.612,8.612,0,0,0-5.742,2.446q-2.764,2.448-4.209,7.6-1.107,3.957-1.106,16v15.66h-6.082v-46.3ZM584.844,72.91l5.018,2.638a27.376,27.376,0,0,1-5.7,7.83,22.631,22.631,0,0,1-7.279,4.531,25.378,25.378,0,0,1-9.151,1.553q-11.323,0-17.708-7.426a25.054,25.054,0,0,1-6.385-16.786,24.761,24.761,0,0,1,5.406-15.7q6.852-8.766,18.345-8.766,11.833,0,18.9,8.979,5.024,6.341,5.108,15.831H549.758a18.856,18.856,0,0,0,5.153,13.225,16.427,16.427,0,0,0,12.305,5.157,19.781,19.781,0,0,0,6.877-1.228,18.069,18.069,0,0,0,5.683-3.265A27.756,27.756,0,0,0,584.844,72.91Zm0-12.469a19.754,19.754,0,0,0-3.471-7.617,16.413,16.413,0,0,0-6.025-4.6,18.443,18.443,0,0,0-7.877-1.745,16.957,16.957,0,0,0-11.709,4.383q-3.576,3.191-5.407,9.574h34.489Zm38.908-13.4-3.826,3.958q-4.779-4.638-9.339-4.638a7.054,7.054,0,0,0-4.967,1.915,5.913,5.913,0,0,0-2.068,4.468,6.624,6.624,0,0,0,1.7,4.3q1.7,2.086,7.16,4.894,6.646,3.447,9.035,6.639a12.107,12.107,0,0,1,2.343,7.276,13.066,13.066,0,0,1-4,9.659,13.66,13.66,0,0,1-10.008,3.958,17.473,17.473,0,0,1-7.646-1.745,16.581,16.581,0,0,1-6.027-4.808l3.743-4.255q4.56,5.15,9.676,5.148a8.711,8.711,0,0,0,6.094-2.3,7.1,7.1,0,0,0,2.515-5.4,6.922,6.922,0,0,0-1.662-4.553q-1.662-1.957-7.5-4.936-6.266-3.235-8.524-6.384a12.024,12.024,0,0,1-2.258-7.191,11.7,11.7,0,0,1,3.6-8.766,12.539,12.539,0,0,1,9.1-3.489Q617.277,40.782,623.752,47.037Zm31.805,0-3.826,3.958q-4.777-4.638-9.338-4.638a7.054,7.054,0,0,0-4.968,1.915,5.913,5.913,0,0,0-2.068,4.468,6.624,6.624,0,0,0,1.705,4.3q1.7,2.086,7.16,4.894,6.648,3.447,9.035,6.639a12.107,12.107,0,0,1,2.343,7.276,13.062,13.062,0,0,1-4,9.659,13.659,13.659,0,0,1-10.008,3.958,17.473,17.473,0,0,1-7.646-1.745,16.57,16.57,0,0,1-6.026-4.808l3.742-4.255q4.56,5.15,9.676,5.148a8.714,8.714,0,0,0,6.1-2.3,7.1,7.1,0,0,0,2.514-5.4,6.926,6.926,0,0,0-1.661-4.553q-1.663-1.957-7.5-4.936-6.267-3.235-8.525-6.384A12.031,12.031,0,0,1,630,53.037a11.7,11.7,0,0,1,3.6-8.766,12.54,12.54,0,0,1,9.1-3.489Q649.081,40.782,655.557,47.037Zm-136.37,81.774a3.388,3.388,0,0,1,2.486,1.029,3.573,3.573,0,0,1,0,5.016,3.483,3.483,0,0,1-4.971,0,3.571,3.571,0,0,1,0-5.016A3.384,3.384,0,0,1,519.187,128.811ZM559.8,110.463l-3.17,1.972a13.275,13.275,0,0,0-11.213-5.459,12.969,12.969,0,0,0-9.428,3.654,11.928,11.928,0,0,0-3.752,8.878,12.6,12.6,0,0,0,1.727,6.4,12.1,12.1,0,0,0,4.735,4.653,14.314,14.314,0,0,0,17.931-3.8l3.17,2.086a14.97,14.97,0,0,1-5.984,5.21,19.113,19.113,0,0,1-8.554,1.85,16.892,16.892,0,0,1-12.225-4.687,15.253,15.253,0,0,1-4.856-11.4,16.3,16.3,0,0,1,2.271-8.388,16,16,0,0,1,6.241-6.045,18.2,18.2,0,0,1,8.884-2.172,18.964,18.964,0,0,1,5.954.943,16.544,16.544,0,0,1,4.87,2.459A13.316,13.316,0,0,1,559.8,110.463Zm21.049-7.26a15.392,15.392,0,0,1,11.9,5.2,16.708,16.708,0,0,1-.244,22.622,16.422,16.422,0,0,1-23.348,0,16.666,16.666,0,0,1-.244-22.593A15.376,15.376,0,0,1,580.849,103.2Zm-0.014,3.915a11.537,11.537,0,0,0-8.571,3.687,12.332,12.332,0,0,0-3.583,8.918,12.651,12.651,0,0,0,1.634,6.287,11.576,11.576,0,0,0,4.414,4.5,12.538,12.538,0,0,0,12.211,0,11.59,11.59,0,0,0,4.414-4.5,12.652,12.652,0,0,0,1.635-6.287,12.3,12.3,0,0,0-3.6-8.918A11.552,11.552,0,0,0,580.835,107.118ZM603.068,104h4v5.373a15.5,15.5,0,0,1,4.288-4.344,12.159,12.159,0,0,1,6.378-1.829,10.579,10.579,0,0,1,4.288.887,9.219,9.219,0,0,1,3.319,2.357,12.64,12.64,0,0,1,2.229,4.215,14.78,14.78,0,0,1,4.987-5.559A11.8,11.8,0,0,1,639,103.2a10.079,10.079,0,0,1,5.684,1.629,9.721,9.721,0,0,1,3.662,4.544q1.2,2.916,1.2,8.746V135.1h-4.084V118.122a22.233,22.233,0,0,0-.712-6.873,6.2,6.2,0,0,0-2.434-3.016,7.271,7.271,0,0,0-4.114-1.143,8.947,8.947,0,0,0-5.31,1.715,9.866,9.866,0,0,0-3.516,4.573q-1.11,2.858-1.11,9.546V135.1h-4V119.18q0-5.633-.7-7.645a6.411,6.411,0,0,0-2.441-3.231,7.069,7.069,0,0,0-4.142-1.214,8.94,8.94,0,0,0-5.185,1.672,9.9,9.9,0,0,0-3.569,4.5q-1.158,2.831-1.157,8.661V135.1h-4V104Z"/>
</svg>
