<svg xmlns="http://www.w3.org/2000/svg" width="390" height="45" viewBox="0 0 390 45">
  <g fill="none" fill-rule="evenodd">
    <path fill="#009BFF" class='no-color-change' d="M13.452 33.869C10.961 33.869 8.576 33.441 6.297 32.586 4.017 31.731 2.037 30.509.357 28.919L4.407 23.834C5.606 24.914 6.956 25.762 8.457 26.376 9.956 26.992 11.607 27.299 13.407 27.299 14.606 27.299 15.551 27.089 16.242 26.669 16.932 26.25 17.277 25.619 17.277 24.779 17.277 23.969 16.872 23.316 16.062 22.822 15.252 22.327 13.827 21.809 11.787 21.269L9.897 20.774C7.136 20.054 5.037 18.952 3.597 17.466 2.157 15.981 1.437 14.099 1.437 11.819 1.437 9.869 1.947 8.159 2.967 6.689 3.986 5.219 5.397 4.086 7.197 3.292 8.997 2.497 11.081 2.099 13.452 2.099 15.792 2.099 18.026 2.526 20.157 3.381 22.287 4.236 24.176 5.399 25.827 6.869L21.642 12.134C20.562 11.205 19.294 10.394 17.839 9.704 16.384 9.014 14.937 8.669 13.497 8.669 12.297 8.669 11.374 8.872 10.729 9.276 10.084 9.681 9.762 10.274 9.762 11.054 9.762 11.774 10.099 12.397 10.774 12.921 11.449 13.447 12.611 13.934 14.262 14.384L16.557 15.014C19.857 15.914 22.189 17.144 23.554 18.704 24.919 20.264 25.602 22.079 25.602 24.149 25.602 26.099 25.099 27.802 24.094 29.256 23.089 30.712 21.671 31.844 19.842 32.654 18.012 33.464 15.882 33.869 13.452 33.869M37.842 20.684L37.842 33.284 30.012 33.284 30.012.434 37.842.434 37.842 13.034C38.591 12.044 39.544 11.256 40.699 10.671 41.854 10.086 43.107 9.794 44.456 9.794 46.946 9.794 48.941 10.604 50.442 12.224 51.941 13.844 52.692 16.169 52.692 19.199L52.692 33.284 44.861 33.284 44.861 20.099C44.861 18.749 44.561 17.752 43.962 17.106 43.361 16.461 42.521 16.139 41.442 16.139 40.361 16.139 39.491 16.484 38.831 17.174 38.171 17.865 37.842 19.035 37.842 20.684M68.621 15.464C66.071 15.464 64.541 16.814 64.031 19.514L72.761 19.514C72.551 18.044 72.048 17.001 71.253 16.386 70.458 15.772 69.581 15.464 68.621 15.464zM79.331 30.944C78.19 31.754 76.743 32.444 74.989 33.014 73.233 33.583 71.366 33.869 69.386 33.869 66.656 33.869 64.324 33.366 62.388 32.361 60.454 31.357 58.968 29.954 57.934 28.154 56.898 26.354 56.381 24.284 56.381 21.944 56.381 19.575 56.891 17.474 57.911 15.644 58.93 13.814 60.341 12.381 62.141 11.346 63.941 10.312 66.041 9.794 68.441 9.794 70.781 9.794 72.843 10.296 74.628 11.301 76.413 12.307 77.808 13.702 78.813 15.486 79.818 17.272 80.321 19.364 80.321 21.764 80.321 22.094 80.299 22.439 80.253 22.799 80.208 23.159 80.156 23.535 80.096 23.924L64.121 23.924C64.841 26.564 66.805 27.884 70.016 27.884 71.456 27.884 72.731 27.659 73.841 27.209 74.95 26.759 75.881 26.309 76.631 25.859L79.331 30.944zM96.566 27.659C97.916 27.659 99.003 27.126 99.829 26.062 100.653 24.997 101.066 23.58 101.066 21.809 101.066 20.039 100.653 18.622 99.829 17.556 99.003 16.492 97.916 15.959 96.566 15.959 95.186 15.959 94.083 16.492 93.259 17.556 92.433 18.622 92.021 20.039 92.021 21.809 92.021 23.58 92.433 24.997 93.259 26.062 94.083 27.126 95.186 27.659 96.566 27.659zM109.031 21.809C109.031 24.209 108.581 26.317 107.681 28.131 106.781 29.947 105.551 31.357 103.991 32.361 102.431 33.366 100.661 33.869 98.681 33.869 97.061 33.869 95.688 33.532 94.563 32.856 93.438 32.181 92.546 31.319 91.886 30.269L91.481 33.284 84.326 33.284 84.326.434 92.156.434 92.156 12.989C92.905 11.999 93.866 11.219 95.036 10.649 96.206 10.08 97.601 9.794 99.221 9.794 101.021 9.794 102.664 10.304 104.148 11.324 105.634 12.344 106.818 13.754 107.704 15.554 108.588 17.354 109.031 19.439 109.031 21.809zM124.241 27.659C125.62 27.659 126.723 27.126 127.548 26.062 128.373 24.997 128.786 23.58 128.786 21.809 128.786 20.039 128.373 18.629 127.548 17.579 126.723 16.529 125.62 16.004 124.241 16.004 122.861 16.004 121.758 16.529 120.933 17.579 120.108 18.629 119.696 20.039 119.696 21.809 119.696 23.58 120.108 24.997 120.933 26.062 121.758 27.126 122.861 27.659 124.241 27.659zM124.241 33.869C121.78 33.869 119.613 33.351 117.738 32.316 115.863 31.282 114.393 29.864 113.328 28.064 112.263 26.264 111.731 24.179 111.731 21.809 111.731 19.439 112.263 17.354 113.328 15.554 114.393 13.754 115.863 12.344 117.738 11.324 119.613 10.304 121.78 9.794 124.241 9.794 126.7 9.794 128.868 10.304 130.743 11.324 132.618 12.344 134.088 13.754 135.153 15.554 136.218 17.354 136.751 19.439 136.751 21.809 136.751 24.179 136.218 26.264 135.153 28.064 134.088 29.864 132.618 31.282 130.743 32.316 128.868 33.351 126.7 33.869 124.241 33.869zM156.056 31.484C154.676 35.023 153.101 37.663 151.331 39.404 149.56 41.144 147.31 42.014 144.581 42.014 143.35 42.014 142.241 41.879 141.251 41.609 140.261 41.339 139.421 41.008 138.731 40.619L140.936 35.219C141.355 35.428 141.82 35.608 142.331 35.759 142.841 35.909 143.381 35.984 143.951 35.984 144.761 35.984 145.488 35.788 146.133 35.399 146.778 35.009 147.341 34.303 147.821 33.284L148.181 32.474 137.831 10.379 146.471 10.379 151.556 24.104 155.741 10.379 164.246 10.379 156.056 31.484M177.79 26.399C179.11 26.399 180.175 25.926 180.985 24.981 181.795 24.037 182.2 22.769 182.2 21.179 182.2 19.589 181.795 18.322 180.985 17.376 180.175 16.431 179.11 15.959 177.79 15.959 176.44 15.959 175.36 16.431 174.55 17.376 173.74 18.322 173.335 19.589 173.335 21.179 173.335 22.739 173.74 24 174.55 24.959 175.36 25.919 176.44 26.399 177.79 26.399zM189.94 30.854C189.94 33.194 189.4 35.197 188.32 36.861 187.24 38.526 185.748 39.801 183.843 40.687 181.937 41.571 179.725 42.014 177.205 42.014 175.165 42.014 173.23 41.744 171.4 41.204 169.57 40.663 167.935 39.944 166.495 39.044L169.42 34.004C170.44 34.604 171.513 35.091 172.638 35.466 173.763 35.841 174.925 36.029 176.125 36.029 178.135 36.029 179.635 35.579 180.625 34.679 181.615 33.779 182.11 32.504 182.11 30.854L182.11 30.044C181.33 30.825 180.393 31.447 179.298 31.912 178.202 32.377 177.055 32.609 175.855 32.609 173.785 32.609 171.963 32.122 170.388 31.147 168.813 30.172 167.582 28.822 166.698 27.096 165.812 25.372 165.37 23.399 165.37 21.179 165.37 18.929 165.805 16.949 166.675 15.239 167.545 13.529 168.76 12.194 170.32 11.234 171.88 10.274 173.68 9.794 175.72 9.794 177.1 9.794 178.382 10.125 179.568 10.784 180.752 11.444 181.69 12.314 182.38 13.394L182.785 10.379 189.94 10.379 189.94 30.854zM201.595 25.859C201.595 26.549 201.849 27.112 202.36 27.546 202.87 27.982 203.53 28.199 204.34 28.199 205.42 28.199 206.327 27.832 207.062 27.096 207.797 26.362 208.165 25.439 208.165 24.329L208.165 23.564C207.355 23.414 206.5 23.339 205.6 23.339 204.459 23.339 203.508 23.535 202.742 23.924 201.977 24.314 201.595 24.959 201.595 25.859zM208.48 33.284L208.075 30.269C206.574 32.669 204.295 33.869 201.235 33.869 199.885 33.869 198.662 33.577 197.568 32.992 196.472 32.407 195.602 31.604 194.957 30.584 194.312 29.564 193.99 28.379 193.99 27.029 193.99 24.479 194.987 22.5 196.983 21.089 198.977 19.679 201.61 18.974 204.88 18.974 205.9 18.974 206.979 19.064 208.12 19.244 208 18.104 207.512 17.242 206.657 16.657 205.802 16.072 204.759 15.779 203.53 15.779 202.45 15.779 201.362 15.981 200.267 16.386 199.172 16.792 198.13 17.279 197.14 17.849L194.485 12.809C195.985 11.849 197.605 11.107 199.345 10.581 201.084 10.057 202.824 9.794 204.565 9.794 206.664 9.794 208.554 10.154 210.235 10.874 211.915 11.594 213.235 12.689 214.195 14.159 215.155 15.629 215.635 17.489 215.635 19.739L215.635 33.284 208.48 33.284zM228.46 20.639L228.46 33.284 220.63 33.284 220.63 10.379 227.784 10.379 228.19 13.394C228.939 12.314 229.914 11.444 231.114 10.784 232.314 10.125 233.634 9.794 235.074 9.794 237.564 9.794 239.559 10.604 241.06 12.224 242.559 13.844 243.31 16.169 243.31 19.199L243.31 33.284 235.48 33.284 235.48 20.099C235.48 18.749 235.179 17.752 234.58 17.106 233.979 16.461 233.139 16.139 232.06 16.139 230.98 16.139 230.109 16.484 229.449 17.174 228.789 17.865 228.46 19.019 228.46 20.639"/>
    <path fill="#404040" d="M267.924 16.679L271.974 16.679C273.263 16.679 274.283 16.341 275.034 15.667 275.783 14.992 276.159 14.099 276.159 12.989 276.159 11.879 275.783 10.986 275.034 10.312 274.283 9.636 273.263 9.299 271.974 9.299L267.924 9.299 267.924 16.679zM259.824 33.284L259.824 2.684 272.784 2.684C276.384 2.684 279.234 3.606 281.334 5.452 283.433 7.296 284.484 9.809 284.484 12.989 284.484 15.059 284.011 16.852 283.066 18.367 282.121 19.881 280.794 21.052 279.084 21.876 277.374 22.702 275.333 23.114 272.964 23.114L267.924 23.114 267.924 33.284 259.824 33.284zM296.318 24.419L296.318 33.284 288.488 33.284 288.488 10.379 295.643 10.379 296.138 14.204C296.618 12.974 297.405 11.976 298.501 11.211 299.595 10.447 300.863 10.064 302.303 10.064 303.113 10.064 303.728 10.169 304.148 10.379L304.148 17.534C303.818 17.415 303.451 17.325 303.046 17.264 302.641 17.204 302.183 17.174 301.673 17.174 300.113 17.174 298.83 17.752 297.826 18.907 296.821 20.062 296.318 21.899 296.318 24.419M318.773 15.464C316.222 15.464 314.693 16.814 314.183 19.514L322.913 19.514C322.702 18.044 322.2 17.001 321.405 16.386 320.61 15.772 319.733 15.464 318.773 15.464zM329.483 30.944C328.342 31.754 326.895 32.444 325.14 33.014 323.385 33.583 321.518 33.869 319.538 33.869 316.807 33.869 314.475 33.366 312.54 32.361 310.605 31.357 309.12 29.954 308.085 28.154 307.05 26.354 306.533 24.284 306.533 21.944 306.533 19.575 307.043 17.474 308.063 15.644 309.082 13.814 310.493 12.381 312.293 11.346 314.092 10.312 316.192 9.794 318.592 9.794 320.933 9.794 322.995 10.296 324.78 11.301 326.565 12.307 327.96 13.702 328.965 15.486 329.97 17.272 330.473 19.364 330.473 21.764 330.473 22.094 330.45 22.439 330.405 22.799 330.36 23.159 330.307 23.535 330.248 23.924L314.273 23.924C314.993 26.564 316.957 27.884 320.168 27.884 321.608 27.884 322.883 27.659 323.993 27.209 325.102 26.759 326.032 26.309 326.783 25.859L329.483 30.944zM342.983 33.869C341.003 33.869 339.15 33.554 337.425 32.924 335.7 32.294 334.147 31.394 332.768 30.224L336.098 25.814C337.148 26.654 338.28 27.337 339.495 27.861 340.71 28.387 341.903 28.649 343.073 28.649 343.853 28.649 344.475 28.514 344.94 28.244 345.405 27.974 345.638 27.569 345.638 27.029 345.638 26.459 345.375 26.001 344.85 25.657 344.325 25.312 343.388 24.974 342.038 24.644L339.878 24.104C335.587 22.964 333.443 20.669 333.443 17.219 333.443 15.689 333.863 14.369 334.703 13.259 335.542 12.149 336.697 11.294 338.168 10.694 339.637 10.094 341.347 9.794 343.298 9.794 345.217 9.794 347.025 10.094 348.72 10.694 350.415 11.294 351.967 12.164 353.378 13.304L349.958 17.804C348.907 16.964 347.798 16.29 346.628 15.779 345.458 15.269 344.363 15.014 343.343 15.014 341.693 15.014 340.868 15.554 340.868 16.634 340.868 17.114 341.115 17.504 341.61 17.804 342.105 18.104 342.803 18.375 343.703 18.614L346.628 19.424C348.817 20.024 350.437 20.924 351.488 22.124 352.537 23.324 353.063 24.75 353.063 26.399 353.063 27.899 352.642 29.211 351.803 30.336 350.963 31.461 349.785 32.332 348.27 32.947 346.755 33.561 344.992 33.869 342.983 33.869M365.842 33.869C363.863 33.869 362.009 33.554 360.285 32.924 358.559 32.294 357.007 31.394 355.627 30.224L358.957 25.814C360.007 26.654 361.14 27.337 362.355 27.861 363.57 28.387 364.762 28.649 365.932 28.649 366.712 28.649 367.334 28.514 367.8 28.244 368.265 27.974 368.497 27.569 368.497 27.029 368.497 26.459 368.235 26.001 367.71 25.657 367.185 25.312 366.247 24.974 364.897 24.644L362.738 24.104C358.447 22.964 356.302 20.669 356.302 17.219 356.302 15.689 356.722 14.369 357.562 13.259 358.402 12.149 359.557 11.294 361.028 10.694 362.497 10.094 364.207 9.794 366.157 9.794 368.077 9.794 369.884 10.094 371.58 10.694 373.275 11.294 374.827 12.164 376.238 13.304L372.818 17.804C371.767 16.964 370.657 16.29 369.488 15.779 368.318 15.269 367.222 15.014 366.202 15.014 364.552 15.014 363.727 15.554 363.727 16.634 363.727 17.114 363.975 17.504 364.47 17.804 364.965 18.104 365.662 18.375 366.562 18.614L369.488 19.424C371.677 20.024 373.297 20.924 374.347 22.124 375.397 23.324 375.923 24.75 375.923 26.399 375.923 27.899 375.502 29.211 374.662 30.336 373.822 31.461 372.644 32.332 371.13 32.947 369.614 33.561 367.852 33.869 365.842 33.869"/>
    <path fill="#009BFF" class='no-color-change' d="M384.202,33.779 C383.242,33.779 382.364,33.546 381.57,33.082 C380.775,32.617 380.145,31.987 379.68,31.191 C379.214,30.397 378.982,29.519 378.982,28.559 C378.982,27.599 379.214,26.722 379.68,25.926 C380.145,25.132 380.775,24.502 381.57,24.037 C382.364,23.572 383.242,23.339 384.202,23.339 C385.162,23.339 386.039,23.572 386.834,24.037 C387.629,24.502 388.259,25.132 388.725,25.926 C389.19,26.722 389.422,27.599 389.422,28.559 C389.422,29.519 389.19,30.397 388.725,31.191 C388.259,31.987 387.629,32.617 386.834,33.082 C386.039,33.546 385.162,33.779 384.202,33.779"/>
    <path fill="#404040" d="M4.084 41.894L5.123 41.894C5.464 41.894 5.734 41.81 5.932 41.642 6.131 41.474 6.23 41.245 6.23 40.954 6.23 40.664 6.131 40.435 5.932 40.267 5.734 40.099 5.464 40.015 5.123 40.015L4.084 40.015 4.084 41.894zM3.313 44.559L3.313 39.366 5.123 39.366C5.703 39.366 6.164 39.509 6.505 39.794 6.846 40.079 7.017 40.466 7.017 40.954 7.017 41.438 6.846 41.821 6.505 42.104 6.164 42.386 5.703 42.528 5.123 42.528L4.084 42.528 4.084 44.559 3.313 44.559zM8.574 42.604L10.468 42.604 9.521 40.168 8.574 42.604zM11.224 44.559L10.72 43.253 8.322 43.253 7.818 44.559 7.04 44.559 9.117 39.366 9.949 39.366 12.019 44.559 11.224 44.559zM13.653 41.817L14.714 41.817C15.045 41.817 15.309 41.736 15.505 41.573 15.701 41.41 15.799 41.191 15.799 40.916 15.799 40.641 15.701 40.423 15.505 40.259 15.309 40.097 15.045 40.015 14.714 40.015L13.653 40.015 13.653 41.817zM13.653 42.451L13.653 44.559 12.882 44.559 12.882 39.366 14.714 39.366C15.289 39.366 15.745 39.505 16.081 39.782 16.417 40.06 16.585 40.438 16.585 40.916 16.585 41.278 16.483 41.583 16.28 41.833 16.076 42.082 15.796 42.258 15.44 42.359L16.7 44.559 15.822 44.559 14.638 42.451 13.653 42.451z"/>
    <polyline fill="#404040" points="18.799 44.559 18.799 40.015 17.051 40.015 17.051 39.366 21.32 39.366 21.32 40.015 19.571 40.015 19.571 44.559 18.799 44.559"/>
    <path fill="#404040" d="M26.275,43.971 C26.611,43.971 26.91,43.886 27.173,43.715 C27.435,43.545 27.64,43.309 27.787,43.009 C27.935,42.709 28.009,42.359 28.009,41.962 C28.009,41.565 27.935,41.216 27.787,40.916 C27.64,40.616 27.435,40.38 27.173,40.21 C26.91,40.039 26.611,39.954 26.275,39.954 C25.939,39.954 25.642,40.039 25.382,40.21 C25.122,40.38 24.919,40.616 24.771,40.916 C24.623,41.216 24.549,41.565 24.549,41.962 C24.549,42.359 24.623,42.709 24.771,43.009 C24.919,43.309 25.122,43.545 25.382,43.715 C25.642,43.886 25.939,43.971 26.275,43.971 Z M26.275,44.643 C25.787,44.643 25.354,44.528 24.977,44.299 C24.6,44.07 24.304,43.754 24.088,43.352 C23.871,42.95 23.763,42.487 23.763,41.962 C23.763,41.438 23.871,40.975 24.088,40.573 C24.304,40.17 24.6,39.855 24.977,39.626 C25.354,39.397 25.787,39.282 26.275,39.282 C26.764,39.282 27.198,39.397 27.577,39.626 C27.956,39.855 28.254,40.17 28.471,40.573 C28.687,40.975 28.795,41.438 28.795,41.962 C28.795,42.487 28.687,42.95 28.471,43.352 C28.254,43.754 27.956,44.07 27.577,44.299 C27.198,44.528 26.764,44.643 26.275,44.643 Z"/>
    <polyline fill="#404040" points="30.651 44.559 29.88 44.559 29.88 39.366 33.11 39.366 33.11 40.015 30.651 40.015 30.651 41.772 32.736 41.772 32.736 42.42 30.651 42.42 30.651 44.559"/>
    <polyline fill="#404040" points="37.134 44.559 37.134 40.015 35.385 40.015 35.385 39.366 39.654 39.366 39.654 40.015 37.906 40.015 37.906 44.559 37.134 44.559"/>
    <polyline fill="#404040" points="40.54 44.559 40.54 39.366 41.311 39.366 41.311 41.588 43.992 41.588 43.992 39.366 44.763 39.366 44.763 44.559 43.992 44.559 43.992 42.253 41.311 42.253 41.311 44.559 40.54 44.559"/>
    <polyline fill="#404040" points="46.122 44.559 46.122 39.366 49.452 39.366 49.452 40.015 46.893 40.015 46.893 41.619 49.146 41.619 49.146 42.268 46.893 42.268 46.893 43.91 49.513 43.91 49.513 44.559 46.122 44.559"/>
    <path fill="#404040" d="M54.385 43.971C54.807 43.971 55.139 43.844 55.381 43.589 55.623 43.334 55.744 42.991 55.744 42.558L55.744 39.366 56.515 39.366 56.515 42.566C56.515 43.212 56.325 43.72 55.946 44.089 55.567 44.458 55.046 44.643 54.385 44.643 53.723 44.643 53.203 44.458 52.827 44.089 52.45 43.72 52.262 43.212 52.262 42.566L52.262 39.366 53.033 39.366 53.033 42.558C53.033 42.991 53.154 43.334 53.396 43.589 53.637 43.844 53.967 43.971 54.385 43.971M59.394 44.643C59.002 44.643 58.627 44.574 58.271 44.437 57.915 44.299 57.627 44.116 57.408 43.887L57.844 43.375C58.047 43.564 58.288 43.711 58.565 43.818 58.843 43.925 59.119 43.978 59.394 43.978 59.73 43.978 60.001 43.914 60.207 43.784 60.413 43.654 60.516 43.474 60.516 43.245 60.516 43.037 60.442 42.861 60.295 42.718 60.147 42.576 59.895 42.457 59.539 42.359L58.821 42.168C58.358 42.046 58.02 41.873 57.809 41.649 57.598 41.425 57.492 41.133 57.492 40.771 57.492 40.476 57.571 40.216 57.729 39.992 57.887 39.768 58.104 39.594 58.382 39.469 58.659 39.344 58.974 39.282 59.325 39.282 59.697 39.282 60.045 39.352 60.371 39.492 60.697 39.632 60.985 39.827 61.234 40.076L60.768 40.58C60.549 40.377 60.322 40.22 60.085 40.111 59.848 40.001 59.597 39.946 59.333 39.946 59.012 39.946 58.75 40.014 58.546 40.149 58.343 40.284 58.241 40.471 58.241 40.71 58.241 40.929 58.313 41.099 58.458 41.222 58.604 41.344 58.826 41.446 59.127 41.527L59.928 41.749C60.392 41.876 60.73 42.054 60.944 42.283 61.158 42.512 61.265 42.798 61.265 43.139 61.265 43.439 61.186 43.702 61.028 43.929 60.87 44.155 60.651 44.331 60.371 44.456 60.091 44.581 59.766 44.643 59.394 44.643M63.204 42.604L65.098 42.604 64.151 40.168 63.204 42.604zM65.854 44.559L65.35 43.253 62.952 43.253 62.448 44.559 61.669 44.559 63.747 39.366 64.579 39.366 66.649 44.559 65.854 44.559z"/>
    <polyline fill="#404040" points="70.237 44.559 70.237 40.015 68.489 40.015 68.489 39.366 72.757 39.366 72.757 40.015 71.009 40.015 71.009 44.559 70.237 44.559"/>
    <path fill="#404040" d="M75.537 43.971C75.873 43.971 76.172 43.886 76.434 43.715 76.696 43.545 76.901 43.309 77.049 43.009 77.197 42.709 77.271 42.359 77.271 41.962 77.271 41.565 77.197 41.216 77.049 40.916 76.901 40.616 76.696 40.38 76.434 40.21 76.172 40.039 75.873 39.954 75.537 39.954 75.201 39.954 74.903 40.039 74.644 40.21 74.384 40.38 74.18 40.616 74.033 40.916 73.885 41.216 73.811 41.565 73.811 41.962 73.811 42.359 73.885 42.709 74.033 43.009 74.18 43.309 74.384 43.545 74.644 43.715 74.903 43.886 75.201 43.971 75.537 43.971zM75.537 44.643C75.048 44.643 74.616 44.528 74.239 44.299 73.862 44.07 73.566 43.754 73.349 43.352 73.133 42.95 73.025 42.487 73.025 41.962 73.025 41.438 73.133 40.975 73.349 40.573 73.566 40.17 73.862 39.855 74.239 39.626 74.616 39.397 75.048 39.282 75.537 39.282 76.026 39.282 76.46 39.397 76.839 39.626 77.218 39.855 77.516 40.17 77.733 40.573 77.949 40.975 78.057 41.438 78.057 41.962 78.057 42.487 77.949 42.95 77.733 43.352 77.516 43.754 77.218 44.07 76.839 44.299 76.46 44.528 76.026 44.643 75.537 44.643zM79.913 43.91L80.966 43.91C81.333 43.91 81.647 43.83 81.909 43.669 82.172 43.509 82.373 43.284 82.513 42.993 82.653 42.703 82.723 42.359 82.723 41.962 82.723 41.565 82.653 41.222 82.513 40.932 82.373 40.641 82.172 40.416 81.909 40.256 81.647 40.095 81.333 40.015 80.966 40.015L79.913 40.015 79.913 43.91zM79.141 44.559L79.141 39.366 80.966 39.366C81.475 39.366 81.921 39.474 82.303 39.691 82.685 39.907 82.981 40.21 83.192 40.6 83.404 40.989 83.509 41.443 83.509 41.962 83.509 42.482 83.404 42.936 83.192 43.325 82.981 43.715 82.685 44.018 82.303 44.234 81.921 44.451 81.475 44.559 80.966 44.559L79.141 44.559zM85.479 42.604L87.373 42.604 86.426 40.168 85.479 42.604zM88.129 44.559L87.625 43.253 85.227 43.253 84.723 44.559 83.945 44.559 86.022 39.366 86.854 39.366 88.924 44.559 88.129 44.559z"/>
    <polyline fill="#404040" points="91.291 42.497 91.291 44.559 90.52 44.559 90.52 42.497 88.694 39.366 89.603 39.366 90.909 41.764 92.215 39.366 93.108 39.366 91.291 42.497"/>
    <polyline fill="#404040" points="99.278 44.559 96.506 40.58 96.506 44.559 95.781 44.559 95.781 39.366 96.499 39.366 99.278 43.345 99.278 39.366 99.996 39.366 99.996 44.559 99.278 44.559"/>
    <polyline fill="#404040" points="101.355 44.559 101.355 39.366 104.685 39.366 104.685 40.015 102.127 40.015 102.127 41.619 104.379 41.619 104.379 42.268 102.127 42.268 102.127 43.91 104.746 43.91 104.746 44.559 101.355 44.559"/>
    <polyline fill="#404040" points="107.037 44.559 107.037 40.015 105.288 40.015 105.288 39.366 109.557 39.366 109.557 40.015 107.808 40.015 107.808 44.559 107.037 44.559"/>
    <polyline fill="#404040" points="114.597 44.559 113.382 40.42 112.168 44.559 111.367 44.559 109.984 39.366 110.748 39.366 111.802 43.474 113.016 39.366 113.749 39.366 114.971 43.49 116.032 39.366 116.781 39.366 115.398 44.559 114.597 44.559"/>
    <path fill="#404040" d="M119.843 43.971C120.179 43.971 120.478 43.886 120.74 43.715 121.002 43.545 121.207 43.309 121.355 43.009 121.503 42.709 121.576 42.359 121.576 41.962 121.576 41.565 121.503 41.216 121.355 40.916 121.207 40.616 121.002 40.38 120.74 40.21 120.478 40.039 120.179 39.954 119.843 39.954 119.507 39.954 119.209 40.039 118.95 40.21 118.69 40.38 118.486 40.616 118.339 40.916 118.191 41.216 118.117 41.565 118.117 41.962 118.117 42.359 118.191 42.709 118.339 43.009 118.486 43.309 118.69 43.545 118.95 43.715 119.209 43.886 119.507 43.971 119.843 43.971zM119.843 44.643C119.354 44.643 118.922 44.528 118.545 44.299 118.168 44.07 117.872 43.754 117.655 43.352 117.439 42.95 117.331 42.487 117.331 41.962 117.331 41.438 117.439 40.975 117.655 40.573 117.872 40.17 118.168 39.855 118.545 39.626 118.922 39.397 119.354 39.282 119.843 39.282 120.332 39.282 120.766 39.397 121.145 39.626 121.524 39.855 121.822 40.17 122.039 40.573 122.255 40.975 122.363 41.438 122.363 41.962 122.363 42.487 122.255 42.95 122.039 43.352 121.822 43.754 121.524 44.07 121.145 44.299 120.766 44.528 120.332 44.643 119.843 44.643zM124.219 41.817L125.28 41.817C125.611 41.817 125.874 41.736 126.07 41.573 126.266 41.41 126.364 41.191 126.364 40.916 126.364 40.641 126.266 40.423 126.07 40.259 125.874 40.097 125.611 40.015 125.28 40.015L124.219 40.015 124.219 41.817zM124.219 42.451L124.219 44.559 123.447 44.559 123.447 39.366 125.28 39.366C125.855 39.366 126.311 39.505 126.647 39.782 126.983 40.06 127.151 40.438 127.151 40.916 127.151 41.278 127.049 41.583 126.845 41.833 126.642 42.082 126.362 42.258 126.006 42.359L127.265 44.559 126.387 44.559 125.204 42.451 124.219 42.451z"/>
    <polyline fill="#404040" points="131.343 44.559 129.014 41.94 129.014 44.559 128.243 44.559 128.243 39.366 129.014 39.366 129.014 41.642 131.19 39.366 132.145 39.366 129.831 41.749 132.313 44.559 131.343 44.559"/>
  </g>
</svg>
