<svg xmlns="http://www.w3.org/2000/svg" width="356" height="55" viewBox="0 0 356 55">
  <g fill="none" fill-rule="evenodd">
    <path class='no-color-change' fill="#009BFF" d="M54.177,27.824 C54.177,42.736 42.09,54.824 27.177,54.824 C12.264,54.824 0.177,42.736 0.177,27.824 C0.177,12.911 12.264,0.824 27.177,0.824 C42.09,0.824 54.177,12.911 54.177,27.824"/>
    <path fill="#404040" d="M69.537 21.551C70.517 21.551 71.272 21.262 71.806 20.686 72.339 20.109 72.605 19.286 72.605 18.22L72.605 7.439 77.484 7.439 77.484 18.193C77.484 20.554 76.793 22.382 75.412 23.675 74.03 24.97 72.072 25.616 69.537 25.616 67.002 25.616 65.043 24.97 63.662 23.675 62.28 22.382 61.59 20.554 61.59 18.193L61.59 7.439 66.469 7.439 66.469 18.22C66.469 19.286 66.734 20.109 67.268 20.686 67.802 21.262 68.558 21.551 69.537 21.551M87.241 25.616C85.79 25.616 84.399 25.367 83.071 24.868 81.742 24.37 80.588 23.658 79.608 22.732L81.97 19.768C82.669 20.397 83.455 20.891 84.33 21.249 85.204 21.608 86.166 21.787 87.215 21.787 87.914 21.787 88.465 21.665 88.867 21.42 89.27 21.175 89.471 20.808 89.471 20.318 89.471 19.846 89.234 19.466 88.763 19.177 88.29 18.889 87.46 18.587 86.27 18.273L85.169 17.984C83.561 17.564 82.337 16.921 81.497 16.056 80.658 15.191 80.238 14.093 80.238 12.764 80.238 11.628 80.535 10.631 81.13 9.775 81.725 8.918 82.546 8.257 83.596 7.794 84.645 7.331 85.859 7.099 87.241 7.099 88.605 7.099 89.907 7.348 91.149 7.847 92.391 8.345 93.492 9.023 94.454 9.879L92.015 12.947C91.386 12.406 90.646 11.934 89.799 11.531 88.95 11.129 88.106 10.928 87.268 10.928 86.568 10.928 86.03 11.046 85.654 11.282 85.278 11.519 85.091 11.863 85.091 12.318 85.091 12.738 85.287 13.101 85.681 13.406 86.074 13.713 86.752 13.997 87.713 14.259L89.051 14.626C90.975 15.152 92.334 15.868 93.13 16.777 93.925 17.687 94.323 18.744 94.323 19.951 94.323 21.088 94.03 22.08 93.444 22.928 92.858 23.777 92.032 24.436 90.966 24.908 89.899 25.38 88.657 25.616 87.241 25.616M102.479 18.324L106.703 18.324 104.604 12.082 102.479 18.324zM109.063 25.276L107.936 21.944 101.247 21.944 100.119 25.276 95.293 25.276 101.824 7.439 107.489 7.439 114.02 25.276 109.063 25.276 109.063 25.276z"/>
    <polyline fill="#404040" points="125.22 25.276 125.22 11.374 119.921 11.374 119.921 7.439 135.396 7.439 135.396 11.374 130.098 11.374 130.098 25.276 125.22 25.276"/>
    <path fill="#404040" d="M145.599 21.577C146.455 21.577 147.203 21.359 147.841 20.921 148.479 20.485 148.982 19.877 149.35 19.099 149.717 18.32 149.9 17.416 149.9 16.384 149.9 15.353 149.717 14.443 149.35 13.656 148.982 12.869 148.479 12.253 147.841 11.807 147.203 11.361 146.455 11.138 145.599 11.138 144.742 11.138 143.994 11.361 143.356 11.807 142.718 12.253 142.215 12.869 141.848 13.656 141.48 14.443 141.297 15.353 141.297 16.384 141.297 17.416 141.48 18.32 141.848 19.099 142.215 19.877 142.718 20.485 143.356 20.921 143.994 21.359 144.742 21.577 145.599 21.577zM145.599 25.616C143.815 25.616 142.229 25.223 140.838 24.436 139.448 23.65 138.351 22.561 137.547 21.17 136.742 19.78 136.34 18.185 136.34 16.384 136.34 15.02 136.567 13.774 137.021 12.647 137.477 11.519 138.123 10.539 138.963 9.708 139.802 8.878 140.781 8.235 141.9 7.78 143.02 7.326 144.252 7.099 145.599 7.099 146.945 7.099 148.178 7.326 149.297 7.78 150.416 8.235 151.395 8.878 152.234 9.708 153.074 10.539 153.721 11.519 154.176 12.647 154.63 13.774 154.857 15.02 154.857 16.384 154.857 18.185 154.455 19.78 153.65 21.17 152.847 22.561 151.749 23.65 150.359 24.436 148.969 25.223 147.382 25.616 145.599 25.616L145.599 25.616zM162.464 21.42L164.693 21.42C165.969 21.42 166.979 20.956 167.723 20.029 168.466 19.103 168.837 17.879 168.837 16.358 168.837 14.836 168.466 13.612 167.723 12.686 166.979 11.759 165.969 11.295 164.693 11.295L162.464 11.295 162.464 21.42zM157.664 25.276L157.664 7.439 164.693 7.439C166.459 7.439 168.02 7.82 169.375 8.581 170.729 9.341 171.792 10.391 172.562 11.729 173.331 13.066 173.716 14.61 173.716 16.358 173.716 18.107 173.331 19.65 172.562 20.986 171.792 22.324 170.729 23.374 169.375 24.134 168.02 24.895 166.459 25.276 164.693 25.276L157.664 25.276 157.664 25.276zM181.531 18.324L185.755 18.324 183.656 12.082 181.531 18.324zM188.115 25.276L186.987 21.944 180.299 21.944 179.171 25.276 174.345 25.276 180.876 7.439 186.541 7.439 193.072 25.276 188.115 25.276 188.115 25.276z"/>
    <polyline fill="#404040" points="202.515 18.85 202.515 25.276 197.558 25.276 197.558 18.85 191.236 7.439 196.744 7.439 200.049 14.522 203.327 7.439 208.836 7.439 202.515 18.85"/>
    <polyline fill="#404040" points="227.798 25.276 220.796 14.993 220.796 25.276 216.31 25.276 216.31 7.439 220.769 7.439 227.745 17.905 227.745 7.439 232.257 7.439 232.257 25.276 227.798 25.276"/>
    <polyline fill="#404040" points="236.191 25.276 236.191 7.439 248.493 7.439 248.493 11.348 240.966 11.348 240.966 14.364 247.653 14.364 247.653 18.273 240.966 18.273 240.966 21.367 248.913 21.367 248.913 25.276 236.191 25.276"/>
    <polyline fill="#404040" points="255.915 25.276 255.915 11.374 250.617 11.374 250.617 7.439 266.092 7.439 266.092 11.374 260.794 11.374 260.794 25.276 255.915 25.276"/>
    <polyline fill="#404040" points="282.562 25.276 279.678 13.682 276.792 25.276 271.625 25.276 267.192 7.439 271.914 7.439 274.615 19.61 277.605 7.439 281.775 7.439 284.739 19.531 287.52 7.439 292.162 7.439 287.729 25.276 282.562 25.276"/>
    <path fill="#404040" d="M302.549 21.577C303.405 21.577 304.152 21.359 304.791 20.921 305.43 20.485 305.932 19.877 306.299 19.099 306.666 18.32 306.851 17.416 306.851 16.384 306.851 15.353 306.666 14.443 306.299 13.656 305.932 12.869 305.43 12.253 304.791 11.807 304.152 11.361 303.405 11.138 302.549 11.138 301.691 11.138 300.944 11.361 300.306 11.807 299.668 12.253 299.165 12.869 298.798 13.656 298.431 14.443 298.247 15.353 298.247 16.384 298.247 17.416 298.431 18.32 298.798 19.099 299.165 19.877 299.668 20.485 300.306 20.921 300.944 21.359 301.691 21.577 302.549 21.577zM302.549 25.616C300.765 25.616 299.179 25.223 297.788 24.436 296.398 23.65 295.301 22.561 294.496 21.17 293.692 19.78 293.29 18.185 293.29 16.384 293.29 15.02 293.517 13.774 293.972 12.647 294.427 11.519 295.073 10.539 295.913 9.708 296.752 8.878 297.731 8.235 298.851 7.78 299.969 7.326 301.202 7.099 302.549 7.099 303.895 7.099 305.128 7.326 306.247 7.78 307.365 8.235 308.345 8.878 309.185 9.708 310.023 10.539 310.671 11.519 311.125 12.647 311.58 13.774 311.808 15.02 311.808 16.384 311.808 18.185 311.405 19.78 310.601 21.17 309.796 22.561 308.699 23.65 307.31 24.436 305.919 25.223 304.332 25.616 302.549 25.616L302.549 25.616zM319.388 15.65L322.011 15.65C322.762 15.65 323.356 15.452 323.794 15.06 324.23 14.666 324.449 14.128 324.449 13.446 324.449 12.8 324.23 12.279 323.794 11.886 323.356 11.492 322.762 11.295 322.011 11.295L319.388 11.295 319.388 15.65zM319.388 19.348L319.388 25.276 314.666 25.276 314.666 7.439 322.535 7.439C324.633 7.439 326.294 7.978 327.519 9.053 328.742 10.128 329.354 11.593 329.354 13.446 329.354 14.652 329.083 15.693 328.541 16.568 327.999 17.442 327.238 18.124 326.26 18.613L329.905 25.276 324.712 25.276 321.748 19.348 319.388 19.348 319.388 19.348z"/>
    <polyline fill="#404040" points="343.045 25.276 337.38 16.556 337.38 25.276 332.527 25.276 332.527 7.439 337.38 7.439 337.38 15.27 343.255 7.439 348.868 7.439 342.259 15.636 348.737 25.276 343.045 25.276"/>
    <path class='no-color-change' fill="#009BFF" d="M69.223,48.47 C67.771,48.47 66.381,48.221 65.053,47.722 C63.724,47.224 62.569,46.512 61.59,45.585 L63.951,42.621 C64.65,43.25 65.436,43.744 66.311,44.103 C67.185,44.461 68.147,44.641 69.196,44.641 C69.895,44.641 70.446,44.519 70.849,44.274 C71.251,44.028 71.452,43.661 71.452,43.172 C71.452,42.699 71.216,42.319 70.744,42.03 C70.271,41.742 69.441,41.441 68.252,41.126 L67.15,40.837 C65.542,40.417 64.318,39.775 63.478,38.909 C62.64,38.044 62.22,36.946 62.22,35.617 C62.22,34.482 62.516,33.485 63.111,32.628 C63.706,31.772 64.527,31.11 65.577,30.648 C66.626,30.185 67.841,29.952 69.223,29.952 C70.587,29.952 71.888,30.201 73.131,30.7 C74.372,31.198 75.473,31.876 76.435,32.733 L73.996,35.801 C73.367,35.26 72.628,34.787 71.78,34.385 C70.931,33.983 70.088,33.781 69.249,33.781 C68.55,33.781 68.011,33.9 67.636,34.136 C67.26,34.372 67.072,34.717 67.072,35.172 C67.072,35.592 67.268,35.954 67.662,36.26 C68.055,36.567 68.733,36.851 69.694,37.112 L71.032,37.48 C72.956,38.005 74.315,38.722 75.111,39.631 C75.906,40.54 76.304,41.598 76.304,42.805 C76.304,43.942 76.011,44.934 75.426,45.781 C74.84,46.63 74.013,47.289 72.947,47.762 C71.881,48.234 70.638,48.47 69.223,48.47"/>
    <polyline class='no-color-change' fill="#009BFF" points="79.242 48.129 79.242 30.293 84.12 30.293 84.12 37.165 90.179 37.165 90.179 30.293 95.057 30.293 95.057 48.129 90.179 48.129 90.179 41.152 84.12 41.152 84.12 48.129 79.242 48.129"/>
    <polyline class='no-color-change' fill="#009BFF" points="98.992 48.129 98.992 30.293 111.293 30.293 111.293 34.201 103.765 34.201 103.765 37.218 110.454 37.218 110.454 41.126 103.765 41.126 103.765 44.221 111.713 44.221 111.713 48.129 98.992 48.129"/>
    <polyline class='no-color-change' fill="#009BFF" points="126.268 48.129 119.265 37.847 119.265 48.129 114.781 48.129 114.781 30.293 119.239 30.293 126.217 40.759 126.217 30.293 130.727 30.293 130.727 48.129 126.268 48.129"/>
    <path class='no-color-change' fill="#009BFF" d="M140.249,41.178 L144.472,41.178 L142.373,34.936 L140.249,41.178 Z M146.832,48.129 L145.704,44.798 L139.016,44.798 L137.889,48.129 L133.062,48.129 L139.593,30.293 L145.259,30.293 L151.789,48.129 L146.832,48.129 L146.832,48.129 Z"/>
    <polyline class='no-color-change' fill="#009BFF" points="165.611 48.129 158.608 37.847 158.608 48.129 154.124 48.129 154.124 30.293 158.582 30.293 165.559 40.759 165.559 30.293 170.07 30.293 170.07 48.129 165.611 48.129"/>
    <path class='no-color-change' fill="#009BFF" d="M178.805 44.274L181.034 44.274C182.309 44.274 183.319 43.81 184.063 42.883 184.806 41.956 185.178 40.733 185.178 39.211 185.178 37.69 184.806 36.466 184.063 35.539 183.319 34.612 182.309 34.149 181.034 34.149L178.805 34.149 178.805 44.274zM174.005 48.129L174.005 30.293 181.034 30.293C182.8 30.293 184.36 30.674 185.716 31.435 187.07 32.194 188.133 33.244 188.902 34.582 189.672 35.919 190.056 37.463 190.056 39.211 190.056 40.96 189.672 42.503 188.902 43.84 188.133 45.178 187.07 46.228 185.716 46.987 184.36 47.748 182.8 48.129 181.034 48.129L174.005 48.129 174.005 48.129zM201.204 44.431C202.06 44.431 202.807 44.212 203.446 43.775 204.084 43.338 204.587 42.731 204.954 41.952 205.321 41.174 205.505 40.27 205.505 39.237 205.505 38.206 205.321 37.296 204.954 36.51 204.587 35.723 204.084 35.107 203.446 34.66 202.807 34.215 202.06 33.991 201.204 33.991 200.347 33.991 199.599 34.215 198.961 34.66 198.322 35.107 197.82 35.723 197.453 36.51 197.086 37.296 196.902 38.206 196.902 39.237 196.902 40.27 197.086 41.174 197.453 41.952 197.82 42.731 198.322 43.338 198.961 43.775 199.599 44.212 200.347 44.431 201.204 44.431zM201.204 48.47C199.42 48.47 197.833 48.076 196.443 47.289 195.053 46.503 193.955 45.414 193.151 44.024 192.347 42.634 191.945 41.038 191.945 39.237 191.945 37.873 192.172 36.627 192.627 35.5 193.081 34.372 193.728 33.393 194.567 32.562 195.407 31.732 196.386 31.089 197.506 30.634 198.624 30.18 199.857 29.952 201.204 29.952 202.55 29.952 203.782 30.18 204.902 30.634 206.02 31.089 207 31.732 207.84 32.562 208.679 33.393 209.325 34.372 209.78 35.5 210.235 36.627 210.462 37.873 210.462 39.237 210.462 41.038 210.059 42.634 209.256 44.024 208.451 45.414 207.354 46.503 205.964 47.289 204.574 48.076 202.987 48.47 201.204 48.47L201.204 48.47zM218.435 41.178L222.658 41.178 220.56 34.936 218.435 41.178zM225.019 48.129L223.892 44.798 217.203 44.798 216.075 48.129 211.249 48.129 217.781 30.293 223.445 30.293 229.976 48.129 225.019 48.129 225.019 48.129z"/>
    <polyline class='no-color-change' fill="#009BFF" points="232.31 48.129 232.31 30.293 237.189 30.293 237.189 37.165 243.248 37.165 243.248 30.293 248.127 30.293 248.127 48.129 243.248 48.129 243.248 41.152 237.189 41.152 237.189 48.129 232.31 48.129"/>
    <polyline class='no-color-change' fill="#009BFF" points="274.983 30.293 268.531 48.129 263.207 48.129 256.755 30.293 261.869 30.293 265.908 42.726 270.079 30.293 274.983 30.293"/>
    <path class='no-color-change' fill="#009BFF" d="M279.963,41.178 L284.185,41.178 L282.088,34.936 L279.963,41.178 Z M286.546,48.129 L285.419,44.798 L278.73,44.798 L277.602,48.129 L272.776,48.129 L279.307,30.293 L284.972,30.293 L291.504,48.129 L286.546,48.129 L286.546,48.129 Z"/>
    <polyline class='no-color-change' fill="#009BFF" points="298.716 44.194 306.138 44.194 306.138 48.129 293.837 48.129 293.837 30.293 298.716 30.293 298.716 44.194"/>
    <polyline class='no-color-change' fill="#009BFF" points="313.587 44.194 321.01 44.194 321.01 48.129 308.708 48.129 308.708 30.293 313.587 30.293 313.587 44.194"/>
    <polyline class='no-color-change' fill="#009BFF" points="323.579 48.129 323.579 30.293 335.881 30.293 335.881 34.201 328.353 34.201 328.353 37.218 335.041 37.218 335.041 41.126 328.353 41.126 328.353 44.221 336.301 44.221 336.301 48.129 323.579 48.129"/>
    <polyline class='no-color-change' fill="#009BFF" points="348.943 41.703 348.943 48.129 343.985 48.129 343.985 41.703 337.665 30.293 343.173 30.293 346.477 37.375 349.756 30.293 355.263 30.293 348.943 41.703"/>
  </g>
</svg>
