<svg xmlns="http://www.w3.org/2000/svg" width="445" height="55" viewBox="0 0 445 55">
  <g fill="none" fill-rule="evenodd">
    <path class="no-color-change" fill="#009BFF" d="M8.897 25.885C7.22 25.885 5.614 25.598 4.079 25.022 2.543 24.446 1.21 23.623.079 22.552L2.806 19.128C3.614 19.855 4.523 20.426 5.533 20.84 6.543 21.254 7.655 21.461 8.867 21.461 9.675 21.461 10.311 21.32 10.776 21.037 11.24 20.754 11.473 20.33 11.473 19.764 11.473 19.219 11.2 18.779 10.655 18.446 10.109 18.113 9.149 17.764 7.776 17.4L6.503 17.067C4.644 16.582 3.23 15.84 2.261 14.84 1.291 13.84.806 12.572.806 11.036.806 9.724 1.149 8.572 1.836 7.582 2.523 6.592 3.473 5.829 4.685 5.294 5.897 4.759 7.301 4.491 8.897 4.491 10.473 4.491 11.978 4.779 13.412 5.355 14.846 5.93 16.119 6.714 17.231 7.703L14.412 11.249C13.685 10.623 12.831 10.077 11.852 9.612 10.871 9.148 9.897 8.915 8.927 8.915 8.119 8.915 7.498 9.052 7.064 9.324 6.629 9.597 6.412 9.996 6.412 10.522 6.412 11.006 6.639 11.426 7.094 11.779 7.549 12.133 8.331 12.461 9.443 12.764L10.988 13.188C13.21 13.794 14.781 14.623 15.7 15.673 16.619 16.724 17.079 17.946 17.079 19.34 17.079 20.653 16.741 21.8 16.064 22.779 15.387 23.759 14.432 24.522 13.2 25.067 11.968 25.613 10.533 25.885 8.897 25.885M25.322 17.007L25.322 25.491 20.049 25.491 20.049 3.37 25.322 3.37 25.322 11.855C25.826 11.188 26.468 10.658 27.246 10.264 28.023 9.87 28.867 9.673 29.776 9.673 31.453 9.673 32.796 10.218 33.807 11.309 34.816 12.401 35.322 13.966 35.322 16.006L35.322 25.491 30.049 25.491 30.049 16.613C30.049 15.703 29.847 15.032 29.443 14.597 29.038 14.163 28.473 13.946 27.746 13.946 27.018 13.946 26.432 14.178 25.988 14.643 25.544 15.108 25.322 15.896 25.322 17.007M44.019 19.522L44.019 25.491 38.746 25.491 38.746 10.067 43.564 10.067 43.897 12.643C44.22 11.814 44.751 11.142 45.488 10.628 46.225 10.113 47.079 9.855 48.049 9.855 48.594 9.855 49.008 9.926 49.291 10.067L49.291 14.885C49.069 14.805 48.822 14.744 48.549 14.703 48.276 14.663 47.968 14.643 47.625 14.643 46.574 14.643 45.71 15.032 45.034 15.81 44.357 16.588 44.019 17.825 44.019 19.522M59.14 13.491C57.423 13.491 56.392 14.4 56.049 16.219L61.928 16.219C61.786 15.229 61.448 14.527 60.913 14.112 60.377 13.699 59.786 13.491 59.14 13.491zM66.352 23.916C65.584 24.461 64.61 24.926 63.428 25.31 62.246 25.693 60.988 25.885 59.655 25.885 57.816 25.885 56.246 25.547 54.943 24.87 53.64 24.194 52.64 23.249 51.943 22.037 51.246 20.825 50.897 19.431 50.897 17.855 50.897 16.26 51.241 14.845 51.927 13.613 52.614 12.38 53.564 11.415 54.776 10.718 55.988 10.022 57.402 9.673 59.019 9.673 60.594 9.673 61.983 10.011 63.185 10.688 64.387 11.365 65.327 12.304 66.004 13.506 66.68 14.709 67.019 16.118 67.019 17.734 67.019 17.956 67.004 18.188 66.973 18.431 66.943 18.673 66.908 18.926 66.867 19.188L56.11 19.188C56.594 20.966 57.917 21.855 60.079 21.855 61.049 21.855 61.907 21.703 62.655 21.401 63.402 21.098 64.029 20.795 64.534 20.491L66.352 23.916 66.352 23.916z"/>
    <polyline class="no-color-change" fill="#009BFF" points="85.262 10.067 79.292 25.491 73.534 25.491 67.564 10.067 73.352 10.067 76.504 20.037 79.595 10.067 85.262 10.067"/>
    <path class="no-color-change" fill="#009BFF" d="M94.262 13.491C92.544 13.491 91.514 14.4 91.171 16.219L97.05 16.219C96.908 15.229 96.57 14.527 96.034 14.112 95.499 13.699 94.908 13.491 94.262 13.491zM101.474 23.916C100.706 24.461 99.732 24.926 98.55 25.31 97.368 25.693 96.11 25.885 94.777 25.885 92.938 25.885 91.368 25.547 90.065 24.87 88.762 24.194 87.762 23.249 87.065 22.037 86.368 20.825 86.019 19.431 86.019 17.855 86.019 16.26 86.362 14.845 87.049 13.613 87.736 12.38 88.686 11.415 89.898 10.718 91.11 10.022 92.524 9.673 94.14 9.673 95.716 9.673 97.105 10.011 98.307 10.688 99.509 11.365 100.449 12.304 101.126 13.506 101.802 14.709 102.141 16.118 102.141 17.734 102.141 17.956 102.126 18.188 102.095 18.431 102.065 18.673 102.029 18.926 101.989 19.188L91.231 19.188C91.716 20.966 93.039 21.855 95.201 21.855 96.171 21.855 97.029 21.703 97.777 21.401 98.524 21.098 99.151 20.795 99.656 20.491L101.474 23.916 101.474 23.916zM113.05 21.703C113.979 21.703 114.721 21.345 115.277 20.628 115.833 19.911 116.111 18.956 116.111 17.764 116.111 16.572 115.833 15.618 115.277 14.9 114.721 14.183 113.979 13.825 113.05 13.825 112.141 13.825 111.408 14.183 110.853 14.9 110.297 15.618 110.02 16.572 110.02 17.764 110.02 18.956 110.297 19.911 110.853 20.628 111.408 21.345 112.141 21.703 113.05 21.703zM114.474 25.885C113.565 25.885 112.737 25.693 111.989 25.31 111.242 24.926 110.615 24.4 110.11 23.734L110.11 31.098 104.838 31.098 104.838 10.067 109.656 10.067 109.929 12.097C110.413 11.37 111.065 10.784 111.883 10.339 112.702 9.896 113.646 9.673 114.717 9.673 116.03 9.673 117.191 10.017 118.202 10.703 119.212 11.39 120.009 12.34 120.596 13.552 121.181 14.764 121.474 16.168 121.474 17.764 121.474 19.36 121.176 20.77 120.58 21.991 119.984 23.214 119.156 24.169 118.096 24.855 117.035 25.542 115.827 25.885 114.474 25.885L114.474 25.885zM131.717 21.703C132.646 21.703 133.389 21.345 133.944 20.628 134.5 19.911 134.778 18.956 134.778 17.764 134.778 16.572 134.5 15.623 133.944 14.915 133.389 14.208 132.646 13.855 131.717 13.855 130.788 13.855 130.045 14.208 129.49 14.915 128.934 15.623 128.656 16.572 128.656 17.764 128.656 18.956 128.934 19.911 129.49 20.628 130.045 21.345 130.788 21.703 131.717 21.703zM131.717 25.885C130.06 25.885 128.6 25.537 127.338 24.84 126.075 24.143 125.085 23.188 124.368 21.976 123.651 20.764 123.293 19.36 123.293 17.764 123.293 16.168 123.651 14.764 124.368 13.552 125.085 12.34 126.075 11.39 127.338 10.703 128.6 10.017 130.06 9.673 131.717 9.673 133.373 9.673 134.833 10.017 136.096 10.703 137.358 11.39 138.348 12.34 139.066 13.552 139.782 14.764 140.141 16.168 140.141 17.764 140.141 19.36 139.782 20.764 139.066 21.976 138.348 23.188 137.358 24.143 136.096 24.84 134.833 25.537 133.373 25.885 131.717 25.885L131.717 25.885zM148.172 19.522L148.172 25.491 142.899 25.491 142.899 10.067 147.717 10.067 148.051 12.643C148.374 11.814 148.904 11.142 149.642 10.628 150.379 10.113 151.233 9.855 152.202 9.855 152.748 9.855 153.162 9.926 153.445 10.067L153.445 14.885C153.222 14.805 152.975 14.744 152.702 14.703 152.43 14.663 152.121 14.643 151.778 14.643 150.727 14.643 149.864 15.032 149.187 15.81 148.51 16.588 148.172 17.825 148.172 19.522M167.657 24.491C167.03 24.916 166.313 25.254 165.505 25.506 164.697 25.759 163.848 25.885 162.96 25.885 161.303 25.885 159.985 25.406 159.005 24.446 158.025 23.487 157.536 22.199 157.536 20.582L157.536 14.006 155.02 14.006 155.02 10.067 157.778 10.067 158.444 5.764 162.808 5.764 162.808 10.067 166.839 10.067 166.839 14.006 162.808 14.006 162.808 19.916C162.808 20.441 162.965 20.85 163.278 21.143 163.591 21.436 164.01 21.582 164.536 21.582 164.798 21.582 165.066 21.532 165.339 21.431 165.611 21.33 165.869 21.209 166.111 21.067L167.657 24.491"/>
    <polyline fill="#404040" points="182.414 25.491 182.414 9.431 176.293 9.431 176.293 4.885 194.172 4.885 194.172 9.431 188.051 9.431 188.051 25.491 182.414 25.491"/>
    <path fill="#404040" d="M196.717 25.491L196.717 10.067C197.566 10.249 198.424 10.339 199.293 10.339 200.182 10.339 201.081 10.249 201.99 10.067L201.99 25.491 196.717 25.491M210.96 16.613L210.96 25.491 205.687 25.491 205.687 10.067 210.536 10.067 210.808 12.037C211.273 11.289 211.879 10.724 212.626 10.339 213.374 9.956 214.172 9.764 215.02 9.764 215.929 9.764 216.758 9.966 217.505 10.37 218.253 10.774 218.859 11.34 219.323 12.067 219.869 11.32 220.581 10.748 221.46 10.355 222.339 9.961 223.263 9.764 224.233 9.764 225.303 9.764 226.248 10.011 227.066 10.507 227.884 11.002 228.525 11.688 228.99 12.567 229.455 13.446 229.687 14.461 229.687 15.612L229.687 25.491 224.415 25.491 224.415 16.158C224.415 15.512 224.237 14.997 223.884 14.612 223.53 14.229 223.081 14.037 222.536 14.037 221.869 14.037 221.334 14.249 220.929 14.673 220.525 15.097 220.323 15.744 220.323 16.613L220.323 25.491 215.05 25.491 215.05 16.158C215.05 15.512 214.879 14.997 214.536 14.612 214.192 14.229 213.727 14.037 213.141 14.037 212.495 14.037 211.969 14.249 211.566 14.673 211.161 15.097 210.96 15.744 210.96 16.613M240.415 13.491C238.697 13.491 237.667 14.4 237.324 16.219L243.203 16.219C243.061 15.229 242.723 14.527 242.187 14.112 241.652 13.699 241.061 13.491 240.415 13.491zM247.627 23.916C246.859 24.461 245.885 24.926 244.703 25.31 243.521 25.693 242.263 25.885 240.93 25.885 239.091 25.885 237.521 25.547 236.218 24.87 234.915 24.194 233.915 23.249 233.218 22.037 232.521 20.825 232.172 19.431 232.172 17.855 232.172 16.26 232.516 14.845 233.202 13.613 233.889 12.38 234.839 11.415 236.051 10.718 237.263 10.022 238.677 9.673 240.293 9.673 241.869 9.673 243.258 10.011 244.46 10.688 245.662 11.365 246.601 12.304 247.278 13.506 247.955 14.709 248.294 16.118 248.294 17.734 248.294 17.956 248.279 18.188 248.248 18.431 248.218 18.673 248.182 18.926 248.142 19.188L237.384 19.188C237.869 20.966 239.192 21.855 241.354 21.855 242.324 21.855 243.182 21.703 243.93 21.401 244.677 21.098 245.304 20.795 245.809 20.491L247.627 23.916 247.627 23.916zM256.718 25.885C255.385 25.885 254.137 25.674 252.976 25.249 251.814 24.825 250.768 24.219 249.839 23.431L252.081 20.461C252.788 21.027 253.551 21.487 254.369 21.84 255.188 22.194 255.991 22.37 256.779 22.37 257.304 22.37 257.723 22.279 258.036 22.097 258.349 21.916 258.506 21.643 258.506 21.279 258.506 20.896 258.329 20.587 257.976 20.355 257.622 20.123 256.991 19.896 256.082 19.673L254.627 19.31C251.738 18.542 250.294 16.997 250.294 14.673 250.294 13.643 250.576 12.754 251.142 12.007 251.708 11.259 252.486 10.683 253.476 10.279 254.465 9.875 255.617 9.673 256.93 9.673 258.223 9.673 259.44 9.875 260.582 10.279 261.723 10.683 262.768 11.269 263.718 12.037L261.415 15.067C260.707 14.502 259.96 14.047 259.172 13.703 258.385 13.36 257.647 13.188 256.96 13.188 255.849 13.188 255.294 13.552 255.294 14.279 255.294 14.603 255.46 14.865 255.794 15.067 256.127 15.269 256.597 15.451 257.203 15.612L259.172 16.158C260.647 16.562 261.738 17.168 262.445 17.976 263.152 18.784 263.506 19.744 263.506 20.855 263.506 21.865 263.223 22.749 262.657 23.507 262.092 24.264 261.299 24.85 260.279 25.264 259.259 25.678 258.071 25.885 256.718 25.885"/>
    <path class="no-color-change" fill="#009BFF" d="M199.293,8.855 C198.424,8.855 197.682,8.547 197.066,7.931 C196.449,7.314 196.141,6.572 196.141,5.703 C196.141,4.835 196.449,4.092 197.066,3.476 C197.682,2.86 198.424,2.552 199.293,2.552 C200.161,2.552 200.904,2.86 201.52,3.476 C202.136,4.092 202.445,4.835 202.445,5.703 C202.445,6.572 202.136,7.314 201.52,7.931 C200.904,8.547 200.161,8.855 199.293,8.855"/>
    <path stroke="#404040" stroke-width=".5" d="M286.731,31.098 L286.731,2.546"/>
    <path fill="#000000" d="M325.939 23.588C325.939 23.588 322.613 24.459 319.395 22.703L323.765 20.072 323.765 5.144 325.971 5.572 325.939 23.588zM314.057 13.897C314.333 6.326 319.145 4.371 319.145 4.371L323.125 5.036 318.856 7.472 319.087 8.019C320.052 7.907 320.149 9.181 320.149 9.181 320.149 9.181 320.177 16.432 320.177 19.328 320.177 22.224 318.832 22.388 318.832 22.388 313.847 19.177 314.057 13.897 314.057 13.897zM333.554 17.739C330.4 23.178 326.472 23.41 326.472 23.41L326.472 5.606C334.051 6.38 334.144.418 334.144.418L333.584.286C330.633 4.179 327.054 1.36 318.505.941 309.955.523 308.469 8.859 308.469 8.859L309.106 9.063C311.613 2.875 317.691 4.327 317.691 4.327 310.342 9.474 310.721 15.17 310.706 16.077 310.691 16.983 311.948 27.016 322.036 27.016 332.125 27.016 334.148 17.84 334.148 17.84L333.554 17.739 333.554 17.739zM381.622 23.582C381.622 23.582 378.295 24.454 375.078 22.697L379.447 20.067 379.447 5.139 381.654 5.566 381.622 23.582zM369.74 13.891C370.016 6.321 374.827 4.366 374.827 4.366L378.808 5.031 374.538 7.467 374.77 8.014C375.734 7.901 375.832 9.176 375.832 9.176 375.832 9.176 375.859 16.427 375.859 19.323 375.859 22.219 374.515 22.383 374.515 22.383 369.529 19.172 369.74 13.891 369.74 13.891zM389.237 17.733C386.083 23.173 382.154 23.405 382.154 23.405L382.154 5.601C389.733 6.375 389.827.413 389.827.413L389.266.281C386.315 4.174 382.737 1.355 374.187.936 365.638.517 364.152 8.854 364.152 8.854L364.789 9.058C367.295 2.87 373.374 4.322 373.374 4.322 366.025 9.468 366.403 15.165 366.388 16.072 366.374 16.978 367.63 27.01 377.719 27.01 387.808 27.01 389.83 17.834 389.83 17.834L389.237 17.733 389.237 17.733zM346.721 23.394L346.711 12.206C346.711 9.334 344.192 7.905 344.192 7.905L339.102 12.191 339.102 5.54C339.102 5.54 339.157 1.903 339.774.242 339.774.242 336.805 2.899 334.638 2.668 334.638 2.668 335.381 3.449 335.381 5.46 335.381 7.472 335.379 23.256 335.379 23.256L333.935 24.584 336.994 27.242 340.225 24.698 339.102 23.3 339.102 13.049 341.828 10.832C343.233 11.996 343.089 14.696 343.089 14.696 343.089 16.659 343.087 23.351 343.087 23.351L341.677 24.647 344.664 27.242 347.818 24.759 346.721 23.394M394.934 17.509L394.939 11.702 396.035 10.337 392.881 7.854 389.895 10.449 391.305 11.745C391.305 11.745 391.306 14.897 391.306 17.509 391.306 20.121 391.305 23.272 391.305 23.272L389.895 24.568 392.881 27.163 396.035 24.68 394.939 23.315 394.934 17.509"/>
    <polyline fill="#000000" points="392.968 2.314 395.498 4.405 392.965 6.405 390.439 4.286 392.968 2.314"/>
    <path fill="#000000" d="M397.195 10.985L401.027 7.894C401.027 7.894 403.028 8.426 403.028 12.273L407.978 7.888C407.978 7.888 410.481 9.774 410.481 11.801L414.956 7.889C414.956 7.889 417.579 9.626 417.579 13.029 417.579 16.432 417.579 23.308 417.579 23.308L418.88 24.62 415.846 27.156 412.81 24.626 413.937 23.273 413.937 13.646C413.937 13.646 413.99 12.486 412.522 10.865L410.617 12.531 410.617 23.204 411.916 24.611 408.88 27.154 405.849 24.616 407.003 23.123 406.999 13.646C406.999 13.646 407.083 12.573 405.579 10.856L403.079 13.045 403.079 23.228 404.331 24.637 401.374 27.186 398.177 24.51 399.417 23.195 399.417 12.369C399.417 12.369 399.44 10.299 397.642 11.699L397.195 10.985M424.464 10.262L428.173 15.147 424.464 18.271 424.464 10.262zM427.664 24.795L424.475 23.089 424.58 19.514 431.111 13.884 426.617 7.933C424.919 9.124 420.039 11.441 420.039 11.441L420.23 12.152C421.07 12.561 420.889 13.827 420.889 13.827 420.889 13.827 420.882 20.078 420.882 21.849 420.882 23.62 420 24.187 420 24.187L420.216 24.927C421.98 25.192 425.332 27.176 425.332 27.176L428.633 24.852 428.318 24.353 427.664 24.795 427.664 24.795zM353.616 10.216L357.324 15.101 353.616 18.226 353.616 10.216zM356.816 24.749L353.627 23.043 353.732 19.469 360.262 13.839 355.768 7.887C354.071 9.078 349.191 11.395 349.191 11.395L349.381 12.107C350.222 12.516 350.041 13.781 350.041 13.781 350.041 13.781 350.034 20.032 350.034 21.804 350.034 23.575 349.151 24.141 349.151 24.141L349.368 24.882C351.132 25.147 354.483 27.13 354.483 27.13L357.785 24.806 357.469 24.307 356.816 24.749 356.816 24.749zM440.011 18.827L440.011 24.007C440.011 24.007 437.774 22.137 434.294 23.278L437.987 17.638 440.011 18.827zM435.466 15.89L435.474 10.948C435.474 10.948 438.297 12.763 441.067 11.819L437.525 17.257 435.466 15.89zM444.371 6.775L444.097 6.532C444.097 6.532 444.031 6.647 442.771 8.627 441.51 10.605 436.589 7.907 436.589 7.907 434.515 10.773 432.007 11.25 432.007 11.25L432.022 17.903 435.537 20.043 431.024 26.985 431.264 27.163C434.77 24.039 438.74 27.145 438.74 27.145 440.901 25.147 443.561 24.234 443.561 24.234L443.561 16.784 439.972 14.542C444.233 8.936 444.371 6.775 444.371 6.775L444.371 6.775z"/>
    <path fill="#404040" d="M3.243 50.179L4.74 50.179C5.231 50.179 5.62 50.058 5.906 49.816 6.192 49.574 6.336 49.244 6.336 48.825 6.336 48.407 6.192 48.077 5.906 47.835 5.62 47.593 5.231 47.472 4.74 47.472L3.243 47.472 3.243 50.179zM2.131 54.02L2.131 46.537 4.74 46.537C5.576 46.537 6.24 46.742 6.732 47.153 7.223 47.564 7.469 48.122 7.469 48.825 7.469 49.523 7.223 50.075 6.732 50.482 6.24 50.889 5.576 51.093 4.74 51.093L3.243 51.093 3.243 54.02 2.131 54.02 2.131 54.02zM9.714 51.203L12.444 51.203 11.079 47.692 9.714 51.203zM13.533 54.02L12.807 52.138 9.351 52.138 8.625 54.02 7.502 54.02 10.496 46.537 11.695 46.537 14.678 54.02 13.533 54.02 13.533 54.02zM17.033 50.069L18.563 50.069C19.04 50.069 19.42 49.952 19.702 49.717 19.985 49.483 20.126 49.167 20.126 48.77 20.126 48.374 19.985 48.059 19.702 47.824 19.42 47.59 19.04 47.472 18.563 47.472L17.033 47.472 17.033 50.069zM17.033 50.983L17.033 54.02 15.922 54.02 15.922 46.537 18.563 46.537C19.392 46.537 20.049 46.736 20.533 47.136 21.018 47.536 21.259 48.081 21.259 48.77 21.259 49.292 21.113 49.732 20.819 50.091 20.526 50.451 20.122 50.704 19.609 50.851L21.425 54.02 20.159 54.02 18.453 50.983 17.033 50.983 17.033 50.983z"/>
    <polyline fill="#404040" points="24.451 54.02 24.451 47.472 21.931 47.472 21.931 46.537 28.083 46.537 28.083 47.472 25.563 47.472 25.563 54.02 24.451 54.02"/>
    <path fill="#404040" d="M35.226,53.173 C35.71,53.173 36.141,53.05 36.519,52.805 C36.896,52.559 37.192,52.219 37.405,51.786 C37.617,51.354 37.724,50.851 37.724,50.278 C37.724,49.706 37.617,49.204 37.405,48.77 C37.192,48.338 36.896,47.998 36.519,47.753 C36.141,47.507 35.71,47.384 35.226,47.384 C34.742,47.384 34.312,47.507 33.938,47.753 C33.564,47.998 33.27,48.338 33.057,48.77 C32.845,49.204 32.738,49.706 32.738,50.278 C32.738,50.851 32.845,51.354 33.057,51.786 C33.27,52.219 33.564,52.559 33.938,52.805 C34.312,53.05 34.742,53.173 35.226,53.173 Z M35.226,54.142 C34.521,54.142 33.898,53.976 33.354,53.646 C32.812,53.316 32.384,52.861 32.072,52.281 C31.761,51.702 31.605,51.034 31.605,50.278 C31.605,49.523 31.761,48.855 32.072,48.276 C32.384,47.696 32.812,47.241 33.354,46.911 C33.898,46.58 34.521,46.415 35.226,46.415 C35.93,46.415 36.555,46.58 37.102,46.911 C37.648,47.241 38.078,47.696 38.39,48.276 C38.702,48.855 38.857,49.523 38.857,50.278 C38.857,51.034 38.702,51.702 38.39,52.281 C38.078,52.861 37.648,53.316 37.102,53.646 C36.555,53.976 35.93,54.142 35.226,54.142 L35.226,54.142 Z"/>
    <polyline fill="#404040" points="41.532 54.02 40.421 54.02 40.421 46.537 45.076 46.537 45.076 47.472 41.532 47.472 41.532 50.004 44.537 50.004 44.537 50.938 41.532 50.938 41.532 54.02"/>
    <polyline fill="#404040" points="50.876 54.02 50.876 47.472 48.355 47.472 48.355 46.537 54.508 46.537 54.508 47.472 51.987 47.472 51.987 54.02 50.876 54.02"/>
    <polyline fill="#404040" points="55.784 54.02 55.784 46.537 56.896 46.537 56.896 49.739 60.759 49.739 60.759 46.537 61.87 46.537 61.87 54.02 60.759 54.02 60.759 50.697 56.896 50.697 56.896 54.02 55.784 54.02"/>
    <polyline fill="#404040" points="63.829 54.02 63.829 46.537 68.628 46.537 68.628 47.472 64.941 47.472 64.941 49.783 68.188 49.783 68.188 50.718 64.941 50.718 64.941 53.085 68.716 53.085 68.716 54.02 63.829 54.02"/>
    <path fill="#404040" d="M75.738 53.173C76.347 53.173 76.825 52.99 77.174 52.623 77.522 52.256 77.697 51.761 77.697 51.137L77.697 46.537 78.808 46.537 78.808 51.148C78.808 52.08 78.535 52.812 77.988 53.344 77.442 53.875 76.691 54.142 75.738 54.142 74.784 54.142 74.035 53.875 73.493 53.344 72.949 52.812 72.678 52.08 72.678 51.148L72.678 46.537 73.79 46.537 73.79 51.137C73.79 51.761 73.964 52.256 74.312 52.623 74.661 52.99 75.136 53.173 75.738 53.173M82.958 54.142C82.392 54.142 81.853 54.042 81.34 53.845 80.826 53.646 80.411 53.382 80.096 53.052L80.723 52.314C81.016 52.586 81.363 52.799 81.763 52.953 82.163 53.107 82.561 53.184 82.958 53.184 83.442 53.184 83.832 53.091 84.13 52.903 84.427 52.716 84.575 52.457 84.575 52.127 84.575 51.827 84.469 51.574 84.256 51.368 84.043 51.163 83.68 50.991 83.166 50.851L82.132 50.575C81.464 50.4 80.978 50.15 80.674 49.827 80.369 49.504 80.217 49.083 80.217 48.562 80.217 48.136 80.331 47.762 80.558 47.439 80.785 47.116 81.099 46.865 81.499 46.685 81.899 46.505 82.352 46.415 82.858 46.415 83.394 46.415 83.897 46.516 84.366 46.718 84.836 46.92 85.25 47.201 85.61 47.56L84.938 48.286C84.623 47.993 84.294 47.767 83.953 47.61 83.612 47.452 83.251 47.373 82.869 47.373 82.407 47.373 82.029 47.47 81.736 47.665 81.442 47.859 81.296 48.129 81.296 48.473 81.296 48.789 81.4 49.035 81.609 49.211 81.818 49.387 82.139 49.534 82.572 49.651L83.728 49.97C84.395 50.154 84.883 50.41 85.191 50.741 85.5 51.071 85.654 51.482 85.654 51.973 85.654 52.407 85.54 52.786 85.313 53.113 85.085 53.439 84.77 53.692 84.366 53.872 83.962 54.052 83.493 54.142 82.958 54.142M88.449 51.203L91.179 51.203 89.814 47.692 88.449 51.203zM92.268 54.02L91.542 52.138 88.086 52.138 87.36 54.02 86.237 54.02 89.231 46.537 90.43 46.537 93.413 54.02 92.268 54.02 92.268 54.02z"/>
    <polyline fill="#404040" points="98.586 54.02 98.586 47.472 96.065 47.472 96.065 46.537 102.217 46.537 102.217 47.472 99.697 47.472 99.697 54.02 98.586 54.02"/>
    <path fill="#404040" d="M106.224 53.173C106.708 53.173 107.139 53.05 107.517 52.805 107.895 52.559 108.19 52.219 108.403 51.786 108.615 51.354 108.722 50.851 108.722 50.278 108.722 49.706 108.615 49.204 108.403 48.77 108.19 48.338 107.895 47.998 107.517 47.753 107.139 47.507 106.708 47.384 106.224 47.384 105.74 47.384 105.31 47.507 104.936 47.753 104.562 47.998 104.268 48.338 104.055 48.77 103.843 49.204 103.736 49.706 103.736 50.278 103.736 50.851 103.843 51.354 104.055 51.786 104.268 52.219 104.562 52.559 104.936 52.805 105.31 53.05 105.74 53.173 106.224 53.173zM106.224 54.142C105.519 54.142 104.896 53.976 104.353 53.646 103.81 53.316 103.382 52.861 103.071 52.281 102.759 51.702 102.603 51.034 102.603 50.278 102.603 49.523 102.759 48.855 103.071 48.276 103.382 47.696 103.81 47.241 104.353 46.911 104.896 46.58 105.519 46.415 106.224 46.415 106.928 46.415 107.554 46.58 108.1 46.911 108.647 47.241 109.076 47.696 109.388 48.276 109.7 48.855 109.855 49.523 109.855 50.278 109.855 51.034 109.7 51.702 109.388 52.281 109.076 52.861 108.647 53.316 108.1 53.646 107.554 53.976 106.928 54.142 106.224 54.142L106.224 54.142zM112.53 53.085L114.049 53.085C114.577 53.085 115.03 52.969 115.408 52.738 115.786 52.507 116.075 52.183 116.277 51.764 116.479 51.346 116.58 50.851 116.58 50.278 116.58 49.706 116.479 49.211 116.277 48.793 116.075 48.374 115.786 48.05 115.408 47.819 115.03 47.588 114.577 47.472 114.049 47.472L112.53 47.472 112.53 53.085zM111.418 54.02L111.418 46.537 114.049 46.537C114.782 46.537 115.424 46.693 115.975 47.005 116.525 47.316 116.952 47.753 117.257 48.314 117.561 48.875 117.714 49.53 117.714 50.278 117.714 51.027 117.561 51.682 117.257 52.243 116.952 52.805 116.525 53.241 115.975 53.553 115.424 53.865 114.782 54.02 114.049 54.02L111.418 54.02 111.418 54.02zM120.553 51.203L123.283 51.203 121.918 47.692 120.553 51.203zM124.372 54.02L123.646 52.138 120.19 52.138 119.463 54.02 118.341 54.02 121.335 46.537 122.534 46.537 125.517 54.02 124.372 54.02 124.372 54.02z"/>
    <polyline fill="#404040" points="128.929 51.049 128.929 54.02 127.817 54.02 127.817 51.049 125.186 46.537 126.496 46.537 128.378 49.992 130.26 46.537 131.548 46.537 128.929 51.049"/>
    <polyline fill="#404040" points="140.44 54.02 136.445 48.286 136.445 54.02 135.4 54.02 135.4 46.537 136.435 46.537 140.44 52.271 140.44 46.537 141.475 46.537 141.475 54.02 140.44 54.02"/>
    <polyline fill="#404040" points="143.434 54.02 143.434 46.537 148.233 46.537 148.233 47.472 144.546 47.472 144.546 49.783 147.792 49.783 147.792 50.718 144.546 50.718 144.546 53.085 148.321 53.085 148.321 54.02 143.434 54.02"/>
    <polyline fill="#404040" points="151.622 54.02 151.622 47.472 149.102 47.472 149.102 46.537 155.254 46.537 155.254 47.472 152.734 47.472 152.734 54.02 151.622 54.02"/>
    <polyline fill="#404040" points="162.518 54.02 160.768 48.056 159.018 54.02 157.863 54.02 155.871 46.537 156.971 46.537 158.49 52.457 160.24 46.537 161.297 46.537 163.057 52.48 164.587 46.537 165.666 46.537 163.674 54.02 162.518 54.02"/>
    <path fill="#404040" d="M170.079 53.173C170.564 53.173 170.995 53.05 171.373 52.805 171.75 52.559 172.046 52.219 172.258 51.786 172.471 51.354 172.578 50.851 172.578 50.278 172.578 49.706 172.471 49.204 172.258 48.77 172.046 48.338 171.75 47.998 171.373 47.753 170.995 47.507 170.564 47.384 170.079 47.384 169.595 47.384 169.166 47.507 168.792 47.753 168.417 47.998 168.124 48.338 167.911 48.77 167.698 49.204 167.592 49.706 167.592 50.278 167.592 50.851 167.698 51.354 167.911 51.786 168.124 52.219 168.417 52.559 168.792 52.805 169.166 53.05 169.595 53.173 170.079 53.173zM170.079 54.142C169.375 54.142 168.751 53.976 168.208 53.646 167.665 53.316 167.238 52.861 166.926 52.281 166.614 51.702 166.458 51.034 166.458 50.278 166.458 49.523 166.614 48.855 166.926 48.276 167.238 47.696 167.665 47.241 168.208 46.911 168.751 46.58 169.375 46.415 170.079 46.415 170.784 46.415 171.409 46.58 171.956 46.911 172.502 47.241 172.932 47.696 173.244 48.276 173.555 48.855 173.711 49.523 173.711 50.278 173.711 51.034 173.555 51.702 173.244 52.281 172.932 52.861 172.502 53.316 171.956 53.646 171.409 53.976 170.784 54.142 170.079 54.142L170.079 54.142zM176.386 50.069L177.915 50.069C178.392 50.069 178.772 49.952 179.054 49.717 179.337 49.483 179.478 49.167 179.478 48.77 179.478 48.374 179.337 48.059 179.054 47.824 178.772 47.59 178.392 47.472 177.915 47.472L176.386 47.472 176.386 50.069zM176.386 50.983L176.386 54.02 175.274 54.02 175.274 46.537 177.915 46.537C178.744 46.537 179.401 46.736 179.885 47.136 180.37 47.536 180.612 48.081 180.612 48.77 180.612 49.292 180.465 49.732 180.171 50.091 179.878 50.451 179.474 50.704 178.961 50.851L180.777 54.02 179.511 54.02 177.805 50.983 176.386 50.983 176.386 50.983z"/>
    <polyline fill="#404040" points="186.654 54.02 183.297 50.246 183.297 54.02 182.186 54.02 182.186 46.537 183.297 46.537 183.297 49.816 186.434 46.537 187.81 46.537 184.475 49.97 188.052 54.02 186.654 54.02"/>
  </g>
</svg>
