<svg xmlns="http://www.w3.org/2000/svg" width="392" height="47" viewBox="0 0 392 47">
  <g fill="none" fill-rule="evenodd">
    <path fill="#FFFFFF" d="M2.248 43.691L3.365 43.691C3.731 43.691 4.021 43.601 4.234 43.42 4.447 43.24 4.554 42.993 4.554 42.682 4.554 42.37 4.447 42.124 4.234 41.943 4.021 41.763 3.731 41.673 3.365 41.673L2.248 41.673 2.248 43.691zM1.42 46.555L1.42 40.976 3.365 40.976C3.988 40.976 4.483 41.128 4.85 41.435 5.216 41.741 5.399 42.157 5.399 42.682 5.399 43.202 5.216 43.613 4.85 43.917 4.483 44.221 3.988 44.372 3.365 44.372L2.248 44.372 2.248 46.555 1.42 46.555zM7.073 44.454L9.109 44.454 8.091 41.837 7.073 44.454zM9.921 46.555L9.38 45.151 6.803 45.151 6.261 46.555 5.424 46.555 7.656 40.976 8.55 40.976 10.775 46.555 9.921 46.555zM12.531 43.608L13.671 43.608C14.027 43.608 14.31 43.522 14.52 43.347 14.731 43.172 14.836 42.937 14.836 42.641 14.836 42.346 14.731 42.11 14.52 41.935 14.31 41.76 14.027 41.673 13.671 41.673L12.531 41.673 12.531 43.608zM12.531 44.29L12.531 46.555 11.702 46.555 11.702 40.976 13.671 40.976C14.289 40.976 14.779 41.124 15.14 41.422 15.501 41.721 15.681 42.127 15.681 42.641 15.681 43.029 15.572 43.357 15.353 43.626 15.134 43.894 14.833 44.082 14.451 44.191L15.804 46.555 14.861 46.555 13.589 44.29 12.531 44.29z"/>
    <polyline fill="#FFFFFF" points="18.061 46.555 18.061 41.673 16.182 41.673 16.182 40.976 20.769 40.976 20.769 41.673 18.89 41.673 18.89 46.555 18.061 46.555"/>
    <path fill="#FFFFFF" d="M26.094,45.923 C26.456,45.923 26.777,45.832 27.059,45.648 C27.34,45.465 27.561,45.212 27.719,44.889 C27.878,44.566 27.957,44.191 27.957,43.765 C27.957,43.338 27.878,42.964 27.719,42.641 C27.561,42.318 27.34,42.065 27.059,41.882 C26.777,41.698 26.456,41.606 26.094,41.606 C25.734,41.606 25.413,41.698 25.134,41.882 C24.855,42.065 24.636,42.318 24.478,42.641 C24.32,42.964 24.24,43.338 24.24,43.765 C24.24,44.191 24.32,44.566 24.478,44.889 C24.636,45.212 24.855,45.465 25.134,45.648 C25.413,45.832 25.734,45.923 26.094,45.923 Z M26.094,46.646 C25.569,46.646 25.104,46.522 24.699,46.276 C24.295,46.029 23.976,45.69 23.743,45.259 C23.511,44.826 23.395,44.328 23.395,43.765 C23.395,43.202 23.511,42.704 23.743,42.271 C23.976,41.839 24.295,41.5 24.699,41.254 C25.104,41.008 25.569,40.885 26.094,40.885 C26.62,40.885 27.086,41.008 27.494,41.254 C27.901,41.5 28.221,41.839 28.454,42.271 C28.686,42.704 28.803,43.202 28.803,43.765 C28.803,44.328 28.686,44.826 28.454,45.259 C28.221,45.69 27.901,46.029 27.494,46.276 C27.086,46.522 26.62,46.646 26.094,46.646 Z"/>
    <polyline fill="#FFFFFF" points="30.797 46.555 29.968 46.555 29.968 40.976 33.439 40.976 33.439 41.673 30.797 41.673 30.797 43.56 33.037 43.56 33.037 44.257 30.797 44.257 30.797 46.555"/>
    <polyline fill="#FFFFFF" points="37.763 46.555 37.763 41.673 35.884 41.673 35.884 40.976 40.471 40.976 40.471 41.673 38.592 41.673 38.592 46.555 37.763 46.555"/>
    <polyline fill="#FFFFFF" points="41.423 46.555 41.423 40.976 42.252 40.976 42.252 43.363 45.132 43.363 45.132 40.976 45.961 40.976 45.961 46.555 45.132 46.555 45.132 44.077 42.252 44.077 42.252 46.555 41.423 46.555"/>
    <polyline fill="#FFFFFF" points="47.422 46.555 47.422 40.976 50.999 40.976 50.999 41.673 48.25 41.673 48.25 43.396 50.671 43.396 50.671 44.093 48.25 44.093 48.25 45.857 51.065 45.857 51.065 46.555 47.422 46.555"/>
    <path fill="#FFFFFF" d="M56.3 45.923C56.754 45.923 57.111 45.786 57.371 45.513 57.631 45.239 57.761 44.87 57.761 44.405L57.761 40.976 58.59 40.976 58.59 44.413C58.59 45.108 58.385 45.653 57.978 46.05 57.57 46.447 57.011 46.646 56.3 46.646 55.589 46.646 55.031 46.447 54.626 46.05 54.221 45.653 54.019 45.108 54.019 44.413L54.019 40.976 54.848 40.976 54.848 44.405C54.848 44.87 54.978 45.239 55.237 45.513 55.497 45.786 55.851 45.923 56.3 45.923M61.683 46.646C61.262 46.646 60.86 46.571 60.477 46.424 60.094 46.276 59.784 46.079 59.549 45.833L60.017 45.283C60.236 45.485 60.494 45.644 60.793 45.759 61.091 45.874 61.388 45.931 61.683 45.931 62.044 45.931 62.336 45.861 62.557 45.722 62.779 45.582 62.889 45.39 62.889 45.144 62.889 44.919 62.81 44.731 62.651 44.577 62.493 44.424 62.222 44.296 61.839 44.191L61.068 43.986C60.569 43.856 60.207 43.669 59.98 43.429 59.753 43.188 59.64 42.873 59.64 42.485 59.64 42.168 59.724 41.889 59.894 41.647 60.064 41.407 60.298 41.22 60.596 41.086 60.894 40.951 61.232 40.885 61.609 40.885 62.008 40.885 62.383 40.96 62.733 41.11 63.084 41.261 63.393 41.471 63.661 41.738L63.16 42.279C62.925 42.062 62.68 41.893 62.425 41.775 62.172 41.657 61.902 41.599 61.617 41.599 61.273 41.599 60.991 41.671 60.772 41.816 60.553 41.961 60.444 42.162 60.444 42.419 60.444 42.654 60.522 42.838 60.678 42.969 60.834 43.101 61.073 43.21 61.396 43.298L62.257 43.535C62.756 43.672 63.119 43.863 63.349 44.109 63.579 44.356 63.694 44.662 63.694 45.028 63.694 45.352 63.609 45.635 63.439 45.878 63.269 46.121 63.034 46.31 62.733 46.444 62.432 46.578 62.082 46.646 61.683 46.646M65.777 44.454L67.813 44.454 66.796 41.837 65.777 44.454zM68.625 46.555L68.084 45.151 65.507 45.151 64.965 46.555 64.129 46.555 66.361 40.976 67.255 40.976 69.479 46.555 68.625 46.555z"/>
    <polyline fill="#FFFFFF" points="73.336 46.555 73.336 41.673 71.456 41.673 71.456 40.976 76.043 40.976 76.043 41.673 74.164 41.673 74.164 46.555 73.336 46.555"/>
    <path fill="#FFFFFF" d="M79.03 45.923C79.391 45.923 79.713 45.832 79.994 45.648 80.276 45.465 80.496 45.212 80.655 44.889 80.814 44.566 80.893 44.191 80.893 43.765 80.893 43.338 80.814 42.964 80.655 42.641 80.496 42.318 80.276 42.065 79.994 41.882 79.713 41.698 79.391 41.606 79.03 41.606 78.669 41.606 78.349 41.698 78.071 41.882 77.791 42.065 77.572 42.318 77.414 42.641 77.255 42.964 77.175 43.338 77.175 43.765 77.175 44.191 77.255 44.566 77.414 44.889 77.572 45.212 77.791 45.465 78.071 45.648 78.349 45.832 78.669 45.923 79.03 45.923zM79.03 46.646C78.505 46.646 78.04 46.522 77.635 46.276 77.231 46.029 76.912 45.69 76.679 45.259 76.447 44.826 76.331 44.328 76.331 43.765 76.331 43.202 76.447 42.704 76.679 42.271 76.912 41.839 77.231 41.5 77.635 41.254 78.04 41.008 78.505 40.885 79.03 40.885 79.556 40.885 80.022 41.008 80.429 41.254 80.837 41.5 81.157 41.839 81.39 42.271 81.622 42.704 81.738 43.202 81.738 43.765 81.738 44.328 81.622 44.826 81.39 45.259 81.157 45.69 80.837 46.029 80.429 46.276 80.022 46.522 79.556 46.646 79.03 46.646zM83.732 45.857L84.864 45.857C85.259 45.857 85.596 45.772 85.878 45.599 86.16 45.427 86.376 45.185 86.526 44.873 86.676 44.561 86.752 44.191 86.752 43.765 86.752 43.338 86.676 42.969 86.526 42.657 86.376 42.346 86.16 42.104 85.878 41.931 85.596 41.759 85.259 41.673 84.864 41.673L83.732 41.673 83.732 45.857zM82.904 46.555L82.904 40.976 84.864 40.976C85.411 40.976 85.89 41.092 86.3 41.324 86.711 41.557 87.03 41.882 87.257 42.301 87.484 42.719 87.597 43.207 87.597 43.765 87.597 44.323 87.484 44.812 87.257 45.23 87.03 45.648 86.711 45.974 86.3 46.206 85.89 46.438 85.411 46.555 84.864 46.555L82.904 46.555zM89.714 44.454L91.749 44.454 90.732 41.837 89.714 44.454zM92.562 46.555L92.02 45.151 89.444 45.151 88.902 46.555 88.065 46.555 90.297 40.976 91.191 40.976 93.415 46.555 92.562 46.555z"/>
    <polyline fill="#FFFFFF" points="95.959 44.34 95.959 46.555 95.13 46.555 95.13 44.34 93.169 40.976 94.146 40.976 95.549 43.552 96.952 40.976 97.912 40.976 95.959 44.34"/>
    <polyline fill="#FFFFFF" points="104.542 46.555 101.564 42.279 101.564 46.555 100.784 46.555 100.784 40.976 101.555 40.976 104.542 45.25 104.542 40.976 105.314 40.976 105.314 46.555 104.542 46.555"/>
    <polyline fill="#FFFFFF" points="106.774 46.555 106.774 40.976 110.352 40.976 110.352 41.673 107.603 41.673 107.603 43.396 110.024 43.396 110.024 44.093 107.603 44.093 107.603 45.857 110.418 45.857 110.418 46.555 106.774 46.555"/>
    <polyline fill="#FFFFFF" points="112.88 46.555 112.88 41.673 111 41.673 111 40.976 115.587 40.976 115.587 41.673 113.708 41.673 113.708 46.555 112.88 46.555"/>
    <polyline fill="#FFFFFF" points="121.003 46.555 119.698 42.107 118.394 46.555 117.532 46.555 116.047 40.976 116.867 40.976 118 45.39 119.305 40.976 120.092 40.976 121.405 45.406 122.546 40.976 123.35 40.976 121.865 46.555 121.003 46.555"/>
    <path fill="#FFFFFF" d="M126.641 45.923C127.002 45.923 127.323 45.832 127.605 45.648 127.886 45.465 128.107 45.212 128.265 44.889 128.424 44.566 128.504 44.191 128.504 43.765 128.504 43.338 128.424 42.964 128.265 42.641 128.107 42.318 127.886 42.065 127.605 41.882 127.323 41.698 127.002 41.606 126.641 41.606 126.28 41.606 125.96 41.698 125.681 41.882 125.402 42.065 125.183 42.318 125.024 42.641 124.865 42.964 124.786 43.338 124.786 43.765 124.786 44.191 124.865 44.566 125.024 44.889 125.183 45.212 125.402 45.465 125.681 45.648 125.96 45.832 126.28 45.923 126.641 45.923zM126.641 46.646C126.116 46.646 125.651 46.522 125.246 46.276 124.841 46.029 124.522 45.69 124.29 45.259 124.057 44.826 123.941 44.328 123.941 43.765 123.941 43.202 124.057 42.704 124.29 42.271 124.522 41.839 124.841 41.5 125.246 41.254 125.651 41.008 126.116 40.885 126.641 40.885 127.166 40.885 127.633 41.008 128.04 41.254 128.447 41.5 128.767 41.839 129 42.271 129.233 42.704 129.349 43.202 129.349 43.765 129.349 44.328 129.233 44.826 129 45.259 128.767 45.69 128.447 46.029 128.04 46.276 127.633 46.522 127.166 46.646 126.641 46.646zM131.343 43.608L132.483 43.608C132.839 43.608 133.122 43.522 133.333 43.347 133.543 43.172 133.649 42.937 133.649 42.641 133.649 42.346 133.543 42.11 133.333 41.935 133.122 41.76 132.839 41.673 132.483 41.673L131.343 41.673 131.343 43.608zM131.343 44.29L131.343 46.555 130.514 46.555 130.514 40.976 132.483 40.976C133.101 40.976 133.591 41.124 133.952 41.422 134.313 41.721 134.494 42.127 134.494 42.641 134.494 43.029 134.384 43.357 134.165 43.626 133.946 43.894 133.646 44.082 133.263 44.191L134.617 46.555 133.673 46.555 132.401 44.29 131.343 44.29z"/>
    <polyline fill="#FFFFFF" points="138.999 46.555 136.496 43.74 136.496 46.555 135.667 46.555 135.667 40.976 136.496 40.976 136.496 43.42 138.835 40.976 139.861 40.976 137.374 43.535 140.041 46.555 138.999 46.555"/>
    <path class="no-color-change" fill="#009BFF" d="M13.45 35.131C10.96 35.131 8.574 34.704 6.295 33.849 4.015 32.994 2.035 31.771.355 30.182L4.405 25.097C5.605 26.176 6.954 27.024 8.455 27.639 9.955 28.254 11.605 28.562 13.405 28.562 14.605 28.562 15.549 28.352 16.24 27.932 16.93 27.512 17.275 26.882 17.275 26.041 17.275 25.231 16.87 24.579 16.06 24.084 15.25 23.589 13.825 23.071 11.785 22.531L9.895 22.036C7.134 21.316 5.035 20.214 3.595 18.729 2.155 17.244 1.435 15.361 1.435 13.081 1.435 11.132 1.944 9.422 2.965 7.951 3.985 6.481 5.395 5.349 7.195 4.554 8.995 3.759 11.08 3.361 13.45 3.361 15.79 3.361 18.025 3.789 20.155 4.644 22.285 5.499 24.174 6.662 25.825 8.131L21.64 13.396C20.56 12.467 19.292 11.656 17.838 10.966 16.382 10.276 14.935 9.932 13.495 9.932 12.295 9.932 11.372 10.134 10.727 10.539 10.082 10.943 9.76 11.536 9.76 12.316 9.76 13.036 10.097 13.659 10.773 14.184 11.447 14.709 12.61 15.196 14.26 15.646L16.555 16.276C19.855 17.176 22.187 18.406 23.552 19.966 24.917 21.526 25.6 23.341 25.6 25.411 25.6 27.361 25.097 29.064 24.092 30.519 23.087 31.975 21.67 33.106 19.84 33.916 18.01 34.727 15.88 35.131 13.45 35.131M37.84 21.946L37.84 34.546 30.01 34.546 30.01 1.696 37.84 1.696 37.84 14.296C38.589 13.307 39.542 12.519 40.698 11.934 41.852 11.349 43.105 11.057 44.455 11.057 46.944 11.057 48.939 11.866 50.44 13.486 51.94 15.106 52.69 17.432 52.69 20.461L52.69 34.546 44.86 34.546 44.86 21.361C44.86 20.012 44.559 19.015 43.96 18.369 43.359 17.724 42.52 17.401 41.44 17.401 40.36 17.401 39.49 17.746 38.83 18.437 38.17 19.127 37.84 20.297 37.84 21.946M65.604 25.682L65.604 34.546 57.774 34.546 57.774 11.642 64.929 11.642 65.424 15.466C65.904 14.236 66.691 13.238 67.787 12.474 68.882 11.709 70.149 11.326 71.589 11.326 72.399 11.326 73.014 11.432 73.434 11.642L73.434 18.796C73.104 18.677 72.737 18.587 72.332 18.526 71.926 18.467 71.469 18.437 70.959 18.437 69.399 18.437 68.116 19.015 67.112 20.169 66.106 21.324 65.604 23.161 65.604 25.682M88.059 16.727C85.509 16.727 83.979 18.076 83.469 20.776L92.199 20.776C91.988 19.307 91.486 18.264 90.691 17.649 89.896 17.034 89.019 16.727 88.059 16.727zM98.769 32.206C97.628 33.017 96.181 33.707 94.426 34.276 92.671 34.846 90.804 35.131 88.824 35.131 86.093 35.131 83.761 34.629 81.826 33.624 79.891 32.619 78.406 31.216 77.371 29.416 76.336 27.616 75.819 25.546 75.819 23.206 75.819 20.837 76.329 18.736 77.349 16.906 78.368 15.077 79.779 13.644 81.579 12.608 83.379 11.574 85.478 11.057 87.879 11.057 90.219 11.057 92.281 11.559 94.066 12.563 95.851 13.569 97.246 14.964 98.251 16.749 99.256 18.534 99.759 20.627 99.759 23.026 99.759 23.356 99.736 23.701 99.691 24.062 99.646 24.421 99.593 24.797 99.534 25.187L83.559 25.187C84.279 27.826 86.243 29.146 89.454 29.146 90.894 29.146 92.169 28.921 93.279 28.472 94.388 28.021 95.319 27.571 96.069 27.121L98.769 32.206z"/>
    <polyline class="no-color-change" fill="#009BFF" points="126.849 11.642 117.984 34.546 109.434 34.546 100.569 11.642 109.164 11.642 113.844 26.446 118.434 11.642 126.849 11.642"/>
    <path class="no-color-change" fill="#009BFF" d="M140.214 16.727C137.663 16.727 136.133 18.076 135.624 20.776L144.354 20.776C144.143 19.307 143.641 18.264 142.846 17.649 142.051 17.034 141.174 16.727 140.214 16.727zM150.924 32.206C149.783 33.017 148.336 33.707 146.581 34.276 144.826 34.846 142.959 35.131 140.979 35.131 138.248 35.131 135.916 34.629 133.981 33.624 132.046 32.619 130.561 31.216 129.526 29.416 128.491 27.616 127.974 25.546 127.974 23.206 127.974 20.837 128.484 18.736 129.504 16.906 130.523 15.077 131.934 13.644 133.734 12.608 135.533 11.574 137.633 11.057 140.033 11.057 142.374 11.057 144.436 11.559 146.221 12.563 148.006 13.569 149.401 14.964 150.406 16.749 151.411 18.534 151.914 20.627 151.914 23.026 151.914 23.356 151.891 23.701 151.846 24.062 151.801 24.421 151.748 24.797 151.689 25.187L135.714 25.187C136.434 27.826 138.398 29.146 141.609 29.146 143.049 29.146 144.323 28.921 145.434 28.472 146.543 28.021 147.473 27.571 148.224 27.121L150.924 32.206zM168.113 28.921C169.493 28.921 170.595 28.389 171.421 27.324 172.246 26.259 172.658 24.842 172.658 23.071 172.658 21.302 172.246 19.884 171.421 18.818 170.595 17.754 169.493 17.222 168.113 17.222 166.763 17.222 165.675 17.754 164.851 18.818 164.026 19.884 163.613 21.302 163.613 23.071 163.613 24.842 164.026 26.259 164.851 27.324 165.675 28.389 166.763 28.921 168.113 28.921zM170.228 35.131C168.879 35.131 167.648 34.846 166.538 34.276 165.428 33.707 164.498 32.926 163.748 31.937L163.748 42.871 155.919 42.871 155.919 11.642 163.073 11.642 163.478 14.656C164.198 13.576 165.166 12.706 166.381 12.046 167.596 11.387 168.998 11.057 170.589 11.057 172.538 11.057 174.263 11.566 175.763 12.586 177.263 13.606 178.448 15.017 179.319 16.816 180.188 18.616 180.623 20.702 180.623 23.071 180.623 25.441 180.18 27.534 179.296 29.349 178.411 31.164 177.181 32.582 175.606 33.602 174.031 34.621 172.238 35.131 170.228 35.131zM195.834 28.921C197.213 28.921 198.316 28.389 199.141 27.324 199.966 26.259 200.379 24.842 200.379 23.071 200.379 21.302 199.966 19.892 199.141 18.841 198.316 17.791 197.213 17.267 195.834 17.267 194.453 17.267 193.351 17.791 192.526 18.841 191.7 19.892 191.288 21.302 191.288 23.071 191.288 24.842 191.7 26.259 192.526 27.324 193.351 28.389 194.453 28.921 195.834 28.921zM195.834 35.131C193.373 35.131 191.205 34.613 189.331 33.579 187.456 32.544 185.986 31.126 184.921 29.326 183.856 27.526 183.323 25.441 183.323 23.071 183.323 20.702 183.856 18.616 184.921 16.816 185.986 15.017 187.456 13.606 189.331 12.586 191.205 11.566 193.373 11.057 195.834 11.057 198.293 11.057 200.461 11.566 202.336 12.586 204.211 13.606 205.68 15.017 206.746 16.816 207.81 18.616 208.343 20.702 208.343 23.071 208.343 25.441 207.81 27.526 206.746 29.326 205.68 31.126 204.211 32.544 202.336 33.579 200.461 34.613 198.293 35.131 195.834 35.131zM220.268 25.682L220.268 34.546 212.438 34.546 212.438 11.642 219.593 11.642 220.089 15.466C220.568 14.236 221.355 13.238 222.451 12.474 223.546 11.709 224.813 11.326 226.254 11.326 227.063 11.326 227.677 11.432 228.098 11.642L228.098 18.796C227.767 18.677 227.401 18.587 226.996 18.526 226.591 18.467 226.133 18.437 225.623 18.437 224.063 18.437 222.78 19.015 221.776 20.169 220.77 21.324 220.268 23.161 220.268 25.682M249.203 33.062C248.272 33.691 247.207 34.194 246.008 34.568 244.807 34.943 243.548 35.131 242.227 35.131 239.767 35.131 237.81 34.419 236.355 32.994 234.9 31.569 234.173 29.656 234.173 27.256L234.173 17.491 230.437 17.491 230.437 11.642 234.533 11.642 235.522 5.251 242.003 5.251 242.003 11.642 247.988 11.642 247.988 17.491 242.003 17.491 242.003 26.267C242.003 27.047 242.235 27.654 242.7 28.089 243.165 28.524 243.787 28.741 244.568 28.741 244.957 28.741 245.355 28.667 245.76 28.517 246.165 28.366 246.548 28.187 246.908 27.977L249.203 33.062"/>
    <polyline fill="#FFFFFF" points="271.117 34.546 271.117 10.696 262.027 10.696 262.027 3.946 288.577 3.946 288.577 10.696 279.487 10.696 279.487 34.546 271.117 34.546"/>
    <path fill="#FFFFFF" d="M292.356 34.546L292.356 11.642C293.616 11.911 294.891 12.046 296.181 12.046 297.501 12.046 298.837 11.911 300.186 11.642L300.186 34.546 292.356 34.546M313.506 21.361L313.506 34.546 305.676 34.546 305.676 11.642 312.876 11.642 313.281 14.566C313.97 13.457 314.871 12.616 315.981 12.046 317.091 11.477 318.276 11.191 319.536 11.191 320.885 11.191 322.116 11.491 323.225 12.091 324.336 12.691 325.235 13.531 325.926 14.611 326.736 13.502 327.794 12.653 329.098 12.068 330.403 11.483 331.776 11.191 333.216 11.191 334.805 11.191 336.209 11.559 337.424 12.294 338.638 13.029 339.591 14.049 340.281 15.354 340.97 16.659 341.316 18.166 341.316 19.876L341.316 34.546 333.486 34.546 333.486 20.687C333.486 19.727 333.222 18.962 332.698 18.392 332.173 17.821 331.506 17.536 330.696 17.536 329.706 17.536 328.911 17.852 328.31 18.481 327.711 19.111 327.411 20.071 327.411 21.361L327.411 34.546 319.581 34.546 319.581 20.687C319.581 19.727 319.326 18.962 318.816 18.392 318.305 17.821 317.616 17.536 316.746 17.536 315.785 17.536 315.006 17.852 314.406 18.481 313.805 19.111 313.506 20.071 313.506 21.361M357.246 16.727C354.695 16.727 353.166 18.076 352.656 20.776L361.385 20.776C361.176 19.307 360.673 18.264 359.878 17.649 359.083 17.034 358.206 16.727 357.246 16.727zM367.956 32.206C366.815 33.017 365.368 33.707 363.613 34.276 361.858 34.846 359.991 35.131 358.01 35.131 355.28 35.131 352.948 34.629 351.013 33.624 349.078 32.619 347.593 31.216 346.558 29.416 345.523 27.616 345.006 25.546 345.006 23.206 345.006 20.837 345.515 18.736 346.536 16.906 347.555 15.077 348.966 13.644 350.765 12.608 352.565 11.574 354.665 11.057 357.065 11.057 359.406 11.057 361.467 11.559 363.253 12.563 365.038 13.569 366.432 14.964 367.438 16.749 368.443 18.534 368.946 20.627 368.946 23.026 368.946 23.356 368.924 23.701 368.878 24.062 368.833 24.421 368.78 24.797 368.72 25.187L352.746 25.187C353.466 27.826 355.43 29.146 358.64 29.146 360.081 29.146 361.355 28.921 362.466 28.472 363.575 28.021 364.506 27.571 365.256 27.121L367.956 32.206zM381.456 35.131C379.475 35.131 377.623 34.816 375.898 34.187 374.173 33.557 372.62 32.656 371.24 31.486L374.57 27.076C375.62 27.916 376.753 28.6 377.967 29.124 379.183 29.649 380.376 29.911 381.546 29.911 382.325 29.911 382.947 29.776 383.413 29.506 383.878 29.236 384.11 28.831 384.11 28.291 384.11 27.722 383.847 27.264 383.323 26.919 382.798 26.574 381.86 26.236 380.51 25.906L378.35 25.366C374.06 24.227 371.916 21.932 371.916 18.481 371.916 16.951 372.336 15.632 373.176 14.521 374.015 13.412 375.171 12.557 376.64 11.956 378.11 11.356 379.82 11.057 381.77 11.057 383.69 11.057 385.498 11.356 387.193 11.956 388.887 12.557 390.44 13.427 391.85 14.566L388.43 19.066C387.38 18.227 386.27 17.552 385.1 17.041 383.93 16.531 382.835 16.276 381.815 16.276 380.165 16.276 379.341 16.816 379.341 17.896 379.341 18.377 379.588 18.767 380.083 19.066 380.578 19.366 381.275 19.637 382.176 19.876L385.1 20.687C387.29 21.287 388.91 22.187 389.961 23.387 391.01 24.587 391.536 26.012 391.536 27.661 391.536 29.162 391.115 30.474 390.275 31.599 389.435 32.724 388.258 33.594 386.743 34.209 385.228 34.823 383.465 35.131 381.456 35.131"/>
    <path class="no-color-change" fill="#009BFF" d="M296.181,9.841 C294.891,9.841 293.789,9.384 292.874,8.469 C291.958,7.554 291.501,6.451 291.501,5.161 C291.501,3.872 291.958,2.77 292.874,1.854 C293.789,0.939 294.891,0.481 296.181,0.481 C297.47,0.481 298.573,0.939 299.489,1.854 C300.403,2.77 300.861,3.872 300.861,5.161 C300.861,6.451 300.403,7.554 299.489,8.469 C298.573,9.384 297.47,9.841 296.181,9.841"/>
  </g>
</svg>
