<svg xmlns="http://www.w3.org/2000/svg" width="392" height="43" viewBox="0 0 392 43">
  <g fill="none" fill-rule="evenodd">
    <path fill="#009BFF" d="M13.45 34.905C10.959 34.905 8.574 34.478 6.295 33.623 4.015 32.768 2.035 31.546.355 29.955L4.405 24.87C5.604 25.95 6.954 26.799 8.455 27.413 9.955 28.028 11.605 28.335 13.405 28.335 14.604 28.335 15.549 28.126 16.24 27.705 16.93 27.286 17.275 26.656 17.275 25.815 17.275 25.006 16.87 24.353 16.06 23.858 15.25 23.363 13.825 22.846 11.785 22.306L9.895 21.81C7.134 21.091 5.035 19.988 3.595 18.503 2.155 17.018 1.435 15.136 1.435 12.855 1.435 10.906 1.944 9.196 2.965 7.725 3.984 6.256 5.395 5.123 7.195 4.328 8.995 3.533 11.08 3.136 13.45 3.136 15.79 3.136 18.024 3.563 20.155 4.418 22.285 5.273 24.174 6.436 25.825 7.905L21.64 13.171C20.56 12.241 19.292 11.431 17.837 10.74 16.382 10.051 14.935 9.705 13.495 9.705 12.295 9.705 11.372 9.908 10.727 10.313 10.082 10.718 9.76 11.31 9.76 12.091 9.76 12.81 10.097 13.433 10.772 13.958 11.447 14.483 12.61 14.971 14.26 15.421L16.555 16.051C19.855 16.95 22.187 18.181 23.552 19.74 24.917 21.301 25.6 23.115 25.6 25.185 25.6 27.136 25.097 28.838 24.092 30.293 23.087 31.748 21.669 32.881 19.84 33.69 18.01 34.5 15.88 34.905 13.45 34.905M37.84 21.721L37.84 34.32 30.01 34.32 30.01 1.471 37.84 1.471 37.84 14.07C38.589 13.08 39.542 12.293 40.697 11.708 41.852 11.123 43.105 10.83 44.455 10.83 46.944 10.83 48.939 11.64 50.44 13.261 51.939 14.881 52.69 17.206 52.69 20.235L52.69 34.32 44.86 34.32 44.86 21.136C44.86 19.786 44.559 18.788 43.96 18.143 43.359 17.498 42.52 17.176 41.44 17.176 40.36 17.176 39.489 17.52 38.83 18.21 38.169 18.901 37.84 20.071 37.84 21.721M65.604 25.455L65.604 34.32 57.774 34.32 57.774 11.415 64.929 11.415 65.424 15.24C65.904 14.011 66.691 13.013 67.787 12.248 68.881 11.483 70.149 11.1 71.589 11.1 72.399 11.1 73.014 11.206 73.434 11.415L73.434 18.57C73.103 18.451 72.737 18.361 72.332 18.301 71.926 18.241 71.469 18.21 70.959 18.21 69.399 18.21 68.116 18.788 67.112 19.943 66.106 21.098 65.604 22.935 65.604 25.455M88.059 16.5C85.509 16.5 83.978 17.85 83.469 20.551L92.199 20.551C91.988 19.081 91.486 18.038 90.691 17.423 89.896 16.808 89.019 16.5 88.059 16.5zM98.769 31.98C97.628 32.79 96.181 33.481 94.426 34.051 92.671 34.62 90.804 34.905 88.824 34.905 86.093 34.905 83.761 34.403 81.826 33.398 79.891 32.393 78.406 30.99 77.371 29.19 76.336 27.39 75.819 25.32 75.819 22.98 75.819 20.611 76.329 18.511 77.349 16.681 78.368 14.851 79.779 13.418 81.579 12.383 83.379 11.348 85.478 10.83 87.879 10.83 90.219 10.83 92.281 11.333 94.066 12.338 95.851 13.344 97.246 14.738 98.251 16.523 99.256 18.308 99.759 20.401 99.759 22.801 99.759 23.131 99.736 23.475 99.691 23.835 99.646 24.195 99.593 24.571 99.534 24.96L83.559 24.96C84.279 27.6 86.243 28.921 89.454 28.921 90.894 28.921 92.168 28.695 93.279 28.245 94.388 27.796 95.319 27.346 96.069 26.895L98.769 31.98 98.769 31.98z"/>
    <polyline fill="#009BFF" points="126.849 11.415 117.984 34.32 109.434 34.32 100.569 11.415 109.164 11.415 113.844 26.221 118.434 11.415 126.849 11.415"/>
    <path fill="#009BFF" d="M140.214 16.5C137.663 16.5 136.133 17.85 135.623 20.551L144.353 20.551C144.143 19.081 143.641 18.038 142.846 17.423 142.051 16.808 141.173 16.5 140.214 16.5zM150.924 31.98C149.783 32.79 148.336 33.481 146.581 34.051 144.826 34.62 142.958 34.905 140.978 34.905 138.248 34.905 135.916 34.403 133.981 33.398 132.046 32.393 130.561 30.99 129.526 29.19 128.491 27.39 127.974 25.32 127.974 22.98 127.974 20.611 128.483 18.511 129.503 16.681 130.523 14.851 131.934 13.418 133.734 12.383 135.533 11.348 137.633 10.83 140.033 10.83 142.373 10.83 144.436 11.333 146.221 12.338 148.006 13.344 149.401 14.738 150.406 16.523 151.411 18.308 151.914 20.401 151.914 22.801 151.914 23.131 151.891 23.475 151.846 23.835 151.801 24.195 151.748 24.571 151.688 24.96L135.714 24.96C136.434 27.6 138.398 28.921 141.609 28.921 143.049 28.921 144.323 28.695 145.434 28.245 146.543 27.796 147.473 27.346 148.224 26.895L150.924 31.98 150.924 31.98zM168.113 28.695C169.493 28.695 170.595 28.163 171.421 27.098 172.246 26.033 172.658 24.616 172.658 22.846 172.658 21.076 172.246 19.658 171.421 18.593 170.595 17.528 169.493 16.995 168.113 16.995 166.763 16.995 165.675 17.528 164.851 18.593 164.025 19.658 163.613 21.076 163.613 22.846 163.613 24.616 164.025 26.033 164.851 27.098 165.675 28.163 166.763 28.695 168.113 28.695zM170.228 34.905C168.878 34.905 167.648 34.62 166.538 34.051 165.428 33.481 164.498 32.7 163.748 31.71L163.748 42.645 155.918 42.645 155.918 11.415 163.073 11.415 163.478 14.431C164.198 13.35 165.166 12.48 166.381 11.82 167.596 11.161 168.998 10.83 170.588 10.83 172.538 10.83 174.263 11.341 175.763 12.36 177.263 13.381 178.448 14.79 179.318 16.591 180.188 18.39 180.623 20.476 180.623 22.846 180.623 25.216 180.18 27.308 179.296 29.123 178.411 30.938 177.181 32.356 175.606 33.375 174.031 34.395 172.238 34.905 170.228 34.905L170.228 34.905zM195.833 28.695C197.213 28.695 198.315 28.163 199.141 27.098 199.965 26.033 200.378 24.616 200.378 22.846 200.378 21.076 199.965 19.666 199.141 18.615 198.315 17.565 197.213 17.04 195.833 17.04 194.453 17.04 193.351 17.565 192.526 18.615 191.7 19.666 191.288 21.076 191.288 22.846 191.288 24.616 191.7 26.033 192.526 27.098 193.351 28.163 194.453 28.695 195.833 28.695zM195.833 34.905C193.373 34.905 191.205 34.388 189.331 33.353 187.456 32.318 185.985 30.9 184.921 29.1 183.856 27.301 183.323 25.216 183.323 22.846 183.323 20.476 183.856 18.39 184.921 16.591 185.985 14.79 187.456 13.381 189.331 12.36 191.205 11.341 193.373 10.83 195.833 10.83 198.293 10.83 200.46 11.341 202.336 12.36 204.21 13.381 205.681 14.79 206.746 16.591 207.81 18.39 208.343 20.476 208.343 22.846 208.343 25.216 207.81 27.301 206.746 29.1 205.681 30.9 204.21 32.318 202.336 33.353 200.46 34.388 198.293 34.905 195.833 34.905L195.833 34.905zM220.268 25.455L220.268 34.32 212.438 34.32 212.438 11.415 219.593 11.415 220.088 15.24C220.568 14.011 221.355 13.013 222.451 12.248 223.545 11.483 224.813 11.1 226.253 11.1 227.063 11.1 227.678 11.206 228.098 11.415L228.098 18.57C227.768 18.451 227.401 18.361 226.996 18.301 226.591 18.241 226.133 18.21 225.623 18.21 224.063 18.21 222.78 18.788 221.776 19.943 220.77 21.098 220.268 22.935 220.268 25.455M249.203 32.835C248.272 33.466 247.207 33.968 246.008 34.343 244.808 34.718 243.547 34.905 242.228 34.905 239.768 34.905 237.81 34.193 236.355 32.768 234.9 31.344 234.173 29.431 234.173 27.03L234.173 17.265 230.437 17.265 230.437 11.415 234.533 11.415 235.522 5.025 242.002 5.025 242.002 11.415 247.988 11.415 247.988 17.265 242.002 17.265 242.002 26.04C242.002 26.821 242.235 27.429 242.7 27.863 243.165 28.298 243.787 28.515 244.568 28.515 244.957 28.515 245.355 28.441 245.76 28.29 246.165 28.14 246.548 27.961 246.908 27.75L249.203 32.835"/>
    <polyline fill="#404040" points="271.117 34.32 271.117 10.471 262.027 10.471 262.027 3.721 288.577 3.721 288.577 10.471 279.487 10.471 279.487 34.32 271.117 34.32"/>
    <path fill="#404040" d="M292.356 34.32L292.356 11.415C293.616 11.685 294.891 11.82 296.181 11.82 297.501 11.82 298.836 11.685 300.186 11.415L300.186 34.32 292.356 34.32M313.506 21.136L313.506 34.32 305.676 34.32 305.676 11.415 312.876 11.415 313.281 14.341C313.971 13.231 314.871 12.39 315.981 11.82 317.09 11.251 318.276 10.966 319.536 10.966 320.886 10.966 322.116 11.265 323.226 11.865 324.335 12.466 325.235 13.306 325.926 14.386 326.736 13.276 327.793 12.428 329.098 11.843 330.403 11.258 331.776 10.966 333.216 10.966 334.806 10.966 336.208 11.333 337.423 12.068 338.638 12.804 339.59 13.823 340.281 15.128 340.971 16.433 341.316 17.94 341.316 19.65L341.316 34.32 333.486 34.32 333.486 20.46C333.486 19.501 333.223 18.736 332.698 18.165 332.173 17.596 331.506 17.31 330.696 17.31 329.706 17.31 328.911 17.625 328.311 18.256 327.71 18.886 327.411 19.846 327.411 21.136L327.411 34.32 319.581 34.32 319.581 20.46C319.581 19.501 319.326 18.736 318.816 18.165 318.305 17.596 317.616 17.31 316.746 17.31 315.785 17.31 315.005 17.625 314.406 18.256 313.805 18.886 313.506 19.846 313.506 21.136M357.246 16.5C354.695 16.5 353.165 17.85 352.656 20.551L361.386 20.551C361.175 19.081 360.673 18.038 359.878 17.423 359.083 16.808 358.206 16.5 357.246 16.5zM367.956 31.98C366.815 32.79 365.368 33.481 363.613 34.051 361.858 34.62 359.991 34.905 358.011 34.905 355.28 34.905 352.948 34.403 351.013 33.398 349.078 32.393 347.593 30.99 346.558 29.19 345.523 27.39 345.006 25.32 345.006 22.98 345.006 20.611 345.516 18.511 346.536 16.681 347.555 14.851 348.966 13.418 350.766 12.383 352.565 11.348 354.665 10.83 357.065 10.83 359.406 10.83 361.468 11.333 363.253 12.338 365.038 13.344 366.433 14.738 367.438 16.523 368.443 18.308 368.946 20.401 368.946 22.801 368.946 23.131 368.923 23.475 368.878 23.835 368.833 24.195 368.78 24.571 368.721 24.96L352.746 24.96C353.466 27.6 355.43 28.921 358.641 28.921 360.081 28.921 361.355 28.695 362.466 28.245 363.575 27.796 364.505 27.346 365.256 26.895L367.956 31.98 367.956 31.98zM381.456 34.905C379.476 34.905 377.623 34.591 375.898 33.96 374.172 33.33 372.62 32.431 371.24 31.261L374.57 26.85C375.62 27.69 376.753 28.373 377.968 28.898 379.183 29.423 380.375 29.685 381.545 29.685 382.325 29.685 382.947 29.551 383.413 29.28 383.878 29.011 384.11 28.605 384.11 28.065 384.11 27.496 383.848 27.038 383.323 26.693 382.798 26.348 381.86 26.011 380.51 25.681L378.351 25.14C374.06 24.001 371.915 21.706 371.915 18.256 371.915 16.725 372.335 15.406 373.175 14.296 374.015 13.186 375.17 12.331 376.641 11.73 378.11 11.131 379.82 10.83 381.77 10.83 383.69 10.83 385.498 11.131 387.193 11.73 388.887 12.331 390.44 13.201 391.85 14.341L388.43 18.841C387.379 18.001 386.27 17.326 385.1 16.815 383.931 16.306 382.835 16.051 381.815 16.051 380.165 16.051 379.34 16.591 379.34 17.671 379.34 18.151 379.588 18.541 380.083 18.841 380.578 19.14 381.275 19.411 382.175 19.65L385.1 20.46C387.29 21.061 388.91 21.961 389.96 23.161 391.01 24.361 391.536 25.786 391.536 27.435 391.536 28.936 391.115 30.248 390.275 31.373 389.435 32.498 388.257 33.368 386.743 33.983 385.228 34.598 383.465 34.905 381.456 34.905"/>
    <path fill="#009BFF" d="M296.181,9.615 C294.891,9.615 293.789,9.158 292.874,8.243 C291.958,7.328 291.501,6.225 291.501,4.935 C291.501,3.646 291.958,2.543 292.874,1.628 C293.789,0.713 294.891,0.256 296.181,0.256 C297.471,0.256 298.573,0.713 299.489,1.628 C300.403,2.543 300.861,3.646 300.861,4.935 C300.861,6.225 300.403,7.328 299.489,8.243 C298.573,9.158 297.471,9.615 296.181,9.615"/>
  </g>
</svg>
