<svg id="Shreveport" xmlns="http://www.w3.org/2000/svg" xmlns:xlink="http://www.w3.org/1999/xlink" width="800" height="160" viewBox="0 0 800 160">
  <defs>
    <style>
      @font-face {
        font-family: 'Futura Today';
        src: url('../../fonts/FuturaToday/FuturaTodayNormal.otf');
        font-weight: normal;
      }

      .cls-1, .cls-2, .cls-3 {
        fill: #000;
      }

      .cls-1, .cls-3 {
        fill-rule: evenodd;
      }

      .cls-2 {
        font-size: 12.4px;
        text-anchor: middle;
        font-family: 'Futura Today';
        font-weight: 600;
      }

      .cls-3 {
        filter: url(#filter);
      }
    </style>
    <filter id="filter" x="432" y="105.969" width="367.969" height="16" filterUnits="userSpaceOnUse">
      <feFlood result="flood" flood-color="#999"/>
      <feComposite result="composite" operator="in" in2="SourceGraphic"/>
      <feBlend result="blend" in2="SourceGraphic"/>
    </filter>
  </defs>
  <path class="cls-1" d="M252.33,64.648H252.2c-0.188.3-.128,0.073-0.357,0.24-0.125.164-.249,0.327-0.366,0.484h-0.241c-0.126.162-.247,0.324-0.366,0.479h-0.246c-0.161.2-.313,0.4-0.485,0.6H249.9v0.124c-0.114.076-.234,0.167-0.355,0.24a2.3,2.3,0,0,0-.126.24h-0.241c-0.118.167-.241,0.319-0.364,0.479h-0.242c-0.115.168-.239,0.329-0.364,0.487h-0.24q-0.249.3-.488,0.6h-0.245c-0.116.157-.24,0.316-0.365,0.481h-0.247c-0.153.194-.312,0.4-0.471,0.6H245.91c-0.123.157-.241,0.316-0.367,0.484H245.3l-0.367.473H244.7c-0.161.208-.332,0.411-0.483,0.613h-0.247c-0.122.156-.249,0.317-0.366,0.474-0.116.038-.239,0.087-0.365,0.126V72h-0.119c0.288,0.24.57,0.48,0.85,0.727,0.119,0.164.247,0.318,0.365,0.484h0.242c0.279,0.316.571,0.638,0.85,0.959h0.243c0.036,0.078.081,0.167,0.118,0.238a4.684,4.684,0,0,0,1.209.97v34.945h-0.122c-0.365.393-.721,0.8-1.083,1.2h-0.24c-0.327.365-.649,0.729-0.97,1.086a4.272,4.272,0,0,0-1.338,1.209h-0.238a2.5,2.5,0,0,0,1.211,1.2c0.322,0.359.643,0.727,0.962,1.086h0.24c0.326,0.363.654,0.723,0.972,1.082h0.24c0.331,0.36.654,0.722,0.977,1.081a2.749,2.749,0,0,0,.362.122c0.244,0.278.489,0.569,0.724,0.851h0.245c0.16,0.191.318,0.392,0.482,0.6,0.164,0.119.328,0.236,0.488,0.363v0.122h0.234c0.244,0.276.485,0.556,0.731,0.838a3.361,3.361,0,0,1,.724.6,1.309,1.309,0,0,0,.606-0.357v-0.127h0.241c0.165-.193.33-0.4,0.489-0.6h0.234c0.119-.159.246-0.317,0.367-0.476h0.244c0.162-.2.323-0.414,0.484-0.6h0.244c0.119-.159.24-0.324,0.36-0.487h0.242c0.158-.2.321-0.4,0.487-0.6h0.242c0.119-.159.241-0.316,0.367-0.479h0.241c0.164-.2.324-0.407,0.482-0.608h0.241c0.164-.2.32-0.4,0.479-0.6h0.246c0.038-.09.086-0.158,0.125-0.246h0.119c0.037-.069.083-0.161,0.113-0.233H258.5c0.158-.2.32-0.4,0.481-0.6h0.248c0.118-.159.24-0.327,0.358-0.487h0.248c0.161-.207.317-0.4,0.476-0.6a0.5,0.5,0,0,1,.122-0.068h0.028a0.037,0.037,0,0,1,.02.01c0.014,0,.025,0,0.025.008a0.1,0.1,0,0,0,.046-0.023,1.427,1.427,0,0,0,.129-0.171H260.8a0.945,0.945,0,0,0-.247-0.479h-0.119v-0.242h-0.122c-0.075-.117-0.159-0.23-0.236-0.357-0.079-.043-0.167-0.082-0.24-0.116V112.97c-0.166-.119-0.327-0.24-0.488-0.365v-0.241c-0.165-.116-0.323-0.24-0.489-0.366v-0.234c-0.154-.12-0.315-0.245-0.475-0.361v-0.244c-0.21-.157-0.405-0.316-0.612-0.486-0.039-.117-0.08-0.232-0.125-0.352h-0.116c0-.537-0.033-1.164-0.033-1.761a6.687,6.687,0,0,1,.149-1.614V80.068c0-.624.021-1.317,0.016-1.987a12.225,12.225,0,0,0-.132-2.106c0.876-.711,1.619-1.619,2.413-2.406a6.018,6.018,0,0,0,1.22-1.09h0.118V72.362q-4.477-3.793-8.952-7.586V64.648ZM241.187,42.114c-0.595.165-.341,0.306-0.61,0.732a1.8,1.8,0,0,0-.235.121v0.241c-0.121.073-.247,0.154-0.367,0.232v0.24c-0.124.089-.241,0.163-0.355,0.248v0.236c-0.332.283-.654,0.568-0.972,0.843-0.081.124-.159,0.249-0.247,0.363h-0.242c-0.088.127-.16,0.24-0.246,0.367h-0.238c-0.086.113-.158,0.236-0.245,0.356h-0.246c-0.033.078-.07,0.162-0.115,0.244-0.248.081-.489,0.162-0.73,0.24-0.035.078-.076,0.157-0.115,0.245h-0.363v0.114h-0.243v0.114c-0.166.054-.324,0.087-0.482,0.13V47.3l-1.1.243v0.124h-0.481v0.121h-0.49V47.9h-0.6v0.121h-0.727v0.119a1.612,1.612,0,0,1-.533.054h-0.252a1.373,1.373,0,0,0-.311.067h-0.115V48.141H230.41v0.121h-2.78a0.222,0.222,0,0,0-.22-0.128h-0.034a0.449,0.449,0,0,0-.107.008v0.121h-0.126V48.141h-1.569V48.022a1.664,1.664,0,0,0-.249.119V48.022H224V47.9h-1.211V47.783h-0.968V47.662h-0.973c-1.287-.373-2.972-0.349-4.234-0.727-0.528-.044-1.048-0.076-1.572-0.114-1.413-.432-3.2-0.546-4.6-0.972-0.486-.043-0.961-0.079-1.449-0.113-1.308-.4-3.026-0.452-4.357-0.851-0.645-.033-1.286-0.078-1.946-0.129V44.646h-0.845V44.53h-1.086V44.4H199.42V44.283h-1.577a4.569,4.569,0,0,0-.6-0.083c-0.443-.037-1-0.048-1.577-0.048-0.546,0-1.1.011-1.571,0.011h-1.335v0.119a26.569,26.569,0,0,0-8.354,1.566c-0.239.046-.48,0.08-0.73,0.124v0.119h-0.236v0.124h-0.365v0.121c-0.158.04-.319,0.081-0.484,0.119v0.121h-0.36V46.7c-0.239.07-.487,0.157-0.724,0.233v0.114h-0.249v0.13h-0.241V47.3h-0.245v0.124h-0.236l-0.244.243h-0.244c-0.039.086-.072,0.156-0.117,0.239-0.162.04-.324,0.078-0.491,0.121-0.04.076-.075,0.154-0.12,0.24-0.156.037-.32,0.089-0.481,0.116a2.527,2.527,0,0,1-.12.248h-0.241a2.408,2.408,0,0,1-.126.24h-0.234c-0.083.119-.163,0.248-0.249,0.359h-0.241c-0.087.124-.158,0.245-0.244,0.368h-0.244a2.263,2.263,0,0,1-.118.235c-0.123.044-.241,0.078-0.359,0.121-0.162.2-.326,0.4-0.492,0.606h-0.241c-0.482.517-.96,1.044-1.448,1.567-0.407.365-.806,0.719-1.211,1.083v0.243c-0.166.113-.325,0.235-0.486,0.352v0.248c-0.123.076-.241,0.167-0.37,0.238v0.241c-0.112.081-.228,0.159-0.353,0.248v0.24a2.25,2.25,0,0,0-.241.119v0.24h-0.127c-0.038.121-.081,0.241-0.117,0.36a1.9,1.9,0,0,0-.242.126V56.1c-0.128.076-.245,0.156-0.362,0.24v0.241c-0.088.041-.159,0.078-0.244,0.117v0.238c-0.089.048-.163,0.078-0.246,0.121-0.073.247-.153,0.487-0.239,0.727-0.084.04-.159,0.086-0.239,0.116-0.077.244-.169,0.484-0.252,0.732H169.64v0.235h-0.127v0.248H169.4v0.236h-0.124v0.24h-0.123v0.248h-0.118c-0.038.2-.083,0.394-0.118,0.6H168.8c-0.046.159-.086,0.321-0.124,0.479h-0.117v0.364h-0.129c-0.045.159-.084,0.318-0.118,0.476h-0.123c-0.043.251-.078,0.486-0.119,0.725-0.088.044-.16,0.081-0.246,0.127-0.032.238-.08,0.478-0.116,0.725h-0.13v0.356h-0.117v0.359h-0.118v0.363h-0.123v0.368H167.1v0.351h-0.129v0.484h-0.12v0.372h-0.116a2.689,2.689,0,0,1-.246.96v0.594c0.611,0.24,1.216.487,1.82,0.73,1.791-4,4-7.582,7.389-10.006,0.112-.157.233-0.313,0.355-0.479,0.119-.038.245-0.081,0.366-0.119,0.041-.081.083-0.167,0.119-0.246h0.244a2.529,2.529,0,0,0,.118-0.241c0.169-.035.33-0.075,0.485-0.121,0.042-.073.086-0.154,0.125-0.235,0.119-.04.245-0.086,0.36-0.124V56.578h0.249l0.234-.241H178.6V56.219h0.236V56.1h0.245V55.972h0.236V55.857c0.248-.086.5-0.159,0.728-0.245v-0.12h0.368V55.371h0.236V55.252c0.249-.043.49-0.081,0.73-0.121V55.013h0.246V54.887c0.278-.041.557-0.076,0.845-0.114V54.649h0.361V54.525c0.363-.038.725-0.081,1.092-0.116,0.96-.3,2.322-0.4,3.388-0.611,0.156,0.051.323,0.086,0.483,0.122V53.8a3.944,3.944,0,0,1,.815-0.068c0.335,0,.7.022,1.035,0.049a9.014,9.014,0,0,1,.938.141,2.205,2.205,0,0,0,.63.063h0.349c0.072,0,.147-0.006.221-0.006a1.432,1.432,0,0,1,.975.189h1.091v0.118c-0.158.083-.324,0.16-0.487,0.241-0.036.081-.071,0.159-0.115,0.248H193c-0.041.073-.081,0.159-0.119,0.24h-0.241c-0.042.081-.08,0.159-0.115,0.24h-0.25l-0.241.36H191.8c-0.086.119-.166,0.245-0.241,0.359h-0.249c-0.118.159-.242,0.321-0.359,0.489H190.7l-0.362.473H190.1c-0.123.167-.243,0.33-0.361,0.483h-0.25c-0.117.165-.233,0.327-0.359,0.481h-0.238c-0.161.206-.323,0.406-0.484,0.611h-0.241c-0.324.356-.648,0.724-0.972,1.079h-0.245c-0.2.248-.4,0.487-0.609,0.727-0.4.321-.8,0.638-1.2,0.962v0.236c-0.082.043-.165,0.081-0.243,0.127-0.2.236-.405,0.476-0.606,0.724l-1.454,1.322v0.24c-0.243.2-.479,0.4-0.726,0.6v0.248c-0.163.111-.319,0.232-0.48,0.351v0.245c-0.166.121-.324,0.24-0.486,0.36v0.251c-0.125.07-.241,0.154-0.37,0.232v0.24c-0.12.081-.236,0.162-0.356,0.245v0.244c-0.167.114-.322,0.235-0.485,0.354a3.69,3.69,0,0,0-.116.367c-0.085.041-.168,0.075-0.247,0.113v0.248c-0.08.04-.168,0.078-0.248,0.121-0.036.122-.075,0.243-0.116,0.359h-0.12c-0.046.157-.084,0.321-0.119,0.487a2.728,2.728,0,0,0-.246.119c-0.041.121-.083,0.24-0.116,0.357h-0.125c-0.036.16-.081,0.324-0.126,0.483-0.075.044-.156,0.076-0.234,0.124-0.046.159-.083,0.321-0.125,0.479-0.086.044-.162,0.083-0.239,0.114-0.083.249-.162,0.489-0.245,0.727-0.083.041-.158,0.084-0.241,0.125-0.083.235-.161,0.479-0.246,0.719-0.087.043-.156,0.087-0.241,0.124v0.244h-0.118v0.24h-0.126V73.21c-0.078.03-.162,0.076-0.24,0.116v0.359H176.17c-0.031.163-.075,0.325-0.119,0.484h-0.122v0.354h-0.121c-0.039.171-.071,0.33-0.112,0.487h-0.125l-1.814,5.662v0.6c-0.19.583-.308,1.459-0.487,2.049v0.962A9.889,9.889,0,0,0,173,86.992c0,0.671.029,1.359,0.029,2a25.869,25.869,0,0,0,1.2,8.43V97.91h0.134v0.359h0.117v0.48H174.6c0.036,0.245.076,0.482,0.129,0.722h0.116v0.241h0.125c0.036,0.248.075,0.487,0.116,0.724h0.126v0.357h0.12v0.246h0.116V101.4h0.124v0.244H175.7c0.041,0.2.073,0.4,0.112,0.6h0.121c0.08,0.245.166,0.485,0.241,0.724H176.3v0.238h0.121v0.24h0.119v0.248h0.126v0.235h0.118v0.239l0.241,0.24v0.244c0.118,0.083.246,0.167,0.362,0.24,0.042,0.152.086,0.329,0.125,0.48,0.083,0.042.162,0.088,0.245,0.123,0.037,0.162.077,0.326,0.115,0.484a2.372,2.372,0,0,1,.247.124v0.24a2.687,2.687,0,0,1,.241.119V106.7c0.077,0.043.156,0.075,0.241,0.127v0.24a2.236,2.236,0,0,0,.241.114v0.246c0.126,0.08.242,0.162,0.365,0.239v0.244c0.08,0.043.166,0.078,0.236,0.114v0.24c0.126,0.094.246,0.165,0.367,0.249,0.041,0.114.086,0.24,0.124,0.364,0.276,0.239.565,0.474,0.841,0.719v0.241c0.33,0.281.647,0.56,0.972,0.838v0.241c0.321,0.292.65,0.567,0.965,0.85,0.125,0.157.243,0.32,0.366,0.484h0.244l0.484,0.6h0.241c0.251,0.278.488,0.554,0.726,0.836h0.244c0.158,0.2.316,0.4,0.486,0.6h0.241c0.083,0.117.161,0.246,0.244,0.361h0.241c0.038,0.085.08,0.17,0.118,0.242,0.121,0.044.242,0.082,0.362,0.122v0.127h0.241c0.083,0.113.162,0.232,0.245,0.352h0.241c0.037,0.089.085,0.162,0.121,0.248,0.125,0.035.243,0.073,0.364,0.119v0.114h0.247a1.2,1.2,0,0,0,.12.24c0.12,0.049.247,0.081,0.363,0.13v0.119c0.241,0.078.482,0.159,0.721,0.24,0.045,0.081.083,0.159,0.125,0.239,0.233,0.083.486,0.159,0.725,0.24,0.039,0.083.079,0.164,0.122,0.24h0.244l0.24,0.24h0.246v0.12h0.236v0.122h0.249v0.126c0.234,0.071.481,0.163,0.721,0.233v0.122c0.2,0.037.405,0.086,0.61,0.124v0.119h0.233v0.129h0.369v0.111h0.242V119h0.364v0.111h0.237v0.128l2.544,0.718v0.117c0.482,0.086.968,0.167,1.455,0.249v0.115c1.376,0.239,2.748.484,4.117,0.723l1.074,0.108c0.347,0.026.687,0.049,0.922,0.049a0.64,0.64,0,0,0,.3-0.038h0.126v0.127h1.324c1.029,0,2.456.032,3.308-.055a3.4,3.4,0,0,0,.448-0.072h1.212V121.16h1.212v-0.12h0.847v-0.119h0.722V120.8h0.611v-0.123h0.606v-0.117h0.6v-0.122h0.482v-0.115h0.488V120.2h0.483v-0.127H217.7v-0.117h0.364v-0.119h0.362v-0.12c0.405-.087.807-0.158,1.212-0.239v-0.124h0.233v-0.116c0.244-.051.485-0.086,0.726-0.128V119h0.248V118.87c0.243-.038.488-0.081,0.723-0.111V118.63c0.172-.038.327-0.081,0.489-0.119v-0.124h0.367v-0.122h0.241v-0.117c0.158-.045.319-0.078,0.482-0.116v-0.126h0.245v-0.122h0.236v-0.12h0.243v-0.12h0.241v-0.12h0.25v-0.119H224.6v-0.121h0.247v-0.119h0.241l0.239-.24h0.243a2.575,2.575,0,0,1,.124-0.246c0.244-.069.485-0.161,0.721-0.233,0.043-.081.081-0.168,0.126-0.244,0.164-.038.317-0.081,0.48-0.126,0.043-.079.083-0.16,0.116-0.233h0.249c0.035-.086.088-0.159,0.12-0.248h0.241c0.035-.079.081-0.151,0.121-0.239h0.24a2.357,2.357,0,0,0,.122-0.24h0.25l0.115-.245h0.241c0.046-.08.076-0.161,0.127-0.234H229.2c0.082-.129.161-0.246,0.247-0.369h0.235a1.5,1.5,0,0,0,.115-0.239h0.25c0.118-.158.238-0.312,0.361-0.472h0.24c0.209-.243.4-0.487,0.614-0.727H231.5c0.152-.2.324-0.4,0.488-0.606h0.241c0.644-.681,1.284-1.37,1.926-2.045,0.251-.2.492-0.409,0.732-0.6v-0.24c0.318-.286.64-0.568,0.978-0.846v-0.246c0.155-.121.313-0.235,0.472-0.36V107.54c0.169-.115.325-0.235,0.482-0.361v-0.233c0.089-.044.172-0.081,0.24-0.121v-0.239c0.128-.084.249-0.172,0.369-0.243V106.1c0.087-.044.159-0.087,0.245-0.124,0.01-.034.023-0.065,0.034-0.1,0-.01.008-0.018,0.011-0.028h0l0.081-.235h0.113v-0.247c0.086-.031.158-0.081,0.246-0.12v-0.239c0.086-.038.161-0.08,0.242-0.121,0.04-.119.088-0.24,0.123-0.359h0.124v-0.244c0.077-.038.155-0.073,0.249-0.121,0.069-.239.152-0.474,0.227-0.722,0.083-.038.164-0.081,0.255-0.119v-0.244l0.241-.232v-0.245h0.114v-0.242h0.117v-0.24h0.124v-0.24h0.12v-0.243h0.126V101.4h0.121v-0.24h0.12c0.043-.2.078-0.4,0.115-0.6H240.7c0.051-.158.089-0.32,0.128-0.473h0.119V99.711h0.12V99.47h0.124V99.106h0.123c0.037-.159.077-0.325,0.115-0.478h0.12c0.043-.232.09-0.487,0.126-0.719h0.122V97.544h0.118V97.181h0.123V96.822h0.123V96.456h0.124V96.1H242.4c0.042-.329.078-0.646,0.123-0.971a2.555,2.555,0,0,0,.241-0.965,2.375,2.375,0,0,1-1.218-.235h-0.6c-0.323.517-.646,1.037-0.968,1.565v0.238h-0.124c-0.035.122-.074,0.241-0.117,0.368a1.669,1.669,0,0,0-.239.113v0.24c-0.081.043-.169,0.081-0.242,0.127-0.046.159-.086,0.316-0.129,0.484-0.075.035-.158,0.078-0.227,0.114v0.241a2.19,2.19,0,0,0-.249.122v0.24c-0.159.125-.328,0.24-0.489,0.357V98.4c-0.118.073-.246,0.149-0.359,0.232v0.244c-0.125.075-.246,0.157-0.37,0.233v0.246a3.99,3.99,0,0,0-.361.244v0.24c-0.121.076-.248,0.16-0.366,0.242v0.24c-0.195.157-.4,0.314-0.6,0.473v0.246c-0.571.526-1.129,1.051-1.7,1.568l-1.692,1.8H232.47c-0.116.171-.239,0.327-0.365,0.484h-0.238c-0.124.152-.242,0.329-0.365,0.48h-0.241c-0.124.166-.245,0.328-0.365,0.482h-0.249a1.577,1.577,0,0,1-.115.249h-0.245c-0.077.124-.165,0.24-0.238,0.359H229.8a2.528,2.528,0,0,1-.115.236c-0.115.043-.235,0.075-0.359,0.127v0.121c-0.166.038-.325,0.078-0.491,0.119-0.038.078-.083,0.157-0.121,0.24-0.16.043-.319,0.078-0.485,0.12a2.152,2.152,0,0,1-.122.239c-0.153.038-.326,0.09-0.481,0.119-0.042.084-.086,0.168-0.121,0.239-0.241.088-.485,0.168-0.726,0.24v0.127h-0.239v0.122H226.3v0.114c-0.241.093-.488,0.161-0.73,0.25v0.117h-0.359v0.122c-0.161.035-.33,0.077-0.49,0.121v0.114h-0.357v0.126h-0.25v0.119h-0.364v0.123h-0.241v0.118c-0.241.043-.482,0.075-0.721,0.119v0.125h-0.362V110.2h-0.367v0.124H221.7v0.12h-0.49v0.115c-0.448.087-.89,0.158-1.341,0.244v-4.7h0.008V58.021c1.313,0.008,3.156.311,4.928,0.311a10.7,10.7,0,0,0,1.726-.119,7.816,7.816,0,0,0,.856-0.192c0.52-.035,1.049-0.073,1.572-0.124V57.781h0.482V57.662h0.482V57.541h0.485V57.416H230.9V57.3h0.365V57.175h0.364V57.054h0.36c2.9-1.27,5.517-2.768,7.268-5.173,0.161-.121.319-0.249,0.481-0.363v-0.24c0.082-.046.155-0.081,0.241-0.124,0.043-.125.082-0.245,0.12-0.356h0.126c0.04-.163.076-0.329,0.121-0.494a2.048,2.048,0,0,0,.235-0.115V49.948l0.247-.24v-0.24h0.119V49.224h0.12v-0.24h0.124V48.74c0.08-.032.16-0.076,0.238-0.114V48.262h0.12v-0.24h0.126c0.033-.2.084-0.406,0.122-0.6h0.118V46.935a11.665,11.665,0,0,0,.852-4.184V42.6c-0.534-.127-1.059-0.24-1.576-0.364V42.114Zm-42.83,65.207v0a0.358,0.358,0,0,1-.056.037,0.107,0.107,0,0,1-.024.021,0.118,0.118,0,0,0-.04.036,0.07,0.07,0,0,0-.032.019,0.051,0.051,0,0,0-.03.024,0.217,0.217,0,0,0-.053.029,0.168,0.168,0,0,0-.03.027c-0.009.007-.033,0.019-0.048,0.028a0.063,0.063,0,0,0-.029.01,0.1,0.1,0,0,1-.057.038c0,0.008,0,.009-0.014.012a0.3,0.3,0,0,1-.067.04,0.038,0.038,0,0,0-.015.01,0.4,0.4,0,0,1-.076.033l0,0.005c-0.029.017-.057,0.028-0.086,0.046a0.416,0.416,0,0,1-.091.043v0.125h-0.123v-0.125c-0.124-.029-0.245-0.081-0.363-0.119V107.54h-0.243c-0.038-.078-0.076-0.157-0.118-0.235-0.166-.042-0.327-0.083-0.486-0.126-0.038-.071-0.083-0.155-0.118-0.233-0.243-.081-0.488-0.173-0.731-0.248-0.08-.112-0.159-0.236-0.241-0.355-0.122-.045-0.24-0.081-0.363-0.116V106.1h-0.242c-0.063-.087-0.12-0.168-0.187-0.249h0c-0.061-.078-0.12-0.156-0.177-0.235a8.682,8.682,0,0,0-1.686-1.451v-0.239h-0.25v-0.12c-0.365-.32-0.721-0.645-1.088-0.958v-0.245c-0.284-.242-0.568-0.482-0.848-0.722v-0.243c-0.2-.163-0.4-0.317-0.6-0.484v-0.24c-0.206-.158-0.407-0.317-0.609-0.482V100.2c-0.12-.081-0.238-0.166-0.359-0.239V99.711c-0.083-.043-0.167-0.081-0.241-0.114V99.352c-0.122-.082-0.242-0.159-0.363-0.246-0.045-.159-0.083-0.325-0.12-0.478-0.086-.038-0.164-0.083-0.247-0.121v-0.24c-0.08-.038-0.16-0.084-0.239-0.127V97.91c-0.088-.051-0.163-0.078-0.244-0.125-0.082-.24-0.158-0.476-0.238-0.718-0.089-.043-0.161-0.086-0.245-0.126V96.7l-0.245-.249v-0.24h-0.121v-0.24c-0.078-.035-0.159-0.087-0.237-0.119-0.045-.156-0.085-0.329-0.131-0.486h-0.115c-0.08-.24-0.158-0.484-0.239-0.717h-0.123V94.3H185.5c-0.041-.165-0.083-0.33-0.121-0.49h-0.124V93.451h-0.118v-0.24h-0.123c-0.042-.243-0.081-0.483-0.12-0.732h-0.124v-0.36h-0.121V91.762h-0.117V91.394h-0.126V91.035h-0.118v-0.48c-0.205-.6-0.414-1.422-0.612-2.049V87.783h-0.117V87.06h-0.119V86.216h-0.12v-1.2H183.2v-1.7h-0.122a1.8,1.8,0,0,1-.066-0.522,15.147,15.147,0,0,1,.188-1.527V79.589h0.123V78.264h0.12V77.419h0.119V76.581h0.117V75.857H183.8V75.135h0.123V74.522h0.12V74.049h0.121V73.568h0.121v-0.6q0.723-2.176,1.455-4.341h0.122V68.387h0.117V68.024H186.1V67.776h0.131c0.036-.156.078-0.311,0.11-0.479h0.127v-0.24h0.121v-0.24h0.12v-0.24h0.125V66.335h0.116V66.1h0.129V65.851h0.116v-0.24h0.122v-0.24h0.119V65.127l0.246-.24v-0.24c0.08-.037.161-0.076,0.239-0.119,0.078-.233.163-0.484,0.246-0.729,0.071-.037.161-0.07,0.241-0.114V63.441h0.122V63.208h0.121c0.037-.125.08-0.246,0.12-0.365,0.078-.038.16-0.078,0.239-0.124V62.478c0.08-.036.161-0.076,0.246-0.114V62.116c0.161-.113.324-0.24,0.483-0.364v-0.24c0.082-.033.164-0.078,0.238-0.116V61.149c0.167-.117.324-0.236,0.483-0.355V60.549c0.164-.116.33-0.235,0.491-0.356v-0.24c0.276-.24.563-0.487,0.849-0.722v-0.24c0.073-.046.164-0.079,0.239-0.129,0.081-.116.161-0.235,0.241-0.356h0.25c0.035-.086.073-0.16,0.115-0.248h0.118c0.322-.363.647-0.719,0.966-1.086h0.244c0.155-.194.329-0.4,0.487-0.6,0.12-.041.249-0.076,0.362-0.117a2.635,2.635,0,0,1,.123-0.241h0.247a1.413,1.413,0,0,1,.12-0.248c0.114-.038.24-0.081,0.362-0.114V55.732h0.24c0.039-.09.077-0.159,0.118-0.239h0.243c0.041-.083.086-0.162,0.123-0.24h0.24a1.371,1.371,0,0,0,.114-0.24c0.25-.081.494-0.167,0.733-0.24,0.038-.089.083-0.167,0.123-0.248,0.239-.081.488-0.159,0.726-0.241V54.167c3.826,0.679,7.668,1.368,11.5,2.052V56.46a2.671,2.671,0,0,0-.848.473h-0.239c-0.044.078-.087,0.167-0.125,0.241H208.38c-0.04.089-.083,0.162-0.119,0.241-0.169.044-.327,0.079-0.488,0.125-0.039.081-.082,0.159-0.125,0.24h-0.234c-0.043.086-.086,0.167-0.129,0.24-0.233.083-.482,0.162-0.724,0.24-0.037.087-.082,0.162-0.125,0.248-0.159.035-.319,0.081-0.477,0.121-0.043.078-.081,0.157-0.115,0.235-0.172.049-.328,0.083-0.5,0.129-0.037.076-.082,0.162-0.117,0.24-0.167.038-.327,0.072-0.49,0.116-0.028.075-.081,0.162-0.114,0.24h-0.241l-0.247.248h-0.248v0.119h-0.236c-0.04.078-.081,0.156-0.126,0.24h-0.239v0.121h-0.238c-0.038.073-.081,0.159-0.124,0.235h-0.247l-0.235.244H202.2v0.119h-0.243c-0.041.081-.08,0.168-0.124,0.236H201.6l-0.242.248h-0.239v0.116h-0.243c-0.043.081-.086,0.162-0.122,0.24-0.162.043-.327,0.089-0.484,0.124l-0.24.24h-0.249c-0.035.086-.072,0.16-0.117,0.248H199.42l-0.239.241h-0.24v0.114h-0.252v0.124h-0.24a2.65,2.65,0,0,1-1.207.6,2.146,2.146,0,0,0,.362,1.335v0.232a7.316,7.316,0,0,0,1.694.364,2.759,2.759,0,0,0,.729.479,0.877,0.877,0,0,0,.24.484h0.12v0.243c0.088,0.038.156,0.076,0.242,0.121,0.158,0.479.327,0.965,0.487,1.446V69.11h0.119V97.416a14.93,14.93,0,0,1-.119,2.421c-0.086.922-.16,1.847-0.243,2.769a16.161,16.161,0,0,1-1.411,3.434A4.577,4.577,0,0,1,198.357,107.321Zm20.069,3.955h-0.119a1.484,1.484,0,0,1-.916.184c-0.048,0-.1,0-0.139,0h-0.338a2.78,2.78,0,0,0-.673.063,6.654,6.654,0,0,1-1.111.253,16.534,16.534,0,0,1-2.386.112h-0.857c-0.887-.04-1.772-0.086-2.662-0.12v-0.12c-0.075.032-.165,0.081-0.24,0.12v-0.12h-0.846v-0.125h-0.73V111.4h-0.724v-0.127h-0.606v-0.117H205.6v-0.122h-0.482v-0.123c-0.69-.16-1.378-0.32-2.061-0.473v-0.12h-0.248V110.2c-0.358-.081-0.715-0.162-1.083-0.243v-0.119c-0.163-.043-0.329-0.083-0.487-0.118v-0.123h-0.36v-0.119c-0.608-.24-1.214-0.483-1.82-0.724v-0.24c0.126-.043.243-0.084,0.365-0.122v-0.127h0.241a1.487,1.487,0,0,0,.117-0.24c0.249-.071.489-0.155,0.732-0.239,0.033-.081.079-0.158,0.115-0.243h0.25c0.037-.078.075-0.157,0.12-0.235,0.24-.083.485-0.162,0.727-0.24v-0.119c0.119-.044.239-0.081,0.368-0.121a1.755,1.755,0,0,1,.114-0.239c0.157-.053.32-0.084,0.478-0.124,0.049-.081.084-0.164,0.123-0.235a4.88,4.88,0,0,1,.486-0.124c0.051-.087.081-0.163,0.125-0.249,0.159-.033.32-0.073,0.476-0.114,0.047-.083.091-0.167,0.128-0.245,0.164-.035.322-0.081,0.488-0.123a2.562,2.562,0,0,1,.12-0.232,4.768,4.768,0,0,1,.481-0.127c0.039-.08.077-0.156,0.123-0.24,0.155-.038.314-0.076,0.483-0.121,0.038-.073.08-0.161,0.129-0.244h0.23c0.043-.076.085-0.157,0.128-0.24,0.234-.073.483-0.157,0.721-0.239,0.046-.085.081-0.158,0.129-0.235,0.115-.046.233-0.081,0.362-0.127v-0.121c0.234-.081.481-0.162,0.725-0.24,0.043-.082.077-0.154,0.122-0.238H208.5v-0.117h0.251a1.279,1.279,0,0,1,.114-0.245c0.125-.033.243-0.085,0.365-0.117v-0.125c0.248-.081.488-0.159,0.723-0.24,0.053-.081.081-0.164,0.124-0.24h0.238c0.048-.082.081-0.159,0.124-0.243,0.249-.077.482-0.163,0.731-0.244,0.038-.073.081-0.159,0.119-0.24h0.243v-0.119c0.124-.04.239-0.084,0.36-0.121V56.578a9.588,9.588,0,0,1,2.421.476c0.52,0.086,1.054.167,1.574,0.247v0.114c0.445,0.044.889,0.079,1.33,0.125v0.121c0.4,0.081.81,0.159,1.214,0.235v53.379Zm27-56.389c0.165,0.206.324,0.4,0.484,0.6h0.243c0.2,0.239.4,0.479,0.6,0.727H247c0.2,0.241.41,0.476,0.611,0.714h0.24l0.611,0.729h0.235c0.2,0.235.405,0.479,0.6,0.719h0.251c0.2,0.248.4,0.483,0.6,0.73h0.244c0.208,0.236.407,0.476,0.606,0.724a1.513,1.513,0,0,1,.729.6,1.4,1.4,0,0,0,.85-0.359,2.1,2.1,0,0,1,.12-0.24h0.242c0.082-.121.16-0.248,0.234-0.368h0.246c0.121-.164.241-0.313,0.365-0.475h0.238c0.085-.129.169-0.244,0.244-0.363h0.246c0.119-.167.24-0.325,0.36-0.488h0.242c0.125-.155.244-0.32,0.366-0.479,0.121-.04.241-0.081,0.37-0.121,0.03-.081.073-0.157,0.112-0.24H256.2c0.118-.162.242-0.32,0.359-0.482,0.124-.04.247-0.086,0.362-0.124a2.469,2.469,0,0,0,.126-0.235h0.241c0.119-.168.242-0.33,0.358-0.489h0.241c0.13-.163.249-0.33,0.37-0.479H258.5c0.084-.121.158-0.24,0.24-0.36h0.248c0.116-.162.241-0.321,0.359-0.483h0.24V54.284H259.47c-0.167-.194-0.325-0.4-0.481-0.6h-0.248c-0.2-.235-0.4-0.478-0.6-0.717h-0.249c-0.2-.243-0.4-0.478-0.6-0.724h-0.241c-0.2-.248-0.4-0.479-0.605-0.722H256.2c-0.2-.24-0.4-0.489-0.606-0.719h-0.243c-0.2-.244-0.4-0.494-0.606-0.727h-0.24c-0.2-.244-0.405-0.479-0.611-0.724h-0.241c-0.2-.235-0.4-0.483-0.6-0.722h-0.236c-0.123-.157-0.243-0.327-0.361-0.484-0.674.1-.378,0.232-0.732,0.484-0.124.038-.241,0.082-0.367,0.114-0.033.09-.086,0.162-0.115,0.245h-0.247c-0.119.157-.234,0.321-0.365,0.484h-0.241c-0.123.162-.244,0.317-0.365,0.479h-0.234c-0.082.124-.163,0.243-0.241,0.357H249.3c-0.116.165-.234,0.33-0.357,0.494-0.123.03-.245,0.073-0.365,0.111a2.492,2.492,0,0,0-.115.245h-0.249c-0.116.159-.24,0.321-0.362,0.478h-0.24c-0.126.16-.246,0.327-0.371,0.489l-0.365.119c-0.038.086-.076,0.159-0.121,0.246h-0.241c-0.119.157-.234,0.316-0.356,0.478H245.91c-0.078.124-.16,0.24-0.241,0.355h-0.243c-0.043.084-.084,0.162-0.122,0.24-0.241.17-.487,0.325-0.728,0.487A1.566,1.566,0,0,0,245.426,54.887Zm158.958,6.144V60.794h-0.362A4.467,4.467,0,0,1,403.413,62v0.24a2.239,2.239,0,0,0-.241.121c-0.086.241-.164,0.479-0.246,0.719-0.078.043-.154,0.081-0.241,0.125-0.033.16-.082,0.316-0.116,0.478-0.089.044-.163,0.078-0.244,0.114v0.245a2.283,2.283,0,0,1-.246.121v0.243a2.26,2.26,0,0,1-.24.121v0.248a2.622,2.622,0,0,0-.241.111v0.24c-0.082.038-.163,0.087-0.246,0.125v0.233a1.14,1.14,0,0,1-.241.125v0.24c-0.119.079-.234,0.167-0.36,0.244V66.34c-0.168.114-.322,0.238-0.482,0.359v0.244c-0.084.033-.159,0.075-0.245,0.114-0.163.21-.326,0.408-0.485,0.606h-0.247c-0.027.075-.082,0.16-0.115,0.241h-0.244a1.749,1.749,0,0,1-.125.24c-0.154.037-.318,0.081-0.481,0.122v0.121H397.96V68.5H397.6v0.126h-0.362v0.119h-0.722v0.119a2.333,2.333,0,0,1-.633.071,11.274,11.274,0,0,1-1.667-.191,0.362,0.362,0,0,1-.107.038,1.172,1.172,0,0,1-.238.014,5.584,5.584,0,0,1-1-.109,17.234,17.234,0,0,1-1.92-.424c-0.322-.041-0.657-0.086-0.971-0.122V68.024h-0.49V67.9h-0.366V67.776h-0.364V67.663H388.4V67.545h-0.362V67.421h-0.356V67.3c-0.246-.03-0.489-0.073-0.73-0.125V67.057h-0.241V66.943H386.34V66.817H386.1V66.7h-0.372V66.578c-0.15-.043-0.312-0.078-0.481-0.124V66.34h-0.359V66.214h-0.246V66.1h-0.236V65.983h-0.241V65.851H383.93V65.732h-0.248a20.381,20.381,0,0,0-1.82-.956q-1.026,1.136-2.056,2.281c-0.156.114-.327,0.24-0.478,0.363v0.243c-0.535.481-1.056,0.965-1.586,1.446-0.523.557-1.043,1.122-1.572,1.681h-0.241c-0.084.125-.158,0.246-0.241,0.365h-0.244c-0.043.078-.072,0.162-0.121,0.238h-0.244c-0.038.084-.078,0.16-0.108,0.246-0.133.038-.254,0.078-0.366,0.119v0.121c-0.167.038-.327,0.087-0.489,0.119-0.045.082-.081,0.159-0.117,0.24h-0.245l-0.241.24h-0.246v0.128h-0.239v0.119h-0.245v0.121h-0.246V72.97c-0.236.073-.477,0.151-0.721,0.24v0.116h-0.362v0.121c-0.163.041-.322,0.079-0.482,0.119v0.119c-0.242.043-.493,0.083-0.73,0.126v0.113h-0.234v0.127c-0.613.192-1.219,0.4-1.825,0.6V94.654q5.27,3.14,10.532,6.263a4.887,4.887,0,0,1-.973,1.447v0.242c-0.076.034-.158,0.083-0.234,0.121v0.241c-0.083.041-.163,0.076-0.244,0.119-0.045.119-.083,0.248-0.118,0.359h-0.123v0.24c-0.088.046-.161,0.085-0.25,0.123v0.24c-0.074.043-.16,0.081-0.236,0.119v0.245c-0.083.043-.157,0.078-0.246,0.12v0.24c-0.083.038-.156,0.084-0.241,0.119v0.244c-0.081.037-.153,0.08-0.241,0.116V105.5c-0.081.04-.159,0.086-0.245,0.124v0.235c-0.073.044-.163,0.081-0.241,0.125v0.243c-0.073.04-.158,0.078-0.244,0.121-0.038.119-.078,0.24-0.108,0.359h-0.133v0.244c-0.078.038-.159,0.078-0.233,0.119v0.24c-0.084.043-.167,0.078-0.248,0.12v0.239c-0.079.038-.16,0.09-0.241,0.119-0.045.12-.081,0.239-0.117,0.366H373.87v0.24c-0.076.038-.164,0.079-0.236,0.122v0.24c-0.081.035-.167,0.078-0.249,0.119v0.244c-0.078.035-.156,0.077-0.24,0.112v0.249c-0.077.035-.15,0.071-0.241,0.119v0.241c-0.077.043-.16,0.075-0.241,0.119V110.2c-0.082.035-.158,0.073-0.247,0.119v0.235a2.272,2.272,0,0,1-.243.117c-0.035.127-.078,0.241-0.113,0.364h-0.124v0.242c-0.082.04-.16,0.083-0.24,0.124v0.237c-0.086.036-.154,0.085-0.242,0.124-0.046.114-.084,0.234-0.128,0.36h-0.121v0.24c-0.073.038-.159,0.09-0.233,0.119v0.247a1.243,1.243,0,0,0-.242.121c-0.045.111-.083,0.24-0.123,0.359h-0.128v0.244a1.714,1.714,0,0,0-.237.121v0.239a2.416,2.416,0,0,0-.234.115v0.239c-0.088.051-.169,0.086-0.248,0.123v0.239c-0.089.049-.161,0.08-0.244,0.122-0.043.118-.086,0.243-0.121,0.364h-0.12v0.24c-0.086.038-.164,0.088-0.245,0.119v0.244c-0.081.038-.16,0.084-0.241,0.124v0.233c-0.081.045-.163,0.088-0.241,0.122v0.248a1.34,1.34,0,0,0-.24.119c-0.044.114-.08,0.244-0.125,0.36h-0.124v0.24c-0.082.038-.16,0.076-0.243,0.116v0.243c-0.072.044-.161,0.076-0.236,0.12v0.24c-0.084.046-.166,0.086-0.242,0.122v0.242c-0.083.047-.171,0.085-0.243,0.119v0.239c-0.081.043-.162,0.086-0.24,0.124v0.24c-0.082.038-.168,0.086-0.246,0.129a0.139,0.139,0,0,0-.006.019,0.149,0.149,0,0,0-.013.028,0.282,0.282,0,0,1-.046.114v0.016c-0.02.064-.036,0.119-0.055,0.178h-0.121V119.6a1.99,1.99,0,0,0-.245.12v0.239c-0.085.039-.154,0.079-0.248,0.117v0.249c-0.07.037-.154,0.072-0.236,0.115a1.981,1.981,0,0,0-.368.965,0.8,0.8,0,0,1,.6.481,1.064,1.064,0,0,0,.493-0.266v0a0.236,0.236,0,0,1,.026-0.017c0.024-.021.057-0.053,0.095-0.086V121.4h0.233c0.051-.077.082-0.158,0.133-0.242h0.119c0.04-.074.074-0.163,0.121-0.239h0.243a1.762,1.762,0,0,1,.124-0.245H367.7c0.082-.117.16-0.239,0.235-0.354,0.172-.044.331-0.092,0.486-0.127,0.045-.079.086-0.16,0.129-0.239,0.16-.043.322-0.08,0.482-0.119,0.038-.081.081-0.164,0.121-0.24,0.16-.038.322-0.091,0.486-0.119v-0.124h0.245v-0.116c0.24-.09.486-0.163,0.725-0.239V118.87c1.042-.321,2.094-0.637,3.147-0.964,0.65-.036,1.287-0.076,1.934-0.122v-0.12q0.608,0.063,1.217.12v-0.12a0.229,0.229,0,0,1,.241.12h1.2v0.122c0.449,0.043.894,0.077,1.339,0.126v0.116c0.318,0.047.645,0.085,0.967,0.119v0.12h0.371v0.119h0.356v0.124h0.359v0.121c0.247,0.043.488,0.081,0.732,0.119V119h0.245v0.111h0.367v0.128c0.153,0.029.311,0.073,0.48,0.116v0.124h0.37V119.6c0.236,0.076.477,0.159,0.713,0.24v0.119h0.246v0.117c0.167,0.043.33,0.086,0.485,0.122a1.933,1.933,0,0,1,.114.242h0.241l0.256,0.239h0.235V120.8h0.246a2.253,2.253,0,0,0,.12.241c0.159,0.046.324,0.079,0.486,0.12,0.035,0.084.078,0.165,0.117,0.242h0.243c0.044,0.077.079,0.163,0.125,0.239H387.8v0.126c0.115,0.033.23,0.081,0.351,0.116,0.289-.242.568-0.481,0.852-0.723,0.082-.12.153-0.239,0.245-0.361h0.236c0.249-.282.49-0.569,0.731-0.843h0.242c0.12-.165.247-0.324,0.364-0.478h0.242c0.07-.124.161-0.24,0.236-0.368h0.243c0.083-.111.169-0.24,0.242-0.359h0.246c0.081-.121.162-0.245,0.24-0.364h0.246c0.032-.071.08-0.154,0.123-0.239h0.241c0.081-.116.156-0.242,0.24-0.364h0.241c0.04-.078.077-0.159,0.117-0.24h0.248c0.039-.076.079-0.158,0.122-0.239,0.124-.038.241-0.078,0.365-0.124v-0.116c0.155-.044.314-0.081,0.477-0.114,0.043-.079.083-0.17,0.121-0.242,0.164-.047.327-0.085,0.485-0.13,0.043-.074.086-0.161,0.124-0.233,0.161-.049.318-0.087,0.482-0.13,0.043-.079.086-0.152,0.129-0.24h0.241l0.241-.233h0.236v-0.124H397V115.5h0.241v-0.12h0.244v-0.119h0.246v-0.113h0.231v-0.127H398.2V114.9h0.251V114.77c0.161-.033.32-0.079,0.48-0.118V114.53h0.244v-0.122h0.362v-0.117c0.159-.037.322-0.072,0.485-0.123v-0.111c0.853-.286,1.69-0.57,2.545-0.847V91.035c-0.128-.04-0.244-0.079-0.368-0.121V90.8h-0.248a1.835,1.835,0,0,0-.114-0.24c-0.163-.04-0.323-0.081-0.487-0.122-0.038-.086-0.076-0.16-0.116-0.237-0.125-.044-0.244-0.082-0.359-0.117V89.952c-0.172-.04-0.332-0.078-0.488-0.117-0.038-.081-0.081-0.167-0.12-0.241h-0.245c-0.042-.079-0.077-0.168-0.118-0.241-0.161-.044-0.329-0.083-0.488-0.126-0.039-.081-0.077-0.152-0.126-0.235h-0.238c-0.035-.084-0.078-0.165-0.121-0.246H398.69V88.625h-0.237c-0.042-.073-0.08-0.159-0.126-0.24-0.125-.043-0.251-0.081-0.367-0.119V88.146c-0.15-.043-0.318-0.081-0.477-0.119-0.046-.078-0.081-0.17-0.12-0.245h-0.24A2.545,2.545,0,0,1,397,87.537c-0.167-.033-0.327-0.071-0.481-0.118-0.042-.073-0.086-0.156-0.129-0.24h-0.235a1.513,1.513,0,0,1-.118-0.24c-0.161-.038-0.33-0.078-0.488-0.119-0.042-.078-0.078-0.163-0.123-0.24-0.124-.038-0.249-0.083-0.368-0.121V86.341c-0.156-.038-0.319-0.087-0.482-0.125-0.043-.076-0.078-0.162-0.116-0.24-0.117-.032-0.241-0.084-0.365-0.119V85.737c-0.165-.041-0.324-0.084-0.482-0.119-0.051-.086-0.088-0.167-0.129-0.24h-0.236a2.675,2.675,0,0,0-.122-0.244c-0.159-.041-0.325-0.086-0.481-0.114-0.043-.086-0.091-0.167-0.123-0.249h-0.246V84.651c-0.119-.035-0.24-0.076-0.37-0.125,0.211-.36.407-0.714,0.616-1.073,0.08-.043.151-0.089,0.241-0.129V83.091c0.076-.049.158-0.083,0.241-0.127V82.725c0.084-.043.166-0.081,0.244-0.121V82.36c0.081-.032.159-0.084,0.236-0.122V82c0.078-.035.164-0.084,0.248-0.116V81.64c0.079-.037.16-0.083,0.246-0.125v-0.24c0.069-.04.155-0.076,0.241-0.119v-0.24c0.073-.04.155-0.081,0.241-0.121V80.552h0.116c0.047-.116.081-0.24,0.12-0.355,0.083-.045.164-0.083,0.241-0.129V79.837c0.121-.086.24-0.167,0.365-0.248v-0.24c0.086-.038.169-0.087,0.247-0.119,0.038-.121.08-0.24,0.118-0.368h0.121c0.039-.151.088-0.317,0.12-0.481,0.086-.033.158-0.079,0.247-0.118V78.019a1.609,1.609,0,0,0,.235-0.117V77.66c0.087-.04.164-0.07,0.248-0.113V77.3a2.3,2.3,0,0,1,.243-0.115V76.945H397c0.035-.122.082-0.248,0.125-0.364,0.076-.046.153-0.083,0.24-0.126v-0.24c0.12-.079.238-0.167,0.366-0.241v-0.24c0.081-.04.154-0.075,0.231-0.117a2.044,2.044,0,0,0,.116-0.368H398.2V75.01c0.082-.038.171-0.08,0.251-0.114V74.648a2,2,0,0,0,.237-0.119c0.045-.122.083-0.24,0.118-0.36,0.168-.119.331-0.246,0.484-0.359V73.565c0.126-.078.247-0.159,0.368-0.24v-0.24a2.609,2.609,0,0,1,.246-0.116V72.725a2.178,2.178,0,0,1,.239-0.119c0.04-.128.072-0.244,0.124-0.368h0.12V72c0.075-.032.156-0.081,0.241-0.119,0.038-.162.075-0.325,0.121-0.486,0.078-.028.159-0.076,0.241-0.114,0.043-.124.078-0.243,0.119-0.364h0.125V70.667l0.237-.233v-0.24H401.6V69.949c0.078-.038.162-0.083,0.241-0.116v-0.24h0.114V69.349h0.126V68.991c0.087-.046.168-0.084,0.246-0.124V68.629h0.116V68.387h0.128V68.024h0.116V67.776h0.125c0.038-.156.078-0.311,0.116-0.479h0.125V66.943h0.121V66.7h0.119c0.036-.2.082-0.4,0.122-0.6h0.124V65.732h0.12V65.486h0.124c0.033-.233.075-0.478,0.116-0.709h0.125V64.529h0.121c0.038-.233.073-0.484,0.12-0.729h0.121V63.448h0.126V63.083h0.115V62.719h0.121c0.034-.278.076-0.56,0.12-0.843h0.124A0.7,0.7,0,0,0,404.384,61.032Zm-12.35,36.149v15.3c-0.13-.029-0.246-0.081-0.37-0.119v-0.116h-0.233v-0.124H391.19a2.09,2.09,0,0,1-.123-0.246h-0.242l-0.244-.238H390.34v-0.121H390.1V111.4h-0.241v-0.124h-0.253v-0.12h-0.236v-0.122h-0.247v-0.123c-0.235-.071-0.481-0.16-0.726-0.241v-0.117h-0.362v-0.115c-0.161-.046-0.318-0.084-0.477-0.12V110.2c-0.244-.046-0.485-0.086-0.73-0.123v-0.125h-0.241v-0.119H386.22v-0.118c-0.325-.047-0.641-0.084-0.972-0.123a7.985,7.985,0,0,0-1.169-.291,13.4,13.4,0,0,0-5.97.291c-0.48.076-.963,0.158-1.453,0.241v0.119h-0.365v0.125h-0.362V110.2h-0.365v0.119h-0.485v0.12h-0.108a2.171,2.171,0,0,1,.352-0.847,2.55,2.55,0,0,1,.241-0.119v-0.249c0.086-.035.164-0.077,0.245-0.112V108.87c0.088-.041.16-0.084,0.241-0.119v-0.24c0.085-.043.158-0.084,0.241-0.122v-0.24c0.089-.039.163-0.082,0.246-0.127v-0.239a2.607,2.607,0,0,0,.236-0.119v-0.239l0.25-.12v-0.359a1.394,1.394,0,0,1,.241-0.114v-0.249a2.513,2.513,0,0,1,.244-0.121v-0.24c0.076-.047.158-0.085,0.234-0.124v-0.244a2.293,2.293,0,0,0,.243-0.114V105.5c0.08-.035.169-0.081,0.245-0.123v-0.236c0.077-.042.166-0.085,0.241-0.123v-0.24c0.09-.043.166-0.076,0.244-0.121v-0.239c0.078-.043.163-0.081,0.241-0.124,0.037-.121.078-0.24,0.116-0.36H379.2v-0.243c0.083-.038.161-0.073,0.241-0.119v-0.232c0.086-.051.164-0.086,0.242-0.129,0.043-.119.085-0.238,0.123-0.355h0.121a4.762,4.762,0,0,1,.125-0.487c0.073-.039.159-0.077,0.245-0.12V102a1.815,1.815,0,0,1,.241-0.112v-0.245c0.073-.043.155-0.077,0.233-0.12v-0.243c0.084-.04.166-0.078,0.25-0.121,0.037-.119.071-0.24,0.11-0.365h0.13v-0.24c0.071-.033.162-0.076,0.234-0.114V100.2c0.083-.046.169-0.081,0.241-0.119V99.832a2.263,2.263,0,0,0,.247-0.121c0.046-.162.084-0.317,0.12-0.481,0.083-.036.159-0.079,0.24-0.122v-0.24c0.125-.087.249-0.159,0.37-0.24,0.039-.159.082-0.33,0.12-0.487,0.115-.07.247-0.159,0.362-0.237,0.085-.243.158-0.483,0.241-0.724,0.08-.037.163-0.079,0.246-0.114V96.822a2.694,2.694,0,0,1,.248-0.117V96.464a1.846,1.846,0,0,1,.236-0.125V96.1c0.077-.048.163-0.084,0.241-0.127,0.043-.119.082-0.241,0.12-0.36h0.116V95.371a2.059,2.059,0,0,0,.246-0.121V95.017a2.374,2.374,0,0,1,.239-0.121V94.654a2.568,2.568,0,0,0,.246-0.124V94.294a2.511,2.511,0,0,0,.242-0.127V93.932h0.113c0.045-.127.1-0.24,0.131-0.365Q388.948,95.369,392.034,97.181Zm2.9-20.484v0.248l-0.241.119V77.3c-0.073.043-.163,0.086-0.236,0.119V77.66c-0.086.048-.168,0.081-0.241,0.124v0.235c-0.086.043-.172,0.089-0.241,0.122v0.24c-0.086.044-.167,0.087-0.246,0.13v0.24c-0.084.03-.17,0.076-0.248,0.111-0.04.129-.077,0.248-0.117,0.368h-0.119v0.24c-0.078.041-.16,0.081-0.244,0.119-0.037.162-.083,0.319-0.118,0.479h-0.123c-0.037.129-.09,0.245-0.118,0.368a2.438,2.438,0,0,0-.241.116V80.8c-0.091.04-.167,0.081-0.247,0.121-0.04.127-.075,0.24-0.121,0.359H391.9v0.24a2.291,2.291,0,0,1-.24.125v0.243c-0.074.032-.155,0.081-0.233,0.116v0.24c-0.082.038-.168,0.09-0.241,0.122V82.6c-0.08.04-.168,0.078-0.241,0.121v0.238c-0.081.044-.167,0.078-0.241,0.127v0.233c-0.081.04-.172,0.086-0.247,0.129-0.045.114-.083,0.24-0.121,0.359h-0.121v0.237c-0.088.043-.16,0.079-0.241,0.117v0.246c-0.086.046-.158,0.073-0.241,0.114V84.77c-0.08.043-.163,0.082-0.249,0.124-0.038.154-.081,0.317-0.119,0.484-0.077.035-.165,0.073-0.247,0.119v0.24c-0.08.043-.154,0.086-0.235,0.121V86.1c-0.078.04-.164,0.072-0.246,0.116V86.46c-0.078.038-.159,0.082-0.245,0.121-0.034.127-.074,0.24-0.117,0.359h-0.124v0.24a1.3,1.3,0,0,1-.236.114v0.243c-0.084.049-.167,0.084-0.241,0.127v0.243c-0.084.043-.167,0.076-0.246,0.121-0.041.119-.081,0.24-0.119,0.359h-0.124v0.24c-0.082.038-.168,0.089-0.241,0.121-0.038.162-.082,0.329-0.121,0.481-0.12.081-.241,0.159-0.361,0.245-0.038.163-.086,0.316-0.126,0.481h-0.12c-0.033.127-.081,0.245-0.119,0.367-0.086.029-.158,0.078-0.241,0.114v0.241c-0.086.041-.159,0.081-0.244,0.121v0.24c-0.075.038-.155,0.084-0.242,0.119v0.24a1.506,1.506,0,0,1-.246.122v0.246c-0.072.037-.158,0.081-0.239,0.114v0.244h-0.125c-0.038.124-.073,0.245-0.121,0.359a1.414,1.414,0,0,1-.713-0.359,2.216,2.216,0,0,1-.129-0.244H383.56c-0.044-.078-0.087-0.157-0.124-0.24-0.156-.032-0.327-0.078-0.488-0.121-0.034-.071-0.08-0.157-0.115-0.24-0.12-.037-0.241-0.072-0.365-0.122V91.035c-0.155-.04-0.321-0.079-0.485-0.121-0.038-.073-0.078-0.159-0.121-0.24-0.163-.038-0.319-0.081-0.485-0.119-0.045-.081-0.078-0.159-0.116-0.236h-0.24c-0.049-.084-0.084-0.167-0.13-0.24-0.163-.046-0.324-0.084-0.482-0.127-0.043-.078-0.081-0.165-0.112-0.236-0.614-.33-1.225-0.641-1.826-0.97V73.81a2.754,2.754,0,0,1,.857.479h0.234c0.043,0.079.088,0.165,0.121,0.24h0.244l0.243,0.237h0.239V74.9h0.241V75.01h0.241v0.125h0.24v0.114c0.246,0.087.49,0.163,0.731,0.249v0.119h0.362a17.051,17.051,0,0,0,7.145,1.683c1.047-.045,2.1-0.081,3.151-0.115V77.063h0.364V76.945h0.481V76.822c0.611-.192.82,0.086,1.209-0.367h0.6A1.062,1.062,0,0,1,394.935,76.7ZM76.665,96.456H76.78V96.1H76.9c0.038-.329.086-0.646,0.124-0.971a2.824,2.824,0,0,0,.246-0.965,2.364,2.364,0,0,1-1.219-.235H75.445c-0.316.517-.639,1.037-0.962,1.565v0.238H74.366c-0.045.122-.086,0.241-0.128,0.368a1.752,1.752,0,0,0-.241.113v0.24c-0.081.043-.166,0.081-0.241,0.127-0.045.159-.085,0.316-0.12,0.484-0.091.035-.164,0.078-0.247,0.114v0.241c-0.08.043-.156,0.075-0.243,0.122v0.24c-0.159.121-.325,0.24-0.485,0.357V98.4c-0.123.073-.239,0.149-0.364,0.232v0.244c-0.118.075-.241,0.157-0.357,0.233v0.241c-0.128.081-.246,0.157-0.37,0.249v0.235c-0.121.081-.239,0.165-0.356,0.247v0.24c-0.206.157-.407,0.314-0.608,0.473v0.246c-0.566.526-1.131,1.051-1.7,1.568-0.561.6-1.129,1.2-1.692,1.8H66.979c-0.128.171-.244,0.327-0.364,0.484H66.364c-0.116.152-.234,0.329-0.356,0.48H65.763c-0.117.166-.241,0.328-0.364,0.482H65.154c-0.037.086-.075,0.162-0.118,0.249H64.794c-0.083.119-.156,0.24-0.236,0.359H64.315c-0.045.078-.086,0.157-0.124,0.24a2.6,2.6,0,0,0-.365.13v0.114c-0.164.038-.321,0.078-0.483,0.119-0.038.078-.076,0.157-0.119,0.232-0.164.051-.327,0.086-0.48,0.127a2.577,2.577,0,0,0-.124.24c-0.166.038-.322,0.09-0.487,0.119a1.66,1.66,0,0,1-.121.239c-0.244.088-.483,0.168-0.721,0.24v0.127H61.047v0.122H60.8v0.114c-0.246.085-.488,0.161-0.727,0.245v0.117H59.709v0.127c-0.158.034-.322,0.077-0.482,0.121v0.119H58.864v0.121H58.618v0.119H58.252v0.123H58.019v0.118c-0.241.043-.482,0.075-0.73,0.119v0.125H56.928V110.2H56.564v0.124H56.2v0.12H55.713v0.115c-0.44.087-.888,0.158-1.33,0.239V58.021h0.15a0.51,0.51,0,0,1,.107.008h0c1.116,0.033,2.541.224,3.974,0.283v0.013c0.231,0,.462.008,0.7,0.008a10.959,10.959,0,0,0,1.49-.086,6.717,6.717,0,0,0,1.081-.225c0.525-.035,1.051-0.073,1.576-0.124V57.776h0.485V57.662h0.488V57.541h0.488V57.416H65.4V57.3h0.364V57.175h0.364V57.054h0.362c2.9-1.27,5.515-2.768,7.268-5.173,0.159-.121.313-0.249,0.475-0.363v-0.24c0.086-.046.172-0.081,0.252-0.124,0.04-.124.076-0.245,0.118-0.356h0.121c0.041-.167.083-0.329,0.118-0.487,0.085-.043.166-0.076,0.242-0.121V49.948l0.246-.24v-0.24h0.116V49.224h0.129v-0.24h0.116V48.74c0.08-.032.164-0.079,0.241-0.114V48.26h0.128V48.022h0.112c0.045-.2.086-0.406,0.128-0.6H76.42V46.935a11.819,11.819,0,0,0,.852-4.179V42.6c-0.531-.127-1.056-0.24-1.581-0.364V42.114c-0.595.165-.336,0.306-0.608,0.725-0.076.038-.158,0.076-0.242,0.127v0.241c-0.118.073-.239,0.154-0.357,0.232v0.24c-0.118.089-.252,0.163-0.37,0.248v0.232c-0.322.287-.644,0.573-0.963,0.848-0.083.124-.163,0.249-0.249,0.363H72.666c-0.086.127-.166,0.24-0.242,0.367H72.181c-0.083.113-.163,0.236-0.246,0.356H71.7c-0.046.078-.083,0.162-0.124,0.244-0.234.073-.48,0.162-0.718,0.24a2.547,2.547,0,0,0-.126.245H70.364v0.114H70.12v0.114c-0.156.054-.321,0.087-0.48,0.13V47.3c-0.365.081-.726,0.162-1.1,0.243v0.124H68.058v0.121H67.581V47.9H66.975v0.121H66.248v0.119a1.607,1.607,0,0,1-.526.054H65.6a0.989,0.989,0,0,0-.155.008,1.023,1.023,0,0,0-.294.057H65.036a0.037,0.037,0,0,1-.026,0c-0.1-.033.014-0.122-0.045-0.122a0.026,0.026,0,0,0-.022.008H64.921V48.26H62.132a0.212,0.212,0,0,0-.064-0.084,0.33,0.33,0,0,0-.19-0.048,0.707,0.707,0,0,0-.111.013V48.26c-0.045,0-.067,0-0.067-0.019s0.022-.033.022-0.057-0.022-.037-0.075-0.043H60.076V48.022q-0.124.055-.239,0.119V48.022H58.5V47.9H57.288V47.783H56.322V47.662h-0.97c-1.295-.373-2.973-0.349-4.229-0.727-0.536-.044-1.056-0.076-1.585-0.114-1.408-.43-3.2-0.551-4.6-0.972-0.48-.043-0.965-0.079-1.448-0.113-1.308-.4-3.034-0.452-4.364-0.851-0.644-.038-1.3-0.078-1.93-0.119V44.646H36.352V44.53H35.261V44.4H33.929V44.283H32.345a5.412,5.412,0,0,0-.572-0.083c-0.445-.037-1.022-0.048-1.6-0.048-0.547,0-1.1.006-1.566,0.006H27.271v0.124a26.666,26.666,0,0,0-8.36,1.566c-0.241.046-.487,0.075-0.729,0.124v0.119H17.941v0.124H17.579v0.125c-0.161.035-.319,0.068-0.48,0.111v0.124H16.74V46.7c-0.247.078-.493,0.163-0.735,0.24v0.114H15.761v0.13H15.52V47.3H15.284v0.124H15.035l-0.239.243H14.547c-0.035.076-.073,0.156-0.118,0.239-0.156.043-.316,0.078-0.477,0.121-0.048.076-.085,0.154-0.128,0.238-0.161.038-.324,0.09-0.477,0.117-0.048.09-.083,0.167-0.128,0.248H12.981c-0.038.082-.083,0.159-0.124,0.24H12.617l-0.239.359H12.131c-0.078.121-.158,0.245-0.241,0.364H11.648c-0.038.078-.078,0.163-0.125,0.24-0.116.044-.242,0.078-0.36,0.121-0.156.2-.316,0.408-0.478,0.6H10.439c-0.485.521-.97,1.04-1.451,1.57-0.408.36-.8,0.727-1.215,1.083v0.239c-0.16.116-.325,0.238-0.479,0.356v0.248c-0.121.076-.246,0.167-0.367,0.238v0.241c-0.121.081-.246,0.159-0.367,0.248v0.24c-0.07.03-.163,0.086-0.236,0.119v0.24H6.2c-0.032.121-.077,0.241-0.121,0.368a1.593,1.593,0,0,0-.239.117v0.235c-0.116.081-.242,0.16-0.363,0.244v0.241c-0.085.041-.16,0.078-0.239,0.121v0.235c-0.081.048-.16,0.078-0.252,0.121-0.07.247-.156,0.487-0.236,0.722a1.308,1.308,0,0,1-.239.121c-0.081.248-.166,0.484-0.247,0.732H4.136v0.235H4.018v0.248H3.9v0.24H3.782v0.236H3.656v0.248H3.54c-0.048.194-.089,0.394-0.118,0.591H3.288c-0.037.165-.073,0.329-0.112,0.487H3.055v0.368H2.93c-0.035.154-.083,0.321-0.12,0.471H2.685c-0.027.251-.075,0.49-0.118,0.73-0.077.04-.158,0.073-0.239,0.122-0.043.238-.083,0.478-0.121,0.718H2.082v0.364H1.961v0.359H1.843V64.4H1.722v0.368H1.6v0.36H1.479v0.479H1.356v0.368H1.237a2.81,2.81,0,0,1-.244.963v0.6c0.6,0.232,1.214.479,1.818,0.722,1.785-4,4-7.589,7.389-10.006,0.118-.157.239-0.321,0.361-0.484,0.124-.033.238-0.076,0.357-0.121a1.926,1.926,0,0,0,.126-0.24h0.237a2.134,2.134,0,0,0,.126-0.241c0.162-.041.322-0.075,0.483-0.121,0.043-.073.083-0.154,0.121-0.235,0.12-.04.236-0.086,0.367-0.121V56.578h0.239l0.239-.241H13.1V56.219h0.246V56.092h0.235V55.97h0.242V55.857c0.244-.086.486-0.159,0.722-0.245v-0.12h0.367V55.371h0.239V55.254c0.247-.044.493-0.089,0.733-0.122V55.013h0.244V54.887c0.279-.037.557-0.076,0.847-0.114V54.646h0.367V54.525c0.351-.038.714-0.081,1.079-0.116,0.965-.3,2.327-0.4,3.392-0.611,0.167,0.051.327,0.089,0.485,0.122V53.8a4.408,4.408,0,0,1,.812-0.06c0.352,0,.745.019,1.1,0.049a7.073,7.073,0,0,1,.879.133,1.8,1.8,0,0,0,.547.063h0.12c0.107,0,.207,0,0.317-0.006H26.29a1.969,1.969,0,0,1,.793.078,0.608,0.608,0,0,1,.188.111h1.08v0.118c-0.155.083-.314,0.16-0.48,0.241-0.035.081-.08,0.159-0.124,0.248H27.507c-0.04.078-.076,0.159-0.12,0.24H27.143c-0.04.086-.075,0.152-0.118,0.241H26.784c-0.084.117-.164,0.238-0.246,0.359H26.3c-0.085.127-.163,0.245-0.243,0.357H25.813c-0.12.165-.245,0.322-0.362,0.49H25.2c-0.116.159-.239,0.319-0.362,0.473H24.6c-0.121.167-.246,0.33-0.357,0.483H23.995c-0.12.17-.238,0.327-0.357,0.481H23.389c-0.161.206-.317,0.406-0.475,0.611H22.668c-0.33.356-.648,0.719-0.97,1.079H21.45c-0.2.248-.4,0.489-0.6,0.719-0.411.329-.81,0.646-1.212,0.975v0.225c-0.086.049-.167,0.1-0.241,0.129-0.2.241-.407,0.481-0.608,0.729-0.486.441-.973,0.881-1.448,1.322v0.243c-0.246.194-.491,0.4-0.732,0.6v0.243c-0.164.116-.321,0.237-0.482,0.36v0.248c-0.163.113-.324,0.232-0.485,0.352v0.248c-0.126.073-.246,0.157-0.362,0.235v0.24c-0.131.081-.249,0.162-0.37,0.245v0.244c-0.156.114-.322,0.229-0.485,0.352-0.038.122-.075,0.249-0.118,0.368-0.08.041-.163,0.075-0.242,0.113v0.248c-0.083.04-.164,0.078-0.244,0.121-0.043.122-.075,0.24-0.118,0.357H13.582c-0.035.165-.082,0.33-0.117,0.489-0.081.035-.166,0.086-0.246,0.119-0.043.125-.08,0.24-0.118,0.36H12.981c-0.038.157-.083,0.321-0.124,0.479-0.086.044-.159,0.076-0.239,0.121-0.038.16-.08,0.324-0.121,0.483a2.02,2.02,0,0,1-.249.114c-0.076.249-.158,0.484-0.236,0.727-0.078.041-.166,0.084-0.246,0.125-0.078.235-.156,0.479-0.243,0.719-0.078.048-.155,0.083-0.242,0.129v0.24H11.163v0.24h-0.12V73.21a2.634,2.634,0,0,0-.246.119v0.356H10.684c-0.048.163-.083,0.325-0.124,0.478H10.439v0.367H10.318c-0.042.165-.083,0.324-0.118,0.486H10.077L8.256,80.67v0.6c-0.187.578-.3,1.459-0.483,2.049v0.962a10.2,10.2,0,0,0-.265,2.7c0,0.678.021,1.365,0.021,2.006a25.783,25.783,0,0,0,1.214,8.43V97.91H8.865v0.359H8.988v0.48H9.106c0.041,0.245.083,0.482,0.124,0.722H9.35v0.241h0.12c0.038,0.24.083,0.487,0.118,0.724H9.712v0.359H9.836v0.244H9.954v0.354h0.123v0.249H10.2c0.035,0.2.077,0.4,0.118,0.6h0.121c0.075,0.245.163,0.483,0.246,0.724H10.8v0.238h0.12v0.24h0.126v0.248h0.12v0.235h0.118v0.239l0.242,0.245v0.239c0.125,0.083.243,0.159,0.367,0.24,0.043,0.159.083,0.324,0.121,0.48,0.078,0.042.159,0.088,0.236,0.122,0.04,0.163.093,0.327,0.131,0.485,0.073,0.037.159,0.08,0.239,0.124v0.24c0.08,0.038.153,0.071,0.239,0.119V106.7a2.5,2.5,0,0,1,.245.127v0.24c0.075,0.035.163,0.078,0.246,0.114v0.245c0.118,0.081.235,0.163,0.359,0.24V107.9a1.657,1.657,0,0,0,.246.119v0.24c0.116,0.094.234,0.165,0.359,0.249,0.043,0.114.08,0.24,0.118,0.359l0.855,0.724v0.241c0.322,0.281.638,0.56,0.963,0.838v0.241c0.321,0.283.648,0.567,0.966,0.85,0.131,0.157.249,0.32,0.365,0.477H17.82c0.164,0.213.327,0.4,0.487,0.61h0.234c0.252,0.278.5,0.554,0.735,0.836h0.241c0.163,0.2.322,0.4,0.491,0.6h0.236c0.08,0.117.159,0.246,0.239,0.361h0.246c0.045,0.08.08,0.17,0.124,0.242,0.115,0.044.236,0.082,0.357,0.122v0.127H21.45c0.086,0.113.172,0.232,0.249,0.352h0.242c0.043,0.089.08,0.162,0.121,0.248,0.115,0.035.239,0.073,0.357,0.119v0.114h0.249c0.035,0.088.08,0.165,0.115,0.24,0.131,0.043.245,0.081,0.365,0.13v0.119c0.241,0.078.49,0.159,0.727,0.24,0.043,0.081.075,0.159,0.12,0.239,0.249,0.083.485,0.159,0.726,0.24,0.048,0.083.084,0.164,0.121,0.24h0.246l0.241,0.24h0.239v0.12h0.245v0.122h0.246v0.126c0.243,0.071.48,0.163,0.726,0.233v0.122c0.2,0.037.394,0.086,0.6,0.119v0.124h0.238v0.121h0.367v0.119h0.241V119H28.6v0.111h0.234v0.128c0.855,0.232,1.7.479,2.545,0.718v0.117c0.485,0.086.963,0.167,1.451,0.249v0.115q2.062,0.359,4.118.723c0.156,0.013.41,0.039,0.692,0.065,0.453,0.048.979,0.092,1.308,0.092a1.137,1.137,0,0,0,.265-0.023c0.013-.007.026-0.007,0.041-0.015h0.118V121.4H40.7c1.026,0,2.453.036,3.3-.051a3.569,3.569,0,0,0,.459-0.072h1.2V121.16h1.215v-0.12h0.849v-0.124h0.722V120.8h0.6v-0.123h0.606v-0.117H50.27v-0.122h0.486v-0.115h0.483V120.2h0.479v-0.127H52.2v-0.117h0.364v-0.119h0.365v-0.12c0.4-.087.805-0.158,1.212-0.247v-0.116h0.238v-0.116c0.242-.051.483-0.09,0.727-0.128V119h0.242V118.87c0.238-.038.485-0.081,0.727-0.119V118.63c0.156-.038.325-0.081,0.485-0.124v-0.119h0.364v-0.122H57.17v-0.117c0.16-.045.322-0.078,0.479-0.116v-0.126H57.9v-0.122h0.238v-0.12h0.242v-0.126h0.241v-0.114h0.245v-0.119h0.243v-0.121h0.242v-0.119h0.239l0.249-.24h0.239c0.035-.087.08-0.163,0.118-0.246,0.245-.074.491-0.161,0.73-0.233a2.553,2.553,0,0,1,.123-0.248c0.161-.034.318-0.079,0.48-0.122,0.043-.079.08-0.16,0.118-0.233h0.239c0.046-.086.086-0.159,0.126-0.248h0.241a2.419,2.419,0,0,0,.124-0.239h0.243a1.576,1.576,0,0,1,.124-0.235h0.236c0.035-.083.08-0.164,0.124-0.251h0.239c0.038-.079.081-0.157,0.123-0.233h0.244c0.08-.129.156-0.246,0.236-0.369h0.245c0.038-.078.08-0.154,0.124-0.239h0.242c0.115-.158.236-0.321,0.354-0.475h0.242c0.2-.244.413-0.492,0.609-0.732h0.246c0.161-.2.324-0.393,0.485-0.6h0.241c0.646-.681,1.287-1.37,1.934-2.045,0.241-.2.485-0.409,0.731-0.6v-0.248c0.319-.286.643-0.56,0.966-0.846v-0.24c0.158-.127.321-0.246,0.485-0.366v-0.246c0.159-.113.322-0.24,0.481-0.358v-0.233a1.115,1.115,0,0,1,.239-0.114v-0.246c0.124-.084.242-0.172,0.37-0.243V106.1c0.077-.044.159-0.087,0.239-0.124,0.045-.125.083-0.239,0.118-0.36h0.124v-0.247c0.076-.031.156-0.081,0.239-0.12v-0.239c0.086-.038.159-0.08,0.242-0.121,0.041-.119.083-0.24,0.118-0.359h0.124v-0.244a2.076,2.076,0,0,0,.243-0.121c0.083-.239.156-0.474,0.247-0.722,0.075-.038.158-0.081,0.241-0.119v-0.244l0.242-.232v-0.245h0.118v-0.242h0.128v-0.24h0.118v-0.24h0.123v-0.243h0.12V101.4h0.112v-0.24h0.124c0.037-.2.081-0.4,0.124-0.6H75.2c0.043-.158.084-0.32,0.124-0.473h0.116V99.711h0.126V99.47h0.12V99.106h0.12c0.04-.159.085-0.325,0.121-0.478h0.121c0.038-.232.086-0.487,0.124-0.724H76.3v-0.36H76.42V97.181h0.115V96.822h0.131V96.456ZM32.109,107.783c-0.07.031-.07,0.06-0.064,0.088a0.119,0.119,0,0,0,.014.018c0,0.014,0,.019-0.027.019H32.02c-0.013,0-.016,0-0.034,0v-0.12c-0.12-.029-0.244-0.081-0.365-0.119V107.54H31.382c-0.041-.078-0.085-0.157-0.12-0.235-0.162-.042-0.33-0.083-0.483-0.126-0.043-.079-0.083-0.155-0.121-0.233-0.242-.086-0.488-0.173-0.727-0.248-0.085-.112-0.163-0.236-0.239-0.355-0.121-.045-0.252-0.081-0.367-0.116V106.1H29.079c-0.121-.163-0.242-0.325-0.367-0.484a8.82,8.82,0,0,0-1.687-1.451v-0.239H26.784v-0.113c-0.365-.327-0.726-0.652-1.091-0.97V102.6c-0.285-.239-0.563-0.479-0.852-0.719v-0.243c-0.2-.163-0.4-0.312-0.6-0.49v-0.234c-0.2-.163-0.411-0.326-0.606-0.482V100.2c-0.121-.081-0.249-0.166-0.367-0.247v-0.24c-0.083-.043-0.161-0.081-0.242-0.114V99.352c-0.115-.082-0.245-0.159-0.36-0.245-0.045-.154-0.085-0.321-0.121-0.479-0.089-.038-0.161-0.081-0.245-0.124V98.268c-0.083-.038-0.158-0.084-0.239-0.119V97.91c-0.078-.051-0.163-0.082-0.246-0.125-0.076-.24-0.163-0.486-0.242-0.722l-0.242-.119V96.7l-0.242-.241V96.216H20.968v-0.24a2.64,2.64,0,0,1-.239-0.124c-0.045-.159-0.081-0.324-0.118-0.481H20.483c-0.08-.24-0.16-0.484-0.239-0.722h-0.12V94.3H20.008c-0.046-.165-0.093-0.325-0.131-0.489H19.759V93.448H19.641v-0.24H19.517c-0.043-.24-0.083-0.48-0.116-0.729H19.276V92.121h-0.12V91.762H19.038V91.4H18.911V91.035H18.793V90.551c-0.2-.6-0.411-1.417-0.611-2.041V87.783H18.059V87.06H17.941V86.216H17.82v-1.2H17.7v-1.69H17.579a1.8,1.8,0,0,1-.064-0.516c0-.562.158-1.173,0.18-1.533V79.589H17.82v-1.33h0.121v-0.84h0.118V76.581h0.123V75.857h0.125V75.135h0.118V74.529h0.117V74.049H18.67V73.568h0.123v-0.6q0.725-2.176,1.451-4.343h0.124V68.384h0.115v-0.36h0.128V67.776h0.118c0.045-.156.08-0.311,0.124-0.481h0.115V67.057h0.121v-0.24H21.21v-0.24h0.121V66.34H21.45V66.1h0.124V65.851H21.7v-0.24h0.118V65.379h0.125V65.132l0.236-.244v-0.24c0.081-.037.161-0.076,0.242-0.119,0.086-.24.164-0.484,0.249-0.727,0.08-.038.156-0.076,0.246-0.116V63.448h0.115v-0.24h0.12c0.04-.125.08-0.246,0.123-0.365,0.073-.038.164-0.078,0.246-0.12v-0.24c0.076-.041.163-0.081,0.241-0.119V62.116c0.161-.113.32-0.24,0.486-0.364V61.506c0.077-.033.156-0.072,0.236-0.109V61.149c0.16-.117.325-0.236,0.485-0.355V60.548c0.166-.122.327-0.241,0.486-0.354v-0.24c0.279-.24.566-0.487,0.85-0.727V58.984a1.838,1.838,0,0,0,.238-0.121c0.081-.124.161-0.235,0.246-0.356h0.241c0.043-.086.078-0.165,0.118-0.248h0.128c0.314-.363.641-0.719,0.962-1.086h0.241c0.166-.194.328-0.4,0.485-0.6,0.121-.038.241-0.084,0.367-0.117,0.038-.086.083-0.168,0.115-0.241h0.252c0.038-.084.076-0.167,0.118-0.249,0.121-.037.239-0.079,0.361-0.113V55.74h0.245c0.038-.1.075-0.16,0.118-0.248h0.246c0.037-.083.081-0.159,0.124-0.238H31.13c0.051-.089.088-0.155,0.132-0.241,0.238-.081.48-0.162,0.724-0.24,0.045-.089.081-0.167,0.123-0.248,0.236-.081.48-0.159,0.724-0.241V54.167c3.837,0.684,7.668,1.36,11.505,2.052V56.46a2.465,2.465,0,0,0-.845.473H43.248c-0.04.078-.086,0.167-0.121,0.241H42.885c-0.043.089-.083,0.165-0.126,0.241-0.156.044-.319,0.079-0.482,0.125-0.04.081-.08,0.159-0.125,0.235H41.911c-0.038.09-.078,0.163-0.118,0.244-0.242.083-.486,0.159-0.724,0.24a1.958,1.958,0,0,0-.115.248c-0.167.035-.325,0.078-0.494,0.121-0.037.078-.083,0.157-0.118,0.235-0.171.049-.325,0.086-0.485,0.121-0.041.084-.089,0.17-0.121,0.243-0.158.043-.322,0.076-0.478,0.124a2.072,2.072,0,0,0-.128.236H38.891l-0.246.248H38.4v0.119H38.166c-0.045.075-.08,0.156-0.131,0.24H37.8v0.113H37.564c-0.046.081-.089,0.171-0.126,0.241H37.2l-0.249.246H36.706v0.119H36.47c-0.042.081-.08,0.168-0.118,0.236H36.1l-0.239.248H35.615v0.109H35.379c-0.045.1-.081,0.176-0.118,0.246-0.167.043-.329,0.089-0.493,0.124l-0.241.24H34.291c-0.045.086-.083,0.16-0.124,0.248H33.929l-0.244.241H33.44v0.118H33.2v0.12H32.956a2.715,2.715,0,0,1-1.214.6,2.158,2.158,0,0,0,.367,1.324v0.237c0.156,0.249,1.352.214,1.692,0.371a3.254,3.254,0,0,0,.726.471,1.04,1.04,0,0,0,.241.489h0.123v0.238c0.083,0.038.166,0.076,0.242,0.121,0.164,0.473.329,0.965,0.482,1.446V69.11h0.121V96.338c0,0.364,0,.776,0,1.206a11.83,11.83,0,0,1-.126,2.287c-0.083.922-.153,1.851-0.236,2.771C34.686,104.716,34.017,106.9,32.109,107.783Zm20.824,3.493h-0.12a0.5,0.5,0,0,1-.1.067h0a0.112,0.112,0,0,0-.019.013,0.164,0.164,0,0,1-.024.006,0.061,0.061,0,0,1-.011.005,0.012,0.012,0,0,1-.01.008H52.622a0.018,0.018,0,0,1-.019.008,0.012,0.012,0,0,1-.006.007,2.5,2.5,0,0,1-.705.069c-0.041,0-.092,0-0.14,0H51.423a2.649,2.649,0,0,0-.667.063,7.282,7.282,0,0,1-1.328.278,18.11,18.11,0,0,1-2.183.087H46.392c-0.884-.043-1.773-0.086-2.66-0.12v-0.12a2.628,2.628,0,0,0-.239.12v-0.12H42.645v-0.125H41.911V111.4H41.189v-0.127h-0.6v-0.117H40.1v-0.122H39.615v-0.123c-0.687-.16-1.372-0.32-2.051-0.473v-0.12H37.316V110.2l-1.091-.243v-0.119c-0.163-.043-0.324-0.083-0.49-0.118v-0.123H35.379v-0.119c-0.611-.24-1.212-0.483-1.818-0.724v-0.24l0.368-.128v-0.121h0.238c0.041-.072.08-0.152,0.124-0.24,0.236-.071.477-0.155,0.724-0.239,0.041-.081.078-0.158,0.118-0.243h0.246c0.043-.078.083-0.157,0.121-0.235,0.236-.083.485-0.162,0.725-0.24v-0.119c0.126-.044.244-0.086,0.364-0.121,0.043-.084.081-0.165,0.116-0.239,0.159-.053.322-0.084,0.494-0.124a1.339,1.339,0,0,1,.117-0.235,4.5,4.5,0,0,1,.48-0.124c0.037-.087.08-0.163,0.118-0.249,0.172-.033.328-0.076,0.485-0.114,0.045-.083.086-0.167,0.124-0.246,0.166-.034.327-0.08,0.482-0.122,0.041-.081.089-0.156,0.124-0.232,0.163-.048.321-0.089,0.485-0.127,0.037-.08.084-0.161,0.121-0.24,0.164-.038.318-0.078,0.485-0.121,0.041-.077.081-0.161,0.121-0.239h0.242a2.566,2.566,0,0,0,.118-0.245c0.252-.073.486-0.157,0.731-0.239,0.045-.077.08-0.158,0.118-0.235,0.124-.046.242-0.081,0.36-0.127v-0.121c0.242-.081.485-0.162,0.734-0.24,0.032-.082.08-0.154,0.115-0.238H43v-0.122h0.244c0.035-.086.08-0.162,0.118-0.243,0.128-.035.246-0.082,0.367-0.114v-0.125c0.244-.081.482-0.164,0.729-0.24,0.038-.083.075-0.164,0.112-0.24h0.25c0.038-.087.076-0.159,0.118-0.243,0.243-.077.48-0.163,0.724-0.249a2.177,2.177,0,0,0,.126-0.241h0.241v-0.113c0.121-.044.239-0.078,0.36-0.121V56.578a9.483,9.483,0,0,1,2.419.476c0.524,0.079,1.054.167,1.577,0.247v0.114c0.443,0.044.89,0.079,1.329,0.125v0.114c0.413,0.087.809,0.17,1.215,0.241v53.379Zm64.767,2.892v-0.239h-0.124c-0.077-.115-0.157-0.242-0.233-0.354-0.089-.05-0.163-0.081-0.246-0.121V113.21h-0.124c-0.078-.119-0.156-0.248-0.236-0.359-0.12-.084-0.239-0.158-0.354-0.237l-0.013-.009c-0.038-.122-0.086-0.241-0.124-0.357-0.2-.164-0.4-0.326-0.6-0.484v-0.24c-0.245-.2-0.483-0.4-0.729-0.61a0.249,0.249,0,0,1-.063-0.138,0.113,0.113,0,0,1,.016-0.052,0.315,0.315,0,0,0-.185-0.168c0-.683-0.058-1.5-0.058-2.269a6.8,6.8,0,0,1,.173-1.7V79.589H114.68V77.54h-0.126V76.333h-0.117V75.5h-0.121V74.765h-0.123v-0.6H114.07V73.684h-0.122V73.21a13.512,13.512,0,0,0-4.844-6.632c-0.155-.2-0.321-0.4-0.488-0.6h-0.228c-0.086-.132-0.171-0.251-0.252-0.372-0.322-.24-0.648-0.479-0.965-0.724a0.214,0.214,0,0,0-.124-0.116,1.576,1.576,0,0,1-.727.6c-0.161.211-.316,0.4-0.488,0.611h-0.241c-0.163.194-.316,0.394-0.484,0.6h-0.236c-0.162.2-.325,0.4-0.487,0.594h-0.243c-0.2.246-.405,0.492-0.6,0.727H103.29c-0.041.087-.075,0.168-0.115,0.24H103.05c-0.076.129-.156,0.246-0.236,0.365h-0.246c-0.161.2-.322,0.4-0.487,0.606H101.84c-0.2.24-.407,0.479-0.6,0.724h-0.246c-0.159.2-.32,0.4-0.48,0.6h-0.245c-0.157.2-.324,0.4-0.487,0.6H99.545c-0.2.24-.405,0.487-0.612,0.722H98.69c-0.156.213-.316,0.4-0.475,0.608H97.968v0.116c-0.123.076-.241,0.162-0.362,0.247a2.488,2.488,0,0,0-.125.245H97.244c-0.043.058-.08,0.118-0.12,0.178s-0.083.12-.12,0.178H96.878c-0.038.081-.083,0.154-0.128,0.243H96.51c-0.094.116-.193,0.235-0.289,0.349a0.009,0.009,0,0,0,0,0H96.212c-0.1.121-.2,0.246-0.3,0.367H95.66c-0.156.2-.318,0.4-0.479,0.606H94.94c-0.158.2-.32,0.4-0.48,0.6H94.215c-0.2.232-.4,0.481-0.6,0.722H93.365c-0.161.2-.321,0.4-0.477,0.6a1.566,1.566,0,0,0-.734.6H91.912v-3.5h0V60.075c0-.727-0.048-1.589-0.048-2.4a7.11,7.11,0,0,1,.171-1.814,3.011,3.011,0,0,0,.089-0.776c0-.373-0.035-0.757-0.032-1.1a2.354,2.354,0,0,1,.073-0.659V51.76h0.116V50.67h0.116V49.708h0.124c0.08-.806.171-1.61,0.241-2.413h0.129c0.035-.4.07-0.8,0.117-1.2h0.12V45.5h0.124V44.886h0.116V44.4h0.126V43.927h0.12v-0.6h0.113V42.84h0.131c0.032-.235.072-0.475,0.115-0.725h0.124V41.994a1.694,1.694,0,0,0-.845.484c-0.04.076-.088,0.162-0.124,0.243H92.888c-0.089.119-.163,0.246-0.249,0.359H92.394c-0.116.156-.233,0.322-0.364,0.484H91.791c-0.118.159-.236,0.325-0.364,0.479H91.193c-0.088.116-.167,0.24-0.242,0.36-0.126.043-.247,0.084-0.365,0.127a2.092,2.092,0,0,0-.121.236H90.218c-0.035.086-.08,0.162-0.119,0.24H89.85c-0.077.124-.153,0.249-0.238,0.363H89.367c-0.038.081-.074,0.159-0.115,0.24-0.121.046-.249,0.081-0.367,0.127v0.113H88.639a1.785,1.785,0,0,1-.118.243c-0.153.035-.319,0.078-0.478,0.124-0.048.076-.083,0.16-0.124,0.24-0.159.043-.319,0.076-0.48,0.121-0.043.078-.085,0.157-0.129,0.245-0.236.07-.474,0.157-0.722,0.228v0.13H86.346V47.3H86.1v0.124c-0.236.079-.482,0.163-0.726,0.243v0.121h-0.36V47.9H84.767v0.121c-0.233.036-.475,0.076-0.719,0.119V48.26H83.8v0.117c-0.274.038-.565,0.09-0.845,0.124v0.124H82.467V48.74H81.986v0.125H81.5v0.119h-0.85v0.129a1.889,1.889,0,0,1-.371.057H80a0.392,0.392,0,0,0-.1-0.008,0.462,0.462,0,0,0-.08,0,0.4,0.4,0,0,0-.255.067H78.6c0.121,0.159.239,0.321,0.365,0.484h0.118v0.24c0.084,0.046.164,0.079,0.242,0.124,0.04,0.164.088,0.322,0.123,0.483,0.083,0.043.159,0.078,0.242,0.116v0.36h0.124c0.032,0.167.076,0.329,0.121,0.488h0.117v0.363h0.12V52.24h0.126V52.6h0.12c0.083,0.522.161,1.049,0.241,1.571h0.124c0.075,0.8.159,1.6,0.239,2.411H80.9v53.978c-0.285.2-.568,0.408-0.853,0.6-0.155.2-.317,0.4-0.48,0.6H79.326v0.12c-0.124.081-.247,0.16-0.365,0.24-0.077.117-.156,0.24-0.244,0.359H78.469c-0.118.144-.238,0.292-0.359,0.438v0a0.209,0.209,0,0,0-.016.022c-0.073.089-.15,0.177-0.22,0.269H77.632c-0.242.284-.49,0.561-0.73,0.847H76.665v0.234H76.78c0.207,0.246.407,0.479,0.609,0.73h0.242c0.115,0.133.233,0.268,0.34,0.411a0.054,0.054,0,0,1,.014.015c0.032,0.036.062,0.074,0.093,0.11,0.006,0.01.016,0.024,0.022,0.032l0.008,0c0.04,0.05.081,0.1,0.123,0.149,0.121,0.035.238,0.073,0.364,0.114,0.161,0.207.325,0.4,0.483,0.608h0.247v0.114c0.118,0.083.243,0.156,0.361,0.246,0.077,0.119.161,0.24,0.246,0.359h0.236c0.2,0.24.407,0.48,0.6,0.722h0.252c0.2,0.242.4,0.481,0.6,0.724h0.247c0.2,0.24.4,0.48,0.6,0.724h0.244c0.206,0.243.4,0.483,0.611,0.719h0.239c0.2,0.249.405,0.486,0.6,0.726H84.41c0.2,0.241.405,0.48,0.6,0.72h0.244v0.122a1.252,1.252,0,0,0,.606.365,3.854,3.854,0,0,1,.485-0.365c0.04-.076.083-0.162,0.123-0.239h0.239c0.043-.085.083-0.158,0.128-0.242,0.116-.041.237-0.074,0.362-0.12,0.115-.162.233-0.321,0.357-0.481H87.8c0.118-.165.242-0.319,0.364-0.486H88.4c0.088-.117.169-0.236,0.25-0.356h0.234c0.126-.158.249-0.325,0.37-0.479h0.242c0.083-.128.163-0.239,0.239-0.368h0.249c0.116-.164.236-0.321,0.354-0.483,0.128-.043.249-0.071,0.37-0.122,0.035-.074.073-0.162,0.118-0.238h0.244c0.116-.162.241-0.321,0.359-0.483h0.246l0.357-.479c0.124-.038.247-0.087,0.367-0.121,0.045-.08.083-0.158,0.121-0.239h0.245c0.124-.162.241-0.329,0.358-0.48h0.244c0.085-.127.164-0.249,0.246-0.368h0.241c0.118-.147.242-0.328,0.364-0.482a2.678,2.678,0,0,0,.966-0.723h0.124a0.984,0.984,0,0,0-.246-0.484H94.94v-0.239h-0.12c-0.083-.115-0.166-0.242-0.242-0.354a2.505,2.505,0,0,0-.243-0.118V113.21H94.215c-0.084-.119-0.164-0.248-0.246-0.359-0.118-.087-0.241-0.164-0.359-0.246-0.045-.122-0.082-0.241-0.12-0.364-0.207-.157-0.4-0.32-0.6-0.477v-0.245c-0.249-.2-0.491-0.4-0.734-0.605a0.246,0.246,0,0,1-.067-0.143c0-.022.016-0.036,0.016-0.055a0.36,0.36,0,0,0-.191-0.16V80.2c0.2-.167.407-0.325,0.606-0.487V79.589h0.245c0.16-.2.329-0.4,0.482-0.6h0.246c0.038-.083.075-0.163,0.12-0.24h0.118c0.04-.087.084-0.162,0.123-0.246h0.242c0.164-.2.322-0.4,0.485-0.6h0.242c0.12-.162.239-0.312,0.36-0.484h0.244c0.163-.2.322-0.392,0.483-0.6h0.246c0.159-.2.319-0.4,0.48-0.6h0.244c0.084-.115.164-0.221,0.246-0.33h0a1.8,1.8,0,0,1,.12-0.157h0.237c0.166-.2.319-0.4,0.487-0.608h0.247c0.16-.2.319-0.389,0.475-0.6a3.974,3.974,0,0,0,1.332-1.087,2.109,2.109,0,0,1,.969.848c0.161,0.118.325,0.24,0.491,0.359V74.9c0.117,0.076.236,0.159,0.358,0.232v0.241c0.073,0.044.164,0.087,0.241,0.13v0.236l0.239,0.245v0.236h0.124v0.24h0.124V76.7h0.117v0.248h0.129c0.032,0.241.08,0.475,0.117,0.716a18.278,18.278,0,0,1,.738,6.244c0,0.773-.013,1.546-0.013,2.311v21.448c0,0.279.032,0.809,0.032,1.312a2.41,2.41,0,0,1-.15,1.1v0.594h-0.121c-0.088.127-.168,0.241-0.242,0.364h-0.244c-0.2.242-.407,0.487-0.611,0.727h-0.239c-0.2.234-.4,0.484-0.6,0.719h-0.245c-0.2.247-.405,0.487-0.608,0.727h-0.242c-0.246.284-.482,0.561-0.724,0.847H99.422v0.234h0.123c0.2,0.239.4,0.479,0.6,0.725h0.246c0.194,0.24.4,0.479,0.6,0.727,0.129,0.035.246,0.073,0.362,0.114,0.16,0.207.326,0.4,0.487,0.608h0.241v0.114c0.121,0.088.239,0.159,0.363,0.246l0.241,0.356h0.246c0.2,0.243.4,0.483,0.607,0.725h0.243c0.2,0.242.405,0.481,0.6,0.724h0.245c0.19,0.24.405,0.48,0.6,0.724h0.248c0.2,0.243.405,0.483,0.6,0.719h0.243c0.207,0.245.4,0.486,0.605,0.726h0.246c0.2,0.241.4,0.48,0.606,0.72h0.241v0.122a1.268,1.268,0,0,0,.6.365,4.955,4.955,0,0,1,.488-0.365c0.046-.076.08-0.162,0.117-0.239h0.248a1.757,1.757,0,0,0,.12-0.242c0.124-.041.242-0.074,0.363-0.12,0.123-.162.243-0.321,0.361-0.481h0.246c0.124-.165.242-0.319,0.359-0.486h0.243c0.083-.117.163-0.236,0.246-0.356h0.243c0.124-.158.234-0.325,0.36-0.479h0.233c0.091-.128.172-0.239,0.252-0.368h0.24c0.117-.164.251-0.321,0.366-0.483,0.118-.043.245-0.071,0.367-0.12,0.035-.072.079-0.164,0.118-0.235h0.247c0.115-.162.237-0.326,0.36-0.488h0.244c0.117-.158.243-0.317,0.358-0.479,0.117-.044.242-0.081,0.363-0.121,0.043-.08.081-0.163,0.121-0.239h0.246c0.116-.162.236-0.329,0.36-0.489h0.243c0.04-.057.078-0.116,0.118-0.175v0a1.525,1.525,0,0,1,.124-0.188h0.243c0.124-.154.239-0.319,0.36-0.482a2.677,2.677,0,0,0,.973-0.723h0.124a1.078,1.078,0,0,0-.247-0.484H117.7Zm210.413-.958c-0.407-.446-0.805-0.877-1.215-1.332-0.2-.153-0.405-0.311-0.6-0.475v-0.244c-0.325-.283-0.643-0.565-0.97-0.838V86.94c0-1.394.042-3.035,0.042-4.622a23.171,23.171,0,0,0-.4-5.254V76.216h-0.126c-0.038-.354-0.072-0.717-0.121-1.081H324.6V74.648h-0.122V74.289h-0.122V73.922h-0.121V73.565h-0.124c-0.039-.24-0.077-0.479-0.117-0.719h-0.124c-0.077-.24-0.16-0.484-0.235-0.727h-0.121v-0.24H323.4V71.64h-0.122V71.394h-0.129c-0.078-.238-0.166-0.478-0.237-0.727h-0.123c-0.04-.114-0.08-0.233-0.126-0.359-0.081-.038-0.153-0.076-0.241-0.114V69.949H322.3c-0.04-.116-0.083-0.24-0.129-0.356-0.078-.046-0.155-0.081-0.241-0.127V69.23c-0.116-.084-0.241-0.167-0.362-0.24V68.748c-0.159-.119-0.312-0.245-0.481-0.36V68.138c-0.321-.273-0.653-0.559-0.965-0.841-0.045-.125-0.085-0.24-0.122-0.354-0.086-.044-0.17-0.087-0.24-0.125-0.088-.119-0.173-0.24-0.248-0.363H319.27c-0.275-.317-0.566-0.632-0.845-0.968a3.624,3.624,0,0,1-.849-0.709,1.292,1.292,0,0,0-.6.351v0.125h-0.24c-0.2.233-.406,0.479-0.607,0.73h-0.12a2.217,2.217,0,0,0-.121.232h-0.249c-0.274.321-.563,0.641-0.843,0.957h-0.245c-0.279.335-.558,0.652-0.838,0.967-2.342,1.691-4.2,3.86-6.544,5.546-0.2.238-.407,0.484-0.6,0.722h-0.123c-0.037.086-.088,0.168-0.123,0.241h-0.236c-0.084.118-.17,0.248-0.248,0.362-0.525.446-1.048,0.882-1.578,1.332-0.319-1.178-.644-2.332-0.963-3.5h-0.115c-0.088-.24-0.172-0.484-0.25-0.727h-0.12v-0.24h-0.121V71.64h-0.12V71.394h-0.119V71.156l-0.248-.24V70.667h-0.114c-0.039-.114-0.091-0.233-0.126-0.359l-0.24-.114V69.949c-0.083-.038-0.162-0.083-0.242-0.116v-0.24c-0.075-.046-0.163-0.081-0.249-0.127V69.23c-0.111-.084-0.241-0.167-0.36-0.24V68.748c-0.115-.087-0.247-0.157-0.362-0.245-0.043-.116-0.082-0.237-0.126-0.365-0.235-.2-0.476-0.4-0.721-0.594V67.3c-0.325-.279-0.643-0.552-0.971-0.843-0.122-.159-0.235-0.317-0.356-0.471h-0.25c-0.235-.287-0.485-0.568-0.726-0.856h-0.241c-0.078-.119-0.164-0.24-0.236-0.351a1.335,1.335,0,0,0-.615.351v0.125h-0.241c-0.2.233-.4,0.479-0.6,0.73H295.3c-0.042.065-.075,0.154-0.118,0.232h-0.241c-0.287.321-.568,0.641-0.852,0.957h-0.24c-0.288.335-.571,0.652-0.849,0.967h-0.242c-0.241.289-.487,0.567-0.731,0.853h-0.241c-0.28.313-.559,0.636-0.843,0.959H290.7c-0.275.321-.57,0.648-0.847,0.967h-0.239c-0.291.317-.568,0.638-0.852,0.964h-0.242c-0.278.321-.568,0.64-0.847,0.967h-0.244V72.97c-0.16.116-.313,0.24-0.483,0.356-0.085.121-.157,0.24-0.235,0.359h-0.241c-0.293.325-.572,0.651-0.856,0.963h-0.241c-0.279.324-.571,0.646-0.852,0.97h-0.24c-0.284.313-.557,0.643-0.85,0.963h-0.241a4.08,4.08,0,0,0-.233.364c-0.292.241-.571,0.475-0.85,0.716h-0.12c0.018-.241.075-1.016,0.075-1.725a4.785,4.785,0,0,0-.075-1.04h-0.121a2.419,2.419,0,0,1,.121-0.248h-0.121c-0.045-.6-0.083-1.2-0.126-1.8h-0.118V72h-0.131V71.519h-0.111V71.156H281.26V70.791h-0.127c-0.069-.238-0.16-0.483-0.233-0.718h-0.129c-0.045-.162-0.072-0.321-0.115-0.48-0.083-.046-0.164-0.081-0.243-0.127-0.042-.163-0.086-0.321-0.124-0.476-0.127-.084-0.236-0.167-0.355-0.243V68.5c-0.126-.076-0.241-0.159-0.369-0.237V68.024c-0.241-.2-0.488-0.4-0.729-0.606V67.172c-0.274-.229-0.563-0.473-0.847-0.718-0.079-.114-0.159-0.24-0.234-0.359h-0.246c-0.244-.273-0.491-0.562-0.74-0.843h-0.232c-0.117-.156-0.241-0.322-0.364-0.476a1.988,1.988,0,0,0-.842.476q-0.069.126-.126,0.233h-0.241a1.977,1.977,0,0,1-.129.246h-0.112c-0.086.119-.164,0.251-0.249,0.363h-0.233c-0.125.156-.243,0.314-0.374,0.483h-0.235c-0.118.167-.241,0.321-0.363,0.479h-0.238c-0.132.167-.247,0.319-0.359,0.487H272.42c-0.164.194-.32,0.4-0.481,0.594H271.7c-0.126.168-.238,0.335-0.367,0.491H271.09l-0.486.6H270.36c-0.04.073-.077,0.157-0.121,0.237h-0.118c-0.037.081-.083,0.16-0.126,0.243h-0.236c-0.12.157-.241,0.316-0.361,0.484h-0.241c-0.044.076-.078,0.162-0.126,0.233H268.91c-0.037.087-.081,0.17-0.115,0.24h-0.25c-0.037.087-.08,0.165-0.118,0.249h-0.121c-0.039.078-.082,0.162-0.12,0.24h-0.247c-0.155.2-.313,0.4-0.482,0.6h-0.244A1.921,1.921,0,0,1,267.1,72h-0.125c-0.039.082-.078,0.159-0.124,0.24h-0.241c-0.164.209-.319,0.4-0.486,0.608h-0.236c-0.117.154-.239,0.313-0.367,0.479h-0.242c-0.118.154-.233,0.321-0.364,0.484h-0.235a3.657,3.657,0,0,0,.122.359h0.113v0.238h0.131v0.241a1.019,1.019,0,0,0,.233.118V75.01H265.4a2.918,2.918,0,0,0,.6.965V76.1c0.117-.052.248-0.081,0.367-0.127,0.04-.083.072-0.159,0.115-0.245h0.247c0.08-.113.161-0.232,0.239-0.354,0.208-.04.405-0.083,0.611-0.127,0.043-.086.077-0.152,0.115-0.24h0.241V74.9c0.167-.043.328-0.086,0.488-0.13V74.648h1.212a1.116,1.116,0,0,0,.482.248c0.041,0.076.081,0.159,0.118,0.24,0.167,0.114.328,0.241,0.486,0.364,0.081,0.236.169,0.476,0.25,0.717h0.115V76.7h0.12a3.828,3.828,0,0,0,.25,1.2v32.052c-0.331.283-.654,0.56-0.974,0.846v0.237c-0.565.525-1.133,1.047-1.691,1.568a4.16,4.16,0,0,1-1.212,1.324c0.184,0.29.134,0.076,0.356,0.239,0.167,0.2.328,0.411,0.488,0.6h0.249c0.153,0.2.309,0.405,0.481,0.6H269.4v0.12c0.12,0.089.241,0.162,0.369,0.248,0.03,0.073.076,0.154,0.111,0.233h0.243c0.038,0.05.079,0.1,0.118,0.148h0c0.08,0.1.159,0.2,0.244,0.306v0l0.118,0.15h0.245c0.16,0.2.324,0.405,0.482,0.6h0.241c0.2,0.243.4,0.483,0.606,0.725h0.242c0.163,0.2.321,0.41,0.479,0.6h0.245c0.16,0.2.329,0.4,0.488,0.6h0.235c0.172,0.2.336,0.4,0.494,0.607H274.6c0.161,0.2.324,0.4,0.482,0.605h0.247c0.161,0.195.317,0.4,0.483,0.6h0.241c0.152,0.2.309,0.4,0.482,0.6h0.232c0.09,0.122.176,0.244,0.249,0.364a2.066,2.066,0,0,0,.85-0.6V121.16h0.241c0.2-.239.4-0.484,0.611-0.723h0.247c0.2-.242.4-0.481,0.6-0.72h0.243c0.2-.239.4-0.479,0.605-0.718h0.243c0.2-.248.408-0.493,0.6-0.732h0.233c0.249-.284.5-0.561,0.737-0.843h0.235c0.2-.243.405-0.473,0.612-0.715h0.241c0.2-.244.408-0.493,0.6-0.733h0.241c0.2-.233.4-0.481,0.608-0.72h0.236c0.089-.113.157-0.24,0.244-0.361a7.378,7.378,0,0,0,.606-0.487h0.126v-0.117c-0.289-.234-0.563-0.477-0.854-0.721v-0.245c-0.2-.16-0.406-0.32-0.606-0.474-0.438-.487-0.888-0.973-1.331-1.448a2.924,2.924,0,0,1-1.083-1.209h-0.12a0.211,0.211,0,0,1-.024-0.078,0.221,0.221,0,0,1,.144-0.162V87.783c0-1.357.078-2.983,0.078-4.513a18.862,18.862,0,0,0-.2-3.073c0.27-.24.563-0.487,0.846-0.727,0.035-.083.081-0.159,0.124-0.24h0.233V79.11c0.126-.081.241-0.162,0.367-0.248,0.122-.151.232-0.317,0.363-0.481,1.472-1.047,2.665-2.326,4.115-3.371,0.091-.114.158-0.244,0.245-0.362,0.407-.313.807-0.638,1.208-0.963V73.565h0.126a4.159,4.159,0,0,0,.842,1.082,1.507,1.507,0,0,0,.244.118V75.01c0.121,0.087.244,0.154,0.357,0.24V75.5c0.129,0.071.249,0.162,0.365,0.236v0.24a2.342,2.342,0,0,1,.239.127v0.24c0.091,0.035.165,0.081,0.246,0.114V76.7c0.086,0.041.16,0.086,0.247,0.125v0.241c0.08,0.037.161,0.078,0.24,0.122v0.234l0.243,0.241V77.9h0.122v0.24h0.119v0.24H293v0.37h0.118v0.24h0.125v0.359h0.116v0.36h0.124v0.359H293.6a3.7,3.7,0,0,0,.249,1.206v29.046c-0.082.036-.166,0.074-0.249,0.12v0.232q-0.361.3-.723,0.606v0.24c-0.241.206-.484,0.4-0.724,0.6v0.24c-0.194.161-.4,0.323-0.6,0.487v0.233c-0.247.2-.5,0.4-0.732,0.6v0.242c-0.121.085-.242,0.161-0.365,0.239a1.11,1.11,0,0,0,.73.727c0.12,0.154.236,0.316,0.367,0.48h0.234c0.206,0.244.406,0.482,0.607,0.723h0.243c0.044,0.08.08,0.161,0.122,0.248h0.119c0.045,0.072.077,0.159,0.123,0.233h0.243c0.161,0.2.318,0.405,0.486,0.6h0.233c0.171,0.2.327,0.406,0.494,0.6H294.7c0.163,0.2.329,0.411,0.49,0.6h0.241c0.161,0.2.328,0.4,0.481,0.612h0.244c0.166,0.188.326,0.393,0.487,0.6h0.242c0.158,0.194.318,0.4,0.477,0.6H297.6c0.166,0.2.325,0.4,0.485,0.6h0.25c0.155,0.2.321,0.4,0.482,0.6h0.24c0.123,0.163.241,0.327,0.364,0.481a1.032,1.032,0,0,0,.486-0.242v-0.122h0.241V121.4l0.476-.362c0.048-.081.09-0.162,0.132-0.241h0.234c0.168-.2.327-0.405,0.49-0.6h0.242c0.2-.239.4-0.478,0.6-0.717h0.245c0.193-.24.4-0.479,0.611-0.727h0.241c0.158-.2.32-0.407,0.48-0.6h0.236c0.21-.242.41-0.484,0.608-0.724h0.24c0.211-.243.4-0.473,0.61-0.715h0.241c0.164-.2.321-0.412,0.484-0.611h0.246c0.161-.2.322-0.395,0.474-0.6,0.127-.039.248-0.079,0.373-0.12,0.038-.081.078-0.164,0.116-0.232,0.322-.248.649-0.491,0.971-0.735a2.951,2.951,0,0,0-1.087-1.2c-0.4-.446-0.807-0.877-1.212-1.332-0.2-.153-0.4-0.311-0.606-0.475v-0.244c-0.323-.283-0.64-0.565-0.972-0.838V78.381a2.559,2.559,0,0,0,.972-0.721V77.548h0.241V77.419c0.164-.126.321-0.234,0.484-0.356,0.086-.119.161-0.241,0.246-0.367h0.241c0.233-.275.481-0.56,0.722-0.835h0.244c0.246-.292.487-0.568,0.727-0.852h0.241c0.088-.114.168-0.244,0.246-0.362,0.4-.313.8-0.638,1.209-0.963V73.565h0.122a4.176,4.176,0,0,0,.847,1.082,1.306,1.306,0,0,0,.241.118V75.01c0.117,0.087.238,0.154,0.365,0.24V75.5c0.118,0.071.241,0.162,0.367,0.236v0.24c0.081,0.046.15,0.075,0.239,0.127v0.24c0.079,0.035.16,0.081,0.241,0.114V76.7c0.078,0.041.16,0.086,0.241,0.125v0.241c0.081,0.037.156,0.078,0.241,0.122v0.234l0.241,0.241V77.9h0.124v0.24h0.116v0.24h0.13v0.37h0.119v0.24h0.114v0.359h0.127v0.36h0.113v0.359h0.128a3.759,3.759,0,0,0,.237,1.206v29.046c-0.071.036-.156,0.074-0.237,0.12v0.232c-0.241.2-.482,0.405-0.731,0.606v0.24c-0.24.206-.481,0.4-0.722,0.6v0.24c-0.207.161-.4,0.323-0.6,0.487v0.233c-0.243.2-.484,0.4-0.732,0.6v0.242c-0.117.085-.241,0.161-0.358,0.239a1.137,1.137,0,0,0,.724.727c0.123,0.154.249,0.316,0.366,0.48h0.239c0.2,0.244.4,0.482,0.606,0.723h0.241c0.04,0.08.081,0.161,0.124,0.248h0.116c0.045,0.072.087,0.159,0.13,0.233h0.233c0.162,0.2.326,0.405,0.489,0.6h0.241c0.172,0.2.322,0.406,0.486,0.6H315.4c0.155,0.2.318,0.411,0.482,0.6h0.241c0.159,0.2.316,0.4,0.486,0.612h0.244c0.155,0.188.322,0.393,0.479,0.6h0.242c0.164,0.194.325,0.4,0.487,0.6h0.24c0.16,0.2.324,0.4,0.484,0.6h0.245c0.161,0.2.326,0.4,0.483,0.6h0.248c0.121,0.163.24,0.327,0.362,0.481a0.963,0.963,0,0,0,.478-0.242v-0.122h0.241V121.4c0.164-.123.327-0.242,0.483-0.362a1.8,1.8,0,0,0,.12-0.241h0.245c0.163-.2.327-0.405,0.482-0.6h0.244c0.21-.239.408-0.478,0.611-0.717h0.245c0.192-.24.394-0.479,0.6-0.727h0.241c0.167-.2.322-0.407,0.489-0.6h0.241q0.306-.363.6-0.724h0.244c0.207-.243.408-0.473,0.606-0.715h0.246c0.161-.2.314-0.412,0.486-0.611h0.236c0.164-.2.319-0.395,0.482-0.6l0.124-.04a0.153,0.153,0,0,1,.048-0.011c0.067-.028.124-0.046,0.2-0.069a2.015,2.015,0,0,1,.121-0.232c0.322-.248.645-0.491,0.967-0.735A3.018,3.018,0,0,0,328.113,113.21ZM154.627,82.238c-0.043-.117-0.078-0.24-0.125-0.356-0.083-.04-0.159-0.081-0.239-0.121v-0.24c-0.121-.084-0.245-0.162-0.367-0.248V81.043c-0.118-.084-0.24-0.167-0.36-0.248V80.552c-0.121-.078-0.243-0.16-0.367-0.236V80.068c-0.11-.073-0.244-0.16-0.356-0.232V79.589c-0.124-.072-0.248-0.164-0.368-0.235V79.11c-0.129-.081-0.246-0.162-0.36-0.24V78.622c-0.122-.078-0.241-0.151-0.367-0.241v-0.24c-0.118-.079-0.236-0.152-0.361-0.238-0.041-.119-0.086-0.243-0.119-0.355-0.088-.041-0.161-0.089-0.246-0.129V77.186c-0.116-.086-0.237-0.159-0.365-0.241V76.7a4.253,4.253,0,0,0-.367-0.23V76.221a3.476,3.476,0,0,0-.354-0.241V75.73c-0.131-.07-0.245-0.159-0.367-0.232V75.254c-0.123-.091-0.239-0.157-0.367-0.244-0.035-.114-0.073-0.244-0.116-0.362a1.935,1.935,0,0,1-.234-0.125V74.289c-0.128-.083-0.246-0.156-0.367-0.246-0.048-.121-0.086-0.233-0.125-0.359-0.086-.038-0.162-0.081-0.242-0.116v-0.24a2.2,2.2,0,0,0-.242-0.119c-0.044-.124-0.08-0.24-0.125-0.364a4.1,4.1,0,0,0-.36-0.24v-0.24c-0.161-.129-0.321-0.244-0.482-0.368V71.754c-0.129-.076-0.245-0.157-0.364-0.235V71.272c-0.122-.072-0.25-0.157-0.366-0.235V70.791c-0.118-.08-0.243-0.156-0.361-0.238V70.308a3.646,3.646,0,0,1-.36-0.238V69.83c-0.118-.078-0.243-0.163-0.364-0.237-0.041-.124-0.08-0.244-0.124-0.359-0.083-.041-0.16-0.094-0.239-0.125V68.864c-0.123-.078-0.249-0.159-0.369-0.237v-0.24c-0.116-.081-0.241-0.162-0.363-0.243V67.9c-0.12-.081-0.238-0.167-0.356-0.241V67.418c-0.121-.075-0.252-0.159-0.367-0.246V66.943c-0.121-.087-0.249-0.165-0.365-0.244-0.037-.121-0.082-0.245-0.126-0.359a1.922,1.922,0,0,0-.243-0.125V65.979c-0.114-.083-0.236-0.157-0.358-0.248a3.293,3.293,0,0,0-.48-0.724c-0.142-.133,0-0.052-0.248-0.121a3.015,3.015,0,0,1-.963.6v0.119h-0.247a2.12,2.12,0,0,1-.121.24c-0.157.046-.316,0.079-0.488,0.129-0.035.073-.074,0.157-0.118,0.235-0.163.037-.322,0.081-0.482,0.125-0.04.07-.078,0.16-0.121,0.238-0.156.038-.324,0.076-0.48,0.121a1.372,1.372,0,0,0-.117.244c-0.174.033-.325,0.075-0.491,0.122a2.132,2.132,0,0,0-.121.23c-0.244.081-.488,0.17-0.724,0.249a1.9,1.9,0,0,0-.121.232h-0.248l-0.24.248H136.1c-0.035.076-.073,0.152-0.118,0.243h-0.246l-0.242.235h-0.233v0.125h-0.244c-0.044.078-.081,0.159-0.116,0.237H134.65l-0.247.246h-0.235v0.125h-0.24v0.114h-0.246c-0.04.078-.085,0.156-0.121,0.244H133.32l-0.246.237h-0.239v0.119h-0.247V70.07h-0.241v0.124h-0.241c-0.041.076-.078,0.162-0.126,0.233-0.234.09-.481,0.17-0.717,0.24v0.124H131.02v0.125h-0.242v0.121h-0.246v0.114h-0.244v0.121h-0.239v0.119c-0.161.045-.319,0.087-0.485,0.129v0.114c-0.161.044-.317,0.087-0.49,0.121v0.126c-0.239.087-.481,0.159-0.714,0.243v0.116h-0.247v0.129h-0.238v0.111h-0.249v0.128h-0.237v0.119h-0.247v0.121c-0.158.043-.323,0.081-0.479,0.124v0.116c-0.164.035-.32,0.073-0.491,0.124v0.119c-0.243.078-.477,0.151-0.731,0.24v0.116c-0.153.043-.314,0.083-0.472,0.126v0.113h-0.363v0.121H124.36v0.119c-0.807.36-1.617,0.733-2.418,1.092,0.2,0.762.4,1.529,0.6,2.294a2.679,2.679,0,0,0,.606.236V77.9c0.161,0.114.325,0.238,0.488,0.356V78.5c0.077,0.04.156,0.084,0.238,0.117V78.87H124v0.24h0.12c0.041,0.244.078,0.48,0.118,0.727h0.124c0.035,0.883.074,1.767,0.121,2.645v24.1H124.36c-0.044.636-.084,1.281-0.124,1.925h-0.118c-0.038.359-.085,0.724-0.12,1.083-0.419,1.16-1.2,2.8-2.174,3.368,0.118,0.3.118,0.64,0.232,0.967h0.119v0.479H122.3c0.041,0.283.083,0.568,0.121,0.848,0.687,0.16,1.371.328,2.06,0.487v0.114h0.488v0.119h0.356V116.1h0.37v0.123h0.359v0.113h0.362v0.127h0.247v0.114c0.239,0.045.479,0.083,0.726,0.126v0.12c0.2,0.039.4,0.074,0.6,0.119v0.121h0.238v0.119h0.37v0.121c0.159,0.043.32,0.081,0.473,0.119v0.12h0.364v0.12c0.172,0.052.335,0.082,0.494,0.12v0.122h0.236v0.121h0.364v0.121h0.246v0.117c0.156,0.051.322,0.079,0.485,0.122v0.119H131.5v0.124h0.247v0.121h0.234v0.119h0.251V119c0.167,0.028.32,0.076,0.481,0.111v0.128c0.161,0.035.321,0.073,0.484,0.116v0.116h0.242V119.6h0.244l0.246,0.24h0.24c0.034,0.08.078,0.158,0.118,0.236h0.248l0.236,0.249h0.245v0.122h0.244v0.115h0.233c0.04,0.079.081,0.16,0.126,0.24,0.244,0.079.48,0.16,0.726,0.241,0.041,0.079.086,0.162,0.124,0.239,0.16,0.038.319,0.081,0.485,0.123v0.117a1.348,1.348,0,0,0,.6.248c0.059,0.033.027,0.133,0.139,0.133a0.48,0.48,0,0,0,.1-0.019v-0.114c0.115-.048.243-0.088,0.367-0.126a1.27,1.27,0,0,1,.124-0.239h0.233c0.08-.123.163-0.242,0.239-0.362,0.364-.2.728-0.4,1.095-0.6,0.039-.085.082-0.172,0.117-0.244,0.122-.041.243-0.084,0.367-0.127v-0.117h0.243a2.139,2.139,0,0,1,.121-0.239h0.241c0.078-.12.161-0.247,0.247-0.363h0.234c0.044-.081.082-0.167,0.126-0.244h0.243c0.036-.083.08-0.154,0.121-0.24h0.238c0.079-.119.167-0.24,0.244-0.364h0.239a1.976,1.976,0,0,0,.118-0.241H143a4.359,4.359,0,0,0,.249-0.359h0.246a1.949,1.949,0,0,1,.121-0.242c0.118-.039.236-0.077,0.356-0.12v-0.12h0.247c0.076-.119.159-0.24,0.236-0.359H144.7a1.991,1.991,0,0,1,.121-0.24h0.242c0.039-.09.078-0.163,0.121-0.246h0.243c0.076-.114.159-0.241,0.233-0.354h0.245c0.048-.084.082-0.161,0.125-0.249h0.234c0.088-.119.176-0.233,0.25-0.357a1.95,1.95,0,0,0,.729-0.484h0.241c-0.1-.8-0.676-1-0.851-1.678-0.646.434-1.289,0.876-1.933,1.314V114.9h-0.123v-0.124c-0.126-.039-0.246-0.08-0.362-0.119v-0.115h-0.247v-0.129h-0.238l-0.239-.24h-0.246c-0.04-.081-0.078-0.154-0.121-0.239-0.244-.078-0.488-0.158-0.727-0.242v-0.112h-0.244c-0.037-.081-0.077-0.17-0.12-0.245h-0.239l-0.243-.239h-0.245v-0.129h-0.246v-0.111h-0.239c-0.032-.087-0.08-0.164-0.118-0.246-0.166-.037-0.329-0.08-0.488-0.122v-0.119h-0.243v-0.123h-0.239v-0.117h-0.245l-0.241-.24h-0.241c-0.04-.086-0.078-0.155-0.121-0.24h-0.235l-0.245-.241h-0.241v-0.127h-0.252v-0.117h-0.236v-0.122h-0.244v-0.123h-0.244V110.8h-0.236a2.2,2.2,0,0,1-.121-0.244c-0.163-.042-0.33-0.08-0.488-0.115a4.1,4.1,0,0,0-1.209-.606V99.47c0.236-.2.483-0.4,0.727-0.6V98.748H136.1c0.208-.24.4-0.48,0.606-0.724h0.249c0.236-.276.48-0.559,0.724-0.843h0.236l0.609-.718h0.239c0.206-.248.406-0.487,0.61-0.727h0.236c0.21-.24.405-0.479,0.609-0.719h0.247c0.241-.282.482-0.56,0.729-0.851h0.234c0.2-.235.405-0.476,0.608-0.719h0.242q0.3-.359.6-0.719c1.67-1.206,3.054-2.654,4.722-3.859,0.2-.244.408-0.484,0.609-0.724h0.243V88.027c0.121-.076.239-0.165,0.367-0.245,0.07-.119.156-0.24,0.234-0.364H149.3c0.086-.125.158-0.24,0.239-0.359,0.122-.084.236-0.156,0.367-0.24V86.7h0.246c0.236-.283.475-0.56,0.724-0.843h0.245c0.195-.24.394-0.479,0.6-0.724h0.245c0.195-.24.4-0.483,0.6-0.722h0.248c0.246-.284.48-0.56,0.723-0.844h0.242a2.2,2.2,0,0,0,.118-0.243c0.329-.233.653-0.483,0.976-0.722a3.839,3.839,0,0,1-.124-0.364h-0.121Zm-8.478,4.216c-0.118.049-.243,0.089-0.361,0.127-0.2.24-.405,0.479-0.6,0.713H144.94c-0.2.249-.408,0.489-0.608,0.733h-0.241c-0.161.2-.325,0.4-0.478,0.6h-0.252c-0.193.244-.4,0.48-0.606,0.727h-0.243c-0.156.2-.315,0.4-0.478,0.6h-0.239c-0.2.241-.408,0.478-0.6,0.719h-0.247c-0.2.24-.407,0.479-0.6,0.727H140.1c-0.157.2-.316,0.4-0.488,0.6h-0.236c-0.2.232-.4,0.475-0.61,0.724h-0.239c-0.038.067-.076,0.157-0.116,0.24h-0.117c-0.089.119-.174,0.24-0.248,0.359H137.8c-0.2.24-.4,0.479-0.609,0.719h-0.236c-0.166.2-.325,0.411-0.485,0.6h-0.245c-0.2.238-.4,0.483-0.605,0.722a0.371,0.371,0,0,1-.148.076h-0.013a0.04,0.04,0,0,1-.018-0.013c0-.006-0.009-0.006-0.014-0.014H135.42a0.088,0.088,0,0,0-.054.051,0.578,0.578,0,0,0-.107.144h-0.124V71.754h0.236c0.049,0.126.086,0.245,0.121,0.368,0.126,0.078.242,0.163,0.37,0.244v0.24c0.118,0.073.236,0.152,0.361,0.24v0.24a3.95,3.95,0,0,1,.361.243v0.24c0.12,0.078.248,0.159,0.369,0.241v0.233c0.118,0.091.236,0.163,0.357,0.246v0.233c0.123,0.09.247,0.171,0.367,0.243V75.01c0.121,0.087.236,0.154,0.364,0.244V75.5c0.124,0.073.248,0.162,0.365,0.232V75.98a4,4,0,0,1,.355.241v0.245c0.125,0.068.246,0.151,0.364,0.23v0.249c0.085,0.038.166,0.082,0.246,0.116V77.3c0.118,0.086.236,0.159,0.363,0.248v0.236c0.122,0.076.239,0.163,0.361,0.233v0.241c0.121,0.089.245,0.167,0.368,0.246v0.246c0.12,0.076.241,0.157,0.359,0.24v0.24c0.123,0.081.239,0.157,0.37,0.235V79.71c0.115,0.081.234,0.162,0.36,0.24V80.2c0.122,0.076.243,0.157,0.364,0.24v0.235c0.118,0.079.238,0.163,0.36,0.238v0.246c0.122,0.079.236,0.162,0.361,0.243a3.539,3.539,0,0,1,.118.364c0.089,0.04.167,0.081,0.242,0.121v0.238c0.128,0.078.249,0.156,0.364,0.24,0.045,0.121.086,0.241,0.131,0.365,0.076,0.032.161,0.083,0.239,0.116v0.249c0.118,0.071.238,0.157,0.36,0.233v0.243c0.125,0.079.241,0.163,0.361,0.241v0.238c0.126,0.081.249,0.163,0.37,0.24v0.24c0.118,0.087.242,0.171,0.363,0.244v0.244c0.125,0.078.243,0.159,0.358,0.235a2.707,2.707,0,0,0,.606.852v0.352ZM365.4,82.238h-0.126c-0.029-.117-0.075-0.24-0.115-0.356-0.085-.04-0.158-0.081-0.245-0.121v-0.24c-0.119-.084-0.241-0.162-0.37-0.248V81.043c-0.111-.084-0.227-0.167-0.355-0.248V80.552c-0.113-.078-0.24-0.16-0.362-0.236V80.068c-0.114-.073-0.247-0.16-0.365-0.232V79.589c-0.116-.072-0.241-0.164-0.356-0.235V79.11l-0.366-.24V78.622c-0.129-.078-0.241-0.151-0.365-0.241v-0.24c-0.125-.079-0.24-0.152-0.358-0.238-0.041-.119-0.084-0.243-0.129-0.355-0.081-.041-0.155-0.089-0.241-0.129V77.186c-0.119-.086-0.241-0.159-0.365-0.241V76.7c-0.124-.079-0.241-0.162-0.365-0.23V76.221a2.852,2.852,0,0,0-.361-0.241V75.73c-0.114-.07-0.24-0.159-0.355-0.232V75.254c-0.126-.091-0.251-0.157-0.367-0.244-0.035-.114-0.081-0.244-0.126-0.362-0.085-.035-0.156-0.081-0.241-0.125V74.289c-0.123-.083-0.236-0.156-0.36-0.246-0.039-.121-0.09-0.233-0.123-0.359-0.078-.038-0.156-0.081-0.241-0.116v-0.24a2.325,2.325,0,0,0-.245-0.119c-0.044-.124-0.079-0.24-0.122-0.364-0.119-.087-0.24-0.167-0.36-0.24v-0.24c-0.168-.129-0.319-0.244-0.487-0.368V71.754c-0.119-.076-0.232-0.157-0.357-0.235V71.272c-0.127-.072-0.241-0.157-0.363-0.235V70.791c-0.119-.08-0.251-0.156-0.367-0.238V70.308c-0.12-.076-0.241-0.149-0.365-0.238V69.83c-0.125-.078-0.237-0.163-0.358-0.237-0.036-.124-0.081-0.244-0.127-0.359a1.983,1.983,0,0,0-.246-0.125V68.864c-0.116-.078-0.236-0.159-0.357-0.237v-0.24q-0.175-.122-0.365-0.243V67.9c-0.115-.081-0.248-0.167-0.362-0.241V67.418c-0.113-.075-0.236-0.159-0.359-0.246V66.943c-0.117-.087-0.251-0.165-0.359-0.244-0.051-.121-0.089-0.245-0.132-0.359-0.072-.044-0.165-0.089-0.228-0.125V65.979c-0.138-.083-0.251-0.157-0.375-0.248a2.968,2.968,0,0,0-.487-0.724c-0.134-.133,0-0.052-0.24-0.121a3.138,3.138,0,0,1-.967.6v0.119h-0.241c-0.036.084-.081,0.159-0.124,0.24-0.16.046-.318,0.079-0.475,0.129a1.712,1.712,0,0,0-.123.235c-0.163.037-.33,0.081-0.485,0.125a2.423,2.423,0,0,0-.121.238c-0.161.038-.322,0.076-0.485,0.121-0.037.079-.086,0.157-0.124,0.244-0.163.033-.319,0.075-0.482,0.122-0.035.07-.083,0.159-0.129,0.23-0.241.081-.477,0.17-0.723,0.249-0.038.076-.083,0.16-0.119,0.232h-0.236l-0.254.248h-0.238c-0.038.076-.078,0.152-0.119,0.243h-0.243l-0.234.235h-0.249v0.125h-0.242c-0.043.078-.082,0.159-0.121,0.237h-0.238l-0.247.246h-0.241v0.125h-0.244v0.114h-0.246c-0.04.078-.073,0.156-0.116,0.244h-0.235l-0.25.237h-0.236v0.119H343.24V70.07H343v0.124H342.75a1.123,1.123,0,0,1-.114.233c-0.241.09-.48,0.17-0.721,0.24v0.124h-0.247v0.125h-0.235v0.121h-0.241v0.114h-0.247v0.121H340.7v0.119q-0.239.067-.48,0.129v0.114c-0.164.044-.322,0.087-0.491,0.121v0.126c-0.238.087-.479,0.159-0.719,0.243v0.116h-0.252v0.129h-0.233v0.111h-0.249v0.128h-0.238v0.119H337.8v0.121c-0.159.043-.319,0.081-0.481,0.124v0.116c-0.168.035-.319,0.073-0.485,0.124v0.119c-0.241.078-.482,0.151-0.724,0.24v0.116c-0.168.043-.327,0.083-0.485,0.126v0.113h-0.362v0.121h-0.25v0.119c-0.8.36-1.615,0.733-2.415,1.092,0.2,0.762.4,1.529,0.606,2.294a2.565,2.565,0,0,0,.6.236V77.9c0.163,0.114.322,0.238,0.485,0.356V78.5c0.081,0.04.166,0.084,0.232,0.117V78.87h0.13v0.24h0.116c0.048,0.244.086,0.48,0.125,0.727h0.118c0.054,0.883.079,1.767,0.126,2.645v24.1h-0.126c-0.034.636-.08,1.281-0.118,1.925h-0.125c-0.035.359-.07,0.724-0.116,1.083-0.413,1.16-1.19,2.8-2.18,3.368,0.124,0.3.116,0.64,0.242,0.967h0.124v0.479h0.123c0.034,0.283.074,0.568,0.114,0.848,0.69,0.16,1.381.328,2.062,0.487v0.114h0.486v0.119h0.357V116.1h0.37v0.123h0.364v0.113h0.363v0.127h0.24v0.114c0.24,0.045.481,0.083,0.725,0.126v0.12c0.2,0.039.407,0.074,0.6,0.119v0.121h0.241v0.119h0.368v0.121c0.16,0.043.324,0.081,0.479,0.119v0.12H340.1v0.12c0.155,0.052.319,0.082,0.483,0.12v0.122h0.235v0.121h0.371v0.121h0.241v0.117c0.158,0.051.322,0.079,0.482,0.122v0.119h0.241v0.124H342.4v0.121h0.241v0.119h0.248V119c0.16,0.028.315,0.076,0.484,0.111v0.128c0.161,0.035.32,0.073,0.48,0.116v0.116h0.24V119.6h0.241l0.246,0.24h0.244a2.618,2.618,0,0,0,.12.236h0.242l0.241,0.249h0.244v0.122h0.242v0.115h0.249a1.453,1.453,0,0,0,.12.24c0.242,0.079.476,0.16,0.714,0.241,0.046,0.079.091,0.162,0.128,0.239,0.169,0.038.328,0.081,0.481,0.123v0.117a1.376,1.376,0,0,0,.606.248,0.153,0.153,0,0,1,.024.009,0.191,0.191,0,0,0,.083.116,0.064,0.064,0,0,0,.032.008,0.448,0.448,0,0,0,.107-0.019v-0.114c0.126-.048.234-0.088,0.36-0.126,0.045-.076.079-0.162,0.122-0.239h0.244c0.078-.123.159-0.242,0.24-0.362,0.372-.2.731-0.4,1.093-0.6,0.044-.085.076-0.172,0.119-0.244l0.362-.127v-0.117h0.241c0.045-.081.088-0.165,0.125-0.239h0.24c0.082-.12.165-0.247,0.238-0.363h0.243c0.039-.081.087-0.167,0.126-0.244h0.242c0.037-.083.076-0.154,0.123-0.24h0.236c0.083-.119.167-0.24,0.237-0.364h0.247c0.047-.082.083-0.162,0.119-0.241h0.24c0.09-.117.166-0.238,0.251-0.359h0.246a1.62,1.62,0,0,1,.113-0.242c0.114-.039.247-0.077,0.362-0.12v-0.12h0.248c0.072-.119.155-0.24,0.238-0.359h0.236c0.046-.087.09-0.166,0.132-0.24h0.241c0.035-.09.082-0.163,0.121-0.246h0.237c0.087-.114.172-0.241,0.245-0.354h0.236c0.046-.084.08-0.161,0.132-0.249h0.241c0.079-.119.152-0.233,0.241-0.357a1.919,1.919,0,0,0,.723-0.484h0.241c-0.1-.8-0.673-1-0.839-1.678-0.659.434-1.3,0.876-1.951,1.314a0.323,0.323,0,0,0-.033.124c0,0.019,0,.024-0.083,0v-0.124l-0.358-.119v-0.115h-0.248v-0.129h-0.248l-0.227-.24H353.9a2.641,2.641,0,0,1-.117-0.239c-0.242-.078-0.493-0.158-0.74-0.242v-0.112h-0.237a2.54,2.54,0,0,0-.122-0.245h-0.237l-0.242-.239h-0.241v-0.129h-0.249v-0.111h-0.241c-0.035-.087-0.081-0.164-0.116-0.246-0.164-.037-0.321-0.08-0.487-0.122v-0.119H350.63v-0.123h-0.244v-0.117h-0.237l-0.252-.24h-0.233c-0.042-.086-0.086-0.155-0.121-0.24h-0.249l-0.236-.241h-0.246v-0.127h-0.234v-0.117h-0.255v-0.122h-0.241v-0.123h-0.236V110.8H347.6c-0.038-.086-0.083-0.165-0.119-0.244-0.158-.042-0.327-0.08-0.49-0.115a4,4,0,0,0-1.2-.606V99.47c0.241-.2.487-0.4,0.729-0.6V98.748h0.234c0.2-.24.4-0.48,0.606-0.724H347.6c0.246-.276.482-0.559,0.723-0.843h0.255c0.193-.238.394-0.476,0.6-0.718h0.24c0.2-.248.4-0.487,0.608-0.727h0.246c0.2-.24.393-0.479,0.6-0.719h0.241c0.246-.282.486-0.56,0.724-0.851h0.243c0.2-.235.4-0.476,0.605-0.719h0.246c0.2-.24.407-0.479,0.611-0.719,1.67-1.206,3.051-2.654,4.713-3.859,0.2-.244.411-0.484,0.609-0.724H359.1V88.027c0.124-.076.237-0.165,0.36-0.245,0.085-.119.156-0.24,0.241-0.364h0.242c0.082-.125.161-0.24,0.251-0.359,0.115-.084.241-0.156,0.355-0.24V86.7H360.8c0.234-.283.475-0.56,0.721-0.843h0.24c0.208-.24.4-0.479,0.607-0.724h0.236c0.207-.24.4-0.483,0.61-0.722h0.241c0.251-.284.487-0.56,0.727-0.844h0.244a1.99,1.99,0,0,0,.111-0.243c0.331-.233.655-0.483,0.971-0.722A3.284,3.284,0,0,0,365.4,82.238Zm-8.591,4.216c-0.119.049-.251,0.089-0.367,0.127-0.193.24-.4,0.479-0.6,0.713h-0.248c-0.2.249-.4,0.489-0.6,0.733h-0.239c-0.165.2-.33,0.4-0.488,0.6h-0.236c-0.208.244-.412,0.48-0.614,0.727h-0.228c-0.166.2-.335,0.4-0.5,0.6h-0.237c-0.2.241-.4,0.478-0.611,0.719H351.6c-0.205.24-.4,0.479-0.606,0.727h-0.245c-0.16.2-.318,0.4-0.475,0.6h-0.246c-0.207.232-.4,0.475-0.608,0.724h-0.24a1.587,1.587,0,0,0-.12.24h-0.124c-0.077.119-.163,0.24-0.248,0.359h-0.234c-0.2.24-.409,0.479-0.606,0.719H347.6c-0.153.2-.312,0.411-0.481,0.6h-0.236c-0.208.238-.414,0.483-0.606,0.722a0.477,0.477,0,0,1-.141.076h-0.008a0.022,0.022,0,0,1-.024-0.013,0.156,0.156,0,0,0-.03-0.014,0.375,0.375,0,0,0-.166.2H345.79V71.754h0.241c0.043,0.126.083,0.245,0.126,0.368,0.12,0.078.234,0.163,0.362,0.244v0.24c0.115,0.073.234,0.152,0.364,0.24v0.24c0.108,0.073.236,0.154,0.362,0.243v0.24c0.114,0.078.236,0.159,0.355,0.241v0.233c0.121,0.091.246,0.163,0.366,0.246v0.233a3.861,3.861,0,0,0,.357.243V75.01c0.129,0.087.255,0.154,0.363,0.244V75.5c0.126,0.073.248,0.162,0.372,0.232V75.98c0.12,0.07.236,0.157,0.36,0.241v0.245c0.125,0.068.246,0.151,0.372,0.23v0.249c0.069,0.038.158,0.082,0.236,0.116V77.3c0.123,0.086.246,0.159,0.36,0.248v0.236c0.125,0.076.244,0.163,0.361,0.233v0.241c0.124,0.089.245,0.167,0.365,0.246v0.246c0.121,0.076.246,0.157,0.362,0.24v0.24l0.362,0.235V79.71c0.128,0.081.243,0.162,0.369,0.24V80.2c0.114,0.076.242,0.157,0.365,0.24v0.235c0.114,0.079.236,0.163,0.36,0.238v0.246c0.113,0.079.251,0.162,0.36,0.243,0.047,0.124.083,0.241,0.119,0.364,0.081,0.04.166,0.081,0.24,0.121v0.238c0.134,0.078.251,0.156,0.374,0.24,0.035,0.121.078,0.241,0.123,0.365,0.066,0.032.16,0.083,0.227,0.116v0.249c0.133,0.071.248,0.157,0.374,0.233v0.243c0.122,0.079.239,0.163,0.36,0.241v0.238c0.12,0.081.236,0.163,0.368,0.24v0.24a4.057,4.057,0,0,0,.362.244v0.244c0.112,0.078.237,0.159,0.361,0.235a2.59,2.59,0,0,0,.608.852v0.352Z"/>
  <text id="shreveporttimes.com" class="cls-2" transform="translate(558.384 90) scale(1.995 2)"><tspan x="0">shreveporttimes.com</tspan></text>
  <path id="USAT_Network" data-name="USAT Network" class="cls-3" d="M431.989,106.273h4.489c3.156,0,5.267,1.865,5.267,4.741s-2.155,4.735-5.267,4.735h-2.29v5.925h-2.2v-15.4Zm4.267,7.659c2.112,0,3.244-1.163,3.244-2.918,0-1.736-1.132-2.919-3.244-2.919h-2.068v5.837h2.068Zm11.768-7.659h1.955l6.4,15.4h-2.358l-1.6-4.035h-6.911l-1.6,4.035H441.6S447.244,108.162,448.024,106.273Zm3.665,9.544-1.488-3.794c-0.222-.572-1.179-2.942-1.2-3.139h-0.043c-0.022.2-.955,2.5-1.2,3.139l-1.51,3.794h5.443Zm6.924-9.544h4.51c2.91,0,5.178,1.5,5.178,4.563a4.293,4.293,0,0,1-3.955,4.346l4.778,6.492h-2.579l-4.51-6.276h-1.223v6.276h-2.2v-15.4Zm4.267,7.351c2.043,0,3.2-1.077,3.2-2.764s-1.157-2.765-3.2-2.765h-2.068v5.529h2.068Zm11.522-5.486h-4.445v-1.865h11.089v1.865H476.6v13.536h-2.2V108.138Zm12.348,5.838a8.2,8.2,0,1,1,8.2,8A7.861,7.861,0,0,1,486.75,113.976Zm14.132,0a5.946,5.946,0,1,0-5.955,6.053A5.772,5.772,0,0,0,500.882,113.976Zm5.433-7.7h7.867v1.865h-5.668V113.1H514v1.865h-5.49v6.713h-2.2v-15.4Zm17.815,1.865h-4.444v-1.865h11.088v1.865H526.33v13.536h-2.2V108.138Zm8.953-1.865h2.2v6.318h8.178v-6.318h2.2v15.4h-2.2v-7.218h-8.178v7.218h-2.2v-15.4Zm16.631,0h8.49v1.846h-6.29v4.472h6.11v1.846h-6.11v5.395h6.422v1.842h-8.622v-15.4Zm16,10.092V106.273h2.221v9.433c0,2.679,1.157,4.323,3.756,4.323,2.622,0,3.78-1.644,3.78-4.323v-9.433h2.221v10.092c0,3.38-2.2,5.616-6,5.616C567.865,121.981,565.71,119.745,565.71,116.365Zm14.274,2.524,1.491-1.25a4.52,4.52,0,0,0,3.911,2.433c1.709,0,3.044-.918,3.044-2.611,0-1.817-1.534-2.433-3.446-3.178-1.956-.769-3.933-1.736-3.933-4.193,0-2.432,1.912-4.12,4.712-4.12a5.248,5.248,0,0,1,4.579,2.322l-1.491,1.25a3.552,3.552,0,0,0-3.088-1.668c-1.512,0-2.511.769-2.511,2.063,0,1.6,1.554,2.13,2.911,2.654,2.2,0.856,4.466,1.889,4.466,4.716,0,2.679-2,4.674-5.2,4.674A6.064,6.064,0,0,1,579.984,118.889Zm18.241-12.616h1.956l6.4,15.4h-2.357l-1.6-4.035h-6.912l-1.6,4.035H591.8S597.446,108.162,598.225,106.273Zm3.665,9.544-1.487-3.794c-0.222-.572-1.179-2.942-1.2-3.139h-0.044c-0.022.2-.955,2.5-1.2,3.139l-1.51,3.794h5.443Zm13.978-7.679h-4.445v-1.865h11.088v1.865h-4.444v13.536h-2.2V108.138Zm7.469,5.838a8.2,8.2,0,1,1,8.2,8A7.861,7.861,0,0,1,623.337,113.976Zm14.132,0a5.945,5.945,0,1,0-5.954,6.053A5.772,5.772,0,0,0,637.469,113.976Zm5.434-7.7h4.423c4.977,0,8.265,2.808,8.265,7.7,0,4.87-3.312,7.7-8.265,7.7H642.9v-15.4Zm2.2,13.534h2.046c3.643,0,6.176-1.9,6.176-5.831s-2.533-5.838-6.176-5.838H645.1v11.669Zm17.637-13.534H664.7l6.4,15.4h-2.357l-1.6-4.035h-6.912l-1.6,4.035h-2.311S661.96,108.162,662.739,106.273Zm3.666,9.544-1.489-3.794c-0.221-.572-1.178-2.942-1.2-3.139h-0.044c-0.022.2-.955,2.5-1.2,3.139l-1.51,3.794h5.444Zm9.084-.419-5.312-9.125h2.467l2.889,5.135a22.887,22.887,0,0,1,1.11,2.192h0.022a23.153,23.153,0,0,1,1.113-2.192l2.91-5.135h2.4l-5.309,9.125v6.276h-2.289V115.4Zm14.062-9.125h1.687l8.846,9.982c0.266,0.288,1.422,1.711,1.534,1.932l0.044-.023c-0.044-.217-0.044-2-0.044-2.39v-9.5h2.134v15.4h-1.713l-8.845-9.983c-0.265-.283-1.422-1.711-1.532-1.928l-0.021.02c0.021,0.221.043,2,.043,2.394v9.5h-2.133v-15.4Zm18.253,0h8.487v1.846H710v4.472h6.113v1.846H710v5.395h6.422v1.842H707.8v-15.4Zm15.37,1.865h-4.445v-1.865h11.089v1.865h-4.445v13.536h-2.2V108.138Zm8.477-1.865h2.334l3.2,9.15c0.112,0.351.867,2.63,0.889,2.981h0.046a30.445,30.445,0,0,1,.933-2.981l3.334-9.15h1.756l3.332,9.15c0.133,0.351.91,2.63,0.935,2.981h0.044c0.044-.351.8-2.63,0.91-2.981l3.179-9.15h2.243l-5.49,15.4h-1.688l-3.6-9.607a25.578,25.578,0,0,1-.758-2.5h-0.044a25.421,25.421,0,0,1-.776,2.5l-3.578,9.607h-1.69Zm24.118,7.7a8.2,8.2,0,1,1,8.2,8A7.862,7.862,0,0,1,755.769,113.976Zm14.133,0a5.946,5.946,0,1,0-5.955,6.053A5.772,5.772,0,0,0,769.9,113.976Zm5.433-7.7h4.511c2.913,0,5.177,1.5,5.177,4.563a4.293,4.293,0,0,1-3.955,4.346l4.779,6.492h-2.579l-4.511-6.276h-1.222v6.276h-2.2v-15.4Zm4.267,7.351c2.044,0,3.2-1.077,3.2-2.764s-1.156-2.765-3.2-2.765h-2.067v5.529H779.6Zm8.736-7.351h2.2v7.154l6.444-7.154h2.666l-6.687,7.351,7,8.05h-2.754l-6.668-7.785v7.785h-2.2v-15.4Z"/>
</svg>
