<svg xmlns="http://www.w3.org/2000/svg" width="349" height="55" viewBox="0 0 349 55">
  <g fill="none" fill-rule="evenodd">
    <path class='no-color-change' fill="#009BFF" d="M54.177,27.824 C54.177,42.737 42.09,54.824 27.177,54.824 C12.264,54.824 0.177,42.737 0.177,27.824 C0.177,12.911 12.264,0.824 27.177,0.824 C42.09,0.824 54.177,12.911 54.177,27.824"/>
    <path fill="#404040" d="M69.537 21.551C70.516 21.551 71.272 21.263 71.805 20.686 72.338 20.109 72.606 19.287 72.606 18.22L72.606 7.441 77.485 7.441 77.485 18.194C77.485 20.555 76.793 22.382 75.412 23.676 74.031 24.97 72.072 25.617 69.537 25.617 67.002 25.617 65.043 24.97 63.662 23.676 62.28 22.382 61.59 20.555 61.59 18.194L61.59 7.441 66.469 7.441 66.469 18.22C66.469 19.287 66.735 20.109 67.268 20.686 67.801 21.263 68.557 21.551 69.537 21.551M87.24 25.617C85.789 25.617 84.399 25.368 83.071 24.87 81.742 24.37 80.588 23.659 79.61 22.732L81.969 19.768C82.668 20.397 83.455 20.892 84.33 21.249 85.203 21.608 86.166 21.787 87.215 21.787 87.914 21.787 88.465 21.665 88.867 21.42 89.27 21.175 89.471 20.808 89.471 20.319 89.471 19.846 89.235 19.466 88.762 19.178 88.291 18.889 87.459 18.587 86.272 18.273L85.17 17.984C83.561 17.565 82.336 16.922 81.496 16.056 80.658 15.191 80.239 14.094 80.239 12.765 80.239 11.628 80.535 10.631 81.129 9.775 81.725 8.918 82.547 8.258 83.596 7.794 84.645 7.331 85.86 7.099 87.24 7.099 88.606 7.099 89.908 7.349 91.149 7.847 92.391 8.345 93.492 9.023 94.453 9.879L92.014 12.949C91.385 12.407 90.647 11.934 89.799 11.532 88.949 11.13 88.108 10.929 87.268 10.929 86.569 10.929 86.03 11.047 85.655 11.283 85.278 11.519 85.09 11.865 85.09 12.319 85.09 12.739 85.287 13.102 85.68 13.408 86.074 13.713 86.752 13.997 87.713 14.26L89.051 14.627C90.975 15.152 92.334 15.869 93.129 16.778 93.924 17.687 94.323 18.745 94.323 19.952 94.323 21.088 94.03 22.08 93.444 22.928 92.858 23.777 92.032 24.437 90.965 24.909 89.899 25.38 88.658 25.617 87.24 25.617M102.481 18.326L106.703 18.326 104.606 12.082 102.481 18.326zM109.063 25.276L107.936 21.945 101.248 21.945 100.119 25.276 95.293 25.276 101.824 7.441 107.49 7.441 114.022 25.276 109.063 25.276 109.063 25.276z"/>
    <polyline fill="#404040" points="125.219 25.276 125.219 11.374 119.922 11.374 119.922 7.441 135.397 7.441 135.397 11.374 130.098 11.374 130.098 25.276 125.219 25.276"/>
    <path fill="#404040" d="M145.6 21.578C146.455 21.578 147.203 21.359 147.842 20.922 148.481 20.485 148.983 19.877 149.35 19.099 149.717 18.321 149.901 17.416 149.901 16.384 149.901 15.353 149.717 14.444 149.35 13.657 148.983 12.87 148.481 12.253 147.842 11.807 147.203 11.362 146.455 11.139 145.6 11.139 144.742 11.139 143.994 11.362 143.356 11.807 142.719 12.253 142.215 12.87 141.848 13.657 141.481 14.444 141.297 15.353 141.297 16.384 141.297 17.416 141.481 18.321 141.848 19.099 142.215 19.877 142.719 20.485 143.356 20.922 143.994 21.359 144.742 21.578 145.6 21.578zM145.6 25.617C143.815 25.617 142.229 25.223 140.838 24.437 139.449 23.65 138.352 22.561 137.547 21.171 136.742 19.781 136.34 18.186 136.34 16.384 136.34 15.02 136.567 13.775 137.022 12.647 137.477 11.519 138.123 10.539 138.963 9.709 139.803 8.879 140.782 8.236 141.901 7.782 143.02 7.327 144.252 7.099 145.6 7.099 146.946 7.099 148.178 7.327 149.297 7.782 150.416 8.236 151.395 8.879 152.235 9.709 153.074 10.539 153.721 11.519 154.176 12.647 154.631 13.775 154.858 15.02 154.858 16.384 154.858 18.186 154.455 19.781 153.651 21.171 152.846 22.561 151.75 23.65 150.36 24.437 148.969 25.223 147.383 25.617 145.6 25.617L145.6 25.617zM162.463 21.42L164.694 21.42C165.969 21.42 166.979 20.957 167.723 20.03 168.465 19.104 168.838 17.879 168.838 16.358 168.838 14.836 168.465 13.613 167.723 12.686 166.979 11.759 165.969 11.296 164.694 11.296L162.463 11.296 162.463 21.42zM157.664 25.276L157.664 7.441 164.694 7.441C166.459 7.441 168.02 7.821 169.375 8.581 170.731 9.342 171.793 10.391 172.563 11.729 173.33 13.067 173.715 14.61 173.715 16.358 173.715 18.107 173.33 19.65 172.563 20.988 171.793 22.325 170.731 23.374 169.375 24.135 168.02 24.896 166.459 25.276 164.694 25.276L157.664 25.276 157.664 25.276zM181.532 18.326L185.754 18.326 183.657 12.082 181.532 18.326zM188.115 25.276L186.989 21.945 180.299 21.945 179.172 25.276 174.346 25.276 180.877 7.441 186.541 7.441 193.073 25.276 188.115 25.276 188.115 25.276z"/>
    <polyline fill="#404040" points="202.514 18.85 202.514 25.276 197.557 25.276 197.557 18.85 191.237 7.441 196.744 7.441 200.049 14.522 203.326 7.441 208.834 7.441 202.514 18.85"/>
    <polyline fill="#404040" points="227.797 25.276 220.795 14.995 220.795 25.276 216.309 25.276 216.309 7.441 220.768 7.441 227.744 17.906 227.744 7.441 232.256 7.441 232.256 25.276 227.797 25.276"/>
    <polyline fill="#404040" points="236.192 25.276 236.192 7.441 248.492 7.441 248.492 11.348 240.965 11.348 240.965 14.365 247.653 14.365 247.653 18.273 240.965 18.273 240.965 21.368 248.912 21.368 248.912 25.276 236.192 25.276"/>
    <polyline fill="#404040" points="255.914 25.276 255.914 11.374 250.617 11.374 250.617 7.441 266.092 7.441 266.092 11.374 260.793 11.374 260.793 25.276 255.914 25.276"/>
    <polyline fill="#404040" points="282.563 25.276 279.678 13.683 276.791 25.276 271.625 25.276 267.192 7.441 271.914 7.441 274.615 19.611 277.606 7.441 281.776 7.441 284.739 19.532 287.52 7.441 292.162 7.441 287.729 25.276 282.563 25.276"/>
    <path fill="#404040" d="M302.549 21.578C303.405 21.578 304.153 21.359 304.791 20.922 305.43 20.485 305.932 19.877 306.299 19.099 306.666 18.321 306.85 17.416 306.85 16.384 306.85 15.353 306.666 14.444 306.299 13.657 305.932 12.87 305.43 12.253 304.791 11.807 304.153 11.362 303.405 11.139 302.549 11.139 301.692 11.139 300.944 11.362 300.305 11.807 299.668 12.253 299.164 12.87 298.797 13.657 298.43 14.444 298.246 15.353 298.246 16.384 298.246 17.416 298.43 18.321 298.797 19.099 299.164 19.877 299.668 20.485 300.305 20.922 300.944 21.359 301.692 21.578 302.549 21.578zM302.549 25.617C300.764 25.617 299.178 25.223 297.787 24.437 296.399 23.65 295.301 22.561 294.496 21.171 293.692 19.781 293.289 18.186 293.289 16.384 293.289 15.02 293.516 13.775 293.971 12.647 294.426 11.519 295.073 10.539 295.912 9.709 296.752 8.879 297.731 8.236 298.85 7.782 299.969 7.327 301.201 7.099 302.549 7.099 303.895 7.099 305.127 7.327 306.246 7.782 307.365 8.236 308.344 8.879 309.184 9.709 310.024 10.539 310.67 11.519 311.125 12.647 311.58 13.775 311.807 15.02 311.807 16.384 311.807 18.186 311.405 19.781 310.6 21.171 309.795 22.561 308.699 23.65 307.309 24.437 305.918 25.223 304.332 25.617 302.549 25.617L302.549 25.617zM319.387 15.65L322.01 15.65C322.762 15.65 323.356 15.454 323.793 15.06 324.231 14.666 324.449 14.128 324.449 13.447 324.449 12.8 324.231 12.28 323.793 11.886 323.356 11.493 322.762 11.296 322.01 11.296L319.387 11.296 319.387 15.65zM319.387 19.348L319.387 25.276 314.666 25.276 314.666 7.441 322.535 7.441C324.633 7.441 326.293 7.978 327.518 9.053 328.742 10.128 329.354 11.593 329.354 13.447 329.354 14.653 329.082 15.694 328.541 16.568 327.998 17.443 327.239 18.124 326.26 18.614L329.905 25.276 324.711 25.276 321.748 19.348 319.387 19.348 319.387 19.348z"/>
    <polyline fill="#404040" points="343.045 25.276 337.379 16.556 337.379 25.276 332.528 25.276 332.528 7.441 337.379 7.441 337.379 15.27 343.254 7.441 348.867 7.441 342.258 15.637 348.737 25.276 343.045 25.276"/>
    <path class='no-color-change' fill="#009BFF" d="M69.221,48.47 C67.77,48.47 66.379,48.221 65.051,47.723 C63.723,47.224 62.569,46.512 61.59,45.585 L63.949,42.621 C64.649,43.25 65.436,43.745 66.311,44.103 C67.184,44.461 68.147,44.641 69.196,44.641 C69.895,44.641 70.446,44.519 70.848,44.274 C71.25,44.029 71.451,43.662 71.451,43.172 C71.451,42.7 71.215,42.32 70.742,42.032 C70.272,41.743 69.44,41.441 68.252,41.126 L67.151,40.837 C65.541,40.418 64.317,39.776 63.477,38.91 C62.639,38.044 62.219,36.948 62.219,35.618 C62.219,34.482 62.516,33.485 63.11,32.628 C63.705,31.772 64.528,31.112 65.576,30.648 C66.625,30.185 67.84,29.953 69.221,29.953 C70.586,29.953 71.889,30.203 73.129,30.701 C74.371,31.199 75.473,31.876 76.434,32.733 L73.994,35.802 C73.366,35.26 72.627,34.787 71.78,34.385 C70.93,33.984 70.088,33.783 69.248,33.783 C68.549,33.783 68.01,33.901 67.635,34.136 C67.258,34.372 67.071,34.718 67.071,35.172 C67.071,35.592 67.268,35.955 67.66,36.261 C68.055,36.567 68.733,36.851 69.694,37.114 L71.031,37.481 C72.955,38.005 74.315,38.722 75.11,39.631 C75.905,40.54 76.303,41.598 76.303,42.805 C76.303,43.942 76.01,44.934 75.424,45.782 C74.838,46.63 74.012,47.29 72.946,47.762 C71.879,48.234 70.639,48.47 69.221,48.47"/>
    <polygon class='no-color-change' fill="#009BFF" points="79.24 48.129 84.119 48.129 84.119 30.294 79.24 30.294"/>
    <polyline class='no-color-change' fill="#009BFF" points="92.932 44.195 100.356 44.195 100.356 48.129 88.053 48.129 88.053 30.294 92.932 30.294 92.932 44.195"/>
    <polyline class='no-color-change' fill="#009BFF" points="117.85 30.294 111.397 48.129 106.073 48.129 99.621 30.294 104.735 30.294 108.774 42.726 112.946 30.294 117.85 30.294"/>
    <polyline class='no-color-change' fill="#009BFF" points="120.184 48.129 120.184 30.294 132.485 30.294 132.485 34.202 124.957 34.202 124.957 37.218 131.645 37.218 131.645 41.126 124.957 41.126 124.957 44.221 132.905 44.221 132.905 48.129 120.184 48.129"/>
    <path class='no-color-change' fill="#009BFF" d="M140.694 38.503L143.317 38.503C144.069 38.503 144.662 38.307 145.1 37.913 145.537 37.52 145.756 36.982 145.756 36.3 145.756 35.654 145.537 35.133 145.1 34.74 144.662 34.346 144.069 34.15 143.317 34.15L140.694 34.15 140.694 38.503zM140.694 42.202L140.694 48.129 135.973 48.129 135.973 30.294 143.842 30.294C145.94 30.294 147.6 30.831 148.824 31.907 150.049 32.982 150.66 34.447 150.66 36.3 150.66 37.506 150.389 38.547 149.848 39.421 149.305 40.296 148.545 40.978 147.567 41.467L151.211 48.129 146.018 48.129 143.055 42.202 140.694 42.202 140.694 42.202zM168.285 48.47C166.467 48.47 164.871 48.077 163.5 47.29 162.127 46.503 161.051 45.414 160.274 44.025 159.494 42.634 159.106 41.021 159.106 39.185 159.106 37.349 159.494 35.741 160.274 34.36 161.051 32.978 162.127 31.898 163.5 31.12 164.871 30.342 166.467 29.953 168.285 29.953 169.824 29.953 171.211 30.263 172.444 30.884 173.676 31.505 174.729 32.401 175.604 33.573L171.748 35.854C171.293 35.278 170.782 34.823 170.213 34.491 169.645 34.159 168.985 33.993 168.233 33.993 166.992 33.993 165.987 34.46 165.217 35.395 164.448 36.33 164.063 37.594 164.063 39.185 164.063 40.777 164.448 42.049 165.217 43.001 165.987 43.954 166.992 44.431 168.233 44.431 169.002 44.431 169.686 44.244 170.28 43.868 170.873 43.492 171.371 43.05 171.774 42.542L175.604 44.825C174.746 46.014 173.694 46.918 172.444 47.539 171.194 48.16 169.807 48.47 168.285 48.47"/>
    <polygon class='no-color-change' fill="#009BFF" points="178.096 48.129 182.975 48.129 182.975 30.294 178.096 30.294"/>
    <polyline class='no-color-change' fill="#009BFF" points="190.842 48.129 190.842 34.228 185.545 34.228 185.545 30.294 201.02 30.294 201.02 34.228 195.721 34.228 195.721 48.129 190.842 48.129"/>
    <polyline class='no-color-change' fill="#009BFF" points="213.162 41.704 213.162 48.129 208.205 48.129 208.205 41.704 201.885 30.294 207.393 30.294 210.698 37.375 213.975 30.294 219.483 30.294 213.162 41.704"/>
  </g>
</svg>
