<svg xmlns="http://www.w3.org/2000/svg" width="454" height="48" viewBox="0 0 454 48">
  <g fill="none" fill-rule="evenodd">
    <path fill="#404040" d="M13.452,35.093 C10.962,35.093 8.576,34.665 6.297,33.81 C4.017,32.955 2.037,31.733 0.357,30.143 L4.407,25.058 C5.606,26.138 6.956,26.986 8.457,27.6 C9.957,28.216 11.607,28.523 13.407,28.523 C14.606,28.523 15.551,28.313 16.242,27.893 C16.932,27.474 17.277,26.843 17.277,26.003 C17.277,25.193 16.872,24.54 16.062,24.046 C15.252,23.551 13.827,23.033 11.787,22.493 L9.897,21.998 C7.136,21.278 5.037,20.176 3.597,18.69 C2.157,17.205 1.437,15.323 1.437,13.043 C1.437,11.093 1.947,9.383 2.967,7.913 C3.986,6.443 5.397,5.31 7.197,4.516 C8.997,3.721 11.082,3.323 13.452,3.323 C15.792,3.323 18.026,3.75 20.157,4.605 C22.287,5.46 24.177,6.623 25.827,8.093 L21.642,13.358 C20.562,12.428 19.294,11.618 17.839,10.928 C16.384,10.238 14.937,9.893 13.497,9.893 C12.297,9.893 11.374,10.096 10.729,10.5 C10.084,10.905 9.762,11.498 9.762,12.278 C9.762,12.998 10.099,13.621 10.774,14.145 C11.449,14.671 12.612,15.158 14.262,15.608 L16.557,16.238 C19.857,17.137 22.189,18.368 23.554,19.928 C24.919,21.488 25.602,23.303 25.602,25.373 C25.602,27.323 25.099,29.026 24.094,30.48 C23.089,31.936 21.671,33.068 19.842,33.878 C18.012,34.688 15.882,35.093 13.452,35.093"/>
    <polygon fill="#404040" points="43.331 34.508 51.161 34.508 51.161 1.658 43.331 1.658"/>
    <polyline fill="#404040" points="80.636 11.603 71.771 34.508 63.221 34.508 54.356 11.603 62.951 11.603 67.631 26.408 72.221 11.603 80.636 11.603"/>
    <path fill="#404040" d="M94 16.688C91.45 16.688 89.92 18.038 89.41 20.738L98.14 20.738C97.93 19.268 97.427 18.225 96.633 17.61 95.837 16.996 94.96 16.688 94 16.688zM104.71 32.168C103.57 32.978 102.123 33.668 100.368 34.238 98.613 34.807 96.745 35.093 94.765 35.093 92.035 35.093 89.703 34.59 87.768 33.585 85.833 32.581 84.348 31.178 83.313 29.378 82.278 27.578 81.76 25.508 81.76 23.168 81.76 20.799 82.27 18.698 83.29 16.868 84.31 15.038 85.72 13.605 87.52 12.57 89.32 11.535 91.42 11.018 93.82 11.018 96.16 11.018 98.222 11.52 100.008 12.525 101.792 13.531 103.187 14.926 104.193 16.71 105.198 18.496 105.7 20.588 105.7 22.988 105.7 23.318 105.678 23.663 105.633 24.023 105.588 24.383 105.535 24.759 105.475 25.148L89.5 25.148C90.22 27.788 92.185 29.108 95.395 29.108 96.835 29.108 98.11 28.883 99.22 28.433 100.33 27.983 101.26 27.533 102.01 27.083L104.71 32.168zM117.535 25.643L117.535 34.508 109.705 34.508 109.705 11.603 116.86 11.603 117.355 15.428C117.835 14.198 118.622 13.2 119.718 12.435 120.812 11.671 122.08 11.288 123.52 11.288 124.33 11.288 124.945 11.393 125.365 11.603L125.365 18.758C125.034 18.639 124.668 18.549 124.263 18.488 123.857 18.428 123.4 18.398 122.89 18.398 121.33 18.398 120.047 18.976 119.043 20.131 118.037 21.286 117.535 23.123 117.535 25.643M154.569 35.093C151.449 35.093 148.711 34.418 146.357 33.068 144.001 31.718 142.156 29.85 140.822 27.466 139.487 25.08 138.819 22.313 138.819 19.163 138.819 16.012 139.487 13.253 140.822 10.883 142.156 8.514 144.001 6.661 146.357 5.325 148.711 3.991 151.449 3.323 154.569 3.323 157.209 3.323 159.587 3.856 161.702 4.921 163.817 5.986 165.624 7.523 167.124 9.533L160.509 13.448C159.729 12.458 158.851 11.678 157.877 11.108 156.901 10.538 155.769 10.253 154.479 10.253 152.349 10.253 150.624 11.056 149.304 12.66 147.984 14.266 147.324 16.433 147.324 19.163 147.324 21.893 147.984 24.076 149.304 25.71 150.624 27.345 152.349 28.163 154.479 28.163 155.799 28.163 156.969 27.841 157.989 27.195 159.009 26.551 159.864 25.793 160.554 24.923L167.124 28.838C165.654 30.878 163.846 32.431 161.702 33.495 159.556 34.56 157.179 35.093 154.569 35.093M170.769 34.508L170.769 11.603C172.029 11.873 173.304 12.008 174.594 12.008 175.914 12.008 177.249 11.873 178.599 11.603L178.599 34.508 170.769 34.508zM174.594 9.803C173.304 9.803 172.201 9.346 171.287 8.431 170.371 7.516 169.914 6.413 169.914 5.123 169.914 3.833 170.371 2.731 171.287 1.815 172.201.901 173.304.443 174.594.443 175.884.443 176.986.901 177.902 1.815 178.816 2.731 179.274 3.833 179.274 5.123 179.274 6.413 178.816 7.516 177.902 8.431 176.986 9.346 175.884 9.803 174.594 9.803zM200.964 33.023C200.034 33.653 198.968 34.156 197.769 34.53 196.569 34.905 195.309 35.093 193.989 35.093 191.529 35.093 189.571 34.381 188.116 32.955 186.661 31.531 185.934 29.618 185.934 27.218L185.934 17.453 182.199 17.453 182.199 11.603 186.294 11.603 187.284 5.213 193.764 5.213 193.764 11.603 199.749 11.603 199.749 17.453 193.764 17.453 193.764 26.228C193.764 27.009 193.996 27.616 194.461 28.051 194.926 28.486 195.548 28.703 196.329 28.703 196.718 28.703 197.116 28.628 197.521 28.478 197.926 28.328 198.309 28.148 198.669 27.938L200.964 33.023M220.583 32.708C219.203 36.247 217.628 38.888 215.858 40.628 214.088 42.368 211.838 43.238 209.108 43.238 207.878 43.238 206.768 43.103 205.778 42.833 204.788 42.563 203.948 42.232 203.258 41.843L205.463 36.443C205.883 36.652 206.348 36.832 206.858 36.983 207.368 37.133 207.908 37.208 208.478 37.208 209.288 37.208 210.015 37.013 210.661 36.623 211.306 36.233 211.868 35.527 212.348 34.508L212.708 33.698 202.358 11.603 210.998 11.603 216.083 25.328 220.268 11.603 228.773 11.603 220.583 32.708"/>
    <path fill="#009BFF" class='no-color-change' d="M254.197 35.093C251.707 35.093 249.322 34.665 247.042 33.81 244.762 32.955 242.782 31.733 241.102 30.143L245.152 25.058C246.352 26.138 247.701 26.986 249.202 27.6 250.702 28.216 252.352 28.523 254.152 28.523 255.352 28.523 256.297 28.313 256.987 27.893 257.677 27.474 258.022 26.843 258.022 26.003 258.022 25.193 257.617 24.54 256.807 24.046 255.997 23.551 254.572 23.033 252.532 22.493L250.642 21.998C247.882 21.278 245.782 20.176 244.342 18.69 242.902 17.205 242.182 15.323 242.182 13.043 242.182 11.093 242.692 9.383 243.712 7.913 244.732 6.443 246.142 5.31 247.942 4.516 249.742 3.721 251.827 3.323 254.197 3.323 256.537 3.323 258.772 3.75 260.902 4.605 263.032 5.46 264.922 6.623 266.572 8.093L262.387 13.358C261.307 12.428 260.039 11.618 258.585 10.928 257.129 10.238 255.682 9.893 254.242 9.893 253.042 9.893 252.119 10.096 251.474 10.5 250.829 10.905 250.507 11.498 250.507 12.278 250.507 12.998 250.845 13.621 251.52 14.145 252.195 14.671 253.357 15.158 255.007 15.608L257.302 16.238C260.602 17.137 262.934 18.368 264.3 19.928 265.664 21.488 266.347 23.303 266.347 25.373 266.347 27.323 265.845 29.026 264.84 30.48 263.834 31.936 262.417 33.068 260.587 33.878 258.757 34.688 256.627 35.093 254.197 35.093M285.877 34.508L285.472 31.493C284.721 32.603 283.74 33.48 282.524 34.125 281.309 34.77 279.997 35.093 278.587 35.093 275.916 35.093 273.877 34.306 272.467 32.73 271.056 31.155 270.352 28.883 270.352 25.913L270.352 11.603 278.182 11.603 278.182 25.013C278.182 27.503 279.322 28.748 281.602 28.748 284.002 28.748 285.202 27.248 285.202 24.248L285.202 11.603 293.032 11.603 293.032 34.508 285.877 34.508M306.351 21.863L306.351 34.508 298.522 34.508 298.522 11.603 305.677 11.603 306.081 14.618C306.831 13.538 307.806 12.668 309.007 12.008 310.206 11.349 311.527 11.018 312.967 11.018 315.456 11.018 317.451 11.828 318.951 13.448 320.451 15.068 321.201 17.393 321.201 20.423L321.201 34.508 313.371 34.508 313.371 21.323C313.371 19.973 313.071 18.976 312.471 18.33 311.871 17.685 311.032 17.363 309.951 17.363 308.871 17.363 308.001 17.708 307.342 18.398 306.681 19.089 306.351 20.243 306.351 21.863"/>
    <polyline fill="#009BFF" class='no-color-change' points="357.426 34.508 345.41 16.868 345.41 34.508 337.716 34.508 337.716 3.908 345.366 3.908 357.336 21.863 357.336 3.908 365.076 3.908 365.076 34.508 357.426 34.508"/>
    <path fill="#009BFF" class='no-color-change' d="M382.04,16.688 C379.49,16.688 377.96,18.038 377.451,20.738 L386.18,20.738 C385.97,19.268 385.468,18.225 384.673,17.61 C383.878,16.996 383,16.688 382.04,16.688 Z M392.75,32.168 C391.61,32.978 390.163,33.668 388.408,34.238 C386.653,34.807 384.785,35.093 382.805,35.093 C380.075,35.093 377.743,34.59 375.808,33.585 C373.873,32.581 372.388,31.178 371.353,29.378 C370.318,27.578 369.801,25.508 369.801,23.168 C369.801,20.799 370.31,18.698 371.33,16.868 C372.35,15.038 373.761,13.605 375.56,12.57 C377.36,11.535 379.46,11.018 381.86,11.018 C384.201,11.018 386.263,11.52 388.048,12.525 C389.832,13.531 391.227,14.926 392.233,16.71 C393.238,18.496 393.741,20.588 393.741,22.988 C393.741,23.318 393.718,23.663 393.673,24.023 C393.628,24.383 393.575,24.759 393.515,25.148 L377.54,25.148 C378.261,27.788 380.225,29.108 383.435,29.108 C384.875,29.108 386.15,28.883 387.261,28.433 C388.37,27.983 389.3,27.533 390.051,27.083 L392.75,32.168 Z"/>
    <polyline fill="#009BFF" class='no-color-change' points="417.05 34.508 413.36 20.603 409.715 34.508 401.615 34.508 395.675 11.603 403.685 11.603 406.07 26.363 409.94 11.603 416.825 11.603 420.83 26.408 423.26 11.603 431.09 11.603 425.15 34.508 417.05 34.508"/>
    <path fill="#009BFF" class='no-color-change' d="M443.014,35.093 C441.034,35.093 439.182,34.778 437.457,34.148 C435.731,33.518 434.179,32.618 432.8,31.448 L436.13,27.038 C437.179,27.878 438.312,28.561 439.527,29.085 C440.742,29.611 441.934,29.873 443.104,29.873 C443.884,29.873 444.507,29.738 444.972,29.468 C445.437,29.198 445.669,28.793 445.669,28.253 C445.669,27.683 445.407,27.225 444.882,26.881 C444.357,26.536 443.419,26.198 442.07,25.868 L439.909,25.328 C435.619,24.188 433.474,21.893 433.474,18.443 C433.474,16.913 433.894,15.593 434.735,14.483 C435.574,13.373 436.729,12.518 438.2,11.918 C439.669,11.318 441.379,11.018 443.329,11.018 C445.249,11.018 447.057,11.318 448.752,11.918 C450.447,12.518 451.999,13.388 453.409,14.528 L449.99,19.028 C448.939,18.188 447.829,17.514 446.659,17.003 C445.49,16.493 444.394,16.238 443.374,16.238 C441.724,16.238 440.899,16.778 440.899,17.858 C440.899,18.338 441.147,18.728 441.642,19.028 C442.137,19.328 442.834,19.599 443.735,19.838 L446.659,20.648 C448.849,21.248 450.469,22.148 451.519,23.348 C452.569,24.548 453.095,25.974 453.095,27.623 C453.095,29.123 452.674,30.435 451.834,31.56 C450.994,32.685 449.817,33.556 448.302,34.171 C446.787,34.785 445.024,35.093 443.014,35.093"/>
    <path fill="#404040" d="M30.012,34.508 L30.012,11.603 C31.272,11.873 32.546,12.008 33.837,12.008 C35.156,12.008 36.492,11.873 37.842,11.603 L37.842,34.508 L30.012,34.508"/>
    <path fill="#009BFF" class='no-color-change' d="M33.837,9.803 C32.546,9.803 31.444,9.346 30.529,8.431 C29.614,7.516 29.157,6.413 29.157,5.123 C29.157,3.833 29.614,2.731 30.529,1.815 C31.444,0.901 32.546,0.443 33.837,0.443 C35.126,0.443 36.229,0.901 37.144,1.815 C38.059,2.731 38.517,3.833 38.517,5.123 C38.517,6.413 38.059,7.516 37.144,8.431 C36.229,9.346 35.126,9.803 33.837,9.803"/>
    <path fill="#404040" d="M4.216 44.425L5.432 44.425C5.831 44.425 6.147 44.326 6.379 44.13 6.611 43.933 6.728 43.665 6.728 43.325 6.728 42.985 6.611 42.718 6.379 42.521 6.147 42.324 5.831 42.226 5.432 42.226L4.216 42.226 4.216 44.425zM3.313 47.544L3.313 41.466 5.432 41.466C6.111 41.466 6.65 41.633 7.05 41.966 7.449 42.301 7.648 42.753 7.648 43.325 7.648 43.892 7.449 44.34 7.05 44.671 6.65 45.001 6.111 45.167 5.432 45.167L4.216 45.167 4.216 47.544 3.313 47.544zM9.472 45.256L11.689 45.256 10.58 42.405 9.472 45.256zM12.574 47.544L11.984 46.016 9.177 46.016 8.587 47.544 7.675 47.544 10.107 41.466 11.081 41.466 13.503 47.544 12.574 47.544zM15.416 44.335L16.659 44.335C17.046 44.335 17.354 44.24 17.584 44.049 17.813 43.859 17.928 43.602 17.928 43.28 17.928 42.959 17.813 42.703 17.584 42.512 17.354 42.321 17.046 42.226 16.659 42.226L15.416 42.226 15.416 44.335zM15.416 45.077L15.416 47.544 14.513 47.544 14.513 41.466 16.659 41.466C17.332 41.466 17.865 41.628 18.259 41.953 18.652 42.278 18.848 42.721 18.848 43.28 18.848 43.704 18.729 44.062 18.491 44.353 18.253 44.645 17.925 44.851 17.508 44.97L18.983 47.544 17.955 47.544 16.569 45.077 15.416 45.077z"/>
    <polyline fill="#404040" points="21.441 47.544 21.441 42.226 19.394 42.226 19.394 41.466 24.39 41.466 24.39 42.226 22.344 42.226 22.344 47.544 21.441 47.544"/>
    <path fill="#404040" d="M30.191,46.856 C30.585,46.856 30.935,46.756 31.242,46.557 C31.549,46.357 31.789,46.082 31.961,45.73 C32.134,45.378 32.221,44.97 32.221,44.505 C32.221,44.04 32.134,43.632 31.961,43.28 C31.789,42.929 31.549,42.653 31.242,42.454 C30.935,42.254 30.585,42.154 30.191,42.154 C29.798,42.154 29.45,42.254 29.146,42.454 C28.842,42.653 28.603,42.929 28.431,43.28 C28.258,43.632 28.171,44.04 28.171,44.505 C28.171,44.97 28.258,45.378 28.431,45.73 C28.603,46.082 28.842,46.357 29.146,46.557 C29.45,46.756 29.798,46.856 30.191,46.856 Z M30.191,47.643 C29.62,47.643 29.113,47.508 28.672,47.241 C28.231,46.972 27.884,46.603 27.631,46.132 C27.377,45.661 27.251,45.119 27.251,44.505 C27.251,43.892 27.377,43.349 27.631,42.879 C27.884,42.407 28.231,42.038 28.672,41.77 C29.113,41.502 29.62,41.368 30.191,41.368 C30.764,41.368 31.272,41.502 31.716,41.77 C32.159,42.038 32.508,42.407 32.762,42.879 C33.015,43.349 33.141,43.892 33.141,44.505 C33.141,45.119 33.015,45.661 32.762,46.132 C32.508,46.603 32.159,46.972 31.716,47.241 C31.272,47.508 30.764,47.643 30.191,47.643 Z"/>
    <polyline fill="#404040" points="35.314 47.544 34.411 47.544 34.411 41.466 38.192 41.466 38.192 42.226 35.314 42.226 35.314 44.282 37.754 44.282 37.754 45.041 35.314 45.041 35.314 47.544"/>
    <polyline fill="#404040" points="42.902 47.544 42.902 42.226 40.855 42.226 40.855 41.466 45.852 41.466 45.852 42.226 43.805 42.226 43.805 47.544 42.902 47.544"/>
    <polyline fill="#404040" points="46.889 47.544 46.889 41.466 47.792 41.466 47.792 44.067 50.929 44.067 50.929 41.466 51.832 41.466 51.832 47.544 50.929 47.544 50.929 44.845 47.792 44.845 47.792 47.544 46.889 47.544"/>
    <polyline fill="#404040" points="53.423 47.544 53.423 41.466 57.32 41.466 57.32 42.226 54.326 42.226 54.326 44.103 56.962 44.103 56.962 44.862 54.326 44.862 54.326 46.785 57.392 46.785 57.392 47.544 53.423 47.544"/>
    <path fill="#404040" d="M63.095 46.856C63.589 46.856 63.978 46.707 64.261 46.409 64.544 46.111 64.686 45.709 64.686 45.202L64.686 41.466 65.588 41.466 65.588 45.211C65.588 45.968 65.366 46.563 64.922 46.995 64.478 47.426 63.869 47.643 63.095 47.643 62.32 47.643 61.712 47.426 61.271 46.995 60.83 46.563 60.609 45.968 60.609 45.211L60.609 41.466 61.512 41.466 61.512 45.202C61.512 45.709 61.654 46.111 61.937 46.409 62.22 46.707 62.606 46.856 63.095 46.856M68.958 47.643C68.499 47.643 68.061 47.562 67.644 47.402 67.227 47.241 66.89 47.026 66.634 46.758L67.144 46.159C67.382 46.38 67.663 46.552 67.988 46.677 68.313 46.802 68.636 46.865 68.958 46.865 69.351 46.865 69.669 46.789 69.91 46.637 70.151 46.485 70.272 46.275 70.272 46.007 70.272 45.763 70.186 45.557 70.013 45.39 69.84 45.223 69.545 45.083 69.128 44.97L68.288 44.746C67.745 44.604 67.35 44.401 67.103 44.139 66.856 43.876 66.732 43.534 66.732 43.111 66.732 42.765 66.825 42.461 67.009 42.199 67.194 41.937 67.449 41.733 67.774 41.587 68.098 41.441 68.467 41.368 68.878 41.368 69.313 41.368 69.721 41.45 70.102 41.614 70.484 41.777 70.82 42.006 71.112 42.297L70.567 42.887C70.311 42.649 70.044 42.466 69.767 42.338 69.49 42.209 69.196 42.145 68.887 42.145 68.511 42.145 68.204 42.224 67.966 42.382 67.728 42.54 67.608 42.759 67.608 43.039 67.608 43.295 67.693 43.495 67.863 43.638 68.033 43.781 68.293 43.901 68.645 43.996L69.584 44.255C70.126 44.404 70.522 44.612 70.773 44.881 71.023 45.149 71.148 45.483 71.148 45.882 71.148 46.234 71.056 46.542 70.871 46.807 70.686 47.072 70.43 47.277 70.102 47.423 69.774 47.57 69.393 47.643 68.958 47.643M73.418 45.256L75.635 45.256 74.527 42.405 73.418 45.256zM76.52 47.544L75.93 46.016 73.123 46.016 72.534 47.544 71.622 47.544 74.053 41.466 75.027 41.466 77.45 47.544 76.52 47.544z"/>
    <polyline fill="#404040" points="81.651 47.544 81.651 42.226 79.604 42.226 79.604 41.466 84.601 41.466 84.601 42.226 82.554 42.226 82.554 47.544 81.651 47.544"/>
    <path fill="#404040" d="M87.854 46.856C88.248 46.856 88.598 46.756 88.905 46.557 89.211 46.357 89.451 46.082 89.624 45.73 89.797 45.378 89.883 44.97 89.883 44.505 89.883 44.04 89.797 43.632 89.624 43.28 89.451 42.929 89.211 42.653 88.905 42.454 88.598 42.254 88.248 42.154 87.854 42.154 87.461 42.154 87.113 42.254 86.809 42.454 86.505 42.653 86.266 42.929 86.093 43.28 85.921 43.632 85.834 44.04 85.834 44.505 85.834 44.97 85.921 45.378 86.093 45.73 86.266 46.082 86.505 46.357 86.809 46.557 87.113 46.756 87.461 46.856 87.854 46.856zM87.854 47.643C87.282 47.643 86.776 47.508 86.335 47.241 85.894 46.972 85.547 46.603 85.294 46.132 85.04 45.661 84.914 45.119 84.914 44.505 84.914 43.892 85.04 43.349 85.294 42.879 85.547 42.407 85.894 42.038 86.335 41.77 86.776 41.502 87.282 41.368 87.854 41.368 88.427 41.368 88.934 41.502 89.379 41.77 89.822 42.038 90.171 42.407 90.424 42.879 90.677 43.349 90.804 43.892 90.804 44.505 90.804 45.119 90.677 45.661 90.424 46.132 90.171 46.603 89.822 46.972 89.379 47.241 88.934 47.508 88.427 47.643 87.854 47.643zM92.976 46.785L94.21 46.785C94.639 46.785 95.007 46.691 95.314 46.503 95.621 46.316 95.856 46.052 96.02 45.712 96.184 45.372 96.266 44.97 96.266 44.505 96.266 44.04 96.184 43.638 96.02 43.299 95.856 42.959 95.621 42.695 95.314 42.508 95.007 42.32 94.639 42.226 94.21 42.226L92.976 42.226 92.976 46.785zM92.073 47.544L92.073 41.466 94.21 41.466C94.805 41.466 95.327 41.593 95.774 41.846 96.221 42.099 96.568 42.454 96.815 42.91 97.063 43.365 97.186 43.897 97.186 44.505 97.186 45.113 97.063 45.645 96.815 46.101 96.568 46.557 96.221 46.911 95.774 47.164 95.327 47.418 94.805 47.544 94.21 47.544L92.073 47.544zM99.492 45.256L101.709 45.256 100.601 42.405 99.492 45.256zM102.594 47.544L102.004 46.016 99.197 46.016 98.607 47.544 97.696 47.544 100.127 41.466 101.101 41.466 103.524 47.544 102.594 47.544z"/>
    <polyline fill="#404040" points="106.295 45.131 106.295 47.544 105.392 47.544 105.392 45.131 103.256 41.466 104.319 41.466 105.848 44.273 107.377 41.466 108.422 41.466 106.295 45.131"/>
    <polyline fill="#404040" points="115.644 47.544 112.4 42.887 112.4 47.544 111.551 47.544 111.551 41.466 112.391 41.466 115.644 46.123 115.644 41.466 116.485 41.466 116.485 47.544 115.644 47.544"/>
    <polyline fill="#404040" points="118.076 47.544 118.076 41.466 121.973 41.466 121.973 42.226 118.979 42.226 118.979 44.103 121.616 44.103 121.616 44.862 118.979 44.862 118.979 46.785 122.045 46.785 122.045 47.544 118.076 47.544"/>
    <polyline fill="#404040" points="124.726 47.544 124.726 42.226 122.679 42.226 122.679 41.466 127.676 41.466 127.676 42.226 125.629 42.226 125.629 47.544 124.726 47.544"/>
    <polyline fill="#404040" points="133.575 47.544 132.154 42.7 130.733 47.544 129.794 47.544 128.176 41.466 129.07 41.466 130.304 46.275 131.725 41.466 132.583 41.466 134.013 46.293 135.256 41.466 136.132 41.466 134.514 47.544 133.575 47.544"/>
    <path fill="#404040" d="M139.716 46.856C140.11 46.856 140.46 46.756 140.767 46.557 141.074 46.357 141.313 46.082 141.486 45.73 141.659 45.378 141.746 44.97 141.746 44.505 141.746 44.04 141.659 43.632 141.486 43.28 141.313 42.929 141.074 42.653 140.767 42.454 140.46 42.254 140.11 42.154 139.716 42.154 139.323 42.154 138.975 42.254 138.671 42.454 138.367 42.653 138.128 42.929 137.955 43.28 137.783 43.632 137.696 44.04 137.696 44.505 137.696 44.97 137.783 45.378 137.955 45.73 138.128 46.082 138.367 46.357 138.671 46.557 138.975 46.756 139.323 46.856 139.716 46.856zM139.716 47.643C139.144 47.643 138.638 47.508 138.197 47.241 137.756 46.972 137.409 46.603 137.156 46.132 136.902 45.661 136.776 45.119 136.776 44.505 136.776 43.892 136.902 43.349 137.156 42.879 137.409 42.407 137.756 42.038 138.197 41.77 138.638 41.502 139.144 41.368 139.716 41.368 140.289 41.368 140.797 41.502 141.241 41.77 141.684 42.038 142.033 42.407 142.286 42.879 142.539 43.349 142.666 43.892 142.666 44.505 142.666 45.119 142.539 45.661 142.286 46.132 142.033 46.603 141.684 46.972 141.241 47.241 140.797 47.508 140.289 47.643 139.716 47.643zM144.838 44.335L146.081 44.335C146.468 44.335 146.776 44.24 147.006 44.049 147.235 43.859 147.35 43.602 147.35 43.28 147.35 42.959 147.235 42.703 147.006 42.512 146.776 42.321 146.468 42.226 146.081 42.226L144.838 42.226 144.838 44.335zM144.838 45.077L144.838 47.544 143.935 47.544 143.935 41.466 146.081 41.466C146.754 41.466 147.287 41.628 147.681 41.953 148.074 42.278 148.271 42.721 148.271 43.28 148.271 43.704 148.151 44.062 147.913 44.353 147.675 44.645 147.347 44.851 146.93 44.97L148.405 47.544 147.377 47.544 145.991 45.077 144.838 45.077z"/>
    <polyline fill="#404040" points="153.178 47.544 150.452 44.478 150.452 47.544 149.549 47.544 149.549 41.466 150.452 41.466 150.452 44.13 152.999 41.466 154.116 41.466 151.408 44.255 154.313 47.544 153.178 47.544"/>
  </g>
</svg>
