<svg xmlns="http://www.w3.org/2000/svg" width="305" height="47" viewBox="0 0 305 47">
  <g fill="none" fill-rule="evenodd">
    <path fill="#FFFFFF" d="M147.152 43.084L148.341 43.084C148.731 43.084 149.04 42.987 149.267 42.795 149.494 42.603 149.608 42.341 149.608 42.008 149.608 41.676 149.494 41.414 149.267 41.222 149.04 41.03 148.731 40.934 148.341 40.934L147.152 40.934 147.152 43.084zM146.269 46.134L146.269 40.191 148.341 40.191C149.005 40.191 149.532 40.354 149.923 40.68 150.313 41.007 150.508 41.449 150.508 42.008 150.508 42.562 150.313 43.001 149.923 43.324 149.532 43.647 149.005 43.809 148.341 43.809L147.152 43.809 147.152 46.134 146.269 46.134zM152.291 43.896L154.459 43.896 153.375 41.109 152.291 43.896zM155.324 46.134L154.747 44.639 152.003 44.639 151.426 46.134 150.534 46.134 152.912 40.191 153.864 40.191 156.233 46.134 155.324 46.134zM158.103 42.996L159.318 42.996C159.697 42.996 159.999 42.903 160.223 42.717 160.447 42.53 160.559 42.28 160.559 41.965 160.559 41.65 160.447 41.4 160.223 41.213 159.999 41.027 159.697 40.934 159.318 40.934L158.103 40.934 158.103 42.996zM158.103 43.722L158.103 46.134 157.221 46.134 157.221 40.191 159.318 40.191C159.977 40.191 160.498 40.349 160.883 40.667 161.267 40.985 161.459 41.417 161.459 41.965 161.459 42.379 161.343 42.728 161.11 43.014 160.877 43.299 160.556 43.5 160.149 43.617L161.591 46.134 160.586 46.134 159.231 43.722 158.103 43.722z"/>
    <polyline fill="#FFFFFF" points="163.994 46.134 163.994 40.934 161.992 40.934 161.992 40.191 166.878 40.191 166.878 40.934 164.877 40.934 164.877 46.134 163.994 46.134"/>
    <path fill="#FFFFFF" d="M172.55,45.461 C172.935,45.461 173.277,45.363 173.577,45.168 C173.877,44.973 174.112,44.704 174.281,44.36 C174.45,44.016 174.534,43.617 174.534,43.162 C174.534,42.708 174.45,42.309 174.281,41.965 C174.112,41.621 173.877,41.352 173.577,41.156 C173.277,40.961 172.935,40.863 172.55,40.863 C172.166,40.863 171.825,40.961 171.528,41.156 C171.231,41.352 170.997,41.621 170.828,41.965 C170.66,42.309 170.575,42.708 170.575,43.162 C170.575,43.617 170.66,44.016 170.828,44.36 C170.997,44.704 171.231,44.973 171.528,45.168 C171.825,45.363 172.166,45.461 172.55,45.461 Z M172.55,46.23 C171.991,46.23 171.496,46.099 171.064,45.837 C170.633,45.574 170.294,45.213 170.046,44.753 C169.799,44.293 169.675,43.762 169.675,43.162 C169.675,42.562 169.799,42.032 170.046,41.572 C170.294,41.111 170.633,40.75 171.064,40.488 C171.496,40.226 171.991,40.095 172.55,40.095 C173.11,40.095 173.606,40.226 174.041,40.488 C174.474,40.75 174.815,41.111 175.063,41.572 C175.311,42.032 175.434,42.562 175.434,43.162 C175.434,43.762 175.311,44.293 175.063,44.753 C174.815,45.213 174.474,45.574 174.041,45.837 C173.606,46.099 173.11,46.23 172.55,46.23 Z"/>
    <polyline fill="#FFFFFF" points="177.559 46.134 176.676 46.134 176.676 40.191 180.373 40.191 180.373 40.934 177.559 40.934 177.559 42.944 179.945 42.944 179.945 43.686 177.559 43.686 177.559 46.134"/>
    <polyline fill="#FFFFFF" points="184.979 46.134 184.979 40.934 182.977 40.934 182.977 40.191 187.863 40.191 187.863 40.934 185.861 40.934 185.861 46.134 184.979 46.134"/>
    <polyline fill="#FFFFFF" points="188.876 46.134 188.876 40.191 189.759 40.191 189.759 42.734 192.827 42.734 192.827 40.191 193.71 40.191 193.71 46.134 192.827 46.134 192.827 43.494 189.759 43.494 189.759 46.134 188.876 46.134"/>
    <polyline fill="#FFFFFF" points="195.265 46.134 195.265 40.191 199.076 40.191 199.076 40.934 196.148 40.934 196.148 42.769 198.726 42.769 198.726 43.512 196.148 43.512 196.148 45.391 199.146 45.391 199.146 46.134 195.265 46.134"/>
    <path fill="#FFFFFF" d="M204.722 45.461C205.206 45.461 205.586 45.316 205.862 45.024 206.139 44.733 206.278 44.339 206.278 43.844L206.278 40.191 207.16 40.191 207.16 43.853C207.16 44.593 206.943 45.174 206.509 45.596 206.075 46.019 205.479 46.23 204.722 46.23 203.964 46.23 203.37 46.019 202.939 45.596 202.508 45.174 202.292 44.593 202.292 43.853L202.292 40.191 203.175 40.191 203.175 43.844C203.175 44.339 203.313 44.733 203.59 45.024 203.867 45.316 204.244 45.461 204.722 45.461M210.455 46.23C210.006 46.23 209.578 46.151 209.171 45.994 208.763 45.837 208.433 45.627 208.183 45.365L208.681 44.779C208.914 44.995 209.189 45.164 209.507 45.286 209.825 45.408 210.141 45.469 210.455 45.469 210.84 45.469 211.15 45.396 211.386 45.247 211.622 45.098 211.74 44.893 211.74 44.631 211.74 44.392 211.655 44.191 211.486 44.027 211.318 43.864 211.029 43.728 210.621 43.617L209.8 43.398C209.269 43.258 208.883 43.06 208.642 42.804 208.4 42.548 208.279 42.213 208.279 41.799 208.279 41.461 208.369 41.164 208.55 40.907 208.73 40.651 208.979 40.452 209.297 40.309 209.615 40.166 209.975 40.095 210.377 40.095 210.802 40.095 211.201 40.175 211.574 40.335 211.947 40.495 212.276 40.718 212.562 41.004L212.028 41.58C211.778 41.348 211.517 41.168 211.246 41.043 210.975 40.918 210.688 40.855 210.385 40.855 210.018 40.855 209.718 40.932 209.485 41.087 209.252 41.241 209.136 41.455 209.136 41.729 209.136 41.979 209.218 42.175 209.385 42.315 209.551 42.454 209.805 42.571 210.149 42.664L211.067 42.918C211.597 43.063 211.985 43.267 212.229 43.53 212.474 43.791 212.597 44.118 212.597 44.508 212.597 44.852 212.506 45.154 212.326 45.413 212.145 45.672 211.894 45.873 211.574 46.016 211.253 46.159 210.881 46.23 210.455 46.23M214.816 43.896L216.984 43.896 215.9 41.109 214.816 43.896zM217.849 46.134L217.273 44.639 214.528 44.639 213.951 46.134 213.06 46.134 215.437 40.191 216.39 40.191 218.758 46.134 217.849 46.134z"/>
    <polyline fill="#FFFFFF" points="222.866 46.134 222.866 40.934 220.864 40.934 220.864 40.191 225.75 40.191 225.75 40.934 223.749 40.934 223.749 46.134 222.866 46.134"/>
    <path fill="#FFFFFF" d="M228.932 45.461C229.316 45.461 229.658 45.363 229.959 45.168 230.259 44.973 230.493 44.704 230.662 44.36 230.831 44.016 230.916 43.617 230.916 43.162 230.916 42.708 230.831 42.309 230.662 41.965 230.493 41.621 230.259 41.352 229.959 41.156 229.658 40.961 229.316 40.863 228.932 40.863 228.547 40.863 228.206 40.961 227.909 41.156 227.612 41.352 227.379 41.621 227.21 41.965 227.041 42.309 226.956 42.708 226.956 43.162 226.956 43.617 227.041 44.016 227.21 44.36 227.379 44.704 227.612 44.973 227.909 45.168 228.206 45.363 228.547 45.461 228.932 45.461zM228.932 46.23C228.372 46.23 227.877 46.099 227.446 45.837 227.015 45.574 226.675 45.213 226.428 44.753 226.18 44.293 226.056 43.762 226.056 43.162 226.056 42.562 226.18 42.032 226.428 41.572 226.675 41.111 227.015 40.75 227.446 40.488 227.877 40.226 228.372 40.095 228.932 40.095 229.491 40.095 229.988 40.226 230.422 40.488 230.856 40.75 231.197 41.111 231.445 41.572 231.692 42.032 231.816 42.562 231.816 43.162 231.816 43.762 231.692 44.293 231.445 44.753 231.197 45.213 230.856 45.574 230.422 45.837 229.988 46.099 229.491 46.23 228.932 46.23zM233.94 45.391L235.146 45.391C235.565 45.391 235.925 45.299 236.225 45.116 236.525 44.932 236.755 44.675 236.915 44.342 237.076 44.01 237.156 43.617 237.156 43.162 237.156 42.708 237.076 42.315 236.915 41.982 236.755 41.65 236.525 41.392 236.225 41.209 235.925 41.026 235.565 40.934 235.146 40.934L233.94 40.934 233.94 45.391zM233.057 46.134L233.057 40.191 235.146 40.191C235.728 40.191 236.238 40.315 236.675 40.562 237.112 40.81 237.451 41.156 237.693 41.602 237.935 42.048 238.056 42.568 238.056 43.162 238.056 43.757 237.935 44.277 237.693 44.722 237.451 45.168 237.112 45.515 236.675 45.762 236.238 46.01 235.728 46.134 235.146 46.134L233.057 46.134zM240.311 43.896L242.479 43.896 241.395 41.109 240.311 43.896zM243.344 46.134L242.767 44.639 240.022 44.639 239.446 46.134 238.554 46.134 240.932 40.191 241.884 40.191 244.253 46.134 243.344 46.134z"/>
    <polyline fill="#FFFFFF" points="246.962 43.774 246.962 46.134 246.079 46.134 246.079 43.774 243.99 40.191 245.031 40.191 246.525 42.935 248.02 40.191 249.042 40.191 246.962 43.774"/>
    <polyline fill="#FFFFFF" points="256.104 46.134 252.931 41.58 252.931 46.134 252.101 46.134 252.101 40.191 252.923 40.191 256.104 44.744 256.104 40.191 256.926 40.191 256.926 46.134 256.104 46.134"/>
    <polyline fill="#FFFFFF" points="258.481 46.134 258.481 40.191 262.292 40.191 262.292 40.934 259.364 40.934 259.364 42.769 261.942 42.769 261.942 43.512 259.364 43.512 259.364 45.391 262.362 45.391 262.362 46.134 258.481 46.134"/>
    <polyline fill="#FFFFFF" points="264.984 46.134 264.984 40.934 262.982 40.934 262.982 40.191 267.868 40.191 267.868 40.934 265.867 40.934 265.867 46.134 264.984 46.134"/>
    <polyline fill="#FFFFFF" points="273.636 46.134 272.247 41.397 270.857 46.134 269.939 46.134 268.357 40.191 269.231 40.191 270.438 44.893 271.827 40.191 272.666 40.191 274.065 44.91 275.28 40.191 276.136 40.191 274.554 46.134 273.636 46.134"/>
    <path fill="#FFFFFF" d="M279.641 45.461C280.026 45.461 280.368 45.363 280.668 45.168 280.968 44.973 281.203 44.704 281.371 44.36 281.54 44.016 281.625 43.617 281.625 43.162 281.625 42.708 281.54 42.309 281.371 41.965 281.203 41.621 280.968 41.352 280.668 41.156 280.368 40.961 280.026 40.863 279.641 40.863 279.257 40.863 278.916 40.961 278.619 41.156 278.321 41.352 278.088 41.621 277.919 41.965 277.75 42.309 277.666 42.708 277.666 43.162 277.666 43.617 277.75 44.016 277.919 44.36 278.088 44.704 278.321 44.973 278.619 45.168 278.916 45.363 279.257 45.461 279.641 45.461zM279.641 46.23C279.082 46.23 278.586 46.099 278.155 45.837 277.724 45.574 277.385 45.213 277.137 44.753 276.889 44.293 276.766 43.762 276.766 43.162 276.766 42.562 276.889 42.032 277.137 41.572 277.385 41.111 277.724 40.75 278.155 40.488 278.586 40.226 279.082 40.095 279.641 40.095 280.2 40.095 280.697 40.226 281.131 40.488 281.565 40.75 281.906 41.111 282.154 41.572 282.401 42.032 282.525 42.562 282.525 43.162 282.525 43.762 282.401 44.293 282.154 44.753 281.906 45.213 281.565 45.574 281.131 45.837 280.697 46.099 280.2 46.23 279.641 46.23zM284.649 42.996L285.864 42.996C286.242 42.996 286.544 42.903 286.768 42.717 286.993 42.53 287.105 42.28 287.105 41.965 287.105 41.65 286.993 41.4 286.768 41.213 286.544 41.027 286.242 40.934 285.864 40.934L284.649 40.934 284.649 42.996zM284.649 43.722L284.649 46.134 283.766 46.134 283.766 40.191 285.864 40.191C286.522 40.191 287.044 40.349 287.428 40.667 287.813 40.985 288.005 41.417 288.005 41.965 288.005 42.379 287.888 42.728 287.655 43.014 287.422 43.299 287.102 43.5 286.694 43.617L288.136 46.134 287.131 46.134 285.776 43.722 284.649 43.722z"/>
    <polyline fill="#FFFFFF" points="292.803 46.134 290.138 43.136 290.138 46.134 289.255 46.134 289.255 40.191 290.138 40.191 290.138 42.795 292.628 40.191 293.721 40.191 291.073 42.918 293.913 46.134 292.803 46.134"/>
    <path class="no-color-change" fill="#009BFF" d="M12.937 21.889L20.182 21.889 16.582 11.18 12.937 21.889zM24.232 33.814L22.297 28.099 10.822 28.099 8.887 33.814.607 33.814 11.812 3.215 21.532 3.215 32.737 33.814 24.232 33.814zM43.941 24.95L43.941 33.814 36.112 33.814 36.112 10.909 43.266 10.909 43.761 14.734C44.241 13.505 45.029 12.507 46.124 11.742 47.219 10.977 48.487 10.595 49.927 10.595 50.737 10.595 51.351 10.7 51.771 10.909L51.771 18.064C51.441 17.945 51.074 17.855 50.669 17.795 50.264 17.735 49.806 17.704 49.296 17.704 47.736 17.704 46.454 18.283 45.449 19.437 44.444 20.593 43.941 22.43 43.941 24.95M66.576 26.93C67.896 26.93 68.961 26.457 69.771 25.512 70.581 24.567 70.986 23.3 70.986 21.71 70.986 20.12 70.581 18.852 69.771 17.907 68.961 16.962 67.896 16.49 66.576 16.49 65.226 16.49 64.146 16.962 63.336 17.907 62.526 18.852 62.121 20.12 62.121 21.71 62.121 23.27 62.526 24.53 63.336 25.49 64.146 26.45 65.226 26.93 66.576 26.93zM78.726 31.385C78.726 33.724 78.186 35.727 77.106 37.392 76.026 39.057 74.534 40.332 72.629 41.217 70.723 42.101 68.511 42.545 65.991 42.545 63.951 42.545 62.016 42.274 60.186 41.734 58.356 41.194 56.721 40.474 55.281 39.575L58.206 34.534C59.226 35.135 60.299 35.622 61.424 35.997 62.549 36.372 63.711 36.559 64.911 36.559 66.921 36.559 68.421 36.109 69.411 35.21 70.401 34.309 70.896 33.035 70.896 31.385L70.896 30.575C70.116 31.355 69.179 31.977 68.084 32.442 66.988 32.908 65.841 33.139 64.641 33.139 62.571 33.139 60.749 32.652 59.174 31.677 57.599 30.702 56.368 29.352 55.484 27.627 54.598 25.902 54.156 23.93 54.156 21.71 54.156 19.46 54.591 17.479 55.461 15.769 56.331 14.059 57.546 12.725 59.106 11.764 60.666 10.805 62.466 10.325 64.506 10.325 65.886 10.325 67.168 10.655 68.354 11.314 69.538 11.974 70.476 12.845 71.166 13.925L71.571 10.909 78.726 10.909 78.726 31.385zM99.336 33.814L98.931 30.8C98.181 31.91 97.199 32.787 95.983 33.432 94.769 34.077 93.456 34.399 92.046 34.399 89.376 34.399 87.336 33.612 85.926 32.037 84.515 30.462 83.811 28.189 83.811 25.22L83.811 10.909 91.641 10.909 91.641 24.319C91.641 26.81 92.781 28.055 95.061 28.055 97.461 28.055 98.661 26.555 98.661 23.555L98.661 10.909 106.491 10.909 106.491 33.814 99.336 33.814M120.485 34.399C118.505 34.399 116.653 34.085 114.928 33.454 113.202 32.825 111.65 31.925 110.27 30.755L113.6 26.345C114.65 27.184 115.783 27.868 116.998 28.392 118.213 28.917 119.405 29.18 120.576 29.18 121.355 29.18 121.977 29.045 122.443 28.774 122.908 28.505 123.14 28.099 123.14 27.559 123.14 26.99 122.878 26.532 122.353 26.187 121.828 25.843 120.89 25.505 119.54 25.175L117.38 24.635C113.09 23.495 110.945 21.2 110.945 17.75 110.945 16.22 111.365 14.9 112.205 13.79 113.045 12.68 114.2 11.825 115.67 11.224 117.14 10.625 118.85 10.325 120.8 10.325 122.72 10.325 124.528 10.625 126.223 11.224 127.918 11.825 129.47 12.695 130.88 13.835L127.461 18.335C126.41 17.495 125.3 16.82 124.13 16.309 122.961 15.8 121.865 15.545 120.846 15.545 119.195 15.545 118.37 16.085 118.37 17.165 118.37 17.645 118.618 18.035 119.113 18.335 119.608 18.635 120.305 18.905 121.205 19.144L124.13 19.954C126.32 20.555 127.94 21.455 128.99 22.655 130.04 23.855 130.565 25.28 130.565 26.93 130.565 28.43 130.145 29.742 129.305 30.867 128.465 31.992 127.287 32.862 125.773 33.477 124.258 34.092 122.495 34.399 120.485 34.399"/>
    <polyline fill="#FFFFFF" points="154.64 27.064 167.375 27.064 167.375 33.814 146.27 33.814 146.27 3.215 154.64 3.215 154.64 27.064"/>
    <path fill="#FFFFFF" d="M181.999 15.994C179.449 15.994 177.919 17.345 177.409 20.045L186.139 20.045C185.929 18.575 185.426 17.532 184.632 16.917 183.836 16.303 182.959 15.994 181.999 15.994zM192.709 31.474C191.569 32.284 190.122 32.975 188.367 33.545 186.612 34.114 184.744 34.399 182.764 34.399 180.034 34.399 177.702 33.897 175.767 32.892 173.832 31.888 172.347 30.484 171.312 28.684 170.277 26.885 169.759 24.814 169.759 22.474 169.759 20.105 170.269 18.005 171.289 16.175 172.309 14.345 173.719 12.912 175.519 11.877 177.319 10.842 179.419 10.325 181.819 10.325 184.159 10.325 186.221 10.827 188.007 11.832 189.791 12.838 191.186 14.232 192.192 16.017 193.197 17.803 193.699 19.895 193.699 22.295 193.699 22.625 193.677 22.97 193.632 23.329 193.587 23.689 193.534 24.065 193.474 24.454L177.499 24.454C178.219 27.095 180.184 28.415 183.394 28.415 184.834 28.415 186.109 28.189 187.219 27.74 188.329 27.29 189.259 26.84 190.009 26.389L192.709 31.474zM203.869 26.389C203.869 27.08 204.124 27.642 204.634 28.077 205.144 28.513 205.804 28.729 206.614 28.729 207.694 28.729 208.601 28.362 209.336 27.627 210.071 26.892 210.439 25.97 210.439 24.859L210.439 24.095C209.629 23.945 208.774 23.869 207.874 23.869 206.733 23.869 205.782 24.065 205.017 24.454 204.252 24.845 203.869 25.49 203.869 26.389zM210.754 33.814L210.349 30.8C208.849 33.2 206.569 34.399 203.509 34.399 202.159 34.399 200.936 34.107 199.842 33.522 198.746 32.937 197.876 32.135 197.232 31.115 196.586 30.095 196.264 28.909 196.264 27.559 196.264 25.01 197.261 23.03 199.257 21.619 201.251 20.21 203.884 19.505 207.154 19.505 208.174 19.505 209.253 19.595 210.394 19.774 210.274 18.635 209.786 17.772 208.931 17.187 208.076 16.602 207.034 16.309 205.804 16.309 204.724 16.309 203.636 16.512 202.542 16.917 201.446 17.322 200.404 17.81 199.414 18.38L196.759 13.34C198.259 12.38 199.879 11.638 201.619 11.112 203.358 10.588 205.099 10.325 206.839 10.325 208.939 10.325 210.829 10.684 212.509 11.405 214.189 12.125 215.509 13.22 216.469 14.689 217.429 16.16 217.909 18.019 217.909 20.269L217.909 33.814 210.754 33.814zM234.019 28.189C235.369 28.189 236.456 27.657 237.282 26.592 238.106 25.527 238.519 24.11 238.519 22.34 238.519 20.57 238.106 19.152 237.282 18.087 236.456 17.022 235.369 16.49 234.019 16.49 232.638 16.49 231.536 17.022 230.711 18.087 229.886 19.152 229.474 20.57 229.474 22.34 229.474 24.11 229.886 25.527 230.711 26.592 231.536 27.657 232.638 28.189 234.019 28.189zM239.059 33.814L238.654 30.8C237.934 31.91 237.004 32.787 235.864 33.432 234.723 34.077 233.404 34.399 231.904 34.399 229.834 34.399 228.018 33.889 226.459 32.869 224.899 31.85 223.683 30.432 222.814 28.617 221.943 26.803 221.509 24.71 221.509 22.34 221.509 19.97 221.943 17.885 222.814 16.085 223.683 14.284 224.876 12.875 226.391 11.854 227.906 10.835 229.654 10.325 231.634 10.325 233.013 10.325 234.289 10.617 235.459 11.202 236.629 11.787 237.603 12.575 238.384 13.564L238.384.965 246.214.965 246.214 33.814 239.059 33.814zM262.549 15.994C259.998 15.994 258.469 17.345 257.959 20.045L266.689 20.045C266.478 18.575 265.976 17.532 265.181 16.917 264.386 16.303 263.509 15.994 262.549 15.994zM273.259 31.474C272.118 32.284 270.671 32.975 268.916 33.545 267.161 34.114 265.294 34.399 263.314 34.399 260.583 34.399 258.251 33.897 256.316 32.892 254.381 31.888 252.896 30.484 251.861 28.684 250.826 26.885 250.309 24.814 250.309 22.474 250.309 20.105 250.819 18.005 251.839 16.175 252.858 14.345 254.269 12.912 256.069 11.877 257.868 10.842 259.968 10.325 262.368 10.325 264.709 10.325 266.771 10.827 268.556 11.832 270.341 12.838 271.736 14.232 272.741 16.017 273.746 17.803 274.249 19.895 274.249 22.295 274.249 22.625 274.226 22.97 274.181 23.329 274.136 23.689 274.083 24.065 274.024 24.454L258.049 24.454C258.769 27.095 260.733 28.415 263.944 28.415 265.384 28.415 266.659 28.189 267.769 27.74 268.878 27.29 269.808 26.84 270.559 26.389L273.259 31.474zM286.083 24.95L286.083 33.814 278.254 33.814 278.254 10.909 285.409 10.909 285.904 14.734C286.383 13.505 287.171 12.507 288.266 11.742 289.361 10.977 290.629 10.595 292.069 10.595 292.879 10.595 293.493 10.7 293.913 10.909L293.913 18.064C293.583 17.945 293.216 17.855 292.811 17.795 292.406 17.735 291.948 17.704 291.438 17.704 289.878 17.704 288.596 18.283 287.591 19.437 286.586 20.593 286.083 22.43 286.083 24.95"/>
    <path class="no-color-change" fill="#009BFF" d="M299.673,34.309 C298.713,34.309 297.835,34.077 297.041,33.612 C296.245,33.147 295.616,32.517 295.151,31.722 C294.685,30.928 294.453,30.05 294.453,29.09 C294.453,28.13 294.685,27.252 295.151,26.457 C295.616,25.662 296.245,25.033 297.041,24.567 C297.835,24.102 298.713,23.869 299.673,23.869 C300.633,23.869 301.511,24.102 302.306,24.567 C303.1,25.033 303.73,25.662 304.196,26.457 C304.66,27.252 304.893,28.13 304.893,29.09 C304.893,30.05 304.66,30.928 304.196,31.722 C303.73,32.517 303.1,33.147 302.306,33.612 C301.511,34.077 300.633,34.309 299.673,34.309"/>
  </g>
</svg>
