<svg xmlns="http://www.w3.org/2000/svg" width="349" height="55" viewBox="0 0 349 55">
  <g fill="none" fill-rule="evenodd">
    <path class='no-color-change' fill="#009BFF" d="M54.177,27.824 C54.177,42.736 42.09,54.824 27.177,54.824 C12.264,54.824 0.177,42.736 0.177,27.824 C0.177,12.911 12.264,0.824 27.177,0.824 C42.09,0.824 54.177,12.911 54.177,27.824"/>
    <path fill="#404040" d="M69.537 21.551C70.516 21.551 71.272 21.263 71.805 20.685 72.338 20.108 72.606 19.287 72.606 18.22L72.606 7.44 77.484 7.44 77.484 18.193C77.484 20.555 76.793 22.382 75.412 23.676 74.031 24.97 72.072 25.616 69.537 25.616 67.001 25.616 65.042 24.97 63.662 23.676 62.28 22.382 61.589 20.555 61.589 18.193L61.589 7.44 66.468 7.44 66.468 18.22C66.468 19.287 66.735 20.108 67.268 20.685 67.801 21.263 68.557 21.551 69.537 21.551M87.241 25.616C85.79 25.616 84.399 25.367 83.071 24.869 81.742 24.37 80.587 23.658 79.609 22.731L81.969 19.768C82.668 20.396 83.455 20.892 84.33 21.249 85.204 21.607 86.165 21.787 87.214 21.787 87.914 21.787 88.464 21.665 88.867 21.42 89.269 21.175 89.47 20.808 89.47 20.318 89.47 19.846 89.235 19.466 88.762 19.178 88.29 18.889 87.459 18.587 86.271 18.272L85.169 17.983C83.56 17.564 82.336 16.922 81.496 16.056 80.658 15.19 80.238 14.094 80.238 12.765 80.238 11.628 80.535 10.631 81.129 9.774 81.724 8.918 82.546 8.258 83.595 7.794 84.644 7.331 85.86 7.099 87.241 7.099 88.605 7.099 89.908 7.349 91.149 7.847 92.39 8.345 93.492 9.022 94.454 9.879L92.014 12.948C91.385 12.406 90.646 11.934 89.798 11.531 88.95 11.13 88.107 10.929 87.267 10.929 86.568 10.929 86.03 11.047 85.654 11.282 85.278 11.519 85.09 11.864 85.09 12.318 85.09 12.738 85.287 13.102 85.68 13.407 86.074 13.713 86.751 13.997 87.713 14.26L89.05 14.627C90.974 15.151 92.333 15.868 93.129 16.777 93.924 17.686 94.323 18.744 94.323 19.951 94.323 21.088 94.03 22.08 93.444 22.928 92.858 23.776 92.032 24.436 90.965 24.908 89.899 25.38 88.658 25.616 87.241 25.616M102.48 18.325L106.703 18.325 104.605 12.082 102.48 18.325zM109.063 25.275L107.936 21.944 101.248 21.944 100.12 25.275 95.293 25.275 101.825 7.44 107.49 7.44 114.021 25.275 109.063 25.275 109.063 25.275z"/>
    <polyline fill="#404040" points="125.219 25.275 125.219 11.374 119.921 11.374 119.921 7.44 135.396 7.44 135.396 11.374 130.098 11.374 130.098 25.275 125.219 25.275"/>
    <path fill="#404040" d="M145.599 21.577C146.456 21.577 147.203 21.358 147.841 20.922 148.48 20.484 148.982 19.877 149.349 19.099 149.716 18.32 149.901 17.416 149.901 16.384 149.901 15.352 149.716 14.443 149.349 13.656 148.982 12.869 148.48 12.253 147.841 11.807 147.203 11.361 146.456 11.139 145.599 11.139 144.742 11.139 143.995 11.361 143.356 11.807 142.718 12.253 142.215 12.869 141.848 13.656 141.481 14.443 141.297 15.352 141.297 16.384 141.297 17.416 141.481 18.32 141.848 19.099 142.215 19.877 142.718 20.484 143.356 20.922 143.995 21.358 144.742 21.577 145.599 21.577zM145.599 25.616C143.815 25.616 142.229 25.223 140.838 24.436 139.449 23.649 138.351 22.56 137.546 21.171 136.743 19.78 136.34 18.185 136.34 16.384 136.34 15.019 136.567 13.774 137.022 12.646 137.477 11.519 138.124 10.539 138.963 9.709 139.802 8.879 140.782 8.235 141.901 7.781 143.019 7.326 144.252 7.099 145.599 7.099 146.945 7.099 148.178 7.326 149.297 7.781 150.415 8.235 151.395 8.879 152.235 9.709 153.074 10.539 153.721 11.519 154.175 12.646 154.63 13.774 154.858 15.019 154.858 16.384 154.858 18.185 154.456 19.78 153.651 21.171 152.846 22.56 151.749 23.649 150.36 24.436 148.969 25.223 147.382 25.616 145.599 25.616L145.599 25.616zM162.463 21.42L164.693 21.42C165.969 21.42 166.979 20.957 167.722 20.029 168.465 19.103 168.837 17.879 168.837 16.357 168.837 14.836 168.465 13.612 167.722 12.685 166.979 11.759 165.969 11.296 164.693 11.296L162.463 11.296 162.463 21.42zM157.664 25.275L157.664 7.44 164.693 7.44C166.459 7.44 168.02 7.82 169.374 8.581 170.73 9.342 171.792 10.391 172.562 11.728 173.331 13.066 173.715 14.609 173.715 16.357 173.715 18.106 173.331 19.649 172.562 20.987 171.792 22.324 170.73 23.374 169.374 24.135 168.02 24.895 166.459 25.275 164.693 25.275L157.664 25.275 157.664 25.275zM181.532 18.325L185.754 18.325 183.657 12.082 181.532 18.325zM188.115 25.275L186.988 21.944 180.299 21.944 179.171 25.275 174.345 25.275 180.876 7.44 186.541 7.44 193.073 25.275 188.115 25.275 188.115 25.275z"/>
    <polyline fill="#404040" points="202.514 18.85 202.514 25.275 197.556 25.275 197.556 18.85 191.236 7.44 196.744 7.44 200.048 14.521 203.327 7.44 208.834 7.44 202.514 18.85"/>
    <polyline fill="#404040" points="227.797 25.275 220.794 14.994 220.794 25.275 216.309 25.275 216.309 7.44 220.768 7.44 227.745 17.905 227.745 7.44 232.256 7.44 232.256 25.275 227.797 25.275"/>
    <polyline fill="#404040" points="236.191 25.275 236.191 7.44 248.493 7.44 248.493 11.348 240.965 11.348 240.965 14.364 247.653 14.364 247.653 18.272 240.965 18.272 240.965 21.367 248.913 21.367 248.913 25.275 236.191 25.275"/>
    <polyline fill="#404040" points="255.915 25.275 255.915 11.374 250.617 11.374 250.617 7.44 266.091 7.44 266.091 11.374 260.793 11.374 260.793 25.275 255.915 25.275"/>
    <polyline fill="#404040" points="282.562 25.275 279.677 13.683 276.791 25.275 271.624 25.275 267.192 7.44 271.914 7.44 274.615 19.61 277.605 7.44 281.775 7.44 284.739 19.531 287.519 7.44 292.162 7.44 287.729 25.275 282.562 25.275"/>
    <path fill="#404040" d="M302.548 21.577C303.405 21.577 304.152 21.358 304.79 20.922 305.429 20.484 305.931 19.877 306.298 19.099 306.665 18.32 306.85 17.416 306.85 16.384 306.85 15.352 306.665 14.443 306.298 13.656 305.931 12.869 305.429 12.253 304.79 11.807 304.152 11.361 303.405 11.139 302.548 11.139 301.691 11.139 300.944 11.361 300.305 11.807 299.667 12.253 299.165 12.869 298.797 13.656 298.43 14.443 298.247 15.352 298.247 16.384 298.247 17.416 298.43 18.32 298.797 19.099 299.165 19.877 299.667 20.484 300.305 20.922 300.944 21.358 301.691 21.577 302.548 21.577zM302.548 25.616C300.764 25.616 299.178 25.223 297.788 24.436 296.398 23.649 295.3 22.56 294.496 21.171 293.692 19.78 293.29 18.185 293.29 16.384 293.29 15.019 293.516 13.774 293.971 12.646 294.426 11.519 295.073 10.539 295.913 9.709 296.751 8.879 297.731 8.235 298.85 7.781 299.968 7.326 301.202 7.099 302.548 7.099 303.894 7.099 305.127 7.326 306.247 7.781 307.365 8.235 308.344 8.879 309.184 9.709 310.023 10.539 310.67 11.519 311.124 12.646 311.58 13.774 311.807 15.019 311.807 16.384 311.807 18.185 311.405 19.78 310.6 21.171 309.795 22.56 308.699 23.649 307.309 24.436 305.918 25.223 304.332 25.616 302.548 25.616L302.548 25.616zM319.387 15.649L322.01 15.649C322.761 15.649 323.356 15.453 323.793 15.06 324.23 14.666 324.449 14.128 324.449 13.446 324.449 12.8 324.23 12.279 323.793 11.886 323.356 11.492 322.761 11.296 322.01 11.296L319.387 11.296 319.387 15.649zM319.387 19.348L319.387 25.275 314.665 25.275 314.665 7.44 322.535 7.44C324.632 7.44 326.293 7.977 327.518 9.053 328.742 10.128 329.354 11.593 329.354 13.446 329.354 14.652 329.082 15.693 328.54 16.567 327.999 17.442 327.238 18.124 326.259 18.613L329.905 25.275 324.711 25.275 321.748 19.348 319.387 19.348 319.387 19.348z"/>
    <polyline fill="#404040" points="343.044 25.275 337.379 16.556 337.379 25.275 332.527 25.275 332.527 7.44 337.379 7.44 337.379 15.269 343.254 7.44 348.868 7.44 342.258 15.637 348.737 25.275 343.044 25.275"/>
    <path class='no-color-change' fill="#009BFF" d="M68.225,48.47 C66.774,48.47 65.383,48.221 64.055,47.723 C62.726,47.224 61.572,46.512 60.593,45.585 L62.954,42.621 C63.653,43.25 64.439,43.745 65.314,44.102 C66.188,44.461 67.15,44.641 68.199,44.641 C68.898,44.641 69.449,44.519 69.851,44.273 C70.253,44.028 70.455,43.661 70.455,43.172 C70.455,42.699 70.219,42.319 69.746,42.031 C69.275,41.742 68.444,41.44 67.255,41.126 L66.154,40.837 C64.544,40.418 63.321,39.775 62.481,38.909 C61.642,38.044 61.222,36.947 61.222,35.618 C61.222,34.481 61.519,33.484 62.114,32.628 C62.709,31.771 63.531,31.111 64.58,30.647 C65.628,30.185 66.844,29.952 68.225,29.952 C69.589,29.952 70.892,30.202 72.133,30.7 C73.374,31.198 74.476,31.876 75.438,32.732 L72.998,35.802 C72.37,35.26 71.63,34.787 70.783,34.385 C69.934,33.983 69.091,33.782 68.251,33.782 C67.552,33.782 67.014,33.9 66.638,34.136 C66.262,34.372 66.075,34.718 66.075,35.172 C66.075,35.592 66.271,35.955 66.664,36.261 C67.058,36.566 67.736,36.851 68.698,37.113 L70.035,37.48 C71.959,38.005 73.318,38.722 74.114,39.631 C74.909,40.54 75.307,41.598 75.307,42.805 C75.307,43.941 75.014,44.934 74.428,45.781 C73.842,46.63 73.016,47.29 71.95,47.762 C70.883,48.233 69.642,48.47 68.225,48.47"/>
    <polygon class='no-color-change' fill="#009BFF" points="78.245 48.129 83.123 48.129 83.123 30.294 78.245 30.294"/>
    <path class='no-color-change' fill="#009BFF" d="M95.293 44.431C96.15 44.431 96.897 44.212 97.536 43.775 98.174 43.338 98.676 42.73 99.043 41.952 99.411 41.174 99.595 40.269 99.595 39.237 99.595 38.206 99.411 37.297 99.043 36.51 98.676 35.723 98.174 35.106 97.536 34.66 96.897 34.215 96.15 33.992 95.293 33.992 94.436 33.992 93.689 34.215 93.05 34.66 92.413 35.106 91.91 35.723 91.542 36.51 91.175 37.297 90.992 38.206 90.992 39.237 90.992 40.269 91.175 41.174 91.542 41.952 91.91 42.73 92.413 43.338 93.05 43.775 93.689 44.212 94.436 44.431 95.293 44.431zM95.293 48.47C93.509 48.47 91.923 48.076 90.533 47.29 89.143 46.503 88.045 45.414 87.241 44.024 86.437 42.634 86.035 41.039 86.035 39.237 86.035 37.873 86.261 36.628 86.716 35.5 87.171 34.372 87.818 33.393 88.658 32.562 89.497 31.732 90.476 31.089 91.595 30.635 92.713 30.18 93.947 29.952 95.293 29.952 96.639 29.952 97.873 30.18 98.992 30.635 100.11 31.089 101.089 31.732 101.929 32.562 102.768 33.393 103.415 34.372 103.87 35.5 104.325 36.628 104.552 37.873 104.552 39.237 104.552 41.039 104.15 42.634 103.345 44.024 102.54 45.414 101.444 46.503 100.054 47.29 98.664 48.076 97.077 48.47 95.293 48.47L95.293 48.47zM115.069 44.404C116.048 44.404 116.804 44.116 117.337 43.539 117.871 42.962 118.138 42.141 118.138 41.073L118.138 30.294 123.016 30.294 123.016 41.047C123.016 43.408 122.326 45.235 120.944 46.529 119.563 47.823 117.604 48.47 115.069 48.47 112.534 48.47 110.575 47.823 109.194 46.529 107.812 45.235 107.122 43.408 107.122 41.047L107.122 30.294 112 30.294 112 41.073C112 42.141 112.267 42.962 112.8 43.539 113.333 44.116 114.089 44.404 115.069 44.404"/>
    <polyline class='no-color-change' fill="#009BFF" points="137.258 48.129 133.849 42.909 130.308 48.129 124.748 48.129 131.069 39.264 124.774 30.294 130.439 30.294 133.927 35.592 137.311 30.294 142.872 30.294 136.707 39.211 142.924 48.129 137.258 48.129"/>
    <polyline class='no-color-change' fill="#009BFF" points="156.431 48.129 151.552 48.129 151.552 30.294 164.09 30.294 164.09 34.201 156.431 34.201 156.431 37.769 162.779 37.769 162.779 41.677 156.431 41.677 156.431 48.129"/>
    <path class='no-color-change' fill="#009BFF" d="M171.198,41.179 L175.42,41.179 L173.323,34.935 L171.198,41.179 Z M177.781,48.129 L176.654,44.798 L169.965,44.798 L168.837,48.129 L164.011,48.129 L170.542,30.294 L176.207,30.294 L182.739,48.129 L177.781,48.129 L177.781,48.129 Z"/>
    <polyline class='no-color-change' fill="#009BFF" points="189.952 44.194 197.374 44.194 197.374 48.129 185.073 48.129 185.073 30.294 189.952 30.294 189.952 44.194"/>
    <polyline class='no-color-change' fill="#009BFF" points="204.823 44.194 212.246 44.194 212.246 48.129 199.944 48.129 199.944 30.294 204.823 30.294 204.823 44.194"/>
    <path class='no-color-change' fill="#009BFF" d="M221.11,48.47 C219.659,48.47 218.268,48.221 216.94,47.723 C215.611,47.224 214.457,46.512 213.478,45.585 L215.838,42.621 C216.538,43.25 217.324,43.745 218.199,44.102 C219.073,44.461 220.035,44.641 221.083,44.641 C221.783,44.641 222.333,44.519 222.736,44.273 C223.138,44.028 223.339,43.661 223.339,43.172 C223.339,42.699 223.104,42.319 222.631,42.031 C222.16,41.742 221.329,41.44 220.14,41.126 L219.039,40.837 C217.429,40.418 216.206,39.775 215.366,38.909 C214.527,38.044 214.107,36.947 214.107,35.618 C214.107,34.481 214.404,33.484 214.999,32.628 C215.593,31.771 216.415,31.111 217.464,30.647 C218.513,30.185 219.729,29.952 221.11,29.952 C222.474,29.952 223.777,30.202 225.018,30.7 C226.259,31.198 227.361,31.876 228.323,32.732 L225.883,35.802 C225.254,35.26 224.515,34.787 223.667,34.385 C222.819,33.983 221.976,33.782 221.136,33.782 C220.437,33.782 219.899,33.9 219.523,34.136 C219.147,34.372 218.959,34.718 218.959,35.172 C218.959,35.592 219.156,35.955 219.549,36.261 C219.943,36.566 220.621,36.851 221.582,37.113 L222.919,37.48 C224.843,38.005 226.203,38.722 226.999,39.631 C227.793,40.54 228.192,41.598 228.192,42.805 C228.192,43.941 227.899,44.934 227.313,45.781 C226.727,46.63 225.901,47.29 224.834,47.762 C223.768,48.233 222.527,48.47 221.11,48.47"/>
  </g>
</svg>
