<svg xmlns="http://www.w3.org/2000/svg" width="305" height="43" viewBox="0 0 305 43">
  <g fill="none" fill-rule="evenodd">
    <path fill="#009BFF" class="no-color-change" d="M12.937 21.738L20.182 21.738 16.582 11.028 12.937 21.738zM24.232 33.663L22.297 27.948 10.822 27.948 8.887 33.663.607 33.663 11.812 3.063 21.532 3.063 32.737 33.663 24.232 33.663 24.232 33.663zM43.941 24.798L43.941 33.663 36.112 33.663 36.112 10.758 43.266 10.758 43.761 14.583C44.241 13.353 45.029 12.355 46.124 11.591 47.219 10.826 48.487 10.443 49.927 10.443 50.737 10.443 51.351 10.549 51.771 10.758L51.771 17.913C51.441 17.794 51.074 17.704 50.669 17.643 50.264 17.583 49.806 17.553 49.296 17.553 47.736 17.553 46.454 18.131 45.449 19.286 44.444 20.441 43.941 22.278 43.941 24.798M66.576 26.778C67.896 26.778 68.961 26.305 69.771 25.361 70.581 24.416 70.986 23.148 70.986 21.558 70.986 19.969 70.581 18.701 69.771 17.756 68.961 16.81 67.896 16.338 66.576 16.338 65.226 16.338 64.146 16.81 63.336 17.756 62.526 18.701 62.121 19.969 62.121 21.558 62.121 23.118 62.526 24.379 63.336 25.338 64.146 26.299 65.226 26.778 66.576 26.778zM78.726 31.233C78.726 33.573 78.186 35.576 77.106 37.241 76.026 38.906 74.534 40.18 72.629 41.066 70.723 41.95 68.511 42.393 65.991 42.393 63.951 42.393 62.016 42.123 60.186 41.583 58.356 41.043 56.721 40.323 55.281 39.423L58.206 34.383C59.226 34.983 60.299 35.47 61.424 35.845 62.549 36.22 63.711 36.408 64.911 36.408 66.921 36.408 68.421 35.958 69.411 35.058 70.401 34.158 70.896 32.884 70.896 31.233L70.896 30.423C70.116 31.204 69.179 31.826 68.084 32.291 66.988 32.756 65.841 32.988 64.641 32.988 62.571 32.988 60.749 32.501 59.174 31.526 57.599 30.551 56.368 29.201 55.484 27.475 54.598 25.751 54.156 23.779 54.156 21.558 54.156 19.308 54.591 17.328 55.461 15.618 56.331 13.908 57.546 12.574 59.106 11.613 60.666 10.653 62.466 10.173 64.506 10.173 65.886 10.173 67.168 10.504 68.354 11.163 69.538 11.823 70.476 12.693 71.166 13.773L71.571 10.758 78.726 10.758 78.726 31.233 78.726 31.233zM99.336 33.663L98.931 30.648C98.181 31.759 97.199 32.635 95.983 33.281 94.769 33.925 93.456 34.248 92.046 34.248 89.376 34.248 87.336 33.461 85.926 31.886 84.515 30.31 83.811 28.038 83.811 25.068L83.811 10.758 91.641 10.758 91.641 24.168C91.641 26.658 92.781 27.903 95.061 27.903 97.461 27.903 98.661 26.403 98.661 23.403L98.661 10.758 106.491 10.758 106.491 33.663 99.336 33.663M120.485 34.248C118.505 34.248 116.653 33.933 114.928 33.303 113.202 32.673 111.65 31.773 110.27 30.603L113.6 26.193C114.65 27.033 115.783 27.716 116.998 28.241 118.213 28.766 119.405 29.028 120.576 29.028 121.355 29.028 121.977 28.893 122.443 28.623 122.908 28.353 123.14 27.948 123.14 27.408 123.14 26.839 122.878 26.381 122.353 26.036 121.828 25.691 120.89 25.353 119.54 25.023L117.38 24.483C113.09 23.344 110.945 21.049 110.945 17.598 110.945 16.068 111.365 14.748 112.205 13.638 113.045 12.529 114.2 11.674 115.67 11.073 117.14 10.473 118.85 10.173 120.8 10.173 122.72 10.173 124.528 10.473 126.223 11.073 127.918 11.674 129.47 12.543 130.88 13.683L127.461 18.183C126.41 17.344 125.3 16.669 124.13 16.158 122.961 15.648 121.865 15.393 120.846 15.393 119.195 15.393 118.37 15.933 118.37 17.013 118.37 17.493 118.618 17.884 119.113 18.183 119.608 18.483 120.305 18.754 121.205 18.993L124.13 19.803C126.32 20.404 127.94 21.303 128.99 22.503 130.04 23.703 130.565 25.129 130.565 26.778 130.565 28.279 130.145 29.591 129.305 30.716 128.465 31.841 127.287 32.711 125.773 33.326 124.258 33.94 122.495 34.248 120.485 34.248"/>
    <polyline fill="#FFFFFE" points="154.64 26.913 167.375 26.913 167.375 33.663 146.27 33.663 146.27 3.063 154.64 3.063 154.64 26.913"/>
    <path fill="#FFFFFE" d="M181.999 15.843C179.449 15.843 177.919 17.193 177.409 19.893L186.139 19.893C185.929 18.424 185.426 17.381 184.632 16.765 183.836 16.151 182.959 15.843 181.999 15.843zM192.709 31.323C191.569 32.133 190.122 32.824 188.367 33.393 186.612 33.963 184.744 34.248 182.764 34.248 180.034 34.248 177.702 33.745 175.767 32.741 173.832 31.736 172.347 30.333 171.312 28.533 170.277 26.733 169.759 24.663 169.759 22.323 169.759 19.954 170.269 17.853 171.289 16.023 172.309 14.194 173.719 12.761 175.519 11.725 177.319 10.691 179.419 10.173 181.819 10.173 184.159 10.173 186.221 10.676 188.007 11.68 189.791 12.686 191.186 14.081 192.192 15.866 193.197 17.651 193.699 19.743 193.699 22.143 193.699 22.473 193.677 22.818 193.632 23.178 193.587 23.538 193.534 23.914 193.474 24.303L177.499 24.303C178.219 26.943 180.184 28.263 183.394 28.263 184.834 28.263 186.109 28.038 187.219 27.588 188.329 27.138 189.259 26.688 190.009 26.238L192.709 31.323 192.709 31.323zM203.869 26.238C203.869 26.928 204.124 27.491 204.634 27.926 205.144 28.361 205.804 28.578 206.614 28.578 207.694 28.578 208.601 28.211 209.336 27.475 210.071 26.741 210.439 25.818 210.439 24.708L210.439 23.943C209.629 23.793 208.774 23.718 207.874 23.718 206.733 23.718 205.782 23.914 205.017 24.303 204.252 24.693 203.869 25.338 203.869 26.238zM210.754 33.663L210.349 30.648C208.849 33.049 206.569 34.248 203.509 34.248 202.159 34.248 200.936 33.956 199.842 33.371 198.746 32.786 197.876 31.983 197.232 30.963 196.586 29.944 196.264 28.758 196.264 27.408 196.264 24.859 197.261 22.879 199.257 21.468 201.251 20.058 203.884 19.353 207.154 19.353 208.174 19.353 209.253 19.443 210.394 19.623 210.274 18.483 209.786 17.621 208.931 17.036 208.076 16.451 207.034 16.158 205.804 16.158 204.724 16.158 203.636 16.361 202.542 16.765 201.446 17.171 200.404 17.658 199.414 18.228L196.759 13.188C198.259 12.228 199.879 11.486 201.619 10.961 203.358 10.436 205.099 10.173 206.839 10.173 208.939 10.173 210.829 10.533 212.509 11.253 214.189 11.973 215.509 13.069 216.469 14.538 217.429 16.009 217.909 17.868 217.909 20.118L217.909 33.663 210.754 33.663 210.754 33.663zM234.019 28.038C235.369 28.038 236.456 27.506 237.282 26.441 238.106 25.376 238.519 23.959 238.519 22.188 238.519 20.418 238.106 19.001 237.282 17.935 236.456 16.871 235.369 16.338 234.019 16.338 232.638 16.338 231.536 16.871 230.711 17.935 229.886 19.001 229.474 20.418 229.474 22.188 229.474 23.959 229.886 25.376 230.711 26.441 231.536 27.506 232.638 28.038 234.019 28.038zM239.059 33.663L238.654 30.648C237.934 31.759 237.004 32.635 235.864 33.281 234.723 33.925 233.404 34.248 231.904 34.248 229.834 34.248 228.018 33.738 226.459 32.718 224.899 31.699 223.683 30.281 222.814 28.466 221.943 26.651 221.509 24.558 221.509 22.188 221.509 19.819 221.943 17.733 222.814 15.933 223.683 14.133 224.876 12.723 226.391 11.703 227.906 10.683 229.654 10.173 231.634 10.173 233.013 10.173 234.289 10.466 235.459 11.051 236.629 11.636 237.603 12.423 238.384 13.413L238.384.813 246.214.813 246.214 33.663 239.059 33.663 239.059 33.663zM262.549 15.843C259.998 15.843 258.469 17.193 257.959 19.893L266.689 19.893C266.478 18.424 265.976 17.381 265.181 16.765 264.386 16.151 263.509 15.843 262.549 15.843zM273.259 31.323C272.118 32.133 270.671 32.824 268.916 33.393 267.161 33.963 265.294 34.248 263.314 34.248 260.583 34.248 258.251 33.745 256.316 32.741 254.381 31.736 252.896 30.333 251.861 28.533 250.826 26.733 250.309 24.663 250.309 22.323 250.309 19.954 250.819 17.853 251.839 16.023 252.858 14.194 254.269 12.761 256.069 11.725 257.868 10.691 259.968 10.173 262.368 10.173 264.709 10.173 266.771 10.676 268.556 11.68 270.341 12.686 271.736 14.081 272.741 15.866 273.746 17.651 274.249 19.743 274.249 22.143 274.249 22.473 274.226 22.818 274.181 23.178 274.136 23.538 274.083 23.914 274.024 24.303L258.049 24.303C258.769 26.943 260.733 28.263 263.944 28.263 265.384 28.263 266.659 28.038 267.769 27.588 268.878 27.138 269.808 26.688 270.559 26.238L273.259 31.323 273.259 31.323zM286.083 24.798L286.083 33.663 278.254 33.663 278.254 10.758 285.409 10.758 285.904 14.583C286.383 13.353 287.171 12.355 288.266 11.591 289.361 10.826 290.629 10.443 292.069 10.443 292.879 10.443 293.493 10.549 293.913 10.758L293.913 17.913C293.583 17.794 293.216 17.704 292.811 17.643 292.406 17.583 291.948 17.553 291.438 17.553 289.878 17.553 288.596 18.131 287.591 19.286 286.586 20.441 286.083 22.278 286.083 24.798"/>
    <path fill="#009BFF" class="no-color-change" d="M299.673,34.158 C298.713,34.158 297.835,33.925 297.041,33.461 C296.245,32.996 295.616,32.366 295.151,31.57 C294.685,30.776 294.453,29.898 294.453,28.938 C294.453,27.978 294.685,27.101 295.151,26.305 C295.616,25.511 296.245,24.881 297.041,24.416 C297.835,23.951 298.713,23.718 299.673,23.718 C300.633,23.718 301.511,23.951 302.306,24.416 C303.1,24.881 303.73,25.511 304.196,26.305 C304.66,27.101 304.893,27.978 304.893,28.938 C304.893,29.898 304.66,30.776 304.196,31.57 C303.73,32.366 303.1,32.996 302.306,33.461 C301.511,33.925 300.633,34.158 299.673,34.158"/>
  </g>
</svg>
