<?xml version="1.0" encoding="UTF-8" standalone="no"?>
<svg width="650px" height="93px" viewBox="0 0 650 93" version="1.1" xmlns="http://www.w3.org/2000/svg" xmlns:xlink="http://www.w3.org/1999/xlink" xmlns:sketch="http://www.bohemiancoding.com/sketch/ns">
    <!-- Generator: Sketch 3.4.2 (15857) - http://www.bohemiancoding.com/sketch -->
    <title>Group</title>
    <desc>Created with Sketch.</desc>
    <defs></defs>
    <g id="Page-1" stroke="none" stroke-width="1" fill="none" fill-rule="evenodd" sketch:type="MSPage">
        <g id="SiouxFalls" sketch:type="MSLayerGroup">
            <g id="Group" sketch:type="MSShapeGroup">
                <path d="M54.937,1.296 L55.684,2.286 L66.035,34.835 C68.604,42.867 72.08,50.574 74.567,58.61 C76.057,61.008 78.625,61.339 80.942,61.92 C82.02,61.998 82.849,61.424 83.676,60.757 L84.34,59.184 L84.751,32.352 C84.421,30.778 83.593,29.121 81.855,28.625 C79.866,28.875 80.529,26.72 80.362,25.479 C80.61,24.316 80.115,22.582 81.191,21.833 C89.141,21.667 96.513,21.75 104.547,21.75 C105.955,22.083 104.878,24.071 105.625,24.812 C110.346,20.757 117.467,19.93 123.515,21.75 L123.764,22.414 C124.096,26.885 123.598,31.191 124.177,35.664 L124.675,35.416 C131.465,25.807 141.652,20.426 153.578,21.253 C171.717,21.334 188.944,21.832 206.75,21.667 C208.076,23.156 207.248,25.396 207.497,27.467 C207.411,36.244 207.579,45.602 207.411,54.464 C207.497,56.038 208.574,57.447 209.98,58.439 C211.306,59.101 212.88,58.855 214.123,58.194 C217.683,56.946 216.856,53.141 217.102,50.161 C216.938,43.535 217.435,37.407 217.102,30.858 C216.687,28.958 214.621,28.46 213.046,28.209 L212.631,27.384 L212.881,21.916 L214.37,21.5 C222.653,21.171 230.355,21.75 238.721,21.833 L239.053,22.329 L238.97,55.209 C239.384,57.447 237.894,61.092 240.956,61.921 C241.537,62.082 242.199,61.921 242.778,61.999 C244.516,59.269 245.511,56.204 247.002,53.305 C248.328,52.393 249.404,53.723 250.729,53.723 C252.471,54.964 256.526,53.884 256.114,57.28 C258.349,60.678 262.408,61.092 266.134,61.59 C268.95,61.34 272.263,61.34 273.673,58.278 C274.001,57.28 273.587,56.37 272.843,55.629 C264.146,51.155 251.143,54.797 245.843,44.28 C244.104,39.145 244.353,32.438 247.996,28.13 C253.63,21.586 262.076,21.092 270.11,20.343 C278.059,20.759 285.347,22.829 291.724,26.887 C292.224,27.386 292.139,28.295 291.893,28.794 C290.815,31.606 288.992,34.175 287.667,36.909 C287.003,37.573 285.928,37.075 285.181,36.909 C283.196,36.411 281.126,36.077 279.219,35.253 C279.136,33.348 278.557,31.441 276.735,30.365 C273.255,28.626 267.625,28.13 264.395,30.698 C263.566,31.357 263.319,32.6 263.732,33.595 C264.81,35.417 266.878,35.585 268.782,35.831 C277.479,37.322 287.584,37.488 292.471,46.102 C294.54,51.651 294.043,58.686 289.904,63.158 C287.335,65.563 284.602,67.551 281.291,68.133 L281.291,68.466 C277.396,69.208 273.173,70.118 268.782,70.118 C259.839,70.118 251.142,68.799 243.773,64.734 C242.944,64.571 242.944,65.485 242.862,65.979 C243.108,67.052 243.025,68.38 242.198,69.127 L218.428,69.041 C217.516,68.465 218.51,66.643 217.601,65.894 C212.547,69.623 205.758,70.699 199.211,69.54 C193.914,68.708 188.364,64.57 187.036,59.102 L186.294,55.209 L186.294,31.191 C185.878,28.793 183.144,28.46 181.24,27.963 C179.914,28.209 178.675,28.625 177.679,29.62 L177.1,30.943 L176.769,63.575 C178.011,66.309 179.749,68.876 179.749,72.106 C179.914,78.565 175.361,83.783 170.224,87.261 C162.111,92.151 151.344,92.648 141.571,91.822 C133.785,90.491 126.58,87.758 120.203,83.04 L120.203,82.043 C124.011,78.403 127.242,74.093 131.051,70.364 C133.372,70.697 135.194,72.185 137.096,73.599 C137.596,74.674 136.683,76.494 137.676,77.489 C140.408,81.547 145.545,81.632 150.101,81.301 C153.246,80.8 156.809,79.146 157.884,75.832 C158.547,72.853 157.802,69.539 156.228,67.221 C147.946,71.114 135.937,70.698 128.568,64.903 C123.185,60.179 119.705,53.965 120.78,46.597 C120.944,43.451 121.94,40.635 123.185,37.9 L121.94,37.406 L114.818,37.321 C113.908,35.75 114.071,33.346 112.004,32.436 C110.76,32.188 109.599,32.436 108.771,33.346 C107.364,34.835 107.033,36.743 106.783,38.73 L106.617,59.184 C106.866,61.339 109.022,62.331 110.76,62.996 C111.507,64.404 111.09,66.392 111.09,68.049 L110.76,68.959 C89.973,69.127 69.1,69.041 48.229,69.041 C46.986,68.959 45.167,69.289 44.171,68.38 L44.255,62.082 C45.744,60.924 48.395,61.34 49.058,59.102 C48.889,55.873 47.568,53.225 46.572,50.325 L45.578,49.746 L25.618,50.075 C24.623,53.39 20.813,57.944 24.791,60.925 C25.702,61.426 26.944,61.426 27.357,62.501 C26.943,64.651 27.855,66.972 27.025,68.96 L1.185,69.128 C0.687,68.96 0.439,68.709 0.275,68.218 L0.438,62.17 C2.261,61.01 4.748,60.1 5.74,57.779 C10.71,46.017 13.689,33.347 19.076,21.751 L26.614,1.794 L27.688,1.047 C37.213,0.963 45.495,0.715 54.937,1.296 L54.937,1.296 Z" id="Shape" fill="#000000"></path>
                <path d="M546.65,2.455 C546.732,21.833 546.484,40.881 546.65,60.017 C547.063,61.753 548.804,63.079 550.459,63.491 L551.038,64.405 L550.956,69.456 L550.129,69.957 L527.602,69.872 C526.853,69.376 527.024,68.133 526.274,67.719 C519.069,71.364 507.971,72.273 500.848,67.639 C493.725,63.33 489.088,55.544 490.745,46.764 C492.814,35.586 503.83,26.471 514.266,23.408 C517.745,22.25 521.885,22.583 525.282,21.255 C524.786,17.115 527.272,11.316 522.962,8.832 C522.052,8.333 520.646,8.584 520.066,7.591 L520.149,2.288 L520.728,1.794 C529.008,1.626 537.54,1.626 545.986,1.794 L546.65,2.455 L546.65,2.455 Z" id="Shape" fill="#000000"></path>
                <path d="M353.346,2.537 L353.759,3.449 C353.511,5.434 353.924,7.424 353.346,9.327 C351.687,9.825 349.535,10.405 348.621,12.392 L348.13,15.375 L348.13,55.961 C348.46,56.537 347.711,57.861 348.789,58.027 C355.661,57.12 365.021,60.841 369.245,54.051 C370.072,52.646 370.32,51.069 370.734,49.578 L371.731,49.086 L379.846,48.831 L380.094,48.588 C379.846,39.144 383.49,30.034 392.267,25.48 C397.405,22.495 402.706,20.838 409.164,21.006 C417.031,21.171 424.402,23.49 429.292,30.116 C432.77,35.417 434.26,41.878 433.35,48.67 C423.411,49.332 413.227,47.756 403.365,48.831 C403.285,52.392 405.44,55.046 407.677,57.613 C410.905,59.93 415.045,61.009 419.188,60.179 C422,59.597 424.569,56.618 425.148,53.805 C427.719,53.557 430.948,53.557 433.682,53.805 L434.178,54.715 L433.847,66.557 L432.687,67.467 C423.164,71.029 411.399,72.023 400.885,70.033 C394.258,68.216 387.714,64.649 383.408,58.769 L380.674,53.223 L380.426,54.049 L379.93,70.115 L379.351,70.533 L358.647,70.696 L319.552,70.696 C318.726,68.623 319.141,66.307 319.222,63.986 C320.547,62.994 322.699,62.831 323.444,60.922 L323.944,58.769 L324.189,13.964 C324.027,12.558 323.28,11.147 321.953,10.402 C321.211,9.986 320.215,9.823 319.552,9.244 C319.304,7.171 319.388,4.773 319.802,2.783 C330.566,2.036 340.507,2.452 351.273,2.369 L353.346,2.537 L353.346,2.537 Z" id="Shape" fill="#000000"></path>
                <path d="M36.222,19.019 C38.043,24.651 39.948,30.2 41.437,35.916 L40.278,36.327 C36.965,36.244 33.652,36.575 30.34,36.076 C31.83,30.364 33.737,24.565 35.973,19.018 L36.222,19.018 L36.222,19.019 Z" id="Shape" fill="#FFFFFF"></path>
                <path d="M601.56,32.848 C603.714,36.908 604.293,41.961 604.128,46.763 L603.629,47.177 C593.443,47.51 583.09,46.848 573.15,47.342 C572.819,47.427 572.571,47.593 572.323,47.841 C573.067,52.809 577.291,57.862 582.263,58.942 C585.328,59.766 588.722,59.518 591.206,57.614 C592.782,56.122 593.94,54.466 594.354,52.561 C597.585,51.897 601.063,52.145 604.46,52.313 L604.956,52.971 L604.956,64.904 C602.971,66.558 600.071,66.889 597.585,67.638 C586.818,70.287 574.477,71.363 564.043,67.137 C555.926,63.658 549.963,55.209 549.798,46.35 C549.633,36.909 554.518,28.46 562.715,23.49 C565.201,22.249 567.854,21.172 570.75,20.676 C581.103,18.936 592.282,20.759 599.239,29.287 L601.56,32.848 L601.56,32.848 Z" id="Shape" fill="#000000"></path>
                <path d="M484.947,30.116 C490.08,38.73 486.356,49.991 487.431,59.765 C487.516,60.923 488.095,62.248 489.338,62.579 C490.079,62.832 490.994,62.832 491.325,63.657 L491.157,69.374 L490.663,69.704 C482.794,69.785 475.506,70.116 467.802,69.454 C467.223,68.958 467.636,67.965 467.388,67.384 C463.495,68.464 459.769,70.78 455.215,70.619 C448.505,71.196 442.458,69.288 438.235,63.905 C435.256,60.015 435.335,53.556 437.822,49.577 C444.531,40.221 455.629,39.476 465.398,36.657 C466.145,36.326 465.564,35.584 465.564,35.168 C464.158,32.767 461.756,31.356 459.105,31.191 C455.298,31.439 451.321,33.928 450.165,37.733 C447.183,38.231 443.784,37.983 440.557,37.901 L439.978,37.242 C439.893,33.262 439.645,29.455 440.138,25.397 C444.532,23.49 449.333,22.663 454.058,21.668 C465.233,20.427 478.571,19.931 484.947,30.116 L484.947,30.116 Z" id="Shape" fill="#000000"></path>
                <path d="M648.685,22.828 L649.267,23.738 L649.184,38.149 L648.685,38.648 L640.981,38.4 C640.074,36.576 639.908,33.761 637.424,33.18 C636.011,33.097 634.936,34.338 634.274,35.418 L633.362,37.816 C632.868,45.44 633.362,53.142 633.362,60.758 C633.946,62.5 635.763,63.329 637.339,63.745 C638,65.562 637.339,67.718 637.504,69.54 L636.925,69.956 C626.985,70.117 617.296,70.117 607.607,69.705 L607.026,69.041 L607.111,63.49 C608.517,62.665 610.836,62.415 611.169,60.262 C611.665,51.069 611.5,41.961 611.665,32.6 C611.5,31.277 610.425,30.116 609.179,29.783 C608.518,29.535 607.112,29.454 607.277,28.294 L607.52,23.242 L608.435,22.748 C615.227,22.249 622.929,22.748 629.886,22.748 C630.631,22.828 632.121,22.748 631.791,23.988 L631.871,25.645 C633.031,25.229 634.191,24.071 635.432,23.655 C639.076,21.585 644.628,21.585 648.685,22.828 L648.685,22.828 Z" id="Shape" fill="#000000"></path>
                <path d="M580.688,31.938 C581.598,33.512 582.177,35.497 581.851,37.321 C578.62,37.732 575.555,37.815 572.242,37.652 C571.663,36.657 571.994,35.251 572.325,34.256 C572.987,32.271 574.893,30.531 576.964,30.281 C578.372,30.116 579.778,30.778 580.688,31.938 L580.688,31.938 Z" id="Shape" fill="#FFFFFF"></path>
                <path d="M410.739,32.768 C411.982,34.257 412.23,36.159 412.23,38.231 L411.486,38.647 L403.533,38.564 C403.035,37.732 403.365,36.657 403.453,35.75 C403.949,33.84 405.44,31.69 407.506,31.439 C408.752,31.44 409.992,31.773 410.739,32.768 L410.739,32.768 Z" id="Shape" fill="#FFFFFF"></path>
                <path d="M156.063,32.104 C156.478,40.057 155.898,47.673 155.817,55.544 C154.82,57.12 153.166,58.027 151.425,58.195 C149.603,58.278 148.112,57.779 146.787,56.786 C142.314,52.646 143.806,45.107 145.049,40.057 C146.455,35.418 151.175,32.272 155.817,31.774 L156.063,32.104 L156.063,32.104 Z" id="Shape" fill="#FFFFFF"></path>
                <path d="M525.198,32.934 L525.116,56.04 C524.702,57.28 523.71,58.44 522.467,58.942 C520.477,59.598 518.324,58.942 516.665,57.944 C512.193,53.558 512.694,45.603 514.597,40.222 C515.843,35.916 520.477,33.761 524.123,32.272 C524.619,32.189 525.364,32.271 525.198,32.934 L525.198,32.934 Z" id="Shape" fill="#FFFFFF"></path>
                <path d="M465.9,47.259 L465.9,56.455 C464.654,57.943 463.083,59.102 461.092,59.184 C459.852,59.269 458.61,58.685 458.031,57.527 C456.951,55.297 457.365,52.226 458.69,50.324 C460.678,48.337 462.834,46.848 465.483,46.514 L465.9,47.259 L465.9,47.259 Z" id="Shape" fill="#FFFFFF"></path>
            </g>
        </g>
    </g>
</svg>