<?xml version="1.0" encoding="UTF-8" standalone="no"?>
<svg width="93px" height="62px" viewBox="0 0 93 62" version="1.1" xmlns="http://www.w3.org/2000/svg" xmlns:xlink="http://www.w3.org/1999/xlink" xmlns:sketch="http://www.bohemiancoding.com/sketch/ns">
    <!-- Generator: Sketch 3.4.4 (17248) - http://www.bohemiancoding.com/sketch -->
    <title>SiouxFalls</title>
    <desc>Created with Sketch.</desc>
    <defs></defs>
    <g id="Page-1" stroke="none" stroke-width="1" fill="none" fill-rule="evenodd" sketch:type="MSPage">
        <g id="SiouxFalls" sketch:type="MSLayerGroup" fill="#000000">
            <g id="Page-1" sketch:type="MSShapeGroup">
                <g id="ALM_NEW_2014[1]">
                    <path d="M0.333,61.9105 L0.333,52.159 L4.2255,52.159 L6.508,56.702 L8.797,52.159 L12.68,52.159 L12.68,61.9105 L10.286,61.9105 L10.2745,54.235 L7.734,59.2245 L5.248,59.2245 L2.745,54.235 L2.7335,61.9105 L0.333,61.9105" id="Fill-4"></path>
                    <path d="M24.1975,61.9105 L24.1975,52.159 L33.688,52.159 L33.688,53.798 L26.793,53.798 L26.793,55.9745 L33.1985,55.9745 L33.1985,57.6125 L26.793,57.6125 L26.793,60.276 L33.9295,60.276 L33.9295,61.9105 L24.1975,61.9105" id="Fill-5"></path>
                    <path d="M45.0475,52.1585 L49.7615,52.1585 C50.824,52.1585 51.635,52.221 52.1915,52.346 C52.9395,52.5165 53.5825,52.814 54.1185,53.242 C54.6525,53.6735 55.058,54.1985 55.336,54.8255 C55.6175,55.446 55.753,56.215 55.753,57.13 C55.753,57.93 55.6245,58.6235 55.3615,59.203 C55.044,59.914 54.588,60.4915 53.9965,60.9265 C53.5465,61.262 52.941,61.5195 52.183,61.704 C51.614,61.845 50.8535,61.9105 49.901,61.9105 L45.0475,61.9105 L45.0475,52.1585 L45.0475,52.1585 L45.0475,52.1585 Z M47.6385,53.798 L47.6385,60.275 L49.5585,60.275 C50.2815,60.275 50.7975,60.2455 51.1175,60.177 C51.5315,60.1015 51.8795,59.9645 52.155,59.7755 C52.432,59.584 52.656,59.266 52.828,58.8305 C53.0055,58.391 53.092,57.794 53.092,57.0375 C53.092,56.282 53.0055,55.704 52.828,55.2955 C52.656,54.894 52.4095,54.578 52.098,54.349 C51.789,54.127 51.389,53.9685 50.909,53.888 C50.547,53.8295 49.8425,53.798 48.795,53.798 L47.6385,53.798 L47.6385,53.798 L47.6385,53.798 Z" id="Fill-6"></path>
                    <path d="M66.7855,52.1585 L69.3735,52.1585 L69.3735,61.9105 L66.7855,61.9105 L66.7855,52.1585 L66.7855,52.1585 Z" id="Fill-7"></path>
                    <path d="M92.2945,61.9105 L89.5035,61.9105 L88.3945,59.686 L83.263,59.686 L82.1975,61.9105 L79.457,61.9105 L84.4235,52.159 L87.1615,52.159 L92.2945,61.9105 L92.2945,61.9105 L92.2945,61.9105 Z M87.5515,58.052 L85.777,54.43 L84.046,58.052 L87.5515,58.052 L87.5515,58.052 L87.5515,58.052 Z" id="Fill-8"></path>
                    <path d="M49.5075,34.9105 L37.923,0.23 L18.154,0.23 L4.813,40.218 C3.527,43.1205 0.481,42.9205 0.481,42.9205 L0.481,48.5995 L19.5,48.5995 L19.5,43.523 C15.5015,43.523 16.1815,40.218 16.1815,40.218 L17.945,34.6665 L33.2385,34.6665 L34.8,40.011 C34.8,44.4065 30.9395,43.8715 30.9395,43.8715 L30.9395,48.657 L57.4165,48.657 L57.4165,43.631 C52.3885,43.9135 50.1605,36.5715 49.5075,34.9105 M21.2365,24.962 L25.8375,12.637 L30.162,24.962 L21.2365,24.962" id="Fill-24"></path>
                    <path d="M49.0705,0.2075 L74.4535,0.2075 L74.4535,5.261 C74.4535,5.261 70.634,5.505 70.634,9.083 L70.634,39.127 L81.343,39.127 C81.343,39.127 86.398,39.272 86.398,32.9835 L92.4425,32.9835 L92.4425,48.657 L59.4685,48.657 L59.4705,41.609 C59.4705,41.609 57.2205,41.6945 55.805,40.7605 C53.4545,39.21 53.133,37.022 53.133,36.7385 L53.133,8.955 C53.133,8.955 53.2575,4.95 49.128,4.95 L49.0705,0.2075" id="Fill-25"></path>
                </g>
            </g>
        </g>
    </g>
</svg>