<svg xmlns="http://www.w3.org/2000/svg" width="349" height="55" viewBox="0 0 349 55">
  <g fill="none" fill-rule="evenodd">
    <path class='no-color-change' fill="#009BFF" d="M54.177,27.824 C54.177,42.736 42.09,54.824 27.177,54.824 C12.265,54.824 0.177,42.736 0.177,27.824 C0.177,12.911 12.265,0.824 27.177,0.824 C42.09,0.824 54.177,12.911 54.177,27.824"/>
    <path fill="#404040" d="M69.537 21.551C70.515 21.551 71.271 21.263 71.805 20.686 72.338 20.109 72.605 19.288 72.605 18.22L72.605 7.441 77.484 7.441 77.484 18.194C77.484 20.555 76.793 22.382 75.412 23.676 74.031 24.97 72.072 25.617 69.537 25.617 67.002 25.617 65.043 24.97 63.662 23.676 62.279 22.382 61.59 20.555 61.59 18.194L61.59 7.441 66.469 7.441 66.469 18.22C66.469 19.288 66.734 20.109 67.268 20.686 67.801 21.263 68.556 21.551 69.537 21.551M87.24 25.617C85.789 25.617 84.398 25.368 83.07 24.87 81.742 24.371 80.588 23.659 79.609 22.732L81.969 19.768C82.668 20.397 83.455 20.892 84.33 21.249 85.203 21.608 86.166 21.788 87.215 21.788 87.914 21.788 88.465 21.665 88.867 21.42 89.269 21.175 89.471 20.808 89.471 20.319 89.471 19.846 89.234 19.466 88.762 19.178 88.291 18.889 87.459 18.587 86.271 18.273L85.17 17.984C83.56 17.565 82.336 16.922 81.496 16.056 80.658 15.191 80.238 14.094 80.238 12.765 80.238 11.628 80.535 10.631 81.129 9.775 81.724 8.918 82.547 8.258 83.596 7.794 84.644 7.331 85.859 7.099 87.24 7.099 88.605 7.099 89.908 7.349 91.148 7.847 92.391 8.345 93.492 9.023 94.453 9.879L92.014 12.949C91.385 12.407 90.646 11.934 89.799 11.532 88.949 11.13 88.107 10.929 87.267 10.929 86.568 10.929 86.029 11.047 85.654 11.283 85.277 11.519 85.09 11.865 85.09 12.319 85.09 12.739 85.287 13.102 85.68 13.408 86.074 13.713 86.752 13.997 87.713 14.26L89.051 14.627C90.975 15.152 92.334 15.869 93.129 16.778 93.924 17.687 94.322 18.745 94.322 19.952 94.322 21.088 94.029 22.08 93.443 22.928 92.857 23.777 92.031 24.437 90.965 24.909 89.898 25.38 88.658 25.617 87.24 25.617M102.48 18.326L106.703 18.326 104.605 12.082 102.48 18.326zM109.062 25.276L107.935 21.945 101.248 21.945 100.119 25.276 95.293 25.276 101.824 7.441 107.49 7.441 114.021 25.276 109.062 25.276 109.062 25.276z"/>
    <polyline fill="#404040" points="125.219 25.276 125.219 11.374 119.922 11.374 119.922 7.441 135.396 7.441 135.396 11.374 130.098 11.374 130.098 25.276 125.219 25.276"/>
    <path fill="#404040" d="M145.6 21.578C146.455 21.578 147.203 21.359 147.842 20.922 148.48 20.485 148.982 19.877 149.35 19.099 149.717 18.321 149.9 17.416 149.9 16.384 149.9 15.353 149.717 14.444 149.35 13.657 148.982 12.87 148.48 12.253 147.842 11.807 147.203 11.362 146.455 11.139 145.6 11.139 144.742 11.139 143.994 11.362 143.355 11.807 142.719 12.253 142.215 12.87 141.848 13.657 141.48 14.444 141.297 15.353 141.297 16.384 141.297 17.416 141.48 18.321 141.848 19.099 142.215 19.877 142.719 20.485 143.355 20.922 143.994 21.359 144.742 21.578 145.6 21.578zM145.6 25.617C143.814 25.617 142.228 25.223 140.838 24.437 139.449 23.65 138.351 22.561 137.547 21.171 136.742 19.781 136.34 18.186 136.34 16.384 136.34 15.02 136.566 13.775 137.021 12.647 137.476 11.519 138.123 10.539 138.963 9.709 139.803 8.879 140.781 8.236 141.9 7.782 143.019 7.327 144.252 7.099 145.6 7.099 146.945 7.099 148.178 7.327 149.297 7.782 150.416 8.236 151.394 8.879 152.234 9.709 153.074 10.539 153.721 11.519 154.176 12.647 154.631 13.775 154.857 15.02 154.857 16.384 154.857 18.186 154.455 19.781 153.65 21.171 152.846 22.561 151.75 23.65 150.359 24.437 148.969 25.223 147.383 25.617 145.6 25.617L145.6 25.617zM162.463 21.42L164.693 21.42C165.969 21.42 166.978 20.957 167.723 20.03 168.465 19.104 168.838 17.879 168.838 16.358 168.838 14.836 168.465 13.613 167.723 12.686 166.978 11.759 165.969 11.296 164.693 11.296L162.463 11.296 162.463 21.42zM157.664 25.276L157.664 7.441 164.693 7.441C166.459 7.441 168.019 7.821 169.375 8.581 170.73 9.342 171.793 10.391 172.562 11.729 173.33 13.067 173.715 14.61 173.715 16.358 173.715 18.107 173.33 19.65 172.562 20.988 171.793 22.325 170.73 23.374 169.375 24.135 168.019 24.896 166.459 25.276 164.693 25.276L157.664 25.276 157.664 25.276zM181.531 18.326L185.754 18.326 183.656 12.082 181.531 18.326zM188.115 25.276L186.988 21.945 180.299 21.945 179.172 25.276 174.346 25.276 180.877 7.441 186.541 7.441 193.072 25.276 188.115 25.276 188.115 25.276z"/>
    <polyline fill="#404040" points="202.514 18.85 202.514 25.276 197.557 25.276 197.557 18.85 191.236 7.441 196.744 7.441 200.049 14.522 203.326 7.441 208.834 7.441 202.514 18.85"/>
    <polyline fill="#404040" points="227.797 25.276 220.795 14.995 220.795 25.276 216.309 25.276 216.309 7.441 220.767 7.441 227.744 17.906 227.744 7.441 232.256 7.441 232.256 25.276 227.797 25.276"/>
    <polyline fill="#404040" points="236.191 25.276 236.191 7.441 248.492 7.441 248.492 11.348 240.965 11.348 240.965 14.365 247.652 14.365 247.652 18.273 240.965 18.273 240.965 21.368 248.912 21.368 248.912 25.276 236.191 25.276"/>
    <polyline fill="#404040" points="255.914 25.276 255.914 11.374 250.617 11.374 250.617 7.441 266.092 7.441 266.092 11.374 260.793 11.374 260.793 25.276 255.914 25.276"/>
    <polyline fill="#404040" points="282.562 25.276 279.678 13.683 276.791 25.276 271.625 25.276 267.191 7.441 271.914 7.441 274.615 19.611 277.605 7.441 281.775 7.441 284.738 19.532 287.519 7.441 292.162 7.441 287.728 25.276 282.562 25.276"/>
    <path fill="#404040" d="M302.549 21.578C303.404 21.578 304.152 21.359 304.791 20.922 305.43 20.485 305.932 19.877 306.299 19.099 306.666 18.321 306.85 17.416 306.85 16.384 306.85 15.353 306.666 14.444 306.299 13.657 305.932 12.87 305.43 12.253 304.791 11.807 304.152 11.362 303.404 11.139 302.549 11.139 301.691 11.139 300.943 11.362 300.305 11.807 299.668 12.253 299.164 12.87 298.797 13.657 298.43 14.444 298.246 15.353 298.246 16.384 298.246 17.416 298.43 18.321 298.797 19.099 299.164 19.877 299.668 20.485 300.305 20.922 300.943 21.359 301.691 21.578 302.549 21.578zM302.549 25.617C300.764 25.617 299.178 25.223 297.787 24.437 296.398 23.65 295.301 22.561 294.496 21.171 293.691 19.781 293.289 18.186 293.289 16.384 293.289 15.02 293.516 13.775 293.971 12.647 294.426 11.519 295.072 10.539 295.912 9.709 296.752 8.879 297.73 8.236 298.85 7.782 299.969 7.327 301.201 7.099 302.549 7.099 303.894 7.099 305.127 7.327 306.246 7.782 307.365 8.236 308.344 8.879 309.184 9.709 310.023 10.539 310.67 11.519 311.125 12.647 311.58 13.775 311.807 15.02 311.807 16.384 311.807 18.186 311.404 19.781 310.6 21.171 309.795 22.561 308.699 23.65 307.309 24.437 305.918 25.223 304.332 25.617 302.549 25.617L302.549 25.617zM319.387 15.65L322.01 15.65C322.762 15.65 323.355 15.454 323.793 15.06 324.23 14.666 324.449 14.128 324.449 13.447 324.449 12.8 324.23 12.28 323.793 11.886 323.355 11.493 322.762 11.296 322.01 11.296L319.387 11.296 319.387 15.65zM319.387 19.348L319.387 25.276 314.666 25.276 314.666 7.441 322.535 7.441C324.633 7.441 326.293 7.978 327.517 9.053 328.742 10.128 329.353 11.593 329.353 13.447 329.353 14.653 329.082 15.694 328.541 16.568 327.998 17.443 327.238 18.124 326.26 18.614L329.904 25.276 324.711 25.276 321.748 19.348 319.387 19.348 319.387 19.348z"/>
    <polyline fill="#404040" points="343.045 25.276 337.379 16.556 337.379 25.276 332.527 25.276 332.527 7.441 337.379 7.441 337.379 15.27 343.254 7.441 348.867 7.441 342.258 15.637 348.736 25.276 343.045 25.276"/>
    <path class='no-color-change' fill="#009BFF" d="M68.224 48.47C66.773 48.47 65.383 48.221 64.055 47.723 62.727 47.224 61.572 46.512 60.594 45.585L62.953 42.621C63.652 43.25 64.439 43.746 65.314 44.103 66.187 44.461 67.15 44.641 68.199 44.641 68.898 44.641 69.449 44.519 69.852 44.274 70.254 44.029 70.455 43.662 70.455 43.172 70.455 42.7 70.219 42.32 69.746 42.032 69.275 41.743 68.443 41.441 67.256 41.126L66.154 40.837C64.545 40.418 63.32 39.776 62.48 38.91 61.643 38.044 61.223 36.948 61.223 35.618 61.223 34.482 61.519 33.485 62.113 32.628 62.709 31.772 63.531 31.112 64.58 30.648 65.629 30.185 66.844 29.953 68.224 29.953 69.59 29.953 70.892 30.203 72.133 30.701 73.375 31.199 74.477 31.876 75.437 32.733L72.998 35.802C72.369 35.26 71.631 34.788 70.783 34.385 69.934 33.984 69.092 33.783 68.252 33.783 67.553 33.783 67.014 33.901 66.639 34.136 66.262 34.372 66.074 34.718 66.074 35.172 66.074 35.592 66.271 35.955 66.664 36.261 67.058 36.567 67.736 36.851 68.697 37.114L70.035 37.481C71.959 38.005 73.318 38.722 74.113 39.631 74.908 40.54 75.306 41.598 75.306 42.805 75.306 43.942 75.014 44.934 74.428 45.782 73.842 46.63 73.016 47.29 71.949 47.762 70.883 48.234 69.642 48.47 68.224 48.47M86.48 44.431C87.338 44.431 88.084 44.212 88.723 43.776 89.361 43.338 89.863 42.731 90.23 41.953 90.598 41.174 90.783 40.27 90.783 39.238 90.783 38.206 90.598 37.297 90.23 36.51 89.863 35.723 89.361 35.107 88.723 34.661 88.084 34.215 87.338 33.993 86.48 33.993 85.623 33.993 84.877 34.215 84.238 34.661 83.6 35.107 83.098 35.723 82.73 36.51 82.363 37.297 82.18 38.206 82.18 39.238 82.18 40.27 82.363 41.174 82.73 41.953 83.098 42.731 83.6 43.338 84.238 43.776 84.877 44.212 85.623 44.431 86.48 44.431zM86.48 48.47C84.697 48.47 83.111 48.077 81.721 47.29 80.33 46.503 79.232 45.414 78.428 44.025 77.625 42.634 77.223 41.039 77.223 39.238 77.223 37.873 77.449 36.628 77.904 35.5 78.359 34.372 79.006 33.393 79.846 32.563 80.684 31.733 81.664 31.089 82.783 30.635 83.9 30.18 85.135 29.953 86.48 29.953 87.826 29.953 89.06 30.18 90.18 30.635 91.297 31.089 92.277 31.733 93.117 32.563 93.955 33.393 94.603 34.372 95.057 35.5 95.512 36.628 95.74 37.873 95.74 39.238 95.74 41.039 95.338 42.634 94.533 44.025 93.728 45.414 92.631 46.503 91.242 47.29 89.851 48.077 88.264 48.47 86.48 48.47L86.48 48.47zM106.256 44.405C107.236 44.405 107.992 44.117 108.525 43.539 109.058 42.962 109.326 42.141 109.326 41.074L109.326 30.294 114.203 30.294 114.203 41.047C114.203 43.409 113.514 45.236 112.131 46.53 110.75 47.824 108.791 48.47 106.256 48.47 103.721 48.47 101.762 47.824 100.381 46.53 99 45.236 98.308 43.409 98.308 41.047L98.308 30.294 103.187 30.294 103.187 41.074C103.187 42.141 103.455 42.962 103.988 43.539 104.521 44.117 105.277 44.405 106.256 44.405"/>
    <polyline class='no-color-change' fill="#009BFF" points="121.73 48.129 121.73 34.228 116.434 34.228 116.434 30.294 131.908 30.294 131.908 34.228 126.609 34.228 126.609 48.129 121.73 48.129"/>
    <polyline class='no-color-change' fill="#009BFF" points="134.478 48.129 134.478 30.294 139.357 30.294 139.357 37.165 145.416 37.165 145.416 30.294 150.295 30.294 150.295 48.129 145.416 48.129 145.416 41.153 139.357 41.153 139.357 48.129 134.478 48.129"/>
    <polyline class='no-color-change' fill="#009BFF" points="154.228 48.129 154.228 30.294 166.529 30.294 166.529 34.202 159.002 34.202 159.002 37.218 165.689 37.218 165.689 41.126 159.002 41.126 159.002 44.221 166.949 44.221 166.949 48.129 154.228 48.129"/>
    <path class='no-color-change' fill="#009BFF" d="M174.738,38.503 L177.361,38.503 C178.113,38.503 178.707,38.307 179.144,37.913 C179.582,37.52 179.801,36.982 179.801,36.3 C179.801,35.654 179.582,35.133 179.144,34.74 C178.707,34.346 178.113,34.15 177.361,34.15 L174.738,34.15 L174.738,38.503 Z M174.738,42.202 L174.738,48.129 L170.017,48.129 L170.017,30.294 L177.887,30.294 C179.984,30.294 181.644,30.831 182.869,31.907 C184.094,32.982 184.705,34.447 184.705,36.3 C184.705,37.506 184.434,38.547 183.892,39.421 C183.35,40.296 182.59,40.978 181.611,41.467 L185.256,48.129 L180.062,48.129 L177.1,42.202 L174.738,42.202 L174.738,42.202 Z"/>
    <polyline class='no-color-change' fill="#009BFF" points="199.367 48.129 192.363 37.848 192.363 48.129 187.879 48.129 187.879 30.294 192.338 30.294 199.314 40.759 199.314 30.294 203.826 30.294 203.826 48.129 199.367 48.129"/>
    <path class='no-color-change' fill="#009BFF" d="M221.66,44.405 C222.641,44.405 223.396,44.117 223.93,43.539 C224.463,42.962 224.73,42.141 224.73,41.074 L224.73,30.294 L229.607,30.294 L229.607,41.047 C229.607,43.409 228.918,45.236 227.535,46.53 C226.154,47.824 224.195,48.47 221.66,48.47 C219.125,48.47 217.166,47.824 215.785,46.53 C214.404,45.236 213.713,43.409 213.713,41.047 L213.713,30.294 L218.592,30.294 L218.592,41.074 C218.592,42.141 218.859,42.962 219.392,43.539 C219.926,44.117 220.682,44.405 221.66,44.405"/>
    <polyline class='no-color-change' fill="#009BFF" points="237.135 48.129 237.135 34.228 231.838 34.228 231.838 30.294 247.312 30.294 247.312 34.228 242.014 34.228 242.014 48.129 237.135 48.129"/>
    <path class='no-color-change' fill="#009BFF" d="M254.027,41.179 L258.25,41.179 L256.152,34.936 L254.027,41.179 Z M260.609,48.129 L259.482,44.798 L252.795,44.798 L251.666,48.129 L246.84,48.129 L253.371,30.294 L259.037,30.294 L265.568,48.129 L260.609,48.129 L260.609,48.129 Z"/>
    <polyline class='no-color-change' fill="#009BFF" points="267.9 48.129 267.9 30.294 272.779 30.294 272.779 37.165 278.838 37.165 278.838 30.294 283.717 30.294 283.717 48.129 278.838 48.129 278.838 41.153 272.779 41.153 272.779 48.129 267.9 48.129"/>
  </g>
</svg>
