<svg xmlns="http://www.w3.org/2000/svg" width="550" height="48" viewBox="0 0 550 48">
  <g fill="none" fill-rule="evenodd">
    <path fill="#FFFFFF" d="M389.392 44.332L390.628 44.332C391.034 44.332 391.355 44.232 391.591 44.032 391.827 43.833 391.945 43.56 391.945 43.214 391.945 42.869 391.827 42.597 391.591 42.397 391.355 42.197 391.034 42.097 390.628 42.097L389.392 42.097 389.392 44.332zM388.474 47.504L388.474 41.325 390.628 41.325C391.318 41.325 391.867 41.494 392.273 41.833 392.678 42.173 392.881 42.633 392.881 43.214 392.881 43.79 392.678 44.246 392.273 44.582 391.867 44.918 391.318 45.087 390.628 45.087L389.392 45.087 389.392 47.504 388.474 47.504zM394.735 45.177L396.989 45.177 395.862 42.279 394.735 45.177zM397.888 47.504L397.288 45.95 394.435 45.95 393.835 47.504 392.909 47.504 395.38 41.325 396.371 41.325 398.833 47.504 397.888 47.504zM400.778 44.241L402.041 44.241C402.434 44.241 402.748 44.145 402.981 43.951 403.214 43.757 403.331 43.496 403.331 43.169 403.331 42.842 403.214 42.582 402.981 42.388 402.748 42.194 402.434 42.097 402.041 42.097L400.778 42.097 400.778 44.241zM400.778 44.996L400.778 47.504 399.86 47.504 399.86 41.325 402.041 41.325C402.725 41.325 403.267 41.49 403.667 41.82 404.067 42.15 404.267 42.6 404.267 43.169 404.267 43.6 404.146 43.963 403.903 44.26 403.661 44.556 403.328 44.766 402.904 44.886L404.403 47.504 403.358 47.504 401.95 44.996 400.778 44.996z"/>
    <polyline fill="#FFFFFF" points="406.902 47.504 406.902 42.097 404.821 42.097 404.821 41.325 409.9 41.325 409.9 42.097 407.82 42.097 407.82 47.504 406.902 47.504"/>
    <path fill="#FFFFFF" d="M415.798,46.804 C416.198,46.804 416.553,46.702 416.865,46.5 C417.177,46.297 417.421,46.016 417.597,45.659 C417.772,45.302 417.86,44.886 417.86,44.414 C417.86,43.941 417.772,43.527 417.597,43.169 C417.421,42.812 417.177,42.532 416.865,42.329 C416.553,42.126 416.198,42.024 415.798,42.024 C415.398,42.024 415.043,42.126 414.735,42.329 C414.426,42.532 414.183,42.812 414.008,43.169 C413.832,43.527 413.744,43.941 413.744,44.414 C413.744,44.886 413.832,45.302 414.008,45.659 C414.183,46.016 414.426,46.297 414.735,46.5 C415.043,46.702 415.398,46.804 415.798,46.804 Z M415.798,47.604 C415.216,47.604 414.701,47.467 414.253,47.195 C413.805,46.922 413.452,46.546 413.194,46.068 C412.937,45.589 412.808,45.038 412.808,44.414 C412.808,43.79 412.937,43.239 413.194,42.76 C413.452,42.282 413.805,41.906 414.253,41.634 C414.701,41.361 415.216,41.225 415.798,41.225 C416.379,41.225 416.896,41.361 417.347,41.634 C417.798,41.906 418.152,42.282 418.41,42.76 C418.667,43.239 418.796,43.79 418.796,44.414 C418.796,45.038 418.667,45.589 418.41,46.068 C418.152,46.546 417.798,46.922 417.347,47.195 C416.896,47.467 416.379,47.604 415.798,47.604 Z"/>
    <polyline fill="#FFFFFF" points="421.005 47.504 420.087 47.504 420.087 41.325 423.93 41.325 423.93 42.097 421.005 42.097 421.005 44.187 423.485 44.187 423.485 44.959 421.005 44.959 421.005 47.504"/>
    <polyline fill="#FFFFFF" points="428.719 47.504 428.719 42.097 426.638 42.097 426.638 41.325 431.717 41.325 431.717 42.097 429.637 42.097 429.637 47.504 428.719 47.504"/>
    <polyline fill="#FFFFFF" points="432.771 47.504 432.771 41.325 433.689 41.325 433.689 43.969 436.878 43.969 436.878 41.325 437.796 41.325 437.796 47.504 436.878 47.504 436.878 44.759 433.689 44.759 433.689 47.504 432.771 47.504"/>
    <polyline fill="#FFFFFF" points="439.414 47.504 439.414 41.325 443.376 41.325 443.376 42.097 440.331 42.097 440.331 44.005 443.012 44.005 443.012 44.777 440.331 44.777 440.331 46.731 443.448 46.731 443.448 47.504 439.414 47.504"/>
    <path fill="#FFFFFF" d="M449.245 46.804C449.748 46.804 450.143 46.653 450.431 46.35 450.719 46.047 450.863 45.638 450.863 45.123L450.863 41.325 451.78 41.325 451.78 45.132C451.78 45.901 451.555 46.505 451.104 46.945 450.652 47.384 450.033 47.604 449.245 47.604 448.458 47.604 447.84 47.384 447.392 46.945 446.943 46.505 446.719 45.901 446.719 45.132L446.719 41.325 447.637 41.325 447.637 45.123C447.637 45.638 447.781 46.047 448.069 46.35 448.356 46.653 448.748 46.804 449.245 46.804M455.206 47.604C454.739 47.604 454.294 47.521 453.87 47.358 453.446 47.195 453.104 46.976 452.843 46.704L453.361 46.095C453.604 46.319 453.89 46.495 454.22 46.622 454.55 46.749 454.879 46.813 455.206 46.813 455.606 46.813 455.928 46.736 456.174 46.581 456.419 46.426 456.542 46.213 456.542 45.941 456.542 45.692 456.454 45.484 456.278 45.313 456.103 45.144 455.803 45.002 455.379 44.886L454.525 44.659C453.973 44.514 453.572 44.308 453.32 44.041 453.069 43.775 452.943 43.427 452.943 42.997 452.943 42.646 453.037 42.336 453.225 42.07 453.413 41.803 453.672 41.596 454.002 41.447 454.332 41.299 454.706 41.225 455.124 41.225 455.566 41.225 455.981 41.308 456.369 41.475 456.757 41.641 457.099 41.873 457.396 42.17L456.842 42.769C456.581 42.527 456.31 42.341 456.028 42.211 455.747 42.08 455.448 42.015 455.133 42.015 454.752 42.015 454.44 42.096 454.197 42.256 453.955 42.417 453.834 42.639 453.834 42.924 453.834 43.184 453.92 43.387 454.093 43.533 454.266 43.678 454.53 43.799 454.888 43.896L455.842 44.16C456.393 44.311 456.796 44.523 457.051 44.796 457.305 45.068 457.432 45.408 457.432 45.814 457.432 46.171 457.338 46.484 457.151 46.754 456.963 47.024 456.702 47.232 456.369 47.381 456.036 47.529 455.648 47.604 455.206 47.604M459.74 45.177L461.994 45.177 460.867 42.279 459.74 45.177zM462.893 47.504L462.294 45.95 459.44 45.95 458.841 47.504 457.914 47.504 460.385 41.325 461.376 41.325 463.839 47.504 462.893 47.504z"/>
    <polyline fill="#FFFFFF" points="468.109 47.504 468.109 42.097 466.028 42.097 466.028 41.325 471.108 41.325 471.108 42.097 469.027 42.097 469.027 47.504 468.109 47.504"/>
    <path fill="#FFFFFF" d="M474.415 46.804C474.815 46.804 475.171 46.702 475.483 46.5 475.795 46.297 476.039 46.016 476.214 45.659 476.39 45.302 476.478 44.886 476.478 44.414 476.478 43.941 476.39 43.527 476.214 43.169 476.039 42.812 475.795 42.532 475.483 42.329 475.171 42.126 474.815 42.024 474.415 42.024 474.016 42.024 473.661 42.126 473.352 42.329 473.043 42.532 472.801 42.812 472.625 43.169 472.449 43.527 472.362 43.941 472.362 44.414 472.362 44.886 472.449 45.302 472.625 45.659 472.801 46.016 473.043 46.297 473.352 46.5 473.661 46.702 474.016 46.804 474.415 46.804zM474.415 47.604C473.834 47.604 473.319 47.467 472.87 47.195 472.422 46.922 472.069 46.546 471.812 46.068 471.554 45.589 471.426 45.038 471.426 44.414 471.426 43.79 471.554 43.239 471.812 42.76 472.069 42.282 472.422 41.906 472.87 41.634 473.319 41.361 473.834 41.225 474.415 41.225 474.997 41.225 475.513 41.361 475.965 41.634 476.416 41.906 476.77 42.282 477.028 42.76 477.285 43.239 477.414 43.79 477.414 44.414 477.414 45.038 477.285 45.589 477.028 46.068 476.77 46.546 476.416 46.922 475.965 47.195 475.513 47.467 474.997 47.604 474.415 47.604zM479.622 46.731L480.876 46.731C481.312 46.731 481.686 46.636 481.998 46.445 482.31 46.254 482.549 45.986 482.716 45.641 482.882 45.295 482.966 44.886 482.966 44.414 482.966 43.941 482.882 43.533 482.716 43.187 482.549 42.842 482.31 42.574 481.998 42.383 481.686 42.193 481.312 42.097 480.876 42.097L479.622 42.097 479.622 46.731zM478.704 47.504L478.704 41.325 480.876 41.325C481.481 41.325 482.012 41.454 482.466 41.711 482.92 41.968 483.273 42.329 483.524 42.792 483.776 43.255 483.902 43.796 483.902 44.414 483.902 45.032 483.776 45.573 483.524 46.036 483.273 46.5 482.92 46.86 482.466 47.117 482.012 47.375 481.481 47.504 480.876 47.504L478.704 47.504zM486.246 45.177L488.5 45.177 487.373 42.279 486.246 45.177zM489.399 47.504L488.799 45.95 485.946 45.95 485.346 47.504 484.419 47.504 486.891 41.325 487.882 41.325 490.344 47.504 489.399 47.504z"/>
    <polyline fill="#FFFFFF" points="493.161 45.05 493.161 47.504 492.243 47.504 492.243 45.05 490.071 41.325 491.153 41.325 492.707 44.178 494.26 41.325 495.323 41.325 493.161 45.05"/>
    <polyline fill="#FFFFFF" points="502.665 47.504 499.367 42.769 499.367 47.504 498.504 47.504 498.504 41.325 499.358 41.325 502.665 46.059 502.665 41.325 503.52 41.325 503.52 47.504 502.665 47.504"/>
    <polyline fill="#FFFFFF" points="505.137 47.504 505.137 41.325 509.099 41.325 509.099 42.097 506.055 42.097 506.055 44.005 508.735 44.005 508.735 44.777 506.055 44.777 506.055 46.731 509.172 46.731 509.172 47.504 505.137 47.504"/>
    <polyline fill="#FFFFFF" points="511.897 47.504 511.897 42.097 509.817 42.097 509.817 41.325 514.896 41.325 514.896 42.097 512.815 42.097 512.815 47.504 511.897 47.504"/>
    <polyline fill="#FFFFFF" points="520.893 47.504 519.448 42.579 518.004 47.504 517.049 47.504 515.405 41.325 516.313 41.325 517.567 46.213 519.012 41.325 519.885 41.325 521.338 46.232 522.602 41.325 523.492 41.325 521.847 47.504 520.893 47.504"/>
    <path fill="#FFFFFF" d="M527.136 46.804C527.536 46.804 527.892 46.702 528.204 46.5 528.515 46.297 528.759 46.016 528.935 45.659 529.111 45.302 529.199 44.886 529.199 44.414 529.199 43.941 529.111 43.527 528.935 43.169 528.759 42.812 528.515 42.532 528.204 42.329 527.892 42.126 527.536 42.024 527.136 42.024 526.736 42.024 526.382 42.126 526.073 42.329 525.764 42.532 525.521 42.812 525.346 43.169 525.17 43.527 525.082 43.941 525.082 44.414 525.082 44.886 525.17 45.302 525.346 45.659 525.521 46.016 525.764 46.297 526.073 46.5 526.382 46.702 526.736 46.804 527.136 46.804zM527.136 47.604C526.554 47.604 526.039 47.467 525.591 47.195 525.143 46.922 524.79 46.546 524.533 46.068 524.275 45.589 524.146 45.038 524.146 44.414 524.146 43.79 524.275 43.239 524.533 42.76 524.79 42.282 525.143 41.906 525.591 41.634 526.039 41.361 526.554 41.225 527.136 41.225 527.718 41.225 528.234 41.361 528.685 41.634 529.136 41.906 529.491 42.282 529.748 42.76 530.006 43.239 530.134 43.79 530.134 44.414 530.134 45.038 530.006 45.589 529.748 46.068 529.491 46.546 529.136 46.922 528.685 47.195 528.234 47.467 527.718 47.604 527.136 47.604zM532.342 44.241L533.605 44.241C533.999 44.241 534.313 44.145 534.546 43.951 534.779 43.757 534.896 43.496 534.896 43.169 534.896 42.842 534.779 42.582 534.546 42.388 534.313 42.194 533.999 42.097 533.605 42.097L532.342 42.097 532.342 44.241zM532.342 44.996L532.342 47.504 531.425 47.504 531.425 41.325 533.605 41.325C534.29 41.325 534.832 41.49 535.232 41.82 535.632 42.15 535.832 42.6 535.832 43.169 535.832 43.6 535.711 43.963 535.468 44.26 535.226 44.556 534.893 44.766 534.469 44.886L535.968 47.504 534.923 47.504 533.515 44.996 532.342 44.996z"/>
    <polyline fill="#FFFFFF" points="540.82 47.504 538.049 44.387 538.049 47.504 537.131 47.504 537.131 41.325 538.049 41.325 538.049 44.032 540.638 41.325 541.774 41.325 539.021 44.16 541.974 47.504 540.82 47.504"/>
    <path fill="#FFFFFF" d="M13.488 34.86C10.998 34.86 8.613 34.433 6.333 33.578 4.053 32.723 2.073 31.501.393 29.91L4.443 24.826C5.643 25.905 6.993 26.754 8.493 27.368 9.993 27.983 11.643 28.29 13.443 28.29 14.643 28.29 15.588 28.081 16.278 27.661 16.968 27.241 17.313 26.611 17.313 25.77 17.313 24.961 16.908 24.308 16.098 23.813 15.288 23.318 13.863 22.801 11.823 22.261L9.933 21.766C7.173 21.046 5.073 19.943 3.633 18.458 2.193 16.973 1.473 15.091 1.473 12.81 1.473 10.861 1.983 9.151 3.003 7.681 4.023 6.211 5.433 5.078 7.233 4.283 9.033 3.488 11.118 3.091 13.488 3.091 15.828 3.091 18.063 3.518 20.193 4.373 22.323 5.228 24.213 6.391 25.863 7.86L21.678 13.126C20.598 12.196 19.331 11.386 17.876 10.695 16.42 10.006 14.973 9.66 13.533 9.66 12.333 9.66 11.41 9.863 10.766 10.268 10.12 10.673 9.798 11.266 9.798 12.046 9.798 12.766 10.136 13.389 10.811 13.913 11.486 14.438 12.648 14.926 14.298 15.376L16.593 16.006C19.893 16.905 22.225 18.136 23.591 19.695 24.956 21.256 25.638 23.07 25.638 25.141 25.638 27.091 25.136 28.793 24.131 30.248 23.125 31.704 21.708 32.836 19.878 33.645 18.048 34.455 15.918 34.86 13.488 34.86M42.243 28.65C43.622 28.65 44.725 28.118 45.55 27.053 46.375 25.988 46.788 24.571 46.788 22.801 46.788 21.031 46.375 19.613 45.55 18.548 44.725 17.483 43.622 16.951 42.243 16.951 40.893 16.951 39.805 17.483 38.98 18.548 38.155 19.613 37.743 21.031 37.743 22.801 37.743 24.571 38.155 25.988 38.98 27.053 39.805 28.118 40.893 28.65 42.243 28.65zM44.358 34.86C43.008 34.86 41.777 34.575 40.668 34.006 39.558 33.436 38.627 32.655 37.878 31.665L37.878 42.6 30.048 42.6 30.048 11.37 37.203 11.37 37.608 14.386C38.328 13.306 39.295 12.435 40.51 11.775 41.726 11.116 43.127 10.785 44.718 10.785 46.668 10.785 48.393 11.296 49.893 12.315 51.393 13.336 52.577 14.745 53.448 16.546 54.318 18.346 54.753 20.431 54.753 22.801 54.753 25.171 54.31 27.264 53.425 29.078 52.54 30.893 51.311 32.311 49.736 33.33 48.16 34.35 46.367 34.86 44.358 34.86zM66.678 25.411L66.678 34.275 58.848 34.275 58.848 11.37 66.003 11.37 66.498 15.195C66.978 13.966 67.765 12.968 68.861 12.203 69.955 11.438 71.223 11.056 72.663 11.056 73.473 11.056 74.088 11.161 74.508 11.37L74.508 18.525C74.177 18.406 73.811 18.316 73.405 18.256 73 18.196 72.543 18.165 72.033 18.165 70.473 18.165 69.19 18.744 68.186 19.898 67.18 21.054 66.678 22.891 66.678 25.411M78.288 34.275L78.288 11.37C79.547 11.641 80.822 11.775 82.113 11.775 83.432 11.775 84.768 11.641 86.117 11.37L86.117 34.275 78.288 34.275M99.437 21.631L99.437 34.275 91.607 34.275 91.607 11.37 98.762 11.37 99.167 14.386C99.916 13.306 100.892 12.435 102.092 11.775 103.291 11.116 104.612 10.785 106.052 10.785 108.542 10.785 110.537 11.596 112.037 13.216 113.537 14.836 114.287 17.161 114.287 20.19L114.287 34.275 106.457 34.275 106.457 21.091C106.457 19.741 106.157 18.744 105.557 18.098 104.956 17.453 104.117 17.131 103.037 17.131 101.957 17.131 101.087 17.475 100.427 18.165 99.767 18.856 99.437 20.011 99.437 21.631M130.397 27.39C131.717 27.39 132.782 26.918 133.592 25.973 134.402 25.028 134.807 23.761 134.807 22.171 134.807 20.581 134.402 19.313 133.592 18.368 132.782 17.423 131.717 16.951 130.397 16.951 129.047 16.951 127.967 17.423 127.157 18.368 126.347 19.313 125.942 20.581 125.942 22.171 125.942 23.731 126.347 24.991 127.157 25.951 127.967 26.911 129.047 27.39 130.397 27.39zM142.547 31.846C142.547 34.185 142.007 36.188 140.927 37.853 139.847 39.518 138.354 40.793 136.449 41.678 134.544 42.562 132.332 43.006 129.812 43.006 127.771 43.006 125.836 42.735 124.007 42.195 122.176 41.655 120.542 40.935 119.102 40.035L122.027 34.996C123.046 35.596 124.119 36.083 125.244 36.458 126.369 36.833 127.531 37.02 128.732 37.02 130.741 37.02 132.242 36.57 133.232 35.671 134.222 34.77 134.717 33.496 134.717 31.846L134.717 31.035C133.936 31.816 132.999 32.438 131.904 32.903 130.809 33.368 129.661 33.6 128.462 33.6 126.392 33.6 124.569 33.113 122.994 32.138 121.419 31.163 120.189 29.813 119.304 28.088 118.419 26.363 117.977 24.391 117.977 22.171 117.977 19.921 118.411 17.94 119.282 16.23 120.151 14.52 121.366 13.186 122.927 12.225 124.486 11.266 126.286 10.785 128.327 10.785 129.706 10.785 130.989 11.116 132.174 11.775 133.359 12.435 134.296 13.306 134.987 14.386L135.392 11.37 142.547 11.37 142.547 31.846zM163.696 17.221L157.711 17.221 157.711 34.275 149.881 34.275 149.881 17.221 146.146 17.221 146.146 11.37 149.881 11.37 149.881 9.705C149.881 7.066 150.661 4.935 152.221 3.315 153.781 1.695 155.986.886 158.836.886 159.916.886 161.011 1.02 162.121 1.29 163.231 1.56 164.401 2.086 165.631 2.866L162.976 7.681C162.616 7.471 162.211 7.291 161.761 7.141 161.311 6.991 160.816 6.915 160.276 6.915 159.556 6.915 158.949 7.141 158.454 7.591 157.959 8.04 157.711 8.746 157.711 9.705L157.711 11.37 163.696 11.37 163.696 17.221M168.016 34.275L168.016 11.37C169.276 11.641 170.55 11.775 171.841 11.775 173.16 11.775 174.496 11.641 175.846 11.37L175.846 34.275 168.016 34.275zM171.841 9.57C170.55 9.57 169.448 9.113 168.533 8.198 167.618 7.283 167.161 6.181 167.161 4.891 167.161 3.601 167.618 2.498 168.533 1.583 169.448.668 170.55.211 171.841.211 173.13.211 174.233.668 175.148 1.583 176.063 2.498 176.521 3.601 176.521 4.891 176.521 6.181 176.063 7.283 175.148 8.198 174.233 9.113 173.13 9.57 171.841 9.57zM192.18 16.455C189.63 16.455 188.1 17.806 187.59 20.506L196.32 20.506C196.11 19.036 195.607 17.993 194.812 17.378 194.017 16.764 193.14 16.455 192.18 16.455zM202.89 31.935C201.749 32.746 200.302 33.436 198.548 34.006 196.792 34.575 194.925 34.86 192.945 34.86 190.215 34.86 187.883 34.358 185.947 33.353 184.013 32.349 182.528 30.945 181.493 29.145 180.457 27.346 179.94 25.275 179.94 22.935 179.94 20.566 180.45 18.466 181.47 16.636 182.489 14.806 183.9 13.373 185.7 12.338 187.5 11.303 189.6 10.785 192 10.785 194.34 10.785 196.402 11.288 198.187 12.293 199.972 13.299 201.367 14.693 202.373 16.478 203.377 18.264 203.88 20.356 203.88 22.756 203.88 23.086 203.858 23.431 203.812 23.79 203.768 24.15 203.715 24.526 203.655 24.915L187.68 24.915C188.4 27.556 190.364 28.876 193.575 28.876 195.015 28.876 196.29 28.65 197.4 28.201 198.509 27.751 199.44 27.301 200.19 26.85L202.89 31.935z"/>
    <polygon fill="#FFFFFF" points="207.885 34.276 215.715 34.276 215.715 1.426 207.885 1.426"/>
    <path fill="#FFFFFF" d="M232.32,28.65 C233.669,28.65 234.757,28.118 235.582,27.053 C236.407,25.988 236.82,24.571 236.82,22.801 C236.82,21.031 236.407,19.613 235.582,18.548 C234.757,17.483 233.669,16.951 232.32,16.951 C230.939,16.951 229.837,17.483 229.012,18.548 C228.186,19.613 227.774,21.031 227.774,22.801 C227.774,24.571 228.186,25.988 229.012,27.053 C229.837,28.118 230.939,28.65 232.32,28.65 Z M237.359,34.275 L236.955,31.261 C236.234,32.371 235.304,33.248 234.165,33.893 C233.024,34.538 231.704,34.86 230.205,34.86 C228.134,34.86 226.319,34.35 224.759,33.33 C223.199,32.311 221.984,30.893 221.114,29.078 C220.244,27.264 219.81,25.171 219.81,22.801 C219.81,20.431 220.244,18.346 221.114,16.546 C221.984,14.745 223.177,13.336 224.692,12.315 C226.207,11.296 227.955,10.785 229.935,10.785 C231.314,10.785 232.589,11.078 233.759,11.663 C234.929,12.248 235.904,13.035 236.685,14.025 L236.685,1.426 L244.514,1.426 L244.514,34.275 L237.359,34.275 Z"/>
    <polyline class="no-color-change" fill="#009BFF" points="281.144 34.275 269.129 16.636 269.129 34.275 261.434 34.275 261.434 3.676 269.084 3.676 281.054 21.631 281.054 3.676 288.794 3.676 288.794 34.275 281.144 34.275"/>
    <path class="no-color-change" fill="#009BFF" d="M305.759,16.455 C303.209,16.455 301.679,17.806 301.169,20.506 L309.899,20.506 C309.689,19.036 309.186,17.993 308.391,17.378 C307.596,16.764 306.719,16.455 305.759,16.455 Z M316.469,31.935 C315.328,32.746 313.881,33.436 312.126,34.006 C310.371,34.575 308.504,34.86 306.524,34.86 C303.794,34.86 301.461,34.358 299.526,33.353 C297.592,32.349 296.106,30.945 295.072,29.145 C294.036,27.346 293.519,25.275 293.519,22.935 C293.519,20.566 294.029,18.466 295.049,16.636 C296.068,14.806 297.479,13.373 299.279,12.338 C301.079,11.303 303.178,10.785 305.579,10.785 C307.919,10.785 309.981,11.288 311.766,12.293 C313.551,13.299 314.946,14.693 315.951,16.478 C316.956,18.264 317.459,20.356 317.459,22.756 C317.459,23.086 317.436,23.431 317.391,23.79 C317.346,24.15 317.294,24.526 317.234,24.915 L301.259,24.915 C301.979,27.556 303.943,28.876 307.154,28.876 C308.594,28.876 309.869,28.65 310.979,28.201 C312.088,27.751 313.019,27.301 313.769,26.85 L316.469,31.935 Z"/>
    <polyline class="no-color-change" fill="#009BFF" points="340.769 34.275 337.079 20.371 333.434 34.275 325.334 34.275 319.394 11.37 327.404 11.37 329.789 26.131 333.659 11.37 340.544 11.37 344.549 26.176 346.979 11.37 354.809 11.37 348.868 34.275 340.769 34.275"/>
    <path class="no-color-change" fill="#009BFF" d="M366.733,34.86 C364.753,34.86 362.9,34.546 361.176,33.915 C359.45,33.285 357.898,32.386 356.518,31.216 L359.848,26.806 C360.898,27.645 362.03,28.329 363.245,28.853 C364.461,29.378 365.653,29.64 366.823,29.64 C367.603,29.64 368.225,29.506 368.691,29.235 C369.155,28.966 369.388,28.56 369.388,28.02 C369.388,27.451 369.125,26.993 368.6,26.648 C368.075,26.304 367.138,25.966 365.788,25.636 L363.628,25.096 C359.338,23.956 357.193,21.661 357.193,18.211 C357.193,16.681 357.613,15.361 358.453,14.251 C359.293,13.141 360.448,12.286 361.918,11.685 C363.387,11.086 365.097,10.785 367.048,10.785 C368.967,10.785 370.775,11.086 372.47,11.685 C374.165,12.286 375.717,13.156 377.128,14.296 L373.708,18.796 C372.657,17.956 371.548,17.281 370.378,16.77 C369.208,16.261 368.113,16.006 367.093,16.006 C365.443,16.006 364.618,16.546 364.618,17.626 C364.618,18.106 364.865,18.496 365.361,18.796 C365.856,19.096 366.553,19.366 367.453,19.605 L370.378,20.415 C372.568,21.016 374.188,21.916 375.238,23.116 C376.288,24.316 376.813,25.741 376.813,27.39 C376.813,28.891 376.392,30.203 375.553,31.328 C374.713,32.453 373.535,33.323 372.021,33.938 C370.505,34.553 368.742,34.86 366.733,34.86"/>
    <polygon class="no-color-change" fill="#009BFF" points="381.313 23.925 395.623 23.925 395.623 16.995 381.313 16.995"/>
    <polyline class="no-color-change" fill="#009BFF" points="410.338 27.525 423.072 27.525 423.072 34.275 401.967 34.275 401.967 3.676 410.338 3.676 410.338 27.525"/>
    <path class="no-color-change" fill="#009BFF" d="M437.697 16.455C435.147 16.455 433.617 17.806 433.107 20.506L441.837 20.506C441.627 19.036 441.124 17.993 440.329 17.378 439.534 16.764 438.657 16.455 437.697 16.455zM448.407 31.935C447.266 32.746 445.82 33.436 444.065 34.006 442.309 34.575 440.442 34.86 438.462 34.86 435.732 34.86 433.4 34.358 431.465 33.353 429.53 32.349 428.045 30.945 427.009 29.145 425.974 27.346 425.457 25.275 425.457 22.935 425.457 20.566 425.967 18.466 426.987 16.636 428.007 14.806 429.417 13.373 431.217 12.338 433.017 11.303 435.116 10.785 437.517 10.785 439.857 10.785 441.919 11.288 443.704 12.293 445.489 13.299 446.884 14.693 447.889 16.478 448.894 18.264 449.397 20.356 449.397 22.756 449.397 23.086 449.375 23.431 449.329 23.79 449.284 24.15 449.232 24.526 449.172 24.915L433.197 24.915C433.917 27.556 435.882 28.876 439.092 28.876 440.532 28.876 441.807 28.65 442.917 28.201 444.027 27.751 444.957 27.301 445.707 26.85L448.407 31.935zM459.567 26.85C459.567 27.541 459.822 28.103 460.332 28.538 460.842 28.974 461.502 29.19 462.312 29.19 463.392 29.19 464.299 28.823 465.034 28.088 465.769 27.353 466.137 26.431 466.137 25.32L466.137 24.556C465.327 24.406 464.472 24.33 463.572 24.33 462.431 24.33 461.479 24.526 460.715 24.915 459.949 25.306 459.567 25.951 459.567 26.85zM466.452 34.275L466.047 31.261C464.547 33.661 462.267 34.86 459.207 34.86 457.857 34.86 456.634 34.568 455.539 33.983 454.444 33.398 453.574 32.596 452.929 31.576 452.284 30.556 451.962 29.37 451.962 28.02 451.962 25.471 452.959 23.491 454.954 22.08 456.949 20.671 459.582 19.966 462.852 19.966 463.871 19.966 464.951 20.056 466.092 20.235 465.972 19.096 465.485 18.233 464.63 17.648 463.775 17.063 462.732 16.77 461.502 16.77 460.422 16.77 459.334 16.973 458.239 17.378 457.144 17.783 456.102 18.271 455.112 18.841L452.457 13.801C453.957 12.841 455.576 12.099 457.317 11.573 459.056 11.049 460.797 10.785 462.537 10.785 464.636 10.785 466.527 11.145 468.207 11.866 469.887 12.586 471.206 13.681 472.167 15.15 473.127 16.621 473.607 18.48 473.607 20.73L473.607 34.275 466.452 34.275zM489.717 28.65C491.067 28.65 492.154 28.118 492.98 27.053 493.804 25.988 494.217 24.571 494.217 22.801 494.217 21.031 493.804 19.613 492.98 18.548 492.154 17.483 491.067 16.951 489.717 16.951 488.337 16.951 487.235 17.483 486.41 18.548 485.584 19.613 485.172 21.031 485.172 22.801 485.172 24.571 485.584 25.988 486.41 27.053 487.235 28.118 488.337 28.65 489.717 28.65zM494.757 34.275L494.352 31.261C493.632 32.371 492.702 33.248 491.562 33.893 490.422 34.538 489.102 34.86 487.602 34.86 485.532 34.86 483.716 34.35 482.157 33.33 480.597 32.311 479.382 30.893 478.512 29.078 477.642 27.264 477.207 25.171 477.207 22.801 477.207 20.431 477.642 18.346 478.512 16.546 479.382 14.745 480.574 13.336 482.09 12.315 483.604 11.296 485.352 10.785 487.332 10.785 488.712 10.785 489.987 11.078 491.157 11.663 492.327 12.248 493.301 13.035 494.082 14.025L494.082 1.426 501.912 1.426 501.912 34.275 494.757 34.275zM518.247 16.455C515.696 16.455 514.167 17.806 513.657 20.506L522.387 20.506C522.176 19.036 521.674 17.993 520.88 17.378 520.084 16.764 519.207 16.455 518.247 16.455zM528.957 31.935C527.817 32.746 526.369 33.436 524.614 34.006 522.86 34.575 520.992 34.86 519.012 34.86 516.282 34.86 513.949 34.358 512.014 33.353 510.079 32.349 508.594 30.945 507.559 29.145 506.525 27.346 506.007 25.275 506.007 22.935 506.007 20.566 506.517 18.466 507.537 16.636 508.556 14.806 509.967 13.373 511.767 12.338 513.567 11.303 515.667 10.785 518.067 10.785 520.407 10.785 522.469 11.288 524.255 12.293 526.039 13.299 527.434 14.693 528.44 16.478 529.444 18.264 529.947 20.356 529.947 22.756 529.947 23.086 529.924 23.431 529.88 23.79 529.835 24.15 529.782 24.526 529.722 24.915L513.747 24.915C514.467 27.556 516.431 28.876 519.642 28.876 521.082 28.876 522.357 28.65 523.467 28.201 524.576 27.751 525.507 27.301 526.257 26.85L528.957 31.935zM541.782 25.411L541.782 34.275 533.952 34.275 533.952 11.37 541.107 11.37 541.602 15.195C542.081 13.966 542.869 12.968 543.964 12.203 545.059 11.438 546.327 11.056 547.767 11.056 548.577 11.056 549.191 11.161 549.612 11.37L549.612 18.525C549.281 18.406 548.914 18.316 548.509 18.256 548.104 18.196 547.647 18.165 547.137 18.165 545.576 18.165 544.294 18.744 543.289 19.898 542.284 21.054 541.782 22.891 541.782 25.411M82.113 9.57C80.822 9.57 79.72 9.113 78.805 8.198 77.889 7.283 77.432 6.181 77.432 4.891 77.432 3.601 77.889 2.498 78.805 1.583 79.72.668 80.822.211 82.113.211 83.402.211 84.504.668 85.42 1.583 86.335 2.498 86.792 3.601 86.792 4.891 86.792 6.181 86.335 7.283 85.42 8.198 84.504 9.113 83.402 9.57 82.113 9.57"/>
  </g>
</svg>
