<svg xmlns="http://www.w3.org/2000/svg" width="550" height="44" viewBox="0 0 550 44">
  <g fill="none" fill-rule="evenodd">
    <path fill="#FFFFFE" d="M13.488 35.458C10.998 35.458 8.613 35.032 6.333 34.176 4.053 33.321 2.073 32.099.393 30.508L4.443 25.424C5.643 26.503 6.993 27.352 8.493 27.966 9.993 28.582 11.643 28.889 13.443 28.889 14.643 28.889 15.588 28.679 16.279 28.258 16.968 27.839 17.313 27.209 17.313 26.369 17.313 25.559 16.908 24.907 16.098 24.412 15.288 23.916 13.863 23.399 11.823 22.859L9.933 22.364C7.173 21.644 5.073 20.541 3.634 19.056 2.193 17.571 1.473 15.689 1.473 13.409 1.473 11.459 1.983 9.749 3.003 8.279 4.023 6.809 5.433 5.676 7.233 4.881 9.033 4.086 11.118 3.689 13.488 3.689 15.828 3.689 18.063 4.116 20.193 4.971 22.323 5.827 24.213 6.989 25.864 8.458L21.678 13.724C20.598 12.794 19.331 11.984 17.876 11.293 16.42 10.604 14.973 10.258 13.533 10.258 12.333 10.258 11.41 10.461 10.766 10.866 10.12 11.271 9.798 11.864 9.798 12.644 9.798 13.364 10.136 13.987 10.811 14.511 11.486 15.037 12.648 15.524 14.298 15.974L16.594 16.604C19.893 17.503 22.225 18.734 23.591 20.293 24.956 21.854 25.638 23.668 25.638 25.739 25.638 27.689 25.136 29.391 24.131 30.846 23.125 32.301 21.708 33.434 19.878 34.244 18.048 35.053 15.918 35.458 13.488 35.458M42.243 29.248C43.623 29.248 44.725 28.716 45.55 27.651 46.375 26.586 46.788 25.169 46.788 23.399 46.788 21.629 46.375 20.211 45.55 19.146 44.725 18.081 43.623 17.549 42.243 17.549 40.893 17.549 39.805 18.081 38.981 19.146 38.155 20.211 37.743 21.629 37.743 23.399 37.743 25.169 38.155 26.586 38.981 27.651 39.805 28.716 40.893 29.248 42.243 29.248zM44.358 35.458C43.008 35.458 41.777 35.173 40.668 34.604 39.558 34.034 38.628 33.253 37.878 32.264L37.878 43.199 30.048 43.199 30.048 11.969 37.203 11.969 37.608 14.984C38.328 13.904 39.296 13.034 40.51 12.374 41.726 11.714 43.128 11.383 44.718 11.383 46.668 11.383 48.393 11.894 49.893 12.913 51.393 13.934 52.577 15.344 53.448 17.144 54.318 18.944 54.753 21.03 54.753 23.399 54.753 25.769 54.31 27.862 53.425 29.676 52.54 31.492 51.311 32.909 49.736 33.928 48.16 34.948 46.367 35.458 44.358 35.458L44.358 35.458zM66.678 26.008L66.678 34.874 58.848 34.874 58.848 11.969 66.003 11.969 66.498 15.793C66.978 14.564 67.765 13.566 68.861 12.801 69.955 12.037 71.223 11.654 72.663 11.654 73.473 11.654 74.088 11.759 74.508 11.969L74.508 19.124C74.177 19.004 73.811 18.915 73.405 18.854 73.001 18.793 72.543 18.764 72.033 18.764 70.473 18.764 69.19 19.342 68.186 20.497 67.18 21.652 66.678 23.489 66.678 26.008M78.288 34.874L78.288 11.969C79.548 12.239 80.822 12.374 82.113 12.374 83.432 12.374 84.768 12.239 86.117 11.969L86.117 34.874 78.288 34.874M99.437 22.229L99.437 34.874 91.607 34.874 91.607 11.969 98.762 11.969 99.167 14.984C99.917 13.904 100.892 13.034 102.092 12.374 103.292 11.714 104.612 11.383 106.052 11.383 108.542 11.383 110.537 12.194 112.037 13.814 113.537 15.434 114.287 17.759 114.287 20.789L114.287 34.874 106.457 34.874 106.457 21.689C106.457 20.338 106.157 19.342 105.557 18.696 104.957 18.051 104.117 17.729 103.037 17.729 101.957 17.729 101.087 18.074 100.427 18.764 99.767 19.455 99.437 20.609 99.437 22.229M130.397 27.989C131.717 27.989 132.782 27.516 133.592 26.571 134.402 25.626 134.807 24.359 134.807 22.769 134.807 21.179 134.402 19.912 133.592 18.966 132.782 18.021 131.717 17.549 130.397 17.549 129.047 17.549 127.967 18.021 127.157 18.966 126.347 19.912 125.942 21.179 125.942 22.769 125.942 24.329 126.347 25.589 127.157 26.549 127.967 27.509 129.047 27.989 130.397 27.989zM142.547 32.444C142.547 34.784 142.007 36.787 140.927 38.452 139.847 40.116 138.354 41.391 136.449 42.276 134.544 43.161 132.332 43.604 129.812 43.604 127.771 43.604 125.836 43.333 124.007 42.793 122.176 42.253 120.542 41.534 119.102 40.633L122.027 35.594C123.046 36.194 124.119 36.681 125.244 37.056 126.369 37.431 127.531 37.619 128.732 37.619 130.741 37.619 132.242 37.168 133.232 36.269 134.222 35.369 134.717 34.094 134.717 32.444L134.717 31.633C133.936 32.415 132.999 33.037 131.904 33.501 130.809 33.967 129.661 34.199 128.462 34.199 126.392 34.199 124.569 33.711 122.994 32.737 121.419 31.762 120.189 30.412 119.304 28.686 118.419 26.961 117.977 24.989 117.977 22.769 117.977 20.519 118.411 18.539 119.282 16.829 120.152 15.119 121.366 13.784 122.927 12.824 124.487 11.864 126.286 11.383 128.327 11.383 129.706 11.383 130.989 11.714 132.175 12.374 133.359 13.034 134.296 13.904 134.987 14.984L135.392 11.969 142.547 11.969 142.547 32.444 142.547 32.444zM163.696 17.819L157.711 17.819 157.711 34.874 149.882 34.874 149.882 17.819 146.146 17.819 146.146 11.969 149.882 11.969 149.882 10.303C149.882 7.664 150.661 5.534 152.221 3.913 153.781 2.293 155.986 1.484 158.836 1.484 159.916 1.484 161.011 1.619 162.121 1.889 163.231 2.159 164.401 2.684 165.632 3.463L162.976 8.279C162.616 8.069 162.211 7.889 161.761 7.739 161.311 7.589 160.816 7.514 160.277 7.514 159.556 7.514 158.949 7.739 158.454 8.189 157.959 8.639 157.711 9.344 157.711 10.303L157.711 11.969 163.696 11.969 163.696 17.819M168.016 34.874L168.016 11.969C169.276 12.239 170.55 12.374 171.841 12.374 173.16 12.374 174.496 12.239 175.846 11.969L175.846 34.874 168.016 34.874zM171.841 10.168C170.55 10.168 169.448 9.711 168.533 8.796 167.618 7.881 167.161 6.779 167.161 5.489 167.161 4.2 167.618 3.096 168.533 2.181 169.448 1.266 170.55.809 171.841.809 173.131.809 174.233 1.266 175.148 2.181 176.063 3.096 176.521 4.2 176.521 5.489 176.521 6.779 176.063 7.881 175.148 8.796 174.233 9.711 173.131 10.168 171.841 10.168L171.841 10.168zM192.18 17.053C189.63 17.053 188.1 18.404 187.59 21.104L196.32 21.104C196.11 19.634 195.607 18.591 194.813 17.976 194.017 17.362 193.14 17.053 192.18 17.053zM202.89 32.534C201.75 33.344 200.302 34.034 198.548 34.604 196.793 35.173 194.925 35.458 192.945 35.458 190.215 35.458 187.883 34.955 185.947 33.952 184.013 32.947 182.528 31.543 181.493 29.744 180.458 27.944 179.94 25.874 179.94 23.534 179.94 21.165 180.45 19.064 181.47 17.234 182.489 15.405 183.9 13.971 185.7 12.936 187.5 11.901 189.6 11.383 192 11.383 194.34 11.383 196.403 11.886 198.188 12.891 199.972 13.897 201.367 15.291 202.373 17.077 203.378 18.862 203.88 20.954 203.88 23.354 203.88 23.684 203.858 24.029 203.813 24.389 203.768 24.749 203.715 25.125 203.655 25.514L187.68 25.514C188.4 28.154 190.364 29.474 193.575 29.474 195.015 29.474 196.29 29.248 197.4 28.799 198.509 28.349 199.44 27.899 200.19 27.449L202.89 32.534 202.89 32.534z"/>
    <polygon fill="#FFFFFE" points="207.885 34.874 215.715 34.874 215.715 2.024 207.885 2.024"/>
    <path fill="#FFFFFE" d="M232.32,29.248 C233.67,29.248 234.757,28.716 235.582,27.651 C236.407,26.586 236.82,25.169 236.82,23.399 C236.82,21.629 236.407,20.211 235.582,19.146 C234.757,18.081 233.67,17.549 232.32,17.549 C230.939,17.549 229.837,18.081 229.012,19.146 C228.187,20.211 227.775,21.629 227.775,23.399 C227.775,25.169 228.187,26.586 229.012,27.651 C229.837,28.716 230.939,29.248 232.32,29.248 Z M237.36,34.874 L236.955,31.859 C236.235,32.969 235.304,33.846 234.165,34.491 C233.024,35.136 231.704,35.458 230.205,35.458 C228.134,35.458 226.319,34.948 224.759,33.928 C223.199,32.909 221.984,31.492 221.114,29.676 C220.244,27.862 219.81,25.769 219.81,23.399 C219.81,21.03 220.244,18.944 221.114,17.144 C221.984,15.344 223.177,13.934 224.692,12.913 C226.207,11.894 227.955,11.383 229.935,11.383 C231.314,11.383 232.59,11.676 233.759,12.261 C234.929,12.846 235.904,13.633 236.685,14.624 L236.685,2.024 L244.514,2.024 L244.514,34.874 L237.36,34.874 L237.36,34.874 Z"/>
    <polyline fill="#009BFF" class="no-color-change" points="281.144 34.874 269.129 17.234 269.129 34.874 261.434 34.874 261.434 4.274 269.084 4.274 281.054 22.229 281.054 4.274 288.794 4.274 288.794 34.874 281.144 34.874"/>
    <path fill="#009BFF" class="no-color-change" d="M305.759,17.053 C303.209,17.053 301.679,18.404 301.169,21.104 L309.899,21.104 C309.689,19.634 309.186,18.591 308.392,17.976 C307.596,17.362 306.719,17.053 305.759,17.053 Z M316.469,32.534 C315.328,33.344 313.881,34.034 312.126,34.604 C310.371,35.173 308.504,35.458 306.524,35.458 C303.794,35.458 301.461,34.955 299.527,33.952 C297.592,32.947 296.107,31.543 295.072,29.744 C294.036,27.944 293.519,25.874 293.519,23.534 C293.519,21.165 294.029,19.064 295.049,17.234 C296.069,15.405 297.479,13.971 299.28,12.936 C301.079,11.901 303.179,11.383 305.579,11.383 C307.919,11.383 309.982,11.886 311.767,12.891 C313.551,13.897 314.947,15.291 315.951,17.077 C316.956,18.862 317.459,20.954 317.459,23.354 C317.459,23.684 317.437,24.029 317.392,24.389 C317.347,24.749 317.294,25.125 317.234,25.514 L301.259,25.514 C301.979,28.154 303.944,29.474 307.155,29.474 C308.594,29.474 309.868,29.248 310.979,28.799 C312.088,28.349 313.019,27.899 313.769,27.449 L316.469,32.534 L316.469,32.534 Z"/>
    <polyline fill="#009BFF" class="no-color-change" points="340.769 34.874 337.079 20.969 333.434 34.874 325.334 34.874 319.394 11.969 327.404 11.969 329.789 26.729 333.658 11.969 340.544 11.969 344.549 26.774 346.979 11.969 354.809 11.969 348.868 34.874 340.769 34.874"/>
    <path fill="#009BFF" class="no-color-change" d="M366.734,35.458 C364.753,35.458 362.901,35.144 361.176,34.514 C359.45,33.883 357.898,32.984 356.518,31.814 L359.848,27.404 C360.898,28.244 362.03,28.926 363.245,29.452 C364.461,29.977 365.654,30.239 366.823,30.239 C367.603,30.239 368.225,30.104 368.691,29.833 C369.155,29.564 369.388,29.159 369.388,28.619 C369.388,28.049 369.125,27.591 368.601,27.246 C368.075,26.902 367.138,26.564 365.788,26.234 L363.628,25.694 C359.338,24.554 357.194,22.259 357.194,18.809 C357.194,17.279 357.613,15.959 358.453,14.849 C359.293,13.739 360.448,12.884 361.918,12.284 C363.388,11.684 365.098,11.383 367.048,11.383 C368.968,11.383 370.776,11.684 372.471,12.284 C374.165,12.884 375.718,13.754 377.128,14.894 L373.708,19.394 C372.657,18.554 371.548,17.879 370.378,17.369 C369.208,16.859 368.113,16.604 367.093,16.604 C365.443,16.604 364.618,17.144 364.618,18.224 C364.618,18.704 364.865,19.094 365.361,19.394 C365.856,19.694 366.553,19.964 367.453,20.204 L370.378,21.014 C372.568,21.614 374.188,22.514 375.238,23.713 C376.288,24.915 376.814,26.339 376.814,27.989 C376.814,29.489 376.393,30.801 375.553,31.926 C374.713,33.051 373.535,33.921 372.021,34.537 C370.505,35.151 368.742,35.458 366.734,35.458"/>
    <polygon fill="#009BFF" class="no-color-change" points="381.313 24.524 395.623 24.524 395.623 17.594 381.313 17.594"/>
    <polyline fill="#009BFF" class="no-color-change" points="410.338 28.123 423.072 28.123 423.072 34.874 401.968 34.874 401.968 4.274 410.338 4.274 410.338 28.123"/>
    <path fill="#009BFF" class="no-color-change" d="M437.697 17.053C435.147 17.053 433.617 18.404 433.108 21.104L441.837 21.104C441.627 19.634 441.124 18.591 440.329 17.976 439.534 17.362 438.657 17.053 437.697 17.053zM448.407 32.534C447.267 33.344 445.82 34.034 444.065 34.604 442.31 35.173 440.443 35.458 438.462 35.458 435.732 35.458 433.4 34.955 431.465 33.952 429.53 32.947 428.045 31.543 427.01 29.744 425.975 27.944 425.457 25.874 425.457 23.534 425.457 21.165 425.967 19.064 426.988 17.234 428.007 15.405 429.417 13.971 431.217 12.936 433.017 11.901 435.116 11.383 437.517 11.383 439.858 11.383 441.919 11.886 443.704 12.891 445.489 13.897 446.884 15.291 447.89 17.077 448.895 18.862 449.398 20.954 449.398 23.354 449.398 23.684 449.375 24.029 449.329 24.389 449.284 24.749 449.232 25.125 449.172 25.514L433.197 25.514C433.917 28.154 435.882 29.474 439.092 29.474 440.532 29.474 441.807 29.248 442.917 28.799 444.027 28.349 444.957 27.899 445.707 27.449L448.407 32.534 448.407 32.534zM459.567 27.449C459.567 28.139 459.822 28.702 460.332 29.136 460.842 29.572 461.502 29.788 462.312 29.788 463.392 29.788 464.299 29.421 465.034 28.686 465.77 27.952 466.137 27.029 466.137 25.918L466.137 25.154C465.327 25.004 464.472 24.928 463.572 24.928 462.432 24.928 461.48 25.125 460.715 25.514 459.949 25.904 459.567 26.549 459.567 27.449zM466.452 34.874L466.047 31.859C464.547 34.259 462.267 35.458 459.207 35.458 457.857 35.458 456.634 35.166 455.539 34.582 454.445 33.996 453.574 33.194 452.93 32.174 452.284 31.155 451.962 29.969 451.962 28.619 451.962 26.069 452.959 24.089 454.954 22.678 456.949 21.269 459.582 20.564 462.852 20.564 463.871 20.564 464.951 20.654 466.092 20.833 465.972 19.694 465.485 18.831 464.63 18.247 463.775 17.662 462.732 17.369 461.502 17.369 460.422 17.369 459.334 17.571 458.239 17.976 457.144 18.381 456.102 18.87 455.113 19.439L452.457 14.399C453.957 13.439 455.576 12.697 457.317 12.171 459.057 11.647 460.797 11.383 462.537 11.383 464.637 11.383 466.527 11.744 468.207 12.463 469.887 13.184 471.206 14.28 472.167 15.749 473.127 17.219 473.608 19.079 473.608 21.329L473.608 34.874 466.452 34.874 466.452 34.874zM489.717 29.248C491.068 29.248 492.154 28.716 492.98 27.651 493.805 26.586 494.217 25.169 494.217 23.399 494.217 21.629 493.805 20.211 492.98 19.146 492.154 18.081 491.068 17.549 489.717 17.549 488.337 17.549 487.235 18.081 486.41 19.146 485.584 20.211 485.172 21.629 485.172 23.399 485.172 25.169 485.584 26.586 486.41 27.651 487.235 28.716 488.337 29.248 489.717 29.248zM494.757 34.874L494.353 31.859C493.632 32.969 492.702 33.846 491.563 34.491 490.422 35.136 489.102 35.458 487.603 35.458 485.532 35.458 483.717 34.948 482.157 33.928 480.597 32.909 479.382 31.492 478.512 29.676 477.642 27.862 477.207 25.769 477.207 23.399 477.207 21.03 477.642 18.944 478.512 17.144 479.382 15.344 480.574 13.934 482.09 12.913 483.605 11.894 485.353 11.383 487.332 11.383 488.712 11.383 489.987 11.676 491.157 12.261 492.327 12.846 493.302 13.633 494.082 14.624L494.082 2.024 501.912 2.024 501.912 34.874 494.757 34.874 494.757 34.874zM518.247 17.053C515.696 17.053 514.167 18.404 513.657 21.104L522.387 21.104C522.177 19.634 521.674 18.591 520.88 17.976 520.084 17.362 519.207 17.053 518.247 17.053zM528.957 32.534C527.817 33.344 526.369 34.034 524.614 34.604 522.86 35.173 520.992 35.458 519.012 35.458 516.282 35.458 513.949 34.955 512.015 33.952 510.079 32.947 508.595 31.543 507.56 29.744 506.525 27.944 506.007 25.874 506.007 23.534 506.007 21.165 506.517 19.064 507.537 17.234 508.557 15.405 509.967 13.971 511.767 12.936 513.568 11.901 515.667 11.383 518.068 11.383 520.407 11.383 522.47 11.886 524.255 12.891 526.039 13.897 527.434 15.291 528.44 17.077 529.445 18.862 529.947 20.954 529.947 23.354 529.947 23.684 529.925 24.029 529.88 24.389 529.835 24.749 529.782 25.125 529.722 25.514L513.747 25.514C514.467 28.154 516.432 29.474 519.642 29.474 521.082 29.474 522.357 29.248 523.467 28.799 524.576 28.349 525.507 27.899 526.257 27.449L528.957 32.534 528.957 32.534zM541.782 26.008L541.782 34.874 533.952 34.874 533.952 11.969 541.107 11.969 541.602 15.793C542.081 14.564 542.869 13.566 543.964 12.801 545.059 12.037 546.327 11.654 547.767 11.654 548.577 11.654 549.192 11.759 549.612 11.969L549.612 19.124C549.281 19.004 548.914 18.915 548.51 18.854 548.105 18.793 547.647 18.764 547.137 18.764 545.576 18.764 544.294 19.342 543.289 20.497 542.284 21.652 541.782 23.489 541.782 26.008M82.113 10.168C80.822 10.168 79.72 9.711 78.805 8.796 77.889 7.881 77.432 6.779 77.432 5.489 77.432 4.2 77.889 3.096 78.805 2.181 79.72 1.266 80.822.809 82.113.809 83.402.809 84.505 1.266 85.42 2.181 86.335 3.096 86.793 4.2 86.793 5.489 86.793 6.779 86.335 7.881 85.42 8.796 84.505 9.711 83.402 10.168 82.113 10.168"/>
  </g>
</svg>
