<svg xmlns="http://www.w3.org/2000/svg" width="349" height="55" viewBox="0 0 349 55">
  <g fill="none" fill-rule="evenodd">
    <path fill="#404040" d="M69.537 21.551C70.515 21.551 71.271 21.263 71.804 20.686 72.337 20.109 72.605 19.287 72.605 18.22L72.605 7.441 77.484 7.441 77.484 18.194C77.484 20.555 76.793 22.382 75.412 23.676 74.031 24.97 72.072 25.616 69.537 25.616 67.001 25.616 65.042 24.97 63.662 23.676 62.279 22.382 61.589 20.555 61.589 18.194L61.589 7.441 66.468 7.441 66.468 18.22C66.468 19.287 66.734 20.109 67.267 20.686 67.8 21.263 68.556 21.551 69.537 21.551M87.24 25.616C85.789 25.616 84.398 25.367 83.07 24.869 81.742 24.37 80.587 23.658 79.609 22.732L81.968 19.768C82.668 20.397 83.455 20.892 84.33 21.249 85.203 21.608 86.166 21.787 87.214 21.787 87.914 21.787 88.464 21.665 88.867 21.42 89.269 21.175 89.47 20.808 89.47 20.319 89.47 19.846 89.234 19.466 88.761 19.178 88.291 18.889 87.459 18.587 86.271 18.273L85.169 17.984C83.56 17.565 82.335 16.922 81.496 16.056 80.658 15.191 80.238 14.094 80.238 12.765 80.238 11.628 80.535 10.631 81.128 9.775 81.724 8.918 82.546 8.258 83.595 7.794 84.644 7.331 85.859 7.099 87.24 7.099 88.605 7.099 89.908 7.349 91.148 7.847 92.39 8.345 93.492 9.023 94.453 9.879L92.013 12.948C91.384 12.406 90.646 11.934 89.798 11.531 88.949 11.13 88.107 10.929 87.267 10.929 86.568 10.929 86.029 11.047 85.654 11.282 85.277 11.519 85.089 11.864 85.089 12.319 85.089 12.738 85.287 13.102 85.679 13.407 86.074 13.713 86.751 13.997 87.712 14.26L89.05 14.627C90.974 15.152 92.334 15.868 93.128 16.778 93.923 17.687 94.322 18.744 94.322 19.951 94.322 21.088 94.029 22.08 93.443 22.928 92.857 23.777 92.031 24.437 90.964 24.908 89.898 25.38 88.658 25.616 87.24 25.616M102.48 18.325L106.703 18.325 104.605 12.082 102.48 18.325zM109.062 25.276L107.935 21.945 101.248 21.945 100.119 25.276 95.293 25.276 101.824 7.441 107.49 7.441 114.021 25.276 109.062 25.276 109.062 25.276z"/>
    <polyline fill="#404040" points="125.218 25.276 125.218 11.374 119.921 11.374 119.921 7.441 135.396 7.441 135.396 11.374 130.097 11.374 130.097 25.276 125.218 25.276"/>
    <path fill="#404040" d="M145.599 21.577C146.455 21.577 147.203 21.359 147.841 20.922 148.48 20.485 148.982 19.877 149.349 19.099 149.716 18.321 149.9 17.416 149.9 16.384 149.9 15.353 149.716 14.444 149.349 13.656 148.982 12.869 148.48 12.253 147.841 11.807 147.203 11.362 146.455 11.139 145.599 11.139 144.742 11.139 143.994 11.362 143.355 11.807 142.718 12.253 142.214 12.869 141.847 13.656 141.48 14.444 141.296 15.353 141.296 16.384 141.296 17.416 141.48 18.321 141.847 19.099 142.214 19.877 142.718 20.485 143.355 20.922 143.994 21.359 144.742 21.577 145.599 21.577zM145.599 25.616C143.814 25.616 142.228 25.223 140.837 24.437 139.449 23.65 138.351 22.561 137.546 21.171 136.742 19.78 136.339 18.186 136.339 16.384 136.339 15.02 136.566 13.775 137.021 12.647 137.476 11.519 138.123 10.539 138.962 9.709 139.802 8.879 140.781 8.236 141.9 7.781 143.019 7.326 144.251 7.099 145.599 7.099 146.945 7.099 148.177 7.326 149.296 7.781 150.416 8.236 151.394 8.879 152.234 9.709 153.074 10.539 153.72 11.519 154.175 12.647 154.63 13.775 154.857 15.02 154.857 16.384 154.857 18.186 154.455 19.78 153.65 21.171 152.845 22.561 151.75 23.65 150.359 24.437 148.968 25.223 147.382 25.616 145.599 25.616L145.599 25.616zM162.462 21.42L164.693 21.42C165.968 21.42 166.978 20.957 167.722 20.029 168.464 19.104 168.837 17.879 168.837 16.358 168.837 14.836 168.464 13.613 167.722 12.686 166.978 11.759 165.968 11.296 164.693 11.296L162.462 11.296 162.462 21.42zM157.664 25.276L157.664 7.441 164.693 7.441C166.459 7.441 168.019 7.821 169.375 8.581 170.73 9.342 171.793 10.391 172.562 11.729 173.33 13.067 173.714 14.61 173.714 16.358 173.714 18.107 173.33 19.65 172.562 20.988 171.793 22.324 170.73 23.374 169.375 24.135 168.019 24.896 166.459 25.276 164.693 25.276L157.664 25.276 157.664 25.276zM181.531 18.325L185.753 18.325 183.656 12.082 181.531 18.325zM188.115 25.276L186.988 21.945 180.298 21.945 179.171 25.276 174.345 25.276 180.876 7.441 186.541 7.441 193.072 25.276 188.115 25.276 188.115 25.276z"/>
    <polyline fill="#404040" points="202.513 18.85 202.513 25.276 197.556 25.276 197.556 18.85 191.236 7.441 196.744 7.441 200.048 14.522 203.326 7.441 208.834 7.441 202.513 18.85"/>
    <polyline fill="#404040" points="227.796 25.276 220.794 14.994 220.794 25.276 216.308 25.276 216.308 7.441 220.767 7.441 227.744 17.905 227.744 7.441 232.255 7.441 232.255 25.276 227.796 25.276"/>
    <polyline fill="#404040" points="236.191 25.276 236.191 7.441 248.492 7.441 248.492 11.348 240.964 11.348 240.964 14.364 247.652 14.364 247.652 18.273 240.964 18.273 240.964 21.367 248.912 21.367 248.912 25.276 236.191 25.276"/>
    <polyline fill="#404040" points="255.914 25.276 255.914 11.374 250.617 11.374 250.617 7.441 266.091 7.441 266.091 11.374 260.793 11.374 260.793 25.276 255.914 25.276"/>
    <polyline fill="#404040" points="282.562 25.276 279.677 13.683 276.791 25.276 271.625 25.276 267.191 7.441 271.914 7.441 274.615 19.611 277.605 7.441 281.775 7.441 284.738 19.531 287.519 7.441 292.162 7.441 287.728 25.276 282.562 25.276"/>
    <path fill="#404040" d="M302.548 21.577C303.404 21.577 304.152 21.359 304.791 20.922 305.429 20.485 305.931 19.877 306.298 19.099 306.666 18.321 306.849 17.416 306.849 16.384 306.849 15.353 306.666 14.444 306.298 13.656 305.931 12.869 305.429 12.253 304.791 11.807 304.152 11.362 303.404 11.139 302.548 11.139 301.691 11.139 300.943 11.362 300.304 11.807 299.668 12.253 299.164 12.869 298.796 13.656 298.429 14.444 298.246 15.353 298.246 16.384 298.246 17.416 298.429 18.321 298.796 19.099 299.164 19.877 299.668 20.485 300.304 20.922 300.943 21.359 301.691 21.577 302.548 21.577zM302.548 25.616C300.763 25.616 299.177 25.223 297.787 24.437 296.398 23.65 295.3 22.561 294.496 21.171 293.691 19.78 293.289 18.186 293.289 16.384 293.289 15.02 293.515 13.775 293.97 12.647 294.425 11.519 295.072 10.539 295.912 9.709 296.751 8.879 297.73 8.236 298.849 7.781 299.968 7.326 301.201 7.099 302.548 7.099 303.894 7.099 305.126 7.326 306.246 7.781 307.365 8.236 308.343 8.879 309.183 9.709 310.023 10.539 310.669 11.519 311.125 12.647 311.58 13.775 311.806 15.02 311.806 16.384 311.806 18.186 311.404 19.78 310.599 21.171 309.794 22.561 308.699 23.65 307.308 24.437 305.918 25.223 304.332 25.616 302.548 25.616L302.548 25.616zM319.386 15.65L322.009 15.65C322.761 15.65 323.355 15.453 323.793 15.06 324.23 14.666 324.449 14.128 324.449 13.446 324.449 12.8 324.23 12.279 323.793 11.886 323.355 11.492 322.761 11.296 322.009 11.296L319.386 11.296 319.386 15.65zM319.386 19.348L319.386 25.276 314.666 25.276 314.666 7.441 322.535 7.441C324.632 7.441 326.293 7.978 327.517 9.053 328.742 10.128 329.353 11.593 329.353 13.446 329.353 14.653 329.082 15.694 328.541 16.568 327.998 17.443 327.238 18.124 326.259 18.613L329.904 25.276 324.71 25.276 321.748 19.348 319.386 19.348 319.386 19.348z"/>
    <polyline fill="#404040" points="343.044 25.276 337.378 16.556 337.378 25.276 332.527 25.276 332.527 7.441 337.378 7.441 337.378 15.27 343.253 7.441 348.867 7.441 342.257 15.637 348.736 25.276 343.044 25.276"/>
    <path class='no-color-change' fill="#009BFF" d="M69.221 48.47C67.77 48.47 66.379 48.221 65.051 47.723 63.723 47.224 62.569 46.512 61.59 45.585L63.95 42.621C64.649 43.25 65.436 43.745 66.311 44.103 67.184 44.461 68.147 44.641 69.196 44.641 69.895 44.641 70.446 44.519 70.848 44.274 71.25 44.029 71.452 43.661 71.452 43.172 71.452 42.699 71.215 42.32 70.743 42.031 70.272 41.742 69.44 41.441 68.252 41.126L67.151 40.837C65.541 40.418 64.317 39.776 63.477 38.909 62.639 38.044 62.219 36.947 62.219 35.618 62.219 34.482 62.516 33.485 63.11 32.628 63.706 31.772 64.528 31.112 65.577 30.648 66.626 30.185 67.84 29.952 69.221 29.952 70.587 29.952 71.889 30.202 73.129 30.7 74.372 31.198 75.473 31.876 76.434 32.733L73.995 35.802C73.366 35.26 72.628 34.787 71.78 34.385 70.93 33.984 70.088 33.782 69.249 33.782 68.549 33.782 68.01 33.901 67.635 34.136 67.258 34.372 67.071 34.718 67.071 35.172 67.071 35.592 67.268 35.955 67.661 36.261 68.055 36.567 68.733 36.851 69.694 37.113L71.032 37.481C72.956 38.005 74.315 38.722 75.11 39.631 75.905 40.54 76.303 41.598 76.303 42.805 76.303 43.942 76.01 44.934 75.424 45.781 74.838 46.63 74.012 47.29 72.946 47.762 71.879 48.234 70.639 48.47 69.221 48.47M83.963 38.45L86.323 38.45C87.075 38.45 87.67 38.254 88.106 37.861 88.543 37.467 88.762 36.947 88.762 36.3 88.762 35.654 88.543 35.133 88.106 34.739 87.67 34.346 87.075 34.15 86.323 34.15L83.963 34.15 83.963 38.45zM79.241 48.129L79.241 30.294 86.795 30.294C88.893 30.294 90.555 30.831 91.78 31.906 93.002 32.982 93.616 34.446 93.616 36.3 93.616 37.506 93.34 38.552 92.79 39.435 92.239 40.318 91.463 40.999 90.467 41.48 89.471 41.961 88.282 42.201 86.901 42.201L83.963 42.201 83.963 48.129 79.241 48.129 79.241 48.129zM101.038 38.503L103.661 38.503C104.411 38.503 105.006 38.307 105.444 37.913 105.879 37.52 106.098 36.982 106.098 36.3 106.098 35.654 105.879 35.133 105.444 34.739 105.006 34.346 104.411 34.15 103.661 34.15L101.038 34.15 101.038 38.503zM101.038 42.201L101.038 48.129 96.315 48.129 96.315 30.294 104.184 30.294C106.282 30.294 107.944 30.831 109.168 31.906 110.391 32.982 111.004 34.446 111.004 36.3 111.004 37.506 110.733 38.547 110.19 39.421 109.649 40.296 108.887 40.978 107.909 41.467L111.555 48.129 106.362 48.129 103.397 42.201 101.038 42.201 101.038 42.201z"/>
    <polygon class='no-color-change' fill="#009BFF" points="114.176 48.129 119.055 48.129 119.055 30.294 114.176 30.294"/>
    <polyline class='no-color-change' fill="#009BFF" points="134.477 48.129 127.475 37.848 127.475 48.129 122.989 48.129 122.989 30.294 127.448 30.294 134.424 40.759 134.424 30.294 138.936 30.294 138.936 48.129 134.477 48.129"/>
    <path class='no-color-change' fill="#009BFF" d="M158.819,46.03 C158.067,46.8 157.026,47.4 155.698,47.827 C154.368,48.256 152.899,48.47 151.292,48.47 C149.368,48.47 147.702,48.081 146.293,47.303 C144.887,46.525 143.793,45.437 143.016,44.037 C142.237,42.639 141.848,41.021 141.848,39.185 C141.848,37.349 142.243,35.74 143.03,34.36 C143.815,32.978 144.917,31.898 146.335,31.12 C147.751,30.342 149.403,29.952 151.292,29.952 C154.508,29.952 157.001,31.159 158.766,33.572 L154.858,35.854 C154.491,35.26 153.989,34.801 153.35,34.477 C152.711,34.154 152.008,33.992 151.239,33.992 C149.838,33.992 148.751,34.464 147.973,35.408 C147.194,36.353 146.805,37.612 146.805,39.185 C146.805,40.951 147.247,42.267 148.129,43.133 C149.012,43.998 150.293,44.431 151.973,44.431 C152.76,44.431 153.538,44.3 154.307,44.037 L154.307,41.414 L151.133,41.414 L151.133,37.873 L158.819,37.873 L158.819,46.03"/>
    <polyline class='no-color-change' fill="#009BFF" points="167.001 48.129 162.122 48.129 162.122 30.294 174.661 30.294 174.661 34.201 167.001 34.201 167.001 37.769 173.348 37.769 173.348 41.677 167.001 41.677 167.001 48.129"/>
    <polygon class='no-color-change' fill="#009BFF" points="177.362 48.129 182.241 48.129 182.241 30.294 177.362 30.294"/>
    <polyline class='no-color-change' fill="#009BFF" points="186.174 48.129 186.174 30.294 198.475 30.294 198.475 34.201 190.948 34.201 190.948 37.218 197.635 37.218 197.635 41.126 190.948 41.126 190.948 44.221 198.895 44.221 198.895 48.129 186.174 48.129"/>
    <polyline class='no-color-change' fill="#009BFF" points="206.842 44.194 214.264 44.194 214.264 48.129 201.963 48.129 201.963 30.294 206.842 30.294 206.842 44.194"/>
    <path class='no-color-change' fill="#009BFF" d="M221.633 44.274L223.864 44.274C225.139 44.274 226.149 43.811 226.893 42.883 227.635 41.957 228.008 40.733 228.008 39.211 228.008 37.69 227.635 36.466 226.893 35.539 226.149 34.613 225.139 34.15 223.864 34.15L221.633 34.15 221.633 44.274zM216.835 48.129L216.835 30.294 223.864 30.294C225.629 30.294 227.19 30.674 228.545 31.435 229.901 32.196 230.963 33.244 231.733 34.582 232.501 35.92 232.885 37.463 232.885 39.211 232.885 40.96 232.501 42.503 231.733 43.841 230.963 45.178 229.901 46.228 228.545 46.988 227.19 47.749 225.629 48.129 223.864 48.129L216.835 48.129 216.835 48.129zM54.177 27.824C54.177 42.737 42.09 54.823 27.177 54.823 12.264 54.823.177 42.737.177 27.824.177 12.911 12.264.823 27.177.823 42.09.823 54.177 12.911 54.177 27.824"/>
  </g>
</svg>
