<svg height="47" viewBox="0 0 272 47" width="272" xmlns="http://www.w3.org/2000/svg">
  <g fill="none" fill-rule="evenodd">
    <g fill="#404040"><path
      d="m1.248 43.468h1.199c.394 0 .706-.098.935-.291.23-.195.344-.46.344-.795 0-.334-.114-.599-.344-.793-.229-.194-.541-.291-.935-.291h-1.199zm-.891 3.078v-5.998h2.09c.671 0 1.203.165 1.597.494s.591.776.591 1.34c0 .56-.197 1.001-.591 1.328-.394.326-.926.489-1.597.489h-1.199v2.347zm6.077-2.258h2.187l-1.093-2.814zm3.061 2.258-.583-1.509h-2.769l-.582 1.509h-.9l2.399-5.998h.962l2.39 5.998zm2.804-3.167h1.227c.382 0 .686-.094.913-.282.226-.188.339-.441.339-.758 0-.318-.113-.571-.339-.759-.227-.188-.531-.282-.913-.282h-1.227zm0 .733v2.434h-.89v-5.998h2.117c.664 0 1.19.16 1.578.48.389.321.583.758.583 1.311 0 .417-.118.77-.353 1.058s-.559.491-.97.609l1.455 2.54h-1.014l-1.368-2.434z"/><path d="m18.244 46.546v-5.248h-2.019v-.75h4.93v.75h-2.02v5.248z"/><path
      d="m26.879 45.867c.388 0 .734-.099 1.037-.296.302-.197.539-.469.71-.816.17-.347.255-.749.255-1.208s-.085-.861-.255-1.208c-.171-.347-.408-.619-.71-.816-.303-.197-.649-.296-1.037-.296s-.732.099-1.032.296-.535.469-.706.816c-.17.347-.255.749-.255 1.208s.085.861.255 1.208c.171.347.406.619.706.816s.644.296 1.032.296zm0 .776c-.564 0-1.064-.132-1.499-.397s-.778-.629-1.028-1.094c-.25-.464-.375-.999-.375-1.605 0-.605.125-1.141.375-1.605.25-.465.593-.83 1.028-1.094.435-.265.935-.397 1.499-.397.565 0 1.066.132 1.504.397.438.264.782.629 1.032 1.094.25.464.375 1 .375 1.605 0 .606-.125 1.141-.375 1.605-.25.465-.594.829-1.032 1.094s-.939.397-1.504.397z"/><path d="m31.933 46.546h-.891v-5.998h3.731v.75h-2.84v2.028h2.408v.75h-2.408z"/><path d="m39.421 46.546v-5.248h-2.019v-.75h4.93v.75h-2.02v5.248z"/><path d="m43.355 46.546v-5.998h.891v2.566h3.096v-2.566h.891v5.998h-.891v-2.664h-3.096v2.664z"/><path d="m49.803 46.546v-5.998h3.846v.75h-2.955v1.852h2.602v.75h-2.602v1.896h3.025v.75z"/><path
      d="m59.346 45.867c.488 0 .872-.147 1.151-.441.28-.294.419-.691.419-1.191v-3.687h.891v3.695c0 .748-.219 1.334-.657 1.76-.438.427-1.039.64-1.804.64-.764 0-1.364-.213-1.799-.64-.435-.426-.653-1.012-.653-1.76v-3.695h.891v3.687c0 .5.14.897.419 1.191s.66.441 1.142.441m5.786.776c-.452 0-.885-.08-1.296-.238-.412-.159-.744-.371-.997-.636l.503-.59c.235.217.513.388.833.511.321.124.64.185.957.185.389 0 .702-.074.94-.224.238-.151.357-.358.357-.622 0-.241-.085-.444-.256-.609-.17-.164-.461-.303-.873-.414l-.829-.221c-.535-.141-.925-.341-1.169-.6-.244-.258-.366-.597-.366-1.014 0-.341.091-.641.274-.9.182-.258.433-.46.754-.604.32-.144.683-.216 1.089-.216.429 0 .832.081 1.208.243.377.162.709.386.997.674l-.538.582c-.253-.235-.516-.416-.789-.542-.274-.126-.563-.19-.869-.19-.37 0-.674.078-.909.234s-.352.372-.352.648c0 .253.083.45.251.591s.425.259.772.353l.926.256c.535.147.926.353 1.173.617.247.265.37.594.37.988 0 .347-.091.651-.273.913s-.435.465-.759.609c-.323.143-.699.216-1.129.216m4.402-2.355h2.187l-1.093-2.814zm3.061 2.258-.583-1.509h-2.769l-.582 1.509h-.9l2.399-5.998h.961l2.391 5.998z"/><path d="m77.657 46.546v-5.248h-2.02v-.75h4.931v.75h-2.02v5.248z"/><path
      d="m83.778 45.867c.388 0 .734-.099 1.037-.296s.539-.469.71-.816c.17-.347.256-.749.256-1.208s-.086-.861-.256-1.208c-.171-.347-.407-.619-.71-.816s-.649-.296-1.037-.296-.732.099-1.031.296c-.301.197-.536.469-.706.816-.171.347-.256.749-.256 1.208s.085.861.256 1.208c.17.347.405.619.706.816.299.197.643.296 1.031.296zm0 .776c-.564 0-1.064-.132-1.499-.397s-.778-.629-1.028-1.094c-.249-.464-.374-.999-.374-1.605 0-.605.125-1.141.374-1.605.25-.465.593-.83 1.028-1.094.435-.265.935-.397 1.499-.397.565 0 1.066.132 1.504.397.438.264.782.629 1.032 1.094.25.464.375 1 .375 1.605 0 .606-.125 1.141-.375 1.605-.25.465-.594.829-1.032 1.094s-.939.397-1.504.397zm5.054-.847h1.218c.423 0 .786-.093 1.089-.278s.535-.445.697-.78c.161-.335.242-.732.242-1.191s-.081-.856-.242-1.191c-.162-.335-.394-.595-.697-.781-.303-.185-.666-.277-1.089-.277h-1.218zm-.89.75v-5.998h2.108c.588 0 1.102.125 1.543.375s.784.6 1.028 1.049c.244.45.366.975.366 1.575s-.122 1.125-.366 1.574c-.244.45-.587.8-1.028 1.05s-.955.375-1.543.375zm7.321-2.258h2.187l-1.094-2.814zm3.06 2.258-.582-1.509h-2.77l-.582 1.509h-.899l2.399-5.998h.961l2.39 5.998z"/><path d="m101.975 44.164v2.382h-.891v-2.382l-2.108-3.616h1.049l1.508 2.77 1.509-2.77h1.032z"/><path d="m111.2 46.546-3.201-4.596v4.596h-.838v-5.998h.829l3.21 4.595v-4.595h.829v5.998z"/><path d="m113.6 46.546v-5.998h3.845v.75h-2.955v1.852h2.602v.75h-2.602v1.896h3.026v.75z"/><path d="m120.162 46.546v-5.248h-2.02v-.75h4.93v.75h-2.019v5.248z"/><path d="m128.894 46.546-1.403-4.781-1.402 4.781h-.926l-1.597-5.998h.882l1.218 4.745 1.402-4.745h.847l1.411 4.763 1.226-4.763h.865l-1.597 5.998z"/><path
      d="m134.953 45.867c.388 0 .734-.099 1.037-.296.302-.197.539-.469.71-.816.17-.347.255-.749.255-1.208s-.085-.861-.255-1.208c-.171-.347-.408-.619-.71-.816-.303-.197-.649-.296-1.037-.296s-.732.099-1.032.296-.535.469-.705.816c-.171.347-.256.749-.256 1.208s.085.861.256 1.208c.17.347.405.619.705.816s.644.296 1.032.296zm0 .776c-.564 0-1.064-.132-1.499-.397s-.778-.629-1.028-1.094c-.25-.464-.374-.999-.374-1.605 0-.605.124-1.141.374-1.605.25-.465.593-.83 1.028-1.094.435-.265.935-.397 1.499-.397.565 0 1.066.132 1.504.397.438.264.782.629 1.032 1.094.25.464.375 1 .375 1.605 0 .606-.125 1.141-.375 1.605-.25.465-.594.829-1.032 1.094s-.939.397-1.504.397zm5.054-3.264h1.226c.383 0 .687-.094.913-.282.227-.188.34-.441.34-.758 0-.318-.113-.571-.34-.759-.226-.188-.53-.282-.913-.282h-1.226zm0 .733v2.434h-.891v-5.998h2.117c.665 0 1.191.16 1.579.48.388.321.582.758.582 1.311 0 .417-.117.77-.352 1.058-.236.288-.559.491-.971.609l1.456 2.54h-1.015l-1.367-2.434z"/><path d="m148.237 46.546-2.69-3.026v3.026h-.891v-5.998h.891v2.629l2.513-2.629h1.103l-2.673 2.752 2.867 3.246z"/></g><path
      d="m8.187 21.029v12.645h-7.83v-22.905h7.155l.405 3.015c.749-1.08 1.724-1.95 2.925-2.61 1.199-.659 2.52-.99 3.96-.99 2.489 0 4.484.81 5.985 2.43 1.499 1.62 2.25 3.945 2.25 6.975v14.085h-7.83v-13.185c0-1.35-.301-2.347-.9-2.992-.601-.646-1.44-.968-2.52-.968s-1.951.345-2.61 1.035c-.661.691-.99 1.845-.99 3.465m30.779-5.175c-2.55 0-4.08 1.35-4.59 4.05h8.73c-.21-1.47-.713-2.512-1.507-3.128-.796-.614-1.673-.922-2.633-.922zm10.71 15.48c-1.141.81-2.588 1.5-4.342 2.07-1.756.57-3.623.855-5.603.855-2.73 0-5.062-.503-6.997-1.508-1.935-1.004-3.42-2.407-4.455-4.207s-1.553-3.87-1.553-6.21c0-2.369.51-4.47 1.53-6.3 1.02-1.829 2.43-3.263 4.23-4.298 1.8-1.034 3.9-1.552 6.3-1.552 2.34 0 4.402.502 6.188 1.507 1.784 1.006 3.179 2.401 4.185 4.185 1.004 1.786 1.507 3.878 1.507 6.278 0 .33-.022.675-.067 1.035-.046.36-.098.736-.158 1.125h-15.975c.72 2.64 2.684 3.96 5.895 3.96 1.44 0 2.715-.225 3.825-.675s2.04-.9 2.79-1.35z"
      fill="#009bff" class='no-color-change'/><path d="m73.976 33.674-3.69-13.905-3.645 13.905h-8.1l-5.94-22.905h8.01l2.385 14.76 3.87-14.76h6.885l4.005 14.805 2.43-14.805h7.83l-5.94 22.905z" fill="#009bff" class='no-color-change'/><path
      d="m99.94 34.259c-1.98 0-3.833-.315-5.557-.945-1.726-.63-3.278-1.53-4.658-2.7l3.33-4.41c1.05.84 2.183 1.523 3.398 2.047 1.215.526 2.407.788 3.577.788.78 0 1.402-.135 1.868-.405.465-.27.697-.675.697-1.215 0-.569-.263-1.027-.787-1.372-.525-.345-1.463-.683-2.813-1.013l-2.16-.54c-4.29-1.14-6.435-3.435-6.435-6.885 0-1.53.42-2.85 1.26-3.96s1.995-1.965 3.465-2.565 3.18-.9 5.13-.9c1.92 0 3.727.3 5.423.9 1.694.6 3.247 1.47 4.657 2.61l-3.42 4.5c-1.05-.84-2.16-1.514-3.33-2.025-1.17-.51-2.265-.765-3.285-.765-1.65 0-2.475.54-2.475 1.62 0 .48.248.87.743 1.17s1.192.571 2.092.81l2.925.81c2.19.6 3.81 1.5 4.86 2.7s1.575 2.626 1.575 4.275c0 1.5-.42 2.812-1.26 3.937s-2.018 1.996-3.532 2.611c-1.516.614-3.278.922-5.288.922"
      fill="#009bff" class='no-color-change'/><path d="m125.095 33.674h7.83v-32.85h-7.83z" fill="#404040"/><path
      d="m149.259 15.854c-2.55 0-4.08 1.35-4.59 4.05h8.73c-.21-1.47-.713-2.512-1.508-3.128-.795-.614-1.672-.922-2.632-.922zm10.71 15.48c-1.141.81-2.587 1.5-4.342 2.07-1.756.57-3.623.855-5.603.855-2.73 0-5.062-.503-6.997-1.508-1.935-1.004-3.42-2.407-4.455-4.207-1.036-1.8-1.553-3.87-1.553-6.21 0-2.369.51-4.47 1.53-6.3 1.02-1.829 2.43-3.263 4.23-4.298 1.8-1.034 3.9-1.552 6.3-1.552 2.34 0 4.402.502 6.187 1.507 1.785 1.006 3.18 2.401 4.185 4.185 1.005 1.786 1.508 3.878 1.508 6.278 0 .33-.022.675-.068 1.035-.045.36-.097.736-.157 1.125h-15.975c.72 2.64 2.685 3.96 5.895 3.96 1.44 0 2.715-.225 3.825-.675s2.04-.9 2.79-1.35zm11.16-5.085c0 .69.255 1.253.765 1.687.51.436 1.17.653 1.98.653 1.08 0 1.987-.367 2.722-1.103.735-.734 1.103-1.657 1.103-2.767v-.765c-.81-.15-1.665-.225-2.565-.225-1.141 0-2.093.196-2.857.585-.765.39-1.148 1.035-1.148 1.935zm6.885 7.425-.405-3.015c-1.5 2.4-3.78 3.6-6.84 3.6-1.35 0-2.573-.292-3.668-.877s-1.965-1.388-2.609-2.408c-.646-1.019-.968-2.205-.968-3.555 0-2.549.997-4.529 2.992-5.94 1.995-1.41 4.628-2.115 7.898-2.115 1.019 0 2.099.09 3.24.27-.12-1.14-.608-2.002-1.463-2.587s-1.897-.878-3.127-.878c-1.08 0-2.168.203-3.262.607-1.096.406-2.138.893-3.128 1.463l-2.655-5.04c1.5-.96 3.119-1.702 4.86-2.227 1.739-.525 3.48-.788 5.22-.788 2.1 0 3.99.36 5.67 1.08s2.999 1.816 3.96 3.285c.96 1.47 1.44 3.33 1.44 5.58v13.545zm23.265-5.625c1.35 0 2.437-.532 3.262-1.597s1.238-2.482 1.238-4.253c0-1.77-.413-3.187-1.238-4.253-.825-1.064-1.912-1.597-3.262-1.597-1.38 0-2.483.533-3.308 1.597-.825 1.066-1.237 2.483-1.237 4.253 0 1.771.412 3.188 1.237 4.253s1.928 1.597 3.308 1.597zm5.04 5.625-.405-3.015c-.72 1.11-1.651 1.987-2.79 2.632-1.141.645-2.46.968-3.96.968-2.07 0-3.885-.511-5.445-1.53-1.56-1.02-2.775-2.437-3.645-4.253-.871-1.814-1.305-3.907-1.305-6.277 0-2.369.434-4.455 1.305-6.255.87-1.8 2.062-3.21 3.577-4.23s3.263-1.53 5.243-1.53c1.379 0 2.655.292 3.825.877s2.145 1.373 2.925 2.363v-12.6h7.83v32.85zm23.49-17.82c-2.55 0-4.08 1.35-4.59 4.05h8.73c-.21-1.47-.713-2.512-1.508-3.128-.795-.614-1.672-.922-2.632-.922zm10.71 15.48c-1.141.81-2.588 1.5-4.342 2.07-1.756.57-3.623.855-5.603.855-2.73 0-5.062-.503-6.998-1.508-1.935-1.004-3.419-2.407-4.455-4.207-1.035-1.8-1.552-3.87-1.552-6.21 0-2.369.51-4.47 1.53-6.3 1.019-1.829 2.43-3.263 4.23-4.298 1.8-1.034 3.899-1.552 6.3-1.552 2.34 0 4.402.502 6.187 1.507 1.785 1.006 3.18 2.401 4.185 4.185 1.005 1.786 1.508 3.878 1.508 6.278 0 .33-.022.675-.068 1.035-.045.36-.097.736-.157 1.125h-15.975c.72 2.64 2.684 3.96 5.895 3.96 1.44 0 2.715-.225 3.825-.675 1.109-.45 2.04-.9 2.79-1.35zm12.825-6.525v8.865h-7.83v-22.905h7.155l.495 3.825c.479-1.23 1.267-2.228 2.362-2.993 1.095-.764 2.363-1.147 3.803-1.147.81 0 1.424.105 1.845.315v7.155c-.331-.119-.698-.209-1.103-.27-.405-.06-.863-.09-1.372-.09-1.561 0-2.843.578-3.848 1.733s-1.507 2.992-1.507 5.512"
      fill="#404040"/><path
      d="m266.034 34.169c-.961 0-1.838-.233-2.633-.697-.795-.465-1.425-1.095-1.89-1.891-.466-.794-.698-1.672-.698-2.632s.232-1.837.698-2.633c.465-.794 1.095-1.424 1.89-1.889s1.672-.698 2.633-.698c.959 0 1.836.233 2.632.698.794.465 1.425 1.095 1.89 1.889.465.796.697 1.673.697 2.633s-.232 1.838-.697 2.632c-.465.796-1.096 1.426-1.89 1.891-.796.464-1.673.697-2.632.697"
      fill="#009bff" class='no-color-change'/></g>
</svg>