<svg xmlns="http://www.w3.org/2000/svg" width="200" height="47" viewBox="0 0 200 47">
  <g fill="none" fill-rule="evenodd">
    <path fill="#404040" d="M4.598 43.542L5.769 43.542C6.154 43.542 6.458 43.447 6.682 43.258 6.906 43.069 7.018 42.81 7.018 42.483 7.018 42.156 6.906 41.897 6.682 41.708 6.458 41.518 6.154 41.424 5.769 41.424L4.598 41.424 4.598 43.542zM3.728 46.548L3.728 40.692 5.769 40.692C6.424 40.692 6.943 40.853 7.328 41.174 7.713 41.496 7.905 41.932 7.905 42.483 7.905 43.029 7.713 43.46 7.328 43.779 6.943 44.098 6.424 44.257 5.769 44.257L4.598 44.257 4.598 46.548 3.728 46.548 3.728 46.548zM9.662 44.343L11.798 44.343 10.73 41.596 9.662 44.343zM12.65 46.548L12.082 45.075 9.378 45.075 8.809 46.548 7.931 46.548 10.273 40.692 11.212 40.692 13.546 46.548 12.65 46.548 12.65 46.548zM15.389 43.456L16.586 43.456C16.959 43.456 17.257 43.365 17.478 43.181 17.699 42.997 17.809 42.75 17.809 42.44 17.809 42.13 17.699 41.883 17.478 41.699 17.257 41.516 16.959 41.424 16.586 41.424L15.389 41.424 15.389 43.456zM15.389 44.171L15.389 46.548 14.519 46.548 14.519 40.692 16.586 40.692C17.235 40.692 17.749 40.848 18.128 41.161 18.507 41.474 18.696 41.9 18.696 42.44 18.696 42.848 18.582 43.192 18.352 43.473 18.122 43.755 17.806 43.953 17.405 44.068L18.826 46.548 17.835 46.548 16.5 44.171 15.389 44.171 15.389 44.171z"/>
    <polyline fill="#404040" points="21.194 46.548 21.194 41.424 19.221 41.424 19.221 40.692 24.036 40.692 24.036 41.424 22.064 41.424 22.064 46.548 21.194 46.548"/>
    <path fill="#404040" d="M29.625,45.885 C30.004,45.885 30.341,45.789 30.637,45.596 C30.933,45.404 31.164,45.139 31.33,44.8 C31.497,44.461 31.58,44.068 31.58,43.62 C31.58,43.172 31.497,42.779 31.33,42.44 C31.164,42.101 30.933,41.836 30.637,41.643 C30.341,41.451 30.004,41.355 29.625,41.355 C29.246,41.355 28.91,41.451 28.618,41.643 C28.325,41.836 28.095,42.101 27.928,42.44 C27.762,42.779 27.679,43.172 27.679,43.62 C27.679,44.068 27.762,44.461 27.928,44.8 C28.095,45.139 28.325,45.404 28.618,45.596 C28.91,45.789 29.246,45.885 29.625,45.885 Z M29.625,46.643 C29.074,46.643 28.586,46.513 28.161,46.255 C27.736,45.997 27.402,45.641 27.158,45.187 C26.914,44.734 26.792,44.211 26.792,43.62 C26.792,43.029 26.914,42.506 27.158,42.052 C27.402,41.599 27.736,41.243 28.161,40.984 C28.586,40.726 29.074,40.597 29.625,40.597 C30.176,40.597 30.666,40.726 31.094,40.984 C31.521,41.243 31.857,41.599 32.101,42.052 C32.345,42.506 32.467,43.029 32.467,43.62 C32.467,44.211 32.345,44.734 32.101,45.187 C31.857,45.641 31.521,45.997 31.094,46.255 C30.666,46.513 30.176,46.643 29.625,46.643 L29.625,46.643 Z"/>
    <polyline fill="#404040" points="34.56 46.548 33.69 46.548 33.69 40.692 37.333 40.692 37.333 41.424 34.56 41.424 34.56 43.405 36.911 43.405 36.911 44.136 34.56 44.136 34.56 46.548"/>
    <polyline fill="#404040" points="41.872 46.548 41.872 41.424 39.899 41.424 39.899 40.692 44.714 40.692 44.714 41.424 42.742 41.424 42.742 46.548 41.872 46.548"/>
    <polyline fill="#404040" points="45.713 46.548 45.713 40.692 46.583 40.692 46.583 43.198 49.605 43.198 49.605 40.692 50.475 40.692 50.475 46.548 49.605 46.548 49.605 43.947 46.583 43.947 46.583 46.548 45.713 46.548"/>
    <polyline fill="#404040" points="52.008 46.548 52.008 40.692 55.763 40.692 55.763 41.424 52.878 41.424 52.878 43.232 55.419 43.232 55.419 43.964 52.878 43.964 52.878 45.816 55.832 45.816 55.832 46.548 52.008 46.548"/>
    <path fill="#404040" d="M61.327 45.885C61.803 45.885 62.178 45.742 62.451 45.454 62.723 45.167 62.86 44.78 62.86 44.291L62.86 40.692 63.729 40.692 63.729 44.3C63.729 45.03 63.516 45.602 63.088 46.018 62.66 46.435 62.073 46.643 61.327 46.643 60.58 46.643 59.995 46.435 59.57 46.018 59.145 45.602 58.933 45.03 58.933 44.3L58.933 40.692 59.802 40.692 59.802 44.291C59.802 44.78 59.939 45.167 60.211 45.454 60.484 45.742 60.856 45.885 61.327 45.885M66.976 46.643C66.534 46.643 66.112 46.565 65.71 46.41 65.308 46.255 64.984 46.048 64.737 45.79L65.228 45.213C65.458 45.426 65.729 45.592 66.042 45.713 66.355 45.833 66.666 45.893 66.976 45.893 67.355 45.893 67.661 45.82 67.894 45.674 68.126 45.527 68.242 45.325 68.242 45.067 68.242 44.831 68.159 44.633 67.993 44.472 67.826 44.312 67.542 44.177 67.14 44.068L66.33 43.852C65.808 43.715 65.427 43.519 65.189 43.267 64.951 43.014 64.832 42.684 64.832 42.276 64.832 41.944 64.921 41.65 65.099 41.398 65.277 41.145 65.522 40.949 65.835 40.808 66.148 40.667 66.503 40.597 66.899 40.597 67.318 40.597 67.711 40.676 68.079 40.834 68.446 40.992 68.771 41.212 69.052 41.493L68.527 42.061C68.28 41.832 68.023 41.655 67.756 41.531 67.489 41.408 67.206 41.346 66.907 41.346 66.546 41.346 66.25 41.422 66.02 41.575 65.791 41.727 65.676 41.938 65.676 42.207 65.676 42.454 65.758 42.646 65.921 42.785 66.085 42.922 66.336 43.037 66.675 43.129L67.579 43.379C68.102 43.522 68.484 43.723 68.725 43.982 68.966 44.24 69.086 44.562 69.086 44.946 69.086 45.285 68.997 45.582 68.82 45.838 68.641 46.093 68.394 46.291 68.079 46.431 67.763 46.573 67.395 46.643 66.976 46.643M71.274 44.343L73.41 44.343 72.342 41.596 71.274 44.343zM74.262 46.548L73.694 45.075 70.99 45.075 70.421 46.548 69.543 46.548 71.885 40.692 72.824 40.692 75.158 46.548 74.262 46.548 74.262 46.548z"/>
    <polyline fill="#404040" points="79.206 46.548 79.206 41.424 77.234 41.424 77.234 40.692 82.048 40.692 82.048 41.424 80.076 41.424 80.076 46.548 79.206 46.548"/>
    <path fill="#404040" d="M85.183 45.885C85.562 45.885 85.899 45.789 86.195 45.596 86.49 45.404 86.722 45.139 86.888 44.8 87.054 44.461 87.138 44.068 87.138 43.62 87.138 43.172 87.054 42.779 86.888 42.44 86.722 42.101 86.49 41.836 86.195 41.643 85.899 41.451 85.562 41.355 85.183 41.355 84.804 41.355 84.468 41.451 84.175 41.643 83.882 41.836 83.653 42.101 83.486 42.44 83.32 42.779 83.236 43.172 83.236 43.62 83.236 44.068 83.32 44.461 83.486 44.8 83.653 45.139 83.882 45.404 84.175 45.596 84.468 45.789 84.804 45.885 85.183 45.885zM85.183 46.643C84.632 46.643 84.144 46.513 83.719 46.255 83.294 45.997 82.959 45.641 82.715 45.187 82.471 44.734 82.349 44.211 82.349 43.62 82.349 43.029 82.471 42.506 82.715 42.052 82.959 41.599 83.294 41.243 83.719 40.984 84.144 40.726 84.632 40.597 85.183 40.597 85.734 40.597 86.223 40.726 86.651 40.984 87.079 41.243 87.415 41.599 87.659 42.052 87.903 42.506 88.025 43.029 88.025 43.62 88.025 44.211 87.903 44.734 87.659 45.187 87.415 45.641 87.079 45.997 86.651 46.255 86.223 46.513 85.734 46.643 85.183 46.643L85.183 46.643zM90.118 45.816L91.306 45.816C91.719 45.816 92.074 45.726 92.37 45.545 92.665 45.364 92.892 45.11 93.05 44.783 93.208 44.455 93.287 44.068 93.287 43.62 93.287 43.172 93.208 42.785 93.05 42.457 92.892 42.13 92.665 41.876 92.37 41.695 92.074 41.514 91.719 41.424 91.306 41.424L90.118 41.424 90.118 45.816zM89.248 46.548L89.248 40.692 91.306 40.692C91.88 40.692 92.383 40.814 92.813 41.058 93.244 41.302 93.578 41.643 93.816 42.083 94.055 42.521 94.174 43.034 94.174 43.62 94.174 44.206 94.055 44.718 93.816 45.157 93.578 45.596 93.244 45.938 92.813 46.182 92.383 46.426 91.88 46.548 91.306 46.548L89.248 46.548 89.248 46.548zM96.396 44.343L98.532 44.343 97.464 41.596 96.396 44.343zM99.384 46.548L98.816 45.075 96.112 45.075 95.543 46.548 94.665 46.548 97.007 40.692 97.946 40.692 100.28 46.548 99.384 46.548 99.384 46.548z"/>
    <polyline fill="#404040" points="102.95 44.223 102.95 46.548 102.08 46.548 102.08 44.223 100.022 40.692 101.047 40.692 102.519 43.396 103.992 40.692 105 40.692 102.95 44.223"/>
    <polyline fill="#404040" points="111.958 46.548 108.832 42.061 108.832 46.548 108.014 46.548 108.014 40.692 108.823 40.692 111.958 45.179 111.958 40.692 112.768 40.692 112.768 46.548 111.958 46.548"/>
    <polyline fill="#404040" points="114.301 46.548 114.301 40.692 118.056 40.692 118.056 41.424 115.171 41.424 115.171 43.232 117.711 43.232 117.711 43.964 115.171 43.964 115.171 45.816 118.125 45.816 118.125 46.548 114.301 46.548"/>
    <polyline fill="#404040" points="120.708 46.548 120.708 41.424 118.736 41.424 118.736 40.692 123.55 40.692 123.55 41.424 121.578 41.424 121.578 46.548 120.708 46.548"/>
    <polyline fill="#404040" points="129.234 46.548 127.865 41.88 126.496 46.548 125.592 46.548 124.032 40.692 124.894 40.692 126.082 45.325 127.452 40.692 128.278 40.692 129.656 45.342 130.854 40.692 131.697 40.692 130.139 46.548 129.234 46.548"/>
    <path fill="#404040" d="M135.151 45.885C135.531 45.885 135.867 45.789 136.163 45.596 136.459 45.404 136.69 45.139 136.857 44.8 137.023 44.461 137.106 44.068 137.106 43.62 137.106 43.172 137.023 42.779 136.857 42.44 136.69 42.101 136.459 41.836 136.163 41.643 135.867 41.451 135.531 41.355 135.151 41.355 134.772 41.355 134.436 41.451 134.144 41.643 133.851 41.836 133.621 42.101 133.455 42.44 133.288 42.779 133.205 43.172 133.205 43.62 133.205 44.068 133.288 44.461 133.455 44.8 133.621 45.139 133.851 45.404 134.144 45.596 134.436 45.789 134.772 45.885 135.151 45.885zM135.151 46.643C134.6 46.643 134.112 46.513 133.687 46.255 133.262 45.997 132.928 45.641 132.684 45.187 132.44 44.734 132.318 44.211 132.318 43.62 132.318 43.029 132.44 42.506 132.684 42.052 132.928 41.599 133.262 41.243 133.687 40.984 134.112 40.726 134.6 40.597 135.151 40.597 135.703 40.597 136.192 40.726 136.62 40.984 137.047 41.243 137.383 41.599 137.627 42.052 137.871 42.506 137.993 43.029 137.993 43.62 137.993 44.211 137.871 44.734 137.627 45.187 137.383 45.641 137.047 45.997 136.62 46.255 136.192 46.513 135.703 46.643 135.151 46.643L135.151 46.643zM140.086 43.456L141.283 43.456C141.656 43.456 141.954 43.365 142.175 43.181 142.395 42.997 142.506 42.75 142.506 42.44 142.506 42.13 142.395 41.883 142.175 41.699 141.954 41.516 141.656 41.424 141.283 41.424L140.086 41.424 140.086 43.456zM140.086 44.171L140.086 46.548 139.216 46.548 139.216 40.692 141.283 40.692C141.932 40.692 142.446 40.848 142.825 41.161 143.204 41.474 143.393 41.9 143.393 42.44 143.393 42.848 143.278 43.192 143.049 43.473 142.819 43.755 142.503 43.953 142.101 44.068L143.522 46.548 142.532 46.548 141.197 44.171 140.086 44.171 140.086 44.171z"/>
    <polyline fill="#404040" points="148.121 46.548 145.495 43.594 145.495 46.548 144.625 46.548 144.625 40.692 145.495 40.692 145.495 43.258 147.949 40.692 149.025 40.692 146.416 43.379 149.215 46.548 148.121 46.548"/>
    <path fill="#009BFF" d="M13.452 34.717C10.962 34.717 8.577 34.29 6.297 33.435 4.017 32.58 2.037 31.358.357 29.768L4.407 24.683C5.607 25.762 6.957 26.611 8.457 27.225 9.957 27.841 11.607 28.148 13.407 28.148 14.607 28.148 15.551 27.938 16.242 27.518 16.932 27.098 17.277 26.468 17.277 25.628 17.277 24.818 16.872 24.165 16.062 23.671 15.252 23.175 13.827 22.658 11.787 22.118L9.897 21.623C7.137 20.903 5.037 19.8 3.597 18.315 2.157 16.83 1.437 14.948 1.437 12.668 1.437 10.718 1.947 9.008 2.967 7.538 3.986 6.068 5.397 4.935 7.197 4.14 8.997 3.345 11.082 2.948 13.452 2.948 15.792 2.948 18.027 3.375 20.157 4.23 22.287 5.085 24.177 6.248 25.827 7.717L21.642 12.983C20.562 12.053 19.294 11.243 17.84 10.552 16.384 9.863 14.937 9.518 13.497 9.518 12.297 9.518 11.374 9.72 10.729 10.125 10.084 10.53 9.762 11.123 9.762 11.903 9.762 12.623 10.1 13.246 10.775 13.77 11.45 14.296 12.612 14.783 14.262 15.233L16.557 15.863C19.857 16.762 22.189 17.993 23.555 19.552 24.919 21.113 25.602 22.927 25.602 24.998 25.602 26.948 25.099 28.651 24.094 30.105 23.089 31.561 21.672 32.693 19.842 33.503 18.012 34.313 15.882 34.717 13.452 34.717M44.637 34.717C41.516 34.717 38.779 34.043 36.424 32.693 34.069 31.342 32.224 29.475 30.889 27.091 29.554 24.705 28.887 21.938 28.887 18.788 28.887 15.637 29.554 12.878 30.889 10.507 32.224 8.138 34.069 6.286 36.424 4.95 38.779 3.616 41.516 2.948 44.637 2.948 47.276 2.948 49.654 3.481 51.769 4.546 53.884 5.611 55.691 7.148 57.192 9.158L50.577 13.073C49.796 12.083 48.919 11.303 47.944 10.733 46.969 10.163 45.836 9.878 44.547 9.878 42.416 9.878 40.692 10.68 39.372 12.285 38.051 13.89 37.392 16.058 37.392 18.788 37.392 21.518 38.051 23.7 39.372 25.335 40.692 26.97 42.416 27.788 44.547 27.788 45.867 27.788 47.036 27.466 48.057 26.82 49.076 26.175 49.931 25.418 50.622 24.548L57.192 28.463C55.722 30.503 53.914 32.055 51.769 33.12 49.624 34.185 47.247 34.717 44.637 34.717"/>
    <polyline fill="#404040" points="79.016 34.132 79.016 10.283 69.926 10.283 69.926 3.533 96.476 3.533 96.476 10.283 87.386 10.283 87.386 34.132 79.016 34.132"/>
    <path fill="#404040" d="M100.256 34.132L100.256 11.228C101.516 11.498 102.79 11.632 104.08 11.632 105.4 11.632 106.736 11.498 108.085 11.228L108.085 34.132 100.256 34.132M121.405 20.948L121.405 34.132 113.575 34.132 113.575 11.228 120.775 11.228 121.18 14.153C121.87 13.043 122.77 12.203 123.88 11.632 124.99 11.063 126.175 10.778 127.435 10.778 128.785 10.778 130.015 11.078 131.125 11.677 132.235 12.278 133.135 13.118 133.825 14.198 134.635 13.089 135.693 12.24 136.997 11.655 138.303 11.07 139.675 10.778 141.115 10.778 142.705 10.778 144.108 11.145 145.323 11.881 146.538 12.616 147.49 13.635 148.18 14.94 148.87 16.245 149.215 17.753 149.215 19.463L149.215 34.132 141.385 34.132 141.385 20.273C141.385 19.313 141.122 18.548 140.598 17.978 140.072 17.408 139.405 17.123 138.595 17.123 137.605 17.123 136.81 17.438 136.21 18.068 135.61 18.698 135.31 19.658 135.31 20.948L135.31 34.132 127.48 34.132 127.48 20.273C127.48 19.313 127.225 18.548 126.715 17.978 126.204 17.408 125.515 17.123 124.645 17.123 123.684 17.123 122.905 17.438 122.305 18.068 121.704 18.698 121.405 19.658 121.405 20.948M165.145 16.313C162.595 16.313 161.065 17.663 160.555 20.363L169.285 20.363C169.075 18.893 168.572 17.85 167.777 17.235 166.982 16.621 166.105 16.313 165.145 16.313zM175.855 31.793C174.714 32.603 173.267 33.293 171.513 33.863 169.757 34.432 167.89 34.717 165.91 34.717 163.18 34.717 160.848 34.215 158.913 33.21 156.977 32.206 155.493 30.802 154.457 29.003 153.422 27.203 152.905 25.133 152.905 22.793 152.905 20.424 153.415 18.323 154.435 16.493 155.454 14.663 156.865 13.23 158.665 12.195 160.465 11.16 162.564 10.643 164.965 10.643 167.305 10.643 169.367 11.145 171.152 12.15 172.937 13.156 174.332 14.55 175.337 16.335 176.342 18.121 176.845 20.213 176.845 22.613 176.845 22.943 176.823 23.288 176.777 23.648 176.732 24.008 176.68 24.384 176.62 24.773L160.645 24.773C161.365 27.413 163.329 28.733 166.54 28.733 167.98 28.733 169.255 28.507 170.365 28.058 171.475 27.608 172.405 27.158 173.155 26.708L175.855 31.793 175.855 31.793zM189.355 34.717C187.375 34.717 185.522 34.403 183.797 33.773 182.072 33.143 180.519 32.243 179.14 31.073L182.47 26.663C183.519 27.503 184.652 28.186 185.867 28.71 187.082 29.236 188.275 29.498 189.445 29.498 190.225 29.498 190.847 29.363 191.312 29.092 191.777 28.823 192.01 28.418 192.01 27.878 192.01 27.308 191.747 26.85 191.222 26.506 190.697 26.161 189.76 25.823 188.41 25.493L186.25 24.953C181.959 23.813 179.815 21.518 179.815 18.068 179.815 16.538 180.235 15.218 181.075 14.108 181.914 12.998 183.07 12.143 184.54 11.543 186.009 10.943 187.719 10.643 189.67 10.643 191.589 10.643 193.397 10.943 195.092 11.543 196.787 12.143 198.339 13.013 199.75 14.153L196.33 18.653C195.279 17.813 194.17 17.138 193 16.628 191.83 16.118 190.734 15.863 189.715 15.863 188.064 15.863 187.24 16.403 187.24 17.483 187.24 17.963 187.487 18.353 187.982 18.653 188.477 18.953 189.175 19.223 190.075 19.463L193 20.273C195.189 20.873 196.809 21.773 197.86 22.973 198.91 24.173 199.435 25.598 199.435 27.248 199.435 28.748 199.014 30.06 198.175 31.185 197.334 32.31 196.157 33.18 194.642 33.796 193.127 34.41 191.364 34.717 189.355 34.717"/>
    <path fill="#009BFF" d="M104.08,9.427 C102.79,9.427 101.688,8.97 100.773,8.055 C99.857,7.14 99.401,6.038 99.401,4.748 C99.401,3.458 99.857,2.356 100.773,1.44 C101.688,0.526 102.79,0.068 104.08,0.068 C105.37,0.068 106.473,0.526 107.388,1.44 C108.303,2.356 108.761,3.458 108.761,4.748 C108.761,6.038 108.303,7.14 107.388,8.055 C106.473,8.97 105.37,9.427 104.08,9.427"/>
  </g>
</svg>
