<svg xmlns="http://www.w3.org/2000/svg" width="349" height="55" viewBox="0 0 349 55">
  <g fill="none" fill-rule="evenodd">
    <path class='no-color-change' fill="#009BFF" d="M54.177,27.824 C54.177,42.736 42.09,54.824 27.177,54.824 C12.264,54.824 0.177,42.736 0.177,27.824 C0.177,12.911 12.264,0.824 27.177,0.824 C42.09,0.824 54.177,12.911 54.177,27.824"/>
    <path fill="#404040" d="M69.536 21.552C70.516 21.552 71.272 21.264 71.805 20.686 72.338 20.109 72.606 19.288 72.606 18.221L72.606 7.441 77.484 7.441 77.484 18.194C77.484 20.555 76.793 22.383 75.411 23.677 74.031 24.971 72.072 25.617 69.536 25.617 67.001 25.617 65.042 24.971 63.661 23.677 62.28 22.383 61.589 20.555 61.589 18.194L61.589 7.441 66.468 7.441 66.468 18.221C66.468 19.288 66.735 20.109 67.268 20.686 67.801 21.264 68.557 21.552 69.536 21.552M87.24 25.617C85.789 25.617 84.399 25.368 83.071 24.87 81.741 24.371 80.587 23.659 79.609 22.732L81.969 19.768C82.668 20.397 83.454 20.892 84.329 21.25 85.203 21.608 86.165 21.788 87.214 21.788 87.913 21.788 88.464 21.666 88.866 21.421 89.269 21.176 89.47 20.808 89.47 20.319 89.47 19.847 89.235 19.467 88.762 19.179 88.29 18.889 87.459 18.588 86.271 18.273L85.169 17.984C83.56 17.565 82.336 16.923 81.496 16.056 80.657 15.191 80.237 14.095 80.237 12.765 80.237 11.629 80.534 10.632 81.129 9.775 81.724 8.919 82.546 8.259 83.595 7.795 84.644 7.332 85.86 7.099 87.24 7.099 88.605 7.099 89.907 7.349 91.149 7.847 92.39 8.346 93.491 9.023 94.453 9.88L92.014 12.949C91.385 12.407 90.646 11.934 89.798 11.532 88.949 11.131 88.107 10.93 87.267 10.93 86.568 10.93 86.03 11.048 85.654 11.283 85.278 11.519 85.09 11.865 85.09 12.319 85.09 12.739 85.286 13.102 85.68 13.408 86.073 13.714 86.751 13.998 87.713 14.261L89.05 14.628C90.974 15.152 92.333 15.869 93.129 16.778 93.924 17.687 94.322 18.745 94.322 19.952 94.322 21.089 94.03 22.081 93.444 22.929 92.858 23.777 92.031 24.437 90.965 24.909 89.899 25.381 88.657 25.617 87.24 25.617M102.48 18.326L106.702 18.326 104.605 12.083 102.48 18.326zM109.063 25.276L107.936 21.945 101.247 21.945 100.119 25.276 95.293 25.276 101.824 7.441 107.489 7.441 114.021 25.276 109.063 25.276 109.063 25.276z"/>
    <polyline fill="#404040" points="125.219 25.276 125.219 11.375 119.921 11.375 119.921 7.441 135.396 7.441 135.396 11.375 130.098 11.375 130.098 25.276 125.219 25.276"/>
    <path fill="#404040" d="M145.599 21.578C146.455 21.578 147.202 21.359 147.841 20.923 148.48 20.485 148.982 19.878 149.349 19.099 149.716 18.321 149.901 17.417 149.901 16.385 149.901 15.353 149.716 14.444 149.349 13.657 148.982 12.87 148.48 12.254 147.841 11.807 147.202 11.362 146.455 11.139 145.599 11.139 144.741 11.139 143.994 11.362 143.356 11.807 142.718 12.254 142.215 12.87 141.848 13.657 141.481 14.444 141.297 15.353 141.297 16.385 141.297 17.417 141.481 18.321 141.848 19.099 142.215 19.878 142.718 20.485 143.356 20.923 143.994 21.359 144.741 21.578 145.599 21.578zM145.599 25.617C143.815 25.617 142.229 25.223 140.838 24.437 139.448 23.65 138.351 22.561 137.546 21.172 136.742 19.781 136.34 18.186 136.34 16.385 136.34 15.02 136.567 13.775 137.022 12.647 137.477 11.519 138.123 10.54 138.963 9.71 139.802 8.88 140.781 8.236 141.901 7.782 143.019 7.327 144.252 7.099 145.599 7.099 146.945 7.099 148.178 7.327 149.297 7.782 150.415 8.236 151.395 8.88 152.235 9.71 153.073 10.54 153.721 11.519 154.175 12.647 154.63 13.775 154.858 15.02 154.858 16.385 154.858 18.186 154.455 19.781 153.651 21.172 152.846 22.561 151.749 23.65 150.36 24.437 148.969 25.223 147.382 25.617 145.599 25.617L145.599 25.617zM162.463 21.421L164.693 21.421C165.969 21.421 166.979 20.958 167.722 20.03 168.465 19.104 168.837 17.88 168.837 16.358 168.837 14.837 168.465 13.613 167.722 12.686 166.979 11.76 165.969 11.297 164.693 11.297L162.463 11.297 162.463 21.421zM157.663 25.276L157.663 7.441 164.693 7.441C166.459 7.441 168.02 7.821 169.374 8.582 170.73 9.343 171.792 10.391 172.562 11.729 173.33 13.067 173.715 14.61 173.715 16.358 173.715 18.107 173.33 19.65 172.562 20.988 171.792 22.325 170.73 23.375 169.374 24.136 168.02 24.896 166.459 25.276 164.693 25.276L157.663 25.276 157.663 25.276zM181.531 18.326L185.754 18.326 183.656 12.083 181.531 18.326zM188.114 25.276L186.988 21.945 180.299 21.945 179.171 25.276 174.345 25.276 180.876 7.441 186.541 7.441 193.072 25.276 188.114 25.276 188.114 25.276z"/>
    <polyline fill="#404040" points="202.514 18.85 202.514 25.276 197.556 25.276 197.556 18.85 191.236 7.441 196.743 7.441 200.048 14.522 203.326 7.441 208.834 7.441 202.514 18.85"/>
    <polyline fill="#404040" points="227.797 25.276 220.794 14.995 220.794 25.276 216.309 25.276 216.309 7.441 220.768 7.441 227.744 17.906 227.744 7.441 232.256 7.441 232.256 25.276 227.797 25.276"/>
    <polyline fill="#404040" points="236.191 25.276 236.191 7.441 248.492 7.441 248.492 11.348 240.965 11.348 240.965 14.365 247.653 14.365 247.653 18.273 240.965 18.273 240.965 21.368 248.912 21.368 248.912 25.276 236.191 25.276"/>
    <polyline fill="#404040" points="255.914 25.276 255.914 11.375 250.616 11.375 250.616 7.441 266.091 7.441 266.091 11.375 260.793 11.375 260.793 25.276 255.914 25.276"/>
    <polyline fill="#404040" points="282.562 25.276 279.677 13.683 276.791 25.276 271.624 25.276 267.192 7.441 271.913 7.441 274.614 19.611 277.605 7.441 281.775 7.441 284.738 19.532 287.519 7.441 292.161 7.441 287.729 25.276 282.562 25.276"/>
    <path fill="#404040" d="M302.548 21.578C303.405 21.578 304.152 21.359 304.79 20.923 305.429 20.485 305.931 19.878 306.298 19.099 306.665 18.321 306.85 17.417 306.85 16.385 306.85 15.353 306.665 14.444 306.298 13.657 305.931 12.87 305.429 12.254 304.79 11.807 304.152 11.362 303.405 11.139 302.548 11.139 301.691 11.139 300.944 11.362 300.305 11.807 299.667 12.254 299.164 12.87 298.797 13.657 298.43 14.444 298.246 15.353 298.246 16.385 298.246 17.417 298.43 18.321 298.797 19.099 299.164 19.878 299.667 20.485 300.305 20.923 300.944 21.359 301.691 21.578 302.548 21.578zM302.548 25.617C300.764 25.617 299.178 25.223 297.787 24.437 296.398 23.65 295.3 22.561 294.495 21.172 293.692 19.781 293.289 18.186 293.289 16.385 293.289 15.02 293.516 13.775 293.971 12.647 294.426 11.519 295.072 10.54 295.912 9.71 296.751 8.88 297.731 8.236 298.85 7.782 299.968 7.327 301.201 7.099 302.548 7.099 303.894 7.099 305.127 7.327 306.246 7.782 307.364 8.236 308.344 8.88 309.184 9.71 310.023 10.54 310.67 11.519 311.124 12.647 311.579 13.775 311.807 15.02 311.807 16.385 311.807 18.186 311.405 19.781 310.6 21.172 309.795 22.561 308.698 23.65 307.309 24.437 305.918 25.223 304.331 25.617 302.548 25.617L302.548 25.617zM319.387 15.65L322.01 15.65C322.761 15.65 323.356 15.454 323.793 15.06 324.23 14.667 324.448 14.129 324.448 13.447 324.448 12.801 324.23 12.28 323.793 11.887 323.356 11.493 322.761 11.297 322.01 11.297L319.387 11.297 319.387 15.65zM319.387 19.348L319.387 25.276 314.665 25.276 314.665 7.441 322.534 7.441C324.632 7.441 326.293 7.978 327.518 9.054 328.741 10.129 329.354 11.594 329.354 13.447 329.354 14.653 329.082 15.694 328.54 16.568 327.998 17.443 327.238 18.125 326.259 18.614L329.905 25.276 324.711 25.276 321.747 19.348 319.387 19.348 319.387 19.348z"/>
    <polyline fill="#404040" points="343.044 25.276 337.379 16.556 337.379 25.276 332.527 25.276 332.527 7.441 337.379 7.441 337.379 15.27 343.254 7.441 348.867 7.441 342.258 15.638 348.737 25.276 343.044 25.276"/>
    <path class='no-color-change' fill="#009BFF" d="M69.221,48.471 C67.77,48.471 66.379,48.222 65.051,47.723 C63.722,47.224 62.568,46.513 61.589,45.586 L63.949,42.622 C64.649,43.251 65.435,43.746 66.31,44.103 C67.184,44.462 68.146,44.641 69.195,44.641 C69.894,44.641 70.445,44.519 70.847,44.274 C71.249,44.029 71.451,43.662 71.451,43.173 C71.451,42.7 71.215,42.32 70.742,42.032 C70.271,41.743 69.44,41.441 68.251,41.127 L67.15,40.838 C65.54,40.419 64.317,39.776 63.477,38.91 C62.638,38.045 62.218,36.948 62.218,35.619 C62.218,34.482 62.515,33.485 63.11,32.629 C63.704,31.772 64.527,31.112 65.575,30.648 C66.624,30.185 67.84,29.953 69.221,29.953 C70.585,29.953 71.888,30.203 73.129,30.701 C74.37,31.199 75.472,31.877 76.434,32.733 L73.994,35.803 C73.366,35.261 72.626,34.788 71.779,34.386 C70.93,33.984 70.087,33.783 69.247,33.783 C68.548,33.783 68.01,33.901 67.634,34.137 C67.258,34.373 67.071,34.719 67.071,35.173 C67.071,35.593 67.267,35.956 67.66,36.262 C68.054,36.567 68.732,36.851 69.694,37.114 L71.031,37.481 C72.954,38.006 74.314,38.722 75.11,39.632 C75.905,40.541 76.303,41.598 76.303,42.805 C76.303,43.942 76.01,44.934 75.424,45.782 C74.838,46.631 74.012,47.291 72.946,47.763 C71.879,48.234 70.638,48.471 69.221,48.471"/>
    <polyline class='no-color-change' fill="#009BFF" points="83.175 48.13 83.175 34.228 77.877 34.228 77.877 30.295 93.352 30.295 93.352 34.228 88.054 34.228 88.054 48.13 83.175 48.13"/>
    <path class='no-color-change' fill="#009BFF" d="M110.373,48.471 C108.555,48.471 106.959,48.077 105.587,47.291 C104.214,46.504 103.139,45.415 102.361,44.025 C101.582,42.635 101.194,41.021 101.194,39.185 C101.194,37.349 101.582,35.741 102.361,34.36 C103.139,32.978 104.214,31.898 105.587,31.121 C106.959,30.343 108.555,29.953 110.373,29.953 C111.912,29.953 113.298,30.264 114.531,30.885 C115.764,31.506 116.817,32.401 117.692,33.573 L113.835,35.854 C113.381,35.278 112.869,34.823 112.301,34.491 C111.733,34.159 111.073,33.993 110.321,33.993 C109.079,33.993 108.074,34.461 107.305,35.395 C106.535,36.331 106.151,37.595 106.151,39.185 C106.151,40.777 106.535,42.05 107.305,43.002 C108.074,43.955 109.079,44.431 110.321,44.431 C111.09,44.431 111.773,44.244 112.366,43.868 C112.961,43.492 113.459,43.051 113.862,42.543 L117.692,44.825 C116.834,46.014 115.781,46.919 114.531,47.54 C113.281,48.16 111.895,48.471 110.373,48.471"/>
    <polyline class='no-color-change' fill="#009BFF" points="125.061 44.195 132.484 44.195 132.484 48.13 120.182 48.13 120.182 30.295 125.061 30.295 125.061 44.195"/>
    <path class='no-color-change' fill="#009BFF" d="M142.766 44.431C143.622 44.431 144.369 44.213 145.008 43.776 145.647 43.339 146.149 42.731 146.516 41.953 146.883 41.175 147.068 40.27 147.068 39.238 147.068 38.207 146.883 37.298 146.516 36.511 146.149 35.723 145.647 35.107 145.008 34.661 144.369 34.216 143.622 33.993 142.766 33.993 141.908 33.993 141.161 34.216 140.523 34.661 139.885 35.107 139.382 35.723 139.015 36.511 138.648 37.298 138.464 38.207 138.464 39.238 138.464 40.27 138.648 41.175 139.015 41.953 139.382 42.731 139.885 43.339 140.523 43.776 141.161 44.213 141.908 44.431 142.766 44.431zM142.766 48.471C140.982 48.471 139.396 48.077 138.005 47.291 136.615 46.504 135.518 45.415 134.713 44.025 133.909 42.635 133.507 41.04 133.507 39.238 133.507 37.874 133.734 36.629 134.189 35.501 134.644 34.373 135.29 33.393 136.13 32.563 136.969 31.733 137.949 31.09 139.068 30.636 140.186 30.18 141.419 29.953 142.766 29.953 144.112 29.953 145.345 30.18 146.464 30.636 147.582 31.09 148.562 31.733 149.402 32.563 150.24 33.393 150.888 34.373 151.342 35.501 151.797 36.629 152.025 37.874 152.025 39.238 152.025 41.04 151.622 42.635 150.818 44.025 150.013 45.415 148.916 46.504 147.527 47.291 146.136 48.077 144.549 48.471 142.766 48.471L142.766 48.471zM162.541 44.405C163.521 44.405 164.277 44.117 164.81 43.54 165.343 42.963 165.611 42.141 165.611 41.074L165.611 30.295 170.489 30.295 170.489 41.048C170.489 43.409 169.798 45.236 168.416 46.53 167.035 47.824 165.076 48.471 162.541 48.471 160.006 48.471 158.047 47.824 156.666 46.53 155.284 45.236 154.594 43.409 154.594 41.048L154.594 30.295 159.473 30.295 159.473 41.074C159.473 42.141 159.74 42.963 160.273 43.54 160.806 44.117 161.562 44.405 162.541 44.405M178.881 44.274L181.111 44.274C182.387 44.274 183.397 43.811 184.14 42.884 184.883 41.958 185.255 40.733 185.255 39.212 185.255 37.69 184.883 36.467 184.14 35.54 183.397 34.613 182.387 34.15 181.111 34.15L178.881 34.15 178.881 44.274zM174.081 48.13L174.081 30.295 181.111 30.295C182.877 30.295 184.438 30.675 185.792 31.435 187.148 32.196 188.21 33.245 188.98 34.583 189.748 35.921 190.133 37.464 190.133 39.212 190.133 40.961 189.748 42.504 188.98 43.842 188.21 45.179 187.148 46.228 185.792 46.989 184.438 47.75 182.877 48.13 181.111 48.13L174.081 48.13 174.081 48.13z"/>
  </g>
</svg>
