<svg xmlns="http://www.w3.org/2000/svg" xmlns:xlink="http://www.w3.org/1999/xlink" width="720" height="170" viewBox="0 0 720 170">
  <defs>
    <style>
      .cls-1 {
        filter: url(#filter);
      }

      .cls-2, .cls-3 {
        fill: #fff;
        fill-rule: evenodd;
      }

      .cls-2 {
        filter: url(#filter-2);
      }
    </style>
    <filter id="filter" filterUnits="userSpaceOnUse">
      <feFlood result="flood" flood-color="#333"/>
      <feComposite result="composite" operator="in" in2="SourceGraphic"/>
      <feBlend result="blend" in2="SourceGraphic"/>
    </filter>
    <filter id="filter-2" x="352" y="153.969" width="367.969" height="16" filterUnits="userSpaceOnUse">
      <feFlood result="flood" flood-color="#999"/>
      <feComposite result="composite" operator="in" in2="SourceGraphic"/>
      <feBlend result="blend" in2="SourceGraphic"/>
    </filter>
  </defs>
  <g id="St_Cloud" data-name="St Cloud" class="cls-1">
    <path id="USAT_Network" data-name="USAT Network" class="cls-2" d="M351.989,154.273h4.489c3.156,0,5.267,1.865,5.267,4.74s-2.155,4.736-5.267,4.736h-2.29v5.925h-2.2v-15.4Zm4.267,7.659c2.112,0,3.244-1.163,3.244-2.919,0-1.735-1.132-2.918-3.244-2.918h-2.068v5.837h2.068Zm11.768-7.659h1.956l6.4,15.4h-2.358l-1.6-4.035h-6.911l-1.6,4.035H361.6S367.244,156.162,368.024,154.273Zm3.665,9.544-1.488-3.794c-0.221-.572-1.179-2.942-1.2-3.139h-0.043c-0.022.2-.955,2.5-1.2,3.139l-1.51,3.794h5.443Zm6.924-9.544h4.51c2.91,0,5.178,1.5,5.178,4.563a4.293,4.293,0,0,1-3.955,4.346l4.778,6.492h-2.579l-4.51-6.276h-1.223v6.276h-2.2v-15.4Zm4.267,7.351c2.043,0,3.2-1.077,3.2-2.764s-1.157-2.765-3.2-2.765h-2.068v5.529h2.068Zm11.522-5.486h-4.445v-1.865h11.089v1.865H396.6v13.536h-2.2V156.138Zm12.347,5.838a8.2,8.2,0,1,1,8.2,8A7.862,7.862,0,0,1,406.749,161.976Zm14.133,0a5.946,5.946,0,1,0-5.955,6.053A5.772,5.772,0,0,0,420.882,161.976Zm5.433-7.7h7.867v1.865h-5.668V161.1H434v1.865h-5.49v6.713h-2.2v-15.4Zm17.815,1.865h-4.444v-1.865h11.088v1.865H446.33v13.536h-2.2V156.138Zm8.953-1.865h2.2v6.318h8.178v-6.318h2.2v15.4h-2.2v-7.218h-8.178v7.218h-2.2v-15.4Zm16.631,0h8.49v1.846h-6.29v4.472h6.11v1.846h-6.11v5.395h6.422v1.842h-8.622v-15.4Zm16,10.092V154.273h2.221v9.433c0,2.679,1.157,4.323,3.756,4.323,2.622,0,3.78-1.644,3.78-4.323v-9.433h2.221v10.092c0,3.38-2.2,5.616-6,5.616C487.865,169.981,485.71,167.745,485.71,164.365Zm14.274,2.524,1.491-1.25a4.52,4.52,0,0,0,3.911,2.433c1.709,0,3.044-.918,3.044-2.611,0-1.817-1.534-2.433-3.446-3.178-1.956-.769-3.933-1.736-3.933-4.193,0-2.432,1.912-4.12,4.712-4.12a5.249,5.249,0,0,1,4.579,2.322l-1.491,1.25a3.552,3.552,0,0,0-3.088-1.668c-1.512,0-2.511.769-2.511,2.063,0,1.6,1.554,2.13,2.911,2.654,2.2,0.856,4.466,1.889,4.466,4.716,0,2.679-2,4.674-5.2,4.674A6.064,6.064,0,0,1,499.984,166.889Zm18.241-12.616h1.956l6.4,15.4h-2.357l-1.6-4.035h-6.912l-1.6,4.035H511.8S517.446,156.162,518.225,154.273Zm3.665,9.544-1.487-3.794c-0.222-.572-1.179-2.942-1.2-3.139h-0.044c-0.022.2-.955,2.5-1.2,3.139l-1.51,3.794h5.443Zm13.978-7.679h-4.445v-1.865h11.088v1.865h-4.444v13.536h-2.2V156.138Zm7.469,5.838a8.2,8.2,0,1,1,8.2,8A7.861,7.861,0,0,1,543.337,161.976Zm14.132,0a5.945,5.945,0,1,0-5.954,6.053A5.772,5.772,0,0,0,557.469,161.976Zm5.434-7.7h4.423c4.977,0,8.265,2.808,8.265,7.7,0,4.87-3.312,7.7-8.265,7.7H562.9v-15.4Zm2.2,13.534h2.046c3.643,0,6.176-1.9,6.176-5.831s-2.533-5.838-6.176-5.838H565.1v11.669Zm17.637-13.534H584.7l6.4,15.4h-2.357l-1.6-4.035h-6.912l-1.6,4.035h-2.311S581.96,156.162,582.739,154.273Zm3.666,9.544-1.489-3.794c-0.221-.572-1.178-2.942-1.2-3.139h-0.044c-0.022.2-.955,2.5-1.2,3.139l-1.51,3.794h5.444Zm9.084-.419-5.312-9.125h2.467l2.889,5.135a22.887,22.887,0,0,1,1.11,2.192h0.022a23.153,23.153,0,0,1,1.113-2.192l2.91-5.135h2.4l-5.309,9.125v6.276h-2.289V163.4Zm14.062-9.125h1.687l8.846,9.982c0.266,0.288,1.422,1.711,1.534,1.932l0.044-.023c-0.044-.217-0.044-2-0.044-2.39v-9.5h2.134v15.4h-1.713l-8.845-9.983c-0.265-.283-1.422-1.711-1.532-1.928l-0.021.02c0.021,0.221.043,2,.043,2.394v9.5h-2.133v-15.4Zm18.253,0h8.487v1.846H630v4.472h6.113v1.846H630v5.395h6.422v1.842H627.8v-15.4Zm15.37,1.865h-4.445v-1.865h11.089v1.865h-4.445v13.536h-2.2V156.138Zm8.478-1.865h2.333l3.2,9.15c0.112,0.351.867,2.63,0.889,2.981h0.046a30.445,30.445,0,0,1,.933-2.981l3.334-9.15h1.756l3.331,9.15c0.134,0.351.911,2.63,0.936,2.981h0.044c0.044-.351.8-2.63,0.91-2.981l3.179-9.15h2.243l-5.49,15.4h-1.688l-3.6-9.607a25.578,25.578,0,0,1-.758-2.5h-0.044a25.421,25.421,0,0,1-.776,2.5l-3.578,9.607h-1.69Zm24.117,7.7a8.2,8.2,0,1,1,8.2,8A7.862,7.862,0,0,1,675.769,161.976Zm14.133,0a5.946,5.946,0,1,0-5.954,6.053A5.772,5.772,0,0,0,689.9,161.976Zm5.433-7.7h4.511c2.913,0,5.177,1.5,5.177,4.563a4.293,4.293,0,0,1-3.955,4.346l4.779,6.492h-2.579l-4.511-6.276h-1.223v6.276h-2.2v-15.4Zm4.267,7.351c2.044,0,3.2-1.077,3.2-2.764s-1.156-2.765-3.2-2.765h-2.068v5.529H699.6Zm8.736-7.351h2.2v7.154l6.444-7.154h2.666l-6.687,7.351,7,8.05h-2.755l-6.667-7.785v7.785h-2.2v-15.4Z"/>
    <path id="SC_Times_Logo_pixel_hinted_2x" data-name="SC Times Logo pixel hinted @2x" class="cls-3" d="M0.038,119.541l16.047-19.365c6.532,9.584,17.353,18.779,31.723,18.779,11.942,0,20.152-6.259,20.152-17.607,0-12.713-10.637-16.626-25.751-22.1C24.669,72.792,8.061,63.6,8.061,40.319c0-24.06,17.914-40.3,45.905-40.3,19.593,0,33.027,8.02,41.052,18L79.531,37.384c-5.971-7.431-14-13.5-25.751-13.5-11.2,0-17.355,5.476-17.355,13.888,0,11.347,11.943,14.477,22.766,18.584,20.9,7.823,37.321,17.6,37.321,42.25,0,25.43-17.353,44.208-47.77,44.208C25.6,142.818,8.434,131.865.038,119.541Zm105.8-48.122c0-41.664,27.99-71.4,69.042-71.4,15.675,0,27.322,4.207,34.6,9.292V37.263c-7.464-6.845-18.737-11.03-32.733-11.03-24.817,0-41.8,17.8-41.8,45.186s16.8,45.19,41.8,45.19c14,0,26.635-4.76,34.284-12.583v29.5c-7.277,5.279-20.288,9.292-36.15,9.292C133.458,142.818,105.842,113.281,105.842,71.419ZM257.586,27.947H221.9V3.105h97.758V27.947H283.966v111.79h-26.38V27.947Zm70.133-10.906a16.141,16.141,0,0,1,32.281,0A16.141,16.141,0,0,1,327.719,17.042Zm2.8,26.432H356.9v96.263h-26.38V43.474Zm43.449,0L399,43.449v13.1h0.374c5.784-8.606,13.809-15.451,28.737-15.451,14.555,0,24.631,6.651,30.043,17.6,5.784-9.195,15.3-17.6,32.282-17.6,23.324,0,35.6,17.112,35.6,44.292v54.342H498.1l0.358-52.277c0-13.5-3.546-23.669-16.608-23.669S462.414,74.612,462.414,88.5v51.237h-26.38l0.1-52.277c0-13.5-3.731-23.669-16.793-23.669s-18.848,9.978-18.848,23.866l-0.149,52.08H373.966V43.474ZM538.209,91.764c0-22.494,13.062-50.662,49.45-50.662s48.516,28.168,48.516,49.879c0,2.544.405,4.88,0.032,6.834H564.828c1.306,15.257,13.874,22.7,27.31,22.7,12.316,0,20.339-5.476,25-12.321l14.928,16.04c-7.651,10.758-21.645,18.19-41.239,18.19C554.63,142.427,538.209,116.8,538.209,91.764Zm71.619-9.475c-2.612-13.3-11.346-20.648-22.169-20.648S567.44,68.987,564.828,82.29h45Zm32.321,43.316,12.877-16.238c5.6,7.043,14.18,12.519,24.63,12.519,8.585,0,14-3.521,14-9.781,0-7.822-8.4-9.191-18.474-12.127C660.81,95.677,647,88.243,647,71.031,647,52.252,663.422,41.1,685.255,41.1c16.98,0,27.43,6.651,33.029,12.519L705.407,70.248a26.387,26.387,0,0,0-19.78-8.606c-8.209,0-12.314,3.324-12.314,7.823,0,6.454,8.4,7.826,16.606,10.367,15.3,4.7,30.043,11.739,30.043,30.321,0,19.756-16.606,32.275-39.932,32.275C661.929,142.427,648.867,134.8,642.149,125.606Z"/>
  </g>
</svg>
