<svg xmlns="http://www.w3.org/2000/svg" xmlns:xlink="http://www.w3.org/1999/xlink" preserveAspectRatio="xMidYMid" width="206" height="60" viewBox="0 0 206 60">
  <defs>
    <style>
      .cls-1 {
        fill-rule: evenodd;
      }
    </style>
  </defs>
  <path d="M194.927,27.123 C192.597,27.123 191.432,28.101 191.432,29.424 C191.432,31.323 193.815,31.727 196.145,32.474 C200.489,33.855 204.673,35.927 204.673,41.393 C204.673,47.204 199.959,50.887 193.338,50.887 C188.201,50.887 184.493,48.643 182.586,45.939 L186.241,41.163 C187.830,43.234 190.266,44.845 193.232,44.845 C195.669,44.845 197.205,43.809 197.205,41.968 C197.205,39.667 194.821,39.264 191.961,38.401 C187.883,37.135 183.963,34.948 183.963,29.885 C183.963,24.361 188.624,21.081 194.821,21.081 C199.641,21.081 202.607,23.038 204.196,24.764 L200.542,29.655 C199.323,28.216 197.311,27.123 194.927,27.123 ZM160.711,37.826 C161.081,42.314 164.577,44.443 168.391,44.443 C171.886,44.443 174.164,42.832 175.488,40.818 L179.725,45.536 C177.554,48.701 173.581,50.887 168.020,50.887 C157.745,50.887 153.084,43.349 153.084,35.984 C153.084,29.367 156.791,21.081 167.120,21.081 C177.448,21.081 180.890,29.367 180.890,35.754 C180.890,36.502 180.838,37.251 180.732,37.826 L160.711,37.826 ZM167.120,27.123 C164.047,27.123 161.452,29.022 160.711,32.935 L173.475,32.935 C172.734,29.022 170.192,27.123 167.120,27.123 ZM141.801,34.718 C141.801,30.748 140.795,27.756 137.087,27.756 C133.380,27.756 131.737,30.691 131.737,34.776 L131.737,50.197 L124.110,50.197 L124.110,34.718 C124.110,30.748 123.051,27.756 119.344,27.756 C115.636,27.756 113.994,30.691 113.994,34.776 L113.994,50.197 L106.367,50.197 L106.367,21.772 L113.570,21.772 L113.570,25.627 L113.676,25.627 C115.318,23.095 117.596,21.081 121.833,21.081 C125.964,21.081 128.824,23.038 130.361,26.260 C132.003,23.555 134.704,21.081 139.524,21.081 C146.144,21.081 149.481,25.914 149.481,33.453 L149.481,50.197 L141.801,50.197 L141.801,34.718 ZM97.892,18.722 C95.350,18.722 93.337,16.708 93.337,14.004 C93.337,11.299 95.350,9.285 97.892,9.285 C100.487,9.285 102.500,11.299 102.500,14.004 C102.500,16.708 100.487,18.722 97.892,18.722 ZM81.260,50.197 L73.209,50.197 L73.209,17.053 L63.358,17.053 L63.358,9.803 L91.112,9.803 L91.112,17.053 L81.260,17.053 L81.260,50.197 ZM49.956,51.002 C38.198,51.002 30.359,42.314 30.359,30.000 C30.359,17.744 38.304,8.998 49.956,8.998 C54.405,8.998 57.636,10.149 59.702,11.644 L59.702,20.103 C57.583,18.089 54.458,16.708 50.486,16.708 C43.442,16.708 38.621,21.944 38.621,30.000 C38.621,38.056 43.389,43.292 50.486,43.292 C54.458,43.292 57.954,42.083 60.125,39.782 L60.125,48.183 C58.060,49.736 54.458,51.002 49.956,51.002 ZM27.710,37.998 C27.710,45.478 22.785,51.002 14.151,51.002 C7.584,51.002 2.711,47.780 0.327,44.155 L4.882,38.459 C6.736,41.278 9.808,43.983 13.886,43.983 C17.276,43.983 19.606,42.141 19.606,38.803 C19.606,35.064 16.587,33.913 12.297,32.302 C7.318,30.403 2.605,27.698 2.605,20.851 C2.605,13.773 7.689,8.998 15.634,8.998 C21.196,8.998 25.009,11.357 27.287,14.291 L22.891,19.988 C21.196,17.802 18.918,16.017 15.581,16.017 C12.403,16.017 10.655,17.628 10.655,20.103 C10.655,23.441 14.045,24.361 17.117,25.570 C23.049,27.871 27.710,30.748 27.710,37.998 ZM101.759,50.197 L94.079,50.197 L94.079,21.772 L101.759,21.772 L101.759,50.197 Z" class="cls-1"/>
</svg>
