<svg id="stevenspointjournal" xmlns="http://www.w3.org/2000/svg" xmlns:xlink="http://www.w3.org/1999/xlink" width="751" height="160" viewBox="0 0 751 160">
  <defs>
    <style>
      .cls-1, .cls-2 {
        fill: #000;
        fill-rule: evenodd;
      }

      .cls-1 {
        filter: url(#filter);
      }
    </style>
    <filter id="filter" x="3" y="119.969" width="367.969" height="16" filterUnits="userSpaceOnUse">
      <feFlood result="flood" flood-color="#999"/>
      <feComposite result="composite" operator="in" in2="SourceGraphic"/>
      <feBlend result="blend" in2="SourceGraphic"/>
    </filter>
  </defs>
  <path id="USAT_Network" data-name="USAT Network" class="cls-1" d="M2.989,120.273H7.478c3.156,0,5.267,1.865,5.267,4.741s-2.155,4.735-5.267,4.735H5.188v5.925h-2.2v-15.4Zm4.267,7.659c2.112,0,3.244-1.163,3.244-2.918,0-1.736-1.132-2.919-3.244-2.919H5.188v5.837H7.256Zm11.768-7.659H20.98l6.4,15.4H25.022l-1.6-4.035H16.513l-1.6,4.035H12.6S18.244,122.162,19.024,120.273Zm3.665,9.544L21.2,126.023c-0.221-.572-1.179-2.942-1.2-3.139H19.957c-0.022.2-.955,2.5-1.2,3.139l-1.51,3.794h5.443Zm6.924-9.544h4.51c2.91,0,5.178,1.5,5.178,4.563a4.293,4.293,0,0,1-3.955,4.346l4.778,6.492H37.545l-4.51-6.276H31.812v6.276h-2.2v-15.4Zm4.267,7.351c2.043,0,3.2-1.077,3.2-2.764s-1.157-2.765-3.2-2.765H31.812v5.529H33.88ZM45.4,122.138H40.957v-1.865H52.046v1.865H47.6v13.536H45.4V122.138Zm12.348,5.838a7.862,7.862,0,0,1,8.2-8.006,8.008,8.008,0,1,1,0,16.011A7.861,7.861,0,0,1,57.75,127.976Zm14.133,0a5.946,5.946,0,1,0-5.955,6.053A5.773,5.773,0,0,0,71.882,127.976Zm5.433-7.7h7.867v1.865H79.514V127.1H85v1.865H79.514v6.713h-2.2v-15.4Zm17.815,1.865H90.686v-1.865h11.088v1.865H97.33v13.536h-2.2V122.138Zm8.953-1.865h2.2v6.318h8.178v-6.318h2.2v15.4h-2.2v-7.218h-8.178v7.218h-2.2v-15.4Zm16.631,0h8.49v1.846h-6.29v4.472h6.11v1.846h-6.11v5.395h6.422v1.842h-8.622v-15.4Zm16,10.092V120.273h2.221v9.433c0,2.679,1.157,4.323,3.756,4.323,2.622,0,3.78-1.644,3.78-4.323v-9.433h2.221v10.092c0,3.38-2.2,5.616-6,5.616C138.865,135.981,136.71,133.745,136.71,130.365Zm14.274,2.524,1.491-1.25a4.52,4.52,0,0,0,3.911,2.433c1.709,0,3.044-.918,3.044-2.611,0-1.817-1.534-2.433-3.446-3.178-1.956-.769-3.933-1.736-3.933-4.193,0-2.432,1.912-4.12,4.712-4.12a5.248,5.248,0,0,1,4.579,2.322l-1.491,1.25a3.552,3.552,0,0,0-3.088-1.668c-1.512,0-2.511.769-2.511,2.063,0,1.6,1.554,2.13,2.911,2.654,2.2,0.856,4.466,1.889,4.466,4.716,0,2.679-2,4.674-5.2,4.674A6.064,6.064,0,0,1,150.984,132.889Zm18.241-12.616h1.956l6.4,15.4h-2.357l-1.6-4.035h-6.912l-1.6,4.035H162.8S168.446,122.162,169.225,120.273Zm3.665,9.544-1.487-3.794c-0.222-.572-1.179-2.942-1.2-3.139h-0.044c-0.022.2-.955,2.5-1.2,3.139l-1.51,3.794h5.443Zm13.978-7.679h-4.445v-1.865h11.088v1.865h-4.444v13.536h-2.2V122.138Zm7.469,5.838a8.2,8.2,0,1,1,8.2,8A7.861,7.861,0,0,1,194.337,127.976Zm14.132,0a5.945,5.945,0,1,0-5.954,6.053A5.772,5.772,0,0,0,208.469,127.976Zm5.434-7.7h4.423c4.977,0,8.265,2.808,8.265,7.7,0,4.87-3.312,7.7-8.265,7.7H213.9v-15.4Zm2.2,13.534h2.046c3.643,0,6.176-1.9,6.176-5.831s-2.533-5.838-6.176-5.838H216.1v11.669Zm17.637-13.534H235.7l6.4,15.4h-2.357l-1.6-4.035h-6.912l-1.6,4.035h-2.311S232.96,122.162,233.739,120.273Zm3.666,9.544-1.489-3.794c-0.221-.572-1.178-2.942-1.2-3.139h-0.044c-0.022.2-.955,2.5-1.2,3.139l-1.51,3.794h5.444Zm9.084-.419-5.312-9.125h2.467l2.889,5.135a22.887,22.887,0,0,1,1.11,2.192h0.022a23.153,23.153,0,0,1,1.113-2.192l2.91-5.135h2.4l-5.309,9.125v6.276h-2.289V129.4Zm14.062-9.125h1.687l8.846,9.982c0.266,0.288,1.422,1.711,1.534,1.932l0.044-.023c-0.044-.217-0.044-2-0.044-2.39v-9.5h2.134v15.4h-1.713l-8.845-9.983c-0.265-.283-1.422-1.711-1.532-1.928l-0.021.02c0.021,0.221.043,2,.043,2.394v9.5h-2.133v-15.4Zm18.253,0h8.487v1.846H281v4.472h6.113v1.846H281v5.395h6.422v1.842H278.8v-15.4Zm15.37,1.865h-4.445v-1.865h11.089v1.865h-4.445v13.536h-2.2V122.138Zm8.478-1.865h2.333l3.2,9.15c0.112,0.351.867,2.63,0.889,2.981h0.046a30.445,30.445,0,0,1,.933-2.981l3.334-9.15h1.756l3.332,9.15c0.133,0.351.91,2.63,0.935,2.981h0.044c0.044-.351.8-2.63,0.91-2.981l3.179-9.15h2.243l-5.49,15.4h-1.688l-3.6-9.607a25.578,25.578,0,0,1-.758-2.5h-0.044a25.693,25.693,0,0,1-.776,2.5l-3.578,9.607h-1.69Zm24.118,7.7a8.2,8.2,0,1,1,8.2,8A7.861,7.861,0,0,1,326.77,127.976Zm14.132,0a5.945,5.945,0,1,0-5.955,6.053A5.772,5.772,0,0,0,340.9,127.976Zm5.433-7.7h4.511c2.913,0,5.177,1.5,5.177,4.563a4.293,4.293,0,0,1-3.955,4.346l4.779,6.492h-2.579l-4.511-6.276h-1.222v6.276h-2.2v-15.4Zm4.267,7.351c2.044,0,3.2-1.077,3.2-2.764s-1.156-2.765-3.2-2.765h-2.067v5.529H350.6Zm8.736-7.351h2.2v7.154l6.444-7.154h2.666l-6.687,7.351,7,8.05h-2.754l-6.668-7.785v7.785h-2.2v-15.4Z"/>
  <path class="cls-2" d="M27.857,48.649l-3.7,3.832q-4.621-4.49-9.032-4.491a6.818,6.818,0,0,0-4.805,1.854,5.729,5.729,0,0,0-2,4.326,6.415,6.415,0,0,0,1.649,4.161q1.649,2.019,6.926,4.738,6.431,3.337,8.74,6.428A11.723,11.723,0,0,1,27.9,76.543,12.654,12.654,0,0,1,24.025,85.9a13.206,13.206,0,0,1-9.681,3.832,16.889,16.889,0,0,1-7.4-1.69,16.052,16.052,0,0,1-5.83-4.655l3.62-4.12q4.412,4.987,9.36,4.985a8.425,8.425,0,0,0,5.9-2.224,6.879,6.879,0,0,0,2.433-5.233,6.713,6.713,0,0,0-1.608-4.408q-1.608-1.895-7.255-4.779Q7.5,64.471,5.317,61.421a11.653,11.653,0,0,1-2.185-6.963,11.333,11.333,0,0,1,3.482-8.488,12.12,12.12,0,0,1,8.8-3.379Q21.593,42.592,27.857,48.649ZM41.139,27.1H46.9V43.746h9.132v4.986H46.9V88.574H41.139V48.731H33.282V43.746h7.857V27.1Zm59.275,46.6,4.854,2.554a26.515,26.515,0,0,1-5.517,7.581,21.92,21.92,0,0,1-7.041,4.387,24.532,24.532,0,0,1-8.853,1.5q-10.953,0-17.129-7.19a24.274,24.274,0,0,1-6.176-16.253,23.99,23.99,0,0,1,5.229-15.2,21.366,21.366,0,0,1,17.746-8.488q11.447,0,18.282,8.694,4.857,6.14,4.94,15.328H66.476a18.267,18.267,0,0,0,4.983,12.8,15.884,15.884,0,0,0,11.9,4.993,19.117,19.117,0,0,0,6.652-1.189,17.491,17.491,0,0,0,5.5-3.161A26.871,26.871,0,0,0,100.414,73.7Zm0-12.073a19.143,19.143,0,0,0-3.357-7.375,15.9,15.9,0,0,0-5.828-4.45,17.83,17.83,0,0,0-7.62-1.689,16.4,16.4,0,0,0-11.327,4.244q-3.46,3.09-5.231,9.27h33.362Zm10.9-17.882h6.13l15.024,32.678,14.842-32.678h6.17L132.991,88.574h-1.07ZM197.984,73.7l4.854,2.554a26.494,26.494,0,0,1-5.518,7.581,21.915,21.915,0,0,1-7.041,4.387,24.528,24.528,0,0,1-8.852,1.5q-10.954,0-17.13-7.19a24.276,24.276,0,0,1-6.176-16.253,23.991,23.991,0,0,1,5.229-15.2A21.367,21.367,0,0,1,181.1,42.592q11.448,0,18.282,8.694,4.858,6.14,4.941,15.328H164.045a18.267,18.267,0,0,0,4.983,12.8,15.885,15.885,0,0,0,11.9,4.993,19.12,19.12,0,0,0,6.652-1.189,17.488,17.488,0,0,0,5.5-3.161A26.9,26.9,0,0,0,197.984,73.7Zm0-12.073a19.155,19.155,0,0,0-3.358-7.375A15.9,15.9,0,0,0,188.8,49.8a17.825,17.825,0,0,0-7.619-1.689,16.4,16.4,0,0,0-11.327,4.244q-3.461,3.09-5.231,9.27h33.363Zm15.134-17.882h5.759V51.78a24.1,24.1,0,0,1,7.652-6.9,18.781,18.781,0,0,1,9.132-2.286,15.856,15.856,0,0,1,8.907,2.554,15.215,15.215,0,0,1,5.738,6.881q1.851,4.326,1.851,13.473V88.574H246.4V67.19q0-7.747-.641-10.342a11.367,11.367,0,0,0-3.84-6.7,11.587,11.587,0,0,0-7.405-2.245,14.193,14.193,0,0,0-9.361,3.461,16.212,16.212,0,0,0-5.451,8.57q-0.823,3.337-.823,12.2V88.574h-5.759V43.746Zm71.945,4.9-3.7,3.832q-4.62-4.49-9.032-4.491a6.818,6.818,0,0,0-4.8,1.854,5.727,5.727,0,0,0-2,4.326,6.415,6.415,0,0,0,1.648,4.161q1.648,2.019,6.926,4.738,6.431,3.337,8.74,6.428a11.724,11.724,0,0,1,2.267,7.045,12.653,12.653,0,0,1-3.873,9.352,13.208,13.208,0,0,1-9.681,3.832,16.889,16.889,0,0,1-7.4-1.69,16.051,16.051,0,0,1-5.829-4.655l3.62-4.12q4.411,4.987,9.36,4.985a8.426,8.426,0,0,0,5.9-2.224,6.877,6.877,0,0,0,2.433-5.233,6.71,6.71,0,0,0-1.608-4.408q-1.608-1.895-7.255-4.779-6.062-3.132-8.246-6.181a11.649,11.649,0,0,1-2.185-6.963,11.335,11.335,0,0,1,3.482-8.488,12.12,12.12,0,0,1,8.8-3.379Q278.8,42.592,285.063,48.649Zm8.346-4.9h5.76v8.24a23.125,23.125,0,0,1,7.849-7.045,20.842,20.842,0,0,1,9.9-2.349,22.079,22.079,0,0,1,16.314,6.881,22.743,22.743,0,0,1,6.781,16.563,23.167,23.167,0,0,1-6.719,16.79A22.6,22.6,0,0,1,307.264,87.5a24.729,24.729,0,0,1-8.1-6.633v24.1h-5.76V43.746Zm23.037,4.409a16.9,16.9,0,0,0-12.579,5.227,17.864,17.864,0,0,0-5.11,13,18.481,18.481,0,0,0,2.278,9.179,16.626,16.626,0,0,0,6.526,6.461,18.03,18.03,0,0,0,8.968,2.386A16.893,16.893,0,0,0,325.25,82a17.654,17.654,0,0,0,6.506-6.729,18.2,18.2,0,0,0,.019-18.108A17.337,17.337,0,0,0,316.446,48.154Zm53.6-5.562a22.151,22.151,0,0,1,17.143,7.5,24.1,24.1,0,0,1-.349,32.611,21.906,21.906,0,0,1-16.794,7.025q-10.3,0-16.834-7.025a24.043,24.043,0,0,1-.35-32.57A22.14,22.14,0,0,1,370.044,42.592Zm-0.02,5.645a16.6,16.6,0,0,0-12.344,5.315,17.78,17.78,0,0,0-5.16,12.855,18.239,18.239,0,0,0,2.354,9.065,16.655,16.655,0,0,0,6.356,6.489,18.052,18.052,0,0,0,17.587,0,16.678,16.678,0,0,0,6.357-6.489,18.26,18.26,0,0,0,2.354-9.065,17.744,17.744,0,0,0-5.182-12.855A16.623,16.623,0,0,0,370.024,48.237Zm34.057-22.95a4.561,4.561,0,0,1,3.358,1.4,4.621,4.621,0,0,1,1.393,3.379,4.77,4.77,0,0,1-4.751,4.738,4.517,4.517,0,0,1-3.318-1.4,4.57,4.57,0,0,1-1.392-3.337,4.62,4.62,0,0,1,1.392-3.379A4.519,4.519,0,0,1,404.081,25.287Zm-2.858,18.459h5.759V88.574h-5.759V43.746Zm15.791,0h5.76V51.78a24.092,24.092,0,0,1,7.651-6.9,18.788,18.788,0,0,1,9.133-2.286,15.853,15.853,0,0,1,8.906,2.554,15.217,15.217,0,0,1,5.739,6.881q1.851,4.326,1.851,13.473V88.574H450.3V67.19q0-7.747-.641-10.342a11.367,11.367,0,0,0-3.84-6.7,11.588,11.588,0,0,0-7.406-2.245,14.186,14.186,0,0,0-9.359,3.461,16.209,16.209,0,0,0-5.453,8.57q-0.823,3.337-.822,12.2V88.574h-5.76V43.746ZM471.477,27.1h5.759V43.746h9.132v4.986h-9.132V88.574h-5.759V48.731h-7.858V43.746h7.858V27.1ZM492.37,43.746h5.842V95.331q0,5.644-2.037,8.22a6.722,6.722,0,0,1-5.574,2.575,18.672,18.672,0,0,1-6.582-1.4V99.534a9.2,9.2,0,0,0,4.156,1.194,3.8,3.8,0,0,0,3.5-1.936q0.7-1.236.7-5.151v-49.9Zm2.839-18.459a4.527,4.527,0,0,1,3.352,1.4,4.642,4.642,0,0,1,1.378,3.379,4.592,4.592,0,0,1-1.378,3.337,4.712,4.712,0,0,1-6.7,0,4.588,4.588,0,0,1-1.378-3.337,4.638,4.638,0,0,1,1.378-3.379A4.528,4.528,0,0,1,495.209,25.287ZM529.43,42.592a22.154,22.154,0,0,1,17.144,7.5,24.1,24.1,0,0,1-.35,32.611,21.9,21.9,0,0,1-16.794,7.025q-10.3,0-16.833-7.025a24.041,24.041,0,0,1-.351-32.57A22.142,22.142,0,0,1,529.43,42.592Zm-0.02,5.645a16.6,16.6,0,0,0-12.343,5.315,17.776,17.776,0,0,0-5.16,12.855,18.238,18.238,0,0,0,2.353,9.065,16.671,16.671,0,0,0,6.357,6.489,18.05,18.05,0,0,0,17.586,0,16.687,16.687,0,0,0,6.358-6.489,18.259,18.259,0,0,0,2.353-9.065,17.739,17.739,0,0,0-5.181-12.855A16.624,16.624,0,0,0,529.41,48.237Zm31.321-4.491h5.76V64.676q0,7.664.824,10.548a11.744,11.744,0,0,0,4.717,6.51,14.3,14.3,0,0,0,8.3,2.39,14,14,0,0,0,8.177-2.328,11.906,11.906,0,0,0,4.635-6.118q0.864-2.6.865-11V43.746h5.883v22q0,9.27-2.16,13.967a16.5,16.5,0,0,1-6.5,7.355,20.5,20.5,0,0,1-10.881,2.658,20.724,20.724,0,0,1-10.921-2.658,16.369,16.369,0,0,1-6.541-7.416q-2.16-4.758-2.16-14.318V43.746Zm47.839,0h5.883V50.3a20.654,20.654,0,0,1,5.554-5.789,10.934,10.934,0,0,1,6.089-1.916,10.509,10.509,0,0,1,5.1,1.524l-3,4.862a8.009,8.009,0,0,0-3.044-.783,8.322,8.322,0,0,0-5.554,2.369,14.986,14.986,0,0,0-4.072,7.355q-1.071,3.832-1.07,15.492V88.574H608.57V43.746Zm27.352,0h5.759V51.78a24.1,24.1,0,0,1,7.652-6.9,18.781,18.781,0,0,1,9.132-2.286,15.858,15.858,0,0,1,8.907,2.554,15.215,15.215,0,0,1,5.738,6.881q1.851,4.326,1.852,13.473V88.574H669.2V67.19q0-7.747-.641-10.342a11.372,11.372,0,0,0-3.84-6.7,11.592,11.592,0,0,0-7.406-2.245,14.193,14.193,0,0,0-9.361,3.461,16.206,16.206,0,0,0-5.451,8.57q-0.823,3.337-.823,12.2V88.574h-5.759V43.746Zm94.036,0V88.574h-5.677v-7.7a24.7,24.7,0,0,1-8.124,6.633,22.669,22.669,0,0,1-26.081-4.676,23.154,23.154,0,0,1-6.727-16.79,22.737,22.737,0,0,1,6.788-16.563,22.116,22.116,0,0,1,16.332-6.881,21.085,21.085,0,0,1,9.975,2.349,22.713,22.713,0,0,1,7.837,7.045v-8.24h5.677Zm-23.016,4.409A17.359,17.359,0,0,0,691.6,57.168a18.2,18.2,0,0,0,.019,18.108A17.667,17.667,0,0,0,698.128,82a17,17,0,0,0,8.772,2.407,17.962,17.962,0,0,0,8.959-2.386,16.694,16.694,0,0,0,6.512-6.461,18.471,18.471,0,0,0,2.28-9.179,17.853,17.853,0,0,0-5.116-13A16.928,16.928,0,0,0,706.942,48.154Zm33.172-21.714h5.759V88.574h-5.759V26.441ZM623.667,127.827a3.274,3.274,0,0,1,2.4,1,3.461,3.461,0,0,1,0,4.857,3.367,3.367,0,0,1-4.809,0,3.464,3.464,0,0,1,0-4.857A3.274,3.274,0,0,1,623.667,127.827Zm39.285-17.766-3.066,1.91a12.837,12.837,0,0,0-10.847-5.287,12.538,12.538,0,0,0-9.12,3.539,11.554,11.554,0,0,0-3.629,8.6,12.216,12.216,0,0,0,1.67,6.192,11.713,11.713,0,0,0,4.581,4.506,13.839,13.839,0,0,0,17.345-3.683l3.066,2.02a14.5,14.5,0,0,1-5.788,5.044,18.472,18.472,0,0,1-8.275,1.792,16.331,16.331,0,0,1-11.825-4.539,14.775,14.775,0,0,1-4.7-11.042,15.791,15.791,0,0,1,2.2-8.121,15.468,15.468,0,0,1,6.036-5.853,17.6,17.6,0,0,1,8.594-2.1,18.353,18.353,0,0,1,5.759.913,16,16,0,0,1,4.712,2.381A12.9,12.9,0,0,1,662.952,110.061Zm20.361-7.03a14.88,14.88,0,0,1,11.515,5.037,16.186,16.186,0,0,1-.236,21.9,15.873,15.873,0,0,1-22.585,0,16.149,16.149,0,0,1-.235-21.876A14.867,14.867,0,0,1,683.313,103.031Zm-0.013,3.791a11.157,11.157,0,0,0-8.292,3.571,11.945,11.945,0,0,0-3.465,8.634,12.256,12.256,0,0,0,1.581,6.088,11.214,11.214,0,0,0,4.269,4.359,12.122,12.122,0,0,0,11.812,0,11.223,11.223,0,0,0,4.27-4.359,12.268,12.268,0,0,0,1.582-6.088,11.918,11.918,0,0,0-3.48-8.634A11.168,11.168,0,0,0,683.3,106.822Zm21.507-3.016h3.868v5.2a14.973,14.973,0,0,1,4.148-4.206,11.749,11.749,0,0,1,6.169-1.772,10.229,10.229,0,0,1,4.148.859,8.924,8.924,0,0,1,3.211,2.283,12.249,12.249,0,0,1,2.156,4.081,14.3,14.3,0,0,1,4.823-5.382,11.406,11.406,0,0,1,6.231-1.841,9.751,9.751,0,0,1,5.5,1.577,9.415,9.415,0,0,1,3.542,4.4,23.532,23.532,0,0,1,1.157,8.468v16.438h-3.95V117.477a21.531,21.531,0,0,0-.689-6.655,6,6,0,0,0-2.354-2.92,7.025,7.025,0,0,0-3.98-1.107,8.648,8.648,0,0,0-5.136,1.66,9.554,9.554,0,0,0-3.4,4.428q-1.074,2.767-1.074,9.243v11.789h-3.868V118.5a26.487,26.487,0,0,0-.677-7.4,6.2,6.2,0,0,0-2.361-3.128,6.829,6.829,0,0,0-4.007-1.176,8.636,8.636,0,0,0-5.015,1.619,9.582,9.582,0,0,0-3.453,4.358q-1.12,2.74-1.119,8.386v12.757h-3.868V103.806Z"/>
</svg>
