<svg xmlns="http://www.w3.org/2000/svg" width="480" height="47" viewBox="0 0 480 47">
  <g fill="none" fill-rule="evenodd">
    <path fill="#404040" d="M13.452 34.88C10.962 34.88 8.577 34.452 6.297 33.597 4.017 32.743 2.037 31.52.357 29.93L4.407 24.845C5.607 25.925 6.957 26.773 8.457 27.388 9.957 28.003 11.607 28.31 13.407 28.31 14.607 28.31 15.552 28.1 16.242 27.68 16.932 27.261 17.277 26.63 17.277 25.79 17.277 24.98 16.872 24.327 16.062 23.833 15.252 23.338 13.827 22.82 11.787 22.28L9.897 21.785C7.137 21.065 5.037 19.963 3.597 18.477 2.157 16.993 1.437 15.11 1.437 12.83 1.437 10.88 1.947 9.17 2.967 7.7 3.987 6.23 5.397 5.098 7.197 4.303 8.997 3.508 11.082 3.11 13.452 3.11 15.792 3.11 18.027 3.537 20.157 4.392 22.287 5.247 24.177 6.41 25.827 7.88L21.642 13.145C20.562 12.216 19.295 11.405 17.84 10.715 16.384 10.025 14.937 9.68 13.497 9.68 12.297 9.68 11.374 9.883 10.73 10.287 10.084 10.692 9.762 11.285 9.762 12.065 9.762 12.785 10.1 13.408 10.775 13.933 11.45 14.458 12.612 14.945 14.262 15.395L16.557 16.025C19.857 16.925 22.189 18.155 23.555 19.715 24.92 21.275 25.602 23.09 25.602 25.16 25.602 27.11 25.099 28.813 24.095 30.267 23.089 31.723 21.672 32.855 19.842 33.665 18.012 34.475 15.882 34.88 13.452 34.88M46.887 32.81C45.957 33.44 44.891 33.943 43.692 34.317 42.492 34.692 41.232 34.88 39.912 34.88 37.452 34.88 35.494 34.168 34.039 32.743 32.584 31.318 31.857 29.405 31.857 27.005L31.857 17.24 28.122 17.24 28.122 11.39 32.217 11.39 33.207 5 39.687 5 39.687 11.39 45.672 11.39 45.672 17.24 39.687 17.24 39.687 26.015C39.687 26.796 39.919 27.403 40.384 27.838 40.849 28.273 41.472 28.49 42.252 28.49 42.641 28.49 43.039 28.415 43.444 28.265 43.849 28.115 44.232 27.935 44.592 27.725L46.887 32.81M60.792 16.475C58.241 16.475 56.711 17.825 56.202 20.525L64.931 20.525C64.721 19.056 64.219 18.013 63.424 17.397 62.629 16.783 61.751 16.475 60.792 16.475zM71.502 31.955C70.361 32.765 68.914 33.455 67.159 34.025 65.404 34.595 63.536 34.88 61.556 34.88 58.826 34.88 56.494 34.377 54.559 33.372 52.624 32.368 51.139 30.965 50.104 29.165 49.069 27.365 48.552 25.295 48.552 22.955 48.552 20.586 49.061 18.485 50.081 16.655 51.101 14.826 52.512 13.392 54.312 12.357 56.111 11.323 58.211 10.805 60.611 10.805 62.952 10.805 65.014 11.308 66.799 12.312 68.584 13.318 69.979 14.713 70.984 16.497 71.989 18.283 72.491 20.375 72.491 22.775 72.491 23.105 72.469 23.45 72.424 23.81 72.379 24.17 72.326 24.546 72.266 24.935L56.292 24.935C57.012 27.575 58.976 28.895 62.187 28.895 63.627 28.895 64.901 28.67 66.012 28.22 67.121 27.77 68.051 27.32 68.802 26.87L71.502 31.955z"/>
    <polyline fill="#404040" points="99.582 11.39 90.717 34.295 82.167 34.295 73.302 11.39 81.897 11.39 86.577 26.195 91.167 11.39 99.582 11.39"/>
    <path fill="#404040" d="M112.947 16.475C110.396 16.475 108.866 17.825 108.356 20.525L117.086 20.525C116.876 19.056 116.374 18.013 115.579 17.397 114.784 16.783 113.906 16.475 112.947 16.475zM123.657 31.955C122.516 32.765 121.069 33.455 119.314 34.025 117.559 34.595 115.691 34.88 113.711 34.88 110.981 34.88 108.649 34.377 106.714 33.372 104.779 32.368 103.294 30.965 102.259 29.165 101.224 27.365 100.707 25.295 100.707 22.955 100.707 20.586 101.216 18.485 102.236 16.655 103.256 14.826 104.667 13.392 106.467 12.357 108.266 11.323 110.366 10.805 112.766 10.805 115.106 10.805 117.169 11.308 118.954 12.312 120.739 13.318 122.134 14.713 123.139 16.497 124.144 18.283 124.647 20.375 124.647 22.775 124.647 23.105 124.624 23.45 124.579 23.81 124.534 24.17 124.481 24.546 124.421 24.935L108.447 24.935C109.167 27.575 111.131 28.895 114.342 28.895 115.782 28.895 117.056 28.67 118.167 28.22 119.276 27.77 120.206 27.32 120.957 26.87L123.657 31.955zM136.481 21.65L136.481 34.295 128.651 34.295 128.651 11.39 135.806 11.39 136.211 14.405C136.961 13.325 137.936 12.455 139.136 11.795 140.336 11.136 141.656 10.805 143.096 10.805 145.586 10.805 147.581 11.615 149.081 13.235 150.581 14.855 151.331 17.181 151.331 20.21L151.331 34.295 143.501 34.295 143.501 21.11C143.501 19.76 143.201 18.763 142.601 18.118 142.001 17.472 141.161 17.15 140.081 17.15 139.001 17.15 138.131 17.495 137.471 18.185 136.811 18.876 136.481 20.03 136.481 21.65M164.921 34.88C162.941 34.88 161.088 34.565 159.363 33.935 157.638 33.305 156.085 32.405 154.706 31.235L158.036 26.825C159.085 27.665 160.218 28.348 161.433 28.872 162.648 29.398 163.841 29.66 165.011 29.66 165.791 29.66 166.413 29.525 166.878 29.255 167.343 28.985 167.576 28.58 167.576 28.04 167.576 27.47 167.313 27.013 166.788 26.668 166.263 26.323 165.326 25.985 163.976 25.655L161.816 25.115C157.525 23.975 155.381 21.681 155.381 18.23 155.381 16.7 155.801 15.38 156.641 14.27 157.48 13.16 158.636 12.305 160.106 11.705 161.575 11.105 163.285 10.805 165.236 10.805 167.155 10.805 168.963 11.105 170.658 11.705 172.353 12.305 173.905 13.175 175.316 14.315L171.896 18.815C170.845 17.975 169.736 17.301 168.566 16.79 167.396 16.28 166.3 16.025 165.281 16.025 163.63 16.025 162.806 16.565 162.806 17.645 162.806 18.125 163.053 18.516 163.548 18.815 164.043 19.115 164.741 19.386 165.641 19.625L168.566 20.435C170.755 21.036 172.375 21.935 173.426 23.135 174.475 24.335 175.001 25.761 175.001 27.41 175.001 28.91 174.58 30.222 173.741 31.347 172.9 32.472 171.723 33.343 170.208 33.958 168.693 34.572 166.93 34.88 164.921 34.88M198.805 17.69L202.855 17.69C204.145 17.69 205.165 17.352 205.915 16.678 206.665 16.003 207.04 15.11 207.04 14 207.04 12.891 206.665 11.997 205.915 11.323 205.165 10.647 204.145 10.31 202.855 10.31L198.805 10.31 198.805 17.69zM190.705 34.295L190.705 3.695 203.665 3.695C207.265 3.695 210.115 4.618 212.215 6.463 214.315 8.308 215.365 10.82 215.365 14 215.365 16.07 214.893 17.863 213.948 19.378 213.003 20.892 211.675 22.063 209.965 22.888 208.255 23.713 206.215 24.125 203.845 24.125L198.805 24.125 198.805 34.295 190.705 34.295zM229.81 28.67C231.189 28.67 232.292 28.138 233.117 27.073 233.942 26.008 234.355 24.591 234.355 22.82 234.355 21.05 233.942 19.641 233.117 18.59 232.292 17.54 231.189 17.015 229.81 17.015 228.429 17.015 227.327 17.54 226.502 18.59 225.677 19.641 225.264 21.05 225.264 22.82 225.264 24.591 225.677 26.008 226.502 27.073 227.327 28.138 228.429 28.67 229.81 28.67zM229.81 34.88C227.349 34.88 225.181 34.362 223.307 33.327 221.432 32.293 219.961 30.875 218.897 29.075 217.832 27.275 217.3 25.19 217.3 22.82 217.3 20.451 217.832 18.365 218.897 16.565 219.961 14.765 221.432 13.355 223.307 12.335 225.181 11.315 227.349 10.805 229.81 10.805 232.269 10.805 234.437 11.315 236.312 12.335 238.187 13.355 239.657 14.765 240.722 16.565 241.786 18.365 242.319 20.451 242.319 22.82 242.319 25.19 241.786 27.275 240.722 29.075 239.657 30.875 238.187 32.293 236.312 33.327 234.437 34.362 232.269 34.88 229.81 34.88zM246.415 34.295L246.415 11.39C247.674 11.66 248.949 11.795 250.239 11.795 251.559 11.795 252.895 11.66 254.244 11.39L254.244 34.295 246.415 34.295M267.564 21.65L267.564 34.295 259.734 34.295 259.734 11.39 266.889 11.39 267.294 14.405C268.043 13.325 269.019 12.455 270.219 11.795 271.418 11.136 272.739 10.805 274.179 10.805 276.668 10.805 278.664 11.615 280.164 13.235 281.664 14.855 282.414 17.181 282.414 20.21L282.414 34.295 274.584 34.295 274.584 21.11C274.584 19.76 274.284 18.763 273.684 18.118 273.084 17.472 272.244 17.15 271.164 17.15 270.084 17.15 269.213 17.495 268.554 18.185 267.894 18.876 267.564 20.03 267.564 21.65M304.374 32.81C303.443 33.44 302.378 33.943 301.178 34.317 299.978 34.692 298.718 34.88 297.398 34.88 294.938 34.88 292.98 34.168 291.526 32.743 290.07 31.318 289.343 29.405 289.343 27.005L289.343 17.24 285.608 17.24 285.608 11.39 289.703 11.39 290.693 5 297.173 5 297.173 11.39 303.158 11.39 303.158 17.24 297.173 17.24 297.173 26.015C297.173 26.796 297.405 27.403 297.871 27.838 298.335 28.273 298.958 28.49 299.738 28.49 300.128 28.49 300.526 28.415 300.931 28.265 301.336 28.115 301.718 27.935 302.078 27.725L304.374 32.81"/>
    <path fill="#009BFF" class='no-color-change' d="M326.873 34.88C321.743 34.88 318.172 32.69 316.163 28.31L322.822 25.115C323.302 26.105 323.827 26.825 324.397 27.275 324.967 27.725 325.687 27.95 326.558 27.95 327.607 27.95 328.41 27.673 328.965 27.118 329.52 26.563 329.797 25.671 329.797 24.44L329.797 3.695 338.168 3.695 338.168 24.215C338.168 26.435 337.702 28.34 336.772 29.93 335.842 31.52 334.529 32.743 332.835 33.597 331.14 34.452 329.152 34.88 326.873 34.88M354.907 28.67C356.287 28.67 357.389 28.138 358.215 27.073 359.04 26.008 359.452 24.591 359.452 22.82 359.452 21.05 359.04 19.641 358.215 18.59 357.389 17.54 356.287 17.015 354.907 17.015 353.527 17.015 352.424 17.54 351.6 18.59 350.774 19.641 350.362 21.05 350.362 22.82 350.362 24.591 350.774 26.008 351.6 27.073 352.424 28.138 353.527 28.67 354.907 28.67zM354.907 34.88C352.447 34.88 350.279 34.362 348.405 33.327 346.529 32.293 345.059 30.875 343.995 29.075 342.93 27.275 342.397 25.19 342.397 22.82 342.397 20.451 342.93 18.365 343.995 16.565 345.059 14.765 346.529 13.355 348.405 12.335 350.279 11.315 352.447 10.805 354.907 10.805 357.367 10.805 359.535 11.315 361.41 12.335 363.284 13.355 364.754 14.765 365.82 16.565 366.884 18.365 367.418 20.451 367.418 22.82 367.418 25.19 366.884 27.275 365.82 29.075 364.754 30.875 363.284 32.293 361.41 33.327 359.535 34.362 357.367 34.88 354.907 34.88zM386.632 34.295L386.227 31.28C385.477 32.39 384.495 33.267 383.28 33.912 382.065 34.558 380.752 34.88 379.342 34.88 376.672 34.88 374.632 34.093 373.222 32.517 371.812 30.942 371.107 28.67 371.107 25.7L371.107 11.39 378.937 11.39 378.937 24.8C378.937 27.29 380.077 28.535 382.357 28.535 384.757 28.535 385.957 27.035 385.957 24.035L385.957 11.39 393.787 11.39 393.787 34.295 386.632 34.295M407.106 25.43L407.106 34.295 399.277 34.295 399.277 11.39 406.432 11.39 406.927 15.215C407.406 13.985 408.194 12.987 409.289 12.223 410.384 11.458 411.652 11.075 413.092 11.075 413.902 11.075 414.516 11.18 414.937 11.39L414.937 18.545C414.606 18.426 414.239 18.336 413.834 18.275 413.429 18.215 412.971 18.185 412.461 18.185 410.901 18.185 409.619 18.763 408.614 19.918 407.609 21.073 407.106 22.91 407.106 25.43M426.546 21.65L426.546 34.295 418.716 34.295 418.716 11.39 425.871 11.39 426.276 14.405C427.026 13.325 428.001 12.455 429.201 11.795 430.401 11.136 431.721 10.805 433.161 10.805 435.651 10.805 437.646 11.615 439.146 13.235 440.646 14.855 441.396 17.181 441.396 20.21L441.396 34.295 433.566 34.295 433.566 21.11C433.566 19.76 433.266 18.763 432.666 18.118 432.066 17.472 431.226 17.15 430.146 17.15 429.066 17.15 428.196 17.495 427.536 18.185 426.876 18.876 426.546 20.03 426.546 21.65M452.646 26.87C452.646 27.56 452.9 28.123 453.411 28.558 453.92 28.993 454.581 29.21 455.391 29.21 456.471 29.21 457.378 28.843 458.113 28.107 458.848 27.373 459.216 26.45 459.216 25.34L459.216 24.575C458.406 24.425 457.551 24.35 456.651 24.35 455.51 24.35 454.558 24.546 453.793 24.935 453.028 25.325 452.646 25.97 452.646 26.87zM459.531 34.295L459.126 31.28C457.626 33.681 455.346 34.88 452.286 34.88 450.936 34.88 449.713 34.588 448.618 34.003 447.523 33.418 446.653 32.615 446.008 31.595 445.363 30.576 445.041 29.39 445.041 28.04 445.041 25.491 446.038 23.511 448.033 22.1 450.028 20.69 452.661 19.985 455.931 19.985 456.95 19.985 458.03 20.075 459.171 20.255 459.051 19.115 458.564 18.253 457.709 17.668 456.854 17.083 455.811 16.79 454.581 16.79 453.501 16.79 452.413 16.993 451.318 17.397 450.223 17.803 449.181 18.29 448.191 18.86L445.536 13.82C447.036 12.86 448.656 12.118 450.396 11.593 452.135 11.068 453.876 10.805 455.616 10.805 457.715 10.805 459.605 11.165 461.286 11.885 462.966 12.605 464.285 13.701 465.246 15.17 466.206 16.641 466.686 18.5 466.686 20.75L466.686 34.295 459.531 34.295z"/>
    <polygon fill="#009BFF" class='no-color-change' points="471.681 34.295 479.511 34.295 479.511 1.445 471.681 1.445"/>
    <path fill="#404040" d="M4.428 43.66L5.554 43.66C5.924 43.66 6.217 43.569 6.432 43.387 6.647 43.205 6.755 42.956 6.755 42.641 6.755 42.326 6.647 42.078 6.432 41.896 6.217 41.713 5.924 41.623 5.554 41.623L4.428 41.623 4.428 43.66zM3.591 46.55L3.591 40.919 5.554 40.919C6.183 40.919 6.683 41.073 7.053 41.382 7.423 41.692 7.608 42.111 7.608 42.641 7.608 43.166 7.423 43.581 7.053 43.888 6.683 44.194 6.183 44.348 5.554 44.348L4.428 44.348 4.428 46.55 3.591 46.55zM9.297 44.43L11.352 44.43 10.325 41.788 9.297 44.43zM12.172 46.55L11.625 45.134 9.024 45.134 8.478 46.55 7.633 46.55 9.886 40.919 10.788 40.919 13.033 46.55 12.172 46.55zM14.805 43.577L15.957 43.577C16.315 43.577 16.601 43.489 16.814 43.312 17.026 43.136 17.133 42.898 17.133 42.6 17.133 42.302 17.026 42.065 16.814 41.887 16.601 41.711 16.315 41.623 15.957 41.623L14.805 41.623 14.805 43.577zM14.805 44.265L14.805 46.55 13.969 46.55 13.969 40.919 15.957 40.919C16.58 40.919 17.075 41.069 17.439 41.37 17.804 41.671 17.986 42.081 17.986 42.6 17.986 42.992 17.875 43.323 17.654 43.594 17.433 43.864 17.13 44.055 16.743 44.165L18.11 46.55 17.157 46.55 15.874 44.265 14.805 44.265z"/>
    <polyline fill="#404040" points="20.387 46.55 20.387 41.623 18.491 41.623 18.491 40.919 23.12 40.919 23.12 41.623 21.224 41.623 21.224 46.55 20.387 46.55"/>
    <path fill="#404040" d="M28.495,45.913 C28.86,45.913 29.184,45.82 29.469,45.635 C29.753,45.45 29.975,45.195 30.135,44.869 C30.295,44.544 30.376,44.165 30.376,43.734 C30.376,43.304 30.295,42.925 30.135,42.6 C29.975,42.274 29.753,42.019 29.469,41.834 C29.184,41.649 28.86,41.556 28.495,41.556 C28.131,41.556 27.808,41.649 27.527,41.834 C27.245,42.019 27.024,42.274 26.864,42.6 C26.704,42.925 26.624,43.304 26.624,43.734 C26.624,44.165 26.704,44.544 26.864,44.869 C27.024,45.195 27.245,45.45 27.527,45.635 C27.808,45.82 28.131,45.913 28.495,45.913 Z M28.495,46.642 C27.966,46.642 27.496,46.517 27.087,46.269 C26.679,46.02 26.357,45.678 26.123,45.242 C25.888,44.806 25.771,44.303 25.771,43.734 C25.771,43.166 25.888,42.663 26.123,42.227 C26.357,41.791 26.679,41.448 27.087,41.2 C27.496,40.951 27.966,40.827 28.495,40.827 C29.026,40.827 29.496,40.951 29.908,41.2 C30.319,41.448 30.642,41.791 30.877,42.227 C31.111,42.663 31.229,43.166 31.229,43.734 C31.229,44.303 31.111,44.806 30.877,45.242 C30.642,45.678 30.319,46.02 29.908,46.269 C29.496,46.517 29.026,46.642 28.495,46.642 Z"/>
    <polyline fill="#404040" points="33.241 46.55 32.405 46.55 32.405 40.919 35.908 40.919 35.908 41.623 33.241 41.623 33.241 43.528 35.502 43.528 35.502 44.231 33.241 44.231 33.241 46.55"/>
    <polyline fill="#404040" points="40.273 46.55 40.273 41.623 38.376 41.623 38.376 40.919 43.006 40.919 43.006 41.623 41.109 41.623 41.109 46.55 40.273 46.55"/>
    <polyline fill="#404040" points="43.966 46.55 43.966 40.919 44.803 40.919 44.803 43.329 47.71 43.329 47.71 40.919 48.547 40.919 48.547 46.55 47.71 46.55 47.71 44.049 44.803 44.049 44.803 46.55 43.966 46.55"/>
    <polyline fill="#404040" points="50.021 46.55 50.021 40.919 53.632 40.919 53.632 41.623 50.857 41.623 50.857 43.362 53.3 43.362 53.3 44.066 50.857 44.066 50.857 45.846 53.698 45.846 53.698 46.55 50.021 46.55"/>
    <path fill="#404040" d="M58.982 45.913C59.44 45.913 59.801 45.775 60.063 45.499 60.325 45.223 60.456 44.85 60.456 44.38L60.456 40.919 61.293 40.919 61.293 44.389C61.293 45.09 61.087 45.641 60.676 46.041 60.264 46.441 59.7 46.642 58.982 46.642 58.264 46.642 57.701 46.441 57.292 46.041 56.884 45.641 56.679 45.09 56.679 44.389L56.679 40.919 57.516 40.919 57.516 44.38C57.516 44.85 57.647 45.223 57.909 45.499 58.172 45.775 58.529 45.913 58.982 45.913M64.415 46.642C63.99 46.642 63.584 46.567 63.198 46.418 62.811 46.269 62.499 46.07 62.262 45.822L62.734 45.266C62.954 45.471 63.215 45.631 63.516 45.747 63.817 45.863 64.117 45.921 64.415 45.921 64.779 45.921 65.074 45.851 65.297 45.71 65.521 45.569 65.632 45.374 65.632 45.126 65.632 44.899 65.552 44.709 65.392 44.554 65.232 44.4 64.959 44.27 64.572 44.165L63.794 43.958C63.291 43.826 62.925 43.638 62.696 43.395 62.467 43.152 62.353 42.835 62.353 42.443 62.353 42.123 62.438 41.84 62.609 41.598 62.781 41.355 63.016 41.166 63.318 41.03 63.618 40.895 63.96 40.827 64.341 40.827 64.743 40.827 65.122 40.903 65.475 41.055 65.828 41.207 66.14 41.418 66.411 41.689L65.906 42.236C65.668 42.015 65.421 41.845 65.165 41.726 64.908 41.607 64.636 41.548 64.349 41.548 64.001 41.548 63.716 41.621 63.496 41.768 63.275 41.914 63.164 42.117 63.164 42.376 63.164 42.614 63.243 42.799 63.4 42.931 63.558 43.064 63.799 43.174 64.125 43.263L64.995 43.503C65.497 43.641 65.864 43.834 66.096 44.083 66.328 44.331 66.444 44.64 66.444 45.01 66.444 45.336 66.358 45.621 66.187 45.867 66.016 46.113 65.779 46.303 65.475 46.438 65.171 46.574 64.818 46.642 64.415 46.642M68.548 44.43L70.602 44.43 69.575 41.788 68.548 44.43zM71.422 46.55L70.875 45.134 68.274 45.134 67.728 46.55 66.883 46.55 69.136 40.919 70.039 40.919 72.283 46.55 71.422 46.55z"/>
    <polyline fill="#404040" points="76.176 46.55 76.176 41.623 74.279 41.623 74.279 40.919 78.909 40.919 78.909 41.623 77.012 41.623 77.012 46.55 76.176 46.55"/>
    <path fill="#404040" d="M81.924 45.913C82.288 45.913 82.612 45.82 82.897 45.635 83.181 45.45 83.403 45.195 83.563 44.869 83.723 44.544 83.804 44.165 83.804 43.734 83.804 43.304 83.723 42.925 83.563 42.6 83.403 42.274 83.181 42.019 82.897 41.834 82.612 41.649 82.288 41.556 81.924 41.556 81.559 41.556 81.236 41.649 80.955 41.834 80.673 42.019 80.452 42.274 80.292 42.6 80.132 42.925 80.052 43.304 80.052 43.734 80.052 44.165 80.132 44.544 80.292 44.869 80.452 45.195 80.673 45.45 80.955 45.635 81.236 45.82 81.559 45.913 81.924 45.913zM81.924 46.642C81.394 46.642 80.924 46.517 80.515 46.269 80.107 46.02 79.785 45.678 79.551 45.242 79.316 44.806 79.199 44.303 79.199 43.734 79.199 43.166 79.316 42.663 79.551 42.227 79.785 41.791 80.107 41.448 80.515 41.2 80.924 40.951 81.394 40.827 81.924 40.827 82.454 40.827 82.924 40.951 83.336 41.2 83.747 41.448 84.07 41.791 84.305 42.227 84.539 42.663 84.657 43.166 84.657 43.734 84.657 44.303 84.539 44.806 84.305 45.242 84.07 45.678 83.747 46.02 83.336 46.269 82.924 46.517 82.454 46.642 81.924 46.642zM86.669 45.846L87.812 45.846C88.21 45.846 88.55 45.759 88.835 45.586 89.119 45.412 89.337 45.168 89.489 44.853 89.641 44.538 89.717 44.165 89.717 43.734 89.717 43.304 89.641 42.931 89.489 42.617 89.337 42.302 89.119 42.057 88.835 41.883 88.55 41.71 88.21 41.623 87.812 41.623L86.669 41.623 86.669 45.846zM85.833 46.55L85.833 40.919 87.812 40.919C88.364 40.919 88.847 41.036 89.261 41.271 89.676 41.505 89.997 41.834 90.226 42.256 90.455 42.678 90.57 43.171 90.57 43.734 90.57 44.298 90.455 44.79 90.226 45.213 89.997 45.635 89.676 45.964 89.261 46.198 88.847 46.433 88.364 46.55 87.812 46.55L85.833 46.55zM92.707 44.43L94.761 44.43 93.734 41.788 92.707 44.43zM95.581 46.55L95.034 45.134 92.433 45.134 91.887 46.55 91.042 46.55 93.295 40.919 94.198 40.919 96.442 46.55 95.581 46.55z"/>
    <polyline fill="#404040" points="99.01 44.314 99.01 46.55 98.173 46.55 98.173 44.314 96.194 40.919 97.179 40.919 98.596 43.519 100.012 40.919 100.981 40.919 99.01 44.314"/>
    <polyline fill="#404040" points="107.673 46.55 104.666 42.236 104.666 46.55 103.879 46.55 103.879 40.919 104.658 40.919 107.673 45.234 107.673 40.919 108.451 40.919 108.451 46.55 107.673 46.55"/>
    <polyline fill="#404040" points="109.925 46.55 109.925 40.919 113.537 40.919 113.537 41.623 110.762 41.623 110.762 43.362 113.205 43.362 113.205 44.066 110.762 44.066 110.762 45.846 113.603 45.846 113.603 46.55 109.925 46.55"/>
    <polyline fill="#404040" points="116.087 46.55 116.087 41.623 114.191 41.623 114.191 40.919 118.82 40.919 118.82 41.623 116.924 41.623 116.924 46.55 116.087 46.55"/>
    <polyline fill="#404040" points="124.287 46.55 122.97 42.062 121.653 46.55 120.783 46.55 119.284 40.919 120.112 40.919 121.255 45.374 122.572 40.919 123.367 40.919 124.692 45.391 125.844 40.919 126.655 40.919 125.156 46.55 124.287 46.55"/>
    <path fill="#404040" d="M129.977 45.913C130.341 45.913 130.666 45.82 130.95 45.635 131.234 45.45 131.457 45.195 131.617 44.869 131.777 44.544 131.857 44.165 131.857 43.734 131.857 43.304 131.777 42.925 131.617 42.6 131.457 42.274 131.234 42.019 130.95 41.834 130.666 41.649 130.341 41.556 129.977 41.556 129.612 41.556 129.289 41.649 129.008 41.834 128.726 42.019 128.505 42.274 128.345 42.6 128.185 42.925 128.105 43.304 128.105 43.734 128.105 44.165 128.185 44.544 128.345 44.869 128.505 45.195 128.726 45.45 129.008 45.635 129.289 45.82 129.612 45.913 129.977 45.913zM129.977 46.642C129.447 46.642 128.977 46.517 128.569 46.269 128.16 46.02 127.839 45.678 127.604 45.242 127.369 44.806 127.252 44.303 127.252 43.734 127.252 43.166 127.369 42.663 127.604 42.227 127.839 41.791 128.16 41.448 128.569 41.2 128.977 40.951 129.447 40.827 129.977 40.827 130.507 40.827 130.977 40.951 131.389 41.2 131.8 41.448 132.123 41.791 132.358 42.227 132.592 42.663 132.71 43.166 132.71 43.734 132.71 44.303 132.592 44.806 132.358 45.242 132.123 45.678 131.8 46.02 131.389 46.269 130.977 46.517 130.507 46.642 129.977 46.642zM134.722 43.577L135.874 43.577C136.232 43.577 136.518 43.489 136.731 43.312 136.943 43.136 137.05 42.898 137.05 42.6 137.05 42.302 136.943 42.065 136.731 41.887 136.518 41.711 136.232 41.623 135.874 41.623L134.722 41.623 134.722 43.577zM134.722 44.265L134.722 46.55 133.886 46.55 133.886 40.919 135.874 40.919C136.497 40.919 136.992 41.069 137.356 41.37 137.721 41.671 137.903 42.081 137.903 42.6 137.903 42.992 137.792 43.323 137.571 43.594 137.35 43.864 137.047 44.055 136.66 44.165L138.027 46.55 137.074 46.55 135.791 44.265 134.722 44.265z"/>
    <polyline fill="#404040" points="142.45 46.55 139.924 43.71 139.924 46.55 139.087 46.55 139.087 40.919 139.924 40.919 139.924 43.387 142.284 40.919 143.319 40.919 140.81 43.503 143.501 46.55 142.45 46.55"/>
    <path fill="#009BFF" class='no-color-change' d="M250.239,9.59 C248.949,9.59 247.847,9.133 246.932,8.218 C246.016,7.303 245.559,6.2 245.559,4.91 C245.559,3.62 246.016,2.518 246.932,1.602 C247.847,0.688 248.949,0.23 250.239,0.23 C251.529,0.23 252.631,0.688 253.547,1.602 C254.461,2.518 254.919,3.62 254.919,4.91 C254.919,6.2 254.461,7.303 253.547,8.218 C252.631,9.133 251.529,9.59 250.239,9.59"/>
  </g>
</svg>
