<svg xmlns="http://www.w3.org/2000/svg" xmlns:xlink="http://www.w3.org/1999/xlink" width="720" height="121" viewBox="0 0 720 121">
  <defs>
    <style>
      .cls-1 {
        filter: url(#filter);
      }

      .cls-2, .cls-3 {
        fill: #fff;
        fill-rule: evenodd;
      }

      .cls-2 {
        filter: url(#filter-2);
      }
    </style>
    <filter id="filter" filterUnits="userSpaceOnUse">
      <feFlood result="flood" flood-color="#333"/>
      <feComposite result="composite" operator="in" in2="SourceGraphic"/>
      <feBlend result="blend" in2="SourceGraphic"/>
    </filter>
    <filter id="filter-2" x="352" y="103.969" width="367.969" height="16" filterUnits="userSpaceOnUse">
      <feFlood result="flood" flood-color="#999"/>
      <feComposite result="composite" operator="in" in2="SourceGraphic"/>
      <feBlend result="blend" in2="SourceGraphic"/>
    </filter>
  </defs>
  <g id="St._George" data-name="St. George" class="cls-1">
    <path id="USAT_Network" data-name="USAT Network" class="cls-2" d="M351.989,104.273h4.489c3.156,0,5.267,1.865,5.267,4.741s-2.155,4.735-5.267,4.735h-2.29v5.925h-2.2v-15.4Zm4.267,7.659c2.112,0,3.244-1.163,3.244-2.918,0-1.736-1.132-2.919-3.244-2.919h-2.068v5.837h2.068Zm11.768-7.659h1.955l6.4,15.4h-2.358l-1.6-4.035h-6.912l-1.6,4.035H361.6S367.244,106.162,368.024,104.273Zm3.665,9.544-1.488-3.794c-0.222-.572-1.179-2.942-1.2-3.139h-0.043c-0.022.2-.955,2.5-1.2,3.139l-1.51,3.794h5.443Zm6.924-9.544h4.51c2.91,0,5.178,1.5,5.178,4.563a4.293,4.293,0,0,1-3.955,4.346l4.778,6.492h-2.579l-4.51-6.276h-1.223v6.276h-2.2v-15.4Zm4.267,7.351c2.043,0,3.2-1.077,3.2-2.764s-1.157-2.765-3.2-2.765h-2.068v5.529h2.068Zm11.522-5.486h-4.445v-1.865h11.089v1.865H396.6v13.536h-2.2V106.138Zm12.347,5.838a8.2,8.2,0,1,1,8.2,8A7.862,7.862,0,0,1,406.749,111.976Zm14.133,0a5.946,5.946,0,1,0-5.955,6.053A5.772,5.772,0,0,0,420.882,111.976Zm5.433-7.7h7.867v1.865h-5.668V111.1H434v1.865h-5.49v6.713h-2.2v-15.4Zm17.815,1.865h-4.444v-1.865h11.088v1.865h-4.445v13.536h-2.2V106.138Zm8.953-1.865h2.2v6.318h8.178v-6.318h2.2v15.4h-2.2v-7.218h-8.178v7.218h-2.2v-15.4Zm16.631,0h8.49v1.846h-6.29v4.472h6.11v1.846h-6.11v5.395h6.422v1.842h-8.622v-15.4Zm16,10.092V104.273h2.221v9.433c0,2.679,1.157,4.323,3.756,4.323,2.622,0,3.78-1.644,3.78-4.323v-9.433h2.221v10.092c0,3.38-2.2,5.616-6,5.616C487.865,119.981,485.71,117.745,485.71,114.365Zm14.274,2.524,1.491-1.25a4.52,4.52,0,0,0,3.911,2.433c1.709,0,3.044-.918,3.044-2.611,0-1.817-1.534-2.433-3.446-3.178-1.956-.769-3.933-1.736-3.933-4.193,0-2.432,1.912-4.12,4.712-4.12a5.249,5.249,0,0,1,4.579,2.322l-1.491,1.25a3.552,3.552,0,0,0-3.088-1.668c-1.512,0-2.511.769-2.511,2.063,0,1.6,1.554,2.13,2.911,2.654,2.2,0.856,4.466,1.889,4.466,4.716,0,2.679-2,4.674-5.2,4.674A6.064,6.064,0,0,1,499.984,116.889Zm18.241-12.616h1.956l6.4,15.4h-2.357l-1.6-4.035h-6.912l-1.6,4.035H511.8S517.446,106.162,518.225,104.273Zm3.665,9.544-1.487-3.794c-0.222-.572-1.179-2.942-1.2-3.139h-0.044c-0.022.2-.955,2.5-1.2,3.139l-1.51,3.794h5.443Zm13.978-7.679h-4.445v-1.865h11.088v1.865h-4.444v13.536h-2.2V106.138Zm7.469,5.838a8.2,8.2,0,1,1,8.2,8A7.861,7.861,0,0,1,543.337,111.976Zm14.132,0a5.945,5.945,0,1,0-5.954,6.053A5.772,5.772,0,0,0,557.469,111.976Zm5.434-7.7h4.422c4.978,0,8.266,2.808,8.266,7.7,0,4.87-3.312,7.7-8.266,7.7H562.9v-15.4Zm2.2,13.534h2.046c3.643,0,6.176-1.9,6.176-5.831s-2.533-5.838-6.176-5.838H565.1v11.669Zm17.637-13.534H584.7l6.4,15.4h-2.357l-1.6-4.035h-6.912l-1.6,4.035h-2.311S581.96,106.162,582.739,104.273Zm3.666,9.544-1.489-3.794c-0.221-.572-1.178-2.942-1.2-3.139h-0.044c-0.022.2-.955,2.5-1.2,3.139l-1.51,3.794h5.444Zm9.084-.419-5.312-9.125h2.467l2.889,5.135a22.887,22.887,0,0,1,1.11,2.192h0.022a23.153,23.153,0,0,1,1.113-2.192l2.91-5.135h2.4l-5.309,9.125v6.276h-2.289V113.4Zm14.062-9.125h1.687l8.846,9.982c0.266,0.288,1.422,1.711,1.534,1.932l0.044-.023c-0.044-.217-0.044-2-0.044-2.39v-9.5h2.134v15.4h-1.713l-8.845-9.983c-0.265-.283-1.422-1.711-1.532-1.928l-0.021.02c0.021,0.221.043,2,.043,2.394v9.5h-2.133v-15.4Zm18.253,0h8.487v1.846H630v4.472h6.113v1.846H630v5.395h6.422v1.842H627.8v-15.4Zm15.37,1.865h-4.445v-1.865h11.089v1.865h-4.445v13.536h-2.2V106.138Zm8.477-1.865h2.334l3.2,9.15c0.112,0.351.867,2.63,0.889,2.981h0.046a30.445,30.445,0,0,1,.933-2.981l3.334-9.15h1.756l3.332,9.15c0.133,0.351.91,2.63,0.935,2.981h0.044c0.044-.351.8-2.63,0.91-2.981l3.179-9.15h2.243l-5.49,15.4h-1.688l-3.6-9.607a25.578,25.578,0,0,1-.758-2.5h-0.044a25.693,25.693,0,0,1-.776,2.5l-3.578,9.607h-1.69Zm24.119,7.7a8.2,8.2,0,1,1,8.2,8A7.861,7.861,0,0,1,675.77,111.976Zm14.132,0a5.945,5.945,0,1,0-5.955,6.053A5.772,5.772,0,0,0,689.9,111.976Zm5.433-7.7h4.511c2.913,0,5.177,1.5,5.177,4.563a4.293,4.293,0,0,1-3.955,4.346l4.779,6.492h-2.579l-4.511-6.276h-1.222v6.276h-2.2v-15.4Zm4.267,7.351c2.044,0,3.2-1.077,3.2-2.764s-1.156-2.765-3.2-2.765h-2.067v5.529H699.6Zm8.736-7.351h2.2v7.154l6.444-7.154h2.666l-6.687,7.351,7,8.05h-2.754l-6.668-7.785v7.785h-2.2v-15.4Z"/>
    <path id="Spectrum" class="cls-3" d="M26.8,8.285H0.522V2.094H59.777V8.285H33.5V89.016H26.8V8.285ZM65.73,2.094h6.445V36.021h0.248c3.47-5.2,9.423-9.659,19.215-9.659,14.01,0,23.679,8.42,23.679,24.27V89.016h-6.447V52.241c0-13.992-6.818-20.306-17.48-20.306-11.156,0-19.215,6.934-19.215,20.8V89.016H65.73V2.094Zm58.512,56.215c0-14.983,9.3-31.946,30-31.946,20.083,0,29.255,15.973,29.255,32.07V58.68H130.564c0.125,13.744,8.43,26.25,23.8,26.25,10.291,0,17.851-5.571,22.066-13.992l5.454,2.972c-5.577,10.9-16.362,16.592-28.014,16.592C134.408,90.5,124.242,74.034,124.242,58.309Zm52.808-5.077c-1.735-12.753-10.659-21.42-22.933-21.42-12.891,0-21.322,9.286-23.18,21.42H177.05Zm19.591,22.783L207.3,63.757c4.338,6.066,11.529,11.887,21.073,11.887,7.934,0,13.39-3.962,13.39-11.144,0-8.048-7.066-10.525-17.109-13.992-11.652-4.086-22.685-9.906-22.685-24.64,0-15.23,11.9-25.507,30.5-25.507,13.016,0,21.941,5.076,27.272,11.391L249.451,24.011c-3.967-4.706-9.3-8.544-17.108-8.544-7.437,0-11.528,3.467-11.528,8.791,0,7.182,7.934,9.163,15.123,11.764,13.884,4.952,24.8,11.143,24.8,26.744,0,16.1-11.53,27.984-31.736,27.984C213.624,90.749,202.22,83.816,196.641,76.015Zm69.174-48.166h16.858V36.64h0.249c4.092-5.7,10.661-10.278,20.579-10.278,18.222,0,30.867,13.868,30.867,31.451,0,14.857-8.059,32.688-30.867,32.688-10.166,0-16.364-4.7-19.587-9.41h-0.125v30.955H265.815v-84.2Zm50.454,30.584c0-9.163-5.827-17.336-16.241-17.336-10.66,0-16.487,8.172-16.487,17.336,0,9.534,6.324,17.334,16.487,17.334C309.945,75.767,316.269,68.09,316.269,58.433Zm22.936,0c0-14.24,8.678-32.07,32.85-32.07s32.232,17.83,32.232,31.574a23.956,23.956,0,0,1-.373,4.458H357.055c0.868,9.658,9.05,14.239,17.975,14.239,8.182,0,13.512-3.466,16.612-7.8l9.917,10.154c-5.083,6.81-14.381,11.515-27.4,11.515C350.113,90.5,339.205,74.282,339.205,58.433ZM386.93,51.87c-1.735-8.42-7.685-12.507-14.875-12.507s-13.264,4.086-15,12.507H386.93Zm19.714,6.562c0-16.345,12.4-32.07,33.718-32.07,5.951,0,11.033,1.238,13.513,2.477V45.183c-2.605-2.229-7.44-3.714-12.149-3.714-9.546,0-17.231,6.315-17.231,16.964S432.18,75.4,441.726,75.4c4.958,0,9.669-1.61,12.52-3.962V87.778c-2.6,1.362-7.811,2.724-14.007,2.724C419.041,90.5,406.644,74.776,406.644,58.433Zm59.874,12.135V41.221h-8.3V27.849h8.3V11.256h17.976V27.849h12.768V41.221H484.494V68.462c0,5.82,2.478,7.677,6.57,7.677a21.511,21.511,0,0,0,5.825-.743V89.14a44.352,44.352,0,0,1-10.411,1.115C472.1,90.255,466.518,83.569,466.518,70.567Zm36.326-42.719H519.7v9.41h0.248c3.348-6.438,8.553-10.9,16.86-10.9a18.22,18.22,0,0,1,5.951.867v16.1a23.609,23.609,0,0,0-7.563-1.239c-9.3,0-14.38,5.7-14.38,16.221V89.016H502.844V27.849ZM548.09,63.88V27.849h17.976V61.032c0,9.411,2.354,15.107,11.156,15.107,9.172,0,12.645-6.438,12.645-15.23V27.849h17.851V89.016h-16.86v-8.3H590.61c-3.719,5.2-8.554,9.782-19.09,9.782C555.4,90.5,548.09,79.977,548.09,63.88Zm69.174-36.031h16.858v8.3h0.248c3.844-5.448,9.173-9.782,19.09-9.782,9.671,0,16.364,4.21,19.96,11.144,3.841-5.819,10.165-11.144,21.446-11.144,15.5,0,23.305,10.4,23.305,26.621V89.016H700.2V55.709c0-8.544-2.355-14.982-11.033-14.982s-12.52,6.314-12.52,15.106V89.016H658.791V55.709c0-8.544-2.478-14.982-11.156-14.982s-12.52,6.314-12.52,15.106V89.016H617.264V27.849Z"/>
  </g>
</svg>
