<svg xmlns="http://www.w3.org/2000/svg" width="321" height="46" viewBox="0 0 321 46">
  <g fill="none" fill-rule="evenodd">
    <path fill="#404040" d="M164.163 42.422L165.317 42.422C165.695 42.422 165.995 42.329 166.216 42.142 166.436 41.956 166.546 41.701 166.546 41.379 166.546 41.056 166.436 40.802 166.216 40.616 165.995 40.429 165.695 40.336 165.317 40.336L164.163 40.336 164.163 42.422zM163.306 45.382L163.306 39.615 165.317 39.615C165.961 39.615 166.473 39.773 166.852 40.09 167.231 40.406 167.42 40.836 167.42 41.379 167.42 41.916 167.231 42.342 166.852 42.655 166.473 42.969 165.961 43.126 165.317 43.126L164.163 43.126 164.163 45.382 163.306 45.382zM169.15 43.211L171.254 43.211 170.202 40.505 169.15 43.211zM172.093 45.382L171.534 43.932 168.87 43.932 168.31 45.382 167.445 45.382 169.752 39.615 170.677 39.615 172.975 45.382 172.093 45.382zM174.79 42.337L175.969 42.337C176.337 42.337 176.63 42.247 176.847 42.066 177.065 41.885 177.174 41.642 177.174 41.337 177.174 41.031 177.065 40.788 176.847 40.607 176.63 40.426 176.337 40.336 175.969 40.336L174.79 40.336 174.79 42.337zM174.79 43.041L174.79 45.382 173.934 45.382 173.934 39.615 175.969 39.615C176.608 39.615 177.115 39.769 177.488 40.077 177.861 40.385 178.048 40.805 178.048 41.337 178.048 41.738 177.934 42.077 177.708 42.354 177.482 42.632 177.171 42.826 176.775 42.939L178.175 45.382 177.199 45.382 175.885 43.041 174.79 43.041z"/>
    <polyline fill="#404040" points="180.507 45.382 180.507 40.336 178.565 40.336 178.565 39.615 183.306 39.615 183.306 40.336 181.364 40.336 181.364 45.382 180.507 45.382"/>
    <path fill="#404040" d="M188.81,44.729 C189.184,44.729 189.516,44.635 189.807,44.445 C190.098,44.256 190.326,43.994 190.49,43.661 C190.654,43.327 190.736,42.939 190.736,42.499 C190.736,42.057 190.654,41.67 190.49,41.337 C190.326,41.003 190.098,40.742 189.807,40.552 C189.516,40.363 189.184,40.268 188.81,40.268 C188.437,40.268 188.107,40.363 187.818,40.552 C187.53,40.742 187.304,41.003 187.139,41.337 C186.975,41.67 186.894,42.057 186.894,42.499 C186.894,42.939 186.975,43.327 187.139,43.661 C187.304,43.994 187.53,44.256 187.818,44.445 C188.107,44.635 188.437,44.729 188.81,44.729 Z M188.81,45.475 C188.268,45.475 187.787,45.348 187.368,45.094 C186.95,44.839 186.621,44.489 186.381,44.042 C186.14,43.596 186.02,43.081 186.02,42.499 C186.02,41.916 186.14,41.401 186.381,40.955 C186.621,40.509 186.95,40.158 187.368,39.903 C187.787,39.648 188.268,39.521 188.81,39.521 C189.353,39.521 189.835,39.648 190.257,39.903 C190.678,40.158 191.009,40.509 191.249,40.955 C191.489,41.401 191.609,41.916 191.609,42.499 C191.609,43.081 191.489,43.596 191.249,44.042 C191.009,44.489 190.678,44.839 190.257,45.094 C189.835,45.348 189.353,45.475 188.81,45.475 Z"/>
    <polyline fill="#404040" points="193.67 45.382 192.814 45.382 192.814 39.615 196.401 39.615 196.401 40.336 193.67 40.336 193.67 42.287 195.986 42.287 195.986 43.007 193.67 43.007 193.67 45.382"/>
    <polyline fill="#404040" points="200.871 45.382 200.871 40.336 198.929 40.336 198.929 39.615 203.671 39.615 203.671 40.336 201.728 40.336 201.728 45.382 200.871 45.382"/>
    <polyline fill="#404040" points="204.654 45.382 204.654 39.615 205.511 39.615 205.511 42.083 208.488 42.083 208.488 39.615 209.344 39.615 209.344 45.382 208.488 45.382 208.488 42.821 205.511 42.821 205.511 45.382 204.654 45.382"/>
    <polyline fill="#404040" points="210.854 45.382 210.854 39.615 214.552 39.615 214.552 40.336 211.711 40.336 211.711 42.117 214.213 42.117 214.213 42.838 211.711 42.838 211.711 44.662 214.62 44.662 214.62 45.382 210.854 45.382"/>
    <path fill="#404040" d="M220.031 44.729C220.5 44.729 220.869 44.588 221.138 44.305 221.406 44.022 221.541 43.641 221.541 43.16L221.541 39.615 222.397 39.615 222.397 43.169C222.397 43.887 222.187 44.451 221.765 44.861 221.344 45.27 220.766 45.475 220.031 45.475 219.296 45.475 218.719 45.27 218.301 44.861 217.882 44.451 217.673 43.887 217.673 43.169L217.673 39.615 218.53 39.615 218.53 43.16C218.53 43.641 218.664 44.022 218.932 44.305 219.201 44.588 219.567 44.729 220.031 44.729M225.595 45.475C225.16 45.475 224.744 45.399 224.348 45.247 223.952 45.094 223.633 44.89 223.39 44.636L223.873 44.067C224.099 44.277 224.367 44.441 224.675 44.559 224.983 44.678 225.29 44.738 225.595 44.738 225.968 44.738 226.269 44.665 226.498 44.521 226.727 44.377 226.842 44.178 226.842 43.923 226.842 43.692 226.76 43.496 226.596 43.338 226.432 43.18 226.152 43.047 225.756 42.939L224.959 42.727C224.444 42.592 224.07 42.4 223.835 42.15 223.6 41.902 223.483 41.577 223.483 41.175 223.483 40.848 223.571 40.559 223.746 40.31 223.921 40.061 224.163 39.868 224.471 39.729 224.779 39.591 225.129 39.521 225.519 39.521 225.932 39.521 226.319 39.599 226.681 39.754 227.043 39.91 227.362 40.126 227.639 40.404L227.122 40.963C226.879 40.737 226.626 40.563 226.363 40.442 226.1 40.32 225.821 40.259 225.527 40.259 225.171 40.259 224.88 40.334 224.654 40.484 224.427 40.634 224.314 40.842 224.314 41.107 224.314 41.351 224.395 41.54 224.556 41.676 224.717 41.811 224.964 41.924 225.298 42.015L226.189 42.261C226.703 42.402 227.079 42.6 227.317 42.854 227.555 43.109 227.673 43.426 227.673 43.805 227.673 44.139 227.585 44.431 227.41 44.683 227.235 44.934 226.992 45.129 226.681 45.268 226.37 45.406 226.008 45.475 225.595 45.475M229.828 43.211L231.931 43.211 230.879 40.505 229.828 43.211zM232.771 45.382L232.211 43.932 229.548 43.932 228.988 45.382 228.123 45.382 230.43 39.615 231.354 39.615 233.653 45.382 232.771 45.382z"/>
    <polyline fill="#404040" points="237.639 45.382 237.639 40.336 235.697 40.336 235.697 39.615 240.438 39.615 240.438 40.336 238.496 40.336 238.496 45.382 237.639 45.382"/>
    <path fill="#404040" d="M243.525 44.729C243.898 44.729 244.23 44.635 244.522 44.445 244.813 44.256 245.04 43.994 245.205 43.661 245.368 43.327 245.451 42.939 245.451 42.499 245.451 42.057 245.368 41.67 245.205 41.337 245.04 41.003 244.813 40.742 244.522 40.552 244.23 40.363 243.898 40.268 243.525 40.268 243.152 40.268 242.821 40.363 242.533 40.552 242.244 40.742 242.018 41.003 241.854 41.337 241.69 41.67 241.609 42.057 241.609 42.499 241.609 42.939 241.69 43.327 241.854 43.661 242.018 43.994 242.244 44.256 242.533 44.445 242.821 44.635 243.152 44.729 243.525 44.729zM243.525 45.475C242.982 45.475 242.502 45.348 242.083 45.094 241.665 44.839 241.336 44.489 241.095 44.042 240.855 43.596 240.735 43.081 240.735 42.499 240.735 41.916 240.855 41.401 241.095 40.955 241.336 40.509 241.665 40.158 242.083 39.903 242.502 39.648 242.982 39.521 243.525 39.521 244.068 39.521 244.55 39.648 244.971 39.903 245.392 40.158 245.723 40.509 245.964 40.955 246.204 41.401 246.324 41.916 246.324 42.499 246.324 43.081 246.204 43.596 245.964 44.042 245.723 44.489 245.392 44.839 244.971 45.094 244.55 45.348 244.068 45.475 243.525 45.475zM248.385 44.662L249.556 44.662C249.963 44.662 250.312 44.572 250.603 44.394 250.894 44.216 251.118 43.966 251.273 43.643 251.429 43.322 251.506 42.939 251.506 42.499 251.506 42.057 251.429 41.676 251.273 41.353 251.118 41.031 250.894 40.781 250.603 40.603 250.312 40.425 249.963 40.336 249.556 40.336L248.385 40.336 248.385 44.662zM247.528 45.382L247.528 39.615 249.556 39.615C250.121 39.615 250.616 39.735 251.04 39.975 251.464 40.216 251.793 40.552 252.028 40.985 252.262 41.417 252.38 41.922 252.38 42.499 252.38 43.075 252.262 43.58 252.028 44.013 251.793 44.445 251.464 44.782 251.04 45.022 250.616 45.262 250.121 45.382 249.556 45.382L247.528 45.382zM254.569 43.211L256.672 43.211 255.62 40.505 254.569 43.211zM257.512 45.382L256.952 43.932 254.288 43.932 253.729 45.382 252.864 45.382 255.17 39.615 256.095 39.615 258.394 45.382 257.512 45.382z"/>
    <polyline fill="#404040" points="261.023 43.092 261.023 45.382 260.166 45.382 260.166 43.092 258.139 39.615 259.148 39.615 260.599 42.278 262.049 39.615 263.042 39.615 261.023 43.092"/>
    <polyline fill="#404040" points="269.895 45.382 266.816 40.963 266.816 45.382 266.01 45.382 266.01 39.615 266.807 39.615 269.895 44.034 269.895 39.615 270.692 39.615 270.692 45.382 269.895 45.382"/>
    <polyline fill="#404040" points="272.202 45.382 272.202 39.615 275.9 39.615 275.9 40.336 273.058 40.336 273.058 42.117 275.56 42.117 275.56 42.838 273.058 42.838 273.058 44.662 275.967 44.662 275.967 45.382 272.202 45.382"/>
    <polyline fill="#404040" points="278.512 45.382 278.512 40.336 276.57 40.336 276.57 39.615 281.311 39.615 281.311 40.336 279.369 40.336 279.369 45.382 278.512 45.382"/>
    <polyline fill="#404040" points="286.909 45.382 285.56 40.785 284.211 45.382 283.321 45.382 281.786 39.615 282.634 39.615 283.805 44.178 285.153 39.615 285.967 39.615 287.324 44.195 288.503 39.615 289.334 39.615 287.799 45.382 286.909 45.382"/>
    <path fill="#404040" d="M292.736 44.729C293.109 44.729 293.441 44.635 293.732 44.445 294.024 44.256 294.251 43.994 294.415 43.661 294.579 43.327 294.661 42.939 294.661 42.499 294.661 42.057 294.579 41.67 294.415 41.337 294.251 41.003 294.024 40.742 293.732 40.552 293.441 40.363 293.109 40.268 292.736 40.268 292.363 40.268 292.032 40.363 291.743 40.552 291.455 40.742 291.229 41.003 291.065 41.337 290.901 41.67 290.819 42.057 290.819 42.499 290.819 42.939 290.901 43.327 291.065 43.661 291.229 43.994 291.455 44.256 291.743 44.445 292.032 44.635 292.363 44.729 292.736 44.729zM292.736 45.475C292.193 45.475 291.712 45.348 291.294 45.094 290.875 44.839 290.546 44.489 290.306 44.042 290.065 43.596 289.945 43.081 289.945 42.499 289.945 41.916 290.065 41.401 290.306 40.955 290.546 40.509 290.875 40.158 291.294 39.903 291.712 39.648 292.193 39.521 292.736 39.521 293.279 39.521 293.76 39.648 294.182 39.903 294.603 40.158 294.934 40.509 295.174 40.955 295.415 41.401 295.535 41.916 295.535 42.499 295.535 43.081 295.415 43.596 295.174 44.042 294.934 44.489 294.603 44.839 294.182 45.094 293.76 45.348 293.279 45.475 292.736 45.475zM297.595 42.337L298.775 42.337C299.142 42.337 299.435 42.247 299.652 42.066 299.87 41.885 299.979 41.642 299.979 41.337 299.979 41.031 299.87 40.788 299.652 40.607 299.435 40.426 299.142 40.336 298.775 40.336L297.595 40.336 297.595 42.337zM297.595 43.041L297.595 45.382 296.739 45.382 296.739 39.615 298.775 39.615C299.413 39.615 299.92 39.769 300.293 40.077 300.666 40.385 300.853 40.805 300.853 41.337 300.853 41.738 300.739 42.077 300.513 42.354 300.287 42.632 299.976 42.826 299.58 42.939L300.98 45.382 300.004 45.382 298.69 43.041 297.595 43.041z"/>
    <polyline fill="#404040" points="305.509 45.382 302.922 42.473 302.922 45.382 302.065 45.382 302.065 39.615 302.922 39.615 302.922 42.142 305.339 39.615 306.4 39.615 303.83 42.261 306.586 45.382 305.509 45.382"/>
    <polyline fill="#404040" points="9.448 32.881 9.448 9.031 .358 9.031 .358 2.281 26.908 2.281 26.908 9.031 17.818 9.031 17.818 32.881 9.448 32.881"/>
    <path fill="#404040" d="M38.517 20.281L38.517 32.881 30.687 32.881 30.687.031 38.517.031 38.517 12.631C39.267 11.641 40.22 10.854 41.375 10.269 42.529 9.684 43.782 9.391 45.132 9.391 47.622 9.391 49.617 10.201 51.117 11.822 52.617 13.442 53.367 15.767 53.367 18.796L53.367 32.881 45.537 32.881 45.537 19.697C45.537 18.346 45.237 17.349 44.637 16.704 44.037 16.059 43.197 15.737 42.117 15.737 41.037 15.737 40.167 16.081 39.507 16.771 38.847 17.462 38.517 18.632 38.517 20.281M69.297 15.061C66.746 15.061 65.216 16.411 64.707 19.112L73.437 19.112C73.226 17.642 72.724 16.599 71.929 15.984 71.134 15.369 70.256 15.061 69.297 15.061zM80.007 30.541C78.866 31.351 77.419 32.042 75.664 32.612 73.909 33.181 72.042 33.466 70.062 33.466 67.331 33.466 64.999 32.964 63.064 31.959 61.129 30.954 59.644 29.551 58.609 27.751 57.574 25.951 57.057 23.881 57.057 21.541 57.057 19.172 57.566 17.072 58.586 15.241 59.606 13.412 61.017 11.979 62.817 10.944 64.617 9.909 66.716 9.391 69.116 9.391 71.457 9.391 73.519 9.894 75.304 10.899 77.089 11.905 78.484 13.299 79.489 15.084 80.494 16.869 80.997 18.962 80.997 21.362 80.997 21.692 80.974 22.036 80.929 22.396 80.884 22.756 80.831 23.132 80.771 23.521L64.797 23.521C65.517 26.161 67.481 27.482 70.692 27.482 72.132 27.482 73.406 27.256 74.517 26.806 75.626 26.357 76.556 25.906 77.307 25.456L80.007 30.541zM107.231 33.466C104.741 33.466 102.356 33.039 100.076 32.184 97.796 31.329 95.816 30.107 94.136 28.516L98.186 23.431C99.386 24.511 100.736 25.36 102.236 25.974 103.736 26.589 105.386 26.896 107.186 26.896 108.386 26.896 109.331 26.687 110.021 26.266 110.711 25.847 111.056 25.217 111.056 24.376 111.056 23.567 110.651 22.914 109.841 22.419 109.031 21.924 107.606 21.406 105.566 20.866L103.676 20.371C100.916 19.652 98.816 18.549 97.376 17.064 95.936 15.579 95.216 13.697 95.216 11.416 95.216 9.467 95.726 7.757 96.746 6.286 97.766 4.817 99.176 3.684 100.976 2.889 102.776 2.094 104.861 1.697 107.231 1.697 109.571 1.697 111.806 2.124 113.936 2.979 116.066 3.834 117.956 4.997 119.606 6.466L115.421 11.732C114.341 10.802 113.073 9.991 111.619 9.301 110.163 8.612 108.716 8.266 107.276 8.266 106.076 8.266 105.153 8.469 104.509 8.874 103.863 9.279 103.541 9.871 103.541 10.652 103.541 11.371 103.879 11.994 104.554 12.519 105.229 13.044 106.391 13.531 108.041 13.982L110.336 14.612C113.636 15.511 115.968 16.741 117.334 18.301 118.698 19.862 119.381 21.676 119.381 23.746 119.381 25.697 118.878 27.399 117.874 28.854 116.868 30.309 115.451 31.442 113.621 32.251 111.791 33.061 109.661 33.466 107.231 33.466M135.986 27.256C137.365 27.256 138.468 26.724 139.293 25.659 140.118 24.594 140.531 23.177 140.531 21.406 140.531 19.636 140.118 18.219 139.293 17.154 138.468 16.089 137.365 15.556 135.986 15.556 134.636 15.556 133.548 16.089 132.723 17.154 131.898 18.219 131.486 19.636 131.486 21.406 131.486 23.177 131.898 24.594 132.723 25.659 133.548 26.724 134.636 27.256 135.986 27.256zM138.101 33.466C136.751 33.466 135.52 33.181 134.411 32.612 133.301 32.042 132.37 31.261 131.621 30.271L131.621 41.206 123.791 41.206 123.791 9.976 130.946 9.976 131.351 12.991C132.071 11.911 133.038 11.041 134.253 10.381 135.468 9.722 136.87 9.391 138.461 9.391 140.41 9.391 142.135 9.902 143.636 10.921 145.135 11.942 146.32 13.351 147.191 15.152 148.06 16.951 148.496 19.037 148.496 21.406 148.496 23.777 148.053 25.869 147.168 27.684 146.283 29.499 145.053 30.917 143.478 31.936 141.903 32.956 140.11 33.466 138.101 33.466zM163.436 15.061C160.885 15.061 159.355 16.411 158.845 19.112L167.575 19.112C167.365 17.642 166.863 16.599 166.068 15.984 165.273 15.369 164.395 15.061 163.436 15.061zM174.146 30.541C173.005 31.351 171.558 32.042 169.803 32.612 168.048 33.181 166.18 33.466 164.2 33.466 161.47 33.466 159.138 32.964 157.203 31.959 155.268 30.954 153.783 29.551 152.748 27.751 151.713 25.951 151.196 23.881 151.196 21.541 151.196 19.172 151.706 17.072 152.726 15.241 153.745 13.412 155.156 11.979 156.956 10.944 158.756 9.909 160.855 9.391 163.256 9.391 165.595 9.391 167.658 9.894 169.443 10.899 171.228 11.905 172.623 13.299 173.628 15.084 174.633 16.869 175.135 18.962 175.135 21.362 175.135 21.692 175.113 22.036 175.068 22.396 175.023 22.756 174.97 23.132 174.91 23.521L158.936 23.521C159.656 26.161 161.62 27.482 164.831 27.482 166.271 27.482 167.545 27.256 168.656 26.806 169.765 26.357 170.696 25.906 171.446 25.456L174.146 30.541zM189.85 33.466C187.51 33.466 185.433 32.964 183.618 31.959 181.802 30.954 180.37 29.551 179.321 27.751 178.27 25.951 177.745 23.852 177.745 21.451 177.745 19.052 178.27 16.951 179.321 15.152 180.37 13.351 181.802 11.949 183.618 10.944 185.433 9.939 187.51 9.436 189.85 9.436 191.92 9.436 193.735 9.819 195.295 10.584 196.855 11.349 198.235 12.572 199.435 14.251L194.26 18.031C193.84 17.402 193.293 16.884 192.618 16.479 191.943 16.073 191.215 15.871 190.435 15.871 189.085 15.871 187.96 16.374 187.06 17.379 186.16 18.384 185.71 19.741 185.71 21.451 185.71 23.161 186.16 24.519 187.06 25.524 187.96 26.53 189.085 27.031 190.435 27.031 191.215 27.031 191.943 26.829 192.618 26.424 193.293 26.019 193.84 25.501 194.26 24.871L199.435 28.652C198.235 30.332 196.855 31.554 195.295 32.319 193.735 33.084 191.92 33.466 189.85 33.466M219.82 31.396C218.89 32.027 217.824 32.529 216.625 32.904 215.425 33.279 214.165 33.466 212.845 33.466 210.385 33.466 208.427 32.754 206.972 31.329 205.517 29.905 204.79 27.991 204.79 25.591L204.79 15.826 201.055 15.826 201.055 9.976 205.15 9.976 206.14 3.586 212.62 3.586 212.62 9.976 218.605 9.976 218.605 15.826 212.62 15.826 212.62 24.601C212.62 25.382 212.852 25.99 213.318 26.424 213.782 26.859 214.405 27.076 215.185 27.076 215.574 27.076 215.972 27.002 216.378 26.851 216.782 26.701 217.165 26.522 217.525 26.311L219.82 31.396M231.385 24.016L231.385 32.881 223.555 32.881 223.555 9.976 230.71 9.976 231.205 13.801C231.684 12.572 232.472 11.573 233.567 10.809 234.662 10.044 235.93 9.661 237.37 9.661 238.18 9.661 238.794 9.767 239.215 9.976L239.215 17.131C238.884 17.012 238.517 16.922 238.112 16.862 237.707 16.802 237.249 16.771 236.74 16.771 235.179 16.771 233.897 17.349 232.892 18.504 231.887 19.659 231.385 21.496 231.385 24.016M258.115 32.881L257.709 29.866C256.959 30.977 255.977 31.854 254.762 32.499 253.547 33.144 252.234 33.466 250.824 33.466 248.154 33.466 246.114 32.679 244.704 31.104 243.294 29.529 242.59 27.256 242.59 24.286L242.59 9.976 250.419 9.976 250.419 23.386C250.419 25.877 251.559 27.121 253.84 27.121 256.239 27.121 257.439 25.621 257.439 22.621L257.439 9.976 265.269 9.976 265.269 32.881 258.115 32.881M278.589 19.697L278.589 32.881 270.759 32.881 270.759 9.976 277.959 9.976 278.364 12.902C279.053 11.792 279.953 10.951 281.064 10.381 282.173 9.812 283.359 9.527 284.619 9.527 285.969 9.527 287.198 9.826 288.309 10.426 289.418 11.027 290.318 11.866 291.009 12.947 291.819 11.837 292.876 10.989 294.181 10.404 295.486 9.819 296.859 9.527 298.299 9.527 299.888 9.527 301.291 9.894 302.506 10.629 303.721 11.365 304.673 12.384 305.364 13.689 306.053 14.994 306.399 16.501 306.399 18.211L306.399 32.881 298.569 32.881 298.569 19.021C298.569 18.062 298.306 17.297 297.781 16.726 297.256 16.156 296.589 15.871 295.779 15.871 294.789 15.871 293.993 16.186 293.394 16.817 292.793 17.447 292.494 18.406 292.494 19.697L292.494 32.881 284.664 32.881 284.664 19.021C284.664 18.062 284.408 17.297 283.899 16.726 283.388 16.156 282.698 15.871 281.829 15.871 280.868 15.871 280.089 16.186 279.489 16.817 278.888 17.447 278.589 18.406 278.589 19.697"/>
    <path fill="#009BFF" class='no-color-change' d="M315.489,33.376 C314.529,33.376 313.651,33.144 312.856,32.679 C312.061,32.214 311.431,31.584 310.967,30.789 C310.501,29.994 310.269,29.116 310.269,28.156 C310.269,27.197 310.501,26.319 310.967,25.524 C311.431,24.729 312.061,24.099 312.856,23.634 C313.651,23.169 314.529,22.936 315.489,22.936 C316.448,22.936 317.326,23.169 318.121,23.634 C318.916,24.099 319.546,24.729 320.011,25.524 C320.476,26.319 320.709,27.197 320.709,28.156 C320.709,29.116 320.476,29.994 320.011,30.789 C319.546,31.584 318.916,32.214 318.121,32.679 C317.326,33.144 316.448,33.376 315.489,33.376"/>
  </g>
</svg>
