<svg xmlns="http://www.w3.org/2000/svg" viewBox="20 20.7 503 90">
  <defs>
    <style>
      .cls-1 {
        fill: transparent;
      }
      .cls-2 {
        fill: #009bff;
      }
      .cls-3 {
        fill: #e8dd26;
      }
      .cls-4 {
        fill: #0f863d;
      }
      .cls-5 {
        fill: #fff;
      }
    </style>
  </defs>
  <title>16-USAT-012_Storytellers_ColorReversed_SmallUsage</title>
  <g id="Layer_2" data-name="Layer 2"><rect class="cls-1" width="535.89" height="133.95"/></g>
  <g id="Layer_1" data-name="Layer 1">
    <path class="cls-2 no-color-change" d="M95.74,61.18,98,54.24a15.52,15.52,0,0,1-2.73-10.91h-.06a15.73,15.73,0,1,0,10.58,27.34l6.57,2.14-3.16-6.58a16,16,0,0,0,1.63-5.31A15.71,15.71,0,0,1,102,58.17Z"/>
    <path class="cls-3 no-color-change" d="M126.41,43a15.72,15.72,0,0,0-31.18.29A15.73,15.73,0,0,1,110.9,59.06a16.3,16.3,0,0,1-.11,1.86,16.58,16.58,0,0,0,2.21-.13A15.74,15.74,0,0,0,126.41,43Z"/>
    <path class="cls-4 no-color-change" d="M95.23,43.33A15.52,15.52,0,0,0,98,54.24l-2.22,6.94,6.21-3a15.71,15.71,0,0,0,8.84,2.75,16.3,16.3,0,0,0,.11-1.86A15.73,15.73,0,0,0,95.23,43.33Z"/>
    <path class="cls-5" d="M30.8,69.25l3.92-5.42a9,9,0,0,0,6.67,3.32c2.11,0,3.36-.89,3.36-2.55,0-2-1.82-2.55-4.89-3.48-4.13-1.25-7.76-3.4-7.76-8.29,0-5.38,4.4-9,10.63-9,4.33,0,7.6,1.33,9.66,3.27l-3.68,5.42a7.44,7.44,0,0,0-5.58-2.47c-2.1,0-3,.85-3,2,0,1.78,2.14,2.27,4.49,3,4.61,1.45,8.17,3.55,8.17,8.77,0,5.46-3.92,9.54-11,9.54C36.58,73.37,32.54,71.15,30.8,69.25Z"/>
    <path class="cls-5" d="M61.61,51h-7V44.42H76.73V51h-7v21.8H61.61Z"/>
    <path class="cls-5" d="M118.91,44.42h11.77c6.06,0,11.12,2.71,11.12,9.54,0,3.32-1.9,6.23-5.75,7.85l7.36,11h-9.22l-5.94-9.63H127v9.63h-8.13ZM129.38,57c2.71,0,4.09-1,4.09-3.08s-1.38-3.07-4.09-3.07H127V57Z"/>
    <path class="cls-5" d="M151.3,62.7,140.7,44.42h8.9l3.84,7a20.54,20.54,0,0,1,2.18,5.25h.16A21,21,0,0,1,158,51.42l3.84-7h8.65L159.87,62.7V72.81H151.3Z"/>
    <path class="cls-5" d="M179.36,51h-7V44.42h22.12V51h-7v21.8h-8.12Z"/>
    <path class="cls-5" d="M197.79,44.42H215v6.43h-9.1V55.1h8.94v6.43h-8.94v4.85h9.46v6.43H197.79Z"/>
    <path class="cls-5" d="M218.49,44.42h8.13v21.8h9.1v6.59H218.49Z"/>
    <path class="cls-5" d="M239.23,44.42h8.13v21.8h9.1v6.59H239.23Z"/>
    <path class="cls-5" d="M259.17,44.42h17.22v6.43h-9.1V55.1h8.94v6.43h-8.94v4.85h9.47v6.43H259.17Z"/>
    <path class="cls-5" d="M280.68,44.42h11.76c6.07,0,11.12,2.71,11.12,9.54,0,3.32-1.9,6.23-5.74,7.85l7.36,11H296L290,63.18H288.8v9.63h-8.12ZM291.15,57c2.71,0,4.08-1,4.08-3.08s-1.37-3.07-4.08-3.07H288.8V57Z"/>
    <path class="cls-5" d="M305,69.25l3.92-5.42a9,9,0,0,0,6.67,3.32c2.1,0,3.36-.89,3.36-2.55,0-2-1.82-2.55-4.9-3.48-4.12-1.25-7.76-3.4-7.76-8.29,0-5.38,4.41-9,10.63-9,4.33,0,7.61,1.33,9.67,3.27l-3.68,5.42a7.44,7.44,0,0,0-5.58-2.47c-2.1,0-3,.85-3,2,0,1.78,2.14,2.27,4.49,3,4.61,1.45,8.16,3.55,8.16,8.77,0,5.46-3.92,9.54-11,9.54C310.76,73.37,306.72,71.15,305,69.25Z"/>
    <path class="cls-2 no-color-change" d="M339.29,44.42H350c7.36,0,11.57,4.29,11.57,9.95S357.4,64.28,350,64.28h-2.63v8.53h-8.12Zm9.5,13.39c3.07,0,4.45-1.06,4.45-3.44s-1.38-3.48-4.45-3.48h-1.38v6.92Z"/>
    <path class="cls-2 no-color-change" d="M363.91,44.42h11.77c6.06,0,11.12,2.71,11.12,9.54,0,3.32-1.9,6.23-5.75,7.85l7.36,11h-9.22l-5.94-9.63H372v9.63h-8.13ZM374.38,57c2.71,0,4.09-1,4.09-3.08s-1.38-3.07-4.09-3.07H372V57Z"/>
    <path class="cls-2 no-color-change" d="M388.49,58.65c0-7,5-14.79,15.57-14.79s15.61,7.8,15.61,14.79-5,14.72-15.61,14.72S388.49,65.61,388.49,58.65Zm22.81,0c0-5.09-3.32-7.72-7.28-7.72s-7.2,2.63-7.2,7.72,3.32,7.65,7.2,7.65S411.3,63.71,411.3,58.65Z"/>
    <path class="cls-2 no-color-change" d="M417.52,69.69l4.17-5.13a3.88,3.88,0,0,0,3.23,1.74c2.14,0,2.75-1.3,2.75-2.83v-19h8.13V64.6c0,5.09-3.72,8.77-9.75,8.77C422.37,73.37,419.06,72,417.52,69.69Z"/>
    <path class="cls-2 no-color-change" d="M439.52,44.42h17.22v6.43h-9.1V55.1h8.94v6.43h-8.94v4.85h9.47v6.43H439.52Z"/>
    <path class="cls-2 no-color-change" d="M459,58.61c0-8.73,6.06-14.75,15.16-14.75A13.67,13.67,0,0,1,481,45.35v7.52a10.23,10.23,0,0,0-6.18-1.94c-4.49,0-7.44,2.83-7.44,7.68s2.91,7.69,7.4,7.69c2.66,0,5.09-.65,6.55-1.94v7.52a15.48,15.48,0,0,1-7.16,1.49C465,73.37,459,67.39,459,58.61Z"/><path class="cls-2 no-color-change" d="M490.79,51h-7V44.42h22.12V51h-7v21.8h-8.12Z"/>
    <path class="cls-5" d="M179.27,87h3.89c2.74,0,4.58,1.64,4.58,4.17s-1.87,4.16-4.58,4.16h-2v5.21h-1.91Zm3.7,6.73c1.83,0,2.82-1,2.82-2.56s-1-2.57-2.82-2.57h-1.79v5.13Z"/>
    <path class="cls-5" d="M193.19,87h1.7l5.55,13.54h-2L197,97h-6l-1.39,3.55h-2Zm3.18,8.39-1.29-3.34c-.19-.5-1-2.59-1-2.76h0c0,.17-.83,2.2-1,2.76l-1.31,3.34Z"/>
    <path class="cls-5" d="M202.38,87h3.92c2.53,0,4.49,1.31,4.49,4a3.75,3.75,0,0,1-3.43,3.82l4.15,5.71h-2.24l-3.92-5.52h-1.06v5.52h-1.91Zm3.71,6.46c1.77,0,2.78-.95,2.78-2.43s-1-2.43-2.78-2.43h-1.8v4.86Z"/>
    <path class="cls-5" d="M216.09,88.67h-3.86V87h9.63v1.64H218v11.9h-1.91Z"/>
    <path class="cls-5" d="M226.81,93.8a7.12,7.12,0,1,1,7.12,7A6.87,6.87,0,0,1,226.81,93.8Zm12.27,0a5.16,5.16,0,1,0-5.17,5.32A5,5,0,0,0,239.08,93.8Z"/>
    <path class="cls-5" d="M243.8,87h6.83v1.64h-4.92V93h4.77v1.64h-4.77v5.9H243.8Z"/>
    <path class="cls-5" d="M259.27,88.67h-3.86V87H265v1.64h-3.86v11.9h-1.91Z"/>
    <path class="cls-5" d="M267,87H269v5.55h7.1V87H278v13.54h-1.92V94.22H269v6.35H267Z"/>
    <path class="cls-5" d="M281.48,87h7.38v1.62h-5.47v3.93h5.31v1.63h-5.31V99H289v1.62h-7.49Z"/>
    <path class="cls-5" d="M295.37,95.9V87h1.93v8.29c0,2.36,1,3.8,3.26,3.8s3.28-1.44,3.28-3.8V87h1.93V95.9c0,3-1.91,4.94-5.21,4.94S295.37,98.88,295.37,95.9Z"/>
    <path class="cls-5" d="M307.77,98.12l1.29-1.1a3.93,3.93,0,0,0,3.4,2.14c1.48,0,2.64-.8,2.64-2.29s-1.33-2.14-3-2.8-3.42-1.53-3.42-3.69,1.66-3.62,4.09-3.62a4.54,4.54,0,0,1,4,2l-1.29,1.1a3.08,3.08,0,0,0-2.69-1.47c-1.31,0-2.18.68-2.18,1.82,0,1.41,1.35,1.87,2.53,2.33,1.91.76,3.88,1.66,3.88,4.15s-1.74,4.11-4.52,4.11A5.24,5.24,0,0,1,307.77,98.12Z"/>
    <path class="cls-5" d="M323.6,87h1.7l5.56,13.54h-2.05L327.43,97h-6L320,100.57h-2S322.93,88.69,323.6,87Zm3.19,8.39-1.29-3.34c-.2-.5-1-2.59-1.05-2.76h0c0,.17-.82,2.2-1,2.76l-1.31,3.34Z"/>
    <path class="cls-5" d="M338.92,88.67h-3.86V87h9.63v1.64h-3.86v11.9h-1.91Z"/>
    <path class="cls-5" d="M345.41,93.8a7.12,7.12,0,1,1,7.12,7A6.87,6.87,0,0,1,345.41,93.8Zm12.27,0a5.16,5.16,0,1,0-5.17,5.32A5,5,0,0,0,357.68,93.8Z"/>
    <path class="cls-5" d="M362.4,87h3.84c4.32,0,7.17,2.46,7.17,6.77s-2.87,6.77-7.17,6.77H362.4Zm1.91,11.9h1.77c3.17,0,5.37-1.67,5.37-5.13s-2.2-5.13-5.37-5.13h-1.77Z"/>
    <path class="cls-5" d="M379.62,87h1.7l5.56,13.54h-2.05L383.44,97h-6l-1.39,3.55h-2Zm3.18,8.39-1.29-3.34c-.19-.5-1-2.59-1-2.76h0c0,.17-.83,2.2-1,2.76l-1.31,3.34Z"/>
    <path class="cls-5" d="M390.69,95.05l-4.61-8h2.14l2.51,4.51a17.32,17.32,0,0,1,1,1.93h0a19.34,19.34,0,0,1,1-1.93L395.21,87h2.08l-4.61,8v5.52h-2Z"/>
    <path class="cls-5" d="M402.9,87h1.47l7.68,8.77c.23.26,1.23,1.51,1.33,1.71l0,0c0-.19,0-1.75,0-2.1V87h1.85v13.54h-1.49l-7.68-8.78c-.23-.25-1.23-1.5-1.33-1.69h0c0,.2,0,1.76,0,2.11v8.35H402.9Z"/>
    <path class="cls-5" d="M418.75,87h7.37v1.62h-5.46v3.93H426v1.63h-5.31V99h5.58v1.62h-7.49Z"/>
    <path class="cls-5" d="M432.09,88.67h-3.85V87h9.62v1.64H434v11.9h-1.91Z"/>
    <path class="cls-5" d="M439.46,87h2l2.78,8c.1.31.75,2.32.77,2.63h0c0-.31.7-2.32.81-2.63l2.9-8h1.52l2.89,8A26.51,26.51,0,0,1,454,97.7h0c0-.31.7-2.32.8-2.63l2.75-8h2l-4.76,13.54h-1.47l-3.12-8.45a21.36,21.36,0,0,1-.66-2.2h0a21.48,21.48,0,0,1-.68,2.2l-3.1,8.45h-1.47Z"/>
    <path class="cls-5" d="M460.4,93.8a7.12,7.12,0,1,1,7.12,7A6.87,6.87,0,0,1,460.4,93.8Zm12.27,0a5.17,5.17,0,1,0-5.17,5.32A5,5,0,0,0,472.67,93.8Z"/>
    <path class="cls-5" d="M477.39,87h3.91c2.53,0,4.5,1.31,4.5,4a3.76,3.76,0,0,1-3.44,3.82l4.15,5.71h-2.24l-3.91-5.52h-1.07v5.52h-1.9Zm3.7,6.46c1.77,0,2.78-.95,2.78-2.43s-1-2.43-2.78-2.43h-1.8v4.86Z"/>
    <path class="cls-5" d="M488.68,87h1.9v6.29l5.6-6.29h2.32l-5.81,6.46,6.08,7.08h-2.4l-5.79-6.85v6.85h-1.9Z"/>
  </g>
</svg>
