<svg xmlns="http://www.w3.org/2000/svg" width="280" height="43" viewBox="0 0 280 43">
  <g fill="none" fill-rule="evenodd" transform="translate(0 -2)">
    <path fill="#009BD3" class='no-color-change' d="M38.474,28.008 L39.78,23.928 C38.963,22.765 38.396,21.401 38.186,19.896 C38.074,19.09 38.081,18.295 38.173,17.523 C38.161,17.523 38.15,17.521 38.138,17.521 C33.036,17.521 28.9,21.657 28.9,26.76 C28.9,31.862 33.036,35.999 38.138,35.999 C40.536,35.999 42.713,35.077 44.355,33.58 L48.211,34.833 L46.354,30.972 C46.846,30.016 47.178,28.965 47.312,27.852 C45.412,27.846 43.615,27.26 42.12,26.235 L38.474,28.008"/>
    <path fill="#E3DB34" class='no-color-change' d="M56.488,17.35 C55.784,12.296 51.117,8.769 46.064,9.472 C41.817,10.063 38.659,13.456 38.173,17.523 C43.259,17.542 47.377,21.669 47.377,26.76 C47.377,27.13 47.354,27.494 47.312,27.852 C47.741,27.853 48.173,27.834 48.611,27.774 C53.664,27.07 57.191,22.403 56.488,17.35"/>
    <path fill="#188A45" class='no-color-change' d="M38.173,17.523 C38.081,18.295 38.074,19.09 38.186,19.896 C38.396,21.401 38.963,22.765 39.78,23.928 L38.474,28.008 L42.12,26.235 C43.615,27.26 45.412,27.846 47.312,27.852 C47.354,27.494 47.377,27.13 47.377,26.76 C47.377,21.669 43.259,17.542 38.173,17.523"/>
    <path fill="#2F302E" d="M0.336,32.744 L2.639,29.562 C3.494,30.583 4.919,31.509 6.558,31.509 C7.792,31.509 8.529,30.987 8.529,30.013 C8.529,28.849 7.46,28.517 5.655,27.971 C3.233,27.235 1.096,25.976 1.096,23.103 C1.096,19.944 3.684,17.83 7.341,17.83 C9.883,17.83 11.806,18.614 13.017,19.754 L10.856,22.936 C10.168,22.152 9.004,21.487 7.579,21.487 C6.344,21.487 5.821,21.986 5.821,22.651 C5.821,23.696 7.08,23.981 8.458,24.409 C11.165,25.264 13.255,26.498 13.255,29.562 C13.255,32.768 10.951,35.166 6.795,35.166 C3.732,35.166 1.357,33.86 0.336,32.744"/>
    <polyline fill="#2F302E" points="18.43 22.034 14.322 22.034 14.322 18.163 27.312 18.163 27.312 22.034 23.203 22.034 23.203 34.834 18.43 34.834 18.43 22.034"/>
    <path fill="#2F302E" d="M58.233 25.572C59.824 25.572 60.631 24.955 60.631 23.767 60.631 22.58 59.824 21.963 58.233 21.963L56.855 21.963 56.855 25.572 58.233 25.572zM52.082 18.163L58.993 18.163C62.555 18.163 65.523 19.754 65.523 23.767 65.523 25.715 64.407 27.425 62.151 28.375L66.473 34.834 61.059 34.834 57.568 29.182 56.855 29.182 56.855 34.834 52.082 34.834 52.082 18.163zM71.103 28.897L64.881 18.163 70.105 18.163 72.361 22.271C72.836 23.15 73.501 24.48 73.644 25.358L73.739 25.358C73.881 24.48 74.546 23.15 75.021 22.271L77.277 18.163 82.359 18.163 76.137 28.897 76.137 34.834 71.103 34.834 71.103 28.897"/>
    <polyline fill="#2F302E" points="87.582 22.034 83.473 22.034 83.473 18.163 96.464 18.163 96.464 22.034 92.355 22.034 92.355 34.834 87.582 34.834 87.582 22.034"/>
    <polyline fill="#2F302E" points="98.41 18.163 108.527 18.163 108.527 21.939 103.183 21.939 103.183 24.432 108.431 24.432 108.431 28.208 103.183 28.208 103.183 31.058 108.74 31.058 108.74 34.834 98.41 34.834 98.41 18.163"/>
    <polyline fill="#2F302E" points="110.568 18.163 115.341 18.163 115.341 30.963 120.684 30.963 120.684 34.834 110.568 34.834 110.568 18.163"/>
    <polyline fill="#2F302E" points="122.749 18.163 127.522 18.163 127.522 30.963 132.866 30.963 132.866 34.834 122.749 34.834 122.749 18.163"/>
    <polyline fill="#2F302E" points="134.456 18.163 144.572 18.163 144.572 21.939 139.229 21.939 139.229 24.432 144.477 24.432 144.477 28.208 139.229 28.208 139.229 31.058 144.786 31.058 144.786 34.834 134.456 34.834 134.456 18.163"/>
    <path fill="#2F302E" d="M153.239 25.572C154.83 25.572 155.638 24.955 155.638 23.767 155.638 22.58 154.83 21.963 153.239 21.963L151.861 21.963 151.861 25.572 153.239 25.572zM147.088 18.163L153.999 18.163C157.561 18.163 160.53 19.754 160.53 23.767 160.53 25.715 159.414 27.425 157.157 28.375L161.48 34.834 156.065 34.834 152.574 29.182 151.861 29.182 151.861 34.834 147.088 34.834 147.088 18.163zM161.36 32.744L163.663 29.562C164.518 30.583 165.943 31.509 167.581 31.509 168.816 31.509 169.553 30.987 169.553 30.013 169.553 28.849 168.484 28.517 166.679 27.971 164.257 27.235 162.12 25.976 162.12 23.103 162.12 19.944 164.708 17.83 168.365 17.83 170.906 17.83 172.83 18.614 174.041 19.754L171.88 22.936C171.191 22.152 170.028 21.487 168.603 21.487 167.367 21.487 166.845 21.986 166.845 22.651 166.845 23.696 168.104 23.981 169.482 24.409 172.189 25.264 174.279 26.498 174.279 29.562 174.279 32.768 171.975 35.166 167.819 35.166 164.756 35.166 162.381 33.86 161.36 32.744"/>
    <path fill="#009BD3" class='no-color-change' d="M187.09 26.023C188.895 26.023 189.703 25.406 189.703 24.005 189.703 22.604 188.895 21.963 187.09 21.963L186.283 21.963 186.283 26.023 187.09 26.023zM181.51 18.163L187.827 18.163C192.149 18.163 194.618 20.68 194.618 24.005 194.618 27.329 192.149 29.823 187.827 29.823L186.283 29.823 186.283 34.834 181.51 34.834 181.51 18.163zM202.121 25.572C203.712 25.572 204.52 24.955 204.52 23.767 204.52 22.58 203.712 21.963 202.121 21.963L200.744 21.963 200.744 25.572 202.121 25.572zM195.971 18.163L202.881 18.163C206.444 18.163 209.412 19.754 209.412 23.767 209.412 25.715 208.296 27.425 206.04 28.375L210.362 34.834 204.947 34.834 201.457 29.182 200.744 29.182 200.744 34.834 195.971 34.834 195.971 18.163zM223.802 26.522C223.802 23.53 221.855 21.986 219.528 21.986 217.248 21.986 215.3 23.53 215.3 26.522 215.3 29.491 217.248 31.01 219.528 31.01 221.855 31.01 223.802 29.491 223.802 26.522zM210.408 26.522C210.408 22.414 213.353 17.83 219.551 17.83 225.773 17.83 228.718 22.414 228.718 26.522 228.718 30.607 225.773 35.166 219.551 35.166 213.353 35.166 210.408 30.607 210.408 26.522zM227.457 33.005L229.904 29.989C230.355 30.607 230.973 31.01 231.804 31.01 233.062 31.01 233.418 30.25 233.418 29.348L233.418 18.163 238.192 18.163 238.192 30.013C238.192 33.005 236.007 35.166 232.468 35.166 230.307 35.166 228.36 34.359 227.457 33.005"/>
    <polyline fill="#009BD3" class='no-color-change' points="240.376 18.163 250.492 18.163 250.492 21.939 245.149 21.939 245.149 24.432 250.397 24.432 250.397 28.208 245.149 28.208 245.149 31.058 250.706 31.058 250.706 34.834 240.376 34.834 240.376 18.163"/>
    <path fill="#009BD3" class='no-color-change' d="M251.821,26.498 C251.821,21.369 255.383,17.83 260.727,17.83 C262.698,17.83 264.027,18.306 264.716,18.709 L264.716,23.126 C263.933,22.509 262.626,21.986 261.083,21.986 C258.447,21.986 256.713,23.648 256.713,26.498 C256.713,29.348 258.423,31.01 261.059,31.01 C262.626,31.01 264.051,30.631 264.906,29.871 L264.906,34.288 C264.218,34.691 262.698,35.166 260.703,35.166 C255.312,35.166 251.821,31.652 251.821,26.498"/>
    <polyline fill="#009BD3" class='no-color-change' points="270.485 22.034 266.376 22.034 266.376 18.163 279.367 18.163 279.367 22.034 275.258 22.034 275.258 34.834 270.485 34.834 270.485 22.034"/>
    <path fill="#2F302E" d="M164.69 42.514C165.332 42.514 165.677 42.155 165.677 41.614 165.677 41.079 165.332 40.715 164.69 40.715L164.06 40.715 164.06 42.514 164.69 42.514zM163.391 40.153L164.757 40.153C165.718 40.153 166.361 40.728 166.361 41.614 166.361 42.501 165.705 43.075 164.757 43.075L164.06 43.075 164.06 44.901 163.391 44.901 163.391 40.153zM169.387 43.096L168.934 41.926C168.867 41.749 168.576 41.018 168.569 40.958L168.555 40.958C168.549 41.018 168.265 41.729 168.19 41.926L167.73 43.096 169.387 43.096zM168.272 40.153L168.867 40.153 170.815 44.901 170.097 44.901 169.611 43.657 167.507 43.657 167.02 44.901 166.317 44.901C166.317 44.901 168.034 40.735 168.272 40.153zM172.793 42.419C173.415 42.419 173.767 42.087 173.767 41.567 173.767 41.047 173.415 40.715 172.793 40.715L172.164 40.715 172.164 42.419 172.793 42.419zM171.495 40.153L172.867 40.153C173.753 40.153 174.443 40.614 174.443 41.559 174.443 42.298 173.956 42.784 173.24 42.9L174.694 44.901 173.909 44.901 172.536 42.967 172.164 42.967 172.164 44.901 171.495 44.901 171.495 40.153z"/>
    <polyline fill="#2F302E" points="176.3 40.728 174.947 40.728 174.947 40.153 178.322 40.153 178.322 40.728 176.97 40.728 176.97 44.901 176.3 44.901 176.3 40.728"/>
    <path fill="#2F302E" d="M184.36,42.528 C184.36,41.425 183.596,40.661 182.548,40.661 C181.513,40.661 180.741,41.425 180.741,42.528 C180.741,43.631 181.513,44.394 182.548,44.394 C183.596,44.394 184.36,43.631 184.36,42.528 Z M180.059,42.528 C180.059,41.195 181.025,40.059 182.554,40.059 C184.083,40.059 185.05,41.195 185.05,42.528 C185.05,43.86 184.083,44.996 182.554,44.996 C181.025,44.996 180.059,43.86 180.059,42.528 Z"/>
    <polyline fill="#2F302E" points="186.014 40.153 188.408 40.153 188.408 40.728 186.683 40.728 186.683 42.256 188.354 42.256 188.354 42.832 186.683 42.832 186.683 44.901 186.014 44.901 186.014 40.153"/>
    <polyline fill="#2F302E" points="191.436 40.728 190.083 40.728 190.083 40.153 193.458 40.153 193.458 40.728 192.106 40.728 192.106 44.901 191.436 44.901 191.436 40.728"/>
    <polyline fill="#2F302E" points="194.161 40.153 194.831 40.153 194.831 42.101 197.32 42.101 197.32 40.153 197.99 40.153 197.99 44.901 197.32 44.901 197.32 42.676 194.831 42.676 194.831 44.901 194.161 44.901 194.161 40.153"/>
    <polyline fill="#2F302E" points="199.223 40.153 201.807 40.153 201.807 40.722 199.893 40.722 199.893 42.101 201.753 42.101 201.753 42.67 199.893 42.67 199.893 44.333 201.847 44.333 201.847 44.901 199.223 44.901 199.223 40.153"/>
    <path fill="#2F302E" d="M204.092 43.265L204.092 40.153 204.768 40.153 204.768 43.061C204.768 43.887 205.12 44.394 205.911 44.394 206.709 44.394 207.062 43.887 207.062 43.061L207.062 40.153 207.738 40.153 207.738 43.265C207.738 44.307 207.068 44.996 205.911 44.996 204.748 44.996 204.092 44.307 204.092 43.265M208.437 44.043L208.89 43.657C209.12 44.035 209.485 44.407 210.081 44.407 210.601 44.407 211.007 44.124 211.007 43.602 211.007 43.042 210.54 42.852 209.958 42.622 209.363 42.385 208.761 42.087 208.761 41.33 208.761 40.58 209.343 40.059 210.196 40.059 210.872 40.059 211.318 40.369 211.589 40.775L211.136 41.161C210.953 40.878 210.649 40.646 210.196 40.646 209.735 40.646 209.431 40.884 209.431 41.282 209.431 41.776 209.904 41.939 210.317 42.101 210.987 42.365 211.677 42.683 211.677 43.555 211.677 44.381 211.068 44.996 210.094 44.996 209.282 44.996 208.741 44.571 208.437 44.043M215.104 43.096L214.651 41.926C214.584 41.749 214.293 41.018 214.286 40.958L214.273 40.958C214.266 41.018 213.982 41.729 213.907 41.926L213.448 43.096 215.104 43.096zM213.989 40.153L214.584 40.153 216.532 44.901 215.814 44.901 215.328 43.657 213.224 43.657 212.737 44.901 212.034 44.901C212.034 44.901 213.751 40.735 213.989 40.153z"/>
    <polyline fill="#2F302E" points="219.358 40.728 218.006 40.728 218.006 40.153 221.381 40.153 221.381 40.728 220.028 40.728 220.028 44.901 219.358 44.901 219.358 40.728"/>
    <path fill="#2F302E" d="M225.934 42.528C225.934 41.425 225.169 40.661 224.121 40.661 223.086 40.661 222.315 41.425 222.315 42.528 222.315 43.631 223.086 44.394 224.121 44.394 225.169 44.394 225.934 43.631 225.934 42.528zM221.632 42.528C221.632 41.195 222.599 40.059 224.128 40.059 225.656 40.059 226.624 41.195 226.624 42.528 226.624 43.86 225.656 44.996 224.128 44.996 222.599 44.996 221.632 43.86 221.632 42.528zM228.257 44.326L228.879 44.326C229.988 44.326 230.759 43.739 230.759 42.528 230.759 41.316 229.988 40.728 228.879 40.728L228.257 40.728 228.257 44.326zM227.587 40.153L228.933 40.153C230.449 40.153 231.449 41.018 231.449 42.528 231.449 44.029 230.441 44.901 228.933 44.901L227.587 44.901 227.587 40.153zM234.741 43.096L234.288 41.926C234.22 41.749 233.929 41.018 233.922 40.958L233.909 40.958C233.902 41.018 233.618 41.729 233.543 41.926L233.084 43.096 234.741 43.096zM233.625 40.153L234.22 40.153 236.168 44.901 235.451 44.901 234.964 43.657 232.861 43.657 232.374 44.901 231.67 44.901C231.67 44.901 233.388 40.735 233.625 40.153zM237.505 42.967L235.889 40.153 236.64 40.153 237.519 41.736C237.56 41.81 237.843 42.332 237.857 42.412L237.864 42.412C237.878 42.332 238.161 41.81 238.202 41.736L239.088 40.153 239.818 40.153 238.202 42.967 238.202 44.901 237.505 44.901 237.505 42.967M241.786 40.153L242.299 40.153 244.992 43.23C245.072 43.319 245.424 43.758 245.459 43.826L245.472 43.819C245.459 43.752 245.459 43.204 245.459 43.082L245.459 40.153 246.108 40.153 246.108 44.901 245.587 44.901 242.895 41.823C242.814 41.736 242.462 41.296 242.428 41.229L242.422 41.235C242.428 41.303 242.435 41.852 242.435 41.973L242.435 44.901 241.786 44.901 241.786 40.153"/>
    <polyline fill="#2F302E" points="247.341 40.153 249.925 40.153 249.925 40.722 248.011 40.722 248.011 42.101 249.871 42.101 249.871 42.67 248.011 42.67 248.011 44.333 249.965 44.333 249.965 44.901 247.341 44.901 247.341 40.153"/>
    <polyline fill="#2F302E" points="252.02 40.728 250.667 40.728 250.667 40.153 254.042 40.153 254.042 40.728 252.689 40.728 252.689 44.901 252.02 44.901 252.02 40.728"/>
    <path fill="#2F302E" d="M254.6 40.153L255.31 40.153 256.284 42.974C256.318 43.082 256.548 43.785 256.555 43.893L256.569 43.893C256.575 43.785 256.812 43.082 256.853 42.974L257.867 40.153 258.402 40.153 259.416 42.974C259.457 43.082 259.693 43.785 259.701 43.893L259.714 43.893C259.727 43.785 259.957 43.082 259.991 42.974L260.958 40.153 261.641 40.153 259.97 44.901 259.457 44.901 258.361 41.939C258.327 41.837 258.138 41.276 258.131 41.168L258.117 41.168C258.111 41.276 257.914 41.837 257.881 41.939L256.792 44.901 256.277 44.901 254.6 40.153M266.242 42.528C266.242 41.425 265.478 40.661 264.43 40.661 263.395 40.661 262.623 41.425 262.623 42.528 262.623 43.631 263.395 44.394 264.43 44.394 265.478 44.394 266.242 43.631 266.242 42.528zM261.941 42.528C261.941 41.195 262.907 40.059 264.437 40.059 265.965 40.059 266.932 41.195 266.932 42.528 266.932 43.86 265.965 44.996 264.437 44.996 262.907 44.996 261.941 43.86 261.941 42.528zM269.195 42.419C269.817 42.419 270.169 42.087 270.169 41.567 270.169 41.047 269.817 40.715 269.195 40.715L268.565 40.715 268.565 42.419 269.195 42.419zM267.896 40.153L269.269 40.153C270.155 40.153 270.845 40.614 270.845 41.559 270.845 42.298 270.358 42.784 269.641 42.9L271.095 44.901 270.31 44.901 268.938 42.967 268.565 42.967 268.565 44.901 267.896 44.901 267.896 40.153z"/>
    <polyline fill="#2F302E" points="271.854 40.153 272.523 40.153 272.523 42.359 274.484 40.153 275.296 40.153 273.261 42.419 275.391 44.901 274.553 44.901 272.523 42.501 272.523 44.901 271.854 44.901 271.854 40.153"/>
    <path fill="#2F302E" d="M1.3389974,10.970275 L1.3389974,2.31229841 L2.2763282,2.31229841 L7.1849816,7.92394991 C7.3329812,8.08428281 7.9743128,8.88594731 8.0359793,9.00928031 L8.0606459,8.99694701 C8.0359793,8.87361401 8.0359793,7.87461671 8.0359793,7.65261731 L8.0359793,2.31229841 L9.2199761,2.31229841 L9.2199761,10.970275 L8.270312,10.970275 L3.3616586,5.35862351 C3.213659,5.19829061 2.5723274,4.39662611 2.5106609,4.27329311 L2.4983276,4.28562641 C2.5106609,4.40895941 2.5229942,5.40795671 2.5229942,5.62995611 L2.5229942,10.970275 L1.3389974,10.970275 Z M13.7046307,11.1182746 C11.5956364,11.1182746 10.633639,9.44094581 10.633639,7.89928331 C10.633639,6.22195451 11.7806359,4.72962521 13.7046307,4.72962521 C14.7776278,4.72962521 15.5176258,5.24762381 15.9492913,5.92595531 L15.9739579,5.92595531 L15.9739579,4.87762481 L17.0839549,4.87762481 L17.0839549,10.970275 L15.9739579,10.970275 L15.9739579,9.92194451 L15.9492913,9.92194451 C15.5176258,10.600276 14.7776278,11.1182746 13.7046307,11.1182746 Z M13.8649636,10.1439439 C15.0859603,10.1439439 15.9246247,9.18194651 15.9246247,7.92394991 C15.9246247,6.69061991 15.1106269,5.70395591 13.8649636,5.70395591 C12.6316336,5.70395591 11.8176358,6.67828661 11.8176358,7.92394991 C11.8176358,9.18194651 12.6563002,10.1439439 13.8649636,10.1439439 Z M20.6806119,11.1182746 C19.4719485,11.1182746 18.6826173,10.5386095 18.2879517,9.97127771 L18.9786165,9.28061291 C19.3239489,9.72461171 19.8419475,10.1809438 20.6682786,10.1809438 C21.3466101,10.1809438 21.8892753,9.87261131 21.8892753,9.28061291 C21.8892753,8.62694801 21.1986105,8.39261531 20.4339459,8.14594931 C19.5212817,7.84995011 18.670284,7.44295121 18.670284,6.44395391 C18.670284,5.39562341 19.5952815,4.72962521 20.8409448,4.72962521 C21.8399421,4.72962521 22.5306069,5.16129071 22.8882726,5.61762281 L22.2222744,6.33295421 C21.9386085,5.97528851 21.4946097,5.66695601 20.8409448,5.66695601 C20.2366131,5.66695601 19.8172809,5.93828861 19.8172809,6.38228741 C19.8172809,6.94961921 20.4832791,7.13461871 21.0629442,7.33195151 C21.9756084,7.64028401 23.0362722,8.01028301 23.0362722,9.20661311 C23.0362722,10.3659433 22.0496082,11.1182746 20.6806119,11.1182746 Z M24.3882686,10.970275 L24.3882686,2.31229841 L25.5475988,2.31229841 L25.5475988,5.69162261 L25.5722654,5.69162261 C25.9422644,5.17362401 26.4972629,4.72962521 27.4839269,4.72962521 C28.9515896,4.72962521 29.8272539,5.65462271 29.8272539,7.25795171 L29.8272539,10.970275 L28.6555904,10.970275 L28.6555904,7.46761781 C28.6555904,6.32062091 28.1745917,5.69162261 27.1879277,5.69162261 C26.1642638,5.69162261 25.5475988,6.35762081 25.5475988,7.50461771 L25.5475988,10.970275 L24.3882686,10.970275 Z M33.263578,10.970275 L30.5749186,4.87762481 L31.8329152,4.87762481 L33.263578,8.23228241 C33.3992443,8.54061491 33.6582436,9.30527951 33.6705769,9.36694601 L33.6952435,9.36694601 C33.7075768,9.30527951 33.9419095,8.57761481 34.0899091,8.23228241 L35.5205719,4.87762481 L36.7539019,4.87762481 L34.0529092,10.970275 L33.263578,10.970275 Z M38.1922314,4.00196051 C37.7728992,4.00196051 37.4522334,3.70596131 37.4522334,3.28662911 C37.4522334,2.87963021 37.7728992,2.57129771 38.1922314,2.57129771 C38.6115636,2.57129771 38.9322294,2.87963021 38.9322294,3.28662911 C38.9322294,3.70596131 38.6115636,4.00196051 38.1922314,4.00196051 Z M37.6125663,10.970275 L37.6125663,4.87762481 L38.7718965,4.87762481 L38.7718965,10.970275 L37.6125663,10.970275 Z M40.6172249,10.970275 L40.6172249,2.31229841 L41.7765551,2.31229841 L41.7765551,10.970275 L40.6172249,10.970275 Z M43.6218835,10.970275 L43.6218835,2.31229841 L44.7812137,2.31229841 L44.7812137,10.970275 L43.6218835,10.970275 Z M49.3645347,11.1182746 C47.1938739,11.1182746 46.1578767,9.49027901 46.1578767,7.92394991 C46.1578767,6.45628721 47.0582076,4.72962521 49.2658683,4.72962521 C51.4611957,4.72962521 52.3245267,6.41928731 52.3245267,7.86228341 C52.3245267,7.94861651 52.3245267,8.01028301 52.3121934,8.14594931 L47.3048736,8.14594931 C47.3295402,9.32994611 48.1805379,10.1809438 49.4262012,10.1809438 C50.3141988,10.1809438 50.980197,9.74927831 51.3625293,9.07094681 L52.2011937,9.60127871 C51.6091953,10.6249426 50.5608648,11.1182746 49.3645347,11.1182746 Z M47.3418735,7.30728491 L51.1775298,7.30728491 C50.9925303,6.27128771 50.240199,5.61762281 49.2658683,5.61762281 C48.2545377,5.61762281 47.526873,6.30828761 47.3418735,7.30728491 Z"/>
  </g>
</svg>
