<svg xmlns="http://www.w3.org/2000/svg" width="1920" height="250" viewBox="0 0 1920 250">
  <g fill="none" fill-rule="evenodd">
    <path fill="#009BD3" class='no-color-change' d="M262.425,144.476 L271.415,116.4 C265.789,108.401 261.888,99.013 260.448,88.66 C259.675,83.108 259.72,77.643 260.356,72.327 C260.276,72.327 260.198,72.314 260.118,72.314 C225.008,72.314 196.546,100.777 196.546,135.886 C196.546,170.996 225.008,199.458 260.118,199.458 C276.616,199.458 291.596,193.12 302.896,182.815 L329.424,191.442 L316.651,164.873 C320.032,158.292 322.32,151.058 323.236,143.401 C310.164,143.363 297.799,139.33 287.511,132.274 L262.425,144.476"/>
    <path fill="#E3DB34" class='no-color-change' d="M386.378,71.135 C381.538,36.36 349.424,12.093 314.65,16.933 C285.427,20.999 263.701,44.345 260.356,72.327 C295.355,72.456 323.69,100.857 323.69,135.886 C323.69,138.431 323.531,140.937 323.236,143.401 C326.189,143.41 329.165,143.282 332.175,142.863 C366.95,138.023 391.217,105.91 386.378,71.135"/>
    <path fill="#188A45" class='no-color-change' d="M260.356,72.327 C259.72,77.643 259.675,83.108 260.448,88.66 C261.888,99.013 265.789,108.401 271.415,116.4 L262.425,144.476 L287.511,132.274 C297.799,139.33 310.164,143.363 323.236,143.401 C323.531,140.937 323.69,138.431 323.69,135.886 C323.69,100.857 295.355,72.456 260.356,72.327"/>
    <path fill="#2F302E" d="M0,177.065 L15.849,155.17 C21.733,162.195 31.536,168.569 42.811,168.569 C51.308,168.569 56.376,164.973 56.376,158.272 C56.376,150.264 49.023,147.98 36.604,144.218 C19.934,139.156 5.229,130.493 5.229,110.721 C5.229,88.988 23.04,74.443 48.202,74.443 C65.689,74.443 78.925,79.836 87.26,87.679 L72.39,109.577 C67.651,104.183 59.643,99.608 49.84,99.608 C41.339,99.608 37.744,103.039 37.744,107.615 C37.744,114.806 46.406,116.767 55.886,119.707 C74.513,125.591 88.894,134.088 88.894,155.17 C88.894,177.227 73.041,193.731 44.445,193.731 C23.367,193.731 7.025,184.744 0,177.065"/>
    <polyline fill="#2F302E" points="124.507 103.367 96.235 103.367 96.235 76.732 185.623 76.732 185.623 103.367 157.35 103.367 157.35 191.446 124.507 191.446 124.507 103.367"/>
    <path fill="#2F302E" d="M398.385 127.714C409.333 127.714 414.889 123.466 414.889 115.295 414.889 107.125 409.333 102.877 398.385 102.877L388.905 102.877 388.905 127.714 398.385 127.714zM356.063 76.732L403.614 76.732C428.126 76.732 448.552 87.679 448.552 115.295 448.552 128.695 440.873 140.461 425.347 146.996L455.088 191.446 417.829 191.446 393.811 152.553 388.905 152.553 388.905 191.446 356.063 191.446 356.063 76.732zM486.944 150.592L444.129 76.732 480.081 76.732 495.602 105C498.87 111.046 503.448 120.198 504.427 126.244L505.082 126.244C506.061 120.198 510.638 111.046 513.906 105L529.428 76.732 564.398 76.732 521.586 150.592 521.586 191.446 486.944 191.446 486.944 150.592"/>
    <polyline fill="#2F302E" points="600.338 103.367 572.066 103.367 572.066 76.732 661.453 76.732 661.453 103.367 633.18 103.367 633.18 191.446 600.338 191.446 600.338 103.367"/>
    <polyline fill="#2F302E" points="674.843 76.732 744.455 76.732 744.455 102.713 707.686 102.713 707.686 119.871 743.8 119.871 743.8 145.852 707.686 145.852 707.686 165.462 745.923 165.462 745.923 191.446 674.843 191.446 674.843 76.732"/>
    <polyline fill="#2F302E" points="758.501 76.732 791.343 76.732 791.343 164.811 828.113 164.811 828.113 191.446 758.501 191.446 758.501 76.732"/>
    <polyline fill="#2F302E" points="842.32 76.732 875.163 76.732 875.163 164.811 911.932 164.811 911.932 191.446 842.32 191.446 842.32 76.732"/>
    <polyline fill="#2F302E" points="922.872 76.732 992.484 76.732 992.484 102.713 955.714 102.713 955.714 119.871 991.828 119.871 991.828 145.852 955.714 145.852 955.714 165.462 993.951 165.462 993.951 191.446 922.872 191.446 922.872 76.732"/>
    <path fill="#2F302E" d="M1052.12 127.714C1063.07 127.714 1068.62 123.466 1068.62 115.295 1068.62 107.125 1063.07 102.877 1052.12 102.877L1042.64 102.877 1042.64 127.714 1052.12 127.714zM1009.8 76.732L1057.35 76.732C1081.86 76.732 1102.29 87.679 1102.29 115.295 1102.29 128.695 1094.61 140.461 1079.08 146.996L1108.82 191.446 1071.56 191.446 1047.55 152.553 1042.64 152.553 1042.64 191.446 1009.8 191.446 1009.8 76.732zM1108 177.065L1123.85 155.17C1129.73 162.195 1139.53 168.569 1150.81 168.569 1159.3 168.569 1164.37 164.973 1164.37 158.272 1164.37 150.264 1157.02 147.98 1144.6 144.218 1127.93 139.156 1113.23 130.493 1113.23 110.721 1113.23 88.988 1131.04 74.443 1156.2 74.443 1173.69 74.443 1186.92 79.836 1195.26 87.679L1180.39 109.577C1175.65 104.183 1167.64 99.608 1157.84 99.608 1149.34 99.608 1145.74 103.039 1145.74 107.615 1145.74 114.806 1154.4 116.767 1163.88 119.707 1182.51 125.591 1196.89 134.088 1196.89 155.17 1196.89 177.227 1181.04 193.731 1152.44 193.731 1131.36 193.731 1115.02 184.744 1108 177.065"/>
    <path fill="#009BD3" class='no-color-change' d="M1285.05 130.821C1297.47 130.821 1303.02 126.57 1303.02 116.929 1303.02 107.289 1297.47 102.877 1285.05 102.877L1279.49 102.877 1279.49 130.821 1285.05 130.821zM1246.65 76.732L1290.11 76.732C1319.86 76.732 1336.85 94.053 1336.85 116.929 1336.85 139.806 1319.86 156.965 1290.11 156.965L1279.49 156.965 1279.49 191.446 1246.65 191.446 1246.65 76.732zM1388.48 127.714C1399.42 127.714 1404.98 123.466 1404.98 115.295 1404.98 107.125 1399.42 102.877 1388.48 102.877L1379 102.877 1379 127.714 1388.48 127.714zM1346.15 76.732L1393.71 76.732C1418.22 76.732 1438.64 87.679 1438.64 115.295 1438.64 128.695 1430.96 140.461 1415.44 146.996L1445.18 191.446 1407.92 191.446 1383.9 152.553 1379 152.553 1379 191.446 1346.15 191.446 1346.15 76.732zM1537.66 134.251C1537.66 113.661 1524.26 103.039 1508.25 103.039 1492.56 103.039 1479.16 113.661 1479.16 134.251 1479.16 154.677 1492.56 165.135 1508.25 165.135 1524.26 165.135 1537.66 154.677 1537.66 134.251zM1445.5 134.251C1445.5 105.981 1465.76 74.443 1508.41 74.443 1551.22 74.443 1571.49 105.981 1571.49 134.251 1571.49 162.357 1551.22 193.731 1508.41 193.731 1465.76 193.731 1445.5 162.357 1445.5 134.251zM1562.81 178.861L1579.64 158.11C1582.75 162.357 1587 165.135 1592.72 165.135 1601.38 165.135 1603.83 159.906 1603.83 153.698L1603.83 76.732 1636.67 76.732 1636.67 158.272C1636.67 178.861 1621.64 193.731 1597.29 193.731 1582.42 193.731 1569.02 188.178 1562.81 178.861"/>
    <polyline fill="#009BD3" class='no-color-change' points="1651.7 76.732 1721.31 76.732 1721.31 102.713 1684.55 102.713 1684.55 119.871 1720.66 119.871 1720.66 145.852 1684.55 145.852 1684.55 165.462 1722.79 165.462 1722.79 191.446 1651.7 191.446 1651.7 76.732"/>
    <path fill="#009BD3" class='no-color-change' d="M1730.46,134.088 C1730.46,98.79 1754.97,74.443 1791.74,74.443 C1805.3,74.443 1814.45,77.712 1819.19,80.489 L1819.19,110.883 C1813.8,106.634 1804.81,103.039 1794.19,103.039 C1776.05,103.039 1764.12,114.478 1764.12,134.088 C1764.12,153.698 1775.89,165.135 1794.02,165.135 C1804.81,165.135 1814.61,162.522 1820.49,157.293 L1820.49,187.685 C1815.76,190.463 1805.3,193.731 1791.57,193.731 C1754.48,193.731 1730.46,169.547 1730.46,134.088"/>
    <polyline fill="#009BD3" class='no-color-change' points="1858.88 103.367 1830.61 103.367 1830.61 76.732 1920 76.732 1920 103.367 1891.73 103.367 1891.73 191.446 1858.88 191.446 1858.88 103.367"/>
    <path fill="#2F302E" d="M1254.12 235.719C1257.82 235.719 1259.8 233.655 1259.8 230.54 1259.8 227.461 1257.82 225.363 1254.12 225.363L1250.5 225.363 1250.5 235.719 1254.12 235.719zM1246.65 222.129L1254.51 222.129C1260.04 222.129 1263.74 225.439 1263.74 230.54 1263.74 235.642 1259.96 238.944 1254.51 238.944L1250.5 238.944 1250.5 249.454 1246.65 249.454 1246.65 222.129zM1281.15 239.064L1278.55 232.332C1278.16 231.317 1276.48 227.112 1276.44 226.762L1276.37 226.762C1276.33 227.112 1274.69 231.198 1274.26 232.332L1271.62 239.064 1281.15 239.064zM1274.73 222.129L1278.16 222.129 1289.37 249.454 1285.24 249.454 1282.44 242.296 1270.34 242.296 1267.53 249.454 1263.48 249.454C1263.48 249.454 1273.37 225.482 1274.73 222.129zM1300.75 235.173C1304.33 235.173 1306.36 233.262 1306.36 230.268 1306.36 227.274 1304.33 225.363 1300.75 225.363L1297.13 225.363 1297.13 235.173 1300.75 235.173zM1293.28 222.129L1301.18 222.129C1306.28 222.129 1310.25 224.783 1310.25 230.225 1310.25 234.474 1307.45 237.272 1303.32 237.937L1311.69 249.454 1307.17 249.454 1299.27 238.322 1297.13 238.322 1297.13 249.454 1293.28 249.454 1293.28 222.129z"/>
    <polyline fill="#2F302E" points="1320.93 225.439 1313.15 225.439 1313.15 222.129 1332.57 222.129 1332.57 225.439 1324.78 225.439 1324.78 249.454 1320.93 249.454 1320.93 225.439"/>
    <path fill="#2F302E" d="M1367.31,235.796 C1367.31,229.449 1362.91,225.055 1356.88,225.055 C1350.93,225.055 1346.49,229.449 1346.49,235.796 C1346.49,242.143 1350.93,246.536 1356.88,246.536 C1362.91,246.536 1367.31,242.143 1367.31,235.796 Z M1342.56,235.796 C1342.56,228.126 1348.12,221.592 1356.92,221.592 C1365.72,221.592 1371.28,228.126 1371.28,235.796 C1371.28,243.465 1365.72,250 1356.92,250 C1348.12,250 1342.56,243.465 1342.56,235.796 Z"/>
    <polyline fill="#2F302E" points="1376.83 222.129 1390.61 222.129 1390.61 225.439 1380.68 225.439 1380.68 234.235 1390.29 234.235 1390.29 237.545 1380.68 237.545 1380.68 249.454 1376.83 249.454 1376.83 222.129"/>
    <polyline fill="#2F302E" points="1408.03 225.439 1400.25 225.439 1400.25 222.129 1419.67 222.129 1419.67 225.439 1411.88 225.439 1411.88 249.454 1408.03 249.454 1408.03 225.439"/>
    <polyline fill="#2F302E" points="1423.71 222.129 1427.56 222.129 1427.56 233.339 1441.89 233.339 1441.89 222.129 1445.74 222.129 1445.74 249.454 1441.89 249.454 1441.89 236.649 1427.56 236.649 1427.56 249.454 1423.71 249.454 1423.71 222.129"/>
    <polyline fill="#2F302E" points="1452.84 222.129 1467.71 222.129 1467.71 225.406 1456.69 225.406 1456.69 233.339 1467.39 233.339 1467.39 236.615 1456.69 236.615 1456.69 246.187 1467.94 246.187 1467.94 249.454 1452.84 249.454 1452.84 222.129"/>
    <path fill="#2F302E" d="M1480.86 240.036L1480.86 222.129 1484.75 222.129 1484.75 238.868C1484.75 243.619 1486.77 246.536 1491.32 246.536 1495.92 246.536 1497.94 243.619 1497.94 238.868L1497.94 222.129 1501.83 222.129 1501.83 240.036C1501.83 246.034 1497.98 250 1491.32 250 1484.63 250 1480.86 246.034 1480.86 240.036M1505.86 244.515L1508.47 242.296C1509.79 244.472 1511.89 246.614 1515.32 246.614 1518.31 246.614 1520.65 244.984 1520.65 241.981 1520.65 238.756 1517.96 237.664 1514.61 236.342 1511.19 234.977 1507.72 233.262 1507.72 228.903 1507.72 224.586 1511.07 221.592 1515.98 221.592 1519.87 221.592 1522.44 223.374 1524 225.712L1521.39 227.93C1520.34 226.301 1518.59 224.97 1515.98 224.97 1513.33 224.97 1511.58 226.335 1511.58 228.63 1511.58 231.471 1514.3 232.41 1516.68 233.339 1520.53 234.858 1524.5 236.692 1524.5 241.708 1524.5 246.459 1521 250 1515.39 250 1510.72 250 1507.61 247.552 1505.86 244.515M1544.22 239.064L1541.62 232.332C1541.23 231.317 1539.55 227.112 1539.52 226.762L1539.44 226.762C1539.4 227.112 1537.77 231.198 1537.34 232.332L1534.69 239.064 1544.22 239.064zM1537.8 222.129L1541.23 222.129 1552.44 249.454 1548.31 249.454 1545.51 242.296 1533.41 242.296 1530.6 249.454 1526.56 249.454C1526.56 249.454 1536.44 225.482 1537.8 222.129z"/>
    <polyline fill="#2F302E" points="1568.7 225.439 1560.92 225.439 1560.92 222.129 1580.34 222.129 1580.34 225.439 1572.56 225.439 1572.56 249.454 1568.7 249.454 1568.7 225.439"/>
    <path fill="#2F302E" d="M1606.54 235.796C1606.54 229.449 1602.14 225.055 1596.11 225.055 1590.16 225.055 1585.72 229.449 1585.72 235.796 1585.72 242.143 1590.16 246.536 1596.11 246.536 1602.14 246.536 1606.54 242.143 1606.54 235.796zM1581.79 235.796C1581.79 228.126 1587.35 221.592 1596.15 221.592 1604.94 221.592 1610.51 228.126 1610.51 235.796 1610.51 243.465 1604.94 250 1596.15 250 1587.35 250 1581.79 243.465 1581.79 235.796zM1619.91 246.144L1623.49 246.144C1629.87 246.144 1634.31 242.766 1634.31 235.796 1634.31 228.827 1629.87 225.439 1623.49 225.439L1619.91 225.439 1619.91 246.144zM1616.06 222.129L1623.8 222.129C1632.52 222.129 1638.28 227.112 1638.28 235.796 1638.28 244.438 1632.48 249.454 1623.8 249.454L1616.06 249.454 1616.06 222.129zM1657.22 239.064L1654.61 232.332C1654.22 231.317 1652.55 227.112 1652.51 226.762L1652.43 226.762C1652.39 227.112 1650.76 231.198 1650.33 232.332L1647.69 239.064 1657.22 239.064zM1650.8 222.129L1654.22 222.129 1665.43 249.454 1661.3 249.454 1658.51 242.296 1646.4 242.296 1643.6 249.454 1639.55 249.454C1639.55 249.454 1649.43 225.482 1650.8 222.129zM1673.13 238.322L1663.83 222.129 1668.15 222.129 1673.21 231.241C1673.44 231.667 1675.07 234.67 1675.15 235.13L1675.19 235.13C1675.27 234.67 1676.9 231.667 1677.14 231.241L1682.24 222.129 1686.44 222.129 1677.14 238.322 1677.14 249.454 1673.13 249.454 1673.13 238.322M1697.76 222.129L1700.71 222.129 1716.21 239.84C1716.67 240.352 1718.7 242.876 1718.89 243.269L1718.97 243.227C1718.89 242.843 1718.89 239.686 1718.89 238.987L1718.89 222.129 1722.63 222.129 1722.63 249.454 1719.63 249.454 1704.14 231.744C1703.67 231.241 1701.65 228.706 1701.46 228.323L1701.42 228.357C1701.46 228.749 1701.5 231.906 1701.5 232.606L1701.5 249.454 1697.76 249.454 1697.76 222.129"/>
    <polyline fill="#2F302E" points="1729.73 222.129 1744.59 222.129 1744.59 225.406 1733.58 225.406 1733.58 233.339 1744.29 233.339 1744.29 236.615 1733.58 236.615 1733.58 246.187 1744.83 246.187 1744.83 249.454 1729.73 249.454 1729.73 222.129"/>
    <polyline fill="#2F302E" points="1756.65 225.439 1748.86 225.439 1748.86 222.129 1768.28 222.129 1768.28 225.439 1760.5 225.439 1760.5 249.454 1756.65 249.454 1756.65 225.439"/>
    <path fill="#2F302E" d="M1771.5 222.129L1775.58 222.129 1781.19 238.364C1781.38 238.987 1782.71 243.031 1782.75 243.653L1782.83 243.653C1782.86 243.031 1784.22 238.987 1784.46 238.364L1790.3 222.129 1793.37 222.129 1799.21 238.364C1799.44 238.987 1800.8 243.031 1800.85 243.653L1800.92 243.653C1801 243.031 1802.32 238.987 1802.52 238.364L1808.09 222.129 1812.01 222.129 1802.4 249.454 1799.44 249.454 1793.14 232.41C1792.94 231.821 1791.86 228.596 1791.81 227.973L1791.74 227.973C1791.7 228.596 1790.57 231.821 1790.38 232.41L1784.11 249.454 1781.15 249.454 1771.5 222.129M1838.49 235.796C1838.49 229.449 1834.09 225.055 1828.06 225.055 1822.11 225.055 1817.67 229.449 1817.67 235.796 1817.67 242.143 1822.11 246.536 1828.06 246.536 1834.09 246.536 1838.49 242.143 1838.49 235.796zM1813.74 235.796C1813.74 228.126 1819.3 221.592 1828.1 221.592 1836.9 221.592 1842.46 228.126 1842.46 235.796 1842.46 243.465 1836.9 250 1828.1 250 1819.3 250 1813.74 243.465 1813.74 235.796zM1855.48 235.173C1859.06 235.173 1861.09 233.262 1861.09 230.268 1861.09 227.274 1859.06 225.363 1855.48 225.363L1851.86 225.363 1851.86 235.173 1855.48 235.173zM1848.01 222.129L1855.91 222.129C1861.01 222.129 1864.98 224.783 1864.98 230.225 1864.98 234.474 1862.17 237.272 1858.05 237.937L1866.42 249.454 1861.9 249.454 1854 238.322 1851.86 238.322 1851.86 249.454 1848.01 249.454 1848.01 222.129z"/>
    <polyline fill="#2F302E" points="1870.78 222.129 1874.63 222.129 1874.63 234.824 1885.92 222.129 1890.59 222.129 1878.88 235.173 1891.14 249.454 1886.31 249.454 1874.63 235.642 1874.63 249.454 1870.78 249.454 1870.78 222.129"/>
    <path fill="#2F302E" d="M.657 39.548L5.059 35.803C7.293 39.482 10.841 43.096 16.623 43.096 21.683 43.096 25.625 40.336 25.625 35.277 25.625 29.824 21.091 27.984 15.441 25.75 9.659 23.451 3.811 20.559 3.811 13.201 3.811 5.908 9.462.848 17.74.848 24.311.848 28.647 3.87 31.276 7.813L26.873 11.558C25.099 8.798 22.143 6.564 17.74 6.564 13.273 6.564 10.316 8.864 10.316 12.741 10.316 17.537 14.915 19.114 18.923 20.691 25.428 23.253 32.13 26.341 32.13 34.817 32.13 42.833 26.216 48.812 16.755 48.812 8.87 48.812 3.614 44.673.657 39.548M64.13 31.663C64.13 24.764 59.333 19.902 53.026 19.902 46.718 19.902 41.922 24.764 41.922 31.663 41.922 38.562 46.718 43.425 53.026 43.425 59.333 43.425 64.13 38.562 64.13 31.663zM35.679 31.663C35.679 23.451 41.593 14.646 53.026 14.646 64.392 14.646 70.371 23.451 70.371 31.663 70.371 39.876 64.392 48.681 53.026 48.681 41.593 48.681 35.679 39.876 35.679 31.663zM75.695 35.211L75.695 15.434 81.871 15.434 81.871 34.095C81.871 40.336 84.302 43.556 89.493 43.556 94.881 43.556 97.904 40.008 97.904 33.897L97.904 15.434 104.145 15.434 104.145 47.892 98.166 47.892 98.166 43.556 98.035 43.556C96.195 46.316 93.37 48.681 88.047 48.681 80.032 48.681 75.695 43.687 75.695 35.211M113.477 39.022L113.477 20.362 108.878 20.362 108.878 15.434 113.477 15.434 113.477 6.63 119.719 6.63 119.719 15.434 127.407 15.434 127.407 20.362 119.719 20.362 119.719 38.365C119.719 41.848 120.902 43.359 123.53 43.359 125.042 43.359 126.224 43.161 127.012 42.767L127.012 47.892C125.896 48.221 124.318 48.484 122.216 48.484 116.106 48.484 113.477 45.264 113.477 39.022M132.73 1.768L138.906 1.768 138.906 19.771 139.037 19.771C141.008 17.012 143.965 14.646 149.221 14.646 157.04 14.646 161.705 19.574 161.705 28.116L161.705 47.892 155.463 47.892 155.463 29.232C155.463 23.122 152.901 19.771 147.644 19.771 142.191 19.771 138.906 23.319 138.906 29.429L138.906 47.892 132.73 47.892 132.73 1.768M165.124 15.434L171.563 15.434 177.739 34.095C178.068 35.08 179.381 39.68 179.513 40.468L179.644 40.468C179.71 39.68 181.155 35.08 181.418 34.226L187.726 15.434 193.114 15.434 199.487 34.226C199.881 35.408 201.195 39.68 201.261 40.468L201.392 40.468C201.458 39.68 202.707 35.408 203.167 34.095L209.342 15.434 215.65 15.434 204.087 47.892 198.698 47.892 192.128 28.838C191.603 27.261 190.485 23.451 190.42 22.728L190.288 22.728C190.223 23.451 189.237 27.196 188.646 28.838L182.075 47.892 176.622 47.892 165.124 15.434M243.578 28.378C242.592 22.859 238.584 19.377 233.394 19.377 228.006 19.377 224.13 23.056 223.144 28.378L243.578 28.378zM216.836 31.663C216.836 23.845 221.632 14.646 233.394 14.646 245.089 14.646 249.688 23.647 249.688 31.335 249.688 31.795 249.688 32.123 249.623 32.846L222.947 32.846C223.078 39.154 227.612 43.687 234.248 43.687 238.979 43.687 242.527 41.388 244.564 37.774L249.031 40.599C245.878 46.053 240.293 48.681 233.92 48.681 222.355 48.681 216.836 40.008 216.836 31.663zM252.187 42.57L255.867 38.891C257.707 41.256 260.466 43.687 264.868 43.687 268.482 43.687 271.373 42.045 271.373 38.891 271.373 35.408 267.693 34.16 263.62 32.846 258.758 31.269 254.224 29.101 254.224 23.779 254.224 18.194 259.152 14.646 265.788 14.646 271.11 14.646 274.79 16.946 276.695 19.377L273.147 23.188C271.636 21.282 269.271 19.639 265.788 19.639 262.568 19.639 260.335 21.085 260.335 23.451 260.335 26.473 263.882 27.458 266.971 28.51 271.833 30.152 277.484 32.123 277.484 38.497 277.484 44.673 272.227 48.681 264.934 48.681 258.495 48.681 254.29 45.593 252.187 42.57M284.186 39.022L284.186 20.362 279.587 20.362 279.587 15.434 284.186 15.434 284.186 6.63 290.428 6.63 290.428 15.434 298.116 15.434 298.116 20.362 290.428 20.362 290.428 38.365C290.428 41.848 291.611 43.359 294.239 43.359 295.751 43.359 296.933 43.161 297.721 42.767L297.721 47.892C296.605 48.221 295.027 48.484 292.925 48.484 286.815 48.484 284.186 45.264 284.186 39.022"/>
    <polyline fill="#2F302E" points="316.449 1.768 339.708 1.768 339.708 7.353 322.954 7.353 322.954 22.202 339.182 22.202 339.182 27.787 322.954 27.787 322.954 47.892 316.449 47.892 316.449 1.768"/>
    <polygon fill="#2F302E" points="345.097 47.892 351.273 47.892 351.273 1.768 345.097 1.768"/>
    <path fill="#2F302E" d="M385.637 31.663C385.637 24.764 380.841 19.902 374.533 19.902 368.226 19.902 363.429 24.764 363.429 31.663 363.429 38.562 368.226 43.425 374.533 43.425 380.841 43.425 385.637 38.562 385.637 31.663zM357.187 31.663C357.187 23.451 363.101 14.646 374.533 14.646 385.9 14.646 391.879 23.451 391.879 31.663 391.879 39.876 385.9 48.681 374.533 48.681 363.101 48.681 357.187 39.876 357.187 31.663zM397.795 15.434L403.708 15.434 403.708 20.165 403.839 20.165C405.613 16.617 408.373 14.646 412.644 14.646 413.892 14.646 415.075 14.843 416.126 15.106L416.126 20.953C415.075 20.559 413.498 20.231 411.986 20.231 406.73 20.231 403.97 24.107 403.97 30.678L403.97 47.892 397.795 47.892 397.795 15.434M420.858 47.892L427.034 47.892 427.034 15.434 420.858 15.434 420.858 47.892zM420.003 6.959C420.003 4.79 421.712 3.148 423.945 3.148 426.179 3.148 427.888 4.79 427.888 6.959 427.888 9.193 426.179 10.769 423.945 10.769 421.712 10.769 420.003 9.193 420.003 6.959zM461.134 31.663C461.134 25.093 456.797 19.837 450.162 19.837 443.591 19.837 439.255 25.027 439.255 31.663 439.255 38.365 443.722 43.49 450.162 43.49 456.666 43.49 461.134 38.365 461.134 31.663zM432.947 31.532C432.947 22.596 439.123 14.646 449.307 14.646 455.287 14.646 458.966 17.537 460.937 20.757L461.068 20.757 461.068 1.768 467.31 1.768 467.31 47.892 461.397 47.892 461.397 42.307 461.266 42.307C458.966 45.921 455.024 48.681 449.307 48.681 438.072 48.681 432.947 39.745 432.947 31.532zM501.414 31.663C501.414 25.093 497.077 19.837 490.441 19.837 483.87 19.837 479.534 25.027 479.534 31.663 479.534 38.365 484.002 43.49 490.441 43.49 496.945 43.49 501.414 38.365 501.414 31.663zM473.226 31.532C473.226 22.596 479.337 14.646 489.587 14.646 495.303 14.646 499.245 17.406 501.545 21.019L501.676 21.019 501.676 15.434 507.589 15.434 507.589 47.892 501.676 47.892 501.676 42.307 501.545 42.307C499.245 45.921 495.303 48.681 489.587 48.681 478.351 48.681 473.226 39.745 473.226 31.532z"/>
  </g>
</svg>
