<svg xmlns="http://www.w3.org/2000/svg" width="1921" height="250" viewBox="0 0 1921 250">
  <g fill="none" fill-rule="evenodd">
    <path fill="#009BD3" class='no-color-change' d="M263.289,144.188 L272.28,116.112 C266.654,108.113 262.753,98.725 261.312,88.372 C260.539,82.82 260.585,77.355 261.22,72.039 C261.14,72.038 261.063,72.026 260.982,72.026 C225.872,72.026 197.41,100.489 197.41,135.598 C197.41,170.708 225.872,199.17 260.982,199.17 C277.48,199.17 292.461,192.832 303.76,182.527 L330.289,191.153 L317.515,164.585 C320.897,158.004 323.185,150.77 324.101,143.113 C311.028,143.075 298.664,139.043 288.376,131.986 L263.289,144.188"/>
    <path fill="#E3DB34" class='no-color-change' d="M387.242,70.847 C382.403,36.072 350.289,11.805 315.514,16.645 C286.292,20.711 264.565,44.057 261.22,72.039 C296.219,72.168 324.554,100.569 324.554,135.598 C324.554,138.143 324.396,140.649 324.101,143.113 C327.053,143.121 330.03,142.994 333.04,142.575 C367.815,137.735 392.082,105.622 387.242,70.847"/>
    <path fill="#188A45" class='no-color-change' d="M261.22,72.039 C260.585,77.355 260.539,82.82 261.312,88.372 C262.753,98.725 266.654,108.113 272.28,116.112 L263.289,144.188 L288.376,131.986 C298.664,139.043 311.028,143.075 324.101,143.113 C324.396,140.649 324.554,138.143 324.554,135.598 C324.554,100.569 296.219,72.168 261.22,72.039"/>
    <path fill="#2F302E" d="M0.865,176.777 L16.714,154.882 C22.598,161.907 32.401,168.28 43.676,168.28 C52.173,168.28 57.24,164.685 57.24,157.984 C57.24,149.976 49.888,147.691 37.468,143.93 C20.798,138.867 6.094,130.205 6.094,110.433 C6.094,88.7 23.904,74.155 49.067,74.155 C66.554,74.155 79.79,79.548 88.125,87.391 L73.255,109.288 C68.515,103.895 60.508,99.32 50.705,99.32 C42.204,99.32 38.609,102.751 38.609,107.327 C38.609,114.517 47.271,116.479 56.751,119.419 C75.378,125.303 89.759,133.8 89.759,154.882 C89.759,176.939 73.906,193.443 45.31,193.443 C24.232,193.443 7.889,184.457 0.865,176.777"/>
    <polyline fill="#2F302E" points="125.372 103.079 97.099 103.079 97.099 76.444 186.487 76.444 186.487 103.079 158.215 103.079 158.215 191.158 125.372 191.158 125.372 103.079"/>
    <path fill="#2F302E" d="M399.249 127.426C410.197 127.426 415.754 123.178 415.754 115.007 415.754 106.838 410.197 102.589 399.249 102.589L389.77 102.589 389.77 127.426 399.249 127.426zM356.927 76.444L404.479 76.444C428.99 76.444 449.417 87.391 449.417 115.007 449.417 128.407 441.737 140.173 426.212 146.709L455.952 191.158 418.694 191.158 394.676 152.265 389.77 152.265 389.77 191.158 356.927 191.158 356.927 76.444zM487.808 150.304L444.993 76.444 480.945 76.444 496.467 104.712C499.735 110.758 504.313 119.91 505.291 125.956L505.946 125.956C506.925 119.91 511.503 110.758 514.771 104.712L530.292 76.444 565.262 76.444 522.451 150.304 522.451 191.158 487.808 191.158 487.808 150.304"/>
    <polyline fill="#2F302E" points="601.202 103.079 572.93 103.079 572.93 76.444 662.318 76.444 662.318 103.079 634.045 103.079 634.045 191.158 601.202 191.158 601.202 103.079"/>
    <polyline fill="#2F302E" points="675.708 76.444 745.32 76.444 745.32 102.425 708.551 102.425 708.551 119.583 744.665 119.583 744.665 145.564 708.551 145.564 708.551 165.174 746.788 165.174 746.788 191.158 675.708 191.158 675.708 76.444"/>
    <polyline fill="#2F302E" points="759.365 76.444 792.208 76.444 792.208 164.523 828.977 164.523 828.977 191.158 759.365 191.158 759.365 76.444"/>
    <polyline fill="#2F302E" points="843.185 76.444 876.027 76.444 876.027 164.523 912.8 164.523 912.8 191.158 843.185 191.158 843.185 76.444"/>
    <polyline fill="#2F302E" points="923.74 76.444 993.35 76.444 993.35 102.425 956.58 102.425 956.58 119.583 992.69 119.583 992.69 145.564 956.58 145.564 956.58 165.174 994.82 165.174 994.82 191.158 923.74 191.158 923.74 76.444"/>
    <path fill="#2F302E" d="M1052.98 127.426C1063.93 127.426 1069.49 123.178 1069.49 115.007 1069.49 106.838 1063.93 102.589 1052.98 102.589L1043.5 102.589 1043.5 127.426 1052.98 127.426zM1010.66 76.444L1058.21 76.444C1082.72 76.444 1103.15 87.391 1103.15 115.007 1103.15 128.407 1095.47 140.173 1079.95 146.709L1109.69 191.158 1072.43 191.158 1048.41 152.265 1043.5 152.265 1043.5 191.158 1010.66 191.158 1010.66 76.444zM1108.86 176.777L1124.71 154.882C1130.59 161.907 1140.4 168.28 1151.67 168.28 1160.17 168.28 1165.24 164.685 1165.24 157.984 1165.24 149.976 1157.88 147.691 1145.46 143.93 1128.79 138.867 1114.09 130.205 1114.09 110.433 1114.09 88.7 1131.9 74.155 1157.06 74.155 1174.55 74.155 1187.79 79.548 1196.12 87.391L1181.25 109.288C1176.51 103.895 1168.5 99.32 1158.7 99.32 1150.2 99.32 1146.61 102.751 1146.61 107.327 1146.61 114.517 1155.27 116.479 1164.75 119.419 1183.37 125.303 1197.76 133.8 1197.76 154.882 1197.76 176.939 1181.9 193.443 1153.31 193.443 1132.23 193.443 1115.89 184.457 1108.86 176.777"/>
    <path fill="#009BD3" class='no-color-change' d="M1285.91 130.532C1298.33 130.532 1303.89 126.282 1303.89 116.641 1303.89 107.001 1298.33 102.589 1285.91 102.589L1280.36 102.589 1280.36 130.532 1285.91 130.532zM1247.51 76.444L1290.98 76.444C1320.72 76.444 1337.71 93.765 1337.71 116.641 1337.71 139.518 1320.72 156.678 1290.98 156.678L1280.36 156.678 1280.36 191.158 1247.51 191.158 1247.51 76.444zM1389.34 127.426C1400.29 127.426 1405.85 123.178 1405.85 115.007 1405.85 106.838 1400.29 102.589 1389.34 102.589L1379.86 102.589 1379.86 127.426 1389.34 127.426zM1347.02 76.444L1394.57 76.444C1419.08 76.444 1439.51 87.391 1439.51 115.007 1439.51 128.407 1431.83 140.173 1416.3 146.709L1446.04 191.158 1408.79 191.158 1384.77 152.265 1379.86 152.265 1379.86 191.158 1347.02 191.158 1347.02 76.444zM1538.53 133.964C1538.53 113.373 1525.12 102.751 1509.11 102.751 1493.43 102.751 1480.02 113.373 1480.02 133.964 1480.02 154.389 1493.43 164.847 1509.11 164.847 1525.12 164.847 1538.53 154.389 1538.53 133.964zM1446.36 133.964C1446.36 105.693 1466.63 74.155 1509.27 74.155 1552.09 74.155 1572.35 105.693 1572.35 133.964 1572.35 162.068 1552.09 193.443 1509.27 193.443 1466.63 193.443 1446.36 162.068 1446.36 133.964zM1563.68 178.573L1580.51 157.822C1583.61 162.068 1587.86 164.847 1593.58 164.847 1602.24 164.847 1604.69 159.618 1604.69 153.41L1604.69 76.444 1637.54 76.444 1637.54 157.984C1637.54 178.573 1622.51 193.443 1598.16 193.443 1583.29 193.443 1569.89 187.89 1563.68 178.573"/>
    <polyline fill="#009BD3" class='no-color-change' points="1652.57 76.444 1722.18 76.444 1722.18 102.425 1685.41 102.425 1685.41 119.583 1721.52 119.583 1721.52 145.564 1685.41 145.564 1685.41 165.174 1723.65 165.174 1723.65 191.158 1652.57 191.158 1652.57 76.444"/>
    <path fill="#009BD3" class='no-color-change' d="M1731.32,133.8 C1731.32,98.503 1755.83,74.155 1792.6,74.155 C1806.16,74.155 1815.31,77.424 1820.05,80.201 L1820.05,110.595 C1814.66,106.346 1805.67,102.751 1795.05,102.751 C1776.91,102.751 1764.98,114.19 1764.98,133.8 C1764.98,153.41 1776.75,164.847 1794.89,164.847 C1805.67,164.847 1815.48,162.234 1821.36,157.005 L1821.36,187.397 C1816.62,190.175 1806.16,193.443 1792.44,193.443 C1755.34,193.443 1731.32,169.259 1731.32,133.8"/>
    <polyline fill="#009BD3" class='no-color-change' points="1859.75 103.079 1831.48 103.079 1831.48 76.444 1920.86 76.444 1920.86 103.079 1892.59 103.079 1892.59 191.158 1859.75 191.158 1859.75 103.079"/>
    <path fill="#2F302E" d="M1254.99 235.431C1258.68 235.431 1260.67 233.367 1260.67 230.253 1260.67 227.173 1258.68 225.074 1254.99 225.074L1251.36 225.074 1251.36 235.431 1254.99 235.431zM1247.51 221.841L1255.37 221.841C1260.9 221.841 1264.6 225.151 1264.6 230.253 1264.6 235.354 1260.83 238.656 1255.37 238.656L1251.36 238.656 1251.36 249.166 1247.51 249.166 1247.51 221.841zM1282.02 238.775L1279.41 232.044C1279.02 231.029 1277.35 226.823 1277.31 226.474L1277.23 226.474C1277.19 226.823 1275.56 230.91 1275.13 232.044L1272.48 238.775 1282.02 238.775zM1275.6 221.841L1279.02 221.841 1290.23 249.166 1286.1 249.166 1283.3 242.009 1271.2 242.009 1268.4 249.166 1264.35 249.166C1264.35 249.166 1274.23 225.194 1275.6 221.841zM1301.62 234.885C1305.2 234.885 1307.22 232.974 1307.22 229.98 1307.22 226.985 1305.2 225.074 1301.62 225.074L1298 225.074 1298 234.885 1301.62 234.885zM1294.14 221.841L1302.04 221.841C1307.14 221.841 1311.11 224.494 1311.11 229.937 1311.11 234.186 1308.31 236.984 1304.18 237.649L1312.55 249.166 1308.04 249.166 1300.14 238.033 1298 238.033 1298 249.166 1294.14 249.166 1294.14 221.841z"/>
    <polyline fill="#2F302E" points="1321.8 225.151 1314.01 225.151 1314.01 221.841 1333.43 221.841 1333.43 225.151 1325.65 225.151 1325.65 249.166 1321.8 249.166 1321.8 225.151"/>
    <path fill="#2F302E" d="M1368.18,235.508 C1368.18,229.161 1363.78,224.767 1357.75,224.767 C1351.79,224.767 1347.35,229.161 1347.35,235.508 C1347.35,241.855 1351.79,246.249 1357.75,246.249 C1363.78,246.249 1368.18,241.855 1368.18,235.508 Z M1343.42,235.508 C1343.42,227.839 1348.99,221.304 1357.79,221.304 C1366.58,221.304 1372.15,227.839 1372.15,235.508 C1372.15,243.177 1366.58,249.712 1357.79,249.712 C1348.99,249.712 1343.42,243.177 1343.42,235.508 Z"/>
    <polyline fill="#2F302E" points="1377.69 221.841 1391.47 221.841 1391.47 225.151 1381.54 225.151 1381.54 233.947 1391.16 233.947 1391.16 237.257 1381.54 237.257 1381.54 249.166 1377.69 249.166 1377.69 221.841"/>
    <polyline fill="#2F302E" points="1408.9 225.151 1401.11 225.151 1401.11 221.841 1420.53 221.841 1420.53 225.151 1412.75 225.151 1412.75 249.166 1408.9 249.166 1408.9 225.151"/>
    <polyline fill="#2F302E" points="1424.58 221.841 1428.43 221.841 1428.43 233.051 1442.75 233.051 1442.75 221.841 1446.61 221.841 1446.61 249.166 1442.75 249.166 1442.75 236.361 1428.43 236.361 1428.43 249.166 1424.58 249.166 1424.58 221.841"/>
    <polyline fill="#2F302E" points="1453.7 221.841 1468.57 221.841 1468.57 225.117 1457.56 225.117 1457.56 233.051 1468.26 233.051 1468.26 236.327 1457.56 236.327 1457.56 245.899 1468.8 245.899 1468.8 249.166 1453.7 249.166 1453.7 221.841"/>
    <path fill="#2F302E" d="M1481.72 239.748L1481.72 221.841 1485.61 221.841 1485.61 238.579C1485.61 243.331 1487.64 246.249 1492.19 246.249 1496.78 246.249 1498.81 243.331 1498.81 238.579L1498.81 221.841 1502.7 221.841 1502.7 239.748C1502.7 245.745 1498.85 249.712 1492.19 249.712 1485.5 249.712 1481.72 245.745 1481.72 239.748M1506.72 244.227L1509.33 242.009C1510.65 244.184 1512.76 246.325 1516.18 246.325 1519.18 246.325 1521.51 244.696 1521.51 241.693 1521.51 238.468 1518.83 237.376 1515.48 236.054 1512.05 234.689 1508.59 232.974 1508.59 228.615 1508.59 224.298 1511.94 221.304 1516.84 221.304 1520.73 221.304 1523.3 223.087 1524.86 225.424L1522.25 227.642C1521.2 226.013 1519.45 224.682 1516.84 224.682 1514.19 224.682 1512.45 226.047 1512.45 228.342 1512.45 231.183 1515.17 232.121 1517.54 233.051 1521.39 234.57 1525.37 236.404 1525.37 241.42 1525.37 246.172 1521.86 249.712 1516.26 249.712 1511.59 249.712 1508.47 247.264 1506.72 244.227M1545.09 238.775L1542.48 232.044C1542.09 231.029 1540.42 226.823 1540.38 226.474L1540.3 226.474C1540.26 226.823 1538.63 230.91 1538.2 232.044L1535.56 238.775 1545.09 238.775zM1538.67 221.841L1542.09 221.841 1553.3 249.166 1549.18 249.166 1546.38 242.009 1534.27 242.009 1531.47 249.166 1527.42 249.166C1527.42 249.166 1537.3 225.194 1538.67 221.841z"/>
    <polyline fill="#2F302E" points="1569.57 225.151 1561.78 225.151 1561.78 221.841 1581.21 221.841 1581.21 225.151 1573.42 225.151 1573.42 249.166 1569.57 249.166 1569.57 225.151"/>
    <path fill="#2F302E" d="M1607.4 235.508C1607.4 229.161 1603.01 224.767 1596.98 224.767 1591.02 224.767 1586.58 229.161 1586.58 235.508 1586.58 241.855 1591.02 246.249 1596.98 246.249 1603.01 246.249 1607.4 241.855 1607.4 235.508zM1582.65 235.508C1582.65 227.839 1588.21 221.304 1597.01 221.304 1605.81 221.304 1611.38 227.839 1611.38 235.508 1611.38 243.177 1605.81 249.712 1597.01 249.712 1588.21 249.712 1582.65 243.177 1582.65 235.508zM1620.77 245.856L1624.36 245.856C1630.74 245.856 1635.17 242.478 1635.17 235.508 1635.17 228.538 1630.74 225.151 1624.36 225.151L1620.77 225.151 1620.77 245.856zM1616.92 221.841L1624.67 221.841C1633.39 221.841 1639.14 226.823 1639.14 235.508 1639.14 244.15 1633.34 249.166 1624.67 249.166L1616.92 249.166 1616.92 221.841zM1658.08 238.775L1655.48 232.044C1655.09 231.029 1653.41 226.823 1653.37 226.474L1653.3 226.474C1653.26 226.823 1651.63 230.91 1651.19 232.044L1648.55 238.775 1658.08 238.775zM1651.66 221.841L1655.09 221.841 1666.3 249.166 1662.17 249.166 1659.37 242.009 1647.27 242.009 1644.46 249.166 1640.42 249.166C1640.42 249.166 1650.3 225.194 1651.66 221.841zM1673.99 238.033L1664.69 221.841 1669.01 221.841 1674.07 230.952C1674.31 231.379 1675.94 234.382 1676.02 234.843L1676.05 234.843C1676.14 234.382 1677.77 231.379 1678 230.952L1683.1 221.841 1687.3 221.841 1678 238.033 1678 249.166 1673.99 249.166 1673.99 238.033M1698.62 221.841L1701.58 221.841 1717.07 239.552C1717.54 240.064 1719.56 242.589 1719.76 242.981L1719.84 242.939C1719.76 242.555 1719.76 239.398 1719.76 238.699L1719.76 221.841 1723.5 221.841 1723.5 249.166 1720.5 249.166 1705 231.456C1704.54 230.952 1702.51 228.419 1702.32 228.035L1702.28 228.069C1702.32 228.461 1702.36 231.618 1702.36 232.317L1702.36 249.166 1698.62 249.166 1698.62 221.841"/>
    <polyline fill="#2F302E" points="1730.59 221.841 1745.46 221.841 1745.46 225.117 1734.44 225.117 1734.44 233.051 1745.15 233.051 1745.15 236.327 1734.44 236.327 1734.44 245.899 1745.69 245.899 1745.69 249.166 1730.59 249.166 1730.59 221.841"/>
    <polyline fill="#2F302E" points="1757.51 225.151 1749.73 225.151 1749.73 221.841 1769.15 221.841 1769.15 225.151 1761.36 225.151 1761.36 249.166 1757.51 249.166 1757.51 225.151"/>
    <path fill="#2F302E" d="M1772.36 221.841L1776.45 221.841 1782.05 238.076C1782.25 238.699 1783.57 242.742 1783.61 243.365L1783.69 243.365C1783.73 242.742 1785.09 238.699 1785.32 238.076L1791.16 221.841 1794.24 221.841 1800.07 238.076C1800.31 238.699 1801.67 242.742 1801.71 243.365L1801.79 243.365C1801.87 242.742 1803.19 238.699 1803.38 238.076L1808.95 221.841 1812.88 221.841 1803.26 249.166 1800.31 249.166 1794 232.121C1793.81 231.532 1792.72 228.308 1792.68 227.685L1792.6 227.685C1792.56 228.308 1791.43 231.532 1791.24 232.121L1784.97 249.166 1782.01 249.166 1772.36 221.841M1839.36 235.508C1839.36 229.161 1834.96 224.767 1828.93 224.767 1822.97 224.767 1818.53 229.161 1818.53 235.508 1818.53 241.855 1822.97 246.249 1828.93 246.249 1834.96 246.249 1839.36 241.855 1839.36 235.508zM1814.6 235.508C1814.6 227.839 1820.16 221.304 1828.96 221.304 1837.76 221.304 1843.33 227.839 1843.33 235.508 1843.33 243.177 1837.76 249.712 1828.96 249.712 1820.16 249.712 1814.6 243.177 1814.6 235.508zM1856.35 234.885C1859.92 234.885 1861.95 232.974 1861.95 229.98 1861.95 226.985 1859.92 225.074 1856.35 225.074L1852.72 225.074 1852.72 234.885 1856.35 234.885zM1848.87 221.841L1856.77 221.841C1861.87 221.841 1865.84 224.494 1865.84 229.937 1865.84 234.186 1863.04 236.984 1858.91 237.649L1867.28 249.166 1862.76 249.166 1854.87 238.033 1852.72 238.033 1852.72 249.166 1848.87 249.166 1848.87 221.841z"/>
    <polyline fill="#2F302E" points="1871.65 221.841 1875.5 221.841 1875.5 234.535 1886.78 221.841 1891.45 221.841 1879.74 234.885 1892 249.166 1887.18 249.166 1875.5 235.354 1875.5 249.166 1871.65 249.166 1871.65 221.841"/>
    <path fill="#2F302E" d="M17.644 27.934L2.108.893 9.323.893 17.773 16.104C18.164 16.819 20.894 21.824 21.023 22.604L21.088 22.604C21.218 21.824 23.949 16.819 24.338 16.104L32.854.893 39.874.893 24.338 27.934 24.338 46.525 17.644 46.525 17.644 27.934M63.469 30.469C63.469 23.644 58.724 18.833 52.484 18.833 46.244 18.833 41.498 23.644 41.498 30.469 41.498 37.294 46.244 42.105 52.484 42.105 58.724 42.105 63.469 37.294 63.469 30.469zM35.323 30.469C35.323 22.344 41.173 13.633 52.484 13.633 63.729 13.633 69.644 22.344 69.644 30.469 69.644 38.594 63.729 47.305 52.484 47.305 41.173 47.305 35.323 38.594 35.323 30.469zM76.142 14.414L81.993 14.414 81.993 19.094 82.123 19.094C83.877 15.583 86.607 13.633 90.832 13.633 92.068 13.633 93.238 13.829 94.278 14.088L94.278 19.873C93.238 19.484 91.678 19.159 90.183 19.159 84.982 19.159 82.252 22.994 82.252 29.495L82.252 46.525 76.142 46.525 76.142 14.414"/>
    <polyline fill="#2F302E" points="99.606 .893 105.717 .893 105.717 27.934 119.498 14.414 126.973 14.414 111.827 29.104 128.078 46.525 120.407 46.525 105.717 30.274 105.717 46.525 99.606 46.525 99.606 .893"/>
  </g>
</svg>
