<svg xmlns="http://www.w3.org/2000/svg" xmlns:xlink="http://www.w3.org/1999/xlink" width="1920" height="263" viewBox="0 0 1920 263">
  <defs>
    <polygon id="a" points=".15 .592 58.28 .592 58.28 28.94 .15 28.94"/>
    <polygon id="c" points=".84 .592 72.5 .592 72.5 28.94 .84 28.94"/>
    <polygon id="e" points=".92 .592 50.51 .592 50.51 28.94 .92 28.94"/>
    <polygon id="g" points=".5 .592 71.46 .592 71.46 28.94 .5 28.94"/>
  </defs>
  <g fill="none" fill-rule="evenodd" transform="translate(0 -6)">
    <path fill="#009BD3" class='no-color-change' d="M262.425,163.475 L271.415,135.4 C265.789,127.4 261.888,118.012 260.448,107.66 C259.675,102.108 259.72,96.642 260.356,91.326 C260.276,91.326 260.198,91.314 260.118,91.314 C225.008,91.314 196.546,119.776 196.546,154.886 C196.546,189.996 225.008,218.458 260.118,218.458 C276.616,218.458 291.596,212.12 302.896,201.814 L329.424,210.441 L316.651,183.873 C320.032,177.292 322.32,170.057 323.236,162.4 C310.164,162.362 297.799,158.33 287.511,151.273 L262.425,163.475"/>
    <path fill="#E3DB34" class='no-color-change' d="M386.378,90.135 C381.538,55.36 349.424,31.093 314.65,35.932 C285.427,39.999 263.701,63.345 260.356,91.326 C295.355,91.456 323.69,119.857 323.69,154.886 C323.69,157.43 323.531,159.936 323.236,162.4 C326.189,162.409 329.165,162.281 332.175,161.862 C366.95,157.022 391.217,124.909 386.378,90.135"/>
    <path fill="#188A45" class='no-color-change' d="M260.356,91.326 C259.72,96.642 259.675,102.108 260.448,107.66 C261.888,118.012 265.789,127.4 271.415,135.4 L262.425,163.475 L287.511,151.273 C297.799,158.33 310.164,162.362 323.236,162.4 C323.531,159.936 323.69,157.43 323.69,154.886 C323.69,119.857 295.355,91.456 260.356,91.326"/>
    <path fill="#2F302E" d="M0,196.064 L15.849,174.17 C21.733,181.194 31.536,187.568 42.811,187.568 C51.308,187.568 56.376,183.972 56.376,177.271 C56.376,169.263 49.023,166.979 36.604,163.218 C19.934,158.155 5.229,149.492 5.229,129.72 C5.229,107.987 23.04,93.442 48.202,93.442 C65.689,93.442 78.925,98.835 87.26,106.679 L72.39,128.576 C67.651,123.183 59.643,118.607 49.84,118.607 C41.339,118.607 37.744,122.038 37.744,126.615 C37.744,133.805 46.406,135.766 55.886,138.706 C74.513,144.591 88.894,153.088 88.894,174.17 C88.894,196.226 73.041,212.73 44.445,212.73 C23.367,212.73 7.025,203.744 0,196.064"/>
    <polyline fill="#2F302E" points="124.507 122.366 96.235 122.366 96.235 95.731 185.623 95.731 185.623 122.366 157.35 122.366 157.35 210.445 124.507 210.445 124.507 122.366"/>
    <path fill="#2F302E" d="M398.385 146.714C409.333 146.714 414.889 142.466 414.889 134.294 414.889 126.125 409.333 121.877 398.385 121.877L388.905 121.877 388.905 146.714 398.385 146.714zM356.063 95.731L403.614 95.731C428.126 95.731 448.552 106.679 448.552 134.294 448.552 147.694 440.873 159.461 425.347 165.996L455.088 210.445 417.829 210.445 393.811 171.553 388.905 171.553 388.905 210.445 356.063 210.445 356.063 95.731zM486.944 169.592L444.129 95.731 480.081 95.731 495.602 124C498.87 130.046 503.448 139.198 504.427 145.244L505.082 145.244C506.061 139.198 510.638 130.046 513.906 124L529.428 95.731 564.398 95.731 521.586 169.592 521.586 210.445 486.944 210.445 486.944 169.592"/>
    <polyline fill="#2F302E" points="600.338 122.366 572.066 122.366 572.066 95.731 661.453 95.731 661.453 122.366 633.18 122.366 633.18 210.445 600.338 210.445 600.338 122.366"/>
    <polyline fill="#2F302E" points="674.843 95.731 744.455 95.731 744.455 121.713 707.686 121.713 707.686 138.87 743.8 138.87 743.8 164.851 707.686 164.851 707.686 184.462 745.923 184.462 745.923 210.445 674.843 210.445 674.843 95.731"/>
    <polyline fill="#2F302E" points="758.501 95.731 791.343 95.731 791.343 183.81 828.113 183.81 828.113 210.445 758.501 210.445 758.501 95.731"/>
    <polyline fill="#2F302E" points="842.32 95.731 875.163 95.731 875.163 183.81 911.932 183.81 911.932 210.445 842.32 210.445 842.32 95.731"/>
    <polyline fill="#2F302E" points="922.872 95.731 992.484 95.731 992.484 121.713 955.714 121.713 955.714 138.87 991.828 138.87 991.828 164.851 955.714 164.851 955.714 184.462 993.951 184.462 993.951 210.445 922.872 210.445 922.872 95.731"/>
    <path fill="#2F302E" d="M1052.12 146.714C1063.07 146.714 1068.62 142.466 1068.62 134.294 1068.62 126.125 1063.07 121.877 1052.12 121.877L1042.64 121.877 1042.64 146.714 1052.12 146.714zM1009.8 95.731L1057.35 95.731C1081.86 95.731 1102.29 106.679 1102.29 134.294 1102.29 147.694 1094.61 159.461 1079.08 165.996L1108.82 210.445 1071.56 210.445 1047.55 171.553 1042.64 171.553 1042.64 210.445 1009.8 210.445 1009.8 95.731zM1108 196.064L1123.85 174.17C1129.73 181.194 1139.53 187.568 1150.81 187.568 1159.3 187.568 1164.37 183.972 1164.37 177.271 1164.37 169.263 1157.02 166.979 1144.6 163.218 1127.93 158.155 1113.23 149.492 1113.23 129.72 1113.23 107.987 1131.04 93.442 1156.2 93.442 1173.69 93.442 1186.92 98.835 1195.26 106.679L1180.39 128.576C1175.65 123.183 1167.64 118.607 1157.84 118.607 1149.34 118.607 1145.74 122.038 1145.74 126.615 1145.74 133.805 1154.4 135.766 1163.88 138.706 1182.51 144.591 1196.89 153.088 1196.89 174.17 1196.89 196.226 1181.04 212.73 1152.44 212.73 1131.36 212.73 1115.02 203.744 1108 196.064"/>
    <path fill="#009BD3" class='no-color-change' d="M1285.05 149.82C1297.47 149.82 1303.02 145.569 1303.02 135.928 1303.02 126.289 1297.47 121.877 1285.05 121.877L1279.49 121.877 1279.49 149.82 1285.05 149.82zM1246.65 95.731L1290.11 95.731C1319.86 95.731 1336.85 113.053 1336.85 135.928 1336.85 158.805 1319.86 175.965 1290.11 175.965L1279.49 175.965 1279.49 210.445 1246.65 210.445 1246.65 95.731zM1388.48 146.714C1399.42 146.714 1404.98 142.466 1404.98 134.294 1404.98 126.125 1399.42 121.877 1388.48 121.877L1379 121.877 1379 146.714 1388.48 146.714zM1346.15 95.731L1393.71 95.731C1418.22 95.731 1438.64 106.679 1438.64 134.294 1438.64 147.694 1430.96 159.461 1415.44 165.996L1445.18 210.445 1407.92 210.445 1383.9 171.553 1379 171.553 1379 210.445 1346.15 210.445 1346.15 95.731zM1537.66 153.251C1537.66 132.66 1524.26 122.038 1508.25 122.038 1492.56 122.038 1479.16 132.66 1479.16 153.251 1479.16 173.677 1492.56 184.135 1508.25 184.135 1524.26 184.135 1537.66 173.677 1537.66 153.251zM1445.5 153.251C1445.5 124.981 1465.76 93.442 1508.41 93.442 1551.22 93.442 1571.49 124.981 1571.49 153.251 1571.49 181.356 1551.22 212.73 1508.41 212.73 1465.76 212.73 1445.5 181.356 1445.5 153.251zM1562.81 197.86L1579.64 177.109C1582.75 181.356 1587 184.135 1592.72 184.135 1601.38 184.135 1603.83 178.905 1603.83 172.697L1603.83 95.731 1636.67 95.731 1636.67 177.271C1636.67 197.86 1621.64 212.73 1597.29 212.73 1582.42 212.73 1569.02 207.178 1562.81 197.86"/>
    <polyline fill="#009BD3" class='no-color-change' points="1651.7 95.731 1721.31 95.731 1721.31 121.713 1684.55 121.713 1684.55 138.87 1720.66 138.87 1720.66 164.851 1684.55 164.851 1684.55 184.462 1722.79 184.462 1722.79 210.445 1651.7 210.445 1651.7 95.731"/>
    <path fill="#009BD3" class='no-color-change' d="M1730.46,153.088 C1730.46,117.79 1754.97,93.442 1791.74,93.442 C1805.3,93.442 1814.45,96.712 1819.19,99.488 L1819.19,129.882 C1813.8,125.634 1804.81,122.038 1794.19,122.038 C1776.05,122.038 1764.12,133.477 1764.12,153.088 C1764.12,172.697 1775.89,184.135 1794.02,184.135 C1804.81,184.135 1814.61,181.521 1820.49,176.293 L1820.49,206.684 C1815.76,209.463 1805.3,212.73 1791.57,212.73 C1754.48,212.73 1730.46,188.547 1730.46,153.088"/>
    <polyline fill="#009BD3" class='no-color-change' points="1858.88 122.366 1830.61 122.366 1830.61 95.731 1920 95.731 1920 122.366 1891.73 122.366 1891.73 210.445 1858.88 210.445 1858.88 122.366"/>
    <path fill="#2F302E" d="M1254.12 254.719C1257.82 254.719 1259.8 252.654 1259.8 249.54 1259.8 246.461 1257.82 244.362 1254.12 244.362L1250.5 244.362 1250.5 254.719 1254.12 254.719zM1246.65 241.129L1254.51 241.129C1260.04 241.129 1263.74 244.438 1263.74 249.54 1263.74 254.641 1259.96 257.943 1254.51 257.943L1250.5 257.943 1250.5 268.454 1246.65 268.454 1246.65 241.129zM1281.15 258.063L1278.55 251.332C1278.16 250.316 1276.48 246.111 1276.44 245.761L1276.37 245.761C1276.33 246.111 1274.69 250.197 1274.26 251.332L1271.62 258.063 1281.15 258.063zM1274.73 241.129L1278.16 241.129 1289.37 268.454 1285.24 268.454 1282.44 261.296 1270.34 261.296 1267.53 268.454 1263.48 268.454C1263.48 268.454 1273.37 244.481 1274.73 241.129zM1300.75 254.173C1304.33 254.173 1306.36 252.261 1306.36 249.267 1306.36 246.273 1304.33 244.362 1300.75 244.362L1297.13 244.362 1297.13 254.173 1300.75 254.173zM1293.28 241.129L1301.18 241.129C1306.28 241.129 1310.25 243.782 1310.25 249.224 1310.25 253.473 1307.45 256.271 1303.32 256.936L1311.69 268.454 1307.17 268.454 1299.27 257.321 1297.13 257.321 1297.13 268.454 1293.28 268.454 1293.28 241.129z"/>
    <g transform="translate(1313 240)">
      <mask id="b" fill="white">
        <use xlink:href="#a"/>
      </mask>
      <polyline fill="#2F302E" points="7.93 4.438 .15 4.438 .15 1.129 19.57 1.129 19.57 4.438 11.78 4.438 11.78 28.454 7.93 28.454 7.93 4.438" mask="url(#b)"/>
      <path fill="#2F302E" d="M54.31,14.796 C54.31,8.448 49.91,4.054 43.88,4.054 C37.93,4.054 33.49,8.448 33.49,14.796 C33.49,21.142 37.93,25.536 43.88,25.536 C49.91,25.536 54.31,21.142 54.31,14.796 Z M29.56,14.796 C29.56,7.126 35.12,0.592 43.92,0.592 C52.72,0.592 58.28,7.126 58.28,14.796 C58.28,22.465 52.72,29 43.92,29 C35.12,29 29.56,22.465 29.56,14.796 Z" mask="url(#b)"/>
    </g>
    <polyline fill="#2F302E" points="1376.83 241.129 1390.61 241.129 1390.61 244.438 1380.68 244.438 1380.68 253.234 1390.29 253.234 1390.29 256.545 1380.68 256.545 1380.68 268.454 1376.83 268.454 1376.83 241.129"/>
    <polyline fill="#2F302E" points="1408.03 244.438 1400.25 244.438 1400.25 241.129 1419.67 241.129 1419.67 244.438 1411.88 244.438 1411.88 268.454 1408.03 268.454 1408.03 244.438"/>
    <polyline fill="#2F302E" points="1423.71 241.129 1427.56 241.129 1427.56 252.339 1441.89 252.339 1441.89 241.129 1445.74 241.129 1445.74 268.454 1441.89 268.454 1441.89 255.648 1427.56 255.648 1427.56 268.454 1423.71 268.454 1423.71 241.129"/>
    <g transform="translate(1452 240)">
      <mask id="d" fill="white">
        <use xlink:href="#c"/>
      </mask>
      <polyline fill="#2F302E" points=".84 1.129 15.71 1.129 15.71 4.405 4.69 4.405 4.69 12.339 15.39 12.339 15.39 15.614 4.69 15.614 4.69 25.186 15.94 25.186 15.94 28.454 .84 28.454 .84 1.129" mask="url(#d)"/>
      <path fill="#2F302E" d="M28.86 19.035L28.86 1.129 32.75 1.129 32.75 17.867C32.75 22.618 34.77 25.536 39.32 25.536 43.92 25.536 45.94 22.618 45.94 17.867L45.94 1.129 49.83 1.129 49.83 19.035C49.83 25.033 45.98 29 39.32 29 32.63 29 28.86 25.033 28.86 19.035M53.86 23.514L56.47 21.296C57.79 23.471 59.89 25.613 63.32 25.613 66.31 25.613 68.65 23.983 68.65 20.98 68.65 17.756 65.96 16.664 62.61 15.342 59.19 13.976 55.72 12.261 55.72 7.902 55.72 3.586 59.07.592 63.98.592 67.87.592 70.44 2.374 72 4.712L69.39 6.929C68.34 5.301 66.59 3.97 63.98 3.97 61.33 3.97 59.58 5.335 59.58 7.63 59.58 10.47 62.3 11.409 64.68 12.339 68.53 13.857 72.5 15.691 72.5 20.708 72.5 25.459 69 29 63.39 29 58.72 29 55.61 26.552 53.86 23.514" mask="url(#d)"/>
    </g>
    <path fill="#2F302E" d="M1544.22,258.063 L1541.62,251.332 C1541.23,250.316 1539.55,246.111 1539.52,245.761 L1539.44,245.761 C1539.4,246.111 1537.77,250.197 1537.34,251.332 L1534.69,258.063 L1544.22,258.063 Z M1537.8,241.129 L1541.23,241.129 L1552.44,268.454 L1548.31,268.454 L1545.51,261.296 L1533.41,261.296 L1530.6,268.454 L1526.56,268.454 C1526.56,268.454 1536.44,244.481 1537.8,241.129 Z"/>
    <g transform="translate(1560 240)">
      <mask id="f" fill="white">
        <use xlink:href="#e"/>
      </mask>
      <polyline fill="#2F302E" points="8.7 4.438 .92 4.438 .92 1.129 20.34 1.129 20.34 4.438 12.56 4.438 12.56 28.454 8.7 28.454 8.7 4.438" mask="url(#f)"/>
      <path fill="#2F302E" d="M46.54,14.796 C46.54,8.448 42.14,4.054 36.11,4.054 C30.16,4.054 25.72,8.448 25.72,14.796 C25.72,21.142 30.16,25.536 36.11,25.536 C42.14,25.536 46.54,21.142 46.54,14.796 Z M21.79,14.796 C21.79,7.126 27.35,0.592 36.15,0.592 C44.94,0.592 50.51,7.126 50.51,14.796 C50.51,22.465 44.94,29 36.15,29 C27.35,29 21.79,22.465 21.79,14.796 Z" mask="url(#f)"/>
    </g>
    <path fill="#2F302E" d="M1619.91 265.143L1623.49 265.143C1629.87 265.143 1634.31 261.765 1634.31 254.796 1634.31 247.826 1629.87 244.438 1623.49 244.438L1619.91 244.438 1619.91 265.143zM1616.06 241.129L1623.8 241.129C1632.52 241.129 1638.28 246.111 1638.28 254.796 1638.28 263.437 1632.48 268.454 1623.8 268.454L1616.06 268.454 1616.06 241.129zM1657.22 258.063L1654.61 251.332C1654.22 250.316 1652.55 246.111 1652.51 245.761L1652.43 245.761C1652.39 246.111 1650.76 250.197 1650.33 251.332L1647.69 258.063 1657.22 258.063zM1650.8 241.129L1654.22 241.129 1665.43 268.454 1661.3 268.454 1658.51 261.296 1646.4 261.296 1643.6 268.454 1639.55 268.454C1639.55 268.454 1649.43 244.481 1650.8 241.129zM1673.13 257.321L1663.83 241.129 1668.15 241.129 1673.21 250.24C1673.44 250.667 1675.07 253.67 1675.15 254.13L1675.19 254.13C1675.27 253.67 1676.9 250.667 1677.14 250.24L1682.24 241.129 1686.44 241.129 1677.14 257.321 1677.14 268.454 1673.13 268.454 1673.13 257.321M1697.76 241.129L1700.71 241.129 1716.21 258.84C1716.67 259.351 1718.7 261.876 1718.89 262.268L1718.97 262.226C1718.89 261.843 1718.89 258.685 1718.89 257.986L1718.89 241.129 1722.63 241.129 1722.63 268.454 1719.63 268.454 1704.14 250.743C1703.67 250.24 1701.65 247.706 1701.46 247.322L1701.42 247.356C1701.46 247.749 1701.5 250.905 1701.5 251.605L1701.5 268.454 1697.76 268.454 1697.76 241.129"/>
    <polyline fill="#2F302E" points="1729.73 241.129 1744.59 241.129 1744.59 244.405 1733.58 244.405 1733.58 252.339 1744.29 252.339 1744.29 255.614 1733.58 255.614 1733.58 265.186 1744.83 265.186 1744.83 268.454 1729.73 268.454 1729.73 241.129"/>
    <polyline fill="#2F302E" points="1756.65 244.438 1748.86 244.438 1748.86 241.129 1768.28 241.129 1768.28 244.438 1760.5 244.438 1760.5 268.454 1756.65 268.454 1756.65 244.438"/>
    <g transform="translate(1771 240)">
      <mask id="h" fill="white">
        <use xlink:href="#g"/>
      </mask>
      <path fill="#2F302E" d="M.5 1.129L4.58 1.129 10.19 17.363C10.38 17.986 11.71 22.03 11.75 22.652L11.83 22.652C11.86 22.03 13.22 17.986 13.46 17.363L19.3 1.129 22.37 1.129 28.21 17.363C28.44 17.986 29.8 22.03 29.85 22.652L29.92 22.652C30 22.03 31.32 17.986 31.52 17.363L37.09 1.129 41.01 1.129 31.4 28.454 28.44 28.454 22.14 11.409C21.94 10.82 20.86 7.595 20.81 6.972L20.74 6.972C20.7 7.595 19.57 10.82 19.38 11.409L13.11 28.454 10.15 28.454.5 1.129M67.49 14.796C67.49 8.448 63.09 4.054 57.06 4.054 51.11 4.054 46.67 8.448 46.67 14.796 46.67 21.142 51.11 25.536 57.06 25.536 63.09 25.536 67.49 21.142 67.49 14.796zM42.74 14.796C42.74 7.126 48.3.592 57.1.592 65.9.592 71.46 7.126 71.46 14.796 71.46 22.465 65.9 29 57.1 29 48.3 29 42.74 22.465 42.74 14.796z" mask="url(#h)"/>
    </g>
    <path fill="#2F302E" d="M1855.48,254.173 C1859.06,254.173 1861.09,252.261 1861.09,249.267 C1861.09,246.273 1859.06,244.362 1855.48,244.362 L1851.86,244.362 L1851.86,254.173 L1855.48,254.173 Z M1848.01,241.129 L1855.91,241.129 C1861.01,241.129 1864.98,243.782 1864.98,249.224 C1864.98,253.473 1862.17,256.271 1858.05,256.936 L1866.42,268.454 L1861.9,268.454 L1854,257.321 L1851.86,257.321 L1851.86,268.454 L1848.01,268.454 L1848.01,241.129 Z"/>
    <polyline fill="#2F302E" points="1870.78 241.129 1874.63 241.129 1874.63 253.823 1885.92 241.129 1890.59 241.129 1878.88 254.173 1891.14 268.454 1886.31 268.454 1874.63 254.641 1874.63 268.454 1870.78 268.454 1870.78 241.129"/>
    <path fill="#2F302E" d="M7.092,51.8121683 L7.092,6.18216827 L20.027,6.18216827 C34.587,6.18216827 44.207,14.5021683 44.207,28.9971683 C44.207,43.4271683 34.522,51.8121683 20.027,51.8121683 L7.092,51.8121683 Z M13.527,11.7071683 L13.527,46.2871683 L19.507,46.2871683 C30.167,46.2871683 37.577,40.6321683 37.577,28.9971683 C37.577,17.3621683 30.167,11.7071683 19.507,11.7071683 L13.527,11.7071683 Z M65.8526,52.5921683 C54.4126,52.5921683 48.9526,44.0121683 48.9526,35.7571683 C48.9526,28.0221683 53.6976,18.9221683 65.3326,18.9221683 C76.9026,18.9221683 81.4526,27.8271683 81.4526,35.4321683 C81.4526,35.8871683 81.4526,36.2121683 81.3876,36.9271683 L54.9976,36.9271683 C55.1276,43.1671683 59.6126,47.6521683 66.1776,47.6521683 C70.8576,47.6521683 74.3676,45.3771683 76.3826,41.8021683 L80.8026,44.5971683 C77.6826,49.9921683 72.1576,52.5921683 65.8526,52.5921683 Z M55.1926,32.5071683 L75.4076,32.5071683 C74.4326,27.0471683 70.4676,23.6021683 65.3326,23.6021683 C60.0026,23.6021683 56.1676,27.2421683 55.1926,32.5071683 Z M98.1582,52.3971683 C92.1132,52.3971683 89.5132,49.2121683 89.5132,43.0371683 L89.5132,24.5771683 L84.9632,24.5771683 L84.9632,19.7021683 L89.5132,19.7021683 L89.5132,10.9921683 L95.6882,10.9921683 L95.6882,19.7021683 L103.2932,19.7021683 L103.2932,24.5771683 L95.6882,24.5771683 L95.6882,42.3871683 C95.6882,45.8321683 96.8582,47.3271683 99.4582,47.3271683 C100.9532,47.3271683 102.1232,47.1321683 102.9032,46.7421683 L102.9032,51.8121683 C101.7982,52.1371683 100.2382,52.3971683 98.1582,52.3971683 Z M109.8588,51.8121683 L109.8588,19.7021683 L115.7088,19.7021683 L115.7088,24.3821683 L115.8388,24.3821683 C117.5938,20.8721683 120.3238,18.9221683 124.5488,18.9221683 C125.7838,18.9221683 126.9538,19.1171683 127.9938,19.3771683 L127.9938,25.1621683 C126.9538,24.7721683 125.3938,24.4471683 123.8988,24.4471683 C118.6988,24.4471683 115.9688,28.2821683 115.9688,34.7821683 L115.9688,51.8121683 L109.8588,51.8121683 Z M147.3254,52.5921683 C136.0154,52.5921683 130.1654,43.8821683 130.1654,35.7571683 C130.1654,27.6321683 136.0154,18.9221683 147.3254,18.9221683 C158.5704,18.9221683 164.4854,27.6321683 164.4854,35.7571683 C164.4854,43.8821683 158.5704,52.5921683 147.3254,52.5921683 Z M147.3254,47.3921683 C153.5654,47.3921683 158.3104,42.5821683 158.3104,35.7571683 C158.3104,28.9321683 153.5654,24.1221683 147.3254,24.1221683 C141.0854,24.1221683 136.3404,28.9321683 136.3404,35.7571683 C136.3404,42.5821683 141.0854,47.3921683 147.3254,47.3921683 Z M174.691,15.0871683 C172.481,15.0871683 170.791,13.5271683 170.791,11.3171683 C170.791,9.17216827 172.481,7.54716827 174.691,7.54716827 C176.901,7.54716827 178.591,9.17216827 178.591,11.3171683 C178.591,13.5271683 176.901,15.0871683 174.691,15.0871683 Z M171.636,51.8121683 L171.636,19.7021683 L177.746,19.7021683 L177.746,51.8121683 L171.636,51.8121683 Z M196.9216,52.3971683 C190.8766,52.3971683 188.2766,49.2121683 188.2766,43.0371683 L188.2766,24.5771683 L183.7266,24.5771683 L183.7266,19.7021683 L188.2766,19.7021683 L188.2766,10.9921683 L194.4516,10.9921683 L194.4516,19.7021683 L202.0566,19.7021683 L202.0566,24.5771683 L194.4516,24.5771683 L194.4516,42.3871683 C194.4516,45.8321683 195.6216,47.3271683 198.2216,47.3271683 C199.7166,47.3271683 200.8866,47.1321683 201.6666,46.7421683 L201.6666,51.8121683 C200.5616,52.1371683 199.0016,52.3971683 196.9216,52.3971683 Z"/>
  </g>
</svg>
