<svg xmlns="http://www.w3.org/2000/svg" width="1920" height="249" viewBox="0 0 1920 249">
  <g fill="none" fill-rule="evenodd">
    <path fill="#009BD3" class='no-color-change' d="M262.425,143.476 L271.415,115.4 C265.789,107.401 261.888,98.013 260.448,87.661 C259.675,82.108 259.72,76.643 260.356,71.327 C260.276,71.327 260.198,71.314 260.118,71.314 C225.008,71.314 196.546,99.777 196.546,134.886 C196.546,169.997 225.008,198.458 260.118,198.458 C276.616,198.458 291.596,192.121 302.896,181.815 L329.424,190.442 L316.651,163.873 C320.032,157.292 322.32,150.058 323.236,142.401 C310.164,142.363 297.799,138.331 287.511,131.274 L262.425,143.476"/>
    <path fill="#E3DB34" class='no-color-change' d="M386.378,70.135 C381.538,35.36 349.424,11.093 314.65,15.933 C285.427,19.999 263.701,43.345 260.356,71.327 C295.355,71.457 323.69,99.857 323.69,134.886 C323.69,137.431 323.531,139.937 323.236,142.401 C326.189,142.41 329.165,142.282 332.175,141.863 C366.95,137.023 391.217,104.91 386.378,70.135"/>
    <path fill="#188A45" class='no-color-change' d="M260.356,71.327 C259.72,76.643 259.675,82.108 260.448,87.661 C261.888,98.013 265.789,107.401 271.415,115.4 L262.425,143.476 L287.511,131.274 C297.799,138.331 310.164,142.363 323.236,142.401 C323.531,139.937 323.69,137.431 323.69,134.886 C323.69,99.857 295.355,71.457 260.356,71.327"/>
    <path fill="#2F302E" d="M0,176.065 L15.849,154.17 C21.733,161.195 31.536,167.569 42.811,167.569 C51.308,167.569 56.376,163.973 56.376,157.272 C56.376,149.264 49.023,146.98 36.604,143.218 C19.934,138.156 5.229,129.493 5.229,109.721 C5.229,87.988 23.04,73.443 48.202,73.443 C65.689,73.443 78.925,78.836 87.26,86.68 L72.39,108.577 C67.651,103.184 59.643,98.608 49.84,98.608 C41.339,98.608 37.744,102.039 37.744,106.615 C37.744,113.806 46.406,115.767 55.886,118.707 C74.513,124.591 88.894,133.088 88.894,154.17 C88.894,176.227 73.041,192.731 44.445,192.731 C23.367,192.731 7.025,183.745 0,176.065"/>
    <polyline fill="#2F302E" points="124.507 102.367 96.235 102.367 96.235 75.732 185.623 75.732 185.623 102.367 157.35 102.367 157.35 190.446 124.507 190.446 124.507 102.367"/>
    <path fill="#2F302E" d="M398.385 126.714C409.333 126.714 414.889 122.466 414.889 114.295 414.889 106.125 409.333 101.877 398.385 101.877L388.905 101.877 388.905 126.714 398.385 126.714zM356.063 75.732L403.614 75.732C428.126 75.732 448.552 86.68 448.552 114.295 448.552 127.695 440.873 139.461 425.347 145.997L455.088 190.446 417.829 190.446 393.811 151.553 388.905 151.553 388.905 190.446 356.063 190.446 356.063 75.732zM486.944 149.592L444.129 75.732 480.081 75.732 495.602 104C498.87 110.046 503.448 119.198 504.427 125.245L505.082 125.245C506.061 119.198 510.638 110.046 513.906 104L529.428 75.732 564.398 75.732 521.586 149.592 521.586 190.446 486.944 190.446 486.944 149.592"/>
    <polyline fill="#2F302E" points="600.338 102.367 572.066 102.367 572.066 75.732 661.453 75.732 661.453 102.367 633.18 102.367 633.18 190.446 600.338 190.446 600.338 102.367"/>
    <polyline fill="#2F302E" points="674.843 75.732 744.455 75.732 744.455 101.713 707.686 101.713 707.686 118.871 743.8 118.871 743.8 144.852 707.686 144.852 707.686 164.462 745.923 164.462 745.923 190.446 674.843 190.446 674.843 75.732"/>
    <polyline fill="#2F302E" points="758.501 75.732 791.343 75.732 791.343 163.811 828.113 163.811 828.113 190.446 758.501 190.446 758.501 75.732"/>
    <polyline fill="#2F302E" points="842.32 75.732 875.163 75.732 875.163 163.811 911.932 163.811 911.932 190.446 842.32 190.446 842.32 75.732"/>
    <polyline fill="#2F302E" points="922.872 75.732 992.484 75.732 992.484 101.713 955.714 101.713 955.714 118.871 991.828 118.871 991.828 144.852 955.714 144.852 955.714 164.462 993.951 164.462 993.951 190.446 922.872 190.446 922.872 75.732"/>
    <path fill="#2F302E" d="M1052.12 126.714C1063.07 126.714 1068.62 122.466 1068.62 114.295 1068.62 106.125 1063.07 101.877 1052.12 101.877L1042.64 101.877 1042.64 126.714 1052.12 126.714zM1009.8 75.732L1057.35 75.732C1081.86 75.732 1102.29 86.68 1102.29 114.295 1102.29 127.695 1094.61 139.461 1079.08 145.997L1108.82 190.446 1071.56 190.446 1047.55 151.553 1042.64 151.553 1042.64 190.446 1009.8 190.446 1009.8 75.732zM1108 176.065L1123.85 154.17C1129.73 161.195 1139.53 167.569 1150.81 167.569 1159.3 167.569 1164.37 163.973 1164.37 157.272 1164.37 149.264 1157.02 146.98 1144.6 143.218 1127.93 138.156 1113.23 129.493 1113.23 109.721 1113.23 87.988 1131.04 73.443 1156.2 73.443 1173.69 73.443 1186.92 78.836 1195.26 86.68L1180.39 108.577C1175.65 103.184 1167.64 98.608 1157.84 98.608 1149.34 98.608 1145.74 102.039 1145.74 106.615 1145.74 113.806 1154.4 115.767 1163.88 118.707 1182.51 124.591 1196.89 133.088 1196.89 154.17 1196.89 176.227 1181.04 192.731 1152.44 192.731 1131.36 192.731 1115.02 183.745 1108 176.065"/>
    <path fill="#009BD3" class='no-color-change' d="M1285.05 129.821C1297.47 129.821 1303.02 125.57 1303.02 115.929 1303.02 106.289 1297.47 101.877 1285.05 101.877L1279.49 101.877 1279.49 129.821 1285.05 129.821zM1246.65 75.732L1290.11 75.732C1319.86 75.732 1336.85 93.053 1336.85 115.929 1336.85 138.806 1319.86 155.965 1290.11 155.965L1279.49 155.965 1279.49 190.446 1246.65 190.446 1246.65 75.732zM1388.48 126.714C1399.42 126.714 1404.98 122.466 1404.98 114.295 1404.98 106.125 1399.42 101.877 1388.48 101.877L1379 101.877 1379 126.714 1388.48 126.714zM1346.15 75.732L1393.71 75.732C1418.22 75.732 1438.64 86.68 1438.64 114.295 1438.64 127.695 1430.96 139.461 1415.44 145.997L1445.18 190.446 1407.92 190.446 1383.9 151.553 1379 151.553 1379 190.446 1346.15 190.446 1346.15 75.732zM1537.66 133.251C1537.66 112.661 1524.26 102.039 1508.25 102.039 1492.56 102.039 1479.16 112.661 1479.16 133.251 1479.16 153.677 1492.56 164.135 1508.25 164.135 1524.26 164.135 1537.66 153.677 1537.66 133.251zM1445.5 133.251C1445.5 104.981 1465.76 73.443 1508.41 73.443 1551.22 73.443 1571.49 104.981 1571.49 133.251 1571.49 161.357 1551.22 192.731 1508.41 192.731 1465.76 192.731 1445.5 161.357 1445.5 133.251zM1562.81 177.861L1579.64 157.11C1582.75 161.357 1587 164.135 1592.72 164.135 1601.38 164.135 1603.83 158.906 1603.83 152.698L1603.83 75.732 1636.67 75.732 1636.67 157.272C1636.67 177.861 1621.64 192.731 1597.29 192.731 1582.42 192.731 1569.02 187.178 1562.81 177.861"/>
    <polyline fill="#009BD3" class='no-color-change' points="1651.7 75.732 1721.31 75.732 1721.31 101.713 1684.55 101.713 1684.55 118.871 1720.66 118.871 1720.66 144.852 1684.55 144.852 1684.55 164.462 1722.79 164.462 1722.79 190.446 1651.7 190.446 1651.7 75.732"/>
    <path fill="#009BD3" class='no-color-change' d="M1730.46,133.088 C1730.46,97.791 1754.97,73.443 1791.74,73.443 C1805.3,73.443 1814.45,76.712 1819.19,79.489 L1819.19,109.883 C1813.8,105.634 1804.81,102.039 1794.19,102.039 C1776.05,102.039 1764.12,113.478 1764.12,133.088 C1764.12,152.698 1775.89,164.135 1794.02,164.135 C1804.81,164.135 1814.61,161.522 1820.49,156.293 L1820.49,186.685 C1815.76,189.463 1805.3,192.731 1791.57,192.731 C1754.48,192.731 1730.46,168.547 1730.46,133.088"/>
    <polyline fill="#009BD3" class='no-color-change' points="1858.88 102.367 1830.61 102.367 1830.61 75.732 1920 75.732 1920 102.367 1891.73 102.367 1891.73 190.446 1858.88 190.446 1858.88 102.367"/>
    <path fill="#2F302E" d="M1254.12 234.719C1257.82 234.719 1259.8 232.655 1259.8 229.54 1259.8 226.461 1257.82 224.363 1254.12 224.363L1250.5 224.363 1250.5 234.719 1254.12 234.719zM1246.65 221.129L1254.51 221.129C1260.04 221.129 1263.74 224.439 1263.74 229.54 1263.74 234.642 1259.96 237.944 1254.51 237.944L1250.5 237.944 1250.5 248.455 1246.65 248.455 1246.65 221.129zM1281.15 238.064L1278.55 231.332C1278.16 230.317 1276.48 226.112 1276.44 225.762L1276.37 225.762C1276.33 226.112 1274.69 230.198 1274.26 231.332L1271.62 238.064 1281.15 238.064zM1274.73 221.129L1278.16 221.129 1289.37 248.455 1285.24 248.455 1282.44 241.296 1270.34 241.296 1267.53 248.455 1263.48 248.455C1263.48 248.455 1273.37 224.482 1274.73 221.129zM1300.75 234.173C1304.33 234.173 1306.36 232.262 1306.36 229.268 1306.36 226.274 1304.33 224.363 1300.75 224.363L1297.13 224.363 1297.13 234.173 1300.75 234.173zM1293.28 221.129L1301.18 221.129C1306.28 221.129 1310.25 223.783 1310.25 229.225 1310.25 233.474 1307.45 236.272 1303.32 236.937L1311.69 248.455 1307.17 248.455 1299.27 237.322 1297.13 237.322 1297.13 248.455 1293.28 248.455 1293.28 221.129z"/>
    <polyline fill="#2F302E" points="1320.93 224.439 1313.15 224.439 1313.15 221.129 1332.57 221.129 1332.57 224.439 1324.78 224.439 1324.78 248.455 1320.93 248.455 1320.93 224.439"/>
    <path fill="#2F302E" d="M1367.31,234.796 C1367.31,228.449 1362.91,224.055 1356.88,224.055 C1350.93,224.055 1346.49,228.449 1346.49,234.796 C1346.49,241.143 1350.93,245.537 1356.88,245.537 C1362.91,245.537 1367.31,241.143 1367.31,234.796 Z M1342.56,234.796 C1342.56,227.126 1348.12,220.592 1356.92,220.592 C1365.72,220.592 1371.28,227.126 1371.28,234.796 C1371.28,242.465 1365.72,249 1356.92,249 C1348.12,249 1342.56,242.465 1342.56,234.796 Z"/>
    <polyline fill="#2F302E" points="1376.83 221.129 1390.61 221.129 1390.61 224.439 1380.68 224.439 1380.68 233.235 1390.29 233.235 1390.29 236.545 1380.68 236.545 1380.68 248.455 1376.83 248.455 1376.83 221.129"/>
    <polyline fill="#2F302E" points="1408.03 224.439 1400.25 224.439 1400.25 221.129 1419.67 221.129 1419.67 224.439 1411.88 224.439 1411.88 248.455 1408.03 248.455 1408.03 224.439"/>
    <polyline fill="#2F302E" points="1423.71 221.129 1427.56 221.129 1427.56 232.339 1441.89 232.339 1441.89 221.129 1445.74 221.129 1445.74 248.455 1441.89 248.455 1441.89 235.649 1427.56 235.649 1427.56 248.455 1423.71 248.455 1423.71 221.129"/>
    <polyline fill="#2F302E" points="1452.84 221.129 1467.71 221.129 1467.71 224.406 1456.69 224.406 1456.69 232.339 1467.39 232.339 1467.39 235.615 1456.69 235.615 1456.69 245.187 1467.94 245.187 1467.94 248.455 1452.84 248.455 1452.84 221.129"/>
    <path fill="#2F302E" d="M1480.86 239.036L1480.86 221.129 1484.75 221.129 1484.75 237.868C1484.75 242.619 1486.77 245.537 1491.32 245.537 1495.92 245.537 1497.94 242.619 1497.94 237.868L1497.94 221.129 1501.83 221.129 1501.83 239.036C1501.83 245.034 1497.98 249 1491.32 249 1484.63 249 1480.86 245.034 1480.86 239.036M1505.86 243.515L1508.47 241.296C1509.79 243.472 1511.89 245.614 1515.32 245.614 1518.31 245.614 1520.65 243.984 1520.65 240.981 1520.65 237.756 1517.96 236.664 1514.61 235.342 1511.19 233.977 1507.72 232.262 1507.72 227.903 1507.72 223.586 1511.07 220.592 1515.98 220.592 1519.87 220.592 1522.44 222.374 1524 224.712L1521.39 226.93C1520.34 225.301 1518.59 223.97 1515.98 223.97 1513.33 223.97 1511.58 225.335 1511.58 227.63 1511.58 230.471 1514.3 231.41 1516.68 232.339 1520.53 233.858 1524.5 235.692 1524.5 240.708 1524.5 245.459 1521 249 1515.39 249 1510.72 249 1507.61 246.552 1505.86 243.515M1544.22 238.064L1541.62 231.332C1541.23 230.317 1539.55 226.112 1539.52 225.762L1539.44 225.762C1539.4 226.112 1537.77 230.198 1537.34 231.332L1534.69 238.064 1544.22 238.064zM1537.8 221.129L1541.23 221.129 1552.44 248.455 1548.31 248.455 1545.51 241.296 1533.41 241.296 1530.6 248.455 1526.56 248.455C1526.56 248.455 1536.44 224.482 1537.8 221.129z"/>
    <polyline fill="#2F302E" points="1568.7 224.439 1560.92 224.439 1560.92 221.129 1580.34 221.129 1580.34 224.439 1572.56 224.439 1572.56 248.455 1568.7 248.455 1568.7 224.439"/>
    <path fill="#2F302E" d="M1606.54 234.796C1606.54 228.449 1602.14 224.055 1596.11 224.055 1590.16 224.055 1585.72 228.449 1585.72 234.796 1585.72 241.143 1590.16 245.537 1596.11 245.537 1602.14 245.537 1606.54 241.143 1606.54 234.796zM1581.79 234.796C1581.79 227.126 1587.35 220.592 1596.15 220.592 1604.94 220.592 1610.51 227.126 1610.51 234.796 1610.51 242.465 1604.94 249 1596.15 249 1587.35 249 1581.79 242.465 1581.79 234.796zM1619.91 245.144L1623.49 245.144C1629.87 245.144 1634.31 241.766 1634.31 234.796 1634.31 227.827 1629.87 224.439 1623.49 224.439L1619.91 224.439 1619.91 245.144zM1616.06 221.129L1623.8 221.129C1632.52 221.129 1638.28 226.112 1638.28 234.796 1638.28 243.438 1632.48 248.455 1623.8 248.455L1616.06 248.455 1616.06 221.129zM1657.22 238.064L1654.61 231.332C1654.22 230.317 1652.55 226.112 1652.51 225.762L1652.43 225.762C1652.39 226.112 1650.76 230.198 1650.33 231.332L1647.69 238.064 1657.22 238.064zM1650.8 221.129L1654.22 221.129 1665.43 248.455 1661.3 248.455 1658.51 241.296 1646.4 241.296 1643.6 248.455 1639.55 248.455C1639.55 248.455 1649.43 224.482 1650.8 221.129zM1673.13 237.322L1663.83 221.129 1668.15 221.129 1673.21 230.241C1673.44 230.667 1675.07 233.67 1675.15 234.13L1675.19 234.13C1675.27 233.67 1676.9 230.667 1677.14 230.241L1682.24 221.129 1686.44 221.129 1677.14 237.322 1677.14 248.455 1673.13 248.455 1673.13 237.322M1697.76 221.129L1700.71 221.129 1716.21 238.84C1716.67 239.352 1718.7 241.876 1718.89 242.269L1718.97 242.227C1718.89 241.843 1718.89 238.686 1718.89 237.987L1718.89 221.129 1722.63 221.129 1722.63 248.455 1719.63 248.455 1704.14 230.744C1703.67 230.241 1701.65 227.706 1701.46 227.323L1701.42 227.357C1701.46 227.749 1701.5 230.906 1701.5 231.606L1701.5 248.455 1697.76 248.455 1697.76 221.129"/>
    <polyline fill="#2F302E" points="1729.73 221.129 1744.59 221.129 1744.59 224.406 1733.58 224.406 1733.58 232.339 1744.29 232.339 1744.29 235.615 1733.58 235.615 1733.58 245.187 1744.83 245.187 1744.83 248.455 1729.73 248.455 1729.73 221.129"/>
    <polyline fill="#2F302E" points="1756.65 224.439 1748.86 224.439 1748.86 221.129 1768.28 221.129 1768.28 224.439 1760.5 224.439 1760.5 248.455 1756.65 248.455 1756.65 224.439"/>
    <path fill="#2F302E" d="M1771.5 221.129L1775.58 221.129 1781.19 237.364C1781.38 237.987 1782.71 242.031 1782.75 242.653L1782.83 242.653C1782.86 242.031 1784.22 237.987 1784.46 237.364L1790.3 221.129 1793.37 221.129 1799.21 237.364C1799.44 237.987 1800.8 242.031 1800.85 242.653L1800.92 242.653C1801 242.031 1802.32 237.987 1802.52 237.364L1808.09 221.129 1812.01 221.129 1802.4 248.455 1799.44 248.455 1793.14 231.41C1792.94 230.821 1791.86 227.596 1791.81 226.973L1791.74 226.973C1791.7 227.596 1790.57 230.821 1790.38 231.41L1784.11 248.455 1781.15 248.455 1771.5 221.129M1838.49 234.796C1838.49 228.449 1834.09 224.055 1828.06 224.055 1822.11 224.055 1817.67 228.449 1817.67 234.796 1817.67 241.143 1822.11 245.537 1828.06 245.537 1834.09 245.537 1838.49 241.143 1838.49 234.796zM1813.74 234.796C1813.74 227.126 1819.3 220.592 1828.1 220.592 1836.9 220.592 1842.46 227.126 1842.46 234.796 1842.46 242.465 1836.9 249 1828.1 249 1819.3 249 1813.74 242.465 1813.74 234.796zM1855.48 234.173C1859.06 234.173 1861.09 232.262 1861.09 229.268 1861.09 226.274 1859.06 224.363 1855.48 224.363L1851.86 224.363 1851.86 234.173 1855.48 234.173zM1848.01 221.129L1855.91 221.129C1861.01 221.129 1864.98 223.783 1864.98 229.225 1864.98 233.474 1862.17 236.272 1858.05 236.937L1866.42 248.455 1861.9 248.455 1854 237.322 1851.86 237.322 1851.86 248.455 1848.01 248.455 1848.01 221.129z"/>
    <polyline fill="#2F302E" points="1870.78 221.129 1874.63 221.129 1874.63 233.824 1885.92 221.129 1890.59 221.129 1878.88 234.173 1891.14 248.455 1886.31 248.455 1874.63 234.642 1874.63 248.455 1870.78 248.455 1870.78 221.129"/>
    <polyline fill="#2F302E" points="14.469 6.353 1.329 6.353 1.329 .768 34.115 .768 34.115 6.353 20.974 6.353 20.974 46.893 14.469 46.893 14.469 6.353"/>
    <path fill="#2F302E" d="M34.248 34.211L34.248 14.435 40.424 14.435 40.424 33.095C40.424 39.336 42.855 42.556 48.045 42.556 53.433 42.556 56.456 39.008 56.456 32.897L56.456 14.435 62.697 14.435 62.697 46.893 56.718 46.893 56.718 42.556 56.587 42.556C54.747 45.316 51.922 47.681 46.6 47.681 38.584 47.681 34.248 42.687 34.248 34.211M68.613 30.729C68.613 22.253 74.724 13.646 85.959 13.646 89.178 13.646 92.004 14.369 93.581 15.289L93.581 21.202C91.938 19.888 89.31 18.968 86.222 18.968 79.717 18.968 74.855 23.699 74.855 30.664 74.855 37.497 79.586 42.359 86.288 42.359 89.376 42.359 91.938 41.439 93.778 39.994L93.778 45.907C92.07 46.827 89.244 47.681 85.893 47.681 74.724 47.681 68.613 39.14 68.613 30.729M97.919 41.57L101.598 37.891C103.438 40.256 106.197 42.687 110.6 42.687 114.214 42.687 117.105 41.045 117.105 37.891 117.105 34.409 113.425 33.16 109.351 31.846 104.489 30.27 99.956 28.101 99.956 22.779 99.956 17.194 104.883 13.646 111.52 13.646 116.841 13.646 120.521 15.946 122.426 18.377L118.879 22.188C117.367 20.282 115.002 18.64 111.52 18.64 108.3 18.64 106.066 20.085 106.066 22.451 106.066 25.473 109.614 26.458 112.702 27.51 117.565 29.152 123.215 31.124 123.215 37.497 123.215 43.673 117.959 47.681 110.666 47.681 104.226 47.681 100.021 44.593 97.919 41.57M156.266 30.664C156.266 23.765 151.469 18.902 145.162 18.902 138.854 18.902 134.058 23.765 134.058 30.664 134.058 37.562 138.854 42.425 145.162 42.425 151.469 42.425 156.266 37.562 156.266 30.664zM127.816 30.664C127.816 22.451 133.729 13.646 145.162 13.646 156.528 13.646 162.507 22.451 162.507 30.664 162.507 38.876 156.528 47.681 145.162 47.681 133.729 47.681 127.816 38.876 127.816 30.664zM168.423 14.435L174.337 14.435 174.337 18.771 174.468 18.771C176.374 16.012 179.527 13.646 184.784 13.646 192.799 13.646 197.399 18.574 197.399 27.116L197.399 46.893 191.157 46.893 191.157 28.232C191.157 22.122 188.594 18.771 183.338 18.771 177.885 18.771 174.599 22.319 174.599 28.43L174.599 46.893 168.423 46.893 168.423 14.435"/>
  </g>
</svg>
