<svg xmlns="http://www.w3.org/2000/svg" width="1921" height="264" viewBox="0 0 1921 264">
  <g fill="none" fill-rule="evenodd" transform="translate(0 -5)">
    <path fill="#009BD3" class='no-color-change' d="M263.289,163.188 L272.28,135.112 C266.654,127.113 262.753,117.725 261.312,107.372 C260.539,101.82 260.585,96.355 261.22,91.039 C261.14,91.038 261.063,91.026 260.982,91.026 C225.872,91.026 197.41,119.489 197.41,154.598 C197.41,189.708 225.872,218.17 260.982,218.17 C277.48,218.17 292.461,211.832 303.76,201.527 L330.289,210.153 L317.515,183.585 C320.897,177.004 323.185,169.77 324.101,162.113 C311.028,162.075 298.664,158.043 288.376,150.986 L263.289,163.188"/>
    <path fill="#E3DB34" class='no-color-change' d="M387.242,89.847 C382.403,55.072 350.289,30.805 315.514,35.645 C286.292,39.711 264.565,63.057 261.22,91.039 C296.219,91.168 324.554,119.569 324.554,154.598 C324.554,157.143 324.396,159.649 324.101,162.113 C327.053,162.121 330.03,161.994 333.04,161.575 C367.815,156.735 392.082,124.622 387.242,89.847"/>
    <path fill="#188A45" class='no-color-change' d="M261.22,91.039 C260.585,96.355 260.539,101.82 261.312,107.372 C262.753,117.725 266.654,127.113 272.28,135.112 L263.289,163.188 L288.376,150.986 C298.664,158.043 311.028,162.075 324.101,162.113 C324.396,159.649 324.554,157.143 324.554,154.598 C324.554,119.569 296.219,91.168 261.22,91.039"/>
    <path fill="#2F302E" d="M0.865,195.777 L16.714,173.882 C22.598,180.907 32.401,187.28 43.676,187.28 C52.173,187.28 57.24,183.685 57.24,176.984 C57.24,168.976 49.888,166.691 37.468,162.93 C20.798,157.867 6.094,149.205 6.094,129.433 C6.094,107.7 23.904,93.155 49.067,93.155 C66.554,93.155 79.79,98.548 88.125,106.391 L73.255,128.288 C68.515,122.895 60.508,118.32 50.705,118.32 C42.204,118.32 38.609,121.751 38.609,126.327 C38.609,133.517 47.271,135.479 56.751,138.419 C75.378,144.303 89.759,152.8 89.759,173.882 C89.759,195.939 73.906,212.443 45.31,212.443 C24.232,212.443 7.889,203.457 0.865,195.777"/>
    <polyline fill="#2F302E" points="125.372 122.079 97.099 122.079 97.099 95.444 186.487 95.444 186.487 122.079 158.215 122.079 158.215 210.158 125.372 210.158 125.372 122.079"/>
    <path fill="#2F302E" d="M399.249 146.426C410.197 146.426 415.754 142.178 415.754 134.007 415.754 125.838 410.197 121.589 399.249 121.589L389.77 121.589 389.77 146.426 399.249 146.426zM356.927 95.444L404.479 95.444C428.99 95.444 449.417 106.391 449.417 134.007 449.417 147.407 441.737 159.173 426.212 165.709L455.952 210.158 418.694 210.158 394.676 171.265 389.77 171.265 389.77 210.158 356.927 210.158 356.927 95.444zM487.808 169.304L444.993 95.444 480.945 95.444 496.467 123.712C499.735 129.758 504.313 138.91 505.291 144.956L505.946 144.956C506.925 138.91 511.503 129.758 514.771 123.712L530.292 95.444 565.262 95.444 522.451 169.304 522.451 210.158 487.808 210.158 487.808 169.304"/>
    <polyline fill="#2F302E" points="601.202 122.079 572.93 122.079 572.93 95.444 662.318 95.444 662.318 122.079 634.045 122.079 634.045 210.158 601.202 210.158 601.202 122.079"/>
    <polyline fill="#2F302E" points="675.708 95.444 745.32 95.444 745.32 121.425 708.551 121.425 708.551 138.583 744.665 138.583 744.665 164.564 708.551 164.564 708.551 184.174 746.788 184.174 746.788 210.158 675.708 210.158 675.708 95.444"/>
    <polyline fill="#2F302E" points="759.365 95.444 792.208 95.444 792.208 183.523 828.977 183.523 828.977 210.158 759.365 210.158 759.365 95.444"/>
    <polyline fill="#2F302E" points="843.185 95.444 876.027 95.444 876.027 183.523 912.8 183.523 912.8 210.158 843.185 210.158 843.185 95.444"/>
    <polyline fill="#2F302E" points="923.74 95.444 993.35 95.444 993.35 121.425 956.58 121.425 956.58 138.583 992.69 138.583 992.69 164.564 956.58 164.564 956.58 184.174 994.82 184.174 994.82 210.158 923.74 210.158 923.74 95.444"/>
    <path fill="#2F302E" d="M1052.98 146.426C1063.93 146.426 1069.49 142.178 1069.49 134.007 1069.49 125.838 1063.93 121.589 1052.98 121.589L1043.5 121.589 1043.5 146.426 1052.98 146.426zM1010.66 95.444L1058.21 95.444C1082.72 95.444 1103.15 106.391 1103.15 134.007 1103.15 147.407 1095.47 159.173 1079.95 165.709L1109.69 210.158 1072.43 210.158 1048.41 171.265 1043.5 171.265 1043.5 210.158 1010.66 210.158 1010.66 95.444zM1108.86 195.777L1124.71 173.882C1130.59 180.907 1140.4 187.28 1151.67 187.28 1160.17 187.28 1165.24 183.685 1165.24 176.984 1165.24 168.976 1157.88 166.691 1145.46 162.93 1128.79 157.867 1114.09 149.205 1114.09 129.433 1114.09 107.7 1131.9 93.155 1157.06 93.155 1174.55 93.155 1187.79 98.548 1196.12 106.391L1181.25 128.288C1176.51 122.895 1168.5 118.32 1158.7 118.32 1150.2 118.32 1146.61 121.751 1146.61 126.327 1146.61 133.517 1155.27 135.479 1164.75 138.419 1183.37 144.303 1197.76 152.8 1197.76 173.882 1197.76 195.939 1181.9 212.443 1153.31 212.443 1132.23 212.443 1115.89 203.457 1108.86 195.777"/>
    <path fill="#009BD3" class='no-color-change' d="M1285.91 149.532C1298.33 149.532 1303.89 145.282 1303.89 135.641 1303.89 126.001 1298.33 121.589 1285.91 121.589L1280.36 121.589 1280.36 149.532 1285.91 149.532zM1247.51 95.444L1290.98 95.444C1320.72 95.444 1337.71 112.765 1337.71 135.641 1337.71 158.518 1320.72 175.678 1290.98 175.678L1280.36 175.678 1280.36 210.158 1247.51 210.158 1247.51 95.444zM1389.34 146.426C1400.29 146.426 1405.85 142.178 1405.85 134.007 1405.85 125.838 1400.29 121.589 1389.34 121.589L1379.86 121.589 1379.86 146.426 1389.34 146.426zM1347.02 95.444L1394.57 95.444C1419.08 95.444 1439.51 106.391 1439.51 134.007 1439.51 147.407 1431.83 159.173 1416.3 165.709L1446.04 210.158 1408.79 210.158 1384.77 171.265 1379.86 171.265 1379.86 210.158 1347.02 210.158 1347.02 95.444zM1538.53 152.964C1538.53 132.373 1525.12 121.751 1509.11 121.751 1493.43 121.751 1480.02 132.373 1480.02 152.964 1480.02 173.389 1493.43 183.847 1509.11 183.847 1525.12 183.847 1538.53 173.389 1538.53 152.964zM1446.36 152.964C1446.36 124.693 1466.63 93.155 1509.27 93.155 1552.09 93.155 1572.35 124.693 1572.35 152.964 1572.35 181.068 1552.09 212.443 1509.27 212.443 1466.63 212.443 1446.36 181.068 1446.36 152.964zM1563.68 197.573L1580.51 176.822C1583.61 181.068 1587.86 183.847 1593.58 183.847 1602.24 183.847 1604.69 178.618 1604.69 172.41L1604.69 95.444 1637.54 95.444 1637.54 176.984C1637.54 197.573 1622.51 212.443 1598.16 212.443 1583.29 212.443 1569.89 206.89 1563.68 197.573"/>
    <polyline fill="#009BD3" class='no-color-change' points="1652.57 95.444 1722.18 95.444 1722.18 121.425 1685.41 121.425 1685.41 138.583 1721.52 138.583 1721.52 164.564 1685.41 164.564 1685.41 184.174 1723.65 184.174 1723.65 210.158 1652.57 210.158 1652.57 95.444"/>
    <path fill="#009BD3" class='no-color-change' d="M1731.32,152.8 C1731.32,117.503 1755.83,93.155 1792.6,93.155 C1806.16,93.155 1815.31,96.424 1820.05,99.201 L1820.05,129.595 C1814.66,125.346 1805.67,121.751 1795.05,121.751 C1776.91,121.751 1764.98,133.19 1764.98,152.8 C1764.98,172.41 1776.75,183.847 1794.89,183.847 C1805.67,183.847 1815.48,181.234 1821.36,176.005 L1821.36,206.397 C1816.62,209.175 1806.16,212.443 1792.44,212.443 C1755.34,212.443 1731.32,188.259 1731.32,152.8"/>
    <polyline fill="#009BD3" class='no-color-change' points="1859.75 122.079 1831.48 122.079 1831.48 95.444 1920.86 95.444 1920.86 122.079 1892.59 122.079 1892.59 210.158 1859.75 210.158 1859.75 122.079"/>
    <path fill="#2F302E" d="M1254.99 254.431C1258.68 254.431 1260.67 252.367 1260.67 249.253 1260.67 246.173 1258.68 244.074 1254.99 244.074L1251.36 244.074 1251.36 254.431 1254.99 254.431zM1247.51 240.841L1255.37 240.841C1260.9 240.841 1264.6 244.151 1264.6 249.253 1264.6 254.354 1260.83 257.656 1255.37 257.656L1251.36 257.656 1251.36 268.166 1247.51 268.166 1247.51 240.841zM1282.02 257.775L1279.41 251.044C1279.02 250.029 1277.35 245.823 1277.31 245.474L1277.23 245.474C1277.19 245.823 1275.56 249.91 1275.13 251.044L1272.48 257.775 1282.02 257.775zM1275.6 240.841L1279.02 240.841 1290.23 268.166 1286.1 268.166 1283.3 261.009 1271.2 261.009 1268.4 268.166 1264.35 268.166C1264.35 268.166 1274.23 244.194 1275.6 240.841zM1301.62 253.885C1305.2 253.885 1307.22 251.974 1307.22 248.98 1307.22 245.985 1305.2 244.074 1301.62 244.074L1298 244.074 1298 253.885 1301.62 253.885zM1294.14 240.841L1302.04 240.841C1307.14 240.841 1311.11 243.494 1311.11 248.937 1311.11 253.186 1308.31 255.984 1304.18 256.649L1312.55 268.166 1308.04 268.166 1300.14 257.033 1298 257.033 1298 268.166 1294.14 268.166 1294.14 240.841z"/>
    <polyline fill="#2F302E" points="1321.8 244.151 1314.01 244.151 1314.01 240.841 1333.43 240.841 1333.43 244.151 1325.65 244.151 1325.65 268.166 1321.8 268.166 1321.8 244.151"/>
    <path fill="#2F302E" d="M1368.18,254.508 C1368.18,248.161 1363.78,243.767 1357.75,243.767 C1351.79,243.767 1347.35,248.161 1347.35,254.508 C1347.35,260.855 1351.79,265.249 1357.75,265.249 C1363.78,265.249 1368.18,260.855 1368.18,254.508 Z M1343.42,254.508 C1343.42,246.839 1348.99,240.304 1357.79,240.304 C1366.58,240.304 1372.15,246.839 1372.15,254.508 C1372.15,262.177 1366.58,268.712 1357.79,268.712 C1348.99,268.712 1343.42,262.177 1343.42,254.508 Z"/>
    <polyline fill="#2F302E" points="1377.69 240.841 1391.47 240.841 1391.47 244.151 1381.54 244.151 1381.54 252.947 1391.16 252.947 1391.16 256.257 1381.54 256.257 1381.54 268.166 1377.69 268.166 1377.69 240.841"/>
    <polyline fill="#2F302E" points="1408.9 244.151 1401.11 244.151 1401.11 240.841 1420.53 240.841 1420.53 244.151 1412.75 244.151 1412.75 268.166 1408.9 268.166 1408.9 244.151"/>
    <polyline fill="#2F302E" points="1424.58 240.841 1428.43 240.841 1428.43 252.051 1442.75 252.051 1442.75 240.841 1446.61 240.841 1446.61 268.166 1442.75 268.166 1442.75 255.361 1428.43 255.361 1428.43 268.166 1424.58 268.166 1424.58 240.841"/>
    <polyline fill="#2F302E" points="1453.7 240.841 1468.57 240.841 1468.57 244.117 1457.56 244.117 1457.56 252.051 1468.26 252.051 1468.26 255.327 1457.56 255.327 1457.56 264.899 1468.8 264.899 1468.8 268.166 1453.7 268.166 1453.7 240.841"/>
    <path fill="#2F302E" d="M1481.72 258.748L1481.72 240.841 1485.61 240.841 1485.61 257.579C1485.61 262.331 1487.64 265.249 1492.19 265.249 1496.78 265.249 1498.81 262.331 1498.81 257.579L1498.81 240.841 1502.7 240.841 1502.7 258.748C1502.7 264.745 1498.85 268.712 1492.19 268.712 1485.5 268.712 1481.72 264.745 1481.72 258.748M1506.72 263.227L1509.33 261.009C1510.65 263.184 1512.76 265.325 1516.18 265.325 1519.18 265.325 1521.51 263.696 1521.51 260.693 1521.51 257.468 1518.83 256.376 1515.48 255.054 1512.05 253.689 1508.59 251.974 1508.59 247.615 1508.59 243.298 1511.94 240.304 1516.84 240.304 1520.73 240.304 1523.3 242.087 1524.86 244.424L1522.25 246.642C1521.2 245.013 1519.45 243.682 1516.84 243.682 1514.19 243.682 1512.45 245.047 1512.45 247.342 1512.45 250.183 1515.17 251.121 1517.54 252.051 1521.39 253.57 1525.37 255.404 1525.37 260.42 1525.37 265.172 1521.86 268.712 1516.26 268.712 1511.59 268.712 1508.47 266.264 1506.72 263.227M1545.09 257.775L1542.48 251.044C1542.09 250.029 1540.42 245.823 1540.38 245.474L1540.3 245.474C1540.26 245.823 1538.63 249.91 1538.2 251.044L1535.56 257.775 1545.09 257.775zM1538.67 240.841L1542.09 240.841 1553.3 268.166 1549.18 268.166 1546.38 261.009 1534.27 261.009 1531.47 268.166 1527.42 268.166C1527.42 268.166 1537.3 244.194 1538.67 240.841z"/>
    <polyline fill="#2F302E" points="1569.57 244.151 1561.78 244.151 1561.78 240.841 1581.21 240.841 1581.21 244.151 1573.42 244.151 1573.42 268.166 1569.57 268.166 1569.57 244.151"/>
    <path fill="#2F302E" d="M1607.4 254.508C1607.4 248.161 1603.01 243.767 1596.98 243.767 1591.02 243.767 1586.58 248.161 1586.58 254.508 1586.58 260.855 1591.02 265.249 1596.98 265.249 1603.01 265.249 1607.4 260.855 1607.4 254.508zM1582.65 254.508C1582.65 246.839 1588.21 240.304 1597.01 240.304 1605.81 240.304 1611.38 246.839 1611.38 254.508 1611.38 262.177 1605.81 268.712 1597.01 268.712 1588.21 268.712 1582.65 262.177 1582.65 254.508zM1620.77 264.856L1624.36 264.856C1630.74 264.856 1635.17 261.478 1635.17 254.508 1635.17 247.538 1630.74 244.151 1624.36 244.151L1620.77 244.151 1620.77 264.856zM1616.92 240.841L1624.67 240.841C1633.39 240.841 1639.14 245.823 1639.14 254.508 1639.14 263.15 1633.34 268.166 1624.67 268.166L1616.92 268.166 1616.92 240.841zM1658.08 257.775L1655.48 251.044C1655.09 250.029 1653.41 245.823 1653.37 245.474L1653.3 245.474C1653.26 245.823 1651.63 249.91 1651.19 251.044L1648.55 257.775 1658.08 257.775zM1651.66 240.841L1655.09 240.841 1666.3 268.166 1662.17 268.166 1659.37 261.009 1647.27 261.009 1644.46 268.166 1640.42 268.166C1640.42 268.166 1650.3 244.194 1651.66 240.841zM1673.99 257.033L1664.69 240.841 1669.01 240.841 1674.07 249.952C1674.31 250.379 1675.94 253.382 1676.02 253.843L1676.05 253.843C1676.14 253.382 1677.77 250.379 1678 249.952L1683.1 240.841 1687.3 240.841 1678 257.033 1678 268.166 1673.99 268.166 1673.99 257.033M1698.62 240.841L1701.58 240.841 1717.07 258.552C1717.54 259.064 1719.56 261.589 1719.76 261.981L1719.84 261.939C1719.76 261.555 1719.76 258.398 1719.76 257.699L1719.76 240.841 1723.5 240.841 1723.5 268.166 1720.5 268.166 1705 250.456C1704.54 249.952 1702.51 247.419 1702.32 247.035L1702.28 247.069C1702.32 247.461 1702.36 250.618 1702.36 251.317L1702.36 268.166 1698.62 268.166 1698.62 240.841"/>
    <polyline fill="#2F302E" points="1730.59 240.841 1745.46 240.841 1745.46 244.117 1734.44 244.117 1734.44 252.051 1745.15 252.051 1745.15 255.327 1734.44 255.327 1734.44 264.899 1745.69 264.899 1745.69 268.166 1730.59 268.166 1730.59 240.841"/>
    <polyline fill="#2F302E" points="1757.51 244.151 1749.73 244.151 1749.73 240.841 1769.15 240.841 1769.15 244.151 1761.36 244.151 1761.36 268.166 1757.51 268.166 1757.51 244.151"/>
    <path fill="#2F302E" d="M1772.36 240.841L1776.45 240.841 1782.05 257.076C1782.25 257.699 1783.57 261.742 1783.61 262.365L1783.69 262.365C1783.73 261.742 1785.09 257.699 1785.32 257.076L1791.16 240.841 1794.24 240.841 1800.07 257.076C1800.31 257.699 1801.67 261.742 1801.71 262.365L1801.79 262.365C1801.87 261.742 1803.19 257.699 1803.38 257.076L1808.95 240.841 1812.88 240.841 1803.26 268.166 1800.31 268.166 1794 251.121C1793.81 250.532 1792.72 247.308 1792.68 246.685L1792.6 246.685C1792.56 247.308 1791.43 250.532 1791.24 251.121L1784.97 268.166 1782.01 268.166 1772.36 240.841M1839.36 254.508C1839.36 248.161 1834.96 243.767 1828.93 243.767 1822.97 243.767 1818.53 248.161 1818.53 254.508 1818.53 260.855 1822.97 265.249 1828.93 265.249 1834.96 265.249 1839.36 260.855 1839.36 254.508zM1814.6 254.508C1814.6 246.839 1820.16 240.304 1828.96 240.304 1837.76 240.304 1843.33 246.839 1843.33 254.508 1843.33 262.177 1837.76 268.712 1828.96 268.712 1820.16 268.712 1814.6 262.177 1814.6 254.508zM1856.35 253.885C1859.92 253.885 1861.95 251.974 1861.95 248.98 1861.95 245.985 1859.92 244.074 1856.35 244.074L1852.72 244.074 1852.72 253.885 1856.35 253.885zM1848.87 240.841L1856.77 240.841C1861.87 240.841 1865.84 243.494 1865.84 248.937 1865.84 253.186 1863.04 255.984 1858.91 256.649L1867.28 268.166 1862.76 268.166 1854.87 257.033 1852.72 257.033 1852.72 268.166 1848.87 268.166 1848.87 240.841z"/>
    <polyline fill="#2F302E" points="1871.65 240.841 1875.5 240.841 1875.5 253.535 1886.78 240.841 1891.45 240.841 1879.74 253.885 1892 268.166 1887.18 268.166 1875.5 254.354 1875.5 268.166 1871.65 268.166 1871.65 240.841"/>
    <path fill="#2F302E" d="M21.737,51.5248683 L2.692,5.89486827 L9.647,5.89486827 L20.892,33.3248683 C21.217,34.1048683 24.077,41.8398683 24.142,42.5548683 L24.207,42.5548683 C24.337,41.8398683 27.132,34.1048683 27.457,33.3248683 L38.767,5.89486827 L45.462,5.89486827 L26.417,51.5248683 L21.737,51.5248683 Z M58.787,52.3048683 C47.347,52.3048683 41.887,43.7248683 41.887,35.4698683 C41.887,27.7348683 46.632,18.6348683 58.267,18.6348683 C69.837,18.6348683 74.387,27.5398683 74.387,35.1448683 C74.387,35.5998683 74.387,35.9248683 74.322,36.6398683 L47.932,36.6398683 C48.062,42.8798683 52.547,47.3648683 59.112,47.3648683 C63.792,47.3648683 67.302,45.0898683 69.317,41.5148683 L73.737,44.3098683 C70.617,49.7048683 65.092,52.3048683 58.787,52.3048683 Z M48.127,32.2198683 L68.342,32.2198683 C67.367,26.7598683 63.402,23.3148683 58.267,23.3148683 C52.937,23.3148683 49.102,26.9548683 48.127,32.2198683 Z M81.537,51.5248683 L81.537,19.4148683 L87.387,19.4148683 L87.387,23.7048683 L87.517,23.7048683 C89.402,20.9748683 92.522,18.6348683 97.722,18.6348683 C105.652,18.6348683 110.202,23.5098683 110.202,31.9598683 L110.202,51.5248683 L104.027,51.5248683 L104.027,33.0648683 C104.027,27.0198683 101.492,23.7048683 96.292,23.7048683 C90.897,23.7048683 87.647,27.2148683 87.647,33.2598683 L87.647,51.5248683 L81.537,51.5248683 Z M128.792,52.1098683 C122.747,52.1098683 120.147,48.9248683 120.147,42.7498683 L120.147,24.2898683 L115.597,24.2898683 L115.597,19.4148683 L120.147,19.4148683 L120.147,10.7048683 L126.322,10.7048683 L126.322,19.4148683 L133.927,19.4148683 L133.927,24.2898683 L126.322,24.2898683 L126.322,42.0998683 C126.322,45.5448683 127.492,47.0398683 130.092,47.0398683 C131.587,47.0398683 132.757,46.8448683 133.537,46.4548683 L133.537,51.5248683 C132.432,51.8498683 130.872,52.1098683 128.792,52.1098683 Z M152.127,52.3048683 C144.197,52.3048683 139.907,47.3648683 139.907,38.9798683 L139.907,19.4148683 L146.017,19.4148683 L146.017,37.8748683 C146.017,44.0498683 148.422,47.2348683 153.557,47.2348683 C158.887,47.2348683 161.877,43.7248683 161.877,37.6798683 L161.877,19.4148683 L168.052,19.4148683 L168.052,51.5248683 L162.137,51.5248683 L162.137,47.2348683 L162.007,47.2348683 C160.187,49.9648683 157.392,52.3048683 152.127,52.3048683 Z M177.672,51.5248683 L177.672,19.4148683 L183.522,19.4148683 L183.522,24.0948683 L183.652,24.0948683 C185.407,20.5848683 188.137,18.6348683 192.362,18.6348683 C193.597,18.6348683 194.767,18.8298683 195.807,19.0898683 L195.807,24.8748683 C194.767,24.4848683 193.207,24.1598683 191.712,24.1598683 C186.512,24.1598683 183.782,27.9948683 183.782,34.4948683 L183.782,51.5248683 L177.672,51.5248683 Z M214.202,52.3048683 C203.087,52.3048683 198.017,43.4648683 198.017,35.3398683 C198.017,26.4998683 204.062,18.6348683 214.202,18.6348683 C219.857,18.6348683 223.757,21.3648683 226.032,24.9398683 L226.162,24.9398683 L226.162,19.4148683 L232.012,19.4148683 L232.012,51.5248683 L226.162,51.5248683 L226.162,45.9998683 L226.032,45.9998683 C223.757,49.5748683 219.857,52.3048683 214.202,52.3048683 Z M215.047,47.1698683 C221.482,47.1698683 225.902,42.0998683 225.902,35.4698683 C225.902,28.9698683 221.612,23.7698683 215.047,23.7698683 C208.547,23.7698683 204.257,28.9048683 204.257,35.4698683 C204.257,42.0998683 208.677,47.1698683 215.047,47.1698683 Z"/>
  </g>
</svg>
