<svg xmlns="http://www.w3.org/2000/svg" width="1921" height="249" viewBox="0 0 1921 249">
  <g fill="none" fill-rule="evenodd">
    <path fill="#009BD3" class='no-color-change' d="M263.289,143.188 L272.28,115.112 C266.654,107.113 262.753,97.725 261.312,87.372 C260.539,81.82 260.585,76.355 261.22,71.039 C261.14,71.038 261.063,71.026 260.982,71.026 C225.872,71.026 197.41,99.489 197.41,134.598 C197.41,169.708 225.872,198.17 260.982,198.17 C277.48,198.17 292.461,191.832 303.76,181.527 L330.289,190.153 L317.515,163.585 C320.897,157.004 323.185,149.77 324.101,142.113 C311.028,142.075 298.664,138.043 288.376,130.986 L263.289,143.188"/>
    <path fill="#E3DB34" class='no-color-change' d="M387.242,69.847 C382.403,35.072 350.289,10.805 315.514,15.645 C286.292,19.711 264.565,43.057 261.22,71.039 C296.219,71.168 324.554,99.569 324.554,134.598 C324.554,137.143 324.396,139.649 324.101,142.113 C327.053,142.121 330.03,141.994 333.04,141.575 C367.815,136.735 392.082,104.622 387.242,69.847"/>
    <path fill="#188A45" class='no-color-change' d="M261.22,71.039 C260.585,76.355 260.539,81.82 261.312,87.372 C262.753,97.725 266.654,107.113 272.28,115.112 L263.289,143.188 L288.376,130.986 C298.664,138.043 311.028,142.075 324.101,142.113 C324.396,139.649 324.554,137.143 324.554,134.598 C324.554,99.569 296.219,71.168 261.22,71.039"/>
    <path fill="#2F302E" d="M0.865,175.777 L16.714,153.882 C22.598,160.907 32.401,167.28 43.676,167.28 C52.173,167.28 57.24,163.685 57.24,156.984 C57.24,148.976 49.888,146.691 37.468,142.93 C20.798,137.867 6.094,129.205 6.094,109.433 C6.094,87.7 23.904,73.155 49.067,73.155 C66.554,73.155 79.79,78.548 88.125,86.391 L73.255,108.288 C68.515,102.895 60.508,98.32 50.705,98.32 C42.204,98.32 38.609,101.751 38.609,106.327 C38.609,113.517 47.271,115.479 56.751,118.419 C75.378,124.303 89.759,132.8 89.759,153.882 C89.759,175.939 73.906,192.443 45.31,192.443 C24.232,192.443 7.889,183.457 0.865,175.777"/>
    <polyline fill="#2F302E" points="125.372 102.079 97.099 102.079 97.099 75.444 186.487 75.444 186.487 102.079 158.215 102.079 158.215 190.158 125.372 190.158 125.372 102.079"/>
    <path fill="#2F302E" d="M399.249 126.426C410.197 126.426 415.754 122.178 415.754 114.007 415.754 105.838 410.197 101.589 399.249 101.589L389.77 101.589 389.77 126.426 399.249 126.426zM356.927 75.444L404.479 75.444C428.99 75.444 449.417 86.391 449.417 114.007 449.417 127.407 441.737 139.173 426.212 145.709L455.952 190.158 418.694 190.158 394.676 151.265 389.77 151.265 389.77 190.158 356.927 190.158 356.927 75.444zM487.808 149.304L444.993 75.444 480.945 75.444 496.467 103.712C499.735 109.758 504.313 118.91 505.291 124.956L505.946 124.956C506.925 118.91 511.503 109.758 514.771 103.712L530.292 75.444 565.262 75.444 522.451 149.304 522.451 190.158 487.808 190.158 487.808 149.304"/>
    <polyline fill="#2F302E" points="601.202 102.079 572.93 102.079 572.93 75.444 662.318 75.444 662.318 102.079 634.045 102.079 634.045 190.158 601.202 190.158 601.202 102.079"/>
    <polyline fill="#2F302E" points="675.708 75.444 745.32 75.444 745.32 101.425 708.551 101.425 708.551 118.583 744.665 118.583 744.665 144.564 708.551 144.564 708.551 164.174 746.788 164.174 746.788 190.158 675.708 190.158 675.708 75.444"/>
    <polyline fill="#2F302E" points="759.365 75.444 792.208 75.444 792.208 163.523 828.977 163.523 828.977 190.158 759.365 190.158 759.365 75.444"/>
    <polyline fill="#2F302E" points="843.185 75.444 876.027 75.444 876.027 163.523 912.8 163.523 912.8 190.158 843.185 190.158 843.185 75.444"/>
    <polyline fill="#2F302E" points="923.74 75.444 993.35 75.444 993.35 101.425 956.58 101.425 956.58 118.583 992.69 118.583 992.69 144.564 956.58 144.564 956.58 164.174 994.82 164.174 994.82 190.158 923.74 190.158 923.74 75.444"/>
    <path fill="#2F302E" d="M1052.98 126.426C1063.93 126.426 1069.49 122.178 1069.49 114.007 1069.49 105.838 1063.93 101.589 1052.98 101.589L1043.5 101.589 1043.5 126.426 1052.98 126.426zM1010.66 75.444L1058.21 75.444C1082.72 75.444 1103.15 86.391 1103.15 114.007 1103.15 127.407 1095.47 139.173 1079.95 145.709L1109.69 190.158 1072.43 190.158 1048.41 151.265 1043.5 151.265 1043.5 190.158 1010.66 190.158 1010.66 75.444zM1108.86 175.777L1124.71 153.882C1130.59 160.907 1140.4 167.28 1151.67 167.28 1160.17 167.28 1165.24 163.685 1165.24 156.984 1165.24 148.976 1157.88 146.691 1145.46 142.93 1128.79 137.867 1114.09 129.205 1114.09 109.433 1114.09 87.7 1131.9 73.155 1157.06 73.155 1174.55 73.155 1187.79 78.548 1196.12 86.391L1181.25 108.288C1176.51 102.895 1168.5 98.32 1158.7 98.32 1150.2 98.32 1146.61 101.751 1146.61 106.327 1146.61 113.517 1155.27 115.479 1164.75 118.419 1183.37 124.303 1197.76 132.8 1197.76 153.882 1197.76 175.939 1181.9 192.443 1153.31 192.443 1132.23 192.443 1115.89 183.457 1108.86 175.777"/>
    <path fill="#009BD3" class='no-color-change' d="M1285.91 129.532C1298.33 129.532 1303.89 125.282 1303.89 115.641 1303.89 106.001 1298.33 101.589 1285.91 101.589L1280.36 101.589 1280.36 129.532 1285.91 129.532zM1247.51 75.444L1290.98 75.444C1320.72 75.444 1337.71 92.765 1337.71 115.641 1337.71 138.518 1320.72 155.678 1290.98 155.678L1280.36 155.678 1280.36 190.158 1247.51 190.158 1247.51 75.444zM1389.34 126.426C1400.29 126.426 1405.85 122.178 1405.85 114.007 1405.85 105.838 1400.29 101.589 1389.34 101.589L1379.86 101.589 1379.86 126.426 1389.34 126.426zM1347.02 75.444L1394.57 75.444C1419.08 75.444 1439.51 86.391 1439.51 114.007 1439.51 127.407 1431.83 139.173 1416.3 145.709L1446.04 190.158 1408.79 190.158 1384.77 151.265 1379.86 151.265 1379.86 190.158 1347.02 190.158 1347.02 75.444zM1538.53 132.964C1538.53 112.373 1525.12 101.751 1509.11 101.751 1493.43 101.751 1480.02 112.373 1480.02 132.964 1480.02 153.389 1493.43 163.847 1509.11 163.847 1525.12 163.847 1538.53 153.389 1538.53 132.964zM1446.36 132.964C1446.36 104.693 1466.63 73.155 1509.27 73.155 1552.09 73.155 1572.35 104.693 1572.35 132.964 1572.35 161.068 1552.09 192.443 1509.27 192.443 1466.63 192.443 1446.36 161.068 1446.36 132.964zM1563.68 177.573L1580.51 156.822C1583.61 161.068 1587.86 163.847 1593.58 163.847 1602.24 163.847 1604.69 158.618 1604.69 152.41L1604.69 75.444 1637.54 75.444 1637.54 156.984C1637.54 177.573 1622.51 192.443 1598.16 192.443 1583.29 192.443 1569.89 186.89 1563.68 177.573"/>
    <polyline fill="#009BD3" class='no-color-change' points="1652.57 75.444 1722.18 75.444 1722.18 101.425 1685.41 101.425 1685.41 118.583 1721.52 118.583 1721.52 144.564 1685.41 144.564 1685.41 164.174 1723.65 164.174 1723.65 190.158 1652.57 190.158 1652.57 75.444"/>
    <path fill="#009BD3" class='no-color-change' d="M1731.32,132.8 C1731.32,97.503 1755.83,73.155 1792.6,73.155 C1806.16,73.155 1815.31,76.424 1820.05,79.201 L1820.05,109.595 C1814.66,105.346 1805.67,101.751 1795.05,101.751 C1776.91,101.751 1764.98,113.19 1764.98,132.8 C1764.98,152.41 1776.75,163.847 1794.89,163.847 C1805.67,163.847 1815.48,161.234 1821.36,156.005 L1821.36,186.397 C1816.62,189.175 1806.16,192.443 1792.44,192.443 C1755.34,192.443 1731.32,168.259 1731.32,132.8"/>
    <polyline fill="#009BD3" class='no-color-change' points="1859.75 102.079 1831.48 102.079 1831.48 75.444 1920.86 75.444 1920.86 102.079 1892.59 102.079 1892.59 190.158 1859.75 190.158 1859.75 102.079"/>
    <path fill="#2F302E" d="M1254.99 234.431C1258.68 234.431 1260.67 232.367 1260.67 229.253 1260.67 226.173 1258.68 224.074 1254.99 224.074L1251.36 224.074 1251.36 234.431 1254.99 234.431zM1247.51 220.841L1255.37 220.841C1260.9 220.841 1264.6 224.151 1264.6 229.253 1264.6 234.354 1260.83 237.656 1255.37 237.656L1251.36 237.656 1251.36 248.166 1247.51 248.166 1247.51 220.841zM1282.02 237.775L1279.41 231.044C1279.02 230.029 1277.35 225.823 1277.31 225.474L1277.23 225.474C1277.19 225.823 1275.56 229.91 1275.13 231.044L1272.48 237.775 1282.02 237.775zM1275.6 220.841L1279.02 220.841 1290.23 248.166 1286.1 248.166 1283.3 241.009 1271.2 241.009 1268.4 248.166 1264.35 248.166C1264.35 248.166 1274.23 224.194 1275.6 220.841zM1301.62 233.885C1305.2 233.885 1307.22 231.974 1307.22 228.98 1307.22 225.985 1305.2 224.074 1301.62 224.074L1298 224.074 1298 233.885 1301.62 233.885zM1294.14 220.841L1302.04 220.841C1307.14 220.841 1311.11 223.494 1311.11 228.937 1311.11 233.186 1308.31 235.984 1304.18 236.649L1312.55 248.166 1308.04 248.166 1300.14 237.033 1298 237.033 1298 248.166 1294.14 248.166 1294.14 220.841z"/>
    <polyline fill="#2F302E" points="1321.8 224.151 1314.01 224.151 1314.01 220.841 1333.43 220.841 1333.43 224.151 1325.65 224.151 1325.65 248.166 1321.8 248.166 1321.8 224.151"/>
    <path fill="#2F302E" d="M1368.18,234.508 C1368.18,228.161 1363.78,223.767 1357.75,223.767 C1351.79,223.767 1347.35,228.161 1347.35,234.508 C1347.35,240.855 1351.79,245.249 1357.75,245.249 C1363.78,245.249 1368.18,240.855 1368.18,234.508 Z M1343.42,234.508 C1343.42,226.839 1348.99,220.304 1357.79,220.304 C1366.58,220.304 1372.15,226.839 1372.15,234.508 C1372.15,242.177 1366.58,248.712 1357.79,248.712 C1348.99,248.712 1343.42,242.177 1343.42,234.508 Z"/>
    <polyline fill="#2F302E" points="1377.69 220.841 1391.47 220.841 1391.47 224.151 1381.54 224.151 1381.54 232.947 1391.16 232.947 1391.16 236.257 1381.54 236.257 1381.54 248.166 1377.69 248.166 1377.69 220.841"/>
    <polyline fill="#2F302E" points="1408.9 224.151 1401.11 224.151 1401.11 220.841 1420.53 220.841 1420.53 224.151 1412.75 224.151 1412.75 248.166 1408.9 248.166 1408.9 224.151"/>
    <polyline fill="#2F302E" points="1424.58 220.841 1428.43 220.841 1428.43 232.051 1442.75 232.051 1442.75 220.841 1446.61 220.841 1446.61 248.166 1442.75 248.166 1442.75 235.361 1428.43 235.361 1428.43 248.166 1424.58 248.166 1424.58 220.841"/>
    <polyline fill="#2F302E" points="1453.7 220.841 1468.57 220.841 1468.57 224.117 1457.56 224.117 1457.56 232.051 1468.26 232.051 1468.26 235.327 1457.56 235.327 1457.56 244.899 1468.8 244.899 1468.8 248.166 1453.7 248.166 1453.7 220.841"/>
    <path fill="#2F302E" d="M1481.72 238.748L1481.72 220.841 1485.61 220.841 1485.61 237.579C1485.61 242.331 1487.64 245.249 1492.19 245.249 1496.78 245.249 1498.81 242.331 1498.81 237.579L1498.81 220.841 1502.7 220.841 1502.7 238.748C1502.7 244.745 1498.85 248.712 1492.19 248.712 1485.5 248.712 1481.72 244.745 1481.72 238.748M1506.72 243.227L1509.33 241.009C1510.65 243.184 1512.76 245.325 1516.18 245.325 1519.18 245.325 1521.51 243.696 1521.51 240.693 1521.51 237.468 1518.83 236.376 1515.48 235.054 1512.05 233.689 1508.59 231.974 1508.59 227.615 1508.59 223.298 1511.94 220.304 1516.84 220.304 1520.73 220.304 1523.3 222.087 1524.86 224.424L1522.25 226.642C1521.2 225.013 1519.45 223.682 1516.84 223.682 1514.19 223.682 1512.45 225.047 1512.45 227.342 1512.45 230.183 1515.17 231.121 1517.54 232.051 1521.39 233.57 1525.37 235.404 1525.37 240.42 1525.37 245.172 1521.86 248.712 1516.26 248.712 1511.59 248.712 1508.47 246.264 1506.72 243.227M1545.09 237.775L1542.48 231.044C1542.09 230.029 1540.42 225.823 1540.38 225.474L1540.3 225.474C1540.26 225.823 1538.63 229.91 1538.2 231.044L1535.56 237.775 1545.09 237.775zM1538.67 220.841L1542.09 220.841 1553.3 248.166 1549.18 248.166 1546.38 241.009 1534.27 241.009 1531.47 248.166 1527.42 248.166C1527.42 248.166 1537.3 224.194 1538.67 220.841z"/>
    <polyline fill="#2F302E" points="1569.57 224.151 1561.78 224.151 1561.78 220.841 1581.21 220.841 1581.21 224.151 1573.42 224.151 1573.42 248.166 1569.57 248.166 1569.57 224.151"/>
    <path fill="#2F302E" d="M1607.4 234.508C1607.4 228.161 1603.01 223.767 1596.98 223.767 1591.02 223.767 1586.58 228.161 1586.58 234.508 1586.58 240.855 1591.02 245.249 1596.98 245.249 1603.01 245.249 1607.4 240.855 1607.4 234.508zM1582.65 234.508C1582.65 226.839 1588.21 220.304 1597.01 220.304 1605.81 220.304 1611.38 226.839 1611.38 234.508 1611.38 242.177 1605.81 248.712 1597.01 248.712 1588.21 248.712 1582.65 242.177 1582.65 234.508zM1620.77 244.856L1624.36 244.856C1630.74 244.856 1635.17 241.478 1635.17 234.508 1635.17 227.538 1630.74 224.151 1624.36 224.151L1620.77 224.151 1620.77 244.856zM1616.92 220.841L1624.67 220.841C1633.39 220.841 1639.14 225.823 1639.14 234.508 1639.14 243.15 1633.34 248.166 1624.67 248.166L1616.92 248.166 1616.92 220.841zM1658.08 237.775L1655.48 231.044C1655.09 230.029 1653.41 225.823 1653.37 225.474L1653.3 225.474C1653.26 225.823 1651.63 229.91 1651.19 231.044L1648.55 237.775 1658.08 237.775zM1651.66 220.841L1655.09 220.841 1666.3 248.166 1662.17 248.166 1659.37 241.009 1647.27 241.009 1644.46 248.166 1640.42 248.166C1640.42 248.166 1650.3 224.194 1651.66 220.841zM1673.99 237.033L1664.69 220.841 1669.01 220.841 1674.07 229.952C1674.31 230.379 1675.94 233.382 1676.02 233.843L1676.05 233.843C1676.14 233.382 1677.77 230.379 1678 229.952L1683.1 220.841 1687.3 220.841 1678 237.033 1678 248.166 1673.99 248.166 1673.99 237.033M1698.62 220.841L1701.58 220.841 1717.07 238.552C1717.54 239.064 1719.56 241.589 1719.76 241.981L1719.84 241.939C1719.76 241.555 1719.76 238.398 1719.76 237.699L1719.76 220.841 1723.5 220.841 1723.5 248.166 1720.5 248.166 1705 230.456C1704.54 229.952 1702.51 227.419 1702.32 227.035L1702.28 227.069C1702.32 227.461 1702.36 230.618 1702.36 231.317L1702.36 248.166 1698.62 248.166 1698.62 220.841"/>
    <polyline fill="#2F302E" points="1730.59 220.841 1745.46 220.841 1745.46 224.117 1734.44 224.117 1734.44 232.051 1745.15 232.051 1745.15 235.327 1734.44 235.327 1734.44 244.899 1745.69 244.899 1745.69 248.166 1730.59 248.166 1730.59 220.841"/>
    <polyline fill="#2F302E" points="1757.51 224.151 1749.73 224.151 1749.73 220.841 1769.15 220.841 1769.15 224.151 1761.36 224.151 1761.36 248.166 1757.51 248.166 1757.51 224.151"/>
    <path fill="#2F302E" d="M1772.36 220.841L1776.45 220.841 1782.05 237.076C1782.25 237.699 1783.57 241.742 1783.61 242.365L1783.69 242.365C1783.73 241.742 1785.09 237.699 1785.32 237.076L1791.16 220.841 1794.24 220.841 1800.07 237.076C1800.31 237.699 1801.67 241.742 1801.71 242.365L1801.79 242.365C1801.87 241.742 1803.19 237.699 1803.38 237.076L1808.95 220.841 1812.88 220.841 1803.26 248.166 1800.31 248.166 1794 231.121C1793.81 230.532 1792.72 227.308 1792.68 226.685L1792.6 226.685C1792.56 227.308 1791.43 230.532 1791.24 231.121L1784.97 248.166 1782.01 248.166 1772.36 220.841M1839.36 234.508C1839.36 228.161 1834.96 223.767 1828.93 223.767 1822.97 223.767 1818.53 228.161 1818.53 234.508 1818.53 240.855 1822.97 245.249 1828.93 245.249 1834.96 245.249 1839.36 240.855 1839.36 234.508zM1814.6 234.508C1814.6 226.839 1820.16 220.304 1828.96 220.304 1837.76 220.304 1843.33 226.839 1843.33 234.508 1843.33 242.177 1837.76 248.712 1828.96 248.712 1820.16 248.712 1814.6 242.177 1814.6 234.508zM1856.35 233.885C1859.92 233.885 1861.95 231.974 1861.95 228.98 1861.95 225.985 1859.92 224.074 1856.35 224.074L1852.72 224.074 1852.72 233.885 1856.35 233.885zM1848.87 220.841L1856.77 220.841C1861.87 220.841 1865.84 223.494 1865.84 228.937 1865.84 233.186 1863.04 235.984 1858.91 236.649L1867.28 248.166 1862.76 248.166 1854.87 237.033 1852.72 237.033 1852.72 248.166 1848.87 248.166 1848.87 220.841z"/>
    <polyline fill="#2F302E" points="1871.65 220.841 1875.5 220.841 1875.5 233.535 1886.78 220.841 1891.45 220.841 1879.74 233.885 1892 248.166 1887.18 248.166 1875.5 234.354 1875.5 248.166 1871.65 248.166 1871.65 220.841"/>
    <path fill="#2F302E" d="M19.726 22.338C25.706 22.338 29.086 19.153 29.086 14.147 29.086 9.143 25.706 5.957 19.726 5.957L13.681 5.957 13.681 22.338 19.726 22.338zM7.246.562L20.441.562C28.957.562 35.586 4.982 35.586 14.082 35.586 21.168 30.906 25.848 24.016 26.953L37.992 46.194 30.451 46.194 17.256 27.603 13.681 27.603 13.681 46.194 7.246 46.194 7.246.562zM68.347 30.138C68.347 23.313 63.602 18.503 57.362 18.503 51.122 18.503 46.376 23.313 46.376 30.138 46.376 36.963 51.122 41.773 57.362 41.773 63.602 41.773 68.347 36.963 68.347 30.138zM40.201 30.138C40.201 22.013 46.051 13.303 57.362 13.303 68.607 13.303 74.522 22.013 74.522 30.138 74.522 38.264 68.607 46.974 57.362 46.974 46.051 46.974 40.201 38.264 40.201 30.138zM78.55 30.203C78.55 21.818 84.596 13.303 95.711 13.303 98.896 13.303 101.691 14.018 103.251 14.928L103.251 20.778C101.626 19.478 99.026 18.568 95.971 18.568 89.536 18.568 84.726 23.248 84.726 30.138 84.726 36.898 89.406 41.708 96.036 41.708 99.091 41.708 101.626 40.799 103.446 39.369L103.446 45.219C101.756 46.129 98.961 46.974 95.646 46.974 84.596 46.974 78.55 38.523 78.55 30.203M110.27.562L116.38.562 116.38 18.373 116.51 18.373C118.46 15.643 121.385 13.303 126.585 13.303 134.321 13.303 138.936 18.178 138.936 26.628L138.936 46.194 132.76 46.194 132.76 27.733C132.76 21.688 130.226 18.373 125.025 18.373 119.63 18.373 116.38 21.883 116.38 27.928L116.38 46.194 110.27 46.194 110.27.562M171.305 26.888C170.33 21.428 166.365 17.983 161.229 17.983 155.899 17.983 152.064 21.623 151.089 26.888L171.305 26.888zM144.849 30.138C144.849 22.403 149.594 13.303 161.229 13.303 172.8 13.303 177.35 22.208 177.35 29.813 177.35 30.268 177.35 30.593 177.285 31.308L150.894 31.308C151.024 37.548 155.509 42.034 162.075 42.034 166.755 42.034 170.265 39.759 172.28 36.184L176.7 38.978C173.58 44.374 168.055 46.974 161.749 46.974 150.309 46.974 144.849 38.393 144.849 30.138zM180.468 40.929L184.108 37.289C185.928 39.628 188.659 42.034 193.014 42.034 196.589 42.034 199.449 40.409 199.449 37.289 199.449 33.843 195.809 32.608 191.779 31.308 186.968 29.748 182.483 27.603 182.483 22.338 182.483 16.812 187.358 13.303 193.924 13.303 199.189 13.303 202.829 15.578 204.714 17.983L201.204 21.753C199.708 19.868 197.369 18.243 193.924 18.243 190.739 18.243 188.528 19.673 188.528 22.013 188.528 25.003 192.039 25.978 195.094 27.018 199.904 28.643 205.494 30.593 205.494 36.898 205.494 43.009 200.293 46.974 193.079 46.974 186.708 46.974 182.548 43.919 180.468 40.929M212.772 37.418L212.772 18.958 208.222 18.958 208.222 14.082 212.772 14.082 212.772 5.372 218.948 5.372 218.948 14.082 226.553 14.082 226.553 18.958 218.948 18.958 218.948 36.768C218.948 40.214 220.118 41.708 222.718 41.708 224.213 41.708 225.383 41.514 226.163 41.123L226.163 46.194C225.058 46.519 223.498 46.779 221.417 46.779 215.373 46.779 212.772 43.594 212.772 37.418M256.454 26.888C255.479 21.428 251.513 17.983 246.378 17.983 241.048 17.983 237.213 21.623 236.238 26.888L256.454 26.888zM229.998 30.138C229.998 22.403 234.743 13.303 246.378 13.303 257.949 13.303 262.498 22.208 262.498 29.813 262.498 30.268 262.498 30.593 262.434 31.308L236.043 31.308C236.173 37.548 240.659 42.034 247.223 42.034 251.904 42.034 255.414 39.759 257.429 36.184L261.849 38.978C258.729 44.374 253.204 46.974 246.899 46.974 235.457 46.974 229.998 38.393 229.998 30.138zM268.997 14.082L274.847 14.082 274.847 18.763 274.977 18.763C276.733 15.253 279.462 13.303 283.688 13.303 284.922 13.303 286.093 13.497 287.133 13.758L287.133 19.543C286.093 19.153 284.533 18.828 283.038 18.828 277.837 18.828 275.108 22.663 275.108 29.163L275.108 46.194 268.997 46.194 268.997 14.082"/>
  </g>
</svg>
