<svg xmlns="http://www.w3.org/2000/svg" width="280" height="43" viewBox="0 0 280 43">
  <g fill="none" fill-rule="evenodd" transform="translate(0 -2)">
    <path fill="#009BD3" class='no-color-change' d="M38.474,28.008 L39.78,23.928 C38.963,22.765 38.396,21.401 38.186,19.896 C38.074,19.09 38.081,18.295 38.173,17.523 C38.161,17.523 38.15,17.521 38.138,17.521 C33.036,17.521 28.9,21.657 28.9,26.76 C28.9,31.862 33.036,35.999 38.138,35.999 C40.536,35.999 42.713,35.077 44.355,33.58 L48.211,34.833 L46.354,30.972 C46.846,30.016 47.178,28.965 47.312,27.852 C45.412,27.846 43.615,27.26 42.12,26.235 L38.474,28.008"/>
    <path fill="#E3DB34" class='no-color-change' d="M56.488,17.35 C55.784,12.296 51.117,8.769 46.064,9.472 C41.817,10.063 38.659,13.456 38.173,17.523 C43.259,17.542 47.377,21.669 47.377,26.76 C47.377,27.13 47.354,27.494 47.312,27.852 C47.741,27.853 48.173,27.834 48.611,27.774 C53.664,27.07 57.191,22.403 56.488,17.35"/>
    <path fill="#188A45" class='no-color-change' d="M38.173,17.523 C38.081,18.295 38.074,19.09 38.186,19.896 C38.396,21.401 38.963,22.765 39.78,23.928 L38.474,28.008 L42.12,26.235 C43.615,27.26 45.412,27.846 47.312,27.852 C47.354,27.494 47.377,27.13 47.377,26.76 C47.377,21.669 43.259,17.542 38.173,17.523"/>
    <path fill="#2F302E" d="M0.336,32.744 L2.639,29.562 C3.494,30.583 4.919,31.509 6.558,31.509 C7.792,31.509 8.529,30.987 8.529,30.013 C8.529,28.849 7.46,28.517 5.655,27.971 C3.233,27.235 1.096,25.976 1.096,23.103 C1.096,19.944 3.684,17.83 7.341,17.83 C9.883,17.83 11.806,18.614 13.017,19.754 L10.856,22.936 C10.168,22.152 9.004,21.487 7.579,21.487 C6.344,21.487 5.821,21.986 5.821,22.651 C5.821,23.696 7.08,23.981 8.458,24.409 C11.165,25.264 13.255,26.498 13.255,29.562 C13.255,32.768 10.951,35.166 6.795,35.166 C3.732,35.166 1.357,33.86 0.336,32.744"/>
    <polyline fill="#2F302E" points="18.43 22.034 14.322 22.034 14.322 18.163 27.312 18.163 27.312 22.034 23.203 22.034 23.203 34.834 18.43 34.834 18.43 22.034"/>
    <path fill="#2F302E" d="M58.233 25.572C59.824 25.572 60.631 24.955 60.631 23.767 60.631 22.58 59.824 21.963 58.233 21.963L56.855 21.963 56.855 25.572 58.233 25.572zM52.082 18.163L58.993 18.163C62.555 18.163 65.523 19.754 65.523 23.767 65.523 25.715 64.407 27.425 62.151 28.375L66.473 34.834 61.059 34.834 57.568 29.182 56.855 29.182 56.855 34.834 52.082 34.834 52.082 18.163zM71.103 28.897L64.881 18.163 70.105 18.163 72.361 22.271C72.836 23.15 73.501 24.48 73.644 25.358L73.739 25.358C73.881 24.48 74.546 23.15 75.021 22.271L77.277 18.163 82.359 18.163 76.137 28.897 76.137 34.834 71.103 34.834 71.103 28.897"/>
    <polyline fill="#2F302E" points="87.582 22.034 83.473 22.034 83.473 18.163 96.464 18.163 96.464 22.034 92.355 22.034 92.355 34.834 87.582 34.834 87.582 22.034"/>
    <polyline fill="#2F302E" points="98.41 18.163 108.527 18.163 108.527 21.939 103.183 21.939 103.183 24.432 108.431 24.432 108.431 28.208 103.183 28.208 103.183 31.058 108.74 31.058 108.74 34.834 98.41 34.834 98.41 18.163"/>
    <polyline fill="#2F302E" points="110.568 18.163 115.341 18.163 115.341 30.963 120.684 30.963 120.684 34.834 110.568 34.834 110.568 18.163"/>
    <polyline fill="#2F302E" points="122.749 18.163 127.522 18.163 127.522 30.963 132.866 30.963 132.866 34.834 122.749 34.834 122.749 18.163"/>
    <polyline fill="#2F302E" points="134.456 18.163 144.572 18.163 144.572 21.939 139.229 21.939 139.229 24.432 144.477 24.432 144.477 28.208 139.229 28.208 139.229 31.058 144.786 31.058 144.786 34.834 134.456 34.834 134.456 18.163"/>
    <path fill="#2F302E" d="M153.239 25.572C154.83 25.572 155.638 24.955 155.638 23.767 155.638 22.58 154.83 21.963 153.239 21.963L151.861 21.963 151.861 25.572 153.239 25.572zM147.088 18.163L153.999 18.163C157.561 18.163 160.53 19.754 160.53 23.767 160.53 25.715 159.414 27.425 157.157 28.375L161.48 34.834 156.065 34.834 152.574 29.182 151.861 29.182 151.861 34.834 147.088 34.834 147.088 18.163zM161.36 32.744L163.663 29.562C164.518 30.583 165.943 31.509 167.581 31.509 168.816 31.509 169.553 30.987 169.553 30.013 169.553 28.849 168.484 28.517 166.679 27.971 164.257 27.235 162.12 25.976 162.12 23.103 162.12 19.944 164.708 17.83 168.365 17.83 170.906 17.83 172.83 18.614 174.041 19.754L171.88 22.936C171.191 22.152 170.028 21.487 168.603 21.487 167.367 21.487 166.845 21.986 166.845 22.651 166.845 23.696 168.104 23.981 169.482 24.409 172.189 25.264 174.279 26.498 174.279 29.562 174.279 32.768 171.975 35.166 167.819 35.166 164.756 35.166 162.381 33.86 161.36 32.744"/>
    <path fill="#009BD3" class='no-color-change' d="M187.09 26.023C188.895 26.023 189.703 25.406 189.703 24.005 189.703 22.604 188.895 21.963 187.09 21.963L186.283 21.963 186.283 26.023 187.09 26.023zM181.51 18.163L187.827 18.163C192.149 18.163 194.618 20.68 194.618 24.005 194.618 27.329 192.149 29.823 187.827 29.823L186.283 29.823 186.283 34.834 181.51 34.834 181.51 18.163zM202.121 25.572C203.712 25.572 204.52 24.955 204.52 23.767 204.52 22.58 203.712 21.963 202.121 21.963L200.744 21.963 200.744 25.572 202.121 25.572zM195.971 18.163L202.881 18.163C206.444 18.163 209.412 19.754 209.412 23.767 209.412 25.715 208.296 27.425 206.04 28.375L210.362 34.834 204.947 34.834 201.457 29.182 200.744 29.182 200.744 34.834 195.971 34.834 195.971 18.163zM223.802 26.522C223.802 23.53 221.855 21.986 219.528 21.986 217.248 21.986 215.3 23.53 215.3 26.522 215.3 29.491 217.248 31.01 219.528 31.01 221.855 31.01 223.802 29.491 223.802 26.522zM210.408 26.522C210.408 22.414 213.353 17.83 219.551 17.83 225.773 17.83 228.718 22.414 228.718 26.522 228.718 30.607 225.773 35.166 219.551 35.166 213.353 35.166 210.408 30.607 210.408 26.522zM227.457 33.005L229.904 29.989C230.355 30.607 230.973 31.01 231.804 31.01 233.062 31.01 233.418 30.25 233.418 29.348L233.418 18.163 238.192 18.163 238.192 30.013C238.192 33.005 236.007 35.166 232.468 35.166 230.307 35.166 228.36 34.359 227.457 33.005"/>
    <polyline fill="#009BD3" class='no-color-change' points="240.376 18.163 250.492 18.163 250.492 21.939 245.149 21.939 245.149 24.432 250.397 24.432 250.397 28.208 245.149 28.208 245.149 31.058 250.706 31.058 250.706 34.834 240.376 34.834 240.376 18.163"/>
    <path fill="#009BD3" class='no-color-change' d="M251.821,26.498 C251.821,21.369 255.383,17.83 260.727,17.83 C262.698,17.83 264.027,18.306 264.716,18.709 L264.716,23.126 C263.933,22.509 262.626,21.986 261.083,21.986 C258.447,21.986 256.713,23.648 256.713,26.498 C256.713,29.348 258.423,31.01 261.059,31.01 C262.626,31.01 264.051,30.631 264.906,29.871 L264.906,34.288 C264.218,34.691 262.698,35.166 260.703,35.166 C255.312,35.166 251.821,31.652 251.821,26.498"/>
    <polyline fill="#009BD3" class='no-color-change' points="270.485 22.034 266.376 22.034 266.376 18.163 279.367 18.163 279.367 22.034 275.258 22.034 275.258 34.834 270.485 34.834 270.485 22.034"/>
    <path fill="#2F302E" d="M164.69 42.514C165.332 42.514 165.677 42.155 165.677 41.614 165.677 41.079 165.332 40.715 164.69 40.715L164.06 40.715 164.06 42.514 164.69 42.514zM163.391 40.153L164.757 40.153C165.718 40.153 166.361 40.728 166.361 41.614 166.361 42.501 165.705 43.075 164.757 43.075L164.06 43.075 164.06 44.901 163.391 44.901 163.391 40.153zM169.387 43.096L168.934 41.926C168.867 41.749 168.576 41.018 168.569 40.958L168.555 40.958C168.549 41.018 168.265 41.729 168.19 41.926L167.73 43.096 169.387 43.096zM168.272 40.153L168.867 40.153 170.815 44.901 170.097 44.901 169.611 43.657 167.507 43.657 167.02 44.901 166.317 44.901C166.317 44.901 168.034 40.735 168.272 40.153zM172.793 42.419C173.415 42.419 173.767 42.087 173.767 41.567 173.767 41.047 173.415 40.715 172.793 40.715L172.164 40.715 172.164 42.419 172.793 42.419zM171.495 40.153L172.867 40.153C173.753 40.153 174.443 40.614 174.443 41.559 174.443 42.298 173.956 42.784 173.24 42.9L174.694 44.901 173.909 44.901 172.536 42.967 172.164 42.967 172.164 44.901 171.495 44.901 171.495 40.153z"/>
    <polyline fill="#2F302E" points="176.3 40.728 174.947 40.728 174.947 40.153 178.322 40.153 178.322 40.728 176.97 40.728 176.97 44.901 176.3 44.901 176.3 40.728"/>
    <path fill="#2F302E" d="M184.36,42.528 C184.36,41.425 183.596,40.661 182.548,40.661 C181.513,40.661 180.741,41.425 180.741,42.528 C180.741,43.631 181.513,44.394 182.548,44.394 C183.596,44.394 184.36,43.631 184.36,42.528 Z M180.059,42.528 C180.059,41.195 181.025,40.059 182.554,40.059 C184.083,40.059 185.05,41.195 185.05,42.528 C185.05,43.86 184.083,44.996 182.554,44.996 C181.025,44.996 180.059,43.86 180.059,42.528 Z"/>
    <polyline fill="#2F302E" points="186.014 40.153 188.408 40.153 188.408 40.728 186.683 40.728 186.683 42.256 188.354 42.256 188.354 42.832 186.683 42.832 186.683 44.901 186.014 44.901 186.014 40.153"/>
    <polyline fill="#2F302E" points="191.436 40.728 190.083 40.728 190.083 40.153 193.458 40.153 193.458 40.728 192.106 40.728 192.106 44.901 191.436 44.901 191.436 40.728"/>
    <polyline fill="#2F302E" points="194.161 40.153 194.831 40.153 194.831 42.101 197.32 42.101 197.32 40.153 197.99 40.153 197.99 44.901 197.32 44.901 197.32 42.676 194.831 42.676 194.831 44.901 194.161 44.901 194.161 40.153"/>
    <polyline fill="#2F302E" points="199.223 40.153 201.807 40.153 201.807 40.722 199.893 40.722 199.893 42.101 201.753 42.101 201.753 42.67 199.893 42.67 199.893 44.333 201.847 44.333 201.847 44.901 199.223 44.901 199.223 40.153"/>
    <path fill="#2F302E" d="M204.092 43.265L204.092 40.153 204.768 40.153 204.768 43.061C204.768 43.887 205.12 44.394 205.911 44.394 206.709 44.394 207.062 43.887 207.062 43.061L207.062 40.153 207.738 40.153 207.738 43.265C207.738 44.307 207.068 44.996 205.911 44.996 204.748 44.996 204.092 44.307 204.092 43.265M208.437 44.043L208.89 43.657C209.12 44.035 209.485 44.407 210.081 44.407 210.601 44.407 211.007 44.124 211.007 43.602 211.007 43.042 210.54 42.852 209.958 42.622 209.363 42.385 208.761 42.087 208.761 41.33 208.761 40.58 209.343 40.059 210.196 40.059 210.872 40.059 211.318 40.369 211.589 40.775L211.136 41.161C210.953 40.878 210.649 40.646 210.196 40.646 209.735 40.646 209.431 40.884 209.431 41.282 209.431 41.776 209.904 41.939 210.317 42.101 210.987 42.365 211.677 42.683 211.677 43.555 211.677 44.381 211.068 44.996 210.094 44.996 209.282 44.996 208.741 44.571 208.437 44.043M215.104 43.096L214.651 41.926C214.584 41.749 214.293 41.018 214.286 40.958L214.273 40.958C214.266 41.018 213.982 41.729 213.907 41.926L213.448 43.096 215.104 43.096zM213.989 40.153L214.584 40.153 216.532 44.901 215.814 44.901 215.328 43.657 213.224 43.657 212.737 44.901 212.034 44.901C212.034 44.901 213.751 40.735 213.989 40.153z"/>
    <polyline fill="#2F302E" points="219.358 40.728 218.006 40.728 218.006 40.153 221.381 40.153 221.381 40.728 220.028 40.728 220.028 44.901 219.358 44.901 219.358 40.728"/>
    <path fill="#2F302E" d="M225.934 42.528C225.934 41.425 225.169 40.661 224.121 40.661 223.086 40.661 222.315 41.425 222.315 42.528 222.315 43.631 223.086 44.394 224.121 44.394 225.169 44.394 225.934 43.631 225.934 42.528zM221.632 42.528C221.632 41.195 222.599 40.059 224.128 40.059 225.656 40.059 226.624 41.195 226.624 42.528 226.624 43.86 225.656 44.996 224.128 44.996 222.599 44.996 221.632 43.86 221.632 42.528zM228.257 44.326L228.879 44.326C229.988 44.326 230.759 43.739 230.759 42.528 230.759 41.316 229.988 40.728 228.879 40.728L228.257 40.728 228.257 44.326zM227.587 40.153L228.933 40.153C230.449 40.153 231.449 41.018 231.449 42.528 231.449 44.029 230.441 44.901 228.933 44.901L227.587 44.901 227.587 40.153zM234.741 43.096L234.288 41.926C234.22 41.749 233.929 41.018 233.922 40.958L233.909 40.958C233.902 41.018 233.618 41.729 233.543 41.926L233.084 43.096 234.741 43.096zM233.625 40.153L234.22 40.153 236.168 44.901 235.451 44.901 234.964 43.657 232.861 43.657 232.374 44.901 231.67 44.901C231.67 44.901 233.388 40.735 233.625 40.153zM237.505 42.967L235.889 40.153 236.64 40.153 237.519 41.736C237.56 41.81 237.843 42.332 237.857 42.412L237.864 42.412C237.878 42.332 238.161 41.81 238.202 41.736L239.088 40.153 239.818 40.153 238.202 42.967 238.202 44.901 237.505 44.901 237.505 42.967M241.786 40.153L242.299 40.153 244.992 43.23C245.072 43.319 245.424 43.758 245.459 43.826L245.472 43.819C245.459 43.752 245.459 43.204 245.459 43.082L245.459 40.153 246.108 40.153 246.108 44.901 245.587 44.901 242.895 41.823C242.814 41.736 242.462 41.296 242.428 41.229L242.422 41.235C242.428 41.303 242.435 41.852 242.435 41.973L242.435 44.901 241.786 44.901 241.786 40.153"/>
    <polyline fill="#2F302E" points="247.341 40.153 249.925 40.153 249.925 40.722 248.011 40.722 248.011 42.101 249.871 42.101 249.871 42.67 248.011 42.67 248.011 44.333 249.965 44.333 249.965 44.901 247.341 44.901 247.341 40.153"/>
    <polyline fill="#2F302E" points="252.02 40.728 250.667 40.728 250.667 40.153 254.042 40.153 254.042 40.728 252.689 40.728 252.689 44.901 252.02 44.901 252.02 40.728"/>
    <path fill="#2F302E" d="M254.6 40.153L255.31 40.153 256.284 42.974C256.318 43.082 256.548 43.785 256.555 43.893L256.569 43.893C256.575 43.785 256.812 43.082 256.853 42.974L257.867 40.153 258.402 40.153 259.416 42.974C259.457 43.082 259.693 43.785 259.701 43.893L259.714 43.893C259.727 43.785 259.957 43.082 259.991 42.974L260.958 40.153 261.641 40.153 259.97 44.901 259.457 44.901 258.361 41.939C258.327 41.837 258.138 41.276 258.131 41.168L258.117 41.168C258.111 41.276 257.914 41.837 257.881 41.939L256.792 44.901 256.277 44.901 254.6 40.153M266.242 42.528C266.242 41.425 265.478 40.661 264.43 40.661 263.395 40.661 262.623 41.425 262.623 42.528 262.623 43.631 263.395 44.394 264.43 44.394 265.478 44.394 266.242 43.631 266.242 42.528zM261.941 42.528C261.941 41.195 262.907 40.059 264.437 40.059 265.965 40.059 266.932 41.195 266.932 42.528 266.932 43.86 265.965 44.996 264.437 44.996 262.907 44.996 261.941 43.86 261.941 42.528zM269.195 42.419C269.817 42.419 270.169 42.087 270.169 41.567 270.169 41.047 269.817 40.715 269.195 40.715L268.565 40.715 268.565 42.419 269.195 42.419zM267.896 40.153L269.269 40.153C270.155 40.153 270.845 40.614 270.845 41.559 270.845 42.298 270.358 42.784 269.641 42.9L271.095 44.901 270.31 44.901 268.938 42.967 268.565 42.967 268.565 44.901 267.896 44.901 267.896 40.153z"/>
    <polyline fill="#2F302E" points="271.854 40.153 272.523 40.153 272.523 42.359 274.484 40.153 275.296 40.153 273.261 42.419 275.391 44.901 274.553 44.901 272.523 42.501 272.523 44.901 271.854 44.901 271.854 40.153"/>
    <path fill="#2F302E" d="M5.3349866,11.1429412 C2.6833271,11.1429412 0.8333321,9.24361301 0.8333321,6.64128671 C0.8333321,4.05129371 2.6956604,2.13963221 5.3473199,2.13963221 C6.3709838,2.13963221 7.1973149,2.39863151 7.8139799,2.83029701 L7.8139799,4.11296021 C7.2343148,3.57029501 6.4573169,3.23729591 5.3966531,3.23729591 C3.4479917,3.23729591 2.0789954,4.65562541 2.0789954,6.64128671 C2.0789954,8.62694801 3.4356584,10.0452775 5.3966531,10.0452775 C6.4573169,10.0452775 7.3329812,9.71227841 7.9249796,9.12028001 L7.9249796,10.3906099 C7.2959813,10.846942 6.4079837,11.1429412 5.3349866,11.1429412 Z M12.2735679,11.1182746 C10.1275737,11.1182746 9.0175767,9.46561241 9.0175767,7.92394991 C9.0175767,6.38228741 10.1275737,4.72962521 12.2735679,4.72962521 C14.4072288,4.72962521 15.5295591,6.38228741 15.5295591,7.92394991 C15.5295591,9.46561241 14.4072288,11.1182746 12.2735679,11.1182746 Z M12.2735679,10.1316106 C13.4575647,10.1316106 14.3578956,9.21894641 14.3578956,7.92394991 C14.3578956,6.62895341 13.4575647,5.71628921 12.2735679,5.71628921 C11.0895711,5.71628921 10.1892402,6.62895341 10.1892402,7.92394991 C10.1892402,9.21894641 11.0895711,10.1316106 12.2735679,10.1316106 Z M19.5081484,11.1182746 C17.3991541,11.1182746 16.4371567,9.44094581 16.4371567,7.89928331 C16.4371567,6.22195451 17.5841536,4.72962521 19.5081484,4.72962521 C20.5811455,4.72962521 21.3211435,5.24762381 21.752809,5.92595531 L21.7774756,5.92595531 L21.7774756,4.87762481 L22.8874726,4.87762481 L22.8874726,10.970275 L21.7774756,10.970275 L21.7774756,9.92194451 L21.752809,9.92194451 C21.3211435,10.600276 20.5811455,11.1182746 19.5081484,11.1182746 Z M19.6684813,10.1439439 C20.889478,10.1439439 21.7281424,9.18194651 21.7281424,7.92394991 C21.7281424,6.69061991 20.9141446,5.70395591 19.6684813,5.70395591 C18.4351513,5.70395591 17.6211535,6.67828661 17.6211535,7.92394991 C17.6211535,9.18194651 18.4598179,10.1439439 19.6684813,10.1439439 Z M27.5073935,11.1182746 C25.4107325,11.1182746 24.2637356,9.51494561 24.2637356,7.93628321 C24.2637356,6.34528751 25.4107325,4.72962521 27.5197268,4.72962521 C28.1240585,4.72962521 28.6543904,4.86529151 28.9503896,5.03795771 L28.9503896,6.14795471 C28.6420571,5.90128871 28.1487251,5.72862251 27.56906,5.72862251 C26.3480633,5.72862251 25.4353991,6.61662011 25.4353991,7.92394991 C25.4353991,9.20661311 26.3233967,10.1192773 27.5813933,10.1192773 C28.1610584,10.1192773 28.6420571,9.94661111 28.9873895,9.67527851 L28.9873895,10.7852755 C28.6667237,10.9579417 28.1363918,11.1182746 27.5073935,11.1182746 Z M30.425319,10.970275 L30.425319,2.31229841 L31.5846492,2.31229841 L31.5846492,5.69162261 L31.6093158,5.69162261 C31.9793148,5.17362401 32.5343133,4.72962521 33.5209773,4.72962521 C34.98864,4.72962521 35.8643043,5.65462271 35.8643043,7.25795171 L35.8643043,10.970275 L34.6926408,10.970275 L34.6926408,7.46761781 C34.6926408,6.32062091 34.2116421,5.69162261 33.2249781,5.69162261 C32.2013142,5.69162261 31.5846492,6.35762081 31.5846492,7.50461771 L31.5846492,10.970275 L30.425319,10.970275 Z M40.3362256,11.1182746 C38.1655648,11.1182746 37.1295676,9.49027901 37.1295676,7.92394991 C37.1295676,6.45628721 38.0298985,4.72962521 40.2375592,4.72962521 C42.4328866,4.72962521 43.2962176,6.41928731 43.2962176,7.86228341 C43.2962176,7.94861651 43.2962176,8.01028301 43.2838843,8.14594931 L38.2765645,8.14594931 C38.3012311,9.32994611 39.1522288,10.1809438 40.3978921,10.1809438 C41.2858897,10.1809438 41.9518879,9.74927831 42.3342202,9.07094681 L43.1728846,9.60127871 C42.5808862,10.6249426 41.5325557,11.1182746 40.3362256,11.1182746 Z M38.3135644,7.30728491 L42.1492207,7.30728491 C41.9642212,6.27128771 41.2118899,5.61762281 40.2375592,5.61762281 C39.2262286,5.61762281 38.4985639,6.30828761 38.3135644,7.30728491 Z M44.6724806,10.970275 L44.6724806,2.31229841 L45.8318108,2.31229841 L45.8318108,10.970275 L44.6724806,10.970275 Z M47.6767392,10.970275 L47.6767392,2.31229841 L48.8360694,2.31229841 L48.8360694,10.970275 L47.6767392,10.970275 Z M53.2833241,11.1182746 C51.1743298,11.1182746 50.2123324,9.44094581 50.2123324,7.89928331 C50.2123324,6.22195451 51.3593293,4.72962521 53.2833241,4.72962521 C54.3563212,4.72962521 55.0963192,5.24762381 55.5279847,5.92595531 L55.5526513,5.92595531 L55.5526513,4.87762481 L56.6626483,4.87762481 L56.6626483,10.970275 L55.5526513,10.970275 L55.5526513,9.92194451 L55.5279847,9.92194451 C55.0963192,10.600276 54.3563212,11.1182746 53.2833241,11.1182746 Z M53.443657,10.1439439 C54.6646537,10.1439439 55.5033181,9.18194651 55.5033181,7.92394991 C55.5033181,6.69061991 54.6893203,5.70395591 53.443657,5.70395591 C52.210327,5.70395591 51.3963292,6.67828661 51.3963292,7.92394991 C51.3963292,9.18194651 52.2349936,10.1439439 53.443657,10.1439439 Z M63.6331629,10.970275 L60.019506,2.31229841 L61.3391691,2.31229841 L63.47283,7.51695101 C63.5344965,7.66495061 64.0771617,9.13261331 64.089495,9.26827961 L64.1018283,9.26827961 C64.1264949,9.13261331 64.6568268,7.66495061 64.7184933,7.51695101 L66.8644875,2.31229841 L68.1348174,2.31229841 L64.5211605,10.970275 L63.6331629,10.970275 Z M70.5520109,11.1182746 C68.4430166,11.1182746 67.4810192,9.44094581 67.4810192,7.89928331 C67.4810192,6.22195451 68.6280161,4.72962521 70.5520109,4.72962521 C71.625008,4.72962521 72.365006,5.24762381 72.7966715,5.92595531 L72.8213381,5.92595531 L72.8213381,4.87762481 L73.9313351,4.87762481 L73.9313351,10.970275 L72.8213381,10.970275 L72.8213381,9.92194451 L72.7966715,9.92194451 C72.365006,10.600276 71.625008,11.1182746 70.5520109,11.1182746 Z M70.7123438,10.1439439 C71.9333405,10.1439439 72.7720049,9.18194651 72.7720049,7.92394991 C72.7720049,6.69061991 71.9580071,5.70395591 70.7123438,5.70395591 C69.4790138,5.70395591 68.665016,6.67828661 68.665016,7.92394991 C68.665016,9.18194651 69.5036804,10.1439439 70.7123438,10.1439439 Z M75.7762635,10.970275 L75.7762635,2.31229841 L76.9355937,2.31229841 L76.9355937,10.970275 L75.7762635,10.970275 Z M78.7805221,10.970275 L78.7805221,2.31229841 L79.9398523,2.31229841 L79.9398523,10.970275 L78.7805221,10.970275 Z M84.5227733,11.1182746 C82.3521125,11.1182746 81.3161153,9.49027901 81.3161153,7.92394991 C81.3161153,6.45628721 82.2164462,4.72962521 84.4241069,4.72962521 C86.6194343,4.72962521 87.4827653,6.41928731 87.4827653,7.86228341 C87.4827653,7.94861651 87.4827653,8.01028301 87.470432,8.14594931 L82.4631122,8.14594931 C82.4877788,9.32994611 83.3387765,10.1809438 84.5844398,10.1809438 C85.4724374,10.1809438 86.1384356,9.74927831 86.5207679,9.07094681 L87.3594323,9.60127871 C86.7674339,10.6249426 85.7191034,11.1182746 84.5227733,11.1182746 Z M82.5001121,7.30728491 L86.3357684,7.30728491 C86.1507689,6.27128771 85.3984376,5.61762281 84.4241069,5.61762281 C83.4127763,5.61762281 82.6851116,6.30828761 82.5001121,7.30728491 Z M88.9330281,13.4122684 C88.6123623,13.4122684 88.3286964,13.3629352 88.0943637,13.2642688 L88.0943637,12.2899381 C88.2793632,12.3886045 88.5506958,12.450271 88.8096951,12.450271 C89.340027,12.450271 89.6483595,12.1789384 89.8950255,11.6116066 L90.2896911,10.6866091 L87.8106978,4.87762481 L89.0686944,4.87762481 L90.4870239,8.45428181 C90.7460232,9.09561341 90.8940228,9.49027901 90.9063561,9.58894541 L90.9310227,9.58894541 C90.9556893,9.45327911 91.2023553,8.79961421 91.3380216,8.45428181 L92.7563511,4.87762481 L93.9896811,4.87762481 L91.0543557,11.7226063 C90.6596901,12.6476038 90.2403579,13.4122684 88.9330281,13.4122684 Z"/>
  </g>
</svg>
