<svg xmlns="http://www.w3.org/2000/svg" width="495" height="46" viewBox="0 0 495 46">
  <g fill="none" fill-rule="evenodd">
    <polyline class="no-color-change" fill="#009BFF" points="9.447 33.131 9.447 9.282 .357 9.282 .357 2.532 26.907 2.532 26.907 9.282 17.817 9.282 17.817 33.131 9.447 33.131"/>
    <path class="no-color-change" fill="#009BFF" d="M35.502,25.707 C35.502,26.397 35.756,26.96 36.267,27.394 C36.777,27.83 37.437,28.047 38.247,28.047 C39.327,28.047 40.234,27.679 40.969,26.944 C41.704,26.21 42.072,25.287 42.072,24.176 L42.072,23.412 C41.261,23.262 40.406,23.187 39.507,23.187 C38.366,23.187 37.414,23.382 36.649,23.772 C35.884,24.162 35.502,24.807 35.502,25.707 Z M42.386,33.131 L41.982,30.117 C40.481,32.517 38.202,33.716 35.142,33.716 C33.792,33.716 32.569,33.424 31.474,32.84 C30.379,32.255 29.509,31.452 28.864,30.432 C28.218,29.413 27.897,28.227 27.897,26.877 C27.897,24.328 28.894,22.347 30.889,20.937 C32.884,19.527 35.516,18.822 38.787,18.822 C39.806,18.822 40.886,18.912 42.027,19.091 C41.906,17.952 41.419,17.09 40.564,16.505 C39.709,15.92 38.666,15.627 37.437,15.627 C36.357,15.627 35.269,15.83 34.174,16.234 C33.079,16.639 32.037,17.128 31.047,17.697 L28.392,12.657 C29.891,11.697 31.511,10.955 33.252,10.429 C34.991,9.905 36.731,9.642 38.471,9.642 C40.571,9.642 42.461,10.002 44.142,10.722 C45.822,11.442 47.141,12.538 48.102,14.006 C49.061,15.477 49.542,17.337 49.542,19.587 L49.542,33.131 L42.386,33.131 L42.386,33.131 Z"/>
    <polygon class="no-color-change" fill="#009BFF" points="54.536 33.132 62.366 33.132 62.366 .282 54.536 .282"/>
    <polygon class="no-color-change" fill="#009BFF" points="67.856 33.132 75.686 33.132 75.686 .282 67.856 .282"/>
    <path class="no-color-change" fill="#009BFF" d="M87.341 25.707C87.341 26.397 87.595 26.96 88.106 27.394 88.615 27.83 89.276 28.047 90.086 28.047 91.166 28.047 92.072 27.679 92.808 26.944 93.543 26.21 93.91 25.287 93.91 24.176L93.91 23.412C93.1 23.262 92.245 23.187 91.345 23.187 90.205 23.187 89.253 23.382 88.488 23.772 87.723 24.162 87.341 24.807 87.341 25.707zM94.225 33.131L93.821 30.117C92.32 32.517 90.041 33.716 86.981 33.716 85.631 33.716 84.408 33.424 83.313 32.84 82.218 32.255 81.348 31.452 80.703 30.432 80.057 29.413 79.736 28.227 79.736 26.877 79.736 24.328 80.733 22.347 82.728 20.937 84.723 19.527 87.355 18.822 90.626 18.822 91.645 18.822 92.725 18.912 93.865 19.091 93.745 17.952 93.258 17.09 92.403 16.505 91.548 15.92 90.505 15.627 89.276 15.627 88.196 15.627 87.108 15.83 86.013 16.234 84.918 16.639 83.876 17.128 82.885 17.697L80.231 12.657C81.73 11.697 83.35 10.955 85.091 10.429 86.83 9.905 88.57 9.642 90.31 9.642 92.41 9.642 94.3 10.002 95.981 10.722 97.66 11.442 98.98 12.538 99.941 14.006 100.9 15.477 101.381 17.337 101.381 19.587L101.381 33.131 94.225 33.131 94.225 33.131zM114.205 20.532L114.205 33.131 106.376 33.131 106.376.282 114.205.282 114.205 12.881C114.955 11.892 115.908 11.104 117.063 10.519 118.218 9.934 119.47 9.642 120.821 9.642 123.31 9.642 125.305 10.452 126.805 12.072 128.305 13.692 129.055 16.017 129.055 19.047L129.055 33.131 121.225 33.131 121.225 19.947C121.225 18.597 120.925 17.6 120.325 16.955 119.725 16.309 118.885 15.987 117.805 15.987 116.725 15.987 115.855 16.332 115.196 17.022 114.535 17.713 114.205 18.882 114.205 20.532M140.305 25.707C140.305 26.397 140.559 26.96 141.07 27.394 141.58 27.83 142.24 28.047 143.05 28.047 144.13 28.047 145.037 27.679 145.772 26.944 146.507 26.21 146.875 25.287 146.875 24.176L146.875 23.412C146.065 23.262 145.21 23.187 144.31 23.187 143.169 23.187 142.218 23.382 141.452 23.772 140.687 24.162 140.305 24.807 140.305 25.707zM147.19 33.131L146.785 30.117C145.284 32.517 143.005 33.716 139.945 33.716 138.595 33.716 137.372 33.424 136.278 32.84 135.182 32.255 134.312 31.452 133.667 30.432 133.022 29.413 132.7 28.227 132.7 26.877 132.7 24.328 133.697 22.347 135.693 20.937 137.687 19.527 140.32 18.822 143.59 18.822 144.61 18.822 145.689 18.912 146.83 19.091 146.71 17.952 146.222 17.09 145.367 16.505 144.512 15.92 143.469 15.627 142.24 15.627 141.16 15.627 140.072 15.83 138.977 16.234 137.882 16.639 136.84 17.128 135.85 17.697L133.195 12.657C134.695 11.697 136.315 10.955 138.055 10.429 139.794 9.905 141.534 9.642 143.275 9.642 145.374 9.642 147.264 10.002 148.945 10.722 150.625 11.442 151.945 12.538 152.905 14.006 153.864 15.477 154.345 17.337 154.345 19.587L154.345 33.131 147.19 33.131 147.19 33.131zM167.845 33.716C165.865 33.716 164.012 33.402 162.287 32.772 160.562 32.142 159.01 31.242 157.63 30.072L160.96 25.662C162.01 26.502 163.142 27.185 164.357 27.71 165.572 28.235 166.765 28.497 167.935 28.497 168.715 28.497 169.337 28.362 169.802 28.091 170.267 27.822 170.5 27.417 170.5 26.877 170.5 26.307 170.237 25.849 169.712 25.505 169.187 25.16 168.25 24.822 166.9 24.492L164.74 23.952C160.449 22.812 158.305 20.517 158.305 17.067 158.305 15.537 158.725 14.217 159.565 13.107 160.405 11.998 161.56 11.142 163.03 10.542 164.499 9.942 166.209 9.642 168.16 9.642 170.079 9.642 171.887 9.942 173.582 10.542 175.277 11.142 176.829 12.012 178.24 13.152L174.82 17.652C173.769 16.812 172.66 16.137 171.49 15.627 170.32 15.117 169.224 14.862 168.205 14.862 166.554 14.862 165.73 15.402 165.73 16.482 165.73 16.963 165.977 17.352 166.472 17.652 166.968 17.952 167.665 18.222 168.565 18.462L171.49 19.272C173.679 19.873 175.3 20.772 176.35 21.972 177.4 23.173 177.925 24.597 177.925 26.247 177.925 27.748 177.504 29.059 176.665 30.184 175.824 31.309 174.647 32.179 173.133 32.795 171.617 33.409 169.854 33.716 167.845 33.716M190.705 33.716C188.725 33.716 186.872 33.402 185.147 32.772 183.422 32.142 181.869 31.242 180.489 30.072L183.82 25.662C184.869 26.502 186.002 27.185 187.217 27.71 188.432 28.235 189.625 28.497 190.795 28.497 191.574 28.497 192.197 28.362 192.662 28.091 193.127 27.822 193.36 27.417 193.36 26.877 193.36 26.307 193.097 25.849 192.572 25.505 192.047 25.16 191.11 24.822 189.76 24.492L187.6 23.952C183.309 22.812 181.165 20.517 181.165 17.067 181.165 15.537 181.585 14.217 182.425 13.107 183.264 11.998 184.42 11.142 185.89 10.542 187.359 9.942 189.069 9.642 191.02 9.642 192.939 9.642 194.747 9.942 196.442 10.542 198.137 11.142 199.689 12.012 201.1 13.152L197.68 17.652C196.629 16.812 195.52 16.137 194.35 15.627 193.18 15.117 192.084 14.862 191.065 14.862 189.414 14.862 188.59 15.402 188.59 16.482 188.59 16.963 188.837 17.352 189.332 17.652 189.827 17.952 190.525 18.222 191.425 18.462L194.35 19.272C196.539 19.873 198.159 20.772 199.21 21.972 200.26 23.173 200.785 24.597 200.785 26.247 200.785 27.748 200.364 29.059 199.525 30.184 198.684 31.309 197.507 32.179 195.992 32.795 194.477 33.409 192.714 33.716 190.705 33.716M215.905 15.312C213.354 15.312 211.824 16.662 211.315 19.362L220.045 19.362C219.834 17.892 219.332 16.849 218.537 16.234 217.742 15.62 216.864 15.312 215.905 15.312zM226.615 30.792C225.474 31.602 224.027 32.293 222.272 32.862 220.517 33.431 218.65 33.716 216.67 33.716 213.939 33.716 211.607 33.215 209.672 32.21 207.737 31.205 206.252 29.801 205.217 28.002 204.182 26.202 203.665 24.131 203.665 21.792 203.665 19.423 204.175 17.322 205.195 15.492 206.214 13.663 207.625 12.229 209.425 11.194 211.224 10.16 213.324 9.642 215.724 9.642 218.065 9.642 220.127 10.144 221.912 11.149 223.697 12.155 225.092 13.549 226.097 15.335 227.102 17.12 227.605 19.213 227.605 21.612 227.605 21.942 227.582 22.287 227.537 22.647 227.492 23.006 227.439 23.382 227.38 23.772L211.405 23.772C212.125 26.412 214.089 27.732 217.3 27.732 218.739 27.732 220.014 27.506 221.125 27.057 222.234 26.607 223.164 26.157 223.915 25.707L226.615 30.792 226.615 30.792zM242.454 15.312C239.904 15.312 238.374 16.662 237.865 19.362L246.594 19.362C246.384 17.892 245.882 16.849 245.087 16.234 244.292 15.62 243.414 15.312 242.454 15.312zM253.164 30.792C252.024 31.602 250.576 32.293 248.822 32.862 247.067 33.431 245.199 33.716 243.219 33.716 240.489 33.716 238.157 33.215 236.222 32.21 234.287 31.205 232.802 29.801 231.767 28.002 230.732 26.202 230.215 24.131 230.215 21.792 230.215 19.423 230.724 17.322 231.744 15.492 232.764 13.663 234.175 12.229 235.974 11.194 237.774 10.16 239.874 9.642 242.274 9.642 244.615 9.642 246.677 10.144 248.462 11.149 250.246 12.155 251.641 13.549 252.647 15.335 253.652 17.12 254.155 19.213 254.155 21.612 254.155 21.942 254.132 22.287 254.087 22.647 254.042 23.006 253.99 23.382 253.929 23.772L237.954 23.772C238.675 26.412 240.639 27.732 243.849 27.732 245.289 27.732 246.564 27.506 247.674 27.057 248.783 26.607 249.714 26.157 250.464 25.707L253.164 30.792 253.164 30.792z"/>
    <path fill="#404040" d="M277.823 26.517L281.649 26.517C283.838 26.517 285.571 25.722 286.846 24.131 288.121 22.542 288.759 20.442 288.759 17.832 288.759 15.222 288.121 13.123 286.846 11.532 285.571 9.942 283.838 9.147 281.649 9.147L277.823 9.147 277.823 26.517zM269.589 33.131L269.589 2.532 281.649 2.532C284.679 2.532 287.356 3.184 289.681 4.489 292.006 5.795 293.828 7.594 295.149 9.889 296.469 12.184 297.129 14.833 297.129 17.832 297.129 20.832 296.469 23.479 295.149 25.774 293.828 28.069 292.006 29.87 289.681 31.174 287.356 32.479 284.679 33.131 281.649 33.131L269.589 33.131 269.589 33.131zM312.338 15.312C309.788 15.312 308.258 16.662 307.748 19.362L316.479 19.362C316.268 17.892 315.766 16.849 314.971 16.234 314.176 15.62 313.298 15.312 312.338 15.312zM323.048 30.792C321.907 31.602 320.461 32.293 318.706 32.862 316.95 33.431 315.083 33.716 313.104 33.716 310.373 33.716 308.041 33.215 306.106 32.21 304.171 31.205 302.686 29.801 301.651 28.002 300.615 26.202 300.099 24.131 300.099 21.792 300.099 19.423 300.609 17.322 301.628 15.492 302.648 13.663 304.059 12.229 305.859 11.194 307.658 10.16 309.758 9.642 312.158 9.642 314.498 9.642 316.561 10.144 318.346 11.149 320.13 12.155 321.526 13.549 322.531 15.335 323.535 17.12 324.038 19.213 324.038 21.612 324.038 21.942 324.016 22.287 323.971 22.647 323.926 23.006 323.873 23.382 323.814 23.772L307.838 23.772C308.559 26.412 310.523 27.732 313.734 27.732 315.173 27.732 316.448 27.506 317.559 27.057 318.668 26.607 319.598 26.157 320.349 25.707L323.048 30.792 323.048 30.792zM335.873 19.947L335.873 33.131 328.043 33.131 328.043 10.227 335.243 10.227 335.649 13.152C336.338 12.043 337.238 11.202 338.348 10.631 339.457 10.062 340.643 9.777 341.904 9.777 343.253 9.777 344.483 10.077 345.593 10.676 346.702 11.277 347.603 12.117 348.293 13.197 349.103 12.088 350.16 11.239 351.466 10.654 352.771 10.069 354.143 9.777 355.583 9.777 357.173 9.777 358.575 10.144 359.79 10.88 361.006 11.615 361.957 12.634 362.649 13.939 363.338 15.245 363.683 16.752 363.683 18.462L363.683 33.131 355.853 33.131 355.853 19.272C355.853 18.312 355.59 17.548 355.066 16.977 354.54 16.407 353.873 16.122 353.063 16.122 352.073 16.122 351.278 16.437 350.678 17.067 350.077 17.697 349.779 18.657 349.779 19.947L349.779 33.131 341.948 33.131 341.948 19.272C341.948 18.312 341.693 17.548 341.183 16.977 340.673 16.407 339.983 16.122 339.114 16.122 338.153 16.122 337.373 16.437 336.774 17.067 336.173 17.697 335.873 18.657 335.873 19.947M379.883 27.506C381.263 27.506 382.365 26.974 383.191 25.91 384.015 24.844 384.428 23.427 384.428 21.657 384.428 19.887 384.015 18.477 383.191 17.426 382.365 16.377 381.263 15.852 379.883 15.852 378.503 15.852 377.401 16.377 376.575 17.426 375.75 18.477 375.338 19.887 375.338 21.657 375.338 23.427 375.75 24.844 376.575 25.91 377.401 26.974 378.503 27.506 379.883 27.506zM379.883 33.716C377.423 33.716 375.255 33.199 373.38 32.165 371.505 31.13 370.035 29.712 368.971 27.912 367.906 26.112 367.373 24.027 367.373 21.657 367.373 19.288 367.906 17.202 368.971 15.402 370.035 13.602 371.505 12.192 373.38 11.172 375.255 10.152 377.423 9.642 379.883 9.642 382.343 9.642 384.51 10.152 386.386 11.172 388.26 12.192 389.731 13.602 390.795 15.402 391.86 17.202 392.393 19.288 392.393 21.657 392.393 24.027 391.86 26.112 390.795 27.912 389.731 29.712 388.26 31.13 386.386 32.165 384.51 33.199 382.343 33.716 379.883 33.716L379.883 33.716zM407.198 33.716C404.858 33.716 402.781 33.215 400.965 32.21 399.15 31.205 397.718 29.801 396.668 28.002 395.617 26.202 395.093 24.102 395.093 21.702 395.093 19.302 395.617 17.202 396.668 15.402 397.718 13.602 399.15 12.2 400.965 11.194 402.781 10.189 404.858 9.687 407.198 9.687 409.268 9.687 411.083 10.069 412.643 10.835 414.202 11.599 415.583 12.822 416.783 14.502L411.608 18.282C411.188 17.652 410.641 17.134 409.965 16.729 409.29 16.324 408.563 16.122 407.783 16.122 406.433 16.122 405.308 16.625 404.408 17.63 403.508 18.634 403.058 19.992 403.058 21.702 403.058 23.412 403.508 24.769 404.408 25.774 405.308 26.78 406.433 27.282 407.783 27.282 408.563 27.282 409.29 27.08 409.965 26.674 410.641 26.269 411.188 25.752 411.608 25.122L416.783 28.902C415.583 30.583 414.202 31.804 412.643 32.569 411.083 33.335 409.268 33.716 407.198 33.716M428.122 24.267L428.122 33.131 420.293 33.131 420.293 10.227 427.448 10.227 427.943 14.051C428.422 12.822 429.21 11.824 430.305 11.059 431.4 10.295 432.668 9.912 434.108 9.912 434.918 9.912 435.532 10.017 435.952 10.227L435.952 17.381C435.622 17.262 435.255 17.173 434.85 17.112 434.446 17.052 433.988 17.022 433.478 17.022 431.917 17.022 430.635 17.6 429.63 18.755 428.625 19.91 428.122 21.747 428.122 24.267M445.898 25.707C445.898 26.397 446.152 26.96 446.662 27.394 447.172 27.83 447.832 28.047 448.642 28.047 449.722 28.047 450.629 27.679 451.365 26.944 452.1 26.21 452.467 25.287 452.467 24.176L452.467 23.412C451.657 23.262 450.802 23.187 449.903 23.187 448.762 23.187 447.81 23.382 447.045 23.772 446.28 24.162 445.898 24.807 445.898 25.707zM452.782 33.131L452.377 30.117C450.877 32.517 448.597 33.716 445.537 33.716 444.188 33.716 442.964 33.424 441.869 32.84 440.775 32.255 439.905 31.452 439.26 30.432 438.615 29.413 438.292 28.227 438.292 26.877 438.292 24.328 439.289 22.347 441.284 20.937 443.28 19.527 445.912 18.822 449.182 18.822 450.201 18.822 451.281 18.912 452.422 19.091 452.302 17.952 451.815 17.09 450.96 16.505 450.105 15.92 449.062 15.627 447.832 15.627 446.752 15.627 445.664 15.83 444.57 16.234 443.474 16.639 442.432 17.128 441.443 17.697L438.787 12.657C440.287 11.697 441.907 10.955 443.648 10.429 445.387 9.905 447.127 9.642 448.867 9.642 450.967 9.642 452.857 10.002 454.537 10.722 456.217 11.442 457.536 12.538 458.497 14.006 459.457 15.477 459.938 17.337 459.938 19.587L459.938 33.131 452.782 33.131 452.782 33.131zM481.807 31.647C480.877 32.277 479.812 32.78 478.612 33.154 477.411 33.529 476.152 33.716 474.832 33.716 472.371 33.716 470.414 33.005 468.959 31.58 467.504 30.155 466.777 28.242 466.777 25.841L466.777 16.077 463.042 16.077 463.042 10.227 467.137 10.227 468.127 3.837 474.607 3.837 474.607 10.227 480.592 10.227 480.592 16.077 474.607 16.077 474.607 24.852C474.607 25.632 474.839 26.24 475.305 26.674 475.769 27.11 476.392 27.327 477.172 27.327 477.562 27.327 477.959 27.253 478.365 27.102 478.77 26.952 479.152 26.772 479.512 26.562L481.807 31.647"/>
    <path class="no-color-change" fill="#009BFF" d="M489.547,33.627 C488.586,33.627 487.709,33.394 486.914,32.929 C486.119,32.465 485.49,31.835 485.025,31.04 C484.559,30.245 484.326,29.367 484.326,28.407 C484.326,27.447 484.559,26.57 485.025,25.774 C485.49,24.98 486.119,24.35 486.914,23.884 C487.709,23.42 488.586,23.187 489.547,23.187 C490.507,23.187 491.384,23.42 492.179,23.884 C492.974,24.35 493.604,24.98 494.07,25.774 C494.534,26.57 494.767,27.447 494.767,28.407 C494.767,29.367 494.534,30.245 494.07,31.04 C493.604,31.835 492.974,32.465 492.179,32.929 C491.384,33.394 490.507,33.627 489.547,33.627"/>
    <path fill="#404040" d="M10.313 42.555L11.479 42.555C11.862 42.555 12.165 42.461 12.388 42.272 12.611 42.084 12.723 41.826 12.723 41.5 12.723 41.173 12.611 40.917 12.388 40.728 12.165 40.539 11.862 40.445 11.479 40.445L10.313 40.445 10.313 42.555zM9.446 45.548L9.446 39.716 11.479 39.716C12.131 39.716 12.649 39.876 13.031 40.196 13.415 40.516 13.606 40.951 13.606 41.5 13.606 42.044 13.415 42.473 13.031 42.791 12.649 43.108 12.131 43.267 11.479 43.267L10.313 43.267 10.313 45.548 9.446 45.548 9.446 45.548zM15.356 43.352L17.483 43.352 16.42 40.617 15.356 43.352zM18.333 45.548L17.766 44.082 15.073 44.082 14.507 45.548 13.632 45.548 15.965 39.716 16.9 39.716 19.225 45.548 18.333 45.548 18.333 45.548zM21.06 42.469L22.253 42.469C22.624 42.469 22.92 42.378 23.14 42.195 23.361 42.012 23.47 41.766 23.47 41.457 23.47 41.148 23.361 40.903 23.14 40.719 22.92 40.537 22.624 40.445 22.253 40.445L21.06 40.445 21.06 42.469zM21.06 43.181L21.06 45.548 20.194 45.548 20.194 39.716 22.253 39.716C22.899 39.716 23.41 39.872 23.788 40.183 24.165 40.495 24.354 40.92 24.354 41.457 24.354 41.863 24.239 42.207 24.011 42.487 23.782 42.766 23.467 42.965 23.068 43.078L24.483 45.548 23.496 45.548 22.167 43.181 21.06 43.181 21.06 43.181z"/>
    <polyline fill="#404040" points="26.841 45.548 26.841 40.445 24.877 40.445 24.877 39.716 29.672 39.716 29.672 40.445 27.708 40.445 27.708 45.548 26.841 45.548"/>
    <path fill="#404040" d="M35.238,44.888 C35.616,44.888 35.952,44.793 36.247,44.601 C36.541,44.41 36.771,44.145 36.937,43.807 C37.103,43.47 37.186,43.078 37.186,42.632 C37.186,42.186 37.103,41.795 36.937,41.457 C36.771,41.12 36.541,40.855 36.247,40.664 C35.952,40.472 35.616,40.376 35.238,40.376 C34.862,40.376 34.527,40.472 34.235,40.664 C33.944,40.855 33.715,41.12 33.549,41.457 C33.383,41.795 33.3,42.186 33.3,42.632 C33.3,43.078 33.383,43.47 33.549,43.807 C33.715,44.145 33.944,44.41 34.235,44.601 C34.527,44.793 34.862,44.888 35.238,44.888 Z M35.238,45.643 C34.69,45.643 34.204,45.514 33.78,45.257 C33.357,45 33.024,44.645 32.781,44.193 C32.538,43.742 32.417,43.221 32.417,42.632 C32.417,42.044 32.538,41.523 32.781,41.071 C33.024,40.619 33.357,40.264 33.78,40.007 C34.204,39.75 34.69,39.622 35.238,39.622 C35.788,39.622 36.275,39.75 36.701,40.007 C37.127,40.264 37.462,40.619 37.705,41.071 C37.947,41.523 38.069,42.044 38.069,42.632 C38.069,43.221 37.947,43.742 37.705,44.193 C37.462,44.645 37.127,45 36.701,45.257 C36.275,45.514 35.788,45.643 35.238,45.643 L35.238,45.643 Z"/>
    <polyline fill="#404040" points="40.154 45.548 39.287 45.548 39.287 39.716 42.916 39.716 42.916 40.445 40.154 40.445 40.154 42.418 42.495 42.418 42.495 43.146 40.154 43.146 40.154 45.548"/>
    <polyline fill="#404040" points="47.436 45.548 47.436 40.445 45.471 40.445 45.471 39.716 50.266 39.716 50.266 40.445 48.302 40.445 48.302 45.548 47.436 45.548"/>
    <polyline fill="#404040" points="51.261 45.548 51.261 39.716 52.128 39.716 52.128 42.212 55.138 42.212 55.138 39.716 56.005 39.716 56.005 45.548 55.138 45.548 55.138 42.958 52.128 42.958 52.128 45.548 51.261 45.548"/>
    <polyline fill="#404040" points="57.531 45.548 57.531 39.716 61.271 39.716 61.271 40.445 58.398 40.445 58.398 42.246 60.928 42.246 60.928 42.975 58.398 42.975 58.398 44.819 61.34 44.819 61.34 45.548 57.531 45.548"/>
    <path fill="#404040" d="M66.812 44.888C67.287 44.888 67.66 44.746 67.932 44.46 68.203 44.173 68.339 43.787 68.339 43.301L68.339 39.716 69.205 39.716 69.205 43.309C69.205 44.037 68.992 44.606 68.567 45.021 68.14 45.435 67.555 45.643 66.812 45.643 66.069 45.643 65.486 45.435 65.063 45.021 64.639 44.606 64.428 44.037 64.428 43.309L64.428 39.716 65.294 39.716 65.294 43.301C65.294 43.787 65.43 44.173 65.701 44.46 65.973 44.746 66.343 44.888 66.812 44.888M72.439 45.643C71.999 45.643 71.578 45.565 71.178 45.412 70.778 45.257 70.455 45.051 70.209 44.794L70.698 44.218C70.926 44.431 71.197 44.596 71.509 44.716 71.82 44.837 72.131 44.896 72.439 44.896 72.817 44.896 73.121 44.824 73.353 44.678 73.584 44.532 73.7 44.331 73.7 44.073 73.7 43.839 73.617 43.641 73.451 43.481 73.285 43.321 73.002 43.187 72.602 43.078L71.796 42.864C71.275 42.726 70.897 42.532 70.659 42.281 70.422 42.029 70.303 41.701 70.303 41.295 70.303 40.963 70.392 40.671 70.569 40.42 70.746 40.168 70.991 39.972 71.302 39.832 71.614 39.691 71.968 39.622 72.362 39.622 72.78 39.622 73.171 39.7 73.537 39.857 73.903 40.014 74.226 40.234 74.507 40.513L73.983 41.08C73.737 40.851 73.481 40.675 73.216 40.552 72.949 40.429 72.668 40.368 72.37 40.368 72.01 40.368 71.716 40.444 71.487 40.595 71.259 40.747 71.144 40.957 71.144 41.225 71.144 41.471 71.225 41.663 71.388 41.8 71.551 41.937 71.801 42.052 72.139 42.143L73.04 42.392C73.56 42.535 73.94 42.735 74.18 42.993 74.421 43.25 74.541 43.57 74.541 43.953 74.541 44.291 74.452 44.587 74.275 44.84 74.097 45.095 73.851 45.293 73.537 45.432 73.222 45.573 72.857 45.643 72.439 45.643M76.719 43.352L78.847 43.352 77.783 40.617 76.719 43.352zM79.696 45.548L79.13 44.082 76.436 44.082 75.87 45.548 74.995 45.548 77.328 39.716 78.263 39.716 80.588 45.548 79.696 45.548 79.696 45.548z"/>
    <polyline fill="#404040" points="84.619 45.548 84.619 40.445 82.655 40.445 82.655 39.716 87.45 39.716 87.45 40.445 85.486 40.445 85.486 45.548 84.619 45.548"/>
    <path fill="#404040" d="M90.572 44.888C90.949 44.888 91.285 44.793 91.58 44.601 91.874 44.41 92.105 44.145 92.27 43.807 92.436 43.47 92.519 43.078 92.519 42.632 92.519 42.186 92.436 41.795 92.27 41.457 92.105 41.12 91.874 40.855 91.58 40.664 91.285 40.472 90.949 40.376 90.572 40.376 90.195 40.376 89.86 40.472 89.569 40.664 89.277 40.855 89.048 41.12 88.882 41.457 88.717 41.795 88.634 42.186 88.634 42.632 88.634 43.078 88.717 43.47 88.882 43.807 89.048 44.145 89.277 44.41 89.569 44.601 89.86 44.793 90.195 44.888 90.572 44.888zM90.572 45.643C90.023 45.643 89.537 45.514 89.114 45.257 88.691 45 88.358 44.645 88.114 44.193 87.872 43.742 87.75 43.221 87.75 42.632 87.75 42.044 87.872 41.523 88.114 41.071 88.358 40.619 88.691 40.264 89.114 40.007 89.537 39.75 90.023 39.622 90.572 39.622 91.121 39.622 91.609 39.75 92.034 40.007 92.461 40.264 92.795 40.619 93.038 41.071 93.281 41.523 93.403 42.044 93.403 42.632 93.403 43.221 93.281 43.742 93.038 44.193 92.795 44.645 92.461 45 92.034 45.257 91.609 45.514 91.121 45.643 90.572 45.643L90.572 45.643zM95.487 44.819L96.671 44.819C97.082 44.819 97.435 44.729 97.73 44.549 98.025 44.37 98.25 44.116 98.407 43.791 98.565 43.465 98.644 43.078 98.644 42.632 98.644 42.186 98.565 41.8 98.407 41.474 98.25 41.148 98.025 40.895 97.73 40.715 97.435 40.535 97.082 40.445 96.671 40.445L95.487 40.445 95.487 44.819zM94.621 45.548L94.621 39.716 96.671 39.716C97.242 39.716 97.743 39.838 98.172 40.081 98.601 40.324 98.934 40.664 99.171 41.101 99.408 41.539 99.527 42.048 99.527 42.632 99.527 43.215 99.408 43.725 99.171 44.164 98.934 44.601 98.601 44.941 98.172 45.184 97.743 45.427 97.242 45.548 96.671 45.548L94.621 45.548 94.621 45.548zM101.74 43.352L103.867 43.352 102.803 40.617 101.74 43.352zM104.717 45.548L104.15 44.082 101.457 44.082 100.891 45.548 100.016 45.548 102.349 39.716 103.284 39.716 105.609 45.548 104.717 45.548 104.717 45.548z"/>
    <polyline fill="#404040" points="108.268 43.233 108.268 45.548 107.401 45.548 107.401 43.233 105.351 39.716 106.372 39.716 107.839 42.409 109.305 39.716 110.309 39.716 108.268 43.233"/>
    <polyline fill="#404040" points="117.239 45.548 114.126 41.08 114.126 45.548 113.311 45.548 113.311 39.716 114.117 39.716 117.239 44.185 117.239 39.716 118.046 39.716 118.046 45.548 117.239 45.548"/>
    <polyline fill="#404040" points="119.572 45.548 119.572 39.716 123.313 39.716 123.313 40.445 120.439 40.445 120.439 42.246 122.969 42.246 122.969 42.975 120.439 42.975 120.439 44.819 123.381 44.819 123.381 45.548 119.572 45.548"/>
    <polyline fill="#404040" points="125.954 45.548 125.954 40.445 123.99 40.445 123.99 39.716 128.785 39.716 128.785 40.445 126.821 40.445 126.821 45.548 125.954 45.548"/>
    <polyline fill="#404040" points="134.446 45.548 133.082 40.9 131.718 45.548 130.818 45.548 129.265 39.716 130.123 39.716 131.306 44.331 132.671 39.716 133.494 39.716 134.866 44.348 136.059 39.716 136.899 39.716 135.346 45.548 134.446 45.548"/>
    <path fill="#404040" d="M140.339 44.888C140.717 44.888 141.052 44.793 141.347 44.601 141.641 44.41 141.872 44.145 142.037 43.807 142.203 43.47 142.286 43.078 142.286 42.632 142.286 42.186 142.203 41.795 142.037 41.457 141.872 41.12 141.641 40.855 141.347 40.664 141.052 40.472 140.717 40.376 140.339 40.376 139.962 40.376 139.627 40.472 139.336 40.664 139.044 40.855 138.815 41.12 138.649 41.457 138.484 41.795 138.401 42.186 138.401 42.632 138.401 43.078 138.484 43.47 138.649 43.807 138.815 44.145 139.044 44.41 139.336 44.601 139.627 44.793 139.962 44.888 140.339 44.888zM140.339 45.643C139.79 45.643 139.304 45.514 138.881 45.257 138.458 45 138.125 44.645 137.882 44.193 137.638 43.742 137.517 43.221 137.517 42.632 137.517 42.044 137.638 41.523 137.882 41.071 138.125 40.619 138.458 40.264 138.881 40.007 139.304 39.75 139.79 39.622 140.339 39.622 140.888 39.622 141.376 39.75 141.801 40.007 142.227 40.264 142.562 40.619 142.805 41.071 143.048 41.523 143.17 42.044 143.17 42.632 143.17 43.221 143.048 43.742 142.805 44.193 142.562 44.645 142.227 45 141.801 45.257 141.376 45.514 140.888 45.643 140.339 45.643L140.339 45.643zM145.254 42.469L146.446 42.469C146.818 42.469 147.114 42.378 147.334 42.195 147.554 42.012 147.664 41.766 147.664 41.457 147.664 41.148 147.554 40.903 147.334 40.719 147.114 40.537 146.818 40.445 146.446 40.445L145.254 40.445 145.254 42.469zM145.254 43.181L145.254 45.548 144.387 45.548 144.387 39.716 146.446 39.716C147.093 39.716 147.604 39.872 147.982 40.183 148.359 40.495 148.548 40.92 148.548 41.457 148.548 41.863 148.433 42.207 148.204 42.487 147.976 42.766 147.661 42.965 147.261 43.078L148.676 45.548 147.69 45.548 146.361 43.181 145.254 43.181 145.254 43.181z"/>
    <polyline fill="#404040" points="153.257 45.548 150.641 42.606 150.641 45.548 149.774 45.548 149.774 39.716 150.641 39.716 150.641 42.272 153.085 39.716 154.157 39.716 151.558 42.392 154.346 45.548 153.257 45.548"/>
  </g>
</svg>
