<svg id="op2" xmlns="http://www.w3.org/2000/svg" xmlns:xlink="http://www.w3.org/1999/xlink" width="734" height="160" viewBox="0 0 734 160">
  <defs>
    <style>
      .cls-1, .cls-2 {
        fill: #000;
        fill-rule: evenodd;
      }

      .cls-1 {
        filter: url(#filter);
      }
    </style>
    <filter id="filter" x="353" y="112.969" width="367.969" height="16" filterUnits="userSpaceOnUse">
      <feFlood result="flood" flood-color="#999"/>
      <feComposite result="composite" operator="in" in2="SourceGraphic"/>
      <feBlend result="blend" in2="SourceGraphic"/>
    </filter>
  </defs>
  <path id="USAT_Network" data-name="USAT Network" class="cls-1" d="M352.989,113.273h4.489c3.156,0,5.267,1.865,5.267,4.741s-2.155,4.735-5.267,4.735h-2.29v5.925h-2.2v-15.4Zm4.267,7.659c2.112,0,3.244-1.163,3.244-2.918,0-1.736-1.132-2.919-3.244-2.919h-2.068v5.837h2.068Zm11.768-7.659h1.955l6.4,15.4h-2.358l-1.6-4.035h-6.911l-1.6,4.035H362.6S368.244,115.162,369.024,113.273Zm3.665,9.544-1.488-3.794c-0.222-.572-1.179-2.942-1.2-3.139h-0.043c-0.022.2-.955,2.5-1.2,3.139l-1.51,3.794h5.443Zm6.924-9.544h4.51c2.91,0,5.178,1.5,5.178,4.563a4.293,4.293,0,0,1-3.955,4.346l4.778,6.492h-2.579l-4.51-6.276h-1.223v6.276h-2.2v-15.4Zm4.267,7.351c2.043,0,3.2-1.077,3.2-2.764s-1.157-2.765-3.2-2.765h-2.068v5.529h2.068Zm11.522-5.486h-4.445v-1.865h11.089v1.865H397.6v13.536h-2.2V115.138Zm12.347,5.838a8.2,8.2,0,1,1,8.2,8A7.862,7.862,0,0,1,407.749,120.976Zm14.133,0a5.946,5.946,0,1,0-5.955,6.053A5.772,5.772,0,0,0,421.882,120.976Zm5.433-7.7h7.867v1.865h-5.668V120.1H435v1.865h-5.49v6.713h-2.2v-15.4Zm17.815,1.865h-4.444v-1.865h11.088v1.865H447.33v13.536h-2.2V115.138Zm8.953-1.865h2.2v6.318h8.178v-6.318h2.2v15.4h-2.2v-7.218h-8.178v7.218h-2.2v-15.4Zm16.631,0h8.49v1.846h-6.29v4.472h6.11v1.846h-6.11v5.395h6.422v1.842h-8.622v-15.4Zm16,10.092V113.273h2.221v9.433c0,2.679,1.157,4.323,3.756,4.323,2.622,0,3.78-1.644,3.78-4.323v-9.433h2.221v10.092c0,3.38-2.2,5.616-6,5.616C488.865,128.981,486.71,126.745,486.71,123.365Zm14.274,2.524,1.491-1.25a4.52,4.52,0,0,0,3.911,2.433c1.709,0,3.044-.918,3.044-2.611,0-1.817-1.534-2.433-3.446-3.178-1.956-.769-3.933-1.736-3.933-4.193,0-2.432,1.912-4.12,4.712-4.12a5.248,5.248,0,0,1,4.579,2.322l-1.491,1.25a3.552,3.552,0,0,0-3.088-1.668c-1.512,0-2.511.769-2.511,2.063,0,1.6,1.554,2.13,2.911,2.654,2.2,0.856,4.466,1.889,4.466,4.716,0,2.679-2,4.674-5.2,4.674A6.064,6.064,0,0,1,500.984,125.889Zm18.241-12.616h1.956l6.4,15.4h-2.357l-1.6-4.035h-6.912l-1.6,4.035H512.8S518.446,115.162,519.225,113.273Zm3.665,9.544-1.487-3.794c-0.222-.572-1.179-2.942-1.2-3.139h-0.044c-0.022.2-.955,2.5-1.2,3.139l-1.51,3.794h5.443Zm13.978-7.679h-4.445v-1.865h11.088v1.865h-4.444v13.536h-2.2V115.138Zm7.469,5.838a8.2,8.2,0,1,1,8.2,8A7.861,7.861,0,0,1,544.337,120.976Zm14.132,0a5.945,5.945,0,1,0-5.954,6.053A5.772,5.772,0,0,0,558.469,120.976Zm5.434-7.7h4.423c4.977,0,8.265,2.808,8.265,7.7,0,4.87-3.312,7.7-8.265,7.7H563.9v-15.4Zm2.2,13.534h2.046c3.643,0,6.176-1.9,6.176-5.831s-2.533-5.838-6.176-5.838H566.1v11.669Zm17.637-13.534H585.7l6.4,15.4h-2.357l-1.6-4.035h-6.912l-1.6,4.035h-2.311S582.96,115.162,583.739,113.273Zm3.666,9.544-1.489-3.794c-0.221-.572-1.178-2.942-1.2-3.139h-0.044c-0.022.2-.955,2.5-1.2,3.139l-1.51,3.794h5.444Zm9.084-.419-5.312-9.125h2.467l2.889,5.135a22.887,22.887,0,0,1,1.11,2.192h0.022a23.153,23.153,0,0,1,1.113-2.192l2.91-5.135h2.4l-5.309,9.125v6.276h-2.289V122.4Zm14.062-9.125h1.687l8.846,9.982c0.266,0.288,1.422,1.711,1.534,1.932l0.044-.023c-0.044-.217-0.044-2-0.044-2.39v-9.5h2.134v15.4h-1.713l-8.845-9.983c-0.265-.283-1.422-1.711-1.532-1.928l-0.021.02c0.021,0.221.043,2,.043,2.394v9.5h-2.133v-15.4Zm18.253,0h8.487v1.846H631v4.472h6.113v1.846H631v5.395h6.422v1.842H628.8v-15.4Zm15.37,1.865h-4.445v-1.865h11.089v1.865h-4.445v13.536h-2.2V115.138Zm8.478-1.865h2.333l3.2,9.15c0.112,0.351.867,2.63,0.889,2.981h0.046a30.445,30.445,0,0,1,.933-2.981l3.334-9.15h1.756l3.332,9.15c0.133,0.351.91,2.63,0.935,2.981h0.044c0.044-.351.8-2.63,0.91-2.981l3.179-9.15h2.243l-5.49,15.4h-1.688l-3.6-9.607a25.578,25.578,0,0,1-.758-2.5h-0.044a25.693,25.693,0,0,1-.776,2.5l-3.578,9.607h-1.69Zm24.118,7.7a8.2,8.2,0,1,1,8.2,8A7.861,7.861,0,0,1,676.77,120.976Zm14.132,0a5.945,5.945,0,1,0-5.955,6.053A5.772,5.772,0,0,0,690.9,120.976Zm5.433-7.7h4.511c2.913,0,5.177,1.5,5.177,4.563a4.293,4.293,0,0,1-3.955,4.346l4.779,6.492h-2.579l-4.511-6.276h-1.222v6.276h-2.2v-15.4Zm4.267,7.351c2.044,0,3.2-1.077,3.2-2.764s-1.156-2.765-3.2-2.765h-2.067v5.529H700.6Zm8.736-7.351h2.2v7.154l6.444-7.154h2.666l-6.687,7.351,7,8.05h-2.754l-6.668-7.785v7.785h-2.2v-15.4Z"/>
  <path id="Tallhassee_copy" data-name="Tallhassee copy" class="cls-2" d="M698.985,44.785h31.507V59.852h-1.987c-0.662-3.272-1.427-8.067-2.933-10.829-0.971-1.781-2.351-3.162-5.583-2.731V90.173l3.028-.009V91.63l-16.558-.043V90.26l2.933,0.008c0.222-14.439.031-29.286,0.095-43.882a4.733,4.733,0,0,0-5.677,2.637c-1.529,2.809-2.114,7.706-2.934,10.829H698.89V45.067C698.882,44.934,698.874,44.8,698.985,44.785Zm-195.665,0H517.8q4.068,15.785,8.042,31.639c3.13-10.349,5.85-21.109,8.8-31.639h14.1v1.506H545.8c-0.22,14.438-.031,29.286-0.094,43.882l3.028-.028V91.68H531.044V90.268h4.067c0.221-13.969.031-28.345,0.094-42.47-4.138,14.431-7.931,29.208-11.827,43.882h-3.5c-3.9-14.73-7.918-29.349-11.923-43.976-0.22,14-.031,28.407-0.1,42.564h4.164V91.68h-8.8V90.268h2.933c0.22-14.471.032-29.349,0.1-43.977h-3.028V45.067C503.218,44.934,503.21,44.8,503.32,44.785Zm-35.48,0h31.034V59.663h-1.987c-0.584-2.37-1.246-4.779-1.989-7.251-0.621-2.095-1.4-5.536-3.593-6.155l-10.3.035-0.01,20.152c1.861-.118,3.7.236,4.92-0.188,3.122-1.083,2.468-6.293,3.879-9.134h0.947a96.271,96.271,0,0,1,.189,10.076c0,3.429.078,6.929-.095,10.17-1.4.479-1.435-1.1-1.608-1.884-0.5-2.331-.986-6.324-3.029-7.251-1.19-.541-3.185-0.165-5.109-0.282-0.22,7.22-.031,14.949-0.094,22.326h10.123c2.32-.9,3.147-4.912,3.784-7.353,0.767-2.935,1.429-5.956,1.989-8.758h1.987V91.68H467.46V90.268h2.934c0.221-14.439.031-29.286,0.094-43.882a15.557,15.557,0,0,0-2.743-.094V45.067C467.737,44.934,467.729,44.8,467.84,44.785Zm-102.564,0h30.94V59.663h-1.987c-0.616-2.432-1.12-4.779-1.893-7.345-0.582-1.939-1.45-5.309-3.406-6.061H378.47l-0.043,20.092c1.917,0.094,3.865.283,4.92-.094,2.193-.785,2.564-4.253,3.123-6.686,0.237-1.035.15-2.927,1.609-2.448,0.377,6.285.189,13.709,0.094,20.246-1.553.525-1.372-1.318-1.608-2.449-0.465-2.205-1.136-5.823-3.027-6.686-1.246-.573-2.824-0.15-5.111-0.282V90.276h9.841c2.452-.8,3.328-4.756,3.975-7.165,0.8-2.99,1.434-6.058,1.986-8.946h1.987V91.68H364.9V90.268h2.838c0.222-14.439.033-29.415,0.1-44.011h-2.649v-1.19C365.174,44.934,365.167,44.8,365.276,44.785Zm-36.332,0h31.034V59.663h-1.987c-0.686-2.4-1.112-4.747-1.892-7.345-0.568-1.883-1.491-5.324-3.406-6.061h-10.5l0,20.092s3.792,0.322,4.92-.094c2.751-1.028,2.656-6.372,3.69-9.134h1.04c0.379,6.285.189,13.709,0.095,20.246-1.5.549-1.458-1.35-1.7-2.449-0.5-2.284-.986-5.988-3.122-6.78-1.2-.448-2.76-0.056-4.92-0.189V90.276h9.839c2.382-.8,3.344-4.764,3.974-7.165,0.8-3.021,1.4-6.089,1.987-8.946h1.987V91.68H328.566V90.268H331.5c0.221-14.439.095-44.011,0.095-44.011H328.85v-1.19C328.842,44.934,328.834,44.8,328.944,44.785Zm-143.448,0h16.948v1.506h-3.312l0.023,20.058,10.51,0-0.031-20.06h-3.406V44.785h16.936v1.506h-2.933l-0.094,43.985,3.027-.008V91.68H206.228V90.268h3.411L209.634,67.95h-10.5l0,22.326,3.316-.008V91.68H185.508V90.268h3.071l-0.044-43.977h-3.027Zm-68.971,0H134.6v1.506h-4.447l0.027,43.985h8.583c2.571-.824,3.241-5.149,3.88-7.824,0.765-3.193,1.892-9.51,1.892-9.51h1.987V91.68H116.533v-1.4h3.045l-0.017-43.984h-3.028Zm-33.049,0h18.107v1.506H97.042V90.276h8.8c2.483-.84,3.154-5.2,3.784-7.824,0.765-3.193,1.892-9.51,1.892-9.51h1.987V91.68H83.512V90.268h2.933L86.54,46.291H83.512Zm541.236,1.13V59.758h-1.8c-1.964-3.445-2.6-9.487-5.109-12.619a6.289,6.289,0,0,0-7.286-1.412c-4.73,2.275-4.635,12.956-4.635,20.057,0,4.34-.064,8.279.188,12.147,0.331,5,.843,11.08,4.353,12.807a7.321,7.321,0,0,0,8.7-2.072c2.437-3.452,2.878-9.518,4.447-13.748h1.987v14.5c-5.416,3.609-14.823,4.45-20.436,1.6-5.322-2.7-8.933-8.476-10.408-15.161-1.7-7.659-.583-15.985,2.27-21.753,2.807-5.658,7.712-10.13,15.422-10.452C617.293,43.451,620.792,44.95,624.712,45.915Zm-302.3.376v12.9h-1.8c-2.1-4.088-2.247-11.229-6.339-13.372-2.476-1.3-6.788-.6-8.894.565a6.682,6.682,0,0,0-2.933,8.1c1.561,4.167,7.278,5.564,11.449,7.346,5.219,2.228,10.62,5.163,11.164,12.146,0.694,8.852-2.83,14.871-8.515,17.422-6.923,3.108-15.462.644-19.869-3.2V74.071h1.986c0.978,3.265,1.569,5.955,2.46,8.757,1.593,5.015,3.36,8.993,10.124,8.475a8.881,8.881,0,0,0,7-4.237,7.935,7.935,0,0,0,.473-6.875,9.583,9.583,0,0,0-2.933-3.3c-3.525-2.4-8.492-3.767-12.2-5.932C299.8,68.75,296.7,65.651,296.3,60.134c-0.379-5.156,1.135-9.173,3.312-11.676a14.536,14.536,0,0,1,10.6-4.8C315.154,43.419,318.931,44.848,322.416,46.291Zm-33.021,0v12.9h-1.8c-2.24-4.363-2.138-11.174-6.34-13.372-3.91-2.048-9.95.236-11.448,3.013a6.985,6.985,0,0,0,2.175,8.851c2.13,1.617,4.921,2.527,7.475,3.579,5.134,2.11,10.314,4.473,12.017,10.075a20.011,20.011,0,0,1,.094,9.7c-1.261,5.587-4.888,9.919-10.786,11.3-7.206,1.688-12.718-.957-17.03-4.049V74.071h1.986c0.773,3.092,1.4,5.642,2.271,8.475,1.088,3.531,2.374,7.055,5.3,8.193,4.471,1.741,9.7-.141,11.733-3.3A8.064,8.064,0,0,0,285.61,80C283.9,76.48,278.862,75,274.446,73.035c-3.84-1.7-8.058-4.12-9.935-8.1-2.2-4.662-1.017-11.45.852-14.691,2.27-3.947,6.631-6.348,11.827-6.591C282.133,43.419,285.9,44.848,289.4,46.291ZM4.514,31.884H44.72v19.3H42.26c-0.709-2.958-1.238-6.56-2.271-9.888-1.254-4.025-2.712-8.177-8.61-7.533C31.159,52.255,31.285,89.8,31.285,89.8h3.879V91.68h-21.1V89.8H17.85s0.031-37.321.094-55.935c-5.779-.934-7.546,3.335-8.8,7.533-0.97,3.241-1.443,6.914-2.176,9.793H4.509ZM61.183,44.22h6.529L80.39,90.276h2.46v1.4H64.967V90.268H69.7L65.251,72.941H54.276L49.038,90.276H53.9v1.4H44.436V90.268H47.18Zm-6.42,27.162,10.111,0.053-4.855-18.3Zm108.7-27.162h6.529q6.315,23.094,12.773,46.048h2.365V91.68H167.247V90.268h4.731l-4.447-17.327H156.555l-5.322,17.334h4.944v1.4h-9.461V90.268h2.743c4.778-15.083,9.217-30.5,13.814-45.766A0.515,0.515,0,0,1,163.462,44.22Zm-6.623,27.307h10.313s-3.209-12.437-4.919-18.55C160.379,59.106,156.839,71.527,156.839,71.527ZM240.2,44.22h6.528q6.34,23.07,12.774,46.048h2.46V91.68H243.979V90.268h4.732c-1.4-5.862-2.949-11.568-4.448-17.327H233.288c-1.971,5.54-5.305,17.334-5.305,17.334h4.927v1.4h-9.462V90.268h2.744C231.08,75.138,235.386,59.428,240.2,44.22Zm-6.529,27.307h10.219c-1.64-6.183-3.185-12.461-4.92-18.55C237.183,59.146,235.322,65.235,233.666,71.527ZM415.139,31.884h19.586c6.748,0,11.771.855,16.083,3.39,8.035,4.716,12.111,14.086,12.111,26.65,0,12.351-4.848,21.329-12.583,26.178-4.235,2.661-9.391,3.579-15.9,3.579h-19.4V89.8h3.784c0.222-18.457.033-37.321,0.1-55.935a32.884,32.884,0,0,0-3.879-.094v-1.6C415.036,32.033,415.028,31.9,415.139,31.884Zm17.22,2.165V89.8c5.266,0.376,9.421-.855,11.543-3.673,3.769-5,3.784-15.059,3.784-24.389,0-9.173.276-19.822-3.5-24.671-2.193-2.809-6.655-3.524-11.733-3.3C432.343,33.783,432.351,33.916,432.359,34.05Zm137.759,9.7A16.257,16.257,0,0,1,584.5,50.906c2.941,4.159,4.62,10.358,4.731,16.761,0.221,12.776-5.455,24.507-17.6,25.143a16.053,16.053,0,0,1-14.382-7.157c-3-4.237-4.763-9.888-4.92-16.573-0.252-10.358,3.233-18.653,9.462-22.789A16.856,16.856,0,0,1,570.118,43.749ZM564.631,55.52a162.707,162.707,0,0,0,.1,25.708c0.386,4.238,1.119,8.287,3.689,9.6a6.628,6.628,0,0,0,4.447.095c2.642-1.068,3.628-5.258,4.068-9.417,0.426-4.041.411-8.663,0.474-13a127.785,127.785,0,0,0-.474-13c-0.433-5.069-1.38-10.947-6.812-10.264C565.774,45.805,565.05,51.2,564.631,55.52Zm117.323-11.3h6.433q6.409,23,12.774,46.048h2.46V91.68H685.644V90.268h4.73c-1.261-5.619-2.909-11.669-4.447-17.327H674.953c-1.861,5.618-3.509,11.449-5.2,17.232l4.919-.028V91.68H653.1c-3.6-7.753-6.726-15.97-10.22-23.824-0.22,7.251-.03,14.91-0.094,22.317l3.785-.028V91.68H629.253V90.268h2.933c0.222-14.471.031-29.349,0.095-43.977h-3.028V44.785c10.881,0.911,26.224-2.55,31.791,3.861,3.557,4.088,2.957,12.249-.852,15.726-1.805,1.647-3.965,2.338-7,2.542,3.492,7.855,7.111,15.584,10.692,23.354h4.068C672.768,75.068,677.074,59.357,681.954,44.22Zm-39.171,2.354V66.727c3.746,0.062,6.946-.205,8.61-2.637,1.427-2.08,1.506-5.509,1.419-8.663-0.086-3.218-.606-6.3-2.27-7.816-1.616-1.475-4.55-1.412-7.665-1.318C642.768,46.307,642.776,46.441,642.783,46.574Zm32.548,24.953H685.55c-1.586-6.238-3.139-12.507-4.92-18.55C678.9,59.192,677.042,65.29,675.331,71.527Z"/>
</svg>
