<svg xmlns="http://www.w3.org/2000/svg" width="349" height="55" viewBox="0 0 349 55">
  <g fill="none" fill-rule="evenodd">
    <path class='no-color-change' fill="#009BFF" d="M54.175,27.826 C54.175,42.739 42.087,54.825 27.175,54.825 C12.262,54.825 0.175,42.739 0.175,27.826 C0.175,12.913 12.262,0.825 27.175,0.825 C42.087,0.825 54.175,12.913 54.175,27.826"/>
    <path fill="#404040" d="M69.534 21.554C70.513 21.554 71.268 21.264 71.804 20.688 72.336 20.111 72.604 19.29 72.604 18.224L72.604 7.444 77.482 7.444 77.482 18.198C77.482 20.556 76.79 22.386 75.41 23.678 74.028 24.974 72.069 25.618 69.534 25.618 66.999 25.618 65.04 24.974 63.659 23.678 62.277 22.386 61.586 20.556 61.586 18.198L61.586 7.444 66.466 7.444 66.466 18.224C66.466 19.29 66.731 20.111 67.266 20.688 67.799 21.264 68.554 21.554 69.534 21.554M87.24 25.618C85.787 25.618 84.397 25.369 83.07 24.872 81.74 24.375 80.585 23.659 79.606 22.733L81.968 19.768C82.667 20.401 83.454 20.895 84.328 21.253 85.201 21.611 86.164 21.791 87.213 21.791 87.912 21.791 88.464 21.667 88.865 21.422 89.268 21.177 89.47 20.812 89.47 20.322 89.47 19.847 89.232 19.467 88.761 19.181 88.288 18.891 87.458 18.59 86.269 18.277L85.168 17.987C83.557 17.569 82.335 16.925 81.495 16.058 80.655 15.192 80.235 14.096 80.235 12.766 80.235 11.632 80.533 10.634 81.128 9.775 81.721 8.92 82.544 8.261 83.593 7.798 84.642 7.334 85.857 7.101 87.24 7.101 88.603 7.101 89.906 7.349 91.147 7.85 92.389 8.348 93.491 9.026 94.453 9.881L92.012 12.95C91.383 12.408 90.644 11.937 89.797 11.534 88.948 11.131 88.104 10.932 87.266 10.932 86.565 10.932 86.029 11.049 85.652 11.286 85.277 11.523 85.089 11.866 85.089 12.322 85.089 12.74 85.285 13.105 85.678 13.41 86.072 13.715 86.75 14.002 87.71 14.261L89.049 14.631C90.972 15.154 92.332 15.87 93.127 16.781 93.924 17.689 94.321 18.748 94.321 19.953 94.321 21.091 94.027 22.081 93.441 22.932 92.856 23.78 92.031 24.439 90.963 24.91 89.897 25.385 88.656 25.618 87.24 25.618M102.478 18.329L106.701 18.329 104.602 12.084 102.478 18.329zM109.06 25.279L107.932 21.946 101.244 21.946 100.116 25.279 95.291 25.279 101.823 7.444 107.488 7.444 114.017 25.279 109.06 25.279 109.06 25.279z"/>
    <polyline fill="#404040" points="125.216 25.279 125.216 11.376 119.918 11.376 119.918 7.444 135.393 7.444 135.393 11.376 130.096 11.376 130.096 25.279 125.216 25.279"/>
    <path fill="#404040" d="M145.596 21.58C146.452 21.58 147.201 21.362 147.839 20.925 148.477 20.488 148.98 19.882 149.347 19.102 149.715 18.322 149.897 17.418 149.897 16.386 149.897 15.354 149.715 14.446 149.347 13.659 148.98 12.871 148.477 12.258 147.839 11.809 147.201 11.365 146.452 11.143 145.596 11.143 144.739 11.143 143.991 11.365 143.354 11.809 142.716 12.258 142.213 12.871 141.846 13.659 141.479 14.446 141.294 15.354 141.294 16.386 141.294 17.418 141.479 18.322 141.846 19.102 142.213 19.882 142.716 20.488 143.354 20.925 143.991 21.362 144.739 21.58 145.596 21.58zM145.596 25.618C143.812 25.618 142.226 25.226 140.836 24.439 139.447 23.652 138.348 22.563 137.544 21.174 136.74 19.783 136.337 18.186 136.337 16.386 136.337 15.022 136.565 13.776 137.019 12.649 137.474 11.523 138.12 10.544 138.961 9.711 139.801 8.882 140.778 8.239 141.899 7.782 143.017 7.331 144.249 7.101 145.596 7.101 146.942 7.101 148.176 7.331 149.295 7.782 150.413 8.239 151.393 8.882 152.233 9.711 153.071 10.544 153.719 11.523 154.173 12.649 154.628 13.776 154.854 15.022 154.854 16.386 154.854 18.186 154.453 19.783 153.649 21.174 152.845 22.563 151.747 23.652 150.357 24.439 148.967 25.226 147.379 25.618 145.596 25.618L145.596 25.618zM162.461 21.422L164.691 21.422C165.966 21.422 166.977 20.959 167.72 20.032 168.464 19.106 168.835 17.881 168.835 16.36 168.835 14.838 168.464 13.617 167.72 12.687 166.977 11.76 165.966 11.297 164.691 11.297L162.461 11.297 162.461 21.422zM157.66 25.279L157.66 7.444 164.691 7.444C166.456 7.444 168.017 7.824 169.373 8.585 170.727 9.346 171.789 10.393 172.56 11.73 173.328 13.068 173.713 14.612 173.713 16.36 173.713 18.111 173.328 19.652 172.56 20.989 171.789 22.326 170.727 23.377 169.373 24.138 168.017 24.899 166.456 25.279 164.691 25.279L157.66 25.279 157.66 25.279zM181.529 18.329L185.751 18.329 183.653 12.084 181.529 18.329zM188.111 25.279L186.983 21.946 180.295 21.946 179.166 25.279 174.342 25.279 180.873 7.444 186.538 7.444 193.068 25.279 188.111 25.279 188.111 25.279z"/>
    <polyline fill="#404040" points="202.511 18.853 202.511 25.279 197.554 25.279 197.554 18.853 191.232 7.444 196.741 7.444 200.046 14.525 203.323 7.444 208.831 7.444 202.511 18.853"/>
    <polyline fill="#404040" points="227.795 25.279 220.793 14.996 220.793 25.279 216.307 25.279 216.307 7.444 220.767 7.444 227.743 17.907 227.743 7.444 232.255 7.444 232.255 25.279 227.795 25.279"/>
    <polyline fill="#404040" points="236.188 25.279 236.188 7.444 248.49 7.444 248.49 11.35 240.962 11.35 240.962 14.367 247.65 14.367 247.65 18.277 240.962 18.277 240.962 21.369 248.91 21.369 248.91 25.279 236.188 25.279"/>
    <polyline fill="#404040" points="255.91 25.279 255.91 11.376 250.613 11.376 250.613 7.444 266.088 7.444 266.088 11.376 260.79 11.376 260.79 25.279 255.91 25.279"/>
    <polyline fill="#404040" points="282.558 25.279 279.675 13.685 276.789 25.279 271.621 25.279 267.19 7.444 271.91 7.444 274.613 19.614 277.601 7.444 281.773 7.444 284.736 19.535 287.517 7.444 292.16 7.444 287.726 25.279 282.558 25.279"/>
    <path fill="#404040" d="M302.544 21.58C303.402 21.58 304.149 21.362 304.787 20.925 305.426 20.488 305.929 19.882 306.296 19.102 306.663 18.322 306.846 17.418 306.846 16.386 306.846 15.354 306.663 14.446 306.296 13.659 305.929 12.871 305.426 12.258 304.787 11.809 304.149 11.365 303.402 11.143 302.544 11.143 301.688 11.143 300.94 11.365 300.303 11.809 299.664 12.258 299.161 12.871 298.794 13.659 298.427 14.446 298.243 15.354 298.243 16.386 298.243 17.418 298.427 18.322 298.794 19.102 299.161 19.882 299.664 20.488 300.303 20.925 300.94 21.362 301.688 21.58 302.544 21.58zM302.544 25.618C300.761 25.618 299.175 25.226 297.785 24.439 296.395 23.652 295.297 22.563 294.493 21.174 293.689 19.783 293.285 18.186 293.285 16.386 293.285 15.022 293.514 13.776 293.967 12.649 294.423 11.523 295.07 10.544 295.91 9.711 296.749 8.882 297.727 8.239 298.847 7.782 299.966 7.331 301.198 7.101 302.544 7.101 303.891 7.101 305.124 7.331 306.243 7.782 307.362 8.239 308.341 8.882 309.181 9.711 310.02 10.544 310.667 11.523 311.121 12.649 311.577 13.776 311.803 15.022 311.803 16.386 311.803 18.186 311.402 19.783 310.598 21.174 309.793 22.563 308.696 23.652 307.306 24.439 305.915 25.226 304.328 25.618 302.544 25.618L302.544 25.618zM319.384 15.652L322.007 15.652C322.759 15.652 323.354 15.455 323.79 15.064 324.228 14.668 324.447 14.13 324.447 13.448 324.447 12.804 324.228 12.28 323.79 11.888 323.354 11.497 322.759 11.297 322.007 11.297L319.384 11.297 319.384 15.652zM319.384 19.35L319.384 25.279 314.662 25.279 314.662 7.444 322.531 7.444C324.631 7.444 326.29 7.982 327.514 9.056 328.739 10.133 329.351 11.594 329.351 13.448 329.351 14.657 329.079 15.697 328.538 16.571 327.996 17.445 327.236 18.126 326.256 18.616L329.903 25.279 324.708 25.279 321.745 19.35 319.384 19.35 319.384 19.35z"/>
    <polyline fill="#404040" points="343.042 25.279 337.377 16.559 337.377 25.279 332.524 25.279 332.524 7.444 337.377 7.444 337.377 15.271 343.251 7.444 348.866 7.444 342.255 15.64 348.734 25.279 343.042 25.279"/>
    <polyline class='no-color-change' fill="#009BFF" points="66.884 48.132 66.884 34.229 61.586 34.229 61.586 30.296 77.061 30.296 77.061 34.229 71.763 34.229 71.763 48.132 66.884 48.132"/>
    <path class='no-color-change' fill="#009BFF" d="M83.776,41.182 L87.998,41.182 L85.9,34.937 L83.776,41.182 Z M90.358,48.132 L89.23,44.798 L82.542,44.798 L81.414,48.132 L76.589,48.132 L83.12,30.296 L88.785,30.296 L95.315,48.132 L90.358,48.132 L90.358,48.132 Z"/>
    <polyline class='no-color-change' fill="#009BFF" points="102.528 44.196 109.951 44.196 109.951 48.132 97.648 48.132 97.648 30.296 102.528 30.296 102.528 44.196"/>
    <polyline class='no-color-change' fill="#009BFF" points="117.399 44.196 124.822 44.196 124.822 48.132 112.519 48.132 112.519 30.296 117.399 30.296 117.399 44.196"/>
    <path class='no-color-change' fill="#009BFF" d="M133.242,41.182 L137.465,41.182 L135.367,34.937 L133.242,41.182 Z M139.825,48.132 L138.697,44.798 L132.009,44.798 L130.881,48.132 L126.055,48.132 L132.587,30.296 L138.252,30.296 L144.782,48.132 L139.825,48.132 L139.825,48.132 Z"/>
    <polyline class='no-color-change' fill="#009BFF" points="147.115 48.132 147.115 30.296 151.995 30.296 151.995 37.167 158.054 37.167 158.054 30.296 162.931 30.296 162.931 48.132 158.054 48.132 158.054 41.156 151.995 41.156 151.995 48.132 147.115 48.132"/>
    <path class='no-color-change' fill="#009BFF" d="M172.452 41.182L176.675 41.182 174.576 34.937 172.452 41.182zM179.035 48.132L177.907 44.798 171.219 44.798 170.09 48.132 165.265 48.132 171.797 30.296 177.462 30.296 183.992 48.132 179.035 48.132 179.035 48.132zM192.623 48.471C191.171 48.471 189.781 48.222 188.453 47.725 187.123 47.228 185.969 46.512 184.99 45.585L187.352 42.621C188.05 43.254 188.837 43.747 189.711 44.106 190.585 44.463 191.547 44.644 192.597 44.644 193.295 44.644 193.847 44.52 194.248 44.275 194.652 44.03 194.853 43.664 194.853 43.175 194.853 42.7 194.616 42.32 194.145 42.033 193.672 41.743 192.841 41.443 191.653 41.129L190.551 40.839C188.941 40.421 187.719 39.778 186.879 38.911 186.038 38.044 185.618 36.948 185.618 35.618 185.618 34.485 185.916 33.487 186.511 32.628 187.105 31.773 187.928 31.114 188.977 30.651 190.026 30.187 191.241 29.953 192.623 29.953 193.987 29.953 195.29 30.202 196.531 30.703 197.772 31.2 198.874 31.878 199.836 32.734L197.396 35.803C196.767 35.261 196.029 34.79 195.181 34.387 194.331 33.984 193.488 33.784 192.65 33.784 191.949 33.784 191.412 33.902 191.035 34.139 190.66 34.376 190.472 34.719 190.472 35.174 190.472 35.592 190.668 35.958 191.062 36.263 191.455 36.568 192.133 36.855 193.094 37.115L194.433 37.484C196.356 38.007 197.716 38.723 198.51 39.634 199.307 40.542 199.704 41.601 199.704 42.806 199.704 43.944 199.41 44.934 198.825 45.785 198.24 46.633 197.414 47.292 196.346 47.763 195.281 48.238 194.039 48.471 192.623 48.471M208.937 48.471C207.485 48.471 206.095 48.222 204.767 47.725 203.438 47.228 202.283 46.512 201.303 45.585L203.665 42.621C204.364 43.254 205.152 43.747 206.025 44.106 206.899 44.463 207.862 44.644 208.91 44.644 209.609 44.644 210.161 44.52 210.562 44.275 210.965 44.03 211.166 43.664 211.166 43.175 211.166 42.7 210.929 42.32 210.458 42.033 209.986 41.743 209.156 41.443 207.967 41.129L206.866 40.839C205.255 40.421 204.033 39.778 203.193 38.911 202.353 38.044 201.933 36.948 201.933 35.618 201.933 34.485 202.23 33.487 202.826 32.628 203.418 31.773 204.242 31.114 205.29 30.651 206.339 30.187 207.554 29.953 208.937 29.953 210.3 29.953 211.604 30.202 212.845 30.703 214.086 31.2 215.188 31.878 216.15 32.734L213.709 35.803C213.08 35.261 212.342 34.79 211.494 34.387 210.645 33.984 209.801 33.784 208.963 33.784 208.263 33.784 207.726 33.902 207.349 34.139 206.974 34.376 206.786 34.719 206.786 35.174 206.786 35.592 206.982 35.958 207.375 36.263 207.769 36.568 208.448 36.855 209.408 37.115L210.746 37.484C212.669 38.007 214.03 38.723 214.825 39.634 215.62 40.542 216.018 41.601 216.018 42.806 216.018 43.944 215.725 44.934 215.139 45.785 214.553 46.633 213.728 47.292 212.66 47.763 211.594 48.238 210.353 48.471 208.937 48.471"/>
    <polyline class='no-color-change' fill="#009BFF" points="218.954 48.132 218.954 30.296 231.256 30.296 231.256 34.202 223.729 34.202 223.729 37.22 230.416 37.22 230.416 41.129 223.729 41.129 223.729 44.222 231.677 44.222 231.677 48.132 218.954 48.132"/>
    <polyline class='no-color-change' fill="#009BFF" points="234.743 48.132 234.743 30.296 247.045 30.296 247.045 34.202 239.517 34.202 239.517 37.22 246.205 37.22 246.205 41.129 239.517 41.129 239.517 44.222 247.465 44.222 247.465 48.132 234.743 48.132"/>
  </g>
</svg>
