<svg id="Layer_1" data-name="Layer 1" xmlns="http://www.w3.org/2000/svg" viewBox="0 0 649.97 256"><defs><style>.cls-1{fill:#231f20;}.cls-2{fill:none;stroke:#231f20;stroke-miterlimit:10;stroke-width:0.41px;}.cls-3{fill:#414042;}</style></defs><title>TCPalm-TCN</title><path class="cls-1" d="M57.37,22.65l-23.3.63c-9.08.32-12.83,1.1-15.18,4.53a18.59,18.59,0,0,0-2.66,5.48c-.31,1.25-.78,1.88-1.72,1.88-1.1,0-1.41-.78-1.41-2.5,0-2.5,3-16.74,3.28-18,.48-2,.94-3,1.89-3,1.24,0,2.81,1.56,6.72,1.87,4.54.47,10.48.78,15.64.78h61.95a74.15,74.15,0,0,0,10.79-.78,37.8,37.8,0,0,1,4.22-.78c1.09,0,1.25.94,1.25,3.28,0,3.28-.47,14.08-.47,18.14-.15,1.56-.47,2.51-1.41,2.51-1.24,0-1.56-.78-1.72-3.13l-.15-1.72c-.31-4.07-4.53-8.44-18.46-8.76l-19.7-.47V86.79c0,14.38,0,26.74.78,33.47.47,4.39,1.4,7.82,6.1,8.45a66.21,66.21,0,0,0,8,.62c1.72,0,2.51.48,2.51,1.26,0,1.09-1.26,1.56-3,1.56-10.32,0-20.17-.47-24.56-.47-3.59,0-13.45.47-19.7.47-2,0-3.13-.47-3.13-1.56,0-.78.63-1.26,2.5-1.26a25.6,25.6,0,0,0,5.63-.62c3.13-.63,4.07-4.06,4.53-8.6.78-6.58.78-18.93.78-33.32Z"/><path class="cls-1" d="M135.89,117.29c-15.33-13.46-19.39-31-19.39-46.15,0-10.63,3.28-29.09,18.3-42.85C146,18,160.91,11.71,184.22,11.71a155.62,155.62,0,0,1,22.68,1.56c5.94.78,10.94,2.19,15.64,2.66,1.72.15,2.35.94,2.35,1.88,0,1.26-.47,3.13-.79,8.6-.31,5.17-.14,13.77-.47,16.89-.15,2.35-.46,3.6-1.88,3.6-1.25,0-1.56-1.26-1.56-3.45a22.34,22.34,0,0,0-6.09-14.39c-5.17-5.47-17.37-9.69-31.76-9.69-13.61,0-22.52,3.44-29.4,9.69-11.42,10.48-14.39,25.34-14.39,40.51,0,37.23,28.31,55.69,49.27,55.69,13.92,0,22.37-1.57,28.62-8.76a26.09,26.09,0,0,0,5.31-10.33c.47-2.51.78-3.13,2-3.13,1.1,0,1.41,1.1,1.41,2.35,0,1.88-1.88,15.48-3.45,20.8-.78,2.66-1.4,3.44-4.07,4.54-6.25,2.5-18.14,3.6-28.15,3.6-21.43,0-39.41-4.69-53.65-17"/><path class="cls-1" d="M244.59,70c0-20.18,0-23.93-.15-28.16-.32-4.53-1.56-5.94-5.94-7.19a25.43,25.43,0,0,0-5.47-.47c-1.41,0-2.35-.47-2.35-1.41s1.1-1.26,3.13-1.25c7.2,0,16,.31,19.87.31,5.63,0,16.58-.31,22.84-.32,17.21,0,23.46,5.63,25.65,7.51A23.09,23.09,0,0,1,309,55c0,18.78-15,32.23-34.56,32.23a34.72,34.72,0,0,1-4.07-.16,1.58,1.58,0,0,1-1.72-1.41c0-1.1,1.56-1.72,4.53-1.72,7.67,0,18.46-8,18.46-21.59,0-4.38-.47-13.14-8.14-19.71a20.67,20.67,0,0,0-13.76-5,21.87,21.87,0,0,0-5.95.63c-.78.31-1.09,1.1-1.09,2.5V93.51c0,12.2,0,22.68.63,28.47.46,3.75,1.24,6.26,5.31,6.89a53.41,53.41,0,0,0,7,.46c1.56,0,2.19.78,2.19,1.41,0,.94-1.1,1.4-2.52,1.4-9.22,0-18.92-.47-22.52-.47-3.13,0-11.88.47-17.36.47-1.72,0-2.66-.47-2.66-1.4,0-.63.47-1.41,2.19-1.41a20.31,20.31,0,0,0,4.85-.46c2.82-.63,3.6-3.14,4.07-7,.63-5.63.63-16.11.63-28.31Z"/><path class="cls-1" d="M352.83,91.32c.63,0,.78-.31.63-.78l-13-33.79c-.15-.47-.31-1.25-.63-1.25-.47,0-.63.78-.78,1.25l-13.3,33.62c-.3.63,0,.94.47.94Zm-29.41,7.35c-.78,0-.93.15-1.25.94l-7.35,17.82a24.08,24.08,0,0,0-2,8.14c0,2.35,1.24,3.75,5.47,3.75h2c1.72,0,2,.63,2,1.41,0,1.1-.77,1.4-2.18,1.4-4.53,0-11-.47-15.33-.47-1.41,0-8.76.47-16,.47-1.72,0-2.51-.31-2.51-1.4a1.36,1.36,0,0,1,1.56-1.41c1.25,0,2.81-.15,4.06-.15,6.26-.95,8.61-5,11.42-11.74l36-83.68c1.56-3.76,2.66-5.32,4.06-5.32,2,0,2.66,1.25,4.07,4.22,3.28,7.35,26.28,61.79,35,82,5.32,12,9.23,13.77,11.74,14.24a33,33,0,0,0,5.15.46c1.25,0,1.88.48,1.88,1.41,0,1.1-.78,1.4-5.95,1.4-4.84,0-14.86,0-26.43-.31-2.51-.16-4.06-.16-4.06-1.1,0-.78.31-1.26,1.72-1.41a2.08,2.08,0,0,0,1.25-3L357.22,99.62a1.3,1.3,0,0,0-1.41-.94Z"/><path class="cls-1" d="M430.94,93.51c0,17.05,0,25.5,3,28,2.34,2,7.67,2.82,18.3,2.82,7.35,0,12.67-.15,16.13-3.76,1.72-1.72,3.11-5.47,3.44-8,.15-1.25.45-2,1.56-2,.93,0,1.26,1.4,1.26,3s-.95,11.43-2,15.34c-.94,3-1.57,3.59-8.76,3.59-9.85,0-17.83-.16-24.71-.47-6.89-.15-12.67-.31-18.3-.31-1.57,0-4.53.16-7.82.16-3.28.15-6.72.31-9.54.31-1.72,0-2.66-.47-2.66-1.41,0-.63.47-1.41,2.19-1.41a20.3,20.3,0,0,0,4.85-.47c2.81-.63,3.6-3.14,4.06-7,.64-5.63.64-16.11.64-28.31V70c0-20.18,0-23.93-.16-28.15-.31-4.53-1.56-5.94-5.94-7.2a18.49,18.49,0,0,0-4.54-.47c-1.57,0-2.35-.47-2.35-1.41s.94-1.25,3-1.25c6.41,0,15.17.31,18.92.31,3.3,0,14.55-.31,19.87-.31,2,0,3,.31,3,1.25s-.78,1.41-2.49,1.41a30.64,30.64,0,0,0-5.32.47c-3.75.63-4.85,2.5-5.16,7.2-.31,4.22-.31,8-.31,28.15Z"/><path class="cls-1" d="M502.42,32c.32-2.19,1.57-3.44,2.66-3.44,1.4,0,2.34.63,4.22,4.22L546.22,107l36.91-75.08c1.1-2.19,2.35-3.28,3.6-3.28,1.1,0,2.65,1.4,3.13,4.22l12.51,82.12c1.26,8.29,2.51,11.89,6.72,13.14a27.32,27.32,0,0,0,7.82,1.24c1.25,0,2.19.48,2.19,1.26,0,1.09-1.56,1.56-3.59,1.56-3.44,0-23-.63-28.47-.93-3.28-.16-4.06-.78-4.06-1.57,0-.63.63-1.1,1.56-1.41s1.09-1.88.63-5.63L577.51,65H577l-29.57,59.45c-3.13,6.25-3.91,7.5-5.47,7.5-1.72,0-3.29-2.66-5.48-6.72-3.29-6.1-14.23-26.44-15.8-30.19-1.09-2.51-9.23-19.24-13.77-28.47h-.47l-6.57,51.93a43.62,43.62,0,0,0-.46,6.25c0,2.5,1.86,3.44,4.22,3.92a23.88,23.88,0,0,0,4.85.62c1.25,0,2.19.63,2.19,1.26,0,1.25-1.24,1.56-3.28,1.56-5.78,0-12-.47-14.54-.47-2.66,0-9.23.47-13.61.47-1.41,0-2.51-.31-2.51-1.56,0-.63.79-1.26,2.19-1.26a25,25,0,0,0,4.23-.31c3.75-.47,5-5.78,5.63-10.17Z"/><line class="cls-2" x1="10.54" y1="153.35" x2="639.43" y2="153.35"/><path class="cls-1" d="M25.47,167.22H22.55c-5.63,0-7.39,2.55-7.44,5.62H12.81c0-4.92.9-5.37.9-11.15,2.92,1.91,4.13,2.62,8.24,2.62H37.32c4.12,0,5.32-.71,8.24-2.62,0,5.78.91,6.23.91,11.15H44.15c-.05-3.07-1.81-5.62-7.43-5.62H33.8v24.51c0,4.43.92,5.94,5.73,6.23v2.71a94.76,94.76,0,0,0-9.9-.6,94.88,94.88,0,0,0-9.9.6V198c4.83-.29,5.73-1.8,5.73-6.23Z"/><path class="cls-1" d="M41.69,198c2-.29,3.22-1.4,3.22-4.42V184.2a3.07,3.07,0,0,0-3.22-3.42v-2.52a17,17,0,0,0,8.65-2.3h2a8,8,0,0,0-.41,2.14v2.16l.1.11C53.75,178,55.86,176,59,176c2.6,0,4,1.6,4,3.71a4.16,4.16,0,0,1-4.07,4.22c-2.46,0-2.17-2.61-4.52-2.61a2.84,2.84,0,0,0-2.16,2v9.85c0,3.52,1.61,4.53,4.51,4.82v2.52c-2.51-.2-5-.41-7.53-.41s-5,.21-7.53.41Z"/><path class="cls-1" d="M86,194.15C83.19,198.77,79.78,201,74.3,201a11.43,11.43,0,0,1-11.76-11.66A13.13,13.13,0,0,1,75.65,176c6.48,0,10,3.51,10,9.94v1.31H69c.3,5.32,3.21,8.75,8.69,8.75a8.47,8.47,0,0,0,6.68-3.11Zm-6.79-9.66c-.2-3.61-1.61-5.82-4.92-5.82-2.72,0-5.22,3.37-5.22,5.82Z"/><path class="cls-1" d="M112.74,197.46a9.29,9.29,0,0,1-6.79,3.51c-2.56,0-3.51-1.31-4.47-3.41a14.79,14.79,0,0,1-9.29,3.62,5,5,0,0,1-5.37-5.38c0-5.07,6.13-8.29,14.87-9.8v-1.75c0-3.37-1.61-4.87-4.17-4.87-2.76,0-4.87,1.5-4.87,3a2.25,2.25,0,0,0,.5,1.41l-1.8,1.32-2.92-3.92c3.47-3.36,6.94-5.23,12.21-5.23,5.58,0,8.09,3.22,8.09,8.48,0,3-.6,6.09-.6,9.1,0,2.51.6,3.22,1.61,3.22a2.53,2.53,0,0,0,2-.9Zm-16.08-.21c2.41,0,5-1.29,5-8.68-3.72.85-7.84,1.66-7.84,5.67,0,2,.81,3,2.81,3"/><path class="cls-1" d="M115.45,192.23a6.62,6.62,0,0,0,6.72,6.34c2.11,0,3.62-1.21,3.62-2.57,0-5.07-12.46-4.67-12.46-12.92,0-3.61,3.42-7.12,9-7.12,3.46,0,5,.9,6,.9a1.17,1.17,0,0,0,1.2-.9h1.61c-.71,2.86-.5,3.66-.91,7.12h-1.71a5.37,5.37,0,0,0-5.63-4.92c-2.46,0-3.62,1.17-3.62,2.37,0,3.87,12.46,4.36,12.46,12.57,0,4.77-4.12,7.88-10,7.88-3.26,0-5-.9-6.12-.9a2.26,2.26,0,0,0-1.61.9h-1.82c1.21-2.41.71-7.73,1.51-8.94Z"/><path class="cls-1" d="M162.52,199.28c-3.41.3-6.43.7-8.34,1.7a5.21,5.21,0,0,1-2.41-3.22,12.52,12.52,0,0,1-8.38,3.22c-5,0-7.59-2.2-7.59-6.82V182.49c0-2.41-.9-3-3-3.11v-2.52h4c1.81,0,3.67-.19,4.72-.89h2c-.2,1.8-.4,4.52-.4,6.42v9.45c0,3.72,2.71,4.73,4.23,4.73,1.9,0,4.32-1.62,4.32-3.42V182.49c0-2.41-.91-3-3-3.11v-2.52h4a9.38,9.38,0,0,0,4.73-.89h2c-.2,1.8-.4,4.52-.4,6.42V194c0,2.11.9,2.62,3.51,2.71Z"/><path class="cls-1" d="M162.22,198c2-.29,3.21-1.4,3.21-4.42V184.2a3.06,3.06,0,0,0-3.21-3.42v-2.52a17,17,0,0,0,8.65-2.3h2a7.84,7.84,0,0,0-.41,2.14v2.16l.11.11c1.7-2.36,3.82-4.41,6.93-4.41,2.62,0,4,1.6,4,3.71a4.15,4.15,0,0,1-4.07,4.22c-2.46,0-2.16-2.61-4.52-2.61a2.84,2.84,0,0,0-2.16,2v9.85c0,3.52,1.61,4.53,4.52,4.82v2.52c-2.51-.2-5-.41-7.54-.41s-5,.21-7.53.41Z"/><path class="cls-1" d="M206.53,194.15c-2.82,4.62-6.23,6.83-11.71,6.83a11.43,11.43,0,0,1-11.76-11.66A13.13,13.13,0,0,1,196.19,176c6.48,0,10,3.51,10,9.94v1.31H189.51c.29,5.32,3.21,8.75,8.69,8.75a8.47,8.47,0,0,0,6.68-3.11Zm-6.78-9.66c-.19-3.61-1.61-5.82-4.92-5.82-2.71,0-5.23,3.37-5.23,5.82Z"/><path class="cls-1" d="M254.21,175.15c0-5.82-3.11-9-10-9-8,0-14.06,5.32-14.06,15.92,0,9.3,5.73,16.23,14.47,16.23a13.14,13.14,0,0,0,12.06-7.34h2.21c-.56,3.51-2.41,6.68-2.41,10.15-1.41-.56-2-1-3.67-1a19.69,19.69,0,0,0-4.87.56,26.46,26.46,0,0,1-5.63.55c-12.16,0-21.09-6.84-21.09-17.9,0-12.25,9.44-20.09,21.64-20.09a28.27,28.27,0,0,1,7.39.76c1.76.25,3.07.95,4.72.95a9.63,9.63,0,0,0,3.22-.55c-1.41,2.57-.91,7.89-1.61,10.8Z"/><path class="cls-1" d="M275.71,176c7.55,0,12.86,5.12,12.86,12,0,7.34-5.23,13-14.57,13-7.53,0-12.86-5.12-12.86-12.06,0-7.33,5.22-13,14.57-13m-.2,22.3c3.21,0,5.43-2.81,5.43-7.44,0-7.33-3.22-12.16-6.73-12.16-3.23,0-5.43,2.82-5.43,7.44,0,7.34,3.21,12.15,6.73,12.15"/><path class="cls-1" d="M315,197.46a9.24,9.24,0,0,1-6.77,3.51c-2.57,0-3.52-1.31-4.48-3.41a14.8,14.8,0,0,1-9.29,3.62,5,5,0,0,1-5.38-5.38c0-5.07,6.13-8.29,14.88-9.8v-1.75c0-3.37-1.61-4.87-4.17-4.87-2.76,0-4.88,1.5-4.88,3a2.25,2.25,0,0,0,.5,1.41l-1.81,1.32-2.91-3.92c3.47-3.36,6.93-5.23,12.21-5.23,5.58,0,8.09,3.22,8.09,8.48,0,3-.6,6.09-.6,9.1,0,2.51.6,3.22,1.6,3.22a2.56,2.56,0,0,0,2-.9ZM299,197.25c2.41,0,5-1.29,5-8.68-3.72.85-7.84,1.66-7.84,5.67,0,2,.8,3,2.81,3"/><path class="cls-1" d="M317.76,192.23a6.64,6.64,0,0,0,6.74,6.34c2.11,0,3.62-1.21,3.62-2.57,0-5.07-12.47-4.67-12.47-12.92,0-3.61,3.43-7.12,9.06-7.12,3.45,0,5,.9,6,.9a1.19,1.19,0,0,0,1.21-.9h1.6c-.7,2.86-.5,3.66-.9,7.12h-1.7a5.38,5.38,0,0,0-5.64-4.92c-2.45,0-3.61,1.17-3.61,2.37,0,3.87,12.46,4.36,12.46,12.57,0,4.77-4.13,7.88-10,7.88-3.27,0-5-.9-6.13-.9a2.25,2.25,0,0,0-1.61.9h-1.81c1.21-2.41.71-7.73,1.51-8.94Z"/><path class="cls-1" d="M345.85,167.41a15.85,15.85,0,0,0-.39,3v6.42h7v2.91h-7v11.77c0,3.92,1,4.83,3,4.83,1.6,0,3-.91,4.33-2.62l1.5,1.51c-2.36,3.41-4.73,5.72-9.15,5.72-4.92,0-7-2.61-7-7.94V179.76h-4.22v-2.91c5.63-.5,7.85-3.91,9.15-9.44Z"/><path class="cls-1" d="M409,166.41c-3.63.2-4.94,2.6-4.94,8.54V187c0,6.33.3,11.46.6,14.17h-2.11c-1.4-1.82-3.05-3.27-6.82-7L375.2,174v13.36c0,9.25,1.5,10.36,6.12,10.65v2.71a44.06,44.06,0,0,0-14.47,0V198c4.63-.39,5.63-3.1,5.63-13.25v-8.35c0-6.43-1.61-9.54-5.63-9.94V163.7a40.87,40.87,0,0,0,6,.6,34.58,34.58,0,0,0,5.48-.6c.29,2.31,3.25,5.07,5,6.68l17.93,17c.1-3.26.1-7.84.1-12.05,0-7.73-1.61-8.63-5.62-8.94V163.7a37.1,37.1,0,0,0,13.26,0Z"/><path class="cls-1" d="M430.94,194.15c-2.81,4.62-6.23,6.83-11.71,6.83a11.43,11.43,0,0,1-11.76-11.66A13.12,13.12,0,0,1,420.59,176c6.49,0,10,3.51,10,9.94v1.31H413.92c.3,5.32,3.2,8.75,8.69,8.75a8.48,8.48,0,0,0,6.68-3.11Zm-6.78-9.66c-.2-3.61-1.61-5.82-4.92-5.82-2.71,0-5.22,3.37-5.22,5.82Z"/><path class="cls-1" d="M471.94,179c-1.91,0-2.71,1.06-4.42,4.78L459.58,201h-2.91l-5.73-14.67L444.71,201h-2.92l-8.24-19.23a3.8,3.8,0,0,0-3.62-2.77v-2.51c1,0,3.21.39,6.62.39s5.69-.35,6.63-.39V179c-1.61,0-2.21.5-2.21,1.61,0,1.8.92,2.41,4.63,12h.1l3.82-9.54c-1-3.62-2-4-3.62-4v-2.51c1,0,3.07.39,6.38.39s5.42-.35,6.38-.39V179c-1.51,0-2.42.6-2.42,1.76,0,1.91.81,2.16,4.42,11.81h.12c3.72-8.75,4.61-9.34,4.61-11.09s-.89-2.47-3-2.47v-2.51a29.05,29.05,0,0,0,9.55,0Z"/><path class="cls-1" d="M473.39,192.23a6.64,6.64,0,0,0,6.73,6.34c2.12,0,3.61-1.21,3.61-2.57,0-5.07-12.46-4.67-12.46-12.92,0-3.61,3.42-7.12,9-7.12,3.46,0,5,.9,6,.9a1.18,1.18,0,0,0,1.21-.9h1.6c-.7,2.86-.49,3.66-.89,7.12h-1.72a5.37,5.37,0,0,0-5.63-4.92c-2.46,0-3.61,1.17-3.61,2.37,0,3.87,12.46,4.36,12.46,12.57,0,4.77-4.12,7.88-9.95,7.88-3.27,0-5-.9-6.12-.9a2.25,2.25,0,0,0-1.61.9h-1.81c1.21-2.41.71-7.73,1.51-8.94Z"/><path class="cls-1" d="M506.4,212.34a71.2,71.2,0,0,0-8-.6,72.34,72.34,0,0,0-7.79.6v-2.51c2.22-.1,3.51-1,3.51-5.83V185.5c0-3.32-.7-4.52-3.51-4.63v-2.5c4.52-.41,7.23-1.41,8.83-2.42h2a9.49,9.49,0,0,0-.2,1.76v1.75h.1A10.27,10.27,0,0,1,509,176c6.27,0,10.54,5.53,10.54,11.71C519.57,195,514.94,201,507,201a14.23,14.23,0,0,1-5.53-1.2v3.92c0,4.52,1.1,5.93,4.92,6.13ZM501.48,196a6.52,6.52,0,0,0,5,2.22c2.77,0,5.77-2.22,5.77-7.53,0-4.83-2.4-10.25-6.87-10.25-2.68,0-3.87,1.8-3.87,4.67Z"/><path class="cls-1" d="M546,197.46a9.24,9.24,0,0,1-6.77,3.51c-2.57,0-3.53-1.31-4.48-3.41a14.8,14.8,0,0,1-9.29,3.62,5,5,0,0,1-5.38-5.38c0-5.07,6.14-8.29,14.88-9.8v-1.75c0-3.37-1.61-4.87-4.16-4.87-2.77,0-4.88,1.5-4.88,3a2.25,2.25,0,0,0,.5,1.41l-1.8,1.32-2.92-3.92c3.47-3.36,6.94-5.23,12.21-5.23,5.58,0,8.09,3.22,8.09,8.48,0,3-.6,6.09-.6,9.1,0,2.51.6,3.22,1.6,3.22a2.53,2.53,0,0,0,2-.9Zm-16.07-.21c2.41,0,5-1.29,5-8.68-3.72.85-7.83,1.66-7.83,5.67,0,2,.79,3,2.81,3"/><path class="cls-1" d="M561,212.34a71.39,71.39,0,0,0-8-.6,72.34,72.34,0,0,0-7.79.6v-2.51c2.22-.1,3.52-1,3.52-5.83V185.5c0-3.32-.7-4.52-3.52-4.63v-2.5c4.52-.41,7.24-1.41,8.83-2.42h2a9.49,9.49,0,0,0-.2,1.76v1.75h.1a10.29,10.29,0,0,1,7.63-3.51c6.29,0,10.55,5.53,10.55,11.71,0,7.38-4.62,13.31-12.56,13.31a14.2,14.2,0,0,1-5.52-1.2v3.92c0,4.52,1.1,5.93,4.92,6.13ZM556,196a6.51,6.51,0,0,0,5,2.22c2.77,0,5.77-2.22,5.77-7.53,0-4.83-2.4-10.25-6.87-10.25-2.66,0-3.87,1.8-3.87,4.67Z"/><path class="cls-1" d="M598.29,194.15c-2.81,4.62-6.23,6.83-11.7,6.83a11.43,11.43,0,0,1-11.76-11.66A13.12,13.12,0,0,1,587.94,176c6.49,0,10,3.51,10,9.94v1.31h-16.7c.31,5.32,3.22,8.75,8.7,8.75a8.48,8.48,0,0,0,6.68-3.11Zm-6.78-9.66c-.2-3.61-1.61-5.82-4.92-5.82-2.72,0-5.23,3.37-5.23,5.82Z"/><path class="cls-1" d="M599.2,198c2-.29,3.22-1.4,3.22-4.42V184.2a3.07,3.07,0,0,0-3.22-3.42v-2.52a17,17,0,0,0,8.64-2.3h2a8,8,0,0,0-.41,2.14v2.16l.1.11c1.72-2.36,3.81-4.41,6.94-4.41,2.6,0,4,1.6,4,3.71a4.16,4.16,0,0,1-4.07,4.22c-2.46,0-2.15-2.61-4.52-2.61a2.83,2.83,0,0,0-2.15,2v9.85c0,3.52,1.6,4.53,4.52,4.82v2.52c-2.53-.2-5-.41-7.55-.41s-5,.21-7.53.41Z"/><path class="cls-1" d="M623.07,192.23a6.63,6.63,0,0,0,6.73,6.34c2.11,0,3.61-1.21,3.61-2.57,0-5.07-12.46-4.67-12.46-12.92,0-3.61,3.41-7.12,9-7.12,3.45,0,5,.9,6,.9a1.18,1.18,0,0,0,1.21-.9h1.6c-.7,2.86-.49,3.66-.9,7.12h-1.71a5.36,5.36,0,0,0-5.62-4.92c-2.46,0-3.62,1.17-3.62,2.37,0,3.87,12.46,4.36,12.46,12.57,0,4.77-4.11,7.88-9.94,7.88-3.27,0-5-.9-6.13-.9a2.24,2.24,0,0,0-1.61.9H620c1.2-2.41.7-7.73,1.5-8.94Z"/><path class="cls-3" d="M140,232h4.51c3.17,0,5.3,1.9,5.3,4.83s-2.17,4.82-5.3,4.82h-2.3v6H140Zm4.29,7.8c2.12,0,3.26-1.19,3.26-3s-1.14-3-3.26-3h-2.08v5.95Z"/><path class="cls-3" d="M156.12,232h2l6.43,15.69h-2.37l-1.61-4.11H153.6L152,247.72h-2.32S155.34,234,156.12,232Zm3.69,9.72-1.5-3.86c-.22-.58-1.19-3-1.21-3.2h0c0,.2-1,2.55-1.21,3.2l-1.52,3.86Z"/><path class="cls-3" d="M166.77,232h4.53c2.93,0,5.21,1.52,5.21,4.65a4.35,4.35,0,0,1-4,4.43l4.8,6.61h-2.59l-4.53-6.39H169v6.39h-2.21Zm4.29,7.49c2.05,0,3.22-1.1,3.22-2.82s-1.16-2.82-3.22-2.82H169v5.63Z"/><path class="cls-3" d="M182.65,233.94h-4.47V232h11.15v1.9h-4.47v13.79h-2.21Z"/><path class="cls-3" d="M195.06,239.88A8.25,8.25,0,1,1,203.3,248,8,8,0,0,1,195.06,239.88Zm14.21,0a6,6,0,1,0-6,6.17A5.84,5.84,0,0,0,209.27,239.88Z"/><path class="cls-3" d="M214.73,232h7.91v1.9h-5.7v5h5.52v1.9h-5.52v6.84h-2.21Z"/><path class="cls-3" d="M232.64,233.94h-4.47V232h11.15v1.9h-4.47v13.79h-2.21Z"/><path class="cls-3" d="M241.64,232h2.21v6.43h8.22V232h2.21v15.69h-2.21v-7.35h-8.22v7.35h-2.21Z"/><path class="cls-3" d="M258.37,232h8.54v1.88h-6.32v4.55h6.14v1.88h-6.14v5.49H267v1.88h-8.67Z"/><path class="cls-3" d="M274.45,242.32V232h2.23v9.61c0,2.73,1.16,4.4,3.78,4.4s3.8-1.67,3.8-4.4V232h2.23v10.28c0,3.44-2.21,5.72-6,5.72S274.45,245.76,274.45,242.32Z"/><path class="cls-3" d="M288.8,244.89l1.5-1.27a4.54,4.54,0,0,0,3.93,2.48c1.72,0,3.06-.94,3.06-2.66s-1.54-2.48-3.46-3.24-4-1.77-4-4.27,1.92-4.2,4.74-4.2a5.26,5.26,0,0,1,4.6,2.37l-1.5,1.27a3.56,3.56,0,0,0-3.1-1.7c-1.52,0-2.52.78-2.52,2.1,0,1.63,1.56,2.17,2.93,2.7,2.21.87,4.49,1.92,4.49,4.8,0,2.73-2,4.76-5.23,4.76A6.08,6.08,0,0,1,288.8,244.89Z"/><path class="cls-3" d="M307.14,232h2l6.43,15.69h-2.37l-1.61-4.11h-6.95L303,247.72h-2.32S306.36,234,307.14,232Zm3.69,9.72-1.5-3.86c-.22-.58-1.19-3-1.21-3.2h0c0,.2-1,2.55-1.21,3.2l-1.52,3.86Z"/><path class="cls-3" d="M324.88,233.94h-4.47V232h11.15v1.9h-4.47v13.79h-2.21Z"/><path class="cls-3" d="M332.39,239.88a8.25,8.25,0,1,1,8.24,8.15A8,8,0,0,1,332.39,239.88Zm14.21,0a6,6,0,1,0-6,6.17A5.84,5.84,0,0,0,346.6,239.88Z"/><path class="cls-3" d="M352.06,232h4.45c5,0,8.31,2.86,8.31,7.85s-3.33,7.84-8.31,7.84h-4.45Zm2.21,13.79h2.06c3.66,0,6.21-1.94,6.21-5.94s-2.55-5.95-6.21-5.95h-2.06Z"/><path class="cls-3" d="M372,232h2l6.43,15.69H378l-1.61-4.11h-6.95l-1.61,4.11h-2.32S371.22,234,372,232Zm3.69,9.72-1.5-3.86c-.22-.58-1.19-3-1.21-3.2h0c0,.2-1,2.55-1.21,3.2l-1.52,3.86Z"/><path class="cls-3" d="M384.82,241.33,379.48,232H382l2.9,5.23A23.16,23.16,0,0,1,386,239.5h0a23.76,23.76,0,0,1,1.12-2.23l2.93-5.23h2.41l-5.34,9.29v6.39h-2.3Z"/><path class="cls-3" d="M399,232h1.7l8.89,10.17c.27.29,1.43,1.74,1.54,2l0,0c0-.22,0-2,0-2.43V232h2.14v15.69h-1.72l-8.89-10.17c-.27-.29-1.43-1.74-1.54-2l0,0c0,.23,0,2,0,2.44v9.67H399Z"/><path class="cls-3" d="M417.31,232h8.53v1.88h-6.32v4.55h6.15v1.88h-6.15v5.49H426v1.88h-8.67Z"/><path class="cls-3" d="M432.77,233.94H428.3V232h11.15v1.9H435v13.79h-2.21Z"/><path class="cls-3" d="M441.29,232h2.35l3.22,9.32c.11.36.87,2.68.89,3h0a31.3,31.3,0,0,1,.94-3l3.35-9.32h1.77l3.35,9.32c.13.36.92,2.68.94,3h0c0-.36.8-2.68.92-3l3.2-9.32h2.26L459,247.72h-1.7l-3.62-9.78a26.16,26.16,0,0,1-.76-2.55h0a26.29,26.29,0,0,1-.78,2.55l-3.6,9.78h-1.7Z"/><path class="cls-3" d="M465.54,239.88a8.25,8.25,0,1,1,8.24,8.15A8,8,0,0,1,465.54,239.88Zm14.21,0a6,6,0,1,0-6,6.17A5.84,5.84,0,0,0,479.75,239.88Z"/><path class="cls-3" d="M485.21,232h4.53c2.93,0,5.21,1.52,5.21,4.65a4.35,4.35,0,0,1-4,4.43l4.8,6.61h-2.59l-4.53-6.39h-1.23v6.39h-2.21Zm4.29,7.49c2.05,0,3.22-1.1,3.22-2.82s-1.16-2.82-3.22-2.82h-2.08v5.63Z"/><path class="cls-3" d="M498.29,232h2.21v7.29L507,232h2.68l-6.72,7.49,7,8.2H507.2l-6.7-7.93v7.93h-2.21Z"/></svg>