<svg id="Layer_1" data-name="Layer 1" xmlns="http://www.w3.org/2000/svg" viewBox="0 0 412.35 89.17" height="89.17" width="412.35">
    <defs>
        <style>
            .cls-1 {
                fill: #231f20;
            }
            .cls-2 {
                fill: #414042;
            }
        </style>
    </defs>
    <title>Indian River</title><path
        class="cls-1"
        d="M400.62,10.06c.47-.11.82.27.75.55-.27.93-2,2.45-2.36,4.54-.54,3.45-.38,7.63-.37,11.78,0-3.32,0,22.09,0,30.47a7.68,7.68,0,0,1,2.7,2.55c.63-.78,2.33-2.34,3.53-2.48.51.12,1.13,1.29.68,1.65-1.62,1.33-3.18,2.81-4.74,4.34-1.3,1.27-2.62,2.56-4,4a1,1,0,0,1-1.35,0A21.63,21.63,0,0,0,391,62.8a23.33,23.33,0,0,0-3.1-1.9c-.23-.13,0-.58.1-.82.35-.58,1-1,.75-.71,0-2.18,0-24.11,0-37.32a7.71,7.71,0,0,0-.26-1.87,12.57,12.57,0,0,0-.9-2.31c-.3-.61-.71-1.13-.6-1.59.11-.27.18-.38.38-.45.63-.31,2.21.83,3.22,1.92.42.48,1,1.55,1,1.55a7.67,7.67,0,0,1,1.33-2.42C395.8,12.51,399.21,10.32,400.62,10.06Z"/><path
        class="cls-1"
        d="M210.15,14.22A4.23,4.23,0,0,0,213,13.8c2.13-.8,4.47-2.2,5.08-1.87.25.14.4,1.12.23,1.24a27.52,27.52,0,0,1-3,1.67,43.41,43.41,0,0,0-4.58,3.23,17.12,17.12,0,0,0-3.15,4.13,13.63,13.63,0,0,1-1.05,1.88h-.22c-1-4.14-12-7-15.91-3.38-1.77,1.62-.83,5.17,1.58,5-.09.88-.51,1.51-1.5,1.5-7.24-3-3.71-12.23,1.28-14.66a13.5,13.5,0,0,1,7.37-1.3A27,27,0,0,1,210.15,14.22Z"/><path
        class="cls-1"
        d="M219.58,14.83a1.15,1.15,0,0,1,.73-.11c.23.08.69,1,.52,1.18a12,12,0,0,0-3,4.88c-.44,1.4-.27,7.18-.32,9.38-.06,3.63,0,14.54,0,16.28,0,3.87.07,8.75-.39,10A15.08,15.08,0,0,1,213,63c-4.62,4.23-16.12,6.28-23.34,4a17.66,17.66,0,0,1-6.38-3.66,12,12,0,0,1-3.22-4.24,5.41,5.41,0,0,1-.14-3.33,5.59,5.59,0,0,1,2-2.55c1.13-.8,3.71-.45,4.39.58a3.34,3.34,0,0,1,.13,2.55c-3.82,0-2.08,3.66-.37,5.4a13.26,13.26,0,0,0,6.53,3.2,16.28,16.28,0,0,0,7.24.07,10.47,10.47,0,0,0,6.12-4.62,11.76,11.76,0,0,0,1.69-5.7c0-1.11,0-1.88,0-3.42s0-9.82,0-17.63a28.35,28.35,0,0,1,.87-7.56c1.45-4.84,3.29-6.32,6.77-8.72A43.68,43.68,0,0,1,219.58,14.83Z"/><path
        class="cls-1"
        d="M54.43,20.36a14.44,14.44,0,0,0,1.68-.71.41.41,0,0,0,.07-.45C55,18.37,53.06,18.06,51,17.38a15.71,15.71,0,0,1-4.13-2.09c-1.6-1.1-1.32-3.94-3.84-4.14-1.16.13-2.82,1.9-5.16,4.58a36,36,0,0,1-6.93,5.81,10.18,10.18,0,0,0-1.34-3.62c-1.36-2.22-5-5.6-6.12-5.93a14.81,14.81,0,0,0-3.18,1.5c-.08,0-.77.4-.85.4-.9.42-1.41.83-2.34,1.3a38.08,38.08,0,0,0-7.39,4.67c-.16.29,0,.4.07.6,1.48.48,3.49-1.64,5.1-1.5a3.56,3.56,0,0,1,2.1.68,10.65,10.65,0,0,1,2,2.79c.85,1.39,2.61,3.6,2,6.06A36.68,36.68,0,0,0,12.13,34v.08c3.12.41,5.55.49,7.2,1.73A6.56,6.56,0,0,1,21.12,39c0,5,0,9.71,0,14.69a24.39,24.39,0,0,0-2.57,1.26c-5.5,2.88-6.92,4.24-9.91,9.31a12.55,12.55,0,0,0-2,4.13,1,1,0,0,0,.45.38,39.86,39.86,0,0,0,4.08-2.85C14,64,19.94,61,20.83,62c.56.39.51,2.73.5,4.43,0,2.68.27,11.41-1.48,14.78a12.86,12.86,0,0,1-2.93,3.75l.15.38A10.55,10.55,0,0,0,26,79.77c.54-.91.84-1.83,1.37-1.89s.5.66.79,1c1.21,1.27,2,1.47,3.87,1.39a.88.88,0,0,0,.75-.48c-.15-1.09-.81-1.07-1-2a27.16,27.16,0,0,1-.35-3.88c-.2-4-.1-7.89-.06-11.64C33.74,62,36.82,64.3,38.09,66c.7.92,1.38,2.65,2.65,2.68.87,0,2.69-3,3.19-3.56,2.63-2.94,5.11-5.67,11.49-6.7l.15-.37a5.34,5.34,0,0,0-1.43-1.27c-.24-.18-.16-1.1-.14-1.65,0-3.47,0-29.72,0-30.89a24.92,24.92,0,0,1,.11-3.5C54.19,20.43,54.32,20.43,54.43,20.36ZM42.16,56.13a19.66,19.66,0,0,0-11-3.47c0-5.83,0-17.55,0-17.55l0-7.89a6.89,6.89,0,0,1,.15-2.61,25.44,25.44,0,0,1,2.63-2.38c.67-.53,1.75-1.75,2.17-1.7.82,0,4.9,3.76,5.67,4.41,2.28,1.91,2.53,2.22,2.53,3.47s0,13.5,0,29.38C44.18,57.82,43.18,56.78,42.16,56.13Z"/><path
        class="cls-1"
        d="M205.26,26.9a.81.81,0,0,1,.83,0,28.79,28.79,0,0,0-1,6.91c-.08,5.53.38,16.42-1,18.31-2,2.63-4.69,3.21-7.54,4.2l-.22-.07c.12-.88.75-1.35,1.35-2.18a6.15,6.15,0,0,0,.75-2.63c.14-1.75,0-7.7-.07-9.42a3.71,3.71,0,0,1-1.54.79c-1.12.33-3,.1-3.87.71s-.51,2.21-1.43,2.51l-.3-.22c-.12-2.9-.16-8.4,3.22-9.38a17.71,17.71,0,0,1,4-.34,6.24,6.24,0,0,0,.38-1.92,9.16,9.16,0,0,1,1.57-4.08C201.52,28.57,204,27.49,205.26,26.9Z"/><path
        class="cls-1"
        d="M275.77,31.4a4.56,4.56,0,0,1,3.56,1.81c1,1,1.18,2.64,1.18,5.25,0,4.53,0,9.39,0,13.11.06,1.82,0,3.6,0,5.3a18.07,18.07,0,0,1,3.37,3.27c1.15-.7,3.38-2.67,4.05-2.75.36,0,.38,0,.57.31,0,.08.19.39,0,.59l-.35.35c-3,3-5.93,5.75-8.8,9a1.74,1.74,0,0,1-1.78-.23c-1-1.88-3.89-4-5.55-5.16-.54-.37-2.15-1.52-2.76-1.29-2.32,1.28-5.76,6.38-6.57,6.67a1.82,1.82,0,0,1-1.6-.31c-1.2-1.74-6.8-5.87-9-6.28v-.3l1.42-1.2V43.66c.07-5.9-.46-6-1.8-6.75-.91,0-1.62,1-2.4.75a.64.64,0,0,1-.45-.37v-.6c1.86-1,3.47-1.8,5.27-2.75,1.56-.81,3.89-2.41,4.81-2.38,3.57.43,4.87,2.52,4.85,7.31V56.92A15.77,15.77,0,0,1,267,60a14.69,14.69,0,0,1,3.45-2.9v-14c0-5-.47-5.42-1.87-6.22-.51-.14-1.36.71-2.36.78-.22,0-.4-.21-.5-.34s0-.39,0-.56,2.71-1.43,5.16-2.88C273.11,32.61,275.08,31.38,275.77,31.4Z"/><path
        class="cls-1"
        d="M79.36,32.45a.75.75,0,0,1,1.09.19c.23.51-1.13,2.9-.19,3.53,1.87,1.24,3.78-.51,5.2-1.58.1-.07.43-.3.65-.07s.17.54.19.61c.14.81-2.83,3.37-3.5,4s-1.06,1.08-1.58,1.6c-3.09,3.08-7.08,3.84-9.83-2-.33,0-.49,0-.65.18,0,1.9.05,3.85.05,5.75,0,4.58-.08,8.7-.08,13a12.28,12.28,0,0,1,3.35,3.85c1.3-.87,2.87-2.69,4.38-3.23.23.15.3.1.48.28a.78.78,0,0,1,.2.62c-.73.8-2.5,2.37-3.6,3.33-1.67,1.5-4,4.15-5.63,5.9a1.66,1.66,0,0,1-1.83-.05,6.9,6.9,0,0,1-1-1c-.41-.45-.95-.93-1.46-1.45-1-1-2.14-2-2.53-2.29a7.65,7.65,0,0,0-2.28-1.31,11.45,11.45,0,0,0-1.72-.69v-.07c.32-.28.72-.55,1-.83a1.79,1.79,0,0,0,.53-.52c0-5.65,0-14.62.08-17,0-2.94-.13-4.37-1.88-5.33-.4-.18-1.56.85-2.48.83-.2-.07-.28-.2-.43-.45s.18-.63.63-.85c3.22-1.67,5.66-3,8.21-4.55s6.07,2,5.89,4.28c.9-.39,3.22-1.44,3.94-1.84A37.39,37.39,0,0,0,79.36,32.45Z"/><path
        class="cls-1"
        d="M246.36,54.91c0-.65,0-6.56,0-12.75a38.14,38.14,0,0,1,.11-3.92c.19-.6.7-.85,1.1-1.26.17-.14,0-1.07-.23-1.12a25.63,25.63,0,0,1-7.09-2.81,23.21,23.21,0,0,1-3.43-2.57c-.54.59-1.72,1.57-2.28,2.11a37,37,0,0,1-5.74,4.77,27.48,27.48,0,0,1-6,2.22c-.67.2-1.91.6-2.93.82-.39.07.77.89,1.27,1.1.18.09.13,1,.13,1.65,0,1.22,0,2.87,0,4,0,2.88,0,5.81,0,8.69,0,1.25.07,2.88-.25,3.38a3.6,3.6,0,0,1-1.62,1c-.23.1,0,.29.11.35,2.06.71,3,1.05,4.43,1.59A24.41,24.41,0,0,1,230,65.58c.93.73,2.2,2,2.71,2.16s1,.17,1.19,0c2.55-2.48,6.23-6.07,9.16-7.05a13.9,13.9,0,0,1,4.35-.37c.45-.07.76-.7.9-1.2A5.66,5.66,0,0,1,246.36,54.91Zm-8.56-5.84c0,3.57,0,6.94,0,11.23a1.08,1.08,0,0,1-.21-.15,49.35,49.35,0,0,0-7.77-4.64c0-.68,0-3.52,0-4.22,0-4.2-.07-11.59,0-11.83,0-.42.74-1.35,1.05-1.35a7.23,7.23,0,0,1,3.47,1.63,7.32,7.32,0,0,1,2.83,3C237.94,44.43,237.82,46.86,237.81,49.07Z"/><path
        class="cls-1"
        d="M104.55,44.39c1.51-1.22,3.26-2.67,5-4,.21-.31.35-1,0-1.15a30.05,30.05,0,0,1-6.16-5.21c-.53-.6-1.25-2.07-1.91-2.27a1.48,1.48,0,0,0-1.24.09A16.62,16.62,0,0,1,95,36c-2.24,1.27-4.63,2.37-6.79,3.33-.77.34-2.29.34-3.47.83-.11.07-.51.22-.48.42a13.14,13.14,0,0,0,1.92.93V60.32l-1.8,1v.24c3.62,1.14,9.19,4,10.94,6.77h1.76c.81-.66,1.52-1.34,2.53-2.28.5-.47,1.32-1.21,2.54-2.33,1.63-1.5,3.14-2.92,5.09-4.47A1.24,1.24,0,0,0,106.09,58c-1.4,1.17-1.81,1.57-3.21,2.74l-1.1,1a19.55,19.55,0,0,0-6.65-5.22c0-.7,0-1.44,0-2.14A65.62,65.62,0,0,1,104.55,44.39Zm-9.14,7c0-3.83,0-8,0-11.8a37.1,37.1,0,0,0,6.68,4.85A46.7,46.7,0,0,0,95.4,51.39Z"/><path
        class="cls-1"
        d="M133.85,40.41c2.39-2.46,4.38-4.33,5.45-7.9.22-.9-.21-3.33-1.9-4-1.87-.68-4.59.29-4.05,2.25a2.16,2.16,0,0,0,2.33,1.13,1.41,1.41,0,0,1,0-1.4.59.59,0,0,1,.85-.21c2.79,1.38-.51,6.51-3.55,6.06-2.83-.42-4.23-3.16-6.23-4.8a1.08,1.08,0,0,0-1.28-.08,36.78,36.78,0,0,1-12.91,7.3c-1,.31-1.83.35-2.17.8-.13.26,1.25.67,1.8,1.1,0,.87,0,2.23,0,6.48,5.36.9,6.54,2,8.43,3.68a87.74,87.74,0,0,0-7.66,8.7,25.63,25.63,0,0,0-4,6.72c-.84,2.58-.63,5.59.95,6.91a3.47,3.47,0,0,0,3.57.61,3.78,3.78,0,0,0,2.28-2.39A2.13,2.13,0,0,0,112,69.7l-.08.22c.69.28,2.06.71,1.37,1.85a.88.88,0,0,1-.77.55c-1.16.42-2.8-1.65-2.7-2.78a6.25,6.25,0,0,1,.75-2.4c2.17-3.8,9.27-1.68,11.53,1.05a45.38,45.38,0,0,1,4.53-2.93A33.13,33.13,0,0,1,138.85,62l.15-.22c-.53-.37-1.2-.93-1.73-1.3,0-1.65.07-2.84,0-11.88a2.78,2.78,0,0,0-1.33-1.87,13.09,13.09,0,0,0-2.77-1.39c-.45-.17-1.17-.42-1.54-.57a2,2,0,0,1-1.12-.85C130.43,43.45,133.06,41.22,133.85,40.41Zm-6,21.11c-3.94-4.36-8.17-3.1-13.51-1.45a124.4,124.4,0,0,1,9.26-10c2.06-.45,4.23,1.79,4.27,2.22C128,54.18,127.88,58.07,127.87,61.52Zm-6-11.81a9.8,9.8,0,0,0-.93-.5c-.06-.81,0-9.68.07-10.88a10.49,10.49,0,0,0,1.47-1c.12.08,3.95,3.79,9.21,3.22A105.89,105.89,0,0,0,121.9,49.72Z"/><path
        class="cls-1"
        d="M386.57,57.51c-.49-.35-2.35,1.39-3,2.24a14.07,14.07,0,0,0-2.47-2.84s.12-18.51-.09-18.8-3-1.71-4.5-2.63c-3.18-1.94-7.1-4.67-10.43-4.58a4.42,4.42,0,0,0-1.58.3c-.64.24-1.37.69-2.22,1.11-2.57,1.28-5.68,3.11-6.45,4.74s-.06,3.45.64,4.58a34.23,34.23,0,0,0,7.08,7.8c-2.46,2.4-5.38,5-7.16,7a7.39,7.39,0,0,0-1.6,2.87,8.59,8.59,0,0,0,.08,5.63c.7,1.78,3.52,2.51,4.08,2.59a12.88,12.88,0,0,0,4.89-.31,12.19,12.19,0,0,0,4.4-2.29c1.31-1,2.55-2,3.73-2.69a16.3,16.3,0,0,1,5.51,5.22c.24.48,1.22.43,1.69,0a86.22,86.22,0,0,0,6.44-6.83,8.19,8.19,0,0,0,1.56-1.79A2,2,0,0,0,386.57,57.51Zm-14.95,3.15c-.93.91-4.05,3.39-5.71,2.81a4.8,4.8,0,0,1-2.18-1.87c-.9-1.73-.54-7.73,0-10.21.22-1.12,1-1.13,1.23-1.11a12.62,12.62,0,0,1,2.61,1.41,29.69,29.69,0,0,0,4.23,2.18C371.82,54.62,371.85,60.44,371.63,60.66Zm.15-8.78a28.13,28.13,0,0,1-4.32-2.14c-3.38-2.07-4.16-2.23-6.38-5.37-.82-1.16-1.6-4.33-.49-5.52,0,0,1.45-1.41,4.62,0,1.45.62,5.58,3.74,6.15,5.4C371.84,45.62,371.87,49.75,371.77,51.88Z"/><path
        class="cls-1"
        d="M324.8,31.92a4.74,4.74,0,0,0-2.06.09c-.34.09-3.45,2.31-3.45,2.31l-3.83,2.53a1.27,1.27,0,0,0-.51.53.53.53,0,0,0,0,.41.72.72,0,0,0,.38.19,5.59,5.59,0,0,0,.77-.3,7.89,7.89,0,0,1,.9-.49.94.94,0,0,1,.51-.08,2.28,2.28,0,0,1,.92.53,2.94,2.94,0,0,1,.5.71,4.8,4.8,0,0,1,.47,1.5V59.23a1.51,1.51,0,0,1-.22.39,10.87,10.87,0,0,1-1.13.73s-.22.13-.22.23.09.19.21.24a38.26,38.26,0,0,1,7.79,6.62,1.84,1.84,0,0,0,1.48,0,56.35,56.35,0,0,1,7.35-7.33c.41-.32.36-.51.36-.51a1,1,0,0,0-.32-.56,1,1,0,0,0-.77-.21,8.72,8.72,0,0,0-2,1.56s-.63-.9-1.34-1.73a20.37,20.37,0,0,0-1.41-1.47V37.83a12.44,12.44,0,0,1,2.7-1.76,6.81,6.81,0,0,1,1.76-.39,2.44,2.44,0,0,1,1.07.28,2.82,2.82,0,0,1,1.07,1,9.19,9.19,0,0,1,.73,1.86c.06.34.3,1.86.32,2.21s0,18.1,0,18.1l-1.07,1a.32.32,0,0,0-.13.22c0,.13.21.17.21.17a46.84,46.84,0,0,1,4.66,3.32,18.09,18.09,0,0,1,3.22,3.59c.13.19,1.24.3,1.45.06s2-2.33,3.94-4.35c2.34-2.38,4.75-4.48,4.86-4.62a.69.69,0,0,0,0-.86c-.28-.39-.56-.34-.73-.24s-1.07.75-1.9,1.42c-.65.52-1.23,1.06-1.23,1.06A15.85,15.85,0,0,0,348.38,58a16.87,16.87,0,0,0-1.69-1.33V37.42c0-1.05-1.11-3-2.48-4.2a6.69,6.69,0,0,0-3.34-1.74,13.89,13.89,0,0,0-4.58.13A15.05,15.05,0,0,0,333.41,33l-4.29,3.34A8.17,8.17,0,0,0,327.24,33,6.45,6.45,0,0,0,324.8,31.92Z"/><path
        class="cls-1"
        d="M163.54,40.37c2.39-2.46,4.38-4.33,5.45-7.9.22-.9-.21-3.34-1.9-4-1.87-.68-4.59.29-4.05,2.25a2.16,2.16,0,0,0,2.33,1.13,1.41,1.41,0,0,1,0-1.4.59.59,0,0,1,.85-.21c2.79,1.38-.51,6.51-3.55,6.06-2.83-.42-4.23-3.17-6.23-4.8a1.08,1.08,0,0,0-1.28-.08,36.83,36.83,0,0,1-12.91,7.3c-1,.31-1.83.34-2.17.8-.13.26,1.25.68,1.8,1.1,0,.87,0,2.23,0,6.48,5.36.9,6.54,2,8.43,3.68a87.53,87.53,0,0,0-7.66,8.7,25.66,25.66,0,0,0-4,6.72c-.84,2.58-.63,5.59,1,6.91a3.47,3.47,0,0,0,3.57.62,3.78,3.78,0,0,0,2.28-2.39,2.13,2.13,0,0,0-3.83-1.73l-.07.22c.69.28,2.06.71,1.37,1.85a.87.87,0,0,1-.77.55c-1.16.42-2.8-1.65-2.7-2.78a6.26,6.26,0,0,1,.75-2.4c2.17-3.8,9.27-1.69,11.53,1.05a45.75,45.75,0,0,1,4.53-2.93,33.16,33.16,0,0,1,12.23-3.3l.15-.22c-.52-.38-1.2-.93-1.73-1.3,0-1.65.07-2.84,0-11.88a2.77,2.77,0,0,0-1.33-1.87,13,13,0,0,0-2.77-1.39c-.45-.17-1.17-.42-1.54-.57a2,2,0,0,1-1.12-.85C160.11,43.41,162.75,41.18,163.54,40.37Zm-6,21.11c-3.94-4.35-8.17-3.1-13.51-1.45a124,124,0,0,1,9.26-10c2.06-.45,4.23,1.79,4.27,2.22C157.73,54.14,157.57,58,157.56,61.48Zm-6-11.8a9.55,9.55,0,0,0-.93-.5c-.06-.81,0-9.69.07-10.88a10.43,10.43,0,0,0,1.48-1c.11.08,3.95,3.79,9.21,3.22A105.74,105.74,0,0,0,151.58,49.67Z"/><path
        class="cls-1"
        d="M309,31.8a.75.75,0,0,1,1.09.19c.23.51-1.13,2.9-.19,3.53,1.87,1.24,3.78-.51,5.2-1.58.1-.07.43-.3.66-.08s.17.54.19.61c.14.81-2.83,3.37-3.5,4s-1.06,1.08-1.58,1.6c-3.09,3.08-7.08,3.84-9.82-2-.33,0-.49,0-.65.17,0,1.9.05,3.85.05,5.75-.05,4.58-.08,8.71-.08,13a12.25,12.25,0,0,1,3.35,3.85c1.3-.87,2.87-2.69,4.37-3.23.23.15.3.1.48.28a.76.76,0,0,1,.2.62c-.73.8-2.49,2.37-3.6,3.33-1.67,1.5-4,4.15-5.63,5.9a1.67,1.67,0,0,1-1.83-.05,6.88,6.88,0,0,1-1-1c-.41-.45-.95-.93-1.46-1.45-1-1-2.14-2-2.53-2.29a7.71,7.71,0,0,0-2.28-1.31,11.55,11.55,0,0,0-1.72-.69v-.08c.32-.28.72-.55,1-.83a1.78,1.78,0,0,0,.53-.52c0-5.65,0-14.61.07-17,0-2.94-.13-4.37-1.87-5.33-.4-.19-1.56.85-2.47.83-.2-.07-.28-.2-.43-.45s.18-.63.63-.85c3.22-1.67,5.66-3,8.21-4.55s6.06,2,5.89,4.28c.91-.39,3.21-1.44,3.94-1.84A37.36,37.36,0,0,0,309,31.8Z"/><path class="cls-1" d="M64.16,24.16H61.93V13.4h2.23Z"/><path class="cls-1" d="M66.24,13.4h2.35l4.29,7.5V13.4H75V24.16H72.73l-4.4-7.64v7.64H66.24Z"/><path
        class="cls-1"
        d="M83.35,13.64A3.54,3.54,0,0,1,85.19,15,4.77,4.77,0,0,1,86,16.74a8.36,8.36,0,0,1,.2,1.78,7.15,7.15,0,0,1-.86,3.63,3.89,3.89,0,0,1-3.61,2H77.05V13.4h4.64A5.68,5.68,0,0,1,83.35,13.64Zm-4.12,1.64v7h2.08a2.24,2.24,0,0,0,2.22-1.57,5.52,5.52,0,0,0,.34-2,5,5,0,0,0-.51-2.52,2.18,2.18,0,0,0-2-.88Z"/><path class="cls-1" d="M89.91,24.16H87.67V13.4h2.23Z"/><path class="cls-1" d="M95.09,13.4h2.54l3.8,10.76H99l-.71-2.21h-4l-.73,2.21H91.25Zm-.15,6.7H97.7l-1.36-4.24Z"/><path class="cls-1" d="M102.77,13.4h2.35l4.29,7.5V13.4h2.08V24.16h-2.23l-4.4-7.64v7.64h-2.09Z"/><path
        class="cls-1"
        d="M124.64,13.68a2.65,2.65,0,0,1,1,.75,3.33,3.33,0,0,1,.54.91,3,3,0,0,1,.2,1.13A3.24,3.24,0,0,1,126,18a2.16,2.16,0,0,1-1.28,1,2,2,0,0,1,1.06.85,3.53,3.53,0,0,1,.31,1.68v.72a5.53,5.53,0,0,0,.06,1,.9.9,0,0,0,.41.61v.27h-2.48c-.07-.24-.12-.43-.15-.58a5.27,5.27,0,0,1-.1-.93v-1a2,2,0,0,0-.35-1.37,1.8,1.8,0,0,0-1.28-.34H120v4.21h-2.2V13.4h5.14A4.7,4.7,0,0,1,124.64,13.68ZM120,15.27v2.89h2.41A2.58,2.58,0,0,0,123.5,18a1.21,1.21,0,0,0,.64-1.21,1.36,1.36,0,0,0-.61-1.31,2.21,2.21,0,0,0-1-.19Z"/><path class="cls-1" d="M130.59,24.16h-2.23V13.4h2.23Z"/><path class="cls-1" d="M139,13.4h2.32l-3.67,10.76h-2.11L131.89,13.4h2.4l2.34,8.17Z"/><path class="cls-1" d="M150.63,15.31h-5.69v2.29h5.23v1.87h-5.23v2.76h6v1.94h-8.15V13.4h7.89Z"/><path
        class="cls-1"
        d="M159.52,13.68a2.64,2.64,0,0,1,1,.75,3.33,3.33,0,0,1,.54.91,3,3,0,0,1,.2,1.13,3.24,3.24,0,0,1-.39,1.51,2.17,2.17,0,0,1-1.28,1,2,2,0,0,1,1.06.85,3.54,3.54,0,0,1,.31,1.68v.72a5.39,5.39,0,0,0,.06,1,.89.89,0,0,0,.41.61v.27H159c-.07-.24-.12-.43-.15-.58a5.27,5.27,0,0,1-.09-.93v-1a2,2,0,0,0-.35-1.37,1.8,1.8,0,0,0-1.28-.34h-2.19v4.21h-2.2V13.4h5.14A4.69,4.69,0,0,1,159.52,13.68Zm-4.63,1.59v2.89h2.41a2.58,2.58,0,0,0,1.08-.17,1.21,1.21,0,0,0,.64-1.21,1.36,1.36,0,0,0-.62-1.31,2.21,2.21,0,0,0-1-.19Z"/><path class="cls-2" d="M266.7,75.62h1.68a1.81,1.81,0,1,1,0,3.6h-.86v2.25h-.83Zm1.6,2.91a1.11,1.11,0,1,0,0-2.22h-.78v2.22Z"/><path class="cls-2" d="M272.71,75.62h.73l2.4,5.85H275l-.6-1.53h-2.59l-.6,1.53h-.87Zm1.38,3.63-.56-1.44c-.08-.22-.44-1.12-.45-1.19h0c0,.07-.36,1-.45,1.19L272,79.25Z"/><path class="cls-2" d="M276.68,75.62h1.69a1.71,1.71,0,0,1,1.94,1.73A1.62,1.62,0,0,1,278.84,79l1.79,2.47h-1L278,79.09h-.46v2.38h-.83Zm1.6,2.79c.77,0,1.2-.41,1.2-1.05s-.43-1.05-1.2-1.05h-.78v2.1Z"/><path class="cls-2" d="M282.61,76.33h-1.67v-.71h4.16v.71h-1.67v5.14h-.83Z"/><path class="cls-2" d="M287.24,78.55a3.08,3.08,0,1,1,3.08,3A3,3,0,0,1,287.24,78.55Zm5.3,0a2.23,2.23,0,1,0-2.23,2.3A2.18,2.18,0,0,0,292.54,78.55Z"/><path class="cls-2" d="M294.58,75.62h3v.71h-2.13v1.88h2.06v.71h-2.06v2.55h-.83Z"/><path class="cls-2" d="M301.26,76.33H299.6v-.71h4.16v.71h-1.67v5.14h-.83Z"/><path class="cls-2" d="M304.62,75.62h.83V78h3.07v-2.4h.83v5.85h-.83V78.73h-3.07v2.74h-.83Z"/><path class="cls-2" d="M310.86,75.62H314v.7h-2.36V78H314v.7h-2.29v2.05h2.41v.7h-3.23Z"/><path class="cls-2" d="M316.86,79.46V75.62h.83v3.59c0,1,.43,1.64,1.41,1.64s1.42-.62,1.42-1.64V75.62h.83v3.84a2.25,2.25,0,0,1-4.49,0Z"/><path
        class="cls-2"
        d="M322.22,80.42l.56-.48a1.7,1.7,0,0,0,1.47.92,1,1,0,0,0,1.14-1c0-.69-.58-.92-1.29-1.21s-1.48-.66-1.48-1.59a1.6,1.6,0,0,1,1.77-1.57,2,2,0,0,1,1.72.88l-.56.48a1.33,1.33,0,0,0-1.16-.63c-.57,0-.94.29-.94.78s.58.81,1.09,1c.83.33,1.68.72,1.68,1.79a1.78,1.78,0,0,1-2,1.78A2.27,2.27,0,0,1,322.22,80.42Z"/><path class="cls-2" d="M329.06,75.62h.73l2.4,5.85h-.88l-.6-1.53h-2.59l-.6,1.53h-.87Zm1.38,3.63-.56-1.44c-.08-.22-.44-1.12-.45-1.19h0c0,.07-.36,1-.45,1.19l-.57,1.44Z"/><path class="cls-2" d="M335.68,76.33H334v-.71h4.16v.71h-1.67v5.14h-.83Z"/><path class="cls-2" d="M338.48,78.55a3.08,3.08,0,1,1,3.08,3A3,3,0,0,1,338.48,78.55Zm5.3,0a2.23,2.23,0,1,0-2.23,2.3A2.18,2.18,0,0,0,343.79,78.55Z"/><path class="cls-2" d="M345.82,75.62h1.66a2.93,2.93,0,1,1,0,5.85h-1.66Zm.83,5.14h.77a2.22,2.22,0,1,0,0-4.43h-.77Z"/><path class="cls-2" d="M353.27,75.62H354l2.4,5.85h-.88l-.6-1.53h-2.59l-.6,1.53h-.87Zm1.38,3.63-.56-1.44c-.08-.22-.44-1.12-.45-1.19h0c0,.07-.36,1-.45,1.19l-.57,1.44Z"/><path class="cls-2" d="M358,79.09l-2-3.47H357l1.08,2a8.64,8.64,0,0,1,.42.83h0a8.87,8.87,0,0,1,.42-.83l1.09-2h.9l-2,3.47v2.38H358Z"/><path class="cls-2" d="M363.32,75.62H364l3.32,3.79c.1.11.53.65.58.73h0c0-.08,0-.76,0-.91V75.62h.8v5.85H368l-3.32-3.79c-.1-.11-.53-.65-.57-.73h0c0,.08,0,.76,0,.91v3.61h-.8Z"/><path class="cls-2" d="M370.17,75.62h3.18v.7H371V78h2.29v.7H371v2.05h2.41v.7h-3.23Z"/><path class="cls-2" d="M375.94,76.33h-1.67v-.71h4.16v.71h-1.67v5.14h-.83Z"/><path
        class="cls-2"
        d="M379.12,75.62H380l1.2,3.48c0,.13.33,1,.33,1.13h0a11.68,11.68,0,0,1,.35-1.13l1.25-3.48h.66l1.25,3.48c.05.13.34,1,.35,1.13h0c0-.13.3-1,.34-1.13L387,75.62h.84l-2.06,5.85h-.63l-1.35-3.65a9.76,9.76,0,0,1-.28-1h0a9.81,9.81,0,0,1-.29,1l-1.34,3.65h-.63Z"/><path class="cls-2" d="M388.17,78.55a3.08,3.08,0,1,1,3.08,3A3,3,0,0,1,388.17,78.55Zm5.3,0a2.23,2.23,0,1,0-2.23,2.3A2.18,2.18,0,0,0,393.47,78.55Z"/><path class="cls-2" d="M395.51,75.62h1.69a1.71,1.71,0,0,1,1.94,1.73A1.62,1.62,0,0,1,397.66,79l1.79,2.47h-1l-1.69-2.38h-.46v2.38h-.83Zm1.6,2.79c.77,0,1.2-.41,1.2-1.05s-.43-1.05-1.2-1.05h-.78v2.1Z"/><path class="cls-2" d="M400.39,75.62h.83v2.72l2.42-2.72h1l-2.51,2.79,2.63,3.06h-1l-2.5-3v3h-.83Z"/></svg>
