<svg id="Layer_1" data-name="Layer 1" xmlns="http://www.w3.org/2000/svg" viewBox="0 0 424.86 58.09" height="58.09" width="424.86">
    <defs>
        <style>
            .cls-1 {
                fill: #231f20;
            }
            .cls-2 {
                fill: #414042;
            }
        </style>
    </defs>
    <title>St Lucie</title><path
        class="cls-1"
        d="M20.17,7.15h1.39V16H20.13c-.67-4.11-3.85-8.12-7.75-8.12-2.46,0-5.91,1.6-5.91,4.91,0,3,1.88,3.76,4.08,4.31a48.45,48.45,0,0,1,8.11,2.56c2.69,1.3,4.88,4,4.88,9.78S20.35,41.39,13.05,41.39A9.1,9.1,0,0,1,6.87,39l-2.28,1.9H3V31.22H4.59c1.21,4.61,4.17,8.67,8.69,8.67,5,0,7.12-3.56,7.12-6.72,0-4.31-4.34-4.66-8.64-5.92S3.06,24,3.06,16.43c0-5.72,4.3-10,9.4-10a11,11,0,0,1,6,2.21Z"/><path class="cls-1" d="M28.05,15.22H30.7a28.51,28.51,0,0,0,3.54-.5v6.47h3.4v1.4h-3.4V36.18c0,1-.22,2.56,1.08,2.56,1.75,0,2.06-1.55,2.33-3.16l1.3.3c-.76,4.06-3.18,5.51-6.72,5.51-4.17,0-4.17-2-4.17-4.51V22.59H25.32v-1.4h2.73Z"/><path class="cls-1" d="M49,37.28a3.93,3.93,0,0,1-3.72,4.11,4.14,4.14,0,0,1,0-8.22A4,4,0,0,1,49,37.28Z"/><path class="cls-1" d="M57.74,40.64v-1.5h3V8.66h-3V7.15h14.6v1.5h-4V39.14h5c5.06,0,6.94-4.71,8.33-9.48h1.25l-.45,11Z"/><path
        class="cls-1"
        d="M98.45,36.83h-.09c-1.07,3.21-3.85,4.56-6.85,4.56-5.51,0-5.42-2.81-5.42-7.77V22.19H83v-1.4h3.09c2.06,0,4.12-.2,6.18-.2v14c0,2.76-.22,4.76,1.79,4.76,2.51,0,4.39-3.91,4.39-5.47V22.19H95.36v-1.4h3.09c2.06,0,4.12-.2,6.18-.2V39.24h3v1.4h-3c-2.06,0-4.12.5-6.18.5Z"/><path
        class="cls-1"
        d="M126.85,34.93c-1.21,3.86-4.21,6.47-7.88,6.47a10.46,10.46,0,0,1,.13-20.91c4.93,0,7.08,3.51,7.08,5.46A3.16,3.16,0,0,1,123,29.41a3.19,3.19,0,0,1-3-3.46,3.13,3.13,0,0,1,.76-2,1.43,1.43,0,0,0,.58-1.1c0-1-1.66-1.1-2.37-1.1-2,0-3.31.6-3.31,5.36v6.47c0,5.16.58,6.47,3.45,6.47,3.49,0,5.33-2.26,6.67-5.76Z"/><path class="cls-1" d="M131.24,22.19h-3.09v-1.4h3.09c2.06,0,4.12-.2,6.18-.2V39.24h2.73v1.4H128.33v-1.4h2.91Zm6.14-9.58a3.51,3.51,0,0,1-3.18,3.61,3.6,3.6,0,0,1,0-7.17A3.5,3.5,0,0,1,137.37,12.62Z"/><path
        class="cls-1"
        d="M148.08,30.11v6.47c0,2.61,1.3,3.51,3.63,3.51,3.54,0,6.31-2,7.34-5.86l1,.4a8.35,8.35,0,0,1-8.69,6.77c-5.55,0-10.57-3.51-10.57-10.33A10.33,10.33,0,0,1,151.3,20.49,8.64,8.64,0,0,1,160,29.16c0,1.2-1.39,1-2.1,1Zm5.87-1.3V23.9c0-1.3-1-2.11-3.13-2.11-1.93,0-2.73,1-2.73,2.31v4.71Z"/><path
        class="cls-1"
        d="M196.58,41.39h-1L176.38,11.56V37.28a1.65,1.65,0,0,0,1.75,1.85h2.55v1.5h-9.85v-1.5H173c1.52-.1,1.61-1.15,1.61-2.61V11.76c0-2.46.4-3.11-2.28-3.11h-1.48V7.15h11.82L195.23,27V10.11c0-1-1.84-1.45-3-1.45H191V7.15h9.45v1.5h-1.88c-1.3,0-2,.45-2,1.45Z"/><path
        class="cls-1"
        d="M207.73,30.11v6.47c0,2.61,1.3,3.51,3.63,3.51,3.54,0,6.32-2,7.35-5.86l1,.4A8.35,8.35,0,0,1,211,41.39c-5.55,0-10.57-3.51-10.57-10.33A10.33,10.33,0,0,1,211,20.49a8.64,8.64,0,0,1,8.69,8.67c0,1.2-1.39,1-2.1,1Zm5.87-1.3V23.9c0-1.3-1-2.11-3.13-2.11-1.93,0-2.73,1-2.73,2.31v4.71Z"/><path class="cls-1" d="M220.54,20.79h10.88v1.4h-2.24l3.31,10.33h.09L237,20.79h1.3l4.52,11.83h.09l2.82-9.23c.22-.8-.49-1.2-1.07-1.2H243v-1.4h6.76v1.4h-1.66c-.81,0-.85.9-1,1.25l-5.78,17.95h-.94l-5.1-12.48h0l-4.61,12.48h-1l-6.76-19.2h-2.28Z"/><path
        class="cls-1"
        d="M252.6,40.64h-1.12V33.57h1.16c.58,3.56,3.27,6.52,6.54,6.52,1.57,0,4.21-1.15,4.21-3.41,0-2.56-2.1-2.36-3.85-2.56-3.94-.45-8.24-1.3-8.24-6.92,0-4.26,2.82-6.72,6.4-6.72,1.7,0,2.55.55,4.12,1,.36.1,1-.55,1.3-1h.9v5.77h-1.25c-.94-3.06-2.11-4.46-5.06-4.46-1.39,0-4.12.55-4.12,2.71,0,1.1,1.7,2,3.67,2.11,5,.4,8.51,1.75,8.51,6.92,0,4-2.06,7.87-6.63,7.87a9.29,9.29,0,0,1-5.28-1.8Z"/><path class="cls-1" d="M275.53,7.15h27.23L303.21,18H302c-1.48-6.07-3-9.88-9.09-9.38V39.14h3.67v1.5H281.71v-1.5h3.67V8.66c-6.14-.5-7.61,3.31-9.09,9.38h-1.21Z"/><path
        class="cls-1"
        d="M309.44,25.85h.09c.81-2.86,2.55-5.36,5.51-5.36,2.24,0,3.72,1.6,3.72,4.16a3.29,3.29,0,0,1-3.18,3.51,2.8,2.8,0,0,1-2.82-3,5.52,5.52,0,0,1,.54-2.26c.13-.35-1-.9-2.73,2.66a8.93,8.93,0,0,0-1.12,4.66v9h3.36v1.4H301v-1.4h2.28v-17h-2.37v-1.4h2.37c2.06,0,4.12-.2,6.18-.2Z"/><path class="cls-1" d="M321.71,22.19h-3.09v-1.4h3.09c2.06,0,4.12-.2,6.18-.2V39.24h2.73v1.4H318.79v-1.4h2.91Zm6.14-9.58a3.51,3.51,0,0,1-3.18,3.61,3.6,3.6,0,0,1,0-7.17A3.5,3.5,0,0,1,327.84,12.62Z"/><path
        class="cls-1"
        d="M333.71,8.3H331.2V6.9h2.51c2.06,0,4.12-.35,6.18-.5V24.1c1.3-2.26,3-3.61,5.42-3.61,4.66,0,8.42,5,8.42,10.08s-3.4,10.83-8.42,10.83c-2.6,0-4.21-1.55-5.33-4h-.09v3.21h-8.78v-1.4h2.6ZM346.7,24a2.2,2.2,0,0,0-2.24-2.26c-2.33,0-4.57,3.41-4.57,5v7.77c0,2.21,2.24,5.51,4.61,5.51,2.1,0,2.19-1.85,2.19-3.81Z"/><path
        class="cls-1"
        d="M369.09,36.83H369c-1.08,3.21-3.85,4.56-6.85,4.56-5.51,0-5.42-2.81-5.42-7.77V22.19h-3.09v-1.4h3.09c2.06,0,4.12-.2,6.18-.2v14c0,2.76-.22,4.76,1.79,4.76,2.51,0,4.39-3.91,4.39-5.47V22.19H366v-1.4h3.09c2.06,0,4.12-.2,6.18-.2V39.24h3v1.4h-3c-2.06,0-4.12.5-6.18.5Z"/><path class="cls-1" d="M386.73,25.2c1.93-3.71,4.3-4.71,7.34-4.71,2.73,0,5.06.9,5.06,4.81V39.24h2.78v1.4h-11.2v-1.4h2.42V26.45c0-3.21-.67-3.91-1.93-3.91-2.87,0-4.48,4.11-4.48,6.87v9.83h2.37v1.4H377.87v-1.4h2.87v-17h-2.87v-1.4h2.87c2,0,4-.2,6-.2Z"/><path
        class="cls-1"
        d="M409.89,30.11v6.47c0,2.61,1.3,3.51,3.63,3.51,3.54,0,6.31-2,7.34-5.86l1,.4a8.35,8.35,0,0,1-8.69,6.77c-5.55,0-10.57-3.51-10.57-10.33a10.33,10.33,0,0,1,10.48-10.58,8.64,8.64,0,0,1,8.69,8.67c0,1.2-1.39,1-2.11,1Zm5.87-1.3V23.9c0-1.3-1-2.11-3.13-2.11-1.93,0-2.73,1-2.73,2.31v4.71Z"/><path class="cls-2" d="M281.76,47.67h1.7a1.83,1.83,0,1,1,0,3.64h-.87v2.28h-.83Zm1.62,2.94a1.13,1.13,0,1,0,0-2.24h-.78v2.24Z"/><path class="cls-2" d="M287.84,47.67h.74L291,53.59h-.89L289.51,52h-2.62l-.61,1.55h-.88Zm1.39,3.67-.56-1.46c-.08-.22-.45-1.13-.46-1.21h0c0,.08-.36,1-.46,1.21l-.57,1.46Z"/><path class="cls-2" d="M291.86,47.67h1.71a1.73,1.73,0,0,1,2,1.75,1.64,1.64,0,0,1-1.5,1.67l1.81,2.49h-1l-1.71-2.41h-.46v2.41h-.83Zm1.62,2.83c.78,0,1.21-.41,1.21-1.06s-.44-1.06-1.21-1.06h-.78v2.13Z"/><path class="cls-2" d="M297.85,48.38h-1.69v-.72h4.21v.72h-1.69v5.2h-.83Z"/><path class="cls-2" d="M302.53,50.63a3.11,3.11,0,1,1,3.11,3.08A3,3,0,0,1,302.53,50.63Zm5.36,0A2.26,2.26,0,1,0,305.64,53,2.2,2.2,0,0,0,307.89,50.63Z"/><path class="cls-2" d="M310,47.67h3v.72h-2.15v1.91h2.08V51h-2.08v2.58H310Z"/><path class="cls-2" d="M316.71,48.38H315v-.72h4.21v.72h-1.69v5.2h-.83Z"/><path class="cls-2" d="M320.11,47.67h.83V50.1H324V47.67h.84v5.92H324V50.81h-3.1v2.77h-.83Z"/><path class="cls-2" d="M326.42,47.67h3.22v.71h-2.39V50.1h2.32v.71h-2.32v2.07h2.44v.71h-3.27Z"/><path class="cls-2" d="M332.49,51.55V47.67h.84v3.63c0,1,.44,1.66,1.42,1.66s1.43-.63,1.43-1.66V47.67H337v3.88a2.27,2.27,0,0,1-4.54,0Z"/><path
        class="cls-2"
        d="M337.9,52.52l.57-.48A1.71,1.71,0,0,0,340,53a1,1,0,0,0,1.15-1c0-.7-.58-.94-1.31-1.22s-1.49-.67-1.49-1.61a1.61,1.61,0,0,1,1.79-1.58,2,2,0,0,1,1.74.89l-.57.48a1.34,1.34,0,0,0-1.17-.64c-.57,0-1,.3-1,.79s.59.82,1.1,1c.83.33,1.69.73,1.69,1.81a1.8,1.8,0,0,1-2,1.8A2.3,2.3,0,0,1,337.9,52.52Z"/><path class="cls-2" d="M344.82,47.67h.74L348,53.59h-.89L346.49,52h-2.62l-.61,1.55h-.88Zm1.39,3.67-.56-1.46c-.08-.22-.45-1.13-.46-1.21h0c0,.08-.36,1-.46,1.21l-.57,1.46Z"/><path class="cls-2" d="M351.52,48.38h-1.69v-.72H354v.72h-1.69v5.2h-.83Z"/><path class="cls-2" d="M354.35,50.63a3.11,3.11,0,1,1,3.11,3.08A3,3,0,0,1,354.35,50.63Zm5.36,0A2.26,2.26,0,1,0,357.45,53,2.2,2.2,0,0,0,359.71,50.63Z"/><path class="cls-2" d="M361.77,47.67h1.68a3,3,0,1,1,0,5.92h-1.68Zm.83,5.2h.78a2.24,2.24,0,1,0,0-4.48h-.78Z"/><path class="cls-2" d="M369.3,47.67H370l2.43,5.92h-.89L371,52h-2.62l-.61,1.55h-.88Zm1.39,3.67-.56-1.46c-.08-.22-.45-1.13-.46-1.21h0c0,.08-.36,1-.46,1.21l-.57,1.46Z"/><path class="cls-2" d="M374.14,51.18l-2-3.51h.94l1.1,2a8.74,8.74,0,0,1,.42.84h0a9,9,0,0,1,.42-.84l1.1-2H377l-2,3.51v2.41h-.87Z"/><path class="cls-2" d="M379.47,47.67h.64l3.36,3.84c.1.11.54.66.58.74h0c0-.08,0-.77,0-.92V47.67h.81v5.92h-.65l-3.36-3.84c-.1-.11-.54-.66-.58-.74h0c0,.09,0,.77,0,.92v3.65h-.81Z"/><path class="cls-2" d="M386.4,47.67h3.22v.71h-2.39V50.1h2.32v.71h-2.32v2.07h2.44v.71H386.4Z"/><path class="cls-2" d="M392.23,48.38h-1.69v-.72h4.21v.72h-1.69v5.2h-.83Z"/><path
        class="cls-2"
        d="M395.44,47.67h.89l1.21,3.52c0,.13.33,1,.34,1.15h0a11.81,11.81,0,0,1,.35-1.15l1.26-3.52h.67l1.26,3.52c.05.13.35,1,.35,1.15h0c0-.13.3-1,.35-1.15l1.21-3.52h.85l-2.08,5.92h-.64l-1.37-3.69a9.87,9.87,0,0,1-.29-1h0a9.92,9.92,0,0,1-.29,1l-1.36,3.69h-.64Z"/><path class="cls-2" d="M404.59,50.63a3.11,3.11,0,1,1,3.11,3.08A3,3,0,0,1,404.59,50.63Zm5.36,0A2.26,2.26,0,1,0,407.69,53,2.2,2.2,0,0,0,410,50.63Z"/><path class="cls-2" d="M412,47.67h1.71a1.73,1.73,0,0,1,2,1.75,1.64,1.64,0,0,1-1.5,1.67L416,53.59h-1l-1.71-2.41h-.46v2.41H412Zm1.62,2.83c.78,0,1.21-.41,1.21-1.06s-.44-1.06-1.21-1.06h-.78v2.13Z"/><path class="cls-2" d="M416.95,47.67h.83v2.75l2.44-2.75h1l-2.54,2.83,2.66,3.09h-1l-2.53-3v3h-.83Z"/></svg>
