<svg id="Layer_1" data-name="Layer 1" xmlns="http://www.w3.org/2000/svg" viewBox="0 0 426.52 72.45" height="72.45" width="426.52">
    <defs>
        <style>
            .cls-1 {
                fill: #231f20;
            }
            .cls-2 {
                fill: #414042;
            }
        </style>
    </defs>
    <title>Stuart</title><path class="cls-1" d="M6.73,6h37l.61,14.22H42.69c-2-7.93-4-12.91-12.35-12.25V47.79h5v2H15.12v-2h5V8C11.78,7.3,9.77,12.28,7.76,20.21H6.12Z"/><path
        class="cls-1"
        d="M79,47.92v1.83H63.68V47.92h3.17V28.53a2.45,2.45,0,0,0-2.68-2.23C61.43,26.3,58,30.69,58,36V47.92h3.47v1.83H46.22V47.92h3.35V7.49H45.79V5.66h3.77c2.8,0,5.6-.46,8.4-.66V30.3h.12c2.19-4.32,5.11-6.88,10-6.88,5.23,0,7.18,2.62,7.18,7.93V47.92Z"/><path
        class="cls-1"
        d="M89.6,36v8.45c0,3.41,1.76,4.59,4.93,4.59,4.81,0,7.68-2.56,9.08-7.67l1.59.06c-1.58,6.09-5.43,9.31-11.09,9.31-7.55,0-14.36-4.59-14.36-13.5S87,23.5,94,23.42C105.34,23.27,105.41,36,105.41,36H89.6Zm7.07-1.7V28.77c0-1.7-.44-3.65-3.36-3.65-2.62,0-3.71,1.24-3.71,3v6.16Z"/><path
        class="cls-1"
        d="M147.82,6h1.89v11.6h-1.95C146.85,12.21,142.53,7,137.23,7c-3.35,0-8,2.1-8,6.42,0,3.87,2.56,4.91,5.54,5.63a67.79,67.79,0,0,1,11,3.34c3.65,1.7,6.63,5.18,6.63,12.78s-4.32,15.59-14.24,15.59a12.65,12.65,0,0,1-8.4-3.08l-3.1,2.49h-2.19V37.44h2.19c1.64,6,5.66,11.33,11.8,11.33,6.76,0,9.68-4.65,9.68-8.78,0-5.63-5.9-6.09-11.74-7.73S124.57,28,124.57,18.11A12.88,12.88,0,0,1,137.35,5a15.3,15.3,0,0,1,8.22,2.88Z"/><path class="cls-1" d="M166.74,15v9.35h4.62v1.83h-4.62V43.92c0,1.31-.3,3.34,1.46,3.34,2.37,0,2.8-2,3.16-4.13l1.77.39c-1,5.31-4.32,7.21-9.13,7.21-5.66,0-5.66-2.62-5.66-5.9V26.17h-3.71V24.33h3.71v-7.8Z"/><path
        class="cls-1"
        d="M195,44.78h-.12c-1.46,4.19-5.23,6-9.31,6-7.49,0-7.36-3.67-7.36-10.16V25.64H174V23.81h4.2c2.8,0,5.6-.26,8.4-.26V41.83c0,3.6-.3,6.22,2.44,6.22,3.41,0,6-5.11,6-7.14V25.64h-4.2V23.81H195c2.8,0,5.6-.26,8.4-.26V47.92h4.08v1.83h-4.08c-2.8,0-5.6.66-8.4.66Z"/><path
        class="cls-1"
        d="M224.18,30.56c0-3.41.24-5.44-4.26-5.44-.67,0-3.22.39-3.22,1.57a3.75,3.75,0,0,0,.61,1.38,3.62,3.62,0,0,1,.61,1.64c0,2.75-1.28,4.59-3.89,4.59a3.77,3.77,0,0,1-3.9-3.93c0-5.18,6.57-6.95,10.35-6.95,7.85,0,11.2,2.42,11.2,4.32V43.66c0,1.38.06,3,1.76,3a2.25,2.25,0,0,0,1.52-.92L236,47c-1.64,2.75-3.41,3.74-6.33,3.74-2.62,0-4.81-2.43-5.42-4.52a11.18,11.18,0,0,1-8.52,4.52c-3.29,0-7.12-2-7.12-6.09,0-7.67,10.1-9.57,15.52-9.7Zm0,6c-3.29.2-7.73.65-7.73,5.31,0,2.23,1.09,5.18,3.53,5.18a3.92,3.92,0,0,0,4.2-3.8Z"/><path
        class="cls-1"
        d="M249.74,30.43h.12c1.1-3.73,3.47-7,7.49-7,3,0,5.05,2.1,5.05,5.44a4.37,4.37,0,0,1-4.32,4.59,3.73,3.73,0,0,1-3.83-3.93,7,7,0,0,1,.73-2.95c.18-.46-1.4-1.18-3.71,3.47a11.32,11.32,0,0,0-1.52,6.09V47.92h4.57v1.83H238.24V47.92h3.1V25.64h-3.23V23.81h3.23c2.8,0,5.6-.26,8.4-.26Z"/><path class="cls-1" d="M276.57,15v9.35h4.63v1.83h-4.63V43.92c0,1.31-.3,3.34,1.46,3.34,2.37,0,2.8-2,3.16-4.13l1.77.39c-1,5.31-4.32,7.21-9.13,7.21-5.66,0-5.66-2.62-5.66-5.9V26.17h-3.71V24.33h3.71v-7.8Z"/><path
        class="cls-1"
        d="M332.23,50.74h-1.4l-26-39V45.37c0,1.64.85,2.29,2.37,2.42h3.47v2H297.24v-2h2.92c2.07-.13,2.19-1.51,2.19-3.41V12c0-3.21.55-4.06-3.1-4.06h-2V6H313.3l17.1,25.95V9.85c0-1.31-2.5-1.9-4-1.9h-1.7V6h12.84V8H335c-1.77,0-2.74.59-2.74,1.9Z"/><path class="cls-1" d="M361.71,23.81H376.5v1.83h-3l4.5,13.5h.12l6-15.33h1.77L392,39.27h.12L396,27.22c.3-1-.67-1.57-1.46-1.57H392.2V23.81h9.19v1.83h-2.25c-1.1,0-1.16,1.18-1.34,1.64l-7.85,23.46h-1.28l-6.94-16.31h-.06L375.4,50.74H374l-9.19-25.1h-3.1Z"/><path
        class="cls-1"
        d="M403.88,49.76h-1.52V40.52h1.58c.79,4.65,4.44,8.52,8.88,8.52,2.13,0,5.72-1.51,5.72-4.46,0-3.34-2.86-3.08-5.23-3.34-5.36-.59-11.2-1.7-11.2-9,0-5.57,3.83-8.78,8.7-8.78,2.31,0,3.47.72,5.6,1.31.49.13,1.34-.72,1.76-1.31h1.22V31h-1.7c-1.28-4-2.86-5.83-6.88-5.83-1.89,0-5.6.72-5.6,3.54,0,1.44,2.31,2.56,5,2.75,6.81.52,11.56,2.29,11.56,9,0,5.24-2.8,10.29-9,10.29a13,13,0,0,1-7.18-2.36Z"/><path
        class="cls-1"
        d="M346.54,36v8.45c0,3.41,1.76,4.59,4.93,4.59,4.81,0,7.68-2.56,9.08-7.67l1.59.06c-1.58,6.09-5.43,9.31-11.09,9.31-7.55,0-14.36-4.59-14.36-13.5S344,23.5,350.92,23.42C362.28,23.27,362.35,36,362.35,36H346.54Zm7.07-1.7V28.77c0-1.7-.44-3.65-3.36-3.65-2.62,0-3.71,1.24-3.71,3v6.16Z"/><path class="cls-2" d="M268.69,61.06h1.88a2,2,0,1,1,0,4h-1v2.51h-.92Zm1.79,3.25a1.24,1.24,0,1,0,0-2.47h-.87V64.3Z"/><path class="cls-2" d="M275.4,61.06h.82l2.68,6.53h-1l-.67-1.71h-2.89l-.67,1.71h-1Zm1.53,4-.62-1.61c-.09-.24-.49-1.25-.5-1.33h0c0,.08-.4,1.06-.5,1.33l-.63,1.61Z"/><path class="cls-2" d="M279.83,61.06h1.89A1.91,1.91,0,0,1,283.88,63a1.81,1.81,0,0,1-1.65,1.84l2,2.75h-1.08l-1.89-2.66h-.51v2.66h-.92Zm1.79,3.12c.85,0,1.34-.46,1.34-1.17s-.48-1.17-1.34-1.17h-.87v2.34Z"/><path class="cls-2" d="M286.43,61.85h-1.86v-.79h4.64v.79h-1.86v5.74h-.92Z"/><path class="cls-2" d="M291.6,64.32A3.43,3.43,0,1,1,295,67.71,3.31,3.31,0,0,1,291.6,64.32Zm5.91,0A2.49,2.49,0,1,0,295,66.89,2.43,2.43,0,0,0,297.51,64.32Z"/><path class="cls-2" d="M299.79,61.06h3.29v.79h-2.37v2.1H303v.79h-2.3v2.84h-.92Z"/><path class="cls-2" d="M307.24,61.85h-1.86v-.79H310v.79h-1.86v5.74h-.92Z"/><path class="cls-2" d="M311,61.06h.92v2.68h3.42V61.06h.92v6.53h-.92V64.53H311.9v3.06H311Z"/><path class="cls-2" d="M317.94,61.06h3.55v.78h-2.63v1.9h2.56v.78h-2.56V66.8h2.69v.78h-3.61Z"/><path class="cls-2" d="M324.63,65.33V61.06h.93v4c0,1.14.48,1.83,1.57,1.83s1.58-.7,1.58-1.83v-4h.93v4.28a2.51,2.51,0,0,1-5,0Z"/><path
        class="cls-2"
        d="M330.61,66.4l.62-.53a1.89,1.89,0,0,0,1.64,1,1.13,1.13,0,0,0,1.27-1.11c0-.77-.64-1-1.44-1.35s-1.65-.74-1.65-1.78a1.78,1.78,0,0,1,2-1.75,2.19,2.19,0,0,1,1.92,1l-.62.53a1.48,1.48,0,0,0-1.29-.71c-.63,0-1.05.33-1.05.87s.65.9,1.22,1.12c.92.36,1.87.8,1.87,2a2,2,0,0,1-2.18,2A2.53,2.53,0,0,1,330.61,66.4Z"/><path class="cls-2" d="M338.24,61.06h.82l2.68,6.53h-1l-.67-1.71h-2.89l-.67,1.71h-1Zm1.53,4-.62-1.61c-.09-.24-.49-1.25-.5-1.33h0c0,.08-.4,1.06-.5,1.33l-.63,1.61Z"/><path class="cls-2" d="M345.62,61.85h-1.86v-.79h4.64v.79h-1.86v5.74h-.92Z"/><path class="cls-2" d="M348.74,64.32a3.43,3.43,0,1,1,3.43,3.39A3.31,3.31,0,0,1,348.74,64.32Zm5.91,0a2.49,2.49,0,1,0-2.49,2.57A2.43,2.43,0,0,0,354.65,64.32Z"/><path class="cls-2" d="M356.93,61.06h1.85a3.27,3.27,0,1,1,0,6.53h-1.85Zm.92,5.74h.86a2.48,2.48,0,1,0,0-4.95h-.86Z"/><path class="cls-2" d="M365.23,61.06H366l2.68,6.53h-1l-.67-1.71h-2.89l-.67,1.71h-1Zm1.53,4-.62-1.61c-.09-.24-.49-1.25-.5-1.33h0c0,.08-.4,1.06-.5,1.33l-.63,1.61Z"/><path class="cls-2" d="M370.56,64.92l-2.22-3.87h1l1.21,2.18a9.64,9.64,0,0,1,.46.93h0a9.89,9.89,0,0,1,.47-.93l1.22-2.18h1l-2.22,3.87v2.66h-1Z"/><path class="cls-2" d="M376.44,61.06h.71l3.7,4.23c.11.12.6.73.64.82h0c0-.09,0-.85,0-1v-4h.89v6.53h-.72L378,63.35c-.11-.12-.6-.73-.64-.82h0c0,.09,0,.85,0,1v4h-.89Z"/><path class="cls-2" d="M384.08,61.06h3.55v.78H385v1.9h2.56v.78H385V66.8h2.69v.78h-3.61Z"/><path class="cls-2" d="M390.51,61.85h-1.86v-.79h4.64v.79h-1.86v5.74h-.92Z"/><path
        class="cls-2"
        d="M394.06,61.06h1l1.34,3.88c0,.15.36,1.11.37,1.26h0a13,13,0,0,1,.39-1.26l1.39-3.88h.73l1.39,3.88c.06.15.38,1.11.39,1.26h0c0-.15.33-1.11.38-1.26l1.33-3.88h.94l-2.3,6.53h-.71l-1.51-4.07a10.89,10.89,0,0,1-.32-1.06h0a10.94,10.94,0,0,1-.33,1.06l-1.5,4.07h-.71Z"/><path class="cls-2" d="M404.15,64.32a3.43,3.43,0,1,1,3.43,3.39A3.31,3.31,0,0,1,404.15,64.32Zm5.91,0a2.49,2.49,0,1,0-2.49,2.57A2.43,2.43,0,0,0,410.06,64.32Z"/><path class="cls-2" d="M412.33,61.06h1.89A1.91,1.91,0,0,1,416.38,63a1.81,1.81,0,0,1-1.65,1.84l2,2.75h-1.08l-1.89-2.66h-.51v2.66h-.92Zm1.79,3.12c.85,0,1.34-.46,1.34-1.17s-.48-1.17-1.34-1.17h-.86v2.34Z"/><path class="cls-2" d="M417.77,61.06h.92v3l2.7-3h1.12l-2.8,3.12,2.93,3.41h-1.15l-2.79-3.3v3.3h-.92Z"/></svg>
