<svg xmlns="http://www.w3.org/2000/svg" width="625" height="114" viewBox="0 0 625 114">
  <g fill="none" fill-rule="evenodd" transform="translate(0 -40)">
    <path fill="#424F52" d="M.576 68.089L8.531 68.089 8.531 53.747 23.715 53.747 23.715 68.089 47.937 68.089 47.937 79.657 23.715 79.657 23.715 112.077C23.835 117.861 23.835 120.512 30.222 120.512 38.78 120.512 37.814 113.762 37.814 107.136L51.191 107.136C51.434 126.296 46.612 132.08 30.222 132.08 13.592 132.08 8.531 128.227 8.531 112.197L8.531 79.657.576 79.657.576 68.089M74.572 77.609L75.055 77.609C78.428 68.329 86.02 67.366 94.938 67.366 111.571 67.366 116.632 74.236 116.632 89.66L116.632 131.358 101.448 131.358 101.448 91.226C101.448 82.068 99.397 78.935 89.636 78.935 76.38 78.935 74.572 85.202 74.572 96.53L74.572 131.358 59.387 131.358 59.387 40.973 74.572 40.973 74.572 77.609M184.481 111.232C184.481 131.119 173.032 132.081 154.954 132.081 130.729 132.081 125.791 124.369 125.791 99.904 125.791 77.247 129.407 67.364 154.954 67.364 180.985 67.364 184.481 74.956 184.481 102.555L140.975 102.555C140.975 116.174 141.335 120.513 154.954 120.513 163.389 120.513 169.296 120.633 169.296 111.232L184.481 111.232 184.481 111.232zM169.296 92.914C169.296 79.898 167.368 78.935 154.954 78.935 141.818 78.935 140.975 81.706 140.975 92.914L169.296 92.914 169.296 92.914zM234.493 40.973L249.678 40.973 249.678 76.526 250.281 76.526C253.534 68.811 261.609 67.366 269.321 67.366 291.015 67.366 293.546 79.297 293.546 97.854 293.546 117.258 292.823 132.083 269.321 132.083 260.403 132.083 253.414 130.154 249.558 121.837L249.075 121.837 249.678 131.36 234.493 131.36 234.493 40.973 234.493 40.973zM249.678 97.854C249.678 112.919 249.318 120.511 264.862 120.511 278.721 120.511 278.362 112.196 278.362 97.854 278.362 81.947 275.348 78.934 264.862 78.934 251.726 78.934 249.678 84.358 249.678 97.854L249.678 97.854zM346.089 123.405L345.726 123.405C342.716 131.84 333.435 132.08 326.083 132.08 311.744 132.08 302.464 129.069 302.464 111.957 302.464 96.772 310.416 92.553 326.083 92.553 333.795 92.553 341.39 92.673 345.007 99.783L345.486 99.783 345.486 91.588C345.486 81.345 344.644 77.729 331.99 77.729 325.36 77.729 320.059 78.331 320.059 86.526L304.874 86.526C304.874 68.089 317.528 67.366 331.99 67.366 352.236 67.366 360.671 70.499 360.671 91.711L360.671 131.357 345.486 131.357 346.089 123.405 346.089 123.405zM317.648 111.957C317.648 120.874 321.264 121.717 331.507 121.717 339.582 121.717 345.486 120.994 345.486 111.957 345.486 103.159 338.98 102.916 331.507 102.916 323.795 102.916 317.648 102.916 317.648 111.957L317.648 111.957zM386.943 68.089L386.943 77.609 387.425 77.609C390.799 68.329 398.391 67.366 407.309 67.366 423.941 67.366 429.003 74.236 429.003 89.66L429.003 131.358 413.818 131.358 413.818 91.228C413.818 82.068 411.77 78.934 402.007 78.934 388.751 78.934 386.943 85.201 386.943 96.53L386.943 131.358 371.758 131.358 371.758 68.089 386.943 68.089M455.516 68.089L455.516 77.609 455.998 77.609C459.372 68.329 466.964 67.366 475.882 67.366 492.514 67.366 497.576 74.236 497.576 89.66L497.576 131.358 482.391 131.358 482.391 91.228C482.391 82.068 480.343 78.934 470.58 78.934 457.324 78.934 455.516 85.201 455.516 96.53L455.516 131.358 440.331 131.358 440.331 68.089 455.516 68.089M565.907 111.232C565.907 131.119 554.458 132.081 536.38 132.081 512.158 132.081 507.217 124.369 507.217 99.904 507.217 77.247 510.833 67.364 536.38 67.364 562.411 67.364 565.907 74.956 565.907 102.555L522.401 102.555C522.401 116.174 522.761 120.513 536.38 120.513 544.818 120.513 550.722 120.633 550.722 111.232L565.907 111.232 565.907 111.232zM550.722 92.914C550.722 79.898 548.794 78.935 536.38 78.935 523.244 78.935 522.401 81.706 522.401 92.914L550.722 92.914 550.722 92.914zM590.972 68.089L590.612 76.404 591.215 76.404C594.226 69.414 600.736 67.366 608.085 67.366 621.464 67.366 624.718 75.318 624.718 87.249L624.718 92.311 610.496 92.311 610.496 89.057C610.496 82.671 609.893 78.934 602.784 78.934 593.746 78.934 591.095 84.116 591.335 92.311L591.335 131.358 576.151 131.358 576.151 68.089 590.972 68.089"/>
    <path fill="#3A3B39" d="M374.301 148.92C375.559 148.92 376.234 148.217 376.234 147.158 376.234 146.11 375.559 145.396 374.301 145.396L373.069 145.396 373.069 148.92 374.301 148.92 374.301 148.92zM371.758 144.296L374.433 144.296C376.314 144.296 377.573 145.422 377.573 147.158 377.573 148.894 376.288 150.017 374.433 150.017L373.069 150.017 373.069 153.593 371.758 153.593 371.758 144.296 371.758 144.296zM383.499 150.058L382.612 147.767C382.48 147.422 381.909 145.991 381.896 145.872L381.87 145.872C381.857 145.991 381.301 147.381 381.155 147.767L380.255 150.058 383.499 150.058 383.499 150.058zM381.314 144.296L382.48 144.296 386.294 153.593 384.889 153.593 383.937 151.158 379.818 151.158 378.864 153.593 377.487 153.593C377.487 153.593 380.85 145.436 381.314 144.296L381.314 144.296zM390.168 148.734C391.386 148.734 392.075 148.084 392.075 147.065 392.075 146.046 391.386 145.396 390.168 145.396L388.936 145.396 388.936 148.734 390.168 148.734 390.168 148.734zM387.625 144.296L390.313 144.296C392.047 144.296 393.399 145.198 393.399 147.05 393.399 148.496 392.445 149.448 391.042 149.674L393.889 153.593 392.352 153.593 389.664 149.805 388.936 149.805 388.936 153.593 387.625 153.593 387.625 144.296 387.625 144.296z"/>
    <polyline fill="#3A3B39" points="397.034 145.422 394.386 145.422 394.386 144.296 400.994 144.296 400.994 145.422 398.345 145.422 398.345 153.593 397.034 153.593 397.034 145.422"/>
    <path fill="#3A3B39" d="M412.816,148.946 C412.816,146.786 411.319,145.291 409.267,145.291 C407.241,145.291 405.73,146.786 405.73,148.946 C405.73,151.106 407.241,152.6 409.267,152.6 C411.319,152.6 412.816,151.106 412.816,148.946 L412.816,148.946 Z M404.393,148.946 C404.393,146.336 406.286,144.113 409.28,144.113 C412.273,144.113 414.167,146.336 414.167,148.946 C414.167,151.556 412.273,153.779 409.28,153.779 C406.286,153.779 404.393,151.556 404.393,148.946 L404.393,148.946 Z"/>
    <polyline fill="#3A3B39" points="416.054 144.296 420.742 144.296 420.742 145.422 417.364 145.422 417.364 148.415 420.636 148.415 420.636 149.541 417.364 149.541 417.364 153.593 416.054 153.593 416.054 144.296"/>
    <polyline fill="#3A3B39" points="426.671 145.422 424.022 145.422 424.022 144.296 430.63 144.296 430.63 145.422 427.981 145.422 427.981 153.593 426.671 153.593 426.671 145.422"/>
    <polyline fill="#3A3B39" points="432.006 144.296 433.317 144.296 433.317 148.11 438.19 148.11 438.19 144.296 439.503 144.296 439.503 153.593 438.19 153.593 438.19 149.236 433.317 149.236 433.317 153.593 432.006 153.593 432.006 144.296"/>
    <polyline fill="#3A3B39" points="441.918 144.296 446.977 144.296 446.977 145.41 443.228 145.41 443.228 148.11 446.87 148.11 446.87 149.225 443.228 149.225 443.228 152.482 447.056 152.482 447.056 153.593 441.918 153.593 441.918 144.296"/>
    <path fill="#3A3B39" d="M451.451 150.389L451.451 144.296 452.774 144.296 452.774 149.991C452.774 151.608 453.464 152.6 455.012 152.6 456.575 152.6 457.265 151.608 457.265 149.991L457.265 144.296 458.589 144.296 458.589 150.389C458.589 152.429 457.278 153.779 455.012 153.779 452.735 153.779 451.451 152.429 451.451 150.389M459.957 151.913L460.845 151.158C461.295 151.898 462.011 152.627 463.176 152.627 464.195 152.627 464.991 152.072 464.991 151.05 464.991 149.953 464.076 149.582 462.937 149.132 461.771 148.667 460.593 148.084 460.593 146.6 460.593 145.132 461.732 144.113 463.401 144.113 464.725 144.113 465.599 144.719 466.13 145.515L465.242 146.269C464.885 145.715 464.288 145.262 463.401 145.262 462.5 145.262 461.905 145.727 461.905 146.507 461.905 147.474 462.831 147.793 463.639 148.11 464.95 148.627 466.301 149.251 466.301 150.958 466.301 152.574 465.11 153.779 463.202 153.779 461.613 153.779 460.554 152.946 459.957 151.913M473.013 150.058L472.126 147.767C471.994 147.422 471.423 145.991 471.41 145.872L471.384 145.872C471.371 145.991 470.815 147.381 470.669 147.767L469.769 150.058 473.013 150.058 473.013 150.058zM470.828 144.296L471.994 144.296 475.808 153.593 474.403 153.593 473.451 151.158 469.332 151.158 468.378 153.593 467.001 153.593C467.001 153.593 470.364 145.436 470.828 144.296L470.828 144.296z"/>
    <polyline fill="#3A3B39" points="481.342 145.422 478.693 145.422 478.693 144.296 485.302 144.296 485.302 145.422 482.653 145.422 482.653 153.593 481.342 153.593 481.342 145.422"/>
    <path fill="#3A3B39" d="M494.216 148.946C494.216 146.786 492.72 145.291 490.667 145.291 488.641 145.291 487.13 146.786 487.13 148.946 487.13 151.106 488.641 152.6 490.667 152.6 492.72 152.6 494.216 151.106 494.216 148.946L494.216 148.946zM485.794 148.946C485.794 146.336 487.686 144.113 490.681 144.113 493.673 144.113 495.567 146.336 495.567 148.946 495.567 151.556 493.673 153.779 490.681 153.779 487.686 153.779 485.794 151.556 485.794 148.946L485.794 148.946zM498.765 152.467L499.984 152.467C502.155 152.467 503.665 151.317 503.665 148.946 503.665 146.574 502.155 145.422 499.984 145.422L498.765 145.422 498.765 152.467 498.765 152.467zM497.454 144.296L500.09 144.296C503.057 144.296 505.016 145.991 505.016 148.946 505.016 151.886 503.042 153.593 500.09 153.593L497.454 153.593 497.454 144.296 497.454 144.296zM511.46 150.058L510.573 147.767C510.441 147.422 509.871 145.991 509.858 145.872L509.832 145.872C509.819 145.991 509.263 147.381 509.116 147.767L508.216 150.058 511.46 150.058 511.46 150.058zM509.276 144.296L510.441 144.296 514.256 153.593 512.851 153.593 511.899 151.158 507.779 151.158 506.826 153.593 505.448 153.593C505.448 153.593 508.811 145.436 509.276 144.296L509.276 144.296zM516.874 149.805L513.708 144.296 515.179 144.296 516.9 147.396C516.98 147.541 517.536 148.563 517.562 148.719L517.575 148.719C517.603 148.563 518.158 147.541 518.238 147.396L519.973 144.296 521.402 144.296 518.238 149.805 518.238 153.593 516.874 153.593 516.874 149.805M525.254 144.296L526.26 144.296 531.532 150.322C531.69 150.496 532.379 151.355 532.446 151.489L532.472 151.474C532.446 151.344 532.446 150.269 532.446 150.032L532.446 144.296 533.718 144.296 533.718 153.593 532.697 153.593 527.426 147.567C527.267 147.396 526.578 146.534 526.513 146.403L526.5 146.415C526.513 146.548 526.526 147.622 526.526 147.86L526.526 153.593 525.254 153.593 525.254 144.296"/>
    <polyline fill="#3A3B39" points="536.133 144.296 541.191 144.296 541.191 145.41 537.443 145.41 537.443 148.11 541.086 148.11 541.086 149.225 537.443 149.225 537.443 152.482 541.271 152.482 541.271 153.593 536.133 153.593 536.133 144.296"/>
    <polyline fill="#3A3B39" points="545.292 145.422 542.644 145.422 542.644 144.296 549.252 144.296 549.252 145.422 546.603 145.422 546.603 153.593 545.292 153.593 545.292 145.422"/>
    <path fill="#3A3B39" d="M550.345 144.296L551.735 144.296 553.642 149.82C553.709 150.032 554.159 151.407 554.172 151.619L554.2 151.619C554.213 151.407 554.676 150.032 554.756 149.82L556.743 144.296 557.789 144.296 559.775 149.82C559.854 150.032 560.317 151.407 560.332 151.619L560.358 151.619C560.384 151.407 560.834 150.032 560.901 149.82L562.795 144.296 564.132 144.296 560.86 153.593 559.854 153.593 557.709 147.793C557.642 147.593 557.272 146.496 557.258 146.284L557.232 146.284C557.219 146.496 556.834 147.593 556.769 147.793L554.637 153.593 553.629 153.593 550.345 144.296M573.141 148.946C573.141 146.786 571.644 145.291 569.592 145.291 567.566 145.291 566.055 146.786 566.055 148.946 566.055 151.106 567.566 152.6 569.592 152.6 571.644 152.6 573.141 151.106 573.141 148.946L573.141 148.946zM564.718 148.946C564.718 146.336 566.611 144.113 569.605 144.113 572.598 144.113 574.492 146.336 574.492 148.946 574.492 151.556 572.598 153.779 569.605 153.779 566.611 153.779 564.718 151.556 564.718 148.946L564.718 148.946zM578.921 148.734C580.139 148.734 580.829 148.084 580.829 147.065 580.829 146.046 580.139 145.396 578.921 145.396L577.689 145.396 577.689 148.734 578.921 148.734 578.921 148.734zM576.379 144.296L579.067 144.296C580.803 144.296 582.152 145.198 582.152 147.05 582.152 148.496 581.199 149.448 579.795 149.674L582.643 153.593 581.106 153.593 578.418 149.805 577.689 149.805 577.689 153.593 576.379 153.593 576.379 144.296 576.379 144.296z"/>
    <polyline fill="#3A3B39" points="584.128 144.296 585.438 144.296 585.438 148.615 589.279 144.296 590.868 144.296 586.883 148.734 591.054 153.593 589.412 153.593 585.438 148.894 585.438 153.593 584.128 153.593 584.128 144.296"/>
  </g>
</svg>
