<svg xmlns="http://www.w3.org/2000/svg" width="259" height="83" viewBox="0 0 259 83" xmlns:xlink="http://www.w3.org/1999/xlink">
  <defs>
    <polygon id="a" points=".454 4.94 10.199 4.94 10.199 .237 .454 .237"/>
    <polygon id="c" points=".861 4.94 12.867 4.94 12.867 .237 .861 .237 .861 4.94"/>
    <polygon id="e" points=".971 4.94 9.282 4.94 9.282 .237 .971 .237 .971 4.94"/>
    <polygon id="g" points=".259 4.94 12.149 4.94 12.149 .237 .259 .237"/>
  </defs>
  <g fill="none" fill-rule="evenodd">
    <path fill="#393A38" d="M76.563 80.607C77.181 80.607 77.513 80.264 77.513 79.738 77.513 79.225 77.181 78.871 76.563 78.871L75.956 78.871 75.956 80.607 76.563 80.607 76.563 80.607zM75.308 78.331L76.624 78.331C77.553 78.331 78.172 78.886 78.172 79.738 78.172 80.594 77.539 81.148 76.624 81.148L75.956 81.148 75.956 82.909 75.308 82.909 75.308 78.331 75.308 78.331zM81.092 81.171L80.657 80.04C80.588 79.87 80.309 79.164 80.304 79.105L80.287 79.105C80.281 79.164 80.007 79.848 79.939 80.04L79.492 81.171 81.092 81.171 81.092 81.171zM80.016 78.331L80.588 78.331 82.469 82.909 81.777 82.909 81.307 81.71 79.281 81.71 78.808 82.909 78.13 82.909C78.13 82.909 79.788 78.894 80.016 78.331L80.016 78.331zM84.377 80.515C84.978 80.515 85.317 80.197 85.317 79.692 85.317 79.194 84.978 78.871 84.377 78.871L83.77 78.871 83.77 80.515 84.377 80.515 84.377 80.515zM83.123 78.331L84.449 78.331C85.298 78.331 85.967 78.778 85.967 79.688 85.967 80.398 85.495 80.866 84.808 80.981L86.208 82.909 85.452 82.909 84.128 81.047 83.77 81.047 83.77 82.909 83.123 82.909 83.123 78.331 83.123 78.331z"/>
    <g transform="translate(86 78)">
      <mask id="b" fill="white">
        <use xlink:href="#a"/>
      </mask>
      <polyline fill="#393A38" points="1.756 .886 .454 .886 .454 .331 3.707 .331 3.707 .886 2.402 .886 2.402 4.909 1.756 4.909 1.756 .886" mask="url(#b)"/>
      <path fill="#393A38" d="M9.53,2.625 C9.53,1.559 8.79,0.822 7.784,0.822 C6.787,0.822 6.041,1.559 6.041,2.625 C6.041,3.685 6.787,4.422 7.784,4.422 C8.79,4.422 9.53,3.685 9.53,2.625 L9.53,2.625 Z M5.378,2.625 C5.378,1.334 6.314,0.237 7.786,0.237 C9.263,0.237 10.199,1.334 10.199,2.625 C10.199,3.907 9.263,5 7.786,5 C6.314,5 5.378,3.907 5.378,2.625 L5.378,2.625 Z" mask="url(#b)"/>
    </g>
    <polyline fill="#393A38" points="97.124 78.331 99.435 78.331 99.435 78.886 97.771 78.886 97.771 80.358 99.382 80.358 99.382 80.917 97.771 80.917 97.771 82.909 97.124 82.909 97.124 78.331"/>
    <polyline fill="#393A38" points="102.354 78.886 101.046 78.886 101.046 78.331 104.304 78.331 104.304 78.886 102.995 78.886 102.995 82.909 102.354 82.909 102.354 78.886"/>
    <polyline fill="#393A38" points="104.983 78.331 105.624 78.331 105.624 80.209 108.027 80.209 108.027 78.331 108.672 78.331 108.672 82.909 108.027 82.909 108.027 80.766 105.624 80.766 105.624 82.909 104.983 82.909 104.983 78.331"/>
    <g transform="translate(109 78)">
      <mask id="d" fill="white">
        <use xlink:href="#c"/>
      </mask>
      <polyline fill="#393A38" points=".861 .331 3.352 .331 3.352 .881 1.507 .881 1.507 2.209 3.3 2.209 3.3 2.758 1.507 2.758 1.507 4.36 3.391 4.36 3.391 4.909 .861 4.909 .861 .331" mask="url(#d)"/>
      <path fill="#393A38" d="M5.556 3.332L5.556.331 6.207.331 6.207 3.136C6.207 3.933 6.547 4.422 7.307 4.422 8.079 4.422 8.419 3.933 8.419 3.136L8.419.331 9.068.331 9.068 3.332C9.068 4.338 8.43 5 7.307 5 6.188 5 5.556 4.338 5.556 3.332M9.744 4.081L10.183 3.71C10.402 4.078 10.755 4.433 11.33 4.433 11.833 4.433 12.224 4.161 12.224 3.658 12.224 3.117 11.771 2.936 11.214 2.711 10.637 2.483 10.057 2.197 10.057 1.464 10.057.742 10.622.237 11.44.237 12.091.237 12.522.541 12.786.931L12.347 1.304C12.174 1.031 11.88.808 11.44.808 10.996.808 10.706 1.034 10.706 1.419 10.706 1.895 11.16 2.051 11.563 2.209 12.203 2.466 12.867 2.769 12.867 3.611 12.867 4.407 12.279 5 11.343 5 10.561 5 10.038 4.589 9.744 4.081" mask="url(#d)"/>
    </g>
    <path fill="#393A38" d="M125.175,81.171 L124.736,80.04 C124.671,79.87 124.391,79.164 124.384,79.105 L124.373,79.105 C124.368,79.164 124.095,79.848 124.021,80.04 L123.577,81.171 L125.175,81.171 L125.175,81.171 Z M124.099,78.331 L124.671,78.331 L126.55,82.909 L125.861,82.909 L125.391,81.71 L123.36,81.71 L122.89,82.909 L122.215,82.909 C122.215,82.909 123.868,78.894 124.099,78.331 L124.099,78.331 Z"/>
    <g transform="translate(127 78)">
      <mask id="f" fill="white">
        <use xlink:href="#e"/>
      </mask>
      <polyline fill="#393A38" points="2.279 .886 .971 .886 .971 .331 4.228 .331 4.228 .886 2.92 .886 2.92 4.909 2.279 4.909 2.279 .886" mask="url(#f)"/>
      <path fill="#393A38" d="M8.613,2.625 C8.613,1.559 7.882,0.822 6.869,0.822 C5.871,0.822 5.124,1.559 5.124,2.625 C5.124,3.685 5.871,4.422 6.869,4.422 C7.882,4.422 8.613,3.685 8.613,2.625 L8.613,2.625 Z M4.468,2.625 C4.468,1.334 5.402,0.237 6.874,0.237 C8.348,0.237 9.282,1.334 9.282,2.625 C9.282,3.907 8.348,5 6.874,5 C5.402,5 4.468,3.907 4.468,2.625 L4.468,2.625 Z" mask="url(#f)"/>
    </g>
    <path fill="#393A38" d="M137.854 82.355L138.46 82.355C139.524 82.355 140.267 81.789 140.267 80.625 140.267 79.453 139.524 78.886 138.46 78.886L137.854 78.886 137.854 82.355 137.854 82.355zM137.211 78.331L138.508 78.331C139.97 78.331 140.935 79.164 140.935 80.625 140.935 82.069 139.961 82.909 138.508 82.909L137.211 82.909 137.211 78.331 137.211 78.331zM144.109 81.171L143.677 80.04C143.606 79.87 143.326 79.164 143.322 79.105L143.31 79.105C143.298 79.164 143.028 79.848 142.953 80.04L142.508 81.171 144.109 81.171 144.109 81.171zM143.033 78.331L143.606 78.331 145.484 82.909 144.793 82.909 144.327 81.71 142.297 81.71 141.828 82.909 141.147 82.909C141.147 82.909 142.808 78.894 143.033 78.331L143.033 78.331zM146.778 81.047L145.218 78.331 145.938 78.331 146.784 79.858C146.826 79.927 147.101 80.431 147.113 80.511L147.122 80.511C147.134 80.431 147.409 79.927 147.446 79.858L148.304 78.331 149.008 78.331 147.446 81.047 147.446 82.909 146.778 82.909 146.778 81.047M150.902 78.331L151.4 78.331 153.996 81.299C154.071 81.383 154.408 81.808 154.444 81.872L154.456 81.868C154.444 81.804 154.444 81.273 154.444 81.154L154.444 78.331 155.07 78.331 155.07 82.909 154.569 82.909 151.972 79.944C151.892 79.858 151.554 79.436 151.525 79.372L151.517 79.373C151.525 79.44 151.527 79.968 151.527 80.088L151.527 82.909 150.902 82.909 150.902 78.331"/>
    <polyline fill="#393A38" points="156.261 78.331 158.748 78.331 158.748 78.881 156.904 78.881 156.904 80.209 158.703 80.209 158.703 80.758 156.904 80.758 156.904 82.36 158.787 82.36 158.787 82.909 156.261 82.909 156.261 78.331"/>
    <polyline fill="#393A38" points="160.771 78.886 159.463 78.886 159.463 78.331 162.721 78.331 162.721 78.886 161.415 78.886 161.415 82.909 160.771 82.909 160.771 78.886"/>
    <g transform="translate(163 78)">
      <mask id="h" fill="white">
        <use xlink:href="#g"/>
      </mask>
      <path fill="#393A38" d="M.259.331L.941.331 1.883 3.052C1.914 3.154 2.139 3.833 2.145 3.937L2.155 3.937C2.164 3.833 2.39 3.154 2.434 3.052L3.406.331 3.926.331 4.901 3.052C4.942 3.154 5.167 3.833 5.178 3.937L5.189 3.937C5.203 3.833 5.423 3.154 5.459 3.052L6.388.331 7.046.331 5.438 4.909 4.942 4.909 3.888 2.051C3.852 1.958 3.67 1.413 3.665 1.312L3.65 1.312C3.641 1.413 3.453 1.958 3.426 2.051L2.371 4.909 1.875 4.909.259.331M11.483 2.625C11.483 1.559 10.748.822 9.735.822 8.739.822 7.996 1.559 7.996 2.625 7.996 3.685 8.739 4.422 9.735 4.422 10.748 4.422 11.483 3.685 11.483 2.625L11.483 2.625zM7.337 2.625C7.337 1.334 8.271.237 9.742.237 11.218.237 12.149 1.334 12.149 2.625 12.149 3.907 11.218 5 9.742 5 8.271 5 7.337 3.907 7.337 2.625L7.337 2.625z" mask="url(#h)"/>
    </g>
    <path fill="#393A38" d="M177.331,80.515 C177.934,80.515 178.271,80.197 178.271,79.692 C178.271,79.194 177.934,78.871 177.331,78.871 L176.723,78.871 L176.723,80.515 L177.331,80.515 L177.331,80.515 Z M176.079,78.331 L177.404,78.331 C178.259,78.331 178.923,78.778 178.923,79.688 C178.923,80.398 178.448,80.866 177.764,80.981 L179.166,82.909 L178.405,82.909 L177.086,81.047 L176.723,81.047 L176.723,82.909 L176.079,82.909 L176.079,78.331 L176.079,78.331 Z"/>
    <polyline fill="#393A38" points="179.896 78.331 180.541 78.331 180.541 80.456 182.43 78.331 183.212 78.331 181.25 80.515 183.308 82.909 182.497 82.909 180.541 80.594 180.541 82.909 179.896 82.909 179.896 78.331"/>
    <polyline class="no-color-change" fill="#D8D9D5" points="11.751 57.769 248.035 57.769 231.255 64.768 248.035 72.165 11.751 72.165 29.069 64.768 11.751 57.769"/>
    <polyline class="no-color-change" fill="#77AD4A" points="11.751 55.894 248.035 55.894 231.255 62.889 248.035 70.289 11.751 70.289 29.069 62.889 11.751 55.894"/>
    <path class="no-color-change" fill="#FFFFFF" d="M38.065 60.35L38.065 65.713 39.055 65.713 39.055 61.955 39.067 61.955 40.393 65.713 41.625 65.713 41.625 60.35 40.633 60.35 40.633 64.023 40.617 64.023 39.31 60.35 38.065 60.35 38.065 60.35zM45.146 63.032C45.146 64.658 45.35 65.815 46.972 65.815 48.596 65.815 48.799 64.658 48.799 63.032 48.799 61.4 48.596 60.244 46.972 60.244 45.35 60.244 45.146 61.4 45.146 63.032L45.146 63.032zM46.231 63.032C46.231 61.596 46.332 61.04 46.972 61.04 47.613 61.04 47.715 61.596 47.715 63.032 47.715 64.474 47.613 65.021 46.972 65.021 46.332 65.021 46.231 64.474 46.231 63.032L46.231 63.032zM53.401 61.144L53.914 61.144C54.403 61.144 54.667 61.393 54.667 61.889 54.667 62.469 54.374 62.693 53.853 62.693L53.401 62.693 53.401 61.144 53.401 61.144zM52.322 65.713L53.401 65.713 53.401 63.444 53.98 63.444C54.415 63.444 54.605 63.699 54.62 64.119L54.651 65.149C54.655 65.36 54.68 65.561 54.785 65.713L55.955 65.713 55.955 65.666C55.752 65.561 55.724 65.27 55.715 64.705 55.7 63.572 55.588 63.163 54.851 63.067L54.851 63.051C55.46 62.925 55.745 62.445 55.745 61.732 55.745 60.813 55.205 60.35 54.316 60.35L52.322 60.35 52.322 65.713 52.322 65.713zM59.097 60.35L59.097 61.234 60.269 61.234 60.269 65.713 61.349 65.713 61.349 61.234 62.523 61.234 62.523 60.35 59.097 60.35 59.097 60.35zM65.871 65.713L66.953 65.713 66.953 63.332 68.215 63.332 68.215 65.713 69.297 65.713 69.297 60.35 68.215 60.35 68.215 62.4 66.953 62.4 66.953 60.35 65.871 60.35 65.871 65.713 65.871 65.713zM79.484 60.35L79.484 64.178C79.484 64.752 79.395 65.021 79.005 65.021 78.612 65.021 78.523 64.752 78.523 64.178L78.523 64.014 77.532 64.014 77.532 64.248C77.532 65.09 77.81 65.815 78.949 65.815 80.048 65.815 80.566 65.351 80.566 64.207L80.566 60.35 79.484 60.35 79.484 60.35zM84.157 60.35L84.157 65.713 87.229 65.713 87.229 64.827 85.236 64.827 85.236 63.385 87.043 63.385 87.043 62.498 85.236 62.498 85.236 61.234 87.154 61.234 87.154 60.35 84.157 60.35 84.157 60.35zM91.736 61.144L92.248 61.144C92.735 61.144 92.997 61.393 92.997 61.889 92.997 62.469 92.706 62.693 92.187 62.693L91.736 62.693 91.736 61.144 91.736 61.144zM90.653 65.713L91.736 65.713 91.736 63.444 92.316 63.444C92.749 63.444 92.939 63.699 92.951 64.119L92.981 65.149C92.99 65.36 93.011 65.561 93.119 65.713L94.289 65.713 94.289 65.666C94.087 65.561 94.055 65.27 94.05 64.705 94.035 63.572 93.922 63.163 93.186 63.067L93.186 63.051C93.793 62.925 94.08 62.445 94.08 61.732 94.08 60.813 93.54 60.35 92.652 60.35L90.653 60.35 90.653 65.713 90.653 65.713zM97.505 64.037L97.505 64.254C97.505 65.248 97.985 65.815 99.208 65.815 100.382 65.815 101.074 65.308 101.074 64.175 101.074 63.519 100.864 63.105 100.051 62.752L99.217 62.39C98.758 62.196 98.663 61.994 98.663 61.664 98.663 61.346 98.789 61.04 99.278 61.04 99.69 61.04 99.863 61.332 99.863 61.836L100.9 61.836 100.9 61.686C100.9 60.657 100.203 60.244 99.24 60.244 98.219 60.244 97.579 60.777 97.579 61.822 97.579 62.715 98.022 63.112 98.984 63.444 99.699 63.691 99.947 63.871 99.947 64.359 99.947 64.811 99.629 65.021 99.299 65.021 98.728 65.021 98.585 64.697 98.585 64.193L98.585 64.037 97.505 64.037 97.505 64.037zM104.497 60.35L104.497 65.713 107.571 65.713 107.571 64.827 105.578 64.827 105.578 63.385 107.383 63.385 107.383 62.498 105.578 62.498 105.578 61.234 107.496 61.234 107.496 60.35 104.497 60.35 104.497 60.35zM110.641 60.35L112.031 63.601 112.031 65.713 113.112 65.713 113.112 63.601 114.507 60.35 113.332 60.35 112.578 62.42 112.564 62.42 111.86 60.35 110.641 60.35 110.641 60.35zM118.883 60.35L117.893 60.35 117.893 61.523 118.281 61.523 118.281 61.643C118.281 61.918 118.152 62.189 117.893 62.234L117.893 62.76C118.696 62.686 118.883 62.121 118.883 61.326L118.883 60.35 118.883 60.35zM122.411 64.037L122.411 64.254C122.411 65.248 122.893 65.815 124.118 65.815 125.29 65.815 125.98 65.308 125.98 64.175 125.98 63.519 125.771 63.105 124.961 62.752L124.127 62.39C123.667 62.196 123.568 61.994 123.568 61.664 123.568 61.346 123.695 61.04 124.187 61.04 124.599 61.04 124.772 61.332 124.772 61.836L125.807 61.836 125.807 61.686C125.807 60.657 125.111 60.244 124.148 60.244 123.125 60.244 122.491 60.777 122.491 61.822 122.491 62.715 122.932 63.112 123.894 63.444 124.608 63.691 124.852 63.871 124.852 64.359 124.852 64.811 124.539 65.021 124.209 65.021 123.637 65.021 123.495 64.697 123.495 64.193L123.495 64.037 122.411 64.037 122.411 64.037zM133.802 60.35L133.802 61.234 134.976 61.234 134.976 65.713 136.054 65.713 136.054 61.234 137.226 61.234 137.226 60.35 133.802 60.35 133.802 60.35zM141.659 61.144L142.171 61.144C142.658 61.144 142.922 61.393 142.922 61.889 142.922 62.469 142.628 62.693 142.11 62.693L141.659 62.693 141.659 61.144 141.659 61.144zM140.576 65.713L141.659 65.713 141.659 63.444 142.239 63.444C142.671 63.444 142.864 63.699 142.876 64.119L142.904 65.149C142.913 65.36 142.935 65.561 143.043 65.713L144.213 65.713 144.213 65.666C144.009 65.561 143.979 65.27 143.973 64.705 143.957 63.572 143.847 63.163 143.107 63.067L143.107 63.051C143.716 62.925 144.003 62.445 144.003 61.732 144.003 60.813 143.462 60.35 142.574 60.35L140.576 60.35 140.576 65.713 140.576 65.713zM147.573 60.35L147.573 64.092C147.573 65.523 148.405 65.815 149.283 65.815 150.162 65.815 150.996 65.457 150.996 64.092L150.996 60.35 149.915 60.35 149.915 64.092C149.915 64.623 149.787 65.021 149.283 65.021 148.779 65.021 148.651 64.623 148.651 64.092L148.651 60.35 147.573 60.35 147.573 60.35zM154.354 64.037L154.354 64.254C154.354 65.248 154.837 65.815 156.06 65.815 157.228 65.815 157.92 65.308 157.92 64.175 157.92 63.519 157.71 63.105 156.899 62.752L156.065 62.39C155.607 62.196 155.51 61.994 155.51 61.664 155.51 61.346 155.64 61.04 156.125 61.04 156.54 61.04 156.714 61.332 156.714 61.836L157.749 61.836 157.749 61.686C157.749 60.657 157.05 60.244 156.09 60.244 155.067 60.244 154.429 60.777 154.429 61.822 154.429 62.715 154.872 63.112 155.831 63.444 156.546 63.691 156.796 63.871 156.796 64.359 156.796 64.811 156.479 65.021 156.151 65.021 155.577 65.021 155.437 64.697 155.437 64.193L155.437 64.037 154.354 64.037 154.354 64.037zM161.063 60.35L161.063 61.234 162.233 61.234 162.233 65.713 163.315 65.713 163.315 61.234 164.487 61.234 164.487 60.35 161.063 60.35 161.063 60.35zM167.835 60.35L167.835 65.713 170.909 65.713 170.909 64.827 168.919 64.827 168.919 63.385 170.722 63.385 170.722 62.498 168.919 62.498 168.919 61.234 170.835 61.234 170.835 60.35 167.835 60.35 167.835 60.35zM174.386 65.713L176.093 65.713C177.527 65.713 177.932 64.855 177.932 62.955 177.932 61.377 177.661 60.35 176.158 60.35L174.386 60.35 174.386 65.713 174.386 65.713zM175.467 61.144L175.929 61.144C176.752 61.144 176.851 61.767 176.851 62.984 176.851 64.443 176.702 64.916 175.948 64.916L175.467 64.916 175.467 61.144 175.467 61.144zM186.181 64.037L186.181 64.254C186.181 65.248 186.66 65.815 187.885 65.815 189.06 65.815 189.751 65.308 189.751 64.175 189.751 63.519 189.54 63.105 188.726 62.752L187.894 62.39C187.435 62.196 187.339 61.994 187.339 61.664 187.339 61.346 187.464 61.04 187.952 61.04 188.368 61.04 188.539 61.332 188.539 61.836L189.575 61.836 189.575 61.686C189.575 60.657 188.879 60.244 187.916 60.244 186.894 60.244 186.257 60.777 186.257 61.822 186.257 62.715 186.697 63.112 187.661 63.444 188.374 63.691 188.622 63.871 188.622 64.359 188.622 64.811 188.304 65.021 187.978 65.021 187.402 65.021 187.26 64.697 187.26 64.193L187.26 64.037 186.181 64.037 186.181 64.037zM193.06 63.032C193.06 64.658 193.266 65.815 194.887 65.815 196.511 65.815 196.711 64.658 196.711 63.032 196.711 61.4 196.511 60.244 194.887 60.244 193.266 60.244 193.06 61.4 193.06 63.032L193.06 63.032zM194.142 63.032C194.142 61.596 194.249 61.04 194.887 61.04 195.525 61.04 195.63 61.596 195.63 63.032 195.63 64.474 195.525 65.021 194.887 65.021 194.249 65.021 194.142 64.474 194.142 63.032L194.142 63.032zM200.167 60.35L200.167 64.092C200.167 65.523 201.001 65.815 201.881 65.815 202.759 65.815 203.593 65.457 203.593 64.092L203.593 60.35 202.509 60.35 202.509 64.092C202.509 64.623 202.382 65.021 201.881 65.021 201.376 65.021 201.249 64.623 201.249 64.092L201.249 60.35 200.167 60.35 200.167 60.35zM208.243 61.144L208.755 61.144C209.239 61.144 209.503 61.393 209.503 61.889 209.503 62.469 209.208 62.693 208.695 62.693L208.243 62.693 208.243 61.144 208.243 61.144zM207.16 65.713L208.243 65.713 208.243 63.444 208.821 63.444C209.257 63.444 209.444 63.699 209.461 64.119L209.489 65.149C209.499 65.36 209.519 65.561 209.625 65.713L210.796 65.713 210.796 65.666C210.593 65.561 210.563 65.27 210.558 64.705 210.542 63.572 210.429 63.163 209.69 63.067L209.69 63.051C210.302 62.925 210.585 62.445 210.585 61.732 210.585 60.813 210.043 60.35 209.159 60.35L207.16 60.35 207.16 65.713 207.16 65.713zM217.597 62.159C217.597 61.377 217.482 60.244 215.935 60.244 214.312 60.244 214.108 61.4 214.108 63.032 214.108 64.658 214.312 65.815 215.935 65.815 217.354 65.815 217.64 64.818 217.64 63.661L216.559 63.661C216.559 64.818 216.272 65.021 215.88 65.021 215.416 65.021 215.188 64.728 215.188 63.105 215.188 61.588 215.317 61.04 215.867 61.04 216.354 61.04 216.513 61.377 216.513 62.159L217.597 62.159 217.597 62.159zM221.142 60.35L221.142 65.713 224.213 65.713 224.213 64.827 222.222 64.827 222.222 63.385 224.023 63.385 224.023 62.498 222.222 62.498 222.222 61.234 224.136 61.234 224.136 60.35 221.142 60.35 221.142 60.35z"/>
    <path fill="#1B1A18" d="M236.718 17.628C235.909 20.815 233.903 23.715 229.679 23.715 227.12 23.715 225.945 22.296 224.729 20.673L224.011 21.208 224.011 39.702C224.011 42.746 224.966 43.703 226.638 44.477L229.8 41.614 230.515 42.387 222.223 49.906C218.942 48.234 216.854 45.849 216.854 40.955L216.854 22.76 214.827 20.314 212.794 22.044 212.081 21.27 219.3 15.244 223.714 20.314 229.621 15.182C230.515 16.797 232.073 17.988 233.261 17.988 234.54 17.988 235.428 17.833 236.301 17.271L236.718 17.628M187.499 18.881C186.188 21.788 184.498 24.194 181.593 24.194 178.599 24.194 177.007 23.074 175.512 20.673L175.272 20.732 175.272 40.539 180.579 44.539 185.116 40.602 185.889 41.435 175.868 49.906 168.171 44.002 168.171 26.817C168.171 25.131 167.636 24.31 166.622 24.013L166.622 23.715C171.679 21.966 175.942 19.145 179.626 15.244 180.115 16.309 182.269 19.003 184.574 19.003 186.155 19.003 186.335 19.054 187.083 18.524L187.499 18.881M69.146 43.463L61.271 49.906C59.022 49.127 56.793 47.161 56.793 42.567L56.793 23.956 52.738 20.552 50.294 22.582 50.294 42.626 52.916 44.595 52.916 44.777 46.653 50.024 41.523 45.252 41.523 45.016C42.585 44.7 43.015 43.342 43.015 41.792L43.015 9.696C43.015 7.739 42.763 6.345 42.057 5.638L42.417 5.22C43.432 5.527 44.359 6.36 45.044 8.146L45.221 8.146C46.234 4.798 48.964 3.114 52.021 2.835L52.2 3.194C50.952 4.504 50.172 6.422 50.172 9.936L50.172 21.15 57.031 15.182 65.146 21.329 65.146 21.566C64.459 21.819 63.956 22.521 63.956 23.893L63.956 40.3C63.956 43.004 65.207 44.18 66.222 44.477L68.427 42.626 69.146 43.463"/>
    <path fill="#1B1A18" d="M258.616 41.195C254.773 42.945 249.212 47.031 246.024 49.906L236.483 43.582 236.483 27.773C236.483 25.922 236.244 25.208 235.35 24.908L235.35 24.611C238.128 22.893 242.965 18.777 245.369 16.498L241.071 10.472C240.626 9.843 239.882 9.491 239.106 9.459 238.779 9.445 238.421 9.515 238.093 9.576L237.914 9.337C238.51 8.69 239.464 8.084 240.538 8.084 240.931 8.084 241.372 8.178 241.792 8.264L241.851 8.146C241.349 7.519 240.896 6.233 240.896 4.923 240.896 2.612 242.627.805 243.879.15L244.116.33C244.057 1.106 244.146 2.198 245.606 4.268L256.407 19.537C256.944 20.3 257.72 21.031 258.495 21.27L258.495 21.626C257.78 21.867 257.063 22.193 257.063 24.194L257.063 37.972C257.063 39.846 257.71 40.556 258.616 40.778L258.616 41.195 258.616 41.195zM249.964 43.879L249.964 23.12 245.847 17.39 243.7 19.479 243.7 40.3 249.725 44.059 249.964 43.879 249.964 43.879zM210.591 41.195C207.247 43.008 202.749 46.281 198.598 49.906L188.933 43.463 188.933 26.937C188.933 24.938 188.381 23.873 187.441 23.715L187.441 23.36C191.749 21.732 197.882 18.427 201.222 15.244L209.396 21.15 209.396 38.391C209.396 40.018 209.653 40.556 210.591 40.778L210.591 41.195 210.591 41.195zM202.298 44.059L202.298 24.49 196.629 19.955 196.152 20.314 196.152 40.001 202.118 44.18 202.298 44.059 202.298 44.059zM165.787 26.817L152.603 36.899 152.603 40.539 158.09 44.477 162.563 40.602 163.28 41.435 153.197 49.906 145.442 44.002 145.442 27.413C145.442 25.154 145.083 24.133 144.188 23.956L144.188 23.596C149.03 21.723 153.653 18.928 157.493 15.244L165.787 26.817 165.787 26.817zM159.7 30.22L152.96 20.133 152.603 20.314 152.603 35.645 159.7 30.22 159.7 30.22zM143.474 42.15L134.288 49.906C130.982 48.281 128.983 45.535 128.983 41.852L128.983 29.205C128.983 27.08 128.153 25.037 125.342 25.029 124.7 25.022 123.043 25.499 121.762 25.922L121.762 43.401 122.657 44.002 122.657 44.297 115.736 49.968 106.97 43.762 106.97 43.582C108.342 43.019 109.772 41.33 109.772 38.512L109.772 28.608 108.994 28.608C107.907 28.608 107.085 29.217 107.085 30.22 107.085 30.656 107.244 31.038 107.742 31.411L107.388 31.828C105.33 31.845 102.91 29.805 102.91 26.995 102.91 24.215 105.01 22.165 108.16 22.165L109.654 22.165 109.654 12.38C109.654 9.508 108.354 8.212 106.67 7.969L104.104 10.055 103.328 9.158 111.68 2C115.426 2.375 117.644 6.075 117.644 9.515 118.702 8.587 119.756 7.665 120.806 6.832L120.806 2.177 121.762 2.177 121.762 6.117C125.043 3.633 128.265 1.879 131.309 1.879 135.925 1.879 139.417 4.831 139.417 9.515 139.417 17.27 135.188 21.186 129.697 23.058L129.697 23.18C134.847 22.922 137.567 25.804 137.567 30.22L137.567 39.525C137.567 42.224 138.997 42.906 140.372 43.342L142.815 41.257 143.474 42.15 143.474 42.15zM130.653 12.437C130.653 7.817 128.956 6.354 126.893 6.354 124.956 6.354 123.452 6.917 121.762 7.969L121.762 24.85C128.337 22.208 130.653 17.258 130.653 12.437L130.653 12.437zM120.806 42.805L120.806 26.281C120.372 26.431 119.732 26.639 119.732 26.639L119.553 25.627C119.861 25.531 120.515 25.305 120.806 25.208L120.806 8.563C119.901 9.19 118.914 9.963 117.766 10.829L117.766 40.838 120.806 42.805 120.806 42.805zM91.995 26.817L78.927 36.899 78.927 40.539 84.119 44.539 88.714 40.602 89.489 41.435 79.345 49.906 71.65 44.002 71.65 27.413C71.65 25.154 71.471 24.133 70.458 23.956L70.458 23.596C75.294 22.031 79.799 18.928 83.64 15.244L91.995 26.817 91.995 26.817zM85.906 30.22L79.167 20.133 78.806 20.314 78.806 35.704 85.906 30.22 85.906 30.22zM38.6 35.524C37.099 42.4 32.42 50.263 19.866 50.263 8.747 50.263.655 41.792.655 31.233.655 23.228 6.459 15.597 13.779 12.321L14.258 13.034C9.427 16.853 7.698 22.519 7.698 26.639 7.698 32.663 9.918 37.141 13.483 39.943L16.464 38.571C17.41 38.135 17.897 37.23 17.897 35.17L17.897 17.866 15.032 19.06 14.556 17.929 23.505 14.05 23.505 13.87C17.946 11.685 11.691 8.444 8.353 8.444 5.012 8.444 2.744 10.113 2.744 12.797 2.744 14.515 3.161 15.541 3.638 16.258L3.102 16.676C1.854 15.862 0 14.05 0 11.186 0 5.996 4.376 2 10.559 2 20.784 2 27.62 8.146 33.107 8.146 35.31 8.146 36.988 7.099 36.988 5.103 36.988 4.484 36.817 3.69 36.629 3.252L37.404 3.194C37.843 3.755 38.42 5.023 38.42 6.774 38.42 11.084 34.949 14.69 30.247 15.005L30.247 42.984C33.337 41.709 36.385 38.415 37.824 35.17L38.6 35.524 38.6 35.524zM29.294 43.285L29.294 15.064C28.446 15.062 26.334 14.784 25.057 14.409L25.057 32.424C25.057 35.467 22.677 37.309 19.866 38.512L14.434 40.838C16.941 42.66 21.2 44.002 24.816 44.002 26.408 44.002 27.787 43.768 29.294 43.285L29.294 43.285z"/>
  </g>
</svg>
