<svg xmlns="http://www.w3.org/2000/svg" width="349" height="55" viewBox="0 0 349 55">
  <g fill="none" fill-rule="evenodd">
    <path class='no-color-change' fill="#009BFF" d="M54.176,27.824 C54.176,42.736 42.089,54.824 27.176,54.824 C12.263,54.824 0.176,42.736 0.176,27.824 C0.176,12.911 12.263,0.824 27.176,0.824 C42.089,0.824 54.176,12.911 54.176,27.824"/>
    <path fill="#404040" d="M69.536 21.55C70.517 21.55 71.273 21.262 71.806 20.685 72.339 20.107 72.606 19.286 72.606 18.219L72.606 7.439 77.484 7.439 77.484 18.193C77.484 20.554 76.793 22.381 75.412 23.675 74.031 24.969 72.072 25.615 69.536 25.615 67.001 25.615 65.042 24.969 63.661 23.675 62.281 22.381 61.589 20.554 61.589 18.193L61.589 7.439 66.468 7.439 66.468 18.219C66.468 19.286 66.735 20.107 67.269 20.685 67.802 21.262 68.558 21.55 69.536 21.55M87.242 25.615C85.79 25.615 84.4 25.366 83.072 24.868 81.742 24.37 80.587 23.657 79.609 22.73L81.97 19.767C82.669 20.396 83.455 20.891 84.329 21.249 85.204 21.607 86.165 21.786 87.215 21.786 87.914 21.786 88.465 21.664 88.867 21.419 89.269 21.175 89.47 20.808 89.47 20.317 89.47 19.846 89.235 19.465 88.763 19.177 88.29 18.888 87.46 18.586 86.271 18.271L85.169 17.983C83.56 17.563 82.337 16.921 81.497 16.056 80.658 15.189 80.238 14.093 80.238 12.764 80.238 11.627 80.535 10.631 81.13 9.773 81.724 8.917 82.546 8.257 83.595 7.793 84.645 7.33 85.86 7.099 87.242 7.099 88.605 7.099 89.908 7.348 91.15 7.846 92.391 8.344 93.492 9.021 94.454 9.879L92.015 12.947C91.386 12.405 90.646 11.934 89.798 11.531 88.95 11.129 88.107 10.928 87.267 10.928 86.568 10.928 86.031 11.046 85.655 11.281 85.279 11.518 85.091 11.863 85.091 12.317 85.091 12.737 85.287 13.101 85.681 13.406 86.074 13.712 86.751 13.996 87.713 14.259L89.051 14.626C90.974 15.15 92.333 15.867 93.13 16.776 93.925 17.685 94.324 18.744 94.324 19.95 94.324 21.087 94.031 22.079 93.445 22.927 92.859 23.775 92.033 24.435 90.966 24.907 89.9 25.38 88.658 25.615 87.242 25.615M102.48 18.324L106.702 18.324 104.605 12.082 102.48 18.324zM109.064 25.274L107.935 21.943 101.247 21.943 100.119 25.274 95.293 25.274 101.824 7.439 107.49 7.439 114.021 25.274 109.064 25.274 109.064 25.274z"/>
    <polyline fill="#404040" points="125.22 25.274 125.22 11.373 119.921 11.373 119.921 7.439 135.396 7.439 135.396 11.373 130.098 11.373 130.098 25.274 125.22 25.274"/>
    <path fill="#404040" d="M145.599 21.576C146.455 21.576 147.202 21.358 147.841 20.921 148.48 20.483 148.982 19.876 149.349 19.098 149.716 18.32 149.9 17.415 149.9 16.383 149.9 15.352 149.716 14.442 149.349 13.655 148.982 12.868 148.48 12.252 147.841 11.807 147.202 11.36 146.455 11.138 145.599 11.138 144.742 11.138 143.994 11.36 143.357 11.807 142.718 12.252 142.215 12.868 141.848 13.655 141.481 14.442 141.297 15.352 141.297 16.383 141.297 17.415 141.481 18.32 141.848 19.098 142.215 19.876 142.718 20.483 143.357 20.921 143.994 21.358 144.742 21.576 145.599 21.576zM145.599 25.615C143.816 25.615 142.228 25.222 140.838 24.435 139.449 23.648 138.351 22.56 137.546 21.17 136.742 19.779 136.34 18.185 136.34 16.383 136.34 15.019 136.568 13.773 137.022 12.645 137.476 11.518 138.123 10.539 138.962 9.708 139.802 8.878 140.781 8.235 141.901 7.78 143.019 7.326 144.252 7.099 145.599 7.099 146.945 7.099 148.177 7.326 149.297 7.78 150.415 8.235 151.396 8.878 152.235 9.708 153.074 10.539 153.72 11.518 154.175 12.645 154.63 13.773 154.857 15.019 154.857 16.383 154.857 18.185 154.454 19.779 153.651 21.17 152.847 22.56 151.749 23.648 150.359 24.435 148.969 25.222 147.382 25.615 145.599 25.615L145.599 25.615zM162.464 21.419L164.693 21.419C165.969 21.419 166.979 20.956 167.722 20.029 168.466 19.102 168.837 17.878 168.837 16.357 168.837 14.836 168.466 13.612 167.722 12.685 166.979 11.759 165.969 11.295 164.693 11.295L162.464 11.295 162.464 21.419zM157.663 25.274L157.663 7.439 164.693 7.439C166.458 7.439 168.019 7.819 169.374 8.58 170.73 9.341 171.792 10.39 172.562 11.727 173.331 13.065 173.716 14.608 173.716 16.357 173.716 18.105 173.331 19.648 172.562 20.986 171.792 22.324 170.73 23.373 169.374 24.134 168.019 24.894 166.458 25.274 164.693 25.274L157.663 25.274 157.663 25.274zM181.532 18.324L185.755 18.324 183.656 12.082 181.532 18.324zM188.115 25.274L186.988 21.943 180.299 21.943 179.171 25.274 174.345 25.274 180.876 7.439 186.541 7.439 193.072 25.274 188.115 25.274 188.115 25.274z"/>
    <polyline fill="#404040" points="202.515 18.849 202.515 25.274 197.558 25.274 197.558 18.849 191.236 7.439 196.744 7.439 200.049 14.52 203.327 7.439 208.835 7.439 202.515 18.849"/>
    <polyline fill="#404040" points="227.798 25.274 220.796 14.993 220.796 25.274 216.31 25.274 216.31 7.439 220.769 7.439 227.745 17.904 227.745 7.439 232.257 7.439 232.257 25.274 227.798 25.274"/>
    <polyline fill="#404040" points="236.191 25.274 236.191 7.439 248.493 7.439 248.493 11.348 240.966 11.348 240.966 14.363 247.654 14.363 247.654 18.271 240.966 18.271 240.966 21.366 248.913 21.366 248.913 25.274 236.191 25.274"/>
    <polyline fill="#404040" points="255.915 25.274 255.915 11.373 250.617 11.373 250.617 7.439 266.091 7.439 266.091 11.373 260.794 11.373 260.794 25.274 255.915 25.274"/>
    <polyline fill="#404040" points="282.562 25.274 279.677 13.682 276.792 25.274 271.624 25.274 267.193 7.439 271.913 7.439 274.615 19.609 277.605 7.439 281.775 7.439 284.74 19.53 287.519 7.439 292.161 7.439 287.73 25.274 282.562 25.274"/>
    <path fill="#404040" d="M302.548 21.576C303.406 21.576 304.152 21.358 304.79 20.921 305.429 20.483 305.931 19.876 306.298 19.098 306.665 18.32 306.851 17.415 306.851 16.383 306.851 15.352 306.665 14.442 306.298 13.655 305.931 12.868 305.429 12.252 304.79 11.807 304.152 11.36 303.406 11.138 302.548 11.138 301.691 11.138 300.945 11.36 300.306 11.807 299.667 12.252 299.165 12.868 298.798 13.655 298.431 14.442 298.247 15.352 298.247 16.383 298.247 17.415 298.431 18.32 298.798 19.098 299.165 19.876 299.667 20.483 300.306 20.921 300.945 21.358 301.691 21.576 302.548 21.576zM302.548 25.615C300.765 25.615 299.179 25.222 297.788 24.435 296.398 23.648 295.3 22.56 294.495 21.17 293.693 19.779 293.29 18.185 293.29 16.383 293.29 15.019 293.517 13.773 293.972 12.645 294.427 11.518 295.074 10.539 295.913 9.708 296.751 8.878 297.732 8.235 298.851 7.78 299.968 7.326 301.202 7.099 302.548 7.099 303.894 7.099 305.128 7.326 306.247 7.78 307.365 8.235 308.345 8.878 309.185 9.708 310.023 10.539 310.671 11.518 311.124 12.645 311.579 13.773 311.808 15.019 311.808 16.383 311.808 18.185 311.406 19.779 310.601 21.17 309.796 22.56 308.699 23.648 307.31 24.435 305.919 25.222 304.331 25.615 302.548 25.615L302.548 25.615zM319.388 15.648L322.011 15.648C322.761 15.648 323.357 15.452 323.794 15.059 324.23 14.665 324.449 14.128 324.449 13.445 324.449 12.799 324.23 12.278 323.794 11.885 323.357 11.491 322.761 11.295 322.011 11.295L319.388 11.295 319.388 15.648zM319.388 19.347L319.388 25.274 314.665 25.274 314.665 7.439 322.534 7.439C324.632 7.439 326.294 7.977 327.519 9.053 328.742 10.128 329.355 11.593 329.355 13.445 329.355 14.652 329.083 15.692 328.54 16.566 327.999 17.441 327.238 18.123 326.259 18.612L329.906 25.274 324.712 25.274 321.747 19.347 319.388 19.347 319.388 19.347z"/>
    <polyline fill="#404040" points="343.044 25.274 337.38 16.555 337.38 25.274 332.527 25.274 332.527 7.439 337.38 7.439 337.38 15.268 343.255 7.439 348.868 7.439 342.259 15.636 348.738 25.274 343.044 25.274"/>
    <polyline class='no-color-change' fill="#009BFF" points="66.887 48.128 66.887 34.227 61.589 34.227 61.589 30.293 77.065 30.293 77.065 34.227 71.766 34.227 71.766 48.128 66.887 48.128"/>
    <path class='no-color-change' fill="#009BFF" d="M84.356,38.502 L86.979,38.502 C87.731,38.502 88.324,38.306 88.762,37.912 C89.199,37.518 89.418,36.981 89.418,36.299 C89.418,35.652 89.199,35.132 88.762,34.738 C88.324,34.345 87.731,34.148 86.979,34.148 L84.356,34.148 L84.356,38.502 Z M84.356,42.2 L84.356,48.128 L79.635,48.128 L79.635,30.293 L87.503,30.293 C89.602,30.293 91.262,30.83 92.487,31.906 C93.71,32.981 94.323,34.446 94.323,36.299 C94.323,37.506 94.051,38.546 93.51,39.42 C92.967,40.295 92.206,40.977 91.227,41.466 L94.873,48.128 L89.68,48.128 L86.716,42.2 L84.356,42.2 L84.356,42.2 Z"/>
    <polyline class='no-color-change' fill="#009BFF" points="97.496 48.128 97.496 30.293 109.797 30.293 109.797 34.201 102.27 34.201 102.27 37.217 108.957 37.217 108.957 41.125 102.27 41.125 102.27 44.22 110.217 44.22 110.217 48.128 97.496 48.128"/>
    <path class='no-color-change' fill="#009BFF" d="M118.871 41.178L123.095 41.178 120.996 34.935 118.871 41.178zM125.455 48.128L124.327 44.797 117.639 44.797 116.512 48.128 111.686 48.128 118.216 30.293 123.881 30.293 130.412 48.128 125.455 48.128 125.455 48.128zM139.041 48.469C137.59 48.469 136.199 48.22 134.871 47.722 133.542 47.224 132.388 46.511 131.408 45.584L133.77 42.62C134.469 43.25 135.256 43.744 136.13 44.102 137.004 44.461 137.966 44.64 139.016 44.64 139.715 44.64 140.266 44.518 140.668 44.272 141.07 44.028 141.271 43.661 141.271 43.171 141.271 42.699 141.035 42.318 140.563 42.03 140.09 41.741 139.26 41.439 138.071 41.125L136.969 40.837C135.361 40.417 134.137 39.774 133.297 38.909 132.458 38.043 132.038 36.946 132.038 35.617 132.038 34.48 132.336 33.484 132.93 32.627 133.525 31.77 134.346 31.11 135.396 30.646 136.446 30.184 137.66 29.952 139.041 29.952 140.406 29.952 141.707 30.201 142.949 30.699 144.192 31.197 145.293 31.875 146.254 32.732L143.815 35.801C143.186 35.259 142.447 34.787 141.599 34.385 140.75 33.982 139.907 33.781 139.068 33.781 138.368 33.781 137.83 33.899 137.455 34.135 137.078 34.371 136.891 34.717 136.891 35.171 136.891 35.591 137.088 35.954 137.481 36.26 137.874 36.565 138.552 36.85 139.514 37.112L140.852 37.479C142.775 38.004 144.134 38.721 144.93 39.63 145.725 40.539 146.123 41.598 146.123 42.804 146.123 43.94 145.83 44.933 145.244 45.78 144.658 46.629 143.832 47.289 142.766 47.761 141.699 48.233 140.457 48.469 139.041 48.469M156.666 44.403C157.647 44.403 158.403 44.115 158.936 43.538 159.469 42.961 159.736 42.14 159.736 41.072L159.736 30.293 164.614 30.293 164.614 41.047C164.614 43.407 163.923 45.234 162.542 46.528 161.16 47.822 159.201 48.469 156.666 48.469 154.131 48.469 152.172 47.822 150.791 46.528 149.41 45.234 148.719 43.407 148.719 41.047L148.719 30.293 153.598 30.293 153.598 41.072C153.598 42.14 153.865 42.961 154.399 43.538 154.932 44.115 155.688 44.403 156.666 44.403M172.928 38.502L175.551 38.502C176.303 38.502 176.897 38.306 177.334 37.912 177.772 37.518 177.99 36.981 177.99 36.299 177.99 35.652 177.772 35.132 177.334 34.738 176.897 34.345 176.303 34.148 175.551 34.148L172.928 34.148 172.928 38.502zM172.928 42.2L172.928 48.128 168.207 48.128 168.207 30.293 176.076 30.293C178.174 30.293 179.835 30.83 181.059 31.906 182.283 32.981 182.895 34.446 182.895 36.299 182.895 37.506 182.623 38.546 182.082 39.42 181.539 40.295 180.78 40.977 179.8 41.466L183.446 48.128 178.252 48.128 175.289 42.2 172.928 42.2 172.928 42.2z"/>
    <polyline class='no-color-change' fill="#009BFF" points="186.069 48.128 186.069 30.293 198.37 30.293 198.37 34.201 190.842 34.201 190.842 37.217 197.532 37.217 197.532 41.125 190.842 41.125 190.842 44.22 198.789 44.22 198.789 48.128 186.069 48.128"/>
    <path class='no-color-change' fill="#009BFF" d="M216.311 48.469C214.491 48.469 212.896 48.076 211.524 47.289 210.151 46.502 209.074 45.413 208.297 44.023 207.519 42.633 207.13 41.02 207.13 39.185 207.13 37.349 207.519 35.739 208.297 34.358 209.074 32.977 210.151 31.897 211.524 31.119 212.896 30.341 214.491 29.952 216.311 29.952 217.85 29.952 219.235 30.263 220.467 30.883 221.701 31.504 222.754 32.4 223.629 33.571L219.772 35.853C219.319 35.276 218.807 34.821 218.239 34.489 217.67 34.157 217.01 33.991 216.258 33.991 215.016 33.991 214.01 34.459 213.241 35.394 212.471 36.33 212.087 37.594 212.087 39.185 212.087 40.775 212.471 42.048 213.241 43 214.01 43.954 215.016 44.43 216.258 44.43 217.028 44.43 217.709 44.242 218.303 43.866 218.899 43.49 219.397 43.049 219.799 42.541L223.629 44.823C222.772 46.013 221.717 46.918 220.467 47.538 219.217 48.158 217.832 48.469 216.311 48.469M234.094 44.43C234.949 44.43 235.698 44.212 236.336 43.774 236.975 43.337 237.477 42.729 237.844 41.951 238.211 41.174 238.395 40.268 238.395 39.236 238.395 38.205 238.211 37.296 237.844 36.509 237.477 35.722 236.975 35.105 236.336 34.66 235.698 34.214 234.949 33.991 234.094 33.991 233.237 33.991 232.489 34.214 231.85 34.66 231.213 35.105 230.709 35.722 230.342 36.509 229.975 37.296 229.791 38.205 229.791 39.236 229.791 40.268 229.975 41.174 230.342 41.951 230.709 42.729 231.213 43.337 231.85 43.774 232.489 44.212 233.237 44.43 234.094 44.43zM234.094 48.469C232.309 48.469 230.723 48.076 229.332 47.289 227.944 46.502 226.846 45.413 226.041 44.023 225.237 42.633 224.834 41.038 224.834 39.236 224.834 37.873 225.061 36.627 225.516 35.499 225.971 34.371 226.617 33.393 227.457 32.561 228.297 31.731 229.276 31.089 230.395 30.634 231.514 30.18 232.746 29.952 234.094 29.952 235.44 29.952 236.672 30.18 237.791 30.634 238.91 31.089 239.889 31.731 240.729 32.561 241.569 33.393 242.215 34.371 242.67 35.499 243.125 36.627 243.352 37.873 243.352 39.236 243.352 41.038 242.949 42.633 242.145 44.023 241.34 45.413 240.244 46.502 238.854 47.289 237.463 48.076 235.877 48.469 234.094 48.469L234.094 48.469zM251.324 41.178L255.547 41.178 253.449 34.935 251.324 41.178zM257.908 48.128L256.782 44.797 250.092 44.797 248.965 48.128 244.139 48.128 250.67 30.293 256.334 30.293 262.866 48.128 257.908 48.128 257.908 48.128zM271.494 48.469C270.043 48.469 268.653 48.22 267.324 47.722 265.996 47.224 264.842 46.511 263.864 45.584L266.223 42.62C266.922 43.25 267.709 43.744 268.584 44.102 269.457 44.461 270.42 44.64 271.469 44.64 272.168 44.64 272.719 44.518 273.121 44.272 273.524 44.028 273.725 43.661 273.725 43.171 273.725 42.699 273.489 42.318 273.016 42.03 272.545 41.741 271.713 41.439 270.526 41.125L269.424 40.837C267.815 40.417 266.59 39.774 265.75 38.909 264.912 38.043 264.492 36.946 264.492 35.617 264.492 34.48 264.789 33.484 265.383 32.627 265.979 31.77 266.801 31.11 267.85 30.646 268.899 30.184 270.114 29.952 271.494 29.952 272.86 29.952 274.162 30.201 275.403 30.699 276.645 31.197 277.746 31.875 278.707 32.732L276.268 35.801C275.639 35.259 274.901 34.787 274.053 34.385 273.203 33.982 272.362 33.781 271.522 33.781 270.823 33.781 270.283 33.899 269.908 34.135 269.532 34.371 269.344 34.717 269.344 35.171 269.344 35.591 269.541 35.954 269.934 36.26 270.328 36.565 271.006 36.85 271.967 37.112L273.305 37.479C275.229 38.004 276.588 38.721 277.383 39.63 278.178 40.539 278.576 41.598 278.576 42.804 278.576 43.94 278.283 44.933 277.698 45.78 277.112 46.629 276.285 47.289 275.219 47.761 274.153 48.233 272.912 48.469 271.494 48.469"/>
    <polyline class='no-color-change' fill="#009BFF" points="285.448 48.128 285.448 34.227 280.151 34.227 280.151 30.293 295.625 30.293 295.625 34.227 290.326 34.227 290.326 48.128 285.448 48.128"/>
  </g>
</svg>
