<svg xmlns="http://www.w3.org/2000/svg" width="178" height="46" viewBox="0 0 178 46">
  <g fill="none" fill-rule="evenodd">
    <polyline fill="#009BFF" class='no-color-change' points="9.697 33.292 9.697 9.442 .607 9.442 .607 2.692 27.157 2.692 27.157 9.442 18.067 9.442 18.067 33.292 9.697 33.292"/>
    <path fill="#009BFF" class='no-color-change' d="M43.987,33.877 C40.867,33.877 38.129,33.202 35.774,31.853 C33.419,30.502 31.574,28.635 30.24,26.25 C28.904,23.865 28.237,21.097 28.237,17.947 C28.237,14.797 28.904,12.037 30.24,9.667 C31.574,7.298 33.419,5.445 35.774,4.109 C38.129,2.775 40.867,2.108 43.987,2.108 C46.627,2.108 49.005,2.64 51.119,3.705 C53.234,4.77 55.042,6.308 56.542,8.317 L49.927,12.233 C49.146,11.242 48.269,10.463 47.295,9.893 C46.319,9.323 45.187,9.037 43.897,9.037 C41.766,9.037 40.042,9.84 38.722,11.445 C37.401,13.05 36.742,15.218 36.742,17.947 C36.742,20.678 37.401,22.86 38.722,24.495 C40.042,26.13 41.766,26.947 43.897,26.947 C45.217,26.947 46.387,26.625 47.407,25.98 C48.427,25.335 49.282,24.578 49.972,23.707 L56.542,27.622 C55.072,29.663 53.264,31.215 51.119,32.28 C48.974,33.344 46.597,33.877 43.987,33.877"/>
    <path fill="#404040" d="M68.917 16.688L72.967 16.688C74.256 16.688 75.277 16.35 76.027 15.675 76.776 15 77.152 14.108 77.152 12.997 77.152 11.888 76.776 10.995 76.027 10.32 75.277 9.645 74.256 9.307 72.967 9.307L68.917 9.307 68.917 16.688zM60.817 33.292L60.817 2.692 73.777 2.692C77.377 2.692 80.227 3.615 82.327 5.46 84.427 7.305 85.477 9.817 85.477 12.997 85.477 15.067 85.004 16.861 84.059 18.375 83.115 19.89 81.787 21.06 80.077 21.885 78.367 22.71 76.326 23.122 73.957 23.122L68.917 23.122 68.917 33.292 60.817 33.292zM95.646 25.867C95.646 26.558 95.9 27.12 96.411 27.555 96.921 27.99 97.581 28.207 98.391 28.207 99.471 28.207 100.378 27.84 101.113 27.105 101.848 26.37 102.216 25.447 102.216 24.337L102.216 23.572C101.406 23.423 100.551 23.347 99.651 23.347 98.51 23.347 97.559 23.543 96.794 23.932 96.028 24.322 95.646 24.967 95.646 25.867zM102.531 33.292L102.126 30.277C100.626 32.678 98.346 33.877 95.286 33.877 93.936 33.877 92.713 33.585 91.619 33 90.523 32.415 89.653 31.612 89.008 30.592 88.363 29.573 88.041 28.387 88.041 27.037 88.041 24.488 89.038 22.508 91.034 21.097 93.028 19.688 95.661 18.983 98.931 18.983 99.951 18.983 101.03 19.072 102.171 19.252 102.051 18.112 101.564 17.25 100.709 16.665 99.854 16.08 98.811 15.787 97.581 15.787 96.501 15.787 95.413 15.99 94.318 16.395 93.223 16.8 92.181 17.288 91.191 17.858L88.536 12.817C90.036 11.858 91.656 11.115 93.396 10.59 95.135 10.066 96.876 9.802 98.616 9.802 100.715 9.802 102.606 10.162 104.286 10.882 105.966 11.603 107.286 12.698 108.246 14.167 109.206 15.638 109.686 17.497 109.686 19.747L109.686 33.292 102.531 33.292z"/>
    <polygon fill="#404040" points="114.681 33.292 122.511 33.292 122.511 .442 114.681 .442"/>
    <path fill="#404040" d="M135.831,20.108 L135.831,33.292 L128.001,33.292 L128.001,10.387 L135.201,10.387 L135.606,13.313 C136.295,12.203 137.195,11.363 138.306,10.792 C139.415,10.223 140.601,9.938 141.86,9.938 C143.211,9.938 144.44,10.238 145.55,10.837 C146.66,11.438 147.56,12.277 148.251,13.358 C149.061,12.248 150.118,11.4 151.423,10.815 C152.728,10.23 154.101,9.938 155.541,9.938 C157.13,9.938 158.533,10.305 159.748,11.04 C160.963,11.775 161.915,12.795 162.606,14.1 C163.295,15.405 163.641,16.912 163.641,18.622 L163.641,33.292 L155.811,33.292 L155.811,19.432 C155.811,18.473 155.547,17.708 155.023,17.137 C154.498,16.568 153.831,16.282 153.021,16.282 C152.03,16.282 151.235,16.597 150.635,17.228 C150.035,17.858 149.735,18.818 149.735,20.108 L149.735,33.292 L141.905,33.292 L141.905,19.432 C141.905,18.473 141.65,17.708 141.141,17.137 C140.63,16.568 139.94,16.282 139.07,16.282 C138.11,16.282 137.33,16.597 136.731,17.228 C136.13,17.858 135.831,18.818 135.831,20.108"/>
    <path fill="#009BFF" class='no-color-change' d="M172.731,33.787 C171.77,33.787 170.893,33.555 170.098,33.09 C169.303,32.625 168.673,31.995 168.208,31.2 C167.742,30.405 167.51,29.527 167.51,28.568 C167.51,27.608 167.742,26.73 168.208,25.935 C168.673,25.14 169.303,24.51 170.098,24.045 C170.893,23.58 171.77,23.347 172.731,23.347 C173.69,23.347 174.567,23.58 175.363,24.045 C176.157,24.51 176.788,25.14 177.253,25.935 C177.718,26.73 177.95,27.608 177.95,28.568 C177.95,29.527 177.718,30.405 177.253,31.2 C176.788,31.995 176.157,32.625 175.363,33.09 C174.567,33.555 173.69,33.787 172.731,33.787"/>
    <path fill="#404040" d="M10.534 42.454L11.662 42.454C12.032 42.454 12.325 42.363 12.54 42.181 12.756 41.998 12.864 41.749 12.864 41.434 12.864 41.119 12.756 40.871 12.54 40.688 12.325 40.506 12.032 40.415 11.662 40.415L10.534 40.415 10.534 42.454zM9.697 45.347L9.697 39.71 11.662 39.71C12.292 39.71 12.792 39.865 13.162 40.174 13.532 40.484 13.717 40.904 13.717 41.434 13.717 41.96 13.532 42.375 13.162 42.682 12.792 42.988 12.292 43.142 11.662 43.142L10.534 43.142 10.534 45.347 9.697 45.347zM15.408 43.225L17.464 43.225 16.436 40.581 15.408 43.225zM18.285 45.347L17.738 43.929 15.135 43.929 14.588 45.347 13.742 45.347 15.997 39.71 16.901 39.71 19.147 45.347 18.285 45.347zM20.921 42.371L22.073 42.371C22.432 42.371 22.718 42.283 22.931 42.106 23.144 41.929 23.25 41.691 23.25 41.393 23.25 41.095 23.144 40.857 22.931 40.68 22.718 40.503 22.432 40.415 22.073 40.415L20.921 40.415 20.921 42.371zM20.921 43.059L20.921 45.347 20.084 45.347 20.084 39.71 22.073 39.71C22.698 39.71 23.192 39.861 23.557 40.162 23.922 40.463 24.104 40.874 24.104 41.393 24.104 41.786 23.994 42.117 23.772 42.388 23.551 42.658 23.247 42.849 22.861 42.959L24.229 45.347 23.275 45.347 21.99 43.059 20.921 43.059z"/>
    <polyline fill="#404040" points="26.508 45.347 26.508 40.415 24.609 40.415 24.609 39.71 29.243 39.71 29.243 40.415 27.345 40.415 27.345 45.347 26.508 45.347"/>
    <path fill="#404040" d="M34.623,44.709 C34.988,44.709 35.313,44.616 35.597,44.431 C35.882,44.246 36.104,43.99 36.264,43.664 C36.425,43.338 36.505,42.959 36.505,42.528 C36.505,42.097 36.425,41.719 36.264,41.393 C36.104,41.067 35.882,40.811 35.597,40.626 C35.313,40.441 34.988,40.348 34.623,40.348 C34.258,40.348 33.935,40.441 33.653,40.626 C33.371,40.811 33.15,41.067 32.99,41.393 C32.83,41.719 32.75,42.097 32.75,42.528 C32.75,42.959 32.83,43.338 32.99,43.664 C33.15,43.99 33.371,44.246 33.653,44.431 C33.935,44.616 34.258,44.709 34.623,44.709 Z M34.623,45.438 C34.093,45.438 33.623,45.314 33.214,45.065 C32.805,44.816 32.483,44.474 32.248,44.037 C32.013,43.601 31.896,43.098 31.896,42.528 C31.896,41.96 32.013,41.457 32.248,41.02 C32.483,40.583 32.805,40.241 33.214,39.992 C33.623,39.743 34.093,39.619 34.623,39.619 C35.154,39.619 35.625,39.743 36.036,39.992 C36.448,40.241 36.771,40.583 37.007,41.02 C37.241,41.457 37.359,41.96 37.359,42.528 C37.359,43.098 37.241,43.601 37.007,44.037 C36.771,44.474 36.448,44.816 36.036,45.065 C35.625,45.314 35.154,45.438 34.623,45.438 Z"/>
    <polyline fill="#404040" points="39.373 45.347 38.536 45.347 38.536 39.71 42.042 39.71 42.042 40.415 39.373 40.415 39.373 42.322 41.636 42.322 41.636 43.026 39.373 43.026 39.373 45.347"/>
    <polyline fill="#404040" points="46.411 45.347 46.411 40.415 44.512 40.415 44.512 39.71 49.146 39.71 49.146 40.415 47.248 40.415 47.248 45.347 46.411 45.347"/>
    <polyline fill="#404040" points="50.108 45.347 50.108 39.71 50.945 39.71 50.945 42.123 53.854 42.123 53.854 39.71 54.692 39.71 54.692 45.347 53.854 45.347 53.854 42.843 50.945 42.843 50.945 45.347 50.108 45.347"/>
    <polyline fill="#404040" points="56.167 45.347 56.167 39.71 59.781 39.71 59.781 40.415 57.004 40.415 57.004 42.155 59.45 42.155 59.45 42.86 57.004 42.86 57.004 44.642 59.848 44.642 59.848 45.347 56.167 45.347"/>
    <path fill="#404040" d="M65.136 44.709C65.595 44.709 65.955 44.571 66.218 44.294 66.48 44.018 66.612 43.645 66.612 43.175L66.612 39.71 67.449 39.71 67.449 43.183C67.449 43.885 67.243 44.436 66.831 44.837 66.42 45.238 65.854 45.438 65.136 45.438 64.418 45.438 63.854 45.238 63.445 44.837 63.036 44.436 62.832 43.885 62.832 43.183L62.832 39.71 63.669 39.71 63.669 43.175C63.669 43.645 63.8 44.018 64.063 44.294 64.325 44.571 64.683 44.709 65.136 44.709M70.574 45.438C70.148 45.438 69.742 45.363 69.355 45.215 68.969 45.065 68.656 44.866 68.419 44.618L68.891 44.062C69.112 44.267 69.373 44.427 69.675 44.543 69.976 44.659 70.276 44.717 70.574 44.717 70.939 44.717 71.233 44.647 71.457 44.506 71.681 44.364 71.792 44.17 71.792 43.921 71.792 43.695 71.712 43.504 71.552 43.349 71.392 43.194 71.118 43.065 70.731 42.959L69.952 42.752C69.449 42.62 69.083 42.432 68.854 42.189 68.624 41.946 68.51 41.628 68.51 41.236 68.51 40.915 68.595 40.633 68.767 40.39 68.938 40.147 69.174 39.958 69.475 39.822 69.777 39.687 70.118 39.619 70.499 39.619 70.903 39.619 71.281 39.695 71.635 39.847 71.989 39.999 72.301 40.211 72.572 40.481L72.066 41.028C71.828 40.807 71.581 40.637 71.324 40.518 71.067 40.4 70.795 40.34 70.508 40.34 70.159 40.34 69.875 40.413 69.654 40.56 69.433 40.706 69.322 40.909 69.322 41.169 69.322 41.407 69.401 41.592 69.558 41.725 69.716 41.857 69.958 41.968 70.284 42.056L71.154 42.296C71.657 42.435 72.025 42.628 72.257 42.877 72.489 43.125 72.605 43.435 72.605 43.805 72.605 44.132 72.519 44.417 72.348 44.663 72.176 44.909 71.939 45.099 71.635 45.235 71.331 45.371 70.977 45.438 70.574 45.438M74.71 43.225L76.766 43.225 75.738 40.581 74.71 43.225zM77.587 45.347L77.04 43.929 74.437 43.929 73.89 45.347 73.044 45.347 75.299 39.71 76.202 39.71 78.449 45.347 77.587 45.347z"/>
    <polyline fill="#404040" points="82.345 45.347 82.345 40.415 80.446 40.415 80.446 39.71 85.08 39.71 85.08 40.415 83.182 40.415 83.182 45.347 82.345 45.347"/>
    <path fill="#404040" d="M88.098 44.709C88.462 44.709 88.787 44.616 89.072 44.431 89.356 44.246 89.579 43.99 89.739 43.664 89.899 43.338 89.979 42.959 89.979 42.528 89.979 42.097 89.899 41.719 89.739 41.393 89.579 41.067 89.356 40.811 89.072 40.626 88.787 40.441 88.462 40.348 88.098 40.348 87.733 40.348 87.41 40.441 87.128 40.626 86.846 40.811 86.625 41.067 86.465 41.393 86.304 41.719 86.224 42.097 86.224 42.528 86.224 42.959 86.304 43.338 86.465 43.664 86.625 43.99 86.846 44.246 87.128 44.431 87.41 44.616 87.733 44.709 88.098 44.709zM88.098 45.438C87.567 45.438 87.098 45.314 86.688 45.065 86.28 44.816 85.958 44.474 85.723 44.037 85.488 43.601 85.37 43.098 85.37 42.528 85.37 41.96 85.488 41.457 85.723 41.02 85.958 40.583 86.28 40.241 86.688 39.992 87.098 39.743 87.567 39.619 88.098 39.619 88.628 39.619 89.099 39.743 89.511 39.992 89.922 40.241 90.246 40.583 90.481 41.02 90.715 41.457 90.833 41.96 90.833 42.528 90.833 43.098 90.715 43.601 90.481 44.037 90.246 44.474 89.922 44.816 89.511 45.065 89.099 45.314 88.628 45.438 88.098 45.438zM92.847 44.642L93.991 44.642C94.389 44.642 94.73 44.555 95.015 44.381 95.299 44.207 95.518 43.963 95.67 43.648 95.822 43.333 95.898 42.959 95.898 42.528 95.898 42.097 95.822 41.725 95.67 41.41 95.518 41.095 95.299 40.85 95.015 40.676 94.73 40.502 94.389 40.415 93.991 40.415L92.847 40.415 92.847 44.642zM92.01 45.347L92.01 39.71 93.991 39.71C94.544 39.71 95.027 39.828 95.442 40.063 95.856 40.297 96.178 40.626 96.408 41.049 96.637 41.472 96.752 41.965 96.752 42.528 96.752 43.092 96.637 43.585 96.408 44.008 96.178 44.431 95.856 44.76 95.442 44.995 95.027 45.229 94.544 45.347 93.991 45.347L92.01 45.347zM98.89 43.225L100.946 43.225 99.918 40.581 98.89 43.225zM101.767 45.347L101.22 43.929 98.617 43.929 98.07 45.347 97.224 45.347 99.479 39.71 100.382 39.71 102.629 45.347 101.767 45.347z"/>
    <polyline fill="#404040" points="105.199 43.109 105.199 45.347 104.361 45.347 104.361 43.109 102.38 39.71 103.367 39.71 104.784 42.313 106.202 39.71 107.172 39.71 105.199 43.109"/>
    <polyline fill="#404040" points="113.869 45.347 110.86 41.028 110.86 45.347 110.073 45.347 110.073 39.71 110.852 39.71 113.869 44.029 113.869 39.71 114.649 39.71 114.649 45.347 113.869 45.347"/>
    <polyline fill="#404040" points="116.124 45.347 116.124 39.71 119.738 39.71 119.738 40.415 116.961 40.415 116.961 42.155 119.407 42.155 119.407 42.86 116.961 42.86 116.961 44.642 119.804 44.642 119.804 45.347 116.124 45.347"/>
    <polyline fill="#404040" points="122.291 45.347 122.291 40.415 120.393 40.415 120.393 39.71 125.027 39.71 125.027 40.415 123.128 40.415 123.128 45.347 122.291 45.347"/>
    <polyline fill="#404040" points="130.498 45.347 129.18 40.854 127.862 45.347 126.991 45.347 125.491 39.71 126.32 39.71 127.464 44.17 128.782 39.71 129.577 39.71 130.904 44.187 132.056 39.71 132.868 39.71 131.368 45.347 130.498 45.347"/>
    <path fill="#404040" d="M136.193 44.709C136.558 44.709 136.882 44.616 137.167 44.431 137.451 44.246 137.674 43.99 137.834 43.664 137.994 43.338 138.074 42.959 138.074 42.528 138.074 42.097 137.994 41.719 137.834 41.393 137.674 41.067 137.451 40.811 137.167 40.626 136.882 40.441 136.558 40.348 136.193 40.348 135.828 40.348 135.505 40.441 135.223 40.626 134.941 40.811 134.72 41.067 134.56 41.393 134.399 41.719 134.319 42.097 134.319 42.528 134.319 42.959 134.399 43.338 134.56 43.664 134.72 43.99 134.941 44.246 135.223 44.431 135.505 44.616 135.828 44.709 136.193 44.709zM136.193 45.438C135.662 45.438 135.192 45.314 134.783 45.065 134.375 44.816 134.053 44.474 133.818 44.037 133.583 43.601 133.466 43.098 133.466 42.528 133.466 41.96 133.583 41.457 133.818 41.02 134.053 40.583 134.375 40.241 134.783 39.992 135.192 39.743 135.662 39.619 136.193 39.619 136.723 39.619 137.194 39.743 137.606 39.992 138.018 40.241 138.341 40.583 138.576 41.02 138.811 41.457 138.928 41.96 138.928 42.528 138.928 43.098 138.811 43.601 138.576 44.037 138.341 44.474 138.018 44.816 137.606 45.065 137.194 45.314 136.723 45.438 136.193 45.438zM140.943 42.371L142.095 42.371C142.454 42.371 142.74 42.283 142.953 42.106 143.165 41.929 143.272 41.691 143.272 41.393 143.272 41.095 143.165 40.857 142.953 40.68 142.74 40.503 142.454 40.415 142.095 40.415L140.943 40.415 140.943 42.371zM140.943 43.059L140.943 45.347 140.105 45.347 140.105 39.71 142.095 39.71C142.719 39.71 143.214 39.861 143.578 40.162 143.943 40.463 144.126 40.874 144.126 41.393 144.126 41.786 144.015 42.117 143.794 42.388 143.573 42.658 143.269 42.849 142.882 42.959L144.25 45.347 143.297 45.347 142.012 43.059 140.943 43.059z"/>
    <polyline fill="#404040" points="148.676 45.347 146.148 42.504 146.148 45.347 145.311 45.347 145.311 39.71 146.148 39.71 146.148 42.181 148.51 39.71 149.547 39.71 147.035 42.296 149.729 45.347 148.676 45.347"/>
  </g>
</svg>
