<?xml version="1.0" encoding="UTF-8" standalone="no"?>
<svg width="578px" height="76px" viewBox="0 0 578 76" version="1.1" xmlns="http://www.w3.org/2000/svg" xmlns:xlink="http://www.w3.org/1999/xlink" xmlns:sketch="http://www.bohemiancoding.com/sketch/ns">
    <!-- Generator: Sketch 3.4.2 (15857) - http://www.bohemiancoding.com/sketch -->
    <title>TucsonCitizen</title>
    <desc>Created with Sketch.</desc>
    <defs>
        <path id="path-1" d="M0.06,0.634 L577.981,0.634 L577.981,76 L0.06,76"></path>
        <path id="path-3" d="M0.06,0.634 L577.981,0.634 L577.981,76 L0.06,76"></path>
    </defs>
    <g id="Page-1" stroke="none" stroke-width="1" fill="none" fill-rule="evenodd" sketch:type="MSPage">
        <g id="TucsonCitizen" sketch:type="MSLayerGroup">
            <g id="Group-4">
                <mask id="mask-2" sketch:name="Clip 2" fill="white">
                    <use xlink:href="#path-1"></use>
                </mask>
                <g id="Clip-2"></g>
                <path d="M350.192,0.969 C351.083,1.248 352.032,1.248 352.977,1.359 C353.422,1.805 354.315,1.972 355.094,1.86 C355.485,2.306 356.266,2.473 357.043,2.417 C357.879,3.086 358.938,3.198 359.885,3.643 C363.786,5.592 367.797,7.376 370.637,10.885 C370.637,11.832 369.301,12.278 369.022,13.169 C366.739,14.896 365.122,16.846 363.061,18.796 C362.227,19.186 361,18.963 360.721,18.072 L360.721,17.013 C361.11,16.456 361.5,15.398 361.11,14.562 C359.829,9.938 355.094,8.378 350.694,7.487 L350.694,7.32 C339.497,5.481 330.249,8.712 324.622,16.512 C321.557,20.356 319.887,25.147 319.663,30.773 L319.497,30.773 C319.274,32.89 319.274,35.341 319.497,37.458 C319.997,41.471 321.11,45.814 322.672,49.271 C324.176,51.33 325.29,54.229 327.239,55.787 C329.635,59.576 333.256,61.859 336.934,64.256 C338.381,64.59 338.995,65.982 340.833,65.871 C341,66.262 341.557,66.484 342.059,66.373 C342.616,66.932 343.84,66.707 344.344,67.432 L345.235,67.432 C345.68,67.877 346.516,68.045 347.352,67.988 L347.352,68.156 L351.25,68.49 L351.25,68.656 C352.809,68.936 354.76,68.936 356.321,68.656 C360.219,68.379 363.674,66.318 364.956,62.863 C365.344,61.916 366.739,62.361 367.461,62.473 L367.629,73.783 C367.407,74.506 366.403,74.115 365.846,74.506 C362.95,75.676 358.549,75.064 355.262,75.732 C353.145,75.008 350.137,75.621 347.684,75.174 C347.184,74.729 346.293,74.563 345.403,74.674 C345.067,73.949 343.897,74.563 343.286,74.115 C342.616,73.504 341.055,73.949 340.499,73.057 L339.942,73.057 C339.329,72.445 337.825,72.891 337.323,71.998 C335.985,71.443 334.481,71.107 333.256,70.272 C330.471,68.99 327.909,67.209 325.344,65.482 C324.844,64.981 324.286,63.922 323.395,63.756 C321.168,61.748 318.883,59.521 317.379,57.236 C314.926,53.727 312.977,50.33 311.586,46.096 C310.026,42.307 309.524,37.404 309.301,32.723 C309.969,32.445 309.356,29.771 309.801,28.49 L309.969,28.49 C310.249,27.598 310.249,26.595 310.36,25.648 C310.805,25.425 310.973,24.701 310.86,24.088 C311.473,23.531 311.028,22.082 311.918,21.637 C311.696,20.747 312.532,20.523 312.477,19.687 C317.657,8.044 329.301,1.693 342.616,0.634 L350.192,0.802 L350.192,0.969" id="Fill-1" fill="#1A1918" sketch:type="MSShapeGroup" mask="url(#mask-2)"></path>
                <path d="M60.611,3.977 C61.727,4.255 60.668,5.872 61.503,6.261 C61.727,6.651 60.611,7.041 61.503,7.153 L61.503,7.487 C61.336,7.431 61.225,7.598 61.169,7.71 C61.781,8.044 61.392,9.103 61.503,9.827 C61.336,9.771 61.225,9.882 61.169,9.994 C61.781,10.329 61.392,11.387 61.503,12.111 C61.336,12.055 61.225,12.166 61.169,12.278 C61.447,12.612 61.56,12.947 61.503,13.503 C60.946,13.671 61.169,14.618 60.611,14.729 C59.163,15.064 58.384,14.395 58.495,13.002 C57.437,12.055 57.548,9.771 55.319,10.162 L55.319,9.994 L35.766,9.994 L35.598,21.637 C35.431,21.582 35.319,21.693 35.264,21.804 C35.319,21.86 35.431,22.028 35.598,21.972 C34.595,22.751 36.1,23.253 35.598,24.422 C35.431,24.367 35.319,24.534 35.264,24.589 C35.543,25.147 35.653,25.648 35.598,26.373 C35.431,26.317 35.319,26.428 35.264,26.54 C35.877,26.874 35.486,27.932 35.598,28.657 C35.431,28.601 35.319,28.768 35.264,28.824 C35.877,29.103 35.486,30.105 35.598,30.773 C35.152,30.717 35.264,31.219 35.264,31.498 C35.319,31.721 35.097,32.055 35.431,32.166 L35.598,32.166 C34.539,32.834 36.1,33.114 35.598,34.116 C35.431,34.061 35.319,34.228 35.264,34.284 L35.598,35.174 L35.766,70.607 C36.489,71.889 37.827,72.557 39.275,72.891 C39.609,73.393 39.387,74.061 39.497,74.674 L38.606,75.174 L28.189,75.174 C28.244,75.008 28.133,74.951 28.022,74.842 C27.019,75.455 25.292,75.064 23.955,75.174 C23.844,74.506 22.897,75.119 22.561,74.674 C21.393,71.553 25.849,72.891 26.238,70.049 L26.238,69.381 L26.406,69.381 L26.629,34.451 L26.406,34.284 C26.572,33.615 26.852,33.503 26.238,32.556 C26.406,32.613 26.518,32.445 26.629,32.389 C26.518,31.999 25.849,31.609 26.629,31.498 C26.518,31.386 26.406,31.275 26.238,31.331 C26.685,31.164 26.629,30.55 26.629,30.049 C26.294,29.882 26.184,29.771 26.238,29.381 L26.238,28.824 C26.406,28.879 26.518,28.768 26.629,28.657 L26.238,27.765 L26.238,10.329 L25.904,9.827 C18.551,9.882 12.59,9.659 5.794,9.994 C3.899,9.771 4.011,12.111 2.841,12.78 C3.343,14.729 1.337,14.786 0.167,14.562 L0,4.534 L0.501,3.81 L60.611,3.977" id="Fill-3" fill="#1A1918" sketch:type="MSShapeGroup" mask="url(#mask-2)"></path>
            </g>
            <path d="M435.317,8.545 C435.93,9.492 435.54,11.164 435.653,12.445 C434.926,12.501 435.54,13.392 435.094,13.671 C434.147,14.896 433.088,16.178 431.418,16.512 L428.411,16.679 C427.629,16.233 426.848,15.843 426.125,15.287 C425.067,13.559 422.95,11.554 424.565,9.103 C424.508,8.156 425.512,7.821 425.624,6.818 C425.792,6.818 426.012,6.874 426.125,6.651 L426.125,6.261 C427.907,4.868 430.971,4.813 432.809,5.927 C434.09,6.54 434.536,7.487 435.317,8.545" id="Fill-5" fill="#1A1918" sketch:type="MSShapeGroup"></path>
            <path d="M380.499,5.203 C381.223,5.815 382.838,5.37 383.508,6.261 C384.733,6.93 385.846,8.323 386.125,9.827 L386.293,12.445 C385.625,12.501 386.237,13.392 385.792,13.671 C384.844,15.899 382.45,16.456 380.11,16.846 L378.549,16.679 C377.77,16.345 377.1,15.788 376.432,15.287 C374.872,13.838 374.315,11.665 374.872,9.27 C375.54,9.27 374.926,8.434 375.374,8.211 C376.098,6.54 377.993,5.705 379.774,5.592 C379.942,5.258 380.11,5.203 380.499,5.203" id="Fill-6" fill="#1A1918" sketch:type="MSShapeGroup"></path>
            <g id="Group-11" fill="#1A1918" sketch:type="MSShapeGroup">
                <path d="M404.286,11.943 L404.454,26.373 C407.629,26.818 412.086,26.206 415.54,26.874 C414.983,28.266 416.821,31.498 414.704,31.999 L405.178,31.999 L404.286,33.057 C404.844,43.531 403.786,55.9 405.178,66.707 C405.401,68.268 407.293,68.99 408.352,69.881 C411.528,70.385 413.813,69.436 415.206,67.098 C415.54,66.65 415.262,66.15 415.708,65.871 L417.657,65.871 C417.1,68.99 418.938,72.834 416.598,74.283 C413.2,74.842 409.915,75.396 406.012,75.174 C405.68,74.674 404.788,74.674 404.12,74.674 C403.452,74.283 402.95,74.006 402.168,73.615 C401.055,72.891 399.885,72.057 398.993,71.107 C397.043,68.322 396.153,64.869 396.375,60.912 L396.153,32.556 C395.93,32.222 395.485,32.445 395.094,32.389 L395.094,32.166 C393.536,31.888 391.696,32.055 390.024,31.999 C389.022,30.885 389.635,28.824 389.469,27.264 C391.305,25.927 395.04,27.765 396.375,25.648 L396.543,12.612 C398.604,12.111 400.61,11.554 402.67,11.052 C403.729,10.83 403.895,11.331 404.286,11.943" id="Fill-7"></path>
                <path d="M560.61,25.147 C561.446,25.815 562.504,25.982 563.395,26.373 C565.456,27.153 567.071,28.211 568.688,29.547 C571.473,33.169 573.422,37.18 573.477,42.416 C572.866,42.863 573.813,43.086 573.645,43.475 C573.477,51.943 573.868,58.908 573.981,67.264 L574.147,67.264 C573.534,68.213 574.258,69.271 574.536,70.439 C575.094,72.111 579.329,71.443 577.545,73.615 C572.418,73.838 566.961,73.838 561.834,73.615 C561.668,71.053 564.788,72.166 565.344,69.881 C565.958,65.537 565.735,60.299 565.512,55.621 L565.344,55.621 C565.399,55.455 565.903,55.342 565.735,54.896 L565.512,54.728 C565.067,54.728 565.735,54.785 565.735,54.562 L565.344,53.67 C565.512,53.727 565.622,53.615 565.735,53.504 C565.678,53.057 565.846,51.053 565.512,49.994 C564.397,44.424 566.737,37.458 562.168,33.949 C560.331,33.057 558.938,31.331 556.543,31.331 L556.543,31.108 C550.024,29.715 545.567,32.667 541.389,36.066 C541.446,36.4 541.333,36.958 540.887,36.791 L539.606,38.684 L539.829,69.715 C540.331,71.107 542.059,71.998 543.504,72.389 L543.504,73.783 C543.284,73.838 542.95,73.615 542.782,73.949 L528.352,74.115 C527.684,73.893 528.129,72.947 528.02,72.389 C529.243,71.889 530.749,71.33 531.36,70.049 C532.141,59.854 531.36,47.822 531.36,37.848 L531.194,35.899 C531.305,35.955 531.418,35.788 531.528,35.732 C530.637,34.061 531.864,31.108 530.469,29.715 C529.969,28.657 528.854,28.156 527.461,28.156 L527.461,26.206 L538.547,26.206 C540.051,26.986 537.602,32.556 540.887,29.882 C546.125,26.206 552.586,23.809 560.61,25.147" id="Fill-9"></path>
                <path d="M124.957,25.314 L130.417,25.648 C130.862,26.094 131.697,26.261 132.534,26.206 C132.868,26.707 133.703,26.651 134.261,26.874 C138.16,28.211 141.503,30.55 144.344,33.392 C142.562,36.29 139.553,38.406 137.436,41.025 C136.712,40.689 135.486,40.299 135.542,39.242 C136.1,38.295 136.656,37.514 136.377,36.066 C134.539,32.89 131.363,31.275 127.408,31.331 L127.408,31.108 C124.011,30.663 120.835,31.052 118.05,32.166 C112.868,33.949 110.25,38.629 108.745,43.811 C107.687,52.502 109.637,60.244 115.431,64.59 C118.829,66.986 121.781,69.271 126.517,69.549 L126.517,69.715 C129.804,70.105 134.595,70.773 136.768,68.49 C138.494,67.932 137.714,64.201 140.611,65.871 L140.834,74.674 C136.656,76.346 130.806,75.9 125.848,75.732 C125.292,75.287 124.288,75.119 123.342,75.174 C123.007,74.674 122.115,74.674 121.447,74.674 C120.891,74.061 119.386,74.506 118.939,73.615 C117.826,73.447 117.046,72.502 115.932,72.389 C107.687,68.936 100.723,61.525 99.386,52.111 L99.219,45.76 L99.386,45.76 C99.72,44.98 99.442,43.922 99.72,43.086 C100.389,42.473 99.943,40.971 100.778,40.467 C101.503,36.734 104.4,34.339 106.628,31.665 C111.419,27.765 116.99,25.538 124.066,25.314 L124.066,25.147 L124.957,25.147 L124.957,25.314" id="Fill-10"></path>
            </g>
            <path d="M265.235,25.815 L269.135,26.206 C269.747,26.707 270.861,26.651 271.753,26.874 C275.096,28.156 277.993,30.663 279.831,33.782 C283.341,38.908 282.003,47.654 282.338,53.838 L282.672,70.439 C283.062,72.057 284.9,72.389 286.182,72.891 L286.182,74.674 L270.861,74.674 C270.416,74.34 270.249,73.949 270.36,73.225 C271.586,72.834 272.923,72.611 273.87,71.498 L274.594,69.715 L274.204,48.6 L274.037,48.6 L274.371,48.213 L274.204,48.045 C274.037,42.863 274.428,36.958 270.137,34.116 C268.855,33.281 267.352,32.947 265.959,32.389 L265.959,32.166 C258.939,30.606 253.703,33.559 249.747,37.848 C248.467,37.848 249.302,39.855 248.3,40.299 C248.243,48.824 248.41,57.125 248.855,65.482 C248.688,65.426 248.577,65.592 248.467,65.648 C248.577,65.76 248.688,65.928 248.855,65.871 C249.022,66.205 247.965,66.596 248.855,66.707 L248.855,67.098 C248.688,67.041 248.577,67.154 248.467,67.264 C249.19,68.156 248.577,69.939 249.022,71.107 C249.636,73.002 252.7,72.389 252.199,74.674 C247.129,74.896 241.726,74.896 236.655,74.674 C236.043,72.891 237.826,73.002 238.772,72.557 C239.553,71.943 240.165,71.221 240.555,70.272 L240.221,47.709 L240.054,47.709 L240.054,47.32 C240.165,47.375 240.277,47.264 240.388,47.154 L240.221,46.986 C239.942,42.139 239.942,36.624 239.664,31.832 C239.608,30.717 238.605,29.659 237.547,29.381 C237.157,28.991 236.321,29.437 236.154,28.824 L236.154,27.431 C239.887,27.153 243.897,27.153 247.63,27.431 C248.243,28.545 247.854,29.771 247.965,31.331 C248.3,31.386 248.688,31.943 249.022,31.498 C248.911,31.386 248.801,31.275 248.688,31.331 L248.688,31.108 C249.58,31.776 250.416,30.439 251.308,29.882 C252.589,28.935 254.261,28.211 255.876,27.765 C257.993,26.373 260.667,26.094 263.619,26.039 C263.786,25.37 264.678,25.759 265.235,25.648 L265.235,25.815" id="Fill-12" fill="#1A1918" sketch:type="MSShapeGroup"></path>
            <path d="M170.082,26.206 C170.861,26.707 172.199,26.651 173.258,26.874 C173.258,27.598 174.149,26.986 174.483,27.431 C177.547,28.879 181.225,30.105 183.285,32.89 C181.279,35.454 179.274,38.015 177.102,40.467 C176.544,40.523 176.154,40.021 175.542,39.967 L175.542,37.625 L175.709,37.625 C176.044,37.069 175.82,36.233 175.876,35.508 C174.762,33.224 172.088,32.055 169.358,31.832 L169.358,31.665 C164.511,30.941 158.995,31.052 155.987,34.284 C155.319,35.899 154.316,37.292 154.929,39.408 C156.823,42.25 160.333,43.977 163.898,44.701 C164.121,45.314 165.124,44.98 165.681,45.203 C166.07,45.648 166.962,45.873 167.798,45.76 C168.188,46.205 169.079,46.373 169.859,46.262 C170.138,46.873 171.085,46.541 171.643,46.818 C171.864,47.375 172.701,47.209 173.258,47.32 C173.814,47.877 174.984,47.654 175.542,48.379 C178.383,49.047 180.667,51.107 182.394,53.338 C183.619,55.287 184.901,56.902 184.845,59.687 L185.068,59.687 L185.068,60.021 C184.901,59.967 184.789,60.133 184.678,60.189 C185.347,60.523 184.901,61.639 185.068,62.307 C184.567,62.975 184.567,64.201 184.344,65.146 C181.67,72.279 173.982,75.842 165.458,75.9 L158.772,75.732 C158.271,75.287 157.38,75.119 156.488,75.174 C156.267,74.617 155.431,74.785 154.929,74.674 C154.985,74.006 154.205,74.563 154.038,74.115 C150.138,72.834 146.35,70.717 144.177,67.264 C144.567,66.373 145.458,66.484 145.736,65.482 C146.739,65.146 147.297,63.978 148.021,63.197 C149.637,62.529 150.194,60.523 151.92,60.357 C152.422,60.803 153.369,61.137 153.146,62.139 C152.144,62.807 152.422,64.533 152.589,65.648 C153.814,68.045 156.377,69.047 158.94,69.549 C159.609,70.049 161.002,69.994 161.781,70.272 C168.188,71.609 172.868,69.047 176.044,65.146 C176.377,63.756 176.99,61.748 176.211,60.189 C174.316,56.178 169.581,55.008 165.291,54.061 C164.957,53.561 163.954,53.561 163.563,53.338 C162.951,53.002 162.061,53.338 161.446,53.002 C161.169,52.557 160.501,52.389 159.831,52.445 C159.553,51.998 158.885,51.832 158.271,51.943 C157.436,51.33 156.488,51.053 155.598,50.717 C151.53,48.6 147.019,45.648 147.13,40.133 C146.962,39.799 146.739,38.572 147.353,38.35 L147.52,35.899 C148.077,35.676 147.91,34.84 148.021,34.284 C152.422,27.431 160.945,24.924 170.082,26.206" id="Fill-13" fill="#1A1918" sketch:type="MSShapeGroup"></path>
            <path d="M385.235,26.707 L385.625,69.881 C386.403,70.662 386.739,71.943 388.075,72.166 C388.856,72.389 389.411,72.389 389.801,73.057 L389.635,74.115 C384.008,74.397 378.047,74.397 372.364,74.115 C371.586,71.164 375.317,72.668 376.098,70.773 L376.766,69.549 L376.989,40.635 C377.1,40.689 377.211,40.58 377.323,40.467 L376.989,39.967 C376.432,36.123 378.493,30.272 374.481,28.824 C373.702,28.657 372.754,28.824 372.364,28.156 C372.032,26.93 372.868,26.54 373.813,26.54 C375.317,26.428 377.211,26.818 378.381,26.206 L378.381,26.373 L385.235,26.707" id="Fill-14" fill="#1A1918" sketch:type="MSShapeGroup"></path>
            <path d="M434.76,26.874 L434.76,69.213 C435.149,70.328 436.042,71.221 437.043,71.832 L437.768,71.832 C438.047,72.445 439.329,71.998 439.329,72.891 C439.497,73.615 439.161,73.783 438.827,74.115 C432.868,74.451 427.797,74.229 421.891,74.115 C421.557,73.67 421.78,72.947 421.723,72.389 C423.452,71.998 425.458,71.275 426.125,69.549 L426.125,68.824 L426.293,68.824 L426.459,31.498 C426.348,30.663 425.401,30.329 425.235,29.381 C424.063,28.935 423.284,27.989 421.723,28.156 C421.78,27.431 421.5,26.428 422.282,26.206 L434.258,26.206 L434.76,26.874" id="Fill-15" fill="#1A1918" sketch:type="MSShapeGroup"></path>
            <g id="Group-21">
                <mask id="mask-4" sketch:name="Clip 17" fill="white">
                    <use xlink:href="#path-3"></use>
                </mask>
                <g id="Clip-17"></g>
                <path d="M459.997,26.206 C459.942,26.373 460.051,26.428 460.165,26.54 C460.442,26.484 460.165,26.094 460.499,26.206 L461,26.206 C461,26.373 461.11,26.428 461.223,26.54 C461.278,26.428 461.446,26.373 461.389,26.206 C461.891,26.762 463.227,26.595 464.008,26.373 L464.008,26.206 C464.118,26.206 464.454,26.874 464.731,26.373 L464.731,26.206 L465.067,26.54 L465.235,26.373 L470.692,26.206 C470.637,26.373 470.805,26.428 470.917,26.54 C470.971,26.428 471.137,26.373 471.083,26.206 L471.418,26.54 C471.528,26.428 471.641,26.373 471.584,26.206 C472.03,26.039 472.196,26.93 472.643,26.373 L472.643,26.206 L473.032,26.206 C472.977,26.373 473.088,26.428 473.2,26.54 C473.981,25.927 475.54,26.317 476.711,26.206 C476.653,26.373 476.766,26.428 476.875,26.54 C476.989,26.428 477.1,26.373 477.043,26.206 C477.434,26.818 478.604,26.428 479.329,26.54 C481.555,32.834 475.93,34.785 474.258,38.908 C467.741,48.824 460.442,57.514 453.981,67.432 L454.147,68.156 C461.446,68.045 470.024,69.271 476.375,67.098 C477.434,65.814 478.547,64.701 478.993,63.029 C479.606,62.807 480.61,62.639 481.11,63.197 L481.11,73.615 L477.768,73.949 L477.768,74.115 C477.602,74.115 477.434,73.561 477.043,73.783 L476.875,73.949 C476.875,74.397 476.934,73.783 476.711,73.783 C476.264,74.451 475.094,74.006 474.258,74.115 C474.313,73.949 474.147,73.893 474.09,73.783 C473.924,73.727 473.813,73.838 473.702,73.949 C473.702,74.397 473.758,73.783 473.536,73.783 C472.922,74.451 471.528,74.006 470.526,74.115 C470.583,73.949 470.469,73.893 470.36,73.783 L470.192,73.949 L443.563,74.115 C442.282,73.002 443.118,70.385 442.895,68.49 C447.575,62.084 452.477,55.287 457.157,48.379 C460.944,43.252 464.899,37.625 468.243,32.166 C462.727,31.943 456.875,31.943 451.362,32.166 C449.079,32.723 448.075,34.896 447.127,36.791 C446.459,36.567 445.176,37.18 445.176,36.233 L445.176,26.707 L459.106,26.54 C459.161,26.039 459.606,26.261 459.997,26.206" id="Fill-16" fill="#1A1918" sketch:type="MSShapeGroup" mask="url(#mask-4)"></path>
                <path d="M61.67,60.746 C62.172,61.416 62.172,62.639 62.395,63.531 C63.342,66.373 66.017,68.322 68.745,69.213 C76.601,70.662 82.395,66.986 86.907,62.139 L86.685,31.665 C86.071,29.938 84.734,29.27 82.841,29.214 C82.339,28.935 82.506,28.323 82.45,27.765 L83.007,27.431 C86.795,27.153 90.862,27.153 94.651,27.431 L95.152,27.932 L95.543,69.549 C95.82,70.607 96.154,71.998 97.436,72.389 C97.771,72.947 98.885,72.668 99.219,73.225 C99.776,74.115 99.052,75.064 98.16,75.174 L94.261,75.174 C94.316,74.896 93.982,74.785 93.76,74.842 C92.534,75.455 90.584,75.064 88.969,75.174 C88.913,74.506 87.966,75.119 87.576,74.674 C87.464,73.281 87.13,71.666 87.241,70.049 L86.685,69.715 C80.611,74.451 72.534,77.57 63.453,75.174 C63.509,74.506 62.729,75.064 62.562,74.674 C57.882,72.725 54.038,68.656 53.927,62.863 C53.146,59.912 53.982,55.174 53.202,53.002 C53.648,52.834 53.593,52.223 53.593,51.721 C53.48,51.666 53.369,51.498 53.202,51.553 L53.202,51.221 C53.369,51.275 53.48,51.164 53.593,51.053 C53.48,50.941 53.369,50.83 53.202,50.885 C54.094,50.049 52.812,49.438 53.202,48.213 C53.369,48.268 53.48,48.156 53.593,48.045 C53.035,47.543 53.314,45.037 53.202,43.475 C53.369,43.531 53.48,43.365 53.593,43.309 C52.925,42.416 53.314,40.803 53.202,39.576 C53.369,39.631 53.48,39.521 53.593,39.408 L53.202,38.908 C52.646,35.565 54.762,30.162 50.751,29.214 C49.804,29.492 49.581,28.712 48.969,28.49 C48.745,27.765 49.414,27.821 49.526,27.264 L61.503,27.431 L61.67,60.746" id="Fill-18" fill="#1A1918" sketch:type="MSShapeGroup" mask="url(#mask-4)"></path>
                <path d="M499.106,30.773 C495.651,32.389 492.141,34.339 490.637,38.015 C490.805,39.074 489.69,39.299 489.579,40.133 C489.579,40.635 489.524,41.357 489.02,41.525 L489.02,42.92 C489.579,42.975 490.192,42.807 490.637,43.086 L490.637,43.309 C491.584,43.197 492.866,43.588 493.477,42.92 C493.702,42.92 493.645,43.588 493.645,43.086 C494.09,42.473 493.981,43.588 494.536,43.309 C494.704,42.584 496.264,43.197 496.096,42.92 C496.711,43.029 497.657,42.641 497.879,43.309 C503.952,42.584 510.915,43.197 517.266,42.752 C517.711,40.357 516.543,38.908 516.208,36.958 L515.819,36.958 C515.819,35.843 514.76,35.565 514.594,34.451 C514.09,34.005 513.145,34.061 513.032,33.057 C511.418,32.055 510.024,30.773 507.907,30.606 C505.458,29.325 501.389,29.938 499.106,30.773 L499.106,30.773 Z M505.067,24.756 L509.133,25.147 C509.467,25.592 510.192,25.759 510.915,25.648 C511.473,26.261 512.643,25.982 513.2,26.707 C515.485,27.264 517.155,28.991 519.161,30.049 C519.551,30.606 520.051,31.108 520.61,31.498 C522.336,34.506 524.899,36.4 525.344,40.299 C526.012,42.641 526.961,44.98 526.571,48.045 C526.125,48.268 525.458,48.322 525.176,48.6 L489.02,48.768 C488.243,50.439 489.02,52.389 489.02,54.229 C489.133,55.787 490.36,56.902 490.469,58.463 C491.584,59.799 492.364,61.191 493.254,62.863 C495.428,64.924 497.768,66.373 500.497,67.432 C505.79,69.994 515.317,69.715 519.551,65.871 C521.555,65.26 521.167,61.639 523.952,63.029 L523.952,71.107 C518.604,73.727 512.141,74.842 505.29,74.842 C504.788,74.506 504.063,74.729 503.506,74.674 L503.506,74.506 C501.055,74.283 499.161,73.561 496.989,73.057 C496.543,72.445 495.206,72.891 494.872,71.998 C492.809,71.33 491.028,69.939 489.245,68.656 C488.409,68.156 488.186,67.541 487.293,67.098 C487.293,66.873 487.352,66.65 487.127,66.541 C486.012,65.814 485.067,64.59 484.454,63.197 C483.395,62.473 483.004,61.08 482.336,60.021 C480.944,56.01 479.274,51.943 479.885,46.65 L480.051,46.65 L480.387,42.92 C480.944,42.697 480.778,41.916 480.944,41.357 C481.723,41.303 480.887,40.133 481.668,40.133 C482.836,36.4 485.458,33.224 488.186,30.606 C492.252,27.654 496.208,24.701 502.282,24.98 C502.836,24.311 504.118,24.701 505.067,24.589 L505.067,24.756 L505.067,24.756 Z" id="Fill-19" fill="#1A1918" sketch:type="MSShapeGroup" mask="url(#mask-4)"></path>
                <path d="M206.35,32.556 C205.402,33.281 204.121,33.224 203.175,34.116 C199.163,35.899 197.492,40.021 196.154,43.811 C195.709,44.311 196.321,45.369 195.598,45.592 C195.43,49.103 195.208,53.447 195.82,56.514 C196.656,62.139 200.388,66.764 205.458,68.656 C205.793,69.104 206.685,68.49 206.739,69.213 C207.296,69.436 208.244,69.104 208.467,69.715 L214.817,69.549 C219.386,68.768 223.006,65.369 225.235,61.639 C225.402,60.189 226.572,59.186 226.627,57.738 C227.073,57.404 226.461,56.4 227.186,56.346 C227.018,55.342 227.408,54.562 227.519,53.67 L227.687,53.67 C227.854,49.715 227.519,46.096 226.461,42.92 C226.461,40.857 224.957,39.967 224.511,38.184 C222.672,35.621 219.887,33.782 217.102,32.723 C216.822,32.278 215.932,32.89 215.876,32.166 C212.812,32.055 209.079,31.609 206.35,32.556 L206.35,32.556 Z M215.375,25.815 C216.21,25.982 217.045,26.261 217.993,26.206 C218.605,26.707 219.775,26.651 220.667,26.874 C223.508,28.657 226.851,29.659 229.302,32.166 C229.135,32.613 229.525,32.78 229.636,33.057 C230.583,33.615 230.918,34.673 231.753,35.508 C235.375,40.58 237.157,47.098 236.321,54.728 C236.154,54.674 235.932,54.896 235.987,55.119 C235.709,59.074 233.479,63.42 231.028,66.932 C228.688,70.607 224.789,72.668 220.834,74.506 C217.045,76.232 211.642,75.955 206.906,75.732 C206.405,75.287 205.458,75.119 204.622,75.174 C204.232,74.674 203.396,74.674 202.673,74.674 C201.837,74.061 200.945,73.783 199.999,73.447 C193.035,70.551 189.023,63.531 187.186,56.514 C186.906,53.727 186.183,51.33 186.461,48.213 L186.628,48.213 L186.962,45.037 C187.687,44.814 187.074,43.756 187.52,43.309 C189.692,35.12 196.154,28.378 204.622,26.373 C207.63,25.203 211.642,25.705 215.375,25.648 L215.375,25.815 L215.375,25.815 Z" id="Fill-20" fill="#1A1918" sketch:type="MSShapeGroup" mask="url(#mask-4)"></path>
            </g>
        </g>
    </g>
</svg>