<svg xmlns="http://www.w3.org/2000/svg" width="349" height="55" viewBox="0 0 349 55">
  <g fill="none" fill-rule="evenodd">
    <path class='no-color-change' fill="#009BFF" d="M54.176,27.824 C54.176,42.736 42.089,54.824 27.176,54.824 C12.263,54.824 0.176,42.736 0.176,27.824 C0.176,12.911 12.263,0.824 27.176,0.824 C42.089,0.824 54.176,12.911 54.176,27.824"/>
    <path fill="#404040" d="M69.537 21.551C70.516 21.551 71.272 21.262 71.805 20.686 72.339 20.109 72.605 19.286 72.605 18.22L72.605 7.439 77.484 7.439 77.484 18.193C77.484 20.554 76.793 22.382 75.412 23.675 74.03 24.97 72.072 25.616 69.537 25.616 67.002 25.616 65.043 24.97 63.662 23.675 62.28 22.382 61.59 20.554 61.59 18.193L61.59 7.439 66.469 7.439 66.469 18.22C66.469 19.286 66.734 20.109 67.268 20.686 67.802 21.262 68.557 21.551 69.537 21.551M87.241 25.616C85.79 25.616 84.399 25.367 83.071 24.868 81.742 24.37 80.588 23.658 79.608 22.732L81.969 19.768C82.669 20.397 83.455 20.891 84.33 21.249 85.204 21.608 86.166 21.787 87.215 21.787 87.914 21.787 88.465 21.665 88.867 21.42 89.269 21.175 89.471 20.808 89.471 20.318 89.471 19.846 89.234 19.466 88.762 19.177 88.29 18.889 87.46 18.587 86.27 18.273L85.169 17.984C83.56 17.564 82.337 16.921 81.497 16.056 80.658 15.191 80.238 14.093 80.238 12.764 80.238 11.628 80.535 10.631 81.13 9.775 81.724 8.918 82.546 8.257 83.596 7.794 84.644 7.331 85.859 7.099 87.241 7.099 88.605 7.099 89.907 7.348 91.149 7.847 92.39 8.345 93.492 9.023 94.454 9.879L92.014 12.947C91.386 12.406 90.646 11.934 89.799 11.531 88.95 11.129 88.106 10.928 87.267 10.928 86.568 10.928 86.03 11.046 85.654 11.282 85.278 11.519 85.091 11.863 85.091 12.318 85.091 12.738 85.287 13.101 85.68 13.406 86.074 13.713 86.752 13.997 87.713 14.259L89.051 14.626C90.974 15.152 92.334 15.868 93.13 16.777 93.925 17.687 94.323 18.744 94.323 19.951 94.323 21.088 94.03 22.08 93.444 22.928 92.858 23.777 92.032 24.436 90.966 24.908 89.899 25.38 88.657 25.616 87.241 25.616M102.479 18.324L106.703 18.324 104.604 12.082 102.479 18.324zM109.063 25.276L107.935 21.944 101.247 21.944 100.119 25.276 95.293 25.276 101.824 7.439 107.489 7.439 114.02 25.276 109.063 25.276 109.063 25.276z"/>
    <polyline fill="#404040" points="125.22 25.276 125.22 11.374 119.921 11.374 119.921 7.439 135.396 7.439 135.396 11.374 130.097 11.374 130.097 25.276 125.22 25.276"/>
    <path fill="#404040" d="M145.598 21.577C146.455 21.577 147.203 21.359 147.841 20.921 148.479 20.485 148.982 19.877 149.349 19.099 149.717 18.32 149.9 17.416 149.9 16.384 149.9 15.353 149.717 14.443 149.349 13.656 148.982 12.869 148.479 12.253 147.841 11.807 147.203 11.361 146.455 11.138 145.598 11.138 144.742 11.138 143.994 11.361 143.356 11.807 142.718 12.253 142.215 12.869 141.847 13.656 141.48 14.443 141.297 15.353 141.297 16.384 141.297 17.416 141.48 18.32 141.847 19.099 142.215 19.877 142.718 20.485 143.356 20.921 143.994 21.359 144.742 21.577 145.598 21.577zM145.598 25.616C143.815 25.616 142.228 25.223 140.838 24.436 139.448 23.65 138.35 22.561 137.547 21.17 136.742 19.78 136.34 18.185 136.34 16.384 136.34 15.02 136.567 13.774 137.021 12.647 137.476 11.519 138.123 10.539 138.963 9.708 139.802 8.878 140.781 8.235 141.9 7.78 143.019 7.326 144.252 7.099 145.598 7.099 146.945 7.099 148.178 7.326 149.297 7.78 150.416 8.235 151.395 8.878 152.234 9.708 153.074 10.539 153.721 11.519 154.176 12.647 154.63 13.774 154.857 15.02 154.857 16.384 154.857 18.185 154.455 19.78 153.65 21.17 152.846 22.561 151.749 23.65 150.359 24.436 148.969 25.223 147.382 25.616 145.598 25.616L145.598 25.616zM162.464 21.42L164.693 21.42C165.969 21.42 166.978 20.956 167.722 20.029 168.466 19.103 168.837 17.879 168.837 16.358 168.837 14.836 168.466 13.612 167.722 12.686 166.978 11.759 165.969 11.295 164.693 11.295L162.464 11.295 162.464 21.42zM157.664 25.276L157.664 7.439 164.693 7.439C166.459 7.439 168.019 7.82 169.375 8.581 170.729 9.341 171.792 10.391 172.561 11.729 173.331 13.066 173.716 14.61 173.716 16.358 173.716 18.107 173.331 19.65 172.561 20.986 171.792 22.324 170.729 23.374 169.375 24.134 168.019 24.895 166.459 25.276 164.693 25.276L157.664 25.276 157.664 25.276zM181.531 18.324L185.755 18.324 183.656 12.082 181.531 18.324zM188.115 25.276L186.987 21.944 180.299 21.944 179.171 25.276 174.345 25.276 180.876 7.439 186.541 7.439 193.072 25.276 188.115 25.276 188.115 25.276z"/>
    <polyline fill="#404040" points="202.514 18.85 202.514 25.276 197.557 25.276 197.557 18.85 191.236 7.439 196.744 7.439 200.049 14.522 203.327 7.439 208.836 7.439 202.514 18.85"/>
    <polyline fill="#404040" points="227.798 25.276 220.796 14.993 220.796 25.276 216.309 25.276 216.309 7.439 220.768 7.439 227.745 17.905 227.745 7.439 232.257 7.439 232.257 25.276 227.798 25.276"/>
    <polyline fill="#404040" points="236.191 25.276 236.191 7.439 248.493 7.439 248.493 11.348 240.966 11.348 240.966 14.364 247.653 14.364 247.653 18.273 240.966 18.273 240.966 21.367 248.913 21.367 248.913 25.276 236.191 25.276"/>
    <polyline fill="#404040" points="255.915 25.276 255.915 11.374 250.617 11.374 250.617 7.439 266.092 7.439 266.092 11.374 260.794 11.374 260.794 25.276 255.915 25.276"/>
    <polyline fill="#404040" points="282.562 25.276 279.678 13.682 276.792 25.276 271.625 25.276 267.192 7.439 271.914 7.439 274.615 19.61 277.605 7.439 281.775 7.439 284.739 19.531 287.519 7.439 292.162 7.439 287.729 25.276 282.562 25.276"/>
    <path fill="#404040" d="M302.549 21.577C303.405 21.577 304.152 21.359 304.791 20.921 305.43 20.485 305.931 19.877 306.299 19.099 306.666 18.32 306.85 17.416 306.85 16.384 306.85 15.353 306.666 14.443 306.299 13.656 305.931 12.869 305.43 12.253 304.791 11.807 304.152 11.361 303.405 11.138 302.549 11.138 301.691 11.138 300.944 11.361 300.305 11.807 299.668 12.253 299.165 12.869 298.798 13.656 298.43 14.443 298.247 15.353 298.247 16.384 298.247 17.416 298.43 18.32 298.798 19.099 299.165 19.877 299.668 20.485 300.305 20.921 300.944 21.359 301.691 21.577 302.549 21.577zM302.549 25.616C300.764 25.616 299.179 25.223 297.788 24.436 296.398 23.65 295.301 22.561 294.496 21.17 293.692 19.78 293.29 18.185 293.29 16.384 293.29 15.02 293.516 13.774 293.971 12.647 294.427 11.519 295.073 10.539 295.913 9.708 296.752 8.878 297.731 8.235 298.85 7.78 299.969 7.326 301.202 7.099 302.549 7.099 303.894 7.099 305.128 7.326 306.247 7.78 307.365 8.235 308.345 8.878 309.184 9.708 310.023 10.539 310.671 11.519 311.125 12.647 311.58 13.774 311.807 15.02 311.807 16.384 311.807 18.185 311.405 19.78 310.6 21.17 309.796 22.561 308.699 23.65 307.309 24.436 305.919 25.223 304.332 25.616 302.549 25.616L302.549 25.616zM319.388 15.65L322.011 15.65C322.762 15.65 323.356 15.452 323.794 15.06 324.23 14.666 324.449 14.128 324.449 13.446 324.449 12.8 324.23 12.279 323.794 11.886 323.356 11.492 322.762 11.295 322.011 11.295L319.388 11.295 319.388 15.65zM319.388 19.348L319.388 25.276 314.666 25.276 314.666 7.439 322.535 7.439C324.633 7.439 326.294 7.978 327.518 9.053 328.742 10.128 329.354 11.593 329.354 13.446 329.354 14.652 329.083 15.693 328.541 16.568 327.999 17.442 327.238 18.124 326.26 18.613L329.905 25.276 324.712 25.276 321.748 19.348 319.388 19.348 319.388 19.348z"/>
    <polyline fill="#404040" points="343.045 25.276 337.38 16.556 337.38 25.276 332.527 25.276 332.527 7.439 337.38 7.439 337.38 15.27 343.255 7.439 348.868 7.439 342.259 15.636 348.737 25.276 343.045 25.276"/>
    <path class='no-color-change' fill="#009BFF" d="M69.537 44.404C70.516 44.404 71.272 44.115 71.805 43.539 72.339 42.962 72.605 42.14 72.605 41.073L72.605 30.293 77.484 30.293 77.484 41.047C77.484 43.407 76.793 45.235 75.412 46.528 74.03 47.823 72.072 48.47 69.537 48.47 67.002 48.47 65.043 47.823 63.662 46.528 62.28 45.235 61.59 43.407 61.59 41.047L61.59 30.293 66.469 30.293 66.469 41.073C66.469 42.14 66.734 42.962 67.268 43.539 67.802 44.115 68.557 44.404 69.537 44.404M85.799 38.45L88.159 38.45C88.911 38.45 89.506 38.254 89.943 37.86 90.38 37.467 90.598 36.946 90.598 36.3 90.598 35.653 90.38 35.133 89.943 34.739 89.506 34.346 88.911 34.149 88.159 34.149L85.799 34.149 85.799 38.45zM81.078 48.129L81.078 30.293 88.632 30.293C90.729 30.293 92.39 30.831 93.615 31.906 94.839 32.982 95.451 34.446 95.451 36.3 95.451 37.506 95.176 38.551 94.625 39.434 94.074 40.318 93.3 40.999 92.304 41.48 91.306 41.961 90.117 42.201 88.736 42.201L85.799 42.201 85.799 48.129 81.078 48.129 81.078 48.129zM104.184 48.47C102.733 48.47 101.343 48.221 100.014 47.722 98.685 47.224 97.531 46.512 96.552 45.585L98.913 42.621C99.612 43.25 100.398 43.744 101.273 44.103 102.147 44.461 103.109 44.641 104.158 44.641 104.857 44.641 105.408 44.519 105.81 44.274 106.213 44.028 106.414 43.661 106.414 43.172 106.414 42.699 106.178 42.319 105.706 42.03 105.233 41.742 104.403 41.441 103.214 41.126L102.112 40.837C100.504 40.417 99.28 39.775 98.44 38.909 97.601 38.044 97.181 36.946 97.181 35.617 97.181 34.482 97.478 33.485 98.073 32.628 98.668 31.772 99.489 31.11 100.539 30.648 101.588 30.185 102.803 29.952 104.184 29.952 105.549 29.952 106.85 30.201 108.093 30.7 109.334 31.198 110.435 31.876 111.397 32.733L108.958 35.801C108.329 35.26 107.59 34.787 106.742 34.385 105.893 33.983 105.05 33.781 104.211 33.781 103.512 33.781 102.973 33.9 102.597 34.136 102.221 34.372 102.034 34.717 102.034 35.172 102.034 35.592 102.23 35.954 102.624 36.26 103.017 36.567 103.695 36.851 104.656 37.112L105.994 37.48C107.918 38.005 109.277 38.722 110.073 39.631 110.868 40.54 111.266 41.598 111.266 42.805 111.266 43.942 110.973 44.934 110.387 45.781 109.802 46.63 108.975 47.289 107.909 47.762 106.843 48.234 105.6 48.47 104.184 48.47"/>
    <polyline class='no-color-change' fill="#009BFF" points="118.137 48.129 118.137 34.228 112.84 34.228 112.84 30.293 128.314 30.293 128.314 34.228 123.016 34.228 123.016 48.129 118.137 48.129"/>
    <path class='no-color-change' fill="#009BFF" d="M135.029,41.178 L139.252,41.178 L137.153,34.936 L135.029,41.178 Z M141.612,48.129 L140.484,44.798 L133.797,44.798 L132.669,48.129 L127.843,48.129 L134.373,30.293 L140.039,30.293 L146.569,48.129 L141.612,48.129 L141.612,48.129 Z"/>
    <polyline class='no-color-change' fill="#009BFF" points="151.395 48.129 151.395 34.228 146.097 34.228 146.097 30.293 161.572 30.293 161.572 34.228 156.274 34.228 156.274 48.129 151.395 48.129"/>
    <polyline class='no-color-change' fill="#009BFF" points="164.142 48.129 164.142 30.293 176.443 30.293 176.443 34.201 168.916 34.201 168.916 37.218 175.604 37.218 175.604 41.126 168.916 41.126 168.916 44.221 176.863 44.221 176.863 48.129 164.142 48.129"/>
    <polyline class='no-color-change' fill="#009BFF" points="197.714 48.129 190.711 37.847 190.711 48.129 186.226 48.129 186.226 30.293 190.684 30.293 197.662 40.759 197.662 30.293 202.173 30.293 202.173 48.129 197.714 48.129"/>
    <polyline class='no-color-change' fill="#009BFF" points="206.107 48.129 206.107 30.293 218.409 30.293 218.409 34.201 210.881 34.201 210.881 37.218 217.569 37.218 217.569 41.126 210.881 41.126 210.881 44.221 218.829 44.221 218.829 48.129 206.107 48.129"/>
    <polyline class='no-color-change' fill="#009BFF" points="235.798 48.129 232.913 36.535 230.027 48.129 224.86 48.129 220.428 30.293 225.149 30.293 227.85 42.463 230.841 30.293 235.011 30.293 237.974 42.385 240.755 30.293 245.397 30.293 240.965 48.129 235.798 48.129"/>
    <polyline class='no-color-change' fill="#009BFF" points="263.731 41.703 263.731 48.129 258.773 48.129 258.773 41.703 252.453 30.293 257.961 30.293 261.265 37.375 264.544 30.293 270.052 30.293 263.731 41.703"/>
    <path class='no-color-change' fill="#009BFF" d="M278.943 44.431C279.8 44.431 280.547 44.212 281.185 43.775 281.824 43.338 282.326 42.731 282.693 41.952 283.06 41.174 283.245 40.27 283.245 39.237 283.245 38.206 283.06 37.296 282.693 36.51 282.326 35.723 281.824 35.107 281.185 34.66 280.547 34.215 279.8 33.991 278.943 33.991 278.086 33.991 277.339 34.215 276.7 34.66 276.062 35.107 275.559 35.723 275.192 36.51 274.825 37.296 274.641 38.206 274.641 39.237 274.641 40.27 274.825 41.174 275.192 41.952 275.559 42.731 276.062 43.338 276.7 43.775 277.339 44.212 278.086 44.431 278.943 44.431zM278.943 48.47C277.159 48.47 275.573 48.076 274.182 47.289 272.793 46.503 271.695 45.414 270.89 44.024 270.087 42.634 269.684 41.038 269.684 39.237 269.684 37.873 269.911 36.627 270.366 35.5 270.821 34.372 271.468 33.393 272.307 32.562 273.146 31.732 274.126 31.089 275.245 30.634 276.363 30.18 277.596 29.952 278.943 29.952 280.289 29.952 281.522 30.18 282.641 30.634 283.76 31.089 284.739 31.732 285.579 32.562 286.418 33.393 287.065 34.372 287.519 35.5 287.974 36.627 288.202 37.873 288.202 39.237 288.202 41.038 287.8 42.634 286.995 44.024 286.19 45.414 285.094 46.503 283.704 47.289 282.313 48.076 280.726 48.47 278.943 48.47L278.943 48.47zM295.835 38.503L298.458 38.503C299.209 38.503 299.804 38.306 300.241 37.913 300.678 37.52 300.896 36.982 300.896 36.3 300.896 35.653 300.678 35.133 300.241 34.739 299.804 34.346 299.209 34.149 298.458 34.149L295.835 34.149 295.835 38.503zM295.835 42.201L295.835 48.129 291.113 48.129 291.113 30.293 298.982 30.293C301.08 30.293 302.741 30.831 303.966 31.906 305.189 32.982 305.802 34.446 305.802 36.3 305.802 37.506 305.53 38.547 304.988 39.421 304.446 40.295 303.685 40.978 302.707 41.467L306.352 48.129 301.159 48.129 298.195 42.201 295.835 42.201 295.835 42.201z"/>
    <polyline class='no-color-change' fill="#009BFF" points="319.492 48.129 313.827 39.409 313.827 48.129 308.974 48.129 308.974 30.293 313.827 30.293 313.827 38.123 319.702 30.293 325.315 30.293 318.706 38.489 325.184 48.129 319.492 48.129"/>
  </g>
</svg>
