<svg xmlns="http://www.w3.org/2000/svg" xmlns:xlink="http://www.w3.org/1999/xlink" width="720" height="374" viewBox="0 0 720 374">
  <defs>
    <style>
      .cls-1, .cls-2 {
        fill-rule: evenodd;
      }

      .cls-2 {
        fill: #009bff;
      }
    </style>
    <filter id="filter" x="0" y="0" width="374.594" height="375" filterUnits="userSpaceOnUse">
      <feFlood result="flood" flood-color="#00a5e8"/>
      <feComposite result="composite" operator="in" in2="SourceGraphic"/>
      <feBlend result="blend" in2="SourceGraphic"/>
    </filter>
  </defs>
  <path id="TM" class="cls-1" d="M702,178.871v-1.01h6.912v1.01h-2.881v8.013h-1.15v-8.013H702Zm10.966-1.01,2.724,7.582,2.736-7.582H720v9.023h-1.09v-7.507h-0.024l-2.7,7.507h-0.98l-2.7-7.507h-0.025v7.507h-1.089v-9.023h1.573Z"/>
  <path id="USA_TODAY" data-name="USA TODAY" class="cls-1" d="M399,82.251V39.344h19.034V76.683c0,7.391.757,14.59,10.321,14.59s10.322-7.2,10.322-14.59V39.344H457.71V82.251c0,16.605-10.511,25.819-29.355,25.819C408.943,108.07,399,98.856,399,82.251Zm64.4,16.03,9.185-12.862c3.41,4.127,9.091,7.871,15.624,7.871,4.926,0,7.86-2.112,7.86-6.047,0-4.7-4.261-6.048-11.457-8.255-9.658-2.975-18.182-8.062-18.182-19.677C466.427,46.543,476.748,38,491.333,38c10.132,0,17.8,3.167,22.631,7.774l-8.616,12.863a17.4,17.4,0,0,0-13.069-5.856c-4.924,0-7.006,2.016-7.006,4.7,0,4.223,5.018,5.375,10.511,7.1,10.8,3.455,19.127,8.447,19.127,20.83,0,12.958-9.185,22.652-25.757,22.652C476.938,108.07,467.47,102.791,463.4,98.28Zm77.651-58.936h20.93l24.714,67.383H566.9l-3.125-9.695H538.684l-3.03,9.695h-19.32Zm17.9,42.33-5.114-16.222a61.145,61.145,0,0,1-2.272-10.078h-0.568a61.05,61.05,0,0,1-2.273,10.078l-5.113,16.222h15.34Zm-142.4,53.635H400.169V119.661h51.8v15.648H435.585v51.735H416.551V135.309Zm37.031,18.141c0-16.608,11.741-35.133,36.457-35.133,24.81,0,36.552,18.525,36.552,35.133,0,16.509-11.742,34.938-36.552,34.938C465.323,188.388,453.582,169.959,453.582,153.45Zm53.408,0c0-12.094-7.765-18.336-17.046-18.336-9.09,0-16.856,6.242-16.856,18.336,0,12,7.766,18.141,16.856,18.141C499.225,171.591,506.99,165.448,506.99,153.45Zm25.98-33.789H557.5c23.483,0,36.932,12.67,36.932,33.693,0,20.636-13.828,33.69-36.932,33.69H532.97V119.661ZM552,171.494h4.075c12.214,0,18.748-5.95,18.748-18.14s-6.534-18.141-18.748-18.141H552v36.281Zm65.469-51.833H638.4l24.714,67.383H643.322L640.2,177.35H615.107l-3.032,9.694H592.758Zm17.9,42.331-5.113-16.221a60.644,60.644,0,0,1-2.275-10.078h-0.566a61.151,61.151,0,0,1-2.275,10.078l-5.114,16.221h15.343Zm39.743,1.056L650.3,119.661h20.832l9,16.6c1.893,3.554,4.545,8.927,5.113,12.481h0.381c0.566-3.554,3.22-8.927,5.111-12.481l9-16.6H720l-24.812,43.387v24H675.114v-24Z"/>
  <path id="circle" class="cls-2 no-color-change" d="M374.583,187.5c0,103.553-83.853,187.5-187.291,187.5S0,291.052,0,187.5,83.854,0,187.292,0,374.583,83.946,374.583,187.5Z"/>
</svg>
