<?xml version="1.0" encoding="UTF-8" standalone="no"?>
<svg width="202px" height="29px" viewBox="0 0 202 29" version="1.1" xmlns="http://www.w3.org/2000/svg" xmlns:xlink="http://www.w3.org/1999/xlink" xmlns:sketch="http://www.bohemiancoding.com/sketch/ns">
    <!-- Generator: Sketch 3.4.2 (15857) - http://www.bohemiancoding.com/sketch -->
    <title>USAT_Life_Tertiary_SubBrand_FullColor_RGB</title>
    <desc>Created with Sketch.</desc>
    <defs>
        <path id="path-1" d="M0.06,0.668 L201.666,0.668 L201.666,28.94 L0.06,28.94"></path>
    </defs>
    <g id="Page-1" stroke="none" stroke-width="1" fill="none" fill-rule="evenodd" sketch:type="MSPage">
        <g id="USAT_Life_Tertiary_SubBrand_FullColor_RGB" sketch:type="MSLayerGroup">
            <path class='no-color-change' d="M162.158,7.03 L166.665,7.03 L166.665,19.115 L171.709,19.115 L171.709,22.768 L162.158,22.768 L162.158,7.03" id="Fill-1" fill="#9600B4" sketch:type="MSShapeGroup"></path>
            <path class='no-color-change' d="M173.729,7.03 L178.235,7.03 L178.235,22.768 L173.729,22.768 L173.729,7.03 Z" id="Fill-2" fill="#9600B4" sketch:type="MSShapeGroup"></path>
            <path class='no-color-change' d="M180.365,7.03 L189.983,7.03 L189.983,10.685 L184.872,10.685 L184.872,13.577 L189.895,13.577 L189.895,17.231 L184.872,17.231 L184.872,22.768 L180.365,22.768 L180.365,7.03" id="Fill-3" fill="#9600B4" sketch:type="MSShapeGroup"></path>
            <path class='no-color-change' d="M191.913,7.03 L201.464,7.03 L201.464,10.595 L196.42,10.595 L196.42,12.949 L201.374,12.949 L201.374,16.514 L196.42,16.514 L196.42,19.205 L201.666,19.205 L201.666,22.768 L191.913,22.768 L191.913,7.03" id="Fill-4" fill="#9600B4" sketch:type="MSShapeGroup"></path>
            <path d="M34.594,17.038 L34.594,7.016 L39.101,7.016 L39.101,15.738 C39.101,17.464 39.28,19.146 41.544,19.146 C43.808,19.146 43.987,17.464 43.987,15.738 L43.987,7.016 L48.492,7.016 L48.492,17.038 C48.492,20.916 46.004,23.068 41.544,23.068 C36.947,23.068 34.594,20.916 34.594,17.038" id="Fill-5" fill="#000000" sketch:type="MSShapeGroup"></path>
            <path d="M49.706,20.781 L51.88,17.777 C52.688,18.742 54.033,19.616 55.602,19.616 C56.768,19.616 57.44,19.1 57.44,18.226 C57.44,17.149 56.454,16.768 54.727,16.274 C52.508,15.648 50.424,14.391 50.424,11.634 C50.424,8.72 52.867,6.702 56.298,6.702 C58.74,6.702 60.602,7.666 61.678,8.563 L59.637,11.522 C58.987,10.782 57.867,10.154 56.566,10.154 C55.354,10.154 54.886,10.626 54.886,11.253 C54.886,12.105 55.781,12.464 57.373,12.911 C60.041,13.674 61.902,15.042 61.902,17.821 C61.902,20.781 59.684,23.068 55.871,23.068 C52.89,23.068 50.67,21.835 49.706,20.781" id="Fill-6" fill="#000000" sketch:type="MSShapeGroup"></path>
            <path d="M72.216,16.902 L70.983,13.114 C70.736,12.374 70.535,11.433 70.445,10.76 L70.311,10.76 C70.221,11.433 70.02,12.374 69.773,13.114 L68.54,16.902 L72.216,16.902 L72.216,16.902 Z M67.956,7.016 L72.912,7.016 L78.763,22.754 L74.076,22.754 L73.314,20.49 L67.418,20.49 L66.68,22.754 L62.104,22.754 C62.104,22.754 67.935,7.016 67.956,7.016 L67.956,7.016 Z" id="Fill-7" fill="#000000" sketch:type="MSShapeGroup"></path>
            <path d="M85.404,10.672 L81.527,10.672 L81.527,7.018 L93.79,7.018 L93.79,10.672 L89.91,10.672 L89.91,22.757 L85.404,22.757 L85.404,10.672" id="Fill-8" fill="#000000" sketch:type="MSShapeGroup"></path>
            <path d="M106.749,14.91 C106.749,12.083 104.909,10.628 102.713,10.628 C100.563,10.628 98.723,12.083 98.723,14.91 C98.723,17.712 100.563,19.147 102.713,19.147 C104.909,19.147 106.749,17.712 106.749,14.91 L106.749,14.91 Z M94.104,14.91 C94.104,11.031 96.885,6.704 102.735,6.704 C108.609,6.704 111.388,11.031 111.388,14.91 C111.388,18.766 108.609,23.07 102.735,23.07 C96.885,23.07 94.104,18.766 94.104,14.91 L94.104,14.91 Z" id="Fill-9" fill="#000000" sketch:type="MSShapeGroup"></path>
            <path d="M117.513,19.125 L118.477,19.125 C121.367,19.125 122.916,17.734 122.916,14.888 C122.916,12.041 121.367,10.65 118.477,10.65 L117.513,10.65 L117.513,19.125 L117.513,19.125 Z M113.006,7.018 L118.813,7.018 C124.372,7.018 127.557,9.977 127.557,14.888 C127.557,19.707 124.282,22.757 118.813,22.757 L113.006,22.757 L113.006,7.018 L113.006,7.018 Z" id="Fill-10" fill="#000000" sketch:type="MSShapeGroup"></path>
            <path d="M137.018,16.905 L135.809,13.116 C135.561,12.376 135.359,11.435 135.27,10.762 L135.135,10.762 C135.045,11.435 134.844,12.376 134.597,13.116 L133.386,16.905 L137.018,16.905 L137.018,16.905 Z M132.781,7.018 L137.736,7.018 L143.587,22.757 L138.901,22.757 L138.16,20.492 L132.222,20.492 L131.503,22.757 L126.931,22.757 L132.781,7.018 L132.781,7.018 Z" id="Fill-11" fill="#000000" sketch:type="MSShapeGroup"></path>
            <g id="Group-15">
                <mask id="mask-2" sketch:name="Clip 13" fill="white">
                    <use xlink:href="#path-1"></use>
                </mask>
                <g id="Clip-13"></g>
                <path d="M146.368,17.152 L140.495,7.018 L145.428,7.018 L147.557,10.896 C148.006,11.726 148.634,12.982 148.768,13.811 L148.856,13.811 C148.992,12.982 149.62,11.726 150.067,10.896 L152.198,7.018 L156.995,7.018 L151.121,17.152 L151.121,22.757 L146.368,22.757 L146.368,17.152" id="Fill-12" fill="#000000" sketch:type="MSShapeGroup" mask="url(#mask-2)"></path>
                <path class='no-color-change' d="M28.334,14.834 C28.334,22.656 21.99,29 14.166,29 C6.344,29 0,22.656 0,14.834 C0,7.01 6.344,0.668 14.166,0.668 C21.99,0.668 28.334,7.01 28.334,14.834" id="Fill-14" fill="#9600B4" sketch:type="MSShapeGroup" mask="url(#mask-2)"></path>
            </g>
        </g>
    </g>
</svg>