<svg xmlns="http://www.w3.org/2000/svg" width="109" height="28" viewBox="0 0 109 28">
  <g fill="none" fill-rule="evenodd">
    <path fill="#404040" fill-rule="nonzero" d="M36 10.75C36.4397795 10.7769024 36.8698092 10.612908 37.18 10.3 37.4691922 9.93168943 37.6052925 9.46608302 37.56 9L37.56 3.43 40.09 3.43 40.09 9C40.1535439 10.0625638 39.7563796 11.101021 39 11.85 38.1638196 12.5531825 37.0908538 12.9108378 36 12.85 34.9090098 12.9118594 33.8356766 12.5540817 33 11.85 32.2179132 11.1134575 31.7945732 10.073355 31.84 9L31.84 3.43 34.37 3.43 34.37 9C34.3400911 9.46481384 34.4905209 9.92326657 34.79 10.28 35.1027933 10.6096716 35.5466866 10.782093 36 10.75zM45.14 12.86C44.4090421 12.8594812 43.6841478 12.7273743 43 12.47 42.3310425 12.2256713 41.7186685 11.8480406 41.2 11.36L42.42 9.82C42.7788422 10.1455977 43.1916859 10.406163 43.64 10.59 44.1166115 10.7814459 44.6264181 10.8766098 45.14 10.87 45.4386285 10.8862664 45.73602 10.8205636 46 10.68 46.2007529 10.5619104 46.3199748 10.3426959 46.31 10.11 46.3065943 9.85964846 46.1638849 9.63208491 45.94 9.52 45.5319705 9.30857981 45.0984012 9.15061271 44.65 9.05L44.08 8.9C43.3673679 8.74605015 42.7103642 8.40025873 42.18 7.9 41.7412602 7.44119162 41.5068062 6.82439718 41.53 6.19 41.5210634 5.63694407 41.6854088 5.09495396 42 4.64 42.3265922 4.19530418 42.7694945 3.84928681 43.28 3.64 43.8779282 3.38926837 44.5217672 3.26663238 45.17 3.28 45.8554234 3.2814107 46.5342636 3.41378454 47.17 3.67 47.7950667 3.9122871 48.3735747 4.26074512 48.88 4.7L47.62 6.29C47.2712481 5.99604592 46.8844246 5.75049705 46.47 5.56 46.062455 5.35876392 45.6145121 5.25276215 45.16 5.25 44.8687494 5.23126744 44.5780016 5.29357055 44.32 5.43 44.1101117 5.54011646 43.9847188 5.76347259 44 6 44.0069412 6.22574636 44.1223763 6.43427428 44.31 6.56 44.6394761 6.77260857 45.0057518 6.92183204 45.39 7L46.08 7.19C46.8759473 7.35392626 47.6082105 7.7426157 48.19 8.31 48.5967403 8.76250326 48.8181038 9.35161591 48.81 9.96 48.8197866 10.5085754 48.6590588 11.0466642 48.35 11.5 48.0206849 11.9461501 47.5741569 12.2922958 47.06 12.5 46.4520215 12.7522903 45.7980775 12.8749048 45.14 12.86L45.14 12.86zM56.46 12.68L55.87 11 52.41 11 51.83 12.73 49.33 12.73 52.72 3.48 55.66 3.48 59 12.68 56.46 12.68zM53 9.08L55.19 9.08 54.15 5.84 53 9.08z"/>
    <polygon fill="#404040" fill-rule="nonzero" points="64.84 12.68 64.84 5.47 62.09 5.47 62.09 3.47 70.09 3.47 70.09 5.47 67.37 5.47 67.37 12.68"/>
    <path fill="#404040" fill-rule="nonzero" d="M75.4 12.86C74.5374244 12.8767448 73.6856101 12.6663777 72.93 12.25 72.2169729 11.852583 71.6257778 11.2683024 71.22 10.56 70.7927004 9.8042657 70.5751924 8.94804378 70.59 8.08 70.5984154 7.40950675 70.7376885 6.74710997 71 6.13 71.2258557 5.56026653 71.566207 5.04293261 72 4.61 72.4352033 4.17899952 72.9519321 3.83904631 73.52 3.61 74.7534441 3.14018813 76.1165559 3.14018813 77.35 3.61 77.9179434 3.83928384 78.4346279 4.17920785 78.87 4.61 79.3040145 5.04275192 79.6443979 5.56013464 79.87 6.13 80.1109862 6.74795905 80.229847 7.40678755 80.22 8.07 80.2378552 8.93712697 80.0238143 9.79329042 79.6 10.55 79.1942222 11.2583024 78.6030271 11.842583 77.89 12.24 77.1294543 12.6632822 76.2702304 12.8772255 75.4 12.86L75.4 12.86zM75.4 10.77C75.8124801 10.7790274 76.2176583 10.6602683 76.56 10.43 76.9013702 10.1899597 77.1709996 9.86156492 77.34 9.48 77.540524 9.03748074 77.639606 8.55573749 77.63 8.07 77.6379426 7.58441663 77.5389348 7.10303412 77.34 6.66 77.1765582 6.26148273 76.9067316 5.91555122 76.56 5.66 75.8529507 5.19494295 74.9370493 5.19494295 74.23 5.66 73.8832684 5.91555122 73.6134418 6.26148273 73.45 6.66 73.2510652 7.10303412 73.1520574 7.58441663 73.16 8.07 73.150394 8.55573749 73.249476 9.03748074 73.45 9.48 73.6190004 9.86156492 73.8886298 10.1899597 74.23 10.43 74.576313 10.6587322 74.9852068 10.7740612 75.4 10.76L75.4 10.77zM81.66 12.68L81.66 3.43 85.3 3.43C86.1457158 3.40614137 86.9831059 3.60256619 87.73 4 88.418607 4.3823599 88.9892712 4.94610691 89.38 5.63 89.7893692 6.3626064 89.9964522 7.19093825 89.98 8.03 89.9964522 8.86906175 89.7893692 9.6973936 89.38 10.43 88.9892712 11.1138931 88.418607 11.6776401 87.73 12.06 86.9849908 12.4643803 86.1474952 12.6677229 85.3 12.65L81.66 12.68zM84.15 10.68L85.3 10.68C85.9012686 10.7135094 86.4831278 10.461494 86.87 10 87.2734999 9.45091426 87.478054 8.78082327 87.45 8.1 87.478054 7.41917673 87.2734999 6.74908574 86.87 6.2 86.4912718 5.72356611 85.9081574 5.45615059 85.3 5.48L84.15 5.48 84.15 10.68zM97.45 12.68L96.86 11 93.4 11 92.82 12.73 90.32 12.73 93.71 3.48 96.65 3.48 100 12.68 97.45 12.68zM94 9.08L96.19 9.08 95.14 5.84 94 9.08z"/>
    <polygon fill="#404040" fill-rule="nonzero" points="104.91 9.35 104.91 12.68 102.34 12.68 102.34 9.35 99.07 3.43 101.93 3.43 103.64 7.1 105.34 3.43 108.2 3.43"/>
    <circle class='no-color-change' cx="14" cy="14" r="14" fill="#3CC37D" fill-rule="nonzero"/>
    <polygon fill="#3CC37D" class='no-color-change' fill-rule="nonzero" points="36.09 23.67 34 18.79 34 24.53 31.84 24.53 31.84 15.28 34.67 15.28 37.09 21.06 39.44 15.28 42.27 15.28 42.27 24.53 40.17 24.53 40.17 18.72 38.04 23.72"/>
    <path fill="#3CC37D" class='no-color-change' fill-rule="nonzero" d="M48.58,24.71 C47.7174244,24.7267448 46.8656101,24.5163777 46.11,24.1 C45.3969729,23.702583 44.8057778,23.1183024 44.4,22.41 C43.9727004,21.6542657 43.7551924,20.7980438 43.77,19.93 C43.7683101,19.2688812 43.89393,18.6136208 44.14,18 C44.3658557,17.4302665 44.706207,16.9129326 45.14,16.48 C45.5752033,16.0489995 46.0919321,15.7090463 46.66,15.48 C47.8934441,15.0101881 49.2565559,15.0101881 50.49,15.48 C51.0579434,15.7092838 51.5746279,16.0492079 52.01,16.48 C52.4404175,16.913679 52.7773542,17.430996 53,18 C53.2409862,18.617959 53.359847,19.2767876 53.35,19.94 C53.3678552,20.807127 53.1538143,21.6632904 52.73,22.42 C52.3242222,23.1283024 51.7330271,23.712583 51.02,24.11 C50.2723077,24.5178179 49.4315558,24.7245601 48.58,24.71 L48.58,24.71 Z M48.58,22.62 C48.9924801,22.6290274 49.3976583,22.5102683 49.74,22.28 C50.0813702,22.0399597 50.3509996,21.7115649 50.52,21.33 C50.720524,20.8874807 50.819606,20.4057375 50.81,19.92 C50.8179426,19.4344166 50.7189348,18.9530341 50.52,18.51 C50.3565582,18.1114827 50.0867316,17.7655512 49.74,17.51 C49.0329507,17.044943 48.1170493,17.044943 47.41,17.51 C47.0632684,17.7655512 46.7934418,18.1114827 46.63,18.51 C46.4310652,18.9530341 46.3320574,19.4344166 46.34,19.92 C46.330394,20.4057375 46.429476,20.8874807 46.63,21.33 C46.7990004,21.7115649 47.0686298,22.0399597 47.41,22.28 C47.756313,22.5087322 48.1652068,22.6240612 48.58,22.61 L48.58,22.62 Z"/>
    <polygon fill="#3CC37D" class='no-color-change' fill-rule="nonzero" points="60.85 24.53 57.22 19.2 57.22 24.53 54.89 24.53 54.89 15.28 57.2 15.28 60.82 20.71 60.82 15.28 63.16 15.28 63.16 24.53"/>
    <polygon fill="#3CC37D" class='no-color-change' fill-rule="nonzero" points="65.2 24.53 65.2 15.28 71.58 15.28 71.58 17.28 67.68 17.28 67.68 18.84 71.15 18.84 71.15 20.84 67.68 20.84 67.68 22.44 71.8 22.44 71.8 24.44"/>
    <polygon fill="#3CC37D" class='no-color-change' fill-rule="nonzero" points="78.36 21.2 78.36 24.53 75.78 24.53 75.78 21.2 72.5 15.28 75.36 15.28 77.08 19 78.78 15.33 81.64 15.33"/>
  </g>
</svg>
