<svg xmlns="http://www.w3.org/2000/svg" width="102" height="19" viewBox="0 0 102 19">
  <g fill="none" fill-rule="evenodd">
    <path class='no-color-change' fill="#009BFF" d="M18.707,9.293 C18.707,14.262 14.677,18.293 9.707,18.293 C4.737,18.293 0.707,14.262 0.707,9.293 C0.707,4.322 4.737,0.293 9.707,0.293 C14.677,0.293 18.707,4.322 18.707,9.293"/>
    <path fill="#404040" d="M27.238 12.069C27.761 12.069 28.165 11.915 28.45 11.607 28.734 11.298 28.877 10.86 28.877 10.29L28.877 4.533 31.483 4.533 31.483 10.276C31.483 11.536 31.114 12.512 30.375 13.204 29.638 13.895 28.592 14.24 27.238 14.24 25.884 14.24 24.838 13.895 24.1 13.204 23.363 12.512 22.994 11.536 22.994 10.276L22.994 4.533 25.599 4.533 25.599 10.29C25.599 10.86 25.741 11.298 26.026 11.607 26.311 11.915 26.715 12.069 27.238 12.069M36.693 14.24C35.919 14.24 35.176 14.107 34.466 13.841 33.757 13.575 33.14 13.195 32.617 12.7L33.877 11.116C34.252 11.453 34.672 11.716 35.139 11.907 35.605 12.1 36.119 12.195 36.68 12.195 37.053 12.195 37.348 12.13 37.562 11.999 37.777 11.868 37.884 11.672 37.884 11.411 37.884 11.159 37.758 10.955 37.506 10.801 37.254 10.647 36.81 10.486 36.175 10.318L35.587 10.164C34.727 9.94 34.074 9.596 33.626 9.134 33.178 8.672 32.953 8.086 32.953 7.376 32.953 6.769 33.112 6.237 33.43 5.779 33.747 5.322 34.186 4.969 34.746 4.722 35.307 4.474 35.956 4.351 36.693 4.351 37.422 4.351 38.118 4.483 38.781 4.75 39.444 5.016 40.032 5.378 40.546 5.836L39.243 7.475C38.907 7.185 38.512 6.933 38.059 6.718 37.606 6.503 37.156 6.396 36.708 6.396 36.334 6.396 36.047 6.458 35.846 6.584 35.646 6.711 35.545 6.896 35.545 7.139 35.545 7.362 35.65 7.556 35.86 7.72 36.071 7.883 36.433 8.035 36.945 8.175L37.66 8.371C38.688 8.651 39.414 9.034 39.839 9.52 40.264 10.005 40.476 10.57 40.476 11.215 40.476 11.822 40.319 12.352 40.006 12.804 39.694 13.258 39.252 13.609 38.683 13.862 38.113 14.114 37.45 14.24 36.693 14.24M44.833 10.346L47.088 10.346 45.967 7.012 44.833 10.346zM48.348 14.058L47.747 12.279 44.174 12.279 43.571 14.058 40.994 14.058 44.482 4.533 47.508 4.533 50.996 14.058 48.348 14.058 48.348 14.058z"/>
    <polyline fill="#404040" points="56.977 14.058 56.977 6.634 54.148 6.634 54.148 4.533 62.413 4.533 62.413 6.634 59.583 6.634 59.583 14.058 56.977 14.058"/>
    <path fill="#404040" d="M67.861 12.083C68.318 12.083 68.718 11.966 69.059 11.733 69.4 11.499 69.669 11.175 69.864 10.76 70.061 10.344 70.159 9.86 70.159 9.309 70.159 8.759 70.061 8.273 69.864 7.852 69.669 7.432 69.4 7.103 69.059 6.865 68.718 6.627 68.318 6.508 67.861 6.508 67.403 6.508 67.004 6.627 66.664 6.865 66.323 7.103 66.054 7.432 65.858 7.852 65.662 8.273 65.564 8.759 65.564 9.309 65.564 9.86 65.662 10.344 65.858 10.76 66.054 11.175 66.323 11.499 66.664 11.733 67.004 11.966 67.403 12.083 67.861 12.083zM67.861 14.24C66.909 14.24 66.061 14.03 65.318 13.609 64.576 13.19 63.99 12.609 63.561 11.866 63.131 11.124 62.917 10.272 62.917 9.309 62.917 8.581 63.037 7.915 63.281 7.313 63.523 6.711 63.869 6.188 64.317 5.745 64.765 5.301 65.289 4.958 65.886 4.715 66.484 4.472 67.142 4.351 67.861 4.351 68.58 4.351 69.239 4.472 69.836 4.715 70.434 4.958 70.957 5.301 71.406 5.745 71.854 6.188 72.199 6.711 72.442 7.313 72.685 7.915 72.806 8.581 72.806 9.309 72.806 10.272 72.591 11.124 72.162 11.866 71.732 12.609 71.146 13.19 70.404 13.609 69.661 14.03 68.813 14.24 67.861 14.24L67.861 14.24zM76.868 11.999L78.06 11.999C78.741 11.999 79.281 11.751 79.678 11.256 80.074 10.762 80.272 10.108 80.272 9.296 80.272 8.483 80.074 7.829 79.678 7.334 79.281 6.84 78.741 6.592 78.06 6.592L76.868 6.592 76.868 11.999zM74.305 14.058L74.305 4.533 78.06 4.533C79.003 4.533 79.836 4.736 80.56 5.142 81.284 5.548 81.851 6.109 82.262 6.823 82.672 7.538 82.878 8.362 82.878 9.296 82.878 10.229 82.672 11.053 82.262 11.768 81.851 12.482 81.284 13.043 80.56 13.449 79.836 13.856 79.003 14.058 78.06 14.058L74.305 14.058 74.305 14.058zM87.052 10.346L89.308 10.346 88.187 7.012 87.052 10.346zM90.568 14.058L89.966 12.279 86.394 12.279 85.791 14.058 83.214 14.058 86.702 4.533 89.727 4.533 93.216 14.058 90.568 14.058 90.568 14.058z"/>
    <polyline fill="#404040" points="98.259 10.626 98.259 14.058 95.611 14.058 95.611 10.626 92.235 4.533 95.177 4.533 96.942 8.315 98.693 4.533 101.635 4.533 98.259 10.626"/>
  </g>
</svg>
