<svg xmlns="http://www.w3.org/2000/svg" width="109" height="28" viewBox="0 0 109 28">
  <g fill="none" fill-rule="evenodd">
    <circle cx="14" cy="14" r="14" fill="#FA9632" class='no-color-change' fill-rule="nonzero"/>
    <path fill="#404040" fill-rule="nonzero" d="M36 10.75C36.4397795 10.7769024 36.8698092 10.612908 37.18 10.3 37.4691922 9.93168943 37.6052925 9.46608302 37.56 9L37.56 3.43 40.09 3.43 40.09 9C40.1535439 10.0625638 39.7563796 11.101021 39 11.85 38.1638196 12.5531825 37.0908538 12.9108378 36 12.85 34.9090098 12.9118594 33.8356766 12.5540817 33 11.85 32.2179132 11.1134575 31.7945732 10.073355 31.84 9L31.84 3.43 34.37 3.43 34.37 9C34.3400911 9.46481384 34.4905209 9.92326657 34.79 10.28 35.1027933 10.6096716 35.5466866 10.782093 36 10.75zM45.14 12.86C44.4090421 12.8594812 43.6841478 12.7273743 43 12.47 42.3310425 12.2256713 41.7186685 11.8480406 41.2 11.36L42.42 9.82C42.7788422 10.1455977 43.1916859 10.406163 43.64 10.59 44.1166115 10.7814459 44.6264181 10.8766098 45.14 10.87 45.4386285 10.8862664 45.73602 10.8205636 46 10.68 46.2007529 10.5619104 46.3199748 10.3426959 46.31 10.11 46.3065943 9.85964846 46.1638849 9.63208491 45.94 9.52 45.5313171 9.29046664 45.0942417 9.11563648 44.64 9L44.07 8.85C43.3573679 8.69605015 42.7003642 8.35025873 42.17 7.85 41.7312602 7.39119162 41.4968062 6.77439718 41.52 6.14 41.5242914 5.60291008 41.6916858 5.0798026 42 4.64 42.3265922 4.19530418 42.7694945 3.84928681 43.28 3.64 43.8779282 3.38926837 44.5217672 3.26663238 45.17 3.28 45.8554234 3.2814107 46.5342636 3.41378454 47.17 3.67 47.7985964 3.91125694 48.3805622 4.25975973 48.89 4.7L47.62 6.29C47.2712481 5.99604592 46.8844246 5.75049705 46.47 5.56 46.062455 5.35876392 45.6145121 5.25276215 45.16 5.25 44.8687494 5.23126744 44.5780016 5.29357055 44.32 5.43 44.1101117 5.54011646 43.9847188 5.76347259 44 6 44.0069412 6.22574636 44.1223763 6.43427428 44.31 6.56 44.6394761 6.77260857 45.0057518 6.92183204 45.39 7L46.08 7.19C46.8759473 7.35392626 47.6082105 7.7426157 48.19 8.31 48.5967403 8.76250326 48.8181038 9.35161591 48.81 9.96 48.8197866 10.5085754 48.6590588 11.0466642 48.35 11.5 48.0206849 11.9461501 47.5741569 12.2922958 47.06 12.5 46.4520215 12.7522903 45.7980775 12.8749048 45.14 12.86L45.14 12.86zM56.46 12.68L55.87 11 52.41 11 51.83 12.73 49.33 12.73 52.72 3.48 55.66 3.48 59 12.68 56.46 12.68zM53 9.08L55.19 9.08 54.15 5.84 53 9.08z"/>
    <polygon fill="#404040" fill-rule="nonzero" points="64.84 12.68 64.84 5.47 62.09 5.47 62.09 3.47 70.09 3.47 70.09 5.47 67.37 5.47 67.37 12.68"/>
    <path fill="#404040" fill-rule="nonzero" d="M75.4 12.86C74.5374244 12.8767448 73.6856101 12.6663777 72.93 12.25 72.2169729 11.852583 71.6257778 11.2683024 71.22 10.56 70.7927004 9.8042657 70.5751924 8.94804378 70.59 8.08 70.5984154 7.40950675 70.7376885 6.74710997 71 6.13 71.2258557 5.56026653 71.566207 5.04293261 72 4.61 72.4352033 4.17899952 72.9519321 3.83904631 73.52 3.61 74.7534441 3.14018813 76.1165559 3.14018813 77.35 3.61 77.9179434 3.83928384 78.4346279 4.17920785 78.87 4.61 79.3040145 5.04275192 79.6443979 5.56013464 79.87 6.13 80.1109862 6.74795905 80.229847 7.40678755 80.22 8.07 80.2378552 8.93712697 80.0238143 9.79329042 79.6 10.55 79.1942222 11.2583024 78.6030271 11.842583 77.89 12.24 77.1294543 12.6632822 76.2702304 12.8772255 75.4 12.86L75.4 12.86zM75.4 10.77C75.8124801 10.7790274 76.2176583 10.6602683 76.56 10.43 76.9013702 10.1899597 77.1709996 9.86156492 77.34 9.48 77.540524 9.03748074 77.639606 8.55573749 77.63 8.07 77.6379426 7.58441663 77.5389348 7.10303412 77.34 6.66 77.1765582 6.26148273 76.9067316 5.91555122 76.56 5.66 75.8529507 5.19494295 74.9370493 5.19494295 74.23 5.66 73.8832684 5.91555122 73.6134418 6.26148273 73.45 6.66 73.2510652 7.10303412 73.1520574 7.58441663 73.16 8.07 73.150394 8.55573749 73.249476 9.03748074 73.45 9.48 73.6190004 9.86156492 73.8886298 10.1899597 74.23 10.43 74.576313 10.6587322 74.9852068 10.7740612 75.4 10.76L75.4 10.77zM81.66 12.68L81.66 3.43 85.3 3.43C86.1457158 3.40614137 86.9831059 3.60256619 87.73 4 88.418607 4.3823599 88.9892712 4.94610691 89.38 5.63 89.7893692 6.3626064 89.9964522 7.19093825 89.98 8.03 89.9964522 8.86906175 89.7893692 9.6973936 89.38 10.43 88.9892712 11.1138931 88.418607 11.6776401 87.73 12.06 86.9849908 12.4643803 86.1474952 12.6677229 85.3 12.65L81.66 12.68zM84.15 10.68L85.3 10.68C85.9047046 10.716735 86.4909798 10.464414 86.88 10 87.2834999 9.45091426 87.488054 8.78082327 87.46 8.1 87.488054 7.41917673 87.2834999 6.74908574 86.88 6.2 86.5012718 5.72356611 85.9181574 5.45615059 85.31 5.48L84.15 5.48 84.15 10.68zM97.45 12.68L96.86 11 93.4 11 92.82 12.73 90.32 12.73 93.7 3.43 96.64 3.43 100 12.68 97.45 12.68zM94 9.08L96.19 9.08 95.14 5.84 94 9.08z"/>
    <polygon fill="#404040" fill-rule="nonzero" points="104.92 9.35 104.92 12.68 102.35 12.68 102.35 9.35 99.07 3.43 101.93 3.43 103.64 7.1 105.34 3.43 108.2 3.43"/>
    <polygon fill="#FA9632" class='no-color-change' fill-rule="nonzero" points="34.59 24.53 34.59 17.32 31.84 17.32 31.84 15.32 39.84 15.32 39.84 17.32 37.12 17.32 37.12 24.53"/>
    <polygon fill="#FA9632" class='no-color-change' fill-rule="nonzero" points="41.2 24.53 41.2 15.28 47.58 15.28 47.58 17.28 43.68 17.28 43.68 18.84 47.15 18.84 47.15 20.84 43.68 20.84 43.68 22.44 47.8 22.44 47.8 24.44"/>
    <path fill="#FA9632" class='no-color-change' fill-rule="nonzero" d="M53.62,24.71 C52.7539458,24.7294615 51.8982121,24.5189786 51.14,24.1 C50.4379383,23.7017083 49.8599059,23.1167534 49.47,22.41 C49.0529412,21.6401966 48.8427594,20.7753503 48.86,19.9 C48.8417326,19.0277185 49.052031,18.1658398 49.47,17.4 C49.8601133,16.6959778 50.4383193,16.1143094 51.14,15.72 C51.8999232,15.3054114 52.7544663,15.0952213 53.62,15.11 C54.3677853,15.0973536 55.1079506,15.2618348 55.78,15.59 C56.4264701,15.9255504 56.9848654,16.4085795 57.41,17 L55.41,18.18 C55.1903561,17.8951295 54.9189437,17.654251 54.61,17.47 C54.3051942,17.2972391 53.9603528,17.2075803 53.61,17.21 C53.0042358,17.1949489 52.4265702,17.4652668 52.05,17.94 C51.6169606,18.5133104 51.4040554,19.2229944 51.45,19.94 C51.409321,20.6563944 51.6216931,21.3643013 52.05,21.94 C52.4224687,22.4210396 53.0018221,22.695861 53.61,22.68 C53.9838994,22.6875224 54.3520041,22.5868145 54.67,22.39 C54.9671641,22.2057845 55.2309089,21.9724718 55.45,21.7 L57.45,22.88 C57.0282222,23.4782769 56.4647637,23.9627138 55.81,24.29 C55.1232065,24.6003367 54.3728759,24.7442357 53.62,24.71 Z"/>
    <polygon fill="#FA9632" class='no-color-change' fill-rule="nonzero" points="58.7 24.53 58.7 15.28 61.23 15.28 61.23 18.84 64.37 18.84 64.37 15.28 66.9 15.28 66.9 24.53 64.37 24.53 64.37 20.91 61.23 20.91 61.23 24.53"/>
  </g>
</svg>
