<?xml version="1.0" encoding="UTF-8" standalone="no"?>
<svg width="246px" height="29px" viewBox="0 0 246 29" version="1.1" xmlns="http://www.w3.org/2000/svg" xmlns:xlink="http://www.w3.org/1999/xlink" xmlns:sketch="http://www.bohemiancoding.com/sketch/ns">
    <!-- Generator: Sketch 3.4.2 (15857) - http://www.bohemiancoding.com/sketch -->
    <title>USAT_Sports_Tertiary_SubBrand_FullColor_RGB</title>
    <desc>Created with Sketch.</desc>
    <defs>
        <path id="path-1" d="M0,0.668 L245.394,0.668 L245.394,28.94 L0,28.94"></path>
    </defs>
    <g id="Page-1" stroke="none" stroke-width="1" fill="none" fill-rule="evenodd" sketch:type="MSPage">
        <g id="USAT_Sports_Tertiary_SubBrand_FullColor_RGB" sketch:type="MSLayerGroup">
            <path d="M34.594,17.038 L34.594,7.016 L39.101,7.016 L39.101,15.738 C39.101,17.464 39.28,19.146 41.544,19.146 C43.808,19.146 43.987,17.464 43.987,15.738 L43.987,7.016 L48.492,7.016 L48.492,17.038 C48.492,20.916 46.004,23.068 41.544,23.068 C36.947,23.068 34.594,20.916 34.594,17.038" id="Fill-1" fill="#000000" sketch:type="MSShapeGroup"></path>
            <path d="M49.706,20.781 L51.88,17.777 C52.688,18.742 54.033,19.616 55.602,19.616 C56.768,19.616 57.44,19.1 57.44,18.226 C57.44,17.149 56.454,16.768 54.727,16.274 C52.508,15.648 50.424,14.391 50.424,11.634 C50.424,8.72 52.867,6.702 56.298,6.702 C58.74,6.702 60.602,7.666 61.678,8.563 L59.637,11.522 C58.987,10.782 57.867,10.154 56.566,10.154 C55.354,10.154 54.886,10.626 54.886,11.253 C54.886,12.105 55.781,12.464 57.373,12.911 C60.041,13.674 61.902,15.042 61.902,17.821 C61.902,20.781 59.684,23.068 55.871,23.068 C52.89,23.068 50.67,21.835 49.706,20.781" id="Fill-2" fill="#000000" sketch:type="MSShapeGroup"></path>
            <path d="M72.216,16.902 L70.983,13.114 C70.736,12.374 70.535,11.433 70.445,10.76 L70.311,10.76 C70.221,11.433 70.02,12.374 69.773,13.114 L68.54,16.902 L72.216,16.902 L72.216,16.902 Z M67.956,7.016 L72.912,7.016 L78.763,22.754 L74.076,22.754 L73.315,20.49 L67.418,20.49 L66.68,22.754 L62.105,22.754 C62.105,22.754 67.935,7.016 67.956,7.016 L67.956,7.016 Z" id="Fill-3" fill="#000000" sketch:type="MSShapeGroup"></path>
            <path d="M85.404,10.672 L81.527,10.672 L81.527,7.018 L93.79,7.018 L93.79,10.672 L89.91,10.672 L89.91,22.757 L85.404,22.757 L85.404,10.672" id="Fill-4" fill="#000000" sketch:type="MSShapeGroup"></path>
            <path d="M106.749,14.91 C106.749,12.083 104.909,10.628 102.713,10.628 C100.563,10.628 98.723,12.083 98.723,14.91 C98.723,17.712 100.563,19.147 102.713,19.147 C104.909,19.147 106.749,17.712 106.749,14.91 L106.749,14.91 Z M94.105,14.91 C94.105,11.031 96.885,6.704 102.735,6.704 C108.609,6.704 111.388,11.031 111.388,14.91 C111.388,18.766 108.609,23.07 102.735,23.07 C96.885,23.07 94.105,18.766 94.105,14.91 L94.105,14.91 Z" id="Fill-5" fill="#000000" sketch:type="MSShapeGroup"></path>
            <path d="M117.513,19.125 L118.477,19.125 C121.367,19.125 122.916,17.734 122.916,14.888 C122.916,12.041 121.367,10.65 118.477,10.65 L117.513,10.65 L117.513,19.125 L117.513,19.125 Z M113.006,7.018 L118.813,7.018 C124.372,7.018 127.557,9.977 127.557,14.888 C127.557,19.707 124.282,22.757 118.813,22.757 L113.006,22.757 L113.006,7.018 L113.006,7.018 Z" id="Fill-6" fill="#000000" sketch:type="MSShapeGroup"></path>
            <path d="M137.018,16.905 L135.809,13.116 C135.561,12.376 135.359,11.435 135.271,10.762 L135.135,10.762 C135.045,11.435 134.844,12.376 134.597,13.116 L133.386,16.905 L137.018,16.905 L137.018,16.905 Z M132.781,7.018 L137.736,7.018 L143.587,22.757 L138.901,22.757 L138.16,20.492 L132.222,20.492 L131.503,22.757 L126.931,22.757 L132.781,7.018 L132.781,7.018 Z" id="Fill-7" fill="#000000" sketch:type="MSShapeGroup"></path>
            <path d="M146.368,17.152 L140.495,7.018 L145.428,7.018 L147.557,10.896 C148.006,11.726 148.634,12.982 148.768,13.811 L148.857,13.811 C148.992,12.982 149.62,11.726 150.067,10.896 L152.198,7.018 L156.995,7.018 L151.121,17.152 L151.121,22.757 L146.368,22.757 L146.368,17.152" id="Fill-8" fill="#000000" sketch:type="MSShapeGroup"></path>
            <path d="M161.157,20.796 L163.332,17.79 C164.139,18.756 165.485,19.63 167.032,19.63 C168.197,19.63 168.893,19.135 168.893,18.217 C168.893,17.119 167.883,16.804 166.179,16.289 C163.894,15.594 161.876,14.405 161.876,11.693 C161.876,8.712 164.319,6.717 167.771,6.717 C170.169,6.717 171.986,7.456 173.129,8.532 L171.09,11.536 C170.439,10.797 169.341,10.169 167.996,10.169 C166.829,10.169 166.336,10.64 166.336,11.266 C166.336,12.253 167.525,12.521 168.824,12.926 C171.382,13.733 173.355,14.9 173.355,17.79 C173.355,20.817 171.179,23.082 167.256,23.082 C164.363,23.082 162.12,21.85 161.157,20.796" id="Fill-9" fill="#EC1E00" sketch:type="MSShapeGroup"></path>
            <path d="M180.081,14.452 C181.783,14.452 182.547,13.868 182.547,12.545 C182.547,11.222 181.783,10.617 180.081,10.617 L179.318,10.617 L179.318,14.452 L180.081,14.452 L180.081,14.452 Z M174.813,7.03 L180.775,7.03 C184.855,7.03 187.189,9.406 187.189,12.545 C187.189,15.683 184.855,18.037 180.775,18.037 L179.318,18.037 L179.318,22.769 L174.813,22.769 L174.813,7.03 L174.813,7.03 Z" id="Fill-10" fill="#EC1E00" sketch:type="MSShapeGroup"></path>
            <path d="M200.82,14.922 C200.82,12.097 198.982,10.64 196.786,10.64 C194.632,10.64 192.793,12.097 192.793,14.922 C192.793,17.723 194.632,19.159 196.786,19.159 C198.982,19.159 200.82,17.723 200.82,14.922 L200.82,14.922 Z M188.176,14.922 C188.176,11.043 190.955,6.717 196.807,6.717 C202.681,6.717 205.461,11.043 205.461,14.922 C205.461,18.778 202.681,23.082 196.807,23.082 C190.955,23.082 188.176,18.778 188.176,14.922 L188.176,14.922 Z" id="Fill-11" fill="#EC1E00" sketch:type="MSShapeGroup"></path>
            <path d="M212.861,14.025 C214.363,14.025 215.124,13.442 215.124,12.322 C215.124,11.2 214.363,10.617 212.861,10.617 L211.561,10.617 L211.561,14.025 L212.861,14.025 L212.861,14.025 Z M207.054,7.03 L213.578,7.03 C216.942,7.03 219.743,8.532 219.743,12.322 C219.743,14.16 218.689,15.774 216.56,16.67 L220.641,22.769 L215.529,22.769 L212.233,17.432 L211.561,17.432 L211.561,22.769 L207.054,22.769 L207.054,7.03 L207.054,7.03 Z" id="Fill-12" fill="#EC1E00" sketch:type="MSShapeGroup"></path>
            <path d="M224.409,10.684 L220.529,10.684 L220.529,7.03 L232.793,7.03 L232.793,10.684 L228.914,10.684 L228.914,22.769 L224.409,22.769 L224.409,10.684" id="Fill-13" fill="#EC1E00" sketch:type="MSShapeGroup"></path>
            <g id="Group-17">
                <mask id="mask-2" sketch:name="Clip 15" fill="white">
                    <use xlink:href="#path-1"></use>
                </mask>
                <g id="Clip-15"></g>
                <path d="M233.198,20.796 L235.372,17.79 C236.18,18.756 237.525,19.63 239.072,19.63 C240.237,19.63 240.934,19.135 240.934,18.217 C240.934,17.119 239.923,16.804 238.22,16.289 C235.934,15.594 233.914,14.405 233.914,11.693 C233.914,8.712 236.357,6.717 239.812,6.717 C242.21,6.717 244.026,7.456 245.17,8.532 L243.13,11.536 C242.479,10.797 241.381,10.169 240.035,10.169 C238.87,10.169 238.376,10.64 238.376,11.266 C238.376,12.253 239.564,12.521 240.864,12.926 C243.42,13.733 245.394,14.9 245.394,17.79 C245.394,20.817 243.219,23.082 239.295,23.082 C236.404,23.082 234.162,21.85 233.198,20.796" id="Fill-14" fill="#EC1E00" sketch:type="MSShapeGroup" mask="url(#mask-2)"></path>
                <path d="M28.334,14.834 C28.334,22.656 21.99,29 14.166,29 C6.344,29 0,22.656 0,14.834 C0,7.01 6.344,0.668 14.166,0.668 C21.99,0.668 28.334,7.01 28.334,14.834" id="Fill-16" fill="#EC1E00" sketch:type="MSShapeGroup" mask="url(#mask-2)"></path>
            </g>
        </g>
    </g>
</svg>