<svg xmlns="http://www.w3.org/2000/svg" width="109" height="28" viewBox="0 0 109 28">
  <g fill="none" fill-rule="evenodd">
    <circle class='no-color-change' cx="14" cy="14" r="14" fill="#F03C4B" fill-rule="nonzero"/>
    <path fill="#404040" fill-rule="nonzero" d="M36 10.75C36.4397795 10.7769024 36.8698092 10.612908 37.18 10.3 37.4691922 9.93168943 37.6052925 9.46608302 37.56 9L37.56 3.43 40.09 3.43 40.09 9C40.1535439 10.0625638 39.7563796 11.101021 39 11.85 38.1638196 12.5531825 37.0908538 12.9108378 36 12.85 34.9090098 12.9118594 33.8356766 12.5540817 33 11.85 32.2179132 11.1134575 31.7945732 10.073355 31.84 9L31.84 3.43 34.37 3.43 34.37 9C34.3400911 9.46481384 34.4905209 9.92326657 34.79 10.28 35.1027933 10.6096716 35.5466866 10.782093 36 10.75zM45.14 12.86C44.4090421 12.8594812 43.6841478 12.7273743 43 12.47 42.3310425 12.2256713 41.7186685 11.8480406 41.2 11.36L42.42 9.82C42.7788422 10.1455977 43.1916859 10.406163 43.64 10.59 44.1166115 10.7814459 44.6264181 10.8766098 45.14 10.87 45.4386285 10.8862664 45.73602 10.8205636 46 10.68 46.2007529 10.5619104 46.3199748 10.3426959 46.31 10.11 46.3065943 9.85964846 46.1638849 9.63208491 45.94 9.52 45.5313171 9.29046664 45.0942417 9.11563648 44.64 9L44.07 8.85C43.3573679 8.69605015 42.7003642 8.35025873 42.17 7.85 41.7312602 7.39119162 41.4968062 6.77439718 41.52 6.14 41.5242914 5.60291008 41.6916858 5.0798026 42 4.64 42.3265922 4.19530418 42.7694945 3.84928681 43.28 3.64 43.8779282 3.38926837 44.5217672 3.26663238 45.17 3.28 45.8554234 3.2814107 46.5342636 3.41378454 47.17 3.67 47.7985964 3.91125694 48.3805622 4.25975973 48.89 4.7L47.62 6.29C47.2712481 5.99604592 46.8844246 5.75049705 46.47 5.56 46.062455 5.35876392 45.6145121 5.25276215 45.16 5.25 44.8687494 5.23126744 44.5780016 5.29357055 44.32 5.43 44.1101117 5.54011646 43.9847188 5.76347259 44 6 44.0069412 6.22574636 44.1223763 6.43427428 44.31 6.56 44.6394761 6.77260857 45.0057518 6.92183204 45.39 7L46.08 7.19C46.8759473 7.35392626 47.6082105 7.7426157 48.19 8.31 48.5967403 8.76250326 48.8181038 9.35161591 48.81 9.96 48.8197866 10.5085754 48.6590588 11.0466642 48.35 11.5 48.0206849 11.9461501 47.5741569 12.2922958 47.06 12.5 46.4520215 12.7522903 45.7980775 12.8749048 45.14 12.86L45.14 12.86zM56.46 12.68L55.87 11 52.41 11 51.83 12.73 49.33 12.73 52.72 3.48 55.66 3.48 59 12.68 56.46 12.68zM53 9.08L55.19 9.08 54.15 5.84 53 9.08z"/>
    <polygon fill="#404040" fill-rule="nonzero" points="64.84 12.68 64.84 5.47 62.09 5.47 62.09 3.47 70.09 3.47 70.09 5.47 67.37 5.47 67.37 12.68"/>
    <path fill="#404040" fill-rule="nonzero" d="M75.4 12.86C74.5374244 12.8767448 73.6856101 12.6663777 72.93 12.25 72.2169729 11.852583 71.6257778 11.2683024 71.22 10.56 70.7927004 9.8042657 70.5751924 8.94804378 70.59 8.08 70.5984154 7.40950675 70.7376885 6.74710997 71 6.13 71.2258557 5.56026653 71.566207 5.04293261 72 4.61 72.4352033 4.17899952 72.9519321 3.83904631 73.52 3.61 74.7534441 3.14018813 76.1165559 3.14018813 77.35 3.61 77.9179434 3.83928384 78.4346279 4.17920785 78.87 4.61 79.3040145 5.04275192 79.6443979 5.56013464 79.87 6.13 80.1109862 6.74795905 80.229847 7.40678755 80.22 8.07 80.2378552 8.93712697 80.0238143 9.79329042 79.6 10.55 79.1942222 11.2583024 78.6030271 11.842583 77.89 12.24 77.1294543 12.6632822 76.2702304 12.8772255 75.4 12.86L75.4 12.86zM75.4 10.77C75.8124801 10.7790274 76.2176583 10.6602683 76.56 10.43 76.9013702 10.1899597 77.1709996 9.86156492 77.34 9.48 77.540524 9.03748074 77.639606 8.55573749 77.63 8.07 77.6379426 7.58441663 77.5389348 7.10303412 77.34 6.66 77.1765582 6.26148273 76.9067316 5.91555122 76.56 5.66 75.8529507 5.19494295 74.9370493 5.19494295 74.23 5.66 73.8832684 5.91555122 73.6134418 6.26148273 73.45 6.66 73.2510652 7.10303412 73.1520574 7.58441663 73.16 8.07 73.150394 8.55573749 73.249476 9.03748074 73.45 9.48 73.6190004 9.86156492 73.8886298 10.1899597 74.23 10.43 74.576313 10.6587322 74.9852068 10.7740612 75.4 10.76L75.4 10.77zM81.66 12.68L81.66 3.43 85.3 3.43C86.1457158 3.40614137 86.9831059 3.60256619 87.73 4 88.418607 4.3823599 88.9892712 4.94610691 89.38 5.63 89.7893692 6.3626064 89.9964522 7.19093825 89.98 8.03 89.9964522 8.86906175 89.7893692 9.6973936 89.38 10.43 88.9892712 11.1138931 88.418607 11.6776401 87.73 12.06 86.9849908 12.4643803 86.1474952 12.6677229 85.3 12.65L81.66 12.68zM84.15 10.68L85.3 10.68C85.9047046 10.716735 86.4909798 10.464414 86.88 10 87.2834999 9.45091426 87.488054 8.78082327 87.46 8.1 87.488054 7.41917673 87.2834999 6.74908574 86.88 6.2 86.5012718 5.72356611 85.9181574 5.45615059 85.31 5.48L84.15 5.48 84.15 10.68zM97.45 12.68L96.86 11 93.4 11 92.82 12.73 90.32 12.73 93.7 3.43 96.64 3.43 100 12.68 97.45 12.68zM94 9.08L96.19 9.08 95.14 5.84 94 9.08z"/>
    <polygon fill="#404040" fill-rule="nonzero" points="104.92 9.35 104.92 12.68 102.35 12.68 102.35 9.35 99.07 3.43 101.93 3.43 103.64 7.1 105.34 3.43 108.2 3.43"/>
    <path fill="#F03C4B" class='no-color-change' fill-rule="nonzero" d="M35.8 24.71C35.062322 24.7118931 34.3304374 24.5797472 33.64 24.32 32.9710425 24.0756713 32.3586685 23.6980406 31.84 23.21L33.06 21.67C33.4188422 21.9955977 33.8316859 22.256163 34.28 22.44 34.7566115 22.6314459 35.2664181 22.7266098 35.78 22.72 36.0786285 22.7362664 36.37602 22.6705636 36.64 22.53 36.847582 22.4320967 36.9854988 22.2290525 37 22 36.9965943 21.7496485 36.8538849 21.5220849 36.63 21.41 36.2219705 21.1985798 35.7884012 21.0406127 35.34 20.94L34.77 20.79C34.0573679 20.6360502 33.4003642 20.2902587 32.87 19.79 32.3921799 19.3203923 32.1375118 18.6691696 32.17 18 32.1581271 17.44803 32.3189478 16.9061342 32.63 16.45 32.9565922 16.0053042 33.3994945 15.6592868 33.91 15.45 34.5079282 15.1992684 35.1517672 15.0766324 35.8 15.09 36.4854234 15.0914107 37.1642636 15.2237845 37.8 15.48 38.4264931 15.7283559 39.0050912 16.0836354 39.51 16.53L38.24 18.12C37.8912481 17.8260459 37.5044246 17.580497 37.09 17.39 36.682455 17.1887639 36.2345121 17.0827621 35.78 17.08 35.4887494 17.0612674 35.1980016 17.1235706 34.94 17.26 34.7517482 17.3733203 34.6404969 17.580478 34.65 17.8 34.6569412 18.0257464 34.7723763 18.2342743 34.96 18.36 35.2803711 18.5692223 35.6361811 18.7183236 36.01 18.8L36.7 18.99C37.4959473 19.1539263 38.2282105 19.5426157 38.81 20.11 39.2167403 20.5625033 39.4381038 21.1516159 39.43 21.76 39.4507235 22.3087394 39.3004661 22.8503648 39 23.31 38.6706849 23.7561501 38.2241569 24.1022958 37.71 24.31 37.1080577 24.574645 36.457549 24.7108772 35.8 24.71zM41 24.53L41 15.28 44.92 15.28C45.8543197 15.2310588 46.7735915 15.5303566 47.5 16.12 48.1615801 16.6892214 48.5293509 17.5277387 48.5 18.4 48.4887511 18.9700088 48.3153128 19.5250112 48 20 47.7103758 20.4614796 47.2936968 20.829546 46.8 21.06 46.219052 21.3210351 45.5866578 21.4475139 44.95 21.43L43.44 21.43 43.44 24.5 41 24.53zM43.45 19.53L44.67 19.53C45.0047727 19.5462809 45.3333493 19.4355649 45.59 19.22 45.8087083 19.0072566 45.9320914 18.7151116 45.9320914 18.41 45.9320914 18.1048884 45.8087083 17.8127434 45.59 17.6 45.3333493 17.3844351 45.0047727 17.2737191 44.67 17.29L43.44 17.29 43.45 19.53zM54.12 24.71C53.2574244 24.7267448 52.4056101 24.5163777 51.65 24.1 50.9369729 23.702583 50.3457778 23.1183024 49.94 22.41 49.5127004 21.6542657 49.2951924 20.7980438 49.31 19.93 49.3051292 19.2695339 49.4273496 18.6142964 49.67 18 49.8958557 17.4302665 50.236207 16.9129326 50.67 16.48 51.1052033 16.0489995 51.6219321 15.7090463 52.19 15.48 53.4234441 15.0101881 54.7865559 15.0101881 56.02 15.48 56.5879434 15.7092838 57.1046279 16.0492079 57.54 16.48 57.9740145 16.9127519 58.3143979 17.4301346 58.54 18 58.7809862 18.617959 58.899847 19.2767876 58.89 19.94 58.9078552 20.807127 58.6938143 21.6632904 58.27 22.42 57.8642222 23.1283024 57.2730271 23.712583 56.56 24.11 55.8123077 24.5178179 54.9715558 24.7245601 54.12 24.71L54.12 24.71zM54.12 22.62C54.5324801 22.6290274 54.9376583 22.5102683 55.28 22.28 55.6213702 22.0399597 55.8909996 21.7115649 56.06 21.33 56.260524 20.8874807 56.359606 20.4057375 56.35 19.92 56.3579426 19.4344166 56.2589348 18.9530341 56.06 18.51 55.8965582 18.1114827 55.6267316 17.7655512 55.28 17.51 54.5729507 17.044943 53.6570493 17.044943 52.95 17.51 52.6032684 17.7655512 52.3334418 18.1114827 52.17 18.51 51.9710652 18.9530341 51.8720574 19.4344166 51.88 19.92 51.870394 20.4057375 51.969476 20.8874807 52.17 21.33 52.3390004 21.7115649 52.6086298 22.0399597 52.95 22.28 53.296313 22.5087322 53.7052068 22.6240612 54.12 22.61L54.12 22.62zM62.88 21.46L62.88 24.53 60.43 24.53 60.43 15.28 64.51 15.28C65.4443197 15.2310588 66.3635915 15.5303566 67.09 16.12 67.7515801 16.6892214 68.1193509 17.5277387 68.09 18.4 68.0906841 18.9660501 67.9312095 19.5207443 67.63 20 67.3444751 20.4575215 66.9354073 20.8249891 66.45 21.06L68.34 24.51 65.64 24.51 64.1 21.46 62.88 21.46zM62.88 19.54L64.24 19.54C64.5747727 19.5562809 64.9033493 19.4455649 65.16 19.23 65.3921601 19.0141831 65.5166827 18.706539 65.5 18.39 65.5176752 18.0820095 65.3922076 17.7831014 65.16 17.58 64.9033493 17.3644351 64.5747727 17.2537191 64.24 17.27L62.88 17.27 62.88 19.54z"/>
    <polygon fill="#F03C4B" class='no-color-change' fill-rule="nonzero" points="71.59 24.53 71.59 17.32 68.85 17.32 68.85 15.32 76.85 15.32 76.85 17.32 74.13 17.32 74.13 24.53"/>
    <path fill="#F03C4B" class='no-color-change' fill-rule="nonzero" d="M81.33,24.71 C80.592322,24.7118931 79.8604374,24.5797472 79.17,24.32 C78.5010425,24.0756713 77.8886685,23.6980406 77.37,23.21 L78.59,21.67 C78.9488422,21.9955977 79.3616859,22.256163 79.81,22.44 C80.2866115,22.6314459 80.7964181,22.7266098 81.31,22.72 C81.6086285,22.7362664 81.90602,22.6705636 82.17,22.53 C82.3707529,22.4119104 82.4899748,22.1926959 82.48,21.96 C82.4765943,21.7096485 82.3338849,21.4820849 82.11,21.37 C81.7019705,21.1585798 81.2684012,21.0006127 80.82,20.9 L80.25,20.75 C79.5373679,20.5960502 78.8803642,20.2502587 78.35,19.75 C77.9009916,19.2814407 77.6657361,18.6480605 77.7,18 C77.6881271,17.44803 77.8489478,16.9061342 78.16,16.45 C78.4865922,16.0053042 78.9294945,15.6592868 79.44,15.45 C80.0379282,15.1992684 80.6817672,15.0766324 81.33,15.09 C82.0154234,15.0914107 82.6942636,15.2237845 83.33,15.48 C83.9564931,15.7283559 84.5350912,16.0836354 85.04,16.53 L83.77,18.12 C83.4212481,17.8260459 83.0344246,17.580497 82.62,17.39 C82.212455,17.1887639 81.7645121,17.0827621 81.31,17.08 C81.0187494,17.0612674 80.7280016,17.1235706 80.47,17.26 C80.2817482,17.3733203 80.1704969,17.580478 80.18,17.8 C80.1869412,18.0257464 80.3023763,18.2342743 80.49,18.36 C80.8103711,18.5692223 81.1661811,18.7183236 81.54,18.8 L82.23,18.99 C83.0259473,19.1539263 83.7582105,19.5426157 84.34,20.11 C84.7636524,20.5589129 84.9997542,21.1527447 85,21.77 C85.0097866,22.3185754 84.8490588,22.8566642 84.54,23.31 C84.2106849,23.7561501 83.7641569,24.1022958 83.25,24.31 C82.6449747,24.5760094 81.9909172,24.7122714 81.33,24.71 L81.33,24.71 Z"/>
  </g>
</svg>
