<svg xmlns="http://www.w3.org/2000/svg" width="109" height="28" viewBox="0 0 109 28">
  <g fill="none" fill-rule="evenodd" transform="translate(0 -1)">
    <circle class='no-color-change' cx="14" cy="14.98" r="14" fill="#009BFF" fill-rule="nonzero"/>
    <path fill="#404040" fill-rule="nonzero" d="M36 11.73C36.4397795 11.7569024 36.8698092 11.592908 37.18 11.28 37.4642531 10.9168826 37.6000682 10.4594002 37.56 10L37.56 4.41 40.09 4.41 40.09 10C40.1477089 11.0557428 39.7509971 12.0857376 39 12.83 38.1638196 13.5331825 37.0908538 13.8908378 36 13.83 34.9090098 13.8918594 33.8356766 13.5340817 33 12.83 32.2232909 12.0981054 31.8004342 11.0664808 31.84 10L31.84 4.41 34.37 4.41 34.37 10C34.3400911 10.4648138 34.4905209 10.9232666 34.79 11.28 35.1064346 11.6023369 35.5498387 11.7672392 36 11.73zM45.14 13.83C44.4096515 13.8326796 43.6847763 13.7039634 43 13.45 42.3310425 13.2056713 41.7186685 12.8280406 41.2 12.34L42.42 10.8C42.7788422 11.1255977 43.1916859 11.386163 43.64 11.57 44.1166115 11.7614459 44.6264181 11.8566098 45.14 11.85 45.4386285 11.8662664 45.73602 11.8005636 46 11.66 46.2007529 11.5419104 46.3199748 11.3226959 46.31 11.09 46.3065943 10.8396485 46.1638849 10.6120849 45.94 10.5 45.5303061 10.2773966 45.0932699 10.1093058 44.64 10L44.07 9.85C43.3573679 9.69605015 42.7003642 9.35025873 42.17 8.85 41.7312602 8.39119162 41.4968062 7.77439718 41.52 7.14 41.520216 6.59607931 41.6877992 6.0653992 42 5.62 42.3265922 5.17530418 42.7694945 4.82928681 43.28 4.62 43.8779282 4.36926837 44.5217672 4.24663238 45.17 4.26 45.8554234 4.2614107 46.5342636 4.39378454 47.17 4.65 47.7964931 4.89835585 48.3750912 5.2536354 48.88 5.7L47.62 7.27C47.2712481 6.97604592 46.8844246 6.73049705 46.47 6.54 46.062455 6.33876392 45.6145121 6.23276215 45.16 6.23 44.8687494 6.21126744 44.5780016 6.27357055 44.32 6.41 44.1317482 6.52332034 44.0204969 6.73047797 44.03 6.95 44.0369412 7.17574636 44.1523763 7.38427428 44.34 7.51 44.6603711 7.71922229 45.0161811 7.86832361 45.39 7.95L46.08 8.14C46.8759473 8.30392626 47.6082105 8.6926157 48.19 9.26 48.5967403 9.71250326 48.8181038 10.3016159 48.81 10.91 48.8197866 11.4585754 48.6590588 11.9966642 48.35 12.45 48.0206849 12.8961501 47.5741569 13.2422958 47.06 13.45 46.4534932 13.7091434 45.7994939 13.8385808 45.14 13.83L45.14 13.83zM56.46 13.66L55.88 11.93 52.41 11.93 51.83 13.66 49.33 13.66 52.72 4.41 55.66 4.41 59 13.66 56.46 13.66zM53 10.05L55.19 10.05 54.15 6.82 53 10.05z"/>
    <polygon fill="#404040" fill-rule="nonzero" points="64.84 13.66 64.84 6.45 62.09 6.45 62.09 4.45 70.09 4.45 70.09 6.45 67.37 6.45 67.37 13.66"/>
    <path fill="#404040" fill-rule="nonzero" d="M75.4 13.83C74.5374244 13.8467448 73.6856101 13.6363777 72.93 13.22 72.2169729 12.822583 71.6257778 12.2383024 71.22 11.53 70.7874426 10.7586071 70.5731083 9.88398519 70.6 9 70.6129192 8.35040844 70.7486399 7.70912787 71 7.11 71.2258557 6.54026653 71.566207 6.02293261 72 5.59 72.4352033 5.15899952 72.9519321 4.81904631 73.52 4.59 74.7534441 4.12018813 76.1165559 4.12018813 77.35 4.59 77.9179434 4.81928384 78.4346279 5.15920785 78.87 5.59 79.3040145 6.02275192 79.6443979 6.54013464 79.87 7.11 80.0978778 7.71364134 80.2098355 8.35485317 80.2 9 80.2178552 9.86712697 80.0038143 10.7232904 79.58 11.48 79.1742222 12.1883024 78.5830271 12.772583 77.87 13.17 77.1192116 13.6038147 76.2671079 13.8315023 75.4 13.83zM75.4 11.74C75.8124801 11.7490274 76.2176583 11.6302683 76.56 11.4 76.9013702 11.1599597 77.1709996 10.8315649 77.34 10.45 77.5464561 9.99526024 77.645675 9.49916598 77.63 9 77.6379426 8.51441663 77.5389348 8.03303412 77.34 7.59 77.1765582 7.19148273 76.9067316 6.84555122 76.56 6.59 75.8529507 6.12494295 74.9370493 6.12494295 74.23 6.59 73.8832684 6.84555122 73.6134418 7.19148273 73.45 7.59 73.2545008 8.03381273 73.1589135 8.51516316 73.17 9 73.160394 9.48573749 73.259476 9.96748074 73.46 10.41 73.6290004 10.7915649 73.8986298 11.1199597 74.24 11.36 74.5776208 11.6044515 74.9831822 11.7373078 75.4 11.74zM81.66 13.66L81.66 4.41 85.3 4.41C86.1474952 4.39227713 86.9849908 4.59561967 87.73 5 88.418607 5.3823599 88.9892712 5.94610691 89.38 6.63 89.7912083 7.35184515 90.005047 8.16926105 90 9 90.0164522 9.83906175 89.8093692 10.6673936 89.4 11.4 89.0092712 12.0838931 88.438607 12.6476401 87.75 13.03 87.0049908 13.4343803 86.1674952 13.6377229 85.32 13.62L81.66 13.66zM84.15 11.66L85.3 11.66C85.9081574 11.6838494 86.4912718 11.4164339 86.87 10.94 87.2734999 10.3909143 87.478054 9.72082327 87.45 9.04 87.478054 8.35917673 87.2734999 7.68908574 86.87 7.14 86.4912718 6.66356611 85.9081574 6.39615059 85.3 6.42L84.15 6.42 84.15 11.66zM97.45 13.66L96.87 11.93 93.4 11.93 92.82 13.66 90.32 13.66 93.7 4.41 96.64 4.41 100 13.66 97.45 13.66zM94 10.05L96.19 10.05 95.14 6.82 94 10.05z"/>
    <polygon fill="#404040" fill-rule="nonzero" points="104.92 10.32 104.92 13.65 102.35 13.65 102.35 10.32 99.07 4.41 101.93 4.41 103.64 8.08 105.34 4.41 108.2 4.41"/>
    <polygon fill="#009BFF" class='no-color-change' fill-rule="nonzero" points="37.8 25.51 34.17 20.18 34.17 25.51 31.84 25.51 31.84 16.26 34.15 16.26 37.77 21.69 37.77 16.26 40.11 16.26 40.11 25.51"/>
    <polygon fill="#009BFF" class='no-color-change' fill-rule="nonzero" points="42.15 25.51 42.15 16.26 48.53 16.26 48.53 18.26 44.63 18.26 44.63 19.82 48.1 19.82 48.1 21.82 44.63 21.82 44.63 23.42 48.75 23.42 48.75 25.42"/>
    <polygon fill="#009BFF" class='no-color-change' fill-rule="nonzero" points="57.55 25.51 56.05 19.51 54.55 25.51 51.88 25.51 49.58 16.26 52 16.26 53.4 22.57 55 16.26 57.16 16.26 58.7 22.53 60.14 16.26 62.55 16.26 60.25 25.51"/>
    <path fill="#009BFF" class='no-color-change' fill-rule="nonzero" d="M67.07,25.68 C66.332322,25.6818931 65.6004374,25.5497472 64.91,25.29 C64.2410425,25.0456713 63.6286685,24.6680406 63.11,24.18 L64.33,22.64 C64.6888422,22.9655977 65.1016859,23.226163 65.55,23.41 C66.0266115,23.6014459 66.5364181,23.6966098 67.05,23.69 C67.3486285,23.7062664 67.64602,23.6405636 67.91,23.5 C68.1107529,23.3819104 68.2299748,23.1626959 68.22,22.93 C68.2165943,22.6796485 68.0738849,22.4520849 67.85,22.34 C67.4419705,22.1285798 67.0084012,21.9706127 66.56,21.87 L66,21.73 C65.2873679,21.5760502 64.6303642,21.2302587 64.1,20.73 C63.6525125,20.2679584 63.4139707,19.6426896 63.44,19 C63.4281271,18.44803 63.5889478,17.9061342 63.9,17.45 C64.2265922,17.0053042 64.6694945,16.6592868 65.18,16.45 C65.7779282,16.1992684 66.4217672,16.0766324 67.07,16.09 C67.7554234,16.0914107 68.4342636,16.2237845 69.07,16.48 C69.6964931,16.7283559 70.2750912,17.0836354 70.78,17.53 L69.51,19.12 C69.1612481,18.8260459 68.7744246,18.580497 68.36,18.39 C67.952455,18.1887639 67.5045121,18.0827621 67.05,18.08 C66.7587494,18.0612674 66.4680016,18.1235706 66.21,18.26 C66.0217482,18.3733203 65.9104969,18.580478 65.92,18.8 C65.9269412,19.0257464 66.0423763,19.2342743 66.23,19.36 C66.5503711,19.5692223 66.9061811,19.7183236 67.28,19.8 L68,20 C68.7959473,20.1639263 69.5282105,20.5526157 70.11,21.12 C70.5167403,21.5725033 70.7381038,22.1616159 70.73,22.77 C70.7397866,23.3185754 70.5790588,23.8566642 70.27,24.31 C69.9406849,24.7561501 69.4941569,25.1022958 68.98,25.31 C68.3758497,25.5643499 67.7254268,25.690348 67.07,25.68 L67.07,25.68 Z"/>
  </g>
</svg>
