<svg xmlns="http://www.w3.org/2000/svg" width="109" height="28" viewBox="0 0 109 28">
  <g fill="#404040" fill-rule="evenodd">
    <circle class='no-color-change' cx="14" cy="14" r="14" fill-rule="nonzero"/>
    <path fill-rule="nonzero" d="M36 10.75C36.4397795 10.7769024 36.8698092 10.612908 37.18 10.3 37.4691922 9.93168943 37.6052925 9.46608302 37.56 9L37.56 3.43 40.09 3.43 40.09 9C40.1535439 10.0625638 39.7563796 11.101021 39 11.85 38.1638196 12.5531825 37.0908538 12.9108378 36 12.85 34.9090098 12.9118594 33.8356766 12.5540817 33 11.85 32.2179132 11.1134575 31.7945732 10.073355 31.84 9L31.84 3.43 34.37 3.43 34.37 9C34.3400911 9.46481384 34.4905209 9.92326657 34.79 10.28 35.1027933 10.6096716 35.5466866 10.782093 36 10.75zM45.14 12.86C44.4090421 12.8594812 43.6841478 12.7273743 43 12.47 42.3310425 12.2256713 41.7186685 11.8480406 41.2 11.36L42.42 9.82C42.7788422 10.1455977 43.1916859 10.406163 43.64 10.59 44.1166115 10.7814459 44.6264181 10.8766098 45.14 10.87 45.4386285 10.8862664 45.73602 10.8205636 46 10.68 46.2007529 10.5619104 46.3199748 10.3426959 46.31 10.11 46.3065943 9.85964846 46.1638849 9.63208491 45.94 9.52 45.5313171 9.29046664 45.0942417 9.11563648 44.64 9L44.07 8.85C43.3573679 8.69605015 42.7003642 8.35025873 42.17 7.85 41.7312602 7.39119162 41.4968062 6.77439718 41.52 6.14 41.5242914 5.60291008 41.6916858 5.0798026 42 4.64 42.3265922 4.19530418 42.7694945 3.84928681 43.28 3.64 43.8779282 3.38926837 44.5217672 3.26663238 45.17 3.28 45.8554234 3.2814107 46.5342636 3.41378454 47.17 3.67 47.7985964 3.91125694 48.3805622 4.25975973 48.89 4.7L47.62 6.29C47.2712481 5.99604592 46.8844246 5.75049705 46.47 5.56 46.062455 5.35876392 45.6145121 5.25276215 45.16 5.25 44.8687494 5.23126744 44.5780016 5.29357055 44.32 5.43 44.1101117 5.54011646 43.9847188 5.76347259 44 6 44.0069412 6.22574636 44.1223763 6.43427428 44.31 6.56 44.6394761 6.77260857 45.0057518 6.92183204 45.39 7L46.08 7.19C46.8759473 7.35392626 47.6082105 7.7426157 48.19 8.31 48.5967403 8.76250326 48.8181038 9.35161591 48.81 9.96 48.8197866 10.5085754 48.6590588 11.0466642 48.35 11.5 48.0206849 11.9461501 47.5741569 12.2922958 47.06 12.5 46.4520215 12.7522903 45.7980775 12.8749048 45.14 12.86L45.14 12.86zM56.46 12.68L55.87 11 52.41 11 51.83 12.73 49.33 12.73 52.72 3.48 55.66 3.48 59 12.68 56.46 12.68zM53 9.08L55.19 9.08 54.15 5.84 53 9.08z"/>
    <polygon fill-rule="nonzero" points="64.84 12.68 64.84 5.47 62.09 5.47 62.09 3.47 70.09 3.47 70.09 5.47 67.37 5.47 67.37 12.68"/>
    <path fill-rule="nonzero" d="M75.4 12.86C74.5374244 12.8767448 73.6856101 12.6663777 72.93 12.25 72.2169729 11.852583 71.6257778 11.2683024 71.22 10.56 70.7927004 9.8042657 70.5751924 8.94804378 70.59 8.08 70.5984154 7.40950675 70.7376885 6.74710997 71 6.13 71.2258557 5.56026653 71.566207 5.04293261 72 4.61 72.4352033 4.17899952 72.9519321 3.83904631 73.52 3.61 74.7534441 3.14018813 76.1165559 3.14018813 77.35 3.61 77.9179434 3.83928384 78.4346279 4.17920785 78.87 4.61 79.3040145 5.04275192 79.6443979 5.56013464 79.87 6.13 80.1109862 6.74795905 80.229847 7.40678755 80.22 8.07 80.2378552 8.93712697 80.0238143 9.79329042 79.6 10.55 79.1942222 11.2583024 78.6030271 11.842583 77.89 12.24 77.1294543 12.6632822 76.2702304 12.8772255 75.4 12.86L75.4 12.86zM75.4 10.77C75.8124801 10.7790274 76.2176583 10.6602683 76.56 10.43 76.9013702 10.1899597 77.1709996 9.86156492 77.34 9.48 77.540524 9.03748074 77.639606 8.55573749 77.63 8.07 77.6379426 7.58441663 77.5389348 7.10303412 77.34 6.66 77.1765582 6.26148273 76.9067316 5.91555122 76.56 5.66 75.8529507 5.19494295 74.9370493 5.19494295 74.23 5.66 73.8832684 5.91555122 73.6134418 6.26148273 73.45 6.66 73.2510652 7.10303412 73.1520574 7.58441663 73.16 8.07 73.150394 8.55573749 73.249476 9.03748074 73.45 9.48 73.6190004 9.86156492 73.8886298 10.1899597 74.23 10.43 74.576313 10.6587322 74.9852068 10.7740612 75.4 10.76L75.4 10.77zM81.66 12.68L81.66 3.43 85.3 3.43C86.1457158 3.40614137 86.9831059 3.60256619 87.73 4 88.418607 4.3823599 88.9892712 4.94610691 89.38 5.63 89.7893692 6.3626064 89.9964522 7.19093825 89.98 8.03 89.9964522 8.86906175 89.7893692 9.6973936 89.38 10.43 88.9892712 11.1138931 88.418607 11.6776401 87.73 12.06 86.9849908 12.4643803 86.1474952 12.6677229 85.3 12.65L81.66 12.68zM84.15 10.68L85.3 10.68C85.9047046 10.716735 86.4909798 10.464414 86.88 10 87.2834999 9.45091426 87.488054 8.78082327 87.46 8.1 87.488054 7.41917673 87.2834999 6.74908574 86.88 6.2 86.5012718 5.72356611 85.9181574 5.45615059 85.31 5.48L84.15 5.48 84.15 10.68zM97.45 12.68L96.86 11 93.4 11 92.82 12.73 90.32 12.73 93.7 3.43 96.64 3.43 100 12.68 97.45 12.68zM94 9.08L96.19 9.08 95.14 5.84 94 9.08z"/>
    <polygon fill-rule="nonzero" points="104.92 9.35 104.92 12.68 102.35 12.68 102.35 9.35 99.07 3.43 101.93 3.43 103.64 7.1 105.34 3.43 108.2 3.43"/>
    <path class='no-color-change' fill-rule="nonzero" d="M36.64 24.71C35.7774244 24.7267448 34.9256101 24.5163777 34.17 24.1 33.4569729 23.702583 32.8657778 23.1183024 32.46 22.41 32.0327004 21.6542657 31.8151924 20.7980438 31.83 19.93 31.8283101 19.2688812 31.95393 18.6136208 32.2 18 32.4258557 17.4302665 32.766207 16.9129326 33.2 16.48 33.6352033 16.0489995 34.1519321 15.7090463 34.72 15.48 35.9534441 15.0101881 37.3165559 15.0101881 38.55 15.48 39.1179434 15.7092838 39.6346279 16.0492079 40.07 16.48 40.5040145 16.9127519 40.8443979 17.4301346 41.07 18 41.3109862 18.617959 41.429847 19.2767876 41.42 19.94 41.4378552 20.807127 41.2238143 21.6632904 40.8 22.42 40.3942222 23.1283024 39.8030271 23.712583 39.09 24.11 38.3393485 24.5195043 37.4949303 24.7263006 36.64 24.71L36.64 24.71zM36.64 22.62C37.0524801 22.6290274 37.4576583 22.5102683 37.8 22.28 38.1413702 22.0399597 38.4109996 21.7115649 38.58 21.33 38.780524 20.8874807 38.879606 20.4057375 38.87 19.92 38.8779426 19.4344166 38.7789348 18.9530341 38.58 18.51 38.4165582 18.1114827 38.1467316 17.7655512 37.8 17.51 37.0929507 17.044943 36.1770493 17.044943 35.47 17.51 35.1232684 17.7655512 34.8534418 18.1114827 34.69 18.51 34.4910652 18.9530341 34.3920574 19.4344166 34.4 19.92 34.390394 20.4057375 34.489476 20.8874807 34.69 21.33 34.8590004 21.7115649 35.1286298 22.0399597 35.47 22.28 35.816313 22.5087322 36.2252068 22.6240612 36.64 22.61L36.64 22.62zM43 24.53L43 15.28 46.92 15.28C47.8543197 15.2310588 48.7735915 15.5303566 49.5 16.12 50.1615801 16.6892214 50.5293509 17.5277387 50.5 18.4 50.4887511 18.9700088 50.3153128 19.5250112 50 20 49.7103758 20.4614796 49.2936968 20.829546 48.8 21.06 48.219052 21.3210351 47.5866578 21.4475139 46.95 21.43L45.4 21.43 45.4 24.5 43 24.53zM45.45 19.53L46.67 19.53C47.0047727 19.5462809 47.3333493 19.4355649 47.59 19.22 47.8087083 19.0072566 47.9320914 18.7151116 47.9320914 18.41 47.9320914 18.1048884 47.8087083 17.8127434 47.59 17.6 47.3333493 17.3844351 47.0047727 17.2737191 46.67 17.29L45.4 17.29 45.45 19.53z"/>
    <polygon class='no-color-change' fill-rule="nonzero" points="54.34 24.53 51.81 24.53 51.81 15.28 54.34 15.28"/>
    <polygon class='no-color-change' fill-rule="nonzero" points="62.33 24.53 58.7 19.2 58.7 24.53 56.38 24.53 56.38 15.28 58.69 15.28 62.31 20.71 62.31 15.28 64.65 15.28 64.65 24.53"/>
    <polygon class='no-color-change' fill-rule="nonzero" points="69.22 24.53 66.69 24.53 66.69 15.28 69.22 15.28"/>
    <path class='no-color-change' fill-rule="nonzero" d="M75.53,24.71 C74.6674244,24.7267448 73.8156101,24.5163777 73.06,24.1 C72.3469729,23.702583 71.7557778,23.1183024 71.35,22.41 C70.9227004,21.6542657 70.7051924,20.7980438 70.72,19.93 C70.7151292,19.2695339 70.8373496,18.6142964 71.08,18 C71.3058557,17.4302665 71.646207,16.9129326 72.08,16.48 C72.5152033,16.0489995 73.0319321,15.7090463 73.6,15.48 C74.8334441,15.0101881 76.1965559,15.0101881 77.43,15.48 C77.9979434,15.7092838 78.5146279,16.0492079 78.95,16.48 C79.4020238,16.9080244 79.7596606,17.4257462 80,18 C80.2409862,18.617959 80.359847,19.2767876 80.35,19.94 C80.3678552,20.807127 80.1538143,21.6632904 79.73,22.42 C79.3158863,23.1235974 78.7177705,23.7009693 78,24.09 C77.2453482,24.5098593 76.3934778,24.7236891 75.53,24.71 L75.53,24.71 Z M75.53,22.62 C75.9424801,22.6290274 76.3476583,22.5102683 76.69,22.28 C77.0313702,22.0399597 77.3009996,21.7115649 77.47,21.33 C77.670524,20.8874807 77.769606,20.4057375 77.76,19.92 C77.7679426,19.4344166 77.6689348,18.9530341 77.47,18.51 C77.3065582,18.1114827 77.0367316,17.7655512 76.69,17.51 C75.9829507,17.044943 75.0670493,17.044943 74.36,17.51 C74.0132684,17.7655512 73.7434418,18.1114827 73.58,18.51 C73.3810652,18.9530341 73.2820574,19.4344166 73.29,19.92 C73.280394,20.4057375 73.379476,20.8874807 73.58,21.33 C73.7490004,21.7115649 74.0186298,22.0399597 74.36,22.28 C74.706313,22.5087322 75.1152068,22.6240612 75.53,22.61 L75.53,22.62 Z"/>
    <polygon class='no-color-change' fill-rule="nonzero" points="87.79 24.53 84.16 19.2 84.16 24.53 81.84 24.53 81.84 15.28 84.15 15.28 87.77 20.71 87.77 15.28 90.11 15.28 90.11 24.53"/>
  </g>
</svg>
