<?xml version="1.0" encoding="UTF-8" standalone="no"?>
<svg width="257px" height="29px" viewBox="0 0 257 29" version="1.1" xmlns="http://www.w3.org/2000/svg" xmlns:xlink="http://www.w3.org/1999/xlink" xmlns:sketch="http://www.bohemiancoding.com/sketch/ns">
    <!-- Generator: Sketch 3.4.2 (15857) - http://www.bohemiancoding.com/sketch -->
    <title>USAT_Opinion_Tertiary_SubBrand_FullColor_RGB</title>
    <desc>Created with Sketch.</desc>
    <defs>
        <path id="path-1" d="M0,0.653 L256.816,0.653 L256.816,28.939 L0,28.939"></path>
    </defs>
    <g id="Page-1" stroke="none" stroke-width="1" fill="none" fill-rule="evenodd" sketch:type="MSPage">
        <g id="USAT_Opinion_Tertiary_SubBrand_FullColor_RGB" sketch:type="MSLayerGroup">
            <path d="M34.63,17.032 L34.63,7.004 L39.113,7.004 L39.113,15.732 C39.113,17.458 39.31,19.141 41.567,19.141 C43.822,19.141 44.02,17.458 44.02,15.732 L44.02,7.004 L48.532,7.004 L48.532,17.032 C48.532,20.91 46.022,23.064 41.567,23.064 C36.97,23.064 34.63,20.91 34.63,17.032" id="Fill-1" fill="#000000" sketch:type="MSShapeGroup"></path>
            <path d="M49.744,20.777 L51.916,17.771 C52.705,18.735 54.059,19.609 55.638,19.609 C56.795,19.609 57.471,19.093 57.471,18.222 C57.471,17.142 56.484,16.764 54.764,16.268 C52.536,15.639 50.45,14.384 50.45,11.623 C50.45,8.71 52.903,6.694 56.343,6.694 C58.768,6.694 60.63,7.653 61.701,8.555 L59.671,11.513 C59.022,10.777 57.894,10.143 56.597,10.143 C55.384,10.143 54.933,10.617 54.933,11.245 C54.933,12.097 55.807,12.455 57.415,12.901 C60.065,13.668 61.927,15.033 61.927,17.816 C61.927,20.777 59.727,23.064 55.892,23.064 C52.931,23.064 50.703,21.829 49.744,20.777" id="Fill-2" fill="#000000" sketch:type="MSShapeGroup"></path>
            <path d="M72.248,16.894 L71.035,13.107 C70.782,12.368 70.584,11.426 70.471,10.755 L70.358,10.755 C70.245,11.426 70.048,12.368 69.822,13.107 L68.582,16.894 L72.248,16.894 L72.248,16.894 Z M67.99,7.004 L72.953,7.004 L78.79,22.751 L74.109,22.751 L73.347,20.486 L67.454,20.486 L66.721,22.751 L62.152,22.751 L67.99,7.004 L67.99,7.004 Z" id="Fill-3" fill="#000000" sketch:type="MSShapeGroup"></path>
            <path d="M85.446,10.667 L81.582,10.667 L81.582,7.01 L93.849,7.01 L93.849,10.667 L89.957,10.667 L89.957,22.757 L85.446,22.757 L85.446,10.667" id="Fill-4" fill="#000000" sketch:type="MSShapeGroup"></path>
            <path d="M106.793,14.9 C106.793,12.077 104.96,10.622 102.76,10.622 C100.617,10.622 98.784,12.077 98.784,14.9 C98.784,17.7 100.617,19.136 102.76,19.136 C104.96,19.136 106.793,17.7 106.793,14.9 L106.793,14.9 Z M94.159,14.9 C94.159,11.023 96.923,6.694 102.788,6.694 C108.654,6.694 111.445,11.023 111.445,14.9 C111.445,18.758 108.654,23.058 102.788,23.058 C96.923,23.058 94.159,18.758 94.159,14.9 L94.159,14.9 Z" id="Fill-5" fill="#000000" sketch:type="MSShapeGroup"></path>
            <path d="M117.565,19.122 L118.524,19.122 C121.429,19.122 122.979,17.726 122.979,14.88 C122.979,12.032 121.429,10.645 118.524,10.645 L117.565,10.645 L117.565,19.122 L117.565,19.122 Z M113.053,7.01 L118.862,7.01 C124.446,7.01 127.604,9.965 127.604,14.88 C127.604,19.705 124.333,22.756 118.862,22.756 L113.053,22.756 L113.053,7.01 L113.053,7.01 Z" id="Fill-6" fill="#000000" sketch:type="MSShapeGroup"></path>
            <path d="M137.079,16.899 L135.867,13.112 C135.613,12.368 135.415,11.426 135.331,10.755 L135.19,10.755 C135.105,11.426 134.908,12.368 134.654,13.112 L133.441,16.899 L137.079,16.899 L137.079,16.899 Z M132.849,7.01 L137.812,7.01 L143.65,22.757 L138.968,22.757 L138.235,20.486 L132.285,20.486 L131.552,22.757 L126.983,22.757 L132.849,7.01 L132.849,7.01 Z" id="Fill-7" fill="#000000" sketch:type="MSShapeGroup"></path>
            <g id="Group-11">
                <mask id="mask-2" sketch:name="Clip 9" fill="white">
                    <use xlink:href="#path-1"></use>
                </mask>
                <g id="Clip-9"></g>
                <path d="M146.442,17.142 L140.548,7.01 L145.483,7.01 L147.626,10.887 C148.077,11.719 148.698,12.974 148.839,13.806 L148.923,13.806 C149.064,12.974 149.684,11.719 150.136,10.887 L152.279,7.01 L157.073,7.01 L151.179,17.142 L151.179,22.757 L146.442,22.757 L146.442,17.142" id="Fill-8" fill="#000000" sketch:type="MSShapeGroup" mask="url(#mask-2)"></path>
                <path class='no-color-change' d="M28.369,14.824 C28.369,22.652 22.024,29 14.185,29 C6.345,29 0,22.652 0,14.824 C0,6.998 6.345,0.653 14.185,0.653 C22.024,0.653 28.369,6.998 28.369,14.824" id="Fill-10" fill="#A3A3A3" sketch:type="MSShapeGroup" mask="url(#mask-2)"></path>
            </g>
            <path class='no-color-change' d="M169.848,19.147 C170.383,19.147 170.919,19.06 171.399,18.885 C171.878,18.713 172.329,18.436 172.668,18.084 C173.034,17.743 173.345,17.303 173.542,16.77 C173.767,16.234 173.88,15.616 173.88,14.911 C173.88,14.218 173.767,13.597 173.542,13.05 C173.345,12.517 173.034,12.072 172.668,11.713 C172.329,11.355 171.878,11.09 171.399,10.901 C170.919,10.732 170.383,10.633 169.848,10.633 C169.312,10.633 168.804,10.732 168.297,10.901 C167.817,11.09 167.394,11.355 167.028,11.713 C166.689,12.072 166.379,12.517 166.182,13.05 C165.956,13.597 165.843,14.218 165.843,14.911 C165.843,15.616 165.956,16.234 166.182,16.77 C166.379,17.303 166.689,17.743 167.028,18.084 C167.394,18.436 167.817,18.713 168.297,18.885 C168.804,19.06 169.312,19.147 169.848,19.147 L169.848,19.147 Z M169.876,23.087 C168.41,23.087 167.14,22.844 166.041,22.353 C164.969,21.868 164.067,21.242 163.362,20.447 C162.628,19.671 162.093,18.789 161.754,17.827 C161.416,16.857 161.218,15.887 161.218,14.911 C161.218,13.95 161.416,12.98 161.754,12.004 C162.093,11.034 162.628,10.16 163.362,9.373 C164.067,8.589 164.969,7.952 166.041,7.455 C167.14,6.965 168.41,6.722 169.876,6.722 C171.342,6.722 172.583,6.965 173.683,7.455 C174.755,7.952 175.657,8.589 176.39,9.373 C177.095,10.16 177.631,11.034 177.997,12.004 C178.336,12.98 178.505,13.95 178.505,14.911 C178.505,15.887 178.336,16.857 177.997,17.827 C177.631,18.789 177.095,19.671 176.39,20.447 C175.657,21.242 174.755,21.868 173.683,22.353 C172.583,22.844 171.342,23.087 169.876,23.087 L169.876,23.087 Z" id="Fill-12" fill="#A3A3A3" sketch:type="MSShapeGroup"></path>
            <path class='no-color-change' d="M185.075,14.443 C185.921,14.443 186.541,14.302 186.936,13.998 C187.331,13.707 187.529,13.216 187.529,12.54 C187.529,11.871 187.331,11.381 186.936,11.073 C186.541,10.766 185.921,10.611 185.075,10.611 L184.286,10.611 L184.286,14.443 L185.075,14.443 L185.075,14.443 Z M179.802,7.021 L185.752,7.021 C186.767,7.021 187.698,7.168 188.487,7.455 C189.277,7.74 189.954,8.121 190.49,8.617 C191.054,9.108 191.448,9.697 191.73,10.368 C192.012,11.045 192.181,11.767 192.181,12.54 C192.181,13.338 192.012,14.071 191.73,14.731 C191.448,15.396 191.054,15.969 190.49,16.465 C189.954,16.961 189.277,17.348 188.487,17.616 C187.698,17.898 186.767,18.036 185.752,18.036 L184.286,18.036 L184.286,22.762 L179.802,22.762 L179.802,7.021 L179.802,7.021 Z" id="Fill-13" fill="#A3A3A3" sketch:type="MSShapeGroup"></path>
            <path class='no-color-change' d="M193.113,7.021 L197.596,7.021 L197.596,22.762 L193.113,22.762 L193.113,7.021 Z" id="Fill-14" fill="#A3A3A3" sketch:type="MSShapeGroup"></path>
            <path class='no-color-change' d="M199.57,7.021 L203.659,7.021 L208.961,13.69 C209.384,14.212 209.75,14.731 210.089,15.258 C210.399,15.777 210.652,16.217 210.85,16.553 L210.934,16.51 C210.906,16.141 210.85,15.645 210.85,15.038 C210.822,14.438 210.794,13.817 210.794,13.16 L210.794,7.021 L215.052,7.021 L215.052,22.762 L210.934,22.762 L205.661,16.107 C205.238,15.58 204.843,15.061 204.533,14.539 C204.195,14.02 203.941,13.586 203.772,13.245 L203.659,13.287 C203.715,13.662 203.744,14.153 203.772,14.753 C203.8,15.36 203.8,15.986 203.8,16.62 L203.8,22.762 L199.57,22.762 L199.57,7.021" id="Fill-15" fill="#A3A3A3" sketch:type="MSShapeGroup"></path>
            <path class='no-color-change' d="M216.998,7.021 L221.482,7.021 L221.482,22.762 L216.998,22.762 L216.998,7.021 Z" id="Fill-16" fill="#A3A3A3" sketch:type="MSShapeGroup"></path>
            <path class='no-color-change' d="M231.38,19.147 C231.943,19.147 232.451,19.06 232.959,18.885 C233.438,18.713 233.861,18.436 234.227,18.084 C234.594,17.743 234.876,17.303 235.102,16.77 C235.299,16.234 235.412,15.616 235.412,14.911 C235.412,14.218 235.299,13.597 235.102,13.05 C234.876,12.517 234.594,12.072 234.227,11.713 C233.861,11.355 233.438,11.09 232.959,10.901 C232.451,10.732 231.943,10.633 231.38,10.633 C230.844,10.633 230.336,10.732 229.857,10.901 C229.377,11.09 228.954,11.355 228.587,11.713 C228.221,12.072 227.939,12.517 227.713,13.05 C227.516,13.597 227.403,14.218 227.403,14.911 C227.403,15.616 227.516,16.234 227.713,16.77 C227.939,17.303 228.221,17.743 228.587,18.084 C228.954,18.436 229.377,18.713 229.857,18.885 C230.336,19.06 230.844,19.147 231.38,19.147 L231.38,19.147 Z M231.407,23.087 C229.941,23.087 228.672,22.844 227.572,22.353 C226.501,21.868 225.598,21.242 224.894,20.447 C224.189,19.671 223.653,18.789 223.314,17.827 C222.948,16.857 222.779,15.887 222.779,14.911 C222.779,13.95 222.948,12.98 223.314,12.004 C223.653,11.034 224.189,10.16 224.894,9.373 C225.598,8.589 226.501,7.952 227.572,7.455 C228.672,6.965 229.941,6.722 231.407,6.722 C232.874,6.722 234.143,6.965 235.215,7.455 C236.315,7.952 237.217,8.589 237.922,9.373 C238.655,10.16 239.191,11.034 239.529,12.004 C239.896,12.98 240.065,13.95 240.065,14.911 C240.065,15.887 239.896,16.857 239.529,17.827 C239.191,18.789 238.655,19.671 237.922,20.447 C237.217,21.242 236.315,21.868 235.215,22.353 C234.143,22.844 232.874,23.087 231.407,23.087 L231.407,23.087 Z" id="Fill-17" fill="#A3A3A3" sketch:type="MSShapeGroup"></path>
            <path class='no-color-change' d="M241.334,7.021 L245.423,7.021 L250.725,13.69 C251.148,14.212 251.514,14.731 251.853,15.258 C252.191,15.777 252.445,16.217 252.614,16.553 L252.698,16.51 C252.67,16.141 252.614,15.645 252.614,15.038 C252.586,14.438 252.586,13.817 252.586,13.16 L252.586,7.021 L256.816,7.021 L256.816,22.762 L252.698,22.762 L247.425,16.107 C247.002,15.58 246.608,15.061 246.297,14.539 C245.959,14.02 245.705,13.586 245.536,13.245 L245.423,13.287 C245.48,13.662 245.536,14.153 245.536,14.753 C245.564,15.36 245.592,15.986 245.592,16.62 L245.592,22.762 L241.334,22.762 L241.334,7.021" id="Fill-18" fill="#A3A3A3" sketch:type="MSShapeGroup"></path>
        </g>
    </g>
</svg>