<svg xmlns="http://www.w3.org/2000/svg" width="78" height="28" viewBox="0 0 78 28">
  <g fill="none" fill-rule="evenodd">
    <path fill="#404040" fill-rule="nonzero" d="M36 10.75C36.4397795 10.7769024 36.8698092 10.612908 37.18 10.3 37.4691922 9.93168943 37.6052925 9.46608302 37.56 9L37.56 3.43 40.09 3.43 40.09 9C40.1535439 10.0625638 39.7563796 11.101021 39 11.85 38.1638196 12.5531825 37.0908538 12.9108378 36 12.85 34.9090098 12.9118594 33.8356766 12.5540817 33 11.85 32.2179132 11.1134575 31.7945732 10.073355 31.84 9L31.84 3.43 34.37 3.43 34.37 9C34.3400911 9.46481384 34.4905209 9.92326657 34.79 10.28 35.1027933 10.6096716 35.5466866 10.782093 36 10.75zM45.14 12.86C44.4090421 12.8594812 43.6841478 12.7273743 43 12.47 42.3310425 12.2256713 41.7186685 11.8480406 41.2 11.36L42.42 9.82C42.7788422 10.1455977 43.1916859 10.406163 43.64 10.59 44.1166115 10.7814459 44.6264181 10.8766098 45.14 10.87 45.4386285 10.8862664 45.73602 10.8205636 46 10.68 46.2007529 10.5619104 46.3199748 10.3426959 46.31 10.11 46.3065943 9.85964846 46.1638849 9.63208491 45.94 9.52 45.5313171 9.29046664 45.0942417 9.11563648 44.64 9L44.07 8.85C43.3573679 8.69605015 42.7003642 8.35025873 42.17 7.85 41.7312602 7.39119162 41.4968062 6.77439718 41.52 6.14 41.5242914 5.60291008 41.6916858 5.0798026 42 4.64 42.3265922 4.19530418 42.7694945 3.84928681 43.28 3.64 43.8779282 3.38926837 44.5217672 3.26663238 45.17 3.28 45.8554234 3.2814107 46.5342636 3.41378454 47.17 3.67 47.7950667 3.9122871 48.3735747 4.26074512 48.88 4.7L47.62 6.29C47.2712481 5.99604592 46.8844246 5.75049705 46.47 5.56 46.062455 5.35876392 45.6145121 5.25276215 45.16 5.25 44.8687494 5.23126744 44.5780016 5.29357055 44.32 5.43 44.1101117 5.54011646 43.9847188 5.76347259 44 6 44.0069412 6.22574636 44.1223763 6.43427428 44.31 6.56 44.6394761 6.77260857 45.0057518 6.92183204 45.39 7L46.08 7.19C46.8759473 7.35392626 47.6082105 7.7426157 48.19 8.31 48.5967403 8.76250326 48.8181038 9.35161591 48.81 9.96 48.8197866 10.5085754 48.6590588 11.0466642 48.35 11.5 48.0206849 11.9461501 47.5741569 12.2922958 47.06 12.5 46.4520215 12.7522903 45.7980775 12.8749048 45.14 12.86L45.14 12.86zM56.46 12.68L55.87 11 52.41 11 51.83 12.73 49.33 12.73 52.72 3.48 55.66 3.48 59 12.68 56.46 12.68zM53 9.08L55.19 9.08 54.15 5.84 53 9.08z"/>
    <polygon fill="#404040" fill-rule="nonzero" points="34.59 24.53 34.59 17.32 31.84 17.32 31.84 15.32 39.84 15.32 39.84 17.32 37.12 17.32 37.12 24.53"/>
    <path fill="#404040" fill-rule="nonzero" d="M45.16 24.71C44.2974244 24.7267448 43.4456101 24.5163777 42.69 24.1 41.9830162 23.6969581 41.3988639 23.1093493 41 22.4 40.5727004 21.6442657 40.3551924 20.7880438 40.37 19.92 40.3600369 19.2641885 40.4754382 18.6125102 40.71 18 40.9358557 17.4302665 41.276207 16.9129326 41.71 16.48 42.1452033 16.0489995 42.6619321 15.7090463 43.23 15.48 44.4634441 15.0101881 45.8265559 15.0101881 47.06 15.48 47.6279434 15.7092838 48.1446279 16.0492079 48.58 16.48 49.0140145 16.9127519 49.3543979 17.4301346 49.58 18 49.8424355 18.6069496 49.9850523 19.2589125 50 19.92 50.0178552 20.787127 49.8038143 21.6432904 49.38 22.4 48.9742222 23.1083024 48.3830271 23.692583 47.67 24.09 46.9035668 24.5167346 46.0369777 24.7307924 45.16 24.71L45.16 24.71zM45.16 22.62C45.5724801 22.6290274 45.9776583 22.5102683 46.32 22.28 46.6613702 22.0399597 46.9309996 21.7115649 47.1 21.33 47.300524 20.8874807 47.399606 20.4057375 47.39 19.92 47.3979426 19.4344166 47.2989348 18.9530341 47.1 18.51 46.9365582 18.1114827 46.6667316 17.7655512 46.32 17.51 45.6129507 17.044943 44.6970493 17.044943 43.99 17.51 43.6432684 17.7655512 43.3734418 18.1114827 43.21 18.51 43.0110652 18.9530341 42.9120574 19.4344166 42.92 19.92 42.910394 20.4057375 43.009476 20.8874807 43.21 21.33 43.3790004 21.7115649 43.6486298 22.0399597 43.99 22.28 44.336313 22.5087322 44.7452068 22.6240612 45.16 22.61L45.16 22.62zM51.41 24.53L51.41 15.28 55.06 15.28C55.9074952 15.2622771 56.7449908 15.4656197 57.49 15.87 58.178607 16.2523599 58.7492712 16.8161069 59.14 17.5 59.9364612 19.0008827 59.9364612 20.7991173 59.14 22.3 58.7492712 22.9838931 58.178607 23.5476401 57.49 23.93 56.7449908 24.3343803 55.9074952 24.5377229 55.06 24.52L51.41 24.53zM53.9 22.53L55.06 22.53C55.6681574 22.5538494 56.2512718 22.2864339 56.63 21.81 57.0334999 21.2609143 57.238054 20.5908233 57.21 19.91 57.238054 19.2291767 57.0334999 18.5590857 56.63 18.01 56.2512718 17.5335661 55.6681574 17.2661506 55.06 17.29L53.9 17.29 53.9 22.53zM67.2 24.53L66.62 22.8 63.15 22.8 62.57 24.53 60.07 24.53 63.46 15.28 66.4 15.28 69.79 24.53 67.2 24.53zM63.79 20.93L66 20.93 64.91 17.69 63.79 20.93z"/>
    <polygon fill="#404040" fill-rule="nonzero" points="74.67 21.2 74.67 24.53 72.1 24.53 72.1 21.2 68.82 15.28 71.68 15.28 73.39 19 75.09 15.33 77.95 15.33"/>
    <circle class='no-color-change' cx="14" cy="14" r="14" fill="#009BFF" fill-rule="nonzero"/>
  </g>
</svg>
