<?xml version="1.0" encoding="UTF-8" standalone="no"?>
<svg width="421px" height="53px" viewBox="0 0 421 53" version="1.1" xmlns="http://www.w3.org/2000/svg" xmlns:xlink="http://www.w3.org/1999/xlink">
    <!-- Generator: Sketch 3.8.3 (29802) - http://www.bohemiancoding.com/sketch -->
    <title>FTW_logo_ltbg</title>
    <desc>Created with Sketch.</desc>
    <defs>
        <polygon id="path-1" points="90.076 52.94 0 52.94 0 26.688 0 0.436 90.076 0.436 90.076 52.94"></polygon>
        <polygon id="path-3" points="0.528 51.94 71.177 51.94 71.177 26.1915 71.177 0.443 0.528 0.443"></polygon>
    </defs>
    <g id="Page-1" stroke="none" stroke-width="1" fill="none" fill-rule="evenodd">
        <g id="FTW_logo_ltbg">
            <g id="Group-4">
                <mask id="mask-2" fill="white">
                    <use xlink:href="#path-1"></use>
                </mask>
                <g id="Clip-2"></g>
                <polyline id="Fill-1" fill="#343433" mask="url(#mask-2)" points="0 1.443 30.891 1.443 30.891 13.182 14.473 13.182 14.473 22.471 30.603 22.471 30.603 34.207 14.473 34.207 14.473 51.992 0 51.992 0 1.443"></polyline>
                <path d="M75.171,26.791 C75.171,17.717 69.266,13.037 62.21,13.037 C55.297,13.037 49.393,17.717 49.393,26.791 C49.393,35.791 55.297,40.4 62.21,40.4 C69.266,40.4 75.171,35.791 75.171,26.791 L75.171,26.791 Z M34.56,26.791 C34.56,14.334 43.488,0.436 62.282,0.436 C81.148,0.436 90.076,14.334 90.076,26.791 C90.076,39.176 81.148,53 62.282,53 C43.488,53 34.56,39.176 34.56,26.791 L34.56,26.791 Z" id="Fill-3" fill="#343433" mask="url(#mask-2)"></path>
            </g>
            <path d="M113.345,23.91 C118.169,23.91 120.617,22.037 120.617,18.438 C120.617,14.838 118.169,12.965 113.345,12.965 L109.168,12.965 L109.168,23.91 L113.345,23.91 L113.345,23.91 Z M94.695,1.443 L115.649,1.443 C126.45,1.443 135.45,6.268 135.45,18.438 C135.45,24.342 132.066,29.527 125.226,32.406 L138.331,51.992 L121.913,51.992 L111.329,34.855 L109.168,34.855 L109.168,51.992 L94.695,51.992 L94.695,1.443 L94.695,1.443 Z" id="Fill-5" fill="#343433"></path>
            <polyline id="Fill-6" fill="#9E9F9E" points="150.207 13.182 137.75 13.182 137.75 1.443 177.137 1.443 177.137 13.182 164.68 13.182 164.68 51.992 150.207 51.992 150.207 13.182"></polyline>
            <polyline id="Fill-7" fill="#9E9F9E" points="181.598 1.443 196.07 1.443 196.07 20.311 214.216 20.311 214.216 1.443 228.689 1.443 228.689 51.992 214.216 51.992 214.216 32.047 196.07 32.047 196.07 51.992 181.598 51.992 181.598 1.443"></polyline>
            <polyline id="Fill-8" fill="#9E9F9E" points="234.469 1.443 265.144 1.443 265.144 12.892 248.941 12.892 248.941 20.453 264.855 20.453 264.855 31.902 248.941 31.902 248.941 40.543 265.791 40.543 265.791 51.992 234.469 51.992 234.469 1.443"></polyline>
            <path d="M268.092,1.443 L282.781,1.443 L288.901,22.182 C289.981,25.781 291.062,30.607 291.35,34.352 L291.782,34.352 C292.07,30.607 293.15,25.781 294.23,22.182 L300.351,1.443 L313.527,1.443 L319.648,22.182 C320.729,25.781 321.809,30.607 322.097,34.352 L322.528,34.352 C322.816,30.607 323.896,25.781 324.977,22.182 L331.098,1.443 L345.139,1.443 L329.081,51.992 L315.4,51.992 L309.279,31.254 C308.199,27.654 307.119,22.83 306.831,19.086 L306.399,19.086 C306.111,22.83 305.031,27.654 303.951,31.254 L297.83,51.992 L284.149,51.992 L268.092,1.443" id="Fill-9" fill="#343433"></path>
            <polygon id="Fill-10" fill="#343433" points="349.236 35.115 363.709 35.115 363.709 1.443 349.236 1.443"></polygon>
            <g id="Group-14" transform="translate(349.000000, 1.000000)">
                <mask id="mask-4" fill="white">
                    <use xlink:href="#path-3"></use>
                </mask>
                <g id="Clip-12"></g>
                <path d="M21.492,0.443 L34.669,0.443 L51.663,21.83 C54.327,25.142 56.559,28.814 57.711,31.047 L57.999,30.902 C57.711,28.527 57.567,24.277 57.567,20.174 L57.567,0.443 L71.177,0.443 L71.177,50.992 L57.999,50.992 L41.006,29.607 C38.342,26.295 36.109,22.621 34.957,20.391 L34.669,20.533 C34.957,22.91 35.102,27.158 35.102,31.264 L35.102,50.992 L21.492,50.992 L21.492,0.443" id="Fill-11" fill="#343433" mask="url(#mask-4)"></path>
                <path d="M14.417,45.048 C14.417,48.883 11.31,51.992 7.474,51.992 C3.637,51.992 0.528,48.883 0.528,45.048 C0.528,41.213 3.637,38.102 7.474,38.102 C11.31,38.102 14.417,41.213 14.417,45.048" id="Fill-13" fill="#D9242A" mask="url(#mask-4)" class="no-color-change"></path>
            </g>
        </g>
    </g>
</svg>
