<svg xmlns="http://www.w3.org/2000/svg" width="109" height="28" viewBox="0 0 109 28">
  <g fill="none" fill-rule="evenodd">
    <circle class='no-color-change' cx="14.01" cy="14" r="14" fill="#AA50E6" fill-rule="nonzero"/>
    <path fill="#404040" fill-rule="nonzero" d="M36 10.75C36.4397795 10.7769024 36.8698092 10.612908 37.18 10.3 37.4727573 9.93316226 37.6124831 9.46740985 37.57 9L37.57 3.43 40.1 3.43 40.1 9C40.1609389 10.0640922 39.7600427 11.1027779 39 11.85 38.1638196 12.5531825 37.0908538 12.9108378 36 12.85 34.9090098 12.9118594 33.8356766 12.5540817 33 11.85 32.2215949 11.1116609 31.8020019 10.0718001 31.85 9L31.85 3.43 34.38 3.43 34.38 9C34.3500911 9.46481384 34.5005209 9.92326657 34.8 10.28 35.1105022 10.606879 35.5500917 10.7790515 36 10.75zM45.15 12.86C44.4156817 12.8606843 43.687293 12.7285579 43 12.47 42.3310425 12.2256713 41.7186685 11.8480406 41.2 11.36L42.42 9.82C42.7788422 10.1455977 43.1916859 10.406163 43.64 10.59 44.1166115 10.7814459 44.6264181 10.8766098 45.14 10.87 45.4386285 10.8862664 45.73602 10.8205636 46 10.68 46.2007529 10.5619104 46.3199748 10.3426959 46.31 10.11 46.3065943 9.85964846 46.1638849 9.63208491 45.94 9.52 45.534459 9.29127249 45.1007952 9.11646227 44.65 9L44.08 8.85C43.3673679 8.69605015 42.7103642 8.35025873 42.18 7.85 41.7412602 7.39119162 41.5068062 6.77439718 41.53 6.14 41.5313547 5.60397276 41.6952327 5.08095796 42 4.64 42.3265922 4.19530418 42.7694945 3.84928681 43.28 3.64 43.8779282 3.38926837 44.5217672 3.26663238 45.17 3.28 45.8554234 3.2814107 46.5342636 3.41378454 47.17 3.67 47.8021259 3.91022087 48.3875509 4.25876871 48.9 4.7L47.63 6.29C47.2812481 5.99604592 46.8944246 5.75049705 46.48 5.56 46.072455 5.35876392 45.6245121 5.25276215 45.17 5.25 44.8787494 5.23126744 44.5880016 5.29357055 44.33 5.43 44.116227 5.53724752 43.9865642 5.76121056 44 6 44.0069412 6.22574636 44.1223763 6.43427428 44.31 6.56 44.6425074 6.77375892 45.0122775 6.92302391 45.4 7L46.09 7.19C46.8859473 7.35392626 47.6182105 7.7426157 48.2 8.31 48.6067403 8.76250326 48.8281038 9.35161591 48.82 9.96 48.8297866 10.5085754 48.6690588 11.0466642 48.36 11.5 48.0306849 11.9461501 47.5841569 12.2922958 47.07 12.5 46.4620215 12.7522903 45.8080775 12.8749048 45.15 12.86zM56.47 12.68L55.88 11 52.42 11 51.84 12.73 49.34 12.73 52.73 3.48 55.67 3.48 59 12.68 56.47 12.68zM53.06 9.08L55.25 9.08 54.16 5.84 53.06 9.08z"/>
    <polygon fill="#404040" fill-rule="nonzero" points="64.85 12.68 64.85 5.47 62.1 5.47 62.1 3.47 70.1 3.47 70.1 5.47 67.38 5.47 67.38 12.68"/>
    <path fill="#404040" fill-rule="nonzero" d="M75.41 12.86C74.5474244 12.8767448 73.6956101 12.6663777 72.94 12.25 72.2269729 11.852583 71.6357778 11.2683024 71.23 10.56 70.8027004 9.8042657 70.5851924 8.94804378 70.6 8.08 70.6052485 7.41017196 70.7411195 6.74780096 71 6.13 71.2258557 5.56026653 71.566207 5.04293261 72 4.61 72.4352033 4.17899952 72.9519321 3.83904631 73.52 3.61 74.7534441 3.14018813 76.1165559 3.14018813 77.35 3.61 77.9179434 3.83928384 78.4346279 4.17920785 78.87 4.61 79.3040145 5.04275192 79.6443979 5.56013464 79.87 6.13 80.1109862 6.74795905 80.229847 7.40678755 80.22 8.07 80.2378552 8.93712697 80.0238143 9.79329042 79.6 10.55 79.1942222 11.2583024 78.6030271 11.842583 77.89 12.24 77.1324004 12.6615671 76.2768547 12.8754535 75.41 12.86zM75.41 10.77C75.8224801 10.7790274 76.2276583 10.6602683 76.57 10.43 76.9113702 10.1899597 77.1809996 9.86156492 77.35 9.48 77.550524 9.03748074 77.649606 8.55573749 77.64 8.07 77.6479426 7.58441663 77.5489348 7.10303412 77.35 6.66 77.1865582 6.26148273 76.9167316 5.91555122 76.57 5.66 75.8629507 5.19494295 74.9470493 5.19494295 74.24 5.66 73.8932684 5.91555122 73.6234418 6.26148273 73.46 6.66 73.2610652 7.10303412 73.1620574 7.58441663 73.17 8.07 73.160394 8.55573749 73.259476 9.03748074 73.46 9.48 73.6290004 9.86156492 73.8986298 10.1899597 74.24 10.43 74.586313 10.6587322 74.9952068 10.7740612 75.41 10.76L75.41 10.77zM81.67 12.68L81.67 3.43 85.32 3.43C86.1623494 3.40788024 86.9960737 3.60425333 87.74 4 88.4362733 4.38907463 89.0109254 4.96372672 89.4 5.66 89.8093692 6.3926064 90.0164522 7.22093825 90 8.06 90.0164522 8.89906175 89.8093692 9.7273936 89.4 10.46 89.0092712 11.1438931 88.438607 11.7076401 87.75 12.09 87.0049908 12.4943803 86.1674952 12.6977229 85.32 12.68L81.67 12.68zM84.16 10.68L85.32 10.68C85.9212686 10.7135094 86.5031278 10.461494 86.89 10 87.2934999 9.45091426 87.498054 8.78082327 87.47 8.1 87.498054 7.41917673 87.2934999 6.74908574 86.89 6.2 86.5112718 5.72356611 85.9281574 5.45615059 85.32 5.48L84.16 5.48 84.16 10.68zM97.46 12.68L96.87 11 93.41 11 92.83 12.73 90.33 12.73 93.72 3.48 96.66 3.48 100 12.68 97.46 12.68zM94 9.08L96.19 9.08 95.15 5.84 94 9.08z"/>
    <polygon fill="#404040" fill-rule="nonzero" points="104.93 9.35 104.93 12.68 102.36 12.68 102.36 9.35 99.08 3.43 101.94 3.43 103.65 7.1 105.35 3.43 108.21 3.43"/>
    <polygon fill="#AA50E6" class='no-color-change' fill-rule="nonzero" points="34.38 22.49 38.23 22.49 38.23 24.49 31.85 24.49 31.85 15.28 34.38 15.28"/>
    <polygon fill="#AA50E6" class='no-color-change' fill-rule="nonzero" points="42.09 24.53 39.56 24.53 39.56 15.28 42.09 15.28"/>
    <polygon fill="#AA50E6" class='no-color-change' fill-rule="nonzero" points="46.66 24.53 44.13 24.53 44.13 15.28 50.63 15.28 50.63 17.28 46.63 17.28 46.63 19.13 50 19.13 50 21.13 46.66 21.13"/>
    <polygon fill="#AA50E6" class='no-color-change' fill-rule="nonzero" points="52 24.53 52 15.28 58.38 15.28 58.38 17.28 54.48 17.28 54.48 18.84 58 18.84 58 20.84 54.51 20.84 54.51 22.44 58.63 22.44 58.63 24.44"/>
  </g>
</svg>
