<svg xmlns="http://www.w3.org/2000/svg" width="177" height="45" viewBox="0 0 177 45">
  <g fill="none" fill-rule="evenodd">
    <path fill="#FFFFFE" d="M12.863 41.281L14.038 41.281C14.424 41.281 14.729 41.186 14.954 40.996 15.179 40.806 15.291 40.546 15.291 40.218 15.291 39.889 15.179 39.63 14.954 39.441 14.729 39.25 14.424 39.155 14.038 39.155L12.863 39.155 12.863 41.281zM11.99 44.298L11.99 38.421 14.038 38.421C14.695 38.421 15.216 38.582 15.602 38.904 15.988 39.227 16.181 39.665 16.181 40.218 16.181 40.766 15.988 41.199 15.602 41.519 15.216 41.838 14.695 41.999 14.038 41.999L12.863 41.999 12.863 44.298 11.99 44.298 11.99 44.298zM17.944 42.085L20.088 42.085 19.016 39.328 17.944 42.085zM20.943 44.298L20.373 42.82 17.659 42.82 17.089 44.298 16.207 44.298 18.558 38.421 19.5 38.421 21.842 44.298 20.943 44.298 20.943 44.298zM23.692 41.194L24.893 41.194C25.267 41.194 25.566 41.103 25.787 40.918 26.009 40.734 26.12 40.486 26.12 40.175 26.12 39.864 26.009 39.616 25.787 39.431 25.566 39.248 25.267 39.155 24.893 39.155L23.692 39.155 23.692 41.194zM23.692 41.912L23.692 44.298 22.819 44.298 22.819 38.421 24.893 38.421C25.544 38.421 26.06 38.577 26.44 38.891 26.82 39.206 27.01 39.634 27.01 40.175 27.01 40.584 26.895 40.93 26.665 41.212 26.434 41.494 26.117 41.693 25.714 41.808L27.14 44.298 26.146 44.298 24.807 41.912 23.692 41.912 23.692 41.912z"/>
    <polyline fill="#FFFFFE" points="29.517 44.298 29.517 39.155 27.537 39.155 27.537 38.421 32.369 38.421 32.369 39.155 30.39 39.155 30.39 44.298 29.517 44.298"/>
    <path fill="#FFFFFE" d="M37.978,43.632 C38.358,43.632 38.697,43.536 38.993,43.343 C39.29,43.15 39.522,42.883 39.689,42.543 C39.856,42.203 39.94,41.808 39.94,41.359 C39.94,40.909 39.856,40.515 39.689,40.175 C39.522,39.835 39.29,39.569 38.993,39.375 C38.697,39.182 38.358,39.086 37.978,39.086 C37.598,39.086 37.26,39.182 36.967,39.375 C36.673,39.569 36.442,39.835 36.275,40.175 C36.108,40.515 36.025,40.909 36.025,41.359 C36.025,41.808 36.108,42.203 36.275,42.543 C36.442,42.883 36.673,43.15 36.967,43.343 C37.26,43.536 37.598,43.632 37.978,43.632 Z M37.978,44.393 C37.425,44.393 36.935,44.263 36.508,44.004 C36.082,43.744 35.747,43.387 35.502,42.932 C35.257,42.477 35.134,41.952 35.134,41.359 C35.134,40.766 35.257,40.241 35.502,39.786 C35.747,39.331 36.082,38.973 36.508,38.714 C36.935,38.455 37.425,38.325 37.978,38.325 C38.531,38.325 39.022,38.455 39.451,38.714 C39.881,38.973 40.218,39.331 40.463,39.786 C40.707,40.241 40.83,40.766 40.83,41.359 C40.83,41.952 40.707,42.477 40.463,42.932 C40.218,43.387 39.881,43.744 39.451,44.004 C39.022,44.263 38.531,44.393 37.978,44.393 L37.978,44.393 Z"/>
    <polyline fill="#FFFFFE" points="42.93 44.298 42.057 44.298 42.057 38.421 45.713 38.421 45.713 39.155 42.93 39.155 42.93 41.143 45.29 41.143 45.29 41.877 42.93 41.877 42.93 44.298"/>
    <polyline fill="#FFFFFE" points="50.268 44.298 50.268 39.155 48.288 39.155 48.288 38.421 53.12 38.421 53.12 39.155 51.141 39.155 51.141 44.298 50.268 44.298"/>
    <polyline fill="#FFFFFE" points="54.122 44.298 54.122 38.421 54.995 38.421 54.995 40.936 58.029 40.936 58.029 38.421 58.902 38.421 58.902 44.298 58.029 44.298 58.029 41.687 54.995 41.687 54.995 44.298 54.122 44.298"/>
    <polyline fill="#FFFFFE" points="60.44 44.298 60.44 38.421 64.208 38.421 64.208 39.155 61.313 39.155 61.313 40.97 63.862 40.97 63.862 41.704 61.313 41.704 61.313 43.563 64.277 43.563 64.277 44.298 60.44 44.298"/>
    <path fill="#FFFFFE" d="M69.791 43.632C70.269 43.632 70.645 43.488 70.919 43.2 71.193 42.912 71.33 42.523 71.33 42.033L71.33 38.421 72.202 38.421 72.202 42.042C72.202 42.774 71.988 43.348 71.559 43.766 71.129 44.184 70.54 44.393 69.791 44.393 69.042 44.393 68.454 44.184 68.028 43.766 67.602 43.348 67.389 42.774 67.389 42.042L67.389 38.421 68.261 38.421 68.261 42.033C68.261 42.523 68.398 42.912 68.672 43.2 68.946 43.488 69.319 43.632 69.791 43.632M75.461 44.393C75.017 44.393 74.593 44.315 74.19 44.159 73.787 44.004 73.461 43.796 73.213 43.537L73.706 42.958C73.937 43.171 74.209 43.338 74.523 43.459 74.837 43.58 75.15 43.64 75.461 43.64 75.841 43.64 76.148 43.567 76.381 43.42 76.614 43.273 76.731 43.07 76.731 42.811 76.731 42.575 76.647 42.376 76.48 42.214 76.313 42.053 76.028 41.918 75.625 41.808L74.813 41.592C74.288 41.454 73.906 41.258 73.667 41.004 73.428 40.751 73.309 40.42 73.309 40.011 73.309 39.677 73.398 39.382 73.577 39.129 73.755 38.876 74.001 38.679 74.315 38.537 74.629 38.396 74.985 38.325 75.383 38.325 75.803 38.325 76.198 38.404 76.567 38.563 76.936 38.721 77.261 38.942 77.544 39.224L77.016 39.795C76.769 39.564 76.511 39.387 76.243 39.263 75.975 39.139 75.691 39.077 75.392 39.077 75.028 39.077 74.732 39.154 74.501 39.306 74.271 39.459 74.156 39.671 74.156 39.941 74.156 40.189 74.238 40.382 74.402 40.521 74.566 40.659 74.818 40.774 75.158 40.867L76.066 41.117C76.59 41.261 76.973 41.463 77.215 41.722 77.457 41.981 77.578 42.304 77.578 42.69 77.578 43.03 77.489 43.328 77.31 43.585 77.131 43.841 76.884 44.04 76.567 44.181 76.25 44.322 75.881 44.393 75.461 44.393M79.773 42.085L81.917 42.085 80.845 39.328 79.773 42.085zM82.772 44.298L82.202 42.82 79.488 42.82 78.918 44.298 78.036 44.298 80.387 38.421 81.329 38.421 83.671 44.298 82.772 44.298 82.772 44.298z"/>
    <polyline fill="#FFFFFE" points="87.733 44.298 87.733 39.155 85.754 39.155 85.754 38.421 90.585 38.421 90.585 39.155 88.606 39.155 88.606 44.298 87.733 44.298"/>
    <path fill="#FFFFFE" d="M93.731 43.632C94.112 43.632 94.45 43.536 94.747 43.343 95.043 43.15 95.275 42.883 95.443 42.543 95.61 42.203 95.693 41.808 95.693 41.359 95.693 40.909 95.61 40.515 95.443 40.175 95.275 39.835 95.043 39.569 94.747 39.375 94.45 39.182 94.112 39.086 93.731 39.086 93.351 39.086 93.014 39.182 92.72 39.375 92.426 39.569 92.196 39.835 92.029 40.175 91.862 40.515 91.778 40.909 91.778 41.359 91.778 41.808 91.862 42.203 92.029 42.543 92.196 42.883 92.426 43.15 92.72 43.343 93.014 43.536 93.351 43.632 93.731 43.632zM93.731 44.393C93.178 44.393 92.689 44.263 92.262 44.004 91.836 43.744 91.5 43.387 91.255 42.932 91.01 42.477 90.888 41.952 90.888 41.359 90.888 40.766 91.01 40.241 91.255 39.786 91.5 39.331 91.836 38.973 92.262 38.714 92.689 38.455 93.178 38.325 93.731 38.325 94.285 38.325 94.776 38.455 95.205 38.714 95.634 38.973 95.971 39.331 96.216 39.786 96.461 40.241 96.583 40.766 96.583 41.359 96.583 41.952 96.461 42.477 96.216 42.932 95.971 43.387 95.634 43.744 95.205 44.004 94.776 44.263 94.285 44.393 93.731 44.393L93.731 44.393zM98.684 43.563L99.876 43.563C100.291 43.563 100.647 43.472 100.943 43.291 101.24 43.109 101.468 42.854 101.626 42.526 101.785 42.197 101.864 41.808 101.864 41.359 101.864 40.909 101.785 40.521 101.626 40.192 101.468 39.864 101.24 39.609 100.943 39.427 100.647 39.246 100.291 39.155 99.876 39.155L98.684 39.155 98.684 43.563zM97.811 44.298L97.811 38.421 99.876 38.421C100.452 38.421 100.957 38.543 101.389 38.788 101.821 39.033 102.156 39.375 102.395 39.816 102.635 40.257 102.754 40.771 102.754 41.359 102.754 41.947 102.635 42.461 102.395 42.902 102.156 43.343 101.821 43.685 101.389 43.93 100.957 44.175 100.452 44.298 99.876 44.298L97.811 44.298 97.811 44.298zM104.984 42.085L107.127 42.085 106.056 39.328 104.984 42.085zM107.983 44.298L107.413 42.82 104.699 42.82 104.128 44.298 103.247 44.298 105.598 38.421 106.54 38.421 108.882 44.298 107.983 44.298 107.983 44.298z"/>
    <polyline fill="#FFFFFE" points="111.561 41.964 111.561 44.298 110.688 44.298 110.688 41.964 108.622 38.421 109.651 38.421 111.129 41.134 112.607 38.421 113.618 38.421 111.561 41.964"/>
    <polyline fill="#FFFFFE" points="120.601 44.298 117.464 39.795 117.464 44.298 116.643 44.298 116.643 38.421 117.455 38.421 120.601 42.923 120.601 38.421 121.414 38.421 121.414 44.298 120.601 44.298"/>
    <polyline fill="#FFFFFE" points="122.952 44.298 122.952 38.421 126.72 38.421 126.72 39.155 123.825 39.155 123.825 40.97 126.374 40.97 126.374 41.704 123.825 41.704 123.825 43.563 126.789 43.563 126.789 44.298 122.952 44.298"/>
    <polyline fill="#FFFFFE" points="129.382 44.298 129.382 39.155 127.403 39.155 127.403 38.421 132.234 38.421 132.234 39.155 130.255 39.155 130.255 44.298 129.382 44.298"/>
    <polyline fill="#FFFFFE" points="137.938 44.298 136.564 39.613 135.19 44.298 134.283 44.298 132.718 38.421 133.582 38.421 134.775 43.07 136.149 38.421 136.979 38.421 138.362 43.088 139.563 38.421 140.41 38.421 138.846 44.298 137.938 44.298"/>
    <path fill="#FFFFFE" d="M143.876 43.632C144.256 43.632 144.595 43.536 144.892 43.343 145.188 43.15 145.42 42.883 145.587 42.543 145.754 42.203 145.838 41.808 145.838 41.359 145.838 40.909 145.754 40.515 145.587 40.175 145.42 39.835 145.188 39.569 144.892 39.375 144.595 39.182 144.256 39.086 143.876 39.086 143.496 39.086 143.159 39.182 142.865 39.375 142.571 39.569 142.34 39.835 142.173 40.175 142.006 40.515 141.923 40.909 141.923 41.359 141.923 41.808 142.006 42.203 142.173 42.543 142.34 42.883 142.571 43.15 142.865 43.343 143.159 43.536 143.496 43.632 143.876 43.632zM143.876 44.393C143.323 44.393 142.833 44.263 142.407 44.004 141.98 43.744 141.645 43.387 141.4 42.932 141.155 42.477 141.033 41.952 141.033 41.359 141.033 40.766 141.155 40.241 141.4 39.786 141.645 39.331 141.98 38.973 142.407 38.714 142.833 38.455 143.323 38.325 143.876 38.325 144.429 38.325 144.92 38.455 145.35 38.714 145.779 38.973 146.116 39.331 146.361 39.786 146.606 40.241 146.728 40.766 146.728 41.359 146.728 41.952 146.606 42.477 146.361 42.932 146.116 43.387 145.779 43.744 145.35 44.004 144.92 44.263 144.429 44.393 143.876 44.393L143.876 44.393zM148.828 41.194L150.03 41.194C150.404 41.194 150.702 41.103 150.924 40.918 151.146 40.734 151.257 40.486 151.257 40.175 151.257 39.864 151.146 39.616 150.924 39.431 150.702 39.248 150.404 39.155 150.03 39.155L148.828 39.155 148.828 41.194zM148.828 41.912L148.828 44.298 147.955 44.298 147.955 38.421 150.03 38.421C150.681 38.421 151.196 38.577 151.576 38.891 151.957 39.206 152.147 39.634 152.147 40.175 152.147 40.584 152.032 40.93 151.801 41.212 151.571 41.494 151.254 41.693 150.851 41.808L152.277 44.298 151.283 44.298 149.943 41.912 148.828 41.912 148.828 41.912z"/>
    <polyline fill="#FFFFFE" points="156.892 44.298 154.256 41.333 154.256 44.298 153.383 44.298 153.383 38.421 154.256 38.421 154.256 40.996 156.719 38.421 157.799 38.421 155.181 41.117 157.989 44.298 156.892 44.298"/>
    <polyline fill="#009BFF" class="no-color-change" points="31.883 .864 20.813 31.464 11.678 31.464 .608 .864 9.384 .864 16.313 22.194 23.468 .864 31.883 .864"/>
    <path fill="#009BFF" class="no-color-change" d="M48.984,32.049 C45.863,32.049 43.126,31.374 40.771,30.024 C38.415,28.674 36.571,26.807 35.236,24.422 C33.901,22.037 33.234,19.269 33.234,16.119 C33.234,12.969 33.901,10.209 35.236,7.839 C36.571,5.47 38.415,3.617 40.771,2.281 C43.126,0.947 45.863,0.279 48.984,0.279 C51.623,0.279 54.001,0.812 56.116,1.877 C58.231,2.942 60.038,4.479 61.538,6.489 L54.924,10.404 C54.143,9.414 53.266,8.634 52.291,8.065 C51.316,7.495 50.183,7.209 48.894,7.209 C46.763,7.209 45.038,8.012 43.718,9.617 C42.398,11.222 41.739,13.39 41.739,16.119 C41.739,18.85 42.398,21.032 43.718,22.667 C45.038,24.302 46.763,25.119 48.894,25.119 C50.213,25.119 51.383,24.797 52.404,24.151 C53.423,23.507 54.278,22.75 54.968,21.879 L61.538,25.794 C60.068,27.834 58.26,29.387 56.116,30.452 C53.971,31.516 51.593,32.049 48.984,32.049"/>
    <path fill="#FFFFFE" d="M87.413 32.049C84.923 32.049 82.538 31.622 80.258 30.767 77.978 29.912 75.998 28.689 74.318 27.099L78.368 22.014C79.568 23.094 80.917 23.942 82.418 24.557 83.918 25.172 85.568 25.479 87.368 25.479 88.568 25.479 89.512 25.27 90.203 24.849 90.893 24.43 91.238 23.799 91.238 22.959 91.238 22.149 90.833 21.497 90.023 21.002 89.213 20.507 87.788 19.989 85.748 19.449L83.858 18.954C81.098 18.234 78.998 17.132 77.558 15.646 76.118 14.162 75.398 12.279 75.398 9.999 75.398 8.049 75.908 6.339 76.928 4.869 77.947 3.399 79.358 2.267 81.158 1.472 82.958.677 85.043.279 87.413.279 89.753.279 91.987.707 94.118 1.562 96.248 2.417 98.138 3.58 99.788 5.049L95.603 10.315C94.523 9.385 93.255 8.574 91.8 7.884 90.345 7.194 88.898 6.849 87.458 6.849 86.258 6.849 85.335 7.052 84.69 7.457 84.045 7.861 83.723 8.454 83.723 9.234 83.723 9.954 84.06 10.577 84.736 11.102 85.411 11.627 86.573 12.114 88.223 12.565L90.518 13.194C93.818 14.094 96.15 15.324 97.516 16.884 98.88 18.444 99.563 20.259 99.563 22.329 99.563 24.279 99.06 25.982 98.055 27.437 97.05 28.892 95.633 30.024 93.803 30.834 91.973 31.644 89.843 32.049 87.413 32.049M120.848 29.979C119.917 30.609 118.852 31.112 117.653 31.486 116.453 31.861 115.193 32.049 113.873 32.049 111.413 32.049 109.455 31.337 108 29.912 106.545 28.487 105.818 26.574 105.818 24.174L105.818 14.409 102.083 14.409 102.083 8.559 106.178 8.559 107.168 2.169 113.648 2.169 113.648 8.559 119.633 8.559 119.633 14.409 113.648 14.409 113.648 23.184C113.648 23.965 113.88 24.572 114.345 25.007 114.81 25.442 115.432 25.659 116.213 25.659 116.602 25.659 117 25.584 117.405 25.434 117.81 25.284 118.193 25.104 118.553 24.894L120.848 29.979M130.747 24.039C130.747 24.729 131.002 25.292 131.512 25.727 132.022 26.162 132.682 26.379 133.492 26.379 134.572 26.379 135.479 26.012 136.215 25.276 136.95 24.542 137.317 23.619 137.317 22.509L137.317 21.744C136.507 21.594 135.652 21.519 134.752 21.519 133.612 21.519 132.66 21.715 131.895 22.104 131.13 22.494 130.747 23.139 130.747 24.039zM137.632 31.464L137.227 28.449C135.727 30.85 133.447 32.049 130.387 32.049 129.037 32.049 127.815 31.757 126.72 31.172 125.624 30.587 124.755 29.784 124.11 28.764 123.464 27.745 123.142 26.559 123.142 25.209 123.142 22.66 124.139 20.68 126.135 19.269 128.13 17.859 130.762 17.154 134.032 17.154 135.052 17.154 136.132 17.244 137.272 17.424 137.152 16.284 136.665 15.422 135.81 14.837 134.955 14.252 133.912 13.959 132.682 13.959 131.602 13.959 130.515 14.162 129.42 14.566 128.324 14.972 127.282 15.459 126.292 16.029L123.637 10.989C125.137 10.029 126.757 9.287 128.497 8.762 130.237 8.237 131.977 7.974 133.717 7.974 135.817 7.974 137.707 8.334 139.387 9.054 141.067 9.774 142.387 10.87 143.347 12.339 144.307 13.81 144.787 15.669 144.787 17.919L144.787 31.464 137.632 31.464 137.632 31.464zM157.612 22.599L157.612 31.464 149.782 31.464 149.782 8.559 156.937 8.559 157.432 12.384C157.912 11.154 158.699 10.156 159.795 9.392 160.89 8.627 162.157 8.244 163.597 8.244 164.407 8.244 165.022 8.35 165.442 8.559L165.442 15.714C165.112 15.595 164.745 15.505 164.34 15.444 163.935 15.384 163.477 15.354 162.967 15.354 161.407 15.354 160.124 15.932 159.12 17.087 158.114 18.242 157.612 20.079 157.612 22.599"/>
    <path fill="#009BFF" class="no-color-change" d="M171.202,31.959 C170.241,31.959 169.364,31.727 168.57,31.262 C167.774,30.797 167.144,30.167 166.679,29.372 C166.214,28.577 165.982,27.699 165.982,26.739 C165.982,25.779 166.214,24.902 166.679,24.107 C167.144,23.312 167.774,22.682 168.57,22.217 C169.364,21.752 170.241,21.519 171.202,21.519 C172.162,21.519 173.039,21.752 173.835,22.217 C174.629,22.682 175.259,23.312 175.724,24.107 C176.189,24.902 176.422,25.779 176.422,26.739 C176.422,27.699 176.189,28.577 175.724,29.372 C175.259,30.167 174.629,30.797 173.835,31.262 C173.039,31.727 172.162,31.959 171.202,31.959"/>
  </g>
</svg>
