<svg height="47" viewBox="0 0 281 47" width="281" xmlns="http://www.w3.org/2000/svg">
  <g fill="none" fill-rule="evenodd">
    <g fill="#404040"><path
      d="m149.167 43.819h1.067c.35 0 .627-.086.831-.258.204-.173.306-.408.306-.706s-.102-.534-.306-.706c-.204-.173-.481-.259-.831-.259h-1.067zm-.792 2.737v-5.332h1.859c.596 0 1.069.146 1.419.439s.525.69.525 1.192c0 .496-.175.89-.525 1.18s-.823.435-1.419.435h-1.067v2.086zm5.404-2.007h1.944l-.972-2.502zm2.721 2.007-.518-1.341h-2.462l-.518 1.341h-.8l2.133-5.332h.855l2.125 5.332zm2.493-2.815h1.091c.339 0 .61-.084.811-.251.202-.167.302-.392.302-.675 0-.282-.1-.506-.302-.674-.201-.167-.472-.251-.811-.251h-1.091zm0 .651v2.164h-.792v-5.332h1.883c.59 0 1.058.142 1.404.427.344.285.517.673.517 1.164 0 .372-.105.686-.314.942s-.496.436-.862.541l1.294 2.258h-.902l-1.216-2.164z"/><path d="m164.279 46.556v-4.666h-1.796v-.666h4.384v.666h-1.796v4.666z"/><path
      d="m171.957 45.952c.345 0 .652-.087.921-.262.27-.175.48-.417.632-.726.151-.308.227-.666.227-1.074s-.076-.766-.227-1.075c-.152-.308-.362-.55-.632-.725-.269-.175-.576-.263-.921-.263s-.651.088-.918.263-.476.417-.627.725c-.152.309-.227.667-.227 1.075s.075.766.227 1.074c.151.309.36.551.627.726s.573.262.918.262zm0 .691c-.502 0-.947-.118-1.333-.353-.388-.236-.692-.56-.914-.973s-.334-.888-.334-1.427.112-1.014.334-1.428c.222-.413.526-.737.914-.972.386-.235.831-.353 1.333-.353.501 0 .947.118 1.337.353.389.235.695.559.917.972.223.414.334.889.334 1.428s-.111 1.014-.334 1.427c-.222.413-.528.737-.917.973-.39.235-.836.353-1.337.353z"/><path d="m176.45 46.556h-.792v-5.332h3.318v.666h-2.526v1.804h2.142v.667h-2.142z"/><path d="m183.109 46.556v-4.666h-1.796v-.666h4.384v.666h-1.796v4.666z"/><path d="m186.606 46.556v-5.332h.792v2.282h2.753v-2.282h.792v5.332h-.792v-2.368h-2.753v2.368z"/><path d="m192.339 46.556v-5.332h3.419v.666h-2.627v1.647h2.313v.667h-2.313v1.686h2.69v.666z"/><path
      d="m200.824 45.952c.434 0 .775-.13 1.023-.391.249-.262.373-.615.373-1.059v-3.278h.792v3.285c0 .664-.195 1.186-.584 1.565-.39.379-.924.569-1.604.569s-1.213-.19-1.6-.569-.58-.901-.58-1.565v-3.285h.792v3.278c0 .444.124.797.372 1.059.249.261.587.391 1.016.391m5.145.691c-.403 0-.787-.071-1.153-.212s-.662-.329-.886-.565l.447-.525c.209.193.456.345.741.455.285.109.569.164.851.164.345 0 .624-.066.835-.2.212-.133.318-.317.318-.552 0-.215-.076-.395-.228-.542-.151-.146-.41-.269-.776-.368l-.737-.197c-.476-.125-.822-.303-1.039-.532-.217-.231-.326-.531-.326-.902 0-.303.082-.57.243-.801.162-.229.386-.408.671-.536.285-.129.607-.193.968-.193.382 0 .74.072 1.075.216s.63.344.886.6l-.478.517c-.225-.209-.459-.37-.702-.482s-.501-.168-.773-.168c-.329 0-.598.069-.808.207-.208.139-.313.331-.313.577 0 .224.074.4.224.525.148.125.377.23.686.314l.823.227c.475.131.823.314 1.043.549s.329.528.329.879c0 .308-.081.579-.243.811-.162.233-.387.413-.674.541-.288.129-.622.193-1.004.193m3.913-2.094h1.945l-.972-2.502zm2.721 2.007-.517-1.341h-2.462l-.518 1.341h-.8l2.133-5.332h.855l2.125 5.332z"/><path d="m217.105 46.556v-4.666h-1.796v-.666h4.384v.666h-1.796v4.666z"/><path
      d="m222.547 45.952c.345 0 .652-.087.922-.262.269-.175.479-.417.631-.726.151-.308.228-.666.228-1.074s-.077-.766-.228-1.075c-.152-.308-.362-.55-.631-.725-.27-.175-.577-.263-.922-.263s-.651.088-.917.263c-.267.175-.476.417-.627.725-.152.309-.228.667-.228 1.075s.076.766.228 1.074c.151.309.36.551.627.726.266.175.572.262.917.262zm0 .691c-.502 0-.946-.118-1.333-.353-.387-.236-.691-.56-.914-.973-.222-.413-.333-.888-.333-1.427s.111-1.014.333-1.428c.223-.413.527-.737.914-.972s.831-.353 1.333-.353.948.118 1.337.353c.39.235.696.559.918.972.222.414.333.889.333 1.428s-.111 1.014-.333 1.427-.528.737-.918.973c-.389.235-.835.353-1.337.353zm4.494-.753h1.083c.376 0 .699-.082.968-.247s.476-.397.62-.694c.143-.298.215-.651.215-1.059s-.072-.761-.215-1.059c-.144-.298-.351-.529-.62-.694s-.592-.247-.968-.247h-1.083zm-.792.666v-5.332h1.875c.522 0 .98.111 1.372.333s.697.533.913.933c.217.4.326.867.326 1.4s-.109 1-.326 1.4c-.216.4-.521.711-.913.933s-.85.333-1.372.333zm6.509-2.007h1.945l-.972-2.502zm2.721 2.007-.517-1.341h-2.462l-.518 1.341h-.8l2.133-5.332h.855l2.125 5.332z"/><path d="m238.726 44.439v2.117h-.792v-2.117l-1.874-3.215h.933l1.341 2.462 1.341-2.462h.917z"/><path d="m246.929 46.556-2.847-4.086v4.086h-.745v-5.332h.738l2.854 4.086v-4.086h.737v5.332z"/><path d="m249.062 46.556v-5.332h3.419v.666h-2.627v1.647h2.314v.667h-2.314v1.686h2.69v.666z"/><path d="m254.897 46.556v-4.666h-1.796v-.666h4.384v.666h-1.796v4.666z"/><path d="m262.661 46.556-1.247-4.25-1.247 4.25h-.823l-1.42-5.332h.784l1.082 4.219 1.247-4.219h.753l1.255 4.234 1.09-4.234h.769l-1.42 5.332z"/><path
      d="m268.049 45.952c.345 0 .652-.087.921-.262.27-.175.48-.417.632-.726.151-.308.227-.666.227-1.074s-.076-.766-.227-1.075c-.152-.308-.362-.55-.632-.725-.269-.175-.576-.263-.921-.263s-.651.088-.918.263-.476.417-.627.725c-.152.309-.227.667-.227 1.075s.075.766.227 1.074c.151.309.36.551.627.726s.573.262.918.262zm0 .691c-.502 0-.947-.118-1.333-.353-.387-.236-.692-.56-.914-.973s-.334-.888-.334-1.427.112-1.014.334-1.428c.222-.413.527-.737.914-.972.386-.235.831-.353 1.333-.353.501 0 .947.118 1.337.353.389.235.695.559.917.972.223.414.334.889.334 1.428s-.111 1.014-.334 1.427c-.222.413-.528.737-.917.973-.39.235-.836.353-1.337.353zm4.493-2.902h1.091c.339 0 .61-.084.811-.251s.302-.392.302-.675c0-.282-.101-.506-.302-.674-.201-.167-.472-.251-.811-.251h-1.091zm0 .651v2.164h-.792v-5.332h1.883c.59 0 1.058.142 1.403.427s.517.673.517 1.164c0 .372-.104.686-.313.942s-.497.436-.863.541l1.294 2.258h-.902l-1.215-2.164z"/><path d="m279.859 46.556-2.392-2.689v2.689h-.792v-5.332h.792v2.337l2.235-2.337h.98l-2.376 2.446 2.549 2.886z"/><path
      d="m8.51 28.328h3.825c2.19 0 3.922-.794 5.198-2.385 1.274-1.59 1.912-3.69 1.912-6.3s-.638-4.71-1.912-6.3c-1.276-1.59-3.008-2.385-5.198-2.385h-3.825zm-8.235 6.615v-30.6h12.06c3.03 0 5.707.652 8.033 1.957 2.324 1.306 4.147 3.106 5.467 5.4 1.32 2.295 1.98 4.943 1.98 7.943s-.66 5.647-1.98 7.942-3.143 4.095-5.467 5.401c-2.326 1.304-5.003 1.957-8.033 1.957zm38.07-7.425c0 .69.254 1.253.765 1.687.51.436 1.17.653 1.98.653 1.08 0 1.987-.367 2.722-1.103.735-.734 1.103-1.657 1.103-2.767v-.765c-.81-.15-1.665-.225-2.565-.225-1.141 0-2.093.196-2.858.585-.765.39-1.147 1.035-1.147 1.935zm6.885 7.425-.405-3.015c-1.501 2.4-3.78 3.6-6.84 3.6-1.35 0-2.573-.292-3.668-.877s-1.965-1.388-2.61-2.408-.967-2.205-.967-3.555c0-2.55.997-4.529 2.992-5.94 1.995-1.41 4.628-2.115 7.898-2.115 1.019 0 2.099.09 3.24.27-.121-1.14-.608-2.002-1.463-2.587s-1.898-.878-3.127-.878c-1.08 0-2.168.202-3.263.607s-2.137.893-3.127 1.463l-2.655-5.04c1.5-.96 3.12-1.702 4.86-2.227 1.739-.525 3.479-.788 5.22-.788 2.099 0 3.989.36 5.67 1.08 1.679.72 2.999 1.815 3.96 3.285.96 1.47 1.44 3.33 1.44 5.58v13.545zm12.15 0v-22.905c1.26.27 2.534.405 3.825.405 1.319 0 2.655-.135 4.005-.405v22.905z"/><path d="m70.699 34.943h7.83v-32.85h-7.83z"/><path
      d="m99.904 33.143c-1.381 3.539-2.956 6.18-4.725 7.92-1.771 1.74-4.021 2.61-6.75 2.61-1.231 0-2.34-.135-3.33-.405s-1.83-.601-2.52-.99l2.205-5.4c.419.209.884.389 1.395.54.509.15 1.049.225 1.62.225.81 0 1.537-.195 2.182-.585s1.207-1.096 1.688-2.115l.36-.81-10.35-22.095h8.64l5.085 13.725 4.185-13.725h8.505z"/></g><path
      d="m128.053 35.528c-5.13 0-8.701-2.19-10.71-6.57l6.66-3.195c.479.99 1.005 1.71 1.575 2.16.569.45 1.289.675 2.16.675 1.05 0 1.852-.277 2.407-.833.555-.554.833-1.446.833-2.677v-20.745h8.37v20.52c0 2.22-.466 4.125-1.395 5.715-.931 1.59-2.243 2.812-3.938 3.667s-3.683 1.283-5.962 1.283m28.034-6.21c1.38 0 2.482-.533 3.308-1.597.825-1.065 1.237-2.482 1.237-4.253 0-1.77-.412-3.18-1.237-4.23-.826-1.05-1.928-1.575-3.308-1.575s-2.483.525-3.307 1.575c-.825 1.05-1.238 2.46-1.238 4.23 0 1.771.413 3.188 1.238 4.253.824 1.064 1.927 1.597 3.307 1.597zm0 6.21c-2.46 0-4.628-.518-6.502-1.553-1.876-1.034-3.346-2.452-4.41-4.252-1.065-1.8-1.597-3.885-1.597-6.255s.532-4.455 1.597-6.255c1.064-1.8 2.534-3.21 4.41-4.23 1.874-1.02 4.042-1.53 6.502-1.53s4.628.51 6.503 1.53c1.874 1.02 3.345 2.43 4.41 4.23 1.064 1.8 1.598 3.885 1.598 6.255s-.534 4.455-1.598 6.255c-1.065 1.8-2.536 3.218-4.41 4.252-1.875 1.035-4.043 1.553-6.503 1.553zm31.725-.585-.405-3.015c-.75 1.11-1.732 1.987-2.948 2.632-1.214.645-2.527.968-3.937.968-2.67 0-4.71-.787-6.12-2.363-1.41-1.575-2.115-3.847-2.115-6.817v-14.31h7.83v13.41c0 2.49 1.14 3.735 3.42 3.735 2.4 0 3.6-1.5 3.6-4.5v-12.645h7.83v22.905zm20.475-8.865v8.865h-7.83v-22.905h7.155l.495 3.825c.479-1.23 1.267-2.228 2.362-2.993 1.095-.764 2.363-1.147 3.803-1.147.81 0 1.424.105 1.845.315v7.155c-.331-.119-.698-.209-1.103-.27-.405-.06-.863-.09-1.372-.09-1.56 0-2.843.578-3.848 1.733s-1.507 2.992-1.507 5.512m19.44-3.78v12.645h-7.831v-22.905h7.155l.406 3.015c.749-1.08 1.724-1.95 2.924-2.61 1.2-.659 2.52-.99 3.96-.99 2.49 0 4.485.81 5.986 2.43 1.499 1.62 2.25 3.945 2.25 6.975v14.085h-7.83v-13.185c0-1.35-.301-2.347-.9-2.993-.601-.645-1.441-.967-2.52-.967-1.08 0-1.951.345-2.611 1.035-.66.691-.989 1.845-.989 3.465m26.099 5.22c0 .69.255 1.253.765 1.687.51.436 1.17.653 1.98.653 1.08 0 1.987-.367 2.722-1.103.735-.734 1.103-1.657 1.103-2.767v-.765c-.81-.15-1.665-.225-2.565-.225-1.141 0-2.093.196-2.857.585-.766.39-1.148 1.035-1.148 1.935zm6.885 7.425-.405-3.015c-1.5 2.4-3.78 3.6-6.84 3.6-1.35 0-2.573-.292-3.668-.877s-1.965-1.388-2.61-2.408-.967-2.205-.967-3.555c0-2.55.997-4.529 2.992-5.94 1.995-1.41 4.628-2.115 7.898-2.115 1.019 0 2.099.09 3.24.27-.121-1.14-.608-2.002-1.463-2.587s-1.897-.878-3.127-.878c-1.08 0-2.168.202-3.262.607-1.096.405-2.138.893-3.128 1.463l-2.655-5.04c1.5-.96 3.119-1.702 4.86-2.227 1.739-.525 3.48-.788 5.22-.788 2.099 0 3.99.36 5.67 1.08 1.679.72 2.999 1.815 3.96 3.285.96 1.47 1.44 3.33 1.44 5.58v13.545z"
      fill="#009bff" class='no-color-change'/><path d="m272.861 34.943h7.83v-32.85h-7.83z" fill="#009bff" class='no-color-change'/><path
      d="m61.205 10.238c-1.291 0-2.393-.457-3.308-1.372-.915-.916-1.372-2.018-1.372-3.308s.457-2.392 1.372-3.308c.915-.914 2.017-1.372 3.308-1.372 1.289 0 2.392.458 3.307 1.372.915.916 1.373 2.018 1.373 3.308s-.458 2.392-1.373 3.308c-.915.915-2.018 1.372-3.307 1.372"
      fill="#009bff" class='no-color-change'/></g>
</svg>