<svg xmlns="http://www.w3.org/2000/svg" xmlns:xlink="http://www.w3.org/1999/xlink" preserveAspectRatio="xMidYMid" width="390" height="80" viewBox="0 0 390 80">
  <path d="M381.375,56.101 L381.375,17.508 L389.347,17.508 L389.347,56.101 L381.375,56.101 ZM369.664,52.198 L369.555,52.198 C367.740,54.727 364.881,56.761 360.428,56.761 C350.422,56.761 346.739,48.844 346.739,42.302 C346.739,34.441 352.292,28.283 360.428,28.283 C364.881,28.283 367.740,30.318 369.555,32.847 L369.664,32.847 L369.664,28.943 L377.141,28.943 L377.141,56.101 L369.664,56.101 L369.664,52.198 ZM362.023,34.825 C357.349,34.825 354.820,38.399 354.820,42.522 C354.820,46.755 357.625,50.219 362.023,50.219 C366.476,50.219 369.279,46.755 369.279,42.522 C369.279,38.454 366.696,34.825 362.023,34.825 ZM336.568,41.313 C336.568,37.519 335.469,34.661 331.400,34.661 C327.332,34.661 325.573,37.464 325.573,41.368 L325.573,56.101 L317.602,56.101 L317.602,28.943 L325.078,28.943 L325.078,32.626 L325.188,32.626 C326.893,30.208 329.421,28.283 333.930,28.283 C341.131,28.283 344.485,32.902 344.485,40.103 L344.485,56.101 L336.568,56.101 L336.568,41.313 ZM312.543,35.265 C308.420,35.265 306.166,37.795 306.166,42.467 L306.166,56.101 L298.194,56.101 L298.194,28.943 L305.671,28.943 L305.671,33.121 L305.781,33.121 C307.265,30.263 309.574,28.283 313.258,28.283 C314.192,28.283 315.126,28.393 315.897,28.668 L315.897,35.815 C315.017,35.485 313.697,35.265 312.543,35.265 ZM286.484,52.418 L286.374,52.418 C284.724,54.727 282.581,56.761 277.908,56.761 C270.761,56.761 267.517,52.088 267.517,44.941 L267.517,28.943 L275.489,28.943 L275.489,43.677 C275.489,47.855 276.533,50.384 280.436,50.384 C284.504,50.384 286.044,47.525 286.044,43.622 L286.044,28.943 L293.961,28.943 L293.961,56.101 L286.484,56.101 L286.484,52.418 ZM250.197,56.761 C240.082,56.761 235.079,49.285 235.079,42.522 C235.079,35.760 240.082,28.283 250.197,28.283 C260.313,28.283 265.316,35.760 265.316,42.522 C265.316,49.285 260.313,56.761 250.197,56.761 ZM250.197,34.936 C246.184,34.936 242.996,37.904 242.996,42.522 C242.996,47.140 246.184,50.109 250.197,50.109 C254.211,50.109 257.400,47.140 257.400,42.522 C257.400,37.904 254.211,34.936 250.197,34.936 ZM221.005,56.871 C216.332,56.871 212.594,54.892 210.779,52.088 L215.343,46.865 C216.387,48.405 217.816,49.559 219.960,49.559 C222.929,49.559 223.973,47.635 223.973,44.996 L223.973,17.508 L232.330,17.508 L232.330,46.151 C232.330,52.693 227.932,56.871 221.005,56.871 ZM188.128,66.987 C186.589,66.987 185.215,66.767 183.730,66.327 L183.730,60.005 C184.664,60.500 185.929,60.720 187.194,60.720 C189.118,60.665 190.602,59.895 191.482,57.751 L192.581,55.222 L181.421,28.943 L190.107,28.943 L195.220,42.962 C195.440,43.622 196.704,47.305 196.814,48.350 L196.924,48.350 C197.034,47.360 197.969,44.501 198.463,43.072 L203.631,28.943 L212.043,28.943 L199.673,58.081 C197.474,63.359 195.110,66.987 188.128,66.987 ZM172.625,17.508 L180.596,17.508 L180.596,56.101 L172.625,56.101 L172.625,17.508 ZM164.378,26.029 C161.739,26.029 159.650,24.105 159.650,21.521 C159.650,18.937 161.739,17.013 164.378,17.013 C167.072,17.013 169.160,18.937 169.160,21.521 C169.160,24.105 167.072,26.029 164.378,26.029 ZM148.708,52.198 L148.599,52.198 C146.784,54.727 143.925,56.761 139.472,56.761 C129.466,56.761 125.783,48.844 125.783,42.302 C125.783,34.441 131.336,28.283 139.472,28.283 C143.925,28.283 146.784,30.318 148.599,32.847 L148.708,32.847 L148.708,28.943 L156.185,28.943 L156.185,56.101 L148.708,56.101 L148.708,52.198 ZM141.067,34.825 C136.393,34.825 133.865,38.399 133.865,42.522 C133.865,46.755 136.669,50.219 141.067,50.219 C145.520,50.219 148.323,46.755 148.323,42.522 C148.323,38.454 145.740,34.825 141.067,34.825 ZM103.627,56.101 L90.928,56.101 L90.928,17.508 L103.627,17.508 C116.601,17.508 124.573,24.655 124.573,36.805 C124.573,48.790 116.437,56.101 103.627,56.101 ZM102.967,24.380 L99.284,24.380 L99.284,49.230 L102.967,49.230 C110.993,49.230 115.942,45.161 115.942,36.805 C115.942,28.448 110.993,24.380 102.967,24.380 ZM68.880,54.287 C73.444,54.287 76.797,51.813 78.666,48.075 L81.085,49.394 C78.611,54.232 73.828,56.761 68.661,56.761 C60.029,56.761 55.521,49.449 55.521,42.467 C55.521,35.815 59.644,28.283 68.825,28.283 C77.732,28.283 81.800,35.375 81.800,42.522 L81.800,42.632 L58.324,42.632 C58.380,48.735 62.063,54.287 68.880,54.287 ZM78.941,40.213 C78.171,34.551 74.213,30.703 68.770,30.703 C63.053,30.703 59.314,34.825 58.490,40.213 L78.941,40.213 ZM48.703,39.773 C48.703,33.561 45.680,30.758 40.951,30.758 C36.004,30.758 32.430,33.836 32.430,39.994 L32.430,56.101 L29.572,56.101 L29.572,17.508 L32.430,17.508 L32.430,32.572 L32.540,32.572 C34.079,30.263 36.719,28.283 41.061,28.283 C47.274,28.283 51.562,32.022 51.562,39.059 L51.562,56.101 L48.703,56.101 L48.703,39.773 ZM15.277,56.101 L12.309,56.101 L12.309,20.257 L0.653,20.257 L0.653,17.508 L26.932,17.508 L26.932,20.257 L15.277,20.257 L15.277,56.101 ZM168.391,56.101 L160.420,56.101 L160.420,28.943 L168.391,28.943 L168.391,56.101 Z" class="cls-1"/>
</svg>
