<svg id="VIneland" xmlns="http://www.w3.org/2000/svg" xmlns:xlink="http://www.w3.org/1999/xlink" width="800" height="160" viewBox="0 0 800 160">
  <defs>
    <style>
      .cls-1, .cls-2 {
        fill: #000;
        fill-rule: evenodd;
      }

      .cls-1 {
        filter: url(#filter);
      }
    </style>
    <filter id="filter" x="432" y="119.969" width="367.969" height="16" filterUnits="userSpaceOnUse">
      <feFlood result="flood" flood-color="#999"/>
      <feComposite result="composite" operator="in" in2="SourceGraphic"/>
      <feBlend result="blend" in2="SourceGraphic"/>
    </filter>
  </defs>
  <path id="USAT_Network" data-name="USAT Network" class="cls-1" d="M431.989,120.273h4.489c3.156,0,5.267,1.865,5.267,4.741s-2.155,4.735-5.267,4.735h-2.29v5.925h-2.2v-15.4Zm4.267,7.659c2.112,0,3.244-1.163,3.244-2.918,0-1.736-1.132-2.919-3.244-2.919h-2.068v5.837h2.068Zm11.768-7.659h1.955l6.4,15.4h-2.358l-1.6-4.035h-6.911l-1.6,4.035H441.6S447.244,122.162,448.024,120.273Zm3.665,9.544-1.488-3.794c-0.222-.572-1.179-2.942-1.2-3.139h-0.043c-0.022.2-.955,2.5-1.2,3.139l-1.51,3.794h5.443Zm6.924-9.544h4.51c2.91,0,5.178,1.5,5.178,4.563a4.293,4.293,0,0,1-3.955,4.346l4.778,6.492h-2.579l-4.51-6.276h-1.223v6.276h-2.2v-15.4Zm4.267,7.351c2.043,0,3.2-1.077,3.2-2.764s-1.157-2.765-3.2-2.765h-2.068v5.529h2.068Zm11.522-5.486h-4.445v-1.865h11.089v1.865H476.6v13.536h-2.2V122.138Zm12.348,5.838a8.2,8.2,0,1,1,8.2,8A7.861,7.861,0,0,1,486.75,127.976Zm14.132,0a5.946,5.946,0,1,0-5.955,6.053A5.772,5.772,0,0,0,500.882,127.976Zm5.433-7.7h7.867v1.865h-5.668V127.1H514v1.865h-5.49v6.713h-2.2v-15.4Zm17.815,1.865h-4.444v-1.865h11.088v1.865H526.33v13.536h-2.2V122.138Zm8.953-1.865h2.2v6.318h8.178v-6.318h2.2v15.4h-2.2v-7.218h-8.178v7.218h-2.2v-15.4Zm16.631,0h8.49v1.846h-6.29v4.472h6.11v1.846h-6.11v5.395h6.422v1.842h-8.622v-15.4Zm16,10.092V120.273h2.221v9.433c0,2.679,1.157,4.323,3.756,4.323,2.622,0,3.78-1.644,3.78-4.323v-9.433h2.221v10.092c0,3.38-2.2,5.616-6,5.616C567.865,135.981,565.71,133.745,565.71,130.365Zm14.274,2.524,1.491-1.25a4.52,4.52,0,0,0,3.911,2.433c1.709,0,3.044-.918,3.044-2.611,0-1.817-1.534-2.433-3.446-3.178-1.956-.769-3.933-1.736-3.933-4.193,0-2.432,1.912-4.12,4.712-4.12a5.248,5.248,0,0,1,4.579,2.322l-1.491,1.25a3.552,3.552,0,0,0-3.088-1.668c-1.512,0-2.511.769-2.511,2.063,0,1.6,1.554,2.13,2.911,2.654,2.2,0.856,4.466,1.889,4.466,4.716,0,2.679-2,4.674-5.2,4.674A6.064,6.064,0,0,1,579.984,132.889Zm18.241-12.616h1.956l6.4,15.4h-2.357l-1.6-4.035h-6.912l-1.6,4.035H591.8S597.446,122.162,598.225,120.273Zm3.665,9.544-1.487-3.794c-0.222-.572-1.179-2.942-1.2-3.139h-0.044c-0.022.2-.955,2.5-1.2,3.139l-1.51,3.794h5.443Zm13.978-7.679h-4.445v-1.865h11.088v1.865h-4.444v13.536h-2.2V122.138Zm7.469,5.838a8.2,8.2,0,1,1,8.2,8A7.861,7.861,0,0,1,623.337,127.976Zm14.132,0a5.945,5.945,0,1,0-5.954,6.053A5.772,5.772,0,0,0,637.469,127.976Zm5.434-7.7h4.423c4.977,0,8.265,2.808,8.265,7.7,0,4.87-3.312,7.7-8.265,7.7H642.9v-15.4Zm2.2,13.534h2.046c3.643,0,6.176-1.9,6.176-5.831s-2.533-5.838-6.176-5.838H645.1v11.669Zm17.637-13.534H664.7l6.4,15.4h-2.357l-1.6-4.035h-6.912l-1.6,4.035h-2.311S661.96,122.162,662.739,120.273Zm3.666,9.544-1.489-3.794c-0.221-.572-1.178-2.942-1.2-3.139h-0.044c-0.022.2-.955,2.5-1.2,3.139l-1.51,3.794h5.444Zm9.084-.419-5.312-9.125h2.467l2.889,5.135a22.887,22.887,0,0,1,1.11,2.192h0.022a23.153,23.153,0,0,1,1.113-2.192l2.91-5.135h2.4l-5.309,9.125v6.276h-2.289V129.4Zm14.062-9.125h1.687l8.846,9.982c0.266,0.288,1.422,1.711,1.534,1.932l0.044-.023c-0.044-.217-0.044-2-0.044-2.39v-9.5h2.134v15.4h-1.713l-8.845-9.983c-0.265-.283-1.422-1.711-1.532-1.928l-0.021.02c0.021,0.221.043,2,.043,2.394v9.5h-2.133v-15.4Zm18.253,0h8.487v1.846H710v4.472h6.113v1.846H710v5.395h6.422v1.842H707.8v-15.4Zm15.37,1.865h-4.445v-1.865h11.089v1.865h-4.445v13.536h-2.2V122.138Zm8.477-1.865h2.334l3.2,9.15c0.112,0.351.867,2.63,0.889,2.981h0.046a30.445,30.445,0,0,1,.933-2.981l3.334-9.15h1.756l3.332,9.15c0.133,0.351.91,2.63,0.935,2.981h0.044c0.044-.351.8-2.63,0.91-2.981l3.179-9.15h2.243l-5.49,15.4h-1.688l-3.6-9.607a25.578,25.578,0,0,1-.758-2.5h-0.044a25.421,25.421,0,0,1-.776,2.5l-3.578,9.607h-1.69Zm24.118,7.7a8.2,8.2,0,1,1,8.2,8A7.862,7.862,0,0,1,755.769,127.976Zm14.133,0a5.946,5.946,0,1,0-5.955,6.053A5.772,5.772,0,0,0,769.9,127.976Zm5.433-7.7h4.511c2.913,0,5.177,1.5,5.177,4.563a4.293,4.293,0,0,1-3.955,4.346l4.779,6.492h-2.579l-4.511-6.276h-1.222v6.276h-2.2v-15.4Zm4.267,7.351c2.044,0,3.2-1.077,3.2-2.764s-1.156-2.765-3.2-2.765h-2.067v5.529H779.6Zm8.736-7.351h2.2v7.154l6.444-7.154h2.666l-6.687,7.351,7,8.05h-2.754l-6.668-7.785v7.785h-2.2v-15.4Z"/>
  <path id="Daily_Journal" data-name="Daily Journal" class="cls-2" d="M24,32.034H0.008V26.377H54.093v5.658H30.1v73.773H24V32.034Zm35.53-5.658h5.882v31h0.227c3.168-4.752,8.6-8.826,17.538-8.826,12.787,0,21.612,7.695,21.612,22.178v35.076H98.9V72.2c0-12.786-6.223-18.556-15.954-18.556-10.183,0-17.538,6.336-17.538,19.009v33.152H59.525V26.377Zm53.407,51.369c0-13.691,8.487-29.193,27.383-29.193,18.33,0,26.7,14.6,26.7,29.306v0.227H118.7c0.114,12.559,7.694,23.987,21.724,23.987,9.393,0,16.293-5.092,20.141-12.786L165.546,92c-5.091,9.957-14.935,15.162-25.57,15.162C122.211,107.164,112.932,92.116,112.932,77.746Zm48.2-4.639C159.549,61.453,151.4,53.533,140.2,53.533c-11.766,0-19.46,8.486-21.157,19.574h42.09ZM185.8,26.377h26.137c26.7,0,43.109,14.709,43.109,39.715,0,24.667-16.745,39.715-43.109,39.715H185.8V26.377ZM203,91.664h7.58c16.52,0,26.705-8.373,26.705-25.572S227.1,40.52,210.582,40.52H203V91.664Zm54.54-14.258c0-16.18,11.427-28.853,28.174-28.853,9.164,0,15.048,4.187,18.783,9.392h0.225V49.912h15.389v55.9H304.724V97.773H304.5c-3.735,5.2-9.619,9.391-18.783,9.391C265.122,107.164,257.542,90.871,257.542,77.406Zm46.39,0.453c0-8.373-5.317-15.841-14.934-15.841s-14.824,7.355-14.824,15.841c0,8.712,5.772,15.84,14.824,15.84C298.162,93.7,303.932,86.571,303.932,77.859Zm23.312-43.223c0-5.319,4.3-9.278,9.73-9.278,5.545,0,9.843,3.96,9.843,9.278s-4.3,9.278-9.843,9.278C331.542,43.914,327.244,39.955,327.244,34.637Zm1.584,15.275h16.405v55.9H328.828v-55.9Zm25.12-23.535h16.406v79.43H353.948V26.377ZM376.8,126.853V113.84a15.729,15.729,0,0,0,7.129,1.472c3.959-.113,7.015-1.7,8.825-6.111l2.262-5.2L372.052,49.912h17.877l10.522,28.853c0.453,1.357,3.055,8.939,3.282,11.089h0.226c0.227-2.037,2.15-7.921,3.168-10.862l10.636-29.079h17.312l-25.458,59.969c-4.527,10.862-9.393,18.329-23.761,18.329A30.8,30.8,0,0,1,376.8,126.853Zm55.67-29.306L441.867,86.8c2.149,3.169,5.09,5.544,9.5,5.544,6.111,0,8.26-3.96,8.26-9.392V26.377h17.2V85.327c0,13.465-9.052,22.064-23.308,22.064C443.9,107.391,436.209,103.318,432.474,97.547Zm50.013-19.687c0-13.918,10.3-29.306,31.115-29.306s31.117,15.388,31.117,29.306-10.3,29.3-31.117,29.3S482.487,91.777,482.487,77.859Zm45.939,0c0-9.505-6.564-15.615-14.824-15.615s-14.822,6.11-14.822,15.615,6.562,15.615,14.822,15.615S528.426,87.363,528.426,77.859Zm20.822,4.978V49.912h16.408V80.235c0,8.6,2.149,13.8,10.182,13.8,8.373,0,11.542-5.883,11.542-13.918V49.912h16.294v55.9h-15.39V98.226h-0.226c-3.394,4.752-7.807,8.938-17.424,8.938C555.924,107.164,549.248,97.547,549.248,82.837Zm63.138-32.926h15.388v8.6H628c3.056-5.883,7.807-9.957,15.39-9.957a16.611,16.611,0,0,1,5.431.792V64.055a21.528,21.528,0,0,0-6.9-1.132c-8.487,0-13.126,5.206-13.126,14.823v28.061H612.386v-55.9Zm39.943,0h15.387v7.581h0.227c3.508-4.978,8.713-8.939,17.991-8.939,14.822,0,21.725,9.5,21.725,24.327v32.927H691.365V75.37c0-7.808-2.263-13.691-10.637-13.691s-11.993,5.77-11.993,13.8v30.323H652.329v-55.9ZM712.3,77.406c0-16.18,11.428-28.853,28.174-28.853,9.164,0,15.049,4.187,18.783,9.392h0.225V49.912h15.389v55.9H759.48V97.773h-0.225c-3.734,5.2-9.619,9.391-18.783,9.391C719.878,107.164,712.3,90.871,712.3,77.406Zm46.39,0.453c0-8.373-5.317-15.841-14.934-15.841S728.93,69.373,728.93,77.859c0,8.712,5.772,15.84,14.824,15.84C752.918,93.7,758.688,86.571,758.688,77.859Zm24.9-51.483H799.99v79.43H783.584V26.377Z"/>
</svg>
