<svg id="Visalia" xmlns="http://www.w3.org/2000/svg" xmlns:xlink="http://www.w3.org/1999/xlink" width="640" height="160" viewBox="0 0 640 160">
  <defs>
    <style>
      .cls-1, .cls-2 {
        fill: #000;
        fill-rule: evenodd;
      }

      .cls-1 {
        filter: url(#filter);
      }
    </style>
    <filter id="filter" x="272" y="109.969" width="367.969" height="16" filterUnits="userSpaceOnUse">
      <feFlood result="flood" flood-color="#999"/>
      <feComposite result="composite" operator="in" in2="SourceGraphic"/>
      <feBlend result="blend" in2="SourceGraphic"/>
    </filter>
  </defs>
  <path id="USAT_Network" data-name="USAT Network" class="cls-1" d="M271.989,110.273h4.489c3.156,0,5.267,1.865,5.267,4.741s-2.155,4.735-5.267,4.735h-2.29v5.925h-2.2v-15.4Zm4.267,7.659c2.112,0,3.244-1.163,3.244-2.918,0-1.736-1.132-2.919-3.244-2.919h-2.068v5.837h2.068Zm11.768-7.659h1.955l6.4,15.4h-2.358l-1.6-4.035h-6.912l-1.6,4.035H281.6S287.244,112.162,288.024,110.273Zm3.665,9.544-1.488-3.794c-0.222-.572-1.179-2.942-1.2-3.139h-0.043c-0.022.2-.955,2.5-1.2,3.139l-1.51,3.794h5.443Zm6.924-9.544h4.51c2.91,0,5.178,1.5,5.178,4.563a4.293,4.293,0,0,1-3.955,4.346l4.778,6.492h-2.579l-4.51-6.276h-1.223v6.276h-2.2v-15.4Zm4.267,7.351c2.043,0,3.2-1.077,3.2-2.764s-1.157-2.765-3.2-2.765h-2.068v5.529h2.068Zm11.522-5.486h-4.445v-1.865h11.089v1.865H316.6v13.536h-2.2V112.138Zm12.347,5.838a8.2,8.2,0,1,1,8.2,8A7.862,7.862,0,0,1,326.749,117.976Zm14.133,0a5.946,5.946,0,1,0-5.955,6.053A5.772,5.772,0,0,0,340.882,117.976Zm5.433-7.7h7.867v1.865h-5.668V117.1H354v1.865h-5.49v6.713h-2.2v-15.4Zm17.815,1.865h-4.444v-1.865h11.088v1.865H366.33v13.536h-2.2V112.138Zm8.953-1.865h2.2v6.318h8.178v-6.318h2.2v15.4h-2.2v-7.218h-8.178v7.218h-2.2v-15.4Zm16.631,0h8.49v1.846h-6.29v4.472h6.11v1.846h-6.11v5.395h6.422v1.842h-8.622v-15.4Zm16,10.092V110.273h2.221v9.433c0,2.679,1.157,4.323,3.756,4.323,2.622,0,3.78-1.644,3.78-4.323v-9.433h2.221v10.092c0,3.38-2.2,5.616-6,5.616C407.865,125.981,405.71,123.745,405.71,120.365Zm14.274,2.524,1.491-1.25a4.52,4.52,0,0,0,3.911,2.433c1.709,0,3.044-.918,3.044-2.611,0-1.817-1.534-2.433-3.446-3.178-1.956-.769-3.933-1.736-3.933-4.193,0-2.432,1.912-4.12,4.712-4.12a5.249,5.249,0,0,1,4.579,2.322l-1.491,1.25a3.552,3.552,0,0,0-3.088-1.668c-1.512,0-2.511.769-2.511,2.063,0,1.6,1.554,2.13,2.911,2.654,2.2,0.856,4.466,1.889,4.466,4.716,0,2.679-2,4.674-5.2,4.674A6.064,6.064,0,0,1,419.984,122.889Zm18.241-12.616h1.956l6.4,15.4h-2.357l-1.6-4.035h-6.912l-1.6,4.035H431.8S437.446,112.162,438.225,110.273Zm3.665,9.544-1.487-3.794c-0.222-.572-1.179-2.942-1.2-3.139h-0.044c-0.022.2-.955,2.5-1.2,3.139l-1.51,3.794h5.443Zm13.978-7.679h-4.445v-1.865h11.088v1.865h-4.444v13.536h-2.2V112.138Zm7.469,5.838a8.2,8.2,0,1,1,8.2,8A7.861,7.861,0,0,1,463.337,117.976Zm14.132,0a5.945,5.945,0,1,0-5.954,6.053A5.772,5.772,0,0,0,477.469,117.976Zm5.434-7.7h4.423c4.977,0,8.265,2.808,8.265,7.7,0,4.87-3.312,7.7-8.265,7.7H482.9v-15.4Zm2.2,13.534h2.046c3.643,0,6.176-1.9,6.176-5.831s-2.533-5.838-6.176-5.838H485.1v11.669Zm17.637-13.534H504.7l6.4,15.4h-2.357l-1.6-4.035h-6.912l-1.6,4.035h-2.311S501.96,112.162,502.739,110.273Zm3.666,9.544-1.489-3.794c-0.221-.572-1.178-2.942-1.2-3.139h-0.044c-0.022.2-.955,2.5-1.2,3.139l-1.51,3.794h5.444Zm9.084-.419-5.312-9.125h2.467l2.889,5.135a22.887,22.887,0,0,1,1.11,2.192h0.022a23.153,23.153,0,0,1,1.113-2.192l2.91-5.135h2.4l-5.309,9.125v6.276h-2.289V119.4Zm14.062-9.125h1.687l8.846,9.982c0.266,0.288,1.422,1.711,1.534,1.932l0.044-.023c-0.044-.217-0.044-2-0.044-2.39v-9.5h2.134v15.4h-1.713l-8.845-9.983c-0.265-.283-1.422-1.711-1.532-1.928l-0.021.02c0.021,0.221.043,2,.043,2.394v9.5h-2.133v-15.4Zm18.253,0h8.487v1.846H550v4.472h6.113v1.846H550v5.395h6.422v1.842H547.8v-15.4Zm15.37,1.865h-4.445v-1.865h11.089v1.865h-4.445v13.536h-2.2V112.138Zm8.477-1.865h2.334l3.2,9.15c0.112,0.351.867,2.63,0.889,2.981h0.046a30.445,30.445,0,0,1,.933-2.981l3.334-9.15h1.756l3.332,9.15c0.133,0.351.91,2.63,0.935,2.981h0.044c0.044-.351.8-2.63,0.91-2.981l3.179-9.15h2.243l-5.49,15.4h-1.688l-3.6-9.607a25.578,25.578,0,0,1-.758-2.5h-0.044a25.421,25.421,0,0,1-.776,2.5l-3.578,9.607h-1.69Zm24.119,7.7a8.2,8.2,0,1,1,8.2,8A7.861,7.861,0,0,1,595.77,117.976Zm14.132,0a5.945,5.945,0,1,0-5.955,6.053A5.772,5.772,0,0,0,609.9,117.976Zm5.433-7.7h4.511c2.913,0,5.177,1.5,5.177,4.563a4.293,4.293,0,0,1-3.955,4.346l4.779,6.492h-2.579l-4.511-6.276h-1.222v6.276h-2.2v-15.4Zm4.267,7.351c2.044,0,3.2-1.077,3.2-2.764s-1.156-2.765-3.2-2.765h-2.067v5.529H619.6Zm8.736-7.351h2.2v7.154l6.444-7.154h2.666l-6.687,7.351,7,8.05h-2.754l-6.668-7.785v7.785h-2.2v-15.4Z"/>
  <path class="cls-2" d="M-0.929,38.961H3.83L24.058,86.713,44.364,38.961h4.68L24.692,95.754H23.423Zm52.75,6.662a3.014,3.014,0,1,1,3.014,3.015A2.916,2.916,0,0,1,51.822,45.623Zm0.951,9.836H56.9V94.644H52.773V55.459ZM62.61,87.664l2.935-2.221c2.063,3.251,5.552,6.583,11.422,6.583,5.473,0,9.836-3.015,9.836-7.773,0-5.234-5.077-7.139-10.55-9.122C70.621,73.07,65.386,70.451,65.386,64.5c0-5.869,5-9.994,12.057-9.994A14.253,14.253,0,0,1,89.5,60.457l-2.935,2.46a10.581,10.581,0,0,0-9.043-4.839c-4.68,0-8.011,2.617-8.011,6.346,0,4.443,4.6,6.028,8.646,7.456,5.791,2.063,12.771,4.759,12.771,12.216,0,6.662-5.711,11.5-13.8,11.5C69.907,95.6,64.989,91.868,62.61,87.664ZM94.26,75.053c0-10.313,6.9-20.545,19.751-20.545a17.109,17.109,0,0,1,15.467,8.725h0.159V55.459h4.046V94.644h-4.046V86.871h-0.159A17.108,17.108,0,0,1,114.011,95.6C101.161,95.6,94.26,85.363,94.26,75.053Zm35.377,0c0-9.758-6.583-16.975-15.626-16.975S98.384,65.295,98.384,75.053s6.584,16.974,15.627,16.974S129.637,84.808,129.637,75.053Zm14.517-36.091h4.125V94.644h-4.125V38.961ZM157.8,45.623a3.014,3.014,0,1,1,3.013,3.015A2.916,2.916,0,0,1,157.8,45.623Zm0.951,9.836h4.125V94.644H158.75V55.459Zm11.027,19.594c0-10.313,6.9-20.545,19.751-20.545A17.111,17.111,0,0,1,205,63.233h0.159V55.459H209.2V94.644h-4.046V86.871H205A17.111,17.111,0,0,1,189.528,95.6C176.677,95.6,169.777,85.363,169.777,75.053Zm35.377,0c0-9.758-6.584-16.975-15.626-16.975S173.9,65.295,173.9,75.053s6.584,16.974,15.627,16.974S205.154,84.808,205.154,75.053Zm30.7-26.1H221.1V38.961h41.565v9.993H247.91V94.644H235.853V48.954Zm28.8-4.2a6.871,6.871,0,1,1,6.821,6.5A6.559,6.559,0,0,1,264.648,44.751Zm1.11,10.708h11.5V94.644h-11.5V55.459Zm18.007,0h10.787v5.314h0.159c2.459-3.489,5.87-6.266,12.216-6.266,6.187,0,10.47,2.7,12.771,7.138,2.459-3.727,6.5-7.138,13.722-7.138,9.915,0,14.913,6.663,14.913,17.054V94.644h-11.5V73.307c0-5.474-1.507-9.6-7.059-9.6s-8.012,4.045-8.012,9.677V94.644H310.337V73.307c0-5.474-1.586-9.6-7.138-9.6s-8.012,4.045-8.012,9.677V94.644H283.765V55.459Zm68.218,19.594c0-9.123,5.553-20.545,21.021-20.545s20.623,11.422,20.623,20.228a15.357,15.357,0,0,1-.238,2.856H363.406c0.555,6.187,5.79,9.122,11.5,9.122,5.236,0,8.646-2.222,10.629-5l6.346,6.5c-3.252,4.363-9.2,7.377-17.53,7.377C358.964,95.6,351.983,85.206,351.983,75.053Zm30.539-4.205c-1.11-5.393-4.917-8.011-9.518-8.011s-8.488,2.618-9.6,8.011h19.116ZM394.58,88.774l5.473-6.583a13.643,13.643,0,0,0,10.47,5.077c3.649,0,5.949-1.428,5.949-3.966,0-3.172-3.569-3.727-7.853-4.918-6.107-1.746-11.977-4.759-11.977-11.74,0-7.615,6.98-12.136,16.261-12.136,7.218,0,11.66,2.7,14.039,5.077l-5.472,6.743a11.47,11.47,0,0,0-8.409-3.491c-3.49,0-5.234,1.348-5.234,3.173,0,2.617,3.569,3.172,7.059,4.2,6.5,1.9,12.77,4.759,12.77,12.294,0,8.013-7.059,13.089-16.974,13.089C402.988,95.6,397.435,92.5,394.58,88.774Zm35.695-24.43h21.18V74.893h-21.18V64.344Zm27.13-25.383h18.323c18.719,0,30.22,10.311,30.22,27.841,0,17.293-11.738,27.841-30.22,27.841H457.405V38.961Zm12.056,45.768h5.314c11.581,0,18.721-5.87,18.721-17.927s-7.14-17.927-18.721-17.927h-5.314V84.729Zm38.631-9.677c0-9.123,5.553-20.545,21.02-20.545s20.624,11.422,20.624,20.228a15.351,15.351,0,0,1-.239,2.856H519.514c0.555,6.187,5.79,9.122,11.5,9.122,5.235,0,8.646-2.222,10.629-5l6.346,6.5c-3.252,4.363-9.2,7.377-17.53,7.377C515.073,95.6,508.092,85.206,508.092,75.053Zm30.538-4.205c-1.111-5.393-4.918-8.011-9.518-8.011s-8.488,2.618-9.6,8.011H538.63Zm15.311-31.886h11.5V94.644h-11.5V38.961ZM573.85,82.825v-18.8h-5.314V55.459h5.314V44.831h11.5V55.459h8.17v8.568h-8.17v17.45c0,3.729,1.585,4.918,4.2,4.918a13.749,13.749,0,0,0,3.727-.476v8.805a28.357,28.357,0,0,1-6.662.714C577.42,95.438,573.85,91.154,573.85,82.825Zm21.339-8.09c0-11.343,8.011-20.227,19.751-20.227a15.376,15.376,0,0,1,13.168,6.583h0.157V55.459h10.789V94.644H628.265V89.012h-0.157A15.377,15.377,0,0,1,614.94,95.6C600.5,95.6,595.189,84.174,595.189,74.735Zm32.521,0.318c0-5.871-3.727-11.106-10.469-11.106S606.849,69.1,606.849,75.053c0,6.107,4.046,11.1,10.392,11.1C623.665,86.156,627.71,81.159,627.71,75.053Z"/>
</svg>
