<svg xmlns="http://www.w3.org/2000/svg" width="412" height="48" viewBox="0 0 412 48">
  <g fill="none" fill-rule="evenodd">
    <path fill="#404040" d="M12.853 44.345L14.099 44.345C14.508 44.345 14.832 44.244 15.07 44.042 15.308 43.841 15.428 43.565 15.428 43.217 15.428 42.869 15.308 42.594 15.07 42.393 14.832 42.191 14.508 42.09 14.099 42.09L12.853 42.09 12.853 44.345zM11.927 47.542L11.927 41.311 14.099 41.311C14.795 41.311 15.348 41.483 15.757 41.824 16.167 42.166 16.372 42.631 16.372 43.217 16.372 43.798 16.167 44.257 15.757 44.596 15.348 44.935 14.795 45.105 14.099 45.105L12.853 45.105 12.853 47.542 11.927 47.542zM18.241 45.197L20.513 45.197 19.377 42.273 18.241 45.197zM21.42 47.542L20.816 45.975 17.938 45.975 17.333 47.542 16.399 47.542 18.891 41.311 19.89 41.311 22.373 47.542 21.42 47.542zM24.335 44.253L25.608 44.253C26.005 44.253 26.322 44.155 26.557 43.96 26.792 43.764 26.91 43.501 26.91 43.171 26.91 42.842 26.792 42.579 26.557 42.383 26.322 42.188 26.005 42.09 25.608 42.09L24.335 42.09 24.335 44.253zM24.335 45.013L24.335 47.542 23.409 47.542 23.409 41.311 25.608 41.311C26.299 41.311 26.846 41.478 27.249 41.81 27.652 42.144 27.854 42.597 27.854 43.171 27.854 43.605 27.731 43.972 27.487 44.271 27.242 44.57 26.907 44.781 26.479 44.903L27.991 47.542 26.937 47.542 25.517 45.013 24.335 45.013z"/>
    <polyline fill="#404040" points="30.511 47.542 30.511 42.09 28.412 42.09 28.412 41.311 33.535 41.311 33.535 42.09 31.436 42.09 31.436 47.542 30.511 47.542"/>
    <path fill="#404040" d="M39.482,46.837 C39.885,46.837 40.244,46.735 40.559,46.53 C40.873,46.325 41.119,46.043 41.296,45.682 C41.473,45.322 41.562,44.903 41.562,44.427 C41.562,43.95 41.473,43.532 41.296,43.171 C41.119,42.811 40.873,42.529 40.559,42.324 C40.244,42.119 39.885,42.017 39.482,42.017 C39.079,42.017 38.721,42.119 38.41,42.324 C38.098,42.529 37.854,42.811 37.677,43.171 C37.499,43.532 37.411,43.95 37.411,44.427 C37.411,44.903 37.499,45.322 37.677,45.682 C37.854,46.043 38.098,46.325 38.41,46.53 C38.721,46.735 39.079,46.837 39.482,46.837 Z M39.482,47.643 C38.895,47.643 38.376,47.505 37.924,47.231 C37.472,46.956 37.116,46.577 36.857,46.094 C36.597,45.612 36.467,45.056 36.467,44.427 C36.467,43.798 36.597,43.241 36.857,42.759 C37.116,42.276 37.472,41.898 37.924,41.623 C38.376,41.348 38.895,41.21 39.482,41.21 C40.068,41.21 40.589,41.348 41.044,41.623 C41.499,41.898 41.857,42.276 42.116,42.759 C42.376,43.241 42.506,43.798 42.506,44.427 C42.506,45.056 42.376,45.612 42.116,46.094 C41.857,46.577 41.499,46.956 41.044,47.231 C40.589,47.505 40.068,47.643 39.482,47.643 Z"/>
    <polyline fill="#404040" points="44.733 47.542 43.807 47.542 43.807 41.311 47.683 41.311 47.683 42.09 44.733 42.09 44.733 44.198 47.234 44.198 47.234 44.977 44.733 44.977 44.733 47.542"/>
    <polyline fill="#404040" points="52.512 47.542 52.512 42.09 50.414 42.09 50.414 41.311 55.536 41.311 55.536 42.09 53.438 42.09 53.438 47.542 52.512 47.542"/>
    <polyline fill="#404040" points="56.599 47.542 56.599 41.311 57.525 41.311 57.525 43.978 60.741 43.978 60.741 41.311 61.667 41.311 61.667 47.542 60.741 47.542 60.741 44.775 57.525 44.775 57.525 47.542 56.599 47.542"/>
    <polyline fill="#404040" points="63.298 47.542 63.298 41.311 67.293 41.311 67.293 42.09 64.223 42.09 64.223 44.014 66.927 44.014 66.927 44.794 64.223 44.794 64.223 46.764 67.366 46.764 67.366 47.542 63.298 47.542"/>
    <path fill="#404040" d="M73.212 46.837C73.72 46.837 74.118 46.685 74.408 46.379 74.699 46.073 74.844 45.661 74.844 45.141L74.844 41.311 75.769 41.311 75.769 45.151C75.769 45.927 75.541 46.536 75.086 46.979 74.631 47.422 74.007 47.643 73.212 47.643 72.418 47.643 71.795 47.422 71.343 46.979 70.891 46.536 70.665 45.927 70.665 45.151L70.665 41.311 71.591 41.311 71.591 45.141C71.591 45.661 71.736 46.073 72.026 46.379 72.316 46.685 72.711 46.837 73.212 46.837M79.224 47.643C78.754 47.643 78.305 47.561 77.877 47.396 77.449 47.231 77.104 47.011 76.841 46.736L77.364 46.122C77.608 46.348 77.897 46.525 78.23 46.654 78.563 46.782 78.894 46.846 79.224 46.846 79.627 46.846 79.953 46.768 80.2 46.612 80.447 46.456 80.571 46.241 80.571 45.966 80.571 45.716 80.482 45.505 80.305 45.334 80.128 45.163 79.826 45.019 79.398 44.903L78.537 44.674C77.981 44.527 77.576 44.32 77.323 44.051 77.069 43.782 76.942 43.431 76.942 42.997 76.942 42.643 77.037 42.331 77.226 42.063 77.416 41.794 77.677 41.585 78.01 41.435 78.343 41.285 78.72 41.21 79.141 41.21 79.587 41.21 80.006 41.294 80.397 41.463 80.788 41.631 81.133 41.864 81.433 42.163L80.873 42.768C80.611 42.524 80.337 42.336 80.053 42.204 79.769 42.073 79.468 42.008 79.151 42.008 78.766 42.008 78.451 42.089 78.207 42.25 77.962 42.413 77.84 42.637 77.84 42.924 77.84 43.186 77.927 43.392 78.102 43.538 78.276 43.684 78.543 43.807 78.903 43.905L79.865 44.17C80.421 44.323 80.827 44.537 81.084 44.812 81.341 45.086 81.469 45.429 81.469 45.838 81.469 46.199 81.374 46.514 81.185 46.787 80.996 47.058 80.733 47.269 80.397 47.419 80.061 47.568 79.67 47.643 79.224 47.643M83.797 45.197L86.069 45.197 84.933 42.273 83.797 45.197zM86.976 47.542L86.372 45.975 83.494 45.975 82.889 47.542 81.955 47.542 84.447 41.311 85.446 41.311 87.929 47.542 86.976 47.542z"/>
    <polyline fill="#404040" points="92.236 47.542 92.236 42.09 90.138 42.09 90.138 41.311 95.26 41.311 95.26 42.09 93.162 42.09 93.162 47.542 92.236 47.542"/>
    <path fill="#404040" d="M98.595 46.837C98.999 46.837 99.358 46.735 99.672 46.53 99.987 46.325 100.233 46.043 100.41 45.682 100.587 45.322 100.676 44.903 100.676 44.427 100.676 43.95 100.587 43.532 100.41 43.171 100.233 42.811 99.987 42.529 99.672 42.324 99.358 42.119 98.999 42.017 98.595 42.017 98.193 42.017 97.835 42.119 97.524 42.324 97.212 42.529 96.968 42.811 96.79 43.171 96.613 43.532 96.525 43.95 96.525 44.427 96.525 44.903 96.613 45.322 96.79 45.682 96.968 46.043 97.212 46.325 97.524 46.53 97.835 46.735 98.193 46.837 98.595 46.837zM98.595 47.643C98.009 47.643 97.49 47.505 97.038 47.231 96.586 46.956 96.23 46.577 95.97 46.094 95.71 45.612 95.581 45.056 95.581 44.427 95.581 43.798 95.71 43.241 95.97 42.759 96.23 42.276 96.586 41.898 97.038 41.623 97.49 41.348 98.009 41.21 98.595 41.21 99.182 41.21 99.703 41.348 100.158 41.623 100.613 41.898 100.97 42.276 101.23 42.759 101.49 43.241 101.62 43.798 101.62 44.427 101.62 45.056 101.49 45.612 101.23 46.094 100.97 46.577 100.613 46.956 100.158 47.231 99.703 47.505 99.182 47.643 98.595 47.643zM103.846 46.764L105.111 46.764C105.551 46.764 105.928 46.667 106.243 46.475 106.557 46.283 106.799 46.012 106.967 45.664 107.134 45.316 107.219 44.903 107.219 44.427 107.219 43.95 107.134 43.538 106.967 43.189 106.799 42.842 106.557 42.571 106.243 42.379 105.928 42.186 105.551 42.09 105.111 42.09L103.846 42.09 103.846 46.764zM102.921 47.542L102.921 41.311 105.111 41.311C105.722 41.311 106.256 41.441 106.715 41.7 107.173 41.961 107.529 42.324 107.782 42.791 108.036 43.258 108.162 43.804 108.162 44.427 108.162 45.05 108.036 45.595 107.782 46.062 107.529 46.53 107.173 46.893 106.715 47.153 106.256 47.413 105.722 47.542 105.111 47.542L102.921 47.542zM110.527 45.197L112.8 45.197 111.663 42.273 110.527 45.197zM113.707 47.542L113.102 45.975 110.224 45.975 109.62 47.542 108.685 47.542 111.177 41.311 112.176 41.311 114.66 47.542 113.707 47.542z"/>
    <polyline fill="#404040" points="117.5 45.068 117.5 47.542 116.575 47.542 116.575 45.068 114.385 41.311 115.475 41.311 117.042 44.188 118.609 41.311 119.681 41.311 117.5 45.068"/>
    <polyline fill="#404040" points="127.085 47.542 123.759 42.768 123.759 47.542 122.888 47.542 122.888 41.311 123.75 41.311 127.085 46.085 127.085 41.311 127.947 41.311 127.947 47.542 127.085 47.542"/>
    <polyline fill="#404040" points="129.578 47.542 129.578 41.311 133.573 41.311 133.573 42.09 130.503 42.09 130.503 44.014 133.207 44.014 133.207 44.794 130.503 44.794 130.503 46.764 133.647 46.764 133.647 47.542 129.578 47.542"/>
    <polyline fill="#404040" points="136.395 47.542 136.395 42.09 134.297 42.09 134.297 41.311 139.419 41.311 139.419 42.09 137.321 42.09 137.321 47.542 136.395 47.542"/>
    <polyline fill="#404040" points="145.467 47.542 144.01 42.576 142.553 47.542 141.591 47.542 139.932 41.311 140.849 41.311 142.113 46.241 143.571 41.311 144.45 41.311 145.916 46.26 147.19 41.311 148.088 41.311 146.43 47.542 145.467 47.542"/>
    <path fill="#404040" d="M151.763 46.837C152.166 46.837 152.525 46.735 152.84 46.53 153.154 46.325 153.4 46.043 153.577 45.682 153.754 45.322 153.843 44.903 153.843 44.427 153.843 43.95 153.754 43.532 153.577 43.171 153.4 42.811 153.154 42.529 152.84 42.324 152.525 42.119 152.166 42.017 151.763 42.017 151.36 42.017 151.002 42.119 150.691 42.324 150.379 42.529 150.135 42.811 149.957 43.171 149.781 43.532 149.692 43.95 149.692 44.427 149.692 44.903 149.781 45.322 149.957 45.682 150.135 46.043 150.379 46.325 150.691 46.53 151.002 46.735 151.36 46.837 151.763 46.837zM151.763 47.643C151.176 47.643 150.657 47.505 150.205 47.231 149.753 46.956 149.397 46.577 149.138 46.094 148.878 45.612 148.748 45.056 148.748 44.427 148.748 43.798 148.878 43.241 149.138 42.759 149.397 42.276 149.753 41.898 150.205 41.623 150.657 41.348 151.176 41.21 151.763 41.21 152.349 41.21 152.87 41.348 153.325 41.623 153.78 41.898 154.138 42.276 154.397 42.759 154.657 43.241 154.787 43.798 154.787 44.427 154.787 45.056 154.657 45.612 154.397 46.094 154.138 46.577 153.78 46.956 153.325 47.231 152.87 47.505 152.349 47.643 151.763 47.643zM157.014 44.253L158.287 44.253C158.684 44.253 159 44.155 159.236 43.96 159.471 43.764 159.589 43.501 159.589 43.171 159.589 42.842 159.471 42.579 159.236 42.383 159 42.188 158.684 42.09 158.287 42.09L157.014 42.09 157.014 44.253zM157.014 45.013L157.014 47.542 156.088 47.542 156.088 41.311 158.287 41.311C158.978 41.311 159.524 41.478 159.928 41.81 160.331 42.144 160.533 42.597 160.533 43.171 160.533 43.605 160.41 43.972 160.166 44.271 159.921 44.57 159.586 44.781 159.158 44.903L160.67 47.542 159.616 47.542 158.196 45.013 157.014 45.013z"/>
    <polyline fill="#404040" points="165.563 47.542 162.768 44.399 162.768 47.542 161.843 47.542 161.843 41.311 162.768 41.311 162.768 44.042 165.38 41.311 166.525 41.311 163.749 44.17 166.727 47.542 165.563 47.542"/>
    <polyline fill="#009BFF" class='no-color-change' points="32.132 3.591 21.062 34.191 11.927 34.191 .857 3.591 9.632 3.591 16.562 24.921 23.717 3.591 32.132 3.591"/>
    <path fill="#009BFF" class='no-color-change' d="M35.507 34.191L35.507 11.286C36.767 11.556 38.042 11.69 39.332 11.69 40.651 11.69 41.987 11.556 43.337 11.286L43.337 34.191 35.507 34.191zM39.332 9.485C38.042 9.485 36.939 9.028 36.024 8.113 35.109 7.198 34.652 6.096 34.652 4.806 34.652 3.516 35.109 2.414 36.024 1.498 36.939.584 38.042.126 39.332.126 40.621.126 41.724.584 42.639 1.498 43.554 2.414 44.012 3.516 44.012 4.806 44.012 6.096 43.554 7.198 42.639 8.113 41.724 9.028 40.621 9.485 39.332 9.485zM57.331 34.776C55.351 34.776 53.499 34.461 51.774 33.831 50.048 33.201 48.496 32.301 47.116 31.131L50.446 26.721C51.496 27.561 52.629 28.244 53.844 28.768 55.059 29.294 56.251 29.556 57.422 29.556 58.201 29.556 58.823 29.421 59.289 29.151 59.754 28.881 59.986 28.476 59.986 27.936 59.986 27.366 59.724 26.908 59.199 26.564 58.674 26.219 57.736 25.881 56.386 25.551L54.226 25.011C49.936 23.871 47.791 21.576 47.791 18.126 47.791 16.596 48.211 15.276 49.051 14.166 49.891 13.056 51.046 12.201 52.517 11.601 53.986 11.001 55.696 10.701 57.646 10.701 59.566 10.701 61.374 11.001 63.069 11.601 64.763 12.201 66.316 13.071 67.726 14.211L64.307 18.711C63.256 17.871 62.146 17.196 60.976 16.686 59.807 16.176 58.711 15.921 57.691 15.921 56.041 15.921 55.216 16.461 55.216 17.541 55.216 18.021 55.464 18.411 55.959 18.711 56.454 19.011 57.151 19.281 58.051 19.521L60.976 20.331C63.166 20.931 64.786 21.831 65.836 23.031 66.886 24.231 67.411 25.656 67.411 27.306 67.411 28.806 66.991 30.118 66.151 31.243 65.311 32.368 64.133 33.238 62.619 33.854 61.104 34.468 59.341 34.776 57.331 34.776M77.851 26.766C77.851 27.456 78.106 28.019 78.616 28.453 79.126 28.889 79.786 29.106 80.596 29.106 81.676 29.106 82.583 28.738 83.319 28.003 84.054 27.269 84.421 26.346 84.421 25.235L84.421 24.471C83.611 24.321 82.756 24.246 81.856 24.246 80.716 24.246 79.764 24.442 78.999 24.831 78.234 25.221 77.851 25.866 77.851 26.766zM84.736 34.191L84.331 31.176C82.831 33.576 80.551 34.776 77.491 34.776 76.141 34.776 74.919 34.484 73.824 33.898 72.728 33.314 71.859 32.511 71.214 31.491 70.568 30.471 70.246 29.286 70.246 27.936 70.246 25.386 71.243 23.406 73.239 21.996 75.234 20.586 77.866 19.881 81.136 19.881 82.156 19.881 83.236 19.971 84.376 20.151 84.256 19.011 83.769 18.149 82.914 17.564 82.059 16.979 81.016 16.686 79.786 16.686 78.706 16.686 77.619 16.888 76.524 17.293 75.428 17.698 74.386 18.186 73.396 18.756L70.741 13.716C72.241 12.756 73.861 12.014 75.601 11.488 77.341 10.964 79.081 10.701 80.821 10.701 82.921 10.701 84.811 11.061 86.491 11.781 88.171 12.501 89.491 13.596 90.451 15.065 91.411 16.536 91.891 18.396 91.891 20.646L91.891 34.191 84.736 34.191z"/>
    <polygon fill="#009BFF" class='no-color-change' points="96.886 34.191 104.716 34.191 104.716 1.341 96.886 1.341"/>
    <path fill="#009BFF" class='no-color-change' d="M110.206 34.191L110.206 11.286C111.465 11.556 112.74 11.69 114.031 11.69 115.35 11.69 116.686 11.556 118.036 11.286L118.036 34.191 110.206 34.191zM114.031 9.485C112.74 9.485 111.638 9.028 110.723 8.113 109.807 7.198 109.35 6.096 109.35 4.806 109.35 3.516 109.807 2.414 110.723 1.498 111.638.584 112.74.126 114.031.126 115.32.126 116.422.584 117.338 1.498 118.253 2.414 118.711 3.516 118.711 4.806 118.711 6.096 118.253 7.198 117.338 8.113 116.422 9.028 115.32 9.485 114.031 9.485zM129.69 26.766C129.69 27.456 129.945 28.019 130.455 28.453 130.965 28.889 131.625 29.106 132.435 29.106 133.515 29.106 134.422 28.738 135.158 28.003 135.892 27.269 136.26 26.346 136.26 25.235L136.26 24.471C135.45 24.321 134.595 24.246 133.695 24.246 132.555 24.246 131.603 24.442 130.838 24.831 130.073 25.221 129.69 25.866 129.69 26.766zM136.575 34.191L136.17 31.176C134.67 33.576 132.39 34.776 129.33 34.776 127.98 34.776 126.757 34.484 125.663 33.898 124.567 33.314 123.697 32.511 123.053 31.491 122.407 30.471 122.085 29.286 122.085 27.936 122.085 25.386 123.082 23.406 125.078 21.996 127.072 20.586 129.705 19.881 132.975 19.881 133.995 19.881 135.075 19.971 136.215 20.151 136.095 19.011 135.608 18.149 134.753 17.564 133.898 16.979 132.855 16.686 131.625 16.686 130.545 16.686 129.457 16.888 128.363 17.293 127.267 17.698 126.225 18.186 125.235 18.756L122.58 13.716C124.08 12.756 125.7 12.014 127.44 11.488 129.18 10.964 130.92 10.701 132.66 10.701 134.76 10.701 136.65 11.061 138.33 11.781 140.01 12.501 141.33 13.596 142.29 15.065 143.25 16.536 143.73 18.396 143.73 20.646L143.73 34.191 136.575 34.191z"/>
    <polyline fill="#404040" points="162.405 34.191 162.405 10.341 153.315 10.341 153.315 3.591 179.865 3.591 179.865 10.341 170.775 10.341 170.775 34.191 162.405 34.191"/>
    <path fill="#404040" d="M183.644 34.191L183.644 11.286C184.904 11.556 186.179 11.69 187.469 11.69 188.788 11.69 190.124 11.556 191.474 11.286L191.474 34.191 183.644 34.191M204.793 21.006L204.793 34.191 196.964 34.191 196.964 11.286 204.163 11.286 204.569 14.211C205.258 13.101 206.158 12.261 207.268 11.69 208.378 11.121 209.563 10.836 210.824 10.836 212.174 10.836 213.403 11.136 214.514 11.735 215.623 12.336 216.523 13.176 217.214 14.256 218.023 13.147 219.081 12.298 220.386 11.713 221.691 11.128 223.063 10.836 224.503 10.836 226.093 10.836 227.496 11.203 228.711 11.939 229.926 12.674 230.878 13.693 231.569 14.998 232.258 16.303 232.603 17.811 232.603 19.521L232.603 34.191 224.773 34.191 224.773 20.331C224.773 19.371 224.511 18.606 223.986 18.036 223.461 17.466 222.793 17.181 221.983 17.181 220.994 17.181 220.198 17.496 219.598 18.126 218.998 18.756 218.699 19.716 218.699 21.006L218.699 34.191 210.869 34.191 210.869 20.331C210.869 19.371 210.613 18.606 210.103 18.036 209.593 17.466 208.903 17.181 208.034 17.181 207.073 17.181 206.293 17.496 205.694 18.126 205.093 18.756 204.793 19.716 204.793 21.006M248.534 16.371C245.983 16.371 244.453 17.721 243.943 20.421L252.673 20.421C252.463 18.951 251.96 17.908 251.166 17.293 250.37 16.679 249.493 16.371 248.534 16.371zM259.243 31.851C258.103 32.661 256.656 33.351 254.901 33.921 253.146 34.49 251.278 34.776 249.298 34.776 246.568 34.776 244.236 34.273 242.301 33.268 240.366 32.264 238.881 30.861 237.846 29.061 236.811 27.261 236.293 25.191 236.293 22.851 236.293 20.482 236.803 18.381 237.823 16.551 238.843 14.721 240.253 13.288 242.054 12.253 243.853 11.218 245.953 10.701 248.353 10.701 250.693 10.701 252.756 11.203 254.541 12.208 256.326 13.214 257.721 14.608 258.726 16.393 259.731 18.179 260.233 20.271 260.233 22.671 260.233 23.001 260.211 23.346 260.166 23.706 260.121 24.066 260.068 24.442 260.008 24.831L244.034 24.831C244.753 27.471 246.718 28.791 249.929 28.791 251.368 28.791 252.643 28.566 253.753 28.116 254.863 27.666 255.793 27.216 256.543 26.766L259.243 31.851zM272.743 34.776C270.763 34.776 268.91 34.461 267.185 33.831 265.46 33.201 263.908 32.301 262.528 31.131L265.858 26.721C266.908 27.561 268.041 28.244 269.256 28.768 270.471 29.294 271.663 29.556 272.833 29.556 273.613 29.556 274.235 29.421 274.701 29.151 275.165 28.881 275.398 28.476 275.398 27.936 275.398 27.366 275.135 26.908 274.611 26.564 274.085 26.219 273.148 25.881 271.798 25.551L269.638 25.011C265.348 23.871 263.203 21.576 263.203 18.126 263.203 16.596 263.623 15.276 264.463 14.166 265.303 13.056 266.458 12.201 267.928 11.601 269.398 11.001 271.108 10.701 273.058 10.701 274.978 10.701 276.785 11.001 278.481 11.601 280.175 12.201 281.728 13.071 283.138 14.211L279.718 18.711C278.668 17.871 277.558 17.196 276.388 16.686 275.218 16.176 274.123 15.921 273.103 15.921 271.453 15.921 270.628 16.461 270.628 17.541 270.628 18.021 270.876 18.411 271.37 18.711 271.866 19.011 272.563 19.281 273.463 19.521L276.388 20.331C278.577 20.931 280.198 21.831 281.248 23.031 282.298 24.231 282.823 25.656 282.823 27.306 282.823 28.806 282.403 30.118 281.563 31.243 280.723 32.368 279.545 33.238 278.031 33.854 276.515 34.468 274.753 34.776 272.743 34.776M306.763 27.576L310.588 27.576C312.777 27.576 314.51 26.781 315.785 25.191 317.06 23.601 317.698 21.501 317.698 18.891 317.698 16.281 317.06 14.181 315.785 12.591 314.51 11.001 312.777 10.206 310.588 10.206L306.763 10.206 306.763 27.576zM298.528 34.191L298.528 3.591 310.588 3.591C313.618 3.591 316.295 4.243 318.62 5.548 320.945 6.854 322.767 8.653 324.088 10.948 325.408 13.243 326.068 15.891 326.068 18.891 326.068 21.891 325.408 24.538 324.088 26.833 322.767 29.128 320.945 30.928 318.62 32.233 316.295 33.538 313.618 34.191 310.588 34.191L298.528 34.191zM341.277 16.371C338.727 16.371 337.197 17.721 336.687 20.421L345.417 20.421C345.207 18.951 344.704 17.908 343.91 17.293 343.115 16.679 342.237 16.371 341.277 16.371zM351.987 31.851C350.847 32.661 349.4 33.351 347.645 33.921 345.889 34.49 344.022 34.776 342.042 34.776 339.312 34.776 336.98 34.273 335.045 33.268 333.11 32.264 331.625 30.861 330.59 29.061 329.555 27.261 329.037 25.191 329.037 22.851 329.037 20.482 329.547 18.381 330.567 16.551 331.587 14.721 332.997 13.288 334.797 12.253 336.597 11.218 338.697 10.701 341.097 10.701 343.437 10.701 345.499 11.203 347.285 12.208 349.069 13.214 350.464 14.608 351.47 16.393 352.474 18.179 352.977 20.271 352.977 22.671 352.977 23.001 352.955 23.346 352.91 23.706 352.865 24.066 352.812 24.442 352.752 24.831L336.777 24.831C337.497 27.471 339.462 28.791 342.672 28.791 344.112 28.791 345.387 28.566 346.497 28.116 347.607 27.666 348.537 27.216 349.287 26.766L351.987 31.851z"/>
    <polygon fill="#404040" points="356.982 34.191 364.812 34.191 364.812 1.341 356.982 1.341"/>
    <path fill="#404040" d="M387.177 32.706C386.246 33.336 385.181 33.838 383.982 34.213 382.782 34.588 381.521 34.776 380.202 34.776 377.742 34.776 375.784 34.064 374.329 32.638 372.874 31.214 372.147 29.301 372.147 26.9L372.147 17.136 368.411 17.136 368.411 11.286 372.507 11.286 373.496 4.896 379.976 4.896 379.976 11.286 385.962 11.286 385.962 17.136 379.976 17.136 379.976 25.911C379.976 26.692 380.209 27.299 380.674 27.734 381.139 28.169 381.761 28.386 382.542 28.386 382.931 28.386 383.329 28.311 383.734 28.161 384.139 28.011 384.522 27.831 384.882 27.621L387.177 32.706M397.077 26.766C397.077 27.456 397.331 28.019 397.841 28.453 398.351 28.889 399.012 29.106 399.821 29.106 400.901 29.106 401.808 28.738 402.544 28.003 403.279 27.269 403.646 26.346 403.646 25.235L403.646 24.471C402.836 24.321 401.981 24.246 401.081 24.246 399.941 24.246 398.989 24.442 398.224 24.831 397.459 25.221 397.077 25.866 397.077 26.766zM403.961 34.191L403.556 31.176C402.056 33.576 399.776 34.776 396.716 34.776 395.367 34.776 394.143 34.484 393.049 33.898 391.953 33.314 391.083 32.511 390.439 31.491 389.793 30.471 389.471 29.286 389.471 27.936 389.471 25.386 390.468 23.406 392.464 21.996 394.459 20.586 397.091 19.881 400.361 19.881 401.381 19.881 402.461 19.971 403.601 20.151 403.481 19.011 402.994 18.149 402.139 17.564 401.284 16.979 400.241 16.686 399.012 16.686 397.931 16.686 396.844 16.888 395.749 17.293 394.653 17.698 393.611 18.186 392.621 18.756L389.966 13.716C391.466 12.756 393.086 12.014 394.827 11.488 396.566 10.964 398.306 10.701 400.046 10.701 402.146 10.701 404.036 11.061 405.716 11.781 407.396 12.501 408.716 13.596 409.676 15.065 410.636 16.536 411.117 18.396 411.117 20.646L411.117 34.191 403.961 34.191z"/>
    <path fill="#009BFF" class='no-color-change' d="M187.469,9.485 C186.179,9.485 185.076,9.028 184.161,8.113 C183.246,7.198 182.789,6.096 182.789,4.806 C182.789,3.516 183.246,2.414 184.161,1.498 C185.076,0.584 186.179,0.126 187.469,0.126 C188.759,0.126 189.861,0.584 190.776,1.498 C191.691,2.414 192.149,3.516 192.149,4.806 C192.149,6.096 191.691,7.198 190.776,8.113 C189.861,9.028 188.759,9.485 187.469,9.485"/>
  </g>
</svg>
