<svg xmlns="http://www.w3.org/2000/svg" width="532" height="100" viewBox="0 0 532 100" xmlns:xlink="http://www.w3.org/1999/xlink">
  <defs>
    <polygon id="a" points="450.882 .52 .271 .52 .271 78.8 450.882 78.8 450.882 .52"/>
  </defs>
  <g fill="none" fill-rule="evenodd" transform="translate(0 -48)">
    <path fill="#D9222A" d="M25.075 51.997L32.32 98.82 32.536 98.82 40.106 51.997 64.111 51.997 51.352 110.39C48.216 124.883 44.431 128.992 32.428 128.992 20.425 128.992 16.64 124.883 13.504 110.39L.745 51.997 25.075 51.997M67.313 73.86L67.313 127.692 90.886 127.692 90.886 74.98C87.941 77.736 83.997 79.433 79.645 79.433 74.73 79.433 70.331 77.272 67.313 73.86M217.033 85.411L224.279 85.411 224.279 78.706C224.279 74.813 222.007 72.544 218.871 72.544 215.737 72.544 213.573 74.813 213.573 78.706L213.573 127.695 190 127.695 190 79.247C190 68.649 197.677 50.7 218.981 50.7 240.283 50.7 247.855 68.649 247.855 79.247L247.855 127.695 224.279 127.695 224.279 104.662 217.033 104.662 217.033 85.411"/>
    <path fill="#6F8F9D" d="M282.087 89.208L269.79 89.208C268.252 89.208 266.995 89.766 266.995 91.234 266.995 95.358 285.234 100.668 285.234 112.128 285.234 118.416 283.625 126.801 267.972 126.801L254.906 126.801 254.906 115.481 267.555 115.481C270.35 115.481 272.096 114.641 272.096 112.826 272.096 107.653 254.557 103.463 254.557 91.723 254.557 81.523 261.756 77.888 269.372 77.888L282.087 77.888 282.087 89.208M315.137 89.208C303.888 89.208 301.931 90.466 298.856 97.036L315.137 97.036 315.137 107.653 298.856 107.653C302.071 114.783 304.168 115.481 315.137 115.481L315.137 126.801 308.218 126.801C295.083 126.801 285.861 115.901 285.861 102.346 285.861 88.788 295.083 77.888 308.218 77.888L315.137 77.888 315.137 89.208M315.837 126.8L319.749 87.67C320.449 80.543 322.056 77.05 329.321 77.05 334.073 77.05 337.148 79.845 338.057 85.995L341.621 109.541 341.969 109.541 345.533 85.995C346.442 79.845 349.514 77.05 354.267 77.05 361.532 77.05 363.141 80.543 363.841 87.67L367.753 126.8 356.153 126.8 353.987 86.973 353.847 86.973 353.847 88.09 347.839 121.35C347.139 125.123 344.764 127.638 341.761 127.638 338.754 127.638 336.379 125.123 335.682 121.35L329.672 88.09 329.532 88.09 327.434 126.8 315.837 126.8M369.358 126.8L369.358 94.66C369.358 84.178 376.274 77.05 386.477 77.05 396.679 77.05 403.596 84.178 403.596 94.66L403.596 126.8 391.438 126.8 391.438 109.75 383.822 109.75 383.822 98.71 391.438 98.71 391.438 94.1C391.438 90.468 389.481 88.09 386.477 88.09 383.473 88.09 381.518 90.468 381.518 94.1L381.518 126.8 369.358 126.8M407.929 126.8L407.929 83.758C407.929 79.845 411.004 77.05 415.126 77.05 419.249 77.05 421.696 78.659 423.511 82.22L434.342 103.743 434.482 103.743 434.482 77.888 446.639 77.888 446.639 120.51C446.639 124.983 443.284 127.638 440.209 127.638 437.066 127.638 434.762 126.171 431.544 119.953L420.227 98.153 420.089 98.153 420.089 126.8 407.929 126.8M450.971 126.8L450.971 94.66C450.971 84.178 457.887 77.05 468.089 77.05 478.292 77.05 485.208 84.178 485.208 94.66L485.208 126.8 473.051 126.8 473.051 109.75 465.434 109.75 465.434 98.71 473.051 98.71 473.051 94.1C473.051 90.468 471.093 88.09 468.089 88.09 465.086 88.09 463.131 90.468 463.131 94.1L463.131 126.8 450.971 126.8"/>
    <g transform="translate(65 48)">
      <mask id="b" fill="white">
        <use xlink:href="#a"/>
      </mask>
      <path fill="#6F8F9D" d="M450.882,78.8 L441.588,78.8 C429.779,78.8 424.189,74.328 424.189,63.01 L424.189,29.888 L436.349,29.888 L436.349,61.89 C436.349,65.874 437.675,67.063 442.568,67.063 L450.882,67.063 L450.882,78.8" mask="url(#b)"/>
      <path fill="#FFF101" d="M27.929,14.349 C27.929,21.987 21.737,28.179 14.099,28.179 C6.46,28.179 0.271,21.987 0.271,14.349 C0.271,6.71 6.46,0.519 14.099,0.519 C21.737,0.519 27.929,6.71 27.929,14.349" mask="url(#b)"/>
    </g>
    <path fill="#8A8B8A" d="M258.048 68.254L262.906 68.254C264.586 68.254 265.276 67.645 265.276 66.412 265.276 63.516 258.148 63.636 258.148 59.427 258.148 57.118 259.809 55.863 262.034 55.863L266.55 55.863 266.55 57.644 261.773 57.644C260.72 57.644 260.052 58.233 260.052 59.326 260.052 61.937 267.179 61.937 267.179 66.25 267.179 68.517 265.762 70.037 263.249 70.037L258.048 70.037 258.048 68.254M273.152 55.864L273.152 65.177C273.152 67.1 274.103 68.498 275.923 68.498 277.745 68.498 278.718 67.1 278.718 65.177L278.718 55.864 280.621 55.864 280.621 65.378C280.621 68.132 278.578 70.278 275.923 70.278 273.27 70.278 271.249 68.132 271.249 65.378L271.249 55.864 273.152 55.864M285.217 70.036L285.217 60.681C285.217 57.502 287.121 55.621 289.913 55.621 292.526 55.621 294.29 57.463 294.29 59.649 294.29 61.007 293.823 62.1 292.647 62.807 293.863 63.294 294.531 64.023 294.531 66.089L294.531 70.036 292.627 70.036 292.627 66.148C292.627 64.753 291.819 63.841 290.056 63.841L287.953 63.841 287.953 62.058 289.447 62.058C291.129 62.058 292.384 61.29 292.384 59.71 292.384 58.313 291.212 57.402 289.913 57.402 288.275 57.402 287.121 58.497 287.121 60.135L287.121 70.036 285.217 70.036M305.97 55.62C309.976 55.62 313.38 58.86 313.38 62.949 313.38 67.041 309.976 70.278 305.97 70.278 301.959 70.278 298.56 67.041 298.56 62.949 298.56 58.86 301.959 55.62 305.97 55.62M305.97 68.497C309.106 68.497 311.395 65.965 311.395 62.949 311.395 59.933 309.106 57.401 305.97 57.401 302.831 57.401 300.542 59.933 300.542 62.949 300.542 65.965 302.831 68.497 305.97 68.497M325.771 63.598L318.926 63.598C319.088 66.27 321.456 68.254 323.929 68.254L325.771 68.254 325.771 70.035 324.271 70.035C320.022 70.035 316.942 66.957 316.942 62.949 316.942 58.941 320.022 55.863 324.271 55.863L325.771 55.863 325.771 57.646 324.497 57.646C320.79 57.646 319.01 60.4 318.926 61.814L325.771 61.814 325.771 63.598M329.719 68.254L334.577 68.254C336.257 68.254 336.945 67.645 336.945 66.412 336.945 63.516 329.82 63.636 329.82 59.427 329.82 57.118 331.478 55.863 333.705 55.863L338.222 55.863 338.222 57.644 333.443 57.644C332.391 57.644 331.723 58.233 331.723 59.326 331.723 61.937 338.851 61.937 338.851 66.25 338.851 68.517 337.431 70.037 334.921 70.037L329.719 70.037 329.719 68.254"/>
    <polyline fill="#8A8B8A" points="342.028 55.864 350.938 55.864 350.938 57.644 347.433 57.644 347.433 70.035 345.53 70.035 345.53 57.644 342.028 57.644 342.028 55.864"/>
    <path fill="#8A8B8A" d="M362.902 63.598L356.059 63.598C356.221 66.27 358.589 68.254 361.06 68.254L362.902 68.254 362.902 70.035 361.403 70.035C357.152 70.035 354.074 66.957 354.074 62.949 354.074 58.941 357.152 55.863 361.403 55.863L362.902 55.863 362.902 57.646 361.627 57.646C357.921 57.646 356.14 60.4 356.059 61.814L362.902 61.814 362.902 63.598M375.82 70.036L375.82 55.864 379.403 55.864C383.411 55.864 386.349 59.143 386.349 62.95 386.349 66.757 383.411 70.036 379.403 70.036L378.533 70.036 378.533 68.253 379.565 68.253C382.218 68.253 384.362 65.946 384.362 62.95 384.362 59.831 382.075 57.645 378.875 57.645L377.723 57.645 377.723 70.036 375.82 70.036M398.92 63.598L392.075 63.598C392.237 66.27 394.604 68.254 397.078 68.254L398.92 68.254 398.92 70.035 397.419 70.035C393.17 70.035 390.09 66.957 390.09 62.949 390.09 58.941 393.17 55.863 397.419 55.863L398.92 55.863 398.92 57.646 397.645 57.646C393.939 57.646 392.158 60.4 392.075 61.814L398.92 61.814 398.92 63.598M413.842 55.864L413.842 64.995C413.842 67.181 414.733 68.255 416.718 68.255L418.557 68.255 418.557 70.035 416.435 70.035C413.699 70.035 411.938 68.132 411.938 65.46L411.938 55.864 413.842 55.864M421.938 70.036L421.938 61.046C421.938 57.687 424.026 55.621 426.779 55.621 429.532 55.621 431.615 57.687 431.615 61.046L431.615 70.036 429.716 70.036 429.716 63.598 424.613 63.598 424.613 61.815 429.716 61.815 429.716 60.924C429.716 58.696 428.52 57.402 426.779 57.402 425.038 57.402 423.841 58.696 423.841 60.924L423.841 70.036 421.938 70.036M443.865 70.036L443.865 60.622C443.865 57.603 445.506 55.864 448.259 55.864L450.607 55.864 450.607 57.645 448.542 57.645C446.781 57.645 445.769 58.455 445.769 60.418L445.769 62.1 450.607 62.1 450.607 63.881 445.769 63.881 445.769 70.036 443.865 70.036M457.006 55.864L457.006 64.995C457.006 67.181 457.896 68.255 459.88 68.255L461.722 68.255 461.722 70.035 459.598 70.035C456.864 70.035 455.103 68.132 455.103 65.46L455.103 55.864 457.006 55.864M472.192 55.62C476.197 55.62 479.602 58.86 479.602 62.949 479.602 67.041 476.197 70.278 472.192 70.278 468.181 70.278 464.782 67.041 464.782 62.949 464.782 58.86 468.181 55.62 472.192 55.62M472.192 68.497C475.33 68.497 477.617 65.965 477.617 62.949 477.617 59.933 475.33 57.401 472.192 57.401 469.053 57.401 466.764 59.933 466.764 62.949 466.764 65.965 469.053 68.497 472.192 68.497M483.711 70.036L483.711 60.681C483.711 57.502 485.612 55.621 488.407 55.621 491.02 55.621 492.779 57.463 492.779 59.649 492.779 61.007 492.315 62.1 491.141 62.807 492.354 63.294 493.022 64.023 493.022 66.089L493.022 70.036 491.121 70.036 491.121 66.148C491.121 64.753 490.313 63.841 488.55 63.841L486.442 63.841 486.442 62.058 487.941 62.058C489.623 62.058 490.878 61.29 490.878 59.71 490.878 58.313 489.702 57.402 488.407 57.402 486.767 57.402 485.612 58.497 485.612 60.135L485.612 70.036 483.711 70.036"/>
    <polygon fill="#8A8B8A" points="497.882 70.035 499.785 70.035 499.785 55.863 497.882 55.863"/>
    <path fill="#8A8B8A" d="M504.908 70.036L504.908 55.864 508.491 55.864C512.499 55.864 515.437 59.143 515.437 62.95 515.437 66.757 512.499 70.036 508.491 70.036L507.622 70.036 507.622 68.253 508.653 68.253C511.306 68.253 513.45 65.946 513.45 62.95 513.45 59.831 511.163 57.645 507.963 57.645L506.811 57.645 506.811 70.036 504.908 70.036M519.504 70.036L519.504 61.046C519.504 57.687 521.592 55.621 524.343 55.621 527.096 55.621 529.184 57.687 529.184 61.046L529.184 70.036 527.28 70.036 527.28 63.598 522.176 63.598 522.176 61.815 527.28 61.815 527.28 60.924C527.28 58.696 526.087 57.402 524.343 57.402 522.601 57.402 521.408 58.696 521.408 60.924L521.408 70.036 519.504 70.036"/>
    <path fill="#D9222A" d="M190.656,73.623 L190.656,51.997 L119.909,51.997 C106.607,51.997 94.388,56.754 94.388,72.758 C94.388,88.872 117.313,97.415 117.313,102.499 C117.313,105.416 115.475,106.065 108.554,106.065 L94.171,106.065 L94.171,127.693 L116.988,127.693 C134.94,127.693 144.563,118.827 144.563,106.716 C144.563,89.086 120.341,80.654 120.341,75.895 C120.341,74.863 120.751,74.148 122.075,73.711 L145.454,73.711 L145.454,73.623 L154.537,73.623 L154.537,127.691 L178.112,127.691 L178.112,73.623 L190.656,73.623"/>
    <path fill="#6F8F9D" d="M525.082 126.8C523.245 126.8 521.734 125.324 521.734 123.453 521.734 121.584 523.245 120.105 525.082 120.105 526.922 120.105 528.43 121.584 528.43 123.453 528.43 125.324 526.922 126.8 525.082 126.8M521.185 108.038L521.185 110.943C521.185 112.756 522.278 114.163 524.552 114.163 526.829 114.163 527.922 112.756 527.922 110.943L527.922 108.038 531.031 108.038 531.031 111.535C531.031 115.013 528.106 117.531 524.552 117.531 520.998 117.531 518.076 115.013 518.076 111.535L518.076 108.038 521.185 108.038M531.254 100.141C531.254 103.825 528.181 106.729 524.554 106.729 520.926 106.729 517.854 103.825 517.854 100.141 517.854 96.457 520.926 93.554 524.554 93.554 528.181 93.554 531.254 96.457 531.254 100.141M521.15 100.141C521.15 102.03 522.702 103.474 524.554 103.474 526.406 103.474 527.961 102.03 527.961 100.141 527.961 98.253 526.406 96.808 524.554 96.808 522.702 96.808 521.15 98.253 521.15 100.141M531.033 91.64L520.67 90.603C518.782 90.419 517.856 89.992 517.856 88.069 517.856 86.809 518.595 85.996 520.223 85.755L526.462 84.81 526.462 84.719 520.223 83.773C518.595 83.535 517.856 82.72 517.856 81.46 517.856 79.536 518.782 79.109 520.67 78.925L531.033 77.888 531.033 80.961 520.484 81.536 520.484 81.573 520.778 81.573 529.588 83.164C530.588 83.348 531.253 83.977 531.253 84.775 531.253 85.569 530.588 86.2 529.588 86.384L520.778 87.975 520.778 88.012 531.033 88.567 531.033 91.64"/>
    <path fill="#3A3B39" d="M157.866 142.197C159.136 142.197 159.818 141.488 159.818 140.418 159.818 139.36 159.136 138.639 157.866 138.639L156.622 138.639 156.622 142.197 157.866 142.197 157.866 142.197zM155.299 137.528L157.999 137.528C159.898 137.528 161.169 138.665 161.169 140.418 161.169 142.171 159.872 143.305 157.999 143.305L156.622 143.305 156.622 146.915 155.299 146.915 155.299 137.528 155.299 137.528zM167.152 143.346L166.256 141.033C166.123 140.685 165.547 139.24 165.534 139.12L165.508 139.12C165.495 139.24 164.933 140.644 164.785 141.033L163.877 143.346 167.152 143.346 167.152 143.346zM164.946 137.528L166.123 137.528 169.974 146.915 168.556 146.915 167.594 144.456 163.436 144.456 162.473 146.915 161.082 146.915C161.082 146.915 164.478 138.68 164.946 137.528L164.946 137.528zM173.885 142.009C175.115 142.009 175.811 141.353 175.811 140.324 175.811 139.296 175.115 138.639 173.885 138.639L172.641 138.639 172.641 142.009 173.885 142.009 173.885 142.009zM171.318 137.528L174.032 137.528C175.783 137.528 177.147 138.44 177.147 140.31 177.147 141.769 176.184 142.73 174.767 142.959L177.642 146.915 176.09 146.915 173.377 143.091 172.641 143.091 172.641 146.915 171.318 146.915 171.318 137.528 171.318 137.528z"/>
    <polyline fill="#3A3B39" points="180.818 138.665 178.143 138.665 178.143 137.528 184.815 137.528 184.815 138.665 182.141 138.665 182.141 146.915 180.818 146.915 180.818 138.665"/>
    <path fill="#3A3B39" d="M196.75,142.223 C196.75,140.043 195.24,138.534 193.168,138.534 C191.122,138.534 189.597,140.043 189.597,142.223 C189.597,144.404 191.122,145.913 193.168,145.913 C195.24,145.913 196.75,144.404 196.75,142.223 L196.75,142.223 Z M188.247,142.223 C188.247,139.589 190.158,137.344 193.181,137.344 C196.202,137.344 198.115,139.589 198.115,142.223 C198.115,144.858 196.202,147.103 193.181,147.103 C190.158,147.103 188.247,144.858 188.247,142.223 L188.247,142.223 Z"/>
    <polyline fill="#3A3B39" points="200.02 137.528 204.753 137.528 204.753 138.665 201.343 138.665 201.343 141.687 204.646 141.687 204.646 142.824 201.343 142.824 201.343 146.915 200.02 146.915 200.02 137.528"/>
    <polyline fill="#3A3B39" points="210.739 138.665 208.064 138.665 208.064 137.528 214.736 137.528 214.736 138.665 212.062 138.665 212.062 146.915 210.739 146.915 210.739 138.665"/>
    <polyline fill="#3A3B39" points="216.125 137.528 217.449 137.528 217.449 141.379 222.369 141.379 222.369 137.528 223.694 137.528 223.694 146.915 222.369 146.915 222.369 142.516 217.449 142.516 217.449 146.915 216.125 146.915 216.125 137.528"/>
    <polyline fill="#3A3B39" points="226.132 137.528 231.24 137.528 231.24 138.654 227.455 138.654 227.455 141.379 231.132 141.379 231.132 142.505 227.455 142.505 227.455 145.793 231.32 145.793 231.32 146.915 226.132 146.915 226.132 137.528"/>
    <path fill="#3A3B39" d="M235.757 143.68L235.757 137.528 237.093 137.528 237.093 143.278C237.093 144.911 237.789 145.913 239.353 145.913 240.931 145.913 241.627 144.911 241.627 143.278L241.627 137.528 242.963 137.528 242.963 143.68C242.963 145.74 241.64 147.103 239.353 147.103 237.053 147.103 235.757 145.74 235.757 143.68M244.345 145.218L245.242 144.456C245.696 145.204 246.419 145.939 247.595 145.939 248.624 145.939 249.427 145.38 249.427 144.348 249.427 143.24 248.504 142.865 247.353 142.411 246.177 141.942 244.987 141.353 244.987 139.855 244.987 138.372 246.137 137.344 247.822 137.344 249.159 137.344 250.041 137.956 250.577 138.759L249.68 139.521C249.32 138.961 248.718 138.504 247.822 138.504 246.912 138.504 246.311 138.973 246.311 139.761 246.311 140.738 247.246 141.06 248.063 141.379 249.386 141.901 250.75 142.531 250.75 144.254 250.75 145.887 249.547 147.103 247.621 147.103 246.017 147.103 244.947 146.262 244.345 145.218M257.526 143.346L256.631 141.033C256.497 140.685 255.921 139.24 255.908 139.12L255.882 139.12C255.869 139.24 255.307 140.644 255.159 141.033L254.251 143.346 257.526 143.346 257.526 143.346zM255.32 137.528L256.497 137.528 260.348 146.915 258.93 146.915 257.968 144.456 253.81 144.456 252.847 146.915 251.456 146.915C251.456 146.915 254.852 138.68 255.32 137.528L255.32 137.528z"/>
    <polyline fill="#3A3B39" points="265.936 138.665 263.261 138.665 263.261 137.528 269.933 137.528 269.933 138.665 267.259 138.665 267.259 146.915 265.936 146.915 265.936 138.665"/>
    <path fill="#3A3B39" d="M278.933 142.223C278.933 140.043 277.422 138.534 275.35 138.534 273.305 138.534 271.779 140.043 271.779 142.223 271.779 144.404 273.305 145.913 275.35 145.913 277.422 145.913 278.933 144.404 278.933 142.223L278.933 142.223zM270.43 142.223C270.43 139.589 272.34 137.344 275.364 137.344 278.385 137.344 280.297 139.589 280.297 142.223 280.297 144.858 278.385 147.103 275.364 147.103 272.34 147.103 270.43 144.858 270.43 142.223L270.43 142.223zM283.526 145.778L284.756 145.778C286.949 145.778 288.473 144.618 288.473 142.223 288.473 139.829 286.949 138.665 284.756 138.665L283.526 138.665 283.526 145.778 283.526 145.778zM282.202 137.528L284.863 137.528C287.859 137.528 289.837 139.24 289.837 142.223 289.837 145.192 287.844 146.915 284.863 146.915L282.202 146.915 282.202 137.528 282.202 137.528zM296.343 143.346L295.448 141.033C295.314 140.685 294.738 139.24 294.725 139.12L294.699 139.12C294.686 139.24 294.124 140.644 293.976 141.033L293.068 143.346 296.343 143.346 296.343 143.346zM294.138 137.528L295.314 137.528 299.165 146.915 297.747 146.915 296.786 144.456 292.627 144.456 291.664 146.915 290.273 146.915C290.273 146.915 293.669 138.68 294.138 137.528L294.138 137.528zM301.809 143.091L298.613 137.528 300.097 137.528 301.835 140.658C301.916 140.805 302.477 141.837 302.503 141.995L302.516 141.995C302.544 141.837 303.106 140.805 303.186 140.658L304.937 137.528 306.381 137.528 303.186 143.091 303.186 146.915 301.809 146.915 301.809 143.091M310.27 137.528L311.285 137.528 316.607 143.612C316.767 143.788 317.463 144.656 317.531 144.791L317.557 144.776C317.531 144.644 317.531 143.56 317.531 143.319L317.531 137.528 318.814 137.528 318.814 146.915 317.784 146.915 312.462 140.831C312.302 140.658 311.606 139.788 311.54 139.656L311.527 139.668C311.54 139.803 311.553 140.887 311.553 141.127L311.553 146.915 310.27 146.915 310.27 137.528"/>
    <polyline fill="#3A3B39" points="321.252 137.528 326.359 137.528 326.359 138.654 322.576 138.654 322.576 141.379 326.254 141.379 326.254 142.505 322.576 142.505 322.576 145.793 326.44 145.793 326.44 146.915 321.252 146.915 321.252 137.528"/>
    <polyline fill="#3A3B39" points="330.5 138.665 327.826 138.665 327.826 137.528 334.498 137.528 334.498 138.665 331.823 138.665 331.823 146.915 330.5 146.915 330.5 138.665"/>
    <path fill="#3A3B39" d="M335.601 137.528L337.005 137.528 338.931 143.106C338.998 143.319 339.452 144.709 339.465 144.922L339.493 144.922C339.506 144.709 339.974 143.319 340.054 143.106L342.06 137.528 343.117 137.528 345.122 143.106C345.202 143.319 345.67 144.709 345.684 144.922L345.711 144.922C345.737 144.709 346.191 143.319 346.259 143.106L348.171 137.528 349.521 137.528 346.218 146.915 345.202 146.915 343.036 141.06C342.969 140.858 342.595 139.75 342.581 139.536L342.554 139.536C342.541 139.75 342.153 140.858 342.087 141.06L339.934 146.915 338.917 146.915 335.601 137.528M358.616 142.223C358.616 140.043 357.105 138.534 355.033 138.534 352.988 138.534 351.462 140.043 351.462 142.223 351.462 144.404 352.988 145.913 355.033 145.913 357.105 145.913 358.616 144.404 358.616 142.223L358.616 142.223zM350.113 142.223C350.113 139.589 352.023 137.344 355.046 137.344 358.068 137.344 359.98 139.589 359.98 142.223 359.98 144.858 358.068 147.103 355.046 147.103 352.023 147.103 350.113 144.858 350.113 142.223L350.113 142.223zM364.452 142.009C365.682 142.009 366.378 141.353 366.378 140.324 366.378 139.296 365.682 138.639 364.452 138.639L363.208 138.639 363.208 142.009 364.452 142.009 364.452 142.009zM361.885 137.528L364.599 137.528C366.352 137.528 367.714 138.44 367.714 140.31 367.714 141.769 366.752 142.73 365.335 142.959L368.21 146.915 366.658 146.915 363.944 143.091 363.208 143.091 363.208 146.915 361.885 146.915 361.885 137.528 361.885 137.528z"/>
    <polyline fill="#3A3B39" points="369.709 137.528 371.032 137.528 371.032 141.889 374.909 137.528 376.514 137.528 372.49 142.009 376.701 146.915 375.044 146.915 371.032 142.171 371.032 146.915 369.709 146.915 369.709 137.528"/>
  </g>
</svg>
