<svg id="wausaudailyherald" xmlns="http://www.w3.org/2000/svg" xmlns:xlink="http://www.w3.org/1999/xlink" width="749" height="160" viewBox="0 0 749 160">
  <defs>
    <style>
      .cls-1, .cls-2 {
        fill: #000;
        fill-rule: evenodd;
      }

      .cls-1 {
        filter: url(#filter);
      }
    </style>
    <filter id="filter" x="2" y="118.969" width="367.969" height="16" filterUnits="userSpaceOnUse">
      <feFlood result="flood" flood-color="#999"/>
      <feComposite result="composite" operator="in" in2="SourceGraphic"/>
      <feBlend result="blend" in2="SourceGraphic"/>
    </filter>
  </defs>
  <path id="USAT_Network" data-name="USAT Network" class="cls-1" d="M1.989,119.273H6.478c3.156,0,5.268,1.865,5.268,4.741s-2.155,4.735-5.268,4.735H4.188v5.925h-2.2v-15.4Zm4.267,7.659c2.112,0,3.244-1.163,3.244-2.918,0-1.736-1.132-2.919-3.244-2.919H4.188v5.837H6.256Zm11.768-7.659H19.98l6.4,15.4H24.022l-1.6-4.035H15.513l-1.6,4.035H11.6S17.244,121.162,18.024,119.273Zm3.665,9.544L20.2,125.023c-0.221-.572-1.179-2.942-1.2-3.139H18.957c-0.022.2-.955,2.5-1.2,3.139l-1.51,3.794h5.443Zm6.924-9.544h4.51c2.91,0,5.178,1.5,5.178,4.563a4.293,4.293,0,0,1-3.955,4.346l4.778,6.492H36.545l-4.51-6.276H30.812v6.276h-2.2v-15.4Zm4.267,7.351c2.043,0,3.2-1.077,3.2-2.764s-1.157-2.765-3.2-2.765H30.812v5.529H32.88ZM44.4,121.138H39.957v-1.865H51.046v1.865H46.6v13.536H44.4V121.138Zm12.348,5.838a7.862,7.862,0,0,1,8.2-8.006,8.008,8.008,0,1,1,0,16.011A7.861,7.861,0,0,1,56.75,126.976Zm14.133,0a5.946,5.946,0,1,0-5.955,6.053A5.773,5.773,0,0,0,70.882,126.976Zm5.433-7.7h7.867v1.865H78.514V126.1H84v1.865H78.514v6.713h-2.2v-15.4Zm17.815,1.865H89.686v-1.865h11.088v1.865H96.33v13.536h-2.2V121.138Zm8.953-1.865h2.2v6.318h8.178v-6.318h2.2v15.4h-2.2v-7.218h-8.178v7.218h-2.2v-15.4Zm16.631,0h8.49v1.846h-6.29v4.472h6.11v1.846h-6.11v5.395h6.422v1.842h-8.622v-15.4Zm16,10.092V119.273h2.221v9.433c0,2.679,1.157,4.323,3.756,4.323,2.622,0,3.78-1.644,3.78-4.323v-9.433h2.221v10.092c0,3.38-2.2,5.616-6,5.616C137.865,134.981,135.71,132.745,135.71,129.365Zm14.274,2.524,1.491-1.25a4.52,4.52,0,0,0,3.911,2.433c1.709,0,3.044-.918,3.044-2.611,0-1.817-1.534-2.433-3.446-3.178-1.956-.769-3.933-1.736-3.933-4.193,0-2.432,1.912-4.12,4.712-4.12a5.248,5.248,0,0,1,4.579,2.322l-1.491,1.25a3.552,3.552,0,0,0-3.088-1.668c-1.512,0-2.511.769-2.511,2.063,0,1.6,1.554,2.13,2.911,2.654,2.2,0.856,4.466,1.889,4.466,4.716,0,2.679-2,4.674-5.2,4.674A6.064,6.064,0,0,1,149.984,131.889Zm18.241-12.616h1.956l6.4,15.4h-2.357l-1.6-4.035h-6.912l-1.6,4.035H161.8S167.446,121.162,168.225,119.273Zm3.665,9.544-1.487-3.794c-0.222-.572-1.179-2.942-1.2-3.139h-0.044c-0.022.2-.955,2.5-1.2,3.139l-1.51,3.794h5.443Zm13.978-7.679h-4.445v-1.865h11.088v1.865h-4.444v13.536h-2.2V121.138Zm7.469,5.838a8.2,8.2,0,1,1,8.2,8A7.861,7.861,0,0,1,193.337,126.976Zm14.132,0a5.945,5.945,0,1,0-5.954,6.053A5.772,5.772,0,0,0,207.469,126.976Zm5.434-7.7h4.423c4.977,0,8.265,2.808,8.265,7.7,0,4.87-3.312,7.7-8.265,7.7H212.9v-15.4Zm2.2,13.534h2.046c3.643,0,6.176-1.9,6.176-5.831s-2.533-5.838-6.176-5.838H215.1v11.669Zm17.637-13.534H234.7l6.4,15.4h-2.357l-1.6-4.035h-6.912l-1.6,4.035h-2.311S231.96,121.162,232.739,119.273Zm3.666,9.544-1.489-3.794c-0.221-.572-1.178-2.942-1.2-3.139h-0.044c-0.022.2-.955,2.5-1.2,3.139l-1.51,3.794h5.444Zm9.084-.419-5.312-9.125h2.467l2.889,5.135a22.887,22.887,0,0,1,1.11,2.192h0.022a23.153,23.153,0,0,1,1.113-2.192l2.91-5.135h2.4l-5.309,9.125v6.276h-2.289V128.4Zm14.062-9.125h1.687l8.846,9.982c0.266,0.288,1.422,1.711,1.534,1.932l0.044-.023c-0.044-.217-0.044-2-0.044-2.39v-9.5h2.134v15.4h-1.713l-8.845-9.983c-0.265-.283-1.422-1.711-1.532-1.928l-0.021.02c0.021,0.221.043,2,.043,2.394v9.5h-2.133v-15.4Zm18.253,0h8.487v1.846H280v4.472h6.113v1.846H280v5.395h6.422v1.842H277.8v-15.4Zm15.37,1.865h-4.445v-1.865h11.089v1.865h-4.445v13.536h-2.2V121.138Zm8.478-1.865h2.333l3.2,9.15c0.112,0.351.867,2.63,0.889,2.981h0.046a30.445,30.445,0,0,1,.933-2.981l3.334-9.15h1.756l3.332,9.15c0.133,0.351.91,2.63,0.935,2.981h0.044c0.044-.351.8-2.63,0.91-2.981l3.179-9.15h2.243l-5.49,15.4h-1.688l-3.6-9.607a25.578,25.578,0,0,1-.758-2.5h-0.044a25.421,25.421,0,0,1-.776,2.5l-3.578,9.607h-1.69Zm24.118,7.7a8.2,8.2,0,1,1,8.2,8A7.861,7.861,0,0,1,325.77,126.976Zm14.132,0a5.945,5.945,0,1,0-5.955,6.053A5.772,5.772,0,0,0,339.9,126.976Zm5.433-7.7h4.511c2.913,0,5.177,1.5,5.177,4.563a4.293,4.293,0,0,1-3.955,4.346l4.779,6.492h-2.579l-4.511-6.276h-1.222v6.276h-2.2v-15.4Zm4.267,7.351c2.044,0,3.2-1.077,3.2-2.764s-1.156-2.765-3.2-2.765h-2.067v5.529H349.6Zm8.736-7.351h2.2v7.154l6.444-7.154h2.666l-6.687,7.351,7,8.05h-2.754l-6.668-7.785v7.785h-2.2v-15.4Z"/>
  <path class="cls-2" d="M0.02,42.56H6.012L19.891,75.283,34.337,42.56h1.056L49.937,75.283,64.082,42.56h6.058L50.472,87.627H49.391L34.913,55.359,20.444,87.627H19.359Zm120.1,0V87.627h-5.743V79.882a24.947,24.947,0,0,1-8.219,6.668,23.042,23.042,0,0,1-26.383-4.7,23.2,23.2,0,0,1-6.8-16.88,22.786,22.786,0,0,1,6.867-16.652A22.44,22.44,0,0,1,96.354,41.4a21.446,21.446,0,0,1,10.091,2.361,22.934,22.934,0,0,1,7.928,7.083V42.56h5.743ZM96.833,46.992a17.582,17.582,0,0,0-15.526,9.062,18.189,18.189,0,0,0,.021,18.2,17.806,17.806,0,0,0,6.588,6.765,17.276,17.276,0,0,0,8.875,2.42,18.252,18.252,0,0,0,9.062-2.4,16.834,16.834,0,0,0,6.589-6.5,18.475,18.475,0,0,0,2.306-9.228,17.89,17.89,0,0,0-5.175-13.074A17.182,17.182,0,0,0,96.833,46.992Zm33.682-4.432h5.826V63.6q0,7.7.834,10.6a11.818,11.818,0,0,0,4.772,6.545,14.529,14.529,0,0,0,8.4,2.4,14.228,14.228,0,0,0,8.273-2.341,11.972,11.972,0,0,0,4.688-6.15q0.876-2.61.876-11.06V42.56h5.95V64.679q0,9.32-2.185,14.041a16.623,16.623,0,0,1-6.575,7.394,20.842,20.842,0,0,1-11.007,2.672,21.073,21.073,0,0,1-11.049-2.672,16.5,16.5,0,0,1-6.616-7.456q-2.185-4.783-2.185-14.394V42.56Zm73.363,4.929-3.746,3.852q-4.674-4.514-9.137-4.515a6.922,6.922,0,0,0-4.861,1.864,5.744,5.744,0,0,0-2.023,4.349,6.43,6.43,0,0,0,1.667,4.184q1.668,2.03,7.007,4.764,6.506,3.355,8.841,6.462a11.734,11.734,0,0,1,2.293,7.083,12.681,12.681,0,0,1-3.918,9.4,13.4,13.4,0,0,1-9.793,3.853,17.169,17.169,0,0,1-7.482-1.7,16.22,16.22,0,0,1-5.9-4.68l3.662-4.142q4.464,5.013,9.469,5.011a8.555,8.555,0,0,0,5.965-2.236,6.9,6.9,0,0,0,2.461-5.261,6.724,6.724,0,0,0-1.627-4.432q-1.626-1.9-7.339-4.8-6.132-3.149-8.342-6.214a11.668,11.668,0,0,1-2.21-7,11.36,11.36,0,0,1,3.522-8.533,12.3,12.3,0,0,1,8.9-3.4Q197.541,41.4,203.878,47.489Zm53.47-4.929V87.627h-5.742V79.882a24.957,24.957,0,0,1-8.219,6.668A23.043,23.043,0,0,1,217,81.849a23.2,23.2,0,0,1-6.8-16.88,22.788,22.788,0,0,1,6.866-16.652A22.442,22.442,0,0,1,233.586,41.4a21.447,21.447,0,0,1,10.092,2.361,22.934,22.934,0,0,1,7.928,7.083V42.56h5.742Zm-23.283,4.432a17.581,17.581,0,0,0-15.526,9.062,18.188,18.188,0,0,0,.021,18.2,17.8,17.8,0,0,0,6.589,6.765,17.272,17.272,0,0,0,8.874,2.42,18.256,18.256,0,0,0,9.062-2.4,16.825,16.825,0,0,0,6.588-6.5,18.476,18.476,0,0,0,2.307-9.228,17.89,17.89,0,0,0-5.175-13.074A17.182,17.182,0,0,0,234.065,46.992Zm33.683-4.432h5.826V63.6q0,7.7.833,10.6a11.824,11.824,0,0,0,4.773,6.545,14.529,14.529,0,0,0,8.4,2.4,14.223,14.223,0,0,0,8.272-2.341,11.974,11.974,0,0,0,4.689-6.15q0.875-2.61.875-11.06V42.56h5.951V64.679q0,9.32-2.185,14.041a16.623,16.623,0,0,1-6.575,7.394A20.845,20.845,0,0,1,287.6,88.787a21.07,21.07,0,0,1-11.049-2.672,16.5,16.5,0,0,1-6.616-7.456q-2.185-4.783-2.185-14.394V42.56Zm95.793-17.4V87.627H357.8V79.882a24.934,24.934,0,0,1-8.218,6.668,23.043,23.043,0,0,1-26.384-4.7,23.2,23.2,0,0,1-6.8-16.88,22.785,22.785,0,0,1,6.867-16.652A22.44,22.44,0,0,1,339.779,41.4a21.44,21.44,0,0,1,10.091,2.361,22.913,22.913,0,0,1,7.927,7.083V25.162h5.744Zm-23.284,21.83a17.578,17.578,0,0,0-15.525,9.062,18.188,18.188,0,0,0,.021,18.2,17.8,17.8,0,0,0,6.587,6.765,17.283,17.283,0,0,0,8.875,2.42,18.257,18.257,0,0,0,9.063-2.4,16.845,16.845,0,0,0,6.588-6.5,18.476,18.476,0,0,0,2.307-9.228A17.887,17.887,0,0,0,353,52.247,17.182,17.182,0,0,0,340.257,46.992Zm79.626-4.432V87.627H414.14V79.882a24.954,24.954,0,0,1-8.218,6.668,23.043,23.043,0,0,1-26.384-4.7,23.2,23.2,0,0,1-6.8-16.88A22.784,22.784,0,0,1,379.6,48.317,22.438,22.438,0,0,1,396.12,41.4a21.447,21.447,0,0,1,10.092,2.361,22.942,22.942,0,0,1,7.928,7.083V42.56h5.743ZM396.6,46.992a17.581,17.581,0,0,0-15.526,9.062,18.185,18.185,0,0,0,.02,18.2,17.8,17.8,0,0,0,6.589,6.765,17.278,17.278,0,0,0,8.875,2.42,18.256,18.256,0,0,0,9.062-2.4,16.829,16.829,0,0,0,6.587-6.5,18.476,18.476,0,0,0,2.308-9.228,17.89,17.89,0,0,0-5.175-13.074A17.183,17.183,0,0,0,396.6,46.992ZM433.05,24a4.811,4.811,0,0,1,4.807,4.8,4.787,4.787,0,0,1-9.573,0A4.81,4.81,0,0,1,433.05,24ZM430.158,42.56h5.826V87.627h-5.826V42.56Zm15.1-17.4h5.825V87.627h-5.825V25.162Zm11.107,17.4h6.159l15.561,34.7,15.11-34.7h6.2l-27.008,61.553h-6.155l8.717-19.9Zm48.6-17.4H510.8V50.637a24.722,24.722,0,0,1,7.781-6.939,19.017,19.017,0,0,1,9.2-2.3,16.111,16.111,0,0,1,9.009,2.568,15.335,15.335,0,0,1,5.8,6.9q1.874,4.329,1.874,13.565v23.2h-5.826v-21.5q0-7.788-.625-10.4a10.667,10.667,0,0,0-11.4-8.989,14.4,14.4,0,0,0-9.467,3.479,16.285,16.285,0,0,0-5.514,8.616q-0.833,3.314-.832,12.262V87.627h-5.826V25.162ZM593.1,72.674l4.91,2.568a26.657,26.657,0,0,1-5.581,7.622,22.173,22.173,0,0,1-7.123,4.41,24.95,24.95,0,0,1-8.955,1.512q-11.079,0-17.328-7.228a24.319,24.319,0,0,1-6.249-16.34,24.028,24.028,0,0,1,5.291-15.285q6.705-8.533,17.952-8.533,11.579,0,18.493,8.74,4.916,6.172,5,15.41H558.771a18.307,18.307,0,0,0,5.042,12.873,16.117,16.117,0,0,0,12.041,5.02,19.443,19.443,0,0,0,6.729-1.2,17.7,17.7,0,0,0,5.562-3.178A27.051,27.051,0,0,0,593.1,72.674Zm0-12.137a19.2,19.2,0,0,0-3.4-7.414,16.061,16.061,0,0,0-5.9-4.474,18.133,18.133,0,0,0-7.708-1.7,16.643,16.643,0,0,0-11.458,4.267q-3.5,3.106-5.291,9.32H593.1Zm13.1-17.977h5.952v6.586a20.811,20.811,0,0,1,5.618-5.819,11.109,11.109,0,0,1,6.159-1.926,10.674,10.674,0,0,1,5.161,1.532l-3.039,4.888a8.141,8.141,0,0,0-3.079-.787,8.448,8.448,0,0,0-5.619,2.381,15.043,15.043,0,0,0-4.119,7.394q-1.083,3.852-1.082,15.575V87.627h-5.952V42.56Zm70.992,0V87.627h-5.743V79.882a24.967,24.967,0,0,1-8.219,6.668,23.043,23.043,0,0,1-26.384-4.7,23.206,23.206,0,0,1-6.805-16.88,22.789,22.789,0,0,1,6.867-16.652A22.442,22.442,0,0,1,653.438,41.4a21.443,21.443,0,0,1,10.091,2.361,22.942,22.942,0,0,1,7.928,7.083V42.56H677.2Zm-23.284,4.432a17.578,17.578,0,0,0-15.525,9.062,18.191,18.191,0,0,0,.02,18.2A17.807,17.807,0,0,0,645,81.023a17.278,17.278,0,0,0,8.875,2.42,18.253,18.253,0,0,0,9.062-2.4,16.825,16.825,0,0,0,6.588-6.5,18.476,18.476,0,0,0,2.307-9.228,17.887,17.887,0,0,0-5.176-13.074A17.176,17.176,0,0,0,653.916,46.992Zm33.557-21.829H693.3V87.627h-5.826V25.162Zm61.17,0V87.627H742.9V79.882a24.947,24.947,0,0,1-8.219,6.668,23.043,23.043,0,0,1-26.384-4.7,23.2,23.2,0,0,1-6.8-16.88,22.784,22.784,0,0,1,6.866-16.652A22.438,22.438,0,0,1,724.88,41.4a21.444,21.444,0,0,1,10.092,2.361,22.942,22.942,0,0,1,7.928,7.083V25.162h5.743ZM725.36,46.992a17.581,17.581,0,0,0-15.526,9.062,18.185,18.185,0,0,0,.02,18.2,17.8,17.8,0,0,0,6.589,6.765,17.272,17.272,0,0,0,8.874,2.42,18.25,18.25,0,0,0,9.062-2.4,16.825,16.825,0,0,0,6.588-6.5,18.476,18.476,0,0,0,2.308-9.228A17.887,17.887,0,0,0,738.1,52.247,17.18,17.18,0,0,0,725.36,46.992Zm-103.911,80.1a3.428,3.428,0,1,1-2.432,1A3.318,3.318,0,0,1,621.449,127.089Zm39.742-17.861-3.1,1.92a13.016,13.016,0,0,0-10.973-5.314,12.729,12.729,0,0,0-9.226,3.557,11.584,11.584,0,0,0-3.671,8.642,12.217,12.217,0,0,0,1.69,6.226,11.81,11.81,0,0,0,4.633,4.529,13.52,13.52,0,0,0,6.6,1.612,13.373,13.373,0,0,0,10.944-5.314l3.1,2.03a14.629,14.629,0,0,1-5.856,5.071,18.774,18.774,0,0,1-8.37,1.8A16.579,16.579,0,0,1,635,129.426a14.809,14.809,0,0,1-4.752-11.1,15.8,15.8,0,0,1,2.223-8.164,15.618,15.618,0,0,1,6.107-5.885,17.892,17.892,0,0,1,8.693-2.114,18.653,18.653,0,0,1,5.826.917,16.228,16.228,0,0,1,4.766,2.394A12.989,12.989,0,0,1,661.191,109.228Zm20.6-7.066a15.1,15.1,0,0,1,11.649,5.063,16.2,16.2,0,0,1-.239,22.021,16.128,16.128,0,0,1-22.847,0,16.158,16.158,0,0,1-.238-21.992A15.078,15.078,0,0,1,681.788,102.162Zm-0.014,3.811a11.314,11.314,0,0,0-8.387,3.589,11.969,11.969,0,0,0-3.506,8.68,12.265,12.265,0,0,0,1.6,6.121,11.311,11.311,0,0,0,4.32,4.382,12.329,12.329,0,0,0,11.948,0,11.311,11.311,0,0,0,4.32-4.382,12.266,12.266,0,0,0,1.6-6.121,11.942,11.942,0,0,0-3.521-8.68A11.33,11.33,0,0,0,681.774,105.973Zm21.757-3.032h3.913v5.23a15.147,15.147,0,0,1,4.2-4.229,11.941,11.941,0,0,1,6.241-1.78,10.41,10.41,0,0,1,4.2.863,9.026,9.026,0,0,1,3.247,2.295,12.292,12.292,0,0,1,2.181,4.1,14.407,14.407,0,0,1,4.88-5.41,11.589,11.589,0,0,1,6.3-1.85,9.908,9.908,0,0,1,5.563,1.585,9.467,9.467,0,0,1,3.582,4.424,23.518,23.518,0,0,1,1.172,8.513V133.21h-4V116.684a21.492,21.492,0,0,0-.7-6.69,6.033,6.033,0,0,0-2.381-2.936,7.141,7.141,0,0,0-4.026-1.113,8.786,8.786,0,0,0-5.2,1.67,9.6,9.6,0,0,0-3.44,4.451q-1.086,2.782-1.087,9.292V133.21h-3.913v-15.5q0-5.483-.685-7.442a6.237,6.237,0,0,0-2.388-3.145,6.949,6.949,0,0,0-4.054-1.182,8.773,8.773,0,0,0-5.073,1.628,9.638,9.638,0,0,0-3.493,4.382q-1.134,2.754-1.132,8.43V133.21h-3.913V102.941Z"/>
</svg>
