<svg xmlns="http://www.w3.org/2000/svg" width="449" height="48" viewBox="0 0 449 48">
  <g fill="none" fill-rule="evenodd">
    <polyline fill="#009BFF" class='no-color-change' points="26.727 34.823 21.777 14.933 16.827 34.823 7.962 34.823 .357 4.223 8.457 4.223 13.092 25.103 18.222 4.223 25.377 4.223 30.462 24.968 35.232 4.223 43.197 4.223 35.592 34.823 26.727 34.823"/>
    <path fill="#009BFF" class='no-color-change' d="M51.387 27.398C51.387 28.088 51.642 28.651 52.152 29.085 52.662 29.521 53.322 29.738 54.132 29.738 55.212 29.738 56.119 29.371 56.854 28.635 57.589 27.901 57.957 26.978 57.957 25.868L57.957 25.103C57.147 24.953 56.292 24.878 55.392 24.878 54.251 24.878 53.299 25.074 52.535 25.463 51.769 25.853 51.387 26.498 51.387 27.398zM58.272 34.823L57.867 31.808C56.367 34.209 54.087 35.408 51.027 35.408 49.677 35.408 48.454 35.116 47.36 34.531 46.264 33.946 45.394 33.143 44.749 32.123 44.104 31.103 43.782 29.918 43.782 28.568 43.782 26.019 44.779 24.039 46.775 22.628 48.769 21.218 51.402 20.513 54.672 20.513 55.692 20.513 56.771 20.603 57.912 20.783 57.792 19.643 57.304 18.781 56.449 18.196 55.594 17.611 54.552 17.318 53.322 17.318 52.242 17.318 51.154 17.521 50.06 17.925 48.964 18.331 47.922 18.818 46.932 19.388L44.277 14.348C45.777 13.388 47.397 12.646 49.137 12.121 50.876 11.596 52.617 11.333 54.357 11.333 56.456 11.333 58.347 11.693 60.027 12.413 61.707 13.133 63.027 14.229 63.987 15.698 64.947 17.169 65.427 19.028 65.427 21.278L65.427 34.823 58.272 34.823zM85.542 34.823L85.137 31.808C84.387 32.919 83.404 33.795 82.189 34.44 80.974 35.085 79.662 35.408 78.252 35.408 75.581 35.408 73.542 34.621 72.132 33.045 70.721 31.47 70.017 29.198 70.017 26.228L70.017 11.918 77.847 11.918 77.847 25.328C77.847 27.818 78.987 29.063 81.267 29.063 83.667 29.063 84.867 27.563 84.867 24.563L84.867 11.918 92.697 11.918 92.697 34.823 85.542 34.823M106.691 35.408C104.711 35.408 102.859 35.093 101.134 34.463 99.408 33.833 97.856 32.933 96.476 31.763L99.806 27.353C100.856 28.193 101.989 28.876 103.204 29.4 104.419 29.926 105.611 30.188 106.781 30.188 107.561 30.188 108.183 30.053 108.649 29.783 109.114 29.513 109.346 29.108 109.346 28.568 109.346 27.998 109.083 27.54 108.559 27.196 108.034 26.851 107.096 26.513 105.746 26.183L103.586 25.643C99.296 24.503 97.151 22.208 97.151 18.758 97.151 17.228 97.571 15.908 98.411 14.798 99.251 13.688 100.406 12.833 101.876 12.233 103.346 11.633 105.056 11.333 107.006 11.333 108.926 11.333 110.734 11.633 112.429 12.233 114.123 12.833 115.676 13.703 117.086 14.843L113.666 19.343C112.616 18.503 111.506 17.829 110.336 17.318 109.166 16.808 108.071 16.553 107.051 16.553 105.401 16.553 104.576 17.093 104.576 18.173 104.576 18.653 104.824 19.043 105.319 19.343 105.814 19.643 106.511 19.914 107.411 20.153L110.336 20.963C112.526 21.563 114.146 22.463 115.196 23.663 116.246 24.863 116.771 26.289 116.771 27.938 116.771 29.438 116.351 30.75 115.511 31.875 114.671 33 113.493 33.871 111.979 34.486 110.464 35.1 108.701 35.408 106.691 35.408M127.211 27.398C127.211 28.088 127.466 28.651 127.976 29.085 128.486 29.521 129.146 29.738 129.956 29.738 131.036 29.738 131.943 29.371 132.679 28.635 133.413 27.901 133.781 26.978 133.781 25.868L133.781 25.103C132.971 24.953 132.116 24.878 131.216 24.878 130.076 24.878 129.124 25.074 128.359 25.463 127.594 25.853 127.211 26.498 127.211 27.398zM134.096 34.823L133.691 31.808C132.191 34.209 129.911 35.408 126.851 35.408 125.501 35.408 124.278 35.116 123.184 34.531 122.088 33.946 121.218 33.143 120.574 32.123 119.928 31.103 119.606 29.918 119.606 28.568 119.606 26.019 120.603 24.039 122.599 22.628 124.593 21.218 127.226 20.513 130.496 20.513 131.516 20.513 132.596 20.603 133.736 20.783 133.616 19.643 133.129 18.781 132.274 18.196 131.419 17.611 130.376 17.318 129.146 17.318 128.066 17.318 126.978 17.521 125.884 17.925 124.788 18.331 123.746 18.818 122.756 19.388L120.101 14.348C121.601 13.388 123.221 12.646 124.961 12.121 126.701 11.596 128.441 11.333 130.181 11.333 132.281 11.333 134.171 11.693 135.851 12.413 137.531 13.133 138.851 14.229 139.811 15.698 140.771 17.169 141.251 19.028 141.251 21.278L141.251 34.823 134.096 34.823zM161.366 34.823L160.961 31.808C160.211 32.919 159.229 33.795 158.014 34.44 156.799 35.085 155.486 35.408 154.076 35.408 151.406 35.408 149.366 34.621 147.956 33.045 146.546 31.47 145.841 29.198 145.841 26.228L145.841 11.918 153.671 11.918 153.671 25.328C153.671 27.818 154.811 29.063 157.091 29.063 159.491 29.063 160.691 27.563 160.691 24.563L160.691 11.918 168.521 11.918 168.521 34.823 161.366 34.823"/>
    <path fill="#404040" d="M193.675 28.208L197.5 28.208C199.69 28.208 201.422 27.414 202.698 25.823 203.972 24.233 204.61 22.133 204.61 19.523 204.61 16.913 203.972 14.813 202.698 13.223 201.422 11.633 199.69 10.838 197.5 10.838L193.675 10.838 193.675 28.208zM185.44 34.823L185.44 4.223 197.5 4.223C200.53 4.223 203.207 4.875 205.533 6.18 207.857 7.486 209.68 9.286 211 11.581 212.32 13.875 212.98 16.523 212.98 19.523 212.98 22.523 212.32 25.17 211 27.465 209.68 29.76 207.857 31.561 205.533 32.866 203.207 34.17 200.53 34.823 197.5 34.823L185.44 34.823zM223.51 27.398C223.51 28.088 223.764 28.651 224.275 29.085 224.785 29.521 225.444 29.738 226.255 29.738 227.335 29.738 228.242 29.371 228.977 28.635 229.712 27.901 230.08 26.978 230.08 25.868L230.08 25.103C229.27 24.953 228.415 24.878 227.515 24.878 226.374 24.878 225.422 25.074 224.657 25.463 223.892 25.853 223.51 26.498 223.51 27.398zM230.395 34.823L229.989 31.808C228.489 34.209 226.21 35.408 223.15 35.408 221.8 35.408 220.577 35.116 219.482 34.531 218.387 33.946 217.517 33.143 216.872 32.123 216.227 31.103 215.905 29.918 215.905 28.568 215.905 26.019 216.902 24.039 218.897 22.628 220.892 21.218 223.525 20.513 226.795 20.513 227.814 20.513 228.894 20.603 230.035 20.783 229.914 19.643 229.427 18.781 228.572 18.196 227.717 17.611 226.674 17.318 225.444 17.318 224.365 17.318 223.277 17.521 222.182 17.925 221.087 18.331 220.045 18.818 219.055 19.388L216.4 14.348C217.9 13.388 219.519 12.646 221.26 12.121 222.999 11.596 224.739 11.333 226.48 11.333 228.579 11.333 230.469 11.693 232.15 12.413 233.829 13.133 235.149 14.229 236.109 15.698 237.069 17.169 237.549 19.028 237.549 21.278L237.549 34.823 230.395 34.823zM242.545 34.823L242.545 11.918C243.804 12.188 245.079 12.323 246.37 12.323 247.689 12.323 249.025 12.188 250.375 11.918L250.375 34.823 242.545 34.823"/>
    <polygon fill="#404040" points="255.864 34.823 263.694 34.823 263.694 1.973 255.864 1.973"/>
    <path fill="#404040" d="M285.068,33.023 C283.689,36.562 282.113,39.203 280.344,40.943 C278.573,42.683 276.323,43.553 273.594,43.553 C272.363,43.553 271.254,43.418 270.264,43.148 C269.274,42.878 268.434,42.547 267.744,42.158 L269.949,36.758 C270.368,36.967 270.833,37.147 271.344,37.298 C271.854,37.448 272.394,37.523 272.964,37.523 C273.774,37.523 274.501,37.328 275.146,36.938 C275.791,36.548 276.354,35.842 276.834,34.823 L277.193,34.013 L266.844,11.918 L275.484,11.918 L280.568,25.643 L284.754,11.918 L293.259,11.918 L285.068,33.023"/>
    <polyline fill="#404040" points="307.882 34.823 307.882 4.223 316.253 4.223 316.253 16.013 326.648 16.013 326.648 4.223 335.018 4.223 335.018 34.823 326.648 34.823 326.648 22.853 316.253 22.853 316.253 34.823 307.882 34.823"/>
    <path fill="#404040" d="M351.982 17.003C349.432 17.003 347.902 18.353 347.392 21.053L356.122 21.053C355.912 19.583 355.409 18.54 354.614 17.925 353.819 17.311 352.942 17.003 351.982 17.003zM362.692 32.483C361.551 33.293 360.105 33.983 358.35 34.553 356.594 35.123 354.727 35.408 352.747 35.408 350.017 35.408 347.685 34.905 345.75 33.9 343.815 32.896 342.33 31.493 341.295 29.693 340.259 27.893 339.742 25.823 339.742 23.483 339.742 21.114 340.252 19.013 341.272 17.183 342.292 15.354 343.702 13.92 345.502 12.885 347.302 11.851 349.401 11.333 351.802 11.333 354.142 11.333 356.204 11.836 357.989 12.84 359.774 13.846 361.169 15.241 362.174 17.025 363.179 18.811 363.682 20.903 363.682 23.303 363.682 23.633 363.66 23.978 363.614 24.338 363.569 24.698 363.517 25.074 363.457 25.463L347.482 25.463C348.202 28.103 350.167 29.423 353.377 29.423 354.817 29.423 356.092 29.198 357.202 28.748 358.312 28.298 359.242 27.848 359.992 27.398L362.692 32.483zM375.517 25.958L375.517 34.823 367.687 34.823 367.687 11.918 374.842 11.918 375.337 15.743C375.817 14.513 376.604 13.515 377.7 12.75 378.795 11.986 380.062 11.603 381.502 11.603 382.312 11.603 382.927 11.708 383.347 11.918L383.347 19.073C383.017 18.954 382.65 18.864 382.245 18.803 381.839 18.743 381.382 18.713 380.872 18.713 379.312 18.713 378.029 19.291 377.025 20.446 376.019 21.601 375.517 23.438 375.517 25.958M393.292 27.398C393.292 28.088 393.546 28.651 394.057 29.085 394.567 29.521 395.227 29.738 396.037 29.738 397.117 29.738 398.024 29.371 398.759 28.635 399.494 27.901 399.861 26.978 399.861 25.868L399.861 25.103C399.051 24.953 398.196 24.878 397.297 24.878 396.156 24.878 395.204 25.074 394.439 25.463 393.674 25.853 393.292 26.498 393.292 27.398zM400.176 34.823L399.772 31.808C398.271 34.209 395.992 35.408 392.932 35.408 391.582 35.408 390.359 35.116 389.264 34.531 388.169 33.946 387.299 33.143 386.654 32.123 386.008 31.103 385.687 29.918 385.687 28.568 385.687 26.019 386.684 24.039 388.679 22.628 390.674 21.218 393.306 20.513 396.577 20.513 397.596 20.513 398.676 20.603 399.817 20.783 399.696 19.643 399.209 18.781 398.354 18.196 397.499 17.611 396.456 17.318 395.227 17.318 394.147 17.318 393.059 17.521 391.964 17.925 390.869 18.331 389.827 18.818 388.837 19.388L386.182 14.348C387.681 13.388 389.301 12.646 391.042 12.121 392.781 11.596 394.521 11.333 396.261 11.333 398.361 11.333 400.251 11.693 401.932 12.413 403.611 13.133 404.931 14.229 405.892 15.698 406.851 17.169 407.332 19.028 407.332 21.278L407.332 34.823 400.176 34.823z"/>
    <polygon fill="#404040" points="412.327 34.823 420.156 34.823 420.156 1.973 412.327 1.973"/>
    <path fill="#404040" d="M436.761,29.198 C438.111,29.198 439.198,28.665 440.024,27.601 C440.848,26.536 441.261,25.119 441.261,23.348 C441.261,21.578 440.848,20.161 440.024,19.095 C439.198,18.031 438.111,17.498 436.761,17.498 C435.381,17.498 434.278,18.031 433.454,19.095 C432.628,20.161 432.216,21.578 432.216,23.348 C432.216,25.119 432.628,26.536 433.454,27.601 C434.278,28.665 435.381,29.198 436.761,29.198 Z M441.801,34.823 L441.396,31.808 C440.676,32.919 439.746,33.795 438.606,34.44 C437.465,35.085 436.146,35.408 434.646,35.408 C432.576,35.408 430.76,34.897 429.201,33.878 C427.641,32.858 426.426,31.441 425.556,29.625 C424.686,27.811 424.251,25.718 424.251,23.348 C424.251,20.979 424.686,18.893 425.556,17.093 C426.426,15.293 427.618,13.883 429.133,12.863 C430.648,11.843 432.396,11.333 434.376,11.333 C435.755,11.333 437.031,11.625 438.201,12.211 C439.371,12.795 440.345,13.583 441.126,14.573 L441.126,1.973 L448.956,1.973 L448.956,34.823 L441.801,34.823 Z"/>
    <path fill="#009BFF" class='no-color-change' d="M246.37,10.118 C245.079,10.118 243.977,9.661 243.062,8.746 C242.147,7.831 241.69,6.728 241.69,5.438 C241.69,4.148 242.147,3.046 243.062,2.13 C243.977,1.216 245.079,0.758 246.37,0.758 C247.659,0.758 248.761,1.216 249.677,2.13 C250.592,3.046 251.049,4.148 251.049,5.438 C251.049,6.728 250.592,7.831 249.677,8.746 C248.761,9.661 247.659,10.118 246.37,10.118"/>
    <path fill="#404040" d="M8.834 44.412L10.009 44.412C10.395 44.412 10.701 44.317 10.925 44.128 11.15 43.938 11.262 43.679 11.262 43.352 11.262 43.024 11.15 42.765 10.925 42.576 10.701 42.385 10.395 42.291 10.009 42.291L8.834 42.291 8.834 44.412zM7.961 47.423L7.961 41.558 10.009 41.558C10.666 41.558 11.188 41.719 11.574 42.041 11.96 42.363 12.153 42.8 12.153 43.352 12.153 43.898 11.96 44.33 11.574 44.65 11.188 44.969 10.666 45.129 10.009 45.129L8.834 45.129 8.834 47.423 7.961 47.423zM13.916 45.215L16.059 45.215 14.987 42.463 13.916 45.215zM16.915 47.423L16.344 45.948 13.63 45.948 13.06 47.423 12.179 47.423 14.529 41.558 15.471 41.558 17.814 47.423 16.915 47.423zM19.663 44.326L20.865 44.326C21.239 44.326 21.537 44.235 21.759 44.05 21.981 43.866 22.092 43.619 22.092 43.308 22.092 42.998 21.981 42.751 21.759 42.566 21.537 42.383 21.239 42.291 20.865 42.291L19.663 42.291 19.663 44.326zM19.663 45.042L19.663 47.423 18.79 47.423 18.79 41.558 20.865 41.558C21.516 41.558 22.031 41.714 22.412 42.027 22.792 42.341 22.982 42.768 22.982 43.308 22.982 43.717 22.867 44.062 22.636 44.344 22.406 44.625 22.089 44.824 21.686 44.938L23.112 47.423 22.118 47.423 20.778 45.042 19.663 45.042z"/>
    <polyline fill="#404040" points="25.488 47.423 25.488 42.291 23.509 42.291 23.509 41.558 28.34 41.558 28.34 42.291 26.361 42.291 26.361 47.423 25.488 47.423"/>
    <path fill="#404040" d="M33.949,46.758 C34.33,46.758 34.668,46.662 34.965,46.47 C35.261,46.277 35.493,46.011 35.661,45.672 C35.827,45.333 35.911,44.938 35.911,44.49 C35.911,44.041 35.827,43.648 35.661,43.308 C35.493,42.969 35.261,42.703 34.965,42.511 C34.668,42.318 34.33,42.222 33.949,42.222 C33.569,42.222 33.232,42.318 32.938,42.511 C32.644,42.703 32.414,42.969 32.247,43.308 C32.08,43.648 31.996,44.041 31.996,44.49 C31.996,44.938 32.08,45.333 32.247,45.672 C32.414,46.011 32.644,46.277 32.938,46.47 C33.232,46.662 33.569,46.758 33.949,46.758 Z M33.949,47.518 C33.396,47.518 32.907,47.388 32.48,47.129 C32.054,46.87 31.718,46.514 31.473,46.06 C31.228,45.606 31.106,45.082 31.106,44.49 C31.106,43.898 31.228,43.375 31.473,42.921 C31.718,42.466 32.054,42.109 32.48,41.851 C32.907,41.592 33.396,41.463 33.949,41.463 C34.503,41.463 34.994,41.592 35.423,41.851 C35.852,42.109 36.189,42.466 36.434,42.921 C36.679,43.375 36.801,43.898 36.801,44.49 C36.801,45.082 36.679,45.606 36.434,46.06 C36.189,46.514 35.852,46.87 35.423,47.129 C34.994,47.388 34.503,47.518 33.949,47.518 Z"/>
    <polyline fill="#404040" points="38.902 47.423 38.029 47.423 38.029 41.558 41.685 41.558 41.685 42.291 38.902 42.291 38.902 44.275 41.261 44.275 41.261 45.007 38.902 45.007 38.902 47.423"/>
    <polyline fill="#404040" points="46.239 47.423 46.239 42.291 44.26 42.291 44.26 41.558 49.091 41.558 49.091 42.291 47.112 42.291 47.112 47.423 46.239 47.423"/>
    <polyline fill="#404040" points="50.094 47.423 50.094 41.558 50.967 41.558 50.967 44.067 54 44.067 54 41.558 54.873 41.558 54.873 47.423 54 47.423 54 44.818 50.967 44.818 50.967 47.423 50.094 47.423"/>
    <polyline fill="#404040" points="56.411 47.423 56.411 41.558 60.18 41.558 60.18 42.291 57.284 42.291 57.284 44.102 59.834 44.102 59.834 44.835 57.284 44.835 57.284 46.689 60.249 46.689 60.249 47.423 56.411 47.423"/>
    <path fill="#404040" d="M65.763 46.758C66.241 46.758 66.617 46.615 66.89 46.327 67.164 46.04 67.301 45.652 67.301 45.163L67.301 41.558 68.174 41.558 68.174 45.171C68.174 45.902 67.959 46.475 67.53 46.892 67.101 47.309 66.512 47.518 65.763 47.518 65.014 47.518 64.426 47.309 64 46.892 63.573 46.475 63.36 45.902 63.36 45.171L63.36 41.558 64.233 41.558 64.233 45.163C64.233 45.652 64.37 46.04 64.643 46.327 64.917 46.615 65.29 46.758 65.763 46.758M71.432 47.518C70.988 47.518 70.565 47.44 70.162 47.285 69.758 47.129 69.433 46.922 69.185 46.664L69.678 46.086C69.908 46.299 70.18 46.465 70.495 46.586 70.808 46.707 71.121 46.767 71.432 46.767 71.812 46.767 72.119 46.694 72.353 46.547 72.586 46.4 72.703 46.198 72.703 45.939 72.703 45.703 72.619 45.505 72.452 45.344 72.285 45.183 72 45.048 71.596 44.938L70.784 44.723C70.259 44.585 69.878 44.389 69.639 44.136 69.4 43.883 69.28 43.553 69.28 43.145 69.28 42.811 69.369 42.518 69.548 42.265 69.727 42.012 69.973 41.815 70.287 41.674 70.601 41.533 70.957 41.463 71.354 41.463 71.775 41.463 72.17 41.542 72.538 41.7 72.907 41.858 73.233 42.078 73.515 42.36L72.988 42.929C72.74 42.699 72.482 42.522 72.214 42.398 71.947 42.275 71.663 42.213 71.363 42.213 71 42.213 70.703 42.289 70.473 42.442 70.242 42.594 70.127 42.805 70.127 43.075 70.127 43.323 70.209 43.515 70.373 43.654 70.538 43.792 70.79 43.907 71.13 43.999L72.037 44.249C72.561 44.392 72.945 44.593 73.187 44.853 73.429 45.111 73.55 45.433 73.55 45.819 73.55 46.158 73.46 46.455 73.282 46.711 73.103 46.967 72.855 47.165 72.538 47.306 72.221 47.447 71.853 47.518 71.432 47.518M75.745 45.215L77.888 45.215 76.817 42.463 75.745 45.215zM78.744 47.423L78.174 45.948 75.46 45.948 74.889 47.423 74.008 47.423 76.359 41.558 77.301 41.558 79.643 47.423 78.744 47.423z"/>
    <polyline fill="#404040" points="83.705 47.423 83.705 42.291 81.725 42.291 81.725 41.558 86.557 41.558 86.557 42.291 84.578 42.291 84.578 47.423 83.705 47.423"/>
    <path fill="#404040" d="M89.703 46.758C90.083 46.758 90.422 46.662 90.718 46.47 91.015 46.277 91.247 46.011 91.414 45.672 91.581 45.333 91.665 44.938 91.665 44.49 91.665 44.041 91.581 43.648 91.414 43.308 91.247 42.969 91.015 42.703 90.718 42.511 90.422 42.318 90.083 42.222 89.703 42.222 89.323 42.222 88.985 42.318 88.692 42.511 88.398 42.703 88.167 42.969 88 43.308 87.833 43.648 87.749 44.041 87.749 44.49 87.749 44.938 87.833 45.333 88 45.672 88.167 46.011 88.398 46.277 88.692 46.47 88.985 46.662 89.323 46.758 89.703 46.758zM89.703 47.518C89.15 47.518 88.66 47.388 88.233 47.129 87.807 46.87 87.472 46.514 87.227 46.06 86.982 45.606 86.859 45.082 86.859 44.49 86.859 43.898 86.982 43.375 87.227 42.921 87.472 42.466 87.807 42.109 88.233 41.851 88.66 41.592 89.15 41.463 89.703 41.463 90.256 41.463 90.747 41.592 91.176 41.851 91.605 42.109 91.943 42.466 92.188 42.921 92.432 43.375 92.555 43.898 92.555 44.49 92.555 45.082 92.432 45.606 92.188 46.06 91.943 46.514 91.605 46.87 91.176 47.129 90.747 47.388 90.256 47.518 89.703 47.518zM94.655 46.689L95.848 46.689C96.262 46.689 96.618 46.599 96.915 46.418 97.212 46.237 97.439 45.982 97.598 45.655 97.756 45.327 97.836 44.938 97.836 44.49 97.836 44.041 97.756 43.654 97.598 43.326 97.439 42.998 97.212 42.743 96.915 42.563 96.618 42.381 96.262 42.291 95.848 42.291L94.655 42.291 94.655 46.689zM93.782 47.423L93.782 41.558 95.848 41.558C96.424 41.558 96.928 41.68 97.36 41.924 97.792 42.169 98.128 42.511 98.367 42.951 98.606 43.39 98.726 43.904 98.726 44.49 98.726 45.077 98.606 45.59 98.367 46.03 98.128 46.47 97.792 46.812 97.36 47.056 96.928 47.3 96.424 47.423 95.848 47.423L93.782 47.423zM100.955 45.215L103.099 45.215 102.027 42.463 100.955 45.215zM103.955 47.423L103.384 45.948 100.67 45.948 100.1 47.423 99.218 47.423 101.569 41.558 102.511 41.558 104.853 47.423 103.955 47.423z"/>
    <polyline fill="#404040" points="107.533 45.094 107.533 47.423 106.66 47.423 106.66 45.094 104.594 41.558 105.623 41.558 107.101 44.266 108.578 41.558 109.59 41.558 107.533 45.094"/>
    <polyline fill="#404040" points="116.573 47.423 113.435 42.929 113.435 47.423 112.614 47.423 112.614 41.558 113.427 41.558 116.573 46.051 116.573 41.558 117.385 41.558 117.385 47.423 116.573 47.423"/>
    <polyline fill="#404040" points="118.924 47.423 118.924 41.558 122.692 41.558 122.692 42.291 119.797 42.291 119.797 44.102 122.346 44.102 122.346 44.835 119.797 44.835 119.797 46.689 122.761 46.689 122.761 47.423 118.924 47.423"/>
    <polyline fill="#404040" points="125.354 47.423 125.354 42.291 123.374 42.291 123.374 41.558 128.206 41.558 128.206 42.291 126.227 42.291 126.227 47.423 125.354 47.423"/>
    <polyline fill="#404040" points="133.91 47.423 132.536 42.748 131.161 47.423 130.254 47.423 128.69 41.558 129.554 41.558 130.747 46.198 132.121 41.558 132.951 41.558 134.333 46.215 135.535 41.558 136.382 41.558 134.817 47.423 133.91 47.423"/>
    <path fill="#404040" d="M139.848 46.758C140.228 46.758 140.566 46.662 140.863 46.47 141.16 46.277 141.392 46.011 141.559 45.672 141.726 45.333 141.809 44.938 141.809 44.49 141.809 44.041 141.726 43.648 141.559 43.308 141.392 42.969 141.16 42.703 140.863 42.511 140.566 42.318 140.228 42.222 139.848 42.222 139.467 42.222 139.13 42.318 138.836 42.511 138.542 42.703 138.312 42.969 138.145 43.308 137.978 43.648 137.894 44.041 137.894 44.49 137.894 44.938 137.978 45.333 138.145 45.672 138.312 46.011 138.542 46.277 138.836 46.47 139.13 46.662 139.467 46.758 139.848 46.758zM139.848 47.518C139.295 47.518 138.805 47.388 138.378 47.129 137.952 46.87 137.616 46.514 137.371 46.06 137.127 45.606 137.004 45.082 137.004 44.49 137.004 43.898 137.127 43.375 137.371 42.921 137.616 42.466 137.952 42.109 138.378 41.851 138.805 41.592 139.295 41.463 139.848 41.463 140.401 41.463 140.892 41.592 141.321 41.851 141.75 42.109 142.087 42.466 142.332 42.921 142.577 43.375 142.7 43.898 142.7 44.49 142.7 45.082 142.577 45.606 142.332 46.06 142.087 46.514 141.75 46.87 141.321 47.129 140.892 47.388 140.401 47.518 139.848 47.518zM144.8 44.326L146.001 44.326C146.375 44.326 146.674 44.235 146.895 44.05 147.117 43.866 147.228 43.619 147.228 43.308 147.228 42.998 147.117 42.751 146.895 42.566 146.674 42.383 146.375 42.291 146.001 42.291L144.8 42.291 144.8 44.326zM144.8 45.042L144.8 47.423 143.927 47.423 143.927 41.558 146.001 41.558C146.652 41.558 147.168 41.714 147.548 42.027 147.928 42.341 148.118 42.768 148.118 43.308 148.118 43.717 148.003 44.062 147.773 44.344 147.542 44.625 147.225 44.824 146.822 44.938L148.248 47.423 147.254 47.423 145.915 45.042 144.8 45.042z"/>
    <polyline fill="#404040" points="152.863 47.423 150.227 44.464 150.227 47.423 149.354 47.423 149.354 41.558 150.227 41.558 150.227 44.128 152.69 41.558 153.771 41.558 151.152 44.249 153.961 47.423 152.863 47.423"/>
  </g>
</svg>
