<svg xmlns="http://www.w3.org/2000/svg" xmlns:xlink="http://www.w3.org/1999/xlink" preserveAspectRatio="xMidYMid" width="298" height="60" viewBox="0 0 298 60">
  <path d="M289.023,41.499 C287.372,41.499 285.486,41.438 283.306,41.438 C282.303,41.438 281.097,41.499 279.819,41.499 C279.414,41.499 279.318,41.351 279.318,41.110 C279.318,40.269 281.475,41.438 281.475,39.043 L281.475,23.531 C281.475,21.136 279.318,22.301 279.318,21.463 C279.318,21.226 279.414,21.074 279.819,21.074 C281.097,21.074 282.303,21.136 283.306,21.136 C284.753,21.136 285.986,21.074 287.562,21.074 C293.613,21.074 297.004,25.744 297.004,31.315 C297.004,37.722 293.742,41.499 289.023,41.499 ZM287.291,21.793 L285.129,21.793 L285.129,37.752 C285.129,39.914 286.236,40.776 288.095,40.776 C291.057,40.776 293.185,37.871 293.185,31.732 C293.185,25.259 290.906,21.793 287.291,21.793 ZM279.367,34.845 L278.261,41.499 C275.625,41.466 272.288,41.438 268.807,41.438 C267.799,41.438 266.597,41.499 265.317,41.499 C264.914,41.499 264.812,41.351 264.812,41.110 C264.812,40.269 266.976,41.438 266.976,39.043 L266.976,23.526 C266.976,21.136 264.812,22.301 264.812,21.463 C264.812,21.226 264.914,21.074 265.317,21.074 C266.597,21.074 267.799,21.136 268.807,21.136 C269.807,21.136 271.011,21.074 272.288,21.074 C272.693,21.074 272.789,21.226 272.789,21.463 C272.789,22.301 270.638,21.136 270.638,23.526 L270.638,38.680 C270.638,40.058 271.085,40.776 272.693,40.776 C275.652,40.776 277.885,37.965 278.813,34.490 C278.966,33.920 278.988,33.648 279.218,33.648 C279.393,33.648 279.464,33.800 279.464,33.981 C279.464,34.164 279.419,34.519 279.367,34.845 ZM260.084,41.438 C258.877,41.438 257.677,41.499 256.540,41.499 C256.320,41.499 256.242,41.379 256.242,41.201 C256.242,40.612 258.001,41.263 258.001,39.621 C258.001,38.659 257.549,37.846 256.191,33.768 L250.469,33.768 C249.998,35.385 249.424,36.735 249.424,38.237 C249.424,40.933 251.497,40.756 251.497,41.263 C251.497,41.408 251.454,41.499 251.273,41.499 C250.373,41.499 249.397,41.438 248.416,41.438 C247.435,41.438 246.458,41.499 245.480,41.499 C245.281,41.499 245.209,41.408 245.209,41.230 C245.209,41.026 245.302,40.933 245.733,40.818 C247.414,40.373 248.565,37.817 249.471,34.994 L252.655,25.152 C252.757,24.821 252.828,24.616 252.828,24.285 C252.828,23.658 252.079,23.505 252.079,23.269 C252.079,23.030 252.576,23.001 253.742,21.590 C254.862,20.212 254.789,19.832 255.015,19.832 C255.141,19.832 255.265,20.183 255.389,20.575 L261.741,39.014 C262.568,41.408 263.871,40.728 263.871,41.263 C263.871,41.408 263.800,41.499 263.618,41.499 C262.460,41.499 261.255,41.438 260.084,41.438 ZM253.182,25.181 L250.631,33.239 L255.947,33.239 L253.182,25.181 ZM244.217,41.499 C243.313,41.499 242.415,41.438 241.509,41.438 L238.794,41.438 L235.767,33.871 C235.159,32.367 233.977,31.860 232.523,31.860 L232.523,39.043 C232.523,41.438 234.683,40.278 234.683,41.110 C234.683,41.351 234.583,41.499 234.180,41.499 C232.902,41.499 231.696,41.438 230.696,41.438 C229.691,41.438 228.487,41.499 227.207,41.499 C226.804,41.499 226.704,41.351 226.704,41.110 C226.704,40.278 228.868,41.438 228.868,39.043 L228.868,23.534 C228.868,21.136 226.704,22.301 226.704,21.463 C226.704,21.226 226.804,21.074 227.207,21.074 C228.487,21.074 229.691,21.136 230.696,21.136 C231.943,21.136 233.022,21.074 234.683,21.074 C238.980,21.074 241.255,23.352 241.255,26.412 C241.255,28.933 239.952,31.035 234.779,31.687 L234.779,31.746 C237.472,31.746 238.928,32.525 239.905,34.770 L241.780,39.110 C242.810,41.466 244.467,40.330 244.467,41.169 C244.467,41.351 244.441,41.499 244.217,41.499 ZM237.596,26.478 C237.596,23.171 236.240,21.793 234.107,21.793 L232.523,21.793 L232.523,31.332 L233.504,31.332 C236.345,31.332 237.596,29.652 237.596,26.478 ZM224.868,41.499 C221.554,41.466 218.221,41.438 214.729,41.438 C213.730,41.438 212.532,41.499 211.250,41.499 C210.845,41.499 210.745,41.351 210.745,41.110 C210.745,40.278 212.903,41.438 212.903,39.043 L212.903,23.534 C212.903,21.136 210.745,22.301 210.745,21.463 C210.745,21.226 210.845,21.074 211.250,21.074 C212.532,21.074 213.730,21.136 214.729,21.136 C217.846,21.136 220.799,21.111 223.763,21.074 L225.024,26.800 C225.120,27.249 225.171,27.493 225.171,27.579 C225.171,27.727 225.096,27.819 224.924,27.819 C224.691,27.819 224.720,27.311 223.740,25.358 C222.561,23.023 220.932,21.793 217.918,21.793 L216.563,21.793 L216.563,30.428 L217.187,30.428 C218.950,30.428 220.228,28.868 220.330,26.709 C220.358,26.114 220.426,25.962 220.680,25.962 C220.827,25.962 220.932,26.114 220.932,26.378 L220.932,35.547 C220.932,35.814 220.827,35.963 220.680,35.963 C220.426,35.963 220.358,35.814 220.330,35.215 C220.228,32.554 218.950,31.146 217.187,31.146 L216.563,31.146 L216.563,38.684 C216.563,40.062 217.017,40.776 218.618,40.776 C222.537,40.776 224.642,37.458 225.423,34.497 C225.570,33.927 225.595,33.659 225.829,33.659 C225.996,33.659 226.075,33.805 226.075,33.991 C226.075,34.169 226.024,34.528 225.974,34.856 L224.868,41.499 ZM209.636,41.028 C209.636,41.318 209.515,41.499 209.029,41.499 C207.498,41.499 206.051,41.438 204.849,41.438 C203.644,41.438 202.205,41.499 200.665,41.499 C200.189,41.499 200.062,41.318 200.062,41.028 C200.062,40.030 202.651,41.424 202.651,38.560 L202.651,29.082 L194.761,29.082 L194.761,38.560 C194.761,41.424 197.349,40.030 197.349,41.028 C197.349,41.318 197.228,41.499 196.746,41.499 C195.209,41.499 193.767,41.438 192.564,41.438 C191.355,41.438 189.916,41.499 188.383,41.499 C187.897,41.499 187.777,41.318 187.777,41.028 C187.777,40.030 190.366,41.424 190.366,38.560 L190.366,19.939 C190.366,17.062 187.777,18.461 187.777,17.454 C187.777,17.169 187.897,16.992 188.383,16.992 C189.916,16.992 191.355,17.053 192.564,17.053 C193.767,17.053 195.209,16.992 196.746,16.992 C197.228,16.992 197.349,17.169 197.349,17.454 C197.349,18.461 194.761,17.062 194.761,19.939 L194.761,28.219 L202.651,28.219 L202.651,19.939 C202.651,17.062 200.062,18.461 200.062,17.454 C200.062,17.169 200.189,16.992 200.665,16.992 C202.205,16.992 203.644,17.053 204.849,17.053 C206.051,17.053 207.498,16.992 209.029,16.992 C209.515,16.992 209.636,17.169 209.636,17.454 C209.636,18.461 207.045,17.062 207.045,19.939 L207.045,38.560 C207.045,41.424 209.636,40.030 209.636,41.028 ZM177.469,31.823 L177.469,39.043 C177.469,41.438 179.631,40.278 179.631,41.110 C179.631,41.351 179.523,41.499 179.122,41.499 C177.848,41.499 176.646,41.438 175.636,41.438 C174.635,41.438 173.432,41.499 172.155,41.499 C171.751,41.499 171.652,41.351 171.652,41.110 C171.652,40.278 173.808,41.438 173.808,39.043 L173.808,32.384 L169.769,23.609 C168.686,21.252 167.283,22.023 167.283,21.396 C167.283,21.190 167.436,21.074 167.712,21.074 C168.938,21.074 170.097,21.136 171.273,21.136 C172.456,21.136 173.607,21.074 174.791,21.074 C175.162,21.074 175.333,21.161 175.333,21.367 C175.333,21.990 173.761,21.276 173.761,22.948 C173.761,23.456 173.910,23.939 174.208,24.628 L177.169,31.254 L179.122,27.112 C179.780,25.738 180.032,24.384 180.032,23.577 C180.032,21.573 178.471,21.871 178.471,21.396 C178.471,21.226 178.621,21.074 178.976,21.074 C179.780,21.074 180.376,21.136 181.387,21.136 C182.163,21.136 182.966,21.074 183.717,21.074 C183.894,21.074 183.995,21.190 183.995,21.367 C183.995,21.958 182.838,21.161 180.429,25.917 L177.469,31.823 ZM164.090,40.776 C167.048,40.776 169.289,37.965 170.212,34.490 C170.364,33.920 170.392,33.648 170.615,33.648 C170.795,33.648 170.863,33.800 170.863,33.981 C170.863,34.164 170.819,34.519 170.767,34.845 L169.655,41.499 C167.023,41.466 163.686,41.438 160.199,41.438 C159.197,41.438 157.992,41.499 156.717,41.499 C156.312,41.499 156.209,41.351 156.209,41.110 C156.209,40.269 158.374,41.438 158.374,39.043 L158.374,23.526 C158.374,21.136 156.209,22.301 156.209,21.463 C156.209,21.226 156.312,21.074 156.717,21.074 C157.992,21.074 159.197,21.136 160.199,21.136 C161.203,21.136 162.408,21.074 163.686,21.074 C164.090,21.074 164.187,21.226 164.187,21.463 C164.187,22.301 162.029,21.136 162.029,23.526 L162.029,38.680 C162.029,40.058 162.485,40.776 164.090,40.776 ZM155.164,41.110 C155.164,41.351 155.064,41.499 154.665,41.499 C153.388,41.499 152.183,41.438 151.181,41.438 C150.176,41.438 148.974,41.499 147.693,41.499 C147.290,41.499 147.192,41.351 147.192,41.110 C147.192,40.278 149.347,41.438 149.347,39.043 L149.347,23.526 C149.347,21.136 147.192,22.301 147.192,21.463 C147.192,21.226 147.290,21.074 147.693,21.074 C148.974,21.074 150.176,21.136 151.181,21.136 C152.183,21.136 153.388,21.074 154.665,21.074 C155.064,21.074 155.164,21.226 155.164,21.463 C155.164,22.301 153.011,21.136 153.011,23.526 L153.011,39.043 C153.011,41.438 155.164,40.278 155.164,41.110 ZM142.110,41.438 C140.905,41.438 139.698,41.499 138.572,41.499 C138.346,41.499 138.272,41.379 138.272,41.201 C138.272,40.612 140.027,41.263 140.027,39.621 C140.027,38.659 139.573,37.846 138.221,33.768 L132.503,33.768 C132.026,35.385 131.446,36.735 131.446,38.237 C131.446,40.933 133.529,40.756 133.529,41.263 C133.529,41.408 133.478,41.499 133.301,41.499 C132.401,41.499 131.420,41.438 130.444,41.438 C129.467,41.438 128.488,41.499 127.507,41.499 C127.303,41.499 127.233,41.408 127.233,41.230 C127.233,41.026 127.331,40.933 127.755,40.818 C129.439,40.373 130.593,37.817 131.497,34.994 L134.683,25.152 C134.783,24.821 134.858,24.616 134.858,24.285 C134.858,23.658 134.109,23.505 134.109,23.269 C134.109,23.030 134.606,23.001 135.764,21.590 C136.892,20.212 136.815,19.832 137.042,19.832 C137.169,19.832 137.291,20.183 137.417,20.575 L143.762,39.014 C144.592,41.408 145.899,40.728 145.899,41.263 C145.899,41.408 145.820,41.499 145.646,41.499 C144.488,41.499 143.291,41.438 142.110,41.438 ZM135.208,25.181 L132.651,33.239 L137.967,33.239 L135.208,25.181 ZM119.716,41.491 C117.741,41.491 115.491,41.438 112.871,41.438 C111.674,41.438 110.229,41.491 108.689,41.491 C108.212,41.491 108.088,41.313 108.088,41.026 C108.088,40.020 110.676,41.417 110.676,38.548 L110.676,19.939 C110.676,17.070 108.088,18.469 108.088,17.462 C108.088,17.177 108.212,17.000 108.689,17.000 C110.229,17.000 111.674,17.049 112.871,17.049 C114.622,17.049 116.089,17.000 117.978,17.000 C125.209,17.000 129.288,22.602 129.288,29.276 C129.288,36.967 125.362,41.491 119.716,41.491 ZM117.647,17.862 L115.073,17.862 L115.073,37.003 C115.073,39.588 116.391,40.624 118.611,40.624 C122.147,40.624 124.695,37.143 124.695,29.788 C124.695,22.023 121.969,17.862 117.647,17.862 ZM101.286,26.342 L101.286,35.225 C101.286,39.683 98.722,41.899 95.208,41.899 C91.293,41.899 88.785,39.745 88.785,36.628 L88.785,23.526 C88.785,21.136 86.627,22.301 86.627,21.463 C86.627,21.226 86.732,21.074 87.133,21.074 C88.410,21.074 89.615,21.136 90.619,21.136 C91.619,21.136 92.826,21.074 94.103,21.074 C94.507,21.074 94.605,21.226 94.605,21.463 C94.605,22.301 92.445,21.136 92.445,23.526 L92.445,36.628 C92.445,39.085 94.155,40.999 96.240,40.999 C98.876,40.999 100.682,38.964 100.682,35.406 L100.682,26.342 C100.682,23.761 99.878,22.301 98.722,21.855 C98.349,21.697 97.972,21.673 97.972,21.404 C97.972,21.226 98.015,21.074 98.321,21.074 C98.974,21.074 99.951,21.136 100.982,21.136 C102.015,21.136 102.989,21.074 103.642,21.074 C103.945,21.074 103.993,21.226 103.993,21.404 C103.993,21.673 103.618,21.697 103.241,21.855 C102.089,22.301 101.286,23.761 101.286,26.342 ZM88.453,41.499 C87.304,41.499 86.097,41.438 84.919,41.438 C83.713,41.438 82.512,41.499 81.384,41.499 C81.156,41.499 81.079,41.379 81.079,41.201 C81.079,40.612 82.838,41.263 82.838,39.621 C82.838,38.659 82.382,37.846 81.032,33.768 L75.311,33.768 C74.833,35.385 74.258,36.735 74.258,38.237 C74.258,40.933 76.339,40.756 76.339,41.263 C76.339,41.408 76.285,41.499 76.113,41.499 C75.211,41.499 74.230,41.438 73.253,41.438 C72.275,41.438 71.294,41.499 70.319,41.499 C70.116,41.499 70.044,41.408 70.044,41.230 C70.044,41.026 70.144,40.933 70.569,40.818 C72.251,40.373 73.402,37.817 74.307,34.994 L77.490,25.152 C77.595,24.821 77.667,24.616 77.667,24.285 C77.667,23.658 76.915,23.505 76.915,23.269 C76.915,23.030 77.420,23.001 78.571,21.590 C79.700,20.212 79.623,19.832 79.855,19.832 C79.977,19.832 80.102,20.183 80.230,20.575 L86.574,39.014 C87.404,41.408 88.709,40.728 88.709,41.263 C88.709,41.408 88.632,41.499 88.453,41.499 ZM78.017,25.181 L75.460,33.239 L80.776,33.239 L78.017,25.181 ZM64.028,41.899 C61.536,41.899 60.359,40.529 59.382,40.541 C58.405,40.541 58.553,41.552 58.124,41.552 C58.000,41.552 57.923,41.502 57.923,41.293 L57.923,32.962 C57.923,32.603 58.028,32.513 58.177,32.513 C58.425,32.513 58.425,32.962 58.525,33.586 C59.126,37.388 60.386,41.181 64.052,41.181 C66.611,41.181 68.069,39.628 68.069,37.325 C68.069,31.287 58.028,34.247 58.028,26.828 C58.028,23.304 60.534,20.670 63.649,20.670 C66.009,20.670 67.265,21.862 67.969,21.855 C68.850,21.855 68.470,21.012 68.920,21.012 C69.099,21.012 69.197,21.111 69.223,21.552 L69.677,27.220 C69.730,27.786 69.748,28.058 69.748,28.203 C69.748,28.416 69.677,28.508 69.551,28.508 C69.302,28.508 69.274,27.876 68.871,26.680 C67.771,23.360 66.413,21.383 63.625,21.383 C61.841,21.383 60.436,22.316 60.436,24.587 C60.436,29.491 70.633,26.770 70.633,34.875 C70.633,38.848 67.814,41.899 64.028,41.899 ZM55.345,26.342 L55.345,35.225 C55.345,39.683 52.785,41.899 49.272,41.899 C45.355,41.899 42.847,39.745 42.847,36.628 L42.847,23.526 C42.847,21.136 40.685,22.301 40.685,21.463 C40.685,21.226 40.792,21.074 41.195,21.074 C42.474,21.074 43.675,21.136 44.681,21.136 C45.682,21.136 46.888,21.074 48.168,21.074 C48.569,21.074 48.669,21.226 48.669,21.463 C48.669,22.301 46.511,21.136 46.511,23.526 L46.511,36.628 C46.511,39.085 48.213,40.999 50.300,40.999 C52.934,40.999 54.742,38.964 54.742,35.406 L54.742,26.342 C54.742,23.761 53.940,22.301 52.785,21.855 C52.409,21.697 52.034,21.673 52.034,21.404 C52.034,21.226 52.080,21.074 52.383,21.074 C53.038,21.074 54.015,21.136 55.045,21.136 C56.073,21.136 57.053,21.074 57.704,21.074 C58.007,21.074 58.058,21.226 58.058,21.404 C58.058,21.673 57.678,21.697 57.303,21.855 C56.151,22.301 55.345,23.761 55.345,26.342 ZM42.519,41.499 C41.365,41.499 40.161,41.438 38.979,41.438 C37.777,41.438 36.568,41.499 35.442,41.499 C35.216,41.499 35.143,41.379 35.143,41.201 C35.143,40.612 36.896,41.263 36.896,39.621 C36.896,38.659 36.450,37.846 35.094,33.768 L29.373,33.768 C28.895,35.385 28.319,36.735 28.319,38.237 C28.319,40.933 30.399,40.756 30.399,41.263 C30.399,41.408 30.350,41.499 30.171,41.499 C29.269,41.499 28.290,41.438 27.319,41.438 C26.336,41.438 25.356,41.499 24.377,41.499 C24.178,41.499 24.102,41.408 24.102,41.230 C24.102,41.026 24.200,40.933 24.629,40.818 C26.307,40.373 27.464,37.817 28.371,34.994 L31.554,25.152 C31.659,24.821 31.729,24.616 31.729,24.285 C31.729,23.658 30.977,23.505 30.977,23.269 C30.977,23.030 31.480,23.001 32.633,21.590 C33.762,20.212 33.684,19.832 33.915,19.832 C34.039,19.832 34.162,20.183 34.286,20.575 L40.640,39.014 C41.461,41.408 42.771,40.728 42.771,41.263 C42.771,41.408 42.692,41.499 42.519,41.499 ZM32.079,25.181 L29.524,33.239 L34.844,33.239 L32.079,25.181 ZM20.717,41.173 C20.562,41.602 20.415,41.990 20.233,41.990 C20.056,41.990 19.903,41.602 19.752,41.173 L14.998,25.698 L10.145,41.173 C9.994,41.602 9.843,41.990 9.667,41.990 C9.486,41.990 9.329,41.602 9.181,41.173 L2.492,19.667 C1.739,17.215 -0.005,18.373 -0.005,17.359 C-0.005,17.143 0.176,17.000 0.417,17.000 C1.801,17.000 3.070,17.049 4.334,17.049 C5.567,17.049 6.832,17.000 8.606,17.000 C8.970,17.000 9.092,17.143 9.092,17.359 C9.092,18.262 7.103,17.359 7.103,19.270 C7.103,19.667 7.220,20.094 7.377,20.566 L11.561,34.238 L14.691,24.368 L13.339,19.951 C12.525,17.251 10.894,18.444 10.894,17.395 C10.894,17.177 11.079,17.000 11.408,17.000 C12.674,17.000 13.939,17.049 15.206,17.049 C16.438,17.049 17.704,17.000 18.969,17.000 C19.391,17.000 19.690,17.143 19.690,17.470 C19.690,18.230 17.824,17.395 17.824,19.270 C17.824,19.667 17.916,20.169 18.065,20.670 L21.980,33.952 L22.044,33.952 L24.663,24.941 C24.989,23.794 25.292,22.107 25.292,21.028 C25.292,17.470 22.880,18.230 22.880,17.434 C22.880,17.215 23.097,17.000 23.396,17.000 C24.362,17.000 25.323,17.049 26.287,17.049 C27.219,17.049 28.186,17.000 29.147,17.000 C29.511,17.000 29.687,17.107 29.687,17.470 C29.687,18.049 27.458,17.688 26.558,20.852 L20.717,41.173 Z" class="cls-1"/>
</svg>
