<svg xmlns="http://www.w3.org/2000/svg" width="135" height="44" viewBox="0 0 135 44">
  <g fill="none" fill-rule="evenodd">
    <polygon fill="#FFFFFE" points=".353 33.206 8.203 33.206 8.203 .355 .353 .355"/>
    <path fill="#FFFFFE" d="M24.573 27.58C25.869 27.62 27.103 27.025 27.878 25.985 28.757 24.748 29.194 23.251 29.118 21.735 29.197 20.225 28.759 18.734 27.878 17.505 26.395 15.678 23.713 15.4 21.886 16.882 21.658 17.068 21.449 17.276 21.263 17.505 20.381 18.738 19.945 20.235 20.028 21.75 19.952 23.266 20.389 24.763 21.268 26 22.046 27.033 23.28 27.623 24.573 27.58zM24.573 33.79C22.309 33.837 20.072 33.304 18.073 32.239 16.244 31.25 14.72 29.78 13.663 27.989 12.574 26.093 12.02 23.937 12.063 21.75 12.016 19.559 12.568 17.396 13.658 15.495 14.709 13.7 16.235 12.231 18.068 11.25 22.162 9.212 26.974 9.212 31.068 11.25 32.899 12.228 34.425 13.691 35.478 15.48 36.575 17.384 37.13 19.552 37.083 21.75 37.128 23.941 36.576 26.104 35.483 28.005 34.426 29.795 32.902 31.265 31.073 32.255 29.073 33.314 26.835 33.842 24.573 33.79L24.573 33.79zM48.773 20.605L48.773 33.205 40.943 33.205 40.943.355 48.773.355 48.773 12.955C50.349 10.899 52.798 9.7 55.388 9.715 57.878 9.715 59.878 10.525 61.388 12.145 62.898 13.765 63.648 16.09 63.638 19.12L63.638 33.205 55.793 33.205 55.793 20.02C55.793 18.67 55.493 17.67 54.893 17.02 54.236 16.356 53.326 16.005 52.393 16.055 51.416 16.013 50.467 16.39 49.783 17.09 49.11 17.783 48.773 18.955 48.773 20.605M83.703 33.205L83.298 30.205C82.548 31.313 81.534 32.217 80.348 32.835 79.137 33.478 77.784 33.81 76.413 33.8 73.746 33.8 71.706 33.013 70.293 31.439 68.88 29.866 68.175 27.595 68.178 24.625L68.178 10.3 76.008 10.3 76.008 23.71C76.008 26.2 77.148 27.444 79.428 27.444 81.828 27.444 83.029 25.945 83.029 22.945L83.029 10.3 90.853 10.3 90.853 33.205 83.703 33.205M107.313 27.58C108.597 27.613 109.816 27.018 110.578 25.985 111.455 24.747 111.89 23.25 111.813 21.735 111.891 20.218 111.455 18.719 110.578 17.48 109.816 16.447 108.597 15.851 107.313 15.885 106.015 15.843 104.78 16.439 104.003 17.48 103.127 18.725 102.698 20.23 102.783 21.75 102.705 23.265 103.141 24.762 104.018 26 104.797 27.035 106.033 27.625 107.328 27.58L107.313 27.58zM112.353 33.205L111.949 30.205C110.49 32.511 107.925 33.878 105.199 33.805 103.273 33.836 101.381 33.295 99.763 32.25 98.176 31.2 96.914 29.728 96.118 28 95.221 26.041 94.777 23.904 94.818 21.75 94.773 19.593 95.219 17.454 96.123 15.495 96.91 13.783 98.146 12.316 99.699 11.25 101.25 10.219 103.08 9.685 104.943 9.72 106.269 9.707 107.579 10.006 108.768 10.595 109.907 11.154 110.906 11.961 111.693 12.955L111.693.355 119.523.355 119.523 33.205 112.353 33.205 112.353 33.205z"/>
    <path class='no-color-change' fill="#009BFF" d="M129.153,33.699 C128.228,33.71 127.318,33.47 126.518,33.005 C125.734,32.551 125.082,31.899 124.628,31.114 C123.698,29.484 123.698,27.481 124.628,25.85 C125.082,25.065 125.734,24.414 126.518,23.96 C128.15,23.029 130.152,23.029 131.783,23.96 C132.567,24.415 133.218,25.066 133.673,25.85 C134.603,27.481 134.603,29.482 133.673,31.114 C133.219,31.899 132.567,32.551 131.783,33.005 C130.985,33.47 130.076,33.709 129.153,33.699"/>
    <path fill="#FFFFFE" d="M1.241 41.109L2.202 41.109C2.517 41.109 2.767 41.031 2.951 40.876 3.135 40.721 3.226 40.509 3.226 40.24 3.226 39.972 3.135 39.76 2.951 39.604 2.767 39.448 2.517 39.37 2.202 39.37L1.241 39.37 1.241 41.109zM.527 43.576L.527 38.77 2.202 38.77C2.739 38.77 3.165 38.902 3.481 39.166 3.797 39.43 3.955 39.788 3.955 40.24 3.955 40.688 3.797 41.042 3.481 41.304 3.165 41.566 2.739 41.696 2.202 41.696L1.241 41.696 1.241 43.576.527 43.576.527 43.576zM5.396 41.767L7.149 41.767 6.273 39.512 5.396 41.767zM7.849 43.576L7.382 42.367 5.163 42.367 4.697 43.576 3.975 43.576 5.898 38.77 6.669 38.77 8.584 43.576 7.849 43.576 7.849 43.576zM10.097 41.039L11.079 41.039C11.385 41.039 11.629 40.964 11.81 40.813 11.992 40.661 12.082 40.459 12.082 40.205 12.082 39.95 11.992 39.748 11.81 39.597 11.629 39.446 11.385 39.37 11.079 39.37L10.097 39.37 10.097 41.039zM10.097 41.625L10.097 43.576 9.383 43.576 9.383 38.77 11.079 38.77C11.611 38.77 12.033 38.898 12.344 39.155 12.655 39.412 12.81 39.762 12.81 40.205 12.81 40.539 12.716 40.822 12.528 41.053 12.339 41.284 12.08 41.446 11.75 41.54L12.916 43.576 12.104 43.576 11.008 41.625 10.097 41.625 10.097 41.625z"/>
    <polyline fill="#FFFFFE" points="14.86 43.576 14.86 39.37 13.242 39.37 13.242 38.77 17.192 38.77 17.192 39.37 15.574 39.37 15.574 43.576 14.86 43.576"/>
    <path fill="#FFFFFE" d="M21.78,43.031 C22.091,43.031 22.368,42.953 22.61,42.795 C22.852,42.637 23.042,42.419 23.179,42.142 C23.316,41.863 23.384,41.54 23.384,41.173 C23.384,40.806 23.316,40.483 23.179,40.205 C23.042,39.927 22.852,39.709 22.61,39.551 C22.368,39.394 22.091,39.314 21.78,39.314 C21.469,39.314 21.193,39.394 20.952,39.551 C20.712,39.709 20.524,39.927 20.387,40.205 C20.25,40.483 20.182,40.806 20.182,41.173 C20.182,41.54 20.25,41.863 20.387,42.142 C20.524,42.419 20.712,42.637 20.952,42.795 C21.193,42.953 21.469,43.031 21.78,43.031 Z M21.78,43.654 C21.327,43.654 20.927,43.548 20.578,43.336 C20.229,43.124 19.955,42.831 19.755,42.459 C19.555,42.087 19.454,41.658 19.454,41.173 C19.454,40.688 19.555,40.259 19.755,39.887 C19.955,39.515 20.229,39.222 20.578,39.01 C20.927,38.798 21.327,38.692 21.78,38.692 C22.232,38.692 22.634,38.798 22.985,39.01 C23.336,39.222 23.611,39.515 23.812,39.887 C24.012,40.259 24.112,40.688 24.112,41.173 C24.112,41.658 24.012,42.087 23.812,42.459 C23.611,42.831 23.336,43.124 22.985,43.336 C22.634,43.548 22.232,43.654 21.78,43.654 L21.78,43.654 Z"/>
    <polyline fill="#FFFFFE" points="25.829 43.576 25.116 43.576 25.116 38.77 28.105 38.77 28.105 39.37 25.829 39.37 25.829 40.996 27.759 40.996 27.759 41.597 25.829 41.597 25.829 43.576"/>
    <polyline fill="#FFFFFE" points="31.83 43.576 31.83 39.37 30.211 39.37 30.211 38.77 34.162 38.77 34.162 39.37 32.544 39.37 32.544 43.576 31.83 43.576"/>
    <polyline fill="#FFFFFE" points="34.982 43.576 34.982 38.77 35.696 38.77 35.696 40.827 38.177 40.827 38.177 38.77 38.891 38.77 38.891 43.576 38.177 43.576 38.177 41.441 35.696 41.441 35.696 43.576 34.982 43.576"/>
    <polyline fill="#FFFFFE" points="40.149 43.576 40.149 38.77 43.23 38.77 43.23 39.37 40.863 39.37 40.863 40.855 42.947 40.855 42.947 41.455 40.863 41.455 40.863 42.976 43.286 42.976 43.286 43.576 40.149 43.576"/>
    <path fill="#FFFFFE" d="M47.796 43.031C48.187 43.031 48.494 42.914 48.719 42.679 48.942 42.443 49.054 42.125 49.054 41.725L49.054 38.77 49.768 38.77 49.768 41.731C49.768 42.33 49.593 42.8 49.242 43.142 48.89 43.483 48.409 43.654 47.796 43.654 47.183 43.654 46.703 43.483 46.354 43.142 46.005 42.8 45.831 42.33 45.831 41.731L45.831 38.77 46.545 38.77 46.545 41.725C46.545 42.125 46.657 42.443 46.881 42.679 47.104 42.914 47.41 43.031 47.796 43.031M52.432 43.654C52.07 43.654 51.723 43.59 51.393 43.463 51.064 43.336 50.797 43.166 50.595 42.954L50.998 42.481C51.186 42.655 51.409 42.791 51.666 42.891 51.923 42.989 52.178 43.039 52.432 43.039 52.743 43.039 52.994 42.979 53.185 42.858 53.376 42.738 53.471 42.572 53.471 42.36 53.471 42.167 53.403 42.005 53.266 41.873 53.13 41.74 52.896 41.63 52.567 41.54L51.902 41.364C51.473 41.251 51.161 41.091 50.966 40.883 50.77 40.676 50.673 40.405 50.673 40.07 50.673 39.797 50.745 39.557 50.891 39.35 51.038 39.143 51.239 38.982 51.496 38.865 51.753 38.75 52.044 38.692 52.369 38.692 52.713 38.692 53.035 38.757 53.337 38.887 53.639 39.016 53.905 39.196 54.136 39.427L53.705 39.894C53.502 39.705 53.291 39.561 53.072 39.459 52.853 39.358 52.621 39.307 52.376 39.307 52.079 39.307 51.837 39.369 51.648 39.494 51.459 39.619 51.366 39.792 51.366 40.014 51.366 40.217 51.432 40.374 51.567 40.487 51.701 40.601 51.907 40.694 52.185 40.77L52.928 40.976C53.356 41.093 53.669 41.258 53.868 41.47 54.065 41.682 54.164 41.946 54.164 42.262 54.164 42.54 54.091 42.783 53.945 42.993 53.799 43.203 53.596 43.365 53.337 43.481 53.078 43.596 52.776 43.654 52.432 43.654M55.959 41.767L57.712 41.767 56.836 39.512 55.959 41.767zM58.412 43.576L57.945 42.367 55.726 42.367 55.26 43.576 54.538 43.576 56.461 38.77 57.232 38.77 59.147 43.576 58.412 43.576 58.412 43.576z"/>
    <polyline fill="#FFFFFE" points="62.469 43.576 62.469 39.37 60.85 39.37 60.85 38.77 64.801 38.77 64.801 39.37 63.183 39.37 63.183 43.576 62.469 43.576"/>
    <path fill="#FFFFFE" d="M67.373 43.031C67.685 43.031 67.961 42.953 68.204 42.795 68.447 42.637 68.637 42.419 68.773 42.142 68.909 41.863 68.979 41.54 68.979 41.173 68.979 40.806 68.909 40.483 68.773 40.205 68.637 39.927 68.447 39.709 68.204 39.551 67.961 39.394 67.685 39.314 67.373 39.314 67.063 39.314 66.787 39.394 66.547 39.551 66.306 39.709 66.118 39.927 65.982 40.205 65.845 40.483 65.777 40.806 65.777 41.173 65.777 41.54 65.845 41.863 65.982 42.142 66.118 42.419 66.306 42.637 66.547 42.795 66.787 42.953 67.063 43.031 67.373 43.031zM67.373 43.654C66.921 43.654 66.521 43.548 66.172 43.336 65.824 43.124 65.549 42.831 65.349 42.459 65.149 42.087 65.048 41.658 65.048 41.173 65.048 40.688 65.149 40.259 65.349 39.887 65.549 39.515 65.824 39.222 66.172 39.01 66.521 38.798 66.921 38.692 67.373 38.692 67.826 38.692 68.228 38.798 68.579 39.01 68.93 39.222 69.205 39.515 69.407 39.887 69.606 40.259 69.706 40.688 69.706 41.173 69.706 41.658 69.606 42.087 69.407 42.459 69.205 42.831 68.93 43.124 68.579 43.336 68.228 43.548 67.826 43.654 67.373 43.654L67.373 43.654zM71.423 42.976L72.399 42.976C72.739 42.976 73.03 42.902 73.272 42.752 73.514 42.604 73.701 42.396 73.83 42.127 73.96 41.859 74.025 41.54 74.025 41.173 74.025 40.806 73.96 40.487 73.83 40.219 73.701 39.95 73.514 39.742 73.272 39.594 73.03 39.445 72.739 39.37 72.399 39.37L71.423 39.37 71.423 42.976zM70.71 43.576L70.71 38.77 72.399 38.77C72.87 38.77 73.283 38.87 73.636 39.07 73.99 39.271 74.264 39.551 74.459 39.911 74.655 40.272 74.753 40.693 74.753 41.173 74.753 41.653 74.655 42.074 74.459 42.435 74.264 42.795 73.99 43.076 73.636 43.277 73.283 43.477 72.87 43.576 72.399 43.576L70.71 43.576 70.71 43.576zM76.576 41.767L78.329 41.767 77.452 39.512 76.576 41.767zM79.029 43.576L78.563 42.367 76.343 42.367 75.876 43.576 75.156 43.576 77.078 38.77 77.849 38.77 79.764 43.576 79.029 43.576 79.029 43.576z"/>
    <polyline fill="#FFFFFE" points="81.955 41.667 81.955 43.576 81.241 43.576 81.241 41.667 79.552 38.77 80.393 38.77 81.601 40.989 82.81 38.77 83.637 38.77 81.955 41.667"/>
    <polyline fill="#FFFFFE" points="89.348 43.576 86.783 39.894 86.783 43.576 86.111 43.576 86.111 38.77 86.775 38.77 89.348 42.452 89.348 38.77 90.012 38.77 90.012 43.576 89.348 43.576"/>
    <polyline fill="#FFFFFE" points="91.27 43.576 91.27 38.77 94.352 38.77 94.352 39.37 91.984 39.37 91.984 40.855 94.069 40.855 94.069 41.455 91.984 41.455 91.984 42.976 94.408 42.976 94.408 43.576 91.27 43.576"/>
    <polyline fill="#FFFFFE" points="96.529 43.576 96.529 39.37 94.909 39.37 94.909 38.77 98.861 38.77 98.861 39.37 97.242 39.37 97.242 43.576 96.529 43.576"/>
    <polyline fill="#FFFFFE" points="103.526 43.576 102.402 39.745 101.278 43.576 100.536 43.576 99.257 38.77 99.964 38.77 100.939 42.572 102.063 38.77 102.741 38.77 103.871 42.586 104.854 38.77 105.547 38.77 104.268 43.576 103.526 43.576"/>
    <path fill="#FFFFFE" d="M108.218 43.031C108.53 43.031 108.806 42.953 109.049 42.795 109.292 42.637 109.482 42.419 109.617 42.142 109.754 41.863 109.824 41.54 109.824 41.173 109.824 40.806 109.754 40.483 109.617 40.205 109.482 39.927 109.292 39.709 109.049 39.551 108.806 39.394 108.53 39.314 108.218 39.314 107.908 39.314 107.632 39.394 107.392 39.551 107.151 39.709 106.963 39.927 106.826 40.205 106.69 40.483 106.621 40.806 106.621 41.173 106.621 41.54 106.69 41.863 106.826 42.142 106.963 42.419 107.151 42.637 107.392 42.795 107.632 42.953 107.908 43.031 108.218 43.031zM108.218 43.654C107.766 43.654 107.366 43.548 107.017 43.336 106.668 43.124 106.394 42.831 106.194 42.459 105.993 42.087 105.893 41.658 105.893 41.173 105.893 40.688 105.993 40.259 106.194 39.887 106.394 39.515 106.668 39.222 107.017 39.01 107.366 38.798 107.766 38.692 108.218 38.692 108.671 38.692 109.073 38.798 109.424 39.01 109.775 39.222 110.05 39.515 110.251 39.887 110.45 40.259 110.551 40.688 110.551 41.173 110.551 41.658 110.45 42.087 110.251 42.459 110.05 42.831 109.775 43.124 109.424 43.336 109.073 43.548 108.671 43.654 108.218 43.654L108.218 43.654zM112.184 41.039L113.166 41.039C113.473 41.039 113.716 40.964 113.898 40.813 114.079 40.661 114.17 40.459 114.17 40.205 114.17 39.95 114.079 39.748 113.898 39.597 113.716 39.446 113.473 39.37 113.166 39.37L112.184 39.37 112.184 41.039zM112.184 41.625L112.184 43.576 111.47 43.576 111.47 38.77 113.166 38.77C113.699 38.77 114.12 38.898 114.431 39.155 114.742 39.412 114.898 39.762 114.898 40.205 114.898 40.539 114.804 40.822 114.616 41.053 114.427 41.284 114.167 41.446 113.837 41.54L115.004 43.576 114.192 43.576 113.095 41.625 112.184 41.625 112.184 41.625z"/>
    <polyline fill="#FFFFFE" points="118.778 43.576 116.622 41.152 116.622 43.576 115.908 43.576 115.908 38.77 116.622 38.77 116.622 40.876 118.637 38.77 119.52 38.77 117.379 40.976 119.675 43.576 118.778 43.576"/>
  </g>
</svg>
