<svg xmlns="http://www.w3.org/2000/svg" width="429" height="48" viewBox="0 0 429 48">
  <g fill="none" fill-rule="evenodd">
    <polyline fill="#404040" points="9.447 35.019 9.447 11.169 .357 11.169 .357 4.419 26.907 4.419 26.907 11.169 17.817 11.169 17.817 35.019 9.447 35.019"/>
    <path fill="#404040" d="M30.687 35.019L30.687 12.114C31.946 12.384 33.221 12.519 34.512 12.519 35.831 12.519 37.167 12.384 38.516 12.114L38.516 35.019 30.687 35.019M51.836 21.834L51.836 35.019 44.006 35.019 44.006 12.114 51.206 12.114 51.611 15.039C52.301 13.929 53.201 13.089 54.311 12.519 55.421 11.949 56.606 11.664 57.866 11.664 59.216 11.664 60.446 11.964 61.556 12.564 62.666 13.164 63.565 14.004 64.256 15.084 65.066 13.975 66.124 13.126 67.429 12.541 68.733 11.956 70.106 11.664 71.546 11.664 73.136 11.664 74.539 12.031 75.753 12.767 76.969 13.502 77.92 14.522 78.611 15.826 79.301 17.131 79.646 18.639 79.646 20.349L79.646 35.019 71.816 35.019 71.816 21.159C71.816 20.199 71.553 19.434 71.029 18.864 70.503 18.294 69.836 18.009 69.026 18.009 68.036 18.009 67.241 18.324 66.641 18.954 66.041 19.584 65.741 20.544 65.741 21.834L65.741 35.019 57.911 35.019 57.911 21.159C57.911 20.199 57.656 19.434 57.146 18.864 56.636 18.294 55.946 18.009 55.076 18.009 54.116 18.009 53.336 18.324 52.736 18.954 52.136 19.584 51.836 20.544 51.836 21.834M95.576 17.199C93.026 17.199 91.496 18.549 90.986 21.249L99.716 21.249C99.506 19.779 99.003 18.736 98.208 18.121 97.413 17.507 96.536 17.199 95.576 17.199zM106.286 32.679C105.145 33.489 103.698 34.179 101.943 34.749 100.188 35.318 98.321 35.604 96.341 35.604 93.611 35.604 91.278 35.101 89.343 34.096 87.409 33.092 85.923 31.689 84.888 29.889 83.853 28.089 83.336 26.019 83.336 23.679 83.336 21.31 83.846 19.209 84.866 17.379 85.885 15.549 87.296 14.116 89.096 13.081 90.896 12.047 92.995 11.529 95.396 11.529 97.736 11.529 99.798 12.031 101.583 13.036 103.368 14.042 104.763 15.437 105.768 17.221 106.773 19.007 107.276 21.099 107.276 23.499 107.276 23.829 107.253 24.174 107.208 24.534 107.163 24.894 107.111 25.27 107.051 25.659L91.076 25.659C91.796 28.299 93.76 29.619 96.971 29.619 98.411 29.619 99.686 29.394 100.796 28.944 101.905 28.494 102.836 28.044 103.586 27.594L106.286 32.679zM119.786 35.604C117.806 35.604 115.953 35.289 114.228 34.659 112.503 34.029 110.95 33.129 109.571 31.959L112.901 27.549C113.951 28.389 115.083 29.072 116.298 29.596 117.513 30.122 118.706 30.384 119.876 30.384 120.656 30.384 121.278 30.249 121.743 29.979 122.208 29.709 122.441 29.304 122.441 28.764 122.441 28.194 122.178 27.736 121.653 27.392 121.128 27.047 120.191 26.709 118.841 26.379L116.681 25.839C112.39 24.699 110.246 22.404 110.246 18.954 110.246 17.424 110.666 16.104 111.506 14.994 112.345 13.884 113.501 13.029 114.971 12.429 116.44 11.829 118.15 11.529 120.101 11.529 122.02 11.529 123.828 11.829 125.523 12.429 127.218 13.029 128.77 13.899 130.181 15.039L126.761 19.539C125.71 18.699 124.601 18.024 123.431 17.514 122.261 17.004 121.165 16.749 120.146 16.749 118.495 16.749 117.671 17.289 117.671 18.369 117.671 18.849 117.918 19.239 118.413 19.539 118.908 19.839 119.606 20.11 120.506 20.349L123.431 21.159C125.62 21.759 127.24 22.659 128.291 23.859 129.34 25.059 129.866 26.485 129.866 28.134 129.866 29.634 129.445 30.946 128.606 32.071 127.765 33.196 126.588 34.066 125.073 34.682 123.558 35.296 121.795 35.604 119.786 35.604"/>
    <path fill="#009BFF" class='no-color-change' d="M153.67 18.504L158.17 18.504C159.46 18.504 160.48 18.166 161.23 17.491 161.98 16.816 162.355 15.894 162.355 14.724 162.355 13.614 161.98 12.721 161.23 12.047 160.48 11.371 159.46 11.034 158.17 11.034L153.67 11.034 153.67 18.504zM153.67 24.849L153.67 35.019 145.57 35.019 145.57 4.419 159.07 4.419C162.67 4.419 165.52 5.341 167.62 7.187 169.72 9.031 170.77 11.544 170.77 14.724 170.77 16.794 170.305 18.579 169.375 20.079 168.445 21.579 167.14 22.749 165.46 23.589L171.715 35.019 162.805 35.019 157.72 24.849 153.67 24.849zM185.981 17.199C183.43 17.199 181.9 18.549 181.39 21.249L190.12 21.249C189.91 19.779 189.408 18.736 188.613 18.121 187.818 17.507 186.94 17.199 185.981 17.199zM196.69 32.679C195.55 33.489 194.103 34.179 192.348 34.749 190.593 35.318 188.725 35.604 186.745 35.604 184.015 35.604 181.683 35.101 179.748 34.096 177.813 33.092 176.328 31.689 175.293 29.889 174.258 28.089 173.741 26.019 173.741 23.679 173.741 21.31 174.25 19.209 175.27 17.379 176.29 15.549 177.701 14.116 179.501 13.081 181.3 12.047 183.4 11.529 185.8 11.529 188.14 11.529 190.203 12.031 191.988 13.036 193.773 14.042 195.168 15.437 196.173 17.221 197.178 19.007 197.68 21.099 197.68 23.499 197.68 23.829 197.658 24.174 197.613 24.534 197.568 24.894 197.515 25.27 197.455 25.659L181.481 25.659C182.201 28.299 184.165 29.619 187.376 29.619 188.815 29.619 190.09 29.394 191.201 28.944 192.31 28.494 193.24 28.044 193.991 27.594L196.69 32.679zM212.395 35.604C210.055 35.604 207.978 35.101 206.163 34.096 204.347 33.092 202.915 31.689 201.865 29.889 200.815 28.089 200.29 25.989 200.29 23.589 200.29 21.189 200.815 19.089 201.865 17.289 202.915 15.489 204.347 14.087 206.163 13.081 207.978 12.076 210.055 11.574 212.395 11.574 214.465 11.574 216.28 11.956 217.84 12.721 219.399 13.486 220.78 14.709 221.98 16.389L216.805 20.169C216.385 19.539 215.837 19.022 215.163 18.616 214.488 18.211 213.76 18.009 212.98 18.009 211.63 18.009 210.505 18.512 209.605 19.517 208.705 20.522 208.255 21.879 208.255 23.589 208.255 25.299 208.705 26.656 209.605 27.661 210.505 28.667 211.63 29.169 212.98 29.169 213.76 29.169 214.488 28.966 215.163 28.562 215.837 28.156 216.385 27.639 216.805 27.009L221.98 30.789C220.78 32.469 219.399 33.691 217.84 34.456 216.28 35.221 214.465 35.604 212.395 35.604M236.605 29.394C237.984 29.394 239.087 28.861 239.912 27.796 240.737 26.731 241.15 25.314 241.15 23.544 241.15 21.774 240.737 20.364 239.912 19.314 239.087 18.264 237.984 17.739 236.605 17.739 235.225 17.739 234.122 18.264 233.297 19.314 232.472 20.364 232.06 21.774 232.06 23.544 232.06 25.314 232.472 26.731 233.297 27.796 234.122 28.861 235.225 29.394 236.605 29.394zM236.605 35.604C234.145 35.604 231.977 35.086 230.102 34.051 228.227 33.017 226.757 31.599 225.692 29.799 224.627 27.999 224.095 25.914 224.095 23.544 224.095 21.174 224.627 19.089 225.692 17.289 226.757 15.489 228.227 14.079 230.102 13.059 231.977 12.039 234.145 11.529 236.605 11.529 239.065 11.529 241.232 12.039 243.107 13.059 244.982 14.079 246.452 15.489 247.517 17.289 248.582 19.089 249.115 21.174 249.115 23.544 249.115 25.914 248.582 27.999 247.517 29.799 246.452 31.599 244.982 33.017 243.107 34.051 241.232 35.086 239.065 35.604 236.605 35.604zM261.04 26.154L261.04 35.019 253.21 35.019 253.21 12.114 260.364 12.114 260.859 15.939C261.339 14.709 262.127 13.711 263.222 12.946 264.317 12.182 265.585 11.799 267.024 11.799 267.835 11.799 268.449 11.904 268.87 12.114L268.87 19.269C268.539 19.149 268.172 19.06 267.767 18.999 267.362 18.939 266.904 18.909 266.395 18.909 264.835 18.909 263.552 19.487 262.547 20.642 261.542 21.797 261.04 23.634 261.04 26.154M283.764 29.394C285.114 29.394 286.201 28.861 287.027 27.796 287.852 26.731 288.264 25.314 288.264 23.544 288.264 21.774 287.852 20.356 287.027 19.291 286.201 18.227 285.114 17.694 283.764 17.694 282.384 17.694 281.281 18.227 280.457 19.291 279.631 20.356 279.219 21.774 279.219 23.544 279.219 25.314 279.631 26.731 280.457 27.796 281.281 28.861 282.384 29.394 283.764 29.394zM288.804 35.019L288.399 32.004C287.679 33.114 286.749 33.991 285.609 34.636 284.469 35.281 283.149 35.604 281.649 35.604 279.579 35.604 277.764 35.093 276.204 34.074 274.644 33.054 273.429 31.637 272.559 29.821 271.689 28.007 271.254 25.914 271.254 23.544 271.254 21.174 271.689 19.089 272.559 17.289 273.429 15.489 274.622 14.079 276.137 13.059 277.651 12.039 279.399 11.529 281.379 11.529 282.759 11.529 284.034 11.821 285.204 12.406 286.374 12.991 287.349 13.779 288.129 14.769L288.129 2.169 295.959 2.169 295.959 35.019 288.804 35.019z"/>
    <polyline fill="#009BFF" class='no-color-change' points="332.589 35.019 320.574 17.379 320.574 35.019 312.879 35.019 312.879 4.419 320.529 4.419 332.499 22.374 332.499 4.419 340.239 4.419 340.239 35.019 332.589 35.019"/>
    <path fill="#009BFF" class='no-color-change' d="M357.204,17.199 C354.653,17.199 353.123,18.549 352.613,21.249 L361.343,21.249 C361.133,19.779 360.63,18.736 359.836,18.121 C359.041,17.507 358.163,17.199 357.204,17.199 Z M367.914,32.679 C366.773,33.489 365.326,34.179 363.571,34.749 C361.816,35.318 359.948,35.604 357.968,35.604 C355.238,35.604 352.906,35.101 350.971,34.096 C349.036,33.092 347.551,31.689 346.516,29.889 C345.481,28.089 344.963,26.019 344.963,23.679 C344.963,21.31 345.473,19.209 346.493,17.379 C347.513,15.549 348.923,14.116 350.724,13.081 C352.523,12.047 354.623,11.529 357.023,11.529 C359.363,11.529 361.426,12.031 363.211,13.036 C364.996,14.042 366.391,15.437 367.396,17.221 C368.401,19.007 368.903,21.099 368.903,23.499 C368.903,23.829 368.881,24.174 368.836,24.534 C368.791,24.894 368.738,25.27 368.678,25.659 L352.704,25.659 C353.423,28.299 355.388,29.619 358.599,29.619 C360.039,29.619 361.313,29.394 362.423,28.944 C363.533,28.494 364.463,28.044 365.213,27.594 L367.914,32.679 Z"/>
    <polyline fill="#009BFF" class='no-color-change' points="392.213 35.019 388.523 21.114 384.878 35.019 376.778 35.019 370.838 12.114 378.849 12.114 381.233 26.874 385.104 12.114 391.988 12.114 395.994 26.919 398.423 12.114 406.253 12.114 400.314 35.019 392.213 35.019"/>
    <path fill="#009BFF" class='no-color-change' d="M418.178,35.604 C416.198,35.604 414.345,35.289 412.62,34.659 C410.895,34.029 409.342,33.129 407.963,31.959 L411.293,27.549 C412.342,28.389 413.475,29.072 414.69,29.596 C415.905,30.122 417.098,30.384 418.268,30.384 C419.047,30.384 419.67,30.249 420.135,29.979 C420.6,29.709 420.833,29.304 420.833,28.764 C420.833,28.194 420.57,27.736 420.045,27.392 C419.52,27.047 418.583,26.709 417.233,26.379 L415.073,25.839 C410.782,24.699 408.638,22.404 408.638,18.954 C408.638,17.424 409.058,16.104 409.898,14.994 C410.737,13.884 411.893,13.029 413.363,12.429 C414.832,11.829 416.543,11.529 418.493,11.529 C420.412,11.529 422.22,11.829 423.915,12.429 C425.61,13.029 427.162,13.899 428.573,15.039 L425.153,19.539 C424.102,18.699 422.993,18.024 421.823,17.514 C420.653,17.004 419.557,16.749 418.538,16.749 C416.888,16.749 416.063,17.289 416.063,18.369 C416.063,18.849 416.31,19.239 416.805,19.539 C417.3,19.839 417.998,20.11 418.898,20.349 L421.823,21.159 C424.012,21.759 425.632,22.659 426.683,23.859 C427.732,25.059 428.258,26.485 428.258,28.134 C428.258,29.634 427.837,30.946 426.998,32.071 C426.158,33.196 424.98,34.066 423.465,34.682 C421.95,35.296 420.188,35.604 418.178,35.604"/>
    <path fill="#404040" d="M10.308 44.574L11.467 44.574C11.848 44.574 12.149 44.48 12.371 44.293 12.593 44.105 12.703 43.849 12.703 43.525 12.703 43.201 12.593 42.946 12.371 42.758 12.149 42.571 11.848 42.477 11.467 42.477L10.308 42.477 10.308 44.574zM9.447 47.549L9.447 41.752 11.467 41.752C12.115 41.752 12.629 41.911 13.01 42.23 13.391 42.548 13.581 42.98 13.581 43.525 13.581 44.065 13.391 44.493 13.01 44.808 12.629 45.123 12.115 45.282 11.467 45.282L10.308 45.282 10.308 47.549 9.447 47.549zM15.32 45.366L17.434 45.366 16.377 42.647 15.32 45.366zM18.278 47.549L17.715 46.091 15.039 46.091 14.476 47.549 13.607 47.549 15.925 41.752 16.855 41.752 19.165 47.549 18.278 47.549zM20.989 44.489L22.174 44.489C22.543 44.489 22.837 44.397 23.056 44.215 23.275 44.034 23.384 43.79 23.384 43.483 23.384 43.176 23.275 42.932 23.056 42.75 22.837 42.568 22.543 42.477 22.174 42.477L20.989 42.477 20.989 44.489zM20.989 45.196L20.989 47.549 20.128 47.549 20.128 41.752 22.174 41.752C22.816 41.752 23.325 41.907 23.7 42.217 24.075 42.526 24.262 42.949 24.262 43.483 24.262 43.886 24.148 44.227 23.921 44.506 23.694 44.784 23.382 44.98 22.984 45.094L24.39 47.549 23.41 47.549 22.089 45.196 20.989 45.196z"/>
    <polyline fill="#404040" points="26.734 47.549 26.734 42.477 24.782 42.477 24.782 41.752 29.547 41.752 29.547 42.477 27.595 42.477 27.595 47.549 26.734 47.549"/>
    <path fill="#404040" d="M35.079,46.893 C35.454,46.893 35.788,46.797 36.081,46.607 C36.374,46.417 36.602,46.154 36.767,45.818 C36.932,45.483 37.014,45.094 37.014,44.65 C37.014,44.207 36.932,43.818 36.767,43.483 C36.602,43.147 36.374,42.885 36.081,42.694 C35.788,42.504 35.454,42.408 35.079,42.408 C34.704,42.408 34.372,42.504 34.082,42.694 C33.792,42.885 33.565,43.147 33.4,43.483 C33.235,43.818 33.153,44.207 33.153,44.65 C33.153,45.094 33.235,45.483 33.4,45.818 C33.565,46.154 33.792,46.417 34.082,46.607 C34.372,46.797 34.704,46.893 35.079,46.893 Z M35.079,47.642 C34.534,47.642 34.051,47.514 33.63,47.259 C33.21,47.003 32.879,46.651 32.637,46.202 C32.396,45.753 32.275,45.236 32.275,44.65 C32.275,44.065 32.396,43.548 32.637,43.099 C32.879,42.65 33.21,42.298 33.63,42.042 C34.051,41.786 34.534,41.659 35.079,41.659 C35.625,41.659 36.109,41.786 36.533,42.042 C36.956,42.298 37.289,42.65 37.53,43.099 C37.772,43.548 37.892,44.065 37.892,44.65 C37.892,45.236 37.772,45.753 37.53,46.202 C37.289,46.651 36.956,47.003 36.533,47.259 C36.109,47.514 35.625,47.642 35.079,47.642 Z"/>
    <polyline fill="#404040" points="39.964 47.549 39.103 47.549 39.103 41.752 42.709 41.752 42.709 42.477 39.964 42.477 39.964 44.438 42.291 44.438 42.291 45.162 39.964 45.162 39.964 47.549"/>
    <polyline fill="#404040" points="47.201 47.549 47.201 42.477 45.249 42.477 45.249 41.752 50.014 41.752 50.014 42.477 48.062 42.477 48.062 47.549 47.201 47.549"/>
    <polyline fill="#404040" points="51.003 47.549 51.003 41.752 51.864 41.752 51.864 44.233 54.856 44.233 54.856 41.752 55.717 41.752 55.717 47.549 54.856 47.549 54.856 44.974 51.864 44.974 51.864 47.549 51.003 47.549"/>
    <polyline fill="#404040" points="57.234 47.549 57.234 41.752 60.95 41.752 60.95 42.477 58.095 42.477 58.095 44.267 60.609 44.267 60.609 44.991 58.095 44.991 58.095 46.824 61.019 46.824 61.019 47.549 57.234 47.549"/>
    <path fill="#404040" d="M66.457 46.893C66.929 46.893 67.299 46.751 67.569 46.466 67.839 46.182 67.974 45.798 67.974 45.315L67.974 41.752 68.835 41.752 68.835 45.324C68.835 46.046 68.624 46.613 68.2 47.025 67.777 47.436 67.196 47.642 66.457 47.642 65.718 47.642 65.138 47.436 64.718 47.025 64.297 46.613 64.087 46.046 64.087 45.324L64.087 41.752 64.948 41.752 64.948 45.315C64.948 45.798 65.083 46.182 65.353 46.466 65.623 46.751 65.991 46.893 66.457 46.893M72.049 47.642C71.611 47.642 71.194 47.566 70.796 47.412 70.398 47.259 70.077 47.054 69.833 46.798L70.319 46.227C70.546 46.438 70.814 46.602 71.124 46.722 71.434 46.841 71.742 46.901 72.049 46.901 72.424 46.901 72.727 46.828 72.957 46.684 73.187 46.538 73.302 46.338 73.302 46.082 73.302 45.849 73.22 45.653 73.055 45.494 72.89 45.336 72.609 45.202 72.211 45.094L71.409 44.881C70.892 44.744 70.516 44.551 70.28 44.301 70.044 44.051 69.926 43.724 69.926 43.321 69.926 42.991 70.014 42.701 70.191 42.451 70.367 42.201 70.61 42.007 70.919 41.867 71.229 41.728 71.58 41.659 71.972 41.659 72.387 41.659 72.776 41.737 73.14 41.893 73.504 42.049 73.825 42.267 74.103 42.545L73.583 43.107C73.339 42.88 73.085 42.705 72.82 42.583 72.556 42.461 72.276 42.4 71.981 42.4 71.623 42.4 71.33 42.476 71.103 42.626 70.875 42.777 70.762 42.986 70.762 43.252 70.762 43.497 70.843 43.687 71.005 43.823 71.167 43.96 71.415 44.074 71.751 44.164L72.646 44.412C73.163 44.554 73.541 44.753 73.779 45.008 74.018 45.264 74.137 45.583 74.137 45.963 74.137 46.299 74.049 46.592 73.873 46.846 73.697 47.098 73.453 47.295 73.14 47.434 72.828 47.573 72.464 47.642 72.049 47.642M76.303 45.366L78.417 45.366 77.36 42.647 76.303 45.366zM79.261 47.549L78.698 46.091 76.021 46.091 75.459 47.549 74.589 47.549 76.908 41.752 77.837 41.752 80.147 47.549 79.261 47.549z"/>
    <polyline fill="#404040" points="84.153 47.549 84.153 42.477 82.201 42.477 82.201 41.752 86.966 41.752 86.966 42.477 85.014 42.477 85.014 47.549 84.153 47.549"/>
    <path fill="#404040" d="M90.069 46.893C90.444 46.893 90.778 46.797 91.071 46.607 91.364 46.417 91.592 46.154 91.757 45.818 91.922 45.483 92.004 45.094 92.004 44.65 92.004 44.207 91.922 43.818 91.757 43.483 91.592 43.147 91.364 42.885 91.071 42.694 90.778 42.504 90.444 42.408 90.069 42.408 89.694 42.408 89.362 42.504 89.072 42.694 88.782 42.885 88.555 43.147 88.39 43.483 88.225 43.818 88.143 44.207 88.143 44.65 88.143 45.094 88.225 45.483 88.39 45.818 88.555 46.154 88.782 46.417 89.072 46.607 89.362 46.797 89.694 46.893 90.069 46.893zM90.069 47.642C89.524 47.642 89.041 47.514 88.62 47.259 88.2 47.003 87.869 46.651 87.627 46.202 87.385 45.753 87.265 45.236 87.265 44.65 87.265 44.065 87.385 43.548 87.627 43.099 87.869 42.65 88.2 42.298 88.62 42.042 89.041 41.786 89.524 41.659 90.069 41.659 90.615 41.659 91.099 41.786 91.523 42.042 91.946 42.298 92.278 42.65 92.52 43.099 92.762 43.548 92.882 44.065 92.882 44.65 92.882 45.236 92.762 45.753 92.52 46.202 92.278 46.651 91.946 47.003 91.523 47.259 91.099 47.514 90.615 47.642 90.069 47.642zM94.954 46.824L96.13 46.824C96.539 46.824 96.89 46.735 97.183 46.556 97.475 46.377 97.7 46.125 97.856 45.801 98.013 45.478 98.091 45.094 98.091 44.65 98.091 44.207 98.013 43.823 97.856 43.499 97.7 43.176 97.475 42.924 97.183 42.745 96.89 42.566 96.539 42.477 96.13 42.477L94.954 42.477 94.954 46.824zM94.093 47.549L94.093 41.752 96.13 41.752C96.698 41.752 97.196 41.873 97.622 42.115 98.048 42.356 98.379 42.694 98.615 43.129 98.851 43.563 98.969 44.071 98.969 44.65 98.969 45.23 98.851 45.738 98.615 46.172 98.379 46.607 98.048 46.945 97.622 47.186 97.196 47.428 96.698 47.549 96.13 47.549L94.093 47.549zM101.168 45.366L103.282 45.366 102.225 42.647 101.168 45.366zM104.126 47.549L103.563 46.091 100.887 46.091 100.324 47.549 99.455 47.549 101.773 41.752 102.702 41.752 105.012 47.549 104.126 47.549z"/>
    <polyline fill="#404040" points="107.655 45.247 107.655 47.549 106.794 47.549 106.794 45.247 104.756 41.752 105.771 41.752 107.228 44.429 108.686 41.752 109.683 41.752 107.655 45.247"/>
    <polyline fill="#404040" points="116.571 47.549 113.477 43.107 113.477 47.549 112.667 47.549 112.667 41.752 113.468 41.752 116.571 46.194 116.571 41.752 117.372 41.752 117.372 47.549 116.571 47.549"/>
    <polyline fill="#404040" points="118.89 47.549 118.89 41.752 122.606 41.752 122.606 42.477 119.751 42.477 119.751 44.267 122.265 44.267 122.265 44.991 119.751 44.991 119.751 46.824 122.675 46.824 122.675 47.549 118.89 47.549"/>
    <polyline fill="#404040" points="125.232 47.549 125.232 42.477 123.28 42.477 123.28 41.752 128.045 41.752 128.045 42.477 126.093 42.477 126.093 47.549 125.232 47.549"/>
    <polyline fill="#404040" points="133.671 47.549 132.315 42.928 130.96 47.549 130.065 47.549 128.522 41.752 129.374 41.752 130.551 46.338 131.906 41.752 132.724 41.752 134.088 46.355 135.273 41.752 136.109 41.752 134.566 47.549 133.671 47.549"/>
    <path fill="#404040" d="M139.527 46.893C139.902 46.893 140.236 46.797 140.529 46.607 140.821 46.417 141.05 46.154 141.215 45.818 141.38 45.483 141.462 45.094 141.462 44.65 141.462 44.207 141.38 43.818 141.215 43.483 141.05 43.147 140.821 42.885 140.529 42.694 140.236 42.504 139.902 42.408 139.527 42.408 139.152 42.408 138.82 42.504 138.53 42.694 138.24 42.885 138.012 43.147 137.848 43.483 137.683 43.818 137.601 44.207 137.601 44.65 137.601 45.094 137.683 45.483 137.848 45.818 138.012 46.154 138.24 46.417 138.53 46.607 138.82 46.797 139.152 46.893 139.527 46.893zM139.527 47.642C138.981 47.642 138.498 47.514 138.078 47.259 137.657 47.003 137.326 46.651 137.085 46.202 136.843 45.753 136.723 45.236 136.723 44.65 136.723 44.065 136.843 43.548 137.085 43.099 137.326 42.65 137.657 42.298 138.078 42.042 138.498 41.786 138.981 41.659 139.527 41.659 140.072 41.659 140.557 41.786 140.98 42.042 141.404 42.298 141.736 42.65 141.978 43.099 142.219 43.548 142.34 44.065 142.34 44.65 142.34 45.236 142.219 45.753 141.978 46.202 141.736 46.651 141.404 47.003 140.98 47.259 140.557 47.514 140.072 47.642 139.527 47.642zM144.411 44.489L145.596 44.489C145.966 44.489 146.26 44.397 146.479 44.215 146.697 44.034 146.807 43.79 146.807 43.483 146.807 43.176 146.697 42.932 146.479 42.75 146.26 42.568 145.966 42.477 145.596 42.477L144.411 42.477 144.411 44.489zM144.411 45.196L144.411 47.549 143.551 47.549 143.551 41.752 145.596 41.752C146.238 41.752 146.747 41.907 147.122 42.217 147.497 42.526 147.685 42.949 147.685 43.483 147.685 43.886 147.571 44.227 147.344 44.506 147.117 44.784 146.804 44.98 146.406 45.094L147.813 47.549 146.832 47.549 145.511 45.196 144.411 45.196z"/>
    <polyline fill="#404040" points="152.365 47.549 149.765 44.625 149.765 47.549 148.904 47.549 148.904 41.752 149.765 41.752 149.765 44.293 152.194 41.752 153.26 41.752 150.677 44.412 153.447 47.549 152.365 47.549"/>
    <path fill="#009BFF" class='no-color-change' d="M34.512,10.314 C33.221,10.314 32.119,9.856 31.204,8.941 C30.288,8.026 29.831,6.924 29.831,5.634 C29.831,4.344 30.288,3.242 31.204,2.326 C32.119,1.412 33.221,0.954 34.512,0.954 C35.801,0.954 36.903,1.412 37.819,2.326 C38.734,3.242 39.191,4.344 39.191,5.634 C39.191,6.924 38.734,8.026 37.819,8.941 C36.903,9.856 35.801,10.314 34.512,10.314"/>
  </g>
</svg>
