<svg height="46" viewBox="0 0 347 46" width="347" xmlns="http://www.w3.org/2000/svg">
  <g fill="none" fill-rule="evenodd">
    <g fill="#404040"><path
      d="m3.604 42.98h1.005c.331 0 .592-.081.784-.244.192-.162.289-.385.289-.665 0-.282-.097-.503-.289-.666s-.453-.244-.784-.244h-1.005zm-.747 2.581v-5.028h1.752c.563 0 1.008.138 1.339.414.33.275.495.65.495 1.124 0 .468-.165.839-.495 1.112-.331.274-.776.411-1.339.411h-1.005v1.967zm5.095-1.893h1.834l-.917-2.359zm2.566 1.893-.488-1.265h-2.322l-.489 1.265h-.754l2.012-5.028h.806l2.004 5.028zm2.351-2.655h1.028c.321 0 .576-.079.766-.236.189-.158.284-.37.284-.636 0-.267-.095-.479-.284-.636-.19-.158-.445-.237-.766-.237h-1.028zm0 .614v2.041h-.746v-5.028h1.774c.557 0 .999.134 1.324.402.325.269.488.635.488 1.099 0 .35-.099.645-.296.887-.197.241-.468.412-.813.51l1.22 2.13h-.851l-1.146-2.041z"/><path d="m17.853 45.561v-4.4h-1.693v-.628h4.133v.628h-1.693v4.4z"/><path
      d="m25.093 44.992c.325 0 .615-.083.869-.248.253-.166.452-.393.595-.684s.214-.629.214-1.013c0-.385-.071-.723-.214-1.013-.143-.291-.342-.519-.595-.685-.254-.165-.544-.247-.869-.247-.326 0-.614.082-.865.247-.252.166-.449.394-.592.685-.143.29-.215.628-.215 1.013 0 .384.072.722.215 1.013s.34.518.592.684c.251.165.539.248.865.248zm0 .65c-.474 0-.893-.111-1.258-.333-.364-.221-.651-.527-.861-.917-.21-.389-.314-.838-.314-1.345 0-.508.104-.957.314-1.346.21-.39.497-.695.861-.917.365-.222.784-.333 1.258-.333.473 0 .893.111 1.261.333.367.222.655.527.865.917.209.389.314.838.314 1.346 0 .507-.105.956-.314 1.345-.21.39-.498.696-.865.917-.368.222-.788.333-1.261.333z"/><path d="m29.33 45.561h-.747v-5.028h3.128v.628h-2.381v1.701h2.019v.628h-2.019z"/><path d="m35.608 45.561v-4.4h-1.694v-.628h4.134v.628h-1.693v4.4z"/><path d="m38.906 45.561v-5.028h.747v2.151h2.595v-2.151h.747v5.028h-.747v-2.234h-2.595v2.234z"/><path d="m44.311 45.561v-5.028h3.224v.628h-2.477v1.553h2.182v.629h-2.182v1.589h2.537v.629z"/><path
      d="m52.312 44.992c.409 0 .731-.124.965-.37.234-.247.351-.58.351-.999v-3.09h.747v3.098c0 .626-.184 1.118-.551 1.475-.367.358-.871.536-1.512.536s-1.144-.178-1.509-.536c-.364-.357-.547-.849-.547-1.475v-3.098h.747v3.09c0 .419.117.752.352.999.234.246.553.37.957.37m4.851.65c-.38 0-.742-.067-1.087-.199-.345-.134-.624-.311-.835-.533l.421-.495c.197.182.43.325.699.429.268.103.536.155.802.155.326 0 .588-.063.788-.189.199-.126.299-.299.299-.521 0-.202-.072-.372-.214-.51-.143-.138-.387-.254-.733-.348l-.695-.185c-.448-.118-.775-.286-.979-.503-.205-.216-.307-.5-.307-.85 0-.286.076-.537.229-.754s.364-.386.632-.507c.269-.121.573-.181.913-.181.36 0 .698.068 1.014.204.315.135.594.324.835.565l-.451.488c-.212-.197-.432-.348-.662-.455-.229-.106-.472-.158-.728-.158-.311 0-.565.065-.762.195-.197.131-.296.312-.296.544 0 .212.071.377.211.495.141.119.356.217.647.296l.777.215c.448.123.776.296.983.517.207.222.311.498.311.828 0 .291-.077.546-.229.766-.153.219-.365.389-.636.51-.272.121-.587.181-.947.181m3.69-1.974h1.834l-.917-2.359zm2.566 1.893-.488-1.265h-2.322l-.488 1.265h-.754l2.011-5.028h.806l2.004 5.028z"/><path d="m67.664 45.561v-4.4h-1.694v-.628h4.134v.628h-1.694v4.4z"/><path
      d="m72.795 44.992c.326 0 .615-.083.869-.248.254-.166.453-.393.595-.684.143-.291.215-.629.215-1.013 0-.385-.072-.723-.215-1.013-.142-.291-.341-.519-.595-.685-.254-.165-.543-.247-.869-.247-.325 0-.614.082-.865.247-.251.166-.448.394-.592.685-.142.29-.214.628-.214 1.013 0 .384.072.722.214 1.013.144.291.341.518.592.684.251.165.54.248.865.248zm0 .65c-.473 0-.892-.111-1.257-.333-.365-.221-.652-.527-.861-.917-.21-.389-.315-.838-.315-1.345 0-.508.105-.957.315-1.346.209-.39.496-.695.861-.917s.784-.333 1.257-.333c.474 0 .894.111 1.261.333s.656.527.865.917c.21.389.315.838.315 1.346 0 .507-.105.956-.315 1.345-.209.39-.498.696-.865.917-.367.222-.787.333-1.261.333zm4.238-.71h1.02c.355 0 .659-.077.913-.232.254-.156.449-.374.584-.655.136-.281.204-.614.204-.998 0-.385-.068-.718-.204-.999-.135-.281-.33-.499-.584-.654s-.558-.233-.913-.233h-1.02zm-.747.629v-5.028h1.767c.493 0 .924.104 1.294.313.37.21.657.503.862.881.204.377.306.817.306 1.32s-.102.943-.306 1.319c-.205.378-.492.671-.862.88-.37.21-.801.315-1.294.315zm6.137-1.893h1.834l-.917-2.359zm2.566 1.893-.488-1.265h-2.322l-.488 1.265h-.754l2.011-5.028h.806l2.004 5.028z"/><path d="m88.051 43.564v1.997h-.747v-1.997l-1.768-3.031h.88l1.265 2.321 1.264-2.321h.866z"/><path d="m95.785 45.561-2.684-3.853v3.853h-.702v-5.028h.695l2.691 3.852v-3.852h.696v5.028z"/><path d="m97.797 45.561v-5.028h3.224v.628h-2.477v1.553h2.181v.629h-2.181v1.589h2.536v.629z"/><path d="m103.298 45.561v-4.4h-1.693v-.628h4.134v.628h-1.694v4.4z"/><path d="m110.619 45.561-1.176-4.008-1.175 4.008h-.777l-1.338-5.028h.739l1.021 3.978 1.175-3.978h.71l1.184 3.993 1.027-3.993h.725l-1.338 5.028z"/><path
      d="m115.699 44.992c.326 0 .615-.083.869-.248.254-.166.453-.393.595-.684.143-.291.215-.629.215-1.013 0-.385-.072-.723-.215-1.013-.142-.291-.341-.519-.595-.685-.254-.165-.543-.247-.869-.247-.325 0-.613.082-.865.247-.251.166-.448.394-.592.685-.142.29-.214.628-.214 1.013 0 .384.072.722.214 1.013.144.291.341.518.592.684.252.165.54.248.865.248zm0 .65c-.473 0-.892-.111-1.257-.333-.365-.221-.652-.527-.861-.917-.21-.389-.315-.838-.315-1.345 0-.508.105-.957.315-1.346.209-.39.496-.695.861-.917s.784-.333 1.257-.333c.474 0 .894.111 1.261.333s.656.527.865.917c.21.389.315.838.315 1.346 0 .507-.105.956-.315 1.345-.209.39-.498.696-.865.917-.367.222-.787.333-1.261.333zm4.238-2.736h1.027c.321 0 .576-.079.766-.236.189-.158.284-.37.284-.636 0-.267-.095-.479-.284-.636-.19-.158-.445-.237-.766-.237h-1.027zm0 .614v2.041h-.747v-5.028h1.774c.558 0 .999.134 1.324.402.325.269.488.635.488 1.099 0 .35-.098.645-.296.887-.197.241-.468.412-.813.51l1.22 2.13h-.85l-1.147-2.041z"/><path d="m126.836 45.561-2.256-2.537v2.537h-.746v-5.028h.746v2.203l2.108-2.203h.924l-2.24 2.307 2.403 2.721z"/></g><path
      d="m12.867 29.05c1.35 0 2.437-.533 3.263-1.598.824-1.065 1.237-2.482 1.237-4.252s-.413-3.188-1.237-4.253c-.826-1.064-1.913-1.597-3.263-1.597-1.38 0-2.483.533-3.308 1.597-.825 1.065-1.237 2.483-1.237 4.253s.412 3.187 1.237 4.252 1.928 1.598 3.308 1.598zm5.04 5.625-.405-3.015c-.72 1.11-1.65 1.987-2.79 2.632-1.141.645-2.46.968-3.96.968-2.07 0-3.885-.511-5.445-1.53-1.56-1.02-2.775-2.437-3.645-4.253-.871-1.814-1.305-3.907-1.305-6.277s.434-4.455 1.305-6.255c.87-1.8 2.062-3.21 3.577-4.23s3.263-1.53 5.243-1.53c1.379 0 2.655.292 3.825.877s2.145 1.373 2.925 2.363v-12.6h7.83v32.85zm23.49-17.82c-2.55 0-4.08 1.35-4.59 4.05h8.73c-.21-1.47-.713-2.513-1.508-3.128-.795-.614-1.672-.922-2.632-.922zm10.71 15.48c-1.141.81-2.588 1.5-4.342 2.07-1.756.569-3.623.855-5.603.855-2.73 0-5.063-.503-6.998-1.508-1.934-1.004-3.419-2.407-4.454-4.207-1.036-1.8-1.553-3.87-1.553-6.21 0-2.369.51-4.47 1.53-6.3 1.019-1.83 2.43-3.263 4.23-4.298s3.899-1.552 6.3-1.552c2.34 0 4.402.502 6.187 1.507 1.785 1.006 3.18 2.401 4.185 4.185 1.005 1.786 1.508 3.878 1.508 6.278 0 .33-.023.675-.068 1.035s-.097.736-.157 1.125h-15.975c.72 2.64 2.684 3.96 5.895 3.96 1.44 0 2.715-.225 3.825-.675 1.109-.45 2.04-.9 2.79-1.35z"
      fill="#009bff" class='no-color-change'/><path d="m57.102 34.675h7.83v-32.85h-7.83z" fill="#009bff" class='no-color-change'/><path
      d="m76.586 27.25c0 .69.255 1.253.765 1.687.51.436 1.17.653 1.98.653 1.08 0 1.987-.368 2.723-1.103.735-.734 1.102-1.657 1.102-2.767v-.765c-.81-.15-1.665-.225-2.565-.225-1.14 0-2.092.196-2.857.585-.765.39-1.148 1.035-1.148 1.935zm6.885 7.425-.405-3.015c-1.5 2.4-3.78 3.6-6.84 3.6-1.35 0-2.572-.292-3.667-.877-1.096-.585-1.965-1.388-2.61-2.408-.646-1.02-.968-2.205-.968-3.555 0-2.55.997-4.53 2.993-5.94 1.995-1.41 4.627-2.115 7.897-2.115 1.02 0 2.1.09 3.24.27-.12-1.14-.607-2.002-1.462-2.587s-1.898-.878-3.128-.878c-1.08 0-2.167.202-3.262.607-1.096.405-2.138.893-3.128 1.463l-2.655-5.04c1.5-.96 3.12-1.702 4.86-2.228 1.74-.524 3.48-.787 5.22-.787 2.1 0 3.99.36 5.67 1.08s3 1.815 3.96 3.285 1.44 3.33 1.44 5.58v13.545z"
      fill="#009bff" class='no-color-change'/><path d="m114.926 34.675-3.69-13.905-3.645 13.905h-8.1l-5.94-22.905h8.01l2.385 14.76 3.87-14.76h6.885l4.005 14.805 2.43-14.805h7.83l-5.94 22.905z" fill="#009bff" class='no-color-change'/><path
      d="m138.55 27.25c0 .69.255 1.253.765 1.687.51.436 1.17.653 1.98.653 1.081 0 1.987-.368 2.723-1.103.735-.734 1.102-1.657 1.102-2.767v-.765c-.81-.15-1.665-.225-2.565-.225-1.14 0-2.092.196-2.857.585-.765.39-1.148 1.035-1.148 1.935zm6.885 7.425-.405-3.015c-1.5 2.4-3.779 3.6-6.84 3.6-1.35 0-2.572-.292-3.667-.877-1.096-.585-1.965-1.388-2.61-2.408-.646-1.02-.968-2.205-.968-3.555 0-2.55.997-4.53 2.993-5.94 1.995-1.41 4.627-2.115 7.898-2.115 1.019 0 2.099.09 3.239.27-.12-1.14-.607-2.002-1.462-2.587s-1.898-.878-3.128-.878c-1.08 0-2.168.202-3.262.607-1.095.405-2.137.893-3.128 1.463l-2.655-5.04c1.5-.96 3.12-1.702 4.86-2.228 1.74-.524 3.48-.787 5.22-.787 2.1 0 3.99.36 5.67 1.08s3 1.815 3.96 3.285 1.44 3.33 1.44 5.58v13.545zm19.98-8.865v8.865h-7.829v-22.905h7.154l.495 3.825c.48-1.23 1.268-2.228 2.363-2.993 1.094-.764 2.363-1.147 3.802-1.147.811 0 1.425.105 1.845.315v7.155c-.33-.119-.697-.209-1.102-.27-.405-.06-.863-.09-1.373-.09-1.56 0-2.843.578-3.847 1.733-1.005 1.155-1.508 2.992-1.508 5.512m22.455-8.955c-2.55 0-4.08 1.35-4.59 4.05h8.73c-.21-1.47-.713-2.513-1.507-3.128-.796-.614-1.673-.922-2.633-.922zm10.71 15.48c-1.14.81-2.588 1.5-4.343 2.07-1.755.569-3.622.855-5.602.855-2.73 0-5.063-.503-6.998-1.508-1.934-1.004-3.42-2.407-4.454-4.207-1.035-1.8-1.553-3.87-1.553-6.21 0-2.369.51-4.47 1.53-6.3 1.019-1.83 2.43-3.263 4.23-4.298s3.9-1.552 6.3-1.552c2.34 0 4.402.502 6.188 1.507 1.784 1.006 3.179 2.401 4.185 4.185 1.004 1.786 1.507 3.878 1.507 6.278 0 .33-.023.675-.067 1.035-.045.36-.098.736-.158 1.125h-15.975c.72 2.64 2.684 3.96 5.895 3.96 1.44 0 2.715-.225 3.825-.675 1.109-.45 2.04-.9 2.79-1.35z"
      fill="#009bff" class='no-color-change'/><path
      d="m225.489 29.05c1.38 0 2.482-.533 3.308-1.598.825-1.065 1.237-2.482 1.237-4.252s-.412-3.18-1.237-4.23c-.826-1.05-1.928-1.575-3.308-1.575s-2.483.525-3.307 1.575c-.825 1.05-1.238 2.46-1.238 4.23s.413 3.187 1.238 4.252c.824 1.065 1.927 1.598 3.307 1.598zm0 6.21c-2.46 0-4.628-.518-6.502-1.553-1.876-1.034-3.346-2.452-4.41-4.252-1.065-1.8-1.597-3.885-1.597-6.255s.532-4.455 1.597-6.255c1.064-1.8 2.534-3.21 4.41-4.23 1.874-1.02 4.042-1.53 6.502-1.53s4.628.51 6.503 1.53c1.874 1.02 3.344 2.43 4.41 4.23 1.064 1.8 1.598 3.885 1.598 6.255s-.534 4.455-1.598 6.255c-1.066 1.8-2.536 3.218-4.41 4.252-1.875 1.035-4.043 1.553-6.503 1.553zm24.435-13.23v12.645h-7.83v-22.905h7.155l.405 3.015c.749-1.08 1.725-1.95 2.925-2.61 1.199-.659 2.52-.99 3.96-.99 2.49 0 4.484.81 5.985 2.43 1.5 1.62 2.25 3.945 2.25 6.975v14.085h-7.83v-13.185c0-1.35-.3-2.347-.9-2.993-.601-.645-1.44-.967-2.52-.967s-1.95.345-2.61 1.035c-.66.691-.99 1.845-.99 3.465"
      fill="#404040"/><path d="m269.859 34.675h7.83v-32.85h-7.83z" fill="#404040"/><path
      d="m283.178 34.675v-22.905c1.26.27 2.535.405 3.825.405 1.32 0 2.655-.135 4.005-.405v22.905zm21.15-12.645v12.645h-7.83v-22.905h7.155l.405 3.015c.749-1.08 1.725-1.95 2.925-2.61 1.199-.659 2.52-.99 3.96-.99 2.49 0 4.484.81 5.985 2.43 1.5 1.62 2.25 3.945 2.25 6.975v14.085h-7.83v-13.185c0-1.35-.301-2.347-.9-2.993-.601-.645-1.44-.967-2.52-.967s-1.95.345-2.61 1.035c-.66.691-.99 1.845-.99 3.465m30.779-5.175c-2.55 0-4.08 1.35-4.59 4.05h8.73c-.21-1.47-.713-2.513-1.507-3.128-.796-.614-1.673-.922-2.633-.922zm10.71 15.48c-1.14.81-2.587 1.5-4.342 2.07-1.755.569-3.623.855-5.603.855-2.73 0-5.062-.503-6.997-1.508-1.935-1.004-3.42-2.407-4.455-4.207s-1.553-3.87-1.553-6.21c0-2.369.51-4.47 1.53-6.3s2.43-3.263 4.231-4.298c1.799-1.035 3.899-1.552 6.299-1.552 2.34 0 4.403.502 6.188 1.507 1.784 1.006 3.179 2.401 4.185 4.185 1.005 1.786 1.507 3.878 1.507 6.278 0 .33-.022.675-.067 1.035s-.098.736-.158 1.125h-15.975c.72 2.64 2.685 3.96 5.896 3.96 1.439 0 2.714-.225 3.824-.675s2.04-.9 2.79-1.35z"
      fill="#404040"/><path
      d="m287.003 9.97c-1.29 0-2.393-.458-3.307-1.373-.916-.915-1.373-2.017-1.373-3.307s.457-2.392 1.373-3.308c.914-.914 2.017-1.372 3.307-1.372s2.392.458 3.308 1.372c.915.916 1.372 2.018 1.372 3.308s-.457 2.392-1.372 3.307c-.916.915-2.018 1.373-3.308 1.373"
      fill="#009bff" class='no-color-change'/></g>
</svg>