<svg xmlns="http://www.w3.org/2000/svg" xmlns:xlink="http://www.w3.org/1999/xlink" preserveAspectRatio="xMidYMid" width="139" height="25" viewBox="0 0 139 25">
  <path d="M138.982,17.150 L136.039,17.139 L136.161,7.604 L136.021,1.694 C136.925,1.690 137.991,1.686 138.964,1.682 L138.845,11.818 L138.982,17.150 ZM134.996,17.074 L134.927,17.143 L132.007,17.086 C132.029,16.786 132.167,16.508 132.096,16.209 C131.336,17.320 129.969,17.325 128.717,17.192 C127.766,16.988 126.790,16.300 126.437,15.332 C126.108,14.109 126.288,12.747 127.211,11.843 C128.504,10.614 130.428,10.883 131.932,10.161 C132.186,9.975 132.324,9.744 132.323,9.467 C132.298,9.074 132.227,8.705 131.924,8.430 C130.855,7.534 129.048,7.864 127.891,8.377 C127.731,8.493 127.568,8.632 127.383,8.679 L127.307,7.064 C128.926,6.249 131.290,6.424 133.007,6.855 C133.611,7.083 134.215,7.566 134.473,8.188 C135.060,10.079 134.653,12.343 134.730,14.374 C134.734,15.274 134.715,16.267 134.996,17.074 ZM132.170,11.707 C130.897,12.127 129.158,11.927 128.562,13.384 C128.402,13.984 128.335,14.816 128.871,15.253 C129.545,15.688 130.519,15.915 131.306,15.589 C132.600,14.822 132.291,13.045 132.170,11.707 ZM125.680,17.089 L122.876,17.078 C122.935,14.677 123.203,12.067 122.939,9.713 C122.751,9.183 122.540,8.607 121.982,8.332 C121.402,8.011 120.614,8.176 120.106,8.525 C118.883,9.868 119.239,11.853 119.200,13.653 L119.354,17.069 L116.480,17.081 L116.433,16.897 C116.605,13.572 116.637,10.155 116.438,6.785 L119.195,6.774 L119.176,7.697 C119.570,7.857 119.661,7.257 120.007,7.117 C121.094,6.327 122.924,6.343 124.132,6.846 L124.875,7.397 C125.877,8.593 125.721,10.302 125.682,11.918 L125.680,17.089 ZM112.604,9.987 C112.212,10.542 112.029,11.190 112.125,11.928 C112.086,13.613 112.209,15.344 112.262,17.030 C111.290,17.079 110.270,17.084 109.296,17.041 C109.467,13.578 109.523,10.254 109.323,6.768 L112.011,6.780 C112.059,7.127 111.783,7.589 112.154,7.819 C112.960,6.730 114.235,6.563 115.556,6.558 C115.559,7.435 115.540,8.382 115.474,9.259 C114.454,9.148 113.319,9.107 112.604,9.987 ZM108.415,17.045 L105.959,17.055 C105.911,16.755 106.072,16.363 105.886,16.156 C105.492,16.296 105.285,16.643 104.915,16.806 C103.619,17.458 101.696,17.442 100.443,16.755 C99.373,16.113 99.021,15.006 98.924,13.875 C98.960,11.475 99.020,9.120 98.940,6.765 C99.914,6.761 100.910,6.734 101.861,6.776 L101.632,13.056 C101.682,13.956 101.824,14.833 102.568,15.384 C103.126,15.728 103.983,15.679 104.562,15.399 C105.786,14.494 105.548,12.878 105.634,11.447 C105.628,9.854 105.529,8.308 105.476,6.761 L108.465,6.749 C108.317,10.120 108.169,13.675 108.415,17.045 ZM91.732,17.392 C90.086,17.236 88.412,16.089 87.826,14.498 C87.007,12.517 87.414,9.999 88.634,8.331 C89.972,6.595 92.195,6.170 94.213,6.646 C95.419,6.964 96.626,7.560 97.396,8.711 C98.562,10.414 98.573,13.161 97.422,14.875 C96.156,16.842 94.027,17.682 91.732,17.392 ZM95.035,9.344 C94.243,8.401 93.013,7.944 91.810,8.365 C90.791,8.785 90.263,9.848 90.059,10.842 C89.834,12.367 89.887,14.167 91.213,15.177 C91.864,15.682 92.930,15.748 93.670,15.421 C94.641,15.025 95.263,14.006 95.584,13.081 C95.972,11.880 95.966,10.309 95.035,9.344 ZM82.395,23.686 C79.062,24.439 75.443,23.715 73.300,20.930 L73.299,20.792 L75.284,18.960 C76.821,20.731 79.005,21.969 81.411,21.197 C84.419,19.892 83.732,16.316 83.952,13.499 L83.934,3.641 C83.930,2.787 83.834,1.910 83.901,1.102 L86.843,1.159 L86.716,9.402 C86.436,14.551 88.087,21.423 82.395,23.686 ZM72.981,16.868 C72.794,16.338 72.722,15.739 72.627,15.139 C74.066,15.641 76.364,16.647 77.586,15.095 C77.838,14.632 77.767,14.055 77.418,13.664 C75.906,12.493 73.032,12.390 72.975,9.873 C72.902,8.928 73.130,8.049 73.846,7.377 C75.255,6.171 77.664,6.253 79.313,6.939 C79.432,7.492 79.526,8.046 79.575,8.646 C78.576,8.119 77.346,7.685 76.166,8.060 C75.796,8.269 75.497,8.617 75.405,9.010 C75.383,9.402 75.409,9.841 75.711,10.116 C77.037,11.196 79.145,11.003 79.917,12.823 C80.340,14.206 80.044,15.639 78.913,16.590 C77.319,17.820 74.746,17.577 72.981,16.868 ZM68.625,17.025 C67.898,14.974 67.079,12.946 66.098,10.987 L65.936,11.196 C65.203,13.114 64.376,15.011 63.735,16.976 C63.597,17.092 63.388,17.024 63.226,17.047 L60.114,9.834 L58.502,6.794 L61.236,6.783 C62.009,8.649 62.735,10.562 63.624,12.383 C64.222,11.295 64.657,10.092 65.162,8.936 C64.996,8.175 64.507,7.531 64.180,6.817 C65.014,6.767 65.987,6.763 66.845,6.806 C67.570,8.511 68.203,10.217 68.929,11.922 L68.998,11.922 L70.576,6.790 L73.287,6.779 C71.562,10.064 70.326,13.532 69.042,17.000 C68.927,17.093 68.741,17.048 68.625,17.025 ZM52.036,12.315 C51.971,13.354 52.277,14.368 53.160,15.058 C54.578,16.160 56.661,15.528 58.025,14.714 C58.302,14.505 58.580,14.343 58.880,14.156 L58.587,16.005 C56.970,17.281 54.353,17.731 52.472,16.746 C50.800,15.991 49.913,14.263 49.813,12.532 C49.664,10.339 50.374,8.167 52.362,7.050 C53.564,6.422 55.371,6.207 56.625,6.894 C57.369,7.353 58.020,8.019 58.441,8.780 C59.001,9.839 59.307,10.992 59.359,12.262 L52.036,12.315 ZM56.403,9.250 C55.891,8.513 55.146,7.939 54.198,8.151 C53.063,8.479 52.187,9.660 52.053,10.791 C53.676,10.900 55.390,10.823 57.059,10.840 C56.964,10.263 56.707,9.756 56.403,9.250 ZM49.159,17.036 L48.765,17.038 L45.320,13.312 L37.896,5.840 L37.827,5.933 L37.655,14.660 L37.734,17.037 L35.000,17.049 L35.340,4.166 L35.328,1.164 L35.397,1.118 L37.992,1.130 L46.653,10.652 C46.676,10.675 46.723,10.744 46.769,10.674 C46.825,7.512 46.812,4.303 46.729,1.163 C47.494,1.091 48.375,1.134 49.301,1.107 L49.175,15.282 C49.131,15.882 49.296,16.481 49.159,17.036 ZM23.393,12.387 C23.398,13.426 23.657,14.395 24.517,15.061 C25.935,16.140 28.018,15.577 29.382,14.763 L30.307,14.182 L30.082,16.007 C28.465,17.168 26.127,17.732 24.177,16.932 C22.274,16.178 21.153,14.174 21.191,12.165 C21.137,10.249 21.778,8.539 23.326,7.355 C24.666,6.449 26.774,6.163 28.191,7.012 C28.888,7.424 29.517,8.068 29.867,8.759 C30.451,9.842 30.826,10.995 30.855,12.310 C28.260,12.413 25.965,12.238 23.393,12.387 ZM27.876,9.321 C27.317,8.470 26.341,7.896 25.346,8.270 C24.305,8.690 23.522,9.778 23.457,10.863 C25.125,10.903 26.863,10.895 28.531,10.842 C28.413,10.289 28.156,9.805 27.876,9.321 ZM17.712,17.143 C17.772,14.765 18.039,12.225 17.751,9.825 C17.587,9.341 17.353,8.788 16.796,8.536 C16.215,8.262 15.358,8.334 14.850,8.775 C13.420,10.466 14.150,13.119 14.043,15.312 L14.143,17.158 L11.224,17.170 L11.343,6.804 L11.260,3.596 L11.120,3.527 C9.869,3.371 8.593,3.261 7.296,3.219 L7.226,3.313 C7.176,7.883 7.010,12.617 7.330,17.140 L4.040,17.154 C4.253,12.813 4.164,8.196 4.169,3.740 C4.122,3.579 4.122,3.417 4.051,3.280 C2.707,3.192 1.410,3.429 0.090,3.504 L0.126,1.148 L14.123,1.183 L13.987,7.278 C13.987,7.370 14.080,7.440 14.149,7.462 C15.467,6.533 17.691,6.501 19.154,7.141 C20.176,7.760 20.435,8.821 20.556,9.883 C20.566,12.260 20.460,14.708 20.586,17.108 L17.712,17.143 Z" class="cls-1"/>
</svg>
