<!-- Generator: Adobe Illustrator 19.2.0, SVG Export Plug-In . SVG Version: 6.00 Build 0)  -->
<svg version="1.1" id="Layer_1" xmlns="http://www.w3.org/2000/svg" xmlns:xlink="http://www.w3.org/1999/xlink" x="0px" y="0px"
	 width="724.6" height="123.4" viewBox="0 0 724.6 123.4" style="enable-background:new 0 0 724.6 123.4;" xml:space="preserve">
<style type="text/css">
	.st0{fill:#FFFFFF;}
	.st1{enable-background:new    ;}
	.st2{fill:#999999;}
	.st3{fill:none;stroke:#000000;stroke-width:4;}
</style>
<g id="delaware_online">
	<path id="USAT_Network" class="st0" d="M396.7,96.5h4c2.8,0,4.7,1.7,4.7,4.2s-1.9,4.2-4.7,4.2h-2v5.3h-2V96.5z M400.5,103.3
		c1.9,0,2.9-1,2.9-2.6c0-1.5-1-2.6-2.9-2.6h-1.8v5.2C398.6,103.3,400.5,103.3,400.5,103.3z M411,96.5h1.7l5.7,13.7h-2.1l-1.4-3.6
		h-6.2l-1.4,3.6h-2.1C405.2,110.1,410.3,98.2,411,96.5L411,96.5z M414.2,104.9l-1.3-3.4c-0.2-0.5-1-2.6-1.1-2.8h0
		c0,0.2-0.9,2.2-1.1,2.8l-1.3,3.4L414.2,104.9L414.2,104.9z M420.4,96.5h4c2.6,0,4.6,1.3,4.6,4c0,2-1.5,3.7-3.5,3.9l4.3,5.8h-2.3
		l-4-5.6h-1.1v5.6h-2L420.4,96.5L420.4,96.5z M424.2,103c1.8,0,2.9-1,2.9-2.5s-1-2.5-2.9-2.5h-1.8v4.9L424.2,103L424.2,103z
		 M434.5,98.1h-4v-1.7h9.9v1.7h-4v12h-2L434.5,98.1L434.5,98.1z M445.5,103.3c-0.1-4,3.1-7.4,7.1-7.5c4-0.1,7.4,3.1,7.5,7.1
		c0.1,4-3.1,7.4-7.1,7.5c-0.1,0-0.1,0-0.2,0c-3.9,0.2-7.1-2.8-7.3-6.7C445.5,103.6,445.5,103.5,445.5,103.3L445.5,103.3z
		 M458.1,103.3c0-2.9-2.4-5.3-5.4-5.2s-5.3,2.4-5.2,5.4c0,2.9,2.4,5.2,5.3,5.2c2.8,0.1,5.2-2.1,5.3-4.9
		C458.1,103.6,458.1,103.5,458.1,103.3L458.1,103.3z M462.9,96.5h7v1.7h-5v4.4h4.9v1.7h-4.9v6h-2L462.9,96.5L462.9,96.5z
		 M478.8,98.1h-4v-1.7h9.9v1.7h-4v12h-2L478.8,98.1L478.8,98.1z M486.7,96.5h2v5.6h7.3v-5.6h2v13.7h-2v-6.4h-7.3v6.4h-2L486.7,96.5
		L486.7,96.5z M501.6,96.5h7.6v1.6h-5.6v4h5.4v1.6h-5.4v4.8h5.7v1.6h-7.7L501.6,96.5L501.6,96.5z M515.8,105.4v-9h2v8.4
		c0,2.4,1,3.8,3.3,3.8c2.3,0,3.4-1.5,3.4-3.8v-8.4h2v9c0,3-2,5-5.3,5C517.7,110.4,515.8,108.4,515.8,105.4L515.8,105.4z
		 M528.5,107.7l1.3-1.1c0.7,1.3,2,2.1,3.5,2.2c1.5,0,2.7-0.8,2.7-2.3c0-1.6-1.4-2.2-3.1-2.8c-1.7-0.7-3.5-1.5-3.5-3.7
		c0-2.2,1.7-3.7,4.2-3.7c1.6-0.1,3.2,0.7,4.1,2.1l-1.3,1.1c-0.6-0.9-1.6-1.5-2.8-1.5c-1.3,0-2.2,0.7-2.2,1.8c0,1.4,1.4,1.9,2.6,2.4
		c2,0.8,4,1.7,4,4.2c0,2.4-1.8,4.1-4.6,4.1C531.4,110.5,529.5,109.4,528.5,107.7L528.5,107.7z M544.8,96.5h1.7l5.7,13.7h-2.1
		l-1.4-3.6h-6.2l-1.4,3.6h-2.1C539.1,110.1,544.1,98.2,544.8,96.5z M548.1,104.9l-1.3-3.4c-0.2-0.5-1.1-2.6-1.1-2.8h0
		c0,0.2-0.9,2.2-1.1,2.8l-1.3,3.4H548.1z M560.5,98.1h-4v-1.7h9.9v1.7h-4v12h-2V98.1z M567.2,103.3c-0.1-4,3.1-7.4,7.1-7.5
		s7.4,3.1,7.5,7.1c0.1,4-3.1,7.4-7.1,7.5c-0.1,0-0.1,0-0.2,0c-3.9,0.2-7.1-2.8-7.3-6.7C567.2,103.6,567.2,103.5,567.2,103.3
		L567.2,103.3z M579.8,103.3c0-2.9-2.4-5.3-5.4-5.2c-2.9,0-5.3,2.4-5.2,5.4c0,2.9,2.4,5.2,5.3,5.2c2.8,0.1,5.2-2.1,5.3-4.9
		C579.8,103.6,579.8,103.5,579.8,103.3L579.8,103.3z M584.6,96.5h3.9c4.4,0,7.4,2.5,7.4,6.8c0,4.3-3,6.8-7.4,6.8h-3.9
		C584.6,110.1,584.6,96.5,584.6,96.5z M586.6,108.5h1.8c3.2,0,5.5-1.7,5.5-5.2s-2.3-5.2-5.5-5.2h-1.8V108.5L586.6,108.5z
		 M602.3,96.5h1.7l5.7,13.7h-2.1l-1.4-3.6H600l-1.4,3.6h-2.1C596.6,110.1,601.6,98.2,602.3,96.5L602.3,96.5z M605.6,104.9l-1.3-3.4
		c-0.2-0.5-1-2.6-1.1-2.8h0c0,0.2-0.8,2.2-1.1,2.8l-1.3,3.4L605.6,104.9L605.6,104.9z M613.6,104.6l-4.7-8.1h2.2l2.6,4.6
		c0.4,0.6,0.7,1.3,1,1.9h0c0.3-0.7,0.6-1.3,1-1.9l2.6-4.6h2.1l-4.7,8.1v5.6h-2L613.6,104.6L613.6,104.6z M626.2,96.5h1.5l7.9,8.9
		c0.2,0.3,1.3,1.5,1.4,1.7l0,0c0-0.2,0-1.8,0-2.1v-8.4h1.9v13.7h-1.5l-7.9-8.9c-0.2-0.3-1.3-1.5-1.4-1.7l0,0c0,0.2,0,1.8,0,2.1v8.4
		h-1.9L626.2,96.5L626.2,96.5z M642.4,96.5h7.6v1.6h-5.6v4h5.4v1.6h-5.5v4.8h5.7v1.6h-7.7L642.4,96.5L642.4,96.5z M656.1,98.1h-4
		v-1.7h9.9v1.7h-4v12h-2L656.1,98.1L656.1,98.1z M663.7,96.5h2.1l2.9,8.1c0.1,0.3,0.8,2.3,0.8,2.6h0c0.2-0.9,0.5-1.8,0.8-2.6l3-8.1
		h1.6l3,8.1c0.3,0.9,0.6,1.7,0.8,2.6h0c0-0.3,0.7-2.3,0.8-2.6l2.8-8.1h2l-4.9,13.7h-1.5l-3.2-8.5c-0.3-0.7-0.5-1.5-0.7-2.2h0
		c-0.2,0.8-0.4,1.5-0.7,2.2l-3.2,8.5h-1.5L663.7,96.5z M685.2,103.3c-0.1-4,3.1-7.4,7.1-7.5s7.4,3.1,7.5,7.1c0.1,4-3.1,7.4-7.1,7.5
		c-0.1,0-0.1,0-0.2,0c-3.9,0.2-7.1-2.8-7.3-6.7C685.2,103.6,685.2,103.5,685.2,103.3L685.2,103.3z M697.8,103.3
		c0-2.9-2.4-5.3-5.4-5.2c-2.9,0-5.3,2.4-5.2,5.4c0,2.9,2.4,5.2,5.3,5.2c2.8,0.1,5.2-2.1,5.3-5C697.8,103.6,697.8,103.5,697.8,103.3
		L697.8,103.3z M702.6,96.5h4c2.6,0,4.6,1.3,4.6,4c0,2-1.5,3.7-3.5,3.9l4.3,5.8h-2.3l-4-5.6h-1.1v5.6h-2L702.6,96.5L702.6,96.5z
		 M706.4,103c1.8,0,2.9-1,2.9-2.5s-1-2.5-2.9-2.5h-1.8v4.9L706.4,103L706.4,103z M714.2,96.5h2v6.3l5.7-6.3h2.4l-6,6.5l6.2,7.1h-2.5
		l-5.9-6.9v6.9h-2L714.2,96.5L714.2,96.5z"/>
	<g class="st1">
		<path class="st2" d="M128.4,92.7h-5.9v-2.5h14.8v2.5h-5.9v18.2h-2.9V92.7z"/>
		<path class="st2" d="M139.6,90.2h2.8v8.1h0.1c0.5-0.6,1-1.2,1.8-1.6c0.7-0.5,1.7-0.7,2.9-0.7c1.8,0,3.2,0.5,4.2,1.6
			c1,1,1.5,2.5,1.5,4.5v8.9h-2.8v-8.4c0-1.4-0.3-2.4-0.9-3.2s-1.5-1.1-2.7-1.1c-1.2,0-2.2,0.4-2.9,1.1c-0.7,0.8-1,1.8-1,3.2v8.3
			h-2.8V90.2z"/>
		<path class="st2" d="M163.4,111.2c-1.3,0-2.4-0.2-3.4-0.7c-1-0.4-1.8-1-2.4-1.8c-0.6-0.7-1.1-1.5-1.4-2.4
			c-0.3-0.9-0.5-1.8-0.5-2.8c0-0.9,0.1-1.8,0.4-2.7c0.3-0.9,0.7-1.7,1.3-2.5c0.6-0.7,1.4-1.3,2.3-1.8c1-0.5,2.1-0.7,3.4-0.7
			c1.3,0,2.5,0.2,3.4,0.7s1.7,1,2.3,1.8c0.6,0.7,1,1.5,1.3,2.4c0.3,0.9,0.4,1.8,0.4,2.6c0,0.1,0,0.2,0,0.3c0,0.1,0,0.2,0,0.4h-12.1
			c0,0.7,0.2,1.4,0.4,2c0.2,0.6,0.6,1.1,1,1.5s1,0.8,1.6,1s1.3,0.4,2.1,0.4c1.1,0,2-0.2,2.8-0.7c0.8-0.5,1.4-1.1,1.9-1.9l2,1.3
			c-0.7,1.2-1.7,2.2-2.9,2.7S164.9,111.2,163.4,111.2z M167.8,102.1c-0.2-1.2-0.7-2.2-1.6-2.9c-0.8-0.7-1.8-1.1-3-1.1
			c-1.2,0-2.3,0.4-3.1,1.1c-0.8,0.7-1.3,1.7-1.6,2.9H167.8z"/>
		<path class="st2" d="M180.3,90.2h2.2l11.8,13.4c0.1,0.1,0.2,0.3,0.5,0.5c0.2,0.3,0.4,0.5,0.7,0.8c0.2,0.3,0.4,0.5,0.6,0.8
			c0.2,0.2,0.3,0.4,0.3,0.5l0.1,0c0-0.1,0-0.3,0-0.6c0-0.3,0-0.6,0-1s0-0.7,0-1s0-0.6,0-0.7V90.2h2.8v20.7H197l-11.8-13.4
			c-0.1-0.1-0.3-0.3-0.5-0.5c-0.2-0.3-0.4-0.5-0.6-0.8c-0.2-0.3-0.4-0.5-0.6-0.8c-0.2-0.2-0.3-0.4-0.3-0.5l0,0c0,0.1,0,0.3,0,0.6
			c0,0.3,0,0.6,0,1c0,0.3,0,0.7,0,1s0,0.6,0,0.7v12.8h-2.8V90.2z"/>
		<path class="st2" d="M210.3,111.2c-1.3,0-2.4-0.2-3.4-0.7c-1-0.4-1.8-1-2.4-1.8c-0.6-0.7-1.1-1.5-1.4-2.4
			c-0.3-0.9-0.5-1.8-0.5-2.8c0-0.9,0.1-1.8,0.4-2.7c0.3-0.9,0.7-1.7,1.3-2.5c0.6-0.7,1.4-1.3,2.3-1.8c1-0.5,2.1-0.7,3.4-0.7
			c1.3,0,2.5,0.2,3.4,0.7s1.7,1,2.3,1.8c0.6,0.7,1,1.5,1.3,2.4c0.3,0.9,0.4,1.8,0.4,2.6c0,0.1,0,0.2,0,0.3c0,0.1,0,0.2,0,0.4h-12.1
			c0,0.7,0.2,1.4,0.4,2c0.2,0.6,0.6,1.1,1,1.5s1,0.8,1.6,1s1.3,0.4,2.1,0.4c1.1,0,2-0.2,2.8-0.7c0.8-0.5,1.4-1.1,1.9-1.9l2,1.3
			c-0.7,1.2-1.7,2.2-2.9,2.7S211.8,111.2,210.3,111.2z M214.7,102.1c-0.2-1.2-0.7-2.2-1.6-2.9c-0.8-0.7-1.8-1.1-3-1.1
			c-1.2,0-2.3,0.4-3.1,1.1c-0.8,0.7-1.3,1.7-1.6,2.9H214.7z"/>
		<path class="st2" d="M218.6,96.3h2.9l2.8,8.4c0,0.1,0.1,0.3,0.2,0.6c0.1,0.3,0.2,0.6,0.2,0.9c0.1,0.3,0.2,0.6,0.2,0.9
			c0.1,0.3,0.1,0.5,0.1,0.5h0.1c0-0.1,0-0.3,0.1-0.5c0.1-0.3,0.2-0.6,0.3-0.9c0.1-0.3,0.2-0.6,0.3-0.9c0.1-0.3,0.1-0.5,0.2-0.5
			l2.9-8.4h2.4l2.9,8.4c0,0.1,0.1,0.3,0.2,0.6c0.1,0.3,0.2,0.6,0.3,0.9s0.2,0.6,0.2,0.8c0.1,0.3,0.1,0.4,0.1,0.5h0.1
			c0-0.1,0-0.3,0.1-0.5c0.1-0.3,0.1-0.5,0.2-0.8s0.2-0.6,0.3-0.9c0.1-0.3,0.1-0.5,0.2-0.6l2.8-8.4h2.8l-5.2,14.6h-2.4l-3-8.5
			c-0.1-0.2-0.1-0.4-0.2-0.7c-0.1-0.3-0.2-0.6-0.3-0.8c-0.1-0.3-0.1-0.5-0.2-0.8c-0.1-0.2-0.1-0.4-0.1-0.5H230c0,0.1,0,0.2-0.1,0.5
			c-0.1,0.2-0.1,0.5-0.2,0.7c-0.1,0.3-0.1,0.6-0.2,0.8c-0.1,0.3-0.2,0.5-0.2,0.7l-3,8.5h-2.5L218.6,96.3z"/>
		<path class="st2" d="M248,111.2c-0.7,0-1.4-0.1-2-0.2c-0.6-0.2-1.1-0.4-1.6-0.6c-0.5-0.3-0.9-0.5-1.2-0.9c-0.4-0.3-0.7-0.7-0.9-1
			l1.7-1.7c0.4,0.5,0.9,1,1.6,1.5c0.7,0.5,1.5,0.7,2.5,0.7c0.8,0,1.5-0.2,2.1-0.5c0.6-0.4,0.8-0.9,0.8-1.6c0-0.4-0.1-0.7-0.3-1
			s-0.4-0.5-0.8-0.7c-0.3-0.2-0.7-0.4-1.1-0.5c-0.4-0.1-0.9-0.3-1.3-0.5c-0.6-0.2-1.1-0.4-1.6-0.6c-0.5-0.2-1-0.5-1.3-0.8
			c-0.4-0.3-0.7-0.7-1-1.1s-0.4-0.9-0.4-1.5c0-0.6,0.1-1.2,0.4-1.7c0.3-0.5,0.6-0.9,1.1-1.3c0.5-0.3,1-0.6,1.6-0.8
			c0.6-0.2,1.3-0.3,2.1-0.3c1.2,0,2.2,0.2,3,0.6s1.5,0.9,1.9,1.5l-1.6,1.7c-0.3-0.4-0.8-0.8-1.3-1.1s-1.2-0.5-2-0.5
			c-0.7,0-1.3,0.2-1.8,0.5c-0.5,0.3-0.7,0.7-0.7,1.3c0,0.3,0.1,0.6,0.3,0.9c0.2,0.2,0.4,0.4,0.7,0.6s0.6,0.3,1,0.4
			c0.4,0.1,0.7,0.3,1.1,0.4c0.6,0.2,1.1,0.4,1.7,0.6c0.6,0.2,1.1,0.5,1.5,0.8c0.5,0.3,0.8,0.7,1.1,1.2c0.3,0.5,0.4,1.1,0.4,1.8
			c0,0.7-0.1,1.3-0.4,1.9c-0.3,0.6-0.7,1.1-1.2,1.4c-0.5,0.4-1.1,0.7-1.8,0.9S248.8,111.2,248,111.2z"/>
		<path class="st2" d="M265.8,111.3c-1.2,0-2.2-0.3-3-0.8c-0.8-0.5-1.4-1.1-1.8-1.8l1.9-1.7c0.3,0.5,0.6,0.8,1,1.1
			c0.4,0.3,0.9,0.5,1.6,0.5c0.8,0,1.4-0.3,1.8-0.8c0.4-0.5,0.6-1.2,0.6-2.1V90.2h2.9v16.1c0,1.6-0.5,2.9-1.4,3.7
			C268.5,110.8,267.3,111.3,265.8,111.3z"/>
		<path class="st2" d="M281.9,111.2c-1.3,0-2.4-0.2-3.4-0.7s-1.8-1-2.5-1.8c-0.7-0.7-1.1-1.5-1.5-2.4c-0.3-0.9-0.5-1.8-0.5-2.8
			c0-0.9,0.2-1.8,0.5-2.8c0.3-0.9,0.8-1.7,1.5-2.4c0.7-0.7,1.5-1.3,2.5-1.7s2.1-0.7,3.4-0.7c1.3,0,2.4,0.2,3.4,0.7
			c1,0.5,1.8,1,2.5,1.7c0.7,0.7,1.1,1.5,1.5,2.4c0.3,0.9,0.5,1.8,0.5,2.8c0,0.9-0.2,1.8-0.5,2.8c-0.3,0.9-0.8,1.7-1.5,2.4
			c-0.7,0.7-1.5,1.3-2.5,1.8C284.3,111,283.2,111.2,281.9,111.2z M281.9,108.8c0.7,0,1.4-0.1,2-0.4c0.6-0.3,1.1-0.6,1.6-1.1
			c0.4-0.5,0.8-1,1.1-1.7c0.3-0.6,0.4-1.4,0.4-2.1s-0.1-1.5-0.4-2.1c-0.3-0.6-0.6-1.2-1.1-1.7c-0.4-0.5-1-0.8-1.6-1.1
			c-0.6-0.3-1.3-0.4-2-0.4c-0.7,0-1.4,0.1-2,0.4c-0.6,0.3-1.1,0.6-1.6,1.1c-0.4,0.5-0.8,1-1.1,1.7c-0.3,0.6-0.4,1.4-0.4,2.1
			s0.1,1.5,0.4,2.1c0.3,0.6,0.6,1.2,1.1,1.7c0.4,0.5,1,0.8,1.6,1.1C280.6,108.7,281.2,108.8,281.9,108.8z"/>
		<path class="st2" d="M298.4,111.2c-1.8,0-3.2-0.5-4.2-1.6c-1-1.1-1.4-2.5-1.4-4.4v-8.9h2.8v8.4c0,2.8,1.1,4.2,3.4,4.2
			c1.2,0,2.2-0.4,2.8-1.1c0.7-0.8,1-1.8,1-3.2v-8.3h2.8v14.6h-2.7v-1.9h-0.1c-0.4,0.6-1,1.2-1.7,1.6
			C300.5,111,299.6,111.2,298.4,111.2z"/>
		<path class="st2" d="M310,96.3h2.7v2.1h0.1c0.4-0.8,0.9-1.4,1.6-1.8s1.4-0.6,2.4-0.6c0.3,0,0.6,0,0.8,0.1c0.3,0,0.5,0.1,0.8,0.1
			v2.6c-0.2-0.1-0.5-0.2-0.9-0.2s-0.7-0.1-1-0.1c-1.2,0-2.1,0.4-2.7,1.2c-0.6,0.8-0.9,2-0.9,3.4v7.7H310V96.3z"/>
		<path class="st2" d="M321,96.3h2.7v1.9h0.1c0.4-0.6,1-1.2,1.8-1.6c0.7-0.5,1.7-0.7,2.9-0.7c1.8,0,3.2,0.5,4.2,1.6
			c1,1,1.5,2.5,1.5,4.5v8.9h-2.8v-8.4c0-1.4-0.3-2.4-0.9-3.2s-1.5-1.1-2.7-1.1c-1.2,0-2.2,0.4-2.9,1.1c-0.7,0.8-1,1.8-1,3.2v8.3H321
			V96.3z"/>
		<path class="st2" d="M344.5,111.2c-1.3,0-2.4-0.2-3.3-0.7s-1.7-1.1-2.3-1.8c-0.6-0.7-1.1-1.6-1.3-2.5s-0.4-1.8-0.4-2.8
			c0-1,0.2-2,0.5-2.9c0.3-0.9,0.8-1.7,1.5-2.4c0.6-0.7,1.4-1.2,2.3-1.7c0.9-0.4,2-0.6,3.1-0.6c1.3,0,2.4,0.3,3.3,0.8s1.6,1.2,2.1,2
			h0.1v-2.5h2.7v14.6H350v-2.5h-0.1c-0.5,0.8-1.2,1.5-2.1,2S345.8,111.2,344.5,111.2z M344.9,108.9c0.7,0,1.4-0.1,2-0.4
			s1.1-0.7,1.6-1.1c0.4-0.5,0.8-1,1-1.7c0.2-0.6,0.4-1.3,0.4-2.1c0-0.7-0.1-1.4-0.4-2.1c-0.2-0.6-0.6-1.2-1-1.7s-0.9-0.9-1.6-1.1
			c-0.6-0.3-1.3-0.4-2.1-0.4c-0.8,0-1.4,0.1-2,0.4c-0.6,0.3-1.1,0.6-1.5,1.1c-0.4,0.5-0.8,1-1,1.7c-0.2,0.6-0.4,1.3-0.4,2.1
			s0.1,1.4,0.4,2.1c0.2,0.6,0.6,1.2,1,1.7c0.4,0.5,1,0.8,1.6,1.1S344.2,108.9,344.9,108.9z"/>
		<path class="st2" d="M357.1,90.2h2.8v20.7h-2.8V90.2z"/>
	</g>
</g>
<g class="st1">
	<path d="M32,88.6c-4.2,0-7.9-0.8-10.8-2.3c-3-1.5-5.4-3.5-7.2-5.8c-1.8-2.3-3.2-5-4-7.9c-0.9-2.9-1.3-5.7-1.3-8.5
		c0-3.4,0.6-6.5,1.7-9.4c1.1-2.9,2.7-5.4,4.8-7.5c2.1-2.1,4.5-3.8,7.4-5c2.9-1.2,6-1.8,9.5-1.8c2,0,3.7,0.2,5.3,0.6
		c1.6,0.4,2.9,0.9,4.2,1.6c1.2,0.7,2.3,1.4,3.1,2.3c0.9,0.9,1.6,1.7,2.3,2.6h0.1V22.2h13.6v65.3H47.8v-6.6h-0.2
		c-1.6,2.1-3.6,4-6.1,5.5C39,87.9,35.8,88.6,32,88.6z M34.8,77.5c1.9,0,3.6-0.3,5.1-1c1.5-0.7,2.8-1.6,3.9-2.8
		c1.1-1.2,1.9-2.6,2.5-4.1c0.6-1.6,0.8-3.3,0.8-5.1c0-1.7-0.3-3.4-0.8-4.9c-0.5-1.6-1.3-2.9-2.4-4.1c-1.1-1.2-2.4-2.2-3.9-2.9
		c-1.5-0.7-3.3-1.1-5.3-1.1c-2,0-3.8,0.4-5.3,1.1c-1.5,0.7-2.8,1.7-3.9,2.8c-1,1.2-1.8,2.5-2.4,4.1c-0.5,1.6-0.8,3.2-0.8,5
		c0,1.8,0.3,3.5,0.8,5.1c0.6,1.6,1.4,3,2.5,4.1c1.1,1.2,2.4,2.1,3.9,2.8C31.2,77.2,32.9,77.5,34.8,77.5z"/>
	<path d="M87.6,88.6c-4.3,0-8.1-0.7-11.3-2.2s-5.9-3.3-8.1-5.6c-2.2-2.3-3.8-4.9-4.8-7.8c-1.1-2.9-1.6-5.8-1.6-8.6
		c0-2.8,0.5-5.7,1.6-8.6c1.1-2.9,2.7-5.5,4.8-7.8s4.8-4.1,8.1-5.6c3.2-1.4,7-2.1,11.3-2.1c4.3,0,8.1,0.7,11.3,2.1
		c3.2,1.4,5.9,3.3,8.1,5.6c2.2,2.3,3.8,4.9,4.8,7.8c1.1,2.9,1.6,5.8,1.6,8.6c0,2.8-0.5,5.7-1.6,8.6c-1.1,2.9-2.7,5.5-4.8,7.8
		c-2.2,2.3-4.8,4.1-8.1,5.6C95.7,87.9,91.9,88.6,87.6,88.6z M87.6,77.4c1.7,0,3.3-0.3,4.8-0.9c1.5-0.6,2.8-1.4,3.9-2.6
		c1.1-1.1,2-2.5,2.6-4c0.6-1.6,0.9-3.4,0.9-5.4c0-1.9-0.3-3.7-0.9-5.2c-0.6-1.6-1.5-2.9-2.6-4.1c-1.1-1.1-2.4-2-3.9-2.6
		c-1.5-0.6-3.1-0.9-4.8-0.9c-1.7,0-3.3,0.3-4.8,0.9c-1.5,0.6-2.8,1.5-3.9,2.6c-1.1,1.1-2,2.5-2.6,4.1c-0.6,1.6-0.9,3.3-0.9,5.2
		c0,2,0.3,3.8,0.9,5.4c0.6,1.6,1.5,2.9,2.6,4c1.1,1.1,2.4,2,3.9,2.6C84.3,77.1,85.9,77.4,87.6,77.4z"/>
</g>
<circle class="st3" cx="61" cy="61.6" r="55.4"/>
<path d="M160.5,36.7c-2.8-3-6.2-5-12-5c-9.5,0-20.1,8.1-20.1,21.9c0,13.2,10.1,21.8,20.1,21.8c6.7,0,10.8-3.4,12.6-6.4h0.1v5h8.7
	V19.4h-9.5L160.5,36.7L160.5,36.7z M149.5,66.4c-6.2,0-11.7-5.5-11.7-13.1c0-5.8,4.6-12.6,11.7-12.6c6.7,0,11.7,6.1,11.7,12.9
	C161.2,59.7,156.6,66.4,149.5,66.4 M266.2,38.2h-0.1c-3.1-4.1-8-6.5-13.1-6.6c-11,0-19.8,9.1-19.8,21.6c0,13.7,9,22.1,19.2,22.1
	c5.3-0.2,10.3-2.5,13.8-6.4v5.1h8.7v-41h-8.7L266.2,38.2L266.2,38.2z M254.4,66.4c-6.8,0-11.7-5.7-11.7-12.6c0-6.1,4-13.1,11.7-13.1
	c5.6,0,11.5,4.3,11.5,12.8C265.9,61.1,260.9,66.4,254.4,66.4 M219.5,74.1h9.5V19.4h-9.5C219.5,19.4,219.5,74.1,219.5,74.1z
	 M322.9,33.1l-7.3,25h-0.1l-6.4-25h-7.5l-6.5,25h-0.1l-7.2-25h-10.1l14.2,41h5.8l7.5-26.6h0.1l7.4,26.6h5.8l14.4-41L322.9,33.1
	L322.9,33.1z M194.5,31.4c-12.2,0-20.8,10.6-20.8,22.2c0,12,9.1,21.7,20.9,21.7c8.4,0,15.4-5.6,18.3-12.2h-10.6
	c-2,2.2-4.8,3.3-7.7,3.2c-5.1,0-9.6-3.5-10.9-8.4h30.7c0.4-1.6,0.6-3.3,0.6-5C214.9,42.7,207,31.4,194.5,31.4 M183.4,50.1
	c1.8-7.6,7.7-9.6,11.2-9.6c4.7,0,9.6,3,10.7,9.6H183.4z M419.8,31.4c-12.2,0-20.8,10.6-20.8,22.2c0,12,9.1,21.7,20.9,21.7
	c8.4,0,15.4-5.7,18.3-12.2h-10.6c-2,2.2-4.8,3.3-7.7,3.2c-5.1-0.1-9.6-3.5-10.9-8.4h30.7c0.4-1.6,0.6-3.3,0.6-5
	C440.2,42.7,432.3,31.4,419.8,31.4 M408.7,50.1c1.8-7.6,7.7-9.6,11.2-9.6c4.7,0,9.6,3,10.7,9.6H408.7L408.7,50.1z M365.2,38.2H365
	c-3.1-4.1-8-6.5-13.1-6.6c-11,0-19.8,9.1-19.8,21.6c0,13.7,9,22.1,19.2,22.1c5.3-0.2,10.3-2.5,13.8-6.4v5.1h8.7v-41h-8.7L365.2,38.2
	L365.2,38.2z M353.3,66.4c-6.8,0-11.7-5.7-11.7-12.6c0-6.1,4-13.1,11.7-13.1c5.6,0,11.5,4.3,11.5,12.8
	C364.9,61.1,359.9,66.4,353.3,66.4 M389.1,36.7h-0.1v-3.6h-8.7v41h9.5V51c0-2.4,0-9.5,8.6-9.8v-9.5h-0.8
	C392.6,31.7,390.8,34,389.1,36.7 M645.2,53c0-10.3-7.9-21.6-20.4-21.6c-12.2,0-20.8,10.6-20.8,22.2c0,12,9.1,21.7,20.9,21.7
	c8.4,0,15.3-5.6,18.3-12.1h-10.6c-2,2.1-4.8,3.2-7.6,3.1c-5.1-0.1-9.6-3.5-10.9-8.4h30.7C645,56.3,645.2,54.7,645.2,53 M613.7,50.1
	c1.8-7.6,7.7-9.6,11.2-9.6c4.7,0,9.6,3,10.7,9.6C635.5,50.1,613.7,50.1,613.7,50.1z M533,74.1h9.5V19.4H533V74.1z M466.6,31.7
	c-11.3,0-21.1,9.5-21.1,21.9c0,11.7,9.3,21.8,21.1,21.8c11,0,20.9-8.5,20.9-21.9C487.6,40.9,477.8,31.7,466.6,31.7 M466.6,66.4
	c-6,0-11.6-5-11.6-12.8c0-8.6,6.7-12.9,11.6-12.9c5.9,0,11.5,5.5,11.5,13C478.1,60.2,473.5,66.4,466.6,66.4 M548.6,74.1h9.5v-41
	h-9.5V74.1z M511.3,31.7c-4.1,0-8.1,1.8-10.8,5v-3.5h-8.8v41h9.5V54.6c0-3.5,0-7.8,1.7-10.3c1.4-2.2,3.9-3.5,6.5-3.6
	c8,0,8,9.7,8,13.1v20.2h9.5V51.9c0-3.2,0-10-3.6-14.6C520.3,33.8,515.9,31.7,511.3,31.7 M583.9,31.7c-4.1,0-8.1,1.8-10.8,5v-3.5
	h-8.8v41h9.5V54.6c0-3.5,0-7.8,1.7-10.3c1.4-2.2,3.9-3.5,6.5-3.6c8,0,8,9.7,8,13.1v20.2h9.5V51.9c0-3.2,0-10-3.6-14.6
	C592.8,33.8,588.5,31.7,583.9,31.7 M548.6,28.4h9.5v-9h-9.5C548.6,19.4,548.6,28.4,548.6,28.4z"/>
</svg>
