<svg xmlns="http://www.w3.org/2000/svg" width="565" height="47" viewBox="0 0 565 47">
  <g fill="none" fill-rule="evenodd">
    <polyline fill="#009BFF" class='no-color-change' points="26.726 34.642 21.776 14.752 16.826 34.642 7.961 34.642 .356 4.042 8.456 4.042 13.091 24.922 18.221 4.042 25.376 4.042 30.461 24.787 35.231 4.042 43.196 4.042 35.591 34.642 26.726 34.642"/>
    <path fill="#009BFF" class='no-color-change' d="M46.796 34.642L46.796 11.737C48.056 12.007 49.331 12.142 50.621 12.142 51.941 12.142 53.276 12.007 54.626 11.737L54.626 34.642 46.796 34.642zM50.621 9.937C49.331 9.937 48.228 9.48 47.313 8.565 46.398 7.65 45.941 6.547 45.941 5.257 45.941 3.968 46.398 2.865 47.313 1.95 48.228 1.035 49.331.577 50.621.577 51.911.577 53.013 1.035 53.928 1.95 54.843 2.865 55.301 3.968 55.301 5.257 55.301 6.547 54.843 7.65 53.928 8.565 53.013 9.48 51.911 9.937 50.621 9.937zM68.621 35.227C66.641 35.227 64.788 34.912 63.063 34.282 61.338 33.652 59.785 32.752 58.406 31.582L61.736 27.172C62.785 28.012 63.918 28.695 65.133 29.22 66.348 29.745 67.54 30.007 68.711 30.007 69.49 30.007 70.113 29.872 70.578 29.602 71.043 29.332 71.276 28.927 71.276 28.387 71.276 27.818 71.013 27.36 70.488 27.015 69.963 26.67 69.026 26.332 67.676 26.002L65.516 25.462C61.225 24.323 59.08 22.028 59.08 18.577 59.08 17.047 59.501 15.727 60.34 14.618 61.18 13.508 62.335 12.653 63.806 12.052 65.275 11.452 66.985 11.152 68.936 11.152 70.855 11.152 72.663 11.452 74.358 12.052 76.053 12.653 77.605 13.522 79.016 14.662L75.596 19.162C74.545 18.323 73.436 17.648 72.266 17.137 71.096 16.627 70 16.372 68.981 16.372 67.33 16.372 66.506 16.912 66.506 17.993 66.506 18.472 66.753 18.863 67.248 19.162 67.743 19.462 68.441 19.733 69.341 19.972L72.266 20.782C74.455 21.383 76.075 22.283 77.125 23.482 78.175 24.682 78.701 26.108 78.701 27.757 78.701 29.258 78.28 30.57 77.441 31.695 76.6 32.82 75.423 33.69 73.908 34.305 72.393 34.919 70.63 35.227 68.621 35.227M93.686 35.227C91.345 35.227 89.268 34.724 87.453 33.72 85.637 32.715 84.205 31.312 83.155 29.512 82.105 27.712 81.581 25.613 81.581 23.212 81.581 20.812 82.105 18.712 83.155 16.912 84.205 15.112 85.637 13.71 87.453 12.704 89.268 11.7 91.345 11.197 93.686 11.197 95.755 11.197 97.57 11.579 99.13 12.345 100.69 13.11 102.07 14.332 103.27 16.012L98.095 19.792C97.675 19.162 97.128 18.645 96.453 18.24 95.778 17.834 95.05 17.632 94.27 17.632 92.92 17.632 91.795 18.135 90.895 19.14 89.995 20.145 89.545 21.502 89.545 23.212 89.545 24.922 89.995 26.28 90.895 27.285 91.795 28.29 92.92 28.792 94.27 28.792 95.05 28.792 95.778 28.59 96.453 28.185 97.128 27.78 97.675 27.262 98.095 26.632L103.27 30.412C102.07 32.093 100.69 33.315 99.13 34.079 97.57 34.845 95.755 35.227 93.686 35.227M117.895 29.017C119.274 29.017 120.377 28.485 121.202 27.42 122.027 26.355 122.44 24.938 122.44 23.167 122.44 21.397 122.027 19.988 121.202 18.937 120.377 17.887 119.274 17.362 117.895 17.362 116.515 17.362 115.412 17.887 114.587 18.937 113.762 19.988 113.35 21.397 113.35 23.167 113.35 24.938 113.762 26.355 114.587 27.42 115.412 28.485 116.515 29.017 117.895 29.017zM117.895 35.227C115.435 35.227 113.267 34.709 111.392 33.675 109.517 32.64 108.047 31.222 106.982 29.422 105.917 27.622 105.385 25.537 105.385 23.167 105.385 20.798 105.917 18.712 106.982 16.912 108.047 15.112 109.517 13.702 111.392 12.682 113.267 11.662 115.435 11.152 117.895 11.152 120.354 11.152 122.522 11.662 124.397 12.682 126.272 13.702 127.742 15.112 128.807 16.912 129.872 18.712 130.405 20.798 130.405 23.167 130.405 25.537 129.872 27.622 128.807 29.422 127.742 31.222 126.272 32.64 124.397 33.675 122.522 34.709 120.354 35.227 117.895 35.227zM142.33 21.997L142.33 34.642 134.5 34.642 134.5 11.737 141.655 11.737 142.06 14.752C142.809 13.672 143.785 12.802 144.985 12.142 146.184 11.483 147.505 11.152 148.945 11.152 151.435 11.152 153.429 11.962 154.93 13.582 156.43 15.202 157.18 17.528 157.18 20.557L157.18 34.642 149.35 34.642 149.35 21.457C149.35 20.107 149.05 19.11 148.45 18.465 147.849 17.82 147.01 17.497 145.93 17.497 144.85 17.497 143.979 17.842 143.32 18.532 142.66 19.223 142.33 20.377 142.33 21.997M170.769 35.227C168.789 35.227 166.936 34.912 165.212 34.282 163.486 33.652 161.934 32.752 160.554 31.582L163.884 27.172C164.934 28.012 166.067 28.695 167.282 29.22 168.497 29.745 169.689 30.007 170.859 30.007 171.639 30.007 172.261 29.872 172.727 29.602 173.192 29.332 173.424 28.927 173.424 28.387 173.424 27.818 173.161 27.36 172.637 27.015 172.112 26.67 171.174 26.332 169.824 26.002L167.664 25.462C163.374 24.323 161.229 22.028 161.229 18.577 161.229 17.047 161.649 15.727 162.489 14.618 163.329 13.508 164.484 12.653 165.954 12.052 167.424 11.452 169.134 11.152 171.084 11.152 173.004 11.152 174.811 11.452 176.507 12.052 178.201 12.653 179.754 13.522 181.164 14.662L177.744 19.162C176.694 18.323 175.584 17.648 174.414 17.137 173.244 16.627 172.149 16.372 171.129 16.372 169.479 16.372 168.654 16.912 168.654 17.993 168.654 18.472 168.902 18.863 169.397 19.162 169.892 19.462 170.589 19.733 171.489 19.972L174.414 20.782C176.604 21.383 178.224 22.283 179.274 23.482 180.324 24.682 180.849 26.108 180.849 27.757 180.849 29.258 180.429 30.57 179.589 31.695 178.749 32.82 177.571 33.69 176.057 34.305 174.541 34.919 172.779 35.227 170.769 35.227M185.124 34.642L185.124 11.737C186.384 12.007 187.659 12.142 188.949 12.142 190.269 12.142 191.604 12.007 192.954 11.737L192.954 34.642 185.124 34.642zM188.949 9.937C187.659 9.937 186.556 9.48 185.642 8.565 184.726 7.65 184.269 6.547 184.269 5.257 184.269 3.968 184.726 2.865 185.642 1.95 186.556 1.035 187.659.577 188.949.577 190.239.577 191.341 1.035 192.257 1.95 193.171 2.865 193.629 3.968 193.629 5.257 193.629 6.547 193.171 7.65 192.257 8.565 191.341 9.48 190.239 9.937 188.949 9.937zM206.274 21.997L206.274 34.642 198.444 34.642 198.444 11.737 205.599 11.737 206.004 14.752C206.753 13.672 207.728 12.802 208.929 12.142 210.128 11.483 211.449 11.152 212.889 11.152 215.378 11.152 217.373 11.962 218.874 13.582 220.374 15.202 221.124 17.528 221.124 20.557L221.124 34.642 213.294 34.642 213.294 21.457C213.294 20.107 212.993 19.11 212.394 18.465 211.793 17.82 210.954 17.497 209.874 17.497 208.794 17.497 207.923 17.842 207.264 18.532 206.603 19.223 206.274 20.377 206.274 21.997M245.738 18.127L250.238 18.127C251.527 18.127 252.547 17.789 253.298 17.115 254.047 16.44 254.423 15.517 254.423 14.347 254.423 13.238 254.047 12.345 253.298 11.67 252.547 10.994 251.527 10.657 250.238 10.657L245.738 10.657 245.738 18.127zM245.738 24.472L245.738 34.642 237.638 34.642 237.638 4.042 251.138 4.042C254.738 4.042 257.587 4.965 259.688 6.81 261.787 8.655 262.838 11.167 262.838 14.347 262.838 16.417 262.372 18.202 261.443 19.702 260.512 21.202 259.207 22.372 257.528 23.212L263.783 34.642 254.873 34.642 249.788 24.472 245.738 24.472zM273.368 27.217C273.368 27.908 273.623 28.47 274.133 28.905 274.643 29.34 275.303 29.557 276.113 29.557 277.193 29.557 278.1 29.19 278.835 28.454 279.57 27.72 279.938 26.797 279.938 25.687L279.938 24.922C279.128 24.772 278.273 24.697 277.373 24.697 276.232 24.697 275.28 24.893 274.516 25.282 273.75 25.672 273.368 26.317 273.368 27.217zM280.253 34.642L279.848 31.627C278.348 34.028 276.068 35.227 273.008 35.227 271.658 35.227 270.435 34.935 269.341 34.35 268.245 33.765 267.375 32.962 266.73 31.942 266.085 30.923 265.763 29.737 265.763 28.387 265.763 25.838 266.76 23.858 268.756 22.447 270.75 21.037 273.383 20.332 276.653 20.332 277.673 20.332 278.752 20.422 279.893 20.602 279.773 19.462 279.285 18.6 278.43 18.015 277.575 17.43 276.533 17.137 275.303 17.137 274.223 17.137 273.135 17.34 272.04 17.744 270.945 18.15 269.903 18.637 268.913 19.207L266.258 14.167C267.758 13.207 269.378 12.465 271.118 11.94 272.857 11.415 274.598 11.152 276.338 11.152 278.437 11.152 280.328 11.512 282.008 12.232 283.688 12.952 285.008 14.048 285.968 15.517 286.927 16.988 287.408 18.847 287.408 21.097L287.408 34.642 280.253 34.642zM304.598 29.017C305.977 29.017 307.08 28.485 307.905 27.42 308.73 26.355 309.143 24.938 309.143 23.167 309.143 21.397 308.73 19.98 307.905 18.914 307.08 17.85 305.977 17.317 304.598 17.317 303.248 17.317 302.16 17.85 301.335 18.914 300.51 19.98 300.098 21.397 300.098 23.167 300.098 24.938 300.51 26.355 301.335 27.42 302.16 28.485 303.248 29.017 304.598 29.017zM306.713 35.227C305.363 35.227 304.133 34.942 303.023 34.372 301.913 33.803 300.982 33.022 300.233 32.032L300.233 42.967 292.403 42.967 292.403 11.737 299.558 11.737 299.963 14.752C300.683 13.672 301.65 12.802 302.865 12.142 304.08 11.483 305.482 11.152 307.073 11.152 309.023 11.152 310.747 11.662 312.248 12.682 313.748 13.702 314.932 15.112 315.803 16.912 316.673 18.712 317.108 20.798 317.108 23.167 317.108 25.537 316.665 27.63 315.78 29.445 314.895 31.26 313.665 32.678 312.091 33.697 310.515 34.717 308.722 35.227 306.713 35.227zM321.203 34.642L321.203 11.737C322.463 12.007 323.738 12.142 325.028 12.142 326.347 12.142 327.683 12.007 329.033 11.737L329.033 34.642 321.203 34.642zM325.028 9.937C323.738 9.937 322.635 9.48 321.72 8.565 320.805 7.65 320.348 6.547 320.348 5.257 320.348 3.968 320.805 2.865 321.72 1.95 322.635 1.035 323.738.577 325.028.577 326.318.577 327.42 1.035 328.335 1.95 329.25 2.865 329.708 3.968 329.708 5.257 329.708 6.547 329.25 7.65 328.335 8.565 327.42 9.48 326.318 9.937 325.028 9.937zM345.637 29.017C346.987 29.017 348.074 28.485 348.9 27.42 349.724 26.355 350.137 24.938 350.137 23.167 350.137 21.397 349.724 19.98 348.9 18.914 348.074 17.85 346.987 17.317 345.637 17.317 344.257 17.317 343.155 17.85 342.33 18.914 341.504 19.98 341.092 21.397 341.092 23.167 341.092 24.938 341.504 26.355 342.33 27.42 343.155 28.485 344.257 29.017 345.637 29.017zM350.677 34.642L350.272 31.627C349.552 32.738 348.622 33.615 347.482 34.26 346.342 34.905 345.022 35.227 343.522 35.227 341.452 35.227 339.637 34.717 338.077 33.697 336.517 32.678 335.302 31.26 334.432 29.445 333.562 27.63 333.127 25.537 333.127 23.167 333.127 20.798 333.562 18.712 334.432 16.912 335.302 15.112 336.494 13.702 338.009 12.682 339.524 11.662 341.272 11.152 343.252 11.152 344.632 11.152 345.907 11.445 347.077 12.03 348.247 12.615 349.222 13.402 350.002 14.392L350.002 1.792 357.832 1.792 357.832 34.642 350.677 34.642zM371.827 35.227C369.847 35.227 367.994 34.912 366.27 34.282 364.544 33.652 362.992 32.752 361.612 31.582L364.942 27.172C365.992 28.012 367.125 28.695 368.34 29.22 369.555 29.745 370.747 30.007 371.917 30.007 372.697 30.007 373.319 29.872 373.785 29.602 374.25 29.332 374.482 28.927 374.482 28.387 374.482 27.818 374.219 27.36 373.695 27.015 373.17 26.67 372.232 26.332 370.882 26.002L368.722 25.462C364.432 24.323 362.287 22.028 362.287 18.577 362.287 17.047 362.707 15.727 363.547 14.618 364.387 13.508 365.542 12.653 367.012 12.052 368.482 11.452 370.192 11.152 372.142 11.152 374.062 11.152 375.869 11.452 377.565 12.052 379.259 12.653 380.812 13.522 382.222 14.662L378.802 19.162C377.752 18.323 376.642 17.648 375.472 17.137 374.302 16.627 373.207 16.372 372.187 16.372 370.537 16.372 369.712 16.912 369.712 17.993 369.712 18.472 369.96 18.863 370.455 19.162 370.95 19.462 371.647 19.733 372.547 19.972L375.472 20.782C377.662 21.383 379.282 22.283 380.332 23.482 381.382 24.682 381.907 26.108 381.907 27.757 381.907 29.258 381.487 30.57 380.647 31.695 379.807 32.82 378.629 33.69 377.115 34.305 375.599 34.919 373.837 35.227 371.827 35.227"/>
    <polyline fill="#404040" points="404.362 34.642 404.362 10.792 395.272 10.792 395.272 4.042 421.822 4.042 421.822 10.792 412.732 10.792 412.732 34.642 404.362 34.642"/>
    <path fill="#404040" d="M432.306 25.777L432.306 34.642 424.476 34.642 424.476 11.737 431.631 11.737 432.126 15.562C432.606 14.332 433.393 13.334 434.489 12.57 435.584 11.805 436.851 11.422 438.291 11.422 439.101 11.422 439.716 11.528 440.136 11.737L440.136 18.892C439.806 18.773 439.439 18.683 439.034 18.622 438.629 18.562 438.171 18.532 437.661 18.532 436.101 18.532 434.819 19.11 433.814 20.265 432.808 21.42 432.306 23.257 432.306 25.777M443.916 34.642L443.916 11.737C445.176 12.007 446.451 12.142 447.741 12.142 449.061 12.142 450.396 12.007 451.746 11.737L451.746 34.642 443.916 34.642M469.476 29.017C470.825 29.017 471.912 28.485 472.738 27.42 473.563 26.355 473.975 24.938 473.975 23.167 473.975 21.397 473.563 19.98 472.738 18.914 471.912 17.85 470.825 17.317 469.476 17.317 468.095 17.317 466.993 17.85 466.168 18.914 465.342 19.98 464.93 21.397 464.93 23.167 464.93 24.938 465.342 26.355 466.168 27.42 466.993 28.485 468.095 29.017 469.476 29.017zM481.941 23.167C481.941 25.568 481.49 27.675 480.591 29.49 479.691 31.305 478.46 32.715 476.901 33.72 475.34 34.724 473.571 35.227 471.591 35.227 469.97 35.227 468.598 34.89 467.473 34.215 466.348 33.539 465.455 32.678 464.796 31.627L464.39 34.642 457.236 34.642 457.236 1.792 465.066 1.792 465.066 14.347C465.815 13.357 466.776 12.577 467.946 12.007 469.115 11.438 470.51 11.152 472.131 11.152 473.93 11.152 475.573 11.662 477.058 12.682 478.543 13.702 479.728 15.112 480.613 16.912 481.497 18.712 481.941 20.798 481.941 23.167zM501.155 34.642L500.75 31.627C500 32.738 499.018 33.615 497.803 34.26 496.588 34.905 495.275 35.227 493.865 35.227 491.195 35.227 489.155 34.44 487.745 32.865 486.335 31.289 485.63 29.017 485.63 26.047L485.63 11.737 493.46 11.737 493.46 25.147C493.46 27.638 494.6 28.882 496.88 28.882 499.28 28.882 500.48 27.382 500.48 24.382L500.48 11.737 508.31 11.737 508.31 34.642 501.155 34.642M521.63 21.997L521.63 34.642 513.8 34.642 513.8 11.737 520.955 11.737 521.36 14.752C522.11 13.672 523.085 12.802 524.285 12.142 525.485 11.483 526.805 11.152 528.245 11.152 530.735 11.152 532.729 11.962 534.23 13.582 535.73 15.202 536.48 17.528 536.48 20.557L536.48 34.642 528.65 34.642 528.65 21.457C528.65 20.107 528.35 19.11 527.75 18.465 527.15 17.82 526.31 17.497 525.23 17.497 524.15 17.497 523.279 17.842 522.62 18.532 521.96 19.223 521.63 20.377 521.63 21.997M552.409 16.822C549.859 16.822 548.329 18.172 547.82 20.872L556.549 20.872C556.339 19.403 555.837 18.36 555.042 17.744 554.247 17.13 553.369 16.822 552.409 16.822zM563.119 32.302C561.979 33.112 560.532 33.803 558.777 34.372 557.022 34.942 555.154 35.227 553.174 35.227 550.445 35.227 548.112 34.724 546.177 33.72 544.242 32.715 542.757 31.312 541.722 29.512 540.687 27.712 540.17 25.642 540.17 23.302 540.17 20.933 540.679 18.832 541.699 17.002 542.719 15.173 544.13 13.74 545.929 12.704 547.73 11.67 549.829 11.152 552.23 11.152 554.57 11.152 556.632 11.655 558.417 12.66 560.201 13.665 561.596 15.06 562.602 16.845 563.607 18.63 564.11 20.722 564.11 23.122 564.11 23.452 564.087 23.797 564.042 24.157 563.997 24.517 563.945 24.893 563.884 25.282L547.909 25.282C548.63 27.922 550.594 29.243 553.804 29.243 555.244 29.243 556.519 29.017 557.63 28.567 558.739 28.118 559.669 27.667 560.42 27.217L563.119 32.302zM8.668 43.773L9.751 43.773C10.106 43.773 10.387 43.686 10.594 43.51 10.801 43.335 10.905 43.096 10.905 42.793 10.905 42.49 10.801 42.251 10.594 42.076 10.387 41.9 10.106 41.812 9.751 41.812L8.668 41.812 8.668 43.773zM7.865 46.556L7.865 41.135 9.751 41.135C10.356 41.135 10.836 41.283 11.191 41.581 11.547 41.879 11.724 42.283 11.724 42.793 11.724 43.298 11.547 43.698 11.191 43.993 10.836 44.287 10.356 44.435 9.751 44.435L8.668 44.435 8.668 46.556 7.865 46.556zM13.348 44.515L15.322 44.515 14.335 41.972 13.348 44.515zM16.11 46.556L15.585 45.192 13.085 45.192 12.56 46.556 11.748 46.556 13.913 41.135 14.781 41.135 16.938 46.556 16.11 46.556zM18.641 43.693L19.747 43.693C20.092 43.693 20.366 43.609 20.571 43.439 20.775 43.269 20.877 43.04 20.877 42.753 20.877 42.466 20.775 42.238 20.571 42.067 20.366 41.897 20.092 41.812 19.747 41.812L18.641 41.812 18.641 43.693zM18.641 44.355L18.641 46.556 17.837 46.556 17.837 41.135 19.747 41.135C20.346 41.135 20.821 41.279 21.172 41.569 21.522 41.859 21.697 42.253 21.697 42.753 21.697 43.131 21.591 43.449 21.379 43.71 21.166 43.97 20.874 44.154 20.503 44.26L21.816 46.556 20.901 46.556 19.668 44.355 18.641 44.355z"/>
    <polyline fill="#404040" points="24.005 46.556 24.005 41.812 22.182 41.812 22.182 41.135 26.631 41.135 26.631 41.812 24.809 41.812 24.809 46.556 24.005 46.556"/>
    <path fill="#404040" d="M31.796,45.942 C32.147,45.942 32.458,45.853 32.731,45.675 C33.004,45.497 33.218,45.251 33.372,44.937 C33.526,44.624 33.603,44.26 33.603,43.845 C33.603,43.43 33.526,43.066 33.372,42.753 C33.218,42.439 33.004,42.194 32.731,42.016 C32.458,41.838 32.147,41.748 31.796,41.748 C31.446,41.748 31.136,41.838 30.865,42.016 C30.594,42.194 30.382,42.439 30.228,42.753 C30.074,43.066 29.997,43.43 29.997,43.845 C29.997,44.26 30.074,44.624 30.228,44.937 C30.382,45.251 30.594,45.497 30.865,45.675 C31.136,45.853 31.446,45.942 31.796,45.942 Z M31.796,46.644 C31.287,46.644 30.836,46.524 30.443,46.285 C30.051,46.045 29.742,45.716 29.516,45.296 C29.291,44.876 29.178,44.393 29.178,43.845 C29.178,43.298 29.291,42.814 29.516,42.394 C29.742,41.974 30.051,41.645 30.443,41.406 C30.836,41.166 31.287,41.047 31.796,41.047 C32.306,41.047 32.758,41.166 33.153,41.406 C33.548,41.645 33.859,41.974 34.084,42.394 C34.31,42.814 34.423,43.298 34.423,43.845 C34.423,44.393 34.31,44.876 34.084,45.296 C33.859,45.716 33.548,46.045 33.153,46.285 C32.758,46.524 32.306,46.644 31.796,46.644 Z"/>
    <polyline fill="#404040" points="36.357 46.556 35.553 46.556 35.553 41.135 38.919 41.135 38.919 41.812 36.357 41.812 36.357 43.646 38.529 43.646 38.529 44.323 36.357 44.323 36.357 46.556"/>
    <polyline fill="#404040" points="43.113 46.556 43.113 41.812 41.291 41.812 41.291 41.135 45.74 41.135 45.74 41.812 43.917 41.812 43.917 46.556 43.113 46.556"/>
    <polyline fill="#404040" points="46.663 46.556 46.663 41.135 47.467 41.135 47.467 43.454 50.26 43.454 50.26 41.135 51.064 41.135 51.064 46.556 50.26 46.556 50.26 44.148 47.467 44.148 47.467 46.556 46.663 46.556"/>
    <polyline fill="#404040" points="52.481 46.556 52.481 41.135 55.951 41.135 55.951 41.812 53.285 41.812 53.285 43.486 55.632 43.486 55.632 44.164 53.285 44.164 53.285 45.878 56.014 45.878 56.014 46.556 52.481 46.556"/>
    <path fill="#404040" d="M61.092 45.942C61.532 45.942 61.879 45.809 62.131 45.543 62.382 45.278 62.509 44.919 62.509 44.467L62.509 41.135 63.312 41.135 63.312 44.475C63.312 45.15 63.115 45.68 62.72 46.065 62.324 46.451 61.782 46.644 61.092 46.644 60.402 46.644 59.861 46.451 59.468 46.065 59.076 45.68 58.879 45.15 58.879 44.475L58.879 41.135 59.683 41.135 59.683 44.467C59.683 44.919 59.809 45.278 60.061 45.543 60.313 45.809 60.657 45.942 61.092 45.942M66.313 46.644C65.904 46.644 65.514 46.571 65.143 46.428 64.771 46.285 64.471 46.093 64.243 45.854L64.697 45.32C64.909 45.517 65.16 45.671 65.449 45.782 65.738 45.894 66.026 45.95 66.313 45.95 66.663 45.95 66.946 45.882 67.16 45.746 67.375 45.611 67.483 45.423 67.483 45.185 67.483 44.966 67.406 44.783 67.252 44.634 67.098 44.486 66.835 44.361 66.464 44.26L65.716 44.06C65.233 43.933 64.881 43.752 64.661 43.518 64.441 43.284 64.331 42.979 64.331 42.602 64.331 42.293 64.413 42.022 64.578 41.788 64.742 41.554 64.969 41.373 65.258 41.242 65.547 41.112 65.875 41.047 66.241 41.047 66.628 41.047 66.992 41.12 67.331 41.266 67.671 41.412 67.971 41.616 68.231 41.876L67.745 42.402C67.517 42.19 67.28 42.026 67.033 41.912 66.786 41.798 66.525 41.74 66.249 41.74 65.915 41.74 65.641 41.811 65.429 41.952 65.217 42.093 65.111 42.288 65.111 42.537 65.111 42.766 65.187 42.944 65.338 43.072 65.489 43.199 65.721 43.306 66.034 43.391L66.87 43.622C67.353 43.755 67.706 43.941 67.928 44.18 68.151 44.419 68.263 44.717 68.263 45.073 68.263 45.387 68.18 45.661 68.016 45.898 67.851 46.135 67.623 46.318 67.331 46.448 67.04 46.578 66.7 46.644 66.313 46.644M70.284 44.515L72.258 44.515 71.271 41.972 70.284 44.515zM73.046 46.556L72.521 45.192 70.022 45.192 69.496 46.556 68.685 46.556 70.849 41.135 71.717 41.135 73.874 46.556 73.046 46.556z"/>
    <polyline fill="#404040" points="77.614 46.556 77.614 41.812 75.792 41.812 75.792 41.135 80.241 41.135 80.241 41.812 78.418 41.812 78.418 46.556 77.614 46.556"/>
    <path fill="#404040" d="M83.138 45.942C83.488 45.942 83.799 45.853 84.073 45.675 84.346 45.497 84.56 45.251 84.713 44.937 84.867 44.624 84.944 44.26 84.944 43.845 84.944 43.43 84.867 43.066 84.713 42.753 84.56 42.439 84.346 42.194 84.073 42.016 83.799 41.838 83.488 41.748 83.138 41.748 82.787 41.748 82.477 41.838 82.207 42.016 81.936 42.194 81.723 42.439 81.57 42.753 81.416 43.066 81.339 43.43 81.339 43.845 81.339 44.26 81.416 44.624 81.57 44.937 81.723 45.251 81.936 45.497 82.207 45.675 82.477 45.853 82.787 45.942 83.138 45.942zM83.138 46.644C82.628 46.644 82.177 46.524 81.785 46.285 81.392 46.045 81.083 45.716 80.857 45.296 80.632 44.876 80.519 44.393 80.519 43.845 80.519 43.298 80.632 42.814 80.857 42.394 81.083 41.974 81.392 41.645 81.785 41.406 82.177 41.166 82.628 41.047 83.138 41.047 83.647 41.047 84.099 41.166 84.495 41.406 84.89 41.645 85.2 41.974 85.426 42.394 85.651 42.814 85.764 43.298 85.764 43.845 85.764 44.393 85.651 44.876 85.426 45.296 85.2 45.716 84.89 46.045 84.495 46.285 84.099 46.524 83.647 46.644 83.138 46.644zM87.698 45.878L88.796 45.878C89.178 45.878 89.506 45.794 89.779 45.627 90.052 45.46 90.262 45.225 90.408 44.921 90.554 44.618 90.627 44.26 90.627 43.845 90.627 43.43 90.554 43.072 90.408 42.769 90.262 42.466 90.052 42.231 89.779 42.063 89.506 41.896 89.178 41.812 88.796 41.812L87.698 41.812 87.698 45.878zM86.894 46.556L86.894 41.135 88.796 41.135C89.327 41.135 89.791 41.248 90.189 41.474 90.587 41.699 90.896 42.016 91.116 42.422 91.336 42.828 91.446 43.303 91.446 43.845 91.446 44.387 91.336 44.862 91.116 45.268 90.896 45.675 90.587 45.991 90.189 46.217 89.791 46.443 89.327 46.556 88.796 46.556L86.894 46.556zM93.5 44.515L95.474 44.515 94.487 41.972 93.5 44.515zM96.261 46.556L95.736 45.192 93.237 45.192 92.712 46.556 91.9 46.556 94.065 41.135 94.932 41.135 97.089 46.556 96.261 46.556z"/>
    <polyline fill="#404040" points="99.556 44.403 99.556 46.556 98.752 46.556 98.752 44.403 96.85 41.135 97.798 41.135 99.158 43.638 100.519 41.135 101.45 41.135 99.556 44.403"/>
    <polyline fill="#404040" points="107.881 46.556 104.992 42.402 104.992 46.556 104.236 46.556 104.236 41.135 104.984 41.135 107.881 45.288 107.881 41.135 108.629 41.135 108.629 46.556 107.881 46.556"/>
    <polyline fill="#404040" points="110.046 46.556 110.046 41.135 113.516 41.135 113.516 41.812 110.85 41.812 110.85 43.486 113.197 43.486 113.197 44.164 110.85 44.164 110.85 45.878 113.58 45.878 113.58 46.556 110.046 46.556"/>
    <polyline fill="#404040" points="115.967 46.556 115.967 41.812 114.144 41.812 114.144 41.135 118.593 41.135 118.593 41.812 116.771 41.812 116.771 46.556 115.967 46.556"/>
    <polyline fill="#404040" points="123.846 46.556 122.581 42.235 121.315 46.556 120.48 46.556 119.039 41.135 119.835 41.135 120.933 45.423 122.199 41.135 122.963 41.135 124.236 45.44 125.342 41.135 126.122 41.135 124.682 46.556 123.846 46.556"/>
    <path fill="#404040" d="M129.314 45.942C129.664 45.942 129.976 45.853 130.249 45.675 130.522 45.497 130.736 45.251 130.89 44.937 131.044 44.624 131.121 44.26 131.121 43.845 131.121 43.43 131.044 43.066 130.89 42.753 130.736 42.439 130.522 42.194 130.249 42.016 129.976 41.838 129.664 41.748 129.314 41.748 128.964 41.748 128.653 41.838 128.383 42.016 128.112 42.194 127.9 42.439 127.746 42.753 127.592 43.066 127.515 43.43 127.515 43.845 127.515 44.26 127.592 44.624 127.746 44.937 127.9 45.251 128.112 45.497 128.383 45.675 128.653 45.853 128.964 45.942 129.314 45.942zM129.314 46.644C128.805 46.644 128.354 46.524 127.961 46.285 127.568 46.045 127.259 45.716 127.034 45.296 126.808 44.876 126.696 44.393 126.696 43.845 126.696 43.298 126.808 42.814 127.034 42.394 127.259 41.974 127.568 41.645 127.961 41.406 128.354 41.166 128.805 41.047 129.314 41.047 129.823 41.047 130.276 41.166 130.671 41.406 131.066 41.645 131.376 41.974 131.602 42.394 131.827 42.814 131.94 43.298 131.94 43.845 131.94 44.393 131.827 44.876 131.602 45.296 131.376 45.716 131.066 46.045 130.671 46.285 130.276 46.524 129.823 46.644 129.314 46.644zM133.874 43.693L134.98 43.693C135.325 43.693 135.6 43.609 135.804 43.439 136.008 43.269 136.111 43.04 136.111 42.753 136.111 42.466 136.008 42.238 135.804 42.067 135.6 41.897 135.325 41.812 134.98 41.812L133.874 41.812 133.874 43.693zM133.874 44.355L133.874 46.556 133.07 46.556 133.07 41.135 134.98 41.135C135.58 41.135 136.055 41.279 136.405 41.569 136.755 41.859 136.93 42.253 136.93 42.753 136.93 43.131 136.824 43.449 136.612 43.71 136.4 43.97 136.108 44.154 135.737 44.26L137.05 46.556 136.134 46.556 134.901 44.355 133.874 44.355z"/>
    <polyline fill="#404040" points="141.3 46.556 138.872 43.821 138.872 46.556 138.068 46.556 138.068 41.135 138.872 41.135 138.872 43.51 141.14 41.135 142.135 41.135 139.724 43.622 142.31 46.556 141.3 46.556"/>
    <path fill="#009BFF" class='no-color-change' d="M447.741,9.937 C446.451,9.937 445.348,9.48 444.433,8.565 C443.518,7.65 443.061,6.547 443.061,5.257 C443.061,3.968 443.518,2.865 444.433,1.95 C445.348,1.035 446.451,0.577 447.741,0.577 C449.03,0.577 450.133,1.035 451.049,1.95 C451.963,2.865 452.421,3.968 452.421,5.257 C452.421,6.547 451.963,7.65 451.049,8.565 C450.133,9.48 449.03,9.937 447.741,9.937"/>
  </g>
</svg>
