<svg xmlns="http://www.w3.org/2000/svg" width="210" height="110" viewBox="0 0 210 110">
  <g fill="none" fill-rule="evenodd">
    <rect width="156.5" height="1" x="27" y="70" fill="#404040"/>
    <path fill="#009BFF" class="no-color-change" d="M57,28.5 C57,44.2404444 44.2425556,57 28.5,57 C12.7595556,57 0,44.2404444 0,28.5 C0,12.7585 12.7595556,0 28.5,0 C44.2425556,0 57,12.7585 57,28.5"/>
    <path fill="#404040" d="M73.5 21.7488584C74.546993 21.7488584 75.3544288 21.4478187 75.9265853 20.8457391 76.4966029 20.241569 76.7832159 19.3833966 76.7832159 18.2691313L76.7832159 7 82 7 82 18.2419541C82 20.7077626 81.2610091 22.6195742 79.7840966 23.9700721 78.3050453 25.3247511 76.2110594 26 73.5 26 70.7889406 26 68.6938853 25.3247511 67.2180423 23.9700721 65.7389909 22.6195742 65 20.7077626 65 18.2419541L65 7 70.218923 7 70.218923 18.2691313C70.218923 19.3833966 70.5023276 20.241569 71.0744841 20.8457391 71.6445018 21.4478187 72.4519376 21.7488584 73.5 21.7488584M91.2257695 26C89.661009 26 88.1641409 25.7310725 86.7319324 25.1921374 85.2997238 24.6542823 84.0561056 23.8842208 83 22.8830327L85.5454301 19.6818231C86.2987135 20.3633222 87.146831 20.8957771 88.0887048 21.2824279 89.0305786 21.6712388 90.0672863 21.8645642 91.1977504 21.8645642 91.9510339 21.8645642 92.5448239 21.7317205 92.9780427 21.4671131 93.4123392 21.2025057 93.6289486 20.8061346 93.6289486 20.2779998 93.6289486 19.7671455 93.3735435 19.355654 92.8659662 19.0446052 92.3562336 18.7335565 91.4617768 18.4084674 90.1815182 18.0693379L88.9939382 17.7561292C87.2578299 17.3035965 85.9409308 16.608057 85.0356974 15.6749109 84.1304641 14.7385247 83.6778474 13.5548115 83.6778474 12.1183713 83.6778474 10.892537 83.9989897 9.81358678 84.6401967 8.88908089 85.2792483 7.96457501 86.1661615 7.25067502 87.2966256 6.75062102 88.4270896 6.25056702 89.7364451 6 91.2257695 6 92.6956961 6 94.0998855 6.26892753 95.4383377 6.80786262 96.7746346 7.34679771 97.9622146 8.07689815 99 9.00248407L96.3694349 12.3181769C95.6915875 11.7328005 94.8962753 11.2219462 93.9824207 10.7888541 93.0664107 10.3525219 92.1579444 10.1354358 91.2548663 10.1354358 90.4994275 10.1354358 89.9207247 10.2639594 89.5144474 10.5188465 89.111403 10.7748137 88.9077255 11.1474241 88.9077255 11.6366778 88.9077255 12.0902905 89.1189466 12.4834215 89.5435442 12.8128308 89.9681417 13.14332 90.6987944 13.4511286 91.7333468 13.7340966L93.1763319 14.1304677C95.2486698 14.6964035 96.7142857 15.4718652 97.5710244 16.4536127 98.4288408 17.4364402 98.857749 18.5780322 98.857749 19.8816287 98.857749 21.1096231 98.5409174 22.178853 97.9094093 23.0968787 97.2789789 24.0127444 96.3899104 24.7244843 95.2389708 25.2353386 94.0901866 25.7451129 92.752812 26 91.2257695 26M105.675959 18.5974994L110.185197 18.5974994 107.944462 11.9449428 105.675959 18.5974994zM112.705757 26L111.501015 22.4505495 104.358005 22.4505495 103.153263 26 98 26 104.975328 7 111.02574 7 118 26 112.705757 26 112.705757 26z"/>
    <polyline fill="#404040" points="125.477 26 125.477 11.191 120 11.191 120 7 136 7 136 11.191 130.523 11.191 130.523 26 125.477 26"/>
    <path fill="#404040" d="M147 21.6366778C147.924506 21.6366778 148.732369 21.4012312 149.422508 20.928178 150.111567 20.4572848 150.654822 19.8017064 151.051193 18.9592829 151.448645 18.1200994 151.64629 17.142672 151.64629 16.0280808 151.64629 14.9134896 151.448645 13.9317421 151.051193 13.0839183 150.654822 12.2328545 150.111567 11.5675559 149.422508 11.0858624 148.732369 10.6041689 147.924506 10.3633222 147 10.3633222 146.073334 10.3633222 145.266551 10.6041689 144.579652 11.0858624 143.889513 11.5675559 143.346258 12.2328545 142.949887 13.0839183 142.553515 13.9317421 142.35371 14.9134896 142.35371 16.0280808 142.35371 17.142672 142.553515 18.1200994 142.949887 18.9592829 143.346258 19.8017064 143.889513 20.4572848 144.579652 20.928178 145.266551 21.4012312 146.073334 21.6366778 147 21.6366778zM147 26C145.073226 26 143.361378 25.5744681 141.859056 24.7244843 140.357814 23.8766605 139.173021 22.7005076 138.303597 21.1992656 137.435252 19.6958635 137 17.9732153 137 16.0280808 137 14.5559996 137.246247 13.2092019 137.736581 11.9909277 138.229074 10.7748137 138.925694 9.71638406 139.832919 8.81887893 140.741225 7.92245383 141.795334 7.22907441 143.007128 6.73658062 144.215682 6.24732693 145.545199 6 147 6 148.453721 6 149.786478 6.24732693 150.993952 6.73658062 152.202506 7.22907441 153.260935 7.92245383 154.167081 8.81887893 155.072146 9.71638406 155.773086 10.7748137 156.262339 11.9909277 156.754833 13.2092019 157 14.5559996 157 16.0280808 157 17.9732153 156.565828 19.6958635 155.697484 21.1992656 154.829139 22.7005076 153.642186 23.8766605 152.142024 24.7244843 150.640782 25.5744681 148.925694 26 147 26L147 26zM164.084538 21.8923525L166.446237 21.8923525C167.796536 21.8923525 168.868303 21.3991366 169.654124 20.4127046 170.441004 19.4252074 170.833915 18.1202624 170.833915 16.5 170.833915 14.8786723 170.441004 13.5769231 169.654124 12.5872954 168.868303 11.6008634 167.796536 11.1065822 166.446237 11.1065822L164.084538 11.1065822 164.084538 21.8923525zM159 26L159 7 166.446237 7C168.315475 7 169.968664 7.40586454 171.404747 8.21546311 172.839771 9.02612693 173.963431 10.143586 174.779965 11.5689056 175.593322 12.9931599 176 14.6379233 176 16.5 176 18.3642072 175.593322 20.0068401 174.779965 21.4321597 173.963431 22.856414 172.839771 23.9728078 171.404747 24.7834716 169.968664 25.5941355 168.315475 26 166.446237 26L159 26 159 26zM182.6753 18.5974994L187.185848 18.5974994 184.943925 11.9449428 182.6753 18.5974994zM189.705474 26L188.500668 22.4505495 181.358344 22.4505495 180.153538 26 175 26 181.975701 7 188.026435 7 195 26 189.705474 26 189.705474 26z"/>
    <polyline fill="#404040" points="203.177 19.155 203.177 26 197.825 26 197.825 19.155 191 7 196.946 7 200.516 14.544 204.052 7 210 7 203.177 19.155"/>
    <polyline fill="#404040" points="77.246 50 69.782 39.047 69.782 50 65 50 65 31 69.754 31 77.19 42.15 77.19 31 82 31 82 50 77.246 50"/>
    <polyline fill="#404040" points="85 50 85 31 97.571 31 97.571 35.163 89.878 35.163 89.878 38.377 96.712 38.377 96.712 42.541 89.878 42.541 89.878 45.837 98 45.837 98 50 85 50"/>
    <polyline fill="#404040" points="105.477 50 105.477 35.191 100 35.191 100 31 116 31 116 35.191 110.522 35.191 110.522 50 105.477 50"/>
    <polyline fill="#404040" points="133.002 50 130 37.652 126.995 50 121.614 50 117 31 121.915 31 124.729 43.965 127.84 31 132.185 31 135.27 43.881 138.165 31 143 31 138.383 50 133.002 50"/>
    <path fill="#404040" d="M153 46.6372867C153.926666 46.6372867 154.733449 46.4007345 155.422508 45.9287103 156.112647 45.4566861 156.655902 44.8021171 157.052273 43.9606827 157.448645 43.1192482 157.64629 42.1427954 157.64629 41.0280838 157.64629 39.9133722 157.448645 38.9304385 157.052273 38.0825232 156.655902 37.2324476 156.112647 36.5670771 155.422508 36.0853316 154.733449 35.6025059 153.926666 35.3627133 153 35.3627133 152.075494 35.3627133 151.267631 35.6025059 150.579652 36.0853316 149.889513 36.5670771 149.346258 37.2324476 148.949887 38.0825232 148.553515 38.9304385 148.35479 39.9133722 148.35479 41.0280838 148.35479 42.1427954 148.553515 43.1192482 148.949887 43.9606827 149.346258 44.8021171 149.889513 45.4566861 150.579652 45.9287103 151.267631 46.4007345 152.075494 46.6372867 153 46.6372867zM153 51C151.074306 51 149.361378 50.5744221 147.860136 49.7243465 146.358894 48.8764312 145.173021 47.7001512 144.304677 46.1998272 143.436332 44.6962627 143 42.9734284 143 41.0280838 143 39.5547634 143.247327 38.2078203 143.736581 36.9894146 144.229074 35.7731692 144.927854 34.7157053 145.835079 33.8191834 146.741225 32.9215813 147.797494 32.2270469 149.007128 31.73558 150.215682 31.2451933 151.546279 31 153 31 154.454801 31 155.786478 31.2451933 156.995032 31.73558 158.203586 32.2270469 159.260935 32.9215813 160.168161 33.8191834 161.074306 34.7157053 161.773086 35.7731692 162.263419 36.9894146 162.755913 38.2078203 163 39.5547634 163 41.0280838 163 42.9734284 162.566908 44.6962627 161.698564 46.1998272 160.829139 47.7001512 159.644346 48.8764312 158.143104 49.7243465 156.640782 50.5744221 154.926774 51 153 51L153 51zM169.957155 39.7452201L172.71078 39.7452201C173.50023 39.7452201 174.124861 39.5374825 174.582573 39.117746 175.042386 38.6990749 175.272292 38.1248668 175.272292 37.3983179 175.272292 36.7101205 175.042386 36.154023 174.582573 35.7374825 174.124861 35.317746 173.50023 35.1068124 172.71078 35.1068124L169.957155 35.1068124 169.957155 39.7452201zM169.957155 43.6869078L169.957155 50 165 50 165 31 173.260875 31C175.465455 31 177.207073 31.5731427 178.492028 32.7194281 179.778033 33.8657135 180.42051 35.4242781 180.42051 37.3983179 180.42051 38.6841604 180.134965 39.7920942 179.567023 40.7231847 178.998032 41.6553406 178.200184 42.3818895 177.17138 42.9038968L181 50 175.54629 50 172.435733 43.6869078 169.957155 43.6869078 169.957155 43.6869078z"/>
    <polyline fill="#404040" points="193.941 50 188.048 40.711 188.048 50 183 50 183 31 188.048 31 188.048 39.34 194.159 31 200 31 193.123 39.732 199.863 50 193.941 50"/>
    <path fill="#009BFF" class="no-color-change" d="M42.4240312,109.240364 L39.5287352,97.6065389 L36.6334393,109.240364 L31.4482274,109.240364 L27,91.3421713 L31.737757,91.3421713 L34.4488069,103.555056 L37.4493863,91.3421713 L41.634405,91.3421713 L44.6086636,103.476093 L47.398676,91.3421713 L52.0574704,91.3421713 L47.609243,109.240364 L42.4240312,109.240364 Z M59.9413942,109.240364 L55.0457119,109.240364 L55.0457119,91.3421713 L59.9413942,91.3421713 L59.9413942,109.240364 Z M70.7206139,109.582536 C69.264185,109.582536 67.8691927,109.33249 66.5355952,108.832391 C65.2019977,108.332292 64.0438909,107.617249 63.0612401,106.68724 L65.4301186,103.712981 C66.132012,104.344685 66.9216303,104.84039 67.7989971,105.200111 C68.6763639,105.559831 69.6414529,105.739688 70.694293,105.739688 C71.3961865,105.739688 71.9489193,105.616859 72.352508,105.371196 C72.7560967,105.125534 72.957888,104.757045 72.957888,104.26572 C72.957888,103.791942 72.7210026,103.410293 72.2472245,103.120762 C71.7734464,102.831231 70.9399605,102.528544 69.7467416,102.212692 L68.641265,101.923162 C67.0269101,101.502026 65.798615,100.857171 64.9563429,99.9885779 C64.1140707,99.1199848 63.692941,98.0189059 63.692941,96.6853084 C63.692941,95.5447316 63.9912412,94.5445484 64.5878507,93.684729 C65.1844601,92.8249095 66.0091725,92.1625075 67.0620127,91.6975031 C68.1148528,91.2324987 69.3343744,91 70.7206139,91 C72.0893061,91 73.396563,91.2500458 74.6424239,91.7501449 C75.8882847,92.2502439 76.9937503,92.930193 77.9588538,93.7900125 L75.5110127,96.8695545 C74.8793086,96.3255871 74.1379447,95.8518161 73.2868989,95.4482274 C72.4358532,95.0446387 71.5892069,94.8428474 70.7469348,94.8428474 C70.0450413,94.8428474 69.5054688,94.9612901 69.1282011,95.1981791 C68.7509334,95.4350682 68.5623024,95.7816228 68.5623024,96.2378536 C68.5623024,96.6589896 68.7597069,97.0230914 69.154522,97.3301698 C69.5493371,97.6372482 70.2292861,97.9223881 71.1943896,98.1855981 L72.5367541,98.5540903 C74.466961,99.0805104 75.8312459,99.7999404 76.6296497,100.712402 C77.4280535,101.624863 77.8272494,102.686461 77.8272494,103.897227 C77.8272494,105.037804 77.5333359,106.033601 76.9455002,106.884646 C76.3576644,107.735692 75.5285653,108.398094 74.4581778,108.871872 C73.3877903,109.34565 72.1419481,109.582536 70.7206139,109.582536 Z M89.4750579,109.582536 C87.650135,109.582536 86.0489646,109.187727 84.6714987,108.398097 C83.2940329,107.608466 82.2148879,106.516161 81.4340314,105.121148 C80.653175,103.726135 80.2627526,102.107417 80.2627526,100.264947 C80.2627526,98.4224768 80.653175,96.8081461 81.4340314,95.4219065 C82.2148879,94.035667 83.2940329,92.9521353 84.6714987,92.1712788 C86.0489646,91.3904224 87.650135,91 89.4750579,91 C91.0192235,91 92.409829,91.3114605 93.6469162,91.934391 C94.8840034,92.5573214 95.9412145,93.4566089 96.8185813,94.6322804 L92.9494131,96.9221963 C92.4931823,96.3431342 91.9799304,95.8869103 91.409642,95.5535109 C90.8393536,95.2201115 90.1769516,95.0534143 89.4224162,95.0534143 C88.1765553,95.0534143 87.1675986,95.5227985 86.3955159,96.461581 C85.6234331,97.4003635 85.2373975,98.6681395 85.2373975,100.264947 C85.2373975,101.861755 85.6234331,103.138304 86.3955159,104.094634 C87.1675986,105.050964 88.1765553,105.529121 89.4224162,105.529121 C90.194499,105.529121 90.8788348,105.34049 91.4754442,104.963223 C92.0720536,104.585955 92.5721452,104.142891 92.9757339,103.634019 L96.8185813,105.923935 C95.9587618,107.117153 94.9015507,108.025214 93.6469162,108.648145 C92.3922817,109.271075 91.0016761,109.582536 89.4750579,109.582536 Z M107.834689,109.582536 C106.044861,109.582536 104.452464,109.187727 103.057451,108.398097 C101.662437,107.608466 100.561359,106.516161 99.7541811,105.121148 C98.9470036,103.726135 98.5434209,102.124964 98.5434209,100.317589 C98.5434209,98.9488966 98.7715329,97.6986677 99.2277636,96.5668645 C99.6839944,95.4350613 100.333236,94.4524252 101.175508,93.6189268 C102.01778,92.7854283 103.000416,92.1405734 104.123446,91.6843427 C105.246475,91.2281119 106.483544,91 107.834689,91 C109.185834,91 110.422902,91.2281119 111.545932,91.6843427 C112.668961,92.1405734 113.651597,92.7854283 114.49387,93.6189268 C115.336142,94.4524252 115.985383,95.4350613 116.441614,96.5668645 C116.897845,97.6986677 117.125957,98.9488966 117.125957,100.317589 C117.125957,102.124964 116.722374,103.726135 115.915197,105.121148 C115.108019,106.516161 114.00694,107.608466 112.611927,108.398097 C111.216914,109.187727 109.624517,109.582536 107.834689,109.582536 Z M107.834689,105.529121 C108.694508,105.529121 109.444646,105.309783 110.085123,104.8711 C110.725601,104.432416 111.23008,103.822656 111.598574,103.041799 C111.967068,102.260943 112.151312,101.352882 112.151312,100.317589 C112.151312,99.282296 111.967068,98.3698482 111.598574,97.5802181 C111.23008,96.790588 110.725601,96.1720536 110.085123,95.7245966 C109.444646,95.2771395 108.694508,95.0534143 107.834689,95.0534143 C106.974869,95.0534143 106.224732,95.2771395 105.584254,95.7245966 C104.943777,96.1720536 104.439298,96.790588 104.070804,97.5802181 C103.70231,98.3698482 103.518066,99.282296 103.518066,100.317589 C103.518066,101.352882 103.70231,102.260943 104.070804,103.041799 C104.439298,103.822656 104.943777,104.432416 105.584254,104.8711 C106.224732,105.309783 106.974869,105.529121 107.834689,105.529121 Z M132.090195,109.240364 L125.062522,98.9225826 L125.062522,109.240364 L120.561653,109.240364 L120.561653,91.3421713 L125.036201,91.3421713 L132.037553,101.844199 L132.037553,91.3421713 L136.564743,91.3421713 L136.564743,109.240364 L132.090195,109.240364 Z M147.343963,109.582536 C145.887534,109.582536 144.492542,109.33249 143.158944,108.832391 C141.825347,108.332292 140.66724,107.617249 139.684589,106.68724 L142.053468,103.712981 C142.755361,104.344685 143.54498,104.84039 144.422346,105.200111 C145.299713,105.559831 146.264802,105.739688 147.317642,105.739688 C148.019536,105.739688 148.572269,105.616859 148.975857,105.371196 C149.379446,105.125534 149.581237,104.757045 149.581237,104.26572 C149.581237,103.791942 149.344352,103.410293 148.870574,103.120762 C148.396796,102.831231 147.56331,102.528544 146.370091,102.212692 L145.264614,101.923162 C143.650259,101.502026 142.421964,100.857171 141.579692,99.9885779 C140.73742,99.1199848 140.31629,98.0189059 140.31629,96.6853084 C140.31629,95.5447316 140.614591,94.5445484 141.2112,93.684729 C141.807809,92.8249095 142.632522,92.1625075 143.685362,91.6975031 C144.738202,91.2324987 145.957724,91 147.343963,91 C148.712655,91 150.019912,91.2500458 151.265773,91.7501449 C152.511634,92.2502439 153.6171,92.930193 154.582203,93.7900125 L152.134362,96.8695545 C151.502658,96.3255871 150.761294,95.8518161 149.910248,95.4482274 C149.059202,95.0446387 148.212556,94.8428474 147.370284,94.8428474 C146.668391,94.8428474 146.128818,94.9612901 145.75155,95.1981791 C145.374283,95.4350682 145.185652,95.7816228 145.185652,96.2378536 C145.185652,96.6589896 145.383056,97.0230914 145.777871,97.3301698 C146.172686,97.6372482 146.852635,97.9223881 147.817739,98.1855981 L149.160103,98.5540903 C151.09031,99.0805104 152.454595,99.7999404 153.252999,100.712402 C154.051403,101.624863 154.450599,102.686461 154.450599,103.897227 C154.450599,105.037804 154.156685,106.033601 153.568849,106.884646 C152.981014,107.735692 152.151915,108.398094 151.081527,108.871872 C150.01114,109.34565 148.765297,109.582536 147.343963,109.582536 Z M162.808298,109.240364 L157.912616,109.240364 L157.912616,91.3421713 L162.808298,91.3421713 L162.808298,109.240364 Z M178.799051,109.240364 L171.771378,98.9225826 L171.771378,109.240364 L167.270509,109.240364 L167.270509,91.3421713 L171.745057,91.3421713 L178.746409,101.844199 L178.746409,91.3421713 L183.273599,91.3421713 L183.273599,109.240364 L178.799051,109.240364 Z"/>
  </g>
</svg>
