<svg id="wisconsinrapidstribune" xmlns="http://www.w3.org/2000/svg" xmlns:xlink="http://www.w3.org/1999/xlink" width="800" height="160" viewBox="0 0 800 160">
  <defs>
    <style>
      .cls-1, .cls-2 {
        fill: #000;
        fill-rule: evenodd;
      }

      .cls-1 {
        filter: url(#filter);
      }
    </style>
    <filter id="filter" x="1" y="114.969" width="367.969" height="16" filterUnits="userSpaceOnUse">
      <feFlood result="flood" flood-color="#999"/>
      <feComposite result="composite" operator="in" in2="SourceGraphic"/>
      <feBlend result="blend" in2="SourceGraphic"/>
    </filter>
  </defs>
  <path id="USAT_Network" data-name="USAT Network" class="cls-1" d="M0.989,115.273H5.478c3.156,0,5.267,1.865,5.267,4.741s-2.155,4.735-5.267,4.735H3.188v5.925h-2.2v-15.4Zm4.267,7.659c2.112,0,3.244-1.163,3.244-2.918,0-1.736-1.132-2.919-3.244-2.919H3.188v5.837H5.256Zm11.768-7.659H18.98l6.4,15.4H23.022l-1.6-4.035H14.513l-1.6,4.035H10.6S16.244,117.162,17.024,115.273Zm3.665,9.544L19.2,121.023c-0.221-.572-1.178-2.942-1.2-3.139H17.957c-0.022.2-.955,2.5-1.2,3.139l-1.51,3.794h5.443Zm6.924-9.544h4.51c2.91,0,5.178,1.5,5.178,4.563a4.293,4.293,0,0,1-3.955,4.346l4.778,6.492H35.545l-4.51-6.276H29.812v6.276h-2.2v-15.4Zm4.267,7.351c2.043,0,3.2-1.077,3.2-2.764s-1.157-2.765-3.2-2.765H29.812v5.529H31.88ZM43.4,117.138H38.957v-1.865H50.046v1.865H45.6v13.536H43.4V117.138Zm12.348,5.838a7.862,7.862,0,0,1,8.2-8.006,8.008,8.008,0,1,1,0,16.011A7.861,7.861,0,0,1,55.75,122.976Zm14.133,0a5.946,5.946,0,1,0-5.955,6.053A5.773,5.773,0,0,0,69.882,122.976Zm5.433-7.7h7.867v1.865H77.514V122.1H83v1.865H77.514v6.713h-2.2v-15.4Zm17.815,1.865H88.686v-1.865H99.774v1.865H95.33v13.536h-2.2V117.138Zm8.953-1.865h2.2v6.318h8.178v-6.318h2.2v15.4h-2.2v-7.218h-8.178v7.218h-2.2v-15.4Zm16.631,0h8.49v1.846h-6.29v4.472h6.11v1.846h-6.11v5.395h6.422v1.842h-8.622v-15.4Zm16,10.092V115.273h2.221v9.433c0,2.679,1.157,4.323,3.756,4.323,2.622,0,3.78-1.644,3.78-4.323v-9.433h2.221v10.092c0,3.38-2.2,5.616-6,5.616C136.865,130.981,134.71,128.745,134.71,125.365Zm14.274,2.524,1.491-1.25a4.52,4.52,0,0,0,3.911,2.433c1.709,0,3.044-.918,3.044-2.611,0-1.817-1.534-2.433-3.446-3.178-1.956-.769-3.933-1.736-3.933-4.193,0-2.432,1.912-4.12,4.712-4.12a5.248,5.248,0,0,1,4.579,2.322l-1.49,1.25a3.555,3.555,0,0,0-3.089-1.668c-1.512,0-2.511.769-2.511,2.063,0,1.6,1.554,2.13,2.911,2.654,2.2,0.856,4.466,1.889,4.466,4.716,0,2.679-2,4.674-5.2,4.674A6.064,6.064,0,0,1,148.984,127.889Zm18.241-12.616h1.956l6.4,15.4h-2.357l-1.6-4.035h-6.912l-1.6,4.035H160.8S166.446,117.162,167.225,115.273Zm3.665,9.544-1.487-3.794c-0.222-.572-1.179-2.942-1.2-3.139h-0.044c-0.022.2-.955,2.5-1.2,3.139l-1.51,3.794h5.443Zm13.978-7.679h-4.445v-1.865h11.088v1.865h-4.444v13.536h-2.2V117.138Zm7.469,5.838a8.2,8.2,0,1,1,8.2,8A7.861,7.861,0,0,1,192.337,122.976Zm14.132,0a5.945,5.945,0,1,0-5.954,6.053A5.772,5.772,0,0,0,206.469,122.976Zm5.434-7.7h4.423c4.977,0,8.265,2.808,8.265,7.7,0,4.87-3.312,7.7-8.265,7.7H211.9v-15.4Zm2.2,13.534h2.046c3.643,0,6.176-1.9,6.176-5.831s-2.533-5.838-6.176-5.838H214.1v11.669Zm17.637-13.534H233.7l6.4,15.4h-2.357l-1.6-4.035h-6.912l-1.6,4.035h-2.311S230.96,117.162,231.739,115.273Zm3.666,9.544-1.489-3.794c-0.221-.572-1.178-2.942-1.2-3.139h-0.044c-0.022.2-.955,2.5-1.2,3.139l-1.51,3.794h5.444Zm9.084-.419-5.312-9.125h2.467l2.889,5.135a22.887,22.887,0,0,1,1.11,2.192h0.022a23.153,23.153,0,0,1,1.113-2.192l2.91-5.135h2.4l-5.309,9.125v6.276h-2.289V124.4Zm14.062-9.125h1.687l8.846,9.982c0.266,0.288,1.422,1.711,1.534,1.932l0.044-.023c-0.044-.217-0.044-2-0.044-2.39v-9.5h2.134v15.4h-1.713l-8.845-9.983c-0.265-.283-1.422-1.711-1.532-1.928l-0.021.02c0.021,0.221.043,2,.043,2.394v9.5h-2.133v-15.4Zm18.253,0h8.487v1.846H279v4.472h6.113v1.846H279v5.395h6.422v1.842H276.8v-15.4Zm15.37,1.865h-4.445v-1.865h11.089v1.865h-4.445v13.536h-2.2V117.138Zm8.478-1.865h2.333l3.2,9.15c0.112,0.351.867,2.63,0.889,2.981h0.046a30.445,30.445,0,0,1,.933-2.981l3.334-9.15h1.756l3.332,9.15c0.133,0.351.91,2.63,0.935,2.981h0.044c0.044-.351.8-2.63,0.91-2.981l3.179-9.15h2.243l-5.49,15.4h-1.688l-3.6-9.607a25.578,25.578,0,0,1-.758-2.5h-0.044a25.693,25.693,0,0,1-.776,2.5l-3.578,9.607h-1.69Zm24.117,7.7a8.2,8.2,0,1,1,8.2,8A7.862,7.862,0,0,1,324.769,122.976Zm14.133,0a5.946,5.946,0,1,0-5.955,6.053A5.772,5.772,0,0,0,338.9,122.976Zm5.433-7.7h4.511c2.913,0,5.178,1.5,5.178,4.563a4.294,4.294,0,0,1-3.956,4.346l4.779,6.492h-2.579l-4.511-6.276h-1.222v6.276h-2.2v-15.4Zm4.267,7.351c2.044,0,3.2-1.077,3.2-2.764s-1.156-2.765-3.2-2.765h-2.067v5.529H348.6Zm8.736-7.351h2.2v7.154l6.444-7.154h2.666l-6.687,7.351,7,8.05h-2.754l-6.668-7.785v7.785h-2.2v-15.4Z"/>
  <path class="cls-2" d="M1.186,46.72H6.622L19.213,76.674,32.319,46.72h0.958L46.471,76.674,59.3,46.72h5.5L46.956,87.972h-0.98L32.842,58.436,19.715,87.972H18.731ZM71.045,29.734a4.182,4.182,0,0,1,3.082,1.289A4.256,4.256,0,0,1,75.4,34.132a4.383,4.383,0,0,1-4.36,4.36A4.138,4.138,0,0,1,68,37.2a4.21,4.21,0,0,1-1.278-3.071A4.256,4.256,0,0,1,68,31.023,4.14,4.14,0,0,1,71.045,29.734ZM68.421,46.72h5.286V87.972H68.421V46.72Zm35.144,4.512-3.4,3.526q-4.24-4.132-8.289-4.133a6.248,6.248,0,0,0-4.41,1.706,5.278,5.278,0,0,0-1.836,3.981,5.911,5.911,0,0,0,1.513,3.829Q88.658,62,93.5,64.5q5.9,3.071,8.021,5.916A10.807,10.807,0,0,1,103.6,76.9a11.658,11.658,0,0,1-3.555,8.606,12.1,12.1,0,0,1-8.885,3.527,15.464,15.464,0,0,1-6.788-1.555,14.738,14.738,0,0,1-5.35-4.284L82.348,79.4q4.05,4.589,8.59,4.587a7.72,7.72,0,0,0,5.411-2.046,6.336,6.336,0,0,0,2.233-4.816,6.187,6.187,0,0,0-1.475-4.056q-1.476-1.744-6.659-4.4-5.563-2.882-7.567-5.688a10.744,10.744,0,0,1-2-6.408,10.444,10.444,0,0,1,3.2-7.811,11.107,11.107,0,0,1,8.074-3.109Q97.816,45.658,103.565,51.232Zm47.452,4.057-4.191,2.616a17.527,17.527,0,0,0-14.82-7.242,17.105,17.105,0,0,0-12.462,4.848,15.853,15.853,0,0,0-4.959,11.778,16.775,16.775,0,0,0,2.281,8.484,16.03,16.03,0,0,0,6.26,6.173,18.876,18.876,0,0,0,23.7-5.046l4.191,2.767a19.809,19.809,0,0,1-7.909,6.91A25.164,25.164,0,0,1,131.8,89.034a22.284,22.284,0,0,1-16.159-6.218,20.269,20.269,0,0,1-6.418-15.128,21.675,21.675,0,0,1,3-11.129,21.182,21.182,0,0,1,8.249-8.019,23.988,23.988,0,0,1,11.741-2.882,24.979,24.979,0,0,1,7.872,1.251,21.862,21.862,0,0,1,6.436,3.261A17.716,17.716,0,0,1,151.017,55.289Zm27.82-9.63a20.3,20.3,0,0,1,15.733,6.9,22.217,22.217,0,0,1-.321,30.01,21.647,21.647,0,0,1-30.861,0,22.168,22.168,0,0,1-.321-29.972A20.293,20.293,0,0,1,178.837,45.658Zm-0.018,5.194a15.219,15.219,0,0,0-11.329,4.891,16.386,16.386,0,0,0-4.736,11.83,16.828,16.828,0,0,0,2.16,8.341,15.319,15.319,0,0,0,5.835,5.971,16.525,16.525,0,0,0,16.139,0,15.333,15.333,0,0,0,5.835-5.971,16.837,16.837,0,0,0,2.159-8.341,16.351,16.351,0,0,0-4.755-11.83A15.235,15.235,0,0,0,178.819,50.853Zm29.424-4.133h5.286v7.394a22.137,22.137,0,0,1,7.022-6.351,17.2,17.2,0,0,1,8.381-2.1,14.52,14.52,0,0,1,8.174,2.351,13.988,13.988,0,0,1,5.266,6.332q1.7,3.981,1.7,12.4V87.972h-5.285V68.295a48.675,48.675,0,0,0-.589-9.517,10.457,10.457,0,0,0-3.524-6.162,10.613,10.613,0,0,0-6.8-2.066,13,13,0,0,0-8.59,3.185,14.92,14.92,0,0,0-5,7.886q-0.756,3.071-.755,11.224V87.972h-5.286V46.72Zm66.027,4.512-3.4,3.526q-4.24-4.132-8.289-4.133a6.247,6.247,0,0,0-4.41,1.706,5.278,5.278,0,0,0-1.836,3.981,5.91,5.91,0,0,0,1.513,3.829q1.513,1.858,6.356,4.36,5.9,3.071,8.021,5.916a10.807,10.807,0,0,1,2.081,6.483,11.658,11.658,0,0,1-3.555,8.606,12.1,12.1,0,0,1-8.885,3.527,15.46,15.46,0,0,1-6.787-1.555A14.737,14.737,0,0,1,249.73,83.2l3.323-3.792q4.048,4.589,8.59,4.587a7.719,7.719,0,0,0,5.411-2.046,6.338,6.338,0,0,0,2.233-4.816,6.184,6.184,0,0,0-1.476-4.056q-1.476-1.744-6.658-4.4-5.564-2.882-7.568-5.688a10.741,10.741,0,0,1-2-6.408,10.443,10.443,0,0,1,3.2-7.811,11.106,11.106,0,0,1,8.074-3.109Q268.521,45.658,274.27,51.232Zm9.416-21.5a4.181,4.181,0,0,1,3.081,1.289,4.257,4.257,0,0,1,1.279,3.109,4.384,4.384,0,0,1-4.36,4.36,4.138,4.138,0,0,1-3.045-1.289,4.211,4.211,0,0,1-1.278-3.071,4.256,4.256,0,0,1,1.278-3.109A4.14,4.14,0,0,1,283.686,29.734ZM281.062,46.72h5.285V87.972h-5.285V46.72Zm14.493,0h5.285v7.394a22.139,22.139,0,0,1,7.023-6.351,17.2,17.2,0,0,1,8.381-2.1,14.522,14.522,0,0,1,8.174,2.351,13.994,13.994,0,0,1,5.266,6.332q1.7,3.981,1.7,12.4V87.972H326.1V68.295a48.7,48.7,0,0,0-.588-9.517,10.462,10.462,0,0,0-3.524-6.162,10.615,10.615,0,0,0-6.8-2.066,13,13,0,0,0-8.59,3.185,14.928,14.928,0,0,0-5,7.886q-0.755,3.071-.755,11.224V87.972h-5.285V46.72Zm43.375,0h5.4v6.029a19,19,0,0,1,5.1-5.327,10.018,10.018,0,0,1,5.588-1.763,9.616,9.616,0,0,1,4.681,1.4l-2.756,4.474a7.336,7.336,0,0,0-2.794-.72,7.624,7.624,0,0,0-5.1,2.18,13.794,13.794,0,0,0-3.738,6.768q-0.983,3.526-.982,14.256V87.972h-5.4V46.72Zm64.4,0V87.972h-5.21v-7.09a22.676,22.676,0,0,1-7.456,6.1,20.761,20.761,0,0,1-23.936-4.3,21.341,21.341,0,0,1-6.173-15.451,20.952,20.952,0,0,1,6.23-15.242,20.268,20.268,0,0,1,14.988-6.332,19.318,19.318,0,0,1,9.155,2.161,20.874,20.874,0,0,1,7.192,6.484V46.72h5.21ZM382.21,50.777a15.925,15.925,0,0,0-14.085,8.295,16.774,16.774,0,0,0,.019,16.664,16.233,16.233,0,0,0,5.977,6.192,15.565,15.565,0,0,0,8.051,2.215,16.448,16.448,0,0,0,8.221-2.2A15.338,15.338,0,0,0,396.37,76a17.035,17.035,0,0,0,2.093-8.447,16.454,16.454,0,0,0-4.7-11.967A15.519,15.519,0,0,0,382.21,50.777Zm31.313-4.057h5.286V54.3a21.238,21.238,0,0,1,7.2-6.484,19.087,19.087,0,0,1,9.089-2.161,20.238,20.238,0,0,1,14.973,6.332A20.962,20.962,0,0,1,456.3,67.232a21.348,21.348,0,0,1-6.167,15.451,20.693,20.693,0,0,1-23.891,4.3,22.706,22.706,0,0,1-7.43-6.1v22.18h-5.286V46.72Zm21.142,4.057a15.492,15.492,0,0,0-11.545,4.81,16.466,16.466,0,0,0-4.689,11.967A17.043,17.043,0,0,0,420.521,76a15.284,15.284,0,0,0,5.989,5.946,16.514,16.514,0,0,0,8.23,2.2,15.466,15.466,0,0,0,8-2.215,16.226,16.226,0,0,0,5.971-6.192,16.791,16.791,0,0,0,.018-16.664A15.906,15.906,0,0,0,434.665,50.777Zm31.576-21.043a4.185,4.185,0,0,1,3.083,1.289,4.256,4.256,0,0,1,1.278,3.109,4.382,4.382,0,0,1-4.361,4.36A4.14,4.14,0,0,1,463.2,37.2a4.211,4.211,0,0,1-1.278-3.071,4.256,4.256,0,0,1,1.278-3.109A4.141,4.141,0,0,1,466.241,29.734ZM463.617,46.72H468.9V87.972h-5.285V46.72ZM519.111,30.8V87.972H513.9v-7.09a22.686,22.686,0,0,1-7.456,6.1,20.761,20.761,0,0,1-23.936-4.3,21.336,21.336,0,0,1-6.172-15.451,20.954,20.954,0,0,1,6.228-15.242,20.27,20.27,0,0,1,14.988-6.332,19.316,19.316,0,0,1,9.156,2.161A20.883,20.883,0,0,1,513.9,54.3V30.8h5.21ZM497.988,50.777A15.925,15.925,0,0,0,483.9,59.072a16.778,16.778,0,0,0,.018,16.664,16.228,16.228,0,0,0,5.978,6.192,15.563,15.563,0,0,0,8.051,2.215,16.448,16.448,0,0,0,8.221-2.2A15.329,15.329,0,0,0,512.147,76a17.025,17.025,0,0,0,2.094-8.447,16.451,16.451,0,0,0-4.7-11.967A15.514,15.514,0,0,0,497.988,50.777Zm51.963,0.455-3.4,3.526q-4.242-4.132-8.29-4.133a6.248,6.248,0,0,0-4.41,1.706,5.278,5.278,0,0,0-1.836,3.981,5.912,5.912,0,0,0,1.514,3.829q1.512,1.858,6.356,4.36,5.9,3.071,8.02,5.916A10.814,10.814,0,0,1,549.99,76.9a11.662,11.662,0,0,1-3.555,8.606,12.1,12.1,0,0,1-8.885,3.527,15.467,15.467,0,0,1-6.788-1.555,14.73,14.73,0,0,1-5.349-4.284l3.322-3.792q4.048,4.589,8.59,4.587a7.716,7.716,0,0,0,5.41-2.046,6.335,6.335,0,0,0,2.233-4.816,6.183,6.183,0,0,0-1.475-4.056q-1.476-1.744-6.658-4.4-5.564-2.882-7.568-5.688a10.748,10.748,0,0,1-2.005-6.408,10.445,10.445,0,0,1,3.2-7.811,11.11,11.11,0,0,1,8.075-3.109Q544.2,45.658,549.951,51.232ZM562.142,31.4h5.285V46.72h8.381v4.588h-8.381V87.972h-5.285V51.308H554.93V46.72h7.212V31.4ZM579.957,46.72h5.4v6.029a18.986,18.986,0,0,1,5.1-5.327,10.016,10.016,0,0,1,5.588-1.763,9.619,9.619,0,0,1,4.681,1.4l-2.756,4.474a7.336,7.336,0,0,0-2.794-.72,7.627,7.627,0,0,0-5.1,2.18,13.793,13.793,0,0,0-3.737,6.768q-0.982,3.526-.982,14.256V87.972h-5.4V46.72Zm25.31-16.986a4.185,4.185,0,0,1,3.083,1.289,4.256,4.256,0,0,1,1.278,3.109,4.382,4.382,0,0,1-4.361,4.36,4.14,4.14,0,0,1-3.045-1.289,4.211,4.211,0,0,1-1.278-3.071,4.256,4.256,0,0,1,1.278-3.109A4.141,4.141,0,0,1,605.267,29.734ZM602.643,46.72h5.285V87.972h-5.285V46.72Zm14.834,41.252V30.8h5.285V53.81a22.329,22.329,0,0,1,7.429-6.124,20.757,20.757,0,0,1,23.893,4.322,21.311,21.311,0,0,1,6.167,15.413A21.011,21.011,0,0,1,654.028,82.7a20.239,20.239,0,0,1-14.973,6.331,19.069,19.069,0,0,1-9.089-2.162,21.217,21.217,0,0,1-7.2-6.483v7.583h-5.285Zm21.142-4.056a15.9,15.9,0,0,0,14.067-8.3,16.9,16.9,0,0,0-.018-16.721,16.239,16.239,0,0,0-5.971-6.2,15.461,15.461,0,0,0-8-2.218,16.4,16.4,0,0,0-8.229,2.218,15.417,15.417,0,0,0-5.989,5.972,17.077,17.077,0,0,0-2.091,8.455A16.494,16.494,0,0,0,627.073,79.1,15.482,15.482,0,0,0,638.619,83.916Zm28.8-37.2h5.285V65.981q0,7.052.756,9.706a10.816,10.816,0,0,0,4.33,5.991,13.1,13.1,0,0,0,7.618,2.2,12.822,12.822,0,0,0,7.5-2.142,10.948,10.948,0,0,0,4.254-5.63q0.793-2.389.794-10.124V46.72h5.4V66.967q0,8.531-1.983,12.853a15.167,15.167,0,0,1-5.964,6.768,18.78,18.78,0,0,1-9.986,2.446,18.984,18.984,0,0,1-10.024-2.446,15.055,15.055,0,0,1-6-6.825q-1.983-4.378-1.982-13.175V46.72Zm45.9,0h5.286v7.394a22.137,22.137,0,0,1,7.022-6.351,17.2,17.2,0,0,1,8.381-2.1,14.522,14.522,0,0,1,8.174,2.351,13.988,13.988,0,0,1,5.266,6.332q1.7,3.981,1.7,12.4V87.972h-5.286V68.295a48.784,48.784,0,0,0-.588-9.517,10.467,10.467,0,0,0-3.524-6.162,10.618,10.618,0,0,0-6.8-2.066,13.007,13.007,0,0,0-8.591,3.185,14.93,14.93,0,0,0-5,7.886q-0.756,3.071-.755,11.224V87.972h-5.286V46.72Zm79.959,27.565,4.454,2.351a24.38,24.38,0,0,1-5.063,6.977,20.094,20.094,0,0,1-6.462,4.037,22.46,22.46,0,0,1-8.124,1.384q-10.052,0-15.72-6.617A22.373,22.373,0,0,1,756.7,67.461a22.112,22.112,0,0,1,4.8-13.991,19.584,19.584,0,0,1,16.285-7.811,20.231,20.231,0,0,1,16.778,8q4.459,5.65,4.535,14.105H762.136a16.834,16.834,0,0,0,4.574,11.783,14.556,14.556,0,0,0,10.924,4.6,17.5,17.5,0,0,0,6.1-1.095,16.03,16.03,0,0,0,5.046-2.909A24.731,24.731,0,0,0,793.283,74.285Zm0-11.11a17.641,17.641,0,0,0-3.082-6.787,14.576,14.576,0,0,0-5.348-4.095,16.328,16.328,0,0,0-6.993-1.555,15.023,15.023,0,0,0-10.395,3.905,17.667,17.667,0,0,0-4.8,8.531h30.618ZM681.508,124.094a3,3,0,0,1,2.206.917,3.192,3.192,0,0,1,0,4.47,3.085,3.085,0,0,1-4.413,0,3.192,3.192,0,0,1,0-4.47A3,3,0,0,1,681.508,124.094Zm36.054-16.349-2.814,1.758a11.77,11.77,0,0,0-9.955-4.865,11.49,11.49,0,0,0-8.37,3.257,10.644,10.644,0,0,0-3.33,7.91,11.266,11.266,0,0,0,1.533,5.7,10.762,10.762,0,0,0,4.2,4.145,12.675,12.675,0,0,0,15.919-3.388l2.814,1.858a13.3,13.3,0,0,1-5.313,4.642,16.9,16.9,0,0,1-7.593,1.649,14.965,14.965,0,0,1-10.853-4.177,13.612,13.612,0,0,1-4.311-10.161,14.565,14.565,0,0,1,2.016-7.473,14.226,14.226,0,0,1,5.541-5.387,16.112,16.112,0,0,1,7.886-1.935,16.8,16.8,0,0,1,5.286.84,14.667,14.667,0,0,1,4.324,2.191A11.868,11.868,0,0,1,717.562,107.745Zm18.686-6.468a13.641,13.641,0,0,1,10.568,4.635,14.925,14.925,0,0,1-.217,20.156,14.539,14.539,0,0,1-20.727,0,14.887,14.887,0,0,1-.216-20.13A13.625,13.625,0,0,1,736.248,101.277Zm-0.013,3.488a10.224,10.224,0,0,0-7.609,3.286,11.005,11.005,0,0,0-3.18,7.945,11.308,11.308,0,0,0,1.45,5.6,10.314,10.314,0,0,0,3.919,4.011,11.1,11.1,0,0,0,10.84,0,10.314,10.314,0,0,0,3.919-4.011,11.32,11.32,0,0,0,1.451-5.6,10.981,10.981,0,0,0-3.194-7.945A10.237,10.237,0,0,0,736.235,104.765Zm19.738-2.775h3.55v4.787a13.777,13.777,0,0,1,3.807-3.87,10.758,10.758,0,0,1,5.662-1.63,9.361,9.361,0,0,1,3.807.79,8.189,8.189,0,0,1,2.946,2.1,11.281,11.281,0,0,1,1.979,3.755,13.156,13.156,0,0,1,4.426-4.953,10.457,10.457,0,0,1,5.719-1.693,8.923,8.923,0,0,1,5.046,1.451,8.653,8.653,0,0,1,3.25,4.049,21.7,21.7,0,0,1,1.063,7.793V129.7H793.6V114.57a19.835,19.835,0,0,0-.633-6.124,5.511,5.511,0,0,0-2.16-2.687,6.438,6.438,0,0,0-3.653-1.019,7.918,7.918,0,0,0-4.713,1.528,8.786,8.786,0,0,0-3.121,4.075q-0.985,2.546-.986,8.5V129.7h-3.55V115.513a24.448,24.448,0,0,0-.621-6.813A5.708,5.708,0,0,0,772,105.822a6.26,6.26,0,0,0-3.677-1.082,7.913,7.913,0,0,0-4.6,1.49,8.81,8.81,0,0,0-3.169,4.011,21.7,21.7,0,0,0-1.027,7.717V129.7h-3.55V101.99Z"/>
</svg>
