<svg id="Layer_1" data-name="Layer 1" xmlns="http://www.w3.org/2000/svg" viewBox="0 0 433.09 75.21"><defs><style>.cls-1{fill:#231f20;}.cls-2{fill:#414042;}</style></defs><title>Wichita Falls</title><path class="cls-1" d="M31.71,49.43h-18V47.86c3.68-.38,4.9-.5,4.9-5.78V9c-3.53.25-8.73.57-9.74,10.62H7.4L7.55,6.95H37.82l.1,12.63H36.46C35.45,9.52,30.25,9.21,26.77,9V42.08c0,5.34,1.21,5.47,4.94,5.78Z"/><path class="cls-1" d="M51.45,49.43H39.39V47.92c1.82-.57,2.67-.75,2.67-3.77V25.68c0-2.83-.76-3.27-2.67-3.71V20.46h9.69V44.34c0,1.95.41,3.33,2.37,3.58ZM45.55,6c2.17,0,3.88,2.2,3.88,4.9s-1.72,4.84-3.88,4.84c-2.32,0-3.94-2.14-3.94-4.84S43.28,6,45.55,6Z"/><path class="cls-1" d="M93.68,49.43h-12V47.92c2.47-.12,2.47-2.07,2.47-3.58V29.13c0-1.95,0-5.22-2.72-5.22-2.12,0-4.24,3.14-4.24,3.65V44.34c0,2,.45,3.39,2.37,3.58v1.51H67.75V47.92c2.42-.19,2.42-2.14,2.42-3.58V29.13c0-2,0-5.22-2.77-5.22-2.17,0-4.19,3.14-4.19,3.65V44.34c0,1.95.35,3.33,2.32,3.58v1.51H53.42V47.92c1.66-.38,2.78-.69,2.78-3.77V25.68c0-3.27-1.31-3.46-2.78-3.71V20.46h9.64V25h.1c.71-1.51,2.92-5.28,7.16-5.28,4.59,0,5.85,3.46,6.61,5.47,2.27-3.71,4.54-5.47,7.47-5.47,2.77,0,6.76,1.95,6.76,8.86V44.34c0,1.57,0,3.52,2.52,3.58Z"/><path class="cls-1" d="M102.91,31.71c0-8.67,1.72-10.06,3.58-10.06s2.42,1.57,2.72,3a47.21,47.21,0,0,1,.45,7.1Zm12,9.87c-1,1.45-2.72,4.21-5.7,4.21-4.79,0-5.9-6.41-6.05-11.75h12.71c-.15-3.39-.81-14.33-9.58-14.33-5.8,0-10.39,5.91-10.39,15.21,0,10.75,5.15,15.4,10.24,15.4,4,0,6.91-2,10-7.86Z"/><path class="cls-1" d="M132.93,28.94c-1.06-4.46-3.38-7.16-6.26-7.16a3.42,3.42,0,0,0-3.23,3.58c0,6.41,11.81,5,11.81,15.27,0,6-3.23,9.68-7.92,9.68-2.52,0-6-1.82-6.41-1.82s-.86.5-1.36,1.76H118.3V39.88h1.41c.3,1.7,1.51,8.3,7.11,8.3,2.52,0,3.58-2.26,3.58-4.15,0-5.78-12-5.4-12-15.09,0-5.53,3.38-9.24,8-9.24,2.37,0,4.44,1.38,5.4,1.38s1.11-.75,1.26-1.26h1.11v9.11Z"/><path class="cls-1" d="M163.2,11.72c.25-1.95.35-2.64,3.13-2.64,4,0,6.1,2.7,6.1,9,0,8.17-2.62,9.55-9.23,9.62Zm22.15,36.14a2.15,2.15,0,0,1-2.07-1.2L173.14,28.76c2.72-1.07,7.92-3,7.92-10.75,0-10.56-10.69-11.06-14.23-11.06H150.58V8.52c2.88.25,4.44.38,4.44,5.78V42.08c0,5.09-1,5.28-4.44,5.78v1.57h17.05V47.86c-3.33-.57-4.44-.75-4.44-5.78V29.76h1.36L175,49.43h10.34Z"/><path class="cls-1" d="M192.66,31.71c0-8.67,1.72-10.06,3.58-10.06s2.42,1.57,2.72,3a47.73,47.73,0,0,1,.45,7.1Zm12,9.87c-1,1.45-2.72,4.21-5.7,4.21-4.79,0-5.9-6.41-6.05-11.75h12.71c-.15-3.39-.81-14.33-9.59-14.33-5.8,0-10.39,5.91-10.39,15.21,0,10.75,5.15,15.4,10.24,15.4,4,0,6.91-2,10-7.86Z"/><path class="cls-1" d="M228.47,43.71c-2.32,4.09-5.65,6.6-9.64,6.6-6.46,0-10.8-6.66-10.8-14.39,0-12.38,7.16-16.22,11.91-16.22,3.58,0,7.82,2.33,7.82,6.85,0,4-3,4-3.43,4-2.83,0-2.83-3.08-2.83-6.48a2.18,2.18,0,0,0-2.07-2.45c-3.94,0-4.29,7.73-4.29,10.56,0,8.8,3.08,13.89,7,13.89,2.88,0,4.19-1.82,5.4-3.52Z"/><path class="cls-1" d="M237.86,35c0-7.16.25-13.39,4-13.39,3.08,0,3.93,3.71,3.93,13.39,0,8-.4,13.33-3.89,13.33C237.86,48.37,237.86,41.83,237.86,35Zm-7.42,0c0,8.17,4.39,15.27,11.4,15.27,6.86,0,11.35-6.91,11.35-15.27,0-8.74-4.74-15.34-11.35-15.34C234.83,19.7,230.44,26.93,230.44,35Z"/><path class="cls-1" d="M268,49.43H254.55V47.92c1.62-.38,2.72-.63,2.72-3.77V25.68c0-3.14-1.21-3.46-2.72-3.71V20.46h9.53v5h.1c1.06-1.95,3.33-5.72,6.61-5.72,3.43,0,4.19,3.4,4.19,4.9s-.71,4.21-3.23,4.21c-2.93,0-2.88-3.71-4.49-3.71-.76,0-3,1.38-3,6V43c0,3.83.6,4.78,3.68,5Z"/><path class="cls-1" d="M292.44,42.4c0,.69-1.87,4.4-4.19,4.4-4,0-4-8.17-4-11.82,0-6.1.71-11.75,4.29-11.75,2.82,0,3.94,3.83,3.94,3.9Zm10,4.34c-2.88-.13-3-1.95-3-3.64V6.95H288.61V8.45c2.77.25,3.83.31,3.83,3.65V23.6c-1.21-1.63-2.93-3.9-6-3.9-4.74,0-9.74,5.22-9.74,16.15,0,9.17,4.64,14.45,8.83,14.45,3.78,0,5.19-1.76,7-4.15v4.09c3.13-1.07,3.58-1.13,9.84-2.07Z"/><path class="cls-1" d="M317,47.86c3-.44,4.44-.88,4.44-5V13c-2.82-4.34-3.63-4.53-4.29-4.53V6.95h10.64l17.51,26.84h.1v-19c0-3.77-.61-5.85-4.69-6.22V6.95h10.85V8.52c-3.63.57-3.93,2-3.93,5v37h-1.41L323.72,16.5h-.1V41.64c0,4.53,1.06,5.72,4.79,6.22v1.57H317Z"/><path class="cls-1" d="M359.53,31.71c0-8.67,1.72-10.06,3.58-10.06s2.42,1.57,2.72,3a47.4,47.4,0,0,1,.45,7.1Zm12,9.87c-1,1.45-2.72,4.21-5.7,4.21-4.79,0-5.9-6.41-6.05-11.75H372.5c-.15-3.39-.81-14.33-9.59-14.33-5.8,0-10.39,5.91-10.39,15.21,0,10.75,5.15,15.4,10.24,15.4,4,0,6.91-2,10-7.86Z"/><path class="cls-1" d="M408,22c-1,.25-1.67.38-2.52,3.14l-7.82,25.2h-1.16l-5-19h-.25l-6.16,19h-1.21l-7.47-23.51c-1.31-4.08-1.56-4.52-2.88-4.84V20.46h11.2V22c-.71.13-1.92.25-1.92,1.89,0,1.32,1.72,6.09,4.24,14.52l3.43-10.75c-.51-2.14-.81-3.39-1.06-4.15-.45-1.32-1-1.32-2.22-1.51V20.46H399V22c-1.31.13-2.42.25-2.42,1.57s2.12,9.49,3,14.39h.1c1.36-4.78,3.94-12.26,3.94-13.64,0-2-1-2.14-2.42-2.32V20.46H408Z"/><path class="cls-1" d="M423.35,28.94c-1.06-4.46-3.38-7.16-6.25-7.16a3.42,3.42,0,0,0-3.23,3.58c0,6.41,11.81,5,11.81,15.27,0,6-3.23,9.68-7.92,9.68-2.52,0-6-1.82-6.41-1.82s-.86.5-1.36,1.76h-1.26V39.88h1.41c.3,1.7,1.51,8.3,7.11,8.3,2.52,0,3.58-2.26,3.58-4.15,0-5.78-12-5.4-12-15.09,0-5.53,3.38-9.24,8-9.24,2.37,0,4.44,1.38,5.4,1.38s1.11-.75,1.26-1.26h1.11v9.11Z"/><path class="cls-2" d="M248.51,59.64h2.16a2.32,2.32,0,1,1,0,4.62h-1.1v2.89h-1.06Zm2.06,3.74a1.43,1.43,0,1,0,0-2.85h-1v2.85Z"/><path class="cls-2" d="M256.24,59.64h.94l3.08,7.51h-1.14l-.77-2H255l-.77,2h-1.11S255.86,60.56,256.24,59.64ZM258,64.3l-.72-1.85c-.11-.28-.57-1.44-.58-1.53h0c0,.1-.46,1.22-.58,1.53l-.73,1.85Z"/><path class="cls-2" d="M261.34,59.64h2.17A2.2,2.2,0,0,1,266,61.86,2.08,2.08,0,0,1,264.1,64l2.3,3.17h-1.24L263,64.09h-.59v3.06h-1.06Zm2.06,3.59c1,0,1.54-.53,1.54-1.35s-.56-1.35-1.54-1.35h-1v2.7Z"/><path class="cls-2" d="M268.94,60.55H266.8v-.91h5.34v.91H270v6.6h-1.06Z"/><path class="cls-2" d="M274.89,63.4a4,4,0,1,1,3.95,3.91A3.81,3.81,0,0,1,274.89,63.4Zm6.81,0a2.86,2.86,0,1,0-2.87,3A2.8,2.8,0,0,0,281.7,63.4Z"/><path class="cls-2" d="M284.32,59.64h3.79v.91h-2.73V63H288v.91h-2.64v3.28h-1.06Z"/><path class="cls-2" d="M292.9,60.55h-2.14v-.91h5.34v.91H294v6.6H292.9Z"/><path class="cls-2" d="M297.21,59.64h1.06v3.08h3.94V59.64h1.06v7.51h-1.06V63.63h-3.94v3.52h-1.06Z"/><path class="cls-2" d="M305.22,59.64h4.09v.9h-3v2.18h2.94v.9h-2.94v2.63h3.09v.9h-4.15Z"/><path class="cls-2" d="M312.93,64.56V59.64H314v4.6c0,1.31.56,2.11,1.81,2.11s1.82-.8,1.82-2.11v-4.6h1.07v4.92a2.89,2.89,0,0,1-5.77,0Z"/><path class="cls-2" d="M319.8,65.79l.72-.61a2.18,2.18,0,0,0,1.88,1.19,1.3,1.3,0,0,0,1.47-1.27c0-.89-.74-1.19-1.66-1.55s-1.89-.85-1.89-2a2,2,0,0,1,2.27-2,2.52,2.52,0,0,1,2.21,1.13l-.72.61a1.71,1.71,0,0,0-1.49-.81c-.73,0-1.21.38-1.21,1,0,.78.75,1,1.4,1.3,1.06.42,2.15.92,2.15,2.3a2.28,2.28,0,0,1-2.5,2.28A2.91,2.91,0,0,1,319.8,65.79Z"/><path class="cls-2" d="M328.59,59.64h.94l3.08,7.51h-1.14l-.77-2h-3.33l-.77,2h-1.11S328.21,60.56,328.59,59.64Zm1.77,4.66-.72-1.85c-.11-.28-.57-1.44-.58-1.53h0c0,.1-.46,1.22-.58,1.53l-.73,1.85Z"/><path class="cls-2" d="M337.08,60.55h-2.14v-.91h5.34v.91h-2.14v6.6h-1.06Z"/><path class="cls-2" d="M340.68,63.4a4,4,0,1,1,3.95,3.91A3.81,3.81,0,0,1,340.68,63.4Zm6.81,0a2.86,2.86,0,1,0-2.87,3A2.8,2.8,0,0,0,347.49,63.4Z"/><path class="cls-2" d="M350.11,59.64h2.13c2.4,0,4,1.37,4,3.76s-1.6,3.76-4,3.76h-2.13Zm1.06,6.6h1a2.85,2.85,0,1,0,0-5.69h-1Z"/><path class="cls-2" d="M359.66,59.64h.94l3.08,7.51h-1.14l-.77-2h-3.33l-.77,2h-1.11S359.29,60.56,359.66,59.64Zm1.77,4.66-.72-1.85c-.11-.28-.57-1.44-.58-1.53h0c0,.1-.46,1.22-.58,1.53l-.73,1.85Z"/><path class="cls-2" d="M365.8,64.09l-2.56-4.45h1.19l1.39,2.51a11.09,11.09,0,0,1,.53,1.07h0a11.38,11.38,0,0,1,.54-1.07l1.4-2.51h1.16l-2.56,4.45v3.06h-1.1Z"/><path class="cls-2" d="M372.58,59.64h.81l4.26,4.87c.13.14.69.84.74.94h0c0-.11,0-1,0-1.17V59.64h1v7.51h-.82l-4.26-4.87c-.13-.14-.69-.84-.74-.94h0c0,.11,0,1,0,1.17v4.63h-1Z"/><path class="cls-2" d="M381.37,59.64h4.09v.9h-3v2.18h2.94v.9h-2.94v2.63h3.09v.9h-4.15Z"/><path class="cls-2" d="M388.77,60.55h-2.14v-.91H392v.91h-2.14v6.6h-1.06Z"/><path class="cls-2" d="M392.86,59.64H394l1.54,4.46c.05.17.42,1.28.43,1.45h0a15,15,0,0,1,.45-1.45L398,59.64h.85l1.6,4.46c.06.17.44,1.28.45,1.45h0c0-.17.38-1.28.44-1.45l1.53-4.46H404l-2.64,7.51h-.81l-1.73-4.69a12.53,12.53,0,0,1-.36-1.22h0a12.59,12.59,0,0,1-.37,1.22l-1.72,4.69h-.81Z"/><path class="cls-2" d="M404.47,63.4a4,4,0,1,1,3.95,3.91A3.81,3.81,0,0,1,404.47,63.4Zm6.81,0a2.86,2.86,0,1,0-2.87,3A2.8,2.8,0,0,0,411.28,63.4Z"/><path class="cls-2" d="M413.9,59.64h2.17a2.2,2.2,0,0,1,2.49,2.23A2.08,2.08,0,0,1,416.66,64l2.3,3.17h-1.24l-2.17-3.06H415v3.06H413.9ZM416,63.23c1,0,1.54-.53,1.54-1.35s-.56-1.35-1.54-1.35h-1v2.7Z"/><path class="cls-2" d="M420.16,59.64h1.06v3.49l3.1-3.49h1.28l-3.22,3.59,3.37,3.93h-1.33l-3.21-3.8v3.8h-1.06Z"/></svg>