<svg xmlns="http://www.w3.org/2000/svg" width="374" height="48" viewBox="0 0 374 48">
  <g fill="none" fill-rule="evenodd">
    <path fill="#009BFF" d="M18.582 32.459C17.202 35.998 15.627 38.638 13.857 40.379 12.087 42.118 9.837 42.989 7.107 42.989 5.877 42.989 4.767 42.854 3.777 42.584 2.787 42.314 1.947 41.983 1.257 41.593L3.462 36.194C3.882 36.403 4.347 36.583 4.857 36.734 5.367 36.883 5.907 36.959 6.477 36.959 7.287 36.959 8.014 36.763 8.66 36.374 9.305 35.984 9.867 35.278 10.347 34.258L10.707 33.449.357 11.354 8.997 11.354 14.082 25.079 18.267 11.354 26.772 11.354 18.582 32.459M40.407 28.633C41.786 28.633 42.889 28.101 43.714 27.036 44.539 25.971 44.952 24.554 44.952 22.784 44.952 21.014 44.539 19.604 43.714 18.553 42.889 17.504 41.786 16.979 40.407 16.979 39.026 16.979 37.924 17.504 37.099 18.553 36.274 19.604 35.862 21.014 35.862 22.784 35.862 24.554 36.274 25.971 37.099 27.036 37.924 28.101 39.026 28.633 40.407 28.633zM40.407 34.843C37.946 34.843 35.779 34.326 33.904 33.291 32.029 32.257 30.559 30.839 29.494 29.039 28.429 27.239 27.897 25.154 27.897 22.784 27.897 20.414 28.429 18.329 29.494 16.529 30.559 14.729 32.029 13.319 33.904 12.299 35.779 11.279 37.946 10.769 40.407 10.769 42.866 10.769 45.034 11.279 46.909 12.299 48.784 13.319 50.254 14.729 51.319 16.529 52.384 18.329 52.917 20.414 52.917 22.784 52.917 25.154 52.384 27.239 51.319 29.039 50.254 30.839 48.784 32.257 46.909 33.291 45.034 34.326 42.866 34.843 40.407 34.843L40.407 34.843zM64.842 25.394L64.842 34.258 57.012 34.258 57.012 11.354 64.166 11.354 64.662 15.178C65.141 13.949 65.929 12.951 67.024 12.186 68.119 11.422 69.387 11.039 70.827 11.039 71.637 11.039 72.251 11.144 72.672 11.354L72.672 18.509C72.341 18.389 71.974 18.3 71.569 18.239 71.164 18.179 70.706 18.149 70.197 18.149 68.637 18.149 67.354 18.727 66.349 19.881 65.344 21.037 64.842 22.874 64.842 25.394"/>
    <polyline fill="#009BFF" points="91.346 34.258 84.281 22.829 84.281 34.258 76.451 34.258 76.451 1.409 84.281 1.409 84.281 20.579 91.571 11.354 100.886 11.354 92.246 21.434 100.751 34.258 91.346 34.258"/>
    <path fill="#404040" d="M126.04 28.633C127.39 28.633 128.477 28.101 129.303 27.036 130.127 25.971 130.54 24.554 130.54 22.784 130.54 21.014 130.127 19.596 129.303 18.531 128.477 17.466 127.39 16.934 126.04 16.934 124.66 16.934 123.557 17.466 122.733 18.531 121.907 19.596 121.495 21.014 121.495 22.784 121.495 24.554 121.907 25.971 122.733 27.036 123.557 28.101 124.66 28.633 126.04 28.633zM131.08 34.258L130.675 31.244C129.955 32.354 129.025 33.231 127.885 33.876 126.745 34.521 125.425 34.843 123.925 34.843 121.855 34.843 120.04 34.333 118.48 33.314 116.92 32.294 115.705 30.877 114.835 29.061 113.965 27.247 113.53 25.154 113.53 22.784 113.53 20.414 113.965 18.329 114.835 16.529 115.705 14.729 116.898 13.319 118.413 12.299 119.927 11.279 121.675 10.769 123.655 10.769 125.035 10.769 126.31 11.061 127.48 11.646 128.65 12.231 129.625 13.019 130.405 14.008L130.405 1.409 138.235 1.409 138.235 34.258 131.08 34.258 131.08 34.258zM149.89 26.834C149.89 27.524 150.145 28.087 150.655 28.521 151.165 28.957 151.825 29.174 152.635 29.174 153.715 29.174 154.622 28.806 155.358 28.071 156.093 27.337 156.46 26.414 156.46 25.303L156.46 24.539C155.65 24.389 154.795 24.314 153.895 24.314 152.755 24.314 151.803 24.509 151.038 24.899 150.273 25.289 149.89 25.934 149.89 26.834zM156.775 34.258L156.37 31.244C154.87 33.644 152.59 34.843 149.53 34.843 148.18 34.843 146.958 34.551 145.863 33.967 144.767 33.382 143.898 32.579 143.253 31.559 142.607 30.539 142.285 29.354 142.285 28.004 142.285 25.454 143.282 23.474 145.278 22.064 147.273 20.654 149.905 19.949 153.175 19.949 154.195 19.949 155.275 20.039 156.415 20.218 156.295 19.079 155.808 18.216 154.953 17.632 154.098 17.047 153.055 16.754 151.825 16.754 150.745 16.754 149.658 16.956 148.563 17.361 147.467 17.766 146.425 18.254 145.435 18.824L142.78 13.784C144.28 12.824 145.9 12.082 147.64 11.556 149.38 11.032 151.12 10.769 152.86 10.769 154.96 10.769 156.85 11.129 158.53 11.849 160.21 12.569 161.53 13.664 162.49 15.133 163.45 16.604 163.93 18.464 163.93 20.714L163.93 34.258 156.775 34.258 156.775 34.258zM168.925 34.258L168.925 11.354C170.185 11.624 171.46 11.758 172.75 11.758 174.07 11.758 175.405 11.624 176.755 11.354L176.755 34.258 168.925 34.258"/>
    <polygon fill="#404040" points="182.245 34.259 190.075 34.259 190.075 1.409 182.245 1.409"/>
    <path fill="#404040" d="M211.449 32.459C210.069 35.998 208.494 38.638 206.724 40.379 204.953 42.118 202.703 42.989 199.974 42.989 198.743 42.989 197.634 42.854 196.644 42.584 195.654 42.314 194.814 41.983 194.124 41.593L196.329 36.194C196.749 36.403 197.214 36.583 197.724 36.734 198.234 36.883 198.774 36.959 199.344 36.959 200.154 36.959 200.881 36.763 201.527 36.374 202.171 35.984 202.734 35.278 203.214 34.258L203.574 33.449 193.224 11.354 201.864 11.354 206.949 25.079 211.134 11.354 219.639 11.354 211.449 32.459M241.463 25.394L241.463 34.258 233.633 34.258 233.633 11.354 240.788 11.354 241.283 15.178C241.763 13.949 242.55 12.951 243.646 12.186 244.741 11.422 246.008 11.039 247.448 11.039 248.258 11.039 248.873 11.144 249.293 11.354L249.293 18.509C248.963 18.389 248.596 18.3 248.191 18.239 247.785 18.179 247.328 18.149 246.818 18.149 245.258 18.149 243.975 18.727 242.971 19.881 241.965 21.037 241.463 22.874 241.463 25.394M263.918 16.439C261.367 16.439 259.838 17.789 259.328 20.489L268.058 20.489C267.847 19.019 267.345 17.976 266.55 17.361 265.755 16.747 264.878 16.439 263.918 16.439zM274.628 31.919C273.487 32.729 272.04 33.419 270.285 33.989 268.53 34.558 266.663 34.843 264.683 34.843 261.952 34.843 259.62 34.341 257.685 33.336 255.75 32.332 254.265 30.928 253.23 29.129 252.195 27.329 251.678 25.259 251.678 22.919 251.678 20.55 252.188 18.449 253.208 16.619 254.227 14.789 255.638 13.356 257.438 12.321 259.238 11.286 261.337 10.769 263.738 10.769 266.078 10.769 268.14 11.271 269.925 12.276 271.71 13.282 273.105 14.676 274.11 16.461 275.115 18.247 275.618 20.339 275.618 22.739 275.618 23.069 275.596 23.414 275.55 23.774 275.505 24.134 275.452 24.509 275.393 24.899L259.418 24.899C260.138 27.539 262.102 28.859 265.313 28.859 266.753 28.859 268.028 28.633 269.138 28.184 270.247 27.734 271.178 27.284 271.928 26.834L274.628 31.919 274.628 31.919zM290.333 34.843C287.992 34.843 285.915 34.341 284.1 33.336 282.284 32.332 280.852 30.928 279.803 29.129 278.752 27.329 278.228 25.229 278.228 22.829 278.228 20.429 278.752 18.329 279.803 16.529 280.852 14.729 282.284 13.327 284.1 12.321 285.915 11.316 287.992 10.814 290.333 10.814 292.403 10.814 294.218 11.196 295.778 11.961 297.337 12.726 298.718 13.949 299.918 15.629L294.742 19.409C294.322 18.779 293.775 18.261 293.1 17.856 292.425 17.451 291.698 17.249 290.918 17.249 289.568 17.249 288.443 17.752 287.543 18.756 286.642 19.761 286.193 21.119 286.193 22.829 286.193 24.539 286.642 25.896 287.543 26.901 288.443 27.907 289.568 28.409 290.918 28.409 291.698 28.409 292.425 28.206 293.1 27.801 293.775 27.396 294.322 26.879 294.742 26.249L299.918 30.029C298.718 31.709 297.337 32.931 295.778 33.696 294.218 34.461 292.403 34.843 290.333 34.843M314.542 28.633C315.922 28.633 317.024 28.101 317.849 27.036 318.674 25.971 319.087 24.554 319.087 22.784 319.087 21.014 318.674 19.604 317.849 18.553 317.024 17.504 315.922 16.979 314.542 16.979 313.162 16.979 312.059 17.504 311.235 18.553 310.409 19.604 309.997 21.014 309.997 22.784 309.997 24.554 310.409 25.971 311.235 27.036 312.059 28.101 313.162 28.633 314.542 28.633zM314.542 34.843C312.082 34.843 309.914 34.326 308.039 33.291 306.164 32.257 304.694 30.839 303.63 29.039 302.564 27.239 302.032 25.154 302.032 22.784 302.032 20.414 302.564 18.329 303.63 16.529 304.694 14.729 306.164 13.319 308.039 12.299 309.914 11.279 312.082 10.769 314.542 10.769 317.002 10.769 319.169 11.279 321.045 12.299 322.919 13.319 324.389 14.729 325.454 16.529 326.519 18.329 327.052 20.414 327.052 22.784 327.052 25.154 326.519 27.239 325.454 29.039 324.389 30.839 322.919 32.257 321.045 33.291 319.169 34.326 317.002 34.843 314.542 34.843L314.542 34.843zM338.977 25.394L338.977 34.258 331.147 34.258 331.147 11.354 338.302 11.354 338.797 15.178C339.277 13.949 340.064 12.951 341.159 12.186 342.254 11.422 343.522 11.039 344.962 11.039 345.772 11.039 346.387 11.144 346.807 11.354L346.807 18.509C346.476 18.389 346.11 18.3 345.704 18.239 345.3 18.179 344.842 18.149 344.332 18.149 342.772 18.149 341.489 18.727 340.485 19.881 339.479 21.037 338.977 22.874 338.977 25.394M361.702 28.633C363.052 28.633 364.139 28.101 364.964 27.036 365.789 25.971 366.202 24.554 366.202 22.784 366.202 21.014 365.789 19.596 364.964 18.531 364.139 17.466 363.052 16.934 361.702 16.934 360.322 16.934 359.219 17.466 358.394 18.531 357.569 19.596 357.157 21.014 357.157 22.784 357.157 24.554 357.569 25.971 358.394 27.036 359.219 28.101 360.322 28.633 361.702 28.633zM366.742 34.258L366.337 31.244C365.617 32.354 364.686 33.231 363.547 33.876 362.406 34.521 361.087 34.843 359.587 34.843 357.517 34.843 355.701 34.333 354.142 33.314 352.581 32.294 351.367 30.877 350.497 29.061 349.626 27.247 349.192 25.154 349.192 22.784 349.192 20.414 349.626 18.329 350.497 16.529 351.367 14.729 352.559 13.319 354.074 12.299 355.589 11.279 357.337 10.769 359.317 10.769 360.696 10.769 361.971 11.061 363.142 11.646 364.312 12.231 365.286 13.019 366.067 14.008L366.067 1.409 373.897 1.409 373.897 34.258 366.742 34.258 366.742 34.258zM220.816 44.361L222.056 44.361C222.463 44.361 222.785 44.26 223.022 44.06 223.259 43.86 223.378 43.586 223.378 43.239 223.378 42.893 223.259 42.62 223.022 42.419 222.785 42.218 222.463 42.119 222.056 42.119L220.816 42.119 220.816 44.361zM219.896 47.543L219.896 41.344 222.056 41.344C222.749 41.344 223.299 41.514 223.706 41.854 224.113 42.195 224.317 42.657 224.317 43.239 224.317 43.817 224.113 44.274 223.706 44.612 223.299 44.949 222.749 45.118 222.056 45.118L220.816 45.118 220.816 47.543 219.896 47.543 219.896 47.543zM226.177 45.209L228.438 45.209 227.307 42.301 226.177 45.209zM229.34 47.543L228.738 45.984 225.876 45.984 225.274 47.543 224.344 47.543 226.824 41.344 227.818 41.344 230.288 47.543 229.34 47.543 229.34 47.543zM232.239 44.27L233.506 44.27C233.901 44.27 234.216 44.173 234.45 43.978 234.684 43.784 234.801 43.522 234.801 43.194 234.801 42.866 234.684 42.605 234.45 42.41 234.216 42.216 233.901 42.119 233.506 42.119L232.239 42.119 232.239 44.27zM232.239 45.026L232.239 47.543 231.318 47.543 231.318 41.344 233.506 41.344C234.193 41.344 234.737 41.509 235.138 41.84 235.539 42.172 235.74 42.623 235.74 43.194 235.74 43.626 235.618 43.991 235.375 44.288 235.132 44.586 234.797 44.796 234.372 44.917L235.876 47.543 234.828 47.543 233.415 45.026 232.239 45.026 232.239 45.026z"/>
    <polyline fill="#404040" points="238.383 47.543 238.383 42.119 236.296 42.119 236.296 41.344 241.392 41.344 241.392 42.119 239.304 42.119 239.304 47.543 238.383 47.543"/>
    <path fill="#404040" d="M247.308,46.84 C247.709,46.84 248.066,46.739 248.379,46.535 C248.692,46.332 248.937,46.051 249.113,45.692 C249.289,45.334 249.377,44.917 249.377,44.443 C249.377,43.969 249.289,43.553 249.113,43.194 C248.937,42.836 248.692,42.554 248.379,42.351 C248.066,42.147 247.709,42.045 247.308,42.045 C246.907,42.045 246.551,42.147 246.241,42.351 C245.931,42.554 245.688,42.836 245.512,43.194 C245.336,43.553 245.248,43.969 245.248,44.443 C245.248,44.917 245.336,45.334 245.512,45.692 C245.688,46.051 245.931,46.332 246.241,46.535 C246.551,46.739 246.907,46.84 247.308,46.84 Z M247.308,47.643 C246.725,47.643 246.208,47.506 245.758,47.233 C245.308,46.959 244.954,46.582 244.696,46.102 C244.438,45.622 244.309,45.069 244.309,44.443 C244.309,43.817 244.438,43.264 244.696,42.784 C244.954,42.304 245.308,41.927 245.758,41.653 C246.208,41.38 246.725,41.243 247.308,41.243 C247.892,41.243 248.409,41.38 248.862,41.653 C249.315,41.927 249.67,42.304 249.929,42.784 C250.187,43.264 250.316,43.817 250.316,44.443 C250.316,45.069 250.187,45.622 249.929,46.102 C249.67,46.582 249.315,46.959 248.862,47.233 C248.409,47.506 247.892,47.643 247.308,47.643 L247.308,47.643 Z"/>
    <polyline fill="#404040" points="252.532 47.543 251.611 47.543 251.611 41.344 255.467 41.344 255.467 42.119 252.532 42.119 252.532 44.215 255.021 44.215 255.021 44.99 252.532 44.99 252.532 47.543"/>
    <polyline fill="#404040" points="260.271 47.543 260.271 42.119 258.183 42.119 258.183 41.344 263.279 41.344 263.279 42.119 261.192 42.119 261.192 47.543 260.271 47.543"/>
    <polyline fill="#404040" points="264.337 47.543 264.337 41.344 265.258 41.344 265.258 43.996 268.457 43.996 268.457 41.344 269.378 41.344 269.378 47.543 268.457 47.543 268.457 44.789 265.258 44.789 265.258 47.543 264.337 47.543"/>
    <polyline fill="#404040" points="271.001 47.543 271.001 41.344 274.976 41.344 274.976 42.119 271.922 42.119 271.922 44.033 274.611 44.033 274.611 44.807 271.922 44.807 271.922 46.768 275.048 46.768 275.048 47.543 271.001 47.543"/>
    <path fill="#404040" d="M280.865 46.84C281.369 46.84 281.766 46.689 282.054 46.385 282.343 46.081 282.487 45.671 282.487 45.154L282.487 41.344 283.408 41.344 283.408 45.163C283.408 45.935 283.181 46.541 282.729 46.982 282.276 47.422 281.654 47.643 280.865 47.643 280.074 47.643 279.455 47.422 279.005 46.982 278.555 46.541 278.33 45.935 278.33 45.163L278.33 41.344 279.251 41.344 279.251 45.154C279.251 45.671 279.395 46.081 279.684 46.385 279.973 46.689 280.366 46.84 280.865 46.84M286.845 47.643C286.377 47.643 285.93 47.561 285.505 47.397 285.079 47.233 284.736 47.014 284.474 46.741L284.994 46.129C285.237 46.355 285.524 46.531 285.856 46.658 286.187 46.786 286.517 46.849 286.845 46.849 287.246 46.849 287.57 46.772 287.816 46.617 288.062 46.462 288.185 46.248 288.185 45.975 288.185 45.725 288.096 45.516 287.92 45.345 287.744 45.175 287.443 45.033 287.018 44.917L286.161 44.689C285.608 44.543 285.205 44.337 284.953 44.069 284.701 43.802 284.575 43.453 284.575 43.021 284.575 42.669 284.669 42.358 284.857 42.091 285.046 41.824 285.305 41.616 285.637 41.466 285.968 41.318 286.343 41.243 286.763 41.243 287.206 41.243 287.623 41.327 288.011 41.494 288.401 41.661 288.744 41.894 289.042 42.191L288.486 42.793C288.224 42.55 287.952 42.363 287.67 42.232 287.387 42.102 287.088 42.036 286.772 42.036 286.389 42.036 286.076 42.117 285.833 42.278 285.59 42.439 285.468 42.662 285.468 42.948 285.468 43.209 285.555 43.413 285.728 43.559 285.901 43.705 286.167 43.826 286.526 43.924L287.483 44.188C288.036 44.34 288.44 44.552 288.695 44.826 288.951 45.099 289.078 45.44 289.078 45.847 289.078 46.206 288.984 46.52 288.796 46.791 288.607 47.061 288.346 47.27 288.011 47.419 287.677 47.569 287.288 47.643 286.845 47.643M291.394 45.209L293.655 45.209 292.524 42.301 291.394 45.209zM294.557 47.543L293.955 45.984 291.093 45.984 290.491 47.543 289.561 47.543 292.041 41.344 293.035 41.344 295.505 47.543 294.557 47.543 294.557 47.543z"/>
    <polyline fill="#404040" points="299.79 47.543 299.79 42.119 297.702 42.119 297.702 41.344 302.798 41.344 302.798 42.119 300.711 42.119 300.711 47.543 299.79 47.543"/>
    <path fill="#404040" d="M306.116 46.84C306.518 46.84 306.875 46.739 307.188 46.535 307.5 46.332 307.745 46.051 307.921 45.692 308.098 45.334 308.186 44.917 308.186 44.443 308.186 43.969 308.098 43.553 307.921 43.194 307.745 42.836 307.5 42.554 307.188 42.351 306.875 42.147 306.518 42.045 306.116 42.045 305.715 42.045 305.36 42.147 305.05 42.351 304.74 42.554 304.497 42.836 304.32 43.194 304.144 43.553 304.056 43.969 304.056 44.443 304.056 44.917 304.144 45.334 304.32 45.692 304.497 46.051 304.74 46.332 305.05 46.535 305.36 46.739 305.715 46.84 306.116 46.84zM306.116 47.643C305.533 47.643 305.017 47.506 304.567 47.233 304.117 46.959 303.763 46.582 303.505 46.102 303.246 45.622 303.117 45.069 303.117 44.443 303.117 43.817 303.246 43.264 303.505 42.784 303.763 42.304 304.117 41.927 304.567 41.653 305.017 41.38 305.533 41.243 306.116 41.243 306.7 41.243 307.218 41.38 307.671 41.653 308.123 41.927 308.479 42.304 308.738 42.784 308.996 43.264 309.125 43.817 309.125 44.443 309.125 45.069 308.996 45.622 308.738 46.102 308.479 46.582 308.123 46.959 307.671 47.233 307.218 47.506 306.7 47.643 306.116 47.643L306.116 47.643zM311.34 46.768L312.598 46.768C313.035 46.768 313.411 46.672 313.724 46.481 314.037 46.289 314.277 46.02 314.444 45.674 314.611 45.327 314.695 44.917 314.695 44.443 314.695 43.969 314.611 43.559 314.444 43.212 314.277 42.866 314.037 42.597 313.724 42.406 313.411 42.214 313.035 42.119 312.598 42.119L311.34 42.119 311.34 46.768zM310.419 47.543L310.419 41.344 312.598 41.344C313.206 41.344 313.738 41.473 314.193 41.731 314.649 41.989 315.003 42.351 315.255 42.816 315.508 43.28 315.634 43.823 315.634 44.443 315.634 45.063 315.508 45.605 315.255 46.07 315.003 46.535 314.649 46.897 314.193 47.155 313.738 47.413 313.206 47.543 312.598 47.543L310.419 47.543 310.419 47.543zM317.986 45.209L320.247 45.209 319.116 42.301 317.986 45.209zM321.149 47.543L320.547 45.984 317.685 45.984 317.083 47.543 316.153 47.543 318.633 41.344 319.627 41.344 322.097 47.543 321.149 47.543 321.149 47.543z"/>
    <polyline fill="#404040" points="324.923 45.081 324.923 47.543 324.002 47.543 324.002 45.081 321.824 41.344 322.909 41.344 324.467 44.206 326.026 41.344 327.093 41.344 324.923 45.081"/>
    <polyline fill="#404040" points="334.459 47.543 331.15 42.793 331.15 47.543 330.283 47.543 330.283 41.344 331.14 41.344 334.459 46.093 334.459 41.344 335.316 41.344 335.316 47.543 334.459 47.543"/>
    <polyline fill="#404040" points="336.938 47.543 336.938 41.344 340.913 41.344 340.913 42.119 337.859 42.119 337.859 44.033 340.548 44.033 340.548 44.807 337.859 44.807 337.859 46.768 340.986 46.768 340.986 47.543 336.938 47.543"/>
    <polyline fill="#404040" points="343.721 47.543 343.721 42.119 341.633 42.119 341.633 41.344 346.729 41.344 346.729 42.119 344.642 42.119 344.642 47.543 343.721 47.543"/>
    <polyline fill="#404040" points="352.746 47.543 351.296 42.602 349.847 47.543 348.89 47.543 347.24 41.344 348.151 41.344 349.409 46.248 350.859 41.344 351.734 41.344 353.192 46.266 354.46 41.344 355.353 41.344 353.703 47.543 352.746 47.543"/>
    <path fill="#404040" d="M359.009 46.84C359.41 46.84 359.767 46.739 360.08 46.535 360.393 46.332 360.638 46.051 360.814 45.692 360.99 45.334 361.078 44.917 361.078 44.443 361.078 43.969 360.99 43.553 360.814 43.194 360.638 42.836 360.393 42.554 360.08 42.351 359.767 42.147 359.41 42.045 359.009 42.045 358.608 42.045 358.252 42.147 357.942 42.351 357.632 42.554 357.389 42.836 357.213 43.194 357.037 43.553 356.948 43.969 356.948 44.443 356.948 44.917 357.037 45.334 357.213 45.692 357.389 46.051 357.632 46.332 357.942 46.535 358.252 46.739 358.608 46.84 359.009 46.84zM359.009 47.643C358.426 47.643 357.909 47.506 357.459 47.233 357.009 46.959 356.655 46.582 356.397 46.102 356.139 45.622 356.01 45.069 356.01 44.443 356.01 43.817 356.139 43.264 356.397 42.784 356.655 42.304 357.009 41.927 357.459 41.653 357.909 41.38 358.426 41.243 359.009 41.243 359.592 41.243 360.11 41.38 360.563 41.653 361.016 41.927 361.371 42.304 361.63 42.784 361.888 43.264 362.017 43.817 362.017 44.443 362.017 45.069 361.888 45.622 361.63 46.102 361.371 46.582 361.016 46.959 360.563 47.233 360.11 47.506 359.592 47.643 359.009 47.643L359.009 47.643zM364.232 44.27L365.5 44.27C365.894 44.27 366.209 44.173 366.443 43.978 366.677 43.784 366.794 43.522 366.794 43.194 366.794 42.866 366.677 42.605 366.443 42.41 366.209 42.216 365.894 42.119 365.5 42.119L364.232 42.119 364.232 44.27zM364.232 45.026L364.232 47.543 363.312 47.543 363.312 41.344 365.5 41.344C366.186 41.344 366.73 41.509 367.131 41.84 367.532 42.172 367.733 42.623 367.733 43.194 367.733 43.626 367.611 43.991 367.368 44.288 367.125 44.586 366.791 44.796 366.366 44.917L367.87 47.543 366.821 47.543 365.408 45.026 364.232 45.026 364.232 45.026z"/>
    <polyline fill="#404040" points="372.738 47.543 369.957 44.416 369.957 47.543 369.037 47.543 369.037 41.344 369.957 41.344 369.957 44.06 372.555 41.344 373.695 41.344 370.933 44.188 373.896 47.543 372.738 47.543"/>
    <path fill="#009BFF" d="M172.75,9.553 C171.46,9.553 170.357,9.096 169.443,8.181 C168.527,7.266 168.07,6.164 168.07,4.874 C168.07,3.584 168.527,2.482 169.443,1.566 C170.357,0.652 171.46,0.194 172.75,0.194 C174.04,0.194 175.142,0.652 176.058,1.566 C176.972,2.482 177.43,3.584 177.43,4.874 C177.43,6.164 176.972,7.266 176.058,8.181 C175.142,9.096 174.04,9.553 172.75,9.553"/>
  </g>
</svg>
