<svg xmlns="http://www.w3.org/2000/svg" xmlns:xlink="http://www.w3.org/1999/xlink" preserveAspectRatio="xMidYMid" width="434" height="80" viewBox="0 0 434 80">
  <path d="M419.376,52.631 C419.916,53.178 421.068,53.452 422.829,53.452 L422.829,56.093 L406.041,56.093 L406.041,53.452 C407.708,53.452 408.808,53.175 409.339,52.619 C409.871,52.065 410.137,51.026 410.137,49.503 L410.137,40.631 L396.873,40.631 L396.873,49.503 C396.873,51.010 397.135,52.045 397.659,52.608 C398.184,53.171 399.310,53.452 401.041,53.452 L401.041,56.093 L384.205,56.093 L384.205,53.452 C385.903,53.452 387.035,53.186 387.598,52.655 C388.162,52.124 388.444,51.074 388.444,49.503 L388.444,30.426 C388.444,28.903 388.178,27.865 387.646,27.310 C387.114,26.755 385.968,26.477 384.205,26.477 L384.205,23.837 L401.041,23.837 L401.041,26.477 C399.358,26.477 398.243,26.750 397.695,27.298 C397.147,27.845 396.873,28.888 396.873,30.426 L396.873,37.657 L410.137,37.657 L410.137,30.426 C410.137,28.935 409.879,27.904 409.364,27.333 C408.847,26.762 407.740,26.477 406.041,26.477 L406.041,23.837 L422.829,23.837 L422.829,26.477 C421.115,26.477 419.976,26.739 419.412,27.262 C418.848,27.785 418.567,28.840 418.567,30.426 L418.567,49.503 C418.567,51.042 418.837,52.084 419.376,52.631 ZM374.461,52.715 C371.778,55.411 368.237,56.758 363.841,56.758 C358.840,56.758 354.839,55.125 351.839,51.858 C348.839,48.591 347.338,44.714 347.338,40.226 C347.338,35.802 348.822,31.869 351.791,28.428 C354.759,24.987 358.864,23.266 364.103,23.266 C368.023,23.266 371.349,24.559 374.080,27.143 C374.445,26.334 374.779,25.375 375.080,24.265 L377.699,24.265 L378.033,36.182 L375.413,36.182 C374.635,32.947 373.361,30.502 371.592,28.844 C369.821,27.187 367.722,26.358 365.293,26.358 C362.499,26.358 360.395,27.452 358.983,29.641 C357.569,31.829 356.863,35.247 356.863,39.893 C356.863,43.160 357.117,45.749 357.625,47.660 C358.133,49.571 359.138,51.042 360.638,52.072 C362.138,53.104 363.777,53.618 365.555,53.618 C367.904,53.618 370.000,52.802 371.841,51.168 C373.683,49.535 375.009,47.045 375.818,43.699 L378.461,43.699 L378.461,55.807 L375.818,55.807 C375.517,54.523 375.064,53.492 374.461,52.715 ZM339.404,28.012 C338.483,27.147 337.015,26.715 334.999,26.715 L332.212,26.715 L332.212,49.503 C332.212,50.978 332.462,52.005 332.963,52.583 C333.462,53.163 334.514,53.452 336.118,53.452 L336.951,53.452 L336.951,56.093 L319.115,56.093 L319.115,53.452 L319.877,53.452 C321.497,53.452 322.548,53.155 323.032,52.560 C323.516,51.965 323.759,50.947 323.759,49.503 L323.759,26.715 L321.044,26.715 C319.425,26.715 318.234,26.890 317.472,27.238 C316.710,27.587 316.071,28.281 315.555,29.320 C315.039,30.359 314.725,31.591 314.615,33.019 L311.924,33.019 L311.924,23.836 L344.238,23.836 L344.238,33.019 L341.547,33.019 C341.038,30.545 340.324,28.876 339.404,28.012 ZM313.637,53.452 L313.637,56.092 L297.611,56.092 L297.611,53.452 C299.056,53.452 299.952,53.313 300.302,53.036 C300.651,52.758 300.826,52.405 300.826,51.977 C300.826,51.597 300.683,51.097 300.398,50.479 L300.088,49.742 L299.159,47.386 L289.229,47.386 L288.610,48.980 C288.165,50.106 287.943,50.899 287.943,51.359 C287.943,52.136 288.205,52.679 288.729,52.988 C289.253,53.298 290.110,53.452 291.301,53.452 L291.301,56.092 L280.633,56.092 L280.633,53.452 C282.665,53.452 284.371,51.724 285.753,48.266 L295.682,23.266 L298.469,23.266 L308.589,48.243 C309.589,50.717 310.494,52.203 311.304,52.703 C312.113,53.203 312.891,53.452 313.637,53.452 ZM294.063,35.017 L290.253,44.651 L298.088,44.651 L294.063,35.017 ZM275.640,41.094 C273.678,41.578 271.095,41.820 267.888,41.820 L265.507,41.820 L265.507,49.503 C265.507,50.978 265.757,52.005 266.257,52.583 C266.757,53.163 267.801,53.452 269.388,53.452 L270.127,53.452 L270.127,56.093 L252.625,56.093 L252.625,53.452 L253.196,53.452 C254.799,53.452 255.843,53.155 256.327,52.560 C256.811,51.965 257.054,50.946 257.054,49.503 L257.054,30.426 C257.054,28.951 256.803,27.924 256.304,27.345 C255.803,26.767 254.767,26.477 253.196,26.477 L252.410,26.477 L252.410,23.837 L265.507,23.551 C268.777,23.551 271.305,23.639 273.091,23.812 C274.877,23.987 276.517,24.471 278.009,25.264 C279.501,26.057 280.624,27.108 281.378,28.416 C282.132,29.724 282.509,31.155 282.509,32.709 C282.509,34.819 281.855,36.622 280.545,38.121 C279.236,39.620 277.600,40.611 275.640,41.094 ZM272.460,28.892 C271.841,27.869 271.055,27.203 270.103,26.893 C269.151,26.584 267.618,26.429 265.507,26.429 L265.507,38.965 L267.079,38.965 C269.603,38.965 271.286,38.415 272.127,37.312 C272.968,36.210 273.389,34.739 273.389,32.900 C273.389,31.251 273.079,29.915 272.460,28.892 ZM237.118,56.758 C235.451,56.758 233.820,56.410 232.225,55.712 C230.629,55.014 229.355,54.087 228.402,52.929 C228.037,53.642 227.767,54.515 227.593,55.546 L224.735,55.546 L224.735,44.508 L227.593,44.508 C228.386,47.806 229.577,50.162 231.164,51.573 C232.752,52.984 234.467,53.690 236.308,53.690 C237.673,53.690 238.761,53.286 239.570,52.477 C240.380,51.668 240.785,50.717 240.785,49.622 C240.785,48.845 240.531,48.068 240.023,47.291 C239.515,46.514 238.308,45.650 236.404,44.698 C232.737,42.875 230.260,41.539 228.974,40.690 C227.688,39.842 226.656,38.752 225.878,37.419 C225.100,36.087 224.711,34.557 224.711,32.828 C224.711,30.053 225.708,27.766 227.700,25.965 C229.692,24.166 231.998,23.266 234.618,23.266 C237.364,23.266 239.698,24.186 241.619,26.025 C241.936,25.549 242.198,24.820 242.404,23.837 L245.143,23.837 L245.143,33.351 L242.476,33.351 C242.000,31.242 241.095,29.506 239.761,28.142 C238.428,26.778 236.928,26.097 235.260,26.097 C234.006,26.097 233.010,26.445 232.272,27.143 C231.534,27.841 231.164,28.713 231.164,29.760 C231.164,30.568 231.403,31.318 231.879,32.008 C232.356,32.698 232.999,33.268 233.808,33.721 C234.618,34.172 236.332,35.009 238.952,36.230 C241.301,37.340 243.039,38.331 244.167,39.203 C245.293,40.075 246.187,41.174 246.845,42.498 C247.505,43.822 247.834,45.254 247.834,46.792 C247.834,49.646 246.778,52.021 244.667,53.916 C242.555,55.811 240.039,56.758 237.118,56.758 ZM201.323,53.452 C203.038,53.452 204.177,53.190 204.740,52.667 C205.304,52.144 205.586,51.089 205.586,49.503 L205.586,30.426 C205.586,28.888 205.320,27.845 204.788,27.298 C204.256,26.751 203.101,26.477 201.323,26.477 L201.323,23.836 L218.397,23.836 L218.397,26.477 L217.897,26.477 C216.293,26.477 215.249,26.774 214.766,27.369 C214.282,27.964 214.039,28.983 214.039,30.426 L214.039,49.503 C214.039,50.978 214.289,52.005 214.790,52.584 C215.290,53.163 216.326,53.452 217.897,53.452 L218.397,53.452 L218.397,56.093 L201.323,56.093 L201.323,53.452 ZM189.769,53.143 C187.769,54.475 185.697,55.300 183.554,55.616 C181.411,55.934 177.807,56.093 172.743,56.093 L161.123,56.093 L161.123,53.452 C162.821,53.452 163.948,53.186 164.504,52.655 C165.059,52.124 165.338,51.073 165.338,49.503 L165.338,30.402 C165.338,28.880 165.076,27.841 164.552,27.286 C164.028,26.731 162.885,26.453 161.123,26.453 L161.123,23.836 L165.004,23.694 C168.909,23.536 171.973,23.456 174.196,23.456 C177.911,23.456 180.931,23.670 183.256,24.098 C185.582,24.527 187.781,25.466 189.853,26.917 C191.924,28.368 193.520,30.248 194.639,32.554 C195.758,34.862 196.318,37.403 196.318,40.178 C196.318,43.017 195.726,45.554 194.544,47.791 C193.361,50.027 191.770,51.811 189.769,53.143 ZM185.031,31.722 C183.935,29.637 182.514,28.222 180.768,27.476 C179.021,26.731 176.696,26.358 173.791,26.358 L173.791,48.575 C173.791,50.003 173.858,50.962 173.993,51.454 C174.128,51.945 174.485,52.366 175.065,52.715 C175.644,53.064 176.538,53.238 177.744,53.238 C180.728,53.238 182.962,52.144 184.447,49.955 C185.932,47.767 186.674,44.492 186.674,40.131 C186.674,36.610 186.126,33.808 185.031,31.722 ZM140.735,54.998 L141.378,54.998 C143.188,54.998 144.315,54.848 144.759,54.546 C145.204,54.245 145.426,53.873 145.426,53.428 C145.426,52.762 144.275,51.279 141.973,48.980 L132.853,39.798 L130.543,41.820 L130.543,47.695 C130.543,50.233 130.606,51.894 130.734,52.679 C130.860,53.464 131.182,54.047 131.698,54.427 C132.214,54.808 133.202,54.998 134.662,54.998 L135.282,54.998 L135.282,56.093 L120.780,56.093 L120.780,54.998 L121.780,54.998 C123.161,54.998 124.118,54.824 124.649,54.475 C125.181,54.126 125.522,53.583 125.673,52.845 C125.824,52.108 125.899,50.392 125.899,47.695 L125.899,31.877 C125.899,29.213 125.816,27.516 125.649,26.787 C125.483,26.057 125.153,25.565 124.662,25.311 C124.169,25.058 123.019,24.931 121.208,24.931 L121.208,23.837 L135.496,23.837 L135.496,24.931 L134.901,24.931 C133.313,24.931 132.273,25.062 131.781,25.323 C131.289,25.585 130.960,26.072 130.793,26.787 C130.626,27.500 130.543,29.197 130.543,31.877 L130.543,40.250 L140.401,31.377 C142.688,29.331 143.831,27.872 143.831,27.000 C143.831,25.684 142.688,24.994 140.401,24.931 L140.401,23.837 L152.570,23.837 L152.570,24.931 C151.570,24.946 150.566,25.161 149.558,25.573 C148.549,25.985 147.625,26.525 146.784,27.191 C145.942,27.857 144.378,29.260 142.092,31.401 L136.210,36.824 L148.307,49.028 C151.070,51.835 152.919,53.532 153.856,54.118 C154.792,54.705 156.007,54.998 157.499,54.998 L157.499,56.093 L140.735,56.093 L140.735,54.998 ZM102.320,47.624 C101.304,46.165 100.249,44.766 99.153,43.426 C98.058,42.086 97.303,41.269 96.891,40.976 C96.478,40.682 95.835,40.535 94.962,40.535 L93.676,40.535 L93.676,47.696 C93.676,50.233 93.736,51.894 93.854,52.679 C93.974,53.464 94.291,54.047 94.807,54.428 C95.323,54.808 96.311,54.999 97.772,54.999 L99.320,54.999 L99.320,56.093 L83.865,56.093 L83.865,54.999 L84.913,54.999 C86.294,54.999 87.250,54.824 87.782,54.475 C88.314,54.126 88.652,53.583 88.794,52.846 C88.938,52.108 89.009,50.392 89.009,47.696 L89.009,31.877 C89.009,29.308 88.938,27.651 88.794,26.905 C88.652,26.160 88.334,25.644 87.842,25.359 C87.350,25.074 86.286,24.931 84.651,24.931 L84.103,24.931 L84.103,23.837 L88.723,23.599 C91.803,23.456 94.248,23.385 96.057,23.385 C99.137,23.385 101.642,23.670 103.570,24.241 C105.499,24.812 107.059,25.748 108.249,27.048 C109.440,28.349 110.036,29.902 110.036,31.711 C110.036,33.819 109.257,35.619 107.702,37.110 C106.146,38.601 103.860,39.529 100.844,39.893 C102.193,40.543 104.368,42.891 107.368,46.935 C109.813,50.217 111.734,52.366 113.131,53.381 C114.528,54.396 116.179,54.935 118.085,54.999 L118.085,56.093 L109.393,56.093 C107.853,55.014 105.495,52.191 102.320,47.624 ZM102.951,37.526 C103.531,36.979 103.987,36.262 104.321,35.373 C104.654,34.485 104.820,33.391 104.820,32.091 C104.820,29.824 104.253,28.008 103.118,26.644 C101.983,25.280 99.510,24.598 95.700,24.598 C95.112,24.598 94.438,24.630 93.676,24.693 L93.676,39.441 C94.867,39.409 96.097,39.362 97.367,39.298 C98.637,39.236 99.740,39.060 100.677,38.775 C101.614,38.490 102.372,38.074 102.951,37.526 ZM62.309,56.687 C57.181,56.687 52.974,55.141 49.688,52.049 C46.402,48.956 44.759,44.857 44.759,39.751 C44.759,34.771 46.426,30.775 49.760,27.762 C53.093,24.749 57.252,23.242 62.237,23.242 C67.269,23.242 71.473,24.733 74.846,27.714 C78.220,30.696 79.907,34.763 79.907,39.917 C79.907,44.912 78.291,48.956 75.061,52.049 C71.830,55.141 67.579,56.687 62.309,56.687 ZM71.310,28.440 C69.230,25.768 66.214,24.431 62.261,24.431 C58.371,24.431 55.391,25.736 53.319,28.345 C51.248,30.953 50.212,34.811 50.212,39.917 C50.212,45.103 51.248,48.996 53.319,51.597 C55.391,54.198 58.499,55.498 62.642,55.498 C66.278,55.498 69.151,54.198 71.262,51.597 C73.374,48.996 74.429,45.119 74.429,39.965 C74.429,34.953 73.390,31.112 71.310,28.440 ZM37.229,31.353 L29.990,43.414 L29.990,47.695 C29.990,50.439 30.074,52.188 30.240,52.941 C30.407,53.694 30.764,54.225 31.311,54.534 C31.859,54.843 32.934,54.998 34.538,54.998 L34.538,56.093 L20.774,56.093 L20.774,54.998 L21.298,54.998 C22.679,54.998 23.636,54.824 24.168,54.475 C24.699,54.126 25.037,53.583 25.180,52.846 C25.323,52.108 25.394,50.392 25.394,47.695 L25.394,43.723 L17.346,30.521 C15.710,27.857 14.622,26.267 14.083,25.751 C13.543,25.236 12.575,24.963 11.178,24.931 L11.178,23.837 L24.275,23.837 L24.275,24.931 C21.830,24.931 20.608,25.486 20.608,26.596 C20.608,27.040 21.012,27.928 21.822,29.260 L29.538,41.986 L35.896,31.306 C36.943,29.562 37.467,28.325 37.467,27.595 C37.467,26.929 37.190,26.318 36.634,25.764 C36.078,25.208 35.086,24.931 33.657,24.931 L33.657,23.837 L44.206,23.837 L44.206,24.931 C42.745,25.137 41.567,25.680 40.670,26.560 C39.773,27.440 38.626,29.038 37.229,31.353 Z" class="cls-1"/>
</svg>
