<svg id="Zanesville" xmlns="http://www.w3.org/2000/svg" xmlns:xlink="http://www.w3.org/1999/xlink" width="756" height="160" viewBox="0 0 756 160">
  <defs>
    <style>
      .cls-1 {
        fill: #000;
        filter: url(#filter);
      }

      .cls-1, .cls-2 {
        fill-rule: evenodd;
      }

      .cls-2 {
        fill: #000;
      }
    </style>
    <filter id="filter" x="362" y="119.969" width="367.969" height="16" filterUnits="userSpaceOnUse">
      <feFlood result="flood" flood-color="#999"/>
      <feComposite result="composite" operator="in" in2="SourceGraphic"/>
      <feBlend result="blend" in2="SourceGraphic"/>
    </filter>
  </defs>
  <path id="USAT_Network" data-name="USAT Network" class="cls-1" d="M361.989,120.273h4.489c3.156,0,5.267,1.865,5.267,4.741s-2.155,4.735-5.267,4.735h-2.29v5.925h-2.2v-15.4Zm4.267,7.659c2.112,0,3.244-1.163,3.244-2.918,0-1.736-1.132-2.919-3.244-2.919h-2.068v5.837h2.068Zm11.768-7.659h1.955l6.4,15.4h-2.358l-1.6-4.035h-6.912l-1.6,4.035H371.6S377.244,122.162,378.024,120.273Zm3.665,9.544-1.488-3.794c-0.222-.572-1.179-2.942-1.2-3.139h-0.043c-0.022.2-.955,2.5-1.2,3.139l-1.51,3.794h5.443Zm6.924-9.544h4.51c2.91,0,5.178,1.5,5.178,4.563a4.293,4.293,0,0,1-3.955,4.346l4.778,6.492h-2.579l-4.51-6.276h-1.223v6.276h-2.2v-15.4Zm4.267,7.351c2.043,0,3.2-1.077,3.2-2.764s-1.157-2.765-3.2-2.765h-2.068v5.529h2.068Zm11.522-5.486h-4.445v-1.865h11.089v1.865H406.6v13.536h-2.2V122.138Zm12.347,5.838a8.2,8.2,0,1,1,8.2,8A7.862,7.862,0,0,1,416.749,127.976Zm14.133,0a5.946,5.946,0,1,0-5.955,6.053A5.772,5.772,0,0,0,430.882,127.976Zm5.433-7.7h7.867v1.865h-5.668V127.1H444v1.865h-5.49v6.713h-2.2v-15.4Zm17.815,1.865h-4.444v-1.865h11.088v1.865H456.33v13.536h-2.2V122.138Zm8.953-1.865h2.2v6.318h8.178v-6.318h2.2v15.4h-2.2v-7.218h-8.178v7.218h-2.2v-15.4Zm16.631,0h8.49v1.846h-6.29v4.472h6.11v1.846h-6.11v5.395h6.422v1.842h-8.622v-15.4Zm16,10.092V120.273h2.221v9.433c0,2.679,1.157,4.323,3.756,4.323,2.622,0,3.78-1.644,3.78-4.323v-9.433h2.221v10.092c0,3.38-2.2,5.616-6,5.616C497.865,135.981,495.71,133.745,495.71,130.365Zm14.274,2.524,1.491-1.25a4.52,4.52,0,0,0,3.911,2.433c1.709,0,3.044-.918,3.044-2.611,0-1.817-1.534-2.433-3.446-3.178-1.956-.769-3.933-1.736-3.933-4.193,0-2.432,1.912-4.12,4.712-4.12a5.248,5.248,0,0,1,4.579,2.322l-1.491,1.25a3.552,3.552,0,0,0-3.088-1.668c-1.512,0-2.511.769-2.511,2.063,0,1.6,1.554,2.13,2.911,2.654,2.2,0.856,4.466,1.889,4.466,4.716,0,2.679-2,4.674-5.2,4.674A6.064,6.064,0,0,1,509.984,132.889Zm18.241-12.616h1.956l6.4,15.4h-2.357l-1.6-4.035h-6.912l-1.6,4.035H521.8S527.446,122.162,528.225,120.273Zm3.665,9.544-1.487-3.794c-0.222-.572-1.179-2.942-1.2-3.139h-0.044c-0.022.2-.955,2.5-1.2,3.139l-1.51,3.794h5.443Zm13.978-7.679h-4.445v-1.865h11.088v1.865h-4.444v13.536h-2.2V122.138Zm7.469,5.838a8.2,8.2,0,1,1,8.2,8A7.861,7.861,0,0,1,553.337,127.976Zm14.132,0a5.945,5.945,0,1,0-5.954,6.053A5.772,5.772,0,0,0,567.469,127.976Zm5.434-7.7h4.423c4.977,0,8.265,2.808,8.265,7.7,0,4.87-3.312,7.7-8.265,7.7H572.9v-15.4Zm2.2,13.534h2.046c3.643,0,6.176-1.9,6.176-5.831s-2.533-5.838-6.176-5.838H575.1v11.669Zm17.637-13.534H594.7l6.4,15.4h-2.357l-1.6-4.035h-6.912l-1.6,4.035h-2.311S591.96,122.162,592.739,120.273Zm3.666,9.544-1.489-3.794c-0.221-.572-1.178-2.942-1.2-3.139h-0.044c-0.022.2-.955,2.5-1.2,3.139l-1.51,3.794h5.444Zm9.084-.419-5.312-9.125h2.467l2.889,5.135a22.887,22.887,0,0,1,1.11,2.192h0.022a23.153,23.153,0,0,1,1.113-2.192l2.91-5.135h2.4l-5.309,9.125v6.276h-2.289V129.4Zm14.062-9.125h1.687l8.846,9.982c0.266,0.288,1.422,1.711,1.534,1.932l0.044-.023c-0.044-.217-0.044-2-0.044-2.39v-9.5h2.134v15.4h-1.713l-8.845-9.983c-0.265-.283-1.422-1.711-1.532-1.928l-0.021.02c0.021,0.221.043,2,.043,2.394v9.5h-2.133v-15.4Zm18.253,0h8.487v1.846H640v4.472h6.113v1.846H640v5.395h6.422v1.842H637.8v-15.4Zm15.37,1.865h-4.445v-1.865h11.089v1.865h-4.445v13.536h-2.2V122.138Zm8.477-1.865h2.334l3.2,9.15c0.112,0.351.867,2.63,0.889,2.981h0.046a30.445,30.445,0,0,1,.933-2.981l3.334-9.15h1.756l3.332,9.15c0.133,0.351.91,2.63,0.935,2.981h0.044c0.044-.351.8-2.63,0.91-2.981l3.179-9.15h2.243l-5.49,15.4h-1.688l-3.6-9.607a25.578,25.578,0,0,1-.758-2.5h-0.044a25.421,25.421,0,0,1-.776,2.5l-3.578,9.607h-1.69Zm24.119,7.7a8.2,8.2,0,1,1,8.2,8A7.861,7.861,0,0,1,685.77,127.976Zm14.132,0a5.945,5.945,0,1,0-5.955,6.053A5.772,5.772,0,0,0,699.9,127.976Zm5.433-7.7h4.511c2.913,0,5.177,1.5,5.177,4.563a4.293,4.293,0,0,1-3.955,4.346l4.779,6.492h-2.579l-4.511-6.276h-1.222v6.276h-2.2v-15.4Zm4.267,7.351c2.044,0,3.2-1.077,3.2-2.764s-1.156-2.765-3.2-2.765h-2.067v5.529H709.6Zm8.736-7.351h2.2v7.154l6.444-7.154h2.666l-6.687,7.351,7,8.05h-2.754l-6.668-7.785v7.785h-2.2v-15.4Z"/>
  <path class="cls-2" d="M24.358,29.78H0V24.007h54.95V29.78H30.588V104.6h-6.23V29.78Zm39.687,8.238a4.22,4.22,0,0,1-3.115-1.2,4.274,4.274,0,0,1-1.207-3.166,4.131,4.131,0,0,1,4.322-4.315,4.293,4.293,0,0,1,3.171,1.2,4.206,4.206,0,0,1,1.207,3.11A4.141,4.141,0,0,1,64.045,38.018ZM61.07,47.881h6.006V104.6H61.07V47.881Zm21.165,0h5.893v7.566h0.224A22.142,22.142,0,0,1,94.78,49.17q4.012-2.634,10.693-2.634a22.372,22.372,0,0,1,11.674,2.914,17.707,17.707,0,0,1,7.3,8.687,22.491,22.491,0,0,1,7.184-8.406q4.547-3.194,12.236-3.194,9.654,0,15.408,5.66t5.753,16.812V104.6h-6.006V70.522q0-9.751-4.125-14.291T143.64,51.692A16.476,16.476,0,0,0,131.4,56.511q-4.771,4.82-4.771,14.459V104.6h-6.006V70.522q0-9.751-4.125-14.291t-11.254-4.539a16.475,16.475,0,0,0-12.236,4.819q-4.771,4.82-4.771,14.459V104.6H82.236V47.881ZM201.288,106a25.44,25.44,0,0,1-11.871-2.662,27.262,27.262,0,0,1-8.588-6.837,29.158,29.158,0,0,1-5.22-9.527A33.89,33.89,0,0,1,175.5,65.7a29.139,29.139,0,0,1,5.051-9.527,26.08,26.08,0,0,1,8.644-6.949,30.3,30.3,0,0,1,24.584-.168,24.5,24.5,0,0,1,8.476,6.7,27.89,27.89,0,0,1,4.939,9.527,38.071,38.071,0,0,1,1.6,10.956v0.224H179.678a27.84,27.84,0,0,0,1.516,9.191,25.4,25.4,0,0,0,4.266,7.762,19.888,19.888,0,0,0,6.819,5.38,21.417,21.417,0,0,0,9.514,1.99,21.057,21.057,0,0,0,12.348-3.559,25.172,25.172,0,0,0,8.083-9.387l5.051,2.746a26.868,26.868,0,0,1-10.833,11.489A30.345,30.345,0,0,1,201.288,106Zm21.5-34.578a24.621,24.621,0,0,0-2.386-8.1,22.472,22.472,0,0,0-4.6-6.249,19.736,19.736,0,0,0-6.4-4.063,21.289,21.289,0,0,0-7.886-1.429,20.771,20.771,0,0,0-8.11,1.541,21.2,21.2,0,0,0-6.455,4.175,20.757,20.757,0,0,0-4.49,6.249,28.743,28.743,0,0,0-2.386,7.874h42.714ZM252.93,106q-7.914,0-13.162-3.447a24.066,24.066,0,0,1-7.886-8.042l4.266-3.25a30.535,30.535,0,0,0,2.638,3.475,17.984,17.984,0,0,0,3.564,3.11,17.361,17.361,0,0,0,4.6,2.157,19.565,19.565,0,0,0,5.753.785,19.034,19.034,0,0,0,5.557-.785,15.157,15.157,0,0,0,4.546-2.214,10.154,10.154,0,0,0,3.059-3.5,9.926,9.926,0,0,0,1.1-4.707A9.006,9.006,0,0,0,265.7,84.7a12.074,12.074,0,0,0-3.4-3.5,26.251,26.251,0,0,0-4.883-2.634q-2.751-1.149-5.781-2.214-3.087-1.121-5.894-2.438a23.733,23.733,0,0,1-5-3.11,14.2,14.2,0,0,1-3.508-4.2,11.481,11.481,0,0,1-1.319-5.6,13.436,13.436,0,0,1,1.263-5.884,12.757,12.757,0,0,1,3.62-4.511,18.261,18.261,0,0,1,5.585-2.97,21.648,21.648,0,0,1,6.988-1.093A21.15,21.15,0,0,1,263.96,49a20.463,20.463,0,0,1,6.875,6.108L266.626,58.7a17.889,17.889,0,0,0-5.08-4.876,14.323,14.323,0,0,0-8.054-2.13A13.031,13.031,0,0,0,245.1,54.27a8.088,8.088,0,0,0-3.228,6.613A7.2,7.2,0,0,0,243.024,65a10.638,10.638,0,0,0,2.947,2.914,20.487,20.487,0,0,0,4.041,2.073q2.244,0.869,4.434,1.653,3.085,1.177,6.427,2.55a26.171,26.171,0,0,1,5.977,3.391,17.231,17.231,0,0,1,4.35,4.876,13.17,13.17,0,0,1,1.712,6.893,15.1,15.1,0,0,1-1.487,6.7,15.611,15.611,0,0,1-4.126,5.24,19.929,19.929,0,0,1-6.314,3.447A24.7,24.7,0,0,1,252.93,106Zm39.621-81.989h28.625a41.779,41.779,0,0,1,11.45,1.513,26.327,26.327,0,0,1,9.29,4.651,22.191,22.191,0,0,1,6.258,7.958,26.446,26.446,0,0,1,2.3,11.488A21.609,21.609,0,0,1,345.7,63.713q-4.77,5.856-13.47,8.378l22.731,32.5H334.872L314.946,74.612h-4.939V104.6H292.551V24.007Zm26.1,37.1q6.9,0,10.412-3t3.508-8.49q0-5.492-3.508-8.49t-10.412-3h-8.643V61.107h8.643ZM385.5,106A36.74,36.74,0,0,1,371,103.39a29.732,29.732,0,0,1-10.047-6.781,27.49,27.49,0,0,1-5.922-9.527,31.248,31.248,0,0,1-1.964-10.844,34.423,34.423,0,0,1,1.628-10.2,27.332,27.332,0,0,1,5.248-9.583,27.9,27.9,0,0,1,9.429-7.117,37.521,37.521,0,0,1,28.317-.056,26.022,26.022,0,0,1,14.229,16.532,35.988,35.988,0,0,1,1.487,9.975,22.06,22.06,0,0,1-.337,4.147H369.62a14.385,14.385,0,0,0,1.8,5.828,13.075,13.075,0,0,0,3.732,4.147,15.993,15.993,0,0,0,5.164,2.41,22.715,22.715,0,0,0,5.978.785,19.028,19.028,0,0,0,9.514-2.13,18.747,18.747,0,0,0,5.921-5.1l9.149,9.415a24.906,24.906,0,0,1-9.906,7.761A36.706,36.706,0,0,1,385.5,106Zm11.843-35.811q-1.291-5.884-5.023-8.742a14.039,14.039,0,0,0-8.784-2.858,14.273,14.273,0,0,0-8.841,2.858q-3.788,2.858-5.079,8.742h27.727ZM449.605,106a32.431,32.431,0,0,1-13.162-2.55,30.152,30.152,0,0,1-9.767-6.669,29.151,29.151,0,0,1-6.09-9.443,29.71,29.71,0,0,1,0-22.108,28.931,28.931,0,0,1,6.09-9.527,29.8,29.8,0,0,1,9.767-6.641,33.047,33.047,0,0,1,13.274-2.522,38.1,38.1,0,0,1,7.493.672,18.607,18.607,0,0,1,5.08,1.625V63.965a12.8,12.8,0,0,0-4.912-2.522,22.528,22.528,0,0,0-6.37-.9,18.2,18.2,0,0,0-6.286,1.065,14.474,14.474,0,0,0-5.052,3.082,14.7,14.7,0,0,0-3.4,4.96,17.87,17.87,0,0,0,0,13.2,14.435,14.435,0,0,0,8.448,8.042,17.778,17.778,0,0,0,6.286,1.093,20.581,20.581,0,0,0,6.539-1.037,15.667,15.667,0,0,0,5.08-2.662v15.187a26.993,26.993,0,0,1-5.249,1.709A33.543,33.543,0,0,1,449.605,106Zm50.232,0A33.491,33.491,0,0,1,486,103.334a30.368,30.368,0,0,1-9.878-6.893,28.07,28.07,0,0,1-5.922-9.583,29.694,29.694,0,0,1,0-21.24,28.07,28.07,0,0,1,5.922-9.583A30.016,30.016,0,0,1,486,49.17a37.8,37.8,0,0,1,27.728,0,30.026,30.026,0,0,1,9.878,6.865,28.07,28.07,0,0,1,5.922,9.583,29.694,29.694,0,0,1,0,21.24,28.07,28.07,0,0,1-5.922,9.583,30.378,30.378,0,0,1-9.878,6.893A33.648,33.648,0,0,1,499.837,106Zm0-13.9A15.813,15.813,0,0,0,505.73,91a14.156,14.156,0,0,0,4.827-3.166,14.456,14.456,0,0,0,3.228-4.988,17.913,17.913,0,0,0,1.15-6.613,17.648,17.648,0,0,0-1.15-6.473,14.284,14.284,0,0,0-8.055-8.21,15.9,15.9,0,0,0-11.73,0,14.277,14.277,0,0,0-8.055,8.21,17.627,17.627,0,0,0-1.15,6.473,17.893,17.893,0,0,0,1.15,6.613,14.439,14.439,0,0,0,3.227,4.988A14.151,14.151,0,0,0,494,91,15.657,15.657,0,0,0,499.837,92.1ZM537.5,47.881h15.6v8.742h0.225a20.84,20.84,0,0,1,6.034-7.285,15.607,15.607,0,0,1,9.626-2.8,17.108,17.108,0,0,1,5.5.785V62.227a13.714,13.714,0,0,0-3.255-.84,25.851,25.851,0,0,0-3.761-.28q-6.567,0-9.934,3.839t-3.368,11.18V104.6H537.5V47.881ZM605.573,106a28.6,28.6,0,0,1-13.274-2.831,26.19,26.19,0,0,1-8.84-7.173,29,29,0,0,1-4.939-9.7,37.17,37.17,0,0,1-1.572-10.508,31.482,31.482,0,0,1,2.077-11.544,27.865,27.865,0,0,1,5.865-9.275,27.122,27.122,0,0,1,9.037-6.193,29.354,29.354,0,0,1,11.646-2.242,26.215,26.215,0,0,1,6.454.729,22.508,22.508,0,0,1,5.108,1.933,15.9,15.9,0,0,1,3.847,2.83,31.947,31.947,0,0,1,2.776,3.194h0.113V24.007h16.67V104.6h-15.66V96.469h-0.225a24.827,24.827,0,0,1-7.465,6.753A22.2,22.2,0,0,1,605.573,106Zm3.367-13.675a15.034,15.034,0,0,0,6.231-1.261,14.578,14.578,0,0,0,7.887-8.546,18.547,18.547,0,0,0,1.037-6.277,18.764,18.764,0,0,0-.98-6.08,15,15,0,0,0-2.919-5.1,14.51,14.51,0,0,0-4.771-3.559,16.366,16.366,0,0,0-13,0,14.2,14.2,0,0,0-7.6,8.6,19.245,19.245,0,0,0-.982,6.136,18.572,18.572,0,0,0,1.038,6.277,14.676,14.676,0,0,0,3.059,5.1A14.481,14.481,0,0,0,608.94,92.321ZM679.048,106a36.733,36.733,0,0,1-14.507-2.606,29.742,29.742,0,0,1-10.047-6.781,27.478,27.478,0,0,1-5.923-9.527,31.249,31.249,0,0,1-1.965-10.844,34.488,34.488,0,0,1,1.628-10.2,27.337,27.337,0,0,1,5.25-9.583,27.9,27.9,0,0,1,9.43-7.117,37.514,37.514,0,0,1,28.314-.056,26.017,26.017,0,0,1,14.231,16.532,35.909,35.909,0,0,1,1.485,9.975,22.152,22.152,0,0,1-.336,4.147H663.164a14.416,14.416,0,0,0,1.8,5.828,13.072,13.072,0,0,0,3.735,4.147,15.983,15.983,0,0,0,5.164,2.41,22.692,22.692,0,0,0,5.975.785,19.028,19.028,0,0,0,9.516-2.13,18.753,18.753,0,0,0,5.92-5.1l9.149,9.415a24.9,24.9,0,0,1-9.9,7.761A36.712,36.712,0,0,1,679.048,106Zm11.844-35.811Q689.6,64.3,685.87,61.443a14.038,14.038,0,0,0-8.786-2.858,14.262,14.262,0,0,0-8.838,2.858q-3.789,2.858-5.082,8.742h27.728Zm22.122-22.3h15.6v8.742h0.225a20.835,20.835,0,0,1,6.032-7.285,15.613,15.613,0,0,1,9.628-2.8,17.108,17.108,0,0,1,5.5.785V62.227a13.714,13.714,0,0,0-3.255-.84,25.851,25.851,0,0,0-3.761-.28q-6.567,0-9.934,3.839t-3.368,11.18V104.6h-16.67V47.881Z"/>
</svg>
