<svg xmlns="http://www.w3.org/2000/svg" width="344" height="47" viewBox="0 0 344 47">
  <g fill="none" fill-rule="evenodd" transform="translate(0 -1)">
    <path fill="#404040" d="M10.308 44.569L11.471 44.569C11.852 44.569 12.154 44.475 12.377 44.286 12.599 44.098 12.71 43.842 12.71 43.518 12.71 43.193 12.599 42.937 12.377 42.749 12.154 42.561 11.852 42.467 11.471 42.467L10.308 42.467 10.308 44.569zM9.445 47.551L9.445 41.74 11.471 41.74C12.12 41.74 12.636 41.899 13.017 42.219 13.399 42.538 13.59 42.971 13.59 43.518 13.59 44.059 13.399 44.487 13.017 44.803 12.636 45.119 12.12 45.277 11.471 45.277L10.308 45.277 10.308 47.551 9.445 47.551zM15.333 45.363L17.453 45.363 16.393 42.637 15.333 45.363zM18.299 47.551L17.735 46.09 15.051 46.09 14.488 47.551 13.616 47.551 15.94 41.74 16.872 41.74 19.188 47.551 18.299 47.551zM21.016 44.483L22.204 44.483C22.574 44.483 22.869 44.392 23.088 44.21 23.307 44.027 23.417 43.782 23.417 43.475 23.417 43.167 23.307 42.922 23.088 42.739 22.869 42.558 22.574 42.467 22.204 42.467L21.016 42.467 21.016 44.483zM21.016 45.192L21.016 47.551 20.153 47.551 20.153 41.74 22.204 41.74C22.847 41.74 23.357 41.895 23.734 42.206 24.109 42.516 24.297 42.939 24.297 43.475 24.297 43.879 24.184 44.221 23.956 44.5 23.728 44.779 23.414 44.976 23.016 45.09L24.426 47.551 23.443 47.551 22.118 45.192 21.016 45.192z"/>
    <polyline fill="#404040" points="26.776 47.551 26.776 42.467 24.819 42.467 24.819 41.74 29.596 41.74 29.596 42.467 27.639 42.467 27.639 47.551 26.776 47.551"/>
    <path fill="#404040" d="M35.142,46.893 C35.518,46.893 35.853,46.798 36.146,46.606 C36.439,46.416 36.669,46.152 36.834,45.816 C36.999,45.48 37.082,45.09 37.082,44.645 C37.082,44.201 36.999,43.811 36.834,43.475 C36.669,43.138 36.439,42.875 36.146,42.685 C35.853,42.493 35.518,42.398 35.142,42.398 C34.766,42.398 34.433,42.493 34.142,42.685 C33.852,42.875 33.624,43.138 33.458,43.475 C33.293,43.811 33.211,44.201 33.211,44.645 C33.211,45.09 33.293,45.48 33.458,45.816 C33.624,46.152 33.852,46.416 34.142,46.606 C34.433,46.798 34.766,46.893 35.142,46.893 Z M35.142,47.645 C34.595,47.645 34.111,47.517 33.689,47.261 C33.268,47.004 32.936,46.651 32.694,46.201 C32.451,45.751 32.33,45.232 32.33,44.645 C32.33,44.059 32.451,43.54 32.694,43.09 C32.936,42.64 33.268,42.287 33.689,42.03 C34.111,41.774 34.595,41.646 35.142,41.646 C35.689,41.646 36.175,41.774 36.599,42.03 C37.023,42.287 37.357,42.64 37.599,43.09 C37.841,43.54 37.962,44.059 37.962,44.645 C37.962,45.232 37.841,45.751 37.599,46.201 C37.357,46.651 37.023,47.004 36.599,47.261 C36.175,47.517 35.689,47.645 35.142,47.645 Z"/>
    <polyline fill="#404040" points="40.038 47.551 39.175 47.551 39.175 41.74 42.79 41.74 42.79 42.467 40.038 42.467 40.038 44.432 42.371 44.432 42.371 45.158 40.038 45.158 40.038 47.551"/>
    <polyline fill="#404040" points="47.294 47.551 47.294 42.467 45.337 42.467 45.337 41.74 50.114 41.74 50.114 42.467 48.157 42.467 48.157 47.551 47.294 47.551"/>
    <polyline fill="#404040" points="51.105 47.551 51.105 41.74 51.968 41.74 51.968 44.226 54.968 44.226 54.968 41.74 55.831 41.74 55.831 47.551 54.968 47.551 54.968 44.97 51.968 44.97 51.968 47.551 51.105 47.551"/>
    <polyline fill="#404040" points="57.351 47.551 57.351 41.74 61.077 41.74 61.077 42.467 58.215 42.467 58.215 44.261 60.735 44.261 60.735 44.987 58.215 44.987 58.215 46.825 61.146 46.825 61.146 47.551 57.351 47.551"/>
    <path fill="#404040" d="M66.598 46.893C67.071 46.893 67.442 46.75 67.713 46.466 67.984 46.181 68.119 45.796 68.119 45.312L68.119 41.74 68.982 41.74 68.982 45.321C68.982 46.044 68.77 46.613 68.346 47.025 67.921 47.438 67.338 47.645 66.598 47.645 65.857 47.645 65.276 47.438 64.855 47.025 64.433 46.613 64.222 46.044 64.222 45.321L64.222 41.74 65.085 41.74 65.085 45.312C65.085 45.796 65.22 46.181 65.491 46.466 65.762 46.75 66.131 46.893 66.598 46.893M72.203 47.645C71.765 47.645 71.346 47.568 70.947 47.414 70.548 47.261 70.227 47.055 69.982 46.799L70.469 46.226C70.697 46.437 70.966 46.602 71.276 46.722 71.587 46.842 71.896 46.901 72.203 46.901 72.58 46.901 72.883 46.829 73.114 46.684 73.344 46.538 73.46 46.338 73.46 46.081 73.46 45.848 73.377 45.651 73.212 45.491 73.047 45.332 72.765 45.198 72.366 45.09L71.563 44.876C71.044 44.739 70.667 44.546 70.43 44.295 70.194 44.045 70.076 43.717 70.076 43.312 70.076 42.982 70.164 42.691 70.341 42.441 70.517 42.19 70.761 41.995 71.071 41.855 71.382 41.715 71.734 41.646 72.127 41.646 72.542 41.646 72.933 41.725 73.297 41.881 73.662 42.038 73.984 42.256 74.263 42.535L73.742 43.099C73.497 42.871 73.242 42.696 72.977 42.573 72.712 42.451 72.431 42.389 72.135 42.389 71.776 42.389 71.483 42.465 71.255 42.616 71.027 42.767 70.913 42.976 70.913 43.244 70.913 43.489 70.994 43.68 71.157 43.816 71.319 43.953 71.568 44.067 71.904 44.158L72.802 44.406C73.32 44.549 73.699 44.748 73.938 45.005 74.178 45.261 74.297 45.58 74.297 45.962 74.297 46.298 74.209 46.592 74.032 46.846 73.856 47.099 73.611 47.296 73.297 47.435 72.984 47.575 72.619 47.645 72.203 47.645M76.468 45.363L78.587 45.363 77.528 42.637 76.468 45.363zM79.433 47.551L78.869 46.09 76.186 46.09 75.622 47.551 74.75 47.551 77.075 41.74 78.006 41.74 80.322 47.551 79.433 47.551z"/>
    <polyline fill="#404040" points="84.339 47.551 84.339 42.467 82.382 42.467 82.382 41.74 87.159 41.74 87.159 42.467 85.201 42.467 85.201 47.551 84.339 47.551"/>
    <path fill="#404040" d="M90.269 46.893C90.645 46.893 90.98 46.798 91.273 46.606 91.567 46.416 91.796 46.152 91.961 45.816 92.126 45.48 92.209 45.09 92.209 44.645 92.209 44.201 92.126 43.811 91.961 43.475 91.796 43.138 91.567 42.875 91.273 42.685 90.98 42.493 90.645 42.398 90.269 42.398 89.893 42.398 89.56 42.493 89.269 42.685 88.979 42.875 88.751 43.138 88.586 43.475 88.42 43.811 88.338 44.201 88.338 44.645 88.338 45.09 88.42 45.48 88.586 45.816 88.751 46.152 88.979 46.416 89.269 46.606 89.56 46.798 89.893 46.893 90.269 46.893zM90.269 47.645C89.722 47.645 89.238 47.517 88.816 47.261 88.395 47.004 88.063 46.651 87.821 46.201 87.579 45.751 87.457 45.232 87.457 44.645 87.457 44.059 87.579 43.54 87.821 43.09 88.063 42.64 88.395 42.287 88.816 42.03 89.238 41.774 89.722 41.646 90.269 41.646 90.816 41.646 91.302 41.774 91.726 42.03 92.151 42.287 92.484 42.64 92.726 43.09 92.968 43.54 93.089 44.059 93.089 44.645 93.089 45.232 92.968 45.751 92.726 46.201 92.484 46.651 92.151 47.004 91.726 47.261 91.302 47.517 90.816 47.645 90.269 47.645zM95.165 46.825L96.345 46.825C96.755 46.825 97.106 46.735 97.4 46.555 97.693 46.376 97.918 46.124 98.075 45.799 98.232 45.474 98.31 45.09 98.31 44.645 98.31 44.201 98.232 43.816 98.075 43.492 97.918 43.167 97.693 42.915 97.4 42.735 97.106 42.556 96.755 42.467 96.345 42.467L95.165 42.467 95.165 46.825zM94.302 47.551L94.302 41.74 96.345 41.74C96.914 41.74 97.413 41.861 97.84 42.103 98.268 42.345 98.599 42.685 98.836 43.12 99.072 43.556 99.19 44.064 99.19 44.645 99.19 45.227 99.072 45.735 98.836 46.171 98.599 46.606 98.268 46.945 97.84 47.188 97.413 47.43 96.914 47.551 96.345 47.551L94.302 47.551zM101.395 45.363L103.514 45.363 102.455 42.637 101.395 45.363zM104.361 47.551L103.797 46.09 101.113 46.09 100.549 47.551 99.678 47.551 102.002 41.74 102.934 41.74 105.249 47.551 104.361 47.551z"/>
    <polyline fill="#404040" points="107.899 45.243 107.899 47.551 107.036 47.551 107.036 45.243 104.993 41.74 106.01 41.74 107.471 44.423 108.933 41.74 109.933 41.74 107.899 45.243"/>
    <polyline fill="#404040" points="116.837 47.551 113.735 43.099 113.735 47.551 112.923 47.551 112.923 41.74 113.727 41.74 116.837 46.192 116.837 41.74 117.64 41.74 117.64 47.551 116.837 47.551"/>
    <polyline fill="#404040" points="119.161 47.551 119.161 41.74 122.887 41.74 122.887 42.467 120.025 42.467 120.025 44.261 122.546 44.261 122.546 44.987 120.025 44.987 120.025 46.825 122.956 46.825 122.956 47.551 119.161 47.551"/>
    <polyline fill="#404040" points="125.52 47.551 125.52 42.467 123.563 42.467 123.563 41.74 128.34 41.74 128.34 42.467 126.382 42.467 126.382 47.551 125.52 47.551"/>
    <polyline fill="#404040" points="133.979 47.551 132.621 42.919 131.262 47.551 130.364 47.551 128.818 41.74 129.672 41.74 130.852 46.338 132.21 41.74 133.031 41.74 134.398 46.354 135.586 41.74 136.423 41.74 134.877 47.551 133.979 47.551"/>
    <path fill="#404040" d="M139.85 46.893C140.226 46.893 140.561 46.798 140.854 46.606 141.148 46.416 141.377 46.152 141.542 45.816 141.707 45.48 141.79 45.09 141.79 44.645 141.79 44.201 141.707 43.811 141.542 43.475 141.377 43.138 141.148 42.875 140.854 42.685 140.561 42.493 140.226 42.398 139.85 42.398 139.474 42.398 139.141 42.493 138.85 42.685 138.56 42.875 138.332 43.138 138.167 43.475 138.001 43.811 137.919 44.201 137.919 44.645 137.919 45.09 138.001 45.48 138.167 45.816 138.332 46.152 138.56 46.416 138.85 46.606 139.141 46.798 139.474 46.893 139.85 46.893zM139.85 47.645C139.303 47.645 138.819 47.517 138.398 47.261 137.976 47.004 137.644 46.651 137.402 46.201 137.16 45.751 137.039 45.232 137.039 44.645 137.039 44.059 137.16 43.54 137.402 43.09 137.644 42.64 137.976 42.287 138.398 42.03 138.819 41.774 139.303 41.646 139.85 41.646 140.397 41.646 140.883 41.774 141.307 42.03 141.732 42.287 142.065 42.64 142.307 43.09 142.549 43.54 142.671 44.059 142.671 44.645 142.671 45.232 142.549 45.751 142.307 46.201 142.065 46.651 141.732 47.004 141.307 47.261 140.883 47.517 140.397 47.645 139.85 47.645zM144.747 44.483L145.935 44.483C146.305 44.483 146.6 44.392 146.819 44.21 147.039 44.027 147.148 43.782 147.148 43.475 147.148 43.167 147.039 42.922 146.819 42.739 146.6 42.558 146.305 42.467 145.935 42.467L144.747 42.467 144.747 44.483zM144.747 45.192L144.747 47.551 143.884 47.551 143.884 41.74 145.935 41.74C146.578 41.74 147.088 41.895 147.465 42.206 147.84 42.516 148.028 42.939 148.028 43.475 148.028 43.879 147.915 44.221 147.687 44.5 147.459 44.779 147.145 44.976 146.747 45.09L148.157 47.551 147.174 47.551 145.849 45.192 144.747 45.192z"/>
    <polyline fill="#404040" points="152.72 47.551 150.114 44.62 150.114 47.551 149.25 47.551 149.25 41.74 150.114 41.74 150.114 44.286 152.549 41.74 153.617 41.74 151.028 44.406 153.805 47.551 152.72 47.551"/>
    <polyline fill="#404040" points="9.445 35.062 9.445 11.212 .355 11.212 .355 4.462 26.905 4.462 26.905 11.212 17.815 11.212 17.815 35.062 9.445 35.062"/>
    <path fill="#404040" d="M30.685 35.062L30.685 12.157C31.945 12.427 33.219 12.562 34.51 12.562 35.829 12.562 37.165 12.427 38.515 12.157L38.515 35.062 30.685 35.062M51.834 21.877L51.834 35.062 44.004 35.062 44.004 12.157 51.204 12.157 51.609 15.082C52.299 13.973 53.199 13.132 54.309 12.562 55.419 11.993 56.604 11.707 57.864 11.707 59.214 11.707 60.444 12.007 61.554 12.607 62.664 13.207 63.564 14.047 64.254 15.127 65.064 14.018 66.122 13.169 67.427 12.584 68.732 11.999 70.104 11.707 71.544 11.707 73.134 11.707 74.537 12.075 75.752 12.81 76.967 13.545 77.919 14.565 78.609 15.87 79.299 17.175 79.644 18.682 79.644 20.392L79.644 35.062 71.814 35.062 71.814 21.202C71.814 20.243 71.551 19.477 71.027 18.907 70.502 18.337 69.834 18.052 69.024 18.052 68.034 18.052 67.239 18.367 66.639 18.997 66.039 19.627 65.739 20.587 65.739 21.877L65.739 35.062 57.909 35.062 57.909 21.202C57.909 20.243 57.654 19.477 57.144 18.907 56.634 18.337 55.944 18.052 55.074 18.052 54.114 18.052 53.334 18.367 52.734 18.997 52.134 19.627 51.834 20.587 51.834 21.877M95.574 17.242C93.024 17.242 91.494 18.592 90.984 21.292L99.714 21.292C99.504 19.823 99.001 18.78 98.207 18.164 97.411 17.55 96.534 17.242 95.574 17.242zM106.284 32.722C105.144 33.532 103.697 34.223 101.942 34.792 100.187 35.362 98.319 35.647 96.339 35.647 93.609 35.647 91.277 35.145 89.342 34.14 87.407 33.135 85.922 31.732 84.887 29.932 83.852 28.132 83.334 26.062 83.334 23.722 83.334 21.353 83.844 19.252 84.864 17.422 85.884 15.593 87.294 14.16 89.094 13.124 90.894 12.09 92.994 11.572 95.394 11.572 97.734 11.572 99.796 12.075 101.582 13.079 103.366 14.085 104.761 15.48 105.767 17.265 106.772 19.05 107.274 21.142 107.274 23.542 107.274 23.872 107.252 24.217 107.207 24.577 107.162 24.937 107.109 25.313 107.049 25.702L91.074 25.702C91.794 28.342 93.759 29.663 96.969 29.663 98.409 29.663 99.684 29.437 100.794 28.987 101.904 28.538 102.834 28.087 103.584 27.637L106.284 32.722zM119.784 35.647C117.804 35.647 115.951 35.332 114.226 34.702 112.501 34.072 110.949 33.172 109.569 32.002L112.899 27.592C113.949 28.432 115.082 29.115 116.296 29.64 117.512 30.165 118.704 30.427 119.874 30.427 120.654 30.427 121.276 30.292 121.742 30.022 122.206 29.752 122.439 29.347 122.439 28.807 122.439 28.238 122.176 27.78 121.651 27.435 121.126 27.09 120.189 26.752 118.839 26.422L116.679 25.882C112.388 24.743 110.244 22.448 110.244 18.997 110.244 17.467 110.664 16.147 111.504 15.037 112.344 13.928 113.499 13.073 114.969 12.472 116.439 11.872 118.148 11.572 120.099 11.572 122.019 11.572 123.826 11.872 125.522 12.472 127.216 13.073 128.769 13.942 130.179 15.082L126.759 19.582C125.709 18.743 124.599 18.068 123.429 17.557 122.259 17.047 121.164 16.792 120.144 16.792 118.494 16.792 117.669 17.332 117.669 18.412 117.669 18.892 117.917 19.283 118.411 19.582 118.907 19.882 119.604 20.153 120.504 20.392L123.429 21.202C125.618 21.803 127.239 22.703 128.289 23.902 129.339 25.102 129.864 26.528 129.864 28.177 129.864 29.678 129.443 30.99 128.604 32.115 127.764 33.24 126.586 34.11 125.072 34.725 123.556 35.339 121.794 35.647 119.784 35.647"/>
    <path fill="#009BFF" class='no-color-change' d="M153.669 18.547L158.169 18.547C159.458 18.547 160.478 18.209 161.228 17.535 161.978 16.86 162.353 15.937 162.353 14.767 162.353 13.658 161.978 12.765 161.228 12.09 160.478 11.414 159.458 11.077 158.169 11.077L153.669 11.077 153.669 18.547zM153.669 24.892L153.669 35.062 145.568 35.062 145.568 4.462 159.068 4.462C162.669 4.462 165.518 5.385 167.618 7.23 169.718 9.075 170.768 11.587 170.768 14.767 170.768 16.837 170.303 18.622 169.373 20.122 168.443 21.622 167.138 22.792 165.458 23.632L171.713 35.062 162.804 35.062 157.718 24.892 153.669 24.892zM185.979 17.242C183.429 17.242 181.898 18.592 181.389 21.292L190.119 21.292C189.908 19.823 189.406 18.78 188.611 18.164 187.816 17.55 186.939 17.242 185.979 17.242zM196.689 32.722C195.548 33.532 194.101 34.223 192.346 34.792 190.591 35.362 188.724 35.647 186.744 35.647 184.013 35.647 181.681 35.145 179.746 34.14 177.811 33.135 176.326 31.732 175.291 29.932 174.256 28.132 173.739 26.062 173.739 23.722 173.739 21.353 174.249 19.252 175.269 17.422 176.288 15.593 177.699 14.16 179.499 13.124 181.299 12.09 183.398 11.572 185.799 11.572 188.139 11.572 190.201 12.075 191.986 13.079 193.771 14.085 195.166 15.48 196.171 17.265 197.176 19.05 197.679 21.142 197.679 23.542 197.679 23.872 197.656 24.217 197.611 24.577 197.566 24.937 197.513 25.313 197.454 25.702L181.479 25.702C182.199 28.342 184.163 29.663 187.374 29.663 188.814 29.663 190.088 29.437 191.199 28.987 192.308 28.538 193.239 28.087 193.989 27.637L196.689 32.722zM212.393 35.647C210.054 35.647 207.976 35.145 206.161 34.14 204.346 33.135 202.913 31.732 201.864 29.932 200.813 28.132 200.289 26.033 200.289 23.632 200.289 21.232 200.813 19.132 201.864 17.332 202.913 15.532 204.346 14.13 206.161 13.124 207.976 12.12 210.054 11.617 212.393 11.617 214.463 11.617 216.278 11.999 217.838 12.765 219.398 13.53 220.778 14.752 221.978 16.432L216.804 20.212C216.383 19.582 215.836 19.065 215.161 18.66 214.486 18.254 213.758 18.052 212.978 18.052 211.628 18.052 210.503 18.555 209.604 19.56 208.703 20.565 208.253 21.922 208.253 23.632 208.253 25.342 208.703 26.7 209.604 27.704 210.503 28.71 211.628 29.212 212.978 29.212 213.758 29.212 214.486 29.01 215.161 28.605 215.836 28.2 216.383 27.682 216.804 27.052L221.978 30.832C220.778 32.513 219.398 33.735 217.838 34.499 216.278 35.265 214.463 35.647 212.393 35.647M236.603 29.437C237.983 29.437 239.085 28.905 239.91 27.84 240.735 26.775 241.148 25.358 241.148 23.587 241.148 21.817 240.735 20.408 239.91 19.357 239.085 18.307 237.983 17.782 236.603 17.782 235.223 17.782 234.12 18.307 233.296 19.357 232.47 20.408 232.058 21.817 232.058 23.587 232.058 25.358 232.47 26.775 233.296 27.84 234.12 28.905 235.223 29.437 236.603 29.437zM236.603 35.647C234.143 35.647 231.975 35.129 230.1 34.095 228.225 33.06 226.755 31.642 225.691 29.842 224.625 28.042 224.093 25.957 224.093 23.587 224.093 21.218 224.625 19.132 225.691 17.332 226.755 15.532 228.225 14.122 230.1 13.102 231.975 12.082 234.143 11.572 236.603 11.572 239.063 11.572 241.23 12.082 243.106 13.102 244.98 14.122 246.451 15.532 247.515 17.332 248.58 19.132 249.113 21.218 249.113 23.587 249.113 25.957 248.58 28.042 247.515 29.842 246.451 31.642 244.98 33.06 243.106 34.095 241.23 35.129 239.063 35.647 236.603 35.647zM261.038 26.197L261.038 35.062 253.208 35.062 253.208 12.157 260.363 12.157 260.858 15.982C261.337 14.752 262.125 13.754 263.221 12.99 264.315 12.225 265.583 11.842 267.023 11.842 267.833 11.842 268.448 11.948 268.868 12.157L268.868 19.312C268.537 19.193 268.17 19.103 267.765 19.042 267.36 18.982 266.903 18.952 266.393 18.952 264.833 18.952 263.55 19.53 262.545 20.685 261.54 21.84 261.038 23.677 261.038 26.197M283.763 29.437C285.113 29.437 286.199 28.905 287.025 27.84 287.85 26.775 288.263 25.358 288.263 23.587 288.263 21.817 287.85 20.4 287.025 19.334 286.199 18.27 285.113 17.737 283.763 17.737 282.382 17.737 281.28 18.27 280.455 19.334 279.63 20.4 279.218 21.817 279.218 23.587 279.218 25.358 279.63 26.775 280.455 27.84 281.28 28.905 282.382 29.437 283.763 29.437zM288.803 35.062L288.398 32.047C287.678 33.158 286.747 34.035 285.608 34.68 284.467 35.325 283.147 35.647 281.648 35.647 279.577 35.647 277.762 35.137 276.202 34.117 274.642 33.098 273.427 31.68 272.557 29.865 271.687 28.05 271.253 25.957 271.253 23.587 271.253 21.218 271.687 19.132 272.557 17.332 273.427 15.532 274.62 14.122 276.135 13.102 277.65 12.082 279.398 11.572 281.378 11.572 282.757 11.572 284.033 11.865 285.202 12.45 286.372 13.035 287.347 13.822 288.128 14.812L288.128 2.212 295.957 2.212 295.957 35.062 288.803 35.062zM312.293 17.242C309.742 17.242 308.212 18.592 307.702 21.292L316.432 21.292C316.222 19.823 315.72 18.78 314.925 18.164 314.13 17.55 313.252 17.242 312.293 17.242zM323.003 32.722C321.862 33.532 320.415 34.223 318.66 34.792 316.905 35.362 315.037 35.647 313.057 35.647 310.327 35.647 307.995 35.145 306.06 34.14 304.125 33.135 302.64 31.732 301.605 29.932 300.57 28.132 300.053 26.062 300.053 23.722 300.053 21.353 300.562 19.252 301.582 17.422 302.602 15.593 304.013 14.16 305.813 13.124 307.613 12.09 309.712 11.572 312.113 11.572 314.452 11.572 316.515 12.075 318.3 13.079 320.085 14.085 321.48 15.48 322.485 17.265 323.49 19.05 323.992 21.142 323.992 23.542 323.992 23.872 323.97 24.217 323.925 24.577 323.88 24.937 323.827 25.313 323.767 25.702L307.793 25.702C308.513 28.342 310.477 29.663 313.688 29.663 315.128 29.663 316.402 29.437 317.513 28.987 318.622 28.538 319.553 28.087 320.303 27.637L323.003 32.722zM335.827 26.197L335.827 35.062 327.997 35.062 327.997 12.157 335.152 12.157 335.647 15.982C336.127 14.752 336.914 13.754 338.01 12.99 339.105 12.225 340.372 11.842 341.812 11.842 342.622 11.842 343.237 11.948 343.658 12.157L343.658 19.312C343.327 19.193 342.96 19.103 342.555 19.042 342.15 18.982 341.692 18.952 341.182 18.952 339.622 18.952 338.34 19.53 337.335 20.685 336.329 21.84 335.827 23.677 335.827 26.197M34.51 10.357C33.219 10.357 32.117 9.9 31.202 8.985 30.287 8.07 29.83 6.967 29.83 5.677 29.83 4.388 30.287 3.285 31.202 2.37 32.117 1.455 33.219.997 34.51.997 35.799.997 36.902 1.455 37.817 2.37 38.732 3.285 39.19 4.388 39.19 5.677 39.19 6.967 38.732 8.07 37.817 8.985 36.902 9.9 35.799 10.357 34.51 10.357"/>
  </g>
</svg>
